<?xml version="1.0" encoding="UTF-8"?><!DOCTYPE svg PUBLIC '-//W3C//DTD SVG 1.1//EN' 'http://www.w3.org/Graphics/SVG/1.1/DTD/svg11.dtd'><svg viewBox="0 0 1000 241.359" xmlns="http://www.w3.org/2000/svg"><path id="47001" d="m677 74l-1 3l3 1l1 4l5 2l4 6l2 8l6 12l2-1l-2-3h2l2 1l-1-3l3 1l1-4l1-1l1-2l5 1l6-3l2-1l1-2l2-1l-4-5l7-6l2-3h1l3-5l4-2l-3-4l-5-8h1l-2-1l-1-3v-1l-1 4l-2 1v2h-2v3l-3 1l-1-1h-4l-4-1l-6-1v4v5l-1 1l-7-6l-4 1l-2-1h-3l-2 2l-1 4z"/><path id="47003" d="m421 169l1 6v2l4 10h2h2l7 2l4-1l2 3l3 3h3l1-1v-3h5l1-2h1l2-2l5-2v-3h4l1-6h1l-1-1l1-6v-10l-1-8l-5-3l-2 1v-3h-4l-1 2l-3 1v2l-3 1h-1v-3l-1-1l-4 1v1l-2-3h-2l-3-4l-3-2h-11v2l-2 14l-1 1h3l-2 1z"/><path id="47005" d="m242 100v19h4l11 1l4-1l2 1v4l3-1h4v-2l1-1l3-4l1-5v-5h-1h-4l-5-1l-1-3v-2l3-3v-4l1-2l3-5l3-4l2-3v-5l-2-3v-3l-2-3v-3l1-3l-1-6l-3-6l-1-1h-1h-4h-7v3l-1 4l1 2l1 4v1l-2 1v1l-1 3l-3 1v2l-4 5l-1 3l-4 4z"/><path id="47007" d="m564 159l-1 3l3 5v2l11 11l10 9l4-9l3-5l2 1l1-2l3-2l-4-2l3-6h3l-1-6l6-7l16-20h-1l-1-1l-11 3l-2-3l-5 1l-2-1l-17 1l-2 1v4v1l-4 5z"/><path id="47009" d="m707 153v1l3 1l3 2l2-1l1 2h1l1 2l-1 1l2 1h2h2l6-1v3l-2 2l3 4l1-2l2 2h2l-3 2l1 1h1v1l1-1l1-1h1h1h1v-1v-1h1v-1v-1h1l1-2l1-1h1h1l1 1l1-1h1h1l1-2l1-1h2l1-1l1-1v-1l1 1v-1l1 1l2-1l1 1l1-1h1h1h2l1-1v1l1-1v-17l-1 1l-1-3l-3-1l1-1l-2-1v-3l-3-7v-1l-2-2l-1-5h-2v-4l-1-1l-2 1v1l-5 5l-6-1l-4-4l-4 2l-1-2h-5l2 1v3l-2 1l-1-2h-1l-1 4l-1-1l-2-3l-3 1l-2 2v-2h-2l1 2l-1 2v1v2h-2l-1-1h-1v5l3 2l-2 2l-1 4l2 2l1 4l2 2v1l-2 3z"/><path id="47011" d="m610 220l2 6v2h1l1 3l-1 1l1 2l3 3l-1 4h2h1h1h9h3h1h1h1h4l2-6l1-4l2-4h-2l6-12l-1-2l1-2l-1-3l1-1l-2-1l1-1l1-2l-2-1l-2 1l-2-1v-2l3-1l-3-1l-4-3l-5-2l-3-3h-1l-2-2l-1 4l-5 6h-2l1 1l-3 3l-2 5l-3 6v1z"/><path id="47013" d="m685 60v6h3l2 1l4-1l7 6l1-1v-5v-4l6 1l4 1h4l1 1l3-1v-3h2v-2l2-1l1-4v1l1 3l2 1l1-2h1l1-2l1-9l2-2v-2v-2l3 2l3-3l-1-2h1l-3-1l-2-7l-2-4l-3-8v-4l-16-1h-12h-4v4h2l-1 5l-1 3l-3 1l-5-1l-1 7l-1-1l1 8l3 4h-2v14v1l-3 1z"/><path id="47015" d="m474 135v4l4 4l3 2h3l3 2l6 1l1-1l4-1h1l-1-8l3-6l2-2l4-8l4-2l-1-3l-3-3l-9-10l-2-1l-8-1l-4 1l-4-1v2v3l1 2l-1 1l-1 4h-1l-1 8l-1 4v5l-1 3z"/><path id="47017" d="m185 126v1h12l2-3h2v-2l45 1v-4h-4v-19v-20v-4h-30h-2l-5-1v6l-14-1v8h-3h-1l-1 9z"/><path id="47019" d="m920 59v2l2-1l4 1l4 3l-2 3l3 1l2 2l1 5l1-1l1 1l1 1h1v1h1v-1h1h1h1l1 1v1v1v1l1 2h1h1h1h1h1h1l1-1h1l1-1v-1h1l1 1l1-1l8-14l2-4l1-2l-2 1l-4-4l-1-4l-1-2l-3-1l-2-4h-2l3-4l8-10l2-1l-4-5v-1l-2 3l-4 1l-5 4l-2-1l-1 2l-10 7h-1l-6-3l-4 4l-1-1v4l-1 2l-1 5z"/><path id="47021" d="m350 47l-1 4h2h3l1-1l2 2h5l2 2v4l-3 2l-1 2l1 1l1-1l1 2l-1 1l-2 2l4 3l1 2l-3 1l1 2l-1 7v5l-1 3l11 1h4h1l1-7l4-5l2-12v-2l2-6l2-2l3-6l2-6l-1-3l-6 1l-3 1l-2-3l-6-4l-4-4l-3-1l-3 1v4l-2 1v-2l-2 1v2h-3l-1 2l-4 2l-1 4z"/><path id="47023" d="m170 179l-1 6l6 7l1 12h8l1-1l2-8l2-2v2l2-1h-1v-3l3-3l8-3h9h15l1-3l-1-2v-11h-2l-4 2l-1-1l-5-1l-5-2l-2-3l-2-3l-3-5l-4-1l-1 1v2l-3 5l-4 7l-16 9z"/><path id="47025" d="m730 13v4l3 8l2 4l2 7l3 1h-1h3l2-2l3 1l1 1l3-2l1 2v1l4 2l2 4v2l1 2h3l1-3l4 3l1 2l5-2l2-2v-1h3h2l2 2l3-3l2 1l-1-2h2l2 1h2l-1-2l2-2l1-3l2 1v-1l3 1l2-3v-4l-3-10l-4-6l-5-3h-9h-8l-3-1h-3v1h-1l-1 1v1h-11l-12-1h-5z"/><path id="47027" d="m521 9l-2 17l5-3l2 3h4l-2-3l4-1l1 4h3l10 4l2-1v2l4 4l3 4l1 1l1-8l4-6l7-1l-1 2h2l-1-2l6-3h4l2-1l2-6l-1-2v-6h-2v1h-1h-3h-1l-11 1h-6h-8h-14l-7-1h-6z"/><path id="47029" d="m808 112v3l5 8l-2 3v2l1 2l-1 3l1 5h2l1-1h1v-1h1h1h1h1h1h1l1-1v-1l1-1l1-1v-1h1h1l2-1h1h1l1-1h1l1-1l1-1l1 1h1v-1h1v1h1l1-1l2 2h1h1h1h1v-1h1v-1h1v-1l1-1v-1v-1l1-1h1l1-1v-1h1v-1v-1v-1v-1l2-1v-1v-1v-1v-2l-1-1v-1h1v-1v-1l1-1l-7-8l-6-6l-5-5l-1-2h-2l-3-4l-2 1v-1l-2-1l-2-3l-2-1l1-4l-3 1l2 7h-3l-2-3h-1v3h-3l3 5l-1 1h-2l1 4l-2 2v7l-2-2l-3 15z"/><path id="47031" d="m468 181l-3 3l3 1l-2 1l3 4l-2 1v1l2-2l2 1l2-1l2 2v-2l4-2l14 2l1 2h1l2 3l3-1l8 4v-1l1-5l2-2l2-5h-2v-2l-1-7l1-6l1-3l-1-1l1-1l-1-2l-2-1l-6-4l1-3l-2-4l-3-5h-1l-4 1l-1 1l-6-1l-3-2h-3l-3-2l-4-4l-5 2v9l1 8v10l-1 6l1 1h-1z"/><path id="47033" d="m110 120v3l1 1l1 3l4 3h2l2 2l8 1l3 2l4 2l3 3h4l1 1l1 2h3l2 1l15-16l-3-2l-3-2l-3-2h-2l-4-2v-2l-4 1l-4-2h-2l-1-4l-2-2l1-3l-1-6l-4-2l-2-1l-1-2l-1 5l-6 7l-2 1l-1 3l-7 1v3z"/><path id="47035" d="m582 127h-1l2 1v-1l1 1v2v1l17-1l2 1l5-1l2 3l11-3l1 1h1l1-2h3l9-7h2l6-5l3-5l3-1v-1l-5-12l-8-9l-2-5h-2l-1 1l-4-7l-3-2l-1-1l-3 1l-1-1l-2 1l-2-1l-2-1l-2 1l-2-2l-4 2l-3 3h1l-3-1l-3 2l-3 4l-9-1l-1 1l-1 2l1 4l-1 2l-1 7v2h-1v2l3 8h3v2h-2l1 3l-2 9l-1 2z"/><path id="47037" d="m377 91h-1l2 8l2-2l10-7l16 2h2l4 3l3 1l1 1l7 4h3v1l1-2v-4l1-1l4-3h1l-1-2l2-2l1-3l2 2v2l1-6l-2-1l1-5l-4 1v-2l-1-4l-1-3l-2-7h-2h-1l-2-1l-1-5l-3-2v-2l-6-4v-4l-3-4l-1-1l-1 2h-2l-1 2l1 3l-5 1l-3-3h-3l-2-2l-1-1l-1 1l1 3l-2 6l-3 6l-2 2l-2 6v2l-2 12l-4 5z"/><path id="47039" d="m239 164v15l3 2l1 2l1 2l3-1l5 1l2-1l5-4l5 4h1l4-1l1-1v-2l-4-1l-3-1l-1-2v-2l2-2l4-1l1-1l1-4l-1-3l-2-2l-4-9v-1l1-5l1-4l-2-1v-4l1-2l4-4l1-2l1-6h-4l-3 1v-4l-2-1l-4 1l-11-1v4l-1 30z"/><path id="47041" d="m491 85l-1 2l2 2l-1 2l2 2v3l1 1l2 6l2 1l9 10l3 3l1 3l1-1l10 1l4-1l8 2l3 1l3-3h-4l3-5v-1l-3 1l2-3l-2-10l4-5l-1-1h-1l-2-2l-2-5l-4-3l-3 1l-1 1h-2l-1-1l1-2l-2-2l-2-4l-3 2l-1-1l-3 5l-3-2l-1-1l-1-1v3l-3-1l-2 1l-1-2l-3 4l-3-1v1l-3-1z"/><path id="47043" d="m317 72l1 6l1 6v7l-1 4l2 3l6 1h5l16 3l3 1v-1l9 1l-1-2l1-1l2-10l1-3v-5l1-7l-1-2l3-1l-1-2l-4-3l2-2l1-1l-1-2l-1 1l-1-1l1-2l3-2v-4l-2-2h-5l-2-2l-1 1h-3h-2l-2 2l-24-4l-1 13z"/><path id="47045" d="m67 97v1l1 1v2v1h1v1l1 1l2 1l1 1h1l2 2v1l1 1v1l1-3l3 1l2-2l3 1l1-2l5 1h3v-2h9l1 1l2 2l3 3l2 3l7-1l1-3l2-1l6-7l1-5l-2-2l5-2l1-25l-38-1v3l-16 1h1l1 2l1 1l1 1v1v1v1v1l-1 1l-2 1l-1 1h-2l-2 1h-1v1l-1 1v2l-1 3v2v1l-1 1l-1 2v1z"/><path id="47047" d="m78 211l-1 29h9h6h2h1h6h3h7h15h2v-3l2-54l-29-1h-1h-3h-8l-7 1l-3 2l-1 1v14v9z"/><path id="47049" d="m599 50v4l4 15l-4 8h2l3 1h-1l3-3l4-2l2 2l2-1l2 1l2 1l2-1l1 1l3-1l1-2l-2-2v-4l3-4l1-7l3-1l1 1l2-2l1 1h2l2-4l1-2l1 1l3-1l-1-2h2l1-4l2 1l2-2l3-1l-4-6l-2-9l-2-4h-6l-4-4l-5-2l-4-2h-5l-4 1l-3 1l-1-1l-1 1l-3 2v-1l-1 5h-1l-3 4l-2 13h-2v1z"/><path id="47051" d="m461 218h-2l2 2v1v2v13v4h1h28l23 1v-10v-9v-14l-1-1l-4-7v-2l-8-4l-3 1l-2-3h-1l-1-2l-14-2l-4 2v2l-2-2l-2 1l-2-1l-2 2l2 1l-1 4l-4 5l1 3l-2 1l1 4l-2 1v4l-1 1z"/><path id="47053" d="m127 95l2 2l1 2l2 1l4 2l1 6l-1 3l2 2l1 4h2l4 2l4-1v2l4 2h2l3 2l3 2l24 1v-1l1-29l1-9l-7-4v-2l-2-1h-4l-4-1l-1-2h-2l-4-6l-4-3l-3-4v3h-23l-1 25z"/><path id="47055" d="m355 198h2v9v8l2 1l-2 6l-1 10v7h1h1h10l13 1h1h3h1h12h1h1h1l1-38v-4l-2-4l-2 3l-3-1v-2l-2 1v-4l-2-2l-1-3l1-4l-4-2h-3l-1 1l-3-1l-2-2h-3l-1-1h-3l-1-2h-3l-2 1l-1 1l-6 1l-1 7v12z"/><path id="47057" d="m759 74l1 3l3 5l1-1l3 5l1-1l-2-4v-2h3l-1 3l2 1l1-1v-2l-1-1v-2h4l1-3l1 1l1-2h2l-1-3l1 1h2l2 3l1-2l3 1h1l2-1v-2h2v-4l3 1l1-1l-1-3l4-4h3v-2h3l1-2l3 4l1-2v3l2-1v-1h1v-2h1l-2-4l1-4l-1-4l-2-1l1-2l-2 1l-1-2l-4-1l-1-2l-4 2v-1l-3-1v1l-2-1l-1 3l-2 2l1 2h-2l-2-1h-2l1 2l-2-1l-3 3l-2-2h-2h-3v1l-2 2l-5 2l-1-2l-3 7v2l-1 1l-1 3h2v2l-1 5l-2 1l-1 2l1 1z"/><path id="47059" d="m825 71l-1 4l2 1l2 3l2 1v1l2-1l3 4h2l1 2l5 5l6 6l7 8l1-1h1h1l1 1l1-1v1h1v1h1v1h1v1h1h1l1-1l-1-1l1-1l1-1l1-1v-1l1-1h-1v-1v-1v-1l1-1h1h1l1-1l2-1h1l1-1v-1h1v-1h2v-1l2-1l1-1h1l1-1h1h1l1 1v1v1h1h1l3-5l-2-3l-3-3l-3-3l-1-1l3-38l-1-1l-8 1l-3 1l-2 3h-4l-4 3l-3-1l-5 3l-3 3l-3-1l-3 3l-3 4l-4 3l-1-1l-5 5h-1l-3 3l-4 4z"/><path id="47061" d="m508 198v2l4 7l3-2h3l6 3l4 1l5-4l-2-7l2 1l4-3h3l8-2l2-3l5-3l1-3l1-3l-3-1v-2l-3-1l-1-4l1-4l-4-3l-4-3h-11l-6 1l-4 1l-4 2l-1-2l-5-1l-1 1l1 1l-1 3l-1 6l1 7v2h2l-2 5l-2 2l-1 5z"/><path id="47063" d="m790 70v2l1 3h4h6l9 2l2 1l4 5l1 2l1-1l-3-5h3v-3h1l2 3h3l-2-7l3-1l2-1l4-4l3-3l-2-4l-1-2l-3-2l-3-5v-2l-2 2v3l-2-2v2l-2 2h-3l1 2l-3-1h-1v2h-1v1l-2 1v-3l-1 2l-3-4l-1 2h-3v2h-3l-4 4l1 3l-1 1l-3-1v4z"/><path id="47065" d="m558 241h1h10h2h4h2h1h1h2h1h2h2h1h1h3h1h16h7h1l1-4l-3-3l-1-2l1-1l-1-3h-1v-2l-2-6l2-6v-1l3-6l2-5l3-3l-1-1l-2-3l-2-7l-3-3h-3l2-4l-6-4l-4 1l-1-4h-3l-1 2l-2-1l-3 5l-4 9l-2 5l-17 24v2v2l3 5l-2 6h-3l-2 5z"/><path id="47067" d="m789 12l5 3l4 6l3 10v4l-2 3v1l4-2l1 2l4 1l1 2l2-1l7-3l3-2l-1-2l5-3v-1l3-4l2-2l9-6l4-2l2 1l1 2l2-1l2 1l7-4l6-3h-6h-11h-5h-26h-1l-2-1l-11 1z"/><path id="47069" d="m128 237v3h5h2h13h1h11h4h4h4h4v-10v-9v-17l-1-12l-6-7l1-6l-6-1h-22h-12v5z"/><path id="47071" d="m224 198l-1 42h2h12h7l-1-1v-1h24h1l1-41l-2-1l-2 1v-5l1-3l-2-2v-3l-5-4l-5 4l-2 1l-5-1l-3 1l-1-2l-1-2l-3-2l-1 1h-13l1 2l-1 3l-1 9l-1 2z"/><path id="47073" d="m811 41l-1 2l2 1l1 4l-1 4l2 4l3 1l-1-2h3l2-2v-2l2 2v-3l2-2v2l3 5l3 2l1 2l2 4h1l5-5l1 1l4-3l3-4l3-3l3 1l3-3l5-3l3 1l4-3h4l2-3l3-1l3-1v-2l-3-3l9-6v-2l2-1v-4l-1-5l2 1l-1-3h-8h-2h-16l-6 3l-7 4l-2-1l-2 1l-1-2l-2-1l-4 2l-9 6l-2 2l-3 4v1l-5 3l1 2l-3 2z"/><path id="47075" d="m96 155l-3 2l3 3l-1 2h2v20h3h1l29 1v-5h12l1-20v-17l-1-1h-4l-3-3l-4-2l-3-2l-8-1l-2-2h-2l-4-3l-1-3l-1-1l-5-1l-1 2l-1 2l-3 5v2h2l-1 3l-2 6h-2v13z"/><path id="47077" d="m197 150l-1 6l1-1l4 1l3 5l2 3l2 3l5 2l5 1l1 1l4-2h2v11h13l1-1v-15l6-11l1-30l-45-1v2h-2l-2 3l-1 21z"/><path id="47079" d="m207 25l-2 50l5 1h2h30v4l4-4l1-3l4-5v-2l3-1l1-3v-1l2-1v-1l-1-4l-1-2l1-4v-3h7h4h1l-5-9l-3-3l1-4v-4h-9h-22h-1h-1l-9-1h-4h-1h-2h-2h-2z"/><path id="47081" d="m297 140l-1 5l2 2l5 2l3 4l4-1v-3h2l2-2h2l3 3h4l6 2l5-1l7-5h2l6-6h4l1-3l1-1l2-18l2-12v-3l-9-1v1l-3-1l-16-3h-5l-6-1l1 4l-4 3l-3-1h-3l-3 4l-7 3l-2 9l-1 16l2 3z"/><path id="47083" d="m269 47l3 6l1 6l-1 3l14 2l4-2l5 1l3 1l4 1l4 3l8 1l1 2l2 1l5-10l1-13h-2l-7-1v-3h-14l-1 1l-4 2l-3 1l-5 1h-4l-4-1l-6-2z"/><path id="47085" d="m264 100v2l1 3l5 1h4h1v5l-1 5l-3 4h6l2 2l5 3l1-2l2-1l1-2h11l2-9l7-3l3-4h3l3 1l4-3l-1-4l-2-3l1-4v-7l-1-6l-1-6l-2-1l-1-2l-8-1l-4-3l-4-1l-3-1l-5-1l-4 2l-14-2v3l2 3v3l2 3v5l-2 3l-3 4l-3 5l-1 2v4z"/><path id="47087" d="m515 56l1 1l1 4l2 1l1-1l3 2v-1l4 3l2-1l4 1l7 1v1l7-3l2 1v-1l2-1v-3h3v-3h2v-3v-10v-4l-1-1l-3-4l-4-4v-2l-2 1l-10-4h-3l-1-4l-4 1l2 3h-4l-2-3l-5 3l-2 12z"/><path id="47089" d="m762 84l2 5l2 1v2h2v-1l6 4l9 7l2 4l4 1v1l4-1l1 1l2-1h3v2h3l4 1l2 2l1-1l3-15l2 2v-7l2-2l-1-4h2l-1-2l-4-5l-2-1l-9-2h-6h-4l-1-3l-2 1h-1l-3-1l-1 2l-2-3h-2l-1-1l1 3h-2l-1 2l-1-1l-1 3h-4v2l1 1v2l-1 1l-2-1l1-3h-3v2l2 4l-1 1l-3-2z"/><path id="47091" d="m952 45h2l2 4l3 1l1 2l1 4l4 4l2-1l2-3l1-2l1-1h1l1-1h1l1-2l1-1h1l1-1l2-1h1l1-1h1v1h1l1 1h1v1h1h1h1l1-1l1 1h1h1v-1l-1-1h-1v-1v-1v-1h-1v-1v-1v-1l-1-1v-1v-1h1l1-1l1-1v-1v-1v-1v-1l1-1h1v-1l1-1h-1v-1v-1v-1v-1v-1v-1l-1-1v-1v-1h1v-1h1v-1v-1v-1h1l1-1h-1v-1v-1l4-3l-10-1h-11l-5 2v2l-6 3l-1 2l-4 3l-2 3v1l4 5l-2 1l-8 10z"/><path id="47093" d="m699 106h-2l2 3l-2 1l1 2l3 3l5 6l3 3v1l1 1h2v-2v-1l1-2l-1-2h2v2l2-2l3-1l2 3l1 1l1-4h1l1 2l2-1v-3l-2-1h5l1 2l4-2l4 4l6 1l5-5v-1l2-1l3-3l4-1l4-3h2v-2l2-1l2-4l-2-1l-1-6v-2l-2-1l-2-5h2l3 2l-3-5l-1 1l-3-5l-1-3l-6-1h-14v1l-1-1h-1l-2-2l-4 2l-3 5h-1l-2 3l-7 6l4 5l-2 1l-1 2l-2 1l-6 3l-5-1l-1 2l-1 1l-1 4l-3-1l1 3z"/><path id="47095" d="m70 63v1l1 1l1 1h1l2 2h1l1 1l1 1l1 1l16-1v-3v-1l4-1l1-1l2-4l1-5l2-3v-2v-3l2-4l3-4l-1-4l1-3l2-3l-1-4h-1l-3 1h-1h-1h-2l-1 1v1l-1 1l-2 2l-1 1h-1h-1l-1-1l-1-1v-1l1-3h-1h-5l1 1l1 1v1v1v1v1l-1 1l-1 1l-1 1v1v1h1l2 3l1 2v1v1v2l-1 1v1h-1v1h-1h-1h-1l-3-1h-2h-1l-1 1v1v1l1 2l2 2h1v1l3 1h1l1 1v1l1 1v1l-1 1h-1l-1-1h-1l-1 1v1h-2h-1h-1l-2-1h-1h-1l-1-1l-3 1h-1l-1-1l-1 1z"/><path id="47097" d="m41 136v1v1v3v1h1v1l1 2l1 1h1l1 1h1h1l1-1l1-1l1-1h1l1 1v1v1v1v1h-1v1h-2l-2 2h-1h-1h-1l-1 1l-2 1h-1v1v1v1l1 2v1h1l1 1h1h1v1v1l2-2l2-5l1 1l4-3h1v-2l2-1l2-3l1 1l3-1v-1h3v2l4-1l1 1h2v1l2-2v-1l2 1l1-1l1 2l3 1l1 2h3l1 1l2 1l2 3h1l3-2h1v-13h2l2-6l1-3h-2v-2l3-5l1-2l1-2l5 1v-3l2-3v-3l-2-3l-3-3l-2-2l-1-1h-9v2h-3l-5-1l-1 2l-3-1l-2 2l-3-1l-1 3v1l-1 1h-1l-1 1l-1-1l-1-1l-3-1l-3-1l-2 2l-1 1l-1 1v1v1v1h1l2 1l2 1l2 1l1 1v1v1l-2 1l-1 1h-2l-1-1h-1l-2 1l-2 2v1v1l-1 2h-1l-1 1h-1h-1l-2 1l-2 1l-1-1l-2-2h-1v1l-4 2l-1 1z"/><path id="47099" d="m311 236l1 2l20 1h1h1h3h1h3h1h6h3h4h1v-7l1-10l2-6l-2-1v-8v-9h-2l2-1v-12l1-7l-2-1v1l-8-2h-4v-2h-14v6l-3-1v1h-4l-1 3h-6l-1 24v6v6l-1 12l2 1l-1 2h-3z"/><path id="47101" d="m300 168l-1 3l4 1h5l-1 4l5 1l1 4l3 2h6l1-3h4v-1l3 1v-6h14v2h4l2-5l-1-2l2-2l-1 1l-1-6l-1-1h-3v-2l-4-3v-4l3-3l-1-3h-2l-7 5l-5 1l-6-2h-4l-3-3h-2l-2 2h-2v3l-4 1l1 3v3l-4 2l-1 7z"/><path id="47103" d="m402 202l-1 38h2h4h12h1h1h2h1h4h2h2h1h4h1h6h3h5h9v-4v-13v-2h-3l-1-3l-1 4l-1-3v-4l-3-9l-2-1v2l-1-2l1-1v-2h-2l-1-2l-3-1v-1l-6-3h-1l-2-3l2-3l-7-2h-2v6l-4 1l-7 3l-5 5l-1 1z"/><path id="47105" d="m661 148v1l3 1l1-2l3 3h2l-1-3l1-3l1 1h5v-1l3-1v1h2l1 3h3l3-2l-1-1h4l4 1l-1 2l2 1h3v2l4 1h3l1 1l4-3l2-3v-1l-2-2l-1-4l-2-2l1-4l2-2l-3-2v-5h1v-1l-3-3l-5-6l-3-3l-2-1v4l-6-3l-1 7l-1 2l-2 1l-1 1l-1 7l-4-1l-1 3l-1 1l-1-2l-6 7h-2l-2 4v2l-2 2h-3z"/><path id="47107" d="m629 190h1l3 3l5 2l4 3l3 1l-3 1v2l2 1l2-1l2 1l-1 2l2-1l2-3h18l2-2l5-5l6-2l-1-2v-7l-2-1v-2l-1-1v-3l-2-2h1l-7-17l-2-1v-5l-3-3l-1 2l-3-1v-1h-4l-3 2l-3 6l-2 1l-1 3l-3 5l-3 2l-3 6l-4 3l-4 9z"/><path id="47109" d="m176 221v9v10h31h5h11l1-42l-1-2l1-2l1-9h-15h-9l-8 3l-3 3v3h1l-2 1v-2l-2 2l-2 8l-1 1h-8z"/><path id="47111" d="m472 27h-1l5 1l2 6l22 2l9 1h1l7 1l2-12l2-17l1-1h-2h-3h-5l-10-1h-2h-6h-1l-5-1h-13h-1l-2 15l1 2z"/><path id="47113" d="m143 158l-1 20h22l6 1h3l16-9l4-7l3-5v-2l1-6l-1-2l1-21h-12l-24-1l3 2l-15 16l-2-1h-3l-1-2z"/><path id="47115" d="m512 207l1 1v14v9v10h4h1h25h6h9l6-3l2-5h3l2-6l-3-5v-2v-2l-1-3l1-1v-3l-2-4l-4-5l-6-2v-1l-7-4l-1-1l-8 2h-3l-4 3l-2-1l2 7l-5 4l-4-1l-6-3h-3z"/><path id="47117" d="m387 175v5l4 2l-1 4l1 3l2 2v4l2-1v2l3 1l2-3l2 4v4l9 1l1-1l5-5l7-3l4-1v-6h-2l-4-10v-2l-1-6l1-11l2-1h-3l1-1l2-14l-5-3l-1-1l-7 1v1l-4-1l-1 2l-2-1l-2 14l-1 1l1 2l-1 2v2l-2 4l-2 3l-1-3v4l-2 2z"/><path id="47119" d="m341 152v4l4 3v2h3l1 1l1 6l1-1l-2 2l1 2l-2 5l8 2v-1l2 1l6-1l1-1l2-1h3l1 2h3l1 1h3l2 2l3 1l1-1h3v-5l7-4l2-2v-4l1 3l2-3l2-4v-2l1-2l-1-2l1-1l2-14l2 1l1-2l-3-2l-4-1l-5-2l-6-3l1-2l-4-1v2l-4-1l-2-1l-23-10l-2 18l-1 1l-1 3h-4l-6 6l1 3z"/><path id="47121" d="m611 181l-2 4h3l3 3l2 7l2 3h2l5-6l1-4l2 2l2-5l4-9l4-3l3-6l3-2l3-5l1-3l2-1l3-6l3-2l-1-3v-4l1-2l-2-3l-4 3l-1-2h-2v-3h-2l-1-2l1 4l-1 3v2l-2 2h-1l-1-3h-1l-2 4l1 4l-1 1l1 3l-1 3l-3 2v2l2 2l-3 1l-4-1h-2l-1 2v2l2 1v3l-2 1l-2 1l-1 1v3l-1 1l-2 1h-2l-2-2v-2h-2v4z"/><path id="47123" d="m668 151v5l2 1l7 17h-1l2 2v3l1 1v2l2 1v7l1 2l-6 2l-5 5l16 7v1l2 1l-1 2l3-2l4 2v-3h1l1-1l1-1l1-1l1-1h1l1-1v-1h1h1l1 1v1v1v1h1h1h1l1-1l1 1v-1h2h1v1h1v-1h1h1h1h1l1-1v-1h1l1-1h1l1-1l1-2h1l1-1v-1l-1-1h-1v-1l1-1v-1v-1l-1-1v-1h2v-1l1-1l1-1l-1-1v-1v-1h-1v-1v-1h1v-1l1-1l1-1v-1l1-1h1v-1h1l1-1v-1l-1-1l3-2h-2l-2-2l-1 2l-3-4l2-2v-3l-6 1h-2h-2l-2-1l1-1l-1-2h-1l-1-2l-2 1l-3-2l-3-1v-1l-1-1h-3l-4-1v-2h-3l-2-1l1-2l-4-1h-4l1 1l-3 2h-3l-1-3h-2v-1l-3 1v1h-5l-1-1l-1 3l1 3z"/><path id="47125" d="m308 6l6 39v3l7 1h2l24 4l2-2l1-4h2l1-4l4-2l1-2h3v-2l2-1v2l2-1v-4l3-1l-1-1l1-7v-6l-1 1l-2-3l2 1l1-8v-2l1-2h-14h-1h-4h-4h-3h-1h-4h-4h-1h-1h-1l-14 1z"/><path id="47127" d="m435 192l2 3h1l6 3v1l3 1l1 2h2v2l-1 1l1 2v-2l2 1l3 9v4l1 3l1-4l1 3h3v-1l-2-2h2v-2l1-1v-4l2-1l-1-4l2-1l-1-3l4-5l1-4l-2-1v-1l2-1l-3-4l2-1l-3-1l3-3h-4v3l-5 2l-2 2h-1l-1 2h-5v3l-1 1h-3l-3-3l-2-3l-4 1z"/><path id="47129" d="m623 67v4l2 2l-1 2l1 1l3 2l4 7l1-1h2l2 5l8 9l5 12l2-1l1-2h4l1-2l1-1h1h4v-2l8-3h5l7-5l2-3l3-1l-4-6l-5-2l-1-4l-3-1l1-3l-3-4v-2l-9-4h-3l1-1l-1-4l-2-1l-2 1l-11-15l-2-1l-1 4h-2l1 2l-3 1l-1-1l-1 2l-2 4h-2l-1-1l-2 2l-1-1l-3 1l-1 7z"/><path id="47131" d="m95 66v1l38 1h23v-3l1-23v-4l4 1l2 2h1l5-3h3l1-8l-2-5h-1h-4h-1h-2h-8h-4h-1h-3h-3h-1h-2h-3h-1h-5h-5h-8h-2h-6l1 4l-2 3l-1 3l1 4l-3 4l-2 4v3v2l-2 3l-1 5l-2 4l-1 1z"/><path id="47133" d="m556 40v4v10h4l-1 1l2 2h-2l2 1v2h2v2l2 1l6 3h4l1 3l13 6l10 2l4-8l-4-15v-4v-10v-1h-2l-1-4v-3l-4-5l-5-4l-3-1l-2-2l-2 1l-2 1h-4l-6 3l1 2h-2l1-2l-7 1l-4 6z"/><path id="47135" d="m262 174v2l1 2l3 1l-1-1l3-3l2-1h2l3-1l3 1l4-2l1 1h4l2-3l8-1l2 2l1-3h2l1-7l4-2v-3l-1-3l-3-4l-5-2l-2-2l1-5l3-1l-2-3l1-16h-11l-1 2l-2 1l-1 2l-5-3l-2-2h-6l-1 1v2l-1 6l-1 2l-4 4l-1 2v4l2 1l-1 4l-1 5v1l4 9l2 2l1 3l-1 4l-1 1l-4 1z"/><path id="47137" d="m580 21l2-1l2 2l3 1l5 4l4 5v3l1 4h2h2l2-13l3-4h1l1-5v1l3-2l1-1l1 1l3-1l4-1h5l4 2l5 2l4 4h6l-6-11h-2h-5l-2-1l-10-1h-3h-1l-5-1h-7h-1h-12l-9-1v6l1 2z"/><path id="47139" d="m641 235l-2 6h5h12h1h13h13h8l2-13v-2v-4l1-7v-2l1-3l-4-2l-3 2l1-2l-2-1v-1l-16-7l-2 2h-18l-2 3l-2 1l-1 1l2 1l-1 1l1 3l-1 2l1 2l-6 12h2l-2 4z"/><path id="47141" d="m520 68l1 2l-1 8l2 4l2 2l-1 2l1 1h2l1-1l3-1l4 3l2 5l2 2h1v-1l2-2l1-1h3l1-3l1 1l1-2l6-2l13 4l3 1l5 3h2v5l5 2h1v-2l1-7l1-2l-1-4l1-2l1-1l9 1l3-4l3-2h-2l-10-2l-13-6l-1-3h-4l-6-3l-2-1v-2h-2v-2l-2-1h2l-2-2l1-1h-4v3h-2v3h-3v3l-2 1v1l-2-1l-7 3v-1l-7-1l-4-1l-2 1l-4-3v1l-1 4z"/><path id="47143" d="m599 164l-3 6l4 2l-3 2h3l1 4l4-1l6 4l4-4v-4h2v2l2 2h2l2-1l1-1v-3l1-1l2-1l2-1v-3l-2-1v-2l1-2h2l4 1l3-1l-2-2v-2l3-2l1-3l-1-3l1-1l-1-4l2-4h1l1 3h1l2-2v-2l1-3l-1-4h-4l1-3h1l-1-3l-5-2l1-2h-2l-9 7h-3l-1 2l-16 20l-6 7l1 6z"/><path id="47145" d="m638 122l-1 2l5 2l1 3h-1l-1 3h4l1 2h2v3h2l1 2l4-3l2 3l-1 2v4l1 3h4l1-2h3l2-2v-2l2-4h2l6-7l1 2l1-1l1-3l4 1l1-7l1-1l2-1l1-2l1-7l6 3v-4l2 1l-1-2l-6-12l-2-8l-3 1l-2 3l-7 5h-5l-8 3v2h-4h-1l-1 1l-1 2h-4l-1 2l-2 1v1l-3 1l-3 5z"/><path id="47147" d="m367 17l-2-1l2 3l1-1v6l-1 7l1 1l3 1l4 4l6 4l2 3l3-1l6-1l1-1l1 1l2 2h3l3 3l5-1l-1-3l1-2h2l1-2l1-2h2l5 2l-1-2l3-4l2-3l2-4v-5l2-3l2-3l4-9l-3-2h-1h-13h-5h-1h-5h-1h-2h-2l-6 1h-12h-6h-6l-1 2v2z"/><path id="47149" d="m417 132v5l1 1l1 1l5 3v-2h11l3 2l3 4h2l2 3v-1l4-1l1 1v3h1l3-1v-2l3-1l1-2h4v3l2-1l5 3v-9l5-2v-4l1-1l1-3v-5l1-4l1-8h1l1-4l1-1l-1-2v-3l-1-2l-11 1l-6-3v-1h-2l-5-3l-2-3v-1l-1 1l-4-3h-1l-9-7l-1 6v-2l-2-2l-1 3l-2 2l1 2h-1l-4 3l-1 1v4l-1 2h-1l2 3l-2 4l2 5l-1 3l2 1v2h-2l-1 2h2v5l-4-1l-2 1v3h-1l-1 3z"/><path id="47151" d="m638 11l6 11l2 4l2 9l4 6l-3 1l-2 2l11 15l2-1l2 1l1 4l-1 1h3l9 4v2l3 4l5-2l1-4l2-2v-6l2-2l3-1v-1v-14h2l-3-4l-1-8l1 1l1-7l5 1l3-1l1-3l1-5h-2v-4h-1h-20h-6h-5l-10-1h-17z"/><path id="47153" d="m543 164l4 3l4 3l-1 4l1 4l3 1v2l3 1l-1 3l-1 3l-5 3l-2 3l1 1l7 4v1l6 2l4 5l2 4v3l-1 1l1 3l17-24l2-5l-10-9l-11-11v-2l-3-5l1-3l-3 1l-1 2h-4l-7 2z"/><path id="47155" d="m752 113l1 1v4h2l1 5l2 2v1l3 7v3l2 1l-1 1l3 1l1 3l1-1v17l1 1v-1v1h1h1l1-1v1l2-1l1-1l1 1l1 1h1h1h1h1h1h1h2h2h1h1v-2h1h-1l1-1v-1h1l1-1h1v-1v-1h1l1 1h1v-1h1l1-1h1l1-1v-1h1h1l1-2h1v-1l1-1v1l1-1h2v1h1h1h1v-1v-1l1-1h1l1-1l1-1v-1v-1v-1h-2l-1-5l1-3l-1-2v-2l2-3l-5-8v-3l-2-2l-4-1h-3v-2h-3l-2 1l-1-1l-4 1v-1l-4-1l-2-4l-9-7l-6-4v1h-2l1 6l2 1l-2 4l-2 1v2h-2l-4 3l-4 1z"/><path id="47157" d="m0 238v2h25h4h4h4h10h1h1h4h4h2h5h2h2h9l1-29v-2v-9v-14l-1 1v-3h-7v-3l-3 1h-5l-1 2h-2h-8h-2l-18-1l-1-2l-1 1l1 2h-1l-1 1h-1l-1 2v1h-1v1h-1l-1 2l1 1l-1 1v3h-1l-1 1h-1l-1-1h-1l-1 1v1l-1 1v1h1v2l1 1h2h1h1h1h1l1 1v1l1 1l1 1v1v1l-1 1v-1l-1 1v1h-2h-1v1l1 1v1l1 1v1h1v1h3v1v1v1l-2 2h-1l-1 1l-1-1l-3-2h-1h-1l-1 1l-1 1l-1 1v3l-2 4v1v1v1v1l-1 1h-1h-1h-1l-3-1h-1v-1h-3v1l-1 1l-1 1z"/><path id="47159" d="m483 55h-1l1 4h1v2v3l1 1l4 13l1 1l1 6l2-1l3 1v-1l3 1l3-4l1 2l2-1l3 1v-3l1 1l1 1l3 2l3-5l1 1l3-2l1-8l-1-2l2-1l1-4l-3-2l-1 1l-2-1l-1-4l-1-1l2-18l-7-1h-1l-9-1l1 1l-1 4l-7 2l-5 3l-3 5z"/><path id="47161" d="m259 0v3v1l1 1v1v1l1 4l1 3v1l1 2v1v2v1v1h-1v1v1l-1 1v1v4l-1 4l3 3l5 9l1 1h4l6 2l4 1h4l5-1l3-1l4-2l1-1h14l-6-39h-6h-6h-12v-4h-3l-16-2h-3z"/><path id="47163" d="m878 32l3 3l2-1l7 3l17-3l2 1l2-2v1l1 1v1l4 1l-1 4l2-1h3h5l1 1l4-4l6 3h1l10-7l1-2l2 1l5-4l4-1l2-3l2-3l4-3l1-2l6-3v-2l5-2h-11l-1 3h-10h-15h-3h-1h-1h-2h-1h-1h-2h-6h-20h-1h-1h-8h-1h-5l1 3l-2-1l1 5v4l-2 1v2z"/><path id="47165" d="m411 37l-1 2l1 1l3 4v4l6 4v2l3 2l1 5l2 1h1h2l3-2l1-4l-1-2l2-2l1-1v5l2 1l1-2l7-6h2l2 1l1 2v1h2l1-3l1-3l2-1l2 2v2l-2 3l3-1l4 1v-4l2-2l1-1l1-14l3 1v-5l1-1h1l1-4l-1-2l2-15l-1-1h-1h-8l-5-1h-3h-2h-4h-7h-4l-4 1h-1v1h-2l-4 9l-2 3l-2 3v5l-2 4l-2 3l-3 4l1 2l-5-2z"/><path id="47167" d="m30 181l1 2l18 1h2h8h2l1-2h5l3-1v3h7v3l1-1l1-1l3-2l7-1h8v-20h-2l1-2l-3-3h-1l-2-3l-2-1l-1-1h-3l-1-2l-3-1l-1-2l-1 1l-2-1v1l-2 2v-1h-2l-1-1l-4 1v-2h-3v1l-3 1l-1-1l-2 3l-2 1v2h-1l-4 3l-1-1l-2 5l-2 2h1l-1 2v1h-1h-2h-1v-1h-1v-1v-1v-1l-2-1l-2-1h-1h-1h-1h-1l-1 1h-1v2v1h-1v1v1v2l1 1l1 2l1 2h1l-1 1v1v1v1h-1v1v1h-1v1zm-15 4l1 1h1h2h1l-1-2v-1v-1v-1h1h1h1h1v1h1l1 1l1 1l1 1h1l1-1h1l-1-2l-1-1l1-1l-1-1l-1-1v-1l1-2v-1v-1l-1-1l-1-1h-2v1h-1l-1 1v1l-1 3h-1l-4 2v1v1z"/><path id="47169" d="m465 47h1l1 3l-1 3l1 1l2-1v-4l2-2v1h3v2l2 2l1-2l5 5h1l2-4l3-5l5-3l7-2l1-4l-1-1l-22-2l-2-6l-5-1l-1 1v5l-3-1l-1 14z"/><path id="47171" d="m888 97v1h1v1v2v1h1h1h1h1v1l1 1h1v-1l1-1h1l1-1h1h1l1-1h1l1-2l1-1h1l1-1l5-9l1-2h1l1-2h1l1-1h1l1-1l1-1v1h1l1-1h1h1l1-1v-1h1h1l1 1h1h1v-1h1h1l1-1l1-1v-1h1l-1-5l-2-2l-3-1l2-3l-4-3l-4-1l-2 1l-2 2v1l-1 3l-4 2l-2 3v2l-2 1h-6l-5 1l-7 7l2 3l-3 5v1v1h1l-1 1l-1 1v1l-1 1z"/><path id="47173" d="m728 59h-1l5 8l3 4l2 2h1l1 1v-1h14l6 1l2-2l-1-1l1-2l2-1l1-5v-2h-2l1-3l1-1v-2l3-7l-4-3l-1 3h-3l-1-2v-2l-2-4l-4-2v-1l-1-2l-3 2l-1-1l-3-1l-2 2h-3l1 2l-3 3l-3-2v2v2l-2 2l-1 9l-1 2h-1z"/><path id="47175" d="m543 130l-1 1l3 1l-1 2l1 1l-2 4l1 13l5 12l7-2h4l1-2l3-1l14-17l4-5v-1v-4l2-1v-1h-1v-1v-1v1h-1v-1h-1v-1h1l-1-3l1-1l-11 3l-7-2l-6-2l-3 3l-2-2l-1 2l1 2l-3-1l-3-1h-3l-1 1z"/><path id="47177" d="m498 138l1 8l3 5l2 4l-1 3l6 4l2 1l1 2l5 1l1 2l4-2l4-1l6-1h11h6l-5-12l-1-13l2-4l-1-1l1-2l-3-1l1-1v-4l-4-3l-5-1v-1l-8-2l-4 1l-10-1l-1 1l-4 2l-4 8l-2 2z"/><path id="47179" d="m881 37l-3 1l8-1l1 1l-3 38l1 1l3 3l3 3l7-7l5-1h6l2-1v-2l2-3l4-2l1-3v-1l2-2v-2l3-8l1-5l1-2v-4h-5h-3l-2 1l1-4l-4-1v-1l-1-1v-1l-2 2l-2-1l-17 3l-7-3l-2 1z"/><path id="47181" d="m264 184v3l2 2l-1 3v5l2-1l2 1l-1 41h2h5h6h3h9h2h5h1h1h3h5h2l-1-2l1-2h3l1-2l-2-1l1-12v-6v-6l1-24l-3-2l-1-4l-5-1l1-4h-5l-4-1l-2-2l-8 1l-2 3h-4l-1-1l-4 2l-3-1l-3 1h-2l-2 1l-3 3l1 1l4 1v2l-1 1l-4 1z"/><path id="47183" d="m157 42l-1 23l3 4l4 3l4 6h2l1 2l4 1h4l2 1v2l7 4h1h3v-8l14 1v-6l2-50h-3h-4h-10h-6h-4h-6h-2h-1l2 5l-1 8h-3l-5 3h-1l-2-2l-4-1z"/><path id="47185" d="m581 127v1h1v1h1v-1v1v1h1v-2l-1-1v1zm-47-6v1l5 1l4 3l1-1h3l3 1l3 1l-1-2l1-2l2 2l3-3l6 2l7 2l11-3l-1 1l1 3l2-1l1-2l2-9l-1-3h2v-2h-3l-3-8v-2l-5-2v-5h-2l-5-3l-3-1l-13-4l-6 2l-1 2l-1-1l-1 3h-3l-1 1l-2 2v1l1 1l-4 5l2 10l-2 3l3-1v1l-3 5h4l-3 3z"/><path id="47187" d="m359 106l-2 12l23 10l2 1l4 1v-2l4 1l-1 2l6 3l5 2l4 1l3 2l4 1v-1l7-1l-1-1v-5l2 1l1-3h1v-3l2-1l4 1v-5h-2l1-2h2v-2l-2-1l1-3l-2-5l2-4l-2-3h1v-1h-3l-7-4l-1-1l-3-1l-4-3h-2l-16-2l-10 7l-2 2l-2-8h-4l-11-1l-2 10l-1 1l1 2z"/><path id="47189" d="m429 62l2 7l1 3l1 4v2l4-1l-1 5l2 1l9 7h1l4 3l1-1v1l2 3l5 3h2v1l6 3l11-1l1 2v-2l4 1l4-1l8 1l-2-6l-1-1v-3l-2-2l1-2l-2-2l1-2l-1-6l-1-1l-4-13l-1-1v-3v-2h-1l-1-4l-5-5l-1 2l-2-2v-2h-3v-1l-2 2v4l-2 1l-1-1l1-3l-1-3h-1l-2 2v4l-4-1l-3 1l2-3v-2l-2-2l-2 1l-1 3l-1 3h-2v-1l-1-2l-2-1h-2l-7 6l-1 2l-2-1v-5l-1 1l-2 2l1 2l-1 4z"/></svg>
