<?xml version="1.0" encoding="UTF-8"?><!DOCTYPE svg PUBLIC '-//W3C//DTD SVG 1.1//EN' 'http://www.w3.org/Graphics/SVG/1.1/DTD/svg11.dtd'><svg viewBox="0 0 1000 241.359" xmlns="http://www.w3.org/2000/svg"><path data-id="47001" d="m677.5 73.8l-1 3.1l2.3 1.4l1.1 3.4l4.8 1.9l4.3 6.6l2.5 8.2l5.6 11.6l2.2 -1.2l-2.4 -3.1l2.1 0.1l2.1 1.2l-0.9 -3.3l2.6 1.3l0.9 -4.3l1.7 -0.2l0.4 -2.3l5.3 0.9l5.5 -3.5l1.9 -0.7l1.7 -1.7l1.3 -1.1l-4 -5.3l7.3 -6.2l1.7 -2.7l4.5 -4.7l4 -2.6l-3.2 -3.4l-4.7 -8.6l-1.4 -0.3l-0.6 -3.6l-1.7 3.1l-1.6 1.7l-0.2 1.9l-1.7 -0.2l0.3 3.1l-3.8 0.9l-0.9 -1.4l-3.4 0l-3.9 -0.9l-6.2 -0.7l0.1 4.1l-0.5 4.9l-8.2 -5.6l-3.4 1.8l-1.8 -1l-3 -0.2l-2.3 2.2l-1.3 3.8l-4.3 1.6z"/><path data-id="47003" d="m420.9 169.5l0.7 5.1l0 2.9l4.6 9.7l2.2 0.3l1.8 -0.9l6.7 2.3l4.2 -1l1.6 3.3l3.6 2.5l2.5 0.3l1.5 -3.9l4.4 -0.2l1.3 -2l1.5 0l2.1 -2.2l4.1 -2.1l0.7 -2.2l3.5 -0.7l1.3 -5.2l1.4 -0.5l-1.2 -0.9l0.4 -6.3l-0.1 -9.4l-0.3 -8.7l-4.9 -2.3l-2 0.3l-0.6 -2.2l-3.6 -0.4l-1.2 2l-3.1 1.1l0.6 1.7l-3.3 1.7l-1.4 -0.6l0 -2.4l-1.2 -1.8l-3.6 1.2l-0.1 1.1l-1.9 -2.5l-2.5 -0.5l-2.5 -4.3l-3.2 -1.3l-10.8 -0.6l-0.4 2.3l-1.5 14l-1.3 0.8l3.3 0.6l-2.1 0.5l-1.3 11.7z"/><path data-id="47005" d="m241.9 99.6l-0.3 19.4l4.6 0.1l10.8 0.4l3.8 -1l2.6 1.4l0.2 4.1l2.8 -0.8l3.8 0.1l0.4 -2.7l3.1 -4.5l1.3 -5.6l0.3 -4.3l-5.5 -0.2l-4.5 -1.3l-1.1 -2.7l0.2 -2l2.4 -3.2l-0.2 -3.6l1.3 -2.7l3.4 -4.2l2.5 -4.7l2.2 -3l0.4 -4.4l-2.1 -3.3l-0.8 -3.1l-1.3 -2.4l0.2 -3l0.6 -3l-1.3 -6.9l-2.9 -5.9l-1.2 -1l-4.7 0.1l-7.4 0.1l0.4 2.7l-1.2 4.2l1.4 2.3l0.4 3.9l0.5 1.5l-2 0.4l0.3 1.3l-1.8 3.1l-2.6 0.7l-0.4 2.4l-3.9 4.9l-0.4 2.8l-4.2 3.9l-0.2 19.6z"/><path data-id="47007" d="m564 158.7l-1.4 3.7l2.9 4.2l0.9 2.8l10.3 10.6l10.2 8.9l4.3 -9l2.4 -5.3l2.3 1.4l1.6 -1.8l2.2 -2.4l-3.5 -2.2l3.1 -5.3l2.3 -0.7l-1 -5.3l6.9 -6.7l15.2 -20.4l-1.4 -1l-11.6 3.2l-1.4 -3.6l-5.1 1.6l-2.1 -1.3l-17.4 0.6l-1.3 1l-0.6 4.2l0.6 1l-4 5.4l-14.3 16.4z"/><path data-id="47009" d="m706.6 152.6l0.7 1.7l2.6 0.9l3.3 2.3l2.2 -1.6l0.6 2l1.2 -0.3l1 2.2l0.7 2.6l1.6 -0.7l2.9 0.6l5.4 -1.5l0.4 3.2l-2.1 2.1l2.9 4.2l1.1 -2l2.1 1.6l2.2 0.3l-3.1 2.4l0.5 1l1 0.4l1.1 -0.7l1.5 -1.2l1.2 0l1.2 -0.8l0.4 -1.4l0.5 -1l0.7 -1l1.3 -1.6l1.4 -1.1l1.5 -0.1l1.2 0.4l1 -0.3l1 -0.5l2.5 -1.4l0.8 -1l1.8 -0.8l1.6 -1.5l1 -0.6l1.7 -5.55112e-17l1.6 -0.6l1.4 0.5l1.9 -0.9l1.1 0l1.6 -0.1l1.3 0l1.2 -0.1l0 -17.3l-1.3 0.7l-0.9 -3.5l-2.7 -0.3l0.5 -1.1l-1.7 -1.4l-0.3 -2.7l-3.3 -7.2l0.9 -1.2l-2.1 -1.5l-1.9 -5l-1.2 -0.5l0 -3.2l-1.2 -1.1l-1.9 1.1l-4.8 5.4l-6.4 -0.8l-4.4 -4.2l-3.4 1.8l-1.2 -1.9l-4.9 0.1l2 1.5l0.2 3.1l-1.8 0.3l-1.2 -1.7l-1.6 0.4l-0.6 3.4l-1.5 -0.6l-1.3 -2.7l-2.8 1l-2.5 1.8l0.2 -1.8l-2.6 -0.7l1.3 2.1l-0.9 2.4l0.6 1.4l-0.8 1.9l-1.8 0.1l-0.8 -1.4l-1.5 5.2l3.2 1.5l-1.8 2.3l-0.6 4.1l1.2 2.1l1 3.5l2.4 1.9l-0.2 1.6l-1.9 3.1l-4.2 2.4z"/><path data-id="47011" d="m609.9 219.8l2.1 6.1l0.1 1.8l1 0.5l0.5 2.5l-0.4 1l0.5 2.4l3.8 2.8l-1.8 3.9l2.5 0l1.3 0l9.6 0l3.4 0l1.3 0l1.2 0l3.9 0l1.9 -5.3l1.3 -4.7l1.5 -3.2l-1.4 -0.7l5.5 -12l-0.4 -1.9l0.6 -2.2l-0.5 -2.6l0.6 -1.3l-2.2 -0.7l1.4 -1l0.7 -1.7l-2.1 -1.2l-1.6 1l-1.6 -1.3l-0.6 -1.6l3.1 -1.4l-3.1 -0.3l-3.8 -3.7l-4.9 -1.7l-3 -2.9l-1 -0.5l-2 -1.1l-0.8 4.1l-5 5.7l-2.2 0.2l-2.3 3.9l-1.4 4.8l-3.5 6l0.1 1.3l-2.2 5.4z"/><path data-id="47013" d="m685 60l0.4 6.2l3 0.2l1.8 1l3.4 -1.8l7.4 6.1l1.3 -5.4l-0.1 -4.1l6.2 0.7l3.9 0.9l3.4 0l0.9 1.4l3.8 -0.9l-0.3 -3.1l1.7 0.2l0.2 -1.9l1.6 -1.7l1 -3.8l1.3 4.3l2 0.3l0.8 -1.8l1.4 0.2l1.4 -2.4l0.6 -8.1l2.1 -2.1l-0.6 -2.7l0.5 -2l3.4 1.9l2.1 -2.5l-0.3 -2.1l-1.9 -1.2l-2.4 -6.6l-1.6 -4l-3.2 -8.5l0.2 -3.6l-16.7 -0.9l-11.5 -0.1l-3.9 0l-0.3 3.6l1.7 0.3l-0.2 4.4l-1.8 3.2l-2.3 1.1l-5.1 -0.8l-1.3 6.3l-1 -0.1l0.6 7.3l3.8 4.5l-2.6 -0.5l0.5 14.8l-0.5 1l-3.3 0.9l-1.6 1.6z"/><path data-id="47015" d="m473.5 135.3l0.1 4.1l4.8 3.2l2.6 2.8l2.7 0.1l3.6 2l5.9 0.5l0.6 -1.2l4.4 -0.4l1.1 -0.9l-1.4 -7.4l3.2 -5.9l1.8 -1.9l4.7 -7.9l3.3 -2.4l-0.5 -2.5l-3.1 -3.1l-9.3 -10.5l-2.1 -1.2l-7.9 -0.6l-4.2 0.8l-4 -0.6l0.1 1.2l-0.2 3.1l1.6 2.6l-1.3 0.7l-0.7 4l-1.2 -0.5l-1.3 8.4l-1 4.2l0.2 4.6l-1 3.2l-1.4 1.3z"/><path data-id="47017" d="m185.2 126.2l11.4 0.9l2.7 -3.7l1.4 0l0.3 -1.4l45 1.1l0.2 -4.1l-4.6 -0.1l0.3 -19.4l0.2 -19.6l0.1 -3.7l-30.2 -0.6l-1.8 -0.2l-4.8 -0.1l-0.2 5.2l-14.2 -0.3l0.2 7.6l-2.8 -0.3l-1.7 0.5l-0.3 8.7l-1.2 29.3z"/><path data-id="47019" d="m919.7 59.4l0.2 1.6l2.4 -1.1l4 1.2l3.3 2.6l-1.3 3.3l2.4 0.5l2.1 2.3l0.8 4.8l1.2 -0.3l1.1 0.6l1.2 0.9l1 0.6l1.1 -0.1l1.5 -0.2l1.5 -0.4l0.8 1.9l0.5 1.1l-0.2 1.3l0.8 1.9l1.8 0.3l1.1 -0.5l2.3 0.4l2.2 -0.9l1.3 -1.3l1.4 -0.7l1.3 0.7l0.8 -1.3l7.7 -14.1l2.4 -4l0.7 -1.3l-2.1 0.4l-3.6 -3.8l-0.9 -3.9l-1.4 -2.6l-3.3 -0.1l-1.3 -4.2l-1.9 -0.7l3 -3.2l7.7 -10.5l1.9 -1.4l-4 -4.1l0.1 -1.1l-1.6 2.2l-4.7 0.9l-4.6 4.1l-2.4 -0.2l-1 1.3l-9.4 7.1l-1.5 -0.1l-5.8 -2.7l-4.2 3.6l-1.4 -0.2l0 3.6l-0.5 1.9l-1.2 4.5l-3.1 8.9z"/><path data-id="47021" d="m349.7 46.5l-0.7 4.6l2.3 0.2l2.8 -0.4l1 -1.1l1.9 2.2l4.6 0.2l2.8 1.3l-0.4 4.8l-2.9 1.7l-1.3 1.5l0.8 1l1.4 -0.8l1.1 1.7l-1.5 1l-1.1 2.4l3.3 2.9l1.1 2.1l-2.4 1.6l0.6 1.6l-0.8 6.5l0 5.5l-1.1 3l11.2 0.8l3.7 -0.3l1.4 0.6l0.4 -7.6l4.7 -4.9l1.6 -11.6l0 -2.3l2.4 -6l1.8 -2.2l2.8 -6.1l2 -5.9l-0.8 -2.4l-5.7 0.8l-3 1.1l-2 -3.3l-6.7 -4.2l-3.6 -3.4l-3 -1.5l-3.4 1.5l0.1 4l-1.5 0.6l-0.6 -2.1l-1.3 0.5l0 2.5l-3 -0.4l-1.1 1.9l-4 2.6l-1.5 3.4l-2 0z"/><path data-id="47023" d="m169.5 178.5l0 6.1l5.7 7.8l1.3 11.5l7.2 0l1.5 -1.5l2.1 -7.4l1.7 -1.9l0.2 1.6l2.2 -0.7l-1.3 -0.2l0.3 -3l2.6 -2.9l8 -3l9.8 -0.4l14.4 0.6l1.2 -3.6l-1 -1.7l-0.4 -10.5l-1.6 0l-4.2 1.5l-6.3 -1.9l-4.2 -2.3l-2.8 -2.8l-1.7 -2.4l-2.4 -5.4l-3.9 -0.7l-1.6 0.5l-0.1 2.7l-2.4 4.8l-4.7 6.5l-16.2 8.7l-3 -0.1z"/><path data-id="47025" d="m729.8 12.7l0.4 4.2l3.2 8.5l1.6 4l2.4 6.6l2.6 0.7l1.7 0.3l2.7 -1.9l2.5 0.8l0.7 1.4l3.2 -2.3l1.5 1.8l-0.3 1.4l3.5 2.1l2.4 4.2l-0.1 2.1l1.3 1.4l2.5 -0.2l1.6 -2.8l3.5 3.1l0.7 1.7l5.3 -1.9l2 -1.7l0.4 -1.5l2.9 0.4l2.1 -0.5l2.1 2.1l3 -2.7l1.2 1.5l-0.1 -2.4l1.7 -0.1l1.9 1.5l1.9 -0.7l-1.2 -2.1l2.1 -1.8l1.4 -2.2l1.5 0.8l0.3 -1.3l3.2 1.1l1.8 -3l0.3 -3.6l-3.3 -10.9l-4 -5.5l-4.6 -3.5l-9.8 0l-7.6 -0.1l-2.7 -0.3l-2.8 -0.1l-1.1 1l-0.9 1l-11.7 0.5l-12.2 -0.4l-4.2 -0.2l-6.6 -0.3z"/><path data-id="47027" d="m521 9.3l-2 16.4l5.4 -2.5l1.6 2.6l4.4 0.2l-2.3 -3.1l3.7 -0.5l0.9 3.8l3.3 0l10.6 3.5l1.3 -0.5l0.4 2.2l3.6 3.2l2.9 4.3l1.1 0.7l1.6 -7.4l4.1 -6.3l6.2 -0.9l-0.9 1.9l2 0.4l-0.8 -2.4l6 -3.2l4.5 0.8l1.6 -1.3l2.1 -6l-1.2 -1.9l0.1 -5.8l-1.7 0l-1.1 0.3l-2.8 0l-1.1 0.2l-11.1 0.6l-6.7 0.6l-7.3 -0.1l-14.6 -0.3l-6.2 -0.3l-6.6 -0.2l-0.9 1.2z"/><path data-id="47029" d="m807.9 112l0.2 3.4l5.3 7.4l-2.8 3.5l0.2 2.1l1.2 1.5l-0.7 2.8l0.5 5.2l2.4 -0.2l1.4 -1.1l1.4 -0.5l1.1 0l2.1 -0.1l1.7 -0.4l0.8 -1.3l1.1 -1l0.8 -1.2l0.4 -1.3l1.6 -0.1l2.3 -0.5l1.7 -0.3l1.1 -0.5l2.1 -1.5l1.3 -0.9l1.2 0.4l1.4 -0.4l1.1 0.7l1 -0.3l2.8 1.1l1.2 0.9l1.1 0l1.5 -1.3l1.1 -1l0.8 -1.4l0.6 -1l0.4 -1.2l0.8 -1.2l1.4 -1.1l1.2 -0.9l0.3 -1.7l0.2 -1.3l2 -1.7l0.2 -1l-0.5 -1.1l-0.1 -1.4l-0.3 -1.5l-0.5 -1l0 -1l1 -1l0.2 -1.3l0.4 -1.1l-6.8 -7.8l-5.8 -5.7l-5.2 -5.4l-0.4 -1.9l-2.1 -0.5l-3.3 -3.8l-1.8 1.3l0.3 -1.4l-2.7 -1.1l-1.5 -2.3l-2.3 -1.7l0.7 -3.4l-2.2 0.6l1.2 7.1l-2.3 -0.2l-2.5 -3l-0.3 3.3l-3 0.5l2.2 4.5l-0.9 1.1l-2.2 0.4l1.6 3.6l-1.9 1.9l-0.6 6.7l-1.7 -1.5l-2.4 15.1l-1.5 0.8z"/><path data-id="47031" d="m467.8 180.7l-2.6 3.5l3.1 0.3l-2.4 1.8l3.3 3.5l-2.4 1.2l1.9 -0.9l2 0.5l2.3 -0.8l1.8 1.9l0.4 -1.6l4.2 -2.6l14 2.7l0.4 1.2l1.1 0.1l2.5 2.8l2.9 -0.3l7.3 4l0.8 -1.1l0.2 -4.7l2.7 -2.6l1.3 -4.5l-2 -0.2l0.3 -1.6l-0.5 -7.2l0.4 -6.5l1.1 -2.5l-1.1 -1.4l1 -1l-0.6 -2.1l-2.5 -0.3l-5.1 -4.6l0.2 -3.2l-2.1 -3.4l-2.3 -5.6l-1.1 0.9l-4.4 0.4l-0.6 1.2l-5.9 -0.5l-3.6 -2l-2.7 -0.1l-2.6 -2.8l-4.8 -3.2l-4.4 2.1l0 8.1l0.3 8.7l0.1 9.4l-0.4 6.3l1.2 0.9l-1.4 0.5l-1.3 5.2z"/><path data-id="47033" d="m110.1 120.3l0.1 2.9l2.1 3.7l3.2 2.7l2.7 0.1l1.7 2.4l7.7 1.1l3.8 1.6l3.4 2.3l2.9 2.9l4.3 0.3l1.2 0.7l1.1 1.9l2.9 0.2l1.6 1l14.8 -16.1l-2.7 -1.9l-2.6 -2.5l-3.1 -1.7l-2.5 -0.1l-3.6 -1.7l-0.3 -2.1l-4 0.7l-3.3 -1.6l-2.9 -0.2l-0.7 -3.3l-1.6 -2.1l0.6 -2.9l-1.3 -6.7l-3.6 -1.3l-2 -1.6l-0.5 -1.7l-1.9 5.2l-5.2 6.5l-2 0.5l-1.5 3.9l-7.2 0.8l0.4 2.7l-2 3.5z"/><path data-id="47035" d="m581.9 126.6l1 1.5l1.4 -0.6l-0.7 2.8l17.3 -0.4l2.1 1.3l5.1 -1.6l1.4 3.6l11.6 -3.2l1.1 0.5l1.6 -1.2l2.6 -0.7l9.8 -6.6l1.8 0l6.1 -4.8l3.1 -5.3l2.2 -1.2l-4.3 -12.9l-8.2 -9.2l-1.5 -4.4l-2.2 -0.6l-0.9 1.5l-4.4 -7.6l-3.1 -1.5l-1.2 -1.3l-2.9 1.4l-0.5 -1.2l-2.5 1l-1.3 -1.4l-2.9 -0.4l-1.1 1l-2.8 -2.4l-3.1 2.4l-3.1 2.4l-1.9 -0.3l-3.6 1.5l-2.4 4.1l-9.6 -0.9l-1.2 0.7l-0.2 2.3l0.6 4.2l-0.9 2.1l-1 6.3l0.4 2.6l-1 1.8l2.6 7.5l3.4 0.4l-0.2 1.6l-2 0.8l1 2.3l-2.2 9.7l-0.8 1.5l-2.4 0.8z"/><path data-id="47037" d="m377.3 91.3l-1.4 -0.6l1.7 8l2.7 -1.2l10.1 -7.9l15.9 2.3l1.6 0.5l4.4 2.9l3 0.7l1.1 0.8l6.3 3.7l3 0.7l1.7 -1.1l-0.5 -4l1.4 -0.6l3.9 -3.2l0.1 -2l2.3 -2.5l0.2 -2.9l2 1.8l0.2 2.4l1.2 -6.2l-2.3 -1.1l0.9 -4.7l-3.4 0.8l0.1 -1.5l-1.7 -4l-0.5 -3l-2.2 -7.2l-2.4 0l-2.8 -1.4l-0.3 -4.7l-3.1 -1.8l-0.7 -2.2l-5.3 -3.7l-0.8 -4.4l-2.1 -4.4l-1.1 -0.3l-1.1 1.6l-2 0.7l-1.1 1.8l0.4 2.5l-4.4 1.4l-3.4 -2.9l-2.5 -0.3l-2.1 -2.5l-1.7 -0.2l-0.5 1.1l0.8 2.4l-2 5.9l-2.8 6.1l-1.8 2.2l-2.4 6l0 2.3l-1.6 11.6l-4.7 4.9l-0.4 7.6z"/><path data-id="47039" d="m238.6 164.2l0.2 15l2.7 1.6l1.9 2.4l0.6 2.2l3.5 -1.8l4.8 1.1l2.2 -0.9l4.8 -3.8l4.6 3.6l1.4 0.8l3.7 -1.1l0.8 -1.4l-0.2 -1.3l-3.8 -1.3l-2.7 -0.6l-1.3 -2.4l0.3 -2.1l1.5 -1.8l4.4 -1.5l0.9 -1.1l0.8 -3.4l-0.8 -3l-2 -2.5l-4.1 -8.6l-0.2 -1.1l2 -5.5l0.2 -3.2l-1.3 -1.5l-0.7 -3.3l1.5 -2.9l3.6 -3.4l1.2 -2.4l1.1 -5.2l-3.8 -0.1l-2.8 0.8l-0.2 -4.1l-2.6 -1.4l-3.8 1l-10.8 -0.4l-0.2 4.1l-1.3 29.5l-6.1 11.4z"/><path data-id="47041" d="m490.6 84.9l-0.4 2.3l1.9 1.8l-0.7 2l2 1.8l-0.6 3.2l1.6 1.5l1.3 5.3l2.1 1.2l9.3 10.5l3.1 3.1l0.5 2.5l1.1 -0.9l10.2 0.4l4.1 -1l8 2.7l3.3 0.5l2.5 -2.8l-4.2 -0.3l3.7 -4.6l-0.9 -1.1l-2.7 0.8l1.9 -3l-1.3 -9.5l3.8 -5l-1.6 -1.2l-1 0.3l-1.7 -2.4l-2.1 -5l-4.1 -2.5l-2.8 0.7l-0.7 1.3l-1.6 -0.3l-1 -1.2l0.7 -2.4l-2.1 -1.1l-2.2 -4.1l-2.5 1.3l-1.1 -0.9l-3 5l-3.5 -1.6l-0.3 -1.6l-1.5 -0.1l-0.1 2.8l-3.1 -1.7l-1.2 1l-1.3 -1.2l-3.1 3.4l-3 -0.4l-3.5 0.1l-2 0.5z"/><path data-id="47043" d="m316.7 71.8l1.7 5.7l0.9 6.2l-0.1 6.8l-0.9 4.3l2.1 3.3l5.2 1.3l5.1 0l16.6 2.2l2.5 1l8.8 0.3l-0.9 -1.6l1.7 -1.4l1.7 -10l1.1 -3l0 -5.5l0.8 -6.5l-0.6 -1.6l2.4 -1.6l-1.1 -2.1l-3.3 -2.9l1.1 -2.4l1.5 -1l-1.1 -1.7l-1.4 0.8l-0.8 -1l1.3 -1.5l2.9 -1.7l0.4 -4.8l-2.8 -1.3l-4.6 -0.2l-1.9 -2.2l-1 1.1l-2.8 0.4l-2.3 -0.2l-1.9 1.4l-24.3 -3.2l-1.2 12.3l-5 10.2z"/><path data-id="47045" d="m66.6 97.1l0.5 1l1.1 1.1l-0.1 1.6l0.6 1.6l1.7 1.3l1.5 0.9l1.2 1l2.3 2.1l0.6 1.1l0.4 1.4l1.8 -2.3l2.7 0.6l2.5 -1.2l2.1 0.4l1.2 -1.6l5 1.3l2.9 -0.9l-0.1 -1.9l9.7 0.2l1 0.7l1.6 3l3.5 2.6l1.3 3.1l7.2 -0.8l1.5 -3.9l2 -0.5l5.2 -6.5l1.9 -5.2l-2 -1.7l4.9 -2.1l1.1 -25.5l-37.9 -1.1l-0.6 3.6l-16.3 0.3l1.3 0.8l1.3 1.3l1.4 2.2l0.4 1.7l-0.1 1.2l-0.2 1.2l-0.9 1.1l-1.5 0.8l-1.1 0.8l-2.1 0.7l-1.7 0.6l-1 0.5l-1.4 1.6l-0.3 1.8l-0.3 2.9l-0.3 2.5l-0.6 1.9l-1.3 1.8l-0.3 1l-3 0.1z"/><path data-id="47047" d="m77.7 211l-0.8 28.6l9.1 0l6.2 0l2 0.1l6.8 0.1l3.4 0l6.1 0l15.6 -0.1l2.2 0l0.1 -2.4l1.6 -54.4l-29.4 -0.6l-4.1 -0.3l-7.7 -0.2l-6.7 1.4l-3.5 1.7l-0.4 1l-0.6 14l0 9.5l0.1 1.7z"/><path data-id="47049" d="m598.9 50.2l-0.1 3.4l4.6 15.5l-4.3 7.4l2.2 0.9l2.1 0.8l2.9 -2.9l3.1 -2.4l2.8 2.4l1.1 -1l2.9 0.4l1.3 1.4l2.5 -1l0.5 1.2l2.9 -1.4l0.9 -2.3l-1.2 -2l-0.4 -3.1l3.5 -4.4l0.9 -6.6l2.3 -1.2l1.5 1l2.4 -1.8l2.8 0.4l1.4 -4.1l1.3 -1.1l1.5 0.7l2.6 -1.4l-0.7 -1.9l1.6 0.1l0.8 -3.7l2.8 0.8l1.7 -2.5l3.1 -1l-3.9 -5.8l-2.6 -9.1l-1.9 -3.7l-6 0l-3.9 -3.6l-5.1 -2.8l-4.3 -1.2l-5 -0.4l-3.8 1l-2.7 1.2l-1.3 -1.2l-0.3 1.2l-3 1.6l-1.7 4.4l-1.3 -0.6l-2.8 4l-1.7 12.9l-2 0.4l0.2 1.1l-0.3 10.2z"/><path data-id="47051" d="m461 218.3l-1.9 0l2.4 1.8l-0.6 1l0 2.3l-0.2 13l0.1 3.9l29.7 0.2l22.8 0.2l0 -9.9l0 -8.8l0.1 -14.1l-1.1 -0.4l-4 -7.5l-0.7 -1.8l-7.3 -4l-2.9 0.3l-2.5 -2.8l-1.1 -0.1l-0.4 -1.2l-14 -2.7l-4.2 2.6l-0.4 1.6l-1.8 -1.9l-2.3 0.8l-2 -0.5l-1.3 1.6l1.8 1.3l-1.2 4l-3.6 5.1l0.7 2.5l-2.4 0.9l0.9 3.9l-2.1 1.7l0 3.3l-0.9 1.6l0.4 2.1z"/><path data-id="47053" d="m127.4 95.5l2 1.7l0.5 1.7l2 1.6l3.6 1.3l1.3 6.7l-0.6 2.9l1.6 2.1l0.7 3.3l2.9 0.2l3.3 1.6l4 -0.7l0.3 2.1l3.6 1.7l2.5 0.1l3.1 1.7l2.6 2.5l24.2 0.9l1.3 -30l0.3 -8.7l-6.6 -4.2l-0.2 -1.9l-1.8 -1l-3.7 -0.2l-4.8 -1.4l-0.8 -1.7l-1.8 -0.3l-3.6 -5.6l-4.4 -2.5l-3.1 -4l-0.2 3l-22.3 -0.4l-1.1 25.5l-4.9 2.1z"/><path data-id="47055" d="m355.3 197.6l1.9 0.9l0.2 8.3l-1 7.7l2.7 1.5l-1.8 5.5l-1.2 10.5l0.1 7l1.6 0l10.2 0.2l12.9 0.3l1.3 0l3 0.1l13 0.3l1.4 0l1.6 0l0.9 -38.4l0 -4.2l-1.9 -3.9l-1.6 3.1l-3.1 -1.1l-0.2 -1.2l-2.1 0.2l0.5 -3.3l-2.1 -2.1l-0.9 -3.3l0.2 -3.9l-4.1 -2.1l-2.8 -0.4l-0.7 1.6l-3.1 -1.1l-1.8 -2.3l-3 0.1l-1.5 -1.3l-2.6 -0.2l-0.8 -1.1l-3.2 -0.9l-2.4 1.3l-1.2 1.6l-5.4 0.3l-1 7.4l0 12.1l-2 0.4z"/><path data-id="47057" d="m759.2 73.7l0.9 3.2l3 4.7l1.4 -0.3l2.3 4.5l-0.8 -5.1l0 -1.2l2.6 0l-0.4 2.8l1.5 1.2l1.4 -1.1l0.1 -2.6l-1.3 -0.8l0.2 -2.3l3.8 0.9l0.7 -3.7l1.1 1.3l0.7 -1.6l2.1 0l-0.3 -3.4l0.9 1.4l2.1 -0.2l1.4 2.8l1.5 -2.2l2.9 1.6l2.7 -1.2l0.1 -2l1.9 -0.2l0 -4l2.6 0.9l1.2 -1.1l-0.4 -2.4l3.7 -4.1l2.9 -0.4l-0.1 -1.6l3.4 -0.7l0.6 -1.8l2.7 4.1l1.2 -1.4l0.5 2.2l1.4 -0.3l0 -1.7l1.3 0.3l0 -1.5l1.4 -0.6l-2.1 -4.3l1.1 -3.8l-1 -3.6l-1.8 -1.2l1 -2.3l-2.8 0.9l-0.5 -1.6l-3.7 -1.3l-1.3 -1.6l-4.3 1.7l-2.9 -1.8l-0.3 1.3l-1.5 -0.8l-1.4 2.2l-2.1 1.8l1.2 2.1l-1.9 0.7l-1.9 -1.5l-1.7 0.1l0.1 2.4l-1.2 -1.5l-3 2.7l-2.1 -2.1l-2.1 0.5l-2.9 -0.4l-0.4 1.5l-2 1.7l-5.3 1.9l-0.7 -1.7l-2.5 6.9l0 2.4l-1.5 0.8l-0.2 3.3l1 -0.6l0.2 2.4l-0.8 4.3l-1.9 1.1l-1.3 2.5l1.6 1.2l-2.1 1.3z"/><path data-id="47059" d="m824.6 71.3l-0.7 3.4l2.3 1.7l1.5 2.3l2.7 1.1l-0.3 1.4l1.8 -1.3l3.3 3.8l2.1 0.5l0.4 1.9l5.2 5.4l5.8 5.7l6.8 7.8l1.7 -0.6l1.1 -0.5l1.6 0.7l1.2 0l1 0.9l1.3 1.2l0.8 1.5l1.4 -0.6l0.6 -1.3l0.6 -1.2l1.5 -1.1l0.3 -1l0.9 -1.2l0.1 -1l-1.1 -0.5l0 -1.3l0.8 -1.4l1.5 -0.9l1.2 -0.2l2.6 -1.9l1.9 -0.8l1 -1l2.1 -1.2l0.6 -1.1l1.2 -0.6l1.2 -0.7l1.4 -0.3l1.5 -1.1l1.1 0.5l1.1 0.9l0.1 1.3l1 0.3l3.8 -4.7l-2.1 -2.5l-2.6 -3.2l-2.9 -3.3l1.5 -38.6l-0.2 -1l-8.2 1.2l-2.8 0.8l-2.8 2.7l-3.3 -0.4l-4.1 3.5l-2.8 -0.9l-5.3 2.4l-3.5 3.5l-2.5 -0.9l-3.5 2.6l-2.8 4l-3.4 2.7l-1.2 -1l-4.8 5l-1 -0.1l-3.4 3.1l-3.5 4.8l-2.8 0.9z"/><path data-id="47061" d="m507.5 198.1l0.7 1.8l4 7.5l3.2 -2.5l2.6 -0.2l5.6 3.3l3.9 0.5l5.4 -3.4l-1.8 -7.1l2.2 0.4l4 -2.8l2.6 0.3l8.6 -2.2l1.9 -3.1l4.2 -2.3l2 -3.7l0.4 -3.2l-3.1 -0.2l0.1 -2.2l-2.7 -1.2l-0.6 -4.2l0.5 -3.6l-3.8 -2.6l-4.4 -3.7l-11.1 0.4l-5.8 0.6l-4.3 0.9l-3.4 1.9l-1.5 -1.5l-5.1 -1.2l-1 1l1.1 1.4l-1.1 2.5l-0.4 6.5l0.5 7.2l-0.3 1.6l2 0.2l-1.3 4.5l-2.7 2.6l-0.2 4.7l-0.8 1.1z"/><path data-id="47063" d="m790 70.2l-0.1 2l1 2.8l3.8 0.1l6.1 0.1l9.2 2.2l2.2 1.1l3.8 4.2l0.9 2.3l0.9 -1.1l-2.2 -4.5l3 -0.5l-0.6 -3.1l3.4 2.8l2.3 0.2l-1.2 -7.1l2.2 -0.6l2.8 -0.9l3.5 -4.8l3.4 -3.1l-2.4 -3.4l-0.8 -2.3l-2.9 -2l-3 -5.3l-0.3 -1.8l-2.3 1.8l0.2 3l-1.8 -1.4l-0.4 2.2l-1.8 1.9l-2.8 0l0.7 1.7l-2.5 -1l-1.4 0.6l0 1.5l-1.3 -0.3l0 1.7l-1.4 0.3l-0.5 -2.2l-1.2 1.4l-2.7 -4.1l-0.6 1.8l-3.4 0.7l0.1 1.6l-2.9 0.4l-3.7 4.1l0.4 2.4l-1.2 1.1l-2.6 -0.9l0 4l-1.9 0.2z"/><path data-id="47065" d="m558.2 241.3l10.3 0l2.4 -0.1l4.2 -0.1l2.2 0l1.6 0l2 0l1.4 0l1.2 0l2.2 0l1.6 0l4.2 0l16.2 -0.1l7.5 -0.1l2.1 -3.9l-3.8 -2.8l-0.5 -2.4l0.4 -1l-0.5 -2.5l-1 -0.5l-0.1 -1.8l-2.1 -6.1l2.2 -5.4l-0.1 -1.3l3.5 -6l1.4 -4.8l2.8 -3.1l-2.5 -4l-1.8 -7.4l-3.3 -2.9l-2.6 0.5l1.7 -4.2l-5.9 -3.9l-4 1.2l-1.1 -4l-2.7 -0.2l-1.6 1.8l-2.3 -1.4l-2.4 5.3l-4.3 9l-2.3 5l-16.3 24.3l0.1 1.4l-0.7 2.3l3.4 4.6l-2.3 6.1l-3.2 0.6l-2.1 4.7l-5.3 3.3z"/><path data-id="47067" d="m789.3 11.6l4.6 3.5l4 5.5l3.3 10.9l-0.3 3.6l-1.8 3l4 -1l1.3 1.6l3.7 1.3l0.5 1.6l2.8 -0.9l6.7 -2.2l3.3 -2l-1.5 -2.5l5.2 -2.9l-0.6 -1.4l3.8 -3.7l1.6 -2.4l9.3 -5.5l3.4 -1.7l2.4 0.3l0.7 2.5l2.7 -1.5l1.2 1.7l7.7 -4.3l6.2 -3l-6.6 0l-11.2 0l-4.9 0l-25.6 0l-1.3 0l-1.8 -0.6l-11.4 0.1l-11.2 0z"/><path data-id="47069" d="m128.4 237.3l-0.1 2.4l4.8 0.1l2 -0.1l13 -0.1l1.1 0l10.6 0l4.4 -0.1l4.1 0.1l3.2 0l4.2 0l0 -9.5l0 -8.8l0.6 -17.3l-1.3 -11.5l-5.7 -7.8l0 -6.1l-5.9 -0.1l-21.4 -0.4l-12 -0.2l-0.2 5.1l-1.6 54.4z"/><path data-id="47071" d="m224.3 197.9l-1.5 41.7l2 0l12.2 0l6.7 0l-0.2 -1.4l23.3 -0.1l1.7 0l0.4 -40.9l-1.8 -0.9l-2.3 0.4l0.1 -5l1.3 -2.3l-2.3 -2.6l0 -3.2l-4.6 -3.6l-4.8 3.8l-2.2 0.9l-4.8 -1.1l-3.5 1.8l-0.6 -2.2l-1.9 -2.4l-2.7 -1.6l-0.5 1l-13.2 -0.4l1 1.7l-1.2 3.6l-0.3 9.2l-1.1 1.7l0.9 1.8z"/><path data-id="47073" d="m811.4 40.7l-1 2.3l1.8 1.2l1 3.6l-1.1 3.8l2.1 4.3l2.5 1l-0.7 -1.7l2.8 0l1.8 -1.9l0.4 -2.2l1.8 1.4l-0.2 -3l2.3 -1.8l0.3 1.8l3 5.3l2.9 2l0.8 2.3l2.4 3.4l1 0.1l4.8 -5l1.2 1l3.4 -2.7l2.8 -4l3.5 -2.6l2.5 0.9l3.5 -3.5l5.3 -2.4l2.8 0.9l4.1 -3.5l3.3 0.4l2.8 -2.7l2.8 -0.8l3 -1.9l-0.5 -1.2l-2.5 -3.4l8.7 -5.7l-0.1 -2.6l2 -0.8l-0.2 -3.8l-0.5 -4.9l1.9 0.3l-1.1 -2.4l-8.2 0.1l-1.8 0l-15.5 0l-6.2 3l-7.7 4.3l-1.2 -1.7l-2.7 1.5l-0.7 -2.5l-2.4 -0.3l-3.4 1.7l-9.3 5.5l-1.6 2.4l-3.8 3.7l0.6 1.4l-5.2 2.9l1.5 2.5l-3.3 2l-6.7 2.2z"/><path data-id="47075" d="m95.5 155l-2.2 1.9l2.9 2.8l-0.7 2l1.5 0.1l-0.5 20.3l3.3 0.1l30.2 0.8l0.2 -5.1l12 0.2l0.6 -20l0.5 -17.1l-1.2 -0.7l-4.3 -0.3l-2.9 -2.9l-3.4 -2.3l-3.8 -1.6l-7.7 -1.1l-1.7 -2.4l-2.7 -0.1l-3.2 -2.7l-1.5 -2.9l-5.9 -1.5l-0.4 2l-1.6 1.4l-2.4 4.7l0 2.6l1.4 0l-0.6 2.5l-2.3 6.7l-1.6 0l-0.4 12.4l-1.5 0.2z"/><path data-id="47077" d="m197 150.4l-1.2 5.4l1.6 -0.5l3.9 0.7l2.4 5.4l1.7 2.4l2.8 2.8l4.2 2.3l5.5 1l5 -0.6l1.6 0l0.4 10.5l13.2 0.4l0.5 -1l-0.2 -15l6.1 -11.4l1.3 -29.5l-45 -1.1l-0.3 1.4l-1.4 0l-2.7 3.7l-0.4 20.3l0.8 2.9z"/><path data-id="47079" d="m207.1 25.4l-1.6 50.1l4.8 0.1l1.8 0.2l30.2 0.6l-0.1 3.7l4.2 -3.9l0.4 -2.8l3.9 -4.9l0.4 -2.4l2.6 -0.7l1.8 -3.1l-0.3 -1.3l2 -0.4l-0.5 -1.5l-0.4 -3.9l-1.4 -2.3l1.2 -4.2l-0.4 -2.7l7.4 -0.1l4.4 0.1l-4.9 -8.8l-2.9 -3.4l1.1 -3.9l-0.1 -3.7l-8.6 -0.2l-22.3 -0.3l-1.2 0l-9.9 0l-3.9 0l-2.6 0l-1.9 0l-2.6 -0.1z"/><path data-id="47081" d="m296.9 139.6l-0.7 5.5l2.2 1.9l4.3 2.4l3.3 3.5l3.6 -0.9l0.4 -2.4l1.9 -0.5l2.3 -2.4l2.1 0.1l2.3 3.1l4.8 0.3l5.6 1.9l4.7 -1.4l7.1 -4.9l2.1 0.1l5.8 -5.4l3.9 -0.5l1.1 -2.9l1.3 -0.6l2.2 -17.9l1.6 -12.8l-0.3 -2.7l-8.1 -0.8l-3.2 -0.5l-16.6 -2.2l-5.1 0l-5.2 -1.3l0.2 3.4l-3.4 3l-2.9 -0.7l-2.8 0.5l-3.3 3.7l-7.6 2.6l-1.2 9.5l-1.9 16l2.6 3.2l-3.1 0.2z"/><path data-id="47083" d="m268.9 46.7l2.9 5.9l1.3 6.9l-0.6 3l13.3 1.5l4.2 -1.8l4.7 0.5l3.1 0.9l3.9 1.8l4.1 3.1l8.8 0.5l0.9 2.1l1.3 0.7l5 -10.2l1.2 -12.3l-2 -0.2l-6.5 -0.8l-0.6 -3.7l-14.2 -0.1l-0.8 1.1l-3.9 2.5l-3.3 1.3l-4.3 0.8l-4.6 -0.2l-3.6 -0.7l-6 -2.8l-4.1 0.1z"/><path data-id="47085" d="m264.3 100l-0.2 2l1.1 2.7l4.5 1.3l4.6 -0.4l0.6 4.9l-1.3 5.6l-2.6 3.6l6.1 0.4l2 1.9l4.7 3l1 -2.4l2.1 -0.5l0.8 -1.8l11.8 -0.3l1.2 -9.5l7.6 -2.6l3.3 -3.7l2.8 -0.5l2.9 0.7l3.4 -3l-0.2 -3.4l-2.1 -3.3l0.9 -4.3l0.1 -6.8l-0.9 -6.2l-1.7 -5.7l-1.3 -0.7l-0.9 -2.1l-8.8 -0.5l-4.1 -3.1l-3.9 -1.8l-3.1 -0.9l-4.7 -0.5l-4.2 1.8l-13.3 -1.5l-0.2 3l1.3 2.4l0.8 3.1l2.1 3.3l-0.4 4.4l-2.2 3l-2.5 4.7l-3.4 4.2l-1.3 2.7l0.2 3.6l-2.4 3.2z"/><path data-id="47087" d="m515.2 56l1 0.9l1.2 3.8l1.6 0.9l1.1 -1l2.8 2.5l0.1 -1.6l4.2 2.9l2.1 -0.7l4 1l6.3 0.6l0.1 1.2l6.8 -2.5l2 1l0.2 -1.6l2.5 -1.2l0 -2.3l2.5 0.3l0.5 -3l1.6 -0.3l-0.1 -3.2l-0.3 -10.4l0.2 -4l-1.1 -0.7l-2.9 -4.3l-3.6 -3.2l-0.4 -2.2l-1.3 0.5l-10.6 -3.5l-3.3 0l-0.9 -3.8l-3.7 0.5l2.3 3.1l-4.4 -0.2l-1.6 -2.6l-5.4 2.5l-1.6 12.6l-2.1 17.7z"/><path data-id="47089" d="m761.9 83.9l1.7 5l2.7 0.7l-0.2 2.1l2 0.6l0.1 -1.2l5.6 3.9l9.5 7.3l2 3.6l3.6 1.3l0.3 1l3.5 -0.9l1 0.7l2.2 -1.4l3.1 0.7l0.2 2.1l3.2 -0.8l3.4 1.1l2.2 2.2l1.5 -0.8l2.4 -15.1l1.7 1.5l0.6 -6.7l1.9 -1.9l-1.6 -3.6l2.2 -0.4l-0.9 -2.3l-3.8 -4.2l-2.2 -1.1l-9.2 -2.2l-6.1 -0.1l-3.8 -0.1l-1 -2.8l-1.9 1.1l-3.7 -1.5l-1.5 2.2l-1.4 -2.8l-2.1 0.2l-0.9 -1.4l0.3 3.4l-2.1 0l-0.7 1.6l-1.1 -1.3l-0.7 3.7l-3.8 -0.9l-0.2 2.3l1.3 0.8l-0.1 2.6l-1.4 1.1l-1.5 -1.2l0.4 -2.8l-2.6 0l0 1.2l1.7 4.4l-3.7 -1.3l-2.1 0.2z"/><path data-id="47091" d="m952.4 44.6l1.9 0.7l1.3 4.2l3.3 0.1l1.4 2.6l0.9 3.9l3.6 3.8l2.1 -0.4l1.7 -3.2l1.2 -2.1l1.2 -0.8l1.2 -0.3l1.3 -1l1.5 -2l1.4 -1.1l1.1 -0.8l2.1 -0.8l1.1 -0.3l1.4 -1l1 0.4l1.2 0.9l1.4 1l1.2 0.6l1.2 0.1l1 -0.4l1 -0.2l1.2 0.3l1.6 0.5l0.3 -1l-1 -1.1l-1.1 -0.7l-0.1 -1.3l-0.8 -1.4l0.1 -1.2l0 -1l-0.9 -1l-0.2 -1.3l0.7 -1l1.6 -1.3l0.4 -1.5l0.2 -1.2l0.1 -1.4l0.7 -1.6l1 -0.3l0.5 -1.4l-0.3 -1.6l0.2 -1l-0.4 -1.4l0.2 -1.1l-0.6 -1.7l-0.7 -1.7l0.9 -1.1l0.7 -1.4l0.4 -1.4l0.1 -1.2l1.2 0l0.1 -1.4l0.2 -1.3l3.5 -3.4l-10.4 -0.1l-10.4 -0.3l-5.2 1.8l-0.4 2l-6.1 2.9l-0.4 2.3l-3.8 3l-2.2 3.3l-0.1 1.1l4 4.1l-1.9 1.4l-7.7 10.5l-3 3.2z"/><path data-id="47093" d="m699 105.7l-2.1 -0.1l2.4 3.1l-2.2 1.2l0.9 1.9l2.6 2.8l5.2 6l3.1 3.6l1 2l1.8 -0.1l0.8 -1.9l-0.6 -1.4l0.9 -2.4l-1.3 -2.1l2.6 0.7l-0.2 1.8l2.5 -1.8l2.8 -1l1.3 2.7l1.5 0.6l0.6 -3.4l1.6 -0.4l1.2 1.7l1.8 -0.3l-0.2 -3.1l-2 -1.5l4.9 -0.1l1.2 1.9l3.4 -1.8l4.4 4.2l6.4 0.8l4.6 -4.9l2.1 -1.6l3.1 -3.5l3.4 -0.8l4.7 -3.2l1.6 0.4l-0.3 -1.9l2.2 -1.7l1.9 -3.5l-1.3 -0.7l-1.3 -6.7l0.2 -2.1l-2.7 -0.7l-1.7 -5l2.1 -0.2l2.8 2l-2.3 -4.5l-1.4 0.3l-3 -4.7l-0.9 -3.2l-6.3 -0.2l-13.5 -0.4l-0.1 1.2l-1.4 -1.2l-2.8 -2.4l-4 2.6l-3.6 4.6l-2.6 2.8l-7.3 6.2l4 5.3l-1.3 1.1l-1.7 1.7l-1.9 0.7l-5.5 3.5l-5.3 -0.9l-0.4 2.3l-1.7 0.2l-0.9 4.3l-2.6 -1.3l0.9 3.3l-2.1 -1.2z"/><path data-id="47095" d="m69.8 62.9l0.7 1.4l1.7 1.5l2.4 1.8l1.1 0.7l1.2 1.1l1.8 1.2l16.3 -0.3l0.6 -3.6l-0.3 -1.2l3.7 -1l1 -1.1l1.8 -3.4l1.5 -4.7l1.4 -3.1l0.4 -2.6l-0.4 -2.9l2.7 -3.6l2.4 -4.6l-1.1 -3.6l1.1 -3.2l2.3 -2.8l-0.7 -3.9l-1.2 0.1l-2.7 0.3l-1.3 0.2l-1.5 0l-1.5 0l-0.7 1.3l-0.7 1.1l-0.9 1.1l-1.4 1.4l-1.3 0.9l-1.3 0.1l-1.7 -0.6l-0.8 -1.3l0 -1.2l0.8 -2.3l-1.3 -0.4l-4.8 0l1.9 2.4l0.3 2.1l-0.5 1.5l-2 2.2l-0.5 1l-0.1 1.1l0.3 1l2 2.8l1.3 2.2l0.5 1.4l-0.4 2.2l-0.7 1.6l-1.5 1.2l-1.5 0.4l-1.8 -0.1l-2.4 -0.7l-2.2 -0.1l-1.2 0.4l-1.1 1.5l0 1.2l0.9 1.7l2.5 1.8l1.3 1.2l2.8 1.5l1.1 -0.3l1 1.4l0.1 1.3l0 1.3l-1.2 0.7l-1 -0.4l-1 -0.1l-1.3 1l-1.5 0.6l-1.7 0.2l-1 -0.1l-1.5 -0.6l-1.4 -0.7l-1.8 -0.4l-2.9 0.3l-1.5 -0.6l-1 0.5l-0.6 1.2z"/><path data-id="47097" d="m40.6 136l0.2 2.3l0 2.3l0.4 1.3l1.3 1.6l0.6 1.3l1.7 1.5l1.9 0.6l1.8 -0.2l1.3 -1.7l1.6 -0.8l1.3 1l0.3 1.8l-0.3 1.7l-1.1 1l-1.5 0.6l-2.1 1.6l-1.3 -0.1l-1.6 0.6l-1.5 0.6l-1.5 0.9l-1 1.1l-0.4 1l0.4 1.7l0.8 1.8l0.6 1l1.4 0.7l1.4 0.1l0.8 1.3l1.9 -1.3l1.8 -5.2l4.8 -2.1l1.6 -0.3l-0.3 -1.5l2.5 -1.2l1.3 -2.5l1.3 0.8l2.6 -1.1l0.1 -1.1l3.4 0.5l0.2 1.5l4 -1.1l0.4 1.1l2 -0.3l0.7 1l1.8 -1.1l0 -1.2l2.3 0.4l0.9 -1l0.9 2.2l3.2 1.6l0.6 1.1l2.6 0.6l1 1.1l2.3 0.5l2.3 2.8l1.2 0.3l2.2 -1.9l1.5 -0.2l0.4 -12.4l1.6 0l2.3 -6.7l0.6 -2.5l-1.4 0l0 -2.6l2.4 -4.7l1.6 -1.4l0.4 -2l5.3 0.7l-0.1 -2.9l2 -3.5l-0.4 -2.7l-1.3 -3.1l-3.5 -2.6l-1.6 -3l-1 -0.7l-9.7 -0.2l0.1 1.9l-2.9 0.9l-5 -1.3l-1.2 1.6l-2.1 -0.4l-2.5 1.2l-2.7 -0.6l-1.6 2.8l-0.3 1.3l-1 1.2l-1.2 0.5l-1.3 -0.3l-1.3 -1.6l-3.1 -1.3l-3 -0.1l-1.7 1.2l-1.1 1l-0.7 1.7l-0.2 1.1l0.5 1.4l2.3 1.3l2.3 0.8l2.3 1.2l1 1.2l-0.1 1l-2.1 1.9l-1.6 0.8l-1 0.1l-1.7 -0.7l-2.8 0.7l-1.7 1.7l0 1.4l-0.2 1.1l-1.2 1.6l-1.4 1.2l-1.3 0.2l-1.6 -0.1l-1.3 0.8l-1.7 1.3l-1.2 -0.5l-2.5 -2l-1.2 0.6l-4 2.3l-1 1.5z"/><path data-id="47099" d="m311.5 236.3l0.7 2.2l19.5 0.1l1 0l1.3 0l3 0l1.2 0l2.5 0l1.2 0l5.8 0.1l3.4 0.1l4.6 0.1l0.6 -7l1.2 -10.5l1.8 -5.5l-2.7 -1.5l1 -7.7l-0.2 -8.3l-1.9 -0.9l2 -0.4l0 -12.1l1 -7.4l-2.3 -1l-0.2 1.6l-7.8 -1.8l-3.6 -0.8l0.1 -1.2l-14.2 -0.2l0 5.3l-3.4 -0.3l0 1.1l-3.6 0l-0.8 2.3l-6.8 0l-0.4 24.5l0 5.4l-0.5 6.2l-0.6 11.9l1.9 1.3l-0.7 2l-3.1 -0.1l-0.7 2.4z"/><path data-id="47101" d="m300 167.5l-0.8 3.1l3.7 1.5l4.6 0l-0.1 4.3l4.5 0.8l1.2 3.5l2.5 1.9l6.8 0l0.8 -2.3l3.6 0l0 -1.1l3.4 0.3l0 -5.3l14.2 0.2l-0.1 1.2l3.7 0.4l2.3 -5.5l-1 -1.9l1.6 -1.3l-1.5 0.1l-0.4 -5.3l-1.3 -0.9l-2.4 -0.1l-0.6 -2.8l-3.4 -2.2l-0.1 -4.7l2.3 -2.4l-0.7 -3.5l-2.1 -0.1l-7.1 4.9l-4.7 1.4l-5.6 -1.9l-4.8 -0.3l-2.3 -3.1l-2.1 -0.1l-2.3 2.4l-1.9 0.5l-0.4 2.4l-3.6 0.9l1.1 2.7l-0.3 3l-4 2.9l-0.6 6.1l-2.4 0z"/><path data-id="47103" d="m401.9 201.7l-0.9 38.4l1.8 0l4.3 0l12.2 0l2.1 0l2.1 0l4.8 0.1l1.3 0l2 0l1.8 0l3.2 0l1.2 0l5.8 0l3.9 -0.1l4.2 -0.1l9.1 0.1l-0.1 -3.9l0.2 -13l0 -2.3l-3.1 -0.4l-0.7 -2.4l-1.5 3.3l-0.8 -3l0.2 -3.9l-2.7 -9l-1.9 -0.4l-0.7 1.4l-1.1 -1.8l1.3 -0.6l0.2 -2l-1.7 0l-1.3 -2.2l-2.8 -1.3l0 -1.2l-6.2 -2.5l-1.4 -0.1l-1.4 -3.4l1.6 -2.7l-6.7 -2.3l-1.8 0.9l-0.4 5.4l-4 0.9l-7 3.6l-4.5 4.9l-1.2 1.1l-9.4 -1.5z"/><path data-id="47105" d="m660.9 147.8l0 1.6l3.1 0.5l1.2 -1.7l2.5 2.4l2.4 0.6l-1 -3.5l1.1 -3.1l1 1.5l4.4 -0.5l3.9 -1.7l-0.1 1.5l2.1 -0.6l1 3.6l2.7 -0.2l2.4 -1.8l-0.5 -1.5l3.6 0l4.1 1.4l-0.8 1.7l1.8 1.1l3.6 -0.2l-0.4 2.3l3.8 0.7l3.3 -0.4l0.5 1.1l4.2 -2.4l1.9 -3.1l0.2 -1.6l-2.4 -1.9l-1 -3.5l-1.2 -2.1l0.6 -4.1l1.8 -2.3l-3.2 -1.5l0.8 -5.1l-2.6 -4.3l-5.2 -6l-2.1 -2.4l-2.7 -1.2l0.1 3.8l-5.6 -2.5l-1 6.1l-1 2.6l-2.8 0.9l-0.9 1.2l-1 7l-3.2 -1.2l-1.1 3.3l-1.2 0.7l-1.4 -1.6l-5.3 6.1l-1.8 0l-2.5 4.6l0.1 1.9l-2.6 1.6l-2.6 0l-1 2.1z"/><path data-id="47107" d="m629.1 189.5l1 0.5l3 2.9l4.9 1.7l3.8 3.7l3.1 0.3l-3.1 1.4l0.6 1.6l1.6 1.3l1.6 -1l2.1 1.2l-0.7 1.7l2.1 -0.8l2.1 -3l17.5 0.2l2.4 -2.7l4.9 -4.7l6.1 -1.6l-1 -2l0 -7.7l-2 -0.5l0 -2.3l-1.1 -0.6l0.3 -3.7l-2.1 -1.6l1 -0.4l-7.1 -16.4l-2.1 -1.1l-0.4 -5.4l-2.5 -2.4l-1.2 1.7l-3.1 -0.5l0 -1.6l-4.1 0l-2.5 2.6l-2.8 5.2l-2.7 1.7l-0.3 2.2l-3.7 5.7l-2.6 1.5l-3.5 6.4l-3.2 2.4l-4.5 9.1l-1.9 4.9z"/><path data-id="47109" d="m175.9 221.3l0 8.8l0 9.5l31.4 -0.1l5.1 0l10.3 0.1l1.5 -41.7l-0.9 -1.8l0.3 -1.7l1.1 -9.2l-14.4 -0.6l-9.8 0.4l-8 3l-2.6 2.9l-0.3 3l1.3 0.2l-2.2 0.7l-0.2 -1.6l-1.7 1.9l-2.1 7.4l-1.5 1.5l-7.2 0l-0.6 17.3z"/><path data-id="47111" d="m471.9 26.9l3.7 1.2l2.5 5.5l21.9 2.6l8.7 1.1l8.7 1l1.6 -12.6l2 -16.4l0.9 -1.2l-1.5 -0.1l-3.5 0.1l-4.8 -0.2l-9.9 -0.6l-1.8 -0.1l-6.6 -0.3l-5.5 -0.6l-13.4 -0.8l-3.2 15.9l1.1 1.9l-0.8 3.5z"/><path data-id="47113" d="m142.8 158.1l-0.6 20l21.4 0.4l5.9 0.1l3 0.1l16.2 -8.7l4.7 -6.5l2.4 -4.8l0.1 -2.7l1.2 -5.4l-0.8 -2.9l0.4 -20.3l-11.5 -0.2l-24.2 -0.9l2.7 1.9l-14.8 16.1l-1.6 -1l-2.9 -0.2l-1.1 -1.9l-0.5 17.1z"/><path data-id="47115" d="m512.2 207.4l1.1 0.4l-0.1 14.1l0 8.8l0 9.9l4.1 0l25.8 0.5l6.1 0.1l9.1 0.1l5.3 -3.3l2.1 -4.7l3.2 -0.6l2.3 -6.1l-3.4 -4.6l0.7 -2.3l-0.1 -1.4l-0.9 -2.8l0.8 -1.8l-0.4 -3l-1.3 -3.1l-4.8 -5.6l-5.6 -1.6l-7.4 -4.8l-0.2 -1.6l-8.6 2.2l-2.6 -0.3l-4 2.8l-2.2 -0.4l1.8 7.1l-5.4 3.4l-3.9 -0.5l-5.6 -3.3l-2.6 0.2l-3.2 2.5z"/><path data-id="47117" d="m387.3 175.2l-0.7 4.9l4.1 2.1l-0.2 3.9l0.9 3.3l2.1 2.1l-0.5 3.3l2.1 -0.2l0.2 1.2l3.1 1.1l1.6 -3.1l1.9 3.9l0 4.2l9.4 1.5l1.2 -1.1l4.5 -4.9l7 -3.6l4 -0.9l0.4 -5.4l-2.2 -0.3l-4.6 -9.7l0 -2.9l-0.7 -5.1l1.3 -11.7l2.1 -0.5l-3.3 -0.6l1.3 -0.8l1.5 -14l-5 -2.6l-7.4 -0.5l-0.6 1.6l-3.5 -1.4l-1.7 2.1l-1.7 -0.7l-1.5 13.6l-1.7 1.3l1.4 1.3l-1.5 2.1l0.3 2.3l-1.3 3.6l-2.5 3.3l-0.5 -2.7l-0.6 3.9l-1.7 1.8l-6.9 4.2z"/><path data-id="47119" d="m341.4 151.6l0.1 4.7l3.4 2.2l0.6 2.8l2.4 0.1l1.3 0.9l0.4 5.3l1.5 -0.1l-1.6 1.3l1 1.9l-2.3 5.5l7.7 2.2l0.2 -1.6l2.3 1l5.4 -0.3l1.2 -1.6l2.4 -1.3l3.2 0.9l0.8 1.1l2.6 0.2l1.5 1.3l3 -0.1l1.8 2.3l3.1 1.1l0.7 -1.6l2.8 0.4l0.7 -4.9l6.9 -4.2l1.7 -1.8l0.6 -3.9l0.5 2.7l2.5 -3.3l1.3 -3.6l-0.3 -2.3l1.5 -2.1l-1.4 -1.3l1.7 -1.3l1.5 -13.6l1.7 0.7l1.7 -2.1l-3.4 -2l-3.9 -0.7l-4.9 -2.7l-5.8 -2.6l1.1 -2.3l-3.9 -0.7l-0.8 1.6l-4 -1l-1.3 -1.1l-23 -9.1l-2.2 17.9l-1.3 0.6l-1.1 2.9l-3.9 0.5l-5.8 5.4l0.7 3.5l-2.3 2.4z"/><path data-id="47121" d="m611.1 181.1l-1.7 4.2l2.6 -0.5l3.3 2.9l1.8 7.4l2 3.2l2.2 -0.2l5 -5.7l0.8 -4.1l2 1.1l1.9 -4.9l4.5 -9.1l3.2 -2.4l3.5 -6.4l2.6 -1.5l3.7 -5.7l0.3 -2.2l2.7 -1.7l2.8 -5.2l2.5 -2.6l-0.9 -2.5l0 -4l1 -2.5l-2 -2.3l-4.1 3l-0.5 -2.1l-2.6 -0.1l0 -3.4l-1.8 0l-0.9 -1.5l1.1 3.9l-1.3 2.6l0 2.5l-2 1.4l-1.3 -0.1l-0.2 -2.6l-1.5 -0.2l-1.8 3.7l0.4 4.2l-0.9 1.7l1 2.8l-0.5 2.6l-3.2 1.8l0.2 1.9l1.5 2.3l-2.4 1l-4.7 -1.2l-2.1 0.6l-0.7 1.6l0.4 2l1.7 1.4l0.3 2.6l-1.7 1.3l-2.4 0.7l-1.1 1.5l0.1 2.4l-1 1.8l-2 0.8l-1.9 -0.4l-1.9 -1.8l-0.7 -2l-1.3 -0.5l0 4.3l-4.2 4.2z"/><path data-id="47123" d="m667.7 150.7l0.4 5.4l2.1 1.1l7.1 16.4l-1 0.4l2.1 1.6l-0.3 3.7l1.1 0.6l0 2.3l2 0.5l0 7.7l1 2l-6.1 1.6l-4.9 4.7l16 7.3l-0.5 1l1.9 0.9l-0.8 1.9l3 -1.7l3.9 1.8l0.2 -2.7l1.7 -1.4l1.7 -1l0.9 -1.1l1.1 -0.5l1.3 -1.7l1 -0.6l1.4 0.5l0.7 1.1l0.4 1.5l1.1 0.6l1.5 0.3l1 -0.7l1 0.3l2.1 -0.6l1.2 0.5l1.4 -1l1.5 0l1.2 0.4l1.7 -1.4l1.4 -1l1.7 -0.6l1.5 -1.5l0.8 -1.5l1.4 -1l-0.4 -1.9l-1 -0.4l0.2 -1.9l0.3 -1.2l-1 -2.2l1.5 -0.7l1.2 -1.6l0.9 -1l-0.1 -1l-0.3 -1l-0.4 -1.6l-0.8 -1.4l1 -1.1l1.1 -1l0.5 -1.2l0.7 -1l1.1 -0.6l1.2 -1l1 -0.9l0.4 -1.1l-0.5 -1.1l3.1 -2.4l-2.2 -0.3l-2.1 -1.6l-1.1 2l-2.9 -4.2l2.1 -2.1l-0.4 -3.2l-5.4 1.5l-2.9 -0.6l-1.6 0.7l-1.5 -1.7l-0.2 -3.1l-1.2 0.3l-0.6 -2l-2.2 1.6l-3.3 -2.3l-2.6 -0.9l-0.7 -1.7l-0.5 -1.1l-3.3 0.4l-3.8 -0.7l0.4 -2.3l-3.6 0.2l-1.8 -1.1l0.8 -1.7l-4.1 -1.4l-3.6 0l0.5 1.5l-2.4 1.8l-2.7 0.2l-1 -3.6l-2.1 0.6l0.1 -1.5l-3.9 0.8l-4.4 1.4l-1 -1.5l-1.1 3.1l1 3.5l-2.4 -0.6z"/><path data-id="47125" d="m308.1 5.8l5.6 38.8l0.6 3.7l6.5 0.8l2 0.2l24.3 3.2l1.9 -1.4l0.7 -4.6l2 0l1.5 -3.4l4 -2.6l1.1 -1.9l3 0.4l0 -2.5l1.3 -0.5l0.6 2.1l1.5 -0.6l-0.1 -4l3.4 -1.5l-1 -0.9l0.9 -7l0.3 -5.6l-1.3 0.5l-2.4 -2.9l2 0.6l1.4 -7.3l-0.6 -2.2l1.3 -1.9l-13.3 0.1l-2 0l-3.5 0l-4.3 0l-2.4 0l-1.3 0l-4.4 0l-3.3 0l-1.2 0l-1.3 0l-1 0l-13.6 0.2l-9 0.2z"/><path data-id="47127" d="m435.3 191.6l1.4 3.4l1.4 0.1l6.2 2.5l0 1.2l2.8 1.3l1.3 2.2l1.7 0l-0.2 2l-1.3 0.6l1.1 1.8l0.7 -1.4l1.9 0.4l2.7 9l-0.2 3.9l0.8 3l1.5 -3.3l0.7 2.4l3.1 0.4l0.6 -1l-2.4 -1.8l1.9 0l-0.4 -2.1l0.9 -1.6l0 -3.3l2.1 -1.7l-0.9 -3.9l2.4 -0.9l-0.7 -2.5l3.6 -5.1l1.2 -4l-1.8 -1.3l1.8 -1.9l-3.3 -3.5l2.4 -1.8l-3.1 -0.3l2.6 -3.5l-3.5 0.7l-0.7 2.2l-4.1 2.1l-2.1 2.2l-1.5 0l-1.3 2l-4.4 0.2l-0.6 3.1l-3.4 0.5l-3.6 -2.5l-1.6 -3.3l-4.2 1l-1.6 2.7z"/><path data-id="47129" d="m622.9 67.4l0.4 3.1l1.2 2l-0.9 2.3l1.2 1.3l3.1 1.5l4.4 7.6l0.9 -1.5l2.2 0.6l1.5 4.4l8.2 9.2l4.6 12.3l2.2 -1.1l1.2 -1.8l3.6 -0.5l1.6 -1.7l0.3 -1.4l1.3 0.5l4.4 0l0.1 -2l7.7 -2.9l4.7 -0.1l7.3 -5.5l2 -2.4l2.7 -1.1l-4.3 -6.6l-4.8 -1.9l-1.1 -3.4l-2.3 -1.4l1 -3.1l-3.1 -4l-0.3 -1.7l-9.4 -4.3l-2.5 0.5l0.6 -1l-0.5 -4.2l-2.2 -1.4l-2.2 0.8l-10.4 -14.4l-2.8 -0.8l-0.8 3.7l-1.6 -0.1l0.7 1.9l-2.6 1.4l-1.5 -0.7l-1.3 1.1l-1.4 4.1l-2 0.5l-3.2 0.9l-1.5 -1l-2.3 1.2l-0.9 6.6l-3.5 4.4z"/><path data-id="47131" d="m95.2 65.6l0.3 1.2l37.9 1.1l22.3 0.4l0.2 -3l1 -23.8l0.2 -3.1l4.3 0.7l1.6 1.7l1.4 0.1l4.5 -2.9l3.5 0.3l0.3 -8.6l-1.5 -4.6l-5.4 0.1l-1.1 0.1l-1.7 -0.1l-7.5 0l-4.1 -0.1l-1.2 0l-2.8 0l-2.8 0l-1.5 0l-2.1 0l-3.2 0l-5.3 -0.1l-5.5 -0.2l-7.8 -0.1l-2.5 -0.1l-5.3 0.6l0.7 3.9l-2.3 2.8l-1.1 3.2l1.1 3.6l-2.4 4.6l-2.7 3.6l0.4 2.9l-0.4 2.6l-1.4 3.1l-1.5 4.7l-1.8 3.4l-1 1.1l-3.7 1z"/><path data-id="47133" d="m555.8 39.5l-0.2 4l0.3 10.4l4.2 -0.3l-0.5 1.5l1.1 1.8l-1.4 0.2l1.4 0.4l0.1 2.2l2 -0.1l0 2.2l1.9 1.6l6.2 2.2l4.5 0.4l0.4 2.6l13.7 6.7l9.8 1.1l4.3 -7.4l-4.6 -15.5l0.1 -3.4l0.3 -10.2l-0.2 -1.1l-1.7 0l-1.4 -4.1l-0.1 -2.9l-4.3 -4.9l-4.4 -3.5l-3.1 -1.2l-2.2 -2.5l-1.8 1.3l-1.6 1.3l-4.5 -0.8l-6 3.2l0.8 2.4l-2 -0.4l0.9 -1.9l-6.2 0.9l-4.1 6.3l-1.6 7.4z"/><path data-id="47135" d="m262.1 174.1l-0.3 2.1l1.3 2.4l2.7 0.6l-0.5 -1.3l2.6 -3l1.8 -0.9l2.4 0.3l2.3 -1.1l3 0.5l4.7 -1.9l0.7 1.5l3.6 -0.6l2.7 -2.1l8.1 -1l1.9 1.2l0.8 -3.1l2.4 0l0.6 -6.1l4 -2.9l0.3 -3l-1.1 -2.7l-3.3 -3.5l-4.3 -2.4l-2.2 -1.9l0.7 -5.5l3.1 -0.2l-2.6 -3.2l1.9 -16l-11.8 0.3l-0.8 1.8l-2.1 0.5l-1 2.4l-4.7 -3l-2 -1.9l-6.1 -0.4l-0.9 3.6l-1.1 5.2l-1.2 2.4l-3.6 3.4l-1.5 2.9l0.7 3.3l1.3 1.5l-0.2 3.2l-2 5.5l0.2 1.1l4.1 8.6l2 2.5l0.8 3l-0.8 3.4l-0.9 1.1l-4.4 1.5l-1.5 1.8z"/><path data-id="47137" d="m580.1 21.1l1.8 -1.3l2.2 2.5l3.1 1.2l4.4 3.5l4.3 4.9l0.1 2.9l1.4 4.1l1.7 0l2 -0.4l1.7 -12.9l2.8 -4l1.3 0.6l1.1 -5.1l3.6 -0.9l0.3 -1.2l1.3 1.2l2.7 -1.2l3.8 -1l5 0.4l4.3 1.2l5.1 2.8l3.9 3.6l6 0l-6.2 -11.3l-2.1 -0.1l-4.5 -0.1l-1.9 -0.2l-9.7 -0.9l-3.6 -0.4l-1.3 -0.2l-4.4 -0.4l-7.1 -0.4l-1.1 -0.1l-11.5 -0.4l-9.3 -0.1l-0.1 5.8l1.2 1.9l-2.1 6z"/><path data-id="47139" d="m640.7 235.4l-1.9 5.3l5.2 0l12.2 0l13.3 0l13.3 0l8.4 0l1.4 -12.8l0.2 -2l0.4 -4.1l0.8 -6.5l0.3 -2.1l0.3 -3.4l-3.9 -1.8l-3 1.7l0.8 -1.9l-1.9 -0.9l0.5 -1l-16 -7.3l-2.4 2.7l-17.5 -0.2l-2.1 3l-2.1 0.8l-1.4 1l2.2 0.7l-0.6 1.3l0.5 2.6l-0.6 2.2l0.4 1.9l-5.5 12l1.4 0.7l-1.5 3.2l-1.3 4.7z"/><path data-id="47141" d="m519.6 67.7l1.6 2.1l-1.4 8.6l2.2 4.1l2.1 1.1l-0.7 2.4l1 1.2l1.6 0.3l0.7 -1.3l2.8 -0.7l4.1 2.5l2.1 5l1.7 2.4l1 -0.3l0.2 -1.3l2.5 -1.3l1.3 -1.8l2.6 0.8l1.1 -3.3l1 0.6l1.1 -2.1l6.1 -1.2l13 3.8l2.7 0.4l5.3 3.2l2 -0.2l-0.2 5.5l5.4 2l0.4 -2.5l1 -6.3l0.9 -2.1l-0.6 -4.2l0.2 -2.3l1.2 -0.7l9.6 0.9l2.4 -4.1l3.6 -1.5l-2.2 -0.9l-9.8 -1.1l-13.7 -6.7l-0.4 -2.6l-4.5 -0.4l-6.2 -2.2l-1.9 -1.6l0 -2.2l-2 0.1l-0.1 -2.2l-1.4 -0.4l1.4 -0.2l-1.1 -1.8l0.5 -1.5l-4.2 0.3l0.1 3.2l-1.6 0.3l-0.5 3l-2.5 -0.3l0 2.3l-2.5 1.2l-0.2 1.6l-2 -1l-6.8 2.5l-0.1 -1.2l-6.3 -0.6l-4 -1l-2.1 0.7l-4.2 -2.9l-0.1 1.6l-0.7 3.9l-2.6 0.6z"/><path data-id="47143" d="m599.2 164.2l-3.1 5.3l3.5 2.2l-2.2 2.4l2.7 0.2l1.1 4l4 -1.2l5.9 3.9l4.2 -4.2l-0.5 -3.8l1.8 0l0.7 2l1.9 1.8l1.9 0.4l2 -0.8l1 -1.8l-0.1 -2.4l1.1 -1.5l2.4 -0.7l1.7 -1.3l-0.3 -2.6l-1.7 -1.4l-0.4 -2l0.7 -1.6l2.1 -0.6l4.7 1.2l2.4 -1l-1.5 -2.3l-0.2 -1.9l3.2 -1.8l0.5 -2.6l-1 -2.8l0.9 -1.7l-0.4 -4.2l1.8 -3.7l1.5 0.2l0.2 2.6l1.3 0.1l2 -1.4l0 -2.5l1.3 -2.6l-1.4 -4l-3.5 -0.2l0.4 -2.8l1.5 -0.7l-1.1 -2.1l-4.8 -2.8l0.8 -1.6l-1.8 0l-9.8 6.6l-2.6 0.7l-1.3 1.7l-15.2 20.4l-6.9 6.7l1 5.3l-2.3 0.7z"/><path data-id="47145" d="m638.1 122.1l-0.8 1.6l4.8 2.8l1.1 2.1l-1.5 0.7l-0.4 2.8l3.5 0.2l1.2 1.6l1.8 0l0 3.4l2.6 0.1l0.5 2.1l4.1 -3l2 2.3l-1 2.5l0 4l0.9 2.5l4.1 0l1 -2.1l2.6 0l2.6 -1.6l-0.1 -1.9l2.5 -4.6l1.8 0l5.3 -6.1l1.4 1.6l1.2 -0.7l1.1 -3.3l3.2 1.2l1 -7l0.9 -1.2l2.8 -0.9l1 -2.6l1 -6.1l5.6 2.5l-0.1 -3.8l2.2 0.8l-0.9 -1.9l-5.6 -11.6l-2.5 -8.2l-2.7 1.1l-2 2.4l-7.3 5.5l-4.7 0.1l-7.7 2.9l-0.1 2l-4.4 0l-1.3 -0.5l-0.3 1.4l-1.6 1.7l-3.6 0.5l-1.2 1.8l-2.2 1.1l-2.5 1.8l-3.1 5.3l-6.1 4.8z"/><path data-id="47147" d="m366.7 16.6l-2 -0.6l2.4 2.9l1.3 -0.5l-0.3 5.6l-0.9 7l1 0.9l3 1.5l3.6 3.4l6.7 4.2l2 3.3l3 -1.1l5.7 -0.8l0.5 -1.1l1.7 0.2l2.1 2.5l2.5 0.3l3.4 2.9l4.4 -1.4l-0.4 -2.5l1.1 -1.8l2 -0.7l1.1 -1.6l0.8 -1.9l1.5 0l4.9 1.6l-0.2 -2l2.3 -4.1l2.7 -2.9l1.3 -3.9l0.7 -5.3l1.3 -2.3l2.4 -3.3l4.5 -8.7l-3 -2.7l-1.7 0.1l-12.6 0.4l-5.2 0l-6.2 0.2l-2.4 0.1l-2.4 0l-6 0.1l-12.2 0.3l-5.7 0.1l-6.2 0.1l-1.3 1.9l0.6 2.2l-1.4 7.3z"/><path data-id="47149" d="m417.1 132.5l-0.3 4.9l1.5 1.1l5.4 3.4l0.4 -2.3l10.8 0.6l3.2 1.3l2.5 4.3l2.5 0.5l1.9 2.5l0.1 -1.1l3.6 -1.2l1.2 1.8l0 2.4l1.4 0.6l3.3 -1.7l-0.6 -1.7l3.1 -1.1l1.2 -2l3.6 0.4l0.6 2.2l2 -0.3l4.9 2.3l0 -8.1l4.4 -2.1l-0.1 -4.1l1.4 -1.3l1 -3.2l-0.2 -4.6l1 -4.2l1.3 -8.4l1.2 0.5l0.7 -4l1.3 -0.7l-1.6 -2.6l0.2 -3.1l-0.9 -1.3l-10.5 0.3l-6.8 -2.8l-1.8 -0.6l-4.4 -3.6l-2.8 -2.4l0.7 -1.2l-1.5 0.6l-4.1 -2.7l-9.8 -7.2l-1.2 6.2l-0.2 -2.4l-2 -1.8l-0.2 2.9l-2.3 2.5l0.5 1.9l-4.5 3.3l-1.4 0.6l0.5 4l-1.3 1.6l0.5 3.5l-1.4 4.1l1.5 4.5l-0.4 2.8l1.4 1.3l0.3 2.3l-1.5 0l-1.1 1.7l1.6 0.3l-0.2 4.9l-3.9 -0.7l-1.8 0.7l0.2 3.3l-1.2 -0.6l-1.2 3.1l-1.7 -0.3z"/><path data-id="47151" d="m637.7 10.8l6.2 11.3l1.9 3.7l2.6 9.1l3.9 5.8l-3.1 1l-1.7 2.5l10.4 14.4l2.2 -0.8l2.2 1.4l0.5 4.2l-0.6 1l2.5 -0.5l9.4 4.3l0.3 1.7l3.1 4l4.3 -1.6l1.3 -3.8l2.3 -2.2l-0.4 -6.2l1.6 -1.6l3.3 -0.9l0.5 -1l-0.5 -14.8l2.6 0.5l-3.8 -4.5l-0.6 -7.3l1 0.1l1.3 -6.3l5.1 0.8l2.3 -1.1l1.8 -3.2l0.2 -4.4l-1.7 -0.3l0.3 -3.6l-1.1 0l-19.8 -0.6l-6.6 -0.1l-5 0.1l-9.4 -0.5l-17.7 -0.5z"/><path data-id="47153" d="m542.9 163.8l4.4 3.7l3.8 2.6l-0.5 3.6l0.6 4.2l2.7 1.2l-0.1 2.2l3.1 0.2l-0.4 3.2l-2 3.7l-4.2 2.3l-1.9 3.1l0.2 1.6l7.2 4l5.8 2.4l4.8 5.6l1.3 3.1l0.4 3l-0.8 1.8l0.9 2.8l16.3 -24.3l2.3 -5l-10.2 -8.9l-10.3 -10.6l-0.9 -2.8l-2.9 -4.2l1.4 -3.7l-3.4 1.3l-0.7 1.6l-4.1 -0.1l-7.1 2.1l-5.7 0.2z"/><path data-id="47155" d="m752.1 113.3l1.2 1.1l0 3.2l1.2 0.5l1.9 5l2.1 1.5l-0.9 1.2l3.3 7.2l0.3 2.7l1.7 1.4l-0.5 1.1l2.7 0.3l0.9 3.5l1.3 -0.7l0 17.3l1.1 0.1l1.5 0.4l1 -0.4l2 -0.7l1.2 -0.8l1.2 1l0.8 1.2l1.3 0l1.2 -0.3l1.6 0.3l1.3 -0.2l2.4 0l2.5 0.4l1.5 -0.8l0.6 -1.2l0.1 -1l0.9 -1.1l1 -0.3l1.2 -1.5l0.8 -1.2l1.5 0.3l1.2 -0.2l1.2 -0.9l1 -0.7l1.3 -0.5l0.5 -1l1 -0.4l1 -0.7l1.6 -1.1l0.3 -1l1 -0.7l1.1 -0.4l1.9 0.1l1 1.1l1.2 -0.1l1 -0.8l0.3 -1.5l1.1 -0.8l1.2 -0.5l1.1 -1.1l0.7 -1l0 -1.2l0.2 -1.1l-2.5 -0.2l-0.5 -5.2l0.7 -2.8l-1.2 -1.5l-0.2 -2.1l2.8 -3.5l-5.3 -7.4l-0.2 -3.4l-2.2 -2.2l-3.4 -1.1l-3.2 0.8l-0.2 -2.1l-3.1 -0.7l-2.2 1.4l-1 -0.7l-3.5 0.9l-0.3 -1l-3.6 -1.3l-2 -3.6l-9.5 -7.3l-5.6 -3.9l-0.1 1.2l-2 -0.6l1.3 6.7l1.3 0.7l-1.9 3.5l-2.2 1.7l0.3 1.9l-1.6 -0.4l-4.7 3.2l-3.4 0.8l-3.1 3.5z"/><path data-id="47157" d="m0 237.6l0.1 2l24.6 0.1l4.1 0l4.1 0l4.1 0l10.2 0l2 0l4 0l4.1 0l2.1 0l4.1 -0.1l2.1 0l2 0l9.2 0l0.8 -28.6l-0.1 -1.7l0 -9.5l0.6 -14l-1.4 0.7l0.4 -2.1l-7.1 -0.4l0 -2.8l-3.3 1.1l-5.3 -0.6l-0.2 2.5l-2.5 -0.5l-7.5 0.1l-2.1 -0.1l-18.2 -0.8l-1.2 -1.6l-0.2 2.7l-1.5 0.5l-1 0.1l-1 2.2l-0.8 1.1l-1.1 1.4l-0.8 1.2l0.3 1.6l-0.3 1.1l-0.3 2.8l-1.4 0l-1.2 0.6l-2 -0.4l-1 0.4l-0.8 1l-0.4 1.6l0.3 1l0.9 1.7l2.2 1.4l1 -0.1l1 -0.3l1.5 -0.1l1.2 0.6l1 1.3l0.9 1.5l0.7 1.1l0.3 1.1l-0.3 1.2l-1.3 -0.5l-0.5 1.3l-0.4 1.2l-1.4 -0.6l-1 1.2l0.4 1.3l1 1.4l1.1 1.4l3.1 1l0.6 1.9l-0.7 1.2l-1.4 1.4l-2.1 0.7l-1 -0.3l-3.4 -2.1l-1.9 0.4l-1.1 0.8l-0.9 1l-1 3.8l-1.6 4.2l-0.3 1.6l0 1l-0.4 1.5l-1.1 0.9l-1.8 -0.5l-3.7 -0.6l-1 -0.9l-3.1 -0.2l-1 1.9l-0.7 1.5l-0.3 1.2z"/><path data-id="47159" d="m483 55.1l-1.2 -0.3l1.4 4.3l1.1 -0.5l-0.4 2.5l-0.2 2.8l1.2 0.4l3.9 13.4l1.3 1.6l0.7 5.5l2 -0.5l3.4 0.8l3.1 -0.5l3.1 -3.4l1.3 1.2l1.2 -1l3.1 1.7l0.1 -2.8l1.5 0.1l0.3 1.6l3.5 1.6l3 -5l1.1 0.9l2.5 -1.3l1.4 -8.6l-1.6 -2.1l2.6 -0.6l0.7 -3.9l-2.8 -2.5l-1.1 1l-1.6 -0.9l-1.2 -3.8l-1 -0.9l2.1 -17.7l-7.8 -1.3l-9.6 -0.8l-0.4 4.3l-6.2 2l-5.2 3.8l-3.4 4.6l-1.8 4.2z"/><path data-id="47161" d="m258.5 0l0.3 2.6l0.4 1.3l0.7 1.1l0.4 1.1l1.2 4.8l0.5 2.7l0.2 1.6l0.5 1.6l0.2 1.4l0.2 1.6l-0.2 1.4l-0.4 1l-0.1 1.5l-0.9 1.4l-0.9 1l0.1 3.7l-1.1 3.9l2.9 3.4l5.2 8.6l1.2 1l4.1 -0.1l6 2.8l3.6 0.7l4.6 0.2l4.3 -0.8l3.3 -1.3l3.9 -2.5l0.8 -1.1l14.2 0.1l-5.6 -38.8l-6.1 0.1l-5.8 0.1l-12.5 0.4l0.4 -4.4l-2.6 -0.2l-16.1 -1.7l-3.8 -0.1l-3 0z"/><path data-id="47163" d="m878.2 32l2.5 3.4l2.1 -1.5l7.1 2.8l17.4 -3l1.5 0.9l1.8 -1.4l0 1.2l1.9 0.3l-0.4 1.5l3.9 1l-1.4 3.9l1.9 -1.6l3.7 0.2l4.3 0.8l1.4 0.2l4.2 -3.6l5.8 2.7l1.5 0.1l9.4 -7.1l1 -1.3l2.4 0.2l4.6 -4.1l4.7 -0.9l1.6 -2.2l2.2 -3.3l3.8 -3l0.4 -2.3l6.1 -2.9l0.4 -2l5.2 -1.8l-11.1 -0.3l-1.3 3.2l-9.8 0l-14.6 0l-3.2 0l-1.7 0l-2.5 -0.1l-1.3 0l-2.5 0l-5.9 0l-19.9 0.2l-1.4 -0.2l-1 0l-7.7 0.1l-6.4 0.1l1.1 2.4l-1.9 -0.3l0.5 4.9l0.2 3.8l-2 0.8l0.1 2.6l-8.7 5.7z"/><path data-id="47165" d="m411.2 37.3l-0.8 1.9l1.1 0.3l2.1 4.4l0.8 4.4l5.3 3.7l0.7 2.2l3.1 1.8l0.3 4.7l1.9 0.8l3.3 0.6l2.7 -2.5l1.3 -3.6l-0.5 -2.4l1.3 -2.1l1.1 -0.2l0.6 4.3l1.9 1.8l0.9 -2.9l7.1 -5.3l2.1 -0.6l1.8 1l0.3 2.7l2.9 0.5l0.1 -2.5l1.5 -3.3l1.8 -1l1.7 1.8l0 2.2l-1.8 2.6l3.6 -1l3.5 0.9l0.4 -3.2l1.5 -1.8l1.2 -1.6l0.4 -13.5l3.6 0.1l-0.3 -4.9l1.3 -0.2l1.5 -4l-1.1 -1.9l2.3 -16l-1.2 -0.1l-8.9 -0.6l-4.6 -0.5l-3 -0.2l-1.7 0l-4.3 -0.1l-6.6 -0.2l-4.5 -0.1l-4.2 1.7l-2.4 1l-4.5 8.7l-2.4 3.3l-1.3 2.3l-0.7 5.3l-1.3 3.9l-2.7 2.9l-2.3 4.1l0.2 2l-4.9 -1.6l-1.5 0z"/><g data-id="47167"><path d="m30.4 180.6l0.6 2.3l17.6 0.8l2.7 0.1l7.5 -0.1l2.5 0.5l0.2 -2.5l5.3 0.6l3.3 -1.1l0 2.8l7.1 0.4l-0.4 2.1l1.4 -0.7l0.4 -1l3.5 -1.7l6.7 -1.4l7.7 0.2l0.5 -20.3l-1.5 -0.1l0.7 -2l-2.9 -2.8l-1.2 -0.3l-2.3 -2.8l-2.3 -0.5l-1 -1.1l-2.6 -0.6l-0.6 -1.1l-3.2 -1.6l-0.9 -2.2l-0.9 1l-2.3 -0.4l0 1.2l-1.8 1.1l-0.7 -1l-2 0.3l-0.4 -1.1l-4 1.1l-0.2 -1.5l-3.4 -0.5l-0.1 1.1l-2.6 1.1l-1.3 -0.8l-1.3 2.5l-2.5 1.2l0.3 1.5l-1.6 0.3l-4 2.8l-2.6 4.5l-1.7 1.7l0.2 2.2l-0.9 1l-2.1 -0.5l-1.3 -0.1l-1.3 -0.9l0 -1l-0.3 -1.2l-2.1 -1.7l-1.5 -0.9l-1.1 -0.2l-1.1 0.2l-1 0.5l-1.3 0.2l-1 0.7l-0.5 1.8l-0.5 1.1l-0.3 1l-0.1 1l0.2 1.5l0.3 1.1l1.3 2.2l1.7 1.5l-0.2 1.8l-0.6 1.3l0 1.1l-0.5 1.2l-1 1.3l-0.5 1z"/><path d="m15.1 184.6l0.8 1l3.2 0.4l1.1 -0.3l-0.9 -1.5l-0.3 -1.1l0.1 -1.2l0.8 -1.1l2.4 -5.55112e-17l1.1 1.1l1.1 1.2l1.1 0.7l1.1 0.9l1.3 -0.1l1.5 -0.5l-0.3 -2.1l-1.5 -0.6l0.8 -1l-1 -1.1l-0.4 -1.5l0.3 -2.3l0.5 -1.5l-0.6 -1.3l-1.5 -1.2l-1.6 0l-1.1 0.2l-1.3 1.1l-0.6 1.2l-0.7 2.5l-1.2 0.8l-3.3 2.1l-0.2 1.7l-1 3.5z"/></g><path data-id="47169" d="m464.8 47.5l1.2 0l0.9 2.8l-1 2.7l1 1.4l1.8 -0.9l0.6 -4.4l1.7 -1.9l0.3 1l2.4 0l0.3 1.5l2.3 1.9l1 -1.4l4.5 4.7l1.2 0.3l1.8 -4.2l3.4 -4.6l5.2 -3.8l6.2 -2l1.3 -3.4l-22.8 -3.5l-2.5 -5.5l-4.4 -0.7l-1.3 0.2l0.3 4.9l-3.6 -0.1l-0.4 13.5l-1.2 1.6z"/><path data-id="47171" d="m888.3 96.7l0.1 1.4l1 1l-0.8 1.8l0 1l1.3 0.4l2.2 -0.1l1.6 1.4l1.1 0.2l0.5 -1l1.2 -1l1.3 -0.6l1 -0.2l1.1 -0.4l1.4 -1l1.5 -1.3l1.4 -1.1l1.1 -0.9l5.6 -9.5l0.8 -1.5l2.3 -1.9l1.1 -0.3l1.1 -1l1.3 -0.6l1.3 -0.9l1.6 0.3l1.4 -0.7l1.9 -1l1.3 -1l1 -0.3l1.1 0.9l1.2 0.3l1 -1l1.1 0.2l1 -0.3l1 -1l1.2 -1.2l0.3 -1l-0.8 -4.8l-2.1 -2.3l-2.4 -0.5l1.3 -3.3l-3.3 -2.6l-4 -1.2l-2.4 1.1l-2 1.7l0.2 1.6l-1.4 2.6l-3.8 2.5l-1.8 2.2l-0.5 2.3l-1.9 1.2l-5.8 -0.1l-4.6 1l-7.8 7.5l2.1 2.5l-3 5.5l0.7 1.1l-0.4 1.4l-1.4 2.2z"/><path data-id="47173" d="m727.9 58.5l4.1 8.6l3.2 3.4l2.2 2.4l2 1.2l0.1 -1.2l13.5 0.4l6.3 0.2l2.1 -1.3l-1.6 -1.2l1.3 -2.5l1.9 -1.1l0.8 -4.3l-0.2 -2.4l-1 0.6l0.2 -3.3l1.5 -0.8l0 -2.4l2.5 -6.9l-3.5 -3.1l-1.6 2.8l-2.5 0.2l-1.3 -1.4l0.1 -2.1l-2.4 -4.2l-3.5 -2.1l0.3 -1.4l-1.5 -1.8l-3.2 2.3l-0.7 -1.4l-2.5 -0.8l-2.7 1.9l-2.4 0.2l0.3 2.1l-2.1 2.5l-3.4 -1.9l-0.5 2l0.6 2.7l-2.1 2.1l-0.6 8.1l-1.4 2.4l-1.4 -0.2l-0.8 1.8z"/><path data-id="47175" d="m542.8 129.7l-0.8 1.5l2.7 1l-0.9 1.9l-0.6 4.6l1.2 12.9l4.3 12.1l7.1 -2.1l4.1 0.1l0.7 -1.6l3.4 -1.3l14.3 -16.4l4 -5.4l-0.6 -1l0.6 -4.2l1.3 -1l-0.2 -1.3l-1.4 -0.7l-0.5 -1.2l-0.5 -3l1.4 -1.8l-11.2 3.6l-7 -2.6l-5.9 -1.1l-2.9 2.3l-2.1 -1.3l-1.1 1.2l0.8 2.2l-2.7 -0.7l-3.3 -1.3l-3.4 0l-0.2 1.6l-0.6 3.4z"/><path data-id="47177" d="m497.8 138.2l1.4 7.4l2.3 5.6l2.1 3.4l-0.2 3.2l5.1 4.6l2.5 0.3l0.6 2.1l5.1 1.2l1.5 1.5l3.4 -1.9l4.3 -0.9l5.8 -0.6l11.1 -0.4l5.7 -0.2l-4.3 -12.1l-1.2 -12.9l1.4 -3.7l0.1 -2.8l-2.7 -1l0.8 -1.5l0.6 -3.4l-4.5 -3.1l-4.5 -1.3l-8.2 -3.5l-4.1 1l-10.2 -0.4l-1.1 0.9l-3.3 2.4l-4.7 7.9l-1.8 1.9l-3.2 5.9z"/><path data-id="47179" d="m881.2 36.6l-3 1.9l8.2 -1.2l0.2 1l-2.1 38l3.5 3.9l2.6 3.2l7.8 -7.5l4.6 -1l5.8 0.1l1.9 -1.2l0.5 -2.3l1.8 -2.2l3.8 -2.5l1.4 -2.6l-0.2 -1.6l2 -1.7l-0.2 -1.6l3.1 -8.9l1.2 -4.5l0.5 -1.9l0 -3.6l-4.3 -0.8l-3.7 -0.2l-1.9 1.6l1.4 -3.9l-3.9 -1l0.4 -1.5l-1.9 -0.3l0 -1.2l-1.8 1.4l-1.5 -0.9l-17.4 3l-7.1 -2.8l-2.1 1.5l0.5 1.2z"/><path data-id="47181" d="m263.8 183.5l0 3.2l2.3 2.6l-1.3 2.3l-0.1 5l2.3 -0.4l1.8 0.9l-0.4 40.9l1.3 0l5.4 0l5.7 0l2.8 0l9.2 0.1l1.7 0l5.7 0.1l1 0l3.3 0l5.3 0l2.2 0l-0.7 -2.2l0.7 -2.4l3.1 0.1l0.7 -2l-1.9 -1.3l0.6 -11.9l0.5 -6.2l0 -5.4l0.4 -24.5l-2.5 -1.9l-1.2 -3.5l-4.5 -0.8l0.1 -4.3l-4.6 0l-3.7 -1.5l-1.9 -1.2l-8.1 1l-2.7 2.1l-3.6 0.6l-0.7 -1.5l-4.7 1.9l-3 -0.5l-2.3 1.1l-2.4 -0.3l-1.8 0.9l-2.6 3l0.5 1.3l3.8 1.3l0.2 1.3l-0.8 1.4l-3.7 1.1l-1.4 -0.8z"/><path data-id="47183" d="m156.9 41.5l-1 23.8l3.1 4l4.4 2.5l3.6 5.6l1.8 0.3l0.8 1.7l4.8 1.4l3.7 0.2l1.8 1l0.2 1.9l6.6 4.2l1.7 -0.5l2.8 0.3l-0.2 -7.6l14.2 0.3l0.2 -5.2l1.6 -50.1l-3.3 -0.1l-3.7 0l-9.7 0l-6.2 -0.1l-3.7 0l-6 0l-2 0l-1.2 0l1.5 4.6l-0.3 8.6l-3.5 -0.3l-4.5 2.9l-1.4 -0.1l-1.6 -1.7l-4.3 -0.7l-0.2 3.1z"/><g data-id="47185"><path d="m581.5 127.4l0.5 1.2l1.3 -0.2l-0.1 1.3l1.2 -2.1l-1.1 -0.1l-1.7 0z"/><path d="m534.2 121.2l4.7 2.1l4.5 3.1l0.2 -1.6l3.4 0l3.3 1.3l2.7 0.7l-0.8 -2.2l1.1 -1.2l2.1 1.3l2.9 -2.3l5.9 1.1l7 2.6l11.2 -3.6l-1.4 1.8l0.9 2.2l2.4 -0.8l0.8 -1.5l2.2 -9.7l-1 -2.3l2 -0.8l0.2 -1.6l-3.4 -0.4l-2.6 -7.5l0.2 -1.9l-5.4 -2l0.2 -5.5l-2 0.2l-5.3 -3.2l-2.7 -0.4l-13 -3.8l-6.1 1.2l-1.1 2.1l-1 -0.6l-1.1 3.3l-2.6 -0.8l-1.3 1.8l-2.5 1.3l-0.2 1.3l1.6 1.2l-3.8 5l1.3 9.5l-1.9 3l2.7 -0.8l0.9 1.1l-3.7 4.6l4.2 0.3l-2.5 2.8l-3.3 -0.5z"/></g><path data-id="47187" d="m358.9 105.6l-1.6 12.8l23 9.1l1.3 1.1l4 1l0.8 -1.6l3.9 0.7l-1.1 2.3l5.8 2.6l4.9 2.7l3.9 0.7l3.4 2l3.5 1.4l0.6 -1.6l7 -0.3l-1.5 -1.1l0.3 -4.9l1.7 0.3l1.2 -3.1l1.2 0.6l-0.2 -3.3l1.8 -0.7l3.9 0.7l0.2 -4.9l-1.6 -0.3l1.1 -1.7l1.5 0l-0.3 -2.3l-1.4 -1.3l0.4 -2.8l-1.5 -4.5l1.4 -4.1l-1.2 -3.3l-2.7 -1.4l-6.3 -3.7l-1.1 -0.8l-3 -0.7l-4.4 -2.9l-1.6 -0.5l-15.9 -2.3l-10.1 7.9l-2.7 1.2l-1.7 -8l-3.7 0.3l-11.2 -0.8l-1.7 10l-1.7 1.4l0.9 1.6l0.3 2.7z"/><path data-id="47189" d="m428.9 62.1l2.2 7.2l0.5 3l1.7 4l-0.1 1.5l3.4 -0.8l-0.9 4.7l2.3 1.1l9.3 7.2l4.6 2.7l1.5 -0.6l-0.7 1.2l2.8 2.4l4.4 3.6l1.9 -0.2l6.7 3.6l10.5 -0.3l0.9 1.3l-0.1 -1.2l4 0.6l4.2 -0.8l7.9 0.6l-1.3 -5.3l-1.6 -1.5l0.6 -3.2l-2 -1.8l0.7 -2l-1.9 -1.8l0.4 -2.3l-0.7 -5.5l-1.3 -1.6l-3.9 -13.4l-1.2 -0.4l0.2 -2.8l0.4 -2.5l-1.1 0.5l-1.4 -4.3l-4.5 -4.7l-1 1.4l-2.3 -1.9l-0.3 -1.5l-2.4 0l-0.3 -1l-1.7 1.9l-0.6 4.4l-1.8 0.9l-1 -1.4l1 -2.7l-0.9 -2.8l-1.2 0l-1.5 1.8l-0.4 3.2l-3.5 -0.9l-3.6 1l1.8 -2.6l0 -2.2l-1.7 -1.8l-1.8 1l-1.5 3.3l-0.1 2.5l-2 0.4l-1.2 -3.6l-1.8 -1l-2.1 0.6l-7.1 5.3l-0.9 2.9l-1.9 -1.8l-0.6 -4.3l-1.1 0.2l-1.3 2.1l0.5 2.4l-1.3 3.6l-2.7 2.5z"/></svg>
