<?xml version="1.0" encoding="UTF-8"?>
<!DOCTYPE svg PUBLIC '-//W3C//DTD SVG 1.1//EN' 'http://www.w3.org/Graphics/SVG/1.1/DTD/svg11.dtd'>
<svg viewBox="0 0 10000 2413.59" xmlns="http://www.w3.org/2000/svg">
  <g data-id="001">
    <path d="m6774.8 738.2l0 0l-10 31.2l22.7 14l11.1 33.6l47.8 18.6l43 66.3l25.1 81.9l56 116.1l22.2 -12.4l-23.7 -30.8l21.4 0.8l21.4 11.8l-9.5 -33.2l26.1 13.2l9.2 -42.8l16.8 -2l4.3 -22.6l52.7 8.7l55.4 -35.4l18.9 -7.1l17.3 -17.4l13.3 -10.6l-39.5 -52.7l72.8 -61.8l16.6 -27l9.3 -0.7l35.7 -45.7l39.9 -26.5l-31.7 -33.9l-46.9 -86.2l6.3 -0.1l-19.9 -2.7l-5.8 -35.5l-6.9 -6.7l-10.3 38l-16.2 16.6l-2 18.8l-17.3 -2.4l2.6 31.3l-37.8 8.5l-8.9 -13.5l-34.3 0.3l-38.5 -9.1l-62.4 -6.9l1.4 40.6l-4.6 49.2l-7.8 4.9l-74.2 -60.5l-33.8 18.5l-18.5 -10l-30 -2.4l-22.7 21.6l-12.9 38.5l-43.2 16.2z" />
  </g>
  <g data-id="003">
    <path d="m4208.7 1694.5l0 0l7.2 50.7l-0.4 29.3l46.2 97l21.6 2.6l18.3 -8.5l67.3 23l41.5 -9.9l16.2 33.4l36 24.6l25.2 2.6l9.3 -7.9l5.7 -31.3l44 -1.9l12.6 -19.9l15 0.3l20.5 -21.5l40.6 -21.3l7.3 -21.6l35.1 -7.4l12.7 -52l13.9 -5.1l-11.7 -9.4l3.5 -63.5l-0.6 -94.3l-3.5 -86.9l-49 -23.2l-20.4 2.7l-5.9 -21.6l-36.4 -3.8l-11.8 19.9l-30.6 10.5l6.5 16.6l-33 17.3l-14 -6l0.3 -23.9l-12.4 -18.4l-35.7 12l-1.2 10.5l-18.5 -25l-25.3 -4.7l-24.8 -43.1l-31.9 -13.1l-107.6 -6.2l-3.5 22.9l-14.7 140.2l-13.3 7.5l33 6.4l-20.8 4.7l-12.7 116.8z" />
  </g>
  <g data-id="005">
    <path d="m2419.2 996.3l0 0l-3.5 194.1l45.7 1.1l108.1 4.5l37.6 -10.3l25.5 14.4l1.5 41l28.4 -7.6l37.9 1l4.4 -27.1l4.9 -8.8l25.9 -35.7l13.3 -55.7l2.5 -43.4l-9.2 -6.3l-45.7 4l-44.7 -13.5l-10.9 -27.3l2.3 -20.2l24.4 -32.4l-1.8 -36.3l13.5 -26.6l33.9 -41.7l25.1 -47.1l21.9 -30.3l3.9 -43.9l-20.5 -33l-8.2 -30.8l-12.8 -24.2l2.4 -29.8l6.1 -30.1l-13.3 -68.8l-28.7 -58.9l-11.8 -9.8l-3.2 1.6l-43.9 -1.1l-74 0.8l4.2 27.2l-12 42.1l13.7 23l4.3 38.6l4.6 15.4l-20.1 3.9l3.3 13.4l-18.3 31.2l-25.9 6.5l-3.9 24.3l-38.7 49l-4.4 28.3l-41.6 39.1l-2.2 196.4z" />
  </g>
  <g data-id="007">
    <path d="m5640.4 1587.2l0 0l-14.2 37l29.2 41.8l8.7 27.8l102.7 106.4l102.1 89.1l42.7 -90.2l23.8 -53.3l22.5 14.2l15.7 -18.5l22.2 -24.1l-35.1 -22.2l31.3 -53.4l23.3 -6.7l-10 -53.5l69.4 -67.1l151.9 -203.6l-3.4 -4.6l-11 -4.8l-115.7 31.7l-14.3 -36.3l-50.6 16l-21.3 -13.3l-173.9 6.1l-13.2 10.3l-6.1 42.3l6.3 10.5l-40.3 54l-142.5 164.5z" />
  </g>
  <g data-id="009">
    <path d="m7066.5 1526l0 0l7.4 16.5l25.8 9.3l33 22.7l21.5 -15.8l6.2 19.8l12.5 -2.8l9.7 22.2l-8.1 9.3l15.3 17.2l15.5 -7.3l29 6l54.3 -15.3l4 31.5l-21.3 20.7l29.3 41.6l11.2 -19.7l21 15.6l22.1 2.7l-30.7 23.6l4.7 10.4l0 -0.6l3.7 -0.1l2.8 1.1l2.9 4l4 -0.7l7.4 -5.6l0.9 -3.1l6 -6l8.4 -2.6l5.6 -0.8l6.2 0.7l3.2 -0.3l5.8 -3.4l2.9 -5.2l1.4 -6.6l2.8 -6.6l4.7 -2.8l1.4 -2.9l0.2 -1.6l-1.4 -1.5l0 -1.8l6.6 -7.5l3 -0.5l1.1 -1.2l9 -13.7l2 -6.3l2.9 -2.2l8.6 -3.4l7.2 0.3l8.3 -1.3l6.2 1.1l6.2 2.6l9.6 -3.3l9.6 -4.5l5.2 0.2l2.1 1.2l18.2 -14.9l1.3 -3l7.2 -7.3l18 -8l7.7 -4.5l8.1 -10l1.6 -6.6l8.2 0.8l5.7 -1.4l3.2 -1.6l8.1 3.5l16.4 -6.1l3.1 3.3l11 1.8l3.1 -2.1l15.7 -7.4l3.9 0.1l2 1.2l1.7 0l3.3 -1l15.8 -0.7l9.1 -2l3.7 1.9l7.9 -0.6l3.7 0.3l0.2 -172.5l-13.2 7.3l-9.1 -34.5l-26.7 -2.6l4.5 -10.9l-17.5 -13.9l-2.8 -26.6l-32.8 -72.1l9 -12l-20.5 -15.2l-18.8 -50.4l-12.3 -5.3l0.1 -32.1l-11.6 -11.3l-18.5 11.1l-2.3 5.4l-45.9 48.8l-64.1 -7.5l-44 -42l-34.3 18.1l-12.1 -19.2l-49 1.2l19.6 15.3l1.8 30.8l-17.7 2.9l-12.1 -17.4l-16.5 3.6l-5.8 33.8l-14.9 -5.8l-12.8 -27.3l-27.9 9.6l-24.8 17.9l1.9 -18.3l-26.2 -7.4l12.8 20.6l-9.3 23.6l5.7 13.8l-7.7 18.6l-17.7 0.8l-7.6 -14.1l-7.5 1l-7.8 51.2l31.8 15.5l-18.5 22.7l-5.6 41l11.9 20.7l10 34.6l23.8 19.1l-1.8 16.1l-19.5 30.6l-42.3 24.1z" />
  </g>
  <g data-id="011">
    <path d="m6098.8 2197.6l0 0l21 61.4l0.7 17.8l10.3 5l5.2 24.9l-4.3 9.6l5 24.2l37.8 27.8l-18.3 38.8l24.6 -0.2l12.9 -0l5.9 -0.1l90 0.2l3.8 0.1l30.3 -0.4l9 0.4l4.1 -0.3l3.7 0.2l7.5 0.2l0.3 0l1.5 0.1l1.2 -0l37.3 -0.3l18.7 -53l12.7 -47.1l15.3 -31.8l-14 -6.6l54.8 -119.9l-3.9 -19.5l6.2 -22.2l-4.8 -26.3l5.9 -13.2l-21.7 -7.5l14.1 -10.4l6.7 -17.1l-21.1 -12.2l-16.5 10l-16.2 -13.4l-6.3 -16.5l30.9 -13.6l-30.9 -2.7l-37.7 -37l-48.8 -17.2l-30.3 -29.4l-10.5 -5.1l-20.1 -11l-7.5 40.6l-50.1 57l-21.8 1.6l4.6 7.7l-27.7 31.5l-14.4 48.3l-34.5 59.5l1.3 13.3l-22 53.8z" />
  </g>
  <g data-id="013">
    <path d="m6849.7 600l0 0l3.9 62l30 2.4l18.5 10l33.8 -18.5l74.2 60.5l7.8 -4.9l4.6 -49.2l-1.4 -40.6l62.4 6.9l38.5 9.1l34.3 -0.3l8.9 13.5l37.8 -8.5l-2.6 -31.3l17.3 2.4l2 -18.8l16.2 -16.6l10.3 -38l6.9 6.7l5.8 35.5l19.9 2.7l7.7 -17.6l13.7 1.7l13.5 -24.1l6.5 -80.7l21.4 -20.6l-5.8 -26.7l4.6 -19.6l34.3 19.2l21.4 -25.1l-3.4 -20.9l6.7 -4.5l-26.3 -6.6l-23.7 -65.7l-16 -40.2l-31.9 -84.6l2.5 -35.7l-5.9 -6.1l-0.3 -0l-161.2 -2.6l-115.1 -1.1l-0.2 -0l-39.2 0.3l-2.8 36.4l16.7 2.9l-2.2 43.8l-18.2 32.3l-22.7 11.2l-50.7 -8l-12.6 63l-9.9 -1l6 72.6l37.6 44.6l-25.8 -5l5.2 147.6l-4.6 10.2l-32.8 9.2l-15.9 16.5z" />
  </g>
  <g data-id="015">
    <path d="m4735.3 1353l0 0l0.9 40.5l47.7 31.6l25.6 28.1l27 1.2l36.2 20l59.2 5.5l6.2 -11.6l43.6 -3.7l10.9 -9.1l-14.3 -73.7l31.7 -59.1l17.5 -19.3l47.2 -78.9l33.1 -24.4l-4.7 -25.5l-31.1 -30.9l-93.4 -104.9l-20.6 -11.7l-79.2 -5.6l-41.7 8.3l-40.4 -5.6l1.5 12.4l-2.4 31.1l15.6 25.9l-12.9 7.5l-6.5 40.4l-11.6 -5.1l-12.8 84.1l-10.2 41.8l1.7 45.8l-9.7 31.7l-14.4 13z" />
  </g>
  <g data-id="017">
    <path d="m1851.8 1262.4l0 0l-0.9 7.1l115.4 2.4l26.6 -36.8l14.1 0l2.9 -13.7l450 11.5l1.5 -41.4l-45.7 -1.1l3.5 -194.1l2.2 -196.4l1 -36.7l-301.9 -5.6l-17.8 -1.5l-48.1 -1.5l-2.2 52.3l-142.3 -2.7l1.9 75.8l-28.3 -3.1l-16.5 5.4l-3.1 87l-12.2 293.2z" />
  </g>
  <g data-id="019">
    <path d="m9197.3 594.5l0 0l2.1 16l24.2 -10.8l40.1 12.4l32.8 26.5l-13.4 33.1l23.7 4.7l21.4 23.3l8 48l4.2 -1.3l5.3 -1.8l3 0.1l7.4 2.8l3.5 3l3 3.2l4.5 3.9l3.9 1.7l4.7 1.3l3.6 3.5l1.3 1.4l1.3 1l4.3 0.6l3.8 -0.8l2 -2.1l2 -1.6l3.3 -0.3l9.7 0.1l5.7 -2.2l9.2 -2l4.4 7.6l3.8 11.4l5 10.6l0 7.3l-1.6 5.9l8.5 18.8l4 2.9l13.7 -0.3l7 -3.7l4.3 -1.3l4.4 2.7l3.6 0.7l14.5 -0.4l5.8 0.4l0.9 0.1l0.5 -1.1l14.5 -7.9l6.7 -1.6l6.1 -10.9l0 -4.6l2.2 -4.1l11.8 2l6.9 6.1l5.5 1l5.1 -5.6l2.8 -7l-0.3 -1.4l76.8 -140l24.5 -40l6.8 -12.6l-21.3 4.4l-35.8 -37.7l-8.9 -39.1l-13.8 -25.8l-32.8 -0.6l-13.4 -41.6l-19.4 -6.6l30.5 -31.5l76.8 -105.5l18.6 -13.5l-40 -41l0.7 -10.6l-16.2 22.4l-46.9 9.5l-45.7 40.9l-24.1 -2l-9.6 13.3l-93.8 70.7l-14.7 -1l-58.3 -27.3l-41.8 35.6l-13.6 -1.7l-0.1 36.4l-5.1 19.3l-12.4 44.9l-31.4 89.3z" />
  </g>
  <g data-id="021">
    <path d="m3497.1 465.3l0 0l-6.8 46.2l23.1 1.7l27.7 -3.7l10.5 -11.2l19.2 21.9l45.5 2.5l28 12.6l-3.9 48.4l-29.3 16.9l-13.3 15.5l8.3 9.9l14 -8l10.5 17.4l-15.4 10.4l-11.2 23.6l32.7 28.9l11.2 21l-24.2 15.6l5.8 16l-8.1 64.6l-0.4 55.2l-10.9 30.2l112.2 8.5l36.5 -2.5l14.3 6.1l3.7 -75.8l46.7 -48.7l16.3 -115.9l-0.5 -22.7l23.8 -59.5l18 -22.1l28.3 -61.4l19.7 -58.6l-8.1 -23.5l-56.6 7.9l-29.7 11.4l-20 -33.3l-66.7 -41.6l-36.3 -33.9l-29.9 -15l-34.4 15l0.9 39.5l-15.3 6l-6 -20.7l-13.4 5.4l0.2 24.9l-30.3 -4.1l-10.9 19.4l-40.3 25.9l-15.5 33.8l-19.9 0.2z" />
  </g>
  <g data-id="023">
    <path d="m1695.3 1785.2l0 0l-0.5 61.4l56.9 78.2l12.7 115.4l71.6 0.1l14.6 -14.6l20.6 -74l16.6 -18.7l2.5 15.5l21.7 -7.2l-13.2 -2.3l2.6 -29.8l25.6 -29.4l79.8 -29.8l97.6 -4.5l143.9 6l12.5 -36.4l-10.5 -17.3l-3.7 -104.6l-16 -0.1l-42.3 14.9l-7.7 -9.5l-55.2 -9.7l-41.8 -22.9l-28 -28.1l-17.5 -24.4l-24 -54l-39.3 -6.6l-16.2 5.2l-0.7 26.9l-24 48l-47.2 65.5l-161.5 87.5l-29.8 -0.5z" />
  </g>
  <g data-id="025">
    <path d="m7298.2 127.3l0 0l5.9 6.1l-2.5 35.7l31.9 84.6l16 40.2l23.7 65.7l26.3 6.6l-6.7 4.5l24.1 -1.9l27.1 -19.2l25.3 7.7l7 13.8l32.1 -23.3l14.8 18.3l-2.8 14.1l35.3 20.8l24.3 41.8l-0.9 21.4l12.9 13.9l25.3 -1.7l15.9 -27.9l34.5 30.5l7.3 17.1l53.4 -18.8l20.2 -16.6l3.6 -14.8l29.1 3.6l20.9 -4.7l21.2 21.4l30 -27.4l11.8 14.8l-0.8 -23.9l16.6 -1l19.2 14.9l19.4 -7.3l-12.5 -21.4l21.5 -18.5l13.5 -21.7l14.6 8.4l3.4 -13.4l31.5 10.8l17.6 -29.7l2.5 -36.3l-33.4 -108.7l-39.6 -54.9l-45.6 -34.8l-97.8 -0.1l-76 -1l-26.5 -2.8l-28.3 -1.1l-0 -0l-6.1 -0l-0.2 3.2l-1.7 2.9l-2.8 3.6l-4 2.7l-5.2 7.2l-1.5 4l-2.2 2.6l-113.5 -1.9l-121.7 -3.7l-41.9 -1.7l-65.6 -2.7z" />
  </g>
  <g data-id="027">
    <path d="m5210.2 92.9l0 0l-20.1 163.9l54 -25.5l15.6 26.1l43.6 2.2l-23.3 -30.6l36.8 -5.2l9.2 37.9l33.2 -0.1l105.5 35.1l13.4 -5.2l4.1 22l35.6 31.9l29 42.9l10.9 6.8l15.8 -73.5l40.8 -62.7l62 -9.4l-9.4 18.9l20.3 3.6l-7.8 -24.2l60 -31.9l44.9 8l16.3 -12.9l20.6 -60.3l-12 -18.5l1.4 -58.1l-16.6 0.1l-6.1 0.9l-0.1 0l-5 2l-28 -0.2l-10.9 2.3l-110.8 5.8l-7.3 0.6l-59.9 5.1l-72.9 -1.1l-0.6 -0.1l-145.2 -3.4l-62.4 -3.3l-65.5 -2l-9.1 11.9z" />
  </g>
  <g data-id="029">
    <path d="m8079.4 1120.2l0 0l2.4 34.4l52.8 73.6l-28.2 35l1.9 21.3l12.4 15.4l-6.6 27.8l5 51.9l24.2 -2.1l0.1 -1.6l4.7 -5.2l8.9 -3.7l1.6 -1.6l1.7 -4.4l10 0.9l10.9 -0.1l3.1 -0.7l3.5 1.2l2.9 1.9l12.4 -3l4.2 1.7l2.1 -0.2l11.4 -6.1l3.1 -0.1l4.1 -8l1.5 -4.8l3.9 -7.2l6.5 -2.9l2 -0.2l6.2 -12.1l-0.8 -5.8l0.6 -1.8l3.9 -4.8l2.7 -2.2l5.9 0.9l6.9 -0l1.3 -1.2l22.2 -4.2l8.7 2.6l7.5 -5.7l3.7 -1l6.6 -3.7l0.3 -1.1l2.6 -1.2l2.4 0.5l-0.1 -0.1l0.1 0.1l3.5 -1.9l12.9 -10.8l1 -3.1l7.5 -5.2l5.4 -0.8l2.1 2.4l9.5 2.4l2.8 -0.2l3.7 -2.1l6.5 -1.9l4.8 2.6l2.6 2.6l2.5 0.7l1.7 -0.1l3.6 -1.9l3.8 -0.9l27.5 10.8l7.3 2l5.3 6.6l6.5 0.9l4.3 -1.2l9.3 -5.8l6.4 -6.5l4.6 -5.9l5.6 -4.1l6.4 -0.5l1.4 -2.5l0.8 -1.5l-0.7 -3.4l1.3 -7.6l3.2 -4l3.3 -6.5l0.4 -2.7l4.3 -9.1l7.5 -12.1l1.9 -1.4l7.4 -2.4l4.9 -8l1.6 -4.9l5 -3.2l4.9 -1l3.7 -3.4l1.2 -4.5l-2.2 -8.9l1.8 -13.5l1.2 -4.9l2.1 -3l17.5 -9.2l1.8 -2.9l0.6 -4.2l-0.6 -3.4l-1.5 -3.4l-3.4 -4.5l0.3 -3l2.1 -3.8l0 -3.8l-3.1 -5.8l-2.7 -14.8l-5.5 -10.4l-0.3 -9.8l0.6 -6.1l0.9 -1.5l4.9 -0.4l3.4 -1.9l1.2 -1.9l0.9 -2.3l-0.2 -8.9l3.7 -10.5l0 0l-67.8 -78.5l-57.8 -56.7l-51.8 -54.4l-4 -18.6l-20.9 -5l-33.4 -37.9l-18 12.7l2.6 -13.9l-27.3 -10.6l-14.8 -22.6l-23.1 -17.3l7.4 -34l-22.2 5.9l11.8 70.7l-23.3 -2.2l-25.3 -30.4l-8.9 1.6l6 30.9l-30.1 4.7l21.8 45.3l-8.9 10.6l-22.3 4.1l15.9 35.6l-19.2 18.5l-6.2 66.9l-16.9 -14.6l-24.4 151.3l-14.9 8.1z" />
  </g>
  <g data-id="031">
    <path d="m4678 1806.9l0 0l-25.8 35.4l30.7 3l-24.3 18.4l33.5 35.2l-24.2 12.5l5.6 7.1l13.1 -15.7l20.2 4.9l22.9 -8.1l17.6 19l4.1 -15.6l41.6 -25.6l140.2 26.7l3.5 12.1l11.3 1.1l24.6 27.5l29.5 -3.3l73 39.6l7.7 -11.5l2.4 -46.9l27.5 -26l13.4 -44.8l-20.2 -1.6l2.9 -16.2l-5.5 -72.2l4.2 -64.5l10.8 -25.3l-10.7 -13.8l9.8 -10l-6.4 -21.2l-25.5 -3.2l-50.8 -46.1l1.9 -32.1l-21.1 -34.2l-22.9 -56.3l-10.9 9.1l-43.6 3.7l-6.2 11.6l-59.2 -5.5l-36.2 -20l-27 -1.2l-25.6 -28.1l-47.7 -31.6l-44.2 21.2l0.3 81l3.5 86.9l0.6 94.3l-3.5 63.5l11.7 9.4l-13.9 5.1l-12.7 52z" />
  </g>
  <g data-id="033">
    <path d="m1100.6 1202.9l0 0l0.9 28.8l6.4 7.9l14.9 29.1l32.4 26.7l26.9 1.3l17.3 24.3l77.1 11l37.8 16.3l34 22.6l29.1 29.2l43.3 2.8l11.6 6.6l11.1 18.9l28.8 1.5l15.7 10.5l148.2 -160.5l-26.8 -19.2l-26.5 -24.8l-31.5 -17.3l-25.1 -1.3l-35.9 -17l-3 -21l-39.8 6.7l-32.8 -15.9l-28.9 -2l-7.3 -33.3l-16.2 -20.8l6.4 -29.4l-13 -66.8l-36 -12.6l-20 -15.7l-5.1 -17.2l-19 52.3l-51.7 65.3l-19.8 5.4l-15 38.7l-72.3 7.8l3.8 26.6l-19.9 34.8z" />
  </g>
  <g data-id="035">
    <path d="m5818.7 1266.1l0 0l-3.8 8.1l14.2 7.3l3.4 -6.5l11.2 0.7l-6.6 28.1l-0.6 1.9l173.9 -6.1l21.3 13.3l50.6 -16l14.3 36.3l115.7 -31.7l11 4.8l3.4 4.6l12.6 -16.8l26.2 -7.2l97.6 -66l18.4 0.2l61.1 -48.2l31.1 -52.7l21.9 -11.8l2.8 -6.2l-46.3 -123.3l-82.3 -92.1l-15.5 -44.3l-21.8 -6l-9.3 15.3l-44.5 -75.6l-30.7 -14.7l-11.8 -13l-29.3 14.3l-4.6 -12.3l-25.2 10l-12.9 -14.3l-28.9 -3.8l-11.2 10l-28.5 -24.2l-31.3 24.3l-30.7 24.2l1.8 5.4l-21.4 -8.2l-36.4 14.7l-24.2 41l-95.8 -8.9l-12.2 7.2l-2.1 23.1l5.7 42.3l-9.3 20.6l-10.4 62.6l3.9 25.9l-8.3 -0.9l-1.5 19l26.4 75.3l34.1 3.8l-1.6 16.3l-19.7 8.2l10.5 22.6l-21.8 96.6l-8.1 15.3l-24.2 7.6z" />
  </g>
  <g data-id="037">
    <path d="m3773.3 912.8l0 0l-14.3 -6.1l16.7 80.3l26.7 -12.3l101 -78.5l159 23.1l15.9 5l44.4 28.5l29.7 7.3l11.2 8.5l63.4 36.7l30.4 6.8l3.5 4.9l12.6 -16.5l-5.4 -39.6l13.8 -6.2l38.7 -32.3l5.5 -1.2l-4.6 -19.2l23 -25.4l1.6 -28.7l20.3 18l2.1 23.8l11.7 -61.8l-23.5 -10.8l9.4 -46.6l-33.5 8.3l1.3 -14.9l-17.5 -40.5l-5.4 -29.8l-21.6 -72.4l-24 0l-8.9 -6l-18.8 -8.3l-3.4 -47.5l-30.9 -17.7l-7 -21.8l-53.3 -37.4l-7.6 -43.6l-21 -44.1l-10.5 -3.4l-11 16.1l-20.3 6.7l-10.6 18.4l4.2 24.5l-43.5 14.1l-33.8 -28.6l-25.2 -3l-21 -24.7l-17.2 -1.7l-4.7 10.9l8.1 23.5l-19.7 58.6l-28.3 61.4l-18 22.1l-23.8 59.5l0.5 22.7l-16.3 115.9l-46.7 48.7l-3.7 75.8z" />
  </g>
  <g data-id="039">
    <path d="m2386.2 1641.9l0 0l1.6 149.7l27.5 16.1l19.1 24.1l5.6 21.8l34.6 -17.7l47.9 11.5l21.6 -9.4l48.2 -38.3l45.9 35.8l14.1 7.6l37 -11.4l7.9 -14.1l-1.8 -13.1l-37.5 -13l-26.7 -6.5l-13.3 -23.6l2.8 -20.8l15.2 -18.1l43.5 -15.1l9 -10.6l8.1 -33.9l-8 -30.1l-19.8 -25.3l-41.2 -86.1l-1.9 -11.4l19.5 -54.5l1.6 -32.5l-12.5 -15.3l-7.4 -33.3l15.2 -29l36.5 -34.3l11.7 -24.4l10.5 -52.4l-37.9 -1l-28.4 7.6l-1.5 -41l-25.5 -14.4l-37.6 10.3l-108.1 -4.5l-1.5 41.4l-13 295.3l-60.7 113.9z" />
  </g>
  <g data-id="041">
    <path d="m4906.4 848.9l0 0l-4.3 22.8l18.5 17.9l-7 19.6l20.4 17.7l-5.7 32.3l16.4 14.6l13.5 53.5l20.6 11.7l93.4 104.9l31.1 30.9l4.7 25.5l10.7 -8.7l102 3.9l41.3 -10l80.4 26.7l32.6 4.8l24.7 -27.7l-42.5 -2.9l36.8 -46.1l-8.8 -11l-26.8 8.4l19 -30.4l-13 -94.8l37.6 -50l-16.4 -12.2l-10.2 3.1l-17.1 -24.2l-21.4 -49.9l-41.4 -24.5l-28.3 6.5l-6.8 13.5l-16.3 -3l-10.2 -11.8l7.1 -23.8l-20.9 -11.4l-22.5 -40.9l-24.5 12.8l-11.1 -8.9l-29.7 50.1l-35 -15.9l-3 -16.2l-15.2 -0.9l-1.3 27.7l-30.7 -16.5l-12.1 10.1l-12.5 -12.3l-30.9 33.6l-30.2 -4.2l-1.3 9.4l-33.8 -8.3l-19.6 4.6z" />
  </g>
  <g data-id="043">
    <path d="m3166.8 717.7l0 0l16.9 57.3l8.9 62.1l-0.9 68l-8.7 43.4l21.2 33.1l51.8 13.1l51 0.2l165.8 21.9l25.4 9.9l6.5 -4.5l80.8 7.7l-8.9 -15.8l16.8 -13.8l17.1 -99.5l10.9 -30.2l0.4 -55.2l8.1 -64.6l-5.8 -16l24.2 -15.6l-11.2 -21l-32.7 -28.9l11.2 -23.6l15.4 -10.4l-10.5 -17.4l-14 8l-8.3 -9.9l13.3 -15.5l29.3 -16.9l3.9 -48.4l-28 -12.6l-45.5 -2.5l-19.2 -21.9l-10.5 11.2l-27.7 3.7l-23.1 -1.7l-19.2 13.6l-242.9 -31.9l-11.7 122.9l-49.8 101.6z" />
  </g>
  <g data-id="045">
    <path d="m666.3 970.9l0 0l2.2 5.3l3.2 4.7l10.7 10.8l0.4 1.4l-1.3 14.8l0.3 5.3l1 3.8l4.9 7.5l5 4.6l12 8.2l14.9 9.1l11.9 10.2l6.4 6.8l17.3 14.2l4.5 6.2l2.2 5.2l4.2 13.9l2.2 5.2l15.6 -28.2l26.7 6l24.6 -12.2l20.5 4l12.5 -16.2l49.8 12.8l28.8 -8.6l-0.8 -19.3l96.9 1.6l10.1 7.5l16.3 29.5l34.9 26l12.7 30.7l72.3 -7.8l15 -38.7l19.8 -5.4l51.7 -65.3l19 -52.3l-20.1 -17.2l49 -20.5l10.8 -255l-379.2 -11.4l-6.1 35.9l-162.9 3.1l6.5 3.2l6.4 4.5l13 12.6l7.1 9.5l7.5 13l2.5 7.6l0.7 8.6l-0.6 12.1l-1.1 8.5l-1.1 3.6l-5.7 7.7l-3.5 3.3l-15.2 8.1l-11.5 8.1l-3.7 1.8l-17 4.6l-17 6.4l-10.3 4.8l-6.8 5.7l-7.3 10.3l-1.4 3.1l-2.2 14.5l-2.9 29.4l-3.2 25.2l-1.5 6.9l-4.5 12.5l-12.9 17.8l-2.4 4.3l-1.4 5.8l-30.2 0.5z" />
  </g>
  <g data-id="047">
    <path d="m777.1 2110.4l0 0l-8 285.8l91.2 0.4l62.2 0.3l20.1 0.6l7.9 0.5l60 0.3l33.7 -0.2l61.2 -0.3l156.1 -0.9l22.1 0.3l0.7 -24.4l15.8 -544.3l-294 -5.6l-7.9 -1.7l-33.1 -1.1l-76.6 -2.5l-67 14.5l-35 16.9l-4.4 9.6l-5.8 139.7l-0.1 95l0.9 16.9z" />
  </g>
  <g data-id="049">
    <path d="m5989 502.2l0 0l-0.6 34.1l45.9 155.2l-42.8 73.6l22.4 8.8l21.4 8.2l-1.8 -5.4l30.7 -24.2l31.3 -24.3l28.5 24.2l11.2 -10l28.9 3.8l12.9 14.3l25.2 -10l4.6 12.3l29.3 -14.3l9.2 -23.4l-12.4 -19.6l-4.3 -31.4l35 -44.2l9.2 -65.7l23.3 -12.3l14.7 9.6l23.9 -17.9l8.4 8.8l19.8 -5l13.8 -41.4l12.8 -11.3l14.7 7.4l25.8 -13.5l-6.7 -18.8l16 0.6l7.9 -36.7l27.7 7.8l17.2 -24.6l30.9 -10.3l-38.6 -57.7l-26.1 -91l-19.3 -37.1l-60.3 -0.4l-39.2 -36.1l-51.1 -28.5l-43.3 -12.1l-50 -4.3l-38 9.9l-26.7 12.2l-12.9 -11.6l-2.9 12.1l-29.9 16.4l-5.9 -6.7l-11.1 51l-12.8 -6.3l-27.5 39.6l-16.6 129.3l-20.3 4l1.8 10.5l-3.3 102.4z" />
  </g>
  <g data-id="051">
    <path d="m4609.7 2182.8l0 0l-19.2 0.2l23.7 17.8l-6.2 9.7l-0 22.6l-1.8 129.7l1.1 39.3l8.6 0.1l288.2 2.1l228.2 1.7l0.5 -99l-0.3 -87.5l0.5 -140.7l-11.2 -4.4l-40.3 -74.7l-6.5 -18.4l-73 -39.6l-29.5 3.3l-24.6 -27.5l-11.3 -1.1l-3.5 -12.1l-140.2 -26.7l-41.6 25.6l-4.1 15.6l-17.6 -19l-22.9 8.1l-20.2 -4.9l-13.1 15.7l18.4 13.4l-11.8 40l-36.3 51.1l6.9 25.3l-23.6 9.2l9.1 39.5l-20.9 16.6l-0.1 32.8l-9.3 15.5l3.7 20.7z" />
  </g>
  <g data-id="053">
    <path d="m1274.3 954.9l0 0l20.1 17.2l5.1 17.2l20 15.7l36 12.6l13 66.8l-6.4 29.4l16.2 20.8l7.3 33.3l28.9 2l32.8 15.9l39.8 -6.7l3 21l35.9 17l25.1 1.3l31.5 17.3l26.5 24.8l241.7 8.9l0.9 -7.1l12.2 -293.2l3.1 -87l-65.9 -42.3l-2 -18.6l-17.7 -9.9l-37.4 -2.1l-48 -13.8l-8 -16.8l-17.9 -3.4l-36.1 -56l-44.5 -25.4l-30.9 -40.4l-1.6 30.3l-223 -4.4l-10.8 255l-49 20.5z" />
  </g>
  <g data-id="055">
    <path d="m3553.2 1976.4l0 0l19.3 8.6l2.3 83.5l-9.6 76.5l26.9 15.2l-18 55.5l-12.4 105l0.8 69.9l8.5 0.3l6.8 0.2l101.7 2.4l128.7 3l12.9 0.1l29.5 0.9l2.1 -0.1l2.7 0.1l3.6 0.2l121.2 3.4l8.2 0l6.1 0l3.8 0.1l11.7 0.1l0.1 0l9.2 -383.8l-0.2 -42l-19.5 -38.9l-16.3 31l-31.1 -10.6l-1.8 -12.4l-21.3 1.6l4.8 -33.1l-20.6 -20.8l-8.6 -32.5l2.1 -38.7l-40.5 -20.6l-27.8 -3.9l-6.9 16.4l-30.7 -10.8l-17.6 -22.5l-30.3 0.6l-14.8 -12.9l-26.2 -2.1l-7.8 -11l-32.2 -9.1l-24 12.9l-11.9 16.4l-53.5 3.1l-9.7 73.5l-0.1 121l-19.6 4.3z" />
  </g>
  <g data-id="057">
    <path d="m7592.4 736.7l0 0l8.8 31.7l29.7 47l14.1 -3.4l22.7 44.6l9.3 -7.1l-17.4 -44.1l0.3 -12.3l26.2 -0.2l-3.5 27.8l15.3 12.3l14.3 -10.7l1.4 -26.4l-12.9 -8l2 -22.6l38.1 8.7l7.5 -37l10.5 13.2l6.6 -16.1l21.4 -0.4l-3.3 -33.7l9.5 13.7l20.8 -2.1l14.3 27.9l15.2 -22.3l28.7 16.4l8.3 -0.7l18.9 -10.9l1.4 -20.3l19.4 -2l-0.5 -39.6l26.4 9.3l12.1 -11.3l-4.4 -24.2l37.2 -40.5l29.4 -4.4l-0.9 -16.2l34.1 -7.3l6 -18l26.8 40.8l12.2 -14.2l5 22.1l13.7 -2.6l-0.4 -16.6l13.3 2.6l-0.2 -15.5l13.8 -5.7l-21.2 -43l10.6 -37.5l-10.2 -35.7l-18 -12.3l9.6 -22.8l-27.8 9.2l-4.5 -16.2l-37.4 -12.6l-12.8 -16.4l-43.1 16.7l3.1 -7.2l-31.5 -10.8l-3.4 13.4l-14.6 -8.4l-13.5 21.7l-21.5 18.5l12.5 21.4l-19.4 7.3l-19.2 -14.9l-16.6 1l0.8 23.9l-11.8 -14.8l-30 27.4l-21.2 -21.4l-20.9 4.7l-29.1 -3.6l-3.6 14.8l-20.2 16.6l-53.4 18.8l-7.3 -17.1l-25 69.3l-0.5 24.2l-15.2 8.4l-2.1 32.9l10.4 -6l2.3 24.2l-7.7 42.8l-19.3 11.2l-13.3 25.3l15.8 11.9l-20.8 13.2z" />
  </g>
  <g data-id="059">
    <path d="m8246.4 713.3l0 0l-7.4 34l23.1 17.3l14.8 22.6l27.3 10.6l-2.6 13.9l18 -12.7l33.4 37.9l20.9 5l4 18.6l51.8 54.4l57.8 56.7l67.8 78.5l1.7 0.7l4.9 -0.8l10.1 -5.7l11.3 -5l4 1l1.6 2l9.9 4.5l9.4 -2.4l3.1 1.9l9.9 8.6l1.5 2.2l7.8 7.4l3.6 2.9l1.4 0.1l3.3 4.6l4 10.2l0.8 1l6.6 -3.1l5.8 -4l2.3 -0.6l4.7 0.1l2.4 -2.6l0.1 -1.6l-3.5 -7.4l-0.5 -2.3l0.4 -1.5l6.3 -8.9l15 -11.4l2.6 -10.1l-0.2 -4.7l0.9 -2l1.7 -1.5l6.2 -2.8l3.3 -7.2l-1.8 -2.7l-2.5 -1.3l-2 0.6l-1.7 -0.3l-4.3 -4.6l0.3 -13.2l0 -1.2l6.8 -6.5l0.9 -6.4l1.5 -2.6l1.5 -1.8l12.3 -4.1l7.2 -1.7l5.4 -0.1l5.1 -2.4l21 -16.6l4.6 -1.3l3.2 0.4l10.5 -6.6l0.7 -2.1l-0.2 -3.8l0.5 -2.4l8.9 -2.1l5 -3.3l2.4 -2.9l14.1 -6l3.8 -4.9l0.9 -4.3l1.4 -1.6l12.2 -6.1l5.3 -3.6l6.6 -3l6.3 -2.3l2.8 0.6l5.4 -2.3l7.6 -7.1l7.4 -4.3l5.7 0.1l4.5 5.1l11.2 8.6l1.6 2.7l-0.9 4.3l-0.1 6l5.3 0.9l4.5 2.1l4 5.6l3.8 1.7l29.6 -55l-20.6 -25.5l-26.3 -32.3l-28.9 -33.2l-5.6 -6.2l20.9 -379.6l-2.5 -10.4l-81.7 12l-28.1 8.5l-28.4 26.8l-32.6 -3.5l-40.7 34.9l-28.4 -9.3l-52.5 24.4l-35.1 35.4l-25 -8.7l-35.1 26.4l-28 40.1l-34.2 26.8l-11.8 -10l-48.4 49.8l-10 -0.5l-34.2 30.8l-34.9 47.7l-27.6 9.3z" />
  </g>
  <g data-id="061">
    <path d="m5075 1981.4l0 0l6.5 18.4l40.3 74.7l32.2 -25.1l26.2 -1.6l56.5 33.2l38.5 4.9l53.7 -33.9l-18.3 -70.7l21.9 4.5l40.3 -27.6l26 2.7l85.9 -22.1l18.7 -31.4l41.8 -22.9l19.6 -36.6l4.2 -32.3l-31.5 -1.8l0.7 -21.7l-27.2 -12.1l-6.4 -42.4l5.4 -36.4l-38 -26.5l-43.6 -36.7l-110.7 4.3l-58.2 6.4l-43.4 8.9l-33.5 18.9l-14.5 -15.2l-50.8 -12.5l-9.8 10l10.7 13.8l-10.8 25.3l-4.2 64.5l5.5 72.2l-2.9 16.2l20.2 1.6l-13.4 44.8l-27.5 26l-2.4 46.9l-7.7 11.5z" />
  </g>
  <g data-id="063">
    <path d="m7900.4 701.9l0 0l-1.4 20.3l9.7 27.7l37.9 1.1l61.1 1.1l91.5 22.3l22.1 10.6l37.5 42.2l8.5 23.1l8.9 -10.6l-21.8 -45.3l30.1 -4.7l-6 -30.9l8.9 -1.6l25.3 30.4l23.3 2.2l-11.8 -70.7l22.2 -5.9l27.6 -9.3l34.9 -47.7l34.2 -30.8l-23.7 -34l-7.6 -23.4l-28.7 -19.7l-29.5 -52.7l-3.1 -17.8l-22.9 18.1l1.8 29.5l-18.4 -14.5l-4.2 21.8l-17.7 19.3l-27.7 0l7.3 16.6l-25.4 -10.3l-13.8 5.7l0.2 15.5l-13.3 -2.6l0.4 16.6l-13.7 2.6l-5 -22.1l-12.2 14.2l-26.8 -40.8l-6 18l-34.1 7.3l0.9 16.2l-29.4 4.4l-37.2 40.5l4.4 24.2l-12.1 11.3l-26.4 -9.3l0.5 39.6l-19.4 2z" />
  </g>
  <g data-id="065">
    <path d="m5582.3 2413.5l0 0l8.5 0.1l94.4 -0l24.3 -0.5l42.1 -0.9l22.1 -0.5l3.2 -0.1l0 -0l4.6 0l8.1 -0.2l19.6 -0.5l2 0l12.5 -0.1l11.7 -0.1l22.4 -0.4l6 0l9.8 0l1.5 -0.1l3.1 -0.1l1.5 0l35.4 -0.5l6.2 -0.1l156.3 -1.1l0.2 0l75.2 -1.1l3.3 -0l18.3 -38.8l-37.8 -27.8l-5 -24.2l4.3 -9.6l-5.2 -24.9l-10.3 -5l-0.7 -17.8l-21 -61.4l22 -53.8l-1.3 -13.3l34.5 -59.5l14.4 -48.3l27.7 -31.5l-4.6 -7.7l-20.5 -32l-18.2 -74.2l-32.9 -29l-26.5 5.3l17.3 -42.2l-58.6 -39l-40.5 11.9l-10.9 -40.4l-27.3 -2.4l-15.7 18.5l-22.5 -14.2l-23.8 53.3l-42.7 90.2l-23.2 49.8l-162.9 242.9l1.5 14.2l-7 23.5l34.5 46.1l-23.4 60.7l-31.6 6.3l-21 47.3l-53.5 33.3z" />
  </g>
  <g data-id="067">
    <path d="m7893.2 116.3l0 0l45.6 34.8l39.6 54.9l33.4 108.7l-2.5 36.3l-17.6 29.7l-3.1 7.2l43.1 -16.7l12.8 16.4l37.4 12.6l4.5 16.2l27.8 -9.2l66.7 -22.2l33.4 -20.2l-15.1 -24.8l51.8 -28.7l-5.9 -13.9l37.8 -37.3l15.5 -23.8l92.9 -54.6l34.3 -17l23.8 2.6l7.2 25l26.7 -15.3l11.8 17.5l76.7 -43.3l61.9 -29.6l-66.5 0.4l-112.1 -0.4l-48.6 -0.2l-1.3 -0.1l-254.6 0.1l-1.1 -0.1l-0.5 -0.1l-12.5 0.1l-17.5 -6.2l-113.8 1.2l-112.2 0.1z" />
  </g>
  <g data-id="069">
    <path d="m1284.3 2372.9l0 0l-0.7 24.4l47.9 0.8l20.4 -0.5l0.2 -0l129.8 -0.9l10.9 0l106.1 0.1l44.2 -1.4l41.5 1.1l32.3 -0.1l42.1 -0.1l-0.2 -94.8l0.1 -88.3l5.7 -173l-12.7 -115.4l-56.9 -78.2l0.5 -61.4l-59.5 -1.2l-214.4 -3.9l-119.7 -2l-1.6 50.5l-15.8 544.3z" />
  </g>
  <g data-id="071">
    <path d="m2242.8 1978.8l0 0l-15.3 417l19.6 0l121.7 0.2l4.9 -0.1l62.1 -0.1l-0.9 -3l-1.3 -10.8l-1.1 -3.7l234.2 2.9l17.4 0.1l3.8 -409.1l-18.2 -9.3l-23.3 3.8l1.3 -49.8l13.4 -22.9l-22.8 -26.4l-0.1 -32.2l-45.9 -35.8l-48.2 38.3l-21.6 9.4l-47.9 -11.5l-34.6 17.7l-5.6 -21.8l-19.1 -24.1l-27.5 -16.1l-5.2 9.9l-132.3 -3.8l10.5 17.3l-12.5 36.4l-3.5 92.4l-8.1 -0l-2.7 16.6l8.9 18.5z" />
  </g>
  <g data-id="073">
    <path d="m8114.3 407.2l0 0l-9.6 22.8l18 12.3l10.2 35.7l-10.6 37.5l21.2 43l25.4 10.3l-7.3 -16.6l27.7 0l17.7 -19.3l4.2 -21.8l18.4 14.5l-1.8 -29.5l22.9 -18.1l3.1 17.8l29.5 52.7l28.7 19.7l7.6 23.4l23.7 34l10 0.5l48.4 -49.8l11.8 10l34.2 -26.8l28 -40.1l35.1 -26.4l25 8.7l35.1 -35.4l52.5 -24.4l28.4 9.3l40.7 -34.9l32.6 3.5l28.4 -26.8l28.1 -8.5l30.5 -18.6l-5.2 -12.1l-24.9 -34l87.2 -57.3l-1 -26.1l20.2 -8.2l-2.1 -37.7l-5.1 -49l18.9 3.3l-10.6 -24.2l-81.6 0.6l-18.4 0l-155.4 -0.1l-61.9 29.6l-76.7 43.3l-11.8 -17.5l-26.7 15.3l-7.2 -25l-23.8 -2.6l-34.3 17l-92.9 54.6l-15.5 23.8l-37.8 37.3l5.9 13.9l-51.8 28.7l15.1 24.8l-33.4 20.2l-66.7 22.2z" />
  </g>
  <g data-id="075">
    <path d="m955.3 1549.6l0 0l-22.4 18.9l28.5 28.2l-6.7 19.6l15.4 0.5l-5 203.4l33.1 1.1l7.9 1.7l294 5.6l1.6 -50.5l119.7 2l6.2 -199.5l4.5 -171.2l-11.6 -6.6l-43.3 -2.8l-29.1 -29.2l-34 -22.6l-37.8 -16.3l-77.1 -11l-17.3 -24.3l-26.9 -1.3l-32.4 -26.7l-14.9 -29.1l-6.4 -7.9l-52.8 -7.1l-4.2 19.7l-15.8 14l-23.7 47.1l-0.3 26l14.4 0.4l-5.7 24.9l-23.4 67.3l-15.7 -0.2l-4.2 124.2l-14.7 1.8z" />
  </g>
  <g data-id="077">
    <path d="m1970 1504l0 0l-11.6 53.9l16.2 -5.2l39.3 6.6l24 54l17.5 24.4l28 28.1l41.8 22.9l55.2 9.7l7.7 9.5l42.3 -14.9l16 0.1l3.7 104.6l132.3 3.8l5.2 -9.9l-1.6 -149.7l60.7 -113.9l13 -295.3l-450 -11.5l-2.9 13.7l-14.1 -0l-26.6 36.8l-4.5 203.2l8.3 28.9z" />
  </g>
  <g data-id="079">
    <path d="m2070.7 254l0 0l-16.1 500.6l48.1 1.5l17.8 1.5l301.9 5.6l-1 36.7l41.6 -39.1l4.4 -28.3l38.7 -49l3.9 -24.3l25.9 -6.5l18.3 -31.2l-3.3 -13.4l20.1 -3.9l-4.6 -15.4l-4.3 -38.6l-13.7 -23l12 -42.1l-4.2 -27.2l74 -0.8l43.9 1.1l3.2 -1.6l-52 -86.3l-29.4 -34l10.9 -39.1l-1.5 -37.1l-85.5 -2l-223.3 -2.7l-5.9 -0.1l-5.7 -0.1l-98.8 -0.3l-39 -0.5l-2.7 0.3l-23.1 -0.2l-19.1 -0.1l-0.2 -0l-26.2 -0.6l-0.4 -0.1l-4.7 0.1z" />
  </g>
  <g data-id="081">
    <path d="m2969.4 1395.6l0 0l-6.9 54.6l22.4 19.3l43.2 23.6l33.1 34.6l35.8 -9.1l4.3 -24.1l18.9 -5l23.3 -24.2l20.8 1.4l22.7 31.3l47.8 2.6l55.6 18.8l47.2 -13.8l70.8 -49.2l20.9 0.6l57.5 -53.7l39 -5.1l11.4 -28.6l13.4 -5.8l22 -179.2l15.8 -128.1l-3.3 -26.5l-80.8 -7.7l-6.5 4.5l-25.4 -9.9l-165.8 -21.9l-51 -0.2l-51.8 -13.1l2.4 33.7l-34.3 30.2l-29.3 -7.3l-28 4.8l-33.4 37.3l-75.7 25.8l-11.9 95.4l-18.7 160.1l25.7 32.2l-31.3 1.8z" />
  </g>
  <g data-id="083">
    <path d="m2689 466.5l0 0l28.7 58.9l13.3 68.8l-6.1 30.1l132.7 15.4l41.7 -17.7l46.8 4.6l31.2 8.7l38.5 18.1l40.9 30.8l88 5l8.8 20.9l13.3 7.5l49.8 -101.6l11.7 -122.9l-19.9 -2.4l-64.8 -7.8l-6.2 -37.1l-142.1 -0.8l-8.4 11.3l-38.6 24.9l-32.6 12.7l-43.1 7.7l-45.9 -1.6l-36.1 -6.9l-60.2 -27.8l-41.3 1.2z" />
  </g>
  <g data-id="085">
    <path d="m2643.2 1000.3l0 0l-2.3 20.2l10.9 27.3l44.7 13.5l45.7 -4l9.2 6.3l-2.5 43.4l-13.3 55.7l-25.9 35.7l60.5 3.7l19.8 19.2l46.7 30l9.9 -24.1l21 -4.6l8.3 -18.3l117.7 -2.8l11.9 -95.4l75.7 -25.8l33.4 -37.3l28 -4.8l29.3 7.3l34.3 -30.2l-2.4 -33.7l-21.2 -33.1l8.7 -43.4l0.9 -68l-8.9 -62.1l-16.9 -57.3l-13.3 -7.5l-8.8 -20.9l-88 -5l-40.9 -30.8l-38.5 -18.1l-31.2 -8.7l-46.8 -4.6l-41.7 17.7l-132.7 -15.4l-2.4 29.8l12.8 24.2l8.2 30.8l20.5 33l-3.9 43.9l-21.9 30.3l-25.1 47.1l-33.9 41.7l-13.5 26.6l1.8 36.3l-24.4 32.4z" />
  </g>
  <g data-id="087">
    <path d="m5152.5 559.8l0 0l9.8 9.1l11.9 38l16.4 9.2l10.6 -10l27.8 25.5l0.6 -15.6l42.3 29.4l21 -6.8l39.9 9.9l63.3 6.5l1.5 11.8l68.2 -24.5l20.3 10.4l2.2 -15.5l25.3 -12.3l-0.3 -23.1l24.6 2.7l4.9 -29.8l16.5 -3l-1.3 -32.2l-2.8 -104.3l2.5 -40.2l-10.9 -6.8l-29 -42.9l-35.6 -31.9l-4.1 -22l-13.4 5.2l-105.5 -35.1l-33.2 0.1l-9.2 -37.9l-36.8 5.2l23.3 30.6l-43.6 -2.2l-15.6 -26.1l-54 25.5l-16.3 125.8l-21.3 177.2z" />
  </g>
  <g data-id="089">
    <path d="m7619.5 838.6l0 0l16.9 50l27 7.3l-2.5 20.9l19.6 5.6l0.7 -12l55.7 38.9l94.7 72.9l19.8 35.9l36 13.2l2.6 10.3l35.3 -8.6l10.3 7.4l22.4 -13.5l31 7.1l1.9 20.8l31.8 -7.7l34.3 10.5l22.5 22.5l14.9 -8.1l24.4 -151.3l16.9 14.6l6.2 -66.9l19.2 -18.5l-15.9 -35.6l22.3 -4.1l-8.5 -23.1l-37.5 -42.2l-22.1 -10.6l-91.5 -22.3l-61.1 -1.1l-37.9 -1.1l-9.7 -27.7l-18.9 10.9l-8.3 0.7l-28.7 -16.4l-15.2 22.3l-14.3 -27.9l-20.8 2.1l-9.5 -13.7l3.3 33.7l-21.4 0.4l-6.6 16.1l-10.5 -13.2l-7.5 37l-38.1 -8.7l-2 22.6l12.9 8l-1.4 26.4l-14.3 10.7l-15.3 -12.3l3.5 -27.8l-26.2 0.2l-0.3 12.3l17.4 44.1l-9.3 7.1l-27.5 -20.1l-20.7 2z" />
  </g>
  <g data-id="091">
    <path d="m9524.4 446.3l0 0l19.4 6.6l13.4 41.6l32.8 0.6l13.8 25.8l8.9 39.1l35.8 37.7l21.3 -4.4l0 -0.1l17.2 -31.8l11.5 -21.3l12 -7.8l3.6 0.4l8.5 -2.9l9.1 -6.6l3.7 -3.3l2.1 -4.5l12.9 -15.8l6.7 -6.6l7.4 -3.9l6.1 -4.1l5 -4.2l9.3 -5.8l12.4 -2.1l11.1 -3.2l5.4 -4.4l8.6 -5.7l6.4 0.3l3.9 4.4l2 4.4l3.1 4.4l3.9 1.5l3.2 0l3.9 1.9l10.4 7.6l3.3 3.6l4.3 -0.5l2 1l3.1 1l4.1 0.7l7.6 -0.4l3.9 -0.6l5.7 -2.8l5.3 -1.6l4.5 -0.4l5.8 1.2l5.7 2.5l4.4 3.5l4.6 3l6.6 -1.5l1.7 -4.8l0.8 -4.8l-2.9 -6l-7 -4.8l-5.1 -1.5l-3.5 -3.9l-1.6 -2.4l-1.2 -5.3l-0.4 -3.4l0 -4.9l-2.3 -6.6l-5.9 -7.4l-1.9 -3.5l0.8 -4.9l1.7 -4.4l1.1 -7.3l-0.8 -3.4l-1.2 -2.4l-2.7 -3.5l-4.7 -3.8l-2 -6.3l0 -7.3l1.6 -5.8l4.6 -3.7l5.1 -3l10.6 -10.2l3.2 -8.9l1.2 -6.3l2 -4.9l0 -2.9l-0.4 -3.9l0.4 -4.4l1.2 -3.9l-0.1 -5.6l-0.9 -3.4l0.2 -5.5l7.7 -7.2l8.3 -2.9l2.1 0.4l1.4 -1.1l3.1 -4.6l0.9 -7.7l-0.3 -1.7l-1.7 -1.5l-1.2 -13.3l1.6 -9.8l-1.1 -2.6l-0.5 -3.9l-1.2 -1.6l-1.9 -1.1l-0.4 -3.5l0.4 -0.6l2.3 -4.6l0.8 -1.2l-0.6 -3.8l0.1 -1.3l-2 -4.4l-0.2 -2l-0.6 -1.8l-0.5 -1.5l-2.3 -7.4l-5.8 -8.3l-0.8 -8.6l0.3 -5.9l9.2 -0.9l0 -4.1l2.8 -6.7l4.3 -6.8l4.4 -4.4l1.1 -5.4l-1.2 -5.4l-2.3 -4.4l-0.4 -4.4l2.6 -4.3l4.4 1.1l7.5 -1l3.3 -3l-0.2 -5.3l-2.1 -6.5l-1.3 -9.5l3 -3.7l35.4 -34.2l-103.9 -0.7l-103.7 -2.6l-51.6 17.5l-4.2 19.8l-61.2 29.2l-4.3 22.6l-38.3 29.7l-21.8 33.3l-0.7 10.6l40 41l-18.6 13.5l-76.8 105.5l-30.5 31.5z" />
  </g>
  <g data-id="093">
    <path d="m6990.3 1057.4l0 0l-21.4 -0.8l23.7 30.8l-22.2 12.4l9.5 18.8l5.1 4.5l21 24.4l52.4 59.8l31.3 35.9l2.2 6.2l7.6 14.1l17.7 -0.8l7.7 -18.6l-5.7 -13.8l9.3 -23.6l-12.8 -20.6l26.2 7.4l-1.9 18.3l24.8 -17.9l27.9 -9.6l12.8 27.3l14.9 5.8l5.8 -33.8l16.5 -3.6l12.1 17.4l17.7 -2.9l-1.8 -30.8l-19.6 -15.3l49 -1.2l12.1 19.2l34.3 -18.1l44 42l64.1 7.5l45.9 -48.8l2.3 -5.4l18.5 -11.1l30.8 -34.7l33.6 -7.8l47 -32.5l16.4 4.2l-3.4 -18.7l22.2 -16.6l18.9 -35.3l-12.7 -7.3l-13.1 -67l2.5 -20.9l-27 -7.3l-16.9 -50l20.7 -2l27.5 20.1l-22.7 -44.6l-14.1 3.4l-29.7 -47l-8.8 -31.7l-62.7 -1.9l-135 -4.3l-1.4 11.5l-14.3 -12l-6 -0.1l-21.9 -24.3l-39.9 26.5l-35.7 45.7l-9.3 0.7l-16.6 27l-72.8 61.8l39.5 52.7l-13.3 10.6l-17.3 17.4l-18.9 7.1l-55.4 35.4l-52.7 -8.7l-4.3 22.6l-16.8 2l-9.2 42.8l-26.1 -13.2l9.5 33.2l-21.4 -11.8z" />
  </g>
  <g data-id="095">
    <path d="m698.3 628.9l0 0l-0.3 2.5l0.3 2.2l0.9 1.6l5.5 6.6l8.1 8.4l8.7 7.5l6.4 5.5l17.8 13.4l10.7 7.1l11.6 10.6l9.1 7.4l8.6 5.1l162.9 -3.1l6.1 -35.9l-3.3 -11.8l37.1 -10.2l10.5 -10.7l18 -34.1l14.8 -47.2l13.8 -30.6l4.3 -25.9l-3.8 -29l26.8 -36l23.7 -46.1l-10.5 -35.9l10.6 -31.9l22.7 -28l-6.5 -39.1l-12.2 1.5l-27.1 2.6l-2 0.5l-10.7 1.4l-14.9 -0.1l-15.4 0.2l-2.9 7.4l-3.7 6.5l-7.4 10.8l-8.6 10.7l-13.5 14.4l-5.3 4.5l-8.5 4.5l-4.3 1.4l-8.7 0.3l-5.6 -1.2l-11.2 -5.4l-5.1 -5.6l-2.9 -6.6l-1 -4.5l-0.2 -3.9l0.9 -3.9l7.8 -23.3l1.5 -3.6l-8.2 -0.4l-6.3 -0.2l-47.6 -0.1l5.4 9.3l13.7 14.5l2.3 3.8l1.3 4.7l-0.3 12.1l-1.5 7.3l-2.8 7.7l-2 3.7l-2.4 3.5l-15.7 14.3l-2.9 4l-1.9 5.5l-0.5 6l0.3 5.2l1.2 4.9l2.2 5.1l19.7 28.2l13.1 22.3l4.1 9.4l0.9 4.7l-0.2 2.1l-4 19.7l-6.7 16.2l-4.3 5.5l-5 4.5l-5.5 3.5l-7.2 2.5l-8 1l-17.8 -1.3l-24.5 -6.6l-21.8 -0.9l-5.9 1.1l-5.8 2.6l-5.9 6.2l-4.6 9.4l-0.5 9.4l1.2 3.3l8.6 16.7l25.4 17.6l6.3 5l6.7 7.2l27.9 15.1l5.9 -1.4l3 -2.4l2.1 -0l6.1 4.4l2.1 3l2.5 6.8l1.2 12.5l-0.3 13.2l-5.2 5.4l-2.8 1.3l-3.6 0.6l-4.9 -1l-5.3 -3.1l-5.1 -1l-4.9 0.2l-3.2 1.2l-10.3 8.9l-4.2 2.3l-11.3 4l-17.4 2l-4.8 -0.3l-5.4 -1.3l-15.3 -5.8l-14.3 -6.8l-6.2 -2l-11.9 -1.7l-29.5 3.4l-9.4 -1.8l-5.9 -3.7l-4.5 -1l-3.8 3.1l-1.4 3.2l-4.3 7.1l-2.1 5z" />
  </g>
  <g data-id="097">
    <path d="m405.9 1359.6l0 0l-0.2 5.5l2.2 17.3l0.4 23l1 6.9l2.8 6l3.6 5.7l8.6 10.4l6.1 13.4l7.3 8.1l9.6 6.7l8.5 3.6l10.7 2.3l8.3 0.3l9.7 -2.1l4.1 -1.7l2.4 -2.1l2.4 -3.3l5 -10.5l1.6 -1.9l5.9 -3.3l8.4 -2.7l4 0.5l2.7 1.4l6.3 8.6l2.7 8l0.4 10.3l-1.1 8.4l-2.4 8.5l-3.2 5.4l-8.4 5.2l-14.6 5.9l-20.5 15.8l-3.1 0.9l-3.2 -0.3l-7.2 -1.5l-5.4 -2l-1.7 0.7l-8.6 6.8l-14.9 6.2l-14.9 8.9l-6.6 5.8l-3.5 4.6l-3 5.3l-1.3 4.6l-0 2.5l1.4 5.8l2.9 7.6l8.4 17.7l2.5 4.6l3.9 5.3l14.2 7.1l5.7 1.4l7.8 0.4l3.7 0.8l3.9 3.1l1 4.9l-1.1 4.2l0.1 3.3l1.8 0.8l17.1 -17l17.9 -51.6l7.8 7.1l39.7 -28.2l16.5 -3.4l-3.5 -15.1l25.4 -11.6l13 -25l12.9 7.6l26.4 -11.1l1.1 -11.1l33.8 4.7l1.6 15l40 -11l4.4 11.3l20 -3.4l6.6 10.5l17.6 -11.5l-0.4 -12.1l23 4.3l8.8 -10.4l9 21.9l32.1 16.3l5.6 10.6l26 6.3l10.2 10.6l22.6 4.8l23.1 28.5l11.5 2.7l22.4 -18.9l14.7 -1.8l4.2 -124.2l15.7 0.2l23.4 -67.3l5.7 -24.9l-14.4 -0.4l0.3 -26l23.7 -47.1l15.8 -14l4.2 -19.7l52.8 7.1l-0.9 -28.8l19.9 -34.8l-3.8 -26.6l-12.7 -30.7l-34.9 -26l-16.3 -29.5l-10.1 -7.5l-96.9 -1.6l0.8 19.3l-28.8 8.6l-49.8 -12.8l-12.5 16.2l-20.5 -4l-24.6 12.2l-26.7 -6l-15.6 28.2l-2.8 13.4l-3.9 5.8l-5.5 5.7l-2.7 1.7l-9.1 3.5l-4.5 0l-8.6 -3.5l-5.5 -6.1l-7.3 -9.9l-30.9 -13.3l-30.4 -0.7l-17.4 12.4l-10.8 9.6l-3.5 6.6l-3.4 9.9l-1.3 5l-0.8 6.5l0.3 6.1l1 3.3l3.5 5l5.9 4.6l17.2 7.6l23 7.6l23.4 12.4l5.7 4.5l1.7 2.2l1.7 4.5l0.4 3.9l-0.8 5.7l-2.5 5.6l-2.6 2.9l-16 9.5l-4.1 3.1l-12.3 4.6l-10.4 0.5l-17.1 -6.5l-8.7 -1.1l-0 2.4l-18.9 6.3l-16.8 17.5l-3.5 6.1l2.6 8.3l-0.2 3.6l-2.3 6.7l-11.6 15.7l-4.2 4.6l-1.8 1.7l-7.8 4.6l-4.3 1.4l-9.2 1.2l-15.5 -1.2l-13.1 8l-7.1 3.5l-10.4 8.9l-5.1 -0.1l-7.2 -5.1l-5.3 -7.2l-20.1 -12.8l-5.1 -0.5l-3.6 3l-2.7 3.4l-40.2 23.4l-4.3 3.3l-2.6 3.9l-2.8 8.1z" />
  </g>
  <g data-id="099">
    <path d="m3114.7 2362.8l0 0l6.6 21.7l195.2 1.1l9.8 0.1l8.2 0.2l4.8 0l30.1 0.4l11.8 0.4l25.2 0.4l11.6 0.2l57.8 1.1l33.7 0.7l45.6 1.3l7.5 0.2l-0.8 -69.9l12.4 -105l18 -55.5l-26.9 -15.2l9.6 -76.5l-2.3 -83.5l-19.3 -8.6l19.6 -4.3l0.1 -121l9.7 -73.5l-22.7 -10.2l-1.9 15.7l-77.7 -18.1l0.8 -3.6l-37.4 -4.3l1.3 -12.4l-141.6 -2l-0.4 52.7l-34.2 -2.9l0.1 11.2l-36.1 0.1l-8.3 23.4l-67.6 -0.4l-3.9 245.2l-0.2 53.9l-5.2 61.9l-6.3 119.5l18.6 13.2l-6.8 20l-31.3 -1.4l-7.1 23.8z" />
  </g>
  <g data-id="101">
    <path d="m3000.3 1675.4l0 0l-7.6 31.1l36.6 14.9l46.1 0.1l-0.7 43.5l45.3 8.4l11.7 34.6l25.2 18.8l67.6 0.4l8.3 -23.4l36.1 -0.1l-0.1 -11.2l34.2 2.9l0.4 -52.7l141.6 2l-1.3 12.4l37.4 4.3l22.8 -54.9l-9.9 -19.1l16.1 -12.8l-15 1.4l-4.1 -52.9l-13 -8.9l-23.7 -1l-5.8 -28.1l-34.1 -22.3l-0.7 -47.2l23.2 -23.8l-7.5 -34.7l-20.9 -0.6l-70.8 49.2l-47.2 13.8l-55.6 -18.8l-47.8 -2.6l-22.7 -31.3l-20.8 -1.4l-23.3 24.2l-18.9 5l-4.3 24.1l-35.8 9.1l11.1 27.5l-2.9 30.2l-40.2 29.4l-5.6 60.6l-23.5 0.1z" />
  </g>
  <g data-id="103">
    <path d="m4019.2 2017.4l0 0l-9.2 383.8l18.1 0l42.7 -0.2l0 -0l122.4 -0.2l1 0l2.7 0.1l4 0l13 0.3l21 0.1l0.2 0l47.5 0.7l12.8 0.1l20.4 0.3l0.1 0l17.7 0.1l31.6 0.4l12.2 -0l57.9 -0l39.1 -0.6l42.4 -0.8l90.5 0.7l-1.1 -39.3l1.8 -129.7l0 -22.6l-30.7 -3.6l-7.5 -24l-14.6 32.9l-7.7 -29.7l2.4 -38.6l-27.4 -90.1l-18.8 -3.7l-6.6 14l-11.2 -18.4l12.9 -6l2 -20l-17.4 -0l-12.7 -22.2l-27.7 -13.3l-0.2 -11.6l-62.4 -25.2l-13.8 -1.4l-14.1 -33.8l16.4 -27.3l-67.3 -23l-18.3 8.5l-3.6 53.7l-40.1 8.5l-70 36.4l-44.7 48.8l-11.8 11.2l-94 -15.3z" />
  </g>
  <g data-id="105">
    <path d="m6609.2 1477.9l0 0l0.2 16.1l30.5 4.9l11.9 -16.6l25.1 24.3l24.4 6.4l-10.4 -34.6l10.9 -31l10 14.8l44.3 -5.2l-0 -9.5l38.9 -8.5l-1.4 15.1l21.1 -6.5l9.7 36.1l27.3 -2.1l24.4 -18l-5 -15.3l35.9 0.2l41.2 14.3l-7.8 16.7l18.1 10.8l35.8 -2l-4.2 23.3l38.1 7.5l33.3 -4.1l5 10.9l42.3 -24.1l19.5 -30.6l1.8 -16.1l-23.8 -19.1l-10 -34.6l-11.9 -20.7l5.6 -41l18.5 -22.7l-31.8 -15.5l7.8 -51.2l7.5 -1l-2.2 -6.2l-31.3 -35.9l-52.4 -59.8l-21 -24.4l-5.1 -4.5l-22.4 -7.7l1.3 38.3l-55.7 -24.8l-10.3 60.7l-10.1 25.5l-27.6 9.3l-9.4 12l-10.3 69.9l-32.1 -11.5l-11.1 33l-12 7l-14 -15.7l-53 61.2l-18.5 -0.1l-24.7 46.1l1.1 19.3l-25.8 16.4l-25.7 -0.1l-10.2 20.5z" />
  </g>
  <g data-id="107">
    <path d="m6291 1895.2l0 0l10.5 5.1l30.3 29.4l48.8 17.2l37.7 37l30.9 2.7l-30.9 13.6l6.3 16.5l16.2 13.4l16.5 -10l21.1 12.2l-6.7 17.1l21 -7.8l20.8 -30.3l174.6 2.2l23.8 -26.9l48.6 -47.5l60.5 -16.1l-9.6 -19.7l0.1 -76.6l-19.7 -5l-0.4 -23.5l-11.4 -6.1l2.9 -36.7l-21.1 -15.9l10.4 -4.1l-71 -164.5l-20.6 -10.5l-3.7 -54l-25.1 -24.3l-11.9 16.6l-30.5 -4.9l-0.2 -16.1l-40.9 -0.3l-25.4 26.2l-28.5 52.4l-26.9 16.6l-2.8 22.4l-37.4 57.1l-26 15.3l-35.1 64l-32.3 24.2l-44.5 90.9l-18.5 48.6z" />
  </g>
  <g data-id="109">
    <path d="m1758.6 2213.2l0 0l-0.1 88.3l0.2 94.8l314.4 -0.9l51.2 -0.2l0.1 -0l103.1 0.6l15.3 -417l-8.9 -18.5l2.7 -16.6l8.1 0l3.5 -92.4l-143.9 -6l-97.6 4.5l-79.8 29.8l-25.6 29.4l-2.6 29.8l13.2 2.3l-21.7 7.2l-2.5 -15.5l-16.6 18.7l-20.6 74l-14.6 14.6l-71.6 -0.1l-5.7 173z" />
  </g>
  <g data-id="111">
    <path d="m4718.7 269l0 0l-7 5l44.3 6.8l25.2 55.2l218.6 26.1l86.5 11l9.5 -3.1l78.1 12.5l16.3 -125.8l20.1 -163.9l9.1 -11.9l-0 -0l-14.8 -0.8l-35.4 0.5l-48.1 -2.3l-99.4 -6.4l-18.3 -0.7l-65.7 -2.5l-0.4 -0.1l-6 -0.6l-48.8 -4.5l-1.5 0.1l-133.5 -7.9l-8.4 -0.5l-0.7 -0.1l-22.7 159.6l10.8 19.2l-7.6 35.1z" />
  </g>
  <g data-id="113">
    <path d="m1427.7 1580.5l0 0l-6.2 199.5l214.4 3.9l59.5 1.2l29.8 0.5l161.5 -87.5l47.2 -65.5l24 -48l0.7 -26.9l11.6 -53.9l-8.3 -28.9l4.5 -203.2l-115.4 -2.4l-241.7 -8.9l26.8 19.2l-148.2 160.5l-15.7 -10.5l-28.8 -1.5l-11.1 -18.9l-4.5 171.2z" />
  </g>
  <g data-id="115">
    <path d="m5121.9 2074.4l0 0l11.2 4.4l-0.5 140.7l0.3 87.5l-0.5 99l40.6 0.3l5 0l253.1 4.9l60.7 0.9l90.6 1.4l53.5 -33.3l21 -47.3l31.6 -6.3l23.4 -60.7l-34.5 -46.1l7 -23.5l-1.5 -14.2l-9 -28.5l7.6 -18.5l-3.6 -29.6l-13.3 -30.7l-47.6 -55.9l-55.9 -16.3l-2.3 -8l-71.8 -40.2l-2.1 -15.6l-85.9 22.1l-26 -2.7l-40.3 27.6l-21.9 -4.5l18.3 70.7l-53.7 33.9l-38.5 -4.9l-56.5 -33.2l-26.2 1.6l-32.2 25.1z" />
  </g>
  <g data-id="117">
    <path d="m3873 1751.6l0 0l-6.7 48.8l40.5 20.6l-2.1 38.7l8.6 32.5l20.6 20.8l-4.8 33.1l21.3 -1.6l1.8 12.4l31.1 10.6l16.3 -31l19.5 38.9l0.2 42l94 15.3l11.8 -11.2l44.7 -48.8l70 -36.4l40.1 -8.5l3.6 -53.7l-21.6 -2.6l-46.2 -97l0.4 -29.3l-7.2 -50.7l12.7 -116.8l20.8 -4.7l-33 -6.4l13.3 -7.5l14.7 -140.2l-49.9 -25.9l-4.1 -8.5l-69.7 3.1l-5.8 16.3l-35 -14.4l-17.2 21.5l-17.2 -7l-14.9 135.6l-17.4 13.4l14.4 13.4l-15.1 21l2.8 23.4l-13.2 35.8l-25.1 32.7l-5 -26.6l-5.8 38.6l-17.2 18.3l-68.7 41.9z" />
  </g>
  <g data-id="119">
    <path d="m3413.7 1515.6l0 0l0.7 47.2l34.1 22.3l5.8 28.1l23.7 1l13 8.9l4.1 52.9l15 -1.4l-16.1 12.8l9.9 19.1l-22.8 54.9l-0.8 3.6l77.7 18.1l1.9 -15.7l22.7 10.2l53.5 -3.1l11.9 -16.4l24 -12.9l32.2 9.1l7.8 11l26.2 2.1l14.8 12.9l30.3 -0.6l17.6 22.5l30.7 10.8l6.9 -16.4l27.8 3.9l6.7 -48.8l68.7 -41.9l17.2 -18.3l5.8 -38.6l5 26.6l25.1 -32.7l13.2 -35.8l-2.8 -23.4l15.1 -21l-14.4 -13.4l17.4 -13.4l14.9 -135.6l17.2 7l17.2 -21.5l-34.5 -19.7l-38.8 -6.7l-49.1 -26.5l-58 -25.8l11.4 -22.9l-39.4 -6.9l-8.1 15.9l-39.8 -10.5l-13.3 -11.3l-230.4 -90.7l-22 179.2l-13.4 5.8l-11.4 28.6l-39 5.1l-57.5 53.7l7.5 34.7l-23.2 23.8z" />
  </g>
  <g data-id="121">
    <path d="m6110.7 1811.4l0 0l-17.3 42.2l26.5 -5.3l32.9 29l18.2 74.2l20.5 32l21.8 -1.6l50.1 -57l7.5 -40.6l20.1 11l18.5 -48.6l44.5 -90.9l32.3 -24.2l35.1 -64l26 -15.3l37.4 -57.1l2.8 -22.4l26.9 -16.6l28.5 -52.4l25.4 -26.2l-9.4 -25l-0 -39.6l10.4 -25.2l-19.9 -23.3l-41.5 30.3l-5 -20.7l-25.6 -0.5l0.4 -34l-18 -0.2l-8.7 -14.6l-2.7 -0.9l13.8 39.6l-13 25.7l-0.1 24.5l-20 14.5l-12.8 -1.5l-2.3 -26.1l-14.7 -1.6l-17.9 37.2l4 41.6l-9.2 16.8l9.8 27.7l-5.3 26.2l-31.8 17.5l2.1 19.4l15.2 23.1l-23.8 10.2l-46.6 -12.4l-20.9 5.5l-7.5 15.6l3.5 20l17 13.9l3.1 25.8l-16.6 12.9l-24.2 7.1l-10.5 15.5l0.9 23.5l-9.8 18.1l-20.1 7.9l-18.8 -3.7l-19.4 -18.4l-7.3 -19.8l-13 -4.5l-5 5.4l5.2 38l-41.9 42.5z" />
  </g>
  <g data-id="123">
    <path d="m6676.9 1506.7l0 0l3.7 54l20.6 10.5l71 164.5l-10.4 4.1l21.1 15.9l-2.9 36.7l11.4 6.1l0.4 23.5l19.7 5l-0.1 76.6l9.6 19.7l-60.5 16.1l-48.6 47.5l160 73.2l-4.6 9.9l18.6 8.9l-8.4 18.6l30.5 -17.2l38.6 17.9l2.4 -26.7l0.7 1.3l1.9 0.3l5.5 -3l0.8 -1.8l8.2 -9.8l17.4 -10l3 -6.1l5.7 -4.7l11.3 -5.2l3.2 -2.8l9.7 -13.6l4.6 -4.4l4.7 -1.7l8.5 1.6l5.2 2.7l7.3 9l0.2 2l2.8 3.5l1.3 11.3l1.8 4.4l1.2 1.4l8 0.8l4.4 4.4l11.4 -1l1.7 -2.4l7.6 -4.8l2.1 -0l8.4 3.3l1 -0.6l1.7 -2.8l4.2 -0.8l14.1 -0.6l3.9 1l3.8 2l3.6 1.6l3.2 0.4l1.9 -0.4l1.8 -1l0.6 -2.9l1.4 -4.1l0.8 -0.6l4.3 -1.2l6.8 0.3l0.3 1l0.7 1l1.3 0.1l5.6 -1.9l6.1 2.2l1 0.9l5.5 1l6.1 -3.7l10.7 -10l0.1 -2.5l2 -3.2l7.4 -2.9l4.7 -0.8l8 -4.1l9.2 -2.1l3.6 -2.5l11.4 -11.9l7.7 -14.6l8 -5l1.4 -0.8l5.1 -4.2l2.4 -7.9l-5.9 -11.2l-2.5 -1.6l-7.3 -2.3l-0.8 -1.3l0.2 -6.9l3.5 -10.7l0 -1.7l0.3 -2.9l2.1 -2.7l1.2 -3.8l-2.2 -4.6l-1.3 -0.6l-6.5 -16.3l0.7 -2.1l2.5 -1.4l12.2 -4.3l1.5 -0.5l3.8 -4.7l1.1 -2.9l4.7 -7.5l8.7 -9.6l-0.8 -10.2l-1.7 -5.4l-1.6 -2.4l0.7 -2.5l2.8 -5l0 -1l-6.8 -10.5l-1.3 -1l-3.3 -0.8l-0.8 -1l-3.1 -6.2l-0.3 -4.6l1.3 -3.4l3.5 -1.9l3.3 -1.1l3.5 -4.8l7.4 -7.8l3.5 -2.4l2.7 -3.8l0.8 -1.3l1.3 -6.6l1.8 -4.2l4.7 -6.1l10.8 -6.1l5.7 -7.8l6 -1.6l-0.1 -5.2l2 -3.6l1.8 -0.4l3.7 0.7l1.6 -0.6l4.4 -5.8l0.4 -4.7l-0 -1.3l0 -0l-4.7 -10.4l30.7 -23.6l-22.1 -2.7l-21 -15.6l-11.2 19.7l-29.3 -41.6l21.3 -20.7l-4 -31.5l-54.3 15.3l-29 -6l-15.5 7.3l-15.3 -17.2l8.1 -9.3l-9.7 -22.2l-12.5 2.8l-6.2 -19.8l-21.5 15.8l-33 -22.7l-25.8 -9.3l-7.4 -16.5l-5 -10.9l-33.3 4.1l-38.1 -7.5l4.2 -23.3l-35.8 2l-18.1 -10.8l7.8 -16.7l-41.2 -14.3l-35.9 -0.2l5 15.3l-24.4 18l-27.3 2.1l-9.7 -36.1l-21.1 6.5l1.4 -15.1l-38.9 8.5l0 9.5l-44.3 5.2l-10 -14.8l-10.9 31l10.4 34.6l-24.4 -6.4z" />
  </g>
  <g data-id="125">
    <path d="m3080.9 57.7l0 0l56.3 388.3l6.2 37.1l64.8 7.8l19.9 2.4l242.9 31.9l19.2 -13.6l6.8 -46.2l19.9 -0.2l15.5 -33.8l40.3 -25.9l10.9 -19.4l30.3 4.1l-0.2 -24.9l13.4 -5.4l6 20.7l15.3 -6l-0.9 -39.5l34.4 -15l-9.5 -9.3l9.3 -70.3l3 -56.2l-13.4 5.1l-23.9 -29.2l19.9 5.7l14 -72.8l-5.7 -22.2l12.6 -19.3l-133.4 0.7l-0.6 0l-19.2 0.1l-35.5 0.2l-3.6 -0.1l-38.6 0.2l-24.3 0.1l-9.4 0l-4.2 0.1l-43.7 0.3l-33 0.2l-0 0l-12.4 0l-13.3 0.4l-10.3 0.2l-135.8 2.2l-2.2 0l-88 1.5z" />
  </g>
  <g data-id="127">
    <path d="m4352.6 1916l0 0l14.1 33.8l13.8 1.4l62.4 25.2l0.2 11.6l27.7 13.3l12.7 22.2l17.4 0l-2 20l-12.9 6l11.2 18.4l6.6 -14l18.8 3.7l27.4 90.1l-2.4 38.6l7.7 29.7l14.6 -32.9l7.5 24l30.7 3.6l6.2 -9.7l-23.7 -17.8l19.2 -0.2l-3.7 -20.7l9.3 -15.5l0.1 -32.8l20.9 -16.6l-9.1 -39.5l23.6 -9.2l-6.9 -25.3l36.3 -51.1l11.8 -40l-18.4 -13.4l-5.6 -7.1l24.2 -12.5l-33.5 -35.2l24.3 -18.4l-30.7 -3l25.8 -35.4l-35.1 7.4l-7.3 21.6l-40.6 21.3l-20.5 21.5l-15 -0.3l-12.6 19.9l-44 1.9l-5.7 31.3l-9.3 7.9l-25.2 -2.6l-36 -24.6l-16.2 -33.4l-41.5 9.9l-16.4 27.3z" />
  </g>
  <g data-id="129">
    <path d="m6228.7 674.1l0 0l4.3 31.4l12.4 19.6l-9.2 23.4l11.8 13l30.7 14.7l44.5 75.6l9.3 -15.3l21.8 6l15.5 44.3l82.3 92.1l46.3 123.3l21.8 -10.5l11.8 -18.3l36.4 -5.2l16 -17.1l2.8 -13.8l12.7 5l43.7 0.2l1.1 -20.2l77.2 -29.5l47.4 -1.1l73.2 -54.6l20.4 -24l26.7 -11.3l-43 -66.3l-47.8 -18.6l-11.1 -33.6l-22.7 -14l10 -31.2l-31.3 -40.3l-3.3 -17.3l-94 -42.9l-24.6 5.4l5.8 -10.2l-5 -42.2l-21.7 -13.9l-22.2 8.4l-103.6 -143.9l-27.7 -7.8l-7.9 36.7l-16 -0.6l6.7 18.8l-25.8 13.5l-14.7 -7.4l-12.8 11.3l-13.8 41.4l-19.8 5l-8.4 -8.8l-23.9 17.9l-14.7 -9.6l-23.3 12.3l-9.2 65.7l-35 44.2z" />
  </g>
  <g data-id="131">
    <path d="m951.7 656.1l0 0l3.3 11.8l379.2 11.4l223 4.4l1.6 -30.3l10 -238l2.4 -30.7l43.1 7.3l16 16.6l13.9 1.3l45.5 -29.1l34.7 3.5l2.8 -86.2l-15.3 -46l-8.5 -0.1l-0.3 0l-46 0.7l-11.3 1.1l-17.3 -0.7l-75 0l-41.1 -0.6l-7.8 -0.1l-4.2 -0l-0.1 -0l-27.8 -0.4l-28 -0.3l-15.3 -0.1l-20.8 -0.2l-31.6 -0.3l-2.6 -0.1l-50.1 -1.3l-0.2 -0l-55.4 -1.6l-78.1 -1.3l-3.7 -0.4l-20.8 -0.5l-52.8 5.7l6.5 39.1l-22.7 28l-10.6 31.9l10.5 35.9l-23.7 46.1l-26.8 36l3.8 29l-4.3 25.9l-13.8 30.6l-14.8 47.2l-18 34.1l-10.5 10.7l-37.1 10.2z" />
  </g>
  <g data-id="133">
    <path d="m5557.7 395.2l0 0l-2.5 40.2l2.8 104.3l41.7 -2.7l-5.2 15.3l11 17.9l-14 2.3l14.3 3.6l0.9 22l19.9 -1.1l-0.2 21.6l19 15.7l62.1 22.3l44.9 3.9l4.4 26l137.1 67.5l97.6 11.1l42.8 -73.6l-45.9 -155.2l0.6 -34.1l3.3 -102.4l-1.8 -10.5l-16.9 0.2l-13.6 -41.3l-1.2 -29.3l-43.2 -49.1l-43.8 -35.4l-30.8 -11.6l-22.2 -24.6l-18.1 12.9l-16.3 12.9l-44.9 -8l-60 31.9l7.8 24.2l-20.3 -3.6l9.4 -18.9l-62 9.4l-40.8 62.7l-15.8 73.5z" />
  </g>
  <g data-id="135">
    <path d="m2620.6 1740.6l0 0l-2.8 20.8l13.3 23.6l26.7 6.5l-4.7 -13.4l26.5 -29.5l18.1 -8.9l24.3 2.6l23.1 -10.7l30.3 4.6l47.2 -19.2l7.3 15l35.9 -6.3l27.5 -21.4l80.5 -9.6l18.8 11.8l7.6 -31.1l23.5 -0.1l5.6 -60.6l40.2 -29.4l2.9 -30.2l-11.1 -27.5l-33.1 -34.6l-43.2 -23.6l-22.4 -19.3l6.9 -54.6l31.3 -1.8l-25.7 -32.2l18.7 -160.1l-117.7 2.8l-8.3 18.3l-21 4.6l-9.9 24.1l-46.7 -30l-19.8 -19.2l-60.5 -3.7l-4.9 8.8l-4.4 27.1l-10.5 52.4l-11.7 24.4l-36.5 34.3l-15.2 29l7.4 33.3l12.5 15.3l-1.6 32.5l-19.5 54.5l1.9 11.4l41.2 86.1l19.8 25.3l8 30.1l-8.1 33.9l-9 10.6l-43.5 15.1l-15.2 18.1z" />
  </g>
  <g data-id="137">
    <path d="m5800.7 211.1l0 0l18.1 -12.9l22.2 24.6l30.8 11.6l43.8 35.4l43.2 49.1l1.2 29.3l13.6 41.3l16.9 -0.2l20.3 -4l16.6 -129.3l27.5 -39.6l12.8 6.3l11.1 -51l5.9 6.7l29.9 -16.4l2.9 -12.1l12.9 11.6l26.7 -12.2l38 -9.9l50 4.3l43.3 12.1l51.1 28.5l39.2 36.1l60.3 0.4l-61.8 -113.1l-21.2 -1.3l-45.4 -1.2l-19.2 -1.9l0 -0.1l-97.2 -8.7l-35.7 -4.3l-13.4 -1.6l-44.1 -3.9l-71.3 -3.7l-11.2 -0.8l-114.6 -4.3l-93.4 -1.5l-1.4 58.1l12 18.5l-20.6 60.3z" />
  </g>
  <g data-id="139">
    <path d="m6407 2353.8l0 0l-18.7 53l51.7 -0.4l4.1 0.1l118.3 0.1l4 -0.5l128.8 0.4l1 -0l131.8 0l1.1 -0.1l83.2 -0.5l13.7 -127.5l1.7 -19.6l0.2 -0.6l4.2 -40.3l7.9 -64.6l3.2 -21.1l3.4 -34.2l0 -0l-38.6 -17.9l-30.5 17.2l8.4 -18.6l-18.6 -8.9l4.6 -9.9l-160 -73.2l-23.8 26.9l-174.6 -2.2l-20.8 30.3l-21 7.8l-14.1 10.4l21.7 7.5l-5.9 13.2l4.8 26.3l-6.2 22.2l3.9 19.5l-54.8 119.9l14 6.6l-15.3 31.8l-12.7 47.1z" />
  </g>
  <g data-id="141">
    <path d="m5195.6 676.6l0 0l15.8 21.3l-13.7 86l22.5 40.9l20.9 11.4l-7.1 23.8l10.2 11.8l16.3 3l6.8 -13.5l28.3 -6.5l41.4 24.5l21.4 49.9l17.1 24.2l10.2 -3.1l1.5 -13l24.6 -13.3l12.5 -17.9l25.9 7.9l11.4 -32.6l9.8 6.5l11.3 -20.9l60.9 -12.2l129.7 38.5l26.8 3.9l53 31.6l19.5 -1.9l-2.2 55.1l54.4 19.7l8.3 0.9l-3.9 -25.9l10.4 -62.6l9.3 -20.6l-5.7 -42.3l2.1 -23.1l12.2 -7.2l95.8 8.9l24.2 -41l36.4 -14.7l-22.4 -8.8l-97.6 -11.1l-137.1 -67.5l-4.4 -26l-44.9 -3.9l-62.1 -22.3l-19 -15.7l0.2 -21.6l-19.9 1.1l-0.9 -22l-14.3 -3.6l14 -2.3l-11 -17.9l5.2 -15.3l-41.7 2.7l1.3 32.2l-16.5 3l-4.9 29.8l-24.6 -2.7l0.3 23.1l-25.3 12.3l-2.2 15.5l-20.3 -10.4l-68.2 24.5l-1.5 -11.8l-63.3 -6.5l-39.9 -9.9l-21 6.8l-42.3 -29.4l-0.6 15.6l-7 39.1l-26.5 5.9z" />
  </g>
  <g data-id="143">
    <path d="m5991.9 1641.8l0 0l-31.3 53.4l35.1 22.2l-22.2 24.1l27.3 2.4l10.9 40.4l40.5 -11.9l58.6 39l41.9 -42.5l-5.2 -38l5 -5.4l13 4.5l7.3 19.8l19.4 18.4l18.8 3.7l20.1 -7.9l9.8 -18.1l-0.9 -23.5l10.5 -15.5l24.2 -7.1l16.6 -12.9l-3.1 -25.8l-17 -13.9l-3.5 -20l7.5 -15.6l20.9 -5.5l46.6 12.4l23.8 -10.2l-15.2 -23.1l-2.1 -19.4l31.8 -17.5l5.3 -26.2l-9.8 -27.7l9.2 -16.8l-4 -41.6l17.9 -37.2l14.7 1.6l2.3 26.1l12.8 1.5l20 -14.5l0.1 -24.5l13 -25.7l-13.8 -39.6l-35.3 -2.1l4.4 -28.4l14.5 -7l-10.5 -21.3l-47.7 -28.2l7.6 -15.5l-18.4 -0.2l-97.6 66l-26.2 7.2l-12.6 16.8l-151.9 203.6l-69.4 67.1l10 53.5l-23.3 6.7z" />
  </g>
  <g data-id="145">
    <path d="m6381.3 1221.1l0 0l-7.6 15.5l47.7 28.2l10.5 21.3l-14.5 7l-4.4 28.4l35.3 2.1l2.7 0.9l8.7 14.6l18 0.2l-0.4 34l25.6 0.5l5 20.7l41.5 -30.3l19.9 23.3l-10.4 25.2l0 39.6l9.4 25l40.9 0.3l10.2 -20.5l25.7 0.1l25.8 -16.4l-1.1 -19.3l24.7 -46.1l18.5 0.1l53 -61.2l14 15.7l12 -7l11.1 -33l32.1 11.5l10.3 -69.9l9.4 -12l27.6 -9.3l10.1 -25.5l10.3 -60.7l55.7 24.8l-1.3 -38.3l22.4 7.7l-9.5 -18.8l-56 -116.1l-25.1 -81.9l-26.7 11.3l-20.4 24l-73.2 54.6l-47.4 1.1l-77.2 29.5l-1.1 20.2l-43.7 -0.2l-12.7 -5l-2.8 13.8l-16 17.1l-36.4 5.2l-11.8 18.3l-21.8 10.5l-2.8 6.2l-21.9 11.8l-31.1 52.7l-61.1 48.2z" />
  </g>
  <g data-id="147">
    <path d="m3667.4 165.7l0 0l-19.9 -5.7l23.9 29.2l13.4 -5.1l-3 56.2l-9.3 70.3l9.5 9.3l29.9 15l36.3 33.9l66.7 41.6l20 33.3l29.7 -11.4l56.6 -7.9l4.7 -10.9l17.2 1.7l21 24.7l25.2 3l33.8 28.6l43.5 -14.1l-4.2 -24.5l10.6 -18.4l20.3 -6.7l11 -16.1l7.5 -18.8l14.8 0.5l48.7 15.8l-2 -20.2l22.9 -41.2l26.9 -28.8l12.9 -38.8l6.6 -53.1l13.4 -22.8l23.8 -32.9l44.9 -87.4l-0.3 0.1l-29.7 -27.4l-17.5 0.5l-1.6 0l-124 4l-52.1 0.5l-5 0.2l-57.4 1.8l-3.6 -0.1l-2.6 0.1l-17 0.6l-24.4 0.5l-59.7 0.8l-0.6 0.1l-121.1 3.3l-56.9 1.1l-62.5 1.2l-12.6 19.3l5.7 22.2l-14 72.8z" />
  </g>
  <g data-id="149">
    <path d="m4170.9 1324.5l0 0l-2.7 49.1l15.1 11.1l4.1 8.5l49.9 25.9l3.5 -22.9l107.6 6.2l31.9 13.1l24.8 43.1l25.3 4.7l18.5 25l1.2 -10.5l35.7 -12l12.4 18.4l-0.3 23.9l14 6l33 -17.3l-6.5 -16.6l30.6 -10.5l11.8 -19.9l36.4 3.8l5.9 21.6l20.4 -2.7l49 23.2l-0.3 -81l44.2 -21.2l-0.9 -40.5l14.4 -13l9.7 -31.7l-1.7 -45.8l10.2 -41.8l12.8 -84.1l11.6 5.1l6.5 -40.4l12.9 -7.5l-15.6 -25.9l2.4 -31.1l-9.1 -12.6l-104.6 3l-68.4 -27.6l1.1 -8l-18.8 1.6l-43.8 -35.9l-27.9 -24.3l6.7 -11.5l-14.5 6l-41.5 -27.2l-4.6 0.3l-93 -72.4l-11.7 61.8l-2.1 -23.8l-20.3 -18l-1.6 28.7l-23 25.4l4.6 19.2l-5.5 1.2l-38.7 32.3l-13.8 6.2l5.4 39.6l-12.6 16.5l-7.1 2.2l11.6 32.8l-13.8 40.7l15.2 44.7l-4.2 28l13.6 12.8l2.6 23.4l-15 -0.1l-11.1 17.5l16.4 2.8l-1.7 48.7l-38.9 -7.4l-18.2 6.6l1.8 33.4l-11.6 -6.1l-12.1 30.8l-17.4 -3.2z" />
  </g>
  <g data-id="151">
    <path d="m6377.4 107.5l0 0l-0.1 -0l61.8 113.1l19.3 37.1l26.1 91l38.6 57.7l-30.9 10.3l-17.2 24.6l103.6 143.9l22.2 -8.4l21.7 13.9l5 42.2l-5.8 10.2l24.6 -5.4l94 42.9l3.3 17.3l31.3 40.3l43.2 -16.2l12.9 -38.5l22.7 -21.6l-3.9 -62l15.9 -16.5l32.8 -9.2l4.6 -10.2l-5.2 -147.6l25.8 5l-37.6 -44.6l-6 -72.6l9.9 1l12.6 -63l50.7 8l22.7 -11.2l18.2 -32.3l2.2 -43.8l-16.7 -2.9l2.8 -36.4l-11.4 0.1l-198.1 -6l-65.9 -0.9l-49.9 0.6l-94.4 -4.7l-177.2 -5.2l-7.9 -0.2z" />
  </g>
  <g data-id="153">
    <path d="m5428.6 1638l0 0l43.6 36.7l38 26.5l-5.4 36.4l6.4 42.4l27.2 12.1l-0.7 21.7l31.5 1.8l-4.2 32.3l-19.6 36.6l-41.8 22.9l-18.7 31.4l2.1 15.6l71.8 40.2l2.3 8l55.9 16.3l47.6 55.9l13.3 30.7l3.6 29.6l-7.6 18.5l9 28.5l162.9 -242.9l23.2 -49.8l-102.1 -89.1l-102.7 -106.4l-8.7 -27.8l-29.2 -41.8l14.2 -37l-34.3 13.2l-7.3 16l-41.4 -1.1l-71.3 20.8l-57.5 1.9z" />
  </g>
  <g data-id="155">
    <path d="m7521.3 1132.7l0 0l11.6 11.3l-0.1 32.1l12.3 5.3l18.8 50.4l20.5 15.2l-9 12l32.8 72.1l2.8 26.6l17.5 13.9l-4.5 10.9l26.7 2.6l9.1 34.5l13.2 -7.3l-0.2 172.5l0.1 0l2.3 1.3l3.5 -1.4l5.5 1.3l8.9 3.5l5.8 -0.4l3.8 -1.4l1.6 -1.5l4 -1.3l3 1.7l16.6 -8.7l7.4 -7.7l4.7 0.2l3.4 1.6l8.8 7.5l7.4 8.4l0.8 4.2l1.8 1.5l4.1 0.4l6.5 -1.9l4.5 -2.1l7.3 -0.7l7.9 1.7l8.2 0.6l13.1 -1.9l7.7 1.5l15.8 -1.3l3.4 3.9l22.2 -0.2l7.7 -5.5l7.1 -1.9l5.7 -12l2.4 -3.6l-0.9 -5.1l0.3 -0.8l4.3 -2.1l3.1 -2.5l0 -3.7l1.5 -1.7l10 -3.3l8 -7.7l3.8 -6.9l6.1 -8.2l1.5 -4.5l5.3 0.1l10.3 2.6l12.4 -1.8l0.7 -0.6l0.7 -2.7l9.8 -4.9l6.7 -4.6l2.9 -1.6l8 -2l4.6 -3.4l4.7 -10.3l-0.1 -1.7l9.8 -1.6l2.6 0.3l1.4 -3l3.5 -3.3l1.8 -0.5l2.1 1.6l2.5 0l1.4 -0.7l10.1 -12.1l2.3 -3.9l1 -3.3l-0.2 -3.3l2 -4l2.6 -3.4l2.7 -1.4l2.3 0.5l11.1 -3.7l3.1 -3.4l16 3.8l3.7 5.4l5.9 6l2.6 0.5l9.5 -2.3l5.9 -2.4l4 -5.9l3 -7.4l0.5 -7.8l1.8 -2.7l9.2 -4.7l6.6 -2.4l4.7 -2.9l2.4 -5.6l4.5 -3l4.8 -2.3l3.6 -3.9l2.9 -5.9l0.6 -7.7l-1.1 -3.5l1.2 -4.5l1 -3.4l-0.3 -4.1l-1.2 -3.7l0 -0.2l-24.2 2.1l-5 -51.9l6.6 -27.8l-12.4 -15.4l-1.9 -21.3l28.2 -35l-52.8 -73.6l-2.4 -34.4l-22.5 -22.5l-34.3 -10.5l-31.8 7.7l-1.9 -20.8l-31 -7.1l-22.4 13.5l-10.3 -7.4l-35.3 8.6l-2.6 -10.3l-36 -13.2l-19.8 -35.9l-94.7 -72.9l-55.7 -38.9l-0.7 12l-19.6 -5.6l13.1 67l12.7 7.3l-18.9 35.3l-22.2 16.6l3.4 18.7l-16.4 -4.2l-47 32.5l-33.6 7.8l-30.8 34.7z" />
  </g>
  <g data-id="157">
    <path d="m0.5 2375.9l0 0l-0.5 7.7l1.2 12.1l245.8 1l41 0.2l41.3 0.2l40.5 0.2l102.1 0.4l9.3 0l11.1 0.1l0.4 0l40.3 0.1l40.8 -0.1l20.7 -0l41.1 -0.8l20.6 -0.4l20.2 -0l92.4 -0.1l0.3 0l8 -285.8l-0.9 -16.9l0.1 -95l5.8 -139.7l-14.1 6.5l3.7 -21.4l-70.6 -3.9l0.5 -27.6l-32.7 10.6l-53 -5.8l-2.3 24.6l-25 -4.9l-75.1 0.8l-21.3 -0.6l-6.2 0.4l-175.7 -8.1l-12 -16.2l-5.4 6l2.7 20.5l-8.6 4.4l-5.7 1.4l-9.6 1.4l-10.2 21.7l-4.7 7.8l-3 3.4l-3.5 0.6l-3.8 4.6l-4 7.9l-8.1 12l-1.7 0.8l-1.7 -0.3l7.4 14.7l-3.4 11l-2.6 27.8l-9.4 2.3l-5.4 -1.6l-2.1 0l-10 5.7l-8.2 2.3l-11.9 -6.3l-4.2 1l-6.4 2.8l-2.7 2.4l-3 4l-1.6 4.1l-4.2 15.8l0.1 4.1l2.5 6.4l8.9 17l7.8 9.3l13.5 5.2l9.6 -1.3l9.8 -2.6l8.2 -1.1l7.4 0.5l5.8 1.7l6.5 4.1l1.8 2l8.1 11l5.3 9.1l3.9 5.5l4.8 5.7l2.2 4.8l2.3 5.6l0.9 4.8l-0.1 7.9l-2.9 3.8l-5 0.9l-3.4 -3.2l-5.2 -2.8l-5.4 12.8l-3.7 11.9l-1.1 0.1l-13.5 -6.1l-8.2 0.9l-1.6 11.2l0.2 3.8l3.7 8.8l3.6 4.3l2.2 0.3l1.3 5.5l2.9 5.5l2.7 3.8l4 5l3.7 4.9l4.2 5.3l3 1.4l24.2 3.7l2.8 2.6l0.5 1.1l2.2 14.8l-0.9 4.1l-1.4 2.4l-5.3 6.2l-14.1 14l-3.8 2.7l-4.5 2.1l-11.5 2.3l-10.2 -3.1l-34.2 -21.3l-4.4 -1.5l-2.2 0.2l-13 5.6l-4.7 3l-6.1 5.1l-9 9.5l-0.6 0.6l-3.7 8.4l-5.2 29.2l-15.9 41.8l-1.7 8l-0.6 7.6l0.3 10l0.9 8.8l-4.7 6.5l-10.7 8.8l-5.8 1.1l-2.2 -0.4l-9.8 -5.5l-6.7 -1.9l-29.9 -4.5l-6.8 -2.7l-1.2 -1.6l-0.5 -3l-1.7 -1l-30.8 -2.1l-2.8 1.6l-1.3 0.8l-2 3.1l-3.9 12.8l-7.2 14.9l-3.4 11.9z" />
  </g>
  <g data-id="159">
    <path d="m4829.7 551.3l0 0l-12.3 -2.5l13.8 43.5l10.7 -4.9l-4.3 25.4l-2.3 28.3l11.6 4l39.3 133.6l12.8 15.7l7.4 54.5l19.6 -4.6l33.8 8.3l1.3 -9.4l30.2 4.2l30.9 -33.6l12.5 12.3l12.1 -10.1l30.7 16.5l1.3 -27.7l15.2 0.9l3 16.2l35 15.9l29.7 -50.1l11.1 8.9l24.5 -12.8l13.7 -86l-15.8 -21.3l26.5 -5.9l7 -39.1l-27.8 -25.5l-10.6 10l-16.4 -9.2l-11.9 -38l-9.8 -9.1l21.3 -177.2l-78.1 -12.5l-9.5 3.1l-86.5 -11l8.9 9.5l-13.3 33.8l-61.6 20l-51.8 38.1l-34.4 45.7l-17.8 42.1z" />
  </g>
  <g data-id="161">
    <path d="m2585.3 0l0 0l2.7 26.4l4.4 12.8l6.7 10.8l1.8 4l1.7 6.9l-0.2 7.5l12.2 39.6l4.5 27.1l1.8 16.3l4.6 15.9l2.1 14.4l1.5 15.9l-1.9 13.7l-2 7.5l-1.6 3.1l-0.6 4l0.6 4.6l-0.6 5.7l-1.9 4.9l-6.7 9.1l-6 5.8l-3.2 4.2l-0.1 -0l1.5 37.1l-10.9 39.1l29.4 34l52 86.3l11.8 9.8l41.3 -1.2l60.2 27.8l36.1 6.9l45.9 1.6l43.1 -7.7l32.6 -12.7l38.6 -24.9l8.4 -11.3l142.1 0.8l-56.3 -388.3l-61.2 1.4l-58.4 1.3l-125.2 4.2l4.2 -43.8l-26 -2l-161.3 -17.2l-38.1 -1.4l-29.7 -0.2z" />
  </g>
  <g data-id="163">
    <path d="m8781.8 319.9l0 0l24.9 34l20.5 -15.4l70.9 27.7l174.2 -30l15.4 9.3l18.1 -13.8l-0.4 11.9l19.5 3.5l-4.1 14.7l39.5 9.5l-13.6 39.5l19.3 -15.7l36.8 1.7l43.5 7.7l13.6 1.7l41.8 -35.6l58.3 27.3l14.7 1l93.8 -70.7l9.6 -13.3l24.1 2l45.7 -40.9l46.9 -9.5l16.2 -22.4l21.8 -33.3l38.3 -29.7l4.3 -22.6l61.2 -29.2l4.2 -19.8l51.6 -17.5l-110.7 -2.9l-13.3 31.6l-98.5 -0.3l-145.6 -0.4l-3.5 -0l-2.5 0.1l-26.8 0.1l-3.8 -0.2l-4 -0.2l-8.9 -0.4l-25.4 -0.9l-0.6 -0.1l-12.4 0.1l-2 0.1l-2.6 -0l-1.1 0l-19.1 0l-58.8 0l-3.3 0l-195.8 1.8l-13.9 -1.6l-9.9 -0.3l-77.4 1.4l-6.3 0.1l-1.5 0l-55.5 1l10.6 24.2l-18.9 -3.3l5.1 49l2.1 37.7l-20.2 8.2l1 26.1l-87.2 57.3z" />
  </g>
  <g data-id="165">
    <path d="m4111.6 372.8l0 0l-7.5 18.8l10.5 3.4l21 44.1l7.6 43.6l53.3 37.4l7 21.8l30.9 17.7l3.4 47.5l18.8 8.3l8.9 6l24 -0l26.8 -25l13 -35.6l-5.4 -24.5l13.4 -20.8l10.9 -2.2l6.5 42.8l18.7 18.1l9.5 -28.9l71.2 -53.5l20.8 -6.3l17.6 10.3l3.4 27.4l8.8 8.6l20.1 -3.6l0.8 -25.2l14.8 -33.1l18 -9.7l17.1 18l0.5 21.9l-18.4 26.3l36.4 -10.4l35.1 9.2l4.2 -31.9l15.2 -18.4l12.4 -16.1l4.3 -135l36.4 1.4l-3.2 -49.5l13.3 -1.6l7 -5l7.6 -35.1l-10.8 -19.2l22.7 -159.6l-12.4 -1.1l-0.3 -0.1l-3.1 -0.3l-3.5 -0.1l-82.2 -6.4l-45.8 -4.9l-30 -1.5l-17 -0.4l-1.4 0.5l-42 -1.1l-65.9 -1.8l-4.3 0.1l-1.4 0.1l-0.1 0l-39.6 -1.1l-41.6 17.1l0.4 -4.8l-7.7 -1.3l-1.4 9.8l-14.6 6.4l-44.9 87.4l-23.8 32.9l-13.4 22.8l-6.6 53.1l-12.9 38.8l-26.9 28.8l-22.9 41.2l2 20.2l-48.7 -15.8l-14.8 -0.5z" />
  </g>
  <g data-id="167">
    <path d="m304.4 1806.2l0 0l-6.2 7l12 16.2l175.7 8.1l6.2 -0.4l21.3 0.6l75.1 -0.8l25 4.9l2.3 -24.6l53 5.8l32.7 -10.6l-0.5 27.6l70.6 3.9l-3.7 21.4l14.1 -6.5l4.4 -9.6l35 -16.9l67 -14.5l76.6 2.5l5 -203.4l-15.4 -0.5l6.7 -19.6l-28.5 -28.2l-11.5 -2.7l-23.1 -28.5l-22.6 -4.8l-10.2 -10.6l-26 -6.3l-5.6 -10.6l-32.1 -16.3l-9 -21.9l-8.8 10.4l-23 -4.3l0.4 12.1l-17.6 11.5l-6.6 -10.5l-20 3.4l-4.4 -11.3l-40 11l-1.6 -15l-33.8 -4.7l-1.1 11.1l-26.4 11.1l-12.9 -7.6l-13 25l-25.4 11.6l3.5 15.1l-16.5 3.4l-39.7 28.2l-7.8 -7.1l-17.9 51.6l-17.1 17l0.4 0.2l3.7 1.8l1.4 1.5l0.6 2.2l-4.4 15.9l-1.6 3.4l-3.4 4.5l-4 3.2l-4.5 1.8l-4.4 -0.8l-12.1 -5.8l-13.2 -1.2l-3.4 -1l-3.7 -2.5l-5.9 -5.3l-1.6 -2.3l-0 -4.2l2.3 -4.4l0.2 -1.8l-1.2 -6.9l-2.1 -3.3l-20.6 -17.3l-15.1 -8.8l-4.2 -1l-6.9 -0.5l-10.7 1.6l-3.4 1.4l-7 4.4l-7.6 -0.5l-5.4 1.5l-5 2.6l-5.4 4.4l-2.5 3.2l-2.6 15l-3.2 8.2l-1.7 2.9l-3.3 10.4l-1.4 9.9l2 15.5l3.1 11.1l2.6 6l9.9 16.4l16.8 14.8l1.6 3.5l0.2 4.2l-3.7 10.5l-2.5 4.4l-2.7 9.2l-0.3 4.1l0.4 6.8l-0.9 3.1l-2.2 3.7l-2.3 5.2l-0.4 5.5l-10.4 6.7l-2.4 2.4l-1.8 2.8l-1.3 5.4l-1.5 3.5z" />
    <path d="m151.2 1845.5l0 0l1.1 4.4l6.9 6.2l7.1 4.2l24.6 0.2l10.9 -2.9l-9.2 -15.5l-2.8 -10.6l-0.4 -6.2l1.3 -6.1l1.9 -4.1l2.1 -2.7l4.4 -4.2l3.2 -2.1l5.4 -1.1l15.7 2.9l5.1 2.2l2.3 2.2l4.3 7.4l2.2 2.6l9.5 8.8l3.5 2.7l6.7 3.5l9 7.9l2.3 1.1l3.4 0.5l9.6 -1.4l5.7 -1.4l8.6 -4.4l-2.7 -20.5l-14.6 -6.4l8.4 -9.7l-9.8 -11.5l-4.1 -15.1l0 -8l3.2 -15.2l4.8 -15l0.1 -5.5l-0.8 -2l-5 -6.4l-9.2 -8.6l-5.6 -2.8l-15.8 0.3l-3.5 2.4l-6.9 -0.1l-7.7 6.3l-4.6 5.2l-2.6 4.3l-2.9 8.3l-7.3 25.4l-12.4 7.7l-33.3 20.7l-1.8 5l-0.1 11.7l-9.9 35.2z" />
  </g>
  <g data-id="169">
    <path d="m4648.3 474.8l0 0l12.1 -0.1l9.4 27.6l-10.2 27.1l10.4 13.8l17.5 -8.7l5.6 -43.8l16.8 -18.5l3.3 9.5l23.6 0l2.9 14.8l22.8 18.7l9.7 -13.7l45.1 47.2l12.3 2.5l17.8 -42.1l34.4 -45.7l51.8 -38.1l61.6 -20l13.3 -33.8l-8.9 -9.5l-218.6 -26.1l-25.2 -55.2l-44.3 -6.8l-13.3 1.6l3.2 49.5l-36.4 -1.4l-4.3 135l-12.4 16.1z" />
  </g>
  <g data-id="171">
    <path d="m8883.3 966.7l0 0l-0.8 4.6l2.3 9l0.5 0.7l6.5 1.9l3.1 6.9l-2.9 4.1l-4.8 14.3l-0.8 4.3l0.8 5.7l3.6 2l8.5 2l6.4 -1l3.3 -1.5l12.7 1.2l3.8 1.9l1.2 7l1.7 1.2l8.8 4l11.1 2.4l5.4 -9.6l4.1 -5.2l8.3 -5.3l3.7 -1.6l5.2 -1.1l4 -3.3l9.9 -1.8l2.4 -1.7l4.9 -1.9l4.4 0.4l6.4 -2.6l1.9 -0.3l0.1 -0l6 -7l14.7 -12.8l0 -0.1l3.2 -1.7l1.2 -1.5l0.2 -3.4l1.4 -2.2l9.4 -3.3l11.1 -9.1l4.5 -1.9l50.8 -92.7l8.3 -15.2l5.8 -6l16.7 -13.3l11 -3.4l2 -5l3.7 -4l4.8 -1.1l5.6 -1.8l6.5 -4.2l0.6 -1.4l6 -5.7l6 -2.1l1.8 1.7l1.8 1l11.7 0.4l5.2 -2.9l3.6 -0.7l4.6 -2.8l4.3 -0.3l3.8 -1.9l11 -8l1.6 -2.9l5.1 -4l6 -3.1l9.5 -3.1l1.2 0.4l9.4 9.4l2 0.4l5.3 -1.3l3.6 2.6l2.5 0.8l3.5 -0.8l2.7 -3.6l3.5 -5.1l4.7 -0.3l3.5 0.3l1.6 2.1l5 1.9l3.5 -2.7l1.3 -2.2l2.1 -4l4.4 -3l1.5 -1.1l1.1 -1.2l0.8 -1.4l7.5 -7l4 -4.8l1.9 -6.8l1.4 -3.1l-8 -48l-21.4 -23.3l-23.7 -4.7l13.4 -33.1l-32.8 -26.5l-40.1 -12.4l-24.2 10.8l-20.3 17l2 15.5l-14.2 25.7l-37.8 24.8l-17.7 22.3l-4.6 22.9l-19.1 12.1l-58.1 -1.4l-46.2 9.7l-77.9 75.4l20.6 25.5l-29.6 55l2.5 3.4l2.3 4.7l3 3.3l1.5 3.3l-0.8 5.1l-5.3 6l-4.9 5.1l-8.7 17.1l-2.3 2.1l-0.6 1.7z" />
  </g>
  <g data-id="173">
    <path d="m7278.9 585.3l0 0l-6.3 0.1l46.9 86.2l31.7 33.9l21.9 24.3l6 0.1l14.3 12l1.4 -11.5l135 4.3l62.7 1.9l20.8 -13.2l-15.8 -11.9l13.3 -25.3l19.3 -11.2l7.7 -42.8l-2.3 -24.2l-10.4 6l2.1 -32.9l15.2 -8.4l0.5 -24.2l25 -69.3l-34.5 -30.5l-15.9 27.9l-25.3 1.7l-12.9 -13.9l0.9 -21.4l-24.3 -41.8l-35.3 -20.8l2.8 -14.1l-14.8 -18.3l-32.1 23.3l-7 -13.8l-25.3 -7.7l-27.1 19.2l-24.1 1.9l3.4 20.9l-21.4 25.1l-34.3 -19.2l-4.6 19.6l5.8 26.7l-21.4 20.6l-6.5 80.7l-13.5 24.1l-13.7 -1.7l-7.7 17.6z" />
  </g>
  <g data-id="175">
    <path d="m5427.8 1297.4l0 0l-8.3 14.7l26.9 9.5l-9 18.6l8 9.4l-14.4 37.2l12.1 128.8l42.8 120.5l71.3 -20.8l41.4 1.1l7.3 -16l34.3 -13.2l142.5 -164.5l40.3 -54l-6.3 -10.5l6.1 -42.3l13.2 -10.3l0.6 -1.9l-3 -1.9l-2 -4.6l2.3 -3.8l-3.2 -1.1l-0.4 -3.3l4.3 -0.8l-1.8 -4.4l-7 2.9l-5.9 -1.1l-2.5 -3.9l-4.3 -2l1.5 -5.8l3.8 -8.1l-9.4 -22.3l14.3 -18.4l-112.2 35.9l-70.3 -25.5l-58.9 -11.3l-29.1 23l-20.7 -13.2l-10.7 12.1l7.9 21.6l-27 -7.5l-32.7 -13.2l-34.1 0.1l-2.1 16.4l-5.8 33.6z" />
  </g>
  <g data-id="177">
    <path d="m4978.3 1382l0 0l14.3 73.7l22.9 56.3l21.1 34.2l-1.9 32.1l50.8 46.1l25.5 3.2l6.4 21.2l50.8 12.5l14.5 15.2l33.5 -18.9l43.4 -8.9l58.2 -6.4l110.7 -4.3l57.5 -1.9l-42.8 -120.5l-12.1 -128.8l14.4 -37.2l-8 -9.4l9 -18.6l-26.9 -9.5l8.3 -14.7l5.8 -33.6l-44.8 -30.9l-44.6 -13l-2.1 -7.7l-80.4 -26.7l-41.3 10l-102 -3.9l-10.7 8.7l-33.1 24.4l-47.2 78.9l-17.5 19.3l-31.7 59.1z" />
  </g>
  <g data-id="179">
    <path d="m8811.9 366l0 0l-30.5 18.6l81.7 -12l2.5 10.4l-20.9 379.6l5.6 6.2l28.9 33.2l26.3 32.3l77.9 -75.4l46.2 -9.7l58.1 1.4l19.1 -12.1l4.6 -22.9l17.7 -22.3l37.8 -24.8l14.2 -25.7l-2 -15.5l20.3 -17l-2.1 -16l31.4 -89.3l12.4 -44.9l5.1 -19.3l0.1 -36.4l-43.5 -7.7l-36.8 -1.7l-19.3 15.7l13.6 -39.5l-39.5 -9.5l4.1 -14.7l-19.5 -3.5l0.4 -11.9l-18.1 13.8l-15.4 -9.3l-174.2 30l-70.9 -27.7l-20.5 15.4l5.2 12.1z" />
  </g>
  <g data-id="181">
    <path d="m2638.2 1835.5l0 0l0.1 32.2l22.8 26.4l-13.4 22.9l-1.3 49.8l23.3 -3.8l18.2 9.3l-3.8 409.1l13.2 0.1l53.7 0.3l56.6 0.3l0.3 -0.1l5.9 -0.1l22 0l0.1 -0l1.8 -0.1l90.4 1l6.9 0.2l10.1 0.1l57 0.9l8.3 0.2l2.1 -0.1l4.3 0.2l29.4 0.4l8.4 0l45.1 -0.3l21.8 0.1l-6.6 -21.7l7.1 -23.8l31.3 1.4l6.8 -20l-18.6 -13.2l6.3 -119.5l5.2 -61.9l0.2 -53.9l3.9 -245.2l-25.2 -18.8l-11.7 -34.6l-45.3 -8.4l0.7 -43.5l-46.1 -0.1l-36.6 -14.9l-18.8 -11.8l-80.5 9.6l-27.5 21.4l-35.9 6.3l-7.3 -15l-47.2 19.2l-30.3 -4.6l-23.1 10.7l-24.3 -2.6l-18.1 8.9l-26.5 29.5l4.7 13.4l37.5 13l1.8 13.1l-7.9 14.1l-37 11.4l-14.1 -7.6z" />
  </g>
  <g data-id="183">
    <path d="m1568.8 415.3l0 0l-10 238l30.9 40.4l44.5 25.4l36.1 56l17.9 3.4l8 16.8l48 13.8l37.4 2.1l17.7 9.9l2 18.6l65.9 42.3l16.5 -5.4l28.3 3.1l-1.9 -75.8l142.3 2.7l2.2 -52.3l16.1 -500.6l-0.1 0l-33.2 -0.6l-37 -0.2l-96.8 -0.4l-62.5 -0.6l-37.2 -0.2l-60.1 0.1l-19.8 -0.1l-11.8 -0l-0.3 -0l15.3 46l-2.8 86.2l-34.7 -3.5l-45.5 29.1l-13.9 -1.3l-16 -16.6l-43.1 -7.3l-2.4 30.7z" />
  </g>
  <g data-id="185">
    <path d="m5814.8 1274.2l0 0l-1.5 5.8l4.3 2l2.5 3.9l5.9 1.1l7 -2.9l1.8 4.4l-4.3 0.8l0.4 3.3l3.2 1.1l-2.3 3.8l2 4.6l3 1.9l6.6 -28.1l-11.2 -0.7l-3.4 6.5l-14.2 -7.3z" />
    <path d="m5342.2 1212.2l0 0l2.1 7.7l44.6 13l44.8 30.9l2.1 -16.4l34.1 -0.1l32.7 13.2l27 7.5l-7.9 -21.6l10.7 -12.1l20.7 13.2l29.1 -23l58.9 11.3l70.3 25.5l112.2 -35.9l-14.3 18.4l9.4 22.3l24.2 -7.6l8.1 -15.3l21.8 -96.6l-10.5 -22.6l19.7 -8.2l1.6 -16.3l-34.1 -3.8l-26.4 -75.3l1.5 -19l-54.4 -19.7l2.2 -55.1l-19.5 1.9l-53 -31.6l-26.8 -3.9l-129.7 -38.5l-60.9 12.2l-11.3 20.9l-9.8 -6.5l-11.4 32.6l-25.9 -7.9l-12.5 17.9l-24.6 13.3l-1.5 13l16.4 12.2l-37.6 50l13 94.8l-19 30.4l26.8 -8.4l8.8 11l-36.8 46.1l42.5 2.9l-24.7 27.7l-32.6 -4.8z" />
  </g>
  <g data-id="187">
    <path d="m3588.5 1056.5l0 0l-15.8 128.1l230.4 90.7l13.3 11.3l39.8 10.5l8.1 -15.9l39.4 6.9l-11.4 22.9l58 25.8l49.1 26.5l38.8 6.7l34.5 19.7l35 14.4l5.8 -16.3l69.7 -3.1l-15.1 -11.1l2.7 -49.1l17.4 3.2l12.1 -30.8l11.6 6.1l-1.8 -33.4l18.2 -6.6l38.9 7.4l1.7 -48.7l-16.4 -2.8l11.1 -17.5l15 0.1l-2.6 -23.4l-13.6 -12.8l4.2 -28l-15.2 -44.7l13.8 -40.7l-11.6 -32.8l7.1 -2.2l-3.5 -4.9l-30.4 -6.8l-63.4 -36.7l-11.2 -8.5l-29.7 -7.3l-44.4 -28.5l-15.9 -5l-159 -23.1l-101 78.5l-26.7 12.3l-16.7 -80.3l-36.5 2.5l-112.2 -8.5l-17.1 99.5l-16.8 13.8l8.9 15.8l3.3 26.5z" />
  </g>
  <g data-id="189">
    <path d="m4289.3 621.5l0 0l21.6 72.4l5.4 29.8l17.5 40.5l-1.3 14.9l33.5 -8.3l-9.4 46.6l23.5 10.8l93 72.4l4.6 -0.3l41.5 27.2l14.5 -6l-6.7 11.5l27.9 24.3l43.8 35.9l18.8 -1.6l-1.1 8l68.4 27.6l104.6 -3l9.1 12.6l-1.5 -12.4l40.4 5.6l41.7 -8.3l79.2 5.6l-13.5 -53.5l-16.4 -14.6l5.7 -32.3l-20.4 -17.7l7 -19.6l-18.5 -17.9l4.3 -22.8l-7.4 -54.5l-12.8 -15.7l-39.3 -133.6l-11.6 -4l2.3 -28.3l4.3 -25.4l-10.7 4.9l-13.8 -43.5l-45.1 -47.2l-9.7 13.7l-22.8 -18.7l-2.9 -14.8l-23.6 -0l-3.3 -9.5l-16.8 18.5l-5.6 43.8l-17.5 8.7l-10.4 -13.8l10.2 -27.1l-9.4 -27.6l-12.1 0.1l-15.2 18.4l-4.2 31.9l-35.1 -9.2l-36.4 10.4l18.4 -26.3l-0.5 -21.9l-17.1 -18l-18 9.7l-14.8 33.1l-0.8 25.2l-20.1 3.6l-8.8 -8.6l-3.4 -27.4l-17.6 -10.3l-20.8 6.3l-71.2 53.5l-9.5 28.9l-18.7 -18.1l-6.5 -42.8l-10.9 2.2l-13.4 20.8l5.4 24.5l-13 35.6l-26.8 25z" />
  </g>
</svg>
