<?xml version="1.0" encoding="UTF-8"?>
<!DOCTYPE svg PUBLIC '-//W3C//DTD SVG 1.1//EN' 'http://www.w3.org/Graphics/SVG/1.1/DTD/svg11.dtd'>
<svg viewBox="0 0 1000 1063.01" xmlns="http://www.w3.org/2000/svg">
  <g data-id="001">
    <path d="m470.489 702.128l1.234 9.581l3.253 5.414l-1.136 3.579l5.194 2.818l1.923 3.844l-0.018 2.959l1.744 9.609l-5.106 1.947l0.408 2.292l2.914 5.07l0.284 4.418l6.397 5.827l1.005 3.862l2.195 1.694l2.147 3.957l4.052 3.029l3.577 5.775l0.349 4.864l3.626 10.029l1.894 3.499l3.398 2.296l0.346 5.917l5.901 -0.264l24.571 -0.097l0.083 -20.044l0.179 -57.295l-0.005 -60.366l-20.84 -0.448l-29.2 -0.411l0.786 4.503l-4.48 3.742l3.258 2.736l-3.09 2.529l3.324 -0.197l0.344 2.489l-3.112 0.457l-0.486 5.997l-1.579 0.471l-1.434 -2.996l-4.73 -0.843l-1.058 10.213l-2.383 -0.959l-2.571 1.172l0.371 4.335l-3.53 2.995z" />
  </g>
  <g data-id="003">
    <path d="m398.285 18.087l0.228 1.918l5.702 -2.645l2.625 -1.823l1.632 -2.941l0.508 -5.119l1.002 -3.456l0.21 -1.682l-0.131 -1.947l-3.854 -0.393l-3.288 0.987l-1.941 1.803l-0.978 3.027l-0.346 2.271l0.309 4.838l-0.362 2.705l-1.317 2.457z" />
    <path d="m388.437 48.52l4.227 2.906l5.548 -2.114l4.491 -5.284l-1.585 -2.378l-7.926 2.906l-4.755 3.963z" />
    <path d="m367.646 36.715l-0.488 1.446l1.753 2.618l1.154 0.398l11.172 -3.269l1.948 0.389l1.351 0.778l0.907 -1.815l0.598 -1.167l2.613 -1.881l2.614 -5.099l-0.57 -1.101l-1.919 -1.493l-12.799 3.649l-5.483 2.291l-2.849 4.256z" />
    <path d="m349.632 57.483l0.88 2.001l1.758 -1.217l4.407 -6.94l7.12 -3.968l1.243 -2.149l-1.695 -1.819l-8.589 5.787l-3.164 2.645l-1.961 5.66z" />
    <path d="m353.062 27.338l-4.068 4.139l4.633 7.778l7.911 -0.662l-0.904 -4.634l-3.39 -4.966l-4.181 -1.656z" />
    <path d="m347.082 12.848l1.469 5.304l9.199 4.114l6.65 8.742l6.161 -5.302l4.01 -4.874l9.291 -1.864l1.369 -4.446l-2.64 -4.734l-2.395 0.76l-5.429 6.413l-5.77 -8.177l-1.118 -3.257l-6.021 2.683l-12.063 2.484l-2.712 2.155z" />
    <path d="m344.675 70.44l1.393 2.892l-0.893 4.71l2.842 0.067l1.246 -0.454l3.982 -3.142l2.546 -3.292l1.23 -0.884l3.287 0.811l6.459 -1.623l0.815 -1.371l-0.509 -1.12l-2.423 -0.078l-2.582 -1.323l0.394 -1.987l1.187 -1.372l10.244 -4.555l4.822 -0.453l1.024 -0.439l1.544 -1.346l-3.044 -2.597l-2.492 -3.523l-2.285 -0.423l-2.893 2.421l-1.508 2.537l-2.257 2.492l-3.028 2.294l-6.086 3.168l-1.406 1.164l-1.132 1.312l-0.12 1.46l-4.938 1.956l-5.202 2.428z" />
    <path d="m322.4 118.352l0.439 19.812l-0.033 82.746l-0.008 20.54l-0.089 20.586l40.805 -0.118l61.635 0.048l0.295 -20.504l-0.559 -6.802l0.098 -13.805l-20.254 0.19l0.049 -20.521l-20.755 -0.095l0.432 -81.857l-1.405 -0.537l-4.621 -3.225l-6.845 -5.738l-10.988 -9.713l-6.993 -6.677l-1.78 5.38l-1.382 1.252l0.199 4.384l-2.45 2.433l-4.041 2.678l-5.632 2.124l-6.262 3.387l-6.322 4.399l-2.087 0.108l-1.445 -0.475z" />
  </g>
  <g data-id="005">
    <path d="m120.236 423.373l0.048 19.933l18.743 0.204l1.444 -0.04l60.504 0.201l17.44 0.261l2.849 0.078l0.15 -20.008l0.169 -80.961l-80.741 -0.546l-20.299 0.044l-0.208 40.471l-0.099 40.364z" />
  </g>
  <g data-id="007">
    <path d="m313.35 22.122l-0.293 1.577l0.587 1.863l3.032 2.436l4.89 -0.287l1.467 -5.733l-0.88 -3.441l-1.858 -0.143l-1.565 2.438l-5.379 1.29z" />
    <path d="m219.353 134.476l0.367 3.651l0.088 40.848l-0.033 41.359l51.441 -0.205l51.589 0.781l0.033 -82.746l-0.439 -19.812l-2.446 -0.804l-1.569 -2.061l0.305 -1.421l1.799 -1.28l2.333 -4.092l0.584 -1.476l0.017 -1.381l0.934 -5.043l0.636 -1.119l4.178 -1.747l2.861 -2.396l2.407 -3.135l0.185 -1.468l-2.909 -5.685l-2.137 -5.683l-0.267 -2.244l3.031 -1.936l1.174 -2.299l-0.674 -1.58l1.153 -1.998l3.44 -0.21l1.241 -1.838l0.388 -1.547l4.399 -4.633l2.953 -8.615l1.776 -4.162l1.414 -1.653l1.123 -0.411l0.637 -1.962l-0.607 -1.259l-5.105 -6.777l-8.567 -7.466l-2.985 -1.155l-2.507 0.266l-1.397 0.733l-4.764 4.042l-0.861 1.903l-1.311 0.5l-5.38 -1.711l-1.698 -1.288l-1.461 0.597l-1.786 3.78l-1.731 1.932l-1.652 0.331l-2.292 1.131l-2.528 2.033l-0.346 2.276l-0.537 1.05l-2.154 1.901l-2.504 0.725l-2.093 -1.275l-1.638 0.226l-0.929 5.084l-1.467 0.94l-2.897 0.348l-1.946 -0.676l0.265 -2.73l-1.123 -0.688l-1.261 2.433l-3.249 4.405l-1.758 0.12l-3.586 -2.346l-0.712 -1.154l-0.507 -1.688l-3.169 0.535l-3.947 5.403l-0.97 1.021l-1.506 0.707l-5.989 0.865l-2.058 0.845l-3.853 2.191l-2.292 2.471l-1.416 2.229l-1.318 1.033l-3.724 0.872l-1.116 -0.242l-2.226 0.378l-1.959 1.794l-4.211 2.129l-3.428 1.054l-3.658 0.54l-1.195 1.301l-1.871 0.91l-4.281 0.64l-2.35 -0.211l-0.402 56.999z" />
  </g>
  <g data-id="009">
    <path d="m762.088 566.352l1.599 4.402l-0.39 17.561l8.999 -0.474l-0.159 44.987l-0.01 10.196l0.036 4.39l-0.199 1.219l-0.019 1.554l0.244 2.341l-0.246 14.684l24.557 0.213l19.643 0.141l5.864 -0.014l0.092 -20.009l19.975 0.093l0.117 -20.082l0.483 -53.04l-2.102 1.207l-5.534 0.68l-3.622 2.947l-5.924 3.499l-4.083 4.491l-1.556 1.024l0.318 2.281l-0.318 1.324l-2.601 4.806l-1.973 2.791l-1.726 1.031l-5.13 0.284l-5.724 -2.058l-4.907 -5.108l-1.159 -1.207l0.199 -1.383l2.318 -1.48l1.759 -3.024l0.659 -2.389l1.718 -0.34l0.531 -1.242l-1.767 -4.876l-0.05 -1.544l1.263 -6.229l1.969 -1.022l0.033 -2.111l-23.225 0.152l-15.913 1.056l-0.49 -1.664l-1.928 -0.017l-1.623 -0.042z" />
  </g>
  <g data-id="011">
    <path d="m132.643 624.043l-0.387 5.194l1.87 0.73l1.748 -0.025l1.33 0.633l1.194 1.605l1.338 1.304l3.096 1.729l1.763 0.366l1.215 0.881l1.186 0.919l1.101 0.617l1.433 0.171l1.365 0.582l1.096 0.858l1.772 2.1l1.893 2.759l2.152 1.265l1.578 2.942l0.4 1.052l0.437 1.54l-1.232 2.372l-0.649 1.436l0.456 1.61l2.699 1.423l1.166 1.02l0.319 2.692l1.254 2.154l0.202 2.218l-0.832 2.581l0.522 2.034l1.566 2.232l0.642 1.601l0.049 1.57l1.919 1.412l3.227 2.682l2.018 1.048l2.495 3.684l1.519 1.14l1.873 1.129l3.647 1.557l2.921 2.46l4.286 0.894l1.495 0.586l1.801 2.259l0.413 2.188l-0.021 1.315l2.121 1.515l1.572 0.035l3.081 2.622l0.586 1.385l0.646 1.535l1.194 1.274l0.719 1.035l1.207 0.099l1.179 0.758l0.898 1.042l2.059 0.963l1.322 0.97l1.598 2.834l2.468 1.735l1.532 0.109l2.347 0.363l-1.998 -2.861l2.118 -5.629l3.951 -7.754l-2.322 -2.555l-0.063 -3.873l-2.78 -5.53l-4.131 -1.572l-3.646 -3.842l2.589 -3.568l-1.878 -2.994l1.264 -2.355l4.364 -2.624l2.842 -0.414l3.793 -3.834l0.708 -1.325l0.105 -80.432l-19.917 -0.104l-39.905 -0.007l-17.746 -0.004l-3.595 1.426l-2.761 6.072l0.123 3.978l-1.466 4.602l0.375 3.929l-2.276 10.068l-3.612 8.413z" />
  </g>
  <g data-id="013">
    <path d="m0.395 341.062l58.626 0.927l0.149 -20.38l40.171 0.647l21.274 0.074l-0.073 20.208l20.299 -0.044l0.001 -20.128l-0.092 -21.18l-0.236 -39.816l-2.835 -0.012l0.166 -41.156l-40.125 0.066l0.029 10.319l-0.089 8.411l-0.751 1.27l-1.335 0.137l-2.067 0.74l-1.404 0.737l-1.228 1.601l-0.477 1.723l-0.5 1.593l-0.383 1.068l0.193 1.51l-0.216 1.425l-0.91 1.16l-0.171 1.099l-1.257 1.318l-2.426 -0.186l-1.478 -0.671l-1.804 -0.593l-2.561 -1.679l-2.045 -0.033l-1.292 0.599l-1.163 0.712l-1.09 1.197l-0.345 1.042l-0.867 2.254l-0.546 1.058l-0.069 1.152l-1.497 1.198l-0.279 1.284l-0.051 1.457l-1.361 0.784l-1.104 -0.246l-1.893 -0.371l-1.897 -1.049l-2.787 -0.928l-1.243 0.159l-1.752 1.284l-1.311 1.821l-0.82 2.213l-0.084 2.015l-1.656 0.292l-1.399 0.676l-1.776 0.448l-1.574 1.058l-2.026 0.226l-1.377 0.994l-1.954 0.337l-1.075 0.658l-1.16 -0.527l-0.354 2.048l-2.902 0.362l-2.339 1.937l-1.061 1.257l0.033 1.078l-1.203 0.574l-2.476 1.769l-1.433 0.366l-2.207 2.621l-2.123 3.707l-0.402 1.122l-0.46 3.724l-1.032 1.445l-2.286 1.443l-0.936 1.217l0.039 1.257l0.496 1.635l0.648 1.584l0.022 1.095l-0.66 1.253l-1.085 0.766l-1.326 1.886l-0.513 1.757l-0.289 2.24l-0.534 2.09l-2.306 2.484l-1.101 1.452l-1.248 1.127l-2.149 1.427l-1.628 0.907l-1.177 0.857l-1.202 0.374l-0.495 1.042l-1.511 0.215l-1.084 1.1l0.054 1.312l-0.479 2.877l-0.61 2.532l-0.231 3.23l-0.336 2.278l-0.587 1.443l-0.244 1.082l-0.283 2.082z" />
  </g>
  <g data-id="015">
    <path d="m737.121 693.407l-0.028 6.719l0.08 10.768l0.098 11.432l0.033 4.867l-0.144 9.544l19.432 0.118l20.441 0l-0.102 10.537l19.807 -0.041l-0.006 -3.378l0.009 -3.348l-0.06 -13.246l-0.249 -39.887l0.067 -20.069l-24.557 -0.213l-12.763 -0.243l-3.06 -0.04l-10.715 -0.155l-8.226 -0.057l-0.077 11.562l0.018 15.128z" />
  </g>
  <g data-id="017">
    <path d="m200.974 443.671l-0.124 20.325l2.437 0.005l0.031 21.19l0.154 40.375l16.665 -0.261l1.716 -0.025l3.976 -0.038l8.218 0.02l89.144 -0.011l-0.069 -20.22l0 -6.726l-0.114 -13.431l-0.418 -20.71l0.112 -40.125l-101.287 -0.037l-0.143 19.183l-2.158 0.742l-18.138 -0.256z" />
  </g>
  <g data-id="019">
    <path d="m323.007 484.874l0.114 13.431l0 6.726l0.069 20.22l-0.017 60.398l-0.089 19.945l19.936 0.036l-0.048 20.097l39.978 0.053l39.899 -0.528l-0.033 -60.136l-0.053 -62.143l0.253 -18.726l-19.494 0.663l-20.294 -0.033l-39.954 -0.112l-20.267 0.107z" />
  </g>
  <g data-id="021">
    <path d="m510.17 804.409l1.718 6.523l2.185 1.981l1.244 -0.524l5.961 2.047l-2.569 3.613l0.119 2.077l4.114 1.15l5.586 -0.604l5.101 1.416l4.026 -0.493l3.019 1.659l-0.226 40.18l-2.74 2.322l-6.307 2.392l-3.593 -0.311l-4.31 6.986l-2.61 2.384l-1.227 4.166l1.103 1.857l19.664 -0.011l3.236 -0.029l16.364 -0.188l19.477 0.013l0.012 2.875l19.347 -0.178l38.842 -0.618l-0.065 -8.729l0.034 -1.581l0.028 -4.441l0.039 -3.915l0.461 -20.672l-0.12 -39.531l-19.781 0.3l0.041 -2.714l-19.484 0.133l-39.148 0.115l-19.068 -0.014l-24.571 0.097l-5.901 0.264z" />
  </g>
  <g data-id="023">
    <path d="m275.063 866.297l1.376 3.501l3.059 1.112l1.134 0.379l1.654 1.121l2.671 1.388l2.871 1.146l1.352 0.77l1.884 1.586l1.714 1.285l3.549 4.919l0.95 2.055l1.014 1.813l0.351 1.479l-0.177 1.369l1.784 0.492l0.638 1.035l-0.291 1.535l-0.473 1.219l-1.528 1.806l-1.22 1.558l-1.344 1.437l-3.366 3.454l-1.838 1.401l-0.786 1.541l-0.087 1.274l-1.602 3.039l-1.181 2.45l-0.317 1.606l-2.124 3.035l-2.33 1.253l-1.09 1.248l-0.205 1.546l0.086 1.408l0.417 3.369l-0.334 5.296l-0.007 1.635l-0.36 1.25l0.225 1.211l0.558 5.249l1.054 4.338l1.774 6.284l3.442 -1.672l5.772 -0.272l1.714 1.251l4.736 0.451l1.509 -2.01l6.734 -2.621l1.257 -2.089l3.081 -0.822l5.361 -3.972l2.136 -4.078l3.924 -0.189l5.469 -2.369l6.116 -0.985l3.773 -2.368l4.028 -4.717l5.753 -1.458l3.427 -1.807l3.801 -5.955l3.472 -2.41l1.373 -2.761l3.794 0.269l0.127 -46.888l-0.419 -9.859l-12.844 -0.353l-75.438 0.363l0.712 1.595l0.114 1.679l0.184 1.234l0.286 1.742l-0.211 1.244l-0.966 2.476l-0.417 1.183l-1.253 1.279z" />
  </g>
  <g data-id="025">
    <path d="m501.403 932.468l0.01 48.821l77.12 0.208l-0.01 2.564l1.004 -0.024l18.535 -0.173l38.913 -0.385l0.086 -19.684l0.118 -19.806l0.443 -32.698l0.134 -6.539l-0.05 -19.658l-38.842 0.618l-19.347 0.178l-0.012 -2.875l-19.477 -0.013l-16.364 0.188l-3.236 0.029l-19.664 0.011l0.992 3.379l-2.846 5.852l-6.987 2.918l-5.07 0.075l-5.435 7.419l0.028 19.717l-0.044 9.878z" />
  </g>
  <g data-id="027">
    <path d="m637.671 875.561l0.035 9.534l0.036 19.659l6.326 -0.056l34.624 0.057l10.854 0.123l6.504 -0.014l19.453 0.266l19.389 0.305l-0.202 -19.684l0.084 -9.83l-0.006 -4.101l0.05 -6.012l2.778 0.033l0.184 -39.295l-0.101 -19.837l-39.995 -0.474l-11.779 -0.046l-6.96 0.025l-1.165 0.006l-19.837 -0.104l-19.859 0.112l0.12 39.531l0.235 19.705l-0.735 4.882l-0.028 4.441z" />
  </g>
  <g data-id="029">
    <path d="m975.211 410.023l0.011 2.278l1.322 1.63l1.762 0.522l1.921 2.073l1.921 2.827l1.496 3.569l1.31 -0.341l0.043 -2.098l-0.464 -3.58l0.729 -1.508l1.192 -0.754l2.085 0.325l1.581 -2.364l-0.369 -2.827l0.687 -2.766l1.72 -1.398l1.919 -4.386l2.803 -3.871l1.037 -0.471l1.606 0.487l0.401 -1.6l-0.688 -2.276l-1.153 -1.018l-1.906 -0.369l-0.079 2.822l-0.199 1.32l-3.747 1.242l-1.369 -1.527l-2.635 -0.448l-2.53 1.171l-4.076 0.255l-1.703 -0.792l-0.405 -1.467l-1.131 -0.803l-0.929 1.339l-2 7.382l1.265 4.046l0.199 1.812l-1.166 0.93z" />
    <path d="m906.294 445.699l-0.226 5.131l8.137 4.648l-1.469 -3.687l0.7 -6.083l-0.361 -2.898l-6.781 2.887z" />
    <path d="m848.025 565.843l-1.023 1.154l59.645 0.343l0.821 -1.988l2.38 -4.11l1.69 -4.005l0.974 -4.286l3.058 -7.775l-0.233 -3.156l1.093 -2.039l1.468 -2.511l3.66 -2.346l1.074 -4.277l1.412 -3.17l10.34 -6.666l-0.286 -2.398l-1.794 -2.764l0.2 -2.033l1.93 -2.373l2.878 -2.007l1.942 -0.531l-0.053 -2.787l-2.159 -1.933l-0.17 -4.776l1.234 -2.848l3.02 -5.58l1.553 -0.983l2.417 -0.802l2.396 -6.886l0.018 -2.506l0.583 -1.251l4.853 0.737l1.607 -0.921l0.38 -2.719l2.695 -1.987l0.939 -1.898l1.518 -0.386l-0.121 -4.563l-0.345 -1.736l0.872 -4.384l2.077 -1.577l0.701 -1.076l-2.693 -2.805l-0.111 -3.614l0.82 -8.779l1.375 -2.506l4.111 0.034l0.359 1.968l3.187 -0.509l1.186 -2.675l0.943 -4.451l-1.585 -0.635l-0.379 -2.232l0.095 -1.329l1.623 -1.742l0.686 -1.549l-1.221 -2.857l-0.917 -1.095l-1.768 -0.629l-3.769 -0.279l-2.823 2.687l-1.593 0.699l-1.283 -0.262l-0.974 -1.624l-2.204 2.917l-1.197 3.418l-5.002 2.037l-1.264 3.616l-1.05 4.324l0.199 3.084l0.362 1.013l-0.093 3.345l-2.147 -0.406l-2.413 0.497l-2.542 1.255l-1.956 2.864l-3.312 2.318l-3.149 -0.612l-1.25 -2.17l-1.52 0.502l-1.152 1.312l-0.773 4.169l0.43 2.678l-1.673 1.537l-1.145 2.247l-0.517 3.643l0.009 3.126l-0.713 2.614l-3.19 4.113l-3.05 2.618l-3.171 4.245l-2.358 4.808l-3.918 6.019l-2.387 7.207l-2.046 3.998l-1.011 1.168l-0.816 2.129l-1.091 3.116l-0.196 1.698l2.104 1.46l1.316 1.911l0.29 1.125l-0.196 4.543l-3.406 1.272l-2.369 -3.687l0.139 -2.19l-2.305 -1.709l-7.457 6.767l-3.796 -0.165l-2.23 -1.232l-2.607 2.82l-3.171 1.426l-3.763 -0.424l-1.337 0.308l-4.728 3.109l-4.446 5.751l-1.512 3.438l-6.89 9.229l-2.901 4.784l-2.472 3.165l-0.152 1.291l0.56 2.581l-0.225 3.369l-1.653 2.597z" />
  </g>
  <g data-id="031">
    <path d="m97.696 214.867l0.019 3.142l0.006 2.259l40.125 -0.066l80.22 -0.059l1.71 0.19l0.033 -41.359l-0.088 -40.848l-0.367 -3.651l0.402 -56.999l-3.762 -0.437l-2.695 0.758l-9.012 4.702l-14.817 5.314l-2.305 0.826l-6.655 3.465l-4.915 1.078l-3.331 0.116l-2.823 -0.64l-4.85 0.516l-9.211 2.462l-3.107 -0.623l-1.891 -0.935l-2.384 -1.51l-3.304 -2.948l-1.2 -0.343l-3.074 -0.592l-9.124 -9.666l-3.074 0.024l-1.381 0.12l-3.502 2.183l-0.888 1.175l-0.017 1.559l-0.477 2.926l-1.464 0l-1.989 -0.959l-1.151 0.647l-2.433 -0.072l-0.691 1.511l-1.364 1.271l-0.593 1.822l1.102 0.527l2.532 0.216l1.085 1.198l-0.181 1.63l-1.644 1.079l-1.957 2.084l-0.986 1.318l0.543 1.389l-0.805 1.676l-1.529 0.503l-1.167 -0.671l-1.989 0.623l-1.135 0.192l-2.318 -2.275l-1.546 1.844l-1.118 -0.431l-0.263 -1.102l-1.529 -0.335l-0.608 -2.037l-0.691 10.154l-0.008 4.857l-0.054 24.063l-0.065 2.009l-0.023 4.017l-0.036 11.161l-0.02 2.652l-0.025 23.584l0.033 1.73l-0.006 1.791l-0.027 2.17l-0.101 12.83l0.01 4.626l-0.049 10.571z" />
  </g>
  <g data-id="033">
    <path d="m120.284 443.306l-0.1 20.507l3.446 0.051l-0.039 61.262l0.188 40.172l79.708 0.171l0.122 -22.408l-0.137 -17.496l-0.154 -40.375l-0.031 -21.19l-2.437 -0.005l0.124 -20.325l-60.504 -0.201l-1.444 0.04l-18.743 -0.204z" />
  </g>
  <g data-id="035">
    <path d="m203.472 525.565l0.137 17.496l-0.122 22.408l0.019 20.098l19.917 0.104l19.972 0.042l19.919 -0.181l19.865 -0.043l20.025 0.08l19.969 0.08l0.017 -60.398l-89.144 0.011l-8.218 -0.02l-3.976 0.038l-1.381 0.022l-17 0.264z" />
  </g>
  <g data-id="037">
    <path d="m691.274 254.2l-0.147 7.507l1.578 0.036l-0.2 61.227l41.186 0.112l60.18 2.205l0.163 -15.939l-2.274 0.108l-1.03 -0.94l-1.682 -0.105l-1.813 -1.295l-1.107 -1.742l-0.19 -1.202l-1.401 -0.333l-2.209 -1.228l-1.093 -2.297l1.365 -1.921l1.165 -1.373l1.061 -1.155l1.258 -0.751l1.364 -2.141l1.562 -1.35l0.631 -1.554l1.225 -0.326l0.724 -1.919l-1.421 -2.023l-2.311 0.112l-1.579 -3.91l-0.038 -1.842l0.609 -1.456l1.088 -0.79l-1.242 -1.884l-2.045 -0.081l-1.072 0.345l-0.915 -1.277l-2.231 -1.053l-0.88 -1.113l-2.031 -0.886l-1.873 -0.096l-0.893 -1.283l-2.344 -1.728l-1.073 -0.261l-0.911 1.925l-1.271 0.211l-2.069 -1l-1.804 0.262l-1.074 -0.373l-1 -1.222l-0.03 -1.082l-0.061 -1.007l-1.399 -0.13l-2.231 1.431l-2.457 0.566l-1.487 0.94l-1.411 -1.195l-1.406 -0.757l-1.212 -0.378l-1.881 -0.73l-1.035 -1.125l-7.489 -5.405l-1.424 2.125l-1.062 0.54l-1.24 -0.19l-1.153 0.356l-1.158 1.033l-1.008 -0.763l-0.506 -1.314l-1.305 -0.498l-0.933 -1.006l-1.483 0.163l-0.841 -1.514l-1.919 -1.068l-1.504 0.454l-0.215 1.407l-1.768 0.444l-1.753 -0.994l-0.222 -1.242l-1.181 -3.075l-0.205 -1.163l-1.219 -0.385l-1.402 0.097l-1.526 -0.401l-1.085 1.52l-1.931 0.448l-2.422 -0.666l-1.235 0.925l-1.262 1.142l-1.369 0.449l-0.637 -1.541l-0.858 -1.428l-1.536 1.571l-0.662 1.813l-0.016 1.07l-0.247 1.936l-1.789 0.471l-1.662 0.15l-3.897 -0.304l-1.158 -0.13l-0.438 -1.233l-0.571 -1.161l-0.086 -1.218l-0.518 -1.293l-1.43 -0.853z" />
  </g>
  <g data-id="039">
    <path d="m657.999 766.422l-0.057 39.693l19.837 0.104l1.165 -0.006l6.96 -0.025l11.725 0.045l40.049 0.475l0.101 19.837l39.383 0.134l-0.23 -79.287l0.102 -10.537l-20.441 0l-19.432 -0.118l0.163 10.321l-59.455 -0.438l-19.869 -0.065l-0.001 19.868z" />
  </g>
  <g data-id="041">
    <path d="m631.351 261.731l0.032 20.565l0.17 81.205l0.012 20.193l20.292 -0.164l-0.487 20.261l40.776 -0.011l41.083 0.392l0.354 -57.334l0.107 -23.756l-41.186 -0.112l0.2 -61.227l-1.578 -0.036l0.147 -7.507l-1.374 -0.3l-1.16 -0.584l-1.909 0.379l-1.326 0.714l-0.48 -1.26l-0.572 -1.396l-2.498 -0.664l-1.057 0.358l-1.251 0.79l-1.6 0.121l-2.042 1.424l-1.267 -1.185l0.848 -1.88l-2.147 -0.754l-1.459 0.478l0.802 1.225l-2.656 0.771l-1.422 -1.101l-1.801 -0.795l-1.06 -0.132l-1.58 -1.655l-13.999 -8.651l-0.077 21.643l-18.836 -0.016z" />
  </g>
  <g data-id="043">
    <path d="m284.627 951.93l0.041 2.234l0.929 1.733l0.717 1.61l0.184 1.153l-0.602 2.618l-0.13 1.033l0.717 2.599l0.283 1.684l-0.34 1.776l-0.051 1.148l0.46 1.162l4.269 1.983l0.863 1.052l1.333 1.162l0.956 2.282l-0.096 2.552l0.191 1.021l0.383 1.021l0.646 1.224l-0.61 3.339l0.818 1.284l1.211 -0.166l0.568 2.167l0.2 3.089l0.43 2.478l0.499 1.733l0.215 1.059l0.069 1.68l0.192 1.316l1.035 1.272l0.3 1.338l-0.716 1.027l1.264 0.927l0.539 1.02l0.177 1.444l1.177 0.239l1.182 -0.294l1.212 0.894l0.213 1.074l0.647 1.221l1.57 1.043l1.259 -0.125l1.553 0.88l1.866 1.67l1.348 2.191l1.042 0.824l1.511 0.451l2.077 1.444l1.783 0.656l1.921 -0.063l1.027 -0.307l1.683 0.57l2.16 1.497l2.11 0.846l3.338 0.837l2.405 0.873l1.412 0.391l1.843 0.315l5.867 1.317l1.445 0.421l1.558 0.206l1.522 0.34l1.497 0.517l2.747 0.798l2.062 0.474l1.796 0.599l1.809 1.046l1.074 1.19l0.423 1.853l1.002 1.777l0.987 3.419l0.037 1.026l0.377 1.114l1.005 1.811l1.093 1.095l1.841 1.92l0.395 2.254l0.822 1.785l1.397 1.294l0.822 3.658l0.641 2.007l-0.033 1.227l-0.973 1.053l4.128 0.09l8.597 0.106l1.575 0.02l1.819 -0.046l2.062 0.031l6.664 -0.011l2.017 0.046l6.976 0.06l1.748 0.02l0.083 -29.292l-0.169 -39.072l-0.44 -83.198l-0.041 -4.048l-19.002 -2.372l-7.151 2.428l-3.24 3.454l-9.565 3.065l-3.794 -0.269l-1.373 2.761l-3.472 2.41l-3.801 5.955l-3.427 1.807l-5.753 1.458l-4.028 4.717l-3.773 2.368l-6.116 0.985l-5.469 2.369l-3.924 0.189l-2.136 4.078l-5.361 3.972l-3.081 0.822l-1.257 2.089l-6.734 2.621l-1.509 2.01l-4.736 -0.451l-1.714 -1.251l-5.772 0.272l-3.331 2.415z" />
  </g>
  <g data-id="045">
    <path d="m501.413 981.289l-0.04 9.774l0.195 29.243l-0.059 39.669l5.868 0.022l1.306 -0.005l2.245 0.026l1.752 0.006l4.48 -0.013l8.041 0.063l4.257 0.031l2.84 0.077l1.011 0.021l5.058 0.129l1.625 0.086l1.438 0.02l4.993 0.187l6.883 0.165l4.821 0.084l1.465 0.02l9.722 0.156l3.901 0.065l5.82 0.035l-0.504 -60.319l-0.005 -16.771l0.01 -2.564l-77.12 -0.208z" />
  </g>
  <g data-id="047">
    <path d="m598.834 784.043l0.002 3.363l0.023 16.541l19.484 -0.133l-0.041 2.714l19.781 -0.3l19.859 -0.112l0.057 -39.693l0.001 -19.868l-0.082 -20.102l-6.623 -0.04l-3.572 -0.009l-29.593 0.06l-6.642 0.08l0.081 24.28l-4.965 -0.01l0.024 14.668l2.168 1.788l2.791 -1.322l0.022 10.128l-11.694 -0.194l-1.045 1.521l-0.035 6.641z" />
  </g>
  <g data-id="049">
    <path d="m404.144 904.027l0.034 3.201l0.447 84.045l58.167 -0.219l38.582 0.009l0.04 -9.774l-0.01 -48.821l0.044 -9.878l-0.028 -19.717l-3.412 2.363l-7.404 1.678l-14.935 -1.627l-4.957 2.713l-1.657 2.352l-2.237 1.355l-0.948 4.638l-4.604 -3.345l-5.152 0.18l-7.44 -1.454l-4.164 2.081l-1.562 -1.556l-4.05 -1.977l-6.943 -5.532l-2.908 0.83l-3.195 -3.185l-2.156 0.36l-6.51 -0.715l-9.742 2.174l-3.297 -0.179z" />
  </g>
  <g data-id="051">
    <path d="m384.454 118.572l-0.432 81.857l20.755 0.095l-0.049 20.521l20.254 -0.19l-0.098 13.805l0.559 6.802l-0.295 20.504l42.433 -0.142l18.926 -0.004l0.047 -20.682l-0.1 -54.718l-31.455 -8.832l0.279 -1.287l-0.154 -1.488l0.474 -1.583l-0.468 -1.096l-1.122 -1.699l-1.209 -1.176l0.267 -2.245l-1.177 -0.894l-0.814 -1.253l-0.404 -1.657l-1.006 -0.974l-0.808 -1.907l-0.184 -1.068l0.12 -1.602l-0.852 -3.368l-0.573 -1.123l-1.258 -0.082l-0.765 -3.205l-1.636 -1.423l-0.467 -1.565l-0.229 -1.641l-1.37 -0.856l-1.648 -3.409l-0.508 -1.87l-0.935 -1.248l-1.349 0.437l-0.109 -1.533l-1.131 0.208l-1.169 0.448l-2.263 0.127l-1.333 0.213l-0.89 -1.053l-0.663 -1.715l0.452 -1.037l-0.848 -1.131l-1.034 1.343l-1.55 -0.503l-1.758 0.847l-1.485 0.077l-0.855 -1.082l0.969 -1.686l0.256 -1.949l-1.66 -2.255l-1.029 0.033l-0.854 -1.704l-2.047 0.285l-0.522 1.196l-0.32 2.152l-1.023 -0.534l-2.347 -0.055l-2.838 1.646l-1.002 0.25l-0.892 -2.42l-1.127 -1.158l-0.359 -1.114l-1.1 -1.213l-0.19 -1.398l-3.613 0.401l-5.945 -3.034l-5.285 -3.692l-3.22 0.643l-2.049 1.398l-1.913 -0.731z" />
  </g>
  <g data-id="053">
    <path d="m283.179 585.489l-0.063 20.1l0.074 60.361l1.97 -0.032l0.268 38.483l0.014 1.984l29.385 0.026l-0.686 -13.444l4.97 -4.038l4.171 -0.041l4.73 -2.543l55.812 -0.39l19.348 -0.209l20.256 1.359l-0.026 -21.454l-0.865 -1.268l0.31 -39.129l-39.899 0.528l-39.978 -0.053l0.048 -20.097l-19.936 -0.036l0.089 -19.945l-19.969 -0.08l-20.025 -0.08z" />
  </g>
  <g data-id="055">
    <path d="m637.062 963.796l-0.086 19.684l9.81 0.342l5.793 -0.003l23.278 0.768l12.981 0.014l6.385 0.021l19.357 -0.102l-0.081 -19.733l0.073 -19.874l0.322 -19.851l0.621 -19.93l-19.466 -0.266l-6.504 0.014l-10.854 -0.123l-34.624 -0.057l-6.312 0.055l-0.134 6.539l-0.443 32.698l-0.118 19.806z" />
  </g>
  <g data-id="057">
    <path d="m423.401 726.874l0.074 19.844l0.008 37.133l-0.035 20.573l78.013 0.013l6.282 -0.014l1.607 -0.001l0.474 -5.929l-3.398 -2.296l-1.894 -3.499l-3.626 -10.029l-0.349 -4.864l-3.577 -5.775l-4.052 -3.029l-2.147 -3.957l-2.195 -1.694l-1.005 -3.862l-6.397 -5.827l-0.284 -4.418l-2.914 -5.07l-0.408 -2.292l5.106 -1.947l-1.744 -9.609l0.018 -2.959l-1.923 -3.844l-5.194 -2.818l1.136 -3.579l-3.253 -5.414l-1.234 -9.581l3.53 -2.995l-0.371 -4.335l2.571 -1.172l2.383 0.959l1.058 -10.213l4.73 0.843l1.434 2.996l1.579 -0.471l0.486 -5.997l3.112 -0.457l-0.344 -2.489l-3.324 0.197l3.09 -2.529l-3.258 -2.736l4.48 -3.742l-0.855 -4.504l-29.27 0.106l-38.118 0.06l0.026 21.454l-0.028 39.77z" />
  </g>
  <g data-id="059">
    <path d="m753.321 1036.48l0.103 12.978l0.094 12.92l5.425 -0.01l3.551 -0.224l5.456 -0.022l2.75 -0.021l13.955 -0.045l3.465 0.065l7.304 0.136l9.799 0.178l3.107 0.111l11.679 0.223l9.313 0.159l4.558 0.086l2.531 0l-1.512 -5.107l-0.428 -3.346l-0.088 -5.89l-0.077 -5.135l0.395 -1.809l-0.691 -1.518l-0.707 -2.791l-0.049 -2.055l0.822 -6.301l1.45 -5.336l-6.597 -0.047l-2.953 -0.087l-53.325 -0.273l0.022 13.019l-13.416 0.09l-5.937 0.053z" />
  </g>
  <g data-id="061">
    <path d="m842.192 627.554l-0.117 20.082l30.03 -0.087l6.643 0.012l1.54 -5.424l2.061 -3.774l0.567 -1.879l-0.06 -4.293l1.041 -4.53l0.867 -2.247l1.266 -8.493l1.42 -3.81l1.004 -6.269l0.036 -1.597l2.565 -9.356l3.474 -7.927l1.557 -4.34l3.2 -3.649l2.074 -1.46l1.955 -3.111l3.331 -8.063l-59.645 -0.343l-2.03 2.289l-0.409 2.526l-0.844 1.632l-1.043 1.069l-0.483 53.04z" />
  </g>
  <g data-id="063">
    <path d="m240.506 726.202l2.087 2.492l0.838 1.887l2.024 1.31l1.529 1.181l1.75 2.272l1.397 1.558l0.559 2.488l0.956 2.13l1.593 1.202l0.889 2.114l0.689 1.148l1.644 0.965l1.239 1.128l0.871 1.524l0.374 1.38l0.336 1.91l1.593 1.794l1.693 1.546l1.128 1.292l1.059 2.125l0.322 2.934l0.444 1.436l0.164 1.094l0.756 2.187l0.822 2.734l1.511 2.001l1.498 1.983l-1.857 6.781l0.087 2.581l-0.472 1.791l57.067 0.074l0.091 -39.623l-0.463 -39.361l-9.895 0.146l-29.385 -0.026l-0.014 -1.984l-2.632 -1.878l-4.977 0.112l-0.471 2.744l-3.422 5.104l-4.206 -1.013l-3.027 -3.363l-3.01 2.71l-3.827 -1.032l-4.908 6.262l-0.122 6.887l2.618 5.236l-16.941 0.032z" />
  </g>
  <g data-id="065">
    <path d="m404.625 991.273l0.169 39.072l-0.083 29.292l3.362 0.038l5.796 -0.049l1.32 0.014l9.672 -0.094l5.09 -0.014l3.245 0.043l4.921 -0.094l2.814 0.004l4.028 -0.072l2.829 -0.045l3.525 0.027l7.878 0.059l3.507 -0.087l9.043 0.22l3.181 0.084l2.247 0.107l4.99 0.18l4.65 -0.035l14.701 0.054l0.059 -39.669l-0.195 -29.243l-38.582 -0.009l-58.167 0.219z" />
  </g>
  <g data-id="067">
    <path d="m569.367 383.055l-0.189 81.343l33.169 0.124l0.066 20.794l39.807 0.077l-0.082 -20.676l8.487 -0.018l47.577 0.108l0.491 -20.394l-6.887 -0.042l0.34 -40.59l-40.776 0.011l0.487 -20.261l-20.292 0.164l-12.926 -0.685l-39.281 -0.592l-9.991 0.638z" />
  </g>
  <g data-id="069">
    <path d="m467.222 412.759l0.404 51.379l13.019 0.012l39.071 0.046l38.603 0.12l10.859 0.082l0.189 -81.343l-0.565 -20.689l-19.769 -0.089l-81.364 0.152l0.188 40.606l-0.636 9.723z" />
  </g>
  <g data-id="071">
    <path d="m796.501 667.424l-0.067 20.069l0.249 39.884l0.06 13.249l-0.009 3.348l0.006 3.378l51.042 -0.112l0.743 -2.498l1.276 -7.908l0.494 -1.353l1.987 -2.956l0.827 -2.121l0.322 -3.1l0.239 -2.303l1.996 -6.984l1.98 -3.935l2.504 -3.304l0.427 -3.523l-0.279 -3.364l1.414 -5.219l4.192 -3.939l3.321 -2.244l6.198 -2.863l3.821 -3.55l3.334 -4.625l1.111 -2.966l0.902 -4.127l-0.164 -4.328l-0.776 -2.459l-1.417 -4.492l-3.189 -7.62l-0.585 -3.152l-0.109 -3.336l0.4 -1.408l-6.643 -0.012l-30.03 0.087l-19.975 -0.093l-0.092 20.009l-5.864 0.014l-19.643 -0.141z" />
  </g>
  <g data-id="073">
    <path d="m422.763 502.975l0.053 62.143l29.026 -0.006l9.906 0.003l18.977 0.078l19.577 -0.027l58.367 -0.209l23.672 1.033l20.085 0.003l-0.043 -40.501l0.092 -20.096l-0.06 -20.081l-0.066 -20.794l-33.169 -0.124l-10.859 -0.082l-38.603 -0.12l-39.071 -0.046l-13.019 -0.012l-25.331 -0.091l0.041 20.246l-19.321 -0.044l-0.253 18.726z" />
  </g>
  <g data-id="075">
    <path d="m733.583 346.838l-0.354 57.334l20.105 0.562l-0.535 40.433l20.173 0.841l-0.475 20.079l11.569 0.384l-0.374 20.162l19.209 0.494l10.08 0.241l-0.237 6.362l10.037 0.604l20.273 -0.016l-0.419 5.748l10.871 -1.96l5.676 0.278l5.206 -0.89l0.921 -8.674l-0.173 -7.207l2.524 -7.089l1.405 -1.555l1.172 -0.661l1.105 -0.032l-0.364 -2.327l-4.059 -1.118l-1.103 -0.544l-1.187 -0.382l-1.197 -0.438l-1.986 -0.105l-1.47 -0.28l-0.684 -1.165l-0.954 -1.291l-1.826 -2.79l0.393 -1.159l-1.329 -2.115l-1.393 -1.252l-1.356 -0.392l-1.113 -0.814l-1.735 -1.51l-1.094 -1.468l-1.03 -0.807l-0.714 -1.57l-1.084 -4.527l0.38 -1.184l1.896 -1.361l0.294 -1.093l-0.128 -1.472l0.736 -1.018l0.088 -1.199l-0.366 -1.119l0.969 -1.19l1 -0.159l0.116 -1.45l0.384 -2.201l0.002 -1.33l1 -1.565l0.755 -1.176l-0.17 -1.072l0.205 -1.134l0.786 -1.44l0.968 -2.011l1.396 -2.234l1.918 -2.459l0.973 -1.176l-0.087 -1.18l1.028 -1.032l1.258 -1.999l0.11 -1.365l-0.045 -1.284l-1.464 -1.847l0.002 -2.031l-2.776 -2.259l-0.17 -1.101l-1.367 -0.772l-1.219 -1.14l-1.564 0.443l-1.145 0.96l-1.993 1.49l-2.387 3.049l-0.722 1.122l-2.159 1.076l-0.522 1.309l-1.319 0.244l-1.158 -0.654l-2.286 0.343l-1.191 -0.87l-1.667 -0.038l-1.58 0.547l-2.129 -0.323l-1.109 0.151l-1.151 1.299l-1.904 1.351l-0.337 -1.595l-1.348 -0.675l-1.029 -1.027l-0.356 -1.256l-0.731 -2.67l-0.692 -1.289l0.349 -1.007l1.462 -0.907l1.29 -1.843l-0.378 -1.371l1.342 -0.693l0.214 -1.778l-1.076 -1.541l-0.693 -1.734l0.05 -1.424l-0.258 -1.145l1.052 -1.618l1.294 -0.656l1.878 -1.57l1.41 -1.687l1.048 -0.44l1.329 -0.985l1.184 -2.105l-0.183 -1.396l1.304 -1.42l0.186 -1.482l0.72 -1.619l0.038 -1.561l-1.488 -2.159l-0.318 -2.45l-0.085 -1.541l0.223 -1.354l-0.624 -1.528l-1.081 -1.196l-2.216 -1.644l-1.047 -1.622l0.313 -1.293l2.95 0.672l1.256 0.543l1.409 0.174l1.095 -0.463l0.589 -2.539l-0.04 -1.52l1.032 -1.012l0.825 -2.846l-0.236 -2.68l-0.522 -1.268l-1.837 -0.507l-0.684 -1.25l-1.365 -1.613l-0.939 -2.304l-1.164 -1.221l-1.122 -0.755l-0.094 -1.428l0.37 -1.129l-0.121 -1.111l3.267 -0.885l1.304 -1.139l2.258 -0.458l0.133 -1.664l-1.137 -1.607l-2.327 -1.573l-1.183 -1.378l0.657 -1.238l-0.832 -1.238l-3.502 -1.109l-2.528 -1.699l-1.424 -1.128l-1.453 -2.401l0.073 -1.301l-0.697 -1.606l-1.266 -1.04l-1.06 -0.21l-1.585 0.171l-1.061 0.366l-0.714 -1.279l-1.024 -0.085l-2.148 0.308l-1.172 -0.795l-2.463 0.693l-1.701 -0.234l-1.478 0.046l-0.578 -1.366l-1.622 -0.706l-1.577 -0.608l0.499 -1.202l0.128 -1.945l-0.875 -2.389l-1.305 -0.556l-1.836 0.765l-1.734 -0.062l-1.584 0.77l-1.043 -0.147l-1.013 0.045l-0.817 1.393l-2.23 0.708l-0.163 15.939l-60.18 -2.205l-0.107 23.756z" />
  </g>
  <g data-id="077">
    <path d="m540.726 784.005l-0.083 20.044l19.068 0.014l39.148 -0.115l-0.023 -16.541l-0.002 -3.363l0.035 -6.641l1.045 -1.521l11.694 0.194l-0.022 -10.128l-2.791 1.322l-2.168 -1.788l-0.024 -14.668l4.965 0.01l-0.081 -24.28l-70.583 0.168l-0.179 57.295z" />
  </g>
  <g data-id="078">
    <path d="m642.139 464.715l0.082 20.676l0.059 20.03l40.405 -0.101l-0.106 20.146l40.614 0.216l0.891 -60.77l-25.881 -0.107l-47.577 -0.108l-8.487 0.018z" />
  </g>
  <g data-id="079">
    <path d="m792.169 966.804l-0.055 17.641l19.403 -0.05l20.531 0.297l-1.292 -3.25l-2.121 -7.29l0.626 -9.2l0.212 -3.124l-0.411 -4.02l-1.973 -3.595l-2.471 -2.262l-1.064 -0.974l-1.48 -1.82l-1.332 -3.44l-0.477 -2.923l0.592 -3.036l2.137 -1.98l1.956 -2.992l0.608 -2.25l-0.483 -1.694l-1.095 -3.844l-2.812 -3.377l-1.2 -2.68l-0.148 -1.644l1.496 -3.493l1.841 -4.936l-1.069 -3.607l-0.74 -1.226l-5.355 -0.023l-5.687 -0.059l-5.74 -0.032l-11.374 0.098l-0.158 7.316l-0.014 2.631l-0.2 5.086l0.005 1.067l-0.072 3.706l-0.02 1.336l-0.112 8.633l-0.047 8.174l-0.023 1.619l-0.225 7.966l-0.044 1.639l-0.059 3.255l-0.007 1.529l-0.034 5.035l-0.015 1.797z" />
  </g>
  <g data-id="081">
    <path d="m314.143 692.966l0.686 13.444l9.895 -0.146l0.463 39.361l-0.091 39.623l49.911 -0.148l3.646 0.04l24.997 -0.019l19.833 -1.271l-0.008 -37.133l-0.074 -19.833l0.028 -39.781l-20.256 -1.359l-19.348 0.209l-55.812 0.39l-4.73 2.543l-4.171 0.041l-4.97 4.038z" />
  </g>
  <g data-id="083">
    <path d="m692.146 403.78l-0.34 40.59l6.887 0.042l-0.491 20.394l25.881 0.107l-0.891 60.77l39.61 0.628l-0.682 19.913l1.591 20.171l1.928 0.017l-0.036 1.664l16.439 -1.056l23.225 -0.152l0.032 -2.08l1.023 -7.775l3.087 -5.409l2.163 -2.208l1.662 -0.688l2.406 -5.204l3.671 -9.306l0.55 -2.003l3.768 -2.701l1.97 -0.34l1.9 -4.009l0.311 -1.644l0.734 -1.294l1.638 -0.823l0.92 -1.613l0.824 -2.388l-1.942 -3.337l-0.519 -1.502l-0.26 -1.497l0.142 -1.354l0.724 -1.71l3.206 -4.504l1.075 -0.675l7.582 -2.612l1.118 -5.874l-20.273 0.016l-10.037 -0.604l0.237 -6.362l-10.08 -0.241l-19.209 -0.494l0.374 -20.162l-11.569 -0.384l0.475 -20.079l-20.173 -0.841l0.535 -40.433l-20.105 -0.562l-41.083 -0.392z" />
  </g>
  <g data-id="085">
    <path d="m467.377 300.638l0.282 20.575l0.012 41.217l81.364 -0.152l19.769 0.089l0.565 20.689l9.991 -0.638l39.281 0.592l12.926 0.685l-0.012 -20.193l-0.17 -81.205l-12.168 -0.026l-9.245 -0.909l0.428 10.091l-13.606 -1.262l-7.058 0.292l0.077 -9.629l-20.518 0.736l-54.503 -0.033l-47.028 0.289l-0.385 18.793z" />
  </g>
  <g data-id="087">
    <path d="m682.189 650.198l-0.198 16.702l15.549 -0.067l14.429 -0.026l5.365 -0.073l14.088 -0.059l5.759 0.042l8.226 0.057l10.715 0.155l2.373 0.052l13.45 0.231l0.246 -14.684l-0.244 -2.341l0.019 -1.554l0.033 -1.219l0.13 -4.39l0.01 -10.196l0.159 -44.987l-8.999 0.474l-40.04 -1.1l-19.289 -0.232l-21.49 -0.021l0.012 40.212l-0.017 9.801l-0.285 13.223z" />
  </g>
  <g data-id="089">
    <path d="m793.204 886.438l-0.01 19.579l11.374 -0.098l5.74 0.032l5.641 0.059l5.401 0.023l-0.69 -1.142l-2.269 -8.753l-0.279 -3.272l1.634 -7.611l2.078 -5.316l1.096 -9.829l0.837 -4.091l0.813 -2.475l1.226 -3.03l1.552 -2.686l4.651 -6.656l3.209 -5.953l2.394 -7.17l-0.674 -4.043l-0.045 -3.783l0.54 -3.566l-40.477 0.153l0.062 39.646l-3.662 0.003l-0.142 19.979z" />
  </g>
  <g data-id="091">
    <path d="m94.019 598.416l0.888 2.816l1.2 2.06l0.093 3.74l0.96 2.505l1.006 1.675l1.421 1.787l3.269 2.893l2.204 1.296l1.16 1.214l0.77 1.114l2.67 2.079l4.226 1.519l4.126 1.196l1.287 0.32l3.762 0.584l2.475 0.589l1.515 1.394l2.939 1.057l1.673 0.602l0.979 -4.812l3.612 -8.413l2.276 -10.068l-0.375 -3.929l1.466 -4.602l-0.123 -3.978l2.761 -6.072l3.595 -1.426l17.746 0.004l39.905 0.007l-0.019 -20.098l-79.708 -0.171l-0.016 33.439l-29.745 -0.32z" />
  </g>
  <g data-id="093">
    <path d="m13.276 548.052l-0.103 1.722l0.841 1.07l2.461 2.179l3.592 1.812l1.49 1.336l1.117 0.396l2.128 1.149l3.956 3.717l2.014 1.696l2.374 2.695l3.586 4.327l1.462 1.234l3.897 2.083l1.705 2.321l0.321 1.106l0.001 1.151l-0.46 1.316l-0.098 1.223l0.845 1.237l1.789 0.101l2.741 1.5l0.699 1.351l1.211 -0.889l1.548 0.093l1.42 1.981l1.812 3.192l0.015 1.184l-0.3 1.014l1.178 1.066l2.796 -1.516l1.062 -0.38l1.367 0.785l3.084 1.325l1.49 -0.463l2.389 0.7l2.483 0.727l2.361 -0.219l1.231 -0.615l1.23 0.207l1.757 0.979l2.599 0.477l1.684 0.137l3.41 -0.343l1.115 0.057l2.294 0.412l1.883 0.726l1.167 0.717l1.492 1.374l30.355 1.237l0.016 -33.439l-0.188 -40.172l-15.834 -0.001l-3.025 -0.033l-20.361 -0.999l-20.073 -0.038l-26.78 -0.034l-17.949 0.143l0.085 1.769l0.542 3.084l-0.135 1.415l-1.014 1.604l0.06 1.154l-1.402 2.429l-0.417 3.35l-0.369 1.35l-0.587 1.045l-1.194 1.329l-0.703 1.083l-0.818 2.088l-0.341 2.189z" />
  </g>
  <g data-id="095">
    <path d="m0 345.21l0.238 2.026l0.608 1.415l-0.317 2.054l-0.254 1.486l0.52 2.078l-0.276 2.587l0.628 1.27l1.653 1.369l4.05 0.25l2.021 0.803l1.783 0.508l1.846 -0.044l1.739 -0.407l1.868 -0.954l2.327 -0.367l1.876 1.147l1.261 1.431l1.86 1.053l3.207 2.794l0.235 1.026l-0.555 2.603l0.046 1.605l0.175 1.02l1.786 1.826l2.234 3.197l1.153 2.383l0.591 1.55l1.871 2.796l3.141 1.422l1.246 0.687l1.142 3.213l-0.419 2.815l-0.184 2.448l0.547 1.148l-0.199 1.602l-0.373 2.088l-1.326 0.573l-1.811 1.627l-0.853 1.462l-0.668 1.56l-2.916 2.965l-1.023 1.183l-0.219 1.126l0.745 2.629l0.091 1.414l-0.958 2.303l-0.851 1.221l-2.921 2.809l-0.798 1.184l-2.134 1.959l-2.159 1.14l-0.52 1.409l0.206 1.428l1.307 2.164l0.158 1.845l-0.574 1.152l-0.831 1.666l0.451 2.637l0.008 1.817l0.283 1.068l0.582 1.144l-0.298 1.934l16.845 0.613l60.436 0.201l20.956 -0.064l-0.048 -19.933l0.099 -40.364l0.208 -40.471l0.073 -20.208l-21.274 -0.074l-40.171 -0.647l-0.149 20.38l-58.849 -0.487l-0.142 1.209l0.181 1.317l-0.212 1.182z" />
  </g>
  <g data-id="097">
    <path d="m500.301 565.165l0.063 40.045l19.37 0.072l0.055 14.249l0.269 17.483l0.001 28.881l20.84 0.448l41.382 0.431l16.321 0.036l3.647 0.069l0.176 -100.886l-20.085 -0.003l-23.672 -1.033l-58.367 0.209z" />
  </g>
  <g data-id="099">
    <path d="m363.348 376.85l-0.13 27.112l104.641 -0.927l-0.188 -40.606l-0.012 -41.217l-0.282 -20.575l0.385 -18.793l-0.181 -20.02l-42.433 0.142l-61.635 -0.048l-0.279 6.717l-0.014 74.25l0.126 33.964z" />
  </g>
  <g data-id="101">
    <path d="m752.976 1003.84l0.199 14.018l0.113 12.127l0.033 6.499l5.937 -0.053l13.416 -0.09l-0.022 -13.019l53.325 0.273l2.953 0.087l6.597 0.047l0.457 -1.684l1.348 -3.243l1.237 -2.244l0.818 -1.85l0.616 -4.269l-0.583 -4.571l0.341 -1.752l0.317 -1.629l1.381 -2.441l0.509 -2.503l-1.155 -1.923l-3.334 -2.854l-4.817 -6.522l-0.615 -1.548l-20.531 -0.297l-19.403 0.05l-19.414 0.108l-19.46 0.167l-0.263 19.116z" />
  </g>
  <g data-id="103">
    <path d="m364.388 824.43l0.508 29.426l0.419 9.859l-0.127 46.888l9.565 -3.065l3.24 -3.454l7.151 -2.428l19.002 2.372l3.297 0.179l9.742 -2.174l6.51 0.715l2.156 -0.36l3.195 3.185l2.908 -0.83l6.943 5.532l4.05 1.977l0.224 -1.088l0.084 -47.597l0.026 -19.761l-0.038 -9.917l-0.044 -2.706l0.017 -2.219l0.035 -5.019l-19.581 0.228l-19.766 0.062l-39.514 0.196z" />
  </g>
  <g data-id="105">
    <path d="m578.524 984.061l0.005 16.771l0.542 60.322l12.314 0.313l4.641 0.135l1.958 0.057l3.696 -0.011l10.119 0.176l6.842 0.067l1.342 0.01l2.949 0.092l4.582 0.065l4.643 -0.01l4.783 0.035l3.477 0.016l8.12 0.203l25.742 0.698l1.675 -0.009l-0.392 -58.7l0.286 -17.864l0.01 -1.84l-23.278 -0.768l-5.793 0.003l-9.81 -0.342l-38.913 0.385l-18.535 0.173l-1.004 0.024z" />
  </g>
  <g data-id="107">
    <path d="m221.583 343.04l-0.169 80.961l101.287 0.037l-0.02 -20.414l40.536 0.338l0.13 -27.112l-0.126 -33.964l-141.639 0.155z" />
  </g>
  <g data-id="109">
    <path d="m14.007 476.901l-0.028 1.03l0.986 2.404l1.508 1.659l1.495 0.975l1.39 1.285l0.947 1.171l0.418 1.034l-0.995 3.537l-0.512 1.799l0.065 1.685l0.293 1.38l-0.213 1.132l0.007 1.013l0.141 1.584l1.437 1.666l1.003 2.14l0.625 3.299l-0.787 5.326l-0.323 1.722l-0.622 1l-1.934 1.285l-0.296 1.989l0.872 2.281l0.899 1.638l-0.488 2.12l-0.329 1.067l17.951 -0.104l26.78 0.034l20.073 0.038l20.361 0.999l2.398 0.068l16.461 -0.034l0.039 -61.262l-3.446 -0.051l0.1 -20.507l-20.956 0.064l-60.436 -0.201l-17.503 0.134l-0.97 1.097l-0.497 2.276l-0.078 1.154l0.099 1.096l2.368 2.694l-0.741 2.04l-0.143 1.084l0.011 1.178l1.361 4.044l0.614 3.497l0.835 1.086l0.017 1.179l-0.728 1.185l-1.554 1.203l-1.844 1.727l-1.382 1.535l-2.88 2.21l-1.533 2.367z" />
  </g>
  <g data-id="111">
    <path d="m423.449 804.423l0.219 19.749l19.581 -0.228l-0.035 5.019l0.035 1.258l-0.008 3.667l0.038 9.917l-0.026 19.761l-0.084 47.597l-0.224 1.088l1.562 1.556l4.164 -2.081l7.44 1.454l5.152 -0.18l4.604 3.345l0.948 -4.638l2.237 -1.355l1.657 -2.352l4.957 -2.713l14.935 1.627l7.404 -1.678l3.412 -2.363l5.435 -7.419l5.07 -0.075l6.987 -2.918l2.846 -5.852l-0.992 -3.379l-1.103 -1.857l1.227 -4.166l2.61 -2.384l4.31 -6.986l3.593 0.311l6.307 -2.392l2.74 -2.322l0.226 -40.18l-3.019 -1.659l-4.026 0.493l-5.101 -1.416l-5.586 0.604l-4.114 -1.15l-0.119 -2.077l2.569 -3.613l-5.961 -2.047l-1.244 0.524l-2.185 -1.981l-1.867 -6.523l-2.278 0.013l-6.282 0.014l-78.013 -0.013z" />
  </g>
  <g data-id="113">
    <path d="m219.831 247.821l-0.14 13.675l1.644 0.178l0.249 81.366l141.639 -0.155l0.014 -74.25l0.279 -6.717l-40.805 0.118l0.089 -20.586l0.008 -20.54l-51.589 -0.781l-51.441 0.205l0.054 27.487z" />
  </g>
  <g data-id="115">
    <path d="m602.382 525.492l0.043 40.501l52.379 0.375l3.232 0.016l24.519 0.14l21.566 0.17l-0.152 20.288l19.289 0.232l40.04 1.1l0.39 -17.561l-1.599 -4.402l1.623 0.042l-1.591 -20.171l0.682 -19.913l-39.61 -0.628l-40.614 -0.216l0.106 -20.146l-40.405 0.101l-0.059 -20.03l-39.807 -0.077l0.06 20.081l-0.092 20.096z" />
  </g>
  <g data-id="117">
    <path d="m776.931 747.392l0.23 79.287l19.785 0.132l40.477 -0.153l0.688 -4.541l1.46 -3.503l7.717 -13.781l4.621 -9.17l0.579 -1.831l-0.049 -4.275l-0.855 -3.753l-0.279 -2.935l0.263 -1.616l0.872 -1.548l0.447 -2.498l0.003 -1.521l-4.3 -9.814l-0.525 -4.862l0.148 -4.728l-1.203 -4.833l-0.026 -1.528l0.798 -2.683l-51.042 0.112l-19.807 0.041z" />
  </g>
  <g data-id="119">
    <path d="m322.701 424.039l-0.112 40.125l0.418 20.71l20.267 -0.107l39.954 0.112l20.294 0.033l19.494 -0.663l19.321 0.044l-0.041 -20.246l25.331 0.091l-0.404 -51.379l0.636 -9.723l-104.641 0.927l-40.536 -0.338l0.02 20.414z" />
  </g>
  <g data-id="121">
    <path d="m212.223 679.649l-2.589 3.568l3.646 3.842l4.131 1.572l2.78 5.53l0.063 3.873l2.322 2.555l-3.951 7.754l-2.118 5.629l1.998 2.861l1.969 0.706l2.178 0.181l1.556 0l2.827 0.561l1.995 1.474l2.321 1.004l2.038 -0.305l1.824 0.726l2.769 1.097l1.318 1.068l0.954 1.903l17.193 0.923l-2.618 -5.236l0.122 -6.887l4.908 -6.262l3.827 1.032l3.01 -2.71l3.027 3.363l4.206 1.013l3.422 -5.104l0.471 -2.744l4.977 -0.112l2.632 1.878l-0.268 -38.483l-1.97 0.032l-0.074 -60.361l0.063 -20.1l-19.865 0.043l-19.919 0.181l-19.972 -0.042l-0.105 80.432l-0.708 1.325l-3.793 3.834l-2.842 0.414l-4.364 2.624l-1.264 2.355l1.878 2.994z" />
  </g>
  <g data-id="123">
    <path d="m265.568 796.329l-0.084 2.27l0.247 2.657l1.101 1.315l0.436 1.677l-0.996 3.273l-0.048 2.726l0.601 1.22l1.122 1.474l3.15 3.116l1.053 1.413l0.2 1.801l-0.217 2.44l-1.288 2.233l-0.522 1.33l0.105 2.001l1.062 1.673l0.622 2.032l1.698 1.378l0.864 1.228l-0.058 2.703l0.015 2.163l0.384 1.407l-0.841 3.056l-0.688 1.31l-1.258 1.247l-0.186 1.098l0.759 2.181l3.552 4.643l75.7 0.108l12.844 0.353l-0.508 -29.426l39.514 -0.196l19.766 -0.062l-0.219 -19.749l0.035 -20.573l-19.833 1.271l-24.997 0.019l-3.646 -0.04l-49.911 0.148l-57.067 -0.074l-0.583 1.403l-0.859 1.261l-0.206 4.161l-0.814 4.329z" />
  </g>
  <g data-id="125">
    <path d="m467.581 261.825l0.181 20.02l47.028 -0.289l54.503 0.033l20.518 -0.736l-0.077 9.629l7.058 -0.292l13.606 1.262l-0.428 -10.091l9.245 0.909l12.168 0.026l-0.032 -20.565l18.836 0.016l0.077 -21.643l-1.731 -1.01l-7.814 -4.588l-16.576 -9.774l-5.508 -1.43l-6.021 -1.729l-5.384 -1.454l-1.114 -0.352l-2.774 -0.845l-9.59 -2.626l-36.042 -10.035l-6.26 -1.858l-17.199 -4.679l-4.801 -1.425l-15.929 -4.348l-23.623 -6.65l-1.743 -0.406l-1.703 -0.478l0.1 54.718l-0.047 20.682l-18.926 0.004z" />
  </g>
  <g data-id="127">
    <path d="m675.848 986.426l-0.286 17.864l0.392 58.7l1.83 -0.01l9.532 -0.339l11.299 -0.325l16.14 0.027l5.519 0.009l7.483 0.059l7.234 0l18.529 -0.034l-0.094 -12.92l-0.103 -12.978l-0.033 -6.499l-0.093 -11.24l-0.19 -14.616l0.226 -19.087l-11.355 -0.474l-7.984 0.046l-19.311 -0.092l-19.357 0.102l-6.385 -0.021l-12.1 -0.043l-0.891 1.869z" />
  </g>
  <g data-id="129">
    <path d="m137.846 220.203l-0.166 41.156l2.835 0.012l0.236 39.816l0.092 21.18l-0.001 20.128l80.741 0.546l-0.249 -81.366l-1.644 -0.178l0.14 -13.675l-0.054 -27.487l-1.71 -0.19l-80.22 0.059z" />
  </g>
  <g data-id="131">
    <path d="m734.774 875.92l-0.084 9.83l0.202 19.684l19.383 0.351l19.376 0.128l7.533 0.128l12.01 -0.026l0.01 -19.579l0.142 -19.979l3.662 -0.003l-0.062 -39.646l-19.785 -0.132l-39.383 -0.134l-0.184 39.295l-2.778 -0.033l-0.05 6.012l0.006 4.101z" />
  </g>
  <g data-id="133">
    <path d="m714.573 944.912l-0.073 19.874l0.081 19.733l19.311 0.092l7.984 -0.046l11.363 0.156l19.46 -0.167l19.414 -0.108l0.055 -17.641l0.015 -1.797l0.034 -5.035l0.007 -1.529l0.059 -3.255l0.044 -1.639l0.225 -7.966l0.023 -1.619l0.045 -8.03l0.114 -8.777l0.02 -1.336l0.072 -3.706l-0.005 -1.067l0.2 -5.086l0.014 -2.631l0.158 -7.316l-12.01 0.026l-7.533 -0.128l-19.376 -0.128l-19.383 -0.351l-19.376 -0.305l-0.621 19.93l-0.322 19.851z" />
  </g>
  <g data-id="135">
    <path d="m602.425 565.993l-0.176 100.886l55.59 0.177l19.806 -0.171l4.345 0.014l0.198 -16.702l0.285 -13.223l0.017 -9.801l-0.012 -40.212l21.49 0.021l0.152 -20.288l-21.566 -0.17l-24.519 -0.14l-3.232 -0.016l-52.379 -0.375z" />
  </g>
  <g data-id="137">
    <path d="m540.9 666.344l0.005 60.366l70.583 -0.168l6.642 -0.08l29.163 -0.036l4.002 -0.015l6.623 0.04l0.034 -19.616l-0.113 -39.779l-55.59 -0.177l-3.647 -0.069l-16.321 -0.036l-41.382 -0.431z" />
  </g>
  <g data-id="139">
    <path d="m657.84 667.056l0.113 39.779l-0.034 19.616l0.082 20.102l19.869 0.065l59.455 0.438l-0.163 -10.321l0.144 -9.544l-0.033 -4.867l-0.098 -11.432l-0.08 -10.768l0.028 -6.719l-0.018 -15.128l0.077 -11.562l-5.337 -0.047l-14.51 0.064l-5.365 0.073l-14.429 0.026l-15.549 0.067l-4.345 -0.014l-19.806 0.171z" />
  </g>
  <g data-id="141">
    <path d="m422.848 625.253l-0.31 39.129l0.865 1.268l38.118 -0.06l29.27 -0.106l29.269 0.412l-0.001 -28.881l-0.269 -17.483l-0.055 -14.249l-19.37 -0.072l-0.063 -40.045l-19.577 0.027l-18.977 -0.078l-9.906 -0.003l-29.026 0.006l0.048 60.117z" />
  </g>
</svg>
