<?xml version="1.0" encoding="UTF-8"?>
<!DOCTYPE svg PUBLIC '-//W3C//DTD SVG 1.1//EN' 'http://www.w3.org/Graphics/SVG/1.1/DTD/svg11.dtd'>
<svg viewBox="0 0 10000 10630.1" xmlns="http://www.w3.org/2000/svg">
  <g data-id="001">
    <path d="m4704.9 7021.3l0 0l12.3 95.8l32.5 54.1l-11.4 35.8l51.9 28.2l19.2 38.4l-0.2 29.6l17.4 96.1l-51.1 19.5l4.1 22.9l29.1 50.7l2.8 44.2l64 58.3l10.1 38.6l22 16.9l21.5 39.6l40.5 30.3l35.8 57.7l3.5 48.6l36.3 100.3l18.9 35l34 23l3.5 59.2l59 -2.6l245.7 -1l0.8 -200.4l1.8 -572.9l-0 -603.7l-208.4 -4.5l-292 -4.1l-0.7 -0l8.5 45l-44.8 37.4l32.6 27.4l-30.9 25.3l33.2 -2l3.4 24.9l-31.1 4.6l-4.9 60l-15.8 4.7l-14.3 -30l-47.3 -8.4l-10.6 102.1l-23.8 -9.6l-25.7 11.7l3.7 43.3l-35.3 30z" />
  </g>
  <g data-id="003">
    <path d="m3982.9 180.9l0 0l2.3 19.2l57 -26.5l26.3 -18.2l16.3 -29.4l5.1 -51.2l10 -34.6l2.1 -16.8l-1.3 -19.5l-2.5 -3l-36 -1l-32.9 9.9l-19.4 18l-9.8 30.3l-3.5 22.7l3.1 48.4l-3.6 27l-13.2 24.6z" />
    <path d="m3884.4 485.2l0 0l42.3 29.1l55.5 -21.1l44.9 -52.8l-15.9 -23.8l-79.3 29.1l-47.6 39.6z" />
    <path d="m3676.5 367.1l0 0l-4.9 14.5l17.5 26.2l11.5 4l111.7 -32.7l19.5 3.9l6.6 4.9l6.9 2.9l5.3 -2.9l3.3 -3.9l0.4 -11.3l6 -11.7l7.5 -8.8l18.6 -10.1l26.1 -51l-5.7 -11l-19.2 -14.9l-9.1 -2.2l-118.9 38.6l-54.8 22.9l-28.5 42.6z" />
    <path d="m3496.3 574.8l0 0l8.8 20l17.6 -12.2l44.1 -69.4l71.2 -39.7l12.4 -21.5l-17 -18.2l-85.9 57.9l-31.6 26.4l-19.6 56.6z" />
    <path d="m3530.6 273.4l0 0l-40.7 41.4l46.3 77.8l79.1 -6.6l-9 -46.3l-33.9 -49.7l-41.8 -16.6z" />
    <path d="m3470.8 128.5l0 0l14.7 53l92 41.1l66.5 87.4l61.6 -53l40.1 -48.7l92.9 -18.6l13.7 -44.5l-26.4 -47.3l-24 7.6l-54.3 64.1l-57.7 -81.8l-11.2 -32.6l-60.2 26.8l-120.6 24.8l-27.1 21.6z" />
    <path d="m3446.7 704.4l0 0l1 8.7l13 20.2l-8.9 47.1l28.4 0.7l12.5 -4.5l39.8 -31.4l25.5 -32.9l12.3 -8.8l32.9 8.1l64.6 -16.2l8.2 -13.7l-1.1 -7.8l-3.9 -3.4l-24.2 -0.8l-25.8 -13.2l3.9 -19.9l11.9 -13.7l102.4 -45.5l48.2 -4.5l10.2 -4.4l15.4 -13.5l-1.9 -5.9l-28.6 -20.1l-24.9 -35.2l-22.9 -4.2l-9.2 3.8l-19.7 20.4l-15.1 25.4l-22.6 24.9l-30.3 22.9l-60.9 31.7l-14.1 11.6l-11.3 13.1l-1.2 14.6l-7.3 9.9l-42.1 9.6l-52 24.3l-2.2 2.7z" />
    <path d="m3224 1183.5l0 0l4.4 198.1l-0.3 827.5l-0.1 205.4l-0.9 205.9l408.1 -1.2l616.3 0.5l3 -205l-5.6 -68l1 -138.1l-202.5 1.9l0.5 -205.2l-207.6 -1l4.3 -818.6l-14 -5.4l-46.2 -32.2l-68.4 -57.4l-109.9 -97.1l-69.9 -66.8l-3.8 5.5l-14 48.3l-13.8 12.5l2 43.8l-24.5 24.3l-40.4 26.8l-56.3 21.2l-62.6 33.9l-9.9 1.6l-53.3 42.3l-7 2l-13.9 -0.9l-14.4 -4.8z" />
  </g>
  <g data-id="005">
    <path d="m1202.4 4233.7l0 0l0.5 199.3l187.4 2l14.4 -0.4l605 2l174.4 2.6l2.7 0.1l4.3 -0.1l21.5 0.8l0.1 -8.2l1.4 -191.8l1.7 -809.6l-807.4 -5.5l-203 0.4l-2.1 404.7l-1 403.6z" />
  </g>
  <g data-id="007">
    <path d="m3133.5 221.2l0 0l-2.9 15.8l5.9 18.6l30.3 24.4l48.9 -2.9l14.7 -57.3l-8.8 -34.4l-18.6 -1.4l-15.6 24.4l-53.8 12.9z" />
    <path d="m2193.5 1344.8l0 0l3.7 36.5l0.9 408.5l-0.3 413.6l514.4 -2l515.9 7.8l0.3 -827.5l-4.4 -198.1l-24.5 -8l-15.7 -20.6l-0.1 -8.6l3.2 -5.6l18 -12.8l23.3 -40.9l5.8 -14.8l0.2 -13.8l9.3 -50.4l6.4 -11.2l41.8 -17.5l28.6 -24l24.1 -31.4l1.8 -14.7l-29.1 -56.9l-21.4 -56.8l-2.7 -22.4l30.3 -19.4l7 -8.9l4.7 -14l-6.7 -15.8l11.5 -20l34.4 -2.1l12.4 -18.4l3.9 -15.5l44 -46.3l29.5 -86.2l17.8 -41.6l14.1 -16.5l11.2 -4.1l6.1 -7.4l0.3 -12.2l-6.1 -12.6l-51.1 -67.8l-85.7 -74.7l-29.9 -11.5l-25.1 2.7l-14 7.3l-47.6 40.4l-8.6 19l-13.1 5l-53.8 -17.1l-17 -12.9l-5.8 -0.3l-8.8 6.3l-17.9 37.8l-17.3 19.3l-6.1 3.9l-10.4 -0.5l-22.9 11.3l-25.3 20.3l-3.5 22.8l-5.4 10.5l-21.5 19l-25 7.3l-20.9 -12.7l-16.4 2.3l-4.6 6.7l-4.7 44.1l-14.7 9.4l-29 3.5l-19.5 -6.8l-2.6 -4.8l5.2 -22.5l-2.2 -5.2l-9 -1.7l-6.7 7l-5.9 17.4l-32.5 44l-17.6 1.2l-35.9 -23.5l-7.1 -11.5l-5.1 -16.9l-6.8 -2.4l-24.9 7.7l-9.8 8.6l-29.7 45.4l-9.7 10.2l-15.1 7.1l-59.9 8.7l-20.6 8.5l-38.5 21.9l-22.9 24.7l-14.2 22.3l-13.2 10.3l-37.2 8.7l-11.2 -2.4l-22.3 3.8l-19.6 17.9l-42.1 21.3l-34.3 10.5l-36.6 5.4l-11.9 13l-18.7 9.1l-42.8 6.4l-23.5 -2.1l-4 570z" />
  </g>
  <g data-id="009">
    <path d="m7620.9 5663.5l0 0l16 44l-3.9 175.6l90 -4.7l-1.6 449.9l-0.1 102l0.4 43.9l-1.7 -0l-0.3 12.2l-0.2 15.5l2.4 23.4l-2.5 146.8l245.6 2.1l196.4 1.4l58.6 -0.1l0.9 -200.1l199.7 0.9l1.2 -200.8l4.8 -530.4l-5.6 5.7l-15.4 6.3l-55.3 6.8l-36.2 29.5l-59.2 35l-40.8 44.9l-15.6 10.2l-4.1 7.5l7.3 15.4l0.6 1.2l-3.8 12l-26 48.1l-19.7 27.9l-17.3 10.3l-7.1 4.2l-44.2 -1.4l-57.2 -20.6l-49.1 -51.1l-11.6 -12.1l2 -13.8l8.4 -9.7l14.8 -5.1l17.6 -30.2l6.6 -23.9l17.2 -3.4l5.3 -12.4l-17.7 -48.8l-0.5 -15.4l12.6 -62.3l19.7 -10.2l0.3 -21.1l-232.2 1.5l-159.1 10.6l-5.3 0l0.4 -16.6l-19.3 -0.2l-16.2 -0.4z" />
  </g>
  <g data-id="011">
    <path d="m1326.4 6240.4l0 0l-3.9 51.9l8.3 5.3l10.4 2l17.5 -0.2l8.5 3.2l4.8 3.1l11.9 16.1l13.4 13l31 17.3l17.6 3.7l4 1.8l5.5 3.9l2.7 3l1.7 1.9l10.2 7.3l11 6.2l5.4 1.5l8.9 0.2l6 2l7.7 3.8l0.1 0l10.9 8.5l6.7 6.2l11 14.8l5.3 9.6l13.6 18l21.5 12.7l4.3 4.4l11.5 25l4 10.5l4.4 15.4l-0.1 2.3l-1.3 5l-11 16.5l-5.1 9.1l-1.4 5.2l0.6 6.9l4 9.2l3.2 3l23.8 11.2l11.7 10.2l3.8 5.7l1.2 3.9l-1.8 17.4l1.2 5.9l11.3 15.6l2.2 4.3l1.3 5.5l-1.4 12.3l-8.3 25.8l0.4 9.3l4.8 11.1l15.7 22.3l4.7 8.3l1.8 7.7l0.5 15.7l1.5 4.9l4.6 3.2l13.1 5.9l9.9 8.2l22.4 18.6l20.2 10.5l5.4 4.5l19.5 32.4l15.2 11.4l18.7 11.3l36.5 15.6l9.7 9.2l19.5 15.4l8.2 4.6l34.7 4.3l15 5.9l3 2.5l1 0.9l14 19.2l1.8 6.7l2.3 15.2l-0.2 13.1l1.2 2.9l20 12.2l6.6 1.6l9.1 -1.3l6.9 2.3l23.9 23.9l2.9 4.4l3 9.5l6.5 15.3l4.1 6.4l7.8 6.3l7.2 10.4l5.2 3l2.2 0.2l4.7 -2.2l4 0.9l7.8 6.7l9 10.4l6.8 3.9l13.8 5.7l8 5.2l5.2 4.5l6.2 8.4l9.8 19.9l9.1 8.2l15.6 9.1l4.2 1l11.1 0.1l23.5 3.6l-20 -28.6l21.2 -56.3l39.5 -77.5l-23.2 -25.5l-0.6 -38.7l-27.8 -55.3l-41.3 -15.7l-36.5 -38.4l25.9 -35.7l-18.8 -29.9l12.6 -23.6l43.6 -26.2l28.4 -4.1l37.9 -38.3l7.1 -13.3l1.1 -804.3l-199.2 -1l-399 -0.1l-177.5 -0l-36 14.3l-27.6 60.7l1.2 39.8l-14.7 46l3.7 39.3l-22.8 100.7l-36.1 84.1z" />
  </g>
  <g data-id="013">
    <path d="m4 3410.6l0 0l-2.2 4.4l588.5 4.9l1.5 -203.8l401.7 6.5l212.7 0.7l-0.7 202.1l203 -0.4l0 -201.3l-0.9 -211.8l-2.4 -398.2l-28.3 -0.1l1.7 -411.6l-401.3 0.7l0.3 103.2l-0.9 84.1l0.1 9.4l-7.6 3.3l-13.3 1.4l-20.7 7.4l-14 7.4l-3.2 2.3l-5.1 6l-4 7.8l-4.8 17.2l-0.6 4.8l-4.4 11.1l-3.6 5.8l-0.2 4.9l1.9 15.1l-2.2 14.2l-0.8 2.6l-3.5 4.7l-4.8 4.3l-1.2 4.1l-0.5 6.9l0.6 4.7l-2.9 3.1l-10.2 5.4l-6.9 0.7l-17.4 -2.6l-14.8 -6.7l-18 -5.9l-25.6 -16.8l-3.9 -1.5l-16.5 1.2l-12.9 6l-11.6 7.1l-10.9 12l-3.4 10.4l0.1 6.2l-8.8 16.4l-3.3 4.3l-2.2 6.3l-1.1 3.8l0.4 7.7l-5.1 6.3l-9.8 5.7l-3.3 6.7l0.6 6.2l1.2 2.2l3.8 3.1l-0.2 1.9l-5.3 7.5l-8 5.8l-5.6 2l-11 -2.5l-8.5 -4.4l-10.5 0.7l-19 -10.5l-27.9 -9.3l-4.2 -0.7l-8.3 2.3l-5.7 3.1l-11.8 9.7l-13.1 18.2l-4.6 2.5l-2.2 2.5l-1.4 17.1l1.3 8.8l-2.2 11.3l-1.2 1.4l-15.3 1.5l-14 6.8l-8.4 0.1l-9.3 4.4l-15.7 10.6l-20.3 2.3l-9.6 6.4l-4.1 3.5l-5.7 4.9l-13.8 -1.6l-8.2 5.9l-2.5 0.7l-11.6 -5.3l-4.1 1.1l-1.8 1.5l-0.3 2.5l2.7 15.4l-1.1 3.3l-28 0.3l-5.6 3.6l-17.8 15.8l-9.6 9.9l-1.1 2.7l1.8 8.2l-1.4 2.6l-12 5.7l-24.8 17.7l-7 0.7l-7.3 3l-7.9 7.5l-14.2 18.7l-21.2 37.1l-4 11.2l0.6 10l-5.2 27.3l-1.2 3.1l-9.2 11.4l-6 1.7l-16.9 12.7l-3.7 3.5l-5.6 8.7l-0.9 6.9l1.3 5.6l5 16.4l3.1 5.8l3.4 10l0.2 10.9l-2 6.2l-4.6 6.4l-10.8 7.7l-6 6.6l-7.3 12.3l-5.1 17.6l-2.9 22.4l-5.3 20.9l-23.1 24.8l-6.6 4.2l-2.2 4.9l-2.3 5.4l-7.4 7.8l-5.1 3.4l-6 1.6l-15.5 12.7l-4.9 6.9l-2.8 1.4l-8.6 0.7l-8.4 6.5l-3.3 2l-9.5 1l-2.5 2.8l-0.2 7.5l-0.7 1.3l-4.1 1.6l-15.1 2.1l-5.1 3.8l-5.8 7.2l-0.8 5.7l1.4 7.4l-4.8 28.8l2.9 5.9l-0.2 1.2l-8.8 18.2l-2.3 32.3l-3.4 22.8l-5.9 14.4l-2.4 10.8l-2.8 20.8z" />
  </g>
  <g data-id="015">
    <path d="m7371.2 6934.1l0 0l-0.3 67.2l0.8 107.7l1 114.3l0.3 48.7l-1.4 95.4l194.3 1.2l204.4 0l-1 105.4l198.1 -0.4l-0.1 -33.8l0.1 -33.5l-0.6 -132.5l0 -0l-2.5 -398.8l0.7 -200.7l-245.6 -2.1l-127.6 -2.4l-6.9 0.1l-23.7 -0.5l-107.2 -1.6l-82.3 -0.6l-0.8 115.6l0.2 151.3z" />
  </g>
  <g data-id="017">
    <path d="m2009.7 4436.7l0 0l-1.2 203.2l24.4 0l0.3 211.9l1.5 403.7l166.6 -2.6l3.3 -0l13.8 -0.2l39.8 -0.4l82.2 0.2l891.4 -0.1l-0.7 -202.2l0 -67.3l-1.1 -134.3l-4.2 -207.1l1.1 -401.2l-1012.9 -0.4l-1.4 191.8l-0.1 8.2l-21.5 -0.8l-4.3 0.1l-2.7 -0.1l-174.4 -2.6z" />
  </g>
  <g data-id="019">
    <path d="m3230.1 4848.7l0 0l1.1 134.3l-0 67.3l0.7 202.2l-0.2 604l-0.9 199.5l199.4 0.4l-0.5 201l399.8 0.5l399 -5.3l0.2 -0.2l-0.5 -601.2l-0.5 -621.4l2.5 -187.3l-194.9 6.6l-202.9 -0.3l-399.5 -1.1l-202.7 1.1z" />
  </g>
  <g data-id="021">
    <path d="m5101.7 8044.1l0 0l-1.5 0l18.7 65.2l21.8 19.8l4.4 -1.1l8.1 -4.1l59.6 20.5l-25.7 36.1l1.2 20.8l41.1 11.5l55.9 -6l51 14.2l40.3 -4.9l30.2 16.6l-2.3 401.8l-27.4 23.2l-63.1 23.9l-35.9 -3.1l-43.1 69.9l-26.1 23.8l-12.3 41.7l11 18.6l196.6 -0.1l32.4 -0.3l163.6 -1.9l194.8 0.1l0.1 28.8l193.5 -1.8l388.4 -6.2l-0.6 -87.3l0.3 -8l0 -7.8l0.3 -44.4l0.4 -39.1l7 -9.7l-2.4 -197.1l-1.2 -395.3l-197.8 3l0.4 -27.1l-194.8 1.3l-391.5 1.2l-190.7 -0.1l-245.7 1l-59 2.6z" />
  </g>
  <g data-id="023">
    <path d="m2750.6 8663l0 0l0.4 4.8l13.4 30.2l4.4 6l3.5 1.7l22.7 3.4l11.3 3.8l16.5 11.2l26.7 13.9l28.7 11.5l7.4 3.9l6.1 3.8l18.8 15.9l17.1 12.9l35.5 49.2l9.5 20.5l10.1 18.1l3.3 7.6l0.2 7.2l-2 8.6l0.2 5l1.6 2.5l2.9 1.7l13.4 0.7l3.4 2l1.8 3.1l1.2 5.2l0 3.2l-2.9 12.2l-4.7 12.2l-6.3 8.7l-9 9.3l-12.2 15.6l-13.4 14.4l-33.7 34.5l-9.6 8.3l-8.8 5.7l-5 7l-2.8 8.4l-0.9 12.7l-16 30.4l-2.9 2.2l-4.5 7.7l-4.5 14.6l-3.2 16.1l-4.8 9l-16.4 21.3l-7 5.3l-16.3 7.2l-8 6.1l-2.9 6.4l-1.5 6.7l-0.5 8.8l0.9 14.1l4.2 33.7l-3.3 53l-0.1 16.3l-2.5 5.4l-1.1 7.1l2.6 7.2l-0.3 4.9l5.6 52.5l10.5 43.4l17.7 62.8l1.1 7.4l33.3 -24.2l57.7 -2.7l17.1 12.5l47.4 4.5l15.1 -20.1l67.3 -26.2l12.6 -20.9l30.8 -8.2l53.6 -39.7l21.4 -40.8l39.2 -1.9l54.7 -23.7l61.2 -9.9l37.7 -23.7l40.3 -47.2l57.5 -14.6l34.3 -18.1l38 -59.5l34.7 -24.1l13.7 -27.6l37.9 2.7l1.3 -468.9l-4.2 -98.6l-128.4 -3.5l-754.4 3.6l4 7.1l3.2 8.8l1.4 7.2l-0.3 9.5l1.8 12.3l2.2 8.6l0.6 8.8l-2.1 12.4l-2.9 8.8l-6.8 15.9l-2 8.8l-2.1 3l-9.9 8.1l-2.7 4.7z" />
  </g>
  <g data-id="025">
    <path d="m5014 9324.7l0 0l0.1 488.2l771.2 2.1l-0.1 25.6l10 -0.2l185.4 -1.7l389.1 -3.9l0.9 -196.8l1.2 -198.1l4.4 -327l1.3 -65.4l-0.1 0l-0.4 -196.6l-388.4 6.2l-193.5 1.8l-0.1 -28.8l-194.8 -0.1l-163.6 1.9l-32.4 0.3l-196.6 0.1l9.9 33.8l-28.5 58.5l-69.9 29.2l-50.7 0.8l-54.3 74.2l0.3 197.2l-0.4 98.8z" />
  </g>
  <g data-id="027">
    <path d="m6376.7 8755.6l0 0l-0.3 8l0.6 87.3l0.4 196.6l0.1 -0l63.1 -0.5l346.2 0.6l108.5 1.2l65 -0.1l194.5 2.7l0.1 0l193.8 3l-2 -196.8l0.8 -98.3l-0.1 -41l0.5 -60.1l27.8 0.3l1.8 -393l-1 -198.4l-400 -4.7l-0.5 -0l-117.3 -0.4l-69.6 0.3l-11.7 0.1l-198.4 -1l-198.6 1.1l1.2 395.3l2.4 197.1l-7 9.7l-0.4 39.1l-0.3 44.4l-0 7.8z" />
  </g>
  <g data-id="029">
    <path d="m9752.1 4100.2l0 0l0.1 22.8l13.2 16.3l17.6 5.2l19.2 20.7l19.2 28.3l15 35.7l8.2 3.9l4.9 -7.3l0.4 -21l-4.6 -35.8l7.3 -15.1l11.9 -7.5l20.9 3.2l10 -5.5l5.8 -18.1l-3.7 -28.3l6.9 -27.7l17.2 -14l19.2 -43.9l28 -38.7l10.4 -4.7l16.1 4.9l4.7 -2.9l-0.7 -13.1l-6.9 -22.8l-11.5 -10.2l-19.1 -3.7l-3.7 5.9l2.9 22.3l-2 13.2l-37.5 12.4l-13.7 -15.3l-26.4 -4.5l-25.3 11.7l-40.8 2.6l-17 -7.9l-4.1 -14.7l-6.2 -8.5l-5.1 0.4l-9.3 13.4l-20 73.8l12.6 40.5l2 18.1l-3.2 7l-8.4 2.3l-4.6 6.3z" />
    <path d="m9062.9 4457l0 0l-2.3 51.3l81.4 46.5l-14.7 -36.9l7 -60.8l-3.6 -29l-67.8 28.9z" />
    <path d="m8480.2 5658.4l0 0l-10.2 11.5l596.4 3.4l8.2 -19.9l23.8 -41.1l16.9 -40.1l9.7 -42.9l30.6 -77.7l-2.3 -31.6l10.9 -20.4l14.7 -25.1l36.6 -23.5l10.7 -42.8l14.1 -31.7l103.4 -66.7l-2.9 -24l-17.9 -27.6l2 -20.3l19.3 -23.7l28.8 -20.1l19.4 -5.3l5.3 -8.7l-5.8 -19.2l-21.6 -19.3l-1.7 -47.8l12.3 -28.5l30.2 -55.8l15.5 -9.8l24.2 -8l24 -68.9l0.2 -25.1l5.8 -12.5l48.5 7.4l16.1 -9.2l3.8 -27.2l27 -19.9l9.4 -19l15.2 -3.9l-1.2 -45.6l-3.4 -17.4l-5.4 -8.8l14.1 -35l20.8 -15.8l7 -10.8l-26.9 -28l-1.1 -36.1l8.2 -87.8l13.7 -25.1l41.1 0.3l3.6 19.7l4.2 4.5l27.7 -9.6l11.9 -26.8l9.4 -44.5l-6.1 0.6l-9.8 -6.9l-3.8 -22.3l0.9 -13.3l16.2 -17.4l6.9 -15.5l-12.2 -28.6l-9.2 -10.9l-17.7 -6.3l-37.7 -2.8l-28.2 26.9l-15.9 7l-12.8 -2.6l-9.7 -16.2l-22 29.2l-12 34.2l-50 20.4l-12.6 36.2l-10.5 43.2l2 30.8l3.6 10.1l-0.9 33.4l-6.1 2.8l-15.4 -6.9l-24.1 5l-25.4 12.5l-6.6 4.1l-13 24.6l-33.1 23.2l-31.5 -6.1l-12.5 -21.7l-15.2 5l-11.5 13.1l-7.7 41.7l4.3 26.8l-16.7 15.4l-11.4 22.5l-5.2 36.4l0.1 31.3l-7.1 26.1l-31.9 41.1l-30.5 26.2l-31.7 42.5l-23.6 48.1l-39.2 60.2l-23.9 72.1l-20.5 40l-10.1 11.7l-8.2 21.3l-10.9 31.2l-2 17l21 14.6l13.2 19.1l2.9 11.3l-2 45.4l-34.1 12.7l-7.4 -4.5l-16.3 -32.4l1.4 -21.9l-2 -5.1l-21 -11.9l-6.5 0.1l-68.1 67.6l-38 -1.7l-22.3 -12.3l-26.1 28.2l-31.7 14.3l-37.6 -4.2l-13.4 3.1l-47.3 31.1l-44.5 57.5l-15.1 34.4l-68.9 92.3l-29 47.8l-24.7 31.7l-1.5 12.9l5.6 25.8l-2.3 33.7l-16.5 26z" />
  </g>
  <g data-id="031">
    <path d="m977 2148.7l0 0l0.2 31.4l0.1 22.6l401.3 -0.7l802.2 -0.6l17.1 1.9l0.3 -413.6l-0.9 -408.5l-3.7 -36.5l4 -570l-0.1 -0l-37.6 -4.4l-27 7.6l-90.1 47l-148.2 53.1l-23 8.3l-66.6 34.6l-49.1 10.8l-33.3 1.2l-28.2 -6.4l-48.5 5.2l-92.1 24.6l-31.1 -6.2l-18.9 -9.3l-23.8 -15.1l-33 -29.5l-12 -3.4l-8.2 5.8l-22.5 -11.7l-91.2 -96.7l-30.7 0.2l-13.8 1.2l-35 21.8l-8.9 11.8l-0.2 15.6l3.5 7l-8.2 22.3l-3.9 1.9l-10.7 -1.9l-19.9 -9.6l-11.5 6.5l-7.6 1.2l-16.8 -1.9l-3.9 3.1l-3 12l-6.7 8.6l-6.9 4.1l-5.1 4.6l-1.6 3.6l0.8 10.1l11 5.3l25.3 2.2l8.5 8.1l2.3 3.8l0.7 9.3l-2.5 6.9l-6.2 7.7l-10.2 3.1l-8.1 5.3l-11.5 15.6l-7.6 7.9l-2.3 5.3l5.4 13.9l1 5.5l-1.2 3.8l-7.9 7.4l-8.7 4.8l-6.6 0.2l-11.7 -6.7l-8.2 -0.7l-11.7 6.9l-11.3 1.9l-23.2 -22.8l-5.1 3.8l-10.4 14.6l-7.6 0.7l-3.6 -5l-2.6 -11l-6.7 -2.9l-8.5 -0.5l-4.1 -3.6l-1.5 -6l-0.5 -10.8l-6.4 -1.9l-1.5 5l0 6.5l0 0.2l1 91.7l-0.1 48.6l-0.5 240.6l-0.6 20.1l-0.2 40.2l-0.4 111.6l-0.2 26.5l-0 8.7l-0.2 227.1l0.4 6.1l-0 11.1l-0.1 2.1l0.1 15.8l-0 6.6l-0.3 15.1l-0.1 6.8l-0.9 121.5l0.1 46.3l-0.5 105.7z" />
  </g>
  <g data-id="033">
    <path d="m1202.8 4433.1l0 0l-1 205.1l34.5 0.5l-0.4 612.6l1.9 401.7l797.1 1.7l1.2 -224.1l-1.4 -175l-1.5 -403.7l-0.3 -211.9l-24.4 -0l1.2 -203.2l-605 -2l-14.4 0.4l-187.4 -2z" />
  </g>
  <g data-id="035">
    <path d="m2034.7 5255.7l0 0l1.4 175l-1.2 224.1l0.2 201l199.2 1l199.7 0.4l199.2 -1.8l198.7 -0.4l200.2 0.8l199.7 0.8l0.2 -604l-891.4 0.1l-82.2 -0.2l-39.8 0.4l-13.8 0.2l-3.3 0l-166.6 2.6z" />
  </g>
  <g data-id="037">
    <path d="m6912.7 2542l0 0l-1.5 75.1l15.8 0.4l-2 612.3l411.9 1.1l601.8 22l1.6 -159.4l-22.7 1.1l-7 -3.2l-3.3 -6.2l-2.3 -1.7l-14.5 0.6l-9 -2.3l-9.2 -10.7l-6 -2.8l-5.1 -14.6l1.4 -3l0.3 -3l-3.5 -6l-3.3 -2.2l-10.7 -1.2l-22.1 -12.3l-3.9 -4.8l-7 -18.2l1.7 -6.3l2.3 -3.4l9.6 -9.5l8 -5.6l3.7 -8.1l10.6 -11.6l4.2 -3.1l4.3 -0.7l4.1 -3.7l13.6 -21.4l15.6 -13.5l2.3 -3.8l4 -11.8l3.9 -5.9l1.6 -0.3l6.8 3l3.9 -2.4l3.3 -16.8l-1.3 -8.6l-12.9 -11.6l-3.6 -1.6l-19.5 2.7l-7.2 -2.7l-2.6 -5.4l-6 -30.9l-0.9 -1.2l-0.3 -8.8l0.8 -8.4l1.8 -5.8l4.3 -8.7l4.6 -4.3l6.3 -3.6l-0.1 -3l-1.8 -5l-10.5 -10.9l-2.9 -0.6l-17.5 -0.2l-2.5 1.2l-2.7 1.3l-5.5 0.9l-7.4 -1.8l-2 -2.2l0.3 -1.9l2.2 -3.4l-2.1 -3.6l-22.3 -10.5l-8.1 -7.2l-0.8 -1.3l0.1 -2.6l-20.3 -8.9l-7.2 0l-1.4 1.7l-10.1 -2.7l-4.2 -3.7l-4.8 -9.2l-4.1 -5.2l-19.4 -12.1l-3.6 -1.3l-7.1 -1.4l-2.2 0.5l-7.4 7.7l0.4 11l-12.7 2.1l-2.6 -0.6l-6.4 -5.8l-11.7 -3.6l-2.6 -0.5l-6.9 2.4l-8.5 0.7l-10.7 -3.7l-4.7 -3.3l-3.2 -4.2l-2.1 -4.7l-1.4 -5.8l1.1 -5l-0.6 -10.1l-4.6 -1.6l-1.7 0.2l0 1l-7.7 -0.9l-2.7 1.9l-4.7 7.7l-14.9 4.7l-24.6 5.7l-14.9 9.4l-4.7 -0.3l-2.8 -5.9l-6.6 -5.7l-14.1 -7.6l-12.1 -3.8l-6 2.4l-12.8 -9.7l-3 -4.5l-7.4 -6.8l-74.9 -54l-8.3 3.3l1.5 5l-7.4 12.9l-10.6 5.4l-6.1 0.3l-6.3 -2.2l-11.5 3.6l-2 1.3l-6.2 8.6l-3.4 0.4l-5.7 -3.4l-4.4 -4.2l1.2 -3.8l-1.8 -4.2l-4.4 -5.1l-13 -5l-2.9 -4.5l-6.5 -5.5l-5.5 -0.5l-9.3 2.2l-2.6 -1l-6.5 -7.7l0.6 -6.5l-0.8 -3.2l-7.1 -4.4l-11.3 -3.1l-8.7 -0.8l-6.3 5.3l-0.8 5.1l1.8 4.6l-3.2 4.3l-4.9 2.4l-12.8 2l-9.4 -2.9l-8.1 -7.1l-1.1 -2.9l2 -4.5l-0 -1.7l-3.1 -3.3l-2.2 -0.2l-9.6 -30.6l-0.4 -8.9l-1.6 -2.8l-3.8 -2.1l-8.4 -1.8l-14 1l-5.8 -3.1l-9.4 -0.9l-2.3 0.7l0.5 2.3l-2.2 4.3l-6.8 7.8l-3.4 2.4l-15.9 2.1l-7 -4.9l-17.3 -1.7l-10 4.5l-2.4 4.8l-12.6 11.4l-13.7 4.5l-1.2 -1.2l-5.1 -14.2l-0.7 -6.8l-0.9 -1.6l-7 -5.9l-5.5 0.1l-4.2 3.4l-5.7 12.3l-6.6 18.1l-0.2 10.7l-2.5 19.4l-1.8 4.4l-3.7 2.5l-12.4 -2.2l-16.6 1.5l-1.3 1l-1.2 5.8l-3.1 0.4l-33.3 -10.2l-5.8 1.1l-2.6 0.2l-1.3 -0.8l-1.8 -1.8l0.7 -3.6l1.2 -2.5l-0.5 -2l-5.8 -4.3l-6.3 -9.4l0.5 -2.2l1.4 0l-2.2 -12.2l-5.2 -12.9l-7.4 -7l-6.9 -1.5z" />
  </g>
  <g data-id="039">
    <path d="m6580 7664.2l0 0l-0.6 396.9l198.4 1l11.7 -0.1l69.6 -0.3l117.3 0.4l0.5 0l400 4.7l1 198.4l393.8 1.3l-2.3 -792.9l1 -105.4l-204.4 0l-194.3 -1.2l1.6 103.2l-594.5 -4.4l-198.7 -0.7l-0 198.7z" />
  </g>
  <g data-id="041">
    <path d="m6313.5 2617.3l0 0l0.3 205.6l1.7 812.1l0.1 201.9l202.9 -1.6l-4.9 202.6l407.8 -0.1l410.8 3.9l3.5 -573.3l1.1 -237.6l-411.9 -1.1l2 -612.3l-15.8 -0.4l1.5 -75.1l-13.7 -3l-11.6 -5.8l-9.8 -0.6l-9.3 4.4l-4.5 8.6l-8.8 -1.5l-4.8 -12.6l0.3 -8.1l-6 -5.9l-9.7 -4.8l-15.3 -1.8l-10.6 3.6l-9.5 5.2l-3.1 2.7l-3.7 5.4l-3.8 1.5l-2.3 -0.6l-6.1 -5l-2.4 -0.3l-1.6 -0.1l-1.6 0.6l-0.8 0.6l-1.1 1l-0.6 1.5l-1.7 3.8l-10.6 7.2l-6.1 1.2l-3.6 -2.7l-2.9 -10.4l-0.2 -4.9l0.6 -3.3l8.1 -10.7l0.2 -5.7l-1 -1.4l-8.5 -2l-12.1 1.5l-7.2 -3.9l-7.4 8.7l7.3 7.5l0.7 4.7l-1.1 3l-8.7 -0.3l-16.7 5l-6.1 -1.7l0.3 -1.5l-1.7 -2.3l-6.7 -5.5l-18 -8l-6.1 -1.7l-4.5 0.4l-4.3 -2.2l-5.5 -4.6l-6.1 -9.7l-1.4 -4l-3 -3.4l-135.6 -79.1l-0.8 216.4l-188.4 -0.2z" />
  </g>
  <g data-id="043">
    <path d="m2846.3 9519.3l0 0l0.1 0.8l0.3 21.6l1.7 5.5l7.6 11.8l4.8 9.8l2.4 6.3l1.8 11.5l-0.2 3.8l-5.8 22.4l-1.3 10.3l0.2 3.8l7 22.2l2 8.5l0.8 8.3l-0.1 5l-3.3 12.7l-0.5 5.9l0 5.6l1 4.2l1.4 4.5l2.2 2.9l8.8 2l33.8 17.8l3.1 2.6l5.5 7.9l13.3 11.6l5.7 6.5l3.8 16.3l-1 25.5l1.9 10.2l3.8 10.2l5.7 9.2l0.7 3.1l-6.1 33.4l1.7 9.3l6.5 3.5l12.1 -1.7l6.7 5.2l-1.1 16.5l2 30.9l4.3 24.8l5 17.3l2.2 10.6l0.7 16.8l1.9 13.2l10.3 12.7l4.9 4.7l0.2 4.2l-2.1 4.5l-2.8 1.6l-3.9 0.4l-0.5 8.3l1.8 5.5l7.4 1l3.4 2.8l2.9 4.3l2.4 5.9l0 9.3l1.8 5.1l4 2.8l2.1 0.2l5.6 -0.6l4 -3.2l7.8 0.3l6.5 2.5l5.6 6.4l1.7 4.3l0.4 6.4l1.7 6.5l4.8 5.7l15.7 10.4l2.6 0.8l10 -2l15.5 8.8l7.5 5.6l11.1 11.1l13.5 21.9l4.7 4.7l5.8 3.5l15.1 4.5l20.8 14.4l5.3 2.7l12.6 3.9l7.4 1l11.8 -1.6l10.3 -3.1l4.1 0.2l12.7 5.5l21.6 15l5.5 2.2l15.6 6.2l33.4 8.4l24 8.7l14.1 3.9l18.4 3.2l58.7 13.2l14.5 4.2l15.6 2.1l15.2 3.4l15 5.2l27.5 8l20.6 4.7l18 6l18.1 10.5l4.8 4.3l6 7.6l3 9.6l1.3 8.9l10 17.8l3.2 9.3l6.6 24.9l0.4 10.3l1.3 6.3l2.4 4.8l10 18.1l3.8 5.1l7.1 5.8l18.4 19.2l3.9 22.5l8.2 17.9l14 12.9l2.8 8.3l5.4 28.3l6.4 20.1l-0.3 12.3l-9.7 10.5l41.3 0.9l5.2 0.1l80.8 1l15.7 0.2l7.7 -0.4l10.5 -0l0.7 0l19.9 0.3l66.6 -0.1l20.2 0.5l7.4 -0.2l62.4 0.8l17.5 0.2l0.8 -292.9l-1.7 -390.7l-4.4 -832l-0.1 -8.5l-0.3 -32l-190 -23.7l-71.5 24.3l-32.4 34.5l-95.6 30.6l-37.9 -2.7l-13.7 27.6l-34.7 24.1l-38 59.5l-34.3 18.1l-57.5 14.6l-40.3 47.2l-37.7 23.7l-61.2 9.9l-54.7 23.7l-39.2 1.9l-21.4 40.8l-53.6 39.7l-30.8 8.2l-12.6 20.9l-67.3 26.2l-15.1 20.1l-47.4 -4.5l-17.1 -12.5l-57.7 2.7l-33.3 24.2z" />
  </g>
  <g data-id="045">
    <path d="m5014.1 9812.9l0 0l-0.4 97.7l1.9 292.4l-0.6 396.7l58.7 0.2l3.6 0.1l9.4 -0.1l22.4 0.3l17.5 0.1l44.8 -0.1l80.4 0.6l5.6 -0.2l37 0.5l28.4 0.8l10.1 0.2l50.6 1.3l16.3 0.9l3.4 -0.2l2.4 -0.1l8.6 0.5l49.9 1.9l68.8 1.6l48.2 0.8l1 0l13.7 0.2l97.2 1.6l2 -0.2l2.2 0.3l2.6 0.2l32.2 0.3l0 0l58.2 0.4l0.4 0l-5.4 -603.2l-0.1 -167.7l0.1 -25.6l-771.2 -2.1z" />
  </g>
  <g data-id="047">
    <path d="m5988.3 7840.4l0 0l0 33.6l0.2 165.4l194.8 -1.3l-0.4 27.1l197.8 -3l198.6 -1.1l0.6 -396.9l0 -198.7l-0.8 -201l-66.2 -0.4l-35.7 -0.1l-4.3 0.2l-291.6 0.4l-66.4 0.8l0.8 242.8l-49.7 -0.1l0.2 146.7l21.7 17.9l27.9 -13.2l0.2 101.3l-116.9 -1.9l-10.4 15.2l-0.4 66.4z" />
  </g>
  <g data-id="049">
    <path d="m4041.4 9040.3l0 0l0.3 32l0.1 8.5l4.4 832l581.7 -2.2l385.8 0.1l0.4 -97.7l-0.1 -488.2l0.4 -98.8l-0.3 -197.2l-34.1 23.6l-74 16.8l-149.4 -16.3l-49.6 27.1l-16.6 23.5l-22.4 13.5l-9.5 46.4l-46 -33.4l-51.5 1.8l-74.4 -14.5l-41.6 20.8l-15.6 -15.6l-40.5 -19.8l-69.4 -55.3l-29.1 8.3l-31.9 -31.8l-21.6 3.6l-65.1 -7.1l-97.4 21.7l-33 -1.8z" />
  </g>
  <g data-id="051">
    <path d="m3844.5 1185.7l0 0l-4.3 818.6l207.6 1l-0.5 205.2l202.5 -1.9l-1 138.1l5.6 68l-3 205l424.3 -1.4l189.3 -0l0.5 -206.8l-1 -547.2l-314.6 -88.3l-1.2 -0.9l-0.2 -2.2l0.5 -1.3l2.7 -2.5l1.1 -6.1l-1.3 -4.6l-1 -2.1l-0.7 -3.2l1.5 -5l3.7 -2.3l1.2 -2.8l-0.2 -10.7l-3.3 -9.7l-1.4 -1.2l-0.1 0l-2 0.1l-2.2 -1l-0.8 -2.7l0 -3.2l-0.3 -2.3l-5.9 -7.8l-7.4 -5.5l-4.7 -6.3l-1.3 -7.4l0 -0.1l4 -14.9l-2.8 -2.1l-2.1 -0.2l-6.8 -6.6l-8.1 -12.5l-4 -16.6l-2.5 -4.9l-7.5 -4.9l-8.1 -19.1l-1.8 -10.7l1.2 -16l-0.6 -5.2l-7.9 -28.5l-5.1 -7.1l-0.6 -4.1l-0 -1.3l-12.6 0.5l-5.4 -2.1l-2.2 -29.9l-1.8 -8.7l-14.5 -5.5l-2.6 -2.7l-4.2 -7.1l2.1 -5.9l4.2 -3.3l1.3 -2.6l-0.6 -2.2l-7.2 -8.3l-13.7 -8.6l-3.8 -5l-12.7 -29.1l-5.1 -18.7l-0 -4.2l-2.8 -4.3l-6.5 -3.9l-3 0.1l-10.5 4.3l-2.6 -0.4l-1.1 -3.9l0.2 -3.1l2.5 -8l-1.6 -4.1l-2 -0.3l-7.7 6.5l-11.7 4.5l-4.4 1l-3.5 -1.3l-14.7 1.5l-2.4 2.9l-3 1.6l-4.1 0.1l-3.7 -2.5l0.2 -3l0 -2.7l-2.3 -2.7l-3.2 0.5l-2.8 -0.5l-0.8 -2.1l0.2 -3.2l0.2 -2.9l0 -2.2l-7.1 -8.9l4.5 -10.4l-1 -3.3l-7.5 -8l-2 1.5l-0.9 3.8l-7.4 8.1l-3.8 0.1l-11.7 -5.1l-2.4 2.6l-0.2 2.5l-6.4 2.5l-8.7 0.9l-5 -2.5l-1.9 0.2l-8 3.1l-2.1 2.2l-0.1 0l-5.1 -2.7l-1.3 -10.3l5.5 -5.1l4.2 -11.7l2.6 -19.5l-0.9 -6l-15.7 -16.5l-7 1.6l-3.3 -1.3l-2.2 -4.5l0.8 -5.3l-7.1 -7.2l-8.3 -1.9l-12.2 4.8l-5.2 12l-3.2 21.5l-1.1 1.8l-2.4 0.6l-3.2 -1.1l-3.5 -6.6l-2.2 -0.7l-1.1 0.8l-6.5 -2.8l-13.8 2.1l-7.4 3.2l-21 13.3l-10 2.5l-3.2 -3.2l-0.5 -5.7l-5.2 -15.3l-2.1 -3.9l-0.6 0l-2.6 0l-5.9 -7.6l-3.6 -11.1l-11 -12.1l-0.2 0l-1.7 -14l-4.1 -7l-32 11l-59.5 -30.3l-52.9 -36.9l-32.2 6.4l-20.5 14l-19.1 -7.3z" />
  </g>
  <g data-id="053">
    <path d="m2831.8 5854.9l0 0l-0.6 201l0.7 603.6l19.7 -0.3l2.7 384.8l0.1 19.8l293.8 0.3l-6.9 -134.4l49.7 -40.4l41.7 -0.4l47.3 -25.4l558.1 -3.9l193.5 -2.1l202.6 13.6l-0.3 -214.5l-8.6 -12.7l3.1 -391.3l-399 5.3l-399.8 -0.5l0.5 -201l-199.4 -0.4l0.9 -199.5l-199.7 -0.8l-200.2 -0.8z" />
  </g>
  <g data-id="055">
    <path d="m6370.6 9638l0 0l-0.9 196.8l98.1 3.4l57.9 -0l232.8 7.7l8.8 -0.3l121 0.4l63.9 0.2l193.6 -1l-0.8 -197.3l0.7 -198.7l3.2 -198.5l6.2 -199.3l-0.1 -0l-194.5 -2.7l-65 0.1l-108.5 -1.2l-346.2 -0.6l-63.1 0.5l-1.3 65.4l-4.4 327l-1.2 198.1z" />
  </g>
  <g data-id="057">
    <path d="m4234 7268.7l0 0l0 0.1l0.7 198.3l0.1 371.3l-0.3 205.7l780.1 0.1l62.8 -0.1l16.1 -0l6.7 -0.1l1.5 -0l-3.5 -59.2l-34 -23l-18.9 -35l-36.3 -100.3l-3.5 -48.6l-35.8 -57.7l-40.5 -30.3l-21.5 -39.6l-22 -16.9l-10.1 -38.6l-64 -58.3l-2.8 -44.2l-29.1 -50.7l-4.1 -22.9l51.1 -19.5l-17.4 -96.1l0.2 -29.6l-19.2 -38.4l-51.9 -28.2l11.4 -35.8l-32.5 -54.1l-12.3 -95.8l35.3 -30l-3.7 -43.3l25.7 -11.7l23.8 9.6l10.6 -102.1l47.3 8.4l14.3 30l15.8 -4.7l4.9 -60l31.1 -4.6l-3.4 -24.9l-33.2 2l30.9 -25.3l-32.6 -27.4l44.8 -37.4l-8.5 -45l-292.7 1.1l-381.2 0.6l0.3 214.5l-0.3 397.7z" />
  </g>
  <g data-id="059">
    <path d="m7533.2 10364.8l0 0l1 129.8l0.9 129.2l54.3 -0.1l1.1 -0.1l34.4 -2.2l54.6 -0.2l27.5 -0.2l1.3 -0l138.3 -0.4l34.7 0.6l73 1.4l98 1.8l31.1 1.1l116.8 2.2l3.7 0.1l89.4 1.5l45.6 0.9l25.3 0l-15.1 -51.1l-4.3 -33.5l-0.9 -58.9l-0.8 -51.4l3.9 -18.1l-6.9 -15.2l-1.1 -4.4l-6 -23.5l-0.5 -20.6l8.2 -63l14.5 -53.4l-66 -0.5l-29.5 -0.9l-533.3 -2.7l0.2 130.2l-134.2 0.9l-59.4 0.5z" />
  </g>
  <g data-id="061">
    <path d="m8421.9 6275.5l0 0l-1.2 200.8l300.3 -0.9l66.4 0.1l15.4 -54.2l20.6 -37.7l5.7 -18.8l-0.6 -42.9l10.4 -45.3l8.7 -22.5l12.7 -84.9l14.2 -38.1l10 -62.7l0.4 -16l25.7 -93.6l34.7 -79.3l15.6 -43.4l32 -36.5l20.7 -14.6l6.2 -9.2l13.3 -21.9l33.3 -80.6l-596.4 -3.4l-20.3 22.9l-4.1 25.3l-8.4 16.3l-10.4 10.7l-4.8 530.4z" />
  </g>
  <g data-id="063">
    <path d="m2405.1 7262l0 0l1.7 3.9l19.1 21.1l3.2 5.8l5.2 13.1l2.3 2.8l18 10.3l15.3 11.8l17.5 22.7l14 15.6l3.1 5.9l2.5 19l9.6 21.3l1.1 1.5l8.3 4.6l6.5 5.9l2.4 4.3l6.5 16.8l6.9 11.5l16.4 9.6l12.4 11.3l8.7 15.2l3.7 13.8l3.4 19.1l15.9 17.9l4.1 6.7l3.4 3.2l9.4 5.5l11.3 12.9l3.6 9.9l7 11.4l3.2 29.3l4.4 14.4l1.6 10.9l7.6 21.9l4.9 8.7l3.3 18.7l15.1 20l15 19.8l0.3 3.7l-18.9 64.1l0.9 25.8l-1.7 8.4l-3 9.5l570.7 0.7l0.9 -396.2l-4.6 -393.6l-99 1.5l-293.8 -0.3l-0.1 -19.8l-26.3 -18.8l-49.8 1.1l-4.7 27.4l-34.2 51l-42.1 -10.1l-30.3 -33.6l-30.1 27.1l-38.3 -10.3l-49.1 62.6l-1.2 68.9l26.2 52.4l-169.4 0.3z" />
  </g>
  <g data-id="065">
    <path d="m4046.2 9912.7l0 0l1.7 390.7l-0.8 292.9l33.6 0.4l58 -0.5l4.5 -0l0.1 -0l8.6 0.1l96.7 -0.9l50.9 -0.1l5.8 -0.4l3.6 0.2l23.1 0.7l4.1 -0.4l45.1 -0.5l28.1 0l40.3 -0.7l28.3 -0.5l35.2 0.3l78.8 0.6l3.3 -0.6l31.8 -0.3l90.4 2.2l2.7 0.4l29.1 0.5l3.5 0.4l19 0.7l0.9 -0.1l49 1.9l46.5 -0.4l0.9 -0l0.2 -0l146 0.5l0.6 -396.7l-1.9 -292.4l-385.8 -0.1l-581.7 2.2z" />
  </g>
  <g data-id="067">
    <path d="m5693.7 3830.5l0 0l-1.9 813.4l331.7 1.2l0.7 207.9l398.1 0.8l-0.8 -206.8l84.9 -0.2l475.8 1.1l4.9 -203.9l-68.9 -0.4l3.4 -405.9l-407.8 0.1l4.9 -202.6l-202.9 1.6l-129.3 -6.8l-392.8 -5.9l-99.9 6.4z" />
  </g>
  <g data-id="069">
    <path d="m4672.2 4127.6l0 0l4 513.8l130.2 0.1l390.7 0.5l386 1.2l108.6 0.8l1.9 -813.4l-5.6 -206.9l-197.7 -0.9l-813.6 1.5l1.9 406.1l-6.4 97.2z" />
  </g>
  <g data-id="071">
    <path d="m7965 6674.2l0 0l-0.7 200.7l2.5 398.8l0 0l0.6 132.5l-0.1 33.5l0.1 33.8l510.4 -1.1l7.4 -25l12.8 -79.1l4.9 -13.5l19.9 -29.6l8.3 -21.2l3.2 -31l2.4 -23l20 -69.8l19.8 -39.4l25 -33l4.3 -35.2l-2.8 -33.6l14.1 -52.2l41.9 -39.4l1.6 -1.1l31.6 -21.4l62 -28.6l38.2 -35.5l33.3 -46.3l11.1 -29.7l9 -41.3l-1.6 -43.3l-7.8 -24.6l-14.2 -44.9l-31.9 -76.2l-5.9 -31.5l-1.1 -33.4l4 -14.1l-66.4 -0.1l-300.3 0.9l-199.7 -0.9l-0.9 200.1l-58.6 0.1l-196.4 -1.4z" />
  </g>
  <g data-id="073">
    <path d="m4227.6 5029.7l0 0l0.5 621.4l290.3 -0.1l99.1 0l189.8 0.8l195.8 -0.3l583.7 -2.1l236.7 10.3l200.9 0l-0.4 -405l0.9 -201l-0.6 -200.8l-0.7 -207.9l-331.7 -1.2l-108.6 -0.8l-386 -1.2l-390.7 -0.5l-130.2 -0.1l-253.3 -0.9l0.4 202.5l-193.2 -0.4l-2.5 187.3z" />
  </g>
  <g data-id="075">
    <path d="m7335.8 3468.4l0 0l-3.5 573.3l201 5.6l-5.3 404.3l201.7 8.4l-4.8 200.8l115.7 3.8l-3.7 201.6l192.1 4.9l100.8 2.4l-2.4 63.6l100.4 6l202.7 -0.2l-4.2 57.5l108.7 -19.6l56.8 2.8l52.1 -8.9l9.2 -86.7l-1.7 -72.1l25.2 -70.9l14 -15.6l11.7 -6.6l5.2 3.1l5.9 -3.4l1.4 -9.8l-5 -13.4l-2.7 1.3l-37.8 -12.5l-11 -5.4l-9.9 -2.2l-2 -1.7l-1.2 -3l-3.2 -2.1l-7.5 0.7l-19.9 -1l-7.1 -5.3l-7.6 2.5l-4.6 0.1l-2.1 -1.8l-0.1 -10l-1.3 -1.8l-8.2 -11.2l-6.4 -4.6l-2.4 -2.9l-9.5 -20.5l-0.5 -2.6l4.1 -6.7l0.3 -2.3l-13.3 -21.2l-7.4 -7.7l-6.5 -4.8l-4.4 -2.4l-9.1 -1.6l-4.7 -2.4l-6.4 -5.8l-1.2 -3.1l-5.2 -6.9l-10.9 -5.2l-8.5 -9.3l-2.4 -5.4l-5.2 -5l-5.1 -3.1l-7 -1.5l-1.6 -1.6l-0.7 -2.7l2.1 -9.9l-10.8 -45.3l0.1 -2.7l3.7 -9.2l5.2 -5.9l13.8 -7.7l2.9 -3.3l0 -7.6l-1.8 -8.1l0.5 -6.6l7.4 -10.2l1.8 -8.3l-1 -3.7l-4.9 -3.6l-0.5 -3.6l1.7 -4l9.7 -11.9l2 -1l6 0.4l2 -1.1l1.4 -2.2l-0.2 -12.3l3.8 -22l2.2 -8.6l-2.2 -4.7l10 -15.6l7 -5.6l0.5 -6.2l-1.7 -10.7l2 -11.3l7.9 -14.4l5.1 -6.1l4.6 -14.1l0.1 -4.1l13.8 -18.2l6.2 -4.8l13 -19.8l3.6 -1.8l2.6 -2.7l3.6 -7.3l-0.9 -11.8l0.7 -2.7l2.9 -3.6l6.7 -4l12.6 -20l1.1 -13.7l-0.5 -12.8l-1.2 -3.6l-3.6 -3.6l-4.8 -0.9l-5 -10.3l1.4 -9.6l-1.3 -10.7l-1.2 -3.4l-26.6 -19.2l-1.5 -2.6l-0.2 -8.4l-0.8 -1.9l-12.9 -5.8l-5 -8.8l-7.1 -2.6l-6 -0.2l-9.6 4.6l-7.5 5.8l-4 3.8l-2.6 6.1l-17.4 8.8l-23.9 30.5l-7.2 11.2l-0.9 3.3l-20.7 7.5l-1.1 2l0.3 5.6l-4.4 5.4l-13.2 2.4l-11.6 -6.5l-3.6 -0l-4.1 -0l-15.1 3.5l-8 -6.8l-3.9 -1.9l-16.7 -0.4l-15.8 5.5l-21.3 -3.2l-0.9 2.4l-2.1 2.2l-3.4 0.4l-4.7 -3.4l-4.7 -0.6l-4.4 3l-2.4 10.6l-2.2 3.2l-16.8 10.4l-2.9 0.6l-1.9 -2.1l-0.3 -2.3l2.6 -5.4l-0.9 -6.6l-3.9 -4.7l-9.6 -2.1l-3.7 -1.9l-4.3 -4.3l-2.3 -4.1l-0.7 -2.8l-0.7 -5.3l-2.2 -4.5l-2.5 -0.9l-4.8 -25.8l-0.5 -4.7l-6.4 -8.2l0.4 -5.4l3.1 -4.6l4.4 -4.1l10.2 -5l8.6 -7l4.3 -11.4l-4.6 -7.7l-0.3 -2l1.1 -4l13.4 -6.9l2.7 -4.6l-0.6 -13.2l-1.4 -5.1l-2.1 -3.3l-7.2 -7l-6.9 -17.3l0.5 -14.2l-3 -8.2l0.4 -3.3l10.5 -16.2l12.9 -6.6l4.3 -9.9l14.5 -5.8l4.9 -6.4l1 -3.3l8.3 -7.2l10.5 -4.4l13.3 -9.9l0 -4.5l2.5 -4.4l9.4 -12.1l-0.2 -2.9l-2.5 -6.2l0.8 -4.8l13 -14.2l1 -3.3l0.9 -11.5l2.3 -7.5l4.9 -8.7l1.1 -3.7l-0.7 -11.9l-9.2 -3l-5.7 -18.6l-3.2 -24.5l-0.8 -15.4l0.3 -7.3l1.9 -6.2l-0 -2.9l-6.2 -12.3l-10.8 -12l-8.3 -8.2l-13.8 -8.3l-8.4 -7.4l-1.1 -1.6l-1 -7.2l3.1 -12.9l3.9 -1.7l25.6 8.5l12.6 5.4l14.1 1.7l8.5 -2.2l2.5 -2.4l3.4 -4.3l0.8 -4.7l1.7 -16.4l-0.4 -15.2l1.3 -3.4l1.8 -2.7l7.2 -4l6.7 -6.6l1.6 -21.8l-2.4 -26.8l-5.2 -12.7l-18.4 -5.1l-6.4 -4.9l-0.5 -7.6l-1.3 -3.6l-12.3 -12.5l-9.4 -23l-11.6 -12.2l-7.5 -3.9l-3.8 -3.6l-0.9 -14.3l3.3 -6.7l0.4 -4.6l-2.1 -4.2l-0.3 -4.9l1.2 -1.9l32.7 -8.8l7.2 -8.6l5.8 -2.8l22.6 -4.6l1 -1.5l0.4 -3.6l-0.1 -11.5l-2.3 -6.4l-9 -9.7l-23.3 -15.7l-5.1 -4.6l-6.7 -9.2l-0.2 -1.5l6.7 -7.6l-0 -3.3l-1.3 -4.4l-7 -8l-3.6 -2.5l-31.4 -8.6l-9.7 -4.7l-15.6 -12.3l-14.2 -11.3l-14.5 -24l0.7 -13l1.4 -1l-1.8 -6.1l-6.5 -8.9l-8.6 -2.3l-4.1 -8.1l-6.6 -2.3l-4 0.2l-15.9 1.7l-6.8 4.2l-3.8 -0.5l-2.7 -2.3l-2.1 -7.2l-2.3 -3.2l-3.2 -2.9l-2 -0.5l-3.1 0.2l-1.9 2.3l-21.5 3.1l-7.6 -6.1l-4.1 -1.8l-9 5.3l-15.7 1.6l-17 -2.3l-7.9 2.5l-6.9 -2l-2.1 -2.9l1.2 -3.1l-4.9 -7.6l-9 -5.4l-7.2 -1.6l-15.8 -6.1l5 -12l2.6 -0.9l1.5 -4.5l-2.9 -14.1l-8.8 -23.9l-3.1 -4.1l-2.7 -1.3l-7.3 -0.1l-9.4 3.2l-9 4.5l-17.3 -0.6l-9.9 5.6l-6 2.1l-6.4 -0.1l-4 -1.4l-10.1 0.4l-0.8 0.9l-1.1 6.6l-6.3 6.4l-6.3 2.8l-3.5 3.7l-12.5 0.6l-1.6 159.4l-601.8 -22l-1.1 237.6z" />
  </g>
  <g data-id="077">
    <path d="m5407.3 7840l0 0l-0.8 200.4l190.7 0.1l391.5 -1.2l-0.2 -165.4l-0 -33.6l0.4 -66.4l10.4 -15.2l116.9 1.9l-0.2 -101.3l-27.9 13.2l-21.7 -17.9l-0.2 -146.7l49.7 0.1l-0.8 -242.8l-705.8 1.7l-1.8 572.9z" />
  </g>
  <g data-id="078">
    <path d="m6421.4 4647.2l0 0l0.8 206.8l0.6 200.3l404 -1l-1.1 201.5l406.1 2.2l8.9 -607.7l-258.8 -1.1l-475.8 -1.1l-84.9 0.2z" />
  </g>
  <g data-id="079">
    <path d="m7921.7 9668l0 0l-0.6 176.4l194 -0.5l205.3 3l-12.9 -32.5l-21.2 -72.9l0.6 -8.8l5.7 -83.2l2.1 -31.2l-4.1 -40.2l-19.7 -35.9l-24.7 -22.6l-10.6 -9.7l-14.8 -18.2l-13.3 -34.4l-4.8 -29.2l5.9 -30.4l21.4 -19.8l19.6 -29.9l6.1 -22.5l-4.8 -16.9l-11 -38.4l-0 -0l-28.1 -33.7l-12 -26.8l-1.5 -16.4l1.8 -9.2l13.2 -25.7l18.4 -49.4l-10.7 -36.1l-7.4 -12.3l-53.5 -0.2l-0.5 -0l-56.4 -0.6l-57.4 -0.3l-113.7 1l-1.6 73.2l-0.1 26.3l-2 50.9l0.1 10.7l-0.7 37.1l-0.2 13.4l-1.1 86.3l-0 1.4l-0.5 80.3l-0.2 16.2l-2.2 79.7l-0.4 16.4l-0.6 32.5l-0.1 15.3l-0.3 50.3l-0.1 18z" />
  </g>
  <g data-id="081">
    <path d="m3141.4 6929.7l0 0l6.9 134.4l99 -1.5l4.6 393.6l-0.9 396.2l499.1 -1.5l36.5 0.4l250 -0.2l198.3 -12.7l-0.1 -371.3l-0.7 -198.3l-0 -0.1l0.3 -397.7l-202.6 -13.6l-193.5 2.1l-558.1 3.9l-47.3 25.4l-41.7 0.4l-49.7 40.4z" />
  </g>
  <g data-id="083">
    <path d="m6921.5 4037.8l0 0l-3.4 405.9l68.9 0.4l-4.9 203.9l258.8 1.1l-8.9 607.7l396.1 6.3l-6.8 199.1l15.9 201.7l19.3 0.2l-0.4 16.6l5.3 0l159.1 -10.6l232.2 -1.5l0.3 -20.8l10.2 -77.8l30.9 -54.1l21.6 -22.1l16.6 -6.9l24.1 -52l36.7 -93.1l5.5 -20l37.7 -27l19.7 -3.4l19 -40.1l3.1 -16.4l7.3 -12.9l16.4 -8.2l9.2 -16.1l8.2 -23.9l-19.4 -33.4l-5.2 -15l-2.6 -15l1.4 -13.5l7.2 -17.1l32.1 -45l10.7 -6.7l75.8 -26.1l7 -1.3l4.2 -57.5l-202.7 0.2l-100.4 -6l2.4 -63.6l-100.8 -2.4l-192.1 -4.9l3.7 -201.6l-115.7 -3.8l4.8 -200.8l-201.7 -8.4l5.3 -404.3l-201 -5.6l-410.8 -3.9z" />
  </g>
  <g data-id="085">
    <path d="m4673.8 3006.4l0 0l2.8 205.7l0.1 412.2l813.6 -1.5l197.7 0.9l5.6 206.9l99.9 -6.4l392.8 5.9l129.3 6.8l-0.1 -201.9l-1.7 -812.1l-121.7 -0.3l-92.4 -9.1l4.3 100.9l-136.1 -12.6l-70.6 2.9l0.8 -96.3l-205.2 7.4l-545 -0.3l-470.3 2.9l-3.8 187.9z" />
  </g>
  <g data-id="087">
    <path d="m6821.9 6502l0 0l-2 167l155.5 -0.7l144.3 -0.3l53.6 -0.7l140.9 -0.6l4.2 -0.1l53.4 0.5l82.3 0.6l107.2 1.6l23.7 0.5l6.9 -0.1l127.6 2.4l2.5 -146.8l-2.4 -23.4l0.2 -15.5l0.3 -12.2l1.7 0l-0.4 -43.9l0.1 -102l1.6 -449.9l-90 4.7l-400.4 -11l-192.9 -2.3l-214.9 -0.2l0.1 402.1l-0.2 98l-2.8 132.2z" />
  </g>
  <g data-id="089">
    <path d="m7932 8864.4l0 0l-0.1 195.8l113.7 -1l57.4 0.3l56.4 0.6l0.5 0l53.5 0.2l-6.9 -11.4l-22.7 -87.5l-2.8 -32.7l16.3 -76.1l20.8 -53.2l11 -98.3l0.2 -2.2l8.1 -38.7l8.1 -24.8l12.3 -30.3l15.5 -26.9l46.5 -66.6l32.1 -59.5l23.9 -71.7l-6.7 -40.4l-0.4 -37.8l5.4 -35.7l-404.8 1.5l0.6 396.5l-36.6 0l-1.4 199.8z" />
  </g>
  <g data-id="091">
    <path d="m940.2 5984.2l0 0l3.5 6.8l5.3 21.4l4.7 9.9l7.3 10.7l0.8 2.7l1 5l-0.8 29.7l1.2 7.6l8.4 17.4l10.1 16.7l14.2 17.9l9.2 9.3l23.5 19.6l22 13l6.9 6.2l4.7 6l7.7 11.1l8 9.2l18.7 11.6l9.7 4.3l32.5 10.8l41.3 12l12.9 3.2l37.6 5.8l24.8 5.9l5.6 3.6l9.6 10.4l6.9 4.9l22.5 5.7l16.7 6l5.9 3.8l3.9 -51.9l36.1 -84.1l22.8 -100.7l-3.7 -39.3l14.7 -46l-1.2 -39.8l27.6 -60.7l36 -14.3l177.5 0l399 0.1l-0.2 -201l-797.1 -1.7l-0.2 334.4l-297.4 -3.2z" />
  </g>
  <g data-id="093">
    <path d="m132.8 5480.5l0 0l-1 17.2l1.1 2.6l5.4 4.5l1.9 3.7l0.5 2.4l0.3 1.5l23.8 17.9l35.9 18.1l14.9 13.4l4.6 2.5l6.6 1.5l21.3 11.5l8.6 8.1l31 29.1l20.1 17l7.3 10l16.4 17l35.9 43.3l6.1 5.8l8.5 6.6l39 20.8l17.1 23.2l3.2 11.1l0 11.5l-4.6 13.2l-1.3 6.5l0.3 5.7l2.8 7.4l5.6 5l5.7 2.6l12.2 -1.6l9.2 0.9l18.2 14.1l2.7 9.8l4.2 3.7l2.5 0.5l5.1 -2.3l4.5 -7.1l2.8 -2.6l6.9 0.9l5.8 2.6l3.6 4.1l10.6 15.7l18.1 31.9l0.8 7.9l-0.7 3.9l-2.5 5.9l-0.5 4.3l2.6 6l3.1 2.8l6.1 1.9l6.2 -0.6l21.7 -14.5l10.6 -3.8l4.1 0l9.5 7.8l6.3 3.4l24.6 9.8l5.5 -0.3l9.4 -4.3l6.1 -0.5l17.7 7.5l24.8 7.3l23.6 -2.2l12.3 -6.2l3.5 -0.7l8.8 2.7l8.3 5.9l9.2 3.9l26 4.8l16.8 1.4l34.1 -3.4l11.1 0.6l22.9 4.1l18.8 7.3l11.7 7.2l14.9 13.7l4.2 5.6l1.9 3.6l297.4 3.2l0.2 -334.4l-1.9 -401.7l-158.3 -0l-6.3 0.4l-24 -0.7l-203.6 -10l-200.7 -0.4l-267.8 -0.3l-179.5 1.4l0.8 17.7l5.4 30.8l0 9l-1.4 5.1l-5.4 7.3l-4.8 8.7l-0.7 4l1.3 7.6l-1.3 3.8l-12.8 20.5l-1.8 7.4l-2.4 26.1l-3.7 13.5l-5.9 10.4l-11.9 13.3l-7 10.8l-8.2 20.9l-3.4 21.9z" />
  </g>
  <g data-id="095">
    <path d="m0 3452.1l0 0l0.1 8l2.2 12.2l6.1 14.2l0.7 8.3l-3.9 12.3l-2.5 14.9l0 8.9l5.2 11.9l-2.8 25.9l2 7.8l4.3 4.9l16.5 13.7l40.5 2.5l4.4 0.9l15.8 7.1l17.8 5.1l18.5 -0.4l17.4 -4.1l18.7 -9.5l7.2 -2.3l16 -1.4l4.2 0.6l5.2 3l9.3 7.9l12.6 14.3l18.6 10.5l32.1 27.9l2.2 5.9l0.2 4.4l-5.5 26l0.5 16.1l1.8 10.2l3.8 5.3l14 13l6.5 8l15.9 24l11.5 23.8l5.9 15.5l7.9 9.4l10.8 18.6l5 3.5l26.4 10.7l12.5 6.9l1.4 1.9l10 30.2l-0.3 8.7l-3.9 19.5l-1.8 24.5l1.3 6.5l4.1 5l0.4 2.4l-2.4 13.6l-4 9.6l0.2 11.2l-13.3 5.7l-9.2 6.4l-8.9 9.8l-8.5 14.6l-3.7 6.4l-3 9.2l0.9 6.1l-1.6 2.1l-28.5 21.5l-10.2 11.8l-1.6 5l-0.6 6.2l7.4 26.3l1 7.2l-0.1 7l-1.6 6.2l-8 16.8l-8.5 12.2l-29.2 28.1l-8 11.8l-7.4 8.8l-13.9 10.8l-8.6 6.7l-13 4.7l-3.8 4.5l-1.4 4.7l0 4.8l2.1 14.3l4.3 9.4l8.8 12.3l1.7 8.5l-0.1 9.9l-5.7 11.5l-6.1 7.8l-2.2 8.9l4.5 26.4l0.1 18.2l2.8 10.7l3 7.1l2.9 4.3l0.8 5.6l-3.8 13.8l-6.6 7.5l175 -1.3l604.4 2l209.6 -0.6l-0.5 -199.3l1 -403.6l2.1 -404.7l0.7 -202.1l-212.7 -0.7l-401.7 -6.5l-1.5 203.8l-588.5 -4.9l-1.4 12.1l1.6 5.2l0.2 7.9l-2.1 11.8z" />
  </g>
  <g data-id="097">
    <path d="m5003 5651.7l0 0l0.6 400.5l193.7 0.7l0.6 142.5l2.7 174.8l0 288.8l208.4 4.5l413.8 4.3l163.2 0.4l36.5 0.7l1.8 -1008.9l-200.9 -0l-236.7 -10.3l-583.7 2.1z" />
  </g>
  <g data-id="099">
    <path d="m3633.5 3768.5l0 0l-1.3 271.1l1046.4 -9.3l-1.9 -406.1l-0.1 -412.2l-2.8 -205.7l3.8 -187.9l-1.8 -200.2l-424.3 1.4l-616.3 -0.5l-2.8 67.2l-0.1 742.5l1.3 339.6z" />
  </g>
  <g data-id="101">
    <path d="m7529.8 10038.4l0 0l0.3 2.9l1.7 137.3l0.2 8.9l0.9 112.4l0.3 65l59.4 -0.5l134.2 -0.9l-0.2 -130.2l533.3 2.7l29.5 0.9l66 0.5l4.6 -16.8l13.5 -32.4l12.4 -22.4l0.9 -1.7l2.8 -0.2l4.4 -16.6l6.2 -42.7l-5.8 -45.7l3.4 -17.5l3.2 -16.3l13.8 -24.4l5.1 -25l-11.5 -19.2l-33.3 -28.5l-48.2 -65.2l-6.2 -15.5l-205.3 -3l-194 0.5l-194.1 1.1l-194.6 1.7l-0.1 3.2l-2.6 188z" />
  </g>
  <g data-id="103">
    <path d="m3643.9 8244.3l0 0l5.1 294.3l4.2 98.6l-1.3 468.9l95.6 -30.6l32.4 -34.5l71.5 -24.3l190 23.7l33 1.8l97.4 -21.7l65.1 7.1l21.6 -3.6l31.9 31.8l29.1 -8.3l69.4 55.3l40.5 19.8l2.2 -10.9l0.8 -476l0.3 -197.6l-0.4 -99.2l-0.4 -27.1l0.5 -9.6l-0.4 -12.6l0.3 -50.2l-195.8 2.3l-197.7 0.6l-395.1 2z" />
  </g>
  <g data-id="105">
    <path d="m5785.2 9840.6l0 0l0.1 167.7l5.4 603.2l7 0.6l116.2 2.6l46.4 1.3l19.6 0.6l6.2 -0.3l30.7 0.2l3.3 0.2l97.9 1.6l3 -0.2l65.4 0.9l7.8 -0.1l5.6 0.2l29.5 0.9l45.8 0.6l46.4 -0.1l47.8 0.4l0.2 0l3.3 0l31.2 0.1l0.2 0l81 2l4.7 0.2l252.7 6.8l16.7 -0.1l-3.9 -587l2.9 -178.6l0.1 -18.4l-232.8 -7.7l-57.9 0l-98.1 -3.4l-389.1 3.9l-185.4 1.7l-10 0.2z" />
  </g>
  <g data-id="107">
    <path d="m2215.8 3430.4l0 0l-1.7 809.6l1012.9 0.4l-0.2 -204.1l405.4 3.4l1.3 -271.1l-1.3 -339.6l-1416.4 1.5z" />
  </g>
  <g data-id="109">
    <path d="m140.1 4769l0 0l-0.3 10.3l1.7 8.3l8.2 15.8l6.2 8.1l8.8 8.5l15 9.7l13.9 12.9l9.5 11.7l4.2 10.3l0.3 4.3l-1 4.5l-9.2 26.6l-5.1 18l0.7 16.8l2.9 13.8l-2.1 11.3l0.1 10.1l1.4 15.8l1.5 5.4l2.2 4.1l10.7 7.2l10 21.4l6.2 33l0.3 9.9l-8.1 43.3l-3.2 17.2l-1.9 5.2l-1.4 2.6l-2.9 2.2l-19.3 12.9l-1.5 3l-0.9 4.6l-0.6 12.3l1.6 6.5l7.1 16.3l9 16.4l1.2 4l-0.5 4.7l-5.6 12.4l-3.3 10.7l0 0.3l0 0.1l179.5 -1.4l267.8 0.3l200.7 0.4l203.6 10l24 0.7l6.3 -0.4l158.3 0l0.4 -612.6l-34.5 -0.5l1 -205.1l-209.6 0.6l-604.4 -2l-175 1.3l-6.7 5.6l-3 5.4l-5 22.8l-0.8 11.5l1 11l3.2 6.2l20.5 20.7l-0.2 5l-7.2 15.4l-1.4 10.8l0.1 11.8l1.5 8.4l12.1 32l6.1 35l0.1 0.1l4.5 7.4l3.8 3.4l1.8 4.5l-0.1 2.1l-1.5 5.1l-7.3 11.9l-3 2.9l-12.6 9.1l-18.4 17.3l-13.8 15.4l-28.8 22.1l-0.8 1.3l-0.5 0.7l-14 21.7l-2.2 4.5l-1.2 5z" />
  </g>
  <g data-id="111">
    <path d="m4234.5 8044.2l0 0l2.2 197.5l195.8 -2.3l-0.3 50.2l0.4 12.6l-0.5 9.6l0.4 27.1l0.4 99.2l-0.3 197.6l-0.8 476l-2.2 10.9l15.6 15.6l41.6 -20.8l74.4 14.5l51.5 -1.8l46 33.4l9.5 -46.4l22.4 -13.5l16.6 -23.5l49.6 -27.1l149.4 16.3l74 -16.8l34.1 -23.6l54.3 -74.2l50.7 -0.8l69.9 -29.2l28.5 -58.5l-9.9 -33.8l-11 -18.6l12.3 -41.7l26.1 -23.8l43.1 -69.9l35.9 3.1l63.1 -23.9l27.4 -23.2l2.3 -401.8l-30.2 -16.6l-40.3 4.9l-51 -14.2l-55.9 6l-41.1 -11.5l-1.2 -20.8l25.7 -36.1l-59.6 -20.5l-8.1 4.1l-4.4 1.1l-21.8 -19.8l-18.7 -65.2l-6.7 0.1l-16.1 0l-62.8 0.1l-780.1 -0.1z" />
  </g>
  <g data-id="113">
    <path d="m2198.3 2478.2l0 0l-1.4 136.8l16.4 1.8l2.5 813.7l1416.4 -1.5l0.1 -742.5l2.8 -67.2l-408.1 1.2l0.9 -205.9l0.1 -205.4l-515.9 -7.8l-514.4 2l0.5 274.9z" />
  </g>
  <g data-id="115">
    <path d="m6023.8 5254.9l0 0l0.4 405l523.8 3.8l32.3 0.2l245.2 1.4l215.7 1.7l-1.5 202.9l192.9 2.3l400.4 11l3.9 -175.6l-16 -44l16.2 0.4l-15.9 -201.7l6.8 -199.1l-396.1 -6.3l-406.1 -2.2l1.1 -201.5l-404 1l-0.6 -200.3l-398.1 -0.8l0.6 200.8l-0.9 201z" />
  </g>
  <g data-id="117">
    <path d="m7769.3 7473.9l0 0l2.3 792.9l197.8 1.3l404.8 -1.5l6.9 -45.4l14.6 -35l77.2 -137.8l46.2 -91.7l5.8 -18.3l-0.5 -42.7l-8.5 -37.5l-2.8 -29.3l2.6 -16.2l5.1 -5l3.6 -10.5l4.5 -25l0.3 -1.7l-0.3 -13.6l-43 -98.1l-5.2 -48.6l1.5 -47.3l-12 -48.3l-0.3 -15.3l8 -26.8l-510.4 1.1l-198.1 0.4z" />
  </g>
  <g data-id="119">
    <path d="m3227 4240.4l0 0l-1.1 401.2l4.2 207.1l202.7 -1.1l399.5 1.1l202.9 0.3l194.9 -6.6l193.2 0.4l-0.4 -202.5l253.3 0.9l-4 -513.8l6.4 -97.2l-1046.4 9.3l-405.4 -3.4l0.2 204.1z" />
  </g>
  <g data-id="121">
    <path d="m2122.2 6796.5l0 0l-25.9 35.7l36.5 38.4l41.3 15.7l27.8 55.3l0.6 38.7l23.2 25.5l-39.5 77.5l-21.2 56.3l20 28.6l19.7 7.1l21.8 1.8l15.6 0l28.3 5.6l8.2 4.9l11.8 9.9l23.2 10l3.9 0.3l16.5 -3.3l8.1 1l10.1 6.3l27.7 11l5.2 3.5l8 7.2l4.3 6.7l5.2 12.3l1.7 7.7l0.8 1.8l169.4 -0.3l-26.2 -52.4l1.2 -68.9l49.1 -62.6l38.3 10.3l30.1 -27.1l30.3 33.6l42.1 10.1l34.2 -51l4.7 -27.4l49.8 -1.1l26.3 18.8l-2.7 -384.8l-19.7 0.3l-0.7 -603.6l0.6 -201l-198.7 0.4l-199.2 1.8l-199.7 -0.4l-1.1 804.3l-7.1 13.3l-37.9 38.3l-28.4 4.1l-43.6 26.2l-12.6 23.6l18.8 29.9z" />
  </g>
  <g data-id="123">
    <path d="m2655.7 7963.3l0 0l-0.8 22.7l2.5 26.6l1.6 4.2l9.4 8.9l2 3.4l2.4 13.4l-1.3 8.1l-8.7 24.6l-0.5 27.3l6 12.2l5.7 8.6l5.5 6.1l8.8 7.1l22.7 24.1l7.6 9.6l2.9 4.5l1.4 3.9l0.6 14.1l-2.2 24.4l-2.7 6.9l-10.2 15.4l-4.2 9.7l-1 3.6l-0.4 8l1.5 12l10.6 16.7l6.2 20.3l4.8 5.4l12.2 8.4l7.1 7.8l1.5 4.4l-0.9 9.9l0.3 17.1l-0.9 7.5l1.1 14.1l3.8 14.1l-1.2 8.3l-7.2 22.3l-6.9 13.1l-8.1 6.6l-4.5 5.9l-1.6 5.1l-0.3 5.9l1.8 9.5l5.8 12.3l35.5 46.4l2.6 4.7l754.4 -3.6l128.4 3.5l-5.1 -294.3l395.1 -2l197.7 -0.6l-2.2 -197.5l0.3 -205.7l-198.3 12.7l-250 0.2l-36.5 -0.4l-499.1 1.5l-570.7 -0.7l-1.6 5.1l-4.2 9l-8.6 12.6l-3.2 9.4l1.1 32.2l-8.1 43.3z" />
  </g>
  <g data-id="125">
    <path d="m4675.8 2618.3l0 0l1.8 200.2l470.3 -2.9l545 0.3l205.2 -7.4l-0.8 96.3l70.6 -2.9l136.1 12.6l-4.3 -100.9l92.4 9.1l121.7 0.3l-0.3 -205.6l188.4 0.2l0.8 -216.4l-17.3 -10.1l-8.9 -5.4l-69.2 -40.5l-0.1 -0.1l-165.6 -97.7l-55.1 -14.3l-60.2 -17.3l-8.4 -2.5l-45.4 -12l-11.1 -3.5l-3.3 -1.4l-3.9 -0.9l-20.5 -6.1l-3 -0.8l-92.9 -25.5l-0.6 -0.2l-359.8 -100.2l-62.6 -18.6l-172 -46.8l-48 -14.2l-159.3 -43.5l-236.2 -66.5l-2.8 -0.9l-14.6 -3.2l-17 -4.8l1 547.2l-0.5 206.8l-189.3 0z" />
  </g>
  <g data-id="127">
    <path d="m6758.5 9864.3l0 0l-2.9 178.6l3.9 587l18.3 -0.1l95.3 -3.4l113 -3.2l161.4 0.3l55.2 0.1l74.8 0.6l72.3 0l185.3 -0.3l-0.9 -129.2l-1 -129.8l-0.3 -65l-0.9 -112.4l-0.2 -8.9l-1.7 -137.3l-0.3 -2.9l2.6 -188l0.1 -3.2l-113.6 -1.6l-79.8 0.5l-193.1 -0.9l-193.6 1l-63.9 -0.2l-121 -0.4l-8.8 0.3l-0.1 18.4z" />
  </g>
  <g data-id="129">
    <path d="m1378.5 2202l0 0l-1.7 411.6l28.3 0.1l2.4 398.2l0.9 211.8l-0 201.3l807.4 5.5l-2.5 -813.7l-16.4 -1.8l1.4 -136.8l-0.5 -274.9l-17.1 -1.9l-802.2 0.6z" />
  </g>
  <g data-id="131">
    <path d="m7347.7 8759.2l0 0l-0.8 98.3l2 196.8l193.8 3.5l193.8 1.3l75.3 1.3l120.1 -0.3l0.1 -195.8l1.4 -199.8l36.6 -0l-0.6 -396.5l-197.8 -1.3l-393.8 -1.3l-1.8 393l-27.8 -0.3l-0.5 60.1l0.1 41z" />
  </g>
  <g data-id="133">
    <path d="m7145.7 9449.1l0 0l-0.7 198.7l0.8 197.3l193.1 0.9l79.8 -0.5l113.6 1.6l194.6 -1.7l194.1 -1.1l0.6 -176.4l0.1 -18l0.3 -50.3l0.1 -15.3l0.6 -32.5l0.4 -16.4l2.2 -79.7l0.2 -16.2l0.5 -80.3l0 -1.4l1.1 -86.3l0.2 -13.4l0.7 -37.1l-0.1 -10.7l2 -50.9l0.1 -26.3l1.6 -73.2l-120.1 0.3l-75.3 -1.3l-193.8 -1.3l-193.8 -3.5l-193.8 -3l-6.2 199.3l-3.2 198.5z" />
  </g>
  <g data-id="135">
    <path d="m6024.2 5659.9l0 0l-1.8 1008.9l555.9 1.8l198.1 -1.7l43.5 0.1l2 -167l2.8 -132.2l0.2 -98l-0.1 -402.1l214.9 0.2l1.5 -202.9l-215.7 -1.7l-245.2 -1.4l-32.3 -0.2l-523.8 -3.8z" />
  </g>
  <g data-id="137">
    <path d="m5409 6663.4l0 0l0 603.7l705.8 -1.7l66.4 -0.8l291.6 -0.4l4.3 -0.2l35.7 0.1l66.2 0.4l0.3 -196.2l-1.1 -397.8l-555.9 -1.8l-36.5 -0.7l-163.2 -0.4l-413.8 -4.3z" />
  </g>
  <g data-id="139">
    <path d="m6578.4 6670.6l0 0l1.1 397.8l-0.3 196.2l0.8 201l198.7 0.7l594.5 4.4l-1.6 -103.2l1.4 -95.4l-0.3 -48.7l-1 -114.3l-0.8 -107.7l0.3 -67.2l-0.2 -151.3l0.8 -115.6l-53.4 -0.5l-4.2 0.1l-140.9 0.6l-53.6 0.7l-144.3 0.3l-155.5 0.7l-43.5 -0.1l-198.1 1.7z" />
  </g>
  <g data-id="141">
    <path d="m4228.5 6252.5l0 0l-3.1 391.3l8.6 12.7l381.2 -0.6l292.7 -1.1l0.7 0l292 4.1l-0 -288.8l-2.7 -174.8l-0.6 -142.5l-193.7 -0.7l-0.6 -400.5l-195.8 0.3l-189.8 -0.8l-99.1 -0l-290.3 0.1l0.5 601.2l-0.2 0.2z" />
  </g>
</svg>
