<?xml version="1.0" encoding="UTF-8"?><!DOCTYPE svg PUBLIC '-//W3C//DTD SVG 1.1//EN' 'http://www.w3.org/Graphics/SVG/1.1/DTD/svg11.dtd'><svg viewBox="0 0 1000 1571.56" xmlns="http://www.w3.org/2000/svg"><path id="44001" d="m675 475l2 12l7 5l4 3l10 16l12 21l17 1l11 1l12 9l15 21l5 8l-2 26l-8 12h-5l-5 16l3 32l3 9l3 1l6 7l7 8l6 8l17-3l4-6l4-6l16-7l2-21l16-12l8-9l-1-8l-2-9l-10-24l3-3l3-2l17-14l5-9l-2-2v-1l-48-73l-31-17l-43-25l-2-1l-6 7l-3 2l-11 10l-13 12l-6-1z"/><path id="44003" d="m98 531v1l4 124l-1 29v10l-2 68l176-4l20-4l133-2l31-1h32h19l-5-22l27-35l22 9l12-30l46-14l-1-16l-22-15l-6 6l-17 5l-2 1l-1-1l-6-40v-1l5-6l5 2l-2 3l3 3l31 4h22h15l2 2l-2 5l1 15l11 9l5 1l7-11l10-40v-30v-3l2-8l-11-5l-6-2l-4-7l-2-4v-16v-4l1-13l-6-21l-20-20l-7 2l-17 9l-2 1l-20 2l-9 5l-8 16l3 15l-10 2l-2 10l-10 3l-22 1l-10 1h-18l-49 2l-18-2l-21 3l-142 4l-43 2z"/><path id="44005" d="m675 1000l-1 8l15 18l18 3l22-12l12 2v5l2 2l9-7l13-54l13-6h1l27-2l16 5l9 9l-1 17l8-6l5-15v-6h-2l-3-25l10-24l5-14l2-12l-9-7l-2-6v-71l-10-22l1-15l3-43l17-5l16-6l6 5l-1 5v3v15l6 17l-1 53l-6 46l17 56l-8 27l9 7l1 7l12 13v11l-8 24l-1 7l3 4l2 2l31-11l4-14l37-25l-2-8l6-7l22-6l-2-45l-12-126l-1-3l-8-16l-4-4v-4l-1-16l1-14l7-8l1-19v-4l3-32l-1-2l-2-1h-1l-14-4l-11-3l-11-2l-19-5v-6l-7-2l-13-3l-4-1h-2l-13 30l-9 4l-10 4l-19 25l-16 1l-8 1l-6 6l-22 21l-4 8l1 3l2 5l-1 14l-16 54l-4 7l-8 4l-10 15l-3 5l-9 24l-3 22l-11 12l-13 17v19l-8 10l-6 7l-3 5l21 23v12l-11 12l-15-3zm-6-353l5 17l15 29l7 6l17 5l10 10l-1 14l-4 13l-5 5l-5 21l2 15l6 10l7 4l12-9l13-26l6-16l-3-29l-13-14l-15-10l-8-14l-6-7l-3-20l-8-15zm-46 360l1 23l13-12l1-10l8-8l3-17l28-16l-4-33l5-98l-5-26l-9-6l-5 1l-7 10l-8 20l-10 58l2 18l16 17l-10 22l-13 1z"/><path id="44007" d="m86 19l1 132l1 35l4 112v9v15v2l2 56v3l2 59l1 8l1 81l121-2l43-2l142-4l21-3l18 2l49-2h18l10-1l22-1l10-3l2-10l10-2l-3-15l8-16l9-5l20-2l2-1l17-9l7-2l20 20l-1-5v-13v-2l-7-19v-8l11-3h2l13 3l7 9l2 2v23l3 13l1 2l20-6l6 1l13-12l11-10l3-2l6-7l-13-8l-2-3v-8l-4-10l-2-4h-3l-5-3l-2-4v-3l1-3l1-5v-4l1-3l-1-1l-10-26l3-8l7-8l3-3l3-3l-9-15l-1-2l11-30v-2l-4-17l-1-2l-4-15l2-22l1-9h-1l-18 3l-2 1l-11 1l-3 1h-1l-7 1h-4l-4 1l-7 2v-1v-38v-1v-14l1-76l-1-4v-33l1-61l-58 1l-46 1l-54 1h-2h-1h-2l-34 4h-2l-41 1l-24 1h-13l-27 1l-52 1l-48 2l-115 3z"/><path id="44009" d="m336 1547l2 12l16 12l9 1l56-10l6-4l5-13l-1-7l-8-3l-14-17l-7-15l2-19l9-17l5-15l-1-7l-9-13l-17-7l-4 7v17l-4 18l-13 15l-7 14l-14 11zm-335-280l-1 12l7 6l32-17l64-18l17-4l60-5l11-1l26-10l18-11l86-32l93-22l39-6l4 1l14 2l40 6l12-26l26-39l-1-45l2-2l8-8l10-6h1l4 1l5-7l7-16l1-10l-4-11v-9l11-4l2 5l4-5l1-9l-1-8l-2-5l-2-24l2-10l6-22l1-13l-4-20l-6-6l-28-49l-7-28l46-12l13-4l-6-116l-46 14l-12 30l-22-9l-27 35l5 22h-19h-32l-31 1l-133 2l-20 4l-176 4l-4 126l-2 38l-5 159v1l-28-5l-29 13l-4 4l-1 7l2 19l12 20v8l2 16l-8 13l2 18l9 16l-13 19l-29 25z"/></svg>
