<?xml version="1.0" encoding="UTF-8"?><!DOCTYPE svg PUBLIC '-//W3C//DTD SVG 1.1//EN' 'http://www.w3.org/Graphics/SVG/1.1/DTD/svg11.dtd'><svg viewBox="0 0 1000 1297.22" xmlns="http://www.w3.org/2000/svg"><path data-zip="02804" d="m81.6 1119.1l-1 1l4 5.4l1 3.2l1 1.9l1.7 -0.3l4.2 1l0.5 1.6l-5 0.6l-0.5 2.1l1.7 4.3l6.7 1.9l3 -0.9l1.7 2.8l2.9 2.5l2 0.3l1.5 4.7l2 0.3l0.8 -3.3l2.2 -0.2l0 2.9l1.6 -0.3l0.6 -4.3l-2.7 -7l2.4 -1.9l1.6 2.3l2.1 -0.5l2.8 -3.4l3.6 -3l-1.6 -5.8l2.2 -2.1l3.1 2.6l3 -2.2l-0.7 -2.7l1.6 -0.6l3 -4l0.8 -3.2l-0.9 -2.7l-0.6 -6.6l-1.9 -1.4l-1.4 -4.6l4.4 -5.8l-7.6 -1.5l-1.9 -3.5l-0.3 -4.4l2.7 -0.7l1.4 -4l3.8 -1.7l6.1 0l2.3 -0.8l5.3 -0.1l-0.2 -2.3l2.3 -10.7l-0.1 -5.3l3.6 0.7l1.6 -1l0.8 -7.2l2 1.7l9 1.4l0 3.6l1.5 0.4l1.3 -3.6l10.3 1.9l-0.1 -6.4l0.9 -3l0.2 -2.1l-2.4 -1.9l-3.3 0.9l-3.2 -3.1l-3.5 -6.1l7.5 -14.8l2 -0.6l-6.7 -8.3l-3.9 1.8l-6.2 0l-3 1l-1.9 4.3l-7.1 -0.4l-3.2 -0.8l0.6 -2.2l-1.4 -3l1.4 -0.8l-0.8 -4.3l-2.4 -3.2l-0.3 -3.9l-2.3 1.8l-10.1 9.6l-19.5 23.6l-3.3 3.3l-3.1 1.7l1.3 -5.9l9.4 -14.9l0.8 -3.1l-3.7 -0.8l-4.8 0l-9.7 -5.1l2.7 5.8l4.5 -0.5l0.2 2l-2 2.5l2.8 5.4l0.5 3.7l-3.7 4l-0.1 4.2l-4.1 5l-1.7 -0.1l-5.1 2.2l-0.7 -2.7l-0.5 15.7l-1.4 39.5l1.6 1l0.6 3.3l-1.9 1.3l-0.2 3.9l-1.5 3l0.8 3.8l2.9 1.2l-3.8 4.2l-5.4 0.6z"/><path data-zip="02808" d="m113.9 1137.4l-2.4 1.9l2.7 7l-0.6 4.3l4.1 2.2l1.9 9.7l15.4 2.7l1.1 1l1.2 -2.4l1.9 0.5l3.6 -2.6l5.7 -0.6l3.2 -2.6l5.4 -0.6l1.8 1.4l4.9 -1.3l2.5 -3.9l2.7 -0.2l0.5 -1.8l2.7 -1.1l6.5 -0.3l1 1.5l-0.4 -21.9l2.6 0.5l1.1 2.9l1.3 -1.1l-0.2 -8.2l5.3 -5l0.3 -5.8l-1.7 -2.6l-3.4 -1.3l-2 -6.6l-1.9 -2.4l1 -5.5l4.4 -8.4l-0.1 -7.3l3 -2.8l-4.9 -0.5l3 -14.9l1.6 -2.7l-9.8 -2.2l-10.3 -1.9l-1.3 3.6l-1.5 -0.4l0 -3.6l-9 -1.4l-2 -1.7l-0.8 7.2l-1.6 1l-3.6 -0.7l0.1 5.3l-2.3 10.7l0.2 2.3l-5.3 0.1l-2.3 0.8l-6.1 0l-3.8 1.7l-1.4 4l-2.7 0.7l0.3 4.4l1.9 3.5l7.6 1.5l-4.4 5.8l1.4 4.6l1.9 1.4l0.6 6.6l0.9 2.7l-0.8 3.2l-3 4l-1.6 0.6l0.7 2.7l-3 2.2l-3.1 -2.6l-2.2 2.1l1.6 5.8l-3.6 3l-2.8 3.4l-2.1 0.5l-1.6 -2.3z"/><path data-zip="02812" d="m234.7 998.6l-0.6 8.3l11.3 -0.9l0.1 10.1l7.4 3.8l5.2 -2.2l-0.1 2.1l1.8 -3.3l4.8 1.3l5.1 3.6l4.9 -1.9l2.8 1.5l4.7 -1l5.3 7l2.8 -3.4l2 -6.3l3.8 0.1l1.3 1.5l1.6 -1.1l6.4 -7.6l1.4 -0.7l3.5 0.9l0.1 -2.1l4.2 1.1l0.8 1.8l3.3 -0.1l0.7 -1.2l0.2 -9.3l-0.3 -8.1l1.8 -6.3l-0.4 -8.3l-3.1 -5.1l-0.7 -8.9l-4.4 0.5l4.6 -3.5l0.9 -1.7l-3.6 -2.3l-2.9 -4.3l-2.6 -2.2l-4.3 -1.9l-7.1 -4.3l-5.5 -1.8l-8 -0.5l-8 3l-0.5 2.3l-1.2 12.7l-4.7 -1.6l-3.6 2.9l-12.2 24.7l-8.2 -7l-3.8 3.6l0.6 1.6l-2.6 3.8l0.2 5.3l-3.1 3.6l-1.4 -0.4l-1.2 2z"/><path data-zip="02813" d="m179.3 1130.3l0.4 21.9l1.1 62.7l0.1 1l0.7 35.4l6.8 -0.6l4.8 0.9l6.4 0.9l14.8 -5.8l4.8 -4.9l6.7 -7.3l11.7 -3.3l61.5 -23.3l6.2 0.4l7.2 -5.5l10 -4.2l2.6 -9.8l2.4 -4.4l1.8 0.9l-2.1 2.7l3.2 -2.3l-3.2 -4.2l0.2 -1.2l3.9 -14.3l15.9 -60.3l0.6 -2.7l16.2 -59.5l-3.8 -4.2l-0.3 -1.8l-4.1 -1.2l-2.1 1.7l-1.3 -1.2l-4.6 -1.8l-2.8 -2.5l-1.3 0.1l-0.1 1.3l-2.8 -0.8l-1.8 2.7l-2.9 1.5l-3.1 5.2l-6.2 1.7l-2.1 -0.9l-2.5 1.6l-2 0.2l0.5 -2.4l-1.9 -2.4l-1.5 1.2l-3.1 0.4l-1.3 -3.4l-6 2.5l-3.5 3l-4 -1.9l-3.8 -3.1l-4.5 -0.3l-1.2 -4l-1.8 -2.2l1.2 -2.3l-1.6 -3.1l-5.3 -7l-4.7 1l-2.8 -1.5l-4.9 1.9l-5.1 -3.6l-4.8 -1.3l-1.8 3.3l-2 2.4l-0.3 6.1l-2.6 4.6l-0.8 6.6l-5.3 4.3l-0.2 5.6l-3.9 6l-1.7 1.2l0.2 2.5l-1.7 1.3l1.5 4.1l-1.1 0.6l-3.2 0.3l-4.9 2.7l0.9 -2.1l-3.7 1.8l-3.8 -0.1l-4.6 3.8l-2.4 0.1l0.1 -2.7l-1.2 1l-3.7 -3.2l-1.8 -3l-2.3 -0.6l-4.5 2.4l-3.5 0.8l-3.1 -0.7l0.6 1.9l-1.5 3.3l0.8 1.5l-3.5 4.6l-2.6 -1.4l-3.4 1.3l-3 2.8l0.1 7.3l-4.4 8.4l-1 5.5l1.9 2.4l2 6.6l3.4 1.3l1.7 2.6l-0.3 5.8l-5.3 5l0.2 8.2l-1.3 1.1l-1.1 -2.9l-2.6 -0.5z"/><path data-zip="02814" d="m88.6 164.9l1.3 44.2l2.7 91.4l59 -1.6l5.3 0l18 -1.2l8.5 -0.1l5 0.1l-0.7 -2.5l6.8 -4.8l0.3 -3.7l-1.5 -4.4l-3 -4.6l1.9 -3l-0.8 -2l-0.1 -8.3l2.8 -0.8l4.3 3.3l4.4 1l4.9 -0.8l6.5 1.9l6.9 3.9l4.2 1l8.6 -1.5l4.1 -2.3l0.1 -1.7l6 -6.1l0.4 -3.6l4.6 1.1l4.9 5.9l2.6 -0.2l0.4 -1l5.1 -2.9l1.6 -5.5l4.7 -1.7l2.5 -2.1l-0.5 2.6l8.1 3l0.9 3.1l9.8 -2.9l6.6 0.2l2.7 7.3l1.3 0.7l1 5.1l1.7 0.2l3.8 3.9l2.9 2l2.4 -6.1l-1.6 -3.7l0.2 -2.8l-5.6 -6l-0.9 -3.3l5.4 0.1l3.6 -1.5l12.3 1.3l2.4 0.6l-0.4 -2.8l19.7 0.3l2.4 -1.7l3.7 4.6l2.9 -0.3l0.3 4.8l-2.3 4.2l1.2 0.9l5.8 -9.1l3.6 1.9l8.3 -3.3l1 2l-2.4 7.4l1.7 2.6l2.4 -4.6l4.2 1.7l-0.8 -3.8l1.2 -1.4l3.3 0.5l1.2 3.9l-2.4 1.3l3.7 1.3l0.7 -3.3l1 -0.4l-2.5 -17.6l-2.7 -18.2l4.3 -4l0 -2.3l-3.4 -1.3l-2.2 -1.9l-10 -61.8l-31.6 1.4l-21.5 0.9l-14.1 -0.1l-36.7 1.2l-2.9 6.1l-1.5 4.9l-3.6 -0.3l-2.4 -2.8l-1.3 -3.4l-1.3 -4.1l-99.6 3.4l-2 0.2l-63.5 1.8z"/><path data-zip="02815" d="m248.9 413.4l5.3 40.5l5.3 3.9l0.1 7.2l-0.7 8.5l-1.7 3.8l0.5 4.8l2.3 1.2l3 -1.6l5.1 -0.9l3 1.2l4.4 -2.1l4.5 2.1l4.5 -1.3l6 -2.6l7.1 -4.6l15.5 -12.4l-0.8 -3l2.7 -2.1l1.1 -5.4l-1.7 -0.4l-2.7 -4.5l-5.1 -1.5l0.4 -2.8l-3.9 -5.3l-0.3 -3.1l-2.6 0.8l-2.2 2.6l-2.1 0.5l-6.4 -3.6l-4 -1.2l-4.1 -3.5l-1.7 0.6l-4.4 -2.6l-2 -0.1l5.9 -0.6l3.8 -2.2l3.4 -0.7l-6.3 -6.3l-3.7 -0.6l-6.8 1.7l1.1 -1.9l-2.8 -3.5l-6 -2.7l-4.5 4l-8.2 -0.3z"/><path data-zip="02818" d="m430 652.1l0.1 4.3l0.1 8.8l0.3 38.5l-0.3 6.4l0.5 50.6l32.3 -1.2l15.9 -0.1l16.7 -0.1l19 0.1l-1.4 -18.9l-2.8 -0.9l-0.7 -3.1l0.8 -3.2l1.5 -1l0.3 -4.3l3.8 -3.1l1.1 -3.7l4.2 -1.1l10.9 -8.9l-1.2 -6.3l3.5 -3.6l3.1 0.4l1.6 -2.1l3.8 -1.9l1.3 -3.2l4.5 0.7l1.1 2.9l3.7 2.3l1.8 3.9l0.4 5.3l3.5 1.1l-0.2 -1.7l2.3 -1l1.9 -4.4l-1.4 -3.3l0.5 -3.2l4.2 -3.6l1.7 -3.4l-0.2 -2.1l3.4 -1.4l-0.1 -5.7l2.2 -0.7l1.4 -2.7l5.4 -2.9l4.3 -3.8l5.2 1.4l6.9 -6l2.1 -0.6l1.1 -0.3l5.3 -1l11.8 2l0 -7.3l0.3 -9.2l-12.3 -4.4l-8.1 -7.6l-2.5 -2.4l-6.2 5.9l-1.4 0.1l-10.7 1.2l-1.8 0.2l-2.9 2.1l-2.9 2.1l-2.6 -8.4l0.7 -4.1l5.6 -2.5l1.2 -0.5l-0.4 -2.2l-0.3 -1.7l-6.9 -3.4l-0.9 -1.2l0.3 -7.8l0.1 -1.5l0 -5.2l-3.1 -3.1l-1.1 0.2l-2.5 0.9l-1.5 -3.1l6 15.8l-1.9 3l-10.2 0.8l-2.2 -0.9l0.9 2.5l0.6 6.9l-0.2 4.6l-5.5 -0.7l-5.1 1.6l-4.8 -5.9l-0.3 5.2l-8 0.8l-4.4 -2.2l2.2 -6.5l-1.2 1.2l1.2 -7l-0.1 -13.4l-6.5 -0.6l-25.5 1l0.9 10.1l0.3 10.4l8.4 -0.2l-0.7 2.2l1.4 2.2l-4.7 0.4l-1 -1.3l-3.1 1.6l0.6 14.8l1.9 -0.1l-11 0.6l-8.2 1.8l-8.4 -3l-7.1 1.7l-12.3 0.2l-19.5 1.2z"/><path data-zip="02825" d="m92.6 300.6l0.3 9.6l0.4 14.7l0 1.8l1.9 57.4l0 3l0.2 4.3l1.9 55l0.3 7.7l1.9 82.2l48.5 -0.6l2.2 -0.4l109.8 -2.8l7.8 -0.2l29.7 -0.5l-3.4 -2.7l2.1 -5.9l-1.6 -3l2.5 -5.1l0.6 -8l1.8 -2.5l-0.2 5.4l-1.2 9l0.9 4.9l2.2 7.7l5.4 -2.5l1.7 -4l6.1 -6.6l1.8 -3.2l6.8 -5.7l7.7 -4.5l7.3 -5.3l-2.7 -3.3l0.8 -6.2l-1.2 -3.3l4.8 1.4l3.5 -0.5l4.5 1.1l1.9 -8.3l-0.4 -3.2l3.5 -1.5l1 -2.3l-1.6 -2.7l6.9 -1.7l-2.4 -3l0.1 -1.7l-2.4 -4l0.3 -2.3l-1.1 -4.9l-1.1 2l-3.2 1.3l-2.7 -0.6l-0.8 6.7l-0.7 1l-1.3 -6.1l-1.6 -2.8l0.2 -2.7l-2.4 -2.5l-2.8 1.5l-2.2 4.4l-1.4 1.4l-6.1 3.3l-1.2 -3.6l-2.4 -1.8l-2.4 0.7l-1.3 -1.6l-2.9 0.2l-2.4 1.7l-2.7 2.1l0.8 3l-15.5 12.4l-7.1 4.6l-6 2.6l-4.5 1.3l-4.5 -2.1l-4.4 2.1l-3 -1.2l-5.1 0.9l-3 1.6l-2.3 -1.2l-0.5 -4.8l1.7 -3.8l0.7 -8.5l-0.1 -7.2l-5.3 -3.9l-5.3 -40.5l-7.6 -56.6l-0.2 -3.1l-7.4 3.9l-11.2 1.8l-1.8 -0.3l1.1 -3.8l0.3 -6.6l-10.6 -3.9l-0.7 2.8l-5 -2.2l-2.7 -2.5l-6.4 -3.1l-4.3 -5.3l-1.8 -0.4l0.1 -2.5l-2.3 -1l3 -10l1.9 -3.8l0.9 -4.7l-2.4 -3.8l0.4 -3.5l-2.8 -4l-3.4 -2.6l-2.8 -0.3l-8.5 0.1l-18 1.2l-5.3 0l-59 1.6z"/><path data-zip="02827" d="m99.4 536.3l1.5 53.9l2.1 72l63.4 -2.4l2.9 -0.4l14.1 -0.1l-5.7 -0.4l-3.2 -1.1l-4.8 0.4l-2.4 -1.2l2 -4.2l-1.2 -4.5l0.9 -4.2l-2.1 -2.9l-0.7 -4.2l-3.2 -7l-0.7 -5.8l22.4 0.9l9.9 -4.3l-3.6 -2.6l-1.2 -2.2l-3.1 -2.2l-2.7 0.2l3.7 -4.4l5.3 -3l3.5 0.2l0.6 -2.7l5.3 -2.9l4.7 -0.7l16.7 -1.4l4.1 4.8l0.5 12.1l1.9 0.6l5.2 -5.3l12.5 -4.6l1 2.2l-2.3 1.2l3 5.6l-0.1 -4l-1.6 -2l3.6 -0.8l0.5 -1.8l3.5 -3.2l0.7 -5.1l-11 -0.1l-1.5 -7.1l2 -2.7l4.6 -3.7l1.2 -2.9l-2.5 -2.4l-1.3 -5.4l-3.8 -0.7l2.2 -2.1l0.4 -4.2l2.5 0.3l2.8 -3l3.7 -2.3l0.5 -4.2l2.5 -4l1.5 -0.3l3.3 -6.3l5.9 -0.4l-6.1 -1.6l0.6 -1.9l-1.6 -1.6l-2.5 -6.2l0 -3.6l-109.8 2.8l-2.2 0.4l-48.5 0.6z"/><path data-zip="02828" d="m382 227l2.7 18.2l2.5 17.6l-1 0.4l-0.7 3.3l0.8 2.7l-1.8 8.5l4.8 -1.4l0.6 7.8l2 8.7l1.4 -0.1l14.6 -2.5l26.4 -4.7l10.2 -1.8l3.8 0.1l2.4 -1.1l0.3 -6.8l0.7 -4l-0.1 -1l-0.7 -3.4l2 -0.7l5.3 -1.5l-0.8 -4.8l-5.8 1.7l-1.9 3.1l-5.4 -5.4l-3.2 -1.9l-3.6 0.5l-0.6 -2.5l1.4 -4.1l-0.5 -5.9l-0.5 2.5l-2.9 2l-4 0.4l0.3 1.9l-5.2 5.6l1.9 -4.4l-0.6 -2l-3 -2.4l0.1 -6.7l-3.1 -0.9l0.4 -1.6l6.4 1.9l-0.3 4.5l3.9 0.1l3.6 -1.4l-1.2 -2.6l3.3 1.4l-0.5 -4.6l-3.9 -3.3l-7.9 -0.7l-2.5 -3.4l0.7 -2.3l-1.1 -2.2l-7.5 -7.8l-1.4 -3.6l-4.2 1.8l-2.4 -2.3l-2.8 1l-2.3 -1.2l-4.8 3.1l-0.6 3.5l-5 0.9l-1.7 1.5l0.4 2.9l-1.7 -3.4l-0.9 -2.4l-0.6 1.6l-4.3 4z"/><path data-zip="02830" d="m189 21.2l2.4 7.1l6.5 -3.1l-0.7 -1.8l3.5 3.4l9.1 18l1.3 0.3l3.5 4.4l5.6 -5.6l1.5 2.1l0.3 2.7l-3.4 1.9l-0.9 2.4l-2.7 2.2l5.9 11.6l4.5 16.1l-0.8 1.7l0.7 7l-3.1 1.5l4 3.4l2.6 -0.1l1.8 1.8l4.9 -3.7l1.4 3.4l2.6 3.1l0.2 3.5l2.2 0.5l6.2 -1.8l0.2 4.8l-7.3 3.5l-0.5 2.7l0.6 11.6l2.7 4l5.4 1.1l3.8 5.1l4.5 1.3l14.3 -12.9l-2.2 -18.9l1.5 1.5l4 3.9l1.5 -0.7l3.3 0.7l6 5.3l1.8 -5l1.6 -4.1l-3.7 -4.5l-4.6 1.4l-3.6 -1.5l-2.2 -4.5l-3.2 -0.1l2.7 -1.7l2.4 0.3l-0.3 -6.7l4.7 -0.2l0.2 5.1l7.9 1.6l1.7 4.3l1.9 -3.9l-6.9 -6.3l5.4 -5.4l1.4 5.1l0.7 3.2l2.6 3.3l3.8 -5.2l-0.9 -3.9l1.8 2.9l6.3 -6.3l6.2 -3l-1.2 -0.7l-2.9 -3.7l-6.2 -2.6l-7.5 -6.5l-2.6 -1l-7.5 3.7l-3.3 0.5l-7.7 -1.5l-3 3.9l-4 0.9l3.2 -1l4.1 -7.2l8.1 -8.2l-2.8 -9.8l3.3 -1.1l6.3 1.2l9.5 4.4l4.5 -2.1l2.4 2.1l3.9 7.6l2.8 -0.8l3.8 -2.5l1.8 2l3.3 -1.1l1.2 1.7l-1.7 0.8l-4.7 14.7l-2.6 6l7 -3l5.8 -5.8l1.8 -0.3l0.8 2.6l-2.4 1.8l7 -0.6l3 -1.1l3.8 5.1l3.4 2.6l-27.1 8.2l1 10.9l0.5 11.3l3.2 2.2l0.6 6.3l0.1 1.8l8.2 3.4l2.1 0l1.3 -1.3l6.5 -2.2l7.6 -1l3.1 2.9l-3.5 1.6l-4.5 4.8l-2.2 3.3l-2.3 7.3l1.4 1.9l-0.7 7.5l-1.3 1.1l0.1 3.5l0.9 1.2l31.6 -1.4l-2.9 -19.8l-5.1 -33.7l-0.6 -3.8l-0.4 -2.1l-0.3 -2l-1.8 -11.6l0.1 -1.6l-1.1 -5.4l0.4 -2.1l-1.2 -3.2l-1 -6.5l-1 -6.2l-2.1 -13.3l-3.3 -21.4l-2 -13.2l-100.8 3.1l-49.6 1.5l-2.9 4.7l-6.1 2z"/><path data-zip="02831" d="m270.4 416l-1.1 1.9l6.8 -1.7l3.7 0.6l6.3 6.3l-3.4 0.7l-3.8 2.2l-5.9 0.6l2 0.1l4.4 2.6l1.7 -0.6l4.1 3.5l4 1.2l6.4 3.6l2.1 -0.5l2.2 -2.6l2.6 -0.8l0.3 3.1l3.9 5.3l-0.4 2.8l5.1 1.5l2.7 4.5l1.7 0.4l-1.1 5.4l2.4 -1.7l2.9 -0.2l1.3 1.6l2.4 -0.7l2.4 1.8l1.2 3.6l6.1 -3.3l1.4 -1.4l2.2 -4.4l2.8 -1.5l2.4 2.5l-0.2 2.7l1.6 2.8l1.3 6.1l0.7 -1l0.8 -6.7l2.7 0.6l3.2 -1.3l1.1 -2l1.1 4.9l-0.3 2.3l2.4 4l-0.1 1.7l2.4 3l-6.9 1.7l1.6 2.7l-1 2.3l-3.5 1.5l0.4 3.2l-1.9 8.3l-4.5 -1.1l-3.5 0.5l-4.8 -1.4l1.2 3.3l-0.8 6.2l2.7 3.3l-7.3 5.3l-7.7 4.5l-6.8 5.7l-1.8 3.2l-6.1 6.6l-1.7 4l-5.4 2.5l-2.2 -7.7l-0.9 -4.9l1.2 -9l0.2 -5.4l-1.8 2.5l-0.6 8l-2.5 5.1l1.6 3l-2.1 5.9l3.4 2.7l9 -0.2l7.9 -0.5l5.6 0.3l0.5 2.7l-0.9 2.2l2.4 1.8l3.6 -0.1l1.2 -1.4l-1.4 -1.3l-1.6 -3.9l9.1 -0.8l1.1 1.6l4.7 -1l6.2 0.5l3.2 1.7l4.8 0l2.3 -1.7l4.9 -2l1.5 -0.3l4.6 0.1l23.5 -0.8l36.5 -1.2l3.2 -2.4l1.1 0.7l1.5 1.5l9.7 -0.1l1.7 -6.1l2.1 -2.6l-0.9 -2.8l1.2 -1.6l1 -5.3l-4.9 -0.7l-3.6 -5.6l-1.2 -8.7l-8.3 4.7l-3.4 1.9l-5.7 -37.3l7 -0.8l6 -1.5l6.4 -4.2l5.2 -4.4l-25.3 -15.3l-3.5 0.2l2.6 14.3l-5.7 -1.1l-8.5 -6.9l-2.6 -4.1l-2.3 -1.6l-1.5 4.3l-5.1 3l-3.2 4.3l-0.3 4l2.3 1.3l0.4 4.6l4.3 -0.3l1.6 0.8l0.6 3.2l-5.8 1.4l0.3 3.6l-2.3 -0.2l-2.3 4.9l-0.1 3.5l-3.6 3.9l-10.6 8.6l-1.1 0.5l-1.1 -7.4l-6 -15.9l-10.7 -25.2l-0.3 -2l1.3 -19.4l-3.9 0.3l0 3.4l-2.9 2.4l2.2 3.3l-0.9 5.3l-1.3 1l-4.1 -1.4l-3.6 7.1l-2.8 -1l-1.7 -4l0.9 -2.9l-4.6 -7.4l-1.9 1.6l0.4 4.9l-2.5 -1l-1 1.2l0.2 2.9l1.8 3.7l-0.5 5l-2.7 3.6l-4.5 -4.3l1.2 -3.5l-1.8 -1.3l-4.7 0l0.9 -4.1l-2.4 2.2l-5.3 -2.9l0.6 -2.6l-2.8 -2.2l-0.7 -5.8l-3 1.1l-2.5 -6.1l-5.4 -4.9l-2.4 0.2l-5 -2.1l-11.7 -0.6l-6.6 5.5z"/><path data-zip="02832" d="m124.4 858.1l6.4 9.3l-2.3 2.8l-3.4 2l2.9 2.5l2.9 4.6l1.2 4l4.1 3.1l3.5 6.9l2.5 1.3l0.3 3.6l2.9 3.9l6.1 -0.6l0.4 1.9l-1 2.9l-12.3 2l-0.5 2.7l-3.7 7.8l0.9 7.2l-2.5 4l1 4.8l5.4 0.5l2.9 3.1l6.3 2l1.5 3.6l2.1 1.9l-2.1 5.4l2.3 6.6l0.7 4.1l-5.7 1.4l-1.7 2.2l-3.7 -0.6l-2 4.1l0.4 1.9l3 3.3l-3.4 0l-3.5 3.8l-1.3 3.2l-2 9.3l2.8 1.3l2.1 4l2.6 0.6l1.8 2.8l-2.3 2.1l2.3 -1.8l0.3 3.9l2.4 3.2l0.8 4.3l-1.4 0.8l1.4 3l-0.6 2.2l3.2 0.8l7.1 0.4l1.9 -4.3l3 -1l6.2 0l3.9 -1.8l6.7 8.3l-2 0.6l-7.5 14.8l3.5 6.1l3.2 3.1l3.3 -0.9l2.4 1.9l-0.2 2.1l3.9 0.1l0 -4.2l1.3 -1.9l5.3 2.4l1.1 4.3l-1 7.3l-1 2.6l2 0.6l1.1 -5.7l3.2 -3.6l2.6 -5.5l1.2 4.3l-1.5 -9.4l2 -3.4l1.9 -0.4l0.3 -4.4l3.1 -1.2l-1.3 -6.6l0.6 -3.6l-1 0.6l-3.3 -2.2l-3.9 0.6l5.4 -2.1l3.9 1.1l16.6 1.1l-0.4 -3.5l6.9 -3.7l3.6 -3.4l1.7 -0.2l0.6 -8.3l1.2 -2l1.2 -3.7l-2.8 -3.4l-4.6 -1.5l-1.2 -2.3l-8.4 -8l-4.8 -0.2l-4.7 -2.3l-1.2 -4.7l-3.3 -16.8l-2.7 -2.3l12.5 -11l-3.9 3.2l-1 -2.2l-2.5 -2.3l-3.4 -1.8l0.9 -1.9l-1.6 -3.7l2.4 -2.2l1.5 0.5l2 -1.4l0.5 -2.9l2.8 -1.7l1.4 -3.5l-1 -2l2 -1.7l1.9 -0.3l14.9 -11.1l2.1 0.5l3.8 -3.8l0.6 -10.5l1.1 -0.4l-1 -3.5l1.4 -18.9l3.5 -0.7l4.2 0.5l2.9 -1.4l1.7 0.6l2.7 -9.7l5.4 -11.5l1.3 -4.5l2.5 -3.4l-38.5 5.4l-1 -1.6l-0.5 1.9l-63.9 8.9l-9.4 0l-27.4 5z"/><g data-zip="02840"><path d="m765 901.2l-0.5 6l2.1 0.5l0.8 -3l0.9 -3.1l-3.2 -0.5z"/><path d="m726.3 959.9l-0.2 9.4l0.6 3l1 4.5l1.9 -1.5l1.4 -6.9l-0.3 -4.5l-1.7 -5.5l-1.5 0.7l-1.1 0.6z"/><path d="m706.8 950.9l0 4.3l6.1 0l0 -2.3l-1.5 -4.8l-2 -3l-2.5 5.8z"/><path d="m681.8 1009.8l-2.4 7.6l5 1.5l1.4 5.1l3.6 14l6.7 -2.7l9.4 -5.9l6.1 2.6l2.7 6.7l4 -1.1l4.6 -5.4l6.8 1.6l5.7 -6.1l-1.3 -1.5l-2.6 0l0.2 -2.1l1.8 -1.8l2.4 1.1l0.8 1.9l2.4 1.7l1.9 0.3l1.3 1.8l5.6 -2.8l2.4 2.2l-1.9 5.8l1.8 1.1l9.5 -6.7l2 -8.6l0.2 -1l-1.5 -6.1l4.7 -7.4l4.2 -1.7l2 -0.8l-2.1 -8.8l1.2 -11.6l0.4 -8.9l7.1 -5.2l7.1 -1.6l-21.9 -32.1l-6.4 -11.9l-7.1 -15.6l-7.3 8.7l-2.4 5.3l-0.1 7.2l-2 -2l-2.6 1.5l-0.7 5.1l-0.7 2.2l1.3 4.2l2.6 -0.3l0 2.7l1 3.2l-3.1 0.3l-1.3 1.4l0.3 14.6l1.6 4.5l0.6 1.5l4.2 0.6l0.5 4.4l0.3 2.2l0.5 4.1l0.4 3.6l0.5 4.3l-9.5 3.1l-14.9 9.9l-2.1 1.4l-0.5 -3.8l2.7 -11.7l-2.8 -6.9l-5.1 7.6l-1.1 1.6l-1.1 1.6l-8.1 9.3l-6.7 3l-11.9 8z"/></g><path data-zip="02841" d="m723.5 912.6l1.6 0.9l4.1 2.3l-1.3 3.8l-1.1 0.7l-2.5 1.6l-0.7 10l3.9 6.2l3.2 1.1l3.2 1.1l0.1 6.5l1.3 -1.4l3.1 -0.3l-0.3 -3.3l-0.7 -2.6l-2.6 0.3l-1.3 -4.2l0.7 -2.2l0.7 -5.1l2.6 -1.5l2 2l0.1 -7.2l2.4 -5.3l7.3 -8.7l-0.1 -1.6l-4.9 3.9l-6.7 0.9l-4 -7.1l-5.2 2.3l-5.1 6.8z"/><path data-zip="02842" d="m739.2 891.6l1.6 4.8l0.4 1l7.8 8.4l0.5 1.6l7.1 15.6l6.4 11.9l21.9 32.1l4.9 0.9l7.6 14.4l1.8 0.2l1.2 0.1l7.6 -7.6l1.7 -7.6l3.9 -1.2l9.6 2.3l6.8 3.1l9.1 8.4l-2.6 15.1l2.5 2.3l7.3 -5.7l1.7 -9.4l3 0.9l0.7 -6.9l-0.6 -5.8l-6.6 2.2l-5.5 -2.7l-1.8 -6.2l1 -7.3l8.1 -13.5l0 -7l9.9 -15.4l0.5 -1.3l-3.4 -2.9l-17.4 -15l-12.1 -13.6l-6.4 -5.6l-5.2 -5.3l-20 -16.3l-13.8 -13.4l-6.7 -7.2l-7.7 -7.4l-3.3 4.6l-2.6 6.5l-3.5 8.8l-3.3 8.4l-0.5 3.4l-0.3 1.8l4.1 2l0 5l0 1.5l-6.3 5.2l-1.8 2.4l-6.9 9.3z"/><path data-zip="02857" d="m183.2 297.8l2.8 0.3l3.4 2.6l2.8 4l-0.4 3.5l2.4 3.8l-0.9 4.7l-1.9 3.8l-3 10l2.3 1l-0.1 2.5l1.8 0.4l4.3 5.3l6.4 3.1l2.7 2.5l5 2.2l0.7 -2.8l10.6 3.9l-0.3 6.6l-1.1 3.8l1.8 0.3l11.2 -1.8l7.4 -3.9l0.2 3.1l7.6 56.6l8.2 1.2l4.5 -4.9l6 2.7l2.8 3.5l6.6 -5.5l11.7 0.6l5 2.1l2.4 -0.2l5.4 4.9l2.5 6.1l3 -1.1l0.7 5.8l2.8 2.2l-0.6 2.6l5.3 2.9l2.4 -2.2l-0.9 4.1l4.7 0l1.8 1.3l-1.2 3.5l4.5 4.3l2.7 -3.6l0.5 -5l-1.8 -3.7l-0.2 -2.9l1 -1.2l2.5 1l-0.4 -4.9l1.9 -1.6l4.6 7.4l-0.9 2.9l1.7 4l2.8 1l3.6 -7.1l4.1 1.4l1.3 -1l0.9 -5.3l-2.2 -3.3l2.9 -2.4l0 -3.4l3.9 -0.3l-1.3 19.4l0.3 2l10.7 25.2l6 15.9l1.1 7.4l1.1 -0.5l10.6 -8.6l3.6 -3.9l0.1 -3.5l2.3 -4.9l2.3 0.2l-0.3 -3.6l5.8 -1.4l-0.6 -3.2l-1.6 -0.8l-4.3 0.3l-0.4 -4.6l-2.3 -1.3l0.3 -4l3.2 -4.3l5.1 -3l1.5 -4.3l2.3 1.6l2.6 4.1l8.5 6.9l5.7 1.1l-2.6 -14.3l-2.2 -17.9l-0.7 -1l-4.8 -28l-2.8 -17.8l-3.9 -24.7l-1.5 -10.1l-0.8 -2l-0.3 -4.6l-0.7 -1.7l-3.5 -25.4l-1.2 -1.1l0.4 -3.6l-0.5 -2.9l-0.7 -3.8l-2 -8.7l-0.6 -7.8l-4.8 1.4l1.8 -8.5l-0.8 -2.7l-3.7 -1.3l2.4 -1.3l-1.2 -3.9l-3.3 -0.5l-1.2 1.4l0.8 3.8l-4.2 -1.7l-2.4 4.6l-1.7 -2.6l2.4 -7.4l-0.1 -1.6l-9.2 2.9l-3.6 -1.9l-5.8 9.1l-1.2 -0.9l2.3 -4.2l-0.3 -4.8l-2.9 0.3l-3.7 -4.6l-2.4 1.7l-19.7 -0.3l0.4 2.8l-2.4 -0.6l-12.3 -1.3l-3.6 1.5l-5.4 -0.1l0.9 3.3l5.6 6l-0.2 2.8l1.6 3.7l-2.4 6.1l-2.9 -2l-3.8 -3.9l-1.7 -0.2l-1 -5.1l-1.3 -0.7l-2.7 -7.3l-6.6 -0.2l-9.8 2.9l-0.9 -3.1l-8.1 -3l0.5 -2.6l-2.5 2.1l-4.7 1.7l-1.6 5.5l-5.1 2.9l-0.4 1l-2.6 0.2l-4.9 -5.9l-4.6 -1.1l-0.4 3.6l-6 6.1l-0.1 1.7l-4.1 2.3l-8.6 1.5l-4.2 -1l-6.9 -3.9l-6.5 -1.9l-4.9 0.8l-4.4 -1l-4.3 -3.3l-2.8 0.8l0.1 8.3l0.8 2l-1.9 3l3 4.6l1.5 4.4l-0.3 3.7l-6.8 4.8l0.7 2.5l-5 -0.1z"/><path data-zip="02859" d="m86.4 19.6l1.8 132.9l0.2 5.5l0.2 6.8l63.5 -1.8l2 -0.2l99.6 -3.4l1.3 4.1l1.3 3.4l2.4 2.8l3.6 0.3l1.5 -4.9l2.9 -6.1l-10.9 0.3l2 -5.9l0.3 -9.4l-0.6 -6.8l-4.5 -1.3l-3.8 -5.1l-5.4 -1.1l-2.7 -4l-0.6 -11.6l0.5 -2.7l7.3 -3.5l-0.2 -4.8l-6.2 1.8l-2.2 -0.5l-0.2 -3.5l-2.6 -3.1l-1.4 -3.4l-4.9 3.7l-1.8 -1.8l-2.6 0.1l-4 -3.4l3.1 -1.5l-0.7 -7l0.8 -1.7l-4.5 -16.1l-5.9 -11.6l2.7 -2.2l0.9 -2.4l3.4 -1.9l-0.3 -2.7l-1.5 -2.1l-5.6 5.6l-3.5 -4.4l-1.3 -0.3l-9.1 -18l-3.5 -3.4l0.7 1.8l-6.5 3.1l-2.4 -7.1l6.1 -2l2.9 -4.7l-66.2 2.1l-45.2 3.1z"/><path data-zip="02860" d="m599.7 256.2l0.3 8.3l2.5 7.9l3.2 18.9l8.3 1.1l2.4 4.3l13.8 -0.6l8.9 -0.6l2.3 0.9l5 -0.5l5.3 0.2l11.8 -1l3.7 12.6l0.1 13.2l-0.9 6.3l0 1.1l3.1 -9.9l1.1 2.5l2.5 0.9l3.1 -13.4l2.3 -4.5l0.5 -6.9l-2.9 -3.6l2.8 -0.4l-1.8 -41.5l-0.7 -2.5l-3.8 -9l-7 -12l-1.9 -0.1l-2.3 0.4l-6.7 1.4l-0.4 3.2l-1.8 3l1.4 2.8l2.5 0.8l-0.9 2.6l-0.1 5.3l-5.8 0.2l-5.3 1.4l-4.4 0l-15.3 3.1l-10.8 1l-0.8 1.2l-13.2 2.1z"/><path data-zip="02861" d="m665.1 227.5l-1.5 0.3l1.9 0.1l7 12l3.8 9l0.7 2.5l1.8 41.5l28.3 -3.9l11.5 -1l0.7 -1.9l-9.3 -35.3l2 -21.6l0.8 -9.2l-19.1 3.1l-2.7 0.4l-0.7 -1.3l-0.5 1.1l-9.4 1.9l-3 0.4l-1 0.2l-7.6 1.3l-3.8 0.4z"/><path data-zip="02863" d="m619.5 232.6l1.3 7.1l3.5 12.2l15.3 -3.1l4.4 0l5.3 -1.4l5.8 -0.2l0.1 -5.3l0.9 -2.6l-2.5 -0.8l-1.4 -2.8l1.8 -3l0.4 -3.2l-0.2 -1l0 -6l-6.3 -4.7l-2.6 -0.3l-8.2 3.9l-14.1 5.2l-3.5 5.8z"/><path data-zip="02864" d="m510.6 72.7l3 2l2.2 -0.3l6.6 1.8l6.1 8.3l9.4 5.2l3.2 1.3l0.7 1.8l-0.8 3.8l3.8 9.9l-0.1 5.5l9.6 3.7l5 5.8l0.5 3.8l3.8 2.5l1.6 -0.3l6.5 3.1l2.4 5.2l1.5 1.5l5.9 6.9l1.9 3.3l1.4 -0.9l3 5.6l5.2 14.3l-5.5 1.6l1.8 4.1l1.7 2.2l4.1 2l4.9 0.6l3.1 2.8l1.4 3.3l12.9 9.1l2.4 3.7l4 1.8l6.9 -2.2l2.7 1.7l-3.8 10.4l0.3 3l-1.1 3.6l3.1 3l4.9 3l0.7 1.8l8.2 -3.9l2.6 0.3l6.3 4.7l0 -32.4l0 -14.4l0.4 -77l-0.1 -3.5l0 -29.3l0 -4.3l0.1 -61.7l-29.4 0.5l-13.2 0.2l-15.8 0.3l-31.1 0.6l-14.9 0.3l-0.8 6.9l-1.6 11.7l-8.1 11.3l-2 2.8l-7.4 10.3l-19.9 27.8z"/><g data-zip="02871"><path d="m781.8 681.3l-0.2 4.8l3.8 4.7l-0.8 4.3l0.8 2.1l2.1 -1.7l9.2 -0.4l6.7 1.8l-0.8 -2.7l-5 -3.6l-0.4 -5.7l-2.1 -6.7l-4.6 -1.6l-6.7 1.2l-2.1 3.6z"/><path d="m770 824l-6.1 8.5l7.7 7.4l6.7 7.2l13.8 13.4l20 16.3l5.2 5.3l6.4 5.6l12.1 13.6l17.4 15l3.4 2.9l4.9 -12.3l2 -12.3l-1.3 -3.6l-7.9 -4.1l-2.5 -6l2.4 -10.6l-2.2 -5.8l2.2 -7.8l1.4 -5.1l0 -3.3l-4.3 -1.9l-1 -4.2l-0.7 -2.9l0.2 -1l2.4 -10.3l0 -3.2l0.1 -14.6l1.7 -3.2l-4 -1.9l-7.9 -18l0.6 -6.8l0.7 -7.9l1.5 -16.5l0.4 -2.3l0.3 -1.9l0.5 -22.3l5.7 -3.5l18.1 -2.9l4.8 -1.9l3.9 -2.5l4 -25.4l-3.6 0l-0.6 -6.8l-0.3 -6.1l-2.6 -13.6l-1.6 -3.5l-2.7 2.5l-1.9 6.5l-0.8 2.3l-1.4 4.2l-9.4 6.8l-1.3 5.7l-4.5 3.3l-8.1 0l-3.7 -1.8l-1.5 -0.7l-2.8 0.8l-3.7 1.1l-10.6 10.1l-2.9 10.6l-5 3.8l-2 0.5l-1.5 0.4l-6.2 1.5l-4.6 8.3l3.8 8l-1.4 14.6l-9.8 25.7l-6.3 0.9l-0.5 1.3l-0.5 2l-1.9 6.4l-2.3 7.8l4.5 -0.1l2.3 6.2l-1.4 4.1l-3.9 6.2l-8.6 4.2l-2.9 7.3z"/><path d="m763.4 790.3l0.4 4.8l0.6 4.4l2.3 1.5l2.7 0l-0.8 -3.6l-0.4 -2.5l-0.8 -3.3l-4 -1.3z"/></g><path data-zip="02878" d="m873.4 833.4l0 4.8l8.4 2.9l1.3 4.2l-3.2 3.9l0.3 12l2.8 1.5l1.8 0.8l19.7 -6.1l1.4 0.1l6.2 -2.2l26.3 -5.9l22.8 -7.5l30.9 -8.8l5.4 -1.2l2.5 -0.2l-5.1 -53.5l-0.4 -2.9l-6.8 -13.5l-1.2 -2.3l-1.4 -1.6l-2.8 -3l-0.4 -3.6l-0.9 -16.3l1.4 -14.2l6.5 -8.2l1.6 -23.3l2.5 -31.9l-0.3 -2.5l-2.4 -0.7l-15.2 -4.2l-11 -2.4l-1.5 -0.4l-25.4 -6.2l-3.1 -0.8l0.1 -6l-7.2 -2l-13.4 -3.3l-4.4 -1l-1.7 -0.5l-1 2.5l-9.9 23.5l-5.9 14l-3.9 19.7l-1.3 5.8l-2.9 0l-3.9 24.8l6.5 4.5l-0.4 5.7l-0.2 2.9l-0.3 15l6.6 17.1l4.5 4.1l1 4.2l-2.3 3.2l-5.2 0.6l-0.3 6.1l-7.1 8.4l0.3 4.2l8.3 4.5l-0.4 18.4l-2.1 14.5l-3.5 0.2l0.4 4.3l-0.7 1l-1.7 0l-0.3 -3.1l-0.9 -2.1l-4.9 0.3l-2.6 1.3z"/><g data-zip="02879"><path d="m460.4 1003.8l0.3 1.7l3 -0.8l1.4 1l0.1 -1.7l-4.8 -0.2z"/><path d="m322.6 1198.6l2 -0.8l10.4 -3.2l13.6 -1.7l11.5 -2l4.5 -0.2l11.8 -5.3l47 -11.5l8.5 0.7l6 1.9l5 -0.6l2.5 -3l5.2 -2.8l7 -0.8l8.5 0.7l9.2 2.3l0.4 -3.3l3.7 -5.4l-1.8 -1.6l-5 3.9l-2.5 -6l3.8 -5l13.2 -41l2.2 -18.3l8.3 0.2l3.1 -17.8l2.7 -1.8l1.4 -2.7l6.5 -1.4l2.6 -1.8l-6 -0.6l2.4 -0.5l4.7 -3.7l0.5 -1.8l12.3 -6.8l2.9 -2l11.4 -6.4l12.6 -12.3l4.6 -5.2l1 -8.6l-0.4 -6.7l1.6 -7.9l2.1 -5l-1.6 -6.7l1 -2.5l0.8 -9.4l1.2 -4.2l-0.6 -10.3l1 -2.6l-3.3 0.1l-1.1 -3.4l-4.6 -3l-4 -5.4l-25.8 4.4l-9.9 1.5l-6.7 1.5l-2.2 -1.8l0.1 2l-8.9 0.5l-2.2 -3.6l-4.2 -0.8l-3.1 1.9l0.5 -2.4l-3 -0.6l-13.3 -4.2l3.3 5.4l-2.5 7.3l5.1 6.3l0.4 6.1l9.7 -1.6l3.2 -1.2l3.1 8.8l4.7 19.9l-20.1 -4.1l-2 0.4l-3.2 0.6l-0.9 -1.5l-1.8 -2.9l-6.2 0.5l-1.3 3.6l3 5.5l-2 3.6l-3.1 -3.7l-5.7 1.3l-2.9 0l0.1 -4.2l-4.4 0.4l-0.1 2l-7.2 0.6l-2.8 3l-10.5 2.8l-2 3l-8.2 -2.6l0.5 -13.8l-1.1 -3.9l0.5 -2.5l-1.4 -1.4l-2.5 0.8l-3.8 -1.1l-6.6 1.4l-3.8 1.6l-0.2 2.9l-1.5 5.5l2.3 4.1l2.1 1.1l2.1 5.1l-0.8 1.9l1.3 3.5l-0.7 1.4l0.5 4.7l3.8 5.9l1.4 1.1l-0.7 1.8l0.7 3.5l3.1 0.6l-2.1 8.2l-1.9 3.2l-1.6 5.9l-2.9 -0.6l-2.3 2.3l3.4 3.6l0 6.4l-2.3 5.7l-3.3 2.2l-1.7 -0.2l-30.6 -22.3l-1.3 -3.6l-2.6 -1.5l-1.8 -2.8l-16.2 59.5l-0.6 2.7l-15.9 60.3l-3.9 14.3l-0.2 1.2l3.2 4.2l-3.2 2.3l2.1 -2.7l-1.8 -0.9l-2.4 4.4l-2.6 9.8z"/></g><path data-zip="02881" d="m425.3 978.4l5.3 0.6l3.8 -1.6l4.3 0l5.4 1l-4.4 7.4l-1 4.4l-4.7 6.6l-2.1 4.6l-3.2 2.5l1.1 1.9l-2.6 0.2l2.4 4.7l0.3 1.3l10.6 -2.3l2.8 -3l7.2 -0.6l0.1 -2l4.4 -0.4l-0.1 4.2l2.9 0l5.7 -1.3l3.1 3.7l2 -3.6l-3 -5.5l1.3 -3.6l6.2 -0.5l1.8 2.9l0.9 1.5l2.6 -0.5l2.6 -0.5l20.1 4.1l-4.7 -19.9l-3.1 -8.8l-3.2 1.2l-9.7 1.6l-0.4 -6.1l-5.1 -6.3l2.5 -7.3l-3.3 -5.4l0.3 -2.6l-2.3 -2.2l-3.1 11.6l-9.9 -1.6l-2.9 -2.5l-10.2 -2.3l-2.3 11.6l-7 -0.7l-4.6 6.3l-6.3 7z"/><path data-zip="02882" d="m469.9 1159.9l2.5 6l5 -3.9l1.8 1.6l-3.7 5.4l-0.2 3.3l14.1 1.9l7.7 5.2l3.2 5.5l8.1 7.1l-0.4 3.6l2.1 1.6l4.1 0.1l5.1 2.2l0.6 -3.9l-3.4 -6.4l-1.7 -10.7l12.6 -25.9l8.1 -13.6l2.3 -2.4l4.9 -1.5l1.7 -4.5l0.3 -5.5l4.2 -3.3l4.1 -3.6l1.1 -5.1l3.3 -3.1l0.5 -9.2l0 -5.5l-3 -7.3l-0.1 -1l-0.7 -10.3l0.5 -4.2l-1.2 -4.8l9.4 -10l8.4 -5.3l0.8 3l2.2 2.5l3.1 -2.2l0.1 -1.9l0.1 -1.8l6.1 -6.1l3.4 -4.2l-1.3 -3.8l2.5 -6.6l4.6 -2l1.4 -3.4l-1.2 -5.1l-4.5 -4.2l-1.2 -8.2l0.2 -9l4.2 -3.5l6.3 -0.2l2.2 4.5l4 -4.5l1.1 -9.6l-0.5 -7.5l-3.1 -2.7l-0.7 -11.6l2.9 -3.9l-1.2 -0.8l-2 3.7l-0.5 -3.4l-12.2 0.1l-4.1 0.1l-1.4 0.1l-5.1 0.3l0.3 -4.8l-11.9 0.7l1.4 5.4l-0.7 2.6l-1.4 2.9l-1 2.6l0.6 10.3l-1.2 4.2l-0.8 9.4l-1 2.5l1.6 6.7l-2.1 5l-1.6 7.9l0.4 6.7l-1 8.6l-4.6 5.2l-12.6 12.3l-11.4 6.4l-2.9 2l-12.3 6.8l-0.5 1.8l-4.7 3.7l-2.4 0.5l6 0.6l-2.6 1.8l-6.5 1.4l-1.4 2.7l-2.7 1.8l-3.1 17.8l-8.3 -0.2l-2.2 18.3l-13.2 41l-3.8 5z"/><path data-zip="02886" d="m475.9 570.5l-8.1 19.2l10 -0.3l7 -0.7l6.5 0l1.3 20.9l25.5 -1l6.5 0.6l0.1 13.4l-1.2 7l1.2 -1.2l-2.2 6.5l4.4 2.2l8 -0.8l0.3 -5.2l4.8 5.9l5.1 -1.6l5.5 0.7l0.2 -4.6l-0.6 -6.9l-0.9 -2.5l2.2 0.9l10.2 -0.8l1.9 -3l-6 -15.8l1.5 3.1l2.5 -0.9l1.1 -0.2l4.4 -7.1l1 0.4l4.4 1.6l-1.6 3.1l1.3 1.8l1.1 1.5l9.9 -0.9l7.4 1.7l14.4 3.4l16.6 0.9l6.2 0.3l-1 -3.2l-1.1 -2.4l-1.5 -7l-4.3 -7.3l-9.7 -6l-2.6 -2.7l-3.2 1.8l-9 -0.3l-6.4 -2.9l-0.9 -4l8.6 -1.8l-3.3 -2.1l1.2 -0.9l6 1.8l1.5 -0.3l4.5 -3.7l-1.6 -2.2l-2.3 -0.6l1.5 -3.7l-4.7 -1.8l0.8 -2.3l-3.3 -2.4l-1.8 4.6l-8.6 -6.4l4.1 -4.6l4.8 -1.1l5.3 1.9l5.5 8.9l5.7 -2.8l0.2 -2.3l-2.9 -3.1l-1.2 -6l-1.6 -3.4l-0.4 -4.8l-1.5 1.7l-3.6 -2.3l0.8 -6.2l1.3 -1l5.3 0.1l1.4 -1.8l-2.3 -4.6l-0.2 -2.9l-14.8 0.6l0.4 -5.6l-5.7 -0.8l-2.4 6.7l-8.6 -0.3l0.3 -1.2l3.9 1l2.2 -5.8l-4.4 -1.9l2.2 -8l-2.4 -1.1l-2.4 8.8l-7.9 0.3l1.6 -0.5l1.2 -3.5l-0.4 -3.3l-1 1.9l-7.2 0.2l-2.4 1l-2.7 3.7l1.2 5.6l-2.8 3.4l-39.4 1.5l-2.1 9.5l-6.1 7.3l0.2 7.8l-1.2 1.1l-2.9 -0.7l-6.2 8.9l-4.5 2.4l-5.5 0.4l-2.6 3.5l-6.5 3.7l-2 1.8z"/><path data-zip="02888" d="m566.1 491.3l1.7 7.8l1.2 2.2l0.7 5.9l0.4 3.3l-1.2 3.5l-1.6 0.5l7.9 -0.3l2.4 -8.8l2.4 1.1l-2.2 8l4.4 1.9l-2.2 5.8l-3.9 -1l-0.3 1.2l8.6 0.3l2.4 -6.7l5.7 0.8l-0.4 5.6l14.8 -0.6l2 -0.1l-0.2 -3.1l10.7 -0.9l14.3 1.5l2.4 1.1l1.1 0.8l1.8 0.4l3.3 0.2l5.3 -3.1l7.7 11.9l0.5 -9.5l-0.1 -3.9l-0.2 -5.8l6.5 -9.7l-1.5 -0.8l-4.5 -2.4l0.5 -6.2l-1.3 -11.6l-3.8 -5.2l-1.3 1.7l-1.3 -1.5l-3.9 -9.8l-2.7 -1.1l-5.7 0.3l-1.2 -4.4l-5.4 -3l-1.7 3.3l-4.1 -2.4l-9.3 2.4l-2 2.7l-3 3.8l-2.2 0.1l-5.1 2.3l-0.5 -1l1.9 -3.5l-3.5 -1.5l-2.2 3.5l-4.4 3.5l-2.1 0.9l-4.2 -0.4l-1.1 2.1l-2.4 0.1l0.7 -2.3l-1.5 -0.9l-0.9 2.3l-4 0.5l-0.9 3.1l-3.2 0.3l2 2.8l-2.8 3.1l0.7 4.7l-8.1 4.1z"/><path data-zip="02889" d="m590.2 551.7l-4.1 4.6l8.6 6.4l1.8 -4.6l3.3 2.4l-0.8 2.3l4.7 1.8l-1.5 3.7l2.3 0.6l1.6 2.2l-4.5 3.7l-1.5 0.3l-6 -1.8l-1.2 0.9l3.3 2.1l-8.6 1.8l0.9 4l6.4 2.9l9 0.3l3.2 -1.8l2.6 2.7l9.7 6l4.3 7.3l1.5 7l1.1 2.4l1 3.2l4.3 0.2l1.2 -0.1l6.2 -0.7l3 -0.4l1.5 1.2l-0.4 1l-1.5 4.1l1.2 15.9l4.9 1.7l5.8 6.7l5.6 1.2l5.2 -8.3l1.5 -2.5l-0.6 -11l2.6 -12.3l9 -5.5l2.9 -6.5l-3.9 -3.2l-0.1 -11.1l0 -1.5l1.7 -7.4l-1.8 -5.8l0 -1.5l0 -5.3l11.5 -9.1l0 -2.1l-9.1 0.7l-8.1 -1.6l-9.1 -6.1l-0.7 -1.2l-4.4 -7.5l-1 -1.6l0.1 -1.8l-7.7 -11.9l-5.3 3.1l-3.3 -0.2l-1 0.1l-1.9 -1.3l-2.4 -1.1l-14.3 -1.5l-10.7 0.9l0.2 3.1l-2 0.1l0.2 2.9l2.3 4.6l-1.4 1.8l-5.3 -0.1l-1.3 1l-0.8 6.2l3.6 2.3l1.5 -1.7l0.4 4.8l1.6 3.4l1.2 6l2.9 3.1l-0.2 2.3l-5.7 2.8l-5.5 -8.9l-5.3 -1.9l-4.8 1.1z"/><path data-zip="02891" d="m0.9 1278.6l-0.9 12.4l3.9 0.7l3.4 5.6l16.5 -10.1l15.7 -6.8l19.1 -6.3l6 -2l25.2 -6.3l14.8 -3.7l16.7 -4.1l9.9 -1.6l7.3 0.7l12.7 5.6l6.7 -4.9l21.8 -6.4l2 -0.2l-0.7 -35.4l-0.1 -1l-1.1 -62.7l-1 -1.5l-6.5 0.3l-2.7 1.1l-0.5 1.8l-2.7 0.2l-2.5 3.9l-4.9 1.3l-1.8 -1.4l-5.4 0.6l-3.2 2.6l-5.7 0.6l-3.6 2.6l-1.9 -0.5l-1.2 2.4l-1.1 -1l-15.4 -2.7l-1.9 -9.7l-4.1 -2.2l-1.6 0.3l0 -2.9l-2.2 0.2l-0.8 3.3l-2 -0.3l-1.5 -4.7l-2 -0.3l-2.9 -2.5l-1.7 -2.8l-3 0.9l-6.7 -1.9l-1.7 -4.3l0.5 -2.1l5 -0.6l-0.5 -1.6l-4.2 -1l-1.7 0.3l-1 -1.9l-1 -3.2l-4 -5.4l1 -1l5.4 -0.6l3.8 -4.2l-2.9 -1.2l-0.8 -3.8l1.5 -3l0.2 -3.9l1.9 -1.3l-0.6 -3.3l-1.6 -1l-3.6 1.9l-1.5 0.6l-3.1 -3.4l-4.3 1.4l-8.3 -5l-5.4 -0.9l-4.7 1l-4.8 4l-1 3.5l-4.5 1.6l-8.4 5l-3.8 -1.2l-3.8 0.2l-4 4.1l-0.3 2l-0.9 5.3l0.3 2.5l2.1 2.2l0.8 7.3l-1.5 4.3l0.1 1.9l5.4 9.5l4 1.9l3.5 4.4l-1.2 8.7l3.9 6.5l-2.8 5.7l1.4 8.6l-1.2 2.6l-7 7.1l-0.3 9.7l1 5.8l0.5 3.3l1.4 2.8l6 4.1l1.9 8.4l0.7 7.7l-1.7 2.1l-7.5 9.5l-11.6 9.8l-4.1 1.8l-5.7 8.9l-7.5 7l-4.2 1l-2.2 6.6z"/><path data-zip="02893" d="m446.8 527.2l0.6 10.3l-0.2 5.2l0.7 27l-0.4 5.4l0.7 6.3l0.6 24.4l-1.6 0.2l1.8 3.8l0.4 26.6l-0.6 5.2l0.2 8.9l12.8 0.2l7.1 -1.7l8.4 3l8.2 -1.8l11 -0.6l-1.9 0.1l-0.6 -14.8l3.1 -1.6l1 1.3l4.7 -0.4l-1.4 -2.2l0.7 -2.2l-8.4 0.2l-0.3 -10.4l-0.9 -10.1l-1.3 -20.9l-6.5 0l-7 0.7l-10 0.3l8.1 -19.2l2 -1.8l6.5 -3.7l2.6 -3.5l5.5 -0.4l4.5 -2.4l6.2 -8.9l2.9 0.7l1.2 -1.1l-0.2 -7.8l6.1 -7.3l2.1 -9.5l-13.1 0.1l-1.7 0.5l-19.8 0.8l-10.3 0.4l-3.5 0.3l-1.8 -0.2l-6.2 0.4l-12.2 0.3z"/><path data-zip="02895" d="m439.2 16.3l8.8 29.8l2.2 7.4l5.6 2.5l3.5 2.9l6.1 2.7l3.5 2.8l23.8 5.5l18 2.9l19.9 -27.8l7.4 -10.3l2 -2.8l8.1 -11.3l1.6 -11.7l0.7 -6.4l-54.5 0.5l-2.2 0l-1.4 0.2l-35.9 3.7l-2.5 0.3l-1.8 5.2l0.7 3.5l-13.4 0.6z"/><g data-zip="02898"><path d="m214.8 912.7l-0.3 2.7l1.5 1.1l3.3 -2.7l-1.6 -1.4l-2 1.8l-0.9 -1.5z"/><path d="m203.5 951.4l2.7 2.3l3.3 16.8l1.2 4.7l4.7 2.3l4.8 0.2l8.4 8l1.2 2.3l4.6 1.5l2.8 3.4l-1.2 3.7l1.4 0.4l3.1 -3.6l-0.2 -5.3l2.6 -3.8l-0.6 -1.6l3.8 -3.6l8.2 7l12.2 -24.7l3.6 -2.9l4.7 1.6l1.2 -12.7l0.5 -2.3l1.3 -7.2l-0.7 -1.8l-1.2 -9.5l0.8 -4.6l-1.3 -2.1l2.1 -0.2l19.5 3.5l1.1 -6l1.9 -5.6l1.8 -2.8l0.2 -5.8l2.2 -8l-1.6 -2l2.1 -5.4l-0.4 -7.1l-2.4 -4.4l-8 4l-2.1 -0.1l-4.8 2.9l-2.4 -12.5l-3.6 1.6l-1.8 -6.8l-4.8 -3.9l9.1 -9.3l8.3 -11.3l5.8 -7.1l-32.5 4.7l-2.5 3.4l-1.3 4.5l-5.4 11.5l-2.7 9.7l-1.7 -0.6l-2.9 1.4l-4.2 -0.5l-3.5 0.7l-1.4 18.9l1 3.5l-1.1 0.4l-0.6 10.5l-3.8 3.8l-2.1 -0.5l-14.9 11.1l-1.9 0.3l-2 1.7l1 2l-1.4 3.5l-2.8 1.7l-0.5 2.9l-2 1.4l-1.5 -0.5l-2.4 2.2l1.6 3.7l-0.9 1.9l3.4 1.8l2.5 2.3l1 2.2l3.9 -3.2l-12.5 11z"/></g><path data-zip="02903" d="m580.8 351.4l2.8 -1.1l0.9 3.9l3.9 -1.3l-0.4 -1.2l3.5 -1.2l2.6 0.7l0.1 1.4l-4.3 0.8l-5.8 2l2.4 0.7l2.5 -1.1l3.3 7.8l1.5 5.7l1.5 -0.1l1.3 2.5l-1.7 3l4.5 -2.6l6.4 3.5l2.8 -1.5l1.5 -0.5l-0.1 3.1l2.7 -0.4l1.5 5.6l5.5 -1.1l-0.1 7.8l5.2 -1.7l5.6 14.8l12.5 -10.7l-4.6 -3.5l-0.7 -7.9l1.6 -6.2l3.5 -1.2l0.4 1.1l3.9 -2.7l1.9 -4.7l-5.1 -0.1l-0.4 -2.6l-11.9 0.8l-1.9 1.3l-1.9 -0.9l-5.9 -8.7l1.9 -0.1l-0.1 -1.3l-0.8 -3l-3.7 -0.4l0.9 -2.9l-1.8 -3l-3.4 -2.1l-2.3 0.1l-7 -1l-1.1 7.3l-10 -2.6l-8.2 2.2l-5.6 3z"/><path data-zip="02904" d="m527.7 269l-1 0.3l3.8 1.5l1.8 2l-0.4 4.3l1.2 1.4l-1.4 2l-0.7 4.1l1.5 -0.4l0.1 2.7l-1.9 1.7l2.3 3.9l5.9 -0.9l-0.5 -2.1l2 -0.5l0.5 2.1l2.7 -0.3l2.3 2.6l-1.3 1.9l4.8 1.6l2.2 6l6.5 -1.1l1.5 -1.4l-0.6 4.3l3 -1.1l1.1 0.9l-1.2 3.7l9.3 -0.9l3.1 -5.3l2.2 -0.9l6.2 4.9l1.1 2.2l3.6 -3.1l2 -0.3l1.1 -2.9l3 1.1l1.9 4.4l6.7 10.8l6.6 15.7l-1.1 2.6l3.3 -0.1l2.1 6.1l2.3 -0.1l3.4 2.1l-2.3 -5.9l0.3 -2.7l5.7 -0.9l1.4 -2l0.3 -3.8l-5 1.6l-1.9 -0.8l0.8 -3.6l4.9 -11.8l6 -13.3l1.6 -5.1l-13.8 0.6l-2.4 -4.3l-8.3 -1.1l-3.2 -18.9l-2.5 -7.9l-0.3 -8.3l-56.3 9.4l-5.8 1.6l-10 1.7z"/><path data-zip="02905" d="m601.5 422.5l1.8 3.8l3.8 -1.1l1.9 2.6l-2.1 4.6l0 2.9l2.3 0.6l0.5 3.7l-0.3 6.5l2 3.4l1.1 12.6l0.4 1.6l2 -2.7l9.3 -2.4l4.1 2.4l1.7 -3.3l5.4 3l1.2 4.4l5.7 -0.3l2.7 1.1l3.9 9.8l1.3 1.5l1.3 -1.7l-2.4 -3.3l0 -5.4l0 -7.8l0 -2l-4 -9.5l-1.5 -3.6l-0.5 -1.1l-1.7 -5.4l-0.9 -3l1.6 -4.8l8.1 -1.8l2.9 -0.7l1.6 -0.4l13.1 3.5l2.7 0.6l-1.1 -8.1l-1.6 -3.4l-1.7 0.5l-0.5 -3.6l-5.4 -6.5l-3.7 -1.1l-1.1 -1.8l-6 -10.6l-6.7 -5.7l-12.5 10.7l-5.6 -14.8l-5.2 1.7l0.1 -7.8l-5.5 1.1l-1.5 -5.6l-2.7 0.4l0.1 -3.1l-1.5 0.5l-1.7 3.8l1.4 2.9l-2.8 1.1l2.5 0.5l-0.4 3.3l1.8 5.5l-6.3 1.9l1 4.1l2.6 3.8l9.3 10l-11 7.6l-3.6 4.5z"/><path data-zip="02906" d="m616.4 335.8l-0.3 2.7l2.3 5.9l1.8 3l-0.9 2.9l3.7 0.4l5.7 -0.7l0.5 6.2l-3.4 0.3l-0.1 -1.6l-1.8 0l-1.9 0.1l5.9 8.7l1.9 0.9l1.9 -1.3l11.9 -0.8l0.4 2.6l5.1 0.1l3.7 -5l7.3 -13.8l5.2 -5.8l0.8 -10.2l0.5 -1.9l-0.4 -1.4l0.9 -6.3l-0.1 -13.2l-3 -12l-12.5 0.4l-5.3 -0.2l-4.5 1.4l-2.8 -1.8l-8.9 0.6l-1.6 5.1l-6 13.3l-4.9 11.8l-0.8 3.6l1.9 0.8l5 -1.6l-0.3 3.8l-1.4 2l-5.7 0.9z"/><path data-zip="02907" d="m573.4 406.8l1 5l3.3 0.7l-0.7 -2.1l4.7 0.1l-0.9 2.6l2.2 3.1l-0.5 3.2l1.4 -2l2.7 1.2l-1.4 3.9l-3 -1.3l1.2 2.9l0.9 1l15 -0.2l1.7 0.5l-2.1 6.4l-2.2 9.3l5 1.4l4.4 3.4l1.4 -7l2 0.5l-0.5 -3.7l-2.3 -0.6l0 -2.9l2.1 -4.6l-1.9 -2.6l-3.8 1.1l-1.8 -3.8l3.6 -4.5l11 -7.6l-9.3 -10l-2.6 -3.8l-1 -4.1l6.3 -1.9l-1.8 -5.5l0.4 -3.3l-2.5 -0.5l2.8 -1.1l-1.4 -2.9l1.7 -3.8l-2.8 1.5l-6.4 -3.5l-4.5 2.6l1.7 -3l-1.3 -2.5l-1.5 0.1l-2.9 0.4l1.1 3l-2.7 4.9l-2.5 1.8l-7.3 10.6l-4.3 4.4l0.1 3.2l-1.8 10z"/><path data-zip="02908" d="m549.9 315.8l-0.2 1.9l0.7 4.5l1.9 2l5.4 -0.5l2.1 7.8l-2.4 0.7l-0.9 2.2l1.4 7.2l0 11.4l7.1 -1l1 2.2l4.4 0.3l0 -1.2l5.6 0.4l1.4 1.3l-0.1 -1.1l3.6 -2.6l5.6 -3l8.2 -2.2l10 2.6l1.1 -7.3l7 1l-2.1 -6.1l-3.3 0.1l1.1 -2.6l-6.6 -15.7l-6.7 -10.8l-1.9 -4.4l-3 -1.1l-1.1 2.9l-2 0.3l-3.6 3.1l-1.1 -2.2l-6.2 -4.9l-2.2 0.9l-3.1 5.3l-9.3 0.9l1.2 -3.7l-2.7 2l-7.1 0.6l0.2 5.3l-3.3 3.4z"/><path data-zip="02909" d="m531.5 333.3l-0.6 3.9l6 4.8l4 0.8l3.3 6.4l0.6 6.2l3.1 2.2l0.6 1l-4.7 -0.9l-2.2 0.1l-5.3 1.2l-3.5 1.3l2.8 8l3.4 11.7l-3.2 0.5l2.6 5.1l-3.1 3.2l-0.1 2.2l2.8 0.7l3.2 -2.7l1.4 1.6l1.8 0.1l1.6 0.1l1.3 0.2l-1.2 -0.6l21.9 -2.9l1.8 -0.6l1.4 0.2l3.3 6l4.7 -3.9l7.3 -10.6l2.5 -1.8l2.7 -4.9l-1.1 -3l2.9 -0.4l-1.5 -5.7l-3.3 -7.8l-2.5 1.1l-2.4 -0.7l5.8 -2l4.3 -0.8l-0.1 -1.4l-2.6 -0.7l-3.5 1.2l0.4 1.2l-3.9 1.3l-0.9 -3.9l-2.8 1.1l-3.6 2.6l0.1 1.1l-1.4 -1.3l-5.6 -0.4l0 1.2l-4.4 -0.3l-1 -2.2l-7.1 1l0 -11.4l-1.4 -7.2l0.9 -2.2l2.4 -0.7l-2.1 -7.8l-5.4 0.5l-1.9 -2l-6.3 1.7l-1 -1.3l-3.1 2.9l0.5 3.3l-1 0.2l-1 -0.9l-0.3 -1.5l-2.5 1.7l0.2 4.9l-4.7 0.1z"/><path data-zip="02910" d="m551.6 429.1l1.6 -0.5l1.3 4.2l3.7 4.9l1 6.1l-3.2 3.6l0.2 5.6l2.4 2.2l0.7 2.3l1.8 -0.7l3.6 4.5l0.9 3.6l2.9 1.4l1.5 2.4l0.4 3.6l2 3.4l2 0.8l3.2 -0.3l0.9 -3.1l4 -0.5l0.9 -2.3l1.5 0.9l-0.7 2.3l2.4 -0.1l1.1 -2.1l4.2 0.4l2.1 -0.9l4.4 -3.5l2.2 -3.5l3.5 1.5l-1.9 3.5l0.5 1l5.1 -2.3l2.2 -0.1l3 -3.8l-0.4 -1.6l-0.4 -12.3l-2.7 -3.7l0.3 -6.5l-2 -0.5l-1.4 7l-4.4 -3.4l-5 -1.4l2.2 -9.3l2.1 -6.4l-1.7 -0.5l-15 0.2l-0.9 -1l-1.2 -2.9l3 1.3l1.4 -3.9l-2.7 -1.2l-1.4 2l0.5 -3.2l-2.2 -3.1l0.9 -2.6l-4.7 -0.1l1.4 2.6l-4 -1.2l-1.1 -1l-9 2.5l-0.7 -1.1l-4.4 5.3l-5.9 5.7l-1.8 5.9z"/><path data-zip="02911" d="m500.5 273.8l2.5 3l0.8 3.7l2.4 3.2l2.8 1.7l1 3.1l1 8.9l2 4.8l6.1 4.3l0.8 5.5l-0.3 4l4.3 8.2l1 6.7l4.9 -2.1l0.9 3.4l0.8 1.1l4.7 -0.1l-0.2 -4.9l2.5 -1.7l0.3 1.5l1 0.9l1 -0.2l-0.5 -3.3l3.1 -2.9l1 1.3l6.3 -1.7l-0.7 -4.5l0.2 -1.9l3.3 -3.4l-0.2 -5.3l6.3 -0.2l3.5 -2.4l-1.1 -0.9l-3 1.1l0.6 -4.3l-1.5 1.4l-6.5 1.1l-2.2 -6l-4.8 -1.6l1.3 -1.9l-2.3 -2.6l-2.7 0.3l-0.5 -2.1l-2 0.5l0.5 2.1l-5.9 0.9l-2.3 -3.9l1.9 -1.7l-0.1 -2.7l-1.5 0.4l0.7 -4.1l1.4 -2l-1.2 -1.4l0.4 -4.3l-1.8 -2l-3.8 -1.5l-26.3 4.6z"/><path data-zip="02912" d="m623 350.8l0.3 3l0.6 1.3l1.8 0l0.1 1.6l3.4 -0.3l-0.5 -6.2l-5.7 0.7z"/><path data-zip="02914" d="m637.6 379.1l0.7 7.9l4.6 3.5l6.7 5.7l6 10.6l5.2 -4.5l1.1 -3.7l1.7 1.3l1.2 5.4l4.5 1.4l0.6 -2.6l2 0.5l0.6 -2.4l3.5 -0.4l3.3 1.7l16.2 4.8l1.5 -13.7l5.2 5.1l0.4 1.6l13.1 10.5l6.5 3.7l-0.6 -1.4l-2.3 -4l-2.6 -0.5l-4.8 -2.7l-1.9 -3.6l-0.1 -3.5l2 -7.7l0 -3.8l0.5 -3.3l-0.4 -1.3l-10.9 -25.7l3.1 -8.9l-1.4 3.6l-3.2 2.1l-2.5 -1.7l1 -2.7l-0.1 -4.2l-1.4 -0.9l-0.8 -1.4l-3.1 2.8l-4.8 -2l-1.1 2.3l-2.6 -0.5l-9.1 -5.7l5.7 -4.3l-4.2 -6.8l-4.4 -0.8l-6.3 1.8l-0.8 10.2l-5.2 5.8l-7.3 13.8l-3.3 4.3l-2.3 5.4l-3.9 2.7l-0.4 -1.1l-3.5 1.2l-1.6 6.2z"/><path data-zip="02915" d="m655.6 406.6l1.1 1.8l3.7 1.1l5.4 6.5l0.5 3.6l1.7 -0.5l1.6 3.4l1.1 8.1l-2.7 -0.6l1.5 4.6l3.5 0.3l3.9 5.8l-1.6 4.2l0.3 7.4l-4.5 11.2l6.1 0.5l4.3 7.4l0.8 6l0.5 4l-2 7.8l3 2.5l1 5.2l-0.6 2.9l5.4 0l2.7 -11.4l2.9 -3l46 -42.4l-13.6 -7.9l-2 -3.8l0.1 -7.7l-3.4 -8.6l-6.5 -3.7l-13.1 -10.5l-0.4 -1.6l-5.2 -5.1l-1.5 13.7l-16.2 -4.8l-3.3 -1.7l-3.5 0.4l-0.6 2.4l-2 -0.5l-0.6 2.6l-4.5 -1.4l-1.2 -5.4l-1.7 -1.3l-1.1 3.7l-5.2 4.5z"/><path data-zip="02916" d="m666.7 328.5l-0.5 1.9l6.3 -1.8l4.4 0.8l4.2 6.8l-5.7 4.3l9.1 5.7l2.6 0.5l1.1 -2.3l4.8 2l3.1 -2.8l0.8 1.4l1.4 0.9l0.1 4.2l-1 2.7l2.5 1.7l3.2 -2.1l1.4 -3.6l7.2 -7.3l2.7 -3.1l3.3 -3.3l-9 -15l-0.5 -2l10.5 -30l-11.5 1l-28.3 3.9l-2.8 0.4l2.9 3.6l-0.5 6.9l-2.3 4.5l-3.1 13.4l-2.5 -0.9l-1.1 -2.5l-2.7 10.2z"/><path data-zip="02917" d="m377.3 154.9l-6.7 0.8l10 61.8l2.2 1.9l3.4 1.3l1.5 3.1l1.7 3.4l-0.4 -2.9l1.7 -1.5l5 -0.9l0.6 -3.5l4.8 -3.1l2.3 1.2l2.8 -1l2.4 2.3l4.2 -1.8l1.4 3.6l7.5 7.8l1.1 2.2l-0.7 2.3l2.5 3.4l7.9 0.7l3.9 3.3l0.5 4.6l-3.3 -1.4l1.2 2.6l-3.6 1.4l-3.9 -0.1l0.3 -4.5l-6.4 -1.9l-0.4 1.6l3.1 0.9l-0.1 6.7l3 2.4l0.6 2l-1.9 4.4l5.2 -5.6l-0.3 -1.9l4 -0.4l2.9 -2l0.5 -2.5l0.5 5.9l-1.4 4.1l0.6 2.5l3.6 -0.5l3.2 1.9l5.4 5.4l1.9 -3.1l5.8 -1.7l0.8 4.8l-5.3 1.5l-2 0.7l0.7 3.4l0.1 1l-0.7 4l-0.3 6.8l1.2 -0.2l21.1 -3.8l24.9 -4.3l1.8 0.2l27.2 -5.3l1 -0.3l10 -1.7l-0.1 -1.5l-1.5 -5.7l-1.1 -7.8l-15.5 -62l-2.4 -7.7l-0.7 -3.8l-8 -31.9l-14.4 11.8l-2.6 2.8l-2.3 -1.5l3.3 -3.5l9.7 -7.3l-1.5 -8.2l4.7 1.3l-0.7 -3.9l-84.7 11.2l-1.7 0.2l-9.2 1.1l-31.7 3.9z"/><path data-zip="02919" d="m391.9 292.7l0.7 3.8l0.5 2.9l-0.4 3.6l1.2 1.1l3.5 25.4l0.7 1.7l0.3 4.6l0.8 2l1.5 10.1l3.9 24.7l2.8 17.8l4.8 28l0.7 1l5.5 -0.4l8.2 -3.7l19 -3.1l3.3 1l3.7 2.6l5.1 1.8l6.3 1.1l4.9 1.8l6.6 0.6l14 -1.3l7.2 -3l3.7 -0.8l7.6 -0.8l7 -6.5l6.4 -3.1l9.5 1l1.3 -3.5l2.6 -1l2.9 1.3l2.1 -10.3l3.2 -2.4l-1.4 -1.6l-3.2 2.7l-2.8 -0.7l0.1 -2.2l3.1 -3.2l-2.6 -5.1l3.2 -0.5l-3.4 -11.7l-2.8 -8l3.5 -1.3l5.3 -1.2l2.2 -0.1l4.7 0.9l-0.6 -1l-3.1 -2.2l-0.6 -6.2l-3.3 -6.4l-4 -0.8l-6 -4.8l0.6 -3.9l-0.8 -1.1l-0.9 -3.4l-4.9 2.1l-1 -6.7l-4.3 -8.2l0.3 -4l-0.8 -5.5l-6.1 -4.3l-2 -4.8l-1 -8.9l-1 -3.1l-2.8 -1.7l-2.4 -3.2l-0.8 -3.7l-3.4 -2.3l-1.8 -0.2l-24.9 4.3l-20.3 3.7l-2 0.3l-2.4 1.1l-3.8 -0.1l-9.5 2.5l-27.1 4l-14.6 2.5l-1.4 0.1z"/><path data-zip="02920" d="m497.9 417.8l0.2 7.4l3.3 1l-0.7 2l2.5 1.9l1.1 3l3.5 4l5 -1.7l3.9 4.2l7.5 -1.7l1.3 0.3l-1.8 1.6l-3.5 6.2l5 2.5l-1 3.2l-5.4 -2.1l0.5 7.3l-1.3 0.4l0.1 3.1l2 6l1 7.7l-0.3 5.6l-1.2 5.5l-4.6 8.3l-6.5 12.8l-1.5 4.9l1 7.7l-2.9 0.7l-2.6 5.1l13.1 -0.1l39.4 -1.5l2.8 -3.4l-1.2 -5.6l2.7 -3.7l2.4 -1l7.2 -0.2l1 -1.9l-0.7 -5.9l-1.2 -2.2l-1.7 -7.8l8.1 -4.1l-0.7 -4.7l2.8 -3.1l-2 -2.8l-2 -0.8l-2 -3.4l-0.4 -3.6l-1.5 -2.4l-2.9 -1.4l-0.9 -3.6l-3.6 -4.5l-1.8 0.7l-0.7 -2.3l-2.4 -2.2l-0.2 -5.6l3.2 -3.6l-1 -6.1l-3.7 -4.9l-1.3 -4.2l-1.6 0.5l1.8 -5.9l5.9 -5.7l4.4 -5.3l0.7 1.1l9 -2.5l1.1 1l-1 -5l1.8 -10l-0.5 -3.7l-3.3 -6l-1.4 0.2l-1.8 0.2l-21.9 2.9l1.2 0.6l-1.3 -0.2l-1.6 -0.1l-1.8 -0.1l-3.2 2.4l-2.1 10.3l-2.9 -1.3l-2.6 1l-1.3 3.5l-9.5 -1l-6.4 3.1l-7 6.5l-7.6 0.8l-2.3 2z"/><path data-zip="02921" d="m412.8 419.3l2.2 17.9l3.5 -0.2l25.3 15.3l-5.2 4.4l-6.4 4.2l-6 1.5l-7 0.8l5.7 37.3l3.4 -1.9l8.3 -4.7l1.2 8.7l3.6 5.6l4.9 0.7l-1 5.3l-1.2 1.6l0.9 2.8l-2.1 2.6l-1.7 6.1l5.6 0l12.2 -0.3l5.3 -0.1l2.4 -0.4l3.8 0l9.9 -0.4l20.2 -0.8l1.7 -0.5l2.6 -5.1l2.9 -0.7l-1 -7.7l1.5 -4.9l6.5 -12.8l4.6 -8.3l1.2 -5.5l0.3 -5.6l-1 -7.7l-2 -6l-0.1 -3.1l1.3 -0.4l-0.5 -7.3l5.4 2.1l1 -3.2l-5 -2.5l3.5 -6.2l1.8 -1.6l-1.3 -0.3l-7.5 1.7l-3.9 -4.2l-5 1.7l-3.5 -4l-1.1 -3l-2.5 -1.9l0.7 -2l-3.3 -1l-0.2 -7.4l2.3 -2l-3.7 0.8l-7.2 3l-14 1.3l-6.6 -0.6l-4.9 -1.8l-6.3 -1.1l-5.1 -1.8l-3.7 -2.6l-3.3 -1l-19 3.1l-8.2 3.7l-5.5 0.4z"/></svg>
