<?xml version="1.0" encoding="UTF-8"?><!DOCTYPE svg PUBLIC '-//W3C//DTD SVG 1.1//EN' 'http://www.w3.org/Graphics/SVG/1.1/DTD/svg11.dtd'><svg viewBox="0 0 1000 1297.22" xmlns="http://www.w3.org/2000/svg"><path id="02804" d="m82 1119l-1 1l4 5l1 4l1 2l1-1l5 1v2h-5l-1 3l2 4l7 2l3-1l2 3l3 2h2l1 5h2l1-3h2v3h2v-5l-2-7l2-2l2 3l2-1l3-3l3-3l-2-6l3-2l3 3l3-3l-1-2l2-1l3-4l1-3l-1-3l-1-6l-2-2l-1-4l4-6l-8-2l-1-3l-1-5h3l1-5l4-1h6l3-1h5v-2l2-11v-5h3l2-1l1-7l2 2l9 1v4h1l1-3l11 2v-7l1-3v-2l-3-2l-3 1l-3-3l-4-6l8-15l2-1l-7-8l-4 2h-6l-3 1l-2 4h-7l-3-1l1-2l-2-3l2-1l-1-4l-3-3v-4l-2 1l-10 10l-20 24l-3 3l-3 2l1-6l10-15v-3l-3-1h-5l-10-5l3 6l4-1v2l-1 3l2 5l1 4l-4 4v4l-4 5h-2l-5 2l-1-2v15l-1 40l1 1l1 3l-2 1v4l-2 3l1 4l3 1l-4 4z"/><path id="02808" d="m114 1137l-2 2l2 7v5l4 2l2 9l15 3l1 1l1-2h2l4-2l6-1l3-3h5l2 1l5-1l2-4h3l1-2l2-1h7l1 1l-1-22l3 1l1 3l1-1v-9l5-5l1-5l-2-3l-3-1l-2-7l-2-2l1-6l4-8v-7l3-3l-5-1l3-15l2-2l-10-2l-11-2l-1 3h-1v-4l-9-1l-2-2l-1 7l-2 1h-3v5l-2 11v2h-5l-3 1h-6l-4 1l-1 5h-3l1 5l1 3l8 2l-4 6l1 4l2 2l1 6l1 3l-1 3l-3 4l-2 1l1 2l-3 3l-3-3l-3 2l2 6l-3 3l-3 3l-2 1z"/><path id="02812" d="m235 999l-1 8l11-1l1 10l7 4l5-2v2l2-3l5 1l5 3l5-1l3 1l4-1l6 7l2-3l2-7l4 1l2 1l1-1l7-8h1l3 1l1-2l4 1l1 1h3l1-1v-9v-8l1-6v-9l-3-5l-1-9l-4 1l4-4l1-1l-3-3l-3-4l-3-2l-4-2l-7-4l-6-2l-8-1l-8 3v3l-1 12l-5-1l-4 2l-12 25l-8-7l-4 4l1 1l-3 4v5l-3 4h-1z"/><path id="02813" d="m179 1130l1 22l1 63v1l1 35h6h5l7 1l14-5l5-5l7-8l12-3l61-23h6l8-5l10-4l2-10l2-5l2 1l-2 3l3-2l-3-4v-2l4-14l16-60l1-3l16-59l-4-5v-2l-4-1l-2 2l-2-1l-4-2l-3-3l-1 1v1l-3-1l-2 3l-3 1l-3 6l-6 1l-2-1l-3 2h-2l1-2l-2-3l-2 2h-3l-1-3l-6 2l-4 3l-4-2l-4-3h-4l-1-4l-2-2l1-3l-1-3l-6-7l-4 1l-3-1l-5 1l-5-3l-5-1l-2 3l-2 2v6l-3 5l-1 7l-5 4v5l-4 6l-2 2v2l-1 1l1 4l-1 1h-3l-5 3l1-2l-4 2h-4l-4 3l-2 1v-3l-2 1l-3-3l-2-3l-2-1l-5 2l-3 1h-3v2l-1 3v1l-3 5l-3-1l-3 1l-3 3v7l-4 8l-1 6l2 2l2 7l3 1l2 3l-1 5l-5 5v9l-1 1l-1-3z"/><path id="02814" d="m89 165l1 44l3 92l59-2h5l18-1h8h5v-3l6-4l1-4l-2-5l-3-4l2-3l-1-2v-9h3l4 3l5 1l5-1l6 2l7 4l4 1l9-2l4-2v-2l6-6l1-3l4 1l5 6l3-1v-1l5-2l2-6l5-2l2-2v3l8 3l1 3l9-3h7l3 8h1l1 5l2 1l3 4l3 1l3-6l-2-3v-3l-5-6l-1-3h5l4-2l12 2h2v-3l20 1l2-2l4 5l3-1v5l-2 4l1 1l6-9l3 2l9-3l1 2l-3 7l2 3l2-5l4 2v-4l1-2l3 1l1 4l-2 1l3 1l1-3h1l-2-18l-3-18l4-4v-2l-3-2l-2-1l-10-62l-32 1l-22 1h-14l-36 1l-3 6l-2 5h-3l-3-3l-1-3l-1-4l-100 3h-2z"/><path id="02815" d="m249 413l5 41l6 4v7l-1 9l-2 3l1 5l2 1l3-1l5-1l3 1l4-2l5 2l5-1l5-3l8-5l15-12l-1-3l3-2l1-5l-2-1l-2-4l-6-2l1-3l-4-5v-3l-3 1l-2 3h-2l-7-4l-4-1l-4-3h-2l-4-2h-2l6-1l4-2l3-1l-6-6l-4-1l-7 2l1-2l-2-4l-6-2l-5 4v1z"/><path id="02818" d="m430 652v4v9v39v6l1 51l32-1l16-1h17l19 1l-2-19l-3-1v-3l1-4h1v-5l4-3l1-4l5-1l10-9l-1-6l4-4l3 1l1-2l4-2l1-3h5l1 3l4 2l2 4v6l4 1l-1-2l3-1l2-4l-2-4l1-3l4-4l2-3l-1-2l4-1v-6l2-1l1-2l6-3l4-4l5 1l7-6h2l1-1l6-1l11 2v-7l1-9v-1l-13-4l-8-7l-2-3l-6 6h-2l-10 2h-2l-3 2l-3 2l-3-8l1-4l6-3h1l-1-3v-1l-7-4h-1v-1l1-8v-1v-5l-3-4l-1 1l-3 1l-1-4l6 16l-2 3l-10 1l-3-1l1 3l1 7v4l-6-1l-5 2l-5-6v5l-8 1l-5-2l3-7l-2 2l2-7l-1-14h-6l-26 1l1 10l1 10h8l-1 2l2 2l-5 1l-1-2l-3 2v15h2h-11l-8 2l-8-3l-7 2h-13z"/><path id="02825" d="m93 301v9v15v2l2 57v3v4l2 55l1 8l1 82h49l2-1l110-3h8h29l-3-3l2-6l-2-3l3-5l1-8l1-2v5l-1 9l1 5l2 7l6-2l1-4l6-7l2-3l7-5l8-5l7-5l-3-4l1-6l-1-3l5 1h3l5 1l1-8v-4l4-1l1-2l-2-3l7-2l-3-3l1-1l-3-4v-3l-1-5l-1 2l-3 2l-3-1v7l-1 1l-1-6l-2-3v-3l-2-2l-3 1l-2 5l-2 1l-6 3l-1-3l-2-2l-3 1l-1-2h-3l-2 2l-3 2l1 3l-15 12l-8 5l-5 3l-5 1l-5-2l-4 2l-3-1l-5 1l-3 1l-2-1l-1-5l2-3l1-9v-7l-6-4l-5-41l-8-56v-3l-7 4l-11 1h-2l1-4v-6l-10-4l-1 3l-5-3l-3-2l-6-3l-5-6h-1v-2l-3-1l3-10l2-4l1-5l-2-4v-3l-3-4l-3-3h-3h-8l-18 1h-5z"/><path id="02827" d="m99 536v1l2 53l2 72l64-2l2-1h14h-5l-3-1h-5l-3-1l2-4l-1-5l1-4l-2-3l-1-4l-3-7l-1-6l23 1l10-4l-4-3l-1-2l-3-2h-3l4-5l5-2h4v-3l5-3l5-1l17-1l4 5l1 12h1l6-5l12-4l1 2l-2 1l3 6v-4l-2-2l4-1v-2l4-3v-5h-11l-1-7l2-3l4-4l2-3l-3-2l-1-5l-4-1l2-2l1-4h2l3-3l4-3v-4l3-4h1l4-6l5-1l-6-1l1-2l-2-2l-2-6v-4l-110 3l-2 1z"/><path id="02828" d="m382 227l3 18l2 18h-1l-1 3l1 3l-1 9l4-2l1 8l2 9h1l15-3l26-5l1 1l9-2h4l3-1v-7l1-4v-1l-1-4h2l5-2l-1-5l-5 2l-2 3l-6-5l-3-2h-3l-1-2l1-4v-6l-1 2l-3 2l-4 1l1 2l-6 5l2-4v-2l-3-3v-6l-3-1v-2l7 2l-1 5h4l4-2l-1-2l3 1l-1-4l-3-4l-8-1l-3-3l1-2l-1-2l-8-8l-1-4l-4 2l-3-2l-3 1l-2-1l-5 3v3l-5 1l-2 1l1 3l-2-3l-1-3h-1v2z"/><path id="02830" d="m189 21l2 7l7-3l-1-2l4 4l9 18h1l4 5l5-6l2 2v3l-3 2l-1 2l-3 2l6 12l4 16l-1 2l1 7l-3 1l4 4h3l1 1l5-3l2 3l2 3l1 4h2l6-2v5l-7 4l-1 2l1 12l3 4l5 1l4 5l4 1l15-13l-3-18l2 1l4 4l2-1l3 1l6 5l2-5l1-4l-3-5l-5 2l-4-2l-2-4h-3l3-2h2v-6h4l1 5l7 1l2 5l2-4l-7-7l6-5l1 5l1 3l2 4l4-6l-1-3l2 2l6-6l7-3h-1l-1-1l-2-3l-7-3l-7-6l-3-1l-7 3l-4 1l-7-2l-3 4l-4 1l3-1l4-7l8-8l-3-10l3-1l7 1l9 5l5-2l2 2l4 7l3-1l4-2l1 2l4-1l1 2h-2l-5 15l-2 6l7-3l6-6h1l1 3l-2 1h7l3-1l4 5l3 2l-27 9l1 11v11l4 2v6v2l9 4h2l1-2l7-2l7-1l3 3l-3 1l-5 5l-2 4l-2 7l1 2l-1 7l-1 1v4l1 1l32-1l-3-20l-5-34l-1-3v-3l-1-2l-2-11h1v-2h-1l-1-5h1v-2h-1v-4l-1-6l-1-6v-1l-2-13l-4-21l-2-13l-101 3l-49 2l-3 4z"/><path id="02831" d="m270 416l-1 2l7-2l4 1l6 6l-3 1l-4 2l-6 1h2l4 2h2l4 3l4 1l7 4h2l2-3l3-1v3l4 5l-1 3l6 2l2 4l2 1l-1 5l2-2h3l1 2l3-1l2 2l1 3l6-3l2-1l2-5l3-1l2 2v3l2 3l1 6l1-1v-7l3 1l3-2l1-2l1 5v3l3 4l-1 1l3 3l-7 2l2 3l-1 2l-4 1v4l-1 8l-5-1h-3l-5-1l1 3l-1 6l3 4l-7 5l-8 5l-7 5l-2 3l-6 7l-1 4l-6 2l-2-7l-1-5l1-9v-5l-1 2l-1 8l-3 5l2 3l-2 6l3 3h9l8-1h6v3l-1 2l3 2h3h1l1-1l-2-2l-1-4h9l1 1l5-1l6 1l3 1h5l2-1l5-2l1-1l5 1l23-1l37-1v-1l3-2l1 1l2 1h9l2-6l2-2l-1-3l1-2l1-5l-5-1l-3-5l-1-9l-9 5l-3 2l-6-38l7-1l6-1l7-4l5-5l-25-15h-4l3 15l-6-2l-9-6l-2-5l-3-1l-1 4l-5 3l-3 4l-1 4l3 2v4h4l2 1l1 3l-6 1v4h-2l-3 5v3l-3 4l-11 9h-1l-1-7l-6-16l-11-25v-2l1-20l-4 1v3l-3 2l3 4l-1 5l-2 1l-4-1l-3 7l-3-1l-2-4l1-3l-4-8l-2 2v5l-2-1l-1 1v3l2 4l-1 5l-3 3l-4-4l1-3l-2-2h-4l1-4l-3 2l-5-3v-2l-2-2l-1-6l-3 1l-3-6l-5-5h-2l-5-2h-12z"/><path id="02832" d="m124 858l7 9l-3 3l-3 2l3 3l3 4l1 4l4 3l4 7l2 2l1 3l2 4l6-1l1 2l-1 3l-12 2l-1 3l-4 8l1 7l-2 4l1 5h5l3 3l6 2l2 4l2 2l-2 5l2 7l1 4l-6 1l-2 3l-3-1l-2 4v2l3 3h-4l-3 4l-1 3l-2 10l2 1l3 4l2 1l2 2l-2 2l2-1v4l3 3l1 4l-2 1l2 3l-1 2l3 1h7l2-4l3-1h6l4-2l7 8l-2 1l-8 15l4 6l3 3l3-1l3 2v2h3v-4l2-2l5 2l1 5l-1 7l-1 3h2l1-5l4-4l2-5l1 4l-1-10l2-3h2v-5l3-1l-1-7l1-3h-1l-4-2l-4 1l6-2l4 1l16 1v-4l7-3l3-4h2l1-8l1-2l1-4l-3-3l-4-2l-1-2l-9-8h-5l-4-3l-2-4l-3-17l-3-3l13-11l-4 4l-1-3l-2-2l-4-2l1-2l-2-3l3-2h1l2-1l1-3l3-2l1-4l-1-2l2-1l2-1l15-11l2 1l4-4v-11h2l-1-3l1-19l3-1h5l3-1l1 1l3-10l5-12l2-4l2-4l-38 6l-1-2l-1 2l-64 9h-9z"/><path id="02840" d="m765 901l-1 6l3 1v-3l1-3zm-39 59v9l1 3l1 5l1-1l1-1l1-6v-1v-4l-2-5v-1l-2 1zm-19-9v4h6v-2l-2-5l-2-3zm-25 59l-3 7l5 2l2 5l3 14l7-3l9-6l6 3l3 7l4-1l5-6l7 2l5-6l-1-2h-3l1-2l1-2l3 1l1 2l2 2h2v1l1 1l1 1l5-4l2 2v1l-2 5l2 1l9-6l1-1l1-8l1-1l-2-6l5-7l4-2l2-1l-2-9l1-11l1-9l7-5l7-2l-22-32l-6-12l-8-16l-7 9l-2 5v7l-2-2l-3 2l-1 5v2l1 5l3-1v3l1 3l-4 1l-1 1v15l2 4l1 2h4v5l1 2v4l1 3v5l-10 3l-14 10l-2 1l-1-4l3-11l-3-7l-5 7l-1 2l-1 2l-9 9l-6 3z"/><path id="02841" d="m724 913l1 1l4 2l-1 4h-1l-3 2v10l4 6l3 1l3 1v7l1-1l4-1l-1-3v-3l-3 1l-1-5v-2l1-5l3-2l2 2v-7l2-5l7-9v-1l-5 4l-6 1l-1-1l-3-6l-5 2l-1 1z"/><path id="02842" d="m739 892l2 4v1l8 9v1l8 16l6 12l22 32h1l4 1l7 14h2l1 1l8-8l1-8l4-1l10 2l7 4l9 8l-3 15l3 2l7-5l2-10l3 1v-7v-6l-7 3l-5-3l-2-6l1-8l8-13v-7l10-16l1-1l-4-3l-17-15l-12-13l-7-6l-5-5l-20-16l-14-14l-6-7l-8-8l-3 5l-3 7l-4 8l-3 9v3l-1 2l4 2v5v1l-6 6l-2 2l-7 9z"/><path id="02857" d="m183 298h3l3 3l3 4v3l2 4l-1 5l-2 4l-3 10l3 1v2h1l5 6l6 3l3 2l5 3l1-3l10 4v6l-1 4h2l11-1l7-4v3l8 56l8 2v-1l5-4l6 2l2 4l7-5h12l5 2h2l5 5l3 6l3-1l1 6l2 2v2l5 3l3-2l-1 4h4l2 2l-1 3l4 4l3-3l1-5l-2-4v-3l1-1l2 1v-5l2-2l4 8l-1 3l2 4l3 1l3-7l4 1l2-1l1-5l-3-4l3-2v-3l4-1l-1 20v2l11 25l6 16l1 7h1l11-9l3-4v-3l3-5h2v-4l6-1l-1-3l-2-1h-4v-4l-3-2l1-4l3-4l5-3l1-4l3 1l2 5l9 6l6 2l-3-15l-2-18l-1-1l-5-28l-2-17l-4-25l-2-10l-1-2v-5l-1-1l-3-26l-1-1v-4v-3l-1-3l-2-9l-1-8l-4 2l1-9l-1-3l-3-1l2-1l-1-4l-3-1l-1 2v4l-4-2l-2 5l-2-3l3-7l-1-2l-9 3l-3-2l-6 9l-1-1l2-4v-5l-3 1l-4-5l-2 2l-20-1v3h-2l-12-2l-4 2h-5l1 3l5 6v3l2 3l-3 6l-3-1l-3-4l-2-1l-1-5h-1l-3-8h-7l-9 3l-1-3l-8-3v-3l-2 2l-5 2l-2 6l-5 2v1l-3 1l-5-6l-4-1l-1 3l-6 6v2l-4 2l-9 2l-4-1l-7-4l-6-2l-5 1l-5-1l-4-3h-3v9l1 2l-2 3l3 4l2 5l-1 4l-6 4v3z"/><path id="02859" d="m86 20l2 133v5l1 7l63-2h2l100-3l1 4l1 3l3 3h3l2-5l3-6h-11l2-5v-10l-1-7l-4-1l-4-5l-5-1l-3-4l-1-12l1-2l7-4v-5l-6 2h-2l-1-4l-2-3l-2-3l-5 3l-1-1h-3l-4-4l3-1l-1-7l1-2l-4-16l-6-12l3-2l1-2l3-2v-3l-2-2l-5 6l-4-5h-1l-9-18l-4-4l1 2l-7 3l-2-7l6-2l3-4l-66 2z"/><path id="02860" d="m600 256v9l2 7l4 19l8 1l2 5l14-1h9h2l1 1l4-1h6l11-1l1 1l3 12v13l-1 6v1l1 1l2-11l2 3l2 1l3-14l2-4l1-7l-3-4h3l-2-41l-1-3l-4-9l-6-12h-2h-3l-6 2l-1 3l-2 3l2 3h2l-1 3v5h-6l-5 2h-4l-16 3l-10 1l-1 1z"/><path id="02861" d="m665 228h-1h2l6 12l4 9l1 3l2 41l28-4l12-1v-2l-9-35l2-22l1-9l-19 3l-3 1v-1l-1-1v1v1l-10 1l-3 1l-8 1z"/><path id="02863" d="m620 233l1 7l3 12l16-3h4l5-2h6v-5l1-3h-2l-2-3l2-3l1-3h-1v-1v-6l-6-5h-3l-8 4l-14 5z"/><path id="02864" d="m511 73l3 2l2-1l6 2l7 9l9 5l3 1l1 2l-1 4l4 10v5l9 4l5 5l1 4l3 3h2l7 3l2 5l1 1l6 7l2 3l2-1l3 6l5 14l-6 2l2 4l2 2l4 2l5 1l3 3l1 3l13 9l3 4l4 1l7-2l2 2l-4 10l1 3l-1 4l3 3l5 3v2l8-4h3l6 5v-33v-14v-1l1-76v-4v-29v-4v-62l-30 1h-13h-16l-31 1h-15v7l-2 12l-8 11l-2 3l-7 10z"/><path id="02871" d="m782 681v5l3 5v4v2l3-2h9l6 2v-3l-5-4l-1-5l-2-7l-4-1l-7 1zm-12 143l-6 8l8 8l6 7l14 14l20 16l5 5l7 6l12 13l17 15l4 3l4-12l2-12l-1-4l-8-4l-2-6l2-11l-2-6l2-7l1-5l1-1l-1-3l-4-2l-1-4v-3v-1l2-10v-3v-15l2-3l-4-2l-8-18l1-7l1-8l1-16v-2l1-2v-23l6-3l18-3l5-2l4-3l4-25h-4l-1-7v-6l-3-13l-1-4l-3 3l-2 6l-1 2v1l-1 4l-9 6v1l-2 5l-4 3h-8l-4-1l-1-1l-3 1l-4 1l-11 10l-3 10l-5 4l-2 1h-1l-6 2l-5 8l4 8l-1 15l-10 25l-6 1l-1 1v1l-1 1l-1 7l-3 8h5l2 6l-1 4l-4 6l-1 1l-8 3l-3 7zm-7-34l1 5v5l3 1h2v-4l-1-2l-1-3z"/><path id="02878" d="m873 833v5l9 3l1 4l-3 4v12l3 2l2 1l20-7l1 1l6-3l26-6l23-7l31-9l5-1h3l-5-54l-1-3l-6-13l-1-2l-2-2l-3-3v-4l-1-16l1-14l7-8l2-24l2-32v-2l-3-1l-15-4l-11-2l-1-1l-26-6l-3-1v-6l-7-2l-14-3l-4-1h-2l-1 2l-10 24l-5 14l-4 19l-2 6h-2l-4 25h1l5 4v6v3l-1 15l7 17l4 4l1 4l-2 4h-5v6l-7 9v4l8 4v19l-2 14l-4 1l1 4l-1 1h-2v-3l-1-2h-5z"/><path id="02879" d="m460 1004l1 2l3-1l1 1l1-1l-1-1zm-137 195l2-1l10-3l14-2l11-2h5l11-6l47-11l9 1l6 1h5l2-3l6-3l6-1l9 1l9 2l1-3l3-5l-2-2l-5 4l-2-6l4-5l13-41l2-18h8l4-18l2-2l2-3l6-1l3-2h-6l2-1l5-4v-1l13-7l3-2l11-7l13-12l4-5l1-9v-6l2-8l2-5l-2-7l1-2l1-10l1-4l-1-10l1-3h-3l-1-3l-5-3l-4-5l-25 4l-10 1l-7 2l-2-2v2l-9 1l-2-4l-4-1l-3 2v-2l-3-1l-13-4l3 5l-3 7l6 7v6l10-2l3-1l3 9l5 20l-20-4h-2l-1 1v-1l-2 1l-1-2l-2-3l-6 1l-2 3l3 6l-2 4l-3-4l-6 1h-2v-4h-5v2l-7 1l-3 3l-10 3v-1l-2 4l-8-3v-14l-1-4v-2l-1-2l-2 1l-4-1l-7 1l-4 2v3l-1 5l2 5l2 1l2 5l-1 2l2 3l-1 2l1 4l3 6l2 1l-1 2l1 4h3l-2 8l-2 3l-2 6h-3l-2 2l3 4v6l-2 6l-3 2h-2l-30-23l-2-3l-2-2l-2-2l-16 59l-1 3l-16 60l-4 14v2l3 4l-3 2l2-3l-2-1l-2 5z"/><path id="02881" d="m425 978l6 1l3-2h5l5 1l-4 8l-1 4l-5 7l-2 4l-3 3l1 2h-3l2 5l1 1v1l10-3l3-3l7-1v-2h5v4h2l6-1l3 4l2-4l-3-6l2-3l6-1l2 3l1 2l2-1v1l1-1h2l20 4l-5-20l-3-9l-3 1l-10 2v-6l-6-7l3-7l-3-5v-3l-2-2l-4 12l-9-2l-3-2l-10-3l-3 12l-7-1l-4 6z"/><path id="02882" d="m470 1160l2 6l5-4l2 2l-3 5l-1 3l14 2l8 5l3 6l8 7v4l2 1h4l5 3l1-4l-3-7l-2-10l13-26l8-14l2-2l5-2l1-4l1-6l4-3l4-4l1-5l3-3l1-9v-6l-3-7v-1l-1-10l1-5l-2-4l10-10l8-6l1 3l2 3l3-2v-2l1-2l6-6l3-4l-1-4l2-7l5-2l1-3l-1-5l-4-4l-2-9l1-9l4-3h6l2 4l1 1l3-5l1-10v-7l-3-3l-1-12l3-4l-1-1l-2 4l-1-3h-12h-4h-1h-5v-4h-12l2 6l-1 2l-2 3l-1 3l1 10l-1 4l-1 10l-1 2l2 7l-2 5l-2 8v6l-1 9l-4 5l-13 12l-11 7l-3 2l-13 7v1l-5 4l-2 1h6l-3 2l-6 1l-2 3l-2 2l-4 18h-8l-2 18l-13 41z"/><path id="02886" d="m476 570l-8 20l10-1h7h6l1 21l26-1h6l1 14l-2 7l2-2l-3 7l5 2l8-1v-5l5 6l5-2l6 1v-4l-1-7l-1-3l3 1l10-1l2-3l-6-16l1 4l3-1l1-1h-1l5-7l1 1l4 1l-1 4l1 1l1 2l10-1l8 2l14 3l16 1h7l-1-3l-1-2l-2-7l-4-8l-10-6l-3-2l-3 1h-9l-6-3l-1-4l8-2l-3-2l1-1l6 2h2l4-4l-1-2l-3-1l2-3l-5-2l1-2l-3-3l-2 5l-9-7l4-4l5-1l5 2l6 8l6-2v-3l-3-3l-1-6l-2-3v-5l-2 2l-3-3v-6l2-1h5l1-2l-2-4v-3h-15l1-5l-6-1l-3 7l-8-1v-1l4 1l2-6l-4-1l2-8l-2-2l-3 9h-8h2l1-4v-3l-1 2h-7l-3 1l-3 4l2 6l-3 3l-40 2l-2 9l-6 7v8l-1 1h-3l-6 9l-5 2h-5l-3 4l-6 4z"/><path id="02888" d="m566 491l2 8l1 2l1 6v3l-1 4h-2h8l3-9l2 2l-2 8l4 1l-2 6l-4-1v1l8 1l3-7l6 1l-1 5h15h2v-3l11-1l14 1l2 1l1 1l1 1h1h3l6-3l7 12l1-10v-4v-6l6-9l-2-1l-4-2v-1l1-6l-2-11v-1l-4-4l-1 1l-1-1l-4-10l-3-1h-5l-2-4l-5-3l-2 3l-4-2l-9 2l-2 3l-3 3l-2 1l-5 2l-1-1l2-4l-4-1l-2 3l-4 4l-2 1l-4-1l-2 2l-2 1l1-3l-2-1l-1 3h-4l-1 3l-3 1l2 2l-3 3l1 5z"/><path id="02889" d="m590 552l-4 4l9 7l2-5l3 3l-1 2l5 2l-2 3l3 1l1 2l-4 4h-2l-6-2l-1 1l3 2l-8 2l1 4l6 3h9l3-1l3 2l10 6l4 8l2 7l1 2l1 3h4h1h6l3-1l2 1l-1 1l-1 4l1 16l5 2l6 7l5 1l6-8l1-3v-11l2-12l9-6l3-6l-1-1l-3-2v-11v-2l2-7l-2-6v-2v-5l12-9v-2v-1l-9 2l-9-2l-9-6v-1l-5-8l-1-2v-1l-7-12l-6 3h-3h-1l-1-1l-1-1l-2-1l-14-1l-11 1v3h-2v3l2 4l-1 2h-5l-2 1v6l3 3l2-2v5l2 3l1 6l3 3v3l-6 2l-6-8l-5-2z"/><path id="02891" d="m1 1279l-1 12l4 1l3 5l17-10l15-7l20-6l6-2l25-6l14-4l17-4l10-2l7 1l13 6l7-5l22-7h2l-1-35v-1l-1-63l-1-1h-7l-2 1l-1 2h-3l-2 4l-5 1l-2-1h-5l-3 3l-6 1l-4 2h-2l-1 2l-1-1l-15-3l-2-9l-4-2h-2v-3h-2l-1 3h-2l-1-5h-2l-3-2l-2-3l-3 1l-7-2l-2-4l1-3h5v-2l-5-1l-1 1l-1-2l-1-4l-4-5l1-1l5-1l4-4l-3-1l-1-4l2-3v-4l2-1l-1-3l-1-1l-4 2h-2l-3-3l-4 1l-8-5l-6-1l-4 1l-5 4l-1 4l-5 1l-8 5l-4-1h-4l-4 5v2l-1 5l1 2l2 3v7l-1 4v2v1l5 9l4 1l4 5l-1 8l4 7l-3 6l1 8l-1 3l-7 7v10l1 6v3l2 3l6 4l2 8v8l-1 2l-8 9l-11 10l-5 2l-5 9l-8 7l-4 1z"/><path id="02893" d="m447 527v11v5l1 27v5v7l1 24h-2l2 4v26v6v9h13l7-2l8 3l8-2h11h-2v-15l3-2l1 2l5-1l-2-2l1-2h-8l-1-10l-1-10l-1-21h-6h-7l-10 1l8-20l2-1l6-4l3-4h5l5-2l6-9h3l1-1v-8l6-7l2-9h-13h-2l-19 1h-1h-10l-3 1v-1h-2l-1 1h-5z"/><path id="02895" d="m439 16l9 30l2 7l6 3l3 3l6 2l4 3l24 6l18 3l20-28l7-10l2-3l8-11l2-12v-7l-54 1h-2h-2l-36 4h-2l-2 5l1 4z"/><path id="02898" d="m215 913l-1 2l2 2v-1l3-2l-1-2l-2 2zm-12 38l3 3l3 17l2 4l4 3h5l9 8l1 2l4 2l3 3l-1 4h1l3-4v-5l3-4l-1-1l4-4l8 7l12-25l4-2l5 1l1-12v-3l2-7l-1-2l-1-9l1-5l-2-2h2l20 3l1-6l2-5l2-3v-6l2-8l-1-2l2-5l-1-7l-2-5l-8 4h-2l-5 3l-2-12l-4 1l-2-7l-5-3l10-10l8-11l6-7l-33 4l-2 4l-2 4l-5 12l-3 10l-1-1l-3 1h-5l-3 1l-1 19l1 3h-2v11l-4 4l-2-1l-15 11l-2 1l-2 1l1 2l-1 4l-3 2l-1 3l-2 1h-1l-3 2l2 3l-1 2l4 2l2 2l1 3l4-4z"/><path id="02903" d="m581 351l3-1v4l4-1v-1l3-1h3v2h-4l-6 2l2 1l3-1l3 8l2 6h1l2 2l-2 3l4-3l7 4l3-2h1v3h3l1 5l6-1v8l5-2l5 15l13-11l-5-3v-8l1-6l4-1v1l4-3l2-5h-5v-2h-12l-2 2l-2-1l-6-9h2v-1h-1v-3l-4-1l1-3l-2-3l-3-2h-2l-7-1l-1 8l-10-3l-9 2z"/><path id="02904" d="m528 269h-1l4 2l1 2v4l1 1l-1 2l-1 4h1l1 3l-2 2l2 3h6l-1-3h2l1 2h2l3 2l-2 2l5 2l2 6l7-1l1-2v5l3-1h1l-1 4l9-1l3-5l2-1l6 5l1 2l4-3h2l1-3l3 1l2 4l7 11l6 16l-1 3l4-1l2 6h2l3 2l-2-5v-3l6-1l1-2l1-4l-5 2l-2-1l1-4l5-11l6-14l1-5l-14 1l-2-5l-8-1l-4-19l-2-7v-9l-57 10l-5 1z"/><path id="02905" d="m602 422l1 4l4-1l2 3l-2 4v3l2 1l1 4l-1 6l2 3l1 1v12l1 2l2-3l9-2l4 2l2-3l5 3l2 4h5l3 1l4 10l1 1l1-1l-2-4v-5v-1v-7v-2l-4-9l-1-4l-1-1l-1-5l-1-4l1-4h1l7-2l3-1h2l13 3l3 1l-1-8l-2-4l-2 1v-4l-6-6l-3-2l-1-1l-6-11l-7-6l-13 11l-5-15l-5 2v-8l-6 1l-1-5h-3v-3h-1l-2 4l1 3l-2 1l2 1v3l2 5l-7 2l1 5l3 3l9 10l-11 8z"/><path id="02906" d="m616 336v3l2 5l2 3l-1 3l4 1l6-1v6l-3 1v-2h-2h-2l6 9l2 1l2-2h12v2h5l4-5l7-14l5-5l1-11l1-1l-1-1v-1l1-6v-13l-3-12l-1-1l-11 1h-6l-4 1l-1-1h-2h-9l-1 5l-6 14l-5 11l-1 4l2 1l5-2l-1 4l-1 2z"/><path id="02907" d="m573 407l1 5l4 1l-1-3h5l-1 3l2 3v3l1-2l3 2l-2 4l-3-2l2 3v1h15l2 1l-2 6l-2 9l5 2l4 3l2-7l2 1l-1-4l-2-1v-3l2-4l-2-3l-4 1l-1-4l3-4l11-8l-9-10l-3-3l-1-5l7-2l-2-5v-3l-2-1l2-1l-1-3l2-4l-3 2l-7-4l-4 3l2-3l-2-2h-1h-3l1 3l-3 5l-2 2l-8 10l-4 5v-1v4z"/><path id="02908" d="m550 316v2v4l2 2h6l2 8h-3v3l1 7v11l7-1l1 2l4 1v-2l6 1l1 1v-1l4-3l5-3l9-2l10 3l1-8l7 1l-2-6l-4 1l1-3l-6-16l-7-11l-2-4l-3-1l-1 3h-2l-4 3l-1-2l-6-5l-2 1l-3 5l-9 1l1-4l-3 2l-1 1h-6v5z"/><path id="02909" d="m531 333v4l6 5l4 1l3 6l1 6l3 3l1 1l-5-1h-2l-6 1l-3 1l3 8l3 12l-3 1l3 5l-3 3l-1 2l3 1l3-3l2 2h2h1h1v1l1-1l-2-1l22-2l2-1h1l4 6v1l4-5l8-10l2-2l3-5l-1-3h3l-2-6l-3-8l-3 1l-2-1l6-2h4v-2h-3l-3 1v1l-4 1v-4l-3 1l-4 3v1l-1-1l-6-1v2l-4-1l-1-2l-7 1v-11l-1-7v-3h3l-2-8h-6l-2-2l-6 2l-1-1l-3 2l1 4h-1h-1v-1l-1-1l-2 1v5z"/><path id="02910" d="m552 429h1l1 4l4 5l1 6l-3 3v6l2 2l1 3l2-1l4 4l1 4l2 1l2 3v3l2 4l2 1l3-1l1-3h4l1-3l2 1l-1 3l2-1l2-2l4 1l2-1l4-4l2-3l4 1l-2 4l1 1l5-2l2-1l3-3l-1-2v-12l-1-1l-2-3l1-6l-2-1l-2 7l-4-3l-5-2l2-9l2-6l-2-1h-15v-1l-2-3l3 2l2-4l-3-2l-1 2v-3l-2-3l1-3h-5l1 3l-4-1l-1-1l-9 2v-1l-5 5l-6 6z"/><path id="02911" d="m500 274v1l3 2l1 4l2 3l3 1l1 4l1 8l2 5l6 4l1 6v4l4 8l1 7l5-2l1 3v1h5v-5l2-1l1 1v1h1h1l-1-4l3-2l1 1l6-2v-4v-2l3-4v-5h6l1-1l3-2h-1l-3 1v-5l-1 2l-7 1l-2-6l-5-2l2-2l-3-2h-2l-1-2h-2l1 3h-6l-2-3l2-2l-1-3h-1l1-4l1-2l-1-1v-4l-1-2l-4-2z"/><path id="02912" d="m623 351v3h1v1h2v2l3-1v-6z"/><path id="02914" d="m638 379v8l5 3l7 6l6 11l5-5l1-3l2 1l1 5l4 2l1-3l2 1l1-3h3l3 1l16 5l2-13l5 5l1 1l13 11l6 3v-1l-3-4l-2-1l-5-2l-2-4v-3l2-8v-4l1-3l-1-2l-11-25l3-9l-1 3l-3 3l-3-2l1-3v-4l-1-1l-1-1l-3 2l-5-2l-1 3l-3-1l-9-6l6-4l-4-7h-5l-6 1l-1 11l-5 5l-7 14l-4 5l-2 5l-4 3v-1l-4 1z"/><path id="02915" d="m656 407l1 1l3 2l6 6v4l2-1l2 4l1 8l-3-1l1 5h4l4 6l-2 4l1 8l-5 11v1l6-1h1v1l3 7l1 6l1 4l-2 7l3 3l1 5l-1 3h5h1l2-11l3-3l46-43l-13-8l-3-3l1-8l-4-9l-6-3l-13-11l-1-1l-5-5l-2 13l-16-5l-3-1h-3l-1 3l-2-1l-1 3l-4-2l-1-5l-2-1l-1 3z"/><path id="02916" d="m667 329l-1 1l6-1h5l4 7l-6 4l9 6l3 1l1-3l5 2l3-2l1 1l1 1v4l-1 3l3 2l3-3l1-3l8-8l2-3l4-3l-9-15l-1-2l11-30l-12 1l-28 4h-3l3 4l-1 7l-2 4l-3 14l-2-1l-2-3z"/><path id="02917" d="m377 155l-6 1l10 62l2 1l3 2h1l1 3l2 3l-1-3l2-1l5-1v-3l5-3l2 1l3-1l3 2l4-2l1 4l8 8l1 2l-1 2l3 3l8 1l3 4l1 4l-3-1l1 2l-4 2h-4l1-5l-7-2v2l3 1v6l3 3v2l-2 4l6-5l-1-2l4-1l3-2l1-2v6l-1 4l1 2h3l3 2l6 5l2-3l5-2l1 5l-5 2h-2l1 4v1l-1 4v7l1-1h1l20-3l25-5l2 1v-1l27-5h1l10-2v-1l-2-6l-1-8l-16-62l-2-7l-1-4l-8-32l-14 12l-3 2h-1l-1-1l3-3l10-8l-1-8l4 1v-4l-85 12h-2l-9 1z"/><path id="02919" d="m392 293l1 3v3v4l1 1l3 26l1 1v5l1 2l2 10l4 25l2 17l5 28l1 1h5l8-4l19-3l4 1l3 3l6 2l6 1l5 1l6 1l14-1l7-3l4-1l8-1l7-6l6-4l10 1l1-3l3-1l3 1l2-10l3-2l-2-2l-3 3l-3-1l1-2l3-3l-3-5l3-1l-3-12l-3-8l3-1l6-1h2l5 1l-1-1l-3-3l-1-6l-3-6l-4-1l-6-5v-4v-1l-1-3l-5 2l-1-7l-4-8v-4l-1-6l-6-4l-2-5l-1-8l-1-4l-3-1l-2-3l-1-4l-3-2l-2-1l-25 5l-20 3h-1l-1 1l-3 1h-4l-9 2l-1-1l-26 5l-15 3z"/><path id="02920" d="m498 418v7l3 1v2l2 2l1 3l4 4l5-2l4 5l7-2h1l-1 2l-4 6l5 3l-1 3l-5-2v7h-1v3l2 6l1 8l-1 6l-1 5l-4 9l-7 12l-1 5l1 8l-3 1l-3 5h13l40-2l3-3l-2-6l3-4l3-1h7l1-2l-1-6l-1-2l-2-8l8-4l-1-5l3-3l-2-2l-2-1l-2-4v-3l-2-3l-2-1l-1-4l-4-4l-2 1l-1-3l-2-2v-6l3-3l-1-6l-4-5l-1-4h-1l1-6l6-6l5-5v1l9-2l1 1l-1-5l2-10v-4l-4-6h-1l-2 1l-22 2l2 1l-1 1v-1h-1h-1h-2l-3 2l-2 10l-3-1l-3 1l-1 3l-10-1l-6 4l-7 6l-8 1z"/><path id="02921" d="m413 419l2 18h4l25 15l-5 5l-7 4l-6 1l-7 1l6 38l3-2l9-5l1 9l3 5l5 1l-1 5l-1 2l1 3l-2 2l-2 6h6h12h5l1-1h2v1l3-1h10h1l19-1h2l3-5l3-1l-1-8l1-5l7-12l4-9l1-5l1-6l-1-8l-2-6v-3h1v-7l5 2l1-3l-5-3l4-6l1-2h-1l-7 2l-4-5l-5 2l-4-4l-1-3l-2-2v-2l-3-1v-7l2-2l-4 1l-7 3l-14 1l-6-1l-5-1l-6-1l-6-2l-3-3l-4-1l-19 3l-8 4z"/></svg>
