<?xml version="1.0" encoding="UTF-8"?>
<!DOCTYPE svg PUBLIC '-//W3C//DTD SVG 1.1//EN' 'http://www.w3.org/Graphics/SVG/1.1/DTD/svg11.dtd'>
<svg viewBox="0 0 2141.4226187803433 2777.8860625010566" xmlns="http://www.w3.org/2000/svg">
  <g data-zip="02804">
    <path d="m174.8 2396.4l0 0l-2.1 2.2l8.6 11.5l2.1 6.9l2.1 4l3.7 -0.7l9.1 2.2l1 3.5l-10.8 1.3l-1.1 4.4l3.6 9.1l14.4 4.1l6.5 -1.9l3.7 6l6.1 5.3l4.3 0.7l3.1 10l4.3 0.7l1.8 -7.1l4.6 -0.5l0.1 6.3l3.5 -0.7l1.3 -9.2l-5.9 -15l5.2 -4.1l3.5 5l4.6 -1l6 -7.3l7.7 -6.4l-3.5 -12.3l4.7 -4.5l6.7 5.7l6.3 -4.6l-1.5 -5.8l3.5 -1.3l6.5 -8.6l1.7 -6.8l-2 -5.8l-1.3 -14.1l-4.1 -3.1l-3.1 -9.9l9.4 -12.5l-16.3 -3.3l-4.1 -7.6l-0.6 -9.5l5.7 -1.5l3 -8.6l8.1 -3.6l13.1 0l5 -1.7l11.4 -0.2l-0.5 -4.9l4.9 -23l-0.2 -11.4l7.6 1.5l3.4 -2.2l1.6 -15.3l4.2 3.6l19.2 3l0 7.8l3.2 0.9l2.8 -7.8l22.1 4.1l-0.3 -13.6l2 -6.3l0.3 -4.6l-5.1 -4.1l-7.1 1.9l-7 -6.7l-7.6 -13.1l16.2 -31.7l4.3 -1.3l-14.4 -17.7l-8.3 3.9l-13.2 -0l-6.3 2.2l-4.1 9.2l-15.1 -0.9l-6.8 -1.7l1.4 -4.8l-3 -6.5l3.1 -1.7l-1.7 -9.3l-5.2 -6.8l-0.6 -8.4l-5 3.9l-21.6 20.7l-41.7 50.6l-7 7.2l-6.5 3.7l2.8 -12.5l20.2 -31.9l1.7 -6.6l-8 -1.8l-10.3 0l-20.7 -10.9l5.9 12.5l9.6 -1l0.4 4.2l-4.2 5.4l5.9 11.6l1.2 7.9l-8 8.5l-0.3 9l-8.7 10.7l-3.6 -0.2l-10.9 4.7l-1.4 -5.7l-1.2 33.6l-2.9 84.7l3.5 2.1l1.3 7.1l-4 2.8l-0.4 8.3l-3.3 6.3l1.6 8.1l6.1 2.7l-8.2 8.9l-11.5 1.4z" />
  </g>
  <g data-zip="02808">
    <path d="m244 2435.6l0 0l-5.2 4.1l5.9 15l-1.3 9.2l8.7 4.7l4.1 20.9l33 5.7l2.4 2.2l2.6 -5.2l4.1 1l7.7 -5.7l12.2 -1.3l6.9 -5.6l11.5 -1.3l3.9 3l10.6 -2.7l5.4 -8.4l5.9 -0.4l1.1 -3.9l5.7 -2.4l13.9 -0.6l2.1 3.2l-0.9 -46.9l5.5 1l2.3 6.3l2.8 -2.4l-0.5 -17.5l11.4 -10.7l0.7 -12.4l-3.6 -5.7l-7.3 -2.7l-4.4 -14.1l-4.1 -5l2.2 -11.7l9.4 -18l-0.3 -15.7l6.4 -6l-10.6 -1.1l6.4 -31.9l3.5 -5.7l-21.1 -4.6l-22.1 -4.1l-2.8 7.8l-3.2 -0.9l-0 -7.8l-19.2 -3l-4.2 -3.6l-1.6 15.3l-3.4 2.2l-7.6 -1.5l0.2 11.4l-4.9 23l0.5 4.9l-11.4 0.2l-5 1.7l-13.1 -0l-8.1 3.6l-3 8.6l-5.7 1.5l0.6 9.5l4.1 7.6l16.3 3.3l-9.4 12.5l3.1 9.9l4.1 3.1l1.3 14.1l2 5.8l-1.7 6.8l-6.5 8.6l-3.5 1.3l1.5 5.8l-6.3 4.6l-6.7 -5.7l-4.7 4.5l3.5 12.3l-7.7 6.4l-6 7.3l-4.6 1l-3.5 -5z" />
  </g>
  <g data-zip="02812">
    <path d="m502.6 2138.4l0 0l-1.3 17.8l24.3 -1.9l0.2 21.7l15.9 8.1l11.2 -4.6l-0.2 4.5l3.8 -7l10.4 2.8l11 7.7l10.6 -4l5.9 3.3l10 -2.1l11.4 15.1l5.9 -7.4l4.4 -13.5l8.1 0.2l2.9 3.2l3.4 -2.4l13.6 -16.2l3.1 -1.6l7.5 2l0.3 -4.5l9.1 2.4l1.7 3.8l7 -0.2l1.4 -2.5l0.5 -19.9l-0.6 -17.3l3.9 -13.5l-0.8 -17.8l-6.6 -10.9l-1.4 -19l-9.4 1.1l9.9 -7.5l2 -3.7l-7.8 -4.8l-6.1 -9.3l-5.6 -4.7l-9.2 -4.1l-15.2 -9.3l-11.8 -3.9l-17.1 -1.1l-17.1 6.5l-1.2 5l-2.5 27.1l-10 -3.5l-7.7 6.1l-26.2 52.8l-17.6 -15.1l-8.2 7.6l1.4 3.5l-5.7 8.2l0.4 11.4l-6.5 7.8l-2.9 -0.9l-2.7 4.2z" />
  </g>
  <g data-zip="02813">
    <path d="m384 2420.4l0 0l0.9 46.9l2.4 134.2l0 0.4l0.1 1.7l1.5 75.8l14.5 -1.3l10.3 2l13.7 1.9l31.6 -12.4l10.3 -10.4l14.4 -15.6l25.1 -7.2l131.7 -49.8l13.2 0.9l15.5 -11.8l21.5 -8.9l5.5 -20.9l5 -9.3l3.8 1.9l-4.5 5.8l6.9 -4.9l-7 -9l0.4 -2.6l8.3 -30.7l34 -129.2l1.3 -5.8l34.8 -127.4l-8.2 -9.1l-0.6 -3.9l-8.9 -2.6l-4.4 3.7l-2.8 -2.6l-9.9 -3.9l-6.1 -5.4l-2.7 0.2l-0.2 2.8l-6 -1.6l-3.8 5.9l-6.2 3.3l-6.7 11.1l-13.2 3.5l-4.4 -2l-5.3 3.5l-4.3 0.5l1 -5.1l-4.2 -5.1l-3.2 2.6l-6.6 0.9l-2.8 -7.3l-12.9 5.4l-7.5 6.4l-8.5 -4l-8.2 -6.7l-9.6 -0.6l-2.5 -8.6l-3.8 -4.7l2.5 -5l-3.5 -6.7l-11.4 -15.1l-10 2.1l-5.9 -3.3l-10.6 4l-11 -7.7l-10.4 -2.8l-3.8 7l-4.2 5.2l-0.6 13l-5.6 9.9l-1.8 14.1l-11.4 9.3l-0.5 11.9l-8.3 12.8l-3.6 2.5l0.4 5.4l-3.5 2.7l3.3 8.7l-2.3 1.3l-6.9 0.6l-10.5 5.7l1.9 -4.4l-7.9 3.9l-8.1 -0.2l-9.9 8.2l-5.1 0.2l0.2 -5.8l-2.6 2.2l-7.9 -6.8l-3.8 -6.4l-4.9 -1.2l-9.7 5.1l-7.6 1.7l-6.6 -1.5l1.3 4.2l-3.3 7l1.8 3.2l-7.5 9.9l-5.5 -3l-7.3 2.7l-6.4 6l0.3 15.7l-9.4 18l-2.2 11.7l4.1 5l4.4 14.1l7.3 2.7l3.6 5.7l-0.7 12.4l-11.4 10.7l0.5 17.5l-2.8 2.4l-2.3 -6.3l-5.5 -1z" />
  </g>
  <g data-zip="02814">
    <path d="m189.7 353.2l0 0l2.8 94.7l5.8 195.8l126.2 -3.3l11.3 0.1l38.5 -2.5l18.1 -0.2l10.8 0.2l-1.6 -5.4l14.6 -10.3l0.7 -8l-3.2 -9.5l-6.3 -9.8l4.2 -6.5l-1.8 -4.4l-0.2 -17.8l6.1 -1.6l9.2 7.1l9.4 2.1l10.5 -1.8l14 4.1l14.8 8.2l9 2.1l18.4 -3.2l8.9 -5l0.3 -3.6l13 -13.1l0.8 -7.6l9.9 2.3l10.5 12.5l5.5 -0.3l0.8 -2.2l10.9 -6.1l3.5 -11.7l10 -3.6l5.3 -4.5l-1 5.6l17.3 6.4l2 6.7l20.9 -6.1l14.2 0.5l5.8 15.7l2.7 1.5l2.1 10.8l3.6 0.5l8.1 8.3l6.3 4.2l5.1 -13l-3.4 -7.9l0.4 -5.9l-12.1 -12.9l-1.9 -7l11.6 0.3l7.8 -3.1l26.2 2.8l5.2 1.3l-0.8 -6.1l42.1 0.7l5.2 -3.6l8 9.8l6.1 -0.7l0.6 10.2l-5 8.9l2.6 1.9l12.4 -19.5l7.7 4l17.9 -7.2l1.9 0.9l0.2 3.4l-5.2 15.8l3.6 5.7l5 -9.9l9 3.6l-1.7 -8l2.5 -3.1l7 1.1l2.5 8.3l-5.2 2.7l8 2.8l1.6 -7l2.2 -0.8l-5.4 -37.7l-5.8 -38.9l9.1 -8.6l-0.1 -4.9l-7.3 -2.8l-4.7 -4.1l-21.5 -132.3l-67.7 3l-46.1 2l-30.1 -0.2l-78.5 2.6l-6.2 13l-3.2 10.6l-7.6 -0.7l-5.1 -6l-2.9 -7.3l-2.9 -8.8l-213.4 7.2l-4.2 0.5l-136 3.8z" />
  </g>
  <g data-zip="02815">
    <path d="m533.1 885.3l0 0l11.3 86.8l11.4 8.3l0.2 15.5l-1.6 18.2l-3.6 8.2l1 10.3l5 2.5l6.5 -3.5l10.8 -2l6.4 2.5l9.5 -4.5l9.6 4.5l9.7 -2.8l12.8 -5.6l15.1 -9.8l33.2 -26.5l-1.8 -6.5l5.7 -4.5l2.4 -11.5l-3.6 -0.8l-5.7 -9.7l-11 -3.2l0.9 -6l-8.4 -11.3l-0.7 -6.6l-5.5 1.8l-4.6 5.6l-4.6 1.2l-13.8 -7.8l-8.6 -2.5l-8.8 -7.4l-3.7 1.2l-9.5 -5.6l-4.2 -0.2l12.6 -1.2l8.1 -4.8l7.3 -1.6l-13.6 -13.5l-8 -1.2l-14.5 3.6l2.3 -4.1l-5.9 -7.6l-12.9 -5.8l-9.6 8.5l0 1.9l-17.5 -2.5z" />
  </g>
  <g data-zip="02818">
    <path d="m920.7 1396.5l0 0l0.2 9.2l0.3 18.9l0.5 82.5l-0.6 13.7l1.1 108.5l69.1 -2.6l34.1 -0.2l35.8 -0.1l40.7 0.2l-3 -40.4l-6 -2l-1.5 -6.6l1.6 -6.8l3.3 -2.1l0.7 -9.3l8.1 -6.7l2.4 -7.9l9.1 -2.4l23.4 -19l-2.6 -13.6l7.5 -7.7l6.6 0.9l3.3 -4.6l8.2 -4.1l2.8 -6.9l9.7 1.5l2.3 6.2l8 4.9l3.9 8.4l0.9 11.3l7.4 2.3l-0.4 -3.6l4.9 -2.1l4 -9.5l-3 -7l1.1 -6.9l9 -7.6l3.6 -7.2l-0.3 -4.5l7.3 -3.1l-0.3 -12.2l4.6 -1.4l2.9 -5.8l11.6 -6.1l9.2 -8.2l11.2 2.9l14.7 -12.9l4.6 -1.3l2.4 -0.7l11.4 -2.2l25.3 4.3l0.1 -15.6l0.7 -19.7l0 -0.7l0 -0.4l-26.3 -8.3l-17.4 -16.4l-5.3 -5l-13.4 12.6l-2.9 0.3l-22.9 2.5l-3.9 0.4l-6.1 4.5l-6.2 4.5l-5.7 -18l1.4 -8.8l12 -5.3l2.5 -1.1l-0.8 -4.7l-0.6 -3.6l-14.8 -7.3l-2 -1l0.1 -1.5l0.6 -16.6l0 -0.1l0.1 -3.2l0 -11.1l-6.6 -6.7l-2.3 0.3l-5.3 2l-3.3 -6.6l12.9 33.9l-4 6.4l-21.8 1.7l-4.8 -2l2 5.3l1.2 14.9l-0.5 9.8l-11.7 -1.4l-11 3.4l-10.3 -12.7l-0.7 11.1l-17.2 1.7l-9.3 -4.7l4.7 -13.9l-2.6 2.5l2.5 -14.9l-0.2 -28.7l-13.8 -1.4l-54.7 2.1l1.9 21.6l0.7 22.2l18 -0.4l-1.6 4.8l3 4.7l-10.2 0.9l-2.2 -2.9l-6.7 3.4l1.4 31.7l4.1 -0.1l-23.5 1.3l-17.6 3.8l-17.9 -6.5l-15.2 3.6l-26.3 0.5l-41.8 2.6z" />
  </g>
  <g data-zip="02825">
    <path d="m198.3 643.7l0 0l0.6 20.5l0.9 31.5l0 3.8l0 0.5l4 122.5l0.1 6.5l0.3 9.3l4.1 117.7l0.6 16.5l4 176l103.9 -1.4l4.8 -0.9l235 -6.1l16.6 -0.4l63.6 -1.1l-7.2 -5.9l4.4 -12.6l-3.4 -6.5l5.3 -10.9l1.3 -17.1l3.9 -5.3l-0.3 11.5l-2.5 19.2l2 10.5l4.8 16.5l11.5 -5.3l3.7 -8.5l13 -14l3.8 -6.9l14.5 -12.2l16.6 -9.6l15.6 -11.4l-5.7 -7.2l1.6 -13.3l-2.5 -7l10.3 3l7.4 -1l9.6 2.3l4.1 -17.7l-0.9 -6.9l7.5 -3.1l2.2 -4.9l-3.5 -5.8l14.8 -3.7l-5.2 -6.3l0.2 -3.6l-5.2 -8.5l0.6 -5l-2.3 -10.4l-2.3 4.3l-6.8 2.7l-5.8 -1.2l-1.8 14.3l-1.4 2.1l-2.8 -13l-3.4 -6l0.4 -5.8l-5.1 -5.3l-5.9 3.3l-4.7 9.5l-3 3l-13.1 7l-2.6 -7.6l-5.1 -3.9l-5 1.5l-2.7 -3.4l-6.3 0.3l-5.1 3.5l-5.7 4.5l1.8 6.5l-33.2 26.5l-15.1 9.8l-12.8 5.6l-9.7 2.8l-9.6 -4.5l-9.5 4.5l-6.4 -2.5l-10.8 2l-6.5 3.5l-5 -2.5l-1 -10.3l3.6 -8.2l1.6 -18.2l-0.2 -15.5l-11.4 -8.3l-11.3 -86.8l-16.2 -121.2l-0.5 -6.6l-15.8 8.4l-24 3.9l-3.8 -0.6l2.3 -8.2l0.7 -14.1l-22.7 -8.3l-1.5 5.9l-10.7 -4.8l-5.8 -5.4l-13.7 -6.7l-9.3 -11.4l-3.9 -0.9l0.3 -5.3l-4.9 -2.1l6.4 -21.4l4.2 -8.1l1.9 -10l-5.1 -8.2l0.8 -7.6l-6.1 -8.5l-7.4 -5.7l-5.9 -0.7l-18.1 0.2l-38.5 2.5l-11.3 -0.1l-126.2 3.3z" />
  </g>
  <g data-zip="02827">
    <path d="m212.9 1148.4l0 0l0 1.8l3.3 113.7l4.5 154.2l135.8 -5.1l6.1 -0.9l30.2 -0.3l-12.2 -0.8l-6.9 -2.4l-10.3 0.9l-5.1 -2.5l4.3 -9l-2.5 -9.7l2 -9.1l-4.5 -6.2l-1.5 -9.1l-6.9 -15.1l-1.4 -12.4l48 1.9l21.2 -9.2l-7.7 -5.6l-2.6 -4.7l-6.7 -4.8l-5.7 0.5l8 -9.5l11.4 -6.4l7.4 0.3l1.2 -5.8l11.3 -6.2l10.1 -1.5l35.8 -2.9l8.8 10.2l1.1 26l4.1 1.2l11.2 -11.4l26.7 -9.9l2.2 4.7l-5 2.6l6.3 12.1l-0.2 -8.6l-3.5 -4.4l7.6 -1.7l1 -3.8l7.6 -6.9l1.5 -10.9l-23.5 -0.1l-3.3 -15.1l4.3 -5.9l9.9 -7.8l2.5 -6.2l-5.4 -5.1l-2.7 -11.5l-8 -1.6l4.7 -4.4l0.8 -9.1l5.4 0.6l6 -6.5l8 -4.9l1.1 -8.9l5.4 -8.5l3.2 -0.6l7 -13.4l12.7 -0.9l-13.1 -3.5l1.3 -4l-3.4 -3.5l-5.4 -13.3l0.1 -7.7l-235 6.1l-4.8 0.9l-103.9 1.4z" />
  </g>
  <g data-zip="02828">
    <path d="m818.1 486.2l0 0l5.8 38.9l5.4 37.7l-2.2 0.8l-1.6 7l1.8 5.7l-3.8 18.1l10.3 -2.9l1.2 16.7l4.2 18.6l3 -0.2l31.2 -5.4l56.5 -10l1.6 1.6l20.2 -5.3l8.1 0.2l5.1 -2.4l0.7 -14.5l1.4 -8.6l-0.2 -2.1l-1.5 -7.2l4.3 -1.5l11.3 -3.3l-1.8 -10.2l-12.3 3.6l-4 6.6l-11.5 -11.5l-6.8 -4l-7.7 1.1l-1.3 -5.4l3 -8.9l-1.1 -12.7l-1.1 5.3l-6.2 4.3l-8.6 1l0.5 4l-11.1 11.9l4.2 -9.3l-1.2 -4.2l-6.4 -5.2l0.2 -14.3l-6.5 -2l0.8 -3.5l13.7 4l-0.7 9.6l8.4 0.3l7.7 -2.9l-2.5 -5.5l7.1 3l-1.1 -9.9l-8.2 -7.1l-17 -1.6l-5.4 -7.4l1.5 -4.9l-2.3 -4.7l-16 -16.7l-2.9 -7.7l-9 3.9l-5.1 -4.9l-6.1 2.1l-5 -2.6l-10.2 6.5l-1.4 7.6l-10.6 1.9l-3.6 3.1l1 6.2l-3.7 -7.4l-2 -5.2l-1.3 -1.5l0.1 4.9l-9.1 8.6z" />
  </g>
  <g data-zip="02830">
    <path d="m404.6 45.5l0 0l5.1 15.2l13.9 -6.6l-1.5 -3.9l7.4 7.3l19.5 38.6l2.8 0.6l7.6 9.5l12.1 -11.9l3.3 4.6l0.6 5.9l-7.3 4.2l-2 5.1l-5.7 4.7l12.5 24.8l9.5 34.5l-1.7 3.6l1.5 15l-6.7 3.3l8.6 7.2l5.5 -0.2l3.9 3.8l10.5 -8l2.9 7.4l5.6 6.7l0.4 7.5l4.8 1l13.3 -3.9l0.3 10.3l-15.6 7.5l-1.1 5.7l1.3 24.9l5.7 8.7l11.6 2.3l8.1 10.9l9.7 2.8l30.6 -27.7l-4.8 -40.4l3.3 3.1l8.6 8.2l3.3 -1.5l7 1.4l12.9 11.3l3.9 -10.8l3.5 -8.8l-8 -9.7l-9.9 3l-7.8 -3.1l-4.7 -9.7l-7 -0.2l5.7 -3.7l5.1 0.7l-0.5 -14.2l10 -0.4l0.4 10.9l16.9 3.5l3.7 9.2l4.2 -8.4l-14.7 -13.5l11.5 -11.5l3.1 10.9l1.5 6.9l5.5 7.1l8.1 -11.1l-1.9 -8.3l3.8 6.2l13.5 -13.5l13.3 -6.4l-0.8 -1.3l-1.7 -0.3l-6.2 -7.8l-13.3 -5.5l-16.1 -14l-5.5 -2.1l-16.1 7.9l-7.1 1l-16.6 -3.2l-6.5 8.4l-8.7 2l0 -0.2l6.8 -1.9l8.7 -15.5l17.4 -17.5l-6 -20.9l7 -2.4l13.5 2.5l20.3 9.5l9.6 -4.5l5.1 4.6l8.3 16.3l6.1 -1.7l8.2 -5.4l4 4.3l7.1 -2.3l2.6 3.7l-3.6 1.7l-10.1 31.5l-5.7 12.8l14.9 -6.4l12.5 -12.5l3.8 -0.6l1.6 5.6l-5.1 3.9l15 -1.3l6.4 -2.3l8.2 11l7.4 5.5l-58.1 17.6l2.2 23.3l1 24.1l6.8 4.7l1.2 13.5l0.1 3.9l17.6 7.3l4.5 -0l2.9 -2.9l14 -4.7l16.2 -2.2l6.5 6.1l-7.6 3.4l-9.6 10.3l-4.8 7.1l-5 15.7l3 4.1l-1.4 16.2l-2.8 2.3l0.2 7.4l1.9 2.6l67.7 -3l-6.2 -42.4l-10.8 -72.1l-1.4 -8.1l-0.8 -4.5l-0.7 -4.3l-3.9 -24.9l0.6 -0.2l-0.4 -3.3l-0.7 0.2l-1.8 -11.7l1.5 -0.4l-0.6 -4.1l-1.6 0.3l-1.1 -7.2l1.5 -1.4l-3.6 -12.7l-2.2 -13.2l-0.1 -0.8l-4.3 -27.7l-7 -45.8l-4.2 -28.2l-216 6.7l-106.1 3.3l-6.1 10.1l-13 4.3z" />
  </g>
  <g data-zip="02831">
    <path d="m579 890.8l0 0l-2.3 4.1l14.5 -3.6l8 1.2l13.6 13.5l-7.3 1.6l-8.1 4.8l-12.6 1.2l4.2 0.2l9.5 5.6l3.7 -1.2l8.8 7.4l8.6 2.5l13.8 7.8l4.6 -1.2l4.6 -5.6l5.5 -1.8l0.7 6.6l8.4 11.3l-0.9 6l11 3.2l5.7 9.7l3.6 0.8l-2.4 11.5l5.1 -3.5l6.3 -0.3l2.7 3.4l5 -1.5l5.1 3.9l2.6 7.6l13.1 -7l3 -3l4.7 -9.5l5.9 -3.3l5.1 5.3l-0.4 5.8l3.4 6l2.8 13l1.4 -2.1l1.8 -14.3l5.8 1.2l6.8 -2.7l2.3 -4.3l2.3 10.4l-0.6 5l5.2 8.5l-0.2 3.6l5.2 6.3l-14.8 3.7l3.5 5.8l-2.2 4.9l-7.5 3.1l0.9 6.9l-4.1 17.7l-9.6 -2.3l-7.4 1l-10.3 -3l2.5 7l-1.6 13.3l5.7 7.2l-15.6 11.4l-16.6 9.6l-14.5 12.2l-3.8 6.9l-13 14l-3.7 8.5l-11.5 5.3l-4.8 -16.5l-2 -10.5l2.5 -19.2l0.3 -11.5l-3.9 5.3l-1.3 17.1l-5.3 10.9l3.4 6.5l-4.4 12.6l7.2 5.9l19.2 -0.4l17 -1l11.9 0.6l1 5.8l-1.9 4.7l5.2 3.8l7.6 -0.1l2 -0.8l0.7 -2.2l-3.1 -2.9l-3.3 -8.4l1.9 -1.2l17.7 -0.5l2.3 3.5l10 -2.1l13.2 1.1l6.9 3.7l10.3 0l4.9 -3.6l10.4 -4.3l3.1 -0.6l9.8 0.2l50.3 -1.6l78.1 -2.5l0.5 -0.8l6.3 -4.2l2.3 1.4l3.2 3.2l20.7 -0.3l3.7 -13l4.5 -5.6l-2 -6.1l2.6 -3.5l2.1 -11.3l-10.6 -1.4l-7.7 -12l-2.6 -18.6l-17.8 10.1l-7.3 4.1l-12.1 -80l15 -1.6l12.8 -3.3l13.7 -9.1l11.2 -9.4l-54.1 -32.7l-7.5 0.5l5.5 30.7l-12.2 -2.5l-18.2 -14.7l-5.5 -8.8l-5 -3.5l-3.2 9.3l-10.8 6.3l-6.8 9.1l-0.7 8.6l4.9 2.8l0.9 9.8l9.2 -0.7l3.3 1.8l1.3 6.9l-12.5 3l0.6 7.7l-4.9 -0.3l-4.8 10.6l-0.2 7.5l-7.7 8.3l-22.8 18.5l-2.4 1.1l-2.3 -15.9l-12.8 -34.1l-22.8 -53.9l-0.6 -4.2l2.7 -41.6l-8.4 0.6l-0 7.2l-6.2 5l4.7 7.1l-1.9 11.4l-2.8 2.1l-8.7 -2.9l-7.8 15.1l-5.9 -2.1l-3.7 -8.6l1.9 -6.1l-9.8 -15.8l-4 3.4l0.8 10.5l-5.4 -2.2l-2.2 2.5l0.4 6.3l3.9 8l-1 10.7l-5.7 7.8l-9.6 -9.3l2.6 -7.4l-3.8 -2.7l-10.1 0.1l2 -8.7l-5.1 4.7l-11.4 -6.3l1.2 -5.6l-5.9 -4.7l-1.5 -12.4l-6.5 2.4l-5.4 -13.2l-11.5 -10.4l-5.2 0.4l-10.7 -4.4l-25.1 -1.3l-14 11.7z" />
  </g>
  <g data-zip="02832">
    <path d="m266.3 1837.5l0 0l13.7 19.9l-5 6l-7.2 4.2l6.1 5.4l6.2 9.9l2.6 8.5l8.9 6.7l7.5 14.8l5.4 2.8l0.7 7.7l6.1 8.4l13 -1.3l0.8 4.1l-2.2 6.2l-26.3 4.3l-1.1 5.7l-8 16.7l1.9 15.4l-5.3 8.6l2.1 10.3l11.5 1l6.1 6.7l13.6 4.2l3.2 7.8l4.6 4.1l-4.6 11.6l4.9 14l1.4 8.8l-12.2 3l-3.7 4.8l-7.9 -1.3l-4.3 8.8l0.9 4l6.3 7.1l-7.3 -0.1l-7.5 8.1l-2.8 6.8l-4.3 20l6.1 2.9l4.4 8.5l5.5 1.4l3.9 6l-4.9 4.4l5 -3.9l0.6 8.4l5.2 6.8l1.7 9.3l-3.1 1.7l3 6.5l-1.4 4.8l6.8 1.7l15.1 0.9l4.1 -9.2l6.3 -2.2l13.2 0l8.3 -3.9l14.4 17.7l-4.3 1.3l-16.2 31.7l7.6 13.1l7 6.7l7.1 -1.9l5.1 4.1l-0.3 4.6l8.4 0.1l-0 -9.1l2.7 -4.1l11.3 5.1l2.4 9.3l-2 15.6l-2.1 5.6l4.4 1.2l2.4 -12.1l6.9 -7.7l5.5 -11.8l2.5 9.2l-3.1 -20.1l4.2 -7.4l4 -0.9l0.7 -9.5l6.7 -2.7l-2.8 -14.1l1.4 -7.7l-2.1 1.2l-7.1 -4.7l-8.3 1.2l11.5 -4.6l8.3 2.4l35.6 2.4l-0.8 -7.5l14.8 -8l7.7 -7.3l3.7 -0.4l1.3 -17.8l2.7 -4.2l2.6 -7.8l-5.9 -7.3l-9.9 -3.1l-2.6 -4.8l-18 -17.2l-10.2 -0.4l-10.2 -5l-2.6 -10l-7 -36.1l-5.7 -5l26.9 -23.5l-8.4 6.8l-2 -4.8l-5.4 -4.9l-7.3 -3.8l1.8 -4l-3.5 -7.9l5.2 -4.7l3.3 1l4.2 -3.1l1.2 -6.3l5.9 -3.7l3 -7.6l-2.2 -4.3l4.2 -3.6l4 -0.7l31.9 -23.7l4.5 1l8.2 -8.1l1.3 -22.5l2.4 -0.8l-2.1 -7.4l3 -40.5l7.5 -1.6l9.1 1l6.2 -3l3.6 1.2l5.8 -20.8l11.5 -24.7l2.8 -9.7l5.4 -7.2l-82.4 11.5l-2.2 -3.4l-1.1 4l-136.9 19.2l-20.2 0.1l-58.6 10.6z" />
  </g>
  <g data-zip="02840">
    <path d="m1638.2 1929.9l0 0l-1.1 12.9l4.5 1.1l1.7 -6.3l1.8 -6.7l-6.9 -1z" />
    <path d="m1555.2 2055.6l0 0l-0.5 20.2l1.4 6.4l2.1 9.7l2 -1.5l2.1 -1.6l3 -14.8l-0.1 -1.1l-0 -0.5l-0.7 -7.9l-3.7 -11.8l-0 -0.2l-3.1 1.7l-2.3 1.3z" />
    <path d="m1513.6 2036.3l0 0l0 9.2l13 0l0 -4.9l-3.2 -10.3l-4.3 -6.5l-5.4 12.5z" />
    <path d="m1460 2162.5l0 0l-5.2 16.3l10.6 3.2l2.9 10.8l7.6 29.9l14.4 -5.7l20.2 -12.5l13 5.6l5.8 14.3l8.5 -2.4l9.9 -11.6l14.5 3.5l12.2 -13.1l-2.8 -3.3l-5.5 0l0.4 -4.5l3.8 -4l5.1 2.5l1.7 4.1l5.1 3.6l4 0.6l0.7 0.9l2.2 3l0.8 1.1l11 -7.1l0.7 -0.5l4.4 5l0.4 0.5l-4.4 11.9l3.8 2.3l20.4 -14.4l0.4 -1.8l3.8 -16.5l0.5 -2.1l-3.2 -13.1l10 -16l9 -3.6l4.2 -1.7l-4.4 -18.9l2.6 -24.8l0.9 -19.1l15.2 -11.1l15.1 -3.4l-46.8 -68.6l-13.7 -25.6l-15.2 -33.3l-15.6 18.6l-5.2 11.2l-0.2 15.4l-4.3 -4.3l-5.5 3.3l-1.5 11l-1.5 4.8l2.7 9l5.5 -0.7l0 5.7l1.5 -0.1l0.6 7.1l-6.7 0.7l-2.8 3l0.6 31.3l0 1.1l3.5 8.5l1.3 3.2l9 1.4l1.1 9.3l0.5 4.8l1 8.8l0.9 7.6l1 9.1l-20.4 6.7l-31.9 21.1l-4.4 2.9l-1.1 -8.1l5.8 -25.1l-6 -14.7l-11 16.2l-2.4 3.5l-2.4 3.5l-17.4 19.9l-14.4 6.4l-25.5 17.2z" />
  </g>
  <g data-zip="02841">
    <path d="m1549.4 1954.3l0 0l0.9 0.5l2.6 1.4l8.8 4.9l-2.8 8.1l-2.3 1.6l-5.3 3.5l-1.5 21.5l8.4 13.4l6.9 2.3l6.8 2.3l0.3 14l2.8 -3l6.7 -0.7l-0.6 -7.1l-1.5 0.1l-0 -5.7l-5.5 0.7l-2.7 -9l1.5 -4.8l1.5 -11l5.5 -3.3l4.3 4.3l0.2 -15.4l5.2 -11.2l15.6 -18.6l-0.2 -3.5l-1.2 0.5l-9.3 8l-14.4 2l-0.6 -1l-7.9 -14.1l-11 4.9l-1.3 1.8l-9.6 12.8z" />
  </g>
  <g data-zip="02842">
    <path d="m1583 1909.4l0 0l-0.6 0.8l4 9.5l0.4 1l0.4 1l16.6 18l-0.4 0.3l1.2 -0.5l0.2 3.5l15.2 33.3l13.7 25.6l46.8 68.6l0.1 -0l1.6 0.3l8.5 1.6l16.4 30.9l3.8 0.4l2.6 0.3l16.3 -16.2l3.6 -16.3l8.3 -2.7l20.6 5l14.6 6.7l19.5 17.9l-5.5 32.2l5.3 4.9l15.5 -12.2l3.6 -20.1l6.5 1.9l1.5 -14.8l-1.2 -12.4l-14.1 4.7l-11.9 -5.8l-3.8 -13.2l2.2 -15.7l17.3 -28.9l0 -15l21.2 -33.1l1.1 -2.8l-7.2 -6.3l-37.3 -32.2l-26 -29l-13.8 -11.9l-11.1 -11.3l-42.8 -34.8l-29.6 -28.7l-14.3 -15.5l-16.4 -15.9l-7.2 9.9l-5.5 13.9l-0.3 0.8l-7.1 17.9l-7.1 18l-1.1 7.2l-0.6 3.9l8.9 4.3l0 10.7l0 3.2l-13.4 11.1l-3.9 5.2l-14.9 19.9l-0.4 0.5z" />
  </g>
  <g data-zip="02857">
    <path d="m392.4 637.7l0 0l5.9 0.7l7.4 5.7l6.1 8.5l-0.8 7.6l5.1 8.2l-1.9 10l-4.2 8.1l-6.4 21.4l4.9 2.1l-0.3 5.3l3.9 0.9l9.3 11.4l13.7 6.7l5.8 5.4l10.7 4.8l1.5 -5.9l22.7 8.3l-0.7 14.1l-2.3 8.2l3.8 0.6l24 -3.9l15.8 -8.4l0.5 6.6l16.2 121.2l17.5 2.5l-0 -1.9l9.6 -8.5l12.9 5.8l5.9 7.6l14 -11.7l25.1 1.3l10.7 4.4l5.2 -0.4l11.5 10.4l5.4 13.2l6.5 -2.4l1.5 12.4l5.9 4.7l-1.2 5.6l11.4 6.3l5.1 -4.7l-2 8.7l10.1 -0.1l3.8 2.7l-2.6 7.4l9.6 9.3l5.7 -7.8l1 -10.7l-3.9 -8l-0.4 -6.3l2.2 -2.5l5.4 2.2l-0.8 -10.5l4 -3.4l9.8 15.8l-1.9 6.1l3.7 8.6l5.9 2.1l7.8 -15.1l8.7 2.9l2.8 -2.1l1.9 -11.4l-4.7 -7.1l6.2 -5l0 -7.2l8.4 -0.6l-2.7 41.6l0.6 4.2l22.8 53.9l12.8 34.1l2.3 15.9l2.4 -1.1l22.8 -18.5l7.7 -8.3l0.2 -7.5l4.8 -10.6l4.9 0.3l-0.6 -7.7l12.5 -3l-1.3 -6.9l-3.3 -1.8l-9.2 0.7l-0.9 -9.8l-4.9 -2.8l0.7 -8.6l6.8 -9.1l10.8 -6.3l3.2 -9.3l5 3.5l5.5 8.8l18.2 14.7l12.2 2.5l-5.5 -30.7l-4.8 -38.4l-1.5 -2.2l-10.2 -59.9l-6 -38l-8.3 -53l-3.1 -21.5l-1.8 -4.2l-0.7 -10l-1.5 -3.6l-7.6 -54.4l-2.5 -2.4l0.9 -7.7l-1 -6.3l-1.5 -8.1l-4.2 -18.6l-1.2 -16.7l-10.3 2.9l3.8 -18.1l-1.8 -5.7l-8 -2.8l5.2 -2.7l-2.5 -8.3l-7 -1.1l-2.5 3.1l1.7 8l-9 -3.6l-5 9.9l-3.6 -5.7l5.2 -15.8l-0.2 -3.4l-1.9 -0.9l-17.9 7.2l-7.7 -4l-12.4 19.5l-2.6 -1.9l5 -8.9l-0.6 -10.2l-6.1 0.7l-8 -9.8l-5.2 3.6l-42.1 -0.7l0.8 6.1l-5.2 -1.3l-26.2 -2.8l-7.8 3.1l-11.6 -0.3l1.9 7l12.1 12.9l-0.4 5.9l3.4 7.9l-5.1 13l-6.3 -4.2l-8.1 -8.3l-3.6 -0.5l-2.1 -10.8l-2.7 -1.5l-5.8 -15.7l-14.2 -0.5l-20.9 6.1l-2 -6.7l-17.3 -6.4l1 -5.6l-5.3 4.5l-10 3.6l-3.5 11.7l-10.9 6.1l-0.8 2.2l-5.5 0.3l-10.5 -12.5l-9.9 -2.3l-0.8 7.6l-13 13.1l-0.3 3.6l-8.9 5l-18.4 3.2l-9 -2.1l-14.8 -8.2l-14 -4.1l-10.5 1.8l-9.4 -2.1l-9.2 -7.1l-6.1 1.6l0.2 17.8l1.8 4.4l-4.2 6.5l6.3 9.8l3.2 9.5l-0.7 8l-14.6 10.3l1.6 5.4l-10.8 -0.2z" />
  </g>
  <g data-zip="02859">
    <path d="m185 42.1l0 0l3.8 284.7l0.4 11.9l0.4 14.6l136 -3.8l4.2 -0.5l213.4 -7.2l2.9 8.8l2.9 7.3l5.1 6l7.6 0.7l3.2 -10.6l6.2 -13l-23.4 0.5l4.2 -12.6l0.6 -20.1l-1.4 -14.6l-9.7 -2.8l-8.1 -10.9l-11.6 -2.3l-5.7 -8.7l-1.3 -24.9l1.1 -5.7l15.6 -7.5l-0.3 -10.3l-13.3 3.9l-4.8 -1l-0.4 -7.5l-5.6 -6.7l-2.9 -7.4l-10.5 8l-3.9 -3.8l-5.5 0.2l-8.6 -7.2l6.7 -3.3l-1.5 -15l1.7 -3.6l-9.5 -34.5l-12.5 -24.8l5.7 -4.7l2 -5.1l7.3 -4.2l-0.6 -5.9l-3.3 -4.6l-12.1 11.9l-7.6 -9.5l-2.8 -0.6l-19.5 -38.6l-7.4 -7.3l1.5 3.9l-13.9 6.6l-5.1 -15.2l13 -4.3l6.1 -10.1l-141.9 4.4l-96.8 6.6z" />
  </g>
  <g data-zip="02860">
    <path d="m1284.1 548.7l0 0l0.6 17.8l5.3 16.9l6.9 40.6l17.8 2.3l5.2 9.2l29.6 -1.3l19.1 -1.4l4.8 1.8l1 1.8l9.6 -2.9l11.3 0.3l25.3 -2.2l1.4 1.2l6.4 25.8l0.3 28.2l-1.8 13.6l-0.1 2.4l0.8 0.6l5.8 -21.9l2.4 5.4l5.4 1.9l6.6 -28.6l4.9 -9.6l1 -14.7l-6.3 -7.7l6 -0.8l-3.8 -88.9l-1.5 -5.4l-8.1 -19.3l-14.9 -25.8l-4.1 -0.2l-4.9 0.9l-14.4 3l-0.8 6.8l-3.8 6.4l2.9 5.9l5.4 1.7l-1.9 5.5l-0.3 11.4l-12.5 0.4l-11.4 3l-9.5 -0l-32.8 6.6l-23 2l-1.7 2.7l-28.3 4.5z" />
  </g>
  <g data-zip="02861">
    <path d="m1424.2 487.2l0 0l-3.2 0.6l4.1 0.2l14.9 25.8l8.1 19.3l1.5 5.4l3.8 88.9l60.5 -8.4l24.7 -2.2l1.4 -4.1l-19.8 -75.5l4.4 -46.2l0 -0.8l1.7 -18.8l-0.2 0l-40.6 6.6l-5.8 0.8l-1 0.2l-0.1 -0.8l-0.4 -2.2l-1.5 0.3l0.4 2.1l0.1 0.8l-20.2 3.1l-6.4 0.8l-2 0.4l-16.3 2.7l-8.2 0.8z" />
  </g>
  <g data-zip="02863">
    <path d="m1326.7 498.1l0 0l2.9 15.2l7.5 26.2l32.8 -6.6l9.5 0l11.4 -3l12.5 -0.4l0.3 -11.4l1.9 -5.5l-5.4 -1.7l-2.9 -5.9l3.8 -6.4l0.8 -6.8l-0.5 0.1l0 -2.2l0 -13l-13.5 -10.1l-5.6 -0.7l-17.6 8.4l-30.3 11.2l-7.5 12.3z" />
  </g>
  <g data-zip="02864">
    <path d="m1093.5 155.7l0 0l6.5 4.4l4.8 -0.7l14.1 3.9l13.2 17.7l20 11.1l6.9 2.7l1.5 3.9l-1.8 8.2l8.1 21.3l-0.2 11.8l20.5 7.8l10.7 12.4l1 8.2l8.1 5.4l3.3 -0.7l14 6.7l5 11l3.2 3.2l12.6 14.7l4 7.1l2.9 -2l6.5 12l11.1 30.6l-11.7 3.4l4 8.7l3.6 4.8l8.8 4.2l10.5 1.2l6.6 5.9l3 7.1l27.6 19.4l5.1 7.9l8.6 3.8l14.7 -4.8l5.7 3.6l-8.2 22.2l0.7 6.3l-2.4 7.6l6.6 6.5l10.5 6.5l1.4 3.8l17.6 -8.4l5.6 0.7l13.5 10.1l0 -69.5l0 -30.9l0.3 -0.8l0.6 -164.1l-0.3 -7.4l0.1 -62.7l0 -9.3l0.2 -132.1l-63 1.1l-28.3 0.5l-33.8 0.6l-0.1 0l-66.3 1.2l-0 0l-31.8 0.6l-0 0l-0.3 1.1l-1.5 13.8l-3.4 25l-17.3 24.1l-4.3 6l-15.8 22l-42.6 59.5z" />
  </g>
  <g data-zip="02871">
    <path d="m1674.1 1459l0 0l-0.4 10.2l8.2 10l-1.6 9.2l1.6 4.5l4.5 -3.7l19.6 -0.9l14.3 3.8l-1.6 -5.7l-10.6 -7.8l-0.8 -12.2l-4.5 -14.3l-9.9 -3.5l-14.3 2.5l-4.5 7.8z" />
    <path d="m1648.9 1764.6l0 0l-13.2 18.1l16.4 15.9l14.3 15.5l29.6 28.7l42.8 34.8l11.1 11.3l13.8 11.9l26 29l37.3 32.2l7.2 6.3l10.6 -26.4l4.2 -26.3l-2.8 -7.8l-17 -8.7l-5.4 -12.9l5.1 -22.7l-4.8 -12.5l4.8 -16.6l3 -10.9l0.4 -1.5l-0.5 -5.6l-9.2 -4.1l-2 -9l-1.4 -6.2l0.5 -2.2l5.1 -22l0.1 -6.9l0.3 -31.2l3.6 -6.9l-8.5 -4.1l-16.9 -38.6l1.3 -14.6l1.5 -16.8l0 -0.3l3.2 -35.1l0.8 -4.9l0.6 -4.1l1 -47.8l12.1 -7.5l38.8 -6.2l10.4 -4.2l8.3 -5.3l0.2 -1.2l8.3 -53.1l-7.7 0l-1.4 -14.5l-0.7 -13.2l-5.5 -29.1l-3.3 -7.4l-5.7 5.3l-4.2 13.8l-0.2 0.5l-1.5 4.3l-0.7 2l-2.5 7l-20.1 14.5l-0.2 0.8l-2.6 11.4l-9.6 7.2l-17.3 0l-0.2 -0.1l-7.8 -3.9l-3.1 -1.6l-6.1 1.8l-7.9 2.3l-22.7 21.6l-6.2 22.8l-10.8 8.1l-0.3 0.2l-4 1l-3.3 0.8l-13.2 3.2l-9.8 17.7l0.5 1.1l7.7 16.1l-3 31.4l-21 55.1l-13.4 1.9l-1.1 2.8l-0.5 1.7l-0.7 2.5l-4 13.8l-4.8 16.8l9.7 -0.3l0.5 1.2l4.4 11.9l-3.1 8.8l-8.4 13.3l-1.1 1.7l-17.4 7.2l-6.3 15.6l-0.5 1.1z" />
    <path d="m1634.8 1692.4l0 0l0.8 10.2l1.2 9.4l4.9 3.3l5.7 0l-1.6 -7.8l-0.8 -5.3l-1.6 -7l-8.6 -2.9z" />
  </g>
  <g data-zip="02878">
    <path d="m1870.4 1784.7l0 0l0 10.4l18 6.2l2.8 9l-6.9 8.3l0.7 25.6l6 3.3l3.9 1.8l42.2 -13.1l3 0.1l13.3 -4.8l56.2 -12.5l48.8 -16l66.2 -18.9l11.5 -2.5l5.5 -0.5l-10.9 -114.6l-0.9 -6.3l-14.6 -28.8l-2.5 -4.9l-3.1 -3.4l-5.9 -6.5l-0.8 -7.8l-0.1 -1.2l-1.7 -33.8l3 -30.5l13.9 -17.6l3.5 -49.9l0 -0.2l5.3 -68.1l-0.6 -5.3l-5.2 -1.6l-1.5 0l-31.1 -8.9l-23.6 -5.1l-3.2 -0.8l-54.4 -13.2l-6.7 -1.6l0 -1.6l0.3 -11.3l-15.4 -4.3l-28.8 -7l-0 0.3l-9.4 -2.3l-3.6 -1.1l-2.2 5.3l-21.2 50.3l-12.6 30l-8.3 42.2l-2.8 12.5l-6.1 0l-8.3 53.1l-0.2 1.2l1.9 -1.2l12.1 9.7l-0.8 12.1l-0.4 6.2l-0.7 32l14.2 36.7l9.7 8.7l2.1 9l-4.8 6.9l-11.1 1.4l-0.7 13.2l-15.2 18l0.7 9l17.7 9.7l-0.9 39.5l-4.5 31.1l-7.5 0.4l1 9.3l-1.5 2.2l-3.7 0l-0.7 -6.6l-2 -4.5l-10.4 0.6l-5.5 2.8z" />
  </g>
  <g data-zip="02879">
    <path d="m985.9 2149.6l0 0l0.5 3.6l6.5 -1.8l3.1 2.1l1.2 -0.9l-1.1 -2.7l-10.2 -0.3z" />
    <path d="m690.8 2566.7l0 0l4.3 -1.8l22.3 -6.9l29.2 -3.7l24.6 -4.4l9.6 -0.4l25.2 -11.4l100.6 -24.6l18.3 1.5l12.8 4l10.7 -1.2l5.4 -6.3l11.1 -5.9l14.9 -1.7l18.3 1.5l19.7 5l0.3 0l0.4 -7.2l8 -11.6l-3.8 -3.4l-10.8 8.3l-5.4 -12.9l8.1 -10.8l28.2 -87.8l4.7 -39.2l17.8 0.4l6.7 -38.1l5.8 -3.9l3 -5.7l13.9 -2.9l5.6 -4l-12.9 -1.4l5.2 -1l10.2 -7.8l1 -3.9l26.3 -14.5l6.2 -4.4l24.5 -13.7l27.1 -26.3l9.8 -11.1l2.2 -18.5l-0.8 -14.4l3.5 -16.9l4.4 -10.8l-3.5 -14.3l2.2 -5.3l1.8 -20.2l2.6 -8.9l-1.2 -22.1l2.2 -5.5l-0.9 0.3l-6.3 0l-0.4 -0.3l-1.9 -7l-9.8 -6.4l-8.5 -11.5l-55.3 9.5l-21.3 3.1l-14.4 3.2l-4.8 -3.9l0.2 4.2l-19 1l-4.7 -7.7l-8.9 -1.7l-6.6 4l1 -5.1l-6.5 -1.2l-28.6 -9.1l7.1 11.5l-5.3 15.6l11 13.5l0.8 13.2l20.9 -3.4l6.8 -2.5l6.6 18.8l10.2 42.7l-42.9 -8.8l-4.2 0.8l-0.8 0.9l-0.5 -0.7l-5.6 1.1l-2 -3.2l-3.9 -6.3l-13.2 1.1l-2.8 7.7l6.4 11.8l-4.3 7.8l-6.6 -7.9l-12.3 2.8l-6.1 -0.1l0.2 -9.1l-9.5 0.8l-0.2 4.3l-15.4 1.3l-5.9 6.4l-22.4 6l-0.2 -1.1l-4.1 7.4l-17.5 -5.6l1 -29.6l-2.3 -8.5l1 -5.4l-2.9 -3l-5.4 1.6l-8.1 -2.3l-14 3.1l-8.2 3.3l-0.5 6.3l-3.2 11.8l4.9 8.8l4.5 2.3l4.5 11l-1.8 4.1l2.9 7.5l-1.5 2.9l1.1 10l8.2 12.7l3 2.3l-1.5 3.8l1.4 7.6l6.7 1.2l-4.5 17.5l-4.1 6.9l-3.4 12.7l-6.1 -1.3l-5 5l7.2 7.6l-0.1 13.7l-4.8 12.1l-7.1 4.7l-3.6 -0.4l-65.4 -47.9l-2.7 -7.7l-5.5 -3.2l-3.9 -6l-34.8 127.4l-1.3 5.8l-34 129.2l-8.3 30.7l-0.4 2.6l7 9l-6.9 4.9l4.5 -5.8l-3.8 -1.9l-5 9.3l-5.5 20.9z" />
  </g>
  <g data-zip="02881">
    <path d="m910.7 2095.2l0 0l11.2 1.2l8.1 -3.5l9.1 0l11.5 2.1l-9.4 15.9l-2.1 9.4l-10 14.2l-4.5 9.9l-6.9 5.3l2.3 4.1l-5.6 0.4l5.1 10.1l0.6 2.8l0.2 1.1l22.4 -6l5.9 -6.4l15.4 -1.3l0.2 -4.3l9.5 -0.8l-0.2 9.1l6.1 0.1l12.3 -2.8l6.6 7.9l4.3 -7.8l-6.4 -11.8l2.8 -7.7l13.2 -1.1l3.9 6.3l2 3.2l5.6 -1.1l0.5 0.7l0.8 -0.9l4.2 -0.8l42.9 8.8l-10.2 -42.7l-6.6 -18.8l-6.8 2.5l-20.9 3.4l-0.8 -13.2l-11 -13.5l5.3 -15.6l-7.1 -11.5l0.6 -5.6l-4.9 -4.7l-6.7 24.9l-21.2 -3.5l-6.1 -5.3l-21.8 -4.8l-4.9 24.9l-15 -1.5l-10 13.4l-13.6 14.9z" />
  </g>
  <g data-zip="02882">
    <path d="m1006.2 2483.7l0 0l5.4 12.9l10.8 -8.3l3.8 3.4l-8 11.6l-0.4 7.2l30.2 4l16.5 11.2l6.9 11.8l17.3 15.2l-0.8 7.7l4.4 3.4l8.8 0.2l11 4.6l1.3 -8.4l-7.3 -13.6l-3.7 -22.9l27 -55.4l17.3 -29.2l4.9 -5.2l10.4 -3.1l3.6 -9.6l0.6 -11.9l9 -7.2l8.8 -7.8l2.4 -11l7 -6.7l1 -19.7l-0 -11.7l-6.3 -15.7l-0.1 -2.1l-1.5 -22l1.1 -9l-0.2 -0.6l-2.3 -9.7l20.1 -21.3l17.9 -11.3l1.6 6.5l4.7 5.3l6.6 -4.7l0.3 -4.1l0.3 -3.9l13.2 -13l7.2 -9l-2.8 -8.1l5.3 -14.2l9.9 -4.2l3 -7.3l-2.5 -11l-9.7 -9l-2.7 -17.5l0.5 -19.4l9.1 -7.4l0.6 -0l12.9 -0.5l4.8 9.7l0.6 1.2l8 -10.7l2.3 -20.5l-1 -16.1l-6.7 -5.9l-1.4 -24.9l6.3 -8.3l-2.6 -1.7l-4.3 7.9l-1.1 -7.4l-26.1 0.3l-8.7 0.2l-3 0.3l-10.8 0.7l0.6 -10.3l-25.5 1.4l3.1 11.5l-1.5 5.7l-2.9 6.2l-2.2 5.5l1.2 22.1l-2.6 8.9l-1.8 20.2l-2.2 5.3l3.5 14.3l-4.4 10.8l-3.5 16.9l0.8 14.4l-2.2 18.5l-9.8 11.1l-27.1 26.3l-24.5 13.7l-6.2 4.4l-26.3 14.5l-1 3.9l-10.2 7.8l-5.2 1l12.9 1.4l-5.6 4l-13.9 2.9l-3 5.7l-5.8 3.9l-6.7 38.1l-17.8 -0.4l-4.7 39.2l-28.2 87.8l-8.1 10.8z" />
  </g>
  <g data-zip="02886">
    <path d="m1019 1221.6l0 0l-17.4 41.2l21.4 -0.7l14.9 -1.4l13.9 -0.1l2.8 44.7l54.7 -2.1l13.8 1.4l0.2 28.7l-2.5 14.9l2.6 -2.5l-4.7 13.9l9.3 4.7l17.2 -1.7l0.7 -11.1l10.3 12.7l11 -3.4l11.7 1.4l0.5 -9.8l-1.2 -14.9l-2 -5.3l4.8 2l21.8 -1.7l4 -6.4l-12.9 -33.9l3.3 6.6l5.3 -2l2.3 -0.3l-0.5 -0.5l9.9 -14.6l2.2 0.8l9.5 3.5l0.1 0l-3.5 6.7l2.8 3.9l2.3 3.3l21.2 -1.9l0.7 -0.1l15.1 3.5l30.7 7.2l35.5 1.9l13.3 0.7l-2.2 -6.9l-2.3 -5.2l-3.3 -14.9l-9.2 -15.6l-20.8 -12.8l-5.6 -5.9l-6.9 3.9l-19.3 -0.7l-13.7 -6.3l-1.9 -8.5l18.3 -3.8l-7 -4.5l2.5 -2l12.8 3.8l3.3 -0.6l9.6 -7.9l-3.4 -4.7l-5 -1.2l3.1 -8l-10 -3.8l1.6 -4.9l-7.1 -5.1l-3.9 9.8l-18.5 -13.7l8.7 -9.9l10.3 -2.3l11.4 4.1l11.8 19l12.3 -6l0.4 -5l-6.1 -6.5l-2.5 -12.9l-3.4 -7.3l-0.9 -10.3l-3.2 3.6l-7.8 -4.9l1.7 -13.3l2.8 -2.2l11.4 0.2l2.9 -3.8l-5 -9.9l-0.4 -6.3l-31.6 1.3l0.8 -12.1l-12.2 -1.7l-5.2 14.5l-18.4 -0.7l0.7 -2.5l8.3 2.2l4.8 -12.5l-9.3 -4l4.6 -17.1l-5.2 -2.5l-5.1 18.9l-17 0.6l3.5 -1.1l2.5 -7.6l-0.8 -7l-2.2 4.1l-15.3 0.5l-5.2 2.2l-5.8 7.9l2.6 12.1l-6 7.4l-84.5 3.3l-4.6 20.3l-13.1 15.7l0.4 16.8l-2.5 2.3l-6.3 -1.4l-13.2 19l-9.6 5.2l-11.7 0.9l-5.7 7.5l-13.9 7.9l-4.2 3.9z" />
  </g>
  <g data-zip="02888">
    <path d="m1212.3 1052l0 0l3.6 16.8l2.6 4.7l1.4 12.6l0.8 7l-2.5 7.6l-3.5 1.1l17 -0.6l5.1 -18.9l5.2 2.5l-4.6 17.1l9.3 4l-4.8 12.5l-8.3 -2.2l-0.7 2.5l18.4 0.7l5.2 -14.5l12.2 1.7l-0.8 12.1l31.6 -1.3l4.3 -0.2l-0.3 -6.7l23 -1.9l30.5 3.2l5.1 2.3l2.4 1.7l1.7 1.1l2.1 -0.1l7.1 0.5l11.3 -6.6l16.4 25.5l1.2 -20.4l-0.3 -8.3l-0.4 -12.5l13.8 -20.8l-0.3 -0.2l-3 -1.6l-9.6 -5l-0.3 -0.1l1.4 -13.2l-2.8 -24.9l-0.4 -0.6l-7.6 -10.4l-2.7 3.6l-2.7 -3.2l-8.3 -20.9l-5.9 -2.4l-12.2 0.6l-2.6 -9.5l-11.5 -6.4l-3.7 7.1l-8.7 -5.2l-20 5l-4.3 5.8l-6.4 8.2l-4.8 0.2l-10.8 5l-1.1 -2.1l4.1 -7.4l-7.6 -3.1l-4.8 7.5l-9.5 7.6l-4.4 1.9l-9 -0.9l-2.4 4.4l-5.1 0.2l1.5 -5l-3.1 -1.8l-1.9 4.9l-8.6 1.1l-1.9 6.7l-6.9 0.7l4.2 5.9l-6 6.6l1.6 10l-17.3 8.8z" />
  </g>
  <g data-zip="02889">
    <path d="m1263.9 1181.4l0 0l-8.7 9.9l18.5 13.7l3.9 -9.8l7.1 5.1l-1.6 4.9l10 3.8l-3.1 8l5 1.2l3.4 4.7l-9.6 7.9l-3.3 0.6l-12.8 -3.8l-2.5 2l7 4.5l-18.3 3.8l1.9 8.5l13.7 6.3l19.3 0.7l6.9 -3.9l5.6 5.9l20.8 12.8l9.2 15.6l3.3 14.9l2.3 5.2l2.2 6.9l9.2 0.5l2.5 -0.3l13.2 -1.6l6.5 -0.8l0.3 0.3l2.9 2.4l-0.8 2.2l-3.1 8.7l2.6 34l10.5 3.6l12.3 14.3l12.1 2.6l11.1 -17.8l3.3 -5.3l-1.3 -23.5l5.5 -26.2l0 -0.1l0.1 -0l19.3 -11.7l6.2 -13.8l-1.6 -1.4l-0.2 -0.1l-6.5 -5.4l-0.1 -23.8l-0 -3.2l3.6 -15.9l-3.8 -12.5l0 -3.2l0 -11.3l24.6 -19.4l0 -4.5l0 -1.7l-19.4 3.1l-17.3 -3.5l-19.4 -13.2l-1.6 -2.7l-9.5 -16l-2.1 -3.5l0 -0.2l0.2 -3.7l-16.4 -25.5l-11.3 6.6l-7.1 -0.5l-2.1 0.1l-1.7 -1.1l-2.4 -1.7l-5.1 -2.3l-30.5 -3.2l-23 1.9l0.3 6.7l-4.3 0.2l0.4 6.3l5 9.9l-2.9 3.8l-11.4 -0.2l-2.8 2.2l-1.7 13.3l7.8 4.9l3.2 -3.6l0.9 10.3l3.4 7.3l2.5 12.9l6.1 6.5l-0.4 5l-12.3 6l-11.8 -19l-11.4 -4.1l-10.3 2.3z" />
  </g>
  <g data-zip="02891">
    <path d="m1.9 2738l0 0l-1.9 26.5l8.4 1.4l7.2 12l35.4 -21.5l33.6 -14.6l40.8 -13.6l12.8 -4.3l53.9 -13.4l0.6 -0.2l31 -7.7l35.7 -8.7l21.3 -3.4l15.6 1.4l27.3 12l14.3 -10.4l46.7 -13.8l4.3 -0.4l-1.5 -75.8l-0.1 -1.7l0 -0.4l-2.4 -134.2l-2.1 -3.2l-13.9 0.6l-5.7 2.4l-1.1 3.9l-5.9 0.4l-5.4 8.4l-10.6 2.7l-3.9 -3l-11.5 1.3l-6.9 5.6l-12.2 1.3l-7.7 5.7l-4.1 -1l-2.6 5.2l-2.4 -2.2l-33 -5.7l-4.1 -20.9l-8.7 -4.7l-3.5 0.7l-0.1 -6.3l-4.6 0.5l-1.8 7.1l-4.3 -0.7l-3.1 -10l-4.3 -0.7l-6.1 -5.3l-3.7 -6l-6.5 1.9l-14.4 -4.1l-3.6 -9.1l1.1 -4.4l10.8 -1.3l-1 -3.5l-9.1 -2.2l-3.7 0.7l-2.1 -4l-2.1 -6.9l-8.6 -11.5l2.1 -2.2l11.5 -1.4l8.2 -8.9l-6.1 -2.7l-1.6 -8.1l3.3 -6.3l0.4 -8.3l4 -2.8l-1.3 -7.1l-3.5 -2.1l-0 0.8l-7.7 3.2l-3.3 1.4l-6.5 -7.3l-9.1 2.9l-17.7 -10.6l-11.7 -2l-10 2.1l-10.3 8.6l-2 7.5l-9.7 3.5l-18.1 10.7l-8.1 -2.5l-8.1 0.4l-8.5 8.8l-0.7 4.4l-1.9 11.3l0.6 5.3l4.5 4.7l1.7 15.6l-3.2 9.1l0.2 4.1l0.1 1.8l11.5 18.5l8.6 4l7.4 9.3l-2.6 18.6l8.4 14l-5.9 12.2l3.1 18.3l-2.6 5.7l-15 15.3l-0.7 20.8l2 12.4l1.2 7.1l3.1 6l12.8 8.8l4.1 18.1l1.5 16.4l-3.6 4.5l-16.1 20.3l-24.8 21.1l-8.9 3.8l-12.3 19.2l-16.1 15l-8.9 2.1l-4.6 14.1z" />
  </g>
  <g data-zip="02893">
    <path d="m956.8 1129l0 0l1.2 22.1l-0.5 11.1l1.6 57.9l-0.8 11.7l1.6 13.4l1.2 52.2l-3.5 0.4l3.8 8.2l0.8 56.9l-1.2 11l0.4 19l1.2 0.9l26.3 -0.5l15.2 -3.6l17.9 6.5l17.6 -3.8l23.5 -1.3l-4.1 0.1l-1.4 -31.7l6.7 -3.4l2.2 2.9l10.2 -0.9l-3 -4.7l1.6 -4.8l-18 0.4l-0.7 -22.2l-1.9 -21.6l-2.8 -44.7l-13.9 0.1l-14.9 1.4l-21.4 0.7l17.4 -41.2l4.2 -3.9l13.9 -7.9l5.7 -7.5l11.7 -0.9l9.6 -5.2l13.2 -19l6.3 1.4l2.5 -2.3l-0.4 -16.8l13.1 -15.7l4.6 -20.3l-28.1 0.3l-3.7 1l-42.3 1.7l-0.8 0l-21.1 0.8l-7.4 0.5l-0.7 -0.6l-3.3 0.1l-1.9 0.7l-11.4 0.3l-26 0.6z" />
  </g>
  <g data-zip="02895">
    <path d="m940.6 35l0 0l18.8 63.8l4.8 15.8l11.9 5.3l7.5 6.1l13 5.7l7.5 5.9l50.9 11.8l38.5 6.3l42.6 -59.5l15.8 -22l4.3 -6l17.3 -24.1l3.4 -25l1.5 -13.8l0.3 -1.1l-116.9 2.1l-4.8 0.1l-2.9 0.4l-76.9 7.8l-0.9 0.4l-4.4 0.1l-4 11.2l1.4 7.6l-28.7 1.2z" />
  </g>
  <g data-zip="02898">
    <path d="m459.9 1954.6l0 0l-0.7 5.8l3.3 2.5l0.2 0.2l0.8 -0.8l6 -5.1l-3.4 -3l-4.3 3.8l-1.8 -3.3z" />
    <path d="m435.8 2037.4l0 0l5.7 5l7 36.1l2.6 10l10.2 5l10.2 0.4l18 17.2l2.6 4.8l9.9 3.1l5.9 7.3l-2.6 7.8l2.9 0.9l6.5 -7.8l-0.4 -11.4l5.7 -8.2l-1.4 -3.5l8.2 -7.6l17.6 15.1l26.2 -52.8l7.7 -6.1l10 3.5l2.5 -27.1l1.2 -5l2.9 -15.5l-1.5 -3.8l-2.6 -20.4l1.7 -9.9l-2.7 -4.4l4.5 -0.5l41.8 7.5l2.3 -12.8l4.1 -12.1l3.8 -6l0.5 -12.5l4.6 -17l-3.4 -4.3l4.6 -11.5l-0.8 -15.1l-5 -9.4l-17.1 8.6l-4.4 -0.3l-10.3 6.2l-5.2 -26.7l-7.7 3.4l-3.9 -14.5l-10.2 -8.3l19.4 -19.9l17.7 -24.2l12.4 -15.3l-69.5 10.1l-5.4 7.2l-2.8 9.7l-11.5 24.7l-5.8 20.8l-3.6 -1.2l-6.2 3l-9.1 -1l-7.5 1.6l-3 40.5l2.1 7.4l-2.4 0.8l-1.3 22.5l-8.2 8.1l-4.5 -1l-31.9 23.7l-4 0.7l-4.2 3.6l2.2 4.3l-3 7.6l-5.9 3.7l-1.2 6.3l-4.2 3.1l-3.3 -1l-5.2 4.7l3.5 7.9l-1.8 4l7.3 3.8l5.4 4.9l2 4.8l8.4 -6.8l-26.9 23.5z" />
  </g>
  <g data-zip="02903">
    <path d="m1243.8 752.5l0 0l5.9 -2.3l1.8 8.3l8.3 -2.7l-0.8 -2.6l7.4 -2.5l5.6 1.5l0.2 3l-9.2 1.7l-12.4 4.4l5.1 1.6l5.4 -2.3l7.1 16.6l3.2 12.3l3.2 -0.3l2.9 5.4l-3.6 6.4l9.6 -5.6l13.8 7.5l6 -3.2l3.1 -1l-0.2 6.7l5.8 -0.9l3.2 11.9l11.7 -2.3l-0.2 16.7l11.2 -3.7l11.9 31.8l26.8 -22.8l-9.9 -7.4l-1.5 -16.8l3.5 -13.3l7.6 -2.7l1 2.3l8.3 -5.9l4.2 -10.1l-10.9 -0.1l-0.8 -5.5l-25.5 1.8l-4 2.7l-4.1 -1.9l-12.6 -18.6l4 -0.2l-0.2 -2.7l-1.1 0.1l-0.6 -6.5l-8 -0.9l1.9 -6.2l-3.9 -6.4l-7.2 -4.5l-4.8 0.2l-15 -2.1l-2.4 15.5l-21.4 -5.6l-17.5 4.8l-12 6.4z" />
  </g>
  <g data-zip="02904">
    <path d="m1130 575.9l0 0l-2 0.6l8.2 3.2l3.8 4.3l-0.9 9.1l2.5 2.9l-3 4.2l-1.6 8.9l3.2 -0.8l0.3 5.9l-4 3.7l4.9 8.3l12.6 -1.9l-1.1 -4.5l4.2 -1l1 4.6l5.7 -0.7l5 5.6l-2.8 4l10.2 3.5l4.7 12.9l13.8 -2.4l3.1 -2.9l-1.2 9.2l6.4 -2.4l2.4 1.9l-2.6 7.9l19.8 -1.9l6.5 -11.3l4.7 -1.9l13.2 10.4l2.3 4.7l7.8 -6.5l4.4 -0.7l2.4 -6.2l6.4 2.3l4 9.3l14.4 23.2l14.2 33.6l-2.4 5.7l7.1 -0.3l4.5 13.1l4.8 -0.2l7.2 4.5l-4.8 -12.6l0.7 -5.8l12.1 -2l2.9 -4.2l0.7 -8.2l-10.7 3.5l-4 -1.7l1.6 -7.6l10.5 -25.2l12.9 -28.4l3.4 -10.9l-29.6 1.3l-5.2 -9.2l-17.8 -2.3l-6.9 -40.6l-5.3 -16.9l-0.6 -17.8l-120.5 20.2l-12.3 3.5l-21.3 3.5z" />
  </g>
  <g data-zip="02905">
    <path d="m1288.2 904.7l0 0l3.8 8.2l8.1 -2.3l4.1 5.6l-4.6 9.8l0 6.1l5 1.4l1.2 7.9l-0.7 13.9l4.3 7.2l1.4 0.6l0.9 26.3l0.9 3.5l4.3 -5.8l20 -5l8.7 5.2l3.7 -7.1l11.5 6.4l2.6 9.5l12.2 -0.6l5.9 2.4l8.3 20.9l2.7 3.2l2.7 -3.6l-5.1 -7l0.1 -11.5l0 -1.1l0.1 -15.7l0 -4.3l-8.5 -20.3l-0.1 -0.1l-3.1 -7.5l-1 -2.4l-3.5 -11.5l-2 -6.5l3.5 -10.4l0.4 -0.1l16.8 -3.9l6.3 -1.5l3.5 -0.8l28 7.5l5.8 1.3l-2.4 -17.4l-3.4 -7.4l-3.6 1l-1.1 -7.8l-11.6 -14l-7.9 -2.3l-2.3 -3.9l-12.8 -22.7l-14.3 -12.1l-26.8 22.8l-11.9 -31.8l-11.2 3.7l0.2 -16.7l-11.7 2.3l-3.2 -11.9l-5.8 0.9l0.2 -6.7l-3.1 1l-3.6 8.2l3 6.2l-5.9 2.3l5.4 1l-0.8 7l3.8 11.7l-13.4 4.1l2.1 8.8l5.7 8.2l19.9 21.5l-23.5 16.2l-7.8 9.7z" />
  </g>
  <g data-zip="02906">
    <path d="m1320 719.1l0 0l-0.7 5.8l4.8 12.6l3.9 6.4l-1.9 6.2l8 0.9l12.2 -1.5l1.1 13.2l-7.3 0.6l-0.1 -3.3l-3.9 0.1l-4 0.2l12.6 18.6l4.1 1.9l4 -2.7l25.5 -1.8l0.8 5.5l10.9 0.1l0.9 -1.6l7.1 -9.1l15.7 -29.6l11.2 -12.5l1.7 -21.8l1.1 -4l-0.8 -0.6l0.1 -2.4l1.8 -13.6l-0.3 -28.2l-6.4 -25.8l-1.4 -1.2l-25.3 2.2l-11.3 -0.3l-9.6 2.9l-1 -1.8l-4.8 -1.8l-19.1 1.4l-3.4 10.9l-12.9 28.4l-10.5 25.2l-1.6 7.6l4 1.7l10.7 -3.5l-0.7 8.2l-2.9 4.2l-12.1 2z" />
  </g>
  <g data-zip="02907">
    <path d="m1227.9 871.1l0 0l2.2 10.6l7.2 1.6l1.5 1l-3.1 -5.5l10.1 0.1l-1.8 5.6l4.8 6.6l-1 6.9l2.9 -4.2l5.8 2.7l-3.1 8.4l-6.4 -2.7l2.6 6.3l1.9 2.1l32.2 -0.4l3.7 1l-4.4 13.8l-4.6 20l10.7 2.9l9.3 7.2l2.9 -15l4.4 1l-1.2 -7.9l-5 -1.4l-0 -6.1l4.6 -9.8l-4.1 -5.6l-8.1 2.3l-3.8 -8.2l7.8 -9.7l23.5 -16.2l-19.9 -21.5l-5.7 -8.2l-2.1 -8.8l13.4 -4.1l-3.8 -11.7l0.8 -7l-5.4 -1l5.9 -2.3l-3 -6.2l3.6 -8.2l-6 3.2l-13.8 -7.5l-9.6 5.6l3.6 -6.4l-2.9 -5.4l-3.2 0.3l-6.3 0.8l2.3 6.4l-5.8 10.5l-5.3 3.9l-15.7 22.7l-9.2 9.3l-0.9 -1.1l1 7.9l-3.8 21.4z" />
  </g>
  <g data-zip="02908">
    <path d="m1177.6 676.3l0 0l-0.4 4l1.5 9.7l4.1 4.4l11.7 -1l4.4 16.8l-5.2 1.6l-2 4.7l2.9 15.4l0 24.5l15.1 -2.1l2.2 4.7l9.5 0.7l0 -2.6l11.9 0.9l2.9 2.7l-0.3 -2.5l7.8 -5.6l12 -6.4l17.5 -4.8l21.4 5.6l2.4 -15.5l15 2.1l-4.5 -13.1l-7.1 0.3l2.4 -5.7l-14.2 -33.6l-14.4 -23.2l-4 -9.3l-6.4 -2.3l-2.4 6.2l-4.4 0.7l-7.8 6.5l-2.3 -4.7l-13.2 -10.4l-4.7 1.9l-6.5 11.3l-19.8 1.9l2.6 -7.9l-5.8 4.3l-1.7 0.8l-13.5 0.5l0.3 11.3l-7.1 7.3z" />
  </g>
  <g data-zip="02909">
    <path d="m1138.1 713.6l0 0l-1.3 8.4l12.9 10.3l8.6 1.8l7.1 13.8l1.3 13.2l6.7 4.7l1.3 2.1l-10 -1.9l-4.6 0.2l-11.3 2.7l-7.5 2.8l6.1 17l7.2 25.2l-6.8 1.1l5.5 10.9l-6.6 6.8l-0.3 4.7l6.1 1.5l6.9 -5.8l3 3.5l4 0.3l1.4 -0.2l2 0.4l1.1 1.2l0.7 0.2l1 -1.2l-2.6 -1.3l46.9 -6.2l3.8 -1.3l0 0.8l2.9 -0.4l7 13l0.9 1.1l9.2 -9.3l15.7 -22.7l5.3 -3.9l5.8 -10.5l-2.3 -6.4l6.3 -0.8l-3.2 -12.3l-7.1 -16.6l-5.4 2.3l-5.1 -1.6l12.4 -4.4l9.2 -1.7l-0.2 -3l-5.6 -1.5l-7.4 2.5l0.8 2.6l-8.3 2.7l-1.8 -8.3l-5.9 2.3l-7.8 5.6l0.3 2.5l-2.9 -2.7l-11.9 -0.9l0 2.6l-9.5 -0.7l-2.2 -4.7l-15.1 2.1l-0 -24.5l-2.9 -15.4l2 -4.7l5.2 -1.6l-4.4 -16.8l-11.7 1l-4.1 -4.4l-13.5 3.6l-2.1 -2.7l-6.6 6.1l1.1 7.2l-2 0.3l-0.9 -0.2l-1.2 -1.7l-0.5 -3.3l-5.4 3.6l0.5 10.5l-10.2 0.2z" />
  </g>
  <g data-zip="02910">
    <path d="m1181.1 919l0 0l3.4 -1.1l2.7 9l7.9 10.6l2 13l-6.9 7.7l0.4 12.1l5.2 4.6l1.6 5l3.9 -1.5l7.8 9.6l1.9 7.7l6.1 3.1l3.2 5.2l0.8 7.8l4.3 7.4l4.3 1.7l6.9 -0.7l1.9 -6.7l8.6 -1.1l1.9 -4.9l3.1 1.8l-1.5 5l5.1 -0.2l2.4 -4.4l9 0.9l4.4 -1.9l9.5 -7.6l4.8 -7.5l7.6 3.1l-4.1 7.4l1.1 2.1l10.8 -5l4.8 -0.2l6.4 -8.2l-0.9 -3.5l-0.9 -26.3l-1.4 -0.6l-4.3 -7.2l0.7 -13.9l-4.4 -1l-2.9 15l-9.3 -7.2l-10.7 -2.9l4.6 -20l4.4 -13.8l-3.7 -1l-32.2 0.4l-1.9 -2.1l-2.6 -6.3l6.4 2.7l3.1 -8.4l-5.8 -2.7l-2.9 4.2l1 -6.9l-4.8 -6.6l1.8 -5.6l-10.1 -0.1l3.1 5.5l-1.5 -1l-7.2 -1.6l-2.3 -2.1l-19.3 5.4l-1.4 -2.4l-9.5 11.3l-12.5 12.2l-3.9 12.7z" />
  </g>
  <g data-zip="02911">
    <path d="m1071.7 586.4l0 0l-1.9 1.5l7.4 5l1.7 8l5.1 6.8l6 3.5l2.2 6.7l2.1 19l4.2 10.2l13 9.2l1.8 11.7l-0.7 8.6l9.2 17.6l2.1 14.3l10.5 -4.6l1.9 7.3l1.8 2.3l10.2 -0.2l-0.5 -10.5l5.4 -3.6l0.5 3.3l1.2 1.7l0.9 0.2l2 -0.3l-1.1 -7.2l6.6 -6.1l2.1 2.7l13.5 -3.6l-1.5 -9.7l0.4 -4l7.1 -7.3l-0.3 -11.3l13.5 -0.5l1.7 -0.8l5.8 -4.3l-2.4 -1.9l-6.4 2.4l1.2 -9.2l-3.1 2.9l-13.8 2.4l-4.7 -12.9l-10.2 -3.5l2.8 -4l-5 -5.6l-5.7 0.7l-1 -4.6l-4.2 1l1.1 4.5l-12.6 1.9l-4.9 -8.3l4 -3.7l-0.3 -5.9l-3.2 0.8l1.6 -8.9l3 -4.2l-2.5 -2.9l0.9 -9.1l-3.8 -4.3l-8.2 -3.2l-56.2 9.8z" />
  </g>
  <g data-zip="02912">
    <path d="m1334.2 751.2l0 0l0.6 6.5l1.1 -0.1l0.2 2.7l3.9 -0.1l0.1 3.3l7.3 -0.6l-1.1 -13.2l-12.2 1.5z" />
  </g>
  <g data-zip="02914">
    <path d="m1365.4 811.8l0 0l1.5 16.8l9.9 7.4l14.3 12.1l12.8 22.7l11.1 -9.6l2.4 -7.8l3.7 2.7l2.5 11.6l9.7 3l1.3 -5.5l4.3 1.1l1.3 -5.2l7.4 -0.9l7 3.6l34.7 10.4l3.3 -29.4l11.2 10.8l0.8 3.5l28.1 22.4l13.9 8l-1.2 -3.1l-5 -8.6l-5.5 -1.2l-10.2 -5.9l-4.1 -7.8l-0.3 -7.4l4.4 -16.4l0 -8.2l1.2 -7l-0.9 -2.7l-23.3 -55.1l6.7 -19.2l-3 7.8l-6.9 4.6l-5.3 -3.7l2.2 -5.7l-0.2 -9.1l-3 -2l-1.7 -3.1l-6.6 6l-10.3 -4.3l-2.3 4.9l-5.6 -1.1l-19.5 -12.2l12.3 -9.2l-8.9 -14.5l-9.4 -1.6l-13.5 3.9l-1.7 21.8l-11.2 12.5l-15.7 29.6l-7.1 9.1l-0.9 1.6l-4.2 10.1l-8.3 5.9l-1 -2.3l-7.6 2.7l-3.5 13.3z" />
  </g>
  <g data-zip="02915">
    <path d="m1403.8 870.8l0 0l2.3 3.9l7.9 2.3l11.6 14l1.1 7.8l3.6 -1l3.4 7.4l2.4 17.4l-5.8 -1.3l0.4 0.1l2.8 9.7l7.6 0.7l8.3 12.5l-3.5 9l0.7 15.9l-9.7 23.9l-0.7 1.7l13.8 -0.7l0.8 -0l0.7 1.3l7.6 14.6l1.7 12.9l1.1 8.5l-4.4 16.7l6.4 5.5l2.1 11.1l-1.4 6.2l11.6 0l0.2 0l5.6 -24.4l6.3 -6.4l98.5 -90.7l-29 -17l-4.4 -8.2l0.3 -16.4l-7.2 -18.4l-13.9 -8l-28.1 -22.4l-0.8 -3.5l-11.2 -10.8l-3.3 29.4l-34.7 -10.4l-7 -3.6l-7.4 0.9l-1.3 5.2l-4.3 -1.1l-1.3 5.5l-9.7 -3l-2.5 -11.6l-3.7 -2.7l-2.4 7.8l-11.1 9.6z" />
  </g>
  <g data-zip="02916">
    <path d="m1427.6 703.5l0 0l-1.1 4l13.5 -3.9l9.4 1.6l8.9 14.5l-12.3 9.2l19.5 12.2l5.6 1.1l2.3 -4.9l10.3 4.3l6.6 -6l1.7 3.1l3 2l0.2 9.1l-2.2 5.7l5.3 3.7l6.9 -4.6l3 -7.8l15.4 -15.6l5.8 -6.6l7 -7l-19.2 -32.1l-1.2 -4.3l22.4 -64.3l-24.7 2.2l-60.5 8.4l-6 0.8l6.3 7.7l-1 14.7l-4.9 9.6l-6.6 28.6l-5.4 -1.9l-2.4 -5.4l-5.8 21.9z" />
  </g>
  <g data-zip="02917">
    <path d="m807.9 331.8l0 0l-14.3 1.8l21.5 132.3l4.7 4.1l7.3 2.8l1.3 1.5l2 5.2l3.7 7.4l-1 -6.2l3.6 -3.1l10.6 -1.9l1.4 -7.6l10.2 -6.5l5 2.6l6.1 -2.1l5.1 4.9l9 -3.9l2.9 7.7l16 16.7l2.3 4.7l-1.5 4.9l5.4 7.4l17 1.6l8.2 7.1l1.1 9.9l-7.1 -3l2.5 5.5l-7.7 2.9l-8.4 -0.3l0.7 -9.6l-13.7 -4l-0.8 3.5l6.5 2l-0.2 14.3l6.4 5.2l1.2 4.2l-4.2 9.3l11.1 -11.9l-0.5 -4l8.6 -1l6.2 -4.3l1.1 -5.3l1.1 12.7l-3 8.9l1.3 5.4l7.7 -1.1l6.8 4l11.5 11.5l4 -6.6l12.3 -3.6l1.8 10.2l-11.3 3.3l-4.3 1.5l1.5 7.2l0.2 2.1l-1.4 8.6l-0.7 14.5l2.5 -0.4l1.7 -0.2l43.4 -7.8l53.2 -9.2l3.9 0.4l1.9 -1.5l56.2 -9.8l2 -0.6l21.3 -3.5l-0.2 -3.2l-3.3 -12.3l-2.4 -16.7l-33.2 -132.8l-5.2 -16.5l-1.5 -8l-17.1 -68.4l-30.8 25.3l-5.5 6l-1.9 -0.1l-2.9 -2.9l7 -7.5l20.9 -15.6l-3.3 -17.5l10.2 2.8l-1.6 -8.4l-181.4 24l-3.6 0.5l-19.7 2.4l-67.9 8.4z" />
  </g>
  <g data-zip="02919">
    <path d="m839.2 626.7l0 0l1.5 8.1l1 6.3l-0.9 7.7l2.5 2.4l7.6 54.4l1.5 3.6l0.7 10l1.8 4.2l3.1 21.5l8.3 53l6 38l10.2 59.9l1.5 2.2l11.8 -0.8l17.5 -8l40.7 -6.7l7 2.2l7.9 5.6l10.9 3.8l13.4 2.3l10.5 3.9l14.1 1.3l29.9 -2.8l15.4 -6.5l8 -1.8l16.3 -1.6l15 -13.9l13.8 -6.6l20.3 2.2l2.8 -7.5l5.6 -2.1l6.1 2.8l4.5 -22l6.9 -5.1l-3 -3.5l-6.9 5.8l-6.1 -1.5l0.3 -4.7l6.6 -6.8l-5.5 -10.9l6.8 -1.1l-7.2 -25.2l-6.1 -17l7.5 -2.8l11.3 -2.7l4.6 -0.2l10 1.9l-1.3 -2.1l-6.7 -4.7l-1.3 -13.2l-7.1 -13.8l-8.6 -1.8l-12.9 -10.3l1.3 -8.4l-1.8 -2.3l-1.9 -7.3l-10.5 4.6l-2.1 -14.3l-9.2 -17.6l0.7 -8.6l-1.8 -11.7l-13 -9.2l-4.2 -10.2l-2.1 -19l-2.2 -6.7l-6 -3.5l-5.1 -6.8l-1.7 -8l-7.4 -5l-3.9 -0.4l-53.2 9.2l-43.4 7.8l-1.7 0.2l-2.5 0.4l-5.1 2.4l-8.1 -0.2l-20.2 5.3l-1.6 -1.6l-56.5 10l-31.2 5.4l-3 0.2z" />
  </g>
  <g data-zip="02920">
    <path d="m1066.3 894.8l0 0l0.3 15.9l7 2.2l-1.5 4.2l5.3 4.1l2.3 6.3l7.5 8.5l10.7 -3.6l8.4 9l16 -3.6l2.7 0.6l-4 3.5l-7.5 13.3l10.8 5.4l-2.2 6.9l-11.6 -4.4l1 15.6l-2.8 0.9l0.3 6.7l4.2 12.8l2 16.5l-0.7 12.1l-2.6 11.7l-9.8 17.8l-14 27.5l-3.2 10.5l2.2 16.4l-6.3 1.4l-5.5 11l28.1 -0.3l84.5 -3.3l6 -7.4l-2.6 -12.1l5.8 -7.9l5.2 -2.2l15.3 -0.5l2.2 -4.1l-1.4 -12.6l-2.6 -4.7l-3.6 -16.8l17.3 -8.8l-1.6 -10l6 -6.6l-4.2 -5.9l-4.3 -1.7l-4.3 -7.4l-0.8 -7.8l-3.2 -5.2l-6.1 -3.1l-1.9 -7.7l-7.8 -9.6l-3.9 1.5l-1.6 -5l-5.2 -4.6l-0.4 -12.1l6.9 -7.7l-2 -13l-7.9 -10.6l-2.7 -9l-3.4 1.1l3.9 -12.7l12.5 -12.2l9.5 -11.3l1.4 2.4l19.3 -5.4l2.3 2.1l-2.2 -10.6l3.8 -21.4l-1 -7.9l-7 -13l-2.9 0.4l-0 -0.8l-3.8 1.3l-46.9 6.2l2.6 1.3l-1 1.2l-0.7 -0.2l-1.1 -1.2l-2 -0.4l-1.4 0.2l-4 -0.3l-6.9 5.1l-4.5 22l-6.1 -2.8l-5.6 2.1l-2.8 7.5l-20.3 -2.2l-13.8 6.6l-15 13.9l-16.3 1.6l-4.9 4.3z" />
  </g>
  <g data-zip="02921">
    <path d="m884 898l0 0l4.8 38.4l7.5 -0.5l54.1 32.7l-11.2 9.4l-13.7 9.1l-12.8 3.3l-15 1.6l12.1 80l7.3 -4.1l17.8 -10.1l2.6 18.6l7.7 12l10.6 1.4l-2.1 11.3l-2.6 3.5l2 6.1l-4.5 5.6l-3.7 13l11.9 -0.1l26 -0.6l11.4 -0.3l1.9 -0.7l3.3 -0.1l0.7 0.6l7.4 -0.5l21.1 -0.8l0.8 -0l42.3 -1.7l3.7 -1l5.5 -11l6.3 -1.4l-2.2 -16.4l3.2 -10.5l14 -27.5l9.8 -17.8l2.6 -11.7l0.7 -12.1l-2 -16.5l-4.2 -12.8l-0.3 -6.7l2.8 -0.9l-1 -15.6l11.6 4.4l2.2 -6.9l-10.8 -5.4l7.5 -13.3l4 -3.5l-2.7 -0.6l-16 3.6l-8.4 -9l-10.7 3.6l-7.5 -8.5l-2.3 -6.3l-5.3 -4.1l1.5 -4.2l-7 -2.2l-0.3 -15.9l4.9 -4.3l-8 1.8l-15.4 6.5l-29.9 2.8l-14.1 -1.3l-10.5 -3.9l-13.4 -2.3l-10.9 -3.8l-7.9 -5.6l-7 -2.2l-40.7 6.7l-17.5 8l-11.8 0.8z" />
  </g>
</svg>
