<?xml version="1.0" encoding="UTF-8"?>
<!DOCTYPE svg PUBLIC '-//W3C//DTD SVG 1.1//EN' 'http://www.w3.org/Graphics/SVG/1.1/DTD/svg11.dtd'>
<svg viewBox="0 0 1000 2419.09" xmlns="http://www.w3.org/2000/svg">
  <g data-id="001">
    <path d="m38.634 950.878l5.58 88.293l6.661 119.022l2.26 22.576l2.283 37.498l2.092 40.062l0.443 9.38l2.68 35.296l2.191 35.377l19.31 311.338l2.81 45.232l0.357 1.986l2.033 35.366l0.08 1.907l1.515 23.475l0.368 5.463l226.781 -9.587l46.724 -34.865l16.583 -40.284l23.941 -18.599l7.614 -24.465l26.577 -13.124l86.14 -12.236l0.504 -49.819l10.684 -12.354l16.873 -13.439l41.132 25.086l39.12 -10.456l12.627 13.099l-0.843 -5.844l0 -3.102l1.269 -28.802l-4.519 -22.838l-4.599 -12.893l-30.456 -55.248l-6.586 -8.518l-46.097 -41.64l-10.867 -4.149l-11.302 -11.677l0.637 -2.31l-6.065 -11.198l-2.353 -2.159l1.138 -38.085l-12.747 -117.556l0.541 -5.432l2.647 -26.604l10.976 -20.626l2.108 -0.279l5.127 -3.03l2.399 -28.177l-5.24 -20.283l-10.613 -11.382l-1.032 -1.603l-0.565 -34.976l1.492 -3.956l2.512 -15.232l-7.314 -17.58l-26.457 -35.528l-10.029 -20.303l-0.239 -1.519l-1.872 -20.666l-2.826 -6.995l-28.915 -25.945l-12.029 -4.515l-14.378 -10.059l0.159 -1.564l-14.233 -9.342l-1.772 -2.001l-1.973 -2.733l-1.316 -1.84l3.142 -9.201l-3.191 -4.838l-15.025 -7.963l-8.801 -10.526l-32.516 25.473l-21.322 -5.808l-6.188 32.53l-38.597 46.61l-33.272 -0.274l-13.847 -2.196l-39.109 26.253l-23.3 7.786l-26.187 -11.389l-101.519 0.505z" />
  </g>
  <g data-id="003">
    <path d="m294.743 373.284l-1.299 5.587l5.494 17.263l7.784 14.96l4.825 -0.628l3.37 -0.439l-1.168 -1.516l-1.038 -4.378l0.843 -5.192l-2.119 -9.038l-1.578 -12.127l0.692 -8.506l-0.465 -1.327l-15.341 5.341z" />
    <path d="m280.015 414.255l-4.344 17.707l8.018 13.03l18.988 4.629l6.404 -15.655l-29.067 -19.712z" />
    <path d="m0.032 294.925l-0.032 22.529l0.805 17.958l0.829 18.484l0.757 12.077l0.953 16.272l1.087 18.571l6.212 106.044l1.556 24.722l0.107 1.701l0.089 1.41l5.933 94.231l7.162 113.664l4.226 67.013l8.92 141.277l101.519 -0.505l26.187 11.389l23.3 -7.786l39.109 -26.253l13.847 2.196l33.272 0.274l38.597 -46.61l6.188 -32.53l21.322 5.808l31.727 -26.286l-12.582 -38.839l-2.569 -6.491l-16.75 -31.132l-3.426 -12.451l-23.485 -24.229l-21.542 -14.954l1.142 -6.28l-10.716 -9.44l-1.718 -5.086l-12.506 -17.548l-0.624 -2.118l-4.28 -27.965l0 -2.084l7.215 -28.338l0 -1.723l15.262 -22.493l12.843 1.615l8.386 -21.37l-13.02 -11.828l1.276 -20.853l0.08 -2.567l5.031 -31.408l1.334 -2.477l0.717 -1.335l1.465 -2.728l-10.472 -8.835l-1.103 -0.785l-19.484 -18.795l-1.6 -3.17l-6.465 -5.246l-15.676 -10.016l-1.427 -1.684l-9.775 -13.132l-2.595 -15.407l0.432 -1.123l0.325 -1.011l-0.584 -9.038l-0.822 -3.649l-0.887 -2.302l1.168 -4.154l0.93 -3.453l0.303 -1.179l1.6 -1.769l33.545 -50.968l3.359 -0.999l30.293 -9.006l7.63 -10.948l35.891 -51.51l27.433 10.837l0.946 -14.752l2.541 -4.3l4.216 -2.375l10.543 -5.445l5.189 -13.351l1.433 -3.688l3.768 -6.535l4.476 -1.722l2.838 0.527l1.892 1.699l3.785 1.288l1.757 -2.108l1.016 -5.84l-0.735 -3.908l0.259 -7.295l2.433 -7.029l0.076 -4.119l1.643 -7.76l5.169 -11.1l1.492 -3.205l8.379 -25.839l-0.405 -5.098l5.271 -8.087l9.595 -5.626l4.114 -9.535l-1.239 -0.571l16.099 -16.954l2.719 -1.29l33.48 -15.891l8.142 -3.865l-12.937 -9.763l-17.521 -12.858l-34.716 -19.584l-8.328 -3.967l-3.456 -1.646l-1.186 -0.565l-24.183 -9.363l-23.782 -7.426l-1.187 -0.238l-25.301 -5.078l-28.25 -3.384l-42.062 -1.461l-12.687 0.829l-17.942 1.786l-2.402 0.381l-1.162 0.215l-29.064 5.516l-23.604 6.717l-9.213 3.157l-28.817 12.654l-5.834 3.299l-25.51 14.426l-20.59 14.835l-11.938 10.429l-9.393 8.204l-3.311 3.356l-5.947 6.027l-4.387 4.446l-12.782 14.699l-10.706 13.885l-11.747 17.962l-8.538 15.812l-1.329 2.461l-7.745 16.549l-10.171 28.077l-20.015 0.002l-0.049 37.825l-0.355 32.282l0.057 2.055l-0.024 17.04z" />
  </g>
  <g data-id="005">
    <path d="m89.321 1763.62l0.76 13.289l2.159 35.255l3.86 63.002l6.364 103.792l7.46 121.558l1.033 15.934l0.473 8.357l0.507 8.699l0.116 2.645l2.424 39.223l0.724 12.013l2.542 42.162l1.873 31.148l1.896 35.799l2.824 44.112l0.431 7.073l3.85 55.681l37.766 2.119l3.706 0.243l20.207 0.681l23.575 0.795l43.784 1.81l6.741 0.778l5.103 0.204l7.714 -0.238l12.83 0.747l19.163 0.713l35.38 1.072l14.914 0.519l1.927 0l24.797 0.754l3.811 0.131l28.379 0.768l2.357 0.061l65.806 1.713l5.268 0.105l18.855 0.362l21.762 0.414l1.653 0.079l30.429 0.012l20.626 0.171l19.665 0.066l92.273 0.696l17.092 0.129l10.311 0.164l64.399 0.469l26.594 0.194l58.831 -0.318l70.645 -0.1l26.668 -0.038l4.844 -0.026l2.18 0.004l15.183 0.026l1.315 0.002l4.827 0.017l-1.093 -60.627l-13.898 -209.64l-1.309 -1.207l-1.242 -0.799l-4.456 -40.692l-0.396 -49.551l-18.529 -133.697l-1.346 -20.574l-2.616 -38.207l-9.892 -43.414l-5.854 -11.469l-6.406 1.536l-7.482 28.734l-12.501 5.82l-27.962 1.311l-33.786 -13.785l-2.333 -1.788l-39.804 -26.796l-20.444 -28.981l-36.083 -36.204l-42.011 -57.442l-55.359 -62.179l-11.087 -19.861l13.149 -25.031l-12.149 -9.784l-0.459 -1.851l-12.682 -13.479l-39.12 10.456l-41.132 -25.086l-16.873 13.439l-10.684 12.354l-0.504 49.819l-86.14 12.236l-26.577 13.124l-7.614 24.465l-23.941 18.599l-16.583 40.284l-46.724 34.865l-226.754 10.059z" />
  </g>
</svg>
