<?xml version="1.0" encoding="UTF-8"?><!DOCTYPE svg PUBLIC '-//W3C//DTD SVG 1.1//EN' 'http://www.w3.org/Graphics/SVG/1.1/DTD/svg11.dtd'><svg viewBox="0 0 1000 2419.09" xmlns="http://www.w3.org/2000/svg"><path data-id="10001" d="m38.6 950.9l5.6 88.3l6.7 119l2.3 22.6l2.3 37.5l2.1 40l0.4 9.4l2.7 35.3l2.2 35.4l19.3 311.3l2.8 45.2l0.4 2l2 35.4l0.1 1.9l1.5 23.5l0.4 5.5l226.8 -9.6l46.7 -34.9l16.6 -40.3l23.9 -18.6l7.6 -24.5l26.6 -13.1l86.1 -12.2l0.5 -49.8l10.7 -12.4l16.9 -13.4l41.1 25.1l39.1 -10.5l12.6 13.1l-0.8 -5.8l0 -3.1l1.3 -28.8l-4.5 -22.8l-4.6 -12.9l-30.5 -55.2l-6.6 -8.5l-46.1 -41.6l-10.9 -4.1l-11.3 -11.7l0.6 -2.3l-6.1 -11.2l-1 -0.9l-1.4 -1.3l1.1 -38.1l-12.7 -117.6l0.5 -5.4l2.6 -26.6l11 -20.6l2.1 -0.3l5.1 -3l2.4 -28.2l-5.2 -20.3l-10.6 -11.4l-1 -1.6l-0.6 -34.9l1.5 -4l2.5 -15.2l-7.3 -17.6l-26.5 -35.5l-10 -20.3l-0.2 -1.5l-1.9 -20.7l-2.8 -7l-28.9 -25.9l-12 -4.5l-14.4 -10.1l0.2 -1.6l-14.2 -9.3l-1.8 -2l-2 -2.7l-1.3 -1.8l3.1 -9.2l-3.2 -4.8l-15 -8l-8.8 -10.5l-32.5 25.5l-21.3 -5.8l-6.2 32.5l-38.6 46.6l-33.3 -0.3l-13.8 -2.2l-39.1 26.3l-23.3 7.8l-26.2 -11.4l-101.5 0.5z"/><g data-id="10003"><path d="m294.7 373.3l-1.3 5.6l5.5 17.3l7.8 15l4.8 -0.6l3.4 -0.4l-1.2 -1.5l-1 -4.4l0.8 -5.2l-2.1 -9l-1.6 -12.1l0.7 -8.5l-0.5 -1.3l-15.3 5.3z"/><path d="m280 414.3l-4.3 17.7l8 13l19 4.6l6.4 -15.7l-29.1 -19.7z"/><path d="m0 294.9l0 22.5l0.8 18l0.8 18.5l0.8 12.1l1 16.3l1.1 18.6l6.2 106l1.6 24.7l0.1 1.7l0.1 1.4l5.9 94.2l7.2 113.7l4.2 67l8.9 141.3l101.5 -0.5l26.2 11.4l23.3 -7.8l39.1 -26.3l13.8 2.2l33.3 0.3l38.6 -46.6l6.2 -32.5l21.3 5.8l31.7 -26.3l-12.5 -38.9l-2.6 -6.5l-16.7 -31.1l-3.4 -12.5l-23.5 -24.2l-21.5 -15l1.1 -6.3l-10.7 -9.4l-1.7 -5.1l-12.5 -17.5l-0.6 -2.1l-4.3 -28l0 -2.1l7.2 -28.3l0 -1.7l15.3 -22.5l12.8 1.6l8.4 -21.4l-13 -11.8l1.3 -20.9l0.1 -2.6l5 -31.4l1.3 -2.5l0.7 -1.3l1.5 -2.7l-10.5 -8.8l-1.1 -0.8l-19.5 -18.8l-1.6 -3.2l-6.4 -5.2l-15.7 -10.1l-1.4 -1.7l-9.8 -13.1l-2.6 -15.4l0.4 -1.1l0.3 -1.1l-0.6 -9l-0.9 -3.7l-0.9 -2.3l1.2 -4.2l0.9 -3.5l0.3 -1.2l1.6 -1.8l33.5 -51l3.4 -1l30.3 -9l7.6 -10.9l35.9 -51.5l27.4 10.8l0.9 -14.8l2.5 -4.3l4.2 -2.4l10.5 -5.4l5.2 -13.4l1.4 -3.7l3.8 -6.5l4.5 -1.7l2.8 0.5l1.9 1.7l3.8 1.3l1.8 -2.1l1 -5.8l-0.7 -3.9l0.3 -7.3l2.4 -7l0.1 -4.1l1.6 -7.8l5.2 -11.1l1.5 -3.2l8.4 -25.8l-0.4 -5.1l5.3 -8.1l9.6 -5.6l4.1 -9.5l-1.2 -0.6l16.1 -16.9l2.7 -1.3l33.5 -15.9l8.1 -3.9l-12.9 -9.7l-17.5 -12.9l-34.7 -19.6l-8.3 -4l-3.5 -1.6l-1.2 -0.6l-24.2 -9.4l-23.8 -7.4l-1.2 -0.2l-25.3 -5.1l-28.3 -3.4l-42.1 -1.4l-12.7 0.8l-17.9 1.8l-2.4 0.4l-1.2 0.2l-29.1 5.5l-23.6 6.7l-9.2 3.2l-28.8 12.7l-5.8 3.3l-25.5 14.4l-20.6 14.8l-11.9 10.4l-9.4 8.2l-3.3 3.4l-5.9 6l-4.4 4.4l-12.8 14.7l-10.7 13.9l-11.7 18l-8.5 15.8l-1.3 2.5l-7.7 16.5l-10.2 28.1l-20 0l0 37.8l-0.4 32.2l0.1 2.1l0 17z"/></g><path data-id="10005" d="m89.3 1763.6l0.8 13.3l2.2 35.3l3.9 63l6.4 103.8l7.5 121.6l1 15.9l0.5 8.4l0.5 8.7l0.1 2.6l2.4 39.2l0.7 12l2.5 42.2l1.9 31.2l1.9 35.8l2.8 44.1l0.4 7.1l3.9 55.7l37.8 2.1l3.7 0.2l20.2 0.7l23.6 0.8l43.8 1.8l6.7 0.8l5.1 0.2l7.7 -0.2l12.8 0.7l19.2 0.7l1 0l34.4 1l14.9 0.5l1.9 0l24.8 0.8l3.8 0.1l28.4 0.8l2.4 0.1l65.8 1.7l5.3 0.1l18.9 0.4l21.8 0.4l1.7 0.1l30.4 0l20.6 0.2l19.7 0.1l92.2 0.7l17.1 0.1l10.3 0.2l64.4 0.5l26.6 0.2l58.8 -0.3l70.6 -0.1l26.7 0l4.8 0l2.2 0l15.2 0l1.3 0l4.8 0l-1.1 -60.6l-13.9 -209.6l-1.3 -1.2l-1.2 -0.8l-4.5 -40.7l-0.4 -49.6l-18.5 -133.7l-1.3 -20.6l-2.6 -38.2l-9.9 -43.4l-5.9 -11.5l-6.4 1.5l-7.5 28.7l-12.5 5.8l-28 1.3l-33.8 -13.8l-2.3 -1.8l-39.8 -26.8l-20.5 -29l-36.1 -36.2l-42 -57.4l-55.4 -62.2l-11.1 -19.9l13.1 -25l-12.1 -9.8l-0.5 -1.9l-12.7 -13.5l-39.1 10.5l-41.1 -25.1l-16.9 13.4l-10.7 12.4l-0.5 49.8l-86.1 12.2l-26.6 13.1l-7.6 24.5l-23.9 18.6l-16.6 40.3l-46.7 34.9l-226.8 10.1z"/></svg>
