<?xml version="1.0" encoding="UTF-8"?>
<!DOCTYPE svg PUBLIC '-//W3C//DTD SVG 1.1//EN' 'http://www.w3.org/Graphics/SVG/1.1/DTD/svg11.dtd'>
<svg viewBox="0 0 10000 6524.71" xmlns="http://www.w3.org/2000/svg">
  <g data-id="001">
    <path d="m6862.5 3993l0 0l-1 326.9l1184 1.5l298.8 -3.7l26 -23.6l36.4 8.2l7 -23.1l38.3 -3.6l39.5 -33l61.1 20.3l14.8 -31.4l26 0.3l-5.5 -51l28.6 -19.4l6.8 -29l-15.2 -19.3l42.5 -35.3l14.8 -89.1l-2 -649.6l-109.4 1l-1193.9 -3.2l-3.7 658.3l-493.8 -2.3z" />
  </g>
  <g data-id="003">
    <path d="m9278.5 5462.7l0 0l0.1 228.8l5.9 0l0.3 -0.1l45 -1.4l62.9 0.1l47.1 4.1l20.8 -4.3l154.7 0.6l2.8 0.1l2.5 -0l182.4 1.5l24 1.2l83.7 -0.2l57.8 1.3l31.6 1.6l-1.5 -2.1l-1.9 -6.1l-5.5 -33.9l-11.1 -39.4l-14 -39.4l-7.6 -12.8l-11.3 -13.9l-3.9 -1.7l-3.5 0.8l-8.7 -1.6l-11.4 -6l-3.9 -9.1l-0.7 -8.3l-0 -3.6l1 -2.8l3.7 -5.3l2.4 -1.7l3.7 -1.9l18.6 -2.5l5.5 -5.9l5.1 -16.5l0.4 -14.2l0.9 -8.5l2.5 -4.5l16.5 -30.6l16.4 -33.8l1.8 -7.5l-0.8 -5.6l-2.7 -5.7l-22.7 -26.1l-13.7 -15.7l-13.5 -11.4l-3.7 -6.9l-0.9 -7.5l0.6 -3.6l8.6 -19.2l4.3 -11.4l1 -9.1l-4.5 -21.2l-7.1 -20.3l-3 -6.7l-4.5 -8l-2.9 -3.8l-4.4 -5.1l-14.5 -12.7l-4.8 -6.4l-0.4 -3.9l0.7 -3.5l7.7 -17.3l0.4 -5.5l-2.6 -7.3l-4 -5.1l-9.6 -7l-13.1 -4l-11.4 -11l-5.4 -6.6l-2.1 -5l-0.8 -5l-0.6 -11.6l0.9 -4.7l-0.6 -10.7l-0.9 -2.3l-5 -5.1l-3.7 -2.9l-4.8 -1.9l-14.1 -2.2l-8 -2.5l-5.4 -3.1l-6 -6.5l-2.5 -6.5l-0.2 -2l-0 -21.6l2.2 -4.6l4.5 -6.8l7.3 -7.9l2.9 -2.2l3.3 -5.1l6.4 -23.3l0.3 -5.6l4.4 -20.1l2.3 -3.3l1.2 -4.1l1.1 -15.4l-2.4 -7.9l-4.2 -5.3l0 -0.9l-23.2 -7.1l-36.1 23l-83.7 -24.5l-35.9 15.5l-37.1 -2.8l2.7 -46.7l-27.6 -24.8l-0.9 94.6l-162.7 -1.6l0.3 27l-54.6 -0.7l0.1 27l-26.9 0.6l-0.2 483.2l-77.4 -0.1z" />
  </g>
  <g data-id="005">
    <path d="m6212.5 4646l0 0l3.2 53.4l0.8 592.2l9 0.1l0.9 320.6l-3.1 376.9l0.2 -0l83.8 -21.2l38 3.6l131.8 -20.7l59.5 -89.6l29.2 -25.6l37.1 -10.8l60.1 31l47.1 4.2l48.1 -20.3l23.2 -1.6l86.7 -6.2l53.6 -21.3l83.6 -12.4l40.2 13.2l38.7 8.9l33.3 0.5l55.5 -9.7l42.1 -18.2l40.6 -29l44 -19.5l23.7 -18.7l27.3 -37.8l-0.1 -0.1l4.4 -4.8l1.7 -2l26.7 -29.1l26.1 -15.1l-7.5 -44.1l6.7 -25.6l-5.8 -32.4l-27.3 -60.4l-8.7 -44.1l-50.6 -67.7l-34.9 -30.4l-7.3 -6.2l-73.3 -41.6l-25.3 -10.6l-44.5 -4.6l-56.7 -16l-44.6 -49.5l-34.4 -20.7l-2.6 -21l21.7 -56.2l-8.6 -56.3l-15.9 -45.9l3.2 -61.5l9.8 -60.2l-6 -83.5l5.2 -29.5l-11.8 -42l-46.3 -37.5l-27.5 -44.4l-52 -36.1l-45.6 -56.6l-12.8 -73.8l-52.9 -32.4l1.6 -17.2l4.5 -11.7l-46.1 -56.2l-32.8 -22.4l-89.9 107.8l-47.1 41.6l-52.1 13.5l-65.1 -15.9l-52.3 24.6l-109.3 19l-48.2 -5.3l-3.4 122z" />
  </g>
  <g data-id="007">
    <path d="m4547.7 2121.5l0 0l1.8 14.5l1.3 13.1l6 9.1l4.7 6.4l7 -0.7l2.6 -1.5l2.7 10.5l5.9 10.9l2.8 30.5l11.4 20.7l26.6 15.7l32.5 4l16.9 -1.9l10.4 20.7l-10.5 21l-20.2 26.4l-22.7 21.1l-3.8 13.2l10.6 41l21.5 0.4l19.2 36.1l-10.7 20.3l27.3 28.3l-50.5 47.1l-20.6 6.8l-15.5 75.2l25.7 91.7l0.2 0.4l1.2 1.4l1.1 0.9l0.8 1.5l0.3 1.9l0.1 2.2l0.6 1l1.4 0.3l0.4 -0.4l1.1 0.4l0.5 0.9l0.9 1.7l1.5 1.3l1.7 1l1.9 0.1l1.5 -1.5l1.9 -0.2l1.7 0.7l1.8 0.6l1.7 0.9l0.9 1.3l0.6 2l1.2 1.6l1.5 1.1l0.8 1.7l-0.1 1.9l-0.1 1.9l-0.1 1.9l1.1 1.4l1.1 1.4l-0.6 1.9l0.4 1.9l1.2 1.5l0.7 1.6l1.5 1.7l0.6 1.9l0.2 1.2l0.9 1l0.5 0.1l-0 0.7l-0.9 0.5l-1.6 1.5l-1.4 1.3l-0.9 1.9l-0.1 1.9l1.2 2l0.7 1.7l0.8 1.8l0.8 1.7l1.4 1.2l1.4 1.7l1.3 1.8l1.3 1.4l1.3 1.5l0.6 1.6l1 1.5l1.3 1.2l1.5 1.2l0.2 1.9l0.3 1.9l0.7 1.8l0 1.9l1 1.5l0.7 1.7l0.3 1.8l0.4 1.9l0.5 1.1l1.2 0.9l1.2 -0.3l1.7 -0.5l1.9 0.6l1.4 1.3l1.6 1.1l1.8 0.8l1.5 1.2l0.6 1.8l1.3 1.5l1.8 0.8l1.5 0.9l1.3 1.4l0.5 1.9l0.2 1.9l-0.2 1.1l-0.4 0.7l1.1 0.3l1.6 0l1.2 2l1.3 1.7l1.4 1.2l1.7 2.4l1.7 0.4l1.5 1.2l1.4 1.4l1.4 1.4l1.3 1.1l0.6 1l0.6 0.9l1.1 -0.4l1.3 -1.4l1.9 0.3l1.8 0.2l1.6 -0.4l1.5 -0.5l1.4 1.1l1.5 1l1.7 1l1.8 0.8l1.7 1l1.6 1.2l1.6 1l1.4 1.1l1.1 1.6l1.7 1l1.5 1.1l1.6 0.8l0.2 2l0.7 1.8l0.1 1.9l0.5 1.8l1.3 1.8l1.8 0.6l1.7 0.7l1.5 1.2l1.8 0.5l1.7 0.8l2.1 0l1.7 0.7l1.8 -0.3l1.9 -0.2l1.8 0.4l1.7 1l1.8 -0.3l1.4 1.3l1.7 0.5l1.7 0.8l2.4 0.8l1.9 0.5l1.9 0.4l1.9 0.5l0.6 1.6l0.2 1.9l0.5 1.9l1.4 1.3l1.5 1.2l0.9 1.7l0.8 1.8l1.1 1.6l0.4 1.9l-1.1 1.6l0.1 1.8l-1.4 1.2l-1.2 1.4l-0.7 1.7l0.1 1.9l-0.3 1.9l1.2 1.4l1.5 1.2l1.1 1.7l0.4 2l3.1 4.1l1 1.7l1 1.6l1.5 1.2l0.1 1.9l1.1 1.6l1.1 1.6l1.3 1.4l1.1 1.5l1.4 1.3l1.1 1.6l1.5 1.2l2 0l1.7 0.6l1.5 1.2l1.6 1l1.7 1l1.9 0.2l1.9 0.1l1.8 0.3l1.5 1.3l1.7 1.4l1.7 0.9l1.4 1.3l1.5 1.3l1.7 0.6l1.8 0.4l0.9 0.8l1 1.4l-0.7 1.8l-0.3 1.8l1 1.6l1.7 0.9l0.8 1.8l0.9 1.7l1 1.6l1.4 1.1l1.9 0.2l1.6 0.9l0.9 1.5l1.1 1.5l1.3 1.4l1.5 1.2l0.6 0.7l-0.1 1.4l-0.7 1l-1.2 1.4l-1.2 1.5l-0.3 1.8l-1 1.7l-1 1.5l-1 1.5l0 1.9l-0.3 1.9l-0.2 1.9l-0.6 1l-0.2 1.1l0.7 0.9l1.7 0.8l2.1 0.5l1.7 0.6l1.8 0.3l1.9 0.2l1.9 0.4l1.9 0.5l1.7 0.9l1.9 0.1l1.9 0.2l1.9 0l1.9 0.2l1.9 0.4l1.6 1.1l1.4 1.4l0.2 1.6l-0.2 1.9l0.2 1.9l-0.2 1.9l0.4 1.9l1.4 2.2l2.8 2.6l1.1 1.4l1.5 0.9l1.8 0.7l1.1 0.5l0.5 1.2l-0.4 1.1l-0.7 1.7l-0.5 1.9l-0.3 1.8l-0.5 1.8l-0.1 1.8l0.9 1.5l-0.2 1.9l-0.4 1.9l-0.1 1.9l-0.2 1.9l0.5 1.7l0 1.9l-0.6 1.8l0.2 1.7l0.8 1.7l1.6 1.1l1.4 1.3l1.2 1.4l1.4 1.2l1.2 1.5l1.5 1.2l1.8 0.8l1.7 1l1.7 0.2l1.5 1.1l1.3 1.4l1.5 1.2l1.5 1.2l1.9 0.4l1.7 -0.8l1.3 -1.4l1.8 -0.8l1.9 -0.4l1.9 0.6l1.8 0.7l1.9 0.3l1.9 -0.1l2.4 0.1l1.7 -0.8l1 -1.5l1.4 -0.2l1.4 1.1l1.5 1.3l1.5 1.2l1 1.6l0.9 1.7l1 1.7l1.4 1.2l1.6 1.1l1.4 1.1l1.7 1l1.7 0.8l1.4 1.3l1.5 2l1 1.7l1.6 1.3l1.5 1.2l1.4 1.3l1.8 0.4l1.9 -0.6l1.7 -0.8l1.5 -1.3l0.7 -2.5l1.6 -1.3l2.5 -1.5l1.4 -1.5l1.5 -0.3l1.5 1.3l1.8 0.7l1.3 1.3l1.3 1.4l1.2 1.5l1 1.6l1.7 0.9l1.6 1l1.4 1.4l1.4 1.3l2.2 1.1l2.2 0.7l2.7 1.8l2 0.5l1.9 -1.2l2.8 -2.3l1.5 -1.6l1.1 -1.6l0.3 -1.9l-0.2 -1.9l0.7 -1.8l1.6 -1.5l1.6 -1.1l1.2 -1.5l1.2 -1.7l1.7 -2.1l1.6 -1.3l0.8 -0.9l1.6 -0.1l1.5 0.8l2.7 1.2l2.4 0.9l2.5 1.6l2 1l2.1 0.3l2 0.2l1.7 0.9l2.2 0.6l2.1 -0.3l2.8 -0.6l1.8 -0.7l1.7 -0.9l1.4 -1.3l1.1 -1.8l0.9 -0.8l1.3 0.7l0.6 1l0.5 2.1l1 1.6l0.9 1.7l0.4 1.8l0.7 1.8l1.1 1.6l1.3 1.5l1.4 1.3l1.5 1.2l1.3 1.4l-0 2l0.3 3.9l2.1 6.1l2.7 2.6l3.2 1.6l1.7 2.8l1.5 4.4l2.8 3.5l2 0.2l2.4 -0.3l2 -0.2l3.8 -0.1l4.6 1l5.6 0.3l5.3 2l5.7 0.7l2.3 0.4l1.6 2.7l3.6 1.7l3.1 1.2l4 1.4l3.8 -0.7l2.8 0.9l3.1 0.6l5.1 -0.9l3 1.4l1.5 2l0.5 1.8l2.3 1.7l1.4 1l1.2 1.5l1.4 1.3l-0 1.9l-0.9 2.2l-0.5 1.9l0.3 1.7l0.9 1.5l-0.5 2.4l-0.1 2.7l1.3 1.9l1 1.8l1 2l0.5 2.3l0.8 2.1l0.6 2.1l-0.1 1.9l0.7 1.6l1.3 1.4l0.4 1.9l0.9 1.5l1.7 1l1.7 0.9l1.9 0.3l1.8 0.7l2.3 0.5l2 0.4l1.2 1.4l0.7 1.7l1.7 1.2l1.8 0.3l1.9 -0.2l1.9 -0.3l2 -0l1.9 0.2l1.7 0.6l1.5 1.2l1.6 1.4l1.4 1.4l1.6 1l1.3 1.3l1.5 1l0.9 1.7l0.7 1.8l0.4 2l0.5 2l2.6 2.3l1.7 1.1l1.6 0.9l1.3 1.4l1.4 1.6l1.5 0.9l1.3 1.4l0.5 1.9l0.5 1.7l1.7 0.9l1.1 -0.2l1.2 -1.4l1.5 -1.2l1.8 0.2l1.5 1.6l0.9 1.8l1.3 2.5l1 1.2l1.4 1.3l1.2 1.4l1.6 0.9l1.9 0.5l1.5 1.2l1.3 1.5l1.4 1.1l2.2 -0.3l1.9 -0.5l2 -0.3l1.2 -0.5l1.4 1l0.6 1l1.4 1.4l1.9 -0l1.8 0.4l1.9 -0l1.8 0.6l1.9 -0.4l1.7 -0.8l2.2 -1.1l2.8 -0.8l2.5 -0l1.9 -0.1l1.9 0.2l1.9 0l1.6 1l1.4 1.3l1.8 0.7l3 -0.2l3.3 -1.1l1.6 0.4l3.3 -2.5l11.5 -1.4l13.4 9.9l12.8 -0.8l12.4 2.4l8.8 4.8l1.7 11.6l8.1 13.8l2.4 12.9l0.1 9.5l8.4 5.5l9.6 -0.4l9.3 -4.3l13.9 -8.6l5.9 -1.3l3.7 -6.9l-2.3 -9.4l-1.5 -11.2l5.6 -7.1l4.2 0.9l4.3 7.8l7.5 16.9l16.3 4.4l7.8 3.2l8.2 6.5l1.9 9.5l8.3 4.1l3.5 -2.3l3.5 -1l5.7 4.1l5.7 3.7l7.7 5.3l6.8 4.1l8.5 7.8l4.8 11.8l12.2 10.7l10.9 13.3l8.2 -0.6l10.4 2.1l14.9 5.8l5.2 5l3.5 6.4l5.7 5.4l16.9 2.2l53.8 -0.3l39.7 -0.1l34.5 -0.2l47.6 -1.7l38.6 -0.3l54.1 0.1l44.2 0.6l37.3 -0.3l11.1 -0.1l0.4 -0l10.8 -71.9l-0.3 -72.9l-55.3 -51.6l-46.1 -2.7l-121.2 -30.6l-33.6 -17.4l-8.5 -14.5l-4.1 -23.4l-15.5 -36.3l-4.4 -24.4l-7.8 -22.1l1.8 -27.1l17.5 -92.4l12.9 -34.3l42.7 -38.5l33.1 -74.2l-4.3 -64.8l25.8 -60.6l22.7 -35.3l-7.9 -37.6l-22.6 -40.4l17.2 -47.6l23 -21.2l77.4 -32.5l46.9 24.8l71.6 -23.5l55.4 -10.3l21.6 -38l17.1 -47.4l5.8 -37.4l52.2 -31.5l13.9 -32.6l-8.5 -41.9l32.9 -30.1l37.8 -47.3l-13.9 -35.4l-3.3 -0.3l-25.8 0.3l-36.8 -0l-26.3 0.1l-48.6 -0.2l-88.5 -1.7l-9.9 -5.1l-10.2 -5l-3.5 -1.5l-2.1 -6.8l4.3 -6.4l2.9 -6.6l-4.5 -9.8l-5.1 -6.1l-12 -13.2l1.1 -9.6l2 -4.7l-4.7 -13.2l-6.2 -11.6l-5.6 -9.8l-10.9 -5.5l-7.9 -2.6l-10.4 -4.2l-8.4 -9.6l-7 -5.5l-21.7 -5.7l-8.7 -17.2l2.8 -10.1l5 -6.5l6.7 -1l6.7 0.5l1.2 -5.5l-3.6 -4l-10.3 -12.4l-9.1 -1.8l-11.7 -5.7l-7.9 -0.3l-21.9 -10.1l-7.7 -6.6l-22.6 -0.4l-14.4 -10.5l-9.4 -2.5l-12.7 -8.3l-2.1 -10.7l-10.9 -13l-11.5 -8.4l-11.2 -8.1l-12.7 -15.1l-7.9 -7.9l-8.9 -3.4l-4.1 -6.2l-12.6 -2.7l-5.4 3.6l-17.7 4.7l-7.8 -5.4l-5.8 -10.8l-31.2 -29.8l-12 -37.5l12.8 -37.2l6.4 -30l-19.7 -30.3l-9.6 0.5l-20.4 -10.6l-1 -25l-46.9 -25.2l-32.3 -19.8l-26.8 -31l-28.4 -26.6l-19.2 -33.8l-21.8 -1.9l-37.5 -4.4l-24.1 -13.3l-15.7 -18.6l4.9 -30.2l15.9 -20.6l1.8 -36l-22.9 -13.9l-25.5 -16.3l-24.9 -18.7l-21 2.2l-8.6 -12.9l-1.3 -16.7l-6.3 -49l-13 -9.2l1.2 -17.5l12.1 -11.6l14.7 -17.2l0.9 -14l-10.6 -5.6l-3.9 -16.3l7.8 -11.4l13.1 -9.2l2.3 -0.4l-10.4 -13.4l-9.8 -4.9l-8.3 -11.9l-1.1 -13.1l9.7 -17.4l-1.7 -12.3l-15.3 -0.6l-19.3 6.3l-30.8 -1.5l-0.6 0.3l-81.3 43.9l-28.5 3.4l-36.9 -24.1l9.6 -17.4l-18.7 -31.7l-42.8 -5.1l-7.4 34l-28.4 -15.7l-23.7 9.2l-0.8 18.8l-58.7 -11.5l-0.7 57.8l-53.6 1.1l-10.4 9.3l-45 -2.1l-17.2 19.1l-17.4 48.9l28.5 27.6l3.9 26.8l-35.6 77.2l28.5 53.5l0.6 35.2l-21 -1.8l-15.4 55.3l89.3 42.2l1.2 2.9l-8.3 18.1l-5.8 4.4l2.1 10.1l4.5 5.6l2 10.5l18.7 26l18.6 29.7l19.8 22.8l-6.2 18.3l8.4 16.2l9.1 5.7l17.9 16.7l21.8 20.2l12.8 27.8l-2.8 22.7l-18.3 1.2l-21.1 10.9l-21.5 19.1l1.1 30.8l10.2 24.7l-8.3 16.4l-17.7 5.5l-18.9 21.7l-15.7 10.7l-17.9 20.9l-22.2 -1.5l-23.4 15l-23.8 1.7l-24.7 12.1l-19.7 2.5l-20.1 9.2l-16.6 22.6l-22 5.7l-3.7 10.5l10.6 18.8l15.7 11.2l5.3 16.6l9.6 10.7l0.9 15.2l-13.5 17.1l-9.2 12.6l-8 -0.1l-7.7 7l-1.4 9.1l-5.2 15.6l-4.6 9.9l-10.5 8.9l3.6 21.2l-5.9 14.6l-8.4 11.1l2.9 14l-6.6 6.6l-1.4 9.5l4.2 2.3l2.3 7l-1.7 5.5l-6.2 11.8z" />
  </g>
  <g data-id="009">
    <path d="m1.8 1610l0 0l-1.8 12.7l1.9 5.7l12.8 13.8l34.1 73.4l10.2 31.1l-1.9 11.9l-8.3 10.3l-1.8 34.1l3.7 20.2l6.8 7.2l3.8 10.9l4.1 25.4l4 38.8l10.5 63.7l-2 34.3l12.9 24.8l13.3 15.8l8.3 15l20.1 73.2l-0.6 8.6l5.9 8.6l18.9 14l220.4 -4.8l79.9 3.8l1113 0.1l0 27l712.2 0.1l-2.7 -111.3l2.7 -267.6l28.1 -0.3l-0.9 -2.6l1.7 -14.3l7.3 -27l3.8 -6.4l-14.3 -9l-21.8 -4.4l-42.6 5l-31.6 10.4l-16 9.8l-28.2 8.1l-15 -41.5l-20.2 -33.8l-24.2 -12.8l-40.1 -44.2l-10.7 -6.3l-8.5 1.4l-15.1 -7.5l5.1 -18.9l8.8 -15.8l-1.3 -4.9l-14.5 2.6l-25.1 19.3l-34.7 42.3l-32.8 31.9l-28.1 17.2l-12.1 4.7l-26 -0.7l-14.4 -2.3l-10.3 -7.1l-33.7 14l-23.2 1.4l-36.1 -5.5l-43.7 3.1l-37.9 -7.3l-22.1 -11.9l3.6 -32.6l-1.3 -1.4l-19.6 3.8l-22.9 11.4l-43.3 4.4l-19.3 -7.2l-16.1 -19.6l-20.8 -10.7l-12.1 1.3l-17.4 19.1l-21.3 11.1l-48.6 -8.3l-15.7 -13.1l5.3 -8l-18.5 -12.7l-26.9 -11.1l-38.8 -7.8l-4.7 1.8l0.3 4.6l-15.5 9l-9 -0.9l-3.8 -3.2l-0.6 -3.7l-35.4 3.3l-27.8 10.7l-68.4 -4.7l-34.9 7l-10 -1l-17.1 -11.2l-45.4 2.4l-24.7 -2.9l-26.1 -8.9l-32.9 1.3l-89.2 -24.9l-27.4 -23.3l-23.8 -12.6l-21.1 -7l7 -32.3l-11.8 -7.1l-38.8 -13.2l-65.8 -36.3l-32.2 -13.4l-26.5 -17.6l-15.7 -4.4l-1.8 7.2l-3.6 3.9l-13.7 7.9l-7.9 0.8l-30.3 -9.4l-2.5 -2.7l0.9 -2.2l1.7 -2.3l-4.6 -10.1l-55.3 -18.2l-24.2 -19l-25 5.5l-18.8 -7.8l-23.6 -23.3l-123.5 -81.5l-19 -11.1l-17.1 -1.7l-9.5 -7.1l-23.8 -27.6l-10.3 3.3l-22.9 -14.2l-11 6l-14 7.3l-17.3 -4.6l-9.3 -14.3l-10.6 -17.3l-17.7 -10l-52.8 3.2l-28.7 -1.5l-11.4 7.3l-7.7 9.4l1.2 9.5l4.9 9.8l16.9 9.2l21.9 31.9l34.1 16.2l14.2 19.8l-4 39.6l-4.9 21.4l-4.3 5.7l-9 2.3l-5.8 57.3l-4.9 19.4l-19.2 18.1l-8 11.4l1.1 2.2l18.7 36.5l-0.7 13.7l-6.7 26.9l-10.3 27.2l-35.3 27.7z" />
  </g>
  <g data-id="011">
    <path d="m2478.1 6009.3l0 0l0.5 27.6l33.4 54l10.3 39.3l0.6 16.1l1.1 29.3l-2.7 10.7l-13.2 53l-2.6 35.2l13.7 42.7l1.8 1.3l31.1 22.5l31.7 12.3l28.5 23.2l20.5 12.3l39.8 15.2l52.8 3.8l21.2 5.3l5.9 1.5l40.2 12.4l2.3 0.7l31.3 13l23.4 6.8l16.8 4.8l16.6 6.4l6 2.7l26.6 20.1l19.5 6.8l35.8 -7.4l12.1 -6.3l12.1 -6.3l14.7 -2.6l35.2 11.9l27.2 38.7l46.8 8.6l36.1 -0.5l5.2 -0.9l17.4 -6.3l0.1 -0.1l-0.1 -122.1l-1.1 -374.4l6.8 -87.4l-1.7 -344.7l-34.7 -10.2l-71.5 90.9l18 35.4l-22.9 47.4l-51.5 7.9l-32.7 -21.6l-55.9 -6.2l-5.4 -13.5l-39.2 -9l-25.4 13.5l-17.5 -7.7l-30.5 10.5l-29.3 46.7l-26.4 -1.6l-48.2 34.9l-39 -2.9l-14.6 16.8l-14.9 -16.3l-27.7 -8.4l2.1 22.9l-40.5 -5.1l-6.4 29.7l-16.7 0.8l2.2 23.4l-14.3 6.9l20.5 8.4l13.4 39.4l2.8 9.5l-30 -4.6l-54.1 36l-0.2 11.6l-13.1 35.2z" />
  </g>
  <g data-id="013">
    <path d="m8303.1 4650.9l0 0l0.8 491.9l160.9 -0.7l-0.6 161.7l160.1 0.6l-2.1 346.9l-4.9 34.9l0 -0l24.6 0.1l332.4 1.6l146.4 1.8l0.2 -225.7l-11.9 -0l0.9 -401.6l-80.6 1.5l1.3 -84.6l-26.9 0.1l-0.2 -26.8l-27.3 0.1l-0.2 -82l-26.6 -0.4l0.2 -54.7l-161.2 1.5l13 -166.4l1.7 -120l-22.6 9.7l-15.7 50.8l-34.8 13.8l-56 -13.6l-41.4 9.7l-63.8 3.2l-43.4 19.5l-30.4 0.3l-32.7 33l-59.9 3.1l-17.3 -10l-47.1 -52.8l-16.6 -8.3l0.8 61.3l-18.6 0.6z" />
  </g>
  <g data-id="015">
    <path d="m1938.3 4975l0 0l3.9 162.4l-2.4 103.6l4.8 128.4l59.7 -30.4l64.6 6.8l13.9 14l69 44.5l12.5 13.4l9.6 3.7l14.9 9.6l16.3 5.7l6.7 4.1l53.2 53.5l74.9 38.9l25.1 43.2l1.3 8.5l6.9 44.9l28.1 31l23.7 62l30.2 36.5l10 52.6l-6.8 36.2l17.2 52.2l16.7 30.6l-0.6 31.5l54.1 -36l30 4.6l-2.8 -9.5l-13.4 -39.4l-20.5 -8.4l14.3 -6.9l-2.2 -23.4l16.7 -0.8l6.4 -29.7l40.5 5.1l-2.1 -22.9l27.7 8.4l14.9 16.3l14.6 -16.8l39 2.9l48.2 -34.9l26.4 1.6l29.3 -46.7l30.5 -10.5l17.5 7.7l25.4 -13.5l39.2 9l5.4 13.5l55.9 6.2l32.7 21.6l51.5 -7.9l22.9 -47.4l-18 -35.4l71.5 -90.9l34.7 10.2l-1.1 -270.8l6 -20.4l2.7 -304.6l-1.3 -17.1l-153.3 -1.4l-3.7 -2.3l-742 -0.1l-218.1 -1.2l-132.7 4.5z" />
  </g>
  <g data-id="017">
    <path d="m5649.8 2941.2l0 0l-1.8 27.1l7.8 22.1l4.4 24.4l15.5 36.3l4.1 23.4l8.5 14.5l33.6 17.4l121.2 30.6l46.1 2.7l55.3 51.6l0.3 72.9l-10.8 71.9l23.7 68.3l72.8 -1.4l15.4 12.3l2.9 -19.7l0.1 -168.5l27.6 -0.8l-0.1 -26.8l27.4 -0.6l0.6 -26.1l26.7 -1.2l0.3 -28.2l27.3 -0.2l0.2 -54.7l27.3 -0l0.3 -27.4l27.3 -0.6l0.1 -55.2l438.3 -7l0.3 -163.8l27.1 0.2l-0.5 -27.3l27.7 0l27.3 -54.5l27.4 0.6l-0.2 -27.4l54.5 -52.6l81.3 -16.7l0.2 -10.1l27.1 -0.1l0.2 -82.5l27.2 -0.3l0.2 -110.1l27.4 0.2l0.1 -27.3l27.4 0.2l-0.1 -55.5l27.8 -0.6l0.3 -54.6l27.5 -0.1l0.2 -165.8l27.6 -0.2l0.1 -28l55.2 -0.4l-0 -28.1l27.5 0.2l0.4 -56.3l27.7 0.2l0.1 -28.8l155.6 -0.5l21.6 -41.5l18.6 -67.2l-37.7 -35.1l-29.4 -11.5l-20 -50.8l-12.9 -83l-36 -45.7l-64.3 -6.6l-21.1 -17.8l-34.8 7l-36.3 34.8l-26.7 5.2l-19.3 18.9l-23.1 4.1l-30.1 21.4l-53.4 -25.8l-37 36.1l-0.5 50.5l-19.9 39.9l-34.5 -6.2l-43 3.3l-41.1 -49.2l-82.8 -11l-19.3 14.6l-1.9 23.3l-99.2 79.9l-24.7 39.7l-21.2 7.3l-27.4 -7.5l-46.3 -43l-6.4 -17.8l29.7 -68.6l-17.7 -48.5l-21.2 17.7l-33 -1.9l-25.8 -33.6l-35.5 -3.2l-8.8 33.4l-34.5 -0.1l-44.6 18.8l-61.9 42.1l-4.7 9.6l33 59.7l-3.7 49.2l-12.4 44.5l14.7 18l13.9 35.4l-37.8 47.3l-32.9 30.1l8.5 41.9l-13.9 32.6l-52.2 31.5l-5.8 37.4l-17.1 47.4l-21.6 38l-55.4 10.3l-71.6 23.5l-46.9 -24.8l-77.4 32.5l-23 21.2l-17.2 47.6l22.6 40.4l7.9 37.6l-22.7 35.3l-25.8 60.6l4.3 64.8l-33.1 74.2l-42.7 38.5l-12.9 34.3l-17.5 92.4z" />
  </g>
  <g data-id="019">
    <path d="m7500.8 677.5l0 0l0.1 332.9l32.8 -0.2l-2.4 995.1l-7.9 10.6l24.2 14.2l4.6 33.1l22.4 24.5l36.7 8.7l67.7 29.7l23.8 -6.1l5.2 -57.7l24.6 -17.5l33.8 10.1l12.7 19.7l104.4 -9.9l47.2 33.3l-13.5 59l16.4 17.3l38.6 2l43.7 -16.3l12.8 14.3l1 38.9l13.2 17.1l68 28.2l30.2 -3.8l15.3 -17l9.2 -78.1l11.5 -22.4l-3.6 -22.8l-11.9 -82.3l1.1 -48.5l-27.2 -38l-6.4 -16.8l-5.2 -6.8l-11.5 -13.9l-8.3 -11.7l-3.6 -15.9l7.7 -7.5l14.7 -9.3l10.7 -6.9l26.3 -17.4l63 17l27.9 1l21.8 -26.5l16.4 -6l6.7 5.6l11.6 -5.6l7.3 -12.4l-2.4 -24.7l5.4 -18.8l-5.6 -25.5l-13.7 -17l-9.1 -6.5l-0.4 -17.7l2.3 -19.7l11.8 -6.6l22.1 -3.3l31.7 -7.7l9.5 -20.5l1.5 -25.4l-5.2 -26.7l1.3 -26.3l7.2 -23.8l-3.1 -10l0.4 -9.4l6.2 -5.8l15.9 -13.6l17.5 -15.7l15.7 -22l3.6 -12.9l1.4 -5.5l3.1 -9.2l1.6 -19.8l-10 -15.9l-5.6 -26.5l-11.3 -20.8l-6.4 -11.2l-9.2 -17.3l-3.1 -19.3l-4.4 -13.3l-0.1 -21.7l-0.4 -24.4l-1.6 -22.3l-7 -23.4l-3.6 -18.3l-7.9 -13.4l-7.6 -13.3l-0.8 -25.7l1.8 -19l-2.2 -21.6l-11.3 -18.5l-0.1 -20.3l10.6 -24.9l11.4 -11l7.7 -10l4.7 -16.2l4.7 -13.7l0.7 -19.4l2 -12.3l11.2 -14.5l11.8 2.8l12.1 2.6l12.6 -13.4l-0.4 -15.4l-1.7 -23.6l5.9 -27.6l8.6 -28.7l7.4 -20.2l-1.5 -18.6l-1 -23.4l4.6 -16.8l6.7 -8.7l1.3 -7.7l-0.7 -3.6l-1.6 -3l3.1 -3l1.7 -11l10.9 -7.9l3.7 -21.9l-4.6 -18.2l-1.1 -11.3l-4.8 -13.9l-4.9 -0.1l-0.8 -5.6l2.4 -6.2l-0 -14.4l-6.9 -29.1l0.6 -16.9l-3.6 -20.1l0.6 -15.9l6.3 -8.4l-6.5 -4.7l-5.3 -2.6l-3 -7l3.1 -6.6l5.9 -3.6l-0.4 -6.5l-2.6 -4.4l-5.4 -4.2l-5.2 -3.7l2 -7.3l4.1 -0.2l3.7 -3.5l-0.1 -2.4l-2.6 -2.9l-1.1 0.5l-5.1 -1.3l-2.1 -5.1l-0.2 -6.6l11.1 -6.5l4.3 -5.7l-3 -9.3l-1.3 -3.7l-13.4 3.2l-5.3 7.1l-7.1 -7.1l-9.3 -12.6l-8.6 -16.4l-1.1 -14.5l-8.7 -20.9l-4.3 -20.1l-11.4 -21.8l-9.4 -0.9l-11.4 -11.5l2.2 -9.3l-7 -13l-1.2 -14l-6.6 -14.4l-7.2 -9.3l-2.2 -16.5l0.2 -13l8.3 -20.5l7.7 -13.6l3.2 -8.1l-4.7 -6.1l-9 -10.8l-13.6 -21.6l-2.5 -13.3l4.7 -17.3l8.4 -18.9l4 -9.8l-8.9 -12.4l-6.8 -6.9l4.6 -23.1l7.9 -3.5l-1.4 -9l-6.4 -6.7l10.8 -6.5l6.4 5.2l9.6 -3.1l-2.7 -8.7l-817.7 0.2l-0.5 673.2l-41.7 0.1z" />
  </g>
  <g data-id="021">
    <path d="m6754.3 4429l0 0l-1.6 17.2l52.9 32.4l12.8 73.8l45.6 56.6l52 36.1l27.5 44.4l46.3 37.5l11.8 42l-5.2 29.5l6 83.5l-9.8 60.2l-3.2 61.5l15.9 45.9l8.6 56.3l-21.7 56.2l2.6 21l34.4 20.7l44.6 49.5l56.7 16l44.5 4.6l25.3 10.6l73.3 41.6l7.3 6.2l12.3 -27.3l10.8 -16.9l64.8 -40.8l139.9 -23.5l42.7 -56l80.8 -30.2l-9.5 -34.6l15.3 -15.5l20.6 -64l52.8 -0.2l17.6 -39.9l28.5 -14.9l10.4 -24.8l34.5 -21.4l-5.4 -36l7.8 -38.8l16.6 -37.2l4.3 -56.1l29.7 -39.6l34.5 -16.9l22.3 -39l25.6 -21.8l40.3 -14.6l31.8 -40.4l24.3 0.5l37.7 24.6l42.8 5.8l35.8 -32.4l50.1 -16.4l21.6 2.5l40.7 21.7l37.9 -12.9l20 13.7l16.6 8.3l20.3 -65.7l-39.6 -61.2l16.9 -41.5l-40.4 -102.3l49.7 -8.8l-298.8 3.7l-1184 -1.5l0.3 111l-107.5 -2z" />
  </g>
  <g data-id="023">
    <path d="m8801.1 4650.7l0 0l-13 166.4l161.2 -1.5l-0.2 54.7l26.6 0.4l0.2 82l27.3 -0.1l0.2 26.8l26.9 -0.1l-1.3 84.6l80.6 -1.5l-0.9 401.6l11.9 0l-0.2 225.7l0.3 0l125.8 1l31.6 0.8l0.2 0l-0.1 -228.8l77.4 0.1l0.2 -483.2l26.9 -0.6l-0.1 -27l54.6 0.7l-0.3 -27l162.7 1.6l0.9 -94.6l-13.6 -35.2l9.5 -36l-29.3 -82.7l-73.2 -66.4l-33.4 -2.2l-27.6 -37.8l-30.3 -23.1l-7.5 -19.4l4.4 -42.6l-10 -11.4l-45.1 -5.8l-25.6 -33.1l-21 -46.2l-32.3 7.9l-13.6 24.8l-21.1 9.5l-44.5 -5.9l-58.7 14.2l-36.5 -12.4l-28.1 -38.4l-50.2 -5.2l-68.3 14.9l-21.4 22.8l-19 68.9l-36.1 36.8l-36.3 6.7l-29.1 -4.9l-1.7 120z" />
  </g>
  <g data-id="025">
    <path d="m6000.1 3694.8l0 0l12.5 32.5l27.9 28l12.8 85.8l44.8 93.5l3.8 46.7l-2.2 112.3l47.9 78l0.1 34.9l-20 44.4l-34.4 36.8l-3.9 33.3l0.4 25.9l33.6 88.2l37.3 38.2l20.2 36.9l5 4.3l20.5 4.9l9.6 4.4l48.2 5.3l109.3 -19l52.3 -24.6l65.1 15.9l52.1 -13.5l47.1 -41.6l89.9 -107.8l32.8 22.4l46.1 56.2l-4.5 11.7l107.5 2l-0.3 -111l1 -326.9l493.8 2.3l3.7 -658.3l4.7 -809.9l3.3 -483.5l-10.4 -8.7l-0.7 -26.8l-155.6 0.5l-0.1 28.8l-27.7 -0.2l-0.4 56.3l-27.5 -0.2l0 28.1l-55.2 0.4l-0.1 28l-27.6 0.2l-0.2 165.8l-27.5 0.1l-0.3 54.6l-27.8 0.6l0.1 55.5l-27.4 -0.2l-0.1 27.3l-27.4 -0.2l-0.2 110.1l-27.2 0.3l-0.2 82.5l-27.1 0.1l-0.2 10.1l-81.3 16.7l-54.5 52.6l0.2 27.4l-27.4 -0.6l-27.3 54.5l-27.7 -0l0.5 27.3l-27.1 -0.2l-0.3 163.8l-438.3 7l-0.1 55.2l-27.3 0.6l-0.3 27.4l-27.3 0l-0.2 54.7l-27.3 0.2l-0.3 28.2l-26.7 1.2l-0.6 26.1l-27.4 0.6l0.1 26.8l-27.6 0.8l-0.1 168.5l-2.9 19.7l5.7 14.8l-2 55.7l-8.2 40.2l12 28.9l-1.2 37.2l-12.7 26.9l-18 9.4l-21.4 66.3z" />
  </g>
  <g data-id="027">
    <path d="m485.5 2823.3l0 0l10.9 84.3l10.8 138.2l12.9 51.5l3.3 40l6 22.7l15.2 6.2l9.7 7.4l8.5 17.1l8.9 26.7l19.4 38l17.6 1.8l4.9 3l14.5 13.9l7.5 14.7l35 130.3l16.8 83.1l7.9 51.1l5 20.3l3.8 3.7l-1.3 17.4l9.1 59.8l4.1 50l5.6 134.9l-2.6 67.6l-4.3 31.5l-7.2 28.6l27.5 -5.8l22.2 -20.3l21.6 -6.8l-17.5 -50.8l-2.2 -32.6l-14.8 -61.4l2.9 -15.4l9.6 -11l24.9 -12.2l20.1 -1.9l51.8 2.8l50.5 20.6l12 28.8l-0 5.9l15.1 14.6l-6.2 11.3l-12.4 12.6l9.6 11.3l26.4 9.3l41.5 -2.9l14.3 18.6l11.2 3.9l22.5 -4l29.9 -0.1l11.3 5.7l17 14.7l15.4 17.7l5 5.7l-29 16.1l-41.4 13.1l-54 21.9l-28 -3.3l-7.3 2.1l-31.3 21.7l-5.3 12.5l-28.9 9.7l-12.9 8.4l-3.8 5.1l-7.4 39l-7.6 9.9l-6.8 3l-8.7 3.8l-20.7 -11.6l-1.5 -52l-3.8 -10.6l-22.1 -21.3l-9 0.3l-26.2 12.8l19.5 48.2l19.1 81.2l8.8 48.1l3.7 31l257.5 2.9l51.9 3l19.5 -1.8l601.6 -0.5l25 -2.6l244.1 0.2l0.1 -63.1l-0 -19.3l2.8 -296.6l-57.2 -2.1l2.8 -25.2l-1.3 -140.2l-213.4 4.9l-153.8 -0.4l-2.4 -330.4l-18.2 -0.6l-1.1 -489.7l-691.8 -1.5l0.3 -28.7l-392.9 0.3z" />
  </g>
  <g data-id="029">
    <path d="m2807 1533.8l0 0l2.2 49.8l18.7 42.3l13.5 53.3l28.2 25.5l4.2 -0.6l11.2 -15.5l13.4 -2.5l22.8 31.3l33.2 21.3l29.4 33.9l9.3 13l3.4 17.2l4 8.2l13.5 14.6l17.9 5.8l6.1 -3l-2.5 -10.3l-24.5 -49.5l-41.2 -49.5l-39.3 -33.8l-42.8 -68.9l-4.1 -17.1l0.6 -23.8l10.6 -11.4l7 -1.5l3.7 3.1l8.9 -6.7l16.5 -24.4l0.4 -4.7l-3.6 -5.3l-6.4 -0.4l-5.3 -23.2l-0.1 -3.9l5.3 -7.2l20.3 -7.6l4.1 0.6l6.4 6.4l37.7 7l0.9 1.5l2.1 -8.8l1 -8.4l-0.9 -2.6l-7.4 -7l-1.8 -7.5l-2.9 -3.1l-3.2 -8.3l-1.2 0.8l-73.5 -36l-3.6 1.8l-9.8 27.6l-8.2 6.8l-16 -0.6l-5.5 -2.6l-2.5 -6.2l-5.3 -0.8l-34.8 13.9l-5.4 18.5l1 33l-5.7 25.6z" />
    <path d="m2511.4 1499.5l0 0l-0.1 6.1l9 17.4l23.6 10.9l12.3 18.6l30.1 12.3l23.6 23.1l8.3 13.2l9 37.5l2.8 1l7.8 -5.2l19.5 -10l29.2 -1.5l20.1 8.1l10.1 13.8l9.5 31.8l4.9 47.2l-11.5 43.3l-7.6 16.4l-1 12.8l24.4 31.5l1.7 17.4l-4 16l-13.5 15l32.7 39.4l27.8 7.4l21.9 19.3l1.7 6.5l-1.9 13.4l-10.2 16.5l-1.3 7.1l6.7 12.3l32.8 -11l4.4 -3.7l3.8 -11.9l17.3 -11.3l17.6 -7l19 4.4l33.2 48.3l7.6 21.6l-0 10l-6.4 19.9l0.3 11.4l18.5 29.6l15 5l28 -0.5l8.9 12.8l12.7 3.2l4.1 -3.7l1.9 -8.2l-1.4 -25.7l11.5 -16.6l11.6 -9.6l10.3 -30.2l1.5 -10.6l-0.8 -20.2l-4.3 -23.1l-19.9 -26.5l-5.2 -10.5l-3.8 -64.4l-14.2 0.8l-16.9 -4.8l-39.2 -16.1l-21.9 -17.8l-16.9 -27.1l-37.7 -49.3l-28.4 -6.3l-15.5 1.9l10.9 29.6l7.5 11.1l-3.7 31.1l5.6 37l-10.6 33.1l-25.5 12.2l-9.2 -69.8l-12.1 -47.6l-22.1 -47.4l0.3 -5.7l15 -17.4l2.2 -10.3l-12.4 -55.7l-8.9 -13.4l-9.8 -28.4l-4.1 -22.9l-3 -6.9l-23.4 -42.8l-28.1 -27.3l-3.7 3.4l-47.5 -6.3l-54.5 18.9l-19.5 -16.4l5.6 -22.6l67.2 -11.9l20.2 -36l1 -11l36.9 -8.4l3.9 -26l-7.7 -11.6l10.6 -9.9l24.2 -8l19.8 0.6l11.8 5.9l21.2 24.7l8.4 1.1l26.6 -1.8l10.5 -5.9l4.1 -5.4l17.5 -18l1.4 -5.2l-2.4 -18.6l-12 -20l-45.2 -41.8l-18.2 -11.7l-25.1 -9.8l-4.8 -18.7l4.9 -61.9l-13.2 -3.9l-1.8 -16.2l-6.7 -8.2l-9.9 -3.2l-9.5 8.5l-9.1 12.8l-13.7 -7.2l-12.5 -2.4l-25.4 7.7l-0.3 51.4l-11.3 38.8l-42.7 75.8l-19.8 21.2l-12.1 47.8l-26.3 37.2l-22.2 62.5z" />
  </g>
  <g data-id="031">
    <path d="m156.6 2163.5l0 0l1.6 1.2l27.3 4l33 22.2l4.3 6l1 13.5l23.4 36.2l34.7 27.5l7.8 -2.7l11.1 2.5l10.6 10.7l9.7 37.2l7.1 52.9l6.2 5.3l22.7 3l29.9 36.3l6.8 14.9l6.4 25l10.4 64.8l20.6 48.8l17.6 63.1l9.3 53.9l4.1 8.2l7.1 32.5l9.2 66l3.9 3.6l3 23l392.9 -0.3l-0.3 28.7l691.8 1.5l0 -164.7l164.9 0l12.8 -5.4l495.8 1.5l9 -15.6l97.1 -113.8l20.5 -87.1l44.6 -108.1l39.1 -57.2l-6.6 -54.1l9.7 -7.9l28.1 90.4l-53.1 184.7l25.9 29.7l38.7 -45.7l29.7 -80.1l0.8 -22.3l9.4 -30.9l3.2 -50.6l20.6 -17.5l15.8 -6.3l39.7 -35.1l6.2 -14l2.7 -22.2l-12 -18.5l-3.6 -15l35 1l20.9 6.9l17.6 -4.4l3.2 -4.2l2.6 -12.2l27.5 -23.9l-10.9 -5.5l-23.7 0.6l-11.6 -9.2l-11 -19.6l1.4 -20.7l3.7 -9.7l-8.5 -19.4l-6 0.9l-25 -10.9l-3.2 -6.1l-0.3 -8.5l10.8 -28.1l-3.3 -17.6l-5.7 -8.2l-23.1 -1.4l-21.5 -28.2l-6.8 -38.9l27.5 -15.3l6 2.2l9.1 12.5l4.1 0.2l21.8 -17l1.2 -28.3l-10.5 -8.3l-6.5 -12.2l-12.7 -84.9l0.7 -18.5l5.6 -9.5l-14.4 -2.8l-25.7 10.6l-18.8 12.1l-19.3 36.6l1.2 2.5l7.9 -0.3l2.4 3.5l-0.9 28.8l-2.9 9.2l-31.2 9.6l-4.9 -6.9l-0.1 -10.6l-39.5 -65.3l3.8 -9.4l7.1 -9.1l18.5 -17.2l6.8 -1.4l31 -19.5l-14.8 -50.2l-30.2 0.5l-62.8 16.4l-55.1 45.1l-7.3 19.3l4.8 47.3l26.3 19.7l10.8 22.9l27.9 13.5l-5.6 52.3l-9.7 33.7l-14.6 11.2l-31.9 -0.3l19 -48.3l-21.3 -49.2l-52.4 -21.5l-10.6 -12.2l-0.5 -1.4l-28.1 0.3l-2.7 267.6l2.7 111.3l-712.2 -0.1l0 -27l-1113 -0.1l-79.9 -3.8l-220.4 4.8z" />
  </g>
  <g data-id="033">
    <path d="m2946.5 2585.4l0 0l19.4 36.4l13.3 11.1l13.4 5.5l9.9 -1.3l23.3 14.2l29.3 28.6l1 2.6l5.9 16.2l0.1 0.2l-4.4 15l-1.8 1.1l-17.8 11l-15.3 3.3l-6.7 -4l-15 -20l-18.8 22.4l-24.7 15l14.5 13.5l14.7 35.6l5.6 47.9l-3.3 18.2l12.7 24.6l27.4 26.1l5 13.2l-8.6 42l-19.3 16.5l20.6 5.5l6.4 4.5l8.8 6.2l5 21l0 14.6l4 13.5l16.4 14.2l8.7 14.7l3.5 17.2l0.7 49.9l0.4 31.3l-15.5 13.4l-34.8 10.3l-69.2 29l106.8 108.4l-0.1 10.4l4.6 0.4l46.7 0.2l83.2 -0.6l0.4 0l3.9 0l13.3 0.2l23.8 0.2l41.1 -0.4l27.3 0.7l6.5 3.2l1.6 3.9l-0.5 4.4l0.4 7.6l3.9 5l8.8 6.2l4.2 1.7l2 6.9l-1.9 3.1l0.6 5.2l2.6 1.2l3.9 1.2l3.8 5.7l-0.7 5.4l1 6.8l2.8 5.9l1.1 8.3l5.2 9.4l6.4 9.9l6.7 6.8l5.1 6.7l8.2 4.1l10.7 8.5l12.4 3.7l8.2 3.3l4.1 7.1l7.5 6.6l3.1 7.8l4.1 5.2l6.5 -0.1l3.2 -1.8l8 -2.4l7.6 -1.8l9.6 1.5l8.5 -2.8l8.8 3.5l1.6 4.4l8.3 1.5l3.4 -2.9l4.8 2.5l-0.2 3.9l1.9 6.8l5.7 3.9l4.6 -2.7l6.1 0.9l6.8 5.2l3 4.8l7.8 5.2l6.5 -2.1l11.7 5.9l2.3 18.2l11.5 8.9l5.5 2.1l6.8 -6.4l4.1 -5.6l5.4 -8.2l12.1 -1.7l8.4 -2.4l4.7 -4.8l10.6 -1.8l12.2 3.5l10.4 -1.6l2.3 3.4l7.1 1.8l4 -2.4l6.1 0.9l2.3 4.4l4.8 4.5l4 -0.9l8.5 3.6l5.2 3.8l7.9 -1.6l2.8 -4l3.8 -6.9l8 -6.3l7.9 -9.3l9 -2.9l2.9 -7.1l7 -6.1l7.7 -5.8l5.4 -5.5l3.7 0.8l5.3 -0.4l7.4 0.6l5.6 1.1l5.4 10.2l6.4 1.3l8.5 -2.9l6 4.6l5.2 2.6l7.3 2.1l2.2 -2.1l3.8 -1.4l2.4 3.3l11.8 7.4l6.6 5.2l6.7 7.5l9.3 0.3l14.1 0.6l10.3 0.8l9.1 2.4l5.9 -1.5l6.2 -5.9l5.7 -3l7.2 -2.2l3 -4.3l5.3 -2.5l3.7 2.5l6.2 2.8l5.6 3.8l7.6 -0.7l8.5 4.2l6.4 -0.2l5.3 2.1l4.7 2.7l5.9 6.9l2.3 4.8l7.1 2.6l5.3 9.7l5.5 9.2l6 8.5l4.9 7.5l1.4 5.3l5.3 2.3l7.4 2.8l3.9 0.5l4.9 -1.5l3.8 -1.2l6.3 1.5l6.3 -0.6l5.4 0.3l4.5 -3.4l5.5 -2.4l10.1 -0.6l6.2 0.7l8.6 -2.3l9.9 -0.3l6.9 2.2l6.7 0.2l6.5 0.9l3.3 5.1l2.8 2.8l7.9 2.2l4.9 1.5l2.7 -0.8l3.7 0.9l2.3 3.2l4.1 5.8l5.1 2.5l2.9 3.4l2.5 6.2l3.3 5.3l7 6.7l6.7 7.6l9.9 8.5l8.6 4.5l4.8 3.9l15.3 -2l12.5 -2l8.4 -4l6.4 -1.8l7.9 3.7l16.7 -0.5l13.2 1.4l2.5 1.7l0.4 -0.5l-29.2 -19.8l-7.1 -37.8l18.1 -27.6l37.5 -16.9l38 17.1l40.5 -11.8l7.1 -18.6l-25.5 -48l14.6 -25.2l-14.5 -46l-60.8 -23.4l5.5 -29.8l26.9 -12.8l5 -25.2l-6.8 -39l-90.2 -16.4l-20.2 1.6l-6.6 -30l-14.9 -6.2l17.6 -49.8l-18 -17.3l-27.2 -45.7l36 -7.5l14.8 -33.3l-1.5 -58.8l21.2 -7.3l33.1 -19l7.5 -37.5l51.7 -41.6l45.5 -18.3l24.9 -62l26 -8.8l35.8 -40.2l23.5 -47.6l51.8 5.3l5.5 -43.8l75.1 -13.7l-25.7 -91.7l15.5 -75.2l20.6 -6.8l50.5 -47.1l-27.3 -28.3l10.7 -20.3l-19.2 -36.1l-21.5 -0.4l-10.6 -41l-430.3 -1.2l-1 4.1l-164.1 2.6l-439.1 0.2l-81.8 3.1l-40.6 -0.4l-183.3 -1.3l-77.9 -0.9l-20.5 -0.4l-35.1 -0.3l-34 -0.6l-25.7 -0.4l-12.5 -0.1l-88.3 -0.5l2.5 10.9l18.2 26.1l-3.1 17.9l12.2 37.9l-4.2 24.2l-2.9 8l-2.2 6.1l-16.4 14.3l-13.6 23.2l-5.1 17.7l-28.1 40.3z" />
    <path d="m2823.5 3153.6l0 0l-2.7 25.2l11.9 23.1l17.8 5l15.1 0.8l2.4 -9.3l27.5 -17.8l15.6 3.9l4.5 -1.5l7.2 -22l13.5 -20.1l46.1 -29.7l29.8 -7.6l6.2 -6.4l-27.4 -20l-41.3 -5.4l-13.2 -10l-2.9 -18.1l0.7 -78.7l7.7 -14.8l-34.1 -38.7l-0.5 -13.1l10.3 -18.4l-28.5 -14.4l-10.3 52.9l-19.3 13.7l-19.8 50.7l-1.8 66.3l-15.4 29.2l11.4 56.5l-10.5 18.5z" />
  </g>
  <g data-id="035">
    <path d="m2851 2788.9l0 0l-9.1 7.6l12.2 36.5l15.2 6.1l16.7 -13.7l0 -25.8l-35 -10.6z" />
    <path d="m2259 2724.4l0 0l-62.8 123.9l98.2 -4.2l177.4 4l-0.2 221.1l175.4 0.5l150.9 -0.2l18.2 -48.1l1.8 -76.1l45.6 -78l-7.2 -9.5l-28.8 -16.5l-12.6 3.4l-17.5 -2.6l-0.8 -8.9l6.2 -18.2l-1 -35l10.8 -18.6l6.1 -4.4l14.8 -10.7l18.8 -2.1l31.4 -16.1l-6 -5.8l-13 -4.3l-5.5 -17.6l-2.7 -37.1l7.5 -11l2.2 -11.3l-0.5 -10.5l-11.4 -7.5l-20.7 -23.3l12.2 -37.1l5.4 -28.6l-0.2 -25.2l-8.4 -18.2l-16.3 1.3l-2.4 5.6l-6.5 0.5l-15.6 -11.6l-14.4 -66.1l21.9 -2.7l23 1.8l5.3 4.4l9.7 1.7l24.5 -1.1l14.3 -4.6l7 -7.2l1.9 -13.9l-1.4 -16.9l-30.8 -39.5l0.1 -19.7l13 -13.5l3.6 -9.8l-0.1 -11.9l-25.2 -20.7l-5 -10.2l-8.5 -61.3l-1.5 -32.3l-17.4 -47.8l-27.5 -25.2l-38.2 -12.9l-31.9 -28l-10.4 -0.6l-6.5 3.4l-4.2 14.2l4.6 12.2l26.2 9.4l10.2 13.9l2.4 20.8l16.9 53.3l-0.7 31.5l-44 1.6l-8.3 11.3l-11 27.8l-31.9 21.1l-43.4 46.2l-2.6 4.4l-8.3 38.5l-31 19.4l-6.3 13.7l-3.8 23.1l-13.2 21.3l-9.1 2.7l-17.4 119.2l-0.5 3.6l-64.4 34.7l-66.7 7.1l-77.4 54.8l-64.2 66.5z" />
  </g>
  <g data-id="037">
    <path d="m4179.5 3136.5l0 0l27.2 45.7l18 17.3l-17.6 49.8l14.9 6.2l6.6 30l20.2 -1.6l90.2 16.4l6.8 39l-5 25.2l-26.9 12.8l-5.5 29.8l60.8 23.4l14.5 46l-14.6 25.2l25.5 48l-7.1 18.6l-40.5 11.8l-38 -17.1l-37.5 16.9l-18.1 27.6l7.1 37.8l29.2 19.8l26.2 31.5l15.5 -15l45.9 3.4l39.1 -22.2l30.5 12.4l44.1 28.7l15.7 25.1l57 33.8l38.1 34.3l15.4 34l43.1 15.2l0.1 40.7l27 20.3l0 20.4l54 67.9l501.5 -1.5l12 161.6l149.1 1.7l-1.8 162.4l78.1 0.7l608.8 0.8l3.9 -33.3l34.4 -36.8l20 -44.4l-0.1 -34.9l-47.9 -78l2.2 -112.3l-3.8 -46.7l-44.8 -93.5l-12.8 -85.8l-27.9 -28l-12.5 -32.5l21.4 -66.3l18 -9.4l12.7 -26.9l1.2 -37.2l-12 -28.9l8.2 -40.2l2 -55.7l-5.7 -14.8l-15.4 -12.3l-72.8 1.4l-23.7 -68.3l-0.4 0l-11.1 0.1l-37.3 0.3l-44.2 -0.6l-54.1 -0.1l-38.6 0.3l-47.6 1.7l-34.5 0.2l-39.7 0.1l-53.8 0.3l-16.9 -2.2l-5.7 -5.4l-3.5 -6.4l-5.2 -5l-14.9 -5.8l-10.4 -2.1l-8.2 0.6l-10.9 -13.3l-12.2 -10.7l-4.8 -11.8l-8.5 -7.8l-6.8 -4.1l-7.7 -5.3l-5.7 -3.7l-5.7 -4.1l-3.5 1l-3.5 2.3l-8.3 -4.1l-1.9 -9.5l-8.2 -6.5l-7.8 -3.2l-16.3 -4.4l-7.5 -16.9l-4.3 -7.8l-4.2 -0.9l-5.6 7.1l1.5 11.2l2.3 9.4l-3.7 6.9l-5.9 1.3l-13.9 8.6l-9.3 4.3l-9.6 0.4l-8.4 -5.5l-0.1 -9.5l-2.4 -12.9l-8.1 -13.8l-1.7 -11.6l-8.8 -4.8l-12.4 -2.4l-12.8 0.8l-13.4 -9.9l-11.5 1.4l-3.3 2.5l-1.6 -0.4l-3.3 1.1l-3 0.2l-1.8 -0.7l-1.4 -1.3l-1.6 -1l-1.9 -0l-1.9 -0.2l-1.9 0.1l-2.5 0l-2.8 0.8l-2.2 1.1l-1.7 0.8l-1.9 0.4l-1.8 -0.6l-1.9 0l-1.8 -0.4l-1.9 0l-1.4 -1.4l-0.6 -1l-1.4 -1l-1.2 0.5l-2 0.3l-1.9 0.5l-2.2 0.3l-1.4 -1.1l-1.3 -1.5l-1.5 -1.2l-1.9 -0.5l-1.6 -0.9l-1.2 -1.4l-1.4 -1.3l-1 -1.2l-1.3 -2.5l-0.9 -1.8l-1.5 -1.6l-1.8 -0.2l-1.5 1.2l-1.2 1.4l-1.1 0.2l-1.7 -0.9l-0.5 -1.7l-0.5 -1.9l-1.3 -1.4l-1.5 -0.9l-1.4 -1.6l-1.3 -1.4l-1.6 -0.9l-1.7 -1.1l-2.6 -2.3l-0.5 -2l-0.4 -2l-0.7 -1.8l-0.9 -1.7l-1.5 -1l-1.3 -1.3l-1.6 -1l-1.4 -1.4l-1.6 -1.4l-1.5 -1.2l-1.7 -0.6l-1.9 -0.2l-2 0l-1.9 0.3l-1.9 0.2l-1.8 -0.3l-1.7 -1.2l-0.7 -1.7l-1.2 -1.4l-2 -0.4l-2.3 -0.5l-1.8 -0.7l-1.9 -0.3l-1.7 -0.9l-1.7 -1l-0.9 -1.5l-0.4 -1.9l-1.3 -1.4l-0.7 -1.6l0.1 -1.9l-0.6 -2.1l-0.8 -2.1l-0.5 -2.3l-1 -2l-1 -1.8l-1.3 -1.9l0.1 -2.7l0.5 -2.4l-0.9 -1.5l-0.3 -1.7l0.5 -1.9l0.9 -2.2l0 -1.9l-1.4 -1.3l-1.2 -1.5l-1.4 -1l-2.3 -1.7l-0.5 -1.8l-1.5 -2l-3 -1.4l-5.1 0.9l-3.1 -0.6l-2.8 -0.9l-3.8 0.7l-4 -1.4l-3.1 -1.2l-3.6 -1.7l-1.6 -2.7l-2.3 -0.4l-5.7 -0.7l-5.3 -2l-5.6 -0.3l-4.6 -1l-3.8 0.1l-2 0.2l-2.4 0.3l-2 -0.2l-2.8 -3.5l-1.5 -4.4l-1.7 -2.8l-3.2 -1.6l-2.7 -2.6l-2.1 -6.1l-0.3 -3.9l0 -2l-1.3 -1.4l-1.5 -1.2l-1.4 -1.3l-1.3 -1.5l-1.1 -1.6l-0.7 -1.8l-0.4 -1.8l-0.9 -1.7l-1 -1.6l-0.5 -2.1l-0.6 -1l-1.3 -0.7l-0.9 0.8l-1.1 1.8l-1.4 1.3l-1.7 0.9l-1.8 0.7l-2.8 0.6l-2.1 0.3l-2.2 -0.6l-1.7 -0.9l-2 -0.2l-2.1 -0.3l-2 -1l-2.5 -1.6l-2.4 -0.9l-2.7 -1.2l-1.5 -0.8l-1.6 0.1l-0.8 0.9l-1.6 1.3l-1.7 2.1l-1.2 1.7l-1.2 1.5l-1.6 1.1l-1.6 1.5l-0.7 1.8l0.2 1.9l-0.3 1.9l-1.1 1.6l-1.5 1.6l-2.8 2.3l-1.9 1.2l-2 -0.5l-2.7 -1.8l-2.2 -0.7l-2.2 -1.1l-1.4 -1.3l-1.4 -1.4l-1.6 -1l-1.7 -0.9l-1 -1.6l-1.2 -1.5l-1.3 -1.4l-1.3 -1.3l-1.8 -0.7l-1.5 -1.3l-1.5 0.3l-1.4 1.5l-2.5 1.5l-1.6 1.3l-0.7 2.5l-1.5 1.3l-1.7 0.8l-1.9 0.6l-1.8 -0.4l-1.4 -1.3l-1.5 -1.2l-1.6 -1.3l-1 -1.7l-1.5 -2l-1.4 -1.3l-1.7 -0.8l-1.7 -1l-1.4 -1.1l-1.6 -1.1l-1.4 -1.2l-1 -1.7l-0.9 -1.7l-1 -1.6l-1.5 -1.2l-1.5 -1.3l-1.4 -1.1l-1.4 0.2l-1 1.5l-1.7 0.8l-2.4 -0.1l-1.9 0.1l-1.9 -0.3l-1.8 -0.7l-1.9 -0.6l-1.9 0.4l-1.8 0.8l-1.3 1.4l-1.7 0.8l-1.9 -0.4l-1.5 -1.2l-1.5 -1.2l-1.3 -1.4l-1.5 -1.1l-1.7 -0.2l-1.7 -1l-1.8 -0.8l-1.5 -1.2l-1.2 -1.5l-1.4 -1.2l-1.2 -1.4l-1.4 -1.3l-1.6 -1.1l-0.8 -1.7l-0.2 -1.7l0.6 -1.8l-0 -1.9l-0.5 -1.7l0.2 -1.9l0.1 -1.9l0.4 -1.9l0.2 -1.9l-0.9 -1.5l0.1 -1.8l0.5 -1.8l0.3 -1.8l0.5 -1.9l0.7 -1.7l0.4 -1.1l-0.5 -1.2l-1.1 -0.5l-1.8 -0.7l-1.5 -0.9l-1.1 -1.4l-2.8 -2.6l-1.4 -2.2l-0.4 -1.9l0.2 -1.9l-0.2 -1.9l0.2 -1.9l-0.2 -1.6l-1.4 -1.4l-1.6 -1.1l-1.9 -0.4l-1.9 -0.2l-1.9 -0l-1.9 -0.2l-1.9 -0.1l-1.7 -0.9l-1.9 -0.5l-1.9 -0.4l-1.9 -0.2l-1.8 -0.3l-1.7 -0.6l-2.1 -0.5l-1.7 -0.8l-0.7 -0.9l0.2 -1.1l0.6 -1l0.2 -1.9l0.3 -1.9l-0 -1.9l1 -1.5l1 -1.5l1 -1.7l0.3 -1.8l1.2 -1.5l1.2 -1.4l0.7 -1l0.1 -1.4l-0.6 -0.7l-1.5 -1.2l-1.3 -1.4l-1.1 -1.5l-0.9 -1.5l-1.6 -0.9l-1.9 -0.2l-1.4 -1.1l-1 -1.6l-0.9 -1.7l-0.8 -1.8l-1.7 -0.9l-1 -1.6l0.3 -1.8l0.7 -1.8l-1 -1.4l-0.9 -0.8l-1.8 -0.4l-1.7 -0.6l-1.5 -1.3l-1.4 -1.3l-1.7 -0.9l-1.7 -1.4l-1.5 -1.3l-1.8 -0.3l-1.9 -0.1l-1.9 -0.2l-1.7 -1l-1.6 -1l-1.5 -1.2l-1.7 -0.6l-2 -0l-1.5 -1.2l-1.1 -1.6l-1.4 -1.3l-1.1 -1.5l-1.3 -1.4l-1.1 -1.6l-1.1 -1.6l-0.1 -1.9l-1.5 -1.2l-1 -1.6l-1 -1.7l-3.1 -4.1l-0.4 -2l-1.1 -1.7l-1.5 -1.2l-1.2 -1.4l0.3 -1.9l-0.1 -1.9l0.7 -1.7l1.2 -1.4l1.4 -1.2l-0.1 -1.8l1.1 -1.6l-0.4 -1.9l-1.1 -1.6l-0.8 -1.8l-0.9 -1.7l-1.5 -1.2l-1.4 -1.3l-0.5 -1.9l-0.2 -1.9l-0.6 -1.6l-1.9 -0.5l-1.9 -0.4l-1.9 -0.5l-2.4 -0.8l-1.7 -0.8l-1.7 -0.5l-1.4 -1.3l-1.8 0.3l-1.7 -1l-1.8 -0.4l-1.9 0.2l-1.8 0.3l-1.7 -0.7l-2.1 -0l-1.7 -0.8l-1.8 -0.5l-1.5 -1.2l-1.7 -0.7l-1.8 -0.6l-1.3 -1.8l-0.5 -1.8l-0.1 -1.9l-0.7 -1.8l-0.2 -2l-1.6 -0.8l-1.5 -1.1l-1.7 -1l-1.1 -1.6l-1.4 -1.1l-1.6 -1l-1.6 -1.2l-1.7 -1l-1.8 -0.8l-1.7 -1l-1.5 -1l-1.4 -1.1l-1.5 0.5l-1.6 0.4l-1.8 -0.2l-1.9 -0.3l-1.3 1.4l-1.1 0.4l-0.6 -0.9l-0.6 -1l-1.3 -1.1l-1.4 -1.4l-1.4 -1.4l-1.5 -1.2l-1.7 -0.4l-1.7 -2.4l-1.4 -1.2l-1.3 -1.7l-1.2 -2l-1.6 -0l-1.1 -0.3l0.4 -0.7l0.2 -1.1l-0.2 -1.9l-0.5 -1.9l-1.3 -1.4l-1.5 -0.9l-1.8 -0.8l-1.3 -1.5l-0.6 -1.8l-1.5 -1.2l-1.8 -0.8l-1.6 -1.1l-1.4 -1.3l-1.9 -0.6l-1.7 0.5l-1.2 0.3l-1.2 -0.9l-0.5 -1.1l-0.4 -1.9l-0.3 -1.8l-0.7 -1.7l-1 -1.5l-0 -1.9l-0.7 -1.8l-0.3 -1.9l-0.2 -1.9l-1.5 -1.2l-1.3 -1.2l-1 -1.5l-0.6 -1.6l-1.3 -1.5l-1.3 -1.4l-1.3 -1.8l-1.4 -1.7l-1.4 -1.2l-0.8 -1.7l-0.8 -1.8l-0.7 -1.7l-1.2 -2l0.1 -1.9l0.9 -1.9l1.4 -1.3l1.6 -1.5l0.9 -0.5l0 -0.7l-0.5 -0.1l-0.9 -1l-0.2 -1.2l-0.6 -1.9l-1.5 -1.7l-0.7 -1.6l-1.2 -1.5l-0.4 -1.9l0.6 -1.9l-1.1 -1.4l-1.1 -1.4l0.1 -1.9l0.1 -1.9l0.1 -1.9l-0.8 -1.7l-1.5 -1.1l-1.2 -1.6l-0.6 -2l-0.9 -1.3l-1.7 -0.9l-1.8 -0.6l-1.7 -0.7l-1.9 0.2l-1.5 1.5l-1.9 -0.1l-1.7 -1l-1.5 -1.3l-0.9 -1.7l-0.5 -0.9l-1.1 -0.4l-0.4 0.4l-1.4 -0.3l-0.6 -1l-0.1 -2.2l-0.3 -1.9l-0.8 -1.5l-1.1 -0.9l-1.2 -1.4l-0.2 -0.4l-75.1 13.7l-5.5 43.8l-51.8 -5.3l-23.5 47.6l-35.8 40.2l-26 8.8l-24.9 62l-45.5 18.3l-51.7 41.6l-7.5 37.5l-33.1 19l-21.2 7.3l1.5 58.8l-14.8 33.3l-36 7.5z" />
  </g>
  <g data-id="039">
    <path d="m3992.4 5606.3l0 0l4.6 319.7l-0.8 161.3l117.5 1l-26.8 21.8l21.7 40.3l-3 42.6l1.7 0.4l29.7 7l46.4 35.7l27.7 7.4l22.6 6.1l28 2l37.3 -18.7l44.5 -3.4l32.7 9.2l31.8 23.6l46.2 15.8l45.3 13.1l19.7 39.2l6.6 37.2l-1.7 23.5l16.3 18.7l20.5 0.6l28.5 -3.3l7.7 -7.5l9.6 4l5.4 -5l7.1 -6.5l6.6 -3.7l-3.9 -9.2l44.9 -45.3l26.3 -8.5l39.4 2.8l33.4 -4.1l30.7 8.9l7 -1.8l31.9 -13.5l11.6 0.5l35.9 27.6l0.1 0.1l3 2.3l22.9 -5.3l32.7 -33.5l18.4 -18.9l85.5 -26.9l82.8 -37l44.5 -17.2l26.2 -26.2l19.6 -13l23.8 -15.8l56 -1.3l40.6 15l48 52.2l20.6 18l30.1 10.3l100.3 -8.8l95.8 -21.6l51.7 -16.7l8.3 -2l91.3 -8.6l51.6 -66l37.2 -20.5l91.1 -22l88.3 -49.1l2.1 -1.1l43.2 -21.8l74.6 -6.9l40.1 -12.1l10.1 -2.2l3.1 -376.9l-719.6 1.3l-26.9 -2.4l-159.7 -0l-632.6 -1.2l-82.2 -4.3l-498.1 1l-115 -0.2z" />
  </g>
  <g data-id="041">
    <path d="m1742.6 4218.3l0 0l0.6 107.2l6.8 159.3l0.1 161.7l7.1 0.8l0.7 18.5l0.8 312.1l127 1.1l52.6 -4l132.7 -4.5l218.1 1.2l742 0.1l3.7 2.3l153.3 1.4l5.4 -1l156.7 -1.1l757.3 -3.2l164.5 -3.7l9.2 -37.8l-27.1 -37.7l-5.4 -53.1l-30.5 -30.4l16.2 -31.2l-34.5 -20.1l-1.4 -56.5l27.1 -9.8l22.2 -36.3l-15.2 -21.1l24.2 -23l-2.4 -35.6l26.7 -36.7l-10.8 -45.9l-23.7 -5.4l7.1 -65.2l40.3 -5.2l1 -35l29 -13l-20 -25.9l-50.1 -3.9l-29.6 -25.4l7.5 -29l-21.2 -1.4l-17.1 -47.8l-388.1 0l-23.6 13.7l-51.6 54.5l-18.4 31.8l-13 3.3l-32.7 -1.3l-81.6 -21l-33.1 -27.4l-26.2 19.6l-39 -15l-19.6 19.2l-22.9 -0.5l-52.4 -18.1l-42.5 6.2l-17.2 -10.8l-62.5 -1l-32.3 -14.7l-349.6 0l-13.3 1.9l-80.6 -2.6l-84.5 2.4l-697.3 -4.1l0.4 -54.3l-244.1 -0.2l-25 2.6z" />
  </g>
  <g data-id="043">
    <path d="m7364.6 2527.1l0 0l-4.7 809.9l1193.9 3.2l109.4 -1l175.6 0.7l0.9 -281.6l1.5 -388.6l2.6 -81.4l-1.6 -320.2l-12.7 -16.3l-64.7 -25.1l-6.2 17.4l-34 5.9l-28.9 22.9l-39.1 -17.2l-30.7 -4.1l-18.1 21.2l-11.8 33.7l-28.8 5.5l-15.6 19.8l-10.3 -13.2l-28.1 -1.5l-27 -44.9l-23.7 -17.2l-3.6 -36.7l-29.6 -62.6l-20.6 0.4l-0.4 -24.3l-20.9 -7.7l-0.1 -17.6l-30 -34.2l-15.7 -32.7l-22 10.1l-21.2 -6.4l-17.7 16.8l-73.2 49.6l-5.8 23.8l-24.6 3.8l-11.5 22.4l-9.2 78.1l-15.3 17l-30.2 3.8l-68 -28.2l-13.2 -17.1l-1 -38.9l-12.8 -14.3l-43.7 16.3l-38.6 -2l-16.4 -17.3l13.5 -59l-47.2 -33.3l-104.4 9.9l-12.7 -19.7l-33.8 -10.1l-24.6 17.5l-5.2 57.7l-23.8 6.1l-67.7 -29.7l-36.7 -8.7l-22.4 -24.5l-4.6 -33.1l-24.2 -14.2l-134.4 32.6l-21 -4.9l-3.3 483.5z" />
  </g>
  <g data-id="045">
    <path d="m1569.9 2688.5l0 0l0 164.7l1.1 489.7l18.2 0.6l2.4 330.4l153.8 0.4l213.4 -4.9l162.2 0.5l0.2 -11.4l1.7 -28.9l16.7 -14.6l33.9 -1.9l23.9 -16.5l6.3 -36.7l10.3 -15l42.6 -19.2l20.9 -16.1l7.4 -29.2l13.8 -7.2l31.9 25.4l4.9 20.8l5.1 13.9l57 -18.6l26.5 -77l-22.9 -47.9l-9.7 -68.7l22.9 -53.1l30.1 -40.3l3.3 -15.5l-7 -48l4.3 -18.3l22.1 11.8l2.3 6.4l2.3 -10.1l-0.2 -84.7l0.2 -221.1l-177.4 -4l-98.2 4.2l-22.4 44.2l-110.4 199.5l6.1 29.1l38.1 2.5l36.8 11.8l55.9 -19.2l45.6 -33.1l77.8 -33.2l19.8 -14.9l36.8 -3.6l-7 23.7l-42.9 41.4l-35 10.9l-57.8 16.4l-59.3 44.7l-53.5 -1.2l-50.1 -20.8l-36.9 28.6l-20.2 -15.6l63.3 -193.6l162.5 -281.3l-495.8 -1.5l-12.8 5.4l-164.9 0z" />
  </g>
  <g data-id="047">
    <path d="m4921.9 53.2l0 0l15.7 24.3l31.2 13.3l17.3 32.3l55.5 -39.2l30.1 9.6l18.5 35.5l-20.9 17.2l-2.3 40.3l12.1 14l-5.4 45l40.5 23.4l5 18.2l-14.1 64l8.9 69.1l12.7 25.4l20 3.1l40.6 71.3l28.5 20.8l-28.6 12.6l0.1 41.9l-32.4 -1.4l-19.5 43.4l-42.5 33.9l-46.6 61.7l5.9 45l29.7 36.9l38.1 0.9l10.3 -26.8l43.6 39.5l-25.8 65.5l8.5 19.7l0.6 -0.3l30.8 1.5l19.3 -6.3l15.3 0.6l1.7 12.3l-9.7 17.4l1.1 13.1l8.3 11.9l9.8 4.9l10.4 13.4l-2.3 0.4l-13.1 9.2l-7.8 11.4l3.9 16.3l10.6 5.6l-0.9 14l-14.7 17.2l-12.1 11.6l-1.2 17.5l13 9.2l6.3 49l1.3 16.7l8.6 12.9l21 -2.2l24.9 18.7l25.5 16.3l22.9 13.9l-1.8 36l-15.9 20.6l-4.9 30.2l15.7 18.6l24.1 13.3l37.5 4.4l21.8 1.9l19.2 33.8l28.4 26.6l26.8 31l32.3 19.8l46.9 25.2l1 25l20.4 10.6l9.6 -0.5l19.7 30.3l-6.4 30l-12.8 37.2l12 37.5l31.2 29.8l5.8 10.8l7.8 5.4l17.7 -4.7l5.4 -3.6l12.6 2.7l4.1 6.2l8.9 3.4l7.9 7.9l12.7 15.1l11.2 8.1l11.5 8.4l10.9 13l2.1 10.7l12.7 8.3l9.4 2.5l14.4 10.5l22.6 0.4l7.7 6.6l21.9 10.1l7.9 0.3l11.7 5.7l9.1 1.8l10.3 12.4l3.6 4l-1.2 5.5l-6.7 -0.5l-6.7 1l-5 6.5l-2.8 10.1l8.7 17.2l21.7 5.7l7 5.5l8.4 9.6l10.4 4.2l7.9 2.6l10.9 5.5l5.6 9.8l6.2 11.6l4.7 13.2l-2 4.7l-1.1 9.6l12 13.2l5.1 6.1l4.5 9.8l-2.9 6.6l-4.3 6.4l2.1 6.8l3.5 1.5l10.2 5l9.9 5.1l88.5 1.7l48.6 0.2l26.3 -0.1l36.8 0l25.8 -0.3l3.3 0.3l-14.7 -18l12.4 -44.5l3.7 -49.2l-33 -59.7l4.7 -9.6l61.9 -42.1l44.6 -18.8l34.5 0.1l8.8 -33.4l35.5 3.2l25.8 33.6l33 1.9l21.2 -17.7l17.7 48.5l-29.7 68.6l6.4 17.8l46.3 43l27.4 7.5l21.2 -7.3l24.7 -39.7l99.2 -79.9l1.9 -23.3l19.3 -14.6l82.8 11l41.1 49.2l43 -3.3l34.5 6.2l19.9 -39.9l0.5 -50.5l37 -36.1l53.4 25.8l30.1 -21.4l23.1 -4.1l19.3 -18.9l26.7 -5.2l36.3 -34.8l34.8 -7l21.1 17.8l64.3 6.6l36 45.7l12.9 83l20 50.8l29.4 11.5l37.7 35.1l-18.6 67.2l-21.6 41.5l0.7 26.8l10.4 8.7l21 4.9l134.4 -32.6l7.9 -10.6l2.4 -995.1l-32.8 0.2l-0.1 -332.9l41.7 -0.1l0.5 -673.2l-378 0.1l-6.6 -0.1l-372.8 0.1l-37.1 -0l-311.5 0l-1 -0l-222.8 -0.3l-159.9 2l-43.9 -0.2l-435.8 -2.3l-435.4 1l-172.6 -0.2l-18 39.9l-25.6 9z" />
  </g>
  <g data-id="049">
    <path d="m812.1 4214.6l0 0l2.2 18.1l2.1 51.5l-1.9 19.8l5.6 8.5l14.3 12.4l22.9 2.5l21.4 14.9l5.5 5.4l-0.5 5.1l25.7 20.6l24.2 12.4l11.8 -10.4l8.6 0.8l17.7 7.7l8.7 -3.4l-10.6 -16.4l-5.8 -19.9l6 -16.3l8.2 -5.1l25.4 20l25.1 0.2l15.6 -2.7l5.1 -7.3l-3.8 -12.5l-0.7 -7.5l7.2 -10.1l15.4 -6.5l7.1 0l20.9 36.5l7.5 4.3l11 1.1l17.2 14.7l19.5 2.9l5.4 17.4l-4.8 12.2l-23.5 -0.2l-17.3 7.2l-39.3 28l-25.6 9.4l-9.8 11.1l3 35.7l-1.3 6.2l-23.9 17.5l-25.6 8.4l1.9 42.4l4.6 18.6l21 13.5l13.1 13.9l8.4 22l2.7 18.1l4.3 8.8l17.4 19.9l11.6 27.7l-3.8 15.9l0.7 10.8l-31.3 27.8l-28.8 56.7l5.4 18.7l-4 3.6l-32.6 -15.4l-3.6 -3.5l-10.7 -27.1l0.2 -13.8l-5.9 -2.2l-6 2.9l-5.5 15.6l-1.9 36.7l4.2 5.8l0.3 5l2.8 33.4l15.1 7.1l14.4 14.8l-2.1 32.5l6.4 12.7l15.4 -2.6l-4.9 58.4l-13.1 4l-26.8 -3.6l-28.6 13.4l-10.3 -13.4l-13.8 -156.4l-7.3 -62l7.3 -65.5l3.7 -60.5l-0.5 -34.3l-6.7 -15.8l-28.2 -49.1l-2.4 -10l21.5 -15l-16.1 -28l-10.3 0.3l-8 5.7l-7.6 14.4l-1.2 7.9l1.5 54.5l8.3 84.2l6.3 116.8l-0.5 156l-1.2 42.3l-8 110.5l-8.6 39.6l-6.2 16.7l-7 40.3l-0.6 10.3l1.9 3.6l25.2 -21.3l21.7 5.2l6.7 -14.3l4.1 -24.4l7.3 -21.2l12 -13.8l24.7 4.6l20.5 7.8l13.7 11.1l5.3 6.9l-0.7 10.2l1.9 4.6l19.3 26.6l44.5 47.7l13.1 10.6l43.2 10.6l88.8 -81l13.5 -1.7l16.5 7.9l9.7 10.4l10.7 2l9.1 -2.9l23.1 -28.1l16.5 2.9l0.9 -1.8l1.7 -176.4l471 1.6l-0.8 -312.1l-0.7 -18.5l-7.1 -0.8l-0.1 -161.7l-6.8 -159.3l-0.6 -107.2l-601.6 0.5l-19.5 1.8l-51.9 -3l-257.5 -2.9z" />
  </g>
  <g data-id="051">
    <path d="m9087.4 505.4l0 0l0.2 168.2l165.4 -0.6l-0.2 806.3l-2.7 28.3l-0.2 170.1l82.8 0l0.8 167.5l505.7 3.3l0 -0.2l0.4 -76.5l0.4 -75.5l2 -94.1l0.2 -6.3l-0.3 -1.7l0 -4.2l0 -1l0 -0.5l-0 -5.5l0 -0.7l1.3 -45.2l4.4 -313.3l0 -0.7l-0.1 -99.2l0 -0.8l-0 -12.9l0 -0.6l-0.2 -134.7l1.2 -233.6l0.2 -15l0.9 -54.9l0.4 -180.3l1.2 -187.9l0.4 -55l-0.3 -242l-119.9 0.6l-181.9 -1.8l0.1 -0.2l-206.9 -0.9l-0.5 150.4l-87.7 0l0.6 167.8l-83.6 0.4l0.1 182l-83.9 0.6z" />
  </g>
  <g data-id="053">
    <path d="m2591.3 3668.9l0 0l4.7 25.6l36.3 64.8l5 41.9l53.4 32.7l-10.7 36.1l11.6 12.5l22.4 8l0.7 -17.8l58.7 19l-8.9 11.9l14.9 50.1l41.7 15.9l43.2 37l3.9 69.7l41.8 7.7l9.9 21.2l92.3 24.6l9.4 -11.3l42.1 13.9l13.5 -11.9l3.3 25.9l27.5 4.4l-3.4 40.8l-3.3 31.5l50.2 42.3l40.3 -15.9l44.7 22.9l32.3 14.7l62.5 1l17.2 10.8l42.5 -6.2l52.4 18.1l22.9 0.5l19.6 -19.2l39 15l26.2 -19.6l33.1 27.4l81.6 21l32.7 1.3l13 -3.3l18.4 -31.8l51.6 -54.5l23.6 -13.7l388.1 -0l16.2 -16.6l-40.8 -51.8l-29.4 -79.4l-32.9 -18.6l32.4 -64.8l52.4 -29.5l9.4 -21l-11.4 -49.1l20.8 -23.2l-4.7 -13.7l50.4 -34.7l0.3 -25.2l14.7 -20.8l-6.5 -19.1l32.9 -44.2l-7.5 -56.8l-2.5 -1.7l-13.2 -1.4l-16.7 0.5l-7.9 -3.7l-6.4 1.8l-8.4 4l-12.5 2l-15.3 2l-4.8 -3.9l-8.6 -4.5l-9.9 -8.5l-6.7 -7.6l-7 -6.7l-3.3 -5.3l-2.5 -6.2l-2.9 -3.4l-5.1 -2.5l-4.1 -5.8l-2.3 -3.2l-3.7 -0.9l-2.7 0.8l-4.9 -1.5l-7.9 -2.2l-2.8 -2.8l-3.3 -5.1l-6.5 -0.9l-6.7 -0.2l-6.9 -2.2l-9.9 0.3l-8.6 2.3l-6.2 -0.7l-10.1 0.6l-5.5 2.4l-4.5 3.4l-5.4 -0.3l-6.3 0.6l-6.3 -1.5l-3.8 1.2l-4.9 1.5l-3.9 -0.5l-7.4 -2.8l-5.3 -2.3l-1.4 -5.3l-4.9 -7.5l-6 -8.5l-5.5 -9.2l-5.3 -9.7l-7.1 -2.6l-2.3 -4.8l-5.9 -6.9l-4.7 -2.7l-5.3 -2.1l-6.4 0.2l-8.5 -4.2l-7.6 0.7l-5.6 -3.8l-6.2 -2.8l-3.7 -2.5l-5.3 2.5l-3 4.3l-7.2 2.2l-5.7 3l-6.2 5.9l-5.9 1.5l-9.1 -2.4l-10.3 -0.8l-14.1 -0.6l-9.3 -0.3l-6.7 -7.5l-6.6 -5.2l-11.8 -7.4l-2.4 -3.3l-3.8 1.4l-2.2 2.1l-7.3 -2.1l-5.2 -2.6l-6 -4.6l-8.5 2.9l-6.4 -1.3l-5.4 -10.2l-5.6 -1.1l-7.4 -0.6l-5.3 0.4l-3.7 -0.8l-5.4 5.5l-7.7 5.8l-7 6.1l-2.9 7.1l-9 2.9l-7.9 9.3l-8 6.3l-3.8 6.9l-2.8 4l-7.9 1.6l-5.2 -3.8l-8.5 -3.6l-4 0.9l-4.8 -4.5l-2.3 -4.4l-6.1 -0.9l-4 2.4l-7.1 -1.8l-2.3 -3.4l-10.4 1.6l-12.2 -3.5l-10.6 1.8l-4.7 4.8l-8.4 2.4l-12.1 1.7l-5.4 8.2l-4.1 5.6l-6.8 6.4l-5.5 -2.1l-11.5 -8.9l-2.3 -18.2l-11.7 -5.9l-6.5 2.1l-7.8 -5.2l-3 -4.8l-6.8 -5.2l-6.1 -0.9l-4.6 2.7l-5.7 -3.9l-1.9 -6.8l0.2 -3.9l-4.8 -2.5l-3.4 2.9l-8.3 -1.5l-1.6 -4.4l-8.8 -3.5l-8.5 2.8l-9.6 -1.5l-7.6 1.8l-8 2.4l-3.2 1.8l-6.5 0.1l-4.1 -5.2l-3.1 -7.8l-7.5 -6.6l-4.1 -7.1l-8.2 -3.3l-12.4 -3.7l-10.7 -8.5l-8.2 -4.1l-5.1 -6.7l-6.7 -6.8l-6.4 -9.9l-5.2 -9.4l-1.1 -8.3l-2.8 -5.9l-1 -6.8l0.7 -5.4l-3.8 -5.7l-3.9 -1.2l-2.6 -1.2l-0.6 -5.2l1.9 -3.1l-2 -6.9l-4.2 -1.7l-8.8 -6.2l-3.9 -5l-0.4 -7.6l0.5 -4.4l-1.6 -3.9l-6.5 -3.2l-27.3 -0.7l-41.1 0.4l-23.8 -0.2l-13.3 -0.2l-3.9 -0l-0.4 -0l-83.2 0.6l-46.7 -0.2l-4.6 -0.4l0.1 -10.4l-106.8 -108.4l-6.7 2.8l-24.9 24.1l-2.1 11.2l15.7 8.3l10.4 -2.8l13.4 6.8l5.8 10.1l-11.4 12.8l-14.8 22.7l-10.4 3.1l-8.3 2.5l-35.1 -20l-78.9 -74.1l-8.8 -3.6l-9.2 1.5l-0.4 2.5l25.8 46.9l-13.3 27.1l-29.2 59.4l-1.4 2.9l-23.7 63.5l-13.2 60.8l-30.7 16.9l-20.8 2.8l-6.1 7l-6.1 27.9l5.7 25.5l-11.4 0.9l-7.1 5l-35.2 53.7l-19.9 0.5l-17.7 34.4z" />
    <path d="m2418.8 3326l0 0l-1.2 19l13.4 26.5l78.3 143.7l10 1.9l16.9 17.4l9.8 10.1l26.6 27l13 17.8l12.2 7.2l9.8 -3.8l2.3 -8.9l11.1 -17.3l11.2 -4l2.6 -14.9l-0.6 -46.6l-7.5 -9.3l2.6 -21.6l26.1 -4.6l16.6 -11.4l3.2 -10.2l-8.9 -20l-14 -6.9l-10 -7.7l-15.8 -14.7l-6.9 -2.2l-24.7 2.6l-5.3 -1.9l-20.6 -7.4l8.6 -26.7l-40.3 -49.7l5.6 -39.1l25 -62.9l69.4 -68.7l41.4 -20.7l8.5 2.7l-3 11l-46.6 50.6l-33.4 112.8l6.3 7.4l30.5 18.1l53.2 65.6l16.3 27.8l15 6.3l15.4 -19.3l2.1 -17.7l13.6 -33.3l39.3 -57.6l-3.3 -9.7l-27 -47.4l-3.2 -5.3l-2.9 -15.1l5.9 -1.5l19.8 -38.3l5.5 -22.7l18.5 -30.9l-18 -35.1l6.4 -16.9l-150.9 0.2l-175.4 -0.5l0.2 84.7l-2.3 10.1l7.9 22.2l-3 98.8l-22.5 24.2l-21.8 5.1l-11.1 11.7z" />
  </g>
  <g data-id="055">
    <path d="m2246.4 406.8l0 0l-3 22.8l71.5 52.6l34.3 16.7l66 15.9l34.3 -13.2l-75.3 -37.9l-77.6 -50.7l-50.2 -6.1z" />
    <path d="m2127 588.1l0 0l29.9 8.1l13.7 11l0.9 9.2l-7.6 13l-0.9 5.8l27 -11.1l8.7 -6.9l12 -18.1l-3.1 -47.5l-2.9 -6.6l-12.7 1.9l-7.4 6.5l-18.8 1.3l-38.7 33.6z" />
    <path d="m1957.4 789.1l0 0l0.4 11.5l6.3 7.7l16.4 -1.5l15.2 15.2l1.4 13.2l-5 7.3l-0.5 12.3l4.9 10.9l14 17.1l-0.5 16.2l-2.8 7l1.1 11.7l15.6 30.1l12.3 16.7l28.2 24.5l66.2 25.2l12.2 15.4l24.3 22.2l98.7 17.1l30.9 -9.8l14 -9l8.7 4.7l4.7 10l-14.8 25.6l13.1 0.4l5 -6.7l13.7 12.1l18.2 2l-5.9 25.6l12.6 7.4l12.3 1.2l61.8 -11.4l17.4 3.5l11.1 -12.4l1.3 -8.4l-6.7 -21.1l-6.9 -17l-8.5 -11.5l2.3 -48.3l2 -7.6l20.4 -12.8l27.2 -27.9l2.1 -17.2l-12.6 -10.1l-1.5 -14.3l7.5 -28.6l13.1 -13.4l2.6 -11.5l-1.1 -8.3l-19.7 -27.5l-18.6 -16.9l-4.8 -20.3l6 -11.1l1.9 -1.3l-0.3 -4.5l-12.6 -20.6l-1 -7.2l22.4 -28l10.6 -3.7l36.9 -27.3l16.6 -21.6l-1.2 -2.5l-73.2 -34.1l-2.9 -5.9l-39.1 -30l-54.8 -27l-23.9 -5.6l-30.3 3l-30.8 13.1l1.3 7.4l-10 18.4l-45.7 40.1l-5.2 10.5l-26.9 23.6l-6.3 14.6l-1 9.6l-10.1 16.6l-32.2 25.2l2.7 18.4l6.8 -0.9l22.7 24.1l-1.9 9.7l-11.8 5.3l22.3 22.3l15.2 -1.1l12.5 5.1l6.9 6.8l4.5 9.1l-1.5 15.6l-35.5 2.1l-23.8 -5l-18.8 -11.2l-14.9 -24.9l-18.6 -18.8l-34.5 -11.6l-0.7 -12l4.9 -11.7l-0.3 -5.3l-11.4 -18.6l-36.2 4.4l-5.2 -5.1l-15.3 -1.7l-34.3 3l-22.1 29.1l-9.3 21z" />
    <path d="m1914.5 609.5l0 0l-0.7 10.6l27.2 27.3l103.6 62.2l19.5 8.3l17.3 -1l-20.3 -26.3l-11.4 -18.8l-21.8 -21.7l-30.8 -23l-17.9 -9.8l-15.2 0.5l-19.1 -9.8l-30.3 1.5z" />
  </g>
  <g data-id="057">
    <path d="m2660.2 880.4l0 0l-0.9 21.3l2.9 12.8l3.6 4.9l11.3 5.6l6 -0.3l20.3 -6.2l25.5 -14.8l12.5 1.2l8.5 7.6l13.6 6.4l-7.5 -36.9l-6.6 -6.6l-11.4 -4.1l-22.9 -14.5l-23.6 -21.4l-17 -31.2l-8.7 -0.2l-3.8 9.7l2 56.9l-3.6 9.7z" />
    <path d="m2603.4 737l0 0l-1.5 3.8l16.8 15.2l11.9 6.2l13.6 3.8l11.7 -3.5l-21.9 -38.8l-30.6 13.3z" />
    <path d="m2584.3 1015.9l0 0l0.8 28.3l2.5 4.9l12.5 7.6l6.4 -5.6l-0.2 -8.2l8.4 -23.3l31.3 -2.5l8.8 10l3.7 36.4l-15.9 22.3l-8.7 1l-0.1 -2.6l-3.7 -1.4l-2.4 8.9l6.1 28.4l11.3 15.9l13.5 10.4l53.9 -14l39.7 -21l8.1 -27.2l8.8 -3.2l14.1 1.1l7.8 9.6l-9.2 24.5l4.9 39.9l9 11.9l10.3 5.2l7.7 26.5l33.3 36.1l12.5 5.4l19.5 0.2l8.8 3.5l42 42.3l23.8 6.9l19.7 15.3l31.2 42.9l7.7 12.4l226.5 0.1l24.1 0.7l238.4 -0.5l37.6 0.1l497.8 -2.9l4.4 3.1l732.2 2.6l-89.3 -42.2l15.4 -55.3l21 1.8l-0.6 -35.2l-28.5 -53.5l35.6 -77.2l-3.9 -26.8l-28.5 -27.6l17.4 -48.9l17.2 -19.1l45 2.1l10.4 -9.3l53.6 -1.1l0.7 -57.8l58.7 11.5l0.8 -18.8l23.7 -9.2l28.4 15.7l7.4 -34l42.8 5.1l18.7 31.7l-9.6 17.4l36.9 24.1l28.5 -3.4l81.3 -43.9l-8.5 -19.7l25.8 -65.5l-43.6 -39.5l-10.3 26.8l-38.1 -0.9l-29.7 -36.9l-5.9 -45l46.6 -61.7l-200.1 -0l-0 31.2l-451.9 -0l-1213.6 -9.2l-7.1 -0l-137.5 0.7l-211.7 -0.1l2.5 4.4l28.9 33.7l19.9 6l30 44.7l-10 34.6l-14.7 22.2l-43.3 20.9l-5.1 -0.7l-7.7 -9.7l-9.6 -21.8l-21.1 -4.1l-28.7 4.1l0.1 3.3l3.5 10.8l8.5 2.5l26.8 5l7.6 16.6l16.9 54.3l1.8 12l-1.4 23.7l1.9 33.2l5.9 20.6l6.5 3.8l5.2 9.2l0 5.4l-2.8 2.8l-37 19l-13.6 -1.8l-4.7 -7.2l-15.2 -4.7l-7.6 3.8l-5.8 -1.3l-24.9 -61.9l-14.4 -18.1l-38.9 -7.6l-1.9 -17l-9 -2.3l-10.5 1.4l-71.9 33.7l-7.1 -1l-2.8 -6.4l-6.9 -2.6l-21.9 22.2l-7 17.6l-7.5 18.7z" />
    <path d="m2549.9 812.7l0 0l0.6 19.4l4.1 9.4l7.3 6.6l8.2 30.3l2.1 18l6.6 1.7l35.6 -8l24.1 -48.1l-27 -42.2l-3.7 -11.6l-25.4 -23.6l-13.3 10.7l-19.1 37.4z" />
  </g>
  <g data-id="059">
    <path d="m3176.8 6020.5l0 0l1.1 374.4l0.1 122.1l60.4 -29.9l23 -24.8l54.9 -12.5l14.3 2.9l0.1 -0l4.2 0.7l0 -0.1l17.7 2.2l13.7 -3.9l73.3 -47.5l27.9 -10.3l24.2 -1.4l26.4 -12.6l4.1 -3.7l20.8 -14.5l10 -19.7l5 -2.5l21.3 1.4l16.8 -9.1l17.6 -9.6l9.5 -13.9l-1.3 -15.9l44.4 -41.3l71.5 -24.7l97.5 23.3l35.5 -1.4l49.9 -18.8l47.6 0.8l125.4 -40.1l12.1 3l3 -42.6l-21.7 -40.3l26.8 -21.8l-117.5 -1l0.8 -161.3l-4.6 -319.7l115 0.2l-0 -636.4l-757.3 3.2l-156.7 1.1l-5.4 1l1.3 17.1l-2.7 304.6l-6 20.4l1.1 270.8l1.7 344.7l-6.8 87.4z" />
  </g>
  <g data-id="061">
    <path d="m3076.3 1894.7l0 0l-7.9 4.6l10.8 16.5l24.9 11.3l4.1 -2.3l-23.4 -27.5l-8.5 -2.6z" />
    <path d="m2977.5 1452.1l0 0l3.2 8.3l2.9 3.1l1.8 7.5l7.4 7l0.9 2.6l-1 8.4l-2.1 8.8l12.4 20.4l4.6 20.6l12.3 27l13.4 10.5l-1.8 25.2l-8.7 18.5l7 25.9l1.2 16.4l-1.6 32.5l1.6 3.6l0.6 1.2l25.7 49.2l21.9 9.1l5.6 14.1l20.3 23.2l31.7 45.2l63.1 38.1l8.7 25.3l-4.8 8l-1.9 10.2l-2.8 37.2l7.7 21.6l-4.7 10.5l-24.3 21.8l-37.1 5.7l-22.4 8.6l-14.7 5.6l-5.2 23.7l1.8 14.5l-1.3 7.6l-14.2 25.4l-8.6 26.5l-6.4 33.7l4.3 9.4l0.8 11.3l-4.8 19.3l-3.3 13.3l-5.1 10.7l-8.4 8.2l-8.6 3.4l-49.6 62.7l-3.7 8.4l-0 0.2l-2.7 44.7l0.8 3.4l88.3 0.5l12.5 0.1l25.7 0.4l34 0.6l35.1 0.3l20.5 0.4l77.9 0.9l183.3 1.3l40.6 0.4l81.8 -3.1l439.1 -0.2l164.1 -2.6l1 -4.1l430.3 1.2l3.8 -13.2l22.7 -21.1l20.2 -26.4l10.5 -21l-10.4 -20.7l-16.9 1.9l-32.5 -4l-26.6 -15.7l-11.4 -20.7l-2.8 -30.5l-5.9 -10.9l-2.7 -10.5l-2.6 1.5l-7 0.7l-4.7 -6.4l-6 -9.1l-1.3 -13.1l-1.8 -14.5l6.2 -11.8l1.7 -5.5l-2.3 -7l-4.2 -2.3l1.4 -9.5l6.6 -6.6l-2.9 -14l8.4 -11.1l5.9 -14.6l-3.6 -21.2l10.5 -8.9l4.6 -9.9l5.2 -15.6l1.4 -9.1l7.7 -7l8 0.1l9.2 -12.6l13.5 -17.1l-0.9 -15.2l-9.6 -10.7l-5.3 -16.6l-15.7 -11.2l-10.6 -18.8l3.7 -10.5l22 -5.7l16.6 -22.6l20.1 -9.2l19.7 -2.5l24.7 -12.1l23.8 -1.7l23.4 -15l22.2 1.5l17.9 -20.9l15.7 -10.7l18.9 -21.7l17.7 -5.5l8.3 -16.4l-10.2 -24.7l-1.1 -30.8l21.5 -19.1l21.1 -10.9l18.3 -1.2l2.8 -22.7l-12.8 -27.8l-21.8 -20.2l-17.9 -16.7l-9.1 -5.7l-8.4 -16.2l6.2 -18.3l-19.8 -22.8l-18.6 -29.7l-18.7 -26l-2 -10.5l-4.5 -5.6l-2.1 -10.1l5.8 -4.4l8.3 -18.1l-1.2 -2.9l-732.2 -2.6l-4.4 -3.1l-497.8 2.9l-37.6 -0.1l-238.4 0.5l-24.1 -0.7l-226.5 -0.1l1.9 3l6.6 15.9l-26.1 35l-4.2 23.9l-13.2 9.5z" />
  </g>
  <g data-id="063">
    <path d="m8839.8 3058.2l0 0l-0.9 281.6l1002.4 1.8l0.2 -165.9l-0.3 -35.6l-0.1 -16.8l0.4 -45.7l-0.1 -25.2l0 -42.5l-0 -53.8l0 -27.5l-0.7 -84.3l-0 -9.9l-0.3 -10.1l-0.7 -47.9l0.1 -0.6l0.4 -29.6l-0.4 -93.8l-0.4 -103.6l0 -0.1l0 -3.4l-0.1 -6.1l-0.1 -44.1l-0.1 -31l0.1 -23.9l-0 -1.2l-0.6 -15.6l0.1 -1.9l-0.8 -30l0 -0.7l0.1 -7l0 -3.1l0.5 -23l0.1 -83.4l-0.6 -31.7l0.1 -227.7l0 -15.2l0.1 -21.2l0.8 -130.1l-505.7 -3.3l-125.7 -1.1l0 483.6l-20.5 -13.3l-31.4 15.1l-31.1 -18.1l-38.3 -59.5l-26.9 -0.9l-12.5 -17l-7.2 -70.2l-11.1 -16.5l-21.7 10.8l-12.3 34.9l5.1 16.9l-72.2 56.1l-16.5 -9.5l-19.7 11.9l-10.2 27.1l-19.9 -1.7l-19.1 -25.8l1.6 320.2l-2.6 81.4l-1.5 388.6z" />
  </g>
  <g data-id="065">
    <path d="m8100.6 1880.7l0 0l3.6 15.9l8.3 11.7l11.5 13.9l5.2 6.8l6.4 16.8l27.2 38l-1.1 48.5l11.9 82.3l3.6 22.8l24.6 -3.8l5.8 -23.8l73.2 -49.6l17.7 -16.8l21.2 6.4l22 -10.1l15.7 32.7l30 34.2l0.1 17.6l20.9 7.7l0.4 24.3l20.6 -0.4l29.6 62.6l3.6 36.7l23.7 17.2l27 44.9l28.1 1.5l10.3 13.2l15.6 -19.8l28.8 -5.5l11.8 -33.7l18.1 -21.2l30.7 4.1l39.1 17.2l28.9 -22.9l34 -5.9l6.2 -17.4l64.7 25.1l12.7 16.3l19.1 25.8l19.9 1.7l10.2 -27.1l19.7 -11.9l16.5 9.5l72.2 -56.1l-5.1 -16.9l12.3 -34.9l21.7 -10.8l11.1 16.5l7.2 70.2l12.5 17l26.9 0.9l38.3 59.5l31.1 18.1l31.4 -15.1l20.5 13.3l0 -483.6l125.7 1.1l-0.8 -167.5l-82.8 -0l0.2 -170.1l2.7 -28.3l0.2 -806.3l-165.4 0.6l-0.2 -168.2l83.9 -0.6l-0.1 -182l83.6 -0.4l-0.6 -167.8l87.7 -0l0.5 -150.4l-226.9 -0.9l-343.8 0.6l-10.6 1.2l-149.3 0l-1.2 -1l-249.9 0.1l2.7 8.7l-9.6 3.1l-6.4 -5.2l-10.8 6.5l6.4 6.7l1.4 9l-7.9 3.5l-4.6 23.1l6.8 6.9l8.9 12.4l-4 9.8l-8.4 18.9l-4.7 17.3l2.5 13.3l13.6 21.6l9 10.8l4.7 6.1l-3.2 8.1l-7.7 13.6l-8.3 20.5l-0.2 13l2.2 16.5l7.2 9.3l6.6 14.4l1.2 14l7 13l-2.2 9.3l11.4 11.5l9.4 0.9l11.4 21.8l4.3 20.1l8.7 20.9l1.1 14.5l8.6 16.4l9.3 12.6l7.1 7.1l5.3 -7.1l13.4 -3.2l1.3 3.7l3 9.3l-4.3 5.7l-11.1 6.5l0.2 6.6l2.1 5.1l5.1 1.3l1.1 -0.5l2.6 2.9l0.1 2.4l-3.7 3.5l-4.1 0.2l-2 7.3l5.2 3.7l5.4 4.2l2.6 4.4l0.4 6.5l-5.9 3.6l-3.1 6.6l3 7l5.3 2.6l6.5 4.7l-6.3 8.4l-0.6 15.9l3.6 20.1l-0.6 16.9l6.9 29.1l0 14.4l-2.4 6.2l0.8 5.6l4.9 0.1l4.8 13.9l1.1 11.3l4.6 18.2l-3.7 21.9l-10.9 7.9l-1.7 11l-3.1 3l1.6 3l0.7 3.6l-1.3 7.7l-6.7 8.7l-4.6 16.8l1 23.4l1.5 18.6l-7.4 20.2l-8.6 28.7l-5.9 27.6l1.7 23.6l0.4 15.4l-12.6 13.4l-12.1 -2.6l-11.8 -2.8l-11.2 14.5l-2 12.3l-0.7 19.4l-4.7 13.7l-4.7 16.2l-7.7 10l-11.4 11l-10.6 24.9l0.1 20.3l11.3 18.5l2.2 21.6l-1.8 19l0.8 25.7l7.6 13.3l7.9 13.4l3.6 18.3l7 23.4l1.6 22.3l0.4 24.4l0.1 21.7l4.4 13.3l3.1 19.3l9.2 17.3l6.4 11.2l11.3 20.8l5.6 26.5l10 15.9l-1.6 19.8l-3.1 9.2l-1.4 5.5l-3.6 12.9l-15.7 22l-17.5 15.7l-15.9 13.6l-6.2 5.8l-0.4 9.4l3.1 10l-7.2 23.8l-1.3 26.3l5.2 26.7l-1.5 25.4l-9.5 20.5l-31.7 7.7l-22.1 3.3l-11.8 6.6l-2.3 19.7l0.4 17.7l9.1 6.5l13.7 17l5.6 25.5l-5.4 18.8l2.4 24.7l-7.3 12.4l-11.6 5.6l-6.7 -5.6l-16.4 6l-21.8 26.5l-27.9 -1l-63 -17l-26.3 17.4l-10.7 6.9l-14.7 9.3l-7.7 7.5z" />
  </g>
  <g data-id="067">
    <path d="m1960.2 3809.6l0 0l-2.8 25.2l57.2 2.1l-2.8 296.6l0 19.3l-0.1 63.1l-0.4 54.3l697.3 4.1l84.5 -2.4l80.6 2.6l13.3 -1.9l349.6 -0l-44.7 -22.9l-40.3 15.9l-50.2 -42.3l3.3 -31.5l3.4 -40.8l-27.5 -4.4l-3.3 -25.9l-13.5 11.9l-42.1 -13.9l-9.4 11.3l-92.3 -24.6l-9.9 -21.2l-41.8 -7.7l-3.9 -69.7l-43.2 -37l-41.7 -15.9l-14.9 -50.1l8.9 -11.9l-58.7 -19l-0.7 17.8l-22.4 -8l-11.6 -12.5l10.7 -36.1l-53.4 -32.7l-5 -41.9l-36.3 -64.8l-4.7 -25.6l17.7 -34.4l-35.5 0.8l-68.6 -37.5l-50.1 -106l-48.4 28.5l-10.1 -2.3l1.2 -3.5l-57 18.6l-5.1 -13.9l-4.9 -20.8l-31.9 -25.4l-13.8 7.2l-7.4 29.2l-20.9 16.1l-42.6 19.2l-10.3 15l-6.3 36.7l-23.9 16.5l-33.9 1.9l-16.7 14.6l-1.7 28.9l-0.2 11.4l-162.2 -0.5l1.3 140.2z" />
  </g>
  <g data-id="069">
    <path d="m1287.7 4976.3l0 0l-1.7 176.4l4.9 -9.9l-0.3 -11.3l30.1 -7.6l16.6 11.2l9.2 5.9l2.3 9.8l0.9 7.9l-2.6 15.8l1.2 10.1l12.3 10.5l71.6 12.7l40.8 -1l22.1 -3.1l5.7 -5.4l15.7 -0.9l-0 12l12.2 -2.8l15 -5.2l13.1 -5.1l19.1 -9l27.6 3.5l6.1 2.4l7.8 6.1l27.1 27.2l25.5 37.9l-4.1 87.8l76 65.5l9.8 0.1l40.2 0.4l40 2.8l26.7 -0.4l37 -21.4l25.6 -17.9l23.2 -11.8l-4.8 -128.4l2.4 -103.6l-3.9 -162.4l-52.6 4l-127 -1.1l-471 -1.6z" />
  </g>
  <g data-id="071">
    <path d="m7293.2 5304.8l0 0l-12.3 27.3l34.9 30.4l50.6 67.7l8.7 44.1l27.3 60.4l5.8 32.4l-6.7 25.6l7.5 44.1l-26.1 15.1l-26.7 29.1l-1.7 2l-4.4 4.8l0.1 0.1l0.1 -0.1l58.7 -1.3l336.9 -0.7l24.5 -0l24.8 -0.1l2.1 0l39.6 0.1l34.4 0.1l5.4 0.2l8.1 -0.1l41.3 -0.1l51.3 0.4l33.6 -0l85.7 0.1l32.5 0l13.5 -0.1l67.6 0.3l40.2 -0.6l34.7 0.6l4.9 -0l20.4 0.1l9.8 -0l106.1 -0.5l19.2 0.8l6.2 -0l165.3 -0.9l4.9 -34.9l2.1 -346.9l-160.1 -0.6l0.6 -161.7l-160.9 0.7l-0.8 -491.9l18.6 -0.6l-0.8 -61.3l-20 -13.7l-37.9 12.9l-40.7 -21.7l-21.6 -2.5l-50.1 16.4l-35.8 32.4l-42.8 -5.8l-37.7 -24.6l-24.3 -0.5l-31.8 40.4l-40.3 14.6l-25.6 21.8l-22.3 39l-34.5 16.9l-29.7 39.6l-4.3 56.1l-16.6 37.2l-7.8 38.8l5.4 36l-34.5 21.4l-10.4 24.8l-28.5 14.9l-17.6 39.9l-52.8 0.2l-20.6 64l-15.3 15.5l9.5 34.6l-80.8 30.2l-42.7 56l-139.9 23.5l-64.8 40.8l-10.8 16.9z" />
  </g>
  <g data-id="073">
    <path d="m2572.4 526.8l0 0l0.4 16l4 12.7l21.2 -0.4l13.3 10.7l23.4 59.5l48.9 56.1l23.5 12.2l9.4 1.1l-11.1 -49.8l-34.1 -40l-23.5 -11l-7.3 -18.5l-34.5 -59.4l-9.2 -12.3l-16.2 -9.8l-8.4 33.1z" />
    <path d="m2444.2 112.2l0 0l1.1 6.9l4.3 4.5l39.3 14.3l21.9 -21.1l5.5 1.1l13.4 6.4l11.5 15.4l1.6 18.5l-2.7 11l-4.8 8.5l-41.5 32.3l-11.3 -0.2l-0.8 3.5l9.6 15.3l80.6 62.6l7.2 11l6.7 28.7l3.4 28.3l-2.6 51.2l1.8 10.2l8.6 -0.2l4.9 -5.3l-0.3 -11.3l1.1 -10.9l1.9 -4.4l4.5 -3.2l17.2 3.4l26.3 31.5l4.1 3l12.5 -0.1l1.3 6.7l-2.2 14.6l-17.5 38.9l-7.5 10.7l-8.3 29.8l34.7 48.6l20.3 22.1l12.9 5.8l6.6 -0.4l11.6 -9.1l0.5 -4.9l-8.7 -26.9l-17.6 -11.6l-15.1 -22.4l1.2 -6.2l11.9 -17.4l26.9 -28.1l11.2 -20.1l1.5 -3.9l37.5 -14.9l40.5 5.9l9.7 14.9l19.4 18.2l2.7 2.6l26.2 12.8l-3 12.9l-3.3 13.9l-13.3 24.8l-12.6 6.8l-4.7 15.3l15.9 84.1l8.2 26.2l8.1 8.8l6.6 12l211.7 0.1l137.5 -0.7l7.1 0l1213.6 9.2l451.9 0l0 -31.2l200.1 0l42.5 -33.9l19.5 -43.4l32.4 1.4l-0.1 -41.9l28.6 -12.6l-28.5 -20.8l-40.6 -71.3l-20 -3.1l-12.7 -25.4l-8.9 -69.1l14.1 -64l-5 -18.2l-40.5 -23.4l5.4 -45l-12.1 -14l2.3 -40.3l20.9 -17.2l-18.5 -35.5l-30.1 -9.6l-55.5 39.2l-17.3 -32.3l-31.2 -13.3l-15.7 -24.3l25.6 -9l18 -39.9l-163 -0.2l-103.6 -0.5l-84.8 -1.5l-132.6 0.5l-24.4 0.5l-2.9 1.5l-7.3 0.2l-113 -1.5l-64.3 1.9l-455 4.8l-444 -9.3l-195.3 -0.7l-198.2 0.5l-2.4 0.1l-448 -0.3l2.5 5.5l-0.4 5.1l-12.8 10.2l-10.2 1.2l-28.9 31.2l-26 37.1l-6.7 21.5z" />
    <path d="m2101.3 1l0 0l7.7 30.1l0.8 20.3l29.6 1.5l25.3 -3.7l16.5 6.6l8.5 -6.5l-17.8 -48.5l-70.6 0.3z" />
  </g>
  <g data-id="075">
    <path d="m8294.6 4326.5l0 0l40.4 102.3l-16.9 41.5l39.6 61.2l-20.3 65.7l47.1 52.8l17.3 10l59.9 -3.1l32.7 -33l30.4 -0.3l43.4 -19.5l63.8 -3.2l41.4 -9.7l56 13.6l34.8 -13.8l15.7 -50.8l22.6 -9.7l29.1 4.9l36.3 -6.7l36.1 -36.8l19 -68.9l21.4 -22.8l68.3 -14.9l50.2 5.2l28.1 38.4l36.5 12.4l58.7 -14.2l44.5 5.9l21.1 -9.5l13.6 -24.8l32.3 -7.9l21 46.2l25.6 33.1l45.1 5.8l10 11.4l-4.4 42.6l7.5 19.4l30.3 23.1l27.6 37.8l33.4 2.2l73.2 66.4l29.3 82.7l-9.5 36l13.6 35.2l27.6 24.8l-2.7 46.7l37.1 2.8l35.9 -15.5l83.7 24.5l36.1 -23l23.2 7.1l0.1 -68.3l-0 -12.8l-0 -4.1l0.1 -130l0.3 -295.2l-0.6 -215.2l0.2 -19.4l-0.2 -565.2l-0 -51.7l-0 -51l-0 -40.3l-0 -41.9l-0.2 -63.6l-1002.4 -1.8l-175.6 -0.7l2 649.6l-14.8 89.1l-42.5 35.3l15.2 19.3l-6.8 29l-28.6 19.4l5.5 51l-26 -0.3l-14.8 31.4l-61.1 -20.3l-39.5 33l-38.3 3.6l-7 23.1l-36.4 -8.2l-26 23.6l-49.7 8.8z" />
  </g>
  <g data-id="077">
    <path d="m4138.8 4002.7l0 0l-32.4 64.8l32.9 18.6l29.4 79.4l40.8 51.8l-16.2 16.6l17.1 47.8l21.2 1.4l-7.5 29l29.6 25.4l50.1 3.9l20 25.9l-29 13l-1 35l-40.3 5.2l-7.1 65.2l23.7 5.4l10.8 45.9l-26.7 36.7l2.4 35.6l-24.2 23l15.2 21.1l-22.2 36.3l-27.1 9.8l1.4 56.5l34.5 20.1l-16.2 31.2l30.5 30.4l5.4 53.1l27.1 37.7l-9.2 37.8l-164.5 3.7l0 636.4l498.1 -1l82.2 4.3l632.6 1.2l159.7 0l26.9 2.4l719.6 -1.3l-0.9 -320.6l-9 -0.1l-0.8 -592.2l-3.2 -53.4l3.4 -122l-9.6 -4.4l-20.5 -4.9l-5 -4.3l-20.2 -36.9l-37.3 -38.2l-33.6 -88.2l-0.4 -25.9l-608.8 -0.8l-78.1 -0.7l1.8 -162.4l-149.1 -1.7l-12 -161.6l-501.5 1.5l-54 -67.9l-0 -20.4l-27 -20.3l-0.1 -40.7l-43.1 -15.2l-15.4 -34l-38.1 -34.3l-57 -33.8l-15.7 -25.1l-44.1 -28.7l-30.5 -12.4l-39.1 22.2l-45.9 -3.4l-15.5 15l-26.2 -31.5l-0.4 0.5l7.5 56.8l-32.9 44.2l6.5 19.1l-14.7 20.8l-0.3 25.2l-50.4 34.7l4.7 13.7l-20.8 23.2l11.4 49.1l-9.4 21l-52.4 29.5z" />
  </g>
</svg>
