<?xml version="1.0" encoding="UTF-8"?>
<!DOCTYPE svg PUBLIC '-//W3C//DTD SVG 1.1//EN' 'http://www.w3.org/Graphics/SVG/1.1/DTD/svg11.dtd'>
<svg viewBox="0 0 1000 652.471" xmlns="http://www.w3.org/2000/svg">
  <g data-id="001">
    <path d="m686.246 399.298l-0.098 32.693l118.403 0.155l29.884 -0.367l2.6 -2.359l3.638 0.819l0.698 -2.313l3.828 -0.359l3.954 -3.302l6.109 2.029l1.479 -3.14l2.596 0.027l-0.552 -5.098l2.86 -1.942l0.678 -2.902l-1.522 -1.928l4.249 -3.525l1.48 -8.909l-0.204 -64.961l-10.944 0.105l-119.39 -0.32l-0.368 65.825l-49.38 -0.228z" />
  </g>
  <g data-id="003">
    <path d="m927.851 546.267l0.007 22.883l5.116 -0.14l6.294 0.006l4.709 0.414l2.08 -0.426l15.471 0.056l18.764 0.156l2.398 0.122l8.369 -0.023l5.782 0.129l3.159 0.159l-0.897 -4.214l-1.113 -3.935l-1.401 -3.935l-0.756 -1.278l-1.127 -1.386l-1.616 -0.243l-1.142 -0.597l-0.453 -1.73l0.468 -1.17l2.466 -0.613l1.059 -2.233l0.036 -1.419l0.338 -1.298l1.645 -3.058l1.641 -3.379l0.1 -1.305l-2.54 -3.183l-1.368 -1.567l-1.35 -1.14l-0.461 -1.446l0.913 -2.276l0.435 -1.14l-0.354 -3.023l-0.714 -2.028l-0.757 -1.471l-2.186 -2.153l-0.516 -1.037l0.833 -2.087l-0.227 -1.282l-1.352 -1.201l-1.308 -0.398l-1.142 -1.099l-0.753 -1.155l-0.145 -1.659l0.035 -1.544l-0.963 -1.029l-1.893 -0.403l-1.345 -0.564l-0.851 -1.296l-0.02 -2.366l0.674 -1.133l1.028 -1.006l0.962 -2.845l0.469 -2.575l0.459 -2.278l-0.655 -1.319l-2.316 -0.8l-3.612 2.297l-8.371 -2.451l-3.586 1.554l-3.71 -0.282l0.268 -4.672l-2.762 -2.483l-0.086 9.455l-16.27 -0.163l0.028 2.698l-5.458 -0.065l0.011 2.697l-2.685 0.059l-0.019 48.319l-7.74 -0.007z" />
  </g>
  <g data-id="005">
    <path d="m621.253 464.596l0.323 5.344l0.082 59.22l0.99 32.07l-0.313 37.694l8.394 -2.128l3.803 0.358l13.182 -2.073l5.946 -8.962l2.922 -2.563l3.705 -1.08l6.006 3.099l4.708 0.422l4.806 -2.031l2.316 -0.165l8.667 -0.617l5.358 -2.129l8.361 -1.24l4.017 1.325l3.865 0.893l3.33 0.049l5.549 -0.967l4.209 -1.818l4.063 -2.904l4.401 -1.952l2.366 -1.866l2.733 -3.778l3.261 -3.6l2.607 -1.51l-0.75 -4.407l0.67 -2.56l-0.582 -3.238l-2.73 -6.037l-0.873 -4.415l-5.058 -6.773l-3.491 -3.043l-8.06 -4.772l-2.527 -1.058l-4.451 -0.458l-5.669 -1.6l-4.46 -4.947l-3.444 -2.073l-0.262 -2.099l2.175 -5.624l-0.861 -5.633l-1.587 -4.585l0.317 -6.145l0.984 -6.02l-0.604 -8.345l0.516 -2.952l-1.176 -4.204l-4.63 -3.754l-2.75 -4.443l-5.197 -3.612l-4.564 -5.657l-1.28 -7.375l-5.291 -3.245l0.156 -1.716l0.447 -1.17l-4.614 -5.624l-3.278 -2.243l-8.992 10.777l-4.707 4.161l-5.208 1.351l-6.513 -1.594l-5.228 2.464l-10.928 1.9l-4.815 -0.525l-0.343 12.203z" />
  </g>
  <g data-id="007">
    <path d="m454.774 212.154l0.178 1.452l0.129 1.305l1.074 1.555l1.236 0.832l0.589 1.087l0.275 3.052l1.141 2.074l2.661 1.573l3.247 0.402l1.688 -0.188l1.037 2.066l-1.054 2.102l-2.016 2.642l-2.268 2.106l-0.376 1.321l1.064 4.095l2.154 0.044l1.922 3.614l-1.071 2.034l2.733 2.832l-5.054 4.712l-2.056 0.684l-1.55 7.524l2.575 9.17l0.774 1.057l1.112 0.304l0.843 1.109l0.186 1.043l0.479 1.003l-0.212 1.029l0.837 1.109l0.565 1.105l0.422 1.066l1.112 0.42l0.713 1.019l1.096 1.109l1.135 0.435l1.12 0.395l1.045 0.778l0.616 1.069l1.073 0.288l1.027 0.271l1.031 0.456l0.626 1.149l-0.38 1.155l0.694 1.223l0.729 1.087l1.029 0.745l1.038 0.39l1.068 0.67l0.43 1.101l1.078 0.945l-0.484 1.084l-0.165 1.028l1.12 0.275l1.125 0.202l0.49 1.02l1.001 1.029l-0.19 1.125l0.061 1.095l0.474 1.085l1.073 0.694l1.1 0.122l1.172 0.125l1.036 0.437l1.025 0.821l1.066 0.736l1.093 -0.914l1.143 0.972l1.192 0.679l0.738 -1.057l0.952 -1.106l1.147 0.352l1.005 0.299l1.087 -0.557l0.751 1.15l0.575 1.121l0.804 1.041l0.598 1.066l1.032 -0.055l1.014 0.136l1.102 0.275l1.067 0.596l1.06 0.158l1.115 0.114l0.837 1.128l-0.074 1.232l0.462 1.003l0.372 1.038l1.138 0.374l1.118 0.406l1.1 0.716l0.669 1.083l0.974 1.092l1.095 0.427l1.131 0.905l1.064 0.169l1.117 -0.024l1.139 -0.18l1.294 0.177l1.645 -0.35l1.341 0.99l1.276 -0.084l1.245 0.244l1.052 1.637l0.807 1.381l0.243 1.287l0.856 1.503l1.886 -0.476l1.394 -0.864l0.723 -1.761l-0.151 -1.119l1.41 0.162l0.75 1.693l1.631 0.44l1.6 0.968l1.024 1.356l1.279 0.085l1.342 0.908l1.533 1.196l0.477 1.177l1.219 1.075l1.086 1.327l1.856 0.145l1.489 0.577l0.873 1.145l2.256 0.756l5.381 -0.034l3.967 -0.009l3.445 -0.022l4.76 -0.168l3.862 -0.028l5.412 0.005l4.421 0.06l3.732 -0.033l1.112 -0.008l1.111 -7.192l-0.034 -7.292l-5.535 -5.157l-4.606 -0.275l-12.116 -3.058l-3.357 -1.742l-0.85 -1.447l-0.413 -2.339l-1.545 -3.632l-0.435 -2.44l-0.78 -2.213l0.178 -2.711l1.748 -9.237l1.294 -3.432l4.27 -3.851l3.307 -7.422l-0.429 -6.48l2.579 -6.058l2.268 -3.533l-0.789 -3.76l-2.256 -4.041l1.722 -4.763l2.301 -2.121l7.738 -3.254l4.692 2.478l7.161 -2.354l5.539 -1.029l2.161 -3.797l1.711 -4.743l0.583 -3.738l5.223 -3.149l1.39 -3.258l-0.848 -4.191l3.293 -3.013l3.784 -4.731l-1.389 -3.536l-2.908 0l-3.679 -0.003l-2.633 0.008l-4.86 -0.015l-8.847 -0.168l-2.001 -1.007l-0.136 -1.472l-0.154 -1.641l-1.705 -1.925l0.311 -1.431l-0.47 -1.316l-0.617 -1.159l-1.646 -1.531l-1.834 -0.677l-1.537 -1.504l-2.171 -0.567l-0.87 -1.719l0.285 -1.012l1.172 -0.754l-0.603 -2.142l-2.086 -0.744l-2.986 -1.048l-3.035 -0.7l-1.441 -1.055l-2.216 -1.075l-0.209 -1.065l-1.091 -1.295l-1.153 -0.843l-1.117 -0.811l-1.268 -1.505l-1.676 -1.131l-1.677 -0.882l-2.312 0.832l-1.367 -1.621l-3.118 -2.977l-1.196 -3.751l1.281 -3.72l0.643 -3.001l-1.967 -3.026l-2.995 -1.013l-0.103 -2.498l-4.692 -2.523l-3.229 -1.981l-2.679 -3.097l-2.838 -2.656l-1.918 -3.385l-2.182 -0.186l-3.75 -0.441l-2.411 -1.33l-1.567 -1.86l0.491 -3.016l1.586 -2.059l0.178 -3.6l-2.286 -1.386l-2.552 -1.631l-2.491 -1.869l-2.1 0.216l-0.861 -1.29l-0.127 -1.665l-0.632 -4.904l-1.299 -0.921l0.124 -1.747l1.209 -1.159l1.466 -1.72l0.085 -1.396l-1.059 -0.563l-0.391 -1.631l0.781 -1.137l1.31 -0.923l-0.804 -1.377l-1.81 -1.684l-0.113 -1.308l0.974 -1.745l-0.174 -1.234l-1.532 -0.056l-1.934 0.632l-3.081 -0.151l-8.195 4.416l-2.853 0.342l-3.691 -2.415l0.956 -1.743l-1.872 -3.169l-4.283 -0.511l-0.74 3.401l-2.838 -1.567l-2.374 0.925l-0.081 1.883l-5.872 -1.145l-0.072 5.783l-5.355 0.114l-1.044 0.935l-4.496 -0.211l-1.724 1.911l-1.738 4.894l2.854 2.757l0.387 2.678l-3.555 7.72l2.847 5.353l0.06 3.517l-2.1 -0.184l-1.54 5.527l8.932 4.221l-0.709 2.102l-0.375 1.451l0.653 1.607l1.87 2.601l1.858 2.97l1.981 2.283l-0.622 1.829l0.837 1.623l2.705 2.248l2.181 2.016l1.278 2.78l-0.283 2.273l-1.827 0.115l-2.109 1.088l-2.149 1.907l0.114 3.077l1.02 2.466l-0.831 1.64l-1.768 0.549l-1.889 2.172l-1.571 1.067l-1.787 2.085l-2.217 -0.149l-2.339 1.498l-2.38 0.174l-2.473 1.212l-1.973 0.252l-2.014 0.918l-1.664 2.256l-2.204 0.569l-0.368 1.052l1.058 1.882l1.566 1.118l0.533 1.656l0.958 1.072l0.093 1.523l-1.347 1.707l-0.918 1.259l-1.574 0.692l-0.656 2.466l-1.501 1.876l0.361 2.119l-0.592 1.465l-0.844 1.111l0.287 1.404l-0.799 1.612l0.48 1.484l-0.622 1.178z" />
  </g>
  <g data-id="009">
    <path d="m0.183 160.998l-0.183 1.267l1.464 1.958l3.407 7.343l1.022 3.108l-0.192 1.186l-0.833 1.028l-0.183 3.412l0.367 2.025l1.059 1.811l0.414 2.535l0.401 3.881l1.048 6.372l-0.204 3.43l1.291 2.476l1.326 1.58l0.835 1.497l2.013 7.324l0.537 1.718l1.887 1.403l22.042 -0.481l7.995 0.382l111.299 0.009l0 2.705l71.221 0.014l-0.267 -11.126l0.265 -26.765l2.807 -0.029l0.076 -1.684l0.733 -2.7l-1.047 -1.541l-2.178 -0.442l-4.259 0.5l-3.162 1.039l-1.602 0.984l-2.824 0.812l-1.499 -4.153l-2.017 -3.38l-2.423 -1.278l-4.007 -4.423l-1.066 -0.626l-2.355 -0.606l0.508 -1.888l0.875 -1.577l-1.582 -0.237l-2.509 1.928l-3.469 4.233l-3.284 3.185l-2.807 1.722l-1.213 0.474l-2.597 -0.067l-1.441 -0.233l-1.035 -0.714l-3.366 1.401l-2.318 0.145l-3.611 -0.555l-4.365 0.311l-3.789 -0.732l-2.214 -1.187l0.364 -3.262l-2.089 0.236l-2.293 1.144l-4.331 0.435l-1.93 -0.715l-1.607 -1.963l-2.079 -1.074l-1.21 0.131l-1.743 1.906l-2.127 1.113l-4.859 -0.83l-1.572 -1.313l-1.317 -2.076l-2.691 -1.105l-3.876 -0.78l-1.997 1.548l-1.272 -0.412l-3.595 -0.038l-2.779 1.072l-6.837 -0.474l-3.486 0.703l-1.005 -0.1l-1.713 -1.117l-4.544 0.243l-2.473 -0.285l-2.613 -0.885l-3.286 0.133l-8.917 -2.491l-2.736 -2.332l-2.378 -1.258l-2.11 -0.696l0.696 -3.225l-1.177 -0.705l-3.878 -1.316l-6.576 -3.631l-3.221 -1.341l-2.649 -1.763l-1.573 -0.442l-0.541 1.114l-1.371 0.794l-3.821 -0.853l-0.441 -1.721l-5.535 -1.817l-2.423 -1.901l-2.497 0.554l-1.883 -0.783l-2.356 -2.329l-12.354 -8.147l-1.902 -1.114l-1.71 -0.168l-3.328 -3.47l-1.026 0.326l-2.286 -1.42l-1.103 0.595l-1.399 0.73l-1.73 -0.458l-0.933 -1.429l-1.059 -1.734l-1.772 -0.995l-5.279 0.325l-2.87 -0.149l-1.137 0.725l-0.643 1.89l2.18 1.905l2.189 3.188l3.407 1.618l1.424 1.979l-0.4 3.964l-0.491 2.14l-1.331 0.804l-0.583 5.727l-0.486 1.945l-1.917 1.809l-0.8 1.137l1.987 3.869l-0.065 1.368l-0.667 2.691l-1.029 2.72l-3.53 2.767z" />
  </g>
  <g data-id="011">
    <path d="m247.814 600.929l0.046 2.758l3.335 5.397l1.034 3.928l0.061 1.611l0.111 2.926l-0.266 1.07l-1.32 5.302l-0.256 3.516l1.369 4.265l3.288 2.379l3.172 1.226l2.853 2.323l2.047 1.225l3.979 1.518l5.283 0.384l2.124 0.53l4.611 1.387l3.363 1.376l2.343 0.677l1.675 0.484l1.656 0.643l3.253 2.275l1.947 0.681l3.578 -0.74l1.213 -0.633l1.205 -0.629l1.471 -0.256l3.518 1.188l2.725 3.873l4.682 0.858l3.607 -0.055l2.265 -0.713l-0.001 -12.219l-0.108 -37.439l0.681 -8.745l-0.172 -34.466l-3.469 -1.023l-7.152 9.094l1.802 3.54l-2.285 4.743l-5.149 0.792l-3.275 -2.16l-5.589 -0.617l-0.542 -1.35l-3.922 -0.903l-2.54 1.352l-1.754 -0.771l-3.048 1.053l-2.933 4.67l-2.636 -0.157l-4.823 3.494l-3.897 -0.286l-1.464 1.678l-1.487 -1.629l-2.765 -0.843l0.207 2.293l-4.049 -0.511l-0.643 2.972l-1.671 0.081l0.22 2.344l-1.43 0.686l2.053 0.839l1.338 3.944l-2.719 0.489l-5.412 3.598l-0.023 1.161l-1.313 3.524z" />
  </g>
  <g data-id="013">
    <path d="m830.306 465.09l0.083 49.185l16.087 -0.072l-0.065 16.17l16.009 0.064l-0.208 34.688l-0.491 3.488l2.467 0.012l33.236 0.158l14.638 0.18l0.016 -22.569l-1.191 -0.002l0.09 -40.157l-8.065 0.153l0.128 -8.459l-2.686 0.006l-0.018 -2.675l-2.733 0.013l-0.023 -8.2l-2.66 -0.037l0.015 -5.47l-16.124 0.146l1.302 -16.642l0.169 -12.003l-2.264 0.968l-1.575 5.079l-3.478 1.382l-5.604 -1.359l-4.145 0.968l-6.383 0.318l-4.342 1.951l-3.045 0.027l-3.269 3.302l-5.992 0.307l-1.733 -1.005l-4.71 -5.283l-1.66 -0.826l0.08 6.132l-1.856 0.062z" />
  </g>
  <g data-id="015">
    <path d="m193.832 497.496l0.388 16.24l-0.244 10.359l0.483 12.839l5.966 -3.036l6.461 0.685l1.392 1.403l6.902 4.447l1.249 1.338l2.449 1.337l1.626 0.566l5.981 5.763l7.491 3.889l2.513 4.325l0.817 5.345l2.806 3.097l2.369 6.196l3.024 3.651l0.998 5.256l-0.68 3.621l1.717 5.219l1.671 3.056l-0.063 3.153l5.412 -3.598l3 0.461l-1.619 -4.894l-2.053 -0.839l1.43 -0.686l-0.22 -2.344l1.671 -0.081l0.643 -2.972l4.049 0.511l-0.207 -2.293l2.765 0.843l1.487 1.629l1.464 -1.678l3.897 0.286l4.823 -3.494l2.636 0.157l2.933 -4.67l3.048 -1.053l1.754 0.771l2.54 -1.352l3.922 0.903l0.542 1.35l5.589 0.617l3.275 2.16l5.149 -0.792l2.285 -4.743l-1.802 -3.54l7.152 -9.094l3.469 1.023l-0.105 -27.082l0.597 -2.042l0.268 -30.463l-0.135 -1.706l-15.329 -0.143l-74.568 -0.233l-21.813 -0.121l-13.268 0.45z" />
  </g>
  <g data-id="017">
    <path d="m564.983 294.12l-0.178 2.711l0.78 2.213l0.435 2.44l1.545 3.632l0.413 2.339l0.85 1.447l3.357 1.742l12.116 3.058l4.606 0.275l5.535 5.157l0.034 7.292l-1.076 7.192l2.365 6.833l7.276 -0.141l1.537 1.227l0.293 -1.972l0.01 -16.854l2.76 -0.082l-0.014 -2.679l2.739 -0.062l0.062 -2.61l2.673 -0.124l0.026 -2.818l2.727 -0.022l0.022 -5.474l2.733 -0.004l0.027 -2.74l2.731 -0.064l0.008 -5.518l43.831 -0.703l0.03 -16.383l2.712 0.023l-0.051 -2.73l2.766 0.004l2.733 -5.448l2.74 0.058l-0.015 -2.739l5.45 -5.262l8.133 -1.668l0.017 -1.011l2.71 -0.009l0.02 -8.248l2.725 -0.032l0.025 -11.01l2.739 0.017l0.009 -2.732l2.736 0.017l-0.01 -5.551l2.775 -0.056l0.034 -5.461l2.749 -0.006l0.024 -16.585l2.762 -0.02l0.01 -2.796l5.52 -0.035l0 -2.813l2.75 0.017l0.041 -5.633l2.765 0.021l0.012 -2.879l15.56 -0.05l2.163 -4.152l1.86 -6.717l-3.768 -3.509l-2.936 -1.155l-1.996 -5.076l-1.287 -8.302l-3.596 -4.569l-6.434 -0.662l-2.111 -1.78l-3.481 0.698l-3.628 3.484l-2.666 0.516l-1.934 1.894l-2.307 0.41l-3.008 2.135l-5.339 -2.578l-3.702 3.607l-0.053 5.052l-1.994 3.989l-3.448 -0.619l-4.302 0.326l-4.113 -4.924l-8.281 -1.099l-1.934 1.464l-0.187 2.33l-9.918 7.99l-2.475 3.971l-2.124 0.729l-2.739 -0.754l-4.632 -4.305l-0.644 -1.783l2.974 -6.863l-1.769 -4.851l-2.121 1.768l-3.305 -0.192l-2.576 -3.359l-3.55 -0.315l-0.877 3.338l-3.453 -0.013l-4.459 1.876l-6.186 4.212l2.828 6.926l-0.372 4.917l-1.236 4.446l1.473 1.799l1.389 3.536l-3.784 4.731l-3.293 3.013l0.848 4.191l-1.39 3.258l-5.223 3.149l-0.583 3.738l-1.711 4.743l-2.161 3.797l-5.539 1.029l-7.161 2.354l-4.692 -2.478l-7.738 3.254l-2.301 2.121l-1.722 4.763l2.256 4.041l0.789 3.76l-2.268 3.533l-2.579 6.058l0.429 6.48l-3.307 7.422l-4.27 3.851l-1.294 3.432l-1.748 9.237z" />
  </g>
  <g data-id="019">
    <path d="m750.083 67.753l0.014 33.289l3.279 -0.022l-0.243 99.512l-0.79 1.064l2.421 1.421l0.465 3.309l2.242 2.454l3.666 0.872l6.766 2.967l2.385 -0.606l0.519 -5.771l2.46 -1.745l3.382 1.014l1.274 1.966l10.438 -0.995l4.72 3.329l-1.355 5.897l1.637 1.735l3.862 0.197l4.366 -1.629l1.279 1.432l0.104 3.891l1.323 1.711l6.801 2.823l3.018 -0.381l1.535 -1.699l0.915 -7.812l1.148 -2.24l-0.356 -2.278l-1.192 -8.228l0.115 -4.853l-2.723 -3.802l-0.643 -1.679l-1.669 -2.066l-0.832 -1.174l-0.358 -1.588l2.235 -1.675l1.073 -0.69l2.628 -1.736l6.302 1.701l2.793 0.096l2.18 -2.646l1.645 -0.6l1.832 0.001l0.729 -1.244l-0.243 -2.47l0.537 -1.877l-0.563 -2.547l-1.369 -1.705l-0.945 -2.425l0.228 -1.974l1.178 -0.658l2.212 -0.328l3.173 -0.767l0.949 -2.054l0.145 -2.543l-0.519 -2.672l0.128 -2.629l0.716 -2.38l-0.262 -1.936l2.206 -1.942l1.753 -1.575l1.571 -2.201l0.361 -1.295l0.45 -1.469l0.161 -1.982l-1.002 -1.587l-0.563 -2.651l-1.131 -2.076l-0.64 -1.115l-0.925 -1.731l-0.313 -1.925l-0.439 -1.328l-0.012 -2.173l-0.039 -2.445l-0.159 -2.226l-0.699 -2.338l-0.358 -1.83l-0.786 -1.343l-0.762 -1.335l-0.082 -2.569l0.184 -1.903l-0.217 -2.159l-1.126 -1.851l-0.013 -2.025l1.062 -2.489l1.139 -1.1l0.768 -1.004l0.473 -1.621l0.473 -1.371l0.074 -1.943l0.198 -1.234l1.12 -1.446l1.176 0.284l1.211 0.257l1.262 -1.336l-0.04 -1.537l-0.173 -2.357l0.594 -2.757l0.864 -2.871l0.74 -2.017l-0.149 -1.857l-0.097 -2.339l0.462 -1.681l0.802 -1.641l0.249 -2.047l1.092 -0.794l0.373 -2.193l-0.456 -1.817l-0.107 -1.127l-0.484 -1.39l-0.327 -1.192l0 -1.445l-0.694 -2.906l0.062 -1.692l-0.357 -2.009l0.059 -1.594l-0.025 -1.312l-0.518 -1.61l0.556 -1.015l-1.315 -1.229l0.985 -1.096l-1.107 -1.128l1.092 -1.314l0.128 -1.502l-1.465 -0.058l-1.239 0.005l-0.925 -1.257l-0.858 -1.637l-0.111 -1.447l-0.871 -2.089l-0.427 -2.006l-1.137 -2.182l-2.072 -1.235l-0.48 -2.234l-0.125 -1.4l-0.662 -1.444l-0.939 -2.585l0.016 -1.302l0.826 -2.05l0.771 -1.362l-0.151 -1.415l-0.903 -1.079l-1.359 -2.163l-0.253 -1.333l0.474 -1.731l0.839 -1.893l-0.487 -2.225l-0.219 -3.005l0.655 -1.254l0.436 -1.321l1.596 0.214l-82.046 -0.851l-0.05 67.318l-4.174 0.008z" />
  </g>
  <g data-id="021">
    <path d="m675.433 442.896l-0.156 1.716l5.291 3.245l1.28 7.375l4.564 5.657l5.197 3.612l2.75 4.443l4.63 3.754l1.176 4.204l-0.516 2.952l0.604 8.345l-0.984 6.02l-0.317 6.145l1.587 4.585l0.861 5.633l-2.175 5.624l0.262 2.099l3.444 2.073l4.46 4.947l5.669 1.6l4.451 0.458l2.527 1.058l7.325 4.156l1.961 -2.118l1.083 -1.693l6.476 -4.085l13.99 -2.346l4.271 -5.595l8.082 -3.016l-0.949 -3.46l1.533 -1.553l2.064 -6.398l5.283 -0.015l1.756 -3.987l2.846 -1.494l1.042 -2.476l3.448 -2.137l-0.538 -3.599l0.778 -3.88l1.658 -3.723l0.435 -5.608l2.966 -3.962l3.451 -1.691l2.229 -3.902l2.561 -2.183l4.026 -1.464l3.182 -4.044l2.432 0.054l3.768 2.463l4.28 0.585l3.583 -3.241l5.012 -1.638l2.157 0.249l4.07 2.171l3.787 -1.288l1.998 1.372l1.66 0.826l2.029 -6.566l-3.961 -6.122l1.692 -4.145l-4.041 -10.234l4.974 -0.876l-29.884 0.367l-118.403 -0.155l0.034 11.103l-10.749 -0.198z" />
  </g>
  <g data-id="023">
    <path d="m880.113 465.069l-1.302 16.642l16.124 -0.146l-0.015 5.47l2.66 0.037l0.023 8.2l2.733 -0.013l0.018 2.675l2.686 -0.006l-0.128 8.459l8.065 -0.153l-0.09 40.157l1.191 0.002l-0.016 22.569l12.612 0.105l3.164 0.082l0.014 -22.883l7.74 0.007l0.019 -48.319l2.685 -0.059l-0.011 -2.697l5.458 0.065l-0.028 -2.698l16.27 0.163l0.086 -9.455l-1.362 -3.518l0.95 -3.604l-2.933 -8.273l-7.315 -6.639l-3.338 -0.224l-2.755 -3.778l-3.028 -2.312l-0.754 -1.938l0.439 -4.255l-1.001 -1.135l-4.512 -0.576l-2.564 -3.31l-2.101 -4.617l-3.228 0.793l-1.361 2.484l-2.113 0.949l-4.445 -0.591l-5.869 1.415l-3.646 -1.241l-2.809 -3.843l-5.018 -0.52l-6.83 1.494l-2.139 2.282l-1.903 6.891l-3.613 3.677l-3.63 0.669l-2.911 -0.487l-0.169 12.003z" />
  </g>
  <g data-id="025">
    <path d="m600.012 369.48l1.254 3.249l2.789 2.797l1.285 8.577l4.476 9.351l0.376 4.672l-0.224 11.233l4.785 7.8l0.013 3.485l-1.998 4.436l-3.444 3.684l-0.392 3.332l0.042 2.592l3.36 8.823l3.728 3.824l2.023 3.693l2.55 0.926l5.775 0.962l10.928 -1.9l5.228 -2.464l6.513 1.594l5.208 -1.351l4.707 -4.161l8.992 -10.777l3.278 2.243l4.614 5.624l-0.447 1.17l10.749 0.198l-0.034 -11.103l0.098 -32.693l49.38 0.228l0.368 -65.825l0.469 -80.988l0.333 -48.348l-1.044 -0.871l-0.073 -2.683l-15.56 0.05l-0.012 2.879l-2.765 -0.021l-0.041 5.633l-2.75 -0.017l0 2.813l-5.52 0.035l-0.01 2.796l-2.762 0.02l-0.024 16.585l-2.749 0.006l-0.034 5.461l-2.775 0.056l0.01 5.551l-2.736 -0.017l-0.009 2.732l-2.739 -0.017l-0.025 11.01l-2.725 0.032l-0.02 8.248l-2.71 0.009l-0.017 1.011l-8.133 1.668l-5.45 5.262l0.015 2.739l-2.74 -0.058l-2.733 5.448l-2.766 -0.004l0.051 2.73l-2.712 -0.023l-0.03 16.383l-43.831 0.703l-0.008 5.518l-2.731 0.064l-0.027 2.74l-2.733 0.004l-0.022 5.474l-2.727 0.022l-0.026 2.818l-2.673 0.124l-0.062 2.61l-2.739 0.062l0.014 2.679l-2.76 0.082l-0.01 16.854l-0.293 1.972l0.568 1.481l-0.198 5.574l-0.82 4.024l1.205 2.887l-0.115 3.719l-1.267 2.688l-1.804 0.94l-2.136 6.632z" />
  </g>
  <g data-id="027">
    <path d="m48.552 282.33l1.085 8.429l1.079 13.817l1.289 5.148l0.327 3.997l0.603 2.274l1.518 0.621l1.819 2.447l0.885 2.67l1.941 3.8l1.758 0.182l1.947 1.69l0.753 1.474l3.496 13.03l1.679 8.312l0.789 5.112l0.501 2.033l0.252 2.108l0.907 5.978l0.415 5.002l0.561 13.487l-0.262 6.762l-0.428 3.152l-0.717 2.86l2.749 -0.577l2.22 -2.028l2.159 -0.675l-1.746 -5.077l-0.217 -3.265l-1.478 -6.142l0.287 -1.535l0.963 -1.098l2.489 -1.222l2.006 -0.186l5.184 0.282l5.054 2.056l1.196 2.878l1.503 2.051l-0.617 1.132l-1.236 1.255l0.961 1.128l2.636 0.93l4.148 -0.29l1.431 1.864l1.123 0.39l2.251 -0.398l2.99 -0.012l1.131 0.567l1.697 1.471l1.542 1.77l-2.405 2.185l-4.141 1.308l-5.403 2.192l-2.8 -0.333l-3.856 2.381l-0.53 1.254l-2.889 0.966l-1.293 0.843l-1.118 4.406l-1.441 1.296l-2.934 -0.788l-0.145 -5.2l-0.38 -1.061l-2.207 -2.126l-3.529 1.308l1.95 4.816l1.906 8.123l0.876 4.811l0.37 3.1l25.75 0.294l5.189 0.295l1.95 -0.177l60.161 -0.05l2.502 -0.258l24.408 0.024l0.011 -6.313l-0.002 -1.929l0.275 -29.664l-5.723 -0.207l0.283 -2.52l-0.128 -14.015l-21.338 0.491l-15.382 -0.037l-0.238 -33.036l-1.819 -0.062l-0.115 -48.972l-69.184 -0.153l0.03 -2.869l-39.29 0.025z" />
  </g>
  <g data-id="029">
    <path d="m280.697 153.383l0.217 4.978l1.873 4.226l1.349 5.326l2.82 2.552l1.536 -1.616l1.341 -0.25l2.282 3.126l3.321 2.127l2.944 3.387l0.931 1.299l0.336 1.722l1.749 2.28l1.792 0.578l0.353 -1.336l-2.448 -4.95l-4.115 -4.947l-3.932 -3.379l-4.275 -6.893l-0.41 -1.709l0.061 -2.376l1.06 -1.136l1.07 0.167l2.538 -3.112l-0.954 -1.034l-0.525 -2.322l0.513 -1.108l2.026 -0.759l1.048 0.703l3.767 0.702l0.402 -1.574l-1.006 -1.709l-0.612 -1.139l-7.464 -3.512l-1.347 2.943l-2.425 0.611l-1.322 -0.961l-3.481 1.388l-0.539 1.846l0.1 3.305l-0.574 2.558z" />
    <path d="m251.143 149.953l0.882 2.343l2.358 1.093l1.226 1.859l3.009 1.227l2.357 2.315l0.826 1.315l0.904 3.748l1.065 -0.422l1.946 -0.997l2.923 -0.147l2.009 0.81l1.01 1.38l0.954 3.185l0.487 4.721l-1.15 4.326l-0.758 1.637l-0.104 1.282l2.444 3.153l0.166 1.745l-0.405 1.601l-1.35 1.5l3.27 3.941l2.784 0.743l2.187 1.931l-0.018 1.992l-1.019 1.651l0.538 1.935l3.275 -1.105l0.82 -1.559l1.734 -1.135l1.759 -0.696l1.899 0.436l3.323 4.833l0.758 2.16l-0.004 1.003l-0.636 1.987l0.031 1.139l1.853 2.958l1.505 0.498l2.805 -0.053l0.886 1.28l1.269 0.319l0.603 -1.189l-0.135 -2.567l1.146 -1.663l1.159 -0.956l1.032 -3.02l0.146 -1.062l-0.084 -2.017l-0.429 -2.308l-1.989 -2.65l-0.525 -1.051l-0.383 -6.438l-1.423 0.082l-1.694 -0.485l-3.919 -1.614l-2.194 -1.784l-1.687 -2.714l-3.773 -4.929l-2.836 -0.631l-1.554 0.192l1.089 2.959l0.745 1.107l-0.373 3.106l0.555 3.697l-1.064 3.314l-2.554 1.216l-0.919 -6.978l-1.207 -4.755l-2.212 -4.74l1.527 -2.307l0.218 -1.033l-1.245 -5.567l-0.891 -1.336l-0.984 -2.844l-0.407 -2.288l-2.639 -4.972l-2.807 -2.727l-5.121 -0.288l-5.447 1.893l-1.946 -1.642l0.564 -2.256l6.724 -1.192l2.019 -3.597l0.101 -1.103l3.692 -0.836l0.388 -2.601l-0.769 -1.159l1.061 -0.994l2.422 -0.797l1.976 0.061l1.179 0.593l2.116 2.469l3.499 -0.073l1.052 -0.588l2.165 -2.34l-0.094 -2.377l-1.204 -1.996l-4.523 -4.179l-1.815 -1.17l-2.512 -0.979l-0.477 -1.868l0.493 -6.194l-1.319 -0.392l-0.177 -1.624l-1.66 -1.145l-1.865 2.135l-1.369 -0.724l-1.255 -0.24l-2.541 0.767l-0.034 5.14l-1.126 3.878l-4.266 7.581l-1.984 2.119l-1.207 4.777l-2.628 3.721l-2.223 6.245z" />
  </g>
  <g data-id="031">
    <path d="m15.659 216.351l2.89 0.521l3.302 2.224l0.526 1.952l2.344 3.624l3.473 2.753l1.892 -0.016l1.055 1.07l0.97 3.721l0.714 5.289l2.897 0.825l2.991 3.631l0.685 1.487l0.637 2.499l1.038 6.482l2.063 4.876l1.761 6.31l0.932 5.392l1.114 4.069l0.92 6.602l0.689 2.667l39.29 -0.025l-0.03 2.869l69.184 0.153l0 -16.474l16.49 0l1.277 -0.539l49.575 0.151l0.901 -1.563l9.711 -11.381l2.055 -8.706l4.458 -10.812l3.913 -5.716l-0.659 -5.413l3.781 8.25l-5.311 18.469l2.585 2.974l3.869 -4.572l2.966 -8.009l0.078 -2.228l0.94 -3.087l0.317 -5.061l2.06 -1.751l1.579 -0.628l3.967 -3.506l0.621 -1.398l0.274 -2.217l-1.199 -1.852l-0.356 -1.503l3.498 0.096l2.089 0.694l1.755 -0.444l0.576 -1.645l2.752 -2.39l-1.091 -0.553l-2.373 0.057l-1.16 -0.921l-1.099 -1.963l0.14 -2.067l-0.478 -2.915l-3.096 -1.004l-0.353 -1.458l1.084 -2.807l-0.331 -1.755l-2.878 -0.965l-2.148 -2.821l-0.677 -3.891l2.755 -1.532l1.506 1.47l2.584 -1.682l0.118 -2.833l-1.05 -0.826l-0.654 -1.22l-1.274 -8.491l0.074 -1.847l-0.873 -1.221l-2.57 1.06l-1.88 1.213l-1.93 3.664l1.161 0.564l-0.094 2.878l-3.408 1.88l-0.5 -1.749l-3.945 -6.534l1.087 -1.842l1.847 -1.715l3.781 -2.087l-1.476 -5.024l-3.023 0.051l-6.281 1.642l-5.515 4.509l-0.733 1.934l0.481 4.732l2.626 1.971l1.081 2.29l2.788 1.347l-0.559 5.232l-0.973 3.375l-1.458 1.122l-3.194 -0.028l1.902 -4.834l-2.134 -4.917l-5.24 -2.146l-1.055 -1.216l-2.857 -0.107l-0.265 26.765l0.267 11.126l-71.221 -0.014l0 -2.705l-111.299 -0.009l-7.995 -0.382l-22.042 0.481z" />
  </g>
  <g data-id="033">
    <path d="m294.65 258.545l1.944 3.637l1.331 1.11l1.343 0.551l3.316 1.292l2.927 2.864l0.686 1.878l-0.431 1.517l-1.957 1.214l-1.526 0.329l-2.171 -2.396l-1.88 2.238l-2.469 1.498l1.446 1.346l1.471 3.564l0.563 4.794l-0.333 1.818l1.267 2.462l2.738 2.613l0.499 1.325l-0.857 4.201l-1.932 1.646l2.06 0.549l1.522 1.078l0.505 2.104l0 1.46l0.404 1.353l1.638 1.418l0.87 1.474l0.345 1.72l0.071 4.991l0.044 3.131l-1.548 1.34l-3.484 1.032l-6.922 2.895l10.675 10.845l-0.012 1.04l5.125 0.065l8.323 -0.059l1.763 0.025l2.382 0.019l4.113 -0.041l2.731 0.075l0.758 1.158l0.429 1.261l1.309 0.789l0.011 1.001l1.091 1.332l0.029 1.218l0.384 1.424l1.164 1.935l1.178 1.353l1.893 1.258l1.237 0.367l1.227 1.038l1.056 1.44l1.068 0.518l1.12 -0.423l1.717 -0.031l1.724 0.069l1.337 0.295l0.66 1.311l1.023 0.118l1.292 0.612l1.081 1.001l1.813 0.38l0.231 1.818l1.154 0.892l1.234 -0.423l0.955 -1.377l1.208 -0.168l1.307 -0.714l1.056 -0.178l1.219 0.35l1.043 -0.158l1.335 0.284l1.313 0.979l1.246 0.273l1.314 0.228l0.667 -1.096l1.587 -1.557l1.19 -1.007l1.466 -1.187l1.438 -0.505l1.298 0.174l0.539 1.024l1.491 -0.159l1.119 0.723l1.337 -0.139l1.417 1.065l1.327 1.275l2.343 0.088l1.026 0.085l1.507 0.087l1.187 -0.893l1.024 -0.658l1.528 0.282l1.323 0.313l1.495 0.4l1.006 0.486l0.826 1.17l1.242 1.229l1.148 1.768l0.631 1.283l1.266 0.513l1.26 -0.217l1.263 0.087l1.548 -0.561l1.01 -0.056l1.482 -0.161l1.674 0.192l1.325 0.111l1.398 1.004l1.121 0.158l1.148 1.151l0.868 1.496l1.368 1.43l1.852 1.306l2.005 0.195l1.25 -0.2l1.476 -0.577l2.459 0.318l1.321 0.14l-2.632 -1.856l-0.711 -3.775l1.805 -2.757l3.747 -1.692l3.796 1.707l4.049 -1.177l0.708 -1.864l-2.549 -4.796l1.465 -2.517l-1.446 -4.598l-6.081 -2.341l0.553 -2.984l2.693 -1.281l0.501 -2.519l-0.685 -3.902l-9.019 -1.638l-2.019 0.165l-0.664 -2.995l-1.494 -0.621l1.763 -4.976l-1.801 -1.726l-2.724 -4.573l3.603 -0.754l1.481 -3.33l-0.154 -5.876l2.116 -0.73l3.311 -1.903l0.752 -3.747l5.17 -4.157l4.55 -1.826l2.487 -6.198l2.601 -0.884l3.578 -4.022l2.348 -4.758l5.176 0.535l0.554 -4.385l7.507 -1.372l-2.575 -9.17l1.55 -7.524l2.056 -0.684l5.054 -4.712l-2.733 -2.832l1.071 -2.034l-1.922 -3.614l-2.154 -0.044l-1.064 -4.095l-43.028 -0.122l-16.503 0.67l-43.914 0.018l-8.181 0.307l-4.057 -0.045l-18.326 -0.127l-7.786 -0.094l-2.047 -0.041l-3.508 -0.026l-3.398 -0.062l-2.566 -0.038l-1.246 -0.005l-8.831 -0.054l0.253 1.087l1.817 2.607l-0.307 1.789l1.215 3.785l-0.422 2.415l-0.512 1.407l-1.638 1.429l-1.355 2.315l-0.512 1.767l-2.814 4.027z" />
    <path d="m282.345 315.362l-0.269 2.524l1.187 2.307l1.783 0.498l1.508 0.081l2.996 -2.712l1.562 0.388l1.163 -2.345l1.355 -2.005l4.611 -2.969l2.979 -0.757l-2.12 -2.635l-4.128 -0.539l-1.321 -1.001l-0.291 -1.812l0.066 -7.873l0.771 -1.475l-3.408 -3.867l-0.053 -1.307l1.029 -1.838l-2.851 -1.439l-1.03 5.289l-1.935 1.366l-1.978 5.073l-0.176 6.63l-1.539 2.923l1.143 5.65l-1.053 1.845z" />
  </g>
  <g data-id="035">
    <path d="m285.104 278.893l0.304 4.409l1.52 0.608l1.672 -1.368l0 -2.584l-3.497 -1.064z" />
    <path d="m225.898 272.444l-6.285 12.394l9.818 -0.419l17.737 0.399l-0.024 22.105l17.542 0.05l15.088 -0.018l1.821 -4.805l0.176 -7.607l4.558 -7.804l-3.603 -2.602l-1.261 0.344l-1.753 -0.259l0.545 -2.708l-0.098 -3.503l1.081 -1.857l2.085 -1.509l1.88 -0.208l3.145 -1.607l-1.899 -1.007l-0.551 -1.76l-0.271 -3.714l0.747 -1.102l0.219 -1.132l-0.051 -1.05l-1.14 -0.75l-2.067 -2.325l1.224 -3.708l0.545 -2.859l-0.019 -2.518l-0.843 -1.821l-1.633 0.129l-2.456 -0.553l-1.445 -6.611l2.192 -0.273l2.302 0.175l1.495 0.605l2.449 -0.107l1.426 -0.459l0.897 -2.11l-0.137 -1.685l-3.077 -3.945l0.014 -1.97l1.296 -1.35l0.343 -2.169l-2.519 -2.074l-0.499 -1.019l-0.851 -6.125l-0.155 -3.228l-1.741 -4.784l-2.748 -2.517l-3.82 -1.292l-3.189 -2.795l-1.036 -0.056l-1.069 1.76l0.462 1.225l2.619 0.941l1.022 1.391l0.243 2.08l1.694 5.33l-0.073 3.146l-4.405 0.163l-0.829 1.129l-1.101 2.784l-3.187 2.111l-4.337 4.618l-1.094 4.286l-3.101 1.941l-0.628 1.37l-0.38 2.312l-1.321 2.131l-2.656 12.189l-6.489 3.826l-6.666 0.712l-7.738 5.481l-6.419 6.651z" />
  </g>
  <g data-id="037">
    <path d="m417.954 313.649l2.724 4.573l1.801 1.726l-1.763 4.976l1.494 0.621l0.664 2.995l2.019 -0.165l9.019 1.638l0.685 3.902l-0.501 2.519l-2.693 1.281l-0.553 2.984l6.081 2.341l1.446 4.598l-1.465 2.517l2.549 4.796l-0.708 1.864l-4.049 1.177l-3.796 -1.707l-3.747 1.692l-1.805 2.757l0.711 3.775l2.922 1.976l2.616 3.147l1.548 -1.502l4.59 0.343l3.907 -2.22l3.048 1.237l4.411 2.873l1.567 2.507l5.704 3.38l3.813 3.427l1.536 3.398l4.312 1.521l0.012 4.071l2.7 2.03l0.004 2.041l5.398 6.794l50.153 -0.154l1.204 16.155l14.909 0.174l-0.178 16.237l7.811 0.069l60.88 0.084l0.392 -3.332l3.444 -3.684l1.998 -4.436l-0.013 -3.485l-4.785 -7.8l0.224 -11.233l-0.376 -4.672l-4.476 -9.351l-1.285 -8.577l-2.789 -2.797l-1.254 -3.249l2.136 -6.632l1.804 -0.94l1.267 -2.688l0.115 -3.719l-1.205 -2.887l0.82 -4.024l0.198 -5.574l-0.568 -1.481l-1.537 -1.227l-7.276 0.141l-2.365 -6.833l-1.147 0.008l-3.732 0.033l-4.421 -0.06l-5.412 -0.005l-3.862 0.028l-4.76 0.168l-3.445 0.022l-3.967 0.009l-5.381 0.034l-1.686 -0.219l-0.924 -1.178l-2.008 -1.081l-1.037 -0.207l-1.905 -1.265l-1.219 -1.075l-0.477 -1.177l-1.533 -1.196l-1.342 -0.908l-1.279 -0.085l-1.024 -1.356l-1.6 -0.968l-1.631 -0.44l-0.75 -1.693l-1.41 -0.162l0.151 1.119l-0.133 1.627l-1.984 0.998l-1.886 0.476l-0.856 -1.503l-0.243 -1.287l-0.807 -1.381l-0.167 -1.16l-2.13 -0.721l-1.276 0.084l-1.341 -0.99l-1.151 0.138l-1.116 0.344l-1.053 -0.322l-1.121 0.313l-1.092 -0.435l-1.146 -0.206l-1.08 -1.119l-1.104 -0.425l-0.947 -1.136l-1.06 -1.085l-1.119 -0.063l-1.157 -0.616l-0.651 -1.014l-0.387 -1.024l-0.195 -1.012l-0.494 -1.146l-1.016 -0.437l-1.367 -0.223l-1.067 -0.596l-1.102 -0.275l-1.014 -0.136l-1.032 0.055l-0.598 -1.066l-0.804 -1.041l-0.575 -1.121l-0.468 -1.063l-1.165 0.435l-1.012 -0.168l-1.109 -0.547l-1.12 1.025l-0.618 1.114l-1.102 -0.285l-1.093 -1.045l-1.03 0.259l-1.053 0.221l-1.029 -0.913l-1.029 -1.094l-1.024 0.216l-1.039 0.206l-1.102 -0.647l-1.007 -0.84l-0.09 -1.078l0.031 -1.084l-0.407 -1.129l-0.463 -1.056l-1.065 -0.676l-1.109 -0.245l-0.496 -1.064l0.643 -1.03l-1.034 -0.989l-0.432 -1.125l-1.166 -0.81l-1.038 -0.39l-1.029 -0.745l-0.729 -1.087l-0.725 -1.031l0.335 -1.004l-0.487 -1.111l-1.094 -0.837l-1.027 -0.271l-1.073 -0.288l-0.616 -1.069l-1.045 -0.778l-1.12 -0.395l-1.135 -0.435l-1.04 -0.895l-0.708 -1.053l-1.049 -0.628l-0.546 -1.038l-0.565 -1.105l-0.837 -1.109l0.212 -1.029l-0.479 -1.003l-0.186 -1.043l-0.66 -1.045l-1.055 -0.069l-0.767 -1.082l-7.754 1.098l-0.554 4.385l-5.176 -0.535l-2.348 4.758l-3.578 4.022l-2.601 0.884l-2.487 6.198l-4.55 1.826l-5.17 4.157l-0.752 3.747l-3.311 1.903l-2.116 0.73l0.154 5.876l-1.481 3.33l-3.603 0.754z" />
  </g>
  <g data-id="039">
    <path d="m399.241 560.634l0.462 31.969l-0.08 16.125l11.75 0.097l-2.681 2.176l2.171 4.029l-0.295 4.261l3.139 0.743l4.644 3.569l2.766 0.744l2.256 0.607l2.796 0.202l3.731 -1.873l4.452 -0.337l3.271 0.92l3.182 2.364l4.623 1.58l4.529 1.309l1.972 3.919l0.657 3.717l-0.169 2.346l1.627 1.874l2.045 0.063l2.855 -0.327l1.737 -0.343l1.248 -1.153l0.274 -1.293l4.494 -4.53l2.63 -0.852l3.939 0.284l3.343 -0.406l3.066 0.892l3.889 -1.537l1.164 0.055l3.595 2.763l2.597 -0.293l3.266 -3.348l1.838 -1.886l8.546 -2.692l8.277 -3.7l4.452 -1.722l2.623 -2.62l1.962 -1.302l2.375 -1.576l5.603 -0.128l4.055 1.503l4.797 5.222l2.06 1.795l3.006 1.025l10.029 -0.879l9.582 -2.162l5.168 -1.667l9.966 -1.063l5.155 -6.599l3.723 -2.054l9.108 -2.201l8.827 -4.908l4.529 -2.287l7.456 -0.692l4.006 -1.209l1.007 -0.224l0.313 -37.694l-71.956 0.127l-2.687 -0.241l-15.975 -0.005l-63.258 -0.123l-8.221 -0.433l-49.806 0.095l-11.502 -0.016z" />
  </g>
  <g data-id="041">
    <path d="m174.26 421.825l0.065 10.721l0.682 15.927l0.014 16.174l0.779 1.933l0.075 31.212l12.698 0.105l5.26 -0.4l13.268 -0.45l21.813 0.121l74.196 0.008l15.701 0.368l16.205 -0.208l75.726 -0.323l16.45 -0.367l0.918 -3.784l-2.712 -3.772l-0.54 -5.31l-3.055 -3.042l1.619 -3.117l-3.446 -2.014l-0.143 -5.646l2.709 -0.98l2.222 -3.628l-1.521 -2.11l2.416 -2.295l-0.24 -3.561l2.671 -3.674l-1.085 -4.587l-2.373 -0.538l0.712 -6.519l4.029 -0.522l0.104 -3.505l2.902 -1.304l-2.003 -2.594l-5.013 -0.391l-2.96 -2.543l0.752 -2.901l-2.116 -0.141l-1.713 -4.784l-38.809 0.001l-2.36 1.369l-5.163 5.449l-1.838 3.181l-1.295 0.334l-3.268 -0.128l-8.163 -2.096l-3.31 -2.739l-2.619 1.963l-3.902 -1.501l-1.959 1.923l-2.288 -0.048l-5.244 -1.811l-4.255 0.62l-1.723 -1.076l-6.249 -0.101l-3.229 -1.468l-34.955 0.004l-1.33 0.187l-8.056 -0.261l-8.449 0.239l-69.734 -0.406l0.041 -5.427l-24.408 -0.024l-2.502 0.258z" />
  </g>
  <g data-id="043">
    <path d="m736.462 252.712l-0.469 80.988l119.39 0.32l10.944 -0.105l17.564 0.066l0.085 -28.164l0.152 -38.856l0.264 -8.14l-0.158 -32.017l-1.269 -1.632l-6.474 -2.506l-0.618 1.745l-3.403 0.594l-2.895 2.286l-3.909 -1.717l-3.068 -0.413l-1.809 2.125l-1.176 3.365l-2.885 0.546l-1.561 1.984l-1.035 -1.325l-2.807 -0.154l-2.696 -4.488l-2.373 -1.716l-0.359 -3.669l-2.962 -6.26l-2.061 0.044l-0.041 -2.429l-2.087 -0.772l-0.012 -1.756l-2.996 -3.422l-1.572 -3.267l-2.204 1.005l-2.117 -0.644l-1.775 1.685l-7.315 4.964l-0.582 2.383l-2.46 0.376l-1.148 2.24l-0.915 7.812l-1.535 1.699l-3.018 0.381l-6.801 -2.823l-1.323 -1.711l-0.104 -3.891l-1.279 -1.432l-4.366 1.629l-3.862 -0.197l-1.637 -1.735l1.355 -5.897l-4.72 -3.329l-10.438 0.995l-1.274 -1.966l-3.382 -1.014l-2.46 1.745l-0.519 5.771l-2.385 0.606l-6.766 -2.967l-3.666 -0.872l-2.242 -2.454l-0.465 -3.309l-2.421 -1.421l-13.444 3.256l-2.105 -0.488l-0.333 48.348z" />
  </g>
  <g data-id="045">
    <path d="m156.995 268.853l0 16.474l0.115 48.972l1.819 0.062l0.238 33.036l15.382 0.037l21.338 -0.491l16.22 0.05l0.018 -1.136l0.167 -2.894l1.672 -1.463l3.387 -0.191l2.395 -1.645l0.631 -3.673l1.026 -1.5l4.261 -1.923l2.086 -1.614l0.739 -2.924l1.377 -0.718l3.191 2.541l0.492 2.08l0.509 1.387l5.696 -1.864l2.648 -7.702l-2.286 -4.791l-0.967 -6.866l2.286 -5.315l3.008 -4.03l0.333 -1.548l-0.703 -4.801l0.431 -1.826l2.207 1.177l0.437 -8.83l0.024 -22.105l-17.737 -0.399l-9.818 0.419l-2.242 4.417l-11.039 19.952l0.61 2.91l3.815 0.249l3.679 1.185l5.594 -1.915l4.561 -3.311l7.783 -3.318l1.976 -1.49l3.679 -0.365l-0.699 2.372l-4.287 4.135l-3.497 1.095l-5.777 1.642l-5.929 4.469l-5.351 -0.122l-5.015 -2.082l-3.693 2.856l-2.023 -1.558l6.331 -19.36l16.246 -28.134l-49.575 -0.151l-1.277 0.539l-16.49 0z" />
  </g>
  <g data-id="047">
    <path d="m492.189 5.318l1.568 2.432l3.121 1.329l1.732 3.234l5.547 -3.915l3.013 0.958l1.851 3.55l-2.087 1.725l-0.226 4.029l1.206 1.399l-0.543 4.495l4.051 2.341l0.503 1.82l-1.413 6.403l0.892 6.911l1.267 2.543l1.996 0.306l4.062 7.133l2.853 2.077l-2.858 1.263l0.014 4.193l-3.242 -0.139l-1.948 4.345l-4.252 3.388l-4.657 6.173l0.595 4.499l2.968 3.695l3.812 0.088l1.033 -2.676l4.358 3.952l-2.579 6.553l0.845 1.973l3.145 0.122l1.934 -0.632l1.532 0.056l0.174 1.234l-0.974 1.745l0.113 1.308l0.828 1.191l2.019 1.831l-1.543 0.962l-0.781 1.137l0.391 1.631l1.059 0.563l-0.085 1.396l-1.466 1.72l-1.209 1.159l-0.124 1.747l1.299 0.921l0.632 4.904l0.127 1.665l0.861 1.29l2.1 -0.216l2.491 1.869l2.552 1.631l2.286 1.386l-0.178 3.6l-1.586 2.059l-0.491 3.016l1.567 1.86l2.411 1.33l3.75 0.441l2.182 0.186l1.918 3.385l2.838 2.656l2.679 3.097l3.229 1.981l4.692 2.523l0.103 2.498l2.035 1.06l2.927 2.979l-0.643 3.001l-1.281 3.72l1.196 3.751l3.118 2.977l0.583 1.077l2.557 0.076l1.802 -0.099l1.299 0.961l2.059 2.292l1.117 0.811l1.153 0.843l1.091 1.295l0.209 1.065l1.271 0.827l2.386 1.303l2.263 0.038l2.964 1.675l1.968 0.6l1.94 1.421l-1.099 1.004l-0.783 1.662l0.87 1.719l2.171 0.567l1.537 1.504l1.044 0.418l1.877 0.808l1.176 2.141l0.47 1.316l-0.311 1.431l1.197 1.316l0.954 1.585l-0.719 1.304l1.579 1.33l9.832 0.678l4.86 0.015l2.633 -0.008l3.679 0.003l2.578 -0.027l-1.143 -1.772l1.236 -4.446l0.372 -4.917l-3.301 -5.967l6.659 -5.171l4.459 -1.876l3.453 0.013l0.877 -3.338l3.55 0.315l2.576 3.359l3.305 0.192l2.121 -1.768l1.769 4.851l-2.974 6.863l0.644 1.783l4.632 4.305l2.739 0.754l2.124 -0.729l2.475 -3.971l9.918 -7.99l0.187 -2.33l1.934 -1.464l8.281 1.099l4.113 4.924l4.302 -0.326l3.448 0.619l1.994 -3.989l0.053 -5.052l3.702 -3.607l5.339 2.578l3.008 -2.135l2.307 -0.41l1.934 -1.894l2.666 -0.516l3.628 -3.484l3.481 -0.698l2.111 1.78l6.434 0.662l3.596 4.569l1.287 8.302l1.996 5.076l2.936 1.155l3.768 3.509l-1.86 6.717l-2.163 4.152l0.073 2.683l1.044 0.871l2.105 0.488l13.444 -3.256l0.79 -1.064l0.243 -99.512l-3.279 0.022l-0.014 -33.289l4.174 -0.008l0.05 -67.318l-37.8 0.009l-37.939 0.002l-3.713 -0.002l-31.152 0.001l-22.384 -0.037l-15.991 0.201l-4.389 -0.023l-43.584 -0.228l-43.544 0.101l-17.264 -0.018l-1.803 3.986l-2.556 0.901z" />
  </g>
  <g data-id="049">
    <path d="m81.21 421.463l0.216 1.811l0.206 5.148l-0.189 1.981l1.987 2.091l2.285 0.25l2.139 1.489l0.502 1.054l2.567 2.065l2.425 1.238l1.179 -1.043l2.633 0.854l-0.191 -1.981l-0.575 -1.994l0.596 -1.63l3.366 1.497l2.509 0.017l1.561 -0.273l0.133 -1.975l0.655 -1.754l1.545 -0.652l2.81 3.649l1.858 0.543l1.717 1.465l1.951 0.294l0.541 1.742l-0.482 1.216l-2.347 -0.017l-1.733 0.723l-3.927 2.8l-2.558 0.937l-0.982 1.108l0.301 3.566l-2.521 2.37l-2.562 0.838l0.188 4.244l0.463 1.864l2.1 1.349l1.315 1.387l0.835 2.2l0.267 1.808l2.165 2.871l1.16 2.768l-0.382 1.59l0.069 1.081l-3.133 2.776l-2.875 5.674l0.541 1.865l-3.659 -1.178l-1.428 -3.056l0.02 -1.38l-1.194 0.069l-0.549 1.559l-0.192 3.669l0.457 1.086l0.283 3.337l1.508 0.705l1.441 1.484l-0.213 3.253l0.644 1.267l1.545 -0.264l-0.486 5.838l-1.308 0.395l-2.676 -0.365l-2.858 1.338l-1.034 -1.338l-1.378 -15.643l-0.73 -6.204l0.731 -6.546l0.367 -6.05l-0.053 -3.433l-0.669 -1.579l-2.82 -4.912l-0.239 -1.001l2.153 -1.495l-1.608 -2.796l-1.027 0.034l-1.558 2.006l0.03 6.236l0.827 8.418l0.631 11.681l-0.051 15.601l-0.118 4.231l-0.802 11.048l-0.865 3.963l-0.624 1.668l-0.699 4.032l-0.059 1.028l2.715 -1.777l2.167 0.525l0.668 -1.434l0.409 -2.438l0.726 -2.124l1.199 -1.375l2.467 0.459l2.054 0.782l1.368 1.107l0.46 1.703l2.118 3.122l4.448 4.771l1.314 1.059l4.321 1.055l8.876 -8.104l1.354 -0.169l1.65 0.791l0.972 1.042l1.071 0.204l3.224 -3.105l1.649 0.287l0.259 -17.815l47.104 0.157l-0.075 -31.212l-0.071 -1.855l-0.722 -16.252l-0.682 -15.927l-0.065 -10.721l-60.161 0.05l-1.95 0.177l-5.189 -0.295l-25.75 -0.294z" />
  </g>
  <g data-id="051">
    <path d="m908.735 50.54l0.023 16.82l16.536 -0.065l-0.021 80.628l-0.268 2.833l-0.017 17.008l8.282 0.004l0.081 16.754l50.57 0.333l0.035 -7.663l0.038 -7.549l0.199 -9.406l-0.004 -1.218l0.126 -5.302l0.438 -31.327l-0.014 -9.99l0 -1.365l-0.018 -13.523l0.118 -23.36l0.018 -1.501l0.088 -5.494l0.043 -18.03l0.122 -18.788l0.036 -5.495l-0.031 -24.199l-11.989 0.058l-18.187 -0.181l-20.688 -0.106l-0.052 15.041l-8.773 0.002l0.059 16.779l-8.361 0.045l0.006 18.196l-8.393 0.063z" />
  </g>
  <g data-id="053">
    <path d="m259.125 366.892l0.468 2.563l3.632 6.476l0.497 4.193l5.344 3.273l-1.071 3.612l1.163 1.252l2.241 0.797l0.071 -1.779l5.87 1.899l-0.889 1.191l1.494 5.015l4.166 1.589l4.318 3.7l0.389 6.973l4.181 0.771l0.993 2.12l9.225 2.46l0.937 -1.132l4.212 1.394l1.353 -1.194l0.329 2.591l2.754 0.444l-0.343 4.076l-0.332 3.154l5.018 4.228l4.033 -1.592l4.475 2.29l3.229 1.468l6.249 0.101l1.723 1.076l4.255 -0.62l5.244 1.811l2.288 0.048l1.959 -1.923l3.902 1.501l2.619 -1.963l3.31 2.739l8.163 2.096l3.268 0.128l1.295 -0.334l1.838 -3.181l5.163 -5.449l2.36 -1.369l38.809 -0.001l1.625 -1.656l-4.076 -5.183l-2.938 -7.943l-3.291 -1.856l3.236 -6.478l5.238 -2.951l0.942 -2.099l-1.141 -4.913l2.077 -2.318l-0.473 -1.366l5.038 -3.473l0.034 -2.52l1.465 -2.082l-0.647 -1.913l3.286 -4.419l-0.748 -5.68l-1.575 -0.306l-1.673 0.049l-1.423 -0.185l-2.089 0.595l-1.53 0.197l-1.338 -0.843l-1.66 -1.62l-1.025 -1.193l-1.048 -1.216l-1.008 -0.991l-1.541 -0.286l-1.264 -0.877l-1.357 -0.245l-1.846 0.264l-1.634 -0.016l-1.007 0.587l-1.176 0.039l-1.012 -0.028l-1.616 -0.192l-1.157 -1.511l-1.148 -1.768l-1.242 -1.229l-0.826 -1.17l-1.006 -0.486l-1.495 -0.4l-1.323 -0.313l-1.528 -0.282l-1.024 0.658l-1.187 0.893l-1.507 -0.087l-1.026 -0.085l-1.41 -0.06l-1.601 -0.781l-1.836 -1.262l-1.577 -0.186l-1.119 -0.723l-1.491 0.159l-0.539 -1.024l-1.298 -0.174l-1.438 0.505l-1.466 1.187l-1.19 1.007l-1.587 1.557l-0.667 1.096l-1.314 -0.228l-1.246 -0.273l-1.313 -0.979l-1.103 0.058l-1.275 -0.184l-1.219 -0.35l-1.056 0.178l-1.307 0.714l-1.208 0.168l-0.955 1.377l-1.234 0.423l-1.154 -0.892l-0.231 -1.818l-1.167 -0.588l-1.427 -0.312l-1.592 -1.093l-1.023 -0.118l-0.176 -1.065l-1.658 -0.1l-1.041 -0.789l-1.807 0.129l-1.555 0.421l-1.389 -0.335l-1.056 -1.44l-1.227 -1.038l-1.237 -0.367l-1.073 -0.845l-1.331 -1.088l-1.306 -1.672l-0.633 -1.773l-0.374 -1.27l-0.315 -1.11l-0.517 -1.076l-1.51 -1.476l-0.429 -1.261l-0.758 -1.158l-2.731 -0.075l-4.113 0.041l-2.382 -0.019l-1.333 -0.02l-8.753 0.054l-4.665 -0.022l-0.448 -1.083l-10.675 -10.845l-3.163 2.694l-0.208 1.115l1.573 0.83l1.036 -0.283l1.343 0.679l0.58 1.012l-1.135 1.281l-1.475 2.273l-1.039 0.313l-4.34 -1.749l-7.891 -7.413l-1.8 -0.211l2.536 4.943l-1.332 2.71l-2.921 5.939l-2.518 6.637l-1.319 6.082l-3.073 1.687l-2.082 0.276l-1.216 3.49l0.572 2.548l-1.136 0.091l-4.231 5.87l-1.994 0.046l-1.769 3.436z" />
    <path d="m241.883 332.597l-0.123 1.903l1.342 2.648l7.826 14.368l1 0.185l1.69 1.745l0.98 1.011l2.656 2.698l1.3 1.776l1.223 0.717l1.211 -1.275l1.115 -1.731l1.119 -0.396l0.264 -1.492l-0.063 -4.662l-0.484 -3.092l2.615 -0.456l1.665 -1.145l0.315 -1.018l-0.885 -2.002l-1.398 -0.687l-1.004 -0.773l-1.583 -1.468l-3.16 0.039l-2.591 -0.924l0.857 -2.668l-4.029 -4.969l0.559 -3.913l2.496 -6.285l6.94 -6.874l4.14 -2.068l0.55 1.368l-4.661 5.063l-3.342 11.284l3.685 2.55l5.318 6.562l1.632 2.78l1.496 0.634l1.542 -1.93l0.208 -1.768l1.362 -3.329l3.926 -5.758l-3.034 -5.711l-0.607 -2.038l2.577 -3.983l0.551 -2.27l1.854 -3.089l-1.803 -3.507l0.641 -1.692l-15.088 0.018l-17.542 -0.05l0.019 8.466l-0.228 1.006l0.791 2.225l-0.304 9.877l-2.252 2.423l-2.182 0.51l-1.105 1.167z" />
  </g>
  <g data-id="055">
    <path d="m224.637 40.678l-0.304 2.28l7.152 5.261l3.43 1.668l6.597 1.585l3.428 -1.319l-7.526 -3.794l-7.759 -5.073l-5.017 -0.608z" />
    <path d="m212.704 58.813l2.989 0.814l1.369 1.103l-0.676 2.218l2.613 -0.54l2.064 -2.505l-0.31 -4.753l-1.559 -0.475l-2.62 0.779l-3.869 3.359z" />
    <path d="m195.742 78.91l0.044 1.154l2.269 0.627l1.52 1.525l0.141 1.321l-0.551 1.957l0.493 1.091l1.4 1.714l-0.049 1.616l-0.177 1.876l1.557 3.011l1.226 1.673l2.818 2.455l6.623 2.524l1.218 1.539l2.43 2.222l9.869 1.706l3.087 -0.976l1.405 -0.898l1.336 1.468l-1.477 2.564l1.309 0.036l1.862 0.541l1.816 0.199l-0.592 2.563l1.265 0.744l1.231 0.115l6.183 -1.144l1.739 0.348l1.111 -1.238l-0.536 -2.952l-0.69 -1.697l-0.848 -1.155l0.233 -4.832l2.238 -2.042l2.723 -2.789l0.212 -1.716l-1.264 -1.007l-0.148 -1.426l0.753 -2.859l1.309 -1.343l0.26 -1.152l-2.077 -3.588l-1.856 -1.694l-0.483 -2.032l0.595 -1.114l-1.107 -2.635l2.138 -3.521l1.058 -0.371l3.69 -2.728l1.656 -2.164l-7.444 -3.667l-4.203 -3.595l-5.477 -2.704l-2.387 -0.564l-3.026 0.296l-3.085 1.315l-0.864 2.582l-4.572 4.013l-0.516 1.054l-2.692 2.359l-0.627 1.464l-1.109 2.614l-3.218 2.516l0.271 1.841l2.954 2.324l-1.365 1.492l2.233 2.228l1.516 -0.105l1.25 0.508l1.141 1.582l-0.152 1.564l-3.55 0.208l-2.382 -0.5l-1.885 -1.123l-1.489 -2.492l-1.864 -1.878l-3.446 -1.161l-0.067 -1.202l0.489 -1.172l-1.166 -2.392l-3.618 0.441l-2.046 -0.68l-3.426 0.304l-2.213 2.914l-0.934 2.104z" />
    <path d="m191.451 60.949l-0.074 1.063l2.716 2.734l10.357 6.218l1.955 0.826l1.728 -0.097l-2.028 -2.631l-1.144 -1.883l-2.178 -2.172l-3.08 -2.299l-1.792 -0.979l-1.519 0.05l-1.911 -0.979l-3.029 0.148z" />
  </g>
  <g data-id="057">
    <path d="m266.024 88.036l-0.093 2.129l0.294 1.28l1.487 1.057l2.629 -0.654l2.547 -1.479l1.248 0.125l2.204 1.397l-0.753 -3.691l-1.797 -1.064l-2.295 -1.452l-2.364 -2.137l-1.698 -3.121l-1.252 0.949l0.205 5.686z" />
    <path d="m260.338 73.705l1.526 1.899l1.195 0.621l1.362 0.381l1.168 -0.349l-2.195 -3.881l-3.056 1.328z" />
    <path d="m258.43 101.589l0.084 2.826l1.499 1.256l0.624 -1.379l0.845 -2.328l3.134 -0.247l0.879 1.001l0.372 3.637l-1.587 2.234l-1.256 -0.3l0.373 3.728l1.128 1.595l1.347 1.038l5.392 -1.4l3.972 -2.104l0.813 -2.717l2.297 -0.214l-0.142 3.409l0.495 3.993l0.901 1.185l1.029 0.52l0.767 2.655l3.328 3.61l1.247 0.545l1.952 0.019l5.084 4.581l2.376 0.69l1.968 1.526l3.122 4.288l0.769 1.239l22.645 0.009l2.408 0.074l23.842 -0.048l3.763 0.012l49.781 -0.295l73.664 0.569l-8.932 -4.221l1.54 -5.527l2.1 0.184l-0.06 -3.517l-2.847 -5.353l3.555 -7.72l-0.387 -2.678l-2.854 -2.757l1.738 -4.894l1.724 -1.911l4.496 0.211l1.044 -0.935l5.355 -0.114l0.072 -5.783l5.872 1.145l0.081 -1.883l2.374 -0.925l2.838 1.567l0.74 -3.401l4.283 0.511l1.872 3.169l-0.956 1.743l3.691 2.415l2.853 -0.342l8.131 -4.387l-0.845 -1.973l2.579 -6.553l-4.358 -3.952l-1.033 2.676l-3.812 -0.088l-2.968 -3.695l-0.595 -4.499l4.657 -6.173l-20.014 0l0 3.118l-45.193 -0.002l-121.359 -0.925l-14.456 0.066l-21.167 -0.011l3.14 3.811l1.989 0.599l2.997 4.47l-0.996 3.464l-1.471 2.222l-4.333 2.09l-1.277 -1.037l-0.957 -2.177l-2.107 -0.414l-2.867 0.407l0.36 1.414l3.524 0.748l0.763 1.656l1.685 5.429l0.181 1.2l-0.144 2.37l0.191 3.319l0.595 2.064l1.175 1.304l-3.972 2.718l-1.359 -0.181l-1.995 -1.192l-1.332 0.242l-2.492 -6.188l-1.437 -1.814l-3.889 -0.764l-0.19 -1.695l-1.949 -0.093l-7.19 3.369l-1.68 -0.993l-2.19 2.22l-0.702 1.76l-0.748 1.875z" />
    <path d="m254.986 81.275l0.059 1.944l1.147 1.603l0.825 3.034l0.208 1.797l4.217 -0.637l2.405 -4.814l-2.7 -4.215l-0.374 -1.159l-2.538 -2.356l-1.333 1.067l-1.915 3.736z" />
  </g>
  <g data-id="059">
    <path d="m317.676 602.045l0.108 37.439l0.011 12.214l6.04 -2.99l2.303 -2.477l5.494 -1.245l1.433 0.286l2.199 0.281l1.366 -0.385l7.33 -4.753l2.789 -1.031l2.415 -0.142l2.642 -1.259l2.494 -1.824l0.999 -1.971l2.633 -0.112l1.678 -0.914l1.76 -0.958l0.948 -1.393l-0.128 -1.594l4.437 -4.131l7.146 -2.47l9.748 2.33l3.549 -0.141l4.988 -1.882l4.758 0.078l12.544 -4.009l1.205 0.3l0.295 -4.261l-2.171 -4.029l2.681 -2.176l-11.75 -0.097l0.08 -16.125l-0.462 -31.969l11.502 0.016l0 -63.638l-75.726 0.323l-15.667 0.109l-0.403 1.805l-0.268 30.463l-0.597 2.042l0.105 27.082l0.172 34.466l-0.681 8.745z" />
  </g>
  <g data-id="061">
    <path d="m307.634 189.472l0.285 2.112l2.493 1.128l-1.931 -2.98z" />
    <path d="m297.749 145.206l0.612 1.139l0.916 1.454l-0.007 1.096l1.027 2.926l0.461 2.055l1.229 2.703l1.337 1.047l-0.184 2.519l-0.867 1.847l0.705 2.59l0.121 1.638l-0.164 3.246l2.794 5.402l2.19 0.911l0.564 1.411l2.03 2.315l3.166 4.521l6.31 3.811l0.868 2.534l-0.671 1.811l-0.278 3.717l0.773 2.159l-0.473 1.051l-2.426 2.18l-3.715 0.571l-2.245 0.855l-1.465 0.558l-0.524 2.368l0.179 1.451l-1.548 3.303l-0.857 2.652l-0.639 3.371l0.512 2.065l-0.484 1.929l-0.335 1.333l-0.511 1.065l-1.701 1.163l-4.963 6.268l-0.639 5.331l8.91 0.395l1.246 0.005l2.566 0.038l3.398 0.062l3.508 0.026l2.047 0.041l7.786 0.094l18.326 0.127l4.057 0.045l8.181 -0.307l43.914 -0.018l16.407 -0.259l43.124 -0.289l0.376 -1.321l2.268 -2.106l2.016 -2.642l1.054 -2.102l-1.037 -2.066l-1.688 0.188l-3.247 -0.402l-2.661 -1.573l-1.141 -2.074l-0.275 -3.052l-0.589 -1.087l-0.274 -1.048l-1.433 -0.428l-0.732 -2.216l-0.178 -1.452l0.622 -1.178l-0.064 -1.255l-0.28 -1.183l0.376 -2.062l0.844 -1.111l0.592 -1.465l-0.361 -2.119l1.046 -0.889l0.976 -2.544l0.909 -1.61l1.718 -1.25l1.347 -1.707l-0.093 -1.523l-0.958 -1.072l-0.533 -1.656l-1.566 -1.118l-1.058 -1.882l0.368 -1.052l2.204 -0.569l1.664 -2.256l2.014 -0.918l1.973 -0.252l2.473 -1.212l2.38 -0.174l2.339 -1.498l2.217 0.149l1.787 -2.085l1.571 -1.067l1.889 -2.172l1.768 -0.549l0.831 -1.64l-1.02 -2.466l-0.114 -3.077l2.149 -1.907l2.109 -1.088l1.827 -0.115l0.283 -2.273l-1.278 -2.78l-2.181 -2.016l-1.79 -1.674l-1.752 -2.197l0.622 -1.829l-1.981 -2.283l-1.858 -2.97l-1.87 -2.601l-0.203 -1.052l-0.659 -1.567l1.417 -2.247l-73.346 -0.556l-50.223 -0.012l-3.763 -0.012l-23.842 0.048l-2.408 -0.074l-22.645 -0.009l0.845 1.892l-2.605 3.501l-0.418 2.391l-1.316 0.946z" />
  </g>
  <g data-id="063">
    <path d="m883.977 305.817l-0.085 28.164l100.242 0.179l0.023 -16.587l-0.029 -3.555l-0.014 -1.676l0.038 -4.57l-0.009 -2.519l0 -4.249l-0.003 -5.377l0.003 -2.747l-0.073 -8.431l-0.03 -2l-0.068 -4.795l0.054 -3.017l-0.035 -9.382l-0.039 -10.361l-0.026 -5.371l-0.006 -3.101l0.006 -2.394l-0.065 -1.674l-0.066 -3.188l0.022 -1.079l0.054 -2.304l0.008 -8.336l-0.06 -3.165l0.013 -22.774l0.001 -1.524l0.012 -2.123l0.075 -13.005l-50.57 -0.333l-12.571 -0.109l0 48.356l-2.048 -1.335l-3.138 1.513l-3.111 -1.809l-3.831 -5.945l-2.692 -0.094l-1.251 -1.699l-0.719 -7.018l-1.112 -1.652l-2.175 1.083l-1.226 3.491l0.514 1.685l-7.224 5.612l-1.646 -0.95l-1.968 1.193l-1.019 2.705l-1.988 -0.166l-1.912 -2.581l0.158 32.017l-0.264 8.14l-0.152 38.856z" />
  </g>
  <g data-id="065">
    <path d="m810.057 188.067l0.358 1.588l0.832 1.174l1.147 1.39l1.165 2.355l2.723 3.802l-0.115 4.853l1.192 8.228l0.356 2.278l2.46 -0.376l0.582 -2.383l7.315 -4.964l1.775 -1.685l2.117 0.644l2.204 -1.005l1.572 3.267l2.996 3.422l0.012 1.756l2.087 0.772l0.041 2.429l2.061 -0.044l2.962 6.26l0.359 3.669l2.373 1.716l2.696 4.488l2.807 0.154l1.035 1.325l1.561 -1.984l2.885 -0.546l1.176 -3.365l1.809 -2.125l3.068 0.413l3.909 1.717l2.895 -2.286l3.403 -0.594l0.618 -1.745l6.474 2.506l1.269 1.632l1.912 2.581l1.988 0.166l1.019 -2.705l1.968 -1.193l1.646 0.95l7.224 -5.612l-0.514 -1.685l1.226 -3.491l2.175 -1.083l1.112 1.652l0.719 7.018l1.251 1.699l2.692 0.094l3.831 5.945l3.111 1.809l3.138 -1.513l2.048 1.335l0 -48.356l12.571 0.109l-0.081 -16.754l-8.282 -0.004l0.017 -17.008l0.268 -2.833l0.021 -80.628l-16.536 0.065l-0.023 -16.82l8.393 -0.063l-0.006 -18.196l8.361 -0.045l-0.059 -16.779l8.773 -0.002l0.052 -15.041l-22.688 -0.093l-34.383 0.058l-1.062 0.124l-14.93 0l-25.107 -0.097l-0.686 1.178l-1.712 0.128l0.779 1.575l-1.254 2.662l1.565 1.937l-1.239 2.874l-0.474 1.731l0.253 1.333l1.359 2.163l0.903 1.079l0.151 1.415l-0.771 1.362l-0.826 2.05l-0.016 1.302l0.22 1.652l1.381 2.377l0.125 1.4l0.698 1.303l0.919 2.077l2.072 2.271l0.427 2.006l0.871 2.089l0.111 1.447l0.858 1.637l0.925 1.257l1.239 -0.005l1.336 -0.317l0.426 1.307l-1.532 1.225l0.229 1.174l-0.092 1.709l1.052 0.793l0.3 1.087l-0.901 1.019l1.476 1.424l-0.684 2.437l0.357 2.009l-0.062 1.692l0.694 2.906l0 1.445l-0.159 1.184l0.97 1.398l0.107 1.127l0.456 1.817l-0.373 2.193l-1.092 0.794l-0.171 1.097l-0.21 1.717l-1.132 2.555l0.097 2.339l0.149 1.857l-0.74 2.017l-0.864 2.871l-0.594 2.757l0.173 2.357l0.04 1.537l-1.262 1.336l-1.211 -0.257l-1.176 -0.284l-1.12 1.446l-0.198 1.234l-0.074 1.943l-0.473 1.371l-0.473 1.621l-0.768 1.004l-1.139 1.1l-1.062 2.489l0.013 2.025l1.126 1.851l0.217 2.159l-0.184 1.903l0.082 2.569l0.762 1.335l0.786 1.343l0.358 1.83l0.699 2.338l0.159 2.226l0.039 2.445l0.012 2.173l0.439 1.328l0.313 1.925l0.925 1.731l0.64 1.115l1.131 2.076l0.563 2.651l1.002 1.587l-0.161 1.982l-0.45 1.469l-0.361 1.295l-1.571 2.201l-1.753 1.575l-1.586 1.363l-0.665 1.517l-0.409 3.378l-0.128 2.629l0.519 2.672l-0.145 2.543l-0.949 2.054l-3.173 0.767l-2.212 0.328l-1.178 0.658l-0.228 1.974l0.038 1.775l2.276 2.355l0.563 2.547l-0.537 1.877l0.243 2.47l-0.729 1.244l-1.164 0.555l-2.313 0.044l-2.18 2.646l-2.793 -0.096l-6.302 -1.701l-2.628 1.736l-1.073 0.69l-1.467 0.929z" />
  </g>
  <g data-id="067">
    <path d="m196.015 380.958l-0.283 2.52l5.723 0.207l-0.275 29.664l0.002 1.929l-0.011 6.313l-0.041 5.427l69.734 0.406l8.449 -0.239l8.056 0.261l1.33 -0.187l34.955 -0.004l-4.475 -2.29l-4.033 1.592l-5.018 -4.228l0.332 -3.154l0.343 -4.076l-2.754 -0.444l-0.329 -2.591l-1.353 1.194l-4.212 -1.394l-0.937 1.132l-9.225 -2.46l-0.993 -2.12l-4.181 -0.771l-0.389 -6.973l-4.318 -3.7l-4.166 -1.589l-1.494 -5.015l0.889 -1.191l-5.87 -1.899l-0.071 1.779l-2.241 -0.797l-1.163 -1.252l1.071 -3.612l-5.344 -3.273l-0.497 -4.193l-3.632 -6.476l-0.468 -2.563l1.769 -3.436l-3.546 0.083l-6.859 -3.747l-5.012 -10.603l-4.837 2.846l-1.01 -0.229l-5.575 1.513l-0.509 -1.387l-0.492 -2.08l-3.191 -2.541l-1.377 0.718l-0.739 2.924l-2.086 1.614l-4.261 1.923l-1.026 1.5l-0.631 3.673l-2.395 1.645l-3.387 0.191l-1.672 1.463l-0.167 2.894l-0.018 1.136l-16.22 -0.05l0.128 14.015z" />
  </g>
  <g data-id="069">
    <path d="m128.77 497.634l-0.171 17.637l0.463 -2.125l3.007 -0.762l1.663 1.119l1.152 1.576l-0.169 2.365l0.122 1.007l1.231 1.049l7.158 1.266l4.081 -0.095l2.205 -0.309l2.145 -0.633l-0.003 1.2l1.224 -0.278l1.497 -0.517l1.305 -0.509l1.912 -0.898l2.763 0.347l1.394 0.852l2.706 2.72l2.554 3.789l-0.412 8.784l7.6 6.549l5.002 0.045l4.004 0.277l2.67 -0.039l3.701 -2.144l2.563 -1.791l2.321 -1.181l-0.483 -12.839l0.244 -10.359l-0.388 -16.24l-5.26 0.4l-12.698 -0.105l-47.104 -0.157z" />
  </g>
  <g data-id="071">
    <path d="m729.324 530.481l-1.226 2.734l3.491 3.043l5.058 6.773l0.873 4.415l2.73 6.037l0.582 3.238l-0.67 2.56l0.75 4.407l-2.607 1.51l-2.667 2.908l5.285 0.548l33.691 -0.066l2.45 -0.004l2.48 -0.007l4.163 0.019l3.439 0.013l1.345 0.008l4.128 -0.012l5.129 0.041l3.361 -0.002l8.567 0.008l3.253 0.003l1.352 -0.009l6.755 0.031l4.024 -0.062l3.474 0.064l2.531 0.004l11.585 -0.053l1.92 0.078l17.151 -0.093l0.491 -3.488l0.208 -34.688l-16.009 -0.064l0.065 -16.17l-16.087 0.072l-0.083 -49.185l1.856 -0.062l-0.08 -6.132l-1.998 -1.372l-3.787 1.288l-4.07 -2.171l-2.157 -0.249l-5.012 1.638l-3.583 3.241l-4.28 -0.585l-3.768 -2.463l-2.432 -0.054l-3.182 4.044l-4.026 1.464l-2.561 2.183l-2.229 3.902l-3.451 1.691l-2.966 3.962l-0.435 5.608l-1.658 3.723l-0.778 3.88l0.538 3.599l-3.448 2.137l-1.042 2.476l-2.846 1.494l-1.756 3.987l-5.283 0.015l-2.064 6.398l-1.533 1.553l0.949 3.46l-8.082 3.016l-4.271 5.595l-13.99 2.346l-6.476 4.085l-1.083 1.693z" />
  </g>
  <g data-id="073">
    <path d="m257.242 52.676l0.036 1.6l0.403 1.271l2.125 -0.036l1.334 1.067l2.335 5.948l4.892 5.61l2.346 1.217l-0.162 -4.872l-3.412 -4.004l-2.348 -1.102l-0.728 -1.854l-3.449 -5.939l-0.915 -1.228l-1.618 -0.984l-0.838 3.307z" />
    <path d="m244.424 11.222l0.542 1.139l3.926 1.433l2.188 -2.108l1.895 0.754l1.155 1.544l0.157 1.85l-0.274 1.099l-4.635 4.076l-1.13 -0.018l0.885 1.88l8.056 6.264l0.718 1.101l0.674 2.873l0.337 2.833l-0.26 5.122l0.177 1.02l1.344 -0.555l-0.026 -1.135l0.106 -1.091l2.357 -0.432l2.627 3.151l1.654 0.294l-0.085 2.138l-1.748 3.888l-0.747 1.07l-0.834 2.98l3.473 4.863l2.034 2.205l1.29 0.576l1.82 -0.95l-0.826 -3.174l-1.756 -1.163l-1.509 -2.241l1.315 -2.361l2.689 -2.81l1.12 -2.008l3.906 -1.882l4.055 0.593l0.972 1.495l1.94 1.82l2.896 1.538l-0.302 1.288l-0.325 1.389l-1.328 2.483l-1.257 0.685l-0.468 1.531l1.593 8.411l0.82 2.62l1.473 2.083l21.167 0.011l13.751 -0.066l122.064 0.925l45.193 0.002l0 -3.118l20.014 0l4.252 -3.388l1.948 -4.345l3.242 0.139l-0.014 -4.193l2.858 -1.263l-2.853 -2.077l-4.062 -7.133l-1.996 -0.306l-1.267 -2.543l-0.892 -6.911l1.413 -6.403l-0.503 -1.82l-4.051 -2.341l0.543 -4.495l-1.206 -1.399l0.226 -4.029l2.087 -1.725l-1.851 -3.55l-3.013 -0.958l-5.547 3.915l-1.732 -3.234l-3.121 -1.329l-1.568 -2.432l2.556 -0.901l1.803 -3.986l-16.297 -0.017l-10.363 -0.05l-8.478 -0.154l-13.261 0.05l-2.437 0.045l-1.022 0.163l-11.304 -0.147l-6.428 0.193l-45.503 0.478l-44.403 -0.926l-19.535 -0.068l-19.819 0.05l-45.033 -0.023l0.218 1.068l-1.278 1.016l-1.019 0.124l-2.892 3.121l-2.602 3.713l-0.67 2.154z" />
    <path d="m210.13 0.101l0.774 3.01l0.085 2.026l2.957 0.146l2.526 -0.374l1.647 0.655l-0.934 -5.499l-7.055 0.035z" />
  </g>
  <g data-id="075">
    <path d="m829.461 432.655l4.041 10.234l-1.692 4.145l3.961 6.122l-2.029 6.566l4.71 5.283l1.733 1.005l5.992 -0.307l3.269 -3.302l3.045 -0.027l4.342 -1.951l6.383 -0.318l4.145 -0.968l5.604 1.359l3.478 -1.382l1.575 -5.079l2.264 -0.968l2.911 0.487l3.63 -0.669l3.613 -3.677l1.903 -6.891l2.139 -2.282l6.83 -1.494l5.018 0.52l2.809 3.843l3.646 1.241l5.869 -1.415l4.445 0.591l2.113 -0.949l1.361 -2.484l3.228 -0.793l2.101 4.617l2.564 3.31l4.512 0.576l1.001 1.135l-0.439 4.255l0.754 1.938l3.028 2.312l2.755 3.778l3.338 0.224l7.315 6.639l2.933 8.273l-0.95 3.604l1.362 3.518l2.762 2.483l-0.268 4.672l3.71 0.282l3.586 -1.554l8.371 2.451l3.612 -2.297l2.316 0.711l0.009 -6.832l-0.003 -1.275l0.014 -13.407l0.033 -29.517l-0.055 -21.522l0.022 -1.936l-0.021 -56.523l-0.002 -5.165l-0.004 -5.104l-0.002 -4.033l-0.001 -4.187l-0.015 -6.361l-100.242 -0.179l-17.564 -0.066l0.204 64.961l-1.48 8.909l-4.249 3.525l1.522 1.928l-0.678 2.902l-2.86 1.942l0.552 5.098l-2.596 -0.027l-1.479 3.14l-6.109 -2.029l-3.954 3.302l-3.828 0.359l-0.698 2.313l-3.638 -0.819l-2.6 2.359l-4.974 0.876z" />
  </g>
  <g data-id="077">
    <path d="m413.883 400.266l-3.236 6.478l3.291 1.856l2.938 7.943l4.076 5.183l-1.625 1.656l1.713 4.784l2.116 0.141l-0.752 2.901l2.96 2.543l5.013 0.391l2.003 2.594l-2.902 1.304l-0.104 3.505l-4.029 0.522l-0.712 6.519l2.373 0.538l1.085 4.587l-2.671 3.674l0.24 3.561l-2.416 2.295l1.521 2.11l-2.222 3.628l-2.709 0.98l0.143 5.646l3.446 2.014l-1.619 3.117l3.055 3.042l0.54 5.31l2.712 3.772l-0.918 3.784l-16.45 0.367l0 63.638l49.806 -0.095l8.221 0.433l63.258 0.123l15.975 0.005l2.687 0.241l71.956 -0.127l-0.091 -32.065l-0.981 -59.225l-0.323 -5.344l0.343 -12.203l-3.011 -0.929l-2.522 -4.127l-3.728 -3.824l-3.36 -8.823l-0.042 -2.592l-60.88 -0.084l-7.811 -0.069l0.178 -16.237l-14.909 -0.174l-1.204 -16.155l-50.153 0.154l-5.398 -6.794l-0.004 -2.041l-2.7 -2.03l-0.012 -4.071l-4.312 -1.521l-1.536 -3.398l-3.813 -3.427l-5.704 -3.38l-1.567 -2.507l-4.411 -2.873l-3.048 -1.237l-3.907 2.22l-4.59 -0.343l-1.548 1.502l-2.616 -3.147l0.712 5.726l-3.286 4.419l0.647 1.913l-1.465 2.082l-0.034 2.52l-5.038 3.473l0.473 1.366l-2.077 2.318l1.141 4.913l-0.942 2.099l-5.238 2.951z" />
  </g>
</svg>
