<?xml version="1.0" encoding="UTF-8"?><!DOCTYPE svg PUBLIC '-//W3C//DTD SVG 1.1//EN' 'http://www.w3.org/Graphics/SVG/1.1/DTD/svg11.dtd'><svg viewBox="0 0 1000 652.471" xmlns="http://www.w3.org/2000/svg"><path data-id="53001" d="m686.2 399.3l-0.1 32.7l118.4 0.2l29.9 -0.4l2.6 -2.4l3.6 0.8l0.7 -2.3l3.8 -0.4l4 -3.3l6.1 2l1.5 -3.1l2.6 0l-0.6 -5.1l2.9 -1.9l0.7 -2.9l-1.5 -1.9l4.2 -3.5l1.5 -8.9l-0.2 -65l-10.9 0.1l-119.4 -0.3l-0.4 65.8l-49.4 -0.2z"/><path data-id="53003" d="m927.9 546.3l0 22.9l5.1 -0.1l6.3 0l4.7 0.4l2.1 -0.4l15.5 0.1l18.7 0.1l2.4 0.1l8.4 0l5.8 0.1l3.2 0.2l-1 -4.2l-1.1 -3.9l-1.4 -3.9l-0.8 -1.3l-1.1 -1.4l-1.7 -0.3l-1.1 -0.6l-0.5 -1.7l0.5 -1.2l2.5 -0.6l1 -2.2l0 -1.4l0.3 -1.3l1.6 -3.1l1.6 -3.4l0.1 -1.3l-2.6 -3.2l-1.4 -1.6l-1.3 -1.1l-0.5 -1.5l1 -2.3l0.4 -1.1l-0.4 -3l-0.7 -2l-0.8 -1.5l-2.2 -2.2l-0.5 -1l0.9 -2.1l-0.3 -1.2l-1.4 -1.2l-1.3 -0.4l-1.1 -1.1l-0.7 -1.2l-0.2 -1.7l0 -1.6l-1 -1l-1.9 -0.4l-1.3 -0.5l-0.8 -1.2l0 -2.4l0.7 -1.2l1 -1l0.9 -2.8l0.4 -2.6l0.4 -2.2l-0.6 -1.3l-2.3 -0.8l-3.6 2.3l-8.4 -2.5l-3.6 1.6l-3.7 -0.3l0.3 -4.7l-2.8 -2.5l-0.1 9.5l-16.3 -0.2l0 2.7l-5.5 -0.1l0 2.7l-2.7 0.1l0 48.3l-7.7 0z"/><path data-id="53005" d="m621.3 464.6l0.3 5.3l0.1 59.2l1 32.1l-0.3 37.7l8.4 -2.1l3.8 0.4l13.2 -2.1l5.9 -9l2.9 -2.6l3.7 -1.1l6 3.1l4.7 0.4l4.8 -2l2.3 -0.2l8.7 -0.6l5.4 -2.1l8.4 -1.2l4 1.3l3.9 0.9l3.3 0l5.5 -1l4.2 -1.8l4.1 -2.9l4.4 -2l2.4 -1.9l2.7 -3.8l3.3 -3.6l2.6 -1.5l-0.8 -4.4l0.7 -2.6l-0.6 -3.2l-2.7 -6l-0.9 -4.4l-5.1 -6.8l-3.5 -3l-8 -4.8l-2.5 -1.1l-4.5 -0.5l-5.7 -1.6l-4.5 -4.9l-3.4 -2.1l-0.3 -2.1l2.2 -5.6l-0.9 -5.6l-1.6 -4.6l0.3 -6.1l1 -6l-0.6 -8.3l0.5 -3l-1.2 -4.2l-4.6 -3.8l-2.8 -4.4l-5.2 -3.6l-4.6 -5.7l-1.3 -7.4l-5.3 -3.2l0.2 -1.7l0.4 -1.2l-4.6 -5.6l-3.3 -2.2l-9 10.8l-4.7 4.2l-5.2 1.4l-6.5 -1.6l-5.2 2.5l-10.9 1.9l-4.8 -0.5l-0.3 12.2z"/><path data-id="53007" d="m454.8 212.2l0.2 1.5l0.1 1.3l1.1 1.5l1 -0.3l0.3 1l0.6 1.1l0.3 3.1l1.1 2.1l2.7 1.6l3.2 0.4l1.7 -0.2l1 2.1l-1.1 2.1l-2 2.6l-2.3 2.1l-0.4 1.3l1.1 4.1l2.2 0l1.9 3.6l-1.1 2l2.7 2.8l-5.1 4.7l-2.1 0.7l-1.5 7.5l2.6 9.2l0.8 1.1l1 0.1l1 1l0.1 1l0.6 1.1l-0.3 1.1l0.6 1.1l0.6 1l0.3 1.1l1 0.6l1 0.7l0.6 1.1l1.1 0.8l1.1 0l1.1 0.6l1 0.7l0.2 1l1 0.5l1 0.1l1.1 0.5l1 1l0.1 1l-0.1 1l0.5 1l0.7 1.2l1.1 0.7l1.1 0.3l1 0.6l0.4 1.1l1.1 1l-0.3 1l-0.3 1.1l1.1 0.4l1 0.2l0.9 1l0.9 1.1l-0.1 1l0.1 1l0 1l1.1 1l1 0.5l1.1 -0.2l1 0l1 0.8l1.2 1l1.1 -0.1l1.1 -0.3l1 1l1.1 0.4l0.6 -1l0.9 -1l1.1 0.1l1.1 0.4l1.1 -0.2l1 1l0.5 1l0.8 1.1l0.6 1l1 0l1.1 0.1l1.1 0.3l1.1 0.6l1.1 0.1l1.1 0.1l0.8 1.1l0 1l0.3 1.1l0.4 1.1l1.1 0.6l1 0.4l1.1 0.3l0.8 1l1 0.9l1.1 0.5l0.8 1l1 0.2l1 0.2l1 -0.1l1 -0.1l1 0.3l2 -0.5l1.3 1l1.3 -0.1l1.2 0.2l1.1 1.7l0.8 1.4l0.2 1.3l0 1l1.8 0.6l2.3 -1.3l1 -0.8l-0.4 -2l1 -0.6l1.1 2.5l1.6 0.4l1.6 1l1 1.3l1.4 0.1l1.4 0.9l1.6 1.2l0.5 1.2l1.2 1.1l1.1 1.3l1.8 0.1l1.5 0.6l0.9 1.1l2.3 0.7l5.4 0l4 0l3.4 0l4.8 -0.2l3.9 0l5.4 0l4.4 0.1l3.7 0l1.1 0l1.1 -7.2l0 -7.3l-5.5 -5.2l-4.6 -0.3l-12.1 -3.1l-3.4 -1.7l-0.9 -1.4l-0.4 -2.3l-1.5 -3.6l-0.4 -2.4l-0.8 -2.2l0.2 -2.7l1.7 -9.2l1.3 -3.4l4.3 -3.9l3.3 -7.4l-0.4 -6.5l2.6 -6.1l2.3 -3.5l-0.8 -3.8l-2.3 -4l1.7 -4.8l2.3 -2.1l7.7 -3.3l4.7 2.5l7.2 -2.4l5.5 -1l2.2 -3.8l1.7 -4.7l0.6 -3.7l5.2 -3.1l1.4 -3.3l-0.8 -4.2l3.3 -3l3.8 -4.7l-1.4 -3.5l-2.9 0l-3.7 0l-2.6 0l-4.9 0l-8.8 -0.2l-1 -0.5l-1 -0.5l-0.1 -1.4l-0.1 -1.7l-1.7 -1.9l0.1 -1l-0.3 -1.8l-0.6 -1.2l-0.6 -1l-1.1 -0.5l-1.8 -0.7l-0.8 -1l-2.9 -1.1l-0.9 -1.7l0.3 -1l1.2 -0.7l-0.6 -2.1l-2.1 -0.8l-3 -1l-3.1 -0.7l-1.4 -1.1l-2.2 -1l-0.2 -1.1l-1.1 -1.3l-1.2 -0.8l-1.1 -0.8l-1.3 -1.5l-1.7 -1.1l-1.7 -0.9l-2.3 0.9l-1.4 -1.6l-3.1 -3l-1.2 -3.8l1.3 -3.7l0.6 -3l-2 -3l-1 0l-2 -1.1l-0.1 -2.5l-4.7 -2.5l-3.2 -2l-2.7 -3.1l-2.8 -2.7l-1.9 -3.4l-2.2 -0.2l-3.7 -0.4l-2.4 -1.3l-1.6 -1.9l0.5 -3l1.6 -2.1l0.2 -3.6l-2.3 -1.4l-2.6 -1.6l-2.5 -1.9l-2.1 0.2l-0.9 -1.3l-0.1 -1.7l-0.6 -4.9l-1.3 -0.9l0.1 -1.7l1.2 -1.2l1.5 -1.7l0.1 -1.4l-1.1 -0.6l-0.4 -1.6l0.8 -1.1l1.3 -0.9l-0.8 -1.3l-1 -0.5l-0.8 -1.2l-0.1 -1.3l1 -1.7l-0.2 -1.2l-1.5 -0.1l-1.9 0.6l-3.1 -0.2l-8.2 4.4l-2.9 0.3l-3.7 -2.4l1 -1.7l-1.9 -3.2l-4.3 -0.5l-0.7 3.4l-2.8 -1.6l-2.4 0.9l-0.1 1.9l-5.9 -1.1l-0.1 5.8l-5.4 0.1l-1 0.9l-4.5 -0.2l-1.7 1.9l-1.7 4.9l2.9 2.8l0.4 2.7l-3.6 7.7l2.8 5.4l0.1 3.5l-2.1 -0.2l-1.5 5.5l8.9 4.2l-0.7 2.1l-0.4 1.4l0.6 1.7l1.9 2.6l1.9 3l2 2.3l-0.6 1.8l0.8 1.6l2.7 2.3l2.2 2l1.3 2.8l-0.3 2.3l-1.8 0.1l-2.1 1.1l-2.1 1.9l0.1 3.1l1 2.5l-0.8 1.6l-1.8 0.5l-1.9 2.2l-1.6 1.1l-1.8 2.1l-2.2 -0.1l-2.3 1.5l-2.4 0.2l-2.5 1.2l-2 0.3l-2 0.9l-1.7 2.3l-2.2 0.6l-0.4 1.1l1.1 1.9l1.6 1.1l0.5 1.7l1 1.1l0.1 1.5l-1.3 1.7l-0.9 1.3l-1.6 0.7l-0.6 2.5l-0.5 1l-1 0.9l0.4 2.1l-0.6 1.5l-0.8 1.1l0.3 1.4l-0.8 1.7l0.4 1.5l-0.6 1.2z"/><path data-id="53009" d="m0.2 161l-0.2 1.3l1.5 2l3.4 7.3l1 3.1l-0.2 1.2l-0.8 1l-0.2 3.4l0.4 2l1.1 1.8l0.4 2.5l0.4 3.9l1 6.4l-0.2 3.4l1.3 2.5l1.3 1.6l0.8 1.5l2 7.3l0.5 1.8l1.9 1.4l22 -0.5l8 0.4l111.3 0l0 2.7l71.2 0l-0.3 -11.1l0.3 -26.8l2.8 0l0.1 -1.7l0.7 -2.7l-1 -1.5l-2.2 -0.4l-4.3 0.5l-3.2 1l-1.6 1l-2.8 0.8l-1.5 -4.2l-2 -3.4l-2.4 -1.3l-4 -4.4l-1.1 -0.6l-2.3 -0.6l0.5 -1.9l0.9 -1.6l-1.6 -0.2l-2.5 1.9l-3.5 4.2l-3.3 3.2l-2.8 1.7l-1.2 0.5l-2.6 -0.1l-1.4 -0.2l-1 -0.7l-3.4 1.4l-2.3 0.1l-3.6 -0.6l-4.4 0.3l-3.8 -0.7l-2.2 -1.2l0.4 -3.3l-2.1 0.3l-2.3 1.1l-4.3 0.4l-1.9 -0.7l-1.6 -2l-2.1 -1.1l-1.2 0.1l-1.7 1.9l-2.1 1.1l-4.9 -0.8l-1.6 -1.3l-1.3 -2.1l-2.7 -1.1l-3.9 -0.8l-2.1 1.6l-1.3 -0.4l-3.6 -0.1l-2.8 1.1l-6.8 -0.5l-3.5 0.7l-1 -0.1l-1.7 -1.1l-4.5 0.2l-2.5 -0.3l-2.6 -0.9l-3.3 0.1l-8.9 -2.5l-2.7 -2.3l-2.4 -1.3l-2.1 -0.7l0.7 -3.2l-1.2 -0.7l-3.9 -1.3l-6.6 -3.6l-3.2 -1.3l-2.6 -1.8l-1.6 -0.4l-0.6 1.1l-1.4 0.8l-3.8 -0.8l-0.4 -1.7l-5.5 -1.8l-2.4 -1.9l-2.5 0.6l-1.9 -0.8l-2.4 -2.3l-12.4 -8.1l-1.9 -1.1l-1.7 -0.2l-1 -0.7l-2.4 -2.8l-1 0.3l-2.3 -1.4l-1.1 0.6l-1.4 0.7l-1.7 -0.5l-0.9 -1.4l-1.1 -1.7l-1.8 -1l-5.3 0.3l-2.9 -0.1l-1.1 0.7l-0.7 1.9l0.5 1l1.7 0.9l2.2 3.2l3.4 1.6l1.4 2l-0.4 4l-0.5 2.1l-1.3 0.8l-0.6 5.7l-0.5 1.9l-1.9 1.8l-0.8 1.1l2 3.9l-0.1 1.4l-0.7 2.7l-1 2.7l-3.5 2.8z"/><path data-id="53011" d="m247.8 600.9l0 2.8l3.3 5.4l1 3.9l0.1 1.6l0.1 2.9l-0.3 1.1l-1.3 5.3l-0.3 3.5l1.4 4.3l3.3 2.3l3.2 1.2l2.9 2.3l2 1.2l4 1.5l5.3 0.4l2.1 0.5l4.6 1.3l3.3 1.4l2.3 0.7l1.7 0.5l1.7 0.6l3.3 2.3l1.9 0.7l3.6 -0.7l1.2 -0.6l1.2 -0.6l1.5 -0.3l3.5 1.2l2.7 3.9l4.7 0.9l3.6 -0.1l2.2 -0.7l0 -12.2l-0.1 -37.4l0.7 -8.7l-0.2 -34.5l-3.5 -1l-7.2 9.1l1.8 3.5l-2.3 4.7l-5.1 0.8l-3.3 -2.2l-5.6 -0.6l-0.5 -1.3l-3.9 -0.9l-2.5 1.4l-1.8 -0.8l-3 1.1l-2.9 4.7l-2.6 -0.2l-4.8 3.5l-3.9 -0.3l-1.5 1.7l-1.5 -1.6l-2.8 -0.8l0.2 2.3l-4 -0.5l-0.6 3l-1.7 0.1l0.2 2.3l-1.4 0.7l2.1 0.8l1.3 3.9l0.3 1l-3 -0.5l-5.4 3.6l0 1.2l-1.3 3.5z"/><path data-id="53013" d="m830.3 465.1l0.1 49.2l16.1 -0.1l-0.1 16.2l16 0.1l-0.2 34.7l-0.5 3.5l2.5 0l33.2 0.2l14.6 0.2l0 -22.6l-1.2 0l0.1 -40.2l-8.1 0.2l0.1 -8.5l-2.7 0l0 -2.7l-2.7 0l0 -8.2l-2.7 0l0 -5.5l-16.1 0.1l1.3 -16.6l0.2 -12l-2.3 1l-1.6 5.1l-3.5 1.4l-5.6 -1.4l-4.1 1l-6.4 0.3l-4.3 2l-3 0l-3.3 3.3l-6 0.3l-1.7 -1l-4.7 -5.3l-1.7 -0.8l0.1 6.1l-1.9 0.1z"/><path data-id="53015" d="m193.8 497.5l0.4 16.2l-0.2 10.4l0.5 12.8l6 -3l6.5 0.7l1.4 1.4l6.9 4.4l1.2 1.3l1 0.4l1.5 1l1.6 0.6l6 5.8l7.5 3.9l2.5 4.3l0.8 5.3l2.8 3.1l2.4 6.2l3 3.7l1 5.3l-0.7 3.6l1.7 5.2l1.7 3.1l-0.1 3.2l5.4 -3.6l3 0.5l-0.3 -1l-1.3 -3.9l-2.1 -0.8l1.4 -0.7l-0.2 -2.3l1.7 -0.1l0.6 -3l4 0.5l-0.2 -2.3l2.8 0.8l1.5 1.6l1.5 -1.7l3.9 0.3l4.8 -3.5l2.6 0.2l2.9 -4.7l3 -1.1l1.8 0.8l2.5 -1.4l3.9 0.9l0.5 1.3l5.6 0.6l3.3 2.2l5.1 -0.8l2.3 -4.7l-1.8 -3.5l7.2 -9.1l3.5 1l-0.1 -27.1l0.6 -2l0.3 -30.5l-0.1 -1.7l-15.3 -0.1l-74.6 -0.2l-21.8 -0.1l-13.3 0.4z"/><path data-id="53017" d="m565 294.1l-0.2 2.7l0.8 2.2l0.4 2.4l1.5 3.6l0.4 2.3l0.9 1.4l3.4 1.7l12.1 3.1l4.6 0.3l5.5 5.2l0 7.3l-1.1 7.2l2.4 6.8l7.3 -0.1l1.5 1.2l0.3 -2l0 -16.9l2.8 -0.1l0 -2.7l2.7 -0.1l0.1 -2.6l2.7 -0.1l0 -2.8l2.7 0l0 -5.5l2.7 0l0 -2.7l2.7 -0.1l0 -5.5l43.8 -0.7l0 -16.4l2.7 0l-0.1 -2.7l2.8 0l2.7 -5.4l2.7 0.1l0 -2.7l5.5 -5.3l8.1 -1.7l0 -1l2.7 0l0 -8.2l2.7 0l0 -11l2.7 0l0 -2.7l2.7 0l0 -5.6l2.8 -0.1l0 -5.5l2.7 0l0 -16.6l2.8 0l0 -2.8l5.5 0l0 -2.8l2.7 0l0 -5.6l2.8 0l0 -2.9l15.6 -0.1l2.2 -4.2l1.9 -6.7l-3.8 -3.5l-2.9 -1.2l-2 -5.1l-1.3 -8.3l-3.6 -4.6l-6.4 -0.7l-2.1 -1.8l-3.5 0.7l-3.6 3.5l-2.7 0.5l-1.9 1.9l-2.3 0.4l-3 2.1l-5.3 -2.6l-3.7 3.6l-0.1 5.1l-2 4l-3.4 -0.6l-4.3 0.3l-4.1 -4.9l-8.3 -1.1l-1.9 1.5l-0.2 2.3l-9.9 8l-2.5 4l-2.1 0.7l-2.7 -0.8l-4.6 -4.3l-0.6 -1.8l3 -6.9l-1.8 -4.9l-2.1 1.8l-3.3 -0.2l-2.6 -3.4l-3.5 -0.3l-0.9 3.3l-3.5 0l-4.5 1.9l-6.2 4.2l-0.5 1l3.3 6l-0.4 4.9l-1.2 4.4l1.5 1.8l1.4 3.5l-3.8 4.7l-3.3 3l0.8 4.2l-1.4 3.3l-5.2 3.1l-0.6 3.7l-1.7 4.7l-2.2 3.8l-5.5 1l-7.2 2.4l-4.7 -2.5l-7.7 3.3l-2.3 2.1l-1.7 4.8l2.3 4l0.8 3.8l-2.3 3.5l-2.6 6.1l0.4 6.5l-3.3 7.4l-4.3 3.9l-1.3 3.4l-1.7 9.2z"/><path data-id="53019" d="m750.1 67.8l0 33.3l3.3 0l-0.2 99.5l-0.8 1.1l2.4 1.4l0.5 3.3l2.2 2.5l3.7 0.9l6.8 3l2.4 -0.6l0.5 -5.8l2.5 -1.7l3.4 1l1.3 2l10.4 -1l4.7 3.3l-1.4 5.9l1.6 1.7l3.9 0.2l4.4 -1.6l1.3 1.4l0.1 3.9l1.3 1.7l6.8 2.8l3 -0.4l1.5 -1.7l0.9 -7.8l1.1 -2.2l-0.4 -2.3l-1.2 -8.2l0.1 -4.9l-2.7 -3.8l-0.6 -1.7l-1.6 -2.1l-0.8 -1.2l-0.4 -1.6l2.3 -1.6l1.1 -0.7l2.6 -1.7l6.3 1.7l2.8 0.1l2.2 -2.6l1.6 -0.6l1.9 0l0.7 -1.2l-0.2 -2.5l0.5 -1.9l-0.6 -2.5l-1.4 -1.7l-0.9 -2.5l0.2 -2l1.2 -0.7l2.2 -0.3l3.2 -0.8l0.9 -2.1l0.1 -2.5l-0.5 -2.7l0.1 -2.6l0.7 -2.4l-0.3 -1l0.6 -1.5l1.6 -1.4l1.8 -1.6l1.6 -2.2l0.4 -1.3l0.4 -1.4l0.2 -2l-1 -1.6l-0.6 -2.7l-1.1 -2.1l-0.6 -1.1l-0.9 -1.7l-0.3 -1.9l-0.4 -1.3l0 -2.2l0 -2.4l-0.2 -2.2l-0.7 -2.3l-0.4 -1.8l-0.8 -1.3l-0.8 -1.3l-0.1 -2.6l0.2 -1.9l-0.2 -2.2l-1.1 -1.9l0 -2l1.1 -2.5l1.1 -1.1l0.8 -1l0.5 -1.6l0.5 -1.4l0.1 -1.9l0.2 -1.2l1.1 -1.4l1.2 0.3l1.2 0.3l1.3 -1.3l0 -1.5l-0.2 -2.4l0.6 -2.8l0.9 -2.9l0.7 -2l-0.1 -1.9l-0.1 -2.3l0.5 -1.7l0.8 -1.7l-5.55112e-17 -1l0.2 -1.1l1.1 -0.8l0.4 -2.2l-0.5 -1.8l-0.1 -1.1l-0.5 -1.4l-0.4 -1.2l0 -1.4l-0.7 -2.9l0.1 -1.7l-0.4 -2l0.1 -1.6l0 -1.3l-0.8 -1l0.9 -1.1l-0.3 -1.1l-1 -0.8l1 -1.1l-1.1 -1.1l1.1 -1.4l0.1 -1.5l-1.4 -0.1l-1.2 0l-0.9 -1.3l-0.9 -1.6l-0.1 -1.4l-0.9 -2.1l-0.4 -2l-1.1 -2.2l-2 -1.2l-0.5 -2.2l-0.1 -1.4l-0.7 -1.4l-0.9 -2.6l0 -1.3l0.8 -2l0.8 -1.4l-0.2 -1.4l-0.9 -1.1l-1.4 -2.2l-0.3 -1.3l0.5 -1.7l0.8 -1.9l0.4 -1l-0.9 -1.2l-0.2 -3l0.7 -1.2l0.5 -1.3l1.6 0.2l-82.1 -0.9l-0.1 67.3l-4.2 0z"/><path data-id="53021" d="m675.4 442.9l-0.2 1.7l5.3 3.2l1.3 7.4l4.6 5.7l5.2 3.6l2.8 4.4l4.6 3.8l1.2 4.2l-0.5 3l0.6 8.3l-1 6l-0.3 6.1l1.6 4.6l0.9 5.6l-2.2 5.6l0.3 2.1l3.4 2.1l4.5 4.9l5.7 1.6l4.5 0.5l2.5 1.1l7.3 4.2l1.9 -2.1l1.1 -1.7l6.5 -4.1l14 -2.3l4.3 -5.6l8.1 -3l-0.9 -3.5l1.5 -1.6l2.1 -6.4l5.3 0l1.8 -4l2.8 -1.5l1 -2.5l3.4 -2.1l-0.5 -3.6l0.8 -3.9l1.7 -3.7l0.4 -5.6l3 -4l3.5 -1.7l2.2 -3.9l2.6 -2.2l4 -1.5l3.2 -4l2.4 0.1l3.8 2.5l4.3 0.6l3.6 -3.2l5 -1.6l2.2 0.2l4.1 2.2l3.8 -1.3l2 1.4l1.7 0.8l2 -6.6l-4 -6.1l1.7 -4.1l-4 -10.2l5 -0.9l-29.9 0.4l-118.4 -0.2l0 11.1l-10.7 -0.2z"/><path data-id="53023" d="m880.1 465.1l-1.3 16.6l16.1 -0.1l0 5.5l2.7 0l0 8.2l2.7 0l0 2.7l2.7 0l-0.1 8.5l8.1 -0.2l-0.1 40.2l1.2 0l0 22.6l12.6 0.1l3.2 0.1l0 -22.9l7.7 0l0 -48.3l2.7 -0.1l0 -2.7l5.5 0.1l0 -2.7l16.3 0.2l0.1 -9.5l-1.4 -3.5l1 -3.6l-2.9 -8.3l-7.3 -6.6l-3.3 -0.2l-2.8 -3.8l-3 -2.3l-0.8 -1.9l0.4 -4.3l-1 -1.1l-4.5 -0.6l-2.6 -3.3l-2.1 -4.6l-3.2 0.8l-1.4 2.5l-2.1 0.9l-4.4 -0.6l-5.9 1.4l-3.6 -1.2l-2.8 -3.8l-5 -0.5l-6.8 1.5l-2.1 2.3l-1.9 6.9l-3.6 3.7l-3.6 0.7l-2.9 -0.5l-0.2 12z"/><path data-id="53025" d="m600 369.5l1.3 3.2l2.8 2.8l1.3 8.6l4.5 9.4l0.4 4.7l-0.2 11.2l4.8 7.8l0 3.5l-2 4.4l-3.4 3.7l-0.4 3.3l0 2.6l3.4 8.8l3.7 3.8l2 3.7l2.6 0.9l1 0.4l4.8 0.5l10.9 -1.9l5.2 -2.5l6.5 1.6l5.2 -1.4l4.7 -4.2l9 -10.8l3.3 2.2l4.6 5.6l-0.4 1.2l10.7 0.2l0 -11.1l0.1 -32.7l49.4 0.2l0.4 -65.8l0.5 -81l0.3 -48.3l-1 -0.9l-0.1 -2.7l-15.6 0.1l0 2.9l-2.8 0l0 5.6l-2.7 0l0 2.8l-5.5 0l0 2.8l-2.8 0l0 16.6l-2.7 0l0 5.5l-2.8 0.1l0 5.6l-2.7 0l0 2.7l-2.7 0l0 11l-2.7 0l0 8.2l-2.7 0l0 1l-8.1 1.7l-5.5 5.3l0 2.7l-2.7 -0.1l-2.7 5.4l-2.8 0l0.1 2.7l-2.7 0l0 16.4l-43.8 0.7l0 5.5l-2.7 0.1l0 2.7l-2.7 0l0 5.5l-2.7 0l0 2.8l-2.7 0.1l-0.1 2.6l-2.7 0.1l0 2.7l-2.8 0.1l0 16.9l-0.3 2l0.6 1.5l-0.2 5.6l-0.8 4l1.2 2.9l-0.1 3.7l-1.3 2.7l-1.8 0.9l-2.1 6.6z"/><path data-id="53027" d="m48.6 282.3l1.1 8.4l1.1 13.8l1.3 5.1l0.3 4l0.6 2.3l1.5 0.6l1 0.7l0.9 1.7l0.9 2.7l1.9 3.8l1.8 0.2l2 1.7l0.8 1.5l3.5 13l1.7 8.3l0.8 5.1l0.5 2l0.3 2.1l0.9 6l0.4 5l0.6 13.5l-0.3 6.8l-0.4 3.2l-0.7 2.9l2.7 -0.6l2.2 -2l2.2 -0.7l-1.7 -5.1l-0.2 -3.3l-1.5 -6.1l0.3 -1.5l1 -1.1l2.5 -1.2l2 -0.2l5.2 0.3l5.1 2.1l1.2 2.9l1.5 2.1l-0.6 1.1l-1.2 1.3l1 1.1l2.6 0.9l4.1 -0.3l1.4 1.9l1.1 0.4l2.3 -0.4l3 0l1.1 0.6l1.7 1.5l1.5 1.8l-2.4 2.2l-4.1 1.3l-5.4 2.2l-2.8 -0.3l-3.8 2.4l-0.5 1.3l-2.9 1l-1.3 0.8l-1.1 4.4l-0.8 1l-1.6 0.7l-2.1 -1.2l-0.1 -5.2l-0.4 -1.1l-2.2 -2.1l-3.5 1.3l2 4.8l1.9 8.1l0.9 4.8l0.4 3.1l25.7 0.3l5.2 0.3l2 -0.2l60.2 0l2.5 -0.3l24.4 0l0 -6.3l0 -1.9l0.3 -29.7l-5.7 -0.2l0.3 -2.5l-0.1 -14l-21.3 0.5l-15.4 0l-0.2 -33l-1.8 -0.1l-0.1 -49l-69.2 -0.2l0 -2.9l-39.3 0z"/><g data-id="53029"><path d="m280.7 153.4l0.2 5l1.9 4.2l1.3 5.3l2.8 2.6l1.5 -1.7l1.3 -0.3l2.3 3.1l3.3 2.1l2.9 3.4l0.9 1.3l0.3 1.7l1.8 2.3l1.8 0.6l0.3 -1.3l-2.4 -5l-4.1 -4.9l-3.9 -3.4l-4.3 -6.9l-0.4 -1.7l0.1 -2.4l1.1 -1.1l1.1 0.2l2.5 -3.1l-0.4 -1l-1.1 -2.3l0.5 -1.1l2 -0.8l1 0.7l3.8 0.7l0.4 -1.6l-0.8 -1l-0.5 -1.1l-7.7 -4.3l-1.4 3l-2.4 0.6l-1.2 -1l-3.5 1.4l-0.5 1.8l0.1 3.3l-0.6 2.6z"/><path d="m251.1 150l0.9 2.3l2.4 1.1l1.2 1.9l3 1.2l2.4 2.3l0.8 1.3l0.9 3.7l1.1 -0.4l1.9 -1l2.9 -0.1l2 0.8l1 1.4l1 3.2l0.5 4.7l-1.2 4.3l-0.8 1.6l-0.1 1.3l2.4 3.2l0.2 1.7l-0.4 1.6l-1.4 1.5l3.3 3.9l2.8 0.7l2.2 1.9l0 2l-1 1.7l0.6 1.9l3.3 -1.1l0.8 -1.6l1.7 -1.1l1.8 -0.7l1.9 0.4l3.3 4.8l0.8 2.2l0 1l-0.6 2l0 1.1l1.9 3l1.5 0.5l2.8 -0.1l0.9 1.3l1.3 0.3l0.6 -1.2l-0.1 -2.6l1.1 -1.7l1.2 -1l1 -3l0.1 -1.1l-0.1 -2l-0.4 -2.3l-2 -2.6l-0.5 -1.1l-0.4 -6.4l-1.4 0.1l-1.7 -0.5l-3.9 -1.6l-2.2 -1.8l-1.7 -2.7l-3.8 -4.9l-2.8 -0.6l-1.6 0.2l1.1 3l0.7 1.1l-0.4 3.1l0.6 3.7l-1.1 3.3l-2.6 1.2l-0.9 -7l-1.2 -4.8l-2.2 -4.7l1.5 -2.3l0.2 -1l-1.2 -5.6l-0.9 -1.3l-1 -2.8l-0.4 -2.3l-2.6 -5l-2.8 -2.7l-5.1 -0.3l-5.4 1.9l-1.9 -1.6l0.6 -2.3l6.7 -1.2l2 -3.6l0.1 -1.1l3.7 -0.8l0.4 -2.6l-0.8 -1.2l1.1 -1l2.4 -0.8l2 0.1l1.2 0.6l2.1 2.5l3.5 -0.1l1.1 -0.6l2.2 -2.3l-0.1 -2.4l-1.2 -2l-4.5 -4.2l-1.8 -1.2l-2.5 -1l-0.5 -1.9l0.5 -6.2l-1.3 -0.4l-0.2 -1.6l-1.7 -1.1l-1 0.9l-0.9 1.3l-1.4 -0.7l-1.3 -0.2l-2.5 0.8l0 5.1l-1.1 3.9l-4.3 7.6l-2 2.1l-1.2 4.8l-2.6 3.7l-2.2 6.2z"/></g><path data-id="53031" d="m15.7 216.4l2.9 0.5l3.3 2.2l0.5 2l2.3 3.6l3.5 2.8l1.9 -0.1l1.1 1.1l1 3.7l0.7 5.3l2.9 0.8l3 3.6l0.7 1.5l0.6 2.5l1 6.5l2.1 4.9l1.8 6.3l0.9 5.4l1.1 4.1l0.9 6.6l0.7 2.7l39.3 0l0 2.9l69.2 0.2l0 -16.5l16.5 0l1.3 -0.5l49.6 0.2l0.9 -1.6l9.7 -11.4l2.1 -8.7l4.5 -10.8l3.9 -5.7l-0.7 -5.4l1 -0.8l2.8 9l-5.3 18.5l2.6 3l3.9 -4.6l3 -8l0.1 -2.2l0.9 -3.1l0.3 -5.1l2.1 -1.8l1.6 -0.6l4 -3.5l0.6 -1.4l0.3 -2.2l-1.2 -1.9l-0.4 -1.5l3.5 0.1l2.1 0.7l1.8 -0.4l0.6 -1.6l2.8 -2.4l-1.1 -0.6l-2.4 0.1l-1.2 -0.9l-1.1 -2l0.1 -2.1l0.4 -1l-0.9 -1.9l-3.1 -1l-0.3 -1.5l1.1 -2.8l-0.3 -1.8l-2.9 -0.9l-2.1 -2.8l-0.7 -3.9l2.8 -1.5l1.5 1.5l2.6 -1.7l0.1 -2.8l-1.1 -0.8l-0.7 -1.2l-1.3 -8.5l0.1 -1.8l-0.8 -1.2l-2.6 1.1l-1.9 1.2l-1.9 3.7l1.1 0.5l-0.1 2.9l-3.4 1.9l-0.5 -1.8l-3.9 -6.5l1.1 -1.8l1.8 -1.7l3.8 -2l-1.5 -5l-3 0.1l-6.3 1.6l-5.5 4.5l-0.7 1.9l0.5 4.7l2.6 2l1.1 2.3l2.8 1.3l-0.6 5.2l-1 3.4l-1.5 1.1l-3.2 0l1.9 -4.8l-2.1 -4.9l-5.2 -2.1l-1.1 -1.2l-2.8 -0.1l-0.3 26.8l0.3 11.1l-71.2 0l0 -2.7l-111.3 0l-8 -0.4l-22 0.5z"/><g data-id="53033"><path d="m294.6 258.5l1.9 3.6l1.3 1.1l1.3 0.6l1 -0.1l2.3 1.4l2.9 2.9l0.7 1.9l-0.4 1.5l-2 1.2l-1.5 0.3l-2.2 -2.4l-1.9 2.2l-2.5 1.5l1.4 1.3l1.5 3.6l0.6 4.8l-0.3 1.8l1.3 2.5l2.7 2.6l0.5 1.3l-0.9 4.2l-1.9 1.6l2.1 0.5l1.5 1.1l0.5 2.1l0 1.5l0.4 1.4l1.6 1.4l0.9 1.5l0.3 1.7l0.1 5l0 3.1l-1.5 1.3l-3.5 1l-6.9 2.9l10.7 10.8l0 1l5.2 0l8.3 -0.1l1.7 0l2.4 0l4.1 0l2.7 0.1l0.8 1.1l0.4 1.3l1.3 0.8l0 1l1.2 1.3l0 1.2l0.4 1.4l1.1 1.9l1.2 1.4l1.9 1.2l1.2 0.4l1.2 1l1.1 1.5l1.1 0.5l1.1 -0.4l1.8 -0.1l1.7 0l1 0.5l1 1l1.1 0.1l1.3 0.6l1.1 1l1.8 0.4l0.2 1.8l1.2 0.9l1.3 -0.4l0.9 -1.4l1.2 -0.2l1.3 -0.7l1.1 -0.2l1.2 0.3l1 -0.2l1.3 0.3l1.3 1l1.2 0.3l1.3 0.2l0.7 -1.1l1.6 -1.5l1.2 -1l1.5 -1.2l1.4 -0.4l1.3 0.2l0.5 1l1.5 -0.2l1.1 0.8l1.3 -0.1l1.4 1l1.4 1.3l2.3 0.1l1 0.1l1.5 0l1.2 -0.9l1 -0.6l1.5 0.3l1.4 0.3l1.5 0.4l1 0.5l0.8 1.2l1.2 1.3l1.2 1.7l0.6 1.3l1.2 0.5l1.3 -0.1l1.2 0.1l1 -0.3l1.6 -0.3l1.5 -0.1l1 0l1.4 0.2l1 0.6l1.1 0.5l1.2 0.2l1.1 1.1l0.9 1.4l1.4 1.5l1 0.9l1.4 0.9l1.5 -0.2l1.3 -0.2l1.4 -0.6l2.5 0.4l1.3 0.1l-2.6 -1.8l-0.7 -3.8l1.8 -2.8l3.7 -1.7l3.8 1.7l4 -1.2l0.7 -1.9l-2.5 -4.8l1.5 -2.5l-1.4 -4.6l-6.1 -2.3l0.6 -3l2.7 -1.3l0.5 -2.5l-0.7 -3.9l-9 -1.6l-2 0.2l-0.7 -3l-1.5 -0.6l1.8 -5l-1.8 -1.7l-2.7 -4.6l3.6 -0.8l1.5 -3.3l-0.2 -5.9l2.1 -0.7l3.3 -1.9l0.8 -3.7l5.2 -4.2l4.6 -1.8l2.5 -6.2l2.6 -0.9l3.6 -4l2.3 -4.8l5.2 0.5l0.6 -4.4l7.5 -1.4l-2.6 -9.2l1.5 -7.5l2.1 -0.7l5.1 -4.7l-2.7 -2.8l1.1 -2l-1.9 -3.6l-2.2 0l-1.1 -4.1l-43 -0.1l-16.5 0.7l-43.9 0l-8.2 0.3l-4.1 0l-18.3 -0.1l-7.8 -0.1l-2 0l-3.5 0l-3.4 -0.1l-2.6 0l-1.2 0l-8.8 -0.1l0.3 1.1l1.8 2.6l-0.3 1.8l1.2 3.8l-0.4 2.4l-0.5 1.4l-1.6 1.4l-1.4 2.3l-0.5 1.8l-2.8 4z"/><path d="m282.3 315.4l-0.3 2.5l1.2 2.3l1.8 0.5l1.5 0.1l3 -2.7l1.6 0.4l1.1 -2.3l1.4 -2l4.6 -3l3 -0.8l-2.1 -2.6l-4.1 -0.5l-1.3 -1l-0.3 -1.8l0.1 -7.9l0.8 -1.5l-3.4 -3.9l-0.1 -1.3l1 -1.8l-2.9 -1.4l-1 5.3l-1.9 1.4l-2 5.1l-0.2 6.6l-1.5 2.9l1.1 5.6l-1.1 1.8z"/></g><g data-id="53035"><path d="m285.1 278.9l0.3 4.4l1.5 0.6l1.7 -1.4l0 -2.6l-3.5 -1.1z"/><path d="m225.9 272.4l-6.3 12.4l9.8 -0.4l17.7 0.4l0 22.1l17.5 0.1l15.1 0l1.8 -4.8l0.2 -7.6l4.6 -7.8l-3.6 -2.6l-1.3 0.3l-1.8 -0.3l0.5 -2.7l-0.1 -3.5l1.1 -1.9l2.1 -1.5l1.9 -0.2l3.1 -1.6l-1.9 -1l-0.6 -1.8l-0.3 -3.7l0.7 -1.1l0.2 -1.1l-0.1 -1l-1.1 -0.8l-2.1 -2.3l1.2 -3.7l0.5 -2.9l0 -2.5l-0.8 -1.8l-1.6 0.1l-2.5 -0.5l-1.4 -6.6l2.2 -0.3l2.3 0.2l1.5 0.6l2.4 -0.1l1.4 -0.5l0.9 -2.1l-0.1 -1.7l-3.1 -3.9l0 -2l1.3 -1.3l0.4 -1l0 -1.2l-2.5 -2.1l-0.5 -1l-0.9 -6.1l-0.2 -3.2l-1.7 -4.8l-2.7 -2.5l-3.8 -1.3l-3.2 -2.8l-1 -0.1l-1 1.7l0.5 1.2l2.6 0.9l1 1.4l0.2 2.1l1.7 5.3l-0.1 3.1l-4.4 0.2l-0.8 1.1l-1.1 2.8l-3.2 2.1l-4.3 4.6l-1.1 4.2l-3.1 1.9l-0.6 1.4l-0.4 2.3l-1.3 2.1l-2.6 12.2l-6.5 3.9l-6.7 0.7l-7.7 5.5l-6.4 6.7z"/></g><path data-id="53037" d="m418 313.6l2.7 4.6l1.8 1.7l-1.8 5l1.5 0.6l0.7 3l2 -0.2l9 1.6l0.7 3.9l-0.5 2.5l-2.7 1.3l-0.6 3l6.1 2.3l1.4 4.6l-1.5 2.5l2.5 4.8l-0.7 1.9l-4 1.2l-3.8 -1.7l-3.7 1.7l-1.8 2.8l0.7 3.8l2.9 2l2.6 3.1l1.5 -1.5l4.6 0.3l3.9 -2.2l3 1.2l4.4 2.9l1.6 2.5l5.7 3.4l3.8 3.4l1.5 3.4l4.3 1.5l0 4.1l2.7 2l0 2l5.4 6.8l50.2 -0.2l1.2 16.2l14.9 0.2l-0.2 16.2l7.8 0.1l60.9 0.1l0.4 -3.3l3.4 -3.7l2 -4.4l0 -3.5l-4.8 -7.8l0.2 -11.2l-0.4 -4.7l-4.5 -9.4l-1.3 -8.6l-2.8 -2.8l-1.3 -3.2l2.1 -6.6l1.8 -0.9l1.3 -2.7l0.1 -3.7l-1.2 -2.9l0.8 -4l0.2 -5.6l-0.6 -1.5l-1.5 -1.2l-7.3 0.1l-2.4 -6.8l-1.1 0l-3.7 0l-4.4 -0.1l-5.4 0l-3.9 0l-4.8 0.2l-3.4 0l-4 0l-5.4 0l-1.7 -0.2l-1 -1.1l-2 -1.1l-1 -0.2l-1.9 -1.2l-1.2 -1.1l-0.5 -1.2l-1.6 -1.2l-1.4 -0.9l-1 -0.3l-1.2 -0.2l-1 -1.6l-2.4 -0.7l-0.7 -1.7l-1.4 -0.2l0.2 1.1l-0.2 1.6l-2 1l-1.9 0.4l-0.8 -1.6l-0.2 -1.3l-0.8 -1.4l-0.2 -1.2l-2.1 -0.7l-1.3 0.1l-1.3 -1l-1.2 0.1l-1.1 0.4l-1.1 -0.3l-1 0.3l-1 -0.1l-1 -0.1l-1 -0.6l-1.1 -0.6l-0.8 -1l-0.8 -1.1l-1.1 -0.7l-1 0l-1 -0.6l-0.9 -1.1l-0.4 -1l-0.2 -1.1l-0.4 -1.1l-1.1 -0.4l-1 -0.1l-1.1 -0.4l-1 -0.4l-1.1 -0.2l-1.1 -0.1l-1 -1l-0.8 -1.1l-0.5 -1l-0.4 -1l-1 0.2l-1.1 -0.1l-1.2 -0.5l-1 0.7l-0.6 1l-1.2 0.2l-1 -0.6l-1.2 -0.6l-1.1 0.6l-1 -0.9l-0.9 -1l-1 -2.77556e-17l-1 -0.2l-1 0.1l-1.1 -0.5l-0.7 -1l0 -1l-0.1 -1l-0.2 -1l-0.6 -1.1l-1.1 -0.8l-1 -0.2l-0.8 -1l0.4 -1.1l-0.4 -1l-1 -0.9l-0.7 -1l-1 -0.4l-1.1 -0.4l-0.8 -1.1l-0.7 -1.1l-0.3 -1l0.4 -1l-0.5 -1l-1.1 -0.6l-1.1 -0.3l-1 -0.3l-0.8 -1.1l-1 -0.9l-1 -0.5l-1.1 0l-1.1 -0.8l-0.6 -1.1l-1.1 -0.8l-1.1 -1l-0.4 -1.1l-0.6 -1l-0.5 -1.1l0.2 -1.1l-0.5 -1.1l-0.4 -1.1l-1 -0.6l-1.1 -0.4l-7.8 0.7l-0.6 4.4l-5.2 -0.5l-2.3 4.8l-3.6 4l-2.6 0.9l-2.5 6.2l-4.6 1.8l-5.2 4.2l-0.8 3.7l-3.3 1.9l-2.1 0.7l0.2 5.9l-1.5 3.3l-3.6 0.8z"/><path data-id="53039" d="m399.2 560.6l0.5 32l-0.1 16.1l11.8 0.1l-2.7 2.2l2.2 4l-0.3 4.3l3.2 0.7l4.6 3.6l2.8 0.7l2.3 0.6l2.8 0.2l3.7 -1.9l4.5 -0.3l3.3 0.9l3.2 2.4l4.6 1.6l4.5 1.3l2 3.9l0.7 3.7l-0.2 2.3l1.6 1.9l2 0.1l2.9 -0.3l1.8 -0.3l1.2 -1.2l0.3 -1.3l4.5 -4.5l2.6 -0.9l3.9 0.3l3.3 -0.4l3.1 0.9l3.9 -1.6l1.2 0.1l3.6 2.8l2.6 -0.3l3.3 -3.3l1.8 -1.9l8.5 -2.7l8.3 -3.7l4.5 -1.7l2.6 -2.6l2 -1.3l2.4 -1.6l5.6 -0.1l4.1 1.5l4.8 5.2l2.1 1.8l3 1l10 -0.9l9.6 -2.2l5.2 -1.7l9.9 -1.1l5.2 -6.6l3.7 -2.1l9.1 -2.2l8.8 -4.9l4.5 -2.3l7.5 -0.7l4 -1.2l1 -0.2l0.3 -37.7l-72 0.1l-2.7 -0.2l-16 0l-63.3 -0.1l-8.2 -0.4l-49.8 0.1l-11.5 0z"/><path data-id="53041" d="m174.3 421.8l0.1 10.7l0.7 15.9l0 16.2l0.8 2l0.1 31.2l12.7 0.1l5.3 -0.4l13.3 -0.4l21.8 0.1l74.2 0l15.7 0.3l16.2 -0.2l75.7 -0.3l16.4 -0.4l0.9 -3.8l-2.7 -3.8l-0.5 -5.3l-3.1 -3l1.6 -3.1l-3.4 -2l-0.1 -5.6l2.7 -1l2.2 -3.6l-1.5 -2.1l2.4 -2.3l-0.2 -3.6l2.7 -3.7l-1.1 -4.6l-2.4 -0.5l0.7 -6.5l4 -0.5l0.1 -3.5l2.9 -1.3l-2 -2.6l-5 -0.4l-3 -2.5l0.8 -2.9l-2.1 -0.1l-1.7 -4.8l-38.8 0l-2.4 1.4l-5.2 5.4l-1.8 3.2l-1.3 0.3l-3.3 -0.1l-8.2 -2.1l-3.3 -2.7l-2.6 2l-3.9 -1.5l-2 1.9l-2.3 0l-5.2 -1.8l-4.3 0.6l-1.7 -1.1l-6.2 -0.1l-3.2 -1.5l-35 0l-1.3 0.2l-8.1 -0.3l-8.4 0.2l-69.7 -0.4l0 -5.4l-24.4 0l-2.5 0.3z"/><path data-id="53043" d="m736.5 252.7l-0.5 81l119.4 0.3l10.9 -0.1l17.6 0.1l0.1 -28.2l0.2 -38.9l0.3 -8.1l-0.2 -32l-1.3 -1.6l-6.5 -2.5l-0.6 1.7l-3.4 0.6l-2.9 2.3l-3.9 -1.7l-3.1 -0.4l-1.8 2.1l-1.2 3.4l-2.9 0.5l-1.6 2l-1 -1.3l-2.8 -0.2l-2.7 -4.5l-2.4 -1.7l-0.4 -3.7l-3 -6.3l-2.1 0l0 -2.4l-2.1 -0.8l0 -1.8l-3 -3.4l-1.6 -3.3l-2.2 1l-2.1 -0.6l-1.8 1.7l-7.3 5l-0.6 2.4l-2.5 0.4l-1.1 2.2l-0.9 7.8l-1.5 1.7l-3 0.4l-6.8 -2.8l-1.3 -1.7l-0.1 -3.9l-1.3 -1.4l-4.4 1.6l-3.9 -0.2l-1.6 -1.7l1.4 -5.9l-4.7 -3.3l-10.4 1l-1.3 -2l-3.4 -1l-2.5 1.7l-0.5 5.8l-2.4 0.6l-6.8 -3l-3.7 -0.9l-2.2 -2.5l-0.5 -3.3l-2.4 -1.4l-13.4 3.3l-2.1 -0.5l-0.3 48.3z"/><path data-id="53045" d="m157 268.9l0 16.5l0.1 49l1.8 0.1l0.2 33l15.4 0l21.3 -0.5l16.2 0l0 -1.1l0.2 -2.9l1.7 -1.5l3.4 -0.2l2.4 -1.6l0.6 -3.7l1 -1.5l4.3 -1.9l2.1 -1.6l0.7 -2.9l1.4 -0.7l3.2 2.5l0.5 2.1l0.5 1.4l5.7 -1.9l2.6 -7.7l-2.3 -4.8l-1 -6.9l2.3 -5.3l3 -4l0.3 -1.5l-0.7 -4.8l0.4 -1.8l2.2 1.2l0.4 -8.9l0 -22.1l-17.7 -0.4l-9.8 0.4l-2.2 4.4l-11 20l0.6 2.9l3.8 0.2l3.7 1.2l5.6 -1.9l4.6 -3.3l7.8 -3.3l2 -1.5l3.7 -0.4l-0.7 2.4l-4.3 4.1l-3.5 1.1l-5.8 1.6l-5.9 4.5l-5.4 -0.1l-5 -2.1l-3.7 2.9l-2 -1.6l6.3 -19.4l16.2 -28.1l-49.6 -0.2l-1.3 0.5l-16.5 0z"/><path data-id="53047" d="m492.2 5.3l1.6 2.4l3.1 1.3l1.7 3.2l5.5 -3.9l3 1l1.9 3.6l-2.1 1.7l-0.2 4l1.2 1.4l-0.5 4.5l4.1 2.3l0.5 1.8l-1.4 6.4l0.9 6.9l1.3 2.5l2 0.3l4.1 7.1l2.9 2.1l-2.9 1.3l0 4.2l-3.2 -0.1l-1.9 4.3l-4.3 3.4l-4.7 6.2l0.6 4.5l3 3.7l3.8 0.1l1 -2.7l4.4 4l-2.6 6.6l0.8 2l3.2 0.2l1.9 -0.6l1.5 0.1l0.2 1.2l-1 1.7l0.1 1.3l0.8 1.2l1 0.5l1 1.3l-1.5 0.9l-0.8 1.1l0.4 1.6l1.1 0.6l-0.1 1.4l-1.5 1.7l-1.2 1.2l-0.1 1.7l1.3 0.9l0.6 4.9l0.1 1.7l0.9 1.3l2.1 -0.2l2.5 1.9l2.6 1.6l2.3 1.4l-0.2 3.6l-1.6 2.1l-0.5 3l1.6 1.9l2.4 1.3l3.7 0.4l2.2 0.2l1.9 3.4l2.8 2.7l2.7 3.1l3.2 2l4.7 2.5l0.1 2.5l2 1.1l1 0l2 3l-0.6 3l-1.3 3.7l1.2 3.8l3.1 3l0.6 1.1l2.6 0l1.8 -0.1l1.3 0.9l2.1 2.3l1.1 0.8l1.2 0.8l1.1 1.3l0.2 1.1l1.3 0.8l2.3 1.3l2.3 0l3 1.7l2 0.6l1.9 1.4l-1.1 1l-0.8 1.6l0.9 1.7l2.2 0.6l1.5 1.5l1 0.4l1.9 0.8l0.6 1l0.6 1.2l0.5 1.3l-0.3 1.5l1.2 1.3l0.9 1.6l-0.7 1.3l1.5 1.3l1 0.5l8.8 0.2l4.9 0l2.6 0l3.7 0l2.6 0l-1.2 -1.8l1.2 -4.4l0.4 -4.9l-3.3 -6l0.5 -1l6.2 -4.2l4.5 -1.9l3.5 0l0.9 -3.3l3.5 0.3l2.6 3.4l3.3 0.2l2.1 -1.8l1.8 4.9l-3 6.9l0.6 1.8l4.6 4.3l2.7 0.8l2.1 -0.7l2.5 -4l9.9 -8l0.2 -2.3l1.9 -1.5l8.3 1.1l4.1 4.9l4.3 -0.3l3.4 0.6l2 -4l0.1 -5.1l3.7 -3.6l5.3 2.6l3 -2.1l2.3 -0.4l1.9 -1.9l2.7 -0.5l3.6 -3.5l3.5 -0.7l2.1 1.8l6.4 0.7l3.6 4.6l1.3 8.3l2 5.1l2.9 1.2l3.8 3.5l-1.9 6.7l-2.2 4.2l0.1 2.7l1 0.9l2.1 0.5l13.4 -3.3l0.8 -1.1l0.2 -99.5l-3.3 0l0 -33.3l4.2 0l0.1 -67.3l-37.8 0l-38 0l-3.7 0l-31.2 0l-22.4 0l-16 0.2l-4.4 0l-43.6 -0.2l-43.5 0.1l-17.3 0l-1.8 4l-2.6 0.9z"/><path data-id="53049" d="m81.2 421.5l0.2 1.8l0.2 5.1l-0.2 2l2 2.1l2.3 0.2l2.1 1.5l0.5 1l2.6 2.1l2.4 1.2l1.2 -1l2.7 0.9l-0.2 -1.9l-0.6 -2l0.6 -1.6l3.3 1.5l2.5 0l1.6 -0.3l0.1 -1.9l0.6 -1.7l1.5 -0.7l2.8 3.6l1.9 0.5l1.7 1.5l2 0.3l0.5 1.7l-0.5 1.2l-2.3 0l-1.7 0.7l-3.9 2.8l-2.6 0.9l-1 1.1l0.3 3.6l-2.5 2.4l-2.6 0.8l0.2 4.2l0.5 1.9l2.1 1.3l1.3 1.4l0.8 2.2l0.3 1.8l2.1 2.9l1.2 2.8l-0.4 1.6l0.1 1.1l-3.1 2.8l-2.9 5.7l0.5 1.9l-3.7 -1.1l-1.5 -3l0 -1.4l-1.2 0.1l-0.5 1.6l-0.2 3.7l0.4 1.1l0.3 3.3l1.5 0.7l1.4 1.5l-0.2 3.3l0.6 1.3l1.5 -0.3l-0.5 5.8l-1.3 0.4l-2.7 -0.4l-2.9 1.3l-1 -1.3l-1.4 -15.6l-0.7 -6.2l0.7 -6.5l0.4 -6l-0.1 -3.4l-0.7 -1.6l-2.8 -4.9l-0.2 -1l2.2 -1.5l-1.6 -2.8l-1 0l-1.6 2l0 6.2l0.8 8.4l0.6 11.7l-0.1 15.6l-0.1 4.2l-0.8 11l-0.9 4l-0.6 1.7l-0.7 4l-0.1 1l2.7 -1.7l2.2 0.5l0.7 -1.4l0.4 -2.4l0.7 -2.1l1.2 -1.4l2.5 0.5l2.1 0.8l1.4 1.1l0.4 1.7l2.1 3.2l4.4 4.8l1.3 1.1l4.3 1.1l8.9 -8.1l1.4 -0.2l1.7 0.8l1 1l1.1 0.2l3.2 -3.1l1.6 0.3l0.3 -17.8l47.1 0.2l-0.1 -31.2l-0.1 -1.9l-0.7 -16.3l-0.7 -15.9l-0.1 -10.7l-60.2 0l-2 0.2l-5.2 -0.3l-25.7 -0.3z"/><path data-id="53051" d="m908.7 50.5l0 16.8l16.5 -0.1l0 80.6l-0.3 2.8l0 17l8.3 0l0.1 16.8l50.6 0.3l0 -7.6l0 -7.5l0.2 -9.4l0 -1.2l0.1 -5.4l0.4 -31.3l0 -10l0 -1.4l0 -13.6l0.1 -23.4l0 -1.5l0.1 -5.5l0 -18l0.1 -18.8l0 -5.5l0 -24.2l-12 0.1l-18.2 -0.2l-20.7 -0.1l-0.1 15l-8.8 0l0.1 16.8l-8.4 0l0 18.2l-8.4 0.1z"/><g data-id="53053"><path d="m259.1 366.9l0.5 2.6l3.6 6.5l0.5 4.2l5.3 3.3l-1.1 3.6l1.2 1.3l2.2 0.8l0.1 -1.8l5.9 1.9l-0.9 1.2l1.5 5l4.2 1.6l4.3 3.7l0.4 7l4.2 0.8l1 2.1l9.2 2.5l0.9 -1.1l4.2 1.4l1.4 -1.2l0.3 2.6l2.8 0.4l-0.3 4.1l-0.3 3.2l5 4.2l4 -1.6l4.5 2.3l3.2 1.5l6.2 0.1l1.7 1.1l4.3 -0.6l5.2 1.8l2.3 0l2 -1.9l3.9 1.5l2.6 -2l3.3 2.7l8.2 2.1l3.3 0.1l1.3 -0.3l1.8 -3.2l5.2 -5.4l2.4 -1.4l38.8 0l1.6 -1.7l-4.1 -5.2l-2.9 -7.9l-3.3 -1.9l3.2 -6.5l5.2 -3l0.9 -2.1l-1.1 -4.9l2.1 -2.3l-0.5 -1.4l5 -3.5l0 -2.5l1.5 -2.1l-0.6 -1.9l3.3 -4.4l-0.7 -5.7l-1.6 -0.3l-1.7 0l-1.4 -0.2l-2.1 0.6l-1.5 0.2l-1.4 -0.9l-1 -0.9l-1.4 -1.5l-0.6 -1.1l-1.2 -1.1l-1.4 -0.5l-1.1 -0.5l-1 -0.6l-1.4 -0.2l-1 0l-1.5 0.1l-1 0.1l-1.1 0.5l-1.1 0.1l-1 -0.1l-1.6 -0.3l-1.1 -1.5l-1.2 -1.7l-0.5 -1l-1.5 -1.5l-1 -0.5l-1.5 -0.4l-1.4 -0.3l-1 -0.5l-1.5 0.8l-1.2 0.9l-1.5 0l-1 -0.1l-1.4 -0.1l-1.6 -0.8l-1.9 -1.2l-1.5 -0.2l-1.1 -0.8l-1.5 0.2l-0.5 -1l-1.3 -0.2l-1.4 0.4l-1.5 1.2l-1.2 1l-1.6 1.5l-0.7 1.1l-1.3 -0.2l-1.2 -0.3l-1.3 -1l-1.1 0l-1.2 -0.1l-1.2 -0.3l-1.1 0.2l-1.3 0.7l-1.2 0.2l-0.9 1.4l-1.3 0.4l-1.2 -0.9l-0.2 -1.8l-1.2 -0.6l-1.4 -0.3l-1 -1l-1.1 0.2l-0.8 -1.1l-1.6 -0.4l-1.1 -0.7l-1.8 0.2l-1.6 0.4l-1 0.2l-0.7 -1.3l-1.2 -1.4l-2 -0.7l-1.1 -0.8l-1.3 -1.1l-1.3 -1.7l-0.6 -1.7l-0.4 -1.3l-0.3 -1.1l-0.6 -1l-1.5 -1.5l-0.4 -1.3l-0.8 -1.1l-2.7 -0.1l-4.1 0l-2.4 0l-1.3 0l-8.7 0.1l-4.7 0l-0.5 -1l-10.7 -10.8l-3.2 2.7l-0.2 1.1l1.6 0.8l1 -0.3l1.3 0.7l0.6 1l-1.1 1.3l-1.5 2.3l-1 0.3l-4.3 -1.8l-7.9 -7.4l-1.8 -0.3l2.6 5l-1.3 2.7l-2.9 5.9l-2.5 6.6l-1.3 6.1l-3.1 1.7l-2.1 0.3l-1.2 3.5l0.6 2.5l-1.1 0.1l-4.2 5.9l-2 0l-1.8 3.4z"/><path d="m241.9 332.6l-0.1 1.9l1.3 2.6l7.8 14.4l1 0.2l1.7 1.7l1 1l2.7 2.7l1.3 1.8l1.2 0.7l1 -0.4l1.3 -2.6l1.1 -0.4l0.3 -1.5l-0.1 -4.7l-0.4 -3.1l2.6 -0.5l1.7 -1.1l0.3 -1l-0.9 -2l-1.4 -0.7l-1 -0.8l-1.6 -1.5l-3.2 0.1l-2.6 -0.9l0.9 -2.7l-4 -5l0.6 -3.9l2.5 -6.3l6.9 -6.9l4.1 -2.1l0.6 1.4l-4.7 5.1l-3.3 11.3l3.7 2.5l5.3 6.6l1.6 2.8l1.5 0.6l1.5 -1.9l0.2 -1.8l1.4 -3.3l3.9 -5.8l-0.3 -1l-2.7 -4.7l-0.6 -2l2.6 -4l0.6 -2.3l1.9 -3.1l-1.8 -3.5l0.6 -1.7l-15.1 0l-17.5 -0.1l0 8.5l-0.2 1l0.8 2.2l-0.3 9.9l-2.3 2.4l-2.2 0.5l-1.1 1.2z"/></g><g data-id="53055"><path d="m224.6 40.7l-0.3 2.3l7.2 5.3l3.4 1.7l6.6 1.6l3.4 -1.3l-7.5 -3.8l-7.8 -5.1l-5 -0.6z"/><path d="m212.7 58.8l3 0.8l1.4 1.1l-0.7 2.2l2.6 -0.5l2.1 -2.5l-0.3 -4.8l-1.6 -0.5l-2.6 0.7l-3.9 3.4z"/><path d="m195.7 78.9l0 1.2l2.2 0.7l1.5 1.5l0.1 1.3l-0.6 1.9l0.5 1.1l1.4 1.7l0 1.6l-0.2 1.9l1.6 3l1.2 1.7l2.8 2.5l6.6 2.5l1.2 1.5l2.4 2.2l9.9 1.7l3.1 -1l1.4 -0.9l1.4 1.5l-1.5 2.6l1.3 0l1.9 0.5l1.8 0.2l-0.6 2.6l1.3 0.7l1.2 0.1l6.2 -1.1l1.7 0.3l1.1 -1.2l-0.6 -2.9l-0.7 -1.7l-0.8 -1.2l0.2 -4.8l2.2 -2.1l2.7 -2.8l0.2 -1.7l-1.3 -1l-0.1 -1.4l0.8 -2.9l1.3 -1.3l0.3 -1.2l-2.1 -3.6l-1.9 -1.7l-0.5 -2l0.6 -1.1l-1.1 -2.7l2.1 -3.5l1.1 -0.4l3.7 -2.7l1.7 -2.2l-7.4 -3.7l-4.2 -3.6l-5.5 -2.7l-2.4 -0.6l-3 0.3l-3.1 1.3l-0.9 2.5l-4.6 4l-0.5 1.1l-2.7 2.4l-0.6 1.5l-0.1 1l-1 1.7l-3.2 2.5l0.3 1.8l3 2.3l-0.2 1l-1.2 0.5l2.2 2.2l1.5 -0.1l1.3 0.5l1.2 1.6l-0.2 1.6l-3.5 0.2l-2.4 -0.5l-1.9 -1.1l-1.5 -2.5l-1.9 -1.9l-3.4 -1.2l-0.1 -1.2l0.5 -1.2l-1.1 -2.4l-3.6 0.4l-2 -0.7l-3.4 0.3l-2.2 2.9l-0.9 2.1z"/><path d="m191.5 60.9l-0.1 1.1l2.7 2.7l10.4 6.2l2 0.8l1.7 -0.1l-2 -2.6l-1.1 -1.9l-2.2 -2.2l-3.1 -2.3l-1.8 -1l-1.5 0l-1.9 -1l-3 0.1z"/></g><g data-id="53057"><path d="m266 88l-0.1 2.1l0.3 1.3l1.5 1.1l2.6 -0.6l2.5 -1.5l1.2 0.1l2.2 1.4l-0.8 -3.7l-1.8 -1.1l-2.3 -1.5l-2.4 -2.1l-1.7 -3.1l-1.3 1l0.2 5.7l-0.4 1z"/><path d="m260.3 73.7l1.5 1.9l1.2 0.6l1.4 0.4l1.2 -0.3l-2.2 -3.9l-3.1 1.3z"/><path d="m258.4 101.6l0.1 2.8l1.5 1.3l0.6 -1.4l0.8 -2.3l3.1 -0.2l0.9 1l0.4 3.6l-1.6 2.2l-1.3 -0.3l0.4 3.7l1.1 1.6l1.3 1l5.4 -1.4l4 -2.1l0.8 -2.7l2.3 -0.2l0.8 1l-0.9 2.4l0.5 4l0.9 1.2l1 0.5l0.8 2.7l3.3 3.6l1.2 0.5l2 0l5.1 4.6l2.4 0.7l2 1.5l3.1 4.3l0.8 1.2l22.6 0l2.4 0.1l23.8 0l3.8 0l49.8 -0.3l73.6 0.6l-8.9 -4.2l1.5 -5.5l2.1 0.2l-0.1 -3.5l-2.8 -5.4l3.6 -7.7l-0.4 -2.7l-2.9 -2.8l1.7 -4.9l1.7 -1.9l4.5 0.2l1 -0.9l5.4 -0.1l0.1 -5.8l5.9 1.1l0.1 -1.9l2.4 -0.9l2.8 1.6l0.7 -3.4l4.3 0.5l1.9 3.2l-1 1.7l3.7 2.4l2.9 -0.3l8.1 -4.4l-0.8 -2l2.6 -6.6l-4.4 -4l-1 2.7l-3.8 -0.1l-3 -3.7l-0.6 -4.5l4.7 -6.2l-20 0l0 3.1l-45.2 0l-121.4 -0.9l-14.5 0.1l-21.2 0l3.1 3.8l2 0.6l3 4.5l-1 3.5l-1.5 2.2l-4.3 2.1l-1.3 -1.1l-1 -2.2l-2.1 -0.4l-2.9 0.4l0.4 1.4l3.5 0.8l0.8 1.7l1.7 5.4l0.2 1.2l-0.1 2.4l0.2 3.3l0.6 2.1l1.2 1.3l-4 2.7l-1.4 -0.2l-2 -1.2l-1.4 0.3l-2.5 -6.2l-1.4 -1.8l-3.9 -0.8l-0.2 -1.7l-2 -0.1l-7.2 3.4l-1 -0.7l-2.9 1.9l-0.7 1.8l-0.7 1.9z"/><path d="m255 81.3l0.1 1.9l1.1 1.6l0.8 3l0.2 1.8l4.3 -0.6l2.4 -4.8l-2.7 -4.2l-0.4 -1.2l-2.5 -2.4l-1.3 1.1l-1.9 3.7z"/></g><path data-id="53059" d="m317.7 602l0.1 37.4l0 12.2l6 -3l2.3 -2.5l5.5 -1.2l1.4 0.3l2.2 0.3l1.4 -0.4l7.3 -4.8l2.8 -1l2.4 -0.1l2.6 -1.3l2.5 -1.9l1 -2l2.6 -0.2l1.7 -0.9l1.8 -1l0.9 -1.4l-0.1 -1.6l4.4 -4.1l7.1 -2.5l9.7 2.3l3.5 -0.1l5 -1.9l4.8 0.1l12.5 -4l1.2 0.3l0.3 -4.3l-2.2 -4l2.7 -2.2l-11.8 -0.1l0.1 -16.1l-0.5 -32l11.5 0l0 -63.6l-75.7 0.3l-15.7 0.1l-0.4 1.8l-0.3 30.5l-0.6 2l0.1 27.1l0.2 34.5l-0.7 8.7z"/><g data-id="53061"><path d="m307.6 189.5l0.3 2.1l2.5 1.1l-1.9 -2.9z"/><path d="m297.7 145.2l0.6 1.1l0.9 1.5l0 1.1l1 2.9l0.5 2.1l1.2 2.7l1.3 1l-0.2 2.5l-0.9 1.8l0.7 2.6l0.1 1.6l-0.2 3.2l2.9 5.4l2.2 0.9l0.6 1.4l2 2.3l3.2 4.5l6.3 3.8l0.9 2.5l-0.7 1.8l-0.3 3.7l0.8 2.2l-0.5 1.1l-2.4 2.2l-3.7 0.6l-2.2 0.9l-1.5 0.6l-0.5 2.4l0.2 1.5l-1.5 3.3l-0.9 2.7l-0.6 3.4l0.5 2l-0.5 1.9l-0.3 1.3l-0.5 1.1l-1.7 1.1l-5 6.3l-0.7 5.3l8.9 0.4l1.2 0l2.6 0l3.4 0.1l3.5 0l2 0l7.8 0.1l18.3 0.1l4.1 0l8.2 -0.3l43.9 0l16.4 -0.3l43.1 -0.3l0.4 -1.3l2.3 -2.1l2 -2.6l1.1 -2.1l-1 -2.1l-1.7 0.2l-3.2 -0.4l-2.7 -1.6l-1.1 -2.1l-0.3 -3.1l-0.6 -1.1l-0.3 -1l-1 0.3l-1.1 -1.5l-0.1 -1.3l-0.2 -1.5l0.6 -1.2l0 -1.3l-0.3 -1.2l0.4 -2.1l0.8 -1.1l0.6 -1.5l-0.4 -2.1l1 -0.9l0.5 -1l0.5 -1.6l0.9 -1.6l1.7 -1.3l1.3 -1.7l-0.1 -1.5l-1 -1.1l-0.5 -1.7l-1.6 -1.1l-1.1 -1.9l0.4 -1.1l2.2 -0.6l1.7 -2.3l2 -0.9l2 -0.3l2.5 -1.2l2.4 -0.2l2.3 -1.5l2.2 0.1l1.8 -2.1l1.6 -1.1l1.9 -2.2l1.8 -0.5l0.8 -1.6l-1 -2.5l-0.1 -3.1l2.1 -1.9l2.1 -1.1l1.8 -0.1l0.3 -2.3l-1.3 -2.8l-2.2 -2l-1.8 -1.7l-1.7 -2.2l0.6 -1.8l-2 -2.3l-1.9 -3l-1.9 -2.6l-0.2 -1.1l-0.6 -1.6l1.4 -2.2l-73.3 -0.6l-50.2 0l-3.8 0l-23.8 0l-2.4 -0.1l-22.6 0l0.9 1.9l-2.6 3.5l-0.4 2.4l-1.3 0.9z"/></g><path data-id="53063" d="m884 305.8l-0.1 28.2l100.2 0.2l0 -16.6l0 -3.6l0 -1.7l0 -4.6l0 -2.5l0 -4.2l0 -5.4l0 -2.7l-0.1 -8.4l0 -1l0 -1l-0.1 -4.8l0 -3.1l0 -9.4l0 -10.4l0 -5.3l0 -3.1l0 -2.4l-0.1 -1.7l-0.1 -3.2l0 -1.1l0.1 -2.3l0 -8.3l-0.1 -3.2l0 -22.8l0 -1.5l0 -2.1l0.1 -13l-50.6 -0.3l-12.6 -0.1l0 48.4l-2 -1.3l-3.1 1.5l-3.1 -1.8l-3.8 -5.9l-2.7 -0.1l-1.3 -1.7l-0.7 -7l-1.1 -1.7l-2.2 1.1l-1.2 3.5l0.5 1.7l-7.2 5.6l-1.6 -1l-2 1.2l-1 2.7l-2 -0.2l-1.9 -2.6l0.2 32l-0.3 8.1l-0.2 38.9z"/><path data-id="53065" d="m810.1 188.1l0.4 1.6l0.8 1.2l1.1 1.4l1.1 2.4l2.7 3.8l-0.1 4.9l1.2 8.2l0.4 2.3l2.5 -0.4l0.6 -2.4l7.3 -5l1.8 -1.7l2.1 0.6l2.2 -1l1.6 3.3l3 3.4l0 1.8l2.1 0.8l0 2.4l2.1 0l3 6.3l0.4 3.7l2.4 1.7l2.7 4.5l2.8 0.2l1 1.3l1.6 -2l2.9 -0.5l1.2 -3.4l1.8 -2.1l3.1 0.4l3.9 1.7l2.9 -2.3l3.4 -0.6l0.6 -1.7l6.5 2.5l1.3 1.6l1.9 2.6l2 0.2l1 -2.7l2 -1.2l1.6 1l7.2 -5.6l-0.5 -1.7l1.2 -3.5l2.2 -1.1l1.1 1.7l0.7 7l1.3 1.7l2.7 0.1l3.8 5.9l3.1 1.8l3.1 -1.5l2 1.3l0 -48.4l12.6 0.1l-0.1 -16.8l-8.3 0l0 -17l0.3 -2.8l0 -80.6l-16.5 0.1l0 -16.8l8.4 -0.1l0 -18.2l8.4 0l-0.1 -16.8l8.8 0l0.1 -15l-22.7 -0.1l-34.4 0.1l-1.1 0.1l-14.9 0l-25.1 -0.1l-0.7 1.2l-1.7 0.1l0.7 1.6l-1.3 2.6l1.6 1.9l-0.4 1l-0.8 1.9l-0.5 1.7l0.3 1.3l1.4 2.2l0.9 1.1l0.2 1.4l-0.8 1.4l-0.8 2l0 1.3l0.2 1.7l1.4 2.3l0.1 1.4l0.7 1.3l0.9 2l2 2.3l0.4 2l0.9 2.1l0.1 1.4l0.9 1.6l0.9 1.3l1.2 0l1.3 -0.3l0.4 1.3l-1.5 1.3l0.2 1.2l0.5 1l-0.1 1.1l0.8 1.5l-0.9 1.1l0.8 1l0 1.3l-0.1 1.6l0.4 2l-0.1 1.7l0.7 2.9l0 1.4l-0.1 1.2l1 1.4l0.1 1.1l0.5 1.8l-0.4 2.2l-1.1 0.8l-0.2 1.1l2.77556e-17 1l-0.8 1.7l-0.5 1.7l0.1 2.3l0.1 1.9l-0.7 2l-0.9 2.9l-0.6 2.8l0.2 2.4l0 1.5l-1.3 1.3l-1.2 -0.3l-1.2 -0.3l-1.1 1.4l-0.2 1.2l-0.1 1.9l-0.5 1.4l-0.5 1.6l-0.8 1l-1.1 1.1l-1.1 2.5l0 2l1.1 1.9l0.2 2.2l-0.2 1.9l0.1 2.6l0.8 1.3l0.8 1.3l0.4 1.8l0.7 2.3l0.2 2.2l0 2.4l0 2.2l0.4 1.3l0.3 1.9l0.9 1.7l0.6 1.1l1.1 2.1l0.6 2.7l1 1.6l-0.2 2l-0.4 1.4l-0.4 1.3l-1.6 2.2l-1.8 1.6l-1.6 1.4l-0.6 1.5l0.3 1l-0.7 2.4l-0.1 2.6l0.5 2.7l-0.1 2.5l-0.9 2.1l-3.2 0.8l-2.2 0.3l-1.2 0.7l-0.2 2l0 1.8l2.3 2.4l0.6 2.5l-0.5 1.9l0.2 2.5l-0.7 1.2l-1.2 0.6l-2.3 0l-2.2 2.6l-2.8 -0.1l-6.3 -1.7l-2.6 1.7l-1.1 0.7l-1.5 0.9z"/><path data-id="53067" d="m196 381l-0.3 2.5l5.7 0.2l-0.3 29.7l0 1.9l0 6.3l0 5.4l69.7 0.4l8.4 -0.2l8.1 0.3l1.3 -0.2l35 0l-4.5 -2.3l-4 1.6l-5 -4.2l0.3 -3.2l0.3 -4.1l-2.8 -0.4l-0.3 -2.6l-1.4 1.2l-4.2 -1.4l-0.9 1.1l-9.2 -2.5l-1 -2.1l-4.2 -0.8l-0.4 -7l-4.3 -3.7l-4.2 -1.6l-1.5 -5l0.9 -1.2l-5.9 -1.9l-0.1 1.8l-2.2 -0.8l-1.2 -1.3l1.1 -3.6l-5.3 -3.3l-0.5 -4.2l-3.6 -6.5l-0.5 -2.6l1.8 -3.4l-3.5 0.1l-6.9 -3.7l-5 -10.6l-4.8 2.8l-1 -0.2l-5.6 1.5l-0.5 -1.4l-0.5 -2.1l-3.2 -2.5l-1.4 0.7l-0.7 2.9l-2.1 1.6l-4.3 1.9l-1 1.5l-0.6 3.7l-2.4 1.6l-3.4 0.2l-1.7 1.5l-0.2 2.9l0 1.1l-16.2 0l0.1 14z"/><path data-id="53069" d="m128.8 497.6l-0.2 17.6l0.5 -1l0 -1.1l3 -0.8l1.7 1.1l1.1 1.6l-0.2 2.4l0.1 1l1.2 1l7.2 1.3l4.1 -0.1l2.2 -0.3l2.2 -0.6l0 1.2l1.2 -0.3l1.5 -0.5l1.3 -0.5l1.9 -0.9l2.8 0.3l1.4 0.8l2.7 2.7l2.6 3.8l-0.4 8.8l7.6 6.5l1 0l4 0l4 0.3l2.7 0l3.7 -2.1l2.6 -1.8l2.3 -1.2l-0.5 -12.8l0.2 -10.4l-0.4 -16.2l-5.3 0.4l-12.7 -0.1l-47.1 -0.2z"/><path data-id="53071" d="m729.3 530.5l-1.2 2.7l3.5 3l5.1 6.8l0.9 4.4l2.7 6l0.6 3.2l-0.7 2.6l0.8 4.4l-2.6 1.5l-2.7 2.9l5.3 0.6l33.7 -0.1l2.5 0l2.5 0l4.2 0l3.4 0l1.3 0l4.1 0l5.1 0l3.4 0l8.6 0l3.3 0l1.4 0l6.8 0l4 -0.1l3.5 0.1l2.5 0l1 0l10.6 -0.1l1.9 0.1l17.1 -0.1l0.5 -3.5l0.2 -34.7l-16 -0.1l0.1 -16.2l-16.1 0.1l-0.1 -49.2l1.9 -0.1l-0.1 -6.1l-2 -1.4l-3.8 1.3l-4.1 -2.2l-2.2 -0.2l-5 1.6l-3.6 3.2l-4.3 -0.6l-3.8 -2.5l-2.4 -0.1l-3.2 4l-4 1.5l-2.6 2.2l-2.2 3.9l-3.5 1.7l-3 4l-0.4 5.6l-1.7 3.7l-0.8 3.9l0.5 3.6l-3.4 2.1l-1 2.5l-2.8 1.5l-1.8 4l-5.3 0l-2.1 6.4l-1.5 1.6l0.9 3.5l-8.1 3l-4.3 5.6l-14 2.3l-6.5 4.1l-1.1 1.7z"/><g data-id="53073"><path d="m257.2 52.7l0 1.6l0.4 1.3l2.1 0l1.3 1.1l2.3 5.9l4.9 5.6l2.3 1.2l-0.2 -4.9l-3.4 -4l-2.3 -1.1l-0.7 -1.9l-3.4 -5.9l-0.9 -1.2l-1.6 -1l-0.8 3.3z"/><path d="m244.4 11.2l0.5 1.1l3.9 1.4l2.2 -2.1l1.9 0.7l1.2 1.5l0.2 1.9l-0.3 1.1l-4.7 4l-1.1 0l0.9 1.9l8.1 6.3l0.7 1.1l0.7 2.9l0.3 2.8l-0.3 5.1l0.2 1l1.4 -0.5l0 -1.1l0.1 -1.1l2.4 -0.4l2.6 3.2l1.6 0.3l-0.1 2.2l-1.7 3.9l-0.7 1.1l-0.8 3l3.5 4.9l2 2.2l1.3 0.6l1.9 -0.9l-0.9 -3.2l-1.8 -1.2l-1.5 -2.2l1.3 -2.3l2.7 -2.8l1.1 -2l4 -1.9l4.1 0.6l1 1.5l1.9 1.8l2.9 1.6l-0.3 1.3l-0.3 1.4l-1.3 2.5l-1.3 0.7l-0.5 1.5l1.6 8.4l0.8 2.6l1.5 2.1l21.2 0l13.8 -0.1l122.1 0.9l45.2 0l0 -3.1l20 0l4.3 -3.4l1.9 -4.3l3.2 0.1l0 -4.2l2.9 -1.3l-2.9 -2.1l-4.1 -7.1l-2 -0.3l-1.3 -2.5l-0.9 -6.9l1.4 -6.4l-0.5 -1.8l-4.1 -2.3l0.5 -4.5l-1.2 -1.4l0.2 -4l2.1 -1.7l-1.9 -3.6l-3 -1l-5.5 3.9l-1.7 -3.2l-3.1 -1.3l-1.6 -2.4l2.6 -0.9l1.8 -4l-16.3 0l-10.4 0l-8.5 -0.2l-13.3 0l-2.4 0l-1 0.1l-11.3 -0.1l-6.4 0.2l-45.5 0.5l-44.4 -0.9l-19.5 -0.1l-19.8 0l-45 0l0.3 1.1l-1.3 1l-1 0.1l-2.9 3.1l-2.6 3.7l-0.7 2.2z"/><path d="m210.1 0.1l0.8 3l0.1 2l3 0.1l2.5 -0.4l1.6 0.7l-1 -5.5l-7.1 0z"/></g><path data-id="53075" d="m829.5 432.7l4 10.2l-1.7 4.1l4 6.1l-2 6.6l4.7 5.3l1.7 1l6 -0.3l3.3 -3.3l3 0l4.3 -2l6.4 -0.3l4.1 -1l5.6 1.4l3.5 -1.4l1.6 -5.1l2.3 -1l2.9 0.5l3.6 -0.7l3.6 -3.7l1.9 -6.9l2.1 -2.3l6.8 -1.5l5 0.5l2.8 3.8l3.6 1.2l5.9 -1.4l4.4 0.6l2.1 -0.9l1.4 -2.5l3.2 -0.8l2.1 4.6l2.6 3.3l4.5 0.6l1 1.1l-0.4 4.3l0.8 1.9l3 2.3l2.8 3.8l3.3 0.2l7.3 6.6l2.9 8.3l-1 3.6l1.4 3.5l2.8 2.5l-0.3 4.7l3.7 0.3l3.6 -1.6l8.4 2.5l3.6 -2.3l2.3 0.7l0 -6.8l0 -1.3l0 -13.4l0 -29.5l-0.1 -21.5l0 -1.9l0 -56.5l0 -5.2l0 -5.1l0 -4l0 -4.2l0 -6.4l-100.2 -0.2l-17.6 -0.1l0.2 65l-1.5 8.9l-4.2 3.5l1.5 1.9l-0.7 2.9l-2.9 1.9l0.6 5.1l-2.6 0l-1.5 3.1l-6.1 -2l-4 3.3l-3.8 0.4l-0.7 2.3l-3.6 -0.8l-2.6 2.4l-5 0.9z"/><path data-id="53077" d="m413.9 400.3l-3.2 6.5l3.3 1.9l2.9 7.9l4.1 5.2l-1.6 1.7l1.7 4.8l2.1 0.1l-0.8 2.9l3 2.5l5 0.4l2 2.6l-2.9 1.3l-0.1 3.5l-4 0.5l-0.7 6.5l2.4 0.5l1.1 4.6l-2.7 3.7l0.2 3.6l-2.4 2.3l1.5 2.1l-2.2 3.6l-2.7 1l0.1 5.6l3.4 2l-1.6 3.1l3.1 3l0.5 5.3l2.7 3.8l-0.9 3.8l-16.4 0.4l0 63.6l49.8 -0.1l8.2 0.4l63.3 0.1l16 0l2.7 0.2l72 -0.1l-0.1 -32.1l-1 -59.2l-0.3 -5.3l0.3 -12.2l-1 -0.4l-2.1 -0.5l-2.5 -4.1l-3.7 -3.8l-3.4 -8.8l0 -2.6l-60.9 -0.1l-7.8 -0.1l0.2 -16.2l-14.9 -0.2l-1.2 -16.2l-50.2 0.2l-5.4 -6.8l0 -2l-2.7 -2l0 -4.1l-4.3 -1.5l-1.5 -3.4l-3.8 -3.4l-5.7 -3.4l-1.6 -2.5l-4.4 -2.9l-3 -1.2l-3.9 2.2l-4.6 -0.3l-1.5 1.5l-2.6 -3.1l0.7 5.7l-3.3 4.4l0.6 1.9l-1.5 2.1l0 2.5l-5 3.5l0.5 1.4l-2.1 2.3l1.1 4.9l-0.9 2.1l-5.2 3z"/></svg>
