<?xml version="1.0" encoding="UTF-8"?><!DOCTYPE svg PUBLIC '-//W3C//DTD SVG 1.1//EN' 'http://www.w3.org/Graphics/SVG/1.1/DTD/svg11.dtd'><svg viewBox="0 0 1000 733.2" xmlns="http://www.w3.org/2000/svg"><path data-id="09001" d="m0 654.3l2.7 4.9l2.9 4.1l5.5 9.2l6.1 10.2l3.7 5.9l3.7 6.1l4.9 8l4 6.6l3.8 5.3l-0.1 3.4l-2 5.6l0.3 4.1l-0.5 3.8l1.1 1.6l3.3 -6.7l4 -4.7l20.4 -8.8l4.3 -0.6l5.5 3.7l0.5 6.6l7.2 -0.5l1.2 -6.3l2.9 -4l4.7 -4.5l6.9 -4.5l2.1 -1.3l1.3 0.2l1.3 2l-0.5 4.7l1.2 3.8l3.2 -2l2 -4.6l1.1 -2.4l-0.1 -6.3l10.9 -5.8l1.2 -0.7l8.2 8.3l4.7 -10.5l9.2 -3.9l1.8 0.1l6.1 0.2l1.7 1.6l5 4.7l18 -7.3l1.8 -2l15.2 -16.8l-9.3 -12.6l14 -2.7l7.5 -1.4l9.7 -4.3l6.9 -5.6l1 -0.8l4.9 -1.5l12.6 7.1l7.4 -6.1l6.5 -11.8l3.6 0.7l4.1 -3.3l9.1 -7.3l9.3 -4.3l3.6 -1.6l3.6 1.2l0.3 3l2.9 1.3l17.6 8.1l9.9 -2.7l1.4 -2l-0.8 -2.2l-0.2 -1.8l1.2 -6.2l-7.2 -7l6.6 -17.2l-0.6 -6.3l0.2 -11l9.7 -11.7l2.3 -5.6l-1 -11.7l3.7 -7.7l6.6 -4.3l1.8 -3.9l-1.3 -4.2l-7.3 -8.3l-4.6 -4.2l-12.8 -8.9l-3.7 -6.3l-0.9 -2.7l-5.9 -4l-5.9 -11.3l-4.9 -6.2l-0.5 -4.3l-13 -6l-1.7 -11.6l-10.9 -8.2l-6.8 -6.2l-7.8 2.4l-4.8 -9.4l-9.9 3.3l-4.7 -11.4l-12.4 2.3l-6.6 -14.1l-10.9 -2.7l-22.5 -11.3l-6 -17.6l-22.6 11.6l-5.5 4.6l-2 -12.5l0.1 -9l-27.2 -79.6l6.8 -6.4l-4.6 -9.3l-6.8 -3.4l-5.8 -0.6l-0.9 17.6l-0.5 14.7l-4.7 63.8l-2 32.7l0 1.1l-0.1 1.2l-0.6 8.8l-0.2 4.4l0 1l-0.1 1.8l0 1.2l-0.5 7l-0.3 3.6l-0.1 1.4l-1.8 19.2l-1.2 20.1l-0.7 7.1l-0.3 3.3l-1.9 24.2l-0.3 7.1l0.3 5.7l-1 8.4l16.8 26.5l8.2 13.4l10.2 16.8l-1.1 0.7l-5.7 3.4l-7 4.1l-2.6 1.6l-20.6 12.7l-5.2 3.2l-25.6 15.3l-9.2 5.5l-3.9 2.3l-29 17.8l-16.4 10.1z"/><path data-id="09003" d="m370.5 8.1l-10.7 50.1l73.4 -4.5l-9.7 35.6l-4.8 17.2l-13 1.1l-6.7 28.6l8.9 9.7l-6.5 23.1l-35 5.7l9.3 57.9l0.2 1.3l7.9 50.3l10 -1.2l13.1 -2.1l2.5 25.2l-5.9 33.1l-0.6 2l22.1 -3.4l12.4 -1l5.9 9.8l7.8 1.9l4.3 1.1l2.1 -16.8l6.5 -1.3l0.8 10.4l12.8 -11.8l25.3 -4l-0.4 -9.4l7.1 -1.6l6.2 -5.2l6.4 -1.3l1.7 -9.2l-1.4 -6.9l44.3 -8.6l-1.4 4.8l44.5 -6.5l20 -3l19.9 43.5l19.5 -3.5l6 -1.1l3.5 -8.3l0.6 -19.4l-10.4 -21.8l-9.6 -6.6l-2.1 -11.7l-4.1 -26.6l-1.9 -12.6l-4.3 -31.4l-0.6 -5l-1.3 -10.2l-4.8 0.5l-11.4 1.8l1.1 -7.3l4.4 -27.9l-11.1 2.6l0.5 -9l2.1 -52.3l10.6 -1.5l-8.5 -60.1l-9.8 -0.1l-12.7 1.6l-10.5 1.3l-4.7 3.8l-4.1 0l-8.6 -0.2l-0.5 -4l-18.1 -1.1l-27.2 -3l-30.9 0.4l-0.9 2l2.1 0.8l0.9 1.3l-1.2 3.3l-1.8 3.1l-1.6 -0.6l-0.9 1.4l0.5 1.1l0 2.5l-1 1.2l0 2.1l-1.5 1.4l-0.3 3.3l-4.1 0.6l-21.6 3.1l1.6 -27l-17.3 -0.3l-8.5 -0.6l-59.4 -0.6l-10.6 -0.1l-4.7 -0.1z"/><path data-id="09005" d="m108.7 251.2l-0.7 14.4l5.8 0.6l6.8 3.4l4.6 9.3l-6.8 6.4l27.2 79.6l-0.1 9l2 12.5l5.5 -4.6l22.6 -11.6l6 17.6l22.5 11.3l10.9 2.7l-8.6 -10.8l3.2 -13.1l35.4 -5.9l24.8 2.5l17.4 -2.8l7.5 -1.9l-4.6 -28.8l10.1 -0.5l26.4 -8.5l5.6 -10.6l9.7 -2l3.5 -0.6l-0.3 -12l3.9 -2.1l7.3 -3.8l9 0.8l-1.5 -9l19.7 -8.6l-7.9 -50.3l-0.2 -1.3l-9.3 -57.9l35 -5.7l6.5 -23.1l-8.9 -9.7l6.7 -28.6l13 -1.1l4.8 -17.2l9.7 -35.6l-73.4 4.5l10.7 -50.1l-22.9 -0.7l-38.1 -1.5l-52.8 -2l-1.6 0l-31 -1.3l-72 -2.5l-28.1 0.7l-1.2 34.4l-1.7 28.8l-1.8 25l-0.9 20.7l-1.9 23.4l-1.5 23.8l-3.1 45.3l-0.5 12.3l-2.5 36.8z"/><path data-id="09007" d="m502.3 316.7l0.4 9.4l1.7 23.8l2.1 32.1l0.7 10l4.9 -1.6l-0.8 8.1l-1.9 24.2l-3.6 10.3l4.2 -0.9l15.3 -3.3l12.5 -2.8l2.7 -0.2l12.9 -3l1.6 13.1l9.2 4.6l10.5 18.1l-0.8 39l14.2 3.6l0.4 9.9l20.4 20.2l4.2 16.9l2.3 -4.8l2 -1.2l4.2 -0.8l1.4 3l6.2 0.8l3.7 -4l6.9 -3.3l7.1 0.4l10.6 -6l23.7 0.3l3.7 0.2l5 9l1.2 2.2l19.9 -5.4l-0.3 -5.3l3.7 -1.8l-4.2 -11.1l0.2 -19.3l-10.3 -12.2l-5.3 -5.1l1.7 -18.2l-4.5 -6.1l-18.9 -3.7l-6.3 -23l3.6 0.4l62.4 -8.9l-3.6 -29l-5.4 -27.3l-0.2 -11.1l-57.6 1.6l-16.3 -35.8l-19.9 -43.5l-20 3l-44.5 6.5l1.4 -4.8l-44.3 8.6l1.4 6.9l-1.7 9.2l-6.4 1.3l-6.2 5.2l-7.1 1.6z"/><path data-id="09009" d="m209.7 377.9l-3.2 13.1l8.6 10.8l6.6 14.1l12.4 -2.3l4.7 11.4l9.9 -3.3l4.8 9.4l7.8 -2.4l6.8 6.2l10.9 8.2l1.7 11.6l13 6l0.5 4.3l4.9 6.2l5.9 11.3l5.9 4l0.9 2.7l3.7 6.3l12.8 8.9l4.6 4.2l7.3 8.3l1.3 4.2l-1.8 3.9l-6.6 4.3l-3.7 7.7l1 11.7l-2.3 5.6l-9.7 11.7l-0.2 11l0.6 6.3l-6.6 17.2l7.2 7l1.3 -2.4l13.4 -14.9l10.4 -8.7l4.5 -2.4l2.6 0.4l11.9 1.7l1.1 0.5l0.1 1.1l2.7 0.4l3.8 -4l4.9 -8.6l6 -7.4l12.5 -12.4l1.2 -0.4l1.4 -0.5l11 -3.8l1.1 -1l2.7 -2.5l-2.4 -4.4l-2 -4.5l-1 -2.3l5.8 -1.4l3.8 -6.2l3.5 -3.9l2.8 0.4l0.9 9.3l1.4 5.3l-1.2 3.3l4.1 3l1.9 4l-0.5 2.5l-4.3 2.3l-0.5 2.8l1.8 1.4l1.4 0.7l1.7 2.2l3.5 -1.6l3.3 1.2l10.2 -1.6l3.7 -1.7l2 -5.3l1.3 -0.8l10.8 0l3.9 1.8l0.3 1.2l15 -7.7l1.8 -0.9l14.8 -1.5l1.6 0l-3 17.6l19.5 -12.3l5.1 3.4l0.6 2.2l-1.3 1.4l1.6 3.1l8.2 -0.3l2.2 -1.2l2.5 -3.2l0.3 -4.3l6.5 -6.4l4.9 -1.5l4.2 2l6.8 -0.6l12.5 -3.4l9.9 2.3l7.6 -2.1l6.3 2.5l12.3 12.1l4.9 -3.5l-4.2 -16.9l-20.4 -20.2l-0.4 -9.9l-14.2 -3.6l0.8 -39l-10.5 -18.1l-9.2 -4.6l-1.6 -13.1l-12.9 3l-2.7 0.2l-12.5 2.8l-15.3 3.3l-4.2 0.9l3.6 -10.3l1.9 -24.2l0.8 -8.1l-4.9 1.6l-0.7 -10l-2.1 -32.1l-1.7 -23.8l-25.3 4l-12.8 11.8l-0.8 -10.4l-6.5 1.3l-2.1 16.8l-4.3 -1.1l-7.8 -1.9l-5.9 -9.8l-12.3 1l-22.2 3.4l0.6 -2l5.9 -33.1l-2.5 -25.2l-13.1 2.1l-10 1.2l-19.7 8.6l1.5 9l-9 -0.8l-7.3 3.8l-3.9 2.1l0.3 12l-3.5 0.6l-9.7 2l-5.6 10.6l-26.4 8.5l-10.1 0.5l4.6 28.8l-7.5 1.9l-17.4 2.8l-24.8 -2.5l-35.4 5.9z"/><path data-id="09011" d="m649.8 322.7l16.3 35.8l57.6 -1.6l0.2 11.1l5.4 27.3l3.6 29l-62.4 8.9l-3.6 -0.4l6.3 23l18.9 3.7l4.5 6.1l-1.7 18.2l5.3 5.1l10.3 12.2l-0.2 19.3l4.2 11.1l3.9 -1.9l3.2 3.1l5.1 0.5l29 -3.5l5.2 -4.8l0.4 -3l-0.7 -2.9l1.6 -0.5l6.8 -0.7l5.3 0.9l6.4 5.3l4.6 -5.3l0.5 -9.7l0.8 -1.7l5.4 -5.1l3.6 -0.5l3.3 1l1.9 3.3l6.4 5l14.1 7.5l11.5 0.2l4.5 -3.9l1.7 -1.5l2.8 -4.9l5.1 -3.8l1.1 0.1l31.1 1.9l17.4 -2.6l3.1 -6.4l1 -0.1l4.8 3.7l7.3 -3.7l5.7 -5.4l4.8 -0.1l6.7 2l3.4 2l15.7 -2.9l9.3 3.8l4.5 5.9l-0.5 1.5l11.1 -9.5l4.9 -7.2l-3.3 -6.4l-0.9 -6.6l3.2 -5.1l-0.6 -6.1l-0.3 -3.3l-4.5 -7.4l-0.7 -7.2l0.5 -2.8l1.5 -1.6l11 -5.1l10.7 2l2.1 -61.2l0.5 -14.5l1.7 -48.2l0.8 -25.9l0.1 -3.8l-36.2 -3l-13.6 2.1l-33.7 4.6l-2.8 -0.2l-10.4 -2.3l-3.4 -0.7l-67.7 -14.9l-3.4 -1.7l-16.4 -2.9l-3 6.8l-14.2 -12.2l-13.6 -13.2l-14.4 -13.7l-2.4 -0.1l-3 10.2l-12.5 4.9l4.2 10.6l-19.3 16.1l-15.8 7.2l5 17.3l-1.8 9l-24.4 2.9l-4.5 8.7l-13.5 -9.6l-3.5 8.3l-6 1.1l-19.5 3.5z"/><path data-id="09013" d="m623.7 125.2l-0.5 9l11.1 -2.6l-4.4 27.9l-1.1 7.3l11.4 -1.8l4.8 -0.5l1.3 10.2l0.6 5l4.3 31.4l1.9 12.6l4.1 26.6l2.1 11.7l9.6 6.6l10.4 21.8l-0.6 19.4l13.5 9.6l4.5 -8.7l24.4 -2.9l1.8 -9l-5 -17.3l15.8 -7.2l19.3 -16.1l-4.2 -10.6l12.5 -4.9l3 -10.2l2.4 0.1l-3.6 -6l-3.1 -3.7l5.4 0l13.3 0.1l9.4 -0.1l5.7 -18.8l15.8 1.3l-4.2 -56.3l-27.4 -0.2l0.4 -85.1l33.7 -0.8l27 0.2l-1.5 -48.5l-17.3 -0.9l-35.7 -0.6l-22.9 -0.4l-10.9 -0.1l-24 -0.1l-25.7 -0.5l-15.7 -0.3l-30.5 -0.6l-27.1 -0.2l8.5 60.1l-10.6 1.5l-2.1 52.3z"/><path data-id="09015" d="m760.1 223.1l3.1 3.7l3.6 6l14.4 13.7l13.6 13.2l14.2 12.2l3 -6.8l16.4 2.9l3.4 1.7l67.7 14.9l3.4 0.7l10.4 2.3l2.8 0.2l33.7 -4.6l13.6 -2.1l36.2 3l0.3 -11.1l-1.4 -47.4l-0.7 -31.4l-0.1 -2.9l-0.8 -22.5l0 -1.2l-0.7 -21.8l-0.2 -6.3l-0.1 -3.6l-1.3 -42.8l-0.4 -13.2l-0.7 -50.4l-0.7 -10.8l-42.9 -0.5l-3.5 0l-37.2 -1.3l-12.5 -0.4l-39.2 -0.3l-18.7 -1l-1.3 -0.1l1.5 48.5l-27 -0.2l-33.7 0.8l-0.4 85.1l27.4 0.2l4.2 56.3l-15.8 -1.3l-5.7 18.8l-9.4 0.1l-13.3 -0.1l-5.4 0z"/></svg>
