<?xml version="1.0" encoding="UTF-8"?><!DOCTYPE svg PUBLIC '-//W3C//DTD SVG 1.1//EN' 'http://www.w3.org/Graphics/SVG/1.1/DTD/svg11.dtd'><svg viewBox="0 0 1000 737.58" xmlns="http://www.w3.org/2000/svg"><path id="06002" d="m479 157l1 7v2v5l7-1h1h4h11h1l16-1h1h10h4v1v3l2 1v-2v-15l-1-25v-4l-5-1h-1l-22-7l2-10l-2-2l-3-2v1l-3-3l-3-2v-1l-2 2l-1 3v1l-3 8l1 3l-2 4l-5 13l-1 9l1 4v3v4z"/><path id="06010" d="m376 234l2 10l1 6v1l1 4l2 13v3v2l1 5l1 7l5-1h1l6-1l6-1l5-1h5l1 1v2h3l-1-2v-1l7-2h4l10-1l-1-6l-1-4v-4h-1l-1-12v-2l-1-5l-1-2l-1-9v-3l-1-4l-4 1h-4h-1h-1l-1 1v-1l-4 1h-2l-6 1l-2 1h-7l-1 1h-5l-4 1z"/><path id="06013" d="m367 175l2 16l5 27l2 15v1l10-1l4-1h5l1-1h7l2-1l6-1h2l4-1v1l1-1h1h1h4l4-1l-1-6l-1-5v-4l-1-4v-5l-2-12v-1l-5-1h-1v-1l-1-3l-1-1l-1-2v-1v-2v-4l-1-1v-2v-1l2-1h1v-1l-1-1l-1-1l-1 1h-5l-6 1l-26 5z"/><path id="06016" d="m588 119l-1 1l2 2l-1 2v2h16h5l15-1l1-2l1-41v-7l1-2h-3l-3 1l-7 1l-11 2l-9 1v1h2l1 1v1v4l2 2v1l2 1v4l-1 2h1v1l-1 1l-1 1l-1 1l1 1h-1l-1 2l-1 1h1l-1 2v1v1v2l-1 5h-2v1v1l-2 2h-1h-2z"/><path id="06018" d="m218 28h1h2h2h1h-1h-3h-2zm-28 1v1l1 2l3 1l1-1v1v1l11 1v-3l-1-3h1l1-2l1-5l2 2l3 1l3 2l2 1l-2-1l-1-1l1-1l1 1v-3l-2-1l-2-1v-3l2 1l5 3l-1 1l2 1h1v-1h3l1 1l1-3l2 3l2 1h1l2-1v1l1-1v-2v-1l3-1l1-1l-1-3l2-1v1l2-1v-1h-1l1-2l1 1l1-3v-2l2-1h2l2 1l2 1v1v2l1 2l1 1l1-11l-31-1l-1-1h-17h-6v2l-1 1l-1 4l-1 1l-2 3l-1 2l-1 4h1v1v2v2l-3 2zm-3 34v2h1l4 1l2-1h2l1-1l1-1l-3-2l-3-2l-2-1z"/><path id="06019" d="m399 136v4l1 4h3h3l2 2v2l-2 7l-4 14l6-1h5l1-1l1 1l1 1h1h2v-2l14-3h1l5-1h1h2l-1-14v-1l-1-23v-9l-1-26l-15-1v2l-5 16l-13 1l-3 12v3l-3 10v3h-1z"/><path id="06029" d="m624 125v9l8-1l3-1l1-4l1-1v1l4-1h2l9-2h1l12-2l5-1h1l-1-12v-1l-1-10v-1v-4h1l9-2l9-1l26-4l4-1l1-2l1-2l2-4l1 2v1l1 2v1l1 1l8-1l-1-1v-2l1-5h-4h-6h-21h-5v-1l-2 1h-14l1-11h-3l-7 1l-14 2l-15 2l-2 1h-3v1h-1h-6l-4 1l-1 2v7l-1 41z"/><path id="06031" d="m171 64l-2-1l3 5l1 1l3 3v1v-1l7 8l-3 3l1 1h-2h-1l2 1v1h-1l-1 1h-2l-1-2l1 2h-2l-1 1l1 3l13 1l2-7v-1l-1-1l1-2v1v1l2 3v1l-2 2l-1 1l1 2h10l36 1v2h-1l1 2v1v1v3l1 1h-2h-1l-1-1l-1 1l-1 2v3l2 3l2 2h1v1l2-8v-1l1 2h1v-3h-1l2-11l7-35v-2l3-17l-44-4l-11-1l-4-1v-1l-2-2l-5 2v2l-1 2v1v2v2v3v3l-1 3h-10v13l2 2v2h-1l-1-1z"/><path id="06033" d="m557 227l4 6h1l8 1l4 4l-1 2l-1 1l-4 1l-4 2l-1 3v2l2 1h2l7 1l2 3l1 2l1 1v2v2l-1 1l3-1h2v-1v1h1h1l2-1l1 3h1v3h-1v3h1l1-2h2l2-1l4-4h2l1-1v-1v-1v-1h1v-1l1-1h1l2-3l2 1l1 2h1l2 2v-2h1v1v1l2 3l9-1l1-1l1-1l1-1v-1l-2-5v-3h1h2h3h2v1h2v1h1l2-1l1 2l-1 1l1 2v2l1 1l4 8h2l-1-4l-2-5l3-3l4-1l5-1h4v-3l-4-24l-2-13l-19 3h-1h-1l-3 1h-3h-1l-1 1h-4h-2l-9 2l-9 1l-2 1l-14 2l-3 1l-10 1l-2 1v1h-1l-1-1l-2 1h-1z"/><path id="06035" d="m460 63h-1l1 1v2h1l4 9v6v-1l2-1h1v2v3v2l-2 3l-1 1l1 1l3 1h4h13h1h1v-1v-2h1v-4l-1-1l2-6v-3l1-4v-1l1-3l1-4l3-10l2-8l-8-3l2-8l-18 2v2l-1 2v2l-6-3l1 2l-1 1v1v-1l-3-2v-1h-1l2 2l1 2l1 2v1l-1-1l-5 3v2l-1 1v2v9z"/><path id="06037" d="m460 325l-2 8l6-1l-1 6l2-1v2v3l1 1l2 1l1-1l4-5h1l2-3l2-4l11-2l6-1l5-1h3v-6v-4l5-1h2l4-1l1-4h1v-3v-2l2-1v-1l-2-3l1-1l1-5h2l1-1h1l1-1l1-2l-1-3v-1l-1-11h-3h-3v2l-11 2l-1-3l-4 1h-4l-3 1h-3h-6h-4l-6 1l-1 1h-2l-4 8l-1 2v2h3l-2 4h1v2l-1 1l2 1v6h-1l-1 2l-1 5l-1 7l-4 3z"/><path id="06039" d="m119 89l55 2l-1-3l1-1h2l-1-2l1 2h2l1-1h1v-1l-2-1h1h2l-1-1l3-3l-7-8v1v-1l-3-3l-1-1l-3-5l-1-2l1-3l-2-1v-1l-2-1v-1l-1-1v-1h-2h-1h-3l-1 1h-1l-2 2l-1-1h-1l2-1l1-2v-1l-3-1v-1l-1 1l-3 1l-1-1h-4v1l2 1l1 2h1v2l4 1h-3v1h-1l-3 1l-2 1l-2-2v-1l-2-1v-1l-1-2l-1-1l-4-3v-2l-2-3v-2v-2v-2v-1l3-4h-2l-2-1l-1-2h-3l-1 1h-1v5l-2 29z"/><path id="06040" d="m592 186v1l1 5l4 28l2-1l9-1l9-2h2h4l1-1h1h3l3-1h1h1l19-3v-2l-1-1l-3-28l-1 2h-1l-1 2l-3-1l-3 1v-2h-1v1h-2h-2l1 1h-2h-3v1h-2v-3l-3 1l-1 2h-1l-3 1v-1h-1v1h-3l-1 1h-3h-3l-1-2v2h-3h-2l-5 1l-3-1h-1v-2l-1-1z"/><path id="06042" d="m592 173h-2l2 13l1-2l1 1v2h1l3 1l5-1h2h3v-2l1 2h3h3l1-1h3v-1h1v1l3-1h1l1-2l3-1v3h2v-1h3h2l-1-1h2h2v-1h1v2l3-1l3 1l1-2h1l1-2l-1-5l-1-10h-5l-1 1l-10 1l1-7l-6 2h-2l-8 3l-21 7h-2z"/><path id="06051" d="m484 278v1h6h3l3-1h4l4-1v-2l-1-4l-2-20l-3 3h-4l1 2h-1v-1l-1 1l-2-1h-3l1 2l-3 1l-1-1h-1l1 2l1 2l1 3h-1h-1v2l-1 2l1 1h3l-1 3h-1v1h-2l1 4z"/><path id="06052" d="m485 266l1 1v-1zm-19-2l-1 1l1 4l1 5h1l1 7h1l1-1v1h2l1-1l6-1h4v-1l1-1l-1-4h2v-1h1l1-3h-3l-1-1l1-2v-2h1h-2l-2 1v1l-2 1h-1h-2h-1l-2-1h-2z"/><path id="06053" d="m460 255v2l1 2v1v1v2l3 1h2l6 2h2l2 1h1h2h1l2-1v-1l2-1h2h1l-1-3l-1-2l-1-2h1l1 1l3-1l-1-2h3l2 1l1-1v1h1l-1-2h4l3-3l-3-17l-2-1h-1h-2l-6 1l-4 5l-2 2l-2-2l-1-1l-1 2l-2 3l-4 8l-9-1v1l-1 2v1z"/><path id="06057" d="m336 174v1h24h7l9-1l26-5l4-14l2-7h-1h-4l-1-3h-4v-1h-1v-2h1v-3l-1-1v-1v-2l-1-2l1 2l1 1v1v3h1v-4h1v-3l3-10v-3l3-12l-13 1h-3l-4 1h-3l1 1v3l3 6h1l4-1h2v1v1v1v2l1 1l2 1v1l-3-2l-1-1l-1-2l-2-2h-3l-1-1l-2-6l-1-3l-6 1h-8l-11 1h-1l-9 1l-3 15l-3 18l-1 5v2z"/><path id="06058" d="m240 93l4 1h2h15l-1 3l2 3l1 1l1 1h2v3l-1 1l1 1v2l2 1v1h1l3 2l2 1l1 2h1l2 2l1 3h1v1h2l2 3l3-14l2-8l8-40h6v-2v-2l-1-1l1-1l-1-3v-1l-2-1l6-31l4-15l-23-1l-30-1h-1h-1l-1 11l-4 24l-3 17v2z"/><path id="06060" d="m437 42h1l1 2h1l1 3l1 1v1v2v1v1v1h3l1 1v-2l8-1h2h2l1 1h1v-2l1-1v-2l5-3l1 1v-1l-1-2l-1-2l-2-2h1v1l3 2v1v-1l1-1l-1-2l6 3v-2l1-2v-2l-4 1v-3l2-24h-11h-7l-8-1h-6l1 2l2 2l2 1l-4 13l-1 2l-1 6v1z"/><path id="06061" d="m387 120h3l2 2l1 2l1 1l3 2v-1l-2-1l-1-1v-2v-1v-1v-1h-2l-4 1z"/><path id="06062" d="m431 245l1 5v2l1 12h1v4l1 4l1 6l19-3l12-1l-1-5l-1-4l1-1h-2l-3-1v-2v-1v-1l-1-2v-2l1-1v-1l1-2v-1l-2-1l-15-3l-6-2l-5 1z"/><path id="06066" d="m631 160l-1 7l10-1l1-1h5l1 10h1l9-2l3-1l10-2l4-1h1l-1-12v-1l-1-12l-1-5l-1-12v-2v-3h-1l-5 1l-12 2h-1l-9 2h-2l-4 1v-1l-1 1l-1 4z"/><path id="06068" d="m191 32v1l4 1v-1v-1l-1 1zm-68-5v3h1l1-1h3l1 2l2 1h2l-3 4v1v2v2v2l2 3v2l4 3l1 1l1 2v1l2 1v1l2 2l2-1l3-1h1v-1h3l-4-1v-2h-1l-1-2l-2-1v-1h4l1 1l3-1l1-1v1l3 1v1l-1 2l-2 1h1l1 1l2-2h1l1-1h3h1h2v1l1 1v1l2 1v1l2 1l-1 3l1 2l2 1l1 2l1 1h1v-2l-2-2v-13h10l1-3v-3v-3v-2v-2v-1l1-2v-2l5-2l2 2l-1-2v-1l1-3l3-2v-2v-2v-1h-1l1-4l1-2l2-3l1-1l1-4l1-1v-2l-48-2h-2l-26 1z"/><path id="06069" d="m115 159l-2 21h14l37 2l1-3l3-3l1-2l1-2l1-2l2-2l-2 1l-1-1l-2-3l-1-3v-1v-2h2l1-1l2 1v-1h1l1-1h2l2 1v1h3h1l-3-4l-2-2v-1l1-1v-2l1-2l1-2v-3l-1-1l-1-1l-1-3l-2-3l-2-1l-1-1l2-1l2-2h1l-1-3l-1-1v-1l-3-3l-2-1l-3-4l-1-2l1-2h-1v-1l1-1h1l1-2l1-1l1-1v-2v-1l1-1l1-2l3-2v-1l1-2l-2-2l-1-2l-55-2l-1 21v1l-2 22l-1 24z"/><path id="06070" d="m445 158l-1 4l12-2h2v-2l1-7h1v-2l3-4l-1-1l-3-2l3 1h5l1-1l-1-2l-3-1l1-3h-1v-1h2l1-1h1l1 2h3l1-1l1 1l-1 2l2 2v1v2l-1 3v1v3v4l-2 3h1l1 1l5 2v-3l8-2v-4v-3l-1-4l1-9l5-13l2-4l-1-3l3-8v-1l-1-1v1l-3-1l-3 3h-2l2-1l1-2l1 1l1-1l-1-3v-2l2-4v-2l1-2h-2h-2h-1h-1h-1h-1h-13h-4l-3-1l-16-1h-3l1 1l-1 2h-2l3 7l2 5h1l3 3v4l1 2l1 1h1l4 1l1-1v-2l1-1v1l-1 1v2v1l1 1l1 3h1l4 1l-1 1l-2 1v1l-1 1h-2h-2h-3h1v1v2h1l-7 4l-2 1l-2 1l8 7h1v1l-2-1l-6-1l-1 1l2 1l-1 2l2 1h-1l-2 1l-1 2l-1 3l-1 2l-1-1v3z"/><path id="06071" d="m629 11l5 35v2v2l3 22h1v-1h3l2-1l15-2l14-2l7-1h3h-1l1-8l1 1v-1v-3l1-3v2l1 1l1-1l1-1v-2l3 1l-1-3v-1l-3 1v-2l1-1v-3l-2 1h-2l3-31h-19h-11h-1h-1l-10-1h-7z"/><path id="06076" d="m682 65l-1 11h14l2-1v1h5h21h6h4h3h5l28 1v-3v-1v-7v-2l1 1l9-1l12-1h2h20l12 1l2-3l3-2h1l1-1l1-2v-1h2l1 1h2v2l2 1l-1-36v-8l-18-1h-32l-26-1h-11h-24l-26-1h-16l-3 31h2l2-1v3l-1 1v2l3-1v1l1 3l-3-1v2l-1 1l-1 1l-1-1v-2l-1 3v3v1l-1-1l-1 8z"/><path id="06078" d="m529 69l-1 1l9 1h3l5 1h6l4 1h7l13 1v-2l1-10l1-3l1-6l2-11l-2-6l1-9l-1-9v-4l-15-1h-3l-11-2h-5h-3l-1-1l-1 1l-1 1v4v2l-1 1l1 3l-1 2l-3-1v3v3l-1 4l-1 2l-3 6l3 1l2 2l3 1l1 2l2 1l-3 1v1v1v2l-2 1v2v1l-1 1l-1 2v1l-1 1v1h1l-2 2l1 1l-1 1v1z"/><path id="06081" d="m487 108h2l3-3l3 1v-1l1 1l1-3l2-2v-1h1v-1l-1-1v-1h-1l-1-2v-1h-1l-1-2h-1l-1 2v2l-2 4v2l1 3l-1 1l-1-1l-1 2z"/><path id="06082" d="m575 74l-5 7l10-2l7-1h7l9-1l11-2l7-1l3-1h3l4-1h6l-3-22v-2v-2l-5-35h-10l-2 1l-21 2l-5 4h-4h-9l1 9l-1 9l2 6l-2 11l-1 6l-1 3l-1 10z"/><path id="06084" d="m669 94v4v1l1 10v1l1 12v3v2l1 12l1 5l1 12l8-1h4l1-1l10-1l20-3l11-2h1h1h2v-3v-1v-1v-2l1-2h1l1-2l-1-1l-1-1v-3l-1-2l1-1l-2-2v-2l-1-2h1l1-1v-2l1-2v-1l2-1l1-2l1-1v-1h-2v-2l2-1l3-1l1-2l-1-2l1-2v-1v-1h-1v-2l-2-1v-3v-1l-1-2l-1-1l-1-1l-1-1l-1-1v-3l-8 1l-1-1v-1l-1-2v-1l-1-2l-2 4l-1 2l-1 2l-4 1l-26 4l-9 1l-9 2z"/><path id="06089" d="m458 158v2l9-2h2v-2h1v-1l1-1h1l2-2v-1v-1l-1-4l1-2l1-1v-2v-1l-2-2l1-2l-1-1l-1 1h-3l-1-2h-1l-1 1h-2v1h1l-1 3l3 1l1 2l-1 1h-5l-3-1l3 2l1 1l-3 4v2h-1z"/><path id="06092" d="m439 90l1 26v9l1 23v1l1 14l2-1l1-4v-2v-3l1 1l1-2l1-3l1-2l2-1h1l-2-1l1-2l-2-1l1-1l6 1l2 1v-1h-1l-8-7l2-1l2-1l7-4h-1v-2v-1h-1h3h2h2l1-1v-1l2-1l1-1l-4-1h-1l-1-3l-1-1v-1v-2l1-1v-1l-1 1v2l-1 1l-4-1h-1l-1-1l-1-2v-4l-3-3h-1l-2-5l-3-7h2l1-2l-1-1z"/><path id="06095" d="m510 110l-2 10l22 7h1l5 1v4l1 25v15l12-3h1h1l-2 1v3h2l2-3h4h1l1-5l2-9l1-2l1-1l3-5l3-6v-2l3-14v-7v-3l-1-3v-2v-2v-1v-2v-5h-2v1h-4h-2l-1 3l-1-1h-2l-2-1l-6-3l-2-2l-5-4l-2-1l-1-1h-4l-3-1l-2-2l-4-2l-5-1l-4-1l-4 9v1l-1 4v1l-1 2l-1 5l-1 3h-1z"/><path id="06096" d="m528 79v2l1 1v2h2l2 1l1-1l-2 5l2 2l3 1h4l1 1l2 1l5 4l2 2l6 3l2 1h2l1 1l1-3h2h4v-1h2l-1-8l-1-9l1-3l5-7l-13-1h-7l-4-1h-6l-5-1h-3l-1 1h-2l-2 1l-2 4h-1z"/><path id="06098" d="m396 133l1 2v2v1l1 1v3h-1v2h1v1h4l1 3h4h1v-2l-2-2h-3h-3l-1-4h-1v-3v-1l-1-1zm-13-23l1 3l2 6l1 1l-3-6v-3zm-94-7h1l5 1h1l3-1v1l2 2l1 2l1 2l1 2l2-1v2v2l-1 7l27-5l5-1l1-1h1h3l1-1l5-1l3-15v-1l2-9v-5h1l2-11v-1l1-6l2-2v-3l1-1l-1-1h1l3-15l2-8l6-27l-23-1h-12l1 2v4v1l-1 2v1l-4 1l-1-2h-2l-1 1l-1-1l-2-2h-1l-2 1l-1 1v4l3 1v1l3 3h-1l1 1l2 1l1 1l1 3v4l-1 1v1v1l-1 2v1l-2-1l-1 2l-1-1l-1 1l-2-2v-1l-1-1v-2l-1-1h-2v1l-2-1v-4l4-1l-3-5l-2-1l-4-1l-2-1l-2-1h-1l-6 31l2 1v1l1 3l-1 1l1 1v2v2h-6z"/><path id="06103" d="m539 196h1l1 2h2v1v1l5 1l-1-2v-1l1-1v-2h-4v-1v-4l-1 1l-3 2l1 1h-1z"/><path id="06105" d="m520 190v4h1v4h1v5l1 1v-1v-2l2-1v1h1v-1h3h1h2v-1l1-1v-2h3v1h3l1-1h-1l1-2v-1h-1l-2-2l-5-1l-2-2l-2-2v-2h-1v-1l-2-3l1-3l-1-3h-1l-1 2l-1-1v2v3v-2l-1 1v3h1v1l1 6v1l-2 1v1l-1 1l1-2z"/><path id="06106" d="m522 209v1v2l2-4h1l-3 5l1 8v6v-1h4h1h4l1-1l-1-3v-5v-1v-1l7-5v-2l1-1h1l1-2l2-1v1h4l1 1v1v1h1l1-1l1 1l2-2l-1-1l-1-1l-2-2l-2-5l-1 1v1l1 2l-5-1v-1v-1h-2l-1-2l-1 1h-3l-1 1h-2l-1 1v1h-2h-1h-3v1h-1v-1l-2 1v2v1z"/><path id="06107" d="m485 209v1h3v1l1 11l1-1l2-3l3-2l1 3l1 2l1-1v4h1h1l3-4l1-1l4-1h1l3-4v-1v-3l1-1l-1-4l-1-2v-4l-1-1v-2v-1h1v-3v-3l-5-1v1h-1l-1-1h-1l1 1l-2 1l-2 2v1h-3v-1h-1l-1 1h-1v-1h-1l-1 2h-1l-2 1v1h-1l-1 1v2v2v4z"/><path id="06108" d="m548 195v2l2 5l2 2l1 1h1l1-1l1 1l1-1l2-2l-1-2l1-1h5l3-1h1l4-2l7-2h2l6-1l4-1h2l-1-5v-1l-2-13l-21 2h-1h-7h-3l1 5l-1 4l-3 4l-3 2l-3 3z"/><path id="06109" d="m527 226l-1 10l2 9v1l1 5l1 9l-3 1v3h5l2-1h2l3-1v1l3 1h3h1l1-1v-1l1-5l1-1h2l4-2l2-1l8-1h3l6-1l-7-1h-2l-2-1v-2l1-3l4-2l4-1l1-1l1-2l-4-4l-8-1h-1l-4-6l6-1l-6-2l-4-2l-5 1l-3 1l-10 1l-3 1h-4z"/><path id="06110" d="m498 224v6h2l8-1l5-1h1l9-1v-6l-1-8l3-5h-1l-2 4v-2v-1l-6-1h-1l-2 1l-1 1v3v1l-3 4h-1l-4 1l-1 1l-3 4h-1z"/><path id="06111" d="m498 230v1v3l3 17l2 20l1 4v2l1 3l11-2v-2h3h3l4-1h3l-2-11v-3l3-1l-1-9l-1-5v-1l-2-9l1-10h-4v1l-9 1h-1l-5 1l-8 1z"/><path id="06112" d="m521 169v4h2l1 1h1l1 3l-1 3l2 3v1h1v2l2 2l2 2l5 1l1-2l1-1l-1-1l2-5l1-6l1 1v-1l-1-1l-4-1l-2-1v-3v-1h-4z"/><path id="06114" d="m532 216v1v5l1 3l-1 1l3-1l10-1l3-1l5-1l4 2l3-5v-4l-1-4l-2-3l-3-2l-2 2l-1-1l-1 1h-1v-1v-1l-1-1h-4v-1l-2 1l-1 2h-1l-1 1v2l-7 5z"/><path id="06117" d="m479 179l1 23l1 8h3l1-1l2-4v-4v-2v-2l1-1h1v-1l2-1h1l1-2h1v1h1l1-1h1v1h3v-1l2-2l2-1l-1-1h1l1 1h1v-1l5 1h7l2 1l1 1l-1 2l1-1v-1l2-1v-1l-1-6v-1h-1v-3l1-1v2v-3v-2l1 1l1-2l-1-1h-2v-4h-1l-16 1h-1h-11h-4h-1l-7 1v5z"/><path id="06118" d="m554 205h-1l1 1l3 2l2 3l1 4v4l-3 5l6 2h1l2-1l1 1h1v-1l2-1l10-1l3-1l14-2l-4-28h-2l-4 1l-6 1h-2l-7 2l-4 2h-1l-3 1h-5l-1 1l1 2l-2 2l-1 1l-1-1z"/><path id="06119" d="m510 196v2l1 1v4l1 2l1 4l2-1h1l6 1l1-5l-1-1v-5h-1v-4h-1v-4l-2-1h-7v3v3h-1z"/><path id="06120" d="m538 189l-1 2l2 2h1v1h1l-1-1l3-2l1-1v4v1h4l1-2l3-3l3-2l3-4l1-4l-1-5v-5h-1h-4l-2 3h-2v-3l2-1h-1h-1l-12 3v2l4 1l1 1v1l-1-1l-1 6l-2 5l1 1l-1 1z"/><path id="06160" d="m533 198h2l1-1v-1h-3z"/><path id="06226" d="m761 224v2l3 1l1 2v2l1 1l2 1l1 1l1 1l4 4l2 2l3 3l3 3l2 1l11 11l1 1l2-1h1l2-1h1l1-1v-1l-1-1l-5-6v-1h1l2 2l-3-5v-1l2-3v-1l-2-2l-1-1l-2 1h-1l-1-2v-3l-1-1h1l2 1l1-1v-3v-3v-4l-3 4l-2 3l-1-1v-1l-1-2l1-2v-2l-1 1l2-8v-1l-2 3v2v1v1h-1v1h-2l-5 1v2l-14-1h-1h-3h-1z"/><path id="06234" d="m882 186l-2 16l12 2h1l38 9l5 1v-1l-1-2v-1l1-1v-2v-1l-1-1l-1-1v-1v-2l1-1l1-1v-2l1-1l2-2l1-1v-1v-2l1-3h2l5-2l1-1v-1l-1-2v-3l2-1v-1v-3l-7-4v-1l1-1h1h1l-1-2v-1l-2-2h-1l-2 1h-1l-2 1l-1-1l2-1l1-1v-2v-1v-2l1-1v-1l1-2l-2-1l-1-2l-1-2l-1-1l-1-3l-1-1l-1-1l-1-1h-3l-2 1v1l1 2v1l-1 1l2 3l-1 1h-1h-1l-1 1v1h1v1l1 1v1h-1h-4h-19v2v2v2h-8l1 9h-12z"/><path id="06238" d="m674 156v1l1 12l2 7v1l3 21l15 1l13-3l1 1l13 19v1v1l1 1l2 1l1 1h2v-1l1-2l2-2v2h1l1 2v3l2 1l1 1h2l1 1h5l1 1h1v1l1-1l1-1l1 2v1l2-1l2 1l1 1l1 1l1-2l2-1h1h2l2-1l1 1v-1l-3-1v-2v-1h-1l-3-1v-2v-1l-1-1v-1v-1h-1v-1l-1-2l-1-1v-1h-1l1-1l1-1v-1v-2l-1-2l-1-2v-2h1l-1-1v-1v-1l-1-1v-2l-2-2v-2l-2-2v-1v-2l-1-1l-2-3l-3-4h-2l-2-1h-2l-1 1l-2-1l-2-1l2-2l-1-1l-3-2v-2l1-1v-2l-1-1v-2l1-1l1-1l-1-2l1-3l-1-1l1-1h1l1-2l-1-1v-1l1-1h-2h-1h-1l-11 2l-20 3l-10 1l-1 1h-4z"/><path id="06239" d="m934 203v1l1 1l1 1v1v2l-1 1l2 1v3v1l3-1l-1-1h2l4 2l2-6l2-2l2 1v1v2h1l2 1v-3v-2l1-2l2-5l1-2l11-1l-1 1l1 1h2h1l1-1l1 1l1-4l24-4l-1-20l-2 1h-1v-2l-8-5l-1-2l-3 5h-5l-2-10h-1l1-1v-5v-2l-1-3l-3 2l-2-1l-1 1h-1h-2l-1-2h-2l-1 1l-1-1l-1 2l-4 2l-1 1v1h-2l-4 1h-1l-2 1l1 6l-1 2h-1v1v1l1 2h-1h-1l-1 1v1l7 4v3v1l-2 1v3l1 2v1l-1 1l-5 2h-2l-1 3v2v1l-1 1l-2 2l-1 1v2l-1 1l-1 1z"/><path id="06241" d="m929 137v2h1h1l1 1l1 1l1 1l1 1l1 3l1 1l1 2l1 2l2 1l-1 2v1l-1 1v2v1v2l-1 1l-2 1l1 1l2-1h1l2-1h1l2 2v-1h1l1-2l-1-6l2-1h1l4-1h2v-1l1-1l4-2l1-2l1 1l1-1h2l1 2h2h1l1-1l2 1l3-2l1 3v2v5l-1 1h1l2 10h5l3-5l1 2l8 5v2h1l2-1v-2v-1v-22l-2 1l-1-3l-4 2l-1-4l-2 2l-1-1v-1l1-2h3h3h2h1v-4l-1-35l-36 12l-4 1l-7 2l-2 1l-2 1h-1l-2 2l-1 1l-1 2h-1l-1 2v1h-1l-1-1l-2 1l-1 1l-1 2l-1 2v2l-2 2z"/><path id="06250" d="m756 199v1h1l5 1h3l-2-1h-1h-1h-2h-1h-1zm-4 1v2l1 2l1 2v2v1l-1 1l-1 1h1v1l1 1l1 2v1h1v1v1l1 1v1v2l3 1h1h1h3h1l14 1v-2l5-1h2v-1h1v-1v-1v-2l2-3v1l-2 8l1-1l1 1h1h1l1-1v-1l-1-1h-1l-1-2v-1l1-3l1-1l2-1v-1v-2h1v-1l-1-1l1-1l2-1h1l2 1v2h1v1h1l1 1l1-2h1h1v1l1 1l1-1l2-1l1-1l-4-47v-5l1-1l1-1l1-1l1-1h1h-1h-4h-1h-13l-1 1l-2 3v2l1 2h-1l3 15h-1v2l-3 2v1l-2 2l-2-1l-1-2l-1 1v2l1 3h-1l4 10l-1 1l2 2l1 1v1h-1h-1l-1 1l-6 2l-1 3l-1-1l-1 3l-2 2l-6 1h-2l-1 1l-2 1h-1l-1-1l-2-3h-2l1-1l-1-2h-1l-2-5l-1 1h-1z"/><path id="06255" d="m913 24h-1l4 16l2-1h1h1h2l1-1h4l-8 11l6 25l3 1h1l1 1h2l-1-2l3 1l3-2l2 2l2-1l1-1l2 2h2l1-1l1-1v-1h1h2l1-3v-2l1-1v1l4-8l2-4l1-1l5-4l1-2l1-2v-2l1-9l-1-3l-1-3h3h1v-1l-3-10h-10h-2h-4h-3h-6h-14l-3 3h-2l-1 1l-1-1l-2 2v2l2 2v1l-1 1h-1v-1h-1v-2h-1h-1l-2-3z"/><path id="06260" d="m926 93v5v2l2 3l1 1v1l1 1l1 5l1 3l-1 2v1v3l-1 2l1 3l3 1l2-1l1 1h1v-1l1-2h1l1-2l1-1l2-2h1l2-1l2-1l7-2l4-1l36-12v-16v-3l-2 2l-2 2l-1 1l-1 1l-2 2l-1 3l-1-1l1-2l1-3l1-3l1-1l-2-1h-34h-3h-6l-12 1h-3h-1v1l-2-1v2l2 8h-1z"/><path id="06262" d="m910 17l2 7h1l1-1l2 3h1h1v2h1v1h1l1-1v-1l-2-2v-2l2-2l1 1l1-1h2l3-3l-8-1h-1h-6z"/><path id="06266" d="m798 259l-2 1l3 3h1l1 1l1 1l3 3l4 4h1v-5l-1-1l-1-2l-2-3l-2-5l-1-1v-2l-3-3l-2-2h-1v1l5 6l1 1v1l-1 1h-1l-2 1z"/><path id="06268" d="m784 183l1 3l1 2l1 2l1 1l3-2h-2l-2-2v-2l-2-2h-1zm-56-21v2l1 1v2l-1 1v2l3 2l1 1l-2 2l2 1l2 1l1-1h2l2 1h2l3 4l2 3l1 1v2v1l2 2v2l2 2v2l1 1v1v1l1 1h1l1-1l2 5h1l1 2l-1 1h2l2 3l1 1h1l2-1l1-1h2l6-1l2-2l1-3l1 1l1-3l6-2l1-1h1h1v-1l-1-1l-2-2l1-1l-4-10h1l-1-3v-2l1-1l1 2l2 1l2-2v-1l3-2v-2h1l-3-15h1l-1-2v-2l2-3l1-1l-14-1h-27h-14h-1h-6v1l1 1l-1 2h-1l-1 1l1 1l-1 3l1 2l-1 1z"/><path id="06269" d="m757 166l1 3l-1 1l1 2h2l1 1l1-1h1l1 1v-1l2-1l-2-3v-1h1l-2-1l3-2v-1l-2-3v-1h-1l-3 3h-1v1l2 2v-1l2 2h-3h-1l-1-1v1zm-21 4l-1 1l2 2l3 2v-2l2-1l1 1l1-1l2-1l-4-4l-3-2l-2 2l-1 2z"/><path id="06277" d="m925 74l2 9l2 1v-1h1h3l12-1h6h3h34l2 1l-1 1l-1 3l-1 3l-1 2l1 1l1-3l2-2l1-1l1-1l2-2l2-2v-2l-1-50l-1-11h-1h-1h-13h-2l-6-1h-4l3 10v1h-1h-3l1 3l1 3l-1 9v2l-1 2l-1 2l-5 4l-1 1l-2 4l-4 8v-1l-1 1v2l-1 3h-2h-1v1l-1 1l-1 1h-2l-2-2l-1 1l-2 1l-2-2l-3 2l-3-1l1 2h-2l-1-1h-1z"/><path id="06281" d="m852 63l-1 1l1 3v2l1 1l-1 1l1 4h2l2-3h-1v-3l-2-2l2-3v-1zm-13-48v8l1 36l2 1l2-1h1l1-1l3-1h4l1 1l1 1l1 2l1-1l1 2l-1 1l1 1l1-2h2l1 1l1 1l3 1l1 1l1-1v-9h4v2l-4 9h-3l-3 2l-2 2l1 1h-1l-3 4h-3l-1 1l2 1l-1 1v1v3v1l2 1h1l1 4l1 1v1l-3 3h4h3h3h1l22 1l3-1h7h12l3-1h4h6h2h2h1l-2-8v-2l-2-9l-6-25l8-11h-4l-1 1h-2h-1h-1l-2 1l-4-16l-2-7l-12-1h-3h-36l-19-1z"/><path id="06320" d="m825 474v5l4 4l1 3l3 3l1 5l1 4v1l2 4v1l2 4l1 1l-1 2v1v2l-1 1l1 1v-1l2-2l2-1v-3l3-1l3-1l-2-22v-1v-2v-2l-1-5l-2-6l-1-4v-3l-5 2l-1-4h-1h-1l-1 2l-6 7z"/><path id="06330" d="m829 269l4 19l1 4l1 7v1l3 11l15-3l2-1h2l1-1l2 1l3 2l1 1l3 6v-1l2-3v-1l2-2v-1h1l1-3l-1-6l-1-2v-2v-3l4-4v-1v-2v-2l1-1v-1l-1-2l-16-3l2-7v-2v-1l3-12v-3l-2-9v1l-4 1h-5l1 1v1h-5l-1 3l-1 3l-4 7l-1 1l1 2v1v1l1 2l1-1l1 1v2l-1-1h-1l-1-1h-1l-2 2v2v1z"/><path id="06334" d="m774 365v3l14 4l4 1l1-2l2 1h2v-2h1h1l4 1l3 3h2l1 1l4 1l4 1l1 1h3h1v-1l1-2l-1-3l-2-12l-1-4l2-5l1-1v-1l1-1v-9l2-1l1 2l-1-2l-1-1h-1l-1-3l-1-1h1l-1-3l-1-2l-27-9v3v1l2 3l-1 2l-1 1l-1 2l-6 1l-7 21l-1 1l-2 6l-1 3z"/><path id="06335" d="m842 429v3l1 7l-1 3l3 1h2v1h2h1l1 1v1v1l-1 1v2h1h4h15h2l1-4l1-2l1-3l-1-3l2-3l1-2l-1-3l-2-2l-1-1l-2-2l-1-2l1-2v-5v-1l-3-1l-1-1v-2l-1-1v-1l1 1l2-4l-2-1v-1l-1-6l1-1v-1l-3-1h-1l-1-1l-1 2v3l-1 2l-1 2l-1 2h-1l-2 1v2l-2 3l-1 2l-3 3l-2 3l-1 4l-2 1l-1 1l-1 3z"/><path id="06339" d="m863 392l-1 2l1 1h1l3 1v1l-1 1l1 6v1l2 1l-2 4l-1-1v1l1 1v2l1 1l3 1v1v5l-1 2l1 2l2 2l1 1l2 2l1 3l-1 2l-2 3l1 3l-1 3l-1 2l-1 4h8h1l9 1h5h4h1h5h4h2l-1-1l1-1v-2l-1-2l1-2v-1l1-1h1l1-1v-1l1-2v-1l2-3l2-2l2-1l-1-4v-2l1-1v-1v-1h-2v-1v-2l-1-2v-2v-3l1-1l-2-6v-3l-3-11l-26 1l-6 1l-3 1l-5-2l-3 2v-1h-1l-3-1h-1z"/><path id="06340" d="m842 448l-1 4l2 3v2v5v3l1 4l2 6l1 5v2v2v1l2 22l4-2h4l1 3l1 1l1-1h2l2 1v-1l2-3l4 1l3 2v1v1h3l1-3h3l6 7h2h1l1-3l1-5h1l3-1l1 2l1 1l1-4l3-6h1l-3-1l-2-1l-1-3h-1v-2h-1h-1v-1h1l-1-1l-1-1h-1l-1 1v-1l-1-1l-1-1v-3l-1-2v-1l1-4v-3v-2v-3l1-4v-1l-1-5h-5l-2-8h-1h-8h-2h-15h-4h-1v-2l1-1v-1v-1l-1-1h-1h-2v-1h-2l-3-1v2z"/><path id="06351" d="m867 316l1 6v2l2 1l-2 5v1v2v2l1 3v1v1l-1 1v1l2 1l2 1h1l2-1h1h2l2 1h2l1-3l1-3l1-2v-2l1-1l2 1l2 1l1 1h2l2-1l1 1h1l18-1l27 32l20 4l-1-4l3 1h1v-2l1-2l1-2l1-2l2-2l-1-1h-1v-1l-1-2l-2-2h-1h-1l-3 2h-1l-3-23v-4l-1-4v-1l-4-31v-7l-35 4h-1h-2l-6-2l-32-7l1 2v1l-1 1v2v2v1l-4 4v3v2l1 2l1 6l-1 3h-1v1l-2 2v1l-2 3z"/><path id="06353" d="m819 411v1l2 2l3 2h5v-2h-5l-2-2l-3-1l1 1zm-9-7v1v1h1l2 1h-1v-1h1v1h1h1l1 1h-1l2 2l1 1h1l-1-1l-2-2l-1-3h1l-2-1h-1v-2l-1-1l-1 1l1 1l1 2h-2z"/><path id="06354" d="m940 250l-1 2h1h3h1l1-2l2-3l1-2l2-4l5 8l-1 2h8v-2h-1v-2v-2h1l-1-1v-3l1 1l1 3v3l1 1l1 3l-2 3l-1 1l-1 3l1 3v3h1l4-1l-1 8v1l-1 8l2-1l2 1l1-1v2l14 1h2l-1-1v-1h2l3-1l3-1h2v-2v-3l2-2l-1-3l2-1v-1h2v-1l-1-1l-1-2l-1-1l-1-2l-3-1l-1 8l-1-1h-2h-3h-2v-2l-2-4l-7-11h-3h-1l-2-4l5-46l-1-1l-1 1h-1h-2l-1-1l1-1l-11 1l-1 2l-2 5l-1 2v2v3l-2-1h-1v-2v-1l-2-1l-2 2l-2 6l-2 4l1-1v6h-2l1 1v5l-1-1h-1v1v1v1v1l3 3zm-3-40v1h1v-1h-1z"/><path id="06355" d="m881 450l2 8h5l1 5v1l-1 4v3v2v3l-1 4v1l1 2v3l1 1l1 1v1l1-1h1l1 1l1 1h-1v1h1h1v2h1l1 3l2 1l3 1l5 6h4l1-1l2-3l1-1v-1v-1l1-1l-1-2h1l1-2l-1-1l1-2l1 1v-1l-1-1l3 2h3v-2l1-2l-1-2v-2l1-2v-1v-3h-1v-1l1-1l-3-3l-3-3l-4-1h-2l2-3v-3v-2l-1-1v-1h-1v-1h1v-1l5-6l1-1l1-1l-2 1l-4 2l1-1l1-1l2-1l1-2l1-1l1-5h1v-1l-1-4h-2l2-4l-2 1l-2 2l-2 3v1l-1 2v1l-1 1h-1l-1 1v1l-1 2l1 2v2l-1 1l1 1h-2h-4h-5h-1h-4h-5z"/><path id="06357" d="m760 512h1l1 3l1 4l1 1h1l2-2h3l2 3l1-1h1l1-1v4l3 1h4l1 4l2 1h1l1-3v-2l-1-5v-1v-4l1-5v-1l3-3l3-2v-1h2h2l3 1l-1-2l-1-2l1-4v-2l-1-4l-1-1l-3-1v-3v-3v-1h-1v-1l-2-4v-3h-1l-2-2l-1 1l-2 4l-2 2v3h-1v-1h-1l-5 6l-3 3l-5 4l-2 2l-1 5l-1 1l-1 1l1 2l1 3v1l-2 1l-2 1z"/><path id="06360" d="m819 356l1 4l2 12l1 3l-1 2v1l1 1h3l2 1l1-1h1l2 1l1 1l1-2h2l1 1l-1 1l3 1l1 3l3-2l5 2l2 1l1 1h3v-2v-3l2-13l5 4l4-4l6-10h-2l-2-2l1-4l-2-1h-1l1-3l1-1l1-2v-4h-2v2v1h-1v-1v-2l-1-2l-2-1h-1h-1l-2-2h-1h1l1-1v-4v-1l1 1l3-2l1-3v3l2-1v1h1l-1 1h1h1v-1l2-5l-2-1v-2l-1-6l-3-6l-1-1l-3-2l-2-1l-1 1h-2l-2 1l-15 3l-8 19l-3 6v1v1v1l2 2l-2-1v-1l-1 1l-1-2l-2 1v9l-1 1v1l-1 1z"/><path id="06365" d="m850 386v2l1 3l2 2l1 3l-1 2l1 1l1 2v3v2l2-1h1l1-2l1-2l1-2v-3l1-2l1-2l3-1h1l3 1h1v1l3-2l5 2l3-1l6-1l26-1l-2-10l-4-19l34 6l-27-32l-18 1h-1l-1-1l-2 1h-2l-1-1l-2-1l-2-1l-1 1v2l-1 2l-1 3l-1 3h-2l-2-1h-2h-1l-2 1h-1l-2-1l-2-1v4l-1 2l-1 1l-1 3h1l2 1l-1 4l2 2h2l-6 10l-4 4l-5-4l-2 13v3v2h-3z"/><path id="06374" d="m909 233l1 3l-1 1l2 2v4v1v2l1 2v1l1-1l1 1l1 2v1l-1 3v2l1 2v1h3l-3 26v2h1l35-4l5-1l9-2l1-8v-1l1-8l-4 1h-1v-3l-1-3l1-3l1-1l2-3l-1-3l-1-1v-3l-1-3l-1-1v3l1 1h-1v2v2h1v2h-8l1-2l-5-8l-2 4l-1 2l-2 3l-1 2h-1h-3h-1l1-2l4-14l-3-3v-1v-1v-1v-1l-1-1l-1-1v-1v-1l1-1l1-3l1-1v-1l-2-5l-1 2h-3v-6l-1 1l1 2v1l-1 2l-2 2l-1 1h-1h-2h-2l-1 2l-1 2l-4 1l-1 1v2h-1l-2-2h-1h-2l-1 1v3l-2 3z"/><path id="06375" d="m804 440v3l1-1v1l1 2l1 1v2l2 1v2l-3 2l1 1h1h2h1h2h3l-1-1l2-4l2-1h1l1-1l-1-2l1-1h3l-3 4l1 2l1 3l2 2v3l1 2l1 4l1 2h-2l1 2h1v1l6-7l1-2h1h1l1 4l5-2v-5v-2l-2-3l1-4v-4v-2l1-3l-1-7l-6-1l-1 1h-1h-1l-4 1l-5 1v-1v-1l-3-2l1 2v1l1 1l-7 1v-1v-1v-1l-1 3l-9 2h-2l1 2z"/><path id="06378" d="m912 456v1h1v1l1 1v2v3l-2 3h2l4 1l3 3l3 3l-1 1v1h1v3v1l-1 2v2l1 2l-1 2v2h-3l-3-2l1 1v1l-1-1l-1 2l1 1l-1 2h-1l1 2l-1 1v1v1l3-4v-1l1-2h5v1l2 2v1h3l3 3l8 1h1l3-5l3 1l3-3l2 1v-10h-1h-1h-1h-1v-1v1h1v-1h1v-1v-4v-3h3l1-1v-11h1l1-2v-2l2-2v-1l-2-1v-1l1-2l-1-2v-2l-1-2v-3l2-2l-1-2l-35-12v2v1l-2 4h2l1 4v1h-1l-1 5l-1 1l-1 2l-2 1l-1 1l-1 1l4-2l2-1l-1 1l-1 1l-5 6v1z"/><path id="06379" d="m948 483v1h1h1h1h1v10h3l4 5l5 4l-1 2l2-1l3-2l2-4l2-1l4-3l3-4v-1v-3l-1-3l-2-1v-1l-1-2v-2v-4l3-2v-1v-4l1-2l-2-2l1-3l-2-2l-1-1l-2-3v-1v-2v-2l-1-1v-1v-2h-1l-2-1l-4-1l-6-2l-3-1l1 2l-2 2v3l1 2v2l1 2l-1 2v1l2 1v1l-2 2v2l-1 2h-1v11l-1 1h-3v3v4v1h-1v1h-1z"/><path id="06380" d="m858 337h-1h1l2 2h1h1l2 1l1 2v2v1h1v-1v-2h2v-1l1-1v-1v-1l-1-3v-2v-2h-1h-1l1-1h-1v-1l-2 1v-3l-1 3l-3 2l-1-1v1v4z"/><path id="06382" d="m805 409v16h1l1-1l2 1l1 1v1l2 1l1 2l2 1l1 1v1v1v1l7-1l-1-1v-1l-1-2l3 2v1v1l5-1l4-1h1h1l1-1l6 1v-3v-1l1-3l1-1l2-1l1-4l2-3l3-3l1-2l2-3v-2v-2v-3l-1-2l-1-1l1-2l-1-3l-2-2l-1-3v-2l-2-1l-5-2l-3 2l-1-3l-3-1l1-1l-1-1h-2l-1 2l-1-1l-2-1h-1l-1 1l-2-1h-3l-1-1h-1h-3v1l-2 2l-2-1l-3 1l2 2h2l-1 2l1 1h2l2 1l-1 3l-1 3h-1v2h2l2 1l-1 1v1l1 1h-3l2 4l2-2l-1 2l2 3l-1 2l-1 1l-1 2l3 1l2 2h5v2h-5l-3-2l-2-2v-1h-1l-1-1l-2-2h1l-1-1h-1h-1v-1h-1v1h1l-2-1h-1l-1 1l-2 1v1z"/><path id="06385" d="m778 441l1 2l13 23v1l1 1l-1 2v1v1l2 6v2v1v3v3l3 1l1 1l1 4v2l-1 4l1 2l1 2l-3-1h-2h-2h3l4 1l1 3h1v4v2l2 1l1 1l1 1l1 1l1-2v-3l3-2l3 2l1 1l2 4l3 2l2 1l5-1l1-1l6 2l2-3h3l-1-1l1-1v-2v-1l1-2l-1-1l-2-4v-1l-2-4v-1l-1-4l-1-5l-3-3l-1-3l-4-4v-5l3-5v-1h-1l-1-2h2l-1-2l-1-4l-1-2v-3l-2-2l-1-3l-1-2l3-4h-3l-1 1l1 2l-1 1h-1l-2 1l-2 4l1 1h-3h-2h-1h-2h-1l-1-1l3-2v-2l-2-1v-2l-1-1l-1-2v-1l-1 1v-3l1-1l-1-2l-5 1l-11 2h-2z"/><path id="06387" d="m937 211v1h1l1 1l1-2h-2zm-2-1v1l1-1v6h3l1-2l-3 1v-1v-3z"/><path id="06389" d="m822 333h-1l1 1l1 3h1l1 1l1 2l1-1v1l2 1l-2-2v-1v-1h-1z"/><path id="06401" d="m324 481l-1 1l2 5l1 2v2h2l1 2l1 1l2 2l2 1l2 1v1l2 1h2h1l1 1l3 1h2l2-1h4l2-1v-1v-3l-2-4v-3l-1-2v-4l-1-6h-1h-11l-3-1l-2-1h-3l-3 2h-1l-1 1z"/><path id="06405" d="m499 558v1v-1l2-1l1-1l3-1l2-2v-1l1-1h1l1-2l-1-1l-3 1h-4h-1l-1 1l-1 4zm-2-12v1h1h1l-1-1zm-51-8v1v1l1 1v1h2l1 1h1l1 1v3l-1 2l-2 2l-1 5l3-2l1-1l1-2v-2l1-1h1h2l1 4v1h2v1l2-4l1-3l1-3l1-1l2 2v4l2 1v3v1l3-1h1l2-3l4-3h4l2-3l1-1h1l3-1l3 2l6-2l2-1h1l1 1l1 2v2v1l1-1l4-2l1 1h1l1-1h2v-2l2-2l-4-11l-1-1l-2-8l-3-7v-2l-9 3l-4 1l-2-4l-1 1v-2l-1-1l-2-1l-3 1l-1-3l-2-1h-1h-1h-1l-1 1l-2 1h-2l-2 1l-1 1l-1-1l-1-1h-2h-1l-4 2l-2 1v2l-1 7l-1 1l-1 1l-4 2l-2 2l-2 2v2l-1 1l1 1v2l-2 4z"/><path id="06409" d="m666 477l3 4v1l-1 2l1 1h3h1h1l-2 2v1l2 1l1 4h1l2-2l3-5v-1h1l1-1v-1l-1-1h-1l-1-1l-3-1l-4-4l-2-1zm-2 8v1h1h1z"/><path id="06410" d="m392 359l-1 1l1 1l4 2l5 2l1 1h1l6 10v4l-1 3h-1l-1 1v3l-1 2v3l-1 3l-1 1l-1 4h-1v2v1l-1 2h1l1 1h4l3 1l4 1l5 1l6 3l2 1h1l2 1l4 3h1l1-2l1-1l2-4l1-1v-1l2-4l1-2l3-6v-1l-3-2l1-1l-2-1l1-1l2-3l1-1h2l1-1l2-1l1 1l3-4l1-2l-1-5l-1-3l-1-1l-1-4v-2l-2-1v-1h-1v-1l1-4l2 1l1-5v-4h-1l-7-2l-1-2v-2h-1v-1h-1v-2l-3-2v-1h-3l-16 2h-1l-5 1h-1l-9 2h-3l-1 1h-1l-3 7l-2 6v1z"/><path id="06412" d="m618 433l-5 2l8 31h1h3l3-1l6-1l23-2l-3-3l3-2l4-1l2-1l2-3l1-1v-2h2h1h3v-1v-4v-2l-1-2l-2-3v-1l-1-3l-2-2l-1-1l-3-2l-3-1h-2h-1l-24 4h-1l-10 2z"/><path id="06413" d="m589 512v2h2v1h1l-1 1h1h1l1 1v1l2 2l1 1v1h2l1 2v2l2 1l1 2l1 1v1l1 1h2l1-1l2 1l-1 2l1 1v1v1l-1 1v2l1 1l-1 2v1l1 2l5 3v-1l1-3v-1l2-1h2l1-1h1l1 1l1 4h2l2 1h2v-2l1-1l3-3l4-2l3-1l-4-12v-1l-1-2v-2l-2-7v-1v-1l-7-23l-7 2l-3 1l-9 6v1l-1 1l-4 2l-8 5l-4 3z"/><path id="06415" d="m651 323l3 8l3 6l1 4l2 3l1 2v1l1 2l2 3l5 12l7-1h2l10-1l6-1l-1 1v7l1 1l1-1h3h2h2l4 7l1-1h2h1l1 2v1l1 2l1 2v1l1-1v1l4 2h2l1-1l1-1h2l3-1l-2-10v-4h4l44-12l5-2l-4-5l-10-10l-1-1l-7-8l-13-14l-3-3l-8-9l-2 1l-6-6v1l-2 8l-8 4l-4 1l-2 1l-2-1l-1-2h-1l-1 1h-1h-2l-2-1l-1 1v2v1h-2l-1 1v1l-1 1v2l-1-1l-3-1l-3-2h-1l-1-1l-2-3l-1-1h-1l-3 5l-1 2l-1 1z"/><path id="06417" d="m622 466h-1l5 21l7-1h1l11 9h3l1-8l11-6l1-1l5-3l5-2l1-1l6-6l8-3h2l6-3l-1-2l-1-1l-4-1h-4h-2l-3-1h-2l-3-1l-1-1l-1-2l-1-2l1-2h-3h-1h-2v2l-1 1l-2 3l-2 1l-4 1l-3 2l3 3l-23 2l-6 1l-3 1z"/><path id="06418" d="m311 487l1 2v1l1 2l3 4v1l10 6l1 1l2 1l2 3v1h2l2 1v3l2 2l3 3l1-2l1-2l2-2l1-2h1l2 1h2l4-2l1-3v-6l-2 1h-4l-2 1h-2l-3-1l-1-1h-1h-2l-2-1v-1l-2-1l-2-1l-2-2l-1-1l-1-2h-2v-2l-1-2l-2-5l-9 4z"/><path id="06422" d="m506 434h1l4-1l4-1l5-1l5-1l1-1h1l8-2h1l3-1h2l4-1h2l7-1l5-1l3-1h6l2-1h4l3-1l-5-6l-2-2l-4-3l-3-3l4-15v-2l-2-7l-1-1l-10 1l-9 2h-3v-1l-1 2l-6 1l-14 3l-2 1l-5 1h-1l-3 32l-1 2z"/><path id="06424" d="m603 335v1h1l2 2h1h1v1l-1 4v1l4-1v2h-1h-2l2 4v1v2l1 3l1 2l2 3v1h-1l-3 1l-2 1v1h-2v5v4h-1l1 2l1 3l1 1l1 1l3 1l4 1l2 1l3 1h1l-1 1l1 1l1 2h1l3 1l4 4l2 2v1l5 2l3 2l3 2l2 1l4 4v-3l-1-2l-1-2l-3-2v-3v-3v-3l-1-1h-2l-1-1l-1-1v-5v-2l1-2l1-2l1-2v-2l-1-1v-2h2v-2l2-2l3-4l1-1l1-1h1l1-2l1-2v-1l1 1v2l1 4h1l2 5l10-1l-5-12l-2-3l-1-2v-1l-1-2l-2-3l-1-4l-3-6l-3-8l-3-6l-5-10v-1l-12-25v-1l-9 1l-5 1h-1h-5l6 15l1 3l-8 1l2 7v3l-1 3l-2 3l-1 3l-1 1l-1 4l-2 2v3l1-1l2-1l1-1l-1 1l-1 1v1l1 1v1l1 2h-3l-1-1v-1l-1-1v3z"/><path id="06426" d="m667 495v3l2 2l1 1v1h2l2-1l6-2l1-1l3-1l6-1h3l2-1l2-1l1-1l3-4h-2l-2-2l-1-3v-1l1-6v-3v-3l1-2v-2l-1-1l-2-3l-1-1l-6 3h-2l-8 3l-6 6l-1 1l2 1l4 4l3 1l1 1h1l1 1v1l-1 1h-1v1l-3 5l-2 2l-2 3l-2-1l-1-2h-2v1z"/><path id="06437" d="m505 451l1 11l1 7v3l1 14v2l1 7v7l-1 2l-2 7v2l3 7l2 8l1 1l4 11l-2 2v2h-2l-1 1h1l-1 3h1l1 1v1l3-2l2-1l2-1l1-2l2 1l-1 2l-2 1l1 1l6-3l2 3l-5 3l-1 1v1l1 1l1 2h1l2-1h5h1l1-1l3-3v-5l4 3v-3l-1-2l2-3l1-1l2 1l1-1l1-2l2 1l2 2h2l-1-3h1v-1v-1v-1h1h1l1-1l-1-3h1l1-1l1 1v-1l-1-1l-1-2l1-1l-1-1l1-1v1l1-2l2-2l4-3l-1-3l1-2v-2l-2-3v-1l-1-2h-1l-1-2v-1h-2l1-1l-2-1l-1-1v-1l-3-2l-1 1l-2-2l-1-2h-1l-1-2v-1l-2-3l-2-3v-2v-1l-1-3l-1-2v-8v-5v-8v-30h-2l-3 1h-1l-8 2h-1l-1 1l-5 1l-1 2v1l-1 3l-2 1l-2 2l-1 1l-4 6l-1 1l-1 2v2z"/><path id="06438" d="m609 385l1 6h1l1-2h1v1v3v3h1l-1 2v1v2l1 1v1v2h-1l2 2l5 4l1 2l1 2l-1 1l-1 2l1 2v4l-1 1v2v1l-1 1l-1 1h-1h-1l2 2l1-1l-1 2h3l10-2h1l24-4h1h2l-2-2l-1-1v-1l-4-8v-1l-2-7l-4-4l-2-1l-3-2l-3-2l-5-2v-1l-2-2l-4-4l-3-1h-1l-1-2l-1-1l1-1h-1l-3-1l-1 1l-5-2h-1v1v1z"/><path id="06441" d="m563 406l3 3l4 3l2 2l5 6l1 1l19 19l2-1l6-2h3l5-2l5-2l1-2l-1 1l-2-2h1h1l1-1l1-1v-1v-2l1-1v-4l-1-2l1-2l1-1l-1-2l-1-2l-5-4l-2-2h1v-2v-1l-1-1v-2v-1l1-2h-1v-3v-3v-1h-1l-1 2h-1l-1-6l2-1v-1v-1h1l5 2l1-1l-2-1l-4-1l-3-1l-1-1l-1-1l-1-3l-1-2h-1l-3 1l-10 2h-1h-1h-1l-1 1l-23 4l1 1l2 7v2z"/><path id="06443" d="m541 456v8v5v8l1 2l1 3v1v2l2 3l2 3v1l1 2h1l1 2l2 2l1-1l3 2v1l1 1l2 1l-1 1h2v1l1 2h1l1 2v1l2 3v2l-1 2l1 3l-4 3l-2 2l-1 2v-1l-1 1l1 1l-1 1l1 2l1 1v1l-1-1l-1 1h-1l1 3l-1 1h-1h-1v1v1v1h-1l1 3l6-1l6-1l7-2h3l2 1h2h1l2 1l4-1l2-1h1l7 2v1l12 11l2 2l3-2l1-3l-5-3l-1-2v-1l1-2l-1-1v-2l1-1v-1v-1l-1-1l1-2l-2-1l-1 1h-2l-1-1v-1l-1-1l-1-2l-2-1v-2l-1-2h-2v-1l-1-1l-2-2v-1l-1-1h-1h-1l1-1h-1v-1h-2v-2v-1h-1v-1h1h1v-1h-1l-2-1l1-1l1-1v-3v-1h-1l-1 1l-1-1l-1-1l-1-2h-1l-1 1v1h-1l-2-2h-1l-2 1v-2h-2v-3l1-1l-1-1l1-3v-1h1v-3l-1-2l1-1l-1-2v-2l1-4h1v-1v-2h1l-1-2v-2l-2-3v-2v-3v-1l-1-2l-1-2l-3-1l-2-2l1-2h-1l-1-1l-1-2v-2l-1-1v-3h-2h-1l-2-1l-1-1h-1l-1-1l-1-1l1-2l2-3l1-2l-1-1l-1-1h-2l1-2l-1-1l-1 1l-1-1v-1l-7 1h-2l-4 1z"/><path id="06447" d="m631 280v1l12 25v1l5 10l3 6l24-4l1-1l1-2l3-5v-1v-4v-8v-2l1-1v-1l-1-3l-1-2l-1-1v-2l-1-1v-1l-3-5l-3-8l-1-2l-1-1l-3-2l-6-4l-2-10v-1h-4l-5 1l-4 1l-3 3l2 5l1 4h-2l-2 1l-6 3l-2 5z"/><path id="06450" d="m471 372v3l3 1h2l3 1l2 1l1 1l6 2h1l2 1l2 1l2 1h4l5-1l2-1h1v-7l-1-3v-10v-1l-1-11v-1l-1-9v-4l-1-9h-3l-5 1l-6 1l-5 10l-1 2v2v3l-1 3l-1 1l-2 3l-2 3l-1 3l-1 4l-1 1l-1 2l-1 3z"/><path id="06451" d="m448 361v1h1v1l2 1v2l1 4l6 1l1 1l4 2l1-1l3 1l4 1v-3l1-3l1-3l1-2l1-1l1-4l1-3l2-3l2-3l1-1l1-3v-3v-2l1-2l5-10l-11 2l-2 4l-2 3h-1l-4 5l-1 1l-2-1l-1-1v-3v-2l-2 1l1-6l-6 1l-4 1l1 10v3l-1 3l-3-1h1v4l-1 5l-2-1z"/><path id="06457" d="m503 317v4v6l1 9v4l1 9v1l3 1l4-1l1-1l6-1l5-1v1l6-1h3l3 7v1l1 1v1l2 2l1 6v4v1v1l1 4l1 8v1h3l9-2l10-1l23-4l1-1h1h1h1l10-2l3-1h1v-2l-1-3l1-4l1-4v-1l1-2v-2v-4v-1l-1-2l-1-2l-3-2l-2-1l-4-1l-4-1h-4h-2h-2l-4-2l-2-1h-1l-5 1h-2h-1h-2h-5l-3-1l-1-2l-1-2v-5l-2 2h-1l-1-1v-2v-1l-1-1l-1 1l-1-1l-2-2l-1-1v-2h1l-1-2v-1h-1l-2-2l1-2l-1-2h-1l-1 1l-1 1h-1v-2l-2-1h-2h-2l-2 1l-2-2h-2h-1h-1v-1l-2 1l-1-1l-5 1l-2 1h-1l-1 4l-4 1h-2z"/><path id="06460" d="m312 599v2l1 1l1 2l2 1l4 4v-1l1-2l1-1h1l2-3l5-6l3-4l5-3l3-1l3-5l3-2l3-1h1l1 1l4 5v-1l1-2l3-1h3h2v2h3l3-4l2-8l1-1l3 1l3-1l2-5v-2v-1h-3v-2l1-1l-1-1h-1l1-2l1-1h-2l-3-1l-6-2h-3l-4-2v2l-1 1h-1l1 2l-4 4l-3 3l-2 2l-5-1v1h-2l-1-1h-1l-1 1l-2-1l-1 1l2 2l-1 1l-1 1h-2v2h1l-1 1h1l-2 5l-4 2l-10 3h1h4v2l-5 2h-1v1h-1h-2l-2 5l-2 2l-1 1v1z"/><path id="06461" d="m319 577l-1 5l1 2l-1 3h2h1v-1h1l5-2v-2h-4h-1l10-3l4-2l2-5h-1l1-1h-1v-2h2l1-1l1-1l-2-2l1-1l2 1l1-1h1l1 1h2v-1l5 1l2-2l3-3l4-4l-1-2h1l1-1v-2h-2l-3-1l-4-2l-4-2l-11-7l-3-2l-4-2l-1 3v4v4l1 4l-1 2l-2 3l-1 1l-4 4l-2 2l-1 3l-1 2l-1 1v2l2 5z"/><path id="06469" d="m640 379v2v5l1 1l1 1h2l1 1v3v3l2-1h1v1h2v-1v-1l1-1v-2h10v3v1h1v-1h1l1-1h1v-2l3-1l1-2h-1l2-3l2-3l1-1v-1l-1-4l2 1l3-2v2h1l3-1v-1h1l2-2l5-3l1-1v-1v-1v-2l-2-2l-10 1h-2l-7 1l-10 1l-2-5h-1l-1-4v-2l-1-1v1l-1 2l-1 2h-1l-1 1l-1 1l-3 4l-2 2v2h-2v2l1 1v2l-1 2l-1 2z"/><path id="06470" d="m187 424l-7 12l12 36l4 12l7 22l5-3l10-7l2-1l2-2l13-9l6-3l2-2l1-4v-1h1h1l1-2h-2h-1h-2v-1v-3v-2h-3l-1-2l1-3v-4h-2v-3h1v-1v-1v-2l-1-2l1-1l-1-1l-1-1h-1l-1 1h-2l-1-2l-2 1l-1-2v-1l2-1v-2l-4-1l-2-1l-6-5l-5-3l1 1v-2l2 1l1-1l-1-1v-3l-1-2h-1v1v-3l2 1l3-1v-1h-1v-1l1-1l3-1l-1-2l-1-3l1-1v-2l1-3v-2l-1-2h-1h-1h-1l-3 1l-1 1l-7-1l-3-2v1l-2 2v1l-2 2l-3 5l-3 4l-2 2z"/><path id="06473" d="m424 470l-1 3l3 1h1l3 1l4 1l2 1v1l-1 1v2l1 1h3l1 1l1 2l-1 1h-1h-1l-1 1l1 1l-1 1l-1-1l-2 2l-1 1v4v1l5-1h1h4l2-1l3-1l16-4v1h3l2 1l1-14v-2v-5v-20l-6 2l1-16v-3h-3h-1v-1l-2-1l-1 1h-2l-1-1h-1v1v-1l-1-1l-1-2l1-2h-1l-1 3h-2l-2 3l-1-1h-2l-1 1h-1h-2l-1 1l-3 1v2l-1 6h-1v1v1v1v1v3v3v2h-2l-1 3v2l-2 2l-2 2l-2 2z"/><path id="06475" d="m668 508v1l6 21l2 3l5 1h1h2l2-1l6 12l4-2h4h2l4-2v-1l6-1l3 1l-1-2l-1-3l-2-6l-3-3l-1-2l1-5l3-9v1l1-5v-3l-1-1l-1-2l-1-2l-2-4l-3-2l-1-2l-2-1l-3 4l-1 1l-2 1l-2 1h-3l-6 1l-3 1l-1 1l-6 2l-2 1l-1 1l-2 4z"/><path id="06477" d="m332 531l-1 4l4 2l3 2l11 7l4 2l4 2l3 1h2l4 2h3l6 2l3 1h2v-2h-1l1-2h-1l1-11v-1l6-7l-2-2l-1 1l-1-1l1-3l-1-1l1-2l1-8l-3-8h-5l-1 1l-4 1h-2h-1h-3l-4-1l-3-1h-4l-4 2h-2l-2-1h-1l-1 2l-2 2l-1 2l-1 2l1 1l1 1v2l-2 4l-1 1l-4 2z"/><path id="06480" d="m557 329v5l1 2l1 2l3 1h5h2h1h2l5-1h1l2 1l4 2h2h2h4l4 1l4 1l2 1l-1-2v-1v-1l1-1l1-1v-2v-1v-1v-3l1-1v-3l2-2l1-4l1-1l1-3l2-3l1-3v-3l-2-7l8-1l-1-3l-6-15l-8 2l-15 2l-9 1l-13 2v4l3 6l3 3l1 2v3l-1 2l-2 1l-3 2l-4 3l-1 1l-1 3l-2 4l-1 1l-1 3z"/><path id="06484" d="m270 519l2 3l1 1l5 7l1 1l1 2l3 3v1l3 3h9l5 9l1-1l19-8l1 1l-1 2h2v2v1h3l1 1l1 2l2-1l1 1l1 1l-1-4v-4v-4l1-3l1-4l3-2l4-2l1-1l2-4v-2l-1-1l-1-1l-3-3l-2-2v-3l-2-1h-2v-1l-2-3l-2-1l-1-1l-10-6v-1l-3-4l-1-2v-1l-1-2l-1-1l-5-3l-1-2l-1-5l-4-4l-1-2l-4-4l-1 1v1l-6 11l-3 14l-1 2l-1 1l-2 4l-2 4l-2 3l-1 3z"/><path id="06488" d="m207 391v1l2 2l1 3l4 5h1l3-1h1h1h1l1 2v2l-1 3v2l-1 1l1 3l1 2v1h1h2l2-2l4-1h1h2l2 3l1 3l1 4l1 2h1l2 1l1-1l3-2l2-1h1l1 2v4l2 3h2l3-2l2-1h3l1 1l3 4l2 2l5-4l5-4l1-1l1-1l4-3l7-6v-1l-1-2v-1v-2v-1h2l1-3h1v-2v-1l-1-1l1-1l-1-1l1-1v-1v-1v-1h1v-5l-1-4l1-2l-1-3h-1l1-5l1-1l-1-2l1-2v-2v-1v1h-1l-6 1h-1l-2 1h-3l-12 2h-1h-1l-15-3h-1h-2h-1h-3l-1 1h-1l-27 4h-6l-1 1v3l-1 1l-1 2l-1 2l1 2z"/><path id="06492" d="m435 415l-1 2l5 2l3 2l8 4l2 1h1l-1 2l1 2l1 1v1v-1h1l1 1h2l1-1l2 1v1h1h3v3l-1 16l6-2l9-4l4-1l3-2l2-1l1-1h2l15-7l3-9l1-2l3-32l-5 2l-1-11h-1l-2 1l-5 1h-4l-2-1l-2-1l-2-1h-1l-6-2l-1-1l-2-1l-3-1h-2l-3-1l-4-1l-3-1l-1 1l-4-2l-1-1l-6-1l1 1l1 3l1 5l-1 2l-3 4l-1-1l-2 1l-1 1h-2l-1 1l-2 3l-1 1l2 1l-1 1l3 2v1l-3 6l-1 2l-2 4v1l-1 1l-2 4z"/><path id="06498" d="m626 487l1 3l7 23v1v1l2 7v2l1 2v1l4 12v-1l7 1l2 1l3-4l5-3h4h3l1 1l3 1l3 1h2l2-3l-2-3l-6-21v-1l1-1l2-4l1-1h-2v-1l-1-1l-2-2v-1l-9-1h-3h-1h-1h-1l-1-1h-2h-1h-3l-11-9h-1z"/><path id="06510" d="m411 513l-1 1h2l-1 2l-1 1l2-1v1h3l1-2h-1v-2l1 1l1-1l-1-1l-1-1l1-1l1 1l1-2h-2l-2 3h1v1l-1-1l-1 2zm-3 2v1h1v-1z"/><path id="06511" d="m397 501l1 10l-1 3l1 1v1v1l2 2l1 1h1l-2-5v-1h2h1h4l2 1l2 1l1-2h-2l1-1l2 1l1-2l1 1v-1h-1l2-3h2l-1 2l-1-1l-1 1l1 1l1 1l-1 1l-1-1v2h1l-1 2h-3l2 1h1v1l-2 2l-2 2v1l1 4l-1 1h2l1-1l4-7h1l2-2l1-1h1l1 2l1-1l-1-4l-1-1v-4v-1h2v-1l5-4l1-1l1-2v-1l-1-1h-3v1l1 2v1l-1-1v-1l-1-2l-1 1l-6-5l-9-1h-2h-3h1v2l-1 2l-1 1l-1-1h-2v1v1l-1 2l-2 1l-1-1z"/><path id="06512" d="m448 505v1l1 1v-2zm-25 17l1 2v6l1 4v1l-1 3v1l4 3l1 1l1 3v2l-2 1h-1v1l-1 1l-1 2v1l1 1h1l1 1l1 1h1h1l4 1h2l5-1l4-1h1h1l1-5l2-2l1-2v-3l-1-1h-1l-1-1h-2v-1l-1-1v-1v-1v-1l2-4v-2l-1-1l1-1v-2l2-2l2-2l4-2l1-1l1-1l1-7v-2l2-1l4-2l1-1l1-3l-1-1l-2 1l-1-1l-2 1l1-2l-2 1h-5l-2 1h-3h-1v2v3l-1 3l1 2v1h-1l-2 1h-1l-2-1l-1 1l-1-1l-2 2v2l-2 2l-1 3l-1 3l-2-1v1l-2-1l-1-3v1l-1-1l-1 1l1-2h-1l-1 1l-1-1v-1l-1-1l-1 1z"/><path id="06513" d="m423 510v4l1 1l1 4l1 1v1l1 1l1-1h1l-1 2l1-1l1 1v-1l1 3l2 1v-1l2 1l1-3l1-3l2-2v-2l2-2l1 1l1-1l2 1h1l2-1h1v-1l-1-2l1-3v-3v-2h1h3l2-1h5l2-1l-1 2l2-1l1 1l2-1l1 1l2-9v-3l-2-1h-3v-1l-16 4l-3 1l-2 1h-4h-1l-5 1l-2 2v1l1 1v1l-1 2l-1 1l-5 4v1h-2v1z"/><path id="06515" d="m377 503l-1 6h5l9 1l4 1h3h1l-1-10l1 1l1 1l2-1l1-2v-1v-1h2l1 1l1-1l1-2v-2h-1h-1l-6-1l-1-2l1-2l1-1h1v-2h-2l1-1l-1-1h-2v1h-2v2h-1v1l-1-1l-1-1h-3l2 3l-2 1l-2 1l-3 2l-1 3l-2 2v1l-3 2l-1 1z"/><path id="06516" d="m379 557l-1 2h1l1 1l-1 1v2h3l1-1l2 1l2 1h1l2-2l2-5l2-3l1-3h3l1-1l1-1l7-2l1-1l3-2v-1v-1l1-1h-1v-1l-2-2v-1h-1v-3h-1v-2l-1-4v-1l-1-1l-2-3l-1 1l-2-2l1-1v-1l-1-1l-2-2v-1v-1l-1-1l1-3h-1h-3l-4-1l-9-1l3 8l-1 8l-1 2l1 1l-1 3l1 1l1-1l2 2l-6 7v1l-1 11h1l-1 2h1v2z"/><path id="06517" d="m419 470h1l1-2h1v-1l-1-1h-1l-1 2zm-10 24h2l9 1l6 5l1-1l1 2v1l1 1v-1l-1-2v-1h3v-1l2-2v-1v-4l1-1l2-2l1 1l1-1l-1-1l1-1h1h1l1-1l-1-2l-1-1h-3l-1-1v-2l1-1v-1l-2-1l-4-1l-3-1h-1l-3-1l1-3l-1-1l1-1l-1-2l2-1l2-2l2-2l-6 5l-2 2l-3 5l-1 1l1 1l1 1v1l-1 1l1 1h-2l-1 1l1 1l-1 2l-2-1h-1l-3 6z"/><path id="06519" d="m400 514v1l2 5h-1v1l-1 1l2 2l1-1l2 3l1 1v1l1 4l1-1h2v1h2l3-4l1-2l4-5h3v1l1-2l-1-2h-1l-1 1l-2 2h-1l-4 7l-1 1h-2l1-1l-1-4v-1l2-2l2-2v-1h-1l-2-1v-1l-2 1l1-1l-2-1v1h-1v-1h1l-2-1h-4h-1z"/><path id="06604" d="m263 626v1h1v-1l1-1h-1zm-2-41h-1l2 4v5v1l1 4l-1 1v1l-2 2h2l1-1l1 1h1l1 1l1-2l2-2h1v1l1 1v-1l2 3h-1v2h1h1l1 1l-2 1h1l-2 1l1 1l-4 4l-3 2l-2 3h-1l1 1v2l3-3v-1l2-1l2-1l7-1h1l1-1v-2v-1l3-1h1h1l-1-2l-2-1l-2-2v-2l-1-2l1-2l-1-1h-1v-4v-1l1-2l-2-2l-1 2v-1v1h-1v1h-1l-1 2l-1-1l-1 1h1l-1 1l-1 2l-2-2v-2l-2 1l2-1h-1l-1 1l-3-4l1-1h-1h1v-2l-2 1v-2zm-6-7l2 2v1l1 1l1-1l-2-2v-1h-1v-1zm-4-8h-1l1 1v1l1 1l1 1l1-1h-1l1-1v-1h-1v-1z"/><path id="06605" d="m253 618l1 2h1v3l-1 2l4 1l3-3l-1-2l1-1l1-1h1h1l2-3l3-2l4-4l-1-1l2-1h-1l2-1l-1-1h-1h-1v-2h1l-2-3v1l-1-1v-1h-1l-2 2l-1 2l-1-1h-1l-1-1l-1 1h-2v2h-1v1l-1 1v1h2h1l-1 2l-3 1l-1 2l1 1l-2 2z"/><path id="06606" d="m250 569v1h1h2v1h1v1l-1 1h1l-1 1l2 4l1-1v1h1v1l2 2l-1 1l2 3h1l1 1v2l2-1v2h-1h1l-1 1l3 4l1-1h1l-2 1l2-1v2l2 2l1-2l1-1h-1l1-1l1 1l1-2h1v-1h1v-1v1l1-2l2 2v-1v-3l-1-1v-1l1-2v-2l2-3l2-3v-3h-1l-1 1h-2l-2-2v-1l-1-1l-2-1h-2v-1h-2l-1 1h-1h-2h-6h-7z"/><path id="06607" d="m282 607l2 1l1 2l2 1v4l3 2l1-1v-1l2-8l1-1v-1l1-3l1-3v-1v-1h-7v-1h-2v1l-3 6z"/><path id="06608" d="m278 593v1v4h1l1 1l-1 2l1 2v2l2 2l2-4l3-6v-1v-1h-2l1-4l-4-3l-1-1l-3-2v1l1 1v3v1z"/><path id="06610" d="m278 585l3 2l1 1l4 3l-1 4h2v1h2v1h7l-1-1l1-3v-1v-1l-5-18l1-2l1-2l1-1l-3 1l-3 2l-1 1h-2h-2v3l-2 3l-2 3v2z"/><path id="06611" d="m233 524l1 1v5l1 2l1 1l1 2l1 3l1 1l-1 1l1 1v2l1 2v1v2h2v1l1 3l1 1h-1l5-1l2 3l1 1l3 5l-5 4h-2l2 3l1 1l3-1h7h6h2h1l1-1h2v1h2l2 1l1 1v1l2 2h2l1-1h1h2h2l1-1l3-2l3-1l2-2l2-1l2-3l3-1l-1-2v-3l-1-3l-1-2v-2l-5-9h-9l-3-3v-1l-3-3l-1-2l-1-1l-5-7l-1-1l-2-3l-12 1h-2l-1 1h-4l-9 1h-4l-4 1z"/><path id="06614" d="m292 571l-1 2l5 18v1h2h1l2-1l5-3h1h1h1l1 1l1-1h3h2v-1h2l1-3l-1-2l1-5l1-2l-2-5v-2l1-1l1-2l1-3l2-2l4-4l1-1l2-3l1-2l-1-1l-1-1l-2 1l-1-2l-1-1h-3v-1v-2h-2l1-2l-1-1l-19 8l-1 1v2l1 2l1 3v3l1 2l-3 1l-2 3l-2 1l-2 2l-1 1z"/><path id="06615" d="m291 616l-1 1l8 3l6 2l4 2l5-2l5-1l4-1l1-1l-1-1h-2l-1-3l1-6l-4-4l-2-1l-1-2l-1-1v-2l1-3v-1l1-1l2-2l2-5h-2v1h-2h-3l-1 1l-1-1h-1h-1h-1l-5 3l-2 1h-1h-2v1l-1 3l1 1v1v1l-1 3l-1 3v1l-1 1l-2 8z"/><path id="06702" d="m359 344h2v-1l-1-1zm-13-10l-1 2l1 3l1 3l1 1l1 2h5l1 1v-2h2l1-1l1 1v-3l-2-2l-1 1h-1l-1 2h-1l1-1h-1v1l-1-1h-1l-1-1v1l-1-1l-1-2v-1l-1-4z"/><path id="06704" d="m342 325v1l3 1l1 1l2-1v-2l-1-2h1l1 2v2l-1 2l-1 4l1 4v1l1 2l1 1l-1-2l-1-2v-2v-2l1-5l1-3l1-3l-1 5l1-1v2l1-1v-2h2l1-2l1 1v3l-2 1v1v2v2l1 3v1h1v2v1l1-1l2 2v3l1-2l1 1l2-2v1l2 2h1l2-4h1l1-1l2-5h-1v-1l3-4l-5-6l-2-15l-1-3v-3h-8l-1-1l-8 4l-3 2l-1 1v2l-1 1v5l1 2l1 1v1h-4v1v2z"/><path id="06705" d="m359 344h1l2 1l1 1l1 2v3l1 1l1 1h4v1l-3 1l2 1h1v1v2l2 1h1l-1-1v-2v-1v-1h2l1-1l1 1h3v1l1 3v2l6-3h1l4 2l1-1l1-2v-1l2-6l3-7l-6 1h-2h-4l-3-3l-8-11h-1v-1l-3 4v1h1l-2 5l-1 1h-1l-2 4h-1l-2-2v-1l-2 2v1z"/><path id="06706" d="m347 369v2h1v-2l1-1h1h1l-1 1v1h1l4-1h6l4-2l1 1v-1l4-1l3-1l7-4v-2l-1-3v-1h-3l-1-1l-1 1h-2v1v1v2l1 1h-1l-2-1v-2v-1h-1l-2-1l3-1v-1h-4l-1-1l-1-1v-3l-1-2l-1-1l-2-1h-1l-1-1l-1 1h-2v2l-1-1v1l1 3v2v1v1l2 2v1l-1 2l-1 2l-1 3v2l-1 2h-1h-3l-1 1z"/><path id="06708" d="m328 332l-1 1l3 20l1 3l1 3l2 4l4 5l1 3h2h6v-2l1-1l1-1h3h1l1-2v-2l1-3l1-2l1-2v-1l-2-2v-1v-1v-2l-1-3v-1h-5l-1-2l-1-1l-1-3l-1-3l1-2l1-1l1-4l1-2v-2l-1-2h-1l1 2v2l-2 1l-1-1l-3-1v-1v-2v-2v-1h-1h-1h-1l-4 1l-2 1l-4 7z"/><path id="06710" d="m348 333v2v2l1 2l1 2v-1l1 1h1l1 1v-1h1l-1 1h1l1-2h1v-1v-2h-1v-1l-1-3v-2v-2v-1l2-1v-3l-1-1l-1 2h-2v2l-1 1v-2l-1 1l1-5l-1 3l-1 3z"/><path id="06716" d="m364 293l2 9v3l1 3l2 15l5 6v1h1l8 11l3 3h4h2l6-1h1l1-1h3l1-2v-2l1-6l2-14l2-5l1-6v-3l-3-20v-3l-5 1l-6 1l-6 1h-1l-5 1l-8 5l-2 2z"/><path id="06750" d="m223 222v3l1 2v3v3l-1 1v2l1 1l3 3l4 4l1-1l1 1l1-1v-1v-1v-2l-1 1v-3h8h3l17-1l-1-3l1-1v-2l1-1v-1l-1-1l1-1l-1-1l1-2l-1 3h-2l-2-1h-1l-1-3h-6h-4l1-3v-2l-2-2v-1l-2 1v2v1l-2-2h-2l-1 2l-2-1l1-2l1-2h1l2-3v-2l-1-2l-2 1v1h-1l-2 1l-1 2l-1 1h-1v2h-2h-2l-1 1h-1l-1 1v2v2z"/><path id="06751" d="m241 267l4 42h2l17-2l2-1l12-1l5-1h3l1-1l1-3l1-1l1-3l1-1h2l-1-4l-2-9v-3l-1-1l1-1l-1-3l-2-10l-9 1h-3l-14 1h-5h-1z"/><path id="06759" d="m206 179l1 2v1l1 1l1 1v1v2l1 3l-1 1v2v1v3h1l1 2l1 1l2 1l2 3l1 1v3l1 2l3 4h1l1 1l1 1l1-1h1l1-1h2h2v-2h1l1-1l1-2l2-1h1v-1l2-1l1 2v2l-2 3h-1l-1 2l-1 2l2 1l1-2h2l2 2v-1v-2l2-1v1l2 2v2l-1 3h4h6l1 3h1l2 1h2l1-3l-1 2l1 1l-1 1l1 1v1l-1 1v2l-1 1l1 3l11-1l6-1h3l5-1l9-1l1 4l1 4l6 22l1-1l2-1v-2v-1l-1-1l-1-3v-2l1-1v-2l1-2v-6l3-1l3 1l2 1l-1-2h1h2h2l-1-1v-1l-1-3l-3-4v-2l1-1l1-1v-1l-1-2v-1v-1v-1v-1l-1-2h-3l-1-1l-3-2v-2l1-1h1h1h2h1l2-1h1h2l1-2l-1-2l-2-2l1-3l-1-2l-1-1l1-2l-2-4v-2h-2l-14-5h-1l-2-1l-3-6h-2l-5 1v-1l-2 1h-2l-6 1l1-1v-2v-1l-1-3v-2l-3 10l-13 1l-2 1l-8 1l-7 1l1-4v-2v-1v-1h-2l-3 1l-2 1h-2v-1l1-3v-4h-1v-2l-1 1l-2 1l-2 2h-1l-1-3l-2-2l3-11l-3-1l-3 1l-1 1h-2v-1v2l-2-1l-2 1h-1l-1-1v-3l-3-1v4l1 1l-1 4v2v1l1 1l2 2l1 2v1l-1 2v1l-3 2h-1z"/><path id="06770" d="m312 381h-1l1 1l1 1h1h1l1 2v1l1 1v2l5-1v4v1l4 3l2 2l8 7l3 3h2l2 3h1l1-2l2-1l1-1v-3l1-2l1 1l2-1l1 1l1-1l1 2h2h1l1 1l1-1v2h1l1 1v2l11-2l1-3l1-3l-1-1v-2l-1-1v-2l-7-28v1l-1-1l-4 2h-6l-4 1h-1v-1l1-1h-1h-1l-1 1v2h-1h-6h-2h-3h-6h-3v1v1l-1 1v2v4h-1l-1 2l-1 1l-1-1l-2-2l1 1l-2 3l-2 1l-1-1l-1-2l-1 1h-1z"/><path id="06776" d="m125 298l-2 1l5 14l1 4l1 2l1 1l2 7h1v3h3h2l1 2l2 3l2 4v2l1 1v1v1h1v1v1v5v10l1 3l-1 1l1 6l-1 3v1l1 3l-1 2l1 1l1 6l1-1l4-4l3-1l3-1l9-5l4-2l2-1l1-1h1l-4-2l-2-1l-1-1l-1-3l-1-5v-4v-2l2-2h2l1-1h1l1-1h1v-1l-1-1v-4v-1l1-1l5-3l4-2h3h6h5l-2-21v-1h-1l-3-23l-1-3v-3l-1-5l-2-1l-1 1l-1-1l-3-4l1-1l-2-2l-1-1l-2-8l-1-9l-5 1l-8 2l-23 3h-2l1 1l-1 1l-2 1l-1 1v2l-1 1v1l-2 2l1 1l-1 2v2v2h-1l-2 3h-1v1v2l1 1l1 4l2 2l2 3l1 1l1 4l2 1l3 3h1v2v1v-2l-2-1l-2-2h-1l-1-1l-3-4h-1l-1 2h-2l-1-2l1-3v-1h-1l-1-3h-1l-1 1v3v1h-1v1v3z"/><path id="06777" d="m174 227l1 2l3 7v1l1 3v2l1 1l-3 1l1 2v6v2l1 9l2 8l1 1l1-2l3-1l3 1h4l1-1h1l-1-2h2l2-2l1-2l2 1l2 2l1 1l1 1l2-3l2-1l1 1v2l1 2l-1 1l1 3h2l2-1l-1-3h-1l-1-2l1-1l1-1l2 1l1-1l1-1l-1-1v-3l-1-1v-2v-1l2-2h2h1l1-1l1-6v-1h1h1l-2 2v1l-1 4v1l-1 1h1l2-1l3-3l1-1l1-3l1-1h1l1-1l1 1v-2l-1-1l-1 1l-4-4l-3-3l-1-1v-2l1-1v-3v-3l-1-1l-2 1l-2-1l1 3l-1 1v2l-2 1h-2l2 1l-4-1l-1-1l-1 1l-2-1h-2l-1-1v2l-1 3l1 1l-3 1l-4-1l-1-1v-2l1-2v-1l1-1h2v-1h2h-1h-4l1-3l-1-2h-1l-2 5l-3-1l-1 1l1 1h-2l-1-1l-1-2h-1v1h-6l-1 1l-1-1z"/><path id="06779" d="m322 317l1 2h1h1l1-1v1h-1v1h-1v1h-1l1 5h1v1l1 1l3 1l4-7l2-1l4-1h1h1h1h4v-1l-1-1l-1-2v-5l1-1v-2l1-1h-1v-3l1-3h-1l-1 1l-1 4v2l-1 1l-1 2v-1h-2h-2l1-3l-1-2l-1 2v3l-5-3h-2l-1-1v1h-1h-1h-1v2l1 1l-1 1v1v1l-1 1l-1 2z"/><path id="06786" d="m347 237v4h1h4v3h1l1 4l2-1l2-1v2l1 3v2h-4h-1l-1 1v1v2l2 2v2l2-1v13v1v1v1l1 1v3l1 2v1v3l1 2l-1 1v2v1l-1 2h2l-1 3l-1 3v2h8l-2-9l10-1l2-2l8-5l-1-7l-1-5v-2v-3l-2-13l-1-4v-1l-1-6l-2-10v-1l-17 2l-3 1z"/><path id="06787" d="m303 262h-1l2 3l1 1l1 1v1l2 1l1-1h2h1l1 2l1-1h1l2 1l-1 2l1 1l2-1v1h2v-1l3 1l3 1v2l6 3h1v2v2v1l1 2l1 3l-1 1l2 1l2 1l1 1v1l1 2l2 2h1h1l1 3l-1 3v3h1l3-2l-7-20v-1v-2v-1l2-14v-3v-3l1-6v-3l1-8l1-3v-4l-7 1l-3 2l-2-1l-2-2l-2 3v4l-2 2l-3 1l-12 8v-2l-1 2l-2 2l-4 2l-1 1l-2 1z"/><path id="06790" d="m306 111h3l1-2l-2-2l-2-2v5zm-32 60v2l1 3v1v2l-1 1l6-1h2l2-1v1l5-1h2l3 6l2 1h1l14 5h2l1 1v-2l1-2l2-1l1-2l1-2l1-1l2-4v-2h9v1h1l1-1h1h2v-1l5-21v-2l1-5l3-18l3-15l-5 1l-1 1h-3h-1l-1 1l-5 1l-27 5l1-7v-2v-2l-2 1l-1-2l-1-2l-1-2l-2-2v-1l-3 1h-1l-5-1h-1l-2 8l-3 14l-7 32z"/><path id="06791" d="m313 190v2l2 4l-1 2l1 1l1 2l-1 3l2 2l1 2l-1 2l-1 2v2l1 1l1 1h1l2 2v1l2 3h1h1l2 3l1 3l1 1l1 1v1h3l2 2l3 2l1 1l1 2l7-1l9-1l3-1l17-2l-2-15l-5-27l-2-16h-7h-24h-2h-1l-1 1h-1v-1h-9v2l-2 4l-1 1l-1 2l-1 2l-2 1l-1 2v2z"/><path id="06794" d="m182 272l2 2l-1 1l3 4l1 1l1-1l2 1l1 5v3l1 3l3 23h1v1h1h3l1-2l1-1v-2v-1h3l1-2l-1-3v-1h3v-2l-1-4l3-2v-2v-3h1l1-2h-2v-3v-1h1h1l1-1l-1-1h1l2-1v-2l1-1h4l1 1l1-1l1-1l2-1h1h1v-1l3-1l1-1l1-1v-4h-2l2-12v-1l1-1l1-1h1v-1v2l2 3v1h1h1l1 2l1-1v-5l-3-3l-5-5l-1-1l-1 1h-1l-1 1l-1 3l-1 1l-3 3l-2 1h-1l1-1v-1l1-4v-1l2-2h-1h-1v1l-1 6l-1 1h-1h-2l-2 2v1v2l1 1v3l1 1l-1 1l-1 1l-2-1l-1 1l-1 1l1 2h1l1 3l-2 1h-2l-1-3l1-1l-1-2v-2l-1-1l-2 1l-2 3l-1-1l-1-1l-2-2l-2-1l-1 2l-2 2h-2l1 2h-1l-1 1h-4l-3-1l-3 1z"/><path id="06795" d="m287 303l-1 1l8-1l4 22l1 4v1v3v2l2 6l8-2l5-2l13-4l1-1l1-3l-3-1l-1-1v-1h-1l-1-5h1v-1h1v-1h1v-1l-1 1h-1h-1l-1-2l1-1l1-2l1-1v-1v-1l1-1l-1-1v-2h1h1h1v-1l1 1h2l5 3v-3l1-2l1 2l-1 3h2h2v1l1-2l1-1v-2l1-4l1-1h1l-1-3h-1h-1l-2-2l-1-2v-1l-1-1l-2-1l-2-1l1-1l-1-3l-1-2v-1v-2v-2h-1l-6-3v-2l-3-1l-3-1v1h-2v-1l-2 1l-1-1l1-2l-2-1h-1l-1 1l-1-2h-1h-2l-1 1l-2-1v-1l-1-1l-1-1l-2-3l-15 2l2 10l1 3l-1 1l1 1v3l2 9l1 4h-2l-1 1l-1 3l-1 1z"/><path id="06798" d="m238 310l3 28v3l1 14l2 13l1 5l1-1h3h1h2h1l15 3h1h1l12-2h3l2-1h1l6-1h1v-1l-4-28l10-1l-2-6v-2v-3v-1l-1-4l-4-22l-8 1h-3l-5 1l-12 1l-2 1l-17 2h-2z"/><path id="06801" d="m152 466l-1 3l1 3v1v2l1 5l3 12l1 2h3l2-1l17-4l5-1l3-1l3-1l6-2l-4-12l-12-36l-1-2l-13-4v6l1 1h-1v2l1 2v2l1 3l1 1l-2 1v1l-2 3l-2 3l-6 7l-5 3z"/><path id="06804" d="m156 413v1v1h1zm-10-17l1 4v1l1 1l2 2h1v-1v-2l-2-2l2 1h1l1 2h1l1 4l1 3l1 3l4 17h2l3 1l13 4l1 2l7-12l5-7l2-2l3-4l3-5l2-2v-1l2-2v-1l-2-2l-2-1l-4-1l-1-1l-5-2l-2-2l-3-1l-3-2l-1-6l-1-2l-2-2l-2-1l-1-1l1-1l1-2v-1l-1-1h-1l-1 1l-2 1l-4 2l-9 5l-3 1l-3 1l-4 4l-1 1l2 5h-1l-2-1v1v2v1z"/><path id="06807" d="m64 697l-1 2h1v2l1 3l3-1h1l2-7l1-3l1-2v-2v-2l2-2h2v-3v-1v-3l1-2l-1-1l-7-13l-3 1l-1 2l1 1v2l-1 2l-1 1v3l1 3l2 3l-2 5v1l1 2v3v1h-2l1-1h-1h-1v2zm-1 2v1h1v-1z"/><path id="06810" d="m96 457l-1 9h3l3 1l1-1l10-1h2l1 3l1 6l1 1v1l3 1l5 3l5 13l2 3l1 4h1l3-1l6-1l3-1l2-1h3l6-2l-1-2l-3-12l-1-5v-2v-1l-1-3l1-3v-1l5-3l6-7l2-3l2-3v-1l2-1l-1-1l-1-3v-2l-1-2v-2h1l-1-1v-6l-3-1l-2 4l-1 1l1 1l-2 1v1l-1 1h-2h-3l-5 2l-4 1l-1 1l-3 1l-1 1l-2 3l-1 1l-1 1h-3l-1 1l-1 1l-1 2v1v1l1 1v1v4l-1-1l-3 1h-2l-2-1l-8-3l-7-1l-2-1h-1h-2h-2l-3 2z"/><path id="06811" d="m96 446v11h1l3-2h2h2h1l2 1l7 1l8 3l2 1h2l3-1l1 1v-4v-1l-1-1v-1v-1l1-2l1-1l1-1h3l1-1l1-1l2-3l1-1l3-1l1-1l4-1l5-2h3h2l1-1v-1l2-1l-1-1l1-1l2-4h-2l-4-17l-1-3l-1-3l-6 2h-3l-6 2l-5 1l-1 1h-3l-6 2l-5 2l-4 1l-6 1l-3 1l-8 3h-1v2v1v1v3z"/><path id="06820" d="m108 669l1 2l1 2l1 1l1 2v2l1 1v2l1 3l2 2l3 4l1 1v1l1-1l1 4l1 2l5 2h1l1-4v-1l4-5l5 1l4-5h2l1-6v-2v-1l-1-1v-3v-4l-1-3h-1v-1h-2v-3l-1-1l-3-5l-4-5l-2-4h-3h-3h-4h-1h-3l-3 3h-1l-1 1v2h1l-1 2l-1 2v2l-1 2v1l-1 2h1v2l-1 1v1v1z"/><path id="06830" d="m59 732v1l2-1l1-1v-1h-1l-1 1zm-9 5v1l1-1h1v-1l1 1l1-1h1l-1-1v-1l-2 2l-1-1zm-8-10h1l1 3h1v1h1v-1l1-1h-1v-1h-1l-1-3h-1v1zm-7-3v2v2l1 2v1l-1 1l1 2h1l1-4l1-2l1-1l1-1l2-2l2-2h1h2l3 1h1l1-3v-1l5-1h1l3-3l2-1l4-1v-2l1-3v-5h-1l-3 1l-1-3v-2h-1l1-2v-4v-2h1h1l-1 1h2v-1v-3l-1-2v-1l2-5l-2-3l-1-3v-3l1-1l1-2v-2l-1-1l1-2l3-1l-4-6l-2 1l-1 1l-3 2l-6 3h-1l-1-1l-5-4v-1h-1l-5 2v1v2l1 4h-1h-2v2l2 5l3-2h1l-1 1v5l-1 4v-1h1l1 1v1h-1v1l1 1v1v2l-1 1l1 2l2 1v2l-1 3l1 2l-1 2v1l3-1v1l2 4l-6 4l-2 1v1l-5 4h-1v1v2z"/><path id="06831" d="m0 655l3 5l2 3v1h1l1 3l2 3l2 3l6 10l1 2l3 4l2 4l1 1l1 1v1l5 7l4 7l2 3l1 2h1l5-4v-1l2-1l6-4l-2-4v-1l-3 1v-1l1-2l-1-2l1-3v-2l-2-1l-1-2l1-1v-2v-1l-1-1v-1h1v-1l-1-1h-1v1l1-4v-5l1-1h-1l-3 2l-2-5v-2h2h1l-1-4v-2v-1l5-2h1v1l5 4l1 1h1l6-3l3-2l1-1l2-1h1v-1h-1l-1-1l-1-1l-1-3l-1-1l-3-5l-2-4l1-1h2l1 1l-1-2v-3h-1v-3l-1-1l1-1v-1v-2l-1-2v-5l-9 5l-1 1l-2 1h-1l-2 2l-17 10l-4 3l-2 1l-4 2l-2 1z"/><path id="06850" d="m131 646l2 4l4 5l3 5l1-1l-1-4h1h2l-1-3h2l1 1l-1-2v-1l-1-1l2-2h3l-2-2v-1l1-2h2v1v2h1l1 2v1h1l1-1h1v1l2 4l2-1h4h2l-1-3l1-1l1-2l-1-2v-1l-1 1v-1l-1 1l-1-1l-1 1h-1l-1-1l-2-3l-1-2v-2l-1-2l1-1l1-1l-1-1v-2v-1v-2v-5v1l1-1l1-3l1-3l-7 3h-1l-6 2v2l-1 1l-4 9z"/><path id="06851" d="m154 633l1 2v2l1 2l2 3l1 1h1l1-1l1 1l1-1v1l1-1v1l1 2l-1 2l-1 1l1 3l2-1l2-1l6-3l5-3v-2v-1h-1l-1-1l1-1l1 1v-3l-1-1l-1-2l1-1v-3v-2l-1-1h-1l-1-1l1-1l-1-2v-5v-1l1-6v-3h-3h-1l-2 1h-1l-2 1l-6 4l-1 1h-2l-1 3l-1 3l-1 1v-1v5v2v1v2l1 1l-1 1z"/><path id="06853" d="m145 672v3l1 1v1v2l-1 6h2l1 1h1h1l1-1l1 1v-2v-1l2-2v-1l-1-2l1-2l1-3l-1-4h-1l-3 1l-2 1v-3h-1v-2v-1v1l-2 2v4z"/><path id="06854" d="m161 687h1v1l3-1h2h1l-1-1l1-2h-1l-1-2zm-21-32l1 4l-1 1l1 1v3h2v1h1l1 3l2-2v-1v1v2h1v3l2-1l3-1h1l1 4l-1 3l-1 2l1 2v1l-2 2v1v2l10-11h1h2v-3v-3l1-1l2-3l-2-3l-3-3l-1-3l-1-3h1l2-1v-1h-2h-4l-2 1l-2-4v-1h-1l-1 1h-1v-1l-1-2h-1v-2v-1h-2l-1 2v1l2 2h-3l-2 2l1 1v1l1 2l-1-1h-2l1 3h-2z"/><path id="06855" d="m172 678v2l1 2l3 2v-1l-1-1l-1-2l2-1l1-2h1v-1v-1v-1h-3l-2 2zm-11-25l1 3l1 3l3 3l2 3l1 2l1 1h3v-1v-3l1-1l1-1l3 1v-4v-2v-1v-1l-1-1l1-2l-1-1l1-7l1-1l-5 3l-6 3l-2 1l-2 1v1l-2 1zm-1 34l-2 4l6-3h2l2-1l1-2l1-3l-1-1l-2 1h-1l1 2h1l-1 2l1 1h-1h-2l-3 1v-1h-1z"/><path id="06856" d="m158 648h1h-1v-1z"/><path id="06870" d="m72 719l2 1v3h2h4h1l1-6h1l1-3l2-1v-1h2v-2l1-1l1-1v-1h-1v-1v-1l-4-9l-2-7l-1-5l-4-8l-1 2v3v1v3h2h1l-1 4l1 1l1 1l-1 2l-1 2v1l2 2l-1 3v2l-1 3v1l1 5z"/><path id="06877" d="m92 517l-1 5l1 1l1 1l4 6l2 3l5 9l1 2l3 4l1 1l7 13l9-6l2-1h1l3-2l2-2h3v-1l4-2l9-5v-1l-1-2l-2-4v-1v-2v-1l-1-4v-1h-1v-4l-1-4v-1l-1-2l1-2l-4-2l-2-1l-2-1l-1-4l-1-5v-1l-1-4l-2-3l-5-13l-5-3l-3-1v-1l-1-1l-1-6l-1-3h-2l-10 1l-1 1l-3-1h-3v1l-1 6v3l-1 19l-1 3v2v5v3v5z"/><path id="06878" d="m68 713l1 2v1l3 3l8-7l-1-5v-1l1-3v-2l1-3l-2-2v-1l1-2l1-2l-1-1l-1-1l1-4h-1h-2h-2l-2 2v2v2l-1 2l-1 3l-2 7v5l-1 3z"/><path id="06880" d="m188 663h-3l3 4l2 1h1l1-1l1-2v-1h-2l-1 1l-1-1zm-10 11v1v1v1l1-1l-1-1zm-3-57v5l1 2l-1 1l1 1h1l1 1v2v3l-1 1l1 2l1 1v3l-1-1l-1 1l1 1h1v1v2l-1 1l-1 7l1 1l-1 2l1 1v1v1v2v4h1l1-1l-2-3h2h3h2l2-2l-1-2v-1l-1-3l6 2l2 1h1l1-3l1-1l6-2l3 1v-1h1l2-2l2-1h1h1l1-1h1h1v1h1l1-1h1l3-2v-3l1-1v-1v-2v-1l1-1l-2-5l1-2l-1-2h-2v-2h-1v-2v-1l-1-1l-1-1v-2l-1-1l-1-1l-1-2l-1 1l-3-7l-1-1l-2-4l-4-7l-1-1v-1l-2 1l-2 2l-13 10l-3-5l-1-1v-1l-1 2l-2 6l-1 2v3l-1 6z"/><path id="06883" d="m157 548l-3 2l17 30l2 4l1 3l1 1l3 5l2 4v1l1 1l3 5l13-10l2-2l2-1l1-2l1-1l1-3v-1v-1l1-1v-1h1v-1h-1l1-2v-1l1-1l1-3l1-1l-1-2h-1v-1v-1l-2-4l-2-1l-1-3l-3-4l-14-20l-2 1l-22 10z"/><path id="06890" d="m217 618l1 1v1v2h1v2h2l1 2l-1 2l2 5l-1 1v1v2v1l-1 1l1-1l3-1l3-1v1v-1l2-2l2-2l2-2v-1l-1-1l2-5v-2l-1 1v-1l-2-1v-2l1-2l-1-1l-2-1l-4 2l-1-2h2v-1h-2h-1l-2-3l-2 1l1 1l-2 3v1l-1 1z"/><path id="06896" d="m133 500v1l1 5l1 4l2 1l2 1l4 2l-1 2l1 2v1l1 4v4h1v1l1 4v1v2v1l2 4l1 2l2 4h1v1l1 1l1 2l3-2l4-1l22-10l2-1l27-13l4-2l2-1l-1-2l-4-5v-1l-1-1l-1-1v-1l-1-1l-2-5l-5 3l-7-22l-6 2l-3 1l-3 1l-5 1l-17 4l-2 1h-3l-6 2h-3l-2 1l-3 1l-6 1l-3 1z"/><path id="06897" d="m116 562l10 16l-1 1l1 2l1 1h1v1l2 5l1 2l1 1v2l1 1l-1 3v2h-1v1l2 1l1 2v-1l1 2v3v4l1 1v1l4 1l1 1h1l1 1l1 3l6-2h1l7-3h2l1-1l6-4l2-1h1l2-1h1h3l1-2l2-6l1-2l-2-4l-3-5l-1-1l-1-3l-2-4l-17-30l-1-2l-1-1v-1h-1l-2-4v1l-9 5l-4 2v1h-3l-2 2l-3 2h-1l-2 1z"/><path id="06901" d="m94 687v3v2l3-1l3-1l2-2v-1v-1l-1-1l-1-1v-1l-1 1h-1v-2v1h-1v1h-1v2h1l-1 2l-1-1v-1z"/><path id="06902" d="m72 658l-2 4l7 13l1 1l4 8l1 5l2 7l4 9v1v1h1v1l1-1l2 1l1-2l5-3v-1h1h1v1l1 1v1l-1 3v1l1 3l1 1l3-2v-1l1-2l1-2l1-2l-2-2l-1-3v-1h2h1l5 3v-1v-1v-3l2-1l1-1l3-2v-1l-1-1l-3-4l-2-2l-1-3v-2l-1 1h-3l1 2h-1v-2l-2 1h-2l-1 1h-1v-2h-2l-1-2l1-1h1v-1h-2v-1v-2l-1-2l-1 2l-1 2l2 2l1 1h-2v1v3l2 1v1l1 1l1 1v1v1l-2 2l-3 1l-3 1v-2v-3l1-1v1l1 1l1-2h-1v-2l-1-3l-2-1l-1-1l1 3l-2 1h1l-1 1v2h-1l-3-2v-3v-2h1v-2v-3l1-2h1v-2v-1v-2v-1h-1l1-3v-2l-1 1v1v-1h-2v-1v-1v-1l-1 1l-1-2l1-2l1-1v-1v-1v-1l-1 1l-1 1l-1 1l-1-1l-2 1h-6h-3l-1 2z"/><path id="06903" d="m58 639l-1 1l2 4l3 5l1 1l1 3l1 1l1 1h1v1h-1l4 6l2-4l-1-1l1-2h3h6l2-1l1 1l1-1l1-1l1-1l1-1l1-1l7-4l3-2l4-1h3l-6-20v-2v-1l1-2l-1-1l-1-1l-1-2h-1l-1-2h-1l-5-7l1-2l-1-1l-1-1l-5 3l-4 2l-2 1l-11 7l-4 3l-5 2v1v5l1 2v2v1l-1 1l1 1v3h1v3l1 2l-1-1h-2z"/><path id="06905" d="m85 658l1 2l1-1v1v1v1h2v1v-1l1-1v2l-1 3h1v1v2v1v2h-1l-1 2v3v2h-1v2v3l3 2h1v-2l1-1h-1l2-1l-1-3l1 1l2 1l1 3h1v-1h1v-1v2h1l1-1l-2-1v-3v-1h2l-1-1l-2-2l1-2l1-2l1 2l1-1v-2h1l2-3v-1l-1-2l1-4l-1-2h-2l1-3l-1-3h4v-2l-2-4h-1l-1-1l-1 1l-1-2l-3 2l-7 4l-1 1l-1 1v1v1v1l-1 1z"/><path id="06906" d="m100 675v1h2v1h-1l-1 1l1 2h2v2h1l1-1h2l2-1v2h1l-1-2h3l1-1l-1-1v-2l-1-2l-1-1l-1-2l-1-2h-1v2h-1h-1v-4h-1l-2 3h-1v2l-1 1z"/><path id="06907" d="m99 644l1 2l1-1l1 1h1l2 4v2h-4l1 3l-1 3h2l1 2l-1 4l1 2v1h1v4h1h1v-2h1l1 2l-1-2l1-1v-1v-1l1-1v-2h-1l1-2v-1l1-2v-2l1-2l1-2h-1v-2l1-1h1l3-3h-4h-7v-2v-1h-3z"/></svg>
