<?xml version="1.0" encoding="UTF-8"?><!DOCTYPE svg PUBLIC '-//W3C//DTD SVG 1.1//EN' 'http://www.w3.org/Graphics/SVG/1.1/DTD/svg11.dtd'><svg viewBox="0 0 1000 737.553" xmlns="http://www.w3.org/2000/svg"><path data-id="41001" d="m745.9 276.4l0.1 1.5l0.5 1.3l0.7 1.9l0.5 1.3l1.4 0.9l1.4 0.2l1.4 1l1.4 0.1l1.2 0.7l1.5 -0.4l1.1 -0.1l1.1 1l1.1 1l1.5 0l1.5 -0.1l1.4 -0.3l1.3 1.1l1.3 0.3l1.5 1.5l0 1.1l0.5 1.6l1 1l1.6 0.7l0.7 1.2l0.6 2l-0.9 1.4l-0.3 1.7l-0.9 1.1l-1.6 -0.5l-1.1 1.3l-0.2 1.2l-0.8 1.3l-1.1 1l-0.9 1l0.2 1.6l-0.6 1.7l0.2 1.2l0.8 1.5l0.3 1.4l0.1 1.4l0.1 1.2l-1 1.3l-1 0.8l-1 0.4l-1.2 0.1l-1.3 0.6l-1.4 -0.2l-0.6 1l0.2 1.2l0.1 1l0 1.3l-0.8 1.9l-0.5 1.5l-0.6 1.9l1 1.1l0.6 1.2l1.4 1.6l-2.5 1.1l-0.5 2l-0.5 1.1l-1.8 0.5l-0.6 1.5l-1.3 1.4l0.1 1.7l-1.4 1.2l-0.6 2l-0.6 1.5l-0.6 1l-0.7 1.9l0.2 2.3l2.7 1.6l3.2 0l6.2 -0.1l4.3 0l1.3 -0.2l7 0l6.5 0l1.5 0.2l4.8 0l0 -2.5l5 0l0.1 -5l2.5 0l0 -2.6l2.5 0l0 -2.5l2.5 0l0.6 -5l1.9 0l0 -2.5l2.5 0l0 -3.1l2.5 0l0 -4.4l2.5 0l0 -2.5l4.9 0.1l0 -2.5l47.1 -0.1l0 2.5l2.6 0l0 2.5l5 0l0 2.5l2.5 0l0 2.5l2.8 0l0 15l33 -0.2l0.3 -1l1.5 -0.9l1.7 -2.9l0.3 -1.1l-0.8 -2l-1.3 -1.5l-1.2 -0.8l-1.4 -1.4l-0.9 -1l-1 -3l0 -1l1 -0.5l1 -1l1.1 -2.6l0.4 -1.1l0.1 -3.6l-0.1 -1l-0.8 -2.8l-0.6 -1.2l0.2 -1.1l1 -0.4l2 -1.1l0.7 -1.4l0.3 -1.2l0.2 -1.1l0.5 -1l2.3 -0.7l1.9 -1.5l1 -2.4l0.2 -2l-0.6 -1.3l0.7 -1.2l1 -0.7l1 -1.1l0.1 -2.1l0.6 -3.6l0.3 -1l1.2 -1.2l1.2 -2.4l0.4 -2l-0.1 -2.2l1.9 -3.4l0.2 -1.3l0.9 -1.5l1 -0.5l0.5 -3.1l-0.2 -1l2.2 -3.1l3.7 -2l1 0.1l1.8 -0.6l1.8 -1.6l0.8 -1l2.7 -0.7l1.5 -0.9l0.8 -1.3l-0.4 -1.2l0.3 -1.3l1.3 -1.6l1.8 -3.6l0.6 -1.2l0.6 -1.2l1.6 -1.7l2.3 -2.2l1 -1.8l0.6 -1.2l0.2 -1l0.6 -2l0.5 -1.7l0.5 -1.5l0.8 -1.3l-0.5 -1.6l-1.3 -1.9l-0.5 -1.2l-1 -3.6l0.2 -1l1.3 -2.7l0.2 -2.7l-0.4 -1.2l0.8 -1.7l1.4 -0.8l2.6 -2.6l1.4 -1.7l1.7 -2.9l-59.6 -0.6l-36.8 0.2l-0.1 15.1l-26.4 0.1l-0.5 -3.7l-2.7 -3.2l-1.7 1l-3.1 -5.7l-2.4 0.7l-1.3 -1.9l-1.8 1.4l-1.1 3.4l-3.1 3.3l-5.9 4.1l-3.7 0.3l-4.7 -1.7l-4 -2.2l-2.8 -4.3l-4.7 -0.7l-1.5 3l-2.3 2.1l-4.2 -0.3l-2.4 1.9l0.1 3l-3.8 5.4l0 1.4l0.1 1.2l1.4 0.6l0.7 1.3l-0.3 1.2l-0.1 1.2l-0.4 1.4l-0.4 1.2l-0.2 1l0.6 2l0.3 1.2l0.3 1.1l-0.2 1.3l-1.7 0.8l-1 -0.3l-1.4 -0.2l-1 -0.6l-1.4 0.6l-1 -0.1l-0.6 1.3l0 1l-1.5 1l-0.5 1.2l-0.8 1l1.1 1l-0.1 1.2l1.4 1l0.4 1.1l-0.5 1.3l0 1.1l0.7 1.4l0 1l0.9 1.4l-0.2 1.2l0 2l-0.4 1.1l-1.4 0.5l-2 0.5l-1.7 0.2l-1.2 -0.2l-1.7 -0.1l-1.6 -0.4l-1 0.3l-1 1.1l-1.2 1.7l-1 0.6l-1 -0.1l-1.2 0.2l-0.5 1.1l-1 0l-1.4 -0.7l-2.1 1.3l-0.2 1.1l-1.4 0.6l-1.3 -0.8l-1.1 -0.6l-1.2 0.9l-1.8 0.6z"/><path data-id="41003" d="m91 338.7l0 5.1l5 -0.1l0 5.6l7.4 -0.1l15.1 1.3l27.4 -0.7l5.3 -0.5l18.3 0l-1.3 -0.7l-0.8 -3.6l-2.4 -0.5l0 -2.3l-3.6 -1.2l2.1 -2.2l-0.8 -2.1l2 -0.6l-3.2 -4.2l2.6 -1.5l-0.7 -3.8l1.2 -0.8l-1.1 -2.2l2.3 -0.6l0.5 -1.4l-1.4 -4.4l0.3 -3.9l0.2 -2.4l-3.1 -4l-1.9 -0.2l1.4 -2.7l-2.3 -1.8l0.8 -3l3.9 -2.1l4.6 -0.5l-1.3 -3l2.9 -2.8l0.1 -2.3l8.3 -0.9l3.8 -1.9l-2.3 -4.4l-3 -0.2l-0.5 -2.5l-3.5 -5.1l-4.1 0l-14.8 0l-27.1 -0.2l-7.4 0.3l-2.7 -0.3l0.7 12.2l0.1 25.1l-0.2 12.8l-15.1 0l0 7.6l0.6 5l-2.4 0l0 2.5l-10.1 0.2z"/><path data-id="41005" d="m208.3 169.1l0 10.1l2.2 0l1.9 -2.5l6.2 0l0 2.5l2.5 0l3.1 0l-1.6 3l0.2 1.6l-0.9 4.2l0.5 3.8l-0.5 2.6l-2.5 3.4l-1.4 4l4.8 3.9l0.8 2l2.9 2.9l1.8 3.6l4.3 2.2l2.6 2.5l1.8 -0.2l4.8 2.5l0.4 5.4l3.1 1.1l0.9 3l2.9 4.9l2.3 0.8l1.2 2.3l2.7 -0.5l3.4 1.3l2.1 2l5.2 0l1.3 3.2l77.1 0l3.8 0l2.5 -3.5l-4.1 -1.5l-0.6 -2.8l-4.2 -2.6l-1.8 -6.6l-0.5 -5l2.9 -0.7l0.3 -3.8l4.7 0.5l3 -0.6l-0.7 -1.4l4.3 -3.7l3.5 0.2l-0.1 -2.3l1 -1.6l-1.8 -5.4l-2.4 -0.7l-1 1.2l-1.8 -3l-0.4 -3.3l-1.7 -1.1l-0.8 -2l-2.1 -6l4.2 -1.1l2 -2.7l1.9 -0.4l0.2 -3.8l-1.9 -1.3l2.2 -6.9l-3 -6l0.7 -7.5l-3.3 -3.5l-6.4 -1.6l-2 -2.2l-1.7 -3.5l0 -3.4l-1.6 -1.2l-20.2 0.1l-17.2 0l-32.2 0l-17.8 0l-2.5 0l-1.3 0l-1.3 -0.1l-3.5 0l-5.6 0l-2.4 0.6l1.8 2.7l-0.3 1.7l-7 -0.1l-3.5 0l-1.2 0l0 1.3l0 4.1l0 9.5l0 2.9l-7.6 0.1l0 -2.6l-5.1 0l0 5.1l-2.6 0z"/><path data-id="41007" d="m66.9 6.2l-1.6 1.2l1.7 1l1.7 3.5l2.8 6.3l1.8 4.8l1.4 4.6l1.8 7.9l0.5 5.3l0.2 5.8l-1.2 5.7l-2.4 0.5l-1.6 0.9l-2.9 4l0.1 1.3l1.7 1.5l1.5 4l0.6 6.7l0.1 5.8l-1 9.6l30.8 0l0 1.8l29 -0.5l15.3 -0.7l0.3 -10.1l-0.2 -5.2l-0.9 -30.9l0.5 -19l-1 0l-7.3 -6.3l0.4 -8.5l-2.5 -3.7l-2.6 -2.6l-1.4 -0.8l-2.7 -0.3l-1.8 0.9l-1.3 0.5l-1.4 0.5l-1.2 0.3l-0.1 1.9l-4.7 3.5l-1.9 0.7l-2.2 1.7l-1.6 0.4l-1.5 0l-2.1 -0.6l-1.6 0.2l-0.1 3l-2.4 1.5l-3.1 0.1l-1.2 -1.4l-1 -0.8l-1.2 -0.6l-1.5 -1.5l-1.1 1.3l-2 1.4l-1.3 0.4l-3.4 1.1l-2.1 -0.3l-3.1 0.5l0.1 1.3l2.7 2.2l-0.2 1.7l-1.5 0.6l-4.5 -1.3l-1.6 -0.8l-1 -1.8l-1.8 -2.2l-2.9 -2.2l-2.8 -1.5l-2 -2.6l-1.1 -1.5l-1.7 -0.2z"/><path data-id="41009" d="m147 22.3l-0.5 19l0.9 30.9l0.2 5.2l-0.3 10.1l2.6 0l38.3 0.1l-0.1 4.9l5.1 0.1l0 2.5l7.6 0.1l0 2.5l17.9 0.1l2.8 -1.4l0.3 -1l-0.1 -2.8l-0.1 -1.6l-1 -3.8l-3.2 -5.2l0 -2.7l1.3 -3.4l0 -1.1l0.1 -3l-1.6 -3l-1.7 -5l0.7 -3.5l-1 -5.1l-2.9 -3.5l-2.3 -6l-2.7 -3l-0.7 -4.3l-2.5 -5l-7.2 -3.8l-5.1 -5.2l-2.2 -0.9l-1.4 -0.9l-2.1 -1.7l-6.7 -4.3l-1.3 -1.4l-6.2 -0.7l-5.8 2.9l-2.2 1.1l-2.5 1.7l-3.6 2.1l-2.6 0l-3.9 -0.3l-3.9 0z"/><path data-id="41011" d="m11.1 570l-2.1 6.3l27.4 -0.1l2.3 3.6l2.4 0l0.7 5l3 1.2l1.1 2.4l2.4 -0.2l-0.1 2.3l2.5 3.2l0 3.7l-2.4 0l-0.5 1.8l0.6 4.7l0 8.4l2.6 0l0.7 12.3l1.7 -2l3.6 0l0 -1.2l11.6 0l0 -2.4l2.4 0l0 -2.4l2.4 0l0 -2.4l2.4 0l1.4 -1.8l0 -5.9l7.1 -0.1l2.3 -2.4l4.7 0l0 -5.9l-1.1 0l0.1 -14.4l-0.2 -2.5l0 -12.1l7.4 0l0 -14.7l6.7 -0.1l0.3 -29.5l-7.4 -0.1l0.2 -22.1l-0.3 -7.4l-6.5 0l0.1 -14.5l-7.3 0.1l0 -15.8l-23.2 -0.2l-4.7 -0.3l-14.6 0.1l-1.8 9.2l-2.7 9.4l-3.9 11.2l-3.5 8.2l-3.3 6.3l-1.4 1.5l-2.4 0.6l-1.8 2.2l-1.9 3.4l1.1 1.1l0.6 1.5l0.8 3.5l-1.6 7.9l0 2.2l-0.8 4.4l-2.8 9.8l-1.3 1.8l0.3 3.2l-0.5 4.4l-2.6 12l-0.7 1.5z"/><path data-id="41013" d="m425.8 352.9l0 7.5l0.7 8.1l0 5.7l14.3 0.7l0.1 29.8l29.5 0.6l0 14.8l45.6 -0.2l0.1 14.9l14.8 0l0.1 14.8l5 0.2l39.6 -0.1l14.8 0l0.3 -44.7l14.6 0l0.3 -45l-0.1 -15l-30.1 0.1l0 -14.3l-15 0l-0.1 -8.5l-45.1 0.5l-0.1 -22.2l-54.5 0.2l0.1 15l-20 0l0.1 14.9l-14.7 -0.1l-0.1 22.2z"/><path data-id="41015" d="m0 595.4l1 3l1 1.5l1.4 4.1l1 6.1l0.2 2.8l1.9 -0.2l3.1 1l3.1 7.2l-0.4 2.1l4.3 2.7l2 5.8l0.2 1.5l-0.2 3.5l1.4 3.8l-0.1 1.4l-1 4.5l-2.8 8.1l-0.2 2.1l0.1 3l-1.6 3.5l0.8 3.3l0.4 4.2l0.1 3l-0.2 4.2l-0.2 2.8l2 4.6l0.7 4.9l-0.4 2.9l-0.4 1.1l3.5 4.5l0.7 1.4l0.3 1.7l-0.1 2.1l0.4 1l1.5 1.6l0.1 3.1l-0.7 1.6l0.6 1.4l1.2 1.5l-0.7 2.9l2 4.2l3.3 4.2l1.8 2.7l1.5 1l2.1 0.1l7 6.6l0.3 1.2l10.6 0.2l3.1 0l1.6 0l10.7 0.1l20.6 0l1.5 0.1l-0.5 -1.1l-0.1 -1l-1.2 -1.1l-0.1 -1.1l-0.3 -1.5l-0.9 -1.3l0.1 -1.7l0.6 -1.7l1 -1.5l1 -2.7l0.1 -1l-0.8 -1.4l-0.3 -1.5l-1 -2.1l-0.2 -1l-1.7 -1l-0.3 -1.1l1 -1.4l1.3 -1.2l1.3 -0.4l1 -1.3l0.7 -1.3l-0.2 -2.4l-0.6 -1.6l0.9 -2.2l0.9 -1.5l1.1 -0.4l0.4 -1.4l0.1 -1.3l-1.2 -0.8l-1.1 -1.1l-0.4 -1.5l-0.3 -1.4l-1.1 -1.2l-0.1 -1.2l-0.8 -1l-0.6 -1.7l-1 -0.7l0 -1.1l0.5 -1.3l-1.8 -1.1l-1.1 -0.4l-1 -0.9l-0.7 -1.3l-0.2 -1.6l-1.2 -1.1l-1.2 0.5l-1.7 0.3l-1 0.2l-0.9 -1l-1 -1.3l-1.1 0.3l-1.2 0.2l-1.6 -0.1l-1.1 -0.1l-1.1 -0.1l-1.4 0l-1.8 0l-1 -0.3l-1.3 0l-0.8 -1.2l-0.2 -1.3l-0.5 -1.4l0.1 -1.2l0.2 -1l0.4 -1l1 -0.7l1 -0.7l0.9 -1l-0.3 -1.3l-0.3 -1l0.4 -1.4l1.1 -0.7l-0.2 -1.3l-0.3 -1.5l0.6 -1.2l-0.1 -1.9l0 -1l-1 -0.9l0.2 -1.1l1 -0.5l1 -0.3l1.1 0.5l1.1 0.2l1.3 -0.1l1 -0.2l1.2 -0.4l1.1 0l1 0.8l1.1 0.1l1 -0.4l1.3 -0.3l1.2 -0.2l0.9 -1.1l0.9 -1l-0.1 -1.1l0 -1l0.5 -1.2l0.8 -1.1l0.8 -1.2l0.4 -1.3l-0.6 -1l0.3 -1.1l0.6 -1l0.4 -1l0.2 -1.1l1 -0.8l1 -0.9l0.2 -1.4l0.9 -1.1l0 -1.2l-0.6 -1l0.9 -4.1l1.9 -3.1l3.5 -5.8l0.6 -1.1l0.5 -1.1l0.7 -1l0.4 -1.2l0.1 -1.1l0.4 -1.2l0.8 -1.2l0.8 -1.1l0.1 -1.1l0.3 -1l0.6 -1l1 -0.7l0.4 -1.1l-1.7 0.4l-6.3 -3.3l-3.5 1.8l-4.7 0l-2.3 2.4l-7.1 0.1l0 5.9l-1.4 1.8l-2.4 0l0 2.4l-2.4 0l0 2.4l-2.4 0l0 2.4l-11.6 0l0 1.2l-3.6 0l-1.7 2l-0.7 -12.3l-2.6 0l0 -8.4l-0.6 -4.7l0.5 -1.8l2.4 0l0 -3.7l-2.5 -3.2l0.1 -2.3l-2.4 0.2l-1.1 -2.4l-3 -1.2l-0.7 -5l-2.4 0l-2.3 -3.6l-27.4 0.1l-2.6 6.2l-6.5 13z"/><path data-id="41017" d="m315.5 462.2l-0.2 1.8l82.8 -0.2l41.1 -0.1l3.6 0.3l73.5 -0.1l59.5 0.9l-0.1 -14.9l-39.6 0.1l-5 -0.2l-0.1 -14.8l-14.8 0l-0.1 -14.9l-45.6 0.2l0 -14.8l-29.5 -0.6l-0.1 -29.8l-14.3 -0.7l0 -5.7l-0.7 -8.1l0 -7.5l0.1 -22.2l-14.7 0l-76.2 -0.3l-0.3 4.5l1.1 1.5l-0.5 12.5l2.1 0.5l0.7 3.5l2.3 0.5l1.8 4.5l0.6 6.6l1.2 4.7l-1.6 3.4l1.4 1.4l0.5 6.6l-1.3 3.7l-1.2 0.9l-1.6 3.9l-2.1 0.2l-1.9 2.5l1.6 4.4l-0.9 2.9l-2 3.1l1.1 0.8l-2.5 1.1l-1.5 9.1l-2.8 0.6l-1.2 -1.2l-3.3 1.2l-1.4 1.4l0.8 1.2l-2.5 3.8l-2.8 2.5l0 7.6l1.5 0.5l-0.6 6l0.8 1.9l-1.6 2.7l0.1 7.2l-1.6 7.6l0.7 3.8l1.9 2.2l-4.4 0.2z"/><path data-id="41019" d="m43.2 455l-1.9 9.7l14.6 -0.1l4.7 0.3l23.2 0.2l0 15.8l7.3 -0.1l-0.1 14.5l6.5 0l0.3 7.4l-0.2 22.1l7.4 0.1l0.3 28.9l-7.3 0.7l0 14.7l-7.4 0l0 12.1l0.2 2.5l-0.1 14.4l1.1 0l0 5.9l3.5 -1.8l6.3 3.3l2 -0.7l0 7.5l2.4 0l0 -2.4l2.4 0.6l0 1.8l11.8 0l1.8 0.7l0.6 3l2.4 1.3l5.9 0.1l3.6 1.7l4.9 -2.6l2.7 0.7l0.4 -2.5l3.5 0l0 -2.4l12 1.3l3.1 1.3l0 3.7l2.4 0l2.4 -1.2l3.7 -4.7l3.5 0l0 -3l4.9 0.6l12.7 0l2.4 -1.2l2.5 -1.4l2.4 0.1l0 -1.2l4.9 0l7.3 0l7.2 -0.6l0 -2.4l2.4 -2.4l0 -3.7l4.8 0.9l0 -2.4l2.4 0l0 -2.4l2.4 0l0 -2.4l2.5 0l0 -2.4l4.9 0l0 -2.7l4.6 0.2l0 -2.6l2.5 0l0 -2.3l2.4 0l0 -2.4l12.4 -0.1l0 -2.4l2.4 0l0 -2.5l2.4 0l0 -2.5l2.4 0l0 -2.2l14.6 0l0 -1.7l0 -4.4l0 -3.1l2 -2.9l2.9 0l4.3 0l5 0l9 0l1.8 -0.3l-1.3 -0.7l-0.1 -1.6l0.5 -1.3l0.2 -1l0.3 -1.9l0.3 -1l0.5 -1l0.5 -1.4l1 -1.5l0 -1.4l-0.1 -1l1 -0.7l0.5 -1.3l-0.2 -1l0.6 -1.5l0.7 -1.5l0.6 -1l0.2 -1.5l0.3 -1.3l-0.6 -1.2l1 -0.4l1.2 -0.9l1.1 -0.7l0.8 -1.1l1 -0.7l0.7 -1.4l0.6 -1.1l1.5 -1.3l-0.8 -1.8l-0.7 -1.4l-1.8 -0.9l-0.7 -1.5l0.4 -1.7l0.8 -1l-0.6 -1.3l-1.1 -1.3l0.7 -2.1l-0.3 -1.6l-1.2 -2.3l-1.2 -1l-1.1 -0.9l-1.8 -1.8l-0.7 -1.2l-0.4 -1.1l0.3 -1.1l-0.6 -1l-1.1 -0.6l-1.1 -0.9l-0.3 -1l-1.3 -1.1l-1.4 -0.4l-1.3 -0.4l-1.2 -0.6l-17.8 -0.8l-27.2 -0.3l-2.2 0.2l-14.2 0l-14.7 0.5l0 -18.3l-23.6 0.1l-6.8 0.9l-14.8 -0.2l0 -11.2l-3.7 0l-0.1 -27.2l-0.3 -2.5l-25.7 -0.1l0 -5l-15.1 -0.1l0 -3.6l-7.3 0.2l0 -6.6l-6.3 0l0 -3.9l-4.9 -0.1l0.1 -5.1l-4.9 -0.1l0 -2.5l-5.5 -0.2l0 -1.2l-6.8 0.1l-8.4 -0.2l-3.2 4.2l-2.4 0.7l-3.7 3.5l-2.9 -0.4l0.1 5.6l-2.6 -1l0 1.5l-14.6 -0.3l-11.6 0.1l-1.2 9.4l-3.1 17.6l-0.6 2.8l-0.8 2.7l0.2 1.1z"/><path data-id="41021" d="m482 95l0.5 1.1l0.4 1.3l1.6 0.5l1.2 -0.2l1.6 1l0.9 1.7l1.5 0.9l1.9 0.6l1.1 1.4l0.9 1.4l1 1.3l1.4 0.7l1 -0.2l1.5 0.8l1.5 0.6l0.8 1.1l1 0.3l0.4 1l-0.1 1l1.2 0.1l-0.1 1l0.4 1.4l1.1 1.3l1.4 0.5l1.1 -0.8l1.2 0.2l-0.6 1.4l0 1.2l0.5 1l1.6 1.3l1 0l1.3 0.5l0.2 2.2l0.4 1l0.3 1.5l-0.6 1.5l1.4 1.2l1 0.8l0.6 1.5l1.7 0.5l1 0.3l-0.1 1l-1.4 0.1l-0.9 1.3l0.9 1l1.4 1.1l0 1.3l-0.3 1l-1 0.7l-1 0l-1 -0.5l-1.2 0l-1.5 -0.2l-1.2 -0.3l-0.4 1.6l0.3 1.4l1.4 0.6l-0.5 1.8l-1 0.2l-1.6 -1l-1 -1.2l-1.5 -0.5l-1.3 1.1l-1.3 0.8l-1.9 0.9l0.1 1l1 1.3l-1.5 1l0.4 1.1l1.1 1.3l-2 0.5l-0.5 1.1l1.8 0.2l0.7 1.2l-1 0.5l-1.4 0l-0.4 1.7l-1.1 0.6l-1.6 0.3l0.7 2.2l-0.6 1.6l1.3 -0.1l-0.8 1.2l-1.2 0.5l0.3 1.2l-0.3 1l0 1l-1.1 0.9l1 0.6l0.5 1.5l-1.2 1.1l1.7 0.8l-0.9 1.5l-0.2 1.2l1.5 0.8l-0.2 1.4l-1.1 0.3l-0.4 -1l-1 0.2l0.3 1.5l-0.1 1.1l-1 0.2l1.3 0.7l-0.3 1.5l-0.4 1.3l1 0.1l0.4 1.3l-1.9 0.3l-0.3 1l0.4 1.2l1.1 1.3l-0.3 1.2l1 0.7l1.3 -0.4l-0.1 1.1l-1.1 0l-0.8 1.1l1.1 0l0.3 1l1 0.1l0.9 1l1.6 0.7l1.8 -0.3l0.9 1l-0.6 1.3l1.1 0.7l-0.4 1.3l1.4 1.7l-0.9 1.5l1.2 1.3l1.4 0.2l0.2 1.1l-1.1 0.8l0 1.7l0.2 1.4l-0.1 1.5l-0.8 1.3l-0.7 -1.5l-2.3 0.8l-1.1 0.3l-1.4 1.1l0 1.1l1.1 1.2l1.1 2.9l44.9 0.2l22.4 0.3l5 -0.4l14.8 0l0 -2.4l3.7 0l0.1 -15.4l-15.3 0l0.2 -15.4l-15.4 -0.1l0.2 -45.7l0.7 -52.2l-8.7 4.8l-8.8 2.1l-3.6 2l-5 6.4l-8.8 0.8l-5.8 1.8l-9.3 2.1l-9.7 0.8l-2.9 -1l-2 -1.7l-4.6 -5l-3.9 -1.5l-5.4 0.1l-2.3 1.5z"/><path data-id="41023" d="m603.3 225.6l0.1 30l2.4 0l-0.4 89.6l0.1 15l-0.3 45l103.9 -0.3l0 -15l28.4 0.1l0 1.2l29.6 0l14.9 0.1l-0.1 -29.7l-0.4 -7.5l-1.5 -0.2l-6.5 0l-7 0l-1.3 0.2l-4.3 0l-6.2 0.1l-3.2 0l-2.7 -1.6l-0.2 -2.3l0.3 -1.3l1 -1.6l0.6 -1.5l0.3 -1.1l0.8 -1.5l0.8 -2.3l1.3 -1.4l0.6 -1.5l1 -0.3l1.2 -0.8l0.2 -1.6l2 -1.4l1 0l-0.6 -1.4l-1.5 -2l-0.3 -1l-0.7 -1.2l0.8 -1.7l0.7 -1.6l0.4 -2.2l-0.1 -1l-0.2 -1.2l0.6 -1l1.4 0.2l1.3 -0.6l1.2 -0.1l1 -0.4l1 -0.8l1 -1.3l-0.1 -1.2l-0.1 -1.4l-0.3 -1.4l-0.5 -1l-0.5 -1.7l0.3 -1.1l0.1 -1.4l0.5 -1.7l1.5 -1.1l0.7 -1l0.3 -1.5l0.7 -1.1l1.1 -0.2l1.2 0.1l0.7 -1.5l0.7 -1.6l-0.1 -1.8l-0.8 -2.1l-1.2 -0.6l-1.2 -0.4l-0.5 -1.6l-0.1 -1.2l-1 -1.4l-1.9 -1l-1.3 -1.1l-1.4 0.3l-1.5 0.1l-1.2 0.1l-1.4 -1.1l-1.1 -1l-1.1 0.1l-1.5 0.4l-1.2 -0.7l-1.4 -0.1l-1.4 -1l-1.4 -0.2l-1.4 -0.4l-0.5 -1.8l-0.7 -1.9l-0.5 -1.3l-0.1 -1.5l1.1 -0.5l1.5 -0.8l1.7 0.1l1 0.3l1.2 0.4l0.6 -1.2l1.4 -1.4l1.3 -5.55112e-17l1.9 0.4l0.5 -1.1l1.2 -0.2l1 0.1l1 -0.6l0.8 -1.1l0.7 -1.1l1.7 -0.9l1 0.3l2.3 0.2l1.2 0.2l1.7 -0.2l1.2 -0.2l1.6 -0.3l1 -1.6l-0.3 -1.4l0.6 -1l-0.5 -1.5l-0.6 -1.3l-0.4 -1.5l-0.2 -1.4l0.5 -1.3l-0.4 -1.1l-1 -0.4l-0.5 -1.2l0 -1l-0.7 -1l1 -1.1l0.8 -1.1l0.8 -1l-0.2 -1l1.8 -0.8l1.2 -0.5l1.2 0.5l1.1 0.2l1.3 0.3l1.5 -0.4l0.2 -1l0.2 -1.2l-0.6 -1.8l0 -1.1l-0.4 -1.9l0.4 -1.2l0.4 -1.4l0.1 -1.2l0.3 -1.2l-0.1 -1.2l-1.1 -0.3l-1.1 -0.9l0.1 -1.2l-3.9 -0.8l-0.8 -1.2l-2.1 0.6l-2.4 -2.6l-3.4 -1.9l-2.2 -0.7l-3.3 3.3l-1.7 -0.8l-3.9 2.5l-0.2 -3.9l-3.9 -1.8l-6.2 -0.1l-79.6 -0.1l-62.3 0.3z"/><path data-id="41025" d="m569.8 582.5l0 28.8l25.9 0l3.5 -0.4l42.1 0l0.2 102.5l0.4 23.8l4.4 0l9 0.1l2.4 -0.1l2.9 0.2l25.6 -0.1l25.4 0.2l2.3 0l10 0.1l11.7 -0.3l12.5 -0.3l37.5 -0.3l0.3 -46.5l-2.4 0l-0.3 -107.3l-1.5 0l0.1 -73.6l-0.5 -4.4l0 -67.6l0.5 -4.5l0 -41.7l-14.9 -0.1l-29.6 0l0 -1.2l-28.4 -0.1l0 15l-103.9 0.3l-14.6 0l-0.3 44.7l-14.8 0l0.1 14.9l0.2 4.4l-0.2 69.1l-4.4 0l0.1 44.3l-1.5 0z"/><path data-id="41027" d="m325.2 110.6l0 6.8l1.3 1.6l-0.8 2.6l1.8 5.7l-1.7 1.4l1.2 4.5l1.6 1.4l2.3 -0.4l1.8 2.6l-0.4 1.5l5.5 5.5l1.6 1.2l0 3.4l1.7 3.5l2 2.2l6.4 1.6l3.3 3.5l-0.7 7.5l3 6l-2.2 6.9l26.5 0l0 -46l5.1 0l-0.1 -31.4l-2.7 -0.7l-4.5 -3.4l-2.9 -0.7l-1.4 -0.3l-12.1 3.9l-4.6 -0.1l-4.8 1.8l-3.4 0.1l-9.4 -2.3l-6.9 2.4l-4.3 4l0.1 1.5l-0.9 1.3l-1.7 0.9z"/><path data-id="41029" d="m163.4 735.6l4.7 -0.3l4.6 -0.4l1.1 -0.2l7.7 0.6l2.3 0.1l2.5 0.3l12.8 0l5.9 0.1l2.2 -0.1l9.4 -0.1l10.8 0l9.7 -0.1l16.5 -0.6l12.8 0l2.4 -0.1l10.9 0.3l0 -19.9l0.3 -27l-0.1 -17.8l0 -7.5l0.4 -5.7l0.2 -53.7l0 -34.1l-14.6 0l0 2.2l-2.4 0l0 2.5l-2.4 0l0 2.5l-2.4 0l0 2.4l-12.4 0.1l0 2.4l-2.4 0l0 2.3l-2.5 0l0 2.6l-4.6 -0.2l0 2.7l-4.9 0l0 2.4l-2.5 0l0 2.4l-2.4 0l0 2.4l-2.4 0l0 2.4l-4.8 -0.9l0 3.7l-2.4 2.4l0 2.4l-7.2 0.6l-7.3 0l-4.9 0l0 1.2l-2.4 -0.1l-2.5 1.4l-2.4 1.2l-12.7 0l-4.9 -0.6l0 3l-3.5 0l-3.7 4.7l-2.4 1.2l0 25.3l0 9.4l0 33.4l0 7.4l0.1 20.6l-0.2 20.7z"/><path data-id="41031" d="m334.5 313.3l-0.3 3.9l1 4.1l-0.7 1.9l0.7 4l-0.3 3.1l75.9 -0.1l15 0.4l14.7 0.1l-0.1 -14.9l20 0l-0.1 -15l54.5 -0.2l0.1 -34.3l-2.3 -5.8l4.1 -4.7l-67.3 -0.2l-21.5 -0.1l-78.6 -0.4l-3.5 -0.8l-1.5 1.7l-1.4 0.1l-3.8 1l-1.7 2.4l1 3.3l3.5 1.6l1.3 -0.6l0.7 1.5l-0.6 1.2l-0.2 1.3l-1 0.7l-2.7 3.5l1.4 5.8l-0.8 2.1l0.3 7.5l-1.6 4.5l2.1 3.5l-1.2 6.7l-1.6 3.6l0.9 3.2l-4.7 4.4z"/><path data-id="41033" d="m63.2 671.5l0.5 1.2l0.2 1.6l0.7 1.2l1.4 0.4l1.3 0.5l1.3 0l1.4 -0.1l1.1 0.1l1.1 0.2l1.3 0.1l1.4 0l1.2 -0.6l1 1.2l1 0.8l1.4 0.2l1.2 -0.3l1.3 -0.5l1.1 0.8l0.7 1.1l0.3 1.2l0.6 1.3l1.9 0.9l1.3 0.3l0 2.1l0 1.1l1 0.7l0.2 1.2l0.7 1l0.6 1.7l0.6 1l0.8 1.6l0.4 1.5l1.1 1.1l1.2 0.5l-0.1 1.6l-0.4 1.4l-1.1 0.4l-0.9 1.5l-0.9 2.2l0.6 1.6l0.3 1.5l-0.1 1.6l-1.1 1.4l-1.2 0.7l-1.3 1.1l-1.7 1.7l0.3 1.1l1.1 1l0.8 1l0.3 1.4l1 2.2l0.8 1.4l-0.1 1l-0.4 1.8l-0.8 1.5l-0.8 1.9l-0.7 2.4l0.9 1.3l0.3 1.5l0.1 1.1l1 0.7l0.3 1.4l0.6 1l4 0l7.6 -0.1l8.8 0.3l4 -0.8l8.9 -0.1l3.4 -0.1l2.9 0.1l8.3 -0.2l6.6 0.4l4.2 0l14.4 -0.8l0.2 -20.7l-0.1 -20.6l0 -6.5l0 -34.3l0 -9.4l0 -25.3l-2.4 0l0 -3.7l-3.1 -1.3l-12 -1.3l0 2.4l-3.5 0l-0.4 2.5l-2.7 -0.7l-4.9 2.6l-3.6 -1.7l-5.9 -0.1l-2.4 -1.3l-0.6 -3l-1.8 -0.7l-11.8 0l0 -1.8l-2.4 -0.6l0 2.4l-2.4 0l0 -7.5l-0.5 1.1l-1 0.7l-0.8 1.3l-0.3 1l-0.1 1.1l-0.8 1.1l-0.8 1.2l-0.3 1l-0.3 1.1l-0.2 1.2l-0.6 1l-0.5 1l-0.7 1l-3.6 6.2l-1.9 3.1l-1.2 3.8l0.9 1.3l0 1.2l-0.9 1.1l-0.2 1l-0.7 1.1l-1.1 0.8l-0.4 1.1l-0.4 1.2l-0.6 1l-0.3 1.1l0.6 1l-0.3 1l-0.8 1.3l-0.8 1.1l-0.4 1.1l-0.3 1l0.3 1.1l-0.5 1l-1 1l-1.1 0.5l-1 0.1l-1.1 0.5l-1.2 0.2l-1.1 -0.1l-1.3 -0.9l-1.2 0.4l-1 0.1l-1.3 0.5l-1.4 -0.4l-1.1 -0.5l-1 0.3l-1 0.5l-0.2 1.1l1 0.9l0 1l-0.1 1.2l0 1.4l0 1.1l-0.2 1.3l-0.2 1.1l-0.9 1.2l0.3 1.2l-0.2 1l0.1 1.2l-1.1 0.9l-0.9 1l-1 1.1l-0.2 1z"/><path data-id="41035" d="m279.7 715l0 19.9l3.5 0.1l12.3 0l7.4 0.3l12.6 0.3l19 0.1l17.1 0.4l2.4 0l1.7 0l11.7 0.3l7.5 0.1l9 0.1l1 0l7.9 0l2 0.1l2.4 0.1l3.8 -0.2l7.3 0l15.4 0.3l3.9 0.2l7.4 0.2l19.2 -0.1l-0.1 -57.2l-0.1 -24.5l-0.2 -43.8l-10.4 0.1l-3.6 -0.4l-43.6 0l0.1 -103.2l2 0l-0.1 -44.3l-82.8 0.2l-4.5 2.4l-4 3.8l-2.7 0.1l-4.6 3.7l-2.3 6.2l2.1 1.7l0.5 2.3l-1.2 7.1l-1.8 1.3l2.6 1.3l1.9 1.4l1.3 0.4l1 0.8l1.2 0.2l0.8 1.5l1.1 0.9l1.1 0.6l0.6 1l-0.3 1.1l0.4 1.1l0.7 1.2l1.1 0.9l1.4 1.4l0.9 1l1.5 2l0.6 1.5l-0.3 2l0 1.7l1.3 1.2l-0.2 1l-0.8 1.5l0.1 1.4l2.3 1.8l0.7 1.4l0.5 1l-0.3 1.2l-1.3 1.4l-0.5 1.4l-0.6 1l-1.4 0.5l-0.6 1.1l-1.1 1.1l-1.2 0.5l-1.11022e-16 1.4l-0.1 1l-0.5 1.2l0.1 1l-0.8 1.3l-0.9 1.4l0.1 1.5l-0.3 1.5l-1.1 0.7l-0.2 1l0.2 1l-0.4 1.3l-1.1 1.4l-0.2 1.2l-0.7 1.6l0 1l-0.5 1.4l-0.4 1l-0.3 1.5l0.9 1.2l-1.1 0.7l-9 0l-5 0l-4.3 0l-2.9 0l-2 2.9l0 3.1l0 4.4l0 1.7l0 34.1l-0.2 53.7l-0.4 5.7l0 7.5l0.1 17.8l-0.3 27z"/><path data-id="41037" d="m396.1 508l-0.1 103.2l43.6 0l3.6 0.4l10.4 -0.1l0.2 43.8l0.1 24.2l0.1 57.5l8.4 -0.1l14.6 0.1l5.8 0.1l18.1 -0.1l21.3 0.1l5.2 0l13 -0.3l22.3 -0.1l1.7 -0.1l12.4 -0.2l1.8 0l2.9 0l7.3 0l8 0.2l34.8 0.1l10.4 0.2l0.1 -23.4l-0.7 -102.9l-42.1 0l-3.5 0.4l-25.9 0l0 -28.8l1.5 0l-0.1 -44.3l4.4 0l0.2 -69.1l-0.2 -4.4l-59.3 -0.1l-73.7 -0.7l-3.6 -0.3l-41.1 0.1l0.1 44.3l-2 0z"/><path data-id="41039" d="m49.7 413.4l-1 8.1l11.6 -0.1l14.6 0.3l0 -1.5l2.6 1l-0.1 -5.6l2.9 0.4l3.7 -3.5l2.4 -0.7l3.2 -4.2l8.4 0.2l6.8 -0.1l0 1.2l5.5 0.2l0 2.5l4.9 0.1l-0.1 5.1l4.9 0.1l0 3.9l6.3 0l0 6.6l7.3 -0.2l0 3.6l15.1 0.1l0 5l25.7 0.1l0.3 2.5l0.1 27.2l3.7 0l0 11.2l14.8 0.2l6.8 -0.9l23.6 -0.1l0 18.3l14.7 -0.5l14.2 0l2.2 -0.2l27.2 0.3l17.1 0l-2.6 -1.3l1.8 -1.3l1.2 -7.1l-0.5 -2.3l-2.1 -1.7l2.3 -6.2l4.6 -3.7l2.7 -0.1l4 -3.8l4.5 -2.4l0.2 -1.8l4.4 -0.2l-1.9 -2.2l-0.7 -3.8l1.6 -7.6l-0.9 -6.4l2.4 -3.5l-0.8 -1.9l0.6 -6l-1.5 -0.5l0 -7.6l2.8 -2.5l2.5 -3.8l-0.8 -1.2l1.4 -1.4l3.3 -1.2l1.2 1.2l2.8 -0.6l1.5 -9.1l2.5 -1.1l-1.1 -0.8l2 -3.1l0.9 -2.9l-1.6 -4.4l1.9 -2.5l2.1 -0.2l1.6 -3.9l1.2 -0.9l1.3 -3.7l-0.5 -6.6l-1.4 -1.4l1.6 -3.4l-1.2 -4.7l-0.6 -6.6l-1.8 -4.5l-2.3 -0.5l-11.1 0l-14.9 0.7l-36.8 1l0 3.7l-3.1 1.8l-1.8 2l-1.5 0l-0.6 -1.3l-6.2 -0.7l-1.7 0.8l-2.1 -1.1l-4.7 0.2l-1.2 -1.7l-2.5 -0.4l-5.3 1l0.2 -1.2l-2.3 -1.7l-6.4 -1.6l-0.2 -2.2l-2.7 -0.4l-6.8 -2.4l-3.3 -0.4l-1.5 -1l-1.7 1.2l-3.8 -0.1l-2.1 1.7l-0.8 -1.3l-4.3 -0.9l0 4.9l-4.8 0l-0.2 10.1l-32.1 0.1l1.9 -4.6l-3.5 -4.6l-0.2 -5.3l-18.3 0l-5.3 0.5l-27.4 0.7l-15.1 -1.3l-7.4 0.1l-20.5 0.1l0 1l-9 0l-6.1 0.4l-6.5 -0.2l0.7 1l-0.2 6.1l-0.6 4.9l0.2 1.4l-0.3 4.5l-1.1 7.9l0.4 3.7l-1.4 11.8l-1.1 13.3l-0.9 8.1z"/><path data-id="41041" d="m54.1 348.7l-0.1 1.8l6.5 0.2l6.1 -0.4l9 0l0 -1l20.5 -0.1l0 -5.6l-5 0.1l0 -5.1l10.1 -0.2l0 -2.5l2.4 0l-0.6 -5l0 -7.6l15.1 0l0.2 -12.8l-0.1 -25.1l-0.7 -12.2l-12.6 0l0 -3.1l-2.5 0l0 -53.3l-34.6 -0.1l-1.3 10.9l-1.1 5.8l-0.2 2.3l0.1 1.5l-0.9 4.8l-2 8.9l-0.7 2.1l-1.1 0.5l-1.3 6.5l-0.2 4.7l1.1 1.5l0.9 4.4l-0.5 6l-0.9 3.4l1.3 2.5l0.2 1.8l-0.8 4.6l0 1.7l-0.5 1.6l-0.9 14.2l-0.9 5.2l-0.1 2.5l0.3 1.5l0 6.3l-0.3 4.5l-1 7.8l-1 6.6l-0.4 1.2l-0.7 1.8l0.1 1.9l-0.8 3z"/><path data-id="41043" d="m160.6 299.2l-0.8 3l2.3 1.8l-1.4 2.7l1.9 0.2l3.1 4l-0.2 2.4l-0.3 3.9l1.4 4.4l-0.5 1.4l-2.3 0.6l1.1 2.2l-1.2 0.8l0.7 3.8l-2.6 1.5l3.2 4.2l-2 0.6l0.8 2.1l-2.1 2.2l3.6 1.2l0 2.3l2.4 0.5l0.8 3.6l1.3 0.7l0.2 5.3l3.5 4.6l-1.9 4.6l32.1 -0.1l0.2 -10.1l4.8 0l0 -4.9l4.3 0.9l0.8 1.3l2.1 -1.7l3.8 0.1l1.7 -1.2l1.5 1l3.1 -0.1l7 2.9l2.7 0.4l0.2 2.2l6.4 1.6l2.3 1.7l-0.2 1.2l5.3 -1l2.5 0.4l1.2 1.7l4.7 -0.2l2.1 1.1l1.7 -0.8l6.2 0.7l0.6 1.3l1.5 0l1.8 -2l3.1 -1.8l0 -3.7l36.8 -1l14.9 -0.7l11.1 0l-0.7 -3.5l-2.1 -0.5l0.5 -12.5l-1.1 -1.5l0.3 -4.5l0.3 -3.1l-0.7 -4l0.7 -1.9l-1 -4.1l0.3 -3.9l4.7 -4.4l-0.9 -3.2l1.6 -3.6l1.2 -6.7l-2.1 -3.5l1.6 -4.5l-0.3 -7.5l-1.8 0l-11.4 0l-7 -0.1l-1 -0.8l-1.5 -0.7l-1.1 0.6l-1.2 0.2l-1.1 0.3l-1.6 -0.5l-1.7 0.4l-1.5 -0.9l-1.2 -0.8l-1 0.1l-1.3 -0.5l-1.1 -0.4l-1.2 -0.6l-1.7 -0.5l-1.4 -1l-1.5 -1.2l-1.6 -0.8l-1 1.2l-1.1 0.6l-1.9 1.4l-1.2 0.7l-1.2 0.8l-1.8 0.8l-1.5 -0.3l-1.2 -1l-1.3 -2.3l-1 -1.1l-0.6 -1l-1.8 -1.3l-1.1 -2.5l-1.6 -0.7l-1.8 -0.4l-1.4 -0.5l-1.6 0.5l-1.5 -0.2l-1.8 0l-1.1 0.2l-1 0.7l-1.4 -0.3l-1 0.3l-1.1 -0.4l-1 0.6l-1.2 0.2l-1.2 -0.8l-1.2 0.3l-1.3 -0.1l-1.3 0l-1.1 0.4l-1 -0.5l-1 0.3l-1.3 0.6l-1.4 -0.3l-1.2 -0.2l-0.5 -1.2l-1 -1.1l-1.3 0.3l-1.5 -0.5l-1.5 0l-0.5 -1.1l-1 -0.4l-1.8 -0.2l-1.2 -0.2l-1.1 -1l-1.3 -0.8l-2 0.2l-2.1 1.2l-1.1 0.2l-1.3 0.4l-1 0l-1.5 0.4l-1.4 -0.4l-1.3 -0.4l-0.6 -1.4l-1.1 -0.6l-2.1 0.7l-1.6 -0.5l-1.5 -0.5l-1.3 -0.1l-1.2 0.2l-1.1 0.2l-0.9 1.1l-0.8 1.2l-1 0.7l-1.1 0.8l-1.1 -0.3l-0.9 1.6l-1.3 0.8l-1.7 1.1l-2.1 0.6l-1 0.7l-1.4 1.5l-1.3 2l-2.2 1.7l-2.5 -1l-2 2.7l-3.3 3.2l-2.3 -2.1l-0.2 -4.7l-2.6 0.1l-0.1 -2.2l-7.9 -2l-0.7 -1.7l-4 1.8l1.4 1l-2 4l3.5 5.1l0.5 2.5l3 0.2l2.3 4.4l-3.8 1.9l-8.3 0.9l-0.1 2.3l-2.9 2.8l1.3 3l-4.6 0.5l-3.9 2.1z"/><path data-id="41045" d="m781.3 354l0.4 7.5l0.1 29.7l0 41.7l-0.5 4.5l0 67.6l0.5 4.4l-0.1 73.6l1.5 0l0.3 107.3l2.4 0l-0.3 46.5l40 -0.2l30.6 0l22.6 -0.3l4.9 0.1l23 -0.1l2.4 -0.1l16 0.1l1.6 0l1.8 0l1.8 0l0 -19.6l-0.1 -2.6l0 -5.5l0 -31.9l-0.1 -3.6l0 -41.3l0 -30.6l-0.1 -36.7l0 -93.8l0 -2.8l0 -1.1l0 -1.8l0 -1.2l0 -1.3l0 -1.2l0 -5.6l0 -1.9l0 -1.3l0 -4l0 -1.5l0 -3.1l0 -12.9l0.5 -1.6l-0.2 -1.1l-1.2 -1.1l0.4 -1.5l1.3 -0.4l1.2 -0.2l-0.2 -1.3l-1.1 -0.4l-0.2 -1.2l1.3 -0.6l1.4 -0.4l1.1 0.1l1.2 -2.7l0.5 -2.6l-0.1 -1l-0.4 -2.4l1.7 -0.3l0.7 -2.3l-1.1 -1.5l1 -2.3l0 -1.1l0.3 -1.2l-1.3 -0.3l-0.7 -1.1l2 -1.5l2.7 -0.3l0.2 -1.2l-0.8 -1.7l0.8 -1.6l0.3 -1.8l-0.3 -1.4l-0.7 -1.1l-1.6 -1.2l-2 -1l-0.6 -6.3l1.3 -1l1.3 -0.1l1.7 -0.4l1.2 -1l0.7 -1.3l3.9 -7.8l0.3 -1l-0.2 -2.3l-0.5 -1l-3.1 -2.6l-1.2 -0.4l-1.2 0.4l-2.5 -0.4l-1 -2.5l0 -3.1l0.2 -1.7l-0.5 -1.2l-1.4 -0.5l-1.7 0l-2 0l-1 -0.5l-1.3 0.2l-1.2 2.6l-1 0.6l-0.8 -1.4l-1 -1.2l-1.4 -1l-1.4 -1.4l-0.5 -2l-0.6 -1.1l-1.1 -0.9l-1.3 0.3l-1.6 1.6l-0.4 1.1l-1.2 0.8l-1.7 0.1l-1.6 -0.2l-2.8 -2.1l-2.9 -3l-0.7 -1.6l-32.7 -0.4l0 -15l-2.8 0l0 -2.5l-2.5 0l0 -2.5l-5 0l0 -2.5l-2.6 0l0 -2.5l-47.1 0.1l0 2.5l-4.9 -0.1l0 2.5l-2.5 0l0 4.4l-2.5 0l0 3.1l-2.5 0l0 2.5l-1.9 0l-0.6 5l-2.5 0l0 2.5l-2.5 0l0 2.6l-2.5 0l-0.1 5l-5 0l0 2.5l-4.8 0z"/><path data-id="41047" d="m169.7 251.7l0.5 2.4l5.5 0.9l2.5 0.8l2.5 1.8l-0.8 2.2l-3 0.9l-2.9 4.1l0.2 3.7l4 -1.8l0.7 1.7l7.9 2l0.1 2.2l2.6 -0.1l0.2 4.7l2.3 2.1l3.3 -3.2l2 -2.7l2.5 1l2.2 -1.7l1.2 -1.3l1.5 -2.2l1 -0.7l2.1 -0.6l1 -1.1l1.1 -0.1l1.1 -1.4l0 -1.2l1 0.6l1.2 -0.1l1 -1.2l0.8 -1.1l1.2 -0.8l1 -0.6l1 -0.4l1.3 0.1l1.4 0l2.4 1l1.9 -0.3l1 -0.4l0.9 2l1.3 0.4l1 0.2l1.1 0.1l1.8 -0.3l1.3 -0.4l1.1 -0.2l1.2 -0.5l2 -0.7l1.5 0l1.2 0.9l1.8 0.9l1.1 0.1l1.3 0.3l0.9 1.3l1.5 0l1.5 0.5l1.3 -0.3l1.2 0.5l0 1.1l1.5 0.9l1.4 0.3l1.3 -0.6l1 -0.3l1 0.5l1.1 -0.4l1.3 0l1.2 0l1 -0.3l1.2 0.8l1.2 -0.2l1.1 -0.5l1 0.4l1.3 -0.3l1.1 0.4l1.3 -0.8l1.1 -0.2l1 -0.1l1.4 0.3l1.6 -0.2l1.6 -0.1l1.6 0.5l1.6 0.3l2 3.1l1.8 1.3l0.6 1l1 1.1l1.3 2.3l1.2 1l1.5 0.3l1.8 -0.8l1.2 -0.8l1.2 -0.7l1.9 -1.4l1.1 -0.6l1 -1.2l1.6 0.8l1.5 1.2l1.4 1l1.7 0.5l1.2 0.6l1.1 0.4l1.3 0.5l1 -0.1l1.2 0.8l1.5 0.9l1.7 -0.4l1.2 0l1 0.4l1 -0.2l1.8 -0.8l1 0.2l0.9 1l7.6 0.4l11.4 0l1.8 0l0.8 -2.1l-1.4 -5.8l2 -3.3l1.7 -0.9l0.2 -1.3l1.5 -0.4l-1.6 -2.3l-1.3 0.6l-3.5 -1.6l-1 -3.3l1.7 -2.4l3.8 -1l1.4 -0.1l1.5 -1.7l1.3 -2.9l-1.4 -2.6l2.3 -4.3l-3.8 0l-77.1 0l-0.7 -2.3l-5.8 -0.9l-2.1 -2l-3.4 -1.3l-2.7 0.5l-1.2 -2.3l-2.3 -0.8l-2.9 -4.9l-0.9 -3l-3.1 -1.1l-0.4 -5.4l-4.8 -2.5l-1.8 0.2l-2.6 -2.5l-4.3 -2.2l-1.8 -3.6l-2.9 -2.9l-0.8 -2l-4.8 -3.9l1.4 -4l2.5 -3.4l0.5 -2.6l-0.5 -3.8l1.5 -4.1l-0.8 -1.7l1.3 -2.9l-2.8 -0.1l-2.5 0l0 -2.5l-6.2 0l-1.9 2.5l-1.5 1.1l-4.7 -0.7l-1.8 -1.8l-4 -0.1l-2.5 -3.1l-1.1 1.9l-2.9 2.2l0.5 4.4l-0.5 2.2l-5.2 0.6l-1.2 1.7l1.2 2.2l2.6 -0.2l0.6 4l1.8 2l-2.8 0.4l-1.3 1.8l4.5 6.3l-2.6 2.8l-2.2 0.6l-4 4l-0.9 10.6l1.3 4.2l3 0.3l0.5 2.8l0 1.3l-0.1 1.7l-0.8 2l-3.6 2.8l-4.7 -0.4l-4.6 11.9l-2.8 -0.4l-1.1 3.3z"/><path data-id="41049" d="m562.2 133.8l-0.2 45.7l15.4 0.1l-0.2 15.4l15.3 0l-0.1 15.4l-3.7 0l0 2.4l-0.1 12.8l14.7 -0.1l62.9 -0.2l0 -15.2l2.1 0l0.2 -76.1l-12.7 0l0 -15.2l-23 -0.2l0 -35.3l0.3 -20.5l-2.2 0.2l-4.6 2l-4.5 -0.4l-5.8 -3l-3.6 1l-2.8 2.5l-5.7 8.7l-12.7 2l-3.7 -0.3l-8.1 2.1l-1 0.2l-3.9 1.2l-7.2 0.7l-4.2 2.1l-0.7 52.2z"/><path data-id="41051" d="m200.7 97.8l0 13.9l2.5 3.9l2.6 0.1l0 2.5l2.4 0l0.1 2.5l2.6 0l0 2.5l2.6 2l2.6 0.6l2.6 2.6l2.5 2.6l0 2.5l2.5 0.5l0 1.6l0 2.9l0 4.1l0 5.1l1.2 0.9l3.5 0l7 0.1l0.3 -1.7l-1.8 -2.7l2.4 -0.6l5 0l4.1 0l1.3 0.1l1.3 0l2.5 0l17.8 0l31.7 0.2l17.7 -0.2l19.3 0.2l-4.6 -5.8l0.4 -1.5l-1.8 -2.6l-2.3 0.4l-1.6 -1.4l-1.2 -4.5l1.7 -1.4l-1.8 -5.7l0.8 -2.6l-1.3 -1.6l0 -6.8l-1.6 0.9l-2.1 -0.1l-1.5 2.1l-2 1.4l-3 1.6l-2.3 0.1l-2.7 1l-7.1 4.6l-1.3 0.4l-1.7 -0.2l-1.8 -0.4l-5.3 1.2l-2.2 2.4l-5.8 2.9l-1.7 0.6l-4 0.2l-4.5 -0.8l-2.6 -3.7l-3.4 -1.1l-1.4 0.2l-1.2 0.6l-1.2 0.6l-3.5 0.7l-1.9 -0.7l-2.6 -1.9l-2.2 -0.9l-1.6 -0.5l-2.3 -0.7l-3 -1.3l-4.1 -1.3l-2.7 -0.6l-5.1 -0.4l-3.8 -1.5l-2 -1.2l-2.8 -2.2l-3.1 -1.2l-3 -2.2l-1.5 -4.2l0.2 -3.4l1.3 -5.1l-2.8 1.4l-17.9 -0.1z"/><path data-id="41053" d="m102.3 217l0 53.3l2.5 0l0 3.1l12.6 0l2.7 0.3l7.4 -0.3l27.1 0.2l14.8 0l4.1 0l2 -4l-1.4 -1l-0.2 -3.7l2.9 -4.1l3 -0.9l0.8 -2.2l-2.5 -1.8l-2.5 -0.8l-5.5 -0.9l-0.5 -2.4l1.1 -3.3l2.8 0.4l4.6 -11.9l4.7 0.4l3.6 -2.8l0.8 -2l0.1 -1.7l0 -1.3l-0.5 -2.8l-3 -0.3l-1.3 -4.2l0.9 -10.6l-52.6 0l-28.4 -0.2l0 5.6z"/><path data-id="41055" d="m435.8 174.2l1.1 0.4l-0.2 1.1l-0.3 1.2l0.5 1l-0.3 2.3l0.2 1.3l-0.3 1l0.4 1l-5.55112e-17 1.3l-0.4 1.1l0.4 1.2l1 0.7l1 0.1l1.4 0.8l0.5 1l1.4 -0.3l1.4 0.3l1.2 0.2l1.1 -0.3l1.2 -0.5l1.1 0.1l1.2 0.4l1.1 -0.8l1.3 0.1l1 0.1l1.4 0.5l1.1 0.3l1.2 0.5l1.2 1l1 0.6l0.7 1.1l1.1 0.4l1.2 0.8l1 0.9l1.2 0.4l1.1 0.4l1.4 0.1l1 0.2l0.1 1l0.9 1.1l0.4 1l1 0.1l1.2 1.2l1.1 0.2l1.1 0.7l0.3 1.2l0.6 1.2l0.1 1l-0.7 1.2l-0.5 1.2l0.3 1l-0.4 1l2.2 0.3l4.4 0l4.5 0l2.9 0l6 0l2.8 0l4.2 0l1 0l-1.1 -1.4l0 -1.1l1.4 -1.1l1.1 -0.3l1.4 -0.4l1.5 0.3l1 -2l-0.2 -1.4l0 -1.7l1.1 -0.8l-0.2 -1.1l-1.4 -0.2l-1.2 -1.3l0.9 -1.5l-1.4 -1.1l0.6 -1l-1.3 -1.6l0.6 -1.3l-0.9 -1l-1.1 0.1l-1.4 -0.1l-1.5 -0.8l-1.3 -0.7l-0.3 -1l-1.1 0l0.8 -1.1l1.1 0l0.1 -1.1l-1.3 0.4l-1 -0.1l0.3 -1.3l-0.2 -1l-1 -1.4l-0.6 -1l1.8 -0.6l0.8 -1.3l-1 -0.2l-0.1 -1.5l0.3 -1.5l-1.3 -0.1l1 -0.8l0.1 -1.1l-0.3 -1.5l1 -0.2l0.4 1l1.1 -0.3l0.2 -1.4l-1.5 -0.8l-0.4 -1l1.5 -0.8l-0.8 -1.4l0.3 -1.4l-0.5 -1.5l-1 -0.6l1.1 -0.9l0 -1l0.3 -1l-0.3 -1.2l1.2 -0.5l1.4 -0.6l-1.5 -0.6l0.2 -1.5l0 -1.3l0.3 -1.4l1.7 -0.4l0.4 -1.7l1 -0.2l1.1 0l0 -1l-1.8 -0.7l0.1 -1.1l1.2 -0.1l0.5 -1.3l-1.2 -1.5l1.5 -1l-0.3 -1.1l-1.1 -0.4l2.2 -1.7l1.3 -0.8l1.3 -1.1l1 -0.1l1.5 1.8l1 0.5l1.6 0.3l0.8 -1l-1.7 -1.4l-0.3 -1.4l-0.1 -1.5l1.7 0.2l1.5 0.2l1.2 0l1 0.5l1 0l1 -0.7l0.3 -1l0 -1.3l-1.4 -1.1l-0.9 -1l0.9 -1.3l1.4 -0.1l0.1 -1l-1 -0.3l-1.3 -0.1l-0.7 -1.2l-0.7 -1.1l-1.3 -0.9l-0.5 -1.6l0.1 -2.1l-0.4 -1l-0.1 -1.4l-0.6 -1.1l-1.8 -0.2l-1.6 -1.3l-0.5 -1l0 -1.2l0.7 -1.2l-1.3 -0.4l-1.1 0.8l-1.3 0l-1 -1.1l-0.6 -1.2l0.5 -1.2l-1.1 -0.6l-0.4 -1.2l-0.4 -1l-1 -0.3l-0.8 -1.1l-1.5 -0.6l-1.5 -0.8l-1 0.2l-1.1 0.1l-1.3 -2.1l-0.9 -1.4l-1.1 -1.4l-1.9 -0.6l-1.5 -0.9l-0.9 -1.7l-1.6 -1l-1.2 0.2l-1.6 -0.5l-0.4 -1.3l-0.5 -1.1l-1.9 1.3l-2.5 2.5l-4.3 1.7l-8 3.6l-8.3 2.6l-1.8 1.8l-3.2 3.2l-2.2 0.5l-0.1 1.1l0.5 1l0.7 1.7l-0.2 1l-0.7 1.5l1 1l0.8 1.4l-0.4 1.6l-0.8 1.6l-0.1 1.1l-0.3 1l0.9 1.5l0.5 1.5l1.3 0.7l0.4 1.3l0.5 1l1.9 -0.4l1 0.7l1.1 0.9l1 0.5l1 0.2l0.3 1.1l-1 1l0.5 1.3l-0.1 1l-0.5 1.1l0.1 1.6l0.2 1.1l-1.3 1.2l-1.6 0.8l-0.2 1l-0.5 1.1l0.4 1.5l1 0.6l0.2 1.2l-1.4 0.2l0 1l-0.5 1.8l-0.4 1.7l0.4 1.5l-1 0.4l-1.1 0.1l-1.7 2.4l-0.3 1.6l-1.2 0.8l-1.1 0.1l-0.3 1.2l-0.7 1.2l-1.7 0.4l0.8 1.3l-0.1 1.1l-1.2 -0.7l-1.2 0.3l1 0.7l-0.3 1.3l-0.8 1.2l-0.8 1.3l-1 0l-0.6 -1.4l-0.1 -1.1l-1.1 -0.1l-0.7 1.5l-1.4 0.9l-1.7 -0.1l-0.7 1.8l-0.6 1.3z"/><path data-id="41057" d="m66.3 213.4l-0.3 2.6l1 0.4l35.2 0.4l0 -5.6l-7.4 -0.1l0 -24.5l39.7 0l0 -10.2l-0.1 -17.6l-0.1 -10.4l-2.6 0l0.1 -2.5l2.7 0l0.3 -7.8l2.5 0.1l-0.2 -5.3l2.6 -0.1l0 -2.5l2.4 0l0 -2.5l5.1 0l0 -5.1l5.1 0l0 -2.5l2.6 0l0 -2.5l-5.1 0l0 -2.6l-5 0l0.1 -2.4l-5.3 -0.1l0 -2.6l-2.6 0l0 -2.6l-2.5 0l0 -2.5l-2.6 0l0 -5.2l15.3 0l-0.1 -12.6l-15.3 -0.1l-29 1.3l0 -1.8l-30.8 0l-1.5 2.6l-0.1 1.1l1.7 0.8l2.8 4.2l0.4 1.1l0.5 3.2l0.1 8.3l-1.5 13.5l-0.7 2.6l1 1l-1.1 9.7l-1.1 3l-1.3 0.7l0.4 3.9l1.1 3.2l0.4 3.2l-0.6 7.8l-0.9 5.5l-0.8 1.2l-3.4 1.4l3.6 0.1l1.8 3.8l0.2 6.5l-1.2 11.1l0.6 2.7l-0.9 9.8l-1.7 9l-1.9 1.7l-0.9 1.3l-0.5 2.1z"/><path data-id="41059" d="m632.7 83.4l0 35.3l23 0.2l0 15.2l12.7 0l-0.2 76.1l-2.1 0l0 15.2l79.6 0.1l0 -14.8l-3.6 0l0.1 -20.4l-13.5 0l0 -10.7l-5.1 0l-0.1 -15.5l5.1 0.1l5.3 0.9l0 -2.7l22.8 0l0 -13l2.9 0l0 -2.4l2.6 0l2.2 2.4l15.4 0l5.4 0.3l0 -7.6l10.1 -0.1l-0.2 -7.7l0.1 -30.7l6.3 0l0 -15.1l2.6 0l0 -7.7l8.9 0l0 -7.8l-0.6 -24.9l-2.4 0l-16 0.1l-2.5 -0.1l-10.3 0l-2.9 0l-3.9 -0.1l-3.9 0.1l-6.5 0l-1.3 0l-3.1 0l-8.3 0l-3.2 0l-5 0l-4 0l-1.3 0l-3.3 0l-3.8 0l-2.6 0l-2.4 0l-32.6 0.1l-5.7 0.1l-2.6 3.7l-2.3 1.8l-4.3 1.9l-3.9 2.8l-4.1 1.8l-5.4 0.9l-3.2 0l-3.7 -0.9l-3.9 -1.3l-8.1 1.2l-5.2 2.1l-8.4 0.6l-0.3 20.5z"/><path data-id="41061" d="m723.8 164.1l0.1 15.5l5.1 0l0 10.7l13.5 0l-0.1 20.4l3.6 0l0 14.8l6.2 0.1l3.9 1.8l0.2 3.9l3.9 -2.5l1.7 0.8l3.3 -3.3l2.2 0.7l3.4 1.9l2.4 2.6l2.1 -0.6l0.8 1.2l3.9 -0.1l3.8 -5.4l-0.1 -3l2.4 -1.9l4.2 0.3l2.3 -2.1l1.5 -3l4.7 0.7l2.8 4.3l4 2.2l4.7 1.7l3.7 -0.3l5.9 -4.1l3.1 -3.3l1.1 -3.4l1.8 -1.4l1.3 1.9l2.4 -0.7l3.1 5.7l1.7 -1l2.7 3.2l0.5 3.7l26.4 -0.1l0.1 -15.1l36.8 -0.2l0 -15.1l-26 0l0 -7.6l-5.5 0l-0.2 -10.2l-2.5 0.1l0 -5l-2.5 0l0 -2.5l-2.5 0l0 -4.9l-7.6 0.2l0 -5l-2.5 -0.1l-0.1 -11l-2.4 0l0 -15.3l-5.3 0.1l0 -18l-2.3 0.1l0 -7.8l-2.6 0.1l0 -5.2l-2.6 0l-0.1 -14.9l5 0l0 -15.5l-27.9 0.1l0 7.8l-8.9 0l0 7.7l-2.6 0l0 15.1l-6.3 0l-0.1 30.7l0.2 7.7l-10.1 0.1l0 7.6l-5.4 -0.3l-15.4 0l-2.2 -2.4l-2.6 0l0 2.4l-2.9 0l0 13l-22.8 0l0 2.7l-5.3 -0.9l-5.1 -0.1z"/><path data-id="41063" d="m812.8 48.2l0 24.9l28.5 -0.1l0 15.5l-5 0l0.1 14.9l2.6 0l0 5.2l2.6 -0.1l0 7.8l2.3 -0.1l0 18l5.3 -0.1l0 15.3l2.4 0l0.1 11l2.5 0.1l0 5l7.6 -0.2l0 4.9l2.5 0l0 2.5l2.5 0l0 5l2.5 -0.1l0.2 10.2l5.5 0l0 7.6l26 0l0 15.1l59.6 0.4l-0.1 -1.7l0.1 -1l1 -2.1l2.5 -1.5l2.9 -4.5l0.9 -4.1l0 -1.5l1.8 -5.5l0 -2.5l0.7 -4l0.9 -2.6l0.6 -1.6l1.2 -1.2l0.8 -1l0.2 -1.2l0.1 -1l-0.1 -1.6l-0.3 -2.9l0.1 -1.3l2.5 -5.2l3.3 -6.5l0.9 -1.8l2.7 -2.6l0.6 -2.6l0.5 -2.7l0.8 -1.1l2.2 -1.9l1.2 -0.5l0 -1.7l-0.5 -1.3l0.7 -3.4l0.6 -2l1.6 -2.6l1.5 -3.8l2.6 -3.5l1.5 -1.4l1 -0.6l2.3 -4.4l0 -2.3l-1.2 -1.7l-0.6 -1.1l-0.6 -1.5l-0.7 -1.7l-0.8 -1l-2.2 -2.6l-1.4 -1.3l-1.4 -2.5l-0.3 -4.1l0.3 -3.4l-1.4 -2.9l-1.6 -0.7l-2.2 -2.2l-1.9 -2l-1.5 -0.4l-3.3 -0.7l-1 0.6l-2.4 0.3l-2.5 -2.5l-0.8 -2.3l-1.3 -2.5l-1.4 -0.9l-3.5 -0.2l-1.1 0.8l-1.2 0.8l-1 0.1l-2.4 -1.6l-0.7 -1.2l0.1 -1.5l-0.3 -1.7l-0.5 -1.1l-2.4 -3.8l-1.9 -1.6l-1.7 -1l-1.7 -2.1l-1.1 -2.3l-0.4 -1.2l-0.7 -3.8l-1.4 -2.4l-0.8 -2.8l-2.3 -2.6l-0.6 -1.2l-3.1 -0.2l-5.6 -0.1l-8.1 0l-2.3 -0.1l-17.6 -0.1l-15.5 -0.1l-2 0.4l-4.6 -0.4l-6.1 0l-4.4 0.1l-3.7 -0.1l-12.2 -0.1l-14.1 -0.2l-32.1 -0.2z"/><path data-id="41065" d="m339.6 222.7l0.5 5l1.8 6.6l4.2 2.6l0.6 2.8l4.1 1.5l-2.5 3.5l-2.3 4.3l1.4 2.6l-1.3 2.9l3.5 0.8l78.6 0.4l21.5 0.1l67.3 0.2l-3.6 -1.5l-1.5 -3.8l-5.3 -2.4l-0.4 -2.8l2.8 -2.2l-1.8 -2.5l-2.2 -0.8l-0.5 -3.9l-1.9 -2.7l1.3 -5.2l-1.1 -4.5l0.5 -8.7l-1.6 -2.2l-1.1 -2.7l-1 0l-4.2 0l-2.8 0l-6 0l-2.9 0l-4.5 0l-4.4 0l-1.9 0l2.77556e-17 -1.1l-0.2 -1.2l0.5 -1.2l0.7 -1.2l-0.1 -1l-0.6 -1.2l-0.2 -1l-1.2 -0.9l-1.1 -0.2l-1.2 -1.2l-1 -0.1l-0.4 -1l-0.9 -1.1l-0.1 -1l-1 -0.2l-1 -0.2l-1.3 -0.2l-1.1 -0.6l-1.3 -0.8l-1.2 -0.8l-1.1 -0.4l-0.7 -1.1l-1 -0.6l-1 -0.8l-1 -0.3l-1.5 -0.7l-1.1 -0.2l-1.1 -0.2l-1.5 -0.3l-1.1 0.8l-1.2 -0.4l-1 -0.4l-1.3 0.8l-1.1 -0.6l-1.2 0.7l-1.4 -0.3l-1.1 0.1l-1.2 -0.8l-1 -0.8l-1 -0.1l-1 -0.7l-0.4 -1.2l0.4 -1.1l-0.2 -1.1l-0.2 -1.2l0.3 -1l-0.2 -1.3l0 -1.4l0.1 -1.6l-0.3 -1.1l0.5 -1.5l-1 0.2l0.4 -1l0.6 -1.3l0.7 -1.8l1 -0.3l1.7 0.3l0.7 -1.8l1.2 -0.5l0.4 1.2l0.6 1.4l1 0l0.8 -1.3l0.8 -1.2l0.3 -1.3l-1 -0.7l1.2 -0.3l1.2 0.7l0.1 -1.1l-0.8 -1.3l1.7 -0.4l0.7 -1.2l0.3 -1.2l1.1 -0.1l1.1 0l0.1 -1.5l1.4 -2.4l1.2 -1.4l1.3 0.5l0 -1.2l0 -1.6l0.3 -1.8l0.5 -1.4l1.3 -0.7l-0.2 -1.2l-1 -0.6l-0.4 -1.5l0.5 -1.1l0.2 -1l1.6 -0.8l1.3 -1.2l-0.2 -1.1l-0.2 -1l0.6 -1.7l0.1 -1l-0.5 -1.3l1 -1l0.2 -1l-1.5 -0.3l-1 -0.5l-1.1 -0.9l-1 -0.7l-1 0.3l-1.4 -0.9l-0.4 -1.3l-1.3 -0.7l-0.2 -1l-0.9 -1.2l-0.2 -1.3l0.3 -1l0.3 -1.5l1 -1.7l-0.4 -1.5l-1.1 -0.9l-0.2 -1.4l0.7 -1.7l-0.3 -1l-0.9 -1.7l-0.2 -1.3l-3.5 -2.7l-1.1 -0.1l-3.1 1.3l-3.7 -0.7l-3.2 0.4l-3.8 -0.3l-2.5 0.8l-4.3 4.4l-0.2 1.3l-1.2 1.1l-1.6 0.3l-2.8 0.3l-2 -0.1l-1.6 -1.8l0.2 -2.3l-0.6 -3.6l-1.9 -3.8l-4.4 -1.3l-4.5 -1.5l-3.1 -2.3l-3.2 -0.9l-4.3 0.3l-3.6 1.8l-2.7 -0.2l-2.2 -0.6l0.1 31.4l-5.1 0l0 46l-26.5 0l1.9 1.3l-0.2 3.8l-1.9 0.4l-2 2.7l-4.2 1.1l2.1 6l0.8 2l1.7 1.1l0.4 3.3l1.8 3l1 -1.2l2.4 0.7l1.8 5.4l-1 1.6l0.1 2.3l-3.5 -0.2l-4.3 3.7l0.7 1.4l-3 0.6l-4.7 -0.5l-0.3 3.8l-2.9 0.7z"/><path data-id="41067" d="m131.9 146.3l-0.1 2.5l2.6 0l40.1 0l0.6 2.6l2.5 0l0 2.6l6.4 -0.1l3.8 0l0 2.5l2.6 0l0 2.6l5.1 5.2l5.8 0.1l1.8 5.1l5.1 0l2.6 0l0 -5.1l5.1 0l0 2.6l7.6 -0.1l0 -2.9l0 -9.2l0 -4.4l0 -1.3l0 -6l0 -3.8l0 -2.8l0 -2l-2.5 -0.5l0 -2.5l-2.5 -2.6l-2.6 -2.6l-2.6 -0.6l-2.6 -2l0 -2.5l-2.6 0l-0.1 -2.5l-2.4 0l0 -2.5l-2.6 -0.1l-2.5 -3.9l0 -13.9l0 -2.5l-7.6 -0.1l0 -2.5l-5.1 -0.1l0.1 -4.9l-38.3 -0.1l-2.6 0l0.1 12.6l-15.3 0l0 5.2l2.6 0l0 2.5l2.5 0l0 2.6l2.6 0l0 2.6l5.3 0.1l-0.1 2.4l5 0l0 2.6l5.1 0l0 2.5l-2.6 0l0 2.5l-5.1 0l0 5.1l-5.1 0l0 2.5l-2.4 0l0 2.5l-2.6 0.1l0.2 5.3l-2.5 -0.1l-0.3 7.8l-2.7 0z"/><path data-id="41069" d="m501.6 212.8l1.6 2.2l-0.5 8.7l1.1 4.5l-1.3 5.2l1.9 2.7l0.5 3.9l2.2 0.8l1.8 2.5l-2.8 2.2l0.4 2.8l5.3 2.4l1.5 3.8l3.6 1.5l-4.1 4.7l2.3 5.8l-0.1 34.3l0.1 22.2l45.1 -0.5l0.1 8.5l15 0l0 14.3l30.1 -0.1l0.4 -89.6l-2.4 0l-0.1 -30l-14.7 0.1l0.1 -12.8l-14.8 0l-5 0.4l-22.4 -0.3l-44.9 -0.2z"/><path data-id="41071" d="m94.9 186.8l0 24.5l7.4 0.1l28.3 0.2l52.7 0l4 -4l2.2 -0.6l2.6 -2.8l-4.5 -6.3l1.3 -1.8l2.8 -0.4l-1.8 -2l-0.6 -4l-2.6 0.2l-1.2 -2.2l1.2 -1.7l5.2 -0.6l0.5 -2.2l-0.5 -4.4l2.9 -2.2l0.2 -1l3.4 2.2l4 0.1l1.8 1.8l4.7 0.7l1.5 -1.1l-2.2 0l0 -10.1l-5.1 0l-1.8 -5.1l-5.2 0l-5.7 -5.3l0 -2.6l-2.6 0l0 -2.5l-3.8 0l-6.4 0.1l0 -2.6l-2.5 0l-0.5 -2.6l-40.2 0l0.1 10.4l0.1 17.6l0 10.2l-39.7 0z"/></svg>
