<?xml version="1.0" encoding="UTF-8"?>
<!DOCTYPE svg PUBLIC '-//W3C//DTD SVG 1.1//EN' 'http://www.w3.org/Graphics/SVG/1.1/DTD/svg11.dtd'>
<svg viewBox="0 0 10000 7375.53" xmlns="http://www.w3.org/2000/svg">
  <g data-id="001">
    <path d="m7459.3 2764.3l0 0l1 15l5.4 13.1l6.8 19.3l4.6 13.3l0 4.6l6.2 0.2l7.9 4.2l7.6 -0.5l6.5 3.5l4.6 0.5l9.1 8.8l13.9 1.2l11.9 7.2l6.9 0.6l8.2 -4.8l6.3 2.3l5.5 -3.3l7.6 5.2l3 5l7.2 5.8l3.5 3.5l2.8 1.4l5.9 -0.1l5.8 -1.4l8.1 0.5l7.3 -1.7l6.2 -3.2l7.5 -0.3l12.7 10.6l12.7 2.7l5.6 7.4l8.6 7.8l0.5 5.8l-1.2 4.7l2.2 7l2.6 8.9l1.7 6.9l7.9 2.9l4.3 0.6l12.4 6.4l7 12.4l0.9 9.2l5.1 11.5l-3.8 6.8l-5.2 6.6l1.1 4.9l-3.2 3.7l-1.2 7.7l-6 7.4l-2.8 4.3l-4.4 -2.3l-4.6 -3.1l-6.7 -0.3l-0.2 -1.5l-4.5 2.8l-2.7 5.5l-3.9 5.2l-1.6 9.3l-0.2 3.1l-0.9 3.3l-3.3 2.2l-3.8 8.4l-5.8 9.4l-5.2 1.3l-4.3 0.8l-5.2 8.8l-0.1 8l2.3 8.5l-3.1 6.4l-3.4 11.3l0.1 7.8l2 4.4l3.3 5l4.7 9.5l3.3 14.1l1.4 14.1l-2.2 8.4l3 3.9l-4.9 7.4l-5.4 5.5l-4.2 6.1l-5.6 2.1l-4.3 -1.1l-6.1 5.1l-5.7 2.5l-5.8 -1.4l-6.6 1.3l-6 5.1l-9.4 -0.2l-4.7 -2.3l-5.7 9.7l1.7 12.1l1 10.1l0.2 12.7l-4.3 8.7l-3.9 10.3l-3.4 6.2l-1.6 9l-5.5 7.9l-0.1 10.6l3.3 2l4.1 -0.9l2.3 2.3l1 8.4l6.1 11.8l9.4 8.3l5.2 8.1l0.8 5.9l-3.4 -0.6l-6.6 1l-16.3 4.8l-3.7 9.3l-1.3 10.9l-1.4 5.3l-4.5 6.3l-7.7 1.6l-10.1 2.8l-6.4 14.9l-6.1 7.8l-6.7 6.4l1.3 17.4l-4.9 4.4l-3.9 2.2l-5 6.3l-2.7 8.8l-3.4 10.9l-2.6 7.7l-2.7 7l-2.3 8.3l-4.5 1.9l-3.8 6.2l-3.1 12.6l2.3 23.2l27.1 16.1l32.5 -0.2l61.6 -0.7l43.5 0.2l13.2 -2.4l69.8 -0.2l65.1 -0.4l15 1.8l48.1 -0.1l-0.1 -25l50 0l0.6 -49.8l25.1 0l-0.3 -25.6l25 0.1l0 -25l24.7 0l6.3 -50l18.7 0.1l-0 -25l24.7 0l-0.1 -31.2l24.9 0.1l0.2 -43.7l25 0l0.1 -25l48.8 0.6l0.2 -25.2l470.9 -1.3l-0 25l26.3 0.1l-0.1 24.9l49.8 -0.1l-0.1 24.9l25 -0.2l-0 24.8l27.8 -0.2l-0.3 150.3l330 -1.9l2.7 -10l1.3 -1.8l2 -1.5l12 -4.6l2.7 -2.1l13.7 -27l0.8 -1.7l2.1 -9.3l0.1 -2.7l-7.9 -16.9l-1.5 -1.8l-11.9 -13.5l-4.5 -4.3l-7.8 -4.3l-13.6 -13.5l-8.9 -10.2l-9.8 -29.6l0.4 -9.6l9.7 -5.4l9.7 -10.2l1.9 -3.7l8.9 -22.4l4 -11.2l0.5 -36.1l-1.2 -9.9l-1.8 -9.2l-5.6 -19.2l-3.6 -6.5l-1.6 -5.8l-0.2 -3.8l1.1 -5.1l1.2 -2.4l9.6 -4.2l6.5 1.4l2.7 -0.5l10.8 -11l7.3 -13.6l2.3 -5.9l1.4 -6.1l-0.4 -5.4l2.3 -6.1l5.4 -10.2l4.7 -6.4l17.8 -0.8l7.6 -3l10.7 -11.5l3.9 -7.5l6.3 -16.5l1.5 -20.1l-6.2 -8.5l-0.4 -3.9l2.7 -7.3l4.4 -4.9l5.5 -2.7l5.1 -3.9l9.8 -11l1.6 -4l-0.6 -17.3l5.9 -36.2l3.4 -9.5l3.8 -8.2l8.1 -3.9l12.4 -23.6l4 -19.7l-2.3 -9.3l1.1 -12.8l5.7 -7.1l12.9 -26.7l0.3 -4.4l1.8 -9.5l8.5 -14.5l10.4 -5.4l2.5 -5.3l1.7 -26.1l-2.2 -9.5l22.3 -31.3l7.4 -5.3l30.2 -15.1l9.6 1.4l8.8 -0.6l8.5 -4.9l6.8 -5.6l10.8 -9.8l6.1 -8l2.5 -2.3l5.1 -2.3l22 -4.9l15.1 -8.5l2.6 -1.7l3.6 -5.7l1.4 -4.7l-0.1 -1.9l-2.8 -6.1l-0.9 -4l0.1 -3.5l3.2 -10.5l3.7 -6.3l9.4 -10.5l18.2 -35.6l5.9 -11.8l5.9 -11.8l15.6 -17.3l22.6 -21.5l10.3 -17.7l5.7 -11.9l2.4 -10.4l5.5 -20.5l4.9 -16.9l4.5 -15.2l6 -9.4l1.8 -4.2l0.2 -2.9l-4.6 -13.3l-13.3 -19l-5.3 -11.5l-0.8 -3l-8.5 -33.1l1.9 -9.7l13.2 -27.2l1.8 -2.7l-0.2 -24.3l-1.3 -5.5l-2.7 -5.7l0.1 -1.5l8.2 -14.5l13.8 -7.7l6.2 -4.4l20.5 -22.4l13.9 -16.8l16.8 -29.2l-0.1 -2.3l-596.2 -4l-367.8 2l-0.7 151.5l-263.9 1.2l-5.3 -37.5l-27.3 -32l-17.5 10.4l-31.4 -57l-23.7 7.1l-13.2 -19.5l-17.8 14.2l-10.8 34.1l-31.1 32.7l-58.7 40.9l-37 2.6l-47.1 -16.9l-40.1 -22.5l-27.9 -42.6l-47 -6.8l-15.1 30.4l-23.1 21l-41.9 -2.8l-24.2 18.8l0.8 30.4l-38.1 53.8l1.2 2.7l-0.7 6.1l0.4 4.5l-0.8 6.5l1.5 5.3l4.7 1.8l3.5 2.4l5.1 1.8l4.5 -0.7l2.1 2.3l2.5 2.6l1.1 4.8l-1.8 3.7l-1.9 8.9l-0.6 3l-4.8 4l0.6 5.2l2.8 3.1l0 7.6l-4.1 5.6l-4.5 3.5l-1 5.4l2.1 3.5l-1.6 9.5l5.8 8.6l0.1 10.6l3.4 12.4l3.2 6.2l0.3 5.2l-1.3 2l-1.3 5.5l0.4 5.6l-1.8 4l-6.7 3.5l-8.4 0.2l-9.6 -2.9l-2.8 -0.3l-4.2 0.3l-7.3 -1.6l-5.1 -3.1l-2.2 -2l-2.9 -1.3l-2.4 1.1l-6.2 3.1l-6.4 1.6l-9.6 -0.8l-5.3 2.9l-2.2 1.9l-1.3 4l1.8 4.1l0.2 6.3l0.2 4.2l-8.3 6l-6.8 4.3l-1.4 6.6l-4.5 4.5l-6.1 5.6l-1.6 4.5l3.7 3.3l5.4 2.7l2 4.1l-1.8 6.4l-1.3 2.8l1.9 3l2.9 1.6l0.9 3.7l3.4 1.8l6.7 2.5l4 5.5l0.4 6.2l-2.6 4.6l-1.6 8.2l1.6 5.4l-2.4 2.1l-0.1 4.1l1.5 2.5l3.8 6.5l1.3 4.7l-0.7 3.8l1.3 5.8l5 7.3l4.3 7.3l1.1 7.6l-3.4 4l-2.6 5.7l3.4 13.7l-4.3 11.1l-5.8 5.3l-8 -0l-7.6 2.9l-12 2.2l-9.4 3.5l-7.6 -2.4l-12.4 -2.1l-16.9 -1.1l-5.9 -0.7l-10.2 -3.3l-10.5 3.4l-6.9 6l-2.9 4.8l-4.4 5.9l-7.7 11.3l-4.5 5.2l-4.7 0.9l-3 1.7l-6.7 -2.6l-5.7 -1.4l-6 2.8l-1.1 5.9l-3.8 4.7l-9.7 0.2l-9.2 -3.9l-5.2 -3.4l-6 1.2l-2.4 2.3l-13.1 10l-1.2 3.7l-1.3 7.2l-1.9 3.3l-3.5 2.3l-3.2 1l-1.3 1.4l-5.2 -0.8l-3 -5.4l-9.7 -2.9l-8.4 -3.2l-3 -3.1l-4.1 2.8l-2.1 1.5l-5.6 4.3l-8.9 4l-9.2 2.4l-2.1 2.6z" />
  </g>
  <g data-id="003">
    <path d="m909.6 3386.7l0 0l0.2 50.7l50.4 -1.5l0.2 56.3l74.4 -0.7l150.9 12.5l274.3 -7.5l52.8 -4.7l183.3 0l-13.2 -6.7l-7.7 -36.2l-24.2 -5.3l0 -23l-35.6 -12.4l21.1 -21.6l-8.3 -20.6l19.6 -6.1l-31.6 -41.6l25.9 -15.4l-6.6 -38.1l12.3 -7.6l-10.7 -21.6l23.3 -5.8l4.8 -13.5l-13.8 -44.1l2.5 -39.1l2.2 -24.2l-31.5 -39.9l-18.9 -1.6l14.4 -27.2l-22.7 -18.3l8.1 -30.1l39.3 -21l45.7 -5l-12.9 -30.4l29.1 -27.9l0.9 -23l82.5 -8.8l37.8 -19.4l-23.4 -44.1l-30.1 -1.9l-5.2 -24.5l-34.5 -50.7l-40.8 0.2l-148.2 0.4l-271.4 -1.8l-73.6 2.6l-26.8 -3l7 121.7l1.3 250.5l-2.2 127.6l-151.3 -0.5l-0.1 75.9l5.7 50.2l-24.2 0.2l0.2 25.2l-101 2z" />
  </g>
  <g data-id="005">
    <path d="m2082.5 1691l0 0l-0.2 101.3l22.4 -0l0.1 -0l18.7 -24.8l61.8 -0.1l0 25.2l25.3 0l31.2 0.3l-3 0.5l-13 29l3.5 7.6l-1.2 8.1l5.9 1.5l-15.1 41.5l5.3 37.9l-4.6 25.8l-24.8 34.3l-14.4 40.4l47.6 39.1l8.3 20.3l29.2 29.2l18 36.1l43.5 21.6l25.6 24.9l18.4 -2.4l48 24.8l3.8 53.9l31 11l9.4 30.4l29.4 49l22.8 7.6l11.7 23l26.9 -5.4l34.4 13l21 19.6l51.8 -0.2l6.4 8.9l6.6 23.1l771 0l38.4 -0l24.5 -35.2l-40.7 -15.2l-6.3 -27.8l-42.4 -25.6l-18.4 -65.6l-4.5 -50.3l29.4 -6.8l3.5 -38.2l46.6 5l29.7 -6.3l-6.6 -14l43.4 -37.4l35.3 1.8l-1.1 -23.2l10.2 -16.1l-17.7 -54.2l-23.8 -7l-10.4 11.8l-18.1 -30l-4.4 -32.9l-16.9 -11.4l-7.6 -19.8l-20.8 -60.5l41.5 -10.8l20.1 -26.7l19.5 -4.5l2.1 -37.9l-19.3 -12.9l21.5 -69l-29.9 -59.9l7.1 -74.6l-33 -35.2l-64.3 -15.9l-20.5 -22.1l-17.5 -35.4l0.1 -34.1l-15.8 -12.4l-9.3 2.6l-192.9 -2.1l-172.4 0.3l-4.8 2.1l-317.2 -2.2l-178.4 0l-24.9 0.4l-13.3 -0l-12.6 -0.5l-34.6 -0.2l-6 -0l-49.6 -0l-24 6.5l17.9 27.1l-2.7 17.1l-69.6 -0.6l-35.1 -0.3l-6.3 -0.1l-6.4 -0.1l-0.3 12.8l0.1 41.1l0.1 3.4l0 92l0.2 28.8l-76.3 0.5l-0.1 -25.5l-50.5 0.3l-0.1 50.9l-26.4 -0.3z" />
  </g>
  <g data-id="007">
    <path d="m668.9 62.2l0 0l-16 12.5l17.3 10.3l16.8 34.9l28 62.8l18.5 48.4l14.4 45.6l17.5 79.3l5 52.9l1.8 57.7l-11.8 57.4l-5.4 2.9l-19.3 2.1l-15.5 9.5l-29.3 40.4l0.8 13.5l16.7 15l14.7 40.1l6.1 67.2l1.5 58.3l-9.7 95.8l308.5 -0.2l-0.2 18l290.4 -4.6l-0.1 -7.7l152.7 0.8l3.5 -101.2l-1.9 -52l-8.7 -308.6l4.6 -190.4l-9.5 -0.1l-73.5 -63.3l4 -84.9l-24.7 -36.6l-26.1 -26.3l-7.5 -5.9l-5.9 -2.3l-26.7 -3.3l-18.5 8.7l-12.6 4.9l-14.5 5l-11.8 2.7l-0.7 19.4l-47 35l-19.5 7l-21.7 16.9l-15.9 3.8l-14.7 0l-20.6 -5.6l-7.3 -3.5l-8.8 5l-1.9 5.4l1.5 25.4l-23.8 15l-30.6 1.5l-11.9 -13.5l-9.8 -8.4l-12.4 -6.3l-14.6 -14.7l-7.1 3.5l-4.4 8.5l-6.2 5l-14 8.8l-13.3 4l-34.5 10.7l-21 -3.4l-31.4 4.8l-3 3.3l4.1 9.5l27 22.4l-1.6 16.6l-14.8 5.7l-45 -13.3l-16.1 -8.1l-10.1 -18.1l-18.1 -21.7l-28.6 -22.3l-28.2 -15.3l-19.7 -25.9l-11.4 -14.6l-4.9 -3.6l-11.6 2z" />
  </g>
  <g data-id="009">
    <path d="m1469.5 222.7l0 0l-4.6 190.4l8.7 308.6l1.9 52l-3.5 101.2l26.2 -0.5l382.7 1.2l-1.2 49.2l51.3 1l-0 25.5l76 1.4l-0.3 25.2l178.5 0.9l27.9 -13.5l2.6 -10.3l-1.1 -28.3l-0.6 -15.6l-10 -38l-32.2 -52.2l-0.4 -26.6l12.7 -34.1l0.2 -11.2l0.6 -30.5l-16.2 -29.5l-16.6 -50.4l6.6 -35l-9.6 -50.8l-29.2 -35.3l-22.9 -59.9l-27.1 -29.9l-6.6 -43.4l-1.3 -8.2l-24.3 -41.8l-72.4 -37.6l-51.4 -51.7l-6.4 -4l-15.7 -5.5l-14.4 -9.3l-9.2 -3.6l-12.1 -12.9l-66.7 -43l-13.5 -13.6l-62.4 -6.6l-57.7 29.3l-22.4 11.4l-24.8 17.3l-35.8 20.7l-25.8 0.4l-38.7 -2.7l-38.8 -0.3z" />
  </g>
  <g data-id="011">
    <path d="m111 5699.5l0 0l-21 62.7l273.5 -1l23.5 35.8l24.4 -0.1l6.7 50.3l29.9 12.3l11.5 24l24 -1.8l-0.9 23.2l25.5 32.3l0.4 37.3l-24.1 0.3l-5.2 17.6l5.8 46.7l0.2 84.4l26.3 -0l7.1 123.2l17 -19.6l36.3 0.2l0 -12.2l115.7 -0.3l-0 -24.3l24.3 -0l0.1 -24.3l24.3 -0l-0.1 -24.4l24.4 -0.1l14 -17.9l0.3 -58.6l70.7 -0.5l23 -23.8l47.4 0.3l-0.3 -59.4l-10.7 -0l1.2 -144.3l-2.5 -25l0.5 -121.3l73.6 -0l0.3 -146.9l67.1 -0.5l6.1 -6.1l-3.2 -289.3l-73.7 -0.5l1.9 -220.8l-2.6 -74.1l-65.2 0.4l1.2 -145l-72.9 0.9l-0.1 -157.7l-231.5 -2.1l-46.7 -2.7l-145.8 0.5l-18.3 91.8l-27.3 93.7l-38.7 112.2l-34.8 81.5l-32.9 63l-0.1 0.1l-14.4 14.6l-24.4 6.3l-18.1 22.1l-18.8 34.1l3 6.4l7.9 4.9l6.3 14.8l8 34.6l-16.3 78.5l0.4 21.7l-7.9 44.4l-27.7 98.4l-12.8 18.4l2.7 31.5l-4.9 44.1l-25.6 120.1l-7 15z" />
  </g>
  <g data-id="013">
    <path d="m4257.8 3529.3l0 0l-0.2 75.1l7.1 81.3l0 57.3l142.8 7.1l0.8 297.9l294.6 6.1l0.5 147.6l456.3 -1.8l0.8 149l148 0.2l0.8 148.1l49.7 2l395.8 -1l148.2 0.4l2.6 -447.5l146.1 0.3l2.7 -449.8l-0.6 -149.8l-301 0.7l-0.3 -143.4l-150.1 -0.2l-1.1 -85l-450.6 4.7l-0.6 -221.7l-545.2 2.1l0.8 149.6l-200.2 0l0.6 149.3l-147.3 -0.6l-1 222.2z" />
  </g>
  <g data-id="015">
    <path d="m0 5954.2l0 0l10.2 29.7l10 14.8l14.4 41.1l10.1 60.9l1.9 28.3l1.6 2.9l4.1 0.5l13.5 -6.5l0.8 -4.2l8.4 -1.2l22 15.3l31.5 71.9l1.2 8.7l-4.9 11.7l0.9 3.3l42 23.9l4.5 6.2l14.8 51.7l2.2 15.3l-1.9 34.5l13.5 38.2l-0.8 13.7l-10.4 44.7l-27.6 80.8l-2.1 21.4l1.3 29.7l-16.2 35.3l0.3 8.8l8.4 24.4l4 41.7l1 30.4l-1.8 42.4l-2.1 28.4l-2.6 5.2l23.2 40.7l6.7 49l-4.2 29.3l-3.7 10.8l0.7 6l33.8 39.1l7.3 13.9l2.7 16.7l-0.8 20.8l1.6 5.4l2.2 4.9l6.7 3.2l8.3 12.6l0.9 30.8l-3.8 6.1l-4.3 0.2l1 10.2l5.5 14.3l7.3 3l4.8 11.7l0.3 8.6l-6.9 19.6l1.1 5.1l18.8 36.7l33 41.7l18.1 26.9l15.2 9.5l20.9 0.8l69.5 65.9l3.2 12.4l105.6 2.4l31.2 0.1l0.9 0.2l15.3 -0.1l1.4 0l105.7 1.2l206.4 0l15 1l0.5 -1.1l2.1 -2.6l-2.1 -3.7l-5.8 -3.2l-2.4 -6.9l1.4 -2.9l-2 -3.9l-3 -2.5l-7.2 -4.9l-2.6 -8.1l2.3 -3.4l-2.8 -15.1l-8.6 -12.6l0.7 -16.7l6.5 -7.2l-0.3 -10l3.9 -5.7l4.2 -3.3l2.5 -6.1l4.1 -4.2l1.5 -5.4l3.5 -17.7l1.5 -9.6l-7.5 -14.3l-2.6 -14.7l-6.7 -6.6l-3.4 -13.8l-1.8 -10.3l-5.7 0.5l-10.7 -9.9l-2.8 -10.5l10 -14.1l6.9 -3.3l6 -9.2l6.9 -2.5l6.3 -1.5l3.1 -3l3 -1.9l3.6 -7.8l6.8 -6.5l-0.1 -6.9l0.9 -8.6l-3 -14.8l-4.9 -6.8l-0.6 -8.8l9.2 -21.6l9.4 -15.1l10.7 -3.6l5.2 -8.9l-0.5 -5.3l-0.5 -6.7l1.7 -5.8l-0.2 -2.7l-2.7 -1.5l-4.3 -1.2l-5.2 -2.3l-8.7 -3.2l-1.8 -7.8l-0.6 -7.7l-3.1 -6.8l-2.7 -13.8l-5.4 -2.2l-4.2 -4.7l-2.4 -5.2l-1.1 -12l-5.1 -5.3l-2.6 -5.3l-3.8 -4.6l-2.9 -4.3l0.6 -8.2l-6 -5.4l-4.1 -2.2l-2 -5.4l2.3 -5.6l5 -13.3l-5 -7.7l-13 -2.9l-11 -4.1l-8 -5.3l-1.6 -4l-3.4 -4.5l-1 -5.2l-2.6 -4.5l0.1 -8.3l-1.9 -8l-2.4 0.1l-2.9 -3l-2 -3l-5.2 -4.8l-4.2 -0.4l-4.7 3.2l-2.7 2.1l-1.5 0.1l-2.7 0.3l-2.5 1l-8.6 1.5l-4.7 1.7l-2.9 0.2l-2.2 0l-4.3 -4.1l-5.1 -5.8l-4.9 -2.5l-3.9 -3.8l-1 -6.6l-2.2 -2.4l-3 1.1l-3 2.2l-2.8 2.3l-5.6 2.3l-5.7 -0.5l-7.7 0.2l-7.7 -0.9l-4.9 0.4l-6.4 -1.4l-5 -0.8l-6.1 0.5l-5.1 -0.7l-8.5 0.5l-5.3 -0.3l-4.1 -0.3l-8.5 0.1l-5.8 -0.7l-4.4 -1.9l-3 -2.3l-4.7 1.9l-1.4 1.1l-3.8 -1.4l-1.6 -2.9l-1.5 -3.3l-2.5 -3l-1.4 -2.9l-1.5 -2.1l-1.3 -4l1.4 -6.5l-0.8 -4.6l-1.5 -3.5l-1.9 -4.9l-1 -2.3l-2.7 -2.4l0.5 -3l1.2 -0.9l3 -3.9l0.3 -2.5l0.3 -2.5l0.8 -2.6l0.7 -2.3l0 -5.1l0.6 -3.5l3.1 -1.4l2.9 -0.4l3.4 -1.4l1.3 -3.4l1 -2.5l2.3 -0.4l3.5 -0.9l2.1 -3.3l2.7 -1.1l1.7 -2.2l3.8 -0.9l1.6 -4.6l2.9 -4.5l1.2 -2.5l-0.9 -3.1l-1.8 -0.5l-1.5 -1.4l1 -4.8l1.1 -4.5l-4.4 -5.2l0.7 -7l3.2 -7.3l5.8 -4.9l4.6 -2.5l-0.6 -4.5l-1.7 -3.6l0.9 -4.5l1.2 -1.6l1.6 -3.5l-2 -2.8l-3.7 -5.7l2.1 -4.3l2.2 -1.1l1.6 -6.6l-2.1 -6.6l1.4 -11.6l-0.5 -10.3l-3.6 -5.1l-3.3 -3.2l-2.6 -0.8l-1.6 -3.4l1.9 -5.8l2.4 -2.3l3.9 -0.9l3.9 0l1.3 -1.6l0.8 -2l1.6 -2.3l5 0.5l0.9 0.5l1.9 -1.3l2 -1.7l1.5 -0.5l1.9 1.2l0.6 1.6l0.4 2.7l3.7 1.7l5.7 0.4l3 0.7l2.3 0.9l3.3 1.8l4.9 -2.8l5.2 -0.4l2.9 -1.8l2.5 -0.1l3.6 -0.4l2.5 -0.5l5.2 -2l4.2 -0.8l3.3 -1.2l4.9 0.6l3.1 0.5l2.3 1.7l1.3 2.4l2 3.6l3.2 0.1l1.9 0.2l0.2 1.1l3.2 1.5l3.4 -1l5.4 0.5l2.6 -1.8l3.7 -0l3 -1.7l4.1 -0.4l4.1 -2.9l4.9 0.3l4.6 -0.6l3.5 -0.4l3.2 -1.4l2.7 -1.3l1.4 -3.2l2.7 -1.1l1 -2.3l0.6 -2.2l0.1 -1.8l1.5 -2.3l4.1 -1.1l1.3 -2.6l-0.5 -1l1.1 -1.6l1.7 -0.8l2.4 -0.3l0.4 -2.2l-1 -1.5l0.3 -2.5l-1.2 -3l-1.1 -2.2l-0.7 -2.9l0.4 -4.7l1.5 -2.2l1.9 -2.7l1 -4.5l2.2 -3.5l1.4 -2.4l3.7 -4.6l2.9 -3.5l1.2 -1.6l0.2 -3.5l3 -2.4l1.6 -1.3l2.2 -3l1.4 -2.8l3.1 -2.3l2.3 -3.9l-1.9 -4l-3 -4.1l-0.7 -2.4l-1.6 -3.8l-0 -3.7l0.4 -2.5l2.9 -4.8l3.2 -3.4l2.2 -4l1.3 -2.9l3 -4.5l0 -3.4l0.6 -3.4l0.1 -2.1l-0.5 -1.9l0.4 -4.4l2.2 -3.1l2.3 -1.6l2.3 -1.4l3.2 -1l3.4 -4l3 -2.4l2.3 -2l3 -2.1l1.9 -3.2l0.2 -4.3l1.6 -4.4l0.5 -5.7l0 -2l2.7 -2.5l3.3 -1.3l2.4 -2l1 -3.4l1.8 -2.6l-0 -2.8l-1.7 -5.9l-3 -5.7l-3.2 -3.8l-2.7 -2.5l12 -38.4l18.9 -30.9l35.4 -57.6l0.8 -1.8l-0.2 -2.1l3.3 -2.7l2.4 -1.8l0.4 -2.2l-0.5 -1.3l1.4 -1.5l1.7 -1l1.8 -3.1l1.2 -4.6l1.8 -2.1l2.3 -2.4l1.2 -1.5l1.1 -0.6l1.1 -2.9l1.4 -2l1 -2.9l1.7 -3.6l0.1 -3.2l-0.9 -1.7l-0.3 -2.1l0.4 -2.9l0.9 -2.1l0.8 -1.9l1.1 -2.1l0.4 -2.6l1.9 -3.8l1.1 -3.2l1.4 -3.7l2.6 -1.4l2 -3.5l1.8 -2.7l3.4 -3.4l2 -4.1l3.1 -4.2l-0.5 -6.6l1.6 -4.3l1.5 -4.7l1.2 -5.3l1.2 -4l2.7 -3.1l1.8 -3l1.9 -3.2l3.7 -0.9l4 -2.8l2.3 -2.7l-0.3 -5.3l1.6 -3.4l2.9 -2.2l0.4 -0.5l-19.6 6.6l-63 -32.5l-34.9 17.8l-47.4 -0.3l-23 23.8l-70.7 0.5l-0.3 58.6l-14 17.9l-24.4 0.1l0.1 24.4l-24.3 0l-0.1 24.3l-24.3 0l0 24.3l-115.7 0.3l0 12.2l-36.3 -0.2l-17 19.6l-7.1 -123.2l-26.3 0l-0.2 -84.4l-5.8 -46.7l5.2 -17.6l24.1 -0.3l-0.4 -37.3l-25.5 -32.3l0.9 -23.2l-24 1.8l-11.5 -24l-29.9 -12.3l-6.7 -50.3l-24.4 0.1l-23.5 -35.8l-273.5 1l-1.6 4.8l-23.7 57.4l-64.7 129.8z" />
  </g>
  <g data-id="017">
    <path d="m3154.9 4621.5l0 0l-2.3 17.8l827.5 -2l410.5 -1.2l35.6 3.3l734.8 -1l2.2 7.6l592.7 0.6l-1.1 -148.7l-395.8 1l-49.7 -2l-0.8 -148.1l-148 -0.2l-0.8 -149l-456.3 1.8l-0.5 -147.6l-294.6 -6.1l-0.8 -297.9l-142.8 -7.1l-0 -57.3l-7.1 -81.3l0.2 -75.1l1 -222.2l-147.4 -0.2l-3.1 -4l-758.9 0.7l-3.4 45.2l10.9 15l-5.3 124.7l20.6 5.2l6.5 34.9l22.9 4.9l17.7 45.4l6.2 66.2l12.2 46.9l-15.6 33.6l14.2 14.2l4.5 65.9l-13.2 36.9l-11.7 8.8l-16.4 39l-21.3 1.6l-19.1 24.8l16.3 43.6l-8.9 29.5l-19.6 31.4l10.7 8.2l-25.5 10.6l-14.9 91.3l-27.6 5.8l-12.4 -12.4l-33 11.5l-14.1 14.1l8.4 12.2l-24.9 38l-27.7 25.3l-0.2 76l14.6 4.8l-6.3 59.9l8.4 19.2l-15.7 26.5l-7.9 8l9.5 63.5l-15.8 76.1l7.1 37.6l19.3 21.6l-43.9 1.9z" />
  </g>
  <g data-id="019">
    <path d="m432 4550l0 0l-19.4 97.2l145.8 -0.5l46.7 2.7l231.5 2.1l0.1 157.7l72.9 -0.9l-1.2 145l65.2 -0.4l2.6 74.1l-1.9 220.8l73.7 0.5l3.2 289.3l-6.1 6.1l-67.1 0.5l-0.3 146.9l-73.6 0l-0.5 121.3l2.5 25l-1.2 144.3l10.7 0l0.3 59.4l34.9 -17.8l63 32.5l19.6 -6.6l-0 74.8l24.3 0.1l-0.2 -24.1l24.5 6.3l-0.1 17.6l118.2 -0.4l18.4 7.1l5.7 30.5l24.3 13l59.5 1.1l36 16.6l48.9 -25.5l27.5 7l4 -24.7l35.3 -0l0.1 -24.4l120.3 12.5l30.9 12.8l0.1 37l24.2 -0.3l23.8 -12.4l36.9 -46.8l35.2 0.1l-0.3 -30.5l48.9 6.1l127.2 0.1l23.5 -12.4l24.6 -14.4l24.3 0.9l-0 -12.2l48.6 0.1l72.9 0.2l71.9 -6.1l-0 -24.4l24.4 -23.8l-0.2 -37l48 8.9l0 -23.9l24.3 -0l0.1 -24.3l24.3 0l-0 -24.4l24.5 -0.1l0 -24.4l48.8 -0.1l-0.1 -26.7l46.4 2.2l0.1 -26l24.9 0.5l0.1 -23.4l24.4 -0.1l0 -24.5l123.7 -1.2l0 -24.5l24.4 -0.1l-0 -24.5l24.3 -0l0 -24.5l24.4 -0l0.1 -22.3l146.2 0.2l0 -16.9l0 -44.4l0.1 -30.7l19.7 -28.5l29.1 -0l42.9 -0l50.2 -0l90.3 0l17.7 -3.4l-3.3 -0.1l-3.8 -3.7l-6 -2.7l-3.3 -9.2l2 -7.4l1 -8l4 -4.6l0 -5.2l1.9 -5.4l3.3 -8.6l0.4 -9.9l3 -10.3l4.2 -5.6l0.5 -4.3l1.3 -4.4l0.4 -3.9l3.5 -6.2l6.7 -7.7l3.1 -6.9l0.9 -6.2l-1.2 -7.6l-1.1 -2.3l-0.5 -1.8l-0.7 -2.5l1.2 -3.6l-0.5 -1.3l2.3 -1.2l1.3 -0.5l3.4 -1.7l4.9 -2.9l2.7 -2.1l0.8 -6l1.3 -5.4l0.5 -3.8l-2.6 -5.7l0.4 -3.2l2.5 -5.6l3.6 -5.8l4.6 -8.3l1.9 -7l5.6 -5.6l0.3 -4.4l-0.1 -2l-0.4 -2.3l-0.7 -2l0.2 -3.3l3.3 -5.9l1.7 -2.9l2.9 -5.1l-2.3 -4.5l-5.2 -9.1l-1.2 -3.2l1.8 -3.3l1 1l2.7 0.1l3.7 -1.6l7.6 -3.2l4.2 -5.5l7.2 -4.8l3.8 -2.3l0.4 -3.6l2.2 -4.9l5.9 -1.9l3.7 0.1l4.2 -2.9l2.1 -3.5l4 -5.9l3 -7.9l1.9 -6.3l3.9 -5.5l8.6 -8.6l5.8 -3.6l-2.5 -7.5l-4.8 -9.6l-6.6 -13.5l-17.9 -9.4l-4.9 -8.6l-1.5 -6.3l0.5 -8.1l2.6 -8.5l5 -5.5l2.7 -4l-1.5 -5.5l-5.3 -6.7l-8.2 -4.6l-3 -8.4l2.7 -9.2l4.2 -12.1l-1.2 -8.1l-1.7 -8.4l-3.9 -7.3l-8.2 -16.3l-4.8 -4.8l-1.8 1.5l-4.9 -6.5l-3.5 -4.4l-6.9 -5.4l-7.3 -8.6l-10.6 -9l-3.8 -3l-3.5 -9.1l-3.9 -10.7l3.3 -5.8l0.3 -4.6l-2.2 -3.3l-3.9 -7.1l-5.2 -2.5l-5.6 -3.8l-10.6 -8.8l-4.1 -6.4l1 -4.4l-5.2 -4.8l-3 -4l-4.9 -1.6l-3.5 4.4l-2.7 -1l-2 -0.8l-0.1 -1.6l-5.4 -4l-13.5 -3.9l-11.9 -5.7l-3.9 -1.4l-3.7 -2.9l1.1 -2l-0 -2l-171.4 0.4l-271.7 -2.5l-22.2 2.1l-141.5 -0.1l-146.9 4.9l-0.2 -182.8l-235.7 0.5l-68.1 9.2l-148.4 -1.7l0.5 -112.4l-37 -0l-0.9 -272.1l-2.7 -25l-257.3 -0.9l0.1 -49.7l-151 -1.4l0.1 -36.2l-72.8 1.9l0.2 -65.6l-62.8 0.1l0.3 -39.2l-49.4 -0.9l0.7 -50.5l-49.3 -1l0.2 -25.4l-55.5 -1.6l-0.2 -11.9l-67.9 0.8l-84.4 -1.6l-31.6 41.7l-24.5 6.6l-37.1 35.1l-29.1 -3.8l0.5 55.8l-26 -9.8l0.3 15.4l-146.3 -2.6l-116.2 0.8l-12 93.9l-31 176l-6 28.4l-8.2 26.5l2.3 10.5z" />
  </g>
  <g data-id="021">
    <path d="m4820 950l0 0l4.1 6.1l1.3 4.8l3.8 12.6l16.2 5.5l12 -1.9l15.8 10.1l8.7 17l15.2 9l18.5 6.4l10.9 13.8l9 13.8l10.4 12.9l2.8 8.1l11.1 -0.5l10.2 -2.1l15 8.3l14.6 5.8l2.3 4.1l1.6 2l3.8 4.7l3.7 3.3l6.4 -0.2l4.2 0.6l1.5 4.8l-1.9 3.6l-1.6 5.1l0.7 4.9l2.4 3.7l3 -2.2l7.4 -1l2.8 3.2l0.6 4l-4.9 2.9l-3.7 2l1.1 6l3.1 1l4.5 4.9l1.7 7.3l5.6 2.1l2.9 4l0.6 4.8l6 2.8l6.7 -3.4l11.2 -8.5l7.4 -1.1l5.2 2.6l0.6 2.3l-1.6 6.1l-5.4 6.1l-0.2 11.9l4.5 9.7l8.1 9.1l7.8 4.3l9.7 -0.1l8.4 1.5l4.9 3.3l1.3 7.7l0.5 13.9l4.3 10.3l3.3 15.5l-4.2 6.3l-1.8 8.9l6.8 6.6l6.5 4.6l6.2 3.6l4.4 4l3 7l3 7.7l4.1 3.9l4.4 1.1l9.4 -0l10 3.1l3.3 4.6l-4.2 4.7l-5.4 -1.2l-8.5 2l-4.1 4.3l-5.4 8.7l5.3 8.1l3.8 1.7l7.7 3.3l6.4 7.6l2.1 7.4l-2.3 6.1l-2.3 5.9l-0.9 3.6l-3.1 4.1l-6.8 3l-2.8 1.1l-6.8 -1.1l-9.6 -4.9l-12.5 -0.4l-15.1 -2.5l-12.4 -2.6l-4.9 0.5l-2.6 7.5l3.9 7.3l2.6 14.5l14.3 5.6l2.7 8.5l-7.6 9.7l-10.1 1.9l-6.5 -4.7l-10.5 -5.3l-9.9 -12.2l-5 -6.1l-10.2 1l-3.6 4.7l-8.9 5.8l-5.4 2.1l-7.5 6.3l-18.8 8.8l-3.3 8.1l4.5 2.3l6.6 1.6l2.7 10.6l-6.8 2.5l-8.3 7.6l4.3 10.6l7.9 3.8l3 8.7l-8.3 3.9l-12 0.5l-5.7 2.8l0.7 8.1l3.7 -0.2l14.5 1.8l4.2 4.8l3.1 7l-3.1 3.2l-7.4 2.1l-4 -1.9l-9.6 1.9l-2 7.9l-2.5 8.8l-10.5 6l-6.3 -1.9l-10 4.8l6.7 9l0.4 13.2l-7.3 6.3l0.6 10l4.2 -1.2l8.7 0.4l5.6 6l-8.9 1.4l-4.6 5.5l-5.6 3.9l-5.6 1.4l-0.4 7l2.6 4.9l-3.3 10.2l-0.4 9.9l-6.9 4.6l-4.1 4l4.1 5.3l6.3 1.2l4.6 6.9l-0.2 8.4l0.1 4.6l-5.2 2.8l-4.5 0.9l-2.8 1.6l3.7 3.7l4.6 -1.1l8 5.3l-0.1 9.1l-8.9 6.3l-5.7 2.3l-1.2 7.4l4.9 3l8.5 2.6l5.8 5.1l0.9 7.4l-2.6 6.7l-4.5 3l-6.9 -0.2l-2.7 -4.6l-0.6 -5.4l-3.3 -5.8l-3.5 1.1l-3.8 7l-0.7 6.3l4.1 9.1l1.7 5.3l-2.8 6.3l-4.1 0.5l-5.7 1.4l0.1 6.3l8.3 -1.6l5.4 2.8l1.2 8.8l-3.8 6.5l-4 9l0 4l5.2 2.3l4.8 -1.4l5.1 2.6l1.4 6.1l-2.5 4.4l-6.9 3l-11.9 -0.2l-4 1.1l-2 4.9l2.8 3.5l3.1 6l0.7 6.5l3.8 5.4l4.6 3.3l1.9 5.1l-0.4 4.7l-2.7 7.2l-0.4 6.5l2.6 3.2l5.2 0.7l2.3 -2.8l7.2 -4.6l6.2 1.2l2.5 6l-3.3 5.1l-7 1.6l-4.1 -1.6l-6.6 2.2l-2.5 4.7l0.9 4.2l4 1.2l2.3 -1.1l4.6 0l1.4 3.5l1.9 6l6.1 1.9l3.6 -0.7l3 2.3l0.5 3.5l6.1 4.4l9 3.7l6.7 2.6l6.8 -1.6l11.2 -1l8.7 10.1l-2.5 8.9l-4.3 3.5l6.3 7.4l5.3 0l2.2 9.5l-6.1 3.9l-0.1 6l6.3 2.5l7.7 8.9l-4.2 6l-5.4 8.6l6.4 8.9l5.6 4.1l6.4 4.1l7.7 -1.9l6.4 1.9l-3.7 8.9l-11.4 8.4l0.3 16.8l2.4 13.7l-1 14.7l-3 8.6l-4.7 3.9l-1.4 -7.7l-6.4 -7.4l-8.9 4l-13.6 3.5l-11.4 3.1l-7.1 2.3l-7.4 9l0.2 10.9l4.8 7l5.8 5.4l0.4 1.5l10.6 26.6l449.1 1.6l224.1 2.7l49.5 -3.7l148.1 0.2l-0.2 -23.5l37.2 -0l1.2 -154.1l-153.5 0.1l1.9 -154l-153.6 -1.4l2.2 -457.3l6.5 -521.8l-2 1l-85.3 47.4l-88 21.3l-36 19.9l-49.8 63.8l-88.3 8.3l-8 1.9l-49.9 16.1l-92.6 20.9l-96.9 8.5l-29.1 -9.9l-19.9 -17.3l-46.4 -50.5l-39.2 -14.5l-54.2 1.2l-23 15.2z" />
  </g>
  <g data-id="023">
    <path d="m6033.2 2255.9l0 0l0.9 299.8l23.6 0.1l-3.8 895.8l0.6 149.8l-2.7 449.8l1038.8 -3.1l0.1 -149.7l284 1.4l0.1 11.6l295.8 -0.2l148.6 0.9l-1.5 -297.4l-4.2 -75.2l-15 -1.8l-65.1 0.4l-69.8 0.2l-13.2 2.4l-43.5 -0.2l-61.6 0.7l-32.5 0.2l-27.1 -16.1l-2.3 -23.2l3.1 -12.6l3.8 -6.2l4.5 -1.9l2.3 -8.3l2.7 -7l2.6 -7.7l3.4 -10.9l2.7 -8.8l5 -6.3l3.9 -2.2l4.9 -4.4l-1.3 -17.4l6.7 -6.4l6.1 -7.8l6.4 -14.9l10.1 -2.8l7.7 -1.6l4.5 -6.3l1.4 -5.3l1.3 -10.9l3.7 -9.3l16.3 -4.8l6.6 -1l3.4 0.6l-0.8 -5.9l-5.2 -8.1l-9.4 -8.3l-6.1 -11.8l-1 -8.4l-2.3 -2.3l-4.1 0.9l-3.3 -2l0.1 -10.6l5.5 -7.9l1.6 -9l3.4 -6.2l3.9 -10.3l4.3 -8.7l-0.2 -12.7l-1 -10.1l-1.7 -12.1l5.7 -9.7l4.7 2.3l9.4 0.2l6 -5.1l6.6 -1.3l5.8 1.4l5.7 -2.5l6.1 -5.1l4.3 1.1l5.6 -2.1l4.2 -6.1l5.4 -5.5l4.9 -7.4l-3 -3.9l2.2 -8.4l-1.4 -14.1l-3.3 -14.1l-4.7 -9.5l-3.3 -5l-2 -4.4l-0.1 -7.8l3.4 -11.3l3.1 -6.4l-2.3 -8.5l0.1 -8l5.2 -8.8l4.3 -0.8l5.2 -1.3l5.8 -9.4l3.8 -8.4l3.3 -2.2l0.9 -3.3l0.2 -3.1l1.6 -9.3l3.9 -5.2l2.7 -5.5l4.5 -2.8l0.2 1.5l6.7 0.3l4.6 3.1l4.4 2.3l2.8 -4.3l6 -7.4l1.2 -7.7l3.2 -3.7l-1.1 -4.9l5.2 -6.6l3.8 -6.8l-5.1 -11.5l-0.9 -9.2l-7 -12.4l-12.4 -6.4l-4.3 -0.6l-7.9 -2.9l-1.7 -6.9l-2.6 -8.9l-2.2 -7l1.2 -4.7l-0.5 -5.8l-8.6 -7.8l-5.6 -7.4l-12.7 -2.7l-12.7 -10.6l-7.5 0.3l-6.2 3.2l-7.3 1.7l-8.1 -0.5l-5.8 1.4l-5.9 0.1l-2.8 -1.4l-3.5 -3.5l-7.2 -5.8l-3 -5l-7.6 -5.2l-5.5 3.3l-6.3 -2.3l-8.2 4.8l-6.9 -0.6l-11.9 -7.2l-13.9 -1.2l-9.1 -8.8l-4.6 -0.5l-6.5 -3.5l-7.6 0.5l-7.9 -4.2l-6.2 -0.2l-0 -4.6l-4.6 -13.3l-6.8 -19.3l-5.4 -13.1l-1 -15l2.1 -2.6l9.2 -2.4l8.9 -4l5.6 -4.3l2.1 -1.5l4.1 -2.8l3 3.1l8.4 3.2l9.7 2.9l3 5.4l5.2 0.8l1.3 -1.4l3.2 -1l3.5 -2.3l1.9 -3.3l1.3 -7.2l1.2 -3.7l13.1 -10l2.4 -2.3l6 -1.2l5.2 3.4l9.2 3.9l9.7 -0.2l3.8 -4.7l1.1 -5.9l6 -2.8l5.7 1.4l6.7 2.6l3 -1.7l4.7 -0.9l4.5 -5.2l7.7 -11.3l4.4 -5.9l2.9 -4.8l6.9 -6l10.5 -3.4l10.2 3.3l5.9 0.7l16.9 1.1l12.4 2.1l7.6 2.4l9.4 -3.5l12 -2.2l7.6 -2.9l8 0l5.8 -5.3l4.3 -11.1l-3.4 -13.7l2.6 -5.7l3.4 -4l-1.1 -7.6l-4.3 -7.3l-5 -7.3l-1.3 -5.8l0.7 -3.8l-1.3 -4.7l-3.8 -6.5l-1.5 -2.5l0.1 -4.1l2.4 -2.1l-1.6 -5.4l1.6 -8.2l2.6 -4.6l-0.4 -6.2l-4 -5.5l-6.7 -2.5l-3.4 -1.8l-0.9 -3.7l-2.9 -1.6l-1.9 -3l1.3 -2.8l1.8 -6.4l-2 -4.1l-5.4 -2.7l-3.7 -3.3l1.6 -4.5l6.1 -5.6l4.5 -4.5l1.4 -6.6l6.8 -4.3l8.3 -6l-0.2 -4.2l-0.2 -6.3l-1.8 -4.1l1.3 -4l2.2 -1.9l5.3 -2.9l9.6 0.8l6.4 -1.6l6.2 -3.1l2.4 -1.1l2.9 1.3l2.2 2l5.1 3.1l7.3 1.6l4.2 -0.3l2.8 0.3l9.6 2.9l8.4 -0.2l6.7 -3.5l1.8 -4l-0.4 -5.6l1.3 -5.5l1.3 -2l-0.3 -5.2l-3.2 -6.2l-3.4 -12.4l-0.1 -10.6l-5.8 -8.6l1.6 -9.5l-2.1 -3.5l1 -5.4l4.5 -3.5l4.1 -5.6l-0 -7.6l-2.8 -3.1l-0.6 -5.2l4.8 -4l0.6 -3l1.9 -8.9l1.8 -3.7l-1.1 -4.8l-2.5 -2.6l-2.1 -2.3l-4.5 0.7l-5.1 -1.8l-3.5 -2.4l-4.7 -1.8l-1.5 -5.3l0.8 -6.5l-0.4 -4.5l0.7 -6.1l-1.2 -2.7l-38.7 0.9l-7.7 -11.9l-21.4 6.5l-24.2 -26.1l-34 -19.2l-21.8 -6.6l-32.9 32.6l-16.7 -7.6l-39.3 24.5l-1.5 -39.1l-39 -18.2l-61.6 -1.2l-796.5 -0.6l-623.2 2.8l-6.4 -0.8z" />
  </g>
  <g data-id="025">
    <path d="m5697.8 5825.1l0 0l-0.3 287.8l259.1 -0.4l35 -3.6l421 -0.3l2.2 1024.8l5.1 4.2l-0.8 233.6l44.4 0.3l90.4 0.6l23.7 -0.6l29.2 1.7l256.2 -1l253.9 2.3l22.7 -0.5l1.7 -0l98.2 1.5l117 -3.5l124.6 -2.6l375.4 -2.6l2.6 -464.8l-24 -0.1l-2.6 -1072.8l-14.8 0.1l0.9 -735.8l-4.9 -44.1l-0.1 -675.6l5 -44.9l0.5 -416.7l-148.6 -0.9l-295.8 0.2l-0.1 -11.6l-284 -1.4l-0.1 149.7l-1038.8 3.1l-146.1 -0.3l-2.6 447.5l-148.2 -0.4l1.1 148.7l2 44l-2.5 691.3l-44.1 0.1l1.3 443.2l-14.7 -0.1z" />
  </g>
  <g data-id="027">
    <path d="m3251.9 1105.9l0 0l-0 67.9l12.8 15.9l-7.9 25.7l18.3 57.1l-16.9 14.4l12.5 44.5l16.1 14.3l23.5 -4.3l18.2 25.8l-4.4 14.8l54.5 54.9l15.8 12.4l-0.1 34.1l17.5 35.4l20.5 22.1l64.3 15.9l33 35.2l-7.1 74.6l29.9 59.9l-21.5 69l265.3 -0.4l-0.3 -460.3l51.3 0.4l-0.7 -314.4l-26.7 -7.2l-44.9 -34.5l-28.7 -6.8l-1.6 -0.4l-11.6 -2.9l-121.2 38.7l-46 -0.8l-48.2 18.2l-34.3 1.4l-94.2 -22.5l-69.1 23.9l-42.9 39.9l1.2 15.4l-9.2 13.5l-17 9.3z" />
  </g>
  <g data-id="029">
    <path d="m1633.5 7355.5l0 0l0.4 -0l47.5 -2.7l46.3 -4.3l11.1 -2l76.7 6.3l22.6 0.8l25.2 3.2l128.1 -0.1l58.9 0.8l22 -1.1l94 -1.4l107.7 -0.1l96.7 -1.2l165.2 -6l127.5 -0.5l24.5 -1.3l109.3 2.9l-0.3 -198.8l3.5 -269.8l-0.6 -178.1l-0.1 -75.3l3.8 -57.3l2.5 -537.3l-0.1 -341.3l-146.2 -0.2l-0.1 22.3l-24.4 0l-0 24.5l-24.3 0l0 24.5l-24.4 0.1l-0 24.5l-123.7 1.2l-0 24.5l-24.4 0.1l-0.1 23.4l-24.9 -0.5l-0.1 26l-46.4 -2.2l0.1 26.7l-48.8 0.1l-0 24.4l-24.5 0.1l0 24.4l-24.3 -0l-0.1 24.3l-24.3 0l-0 23.9l-48 -8.9l0.2 37l-24.4 23.8l0 24.4l-71.9 6.1l-72.9 -0.2l-48.6 -0.1l0 12.2l-24.3 -0.9l-24.6 14.4l-23.5 12.4l-127.2 -0.1l-48.9 -6.1l0.3 30.5l-35.2 -0.1l-36.9 46.8l-23.8 12.4l-0.1 253.4l0.2 94.2l-0.4 333.6l-0 9.2l0 65.4l0.9 205.8l-2.4 207.3z" />
  </g>
  <g data-id="031">
    <path d="m3344.8 3133.2l0 0l-3.3 39.4l10.4 40.6l-6.8 19.1l7 40.4l-2.7 31l758.9 -0.7l3.1 4l147.4 0.2l147.3 0.6l-0.6 -149.3l200.2 -0l-0.8 -149.6l545.2 -2.1l1.1 -342.7l-23.5 -58.4l41.1 -47.1l-672.8 -2.1l-214.8 -0.5l-785.7 -3.9l-34.5 -7.7l-14.6 16.8l-13.7 0.7l-38.2 10l-16.6 24.3l10.4 32.5l34.6 15.8l4.9 -5.5l8.3 -0.3l7.3 15.2l5.1 -0.5l4 8.6l-15.3 4.1l-4 9l1.7 3.6l-10.4 6.7l-7.4 1.7l-20 32.6l13.8 58.1l-8.1 21.5l2.6 74.9l-15.8 45l20.8 35.3l-11.6 67.2l-15.8 35.9l8.7 31.8l-46.8 43.7z" />
  </g>
  <g data-id="033">
    <path d="m632 6714.6l0 0l-0.5 3l2.7 2.4l1 2.3l1.9 4.9l1.5 3.5l0.8 4.6l-1.4 6.5l1.3 4l1.5 2.1l1.4 2.9l2.5 3l1.5 3.3l1.6 2.9l3.8 1.4l1.4 -1.1l4.7 -1.9l3 2.3l4.4 1.9l5.8 0.7l8.5 -0.1l4.1 0.3l5.3 0.3l8.5 -0.5l5.1 0.7l6.1 -0.5l5 0.8l6.4 1.4l4.9 -0.4l7.7 0.9l7.7 -0.2l5.7 0.5l5.6 -2.3l2.8 -2.3l3 -2.2l3 -1.1l2.2 2.4l1 6.6l3.9 3.8l4.9 2.5l5.1 5.8l4.3 4.1l2.2 -0l2.9 -0.2l4.7 -1.7l8.6 -1.5l2.5 -1l2.7 -0.3l1.5 -0.1l2.7 -2.1l4.7 -3.2l4.2 0.4l5.2 4.8l2 3l2.9 3l2.4 -0.1l1.9 8l-0.1 8.3l2.6 4.5l1 5.2l3.4 4.5l1.6 4l8 5.3l11 4.1l13 2.9l5 7.7l-5 13.3l-2.3 5.6l2 5.4l4.1 2.2l6 5.4l-0.6 8.2l2.9 4.3l3.8 4.6l2.6 5.3l5.1 5.3l1.1 12l2.4 5.2l4.2 4.7l5.4 2.2l2.7 13.8l3.1 6.8l0.6 7.7l1.8 7.8l8.7 3.2l5.2 2.3l4.3 1.2l2.7 1.5l0.2 2.7l-1.7 5.8l0.5 6.7l0.5 5.3l-5.2 8.9l-10.7 3.6l-9.4 15.1l-9.2 21.6l0.6 8.8l4.9 6.8l3 14.8l-0.9 8.6l0.1 6.9l-6.8 6.5l-3.6 7.8l-3 1.9l-3.1 3l-6.3 1.5l-6.9 2.5l-6 9.2l-6.9 3.3l-10 14.1l2.8 10.5l10.7 9.9l5.7 -0.5l1.8 10.3l3.4 13.8l6.7 6.6l2.6 14.7l7.5 14.3l-1.5 9.6l-3.5 17.7l-1.5 5.4l-4.1 4.2l-2.5 6.1l-4.2 3.3l-3.9 5.7l0.3 10l-6.5 7.2l-0.7 16.7l8.6 12.6l2.8 15.1l-2.3 3.4l2.6 8.1l7.2 4.9l3 2.5l2 3.9l-1.4 2.9l2.4 6.9l5.8 3.2l2.1 3.7l-2.1 2.6l-0.5 1.1l0.7 0l9.2 0.6l30.5 -1.7l75.6 -1.5l8.3 0.3l79.7 2.8l40.1 -7.8l89 -0.7l33.8 -1.3l9.1 0.3l19.7 0.6l3.8 0.1l0.1 -0.1l79.2 -1.9l65.5 3.9l42.3 0.3l144 -7.9l2.4 -207.3l-0.9 -205.8l-0 -65.4l0 -9.2l0.4 -333.6l-0.2 -94.2l0.1 -253.4l-24.2 0.3l-0.1 -37l-30.9 -12.8l-120.3 -12.5l-0.1 24.4l-35.3 0l-4 24.7l-27.5 -7l-48.9 25.5l-36 -16.6l-59.5 -1.1l-24.3 -13l-5.7 -30.5l-18.4 -7.1l-118.2 0.4l0.1 -17.6l-24.5 -6.3l0.2 24.1l-24.3 -0.1l0 -74.8l-0.4 0.5l-2.9 2.2l-1.6 3.4l0.3 5.3l-2.3 2.7l-4 2.8l-3.7 0.9l-1.9 3.2l-1.8 3l-2.7 3.1l-1.2 4l-1.2 5.3l-1.5 4.7l-1.6 4.3l0.5 6.6l-3.1 4.2l-2 4.1l-3.4 3.4l-1.8 2.7l-2 3.5l-2.6 1.4l-1.4 3.7l-1.1 3.2l-1.9 3.8l-0.4 2.6l-1.1 2.1l-0.8 1.9l-0.9 2.1l-0.4 2.9l0.3 2.1l0.9 1.7l-0.1 3.2l-1.7 3.6l-1 2.9l-1.4 2l-1.1 2.9l-1.1 0.6l-1.2 1.5l-2.3 2.4l-1.8 2.1l-1.2 4.6l-1.8 3.1l-1.7 1l-1.4 1.5l0.5 1.3l-0.4 2.2l-2.4 1.8l-3.3 2.7l0.2 2.1l-0.8 1.8l-35.4 57.6l-18.9 30.9l-12 38.4l2.7 2.5l3.2 3.8l3 5.7l1.7 5.9l0 2.8l-1.8 2.6l-1 3.4l-2.4 2l-3.3 1.3l-2.7 2.5l-0 2l-0.5 5.7l-1.6 4.4l-0.2 4.3l-1.9 3.2l-3 2.1l-2.3 2l-3 2.4l-3.4 4l-3.2 1l-2.3 1.4l-2.3 1.6l-2.2 3.1l-0.4 4.4l0.5 1.9l-0.1 2.1l-0.6 3.4l-0 3.4l-3 4.5l-1.3 2.9l-2.2 4l-3.2 3.4l-2.9 4.8l-0.4 2.5l0 3.7l1.6 3.8l0.7 2.4l3 4.1l1.9 4l-2.3 3.9l-3.1 2.3l-1.4 2.8l-2.2 3l-1.6 1.3l-3 2.4l-0.2 3.5l-1.2 1.6l-2.9 3.5l-3.7 4.6l-1.4 2.4l-2.2 3.5l-1 4.5l-1.9 2.7l-1.5 2.2l-0.4 4.7l0.7 2.9l1.1 2.2l1.2 3l-0.3 2.5l1 1.5l-0.4 2.2l-2.4 0.3l-1.7 0.8l-1.1 1.6l0.5 1l-1.3 2.6l-4.1 1.1l-1.5 2.3l-0.1 1.8l-0.6 2.2l-1 2.3l-2.7 1.1l-1.4 3.2l-2.7 1.3l-3.2 1.4l-3.5 0.4l-4.6 0.6l-4.9 -0.3l-4.1 2.9l-4.1 0.4l-3 1.7l-3.7 0l-2.6 1.8l-5.4 -0.5l-3.4 1l-3.2 -1.5l-0.2 -1.1l-1.9 -0.2l-3.2 -0.1l-2 -3.6l-1.3 -2.4l-2.3 -1.7l-3.1 -0.5l-4.9 -0.6l-3.3 1.2l-4.2 0.8l-5.2 2l-2.5 0.5l-3.6 0.4l-2.5 0.1l-2.9 1.8l-5.2 0.4l-4.9 2.8l-3.3 -1.8l-2.3 -0.9l-3 -0.7l-5.7 -0.4l-3.7 -1.7l-0.4 -2.7l-0.6 -1.6l-1.9 -1.2l-1.5 0.5l-2 1.7l-1.9 1.3l-0.9 -0.5l-5 -0.5l-1.6 2.3l-0.8 2l-1.3 1.6l-3.9 -0l-3.9 0.9l-2.4 2.3l-1.9 5.8l1.6 3.4l2.6 0.8l3.3 3.2l3.6 5.1l0.5 10.3l-1.4 11.6l2.1 6.6l-1.6 6.6l-2.2 1.1l-2.1 4.3l3.7 5.7l2 2.8l-1.6 3.5l-1.2 1.6l-0.9 4.5l1.7 3.6l0.6 4.5l-4.6 2.5l-5.8 4.9l-3.2 7.3l-0.7 7l4.4 5.2l-1.1 4.5l-1 4.8l1.5 1.4l1.8 0.5l0.9 3.1l-1.2 2.5l-2.9 4.5l-1.6 4.6l-3.8 0.9l-1.7 2.2l-2.7 1.1l-2.1 3.3l-3.5 0.9l-2.3 0.4l-1 2.5l-1.3 3.4l-3.4 1.4l-2.9 0.4l-3.1 1.4l-0.6 3.5l-0 5.1l-0.7 2.3l-0.8 2.6l-0.3 2.5l-0.3 2.5l-3 3.9l-1.2 0.9z" />
  </g>
  <g data-id="035">
    <path d="m2797 7150.1l0 0l0.3 198.8l0.3 0l35.1 0.7l123.4 -0.5l1.1 0l4.7 0.4l1.6 -0.1l66.1 2.8l125.6 3l189.9 1.5l171.2 3.8l3.9 0.1l19.6 0.3l17.1 0.4l116.8 2.8l74.9 1.1l89.9 1.4l9.8 0.1l5.7 0.1l72.8 -0l19.6 0.6l24.4 0.8l5.9 -0.5l1.7 -0.2l30.2 -1.6l72.8 0.1l4.3 0.9l150.2 1.7l38.5 2.2l73.8 2.2l192 -0.8l-1.4 -572.3l-0 -3.1l-1.3 -241.9l-1.5 -438.4l-104.5 0.7l-35.6 -4.3l-436.4 -0.5l1.5 -1032.2l19.9 0.2l-0.7 -443l-827.5 2l-45.3 23.7l-40 37.6l-27.5 0.6l-46.4 37.4l-22.9 62.4l21.1 17.5l4.6 23.1l-12.2 71.1l-17.8 12.9l25.9 12.5l0 2l-1.1 2l3.7 2.9l3.9 1.4l11.9 5.7l13.5 3.9l5.4 4l0.1 1.6l2 0.8l2.7 1l3.5 -4.4l4.9 1.6l3 4l5.2 4.8l-1 4.4l4.1 6.4l10.6 8.8l5.6 3.8l5.2 2.5l3.9 7.1l2.2 3.3l-0.3 4.6l-3.3 5.8l3.9 10.7l3.5 9.1l3.8 3l10.6 9l7.3 8.6l6.9 5.4l3.5 4.4l4.9 6.5l1.8 -1.5l4.8 4.8l8.2 16.3l3.9 7.3l1.7 8.4l1.2 8.1l-4.2 12.1l-2.7 9.2l3 8.4l8.2 4.6l5.3 6.7l1.5 5.5l-2.7 4l-5 5.5l-2.6 8.5l-0.5 8.1l1.5 6.3l4.9 8.6l17.9 9.4l6.6 13.5l4.8 9.6l2.5 7.5l-5.8 3.6l-8.6 8.6l-3.9 5.5l-1.9 6.3l-3 7.9l-4 5.9l-2.1 3.5l-4.2 2.9l-3.7 -0.1l-5.9 1.9l-2.2 4.9l-0.4 3.6l-3.8 2.3l-7.2 4.8l-4.2 5.5l-7.6 3.2l-3.7 1.6l-2.7 -0.1l-1 -1l-1.8 3.3l1.2 3.2l5.2 9.1l2.3 4.5l-2.9 5.1l-1.7 2.9l-3.3 5.9l-0.2 3.3l0.7 2l0.4 2.3l0.1 2l-0.3 4.4l-5.6 5.6l-1.9 7l-4.6 8.3l-3.6 5.8l-2.5 5.6l-0.4 3.2l2.6 5.7l-0.5 3.8l-1.3 5.4l-0.8 6l-2.7 2.1l-4.9 2.9l-3.4 1.7l-1.3 0.5l-2.3 1.2l0.5 1.3l-1.2 3.6l0.7 2.5l0.5 1.8l1.1 2.3l1.2 7.6l-0.9 6.2l-3.1 6.9l-6.7 7.7l-3.5 6.2l-0.4 3.9l-1.3 4.4l-0.5 4.3l-4.2 5.6l-3 10.3l-0.4 9.9l-3.3 8.6l-1.9 5.4l-0 5.2l-4 4.6l-1 8l-2 7.4l3.3 9.2l6 2.7l3.8 3.7l3.3 0.1l-17.7 3.4l-90.3 -0l-50.2 0l-42.9 0l-29.1 0l-19.7 28.5l-0.1 30.7l-0 44.4l-0 16.9l0.1 341.3l-2.5 537.3l-3.8 57.3l0.1 75.3l0.6 178.1l-3.5 269.8z" />
  </g>
  <g data-id="037">
    <path d="m3960.9 5080.2l0 0l-1.5 1032.2l436.4 0.5l35.6 4.3l104.5 -0.7l1.5 438.4l1.3 241.9l0 3.1l1.4 572.3l0.5 -0l83.1 -0.7l146.3 0.8l2.1 -0l55.7 1l180.6 -1.2l213.3 1.1l3.1 0l48.9 0.1l129.6 -2.5l223.2 -0.9l2.3 1l-0 -0.5l15.2 -2.1l124.1 -2.3l17.5 -0l29 0.3l72.7 -0.4l79.6 2.1l347.6 1.4l104.4 1.8l0.1 0l0.8 -233.6l-5.1 -4.2l-2.2 -1024.8l-421 0.3l-35 3.6l-259.1 0.4l0.3 -287.8l14.7 0.1l-1.3 -443.2l44.1 -0.1l2.5 -691.3l-2 -44l-592.7 -0.6l-2.2 -7.6l-734.8 1l-35.6 -3.3l-410.5 1.2l0.7 443l-19.9 -0.2z" />
  </g>
  <g data-id="039">
    <path d="m497.2 4133.8l0 0l-10.4 80.8l116.2 -0.8l146.3 2.6l-0.3 -15.4l26 9.8l-0.5 -55.8l29.1 3.8l37.1 -35.1l24.5 -6.6l31.6 -41.7l84.4 1.6l67.9 -0.8l0.2 11.9l55.5 1.6l-0.2 25.4l49.3 1l-0.7 50.5l49.4 0.9l-0.3 39.2l62.8 -0.1l-0.2 65.6l72.8 -1.9l-0.1 36.2l151 1.4l-0.1 49.7l257.3 0.9l2.7 25l0.9 272.1l37 0l-0.5 112.4l148.4 1.7l68.1 -9.2l235.7 -0.5l0.2 182.8l146.9 -4.9l141.5 0.1l22.2 -2.1l271.7 2.5l171.4 -0.4l-25.9 -12.5l17.8 -12.9l12.2 -71.1l-4.6 -23.1l-21.1 -17.5l22.9 -62.4l46.4 -37.4l27.5 -0.6l40 -37.6l45.3 -23.7l2.3 -17.8l43.9 -1.9l-19.3 -21.6l-7.1 -37.6l15.8 -76.1l-9.5 -63.5l7.9 -8l15.7 -26.5l-8.4 -19.2l6.3 -59.9l-14.6 -4.8l0.2 -76l27.7 -25.3l24.9 -38l-8.4 -12.2l14.1 -14.1l33 -11.5l12.4 12.4l27.6 -5.8l14.9 -91.3l25.5 -10.6l-10.7 -8.2l19.6 -31.4l8.9 -29.5l-16.3 -43.6l19.1 -24.8l21.3 -1.6l16.4 -39l11.7 -8.8l13.2 -36.9l-4.5 -65.9l-14.2 -14.2l15.6 -33.6l-12.2 -46.9l-6.2 -66.2l-17.7 -45.4l-22.9 -4.9l-110.7 -0l-149.4 6.6l-367.6 9.9l-0.2 37.4l-31.3 18l-18 19.6l-15.3 -0.1l-6.1 -13.1l-62.2 -7.3l-16.8 7.9l-21.3 -10.9l-47 2.2l-12.3 -17.1l-24.9 -3.5l-53.5 10.1l2.3 -11.6l-22.6 -16.9l-63.6 -15.6l-2.4 -22.3l-27.3 -4.3l-67.8 -24.3l-1.7 -4.6l-31.4 1.1l-15.1 -9.7l-17.4 11.7l-37.5 -0.8l-20.5 16.9l-8.3 -13.4l-43.3 -8.9l-0.1 48.9l-47.5 -0.3l-2.2 100.7l-321 1.1l18.7 -45.8l-35.3 -45.6l-1.8 -52.9l-183.3 0l-52.8 4.7l-274.3 7.5l-150.9 -12.5l-74.4 0.7l-204.6 1l0 9.6l-89.9 0.1l-61.2 3.9l-65 -2l-0.1 2.7l1.3 3.3l6.3 3.7l1 8.8l-2.6 52.5l-5.7 49.2l1.5 14.5l-3.2 45.3l-10.9 78.9l4.2 37.3l-13.8 118l-11.3 133.5l-9.3 81.3z" />
  </g>
  <g data-id="041">
    <path d="m540.5 3487.1l0 0l-0.8 17.7l65 2l61.2 -3.9l89.9 -0.1l-0 -9.6l204.6 -1l-0.2 -56.3l-50.4 1.5l-0.2 -50.7l101 -2l-0.2 -25.2l24.2 -0.2l-5.7 -50.2l0.1 -75.9l151.3 0.5l2.2 -127.6l-1.3 -250.5l-7 -121.7l-125.9 0l-0.1 -31l-25.2 -0.1l0.4 -532.9l-346.1 -0.9l-13.2 108.5l-10.6 57.8l-2.3 23.2l0.7 14.6l-8.9 47.8l-20.4 88.6l-6.6 20.5l-11.1 5.1l-4.4 7.2l-9 57.7l-1.7 46.5l11.3 15.2l9 43.5l-5.4 60l-8.6 34.2l12.8 24.6l2.2 18.2l-8.3 45.8l-0.2 17.5l-4.9 16.4l2.3 8.6l-11.3 133.3l-8.9 52.2l-1 24.6l2.9 15.2l-0.1 63.5l-2.8 44.8l-9.5 78.2l-10.5 66.5l-4.3 11.6l-6.8 18.4l1.8 8l-1.2 10.7l-7.6 29.7z" />
  </g>
  <g data-id="043">
    <path d="m1605.7 2992l0 0l-8.1 30.1l22.7 18.3l-14.4 27.2l18.9 1.6l31.5 39.9l-2.2 24.2l-2.5 39.1l13.8 44.1l-4.8 13.5l-23.3 5.8l10.7 21.6l-12.3 7.6l6.6 38.1l-25.9 15.4l31.6 41.6l-19.6 6.1l8.3 20.6l-21.1 21.6l35.6 12.4l-0 23l24.2 5.3l7.7 36.2l13.2 6.7l1.8 52.9l35.3 45.6l-18.7 45.8l321 -1.1l2.2 -100.7l47.5 0.3l0.1 -48.9l43.3 8.9l8.3 13.4l20.5 -16.9l37.5 0.8l17.4 -11.7l15.1 9.7l31.4 -1.1l1.7 4.6l67.8 24.3l27.3 4.3l2.4 22.3l63.6 15.6l22.6 16.9l-2.3 11.6l53.5 -10.1l24.9 3.5l12.3 17.1l47 -2.2l21.3 10.9l16.8 -7.9l62.2 7.3l6.1 13.1l15.3 0.1l18 -19.6l31.3 -18l0.2 -37.4l367.6 -9.9l149.4 -6.6l110.7 0l-6.5 -34.9l-20.6 -5.2l5.3 -124.7l-10.9 -15l3.4 -45.2l2.7 -31l-7 -40.4l6.8 -19.1l-10.4 -40.6l3.3 -39.4l46.8 -43.7l-8.7 -31.8l15.8 -35.9l11.6 -67.2l-20.8 -35.3l15.8 -45l-2.6 -74.9l-17.6 0l-113.9 0.1l-69.5 -0.9l-6.1 -3l-4.2 -5.4l-5.4 -5.4l-10 -1.9l-11.4 5.5l-7.4 1.6l-5 -0.4l-5 1.8l-6.2 1.2l-4.2 -5.1l-12.2 0.1l-9 7.1l-8 -2.8l-9.3 -4.2l-5.6 -4.8l-7.5 -2.2l-4.3 -6l-9.6 0.6l-6.5 -4.3l-5.9 -0.9l-2.6 1.9l-5.3 -1.7l-3.2 -3.8l-11.7 -6.2l-17.5 -5.3l-13.6 -10.1l-5.6 -4.8l-9.3 -7.5l-15.5 -7.9l-10 11.5l-11 6.1l-19.5 13.7l-11.7 7.4l-12.1 7.6l-18.2 8l-14.5 -3.3l-12.2 -9.6l-13.1 -23.5l-10.4 -11.4l-6.3 -10.1l-17.8 -12.5l-11.4 -25.2l-9.4 -6l-6.6 -1.2l-8.9 -1.7l-9 -2.1l-6.9 -2.7l-6.9 -1.8l-8.5 3.2l-7.2 1.6l-2 1.2l-7.3 -1l-6.1 -2l-8.2 -1l-10.1 0.8l-5.6 0.7l-5.1 0.5l-7.3 5.2l-2.8 2.3l-3.4 0.7l-2.1 -0.3l-3.8 -1.7l-4.5 -2.3l-3.5 -1l-2.6 2.4l-3 1.7l-2.8 0.2l-3.3 -2.3l-1.9 -2.1l-3.5 -0.1l-2.2 0.4l-3.5 0.8l-0.9 2.5l-2.6 1.6l-3.3 -1.5l-3.3 -1.3l-2.7 1.4l-2.6 2.5l-3.3 -0.5l-3.5 -1.7l-3.2 -2.8l-2.6 -2l-2.9 -1.2l-2.9 1.7l-3 2.4l-1.4 0.8l-1.6 -1.3l-1 -1.3l-3.5 -0.5l-3.5 -0.1l-4.9 -0.1l-4.9 -0.7l-3.7 -0.2l-3.9 0.7l-4.2 1.3l-3.9 1.4l-2.8 1.5l-3.6 1.6l-1.3 -0.1l-0.1 -1.8l0.2 -1.5l-2.4 -1.8l-2.8 -1.5l-5.3 1.1l-5 2.3l-6.5 3.2l-6.3 2.6l-7 1.3l-7 -3.7l-7.6 -2.1l-3.5 -0.4l-2.3 -3.6l-0.9 -3.4l-1.5 -5.4l1.6 -2l1 -2.3l-1.4 -1.6l-4.7 -2.3l-6.6 -2.7l-4.5 0.5l-3.6 1.1l-4 1.2l-5.6 -3.4l-9.1 -1.8l-8.2 -0.1l-7.1 -0.2l-4 -4.9l-1 -5.7l-3.5 -1.9l-5.7 -1.7l-7.1 -1.3l-10.6 -1l-11.7 -2.3l-5.5 -6.8l-5.4 -2.9l-7.3 -6.1l-6.4 -1.9l-8.6 2.1l-11.2 0.4l-4.9 2.5l-3.5 3.7l-12.1 4.8l-10.9 2.3l-13.1 4.4l-9.9 0.1l-7.6 2.8l-7 0.8l-4.2 -2.2l-5.3 -1.4l-5.1 -1.2l-12.7 -3.7l-6.2 -13.5l-3.4 -5.9l-7.9 -0.3l-2.1 3.6l-19 3.1l-16.2 -4.9l-8.1 -4.7l-7.3 0.3l-7.4 -0.2l-5.5 -0.7l-7 -0.4l-5.1 1.8l-5.1 2.2l-6.2 -0.3l-3.1 1.8l-1.3 4.2l-5.5 5l-3.7 -0.1l-3.2 3.4l0.3 5.2l-1.4 3.6l-4.1 1l-2.5 0.8l-3.1 5.3l-3.5 4.9l-4.4 1.5l-3.9 0.7l-4.3 -0.2l-3.8 -0.2l-3.2 -3.4l-2.9 -3.5l-3.9 0.3l-2.3 3l1.5 4.4l-0.1 5.4l-2.2 7.1l-5.5 4.7l-3.9 2.1l-3.9 1.2l-3.6 0.5l-2.6 -0.4l-10.3 10.6l-21 6.2l-9.5 6.6l-13.9 14.5l-0.8 6.9l-11.8 13.2l-21.8 17.1l-25.4 -10.3l-19.8 26.9l-32.7 32.4l-23.2 -20.8l-2.4 -46.6l-25.8 0.7l-0.5 -21.7l-78.9 -20.2l-7.1 -17l-39.9 17.6l13.8 9.7l-20.2 40.3l34.5 50.7l5.2 24.5l30.1 1.9l23.4 44.1l-37.8 19.4l-82.5 8.8l-0.9 23l-29.1 27.9l12.9 30.4l-45.7 5l-39.3 21z" />
  </g>
  <g data-id="045">
    <path d="m7813.4 3539.5l0 0l4.2 75.2l1.5 297.4l-0.5 416.7l-5 44.9l0.1 675.6l4.9 44.1l-0.9 735.8l14.8 -0.1l2.6 1072.8l24 0.1l-2.6 464.8l0.2 -0l400.2 -2.2l306 0.4l2.8 -0.6l223.4 -2l48.8 0.6l230 -1l24.4 -0.8l159.7 0.6l16.3 0.2l17.9 0l18.2 0l0.1 -196.1l-0.6 -26l0.5 -55.3l0.1 -318.7l-0.5 -35.7l-0.1 -413l0.4 -306.5l0 -0.3l0.1 -0.5l-0.5 -367l0 -0.4l-0.1 -938.4l-0 -2l-0.2 -25.5l0 -4.1l0.1 -7.4l0.1 -2.7l-0 -15l-0.2 -11.9l-0.1 -5.8l0.1 -6.6l0.2 -11.6l0.1 -55.9l-0.1 -19l0.1 -9l0 -3.8l-0.3 -39.7l0.1 -14.7l-0.1 -30.9l0.2 -1.8l0 -127l5.4 -16l0.4 -1.3l-2.1 -9.7l-11.5 -10.6l4.1 -15.5l5.4 -3.9l8.3 -0l7 2.3l4.7 -4l1.6 -6.7l-3.7 -6l-10.8 -4l-4 -3.9l2 -7.8l12.7 -5.7l14.5 -4.1l2.1 -0.4l7.4 1.7l2.2 -0.7l8.2 -5.8l0.7 -1.9l3.3 -19.4l4.5 -26.4l-0.5 -9.9l-1.1 -7.8l-2.8 -16.2l17 -3.2l7.1 -7l0.1 -16.2l-9.5 -7.1l-1.7 -7.6l4.7 -7.8l4.6 -15.3l0.3 -11.2l1.8 -7.9l0.7 -4.4l-5.4 -3.6l-7.8 1.5l-7.4 -10.9l8.8 -6.1l11 -9.4l26.8 -2.9l2.2 -12l-8.4 -17.1l7.9 -15.6l2.8 -18.3l-0.3 -4.4l-3.2 -9.6l-7.4 -10.8l-15.9 -12.5l-20.1 -10.1l-0.8 -1.1l-1 -7.3l-4.1 -54.5l3.8 -5l8.7 -4.5l12.6 -1.4l17.2 -4l6.5 -5l5.1 -5.3l6.7 -12.5l0.8 -3.6l37.8 -74.3l1.5 -2.9l2 -6.6l0.3 -3.6l-2.1 -19.1l-5.4 -9.6l-3.3 -4.5l-28 -20.8l-12.4 -4.2l-6.3 0.4l-5.8 3.5l-2.9 0.7l-22.1 -4.9l-2.2 -0.8l-5.5 -4.6l-2.5 -18.6l-0.3 -30.9l2.5 -16.8l-2 -7.4l-2.9 -4.9l-13.6 -4.5l-17.5 0.2l-19.7 -0l-4.1 -1.2l-6.2 -4.2l-2.8 -0.6l-5.3 0.4l-4.9 3.2l-8 7l-4 18.6l-1.9 3.9l-3.7 1.6l-3.7 -0.4l-4.3 -3.1l-3.5 -11l-9.8 -11.7l-13.7 -10.1l-13.8 -14.4l-1.8 -3.6l-3.3 -15.7l-1.2 -2.8l-4.9 -7.9l-4.6 -5.6l-2.4 -2l-4.3 -1.4l-4.9 0.2l-7.9 3l-3.7 2.3l-12.2 14l-2 4.2l-0.7 4.8l-1.1 2.2l-5.6 6.2l-6 1.9l-16.9 1.3l-16.4 -2.4l-28.2 -20.8l-6.2 -4.9l-23.3 -25.1l-7 -15.9l0.2 -2.4l2.9 -4.2l0 -0l-330 1.9l0.3 -150.3l-27.8 0.2l0 -24.8l-25 0.2l0.1 -24.9l-49.8 0.1l0.1 -24.9l-26.3 -0.1l0 -25l-470.9 1.3l-0.2 25.2l-48.8 -0.6l-0.1 25l-25 -0l-0.2 43.7l-24.9 -0.1l0.1 31.2l-24.7 -0l0 25l-18.7 -0.1l-6.3 50l-24.7 -0l-0 25l-25 -0.1l0.3 25.6l-25.1 -0l-0.6 49.8l-50 -0l0.1 25l-48.1 0.1z" />
  </g>
  <g data-id="047">
    <path d="m1696.9 2516.9l0 0l4.6 24.1l54.9 9.3l25.1 8.3l24.6 17.7l-7.7 21.6l-30.1 9.3l-29.4 41l2.4 37.1l39.9 -17.6l7.1 17l78.9 20.2l0.5 21.7l25.8 -0.7l2.4 46.6l23.2 20.8l32.7 -32.4l19.8 -26.9l25.4 10.3l21.8 -17.1l11.8 -13.2l0.8 -6.9l13.9 -14.5l9.5 -6.6l21 -6.2l10.3 -10.6l2.6 0.4l3.6 -0.5l3.9 -1.2l3.9 -2.1l5.5 -4.7l2.2 -7.1l0.1 -5.4l-1.5 -4.4l2.3 -3l3.9 -0.3l2.9 3.5l3.2 3.4l3.8 0.2l4.3 0.2l3.9 -0.7l4.4 -1.5l3.5 -4.9l3.1 -5.3l2.5 -0.8l4.1 -1l1.4 -3.6l-0.3 -5.2l3.2 -3.4l3.7 0.1l5.5 -5l1.3 -4.2l3.1 -1.8l6.2 0.3l5.1 -2.2l5.1 -1.8l7 0.4l5.5 0.7l7.4 0.2l7.3 -0.3l8.1 4.7l16.2 4.9l19 -3.1l2.1 -3.6l7.9 0.3l3.4 5.9l6.2 13.5l12.7 3.7l5.1 1.2l5.3 1.4l4.2 2.2l7 -0.8l7.6 -2.8l9.9 -0.1l13.1 -4.4l10.9 -2.3l12.1 -4.8l3.5 -3.7l4.9 -2.5l11.2 -0.4l8.6 -2.1l6.4 1.9l7.3 6.1l5.4 2.9l5.5 6.8l11.7 2.3l10.6 1l7.1 1.3l5.7 1.7l3.5 1.9l1 5.7l4 4.9l7.1 0.2l8.2 0.1l9.1 1.8l5.6 3.4l4 -1.2l3.6 -1.1l4.5 -0.5l6.6 2.7l4.7 2.3l1.4 1.6l-1 2.3l-1.6 2l1.5 5.4l0.9 3.4l2.3 3.6l3.5 0.4l7.6 2.1l7 3.7l7 -1.3l6.3 -2.6l6.5 -3.2l5 -2.3l5.3 -1.1l2.8 1.5l2.4 1.8l-0.2 1.5l0.1 1.8l1.3 0.1l3.6 -1.6l2.8 -1.5l3.9 -1.4l4.2 -1.3l3.9 -0.7l3.7 0.2l4.9 0.7l4.9 0.1l3.5 0.1l3.5 0.5l1 1.3l1.6 1.3l1.4 -0.8l3 -2.4l2.9 -1.7l2.9 1.2l2.6 2l3.2 2.8l3.5 1.7l3.3 0.5l2.6 -2.5l2.7 -1.4l3.3 1.3l3.3 1.5l2.6 -1.6l0.9 -2.5l3.5 -0.8l2.2 -0.4l3.5 0.1l1.9 2.1l3.3 2.3l2.8 -0.2l3 -1.7l2.6 -2.4l3.5 1l4.5 2.3l3.8 1.7l2.1 0.3l3.4 -0.7l2.8 -2.3l7.3 -5.2l5.1 -0.5l5.6 -0.7l10.1 -0.8l8.2 1l6.1 2l7.3 1l2 -1.2l7.2 -1.6l8.5 -3.2l6.9 1.8l6.9 2.7l9 2.1l8.9 1.7l6.6 1.2l9.4 6l11.4 25.2l17.8 12.5l6.3 10.1l10.4 11.4l13.1 23.5l12.2 9.6l14.5 3.3l18.2 -8l12.1 -7.6l11.7 -7.4l19.5 -13.7l11 -6.1l10 -11.5l15.5 7.9l9.3 7.5l5.6 4.8l13.6 10.1l17.5 5.3l11.7 6.2l3.2 3.8l5.3 1.7l2.6 -1.9l5.9 0.9l6.5 4.3l9.6 -0.6l4.3 6l7.5 2.2l5.6 4.8l9.3 4.2l8 2.8l9 -7.1l12.2 -0.1l4.2 5.1l6.2 -1.2l5 -1.8l5 0.4l7.4 -1.6l11.4 -5.5l10 1.9l5.4 5.4l4.2 5.4l6.1 3l69.5 0.9l113.9 -0.1l17.6 -0l8.1 -21.5l-13.8 -58.1l20 -32.6l7.4 -1.7l10.4 -6.7l-1.7 -3.6l4 -9l15.3 -4.1l-4 -8.6l-5.1 0.5l-7.3 -15.2l-8.3 0.3l-4.9 5.5l-34.6 -15.8l-10.4 -32.5l16.6 -24.3l38.2 -10l13.7 -0.7l14.6 -16.8l13.5 -28.8l-13.7 -25.8l23.4 -42.7l-38.4 0l-771 -0l-6.6 -23.1l-6.4 -8.9l-51.8 0.2l-21 -19.6l-34.4 -13l-26.9 5.4l-11.7 -23l-22.8 -7.6l-29.4 -49l-9.4 -30.4l-31 -11l-3.8 -53.9l-48 -24.8l-18.4 2.4l-25.6 -24.9l-43.5 -21.6l-18 -36.1l-29.2 -29.2l-8.3 -20.3l-47.6 -39.1l14.4 -40.4l24.8 -34.3l4.6 -25.8l-5.3 -37.9l15.1 -41.5l-5.9 -1.5l1.2 -8.1l-3.5 -7.6l13 -29l3 -0.5l-31.2 -0.3l-25.3 -0l-0 -25.2l-61.8 0.1l-18.7 24.8l-0.1 0l-15.5 11.3l-47 -6.6l-18.1 -17.7l-39.9 -0.6l-24.6 -31l-9.1 9.2l-1.9 10l-28.6 22.3l4.8 43.8l-4.7 22l-52 5.8l-12.3 16.6l12.1 21.7l25.7 -1.6l6.4 40l18.1 20.3l-27.6 4.4l-12.7 17.7l45.1 63l-26.3 27.8l-22.3 5.7l-40.2 40l-8.5 105.6l12.6 41.6l30 3l4.8 28.3l-0.3 12.6l-0.8 16.8l-7.7 20.4l-35.5 28.5l-47.4 -3.9l-45.7 118.9l-27.8 -4.3l-11.1 32.9z" />
  </g>
  <g data-id="049">
    <path d="m5622.1 1338.4l0 0l-2.2 457.3l153.6 1.4l-1.9 154l153.5 -0.1l-1.2 154.1l-37.2 0l0.2 23.5l-0.6 127.8l147 -0.6l6.4 0.8l623.2 -2.8l-0.1 -151.7l20.5 0l1.6 -761l-127.4 -0.3l-0.4 -151.6l-230.1 -1.9l-0.2 -353.2l3.3 -205.4l-22.4 1.6l-46.4 19.6l-45.5 -4.1l-58 -29.9l-35.8 10.4l-28.2 24.8l-57.5 86.6l-127.4 20l-36.8 -3.5l-81 20.5l-0.2 0l-9.7 2.2l-38.7 11.7l-72.1 6.7l-41.7 21.1l-6.5 521.8z" />
  </g>
  <g data-id="051">
    <path d="m2006.8 977.9l0 0l0 139.5l24.9 38.7l26.2 0.5l-0.2 24.9l24.3 0.2l0.9 25.3l25.6 0.1l-0.2 25.3l25.7 19.8l25.6 6l25.6 25.6l25.2 25.7l-0.1 25.2l25.5 5.1l0.1 16l0 4.4l0 25.3l0 2.8l0.1 38.2l-0.1 51.4l-0 9l6.4 0.1l6.3 0.1l35.1 0.3l69.6 0.6l2.7 -17.1l-17.9 -27.1l24 -6.5l49.6 0l6 0l34.6 0.2l12.6 0.5l13.3 0l24.9 -0.4l178.4 -0l317.2 2.2l4.8 -2.1l172.4 -0.3l192.9 2.1l9.3 -2.6l-54.5 -54.9l4.4 -14.8l-18.2 -25.8l-23.5 4.3l-16.1 -14.3l-12.5 -44.5l16.9 -14.4l-18.3 -57.1l7.9 -25.7l-12.8 -15.9l0 -67.9l-16.2 8.8l-20.6 -1.4l-4.8 2.5l-9.7 19.1l-20.1 14l-4 3.6l-25.5 12.2l-23.3 1.4l-27 10l-70.8 45.9l-13.2 3.7l-17.1 -2.1l0 0.1l-4.1 -0.7l-0.1 0l-13.8 -2.8l-53.1 12l-22.3 23.9l-58.4 28.9l-0.1 0l-16.9 6l-5 0.8l-34.9 0.5l-45.2 -8.3l-26.3 -37.4l-34 -11.5l-14.2 2.5l-11.6 6.1l-11.7 6.1l-34.6 7.1l-18.8 -6.6l-25.7 -19.4l-5.8 -2.6l-16 -6.2l-16.2 -4.7l-22.6 -6.5l-30.3 -12.6l-2.2 -0.7l-38.9 -12l-5.7 -1.4l-20.5 -5.1l-51.1 -3.7l-38.4 -14.7l-19.8 -11.8l-27.6 -22.5l-30.7 -11.8l-30 -21.7l-1.7 -1.2l-13.2 -41.2l2.5 -34l12.8 -51.2l-27.9 13.5l-178.5 -0.9z" />
  </g>
  <g data-id="053">
    <path d="m1023.3 2169.6l0 0l-0.4 532.9l25.2 0.1l0.1 31l125.9 0l26.8 3l73.6 -2.6l271.4 1.8l148.2 -0.4l40.8 -0.2l20.2 -40.3l-13.8 -9.7l-2.4 -37.1l29.4 -41l30.1 -9.3l7.7 -21.6l-24.6 -17.7l-25.1 -8.3l-54.9 -9.3l-4.6 -24.1l11.1 -32.9l27.8 4.3l45.7 -118.9l47.4 3.9l35.5 -28.5l7.7 -20.4l0.8 -16.8l0.3 -12.6l-4.8 -28.3l-30 -3l-12.6 -41.6l8.5 -105.6l-526.3 -0.5l-1.2 0l-283 -1.9l-0.4 55.6z" />
  </g>
  <g data-id="055">
    <path d="m4357.7 1742.2l0 0l-2.6 2.1l3.7 4.2l2.6 -1l6.8 -0.6l0.6 8.2l-2.8 3.3l-3.5 3.7l-0.5 7.6l3.1 2.7l1.7 7.4l-4.3 4.4l0.7 5.1l-0.2 13.9l0.6 7.3l0.6 5.6l-1.3 5.2l-2.1 5.4l2.6 4.7l1.4 2.3l0.1 2.7l-1.6 2.1l-1 3.1l1.3 2.1l3.4 2.1l-0.9 3.7l-3.2 3.4l0.3 3.2l1.8 3.1l-2.7 1.8l-0.7 3l4.3 2l2.1 -0l-0 3.9l-0.6 3.3l3.9 1.2l4.4 1.8l2.2 4.4l1.3 -1.6l4.7 0.8l4.4 2.2l6.5 2.2l1.5 3.9l2.2 3.3l1.3 -0.8l3.5 -0.5l1.3 2.2l2 5.5l2.1 2.4l2.4 0.2l1 -1.6l3.1 -1.2l2.5 1.6l5.5 -2.5l5.4 0.3l4.2 2.9l4.7 0.2l4.4 2.3l4.6 1l3.3 -1l0.4 -2.9l-1.7 -1.4l-0.6 -2.7l3.1 -1.6l3.3 0.5l0.5 1.7l3.1 0.9l1.4 -0.7l2.6 1l0.7 1.8l2.8 1.3l1 -2.2l2.5 -2.1l2 1.2l3.5 -2.8l0.8 -2.6l2.5 1l0.2 2.7l4.4 1.7l3.1 -2.3l3.5 -1.9l2.7 2.5l-1.4 1.5l1.1 3.9l2.4 0.1l3.4 -1.5l4 -1.9l4.6 -1.7l2.1 -3.9l6.5 -0.7l5.7 1.8l2.2 2.1l3.1 0.3l0.9 -1.5l4.3 1.1l2.7 2.6l4.3 -1.2l7.2 3l6.1 0l2.2 1l3 2.2l4 3.6l4.7 0.1l3.3 1.1l1.9 1.6l2 2.4l1.6 2.4l2.6 1.7l0.5 -0.3l3.3 1.9l1.7 2l4.3 2.4l3.6 1.8l3.3 4.6l1.7 4l2.3 1.5l4.3 1.9l2.2 2.3l3.4 1.4l2.1 -1.1l3.1 1.7l4.5 5l4.8 0.8l5.2 3.3l2.5 3.8l1.9 2.2l1.2 -1l2 -0.5l2.5 2l2.3 2.1l3.5 1.1l1.8 1.1l5.3 -0.2l3.6 2.7l3.7 -1.5l4.7 2l4.6 -0.5l4.8 1.2l4.6 1.2l3.3 4.3l0.1 3.8l-1.9 2.2l1.9 2l1.6 2.5l2 3.8l3.4 3l0.7 3.6l-0.2 3.7l2.6 2.2l1.8 0.2l4 -0.5l3.6 2.4l3.8 2.6l3.3 5.1l4.7 4.2l6.1 3l4.9 -1l3.9 3.7l4.3 2.2l3.1 0.9l0.6 2.1l0.6 3.6l0.8 6.2l0.6 4.2l2.6 2.1l1.8 2.9l0 3.1l-0.3 3.4l0.7 4.8l0.2 2.3l-0.6 3.1l-1 3.3l-1.1 1.9l-2.3 1l-2.2 2.9l-2.5 3.8l-1.8 3.8l-1.4 4.3l1.8 3l-0.3 4.4l1 2.9l-1 2.5l-2.5 1.9l-0.3 4.4l-0.9 1.8l3 3.3l19 -0l44.1 0.1l44.6 0.1l28.9 0.1l60.3 0.1l28.3 0.1l41.9 -0l10 -0l-0.4 -1.5l-5.8 -5.4l-4.8 -7l-0.2 -10.9l7.4 -9l7.1 -2.3l11.4 -3.1l13.6 -3.5l8.9 -4l6.4 7.4l1.4 7.7l4.7 -3.9l3 -8.6l1 -14.7l-2.4 -13.7l-0.3 -16.8l11.4 -8.4l3.7 -8.9l-6.4 -1.9l-7.7 1.9l-6.4 -4.1l-5.6 -4.1l-6.4 -8.9l5.4 -8.6l4.2 -6l-7.7 -8.9l-6.3 -2.5l0.1 -6l6.1 -3.9l-2.2 -9.5l-5.3 0l-6.3 -7.4l4.3 -3.5l2.5 -8.9l-8.7 -10.1l-11.2 1l-6.8 1.6l-6.7 -2.6l-9 -3.7l-6.1 -4.4l-0.5 -3.5l-3 -2.3l-3.6 0.7l-6.1 -1.9l-1.9 -6l-1.4 -3.5l-4.6 0l-2.3 1.1l-4 -1.2l-0.9 -4.2l2.5 -4.7l6.6 -2.2l4.1 1.6l7 -1.6l3.3 -5.1l-2.5 -6l-6.2 -1.2l-7.2 4.6l-2.3 2.8l-5.2 -0.7l-2.6 -3.2l0.4 -6.5l2.7 -7.2l0.4 -4.7l-1.9 -5.1l-4.6 -3.3l-3.8 -5.4l-0.7 -6.5l-3.1 -6l-2.8 -3.5l2 -4.9l4 -1.1l11.9 0.2l6.9 -3l2.5 -4.4l-1.4 -6.1l-5.1 -2.6l-4.8 1.4l-5.2 -2.3l0 -4l4 -9l3.8 -6.5l-1.2 -8.8l-5.4 -2.8l-8.3 1.6l-0.1 -6.3l5.7 -1.4l4.1 -0.5l2.8 -6.3l-1.7 -5.3l-4.1 -9.1l0.7 -6.3l3.8 -7l3.5 -1.1l3.3 5.8l0.6 5.4l2.7 4.6l6.9 0.2l4.5 -3l2.6 -6.7l-0.9 -7.4l-5.8 -5.1l-8.5 -2.6l-4.9 -3l1.2 -7.4l5.7 -2.3l8.9 -6.3l0.1 -9.1l-8 -5.3l-4.6 1.1l-3.7 -3.7l2.8 -1.6l4.5 -0.9l5.2 -2.8l-0.1 -4.6l0.2 -8.4l-4.6 -6.9l-6.3 -1.2l-4.1 -5.3l4.1 -4l6.9 -4.6l0.4 -9.9l3.3 -10.2l-2.6 -4.9l0.4 -7l5.6 -1.4l5.6 -3.9l4.6 -5.5l8.9 -1.4l-5.6 -6l-8.7 -0.4l-4.2 1.2l-0.6 -10l7.3 -6.3l-0.4 -13.2l-6.7 -9l10 -4.8l6.3 1.9l10.5 -6l2.5 -8.8l2 -7.9l9.6 -1.9l4 1.9l7.4 -2.1l3.1 -3.2l-3.1 -7l-4.2 -4.8l-14.5 -1.8l-3.7 0.2l-0.7 -8.1l5.7 -2.8l12 -0.5l8.3 -3.9l-3 -8.7l-7.9 -3.8l-4.3 -10.6l8.3 -7.6l6.8 -2.5l-2.7 -10.6l-6.6 -1.6l-4.5 -2.3l3.3 -8.1l18.8 -8.8l7.5 -6.3l5.4 -2.1l8.9 -5.8l3.6 -4.7l10.2 -1l5 6.1l9.9 12.2l10.5 5.3l6.5 4.7l10.1 -1.9l7.6 -9.7l-2.7 -8.5l-14.3 -5.6l-2.6 -14.5l-3.9 -7.3l2.6 -7.5l4.9 -0.5l12.4 2.6l15.1 2.5l12.5 0.4l9.6 4.9l6.8 1.1l2.8 -1.1l6.8 -3l3.1 -4.1l0.9 -3.6l2.3 -5.9l2.3 -6.1l-2.1 -7.4l-6.4 -7.6l-7.7 -3.3l-3.8 -1.7l-5.3 -8.1l5.4 -8.7l4.1 -4.3l8.5 -2l5.4 1.2l4.2 -4.7l-3.3 -4.6l-10 -3.1l-9.4 0l-4.4 -1.1l-4.1 -3.9l-3 -7.7l-3 -7l-4.4 -4l-6.2 -3.6l-6.5 -4.6l-6.8 -6.6l1.8 -8.9l4.2 -6.3l-3.3 -15.5l-4.3 -10.3l-0.5 -13.9l-1.3 -7.7l-4.9 -3.3l-8.4 -1.5l-9.7 0.1l-7.8 -4.3l-8.1 -9.1l-4.5 -9.7l0.2 -11.9l5.4 -6.1l1.6 -6.1l-0.6 -2.3l-5.2 -2.6l-7.4 1.1l-11.2 8.5l-6.7 3.4l-6 -2.8l-0.6 -4.8l-2.9 -4l-5.6 -2.1l-1.7 -7.3l-4.5 -4.9l-3.1 -1l-1.1 -6l3.7 -2l4.9 -2.9l-0.6 -4l-2.8 -3.2l-7.4 1l-3 2.2l-2.4 -3.7l-0.7 -4.9l1.6 -5.1l1.9 -3.6l-1.5 -4.8l-4.2 -0.6l-6.4 0.2l-3.7 -3.3l-3.8 -4.7l-1.6 -2l-2.3 -4.1l-14.6 -5.8l-15 -8.3l-10.2 2.1l-11.1 0.5l-2.8 -8.1l-10.4 -12.9l-9 -13.8l-10.9 -13.8l-18.5 -6.4l-15.2 -9l-8.7 -17l-15.8 -10.1l-12 1.9l-16.2 -5.5l-3.8 -12.6l-1.3 -4.8l-4.1 -6.1l-19 12.6l-25.3 25.3l-43 16.6l-80 35.8l-82.6 26l-17.8 18.2l-31.6 32.4l-22.1 5.1l-2.9 -2.2l1.3 9.8l1.2 2.8l5.2 9.5l3.5 6.6l1.1 2l2.1 8.1l-2.2 9.7l-5.1 6.7l-2.2 7.8l4.1 6.4l6.3 4.2l5.3 5l3.4 9l1.1 6.2l-5.3 9.9l-4.6 7.2l-2.9 9.1l0 6.2l-0.7 4.9l-2.5 4.8l-1.3 5.1l2.8 7.9l5.6 7.3l2.9 4.7l1.9 10.2l5.8 4.1l6.9 2.8l4.3 13.1l4.6 10.3l6.2 0.5l3.4 -0.7l9.9 -2.7l10.3 6.8l3.7 4.5l6.7 4.3l6.6 4.1l3 1.3l7.4 2l3.3 -0.1l4.9 0.6l2.3 7.1l-4.3 3.4l-6.2 3.5l-4.2 6.2l1 7.2l4.4 6.4l-1.3 10.1l-4.7 11.3l-0.6 5.8l2.1 9.9l1.8 10.6l-6.9 7.1l-6.2 5.2l-9.4 0.9l-7.2 6.7l-1.9 10.4l-4.7 10.6l4.2 14.8l10.1 6.3l5.4 5l-2.6 6.6l-6.3 0l-7.7 2.1l1.2 4.6l-0.7 5.5l-3.7 9.4l-0.7 9l-1.6 8.8l-1.5 8.3l1.7 8.5l1.7 7.1l-2.2 4.5l-4.3 1.2l-4.3 -2.4l-4.6 -4.5l-5.9 5.1l-5.9 9.1l-11.3 15l-3.2 8.7l0.2 6.6l-1.2 7.8l-10.9 0.4l-10.8 1l-2.5 12.2l0.4 5.3l-6.8 7.4l-8.4 -0.5l-9.4 4.5l0 5l8.1 7.9l0.9 9.5l-2.2 2.1l-7.4 -1.8l-5.1 -5.2l-11.9 3.2l3.7 1.5l5.8 5l0 8.5l-3.3 5.4l-7.7 12.5l-7.9 12.7l-9.9 0.2l-5.7 -7.6l0.1 -5.5l0.7 -4.5l0.8 -3.8l-2.8 -2.2l-2.6 -1.3l-7.9 0.3l-3.5 5.1l-2.6 10l-3.8 8.3l-10.4 1.4l-6.6 -4.1l-9.5 2.7l-6.6 17.9l-5.9 12.8l-5.2 4.3z" />
  </g>
  <g data-id="057">
    <path d="m663.4 2134.1l0 0l-2.6 26.2l10.2 4.4l6.3 -1.6l0.3 3.4l-0.3 2.2l346.1 0.9l0.4 -55.6l-74 -0.8l-0.4 -244.8l396.9 -0l0.5 -102.3l-1.2 -175.8l-0.9 -103.5l-26.2 0.2l0.8 -24.6l26.7 -0.2l3.3 -78.1l24.8 0.5l-2 -52.6l25.7 -0.5l0 -24.6l24.5 -0.5l0.1 -25.5l50.6 0.3l0 -51l50.9 0.2l-0.3 -25.3l25.9 -0.1l-0.2 -25.1l-50.6 -0.4l-0.2 -26.1l-49.7 0.4l0.6 -24.3l-53.2 -0.7l0.3 -25.5l-25.8 -0.1l0.1 -25.6l-25.1 -0l-0.3 -25l-25.7 0l0.5 -52.2l152.9 0.1l-0.7 -125.6l-152.7 -0.8l0.1 7.7l-290.4 4.6l0.2 -18l-308.5 0.2l-0.1 1.3l-15.3 25l-0.9 11.5l17.3 8.5l27.9 42.1l3.6 11l4.5 32.3l0.5 82.9l-15.1 134.6l-6.8 25.6l10.1 10.2l1.2 1.2l-12.4 96.2l-10.8 30l-5.5 -0.2l-7.1 6.7l4.4 39.2l11 32.4l4.3 32.3l-6.4 78.4l-9.5 55.3l-7.8 12.4l-34.3 14l-0.3 5.1l36 -3.6l7.1 3.5l10.8 34.9l1.6 64.7l-12.4 111.4l5.8 27.3l-8.9 97.7l-17.4 90.1l-19 17.2l-1.5 -0.9l-7.5 13.7l-4.6 21.3z" />
  </g>
  <g data-id="059">
    <path d="m6326.7 834.3l0 0l0.2 353.2l230.1 1.9l0.4 151.6l127.4 0.3l-1.6 761l-20.5 -0l0.1 151.7l796.5 0.6l0 -148.4l-35.8 -0.1l1.3 -203.6l-135.2 -0.1l-0.1 -106.7l-50.5 0.2l-1 -154.7l51.3 0.9l53.2 9.3l0.2 -26.9l228.4 -0l-0.3 -130.1l29.3 0.1l-0.1 -23.8l25.5 -0.1l22.1 24l154.1 0.2l54.1 2.9l-0.1 -76.1l100.7 -0.6l-2.3 -77.5l1.4 -307.4l62.8 0.4l-0.2 -150.7l26.5 -0l0.1 -77.3l89.1 0.3l-0 -77.5l-5.8 -0l-0 -249.1l-23.8 -0.1l-0 0l-159.8 0.9l-6 0l-18.6 -0.7l-102.5 0.5l-9.4 0l-19.7 -0.1l-4.7 0l-33.6 -0.6l-38.9 0.6l-65.3 -0.3l-13.1 0.1l-31.4 -0l-82.8 -0.1l-32.5 0l-49.6 -0.4l-39.9 0.1l-7.8 0.1l-5.2 -0.2l-33.2 -0.1l-38.2 -0.1l-2 -0l-24 0.1l-23.7 0l-325.6 0.6l-56.7 1.3l-0.1 0.1l-26.4 36.5l-22.9 18l-42.5 18.9l-39.3 28.1l-40.7 17.6l-53.6 9.3l-32.2 -0.5l-37.4 -8.6l-38.8 -12.8l-80.8 12l-51.8 20.6l-83.8 6l-3.3 205.4z" />
  </g>
  <g data-id="061">
    <path d="m7237.9 1641.2l0 0l1 154.7l50.5 -0.2l0.1 106.7l135.2 0.1l-1.3 203.6l35.8 0.1l-0 148.4l61.6 1.2l39 18.2l1.5 39.1l39.3 -24.5l16.7 7.6l32.9 -32.6l21.8 6.6l34 19.2l24.2 26.1l21.4 -6.5l7.7 11.9l38.7 -0.9l38.1 -53.8l-0.8 -30.4l24.2 -18.8l41.9 2.8l23.1 -21l15.1 -30.4l47 6.8l27.9 42.6l40.1 22.5l47.1 16.9l37 -2.6l58.7 -40.9l31.1 -32.7l10.8 -34.1l17.8 -14.2l13.2 19.5l23.7 -7.1l31.4 57l17.5 -10.4l27.3 32l5.3 37.5l263.9 -1.2l0.7 -151.5l367.8 -2l-0 -150.6l-260.5 0l-0.1 -76.2l-54.6 0.4l-1.6 -101.8l-24.7 0.5l0.2 -50.1l-24.6 0.1l-0.3 -25.2l-24.7 0.1l-0.2 -49.1l-75.6 2.2l0 -50.1l-24.6 -0.8l-0.9 -110.2l-24.3 -0l-0.2 -153.1l-53.5 0.8l0 -180.5l-23.2 0.6l-0.2 -78l-25.9 0.9l0.2 -52l-25.7 0.1l-1 -148.7l50.4 -0.2l0.4 -155.1l-279 0.8l0 77.5l-89.1 -0.3l-0.1 77.3l-26.5 0l0.2 150.7l-62.8 -0.4l-1.4 307.4l2.3 77.5l-100.7 0.6l0.1 76.1l-54.1 -2.9l-154.1 -0.2l-22.1 -24l-25.5 0.1l0.1 23.8l-29.3 -0.1l0.3 130.1l-228.4 0l-0.2 26.9l-53.2 -9.3l-51.3 -0.9z" />
  </g>
  <g data-id="063">
    <path d="m8128.1 482.2l0 0l0 249.1l5.8 0l279 -0.8l-0.4 155.1l-50.4 0.2l1 148.7l25.7 -0.1l-0.2 52l25.9 -0.9l0.2 78l23.2 -0.6l-0 180.5l53.5 -0.8l0.2 153.1l24.3 0l0.9 110.2l24.6 0.8l-0 50.1l75.6 -2.2l0.2 49.1l24.7 -0.1l0.3 25.2l24.6 -0.1l-0.2 50.1l24.7 -0.5l1.6 101.8l54.6 -0.4l0.1 76.2l260.5 0l0 150.6l596.2 4l-0.6 -17.3l0.9 -9.6l1.3 -3.8l9.5 -17.1l25 -14.8l29 -45.5l2 -3.8l1.1 -4l5.6 -32.5l-0 -15l18.1 -55.3l1.2 -7.6l-1.5 -17.4l0.5 -3.9l7.1 -35.6l9.3 -26.2l5.8 -15.9l5.2 -6.9l0.2 -0.3l7.4 -5l6.7 -7.3l1.4 -2.6l2.2 -12l0.7 -10.1l-0.5 -16l-2.5 -28.7l1.1 -12.6l25.4 -52l32.9 -65l9.4 -17.9l26.7 -25.6l6.2 -25.7l5.2 -27.4l8.4 -10.7l6.7 -6.2l14.8 -13.5l2.8 -1.8l8.5 -3l-0.2 -17.4l-4.7 -12.8l-0 -2l6.6 -31.6l5.9 -19.9l6 -6.7l10.3 -19.2l14.6 -38l25.8 -35.3l15.4 -13.9l9 -4.4l1.3 -1.6l22.6 -44l0.2 -23l-2.1 -3.9l-5.7 -4.6l-3.8 -7.6l-5.6 -11.3l-6.2 -15.3l-6.7 -17.4l-8.2 -10.5l-22 -25.7l-14.4 -13.1l-5.3 -6.8l-8.8 -18.2l-1.2 -8.7l-2 -32.4l2.9 -34.2l-1.8 -5.4l-11.7 -24.2l-3 -3.1l-5.5 -1.2l-7.3 -3.2l-22.2 -21.9l-19.3 -19.5l-14.9 -4.4l-33.4 -7l-4.7 2.4l-4.7 4.2l-8.3 2.6l-16.4 -0.4l-7.1 -3.5l-18.3 -20.6l-8.5 -22.6l-12.6 -24.5l-1.1 -1.3l-12.8 -7.6l-4.2 -2l-4.6 -0.9l-25.6 1.1l-5.2 3l-5.9 5.4l-7.1 5.1l-5.3 2.6l-5.6 1.6l-4.5 -0.7l-23.8 -15.6l-7 -11.6l-0.9 -2.7l0.2 -5.8l1.7 -6.1l-0.3 -7.2l-2.9 -9.9l-5.3 -11.2l-2 -4.1l-22.4 -33.9l-6.2 -6l-13.4 -9.7l-16.7 -10.4l-16.9 -21.1l-3.1 -5.5l-8.3 -17.2l-3.8 -12.2l-7.5 -37.7l-13.8 -24.2l-7.5 -28.1l-22.8 -25.8l-5.7 -11.6l-30.5 -1.5l-55.9 -1.2l-80.9 0.2l-23.2 -1.2l-176.3 -1.4l-2.4 0l-2.7 -0.1l-149.5 -0.5l-20.1 4.1l-45.5 -4l-60.8 -0.1l-43.5 1.3l-0.3 0.1l-5.7 -0l-0.2 -0l-30.6 -0.8l-121.6 -1l-0.3 -0l-141.5 -1.7l-321.2 -1.5z" />
  </g>
  <g data-id="065">
    <path d="m3396.2 2227.2l0 0l4.5 50.3l18.4 65.6l42.4 25.6l6.3 27.8l40.7 15.2l-24.5 35.2l-23.4 42.7l13.7 25.8l-13.5 28.8l34.5 7.7l785.7 3.9l214.8 0.5l672.8 2.1l-35.9 -14.5l-14.5 -37.6l-53.1 -24.3l-4.1 -27.8l27.7 -21.8l-18.4 -25.5l-22.1 -8.2l-4.9 -38.5l-19 -26.6l13.3 -51.9l-11.2 -45.1l5.1 -86.9l-15.7 -21.8l-10.6 -26.6l-10 0l-41.9 0l-28.3 -0.1l-60.3 -0.1l-28.9 -0.1l-44.6 -0.1l-44.1 -0.1l-19 0l-3 -3.3l0.9 -1.8l0.3 -4.4l2.5 -1.9l1 -2.5l-1 -2.9l0.3 -4.4l-1.8 -3l1.4 -4.3l1.8 -3.8l2.5 -3.8l2.2 -2.9l2.3 -1l1.1 -1.9l1 -3.3l0.6 -3.1l-0.2 -2.3l-0.7 -4.8l0.3 -3.4l-0 -3.1l-1.8 -2.9l-2.6 -2.1l-0.6 -4.2l-0.8 -6.2l-0.6 -3.6l-0.6 -2.1l-3.1 -0.9l-4.3 -2.2l-3.9 -3.7l-4.9 1l-6.1 -3l-4.7 -4.2l-3.3 -5.1l-3.8 -2.6l-3.6 -2.4l-4 0.5l-1.8 -0.2l-2.6 -2.2l0.2 -3.7l-0.7 -3.6l-3.4 -3l-2 -3.8l-1.6 -2.5l-1.9 -2l1.9 -2.2l-0.1 -3.8l-3.3 -4.3l-4.6 -1.2l-4.8 -1.2l-4.6 0.5l-4.7 -2l-3.7 1.5l-3.6 -2.7l-5.3 0.2l-1.8 -1.1l-3.5 -1.1l-2.3 -2.1l-2.5 -2l-2 0.5l-1.2 1l-1.9 -2.2l-2.5 -3.8l-5.2 -3.3l-4.8 -0.8l-4.5 -5l-3.1 -1.7l-2.1 1.1l-3.4 -1.4l-2.2 -2.3l-4.3 -1.9l-2.3 -1.5l-1.7 -4l-3.3 -4.6l-3.6 -1.8l-4.3 -2.4l-1.7 -2l-3.3 -1.9l-0.5 0.3l-2.6 -1.7l-1.6 -2.4l-2 -2.4l-1.9 -1.6l-3.3 -1.1l-4.7 -0.1l-4 -3.6l-3 -2.2l-2.2 -1l-6.1 -0l-7.2 -3l-4.3 1.2l-2.7 -2.6l-4.3 -1.1l-0.9 1.5l-3.1 -0.3l-2.2 -2.1l-5.7 -1.8l-6.5 0.7l-2.1 3.9l-4.6 1.7l-4 1.9l-3.4 1.5l-2.4 -0.1l-1.1 -3.9l1.4 -1.5l-2.7 -2.5l-3.5 1.9l-3.1 2.3l-4.4 -1.7l-0.2 -2.7l-2.5 -1l-0.8 2.6l-3.5 2.8l-2 -1.2l-2.5 2.1l-1 2.2l-2.8 -1.3l-0.7 -1.8l-2.6 -1l-1.4 0.7l-3.1 -0.9l-0.5 -1.7l-3.3 -0.5l-3.1 1.6l0.6 2.7l1.7 1.4l-0.4 2.9l-3.3 1l-4.6 -1l-4.4 -2.3l-4.7 -0.2l-4.2 -2.9l-5.4 -0.3l-5.5 2.5l-2.5 -1.6l-3.1 1.2l-1 1.6l-2.4 -0.2l-2.1 -2.4l-2 -5.5l-1.3 -2.2l-3.5 0.5l-1.3 0.8l-2.2 -3.3l-1.5 -3.9l-6.5 -2.2l-4.4 -2.2l-4.7 -0.8l-1.3 1.6l-2.2 -4.4l-4.4 -1.8l-3.9 -1.2l0.6 -3.3l0 -3.9l-2.1 0l-4.3 -2l0.7 -3l2.7 -1.8l-1.8 -3.1l-0.3 -3.2l3.2 -3.4l0.9 -3.7l-3.4 -2.1l-1.3 -2.1l1 -3.1l1.6 -2.1l-0.1 -2.7l-1.4 -2.3l-2.6 -4.7l2.1 -5.4l1.3 -5.2l-0.6 -5.6l-0.6 -7.3l0.2 -13.9l-0.7 -5.1l4.3 -4.4l-1.7 -7.4l-3.1 -2.7l0.5 -7.6l3.5 -3.7l2.8 -3.3l-0.6 -8.2l-6.8 0.6l-2.6 1l-3.7 -4.2l2.6 -2.1l5.2 -4.3l5.9 -12.8l6.6 -17.9l9.5 -2.7l6.6 4.1l10.4 -1.4l3.8 -8.3l2.6 -10l3.5 -5.1l7.9 -0.3l2.6 1.3l2.8 2.2l-0.8 3.8l-0.7 4.5l-0.1 5.5l5.7 7.6l9.9 -0.2l7.9 -12.7l7.7 -12.5l3.3 -5.4l-0 -8.5l-5.8 -5l-3.7 -1.5l11.9 -3.2l5.1 5.2l7.4 1.8l2.2 -2.1l-0.9 -9.5l-8.1 -7.9l-0 -5l9.4 -4.5l8.4 0.5l6.8 -7.4l-0.4 -5.3l2.5 -12.2l10.8 -1l10.9 -0.4l1.2 -7.8l-0.2 -6.6l3.2 -8.7l11.3 -15l5.9 -9.1l5.9 -5.1l4.6 4.5l4.3 2.4l4.3 -1.2l2.2 -4.5l-1.7 -7.1l-1.7 -8.5l1.5 -8.3l1.6 -8.8l0.7 -9l3.7 -9.4l0.7 -5.5l-1.2 -4.6l7.7 -2.1l6.3 -0l2.6 -6.6l-5.4 -5l-10.1 -6.3l-4.2 -14.8l4.7 -10.6l1.9 -10.4l7.2 -6.7l9.4 -0.9l6.2 -5.2l6.9 -7.1l-1.8 -10.6l-2.1 -9.9l0.6 -5.8l4.7 -11.3l1.3 -10.1l-4.4 -6.4l-1 -7.2l4.2 -6.2l6.2 -3.5l4.3 -3.4l-2.3 -7.1l-4.9 -0.6l-3.3 0.1l-7.4 -2l-3 -1.3l-6.6 -4.1l-6.7 -4.3l-3.7 -4.5l-10.3 -6.8l-9.9 2.7l-3.4 0.7l-6.2 -0.5l-4.6 -10.3l-4.3 -13.1l-6.9 -2.8l-5.8 -4.1l-1.9 -10.2l-2.9 -4.7l-5.6 -7.3l-2.8 -7.9l1.3 -5.1l2.5 -4.8l0.7 -4.9l-0 -6.2l2.9 -9.1l4.6 -7.2l5.3 -9.9l-1.1 -6.2l-3.4 -9l-5.3 -5l-6.3 -4.2l-4.1 -6.4l2.2 -7.8l5.1 -6.7l2.2 -9.7l-2.1 -8.1l-1.1 -2l-3.5 -6.6l-5.2 -9.5l-1.2 -2.8l-1.3 -9.8l-0.1 -0.1l-34.7 -26.7l-11.2 -0.5l-30.8 13.1l-6.8 1.8l-29.6 -8.6l-32.3 3.9l-38.1 -2.7l-25.4 8.2l-43.4 43.8l3.7 8.9l-6.4 3.6l-6.8 6.3l-5.2 4.8l-9.3 -3.9l-7.5 7.2l-27.6 3.2l-19.8 -0.6l-15.7 -18.1l1.6 -22.7l-6.3 -35.9l-19.1 -37.9l-43.8 -12.7l-44.7 -15.3l-30.8 -22.8l-31.6 -8.9l-43 3.3l-36.1 18.1l-27 -2l-21.8 -5.9l0.7 314.4l-51.3 -0.4l0.3 460.3l-265.3 0.4l19.3 12.9l-2.1 37.9l-19.5 4.5l-20.1 26.7l-41.5 10.8l20.8 60.5l7.6 19.8l16.9 11.4l4.4 32.9l18.1 30l10.4 -11.8l23.8 7l17.7 54.2l-10.2 16.1l1.1 23.2l-35.3 -1.8l-43.4 37.4l6.6 14l-29.7 6.3l-46.6 -5l-3.5 38.2l-29.4 6.8z" />
  </g>
  <g data-id="067">
    <path d="m1319.1 1462.5l0 0l-0.8 24.6l26.2 -0.2l401.3 -0.3l1.2 0l5.1 25.6l25.2 -0l0.1 25.7l64 -0.9l38 -0.1l-0.2 24.8l26.1 -0.2l-0.5 25.8l51.2 51.8l6.4 0.9l51.7 0.3l17.8 50.6l50.7 0.2l26.4 0.3l0.1 -50.9l50.5 -0.3l0.1 25.5l76.3 -0.5l-0.2 -28.8l-0 -92l-0.1 -3.4l-0.1 -41.1l0.3 -12.8l0 -9l0.1 -51.4l-0.1 -38.2l-0 -2.8l0 -25.3l-0 -4.4l-0.1 -16l-25.5 -5.1l0.1 -25.2l-25.2 -25.7l-25.6 -25.6l-25.6 -6l-25.7 -19.8l0.2 -25.3l-25.6 -0.1l-0.9 -25.3l-24.3 -0.2l0.2 -24.9l-26.2 -0.5l-24.9 -38.7l-0 -139.5l0.3 -25.2l-76 -1.4l0 -25.5l-51.3 -1l1.2 -49.2l-382.7 -1.2l-26.2 0.5l0.7 125.6l-152.9 -0.1l-0.5 52.2l25.7 -0l0.3 25l25.1 0l-0.1 25.6l25.8 0.1l-0.3 25.5l53.2 0.7l-0.6 24.3l49.7 -0.4l0.2 26.1l50.6 0.4l0.2 25.1l-25.9 0.1l0.3 25.3l-50.9 -0.2l-0 51l-50.6 -0.3l-0.1 25.5l-24.5 0.5l-0 24.6l-25.7 0.5l2 52.6l-24.8 -0.5l-3.3 78.1l-26.7 0.2z" />
  </g>
  <g data-id="069">
    <path d="m5015.8 2127.9l0 0l15.7 21.8l-5.1 86.9l11.2 45.1l-13.3 51.9l19 26.6l4.9 38.5l22.1 8.2l18.4 25.5l-27.7 21.8l4.1 27.8l53.1 24.3l14.5 37.6l35.9 14.5l-41.1 47.1l23.5 58.4l-1.1 342.7l0.6 221.7l450.6 -4.7l1.1 85l150.1 0.2l0.3 143.4l301 -0.7l3.8 -895.8l-23.6 -0.1l-0.9 -299.8l-147 0.6l0.6 -127.8l-148.1 -0.2l-49.5 3.7l-224.1 -2.7l-449.1 -1.6z" />
  </g>
  <g data-id="071">
    <path d="m949.3 1868.5l0 0l0.4 244.8l74 0.8l283 1.9l1.2 -0l526.3 0.5l40.2 -40l22.3 -5.7l26.3 -27.8l-45.1 -63l12.7 -17.7l27.6 -4.4l-18.1 -20.3l-6.4 -40l-25.7 1.6l-12.1 -21.7l12.3 -16.6l52 -5.8l4.7 -22l-4.8 -43.8l28.6 -22.3l1.9 -10l9.1 -9.2l24.6 31l39.9 0.6l18.1 17.7l47 6.6l15.5 -11.3l-22.4 0l0.2 -101.3l-50.7 -0.2l-17.8 -50.6l-51.7 -0.3l-6.4 -0.9l-51.2 -51.8l0.5 -25.8l-26.1 0.2l0.2 -24.8l-38 0.1l-64 0.9l-0.1 -25.7l-25.2 0l-5.1 -25.6l-1.2 -0l-401.3 0.3l0.9 103.5l1.2 175.8l-0.5 102.3l-396.9 0z" />
  </g>
</svg>
