<?xml version="1.0" encoding="UTF-8"?>
<!DOCTYPE svg PUBLIC '-//W3C//DTD SVG 1.1//EN' 'http://www.w3.org/Graphics/SVG/1.1/DTD/svg11.dtd'>
<svg viewBox="0 0 10000 5155.74" xmlns="http://www.w3.org/2000/svg">
  <g data-id="001">
    <path d="m8747 3760.1l0 0l-0.9 148.4l196.6 -0.2l194.1 0.6l146 -2.4l49.5 2.5l0.3 -49l0 -99.1l10.9 0l0.2 -147.7l2.3 -222.5l-197 -0.2l-99.5 -0.4l-294.6 -0.3l-0.5 370.3l-7.4 -0z" />
  </g>
  <g data-id="003">
    <path d="m8757.9 3013.1l0 0l-3 376.7l294.6 0.3l99.5 0.4l197 0.2l1.6 -198.2l0.1 -24.1l1.6 -154.3l13.9 0.1l-1 -224.3l-394.6 -0.3l-198.5 -0.2l1.1 223.8l-12.4 -0.1z" />
  </g>
  <g data-id="005">
    <path d="m8686.1 762.6l0 0l-0 255l248 -2.3l273.9 2l284.2 0.3l-5.5 -4.6l-4.9 -8.7l-2.9 -16.6l-4.5 -7.5l-10.8 -9.8l-7.5 -3.4l-26.9 -8l-17 -9.5l-6.6 -4.5l-5.5 -4.9l-4.4 -4.7l-6.6 -10.5l-1.9 -4.4l-1.7 -9.5l-2 -24.3l-0.9 -5.4l-2.2 -4.3l-5.6 -6.9l-4.1 -3.8l-24.1 -12.9l-7.1 -5.5l-13.4 -13.1l-13.6 -15.8l-5 -7.5l-3.6 -8l-5.7 -20.3l0.6 -9l7.5 -25.6l1.4 -2.4l4.3 -4.4l5.5 -3.3l4.5 -1.6l8.3 -0.7l17.2 7.4l6.1 1.1l3.8 -0.2l6.4 -1.6l6.7 -3.5l3.5 -2.5l2.8 -3.3l7.4 -12.3l2.8 -9.6l1.1 -7.7l-0.1 -3.6l-2 -8.1l-6.8 -13.4l-0.5 -2.4l-43 0.4l-16.8 -10.1l-23 -55.1l-300.9 -0.8l-75.6 0.1l-225.1 0.1l-0.2 148.9l-8.1 2.5z" />
  </g>
  <g data-id="007">
    <path d="m4072.9 4352.3l0 0l1.5 145.4l13.7 -0.1l1.3 647.3l7.9 0l152.5 0.3l0.8 0.1l14.2 -0l96.5 0.1l5 0l2.4 -0l40.7 -0.3l57.8 0.4l5.3 0.2l227.3 0.1l0.3 0l166.8 0.8l2.6 -0l12.4 0l73.6 0.9l9.3 -0l-3.6 -649.5l-154.3 -0.1l0.4 -146.7l-734.3 1z" />
  </g>
  <g data-id="009">
    <path d="m4045.6 2264.2l0 0l0.8 596.8l0.1 148.8l13.2 0l134.9 -0l12.4 0.2l283.9 0.4l296.1 0.1l-1.1 -297.1l0.4 -149.2l0.6 -300.3l-8.2 0.1l-732.9 0.2z" />
  </g>
  <g data-id="011">
    <path d="m9332.4 3909l0 0l0.1 98.2l243.5 -0.1l25.6 -0.5l361.2 3l-0 -0l-0.2 -15.4l0.3 -7.5l0 -1.7l-0.2 -4.2l-0.2 -54.2l0.2 -12.8l0.1 -73.3l1.2 -78.8l0.6 -30.7l0 -13.1l0.2 -10.8l0.4 -19.5l0.2 -15.9l-0.1 -9.9l0.3 -14.5l0.3 -25.4l0.1 -7.8l0.3 -16.2l0.5 -31l-0.1 -4.2l0.1 -6.9l0.2 -6.1l0 -9.5l0 -2.6l0 -33.2l0.1 -28.5l0.3 -7.9l0.3 -75.7l-0 -0.2l-621.7 -1.1l-2.3 222.5l-0.2 147.7l-10.9 -0l-0 99.1l-0.3 49z" />
  </g>
  <g data-id="013">
    <path d="m8394.3 4.7l0 0l-1.1 606.3l301.3 0.2l225.1 -0.1l75.6 -0.1l-0.2 -605.6l-47.4 -0l-548.6 -0.8l-4.6 0l-0.1 -0z" />
  </g>
  <g data-id="015">
    <path d="m6564.5 3751.8l0 0l0.8 148l-0.1 24.8l-0.1 24.8l-0 49.4l0.1 49.5l0.3 147.6l-0.4 74l-0.4 73.8l146.7 -0.4l143.7 0.2l2 0.1l548.7 -1.3l0.5 -220.8l-0.6 -369.4l3.9 -444.1l-426.2 1.3l-418.3 -3.5l0.1 148.6l0.3 57.9l0.1 2.4l-0.1 14.3l0.1 0.9l0.1 73.5l0.4 148.6l-1.7 0z" />
  </g>
  <g data-id="017">
    <path d="m6983.3 3009.7l0 0l0.2 299.5l426.2 -1.3l220.7 0.9l1.1 -148l2.7 -248.7l1.9 -347.7l-624.2 -1.4l0 297.6l-24.4 -0.2l-0.2 124.4l-4.2 24.8z" />
  </g>
  <g data-id="019">
    <path d="m7406.9 4635.1l0 0l-0.9 511.2l33.9 0.1l113.7 -0.8l28.3 -0.2l154.4 -0.1l3.6 0l78.8 0.3l23.5 0.1l20.5 -0.3l0.1 0l41.1 0.1l2.2 0.2l3.6 0l3.4 0l5.3 -0.2l2.7 0.3l188.2 0.2l49 -0.4l-0.2 -431.3l-0 -73.3l-412.7 -2.5l-338.4 -3.4z" />
  </g>
  <g data-id="021">
    <path d="m9349.7 4572.4l0 0l1.3 369.3l0.6 121.9l0.2 81.4l32.2 -0.1l15.6 0.1l10.1 -0l25.3 -0l5.1 0l16.5 -0l190.4 1.1l4.6 -0l11.9 0.1l12.9 0l72.4 0.1l50.8 0.1l2.9 0l32.7 -0.2l14.7 -0l2.8 0l99.9 0.2l9.7 -0.4l-0 -17l0 -52.9l0.1 -27.3l-0.1 -30.7l-0.2 -18.2l0.1 -0.8l-0 -11.9l0 -0.3l0 -5l-0.1 -12.3l-0.1 -15.5l0.2 -27.9l0 -4.4l-0.4 -46.8l-0 -0l-0.2 -24.5l-0 -10.8l0.2 -12.8l0 -9.9l0 -21.3l0.1 -0.7l0.1 -20.6l0 -13.6l0 -2l-0 -13.9l0.1 -4.8l0.6 -140.1l-0.1 -22.3l0.1 -2.7l-272.3 -1.6l-340.9 -0.9z" />
  </g>
  <g data-id="023">
    <path d="m0 0.1l0 0l0.2 267.9l0.3 11.1l0.1 17.7l0.1 25l0.9 249.9l0.7 37.9l-0.4 13.5l0.6 93.5l0.2 31.8l0.1 10.2l852.1 -0.3l3.8 -756.9l-8.3 -0.1l-167.6 -0.3l-112 -0.2l-1.7 0.2l-238.3 -0.2l-3.8 -0.1l-32.8 -0.2l-11.9 0.3l-84.6 -0.7l-16.8 0l-181 0.1z" />
  </g>
  <g data-id="025">
    <path d="m2605.9 4344.8l0 0l-0.2 148.1l21.3 0.3l2.7 647.4l112.3 0.6l4.2 0l1.7 0l8.2 0.1l160.5 -0l119.8 1.2l15 0.2l0.8 0l156.3 1.1l12.1 1l31.2 -0.1l90.2 0.2l22.7 -0.1l-3.9 -323.6l1.1 -318.3l-16.9 0l-0.5 -146.2l-292.7 0.5l-299.2 -9.1l-146.7 -3.5z" />
  </g>
  <g data-id="027">
    <path d="m6273.3 1364.2l0 0l-0.6 150.5l149.6 -1.7l397.1 1.1l2.4 -0l-0.4 -151.7l4 -600.6l-549.3 -1.1l-1.7 452.9l-1.1 150.6z" />
  </g>
  <g data-id="029">
    <path d="m5521.8 609.7l0 0l-0.5 151.1l4.5 0l-0.9 452.1l749.5 0.7l1.7 -452.9l-0.1 -151.4l-754.3 0.5z" />
  </g>
  <g data-id="031">
    <path d="m8165.4 3163.8l0 0l-0.2 222.7l589.8 3.3l3 -376.7l12.4 0.1l-1.1 -223.8l0.1 -74.7l-592.4 -0.3l0.4 298l-11.4 -0l-0.5 151.4z" />
  </g>
  <g data-id="033">
    <path d="m3361.9 4503l0 0l-1.1 318.3l3.9 323.6l43.6 -0.1l6 0l1.9 0l3 0l0 0.1l21.5 -0.1l37.7 0.3l65.9 -0.2l42.4 -1l131.2 1l39.4 0l159 0.2l6.1 0l100.8 0.3l27.3 -0.6l38.9 0.1l-1.3 -647.3l-13.7 0.1l-635.8 4.9l-5.8 0.6l-71 -0.2z" />
  </g>
  <g data-id="035">
    <path d="m6564.6 4343.6l0 0l3.3 289.8l1.5 146.8l0.7 147.9l2 217.5l33.7 0.1l3.1 0l21.5 -0l4.9 0l81.6 -0l13 0.1l73.1 -0.2l11 -0.1l43.9 -0l12.5 -0.1l4.5 -0l6.5 -0.1l18.2 0.1l1.9 -0l34.6 -0.1l11.8 0l59.9 0.1l37 0.5l4.2 -0.5l56.6 0.3l11.5 -0.4l6.3 -0.1l35 0l6.8 0.1l241 0.8l0.9 -511.2l-1.1 -292.9l-548.7 1.3l-2 -0.1l-143.7 -0.2l-146.7 0.4z" />
  </g>
  <g data-id="037">
    <path d="m9332.5 4007.2l0 0l-0.2 491.2l17.7 0l-0.3 74l340.9 0.9l272.3 1.6l0.1 -43.4l0 -0.3l-0.1 -5.2l0 -0.2l0.1 -48.6l0.1 -24.5l0.3 -24.7l0.2 -24.1l-0.1 -25.3l-0 -9.4l-0 -0.2l0.1 -8l-0 -7.5l0.2 -23.8l0.3 -63.8l-0.2 -10.6l-0.4 -43.4l0 -6.5l0.1 -16.4l-0.3 -7.6l0 -0.7l-0.2 -63.6l0.2 -1.6l-0.2 -45.1l-0.1 -27.8l-0 -0.2l-0.2 -32.9l-361.2 -3l-25.6 0.5l-243.5 0.1z" />
  </g>
  <g data-id="039">
    <path d="m1759.5 1.6l0 0l-2.7 757.2l27.7 0l723.5 2l3.4 -758.1l-0 -0l-13.9 0.1l-2.9 -0.1l-4.4 0l-4.5 0.1l-24.7 -0.2l-18.9 -0.1l-2.9 0.1l-212.3 -0.3l-65.7 0.1l-10.7 -0l-29.1 0.1l-9.5 -0.1l-1.6 0l-13.6 -0l-32 -0.1l-54.7 -0.1l-20.6 0l-36.9 -0.2l-8.3 0.1l-59.6 0l-19.8 -0.5l-31.1 -0.1l-50.5 0.3l-11.8 -0.1l-4.5 -0.3l-7.4 0.1z" />
  </g>
  <g data-id="041">
    <path d="m6259.3 1864.9l0 0l12.2 25.2l0 74.9l0.4 150.3l-0.1 298.9l591.8 -0l-0.1 -49.9l0.1 -20.7l-4.9 -8.3l4.7 -40.9l0 -28.9l4.3 -199.6l49.7 -0l-0.1 -99.6l-48.9 -0.5l0.7 -187.1l-1.4 0.6l-4.2 0.2l-0.9 0.2l-3.3 -0.4l-40.2 23.5l0.7 -163.7l-0.3 -125.2l-397.1 -1.1l-149.6 1.7l-0.6 300.4l-12.9 49.9z" />
  </g>
  <g data-id="043">
    <path d="m8994.9 5.5l0 0l0.2 605.6l300.9 0.8l23 55.1l16.8 10.1l43 -0.4l-2.4 -11l0.3 -5.8l2.1 -9.3l5.2 -13.1l6.7 -11.3l7.4 -9.2l2.1 -5.7l13.2 -21.8l4.1 -5.3l8.4 -7.6l4 -2.4l8.4 -2.6l10.2 -1.2l10.5 -0.2l12.6 -2.2l3.5 -1.4l7 -4.8l6.7 -8.8l1.9 -4.6l1.2 -6.8l0.7 -25.2l-3.5 -27.4l-0.2 -10.7l1.1 -4.9l6.8 -12.1l7 -7l6.4 -4.6l3.6 -0.5l5.2 0.6l5.3 2.1l7.4 4.9l12.4 10.8l15.7 11.5l11.1 5.2l10 2.8l4.4 0.3l10.1 -1.5l10.2 -3.3l11.4 -6.4l7.4 -7.1l9.6 -14.6l3.4 -11.4l1.2 -7l0 -0.3l-1.7 -16.4l-3.2 -7.3l-2.8 -4.9l-2.5 -2.8l-3.4 -2.1l-2 -0.2l-13.8 3l-0.1 0l-3.3 1.9l-13 10.4l-0.1 0.1l-0.3 0.2l-0.2 0.2l-1.3 1l-0.3 0.2l-5.2 3.4l-9.5 3.2l-8.1 0.1l-6 -2.8l-12.7 -9.7l-4.6 -4.5l-6.2 -7.9l-1.4 -3.4l-0.6 -5.7l0.8 -7.4l3.3 -5.5l4.1 -3.5l5.4 -2.6l43.7 -2.3l3.6 -0.9l8.3 -4.5l4.2 -5.4l6.1 -16.7l0.5 -11.2l-0.8 -12.7l-0.1 -0.5l-0.6 -5l-2.2 -4.8l-3.1 -4.2l-7.9 -7.3l-3.4 -1.6l-4.3 -0.6l-14 0.9l-9.1 -1l-9.3 -3l-12.4 -9l-15.4 -14.8l-2.8 -3.7l-3.8 -8.2l0.2 -7.8l2.2 -5.8l2.6 -4.4l9.8 -9.9l4 -6.5l1.6 -6.8l-0.1 -6.5l-0.7 -3.7l-2.2 -4.6l-6.6 -8.1l-12.6 -8.3l-10.3 -4.2l-10.4 -2l-5.5 0.9l-19.3 6.4l-12.4 1.4l-4.4 -0.6l-4.2 -1.4l-13.9 -4.6l-6.2 -0.3l-6.3 1.1l-7.5 4.5l-7.6 10.8l-1.1 2.6l-0.9 5.2l1.1 13.8l-0.4 3.7l-3.4 9.1l-5.5 5.6l-7.7 4.9l-5.9 1.3l-13.9 0.8l-38.9 4.6l-4.6 -0.3l-6.9 -2.2l-21.1 -10.5l-29.8 -8.7l-8.8 -4.7l-3.1 -2.6l-4.7 -5.8l-2.8 -7.3l-0.9 -6.1l1.3 -10.6l-0.2 -4.5l-1.7 -6.9l-3 -4l-4.8 -3.1l-8.5 -2.3l-5.1 0.5l-16.7 8.7l-9.6 3.4l-13.6 0.2l-5.7 -1.3l-7.4 -3.5l-3.5 -2.3l-5.1 -7.4l-0.6 -2.2l-0.2 -4.5l0.8 -5.3l5 -12.7l1.8 -10l-0.8 -10.6l-4.2 -8.3l-12.5 -7.4l-3.6 -1.3l-5.1 -0.8l-14.6 1.1l-7.6 -0.3l-6.2 -1.8l-11.9 -6.5l-9.9 -10.9l-5.6 -10l-10.8 -15.3l-6.5 -4.8l-20 -9.8l-17.1 -11.6l-6.2 -8.3l-0.9 -2.6l-0.8 -5.5l0.2 -10.9l-42.4 -0z" />
  </g>
  <g data-id="045">
    <path d="m8777.9 1695.1l0 0l0.8 21.5l0.7 250l0 75.5l-0 149.8l314.7 0.3l32.6 -0.1l99.2 0.4l148.9 -0.2l0.3 -100.1l0.1 -125.2l0.3 -75.2l-0.5 -118.7l-38.2 -0.4l13.8 31l-29.5 13.9l-19.3 -22.4l-38.6 -0.1l-32.7 -21.1l-4.6 22l-25 7.5l-0.6 -55.4l-0.6 -81.8l-109.2 0l-21.3 -4.5l0.5 24.8l-18.6 -17.2l-57.3 18.3l-77.4 -45.5l-50.5 -20.2l-60.8 21.5l-25.2 1.1l-2.2 50.5z" />
  </g>
  <g data-id="047">
    <path d="m3326.1 3602.7l0 0l-0.9 148.3l13.8 0.1l0.9 153.8l731.8 3.3l0.3 -156.6l-12.5 -0l0.7 -297.1l-292.9 0.5l-146.9 -1.3l-0.1 -147.8l-293.7 0.4l-0.5 296.5z" />
  </g>
  <g data-id="049">
    <path d="m7406.3 4121.4l0 0l-0.5 220.8l1.1 292.9l338.4 3.4l412.7 2.5l0.1 -127.9l3.7 -19.4l-0.9 -73.6l1.8 -293.1l-756.2 -5.5z" />
  </g>
  <g data-id="051">
    <path d="m3296.7 1513.9l0 0l-8.8 750.7l17.7 -0l354.8 -0.5l89.3 -0.2l282.9 0.2l4.3 -273.8l2.6 -477.7l-13.7 0.2l-729.2 1.1z" />
  </g>
  <g data-id="053">
    <path d="m4780.2 1965l0 0l-1.7 299l8.2 -0.1l-0.6 300.3l299.3 -0.6l446 -1l-0.7 -149.3l-0.5 -149.5l-4.6 -299.4l-297.7 0.5l-447.8 -0z" />
  </g>
  <g data-id="055">
    <path d="m1271.1 3004.1l0 0l-0.7 741.2l18.6 -0.1l0.3 157.3l391 -0.4l195.2 0.5l0.7 -156.7l-18 -0.2l1.3 -295.1l293.1 3.1l293.3 -0.5l1.5 -148.3l-2.2 -296.7l-23.1 -0.1l-294.7 -1.5l-295.4 -1.6l-560.9 -0.7z" />
  </g>
  <g data-id="057">
    <path d="m2445.3 3601l0 0l-0.4 148l17.1 0.1l-2.1 595.2l146.1 0.6l146.7 3.5l299.2 9.1l292.7 -0.5l-4.6 -451.9l-0.9 -153.8l-13.8 -0.1l0.9 -148.3l-407.3 -0.3l-473.5 -1.4z" />
  </g>
  <g data-id="059">
    <path d="m8768.8 2390.6l0 0l0.5 324.1l-0.1 74.7l198.5 0.2l394.6 0.3l0.4 -216.7l0.4 -156.8l-0.7 -149l12.5 -75l-148.9 0.2l-99.2 -0.4l-32.6 0.1l-314.7 -0.3l-0.6 74.8l-9.1 -0l-0.8 123.9z" />
  </g>
  <g data-id="061">
    <path d="m6819.8 1639.2l0 0l-0.7 163.7l40.2 -23.5l3.3 0.4l0.9 -0.2l4.2 -0.2l1.4 -0.6l-0.7 187.1l48.9 0.5l99.6 0.3l421.3 0.3l0.5 -299.8l0.3 -50.1l-25.1 -0.3l-214.2 -0.4l-35.7 0.1l-0.2 -31.2l-29.3 4.8l-131.7 0.4l-33.4 -0.1l0.2 -21.7l25.5 -32.8l1.7 -33.7l-25 -0.1l-0.3 -137.8l-149.8 -1.8l0.4 151.7l-2.4 0l0.3 125.2z" />
  </g>
  <g data-id="063">
    <path d="m1661.6 1512.2l0 0l-9.2 746.7l175.1 -0.3l590.7 3.2l125.1 1.4l7.9 -749l-21.8 0.2l-746.6 -2.3l-121.4 0z" />
  </g>
  <g data-id="065">
    <path d="m2533 760.2l0 0l-3.4 754.2l21.8 -0.2l727.4 -0.5l3.6 -453.2l0.3 -75.1l0.2 -225.3l-34.5 -0.2l-715.3 0.3z" />
  </g>
  <g data-id="067">
    <path d="m703.2 3902.5l0 0l1.7 588.2l584.5 1.1l0 -171.8l-0 -417.6l-586.2 0z" />
  </g>
  <g data-id="069">
    <path d="m1859.6 3450.6l0 0l-1.3 295.1l18 0.2l-0.7 156.7l-0.5 442.2l584.9 -0.6l2.1 -595.2l-17.1 -0.1l0.4 -148l0.6 -147.9l-293.3 0.5l-293.1 -3.1z" />
  </g>
  <g data-id="071">
    <path d="m8.7 2592.4l0 0l-0.1 88.6l0.5 58.1l0.7 6.6l-0.7 53.7l0.4 123.2l0.1 74.3l0 0.1l0.1 10.8l639.3 -1.3l0.5 -747.3l-640.8 3.6l0.1 15.5l0 3.1l-0 19.7l0.1 0.5l0 9.1l-0.3 93.3l0 0.1l0.1 57.5l0 39.2l-0 25.6l0.1 34.3l-0.2 31.3l-0 0.2z" />
  </g>
  <g data-id="073">
    <path d="m7405.8 3752l0 0l0.6 369.4l756.2 5.5l0.2 -221l-0.7 -148.7l3.2 -370.8l0.2 -222.7l-533.9 -2.9l-1.1 148l-220.7 -0.9l-3.9 444.1z" />
  </g>
  <g data-id="075">
    <path d="m10 3262.5l0 0l-0.5 114.9l1.1 199.7l-0 3.3l0.8 98.9l0.2 74.3l0.1 35l0.4 25.1l0.7 48.5l0.2 36.6l690.1 3.8l0.1 -154.8l-21.2 0.1l0.6 -741.3l-33.7 0.1l-639.3 1.3l0.2 21.2l0.2 184.6l-0.5 28.6l0.4 20.4z" />
  </g>
  <g data-id="077">
    <path d="m4961.2 4498l0 0l3.6 649.5l1.3 -0l145.4 -0l24.4 0.2l15.1 -0.3l41 -0l40.4 -0.3l47.5 0l89.3 -0.3l7.3 -0l8 -0l310.4 -0.6l0.2 -359.5l-3.2 -288.8l-3.4 -3.8l-727.4 3.8z" />
  </g>
  <g data-id="079">
    <path d="m5829.3 3332l0 0l0 273.6l6 -1.9l582.1 0.2l148.4 -0.7l-0.1 -73.5l-0.1 -0.9l0.1 -14.3l-0.1 -2.4l-0.3 -57.9l-0.1 -148.6l-0.2 -148.1l-293 1.6l-295.4 -0.8l-147 0.6l-0.2 173.1z" />
  </g>
  <g data-id="081">
    <path d="m1289.3 3902.5l0 0l0 417.6l-0 171.8l28.9 -0.1l361.7 0.2l195 0.1l0.1 -147.2l0.5 -442.2l-195.2 -0.5l-391 0.4z" />
  </g>
  <g data-id="083">
    <path d="m2445.3 3008.1l0 0l2.2 296.7l-1.5 148.3l-0.6 147.9l473.5 1.4l407.3 0.3l0.5 -296.5l-0.6 -173.7l-0.7 -123.9l-18.3 -0.4l-861.6 -0.1z" />
  </g>
  <g data-id="085">
    <path d="m8062.1 762.2l0 0l1.3 505.7l-0.8 100.5l174.7 -0.1l423.2 0.9l0.2 -351.7l25.4 0.1l0 -255l8.1 -2.5l0.2 -148.9l-301.3 -0.2l-0.2 151.4l-330.8 -0.3z" />
  </g>
  <g data-id="087">
    <path d="m8653.4 1593.3l0 0l-2.7 37.5l19.3 18.4l45 -24.7l46.7 2l18.3 18.1l25.2 -1.1l60.8 -21.5l50.5 20.2l77.4 45.5l57.3 -18.3l18.6 17.2l-0.5 -24.8l21.3 4.5l109.2 -0l-1.2 -146.4l10.5 0l0.3 -477.5l-1.3 -25.1l-273.9 -2l-248 2.3l-25.4 -0.1l-0.2 351.7l-0.1 99.9l0.2 25.1l-7.1 25.1l-0.1 74.1z" />
  </g>
  <g data-id="089">
    <path d="m4753.9 1.5l0 0l-1.1 758.2l24 0.2l442.6 0.6l301.9 0.4l0.5 -151.1l-0.5 -607.8l-54.1 -0.1l-50.9 -0.1l-5.7 -0.1l-44.3 0.1l-3.5 -0.2l-25 -0.1l-9.8 0.1l-31.7 0.1l-56.8 -0.4l-19.9 0l-20.7 0l-9.4 -0.1l-19 -0.2l-75.8 0.5l-24.4 -0.3l-7.8 -0l-290.2 0.3l-18.7 -0z" />
  </g>
  <g data-id="091">
    <path d="m9375.1 2092.3l0 0l-0.3 100.1l185.7 0.4l12.4 0.1l49.6 -0.1l99.7 0l49.4 0.1l202.1 0.2l0.1 -4.5l0.1 -3l1.8 -118l0.5 -25.1l0.1 -3.3l-0.5 -33.8l0 -13.4l0 -10.7l0 -9.7l0 -0.8l-0.1 -1.4l0 -1.9l0 -25.1l0 -8.3l0 -4l0 -13.3l0.1 -62.8l0 -3l0 -0l0.2 -0.9l-0.4 -4.5l0 -3.4l-0.1 -25.4l-0.1 -37.9l-0 -5.3l0.5 -44.9l0.6 -62.5l-65.1 0.1l-15.6 -0.1l-25.1 0l-25.2 0.1l-31.1 0l-40.6 0.5l-3 0.1l-25.1 -0.1l-12.7 0.2l-19 0.2l-24.6 -13l-31.6 -17.8l-36.4 3.9l-25.1 49l3.6 25.1l-27.3 42.7l-19.5 -19.4l-33.4 31.8l-97.6 -27.2l-9 36.4l-38.1 -5.6l0.5 118.7l-0.3 75.2l-0.1 125.2z" />
  </g>
  <g data-id="093">
    <path d="m682.7 3006.4l0 0l-0.6 741.3l21.2 -0.1l-0.1 154.8l586.2 -0l-0.3 -157.3l-18.6 0.1l0.7 -741.2l-29.7 0.1l-558.7 2.2z" />
  </g>
  <g data-id="095">
    <path d="m4807.3 4351.3l0 0l-0.4 146.7l154.3 0.1l727.4 -3.8l-0.7 -148.3l-0.2 -148.1l-0.8 -143.7l2.2 -12.3l-1.5 -135.2l-440.1 1.6l-440.3 0.4l0 295.7l0.2 146.9z" />
  </g>
  <g data-id="097">
    <path d="m3339.9 3904.9l0 0l4.6 451.9l0.5 146.2l16.9 -0l71 0.2l5.8 -0.6l635.8 -4.9l-1.5 -145.4l-1.3 -444.1l-731.8 -3.3z" />
  </g>
  <g data-id="099">
    <path d="m8751.7 4818.6l0 0l-1.3 326.7l14.5 0.1l139.2 -0l0.1 -0l102.3 -0.2l3.9 0l0.4 0l7.4 0l170.5 -0.3l24.1 0.1l24.6 -0l4.8 -0l0.2 0l44.3 0l65.2 0l-0.2 -81.4l-0.6 -121.9l-1.3 -369.3l0.3 -74l-17.7 -0l-390.1 -0.3l-190.1 0.1l4.2 222.4l-4.6 98z" />
  </g>
  <g data-id="101">
    <path d="m1827.6 2258.6l0 0l4.4 746.2l295.4 1.6l294.7 1.5l-3.8 -746.2l-590.7 -3.2z" />
  </g>
  <g data-id="103">
    <path d="m9198.5 1519.9l0 0l1.2 146.4l0.6 81.8l0.6 55.4l25 -7.5l4.6 -22l32.7 21.1l38.6 0.1l19.3 22.4l29.5 -13.9l-13.8 -31l38.2 0.4l38.1 5.6l9 -36.4l97.6 27.2l33.4 -31.8l19.5 19.4l0.7 -236.9l9.2 -0.1l1.3 -126.7l0.4 -1.6l163.8 3.3l3.3 0.7l-3.1 -5l-4.9 -4.5l-3.1 -1.7l-4.7 -0.9l-16.5 2.9l-16.1 -1l-12.1 -3.5l-4.2 -2.2l-10.6 -10.5l-2.5 -3.2l-2 -5l0.2 -5.5l9.5 -17.6l2.3 -7.4l0.6 -6l-2.4 -14.1l-5.3 -11l-8.6 -10.6l-11.3 -10.5l-14.4 -9.3l-14.1 -7l-14.4 -5.7l-5.7 -3.8l-6 -5.5l-10.9 -13.4l-6.5 -10.4l-4.1 -10.5l-2.9 -9.8l-1.7 -9.4l-2 -10.8l-3.5 -42.7l0.6 -5.6l0.2 -1.7l0.8 -3l2.8 -4.3l6.4 -6.3l4.7 -3.5l2.9 -1.2l7.9 -1.6l7.7 -5l5.2 -6l3 -9.2l-0.3 -7.1l-2.3 -7.1l-5.4 -10.2l-5.3 -4.6l-3.9 -1.5l-4.2 -0.4l-9.2 1.3l-10.4 6.8l-8.4 4.4l-4.5 2l-5.2 1.2l-14.1 -1.8l-4.7 -1.7l-0.9 -0.7l-2.5 -1.8l-3.1 -2.7l-4.7 -7.5l-0.9 -3.1l-0.6 -7.1l0.5 -10.3l-2.1 -5.1l-4.5 -5.4l-4.8 -3.7l-15.1 -6l-3.7 -3.1l-284.2 -0.3l1.3 25.1l-0.3 477.5l-10.5 -0z" />
  </g>
  <g data-id="105">
    <path d="m4773.1 1362.8l0 0l0.2 150.5l8.4 1.9l-1.5 449.8l447.8 0l297.7 -0.5l-0 -0l0 -150.3l-1.6 -450.4l-300.5 0.2l-450.5 -1.1z" />
  </g>
  <g data-id="107">
    <path d="m9347.6 3192.5l0 0l-1.6 198.2l621.7 1.1l-0.1 -39.1l-0 -0.1l-0 -9.9l0 -2.5l0.3 -140.4l0.1 -18.5l0.4 -12.4l0.5 -38.6l0.3 -17.3l0 -5.5l0.2 -23.4l-0 -2.7l0 -13.2l0 -18.4l-0.1 -55.7l-0.2 -33.3l0 -2.6l0.2 -19l0 -21l-0.2 -9.1l-0 -7.3l-0.2 -19.5l-0.4 -48.9l-0 -8.9l0.1 -32.7l-408.6 -0.7l-197.9 -1.4l1 224.3l-13.9 -0.1l-1.6 154.3l-0.1 24.1z" />
  </g>
  <g data-id="109">
    <path d="m768.6 1509.8l0 0l-8.3 748.6l477.1 -0.8l415 1.3l9.2 -746.7l-777.1 -3l-115.9 0.6z" />
  </g>
  <g data-id="111">
    <path d="m7634.2 2912.2l0 0l-2.7 248.7l533.9 2.9l0.5 -151.4l11.4 0l-0.4 -298l0.4 -74.6l0.4 -373.2l5.4 0l-0.4 -75.1l-322.6 0.2l-222.4 -0.1l-0.6 223.4l-0.9 149.5l-1.9 347.7z" />
  </g>
  <g data-id="113">
    <path d="m5530.8 2413.3l0 0l0.7 149.3l-0.2 299.2l2.9 155.8l0.1 141.5l295.2 -0.2l147 -0.6l295.4 0.8l0.2 -148.7l-0.1 -148.8l-0.3 -447.4l-296.2 0.6l-148.2 -0.2l-296.5 -1.3z" />
  </g>
  <g data-id="115">
    <path d="m6271.7 2414.2l0 0l0.3 447.4l0.1 148.8l-0.2 148.7l293 -1.6l0.2 148.1l418.3 3.5l-0.2 -299.5l4.2 -24.8l0.2 -124.4l24.4 0.2l-0 -297.6l-148 0.1l-0.4 -149l-591.8 0z" />
  </g>
  <g data-id="117">
    <path d="m7029.9 306.9l0 0l-0.5 454.8l301.7 0.2l1.5 0l457.5 0.2l-0.7 -606.7l0.4 -151l-82.9 0.1l-4.7 0l-213.2 -0.6l-0.1 -0l-5.1 -0.1l-3.2 0.1l-76.6 -0.1l-15.9 0.3l-25.3 -0.2l-17.4 -0.2l-13.4 0.2l-1.3 0l-31 0.1l-7.3 0l-16.2 -0.5l-245.7 -0.4l-0.6 303.7z" />
  </g>
  <g data-id="119">
    <path d="m1875 4344.8l0 0l-0.1 147.2l25.3 0.1l-1.9 220l2.6 432.1l4.8 -0.1l51.4 -0.6l0.1 0l51.8 -0.6l1.5 0.2l469 -2.5l10.6 -0.1l1.9 0.2l6.5 -0.1l96.3 -0.2l35.2 0.2l-2.7 -647.4l-21.3 -0.3l0.2 -148.1l-146.1 -0.6l-584.9 0.6z" />
  </g>
  <g data-id="121">
    <path d="m9362.6 2573.2l0 0l-0.4 216.7l197.9 1.4l408.6 0.7l0 -6.3l-0.1 -18.8l0.3 -52.6l0.4 -74.2l0 -0.1l0.2 -9.5l-0 -2.1l0.1 -12.5l0.2 -46.4l0.3 -49.4l0 -0.5l0.2 -3.3l-0 -45.8l0.4 -6.1l0 -0l-0 -50l0.1 -19.2l0.5 -7.8l-0.2 -17.8l2.8 -176.4l-202.1 -0.2l-49.4 -0.1l-99.7 -0l-49.6 0.1l-12.4 -0.1l-185.7 -0.4l-12.5 75l0.7 149l-0.4 156.8z" />
  </g>
  <g data-id="123">
    <path d="m4776.8 759.8l0 0l-3.7 603l450.5 1.1l300.5 -0.2l-2.5 -100.1l3.4 -50.7l0.9 -452.1l-4.5 -0l-301.9 -0.4l-442.6 -0.6z" />
  </g>
  <g data-id="125">
    <path d="m8158 4641l0 0l0 73.3l0.2 431.3l36.6 -0.3l11.9 0l24 -0.2l44.3 0.1l2.5 0l1.8 0l9.4 0.1l79 0.2l28.4 -0.3l24.2 0.2l11.8 -0.1l18 0l6.1 0l32 -0l4.2 -0l6 -0.2l18.4 0.3l13.7 -0.2l16.6 0l13.1 0l45.9 0l7.7 -0.1l11.3 -0l5.1 0.1l51.7 0l52.5 -0l16.1 0.1l1.3 -326.7l4.6 -98l-4.2 -222.4l-5.9 0l-393.9 -3l-190.5 -1.5l-3.7 19.4l-0.1 127.9z" />
  </g>
  <g data-id="127">
    <path d="m6863.4 2294.4l0 0l-4.7 40.9l4.9 8.3l-0.1 20.7l0.1 49.9l0.4 149l148 -0.1l624.2 1.4l0.9 -149.5l0.6 -223.4l-49.8 0.1l-0.9 -149.4l-148.8 -0.6l-0.2 -74.9l-421.3 -0.3l-99.6 -0.3l0.1 99.6l-49.7 0l-4.3 199.6l-0 28.9z" />
  </g>
  <g data-id="129">
    <path d="m13.1 5102.6l0 0l-0.4 53.1l18.8 -0.1l37.2 -0.2l0 0l131.3 -0.8l403.2 -2.3l1.6 -0.1l60.5 -0.4l-1.8 -661.3l-649.9 -1.2l0.1 23.9l-0.8 37.4l0.2 0.3l0.2 72.7l0.2 19.9l-0.4 66.5l-0.1 195.9l-0.2 28.1l0.1 0l0.4 21.9l-0.2 9.1l0.1 120l0.2 1.2l-0.2 3.7l-0 2.3l-0 10.2z" />
  </g>
  <g data-id="131">
    <path d="m7789.7 4.3l0 0l-0.4 151l0.7 606.7l272.1 0.2l330.8 0.3l0.2 -151.4l1.1 -606.3l-126.5 -0l-101.3 -0.1l-70.4 -0.2l-18 -0.1l-37 -0l-39.8 0.2l-11.2 0.1l-48.3 0.1l-0.2 0.1l-28.5 -0.1l-9.5 0.1l-0.2 -0.1l-88.2 -0.4l-4.9 -0l-20.5 0.1l-0 0z" />
  </g>
  <g data-id="133">
    <path d="m8746.8 4277.6l0 0l-0.7 220.6l5.9 -0l190.1 -0.1l390.1 0.3l0.2 -491.2l-0.1 -98.2l-49.5 -2.5l-146 2.4l-194.1 -0.6l-196.6 0.2l0.6 369z" />
  </g>
  <g data-id="135">
    <path d="m2418.4 2261.8l0 0l3.8 746.2l23.1 0.1l861.6 0.1l-0.8 -148.9l-0.4 -594.7l-17.7 0l-744.5 -1.4l-125.1 -1.4z" />
  </g>
  <g data-id="137">
    <path d="m2511.4 2.7l0 0l-3.4 758.1l25 -0.7l715.3 -0.3l3.5 -757.6l-0.9 0l-3 -0l-0.1 -0l-122.3 0.1l-16.5 -0l-19.7 0l-13.7 0.8l-9.9 -0.4l-10.6 -0.4l-4.7 0.3l-50.6 0.4l-125 -0.2l-31.9 -0l-18.7 -0.1l-5 -0.4l-51.5 0.5l-5.8 0.1l-250.4 -0.2z" />
  </g>
  <g data-id="139">
    <path d="m8177.3 2639.8l0 0l-0.4 74.6l592.4 0.3l-0.5 -324.1l0.8 -123.9l9.1 0l0.6 -74.8l0 -149.8l-0 -75.5l-244.1 -0.3l-353.5 0l0.9 225l0.4 75.1l-5.4 -0l-0.4 373.2z" />
  </g>
  <g data-id="141">
    <path d="m4030.3 758.9l0 0l-4.4 753.9l13.7 -0.2l733.7 0.7l-0.2 -150.5l3.7 -603l-24 -0.2l-722.5 -0.8z" />
  </g>
  <g data-id="143">
    <path d="m5521.6 1263.6l0 0l2.5 100.1l1.6 450.4l449.2 0.8l297.2 0.1l0.6 -300.4l0.6 -150.5l1.1 -150.6l-749.5 -0.7l-3.4 50.7z" />
  </g>
  <g data-id="145">
    <path d="m3306.1 2859.2l0 0l0.8 148.9l18.3 0.4l0.7 123.9l0.6 173.7l293.7 -0.4l0.1 147.8l146.9 1.3l292.9 -0.5l146.1 -0.4l0.7 -444.1l-12.4 -0.2l-134.9 0l-13.2 -0l-0.1 -148.8l-441.5 -1.8l-298.7 0z" />
  </g>
  <g data-id="147">
    <path d="m3251.8 2.3l0 0l-3.5 757.6l34.5 0.2l267.3 0.1l451 -1.4l-1.1 -757l-24.9 0.1l-37.4 -0.1l-12.8 0l-62.7 0.4l-12.3 -0.1l-0.2 0l-10.5 0l-2.6 -0.1l-11.6 -0l-25.2 0l-45.6 0.1l-4.9 -0.2l-38.8 0.3l-4.9 -0.2l-5.4 0.1l-151 -0l-12.4 0.2l-14.6 -0.7l-76.6 0.6l-17.1 0l-5.6 0l-1.8 -0.1l-3.7 -0.1l-165.6 0.3z" />
  </g>
  <g data-id="149">
    <path d="m7134.2 1003.6l0 0l17.7 11.9l-15.4 29l44.7 55.3l6.2 23.3l27.2 26.1l-4.5 15l33.7 14.4l-13.5 15.6l20.1 20.5l3.9 22.8l58.9 65l43.6 23l21.8 57l36.1 16.4l-50.1 1l-3.8 -0.1l-1.7 1.2l-0.5 2.6l1.2 3l1.5 7.6l1.4 14.1l2.2 3.6l3.2 1.7l49.6 -14.9l0.2 28.4l21 6.3l14.6 -16.6l18.8 21.8l21.1 -6.9l-4.6 -16.3l5.6 -20.7l57.5 6.9l37.1 22.5l41.2 28.3l37.9 -4.6l7.1 -46.4l22.3 -18.6l3.9 -0.8l47.9 31.6l51.2 -56.4l15.4 18.7l54.8 -4.2l2.8 25.2l51.8 -3.4l30.3 -0.3l6.8 -17.4l36.1 12.7l34.7 61.1l-35.1 -8.8l-5.8 18.9l59.3 19.3l6.6 25.3l4.2 -5.6l0.4 -149.9l0.8 -100.5l-1.3 -505.7l-272.1 -0.2l-457.5 -0.2l-11.9 35.9l-35.4 24.1l-6.8 -11.4l-31.8 33.8l6.2 15.1l-21.8 15.5l-15.8 45.1l-20.7 -8.7l-5.9 31.7l-25.6 1l-20.1 30.7l11.5 14.2l-20.4 14.8z" />
  </g>
  <g data-id="151">
    <path d="m4072 3751.6l0 0l-0.3 156.6l1.3 444.1l734.3 -1l-0.2 -146.9l-0 -295.7l-0.1 -153.4l-9.9 -2.3l-725.1 -1.4z" />
  </g>
  <g data-id="153">
    <path d="m858.6 1.4l0 0l-3.8 756.9l33.3 -0l598 0.7l270.7 -0.1l2.7 -757.2l-17.9 0.2l-8.9 -0.3l-239.3 0.3l-121 -0.2l-43.7 -0.1l-94.6 -0.2l-50.7 -0.2l-13.5 0.1l-18 -0l-30.6 -0.1l-45.1 0l-50.8 -0l-10 0l-40.3 -0.2l-2 0l-23.2 0.2l-42.2 0.1l-47.7 0.3l-1.5 -0z" />
  </g>
  <g data-id="155">
    <path d="m4796.4 3160.7l0 0l0.7 592.3l9.9 2.3l0.1 153.4l440.3 -0.4l440.1 -1.6l146.3 -2l-1.3 -152.8l-3.2 -6.8l0.2 -139.5l-0 -273.6l0.2 -173.1l-295.2 0.2l-295 -0.3l0.1 24.5l-98.8 1.3l-0.1 -25.1l-73.3 -0.1l-270.8 1.3z" />
  </g>
  <g data-id="157">
    <path d="m5521.4 1.9l0 0l-0 -0l0.5 607.8l754.3 -0.5l-0.7 -607.3l-62.5 0.1l-2.7 -0l-10.2 -0l-25.8 0.2l-25 -0.2l-63 0.4l-1.5 -0.1l-5.3 -0l-338.3 -0.2l-2 -0l-2.1 0l-8.5 -0.3l-56.6 0.4l-2.8 -0.1l-0.1 -0l-22.5 0.2l-25.6 -0.3l-25.2 -0.1l-74.4 0.1z" />
  </g>
  <g data-id="159">
    <path d="m4786.2 2564.2l0 0l-0.4 149.2l1.1 297.1l9.9 0.1l-0.5 150.1l270.8 -1.3l73.3 0.1l0.1 25.1l98.8 -1.3l-0.1 -24.5l295 0.3l-0.1 -141.5l-2.9 -155.8l0.2 -299.2l-446 1l-299.3 0.6z" />
  </g>
  <g data-id="161">
    <path d="m6825.5 761.7l0 0l-4 600.6l149.8 1.8l0.3 137.8l25 0.1l-1.7 33.7l-25.5 32.8l-0.2 21.7l33.4 0.1l131.7 -0.4l29.3 -4.8l0.2 31.2l35.7 -0.1l214.2 0.4l25.1 0.3l-0.3 50.1l147.9 0.7l2.3 -223.9l-37.1 -22.5l-57.5 -6.9l-5.6 20.7l4.6 16.3l-21.1 6.9l-18.8 -21.8l-14.6 16.6l-21 -6.3l-0.2 -28.4l-49.6 14.9l-3.2 -1.7l-2.2 -3.6l-1.4 -14.1l-1.5 -7.6l-1.2 -3l0.5 -2.6l1.7 -1.2l3.8 0.1l50.1 -1l-36.1 -16.4l-21.8 -57l-43.6 -23l-58.9 -65l-3.9 -22.8l-20.1 -20.5l13.5 -15.6l-33.7 -14.4l4.5 -15l-27.2 -26.1l-6.2 -23.3l-44.7 -55.3l15.4 -29l-17.7 -11.9l20.4 -14.8l-11.5 -14.2l20.1 -30.7l25.6 -1l5.9 -31.7l20.7 8.7l15.8 -45.1l21.8 -15.5l-6.2 -15.1l31.8 -33.8l6.8 11.4l35.4 -24.1l11.9 -35.9l-1.5 -0l-301.7 -0.2l-203.9 0z" />
  </g>
  <g data-id="163">
    <path d="m3282.4 1060.5l0 0l-3.6 453.2l18 0.2l729.2 -1.1l4.4 -753.9l-29.2 -0.2l-451 1.4l-267.3 -0.1l-0.2 225.3l-0.3 75.1z" />
  </g>
  <g data-id="165">
    <path d="m3305.7 2264.6l0 0l0.4 594.7l298.7 -0l441.5 1.8l-0.8 -596.8l-12.9 -0.1l-282.9 -0.2l-89.3 0.2l-354.8 0.5z" />
  </g>
  <g data-id="167">
    <path d="m4037 1990.3l0 0l-4.3 273.8l12.9 0.1l732.9 -0.2l1.7 -299l1.5 -449.8l-8.4 -1.9l-733.7 -0.7l-2.6 477.7z" />
  </g>
  <g data-id="169">
    <path d="m5525.7 1964.4l0 0l0 0l4.6 299.4l0.5 149.5l296.5 1.3l148.2 0.2l296.2 -0.6l0.1 -298.9l-0.4 -150.3l-0 -74.9l-12.2 -25.2l12.9 -49.9l-297.2 -0.1l-449.2 -0.8l-0 150.3z" />
  </g>
  <g data-id="171">
    <path d="m1237.5 2257.6l0 0l3.9 746.6l29.7 -0.1l560.9 0.7l-4.4 -746.2l-175.1 0.3l-415 -1.3z" />
  </g>
  <g data-id="173">
    <path d="m5686.8 4054.1l0 0l0.8 143.7l0.2 148.1l392.5 -2.3l219.7 -2.5l97.5 2l23 0.5l70.6 -0.3l73.5 0.3l0.4 -73.8l0.4 -74l-0.3 -147.6l-0.1 -49.5l0 -49.4l0.1 -24.8l0.1 -24.8l-0.8 -148l1.7 -0l-0.4 -148.6l-148.4 0.7l-582.1 -0.2l-6 1.9l-0.2 139.5l3.2 6.8l1.3 152.8l-146.3 2l1.5 135.2l-2.2 12.3z" />
  </g>
  <g data-id="175">
    <path d="m1318.2 4491.7l0 0l0.5 220.4l1.8 435.5l17.2 -0.1l54.9 -0.4l21.6 0.2l68.3 -0.2l0.1 -0l54.8 -0.7l0.4 -0.3l16.9 0.2l48.3 -0l55.4 -0.8l10.9 -0l54.5 -0.1l11.5 -0.3l30 0.5l79 -1.1l56.6 -0.4l-2.6 -432.1l1.9 -220l-25.3 -0.1l-195 -0.1l-361.7 -0.2z" />
  </g>
  <g data-id="177">
    <path d="m8062.2 1518.4l0 0l-4.2 5.6l29.6 10.7l31.2 -23.3l-20.4 31.1l48.8 7.3l34.6 22.3l0.1 94.3l-0 99.4l-0.2 99.9l0.4 100.7l353.5 -0l244.1 0.3l-0.7 -250l-0.8 -21.5l2.2 -50.5l-18.3 -18.1l-46.7 -2l-45 24.7l-19.3 -18.4l2.7 -37.5l0.1 -74.1l7.1 -25.1l-0.2 -25.1l0.1 -99.9l-423.2 -0.9l-174.7 0.1l-0.4 149.9z" />
  </g>
  <g data-id="179">
    <path d="m1784.5 758.9l0 0l-1.5 753.3l746.6 2.3l3.4 -754.2l-25 0.7l-723.5 -2z" />
  </g>
  <g data-id="181">
    <path d="m2.7 758.6l0 0l0.3 50.8l-0.2 3.9l-0 53l0.4 143.8l-0 8.9l0.3 25.3l0.3 51.8l0.7 122.3l1.6 287.4l0.1 6.7l762.5 -2.8l115.9 -0.6l0.6 -300.5l2.9 -450.4l-33.3 0l-852.1 0.3z" />
  </g>
  <g data-id="183">
    <path d="m4000 1.7l0 0l1.1 757l29.2 0.2l722.5 0.8l1.1 -758.2l-24.9 -0l-27 0.1l-23.3 0l-19.6 -0.4l-24.3 0l-27.4 0.1l-36.1 -0.2l-15.8 0.4l-1.8 -0l-21.3 -0.2l-4.1 0.1l-23.4 -0.3l-1.5 0.1l-2.2 0.2l-23.2 0.3l-21.3 -0.1l-0.1 -0l-65.1 -0.2l-3 -0l-58.1 0.1l-18.6 -0.1l-134.5 0.3l-35 -0.1l-0.1 -0.1l-14.4 0.1l-0.8 0l-26.6 0.1l-35.6 -0.2l-2.2 0.1l-62.6 0.2z" />
  </g>
  <g data-id="185">
    <path d="m4060.2 3454.5l0 0l-0.7 297.1l12.5 0l725.1 1.4l-0.7 -592.3l0.5 -150.1l-9.9 -0.1l-296.1 -0.1l-283.9 -0.4l-0.7 444.1l-146.1 0.4z" />
  </g>
  <g data-id="187">
    <path d="m13.2 4232.7l0 0l-0.2 10l0.3 49.3l-0 61.8l0.1 58.5l0.1 0.2l-0 41.9l0.1 34.9l649.9 1.2l41.3 0.2l-1.7 -588.2l-690.1 -3.8l0.2 24.9l0.4 73.6l-0.2 25l0.2 18.9l-0 17.3l-0 61.6l-0.4 84.4l-0 28.4z" />
  </g>
  <g data-id="189">
    <path d="m663.6 4490.6l0 0l1.8 661.3l0 -0l48.5 -0.2l45.2 -0.1l94.2 -0.6l1.5 -0.1l47.8 -0.3l24.8 -0.1l2.5 -0.1l194.2 -1.3l1.9 -0.1l194 -1.3l0.4 -0l-1.8 -435.5l-0.5 -220.4l-28.9 0.1l-584.5 -1.1l-41.3 -0.2z" />
  </g>
  <g data-id="191">
    <path d="m5687.8 4345.9l0 0l0.7 148.3l3.4 3.8l3.2 288.8l-0.2 359.5l0 -0l25.2 -0.2l0.1 -0.2l19.7 0.4l96 -0.1l62.5 -0.3l17.9 -0.1l41 0.7l56.3 -0l24.2 -0.1l0.8 0.1l24.9 -0.1l72.9 0l14.1 0.1l0.1 0l103.7 -0.3l16.8 -0l96 -0.1l205.1 -0.3l-2 -217.5l-0.7 -147.9l-1.5 -146.8l-3.3 -289.8l-73.5 -0.3l-70.6 0.3l-23 -0.5l-97.5 -2l-219.7 2.5l-392.5 2.3z" />
  </g>
  <g data-id="193">
    <path d="m885.2 1208.7l0 0l-0.6 300.5l777.1 3l121.4 -0l1.5 -753.3l-27.7 -0l-270.7 0.1l-598 -0.7l-2.9 450.4z" />
  </g>
  <g data-id="195">
    <path d="m2551.4 1514.2l0 0l-7.9 749l744.5 1.4l8.8 -750.7l-18 -0.2l-727.4 0.5z" />
  </g>
  <g data-id="197">
    <path d="m7438.1 1966.9l0 0l0.2 74.9l148.8 0.6l0.9 149.4l49.8 -0.1l222.4 0.1l322.6 -0.2l-0.9 -225l-0.4 -100.7l0.2 -99.9l0 -99.4l-0.1 -94.3l-34.6 -22.3l-48.8 -7.3l20.4 -31.1l-31.2 23.3l-29.6 -10.7l-6.6 -25.3l-59.3 -19.3l5.8 -18.9l35.1 8.8l-34.7 -61.1l-36.1 -12.7l-6.8 17.4l-30.3 0.3l-51.8 3.4l-2.8 -25.2l-54.8 4.2l-15.4 -18.7l-51.2 56.4l-47.9 -31.6l-3.9 0.8l-22.3 18.6l-7.1 46.4l-37.9 4.6l-41.2 -28.3l-2.3 223.9l-147.9 -0.7l-0.5 299.8z" />
  </g>
  <g data-id="199">
    <path d="m6.1 1512.6l0 0l0.1 6l0.8 142.7l1.6 402.5l0.1 24l-0.2 27.5l0.1 23l0.1 25l-0.1 2l0.2 97.5l640.8 -3.6l110.8 -0.9l8.3 -748.6l-762.5 2.8z" />
  </g>
  <g data-id="201">
    <path d="m6275.3 1.9l0 0l-0 0l0.7 607.3l0.1 151.4l549.3 1.1l203.9 -0l0.5 -454.8l0.6 -303.7l-91.2 -0.1l-1.7 0l-4.3 -0l-3 0l-47.8 -0.1l-0.4 0l-124.3 0.1l-29 0.2l-25.3 0l-118.2 -0.9l-6.1 0.6l-52.7 -0.1l-24.7 0l-2.8 0.2l-57.3 -0l-0.1 -0.1l-140.9 -0.8l-0.8 0.1l-24.4 -0.2l-0.1 0z" />
  </g>
  <g data-id="203">
    <path d="m649.5 2259.2l0 0l-0.5 747.3l33.7 -0.1l558.7 -2.2l-3.9 -746.6l-477.1 0.8l-110.8 0.9z" />
  </g>
  <g data-id="205">
    <path d="m8160.8 4420.1l0 0l0.9 73.6l190.5 1.5l393.9 3l0.7 -220.6l-0.6 -369l-583.5 -2.6l-0.2 221l-1.8 293.1z" />
  </g>
  <g data-id="207">
    <path d="m8162 3757.2l0 0l0.7 148.7l583.5 2.6l0.9 -148.4l7.4 0l0.5 -370.3l-589.8 -3.3l-3.2 370.8z" />
  </g>
  <g data-id="209">
    <path d="m9573.4 1520.3l0 0l-0.7 236.9l27.3 -42.7l-3.6 -25.1l25.1 -49l36.4 -3.9l31.6 17.8l24.6 13l19 -0.2l12.7 -0.2l25.1 0.1l3 -0.1l40.6 -0.5l31.1 -0l25.2 -0.1l25.1 -0l15.6 0.1l65.1 -0.1l0 -1l0.4 -36.3l-0.1 -27.6l0.1 -13.6l-0 -0.2l-0.2 -41l0.4 -10.3l1.7 -4.8l7.1 -10.9l10.6 -12.8l3.5 -7.8l-2.7 -25.2l-5.5 -4.7l-7.6 -3.3l-9.5 -1.6l-9.4 0.9l-10.9 5.9l-21.6 6l-14.3 -1.7l-15.7 -6l2.8 -18.1l-2.5 -10l-2.2 -9.1l-7.1 -5l-15 -4l-9.2 1.4l-12.2 8.5l-23.9 14.1l-12.7 2.4l-17.3 -0.3l-7.2 -1.7l-0 -0l-13.9 -5.2l-14.5 -11.6l-9.6 -17.5l-7 -18.3l-3.3 -0.7l-163.8 -3.3l-0.4 1.6l-1.3 126.7l-9.2 0.1z" />
  </g>
</svg>
