<?xml version="1.0" encoding="UTF-8"?><!DOCTYPE svg PUBLIC '-//W3C//DTD SVG 1.1//EN' 'http://www.w3.org/Graphics/SVG/1.1/DTD/svg11.dtd'><svg viewBox="0 0 1000 515.574" xmlns="http://www.w3.org/2000/svg"><path data-id="20001" d="m874.7 376l-0.1 14.8l19.7 0l19.4 0.1l14.6 -0.2l4.9 0.2l0 -4.9l0 -9.9l1.1 0l0 -14.8l0.2 -22.3l-19.7 0l-10 0l-29.5 0l0 37z"/><path data-id="20003" d="m875.8 301.3l-0.3 37.7l29.5 0l10 0l19.7 0l0.2 -19.8l0 -2.4l0.2 -15.4l1.4 0l-0.1 -22.4l-39.5 0l-19.8 0l0.1 22.4l-1.2 0z"/><path data-id="20005" d="m868.6 76.3l0 25.5l24.8 -0.2l27.4 0.2l28.4 0l-1 -1.4l-0.3 -1.7l-1.5 -1.7l-3.4 -1.1l-1.7 -1l-1.2 -0.9l-1.1 -1.6l-0.4 -1.3l-0.2 -2.4l-0.9 -1.6l-2.8 -1.7l-2 -1.8l-1.4 -1.6l-0.9 -1.5l-0.6 -2l0.9 -3.5l1.1 -0.9l1.3 -0.3l1.7 0.7l1 0.1l1.3 -0.6l1.4 -1.7l0.3 -1l0.1 -1.2l-0.9 -2.1l-4.4 -0.2l-1.7 -1l-2.3 -5.5l-30.1 -0.1l-7.6 0l-22.5 0l0 14.9z"/><path data-id="20007" d="m407.3 435.2l0.1 14.5l1.4 0l0.1 64.7l16 0l1.5 0l9.6 0l4.8 0l5.8 0l23.2 0l16.7 0.1l1.5 0l7.4 0.1l0.5 -65l-15.4 0l0 -14.7l-73.4 0.1z"/><path data-id="20009" d="m404.6 226.4l0.1 59.7l0 14.9l1.3 0l13.5 0l1.2 0l28.4 0l29.6 0l-0.1 -29.7l0 -14.9l0.1 -30l-74.1 0z"/><path data-id="20011" d="m933.2 390.9l0 9.8l24.3 0l2.6 0l36.1 0.3l0 -1.5l0 -1l0 -5.8l0 -1.3l0 -7.3l0.1 -7.9l0.1 -3.1l0 -1.3l0 -1.1l0 -1.9l0 -1.6l0 -1l0 -1.4l0 -2.5l0 -2.4l0.1 -3.1l0 -1.1l0 -1.6l0 -3.6l0 -2.8l0 -8.4l-62.2 -0.1l-0.2 22.3l0 14.8l-1.1 0l0 9.9l0 4.9z"/><path data-id="20013" d="m839.4 0.5l-0.1 60.6l30.1 0l22.5 0l7.6 0l0 -60.6l-4.7 0l-54.9 -0.1z"/><path data-id="20015" d="m656.4 375.2l0.1 14.8l0 2.5l0 2.5l0 4.9l0 4.9l0 14.8l0 7.4l0 7.4l14.7 0l14.4 0l55.1 -0.1l0.1 -22.1l-0.1 -36.9l0.4 -44.4l-42.6 0.1l-41.8 -0.4l0 14.9l0 5.8l0 1.6l0 7.4l0 14.9z"/><path data-id="20017" d="m698.3 301l0 29.9l42.6 -0.1l22.1 0.1l0.1 -14.8l0.3 -24.9l0.2 -34.8l-62.4 -0.1l0 29.8l-2.4 0l0 12.4l-0.4 2.5z"/><path data-id="20019" d="m740.7 463.5l-0.1 51.1l3.4 0l11.4 -0.1l2.8 0l15.4 0l8.3 0l2.4 0l2 0l4.1 0l1.4 0l19.1 0l4.9 0l0 -43.1l0 -7.3l-41.3 -0.3l-33.8 -0.3z"/><path data-id="20021" d="m935 457.2l0.1 36.9l0.1 12.2l0 8.1l3.2 0l1.6 0l1 0l2.5 0l2.2 0l19 0.1l1.7 0l1.3 0l7.2 0l5.1 0l3.6 0l1.5 0l10.3 0l1 0l0 -1.7l0 -5.3l0 -2.7l0 -3.1l0 -1.8l0 -1.3l0 -1.7l0 -1.5l0 -2.8l0 -5.1l0 -2.5l0 -1.1l0 -1.3l0 -1l0 -2.1l0 -2.2l0 -1.4l0 -1.6l0.1 -14.5l0 -2.2l-27.2 -0.5l-34.1 -0.1z"/><path data-id="20023" d="m0 0l0 26.8l0 1.1l0 1.8l0 2.5l0.1 25l0.1 3.8l0 1.4l0.1 9.3l0 3.2l0 1l85.2 0l0.4 -75.7l-17.6 0l-11.2 0l-24 0l-3.7 0l-1.2 0l-8.5 -0.1l-1.7 0l-18.1 0z"/><path data-id="20025" d="m260.6 434.5l0 14.8l2.1 0l0.3 64.7l11.2 0.1l1.4 0l16.1 0l12 0.1l1.5 0l15.7 0.1l1.2 0.1l3.1 0l9 0l2.3 0l-0.4 -32.4l0.1 -31.8l-1.7 0l0 -14.6l-29.3 0.1l-29.9 -0.9l-14.7 -0.3z"/><path data-id="20027" d="m627.3 136.4l-0.1 15l15 -0.2l39.7 0.1l0.2 -15.2l0.4 -60.1l-54.9 -0.1l-0.2 45.3l-0.1 15.1z"/><path data-id="20029" d="m552.2 61l0 15.1l0.4 45.2l74.9 0.1l0.2 -45.3l0 -15.1l-75.4 0z"/><path data-id="20031" d="m816.5 316.4l0 22.3l59 0.3l0.3 -37.7l1.2 0l-0.1 -22.4l0 -7.5l-59.2 0l0 29.8l-1.1 0l0 15.1z"/><path data-id="20033" d="m336.2 450.3l-0.1 31.8l0.4 32.4l4.4 0l1.1 0l2.2 0l3.8 0l6.6 0l4.2 -0.1l13.1 0.1l3.9 0l15.9 0l10.7 0l2.7 -0.1l3.9 0l-0.1 -64.7l-1.4 0l-63.6 0.5l-7.7 0.1z"/><path data-id="20035" d="m656.5 434.4l0.3 29l0.1 14.7l0.1 14.8l0.2 21.7l3.4 0l2.4 0l8.7 0l1.3 0l7.3 0l1.1 0l4.4 0l1.3 0l1.1 0l1.8 0l3.7 0l1.2 0l6 0l3.7 0.1l6.1 -0.1l1.1 0l4.1 0l24.8 0.1l0.1 -51.1l-0.1 -29.3l-54.9 0.1l-14.6 0l-14.7 0z"/><path data-id="20037" d="m933.2 400.7l0 49.1l1.8 0l0 7.4l34.1 0.1l27.2 0.2l0 -4.3l0 -5.4l0 -2.5l0 -2.5l0 -2.4l0 -2.5l0 -1.7l0 -3.2l0 -6.4l0 -1.1l0 -4.3l0 -2.2l0 -7.3l0 -4.7l0 -2.8l0 -3.3l-36.1 -0.3l-2.6 0l-24.3 0z"/><path data-id="20039" d="m176 0.2l-0.3 75.7l2.8 0l72.3 0.2l0.3 -75.8l-1.4 0l-1.2 0l-2.5 0l-1.9 0l-21.5 0l-6.6 0l-1.1 0l-2.9 0l-1.1 0l-1.4 0l-3.2 0l-5.5 0l-2.1 0l-3.7 0l-6.8 0l-2 0l-3.1 0l-5.1 0l-1.2 0l-1.2 0z"/><path data-id="20041" d="m625.9 186.5l1.2 2.5l0 7.5l0 15l0 29.9l59.2 0l0 -5l0 -2.1l0 -4.9l0 -2.9l0.4 -20l5 0l0 -10l-4.9 0l0.1 -18.7l-4.9 2.5l0.1 -16.4l0 -12.5l-39.7 -0.1l-15 0.2l-0.1 30l-1.3 5z"/><path data-id="20043" d="m899.5 0.6l0 60.6l30.1 0.1l2.3 5.5l1.7 1l4.3 0l-0.2 -1.1l0.2 -1.5l0.5 -1.3l0.7 -1.1l0.9 -1.5l1.3 -2.2l1.2 -1.3l1.2 -0.5l1 -0.1l1 0l1.3 -0.2l1 -0.6l0.9 -1.4l0.2 -3.2l-0.4 -2.7l0 -1.1l0.8 -1.7l1.3 -1.2l1.4 0.3l1.9 1.6l1.6 1.1l1.1 0.5l1 0.3l1.4 -0.1l1 -0.3l1.1 -0.6l1.7 -2.2l0.3 -1.1l-0.1 -2.3l-0.6 -1.2l-2.2 -0.2l-1.6 1.2l-1.5 0.7l-1.4 -0.3l-1.3 -1l-1.1 -1.3l-0.1 -1.6l1.2 -1.1l4.4 -0.2l1.2 -0.6l1 -2.2l0.1 -1.1l-0.1 -1.3l-0.3 -1l-1.1 -1.1l-2.1 -0.2l-1.8 -0.4l-1.2 -0.9l-1.5 -1.5l-0.7 -1.2l0.2 -1.4l1.3 -1.4l0.6 -1.4l-0.1 -1l-0.9 -1.3l-1.3 -0.8l-1 -0.4l-1 -0.2l-2.4 0.7l-1.2 0.1l-2.2 -0.7l-1.2 0.1l-1.5 1.6l-0.1 2.2l-0.3 1.3l-1.4 1.1l-2 0.2l-3.9 0.5l-1.2 -0.2l-2.1 -1.1l-3 -0.9l-1.2 -0.8l-0.8 -1.3l0 -1.7l-0.2 -1.1l-1.7 -0.9l-2.2 0.9l-1 0.3l-1.4 0l-1.3 -0.5l-0.9 -1.1l0.6 -2.2l0.2 -1l-0.1 -1.1l-1.6 -1.5l-2.4 -0.1l-1.4 -0.2l-1.2 -0.6l-1 -1.1l-0.6 -1l-1.1 -1.5l-2.7 -1.5l-1.7 -1.2l-0.7 -1.1l-0.1 -1.6l-4.2 0z"/><path data-id="20045" d="m877.8 169.5l0.1 2.2l0.1 25l0 7.6l0 15l31.5 0l3.3 0l9.9 0l14.9 0l0 -10l0 -12.5l0 -7.5l0 -11.9l-3.8 0l1.4 3.1l-3 1.4l-1.9 -2.2l-3.9 0l-3.3 -2.1l-0.5 2.2l-2.5 0.7l-0.1 -5.5l-0.1 -8.2l-10.9 0l-2.1 -0.4l0.1 2.5l-1.9 -1.7l-5.7 1.8l-7.7 -4.5l-5 -2l-6.1 2.2l-2.5 0.1l-0.2 5z"/><path data-id="20047" d="m332.6 360.3l-0.1 14.8l1.4 0l0.1 15.4l73.2 0.3l0 -15.7l-1.2 0l0.1 -29.7l-29.3 0l-14.7 -0.1l0 -14.8l-29.4 0l0 29.7z"/><path data-id="20049" d="m740.6 412.1l-0.1 22.1l0.1 29.3l33.8 0.3l41.3 0.3l0 -12.8l0.4 -1.9l-0.1 -7.4l0.2 -29.3l-75.6 -0.6z"/><path data-id="20051" d="m329.7 151.4l-0.9 75.1l1.8 0l35.5 0l8.9 0l28.3 0l0.4 -27.4l0.3 -47.8l-1.4 0l-72.9 0.1z"/><path data-id="20053" d="m478 196.5l-0.2 29.9l0.7 30l29.9 -0.1l44.6 -0.1l-0.1 -14.9l0 -14.9l-0.5 -29.9l-29.8 0.1l-44.8 0z"/><path data-id="20055" d="m127.1 300.4l-0.1 74.1l1.9 0l0 15.7l39.1 0l19.5 0l0.1 -15.7l-1.8 0l0.1 -29.5l29.3 0.3l29.3 -0.1l0.1 -14.8l-0.2 -29.7l-2.3 0l-29.5 -0.2l-29.5 -0.2l-56.1 -0.1z"/><path data-id="20057" d="m244.5 360.1l0 14.8l1.7 0l-0.2 59.5l14.6 0.1l14.7 0.3l29.9 0.9l29.3 -0.1l-0.5 -45.2l-0.1 -15.4l-1.4 0l0.1 -14.8l-40.7 0l-47.4 -0.1z"/><path data-id="20059" d="m876.9 239.1l0.1 32.4l0 7.5l19.8 0l39.5 0l0 -21.7l0 -15.7l-0.1 -14.9l1.3 -7.5l-14.9 0l-9.9 0l-3.3 0l-31.5 0l-0.1 7.5l-1 12.4z"/><path data-id="20061" d="m682 163.9l-0.1 16.4l4 -2.4l0.8 18.6l4.9 0l10 0l42.1 0l0.1 -30l0 -5l-2.5 0l-21.4 0l-3.6 0l0 -3.1l-2.9 0.5l-13.2 0l-3.3 0l0 -2.2l2.5 -3.3l0.2 -3.4l-2.5 0l0 -13.8l-15 -0.2l0 15.2l-0.2 12.5z"/><path data-id="20063" d="m166.2 151.2l-0.9 74.7l17.5 0l59.1 0.3l12.5 0.1l0.8 -74.9l-2.2 0l-74.7 -0.2l-12.1 0z"/><path data-id="20065" d="m253.3 76l-0.3 75.4l2.2 0l72.7 -0.1l0.4 -45.3l0 -7.5l0 -22.5l-3.5 0l-71.5 0z"/><path data-id="20067" d="m70.3 390.3l0.2 58.8l58.5 0.1l0 -17.2l0 -41.8l-58.6 0z"/><path data-id="20069" d="m186 345.1l-0.1 29.5l1.8 0l-0.1 15.7l-0.1 44.2l58.5 -0.1l0.2 -59.5l-1.7 0l0 -14.8l0.1 -14.8l-29.3 0.1l-29.3 -0.3z"/><path data-id="20071" d="m0.9 259.2l0 8.9l0.1 5.8l0 6.1l0 12.3l0 7.4l0 1.1l63.9 -0.1l0.1 -74.7l-64.1 0.4l0 1.5l0 2.3l0 10.2l0 5.8l0 3.9l0 2.6l0 3.4l0 3.1z"/><path data-id="20073" d="m740.6 375.2l0.1 36.9l75.6 0.6l0 -22.1l-0.1 -14.9l0.3 -37.1l0 -22.3l-53.4 -0.3l-0.1 14.8l-22.1 -0.1l-0.4 44.4z"/><path data-id="20075" d="m1 326.3l-0.1 11.5l0.1 20l0.1 10.2l0 7.4l0 3.5l0 2.5l0.1 4.8l0 3.7l69 0.4l0 -15.5l-2.1 0l0.1 -74.1l-3.4 0l-63.9 0.1l0 2.1l0 18.5l0 2.9l0 2z"/><path data-id="20077" d="m496.1 449.8l0.4 65l14.6 0l2.4 0l1.5 0l4.1 0l4 0l4.8 0l8.9 0l1.5 0l31 -0.1l0 -35.9l-0.3 -28.9l-73 0z"/><path data-id="20079" d="m582.9 333.2l0 27.4l58.8 -0.2l14.8 -0.1l0 -7.3l0 -1.5l0 -6l0 -14.9l0 -14.8l-29.3 0.2l-29.5 -0.1l-14.7 0.1l0 17.3z"/><path data-id="20081" d="m128.9 390.2l0 41.8l0 17.2l2.9 0l36.2 0l19.5 0l0 -14.7l0.1 -44.2l-19.5 0l-39.1 0z"/><path data-id="20083" d="m244.5 300.8l0.2 29.7l-0.1 14.8l-0.1 14.8l47.4 0.1l40.7 0l0 -29.7l-0.1 -17.4l-0.1 -12.4l-1.8 0l-86.2 0z"/><path data-id="20085" d="m806.2 76.2l0.1 50.6l-0.1 10l17.5 0l42.3 0.1l0 -35.2l2.5 0l0 -25.5l0.8 -15.1l-30.1 0l0 15.1l-33.1 0z"/><path data-id="20087" d="m865.3 159.3l-0.3 3.8l1.9 1.8l4.5 -2.5l4.7 0.2l1.8 1.8l2.5 -0.1l6.1 -2.2l5 2l7.7 4.5l5.7 -1.8l1.9 1.7l-0.1 -2.5l2.1 0.4l10.9 0l-0.1 -14.6l1.1 0l0 -47.8l-0.1 -2.5l-27.4 -0.2l-24.8 0.2l-2.5 0l0 35.2l0 10l0 2.5l-0.7 2.5l0 7.4z"/><path data-id="20089" d="m475.4 0.1l-0.1 75.8l2.4 0l44.3 0.1l30.2 0l0 -15.1l0 -60.8l-5.4 0l-5.1 0l-5 0l-2.8 0l-1 0l-3.2 0l-5.7 0l-2 0l-2.1 0l-2.8 0l-7.6 0.1l-2.4 0l-29.8 0l-1.9 0z"/><path data-id="20091" d="m937.5 209.2l0 10l18.6 0l1.2 0l5 0l10 0l4.9 0l20.2 0l0.2 -12.5l0 -2.5l-0.1 -3.7l0 -1.3l0 -1.1l0 -1l0 -2.9l0 -1.2l0 -1.3l0 -6.3l0 -1.1l0 -2.5l0 -3.8l0 -5l0.1 -6.2l-6.5 0l-1.6 0l-2.5 0l-2.5 0l-3.1 0l-4.1 0.1l-2.8 0l-1.3 0l-1.9 0l-2.5 -1.3l-3.2 -1.8l-3.6 0.4l-2.5 4.9l0.4 2.5l-2.7 4.3l-2 -1.9l-3.3 3.2l-9.8 -2.7l-0.9 3.6l-3.8 -0.6l0 11.9l0 7.5l0 12.5z"/><path data-id="20093" d="m68.3 300.6l-0.1 74.1l2.1 0l0 15.5l58.6 0l0 -15.7l-1.9 0l0.1 -74.1l-3 0l-55.9 0.2z"/><path data-id="20095" d="m480.7 435.1l0 14.7l15.4 0l72.7 -0.4l-0.1 -14.8l0 -14.8l-0.1 -14.4l0.2 -1.2l-0.1 -13.5l-44 0.2l-44 0l0 29.6l0 14.7z"/><path data-id="20097" d="m334 390.5l0.5 45.2l0 14.6l1.7 0l7.1 0l64.2 -0.6l-0.1 -14.5l-0.1 -44.4l-73.2 -0.3z"/><path data-id="20099" d="m875.2 481.9l-0.1 32.7l1.5 0l13.9 0l10.2 0l1.1 0l17.1 0l2.4 0l2.5 0l4.9 0l6.5 0l0 -8.1l-0.1 -12.2l-0.1 -36.9l0 -7.4l-1.8 0l-39 0l-19 0l0.4 22.2l-0.5 9.8z"/><path data-id="20101" d="m182.8 225.9l0.4 74.6l29.5 0.2l29.5 0.2l-0.4 -74.6l-59.1 -0.3z"/><path data-id="20103" d="m919.9 152l0.1 14.6l0.1 8.2l0.1 5.5l2.5 -0.7l0.5 -2.2l3.3 2.1l3.9 0l1.9 2.2l3 -1.4l-1.4 -3.1l3.8 0l3.8 0.6l0.9 -3.6l9.8 2.7l3.3 -3.2l2 1.9l0.1 -23.7l1 -12.7l16.4 0.1l-0.8 -1.1l-2.2 0.2l-1.6 -0.1l-1.2 -0.4l-1.5 -1.2l-0.5 -1.4l1 -1.8l0.3 -1.3l-0.2 -1.4l-0.5 -1.1l-0.9 -1.1l-1.1 -1l-1.4 -0.9l-1.4 -0.7l-1.4 -0.6l-1.2 -0.9l-1.1 -1.3l-0.6 -1l-0.4 -1.1l-0.3 -1l-0.4 -2l-0.3 -4.3l0.2 -1.1l0.9 -1l1.6 -0.7l1.3 -1.1l0.3 -1.6l-0.7 -1.7l-1.3 -0.7l-1.9 0.8l-1.3 0.6l-1.9 -0.1l-1.1 -0.8l-0.6 -1.1l-0.1 -1.7l-0.6 -1l-2 -1l-28.8 -0.3l0.1 2.5l0 47.8l-1.1 0z"/><path data-id="20105" d="m477.3 136.3l0 15.1l0.6 45.2l44.8 0l29.8 -0.1l0 -15l-0.2 -45l-30.1 0l-45 -0.1z"/><path data-id="20107" d="m934.8 319.2l-0.2 19.8l62.2 0.1l0 -3.9l0 -1l0 -14.2l0 -1.9l0 -1.2l0 -3.9l0 -1.7l0 -2.8l0 -1.6l0 -1.8l0 -5.6l0 -3.3l0 -2.2l0 -2.1l0 -1.6l0 -1.9l0 -4.9l0 -4.2l-40.9 -0.1l-19.8 -0.1l0.1 22.4l-1.4 0l-0.2 15.4l0 2.4z"/><path data-id="20109" d="m76.9 151l-0.8 74.9l47.7 -0.1l41.5 0.1l0.9 -74.7l-77.7 -0.3l-11.6 0.1z"/><path data-id="20111" d="m763.4 291.2l-0.3 24.9l53.4 0.3l0 -15.1l1.1 0l0 -29.8l0 -7.5l0 -37.3l0.5 -7.5l-32.3 0l-22.2 0l-0.1 22.3l-0.1 15l-0.2 34.8z"/><path data-id="20113" d="m553.1 241.3l0.1 14.9l0 29.9l0.3 15.6l0 14.2l29.5 0l14.7 -0.1l29.5 0.1l0 -14.9l0 -14.9l0 -44.7l-29.6 0.1l-14.8 0l-29.7 -0.1z"/><path data-id="20115" d="m627.2 241.4l0 44.7l0 14.9l0 14.9l29.3 -0.2l0 14.8l41.8 0.4l0 -29.9l0.4 -2.5l0 -12.4l2.4 0l0 -29.8l-14.8 0l0 -14.9l-59.2 0z"/><path data-id="20117" d="m703 30.7l0 45.5l30.2 0l45.9 0l-0.1 -60.7l0 -15.1l-8.3 0l-21.8 -0.1l-8.5 0l-1.6 0l-2.5 0l-1.7 0l-1.3 0l-3.2 0l-2.3 0l-24.6 0l-0.1 30.4z"/><path data-id="20119" d="m187.5 434.5l0 14.7l2.5 0l-0.2 22l0.3 43.2l5.6 -0.1l5.2 -0.1l47 -0.2l1.1 0l10.4 0l3.5 0l-0.3 -64.7l-2.1 0l0 -14.8l-14.6 -0.1l-58.5 0.1z"/><path data-id="20121" d="m936.3 257.3l0 21.7l19.8 0.1l40.9 0.1l0 -2.5l0 -5.3l0 -7.4l0 -1l0 -1.4l0 -4.6l0 -4.9l0 -5l0 -5.6l0 -1.9l0.1 -2.6l0.3 -17.6l-20.2 0l-4.9 0l-10 0l-5 0l-1.2 0l-18.6 0l-1.3 7.5l0.1 14.9l0 15.7z"/><path data-id="20123" d="m477.7 76l-0.4 60.3l45 0.1l30.1 0l-0.3 -10l0.3 -5.1l0.1 -45.2l-30.7 0l-44.3 -0.1z"/><path data-id="20125" d="m815.8 464.1l0 7.3l0 43.1l3.7 0l1.2 0l2.4 0l4.4 0l1.4 0l7.9 0l2.8 0l2.4 0l1.2 0l1.8 0l3.8 0l1 0l1.8 0l1.4 0l1.7 0l1.3 0l4.6 0l1.9 0l5.7 0l5.3 0l1.6 0l0.1 -32.7l0.5 -9.8l-0.4 -22.2l-40 -0.3l-19 -0.1l-0.4 1.9l0 12.8z"/><path data-id="20127" d="m686.3 229.4l-0.5 4.1l0.5 2.9l0 5l0 14.9l14.8 0l62.4 0.1l0.1 -15l0.1 -22.3l-5 0l-0.1 -14.9l-14.9 -0.1l0 -7.5l-42.1 0l-10 0l0 10l-5 0l-0.4 20l0 2.9z"/><path data-id="20129" d="m1.3 510.3l0 5.3l1.9 0l3.7 0l13.1 -0.1l40.3 -0.2l6.2 0l-0.2 -66.1l-65 -0.1l0 2.4l-0.1 3.7l0 7.3l0 2l0 6.7l0 19.6l0 2.8l0 2.2l0 12.9l0 1.7z"/><path data-id="20131" d="m779 0.4l0 15.1l0.1 60.7l27.2 0l33.1 0l0 -15.1l0.1 -60.6l-12.7 0l-10.1 0l-7 0l-1.8 0l-3.7 0l-4 0l-1.1 0l-4.8 0l-2.8 0l-9.7 0l-2.6 0z"/><path data-id="20133" d="m874.7 427.8l-0.1 22.1l19.6 0l39 0l0 -49.1l0 -9.8l-4.9 -0.2l-14.6 0.2l-19.4 -0.1l-19.7 0l0.1 36.9z"/><path data-id="20135" d="m241.8 226.2l0.4 74.6l2.3 0l86.2 0l-0.1 -14.9l0 -59.5l-1.8 0l-74.4 -0.1l-12.5 -0.1z"/><path data-id="20137" d="m251.1 0.3l-0.3 75.8l2.5 -0.1l71.5 0l0.4 -75.8l-12.6 0l-1.7 0l-2 0l-1.4 0.1l-1 0l-1.1 0l-5.6 0l-12.5 0l-3.2 0l-1.9 0l-5.7 0l-25.6 0z"/><path data-id="20139" d="m817.7 264l0 7.5l59.2 0l-0.1 -32.4l0.1 -12.4l1 -7.5l0 -15l0 -7.6l-24.4 0l-35.3 0l0.1 22.5l0 7.5l-0.5 37.3z"/><path data-id="20141" d="m403 75.9l-0.4 75.4l1.4 0l73.4 0.1l0 -15.1l0.4 -60.3l-2.4 0l-72.3 -0.1z"/><path data-id="20143" d="m552.2 126.4l0.3 10l0.2 45l44.9 0.1l29.7 0l0.1 -30l0.1 -15l0.1 -15.1l-74.9 -0.1l-0.3 5.1z"/><path data-id="20145" d="m330.6 285.9l0.1 14.9l1.8 0l0.1 12.4l0.1 17.4l29.4 0l0 14.8l14.7 0.1l29.3 0l14.6 0l0.1 -44.4l-1.2 0l-13.5 0l-1.3 0l0 -14.9l-44.2 -0.2l-29.9 0z"/><path data-id="20147" d="m325.2 0.2l-0.4 75.8l3.5 0l26.7 0l45.1 -0.1l-0.1 -75.7l-2.5 0l-3.7 0l-1.3 0l-6.3 0l-1.2 0l-1 0l-1.5 0l-2.5 0l-4.6 0l-4.4 0l-1 0l-15.1 0l-1.2 0l-1.5 -0.1l-7.7 0.1l-1.7 0l-1.2 0l-16.6 0z"/><path data-id="20149" d="m713.4 100.4l1.8 1.2l-1.5 2.9l4.5 5.5l0.6 2.3l2.7 2.6l-0.4 1.5l3.4 1.4l-1.4 1.6l2 2l0.4 2.3l5.9 6.5l4.4 2.3l2.2 5.7l3.6 1.6l-5 0.1l-0.4 1.5l0.1 1.4l5.5 -0.9l0 2.8l2.1 0.6l1.5 -1.7l1.9 2.2l2.1 -0.7l-0.5 -1.6l0.6 -2.1l5.7 0.7l3.7 2.2l4.1 2.8l3.8 -0.5l0.7 -4.6l2.2 -1.9l5.2 3.1l5.1 -5.6l1.5 1.9l5.5 -0.4l0.3 2.5l5.2 -0.3l3 0l0.7 -1.7l3.6 1.3l3.5 6.1l-3.5 -0.9l-0.6 1.9l5.9 1.9l0.7 2.5l0.4 -15.6l0.1 -10l-0.1 -50.6l-27.2 0l-45.8 0l-1.2 3.6l-3.5 2.4l-0.7 -1.1l-3.2 3.4l0.6 1.5l-2.2 1.6l-1.6 4.5l-2.1 -0.9l-0.6 3.2l-2.6 0.1l-2 3.1l1.2 1.4l-2 1.5z"/><path data-id="20151" d="m407.2 375.2l0 15.7l0.1 44.4l73.4 -0.1l0 -14.7l0 -29.6l0 -15.3l-1 -0.2l-72.5 -0.1z"/><path data-id="20153" d="m85.9 0.1l-0.4 75.7l3.3 0l59.8 0.1l27.1 0l0.3 -75.7l-1.8 0l-24.8 0l-12.1 0l-4.4 0l-9.5 0l-5.1 0l-1.4 0l-1.8 0l-3.1 0l-4.5 0l-5.1 0l-1 0l-4 0l-2.5 0l-4.2 0l-4.8 0z"/><path data-id="20155" d="m479.6 316.1l0.1 59.2l1 0.2l0 15.3l44 0l44 -0.2l14.6 -0.2l-0.1 -15.3l-0.3 -14.6l0 -27.4l0 -17.3l-29.5 0l-29.5 0l0 2.5l-9.9 0.1l0 -2.5l-7.3 0l-27.1 0.1z"/><path data-id="20157" d="m552.1 0.2l0 60.8l75.4 0l-0.1 -60.7l-6.2 0l-1.3 0l-2.6 0l-2.5 0l-6.3 0l-34.4 0l-1.3 0l-5.7 0l-2.5 0l-2.6 0l-2.5 0l-7.4 0z"/><path data-id="20159" d="m478.6 256.4l0 14.9l0.1 29.7l1 0l0 15l27.1 -0.1l7.3 0l0 2.5l9.9 -0.1l0 -2.5l29.5 0l0 -14.2l-0.3 -15.6l0 -29.9l-44.6 0.1l-29.9 0.1z"/><path data-id="20161" d="m682.5 76.2l-0.4 60.1l15 0.2l0 13.8l2.5 0l-0.2 3.4l-2.5 3.3l0 2.2l3.3 0l13.2 0l2.9 -0.5l0 3.1l3.6 0l21.4 0l2.5 0l0 5l14.8 0.1l0.2 -22.4l-3.7 -2.2l-5.7 -0.7l-0.6 2.1l0.5 1.6l-2.1 0.7l-1.9 -2.2l-1.5 1.7l-2.1 -0.6l0 -2.8l-5 1.5l-0.6 -2l-0.3 -1.1l5.7 -0.5l-3.6 -1.6l-2.2 -5.7l-4.4 -2.3l-5.9 -6.5l-0.4 -2.3l-2 -2l1.4 -1.6l-3.4 -1.4l0.4 -1.5l-2.7 -2.6l-0.6 -2.3l-4.5 -5.5l1.5 -2.9l-1.8 -1.2l2 -1.5l-1.2 -1.4l2 -3.1l2.6 -0.1l0.6 -3.2l2.1 0.9l1.6 -4.5l2.2 -1.6l-0.6 -1.5l3.2 -3.4l0.7 1.1l3.5 -2.4l1.2 -3.6l-30.3 0l-20.4 0z"/><path data-id="20163" d="m328.2 106l-0.4 45.3l1.8 0l72.9 -0.1l0.4 -75.4l-2.9 0l-45.1 0.1l-26.7 0l0 22.5l0 7.5z"/><path data-id="20165" d="m330.6 226.5l0 59.5l29.9 0l44.2 0.2l-0.1 -59.7l-1.3 0l-28.3 0l-8.9 0l-35.5 0z"/><path data-id="20167" d="m403.7 199l-0.4 27.4l1.3 0l73.3 0l0.2 -29.9l0.2 -45l-74.2 -0.3l-0.3 47.8z"/><path data-id="20169" d="m552.6 196.4l0.5 29.9l0 14.9l29.7 0.1l14.8 0l29.6 -0.1l0 -29.9l0 -15l0 -7.5l-1.2 -2.5l1.3 -5l-29.7 0l-44.9 -0.1l0 15z"/><path data-id="20171" d="m123.7 225.8l0.4 74.7l3 0l56.1 0.1l-0.4 -74.6l-17.5 0l-41.5 -0.1z"/><path data-id="20173" d="m568.7 405.4l0.1 14.4l0 14.8l39.3 -0.2l22 -0.2l9.8 0.2l2.3 0l7.1 0l7.3 0l0 -7.4l0 -7.4l0 -14.8l0 -4.9l0 -4.9l0 -2.5l0 -2.5l-0.1 -14.8l0.2 -14.9l-14.8 0.1l-58.2 0l-0.6 14.1l0.4 16l-14.6 0.2l0.1 13.5l-0.2 1.2z"/><path data-id="20175" d="m131.8 449.2l0 22l0.2 43.5l1.7 0l5.5 0l2.2 0l6.8 0l5.5 -0.1l1.7 0l4.8 0l5.5 -0.1l1.1 0l5.4 0l1.2 0l3 0.1l7.9 -0.1l5.7 0l-0.3 -43.2l0.2 -22l-2.5 0l-19.5 0l-36.2 0z"/><path data-id="20177" d="m806.2 151.8l2.6 1.7l3.1 -2.3l-2 3.1l4.9 0.7l3.5 2.2l0 9.4l0 9.9l0 10l0 10.1l35.3 0l24.4 0l-0.1 -25l-0.1 -2.2l0.2 -5l-1.8 -1.8l-4.7 -0.2l-4.5 2.5l-1.9 -1.8l0.3 -3.8l0 -7.4l0.7 -2.5l0 -2.5l0 -10l-42.3 -0.1l-17.5 0l0 15z"/><path data-id="20179" d="m178.4 75.9l-0.1 75.3l74.7 0.2l0.3 -75.4l-2.5 0.1l-72.3 -0.2z"/><path data-id="20181" d="m0.3 75.9l0 5.1l0 5.7l0 14.4l0 3.4l0 5.2l0.1 12.2l0.2 28.7l76.3 0.4l11.6 -0.1l0.1 -30l0.3 -45l-3.3 0l-85.2 0z"/><path data-id="20183" d="m400 0.2l0.1 75.7l2.9 0l72.3 0.1l0.1 -75.8l-2.5 0l-2.7 0l-2.3 0l-2 0l-2.4 0l-2.7 0l-3.6 0l-1.6 0l-2.3 0l-2.7 0l-2.7 0l-2.1 0l-6.5 0l-6.1 0l-1.9 0l-13.4 0l-3.5 0l-1.4 0l-2.8 0l-3.6 0l-6.5 0z"/><path data-id="20185" d="m406 345.4l-0.1 29.7l1.2 0l72.5 0.1l-0.1 -59.2l0 -15l-1 0l-29.6 0l-28.4 0l-0.1 44.4l-14.6 0z"/><path data-id="20187" d="m1.3 423.3l0 1l0 4.9l0 6.2l0 5.8l0 4.2l0 3.5l65 0.1l4.1 0l-0.2 -58.8l-69 -0.4l0 2.5l0 7.4l0 2.5l0 1.9l0 1.7l0 6.2l0 8.4l0 2.8z"/><path data-id="20189" d="m66.4 449.1l0.2 66.1l4.8 0l4.5 0l9.4 -0.1l5 0l2.5 0l19.7 -0.1l19.6 -0.1l-0.2 -43.5l0 -22l-2.9 0l-58.5 -0.1l-4.1 0z"/><path data-id="20191" d="m568.8 434.6l0.1 14.8l0.6 29.3l0 35.9l2.5 0l2 0l9.6 0l6.3 0l1.8 0l4.1 0.1l5.6 0l2.4 0l2.6 0l7.3 0l1.4 0l10.4 0l1.7 0l9.6 0l20.5 0l-0.2 -21.7l-0.1 -14.8l-0.1 -14.7l-0.3 -29l-7.3 0l-7.1 0l-2.3 0l-9.8 -0.2l-22 0.2l-39.3 0.2z"/><path data-id="20193" d="m88.5 120.9l-0.1 30l77.7 0.3l12.1 0l0.1 -75.3l-2.8 0l-27.1 0l-59.8 -0.1l-0.3 45z"/><path data-id="20195" d="m255.1 151.4l-0.8 74.9l74.4 0.1l0.9 -75.1l-1.8 0l-72.7 0.1z"/><path data-id="20197" d="m743.8 196.7l0 7.5l14.9 0.1l0.1 14.9l5 0l22.2 0l32.3 0l-0.1 -22.5l0 -10.1l0 -10l0 -9.9l0 -9.4l-3.5 -2.2l-4.9 -0.7l2 -3.1l-3.1 2.3l-3 -1.1l-0.7 -2.5l-5.9 -1.9l0.6 -1.9l3.5 0.9l-3.5 -6.1l-3.6 -1.3l-0.7 1.7l-3 0l-5.2 0.3l-0.3 -2.5l-5.5 0.4l-1.5 -1.9l-5.1 5.6l-4.8 -3.2l-2.6 2l-0.7 4.6l-3.8 0.5l-4.1 -2.8l-0.2 22.4l-14.8 -0.1l-0.1 30z"/><path data-id="20199" d="m0.6 151.3l0.1 14.9l0.2 40.3l0 2.4l0 2.8l0 2.3l0 2.5l0 10l64.1 -0.4l11.1 -0.1l0.8 -74.9l-76.3 0.3z"/><path data-id="20201" d="m627.5 0.2l0.1 60.7l0 15.1l54.9 0.1l20.4 0l0 -45.5l0.1 -30.4l-9.1 0l-5.7 0l-12.4 0l-2.9 0l-2.5 0l-11.8 -0.1l-5.9 0.1l-2.5 0l-6 0l-14.1 -0.1l-2.5 0z"/><path data-id="20203" d="m65 225.9l-0.1 74.7l3.4 0l55.9 -0.2l-0.4 -74.7l-47.7 0.1l-11.1 0.1z"/><path data-id="20205" d="m816.1 442l0.1 7.4l19 0.1l39.4 0.3l0.1 -22.1l-0.1 -36.9l-58.3 -0.3l0 22.1l-0.2 29.3z"/><path data-id="20207" d="m816.2 375.7l0.1 14.9l58.3 0.3l0.1 -14.8l0.7 -37l-59 -0.3l-0.3 37.1z"/><path data-id="20209" d="m957.3 152l-0.1 23.7l2.7 -4.3l-0.4 -2.5l2.5 -4.9l3.6 -0.4l3.2 1.8l2.5 1.3l1.9 0l1.3 0l2.5 0l4.4 -0.1l3.1 0l2.5 0l2.5 0l1.6 0l6.5 0l0 -3.7l0 -2.8l0 -1.4l0 -4.1l0 -1l0.9 -1.6l1.1 -1.3l0 -3.3l-1.3 -0.8l-1 -0.2l-2 0.7l-2.2 0.6l-1.4 -0.2l-1.6 -0.6l0.3 -1.8l-0.2 -1l-0.9 -1.4l-1.5 -0.4l-2.1 1l-2.4 1.4l-1.3 0.2l-1.7 0l-2.1 -0.7l-1.4 -1.2l-1 -1.7l-0.7 -1.8l-16.7 -0.4l-0.1 12.9z"/></svg>
