<?xml version="1.0" encoding="UTF-8"?>
<!DOCTYPE svg PUBLIC '-//W3C//DTD SVG 1.1//EN' 'http://www.w3.org/Graphics/SVG/1.1/DTD/svg11.dtd'>
<svg viewBox="0 0 1000 246.765" xmlns="http://www.w3.org/2000/svg">
  <g data-id="001">
    <path d="m407.506 111.081l-1.326 16.769l3.3 5.629l0.386 4.268l8.171 4.706l2.391 5.654l4.839 -2.015l5.645 1.42l7.146 8.249l8.191 0.241l5.056 -7.377l7.18 0.608l6.296 0.216l2.375 -8.844l-2.389 0.726l4.521 -9.486l-6.251 -4.701l0.138 -6.409l-4.564 -4.927l-5.147 0.074l-8.994 -3.507l-2.639 2.03l-7.821 -2.082l-1.497 -4.561l-6.253 -4.868l-4.709 0.146l-1.564 7.684l-6.808 -0.12l-5.673 0.479z" />
  </g>
  <g data-id="003">
    <path d="m258.054 54.444l4.323 10.288l11.705 7.151l4.654 6.695l13.635 -3.734l5.739 1.835l-1.599 -11.075l2.892 -9.661l-2.044 -6.954l-8.955 -1.778l-1.318 -8.375l-11.35 7.31l-3.864 2.488l-5.694 3.188l-3.584 1.485l-4.54 1.135z" />
  </g>
  <g data-id="005">
    <path d="m283.824 14.452l0.002 4.705l2.672 4.997l1.885 5.389l0.505 5.877l-0.498 2.1l-1.107 1.189l1.121 8.502l8.955 1.778l2.589 -7.571l9.648 -10.894l15.604 -9.274l-0.718 -7.378l-6.841 -3.484l-9.711 -9.911l-8.159 1.093l-4.465 1.469l-1.851 0.943l-7.444 6.662l-2.186 3.807z" />
  </g>
  <g data-id="007">
    <path d="m643.61 99.565l4.569 4.852l3.356 8.526l9.262 -1.479l1.058 11.694l8.565 -4.662l10.143 -6.834l4.737 -11.194l4.122 -18.13l-5.285 2.334l-2.203 4.726l-7.841 2.796l-13.266 -0.665l-6.524 -1.142l-10.693 9.178z" />
  </g>
  <g data-id="009">
    <path d="m597.945 140.892l-2.23 10.094l3.731 3.032l13.911 12.219l4.778 1.537l0.891 2.603l5.623 -0.489l0.804 -6.205l5.723 -0.833l-0.86 -8.242l3.651 -10.285l-2.507 -8.707l-6.994 -5.624l-2.044 5.664l-10.821 -3.321l-13.655 8.556z" />
  </g>
  <g data-id="011">
    <path d="m264.814 81.416l-1.726 3.506l5.678 0.649l1.563 0.536l3.551 1.219l2.2 3.59l0.808 5.538l9.8 -2.377l7.254 1.184l2.157 7.159l-0.068 2.145l19.791 -3.492l7.419 -5.862l7.943 -0.737l0.843 -6.863l-1.02 -4.105l-4.367 -2.461l-4.003 -1.901l-16.393 -3.273l-4.912 -1.529l-3.223 2.337l-5.739 -1.835l-13.635 3.734l-13.922 2.838z" />
  </g>
  <g data-id="013">
    <path d="m431.251 14.776l-0.74 16.978l0.809 2.565l-0.783 39.616l12.55 -9.555l5.952 5.204l0.904 7.966l16.799 -3.425l23.768 -1.419l2.486 -4.423l3.473 0.598l3.128 -13.815l-2.171 -6.081l1.824 -18.749l-1.673 0.071l2.835 -11.826l-2.47 -6.531l-13.916 -3.587l-7.804 2.102l-6.813 0.375l-5.705 1.111l-1.413 1.387l-4.08 1.394l-2.407 0.822l-3.443 1.176l-8.556 -0.325l-2.972 -0.475l-2.66 -0.783l-5.734 -2.868l-1.19 2.498z" />
  </g>
  <g data-id="015">
    <path d="m683.479 186.981l-4.761 4.166l8.679 11.003l0.6 10.584l4.326 2.753l3.35 1.793l9.233 -8.233l1.641 -0.95l-10.072 -11.887l1.193 -7.869l-4.994 -4.25l-9.194 2.891z" />
  </g>
  <g data-id="017">
    <path d="m499.25 30.234l-1.824 18.749l8.777 -9.263l7.809 3.057l-0.26 -4.932l8.319 -5.043l-6.015 -1.847l3.746 -7.787l-2.169 -9.976l-9.293 -3.198l-1.796 -0.2l-0.657 1.898l-6.951 0.512l1.476 6.275l-2.835 11.826l1.673 -0.071z" />
  </g>
  <g data-id="019">
    <path d="m579.967 122.09l-3.69 10.439l8.278 3.176l10.641 -0.006l2.749 5.192l13.655 -8.556l10.821 3.321l2.044 -5.664l0.837 -1.76l-8.492 -0.064l-2.467 -13.324l1.813 -5.485l-0.417 -4.54l-10.068 -0.441l-4.866 1.908l-2.29 -3.037l-4.718 0.543l-5.146 3.575l-3.925 -0.986l-0.317 18.211l-4.442 -2.503z" />
  </g>
  <g data-id="021">
    <path d="m635.202 81.19l2.722 11.474l1.642 0.096l4.043 6.805l10.693 -9.178l6.524 1.142l2.16 -7.29l-1.396 -9.294l2.931 -4.755l-2.881 -10.514l2.621 -4.946l5.942 -1.812l-2.099 -7.691l1.024 -5.925l-3.787 -3.98l-9.916 1.2l-4.035 -3.658l-1.154 3.856l-5.481 0.508l-3.846 1.982l0.38 9.82l-0.115 11.273l-0.876 2.189l0.385 1.334l-0.677 1.538l0.337 2.809l-1.493 1.246l0.766 2.979l-0.913 5.065l-3.502 3.729z" />
  </g>
  <g data-id="023">
    <path d="m266.814 206.12l0.346 8.13l0.82 2.478l0.191 1.178l2.893 2.884l2.497 3.814l0.786 1.092l4.166 0.654l0.356 -2.558l-1.834 -3.285l-0.457 -1.831l1.916 -4.53l1.817 -0.806l4.242 0.665l12.245 4.312l2.016 1.456l6.717 0.907l2.834 -11.269l-2.889 -15.819l-2.103 -6.767l2.504 -8.787l3.65 -4.361l-2.371 -2.516l1.866 -12.587l-9.438 -3.385l-2.794 -6.471l-9.554 -8.266l-7.711 -5.787l0.767 3.431l0.759 3.201l-2.07 16.461l-0.64 1.866l-4.181 2.915l-1.48 1.94l0.405 5.535l0.558 3.999l-4.852 12.011l6.111 1.388l7.174 2.824l0.597 1.209l-0.095 2.52l-0.699 1.453l-1.322 0.877l-10.959 4.201l-1.574 1.943l-1.213 3.684z" />
  </g>
  <g data-id="025">
    <path d="m670.419 118.495l5.921 10.4l-0.767 4.888l3.185 0.533l10.713 7.998l-1.332 4.216l6.265 9.46l6.321 -2.504l5.548 -9.496l-0.726 -8.497l4.022 -7.751l2.745 0.179l1.56 -1.204l0.722 -7.078l-5.919 -7.222l1.575 -5.965l-1.659 -9.16l2.11 -5.215l-7.966 -4.918l-0.249 -3.993l3.245 -1.493l-1.422 -1.774l-5.855 -1.058l-1.398 5.007l-7.637 -1.512l-4.122 18.13l-4.737 11.194l-10.143 6.834z" />
  </g>
  <g data-id="027">
    <path d="m382.229 12.101l0.165 38.454l0.766 7.458l2.045 -0.38l1.245 -0.347l4.779 4.322l8.172 0.579l11.222 4.78l4.982 -16.906l-1.213 -1.392l-3.556 -8.622l-1.96 -23.355l-2.818 -5.812l-4.795 -1.181l-6.514 -0.016l-8.303 1.603l-4.216 0.814z" />
  </g>
  <g data-id="029">
    <path d="m738.981 47.328l2.807 3.033l3.882 2.543l-1.451 4.466l0.432 7.623l4.701 10.629l-4.599 10.939l3.085 7.841l-4.147 0.791l16.123 6.613l8.119 -0.743l2.327 -1.205l3.641 -6.647l-11.668 -7.257l1.969 -10.655l-5.13 -15.505l3.406 -6.466l-3.33 -0.187l2.41 -11.717l-11.026 -1.848l-7.115 4.143l-4.436 3.61z" />
  </g>
  <g data-id="031">
    <path d="m700.286 25.414l-2.357 2.342l4.867 6.349l1.745 1.48l12.202 7.794l-2.849 9.225l2.963 1.186l0.682 4.326l2.793 2.846l9.358 15.568l6.478 3.706l-1.266 5.916l1.152 2.594l7.635 6.445l4.147 -0.791l-3.085 -7.841l4.599 -10.939l-4.701 -10.629l-0.432 -7.623l1.451 -4.466l-3.882 -2.543l-2.807 -3.033l4.436 -3.61l-4.09 -9.878l-11.423 -1.896l-2.115 0.382l-9.413 -9.942l-1.607 3.153l-3.436 2.151l-6.141 0.183l-4.881 -2.42z" />
  </g>
  <g data-id="033">
    <path d="m651.391 32.864l4.035 3.658l9.916 -1.2l5.681 -5.804l1.376 -0.185l1.511 0.466l-0.061 -2.501l-7.706 -7.862l-3.733 1.291l-11.019 12.136z" />
  </g>
  <g data-id="035">
    <path d="m630.315 154.609l0.86 8.242l8.362 10.716l-0.105 8.326l13.2 -1.528l9.987 5.085l7.051 -10.049l-3.389 -9.957l6.003 -0.589l3.728 -5.754l12.503 1.24l5.673 -2.114l0.499 -1l-0.282 -1.235l-6.265 -9.46l1.332 -4.216l-10.713 -7.998l-2.437 6.897l-6.17 5.072l-4.532 -0.262l-0.388 2.419l-12.087 -4.6l-3.795 4.148l-2.65 -4.21l-1.862 2.93l-10.873 -2.387l-3.651 10.285z" />
  </g>
  <g data-id="037">
    <path d="m799.479 91.369l1.629 3.359l14.888 7.408l7.177 -2.815l7.134 2.617l-3.687 5.304l8.101 6.182l4.855 0.215l-1.724 6.105l10.005 2.615l2.525 -2.003l-3.365 -7.47l-0.227 -1.812l7.742 0.662l2.426 6.105l4.217 -0.512l3.671 -6.031l5.236 -8.184l-10.83 -3.878l-6.642 -6.206l-0.338 -4.952l-4.078 1.904l-11.681 -1.727l-5.9 5.025l-4.722 -4.11l-1.794 4.88l-6.479 2.066l-7.439 -2.377l-5.83 -8.859l-1.938 2.382l-2.931 4.105z" />
  </g>
  <g data-id="039">
    <path d="m490.51 72.705l-1.521 2.252l9.508 -0.122l6.858 9.351l4.382 6.571l-3.587 15.078l5.727 8.549l5.942 7.761l0.626 7.89l-4.453 6.595l4.257 2.871l7.541 -8.678l-2.45 -18.517l6.119 -11.968l12.542 4.327l4.143 -4.67l-3.376 -9.881l4.24 -10.322l-0.344 -8.819l-3.991 -7.587l0.71 -7.454l-3.727 1.499l-3.708 0.606l-10.424 1.564l-6.438 4.552l-1.596 -0.418l-2.211 2.684l-18.81 2.458l-3.473 -0.598l-2.486 4.423z" />
  </g>
  <g data-id="041">
    <path d="m625.301 128.233l-0.837 1.76l6.994 5.624l2.507 8.707l10.873 2.387l1.862 -2.93l2.65 4.21l3.795 -4.148l12.087 4.6l0.388 -2.419l4.532 0.262l6.17 -5.072l2.437 -6.897l-3.185 -0.533l0.767 -4.888l-5.921 -10.4l-8.565 4.662l-1.058 -11.694l-9.262 1.479l-4.912 8.513l-9.053 2.078l-1.747 9.23l-10.521 -4.531z" />
  </g>
  <g data-id="043">
    <path d="m550.243 131.376l2.206 1.436l1.467 -0.222l5.592 10.927l-4.092 11.184l3.352 6.892l-3.286 6.397l0.092 2.192l2.191 10.991l-1.061 2.067l20.139 3.873l5.681 -1.674l9.391 8.141l12.246 -15.877l4.829 -1.075l1.997 -3.556l8.037 -2.695l-0.891 -2.603l-4.778 -1.537l-13.911 -12.219l-3.731 -3.032l2.23 -10.094l-2.749 -5.192l-10.641 0.006l-8.278 -3.176l-14.68 4.009l-3.664 -3.363l-7.69 -1.799z" />
  </g>
  <g data-id="045">
    <path d="m616.154 109.36l-1.813 5.485l2.467 13.324l8.492 0.064l10.521 4.531l1.747 -9.23l9.053 -2.078l4.912 -8.513l-3.356 -8.526l-4.569 -4.852l-4.043 -6.805l-1.642 -0.096l-4.439 0.755l-3.559 7.94l-14.189 3.46l0.417 4.54z" />
  </g>
  <g data-id="047">
    <path d="m574.827 85.957l-1.957 7.215l11.856 13.21l3.925 0.986l5.146 -3.575l4.718 -0.543l6.33 -3.183l6.623 -28.054l-10.166 -15.505l-4.797 1l-7.162 -0.203l-9.941 13.447l-2.849 11.802l-1.725 3.404z" />
  </g>
  <g data-id="049">
    <path d="m957.367 64.898l-1.681 1.18l5.424 8.378l-3.727 5.949l3.586 4.828l15.195 5.629l1.138 0.421l7.511 -3.645l2.892 -1.613l1.891 -1.121l9.931 -5.335l0.473 -4.066l-12.638 -8.197l-5.112 1.472l-7.555 2.175l-2.924 0.842l-2.236 -0.591l-1.983 -2.28l-4.396 -0.146l-2.788 -1.41l-2.341 -2.937z" />
  </g>
  <g data-id="051">
    <path d="m597.878 15.929l-0.879 9.152l6.434 10.529l-1.374 15.439l12.09 0.12l6.706 -4.038l-4.325 -12.54l2.344 -11.041l10.08 0.244l11.622 -4.755l-1.643 0.205l-6.16 0.05l-7.961 -1.062l-3.586 -1.444l-1.543 -1.118l-5.169 -1.913l-2.501 0.834l-2.602 2.298l-2.777 -0.056l-8.754 -0.905z" />
  </g>
  <g data-id="053">
    <path d="m862.98 47.708l-0.398 3.842l3.445 2.65l3.246 9.672l3.445 3.379l1.254 -2.225l-0.618 -4.001l-0.351 -8.52l-1.143 -0.814l-5.965 -4.248l-2.915 0.265z" />
    <path d="m804.348 84.881l5.83 8.859l7.439 2.377l6.479 -2.066l1.794 -4.88l4.722 4.11l5.9 -5.025l11.681 1.727l4.078 -1.904l-1.148 -16.812l-1.701 -4.048l-0.834 -1.984l5.157 -7.692l2.031 -5.672l-1.506 -2.282l-2.273 0.262l-6.909 2.831l-2.538 2.249l-1.541 2.761l-4.028 1.495l-1.582 -0.154l-6.165 12.973l-12.335 9.069l-4.557 6.977l-7.993 -3.172z" />
  </g>
  <g data-id="054">
    <path d="m499.597 55.064l-3.128 13.815l18.81 -2.458l2.211 -2.684l1.138 -13.051l-4.615 -7.91l-7.809 -3.057l-8.777 9.263l2.171 6.081z" />
  </g>
  <g data-id="055">
    <path d="m352.949 218.089l4.762 2.031l2.98 2.719l1.626 3.347l5.088 -0.543l5.325 2.352l1.263 -0.019l1.665 -1.986l2.492 -5.947l1.163 -0.941l1.755 -0.25l1.819 0.862l5.957 -1.634l1.526 0.368l0.729 1.409l5.065 1.261l0.363 -2.843l1.131 -0.887l-1.378 -16.9l-7.882 -10.359l-3.885 0.565l-23.364 -3.527l-1.172 15.81l-7.03 15.112z" />
  </g>
  <g data-id="057">
    <path d="m631.901 222.12l-1.047 6.445l2.383 3.759l3.472 -2.149l1.683 -1.262l2.866 -2.15l1.349 -2.598l2.429 0.212l1.292 0.113l3.057 0.082l2.721 0.869l3.225 1.409l1.256 0.168l2.749 -1.761l4.736 -2.864l2.951 -2.157l3.977 -0.846l12.792 -6.731l4.204 0.075l-0.6 -10.584l-8.679 -11.003l4.761 -4.166l-2.624 -9.011l7.752 -8.691l5.58 -11.053l-5.673 2.114l-12.503 -1.24l-3.728 5.754l-6.003 0.589l3.389 9.957l-7.051 10.049l-9.987 -5.085l-5.283 9.667l-9.224 4.675l-0.227 19.366l-5.995 8.047z" />
  </g>
  <g data-id="059">
    <path d="m400.301 217.123l5.04 1.961l5.952 -1.766l5.196 -4.305l7.732 -2.814l0.843 -2.092l-0.021 -2.953l-0.027 -3.727l5.434 -4.004l2.139 -0.14l1.581 3.073l4.326 -4.91l5.676 -2.485l-3.209 -5.042l1.997 -4.592l-6.335 -2.765l-4.271 4.089l-1.606 -7.676l1.329 -9.041l-1.4 -2.18l3.208 -9.2l-2.973 -9.044l-5.645 -1.42l-4.839 2.015l0.474 4.637l-5.295 3.262l0.24 1.825l2.87 6.701l-5.297 7.84l-3.078 10.848l2.556 5.173l-4.277 4.099l1.355 7.351l-3.936 13.04l-5.739 4.24z" />
  </g>
  <g data-id="061">
    <path d="m662.986 84.239l-2.16 7.29l13.266 0.665l7.841 -2.796l2.203 -4.726l-1.718 -1.244l-0.895 -13.211l-4.444 -3.105l0.538 -2.717l3.623 -2.907l-0.622 -6.942l-6.055 -2.956l2.461 -11.364l0.716 -1.713l-3.655 -4.323l-0.175 -4.39l-1.511 -0.466l-1.376 0.185l-5.681 5.804l3.787 3.98l-1.024 5.925l2.099 7.691l-5.942 1.812l-2.621 4.946l2.881 10.514l-2.931 4.755l0.579 8.455z" />
  </g>
  <g data-id="063">
    <path d="m702.488 83.167l0.249 3.993l7.966 4.918l-2.11 5.215l1.659 9.16l-1.575 5.965l5.919 7.222l3.163 -5.167l13.985 -3.466l4.246 -1.869l-2.342 -7.178l10.042 -6.767l-7.635 -6.445l-1.152 -2.594l-9.459 -6.462l-19.711 1.983l-3.245 1.493z" />
  </g>
  <g data-id="065">
    <path d="m406.058 10.88l2.818 5.812l1.96 23.355l3.556 8.622l1.213 1.392l-4.982 16.906l-0.701 7.6l20.508 1.06l0.107 -1.692l0.783 -39.616l-0.809 -2.565l0.74 -16.978l1.19 -2.498l-5.67 -2.836l-6.991 -0.529l-9.602 1.377l-4.12 0.591z" />
  </g>
  <g data-id="067">
    <path d="m287.238 140.451l9.554 8.266l2.794 6.471l9.438 3.385l7.15 -0.124l0.559 -3.978l-4.63 -3.24l-0.66 -6.555l2.778 -2.911l-4.421 -3.375l-22.562 2.06z" />
  </g>
  <g data-id="069">
    <path d="m758.738 154.018l2.723 3.769l8.125 -3.506l0.024 7.09l6.917 5.591l11.947 5.791l0.629 -1.462l0.132 -1.967l-0.744 -1.988l7.034 -17.602l3.922 -7.424l3.012 -3.165l5.552 -2.847l1.658 -3.676l-9.9 -3.345l2.038 -5.22l-11.758 -4.327l-12.351 2.459l-3.819 9.741l-3.723 -1.04l-2.776 0.253l-3.293 14.362l-5.347 8.513z" />
  </g>
  <g data-id="071">
    <path d="m311.502 0l-3.573 0.478l9.711 9.911l6.841 3.484l0.718 7.378l1.358 4.885l9.429 21.31l6.631 -0.678l26.042 7.244l5.998 -6.5l-9.309 -3.252l3.216 -6.792l-3.439 -7.266l-6.928 -4.671l3.407 -15.221l-5.466 -1.602l-6.04 -1.699l-11.573 -5.01l-21.702 -1.029l-5.318 -0.97z" />
  </g>
  <g data-id="073">
    <path d="m473.019 134.117l1.869 4.154l4.73 2.779l16.769 -8.051l14.062 7.904l2.04 -0.415l1.503 -3.858l4.453 -6.595l-0.626 -7.89l-5.942 -7.761l-5.727 -8.549l3.587 -15.078l-4.382 -6.571l-4.463 5.616l-6.884 -0.021l-3.406 17.668l-6.768 -3.178l-1.21 12.541l-9.605 17.306z" />
  </g>
  <g data-id="075">
    <path d="m506.113 145.797l1.094 9.333l4.607 7.61l-2.339 4.297l3.737 6.098l-0.336 5.785l3.248 4.839l-1.786 3.963l4.331 10.814l-4.11 4.435l0.389 6.236l11.178 -3.921l6.87 -1.789l4.509 -0.008l1.089 0l5.478 -0.002l2.373 1.349l1.662 1.376l10.78 -13.953l-2.183 -9.018l1.061 -2.067l-2.191 -10.991l-0.092 -2.192l-8.944 0.311l-13.876 -6.552l-9.516 5.089l-4.339 -8.478l2.995 -17.417l-8.231 1.678l-1.081 -2.133l-2.04 0.415l-4.338 4.894z" />
  </g>
  <g data-id="077">
    <path d="m731.744 111.006l-0.266 5.178l8.214 7.157l-0.162 12.897l0.553 8.232l11.854 -23.001l7.848 -5.282l8.396 -12.428l-0.251 -2.696l-8.119 0.743l-16.123 -6.613l-10.042 6.767l2.342 7.178l-4.246 1.869z" />
  </g>
  <g data-id="079">
    <path d="m303.375 186.823l2.103 6.767l2.889 15.819l-2.834 11.269l3.035 -0.305l4.378 -1.864l2.64 -3.411l2.249 -2.906l5.169 -2.343l13.958 1.197l3.596 0.871l3.693 2.957l1.213 -1.194l1.671 -1.646l3.963 0.32l1.426 2.376l-0.17 2.355l0.595 1.003l7.03 -15.112l1.172 -15.81l-8.799 -3.374l-0.243 -4.377l-9.022 -2.982l-10.415 0.932l-11.666 -3.291l-15.126 3.961l-2.504 8.787z" />
  </g>
  <g data-id="081">
    <path d="m380.094 101.791l-2.068 7.776l5.478 17.524l12.494 0.386l0.426 4.622l9.588 1.647l3.469 -0.267l-3.3 -5.629l1.326 -16.769l5.673 -0.479l-0.106 -1.97l-2.996 -3.435l-1.417 -16.827l1.261 -13.804l0.701 -7.6l-11.222 -4.78l-8.172 -0.579l-4.779 -4.322l-1.245 0.347l-6.116 24.903l1.005 19.257z" />
  </g>
  <g data-id="083">
    <path d="m323.242 95.211l-7.419 5.862l9.482 3.682l2.156 6.954l6.395 3.636l4.828 8.755l5.896 0.763l9.349 -5.58l29.573 7.809l-5.478 -17.524l2.068 -7.776l-4.302 -1.304l-1.948 -1.56l-2.086 0.668l0.397 1.741l-1.342 0.201l-0.371 -1.905l-1.805 -0.048l-2.941 -3.863l-21.893 -4.025l-11.867 -0.509l0.094 -3.577l-0.843 6.863l-7.943 0.737z" />
  </g>
  <g data-id="085">
    <path d="m740.084 144.469l2.823 1.943l-2.045 6.911l6.904 -2.392l10.973 3.087l5.347 -8.513l3.293 -14.362l2.776 -0.253l3.723 1.04l3.819 -9.741l-1.002 -11.551l4.827 -12.501l-3.146 -4.077l-4.474 -0.849l-3.641 6.647l-2.327 1.205l0.251 2.696l-8.396 12.428l-7.848 5.282l-11.854 23.001z" />
  </g>
  <g data-id="087">
    <path d="m716.43 22.134l9.358 10.193l2.115 -0.382l11.423 1.896l4.09 9.878l7.115 -4.143l11.026 1.848l-2.41 11.717l3.33 0.187l2.853 -1.499l2.629 -7.609l8.856 -8.466l-1.11 -1.281l-2.703 -1.944l-3.106 -0.53l-11.551 -1.973l-9.674 -4.886l-1.018 1.563l-3.342 0.882l-3.246 -0.102l-12.07 -2.509l-11.878 -3.514z" />
  </g>
  <g data-id="089">
    <path d="m798.155 57.999l6.222 9.533l-3.303 13.731l1.336 6l1.938 -2.382l7.993 3.172l4.557 -6.977l12.335 -9.069l6.165 -12.973l-1.844 -0.18l-3.392 -1.763l-2.377 0.626l-3.387 -0.498l-5.616 -3.172l-1.573 -6.031l-4.618 -1.24l0.436 3.527l-1.295 1.448l-3.178 0.701l-2.951 -1.779l-7.448 7.327z" />
  </g>
  <g data-id="091">
    <path d="m513.753 37.845l0.26 4.932l4.615 7.91l-1.138 13.051l1.596 0.418l6.438 -4.552l10.424 -1.564l3.708 -0.606l3.727 -1.499l4.278 -0.287l2.86 0.46l-1.908 -6.273l3.522 -8.973l-0.03 -20.111l0.25 -9.099l-1.117 2.312l-0.838 1.056l-1.858 2.34l-2.685 0.803l-5.067 -0.058l-15.204 -3.016l-6.571 -2.338l-1.381 0.441l2.169 9.976l-3.746 7.787l6.015 1.847l-8.319 5.043z" />
  </g>
  <g data-id="093">
    <path d="m333.285 127.952l-6.23 4.438l13.834 3.166l13.235 8.543l2.202 0.874l16.677 -3.764l8.352 1.898l5.777 -2.723l11.517 5.731l2.449 -9.403l4.913 -2.967l-9.588 -1.647l-0.426 -4.622l-12.494 -0.386l-29.573 -7.809l-9.349 5.58l-5.896 -0.763l0.9 2.157l-6.301 1.695z" />
  </g>
  <g data-id="095">
    <path d="m717.952 176.931l1.226 3.28l-0.144 2.031l2.069 2.442l-0.717 1.569l10.684 4.536l3.576 11.827l10.767 4.646l3.135 -1.339l3.39 -2.43l3.615 0.592l4.101 -5.451l1.76 -1.458l7.143 -2.072l-5.067 -5.33l-5.356 2.021l-10.348 -5.95l-9.738 -0.357l-16.15 -9.388l-3.947 0.832z" />
  </g>
  <g data-id="097">
    <path d="m276.889 96.454l4.576 7.306l0.893 6.715l5.516 5.4l1.962 5.12l-0.927 3.287l-9.384 10.381l6.804 6.075l23.469 -2.348l4.421 3.375l1.55 -7.061l11.284 -2.315l6.23 -4.438l6.301 -1.695l-0.9 -2.157l-4.828 -8.755l-6.395 -3.636l-2.156 -6.954l-9.482 -3.682l-19.791 3.492l0.068 -2.145l-2.157 -7.159l-7.254 -1.184l-9.8 2.377z" />
    <path d="m164.483 49.225l0.874 4.807l5.682 2.185l3.496 -3.496l-2.622 -4.807l-3.496 -1.748l-3.933 3.059z" />
    <path d="m2.324 156.673l-2.324 12.222l4.765 4.311l3.333 2.11l5.276 1.542l3.13 2.626l1.226 -0.288l7.769 -1.823l2.156 -2.955l4.597 -4.934l2.87 -1.448l0.617 -1.223l0.152 -3.776l-1.855 -5.208l-4.892 -5.349l-3.036 1.274l-2.437 1.816l-3.924 0.613l-1.707 -0.54l-7.039 -2.205l-7.835 2.495z" />
  </g>
  <g data-id="099">
    <path d="m296.512 65.605l1.599 11.075l3.223 -2.337l4.912 1.529l16.393 3.273l4.003 1.901l6.152 -8.865l-4.248 -8.26l1.979 -1.916l5.461 -14.559l-9.429 -21.31l-1.358 -4.885l-15.604 9.274l-9.648 10.894l-2.589 7.571l2.044 6.954l-2.892 9.661z" />
  </g>
  <g data-id="101">
    <path d="m543.385 55.934l-0.71 7.454l3.991 7.587l0.344 8.819l-4.24 10.322l3.376 9.881l17.017 -2.162l6.794 -3.904l2.548 -6.741l2.323 -1.231l1.725 -3.404l2.849 -11.802l-4.334 -4.268l-3.261 -0.189l-3.552 -10.52l-1.991 3.169l-7.673 -5.464l-8.067 2.628l-2.86 -0.46l-4.278 0.287z" />
  </g>
  <g data-id="103">
    <path d="m776.694 110.638l1.002 11.551l12.351 -2.459l11.758 4.327l-2.038 5.22l9.9 3.345l1.641 -2.676l2.277 -2.021l3.851 -1.776l2.01 0.399l4.332 2.839l1.673 0.895l1.905 0.194l-1.285 -3.102l1.385 -3.089l9.79 -4.702l2.327 -5.948l-4.855 -0.215l-8.101 -6.182l3.687 -5.304l-7.134 -2.617l-7.177 2.815l-14.888 -7.408l-1.629 -3.359l-6.63 -5.421l-3.076 -0.98l-0.853 2.718l-5.841 -0.244l-4.706 6.618l3.146 4.077l-4.827 12.501z" />
  </g>
  <g data-id="105">
    <path d="m598.515 103.25l2.29 3.037l4.866 -1.908l10.068 0.441l14.189 -3.46l3.559 -7.94l4.439 -0.755l-2.722 -11.474l3.237 -3.778l-4.577 -7.035l-5.821 3.737l-9.378 -2.852l-7.196 0.749l-6.623 28.054l-6.33 3.183z" />
  </g>
  <g data-id="107">
    <path d="m512.49 140.488l1.081 2.133l8.231 -1.678l18.885 -10.015l9.556 0.447l7.69 1.799l3.664 3.363l14.68 -4.009l3.69 -10.439l4.442 2.503l0.317 -18.211l-11.856 -13.21l1.957 -7.215l-2.323 1.231l-2.548 6.741l-6.794 3.904l-17.017 2.162l-4.143 4.67l-12.542 -4.327l-6.119 11.968l2.45 18.517l-7.541 8.678l-4.257 -2.871l-1.503 3.858z" />
  </g>
  <g data-id="109">
    <path d="m680.854 177.97l2.624 9.011l9.194 -2.891l4.994 4.25l-1.193 7.869l10.072 11.887l4.342 -0.845l4.614 0.6l3.614 2.759l3.217 1.617l6.903 -1.178l12.174 -2.077l4.006 -1.711l-10.767 -4.646l-3.576 -11.827l-10.684 -4.536l0.717 -1.569l-2.069 -2.442l0.144 -2.031l-1.446 -2.497l-7.87 -4.17l0.101 -3.043l-1.034 -8.1l-14.244 -5.175l-0.499 1l-5.58 11.053l-7.752 8.691z" />
  </g>
  <g data-id="111">
    <path d="m430.677 165.755l1.4 2.18l-1.329 9.041l1.606 7.676l4.271 -4.089l6.335 2.765l-1.997 4.592l3.209 5.042l-5.676 2.485l-4.326 4.91l0.634 1.233l0.814 3.159l1.809 0.075l1.871 -1.366l5.564 -0.506l5.208 0.508l1.31 0.998l1.301 2.186l3.95 1.756l4.541 -5.381l-0.985 -18.86l3.344 -14.232l0.833 -9.149l-5.878 -11.544l-7.18 -0.608l-5.056 7.377l-8.191 -0.241l-7.146 -8.249l2.973 9.044l-3.208 9.2z" />
  </g>
  <g data-id="113">
    <path d="m517.607 240.646l0.304 4.258l0.133 1.86l5.244 -1.748l4.37 -3.933l0 -5.245l-4.37 -0.437l-5.681 5.245z" />
    <path d="m461.171 203.018l-4.541 5.381l9.67 4.298l3.099 -0.699l2.425 -2.453l4.467 -2.186l5.041 -0.961l2.999 0.656l6.896 4.653l3.914 -0.644l1.741 0.501l2.003 2.674l1.288 0.154l14.773 -5.182l-0.389 -6.236l4.11 -4.435l-4.331 -10.814l1.786 -3.963l-3.248 -4.839l0.336 -5.785l-3.737 -6.098l2.339 -4.297l-4.607 -7.61l-1.094 -9.333l4.338 -4.894l-14.062 -7.904l-16.769 8.051l-4.73 -2.779l-1.367 -0.113l-6.366 2.445l-2.375 8.844l-6.296 -0.216l5.878 11.544l-0.833 9.149l-3.344 14.232l0.985 18.86z" />
  </g>
  <g data-id="115">
    <path d="m361.603 10.31l-3.407 15.221l6.928 4.671l3.439 7.266l-3.216 6.792l9.309 3.252l0.928 5.668l5.819 4.924l1.756 -0.091l-0.766 -7.458l-0.165 -38.454l-2.001 0.386l-10.859 -2.467l-3.029 -0.688l-4.737 0.978z" />
  </g>
  <g data-id="117">
    <path d="m247.327 57.671l-1.137 1.806l1.422 3.557l7.128 12.353l4.768 8.262l3.33 1.245l1.975 -3.478l13.922 -2.838l-4.654 -6.695l-11.705 -7.151l-4.323 -10.288l-7.936 1.984l-2.79 1.243z" />
  </g>
  <g data-id="119">
    <path d="m762.477 53.328l-3.406 6.466l5.13 15.505l-1.969 10.655l11.668 7.257l4.474 0.849l4.706 -6.618l5.841 0.244l0.853 -2.718l3.076 0.98l6.63 5.421l2.931 -4.105l-1.336 -6l3.303 -13.731l-6.222 -9.533l7.448 -7.327l-5.086 -5.272l-2.826 -2.954l0.716 -1.239l-0.287 -1.344l-1.621 -0.392l-3.518 0.407l-1.469 -2.177l-1.311 -1.477l-5.05 4.471l-4.008 0.052l-4.327 -4.992l-8.856 8.466l-2.629 7.609l-2.853 1.499z" />
  </g>
  <g data-id="121">
    <path d="m351.815 158.352l1.299 10.907l-1.006 10.157l0.243 4.377l8.799 3.374l23.364 3.527l3.885 -0.565l-1.041 -3.581l-4.983 -2.235l-7.231 -24.608l3.337 -3.89l-5.477 -14.606l-16.677 3.764l-1.351 -0.718l1.902 4.449l-5.062 9.647z" />
  </g>
  <g data-id="123">
    <path d="m587.737 202.216l1.638 6.6l5.33 -0.79l2.467 0.716l7.069 6.762l2.554 4.91l5.564 -0.684l4.163 1.439l2.447 2.971l2.386 1.571l-0.99 4.904l3.915 2.446l6.926 0.519l2.031 -1.257l-2.383 -3.759l1.047 -6.445l5.995 -8.047l0.227 -19.366l9.224 -4.675l5.283 -9.667l-13.2 1.528l0.105 -8.326l-8.362 -10.716l-5.723 0.833l-0.804 6.205l-5.623 0.489l-8.037 2.695l-1.997 3.556l-4.829 1.075l-12.246 15.877l-4.179 8.635z" />
  </g>
  <g data-id="125">
    <path d="m309.528 173.675l-3.65 4.361l15.126 -3.961l11.666 3.291l10.415 -0.932l9.022 2.982l1.006 -10.157l-1.299 -10.907l5.062 -9.647l-2.753 -4.605l-13.235 -8.543l-13.834 -3.166l-11.284 2.315l-1.55 7.061l-2.778 2.911l0.66 6.555l4.63 3.24l-0.559 3.978l-7.15 0.124l-1.866 12.587l2.371 2.516z" />
  </g>
  <g data-id="127">
    <path d="m666.198 16.751l-0.056 2.686l7.706 7.862l0.061 2.501l0.175 4.39l3.655 4.323l-0.716 1.713l-2.461 11.364l6.055 2.956l0.622 6.942l-3.623 2.907l-0.538 2.717l4.444 3.105l0.895 13.211l1.718 1.244l5.285 -2.334l7.637 1.512l1.398 -5.007l2.22 -2.904l-0.013 -9.502l1.114 -4.391l-1.046 -5.417l3.771 -3.911l9.392 -0.113l2.849 -9.225l-12.202 -7.794l-1.745 -1.48l-4.867 -6.349l2.357 -2.342l-1.06 -1.638l-1.409 0.305l-11.295 -1.723l-3.187 -1.422l-1.03 -0.534l-2.443 -1.314l-8.989 -1.275l-3.009 -0.792l-1.666 -0.269z" />
  </g>
  <g data-id="129">
    <path d="m694.404 155.991l0.282 1.235l14.244 5.175l1.034 8.1l12.602 -7.251l5.122 3.022l10.62 -2.666l2.554 -10.283l2.045 -6.911l-2.823 -1.943l-1.349 -7.375l0.958 -13.754l-8.214 -7.157l0.266 -5.178l-13.985 3.466l-3.163 5.167l-0.722 7.078l-1.56 1.204l-2.745 -0.179l-4.022 7.751l0.726 8.497l-5.548 9.496l-6.321 2.504z" />
  </g>
  <g data-id="131">
    <path d="m326.642 81.046l4.367 2.461l1.02 4.105l-0.094 3.577l11.867 0.509l21.893 4.025l2.941 3.863l1.805 0.048l0.371 1.905l1.342 -0.201l-0.397 -1.741l2.086 -0.668l1.948 1.56l3.822 1.698l-0.525 -19.651l6.116 -24.903l-2.045 0.38l-1.756 0.091l-5.819 -4.924l-0.928 -5.668l-5.998 6.5l-26.042 -7.244l-6.631 0.678l-5.461 14.559l-1.979 1.916l4.248 8.26l-6.152 8.865z" />
  </g>
  <g data-id="133">
    <path d="m548.108 206.212l1.797 1.487l12.264 8.541l4.849 2.459l2.838 1.974l2.268 2.634l3.094 -3.01l1.859 -1.808l1.035 -2.415l1.353 -2.751l0.951 -1.314l8.871 -3.181l-1.55 -6.613l4.179 -8.635l-9.391 -8.141l-5.681 1.674l-20.139 -3.873l2.183 9.018l-10.78 13.953z" />
  </g>
  <g data-id="135">
    <path d="m598.199 52.319l-1.694 5.189l4.797 -1l10.166 15.505l7.196 -0.749l9.378 2.852l5.821 -3.737l4.577 7.035l1.178 -5.016l-0.766 -2.979l1.493 -1.246l-0.337 -2.809l0.677 -1.538l-0.385 -1.334l0.876 -2.189l0.115 -11.273l-13.584 -4.648l-6.854 2.749l-6.706 4.038l-12.09 -0.12l-3.86 1.27z" />
  </g>
  <g data-id="137">
    <path d="m618.873 23.55l-2.344 11.041l4.325 12.54l6.854 -2.749l13.584 4.648l-0.38 -9.82l3.846 -1.982l5.481 -0.508l1.154 -3.856l11.019 -12.136l3.733 -1.291l0.056 -2.686l-3.202 -0.517l-1.569 3.729l-3.976 3.806l-3.008 0.407l-3.985 -1.984l-3.687 -1.917l-1.259 -1.789l-3.097 0.323l-1.843 0.23l-11.622 4.755l-10.08 -0.244z" />
  </g>
  <g data-id="139">
    <path d="m700.676 75.938l-2.22 2.904l5.855 1.058l1.422 1.774l19.711 -1.983l9.459 6.462l1.266 -5.916l-6.478 -3.706l-9.358 -15.568l-2.793 -2.846l-0.682 -4.326l-2.963 -1.186l-9.392 0.113l-3.771 3.911l1.046 5.417l-1.114 4.391l0.013 9.502z" />
  </g>
  <g data-id="141">
    <path d="m408.66 88.37l0.864 16.904l3.549 3.358l0.106 1.97l6.808 0.12l1.564 -7.684l4.709 -0.146l6.253 4.868l1.497 4.561l7.821 2.082l2.639 -2.03l8.994 3.507l5.147 -0.074l4.564 4.927l-0.138 6.409l6.251 4.701l-4.521 9.486l2.389 -0.726l6.366 -2.445l1.367 0.113l-1.869 -4.154l9.605 -17.306l1.21 -12.541l6.768 3.178l3.406 -17.668l6.884 0.021l4.463 -5.616l-6.858 -9.351l-9.508 0.122l1.521 -2.252l-23.768 1.419l-16.799 3.425l-0.904 -7.966l-5.952 -5.204l-12.55 9.555l-0.107 1.692l-20.508 -1.06l-1.261 13.804z" />
  </g>
  <g data-id="143">
    <path d="m576.47 55.754l-1.403 10.729l4.334 4.268l9.941 -13.447l7.162 0.203l1.694 -5.189l3.86 -1.27l1.374 -15.439l-6.434 -10.529l0.879 -9.152l-8.347 -4.242l-4.384 -0.277l0.666 22.283l-4.068 3.034l-1.463 9.926l-0.518 2.172l-3.295 6.929z" />
  </g>
  <g data-id="145">
    <path d="m548.615 49.834l1.908 6.273l8.067 -2.628l7.673 5.464l1.991 -3.169l3.552 10.52l3.261 0.189l1.403 -10.729l3.295 -6.929l0.518 -2.172l1.463 -9.926l4.068 -3.034l-0.666 -22.283l-8.522 -0.539l-1.642 -0.123l-6.252 -0.66l-5.905 -0.054l-3.89 0.484l-6.58 1.135l-0.25 9.099l0.03 20.111l-3.522 8.973z" />
  </g>
  <g data-id="147">
    <path d="m869.812 154.985l-0.471 4.815l2.292 2.282l0.487 2.209l3.92 2.304l6.09 1.734l6.575 -0.309l6.231 -3.741l10.104 -1.821l4.053 1.435l1.021 1.814l3.376 0.069l1.997 0.651l9.219 -2.961l0.936 -1.553l1.34 -0.992l3.072 -2.275l4.388 -1.01l2.385 0.207l2.529 -0.83l1.239 1.695l3.194 -0.771l-0.298 -2.812l0.574 -2.364l2.863 -1.267l3.855 -0.165l1.696 0.685l-1.916 4.272l2.026 0.154l3.11 0.207l1.299 -0.41l4.164 -4.514l1.614 -0.961l9.84 -0.542l4.703 -1.938l2.587 0.411l-4.32 -6.254l-2.55 2.038l-2.721 0.674l-2.362 -1.58l-1.75 0.339l-7.654 -1.341l-13.638 -3.776l-10.35 -1.71l-13.806 1.655l-11.346 5.377l-8.061 3.04l-8.047 1.189l-12.683 5.228l-10.805 1.416z" />
  </g>
  <g data-id="149">
    <path d="m521.802 140.944l-2.995 17.417l4.339 8.478l9.516 -5.089l13.876 6.552l8.944 -0.311l3.286 -6.397l-3.352 -6.892l4.092 -11.184l-5.592 -10.927l-1.467 0.222l-2.206 -1.436l-9.556 -0.447l-18.885 10.015z" />
  </g>
  <g data-id="151">
    <path d="m709.963 170.5l-0.101 3.043l8.09 3.387l3.947 -0.832l16.15 9.388l9.738 0.357l10.348 5.95l5.356 -2.021l5.067 5.33l4.164 -1.208l2.634 0.062l-0.664 -9.117l1.157 -4.709l1.928 -2.638l3.185 -2.26l2.946 2.516l2.7 -0.661l1.867 -4.339l-11.947 -5.791l-6.917 -5.591l-0.024 -7.09l-8.125 3.506l-2.723 -3.769l-10.973 -3.087l-6.904 2.392l-2.554 10.283l-10.62 2.666l-5.122 -3.022l-12.602 7.251z" />
  </g>
  <g data-id="153">
    <path d="m373.003 141.209l5.477 14.606l-3.337 3.89l7.231 24.608l4.983 2.235l1.041 3.581l7.882 10.359l1.378 16.9l1.102 -0.865l1.351 0.525l5.928 -4.166l3.936 -13.04l-1.355 -7.351l4.277 -4.099l-2.556 -5.173l3.078 -10.848l5.297 -7.84l-2.87 -6.701l-0.24 -1.825l5.295 -3.262l-0.474 -4.637l-2.391 -5.654l-8.171 -4.706l-0.386 -4.268l-3.469 0.267l-4.913 2.967l-2.449 9.403l-11.517 -5.731l-5.777 2.723l-8.352 -1.898z" />
  </g>
</svg>
