<?xml version="1.0" encoding="UTF-8"?><!DOCTYPE svg PUBLIC '-//W3C//DTD SVG 1.1//EN' 'http://www.w3.org/Graphics/SVG/1.1/DTD/svg11.dtd'><svg viewBox="0 0 1000 235.191" xmlns="http://www.w3.org/2000/svg"><path data-zip="00601" d="m411 119.2l0.1 1l0.3 1.8l0.4 1.1l1.4 -0.2l0.6 1l0.6 1.2l1.5 0.4l1 0.2l1.7 0.5l1.5 0.3l-0.1 1.2l-0.9 1l-1 -0.5l-1.2 2.5l-1.4 0.4l-1.1 1.1l0.9 1l1.2 -0.2l1.1 0.1l1.1 -1.1l0.7 1.1l-0.2 1.1l-0.2 2.7l-1.3 -1.5l-2.5 -0.9l0 -1.3l-1.1 0.9l1.3 1.5l-0.7 2l0.3 1.2l1 1.1l0.4 1.4l1.1 0.9l1.8 0.4l1.7 0.2l1.6 0.4l0.2 1l0 1.9l1.3 0.9l0.9 1.8l1.1 -0.2l1 -0.3l1.3 0.2l1.2 -1.1l1.1 0.4l1.5 0.5l1.2 0.9l1.3 -0.4l1.9 -0.3l1.2 1.2l1.4 1.1l0.8 1.5l0.9 2.4l1.8 2.1l1.3 -0.9l1 -0.2l1.4 -0.3l1.2 0.9l1.7 1.2l1.6 -0.4l0.8 -1.6l0 -1.8l1 -0.8l1.6 -1.7l0.4 -1.2l1.1 -0.2l0.4 1l1.3 0.2l1.5 -0.2l1.6 -0.4l1.2 -0.5l0.4 -1l1.8 -3.1l1.4 -1l1.6 0.9l-2.1 0.7l1.5 0.5l1.7 1l1.2 0l-1 -1.3l0.4 -1.7l-0.1 -1.8l-0.4 -2l1.4 0l-0.4 1.5l1.9 -0.9l2.8 -0.1l1.4 -1.3l-0.1 -1.8l-1 -1.3l0.4 -1.3l-0.3 -1.1l-1.5 0.3l0.9 -1l0 -1.1l-1.1 -0.2l-1 -1.4l-2 -1.3l-1.9 -1.5l-0.2 -1.2l-1 -1.6l-0.1 -1.2l1.4 -1.4l0 -1.4l-0.9 -1l-1.4 -1.3l-1.7 -0.7l-0.5 -1.9l-1.8 0.4l-1.2 -0.6l-2.5 0.2l-1.3 -0.6l-1.7 -1l-1.2 0.2l-1.5 -0.2l-1 0.6l0.1 1.5l0.3 1.4l-0.7 -1.7l-0.2 -1.5l0.1 -1.3l-1.2 -0.7l-2.2 0.4l-1.3 1.4l-1.4 -0.8l-1.8 0.1l-1.2 -0.7l-1.6 0.2l-1.1 -0.7l-0.6 -1l-0.9 -1.3l-0.6 -1.4l-0.2 -1.2l-1.1 -0.6l-2.3 -0.8l-1.5 -2l-1.5 -1.6l-1.2 0.7l-1.4 -0.5l-2 0l0.1 1.2l-0.2 1.5l-1.4 -0.2l-0.7 1.4l0.4 1.1l0.3 2.8l-1.7 1.1l-1.2 -0.4l-1.1 -0.4l-1.3 0.1l-1.6 -0.4l-1.1 -0.3l-1 -0.5l-1 -0.1l-1.8 0.6l-0.6 2l0.9 1.1l-0.1 1.3l-1 -0.6l-0.8 1.2l0.4 1.3l-0.5 1.9z"/><path data-zip="00602" d="m261.4 54.4l0.2 1.5l1.3 0.5l-0.2 1l1.5 1l1.3 0.6l1.1 3.1l0.5 1.6l-1.1 0.4l0.3 1l1.2 -0.2l0.8 1.3l0 1.3l1.1 0.1l1.2 0.5l1.1 1.7l1.9 0.3l0.9 1.1l1.3 0.5l1.5 0.5l-0.3 1.9l1 0.6l1.6 0.5l0.1 1.3l0.7 1.5l0.8 1.1l1.1 -0.5l1.3 -0.5l1.2 -0.5l1.2 -0.6l1.7 0.5l1.2 0.5l1.3 -0.3l1.5 -1.4l1.6 -0.4l1.4 -0.8l1.1 -0.1l1.6 0.4l1 1.4l1.4 0.2l0.2 -1.7l1.4 0.6l-0.1 -1.8l-1.4 -2.1l0.8 -1.1l-0.8 -1.1l0.2 -1.2l-0.1 -3.2l1 -0.6l0.3 -1.1l1.1 -1l0 -1.5l-0.1 -1.4l0.7 -3.6l-1.5 -0.8l0.4 -1.8l-0.3 -1.4l-0.7 -2.6l-1 0.6l-1.4 -0.3l-1.1 -1.1l-1 -0.8l-1 -0.3l-1.4 -0.1l-1.2 -1l-1 0.4l0.7 -1.2l-0.5 -1.9l-0.5 -1.2l-0.8 -1.2l1 -1.7l-1.1 0.9l-1 0l0.6 -1l0.1 -1.2l-1.3 1.1l-5.2 2.6l-4.1 2.1l-2.1 3.2l-1.4 0.5l-2 0.8l-2.3 1l-2.7 1.6l-3.3 1.3l-4.3 0.9z"/><path data-zip="00603" d="m287.2 15.8l0.2 2.5l0.2 2l2.6 3.4l0.6 2.7l1.2 3l0.2 2.5l0.1 1.8l0.2 1.9l-0.7 2.6l-1.1 0.9l-0.1 1.2l-0.6 1l1 0l1.1 -0.9l-0.4 1.2l0.2 1.7l0.5 1.2l0.3 1l-0.4 1.4l1.9 0.8l1.3 0l1.3 0.4l1.2 0.4l0.2 1.4l1.8 1l1.3 -1.3l1.8 -2.7l1.3 -2.7l-0.2 -1.8l1.7 -2.9l3 -3.2l4.8 -5.3l1.3 0.2l2.3 -1.1l1.3 -1.3l2 -1l1.2 -0.3l0.4 -2.2l0.6 -1.9l6.5 -1.6l0 -3.1l-1 -1.9l0 -1.3l0.2 -1.1l-1 -0.3l-0.6 -1.4l-1.4 0.2l-1 -0.9l-1.5 -0.7l-1.3 -0.4l-2 -0.2l-1.3 0.2l-2 3.4l-0.2 1.5l-0.7 1.2l0.1 -1.4l-0.3 -1l-1.2 -1.7l-1 -0.6l-0.2 1l-0.1 1.5l-1.1 0.4l-1.2 -1.3l-1.5 -1.3l1.2 -0.4l0.2 -1.6l0.6 -3.1l-0.1 -1.6l-1.5 -0.5l-0.6 -1.3l-0.5 -1l-0.2 -1.9l-2.8 0l-1 0.3l-2 0.6l-1.1 0.8l-2.2 0.4l-3.2 2.3l-1.3 1.4l-0.9 1.2l-0.5 1.3l-1 0.6l-1.9 0.5l-1 0.7l-0.7 1l-0.4 1.4l-0.7 1.4z"/><path data-zip="00606" d="m331 131.9l-0.1 1.3l1.2 0.8l1.1 0.6l1 0.3l2 0.4l2.6 0.4l1.2 0.3l1 0.4l1 -0.2l1.3 0.3l1 -0.4l1.1 1.4l1 0.6l1 0.7l1.6 0.8l1.1 -0.1l1.2 0.4l1.4 2.2l1.2 0.8l1.4 -0.3l1.6 1.1l1.3 1l2.3 0.9l1.2 -1l1.2 -0.7l0.6 -1l1.3 0.9l0.8 1.8l1.1 1.9l0.1 1.3l1 0.8l0.6 1.2l3.5 -0.1l1 0.7l0.7 -1.3l1.2 -0.9l2.1 -1.7l1.3 -1.2l0.3 -1.1l-0.6 -1.4l-0.3 -2.1l2 -0.6l2.2 -0.6l1.2 1l1 0.8l1.6 0.5l1.3 2.3l-0.7 1l-1 1.2l-0.5 1.2l1 -0.2l0.1 1.6l2 0.5l1.1 -0.8l0.8 -1.6l1.1 1.7l0.2 1l0.3 2.7l0.8 1.5l3.1 0.5l0.3 1.1l0.8 -1l1.1 -0.2l0.2 -2.6l-0.4 -1.5l-1.4 -2l-1 -0.5l0.6 -1.1l1.1 -1.2l-1.8 -0.5l-1.2 -1.8l-0.6 -1.3l0.1 -1.5l0.8 1l1.6 0.8l0.8 1.4l1.4 0.6l1 0.7l1.6 0.5l2.6 0.4l1.1 -2.2l2 -7.5l1.9 0.4l1.4 -0.9l1.2 -1.3l-2.2 -1.3l-1.2 0l-1.4 0.4l-1 -0.3l-1.1 -0.4l-2.3 -0.6l1 -0.6l-0.8 -1l0 -1.3l0 -1.1l-1.1 -0.5l-3.4 -0.5l-7.4 -0.1l-1.2 -0.2l-7.2 -2l-10.5 -2.6l-1.8 -0.9l-2.3 0.5l-0.4 -1.5l-1.4 -0.6l-1.5 -0.1l-1.6 0.5l-1.3 -0.1l-1.4 -1.1l-3.4 1l-1.7 1.9l-1.1 0.4l-1.6 0.6l-1.5 0.5l-6.3 0.1l0.8 2.2l-0.7 1.1l-1.3 0.3l-1.6 0.1l-1.4 0.3l-1.3 -0.2l0.2 1.1l-1 0.6l-1.9 0.2l0.2 1.1l-1.6 0.5l-1.3 -0.5z"/><path data-zip="00610" d="m267 84.3l-0.5 1l3 0.5l3.5 0.8l2.4 0.4l2.1 1.1l1.5 2.1l0.6 1.2l0.4 2.5l0 1l0 2.2l2.2 -0.1l3.5 -0.4l1.4 -0.3l2 -0.7l1.2 -0.9l2.1 -0.2l1 0.5l0 1.2l1.2 0.1l-0.1 -1.9l1.4 -0.6l3.6 -0.5l2.7 -0.1l1 1l-0.3 1.2l-0.4 1.4l-1.5 0.5l-1.2 1.2l0.4 1.2l1.8 1.4l1.5 0.1l1 -0.2l1.7 0.1l1.9 0l1.6 1.4l1.3 0l1.5 0.5l1.1 -0.6l1 0.1l0.8 1.1l1.1 0l1.7 0.2l1.4 -1.6l1.6 -2.2l1.6 1.7l2.6 -1.7l0.9 -1l1.1 -3.3l-1 -0.9l-2 0.3l-1.4 0.8l-1.1 -0.1l-0.5 -1l0.1 -1.4l1 -0.8l1.3 1.1l1.4 -0.1l-0.6 -1l-0.3 -1.1l1.5 -1l1.6 2l2 1.2l0.6 -1.7l0.4 -1.2l0 -1l1.4 -0.4l-0.3 1.5l0.6 1.1l0.6 1.3l2 1l0.2 1l0.5 -2.2l0.4 -1.2l0.1 -2.3l0.4 -1.6l-0.5 -1.2l-0.4 -2.5l-4.5 -2.9l-1 -0.1l-1.3 -0.6l-1.6 -1.2l-2.9 -0.4l-2.5 -0.1l-8.1 -2.6l-1.1 0.5l-1.9 -0.5l-1.7 -0.2l-1 -0.9l-2.3 -0.3l-1 1l-1 -0.1l-0.1 1.1l-1.2 0.4l-0.1 -1l-1.4 -0.6l-0.2 1.7l-1.3 0l-0.9 -1.1l-1.1 -0.9l-1.2 0.3l-1.4 0.8l-2.2 0.2l-1.4 0.8l-1.4 0.9l-1 -0.1l-1.1 0l-1.2 -0.8l-2 1l-1.3 0.5l0.2 1.2l-2 0.1l-1.3 0.6l-1.1 0.6l-1.5 -0.3l-1.6 -0.6l-1.3 0.9l-2 0.8l-1 -0.2l-1.2 0.4l-1.3 -0.1l-1.2 2.4z"/><g data-zip="00612"><path d="m467.8 26.7l1.3 0.1l-0.1 1l1.8 0.7l1 0.8l0.1 1l3.6 0.1l1.3 -0.3l1 -0.4l1 -0.2l1.7 0l0.2 1.5l3.4 -0.2l2.2 0.2l1.9 -0.3l-0.2 -1l0.1 -1.3l3 -0.9l-1.3 -0.4l-0.8 -1.9l0.6 -1.9l-1 -0.1l0.5 -1.7l-1.2 -0.5l-1.2 -0.2l-2.5 0.6l-1.3 1.3l-1.7 -0.8l-1 -5.55112e-17l-1.6 0.3l-1.3 0l-1.9 0.6l-2.5 -0.6l-1.9 0.3l-1.5 0.3l0.3 1.6l-1 0.2l-0.5 1.4z"/><path d="m461.1 13.2l1.1 0.4l-0.9 1.2l2.7 0l2.1 0.4l1 0.6l4.4 3.1l2 0.9l1 0.1l1.2 1l2 0.4l3.1 -1.5l0 -1.6l0.8 -1l-0.2 -1.8l1.4 -0.5l1.6 0l2.2 0.4l1 0l2.4 -1.4l1.1 -0.4l1.3 -0.1l1.3 0.6l2.4 0.5l4 0l1.2 0.9l0.7 1l2.7 0.1l1 -1.4l0.3 -2.5l-1.9 -0.1l-1.4 -0.1l-1.4 -0.6l-2.9 -1.2l-2.2 -0.5l-2.1 -0.5l-3.3 -0.5l-2.7 -0.3l-2.5 0.1l-2.9 0.3l-1.5 1.4l-1.2 0l-2.1 0l-2.6 0.2l-2.8 0.2l-2 -0.8l-1.9 1.8l-1 0.6l-1.4 0.9l-2.2 0l-2 -0.6l-1 0.3z"/><path d="m457.2 16.7l0.1 1.1l0.3 1.1l1.6 2.1l0.2 1.6l0.9 1.5l1.3 -0.7l2.2 0.2l-1.1 -4.9l-2.1 -1.3l1.6 -1.9l-1.2 -0.8l-0.7 1l-1.5 1l-1.5 -0.1z"/><path d="m434.9 30.8l0.2 1.1l0.8 2.6l0 2.1l0.1 2.4l-0.8 3.1l0.3 2.4l0.8 3.7l-0.7 7.5l-0.1 5.7l0.1 1.1l-0.3 11.8l0.9 -1.3l0.8 -1.4l1.2 -0.1l1.2 -1l1.6 -1l3.1 -1.8l1.9 -0.9l1.2 -1.6l1.4 0.2l1 -0.3l3.2 3.6l1.1 1l-0.9 1.1l0.2 1.5l0.3 1l-0.1 1.4l0.8 1.7l0.7 1.5l2.5 0.1l1.5 -0.6l1.4 -1.4l1.7 -0.1l1 -0.5l1.6 0.3l1 0.5l1.2 -0.4l1.3 -0.4l1.6 0l2.1 -0.9l1.7 0.8l1 0.1l2.8 -0.2l1.3 -2.1l-0.7 -1.9l-0.6 -4.2l-0.7 -3.1l-0.2 -1.9l-1.9 0.1l-1.9 -0.2l0.5 -1.4l0 -1l-2.9 -0.4l-0.9 -1.9l1.1 -1.7l0.6 -1.6l0.1 -2.4l-1.5 -2.7l-1.2 -0.9l-1.3 -0.3l-1.3 0.2l-1.1 -1l-0.3 -2l0.9 -2.1l0.4 -1.8l0.6 -1.1l0.9 -2.2l-0.8 -1l-1.1 0.1l-0.5 -1.8l-1.3 0.9l-1.2 1.2l-1 -0.2l-1.2 -2.1l0.6 -1.3l0.4 -1l1.2 -0.3l-0.9 -1.2l-0.9 -1.2l-0.6 1.2l0.1 1.6l-0.8 1.9l-1.2 -0.1l-1 -2.8l-3 -0.1l3.5 -0.4l0.4 -1.3l0.8 1.7l-0.3 -1.7l0.6 -1l-0.5 -1.3l-0.4 -1.2l-1 0l-1.5 0.4l-0.8 -2.5l1 0.9l-0.1 -1.9l1.5 -0.7l-1.4 -1.3l0.2 -1.3l0.2 -1.7l1.1 -1.2l-3.7 -1.6l-2.4 0.7l-2 0.1l-1.1 0l-3.7 -0.8l-2.8 -1.1l-2.7 -1.1l-2.1 1.8l-0.2 1.7l-0.2 1.6l0.4 1.3l0 1.6l0.3 2.1l-0.4 4.7l-0.9 2.8z"/></g><path data-zip="00616" d="m459.4 33.9l1.2 2.7l1 0.3l1.1 -0.3l1.2 -1.5l0.5 1.3l1.7 0.2l0.8 1l0 1.3l-1.5 2l-0.4 1.8l-0.9 2.1l0.3 2l1.1 1l1.3 -0.2l1.3 0.3l1.2 0.9l0.9 2l0.2 -1l-0.4 -1.4l1.1 1.2l1 5.1l1.2 0.7l0.4 -2.5l1.5 -1.4l-0.4 -1.1l0.1 -1.1l1.1 0.2l0.7 -1.2l-2.1 -3.5l2.5 -1.3l1.8 -0.7l2.7 0.7l2 0.1l0.3 -1.7l-0.6 -2.2l-1.8 0.3l-1 -0.7l0.5 -1.3l0.1 -1.5l2.7 -0.1l0.1 -2.4l1 -0.5l2 0.3l0.1 -1.1l0.5 -2l-1.3 -0.4l-1.4 -0.2l-3.4 0.5l-1.2 -1l-1.5 -0.8l-1 0.2l-1 0.4l-1.3 0.3l-3.6 -0.1l-0.1 -1l-1 -0.8l-1.7 0.2l0 -1.9l-1.6 -0.1l-0.8 2.3l0 1l-2 -0.3l-1.6 -0.7l0.4 -1.7l-1.6 0.1l0.4 1.2l-1.7 0.2l0.4 1.3l0.8 1.2l-0.7 1l-0.9 1.2z"/><path data-zip="00617" d="m500.5 45.4l1.3 2.3l-0.1 1.4l2.7 0.1l0 -2.1l0.6 -1.5l1 -0.9l-0.3 -1l0.8 -2l1.5 -0.7l0.3 -1.2l2 -0.7l0.2 1l1 0.7l1.2 -0.3l2.9 0.1l0.7 2l1.3 0.6l1.5 -0.2l-0.2 -1.2l0.2 -2l0.4 -1.1l-0.5 -1l3.2 -1.2l1.8 -1l1.1 -0.7l0.3 -1l1.2 -0.8l-1.4 -0.6l-0.1 -1.7l-0.1 -1.4l-1.5 0.4l0.3 1.9l-1.6 0l-0.4 -2.1l1.4 -1.3l-1.5 -0.6l-1.3 0.4l1.3 -1.6l1.5 -0.4l2.3 -1.8l-1.4 -1.2l-1 0.2l-1.2 1l-0.3 -1.5l1.3 -0.9l1 -2.1l0.2 -1.9l-0.4 -1.5l-1.2 -1.8l0.3 -1.6l-2.7 -0.4l-3.3 -1.6l-1.6 -0.3l-1.3 -0.2l-1.4 -0.4l-2.5 1.4l-1.2 0.3l-2.3 0.5l-3.4 -0.2l1.3 0.6l1.3 -0.2l0.3 2.8l-1 1.4l2 0l0.1 -2l1.6 0.3l2.5 -0.3l2.6 -0.5l2.1 -0.7l1.3 0.8l0.7 1.4l-1.8 -1.4l0.6 2.2l1.2 1.6l1.3 -0.2l0.9 1.4l0 1.5l-2.2 -0.2l-0.2 1.4l-0.2 1.1l-3.7 -0.9l-1.1 -0.8l-5 -1.1l-1.3 0.4l-1.1 -0.1l-0.8 8.5l-1.9 0.2l0 1.4l1.3 -0.4l0.1 2.7l-0.5 4l-0.5 3.1l-0.3 1.1l-1.3 0.2l-0.9 4.4z"/><path data-zip="00622" d="m270.3 206.4l0 1l0.5 1.2l0.4 1.6l0 1l1 0l2.7 -0.8l0.2 1.2l0.8 1.1l0 1.6l-0.2 2.2l-0.7 1.3l1 0.1l-0.3 1.3l1.4 0.6l1.3 1.9l-0.4 -1.3l-1.4 -1.4l-0.8 -1.7l1.1 -1l0.6 -1.5l1.7 -0.9l1.6 -0.5l2.1 -0.4l2 -1l1.4 0.9l2 2l1.5 0.3l0.7 1.2l1.3 1.6l1.5 -0.1l1.2 0.5l2.9 0.4l1.2 0.5l1.6 0.3l1.5 1.2l1.6 0.4l1.1 0.2l1.6 -0.2l1.6 0.1l1.5 0.8l0.3 -1.4l0.7 -1.2l0.1 -1l0.4 -1l-0.3 -2.6l0.5 -1.6l0.7 -1l0.6 -1.8l-1.2 -0.7l-1.4 -0.4l-0.1 -1.4l0 -6.1l0 -5l-0.6 -1l0.4 -1.3l-0.2 -1l-0.4 -1.1l-0.6 -1.1l0.1 -1.3l-1.5 -0.6l-1.4 -0.1l-1.3 0.2l-3.4 0.1l-2.2 0.3l0.9 1.1l0.8 1.4l-1 0.3l-0.3 -1l-1.1 0.3l0.8 -1.2l-1 -0.1l0.6 -1.7l-1.7 0.3l-1.1 0.1l-3.6 0.4l0.3 -1.1l-0.5 -1l-2 -1l-0.7 -1.7l-2.8 -0.9l-1.2 2.5l0.2 -1.6l-1.1 -0.4l-1.4 1.2l-0.3 -1.5l-0.7 -1l-0.6 1.1l-1 0.5l-0.5 1.4l-1.6 0.7l1.4 1.2l1.4 0.4l1.8 1.1l1.1 0.3l1.1 -0.1l0.9 1.2l0.6 1l-0.3 2.2l-0.7 1.8l-1.4 0.8l-1.6 0.1l-2.5 1.3l-3.4 1.2l-3.3 1.4l-1.4 2.1l-0.8 2z"/><g data-zip="00623"><path d="m291.7 190.2z"/><path d="m272.1 187.1l1.2 -0.2l1.3 -0.2l0.7 1l1.2 0.3l1.1 0.3l1.7 0.6l1 0.3l1.3 -0.5l-2.3 -0.4l-1 -0.6l0.4 -1.1l1.3 -1.6l1 -0.5l0.6 -1.1l0.7 1l-0.5 1.4l1.3 -1l2 0.3l-0.2 1.6l0.7 -2l2.4 0.2l1.6 1.9l1.5 0.2l1 1.8l-0.3 1.1l3.6 -0.4l1 0.3l1.4 -0.8l0.5 1l-1.1 1.3l1.7 0.5l0.3 1l1 -0.3l-0.8 -1.4l-0.9 -1.1l1.3 -0.3l3.4 -0.1l2.2 -0.2l1.4 0.1l1.3 -0.1l-0.6 -1.2l0.8 -2.2l0.3 -1.4l-0.4 -1.5l0.3 -1l0.8 -1.3l0.4 -1l0.4 -1.8l0.5 -1.4l1.4 -1.6l1.5 -0.6l0.2 -1.3l-1 -1.4l-1.6 0.1l-0.2 -2.3l0.2 -1.6l0.2 -1.4l0.8 -1.7l-0.3 -1.1l-1.2 0.7l-3.5 -0.5l-1.7 -0.7l-2.5 -0.8l-0.2 -1.6l1.7 -1.8l1.6 -2l-1.3 -0.7l-1.2 -0.6l-0.6 -1.2l-1.3 -1.1l-1.5 -1.4l-0.2 -1.4l1 -0.8l-0.7 -1l-1.5 -0.3l-0.9 -1.5l-1.3 -0.8l-1.2 -0.6l-0.6 -1.1l-1.4 -0.7l0.2 -1.5l-1 -0.9l-1.2 -0.7l-1.7 -0.7l-0.7 -1.3l-1.9 -0.4l-0.6 -1.2l-1.8 -1.2l-0.8 -1l-1 -0.1l-1 1.8l1.3 1.4l1.4 0.8l0.4 1.6l0.2 1.5l-0.5 2.5l-1.6 2.2l-1.2 0.6l-0.1 2.3l0.9 1.4l0.1 1.2l-0.4 1.8l0.8 2.3l-0.1 1.5l-0.6 2.4l-1.5 1.1l-2.4 1.3l-0.3 1.2l-1.2 0.9l1.3 1.3l-1.2 1.1l-0.4 2.3l0.1 1l0.9 1.4l1.1 0.1l0.1 -1.2l-1.1 -0.4l2.2 0.7l1.4 0.7l0.8 1l0 1.6l-1.5 1.1l-2.3 -0.1l-1.1 0.5l-1.1 1.5l-0.6 1.5l0.2 1l0.5 1l-0.2 2.1l-1.8 1.9l-1.7 2.1z"/></g><path data-zip="00624" d="m435.2 167.3l1.1 1.2l0.2 1.1l0.1 1l-0.2 1.2l-0.8 1l0.1 1.9l0.4 1.5l-0.8 1.7l0.3 1.3l0.8 1.4l-0.5 1.3l0 1.3l0.6 2.3l1.1 -1.7l0.1 -1l1.5 -2.2l1.1 -1.4l0.3 1l0.3 1.4l2.7 2l1.1 -0.4l1.2 0.4l0.6 -1l0.2 1l-0.1 1.4l-0.1 1.2l-0.5 1.1l-0.7 1.6l1.6 2.5l1.1 1.6l0.5 1.2l-0.7 1.3l-1 0.3l-1.6 0l2.1 0.3l1 0l1.2 -0.1l0.3 1.1l1.7 0.7l1.1 0.2l0.7 1.4l1.1 0.7l-1.6 1l-1 -0.2l-0.6 1.1l-0.6 2.3l2.7 0.6l1.2 0.5l1.3 0.6l2 1.4l2.6 2.2l1 -1.4l1 -0.3l1.3 -1.1l1.1 -1.3l0.8 -1.2l-0.9 -1l0.5 -1.7l-0.8 -2.1l0.8 -2.3l-0.1 -1.5l0.6 -1l-0.1 -1.4l3.7 0l0.3 -1.9l-0.7 -1.9l0.1 -2.1l2 -2.7l-0.3 -1.5l-2.2 -0.9l-1.7 -1.3l-1.3 -1.6l0.5 -1.5l0.3 -1.8l0.7 -1.1l0.9 -1.7l-0.2 -1.6l0.2 -1l0.3 -1.4l0.4 -1.4l0.1 -1.6l-0.4 -2.3l0.1 -1.3l0 -2.6l-0.9 -1.1l-1.1 -1.8l-0.1 -1.1l0.1 -1.5l-1.5 -1.6l-1.3 -1.1l-0.7 -1.9l-1.3 -0.1l-1 -0.1l-1.6 0.4l-1.5 0.2l-1.3 -0.2l-0.4 -1l-1.1 0.2l-0.4 1.2l-1.3 1.1l-1.3 1.4l-0.3 1l-0.3 1.6l-1.8 1.2l-1.7 -1.2l-1.2 -0.9l-1.4 0.3l-1 0.2l-1.3 0.9l-1.2 -1.3l-1.3 -2.3l-0.9 -1.8l-1.5 -1.7l-1.2 -1.2l-1 -0.1l0 1.5l0.1 1.3l1.4 2l0.3 1.2l0.1 1.1l0.8 1.1l-0.4 1.3l-0.8 1.3l-0.1 2.2l-1 2.7l-0.1 1l-0.7 2z"/><path data-zip="00627" d="m386.5 12.3l0.3 15.3l-0.1 4l-0.1 4.3l0 2l0 1.2l0.3 4.2l0.4 3l-0.6 4.7l0.1 1.2l0.2 1.7l0.4 4.3l1.6 0.2l1.1 -0.7l1.5 0.4l1.5 0.8l0.9 1.7l1.4 1.4l1.3 0l3.8 0.3l3 0.3l1.2 0.6l1.2 0.1l0.8 1l1.5 0.4l1.7 0.6l2.4 1.2l1 0.5l1.7 0.5l0.9 -1.8l0.5 -1l0.5 -1.5l-0.8 -1.2l0.4 -1.6l1.6 -1.3l0.3 -1.5l0.3 -1.1l-0.1 -2.1l0.5 -1.8l0.2 -1.4l0.7 -1.1l-0.8 -1l-1.4 -1.2l-0.4 -1.5l0.3 -1.6l-0.1 -1.5l-1.5 -0.6l-0.9 -2.7l1 -0.7l-1.2 -1.5l0.1 -1.5l-0.4 -1.3l-0.4 -1l0.1 -1.4l-1 -1.5l1.2 -1l-0.1 -2.4l0.5 -1.1l-0.7 -1.2l0.4 -1.8l-0.2 -1.2l-1.1 -0.1l-0.9 -1l-0.5 -1.1l1 -1.6l-0.1 -1l0.5 -1.2l-1.2 0.2l-1.1 -0.5l-0.2 -1.7l-0.8 -1.7l0.7 -1.5l-1 -0.7l-2.1 -0.5l-2.5 -0.6l-2.7 0l-3.4 -0.2l-1.9 0.8l-2.4 0l-3.3 0.7l-3.2 1.1l-1.8 0.3z"/><path data-zip="00637" d="m355.5 160.7l0.7 3.3l-0.1 2.6l0.6 1.9l0.5 1.8l-0.4 8.7l-0.5 1.5l0.3 1.8l0.1 2l5.6 1.7l1.1 0.5l1.4 0.2l0.4 1.7l1.5 -0.2l3 -0.2l2.1 0.7l1.3 0.7l1.3 -0.3l1.1 0l2.2 0.8l1 0.5l1.1 -0.1l2.3 0.6l1 0.8l1.6 -0.4l2.2 -0.6l1.2 0.8l1.3 -0.6l1.4 0.8l1.9 -0.5l-0.9 -2.1l-0.2 -1.5l-1.1 -0.9l-1 -0.6l-1.2 -1l-0.6 -1.1l-0.7 -1.9l-0.4 -1.2l0.1 -1.2l-1.2 -2.4l-1.2 -1.7l-0.7 -1.3l0.1 -1l-1.3 -1.8l-0.2 -2.1l-0.4 -1.8l-1.7 -1.8l0 -1.9l1 -0.5l0.1 -1.4l-0.6 -1l-1 -0.3l4.4 -0.7l1.7 -1.2l0.5 -1l-0.4 -1.1l-1.4 0.6l-0.9 -1.7l-0.6 -1.5l-0.3 -2.2l-1 -0.5l0.1 -1.1l-0.4 -1.2l-1.1 -0.7l-0.4 -1.6l-1.3 -1.3l-0.3 1.1l-1 0.6l-1.8 2.1l-1 0.7l-1.1 0.9l-0.9 1l-3.4 -0.1l-1.2 -1.9l-1 -0.8l-0.1 -1.3l-1.1 -1.9l-0.1 -1l-2 -1.7l-0.6 1l-1.2 0.7l-1.2 1l-1.4 -0.7l1.4 1.8l0.3 1l0.2 1.7l-0.1 1.7l-2.3 1.2l-0.8 1.3l-0.3 1.1l0 1l-0.6 1.2l-0.6 1.6l-0.1 1.2z"/><path data-zip="00638" d="m499.1 71.5l0.4 1.4l2 0.4l2.4 1.6l0.3 1.7l0.1 1.4l1.9 0.9l0.9 1.2l1.1 1.3l0.3 1.4l0.9 1.1l0.9 1.1l0.9 1.5l1.2 0.7l-0.2 1.2l0.2 2.2l2.2 0.8l-1 2.1l0 2l0.7 1.1l-1.2 -0.3l0.6 1l0.1 1.5l-1 0.3l0.2 1.1l1.4 1.7l-1.7 0.7l-0.6 1.1l0.3 1l-0.6 1.1l0.1 1.7l2.6 1.2l2.3 6.5l1.2 -0.1l1.6 2.5l1.2 0.5l0.3 1.2l0.3 1.5l0.7 1l0.7 1.2l0 1l-1.2 2.1l-0.3 1.5l1.1 1.4l1 2l-0.5 1.3l-1.5 -0.1l-0.5 1.4l-0.8 1.4l-0.6 1.4l-0.6 1.4l1.7 1.2l1.7 0.4l0.7 1.3l1 -0.5l0.9 -1.4l1.4 -0.4l1 -0.8l0.7 -1.1l1.4 0.1l0.6 -1.1l0.4 -1.6l0.1 -1.8l-0.7 -2.2l-0.6 -1.2l0.1 -2.2l0.8 -1.9l0 -1.4l-0.2 -1l-0.5 -1.3l0.6 -1.2l-0.8 -1.4l-0.2 -1l-0.4 -1.3l0 -1l-0.5 -1.5l0.3 -1l2 -0.7l1.3 -0.7l0.4 -1.7l-1.1 -0.9l-0.8 -1.3l1 -1.6l0.5 -1.1l2 -0.5l0.6 -1.8l1.2 0.3l1.1 0.7l1.3 -0.1l2.2 0.1l1.2 0.2l1.3 0.6l1.1 0.3l1.3 1.2l2.1 0.5l1.1 -0.7l1.1 -0.5l1.2 -0.1l1.2 -0.7l0.1 -1.8l-1.6 -1l0.3 -1.2l-1 -1.3l0.1 -1.1l-0.9 -1.7l-0.2 -1.2l0.8 -1.2l-0.5 -1.4l-1 -0.2l1 -1.7l1.3 -1.4l-0.3 -1.3l0 -1.3l-0.6 -1.3l1.2 -1l0.4 1.3l0.3 -1.7l0.4 -1l0.2 -2.4l0.1 -4.8l0 -2.8l-2.1 -4.2l-1.1 -1.3l-0.7 -1.9l0.3 -3.3l0.2 -4.5l-1.4 -0.1l-2.3 1.7l-2.1 -2.4l-0.8 -1l-1.3 -1.1l-2 -0.1l1.1 0.7l0.2 2.4l1 1.9l-2.6 0.2l-1.2 -0.3l-1 0.1l-1.5 0.4l-2.2 0.5l-1.9 0.6l-1 0.7l-1.6 1.3l-2.1 0.9l-1.3 0.6l-0.6 1l-1.6 -0.4l-0.9 1l-1.3 1.7l-2 0.4l-2.5 0.9l-1.8 -2.77556e-17l-1.6 0.2l-1.6 -0.1l-1.7 0l-1.5 -0.7l-1.2 0.4l-1.2 0.5l-1.1 0.4l-1 0.7l-1.4 -0.4l-1.4 0.3l-0.5 1.4z"/><path data-zip="00641" d="m413 89.8l0 1.7l-0.3 1.2l1.2 0l0.2 1.8l-0.7 1.6l1.3 0.9l-0.3 1l-0.5 1.7l0.5 1.2l0.2 1.4l-0.4 1.2l0 1.1l-0.1 1.4l1.1 0.3l0.3 1l1.1 1.5l1 0.6l0.1 2l1 0l1.4 0.6l1.1 0.2l1.7 0.3l1.1 -0.2l0.1 -3.1l0.3 -1.7l0.2 -1.4l1 0.4l0.2 -1.3l0.3 -1.6l2 0l1.4 0.5l1.2 -0.7l1.6 1.2l0.6 1.7l2.4 0.6l1.8 1.5l0.2 1.2l1 1.2l0.5 1.5l0.6 1l1.1 0.7l1.6 -0.2l1.2 0.7l1.8 -0.1l1.4 0.8l1.3 -1.4l1.4 -0.6l2 0.9l-0.1 1.3l0.2 1.2l0.6 1.5l-0.3 -1.9l0.6 -1l1.9 0.1l1.2 -0.2l1.7 1l1.3 0.6l2.5 -0.2l1.2 0.6l1 -0.1l1.3 1.6l1.7 0.7l1.4 1.3l0.9 1l0 1.4l-1.4 1.4l0.1 1.2l1 1.6l0.2 1.2l1 0.6l2 1.3l1.9 2.3l1.1 0.2l0 1.1l-0.9 1l1.5 -0.3l0.3 1.1l-0.4 1.3l1 1.3l0.3 1.5l1.1 0.4l1.3 -1l1.4 0.1l0 -1.6l-0.8 -1.3l0 -1.3l-1.1 0l1 -1.5l-0.1 -3.5l1.7 -0.5l1.6 0.4l0.7 -1.3l-0.4 -1.4l0.2 -1.2l-0.3 -1.3l1.2 -1.5l0.5 -1.1l-0.5 -1.5l1.1 -0.2l1 -1.3l1.4 -1.4l0.3 -2.3l0.4 -1.7l0.6 -2l-1.2 -1.8l1.3 0.4l0.6 -5.1l1 -0.8l1 -0.3l1.5 1.1l0.6 -1.1l-1 -0.3l-0.1 -1l1 -1l1 -0.4l0.7 -1.7l1.4 -0.7l0 1.7l1.7 0.6l0.9 -1l0.5 -1.1l-1.3 -1.2l0.9 -1.5l1 -0.8l-0.2 -1.4l0.3 -1.6l0.1 -1.1l-1 -0.2l-1 -1.3l-0.3 -1l-1 0.1l-1.6 0.5l-1 -0.8l-1.9 -0.8l-1.2 1l-1 0.5l-1.7 0.7l-0.3 -2.3l-0.4 -1l-1.1 2.3l-1 -0.1l-0.6 1.6l-1 0.8l-1.6 0.9l0.4 -1l0.5 -1.7l0.5 -1.6l1.5 -1.4l-1.9 -0.5l-2.1 -2.1l-0.4 -1.6l-0.5 -1.3l-1.6 -2.5l-1.5 0.4l0.2 1.1l-0.6 1.8l-1.2 1.4l-0.4 -1.2l0 -1.8l-0.2 -2.4l0.1 -1.3l-1.6 -0.9l-1.7 -0.8l-1.2 0.3l-1.8 0.8l-1.1 0.3l-1.8 0.3l-1.3 -0.5l-1.6 -0.3l-1 0.5l-1.7 0.1l-1.4 1.4l-1.5 0.6l-2 0.1l-1.2 -1.7l-0.3 -1.4l-0.4 -1.7l-0.3 -1l-1.3 -0.4l-0.6 2l-1.3 0.6l-3.3 1.1l-2.9 0.8l-1.9 0.3l-5.7 1.7l-3.5 0.2l-1.8 0.2l-1 -0.4l-0.7 -1l-1.1 0.2l-1.4 -1.2l-12.2 -1.5l0.8 2l-1.5 1.4l0.2 1l0.9 1.3l-0.2 1.4l-0.6 1.2l0.2 1.5l-0.3 1.1l-2.77556e-17 1l-1.3 1.9z"/><path data-zip="00646" d="m602.7 25.2l1.6 4.1l1.7 2.7l2.4 0l0.1 2.4l0.6 1.5l0.1 1.2l-0.7 1.4l-0.6 1.5l-0.2 8.9l0.1 1.3l0 1.1l1.2 -0.1l1.3 0.1l1.2 0l1.7 -0.4l1.1 0.9l1.5 0l1.9 -1l1 0.5l1.3 0.2l1.1 -1.1l1.1 -0.1l1.7 -0.2l1.1 -1.2l1.1 -0.8l-0.7 -1.4l-0.6 -3.4l-0.3 -1.1l-0.5 -1.3l1.3 -0.5l-0.6 -1.6l-1.1 -0.3l-0.6 1l-0.6 -1.9l0.5 -1l1.1 -1.1l-1.1 0.1l-0.7 -1l1 -1.4l1.4 -0.2l-0.1 -1.1l0.2 -1.5l0.8 -1.1l-1.4 -0.8l0.7 -1.5l-0.7 -1.8l0.3 -1.5l1.1 0.3l0.9 -5.8l-1.1 -0.6l0 -1.7l-1.8 -0.8l-3.3 -1.1l-2.5 0.5l-1.4 1.1l-2.4 1.2l-1.6 0l-1.5 -0.9l-1.5 -1.1l-2.7 0.2l-2 -0.4l-1.1 0.3l-1 10z"/><path data-zip="00647" d="m356.1 214.5l0.2 1.3l0.9 1l1 0.5l-1.2 2.5l1.2 0.6l1.9 0.4l1.8 0.9l2 1.9l1.3 1.1l1.1 1.6l-0.1 1.5l2.7 -0.4l1.1 -0.4l2.5 0.4l1.6 0.4l2.4 1.6l1.7 0.3l1.1 -1.1l1.1 -1l-1.8 -1.2l-1.7 -0.5l-1.3 -0.4l-0.4 -1l0.6 -1.3l1.3 -0.4l1.8 -0.2l1.6 -0.4l2.1 -0.5l1.1 -0.9l0.4 -1.5l-0.9 -2.9l-2 -0.6l-2 -0.7l-0.4 -1l0.2 -1.6l2.3 -0.5l0.5 -1l-0.9 -1.2l-0.6 -1.1l1.8 -0.6l0.9 -1.1l-1.1 -1.3l-1.4 -0.9l-1.4 -1l-12 -4.9l-1.2 -0.4l-1 -0.1l-0.3 3.6l-0.3 2.5l-4.3 9.2l-2.9 -0.1l-0.8 1.1z"/><path data-zip="00650" d="m474.6 82.7l-0.2 1l1.2 0.2l0.9 -2.1l0.6 -1.1l0.4 -1.1l0.2 -1.6l2 2.2l0.3 1.5l0.8 1.4l1.4 2.1l2.4 0.9l-0.3 1.3l-1.4 2.1l-0.5 1.7l-0.4 1l1.6 -0.9l1 -0.8l0.6 -1.6l1 0.1l0.8 -1.8l-0.2 -1l0.9 1.5l0.3 2.3l1.7 -0.7l1.4 -1.1l2 -0.4l1 1.4l1.6 -0.6l1.3 -0.7l0.7 1.2l1 1.2l1.2 0.3l1.3 0.2l1.7 -0.4l1.3 0l1 -0.3l1.3 0.1l1.2 -1.6l0 -1l0.5 -1.5l0 -1.7l1.4 -0.3l1.1 0.6l-0.9 -1.1l-0.9 -1.1l-0.3 -1.4l-1.2 -0.8l-0.8 -1.7l-1.2 0l-0.2 -1.5l0.1 -1.1l-1.5 -0.9l1 0.3l-2 -1.7l-2.9 -1.1l0.5 -1.3l-0.4 -1.4l1.6 -0.3l1.3 -1l1.7 0l1.1 -0.4l1.2 -0.5l1.2 -0.4l1.5 0.7l1.7 0l1.3 -0.6l1.2 0.2l1.6 0.2l2.8 -0.4l2.6 -0.8l1 -0.8l1.2 -1.9l0 -2.3l-0.2 -1.4l0.9 -1.4l0.1 -1.4l0.1 -3.5l-0.1 -2l0.2 -1.1l-1.2 -0.9l-0.1 -1l-0.7 -1.5l-0.8 -1.5l-1.1 -1.8l-0.8 -1.2l-1.5 0.2l-1.3 -0.6l-0.7 -2l-2.2 -0.2l-1.3 0.5l-1.6 0l0.1 -1.1l-1.5 -0.6l-0.7 1.4l-1.9 1.1l-0.8 1.4l0.4 1l-1.1 1.5l-0.5 1.2l-0.3 1.9l-1.8 0.5l-0.2 1.2l0.3 1l-0.1 1.3l-0.4 1.2l0.1 1l1 0.2l1.5 0.1l0 1.3l-1.2 -0.2l-1.4 -0.3l-0.7 -1.4l-1.9 -1.3l0.2 1l-0.2 1.8l-0.4 1.4l-0.1 2.6l1.1 -0.3l1.2 0.3l1.2 1.2l0.1 1l0.4 1.1l-1 1.7l-0.2 1.3l-0.2 2.9l-1.7 0l-1.2 -0.3l-1 0.1l-0.2 1.5l-1.1 1.2l-0.9 1.4l-1 -0.2l-1 -1l-1.1 -0.6l-1.3 0.4l-2 1.3l-1.6 0.2l-1.2 -0.1l-1 1.1l-1.6 0.3l-1.1 -0.9l-1.3 0.5l-1.1 -0.4l-1.3 -0.7l-0.8 1.5l-2.7 1.5l-0.4 1.6l0.5 1.9l-0.3 1.4l-0.3 1.6z"/><path data-zip="00653" d="m378.4 200l0.8 2.1l1.3 1l2.5 0.1l1.2 1.2l1.4 -0.4l1.6 -1.2l1.8 -0.6l1.9 -0.6l-0.8 1.6l-3 3.9l-0.7 1l-0.7 1l-3.2 1.5l-0.8 1.1l-2.4 0l-0.6 2.3l0.4 1l1.4 0.6l2.5 0.2l1 3.4l0.1 1.5l1.9 0.1l1.9 0l2.7 -0.6l2.1 -0.8l1.4 0.1l1.1 0.9l4.6 2l0.8 -1.9l0.6 -1.2l-0.1 -3.2l-0.6 -1.6l-0.2 -9l0.4 -1.2l0 -1.3l-0.1 -1.1l-1.1 -2l-1 -1.6l-1.4 -0.7l-1 -0.9l0 -1.2l-1 -0.7l-1.1 0.1l-0.2 -1.4l-1.3 0.1l0.3 -2l-1.2 0.1l-1.4 0.2l-1.2 0.3l-2 -0.4l-1.7 -0.8l-2 0.9l-1.1 -0.6l-1.4 -0.5l-1.1 0.1l-1 1.9l0.4 1l-0.3 1.3l1.5 1.3l2.2 2.1l-4 1.9z"/><path data-zip="00656" d="m411 205.6l1.1 0.6l2 -0.1l1.1 0.3l1.8 -0.4l1.4 0.1l1.5 -1.3l1.1 0.2l2.8 0.9l0.7 1.8l-0.1 1.1l5.5 -3.5l-0.3 -2.6l1.2 -1l1.1 -0.6l1.1 -0.1l1.1 -1.4l2.1 -1l1.4 1.3l-0.1 1.1l3.4 0.3l0.9 -1.1l0.3 -1.4l0.9 -2l2.6 -1.1l-1.1 0l-3.2 0.8l-2.9 -0.3l-1.6 -0.6l1 -0.9l0.8 -1.3l-0.2 -2.4l-0.6 -1.2l-0.3 -1.2l-0.5 -2l-0.5 -1.1l-0.3 -1.9l-0.3 -1.7l0.5 -1.3l-0.8 -1.4l-0.3 -1.3l0.8 -1.7l0 -1l-0.6 -1.7l0.4 -1.2l0.3 -1.5l0.3 -1.2l-0.2 -1.1l-1.1 -1.2l0.4 -1.7l0.4 -1.3l1 -2.2l-0.3 -2.5l1.2 -1.5l0.4 -1.3l-0.8 -1.1l-0.1 -1.1l-0.3 -1.2l-1.4 -2l-0.1 -1.3l0 -1.5l-1.8 0.4l-1.4 -0.2l-1.7 -0.8l-1.1 -0.4l-1.2 1.1l-1.3 -0.2l-1 0.3l-1.1 0.2l0.1 2.2l0.4 2.5l-1.4 0.4l-1.2 1.3l-1.3 0.5l-1 0.5l-0.4 1.3l0.1 1l0.4 1.1l1.2 0.6l0.3 1.1l-0.5 1.6l0.7 1.3l1 1.1l-1.2 1.7l-1 1.4l-2.7 3.9l-1.2 3.8l-0.2 1.4l0.2 1.3l-0.7 1.2l-0.8 1.2l-0.7 1.4l0.1 1.1l-0.2 1.1l0.9 1.5l0.3 1.7l1.3 1.1l-1.1 2l-0.2 1.2l-2.3 0.9l-1 0.5l0.1 1.3l-0.1 1.2l0.2 1.2l1.1 0.8l0.2 1.2l0 1.5l-1.6 0.1l-0.6 1.1l0.5 1l0.2 1.1l-1.3 0.6z"/><path data-zip="00659" d="m409.7 12.4l0.5 1.5l1.1 0.6l-0.4 1.5l1.3 1l1.2 -0.2l-0.1 1l-0.6 1l0.1 1.4l-0.3 1.5l0.9 1l1.1 0.1l0.2 1.2l0.1 1.5l-0.4 1.3l0.1 1.3l0 1.7l-0.8 1l0.7 2.2l-0.1 1.4l0.4 1l0.4 1.3l-0.1 1.5l1.4 0.9l-1 0.9l0.7 3.1l1.5 0.6l0.1 1.5l-0.3 1.6l0.4 1.5l1 0.9l1.2 1.3l-0.7 1.1l-0.2 1.4l-0.5 1.8l0.1 1.2l-0.3 1.4l-0.3 1.7l-0.8 1.4l-0.7 1l0.3 2.1l-0.4 1.4l-0.6 1.1l-0.9 1.8l-0.2 2.3l0 1.5l-0.1 1l-0.4 2.9l11.9 0.6l8.8 0.5l0.1 -1.7l0.3 -11.8l-0.1 -1.1l0.1 -5.7l0.7 -6.6l-0.8 -4.6l-0.3 -1.5l0.8 -4l-0.1 -2.4l0 -2.1l-0.4 -2l-0.6 -1.7l0.9 -2.8l0.4 -4.7l0 -2.2l-0.3 -1.5l-0.4 -1.3l0.2 -1.6l0.3 -1.3l1.1 -2.8l-1.9 -1.2l-4 -1.8l-3.2 -0.6l-4.1 0.2l-2.5 0.5l-1 -0.1l-2 -0.1l-3 0.2l-1.5 1.4l-3.3 -0.2l-0.2 1.4z"/><path data-zip="00660" d="m291.2 140.5l0.1 1.3l1.3 0.7l0.3 1.9l1.1 0.2l-0.3 1l1.1 0.6l1 0.5l1.6 0.9l0.2 1.5l1.6 0l1.1 0.5l-0.8 1.6l0.5 1.1l0.5 1.5l1.8 0.6l0.8 1.9l1.2 0.6l1.3 0.7l1.3 0.2l1 0.6l1.9 1.3l1.8 0.4l1 -0.5l1.2 -0.4l1.5 0.2l2.2 0.5l1.3 -0.5l1 0l0.7 -1.4l0.4 -1.1l0 -1.2l-2.8 -1.8l-2.5 -1.9l5.55112e-17 -1.8l-0.9 -1.9l0.5 -1l-0.2 -1.4l0.2 -2.1l1.2 -1.1l0.5 1.1l1.3 0.1l0 -1.3l-1.8 -0.9l-1.2 -0.3l-0.6 -1.3l-1.4 -1.2l-1.4 0.3l-1.2 0.2l-1.2 -1.1l-1.3 -0.2l-1 0.4l-1.3 0.6l-1.7 0.5l-1 -0.7l-1.1 0.1l-1.2 1.1l-1.9 1.2l-1.4 -0.4l-0.9 -1l-1.6 0.3l-1 0.4l-2.7 -0.8z"/><path data-zip="00662" d="m311.7 0.7l1.9 0.5l1 1.3l0 1.2l1.4 1l1.8 1.7l1.6 1l0.1 1.8l0 1.1l1.2 0.6l1.9 -0.3l1.7 1l1 0.9l1.1 -0.3l0.9 1.5l1 0.3l-0.2 1.1l0 1.3l0.2 1.9l0.8 3.1l1.4 4.9l0.7 1.6l6.9 15.5l1.9 4.3l2 -0.1l1.6 -0.5l1.4 -0.1l1.2 0.3l1.4 0l0.2 -1.6l1.1 -1.6l0.8 -1.1l0.8 -1.2l-0.2 -1.1l0.3 -1.6l0.5 -1.6l0.1 -1l3.8 0l3.2 -4.6l0.1 1.3l-0.1 1l1.5 0.4l2.2 2l5.1 -0.1l1 0.2l0.4 1.3l1.1 0.1l1.3 1.3l0.2 1.4l1.7 0.1l1.1 -1.6l1.1 -1.4l-2 -0.3l-1.1 -1.1l-0.4 -1.5l-0.5 -1.9l-0.9 -1.7l-0.4 -1l-1.5 0.2l-1.6 -1l-1.1 -1.1l0.1 -1.2l-1.3 -0.8l-1.6 -0.9l-0.6 -1.9l1.3 -0.2l0.6 -1.1l0.6 -1.6l1.1 -1.2l-0.3 -1.6l-1.1 -0.8l1.8 -1.5l1.1 -0.7l0.5 -1.1l0.9 -1.5l-1.3 0.1l-1.4 -1.5l0.2 -1.1l-2 -0.5l-1.1 -0.2l-2.7 -0.5l-1.4 0.5l-3.3 -1.2l-0.8 -1.1l-3.7 -1.9l-1.5 -0.3l-4.8 -2.3l-2.1 -0.6l-1.8 0.8l-3.9 -1.3l-5.8 -1.1l-1 0l-1.4 0.1l-1.4 0l-1.5 0.4l-2.8 -0.4l-1.1 0l-2.1 0.3l-3.1 -0.7l-3.9 0.3l-1.2 0.5z"/><path data-zip="00664" d="m478.3 134.5l0.7 1.7l0.8 1.3l0 1.6l1.2 0.6l1.1 0.2l0.4 1l1.1 0l0.8 1l1.4 0.4l0.2 -1l1.2 -2l1.1 0.6l1.8 -0.3l1.4 0l1.7 -0.5l1.5 -1.1l1.7 -1.6l1.1 0.4l1 -1.8l1.4 -0.3l1.3 -0.8l1 1.1l1 0.1l2 0.6l1 -0.1l1.1 0l1 1.7l1.5 0.6l0.5 1.3l1.9 0.4l0 1l1.4 0.7l1.3 0.1l1.1 0.1l1.5 -0.1l1.1 -2l0.3 -1.3l0.9 -1.6l-0.2 -1.3l0.5 -1l0.4 -2l1.5 -0.3l1.4 -1.2l-1 -1.5l-0.8 -1.3l0.1 -1.6l0.9 -1.8l0.2 -1.8l-0.7 -1.2l-0.7 -1l0 -1l-0.6 -1.7l-1.2 -0.5l-1.2 -1.7l-1.6 -0.7l-2.3 -6.5l-2.6 -1.2l-0.6 -1.5l1.1 -1.3l-0.3 -1l-0.1 -1.4l2.2 0.1l-0.8 -1.5l-0.7 -1.4l1.1 -0.7l-0.1 -1.5l-0.6 -1l1.2 0.3l0 -1.1l-0.6 -1.4l1.2 -2.5l-2.2 -0.7l-1 -1.7l0.3 -1.2l0.1 -1.3l-1.8 -1.1l-1.1 -1.2l-1.4 -0.1l-0.4 1.7l0.4 2l-1 1.8l-1.1 0.9l-1.9 0l-1.3 0l-1.1 0l-1 0.1l-1.3 -0.3l0.2 1.1l-0.1 1.1l-0.3 1.6l0.2 1.4l-1 0.8l-0.1 1l-0.2 1.3l0.8 1l-1.1 2l-1.5 -0.6l-0.2 -1.8l-1.1 0.3l-0.9 1.3l-1.5 0.8l-1.5 0.4l0.6 1.6l1 0.3l-0.6 1.1l-1 -0.9l-1.5 0.1l-1 0.8l-0.2 4.4l-1.2 -0.3l-0.1 1.6l0.2 2.8l-0.4 1.7l0.5 1.8l-1.7 1.1l-1.5 2.1l-1.1 0.2l0.5 1.5l-0.5 1.1l-0.4 1.2l-1.2 1l0.8 1.5l0.2 1.2l-0.8 1.8l-1.6 -0.4l-1.7 0.5l0.6 2.6l-1.1 2z"/><g data-zip="00667"><path d="m356.3 215.7l0.1 2.1l0.4 1.8l1.3 -2.5l-1 -0.5l-0.9 -1z"/><path d="m307.1 188l0.4 1.2l0.6 1.2l-0.1 1.3l0.6 1.1l0.4 1.1l0.2 1l-0.1 1.2l0.3 1.1l0 4.3l0 6.8l0.1 1.4l1.4 0.4l1.2 0.7l-0.6 1.8l-0.7 1l-0.5 1.6l0.3 2.6l-0.4 1l-0.1 1l-0.7 1.2l-0.2 1.4l3.2 -0.3l2.8 -1.4l1.6 -0.6l1.1 -2.5l1.8 -0.7l1.8 0.8l0.4 -1.5l0.3 -2.5l1.1 -1.1l2.1 -0.9l2.3 -0.3l1.9 0.3l3.1 0.7l1.5 0.7l1.1 -1l1.8 -0.4l2.1 0.4l1.7 0.4l2.1 0.9l2.2 0.4l1.4 1.1l1.7 1.3l1.3 -0.1l0.3 -2.1l1.9 -1l1.9 -0.1l2.1 1.1l1 -0.7l2.9 0.1l4.3 -9.2l0.3 -2.5l0.3 -3.6l0.7 -9.8l-0.2 -1.1l-1.8 -0.7l-1.1 -0.5l-5.8 -1.1l-0.2 -2.2l-0.1 -1.3l-2.5 -1.5l-1.9 0.7l-1.3 -0.8l-1 0l-1.2 -1.3l-1.1 -0.9l-1.4 0.5l-1.3 0.5l-1.1 -0.3l-2.8 -1l-2.9 1.1l-1.1 0.1l-1.2 -0.7l-1.4 -2.1l0.7 -1.2l1 -0.1l1 0.2l1.1 -0.8l0.1 -1l-0.4 -1.1l-2.7 0.3l-0.6 1.3l-1.6 0.5l-1.5 -0.1l-0.6 2.1l-1.6 0.7l-1 -0.3l-2 -0.3l-1.4 -0.6l-2 1.4l-1.9 -0.1l-1 0.4l-1.2 1l-1.2 -0.9l-1.3 0.2l-1.3 0l-1.5 0.8l-2.7 1l-1.1 0.5l-0.3 1.5l-0.8 1.3l-0.3 1l0.4 1l0.5 1.2l-1.8 2.4z"/></g><path data-zip="00669" d="m372.2 99.7l2.3 1l-0.2 1.1l1.9 1.4l-1.3 2l-1.1 0.5l1.2 1l1.4 0.9l0.3 1l0.4 1.5l1.2 -0.4l1.7 -0.6l1.5 0.5l1 -0.1l0.2 2.7l5.1 15.8l1.2 0.2l7 0l3 0l1.4 0.2l-0.1 1.9l0.6 1.4l0.8 1l-1 0.6l1.5 0.1l1.1 0.8l1.5 0.1l1.7 -0.1l1.2 0l-0.9 -1.3l-1 0.5l-2.2 -0.9l0.5 -1l-0.5 -1l-0.5 -1.3l0.7 -1.3l1.8 -0.9l-0.4 1l1.5 0.3l0.6 1.4l0.1 -1.4l1 -0.6l1.5 -0.7l-1 -0.2l0.9 -1.7l-1.2 -0.8l0 -1l-1 -0.6l-0.8 1l-0.3 1.1l-0.8 -1.8l1 -2l0.3 -1.2l1.2 -0.2l2.2 -0.5l1.3 -2.1l-0.8 -1.3l0.8 -1.2l1 0.6l0.1 -1.3l-0.9 -1.1l-0.3 -1.2l2.7 -1.4l1 0.1l1 0.5l1.1 0.3l0.1 -1.6l-1.2 -1l-1.2 -1.1l-0.2 -1.4l-1.1 -0.3l0.1 -1.4l0 -1.1l0 -1l0.2 -1.6l-0.5 -1.2l1 -1.1l-0.2 -1.6l-1.3 -0.9l0.7 -1.6l-0.3 -1.1l-1.1 -0.7l-0.1 -1l0.8 -1.7l-0.3 -1.1l1.3 -1.3l0.5 -1.4l-0.2 -1.3l-0.2 -1.5l1 -0.4l-0.5 -1.9l0.3 -1l-1.1 -1.6l1.5 -1.4l-0.8 -1.3l0.2 -3.6l0.1 -1l0 -1.5l0.2 -2.3l-1.7 -0.5l-1 -0.5l-2.4 -1.2l-1.7 -0.6l-1.5 -0.4l-0.8 -1l-1.2 -0.1l-1 -0.5l-3.2 -0.4l-3.1 0l-2 -0.3l-1.4 -1.4l-0.2 -1l-1.6 -1.5l-1.6 -0.4l-1.2 0.4l-1.2 7.1l-0.4 2l-1.4 4.4l-1.2 3.8l-0.4 2.7l-1.3 4.2l-0.3 3.2l0.2 1.3l-0.4 5.8l0.5 1.2l0.4 2l-0.3 1.5l0.6 1.5l-0.4 1.8l-1.3 0.3l-1.2 -0.4l-1.1 0.9l-0.8 -1.4l-1.1 0.7l-0.5 -1l-1.3 0.2l-1 0.3l0.9 1.3l-1.6 0.8l-0.4 -1.1l-0.4 -1.1l-1.6 0.1l-0.1 -1z"/><path data-zip="00670" d="m319.7 101.7l1.2 0.9l1.3 1.6l1.7 -0.1l1.1 0.7l2.3 0.9l1 -0.1l1 -0.1l-0.3 1.1l0.3 1.2l1.2 1l0.6 1.4l-0.3 1.1l0.6 1.2l1.3 0.3l2.3 1.3l1 0.6l1.4 1.1l0.5 2.5l0 1.5l2 -0.1l1 1.1l2.3 0.5l-0.3 1.4l-0.1 2l5.9 0.8l1 -1.5l1.9 0l1.1 -0.5l1.4 -2.5l3.5 -0.5l1.6 0.5l1.2 0.2l1.4 -0.7l2.4 0.5l1.4 0.6l-0.1 1.8l2 -0.2l2.6 -0.5l10.5 3.4l7.2 2l-5.1 -15.8l-0.5 -1.8l-1.3 -1l-1.7 -0.5l-1.4 1.3l-1.1 -1.6l-0.3 -1l-1.4 -0.9l-1.2 -1l1.1 -0.5l0.4 -1.2l1.2 -0.6l-1.3 -0.8l-0.7 -1.9l-1.6 -0.1l-0.2 -1.4l-1.2 0.5l0.4 -1.9l-1.1 -1l-0.7 -2l-0.3 1.8l-1.3 0.8l-0.4 -1.1l-1.1 -0.7l-1.1 -0.2l-1.4 0.4l-1.6 0l-0.1 2.1l-1.3 0.9l-0.5 -1.1l-1 -3.1l-1.5 -0.3l-2.2 0.1l-1.4 -0.2l-1.7 -0.7l-1.1 0.4l-1.4 -0.7l-1.4 0.6l-1.6 -1.1l-2.1 0.2l-1.5 0.6l-1.2 0l-0.5 -1.2l-1.4 -0.4l-0.8 1l-1.2 -0.1l-1.3 -1.2l-1.6 0.7l-0.4 -1.4l1.4 -0.2l1.2 -1.6l-1.9 0.3l-1.1 0.1l-0.5 2.3l0.1 2l0.2 1.8l-2.1 -0.8l-0.9 -1.6l-1.1 -1.6l0.3 -1.5l-1.2 0.1l-0.2 1.3l-0.4 1.2l0.3 1.1l-2.1 0.1l-1.6 -2.4l-2 -0.1l0 1.9l0.6 1l-1.4 0.1l-1.3 -1.1l-1 0.8l-0.1 1.4l0.5 1l1.1 0.1l1.4 -0.8l1.1 0.2l1.9 0.4l-1.1 3.3l-0.9 1l-1.8 1.7l-1.5 -1.2l-2.1 1z"/><path data-zip="00674" d="m519 37.8l0.5 1l-0.4 1.1l0 1.6l0 1.6l0.8 1.2l0.5 1.4l0.7 1.5l0.8 1.2l0.7 1.7l1.2 0.9l-0.2 1.1l-0.1 1.5l0.1 4l-0.1 1.4l-0.9 1.4l0.2 1.4l-0.1 2.1l1.7 0.6l0.6 -1l1.3 -0.6l1.9 0l1 -1.6l1.8 -1.3l1.3 -0.2l2.8 -0.9l1.5 -0.4l1 -0.1l1.2 0.3l2.6 -0.2l-1 -1.9l-0.2 -2.4l-1.1 -0.7l1.2 -0.7l1.8 1.3l0.7 1.5l1.6 2.5l2.5 -0.9l2.1 -0.7l1.5 0.1l2.1 -0.3l3.1 0.4l-0.2 -1.8l0 -2.3l-1.2 -2.1l0.3 -1.6l0.7 -1.2l1.6 -2.9l0.7 -1.7l0.3 -1.6l-0.4 -7.5l1.4 -0.2l0.1 -1.9l1.7 -0.6l-0.7 -1.5l-2.4 0.5l0.1 -3.2l0 -3l0.1 -2.8l0.3 -9.2l-1.5 3l-1 0.5l-1.5 2.1l-1.8 0.7l-4.4 0.1l-4.8 -1l-1.5 -0.5l-5 -1.4l-6 -1l-3.9 -1.8l-1.6 -0.4l-2.1 0.8l-0.3 1.6l1.2 1.8l0.4 1.5l-0.2 1.9l-0.6 1.6l-1.7 1.4l-0.3 1.6l1.1 -0.7l1.7 -0.6l1.1 0.3l-1.3 2.4l-2.2 0.7l-1 0.9l1 0.3l1.5 0.6l-1.4 1.3l-0.4 1.5l2.4 0.6l0.3 -1l0 -1.3l1 1.4l0.1 1.7l1.2 0.4l1 0l-2.1 0.3l-0.2 1.7l-1.1 0.7l-1.2 0.2l-3.1 1.9z"/><path data-zip="00676" d="m300 70.4l1 0.4l-0.8 1.5l1.4 2.1l0.1 1.8l0.1 1l1.2 -0.4l0.1 -1.1l1 0.1l1 -1l1.4 0.5l1.4 -0.1l1.7 0.7l1.6 0.8l1.4 0l8.6 2.1l2.5 0.1l2.9 0.4l1.4 0.8l1.5 1l1 0.1l1.8 -2.3l1.3 -1.6l0.6 -1.5l0.6 -1.4l1.5 -0.9l0.5 -1.2l-0.3 -1.5l-1.4 -0.6l0.1 -1.4l-1.2 -1.3l-0.1 -1.3l-0.5 -1.3l-1.5 0.7l0.7 -1.9l1.1 -0.6l1 -1.9l0.1 -1.4l0.5 -1.1l-0.2 -1.4l0.3 -1.2l0.6 -1.4l0.4 -1.8l1.3 -1.7l1 -1.1l1.1 -2.4l-1.9 -4.3l-6.9 -15.5l-0.7 -1.6l-1.4 -4.9l-6.5 1.6l-0.1 1.9l-0.7 1.8l-1.4 0.7l-1.2 0.1l-1.5 1.3l0.3 1.1l-2.3 0.9l-1.8 -0.3l-5.2 5.4l-3 3.2l-1.7 2l0.3 2.2l-1.4 3.2l-1.8 2.7l0.4 3.1l0.6 1.5l-0.4 1.8l1.3 0.5l-0.4 3l0.1 1.5l0 1.5l-1.2 1.8l-0.3 1.1l-1 0.6l0.5 2.5l-0.5 1.2l-0.3 1z"/><path data-zip="00677" d="m249.8 58.3l-0.4 1.6l1 2.6l0.6 1l2.1 3.2l1.4 0.6l1.2 1.8l0.5 2.8l3.3 6.2l1.6 3l1.3 2.5l1.1 0.9l3.1 0.9l0.5 -1l0.5 -1.5l1.5 -0.5l1.2 -0.1l1.5 -0.4l1.1 -0.1l1.7 -0.9l1.5 -0.8l1.3 1.1l1.9 -0.7l0.4 -1l2.9 0.3l-1.3 -0.7l-0.4 -1l-1.1 -1.6l-0.1 -1.3l-1.6 -0.5l-1 -0.6l0.3 -1.1l-0.9 -1.3l-1.9 -0.5l-0.9 -1.1l-1 0.2l-1.3 -1.6l-1.2 -0.6l-1.8 -0.6l0 -1.3l-0.7 -1l-1 -0.1l-0.6 -1l1.1 -0.4l-0.2 -1.3l-1.4 -2.6l-1.3 -1.4l-1.5 -1l0.2 -1l-1.3 -0.5l-0.2 -1.5l-2.2 0.8l-5.9 1.3l-3.5 1.8z"/><path data-zip="00678" d="m362.2 23.4l0 2.2l1.4 0.2l0.6 1.2l0.8 1.5l1.1 1.1l1.6 1l1.5 -0.2l0.4 1l0.6 1.4l0.8 2.2l0.4 1.5l1.1 1.1l1.4 0.4l-5.55112e-17 1.2l-1.6 1.7l-1.6 0.4l-2 1.3l-1.1 0.2l-2.6 0.5l-0.9 2.4l0.4 2l1 0.5l1 0l0.1 1l0.4 1l-0.1 1.1l0.2 1.7l1 0.1l0.7 1l1.5 0.7l2.6 -0.4l1 -0.7l0.6 1l-0.2 2.3l2 1.6l2.2 0.5l1 -0.1l-0.6 -1.4l-1.1 -1.1l2.5 -1.7l-1.3 0.5l-1 0.6l-2 0.3l-0.7 -1.3l1 -0.9l0 -1.3l-0.5 -1.4l1 -2.3l1.8 -1.1l-0.1 1.5l0.2 1.4l0.7 2.1l2.6 1.9l2 0.9l0.9 1.9l1.2 0.8l1.4 -5.55112e-17l-0.4 -4.5l-0.2 -1.7l-0.1 -1.2l0.6 -4.7l-0.4 -3l-0.3 -4.2l0 -1.2l0 -2l0.1 -4.3l0.1 -4l-0.3 -15.3l-1.3 0.2l-3.7 -0.4l-5.5 -1.2l-4.4 -1.3l-1.2 -0.1l-1 -0.1l-2.4 1.1l-1.2 -0.3l-0.2 1.1l1.4 1.5l1.3 -0.1l-0.8 1.2l0 1.4l-1 0.1l-1.8 1.7l0.4 1.2l-0.3 1.1l-0.5 1.7l-0.6 1.6l0 1.1l-1.3 -0.1z"/><g data-zip="00680"><path d="m294 129.1l-0.1 2.9l0.2 1.8l1.1 4l1.1 3.2l1.3 -0.2l1.6 1l1.9 -1.2l1.2 -1.1l1.1 -0.1l1.1 0.3l1.6 -0.1l1.2 -0.1l1.1 -0.9l1.3 0.2l1.2 1.1l1.2 -0.2l1.4 -0.3l1.4 1.2l0.6 1.3l1.2 0.3l1.2 0.7l-0.3 -2.4l1.8 -0.8l1.3 1.2l0.2 1.2l2 0l1 -1.3l1.4 -0.8l1 -1.3l1.2 -0.5l0.5 -1.7l-1.5 -2.5l1 -0.1l1.1 -0.3l1.7 0.4l0.5 -2l2.1 0.5l1.6 -0.5l-0.2 -1.1l1 -0.3l1.7 0.3l-0.4 -1l1.7 -0.7l1.4 -0.3l1.1 0.4l1.8 -0.8l0.7 -1.1l-0.8 -2.2l-0.3 -1.1l0.7 -2.3l-2.3 -0.5l-1 -1.1l-1.6 -0.1l-0.4 -1.3l0 -2.3l-1.1 -0.6l-1.2 -0.8l-2.5 -0.9l-1.7 -1.2l-0.6 -1.2l0.3 -1.1l-0.6 -1.4l-0.7 -1l-0.8 -1.2l0.3 -1.1l-1 0.1l-1 0.1l-1.7 -1l-1.7 -0.6l-1.2 0.4l-1.8 -1.9l-1.2 -0.8l-1.5 1.9l-2 0.1l-1.1 0l-0.8 -1.1l-1 -0.1l-1.1 0.6l-1 -0.5l-1 0.3l-2 -0.9l-1.6 -0.5l-2 -0.4l-1 0l-1.9 0.1l-1.8 -1.4l0 -1l-1.1 0.6l-2.77556e-17 1.8l0.8 1.7l0.2 1.1l-0.2 1.1l1.5 0.1l1.5 0.1l1.1 0.3l0.9 1.1l1.2 1l-0.2 1.7l1.6 0l-1.3 0.2l-0.7 1.5l0.2 1.8l0.8 1.1l1.4 1.2l-0.7 1l-1.2 -0.1l-1 -1.4l-1.1 0.5l-1.8 0.7l-0.6 1.2l-0.9 -2l-1.3 -1.1l-0.3 -1.3l-1.2 1l0.1 2.1l-0.2 1.6l-1.4 0.9l-0.1 1.7l-1.3 2.3l-0.6 2.3l-0.2 1.1l-0.2 3z"/><path d="m293 124.6l1 1z"/><path d="m0.3 168.1l0.4 1.6l1.7 0.4l3.8 3.6l1.4 1.4l1.7 0.9l2.3 0.7l1.2 0.3l1 0.6l1.4 0.3l1.3 1.3l1.5 1.1l1 -0.2l1.5 -0.1l1.3 0l1.7 -0.3l1.9 -0.8l1.2 -0.5l1.9 -1.2l1.8 -2.6l1.6 -1.8l1.1 -1.5l1.2 -1.1l1.4 -0.8l1 0l1.1 -1.2l0.3 -2.3l-0.1 -2.1l-0.5 -1.1l-0.1 -1.1l-0.9 -1.8l-0.3 -1.5l-1.6 -1l-1.2 -0.9l-1.1 -1.9l-2 -0.1l-1.9 0.7l-0.9 1.1l-1.4 0.7l-1.9 0.2l-2.3 0.4l-3 -1l-1.8 0l-2.1 -1.5l-1 -0.2l-1.7 0.1l-1.7 0.7l-2.3 1l-2 0.4l-1.3 0.3l-0.7 1.1l0.1 1.9l-0.2 1.4l-0.6 2l-0.4 1.4l0 1.1l-1.2 1.1l-1.4 1.1z"/></g><path data-zip="00682" d="m280 97.1l1.3 1.5l0.9 1.4l1.8 2.7l1.3 2.4l0.5 3.8l0.1 3.8l2.3 2.5l1.3 0.6l1.6 -0.2l0.6 1.3l-0.6 1l1.1 0.6l0.4 1.1l0.6 1.7l0 1l-0.2 2.2l1.1 0.4l-1 0l-1 -0.1l-2.8 3l-0.9 1.1l-0.9 1.1l-0.9 1.1l-1.4 1.7l-1.9 2.3l0.8 1.1l1.3 0.8l1.1 1.6l1.5 0.2l0.2 1.3l1.7 1.2l1.2 -1.1l2.6 0.6l1.5 -0.6l1 0.3l-1.1 -3.2l-1.1 -4l-0.2 -1.8l0.1 -2.9l0.2 -3l0.2 -1.1l0.6 -2.3l1.3 -2.3l-0.3 -1.2l1.8 -1.4l-0.1 -1.2l0.3 -1.6l0.8 -2.3l0.6 1.7l1 0.5l0.4 2.4l1.4 -0.3l1.8 -1.4l1.1 -0.5l1 1.4l1.2 0.1l0.7 -1l-1.4 -1.2l-0.8 -1.1l0.1 -1l0 -2l1 -0.2l1.1 0.1l-2 -0.4l0.2 -1.7l-0.5 -1.1l-1 -0.3l-1 -0.9l-1.3 -0.2l-2 -0.4l0.2 -1l-1 -1.9l-1.1 -0.8l0.2 -1l-1.5 0.1l0 -1.3l1 -0.2l-1.3 -0.8l-1.5 1.8l-2.5 0.3l-0.6 1.1l0.5 1.4l-1.9 0.4l-0.2 -2l0 -1.9l-0.1 -3.7l-1.4 0.4l-2 0.7l-1.4 0.3l-3.5 0.4l-1.6 0z"/><path data-zip="00683" d="m309.8 178.3l2.4 0.1l2.4 -1.1l1.1 0.2l1.5 -0.4l1.2 0.9l1.2 -1l1 -0.4l1.3 -0.2l2.6 -1.1l1.2 0.9l2.2 0l1 0.3l1.3 -0.2l0.9 -2.6l1.5 0.1l1.6 -0.5l2.77556e-17 -1.4l2.5 -0.6l1.2 1.5l-0.1 1l-1.1 0.8l-1 -0.2l-1 0.1l-0.7 1.2l1.2 1.3l1.4 1.5l1.1 -0.1l2.3 -0.3l3.4 0.2l1.1 0.3l1.3 -0.5l1.4 -0.5l1.1 0.9l1.2 1.3l1 0l1 0.4l1.4 0.4l3.4 -0.1l0.5 -1.5l0.3 -8.5l-0.5 -1.5l-0.1 -1.6l-0.2 -3l-0.4 -2.9l0.2 -1.6l0.1 -1.2l0.7 -1l0.5 -1.8l0 -1l0.3 -1.1l0.8 -1.3l1.5 -1l0.8 -1.4l-0.1 -2.2l-0.3 -1l-0.9 -1.2l-1.4 -0.8l-1.3 -1l-1.6 -1.1l-1.4 0.3l-1.2 -0.8l-0.7 -1.6l-1.9 -1l-1.1 0.1l-1 -0.2l-1.5 -0.6l-1.1 -1.3l-0.5 -1.3l-1.6 0.3l-1.3 -0.3l-1 0.2l-1 -0.4l-1 -0.1l-2.1 -0.4l-2.1 -0.2l-1.3 -0.3l-1.2 -0.7l-1.4 -1.1l-2.1 0.3l-1.2 0.5l0.6 2.4l-0.5 1.7l-1.2 0.1l-1 1.7l-1.4 0.8l-0.4 1.7l-2.6 -0.4l-0.2 -1.2l-1.3 -1.2l-1.1 0l-0.4 2.4l0.6 1l0 1.3l-1.3 -0.1l-0.5 -1.1l-1 0.7l0.4 1.8l-1.1 0.3l0.5 1.8l-0.5 1l1.2 1.1l-0.5 1.8l2.5 2.5l3 2l0 1.2l-1.2 0.7l0.1 1.8l-1 0l-1.1 0.1l-0.1 1l-1.5 -0.4l-1.4 -0.6l-1.6 -0.2l-1.3 1.4l-0.1 1.6l-0.5 1.8l0.3 1.1l-0.8 1.7l-0.2 1.4l0 1.3l0 2.6l1.6 -0.1l1 1.4l-0.2 1.3l-1.5 0.6l-0.5 1l-0.6 1.1z"/><path data-zip="00685" d="m332.3 79.2l-1.8 2.3l4.4 2.5l0.2 2.4l0.3 1.1l1.1 1.3l1.4 -0.8l-0.2 1.7l-1 0.4l-1.3 0.8l1.9 0.2l1.4 0.3l1 1l1.4 -1.1l1.4 0.4l0.5 1.2l1.2 0l1 -0.9l2.2 0.1l1.6 0.9l1.8 -0.4l1.4 0.7l1.1 -0.4l1.1 0.4l2 0.5l1.3 -0.6l2.4 0.8l1 2.3l0.3 1.8l1.5 -0.8l-0.1 -1.9l1.5 0.2l1.7 -0.8l1.1 0.2l1.1 0.7l0.4 1.1l1.3 -0.8l-0.6 -1.1l1.6 1.3l1 0.6l-0.8 1.7l1.3 -0.3l0.5 1.4l1.6 -0.1l0.4 1.1l0.4 1.1l1.2 -0.3l0.3 -1.1l-1 -0.4l1.2 -0.6l1.1 -0.3l0.7 1.1l1.1 -0.7l0.2 1.1l1.4 -0.7l1.3 0.4l1.5 -0.2l0.4 -1.8l-0.2 -1l-0.1 -2l0.1 -1.3l-1 -1.9l0.4 -5.8l-0.2 -1.3l0.1 -2.5l1.5 -4.9l0.4 -2.7l1.2 -3.8l1.1 -3.6l0.7 -2.8l1.7 -6.4l-2.1 -0.2l-1 -0.5l-1.1 0.3l-1.4 -2.1l-1.8 -1.7l-2.7 -1l-0.8 -2l-0.6 -1.4l0.4 -1.6l-1.7 -0.5l-0.9 2.3l-0.5 1.8l0.5 1.8l-1 0.9l0.7 1.3l2 -0.3l0.7 -1.5l1.4 0.1l-1.8 1.3l0.1 1.5l1.1 1.7l-1 0.1l-2.2 -0.5l-2 -1.6l0.2 -2.3l-0.6 -1l-1 0.7l-1.7 0.3l-2.4 -0.6l-0.7 -1l-1 -0.1l0.5 -1.5l-0.6 -1.3l-0.4 -1l-0.1 -1l-1 0l-1 -0.5l-0.4 -1.6l0.7 -2l2.2 -1l1.7 -0.5l1.5 -1.1l0.6 -1.5l-1.2 -1.2l-1.2 -1l-0.8 -1.1l-1 -0.2l-4.5 0l-2.8 -1.9l-1.5 -0.4l0.1 -1l-0.1 -1.3l-3.2 4.6l-3.8 0l-0.1 1l-0.5 1.6l-0.3 1.6l0.2 1.1l-0.2 1.3l-1.4 1l-0.8 1l-0.3 2.2l-1.1 -0.3l-1.4 0.3l-1.7 -0.2l-1.1 0l-1.7 1.1l-1.5 1l-1.3 1.3l-0.6 1.9l-1 0.1l-0.2 2.2l-0.6 1.4l-0.3 1.2l0.2 1.4l-0.2 1.1l0 1.2l-0.6 1.3l-1.8 0.8l-0.1 1.6l-1 0.4l1 0.3l1 -1.1l5.55112e-17 1.7l0.4 1.5l0.8 1.3l0.3 1.4l1.4 0.6l0 1.4l-0.2 1.3l-1.5 0.9l-0.1 1.1l-1.1 1.8l-1.3 1.6z"/><path data-zip="00687" d="m548 63.8l0.8 2.2l0.6 1l2.6 4.5l0 2.8l-0.1 4.8l0.4 1.5l-1 1.9l0.4 1.7l-1.1 -1.3l-1.2 1l0.6 1.3l0 1.3l0.3 1.3l-1.3 1.4l-0.6 1.2l1.1 2.1l-0.8 1.2l0.2 1.2l1.1 1.3l-0.3 1.5l1.8 0.6l-1.3 1.3l1.1 0.9l1.2 0.5l2.9 -0.4l1.4 -0.1l1.1 0.8l2.2 -1.1l1 -0.8l2.7 -0.4l4.6 -0.7l1.1 -0.6l3 -1.6l2 -1.7l1 -0.3l1.3 -3.6l0.6 -1.3l0.3 -1.7l2.4 -1.3l0.8 -1.6l0.9 -1.5l0.2 -2.4l1.3 -4.4l1.5 -5.4l-1.2 -1l-1.2 -1.7l-1.2 -1.6l-1.6 0.5l-2 -0.6l-0.9 -1.1l-0.3 -1.4l-0.6 -2.1l-0.4 -1.7l-0.6 -2l-1.1 -1.7l-2.1 0.9l-0.3 1l-1.1 0l-1.7 -1.2l-2.4 -1.8l-0.7 -1.9l-1.5 0l-1.3 1.1l-1.1 1.7l-3 -0.1l-1.5 -0.5l-1.2 0.5l-2.9 -0.5l-2.8 0.4l-1.5 -0.1l-0.4 4.1l-0.2 3.4z"/><path data-zip="00688" d="m469.4 56.6l0.5 2.1l2.2 0.4l0.9 1.5l-0.5 1.4l1.9 0.2l1.9 -0.1l0.2 1.9l0.7 3.1l0.6 4.2l0.4 1.1l1.4 0.6l1.6 1.1l1 -0.2l1.4 0.6l1 -0.3l1.5 -0.6l1.3 -0.4l1.6 -0.2l1.1 -0.9l1.7 -0.4l1.6 0.2l1 1l1 0.2l0.1 -1.3l1.9 -1.3l0.5 -1l1.1 -0.8l2.5 0.5l0.4 -2.4l0.3 -1.1l0 -1.7l0.3 -1.8l-0.1 -1l-1.2 -0.4l-1.2 -1.1l-1.1 0.3l0.1 -2.6l0.4 -1.4l0.2 -1.8l-0.2 -1l1.1 0.6l0.9 1.2l2 1.2l1.2 0.2l0 -1.3l-1.2 0.1l-1 0l-0.4 -1.4l0.4 -1.2l0.1 -1.3l-0.3 -1l0.2 -1.2l-1.2 -1l0.2 -2.1l1.11022e-16 -4.9l1.3 -0.4l0.3 -1.1l0.5 -3.1l0.5 -4l0.2 -2.3l-1.2 0.1l-3.1 0.6l-2.8 -1.2l-1.4 -0.5l-2.7 0.3l-0.9 1l-2.7 -0.6l-1.1 0.5l-1.1 2.7l-0.1 1.1l-2 -0.3l-1.1 0.2l0 2.7l-2.2 0.2l-0.2 1.6l-0.9 1.1l1 0.7l1.1 -0.5l1.3 2.4l-0.6 1l-1.7 0.6l-2.7 -0.7l-1.8 0.7l-2.1 1.2l1.7 3.6l-0.7 1.2l-1.1 -0.2l-0.1 1.1l0.4 1.1l-1.6 1l0.2 2.3l-1.4 0.3l-1.3 -5.5l-1.1 -1.2l0.2 1l0.5 1.4l0 3.1l-0.6 1.6l-0.9 1z"/><path data-zip="00690" d="m308.2 1.1l0.2 1.9l0.1 1.1l1 1.2l1.5 0.5l0.1 1.6l-0.6 3.1l-0.2 1.6l-1.2 0.4l1.5 1.3l1 0.8l1 0.6l0 -1.8l0.6 -1.2l1 0.6l0.5 1.1l1 1.6l-0.1 1.4l0.7 -1.2l0.3 -1.1l1.1 -2.9l1.9 -1.6l0.2 -1.9l-1 -1.3l-1.6 -1.8l-2.3 -1.1l0 -1.2l-1 -1.3l-1.4 0l-2.2 0.2l-1.8 -0.3z"/><path data-zip="00692" d="m580.2 65.6l0.4 1.3l1.4 0.8l1.2 2l1.2 0.8l2.2 0.8l1 0.9l0.4 -2l-0.1 -2.8l1.1 -1.5l2.2 -1.2l-1.2 -1.6l-1 -0.4l-0.2 -1.7l1.9 -0.6l1 0.4l1.6 0.9l0.8 -1.8l0.6 -1.5l1 -0.5l1.4 -0.1l1.2 0.1l1.4 0.6l1.4 0.7l1.3 -1.2l-0.1 -1.6l1 -1.4l0.9 -2.3l1 0l1.2 -0.9l1.7 -0.3l0 -1.1l-0.3 -1.1l0.2 -8.3l0.8 -2.3l0.7 -1.4l-0.1 -1.2l-0.6 -1.5l-0.2 -1.8l-2.3 -0.6l-1.7 -2.7l-1.5 -3.8l0.8 -9.5l-1 -0.4l-1.4 -0.6l-1.4 -0.8l-1.1 -0.7l-1.1 -0.7l-1.7 -1.1l-1.4 0.4l-0.3 1l-1.6 0.4l-1.9 -0.8l0.2 4.1l0.2 5.8l0.1 2.7l1 -1l1.3 1.9l0.4 4.3l-1.2 0.3l-1.4 -0.1l-1.2 -0.6l1.3 2.2l1 0.1l1.5 0.5l-0.2 1.8l0 1.5l-1.4 0.1l-1.2 -1.4l0.4 -1.2l-1.3 1.2l-1.6 0.8l-0.9 1l-0.7 3.7l-0.2 2.2l-1.4 6.5l-0.3 1l-0.6 1l-1.3 1.4l-1 3.5l0 2l-0.5 1.9l0.4 1.9l-1.1 1.2l-0.1 1.9z"/><path data-zip="00693" d="m554 49.4l0.9 2.3l0.5 2.3l0.5 2.3l1.2 -0.5l1.5 0.5l2.6 0.2l1.5 -1.8l1.3 -1.1l1.5 0l0.3 1.4l2.8 2.3l1.7 1.2l1.4 0.5l0 -1.5l1.5 -0.8l1.7 1.6l1.1 1.2l-0.1 2.5l0.1 1.2l1 1.6l0.1 1.7l1.7 0.9l1.6 -0.7l-0.4 -1.3l0.8 -2.8l1.1 -1.2l0.1 -1l-0.4 -2.1l0.1 -2.4l1.3 -3.8l1.3 -1.4l0.6 -1l0.3 -1l1.4 -6.5l0.2 -2.2l0.2 -3.3l0.8 -1l1.7 -1.2l1.7 -1l-1.2 -0.7l0.8 -1.1l-0.9 -1.8l1.4 -0.2l1.3 0.5l1.2 -0.3l0.1 -3.6l-1.8 -2.6l-1 1l-0.1 -2.3l-0.2 -6.2l-1.3 1.9l-1 0.9l-0.8 2.3l-0.3 1.4l-1.5 -0.3l1.5 1.9l0.8 1.5l1.1 0.4l-3.5 1.1l-1.6 -0.3l-2.8 -0.2l-0.3 -1.6l1.6 -1.6l1.2 -1.5l-1.2 0.4l-1.4 -0.6l-2.2 -0.2l-1 -0.3l-0.7 1.4l-3.4 -0.5l-2.4 0l0.2 -1l0.9 -3l3.9 0.2l0.1 -1.7l0.2 -3.5l-2.5 0.7l-1.2 1.5l0 1.1l-1.3 -1.8l0 -2.1l0.1 -3l1 -0.1l-0.6 -1l-2.2 1.4l-3 -0.1l-2.5 0.4l-3.9 0.2l-3.3 0.8l-0.5 9.3l6.3 0.4l1.5 4.8l-1.1 1.6l-1.2 -1.1l-1.7 -2.7l-3.9 -0.3l0 3l0.4 2.4l1.9 0.3l0.7 1.5l-0.8 1l-1 1.5l-1.4 0.2l0.4 7.5l-0.3 1.6l-0.7 1.7l-1.6 2.9l-0.7 1.2z"/><path data-zip="00698" d="m377.4 141.9l0.3 1.8l0.2 1.7l1.1 1.4l0.8 1l0.6 1.2l1.1 0.7l-0.3 1.8l1 0.5l0.3 2.2l0.6 1.5l0.9 1.7l1 0.1l0.3 1.4l-1.2 0.6l-5 1l1.1 0.6l0.6 1l0.1 1l-1.2 0.9l-0.3 1l1.4 2.3l1 1.6l0.2 2.7l1 1l0 1.2l0.3 1.6l1 1.1l1 0l0.2 2.7l0.2 1l0.9 2l0.3 1l0.1 1l1 0.6l1.1 1.4l1 0.6l1.1 0.9l0.2 1.5l0.9 2.1l-0.1 1.2l1.1 0.7l-0.3 1l1.6 0.3l1 0.7l0 1.2l1 0.9l1.4 0.7l1 1.6l0.5 1.3l0.7 1.8l0 1.3l-0.4 1.2l0.2 8.1l0.6 2.5l0.8 2.7l1.5 -0.7l1.1 0.6l1.7 0.8l1.4 0.7l1 0.4l1.9 -0.2l1.2 -0.7l2 -0.6l1.9 -0.3l1.6 -0.7l0.5 -1.1l2 -1.4l1.3 -1.4l1.8 -0.3l2.1 -0.8l1.8 -0.4l1.8 -1l0.6 -1.5l0.7 -1.7l0 -2l-0.2 -1.5l-5.5 3.5l0.1 -1.1l-0.3 -1.1l-3.2 -1.6l-1.1 -0.2l-1.5 1.3l-1.4 -0.1l-1.3 0l-1.6 0.1l-1.5 0l-1.7 0.3l0.7 -1.4l1.3 -0.6l-0.2 -1.1l-0.5 -1l0.6 -1.1l1.6 -0.1l0 -1.5l-0.2 -1.2l-0.8 -1l-0.5 -1l0.1 -1.2l-0.1 -1.3l1 -0.5l1.4 -0.7l1.1 -1.4l0.6 -1.2l0.1 -1.3l-1.1 -1.4l-0.7 -1.6l-0.4 -1.4l0.2 -1l0.7 -2l0.8 -1.2l0.7 -1.2l-0.2 -1.3l0.2 -1.4l0.7 -2.9l3.2 -4.8l1 -1.4l1.2 -1.7l-0.6 -1l-1 -0.8l0 -1.4l0.1 -1.9l-1.2 -0.6l-0.4 -1.1l-0.1 -1l0.4 -1.3l1 -0.5l1.3 -0.5l1.2 -1.3l1.4 -0.4l-0.4 -2.5l-0.6 -1.3l-0.4 -2.7l-1.3 -0.9l0 -1.9l-0.2 -1l-1 -0.1l-1.9 -0.6l-1.8 -0.3l-1.5 -0.9l-0.4 -1.4l-1 -1.1l-0.3 -1.2l0.6 -1.2l-0.8 -1.5l-1.7 -0.7l-2.2 0.2l-0.6 1.3l-1.6 1l-0.4 1.2l-1.3 -0.5l-2.5 6.6l-0.6 2.3l-2.9 0.4l-2.3 -0.3l-0.9 -1.2l-1 -0.3l-1.2 -1.7l-1.6 -0.8l-0.8 -1l0.2 1.2l0.3 1.6l1.2 1.8l1.2 0.5l-0.5 1.2l-0.6 1.1l1 0.5l1.4 1.2l0.7 1.4l-0.1 3.9l-1.5 -0.5l-0.5 2l-0.3 -1.5l-3.1 -0.4l-0.3 -1l-1.1 -2.7l0.5 -1.2l-0.2 -1l-1.3 -1.1l-1.1 1.3l-1.1 0.8l-1.3 0.4l-0.6 -1.8l-1.2 -0.5l0.5 -1.2l1 -1.2l0.7 -1l-0.5 -1.7l-1.7 -1.1l-1 -0.7l-1.4 -0.5l-2.4 -0.4l-2.1 0.8z"/><path data-zip="00703" d="m650.1 99.8l0.8 2.4l1.2 1.3l1.1 1.3l1.1 1.3l-0.2 2.2l0.7 1.3l0.2 2l-1.1 0.2l-1.1 -0.3l-1.2 0.1l-1.3 0.1l1.1 0.8l1.4 0.7l2 0.3l-0.7 1.3l-3.3 1.4l0.1 1.3l1.5 0.7l-1 0.7l-1.9 0.7l1.8 -0.2l1.6 0.4l0.9 -1.5l1.5 -1.1l1.6 -0.3l-0.3 -2.3l1.8 -0.6l1.5 1.4l1.2 -0.2l2.4 -0.4l1.2 -1.8l1.1 -1.4l0.4 1.6l0.4 1.3l-1 1.9l0.3 1.3l1.1 1.3l1.1 0.3l0.5 1.4l0 1.4l0 1l-0.9 1.2l1.3 0.1l1.3 -1l1.4 -0.6l1.8 -1.9l1.5 -0.9l1.4 -0.4l3.1 -1.4l2.5 -1.3l1.8 -1.8l1.6 -1.4l1.3 -1l0.8 -2l1.1 -1.1l0.1 -2.7l1.9 -1.8l1.8 -2.4l-0.9 -1.4l0.4 -1.7l0.6 -2.7l0.5 -2.3l-1.2 -1.5l-0.5 -1.7l1.3 -1.2l-1.5 -0.8l-1 -5.55112e-17l-2.2 1.4l-1 0.6l-0.9 2.2l-1 0.7l-1.3 0.2l0.1 -1.4l-0.4 -1.4l-3.1 1.5l-1.3 -0.7l-1.6 -0.1l-1.7 -0.6l-5.4 0.7l-1.1 0.3l-1.2 0.4l-2.1 -1.2l-1.4 0l-1 -0.5l-1.2 -0.3l-1.6 0.1l-1 0.8l-1 0.5l-1.6 0.1l-2.2 1.2l-0.6 1.6l-1.2 0.8l-1 0.7l-0.9 1.5l-0.8 1.4z"/><path data-zip="00704" d="m629.7 209.8l0 2.7l0.5 1.5l1.3 0l2.2 0l-0.6 3.1l0 1.7l1.8 0.7l0.4 1.2l1 0.1l1.6 1.1l1.6 -0.4l1.3 -0.9l1.9 -1.1l1.2 -0.1l0 -3.7l1.4 0.7l1.8 0.8l2.3 1.8l2 -2.5l-0.8 -1.4l-1.3 -0.3l-1.9 -0.4l-1.3 -0.3l-1.9 -0.9l0.1 -4.3l-3.2 0l0 -1l-2 0l-0.4 -1.4l-2 -0.6l-1.3 0.2l-0.3 3.7l-1.3 0.1l0 1.1l-2.2 -2.8l-1.5 -0.2l0 1.4z"/><path data-zip="00705" d="m602.2 150.5l-0.8 1.4l4.9 4l4.5 3.7l5.1 4.3l1.6 -0.1l1.6 1.7l0.1 1l1.2 1l-1 0l-1.1 0.2l-0.5 1.1l0.3 1.2l-1.3 0.1l-2.1 0l2 0.8l1.1 0.3l1.6 -0.3l1.3 0.2l1 -0.3l-1.1 0.8l-0.5 1.5l1.1 0.2l1.3 -0.3l1.4 -0.5l5 -1.3l1.3 -0.2l0.3 -1.4l1 -1.6l-0.1 -3.3l1 -0.1l1 -0.3l1.5 -0.7l2.4 0.2l-0.1 -1.2l-0.8 -1.5l1 -0.7l-0.8 -1.6l0.5 -1.9l-0.7 -1.3l1.7 -1l0.8 -2.2l0.3 -1.4l-0.6 -1.4l0.9 -1.1l0.6 -1.4l-0.3 -1.7l-0.7 -1l1.2 -0.4l-0.9 -1l-2.5 -0.3l-1.1 -1.1l-2.2 -1l0 -1.9l1.2 -0.4l1 0.9l1.2 -0.5l0.8 -1.1l-0.3 -1.5l-1.6 -1.6l-1.1 -0.6l-1 -1.2l-1.2 -1.1l-1 -0.7l-1 -0.1l-0.8 1.3l-1.1 1.1l-0.1 1.2l0.4 1l-0.5 1.1l-1.2 0.1l-1.5 -0.4l0 -1.1l-1.3 -0.7l-1.6 -0.1l-1 -0.6l-1 0.1l-1.5 -0.5l-1 0.4l-2.1 0.5l-1.3 0.5l-1.6 0.6l-1 -0.2l-0.1 1.3l-2.2 0.2l-0.7 1.9l-1.5 -0.3l-2.1 0.9l-1.4 1.7l-0.4 1l-0.1 1.7l-0.6 2l0.4 1.6l1.1 0.1l-1.4 1.9l-0.7 1.4z"/><path data-zip="00707" d="m724.4 178.1l0.3 1.9l0.9 1.4l-0.2 2l1.2 1.5l0.8 1.1l-0.3 1l1 1.4l1 -0.2l0.5 2l1.1 1.4l1.5 -0.5l0.5 -1l1 -0.4l1.5 0.3l1.3 1.2l1.2 0.7l0 1.4l-0.9 1.3l0.1 1.1l0.5 1l0.1 1.4l1.7 0.9l0.2 1.2l0.9 1.6l0.7 1.2l2.3 1l1.3 0.7l1.1 0.4l2 1.3l1.4 0l1.7 0.1l1.7 0.3l1.2 1.5l3.2 -2.7l1.8 -0.9l2 -0.7l2 1.4l1.3 -1.3l1.1 -2.1l1.4 -1.9l1.1 -0.9l1.1 -0.9l1.6 -0.1l1.2 0.4l1.5 0.4l1.1 -0.5l0.8 -1.2l-0.5 -2l-1.4 -0.9l-0.5 -1.6l-1.3 -0.3l-0.9 -1.5l-1.1 -0.1l-1.2 0.4l-1.4 0.6l-1.8 1.1l-1 -1.4l-1.3 -1.2l-1 -1.2l-1.4 -0.3l-1 -0.4l-1.3 -0.6l-1.4 0l-1.9 -0.7l-1.2 0.4l-1.4 0.3l-1.3 0l-1.4 -0.2l-1.2 -0.9l-2.2 -0.2l-1 0.2l-0.5 -1.5l-2.4 0l-0.6 -1.2l-2.2 -0.9l-1.2 0.4l-1.1 -1.1l-1.2 -1.7l-1.1 -0.7l-1.9 0.1l-2.2 0.3l-0.3 -1.4l-1.3 -0.6l-0.2 -1.1l-1 0l-1.1 1l-1.8 0z"/><path data-zip="00714" d="m684.9 192.4l1.3 0.4l0.1 1.2l1.1 1.2l1 0.9l1.4 1l0.3 2.3l0.6 1l1 0.6l0.7 1.6l1.3 1l0 1.1l3.8 1.9l0.2 1l-1.1 -0.1l-1.2 0.4l-0.1 2l-1.3 -0.2l0.2 1.4l-0.4 1.3l0 1l0.3 1l1.2 0.6l1 1.4l1.9 0.6l2.9 1.2l1.3 1.2l0.8 -1.1l1 -0.5l0.8 -1.2l1 -0.7l1 0.4l0.9 -2.1l1.2 -1.7l2.3 -2.1l1.4 -0.7l-0.9 -1.5l-0.6 -1.1l-0.1 -2.1l-1.5 -1.6l-1.4 -0.7l-1.1 -0.4l-1 -0.4l-0.8 -2.3l-1.8 -0.9l-0.9 -1l1.8 -3l-0.2 -2.1l-0.2 -1.2l0 -1.1l-1.3 -1.6l-0.5 -1.5l-1.3 -0.6l-1 -0.2l-1.1 -1.1l-1 0.4l-1.8 0.1l-1 0.5l-2.6 0.4l-1.2 -0.1l-0.7 1.2l-1.1 0.4l-1.2 2.1l-1 0.5l-1.1 0.6l-1.5 1z"/><path data-zip="00715" d="m503 193.8l0.6 1.4l0.3 1l1.8 -0.7l-0.4 2.4l-0.3 1l-1.6 3.7l1 -0.2l1.1 0.6l1.1 0.5l1.3 -0.4l-0.1 1.3l0.1 1l0.2 3.5l4 0l-0.9 -2.4l1.1 -0.7l-1.5 -1.9l0.6 -1.7l0.2 -1.5l1.4 -0.9l1.2 0.2l-0.1 1.4l0.3 1.2l2.1 0.6l2.2 0.4l0.9 -1.6l0.2 -1.4l2.5 0.3l1.6 -0.2l-0.8 -1.2l-0.1 -2.9l-1.3 -1.1l-0.4 -2.7l-1.1 -0.4l-0.9 -1.4l-0.1 -2.1l-1.2 -0.9l0.6 -1l-1.9 0.3l-2.5 0.3l-1.2 0.9l-1.2 -0.8l-1.2 -0.4l-1.7 0.1l-1.5 1.7l1.5 0.7l1 1.2l-2 1.1l-2.5 0.4l-2.2 1.4z"/><path data-zip="00716" d="m483.9 207.6l1.7 0.3l1.7 -0.1l2.4 0.8l1.7 1.1l0.3 1.7l0 1.1l-1.5 1.3l2 0.8l1.1 0.9l1.2 -0.7l0.8 -1.4l1.9 -0.2l1.4 0l1.4 -0.7l1.4 0.4l0 -7.2l1.2 -1.5l0.7 -1.7l1.6 -3.7l0.3 -1l0.4 -2.4l-1 0.2l-1.3 -0.2l-0.4 -1.7l1.6 -1.8l2.2 0.7l2.9 -1.8l-1 -1.2l-1.5 -0.7l1.5 -1.7l1.7 -0.1l1.6 -0.2l-0.3 -1.4l-2.5 -0.1l-1.3 0.1l-1 0.6l-2.1 -0.3l-8.8 7.3l-0.1 1.2l-0.5 1.6l2.4 0.4l1 0.4l1 1.2l-0.2 1.8l-1.5 2.2l-1.4 0.7l-6.3 0.2l-4.7 -0.1l-1 1.2l0 3.2z"/><path data-zip="00717" d="m485.7 201.6l4.6 1l6.3 -0.2l1.4 -0.7l1.5 -2.2l0.2 -1.8l-1 -1.2l-1 -0.4l-1.7 -0.2l-0.5 1.7l-2.2 -0.9l-2.2 0.3l-1.9 -0.1l-1.7 2.4l-1.1 1.1l-0.7 1z"/><path data-zip="00718" d="m783.4 112l-0.8 5.6l1.9 5.1l1.1 -0.6l1.2 -0.6l1.2 -0.3l1.6 0.2l1.9 -0.3l1.5 0.5l1.3 0.6l1.6 -1.2l1.1 -0.4l2.1 1.1l1.6 0.8l1 0.3l1 0.6l1 0l2.1 0.6l1.4 0l1.6 0.9l-0.7 2.2l3.1 -0.7l0.7 -1l1.1 -0.4l1.1 -1.1l1.2 1.1l1.6 0.7l0.6 2.1l0.8 1.6l1.3 -1.2l1.2 0.8l1 -0.7l2.2 -1l1.2 0.1l1.3 0.4l0.4 1.1l1.2 1.1l2.6 0l1.1 0.6l1.3 1l1.2 -0.5l-0.5 -1.2l0.1 -1.3l0.4 -1.4l0.8 -1.1l-1 -1.6l-0.3 -2.1l-1 -1.7l-1.3 -0.7l-1.8 -0.8l-0.1 -1.1l5.3 -2.1l1.3 0.9l1.8 0.6l1.2 -0.4l2.1 -0.9l-0.3 -1.1l0.2 -1l-0.5 -1.1l-1 0.3l-1.6 -0.8l-1.1 -1.3l-1.8 -0.4l-0.2 -1.6l-1.5 -1l-2.2 1.5l0.3 -1.8l-1.2 -0.5l-0.4 -1.2l-0.1 -1.2l-1.1 -0.6l-0.3 -1.3l-1.6 -1.8l-1.1 -0.5l-1.1 -0.2l-1.2 0.1l-0.4 1l-0.3 1.1l-3 -0.3l-0.8 -1l-1.2 -0.2l-0.8 -1l-2.6 -1.1l-1 -0.5l-2.5 -0.8l-0.8 -1l-1.2 -0.8l-1.1 -0.6l-0.4 -1.7l-0.4 -1.1l-2.6 -1.1l-1 -0.3l-2 -2l-0.9 -1.7l-0.9 -1.2l-1.5 -0.2l-1.6 -0.8l-0.3 1.7l-0.5 1l-1 -0.1l-1.5 -0.3l-1 0.9l-1.7 -0.5l-1.4 1l-0.8 1.3l-1 1.4l-0.5 1.1l-0.7 1.2l-0.7 2l1.4 0.4l1.6 2l-0.6 1.6l0 2.4l-0.9 1.1l-0.9 1.8l-0.9 2.2l-1.6 3.5z"/><path data-zip="00719" d="m603.9 104.1l1 0.3l0.3 1.2l1.1 1.1l1.4 -0.5l2.1 -1l1.1 0.1l2.7 0.3l1.1 0.1l1.9 0.4l5 -0.7l1.5 -0.4l1 -0.5l1.3 0.1l1.5 -0.8l1 0.3l1.4 -0.1l1.2 -2.2l1.3 0.3l1.4 -0.4l2.3 0.4l0.3 -1.5l-0.4 -2l1.5 -0.7l1.1 -0.7l0.2 -1.4l0.6 -1.3l2.3 -1l1.3 -0.7l1.4 0.2l-0.1 -1.2l-1 -2.1l-0.8 -2.5l0.7 -1.1l0.2 -1l-0.6 -2.6l-1.2 -1.1l1.2 -0.5l1.7 0.3l0.3 -3.2l-0.7 -2.9l-1.8 -0.5l-0.7 -1.3l-0.7 -1.1l-0.2 -1.5l-1.7 0l-1.7 1.2l-1.3 1.6l-1.4 0.6l-0.9 -1.6l-0.9 -1.7l-1.2 0l-1.4 0.6l-0.6 1.1l-0.7 1.1l-1.2 -0.7l-0.7 -1l-1.8 -0.7l-1.2 0.3l-1.1 0.4l-1.4 0.4l-1 -0.9l-1.5 0.2l-1 0.4l-1.9 6l-0.2 2.7l-0.9 1.4l-0.9 -1.2l-1.6 -0.8l-1.4 -1.3l-1.3 1.3l0.4 1.2l1.2 -0.1l-0.1 1.6l1 1.1l1.4 0.4l0.1 1.3l0.9 1.7l-0.3 1.2l0.1 1.5l-0.7 2.9l0.6 1.2l-0.1 1.3l-1.3 2.1l-1.5 2.2l-2.5 1.3l-1.4 0.2l-0.9 1.4l-1.8 0.8z"/><path data-zip="00720" d="m528.5 111.4l0.1 1.6l0.5 1.5l0 1l0.4 1.3l0.2 1l0.8 1.4l-0.6 1.2l0.5 1.3l0.2 1l1.2 -0.2l1.4 -0.3l1.1 0.3l0.9 -1.2l1.2 1.2l-0.8 2.3l0.4 1.5l0.1 1.4l-0.1 1.8l1 2.1l0.5 1.1l2 1.4l-0.3 2.1l1.2 -0.1l1.6 -1.1l1.5 -0.1l1.6 -0.9l0.3 -1.3l1.7 -0.7l1.4 -0.5l1 0.7l1.2 0.2l1.1 -0.3l1.7 -0.2l1 0.7l1.1 -0.3l1.6 0.9l2.1 0.4l1.9 2.6l0.3 1l1.4 -0.3l1.6 -0.1l1.2 0.1l1.3 0.6l1.2 0.1l1.3 -0.3l0.9 -1.3l1 0.2l1.3 0.3l2.2 -0.2l1.3 -1.8l1.1 -0.6l1 -0.1l1.2 0.2l1.7 -0.3l1.2 -1.4l-0.4 -1.1l-0.3 -1.2l0.9 -1.3l2.1 0.1l0.1 -1.3l-0.8 -2l0.1 -1.1l1.4 -1.4l1.5 0.8l0.8 1.4l0.5 1l1.4 -0.4l-0.3 -1.9l0.2 -1.1l0.6 -1.7l-0.6 -1.9l0.3 -1.8l0 -1.5l-1 -1.6l0.4 -1.3l1.1 -0.5l-0.5 -1.8l0.3 -3.6l-0.5 -1.2l-2.1 -0.8l0.2 -1.1l-1.6 -2.8l-0.9 -1.3l-2.4 -3l-0.8 -1.2l-1 -0.6l-1.2 -1.2l-1.5 0.1l0 -1.9l0.9 -1.8l1 -1l-0.4 -1.5l-0.2 -1l-1.4 0.3l-0.8 2.1l-0.6 1.3l-1.2 3.4l-1.1 0.5l-2 1.7l-2.5 1.3l-1.6 0.9l-4.6 0.7l-2.7 0.4l-1 0.8l-1.5 0.8l-1.5 -0.8l-1.7 0.4l-2.9 0.4l-1.2 -0.5l0.2 2l-0.8 1.2l-1.2 0.1l-1.1 0.5l-1.1 0.7l-2.1 -0.5l-1.3 -1.2l-1.1 -0.3l-1.3 -0.6l-1.2 -0.2l-1.3 0.2l-1.6 0.1l-1.3 -0.1l-1.3 -1.5l-0.4 1.3l-1.6 0.7l-1.4 1.7l-0.9 1.2l0.7 1l1.1 1.6l-0.4 1.3l-0.4 1.3l-2.4 0.1z"/><path data-zip="00723" d="m687.6 178l-0.5 1.1l0.7 2.3l0.5 2.2l0.1 1.1l0.4 1l-0.1 1.5l1.2 1l1.1 -0.4l0.7 -1.2l1.2 0.1l2.6 -0.4l1 -0.5l1.2 -0.2l1.6 -0.3l1.1 1.1l1 0.2l1.3 0.6l0.5 1.5l1.1 1l0.2 1.7l0.2 1.2l0.3 1.9l-1.4 2.3l0.4 1.9l1.8 0.9l0.8 2.3l1 0.4l1.1 0.4l1.4 0.7l1.5 1.6l0.2 1.2l0.3 1.7l1.7 -0.6l1.1 -0.6l3.6 -0.8l0.9 1.9l-0.6 1.8l2.2 -0.2l1.7 0.2l1.6 1.5l1.4 1.5l1.5 1.3l1.6 0.1l1.2 -1.9l1.7 -0.5l1.3 0.2l1.4 0.4l1.4 0.5l1.6 0l1.8 -0.4l1.7 -0.3l1.2 0.3l1.1 0l1.7 -1.4l1.1 -0.4l1.8 0l2 0.4l1.5 -0.3l1.5 -0.9l1 -0.9l-1.3 -1.6l-1 0.1l-1.7 -0.1l-2.1 -0.4l-1.1 -1.2l-2 -0.5l-1.3 -0.7l-1.9 -0.2l-0.6 -1.7l-1.4 -1.9l-0.2 -1.2l-1.7 -0.9l-0.1 -1.4l-0.5 -1l-0.1 -1.1l0.9 -1.3l-0.2 -1l-1 -1.1l-1.1 -0.6l-1.7 -0.9l-1 0.4l-0.5 1l-1.5 0.5l-1.1 -1.4l-0.5 -2l-1 0.2l-1.3 -1l0.6 -1.4l-0.8 -1.1l-1.2 -1.5l0 -1.2l-0.7 -2.2l-0.5 -1.1l-0.6 -1l-1 -0.3l-1.2 0.1l-1.3 -0.2l-1.1 -0.7l-1.6 -1.6l-1.2 -0.7l0.1 -1.6l0.1 -1.4l-1.1 -0.3l-0.3 -1l-1.5 -1.1l0 -2.2l0.7 -1.8l1 -0.4l0.3 -1.4l-1.7 -1l-0.6 -1.4l-1.4 -0.3l-1.8 0.7l-1.2 -0.2l-2.3 -0.4l-1.7 -0.3l-1 -0.6l-2.7 -1.8l-0.5 1l-1.8 1.1l-0.7 1.3l-0.2 2.2l0.1 1l-0.2 1.4l-1.3 1.9l-0.6 1l-0.9 1.3l-2.3 0.9l-2.1 0.6l0.4 1.7l0 1.2l-0.9 1.6l-1 0.2l-1.2 0.5l-0.2 1z"/><path data-zip="00725" d="m682.1 87.8l-0.1 1.2l0.7 1.3l0.3 1.3l0.7 1.2l0 1l0.8 1.1l1.4 -1.6l0.8 -2l1.1 -0.8l1.3 -0.6l1.3 -1l1.5 0.9l-0.7 1.3l0.5 1.7l1.4 0.8l-0.7 3l1.4 -0.2l1 0l1.7 -0.4l1.5 -0.2l1 -0.3l4 -0.9l0.5 2.4l1.2 1l-0.5 2.3l0 1.1l0.2 6.6l-0.7 2.7l-0.4 2l-0.7 2l-0.6 2.4l0.2 2.1l-0.7 2.2l-0.7 1l-1 3.6l0 2.3l-1.2 -0.5l0 1.3l-0.4 1.8l-0.5 1.2l-0.2 1.4l-1.5 1.3l-2.1 -0.4l-2 -0.1l-1.3 1.8l-3.3 1.1l1.7 0.1l1.2 0.5l-0.5 1.3l0.2 1.5l1 0.3l0.2 1.2l4.4 1.2l-1.3 2.3l-1.5 0.4l-1.1 0.2l-1.4 0.2l-0.6 1.8l1 0.3l0.4 -1.6l1.1 0.1l0.9 1.3l0.9 1.4l0.4 -1l1.4 1.1l0.7 1.4l0.9 1.9l0.3 1.7l0.7 1l2.1 1.1l3 -0.8l3.2 -1.7l0.2 -1.1l0.8 -1.2l0 -1.5l0.5 -1.3l2.1 -0.6l0.8 -1l0.2 -1.9l1.1 -1.1l-0.3 -1.2l1.3 -0.1l1.1 -1.2l0 -1.6l-1.5 -2.1l-1.3 -1.6l0.8 -1.4l0.2 -1.3l1.2 -1.4l1.4 -0.8l-0.2 -1.8l0.8 -2l2.2 -0.1l1.6 -1l1 -1.4l-0.1 -1.3l-0.8 -2.5l0.4 -1.1l-0.3 -2.2l0.1 -1.5l0.1 -1.6l-1 -0.3l-2.1 -0.4l-1 -0.3l-1.1 -1.6l0.2 -1.1l1.3 -1l0.6 -1.2l-0.1 -1.7l-0.5 -1.3l-1.6 -1l0 -1.2l1.2 -1.2l-0.1 -1.3l-1 -2.7l-0.3 -1.3l1.3 -0.5l1.1 -0.4l-0.6 -1l0.4 -1.2l0.2 -2.3l-1.7 -0.9l-1.6 -0.3l-0.1 -1.2l-1.4 -0.7l-1.5 -0.2l-1.3 -0.6l-0.5 -1l0.7 -1.6l0.2 -1.2l-1.2 -0.7l0.5 -1.2l1.5 -0.1l1.3 -0.7l-1.4 -1.8l-1.6 -0.1l-2 0.1l-1.1 -0.8l-1.2 -0.3l-1.4 0.4l-0.9 1.7l-0.6 1l-1.2 0.4l-1.5 -0.4l-1.1 0.3l-1 0.2l-1.4 -0.3l-2.4 -0.8l-1 -1l-1 -0.7l0.7 -2.2l-1.8 -1.1l-1.2 0l-0.3 1l-1.2 -1.3l-1.3 0.7l-1 -0.2l0 1.2l-1.2 -0.7l-0.4 1l-1.2 0.1l2.2 1.4l1.7 1.7l-0.5 1.5l-0.5 1.3l-0.6 1l-1.2 -0.5l-0.4 1.1l0.2 1.1l0 1.1l-1 -0.6z"/><path data-zip="00727" d="m676.8 118.7l2.8 4.1l2.9 7l-0.9 3.2l-0.3 1.3l1.5 0.7l1.5 0.6l1.3 0.6l0.8 1.4l1.7 1.9l1 0.8l1.1 1.6l0.7 -1l-1 -0.3l0.7 -1.1l-1 -1l0 -1.2l-3 0.3l3.5 -1.1l1.1 -1.5l2.7 -0.6l2.1 0.4l1.1 -0.4l0.6 -2.3l0.5 -1.2l0.4 -1.8l0 -1.3l1.2 0.5l0 -2.3l1 -2.7l0.7 -1.9l0.7 -2.2l-0.2 -2.1l0.6 -2.4l0.7 -2l0.4 -2l0.6 -1.8l-0.1 -7.5l0 -1.1l0.8 -1.6l-1.2 -1.3l-0.8 -2.8l-4 0.9l-1 0.3l-1.5 0.2l-1.4 0.3l-1.3 0.1l-1.4 0.2l-0.6 2.7l-0.4 1.7l1 0.9l-1.5 2.4l-2.3 2.3l-0.1 2.7l-0.7 1l-1.2 2.1l-1.3 1l-1 0.5l-2.4 2.7l-2.5 1.3l-2.8 0.8z"/><path data-zip="00728" d="m461.7 208.2l-0.4 1.6l2.1 0.7l2.4 0.7l1.7 0l2.2 1.1l1.3 1.5l2.3 -0.4l1.2 -0.2l1.1 -1.7l1.8 -1.4l2.2 -1.1l2.6 -0.8l1.7 -0.2l0.6 -1.2l-0.2 -2.5l1.2 -1.9l0.2 -1.1l0.7 -1l1.1 -1.1l1.7 -2.4l-3.3 -0.2l-0.4 -1.2l0.5 -1l0.2 -1.2l1.2 -1.2l-1 -0.5l-1 -0.6l-0.6 1l0.7 1l-1 -0.1l-0.1 1.1l-1.1 0.1l-0.3 -1l0.1 -1.1l-0.3 -1.5l0 -2l-0.3 -1.3l-0.1 -2.8l0.2 -2.8l0.1 -1.2l-1.1 -0.9l-2.9 0l0.5 2.2l-0.1 1.5l-1.3 0.2l-1.4 1.9l-1.9 1.4l-1.7 -0.9l-1 -1.2l-2.7 2.3l0.3 2.9l0.7 1.9l0.1 1l-0.2 1l-3.9 -0.1l0.1 1.4l-0.6 1l0.1 1.5l-0.6 1.4l0 2.1l0.2 2.3l0.8 1.3l-0.8 1.2l-1.2 0.6l-0.4 1.4l-1.8 0.7z"/><path data-zip="00729" d="m745.7 47.4l0.8 1.3l-0.2 1.1l2 0.9l1.8 0.6l1.6 0.6l-0.7 1l1.2 0.2l-1.1 1l-0.1 1.3l-1 0.5l0.5 2.9l-0.3 1.3l0.3 1.5l0.7 1.5l-0.1 1l0.1 1.3l-1 0.4l0.7 1.5l1.1 -0.1l1 -0.8l1 0.8l-0.4 1.1l1.1 1.4l-0.2 1.5l-0.8 1.6l-0.2 1l0.3 1.2l1.2 0l0.9 1l-0.3 1.2l-0.9 1.3l0.7 1.7l-2 0.8l-0.3 1.3l0.5 1.1l0 1.2l1.3 0.3l-1 1.2l-1 0.5l-1.4 -0.4l-0.1 1l0.9 2l1.4 0.7l0.1 1.1l0.1 1.2l-0.1 1.1l0.7 1l-0.4 1l-1.4 -0.2l-1 0.4l-1.3 0.2l1.5 0.8l1 0.7l1.8 -0.1l1.2 0.5l1.6 0.9l1.1 0.6l1.2 0l1.8 -0.1l1.2 0.4l0.7 1l1 0.6l1.1 0.1l1.7 1.4l1 -0.1l1.3 0l0.5 -1l1.5 -0.3l1.2 0.2l2.3 0.4l2.4 -1.2l1.5 -2.4l1 -2.6l0.3 -1l-0.1 -1.3l-1 -0.1l-1.5 -0.6l-0.4 -1.2l-1 -0.2l-2.3 -1.5l-1.2 -1l-0.5 -1.1l-1.2 -0.9l-1.7 0l0.4 -1.2l1.1 -1.2l0.6 -1.2l-0.8 -1.5l-1.4 -0.9l-0.4 -1.2l0.1 -1.8l1.6 0l0.4 -1l-0.2 -2.7l-0.7 -2.1l-2.2 -1l-0.3 -1l0.3 -1.3l-0.1 -1.3l-0.6 -1.5l0 -1.5l-0.6 -1.6l0.5 -1.3l-0.7 -1.1l0.6 -1.3l-1.2 0.3l0.5 -2.4l1 -0.9l2.1 -1.2l0.8 -1.4l1.4 -0.7l0 -4.1l-0.5 -3.7l-3 -1.4l0.7 -1.6l-1.9 -0.1l-1.6 -0.6l-2.1 -0.2l-1 -0.2l-2 0l-2.3 -0.7l-3.8 4.8l-1.8 -1.8l-1.8 1l0.1 1.1l-1.2 -0.5l-1.7 1.4l-1.1 0.9z"/><path data-zip="00730" d="m482.6 181.5l-0.2 2.8l0.3 2l0.1 2.1l0 2l0.3 1.5l-0.1 1.1l0.3 1l1.1 -0.1l0.1 -1.1l1 0.1l-0.7 -1l0.1 -1l1.5 0.6l1 0l-1.2 1.7l-0.2 1.2l-0.5 1l0.4 1.2l3.3 0.2l1.9 0.1l2.2 -0.3l1.3 0.3l1 -0.6l-5.55112e-17 -2.3l0.4 -1l8.2 -7.1l0.3 -1.2l-0.1 -1.1l-0.5 1.2l-0.9 -1.9l-1.2 0.9l-1 -2l-1.3 -1.7l-2.4 1.4l-1 0.5l1.1 2.2l-0.3 1.3l-1.2 0.4l-0.6 -1.3l-0.9 2.2l-0.2 -1.2l-2.7 -0.7l-1.5 -0.1l-2.3 -0.8l-1 -0.9l-1 -1.3l-2.7 -0.7z"/><path data-zip="00731" d="m461.7 150.2l1.5 0.1l0.7 1.9l1.2 0.5l1 1.4l0.7 1.9l-0.1 1.5l1.1 1.8l0.9 1.1l0.4 1.8l-0.5 2.1l0.9 1.4l-0.6 2.5l-0.7 1l0 1.8l-0.2 1l0.4 1.4l-0.8 1.1l-1.1 1.3l-0.2 2.4l-0.5 1.5l1.3 1.6l1.7 1.3l2.2 0.9l0.6 1.1l1 1.2l1.9 1.3l0.9 -1l2.2 -2.7l1.3 -0.2l0.1 -1.5l-0.5 -2.2l2.5 0l1.1 0l0.3 2.1l2.2 0.1l0.9 1.9l1.6 0.9l1.7 0.4l2.1 0.5l2 0.6l0.3 1.6l0.7 -1.6l1.4 -0.5l1.2 0.5l0.3 -1.3l-0.9 -1.6l0.8 -1.1l2.4 -1.4l1.3 1.7l0.1 1.5l0.8 1.4l1.3 -1.8l0.2 1.3l0.7 -1.2l0.6 1.7l1.5 0.2l-0.5 -2.1l-0.1 -1l-0.9 -1.6l-0.1 -1.7l-1.2 -1l1 -1.1l-0.6 -1.7l1.8 0.3l-0.2 -2.2l1.3 0.6l1.1 0.2l1.1 -0.8l-0.4 -2l0.7 -2.1l-0.1 -1l-0.4 -2l0.8 -1.1l-0.2 -1.3l-1.5 -1.6l-1.9 -1.7l-0.6 -1.4l-0.7 -1.8l-0.7 -1.3l0.3 -1.5l-0.4 -1.8l-0.6 -1l-1.3 0.1l-2.4 1.7l-1.2 0.1l-0.8 -1.5l-1 -0.5l-0.8 -1.2l-0.7 -1l-0.6 -1.2l0.4 -1.1l1.6 -2.2l1.1 -0.3l0.9 -2.1l1 -0.9l-1 -0.8l-0.5 -1.1l-1 0.1l-1.6 0.2l-1.3 -0.7l-1 0.1l-2.1 0.4l-1.1 0.5l-1.2 -0.8l-1.2 1.1l-0.3 1.2l-0.3 1.1l-1.6 -0.8l-0.8 -1l-1.1 0l-0.4 -1l-1.1 -0.2l-1.2 -0.6l-1.4 -0.1l-1.3 1l-1.3 -0.1l-1.4 1.3l-2.3 0.3l-1.9 0.8l-0.4 -1l-1.1 -0.6l0 1.1l0.5 2.7l-0.3 1l0.2 1.1l1.2 0.5l-1.7 0.4l-1.2 -0.5l-2.2 -0.6l1.4 -1l-0.7 -1l-1 0.5l-2.2 3.6l-0.4 1z"/><path data-zip="00735" d="m807 90.6l-0.5 1.3l0.6 1.5l1 2l1.1 0.6l1.2 0.8l0.8 1l1.7 0.8l1.8 0.5l2.2 0.3l0.9 1l1.5 1l0.8 1l2.3 0.1l1 0l-0.2 -1.8l1.4 0l1.5 0l1.1 0.5l1.6 1.8l0.3 1.3l1.1 0.6l0.1 1.2l0.4 1.2l0.3 1l0.6 1.3l2.3 -2.1l0.5 1.1l0.7 1.2l1.3 1.4l1.6 0.8l1.5 0.6l1.5 0.3l0.7 1l1.8 0.2l1.8 -0.8l1.4 0.3l-0.4 1.6l-0.3 1l-0.9 1l-0.4 1.1l0.9 1.2l-0.5 1l0.2 1l1.4 -0.2l1.4 0.6l1.2 1.3l1.6 0.3l2.3 -0.1l3.2 -0.5l1.1 -1.7l0.6 -1.2l-1.4 0.2l-1.2 0.7l-0.1 -2.1l1.2 0l-0.4 -1.5l0 -1.1l-1.8 -0.5l-1.1 0.8l0.5 -1.9l0.5 -1.1l-0.6 -1.7l1.5 -1l1.4 -1.2l1.5 -1l-1.4 -1l-0.8 -1.5l-1.8 1l-1.1 -0.4l-1 0.7l-1.6 0.2l-0.6 1l-1.1 0.2l-0.9 -1l-0.3 -1.5l1.3 -2.2l0.7 -2l1.2 -1.1l2.2 -3.3l1.2 -0.5l0.2 -1.9l1 0l0 -1l1.3 0.1l-2.1 -0.9l0.4 -3.7l-2 0.6l-1.1 0.4l-1.7 -0.5l-1.9 0.1l-1.2 -0.8l-1.9 -0.4l-1.3 -0.9l-0.8 1.2l-1.1 0.1l-1.4 0.4l0.1 1.4l-1.7 2l-1.5 -0.5l-1.3 -1.3l-1.1 -0.6l-1.9 -1.8l-1.3 1.2l-0.9 1l0.3 1.2l-0.5 1l-0.5 1.4l-1 -0.6l-1.2 0.8l-1.2 0l-1.6 1.1l-1 -0.5l-1.4 -0.8l-1.9 -0.3l-1.8 -1.3l-1.1 0.4l-1 -0.5l-0.1 -1.1l0 -1.1l0 -1l-0.8 -1.4l-1.3 -0.8l-0.5 -1l-1.2 -0.6l-1.5 -0.9l-1.7 0.9l-1.1 1.4l-1.9 2.3z"/><path data-zip="00736" d="m636.9 160.9l0.1 1.8l0.1 1.2l1.3 0.5l1 0.5l0.7 1.3l0.5 1.2l-0.1 1.5l0 1.1l1.4 1.8l2.2 2.8l1.2 -0.2l0.7 1.4l-0.2 1l0 1.6l-1.2 1.2l-0.1 1.6l1.1 1.8l1.1 -0.4l4 -1.2l1.6 -0.1l2.1 -1.1l1.7 0.1l1.1 0.7l1.2 -0.1l1.7 0.8l1.7 0.2l0.2 1.1l0.6 1.1l2.1 0.5l1.2 0.2l1.1 0.1l0.5 1.2l1.4 0.5l1.4 -0.1l1.1 -0.4l1.3 -0.3l-0.3 -1.2l0.6 -1.4l0.1 -1l1.5 -2.4l0.3 -1l-0.1 -1.2l1.3 -1l-0.7 -2.1l0.4 -1l-0.2 -1l-1.4 -0.6l-0.4 -1.4l0.8 -1.2l-1.6 -2.3l-0.1 -1.5l0 -1.3l0.6 -1.1l1.6 1.3l2.2 0.6l1.3 0.8l0.5 -2l0.9 -1.1l1.2 -0.5l1.1 -1.3l0.8 -1.3l1.2 -0.4l1.3 -0.2l1.4 -0.2l1.5 0.9l1.2 0.5l1 0.1l1.9 -0.8l1.2 -1.2l0.3 -1l0.1 -1.5l1.7 -0.1l2 -1l-0.3 -1.7l-0.5 -1.3l-1.1 -2l-0.9 -1l-1.8 -0.5l-0.9 -1.3l-1.1 -0.1l-0.6 1.4l-0.1 -1.4l1.3 -0.7l1.1 -0.2l1.5 -0.2l1.2 -1.6l-4.3 -2.1l-1.2 -0.9l-1.8 -1.7l-1.7 -1.9l-0.8 -1.4l-1.3 -0.6l-1.5 -0.6l-1.5 -0.7l-1.8 2.5l-0.8 1.1l-2 1.2l0.1 1.2l1 0.7l0.3 1.8l0.3 1.5l-1 0.6l-1.1 -1.1l-1.1 -0.5l0.8 1.7l0.3 2.1l-1 0l-1.4 -0.3l-1 0l-1.2 0.3l-0.3 1l-1 0l-1.9 -0.9l-1.1 0.4l-2.8 -0.9l0 -1l-1 0l-1.5 0.1l0 -1.1l-1.4 -0.9l-1.7 0.9l0.6 1.2l0.2 1.1l-1.1 0.4l-0.2 1.2l-0.8 -1.1l-0.6 1.3l-1.4 0l-1.2 -2l-0.9 -1.1l0.7 -1.4l-0.4 -1.9l-1.6 0.2l-1.6 0l-1.6 -0.2l-0.6 1.1l0.1 1l-0.2 1.2l-1.6 -2.7l-0.9 -1.1l-0.7 -1.7l-0.8 -1.3l-1.4 0.1l-1.2 -1.1l-1 -0.6l0.4 1.3l-1.4 -0.3l-1.1 0.9l-0.9 2.3l0.2 1.8l1.6 0.4l-0.5 1l0.1 1l0.3 1.7l-0.5 1.2l-1 1.3l0 1.1l0.3 1.7l-0.2 1.5l-1.6 0.9l0 2.1l0.2 1.3l-0.3 1.3l0.1 1.3z"/><g data-zip="00738"><path d="m878.8 51.9l0 1.3l-0.1 1l1.1 -0.2l0.5 -1l-1.3 -0.9z"/><path d="m878.4 63.3l0.8 1.8l0.5 1.7l1.2 -0.4l0.1 -1.9l-1.3 -1.1l-1.2 -0.1z"/><path d="m870.5 48.9l0.8 1.2l0.4 1.6l1.1 0.3l1 -0.1l0.7 -1.5l-1.4 -1.3l-1.5 -0.4l-1 0.1z"/><path d="m811.4 85.4l1.6 1.1l1.4 1l0.5 1l1.3 0.8l0.8 1.4l0 1l0 1.1l0.1 1.1l1 0.5l1.1 -0.4l1.8 1.3l1.4 0.3l1.1 0.3l1.8 1l1.6 -1.1l1.2 0l1.2 -0.8l1 0.6l1.2 -0.9l-1 -1.2l0.4 -1l1 -1.5l1.3 -1.1l1.6 0.9l1.4 1.4l1.3 1.3l1.5 0.5l0.9 -1.3l0.7 -2.1l1.4 -0.4l1.1 -0.1l0.8 -1.2l1.2 0.5l1.2 0.8l1.1 0.4l2.1 0.3l1.5 0.5l1.3 -0.2l1.9 -0.8l1 -0.1l1.8 -0.2l-0.4 -1.4l0.1 -1.2l0.8 -1.1l1.6 -1.8l0.4 -1.9l-0.5 -1.7l-1.2 -1.2l0.4 -1.6l0.2 -1.1l0.1 -3.3l-1.1 -0.6l-1.5 0.8l-1.2 -0.3l-0.6 -1l-1.3 -0.5l0.3 -1.3l1.4 -0.2l1.2 -1.7l1.1 -0.5l0 2.3l0.1 -2l0.3 -1.3l-0.9 -1.6l0.6 -1l1.1 -1.1l1.6 -2.4l0.7 -2.1l1.1 -1.1l1 -3.7l0.8 -1.3l0 -1.6l-1.2 -1.4l-2.3 0.3l-1.1 1.5l0.1 1.4l-0.3 1.3l-1.5 1.4l-1.8 1.1l-1 -0.7l-0.2 -1.8l-1.6 -1.1l-1.8 1.5l-1.3 1.8l-0.3 1.1l-1.3 1.3l-3.7 0.7l-1.1 -0.2l-0.7 1.4l-1.2 1.9l-1.4 2.3l-0.7 1.3l0.6 1.1l-0.4 1.3l-0.6 1.3l-0.6 1.2l-1.3 1.3l0.6 2.2l-2.6 0l-1.5 -0.3l-1.3 0.4l-1.3 1.2l-1 0.9l0.2 1.7l-0.2 1.3l-0.6 1.1l-1 0.5l-1.1 -0.1l-2.7 0.1l-0.3 1.8l-0.1 2.3l-1.3 0.2l-0.6 1.4l-1 0.2l-1.3 0.5l-1 -0.1l-0.8 -1l-0.4 -1.1l-1.3 -0.4l-0.9 -1l-1 -0.2l-1.5 -0.6l-0.6 1.1z"/></g><path data-zip="00739" d="m630.3 129.8l0.1 1.1l1 0.1l1 0.7l1.2 1.1l1 1.2l1.1 0.6l0.7 1l1.2 1.2l-0.2 1.6l-1.4 0.3l1.2 1.9l-1.3 1.2l2.5 1.2l-0.2 -1.8l0.9 -2.3l1.1 -0.9l1.4 0.3l-0.4 -1.3l1 0.6l0.4 1l1.5 -0.4l1.2 0.8l1 2.6l0.9 1.1l1 2.8l0.8 -1.3l-0.1 -1l0.6 -1.1l1.6 0.2l1.1 0.4l2.1 -0.6l0.4 1.6l-0.7 1.7l0.9 1.1l0.5 1.7l2.1 0.3l0.5 -2.1l0.2 1.5l2 -1.2l-0.2 -1.1l-0.6 -1.2l1.7 -0.9l1.1 0.5l0.1 1.2l1.7 0.2l1 0l0 1l2.1 0.5l1.9 0.3l1.1 0.2l1.7 0.9l0.3 -1.5l1.2 -0.3l1 0l1.1 -0.4l0.8 1l-0.3 -1.6l-0.3 -2.5l1.1 0.5l1.1 1.1l1 -0.6l-0.3 -1.5l-0.6 -1l-0.7 -1.5l-0.1 -1.2l2 -1.2l0.8 -1.1l1.3 -2.2l0.8 -1.6l0.9 -3.2l-2.9 -7l-3.1 -3.5l-1.4 0.4l-1.2 0.4l-1.6 1.5l-1.2 1.4l-1.1 0.7l-2.2 0.3l0.9 -1.2l0 -1l0 -1.4l-0.1 -1.2l-1.3 0.1l-0.7 -1.3l-1 -0.1l0.5 -1.4l-0.1 -1.9l0.7 -1.3l0 -1.1l-1.9 0.5l-0.5 1.3l-3.1 0.9l-1.2 0.2l-1.5 -1.4l-1.1 -0.2l-0.2 2.5l-1.8 0.9l-1.5 1.1l-0.9 1.5l-1.2 0.6l-0.1 1.1l-0.2 1.4l-1.8 -0.1l-1.6 0.5l-1.9 1l-2.1 0.2l-1.3 1.2l-1.6 3.1l0.5 1.5l-0.1 1.2l0.3 1.4l-1 1l-1.8 -0.6l-1.6 -0.6l-2.6 -2l-0.3 -1.3l-3.6 -0.2z"/><path data-zip="00740" d="m852.5 71.6l1.1 0l0.1 1.8l2 0.3l0.7 -1.3l1.9 0.8l0.1 -1.5l-1.1 -0.8l-1 -0.4l-0.9 -1.7l-1.4 1.6l-1.4 0.2l-0.4 1z"/><path data-zip="00741" d="m803.5 139.8l1.6 0.6l0.3 1.8l-0.6 1l1.4 0.9l0.4 -1.1l1.1 -1.1l3 -2.4l3 -1.6l1.6 -0.6l0.9 -1.7l0.5 -1.8l-0.4 -1.5l0 -1.8l-1.2 0l-1.3 0.2l-0.8 1l-1.9 0.3l-1.5 1l-0.7 3.1l-2.1 1.3l-1.5 -0.5l-1.8 2.9z"/><path data-zip="00745" d="m765.5 58.5l0.3 1.5l0.7 1.1l-0.5 1.3l0.6 1.6l0 1.5l0 1.3l0.1 1.5l0.3 1.3l0.3 1l1.6 0.5l1.3 2.6l0.7 2l-0.5 1.1l-2 0.6l-0.1 1.8l0.4 1.2l1.7 0l0.5 2.4l-0.6 1.2l-0.5 1l-0.7 1l1.4 0.4l1.2 0.9l0.5 1.1l1.2 1l2.3 1.5l1 0.2l0.4 1.2l1.3 -0.1l1.2 0.8l2.6 2.1l1.6 -0.6l1 -0.2l1.1 -0.1l0.7 -1.2l0.5 -1.1l1 -1.4l0.8 -1.3l0.9 -1.3l1.5 0.3l1.2 0.2l1.1 -0.5l1.5 0.5l0.9 -1.2l-0.1 -1.1l-0.3 -1.5l-0.2 -1.4l-0.1 -1.1l0.4 -1.5l2.7 -1.3l1.3 -1.6l0.4 -1.7l0.1 -2.3l-0.1 -1.1l0.2 -1.1l3 0.1l1.5 0.9l0.7 1l1.2 -1.2l1 0.3l1.6 -0.3l0.7 -1.4l0.6 -2l0.3 -1.1l-1 -0.5l-0.2 -1.2l-2.5 -2.3l-0.5 -1l-1.4 -0.7l-0.1 -1.2l-0.1 -1.4l-0.5 -1l1.2 -0.8l1.1 -1.3l0.9 -1.3l0.4 -1.5l1.7 -0.7l1.1 -0.2l0.6 -1.4l1.1 -1l-1.9 -1.5l-1.8 -1.3l-0.8 -1.9l-2 -0.3l-1.8 -1.1l0.1 -1.7l0.7 -1.6l-0.4 -1.3l-1.7 -0.6l-1.1 1.1l-1.5 1l-2.8 1.1l-1.6 -0.1l-1.1 -0.7l0.4 -1l1.6 -1.5l1.2 -1.5l-0.4 -1.3l-1.1 0.1l-1.9 1.8l-1.2 1.4l-1.3 0.7l-1 0.5l-2.5 0l-1.8 -1.5l-0.6 -2.5l-1.7 -0.5l-1.1 -0.9l1.1 5.8l-0.3 1.1l1.2 2.7l0.2 1.5l-1.2 1.5l-1.6 1.4l-0.7 1.6l-1.3 -0.1l-1 -0.3l-1 -0.2l-1.6 0.4l-1.1 1.2l-1.4 0.6l0.2 -1.9l0.1 -1l0.2 -1.8l0.9 -1.8l0.3 -1l0.7 -1.7l-1.4 0.4l-1.2 0.6l-1.2 2l-0.3 1.2l0 1l-0.8 1.5l-0.5 1.2l-1.5 0.7l-1.2 1.2l-1.7 1.3l-1.2 0.9l-0.3 2.5z"/><path data-zip="00751" d="m593.4 203.5l0.2 2l0.4 1.3l1.3 0.6l-0.1 1.9l4 -0.2l2.1 0.3l2.3 0l1.4 1.8l0.4 2.2l2.2 2.7l3.3 4.1l2.5 2.6l3.8 -1.7l2.2 0.4l2.9 1.1l2.5 3l3.6 2.4l-2.4 4l1.6 1.7l3.4 1.3l3 0.3l3.1 -0.1l2.2 -1.1l-2.5 -3.7l1.5 -2.1l1.1 -1.9l-0.8 -1.3l-0.7 -1.4l0.5 -1.3l-1.9 -1l-0.4 -1.1l-1.4 -0.3l-1.6 -1.3l0 -1.7l0.6 -3.1l-2.2 0l-1.3 0l0 -1.6l-0.5 -2.6l-0.3 -2.3l-1.3 0.1l-1.2 1l-1.7 0l1 1.2l-1 0.5l-0.4 -1.1l-2.2 -0.6l-0.1 2.4l-4.9 -0.2l0.9 -1.6l2.2 -0.8l1.3 -1.3l-1.3 -0.5l-1.1 -0.1l1.3 -1.3l4.4 -1.8l1.1 -0.7l1.1 -0.8l4.9 -0.2l2.4 0.2l2.6 0.4l1.3 0.2l4.5 0.3l0.9 -6.5l0.9 -1l0.5 -1l1.1 -0.5l1.2 -0.2l1.1 -0.2l1.3 -1.5l1.9 -0.5l1.5 -0.1l-0.4 -1.2l1.1 -1.3l1.1 -0.3l1.8 -3.8l1.4 -2.8l-1.6 -0.5l-1.1 -0.7l-1.7 -0.1l-2.1 1.1l-1.1 0.2l-3.8 0.5l-1.8 1l-1.1 -1.8l0.1 -1.6l1 -0.7l0.2 -2.1l0.2 -1l-0.3 -1.2l-1.6 0l-2.1 -2.7l-1.5 -1.9l0 -1.1l0.1 -1.5l-0.5 -1.2l-0.7 -1.3l-1 -0.5l-1.3 -0.5l-1.9 0l-1.7 0.1l-1.3 0.7l-1 0.1l0.1 3.3l-0.4 1.1l-0.8 1l-0.7 1l-4.9 0.5l-2.2 1.4l-1 0.6l-1.5 0.6l-2.1 -0.2l-1.2 0.2l-0.7 1.6l-1.3 2l-0.2 1.1l-1.8 1.3l-0.2 1.9l-1.2 1.2l0.3 1.9l0.1 2l1.3 0.7l1.1 1.1l0.8 -1.8l1.5 -0.5l2.5 0.2l1 -0.3l1 -0.5l1.5 -0.5l1.5 -0.5l1.1 -0.3l-0.8 1.3l0.9 1.7l-0.4 1.4l-1.6 0.4l0.5 1l-1.1 -0.9l-0.2 1l-2.2 0.5l-0.7 1.1l1.6 0.6l-0.2 1.4l-1 0.9l-2.8 0.8l0.6 1.4l0.9 1l0.1 1.4l0.3 1.4l-1.9 0.4l-1.2 1.3l-1.4 -0.1l0 1.6l0.4 1.3l0.5 1.9l-3.2 -0.2l2 -1.1l-1 0l-1.3 -0.3l-1 0.6l-1.2 -0.4l-1.7 0.9l-1.7 -0.4l-0.9 -1.7l-1.2 -0.4l-1.3 -0.6l-1.1 -0.5l-0.7 -1.1l-2.1 -1.4l-0.5 1.6l-0.5 1.3l-1.6 0.8l-1.2 -0.4l0.9 -1l-1 -0.4l-1.7 0.5z"/><path data-zip="00754" d="m700.7 156.8l0.6 1l1.7 1.8l1.8 1.1l1.3 -0.1l1.9 0.6l2 0.4l1.2 -0.3l2 -0.1l0.6 1.4l1.7 1l0 1l-1.3 0.8l0 1l-1.2 2.1l2 2l0.3 1l1.1 0.3l1.1 -0.1l1.5 -1.3l1.1 -0.9l0.5 -1l1.2 -0.3l0.3 -1.4l1.4 -0.7l1.7 0.2l1.3 -0.1l0.7 -1.4l1.1 -0.6l1.6 1.7l1 0l1.5 0.6l1.4 0.6l1.5 -0.6l1.1 -1l1.2 -0.3l1 0l1 0.5l1.1 0.7l1.3 0.3l1.9 -1.2l1.1 -0.5l1.2 -1.5l-0.7 -1.2l1.3 -0.6l0.1 -1.3l1.4 -0.5l-0.6 -2.1l-0.5 -1.6l0.4 -1.4l0.2 -2.6l0 -1.3l0.3 -1.3l1.4 -1l-0.4 -1.3l-1.2 -0.3l-1.1 -1.1l-2.77556e-17 -4.4l-1.1 -2.7l0 -1.1l0.5 -1l-0.5 -1.2l0.3 -1l-0.1 -2.2l1.4 0.2l-0.2 -1.1l0.1 -1.4l-0.1 -2l-0.8 -1.6l0.2 -1.7l-1.5 0.5l-1.3 -1.3l-1.1 -1.3l-1.6 -1.4l-1.4 -1.5l0 -1.2l-1.4 -1l0.3 -1.2l0 -1.3l-0.1 -1.2l0.7 -1.1l-1.1 -0.3l-1.3 0.1l-1.9 -0.3l-1.4 0l-1.4 0.2l-0.1 1.1l-1 1.6l-1.6 0.4l1.2 1.2l0.4 2l-0.2 2.5l-0.1 1.4l-0.3 1l-1.9 -1.3l-2.1 0.2l-1.2 -0.1l-0.8 -1.6l-1.5 -0.3l-1.1 0.5l-0.9 1l-0.4 1.1l0.1 1.7l0.5 1.6l-0.1 1.9l-1.6 1.3l-2.8 -0.2l-0.3 1.4l0 1.5l-1.8 1l-0.5 1.9l-0.8 1.5l-0.8 1.4l0.7 1.9l1.8 2.2l0.3 1.2l-1.1 1.2l-1.3 0.1l0.3 1.2l-1.1 1.1l-0.7 1l-0.3 1.9l-2.1 0.6l-0.5 1.3l0 1.5l-0.8 1.2l-0.2 1.1l-2.6 2l-2.7 -0.4l-1 0.7z"/><path data-zip="00757" d="m552.9 208l2.2 1.1l1 0.8l2.8 3l2.2 3.1l1.1 0.7l1.5 -0.2l2.2 0.1l1.9 1.1l0.3 1l2.2 0.6l1 0.1l1.4 0.9l1.3 1l1.4 1l0.5 1.4l1.9 0l-0.1 1.2l1 -0.9l0.7 -1.2l1.4 -1.2l0.3 -1.3l1.7 -0.2l1 -1.1l-0.5 -1.5l0.2 -1.3l1.4 0.7l1.7 -0.4l1 -1.8l1 -0.3l2.8 -2l1.1 -0.6l2.3 -1.4l-0.8 -2.2l0.3 -1.1l-1.1 -1.4l0 -1.2l0.6 -1.6l1 -2.5l0.8 -1l0.2 -1.3l1.3 -1.7l0.2 -1.3l-0.3 -1.1l-1.4 -1.6l-1.5 -0.1l-1.3 -0.7l-1.5 -0.3l-0.5 -1.5l-1.1 -0.8l-1 -0.9l-0.7 -1.3l-1.7 -0.1l-1.9 0.6l-1.9 1.2l-1.1 -0.5l-1.2 -0.2l-1 -1.1l-1.7 -0.5l-1.2 -0.6l-1.5 0.5l-1.1 0.8l-11.8 -2.2l0.3 1.4l0.1 2.1l0 1l1 0.2l-0.4 1.2l0.7 1.2l0.4 1.2l0.1 1l-1.2 1.7l-0.5 1.3l-1 0l-1 0.7l-1.5 1.3l-0.2 1.7l0.2 1.3l-0.3 1.6l-0.5 1.1l-1 -1.1l-1.2 1.8l-1.5 1.2l-0.9 1.3l-1 0.9z"/><path data-zip="00765" d="m902.2 161.1l0.1 2.1l3.2 0.1l1.2 1.1l1.1 -0.2l1.4 0.3l2.1 -0.6l1.8 -0.4l1 0.2l1.8 0.6l1.3 0.6l0.4 -1l1.8 -0.8l1 0l-0.4 -1.5l-1.4 -0.2l-1.1 -0.6l-0.6 -2.8l5.2 -0.8l0.1 -4.5l1 1l1.1 0.1l0.4 1.3l0.7 1l3.1 -0.4l0.1 -2.2l0.9 -2.7l1.4 1l1.2 -1.1l-0.3 -1.1l-1.7 -1.2l0 -1.3l0.4 1.1l1.2 -0.3l-0.2 -1.1l1 0.4l2.3 0.6l1.3 0.1l-0.1 -1l1.2 -0.7l1.5 -0.4l1.2 -0.9l1.5 0.2l0.3 1l0.4 1.3l1.9 0.8l1 0.6l1.9 1.6l2.9 2.7l1 0.6l0.2 1l0.1 3.1l0.5 1.2l-0.2 -1.3l0.1 -1.5l0.5 -1.1l1.2 0.2l-0.6 -1.1l-0.2 -1.6l1.3 -0.4l1.2 0l1.7 -0.4l-0.4 -1.1l1 -0.8l1.4 1.4l1.3 0.4l1 0.3l1 -0.4l-0.4 1.5l1.4 -0.3l1.3 -0.2l-0.5 1.2l1.2 -0.1l1.2 -1l-0.6 1.3l-1.2 1.2l-1.8 0.8l2.1 0.3l0.8 -1.5l0.9 -1l1.2 -0.2l-0.1 -1.6l-2.1 0.1l-2.2 -1.3l-1.4 0.4l-1.8 -1.1l-0.5 -1.1l-2.1 -1.6l-0.3 -1.6l-0.3 -1.2l-1.4 -0.4l-1.1 -1.1l-1 -0.1l-0.6 -1.6l0.4 -1.1l-1.5 0l-1.7 2l-1.3 -0.4l-1.1 -0.8l-1 1.1l-1.1 0.4l-1.4 -0.1l-1.7 0.3l-1.6 0l-1 0.5l-1.1 -1.7l-1.2 -1.3l-0.9 -1l-1.2 -0.5l-2 0.2l-1.8 0.2l-1.4 0.1l-2.5 1.3l0.2 1.2l-0.5 1.8l-5.5 1l-2.8 0.4l-2.4 0.6l-3.4 1.3l-1.2 0.9l-0.7 1.2l-1.3 0.8l-1.5 -0.4l-1.2 3.9l-1.4 0.1l-0.2 1.2l-1 -1.11022e-16l-0.8 1.7l0.2 1.8l0.1 2.7z"/><path data-zip="00766" d="m517.7 140.7l0.6 1.7l0.4 1.1l1.2 0.1l1.3 -0.6l1 -1.3l1.4 -0.2l1.2 -0.1l1.3 0.2l0.7 1.4l-0.4 1.5l-1.4 2l0.2 1.2l-0.6 1.9l1.2 3l-0.6 2l0.5 1.4l-0.1 1l-0.5 1.2l-1 0.6l0.3 1.5l0.1 1.4l1.7 1.1l0.8 1.2l0 2l1.4 1.8l1.3 0.5l1.3 0.6l1.3 0.5l1 -0.6l0.9 -1.1l0.1 -1.3l-1.3 -1.4l1.2 -1.4l1.8 -0.3l1.8 -0.7l0.8 1.2l1 0.4l1 1.2l1.2 1.3l1.1 0.3l1 -0.2l1.8 0.7l1.9 0.2l1.7 0.3l2.6 1.3l1.8 -0.9l2.3 -0.5l1.6 -0.1l1.8 0.4l1.6 0.7l0.2 -1.2l0.3 -1.7l0.5 -1.4l1.3 -1.5l0.4 -1.1l-1 -0.4l-0.7 -2.4l-0.1 -1.6l-1.1 -1.5l1.1 -1.2l0.4 -2l0.3 -1.3l0.6 -1.1l-0.2 -1.2l1.3 -0.8l0.2 -2.1l-2.77556e-17 -1.6l0 -1.3l-1 -1.4l-1.8 -1.7l-0.4 -1l-0.2 -2.1l-0.2 -1.3l-1.2 -2.3l-2.5 -0.1l-1.5 -1.1l-1.5 -0.1l-1 -0.7l-1.3 -0.3l-1.5 0.8l-1.2 -0.2l-1 -0.7l-1.4 0.5l-1 -0.1l-1 2.1l-1.6 0.9l-1.5 0.1l-1.2 0.6l-1.3 0.8l-0.4 -1.7l-0.7 -1.6l-1.4 -1l-1 -2.6l0.1 -1.8l-0.1 -1.4l-0.4 -1.5l0.3 -1.5l-0.3 -1.2l-1.3 0.4l-1.1 -0.3l-1.2 0.9l-1.4 -0.4l0 1.4l-0.3 1.5l-0.4 1.7l-0.4 1.6l0.8 1.8l0.6 2.7l-0.4 1.6l0.1 1.3l-1.2 -0.6l-1.5 0.9l-1.1 1.3l-1.4 0.4l-0.9 1.4l-1 0.5l-0.7 -1.3l-1.3 -0.6l-1.7 -0.5l-1 0.6l-0.7 2.1z"/><path data-zip="00767" d="m716.3 173l-0.1 1.6l1.2 0.7l1.6 1.6l1.1 0.7l1.3 0.2l1.2 -0.1l1 0.3l1.9 -0.1l1.8 -0.7l1 0l0.2 1.1l1.3 0.6l0.3 1.4l2.2 -0.3l1 -0.5l1.6 1.1l1.6 1.7l1.1 1.1l1.2 -0.4l2.2 0.9l0.6 1.2l1.6 -0.1l1.3 1.6l1 -0.2l1.3 0.4l2.1 0.7l1.4 0.2l1.3 0l1.4 -0.3l1.2 -0.4l1 0.7l1.8 0.7l1.1 -0.7l1.5 0.7l1.6 0.6l1 1.2l1.3 1.2l0.3 1.2l1.8 -0.1l1.4 -0.8l1.9 -1l1.1 0.1l0.9 1.5l1 0.3l0.8 1.6l1.4 0.9l1.2 1.4l2.1 -1.7l2 0.4l1.3 0.6l1 -1l1.1 -1.7l-0.9 -2.1l0.9 -2.1l-0.4 -1.1l-0.5 -1.3l-0.4 -2.6l1.1 -2.7l1.2 -1.8l1.6 -1.7l1.8 -1.3l1.4 1l2 1.3l2.5 -0.3l0.8 -1.3l0.2 -1.1l0.8 -1l0.3 -1.3l-1.3 0.1l-1 -0.7l-2.2 -0.2l-0.6 -1.1l-0.8 -1.8l-0.6 -1.1l-0.4 -1.6l-1.2 -0.5l-1.5 1.2l-2 0.1l-0.9 -1.9l-1.2 -0.5l-1.3 -0.3l-1.3 0l-0.1 -1.5l-1.4 -1l-1.1 -0.6l0 -1.1l0.9 -1.7l1 -1.4l-1.1 -1l0.4 -1l-1.8 -1l-1.2 0l-1 0l-1.2 0.6l-1.3 1.1l-0.2 1.5l-1.2 0.2l-1.5 0.1l-0.3 -1.8l-1.3 -0.7l-1 -0.2l-0.1 -1l-1.8 -0.7l-0.5 -1.1l-1.6 0.7l-1.8 -0.5l-1.1 -0.4l-1.7 -1l-1.5 0.1l-1 -0.2l-1.9 0.9l-1.5 0.5l-3 0.7l-0.3 1l0 2.2l-0.2 1.2l-0.2 1.5l-0.5 1.1l-1.3 0.7l0.7 1.2l-1.5 1.1l-2.1 1.2l-1.3 1l-1.2 -0.7l-1.5 -0.9l-1 0l-1 0.3l-1.3 1l-1.2 1l-1.7 -1l-1.3 -0.2l-1.2 -0.4l-1 -0.9l-1 -0.7l-1.4 1.9l-1.3 0.1l-1.1 0.3l-1.6 -0.3l-0.7 1.9l-1.2 0.3l-0.5 1l-1.1 0.9l-0.7 1.2l-1.3 -0.1l-0.7 1.7z"/><path data-zip="00769" d="m560.4 176.3l0.8 1.5l0.2 1.1l1 1.5l0.2 1.2l0 1.4l-0.4 1.4l11.8 2.2l1.1 -0.8l1.5 -0.5l1.2 0.9l1.7 0.2l1 1.1l1.2 0.2l1.1 0.5l1 -0.5l2.8 -1.3l1.2 0.1l1.2 1.3l1 0.8l1.1 0.4l0.2 1.5l1.2 0.9l1.9 0.6l1.5 0.1l0.9 1.2l0.7 1.3l1 0.2l-0.2 -1l1.4 0l1.4 -2.3l0.8 -1.3l1.1 -0.9l1.5 -1.3l0.2 -2.2l-0.3 -1.3l1.2 -2l2.2 -1.1l1 -1.1l1.3 -1.5l2.4 0.1l2.3 -1l0.6 -1.3l1.2 -2l1.4 -0.5l2.1 0.2l1 -0.2l-0.8 -1.5l1.5 -1.7l-1 0.3l-1.3 -0.2l-1.4 -0.4l-1 0.9l-1.4 -0.6l1.2 -0.7l1.3 -0.1l-0.3 -1.2l0.5 -1.1l1.1 -0.2l1 0l-1.3 -0.2l-0.1 -1.3l-1.5 -2.2l-1.6 0.1l-5.1 -4.3l-4.5 -3.7l-4.9 -4l0.8 -1.4l0.7 -1.4l1.3 -1.2l-1 -0.8l-0.4 -1.6l0.6 -2l-2.4 -0.5l-0.5 -2.3l-0.1 -1l0.4 -2.8l-1 -0.7l-1 -0.1l-1.2 0.1l-1.1 -0.9l-1 0l-1.4 1.1l-0.6 -1l-1.8 0.4l-1 0.6l-2.1 -0.8l-1.6 -0.8l-1.3 -0.1l-1.4 -0.1l-2.7 -1.2l-2.2 0.4l-1.3 -0.1l-1 0.1l-1.1 0.1l-0.5 1.6l-2.1 0.8l-2 0.5l-1.2 -0.9l-0.9 1.3l-1.3 0.3l-1.2 -0.1l-1.3 -0.6l-1.2 0.4l-1.6 -0.4l-1.5 0.6l0.2 1.4l-0.2 1.3l1.7 1.3l1.4 2l0.6 1l-0.2 1.4l-0.5 2.1l-0.8 1.5l-0.1 1.2l-0.6 1.1l-0.3 1.3l0 1.4l-1.4 1.1l0.3 1.6l0.6 1.7l0.4 2.3l1.5 1l0 1.1l-0.9 1.1l-1.4 1.1l-0.5 2.1l0.4 1l-0.3 1l0 1.5l1.1 2.2l-0.7 1.3l-0.8 1.8z"/><path data-zip="00771" d="m746.7 145.4l0.7 1.4l1.6 0l0.4 1.3l-1.2 0.1l-0.5 2.2l0 1.3l-0.6 1.9l3 0.4l1.8 -0.6l1.8 -0.6l1.6 -0.6l1.5 -0.1l1.3 0.7l1.5 0.7l1.8 0.5l1.6 -0.7l0.5 1.1l1.6 0.9l0.5 -1.6l0.5 -1.5l0.5 -1.2l1 -0.6l0.7 -1.5l0.8 -1.7l1.7 -0.9l0.4 -1.8l0 -2.3l0 -1.1l1.4 -3.4l0.9 -1.7l-0.5 -2.2l0.8 -1.5l1.5 0.5l1.1 -0.2l4.1 0.4l0.4 -1.9l0.9 -1.6l1.7 -1.1l0.9 -2.1l-0.1 -3.1l-2 -5.4l0.8 -5.6l1.4 -3.6l1.2 -2.8l0.9 -1.8l0.9 -1.1l0.2 -1.8l0.4 -2.2l-1.6 -2l-1.4 -0.4l-0.2 -1.1l-1.2 -0.6l-1.4 0.6l-1.9 -1.4l-1.1 1.6l-0.2 2.1l-1.8 2l-2 1.7l-1.2 1.4l0.6 1.2l-1.2 1.8l-1.1 1l-2.2 4.1l1.4 1.3l-1.7 0.2l-1.1 1.4l-0.6 1.2l-2 1.9l-1.8 2.1l-1.1 1l-1.8 3.8l-2.5 -0.7l-1.9 2.2l-0.9 1.2l-0.3 1.2l-0.1 1.3l-2.4 3.4l-0.8 1.2l-0.6 1.4l-0.6 1.3l-0.8 1.6l-0.7 2.1l-2.2 3.9l-0.6 1.2z"/><path data-zip="00772" d="m722.8 21.9l1.2 1.4l1.1 0.6l0.5 1.5l-0.3 2.3l1.8 1l1.6 0l2.1 0.7l0.4 1l0.9 1.6l1.1 -0.2l1.2 0.3l1.4 -0.1l1.3 -1.6l1.7 1.1l2.6 1l1.5 0.7l2 0.8l0.6 2.2l1.7 2.8l-0.7 1.2l1.5 0.4l1.5 0.1l0.1 2.4l2 -0.2l1.8 1.8l3.6 -4.9l3.8 -5.1l2.6 1l-1.6 1.4l1.4 -0.4l1.7 0l1 0.1l1.6 1.5l0.6 -2.2l1.1 0.2l1 1.4l0.5 2.8l1.7 -0.4l3.5 -0.4l1.2 0.2l1 0l0.2 2.2l2.2 -2.5l0.7 -1l0.8 -1.5l1.1 -0.7l-0.2 -1.1l-0.8 -2l-1.2 -0.5l-1.1 -0.2l-1.7 0l-1.6 -0.7l-1.8 -0.5l-3.3 -0.3l-1.1 -0.2l-1.9 -0.2l-2.7 -0.8l-4.2 -2l-2.3 -1.4l-0.9 -1.5l-2.8 -0.7l-1.6 0.5l-1.1 1.8l-1.8 0.8l-1.6 -0.3l-1.6 0.2l-2 -0.5l-3.2 -0.4l-3.5 -1.1l-4.9 -1.1l-3.6 -1.2l-2.1 -1.1l-1.4 -0.4l-2.4 0.5l-1.8 -1.1z"/><path data-zip="00773" d="m805.1 58.6l0.5 1l0.1 1.4l0.1 1.2l1.4 0.7l0.5 1l2.2 2.1l0.5 1.4l1 0.5l-0.3 1.1l0.2 1.6l-0.9 2l1.9 0.9l0.9 1.2l-1.1 0.7l-1.3 1.4l-1.1 0.3l-0.5 1l-0.2 1.1l-0.5 1.4l-0.1 1l0.1 1.8l1.2 1.9l-0.3 1.4l0 1.4l1.9 -2.4l1.3 -1.7l1.5 0.6l1 0.2l0.9 1l1.3 0.4l0.4 1.1l0.8 1l0.3 1l1.6 -1l1.4 -0.6l0.1 -1l1.8 -0.6l-0.2 -1.5l0.1 -1.7l2.4 -0.8l1.9 -0.1l1 -0.5l0.6 -1.1l0.2 -1.3l-0.2 -1.7l1 -0.9l1.3 -1.2l1.3 -0.4l1.5 0.3l1.7 0.7l0.7 -2.2l0.9 -2l0.6 -1.2l0.1 -1.1l0.9 -1.5l-0.6 -1.1l0.7 -1.3l-2.1 -1.2l1.3 -1l-7.4 -2.8l-1.3 -1.5l-1.9 -1.4l-0.3 -1l-1.5 1.2l1.4 -1.4l-0.8 -1.1l-1.4 -2.1l-1.2 -1.5l0.6 -1.1l-0.4 -1.8l-1.8 0l-1.3 -0.1l-1.4 -0.2l-0.1 1l0.6 1l-0.1 1.2l-2 1l-1.9 0.5l-2 -1.2l-1 -1l-1.1 1l-0.6 1.4l-1.1 0.2l-1.7 0.7l-0.1 1.1l-0.8 1.2l-1.1 0.9l-1.1 1.1z"/><g data-zip="00775"><path d="m964.6 79.9l0.7 2.1l1.6 1.7l0.4 1.4l1.3 1l0.2 -1.1l-0.1 -1.2l0 -1.1l0.2 -1.2l-0.3 -1.3l-0.4 -1l0.1 -1.2l-1.4 1.2l-2.5 0.9z"/><path d="m961.9 64.9l1.1 0.8l1.5 1.2l0.4 1.1l1.1 1.5l0.3 1.2l1.1 1.9l0.5 1.5l-0.3 1.5l1.4 -0.6l1.6 1.2l1.2 0.4l0.7 1.8l0.3 1.9l0.7 1.1l1.3 0.6l0.4 1.5l1 -0.2l1.5 -0.2l0 1.7l1.2 1.7l1 0.1l1.4 1.1l0.2 1.1l1.6 2.2l0.8 1.7l1.4 -0.4l1.6 -1.5l0.5 -1l0.2 -1.1l-1.3 0.1l-0.8 -1.2l-2 0.1l0.1 -1.4l0.7 -1.2l-1.1 -0.9l-1 -0.4l-1.9 -1.5l-2 0.1l-0.1 -2.2l1.2 0.1l1.5 0.4l2.1 0.7l-0.7 -1.2l1.3 1.3l1.3 -1.4l1.1 0.6l0.4 1.2l-1.5 -0.1l-0.1 -1l-0.6 3.6l3.9 3.2l1.8 -1.2l1.7 -1l0.9 1.4l0.1 1.4l1.3 0.1l1.7 -0.9l1.3 -1.3l1.2 -0.7l1.2 -2.2l0.2 -3.2l-1.6 -1.6l-0.9 -1.5l-3.5 -1.8l-1.8 -1.5l-2.7 -1.3l-1.5 -0.6l-1.1 0.7l-2.6 -0.3l-0.7 -1.5l-1.2 0l-0.7 1.6l-3.8 -0.4l-1.1 -1.6l-1.6 0.4l-0.4 2l-1.4 0.4l-1.3 -1l-0.7 -1.3l-0.8 -1.1l-1.1 -0.1l-1.9 -1.5l-0.5 -1.4l-1.1 -2l-1.9 -0.6l-1.4 1z"/></g><path data-zip="00777" d="m738.1 115.1l0 1.9l1.4 1l0 1.2l1.2 1.1l1.1 1l0.3 1l1.5 1.1l1.3 1.3l1.5 -0.5l-0.2 1.7l0.8 1.6l-0.5 1.6l0.8 1l-0.1 1.9l-1.4 -0.2l0.1 2.2l-0.3 1l0.5 1.2l-0.5 1l0 1.1l1.1 2.7l0.1 3.7l1.2 -0.8l1.7 -3.3l1.1 -2.1l0.4 -1.5l0.8 -1.8l1 -1.8l0.8 -1.2l2.4 -3.4l0.1 -1.3l0.3 -1.2l0.9 -1.2l1 -2l0.3 -1l2.5 1l2.4 -3.3l1.1 -1l1.8 -2.1l1.2 -1.1l1 -0.3l0.3 -1.1l0.9 -2.4l2 0.2l-0.9 -1.1l1.7 -4.3l1.1 -1l1.2 -1.3l-0.6 -1l0.3 -1.7l-1.4 -0.3l-1.9 -0.5l-1.7 0.5l-1.1 1l-1.7 0.1l-1 -0.7l-1.8 -0.8l-1 -0.6l-0.7 -1l-1.2 -0.4l-1.2 0l-1.8 0.1l-1.1 -0.6l-1.3 -0.4l-1.1 -0.7l-2.2 -0.2l-1 -0.7l-1.3 -0.6l-1.6 0.2l-2 0.4l-1.1 1l-1.4 1.3l-0.8 1.1l-1.7 3.5l-0.9 -1l-1 0l0.2 1.4l0.1 1.5l-1.4 0.5l0.4 1l1 0.4l1 1.2l1.1 1.1l-1 0.6l-1 -0.4l-1 0.7l-1.2 0.9l0.6 1.1l-0.6 1.7z"/><path data-zip="00778" d="m708.9 83.7l1.1 1.2l-0.2 1.2l-0.7 1.6l0.5 1l1.3 0.6l1.5 0.2l1.4 0.7l0.1 1.2l1.6 0.3l1.2 0.8l0.3 2.4l-0.4 1.2l0.6 1l-1.1 0.4l-1.1 0.2l0.1 1.6l1 2.7l0.1 1.3l-1.2 1.2l0 1.2l0.9 1l1.2 1.3l0.1 1.7l-0.6 1.2l-1.3 1l-0.2 1.1l1.1 1.6l1 0.3l1.2 0.6l1.9 0.1l-0.1 1.6l-0.1 1.5l0.8 1.3l1.5 -0.6l1.5 0.3l0.4 1.4l1.6 0.3l1.3 -0.2l2.7 1.3l0.3 -1l0.1 -1.4l0.3 -1.9l0 -1.9l-2.5 -2.1l1.9 -0.2l1.3 -1l0.3 -1.7l1.4 -0.2l1.4 0l1.9 0.3l1.3 -0.1l1.6 -0.5l-0.5 -1.2l1.6 -0.1l1 0.4l1 -0.6l-0.7 -1.3l-1.4 -1l-1 -0.4l-0.4 -1l1.2 -0.1l0.1 -1.3l-0.2 -2l1 0l0.9 1l1.7 -3.5l0.8 -1.1l1.3 -1.1l1 -0.7l1.4 -1l1.8 0l-1.7 -1.3l-0.2 -1l-1 -0.4l-3.1 -2.6l-0.9 -1l-0.4 -1.3l-1.2 -2l-1.2 -0.1l-1 -0.3l-2 -0.1l-1 -0.7l-1.6 -1.5l-1.4 -1.2l-1.1 -1.1l-0.2 -1.7l-1.6 -0.1l-4.5 -0.2l-1.6 0.4l-1.7 0.6l-1.6 1l-1.8 -0.6l-1.3 0.9l-1.6 0l-1.7 -0.8l-1.2 -0.4l-1.3 1.4l-1.3 0.7l-1.5 0.1z"/><path data-zip="00780" d="m493.8 138.3l0.8 1.5l0.8 -1.1l1.8 0.8l0.5 1.1l1 0.8l-1 0.9l-0.7 1.2l-1.3 1.2l-0.8 1.9l-1.2 1.4l1 0.5l0.3 1l0.6 1.2l0.9 1.3l0.4 1l1.9 0.3l2.4 -1.7l1.3 -0.1l0.6 1l0.4 1.8l-0.3 1.5l0.7 1.3l0.7 1.8l0.6 1.4l1.4 1l1.8 1.5l0.8 1.2l-0.5 1.5l-0.6 1.7l0.4 1.8l-0.4 1.6l0.4 1.7l-1.1 1.6l-1.1 -0.3l-1.6 -0.5l0.6 2l-1.4 -0.4l0 1.6l-1.1 0.7l1 1.4l0 1.3l0.6 1.5l0.6 1.9l0.5 2.1l-1.1 0.4l1.9 0.5l1 -0.6l1.3 -0.1l2.4 0l0 1l1.11022e-16 1.1l1.2 0.8l1.2 -0.9l2.1 -0.3l2.3 -0.3l-0.6 1l1.2 0.9l0.1 2.1l0 1l1.4 -0.2l-1 -2.7l0.2 -1l1.5 -2.1l-1.2 -2l-0.7 -2.5l1.1 1.1l1 0.3l1.3 -0.2l-0.1 -1l0.4 -1.1l-1.2 -0.1l-1.2 0.1l-0.9 -1.2l-0.9 -1.5l-0.7 -1.1l-0.1 -1.3l0.4 -1.1l-1.2 -1.7l-0.6 -1.2l0.2 -1l-0.6 -1.2l-1 -0.7l-0.4 -1.2l0.6 -1.5l1.4 -1.4l0.1 -1.7l-0.5 -1.4l-1.3 -1.4l-0.4 -1.3l0.1 -1.9l-1 -0.5l-1.4 -0.1l-0.3 -1l0.1 -2.1l-1.2 -2.6l0.9 -2.9l-0.2 -2.4l1.8 -1.1l1.5 -0.8l0.8 -1.1l-2 -1l-1.4 -0.7l0 -1l-1.1 -0.4l-1.3 -1.3l-1 -0.6l-1.5 -1.7l-1.1 0l-1 0.1l-1.5 -0.2l-1.5 -0.5l-1 -1.1l-1.3 0.8l-1 -0.2l-0.5 1.5l-2 0.4l-1.3 0.8l-1.4 1.1z"/><path data-zip="00782" d="m619.9 116.3l0.6 1.4l2.2 -0.6l1.5 0.6l2.4 1l1.2 1.1l1.3 0.2l-2.7 1.2l-2.2 0.9l-1 0.9l0.2 1.3l-1 0.1l0 1.4l0.1 1.8l0.1 1.2l2.4 0.8l0.6 -1.8l1.1 0l0.6 -1.1l1.5 -0.4l1.6 -0.3l-1 0.9l1.5 2l3.6 0.2l0.3 1.3l2.2 2.6l2 0l1.4 0.3l1.4 0l-0.6 -1.3l0.4 -2l-0.5 -1.5l1.6 -3.1l0.7 -1.3l2.7 -0.1l1.1 -0.3l1.8 -0.8l2.4 -0.3l1.1 -0.6l-0.8 -1.9l1 -0.3l-1.4 -0.7l-1.2 1.1l1.3 -1.6l1 -0.7l-1.5 -0.7l-0.1 -1.3l2.5 -0.5l1.2 -0.6l0.3 -1.6l-1.7 -0.5l-1.7 -0.5l-1.1 -0.8l1.3 -0.1l1.2 -0.1l1.1 0.3l1.9 0.5l-0.6 -2.3l-1 -1.5l-0.4 -1.9l0.3 -1.6l-1.3 -0.8l-1 -1.4l-2.2 -2.6l-1.1 -2.4l0.1 -1.3l-2.2 -0.7l-0.3 -1.8l-1.1 -0.8l-1.1 0.3l-1.6 -0.6l-1.3 0.7l-1.4 0.5l-0.9 1.2l-0.9 1.2l-0.3 1.4l-1.4 0.9l-0.7 1.5l0.3 1.7l-1.8 -0.3l-2.2 0.5l-1.3 -0.3l-0.4 1.3l-1.7 1.2l-1.5 -0.5l-1 0.7l-1.8 0l-1 0.5l-1.3 -0.2l-0.9 1.9l0.8 1.6l-0.1 1l-0.4 2.9l-1.3 4z"/><path data-zip="00783" d="m578.4 93.8l1.7 0.3l1.2 1.2l1 0.6l0.8 1.2l1.8 2.2l1.5 2.1l1.4 2.3l0 1.6l1.5 0.8l1.1 1.2l1.3 0.5l2 0.1l2.2 0.1l1.2 -0.9l1 -0.8l1.1 -0.1l0.3 -1.4l2.2 0.1l1.9 -0.8l2 -0.7l1.5 -0.7l1 -0.6l2.6 -1.1l1.3 -2.2l1.1 -2.1l0.8 -1.2l-0.7 -1.8l0.3 -2l0.3 -2.4l0.3 -1.2l0 -1l-0.8 -1.7l-1.6 -0.7l-1 -0.3l0.6 -1.5l-1.7 -0.8l-0.4 -1.2l0.9 -1.3l1.8 1.3l1.6 0.8l0.9 1.2l0.9 -1.4l0.3 -1.9l1.8 -6.8l-0.5 -1.9l-2.1 -4.3l-0.4 -1l-1.4 -2.7l-1.6 -1.7l-1.1 -0.6l-2.2 -2l-1.3 1l-1.6 0l-1.5 -0.4l-1 -0.3l-1.5 -0.3l-1 -0.4l-1.8 0.1l-1.6 0l-1.1 -0.7l-1.2 0.8l-0.6 1.5l0 1.9l-2.4 -1l-1 -0.4l-1 -0.1l-0.7 2.4l1 0.4l1.3 1.3l-2.3 1.5l-1.1 1.5l-0.1 2l-0.2 2.8l-1 -0.9l-1.5 -0.1l-1.5 5.4l-1.2 3.7l-0.2 2.8l-1.1 1l-0.7 2.4l-0.3 1.6l-0.1 1l-0.5 1.5l-0.5 1.4l-0.6 1.9z"/><path data-zip="00784" d="m636.9 229.8l1.9 3.5l2 -0.1l2.5 -2.1l2.2 -1.2l1.8 -1.7l0.2 -1.1l1.7 -1.8l1.4 0.2l1.8 0.4l2.1 -0.1l1.7 0.3l3.3 1.1l1.9 1l1.8 -0.1l2.5 -1.7l1.7 -1.6l1.6 -0.7l1.2 -0.4l1.7 -1.9l1.9 -0.3l1.7 -0.8l1.9 -0.2l1.2 0.1l1.7 -1.2l1.1 -0.7l3.5 -2l2.9 -2.1l2 -0.8l1.5 0l1.2 0.4l1.6 -0.1l-0.3 -1l0 -1l0.4 -1.3l-0.9 -1.8l0.3 -4.6l0 -1.1l-1.3 -1l-0.4 -1.7l-1.3 -0.5l-0.6 -1l-0.3 -2.3l-0.7 -1l-1 -0.5l-1.8 -1.6l-0.1 -1.2l-1.3 -0.4l1.5 -1l1.1 -0.6l1 -0.5l1.2 -1.3l-0.7 -1.6l-0.4 -1.7l-0.4 -1l-0.1 -1.1l0.3 -1.4l-1.5 -3.1l0.5 -1.1l0.2 -1l1.2 -0.5l1 -0.2l0.7 -1l-0.1 -1.2l0 -1.4l1.8 -1.2l1.8 -1.6l1.1 -0.5l1.1 -1.4l0.8 -1.6l0.7 -1.7l-0.1 -1l-0.1 -1.3l1 -2.2l1.1 -0.4l-2 0.7l-1.4 0.4l-1.7 0.4l-1 -0.1l-0.6 -1l-1.8 0.6l-1.7 -0.4l-1.2 -0.5l-1.5 -0.9l-1.4 0.2l-1.3 0.9l-1.2 -0.3l-0.8 1.3l-1.1 1.3l-1.2 -0.4l-0.9 2l-0.5 1.4l-1.3 -0.2l-2.2 -0.6l-1.6 -1.3l-0.6 1.1l0 1.3l0.1 1.5l0.7 1.8l0.9 1.2l-0.8 1.1l1 0.8l0.5 1.2l0.1 1.4l0.7 2.1l-1.3 1l0.1 1.2l-0.3 1l-1 2l-0.6 1.4l-0.6 1.4l0.3 1.2l-1.3 0.3l-1.1 0.4l-1 -0.2l-2.1 10.4l0.3 1.5l-0.2 1.2l0.2 1.4l0.9 1.2l1.1 1.7l1.1 1.1l0.1 -1.3l0.3 -1l2.4 0.7l-0.2 -1.6l3.1 0.8l1 -0.6l1.3 -0.3l-0.7 2.1l0.2 1.3l-1.1 0.6l-1.4 2.2l-1.2 0.6l-1 0l-1.1 -0.9l-1.3 -1.8l-1.6 -0.1l-1.2 0.5l-1.5 0.6l-1.8 -0.1l-2 0.3l-1 -0.2l-1.1 0.5l1.4 0.7l1.4 -0.3l0 1.1l1 0l0.4 1.2l-0.9 1.1l1.5 1.2l0.2 1.1l0.6 1.3l-1 -0.1l-2.8 0.7l0.1 -2.3l0.3 -1.4l-3.9 -0.9l-0.4 -1.6l0.8 -1.3l-1.4 -1.3l-0.1 -1.2l-1.5 -0.5l1 -0.1l0.2 -1.1l-1.5 0l-2.5 -0.2l2.2 -0.3l1.7 0l-0.1 -1.2l0.8 -2.6l0.8 -1.5l0.5 -1.1l-0.4 -1.9l-1.4 -1.6l1 -0.2l1.2 -0.2l0 -1l0.9 1l1.7 0.4l0.8 1.1l1 -0.2l-2 -3.7l1.1 -0.5l0.7 -1.6l2.3 -0.9l2 -0.7l-1 -1.2l-1.4 -0.3l-1.2 -0.2l-1.3 -0.2l-1.4 -1.4l-0.2 -1.1l-1 -0.3l-2 -0.1l-1.4 2.8l-1.8 3.8l-1.1 0.3l-1.1 1.3l0.4 1.2l-1.5 0.1l-1.9 0.5l-1.3 1.5l-1.1 0.2l-1.2 0.2l-1.1 0.5l-0.5 1l-0.2 1l-0.7 6.4l-0.1 2.9l1.2 -0.1l3.6 0.6l3.3 -0.9l-0.5 1l-1.2 0.8l-0.7 2.9l-0.2 1.3l-2.1 -0.1l-0.1 3l1.9 0.9l3.8 -0.4l1.3 0.3l-0.3 1.2l-0.1 2.8l-1 0l-1.5 -0.1l-0.3 -1.6l1.1 -0.5l-2.5 2l-1.7 -0.4l-2.1 -1.6l-1.3 -0.5l-0.6 3.4l-1.2 0.1l-1.9 1.1l-1.3 0.9l-1.1 1l-0.5 1.3l0.7 1.4l0.8 1.3l-1.1 1.9l-1.4 1.6z"/><path data-zip="00791" d="m765.5 155l0.1 1l1 0.2l1.3 0.7l-0.2 1.3l2 0.4l1.2 -0.2l0.2 -1.5l0.8 -1l1.2 0.1l1.5 -0.8l1.2 0l1.2 0.7l0.2 1.3l1.4 0.1l-0.5 1.9l-1.7 2.1l0 1.1l1.1 0.6l1.4 1l0.1 1.5l1 0.4l1.6 -0.1l1.2 0.5l0.3 1.5l1.7 -0.6l1.8 -0.2l1.3 0.5l0.9 1.5l0.6 1.1l0.8 1.8l0.6 1.1l1.6 0.3l1.6 0.6l1.3 -0.1l0.6 -1.2l-0.3 -2.3l-0.1 -1.8l0.5 -1.3l0.9 -1l1.3 -0.2l-0.3 -1.6l0.5 -2.5l1.1 -2.1l1.1 -1.7l1.2 -1.1l0.1 -1.4l-0.5 -1.1l-4.9 -3.4l0.6 -1.7l1.1 -1.5l1.3 -0.9l1.2 0.3l1.1 -2.6l-1.4 0.4l1.2 -2.6l1.5 0.3l1.7 -0.3l0.3 -1.9l-1.3 -0.4l1.5 -3.1l1.5 0.5l1.5 -1.4l1.3 -3l1.5 -1l-4.3 -1.9l-1.4 0.8l-2.3 2.4l-2.1 0.7l-2.4 -0.2l-1.2 -0.4l-1.6 0.5l-1.9 -1.9l-0.8 1.6l-0.5 -1.6l-0.6 -1.6l-1.6 -0.2l0.3 -1l1.1 0.6l1 0.2l1.2 0.1l1.3 -1.1l0.7 -1.2l1.5 -1.1l1.1 -1l2.1 -3.4l-1.2 -0.9l-2 -0.1l-1.6 -0.5l-1.2 0.6l-1.7 0l-1.5 -0.5l-1.9 0.3l-1.6 -0.2l-1 -0.2l-1.4 1.1l-1 0.9l0.1 3.1l-0.9 2.1l-1.7 1.1l-0.9 1.6l-0.4 1.9l-3.5 -1.2l-1.7 1l-1.3 -0.6l-1 1.6l0.7 1.4l-1.1 2.5l-1.5 2.7l-0.1 1.1l0.2 3l-0.4 1.5l-1 1.2l-1.2 0.8l-0.8 1.5l-1.2 1.5l-0.5 1.2l-0.5 1.5l-0.3 1.4z"/><path data-zip="00794" d="m581.8 129.3l0.4 1.1l0.3 1.4l-0.6 1.7l2.2 0.6l1.1 0.9l2.1 -0.1l1.5 0.3l1.5 1.4l1.7 -0.7l1.3 -0.1l1.1 0.7l0.7 -1.2l1.3 0.4l1.5 -0.3l0.4 1.4l1.8 -0.5l0.9 2.7l0.3 1.4l-0.7 2l3.1 1.2l0.3 -1.4l0.2 -1.3l0.7 -1l1.9 -1l1.9 0.3l1.2 -2.5l1.8 0.2l0.5 -1.7l1 0.2l1.6 -0.6l1.3 -0.5l1.3 -1.1l1.8 0.2l1.5 0.5l1 -0.1l1 0.6l1.6 0.1l1 -0.1l0.3 1.9l1.5 0.4l1.2 -0.1l0.5 -1.1l-0.4 -1l0.1 -1.2l1.1 -1.1l0.8 -1.3l-0.1 -1.1l-0.6 -2.1l1 -1.5l-1.5 0l-1.6 0.7l-0.6 1.1l-1.1 0l-0.1 1.4l-2 -0.3l-1 -1.3l-0.1 -1.8l0 -1.4l1 -0.1l-0.9 -1.1l1.7 -1.1l1.8 -0.4l3.5 -1.3l-1.7 -0.6l-1.2 -1.1l-2.2 -0.9l-1.7 -0.7l-1.4 0.5l-1 -0.4l0.9 -4.9l0.8 -2.3l-0.3 -1.6l-0.8 -1.6l0.7 -1.3l-5 0.7l-1.9 -0.4l-1.1 -0.1l-1.9 -0.5l-1.6 0.3l-1.6 0.2l-1.7 1.5l-0.8 -1.4l-1.1 -1.3l-1 -0.3l-2.3 0.5l-2.2 -0.1l-0.3 1.4l-1.1 0.1l-1 0.8l-1.2 0.9l-1.5 0.3l-2.7 -0.5l-1.3 -0.5l-0.3 3.6l0.1 1.2l0.1 1.5l-1.2 0.9l0.2 1.6l0.6 1l-0.1 2.3l0.6 1.2l-0.6 2.4l-0.2 1.1l0.5 1.5l-1 0.4l-1.1 -0.6l-0.8 -1.4l-1.5 -0.8l-0.9 1.1l-0.6 1.4l0.3 1.1l0.7 1.6l-1.7 0.4l-1.6 0.7z"/><path data-zip="00795" d="m510.9 150.5l0.3 1.8l1.1 2.4l0 1.5l1.4 0.1l1 0.5l0.1 1.3l0.1 1l0.7 1.7l0.8 1.3l0.6 1.8l-1.3 1.2l-0.5 1.9l-0.6 1.1l1.5 1.2l0.6 1.2l-0.2 1l0.6 1.2l1 1.1l-0.2 1.7l0.1 1.3l0.7 1.1l0.9 1.5l0.9 1.2l1.2 -0.1l1.2 0.1l-0.4 1.1l0.1 1l-1.3 0.2l-1 -0.3l-1.2 -1.6l0.4 2.3l1.7 1.8l-0.7 2.1l-1.2 1.5l1.3 2.6l-0.7 1.1l1.1 0.4l0.7 1.8l0.8 1.4l0.1 2.6l1.1 1.4l-0.8 1.3l-1.4 0.8l0.2 2l1.2 -0.6l1.6 0.5l1.2 0.7l1.6 -0.3l0.7 1.5l-3.4 1.2l-0.2 1.5l-1.5 1.1l-1 -1.3l-1 0.8l-0.6 -2.2l0.3 1.3l0.4 1.9l-1.3 0.5l2.9 -0.5l4.7 -2.3l3.9 -1.4l2.6 -0.6l2.4 -0.8l2.4 -0.4l1.6 0.1l1.6 0.3l1.1 1.1l1.5 -0.9l1.5 -0.5l2.1 -0.2l2.1 0.6l1.4 1l1.4 1.8l1 -0.9l0.9 -1.3l1.5 -1.2l1.2 -1.8l0.5 1.2l0.9 -1l-2.2 -1.7l-1.5 -0.5l-2.2 -0.6l-1.9 -0.5l-3.2 -0.5l-4.5 -0.7l-3.2 -0.5l0.4 -1.4l0.2 -1.1l-1.2 -0.2l-1.2 -0.2l-1.9 -0.4l0.1 -1.5l-1.8 -0.7l0.9 1.6l1.1 0.8l0.2 1l0.6 1.4l-0.4 1.3l-1.6 0.6l-1.2 3l0.3 1.1l-1.4 0.6l-0.7 -1.8l-2 -0.4l-4.2 -0.5l0.5 -1.7l-0.1 -1.2l0 -1.6l1.5 -1.8l-1.5 -0.7l-1 -0.9l0.6 -1.8l1.2 0.7l2.9 -1.2l2 0.1l0.1 -1l3.1 0.2l1.6 0l1.9 0.1l2.1 -0.5l1 -0.9l1.4 -0.5l2.3 -0.6l-0.4 1.5l-0.6 2.8l2.2 0.8l1.5 0.4l1.2 -0.6l1 -0.7l6.5 0.1l2 0.1l0 -1.3l-0.4 -1.6l1.7 0.1l1.2 -0.3l1 1.1l0.5 -1.6l-1.1 -2.1l-0.1 -1.5l0.5 -2.2l0 -1.4l-1.2 0l-1.5 -0.1l-1 0l-1.3 -1.2l-3 -0.9l1 -0.3l0.3 -1l0 -2.3l-1.4 -1.4l-0.3 -1.1l-1.4 -1.5l-0.9 -1.5l-2.1 -1.7l-2.3 -0.6l-1.5 -0.2l-2.3 -0.9l-1 0.2l-1.1 -0.3l-1.2 -1.3l-1 -1.2l-1 -0.4l-1.1 -0.5l-1.5 0l-1 0l-1.2 0.8l0.5 2.3l-0.1 1.3l-0.9 1.1l-1 0.6l-1.3 -0.5l-1.3 -0.6l-1.3 -0.5l-0.7 -1l-0.3 -2.1l-0.8 -1l-1.2 -1.2l-0.5 -1.4l-1 -1.8l1.2 -1.1l0.5 -1.2l0.1 -1l-0.3 -1.1l1 -1.5l-1.4 -3.2l-0.3 -1.7l0.3 -2l1.4 -2l0.4 -1.5l0.1 -1.1l-1.3 -0.2l-1.3 0l-1.6 0.1l-1.5 1.2l-1.1 0.3l-1.4 0.2l-0.4 -1.1l-0.7 -1l-1.5 0.1l-0.6 1.3l-2.1 1.4l-1.4 0.6l-0.9 2l0.7 2.9z"/><path data-zip="00901" d="m674 17.1l0 1l1 1.3l1.3 1.9l1.1 0.6l0.1 -1.3l1.2 -0.3l1.8 0.1l1.9 0.7l1.2 -0.5l1.6 0.5l2.9 0.7l1.2 -0.9l-0.5 -1l-1.4 -1.3l-1.8 0.5l-1.6 0.1l-2.5 -0.8l-1.2 0l-1.6 0l-4.5 -1.2z"/><path data-zip="00906" d="m684.8 19.8z"/><path data-zip="00907" d="m685.4 26.2l1.3 0.3l1.3 -1.1l0.2 1l-0.6 -1.2l2 0.7l0 1.2l1.7 1l0.8 1.3l0.4 -1.8l0.1 -1.1l2 0.5l0.3 -1.7l1.7 -0.3l0.5 -1.7l-3.2 -0.5l-2.1 -1l-1.3 -0.7l-1.1 0l-1.2 1.8l-1.6 1.2l0.6 1l-1 1.1z"/><path data-zip="00909" d="m692 27.1l0.3 1.6l1.7 0.6l0.5 1.8l1.4 0.6l1.6 0.8l0.7 -2l-0.9 -1.1l-1.4 -1.3l-0.7 -1.2l0.6 -1.1l-1 0.7l-1.4 -0.5l-1.3 1.2z"/><path data-zip="00911" d="m696.5 24.8l0.1 1.3l1.7 0.1l2.2 0.3l1.2 0.1l0.1 -1l0.7 -1.4l-2.4 -0.7l-1.8 0.2l-1.3 -0.7l-0.5 1.7z"/><path data-zip="00912" d="m695.8 25.7l-0.6 1.1l0.7 1.2l1.7 0.4l0.2 1.5l0.8 -1l-0.3 -1l1 0.1l1.3 -1.4l-2.2 -0.3l-1.7 -0.1z"/><path data-zip="00913" d="m701.9 25.8l-0.1 1l3.4 0.3l1.4 -1.5l-0.7 -1.7l-1.9 0.3l-1.5 0.2l0 1.5z"/><path data-zip="00915" d="m698.1 29.7l0.2 2.5l1.7 1l2.7 0.7l1.4 0l1.4 0.4l3.6 0.1l-0.4 -1l-0.5 -2l-1.3 -1.4l-1.2 -0.6l-1.4 -1.3l1 -1l-3.4 -0.3l-1.2 -0.1l-0.4 1.9l-1.9 -0.6l0.3 1z"/><path data-zip="00917" d="m698.3 32.2l0.2 1l0.4 2.3l1 4.2l0.8 2.4l1.3 -0.1l0 -1.2l2.1 0.1l0.3 -1.6l-0.5 -3l1.5 -1l0.3 -1.1l-1.4 -0.4l-1.1 0.2l-2.4 -1.6l-1.5 -0.4z"/><path data-zip="00918" d="m689.9 36.7l1.2 2l2.1 -1l0.9 3.3l0.6 1.6l1.4 -1.5l3 0.8l1.5 -0.1l-0.8 -2.4l-1 -4.2l-0.4 -2.3l-1 -0.8l-0.9 -1l-2.1 -0.4l-1.2 -0.3l-0.9 2.5l0.1 1l0.9 1.5l-1.8 -0.1l-1.7 1.1z"/><path data-zip="00920" d="m680 45.6l1.5 3.6l0.8 -1.9l2 -1.9l1.6 -0.9l5.2 -1.7l1.4 -0.4l-0.1 -2.3l-1.1 -1.3l-1.2 -1.6l1.5 -2.8l0.2 -2l-1.1 -1.7l-1 -0.8l-5.8 6.8l0.1 1l0.1 1.1l-0.7 1.7l1.1 1.2l0.7 1.2l-0.1 1.3l-2 0.3l-2 0l-1 1.2z"/><path data-zip="00921" d="m681 50.4l1.2 1l-1 0.2l1.6 1l1.1 0.6l1.7 1.3l1.1 0.3l1.1 -0.5l-0.1 -1.3l0.4 -1l0.6 -1.4l-1.5 0.1l1.2 -1.4l1.1 -0.2l1.8 0.6l1.9 -0.4l-1.6 -1.2l0.1 -1.9l1.6 -0.6l0.5 -2l0.3 -1.2l-1.9 0.1l-1.4 0.4l-5.2 1.7l-1.6 0.9l-1.6 1.7l-0.7 1.3l-0.8 1.4z"/><path data-zip="00923" d="m700.7 42.2l0.1 2.4l2.8 -0.2l0.5 2l2.8 0.8l1.6 -0.2l-0.1 -1l0.2 -1.6l-0.1 -2l0.8 -1.8l0.2 -1l-0.4 -1.1l-1.1 -2.2l-1.3 -0.9l-1.1 -0.9l-2 1.7l0.5 3l-0.3 1.6l-2.1 -0.1l0 1.2l-1.2 0.2z"/><path data-zip="00924" d="m708.5 46.1l0.1 1l0.1 2.1l0.6 1.1l1 -0.1l1.1 -0.4l0.3 1.2l1.7 0l0.3 1.4l1.4 0.4l1.5 0.2l1 0.3l1.3 -0.1l1.4 -0.4l-0.7 -1.3l1 -0.7l-0.9 -1.1l0.8 -1l-0.3 -1.7l1 -0.8l2.1 -0.6l-0.1 -2l-0.5 -1.5l-2.4 -1.1l-1.6 -0.4l-1.2 -0.8l-2 -1.6l-0.6 1.1l-1.8 0.1l-3.2 0.2l-1.4 2.6l0.1 2l-0.2 1.6z"/><path data-zip="00925" d="m699.2 42.1l0.2 3.1l0.9 1l3.9 0.7l-0.1 -2.4l-2.6 0.2l-0.5 -2l-1.8 -0.5z"/><path data-zip="00926" d="m683.2 71.2l0.1 1.4l1.5 -3.2l1.2 8.32667e-17l1.8 1.1l0.3 1.1l-0.2 1.4l-0.6 2l0.2 1.5l1.2 1.1l1.4 -0.5l2.3 0.4l-1.1 2.6l1 0.7l1 1l2.2 0.9l1.4 0.4l1.3 0.1l1 -0.8l1.1 0.6l1.2 -0.1l1 -0.8l0.9 -2.4l1.4 -0.4l1.2 0.3l1.1 0.8l1.4 0.3l1.7 -0.5l1.9 2l0.6 -1l1.4 -0.5l-1.4 -2.2l-0.3 -1.7l1.7 0.2l1.4 -1.1l-0.1 -1.1l-1.1 -1.2l-0.1 -1.4l0.3 -1.1l2 -0.7l1.5 -2l-1.4 -1.1l-1.8 -0.8l1.1 -0.8l1.1 -0.2l0.4 -1.6l-1.1 -0.9l0.1 -1.4l-1.2 2.77556e-17l-2.2 1.2l-1.6 0.2l-1.2 0.9l0.7 1.2l-2.2 -1.4l-1.2 -0.6l0.9 -1l-0.8 -1.3l1 -0.1l1 -1l-1 -1.4l-1.3 -1.2l2.2 -0.7l-0.2 -1.5l-1.9 -2.4l2.3 1.1l1.5 -1.1l2.6 -0.5l0.1 -1.5l-1.7 0l-0.3 -1.2l-1.1 -0.1l-1 0.6l-0.6 -1.1l-0.1 -2.1l-1.6 0.2l-1.9 -0.7l-3.9 0.3l-1.2 0l-1.4 1l-1.2 0.6l-2.4 3.5l-1.6 2.4l-3.2 3.5l-1.1 1.2l-0.9 1.4l-1.1 0.5l-0.1 1.3l-0.6 1.7l-2.2 0.7l-0.3 2l-0.5 1.2l-0.3 2.1l0 1.3z"/><path data-zip="00927" d="m686.8 54.9l1.8 2l1.6 1.1l3.2 -3.5l1.6 -2.4l1.7 -2.8l1.9 -1.3l1.1 -0.7l-0.1 -1.1l-0.4 -3.9l-2.3 0.1l-0.4 -1l-1.7 1.6l-1.3 2.7l0.2 1.5l-0.3 1l-0.1 1.3l-1.9 0.4l-1.8 -0.6l-1.1 0.2l-1 0.6l1.3 0.7l-0.8 1.1l-0.2 1.3l-0.8 1.1l0.6 1.3z"/><path data-zip="00934" d="m670.5 40l1.3 2.7l1.3 -0.3l1 0.3l1.4 0.1l1.2 -0.4l1.4 -0.8l0.1 -1.2l-1.2 -0.4l-1.3 -0.4l-1.8 -1.6l-1.7 0.7l-1.6 1.5z"/><path data-zip="00936" d="m692 47.5l1.2 1.1l0.7 -1.7l0 -1.2l-1.1 -0.4l-0.7 2.1z"/><path data-zip="00949" d="m623.9 41.4l1 1.9l0.1 2.8l1.8 1.3l2.1 -0.7l1 0.5l1.4 -0.8l1.2 -0.8l1.2 -1l1.5 -0.1l1 1.1l0.8 -1.7l-0.3 1.9l7.5 2.6l3.3 1.2l0.2 -1.7l0.6 -1.3l-0.6 -2.3l-0.3 -1.9l-0.2 -2.3l1.2 -1.5l1.1 -1.5l1.1 -1.1l0.4 -1l-1 0.6l-0.4 -1.5l1 -0.3l-0.1 -2.4l1.1 -0.5l1.8 0l-0.2 2.4l1.4 -0.1l2 0l1.1 0.6l1.7 0l1.4 -0.4l0.6 -1.5l-0.8 -5l1.2 -0.9l-0.6 1.4l1.4 -0.3l1.1 0.5l0.9 -1l1.6 -2.2l1 -1.7l0.5 -1.2l1.4 -0.5l1.6 -0.6l0.9 -2.5l-1.4 -1.1l-1.7 3.1l-1.1 0.6l-1.5 1.6l-2.3 1.8l-1.2 0.8l-1 0.1l-2.1 0.5l-1.6 -0.1l-2 -0.7l-1.4 -1l-1 -0.4l-1.1 -1.4l-1.4 -1.3l-1.1 -0.3l-1.3 0l-1.2 -0.9l-0.4 1.2l-2 -0.1l-1.1 -0.4l-1 1l-0.4 2.4l0 1l-0.2 3.1l-1.8 0l-1.2 -2.1l-2.7 0.2l-0.2 1.2l-1.9 -0.6l-1.2 0.5l-1.1 0.2l0.6 -1.6l0.6 -1.2l-1.4 -0.9l-1 2l0.4 1.7l-4.8 0.5l-0.4 -3.2l-1 -0.9l-0.3 1.5l0 1l0 2.3l1.4 0.8l-0.8 1.1l-0.2 1.5l2.6 0.4l0 -1.2l2.6 0.1l1.4 -0.5l1.8 -0.8l1.5 -0.6l1.1 0.6l-0.1 1.3l0.5 1l-1.2 1.2l-0.8 1.3l-1.6 -0.2l-1.5 -0.6l-1.4 1.3l-0.9 1.4l-1.2 0.4l0 -1l-0.4 1l1 0.7l2.2 0l2 -0.2l1.3 0.4l-1.3 0.6l-0.8 1.9l-3 0.2l-1.8 0l-2.9 0.6z"/><path data-zip="00952" d="m647.9 37.5l1.4 0.6l1.4 -0.5l2 -0.9l1.7 1l1.8 -0.7l0.9 -1.4l0.4 -1.1l-0.3 -1.1l-1.3 -0.3l-1.8 -0.3l-1.4 0.1l0.2 -2.4l-1.8 0l-1.6 -0.2l0.6 3.1l-1 0.3l-0.2 1.4l1.1 -0.2l-0.5 1.8l-1.7 0.6z"/><path data-zip="00953" d="m602 56.3l0.2 1l0.4 1.5l1 0.3l1.5 0.4l1.6 0l1.3 -1l2.2 2l1.1 0.6l1.6 1.7l1.1 1.9l0.2 1.8l2.6 4.3l0.6 1.6l1.6 0.5l1.2 -0.5l1.1 0.2l1.4 0.2l1.4 -0.5l2.2 0.3l0.7 1l1.2 0.7l0.7 -1.1l0.2 -1l1.5 -2.77556e-17l1.5 -0.7l0.9 1.7l0.9 1.6l1.4 -0.6l1.3 -1.6l1.3 -0.6l1.7 -0.9l0.7 1l0.6 1.9l0.1 1l1.8 0.1l-0.1 -1.1l1 0.3l0.7 -1.3l0.1 -2.7l1 -0.7l0.4 -1.3l-1.4 -1.3l0.2 -1.5l-1.1 0.1l0.4 -1.4l-0.3 -1.7l1.1 0.1l1.3 0.4l0.8 -1.9l-0.1 -2l-0.7 -1.7l0.1 -1.3l0.6 -1.5l0.2 -3.4l0 -1.6l-2.8 -1l-8 -2.8l1.1 -1.7l-1.1 0.9l-1.1 0.4l-1 -0.6l-1.9 0.4l-1.4 1.2l-1.4 0.8l-1 -0.5l-1.5 0.2l-1.2 1.2l-1.1 0.8l-0.3 1l-1.6 -0.1l-1.5 0.8l-1.4 0.1l-1.1 0.4l-1.1 0.1l-1.3 0.3l-2.4 0.3l-1.1 -0.9l-1.7 0.4l-1.2 0l-1.3 -0.1l-1.2 0.1l-1.1 -0.1l-1.8 1.3l-1 0l-0.7 1.6l-0.7 1.7z"/><path data-zip="00956" d="m641.3 81.4l1 1.4l0.2 2.3l0.2 1.3l-0.7 1.1l1 1.7l0.2 2l0.7 2.1l1.3 0.1l1.1 0.8l-0.4 1.2l2.1 0.7l0.9 1.4l0.1 2.2l1.3 0.3l0.3 -1l1.1 -1.7l1.5 -1.3l1.2 -0.8l0.6 -1l2.2 -1.8l1.2 0.6l1.4 -1.2l1 -0.8l1.6 -0.1l1.2 0.3l1 0.5l1.4 0l1.2 0.5l0.7 -1.1l0.5 -1l-0.4 -1.9l0.2 -1l0.7 -1l0.4 -1.2l-1 -1.1l0 -1.9l0.2 -1.1l-0.3 -1.3l1.4 -0.1l1.7 -0.4l-2.4 -2l-0.8 -1.1l-0.1 -1.8l0 -1.1l1 -1.8l1.8 -0.9l-0.9 -1l0.5 -1.6l-1.1 -0.2l0.5 -1.2l0.2 -1l-0.2 -1l-0.7 -1l-1.1 0.8l1.6 1.1l-0.4 1.1l0 1.7l0.4 1.2l0.1 1.4l-1.6 -0.1l-1.2 0.4l-0.2 -1.8l0.2 -1.6l-0.6 -1.9l0.6 -1.1l1.5 -1.3l-1 -1l-0.1 -1.9l-0.9 -1.6l-1 -0.9l-0.4 -1.1l1.1 -1.7l0.9 -1l0.4 -2.2l-1.3 -1.8l-1.4 0.7l-1.1 1.3l-0.1 1.1l-1 -1.2l-1.6 0l-1.9 -0.2l-1.5 0.5l-1.9 1.8l-0.2 1.2l-1.6 1.3l0.4 1l0.3 1.1l-1.8 0.1l0.4 1l-0.2 1l-0.8 3.8l1 0.4l0.6 1.9l-1.5 0l-1 0.2l-1.8 0.5l-1.8 -0.1l-1.3 1.2l-1.2 1l0.3 2.8l-1.4 1.5l-1 -0.3l0 1l1.5 3.1l-0.4 3.8l-1.2 0l-1.5 -0.1z"/><path data-zip="00957" d="m644 62l-0.1 1.3l0 1.2l1.1 0.5l0 1l1.2 1.8l1.4 -0.5l1 -0.4l2.6 0l1 -0.2l1.8 0.2l-0.8 -1.3l-1.1 -0.9l0.8 -4.1l0.2 -1l-0.4 -1l1.8 -0.1l0 -1l-1.1 -1.1l2 -1.3l0 -1.1l2.1 -1.9l-0.8 -1.2l-1.8 -0.5l0 -1l1.3 -1.5l-2.1 0.1l-1.1 -0.4l-1.3 -0.3l-0.4 1.3l-0.5 1.2l-0.6 -1.1l-1.8 0.9l-1.1 0.4l-0.4 3.9l-0.6 1.5l-0.1 1.3l0.7 1.7l0.1 2l-0.8 1.9l-1.3 -0.4l-1.1 -0.1z"/><path data-zip="00959" d="m646.8 43.5l1 2.8l-0.6 1.3l-0.1 1.1l-0.4 1.8l1.6 -0.1l0.9 -1.3l1.5 0.2l0.2 -1.1l2 -0.2l1.1 0.4l2.1 -0.1l-1.3 1.5l0 1l1.8 0.5l0.8 1.2l1.6 -1.4l1.8 1.1l1.2 -0.3l1.4 1.5l0.1 -1.1l1.1 -1.3l1.4 -0.7l1.3 1.8l-0.4 2.2l-1.1 0.2l0 1.7l-1 1.5l1.3 0.5l0.3 1.8l0.7 1.9l1.2 1.6l-1.5 1.3l-0.6 1.1l0.9 1.2l-0.5 2.3l0.2 1.8l1.2 -0.4l1.6 0.1l-0.1 -1.4l0 -1l-0.6 -1l0.5 -1.3l-0.6 -1.9l-0.2 -1.8l-0.8 -2.2l1 -0.3l0.5 -1.1l0 -1.2l-0.1 -1.8l1.1 -0.4l-0.9 -1.7l0.2 -1.2l1.1 0.3l1.8 0.2l1 0.6l0.5 -1.5l0.1 -1.3l1.3 0l1.3 0l-1.2 -1l-1 -0.9l-1 -2.5l0.9 -1.1l-2 -0.3l-1.3 0.1l-3.3 1.2l-1.1 0.2l-1.3 -0.2l-1.4 0l-3.4 0.1l-1.7 -1.3l-2 0l-1.1 -0.4l-1 -1l-1.5 -1.2l-2.3 -0.8l-2.3 0.9l-1.1 0.1z"/><path data-zip="00960" d="m662.7 36.7l0.2 1.4l0.4 1.1l0.8 2.8l1.1 -0.5l1.2 -0.5l3.4 -0.9l-3.6 -0.4l0.8 -1.9l2.5 0.4l1 -0.5l1.7 -0.3l-1.1 -0.3l0.6 -1.2l-1.9 0.6l-1.8 -0.4l-1.1 0.3l-1.1 -0.1l-1 0l-2.2 0.3z"/><g data-zip="00961"><path d="m663.7 38.1l1.7 0.4l-1.7 -0.3z"/><path d="m647.1 39.1l0.4 2.2l-0.2 1.8l1.1 -0.1l1.5 -0.8l3.1 0.7l1.5 1.2l1 1l1.1 0.4l1.1 -0.1l2.9 1l3.1 0.3l1.4 0l1.3 0.2l1.1 -0.2l3.3 -1.2l-0.7 -2.2l-1.1 -1.6l-1.2 -0.7l-1.5 0l-1 0.6l-1.3 0.4l-0.8 -2.8l-0.4 -1.1l-0.2 -1.4l-1.1 -0.1l-0.6 -1.5l-0.4 -2.3l-1.4 1l-1.7 -0.8l0.1 1.5l-0.4 1.1l-0.9 1.4l-1.8 0.7l-1 -0.8l-1.9 -0.1l-2.2 1.3l-1 -0.2l-1.2 1.3z"/></g><path data-zip="00962" d="m662.2 28.6l0.2 5.6l0.3 1.6l2.1 0.5l1 5.55112e-17l1.1 0.1l1.1 -0.3l1.9 0l1.4 -0.6l3.1 -3.3l-0.8 -2.3l1.8 0.1l1 0.2l0.9 -1.2l1.1 -0.4l0 1l1 -1.4l-1.2 -0.8l-2.5 1l-2.3 -0.1l-1.8 -0.6l-1.3 -1.6l-1.4 -2.2l1.6 0.4l1 0.9l1.3 -0.1l-0.5 -1.1l-1.4 -0.7l-1.4 -1.1l-0.7 -1.5l-1.6 0.5l-0.8 1.4l-0.9 1.3l-0.6 1.6l-1 1.1l0.5 1.9l-0.8 1.7l-1 0.1l0 -1.3z"/><path data-zip="00965" d="m674.1 29.8l0.3 1.7l0.7 1.6l1.1 0.5l1.2 0.2l1.6 1.8l1.4 -1.2l-0.3 -4.5l-1.3 -0.4l-0.2 -1.1l-1.1 0.4l-0.9 1.2l-1 -0.2l-1.2 0.6z"/><g data-zip="00966"><path d="m682.8 53l1 0.2z"/><path d="m667.2 41l1.2 0.6l1.9 1l0.7 3l1.2 0l2 0.1l-0.9 1.3l1 2.5l1 0.9l1.5 1l4 1l1.1 0.7l-0.7 -1.1l1 -0.2l-1.1 -0.9l0.4 -1.3l-0.9 -2.8l0.2 -2l-0.3 -1.6l-0.1 -1l1 -1.3l-1.5 -0.5l-0.3 -2.8l-2.5 -0.6l-2.4 0l-1.8 0l-0.9 -1l-0.4 1.8l1 -0.1l1.8 0.8l1.2 1.3l-0.3 1.1l1.7 -0.7l1.7 0.7l-0.1 1.2l-0.8 1.2l-1.8 0l-1.4 -0.3l-1 -0.1l-1.3 0.3l-1 -2.1l-3.5 0.4z"/></g><path data-zip="00968" d="m680.3 42.2l0.6 2.1l1.3 -0.1l2.3 0.5l0.5 -2l-0.7 -1.2l-1.1 -1.2l-2.3 0.7l-0.6 1z"/><path data-zip="00969" d="m671.8 58.6l-0.3 1l1.9 1.3l0.6 1l1 0l2.3 0.5l0.2 1.1l-0.5 1.9l1.4 -0.2l-0.3 -1.1l0.2 -1l0.7 1.2l2.1 -0.2l1.6 -0.4l0.1 -2.1l-0.4 -1.4l1.9 -1.5l0.5 1.3l0.4 1.4l0.3 1.4l-1 0.2l-1 -0.3l0.1 1.4l2 0.7l0.9 -1.8l1.1 -1.1l0.1 -1.5l1.5 -1.3l1.1 -1.2l-1.6 -1.1l-0.9 -1.4l-1 -0.5l-1 -0.4l-1.7 -1.3l-1 0.1l-1.1 -0.5l-1.1 -0.7l-4 -1l-1.6 0l-1.3 0l0.3 1.2l-0.9 1.5l1.1 0.4l-1.1 -0.3l-0.4 1.1l0.6 1.1l-0.3 1l-1.2 -0.3l-0.2 2z"/><g data-zip="00971"><path d="m681.2 50l1 0.1l1 0.1l-0.3 -1l-1 0z"/><path d="m673.4 53.7l1.1 0.4l-1.1 -0.4z"/><path d="m667 91.9l1.2 0.2l1.8 0.3l5.6 -1l1.7 0.6l1.6 0.1l1.3 0.7l2.8 -1.3l-0.3 -1.3l-0.7 -1.3l0.1 -1.2l1 0.6l0 -1.1l-0.2 -1.1l-0.1 -1.4l1.7 0.8l0.6 -1l0.5 -1.3l0.7 -1.1l-1.2 -1.2l-2.9 -2.3l1.2 -0.1l0.4 -1l0.9 1.1l0.3 -1.6l1.8 0.3l0.8 -1.6l0.1 -2.7l0.2 -1.4l-0.3 -1.1l-1.5 -0.7l-1.1 -0.3l-1.5 2.6l-1.4 -0.8l1.1 -0.8l0.3 -1.9l-0.3 -1.1l0.7 -2.7l-0.2 -1.4l-0.1 -1.2l1.7 0.5l0.4 -1.6l-1.8 -0.5l0.1 -1.5l-1.5 0.2l-0.1 1.9l0.1 2.4l-1.3 -0.2l-1.8 0.8l-1.2 -0.5l-5.55112e-17 1.4l-1.4 0.2l0.2 -1.1l0.4 -1.4l-2 -0.6l-1.6 -0.4l-0.6 -1l-1.5 -0.5l-0.1 -1.8l0.2 -2l1.2 0.3l0.3 -1l-0.6 -1.1l0.4 -1.1l-1 -0.6l-1.4 0.5l-0.6 -1.5l-1.1 1l1.1 1.8l-1.1 0.5l-0.1 2.3l0 1.2l-0.5 1.1l-1 0.3l-0.1 1.4l1.3 1.9l0.7 1l0.2 1l-0.2 1l-0.5 1.2l1 0l-0.4 1.8l1 0.7l-1.9 1.2l-1 1.3l0.3 1l-0.4 1.6l1 1.9l1.8 1.4l-1.1 1l-1.4 0.1l-0.1 1.1l0.2 1.3l-0.1 1.3l1 1.1l-0.3 1.8l-0.7 1l-0.2 1l0.3 1l-1.1 1.4l0 1.4z"/></g><path data-zip="00976" d="m707 53.1l2.2 1.7l-0.1 1.7l-1.4 0.6l-0.4 1.1l1.2 1.7l0.2 1l-1.5 0.5l0.8 1.3l-0.9 1l1.2 0.6l2.2 1.4l-0.7 -1.2l1.2 -0.9l1.2 0.2l1.8 -0.7l0.3 -1.1l1.6 0.1l1 -0.4l-1.2 1l2.2 2l-1 0.8l-1.4 0.8l-1.1 0.8l1.8 0.8l1.2 0.3l1 -0.1l-1.7 2.5l-2 0.3l-0.9 1.9l0.1 1.4l1.1 1.2l0.1 1.1l-1.4 1.1l-1.7 -0.2l0.3 1.7l1.6 1.5l0.3 1.2l1.7 0.8l1.1 0.5l1.8 -0.9l1 -0.4l1.7 0.3l1.5 -1.3l1.9 -0.6l5.1 0.3l1.2 0.2l0.2 1l1.5 1.7l0.6 1.3l1.9 1.2l1.5 0.9l1.3 -0.4l1.7 0.8l1.2 0.1l0.1 -1.3l0.8 -1.3l-0.3 -1l0.1 -1.8l-0.2 -1.6l-2.3 2.77556e-17l-1 -1.1l-1.5 -1.4l-1.5 -1.4l-1.1 -0.7l-0.6 -1l0.4 -1.1l-1.6 -0.4l-1 -1.8l1.1 -2.2l-1 -0.3l0.1 -1.1l-1.1 -0.3l-0.6 -1.8l-0.4 -1.3l-1.5 -0.4l-0.6 -1.3l-1.4 -1l-0.7 -1l-1 -1.9l-0.4 -1l-0.1 -1.6l0 -1.8l1.4 -0.9l0.7 -1l-1 -1.6l-2 -0.2l-2.6 1.2l0.4 1l-1.1 0.7l-1.3 0.1l-1 -0.3l-1.2 -0.3l-1.7 0.1l-2.3 -0.3l-2.1 2l-2.4 -1.5z"/><path data-zip="00979" d="m705.2 27l0.1 1l1 0.1l1 -0.3l0.3 1.1l1.3 1.9l0.8 1l2.2 0.4l1.1 1.6l1 1l1 -0.2l0.8 1.2l3.5 -0.6l2.6 -0.4l2.1 -0.4l-3.2 -1.4l-1.1 -0.2l-1.7 0l-3.9 -0.2l-1.1 -0.6l-1.1 -1.8l3.2 -1.4l1.1 -0.2l2.3 -0.9l1.1 -0.6l-1.1 -0.1l-1.9 0.6l-1.8 -0.6l-2.7 0.8l-3.1 -0.8l-1.6 -1l-1.4 1z"/><path data-zip="00982" d="m717.2 39.9l1.5 0.9l1.6 0.4l2.4 1.1l0.5 1.5l0.1 2l1.8 0.4l3 2.1l-0.2 -1.2l-1.2 -0.3l0.5 -1.3l-0.9 -3l-1.3 0l0.9 -1.4l-1.5 -4.6l-2.8 0.7l-1.3 0.8l-2.1 0.7l-1 1.2z"/><path data-zip="00983" d="m724 34.4l0.4 2.1l1.5 4.6l-0.9 1.4l1.3 0l0.9 3l-0.5 1.3l1.2 0.3l1 -0.2l2 1.4l1.1 -2.6l0.7 -1.2l-0.5 -1l0.5 -1.7l0 -2.5l-0.6 -2.6l0 -1.3l0.1 -2.8l-1 -2.1l-0.4 -1l-1.2 -0.1l-2.5 -0.6l-0.2 1.2l-0.7 1.3l-0.7 1.2l-1.6 1.8z"/><path data-zip="00985" d="m731.3 48.5l-1.5 1l6 4.6l2.3 0.5l0 -2.2l1.5 -1.2l0.5 1l2.2 0.2l2.4 -0.2l2.3 -0.9l1.4 -0.5l-1.8 -0.4l0 -1.6l-1 0.2l-0.9 2l-1.1 0.3l-3 0.3l-1.6 -0.2l0 -3l-0.3 -1.3l0.4 -1.2l0.1 -1.3l2.4 1.1l2.7 1.4l1.5 0.6l1.6 -1.1l1 -1.9l1.9 0.5l-0.1 -1.1l-0.1 -2.7l-1.2 -0.7l-2 -0.3l0.7 -1.2l-1.7 -2.8l0.2 -2.2l-2.8 -0.8l-1.5 -0.7l-2.6 -1l-1.7 -1.1l-0.8 1.2l-1.9 0.5l-1.2 -0.3l-1 0.7l-0.1 2.1l0 2l0.6 2.6l0 2.5l-0.5 1.7l0.5 1l-0.4 1.5l-0.9 2.2z"/><path data-zip="00987" d="m719.4 51.4l2.8 -1l1.7 0.7l1.3 1.1l-0.7 1l-1.4 0.9l0 1.8l0.7 1l-0.2 1.6l1.3 1.2l-0.2 1.2l1.4 0.6l0.6 1.8l1.9 0.5l0.2 1.4l1 2l1.1 0.3l-0.1 1.1l1 0.3l-1 1.4l0.7 1.7l1.3 0.9l0.1 1.5l0.6 1l1.1 0.2l0.7 1.7l1.4 0.8l1.4 1.6l2 0.2l1.5 0.9l-1 1.9l0.5 1.5l-1.1 0.7l0.2 1.7l1.4 2.4l0.4 1.3l0.9 1l2.6 2.3l1.1 0.6l0.6 1.1l1.7 0.9l1.7 -0.1l1 -0.4l1.4 0.2l0.4 -1l-0.7 -1l0.1 -1.1l-0.1 -1.2l-0.1 -1.1l-1.4 -0.7l-0.5 -1.6l-0.3 -1.4l1.4 0.4l1 -0.5l1 -1.2l-1.3 -0.3l0 -1.2l-0.5 -1.1l0.3 -1.3l1.6 -0.2l0.3 -1.4l-0.4 -1.3l1.5 -0.3l-0.4 -1.4l-1 -1.4l-1.2 0l-0.3 -1.2l0.2 -1l1 -0.8l2.77556e-17 -2.3l-1.1 -1.4l0.4 -1.1l-1 -0.8l-1 0.8l-1.1 0.1l-1.1 -0.8l1.1 -0.8l0.2 -1.6l0.1 -1l-0.7 -1.5l0 -1l0.1 -1.1l0.2 -2.7l-0.3 -1.5l0.6 -1.2l-1 -0.2l-1.1 0.2l-1.8 -0.1l-4.3 0.7l-2.5 0.2l-2.4 -0.4l-1.7 -0.3l-6.6 -4.8l-1.6 -1.2l-2.2 -1.7l-2 -0.7l-2.7 0.5l-1 0.8l0.1 1.2l-0.6 1l0.7 1l-1 1.1z"/></svg>
