<?xml version="1.0" encoding="UTF-8"?>
<!DOCTYPE svg PUBLIC '-//W3C//DTD SVG 1.1//EN' 'http://www.w3.org/Graphics/SVG/1.1/DTD/svg11.dtd'>
<svg viewBox="0 0 1000 1794.77" xmlns="http://www.w3.org/2000/svg">
  <g data-id="001">
    <path d="m0.026 771.968l0.254 3.461l0.929 4.162l-0.838 2.735l0.315 6.928l0.268 1.992l0.806 4.476l1.29 5.588l0.787 4.132l0.572 2.377l1.434 4.397l-1.313 6.824l1.874 4.309l0.818 1.258l1.685 3.361l2.004 4.442l0.486 1.526l0.152 1.098l0.34 1.059l1.439 1.334l1.217 2.79l1.205 1.958l0.64 1.876l1.413 2.664l1.113 1.585l2 1.843l1.798 2.522l0.615 1.706l0.138 1.815l-0.267 1.816l-2.259 2.857l-3.624 4.591l-0.849 3.423l-0.23 1.649l0.363 2.452l2.573 8.071l0.78 1.607l4.582 3.427l2.064 1.139l2.084 1.734l3.008 1.805l1.942 1.387l2.491 3.523l1.126 2.462l0.466 1.703l-0.816 2.644l-0.211 1.451l-0.053 3.224l0.194 2.019l111.8 0.504l-0.17 -28.487l0.057 -23.212l0.455 -4.362l0.307 -56.695l0.373 -28.869l-147.655 -2.229l-0.114 1.408l-1.01 1.391l-0.852 3.349z" />
  </g>
  <g data-id="003">
    <path d="m496.612 1695.14l0.013 1.207l0.326 1.119l0.779 1.488l1.776 2.699l1.113 1.501l1.473 1.647l1.611 2.239l2.666 -0.543l2.161 -0.095l1.958 0.575l1.099 1.393l0.103 1.399l-2.407 6.488l-0.033 1.139l1.234 4.642l0.203 1.198l1.433 3.562l4.439 8.384l0.765 2.873l2.396 4.327l2.766 4.117l1.747 1.793l3.492 2.532l1.339 1.16l0.965 1.316l1.361 2.71l0.771 2.7l-0.024 1.695l-0.791 3.122l-1.568 3.978l0.125 2.963l0.756 1.635l0.838 1.062l3.954 2.947l4.083 1.445l3.693 1.742l2.037 1.199l1.447 1.036l1.127 1.16l5.107 5.255l3.362 1.097l1.103 -0.569l1.154 -0.906l1.503 -2.072l1.474 -4.816l-0.596 -2.43l-1.564 -1.682l-2.845 -2.326l-3.354 -1.331l-2.535 -1.427l-1.502 -1.7l-0.499 -1.041l-0.353 -1.288l0.63 -3.268l3.548 0.32l2.577 0.19l4.78 0.6l1.132 0.232l1.246 -2.478l2.311 4.44l1.841 4.657l1.046 1.739l2.134 1.934l5.09 3.44l1.057 1.211l0.574 1.385l0.861 3.639l-0.002 3.205l0.732 3.046l1.645 2.019l2.055 0.821l1.799 0.183l2.052 -0.77l2.959 -1.517l1.437 -0.467l2.788 -0.911l-1.375 -0.945l-5.535 -4.664l-1.439 -1.024l-1.163 -1.476l-0.616 -1.04l-1.339 -2.968l-0.467 -1.845l-0.413 -3.253l0.284 -2.817l0.494 -2.092l0.911 -2.826l0.957 -1.908l-6.306 -5.5l-7.718 -1.843l-8.379 -4.507l-2.929 -6.499l3.921 -6.126l0.325 -4.171l-3.039 0.258l1.73 -3.372l-1.363 -3.318l3.832 -3.24l-2.654 -3.371l0.324 -5.744l2.717 -7.276l-0.086 -4.085l3.134 -4.489l6.904 -3.035l1.91 -2.8l-0.958 -10.021l-5.518 -3.365l-4.906 -0.929l-59.128 0.088l-1.311 1.086l-0.987 2.056l-0.978 1.035l-2.262 1.825l-0.914 1.514l-0.548 2.206l-0.14 1.394l-0.283 1.24l-0.486 1.04z" />
  </g>
  <g data-id="005">
    <path d="m466.519 1153.84l0.552 25.859l0.043 14.103l9.282 -0.081l0.566 41.949l28.701 0.87l56.729 -0.482l-0.63 -56.052l-0.161 -26.18l1.722 -9.298l-83.628 -0.046l0.063 9.291l-13.239 0.065z" />
  </g>
  <g data-id="007">
    <path d="m640.516 4.537l-0.012 42.102l0.04 8.71l0.136 64.597l29.207 -0.36l29.088 -0.049l-0.006 -58.631l-0.441 -55.876l-14.435 0.513l-2.772 0.015l-2.536 0.014l-38.269 -1.034z" />
  </g>
  <g data-id="009">
    <path d="m148.522 857.975l-0.057 23.212l5.752 1.347l80.142 0.517l-3.569 -10.406l0.607 -1.687l2.953 -5.729l4.359 -2.302l4.372 -7.032l1.147 -7.463l5.228 -7.013l-0.655 -6.591l-7.431 2.447l-6.129 -1.123l-4.312 1.62l-5.378 -0.919l1.291 -7.038l-4.253 -3.849l3.324 -3.236l-1.49 -2.535l-4.587 3.014l-5.791 -3.089l-2.154 -4.434l-3.986 -1.942l1.18 -9.153l-8.096 -1.303l2.467 -6.153l-24.987 -0.643l-29.185 0.427l-0.307 56.695l-0.455 4.362z" />
  </g>
  <g data-id="011">
    <path d="m410.978 309.951l1.231 21.896l0.196 65.483l-0.294 28.647l54.507 0.206l0.108 28.212l42.904 0.022l-0.072 -28.237l18.034 0.151l9.268 0.124l4.891 -16.105l0.543 -6.365l12.806 -3.814l3.852 -3.199l10.74 2.962l15.224 0.966l-0.706 -61.62l0.008 -17.629l-0.013 -12.127l-115.753 0.113l-57.476 0.314z" />
  </g>
  <g data-id="013">
    <path d="m143.48 1025.21l0.69 2.371l1.31 1.476l1.032 0.776l2.476 1.025l1.658 0.368l1.268 1.056l0.7 1.668l1.573 1.614l8.63 5.143l2.891 1.963l1.841 1.556l4.681 5.401l1.109 1.018l4.358 2.384l1.465 1.155l0.693 2.121l1.714 1.848l2.021 1.4l1.998 4.113l3.996 4.693l3.115 1.138l1.272 0.899l1 1.03l0.742 1.518l1.341 5.929l-0.06 2.771l1.176 3.277l0.128 1.124l-0.02 1.186l-0.187 1.263l0.006 1.727l0.755 3.889l0.968 2.872l0.131 1.105l0.201 5.72l0.31 1.365l0.681 2.474l0.559 1.413l0.612 1.062l1.374 1.848l1.814 3.127l0.782 2.044l0.854 4.164l-0.226 3.376l-4.589 5.863l-0.426 1.994l-2.591 2.727l0.239 3.292l0.92 1.454l1.815 4.227l2.04 3.98l0.598 1.438l0.296 1.547l0.954 1.789l1.69 3.174l0.447 2.484l-0.005 5.855l0.117 1.176l1.022 3.152l0.651 1.319l0.911 4.474l0.547 1.97l1.523 2.487l1.018 1.321l1.289 1.291l2.009 1.227l1.001 1.386l1.845 3.942l8.248 5.299l2.979 1.925l1.66 0.222l2.53 -0.163l2.704 -0.62l2.445 -1.031l3.674 -4.18l3.524 -3.755l2.368 -1.263l1.826 -2.445l3.272 -4.984l1.058 -2.794l-0.181 -1.832l0.257 -1.288l2.564 -4.603l1.08 -0.951l1.338 -0.805l2.888 -1.1l-10.206 0.367l-6.932 4.057l-3.738 -1.459l-8.841 -11.142l-1.477 -5.156l-0.177 -8.51l-2.809 -3.144l1.665 -6.391l-1.958 -3.321l-3.56 -13.331l-2.731 -7.927l0.302 -6.566l5.501 -11.525l-1.683 -14.367l-2.94 -5.299l1.834 -10.575l-2.198 -5.959l-2.747 -17.343l2.14 -9.884l-80.438 -1.196z" />
  </g>
  <g data-id="015">
    <path d="m297.549 105.975l4.856 2.128l4.05 2.933l3.26 1.46l3.392 0.9l1.326 0.118l3.787 2.028l2.658 1.815l2.026 1.108l1.65 1.36l0.512 1.199l0.262 1.212l0.251 2.156l0.985 2.734l1.011 0.931l1.715 0.8l4.85 0.196l2.011 2.846l0.433 3.472l-0.086 2.503l-0.473 3.791l-1.233 3.97l0.698 4.407l0.065 3.911l0.201 2.973l1.408 1.453l1.147 1.574l0.823 1.218l0.45 2.266l1.329 2.613l0.65 1.994l0.275 1.903l-0.137 2.43l-1.349 2.633l-0.048 2.281l-0.591 1.025l-1.303 1.391l-2.068 4.294l-0.496 1.713l-0.2 2.45l0.272 1.315l0.796 1.369l1.989 2.607l0.205 1.386l21.981 -0.398l11.457 -0.112l7.423 -0.19l2.311 -0.06l72.965 0.283l-0.295 -2.394l0.462 -29.572l-0.944 -58.17l-55.956 0.952l-1.596 -0.183l-43.915 -0.095l-55.248 1.075z" />
  </g>
  <g data-id="017">
    <path d="m234.351 865.229l-2.953 5.729l146.703 1.218l-0.025 -9.431l-0.145 -67.276l-4.141 2.571l-7.108 -2.467l-2.702 2.912l-3.37 -0.163l-4.281 6.492l-7.738 -0.261l-3.353 1.337l-1.962 4.673l-13.703 -0.726l-1.331 3.574l-2.815 -1.875l-2.581 2.617l-3.383 -1.785l-9.865 -1.378l-3.894 1.9l-4.928 -7.331l0.417 -4.852l-2.853 -7.454l-9.897 -2.768l-4.93 0.998l-4.756 9.533l0 4.265l-8.765 5.991l-1.796 12.937l-4.461 3.159l-14.933 7.459l0.655 6.591l-5.228 7.013l-1.147 7.463l-4.372 7.032l-4.359 2.302z" />
  </g>
  <g data-id="019">
    <path d="m759.234 758.209l0.094 26.421l0.241 85.523l28.138 -0.116l102.461 -0.114l-0.495 -66.222l-0.176 -17.274l-0.148 -1.701l-0.291 -27.236l3.322 -0.045l-0.17 -14.377l-0.733 -42.364l-46.065 -0.396l-57.157 0.717l-28.126 -0.142l-0.115 38.189l-0.78 19.137z" />
  </g>
  <g data-id="021">
    <path d="m492.471 947.219l0.007 9.346l0.296 23.616l0.039 4.688l0.702 56.648l97.354 -0.008l28.47 0.893l-0.057 -99.4l-28.201 -0.308l-0.18 -10.494l-0.571 -36.813l-9.433 -4.591l-9.365 0.575l-3.996 0.164l-3.239 -4.19l-3.594 6.804l-8.814 4.93l-1.682 4.557l-6.481 2.27l-6.176 -1.07l-2.153 5.282l-2.767 -0.942l-5.911 5.379l-2.991 -0.465l-3.908 -5.988l-0.091 4.646l0.121 20.708l-13.412 -0.087l0.112 13.946l-14.08 -0.096z" />
  </g>
  <g data-id="023">
    <path d="m871.107 999.011l0.519 32.811l1.084 65.946l14.286 -0.307l50.842 -1.393l-0.234 2.224l22.487 0.038l-0.059 4.683l3.549 0.022l0.583 -2.955l4.889 -2.589l8.012 -7.399l2.884 -4.273l0.615 -2.34l-1.146 -4.679l-1.088 -3.413l-2.477 -1.245l-2.637 -3.86l-1.487 -7.324l3.113 -4.554l-0.71 -5.314l2.817 -6.735l2.677 -2.096l5.958 -0.047l2.586 -3.998l3.079 1.616l0.024 -9.562l0.048 -19.035l-0.033 -4.133l-0.03 -5.402l-0.004 -1.017l-0.01 -2.494l-39.213 0.114l0.43 -3.413l-19.237 0.411l-48.667 1.534l-13.451 0.176z" />
  </g>
  <g data-id="025">
    <path d="m701.57 1209.13l-0.82 70.275l28.364 -0.397l82.297 2.487l1.207 -0.639l-9.313 -5.867l-1.465 -2.092l-0.233 -4.947l5.034 -5.072l-2.824 -7.498l0.241 -16.072l6.405 0.213l-0.199 -37.176l-25.687 -1.469l0.003 -18.781l-54.355 -1.452l-28.249 0.246l-0.407 28.242z" />
  </g>
  <g data-id="027">
    <path d="m449.668 1263.81l0.673 76.148l1.865 -2.943l7.344 -2.285l0.806 -4.176l9.048 -1.709l3.729 -7.233l5.92 -0.66l4.102 -2.311l1.093 2.254l11.215 -0.828l2.28 1.848l7.96 1.255l6.656 -3.555l1.649 -3.004l4.987 -3.138l4.375 3.713l1.246 -2.62l9.596 -0.726l1.529 -5.274l2.427 -1.387l1.896 2.585l8.221 -0.521l2.957 2.066l6.45 0.433l4.526 -1.284l27.632 1.74l1.073 -46.416l0.298 -27.909l-28.828 -1.815l-56.729 0.482l-28.701 -0.87l0.481 24.365l0.071 3.481l-27.846 0.294z" />
  </g>
  <g data-id="029">
    <path d="m757.112 943.841l0.39 66.045l-0.081 23.371l110.619 -1.002l3.585 -0.432l-0.519 -32.811l13.451 -0.176l-1.374 -52.003l-0.225 -14.098l-14.844 0.343l-9.272 1.15l0.007 9.301l-101.737 0.313z" />
  </g>
  <g data-id="031">
    <path d="m809.005 148.622l0.096 17.225l0.017 1.176l0.077 8.578l2.391 -0.056l10.568 -0.239l6.624 -0.113l2.519 -0.033l3.517 -0.07l7.663 -0.311l14.753 -0.74l9.616 -0.496l1.953 0.013l13.153 -0.171l7.641 -0.162l4.847 -0.136l0.056 17.508l-0.009 3.447l-0.034 8.183l0.023 14.941l0.51 14.518l0.243 7.456l0.054 1.724l0.093 3.211l0.098 3.372l0.479 17.127l0.033 1.197l-1.695 0.066l-5.061 4.373l-0.237 1.476l-1.215 1.116l-2.009 0.791l-2.832 2.135l-3.398 -0.154l-6.13 0.517l-5.983 0.137l0.104 5.109l0.216 9.467l28.82 -0.809l0.366 14.531l0.27 14.452l24.179 -0.469l4.847 -0.083l0.125 4.926l0.469 5.22l0.023 9.644l0.003 7.776l0.748 1.927l22.073 0.024l11.099 0.004l19.102 -0.078l4.853 -0.024l8.012 -0.072l0.06 -6.559l0.1 -10.874l0.021 -2.33l-0.025 -9.813l0.1 -1.364l0 -6.565l0 -4.172l0 -8.97l-0.025 -3.297l-0.011 -14.329l-0.014 -5.4l-0.025 -3.668l0.224 -1.901l-0.024 -5.221l-1.644 -8.089l-3.013 -1.301l-4.432 -4.639l-3.909 -6.677l-1.046 -5.582l-1.619 -2.87l-0.841 -1.294l-2.519 -3.881l-2.216 -6.149l-1.693 -7.922l-0.071 -4.502l0.585 -2.015l0.629 -1.269l-1.437 -1.945l-0.602 -1.124l-1.046 -0.95l-1.711 -9.63l-1.16 -3.952l-1.092 -3.707l-0.399 -1.356l-1.709 -5.804l-4.521 -15.358l-0.594 -2.018l-0.725 -6.312l0.344 -1.679l-0.237 -1.795l-2.713 -5.834l-7.121 -6.575l-3.411 -4.161l-4.233 -6.881l-1.976 -3.64l-2.422 -4.464l-15.398 -0.061l-6.724 -0.09l-9.731 -0.048l-11.736 -0.051l-2.924 -0.022l-9.671 -0.152l-4.848 -0.006l-4.801 -0.03l-24.348 -0.154l-3.016 -0.004l-4.254 -0.004l-12.159 -0.015l-9.676 0.004l0.048 20.778l0.018 8.508l-1.28 -0.022l-5.058 0.06z" />
  </g>
  <g data-id="033">
    <path d="m886.996 1097.46l0.9 29.215l0.212 74.836l9.412 0.013l36.977 0.19l18.785 -0.852l37.292 -0.101l-4.023 -2.259l-0.714 -1.21l1.497 -3.924l0.817 -6.23l4.094 -4.029l2.196 -4.965l1.653 -9.99l-4.309 -5.606l-12.155 -5.4l-0.199 -4.107l2.346 -5.705l-1.327 -4.695l0.607 -7.445l-5.922 -7.168l-3.023 -0.9l-1.244 -1.002l-0.778 -1.402l-0.155 -2.004l-0.467 -1.402l-1.555 -0.401l-1.244 -0.802l-0.622 -2.003l0 -1.202l0.157 -1.414l-2.714 -3.164l-0.708 -5.244l0.8 -4.053l-3.549 -0.022l0.059 -4.683l-22.487 -0.038l0.234 -2.224l-50.842 1.393z" />
  </g>
  <g data-id="035">
    <path d="m757.403 1084.56l0.01 13.995l27.439 0.111l87.858 -0.901l-1.084 -65.946l-3.585 0.432l-110.619 1.002l-0.019 51.308z" />
  </g>
  <g data-id="037">
    <path d="m640.209 192.673l0.086 14.599l0.663 87.924l29.972 -1.01l26.338 0.286l14.498 -0.182l12.939 -0.118l-0.311 -27.396l0.387 -1.994l-0.015 -4.847l0.108 -94.905l-0.099 -16.274l3.393 0.002l-0.003 -14.615l-0.078 -14.625l-29.111 0.018l-29.088 0.049l-29.207 0.36l0.198 29.281l-0.669 43.446z" />
  </g>
  <g data-id="039">
    <path d="m588.638 739.039l0.996 75.971l99.487 -2.061l-0.045 -14.193l14.253 0.038l0.025 -14.187l28.16 -45.392l-83.645 -0.305l-2.164 -0.14l-28.673 0.022l-4.321 -0.118l-24.074 0.366z" />
  </g>
  <g data-id="041">
    <path d="m756.836 898.444l0.276 45.397l101.737 -0.313l-0.007 -9.301l9.272 -1.15l14.844 -0.343l-0.542 -34.456l7.904 -0.007l-0.153 -28.348l-102.461 0.114l-28.138 0.116l-0.03 28.296l-2.702 -0.006z" />
  </g>
  <g data-id="043">
    <path d="m809.196 175.601l0.116 29.169l-0.018 5.516l-0.076 23.542l0.128 13.426l0.08 15.832l13.856 -0.199l1.541 -0.025l12.925 -0.264l7.693 -0.244l13.426 -0.433l8.22 -0.249l0.191 7.955l0.153 6.603l5.983 -0.137l5.674 -0.142l3.854 -0.221l2.832 -2.135l2.009 -0.791l1.215 -1.116l0.237 -1.476l5.061 -4.373l1.695 -0.066l-0.033 -1.197l-0.479 -17.127l-0.09 -3.086l-0.101 -3.497l-0.054 -1.724l-0.243 -7.456l-0.51 -14.518l-0.023 -14.941l0.034 -8.183l0.009 -3.447l-0.056 -17.508l-4.847 0.136l-7.641 0.162l-13.153 0.171l-1.953 -0.013l-9.616 0.496l-14.753 0.74l-7.64 0.31l-3.54 0.071l-2.519 0.033l-5.771 0.091l-11.421 0.261l-2.391 0.056z" />
  </g>
  <g data-id="045">
    <path d="m882.417 898.277l0.542 34.456l0.225 14.098l1.374 52.003l48.667 -1.534l19.237 -0.411l-0.43 3.413l39.213 -0.114l0.009 -4.706l-0.016 -1.232l-0.054 -8.017l-0.014 -2.123l0.006 -6.107l-0.017 -5.864l-0.047 -13.986l-0.042 -12.548l-0.084 -6.061l-0.09 -37.832l0.002 -4.698l0 -2.488l-0.021 -2.277l-0.021 -23.365l-12.032 0.23l5.985 4.403l-14.916 0.075l0.558 -4.263l-46.937 0.305l-33.345 0.288l0.153 28.348l-7.904 0.007z" />
  </g>
  <g data-id="047">
    <path d="m837.842 1291.19l-0.768 99.45l30.661 0.138l9.249 -1.285l-0.269 -3.203l10.097 -6.596l-1.496 -2.942l2.623 -2.788l-2.916 -3.493l1.099 -5.499l-3.338 -5.253l-2.449 -7.529l0.265 -7.198l5.104 -7.9l2.933 -9.881l-1.843 -10.475l0.899 -5.432l-1.728 -3.298l3.939 -5.543l-3.359 -2.945l-0.425 -8.65l-48.279 0.321z" />
  </g>
  <g data-id="049">
    <path d="m674.143 1084.17l-0.366 97.667l28.199 -0.941l28.249 -0.246l54.355 1.452l0.272 -83.429l-26.573 -0.117l-0.876 -13.989l-83.26 -0.397z" />
  </g>
  <g data-id="051">
    <path d="m561.601 1153.82l0.161 26.18l0.63 56.052l28.828 1.815l0.063 -28.077l26.765 0.439l83.521 -1.096l0.407 -28.242l-28.199 0.941l0.366 -97.667l-55.299 0.26l-27.177 -0.558l-28.362 -0.103l0.017 60.758l-1.722 9.298z" />
  </g>
  <g data-id="053">
    <path d="m760.311 672.294l-0.182 28.589l28.126 0.142l57.157 -0.717l46.065 0.396l0.129 -1.558l-0.856 -26.747l-17.121 -0.9l-28.339 0.267l-0.072 -9.537l-3.422 -158.028l-28.722 1.061l3.075 123.791l-37.913 0.308l-17.987 -0.025l0.062 42.958z" />
  </g>
  <g data-id="055">
    <path d="m584.642 1485.88l-3.183 1.499l6.663 0.036l-0.085 27.83l110.645 -0.422l0.034 -13.709l0.033 -13.958l0.469 -55.058l-105.819 0.142l-1.291 7.278l4.206 1.72l-1.318 10.436l1.252 1.06l-3.594 1.694l-1.908 6.802l1.053 4.759l-2.286 2.927l-0.131 7.28l-4.739 9.685z" />
  </g>
  <g data-id="057">
    <path d="m264.616 740.9l-0.317 28.517l62.726 1.612l4.667 -3.933l5.688 -7.707l4.984 -0.958l4.724 -4.132l2.906 -8.363l2.642 -1.887l6.488 -8.65l0.476 -6.756l4.522 -6.643l-0.56 -4.327l1.681 -5.569l2.015 -3.437l13.492 -5.751l8.852 -10.555l5.856 -3.599l4.018 -3.061l4.849 -9.093l0.954 -6.354l0.757 -4.231l2.423 -2.53l-0.261 -36.497l-28.758 -0.444l0.734 -28.367l-57.073 -0.452l-28.497 -0.111l-28.525 -0.294l-0.291 28.566l-1.175 115.007z" />
  </g>
  <g data-id="059">
    <path d="m781.397 1500.84l-0.211 97.012l48.723 0.115l6.722 7.985l4.802 -0.133l-0.69 -1.901l-0.948 -1.937l-0.241 -1.387l0.178 -1.382l-0.131 -1.224l-0.367 -1.439l-2.606 -6l-1.03 -3.135l-0.385 -2.247l-0.066 -2.877l-0.354 -1.646l-0.031 -1.025l0.203 -1.338l1.923 -4.168l1.547 -2.357l2.776 -2.803l0.483 -1.776l1.819 -3.132l1.8 -1.727l2.668 -1.049l1.306 -0.668l1.515 -1.627l2.454 -1.694l3.327 -1.479l2.175 -1.687l1.049 -1.248l2.402 -3.612l1.827 -4.107l0.43 -1.563l0.524 -3.851l0.732 -2.397l0.844 -1.4l1.097 -0.902l-0.337 -1.379l-1.512 -1.865l-2.189 0.298l-3.313 2.062l-2.83 0.33l-3.556 -3.124l-1.912 -4.277l1.796 -1.799l2.397 0.32l3.443 1.989l3.054 0.354l1.911 -0.194l3.458 -2.763l-1.725 -3.408l-6.042 -1.883l-2.437 -2.573l-2.78 -7.275l-3.566 -4.008l-10.714 -7.665l-0.023 2.626l-59.389 -0.188z" />
  </g>
  <g data-id="061">
    <path d="m223.918 1026.41l-2.14 9.884l2.747 17.343l2.198 5.959l-1.834 10.575l2.94 5.299l1.683 14.367l-5.501 11.525l-0.302 6.566l2.731 7.927l1.124 -5.418l4.046 -3.162l-1.098 -3.386l2.793 -3.305l-1.143 -6.336l1.487 2.014l9.501 -4.572l7.207 2.462l1.363 7.052l3.524 -0.27l0.097 -3.551l43.307 0.267l-0.131 -16.305l27.96 -0.143l-0.458 -10.584l2.218 -1.14l11.61 0.006l-1.414 -83.233l-36.86 0.04l-69.525 -0.496l-2.748 11.213l-4.583 9.525l-1.57 10.822l0.775 9.056z" />
  </g>
  <g data-id="063">
    <path d="m726.268 352.172l2.42 115.542l57.325 -1.142l26.014 -0.816l2.642 -0.055l-0.81 -28.83l-0.709 -28.812l-0.546 -28.883l-0.379 -14.407l-0.376 -14.498l-85.58 1.9z" />
  </g>
  <g data-id="065">
    <path d="m698.75 1487.16l-0.033 13.958l82.68 -0.278l1.034 -109.958l-82.661 -0.425l-0.551 41.645l-0.469 55.058z" />
  </g>
  <g data-id="067">
    <path d="m1.527 760.727l-0.08 2.025l0.151 1.493l0.405 1.575l147.655 2.229l0.551 -29.779l1.379 -116.103l-2.41 0.477l-27.072 0.919l-40.532 -1.025l-3.106 0.644l-5.112 -0.764l-7.323 0.015l-1.3 0.14l-1.288 0.423l-1.669 0.912l-2.794 0.542l-7.556 1.971l-8.264 4.18l-2.244 1.244l-1.309 1.03l-1.465 1.557l-3.58 6.3l-1.369 2.668l-5.41 4.914l-0.936 1.578l-0.401 2.321l0.162 1.592l0.517 1.17l2.402 1.502l1.595 0.483l1.546 1.58l3.186 5.147l1.207 4.089l0.131 1.909l-0.057 1.339l-0.25 1.949l-0.786 3.118l-2.507 5.972l-0.439 1.402l-0.389 1.986l-0.075 1.14l0.2 2.342l0.832 2.963l0.972 2.761l0.316 2.098l-0.026 3.359l-0.794 3.047l-1.546 1.388l-1.594 0.884l-2.15 0.589l-3.987 0.278l-1.596 1.312l-1.795 2.051l-3.165 1.771l-1.367 1.111l-0.747 1.32l-1.096 1.784l-2.466 3.677l-1.111 2.598l-0.76 3.936l-0.54 1.655l-3.548 7.807l-0.944 2.408l-0.712 2.556l-0.041 2.706l0.589 1.667l0 1.734l-1.678 3.503l-1.486 1.725l-0.647 1.512l-0.035 1.479l0.42 3.263l-0.663 2.853z" />
  </g>
  <g data-id="069">
    <path d="m771.285 1652.7l1.579 -0.111l1.165 0.335l1.69 0.784l2.408 1.618l2.53 2.087l1.011 1.719l1.985 0.839l1.734 -0.988l2.514 -1.853l3.79 -5.167l2.984 -2.35l2.145 -1.846l3.676 -1.952l4.022 -1.813l6.591 -1.302l4.334 -0.02l3.18 -0.182l4.504 -0.878l4.558 -0.536l3.319 -0.594l4.537 -0.988l5.457 -1.471l1.776 0.351l4.629 -0.584l3.386 -0.206l1.161 0.102l1.739 0.001l1.54 -2.336l1.394 -1.072l1.159 0.618l1.353 -1.959l-0.453 -1.311l0.386 -1.236l0.316 -2.913l-0.318 -2.615l-1.606 -3.683l-0.803 -1.108l-1.445 -1.006l-2.029 -0.677l-1.648 -1.711l-2.081 -3.672l-1.098 -1.523l-2.177 -1.887l-1.789 -1.877l-2.516 -1.508l-5.243 -0.265l-6.722 -7.985l-48.723 -0.115l-9.145 -0.1l-0.756 54.943z" />
  </g>
  <g data-id="071">
    <path d="m89.326 617.443l-7.752 5.094l40.532 1.025l27.072 -0.919l2.41 -0.477l28.523 1.132l0.02 -14.206l1.089 -128.315l-40.78 -0.496l0.857 2.813l0.242 3.128l0.23 1.194l0.332 3.356l0.017 1.244l-0.765 5.09l0.067 2.429l-0.223 1.789l-0.917 3.71l-1.386 2.785l-0.732 2.321l0.013 1.03l0.741 2.237l0.597 2.562l0.186 1.269l-0.066 1.382l-2.049 5.831l-0.611 3.756l-0.604 1.095l-3.447 2.014l-1.562 1.114l-3.246 1.325l-1.254 0.98l-1.494 1.509l-0.922 1.298l-2.072 4.15l-1.476 1.596l-2.315 1.362l-1.958 2.2l-0.67 1.219l-0.721 2.021l-1.541 3.333l-2.671 2.103l-2.58 2.827l-3.125 2.885l-0.727 1.171l-0.959 3.113l-0.2 1.987l0.154 1.021l1.189 3.145l0.251 2.034l-0.114 2.307l-1.103 4.134l-0.491 1.282l-1.091 2.024l-1.423 2.018l-0.554 1.777l-1.322 6.69l0.144 1.075l1.012 4.471l0.042 1.649l-0.252 2.051l-0.863 1.705l-1.052 5.231l-0.296 1.023l-0.774 1.19l-3.517 2.711l-4.043 2.395z" />
  </g>
  <g data-id="073">
    <path d="m268.713 395.332l-0.967 58.183l112.807 0.624l27.251 -0.047l1.673 0.183l0.161 -28.279l2.475 -0.018l0.294 -28.647l-0.196 -65.483l-1.231 -21.896l-80.481 -0.216l1.621 3.716l-3.336 10.073l-12.098 6.059l-22.797 3.656l-9.155 5.74l-1.768 5.982l-13.793 7.276l-0.085 14.168l-0.373 28.925z" />
  </g>
  <g data-id="075">
    <path d="m841.796 504.201l3.422 158.028l0.072 9.537l28.339 -0.267l17.121 0.9l70.502 -0.749l31.308 -0.99l0.007 -14.367l0.056 -66.199l0.086 -38.632l-0.082 -8.344l-0.08 -4.777l0.088 -5.807l-0.055 -32.477l-150.782 4.147z" />
  </g>
  <g data-id="077">
    <path d="m456.224 1527.63l1.551 6.223l1.182 0.966l1.41 2.874l0.897 1.419l0.038 1.658l-0.24 1.669l-0.732 2.275l-0.584 1.359l-0.378 1.484l0.487 1.862l0.668 1.108l1.219 0.737l2.222 0.696l1.021 -0.192l3.002 0.103l1.334 -0.741l2.672 -0.499l0.27 1.712l0.925 1.338l2.507 1.116l1.454 1.135l1.314 2.923l1.015 1.917l0.97 1.337l2.44 1.321l1.696 0.59l6.984 1.931l1.799 0.227l1.418 0.596l2.252 1.787l1.164 2.277l-0.008 1.428l-0.47 1.387l-0.552 2.705l-0.17 3.738l0.23 1.662l0.011 1.65l-0.463 1.364l0.515 1.5l1.275 1.475l0.987 2.108l5.171 5.624l1.841 2.605l0.469 1.042l0.121 1.674l-0.378 1.364l-2.12 1.581l-1.989 0.232l-3.857 -1.266l-1.096 -0.21l-1.46 0.65l-0.365 1.186l-0.061 2.142l12.117 3.212l4.92 -5.713l0.621 -6.255l54.274 0.478l19.651 -0.619l0.402 -43.062l0.219 -39.266l0.085 -27.83l-6.663 -0.036l-14.974 -0.059l-88.967 -1.519l-15.289 30.518l-2.004 9.347l-4.003 1.958z" />
  </g>
  <g data-id="079">
    <path d="m784.58 1182.1l-0.003 18.781l25.687 1.469l77.843 -0.837l-0.212 -74.836l-0.9 -29.215l-14.286 0.307l-87.858 0.901l-0.272 83.429z" />
  </g>
  <g data-id="081">
    <path d="m588.929 1404.33l-0.558 27.852l5.03 0.062l105.819 -0.142l0.551 -41.645l0.854 -69.303l-55.636 -0.654l-27.567 0.956l-27.693 0.027l-0.27 27.473l-0.529 55.373z" />
  </g>
  <g data-id="083">
    <path d="m227.563 1110.43l-1.124 5.418l3.56 13.331l1.958 3.321l-1.665 6.391l2.809 3.144l0.177 8.51l1.477 5.156l8.841 11.142l3.738 1.459l6.932 -4.057l10.206 -0.367l2.671 0.126l1.577 0.589l2.245 0.557l2.893 0.146l1.678 0.248l2.627 0.806l2.502 1.162l9.791 5l3.214 2.337l2.329 1.172l1.645 0.613l2.021 1.214l2.675 0.232l3.734 -0.209l1.554 0.106l0.587 -13.704l0.356 -10.513l5.869 -0.224l25.923 0l-0.077 -55.89l-0.441 -28.169l-11.61 -0.006l-2.218 1.14l0.458 10.584l-27.96 0.143l0.131 16.305l-43.307 -0.267l-0.097 3.551l-3.524 0.27l-1.363 -7.052l-7.207 -2.462l-9.501 4.572l-1.487 -2.014l1.143 6.336l-2.793 3.305l1.098 3.386l-4.046 3.162z" />
  </g>
  <g data-id="085">
    <path d="m213.254 6.51l0.05 1.891l0.573 1.722l1.817 2.228l1.451 1.141l4.126 3.246l4.481 2.497l3.962 1.354l2.063 1.031l2.836 0.923l1.366 0.999l1.197 1.972l0.408 1.477l0.158 2.541l0.784 1.634l1.73 1.019l7.606 3.404l2.661 1.425l1.668 1.097l1.086 1.056l1.352 1.791l1.423 0.864l1.114 -0.029l1.5 0.973l0.958 1.137l1.366 3l3.004 3.42l1.594 0.762l3.927 6.798l1.29 1.43l1.577 1.384l0.62 1.144l0.084 1.278l-0.964 1.224l-0.056 2.017l-0.038 2.126l-0.964 4.055l-1.596 3.067l-0.037 2.013l1.689 3.992l0.477 2.175l0.711 1.827l2.205 2.26l2.444 2.844l1.188 2.071l0.282 1.37l0.906 1.206l3.978 3.584l2.487 1.44l2.035 1.708l4.679 0.714l2.464 0.764l2.571 2.399l55.248 -1.075l43.915 0.095l-1.832 -104.084l-7.042 0.053l-7.415 -0.283l-3.023 -0.098l-4.933 -0.126l-14.102 -0.387l-4.819 0.039l-12.422 0.003l-5.338 -0.041l-4.284 0.069l-6.1 0.108l-4.262 -0.006l-6.83 0.082l-4.113 -0.041l-1.425 0.038l-7.708 0.021l-14.647 0.142l-1.3 -0.022l-9.474 0.075l-5.092 -0.057l-2.647 -0.03l-9.447 -0.114l-1.118 0.023l-3.055 -0.07l-10.093 0.017l-3.011 -0.045l-1.698 0.005l-1.169 0.061l-2.385 -0.031l-12.236 -0.153l-7.034 -0.144l-1.44 3.505l-1.817 2.161z" />
  </g>
  <g data-id="087">
    <path d="m614.525 1682.47l0.05 11.17l10.219 -5.346l9.949 4.339l8.577 -1.648l6.644 -4.337l-1.486 -6.032l44.815 0.18l4.421 -0.594l0.524 -82.244l-27.473 -0.44l-4.448 0.996l-50.949 0.293l-0.843 83.663z" />
  </g>
  <g data-id="089">
    <path d="m724.767 259.936l0.015 4.847l27.949 -0.52l21.206 -0.383l7.265 -0.113l13.898 -0.332l14.326 -0.349l-0.077 -15.562l-0.131 -13.616l0.076 -23.622l0.018 -5.516l-0.116 -29.169l-0.077 -8.578l-0.017 -1.176l-0.096 -17.225l5.058 -0.06l1.28 0.022l-0.018 -8.508l-0.048 -20.778l-4.79 0.059l-1.858 0.136l-12.725 -0.059l-1.221 -0.008l-8.221 -0.045l-9.787 0.032l-19.737 0.052l-28.851 0.053l0.078 14.625l0.003 14.615l-3.393 -0.002l0.099 16.274l-0.108 94.905z" />
  </g>
  <g data-id="091">
    <path d="m812.028 465.756l1.046 39.506l28.722 -1.061l150.782 -4.147l-0.053 -4.781l-0.048 -31.918l0.003 -6.007l0.001 -3.162l0.001 -1.566l-0.006 -1.815l0.038 -1.461l-0.05 -44.422l-64.212 0.74l-28.038 0.489l-15.145 0.353l-13.89 0.275l0.525 28.789l-57.844 1.304l0.81 28.83l-2.642 0.055z" />
  </g>
  <g data-id="093">
    <path d="m724.394 266.777l0.311 27.396l1.564 57.999l85.577 -2.004l-0.513 -19.163l-0.263 -9.768l-0.48 -14.436l-0.46 -14.23l-0.421 -19.878l-0.116 -9.609l-14.495 0.35l-12.9 0.302l-8.263 0.143l-21.085 0.381l-28.07 0.522l-0.387 1.994z" />
  </g>
  <g data-id="095">
    <path d="m266.945 520.724l-0.863 76.602l28.525 0.294l28.497 0.111l57.074 0.418l0.146 -86.27l0.229 -57.742l-112.807 -0.624l-0.44 28.832l-0.361 38.378z" />
  </g>
  <g data-id="097">
    <path d="m825.225 89.956l-0.271 29.339l12.159 0.015l4.254 0.004l3.016 0.004l24.348 0.154l4.801 0.03l4.848 0.006l9.671 0.152l2.412 0.026l12.248 0.047l9.731 0.048l6.724 0.09l15.398 0.061l-10.143 -18.701l-3.038 -8.001l-4.059 -12.815l-1.544 -10.634l0.765 -7.875l0.177 -1.821l1.8 -10.629l1.799 -0.655l2.778 -7.045l0.403 -9.801l0.055 -1.337l0.631 -8.684l0.728 -9.522l-0.599 -6.819l-3.833 0l-6.902 -0.131l-13.545 -0.231l-18.245 -0.347l-4.706 -0.169l-14.839 -0.27l-11.061 -0.206l-5.248 -0.098l-20.94 0.068l0.197 27.148l-0.051 6.381l0.039 22.839l-0.035 9.383l0.019 1.84l0.116 18.142z" />
  </g>
  <g data-id="099">
    <path d="m584.048 295.067l0.042 3.603l0.117 10.854l0.013 12.127l-0.008 17.629l0.706 61.62l0.27 39.034l0.095 29.2l28.477 -0.259l0.034 59.074l28.962 -0.656l0.164 -47.64l-0.038 -11.147l29.545 -0.205l8.534 -0.045l47.725 -0.541l-2.42 -115.542l-1.564 -57.999l-12.939 0.118l-14.498 0.182l-26.338 -0.286l-29.972 1.01l-26.513 0.543l-30.397 -0.672z" />
  </g>
  <g data-id="101">
    <path d="m896.98 1289.33l-0.499 1.537l64.92 0.617l3.43 -6.48l2.089 -0.465l1.362 -1.278l-0.861 -3.649l1.238 -4.28l0.561 -6.57l6.583 -8.899l11.985 -3.256l2.505 -1.441l1.057 -0.608l2.894 -4.198l0.723 -6.105l3.282 -5.494l1.75 -2.93l-0.611 -4.803l0.138 -1.525l0.462 -5.115l-7.669 -12.634l1.409 -2.702l-1.049 -7.102l-2.107 -1.183l-37.292 0.101l-18.785 0.852l-36.977 -0.19l-0.54 87.8z" />
  </g>
  <g data-id="103">
    <path d="m468.461 251.914l-0.007 57.723l115.753 -0.113l-0.117 -10.854l-0.042 -3.603l30.397 0.672l26.513 -0.543l-0.663 -87.924l-104.418 1.231l0.04 -4.874l-10.603 0.123l-2.868 5.384l-3.491 -2.63l1.312 -4.352l-12.242 -1.635l-2.187 3.244l-36.846 0.209l-0.232 19.39l-0.3 28.551z" />
  </g>
  <g data-id="105">
    <path d="m642.922 479.652l-0.164 47.64l0.513 57.394l85.909 -1.404l0.528 28.578l1.726 -0.004l0.178 17.74l28.638 -0.261l17.987 0.025l37.913 -0.308l-3.075 -123.791l-1.046 -39.506l-26.014 0.816l-57.325 1.142l-47.725 0.541l-8.534 0.045l-29.545 0.205l0.038 11.147z" />
  </g>
  <g data-id="107">
    <path d="m475.553 726.604l-0.218 33.203l0.56 31.259l0.121 9.82l5.476 -0.019l0.209 37.783l23.518 -0.197l0.101 14.159l19.532 0.132l-0.023 4.684l46.61 0.427l18.522 -0.213l-0.327 -42.632l-0.996 -75.971l-28.354 0.365l-0.271 -14.503l-84.46 1.703z" />
  </g>
  <g data-id="109">
    <path d="m151.587 622.167l-1.379 116.103l114.408 2.63l1.175 -115.007l-85.681 -2.594l-28.523 -1.132z" />
  </g>
  <g data-id="111">
    <path d="m698.528 5.03l0.441 55.876l0.006 58.631l29.111 -0.018l28.851 -0.053l19.672 -0.051l9.852 -0.033l8.221 0.045l1.221 0.008l12.725 0.059l1.858 -0.136l4.79 -0.059l9.676 -0.004l0.271 -29.339l-0.055 -18.156l-0.019 -1.84l0.035 -9.383l-0.039 -22.839l-0.004 -6.382l-0.142 -27.147l-4.359 0.032l-8.263 0.034l-5.217 0.329l-8.377 0.025l-28.06 0.052l-10.955 0l-11.332 -0.089l-8.357 -0.014l-24.442 -0.04l-17.111 0.492z" />
  </g>
  <g data-id="113">
    <path d="m558.606 636.884l0.72 35.636l0.687 52.381l0.271 14.503l28.352 -0.522l24.076 -0.209l4.321 0.118l28.673 -0.022l2.164 0.14l83.645 0.305l28.499 -0.142l0.115 -38.189l0.182 -28.589l-0.062 -42.958l-28.638 0.261l-0.178 -17.74l-1.726 0.004l-0.528 -28.578l-85.909 1.404l-14.332 0.342l0.547 28.687l-15.092 0.333l0.237 11.98l-14.241 0.785l0.108 4.169l-8.237 0.274l0.116 4.839l-5.334 0.104l-28.436 0.685z" />
  </g>
  <g data-id="115">
    <path d="m571.439 857.855l0.084 20.775l0.009 12.74l9.365 -0.575l9.433 4.591l0.571 36.813l0.18 10.494l28.198 0.161l53.557 0.458l-0.531 -28.236l13.661 0.187l-0.204 -16.894l3.234 -0.026l0.126 -85.396l-99.487 2.061l0.327 42.632l-18.522 0.213z" />
  </g>
  <g data-id="117">
    <path d="m338.429 986.249l1.414 83.233l0.441 28.169l0.077 55.89l4.334 0.353l2.632 -0.011l19.035 0.108l85.396 -0.108l-1.227 -107.24l1.092 -4.864l-0.635 -56.516l-27.76 0.171l-28.106 0.237l-56.693 0.577z" />
  </g>
  <g data-id="119">
    <path d="m308.213 1164.28l-0.177 13.784l1.482 0.291l1.763 0.708l1.444 -0.134l1.679 0.454l2.127 1.445l2.83 1.27l1.816 1.111l2.371 2.219l1.07 1.107l2.891 2.99l1.818 0.448l5.95 3.166l3.71 2.942l9.506 5.704l0.976 1.841l0.075 1.95l-1.394 7.159l-0.747 2.971l-1.344 2.46l-5.876 4.791l-4.905 3.321l-1.22 1.948l-0.946 2.012l-0.299 1.852l-1.768 2.426l-1.967 1.245l-3.461 3.447l-1.17 1.947l-0.316 1.269l-0.182 1.316l-0.025 1.978l0.697 2.871l1.731 2.947l1.132 1.23l2.813 4.754l0.946 2.997l0.32 1.584l21.59 0.202l1.213 0.094l13.103 0.32l27.064 0.223l55.134 0.868l27.846 -0.294l-0.071 -3.481l-0.481 -24.365l-0.566 -41.949l-9.282 0.081l-0.263 -14.099l-0.332 -25.863l-3.402 -0.111l-11.359 0.159l-85.396 0.108l-19.035 -0.108l-2.632 0.011l-4.334 -0.353l-25.923 0l-5.869 0.224l-0.356 10.513z" />
  </g>
  <g data-id="121">
    <path d="m589.85 1312.19l-0.122 9.291l27.693 -0.027l27.567 -0.956l55.636 0.654l0.125 -41.745l0.82 -70.275l-83.521 1.096l-26.765 -0.439l-0.063 28.077l-0.298 27.909l-1.073 46.416z" />
  </g>
  <g data-id="123">
    <path d="m466.703 456.798l-0.05 55.342l47.561 0.152l-1.895 12.441l-4.238 4.713l48.925 -1.075l28.835 -0.862l27.955 0.441l-0.034 -59.074l-28.477 0.259l-48.847 0.049l4.031 -2.488l2.182 -4.063l1.049 -8.019l-34.067 -0.196l-42.904 -0.022l-0.025 2.404z" />
  </g>
  <g data-id="125">
    <path d="m292.669 786.618l-4.226 3.867l9.897 2.768l2.853 7.454l-0.417 4.852l4.928 7.331l3.894 -1.9l9.865 1.378l3.383 1.785l2.581 -2.617l2.815 1.875l1.331 -3.574l13.703 0.726l1.962 -4.673l3.353 -1.337l7.738 0.261l4.281 -6.492l3.37 0.163l2.702 -2.912l7.108 2.467l4.141 -2.571l3.119 -1.78l3.107 -9.08l2.791 2.574l5.503 0.624l2.667 -2.444l6.956 3.958l6.861 -2.895l0.575 2.268l6.658 -0.026l2.424 2.04l9.312 -0.088l5.461 -2.595l5.785 1.603l10.231 -6.432l3.425 1.854l2.623 -4.591l12.27 0.466l3.544 5.651l4.652 4.491l-0.56 -31.259l0.218 -33.203l-27.871 0.297l-0.542 -38.054l-27.657 0.415l-24.023 -0.502l-5.856 3.599l-8.852 10.555l-13.492 5.751l-2.015 3.437l-1.681 5.569l0.56 4.327l-4.522 6.643l-0.476 6.756l-6.488 8.65l-2.642 1.887l-2.906 8.363l-4.724 4.132l-4.984 0.958l-5.688 7.707l-4.667 3.933l-1.64 9.174l-2.488 1.736l-12.948 -1.337l-10.517 4.973l-6.762 1.043z" />
  </g>
  <g data-id="127">
    <path d="m643.32 1690.98l0.276 23.782l1.778 0.58l4.491 1.71l8.293 2.997l8.584 4.134l3.514 1.339l3.788 1.128l2.078 1.169l2.596 1.959l1.863 1.903l0.875 1.161l2.637 1.911l3.06 2.487l1.744 0.98l2.024 1.578l1.452 0.799l2.157 0.863l5.201 -0.453l2.134 0.466l1.548 0.555l10.679 5.163l1.717 0.479l1.835 0.096l1.174 0.482l3.597 2.096l2.563 1.768l1.798 1.661l1.174 0.657l1.885 2.837l1.224 1.472l1.828 1.136l1.377 1.146l4.591 2.664l3.442 0.877l2.525 0.502l1.763 0.11l2.47 -0.011l3.526 -0.802l-0.015 -28.574l-54.851 -55.588l-4.421 0.594l-44.815 -0.18l1.486 6.032l-6.644 4.337z" />
  </g>
  <g data-id="129">
    <path d="m377.93 795.469l0.145 67.276l56.085 -0.159l-0.022 -4.521l16.796 -0.144l0.898 -19.005l29.869 -0.266l-0.209 -37.783l-5.476 0.019l-0.121 -9.82l-4.652 -4.491l-3.544 -5.651l-12.27 -0.466l-2.623 4.591l-3.425 -1.854l-10.231 6.432l-5.785 -1.603l-5.461 2.595l-9.312 0.088l-2.424 -2.04l-6.658 0.026l-0.575 -2.268l-6.861 2.895l-6.956 -3.958l-2.667 2.444l-5.503 -0.624l-2.791 -2.574l-3.107 9.08l-3.119 1.78z" />
  </g>
  <g data-id="131">
    <path d="m99.311 420.83l0.134 2.857l1.017 1.601l2.174 1.998l1.945 2.614l2.881 2.716l2.108 2.409l1.763 2.526l2.696 4.55l3.369 6.492l2.865 0.859l4.35 -0.788l1.238 -0.086l2.41 1.197l2.052 2.265l2.079 4.317l2.604 4.149l1.231 3.486l2.156 2.8l2.644 4.775l-0.393 4.036l-0.293 3.865l40.877 1.309l58.428 1.539l27.657 0.03l0.44 -28.832l0.967 -58.183l-26.596 0.005l-2.329 -0.101l-129.962 -2.017l-0.318 6.603l-0.4 2.606l-0.663 1.243l-2.334 2.471l-1.283 2.472l-2.268 6.54l-0.827 1.678l-1.454 1.992l-0.966 2.006z" />
  </g>
  <g data-id="133">
    <path d="m283.639 1378.47l-0.027 3.997l0.513 2.514l0.243 2.057l0.779 3.689l0.187 1.824l0.769 4.343l1.087 3.749l0.842 2.226l0.567 1.156l4.891 7.579l2.964 2.641l1.373 0.677l1.546 0.28l2.525 1.053l2.421 1.518l1.911 1.902l2.032 2.163l5.543 9.434l2.377 4.793l6.077 5.791l2.883 1.949l42.639 -15.04l-0.112 -27.716l34.177 0.789l0.388 -3.589l-2.863 -2.082l-1.379 -6.386l-2.661 -4.587l1.322 -3.85l0.677 2.404l3.968 -3.087l-2.982 -6.573l-30.593 -0.212l-0.001 -4.582l-27.249 -28.158l0.04 -4.646l-29.485 -29.841l-1.241 4.569l-0.293 1.51l-0.33 1.703l-0.896 3.117l-0.249 2.131l-0.822 2.258l-0.342 1.945l-0.853 4.859l-0.299 2.416l-0.896 1.589l-1.619 3.719l-6.722 7.944l-1.544 1.144l-3.047 3.382l-1.335 1.795l-0.903 1.348l-1.637 5.479l-2.963 6.381l-0.647 2.127l-0.423 3.237l0.199 6.029l-0.523 3.141z" />
  </g>
  <g data-id="135">
    <path d="m451.624 1041.78l-1.092 4.864l1.227 107.24l11.359 -0.159l3.402 0.111l13.239 -0.065l-0.063 -9.291l83.628 0.046l-0.017 -60.758l27.495 -0.127l0.067 -42.131l-97.354 0.008l-0.702 -56.648l-41.824 0.395l0.635 56.516z" />
  </g>
  <g data-id="137">
    <path d="m235.858 886.052l-8.308 12.967l28.891 0.266l-0.08 11.598l27.917 0.015l-0.427 28.352l8.753 0.064l-0.077 9.333l9.326 0.058l-0.283 37.583l36.86 -0.04l56.693 -0.577l0.507 -11.729l-11.663 -39.827l-3.46 -11.785l-0.203 -21.786l-2.04 0.009l-0.162 -28.377l-146.703 -1.218l-0.607 1.687l3.569 10.406l1.498 3.001z" />
  </g>
  <g data-id="139">
    <path d="m672.305 915.076l0.531 28.236l0.379 23.587l22.809 0.293l0.14 18.768l18.774 0.081l0.074 4.603l4.676 0.065l0.039 4.708l4.736 0.098l0.006 4.699l4.641 0.014l0.067 9.483l28.325 0.174l-0.39 -66.045l-0.276 -45.397l-67.841 -0.1l-3.234 0.026l0.204 16.894l-13.661 -0.187z" />
  </g>
  <g data-id="141">
    <path d="m454.265 104.226l0.944 58.17l-0.462 29.572l0.295 2.394l14.056 0.099l-0.105 9.511l36.846 -0.209l2.187 -3.244l12.242 1.635l-1.312 4.352l3.491 2.63l2.868 -5.384l10.603 -0.123l-0.04 4.874l104.418 -1.231l-0.086 -14.599l0.669 -43.446l-0.198 -29.281l-37.868 0.55l-20.158 0.129l-0.05 -18.123l-40.879 0.629l-14.688 0.153l-72.772 0.942z" />
  </g>
  <g data-id="143">
    <path d="m380.176 598.184l-0.734 28.367l28.758 0.444l0.261 36.497l14.939 -9.164l10.468 -3.946l7.808 0.658l11.752 -3.072l4.094 2.156l4.332 -4.424l0.923 -4.046l-1.048 -7.139l5.502 -7.11l6.489 -9.433l-1.26 -4.085l5.787 -6.755l8.704 -5.294l0.826 -1.437l1.84 -4.826l-2.118 -9.013l-0.249 -4.207l-1.593 -10.915l8.492 -13.811l0.825 -4.481l6.324 -8.493l6.782 -15.207l4.238 -4.713l1.895 -12.441l-47.561 -0.152l-86.33 -0.26l-0.146 86.27z" />
  </g>
  <g data-id="145">
    <path d="m478.187 1427.6l-0.668 58.211l88.967 1.519l14.974 0.059l3.183 -1.499l4.739 -9.685l0.131 -7.28l2.286 -2.927l-1.053 -4.759l1.908 -6.802l3.594 -1.694l-1.252 -1.06l1.318 -10.436l-4.206 -1.72l1.291 -7.278l-5.03 -0.062l0.558 -27.852l-82.623 -1.069l-28.218 -0.951l0.099 25.285z" />
  </g>
  <g data-id="147">
    <path d="m689.121 812.948l-0.126 85.396l67.841 0.1l2.702 0.006l0.03 -28.296l-0.241 -85.523l-0.094 -26.421l0.78 -19.137l-28.499 0.142l-28.16 45.392l-0.025 14.187l-14.253 -0.038l0.045 14.193z" />
  </g>
  <g data-id="149">
    <path d="m35.634 913.601l-0.014 4.053l0.562 1.131l3.736 4.451l1.855 1.902l3.41 2.902l3.433 2.537l2.772 2.494l1.045 1.698l2.165 1.574l2.604 1.498l1.79 1.415l2.334 2.835l1.566 2.577l2.912 2.633l0.713 1.154l0.586 1.373l3.546 3.947l1.491 1.05l1.665 0.801l7.648 3.233l1.969 2.237l0.837 1.578l0.749 3.687l0.453 3.987l0.349 1.494l1.191 2.055l1.252 1.782l1.239 1.55l1.333 0.791l5.387 1.153l3.071 0.364l3.485 0.776l1.852 3.041l1.637 3.916l1.624 3.038l1.11 1.576l2.74 2.646l0.471 6.62l0.741 1.697l1.589 2.173l3.682 4.413l3.65 3.141l2.902 1.945l2.057 1.63l2.466 1.497l2.681 0.805l1.345 0.7l1.283 1.336l1.241 0.708l2.495 0.951l2.281 0.481l1.875 1.134l0.833 1.025l80.598 1.62l-0.775 -9.056l1.57 -10.822l4.583 -9.525l2.748 -11.213l2.181 -5.629l-1.077 -6.577l-6.099 -16.455l-1.631 -8.73l-6.429 -11.488l-3.112 -9.822l9.895 -21.065l1.778 -7.007l8.308 -12.967l-1.498 -3.001l-80.142 -0.517l-5.752 -1.347l0.17 28.487l-111.8 -0.504l-0.568 1.568l-0.634 2.862z" />
  </g>
  <g data-id="151">
    <path d="m698.238 1597.95l-0.524 82.244l54.851 55.588l0.015 28.574l1.848 0.225l1.675 -0.346l4.277 -1.739l3.571 -7.742l0.464 -2.885l1.721 -5.375l2.752 -7.759l-0.827 -2.454l-1.415 -1.971l-0.995 -4.98l-1.04 -2.822l-1.446 -4.529l-0.719 -1.1l-2.019 -2.029l-2.046 -1.091l-1.188 -0.978l-1.6 -2.219l-1.694 -4.228l-0.571 -1.033l-1.271 -1.366l-2.09 -1.606l-1.806 -2.09l0.271 -2.001l-0.659 -2.109l-1.581 -3.331l0.318 -2.161l0.788 -2.372l0.707 -1.51l0.889 -1.41l1.126 -3.119l1.601 -3.089l0.953 -2.302l0.837 -1.426l0.619 -1.883l0.461 -2.915l0.124 -3.038l0.894 -3.27l0.481 -3.704l1.585 -2.939l1.086 -1.345l2.455 -2.487l1.462 -1.014l2.687 -1.473l1.531 -0.55l1.793 -0.399l1.839 -0.798l1.614 -55.844l-73.802 0.2z" />
  </g>
  <g data-id="153">
    <path d="m557.55 1745.9l2.929 6.499l8.379 4.507l7.718 1.843l6.306 5.5l0.944 -1.883l3.382 -4.584l1.172 -0.287l2.111 -1.26l1.363 -2.601l2.683 -2.065l1.147 -1.46l1.216 -0.716l1.093 -1.021l3.023 -6.844l0.592 -1.634l0.228 -1.309l0.702 -1.889l1.595 -2.863l2.566 -2.975l4.527 -4.263l4.176 -4.411l2.809 -2.583l3.978 -1.546l2.012 -1.597l1.233 -1.002l4.409 -1.34l4.09 -0.377l6.154 0.338l2.249 0.332l1.26 0.352l-0.276 -23.782l-8.577 1.648l-9.949 -4.339l-10.219 5.346l-0.05 -11.17l-13.566 -1.162l-17.392 -0.199l-19.744 -0.288l4.906 0.929l5.518 3.365l0.958 10.021l-1.91 2.8l-6.904 3.035l-3.134 4.489l0.086 4.085l-2.717 7.276l-0.324 5.744l2.654 3.371l-3.832 3.24l1.363 3.318l-1.73 3.372l3.039 -0.258l-0.325 4.171l-3.921 6.126z" />
  </g>
  <g data-id="155">
    <path d="m509.56 426.18l0.072 28.237l34.067 0.196l-1.049 8.019l-2.182 4.063l-4.031 2.488l48.847 -0.049l-0.095 -29.2l-0.27 -39.034l-15.224 -0.966l-10.74 -2.962l-3.852 3.199l-12.806 3.814l-0.543 6.365l-4.891 16.105l-9.268 -0.124l-18.034 -0.151z" />
  </g>
  <g data-id="157">
    <path d="m325.696 1444.18l8.134 5.497l2.193 -1.49l1.214 -0.123l3.481 1.806l3.427 2.113l1.094 2.354l0.097 1.368l-0.151 2.083l0.104 1.037l2.184 2.843l1.719 1.631l4.169 2.754l1.373 0.651l1.818 0.109l2.16 -0.497l1.802 0.04l1.414 0.421l0.988 1.134l0.463 1.11l0.544 1.534l1.356 1.116l3.361 1.515l5.989 7.922l2.052 1.774l3.44 0.747l1.837 -0.187l5.977 -1.218l3.19 -1.097l1.085 1.619l0.202 1.248l2.949 0.322l0.068 1.326l-1.906 2.629l-1.359 0.412l-2.366 1.849l-3.042 0.044l-0.654 1.841l-1.517 0.918l-1.631 1.495l0.174 2.368l0.64 1.249l4.768 10.11l3.562 2.558l3.736 1.4l2.457 0.325l2.859 -0.057l1.128 -0.562l3.94 -2.519l1.215 -1.168l2.392 -3.226l1.006 -1.069l2.963 -2.232l1.559 -0.502l2.124 1.19l5.628 4.446l2.423 1.491l1.14 0.463l0.412 2.307l-0.668 1.759l1.064 2.876l2.42 2.45l1.079 -1.059l1.924 0.936l2.262 0.108l1.956 1.315l1.842 0.199l2.512 0.017l0.855 1.083l0.922 1.572l0.824 1.08l2.974 2.949l3.644 2.809l1.565 0.78l3.413 2.063l1.306 0.858l-0.751 -5.568l4.003 -1.958l2.004 -9.347l15.289 -30.518l0.668 -58.211l-0.099 -25.285l-27.501 -0.042l-48.745 -0.428l-34.177 -0.789l0.112 27.716l-42.082 15.416z" />
  </g>
  <g data-id="159">
    <path d="m801.607 1267.95l0.233 4.947l1.465 2.092l9.313 5.867l-1.207 0.639l26.337 0.483l0.095 9.205l48.279 -0.321l10.36 -0.003l0.499 -1.537l0.54 -87.8l-9.412 -0.013l-77.843 0.837l0.199 37.176l-6.405 -0.213l-0.241 16.072l2.824 7.498l-5.034 5.072z" />
  </g>
  <g data-id="161">
    <path d="m109.829 393.141l129.958 2.095l2.329 0.101l26.596 -0.005l0.373 -28.925l0.085 -14.168l13.793 -7.276l1.768 -5.982l9.155 -5.74l22.797 -3.656l12.098 -6.059l3.336 -10.073l-1.621 -3.716l5.17 -4.217l0.899 -15.521l-7.046 -6.48l-11.614 -5.374l2.321 -1.329l0.017 -3.013l-4.523 -3.287l2.552 -11.251l-3.289 -3.592l2.774 -5.247l-2.589 -0.004l1.192 -6.795l-1.556 1.055l-2.487 1.506l-1.161 1.063l-3.821 1.587l-6.012 5.783l-1.973 2.608l-1.123 2.653l-0.283 1.795l-0.326 2.066l0.061 1.453l1.021 2.948l0.137 2.357l-0.166 1.449l-0.312 1.084l-0.654 1.054l-3.214 2.573l-1.071 1.465l-0.549 5.009l-1.674 5.856l0.03 2.034l0.947 14.061l-0.498 2.663l-5.626 3.661l-4.282 0.998l-4.133 1.464l-1.942 1.202l-1.768 1.094l-2.34 3.694l-1.245 0.898l-1.369 0.665l-1.419 1.796l-1.693 2.661l-4.034 4.19l-3.212 1.264l-3.884 0.499l-2.47 0.062l-3.306 -0.494l-4.955 -1.796l-1.967 -0.399l-1.14 0.189l-2.669 0.443l-2.739 2.228l-3.685 0.798l-2.241 0.765l-1.046 0.598l-1.718 1.662l-0.523 2.992l-3.56 3.989l-3.486 2.094l-1.917 1.794l-2.49 2.758l-1.394 0.963l-2.589 0.498l-2.539 -0.066l-3.613 1.392l-2.541 0.631l-5.573 0.829l-3.484 0.705l-3.138 0.164l-5.36 -0.375l-1.472 -0.166l-2.166 -0.54l-5.229 -0.524l-4.345 0l-3.156 -0.384l-2.277 0.16l-1.754 0.409l-3.405 1.892l-3.111 2.375l-2.741 1.871l-2.411 1.421l-4.701 1.848l-1.243 0.906l-1.412 0.483l-4.923 -0.916l-4.2 -1.955l-2.118 -1.306l-1.157 -0.112l-1.266 0.15l-5.215 2.568l-1.527 0.369l-3.935 0.472l-2.326 1.191l-1.707 1.368l-0.954 1.659l-0.625 3.602l-0.17 4.146l-3.498 6.123l-0.364 1.279l-1.253 8.489l-0.097 2.009z" />
  </g>
  <g data-id="163">
    <path d="m311.027 1306.64l29.481 29.854l-0.04 4.646l27.249 28.158l0.001 4.582l30.593 0.212l2.982 6.573l-3.968 3.087l-0.677 -2.404l-1.322 3.85l2.661 4.587l1.379 6.386l2.863 2.082l-0.388 3.589l48.745 0.428l-0.246 -62.315l-0.673 -76.148l-55.134 -0.868l-27.064 -0.223l-13.103 -0.32l-1.213 -0.094l-21.59 -0.202l0.9 5.62l-0.075 2.868l-0.199 1.466l-1.419 5.608l-0.532 1.176l-1.285 2.839l-1.046 1.433l-1.618 1.847l-1.892 1.497l-1.643 1.656l-1.344 0.732l-6.673 10.093l-2.206 4.056l-0.633 1.163l-0.871 2.482z" />
  </g>
  <g data-id="165">
    <path d="m698.683 1514.83l-0.445 83.125l73.802 -0.2l9.145 0.1l0.211 -97.012l-82.68 0.278l-0.034 13.709z" />
  </g>
  <g data-id="167">
    <path d="m378.076 862.744l0.025 9.431l0.162 28.377l2.04 -0.009l0.203 21.786l3.46 11.785l11.663 39.827l-0.507 11.729l28.106 -0.237l27.76 -0.171l41.824 -0.395l-0.039 -4.688l-0.296 -23.616l-0.007 -9.346l14.08 0.096l-0.112 -13.946l13.412 0.087l-0.121 -20.708l0.091 -4.646l3.908 5.988l2.991 0.465l5.911 -5.379l2.767 0.942l2.153 -5.282l6.176 1.07l6.481 -2.27l1.682 -4.557l8.814 -4.93l3.594 -6.804l3.239 4.19l3.996 -0.164l-0.009 -12.74l-0.084 -20.775l-46.61 -0.427l0.023 -4.684l-19.532 -0.132l-0.101 -14.159l-23.518 0.197l-29.869 0.266l-0.898 19.005l-16.796 0.144l0.022 4.521l-56.085 0.159z" />
  </g>
  <g data-id="169">
    <path d="m149.657 768.049l-0.373 28.869l29.185 -0.427l24.987 0.643l-2.467 6.153l8.096 1.303l-1.18 9.153l3.986 1.942l2.154 4.434l5.791 3.089l4.587 -3.014l1.49 2.535l-3.324 3.236l4.253 3.849l-1.291 7.038l5.378 0.919l4.312 -1.62l6.129 1.123l7.431 -2.447l14.933 -7.459l4.461 -3.159l1.796 -12.937l8.765 -5.991l0 -4.265l4.756 -9.533l4.93 -0.998l4.226 -3.867l6.762 -1.043l10.517 -4.973l12.948 1.337l2.488 -1.736l1.64 -9.174l-62.726 -1.612l0.317 -28.517l-114.408 -2.63l-0.551 29.779z" />
  </g>
  <g data-id="171">
    <path d="m215.877 927.091l3.112 9.822l6.429 11.488l1.631 8.73l6.099 16.455l1.077 6.577l-2.181 5.629l69.525 0.496l0.283 -37.583l-9.326 -0.058l0.077 -9.333l-8.753 -0.064l0.427 -28.352l-27.917 -0.015l0.08 -11.598l-28.891 -0.266l-1.778 7.007l-9.895 21.065z" />
  </g>
  <g data-id="173">
    <path d="m590.868 1041.51l-0.067 42.131l28.044 0.788l55.299 -0.26l83.26 0.397l0.019 -51.308l0.081 -23.371l-28.325 -0.174l-0.067 -9.483l-4.641 -0.014l-0.006 -4.699l-4.736 -0.098l-0.039 -4.708l-4.676 -0.065l-0.074 -4.603l-18.774 -0.081l-0.14 -18.768l-22.809 -0.293l-0.379 -23.587l-53.554 -0.311l0.057 99.4l-28.47 -0.893z" />
  </g>
  <g data-id="175">
    <path d="m380.552 454.138l-0.229 57.742l86.33 0.26l0.05 -55.342l0.025 -2.404l-0.108 -28.212l-54.507 -0.206l-2.475 0.018l-0.161 28.279l-1.673 -0.183l-27.251 0.047z" />
  </g>
  <g data-id="177">
    <path d="m395.011 0.91l1.702 104.085l1.596 0.183l55.956 -0.952l72.772 -0.942l-0.403 -35.404l-0.898 -65.162l-4.874 -0.053l-1.038 -0.047l-14.723 -0.236l-2.069 -0.03l-7.451 -0.127l-10.423 -0.25l-7.562 -0.284l-1.3 -0.069l-3.338 -0.091l-7.66 -0.195l-1.531 -0.031l-4.3 -0.117l-5.6 -0.078l-13.023 -0.065l-6.784 0.02l-2.654 -0.009l-3.4 -0.04l-1.431 0.015l-9.432 -0.041l-22.105 -0.083z" />
  </g>
  <g data-id="179">
    <path d="m399.478 685.7l-4.018 3.061l24.023 0.502l27.657 -0.415l0.542 38.054l27.871 -0.297l84.46 -1.703l-0.687 -52.381l-0.72 -35.636l-0.11 -7.138l-14.319 0.174l-0.703 -43.563l-55.975 0.204l2.118 9.013l-1.714 4.501l-0.952 1.762l-8.704 5.294l-5.787 6.755l1.26 4.085l-6.489 9.433l-5.502 7.11l1.048 7.139l-0.923 4.046l-4.332 4.424l-4.094 -2.156l-11.752 3.072l-7.808 -0.658l-10.468 3.946l-14.939 9.164l-2.423 2.53l-0.757 4.231l-0.954 6.354l-4.849 9.093z" />
  </g>
  <g data-id="181">
    <path d="m495.782 1608.34l-0.049 1.719l0.207 2.176l1.006 5.19l1.158 2.345l1.23 1.723l1.131 2.025l0.669 1.543l0.633 2.513l1.404 3.433l4.114 7.097l1.077 1.542l5.037 5.145l1.861 2.49l0.927 1.546l1.404 3.246l2.039 6.074l0.865 3.24l0.285 1.584l0.066 1.382l-0.245 2.237l-1.531 7.635l-0.387 1.316l-0.771 1.535l-3.665 2.061l-1.784 0.373l-4.941 0.35l-2.401 0.789l58.7 0.168l19.744 0.288l17.392 0.199l13.566 1.162l0.843 -83.663l-27.951 -1.223l-19.651 0.619l-54.274 -0.478l-0.621 6.255l-4.92 5.713l-12.129 -2.781l-0.041 1.435z" />
  </g>
  <g data-id="183">
    <path d="m889.058 757.488l0.291 27.236l0.148 1.701l0.176 17.274l0.495 66.222l33.345 -0.288l46.937 -0.305l-0.558 4.263l14.916 -0.075l-5.985 -4.403l12.032 -0.23l0.112 -28.595l-0.003 -1.278l0.062 -4.046l0.053 -3.352l0.006 -4.458l0.186 -39.534l-0.049 -3.67l0.08 -1.223l0.076 -7.167l0.025 -2.334l0.051 -4.764l0.208 -18.985l0.793 -69.307l0.065 -4.414l0.043 -5.098l-31.308 0.99l-70.502 0.749l0.856 26.747l-0.129 1.558l0.733 42.364l0.17 14.377l-3.322 0.045z" />
  </g>
  <g data-id="185">
    <path d="m876.715 1386.29l0.269 3.203l2.174 1.037l2.968 4.15l0.244 1.891l2.177 0.086l0.345 -2.487l0.671 -2.12l2.51 -1.163l0.995 -1.58l-1.702 -1.21l-0.752 -3.215l2.403 -1.498l1.23 -4.268l3.076 -1.976l2.112 -0.226l1.78 1.159l-0.128 2.025l-1.392 2.216l-0.958 2.043l0.418 1.849l1.186 0.617l1.073 -0.142l2.674 -3.457l2.478 -1.845l0.745 -2.463l0.998 -3.382l1.448 -2.061l1.53 -0.652l1.438 0.779l0.662 1.412l-1.443 4.883l0.792 3.081l2.098 1.551l2.168 -0.409l1.233 -1.09l2.037 -4.198l0.46 -1.911l-0.254 -2.499l-0.187 -5.589l2.49 -7.002l4.144 -5.153l6.493 -2.445l5.029 -7.045l3.621 -5.074l0.217 -1.748l0.832 -6.699l2.575 -2.331l0.141 -1.148l-1.393 -2.056l-1.853 -1.918l-0.091 -2.784l0.999 -2.32l2.179 -1.16l4.163 -0.37l5.193 -2.595l3.688 -3.308l3.653 -1.429l1.647 -1.348l0.726 -1.509l0.091 -1.741l-0.492 -1.217l-1.233 -6.329l2.497 -4.822l-0.205 -3.797l-64.92 -0.617l-10.36 0.003l0.425 8.65l3.359 2.945l-3.939 5.543l1.728 3.298l-0.899 5.432l1.843 10.475l-2.933 9.881l-5.104 7.9l-0.265 7.198l2.449 7.529l3.338 5.253l-1.099 5.499l2.916 3.493l-2.623 2.788l1.496 2.942l-10.097 6.596z" />
  </g>
  <g data-id="187">
    <path d="m180.13 609.092l-0.02 14.206l85.681 2.594l0.291 -28.566l0.863 -76.602l0.361 -38.378l-27.657 -0.03l-58.428 -1.539l-1.089 128.315z" />
  </g>
  <g data-id="189">
    <path d="m450.341 1339.95l0.246 62.315l27.501 0.042l28.218 0.951l82.623 1.069l0.529 -55.373l0.27 -27.473l0.122 -9.291l-27.632 -1.74l-4.526 1.284l-6.45 -0.433l-2.957 -2.066l-8.221 0.521l-1.896 -2.585l-2.427 1.387l-1.529 5.274l-9.596 0.726l-1.246 2.62l-4.375 -3.713l-4.987 3.138l-1.649 3.004l-6.656 3.555l-7.96 -1.255l-2.28 -1.848l-11.215 0.828l-1.093 -2.254l-4.102 2.311l-5.92 0.66l-3.729 7.233l-9.048 1.709l-0.806 4.176l-7.344 2.285l-1.865 2.943z" />
  </g>
  <g data-id="191">
    <path d="m700.625 1321.15l-0.854 69.303l82.661 0.425l54.642 -0.247l0.768 -99.45l-0.095 -9.205l-26.337 -0.483l-82.297 -2.487l-28.364 0.397l-0.125 41.745z" />
  </g>
  <g data-id="193">
    <path d="m782.432 1390.88l-1.032 109.733l59.389 0.188l0.023 -2.626l10.714 7.665l-1.254 -3.058l0.555 -1.354l2.347 0.03l3.682 3.124l4.002 1.443l3.613 -0.167l3.558 0.234l1.961 0.827l1.329 -2.035l-1.669 -5.694l-2.524 -0.456l-8.712 -1.685l-0.936 -2.803l2.252 -1.662l1.439 0.253l4.481 -3.067l-0.14 -4.46l1.17 -0.542l2.769 -0.24l1.135 -0.702l0.842 -1.569l0.088 -3.322l-2.317 -5.969l-0.362 -6.157l3.909 -4.33l-2.49 -1.77l-3.3 1.274l-2.729 -2.361l1.622 -4.098l8.465 -0.126l3.127 -1.279l5.364 -3.641l1.485 -3.539l1.091 -3.16l-1.327 -3.723l-10.578 5.09l-1.851 -0.414l-1.145 -3.79l0.899 -1.984l3.687 -1.57l2.826 0.423l1.751 -0.275l1.421 -1.063l-0.056 -2.992l0.909 -2.558l0.857 -1.019l1.71 0.014l1.148 -0.254l2.589 1.988l2.574 -4.055l1.819 -0.67l0.58 -1.49l-0.49 -1.803l-1.568 -1.384l0.002 -2.544l-0.847 -2.482l-5.561 -3.86l-4.063 -4.263l-2.095 -3.842l-0.173 -5.799l-0.585 -3.956l-0.378 -2.535l0.188 -2.139l-0.638 -1.341l-9.249 1.285l-30.661 -0.138l-54.642 0.247z" />
  </g>
  <g data-id="195">
    <path d="m317.759 250.424l-2.774 5.247l3.289 3.592l-2.552 11.251l4.523 3.287l-0.017 3.013l-2.321 1.329l11.614 5.374l7.046 6.48l-0.899 15.521l-5.17 4.217l80.481 0.216l57.476 -0.314l0.007 -57.723l0.3 -28.551l0.232 -19.39l0.105 -9.511l-14.056 -0.099l-72.965 -0.283l-2.311 0.06l-7.423 0.19l-11.457 0.112l-21.981 0.398l-0.379 4.458l-0.055 3.004l-0.855 2.875l-2.003 4.763l-1.239 2.454l-0.678 3.44l-0.06 2.924l-0.509 1.261l-1.581 3.002l-0.588 2.809l-0.052 1.059l0.561 3.499l0.268 3.548l-0.331 1.64l-1.493 1.305l-7.2 2.614l-1.338 0.735l-5.008 3.395l-1.192 6.795l2.589 0.004z" />
  </g>
  <g data-id="197">
    <path d="m809.594 263.084l0.116 9.609l0.421 19.878l0.46 14.23l0.48 14.436l0.263 9.768l0.513 19.163l0.379 14.602l0.379 14.407l0.546 28.883l0.709 28.812l57.844 -1.304l-0.525 -28.789l13.89 -0.275l15.145 -0.353l28.038 -0.489l64.212 -0.74l0.091 -19.15l0.262 -8.307l-0.051 -18.169l-0.017 -5.99l-0.012 -5.48l-8.011 0.016l-4.794 0.024l-18.955 0.079l-11.305 -0.005l-22.073 -0.024l-0.748 -1.927l-0.003 -7.776l-0.023 -9.644l-0.469 -5.22l-0.125 -4.926l-4.847 0.083l-24.179 0.469l-0.27 -14.452l-0.366 -14.531l-28.82 0.809l-0.216 -9.467l-0.104 -5.109l-0.153 -6.603l-0.191 -7.955l-8.22 0.249l-13.426 0.433l-7.693 0.244l-12.925 0.264l-1.476 0.024l-13.752 0.199z" />
  </g>
  <g data-id="199">
    <path d="m587.819 1554.52l-0.402 43.062l27.951 1.223l50.949 -0.293l4.448 -0.996l27.473 0.44l0.445 -83.125l-110.645 0.422l-0.219 39.266z" />
  </g>
  <g data-id="201">
    <path d="m525.736 2.718l0.898 65.162l0.403 35.404l14.688 -0.153l40.879 -0.629l0.05 18.123l20.158 -0.129l37.868 -0.55l-0.136 -64.597l-0.04 -8.71l0.012 -42.102l-12.988 -0.33l-4.757 -0.02l-7.775 -0.058l-7.032 0.016l-6.939 -0.098l-4.466 -0.139l-2.032 -0.016l-9.907 -0.132l-15.278 -0.206l-5.154 -0.058l-3.908 -0.04l-7.028 -0.204l-17.593 -0.391l-1.055 -0.084l-8.868 -0.059z" />
  </g>
  <g data-id="203">
    <path d="m485.658 571.438l1.593 10.915l0.249 4.207l55.975 -0.204l0.703 43.563l14.319 -0.174l0.11 7.138l28.436 -0.685l5.334 -0.104l-0.116 -4.839l8.237 -0.274l-0.108 -4.169l14.241 -0.785l-0.237 -11.98l15.092 -0.333l-0.547 -28.687l14.332 -0.342l-0.513 -57.394l-28.962 0.656l-27.955 -0.441l-28.835 0.862l-48.925 1.075l-6.782 15.207l-6.324 8.493l-0.825 4.481l-8.492 13.811z" />
  </g>
</svg>
