<?xml version="1.0" encoding="UTF-8"?><!DOCTYPE svg PUBLIC '-//W3C//DTD SVG 1.1//EN' 'http://www.w3.org/Graphics/SVG/1.1/DTD/svg11.dtd'><svg viewBox="0 0 1000 1794.77" xmlns="http://www.w3.org/2000/svg"><path data-id="17001" d="m0 772l0.3 3.4l0.9 4.2l-0.8 2.7l0.4 6.9l0.3 2l0.8 4.5l1.3 5.6l0.8 4.1l0.6 2.4l1.4 4.4l-1.3 6.8l1.9 4.3l0.8 1.3l1.7 3.4l2 4.4l0.5 1.5l0.2 1.1l0.3 1.1l1.4 1.3l1.2 2.8l1.2 2l0.6 1.9l1.4 2.7l1.1 1.6l2 1.9l0.8 1l1 1.6l0.6 1.7l0.1 1.8l-0.3 1.8l-2.2 2.8l-3.6 4.6l-0.8 3.4l-0.2 1.6l0.4 2.5l2.6 8.1l0.8 1.6l4.5 3.4l2.1 1.1l2.1 1.7l3 1.8l1.9 1.4l2.5 3.5l1.1 2.5l0.5 1.7l-0.8 2.6l-0.2 1.5l-0.1 3.2l0.2 2l111.8 0.5l-0.2 -28.5l0.1 -23.2l0.5 -4.4l0.3 -56.7l0.4 -28.9l-147.7 -2.2l-0.2 1.4l-1 1.4l-0.9 3.3z"/><path data-id="17003" d="m496.6 1695.1l0 1.2l0.3 1.1l0.8 1.5l1.8 2.7l1.1 1.5l1.5 1.6l1.6 2.2l2.7 -0.6l2.2 -0.1l2 0.6l1 0.9l0.2 1.9l-2.4 6.5l0 1.1l1.2 4.6l0.2 1.2l1.4 3.6l4.4 8.4l0.8 2.9l2.4 4.3l2.8 4.1l1.8 1.8l3.5 2.5l1.3 1.2l1 1.3l1.4 2.7l0.8 2.7l0 1.7l-0.8 3.1l-1.6 4l0.1 2.9l0.8 1.7l0.8 1.1l4 2.9l4.1 1.4l3.7 1.7l2 1.2l1.4 1l1.1 1.2l5.1 5.3l3.4 1.1l1.1 -0.6l1.2 -0.9l1.5 -2.1l1.5 -4.8l-0.6 -2.4l-1.6 -1.7l-2.8 -2.3l-3.4 -1.3l-2.5 -1.4l-1.5 -1.7l-0.5 -1l-0.4 -1.3l0.6 -3.3l3.5 0.3l2.6 0.2l4.8 0.6l1.1 0.2l1.2 -2.5l2.3 4.4l1.8 4.7l1 1.7l2.1 1.9l5.1 3.4l1.1 1.2l0.6 1.4l0.9 3.6l0 3.2l0.7 3l1.6 2l2.1 0.8l1.8 0.2l2.1 -0.8l3 -1.5l1.4 -0.5l2.8 -0.9l-1.4 -0.9l-5.5 -4.7l-1.4 -1l-1.2 -1.5l-0.6 -1l-1.3 -3l-0.5 -1.8l-0.4 -3.3l0.3 -2.8l0.5 -2.1l0.9 -2.8l1 -1.9l-6.3 -5.5l-7.7 -1.8l-8.4 -4.5l-2.9 -6.5l3.9 -6.1l0.3 -4.2l-3 0.3l1.7 -3.4l-1.4 -3.3l3.8 -3.2l-2.7 -3.4l0.3 -5.7l2.7 -7.3l-0.1 -4.1l3.1 -4.5l6.9 -3l1.9 -2.8l-1 -10l-5.5 -3.4l-4.9 -0.9l-59.1 0.1l-1.4 1.1l-1 2.1l-1 1l-2.3 1.8l-0.9 1.5l-0.5 2.2l-0.1 1.4l-0.3 1.2l-0.5 1z"/><path data-id="17005" d="m466.5 1153.8l0.6 25.9l0.1 14.1l9.3 -0.1l0.6 41.9l28.7 0.9l56.7 -0.5l-0.6 -56.1l-0.2 -26.2l1.7 -9.3l-83.6 0l0.1 9.3l-13.2 0.1z"/><path data-id="17007" d="m640.5 4.5l0 42.1l0 8.7l0.1 64.6l29.2 -0.4l29.1 0l0 -58.6l-0.4 -55.9l-14.4 0.5l-2.8 0l-2.5 0l-38.3 -1z"/><path data-id="17009" d="m148.5 858l-0.1 23.2l5.8 1.3l80.1 0.5l-3.6 -10.4l0.6 -1.7l3 -5.7l4.4 -2.3l4.4 -7l1.1 -7.5l5.2 -7l-0.7 -6.6l-7.4 2.4l-6.1 -1.1l-4.3 1.6l-5.4 -0.9l1.3 -7l-4.3 -3.8l3.3 -3.2l-1.5 -2.5l-4.6 3l-5.8 -3.1l-2.2 -4.4l-4 -1.9l1.2 -9.2l-8.1 -1.3l2.5 -6.2l-25 -0.6l-29.2 0.4l-0.3 56.7l-0.5 4.4z"/><path data-id="17011" d="m411 310l1.2 21.9l0.2 65.5l-0.3 28.6l54.5 0.2l0.1 28.2l42.9 0l-0.1 -28.2l18 0.2l9.3 0.1l4.9 -16.1l0.5 -6.4l12.8 -3.8l3.9 -3.2l10.7 3l15.2 1l-0.7 -61.6l0 -17.6l0 -12.1l-115.8 0.1l-57.5 0.3z"/><path data-id="17013" d="m143.5 1025.2l0.7 2.4l1.3 1.5l1 0.8l2.5 1.1l1.7 0.4l1.3 1.1l0.7 1.7l1.6 1.6l8.6 5.1l2.9 2l1.8 1.6l4.7 5.4l1.1 1l4.4 2.4l1.5 1.2l0.7 2.1l1.7 1.8l2 1.4l2 4.1l4 4.7l3.1 1.1l1.3 0.9l1 1l0.7 1.5l1.3 5.9l-0.1 2.8l1.2 3.3l0.1 1.1l0 1.2l-0.2 1.3l0 1.7l0.8 3.9l1 2.9l0.1 1.1l0.2 5.7l0.3 1.4l0.7 2.5l0.6 1.4l0.6 1.1l1.4 1.8l1.8 3.1l0.8 2.1l0.9 4.2l-0.2 3.4l-4.6 5.9l-0.4 2l-2.6 2.7l-0.3 1l0.5 2.3l0.9 1.5l1.8 4.2l2 4l0.6 1.4l0.3 1.5l1 1.8l1.7 3.1l0.4 2.5l0 5.9l0.1 1.2l1 3.2l0.7 1.3l0.9 4.5l0.5 2l0.5 1l1 1.5l1 1.3l1.3 1.3l2 1.2l1 1.4l1.8 3.9l8.2 5.3l3 1.9l1.7 0.2l2.5 -0.2l2.7 -0.6l2.4 -1l3.7 -4.1l3.5 -3.8l2.4 -1.3l1.8 -2.4l3.3 -5l1.1 -2.8l-0.2 -1.8l0.2 -1.2l2.6 -4.6l1.1 -1l1.3 -0.8l2.9 -1.1l-10.2 0.4l-6.9 4.1l-3.7 -1.5l-8.8 -11.1l-1.5 -5.2l-0.2 -8.5l-2.8 -3.1l1.7 -6.4l-2 -3.3l-3.6 -13.3l-2.7 -7.9l0.3 -6.6l5.5 -11.5l-1.7 -14.4l-2.9 -5.3l1.8 -10.6l-2.2 -6l-2.7 -17.3l2.1 -9.9l-80.4 -1.2z"/><path data-id="17015" d="m297.5 106l4.8 2.1l4.1 2.9l3.3 1.5l3.4 0.9l1.3 0.1l3.8 2l2.7 1.8l2 1.1l1.7 1.4l0.5 1.2l0.3 1.2l0.3 2.2l1 2.7l1 0.9l1.7 0.8l4.8 0.2l2.1 2.8l0.3 1l0.2 2.5l-0.1 2.5l-0.5 3.8l-1.2 4l0.7 4.4l0.1 3.9l0.2 3l1.4 1.5l1.1 1.6l0.9 1.2l0.3 1l0.2 1.3l1.4 2.6l0.6 2l0.3 1.9l-0.1 2.4l-1.3 2.6l0 2.3l-0.6 1l-1.3 1.4l-2.1 4.3l-0.5 1.7l-0.2 2.4l0.3 1.3l0.8 1.4l2 2.6l0.2 1.4l22 -0.4l11.5 -0.1l7.4 -0.2l2.3 -0.1l73 0.3l-0.3 -2.4l0.5 -29.6l-0.9 -58.2l-56 1l-1.6 -0.2l-43.9 -0.1l-55.2 1.1z"/><path data-id="17017" d="m234.4 865.2l-3 5.7l146.7 1.2l0 -9.4l-0.1 -67.3l-4.1 2.6l-7.1 -2.5l-2.7 2.9l-3.4 -0.2l-4.3 6.5l-7.7 -0.3l-3.4 1.3l-2 4.7l-13.7 -0.7l-1.3 3.6l-2.8 -1.9l-2.6 2.6l-3.4 -1.8l-9.9 -1.4l-3.9 1.9l-4.9 -7.3l0.4 -4.9l-2.9 -7.5l-9.9 -2.8l-4.9 1l-4.8 9.5l0 4.3l-8.8 6l-1.8 12.9l-4.5 3.2l-14.9 7.5l0.7 6.6l-5.2 7l-1.1 7.5l-4.4 7l-4.4 2.3z"/><path data-id="17019" d="m759.2 758.2l0.1 26.4l0.2 85.5l28.1 -0.1l102.5 -0.1l-0.5 -66.2l-0.2 -17.3l-0.1 -1.7l-0.3 -27.2l3.3 0l-0.2 -14.4l-0.7 -42.4l-46.1 -0.4l-57.2 0.7l-28.1 -0.1l-0.1 38.2l-0.8 19.1z"/><path data-id="17021" d="m492.5 947.2l0 9.3l0.3 23.6l0 4.7l0.7 56.6l97.4 0l28.5 0.9l-0.1 -99.4l-28.2 -0.3l-0.2 -10.5l-0.6 -36.8l-9.4 -4.6l-9.4 0.6l-4 0.2l-3.2 -4.2l-3.6 6.8l-8.8 4.9l-1.7 4.6l-6.5 2.3l-6.2 -1.1l-2.2 5.3l-2.8 -0.9l-5.9 5.4l-3 -0.5l-3.9 -6l-0.1 4.6l0.1 20.7l-13.4 -0.1l0.1 13.9l-14.1 -0.1z"/><path data-id="17023" d="m871.1 999l0.5 32.8l1.1 65.9l14.3 -0.3l50.8 -1.4l-0.2 2.2l22.5 0l-0.1 4.7l3.5 0l0.6 -3l4.9 -2.6l8 -7.4l2.9 -4.3l0.6 -2.3l-1.1 -4.7l-1.1 -3.4l-2.5 -1.2l-2.6 -3.9l-1.5 -7.3l3.1 -4.6l-0.1 -1l-0.6 -4.3l2.8 -6.7l2.7 -2.1l6 0l2.6 -4l3.1 1.6l0 -9.6l0 -19l0 -4.1l0 -5.4l0 -1l0 -2.5l-39.2 0.1l0.4 -3.4l-19.2 0.4l-48.7 1.5l-13.5 0.2z"/><path data-id="17025" d="m701.6 1209.1l-0.8 70.3l28.4 -0.4l82.3 2.5l1.2 -0.6l-9.3 -5.9l-1.5 -2.1l-0.2 -4.9l5 -5.1l-2.8 -7.5l0.2 -16.1l6.4 0.2l-0.2 -37.2l-25.7 -1.5l0 -18.8l-54.4 -1.5l-28.2 0.2l-0.4 28.2z"/><path data-id="17027" d="m449.7 1263.8l0.7 76.1l1.9 -2.9l7.3 -2.3l0.8 -4.2l9 -1.7l3.7 -7.2l5.9 -0.7l4.1 -2.3l1.1 2.3l11.2 -0.8l2.3 1.8l8 1.3l6.7 -3.6l1.6 -3l5 -3.1l4.4 3.7l1.2 -2.6l9.6 -0.7l1.5 -5.3l2.4 -1.4l1.9 2.6l8.2 -0.5l3 2.1l6.4 0.4l4.5 -1.3l27.6 1.7l1.1 -46.4l0.3 -27.9l-28.8 -1.8l-56.7 0.5l-28.7 -0.9l0.5 24.4l0.1 3.5l-27.8 0.3z"/><path data-id="17029" d="m757.1 943.8l0.4 66l-0.1 23.4l110.6 -1l3.6 -0.4l-0.5 -32.8l13.5 -0.2l-1.4 -52l-0.2 -14.1l-14.8 0.3l-9.3 1.1l0 9.3l-101.7 0.3z"/><path data-id="17031" d="m809 148.6l0.1 17.2l0 1.2l0.1 8.6l2.4 -0.1l10.6 -0.2l6.7 -0.1l2.5 0l3.5 -0.1l7.6 -0.3l14.8 -0.7l9.6 -0.5l2 0l13.2 -0.2l7.6 -0.2l4.8 -0.1l0.1 17.5l0 3.4l0 8.2l0 14.9l0.5 14.5l0.2 7.5l0.1 1.7l0.1 3.2l0.1 3.4l0.5 17.1l0 1.2l-1.7 0.1l-5.1 4.4l-0.2 1.5l-1.2 1.1l-2 0.8l-2.8 2.1l-3.4 -0.2l-6.2 0.5l-6 0.1l0.1 5.1l0.2 9.5l28.8 -0.8l0.4 14.5l0.3 14.5l24.2 -0.5l4.8 -0.1l0.1 4.9l0.5 5.2l0 9.6l0 7.8l0.7 1.9l22.1 0l11.1 0l19.1 -0.1l4.9 0l8 -0.1l0.1 -6.6l0.1 -10.9l0 -2.3l0 -9.8l0.1 -1.4l0 -6.6l0 -4.2l0 -9l0 -3.3l0 -14.3l0 -5.4l0 -3.7l0.2 -1.9l0 -5.2l-1.6 -8.1l-3 -1.3l-4.4 -4.6l-3.9 -6.7l-1 -5.6l-1.6 -2.8l-0.8 -1.3l-2.5 -3.9l-2.2 -6.1l-1.7 -7.9l-0.1 -4.5l0.5 -2l0.7 -1.3l-1.5 -1.9l-0.6 -1.1l-1.1 -0.9l-0.2 -1l-1.5 -8.6l-1.2 -3.9l-1.1 -3.7l-0.4 -1.4l-1.7 -5.8l-4.5 -15.4l-0.6 -2l-0.7 -6.3l0.3 -1.7l-0.2 -1.8l-2.7 -5.8l-7.1 -6.6l-3.4 -4.2l-4.2 -6.9l-2 -3.6l-2.4 -4.5l-15.4 -0.1l-6.7 -0.1l-9.7 0l-11.7 -0.1l-2.9 0l-9.7 -0.2l-4.8 0l-4.8 0l-24.3 -0.2l-3 0l-4.3 0l-12.2 0l-9.7 0l0 20.8l0 8.5l-1.3 0l-5.1 0.1z"/><path data-id="17033" d="m887 1097.5l0.9 29.2l0.2 74.8l9.4 0l37 0.2l18.8 -0.9l37.3 -0.1l-4 -2.3l-0.7 -1.2l1.5 -3.9l0.8 -6.2l4.1 -4l2.2 -5l1.7 -10l-4.3 -5.6l-12.2 -5.4l-0.2 -4.1l2.3 -5.7l-1.3 -4.7l0.6 -7.4l-5.9 -7.2l-3 -0.9l-1.2 -1l-0.8 -1.4l-0.2 -2l-0.5 -1.4l-1.6 -0.4l-1.2 -0.8l-0.7 -2l0 -1.2l0.2 -1.4l-2.7 -3.2l-0.7 -5.2l0.8 -4.1l-3.5 0l0.1 -4.7l-22.5 0l0.2 -2.2l-50.8 1.4z"/><path data-id="17035" d="m757.4 1084.6l0 14l27.5 0.1l87.9 -0.9l-1.1 -65.9l-3.6 0.4l-110.6 1l0 51.3z"/><path data-id="17037" d="m640.2 192.7l0.1 14.6l0.7 87.9l30 -1l26.3 0.3l14.5 -0.2l12.9 -0.1l-0.3 -27.4l0.4 -2l0 -4.8l0.1 -94.9l-0.1 -16.3l3.4 0l0 -14.6l-0.1 -14.6l-29.1 0l-29.1 0l-29.2 0.4l0.2 29.3l-0.7 43.4z"/><path data-id="17039" d="m588.6 739l1 76l99.5 -2.1l0 -14.2l14.3 0l0 -14.2l28.2 -45.4l-83.6 -0.3l-2.2 -0.1l-28.7 0l-4.3 -0.1l-24.1 0.4z"/><path data-id="17041" d="m756.8 898.4l0.3 45.4l101.7 -0.3l0 -9.3l9.3 -1.1l14.8 -0.3l-0.5 -34.5l7.9 0l-0.2 -28.3l-102.5 0.1l-28.1 0.1l0 28.3l-2.7 0z"/><path data-id="17043" d="m809.2 175.6l0.1 29.2l0 5.5l-0.1 23.5l0.1 13.4l0.1 15.9l13.9 -0.2l1.6 0l12.9 -0.3l7.7 -0.2l13.4 -0.4l8.2 -0.2l0.2 8l0.2 6.6l6 -0.1l5.7 -0.1l3.9 -0.2l2.8 -2.1l2 -0.8l1.2 -1.1l0.2 -1.5l5.1 -4.4l1.7 -0.1l0 -1.2l-0.5 -17.1l-0.1 -3.1l-0.1 -3.5l-0.1 -1.7l-0.2 -7.5l-0.5 -14.5l0 -14.9l0 -8.2l0 -3.4l-0.1 -17.5l-4.8 0.1l-7.6 0.2l-13.2 0.2l-2 0l-9.6 0.5l-14.8 0.7l-7.6 0.3l-3.5 0.1l-2.5 0l-5.8 0.1l-11.5 0.2l-2.4 0.1z"/><path data-id="17045" d="m882.4 898.3l0.5 34.5l0.2 14.1l1.4 52l48.7 -1.5l19.2 -0.4l-0.4 3.4l39.2 -0.1l0 -4.7l0 -1.2l-0.1 -8l0 -2.1l0 -6.1l0 -5.9l0 -14l0 -12.5l-0.1 -6.1l-0.1 -37.8l0 -4.7l0 -2.5l0 -2.3l0 -23.4l-12 0.2l6 4.4l-14.9 0.1l0.6 -4.3l-46.9 0.3l-33.3 0.3l0.2 28.3l-7.9 0z"/><path data-id="17047" d="m837.8 1291.2l-0.8 99.4l30.7 0.1l9.2 -1.3l-0.3 -3.2l10.1 -6.6l-1.5 -2.9l2.6 -2.8l-2.9 -3.5l1.1 -5.5l-3.3 -5.3l-2.4 -7.5l0.3 -7.2l5.1 -7.9l2.9 -9.9l-1.8 -10.5l0.9 -5.4l-1.7 -3.3l3.9 -5.5l-3.4 -2.9l-0.4 -8.6l-48.3 0.3z"/><path data-id="17049" d="m674.1 1084.2l-0.4 97.7l28.2 -0.9l28.2 -0.2l54.4 1.5l0.3 -83.4l-26.6 -0.1l-0.9 -14l-83.3 -0.4z"/><path data-id="17051" d="m561.6 1153.8l0.2 26.2l0.6 56.1l28.8 1.8l0.1 -28.1l26.8 0.4l83.5 -1.1l0.4 -28.2l-28.2 0.9l0.4 -97.7l-55.3 0.3l-27.2 -0.6l-28.4 -0.1l0 60.8l-1.7 9.3z"/><path data-id="17053" d="m760.3 672.3l-0.2 28.6l28.1 0.1l57.2 -0.7l46.1 0.4l0.1 -1.6l-0.9 -26.7l-17.1 -0.9l-28.3 0.3l-0.1 -9.5l-3.4 -158l-28.7 1.1l3.1 123.8l-37.9 0.3l-18 0l0.1 43z"/><path data-id="17055" d="m584.6 1485.9l-3.2 1.5l6.7 0l-0.1 27.8l110.6 -0.4l0 -13.7l0 -14l0.5 -55.1l-105.8 0.1l-1.3 7.3l4.2 1.7l-1.3 10.4l1.3 1.1l-3.6 1.7l-1.9 6.8l1.1 4.8l-2.3 2.9l-0.1 7.3l-4.7 9.7z"/><path data-id="17057" d="m264.6 740.9l-0.3 28.5l62.7 1.6l4.7 -3.9l5.7 -7.7l5 -1l4.7 -4.1l2.9 -8.4l2.6 -1.9l6.5 -8.7l0.5 -6.8l4.5 -6.6l-0.6 -4.3l1.7 -5.6l2 -3.4l13.5 -5.8l8.9 -10.6l5.9 -3.6l4 -3.1l4.8 -9.1l1 -6.4l0.8 -4.2l2.4 -2.5l-0.3 -36.5l-28.8 -0.4l0.7 -28.4l-57.1 -0.4l-28.5 -0.1l-28.5 -0.3l-0.3 28.6l-1.2 115z"/><path data-id="17059" d="m781.4 1500.8l-0.2 97l48.7 0.1l6.7 8l4.8 -0.1l-0.7 -1.9l-0.9 -1.9l-0.2 -1.4l0.2 -1.4l-0.1 -1.2l-0.4 -1.4l-2.6 -6l-1 -3.1l-0.4 -2.2l-0.1 -2.9l-0.4 -1.6l0 -1l0.2 -1.3l1.9 -4.1l1.5 -2.4l2.8 -2.8l0.5 -1.8l1.8 -3.1l1.8 -1.7l2.7 -1l1.3 -0.7l1.5 -1.6l2.5 -1.7l1 -0.6l2.3 -0.9l2.2 -1.7l1 -1.2l2.4 -3.6l1.8 -4.1l0.4 -1.6l0.5 -3.9l0.7 -2.4l0.8 -1.4l1.1 -0.9l-0.3 -1.4l-1.5 -1.9l-2.2 0.3l-3.3 2.1l-2.8 0.3l-3.6 -3.1l-1.9 -4.3l1.8 -1.8l2.4 0.3l3.4 2l3.1 0.4l1.9 -0.2l3.5 -2.8l-1.7 -3.4l-6 -1.9l-2.4 -2.6l-2.8 -7.3l-3.6 -4l-10.7 -7.7l0 2.6l-59.4 -0.2z"/><path data-id="17061" d="m223.9 1026.4l-2.1 9.9l2.7 17.3l2.2 6l-1.8 10.6l2.9 5.3l1.7 14.4l-5.5 11.5l-0.3 6.6l2.7 7.9l1.1 -5.4l4 -3.2l-1.1 -3.4l2.8 -3.3l-1.1 -6.3l1.5 2l9.5 -4.6l7.2 2.5l1.4 7.1l3.5 -0.3l0.1 -3.6l43.3 0.3l-0.1 -16.3l28 -0.1l-0.5 -10.6l2.2 -1.1l11.6 0l-1.4 -83.2l-36.9 0l-69.5 -0.5l-2.7 11.2l-4.6 9.5l-1.6 10.8l0.8 9.1z"/><path data-id="17063" d="m726.3 352.2l2.4 115.5l57.3 -1.1l26 -0.8l2.6 -0.1l-0.8 -28.8l-0.7 -28.8l-0.5 -28.9l-0.4 -14.4l-0.4 -14.5l-85.6 1.9z"/><path data-id="17065" d="m698.8 1487.2l0 14l82.7 -0.3l1 -109.9l-82.7 -0.4l-0.6 41.6l-0.5 55.1z"/><path data-id="17067" d="m1.5 760.7l-0.1 2l0.2 1.5l0.4 1.6l147.7 2.2l0.6 -29.8l1.4 -116.1l-2.4 0.5l-27.1 0.9l-40.5 -1l-3.1 0.7l-5.1 -0.8l-7.3 0l-1.3 0.1l-1.3 0.4l-1.7 0.9l-2.8 0.5l-7.6 2l-8.3 4.2l-2.2 1.2l-1.3 1l-1.5 1.6l-3.6 6.3l-1.4 2.7l-5.4 4.9l-0.9 1.6l-0.4 2.3l0.2 1.6l0.5 1.2l2.4 1.5l1.6 0.5l1.6 1.6l3.2 5.1l1.2 4.1l0.1 1.9l-0.1 1.3l-0.3 1.9l-0.8 3.1l-2.5 6l-0.4 1.4l-0.4 2l-0.1 1.1l0.2 2.3l0.8 3l1 2.8l0.3 2.1l0 3.4l-0.8 3.1l-1.6 1.4l-1.6 0.9l-2.2 0.6l-4 0.3l-1.6 1.3l-1.8 2.1l-3.2 1.7l-1.4 1.1l-0.8 1.3l-1.1 1.8l-2.5 3.7l-1.1 2.6l-0.8 3.9l-0.5 1.7l-3.5 7.8l-0.9 2.4l-0.7 2.6l-0.1 1l0 1.7l0.6 1.7l0 1.7l-1.7 3.5l-0.9 1l-1.2 2.2l-0.1 1.5l0.4 3.2l-0.7 2.9z"/><path data-id="17069" d="m771.3 1652.7l1.6 -0.1l1.2 0.3l1.7 0.8l2.4 1.6l2.5 2.1l1 1.7l2 0.8l1 -0.4l3.3 -2.4l3.8 -5.2l2.9 -2.4l2.1 -1.9l3.7 -2l4 -1.8l6.6 -1.3l4.3 0l3.2 -0.2l4.5 -0.9l4.6 -0.5l3.3 -0.6l4.6 -1l5.5 -1.5l1.7 0.3l4.6 -0.6l3.4 -0.2l1.2 0.1l1.8 0l1.5 -2.3l1.4 -1.1l1 0.5l1.1 -0.8l0.5 -1l-0.5 -1.3l0.4 -1.2l0.3 -2.9l-0.3 -2.6l-1.6 -3.7l-0.8 -1.1l-1.4 -1l-2 -0.7l-1.7 -1.7l-2.1 -3.7l-1.1 -1.5l-2.2 -1.9l-1.8 -1.9l-2.5 -1.5l-5.2 -0.3l-6.7 -8l-48.7 -0.1l-9.1 -0.1l-0.8 54.9z"/><path data-id="17071" d="m89.3 617.4l-7.8 5.1l40.5 1l27.1 -0.9l2.4 -0.5l28.5 1.1l0 -14.2l1.1 -128.3l-40.8 -0.5l0.9 2.8l0.2 3.1l0.2 1.2l0.3 3.4l0 1.2l-0.8 5.1l0.1 2.4l-0.2 1.8l-0.9 3.7l-1.4 2.8l-0.7 2.3l0 1l0.7 2.2l0.6 2.6l0.2 1.3l-0.1 1.4l-2 5.8l-0.6 3.8l-0.6 1.1l-3.4 2l-1.6 1.1l-3.2 1.3l-1.3 1l-1.5 1.5l-1 1.3l-2.1 4.1l-1.5 1.6l-2.3 1.4l-2 2.2l-0.7 1.2l-0.7 2l-1.5 3.3l-2.7 2.1l-2.6 2.8l-3.1 2.9l-0.7 1.2l-1 3.1l-0.2 2l0.2 1l1.2 3.1l0.3 2l-0.1 2.3l-1.1 4.1l-0.5 1.3l-1.1 2l-1.4 2l-0.6 1.8l-1.3 6.7l0.1 1.1l1 4.5l0 1.6l-0.3 2.1l-0.8 1.7l-1.1 5.2l-0.3 1l-0.8 1.2l-3.5 2.7l-4 2.4z"/><path data-id="17073" d="m268.7 395.3l-1 58.2l112.8 0.6l27.3 0l1.7 0.2l0.2 -28.3l2.5 0l0.3 -28.6l-0.2 -65.5l-1.2 -21.9l-80.5 -0.2l1.6 3.7l-3.3 10.1l-12.1 6.1l-22.8 3.7l-9.2 5.7l-1.8 6l-13.8 7.3l-0.1 14.2l-0.4 28.9z"/><path data-id="17075" d="m841.8 504.2l3.4 158l0.1 9.5l28.3 -0.3l17.1 0.9l70.5 -0.7l31.3 -1l0 -14.4l0 -66.2l0.1 -38.6l-0.1 -8.3l-0.1 -4.8l0.1 -5.9l-0.1 -32.5l-150.8 4.1z"/><path data-id="17077" d="m456.2 1527.6l1.6 6.2l1.2 1l1.4 2.9l0.9 1.4l0 1.7l-0.2 1.7l-0.7 2.3l-0.6 1.4l-0.4 1.5l0.5 1.9l0.6 1.1l1.2 0.7l2.2 0.7l1 -0.2l3 0.1l1.3 -0.7l1 -0.3l1.7 -0.2l0.2 1.7l1 1.3l2.5 1.1l1.5 1.1l1.3 2.9l1 1.9l1 1.3l2.4 1.3l1.7 0.6l7 1.9l1.8 0.2l1.4 0.6l2.2 1.8l1.2 2.3l0 1.4l-0.5 1.4l-0.6 2.7l-0.2 3.7l0.2 1.7l0 1.7l-0.4 1.4l0.5 1.5l1.3 1.5l1 2.1l5.2 5.6l1.8 2.6l0.5 1l0.1 1.7l-0.4 1.4l-2.1 1.6l-2 0.2l-3.9 -1.3l-1.1 -0.2l-1.4 0.7l-0.3 1.2l-0.1 2.1l12.1 3.2l4.9 -5.7l0.6 -6.3l54.3 0.5l19.7 -0.6l0.4 -43.1l0.2 -39.3l0.1 -27.8l-6.7 0l-15 -0.1l-89 -1.5l-15.3 30.5l-2 9.3l-4 2z"/><path data-id="17079" d="m784.6 1182.1l0 18.8l25.7 1.5l77.8 -0.8l-0.2 -74.8l-0.9 -29.2l-14.3 0.3l-87.9 0.9l-0.3 83.4z"/><path data-id="17081" d="m588.9 1404.3l-0.6 27.9l5 0.1l105.8 -0.1l0.6 -41.6l0.9 -69.3l-55.6 -0.7l-27.6 1l-27.7 0l-0.3 27.5l-0.5 55.4z"/><path data-id="17083" d="m227.6 1110.4l-1.1 5.4l3.6 13.3l2 3.3l-1.7 6.4l2.8 3.1l0.2 8.5l1.5 5.2l8.8 11.1l3.7 1.5l6.9 -4.1l10.2 -0.4l2.7 0.1l1.6 0.6l2.2 0.6l2.9 0.1l1.7 0.2l2.6 0.8l2.5 1.2l9.8 5l3.2 2.3l2.3 1.2l1.6 0.6l2 1.2l2.6 0.2l3.7 -0.2l1.6 0.1l0.6 -13.7l0.4 -10.5l5.9 -0.2l25.9 0l-0.1 -55.9l-0.4 -28.2l-11.6 0l-2.2 1.1l0.5 10.6l-28 0.1l0.1 16.3l-43.3 -0.3l-0.1 3.6l-3.5 0.3l-1.4 -7.1l-7.2 -2.5l-9.5 4.6l-1.5 -2l1.1 6.3l-2.8 3.3l1.1 3.4l-4 3.2z"/><path data-id="17085" d="m213.3 6.5l0 1.9l0.6 1.7l1.8 2.2l1.5 1.1l4.1 3.2l4.5 2.5l4 1.4l2.1 1l2.8 0.9l1.4 1l1.2 2l0.4 1.5l0.2 2.5l0.8 1.7l1.7 1l7.6 3.4l2.7 1.4l1.7 1.1l1.1 1.1l1.4 1.8l1.4 0.9l1.1 0l1.5 1l1 1.1l1.4 3l3 3.4l1.6 0.8l3.9 6.8l1.3 1.4l1 0.7l1.2 1.8l0 1.3l-0.9 1.3l0 2l0 2.1l-1 4.1l-1.6 3.1l0 2l1.7 4l0.5 2.2l0.7 1.8l2.2 2.2l2.4 2.8l1.2 2.1l0.3 1.4l0.9 1.2l4 3.6l2.5 1.4l2 1.7l4.7 0.7l2.5 0.8l2.6 2.4l55.2 -1.1l43.9 0.1l-1.8 -104.1l-7 0.1l-7.4 -0.3l-3 -0.1l-4.9 -0.2l-14.1 -0.4l-4.8 0l-12.4 0l-5.3 0l-4.3 0.1l-6.1 0.1l-4.3 0l-6.8 0.1l-4.1 0l-1.4 0.1l-7.7 0l-14.6 0.1l-1.3 0l-9.5 0.1l-5.1 -0.1l-2.6 0l-9.4 -0.1l-1.1 0l-3.1 -0.1l-10.1 0l-3 0l-1.7 0l-1.2 0.1l-2.4 0l-12.2 -0.2l-7.1 -0.1l-1.4 3.5l-1.8 2.2z"/><path data-id="17087" d="m614.5 1682.5l0 11.2l10.2 -5.3l9.9 4.3l8.6 -1.6l6.6 -4.3l-1.5 -6l44.8 0.2l4.4 -0.6l0.5 -82.2l-27.5 -0.4l-4.4 1l-50.9 0.3l-0.8 83.7z"/><path data-id="17089" d="m724.8 259.9l0 4.8l27.9 -0.5l21.2 -0.4l7.3 -0.1l1 0l12.9 -0.3l14.3 -0.3l-0.1 -15.6l-0.1 -13.6l0.1 -23.6l0 -5.5l-0.1 -29.2l-0.1 -8.6l0 -1.2l-0.1 -17.2l5.1 -0.1l1.3 0l0 -8.5l0 -20.8l-4.8 0.1l-1.9 0.1l-12.7 -0.1l-1.2 0l-8.2 0l-9.8 0l-19.8 0.1l-28.9 0.1l0.1 14.6l0 14.6l-3.4 0l0.1 16.3l-0.1 94.9z"/><path data-id="17091" d="m812 465.8l1 39.5l28.7 -1.1l150.8 -4.1l0 -4.8l0 -31.9l0 -6l0 -3.2l0 -1.6l0 -1.8l0 -1.4l0 -44.4l-64.2 0.7l-28 0.5l-15.1 0.4l-13.9 0.3l0.5 28.8l-57.8 1.3l0.8 28.8l-2.6 0.1z"/><path data-id="17093" d="m724.4 266.8l0.3 27.4l1.6 58l85.6 -2l-0.5 -19.2l-0.3 -9.8l-0.5 -14.4l-0.5 -14.2l-0.4 -19.9l-0.1 -9.6l-14.5 0.3l-12.9 0.3l-1 0l-7.3 0.1l-21.1 0.4l-28 0.5l-0.4 2z"/><path data-id="17095" d="m266.9 520.7l-0.9 76.6l28.5 0.3l28.5 0.1l57.1 0.4l0.1 -86.3l0.2 -57.7l-112.8 -0.6l-0.4 28.8l-0.4 38.4z"/><path data-id="17097" d="m825.2 90l-0.3 29.3l12.2 0l4.3 0l3 0l24.3 0.2l4.8 0l4.8 0l9.7 0.2l2.4 0l12.2 0.1l9.7 0l6.7 0.1l15.4 0.1l-10.1 -18.7l-3 -8l-4.1 -12.8l-1.5 -10.6l0.8 -7.9l0.2 -1.8l1.8 -10.6l1.8 -0.7l2.8 -7l0.4 -9.8l0.1 -1.3l0 -1l0.6 -7.7l0.7 -9.5l-0.6 -6.8l-3.8 0l-6.9 -0.1l-13.5 -0.2l-18.3 -0.3l-4.7 -0.2l-14.8 -0.3l-11.1 -0.2l-5.2 -0.1l-20.9 0.1l0.2 27.1l-0.1 6.4l0 22.8l0 9.4l0 1.8l0.1 18.1z"/><path data-id="17099" d="m584 295.1l0 3.6l0.1 10.9l0 12.1l0 17.6l0.7 61.6l0.3 39l0.1 29.2l28.5 -0.3l0 59.1l29 -0.7l0.2 -47.6l0 -11.1l29.5 -0.2l8.5 0l47.7 -0.5l-2.4 -115.5l-1.6 -58l-12.9 0.1l-14.5 0.2l-26.3 -0.3l-30 1l-26.5 0.5l-30.4 -0.7z"/><path data-id="17101" d="m897 1289.3l-0.5 1.5l64.9 0.6l3.4 -6.5l2.1 -0.5l1.3 -1.2l-0.9 -3.6l1.2 -4.3l0.6 -6.6l6.6 -8.9l12 -3.3l2.5 -1.4l1.1 -0.6l2.9 -4.2l0.7 -6.1l3.3 -5.5l1.8 -2.9l-0.6 -4.8l0.1 -1.5l0.5 -5.1l-7.7 -12.6l1.4 -2.7l-1 -7.1l-2.1 -1.2l-37.3 0.1l-18.8 0.9l-37 -0.2l-0.5 87.8z"/><path data-id="17103" d="m468.5 251.9l0 57.7l115.8 -0.1l-0.1 -10.9l0 -3.6l30.4 0.7l26.5 -0.5l-0.7 -87.9l-104.4 1.2l0 -4.9l-10.6 0.1l-2.9 5.4l-3.5 -2.6l1.3 -4.4l-12.2 -1.6l-2.2 3.2l-36.8 0.2l-0.2 19.4l-0.3 28.6z"/><path data-id="17105" d="m642.9 479.7l-0.2 47.6l0.5 57.4l85.9 -1.4l0.5 28.6l1.7 0l0.2 17.7l28.6 -0.3l18 0l37.9 -0.3l-3.1 -123.8l-1 -39.5l-26 0.8l-57.3 1.1l-47.7 0.5l-8.5 0l-29.5 0.2l0 11.1z"/><path data-id="17107" d="m475.6 726.6l-0.2 33.2l0.6 31.3l0.1 9.8l5.5 0l0.2 37.8l23.5 -0.2l0.1 14.2l19.5 0.1l0 4.7l46.6 0.4l18.5 -0.2l-0.3 -42.6l-1 -76l-28.4 0.3l-0.3 -14.5l-84.5 1.7z"/><path data-id="17109" d="m151.6 622.2l-1.4 116.1l114.4 2.6l1.2 -115l-85.7 -2.6l-28.5 -1.1z"/><path data-id="17111" d="m698.5 5l0.4 55.9l0 58.6l29.1 0l28.9 -0.1l19.7 -0.1l9.9 0l8.2 0l1.2 0l12.7 0.1l1.9 -0.1l4.8 -0.1l9.7 0l0.3 -29.3l0 -18.1l0 -1.8l0 -9.4l0 -22.8l0 -6.4l-0.1 -27.1l-4.4 0l-8.3 0l-5.2 0.3l-8.4 0l-28.1 0.1l-11 0l-11.3 -0.1l-8.4 0l-24.4 0l-17.1 0.5z"/><path data-id="17113" d="m558.6 636.9l0.7 35.6l0.7 52.4l0.3 14.5l28.4 -0.5l24.1 -0.2l4.3 0.1l28.7 0l2.2 0.1l83.6 0.3l28.5 -0.1l0.1 -38.2l0.2 -28.6l-0.1 -43l-28.6 0.3l-0.2 -17.7l-1.7 0l-0.5 -28.6l-85.9 1.4l-14.3 0.3l0.5 28.7l-15.1 0.3l0.2 12l-14.2 0.8l0.1 4.2l-8.2 0.3l0.1 4.8l-5.3 0.1l-28.4 0.7z"/><path data-id="17115" d="m571.4 857.9l0.1 20.8l0 12.7l9.4 -0.6l9.4 4.6l0.6 36.8l0.2 10.5l28.2 0.2l53.6 0.4l-0.5 -28.2l13.7 0.2l-0.2 -16.9l3.2 0l0.1 -85.4l-99.5 2.1l0.3 42.6l-18.5 0.2z"/><path data-id="17117" d="m338.4 986.2l1.4 83.2l0.4 28.2l0.1 55.9l4.3 0.4l2.6 0l19 0.1l85.4 -0.1l-1.2 -107.2l1.1 -4.9l-0.6 -56.5l-27.8 0.2l-28.1 0.2l-56.7 0.6z"/><path data-id="17119" d="m308.2 1164.3l-0.2 13.8l1.5 0.3l1.8 0.7l1.4 -0.1l1.6 0.5l2.1 1.4l2.8 1.3l1.8 1.1l2.4 2.2l1.1 1.1l2.9 3l1.8 0.5l5.9 3.2l3.7 2.9l9.5 5.7l1 1.8l0.1 1.9l-1.4 7.2l-0.7 3l-1.3 2.5l-5.9 4.8l-4.9 3.3l-1.2 2l-0.9 2l-0.3 1.9l-1.8 2.4l-2 1.2l-3.5 3.4l-1.2 1.9l-0.3 1.3l-0.2 1.3l0 2l0.7 2.9l1.7 2.9l1.1 1.2l2.8 4.8l0.9 3l0.3 1.6l21.6 0.2l1.2 0.1l13.1 0.3l27.1 0.2l55.1 0.9l27.8 -0.3l-0.1 -3.5l-0.5 -24.4l-0.6 -41.9l-9.3 0.1l-0.3 -14.1l-0.4 -25.9l-3.4 -0.1l-11.4 0.2l-85.4 0.1l-19 -0.1l-2.6 0l-4.3 -0.4l-25.9 0l-5.9 0.2l-0.4 10.5z"/><path data-id="17121" d="m589.8 1312.2l-0.1 9.3l27.7 0l27.6 -1l55.6 0.7l0.1 -41.7l0.8 -70.3l-83.5 1.1l-26.8 -0.4l-0.1 28.1l-0.3 27.9l-1.1 46.4z"/><path data-id="17123" d="m466.7 456.8l0 55.3l47.6 0.2l-1.9 12.4l-4.2 4.7l48.9 -1.1l28.8 -0.9l28 0.4l0 -59.1l-28.5 0.3l-48.8 0l4 -2.5l2.2 -4.1l1 -8l-34.1 -0.2l-42.9 0l0 2.4z"/><path data-id="17125" d="m292.7 786.6l-4.2 3.9l9.9 2.8l2.9 7.5l-0.4 4.9l4.9 7.3l3.9 -1.9l9.9 1.4l3.4 1.8l2.6 -2.6l2.8 1.9l1.3 -3.6l13.7 0.7l2 -4.7l3.4 -1.3l7.7 0.3l4.3 -6.5l3.4 0.2l2.7 -2.9l7.1 2.5l4.1 -2.6l3.1 -1.8l3.1 -9.1l2.8 2.6l5.5 0.6l2.7 -2.4l7 4l6.9 -2.9l0.6 2.3l6.7 0l2.4 2l9.3 -0.1l5.5 -2.6l5.8 1.6l10.2 -6.4l3.4 1.9l2.6 -4.6l12.3 0.5l3.5 5.7l4.7 4.5l-0.6 -31.3l0.2 -33.2l-27.9 0.3l-0.5 -38.1l-27.7 0.4l-24 -0.5l-5.9 3.6l-8.9 10.6l-13.5 5.8l-2 3.4l-1.7 5.6l0.6 4.3l-4.5 6.6l-0.5 6.8l-6.5 8.7l-2.6 1.9l-2.9 8.4l-4.7 4.1l-5 1l-5.7 7.7l-4.7 3.9l-1.6 9.2l-2.5 1.7l-12.9 -1.3l-10.5 5l-6.8 1z"/><path data-id="17127" d="m643.3 1691l0.3 23.8l1.8 0.6l1 0.1l3.5 1.6l8.3 3l8.6 4.1l3.5 1.3l3.8 1.1l2.1 1.2l2.6 2l1.9 1.9l0.9 1.2l2.6 1.9l3.1 2.5l1.7 1l2 1.6l1.5 0.8l2.2 0.9l5.2 -0.4l2.1 0.5l1.5 0.6l10.7 5.2l1.7 0.5l1.8 0.1l1.2 0.5l3.6 2.1l2.6 1.8l1.8 1.7l1.2 0.7l1.9 2.8l1.2 1.5l1.8 1.1l1.4 1.1l4.5 2.7l3.4 0.9l2.5 0.5l1.8 0.1l2.5 0l3.5 -0.8l0 -28.6l-54.9 -55.6l-4.4 0.6l-44.8 -0.2l1.5 6l-6.6 4.3z"/><path data-id="17129" d="m377.9 795.5l0.1 67.3l56.1 -0.2l0 -4.5l16.8 -0.1l0.9 -19l29.9 -0.3l-0.2 -37.8l-5.5 0l-0.1 -9.8l-4.7 -4.5l-3.5 -5.7l-12.3 -0.5l-2.6 4.6l-3.4 -1.9l-10.2 6.4l-5.8 -1.6l-5.5 2.6l-9.3 0.1l-2.4 -2l-6.7 0l-0.6 -2.3l-6.9 2.9l-7 -4l-2.7 2.4l-5.5 -0.6l-2.8 -2.6l-3.1 9.1l-3.1 1.8z"/><path data-id="17131" d="m99.3 420.8l0.1 2.9l1 1.6l2.2 2l1.9 2.6l2.9 2.7l2.1 2.4l1.8 2.5l2.7 4.5l3.4 6.5l2.9 0.9l4.3 -0.7l1.2 -0.1l2.4 1.2l2 2.2l2.1 4.3l2.6 4.1l1.2 3.5l2.2 2.8l2.6 4.8l-0.4 4l-0.3 3.9l40.9 1.3l58.4 1.5l27.7 0l0.4 -28.8l1 -58.2l-26.6 0l-2.3 -0.1l-130 -2l-0.3 6.6l-0.4 2.6l-0.7 1.2l-2.3 2.5l-1.3 2.5l-2.3 6.5l-0.8 1.7l-1.5 2l-1 2z"/><path data-id="17133" d="m283.6 1378.5l0 4l0.5 2.5l0.2 2.1l0.8 3.7l0.2 1.8l0.8 4.3l1.1 3.7l0.8 2.2l0.6 1.2l4.9 7.6l3 2.6l1.4 0.7l1.5 0.3l2.5 1.1l2.4 1.5l1.9 1.9l2 2.2l5.5 9.4l2.3 4.8l6.1 5.8l2.9 1.9l42.7 -15l-0.1 -27.7l34.2 0.8l0.4 -3.6l-2.9 -2.1l-1.4 -6.4l-2.7 -4.6l1.3 -3.8l0.7 2.4l4 -3.1l-3 -6.6l-30.6 -0.2l0 -4.6l-27.2 -28.2l0 -4.6l-29.5 -29.8l-1.2 4.6l-0.3 1.5l-0.3 1.7l-0.9 3.1l-0.2 2.1l-0.8 2.3l-0.3 1.9l-0.9 4.9l-0.3 2.4l-0.9 1.6l-1.6 3.7l-6.7 7.9l-1.5 1.1l-3 3.4l-1.4 1.8l-0.9 1.3l-1.6 5.5l-3 6.4l-0.6 2.1l-0.4 3.2l0.2 6l-0.5 3.1z"/><path data-id="17135" d="m451.6 1041.8l-1.1 4.9l1.2 107.2l11.4 -0.2l3.4 0.1l13.2 -0.1l-0.1 -9.3l83.6 0l0 -60.8l27.5 -0.1l0.1 -42.1l-97.4 0l-0.7 -56.6l-41.8 0.4l0.6 56.5z"/><path data-id="17137" d="m235.9 886.1l-8.3 13l28.9 0.3l-0.1 11.6l27.9 0l-0.4 28.4l8.8 0.1l-0.1 9.3l9.3 0.1l-0.3 37.6l36.9 0l56.7 -0.6l0.5 -11.7l-11.7 -39.8l-3.5 -11.8l-0.2 -21.8l-2 0l-0.2 -28.4l-146.7 -1.2l-0.6 1.7l3.6 10.4l1.5 3z"/><path data-id="17139" d="m672.3 915.1l0.5 28.2l0.4 23.6l22.8 0.3l0.1 18.8l18.8 0.1l0.1 4.6l4.7 0.1l0 4.7l4.7 0.1l0 4.7l4.6 0l0.1 9.5l28.3 0.2l-0.4 -66l-0.3 -45.4l-67.8 -0.1l-3.2 0l0.2 16.9l-13.7 -0.2z"/><path data-id="17141" d="m454.3 104.2l0.9 58.2l-0.5 29.6l0.3 2.4l14.1 0.1l-0.1 9.5l36.8 -0.2l2.2 -3.2l12.2 1.6l-1.3 4.4l3.5 2.6l2.9 -5.4l10.6 -0.1l0 4.9l104.4 -1.2l-0.1 -14.6l0.7 -43.4l-0.2 -29.3l-37.9 0.6l-20.2 0.1l-0.1 -18.1l-40.9 0.6l-14.7 0.2l-72.8 0.9z"/><path data-id="17143" d="m380.2 598.2l-0.7 28.4l28.8 0.4l0.3 36.5l14.9 -9.2l10.5 -3.9l7.8 0.7l11.8 -3.1l4.1 2.2l4.3 -4.4l0.9 -4l-1 -7.1l5.5 -7.1l6.5 -9.4l-1.3 -4.1l5.8 -6.8l8.7 -5.3l0.8 -1.4l1.8 -4.8l-2.1 -9l-0.2 -4.2l-1.6 -10.9l8.5 -13.8l0.8 -4.5l6.3 -8.5l6.8 -15.2l4.2 -4.7l1.9 -12.4l-47.6 -0.2l-86.3 -0.3l-0.1 86.3z"/><path data-id="17145" d="m478.2 1427.6l-0.7 58.2l89 1.5l15 0.1l3.2 -1.5l4.7 -9.7l0.1 -7.3l2.3 -2.9l-1.1 -4.8l1.9 -6.8l3.6 -1.7l-1.3 -1.1l1.3 -10.4l-4.2 -1.7l1.3 -7.3l-5 -0.1l0.6 -27.9l-82.6 -1.1l-28.2 -1l0.1 25.3z"/><path data-id="17147" d="m689.1 812.9l-0.1 85.4l67.8 0.1l2.7 0l0 -28.3l-0.2 -85.5l-0.1 -26.4l0.8 -19.1l-28.5 0.1l-28.2 45.4l0 14.2l-14.3 0l0 14.2z"/><path data-id="17149" d="m35.6 913.6l0 4.1l0.6 1.1l3.7 4.5l1.9 1.9l3.4 2.9l3.4 2.5l2.8 2.5l1 1.7l2.2 1.6l2.6 1.5l1.8 1.4l2.3 2.8l1.6 2.6l2.9 2.6l0.7 1.2l0.6 1.4l0.6 1l3 3l1.5 1.1l1.7 0.8l7.6 3.2l1 0.8l1 1.4l0.8 1.6l0.7 3.7l0.5 4l0.3 1.5l1.2 2.1l1.3 1.8l1.2 1.5l1.3 0.8l5.4 1.2l3.1 0.4l3.5 0.8l1.9 3l1.6 3.9l1.6 3l1.1 1.6l2.7 2.6l0.5 6.6l0.7 1.7l1.6 2.2l3.7 4.4l3.6 3.1l2.9 1.9l2.1 1.6l2.5 1.5l2.7 0.8l1.3 0.7l1.3 1.3l1.2 0.7l2.5 1l2.3 0.5l1.9 1.1l0.8 1l80.6 1.6l-0.8 -9.1l1.6 -10.8l4.6 -9.5l2.7 -11.2l2.2 -5.6l-1.1 -6.6l-6.1 -16.5l-1.6 -8.7l-6.4 -11.5l-3.1 -9.8l9.9 -21.1l1.8 -7l8.3 -13l-1.5 -3l-80.1 -0.5l-5.8 -1.3l0.2 28.5l-111.8 -0.5l-0.5 1.6l-0.6 2.9z"/><path data-id="17151" d="m698.2 1598l-0.5 82.2l54.9 55.6l0 28.6l1.9 0.2l1.7 -0.3l4.3 -1.7l3.6 -7.7l0.5 -2.9l1.7 -5.4l2.8 -7.7l-0.8 -2.5l-1.5 -2l-1 -5l-1 -2.8l-1.4 -4.5l-0.7 -1.1l-2 -2l-2 -1.1l-1.2 -1l-1.6 -2.2l-1.7 -4.2l-0.6 -1l-1.3 -1.4l-2.1 -1.6l-1.8 -2.1l0.3 -2l-0.7 -2.1l-1.6 -3.3l0.3 -2.2l0.8 -2.4l0.7 -1.5l0.9 -1.4l1.1 -3.1l1.6 -3.1l1 -2.3l0.8 -1.4l0.6 -1.9l0.5 -2.9l0.1 -3l0.9 -3.3l0.5 -3.7l1.6 -2.9l1.1 -1.3l2.5 -2.5l1.5 -1l2.7 -1.5l1.5 -0.5l1.8 -0.4l1.8 -0.8l1.6 -55.8l-73.8 0.2z"/><path data-id="17153" d="m557.6 1745.9l2.9 6.5l8.4 4.5l7.7 1.8l6.3 5.5l0.9 -1.9l3.4 -4.6l1.2 -0.3l2.1 -1.3l1.4 -2.6l2.7 -2l1.2 -1.5l1.2 -0.7l1.1 -1l3 -6.8l0.6 -1.6l0.2 -1.3l0.7 -1.9l1.6 -2.9l2.6 -3l4.5 -4.3l4.2 -4.4l2.8 -2.6l4 -1.5l2 -1.6l1.2 -1l4.4 -1.3l4.1 -0.4l6.2 0.3l2.2 0.3l1.2 0.3l-0.3 -23.8l-8.6 1.6l-9.9 -4.3l-10.2 5.3l0 -11.2l-13.6 -1.2l-17.4 -0.2l-19.7 -0.3l4.9 0.9l5.5 3.4l1 10l-1.9 2.8l-6.9 3l-3.1 4.5l0.1 4.1l-2.7 7.3l-0.3 5.7l2.7 3.4l-3.8 3.2l1.4 3.3l-1.7 3.4l3 -0.3l-0.3 4.2l-3.9 6.1z"/><path data-id="17155" d="m509.6 426.2l0.1 28.2l34.1 0.2l-1 8l-2.2 4.1l-4 2.5l48.8 0l-0.1 -29.2l-0.3 -39l-15.2 -1l-10.7 -3l-3.9 3.2l-12.8 3.8l-0.5 6.4l-4.9 16.1l-9.3 -0.1l-18 -0.2z"/><path data-id="17157" d="m325.7 1444.2l8.1 5.5l2.2 -1.5l1.3 -0.2l3.5 1.8l3.4 2.1l1.1 2.4l0.1 1.4l-0.2 2.1l0.1 1l2.2 2.8l1.7 1.6l4.2 2.8l1.4 0.7l1.8 0.1l2.2 -0.5l1.8 0l1.4 0.4l1 1.2l0.5 1.1l0.6 1.5l1.4 1.1l3.4 1.5l6 7.9l2.1 1.8l3.4 0.7l1.8 -0.2l6 -1.2l3.2 -1.1l1.1 1.6l0.2 1.2l3 0.3l0.1 1.3l-1.9 2.6l-1.4 0.4l-2.4 1.8l-3 0l-0.7 1.8l-1.5 0.9l-1.6 1.5l0.2 2.4l0.6 1.3l4.8 10.1l3.6 2.5l3.7 1.4l2.5 0.3l2.9 -0.1l1.1 -0.6l3.9 -2.5l1.2 -1.2l2.4 -3.2l1 -1.1l3 -2.2l1.6 -0.5l2.1 1.2l5.6 4.4l2.4 1.5l1.1 0.5l0.4 2.3l-0.6 1.8l1.1 2.9l2.4 2.5l1.1 -1.1l1.9 1l2.3 0.1l2 1.4l1.8 0.2l2.5 0l0.9 1.1l0.9 1.6l0.8 1.1l3 2.9l3.6 2.8l1.6 0.8l3.4 2.1l1.3 0.9l-0.8 -5.5l4 -2l2 -9.3l15.3 -30.5l0.7 -58.2l-0.1 -25.3l-27.5 0l-48.7 -0.4l-34.2 -0.8l0.1 27.7l-42.1 15.4z"/><path data-id="17159" d="m801.6 1268l0.2 4.9l1.5 2.1l9.3 5.9l-1.2 0.6l26.3 0.5l0.1 9.2l48.3 -0.3l10.4 0l0.5 -1.5l0.5 -87.8l-9.4 0l-77.8 0.8l0.2 37.2l-6.4 -0.2l-0.2 16.1l2.8 7.5l-5 5.1z"/><path data-id="17161" d="m109.8 393.1l130 2.1l2.3 0.1l26.6 0l0.4 -28.9l0.1 -14.2l13.8 -7.3l1.8 -6l9.2 -5.7l22.8 -3.7l12.1 -6.1l3.3 -10.1l-1.6 -3.7l5.2 -4.2l0.9 -15.5l-7 -6.5l-11.6 -5.4l2.3 -1.3l0 -3l-4.5 -3.3l2.6 -11.3l-3.3 -3.6l2.8 -5.2l-2.6 0l1.2 -6.8l-1.6 1.1l-2.5 1.5l-1.2 1.1l-3.8 1.6l-6 5.8l-2 2.6l-1.1 2.7l-0.3 1.8l-0.3 2.1l0.1 1.5l1 2.9l0.1 2.4l-0.2 1.4l-0.3 1.1l-0.7 1.1l-3.2 2.5l-1.1 1.5l-0.5 5l-1.7 5.9l0 2l0.9 14.1l-0.5 2.7l-5.6 3.6l-4.3 1l-4.1 1.5l-1.9 1.2l-1.8 1.1l-2.3 3.7l-1.2 0.9l-1.4 0.7l-1.4 1.8l-1.7 2.7l-4 4.2l-3.2 1.3l-3.9 0.5l-2.5 0.1l-3.3 -0.5l-5 -1.8l-2 -0.4l-1.1 0.2l-2.7 0.4l-2.7 2.2l-1 0.4l-2.7 0.4l-2.2 0.8l-1 0.6l-1.7 1.7l-0.5 3l-3.5 4l-3.5 2.1l-1.9 1.8l-2.5 2.8l-1.4 1l-2.6 0.5l-2.5 -0.1l-3.6 1.4l-2.5 0.6l-5.6 0.8l-3.5 0.7l-3.1 0.2l-5.4 -0.4l-1.5 -0.2l-2.2 -0.5l-5.2 -0.5l-4.3 0l-3.2 -0.4l-2.3 0.2l-1.8 0.4l-1 0.4l-2.4 1.5l-3.1 2.4l-2.7 1.9l-2.4 1.4l-4.7 1.8l-1.2 0.9l-1.4 0.5l-4.9 -0.9l-4.2 -2l-2.1 -1.3l-1.2 -0.1l-1.3 0.2l-5.2 2.6l-1.5 0.4l-3.9 0.5l-2.3 1.2l-1.7 1.4l-1 1.7l-0.6 3.6l-0.2 4.1l-3.5 6.2l-0.4 1.3l-1.3 8.5l-0.1 2z"/><path data-id="17163" d="m311 1306.6l29.5 29.8l0 4.6l27.2 28.2l0 4.6l30.6 0.2l3 6.6l-4 3.1l-0.7 -2.4l-1.3 3.8l2.7 4.6l1.4 6.4l2.9 2.1l-0.4 3.6l48.7 0.4l-0.2 -62.3l-0.7 -76.1l-55.1 -0.9l-27.1 -0.2l-13.1 -0.3l-1.2 -0.1l-21.6 -0.2l0.9 5.7l-0.1 2.8l-0.2 1.5l-1.4 5.6l-0.5 1.2l-1.3 2.8l-1 1.4l-1.6 1.8l-1.9 1.5l-1.6 1.7l-1.3 0.7l-6.6 10l-2.2 4l-0.6 1.2l-0.9 2.5z"/><path data-id="17165" d="m698.7 1514.8l-0.4 83.1l73.8 -0.2l9.1 0.1l0.2 -97l-82.7 0.3l0 13.7z"/><path data-id="17167" d="m378.1 862.7l0 9.4l0.2 28.4l2 0l0.2 21.8l3.5 11.8l11.7 39.8l-0.5 11.7l28.1 -0.2l27.8 -0.2l41.8 -0.4l0 -4.7l-0.3 -23.6l0 -9.3l14.1 0.1l-0.1 -13.9l13.4 0.1l-0.1 -20.7l0.1 -4.6l3.9 6l3 0.5l5.9 -5.4l2.8 0.9l2.2 -5.3l6.2 1.1l6.5 -2.3l1.7 -4.6l8.8 -4.9l3.6 -6.8l3.2 4.2l4 -0.2l0 -12.7l-0.1 -20.8l-46.6 -0.4l0 -4.7l-19.5 -0.1l-0.1 -14.2l-23.5 0.2l-29.9 0.3l-0.9 19l-16.8 0.1l0 4.5l-56.1 0.2z"/><path data-id="17169" d="m149.7 768l-0.4 28.9l29.2 -0.4l25 0.6l-2.5 6.2l8.1 1.3l-1.2 9.2l4 1.9l2.2 4.4l5.8 3.1l4.6 -3l1.5 2.5l-3.3 3.2l4.3 3.8l-1.3 7l5.4 0.9l4.3 -1.6l6.1 1.1l7.4 -2.4l14.9 -7.5l4.5 -3.2l1.8 -12.9l8.8 -6l0 -4.3l4.8 -9.5l4.9 -1l4.2 -3.9l6.8 -1l10.5 -5l12.9 1.3l2.5 -1.7l1.6 -9.2l-62.7 -1.6l0.3 -28.5l-114.4 -2.6l-0.6 29.8z"/><path data-id="17171" d="m215.9 927.1l3.1 9.8l6.4 11.5l1.6 8.7l6.1 16.5l1.1 6.6l-2.2 5.6l69.5 0.5l0.3 -37.6l-9.3 -0.1l0.1 -9.3l-8.8 -0.1l0.4 -28.4l-27.9 0l0.1 -11.6l-28.9 -0.3l-1.8 7l-9.9 21.1z"/><path data-id="17173" d="m590.9 1041.5l-0.1 42.1l28.1 0.8l55.3 -0.3l83.3 0.4l0 -51.3l0.1 -23.4l-28.3 -0.2l-0.1 -9.5l-4.6 0l0 -4.7l-4.7 -0.1l0 -4.7l-4.7 -0.1l-0.1 -4.6l-18.8 -0.1l-0.1 -18.8l-22.8 -0.3l-0.4 -23.6l-53.6 -0.3l0.1 99.4l-28.5 -0.9z"/><path data-id="17175" d="m380.6 454.1l-0.2 57.7l86.3 0.3l0 -55.3l0 -2.4l-0.1 -28.2l-54.5 -0.2l-2.5 0l-0.2 28.3l-1.7 -0.2l-27.3 0z"/><path data-id="17177" d="m395 0.9l1.7 104.1l1.6 0.2l56 -1l72.8 -0.9l-0.4 -35.4l-0.9 -65.2l-4.9 -0.1l-1 0l-14.7 -0.2l-2.1 0l-7.5 -0.1l-10.4 -0.2l-7.6 -0.3l-1.3 -0.1l-3.4 -0.1l-7.7 -0.2l-1.5 0l-4.3 -0.1l-5.6 -0.1l-13 -0.1l-6.8 0l-2.7 0l-3.4 0l-1.4 0l-9.4 0l-22.1 -0.1z"/><path data-id="17179" d="m399.5 685.7l-4 3.1l24 0.5l27.7 -0.4l0.5 38.1l27.9 -0.3l84.5 -1.7l-0.7 -52.4l-0.7 -35.6l-0.1 -7.1l-14.3 0.2l-0.7 -43.6l-56 0.2l2.1 9l-1.7 4.5l-0.9 1.7l-8.7 5.3l-5.8 6.8l1.3 4.1l-6.5 9.4l-5.5 7.1l1 7.1l-0.9 4l-4.3 4.4l-4.1 -2.2l-11.8 3.1l-7.8 -0.7l-10.5 3.9l-14.9 9.2l-2.4 2.5l-0.8 4.2l-1 6.4l-4.8 9.1z"/><path data-id="17181" d="m495.8 1608.3l0 1.7l0.2 2.2l1 5.2l1.2 2.3l1.2 1.7l1.1 2l0.7 1.5l0.6 2.5l1.4 3.4l4.1 7.1l1.1 1.5l5 5.1l1.9 2.5l0.9 1.5l1.4 3.2l2 6.1l0.9 3.2l0.3 1.6l0.1 1.4l-0.2 2.2l-1.5 7.6l-0.4 1.3l-0.8 1.5l-3.7 2l-1.8 0.4l-4.9 0.4l-2.4 0.8l58.7 0.2l19.7 0.3l17.4 0.2l13.6 1.2l0.8 -83.7l-28 -1.2l-19.7 0.6l-54.3 -0.5l-0.6 6.3l-4.9 5.7l-12.1 -2.8l0 1.4z"/><path data-id="17183" d="m889.1 757.5l0.3 27.2l0.1 1.7l0.2 17.3l0.5 66.2l33.3 -0.3l46.9 -0.3l-0.6 4.3l14.9 -0.1l-6 -4.4l12 -0.2l0.1 -28.6l0 -1.3l0 -4.1l0.1 -3.4l0 -4.4l0.2 -39.5l0 -3.7l0.1 -1.2l0.1 -7.1l0 -2.3l0.1 -4.8l0.2 -19l0.8 -69.3l0.1 -4.4l0 -5.1l-31.3 1l-70.5 0.7l0.9 26.7l-0.1 1.6l0.7 42.4l0.2 14.4l-3.3 0z"/><path data-id="17185" d="m876.7 1386.3l0.3 3.2l2.2 1l3 4.1l0.2 1.9l2.2 0.1l0.4 -2.4l0.7 -2.1l2.5 -1.2l1 -1.6l-1.7 -1.2l-0.8 -3.2l2.4 -1.5l1.2 -4.3l3.1 -2l2.1 -0.2l1.8 1.2l-0.1 2l-1.4 2.2l-1 2l0.4 1.8l1.2 0.6l1.1 -0.1l2.7 -3.5l2.5 -1.8l0.7 -2.5l1 -3.4l1.4 -2.1l1.5 -0.7l1.4 0.8l0.7 1.4l-1.4 4.9l0.8 3.1l2.1 1.6l2.2 -0.4l1.2 -1.1l2 -4.2l0.5 -1.9l-0.3 -2.5l-0.2 -5.6l2.5 -7l4.1 -5.2l6.5 -2.4l5 -7l3.6 -5.1l0.2 -1.7l0.8 -6.7l2.6 -2.3l0.1 -1.1l-1.4 -2.1l-1.9 -1.9l-0.1 -2.8l1 -2.3l2.2 -1.2l4.2 -0.4l5.2 -2.6l3.7 -3.3l3.7 -1.4l1.6 -1.3l0.7 -1.5l0.1 -1.7l-0.5 -1.2l-1.2 -6.3l2.5 -4.8l-0.2 -3.8l-64.9 -0.6l-10.4 0l0.4 8.6l3.4 2.9l-3.9 5.5l1.7 3.3l-0.9 5.4l1.8 10.5l-2.9 9.9l-5.1 7.9l-0.3 7.2l2.4 7.5l3.3 5.3l-1.1 5.5l2.9 3.5l-2.6 2.8l1.5 2.9l-10.1 6.6z"/><path data-id="17187" d="m180.1 609.1l0 14.2l85.7 2.6l0.3 -28.6l0.9 -76.6l0.4 -38.4l-27.7 0l-58.4 -1.5l-1.1 128.3z"/><path data-id="17189" d="m450.3 1340l0.2 62.3l27.5 0l28.2 1l82.6 1.1l0.5 -55.4l0.3 -27.5l0.1 -9.3l-27.6 -1.7l-4.5 1.3l-6.4 -0.4l-3 -2.1l-8.2 0.5l-1.9 -2.6l-2.4 1.4l-1.5 5.3l-9.6 0.7l-1.2 2.6l-4.4 -3.7l-5 3.1l-1.6 3l-6.7 3.6l-8 -1.3l-2.3 -1.8l-11.2 0.8l-1.1 -2.3l-4.1 2.3l-5.9 0.7l-3.7 7.2l-9 1.7l-0.8 4.2l-7.3 2.3l-1.9 2.9z"/><path data-id="17191" d="m700.6 1321.2l-0.9 69.3l82.7 0.4l54.6 -0.2l0.8 -99.4l-0.1 -9.2l-26.3 -0.5l-82.3 -2.5l-28.4 0.4l-0.1 41.7z"/><path data-id="17193" d="m782.4 1390.9l-1 109.7l59.4 0.2l0 -2.6l10.7 7.7l-1.2 -3.1l0.6 -1.4l2.3 0l3.7 3.1l4 1.4l3.6 -0.2l3.6 0.2l2 0.8l1.3 -2l-1.7 -5.7l-2.5 -0.5l-8.7 -1.7l-0.9 -2.8l2.3 -1.7l1.4 0.3l4.5 -3.1l-0.1 -4.5l1.2 -0.5l2.7 -0.2l1.1 -0.7l0.8 -1.6l0.1 -3.3l-2.3 -6l-0.4 -6.2l3.9 -4.3l-2.5 -1.8l-3.3 1.3l-2.7 -2.4l1.6 -4.1l8.5 -0.1l3.1 -1.3l5.4 -3.6l1.5 -3.5l1.1 -3.2l-1.3 -3.7l-10.6 5.1l-1.9 -0.4l-1.1 -3.8l0.9 -2l3.7 -1.6l2.8 0.4l1.8 -0.3l1.4 -1.1l-0.1 -3l0.9 -2.6l0.9 -1l1.7 0l1.1 -0.3l2.6 2l2.6 -4.1l1.8 -0.7l0.6 -1.5l-0.5 -1.8l-1.6 -1.4l0 -2.5l-0.8 -2.5l-5.6 -3.9l-4.1 -4.3l-2.1 -3.8l-0.2 -5.8l-0.6 -4l-0.4 -2.5l0.2 -2.1l-0.7 -1.3l-9.2 1.3l-30.7 -0.1l-54.6 0.2z"/><path data-id="17195" d="m317.8 250.4l-2.8 5.2l3.3 3.6l-2.6 11.3l4.5 3.3l0 3l-2.3 1.3l11.6 5.4l7 6.5l-0.9 15.5l-5.2 4.2l80.5 0.2l57.5 -0.3l0 -57.7l0.3 -28.6l0.2 -19.4l0.1 -9.5l-14.1 -0.1l-73 -0.3l-2.3 0.1l-7.4 0.2l-11.5 0.1l-22 0.4l-0.4 4.5l-0.1 3l-0.9 2.9l-2 4.8l-1.2 2.5l-0.7 3.4l-0.1 2.9l-0.5 1.3l-1.6 3l-0.6 2.8l-0.1 1.1l0.6 3.5l0.3 3.5l-0.4 1.7l-1.5 1.3l-7.2 2.6l-1.3 0.7l-5 3.4l-1.2 6.8l2.6 0z"/><path data-id="17197" d="m809.6 263.1l0.1 9.6l0.4 19.9l0.5 14.2l0.5 14.4l0.3 9.8l0.5 19.2l0.4 14.6l0.4 14.4l0.5 28.9l0.7 28.8l57.8 -1.3l-0.5 -28.8l13.9 -0.3l15.1 -0.4l28 -0.5l64.2 -0.7l0.1 -19.1l0.3 -8.3l-0.1 -18.2l0 -6l0 -5.5l-8 0l-4.8 0l-19 0.1l-11.3 0l-22.1 0l-0.7 -1.9l0 -7.8l0 -9.6l-0.5 -5.2l-0.1 -4.9l-4.8 0.1l-24.2 0.5l-0.3 -14.5l-0.4 -14.5l-28.8 0.8l-0.2 -9.5l-0.1 -5.1l-0.2 -6.6l-0.2 -8l-8.2 0.2l-13.4 0.4l-7.7 0.2l-12.9 0.3l-1.5 0l-13.8 0.2z"/><path data-id="17199" d="m587.8 1554.5l-0.4 43.1l28 1.2l50.9 -0.3l4.4 -1l27.5 0.4l0.4 -83.1l-110.6 0.4l-0.2 39.3z"/><path data-id="17201" d="m525.7 2.7l0.9 65.2l0.4 35.4l14.7 -0.2l40.9 -0.6l0.1 18.1l20.2 -0.1l37.9 -0.6l-0.1 -64.6l0 -8.7l0 -42.1l-13 -0.3l-4.7 0l-7.7 -0.1l-7 0l-6.9 -0.1l-4.5 -0.1l-2.1 0l-9.9 -0.1l-15.3 -0.2l-5.2 0l-3.9 -0.1l-7 -0.2l-17.6 -0.4l-1.1 -0.1l-8.9 -0.1z"/><path data-id="17203" d="m485.7 571.4l1.6 10.9l0.2 4.2l56 -0.2l0.7 43.6l14.3 -0.2l0.1 7.1l28.4 -0.7l5.3 -0.1l-0.1 -4.8l8.2 -0.3l-0.1 -4.2l14.2 -0.8l-0.2 -12l15.1 -0.3l-0.5 -28.7l14.3 -0.3l-0.5 -57.4l-29 0.7l-28 -0.4l-28.8 0.9l-48.9 1.1l-6.8 15.2l-6.3 8.5l-0.8 4.5l-8.5 13.8z"/></svg>
