<?xml version="1.0" encoding="UTF-8"?><!DOCTYPE svg PUBLIC '-//W3C//DTD SVG 1.1//EN' 'http://www.w3.org/Graphics/SVG/1.1/DTD/svg11.dtd'><svg viewBox="0 0 1000 1103.53" xmlns="http://www.w3.org/2000/svg"><path data-id="27001" d="m442.3 540l0.1 62.4l1.6 0.5l47.4 0.3l0.1 12.1l-0.3 5.2l19 -1l13.6 0.2l16.1 0.1l-0.1 -48.8l-0.1 -30l-0.9 -2.7l-0.3 -15.9l0.4 -16.7l0.7 -49.1l-17.5 0.2l-16.2 -0.6l-59.2 -0.4l-0.1 43l-0.2 40.1l-4.3 1z"/><path data-id="27003" d="m481.1 778.4l-0.2 9.8l3.4 3.7l8.1 2.6l0.9 2l5.4 4.1l1.9 0.6l2.7 3.4l1.2 0.9l2.1 1.4l1.6 2.7l0.4 1.3l0.2 1.2l1.3 1.2l0.8 1l-0.3 5.8l-0.6 2.4l0.4 1.3l-0.2 2.9l1.5 0l5.8 0l0 -2.6l0 -2.1l-0.1 -5.8l0 -2.5l0 -3.2l1.9 0l3.1 0l10.6 0l11.1 0l0.1 -11l0 -4.9l0 -15.8l0 -21.1l-9.5 -0.4l-6.3 0l-2.7 -0.1l-13.2 0.1l-31.6 -0.2l0 5.4l-0.2 15.8z"/><path data-id="27005" d="m134.8 433l0.1 32.9l2.5 0l-0.4 32.6l0.3 16.4l49 0.3l32.5 0.1l7 -0.3l6.9 0.3l35.1 -0.3l0.1 -16.4l0.1 -32.8l-1 0l0.1 -33l-49.3 0.2l-66.6 -0.1l-16.5 0.1z"/><path data-id="27007" d="m211.2 166.2l0.2 8.4l-0.2 25.3l1.1 0l-0.1 37.3l0.2 29.4l1.2 0l45.6 0.1l-2.3 2.8l-3.3 8.7l-0.6 3.2l1 7.7l3 4l6.8 2.1l-0.1 38.2l1.4 33.3l0 16.5l33 0.2l16.5 0.4l15.1 0l1.7 0l32.8 -0.3l0 -6.3l0.3 -27.1l-0.3 -1.4l-0.3 -48.3l0.1 -16.8l0 -16.1l-1 -67.2l-101.3 -0.4l-0.1 -33.8l-16.8 0l-31.5 0.3l-2 -0.1z"/><path data-id="27009" d="m372.4 682.1l3.3 4.3l1.9 -0.3l0.2 1.8l5.2 2.8l1.6 6.1l5.7 2.9l-1.2 2.1l2.8 6.9l2.7 -0.1l-2 1.9l-0.7 3.9l0 5.1l1.3 3.1l3.2 3.1l0.4 2.3l0.6 1.4l1.5 1.3l18.4 0l31.9 -0.1l-0.6 -48.5l-31.8 -0.3l-44.2 0.4z"/><path data-id="27011" d="m52.1 725.7l4.3 5.7l1.1 0.8l1.2 1.7l0.5 1l2 2.7l0.6 1.2l1 2.3l1 2.5l0.2 1.5l0.6 1.4l0.2 1.2l0.5 1.5l1.1 1.3l1.7 2.7l1.1 2l1.2 1.6l1.1 1.1l1 0.3l1.7 0.2l1.9 -0.2l2.1 0.2l1.7 0.2l2.1 0.9l2.1 1.4l1.8 1l1.2 0.7l2.1 0.9l1.9 0.4l1.2 0.5l1.8 1.4l2.5 1.9l0.8 2l0.4 1.2l1.2 2.4l0.2 1.1l0.9 1.3l0.5 1.2l0.5 1.1l0.1 3.1l0 2.8l4.6 0.4l1.4 1.8l4.5 -0.7l11.4 2.5l1.1 4.4l3.1 0.7l3.5 -0.3l6.6 5.1l4.5 -0.1l3.9 1.8l0.5 1.2l0 -11.6l-1.9 0l0 -27.8l0.2 -3.8l-16 -0.1l0 -31.8l-1.5 0l-75.2 -0.1z"/><path data-id="27013" d="m370 966.6l0.4 28l0 31.2l0 15.6l15.7 0l53.2 0l1.1 0l7.6 0l0 -62.4l0 -7.8l-15.5 0l-4.6 -0.1l-4.5 0.1l-6.8 0l-1.6 3.2l2.7 9.5l-5.2 1.3l-0.2 1.4l-2.1 -1.5l-1.5 0.8l-4.7 -2.5l-0.5 -1.6l-3.6 -2.2l-1.3 0.3l-8.1 -1.7l-0.5 -2.2l-4.3 -0.3l-0.5 -1.5l-4 -0.9l-0.5 -2l-3.5 -0.6l-2.5 -2.5l-4.5 -1.4z"/><path data-id="27015" d="m275.1 963.4l-0.2 15.6l1 0l0.1 15.6l31 0l15.7 -0.2l47.7 0l-0.4 -28l-5.1 -1.6l-0.4 -2.5l-2.2 -1.6l-2.6 -3.7l0 -3.1l-1.2 0.2l-3.9 -3.6l0 -1.3l-2.3 0.8l-1.8 -1.8l-3.1 0.1l-1 -2l-3.1 0.6l-2.2 -2.4l-3.3 0.5l-4.2 -3.1l-1.6 1l-1.9 -2.7l-1.6 1.3l0.6 -2.7l-1.9 0.1l1 -2.1l-4 -1l-3 -2.9l-2.3 1.2l-2.4 -1.5l0.8 -1l-3.8 -2.6l-0.6 -2.4l-6.6 -2.5l-0.1 39l-31.1 0.1z"/><path data-id="27017" d="m538.6 522.4l0.3 15.9l0.9 2.7l0.1 30l32.5 0.2l32.3 0.1l33.6 0.2l0 -2.8l0 -8.8l0 -3.2l0.1 -1.6l0 -18.9l0 -3.8l-0.1 -7.2l-1.1 -0.7l0 -4.2l-0.1 -14.1l-16.4 -0.1l-27.1 -0.4l-2.6 -0.5l-19.3 0.6l-32.6 0l-0.4 16.7z"/><path data-id="27019" d="m416.4 837.1l0.3 15.8l-0.1 31.7l15.7 0.1l0 7.9l15.6 0l0 6l1.6 1l1.1 -1.9l6.3 -4.4l3.9 -4.7l3.1 0.5l3.3 -2.7l-1 -1.3l-0.7 -4.3l1.2 -4l3.6 -2.9l-0.7 -1.1l7.6 -4l2.7 0.1l0 -9.9l0 -1.4l0 -4.1l-7.7 -0.4l-8.3 0l-2.4 -0.1l-2.5 0.1l-10.8 0l0.1 -15.2l-31.7 -0.7z"/><path data-id="27021" d="m316.4 498.7l0.1 16.5l0.1 16.1l0.9 44.3l3.5 2.8l3.1 -0.3l-0.4 2.3l1.3 3.2l8.8 0.5l3.9 4.1l2 -0.5l2.8 1l3.8 3.2l2.8 0.8l3.5 -1.9l3.1 -0.5l3 -2.9l4.4 -0.2l5.9 4.3l1.3 2.3l1.3 -0.5l2.2 2.5l-0.8 1.5l1.1 0.1l1.2 -0.3l0.7 -1.9l-0.5 -63.9l-1.9 0l0 -16.4l0.4 -16.4l8.1 0.1l65 0.4l0.1 -43l0.1 -34.6l-3.3 -1.8l-1.4 -2.4l1.8 -4.7l1.8 -0.4l0.8 -3.1l-1.3 -4.1l1.6 -1.1l-5.9 0.8l-3.6 -1.8l0.3 -1.3l-5.6 -0.4l-1.7 3.3l-4.1 -0.6l-5.2 -6.3l-1.7 0.1l-2.5 -2.2l-2.6 -0.6l-2 -5.1l0.2 -4.5l1.7 -1.2l-4.3 -5.6l-2.4 -5.8l-2 -1.8l-3 -0.5l-27 12.4l-6.5 -3.1l-2.4 0.7l-2.6 -3.2l0 6.3l-32.8 0.3l-0.2 16.6l1 34.2l0 31.3l0.6 16.4l-0.1 16.4l-16.4 0z"/><path data-id="27023" d="m155.2 805.4l3.1 5.2l1.2 0.3l3 4.5l12.5 12.7l1.8 0.7l1.1 3l4.6 3.7l0.2 4l2.4 2.9l4.4 1l3.4 -0.1l0.9 1.5l2.2 2.6l1.3 3.3l4.8 -0.1l-0.1 1.4l2.2 1.4l1.8 2.6l1.1 -0.6l2.4 3.4l-0.1 1.6l5 2.2l2.2 2.9l3.2 2.1l-1.2 1.4l3.3 0.3l2.7 2.7l-3.5 0.7l-0.5 2.2l2.3 1l1.3 -1.1l1.6 3.6l0.7 -8.2l0.2 -17.1l30.2 -0.1l0.2 -31.8l0.1 -15.9l-102 0z"/><path data-id="27025" d="m528.7 699l0 31.8l15.4 0.2l0.1 16l0.3 10.8l0 21.1l26.4 0.1l8.9 0.1l1.1 -0.8l1.2 -1.6l2.3 -2.2l0.7 -1l0.6 -1.3l0.1 -1l-0.7 -2.7l0.9 -1.8l2.2 -1.7l0.2 -1.4l1 -1.6l1.4 -1.3l1 -0.5l0.3 -1.7l0.2 -1.1l-0.4 -1.1l0.1 -1.9l0.3 -1.5l-0.8 -3.1l-1.1 -0.7l-2.1 -0.8l-1.2 -1.8l-1.1 -1.9l-0.9 -1.9l-1.2 -1.9l-1.6 -1.6l-0.4 -1.2l0 -1.3l0.4 -2l-2.7 -3l-1.5 -0.8l-1 -1.1l-1.1 -0.8l-1.6 0.1l-2.1 0.9l-1.4 0.3l-1.4 0l-1.4 -0.4l-1.2 -0.6l-3.5 -0.3l-1.3 -1.1l-0.5 -1l0.2 -2l-0.4 -1.6l0.2 -1.2l0.3 -1l-0.6 -1.7l-0.2 -1l0.2 -1.5l-0.1 -1l0.3 -1.2l0.2 -1.6l0.7 -1.9l0.3 -1.8l0.2 -2.5l0.7 -1.4l0.2 -2.9l0 -1l2.1 -1.1l0.6 -1l1 -0.3l-38.8 -0.1z"/><path data-id="27027" d="m52.2 460l0.9 1.3l0.4 1.1l0.3 1.1l0.3 2.4l-0.3 1.2l1.6 1.4l1.1 -0.4l0.2 1.2l0.1 1.2l-0.1 1.1l1 0.6l0.2 1.3l-0.2 1.2l0.9 1.1l1.4 -0.9l1.5 -0.8l0.2 1.1l0.1 1.1l0.3 1.2l-0.6 1.1l-0.2 1.4l-1 0.3l-0.4 1.5l0.4 2.1l0.7 1l-1 0.1l-0.5 1.2l-0.2 1l-0.1 1.3l-0.1 1.5l0.2 1.1l0 1l-0.5 1l-0.7 1.1l-1 1.8l-0.2 1.3l-0.3 1l0.5 3.6l0.7 1.1l-0.2 1l0.4 1.3l0.7 1.1l-0.1 1.1l0.1 1.6l-0.2 1.3l0.5 1l-0.4 1.5l0.7 1l-0.7 1.3l-0.2 1.5l-0.6 1.7l0.5 1.5l0 1.5l-0.2 1.2l-0.6 1.4l-0.1 1.1l-0.7 2.1l1.1 1.7l0.2 1.4l-0.2 1.6l1.6 0.5l64.3 -0.1l14 0l-0.3 -16.4l-0.3 -16.4l0.4 -32.6l-2.5 0l-0.1 -32.9l-82.1 0.1l-0.2 1.3l0.6 1.3l0 1.3l0.3 1.1l0.5 1.5l-0.2 1.2l0.4 1.5l0.2 1.5l-0.1 1.1l-0.1 1l-0.3 1.2l-0.2 1.1l0.3 1.2l0 1.6l0.5 1.7l-0.3 1.1l0.2 1.2l-0.3 1.2l-0.7 1.2l-0.9 1.3l-0.1 1.2z"/><path data-id="27029" d="m213.7 266.7l0.1 16.7l0.4 50l3.3 0l-0.1 33.2l0.4 66.4l49.3 -0.2l-0.1 -32.9l-1.7 0l-0.1 -16.6l0 -16.5l-1.4 -33.3l0.1 -38.2l-6.8 -2.1l-3 -4l-1 -7.7l0.6 -3.2l3.3 -8.7l2.3 -2.8l-45.6 -0.1z"/><path data-id="27031" d="m801 234.2l0 24l0.7 31.2l0.7 2.8l-0.3 81.1l10.8 -9.5l1.4 -0.9l1.1 -0.1l1.3 -1.2l0.3 -1.3l5.1 -4.6l17.1 -12.9l6.4 -3.7l5 -2.4l8.1 -4.7l4.3 -1.8l1.8 -2.5l10.2 -3.5l2.1 -1l0.5 -1l2.1 -0.7l3.6 -0.6l1 -0.5l6.9 -1l1.2 -1.5l1.2 -0.6l1 0l1.3 -0.5l6.1 -2.6l2.5 -0.7l5.4 -0.4l1.1 -1.6l2.3 -1.2l3.7 -0.6l2 0.1l3.7 -1.5l1.6 0l0.4 -1.4l3.8 -1.2l3.7 -0.7l5.1 -1.8l5.2 -3.1l0.4 -2.1l7.6 -3.1l2.3 0l7.8 -3.3l4.5 -3l2.7 -2.2l1 -1.4l4.1 -3.1l4.8 -1.9l2.7 -0.5l0 -1.2l0 -1.6l0.4 -1.1l0.7 -1.3l2.6 -0.1l2 1.9l1 0.9l2.1 -0.2l2.2 -1.5l0.3 -1.1l0.2 -1.3l1.3 -1.1l6 -1.8l0.8 -2.4l-9.7 2.2l-2.1 1.3l-1 -1.2l-1.6 -0.6l-1 -0.8l0.1 -1.4l-1.1 1.1l-2.5 0.3l0 1l-1 -0.4l-1.1 0.2l-0.5 -1.1l-1 0.4l-1.1 -0.7l-1.5 0.4l-2.1 0.7l-1.5 -0.7l-0.5 -1.2l-1.1 0.6l0.3 -1.2l-1.1 0.2l-1 -0.3l-1.3 -0.5l-1.9 0.1l-1.3 0.2l-1.1 0.7l-1.2 -0.1l-1.6 0.8l-1.9 -0.2l-1.4 2.9l-1.1 -0.3l-0.6 1l-0.7 1l-2.7 0.5l-1.7 0.7l-2.2 -0.2l-1 -0.9l-1.3 -0.5l-0.8 -1l-1.2 -1.6l-0.4 -1.4l-2.1 -0.1l-1.6 0.2l-1.3 -1.1l-1.4 -1.1l-1.1 -0.4l-0.5 -1.3l0.1 -1.2l0.3 -1.4l-0.5 -1.6l-1.4 -2.1l-1.3 -0.7l-0.6 -2.4l-2.9 -1.3l-1.5 -1l-2.1 -0.9l-2.3 -0.7l-3.2 0.1l-1 -0.6l-1.2 -0.8l-1.5 -0.2l-2.6 0.6l-1.6 -0.5l-1.6 0.9l-2.9 0.3l-1.7 -0.3l-1.2 0.2l-2.6 0.9l-1.4 -0.2l-1.2 0l-1.9 0.8l-1.1 -0.7l-1 -0.5l-1.5 0.3l-1.7 0.3l-1.1 1.2l-1.1 0.4l-2.7 -0.1l-1.9 0.4l-0.5 -1l-2.2 -1.4l-4.5 1.2l-1.1 -1l-2 -0.8l-1 0.2l-1.2 0.7l-1.3 0.5l-2 -0.1l-1.5 0.1l-5.1 0.7l-1 -0.5l-0.7 -1.6l1.8 -2l-1.3 -1.1l-1.3 0.3l-1.9 0.2l-2 0.7l-1.3 0.7l-1.3 0.1l-1.9 1.6l-5.8 0.6l-2.2 0.9l-4.9 0.3l-1.3 0.7l-1.3 -1.4l-0.8 -2.4l-0.2 -1.2l-0.9 -1.1l-1 -0.8l-0.6 -1.2l-1.1 -0.6l1.2 -2l1 -0.6l0.1 -1.5l0.2 -1l-1.2 0.1l-1.4 0.3l-1 -3.5l-1.7 -0.4l-0.4 -1l-0.7 1.5l-1.3 0.1l0.3 -2.3l-0.1 -2.6l-0.3 -4.5l0.1 -1.7l-0.8 -1.7l-3 1l-1 0.1l-1.3 -1.5l-2.8 1.6l-1.1 1.3l-1.3 0.1l-6.7 2l-3.5 3.3l-1.1 0.9l-1.3 1.1l-1.2 0.8z"/><path data-id="27033" d="m229.2 978.9l0 62.5l1.3 0l45.4 0l31.2 0l-0.1 -46.6l-31 0l-0.1 -15.6l-1 0l-1.6 0l-14 0l-30 -0.1z"/><path data-id="27035" d="m367.1 606.5l-0.2 3.1l3.8 5.9l-1.1 4.3l24 0l48.8 0.1l-0.1 -16.1l1.9 0l-1.8 -1.4l-0.1 -62.4l4.3 -1l0.2 -40.1l-65 -0.4l-8.1 -0.1l-0.4 16.4l0 16.4l1.9 0l0.5 63.9l-0.7 1.9l-1.2 0.3l0.2 1.4l-2 2.8l-4.3 3.2l-0.7 1.8z"/><path data-id="27037" d="m504.5 871.2l0 2.3l0.1 5.8l0 5.2l1.3 0l0 6.6l0 9.2l5.2 0l0 14.4l-0.4 1.3l0 13l31.3 0l0 -7.9l7 -0.6l3.9 2.1l4.6 -1.9l0 -4.6l16.3 0.1l0 -15.7l7.8 0l0 -15.3l-2.4 -1.5l-2.1 -1.3l-2.8 -1.4l-1.9 -1.4l-1.3 -0.4l-5.5 -0.1l-3.5 -4.8l-5.9 -1.3l-6 1.7l-4 0.1l-1.3 -0.7l-0.7 -2l2.2 -5.1l-0.7 -5.7l0 -3.2l-0.8 -3.8l-0.5 -1.1l-2.2 -1.7l-1.5 -3.2l-10.3 -0.4l-1.3 2.9l-2 2l-1.8 0.8l-1.3 0l0 1.5l-2.5 3.3l-1.7 4.1l-5.2 5.1l-10 3.7z"/><path data-id="27039" d="m541.1 1039.5l0 1.7l15 0l16.9 0l14.2 0l1.4 0l0 -15.5l0 -15.5l-0.1 -31.2l-15.5 -0.2l-16.3 -0.1l-15 0l-0.5 46.9l0 10.3l0 3.6z"/><path data-id="27041" d="m189.6 629.1l0 32.3l1.4 0l0 32.2l32 0.2l13 -0.2l34.8 0.2l0 -2.7l-0.1 -13.4l-0.8 -16.1l0 -32.3l-48.4 -0.2l-32.1 0.1z"/><path data-id="27043" d="m386.1 1041.3l-0.1 62l17.8 0l2 0l16 0.1l22.6 0l3.5 0l6.7 0l1 0l1.2 0l6.6 0l0 -62.2l-15.4 0l-7.6 0l-1.1 0l-53.2 0z"/><path data-id="27045" d="m618.1 1043.8l0 59.5l5.2 0l2.6 0l2.5 0l11.6 0l10.3 0l2.6 0l9.7 0l1.8 0l1.3 0l16.8 0l1 0l11.7 0l3.4 0l2.3 0l3.6 0l2.3 0l3 0l1 0l0 -61.7l-45 0l-47.7 -0.2l0 2.5z"/><path data-id="27047" d="m463.3 1041.3l0 62.2l4.1 0l5.2 0l2.3 0l3.4 0l4.5 0l1.2 0l2 0l5.7 0l3.8 0l16.4 0l5.5 0l7.7 0l15.5 0l0 -15.5l0 -31.1l0 -15.6l-46.1 0.1l-31.2 0z"/><path data-id="27049" d="m541.8 947.3l-0.1 31.4l15 0l16.3 0.1l15.5 0.2l16.5 0.1l0 -31.3l15.5 0l0 -15.7l24.3 0.2l-0.9 -1l-1.7 -1l-1.8 -1.5l-1.8 -2.1l-0.8 -1.3l-0.7 -1.4l0 -2.9l-0.8 -1.4l-0.8 -2.5l-0.7 -1.2l-1.2 -1.1l-2.4 -1.2l-1.8 -0.3l-3.6 0.3l-1.3 -0.1l-2 -0.4l-1.4 -0.8l-1 -0.1l-1 0.5l-1.9 0.2l-1.9 -0.6l-1.4 -0.6l-1.2 0.3l-2.3 -0.8l-1.2 -0.9l-1.1 0.3l-1.7 1.1l-1 -0.1l-0.4 -1l0.2 -1.4l-1.4 -2.5l-0.8 -1.2l-1.3 -0.6l-1 1l-0.7 -1.1l-1.4 -1.1l-1.7 0l-1 -1.2l0.1 -1l0.4 -1l-0.3 -1.8l-1.3 -1.8l-3.1 -1.6l-1.2 -1l-2.8 -3.4l-1.3 -1.3l-2.2 -2.1l-2.4 -2.3l0 15.3l-7.8 0l0 15.7l-16.3 -0.1l0 4.6l-4.6 1.9l-3.9 -2.1l-7 0.6l0 7.9l-0.1 18.2z"/><path data-id="27051" d="m125.6 645.1l0 16.1l1.6 0l0 32.4l63.9 0l0 -32.2l-1.4 0l0 -32.3l-64 -0.2l-0.1 16.2z"/><path data-id="27053" d="m448.1 822.7l-0.1 14.5l0 15.8l10.8 0l2.5 -0.1l2.4 0.1l8.3 0l7.4 -0.1l0.3 4.6l0 1.4l0 9.9l8.1 0.2l2.6 -1.8l5.1 2.6l2.3 2.3l3.3 0l2.5 -0.2l10.9 -4.6l5.2 -5.1l1.7 -4.1l2.5 -3.3l0 -1.5l0.2 -1l-2.2 -2.1l-0.9 -5.2l-0.2 -2.6l-0.7 -7.3l0 -3.3l-0.1 -5.4l-2.4 0l-5.8 0l-1.5 0l0.2 -2.9l-0.4 -1.3l0.6 -2.4l0.3 -5.8l-0.8 -1l-1.3 -1.2l-0.2 -1.2l-0.4 -1.3l-1.6 -2.7l-2.1 -1.4l-1.2 -0.9l-2.7 -3.4l-1.9 -0.6l-5.4 -4.1l-0.9 -2l-8.1 -2.6l-3.4 -3.7l-1.2 -0.2l-1.6 2.9l-3.5 0.7l-4.1 2.6l-6.1 0.7l-2.4 2.8l2.6 3.7l0 1.6l-4.9 2.7l-3.2 2.7l-3.7 7.1l0.1 1.3l-1.2 1.3l-3.1 0.2l-0.7 4.5z"/><path data-id="27055" d="m710.8 1041.5l0 61.1l3.8 0.6l3.9 0l1.6 0l1.7 0l1.2 0l1.2 0l1 0l3.4 0l5.2 0l1.3 0l1 0l5.5 0l3.4 0l2.5 0l6.2 -0.1l2.6 0.1l1 -0.1l13.9 0l1.9 0.1l3.7 0l0 -1.3l0 -1.1l-1.6 -1.3l-0.9 -2l-0.8 -1.3l-0.1 -1.5l0.4 -1.1l0.8 -1.2l0.4 -2.4l0 -1.1l-0.9 -1.5l-1.8 -1.9l-1.1 -1.1l-0.9 -1.7l0 -2.1l0.7 -1.9l-0.1 -1.7l-0.9 -1l-0.3 -2.4l0.1 -1.8l0.6 -3.4l-0.1 -2.5l0.9 -1.7l0.4 -1.1l0.3 -1.4l-0.1 -2l1.5 -5l-1.2 -1.9l-1.2 -1.6l-0.3 -1.5l-1 -2.4l-0.4 -2l-0.3 -2.3l-0.9 -1.7l-57.6 0z"/><path data-id="27057" d="m265.3 383.2l0.1 16.6l1.7 0l0.1 32.9l-0.1 33l1 0l-0.1 32.8l48.5 0.1l16.4 0l0.1 -16.4l0.1 -16.3l-0.7 -31.4l-1 -34.2l0.2 -16.6l-1.7 0l-15.1 0l-16.5 -0.4l-33 -0.2z"/><path data-id="27059" d="m480.7 698.3l0.4 32.4l0 16l0.1 10.5l31.6 0.2l13.2 -0.1l2.7 0.1l6.3 0l9.5 0.4l-0.3 -10.8l-0.1 -16l-15.4 -0.2l0 -31.8l-31.9 0l-16.1 -0.7z"/><path data-id="27061" d="m364 300.3l0.3 48.3l0.3 1.4l-0.3 27.1l2.6 3.2l2.4 -0.7l6.5 3.1l27 -12.4l3 0.5l2 1.8l2.4 5.8l4.3 5.6l-1.7 1.2l-0.2 4.5l2 5.1l2.6 0.6l2.5 2.2l1.7 -0.1l5.2 6.3l4.1 0.6l1.7 -3.3l5.6 0.4l-0.3 1.3l3.6 1.8l5.9 -0.8l-1.6 1.1l1.3 4.1l-0.8 3.1l-1.8 0.4l-1.3 4.2l0.9 2.9l3.3 1.8l-0.1 34.6l59.2 0.4l16.2 0.6l17.5 -0.2l0 -15.7l-1.3 0l0.2 -49.8l-0.6 -4.3l0.1 -12.2l0.5 -8l0.5 -42.2l-2.7 0l-0.2 -16.5l0.3 -16.4l-89.6 -1.4l-0.1 10.1l-82.9 0.1z"/><path data-id="27063" d="m230.5 1041.3l-0.2 62l2.6 0.1l6 0l1.6 0l16.1 0l4.7 0l4.5 0l1.6 0l1.7 0.1l4.2 -0.1l1 0l7.8 0l2.6 0l2.5 0l2.6 0.1l2.6 0l2.6 0l2.6 0l2.5 0l3.5 0l1.7 0l1.8 0l0.7 -62l-31.1 0l-46.1 0z"/><path data-id="27065" d="m480.1 652.5l0.6 45.9l16.1 0.7l31.9 0l-0.1 -46.4l11.3 0l0.2 -32.9l-16.1 -0.1l-13.6 -0.2l-19 1l-0.1 32.1l-11 -0.1z"/><path data-id="27067" d="m256 757.6l0 31.9l1.1 0l0 15.8l-0.1 15.9l-0.2 31.8l46.9 -0.2l16.3 0l0.1 -63.4l-0.7 -16l0 -15.9l-47.6 0.1l-15.9 0z"/><path data-id="27069" d="m0 82l1 1.2l-0.1 2.3l0.7 1.4l0.1 1l1 1.4l-0.1 1.3l0.1 1l0.9 1.1l-0.2 1.1l0.7 1l1.1 0.5l0.1 1.2l0.1 1.4l0 1.3l1 0.9l0.5 1.5l0.9 1.1l0.5 1.6l-0.2 1l0.4 1l0 1l-0.9 1.6l0.1 2l0.8 1.2l1.1 0.5l0 1.2l0.3 1.7l0.7 1.4l0.5 1.1l-0.1 1l1 2l-0.5 1.7l1 1.2l0.5 2.5l0.7 1.6l1.2 1.7l0.7 1.5l0.6 1.6l1 2.6l1.3 0.8l-0.2 1.1l0 1.9l-0.3 1.3l0.3 1.3l-0.8 1.2l-0.2 1l-0.2 1.7l0.2 1.2l-1.5 0.3l-0.5 1.1l-1 1.2l0 1l-0.8 1.3l-0.4 1.4l-0.4 1.1l0.1 2.1l-1 0.9l0.1 1.5l-1.1 1.1l-0.2 1.2l0.8 1.2l-1.1 0.9l-0.3 1l100 -0.1l0 -33.7l-2.3 0l-0.1 -55.5l-56.4 0l-49.8 -0.1l-0.2 1.4l-0.9 1.5l-0.1 2.1l-0.2 1.3z"/><path data-id="27071" d="m362.4 134.5l0.2 65l1.4 67.9l0 16.1l-0.1 16.8l82.9 -0.1l0.1 -10.1l89.6 1.4l-0.9 -16.7l-0.1 -17.2l-1 0l0.2 -35.2l0.9 -73.5l-7 0.5l-4.6 0.3l-0.7 -1l-3 -2.8l-6.1 -0.1l-12 3.2l-0.7 2.1l-1.1 0.4l-0.6 1.1l-2.2 0.6l-1.4 0.4l-1.1 -0.8l-1.3 0.4l-1.5 0.8l-1.2 1.2l-3.9 0.6l0.4 3.5l0.6 1.3l0 1l-0.2 1.3l-0.9 1.7l-2.1 0.7l-2.4 0.4l-2 1.2l-2.1 0.5l-1.1 0.5l-2.8 0.2l-2.1 0.5l-1.2 -0.4l-1.3 0.3l-1 0.9l-1.6 -0.2l-1 -1.4l-1.1 0.7l-0.4 1l-0.9 1l-1.5 0.3l-2.3 -0.1l-2.1 0.3l-1.6 -0.5l-2.7 -0.1l-1.1 -0.1l-1.3 0.1l-1.4 0.4l-1.4 -0.1l-1.1 0.1l-1.7 0.1l-1.3 -0.1l-2.3 -1.7l-0.8 -1l0.1 -1.1l0.8 -1.3l-0.1 -1.3l0.4 -1.3l0.3 -1.1l0.2 -1.3l-0.2 -1.8l-0.7 -1.4l-0.8 -2l-0.2 -1.6l-0.3 -1l-1.5 -3l-1.2 -0.9l-1 -0.1l-4.6 -0.1l-3.2 -0.8l-1.9 0.7l-2.2 -0.2l-1.3 -0.3l-1.2 -0.6l-1.7 -0.1l-1.7 -0.4l-1.4 -0.6l-3.7 0.4l-1.8 -0.5l-1.2 -0.1l-1 0.2l-1.4 -0.6l-2.6 0.4l-1.1 -0.4l-1.3 0.3l-2.1 0l-1.6 -0.2l-2.4 0l-1.3 -0.5l-2.7 -0.4l-1.4 -0.1l-1.9 0.3l-1.3 0l-1.2 -0.5l-1.4 -0.2l-1.2 -1.6l0.5 -3.3l-0.1 -1l-0.9 -1.6l-0.8 -1.4l-1.3 -0.2l-1 -1.1l-1.2 -0.5l-2.3 -0.5l-2.6 1.1l-1.8 0.2l-1.3 -0.1l-2 -0.5l-1.2 -0.8l-1.4 -0.3l-2.3 0.3l-1.3 -0.1l-1.1 1.2z"/><path data-id="27073" d="m101.5 784l0.1 11l0 1.1l0 4.5l0 10l0.1 5.3l0 7.9l0 1.7l0 11.8l0 2.7l0 9.5l0 3.7l0.1 15.4l77.7 0l0.2 -15.7l14.2 0.1l0.1 -8.1l-0.9 -1.5l-3.4 0.1l-4.4 -1l-2.4 -2.9l-0.2 -4l-4.6 -3.7l-1.1 -3l-1.8 -0.7l-12.5 -12.7l-3 -4.5l-1.2 -0.3l-3.1 -5.2l-2.5 -0.8l-6.1 -3.7l-0.5 -1.2l-3.9 -1.8l-4.5 0.1l-6.6 -5.1l-3.5 0.3l-3.1 -0.7l-1.1 -4.4l-11.4 -2.5l-4.5 0.7l-1.4 -1.8l-4.6 -0.4z"/><path data-id="27075" d="m702.1 231.4l1.3 126.2l-0.3 32.8l-0.3 47.5l0.1 2.6l-0.3 6.2l-0.1 10.1l0 16.2l1.7 -1.2l0.4 -1.1l5.2 -5.9l4.2 -4.2l4.9 -1.7l2.8 -2.3l0.7 -2l1.5 -2.5l1.8 -1.7l1.1 -0.8l1.7 -1l2.3 -4l7.1 -3.5l1.5 -2l1.2 -0.8l2.7 -0.6l2.6 -2.6l0.6 -1.1l4.3 -5.1l2.6 -2.2l1.5 -0.6l1.7 -2l2.1 -1.7l0.5 -1.1l3.6 -5l4.8 -5.1l2.3 -2.1l1 -0.4l1.6 -2.1l1.5 -2.8l4.2 -4.6l2.3 -2.1l2.4 -5l1.7 -2.4l1.2 -0.5l2 -2.3l0.4 -1.2l2.8 -2.3l1.1 -0.4l2.6 -2.8l4.1 -5.3l1.6 -0.3l1.3 -1.3l0.3 -81.1l-0.7 -2.8l-0.7 -31.2l0 -24l-1.5 -0.1l-1.7 0.3l-1.1 1.3l-1.3 0.4l-1.7 0.4l-1.2 1.2l-1.4 0.5l-1.2 1.3l-2.7 1.2l0.1 1.3l-2.4 1.7l-2.6 2.8l-1.8 0.2l-3.1 4.2l-1.5 0.6l-1.1 0.7l-2 2.3l-2.1 1l-1.2 0l-1.8 0.9l-1.6 0.2l-1.2 0l-1.7 0.1l-1 0.7l-2.2 -0.5l-1.9 0.9l-1.8 0.3l-1.5 1.6l-2.9 0.7l-2 0.9l-1 -0.1l-1.3 -2.6l-0.4 -1.1l-2 0.4l-3 -0.3l-7 2.9l-3.2 1.8l-1.1 -1l0.3 -1.6l-0.3 -1.7l0.7 -5.2l2.2 -1.9l-0.8 -1l-2.1 0.3l-1.7 0.8l-3.4 0.1l-3.2 1l-1.7 -2.4l-1.1 -0.4l-1.2 0.6l-1.2 0l-0.4 -1.9l-1.1 -0.3l-1.5 1l-1.1 -0.2l0.4 -1.6l1 -1.7l0.2 -1.9l-1.2 -2.1l0.5 -1.4l0 -2.1l-1.6 -0.2l-0.6 -1.3l1.3 -1.8l0.2 -1.2l-0.6 -1l-3.1 -1l-0.8 1l-1.1 -0.6l-1.1 -0.1l-2.3 0.2l-1 0.8l-0.4 -1.2z"/><path data-id="27077" d="m244.7 132.2l0 33.7l16.8 0l0.1 33.8l100.9 -0.3l-0.2 -65l-1.1 1.2l-1 0.4l-2.3 -0.5l-1.1 -0.3l-1.8 -0.2l-1.8 0l-1.1 -0.4l-2 -0.2l-1.1 0.1l-1.6 -2.1l-1.4 -0.8l-1.6 0.1l-2.4 -0.4l-1.1 -1.3l-1.9 -1.5l-1.1 -1.1l-2.8 -0.7l-0.6 -1.5l-0.9 -1.4l-1.1 -0.9l-0.9 -1.1l-2.7 -1.9l-0.8 -2.6l-0.2 -2l0.1 -1.8l-1.2 -3l0.3 -1.5l2.1 -1.7l-1 -2.6l0.4 -2l-0.3 -1.1l1.1 -0.7l0.1 -2.2l-4.6 -22.9l-4 -19.6l-3 -4.1l-3.1 -15.2l0 -3.3l-3.6 -15.8l0.1 -2.9l1 -2.4l-2.7 -0.6l-2.2 0l-3.1 -1.8l-3.7 -3l-5.8 -4l-2.9 0.2l-1.9 -0.2l-3.3 2.5l-4.5 0.7l-1.2 0l-4.1 -1.6l-1.7 -0.5l-1.7 -0.6l-1.4 -0.6l-2 -1.8l-1.1 -0.5l-0.5 2.3l0 3l0 2.1l0 6.9l0 11.7l0 12.9l-0.1 36.6l-21.4 0l-0.9 3.3l1.2 5.8l-0.6 3.3l2.8 6.2l6 3.9l2.5 0.6l12.6 -2.6l6 -5.1l0.2 40.7l-32.6 0z"/><path data-id="27079" d="m414.7 967.8l1.7 3.3l6.8 0l4.5 -0.1l4.6 0.1l15.5 0l0 7.8l31.1 0l0.2 -15.6l0.1 -47.1l-3.6 0l-5.9 0l-6.3 0l-34 0.1l3.2 4.5l-4.1 10l-1.6 1.2l0.2 2l-1.7 6l-1.3 1l-0.6 5.9l-0.9 1.6l3.8 3.8l-3.5 6.6l-4 2.1l-0.9 3l-3.5 3.8z"/><path data-id="27081" d="m101.5 978.7l48.3 0l-0.1 -31.5l-0.1 -31l-1.7 -0.1l0 -15.7l-46.3 -0.2l0 15.8l0 3.1l0 1.8l0 1.8l0 6.1l0.1 2.3l0 3.4l0 9.4l0 1.1l0 4.2l0 1l0 1.7l0 3.2l0 2.7l0 2.6l0 2.3l0 2.4l0 3l0 10.5z"/><path data-id="27083" d="m147.9 900.4l0 15.7l1.7 0.1l0.1 31l0.1 31.5l1.9 0l60.7 0.2l0 -15.7l-0.1 -15.8l-0.1 -31.1l-1.2 -15.9l-63.1 -0.1z"/><path data-id="27085" d="m353.2 836.9l-0.1 15.9l0.6 15.9l0 16l0 15.8l31.4 -0.1l0.1 -15.9l31.4 0.1l0.1 -31.7l-0.3 -15.8l-31.5 -0.1l-31.7 0z"/><path data-id="27087" d="m151.2 366.7l0.1 66.1l66.6 0.1l0 -66.4l-66.6 0.1z"/><path data-id="27089" d="m9.8 165.2l1.1 0.9l0.6 1.3l-0.5 1.6l0.6 4l1.1 1.4l0.1 2.1l-0.7 1.4l0.1 1l0.1 1.5l1.2 1l0.1 1.7l-0.5 1.5l0.3 1.5l-0.6 1.1l0.5 1.2l-1 1l1 1.5l0.1 1l-0.7 1.5l-0.8 1l0.1 1l0.7 1.2l-0.3 1.5l-0.7 1.1l-0.1 1.7l0.5 1l0.7 1.4l0.9 1.3l0 1.1l-0.4 1.3l0.8 1.1l-0.7 1.5l0.7 1l0.1 1.3l-0.4 1.1l-0.1 1l1.4 1.8l-0.9 2.3l-1 0.7l0.6 1.3l-0.1 1.3l-1.4 1.6l0.3 1.4l-0.6 1.3l0.6 1.2l-2.77556e-17 1.1l-0.2 1.1l0.4 1.5l-0.5 1l0.1 1l-0.4 1l-0.6 1.3l0.5 1.4l-0.5 1l83.1 0l30.8 -0.2l2.9 0.4l8.5 -0.2l8.4 0.4l16.4 0l50.1 -0.2l0.1 -37.3l-1.1 0l0.2 -25.3l-0.2 -8.4l-101.4 -1.1l-100 0.1z"/><path data-id="27091" d="m307.7 1041.3l0 62l30.8 0l6.5 0l12.3 0l3 -0.1l7.2 0l1.7 0l16.7 0l0.1 -62l-15.7 0l-62.6 0z"/><path data-id="27093" d="m319.5 773.5l0.7 16l-0.1 63.4l33 0l0.1 -15.9l31.7 0l0 -15.9l0 -15.8l-0.1 -15.9l-0.5 -8.2l-15.8 0.2l0 -8.1l-19.6 0.1l-2.8 0l-10.7 0.1l-15.9 -0.1z"/><path data-id="27095" d="m442.4 603.8l0.1 16.1l0 32.3l5.3 0.1l0.1 13.5l0.6 16.2l0.6 48.5l32.1 0.2l-0.4 -32.4l-0.6 -45.9l11 0.1l0.1 -32.1l0.3 -5.2l-0.1 -12.1l-47.2 0.6l-1.9 0z"/><path data-id="27097" d="m333.6 584.1l0.7 12.4l0 48.8l-0.1 16.3l0.6 29.4l16.9 -0.1l31.2 -0.2l-5.2 -2.8l-0.2 -1.8l-1.9 0.3l-3.3 -4.3l44.2 -0.4l31.8 0.3l-0.6 -16.2l-0.1 -13.5l-5.3 -0.1l0 -32.3l-48.8 -0.1l-24 0l1.1 -4.3l-3.8 -5.9l0.2 -3.1l0.7 -1.8l4.3 -3.2l2 -2.8l-0.2 -1.4l-1.1 -0.1l0.8 -1.5l-2.2 -2.5l-1.3 0.5l-1.3 -2.3l-5.9 -4.3l-4.4 0.2l-3 2.9l-3.1 0.5l-3.5 1.9l-2.8 -0.8l-3.8 -3.2l-2.8 -1l-2 0.5l-3.9 -4.1z"/><path data-id="27099" d="m540.6 1041.3l0 15.6l0 31.1l0 15.5l3.2 0l2.1 0l17.8 0l10.3 0l4.9 -0.1l5.8 0l1.9 0l2.6 0l2.5 0l12.9 0l11.4 0l2 0l0 -59.5l-31 0l0 -2.6l-14.2 0l-16.9 0l-15 0z"/><path data-id="27101" d="m151.7 978.8l-0.1 62.3l1.6 0l31 0.1l45.1 0.1l0 -62.5l-16.9 0.1l-60.7 -0.2z"/><path data-id="27103" d="m317.2 931.9l-0.8 1l2.4 1.5l2.3 -1.2l3 2.9l4 1l-1 2.1l1.9 -0.1l-0.6 2.7l1.6 -1.3l1.9 2.7l1.6 -1l4.2 3.1l3.3 -0.5l2.2 2.4l3.1 -0.6l1 2l3.1 -0.1l1.8 1.8l2.3 -0.8l0 1.3l3.9 3.6l1.2 -0.2l0 3.1l2.6 3.7l2.2 1.6l0.4 2.5l5.1 1.6l4.5 1.4l2.5 2.5l3.5 0.6l0.5 2l4 0.9l0.5 1.5l4.3 0.3l0.5 2.2l8.1 1.7l1.3 -0.3l3.6 2.2l0.5 1.6l4.7 2.5l1.5 -0.8l2.1 1.5l0.2 -1.4l5.2 -1.3l-2.7 -9.5l1.6 -3.2l-1.7 -3.3l3.5 -3.8l0.9 -3l4 -2.1l3.5 -6.6l-3.8 -3.8l0.9 -1.6l0.6 -5.9l1.3 -1l1.7 -6l-0.2 -2l-89.6 0.1l-20.2 -0.1z"/><path data-id="27105" d="m153.1 1056.9l-0.1 46.5l24.8 0l3.4 0l1.7 0l10.3 0l29.3 0l3.6 -0.1l1.5 0l2.6 0l0.2 -62l-1.3 0l-45.1 -0.1l-31 -0.1l0 15.7z"/><path data-id="27107" d="m48.4 381.7l0.3 1.1l0.5 1l1.3 1.3l0.3 1.3l0.6 1.2l-0.1 1.1l-0.8 1.4l-0.7 1l5.55112e-17 1.1l0.4 1.2l0.5 1.8l0.5 1.6l0.3 1.6l0.4 1.2l-0.1 1l-0.8 1.6l1.3 1l-1.4 2.7l0.3 1.7l0.2 1.3l-0.3 1.2l0.1 1.2l0.2 1.1l0.7 1.4l-0.2 1.1l0.5 1.2l-0.5 1.2l0.2 1l-0.1 1l0.3 1.5l-0.2 1.1l-0.3 1.2l0.2 1.2l0.5 1.3l0.7 1.1l-0.3 1l0.6 1l0.1 1l0.1 1.1l-0.5 1.3l81.7 0.6l16.5 -0.1l-0.1 -66.1l-101.2 0.1l-0.7 1l0.1 1l-0.4 1.1l0.3 1.4l-0.5 1.7l0.3 1.3l-0.1 1.2l-0.1 1.6l0.3 1l-0.1 1.3l-0.3 1.1l-0.3 1z"/><path data-id="27109" d="m587.1 1041.2l0 2.6l31 0l0 -2.5l47.7 0.2l0.1 -15.6l-0.1 -31.1l-30.9 -0.1l0 -15.5l-15.4 -0.1l-14.5 -0.1l-16.5 -0.1l0.1 31.2l0 15.5l0 15.5l-1.4 0z"/><path data-id="27111" d="m123.6 531.2l0.1 65.3l2 0l-0.1 32.4l64 0.2l32.1 -0.1l48.4 0.2l0 -32.7l-1.1 0l-0.2 -16.2l0 -48.9l-1 0l0 -16.5l-35.1 0.3l-6.9 -0.3l-7 0.3l-32.5 -0.1l-49 -0.3l0.3 16.4l-14 0z"/><path data-id="27113" d="m95.2 249.6l0 16.8l2.4 0l0 11.2l99.7 -0.1l0 5.5l16.4 0.4l-0.1 -16.7l-1.2 0l-0.2 -29.4l-50.1 0.2l-16.4 0l-8.4 -0.4l-8.5 0.2l-2.9 -0.4l-30.8 0.2l0 12.6z"/><path data-id="27115" d="m528.6 652.6l0.1 46.4l38.8 0.1l1.4 -0.6l1.8 -1.6l1.5 -1l0.9 -1.1l1.8 -1.9l0.4 -1.6l0.2 -1.8l0.4 -1.4l0.6 -1l1.4 -1.1l0.6 -1l-0.3 -1.7l-0.6 -1.8l0.4 -1.6l1.6 -1.3l1.2 -1l0.5 -2.3l0.3 -1.7l1.7 -2.9l1.1 -1.5l1.2 -0.8l2.5 -1.5l1 -0.7l0.8 -1.6l1.4 -1.2l2.6 -0.3l-0.1 -1.5l1.3 0l1.9 -0.5l1.5 -1.2l1.6 -0.2l1.2 -0.8l1.4 -0.3l1.1 -0.5l1.2 -0.1l0.3 -1l0 -2l1.6 -1.8l1.3 -1l3.1 0.6l1.5 0.8l1.5 0.2l1.3 0l1 -1.1l-0.4 -1l1.1 -0.9l0.4 -1.1l0.6 -1.1l0.7 -1.3l0.3 -1.3l1.8 -1.5l1 -0.5l1.3 -0.1l2.3 1.4l1.4 0.5l1.2 0.5l1.4 0.2l1.3 -0.5l0.2 -1.1l0.8 -1l0.3 -1.3l-0.2 -1.2l0.6 -1.8l0.4 -1.8l0.7 -1.1l1.4 -0.8l1.6 -0.6l1 -0.1l0.6 -1l0.1 -6.6l0 -8.1l0 -1.8l0 -2.5l0 -8.3l0 -3.6l0.1 -9.5l0 -1.7l0 -1.7l0 -1.1l0 -18.3l-33.6 -0.2l-32.3 -0.1l-32.5 -0.2l0.1 48.8l-0.2 32.9l-11.3 0z"/><path data-id="27117" d="m101.4 1009.5l0 3l0 2.6l0 2.6l0 2.4l0 2.9l0 12.9l0 5.2l50.1 0.1l0.1 -62.3l-1.9 0l-48.3 0l-0.1 28.5l0 2.3z"/><path data-id="27119" d="m11.9 237.5l0.3 1.8l0.7 1.4l-0.5 1.3l1 1.2l0.2 1.2l0.6 1.6l0.9 2l-0.3 1.4l1.2 0.6l0.5 1.2l0.6 1l0.3 1.1l0.3 1.3l-0.6 1.5l2.2 3.1l1.4 1.1l0.6 2.1l0.2 2.7l-0.4 1.2l0.4 1l0.3 1.2l0.3 2.1l1.2 1.1l0.2 1l-0.4 1.4l-0.3 1l0.3 1l-0.6 1.2l1 1l0.2 1l-0.4 1.1l0.6 1.1l1.5 0.5l0.3 1.3l1 1.1l1.5 1.5l0.1 1.2l0.2 1.1l-1.1 -0.2l0.4 1.3l-0.6 1.4l0.8 1.1l-0.8 1.1l1 1l-0.4 1.2l2 0.5l0 1.3l1 1l0.2 2.5l0.4 1.5l1.4 1.5l0.3 1.1l-0.2 1.7l0.2 1.1l0.4 1.6l1.2 0.8l1 1l-0.8 1l0.9 1.5l2.2 2.2l0.1 1.1l0.8 1.1l0.5 1.3l0.1 1l-0.6 1l0.4 1l0.7 1l0.9 1l-0.6 1.1l0.4 1.1l0.7 1.1l0.2 1l0.8 1.1l-0.4 1l1.1 -0.3l0.6 3.2l0.9 1.2l0.5 1l-0.1 2l0.5 2.2l1.11022e-16 1.5l0.4 2.5l1.1 0.5l1.3 1.1l0.7 1.2l-0.1 1.1l0.1 1.2l0.5 1l-0.3 1.9l-0.3 1.2l-0.2 1.1l-0.1 1.1l-0.1 1l0.5 1.2l0.1 1l-0.3 1.2l-0.6 1.7l-0.3 1.8l0.6 1.1l0.8 1l-0.2 1.2l0.2 1l101.2 -0.1l66.2 -0.1l0.1 -33.2l-3.3 0l-0.4 -50l-16.4 -0.4l0.1 16.8l-16.5 0.1l0 16.8l-66.4 0.1l-0.1 -16.7l-16.7 0l-0.1 -22.4l0 -11.2l-2.4 0l0 -16.8l0 -12.6l-83.2 0.2z"/><path data-id="27121" d="m191.1 693.6l0 32.2l1.4 0l0 31.9l31.9 0.1l31.6 -0.1l15.9 0l0 -31.8l-1.1 0l0 -32.1l-34.8 -0.2l-12.9 0.2l-32.1 -0.2z"/><path data-id="27123" d="m517.6 813.6l0 2.5l0.1 5.2l0 2.7l0 2.6l2.4 0l0.1 5.4l0 3.3l0 6.4l0.9 3.5l0.1 4.6l3 2.7l-0.2 1l1.3 0l1.8 -0.8l2 -2l1.3 -2.9l10 0l1.8 3.6l2.2 1.7l2 0l2.6 -0.7l-0.1 -12.5l0 -4.4l0 -7.6l0 -5.2l0 -7.2l0 -3.5l0 -1.4l-4.6 0l-11.1 0l-10.6 0l-3.1 0l-1.9 0l0 3.2z"/><path data-id="27125" d="m97.6 277.6l0.1 22.4l16.7 0l0.1 16.7l66.4 -0.1l0 -16.8l16.5 -0.1l-0.1 -16.8l0 -5.5l-99.7 0.1z"/><path data-id="27127" d="m212.2 916.4l0.1 31.1l0.1 15.8l0 15.7l16.9 -0.1l30 0.1l14 0l1.6 0l0.2 -15.6l31.1 -0.1l0.1 -39l-1.6 -3l-4.6 -0.2l-1.9 -1.5l-5.2 -1.7l-2.5 -2.2l-3.4 0.6l-2.4 -2.6l-3.2 -0.9l-2.4 -2l-2.7 0.3l-0.8 -2.8l-1.6 -1.1l-3.8 -2.6l-0.5 -1.4l-4.6 -1.7l-7.5 -7.7l-3.2 1.4l-2.7 -0.4l-2.9 -2.9l-0.6 -2.8l-5.5 -1l0 28.4l-30.2 -0.1z"/><path data-id="27129" d="m226.6 853.1l-0.2 17.1l0.2 8l3.5 2.1l1.9 -0.5l5.1 4.4l5.3 3.7l5.5 1l0.6 2.8l2.9 2.9l2.7 0.4l3.2 -1.4l7.5 7.7l4.6 1.7l0.5 1.4l3.8 2.6l1.6 1.1l0.8 2.8l2.7 -0.3l2.4 2l3.2 0.9l2.4 2.6l3.4 -0.6l2.5 2.2l5.2 1.7l1.9 1.5l4.6 0.2l1.6 3l6.6 2.5l0.6 2.4l3.8 2.6l20.2 0.1l0 -15.6l-0.6 -31.6l17 -0.1l0 -16l0 -15.4l-33.6 -0.5l-16.3 0l-46.9 0.2l-30.2 0.1z"/><path data-id="27131" d="m479.2 963.2l0 15.6l15.3 0l15.5 0l16 0l15 0l0.7 -31.4l0.1 -18.2l-31.3 0l0 -13l-9.8 0l-21.5 0.1l-0.1 47.1z"/><path data-id="27133" d="m101.4 1072.2l0 11.6l0 3.8l0 15.6l13.2 0l2.5 0l15.9 0l1.3 0l18.8 0l0.1 -46.5l0 -15.7l-1.6 0l-50.1 -0.1l0 7.9l0 2.4l0 18.2l0 2.6z"/><path data-id="27135" d="m107.6 75.9l0.1 55.5l2.3 0l0 33.7l101.4 1.1l2 0.1l31.5 -0.3l0 -33.7l32.6 0l-0.2 -40.7l-6 5.1l-12.6 2.6l-2.5 -0.6l-6 -3.9l-2.8 -6.2l0.6 -3.3l-1.2 -5.8l0.9 -3.3l-25.4 -0.1l-29.9 0l-46.6 -0.1l-38.2 0z"/><path data-id="27137" d="m534.7 222.3l-0.2 35.2l1 0l0.1 17.2l0.9 16.7l-0.3 16.4l0.2 16.5l2.7 0l-0.5 42.2l-0.5 8l-0.1 12.2l0.6 4.3l-0.2 49.8l1.3 0l0 15.7l-0.7 49.1l32.6 0l19.3 -0.6l2.6 0.5l27.1 0.4l16.4 0.1l0.1 14.1l0 4.2l1.1 0.7l1 0.9l1.2 0.2l0.5 1.3l1.4 -1.2l2.2 1.5l1.8 -0.7l1.5 0.6l1.2 -0.4l0.6 -1.3l-0.4 -1.1l0.8 -1l0.9 -1.2l1.4 -0.6l0.7 -1.1l-0.3 -1l-2.7 -0.8l-1 -1.2l1 -1l0.7 -1.6l1.6 0l1.5 -0.6l1.6 0.8l1.1 0l0.6 -1.8l-0.3 -1.7l3.4 -2.6l1.1 -0.1l2.4 0l7.2 7.6l1.8 0.9l-0.8 -1.3l-5 -6.5l-3.1 -5.3l-0.7 -2.7l1.1 -1.2l3.1 -1.8l0.4 -1.1l5.9 -4.5l2 -0.9l1.7 -2.1l4.1 -3.3l3.9 -2.5l1 -0.7l1.1 -1.4l3 -2.7l1.5 -0.5l3.9 -3.2l1.9 -0.4l2.5 -1.2l1.7 -1.1l0 -16.2l0.1 -10.1l0 -5.8l0.2 -3l0.3 -47.5l0.3 -32.8l-1.3 -126.2l-1.4 -0.6l-0.9 -1.1l-2.1 0.5l-1 -0.1l-3.2 0.5l-0.5 -2.3l-2.2 -1.6l-1.1 -2l-1.3 0.1l-1.6 -0.3l-1.7 0.6l-1.1 0.3l-1.7 0.3l-1.1 -0.7l0.2 -1.2l0.5 -1.2l-2.2 -0.8l-0.1 1.1l-1.2 -8.32667e-17l-1.1 -2.4l-2.2 -1l-0.1 -2.9l-0.6 -1.3l-0.1 -2l1.7 -4.6l-4 -0.9l-0.9 -1.4l-1.1 -0.3l-0.1 -1.8l-0.2 -1l-0.8 -2l-1.4 -0.1l-1.5 0.3l-1.8 0.8l-6.6 -0.3l-0.2 -1.9l-2.2 0.5l-2 1.2l-0.1 1.1l-2 0.6l-1.3 -0.6l-0.4 1l-1.3 0.4l-5.8 -1.9l-3.4 2.3l-0.8 3.7l-1.2 0.2l-0.2 1.3l1.5 1.9l-0.9 3.5l0.7 2l0.2 1.2l0.5 1.2l2.1 1.7l0.5 1.6l-1.4 0.8l-4.4 0.7l-1.4 0.7l-1.1 0.6l-1.9 0.5l-1.7 1.6l-1.4 -0.2l-0.7 -1.1l-0.2 -1.2l-0.7 -1l-0.4 -1.1l-0.2 -1.3l-0.6 -1.4l-0.5 -1l-1.2 -2.7l-1.2 -3.1l-1.3 -1.8l-1.6 -1l-0.4 -1.1l-1.6 -2.7l-2.1 -4.3l-0.9 -3.9l2.6 -5.7l0 -2.5l-2.5 -0.9l-0.7 -1.3l-1.2 -1l-2.4 -3.5l-1 -0.1l-2.9 0.1l-5 1.3l-10.4 0.8l-4.1 -1.4l-3.2 -3.7l0.5 -1.4l0.9 -2.7l0.3 -2l1.8 -0.5l3 0.2l1 -1l2.2 0.4l1.2 -0.8l-0.5 -1l0.5 -1l-0.2 -1.6l-0.9 -4l-3 -0.7l-9.1 1.4l-21.5 -10.8l-2 -0.3l-2.5 -2.1l-2.6 -0.3l0 -4.3l-4.5 1.3l-13.4 -0.8l-0.9 73.5z"/><path data-id="27139" d="m432 912.1l-2.5 4.1l34 -0.1l6.3 0l5.9 0l3.6 0l21.5 -0.1l9.8 0l0.4 -1.3l0 -14.4l-5.2 0l0 -9.2l0 -6.6l-1.3 0l0 -5.2l0 -5.2l-0.1 -2.9l-2.9 0.3l-3.8 0.8l-2.3 -2.3l-5.1 -2.6l-2.6 1.8l-8.1 -0.2l-2.7 -0.1l-7.6 4l0.7 1.1l-3.6 2.9l-1.2 4l0.6 3.6l1.1 2l-3.3 2.7l-3.1 -0.5l-3.9 4.7l-6.3 4.4l-1.1 1.9l-1.6 -1l-3.1 2.1l-3 -0.7l-2.7 2.6l-2.7 -0.5l-0.4 2.7l-1.7 -0.1l-3.7 3.5l1.3 0.5l-1 2.8l1.2 0.7z"/><path data-id="27141" d="m398.7 730.7l0.3 1.9l-0.3 4.3l1.2 1.7l-0.3 4.3l4.4 3.8l1 1.1l-0.2 1.9l2.9 3.3l3.6 0.6l0.5 2.1l2.8 3.4l2.3 0l-0.2 2.5l1.7 -2l2.9 2.4l2.1 2l5 -1.2l3.8 3.9l2.7 4.4l4.7 0.8l4.1 4.5l5.5 2.8l6.7 -0.6l2.4 -1.3l1.6 1.6l12.1 0.7l1.8 -1.7l1.7 6.7l3.9 3.4l1.2 0.2l0.2 -9.8l0.2 -15.8l0 -5.4l-0.1 -10.5l0 -16l-32.1 -0.2l-31.9 0.1l-18.4 0z"/><path data-id="27143" d="m336.7 884.8l0 31.6l0.6 15.6l89.6 -0.1l1.6 -1.2l4.1 -10l-3.2 -4.5l2.5 -4.1l-1.2 -0.7l1 -2.8l-1.3 -0.5l3.7 -3.5l1.7 0.1l0.4 -2.7l2.7 0.5l2.7 -2.6l3 0.7l3.1 -2.1l0 -6l-15.6 0l0 -7.9l-15.7 -0.1l-31.4 -0.1l-0.1 15.9l-31.4 0.1l0 -15.8l-17 0.1z"/><path data-id="27145" d="m270.9 693.8l0 32.1l1.1 0l0 31.8l47.6 -0.1l0 15.9l15.9 0.1l10.7 -0.1l2.8 0l19.6 -0.1l0 8.1l15.8 -0.2l0.5 -4.1l9 -2.2l1.8 3.1l2.2 -0.5l4.6 -4l5.1 -7.6l-0.3 -2.4l4 -8.1l0.2 -2l-3.6 -0.6l-2.9 -3.3l0.2 -1.9l-1 -1.1l-4.4 -3.8l0.3 -4.3l-1.2 -1.7l0.3 -4.3l-0.3 -1.9l-1.5 -1.3l-0.6 -1.4l-0.4 -2.3l-3.2 -3.1l-1.3 -3.1l0 -5.1l0.7 -3.9l2 -1.9l-2.7 0.1l-2.8 -6.9l1.2 -2.1l-5.7 -2.9l-1.6 -6.1l-31.2 0.2l-16.9 0.1l-15.9 0l-48.1 0.1l0 2.7z"/><path data-id="27147" d="m494.5 1025.7l0 15.6l46.1 -0.1l0.5 -1.7l0 -3.6l0 -10.3l-0.1 -46.9l-15 0l-16 0l-15.5 0l0 31.4l0 15.5z"/><path data-id="27149" d="m127.1 693.6l0.1 32.2l1.5 0l0 31.8l16 0.1l47.7 -0.1l0 -31.9l-1.4 0l0 -32.2l-63.9 0z"/><path data-id="27151" d="m144.6 761.5l0 27.8l1.9 0l0 11.6l6.1 3.7l2.5 0.8l102 0l0 -15.8l-1.1 0l0 -31.9l-31.6 0.1l-31.9 -0.1l-47.7 0.1l-0.2 3.8z"/><path data-id="27153" d="m268.9 580.3l0.2 16.2l1.1 0l0 32.7l0 32.3l0.8 16.1l0.1 13.4l48.1 -0.1l15.9 0l-0.6 -29.4l0.1 -16.3l0 -48.8l-0.7 -12.4l-8.8 -0.5l-1.3 -3.2l-54.7 -0.1z"/><path data-id="27155" d="m49.4 721.5l0.4 1.3l1.2 1.4l1.1 1.6l75.2 0.1l-0.1 -32.2l0 -32.4l-1.6 0l0 -16.1l-40.1 0l0.3 1l-0.2 1.6l0.3 1.1l0.1 2.4l0 1.7l0.3 3.1l0.7 2.5l0.2 2.5l-0.2 2l0 1l-0.4 1l0.3 1.2l-0.5 1.2l0 2.2l-0.6 2.8l-0.3 1.8l0 4.3l-0.4 1l-0.3 2.2l-0.4 1.1l-1.3 1.2l-1.2 1.4l-0.7 1.3l-1.3 1.5l-1.2 0.9l-0.3 1l-0.8 1.4l-0.4 1.6l-0.3 1l-1.3 2.4l-1.3 1.5l-1.3 1.2l-1.9 1.2l-3.1 1.5l-4.4 3l-1.6 1.9l-5.6 4.1l-3.4 2.6l-1.3 0.8l-1 1.9l-1 3.7l-0.7 1.9z"/><path data-id="27157" d="m605 947.8l0 31.3l14.5 0.1l15.4 0.1l0 15.5l30.9 0.1l0 -15.5l28.5 0l-1.8 -1.1l-0.5 -1.9l-0.5 -1.3l-1.2 -1.8l-0.4 -1.6l0.7 -2l0.1 -1l-1.2 -1.9l0 -1.9l-1.3 -1.5l-1.9 -0.9l-0.5 -1.4l0.5 -1.1l0.9 -1.3l-0.2 -1.8l-1.2 -2.8l-2 -1.3l-1.1 -1.4l-1.3 -2l-1.4 -1.2l-1.1 -0.5l-1.1 -0.1l-1.7 -1.1l-1 -0.8l-1.4 -0.3l-2.4 -1.4l-1.1 -1l-0.9 -1.3l-1.1 -0.5l-1.4 0l-1.4 -0.6l-1.8 -0.8l-1.8 -0.4l-1.2 -1.2l-2.3 -0.8l-3 -0.5l-1 -0.3l-3.2 -0.9l-2.6 -0.9l-2.3 -1.2l-1.2 -1.6l-24.3 -0.2l0 15.7l-15.5 0z"/><path data-id="27159" d="m267.8 514.9l0 16.5l1 0l0 48.9l54.7 0.1l0.4 -2.3l-3.1 0.3l-3.5 -2.8l-0.9 -44.3l-0.1 -16.1l-0.1 -16.5l-48.5 -0.1l-0.1 16.4z"/><path data-id="27161" d="m447.9 978.9l0 62.4l15.4 0l31.2 0l0 -15.6l0 -15.5l0 -31.4l-15.3 0l-31.3 0z"/><path data-id="27163" d="m544.2 872l0.7 2l1.3 0.7l4 -0.1l6 -1.7l5.9 1.3l3.5 4.8l5.5 0.1l1.3 0.3l-0.6 -1.1l0.1 -1.4l0.3 -1.7l0.6 -1.6l1.5 -1.9l0.8 -1.9l0.2 -2.1l1.1 -2.2l0.1 -1.2l0.8 -1.3l0.1 -1.1l-0.4 -2.4l-0.1 -1.4l0.7 -1.8l-0.8 -2l-0.6 -1.3l-0.1 -1.5l1.7 -1.6l0.7 -2.2l0.6 -3.4l-0.5 -3.4l-0.8 -1.7l-1 -0.9l-0.2 -1.6l0.2 -1.7l-0.2 -1.1l-0.1 -1.3l0.4 -1.4l0.7 -2.1l-0.2 -1.4l-1.8 -1.9l-1.2 -0.8l-1.2 -1.3l-0.6 -1.2l-0.1 -1.4l1.4 -2.5l2.4 -1.9l1.1 -1.2l1.4 -1.4l1 -0.7l0.8 -1.1l0 -1l-1.2 -3.6l-1 -2.5l-0.1 -1.6l0.7 -2.1l-1.6 -2l-0.3 -1.4l0.5 -2.7l1.2 -1.4l0.3 -1.1l-0.5 -1.3l-0.2 -2.2l-0.4 -2.1l0.7 -1.3l0.5 -1.7l-0.8 -1.7l-0.5 -1.8l0.4 -1.2l1 -0.4l-8.2 -0.6l-26.4 -0.1l0 15.8l0 4.9l-0.1 11l4.6 0l0 1.4l0 3.5l0 7.2l0 4.3l0 8.5l0 4.4l0.1 12.5l-2.6 0.7l-2 0l0.5 1.1l0.8 3.8l0 3.2l0.7 5.7l-2.2 5.1z"/><path data-id="27165" d="m307 994.7l0.1 46.6l63.2 0l0 -15.6l0 -31.2l-47.7 0l-15.7 0.2z"/><path data-id="27167" d="m58.6 531.5l0.1 1.5l0.7 1l0.4 1.4l0.3 1l0.3 1.1l1.1 0.7l0.1 1l0.9 1l0.3 1l1 2.1l-0.3 1l-2.77556e-17 1.1l0 1.6l0.2 1l0 1.1l0.3 1l0.6 2.1l-0.1 1.6l0.1 1.7l0.4 1.2l-0.4 1.2l0.2 1.3l1.3 0.9l0.8 1.2l0.5 1.1l0.3 1l-0.1 1l-0.3 1l0 1.3l0.3 1.1l1 0.7l0.9 1.3l0 1.1l0.8 1.2l0.8 1.2l1 0.1l1.5 3.3l-0.1 1l0.3 1.7l1.1 0.4l0.5 1.4l1.1 0.6l0.1 1.7l1.8 0l1.4 1.2l0 1.2l1.7 1.6l1.1 0.4l-0.2 2l0.3 1.3l-0.4 1.6l0.3 1.2l0.2 1.1l0.1 1l-0.4 1.1l0.3 2.2l-0.4 1.1l0.8 1l0.1 1.1l-0.7 1.3l0 2.9l0.2 1.5l1.1 1.8l0.2 1l0.1 1.2l-0.5 1.2l-0.1 1.2l0.1 1l0.5 1.1l0.5 1.1l0.1 1l-0.3 2.2l0.4 1.2l1 2.1l-0.1 1.2l0.9 1.4l-0.3 1.4l0.8 1.3l0.4 1.5l0 1.9l-0.3 2.7l0.2 1.4l-0.3 1.2l-0.9 1.2l-0.9 2.5l-0.6 2.1l40.3 0.9l0.1 -16.2l0.1 -32.4l-2 0l-0.1 -65.3l-64.3 0.1z"/><path data-id="27169" d="m665.8 979.4l0 15.5l0.1 31.1l-0.1 15.6l45 0l57.6 0l-0.9 -1l-1 -0.6l-1.6 -1.9l-0.3 -1.5l-0.3 -1.1l-0.7 -1.2l-1 -0.9l-1.3 -0.8l-1 -2.2l-1.4 -1.2l-0.9 -1.8l-0.2 -1.5l-1.3 -1.7l-1.4 -1.8l-1.2 -0.9l-1.4 -0.8l-0.6 -1.2l-1.7 -2.2l-0.3 -1l-0.4 -1l-0.9 -1.1l-2.6 -1.2l-1.4 -0.6l-1.3 0.3l-2.1 -0.8l-1.5 -1.2l-2.2 -0.4l-1.2 0l-1.7 -0.1l-1.5 -0.6l-1.8 -0.3l-1.2 -0.1l-1.2 -0.7l-1.5 -2.2l-0.9 -1.1l-1.7 -0.9l-1.2 -1.1l-1.3 -0.4l-1.2 -1l-0.9 -1l-0.5 -1.2l-0.4 -1l-1.9 -1.9l-1.2 -0.1l-2.1 -1.1l-0.1 -1.2l-0.2 -1.2l-1.2 -2l-1.5 -0.8l-2.7 -0.3l-2.1 -1.6l-3.7 -1.9l-1.5 -0.9l-1.2 -0.9l-1.5 -2.5l-2 -1.2l-1.8 -1.5l-28.5 0z"/><path data-id="27171" d="m384.8 777.1l-0.5 4.1l0.5 8.2l0.1 15.9l0 15.8l0 15.9l31.5 0.1l31.6 0.1l0.1 -14.5l0.7 -4.5l3.1 -0.2l1.2 -1.3l-0.1 -1.3l3.7 -7.1l2.5 -2.7l5.6 -2.7l0 -1.6l-2.6 -3.7l2.4 -2.8l6.1 -0.7l4.1 -2.6l3.5 -0.7l1.5 -2.5l-3.8 -3.8l-1.7 -6.7l-1.8 1.7l-12.1 -0.7l-1.6 -1.6l-2.4 1.3l-6.7 0.6l-5.5 -2.8l-4.1 -4.5l-4.7 -0.8l-2.7 -4.4l-3.8 -3.9l-5 1.2l-2.1 -2l-2.9 -2.4l-1.7 2l0.2 -2.5l-2.3 0l-2.8 -3.4l-4.7 8l0.3 2.4l-5.1 7.6l-4.6 4l-2.2 0.5l-1.8 -3.1l-9 2.2z"/><path data-id="27173" d="m101.6 870l0 1l0 2.9l0 2.6l0 7.9l0 2.8l0 13l46.3 0.2l63.1 0.1l1.2 15.9l30.2 0.1l0 -28.4l-5.3 -3.7l-5.1 -4.4l-1.9 0.5l-2.8 -2.8l-1.6 0.9l-0.7 -3.3l-2.2 0.8l-2.3 -1l0.5 -2.2l3.5 -0.7l-2.7 -2.7l-3.3 -0.3l1.2 -1.4l-3.2 -2.1l-2.2 -2.9l-5 -2.2l0.1 -1.6l-2.4 -3.4l-1.1 0.6l-1.8 -2.6l-2.2 -1.4l0.1 -1.4l-4.8 0.1l-1.3 -3.3l-2.2 -2.6l-0.1 8.1l-14.2 -0.1l-0.2 15.7l-77.7 0l0 1.4z"/></svg>
