<?xml version="1.0" encoding="UTF-8"?>
<!DOCTYPE svg PUBLIC '-//W3C//DTD SVG 1.1//EN' 'http://www.w3.org/Graphics/SVG/1.1/DTD/svg11.dtd'>
<svg viewBox="0 0 1000 1103.53" xmlns="http://www.w3.org/2000/svg">
  <g data-id="001">
    <path d="m442.291 539.986l0.136 62.381l1.581 0.496l47.421 0.351l0.131 12.065l-0.284 5.164l19.014 -1.016l13.612 0.166l16.144 0.08l-0.126 -48.764l-0.129 -29.952l-0.882 -2.676l-0.282 -15.878l0.431 -16.704l0.721 -49.071l-17.462 0.231l-16.187 -0.585l-59.165 -0.404l-0.099 42.981l-0.243 40.113l-4.33 1.02z" />
  </g>
  <g data-id="003">
    <path d="m481.061 778.419l-0.155 9.839l3.448 3.666l8.131 2.611l0.932 1.97l5.41 4.119l1.867 0.586l2.707 3.442l1.245 0.877l2.15 1.388l1.62 2.723l0.373 1.309l0.167 1.247l1.299 1.162l0.505 6.735l-0.569 2.421l0.387 1.333l-0.155 2.885l1.471 -0.025l5.819 -0.031l-0.017 -2.605l-0.019 -2.134l-0.068 -5.774l-0.012 -2.526l0.017 -3.199l1.939 0.021l3.092 0.008l10.578 0.05l11.124 0.043l0.058 -10.98l0.042 -4.919l0.039 -15.797l-0.016 -21.087l-9.511 -0.369l-6.319 0.024l-2.668 -0.104l-13.232 0.094l-31.562 -0.202l0.036 5.363l-0.155 15.837z" />
  </g>
  <g data-id="005">
    <path d="m134.779 432.991l0.142 32.918l2.511 -0.001l-0.377 32.575l0.315 16.387l49.008 0.272l32.523 0.087l6.988 -0.299l6.851 0.305l35.065 -0.324l0.09 -16.402l0.096 -32.763l-1.037 0.012l0.146 -33.025l-49.292 0.202l-66.566 -0.068l-16.465 0.126z" />
  </g>
  <g data-id="007">
    <path d="m211.213 166.163l0.203 8.434l-0.159 25.312l1.133 -0.003l-0.076 37.322l0.168 29.435l1.239 0l45.646 0.116l-2.286 2.823l-3.318 8.697l-0.585 3.182l0.954 7.667l3.017 3.966l6.789 2.063l-0.077 38.24l1.418 33.275l0.013 16.539l32.992 0.199l16.464 0.359l15.068 -0.027l1.67 -0.031l32.752 -0.32l0.014 -6.294l0.258 -27.065l-0.263 -1.412l-0.287 -48.322l0.103 -16.797l0.004 -16.078l-1.033 -67.184l-101.32 -0.453l-0.131 -33.85l-16.848 -0.049l-31.509 0.327l-2.011 -0.069z" />
  </g>
  <g data-id="009">
    <path d="m372.4 682.104l3.259 4.324l1.887 -0.27l0.158 1.755l5.191 2.846l1.555 6.076l5.679 2.92l-1.158 2.078l2.792 6.866l2.677 -0.129l-2.035 1.886l-0.747 3.924l0.025 5.135l1.294 3.067l3.222 3.11l0.426 2.268l0.592 1.365l1.46 1.345l18.399 -0.031l31.928 -0.076l-0.582 -48.489l-31.804 -0.34l-44.217 0.373z" />
  </g>
  <g data-id="011">
    <path d="m52.098 725.678l4.318 5.662l1.051 0.864l1.158 1.736l2.527 3.663l0.605 1.2l0.997 2.344l0.952 2.476l0.258 1.483l0.65 1.315l0.208 1.237l0.529 1.479l1.095 1.335l1.737 2.676l1.133 1.964l1.221 1.638l1.134 1.063l1.072 0.246l1.702 0.222l1.854 -0.205l2.152 0.163l1.739 0.211l2.135 0.903l2.118 1.374l1.729 1.072l1.19 0.695l2.086 0.926l1.94 0.47l1.182 0.524l1.762 1.435l2.46 1.976l0.84 1.983l0.417 1.217l1.153 2.393l0.21 1.108l0.883 1.225l0.533 1.151l0.475 1.112l0.169 3.167l-0.02 2.791l4.57 0.467l1.363 1.832l4.509 -0.702l11.436 2.463l1.141 4.444l3.081 0.665l3.459 -0.316l6.56 5.109l4.499 -0.078l3.944 1.848l0.514 1.193l-0.012 -11.555l-1.851 -0.003l-0.035 -27.844l0.166 -3.761l-16.038 -0.124l-0.013 -31.837l-1.496 0.015l-75.152 -0.111z" />
  </g>
  <g data-id="013">
    <path d="m369.998 966.56l0.372 28.026l-0.022 31.18l0.006 15.558l15.723 0.018l53.173 -0.012l1.091 0.015l7.59 -0.005l-0.027 -62.425l-0.008 -7.84l-15.547 -0.007l-4.582 -0.074l-4.527 0.072l-6.807 -0.015l-1.643 3.152l2.73 9.49l-5.246 1.259l-0.242 1.362l-2.133 -1.459l-1.458 0.775l-4.658 -2.496l-0.545 -1.57l-3.583 -2.241l-1.301 0.321l-8.096 -1.728l-0.548 -2.197l-4.308 -0.317l-0.472 -1.495l-3.98 -0.872l-0.52 -1.987l-3.515 -0.642l-2.456 -2.467l-4.461 -1.378z" />
  </g>
  <g data-id="015">
    <path d="m275.062 963.439l-0.167 15.619l1.004 0.019l0.1 15.628l31.022 0.003l15.672 -0.158l47.677 0.036l-0.372 -28.026l-5.099 -1.571l-0.379 -2.487l-2.243 -1.635l-2.615 -3.701l-0.002 -3.053l-1.226 0.191l-3.914 -3.578l0.046 -1.339l-2.308 0.816l-1.773 -1.848l-3.106 0.122l-1.011 -1.972l-3.083 0.646l-2.241 -2.357l-3.266 0.545l-4.207 -3.127l-1.552 0.969l-1.887 -2.731l-1.576 1.26l0.577 -2.717l-1.851 0.112l0.998 -2.104l-4.025 -0.996l-3.039 -2.873l-2.299 1.2l-2.437 -1.497l-3.037 -3.615l-0.626 -2.377l-6.573 -2.49l-0.056 38.975l-31.125 0.109z" />
  </g>
  <g data-id="017">
    <path d="m538.626 522.405l0.282 15.878l0.882 2.676l0.129 29.952l32.475 0.161l32.259 0.058l33.588 0.164l0.017 -2.765l0.028 -8.76l0.018 -3.153l0.051 -1.577l0.042 -18.886l0.006 -3.812l-0.077 -7.199l-1.148 -0.695l-0.002 -4.226l-0.074 -14.065l-16.36 -0.131l-27.088 -0.38l-2.619 -0.452l-19.349 0.551l-32.63 -0.043l-0.431 16.704z" />
  </g>
  <g data-id="019">
    <path d="m416.385 837.071l0.306 15.824l-0.081 31.723l15.724 0.076l-0.025 7.92l15.568 -0.02l0.018 6.025l1.588 0.978l1.083 -1.878l6.331 -4.387l3.911 -4.684l3.099 0.471l3.339 -2.743l-1.011 -1.291l-0.727 -4.208l1.235 -4.038l3.578 -2.896l-0.72 -1.115l7.559 -4.039l2.684 0.054l-0.026 -9.879l-0.023 -1.368l0.012 -4.093l-7.74 -0.475l-8.337 0.019l-2.409 -0.069l-2.547 0.092l-10.751 0.013l0.077 -15.237l-31.715 -0.775z" />
  </g>
  <g data-id="021">
    <path d="m316.399 498.654l0.064 16.515l0.084 16.106l0.885 44.323l3.526 2.836l3.076 -0.31l-0.45 2.264l1.298 3.191l8.764 0.535l3.95 4.114l1.975 -0.524l2.837 0.951l3.79 3.221l2.769 0.81l3.463 -1.88l3.104 -0.55l3.015 -2.87l4.378 -0.219l5.851 4.315l1.348 2.255l1.298 -0.531l2.194 2.499l-0.798 1.542l1.056 0.124l1.181 -0.347l0.676 -1.914l-0.472 -63.936l-1.864 -0.036l-0.032 -16.389l0.351 -16.395l8.12 0.08l65.027 0.418l0.099 -42.981l0.077 -34.557l-3.255 -1.782l-1.387 -2.423l1.79 -4.689l1.848 -0.41l0.823 -3.115l-1.348 -4.081l1.614 -1.069l-5.933 0.803l-3.569 -1.76l0.332 -1.285l-5.566 -0.384l-1.749 3.282l-4.065 -0.576l-5.219 -6.309l-1.71 0.067l-2.544 -2.204l-2.635 -0.623l-2.015 -5.059l0.198 -4.508l1.72 -1.172l-4.341 -5.632l-2.376 -5.785l-1.962 -1.813l-2.953 -0.529l-27.036 12.383l-6.505 -3.072l-2.379 0.74l-2.567 -3.196l-0.014 6.294l-32.752 0.32l-0.16 16.645l0.976 34.153l0.033 31.32l0.549 16.44l-0.072 16.411l-16.411 -0.043z" />
  </g>
  <g data-id="023">
    <path d="m155.163 805.376l3.126 5.21l1.17 0.258l2.98 4.535l12.466 12.696l1.843 0.748l1.149 3.04l4.631 3.719l0.189 3.988l2.435 2.886l4.401 1.03l3.439 -0.126l0.881 1.494l2.237 2.646l1.263 3.27l4.824 -0.113l-0.083 1.384l2.223 1.371l1.771 2.645l1.111 -0.64l2.4 3.355l-0.084 1.621l4.957 2.153l2.152 2.859l3.163 2.129l-1.214 1.446l3.305 0.308l2.713 2.722l-3.487 0.692l-0.475 2.228l2.263 0.997l1.307 -1.108l1.483 3.635l0.726 -8.199l0.192 -17.142l30.241 -0.109l0.208 -31.753l0.054 -15.906l-101.963 0.033z" />
  </g>
  <g data-id="025">
    <path d="m528.7 698.996l-0.023 31.847l15.445 0.176l0.075 15.975l0.274 10.781l0.016 21.087l26.395 0.11l8.942 0.089l1.091 -0.847l1.211 -1.62l2.293 -2.204l1.292 -2.279l0.134 -1.037l-0.663 -2.624l0.975 -1.812l2.233 -1.686l0.288 -1.364l0.963 -1.648l1.422 -1.276l1.041 -0.45l0.292 -1.638l0.191 -1.067l-0.463 -1.092l0.144 -1.921l0.308 -1.528l-0.766 -3.053l-1.088 -0.69l-2.076 -0.844l-1.235 -1.73l-1.087 -1.952l-0.905 -1.871l-1.247 -1.884l-1.606 -1.646l-0.44 -1.213l-0.036 -1.26l0.435 -2.043l-2.701 -2.998l-1.46 -0.826l-0.989 -1.123l-1.14 -0.856l-1.59 0.064l-2.034 0.927l-1.365 0.319l-1.449 0.035l-1.4 -0.398l-1.242 -0.56l-3.523 -0.266l-1.297 -1.074l-0.276 -3.027l-0.409 -1.631l0.199 -1.166l0.249 -1.612l-0.477 -1.111l-0.186 -1.59l0.148 -1.55l-0.014 -1.36l0.397 -1.979l0.652 -1.982l0.263 -1.788l0.181 -2.535l0.689 -1.43l0.165 -2.815l-0.043 -1.03l2.037 -1.032l0.587 -1.034l1.007 -0.235l-38.806 -0.117z" />
  </g>
  <g data-id="027">
    <path d="m52.22 459.951l0.906 1.374l0.39 1.029l0.245 1.141l0.345 2.418l-0.277 1.185l1.578 1.36l1.097 -0.384l0.182 1.268l0.148 1.18l-0.077 1.065l1.007 0.547l0.194 1.285l-0.202 1.22l0.838 1.029l1.286 -0.962l1.535 -0.794l0.161 1.089l0.135 1.029l0.222 1.066l-0.61 1.08l-0.217 1.406l-1.019 0.283l-0.387 1.492l0.387 2.058l0.489 1.36l-1.368 -0.49l0.136 1.409l-0.188 1.045l-0.077 1.261l-0.086 1.333l0.296 1.152l-0.087 1.152l-0.641 1.35l-0.296 1.17l-1.33 1.028l-0.177 1.306l0.368 1.268l-0.065 3.23l0.712 1.108l-0.123 1.278l0.431 1.044l0.616 1.098l-0.038 1.17l0.123 1.548l-0.209 1.295l0.471 1.704l0.01 1.335l0.213 1.354l-0.725 1.228l-0.734 2.378l0.587 1.484l-0.037 1.438l-0.157 1.192l-0.718 1.305l-0.025 1.078l-0.633 2.095l1.053 1.684l0.162 1.405l-0.219 1.594l1.566 0.542l64.256 -0.093l14.027 0.011l-0.299 -16.388l-0.315 -16.387l0.377 -32.575l-2.511 0.001l-0.142 -32.918l-82.134 0.119l-0.155 1.287l0.617 1.359l0 1.34l0.282 1.166l0.548 1.447l-0.194 1.156l0.582 1.029l-0.049 1.196l-0.197 1.231l-0.074 1.473l0.151 1.031l-0.546 1.225l0.029 1.1l-0.127 1.18l0.666 1.285l0.062 1.103l-0.259 1.067l0.296 1.122l-0.346 1.048l-0.662 1.281l-0.862 1.358l-0.06 1.12z" />
  </g>
  <g data-id="029">
    <path d="m213.719 266.663l0.094 16.691l0.428 50.003l3.283 0.013l-0.11 33.234l0.395 66.33l49.292 -0.202l-0.059 -32.857l-1.687 -0.024l-0.065 -16.623l-0.013 -16.539l-1.418 -33.275l0.077 -38.24l-6.789 -2.063l-3.017 -3.966l-0.954 -7.667l0.585 -3.182l3.318 -8.697l2.286 -2.823l-45.646 -0.116z" />
  </g>
  <g data-id="031">
    <path d="m800.963 234.216l0.017 24.038l0.655 31.176l0.75 2.773l-0.308 81.069l10.845 -9.465l1.432 -0.855l1.11 -0.148l1.236 -1.229l0.298 -1.272l5.061 -4.593l17.077 -12.903l6.393 -3.686l4.974 -2.41l8.114 -4.707l4.344 -1.826l1.83 -2.452l10.16 -3.518l2.123 -0.96l2.648 -1.678l3.557 -0.599l7.888 -1.557l1.192 -1.418l1.224 -0.559l2.323 -0.456l6.085 -2.632l2.535 -0.66l5.356 -0.371l1.146 -1.591l2.318 -1.228l3.705 -0.56l1.971 0.065l3.695 -1.472l1.626 -0.05l0.456 -1.499l3.776 -1.242l3.746 -0.731l5.088 -1.757l5.213 -3.123l0.394 -2.108l7.647 -3.168l2.274 0.038l7.796 -3.34l4.494 -3.009l2.732 -2.154l1.008 -1.36l4.143 -3.09l4.775 -1.912l2.719 -0.457l-0.038 -1.202l-0.037 -1.562l0.402 -1.067l0.67 -1.267l2.634 -0.133l2.003 1.867l3.042 0.734l2.232 -1.467l0.268 -1.134l0.179 -1.267l1.295 -1.067l5.958 -1.835l0.789 -2.348l-9.685 2.237l-2.158 1.356l-1.031 -1.142l-1.634 -0.567l-1.041 -0.894l0.043 -1.406l-1.092 1.106l-2.491 0.316l-0.014 1.004l-1.054 -0.405l-1.001 0.308l-0.496 -1.031l-1.002 0.396l-1.16 -0.697l-1.436 0.326l-2.131 0.696l-1.516 -0.735l-0.378 -1.238l-1.023 0.534l0.238 -1.252l-1.156 0.265l-1.028 -0.308l-1.315 -0.567l-1.891 0.069l-1.287 0.246l-1.129 0.744l-1.182 -0.071l-1.687 0.855l-1.919 -0.255l-1.365 2.858l-1.072 -0.372l-0.975 1.831l-2.827 0.543l-1.62 0.673l-2.156 -0.23l-1.786 -1.094l-1.339 -1.276l-1.176 -1.596l-0.483 -1.441l-2.078 -0.053l-1.664 0.243l-1.283 -1.101l-1.406 -1.105l-1.125 -0.448l-0.471 -1.348l0.091 -1.208l0.28 -1.424l-0.52 -1.649l-1.367 -2.091l-1.34 -0.701l-0.614 -2.448l-2.836 -1.285l-1.557 -0.967l-2.094 -0.922l-2.292 -0.675l-3.177 0.063l-1.14 -0.656l-1.433 -0.857l-1.166 0.096l-2.452 0.369l-1.597 -0.526l-1.558 0.869l-2.935 0.322l-1.711 -0.361l-1.175 0.208l-2.59 0.933l-1.434 -0.204l-1.245 0.008l-1.897 0.824l-1.131 -0.68l-1.843 -0.538l-2.279 0.56l-1.082 1.197l-1.065 0.406l-2.705 -0.091l-1.885 0.269l-1.02 -1.329l-1.685 -0.977l-4.546 1.23l-1.153 -0.905l-2.042 -0.759l-1.008 0.247l-1.197 0.768l-1.236 0.597l-2.015 -0.123l-1.496 0.046l-5.131 0.656l-1.373 -0.999l-0.294 -1.115l1.796 -1.955l-1.325 -1.073l-1.264 0.331l-1.892 0.221l-2.042 0.733l-1.258 0.672l-1.384 0.124l-1.898 1.61l-5.809 0.581l-2.205 0.87l-4.88 0.275l-1.302 0.698l-1.293 -1.413l-0.773 -2.322l-0.193 -1.214l-0.884 -1.091l-1.44 -1.06l-0.024 -1.151l-1.032 -0.36l1.23 -1.93l1 -0.623l0.067 -1.542l0.159 -1.012l-1.238 0.197l-1.383 0.296l-0.982 -3.571l-1.741 -0.336l-1.036 -0.774l-0.053 1.242l-1.314 0.035l0.277 -2.264l-0.089 -2.613l-0.319 -4.543l-0.058 -1.762l-0.755 -1.717l-3.026 1.046l-1.036 0.076l-1.339 -1.55l-2.755 1.636l-1.051 1.305l-1.306 0.137l-6.692 2.023l-3.521 3.258l-1.055 0.884l-1.323 1.082l-1.151 0.778z" />
  </g>
  <g data-id="033">
    <path d="m229.247 978.896l0.015 62.452l1.281 -0.008l45.409 0.003l31.122 -0.028l-0.054 -46.607l-31.022 -0.003l-0.1 -15.628l-1.004 -0.019l-1.607 -0.046l-14.032 0.007l-30.008 -0.122z" />
  </g>
  <g data-id="035">
    <path d="m367.075 606.516l-0.172 3.143l3.811 5.923l-1.085 4.283l24.026 0.008l48.778 0.087l-0.071 -16.134l1.888 -0.013l-1.823 -1.446l-0.136 -62.381l4.33 -1.02l0.243 -40.113l-65.027 -0.418l-8.12 -0.08l-0.351 16.395l0.032 16.389l1.864 0.036l0.472 63.936l-0.676 1.914l-1.181 0.347l0.246 1.422l-2.004 2.798l-4.338 3.159l-0.705 1.764z" />
  </g>
  <g data-id="037">
    <path d="m504.465 871.241l-0.007 2.299l0.131 5.817l0.032 5.249l1.322 -0.001l-0.025 6.567l-0.046 9.212l5.231 -0.031l-0.046 14.417l-0.387 1.308l-0.021 13.02l31.252 0.023l0.019 -7.9l7.023 -0.593l3.882 2.135l4.604 -1.908l0.022 -4.648l16.307 0.051l0.002 -15.717l7.812 0.042l0 -15.273l-2.343 -1.535l-2.046 -1.359l-2.82 -1.422l-1.87 -1.405l-1.32 -0.378l-5.505 -0.084l-3.517 -4.796l-5.945 -1.329l-5.957 1.654l-4.023 0.115l-1.288 -0.705l-0.717 -2.034l2.169 -5.114l-0.687 -5.661l-0.006 -3.24l-0.825 -3.792l-0.462 -1.118l-2.162 -1.66l-1.54 -3.186l-10.308 -0.418l-1.273 2.858l-1.987 2.016l-1.842 0.792l-1.337 0.039l-0.03 1.489l-2.473 3.307l-1.742 4.051l-5.218 5.142l-10.031 3.708z" />
  </g>
  <g data-id="039">
    <path d="m541.11 1039.55l-0.046 1.7l14.973 -0.02l16.865 -0.018l14.172 0.02l1.417 0.015l0.025 -15.537l0.021 -15.519l-0.085 -31.216l-15.513 -0.186l-16.293 -0.067l-14.961 0.035l-0.539 46.88l-0.007 10.338l-0.028 3.575z" />
  </g>
  <g data-id="041">
    <path d="m189.608 629.109l0.025 32.29l1.401 -0.002l0.025 32.187l32.016 0.212l13.012 -0.196l34.822 0.176l-0.008 -2.687l-0.056 -13.448l-0.786 -16.079l0.048 -32.325l-48.368 -0.2l-32.131 0.072z" />
  </g>
  <g data-id="043">
    <path d="m386.076 1041.34l-0.109 62.014l17.818 0.009l2.005 -0.003l15.945 0.124l22.576 0.015l3.522 -0.005l6.746 -0.003l1.458 -0.001l7.275 0.002l0.031 -62.186l-15.416 0.033l-7.59 0.005l-1.091 -0.015l-53.173 0.012z" />
  </g>
  <g data-id="045">
    <path d="m618.097 1043.82l0.002 59.523l5.176 -0.034l2.65 0.024l2.502 0.005l11.59 0.003l10.361 -0.016l2.571 -0.033l9.674 -0.004l1.796 0.009l1.292 0.007l16.784 0.029l1.038 -0.012l11.729 -0.018l3.367 -0.005l2.283 0.006l3.596 -0.027l2.307 0.029l2.964 0.02l1.044 -0.027l-0.008 -61.772l-45.015 -0.026l-47.682 -0.214l-0.017 2.535z" />
  </g>
  <g data-id="047">
    <path d="m463.345 1041.31l-0.031 62.186l4.052 0.002l5.213 0.005l2.335 0l3.413 0.009l4.487 0.003l1.18 0.007l1.995 0.003l5.715 -0.014l3.803 -0.001l16.417 0.023l5.541 -0.038l7.702 0l15.481 -0.001l-0.018 -15.529l-0.016 -31.068l-0.009 -15.641l-46.08 0.058l-31.18 -0.003z" />
  </g>
  <g data-id="049">
    <path d="m541.804 947.348l-0.119 31.408l14.961 -0.035l16.293 0.067l15.513 0.186l16.496 0.108l0.018 -31.29l15.497 0.042l0.045 -15.721l24.293 0.193l-2.641 -1.97l-1.846 -1.537l-1.835 -2.137l-0.789 -1.315l-0.657 -1.369l-0.032 -2.93l-0.709 -1.446l-0.789 -2.451l-0.757 -1.254l-1.171 -1.078l-2.394 -1.132l-1.8 -0.323l-3.551 0.224l-1.321 -0.108l-2.04 -0.374l-1.378 -0.769l-1.931 0.321l-1.853 0.172l-1.949 -0.57l-1.393 -0.587l-1.222 0.375l-2.359 -0.746l-1.239 -0.88l-1.158 0.295l-1.705 1.14l-1.214 -0.314l0.035 -1.27l-1.434 -3.435l-0.83 -1.235l-1.281 -0.595l-1.171 0.9l-0.548 -1.06l-1.426 -1.109l-1.684 0.058l-1.109 -1.177l0.437 -1.993l-0.253 -1.771l-1.338 -1.822l-3.058 -1.635l-1.148 -0.969l-2.814 -3.396l-1.288 -1.332l-2.156 -2.114l-2.431 -2.285l0 15.273l-7.812 -0.042l-0.002 15.717l-16.307 -0.051l-0.022 4.648l-4.604 1.908l-3.882 -2.135l-7.023 0.593l-0.019 7.9l-0.097 18.228z" />
  </g>
  <g data-id="051">
    <path d="m125.558 645.072l-0.003 16.135l1.611 0.012l-0.045 32.385l63.937 -0.021l-0.025 -32.187l-1.401 0.002l-0.025 -32.29l-63.951 -0.216l-0.1 16.179z" />
  </g>
  <g data-id="053">
    <path d="m448.053 822.724l-0.072 14.484l0.042 15.876l10.751 -0.013l2.547 -0.092l2.409 0.069l8.337 -0.019l7.442 -0.055l0.286 4.623l0.023 1.368l0.026 9.879l8.065 0.164l2.56 -1.754l5.097 2.633l2.289 2.334l3.284 0.017l2.407 -0.143l10.951 -4.563l5.218 -5.142l1.742 -4.051l2.473 -3.307l0.03 -1.489l-1.998 -3.111l-0.87 -5.232l-0.244 -2.597l-0.636 -7.239l0.002 -3.315l-0.067 -5.386l-2.431 0.013l-5.819 0.031l-1.471 0.025l0.155 -2.885l-0.387 -1.333l0.569 -2.421l0.321 -5.784l-2.125 -2.113l-0.167 -1.247l-0.373 -1.309l-1.62 -2.723l-2.15 -1.388l-1.245 -0.877l-2.707 -3.442l-1.867 -0.586l-5.41 -4.119l-0.932 -1.97l-8.131 -2.611l-3.448 -3.666l-1.221 -0.171l-1.607 2.934l-3.484 0.662l-4.073 2.587l-6.1 0.654l-2.433 2.781l2.601 3.653l0.004 1.563l-4.857 2.667l-3.158 2.685l-3.723 7.117l0.087 1.357l-1.15 1.337l-3.054 0.174l-0.685 4.465z" />
  </g>
  <g data-id="055">
    <path d="m710.813 1041.52l-0.011 61.123l3.839 0.667l3.855 0.012l1.609 -0.004l1.739 0.001l1.2 0.012l1.292 -0.047l1.059 0.007l3.398 0.027l5.168 -0.001l1.265 0.004l6.475 -0.031l3.352 0.015l2.468 0.004l6.273 -0.053l2.628 0.072l14.861 -0.091l1.944 0.09l3.743 -0.011l-0.022 -1.344l-0.054 -1.126l-1.515 -1.274l-0.864 -2.017l-0.833 -1.313l-0.082 -1.57l0.409 -1.044l0.802 -1.208l0.38 -2.46l-0.048 -1.109l-0.935 -1.415l-1.783 -1.889l-1.123 -1.036l-0.918 -1.635l0.038 -2.14l0.681 -1.934l-0.087 -1.686l-1.019 -1.296l-0.194 -2.086l0.066 -1.781l0.639 -3.398l-0.086 -2.529l0.921 -1.726l0.457 -1.102l0.371 -1.406l-0.068 -2.026l1.481 -5.033l-1.198 -1.847l-1.186 -1.571l-0.258 -1.466l-0.981 -2.395l-0.477 -1.985l-0.253 -2.303l-0.831 -1.668l-57.585 0.023z" />
  </g>
  <g data-id="057">
    <path d="m265.29 383.229l0.065 16.623l1.687 0.024l0.059 32.857l-0.146 33.025l1.037 -0.012l-0.096 32.763l48.501 0.146l16.411 0.043l0.072 -16.411l0.131 -16.296l-0.713 -31.464l-0.976 -34.153l0.16 -16.645l-1.67 0.031l-15.068 0.027l-16.464 -0.359l-32.992 -0.199z" />
  </g>
  <g data-id="059">
    <path d="m480.714 698.32l0.384 32.401l0.015 16.001l0.067 10.498l31.562 0.202l13.232 -0.094l2.668 0.104l6.319 -0.024l9.511 0.369l-0.274 -10.781l-0.075 -15.975l-15.445 -0.176l0.023 -31.847l-31.895 -0.011l-16.09 -0.666z" />
  </g>
  <g data-id="061">
    <path d="m363.958 300.316l0.287 48.322l0.263 1.412l-0.258 27.065l2.567 3.196l2.379 -0.74l6.505 3.072l27.036 -12.383l2.953 0.529l1.962 1.813l2.376 5.785l4.341 5.632l-1.72 1.172l-0.198 4.508l2.015 5.059l2.635 0.623l2.544 2.204l1.71 -0.067l5.219 6.309l4.065 0.576l1.749 -3.282l5.566 0.384l-0.332 1.285l3.569 1.76l5.933 -0.803l-1.614 1.069l1.348 4.081l-0.823 3.115l-1.848 0.41l-1.278 4.221l0.875 2.891l3.255 1.782l-0.077 34.557l59.165 0.404l16.187 0.585l17.462 -0.231l-0.031 -15.698l-1.298 -0.008l0.198 -49.843l-0.618 -4.257l0.088 -12.202l0.482 -8.026l0.495 -42.156l-2.701 -0.037l-0.198 -16.503l0.331 -16.443l-89.628 -1.363l-0.052 10.108l-82.887 0.113z" />
  </g>
  <g data-id="063">
    <path d="m230.543 1041.34l-0.249 61.96l2.599 0.051l5.992 0.021l1.623 -0.015l16.039 -0.026l4.65 -0.076l4.454 0.02l1.617 -0.02l1.672 0.077l4.168 -0.054l1.001 0.016l7.817 -0.034l2.618 0.009l2.549 -0.011l2.553 0.062l2.594 0.003l2.565 0.007l2.562 -0.004l2.538 0.007l3.569 -0.009l1.685 -0.01l1.812 0.002l0.741 -62.004l-31.09 0.031l-46.079 -0.005z" />
  </g>
  <g data-id="065">
    <path d="m480.147 652.469l0.567 45.85l16.09 0.666l31.895 0.011l-0.139 -46.381l11.328 -0.042l0.156 -32.898l-16.144 -0.08l-13.612 -0.166l-19.014 1.016l-0.085 32.098l-11.044 -0.073z" />
  </g>
  <g data-id="067">
    <path d="m256.001 757.637l0.001 31.899l1.102 0.005l0.021 15.802l-0.054 15.906l-0.208 31.753l46.947 -0.184l16.322 0.041l0.083 -63.394l-0.715 -15.955l0.019 -15.935l-47.587 0.084l-15.932 -0.023z" />
  </g>
  <g data-id="069">
    <path d="m0 82.046l1 1.228l-0.11 2.346l0.709 1.367l0.299 1.855l0.908 1.265l-0.21 1.096l1.024 1.066l-0.18 1.333l0.259 1.074l1.507 0.895l0.097 1.152l0.032 1.398l-0.016 1.275l1.322 1.127l0.048 1.373l0.935 1.176l0.581 1.667l-0.177 1.053l0.341 1.003l0.01 1.05l-0.867 1.62l0.125 2.066l0.772 1.243l1.087 0.486l-0.038 1.143l0.308 1.708l0.74 1.448l0.475 1.134l-0.095 1.011l0.952 2.095l-0.492 1.684l1.047 1.275l0.46 2.502l0.583 1.642l1.121 1.69l0.664 1.468l0.558 1.676l1.068 2.647l1.285 0.772l-0.175 1.208l0.031 1.95l-0.367 1.286l0.271 1.207l-0.691 1.168l-0.68 1.584l0.197 1.101l0.152 1.216l-1.594 0.313l-0.433 1.106l-0.923 1.235l-0.207 1.109l-0.574 1.182l-0.447 1.423l-0.399 1.061l0.131 2.118l-0.865 1.329l0 1.375l-1.005 0.771l-0.175 1.132l0.845 1.205l-1.115 0.916l-0.287 1.028l100.033 -0.067l0.047 -33.735l-2.252 0.006l-0.063 -55.461l-56.411 -0.025l-49.823 -0.114l-0.217 1.415l-0.889 1.509l-0.094 2.075l-0.153 1.27z" />
  </g>
  <g data-id="071">
    <path d="m362.44 134.53l0.207 65.01l1.417 67.902l-0.004 16.078l-0.103 16.797l82.887 -0.113l0.052 -10.108l89.628 1.363l-0.917 -16.705l-0.093 -17.231l-0.799 -35.204l0.869 -73.457l-6.965 0.522l-4.603 0.309l-3.781 -3.736l-6.123 -0.061l-11.958 3.156l-0.725 2.13l-1.16 0.366l-0.631 1.083l-2.165 0.612l-1.447 0.36l-1.115 -0.837l-1.337 0.387l-1.478 0.84l-1.117 1.202l-3.893 0.653l0.333 3.464l0.605 1.332l0.048 1.046l-0.203 1.276l-0.922 1.681l-2.075 0.687l-2.411 0.379l-1.975 1.249l-2.146 0.456l-1.069 0.502l-2.799 0.19l-2.099 0.463l-1.242 -0.46l-1.324 0.336l-1.601 1.07l-1.512 -0.945l-1.29 -0.698l-0.757 1.473l-0.929 1.023l-1.452 0.302l-2.312 -0.11l-2.107 0.333l-1.6 -0.499l-2.629 -0.035l-1.091 -0.13l-1.252 0.126l-1.432 0.434l-1.321 -0.194l-1.105 0.057l-1.667 0.065l-1.264 -0.103l-2.283 -1.706l-0.788 -1.026l0.089 -1.127l0.822 -1.277l-0.139 -1.31l0.426 -1.323l0.287 -1.147l0.178 -1.29l-0.18 -1.799l-0.681 -1.429l-0.836 -2.023l-0.2 -1.647l-0.333 -1.037l-1.507 -3.1l-1.25 -0.867l-5.539 -0.27l-3.174 -0.76l-1.997 0.675l-2.222 -0.21l-1.315 -0.283l-1.156 -0.665l-1.698 -0.082l-1.748 -0.423l-1.367 -0.593l-3.718 0.374l-1.767 -0.499l-1.195 -0.118l-1.008 0.177l-1.431 -0.543l-2.566 0.434l-1.117 -0.428l-1.307 0.326l-2.104 -0.05l-1.593 -0.247l-2.414 -0.01l-1.334 -0.457l-2.691 -0.449l-1.411 -0.116l-1.927 0.315l-1.268 -0.028l-1.2 -0.549l-1.396 -0.216l-1.313 -1.55l0.51 -3.294l-0.07 -1.031l-0.898 -1.626l-0.818 -1.385l-1.274 -0.188l-0.962 -1.05l-1.154 -0.487l-2.285 -0.487l-2.579 1.126l-1.848 0.215l-1.327 -0.147l-2.005 -0.45l-1.243 -0.75l-1.372 -0.327l-2.254 0.276l-1.274 -0.081l-1.034 1.095z" />
  </g>
  <g data-id="073">
    <path d="m101.453 783.998l0.082 10.984l0.02 1.077l-0.018 4.494l-0.006 9.97l0.043 5.29l-0.024 7.955l-0.004 1.69l0.019 11.836l-0.033 2.692l0.039 9.486l0.005 3.755l0.058 15.381l77.749 0.04l0.201 -15.734l14.212 0.058l0.079 -8.119l-0.881 -1.494l-3.439 0.126l-4.401 -1.03l-2.435 -2.886l-0.189 -3.988l-4.631 -3.719l-1.149 -3.04l-1.843 -0.748l-12.466 -12.696l-2.98 -4.535l-1.17 -0.258l-3.126 -5.21l-2.527 -0.779l-6.107 -3.698l-0.514 -1.193l-3.944 -1.848l-4.499 0.078l-6.56 -5.109l-3.459 0.316l-3.081 -0.665l-1.141 -4.444l-11.436 -2.463l-4.509 0.702l-1.363 -1.832l-4.57 -0.442z" />
  </g>
  <g data-id="075">
    <path d="m702.08 231.441l1.312 126.196l-0.339 32.806l-0.271 47.521l0.119 2.555l-0.278 6.171l-0.065 10.147l0.045 16.197l1.724 -1.173l0.435 -1.119l5.187 -5.872l4.187 -4.236l4.925 -1.713l2.828 -2.308l0.709 -1.959l1.58 -2.483l1.761 -1.75l1.061 -0.78l1.735 -1.018l2.283 -4.023l7.1 -3.451l1.522 -1.966l1.174 -0.776l2.652 -0.586l2.63 -2.558l0.637 -1.139l4.287 -5.122l2.626 -2.233l1.475 -0.641l1.655 -1.995l2.115 -1.698l0.51 -1.129l3.591 -4.998l4.844 -5.126l2.294 -2.125l1.057 -0.41l1.593 -2.13l1.485 -2.756l4.182 -4.607l2.255 -2.075l2.417 -4.987l1.745 -2.391l1.233 -0.505l2.025 -2.307l0.405 -1.154l2.827 -2.323l1.116 -0.397l2.562 -2.838l4.138 -5.296l1.639 -0.327l1.267 -1.284l0.308 -81.069l-0.75 -2.773l-0.655 -31.176l-0.017 -24.038l-1.53 -0.132l-1.671 0.309l-1.159 1.229l-1.305 0.389l-1.684 0.359l-1.185 1.198l-1.419 0.526l-1.171 1.229l-2.66 1.207l0.11 1.294l-2.371 1.678l-2.59 2.835l-1.843 0.178l-3.093 4.242l-1.519 0.632l-1.126 0.724l-1.959 2.286l-2.099 1.038l-1.236 0.043l-1.839 0.877l-1.601 0.176l-1.188 0.018l-1.672 0.066l-1.007 0.631l-2.314 -0.454l-1.887 0.91l-1.848 0.323l-1.505 1.587l-2.933 0.687l-2.036 0.948l-1.025 -0.124l-1.231 -2.69l-0.414 -1.085l-1.957 0.393l-2.987 -0.25l-6.95 2.857l-3.193 1.843l-1.086 -0.979l0.343 -1.641l-0.317 -1.738l0.739 -5.225l2.166 -1.867l-0.814 -1.016l-2.139 0.34l-1.69 0.839l-3.394 0.05l-3.215 0.962l-1.729 -2.443l-1.171 -0.372l-1.144 0.605l-1.21 0.048l-0.374 -1.859l-1.106 -0.309l-1.44 1.117l-1.092 -0.225l0.502 -1.598l1.047 -1.712l0.233 -1.895l-1.335 -2.138l0.441 -1.357l-0.027 -2.139l-1.579 -0.199l-0.649 -1.265l1.309 -1.774l0.247 -1.239l-0.569 -1.013l-3.088 -0.976l-0.788 1.106l-1.157 -0.531l-1.2 -0.058l-2.315 0.207l-1.01 0.751l-0.361 -1.15z" />
  </g>
  <g data-id="077">
    <path d="m244.708 132.168l0.025 33.737l16.848 0.049l0.131 33.85l100.936 -0.265l-0.207 -65.01l-1.084 1.185l-1.02 0.389l-2.307 -0.509l-1.091 -0.263l-1.75 -0.236l-1.768 -0.024l-1.117 -0.428l-2.031 -0.233l-1.091 0.057l-1.608 -2.136l-1.332 -0.787l-1.617 0.134l-2.423 -0.406l-1.123 -1.296l-1.894 -1.501l-1.093 -1.072l-2.812 -0.743l-0.561 -1.531l-0.854 -1.355l-1.071 -0.856l-0.909 -1.141l-2.689 -1.914l-0.821 -2.635l-0.215 -2.041l0.129 -1.848l-1.201 -2.955l0.299 -1.469l2.102 -1.635l-0.95 -2.603l0.361 -1.956l-0.294 -1.096l1.072 -0.677l0.141 -2.154l-4.62 -22.909l-4.037 -19.643l-2.968 -4.134l-3.136 -15.204l0.037 -3.257l-3.602 -15.815l0.112 -2.879l1.041 -2.405l-2.665 -0.61l-2.241 -0.017l-3.124 -1.79l-3.688 -3.033l-5.816 -3.996l-2.861 0.186l-1.887 -0.23l-3.291 2.475l-4.512 0.663l-1.164 -0.023l-4.052 -1.574l-1.679 -0.483l-1.684 -0.587l-1.368 -0.579l-1.979 -1.756l-1.024 -0.449l-0.458 2.272l-0.015 2.915l0.008 2.126l0.002 6.805l-0.012 11.728l0.015 12.863l-0.052 36.645l-21.443 0.026l-0.886 3.283l1.165 5.824l-0.633 3.293l2.787 6.179l5.959 3.875l2.484 0.593l12.576 -2.626l6.023 -5.062l0.207 40.672l-32.628 0.007z" />
  </g>
  <g data-id="079">
    <path d="m414.707 967.769l1.725 3.281l6.807 0.015l4.527 -0.072l4.582 0.074l15.547 0.007l0.008 7.84l31.093 -0.049l0.232 -15.62l0.113 -47.107l-3.585 0.014l-5.911 -0.037l-6.337 -0.028l-33.983 0.133l3.23 4.517l-4.055 9.957l-1.645 1.166l0.214 2.044l-1.681 5.974l-1.261 1.006l-0.589 5.918l-0.88 1.628l3.778 3.785l-3.481 6.621l-4.045 2.133l-0.904 3.003l-3.497 3.796z" />
  </g>
  <g data-id="081">
    <path d="m101.476 978.725l48.283 0.05l-0.101 -31.522l-0.135 -31.025l-1.65 -0.11l0.032 -15.717l-46.298 -0.157l-0.017 15.815l-0.044 3.111l0.029 1.799l0.005 1.824l-0.019 6.115l0.04 2.285l-0.014 3.408l-0.019 9.368l-0.008 1.085l-0.01 4.247l-0.012 2.674l0 3.111l0.008 2.657l0.001 2.652l-0.033 2.338l0.018 2.472l-0.007 3.009l-0.046 10.512z" />
  </g>
  <g data-id="083">
    <path d="m147.905 900.4l-0.032 15.717l1.65 0.11l0.135 31.025l0.101 31.522l1.91 0.035l60.672 0.161l0.037 -15.748l-0.101 -15.752l-0.097 -31.095l-1.185 -15.878l-63.09 -0.098z" />
  </g>
  <g data-id="085">
    <path d="m353.204 836.892l-0.066 15.931l0.598 15.888l-0.04 15.96l0.031 15.831l31.37 -0.071l0.083 -15.885l31.43 0.071l0.081 -31.723l-0.306 -15.824l-31.463 -0.137l-31.718 -0.042z" />
  </g>
  <g data-id="087">
    <path d="m151.173 366.748l0.071 66.117l66.566 0.068l-0.035 -66.354l-66.602 0.169z" />
  </g>
  <g data-id="089">
    <path d="m9.822 165.174l1.181 0.947l0.622 1.325l-0.51 1.589l0.638 4.044l1.004 1.276l0.138 2.049l-0.688 1.428l0.111 1.034l0.08 1.443l1.148 0.986l0.079 1.732l-0.527 1.563l0.351 1.538l-0.542 1.13l0.461 1.198l-0.884 1.485l0.961 1.942l-0.657 1.447l-0.657 2.018l0.657 1.295l-0.253 1.561l-0.682 1.065l-0.051 1.713l0.502 1.049l0.694 1.365l0.872 1.232l-0.032 1.088l-0.361 1.328l0.927 1.04l-0.625 1.52l0.683 1.028l0.125 1.259l-0.144 1.013l-0.202 1.085l1.437 1.823l-0.82 2.373l-1.002 0.71l0.606 1.303l-0.058 1.259l-1.347 1.579l0.312 1.404l-0.671 1.348l0.582 1.134l0.089 1.021l-0.231 1.096l0.345 1.498l-0.421 1.92l-1.061 2.232l0.613 1.345l-0.545 1.137l83.208 -0.171l30.832 -0.155l2.931 0.439l8.457 -0.204l8.411 0.367l16.352 0.021l50.057 -0.238l0.076 -37.322l-1.133 0.003l0.159 -25.312l-0.203 -8.434l-101.358 -1.057l-100.033 0.067z" />
  </g>
  <g data-id="091">
    <path d="m307.712 1041.31l-0.014 61.992l30.792 0.012l6.484 0.038l12.29 -0.001l3.016 -0.053l7.284 0.03l1.694 0.016l16.71 0.008l0.109 -62.014l-15.723 -0.018l-62.641 -0.009z" />
  </g>
  <g data-id="093">
    <path d="m319.501 773.51l0.715 15.955l-0.083 63.394l33.006 -0.036l0.066 -15.931l31.718 0.042l0.01 -15.856l0.029 -15.782l-0.117 -15.863l-0.534 -8.189l-15.823 0.21l-0.014 -8.055l-19.589 0.11l-2.78 0.039l-10.733 0.053l-15.869 -0.092z" />
  </g>
  <g data-id="095">
    <path d="m442.362 603.827l0.071 16.134l0.005 32.269l5.346 0.103l0.067 13.514l0.571 16.225l0.582 48.489l32.094 0.161l-0.384 -32.401l-0.567 -45.85l11.044 0.073l0.085 -32.098l0.284 -5.164l-0.131 -12.065l-47.179 0.599l-1.888 0.013z" />
  </g>
  <g data-id="097">
    <path d="m333.646 584.115l0.717 12.375l-0.04 48.805l-0.076 16.264l0.622 29.433l16.863 -0.08l31.164 -0.153l-5.191 -2.846l-0.158 -1.755l-1.887 0.27l-3.259 -4.324l44.217 -0.373l31.804 0.34l-0.571 -16.225l-0.067 -13.514l-5.346 -0.103l-0.005 -32.269l-48.778 -0.087l-24.026 -0.008l1.085 -4.283l-3.811 -5.923l0.172 -3.143l0.705 -1.764l4.338 -3.159l2.004 -2.798l-0.246 -1.422l-1.056 -0.124l0.798 -1.542l-2.194 -2.499l-1.298 0.531l-1.348 -2.255l-5.851 -4.315l-4.378 0.219l-3.015 2.87l-3.104 0.55l-3.463 1.88l-2.769 -0.81l-3.79 -3.221l-2.837 -0.951l-1.975 0.524l-3.95 -4.114z" />
  </g>
  <g data-id="099">
    <path d="m540.606 1041.25l0.009 15.641l0.016 31.068l0.018 15.529l3.195 0l2.136 -0.006l17.754 0.01l10.317 -0.003l4.933 -0.092l5.778 0.003l1.874 0.001l2.607 0.001l2.485 0.001l12.923 -0.045l11.439 -0.008l2.007 -0.013l-0.002 -59.523l-31.009 0.046l-0.014 -2.634l-14.172 -0.02l-16.865 0.018l-14.973 0.02z" />
  </g>
  <g data-id="101">
    <path d="m151.669 978.809l-0.109 62.337l1.587 -0.006l31.04 0.149l45.076 0.058l-0.015 -62.452l-16.906 0.074l-60.672 -0.161z" />
  </g>
  <g data-id="103">
    <path d="m317.237 931.872l1.681 2.462l2.299 -1.2l3.039 2.873l4.025 0.996l-0.998 2.104l1.851 -0.112l-0.577 2.717l1.576 -1.26l1.887 2.731l1.552 -0.969l4.207 3.127l3.266 -0.545l2.241 2.357l3.083 -0.646l1.011 1.972l3.106 -0.122l1.773 1.848l2.308 -0.816l-0.046 1.339l3.914 3.578l1.226 -0.191l0.002 3.053l2.615 3.701l2.243 1.635l0.379 2.487l5.099 1.571l4.461 1.378l2.456 2.467l3.515 0.642l0.52 1.987l3.98 0.872l0.472 1.495l4.308 0.317l0.548 2.197l8.096 1.728l1.301 -0.321l3.583 2.241l0.545 1.57l4.658 2.496l1.458 -0.775l2.133 1.459l0.242 -1.362l5.246 -1.259l-2.73 -9.49l1.643 -3.152l-1.725 -3.281l3.497 -3.796l0.904 -3.003l4.045 -2.133l3.481 -6.621l-3.778 -3.785l0.88 -1.628l0.589 -5.918l1.261 -1.006l1.681 -5.974l-0.214 -2.044l-89.632 0.124l-20.185 -0.112z" />
  </g>
  <g data-id="105">
    <path d="m153.106 1056.88l-0.067 46.508l24.776 0.037l3.45 0l1.696 0l10.285 0.013l29.264 0.004l3.609 -0.068l1.515 -0.016l2.627 -0.041l0.284 -61.974l-1.281 0.008l-45.076 -0.058l-31.04 -0.149l-0.041 15.735z" />
  </g>
  <g data-id="107">
    <path d="m48.38 381.666l0.283 1.109l1.128 1.196l0.677 1.092l0.284 1.329l0.677 1.201l-0.062 1.092l-0.752 1.383l-0.255 1.205l-0.071 1.315l0.173 1.074l0.382 1.637l0.59 1.614l0.267 1.633l0.432 1.165l-0.086 1l-0.863 1.635l1.245 1.018l-1.424 2.673l0.317 1.708l0.161 1.343l-0.384 1.235l0.074 1.235l0.123 1.108l0.814 1.47l-0.247 1.181l0.476 1.176l-0.512 1.185l-0.16 1.289l0.406 1.089l0.271 1.234l-0.209 1.017l-0.32 1.196l0.111 1.16l0.554 1.27l0.714 1.052l-0.321 1.052l0.666 1.215l0.283 1.106l-0.333 1.142l-0.851 1.54l82.141 -0.047l16.465 -0.126l-0.071 -66.117l-101.183 0.073l-0.672 1.009l0.173 1.184l-0.321 1.076l0.296 1.13l-0.478 1.687l0.268 1.266l-0.086 1.094l-0.178 1.686l-0.031 1.613l-0.136 1.329l0.16 1.185z" />
  </g>
  <g data-id="109">
    <path d="m587.075 1041.23l0.014 2.634l31.009 -0.046l0.017 -2.535l47.682 0.214l0.097 -15.55l-0.122 -31.053l-30.901 -0.134l-0.002 -15.524l-15.41 -0.083l-14.511 -0.072l-16.496 -0.108l0.085 31.216l-0.021 15.519l-0.025 15.537l-1.417 -0.015z" />
  </g>
  <g data-id="111">
    <path d="m123.643 531.247l0.126 65.283l1.981 0.004l-0.093 32.358l63.951 0.216l32.131 -0.072l48.368 0.2l0.011 -32.734l-1.092 -0.011l-0.17 -16.154l0.004 -48.935l-1.013 0l-0.041 -16.493l-35.065 0.324l-6.851 -0.305l-6.988 0.299l-32.523 -0.087l-49.008 -0.272l0.299 16.388l-14.027 -0.011z" />
  </g>
  <g data-id="113">
    <path d="m95.249 249.646l0.016 16.805l2.363 -0.003l0.005 11.198l99.705 -0.142l0.029 5.495l16.447 0.354l-0.094 -16.691l-1.239 0l-0.168 -29.435l-50.057 0.238l-16.352 -0.021l-8.411 -0.367l-8.457 0.204l-2.931 -0.439l-30.832 0.155l-0.024 12.649z" />
  </g>
  <g data-id="115">
    <path d="m528.561 652.615l0.139 46.381l38.806 0.117l1.337 -0.573l1.823 -1.649l1.446 -1.009l0.865 -1.14l1.81 -1.95l0.419 -1.64l0.227 -1.758l0.403 -1.379l1.041 -1.479l1.215 -1.102l0.137 -1.342l-0.509 -1.242l-0.389 -1.283l0.412 -1.667l1.617 -1.27l1.185 -1.031l0.5 -2.38l0.268 -1.664l1.666 -2.909l1.113 -1.464l1.192 -0.825l2.496 -1.443l1.056 -0.656l0.695 -1.626l1.394 -1.241l2.637 -0.3l-0.129 -1.47l1.4 0.014l1.929 -0.395l1.529 -1.166l1.59 -0.178l1.235 -0.831l1.394 -0.352l1.098 -0.531l1.203 -0.12l0.267 -1l0.007 -2.032l1.561 -1.826l1.375 -1.007l3.163 0.603l1.489 0.823l1.486 0.291l1.307 0.034l1.045 -1.043l-0.42 -1.043l1.035 -0.966l0.369 -1.101l0.517 -1.129l0.689 -1.283l0.263 -1.304l1.769 -1.498l1.014 -0.47l1.296 -0.091l2.318 1.435l1.416 0.466l1.16 0.527l1.365 0.203l1.34 -0.48l0.227 -1.152l0.743 -1.03l0.234 -1.321l-0.152 -1.185l0.647 -1.708l0.42 -1.731l0.714 -1.077l1.352 -0.757l1.622 -0.58l1.047 -0.108l0.659 -7.597l-0.023 -8.099l-0.005 -1.773l-0.015 -2.466l0.039 -8.297l-0.008 -3.631l0.07 -9.536l0.031 -1.717l-0.005 -1.762l0.013 -1.039l-0.01 -18.308l-33.588 -0.164l-32.259 -0.058l-32.475 -0.161l0.126 48.764l-0.156 32.898l-11.328 0.042z" />
  </g>
  <g data-id="117">
    <path d="m101.394 1009.54l0.045 2.966l-0.031 2.541l0.004 2.591l-0.003 2.349l0 2.934l0.014 12.926l-0.011 5.198l50.148 0.102l0.109 -62.337l-1.91 -0.035l-48.283 -0.029l-0.053 28.475l-0.028 2.322z" />
  </g>
  <g data-id="119">
    <path d="m11.94 237.505l0.314 1.74l0.688 1.39l-0.435 1.402l1.029 1.204l0.273 1.161l0.502 1.671l0.864 1.983l-0.2 1.435l1.282 0.64l0.615 1.23l0.587 1.025l0.221 1.043l0.352 1.355l-0.61 1.454l2.216 3.16l1.464 1.061l0.675 2.116l0.219 2.715l-0.413 1.215l0.34 1.007l0.325 1.276l0.319 2.131l1.205 1.077l-0.198 2.384l-0.371 1.268l-0.283 1.561l0.968 1.195l-0.142 1.715l0.529 1.426l1.535 0.559l0.233 1.387l0.993 1.098l1.535 1.502l0.065 1.29l0.284 1.136l-1.097 -0.25l0.425 1.213l-0.606 1.386l0.748 1.001l-0.8 1.058l0.955 1.115l-0.426 1.135l2.051 0.461l-0.026 1.193l1.127 1.841l0.049 1.621l0.448 1.55l1.45 1.439l0.309 1.132l-0.138 1.705l0.193 1.111l0.35 1.602l1.302 0.816l1.059 1.014l-0.967 1.361l1.141 0.987l2.236 2.188l0.096 1.149l0.741 1.076l0.469 1.242l0.07 1.045l-0.62 1.184l1.061 1.855l0.725 1.254l-0.118 1.148l0.035 1.179l0.737 1.068l0.598 1.439l-0.048 1.165l1.087 -0.075l0.645 3.232l0.916 1.183l0.505 1.349l-0.163 1.628l0.53 2.171l0.059 1.575l0.374 2.472l1.113 0.485l1.37 1.123l0.703 1.12l-0.104 1.04l0.114 1.179l0.446 1.046l-0.255 1.871l-0.338 1.172l-0.098 1.046l-0.099 1.193l0.3 1.351l-0.147 1.078l0.211 1.168l-0.061 1.059l-0.701 1.486l-0.391 1.764l0.657 1.033l0.914 1.118l-0.251 1.474l101.38 0.418l66.242 -0.145l0.11 -33.234l-3.283 -0.013l-0.428 -50.003l-16.447 -0.354l0.061 16.782l-16.475 0.072l-0.045 16.776l-66.394 0.114l-0.127 -16.719l-16.695 -0.019l-0.059 -22.36l-0.005 -11.198l-2.363 0.003l-0.016 -16.805l0.024 -12.649l-83.208 0.171z" />
  </g>
  <g data-id="121">
    <path d="m191.059 693.583l0.023 32.209l1.364 -0.002l0.045 31.886l31.867 0.077l31.643 -0.116l15.932 0.023l0.032 -31.779l-1.081 0.003l0.024 -32.107l-34.822 -0.176l-12.949 0.196l-32.079 -0.212z" />
  </g>
  <g data-id="123">
    <path d="m517.599 813.637l0.012 2.526l0.064 5.151l0.023 2.757l0.017 2.605l2.431 -0.013l0.067 5.386l-0.002 3.315l-0.022 6.358l0.902 3.478l0.056 4.591l2.985 2.758l1.164 0.955l1.842 -0.792l1.987 -2.016l1.273 -2.858l10.031 0.027l1.817 3.577l2.162 1.66l2.015 -0.003l2.608 -0.697l-0.068 -12.513l0.004 -4.442l-0.009 -7.564l0 -5.191l0.032 -7.186l-0.004 -3.498l-0.009 -1.405l-4.632 -0.045l-11.124 -0.043l-10.578 -0.05l-3.092 -0.008l-1.939 -0.021l-0.017 3.199z" />
  </g>
  <g data-id="125">
    <path d="m97.634 277.646l0.059 22.36l16.695 0.019l0.127 16.719l66.394 -0.114l0.045 -16.776l16.475 -0.072l-0.061 -16.782l-0.029 -5.495l-99.705 0.142z" />
  </g>
  <g data-id="127">
    <path d="m212.18 916.376l0.097 31.095l0.101 15.752l-0.037 15.748l16.906 -0.074l30.008 0.122l14.032 -0.007l1.607 0.046l0.167 -15.619l31.125 -0.109l0.056 -38.975l-1.623 -2.974l-4.641 -0.209l-1.901 -1.535l-5.154 -1.714l-2.534 -2.24l-3.426 0.637l-2.359 -2.649l-3.241 -0.926l-2.371 -2.015l-2.734 0.263l-0.792 -2.791l-1.638 -1.053l-3.809 -2.588l-0.52 -1.384l-4.623 -1.688l-7.459 -7.723l-3.207 1.424l-2.727 -0.398l-2.903 -2.928l-0.639 -2.825l-5.487 -0.986l-0.029 28.421l-30.247 -0.098z" />
  </g>
  <g data-id="129">
    <path d="m226.622 853.111l-0.192 17.142l0.198 8l3.504 2.112l1.881 -0.479l5.129 4.446l5.313 3.722l5.487 0.986l0.639 2.825l2.903 2.928l2.727 0.398l3.207 -1.424l7.459 7.723l4.623 1.688l0.52 1.384l3.809 2.588l1.638 1.053l0.792 2.791l2.734 -0.263l2.371 2.015l3.241 0.926l2.359 2.649l3.426 -0.637l2.534 2.24l5.154 1.714l1.901 1.535l4.641 0.209l1.623 2.974l6.573 2.49l0.626 2.377l3.793 2.65l20.185 0.112l-0.018 -15.609l-0.664 -31.611l16.957 -0.092l0.04 -15.96l-0.005 -15.41l-33.599 -0.442l-16.322 -0.041l-46.947 0.184l-30.241 0.109z" />
  </g>
  <g data-id="131">
    <path d="m479.228 963.246l-0.004 15.616l15.312 -0.044l15.495 -0.018l16.025 -0.016l15.016 -0.027l0.732 -31.41l0.097 -18.228l-31.252 -0.023l0.021 -13.02l-9.83 -0.009l-21.5 0.07l-0.113 47.107z" />
  </g>
  <g data-id="133">
    <path d="m101.394 1072.24l0.003 11.601l0.001 3.878l0.016 15.629l13.187 0.01l2.451 -0.015l15.903 0.004l1.297 0.014l18.787 0.024l0.067 -46.508l0.041 -15.735l-1.587 0.006l-50.148 -0.084l0.023 7.938l-0.025 2.447l-0.013 18.181l-0.004 2.61z" />
  </g>
  <g data-id="135">
    <path d="m107.587 75.917l0.063 55.461l2.252 -0.006l-0.047 33.735l101.358 1.057l2.011 0.069l31.509 -0.327l-0.025 -33.737l32.628 -0.007l-0.207 -40.672l-6.023 5.062l-12.576 2.626l-2.484 -0.593l-5.959 -3.875l-2.787 -6.179l0.633 -3.293l-1.165 -5.824l0.886 -3.283l-25.37 -0.102l-29.871 -0.041l-46.611 -0.095l-38.215 0.024z" />
  </g>
  <g data-id="137">
    <path d="m534.715 222.317l-0.169 35.223l1.061 17.212l0.917 16.705l-0.331 16.443l0.198 16.503l2.701 0.037l-0.495 42.156l-0.482 8.026l-0.088 12.202l0.618 4.257l-0.198 49.843l1.298 0.008l0.031 15.698l-0.721 49.071l32.63 0.043l19.349 -0.551l2.619 0.452l27.088 0.38l16.36 0.131l0.074 14.065l0.002 4.226l1.148 0.681l1.097 0.841l1.2 0.264l0.49 1.26l1.406 -1.203l2.219 1.485l1.806 -0.695l1.561 0.582l1.2 -0.395l0.632 -1.316l-0.426 -1.09l0.775 -1.035l0.903 -1.222l1.432 -0.658l0.684 -1.147l-0.233 -1.035l-2.658 -0.809l-0.93 -1.204l1.071 -0.96l0.761 -1.618l1.626 -0.094l1.497 -0.602l1.561 0.753l1.149 0l0.645 -1.75l-0.258 -1.77l3.445 -2.637l1.084 -0.094l2.413 -0.019l7.161 7.586l1.768 0.922l-0.71 -1.279l-4.994 -6.513l-3.071 -5.312l-0.748 -2.676l1.033 -1.225l3.097 -1.828l0.413 -1.112l5.869 -4.486l1.989 -0.945l1.665 -2.056l4.142 -3.283l3.886 -2.513l1.018 -0.658l1.097 -1.397l2.999 -2.737l1.542 -0.496l3.863 -3.185l1.971 -0.375l2.48 -1.233l1.653 -1.124l-0.045 -16.197l0.065 -10.147l-0.032 -5.776l0.191 -2.95l0.271 -47.521l0.339 -32.806l-1.332 -126.205l-1.392 -0.611l-0.869 -1.11l-2.091 0.474l-1.786 0.129l-2.395 0.311l-0.452 -2.336l-2.169 -1.593l-1.133 -2.01l-1.329 0.128l-1.549 -0.355l-1.713 0.588l-1.072 0.314l-1.007 0.73l-1.064 -0.491l-0.568 -1.262l0.736 -1.481l-0.964 -1.244l-1.377 -0.008l-0.105 1.149l-1.253 -0.027l-1.132 -2.406l-2.198 -1.009l-0.086 -2.902l-0.622 -1.334l-0.118 -1.963l1.658 -4.649l-3.966 -0.867l-0.884 -1.428l-1.141 -0.302l-0.141 -1.752l-0.977 -2.999l-1.425 -0.076l-1.509 0.262l-1.844 0.706l-6.623 -0.292l-0.189 -1.851l-2.208 0.461l-1.96 1.175l-0.137 1.038l-1.955 0.635l-1.306 -0.67l-0.429 1.004l-1.287 0.345l-5.845 -1.907l-3.447 2.319l-0.828 3.694l-1.181 0.19l-0.226 1.268l1.52 1.938l-0.893 3.461l0.746 2.034l0.145 1.271l0.538 1.169l2.15 1.702l0.511 1.648l-1.417 0.77l-4.379 0.725l-1.373 0.677l-1.077 0.607l-2.002 0.483l-1.667 1.651l-1.381 -0.163l-0.658 -1.146l-0.131 -1.191l-0.705 -1.382l-0.344 -1.231l-0.869 -2.188l-1.668 -3.642l-1.236 -3.124l-1.263 -1.751l-1.516 -1.038l-0.447 -1.117l-1.601 -2.701l-2.098 -4.333l-0.878 -3.869l2.627 -5.707l0.008 -2.541l-2.485 -0.892l-0.718 -1.275l-1.037 -0.968l-2.335 -3.413l-3.86 0.034l-4.959 1.337l-10.373 0.801l-4.126 -1.397l-3.17 -3.721l0.505 -1.428l0.948 -2.771l0.319 -2.006l1.801 -0.529l3.026 0.205l1.846 -0.652l1.344 0.093l1.221 -0.77l0.24 -1.857l-0.047 -1.027l-1.186 -4.81l-2.961 -0.661l-9.054 1.359l-21.502 -10.846l-1.969 -0.273l-2.538 -2.061l-2.61 -0.272l-0.036 -4.323l-4.496 1.305l-13.352 -0.755l-0.869 73.457z" />
  </g>
  <g data-id="139">
    <path d="m431.982 912.149l-2.458 4.072l33.983 -0.133l6.337 0.028l5.911 0.037l3.585 -0.014l21.5 -0.07l9.83 0.009l0.387 -1.308l0.046 -14.417l-5.231 0.031l0.046 -9.212l0.025 -6.567l-1.322 0.001l-0.032 -5.249l-0.008 -5.241l-0.116 -2.875l-2.873 0.217l-3.738 0.764l-2.289 -2.334l-5.097 -2.633l-2.56 1.754l-8.065 -0.164l-2.684 -0.054l-7.559 4.039l0.72 1.115l-3.578 2.896l-1.235 4.038l0.62 3.558l1.118 1.941l-3.339 2.743l-3.099 -0.471l-3.911 4.684l-6.331 4.387l-1.083 1.878l-1.588 -0.978l-3.107 2.053l-3.019 -0.726l-2.712 2.63l-2.728 -0.474l-0.366 2.7l-1.723 -0.117l-3.691 3.479l1.26 0.482l-0.994 2.819l1.17 0.683z" />
  </g>
  <g data-id="141">
    <path d="m398.677 730.667l0.307 1.867l-0.254 4.305l1.238 1.695l-0.326 4.257l4.419 3.842l0.96 1.053l-0.212 1.949l2.936 3.329l3.629 0.647l0.483 2.128l2.795 3.38l2.286 -0.034l-0.154 2.533l1.669 -1.982l2.912 2.36l2.096 1.995l5.016 -1.18l3.825 3.916l2.747 4.365l4.703 0.826l4.067 4.503l5.55 2.848l6.738 -0.551l2.393 -1.345l1.61 1.623l12.126 0.749l1.796 -1.734l1.746 6.71l3.908 3.367l1.221 0.171l0.155 -9.839l0.155 -15.837l-0.036 -5.363l-0.067 -10.498l-0.015 -16.001l-32.094 -0.161l-31.928 0.076l-18.399 0.031z" />
  </g>
  <g data-id="143">
    <path d="m336.739 884.763l0.026 31.608l0.656 15.612l89.632 -0.124l1.645 -1.166l4.055 -9.957l-3.23 -4.517l2.458 -4.072l-1.17 -0.683l0.994 -2.819l-1.26 -0.482l3.691 -3.479l1.723 0.117l0.366 -2.7l2.728 0.474l2.712 -2.63l3.019 0.726l3.107 -2.053l-0.018 -6.025l-15.568 0.02l0.025 -7.92l-15.724 -0.076l-31.43 -0.071l-0.083 15.885l-31.37 0.071l-0.031 -15.831l-16.957 0.092z" />
  </g>
  <g data-id="145">
    <path d="m270.909 693.776l-0.024 32.107l1.081 -0.003l-0.032 31.779l47.587 -0.084l-0.019 15.935l15.869 0.092l10.733 -0.053l2.78 -0.039l19.589 -0.11l0.014 8.055l15.823 -0.21l0.495 -4.096l8.996 -2.203l1.786 3.093l2.157 -0.464l4.63 -3.977l5.09 -7.567l-0.301 -2.39l3.968 -8.051l0.244 -1.98l-3.629 -0.647l-2.936 -3.329l0.212 -1.949l-0.96 -1.053l-4.419 -3.842l0.326 -4.257l-1.238 -1.695l0.254 -4.305l-0.307 -1.867l-1.46 -1.345l-0.592 -1.365l-0.426 -2.268l-3.222 -3.11l-1.294 -3.067l-0.025 -5.135l0.747 -3.924l2.035 -1.886l-2.677 0.129l-2.792 -6.866l1.158 -2.078l-5.679 -2.92l-1.555 -6.076l-31.164 0.153l-16.863 0.08l-15.859 0.007l-48.107 0.092l0.008 2.687z" />
  </g>
  <g data-id="147">
    <path d="m494.537 1025.73l-0.011 15.583l46.08 -0.058l0.505 -1.704l0.028 -3.575l0.007 -10.338l-0.074 -46.878l-15.016 0.027l-16.025 0.016l-15.495 0.018l0.038 31.362l-0.036 15.548z" />
  </g>
  <g data-id="149">
    <path d="m127.121 693.604l0.129 32.185l1.496 -0.015l0.013 31.837l16.038 0.124l47.695 -0.059l-0.045 -31.886l-1.364 0.002l-0.023 -32.209l-63.937 0.021z" />
  </g>
  <g data-id="151">
    <path d="m144.63 761.496l0.035 27.844l1.851 0.003l0.012 11.555l6.107 3.698l2.527 0.779l101.963 -0.033l-0.021 -15.802l-1.102 -0.005l-0.001 -31.899l-31.643 0.116l-31.867 -0.077l-47.695 0.059l-0.166 3.761z" />
  </g>
  <g data-id="153">
    <path d="m268.857 580.338l0.17 16.154l1.092 0.011l-0.011 32.734l-0.048 32.325l0.786 16.079l0.056 13.448l48.107 -0.092l15.859 -0.007l-0.622 -29.433l0.076 -16.264l0.04 -48.805l-0.717 -12.375l-8.764 -0.535l-1.298 -3.191l-54.726 -0.051z" />
  </g>
  <g data-id="155">
    <path d="m49.362 721.453l0.389 1.242l1.201 1.463l1.147 1.521l75.152 0.111l-0.129 -32.185l0.045 -32.385l-1.611 -0.012l0.003 -16.135l-40.055 -0.044l0.09 2.573l0.292 1.057l0.145 2.365l0.013 1.736l0.262 3.089l0.716 2.459l0.293 2.461l-0.257 2.01l0.067 1.242l-0.326 1.426l-0.094 1.202l-0.101 1.242l-0.029 1.389l-0.563 2.729l-0.26 1.79l0.019 4.394l-0.384 1.85l-0.291 1.35l-0.432 1.073l-1.307 1.139l-1.116 1.394l-0.743 1.346l-1.364 1.482l-1.237 0.893l-1.144 2.319l-0.392 1.536l-0.291 1.023l-1.327 2.416l-1.338 1.503l-1.299 1.173l-1.879 1.184l-3.088 1.547l-4.378 2.954l-1.56 1.962l-5.546 4.174l-3.355 2.62l-1.24 0.834l-1.089 1.858l-0.956 3.722l-0.649 1.913z" />
  </g>
  <g data-id="157">
    <path d="m604.966 947.791l-0.018 31.29l14.511 0.072l15.41 0.083l0.002 15.524l30.901 0.134l0.033 -15.462l28.496 -0.007l-1.803 -1.11l-0.515 -1.873l-0.504 -1.256l-1.229 -1.752l-0.409 -1.596l0.653 -2.026l0.011 -1.4l-1.056 -1.567l0.046 -1.826l-1.308 -1.551l-1.87 -0.88l-0.606 -1.501l0.51 -1.126l0.86 -1.291l-0.237 -1.779l-1.213 -2.787l-2.029 -1.34l-1.069 -1.411l-1.281 -1.914l-1.381 -1.158l-1.077 -0.461l-1.125 -0.135l-1.662 -1.056l-1.087 -0.841l-1.384 -0.287l-2.43 -1.357l-1.05 -1.023l-0.937 -1.26l-1.044 -0.497l-1.372 0.019l-1.468 -0.573l-1.778 -0.773l-1.764 -0.449l-1.293 -1.197l-2.383 -0.741l-2.953 -0.458l-1.01 -0.251l-3.238 -0.939l-2.553 -0.851l-2.234 -1.252l-1.231 -1.594l-24.293 -0.193l-0.045 15.721l-15.497 -0.042z" />
  </g>
  <g data-id="159">
    <path d="m267.807 514.91l0.041 16.493l1.013 0l-0.004 48.935l54.726 0.051l0.45 -2.264l-3.076 0.31l-3.526 -2.836l-0.885 -44.323l-0.084 -16.106l-0.064 -16.515l-48.501 -0.146l-0.09 16.402z" />
  </g>
  <g data-id="161">
    <path d="m447.903 978.915l0.027 62.425l15.416 -0.033l31.18 0.003l0.011 -15.583l0.036 -15.548l-0.038 -31.362l-15.312 0.044l-31.321 0.053z" />
  </g>
  <g data-id="163">
    <path d="m544.219 872.028l0.717 2.034l1.288 0.705l4.023 -0.115l5.957 -1.654l5.945 1.329l3.517 4.796l5.505 0.084l1.297 0.264l-0.698 -1.031l0.081 -1.352l0.268 -1.718l0.642 -1.639l1.488 -1.893l0.75 -1.88l0.189 -2.051l1.14 -2.186l0.051 -1.205l0.795 -1.259l0.106 -1.111l-0.425 -2.42l-0.067 -1.389l0.695 -1.844l-0.761 -1.973l-0.56 -1.28l-0.081 -1.473l1.708 -1.607l0.742 -2.136l0.638 -3.402l-0.51 -3.367l-0.787 -1.68l-1.012 -0.886l-0.227 -1.664l0.162 -1.683l-0.23 -1.083l-0.051 -1.322l0.402 -1.412l0.721 -2.087l-0.267 -1.5l-1.834 -1.928l-1.174 -0.765l-1.183 -1.303l-0.642 -1.237l-0.11 -1.457l1.368 -2.446l2.361 -1.89l1.085 -1.205l1.447 -1.356l1.22 -0.944l0.69 -1.333l-0.785 -1.368l-0.486 -2.751l-0.952 -2.515l-0.125 -1.584l0.675 -2.059l-1.591 -2.02l-0.327 -1.346l0.451 -2.691l1.277 -1.447l0.297 -1.081l-0.518 -1.335l-0.228 -2.265l-0.354 -2.069l0.651 -1.308l0.456 -1.682l-0.821 -1.634l-0.497 -1.855l0.407 -1.106l1.018 -0.37l-8.265 -0.614l-26.395 -0.11l-0.039 15.769l-0.042 4.947l-0.058 10.98l4.632 0.045l0.009 1.405l0.004 3.498l-0.032 7.186l-0.003 4.278l0.012 8.477l-0.004 4.442l0.068 12.513l-2.608 0.697l-2.015 0.003l0.462 1.118l0.825 3.792l0.006 3.24l0.687 5.661l-2.169 5.114z" />
  </g>
  <g data-id="165">
    <path d="m307.021 994.709l0.054 46.607l63.279 0.008l-0.006 -15.558l0.022 -31.18l-47.677 -0.036l-15.672 0.158z" />
  </g>
  <g data-id="167">
    <path d="m58.632 531.496l0.114 1.474l0.703 1.023l0.37 1.292l0.406 1.045l0.289 1.046l1.084 0.968l0.493 1.148l0.641 1.488l1.11 2.439l-0.48 1.147l0.469 1.596l0.123 1.219l0.16 1.182l-0.259 1.039l0.756 1.353l0.138 1.53l-0.149 1.551l0.111 1.612l0.403 1.222l-0.442 1.196l0.223 1.217l1.207 0.928l0.728 1.202l0.493 1.038l0.335 1.001l-0.476 1.352l0.273 1.375l-0.211 1.182l1.159 0.555l0.383 1.037l0.493 1.109l0.765 1.001l0.961 1l0.53 1.144l2.026 3.178l-0.085 1.009l0.336 1.718l1.13 0.387l0.417 1.388l1.119 0.646l0.075 1.679l1.855 -0.041l1.392 1.148l0.043 1.17l1.598 1.639l1.073 0.41l-0.165 2.024l0.362 1.306l-0.403 1.575l0.347 1.192l0.221 1.103l0.112 1.072l-0.296 1.124l0.203 2.271l-0.375 1.081l0.789 1.016l0.148 1.105l-0.228 1.013l-0.428 3.283l0.243 1.47l1.151 1.853l0.238 1.031l0.081 1.18l-0.446 1.158l-0.107 1.232l0.123 1.176l0.616 1.494l0.66 1.51l-0.347 2.154l0.39 1.171l1.048 2.098l-0.106 1.238l0.909 1.401l-0.346 1.405l0.846 1.292l0.322 1.451l0.042 1.926l-0.225 2.75l0.152 1.351l-0.305 1.22l-0.906 1.275l-0.948 2.511l-0.554 2.051l40.232 0.979l0.1 -16.179l0.093 -32.358l-1.981 -0.004l-0.126 -65.283l-64.256 0.093z" />
  </g>
  <g data-id="169">
    <path d="m665.804 979.432l-0.033 15.462l0.122 31.053l-0.097 15.55l45.015 0.026l57.585 -0.023l-0.886 -1.014l-1.008 -0.684l-1.571 -1.938l-0.264 -1.499l-0.293 -1.083l-0.683 -1.196l-2.263 -1.642l-1.049 -2.222l-1.351 -1.163l-0.838 -1.791l-0.193 -1.491l-1.343 -1.685l-1.373 -1.783l-1.2 -0.927l-1.41 -0.81l-0.587 -1.249l-1.752 -2.105l-0.334 -1.052l-0.748 -1.493l-1.034 -0.838l-2.173 -0.861l-1.432 -0.571l-1.294 0.26l-2.128 -0.809l-1.566 -1.156l-2.219 -0.44l-1.221 0l-1.71 -0.142l-1.545 -0.554l-1.842 -0.285l-1.203 -0.086l-1.221 -0.716l-1.482 -2.209l-0.895 -1.011l-1.716 -0.861l-1.236 -1.123l-1.295 -0.422l-1.141 -1.064l-0.937 -1l-0.507 -1.205l-0.46 -1.087l-1.874 -1.875l-1.258 -0.082l-2.092 -1.087l-0.076 -1.262l-0.18 -1.193l-1.242 -2.029l-1.491 -0.727l-2.722 -0.339l-2.172 -1.568l-3.625 -1.947l-1.47 -0.886l-1.192 -0.894l-1.531 -2.539l-2.011 -1.174l-1.76 -1.462l-28.496 0.007z" />
  </g>
  <g data-id="171">
    <path d="m384.804 777.149l-0.495 4.096l0.534 8.189l0.117 15.863l-0.029 15.782l-0.01 15.856l31.463 0.137l31.596 0.136l0.072 -14.484l0.685 -4.465l3.054 -0.174l1.15 -1.337l-0.087 -1.357l3.723 -7.117l2.507 -2.723l5.508 -2.629l-0.004 -1.563l-2.601 -3.653l2.433 -2.781l6.1 -0.654l4.073 -2.587l3.484 -0.662l1.507 -2.522l-3.808 -3.779l-1.746 -6.71l-1.796 1.734l-12.126 -0.749l-1.61 -1.623l-2.393 1.345l-6.738 0.551l-5.55 -2.848l-4.067 -4.503l-4.703 -0.826l-2.747 -4.365l-3.825 -3.916l-5.016 1.18l-2.096 -1.995l-2.912 -2.36l-1.669 1.982l0.154 -2.533l-2.286 0.034l-2.795 -3.38l-4.695 7.903l0.301 2.39l-5.09 7.567l-4.63 3.977l-2.157 0.464l-1.786 -3.093l-8.996 2.203z" />
  </g>
  <g data-id="173">
    <path d="m101.598 870.04l0 1.312l0.026 2.596l0.031 2.618l0.019 7.886l-0.04 2.767l-0.028 13.024l46.298 0.157l63.09 0.098l1.185 15.878l30.247 0.098l0.029 -28.421l-5.313 -3.722l-5.129 -4.446l-1.881 0.479l-2.779 -2.771l-1.649 0.858l-0.686 -3.341l-2.104 0.814l-2.263 -0.997l0.475 -2.228l3.487 -0.692l-2.713 -2.722l-3.305 -0.308l1.214 -1.446l-3.163 -2.129l-2.152 -2.859l-4.957 -2.153l0.084 -1.621l-2.4 -3.355l-1.111 0.64l-1.771 -2.645l-2.223 -1.371l0.083 -1.384l-4.824 0.113l-1.263 -3.27l-2.237 -2.646l-0.079 8.119l-14.212 -0.058l-0.201 15.734l-77.749 -0.04l-0.035 1.432z" />
  </g>
</svg>
