<?xml version="1.0" encoding="UTF-8"?><!DOCTYPE svg PUBLIC '-//W3C//DTD SVG 1.1//EN' 'http://www.w3.org/Graphics/SVG/1.1/DTD/svg11.dtd'><svg viewBox="0 0 1000 951.601" xmlns="http://www.w3.org/2000/svg"><path id="48001" d="m806 416v1h1v1v1v-1h-1v1h1l1 1v-1h1l1 1l-1 1h1v1l1 1h-1l-1 1v1v1h1h1v1h1v-1h1v1v-1v1h-1v1l-1 1h1l1 1v1v1l-1 1v1h1h1v1h2v1h1h1h1h-1v1h1h1l1 1h-1v1h1v1h-1v1v1l1 1l1-1h1l1 1l1 1h1l1-1v1v1v1l-1 1v1h1v1l1 2h1l1-2l-1-2l2-1l2 3v1l-2 2l1 1v2h-2l-1 2l2 1v1l7-2l-1-1l29-5l1-1v-1h-1l-1-2l1-1l-1-3l-2-2l-1-1h-1l1-1h-1h-2v-2h-1l-2-1l1-2l-1-1v-2v-1l-3-1v-1l1-2v-2v-1l1-2l-2-1l-1-1l1-1v-1v-2l2-2l-1-1l1-1l-1-1v-1v-2l-47 7v1l-1 1z"/><path id="48003" d="m273 368v34v2v3h19h1h39h6v-39z"/><path id="48005" d="m887 466v1l2 1l1 2v2h1l-1 1l1 1h3l1 1l-1 1l1 2h1v1v1l-1 1l2 1l1 1l-1 3l1 2v2l1 1l8 4h1l2 1h2l1 1l1-2v1l2 1l2 1l2 1h3l1 1l2 1l1 1l1-1l25-6l-1-1l-4-2v-1l-2-1v-1l-2-1h-1v-1l-2-1v-1l-3-1l-1-1l-1-2l-2-1v-2l-1-1l-4-1l-2-5v-1l-1-1l-1-1h-1l-1 1l-1-1v-2h-3v-1h-4l-2-1v-1l-2 1h-3l-2-2h-1l-1-1h-2h-2l-1-2h-1l-1-2z"/><path id="48007" d="m729 774l1 4v2l1 1l3-6l5-6l4-5l3-2v-1l2-3v-3l-2 1h-2l-1 1v1l-2 1l-1 1v2l-2 2l-1 2l-1 2l-3 4zm-3-30l-1 1l2 2l3 1l1 1h1h1v2v3l1 1h1l3 1h2l1-2h1l2-2l3-2l2-2l1-5l-1-1v-1l2-1v-1l-25 4h-1zm-10 18l-1-2l9 15l1-1v-1l4-5l1-1l1-2l1-1l1-1l-1-1v-2v-1l1-1v-1l-2 1l-4 2l-3 2h-3l-3-2z"/><path id="48009" d="m586 249v39l40 1v-7v-34z"/><path id="48011" d="m383 124l-1 40h12h29v-40z"/><path id="48013" d="m597 658v14l1 39h12h23v3l18-15l-5-7l-2-2l-11-13l-6-7l-2-1l-3-1l-23-9z"/><path id="48015" d="m766 586l-3 3l4 7l3 5l4 3l2 1h1l1 1l1 2h2h1l2 1l1-1l1 1l-1 1l2 1v3l1 1v1l2 2v1l1 1v2l2 1l1-1l2 1l1 2l3 1h2l2 2h5l1-3l-1-1l-1-1l2-1l-1-1l-2 1l-1-1l2-1l2 1v-1l-1-1h1v-2h-2v-1l1-2l-1-2v-1l-1-1h-2l-2-1v-1l-1-1v-1l1-1l-1-1h2l-3-2l1-2l-1-2l1-1l1 1v-1h-1l-1-2l2 1l1-1l-1-2l1-1v-2h-2l1-1l-1-1h-2v-2l-1 2l-2-1h-2l-2-1h-2l-1-2h-1l-18 3h-5z"/><path id="48017" d="m274 247v2h33v-45h-33v1v2v3v13v2v1v1v2v1v2v1v3v2v4z"/><path id="48019" d="m536 601v24h15l31 1h2v1l-1 2l1 1l-1 1l2 1v-1h3l9-11l2-3l-10-5l-20-10l-8-1z"/><path id="48021" d="m697 574l-12 13l26 24l9-9l13-14l-5-18l-5-5l-4-2l-4-2l-6-4l-2-1l-3 4l-6 13l-1 1z"/><path id="48023" d="m546 249v9v30h40v-39z"/><path id="48025" d="m658 707l-6 2l21 42l-1 1l19 4l2-3l13-20l-2-1h-1l-1-1l-2 1l-2-3h-1h-2v-1h-2v-4l-1-2h-1h-3l-1-1l-2 1l-3-2l-2-4l-1-2v-2h-2v-2l-2-1h-1h-2l-1-1h-2l-2-2l-2-1z"/><path id="48027" d="m665 498v3l2 3l4 7l1 2h4l11 3l9 4l15 6l4-12h1l13-9l-16-26l-4 4l-6-7l-30 17l-3 2l-4 3z"/><path id="48029" d="m597 620v15v23l2 1l23 9l3 1l2 1l7-8l14-20l1-1v-3h-1h-2v-1l-2-1l-1-1l-1-1l-2-2h-2l-2-1l-1-2v-1l-2-1l-1-1v-3l-3-2l1-2h1l1-1l1-1l-1-1l-2 1v-1h-2v-1h-1l-1 2h-1v-1h-1h-1h-1h-2l-3-2h-1l-1 1h-1h-1h-2h-1h-1v-1l-1 1l-3 1l-3 1v1l-3-1z"/><path id="48031" d="m613 549l1 31l13 18l9-9l9-28l4-6l-17-5l-5-2z"/><path id="48033" d="m377 328l1 40h39v-1v-39h-29z"/><path id="48035" d="m669 407l-11 6l18 31l6-3l7 11l1-1l24-13l-3-2l-1-2l3-3v-2h-1h-2l-3-2h-1v-2h1l-3-2h-1l-1-1l-1-1l1-1l2-1l2-2v-1h-2l-2-2v-2l-1 2h-3v-1v-2l-1-1l2-3v-1l-2-3v-1h2l1-2l-2-1l-2 1v2l-1 1l-3-2h-1v-2h-2l1-1l-1-1h-1l-1-1z"/><path id="48037" d="m906 261v34l2 2l2-1l1 2l2 2l1 1l2 1l2-1l1 1h1v-1h1l1-1h1l1-1l3-1l2 1l1-1l2 1v1l2 1h1l2 1l1-1l1 1h3l4 1l-1-3l2-2l2-1h1v-1l2 2h2v-1h2l2 1h2v-3v-2v-1v-1v-1v-1v-3v-1v-3v-2v-5v-1h-1v-1l-1-1l-3 1l-1 1l-2-2l-1-1h-2l-2 1l-1 2h-2l1-2l-1-1l-1 2l-1-1h-2v2h-2l-1-1l-1 1v1l-3-1l1-1v-1h-3l-1-2h-2l1-2l-1-2h-1h-1v1v1h-1h-1h-1v-1v-1h-1v1h-1v-1v-1h-1v-1l-1-1h-1h-1h-1h-1v1h-1v-1v-1h-1h-2h-2v-1v-1h-1v1h-1v-1z"/><path id="48039" d="m820 660l2 1v2v1l1 1v1v-1v1h-1v1l1 1v1v1v1v1h1h1h1v1v1h1l1 1v-1v1h1l-1 1h-1v1h1h-1v1h1h-1h1v1h-1v1l1-1v1v1h1h-1v1h1h-1v1h1h2h1h1h1h1v1v-1h1v1h1v1h1v1l-1 1l1 1v1h1l1 1l1 1h1v1h1v1v1v1h1h1h1h1l1-1l1 1h-1l2-1l4-2h1h3v-1l2-2l3-3h1l2-2l3-3l3-3l5-4h1v-1h-1l2-4l-3 3l-2-2l1-1v-2v-3l1-1h2l1 2l4-3l-5-8l-6-9l-3-5l2-8l-2-1l-1 1l-1-3v-1h-2h-1h-2l-1 1h-3l-3 1l-1 4l-1 2v1v1l-1 4h-7v1v2v1h-1l-1 3v2l-1 1l-1-1l-2 2v2l-1-1l-1 1l-1-1l-6-2l-3 2l-1-1l-4 4l1 1z"/><path id="48041" d="m766 534l-1 2l3 1h4l1 2l1-1v1h1l1 1l1 2l2-1v2v2l3 1l-1-1l1-1l2 1v3l1 1l1 2h-1l1 1v1h1l2 1v1v1h1v1l-2-1l-1 2l1 1l1 2h1l1-1h1l4-1v-2l1 1v2l2-1v1v2v1v1l1-1v-1v-2v-1h2l1-3h1l1-1l-2-1h-1l-1-2l-1-1l1-2l-2-2l1-1l-1-1l-1-3l-1-1l-1-1l2-5v-2l-1-3l1-1v-2v-2l-1-3h1v-2v-1l-1-2l-1-1v-1l-1-3l1-2l-1-1l-2-1l-1-1h-1l-6 4l-2 2v2l-2 1l-1 2v2l-1 3l-3 4l-8 4l-2 1z"/><path id="48043" d="m217 556v49v52l1 1v2l1 1l1-1l1 2l1 1l1 1l2 1h2h1v1h3l2 1h1h1l3 1v1v1h2l1 2v1h1v1h1l2 1v1l4 2l1 1l1-1v-1h1v1l1 1l1-1v1v1h1h1v1v1h1v-1h1l1 1l1-1l5 1v1h1l1-1h1l1-1v-1v-1h1v-1v-1v-2l2-1v-1v-1h1h2v-1v-1l2-1v-1v-1l1-1v-1v-1h1l2 1l1-1l1-1l1 1v-2v-1h1v1h1l1-1h1l-1-2h-1l-1-1v-2l1-1v-2l1-2v-1v-1l1 1l2-1v-2l1-2v-1l-1-2l1-1l1-3v-1v-2l3-3v-2h1l-1-2h1h1l1-2l-1-1l1-1h1l2-3v-1v-1v-1v-1l1-1l1-1v1h2h1l1-1l1-1l1 1l1-1v-1h1v1h1v1l1-1l2-1v-1h1h2h3l1 1h2l1-2v-1l1-2v-1v-1l1-1l1-1h1v-1l-18-15l-49-39l-18-15z"/><path id="48045" d="m394 164v41h33l7-1v-40h-11z"/><path id="48047" d="m618 830v1h2v1l1 1v8h2v7h4l-1 23h8h26v-36v-5h-6h-13h-22z"/><path id="48049" d="m567 408v55l1-1v2l2-1h3l2 1v-1l1 1l3-3l2 1l2-1l16-11l2-7l7-1l-20-34h-15z"/><path id="48051" d="m737 544l4 1l1 3l1 2l-1 2h2v1l1 1l1 1l3 3h2v1l1 2l1 3h1h1l1 1l2-1l2 3h2l3-1l3-1v-1l2 1l2-1h1v-1h3l3-1l1-1v1l3-2h2l2-1h1l-1-1l1-2l2 1v-1h-1v-1v-1l-2-1h-1v-1l-1-1h1l-1-2l-1-1v-3l-2-1l-1 1l1 1l-3-1v-2v-2l-2 1l-1-2l-1-1h-1v-1l-1 1l-1-2h-4l-3-1l1-2v-2l2-1l-3-1v-2h-1z"/><path id="48053" d="m624 504l1 2l-1 1v2h3v2h-2l-1 3v1v1h2l1 1l-1 2l2-1l2 1l-1 1h-1l-1 3h-1v1v1v1l4 1l-1 2h-1l-1 1l1 3h-3v1h1l1 2v1l1 3l-1 1v1l1 1l2-1h1l1 1v7l17 5l2-4v-2l-2 1l6-12l6-15l11-10l-1-2l-4-7l-2-3l-40 1z"/><path id="48055" d="m667 603l-1 2h2h1l1 1l1 2v2v1l1 1v-1l1 1l1 1v1h1l1 2l1 1h-1l2 1v1l2 2h1l1 1v-1l3 1v1h1l2 1v1h1l21-13l1-1l-26-24v-1l-4 5h-1l-3 3l-3 3l-4 3z"/><path id="48057" d="m749 748l1-1l1-2l-1-2zm-9-32l1 1l1 1l1 1l-1 2l1 2l2 1v2h1l1 1l1 1l1 2l2-2l2 2l-1 1h1l1 1h2h1l1 3l-1 2l1 1l1 2h1l3-1h1l3-3l3-1l2-1l4-3h3v1l-2 1l-1 1l1 1h1l-1 2v1h-3l-3 1l-1 1l-1 1h-2l-2 1l-1 1l-1 1l-2 2l-4 2l-2 2l-4 1l-3 1v2v1v3l-2 3v1l4-5l6-4l7-5l11-7l3-2l3-3l1-2l1-1l4-22v-3h-6v-1v-3l-2 2h-4h-6h-1l-1-2l-4 1l-1 1h-1l-4 3l-10 3z"/><path id="48059" d="m534 376v32h33h6l1-39h-38h-2z"/><path id="48061" d="m718 903h-2l2 6l1 8l2 10l1 4h1l-1-7l-2-12l-2-8zm-49 29v1h2h1h2v1h1h1v1h1h3h1l1 1h2h1h1v1v1h1l1 2l1 1l1 1v1l2 1v-1h1v1v1h1v1l1 1l2 1h1h1h1v1l1 1v1h1l3 1l1-1h1v-2v-2v-1h-1l1-1l1-1h1h1l2-1h2l-1-1h1h2l1-1h2h1h1h1v1h1h1l-1-2h1l-1-4v-1v-2l-1-1l-1 1l-1 1l-1-3h-3l-2-1h-1v-1v-1v-1l-1-2v-1v-2v-1l-1-1v-2l1-2l1-1l-1-2l-2-6l-2-4h-3l-1 2l-1 2h-1l-1 2v1l-2-1h-1l-2 1h-1l-1 2h-3l-22-4v10v9v1z"/><path id="48063" d="m875 323l1 1l-1 9h33l-3-2l-2-3l-2-2l-3-2l-1-1l-2-1l-1-1l-1-1v-2h-1h-2h-4h-2l-2 2h-1l-1 1l-2 1l-1-1v1z"/><path id="48065" d="m383 83v41h40v-41v-1l-40 1z"/><path id="48067" d="m913 300v36l46-1h1v-1v-1v-3v-1v-6v-6v-1v-4v-2v-4v-1v-2v-1v-1v-1v-2h-2l-2-1h-2v1h-2l-2-2v1h-1l-2 1l-2 2l1 3l-4-1h-3l-1-1l-1 1l-2-1h-1l-2-1v-1l-2-1l-1 1l-2-1l-3 1l-1 1h-1l-1 1h-1v1h-1l-1-1l-2 1l-2-1z"/><path id="48069" d="m314 164v40h33h7v-40h-13h-1z"/><path id="48071" d="m888 603l1 1l2 1l1 2l2 1l-1 2l1 3l-2 2l-1 3h1v1h1l-1 2l1 2l2-1h2v-1v-2l1-2l3-3l2-1h1l2-1l1 2l1-1l1 1h1v3v2l-1 7l-2 3l-1 2l-2 1h-1l1 2h1h2h1l2-1l5-1l3-1h1l1-1h1h1l1 2v1h1l3-2h4l1-1v-2h2h1v4l1-1v-4v-24h-7v-1h-3h-1z"/><path id="48073" d="m852 403v2l2 2v2v1l1 1l-1 1l1 1l-2 2v2v1l-1 1l1 1l2 1l-1 2v1v2l-1 2v1l3 1v1v2l1 1l-1 2l2 1h1v2h2h1l-1 1h1l1 1l2 2l1 3l-1 1l1 2h1v1l-1 1l1 2h4l3-1l1 1l1 1v1v1h1l2 2l1 2h-1v3l3-1l2 3h2l1 1l10-9h-1l-1-1v-3l-1 1l-1-1l-1-4l-1-2v-1l-1-4v-2l-1-2v-1h3v-1l-3-2v-1h1l1-2l1-1v-1h-4v-26h-18z"/><path id="48075" d="m474 164v40l32 1v-23v-18z"/><path id="48077" d="m626 248v34h34v-39v-1v-1l1 1l1-1v-1v-1h-1h-1l1-1h1v-1l1-3h-1h-1v-1h-1h-1l-1 1h-1h-1h-1h-1l-2-1l-1-2l-1-1h1v-1l-1-1v-1h-1v-1l2-2v-1l1-1v-1l-1-1l-1-1h-1l-1 1v1l-1 1l-1 1h-2h-1v-1h-1h-1l-1-1h-1h-2h-1l-2-1v-1h-3l-2 1l-1 1v1v2l-1 1v1h-1z"/><path id="48079" d="m273 289h36l-2-40h-33v8v4v2v2v1v1v6z"/><path id="48081" d="m444 407l-1 35h45v-34h-1l-32-1z"/><path id="48083" d="m527 453v1h1l1-1v1l2 1v1h-1v1h2h1l-2 2v1h1h1l2 3l1-1v-1l-1-1h1h3l2 1l1 2l1 3l2-1l1 2l1-1l2-1l-1-1l1-2l2 1h1v2h2l1 1l1-1v1l2 2l1-2h1v-1l2-1l2-3l3 2v-55h-33h-6z"/><path id="48085" d="m747 322v4h3h2h2h5h5h2h5h4h1h7h5v-33l-6 1v-6h-35v13v4v12z"/><path id="48087" d="m465 124v40h9h32v-26v-14z"/><path id="48089" d="m744 625l3 1v2v1v1h3l18 21l-7 6l1 2l3-2l17-11l2-1l3-10l10-10l-1-2l-2-1l-1 1l-2-1v-2l-1-1v-1l-2-2v-1l-1-1v-3l-2-1l1-1l-1-1l-1 1l-2-1h-1h-2l-1-2l-1-1h-1l-2-1l-4-3l-3-5l-11 15z"/><path id="48091" d="m609 615h1h1h2h1h1l1-1h1l3 2h2h1h1h1v1h1l1-2h1v1h2v1l2-1l1 1l-1 1l-1 1h-1l-1 2l3 2v3l1 1l2 1l8-4l9-4l6-5l1-1l-2-4v-1l-1-3l-7-6l-13-11l-9 9z"/><path id="48093" d="m588 408l20 34l13-2l2 3l24-14l-4-7l-4-5l-1 1l-4 2l-17-29z"/><path id="48095" d="m498 453l-1 43l39 1l1-4l-1-33h-1l1 1v1l-1 1l-2-3h-1h-1v-1l2-2h-1h-2v-1h1v-1l-2-1v-1l-1 1h-1v-1z"/><path id="48097" d="m698 241v44h7l13 1l21 1v-49h-1l-1 1h-1v-1v-1l-1 1v1v1l1 1v1v1v1l-3 3v1h-1l-1-1h-1l-1-1l-1 1v1h2l1 1v1h-2l-1 1l-1 1l1 1v1v1v1v1v1h-1v1h-1h-1h-1h-1l-1-1v-1l-1-1l-1-2v-1l-1-1v-1v-1v-1h1h1l1-1v-1l-1-4v-1l-2-1h-2l-1 1v3l-1 1h-1h-1v-1h-1v-1h-1v1v1h-1v-1h-1v1l-1 2l-1 1v1h-1h-3h-1l-1-1h-1v-1h-1l1-1v-2v-2v-1z"/><path id="48099" d="m645 463l19 32l2 3l4-3l3-2l30-17l-14-24l-7-11l-6 3z"/><path id="48101" d="m467 204v44h35l1-36v-1h2l1 2v-8l-32-1h-6z"/><path id="48103" d="m295 446v32l1 1h2l1-2h1l2-2l1 1l2 1l1 1l1 1l1 1l1 1l1-1l4 1l2 1l1 1l3 2v1l1 1l1 4l-1 2l1 1l1 2l1 1h7v-4l-1-6v-41z"/><path id="48105" d="m324 497h2l1 1l2 1l3 2h2h1h1l2 1l1 2l1-1l1 1h1l1 1l1-1l1 1h1h2l2-1l1 1l2 1l1-1h1l2 2v1l3 1v1l1 1h2v1l-1 2l2 1l2 3l-1 1l2 3l-1 1v3h2v3v2l3 2v2h1h1h3l1 1h2l1 2l-1 3l2 2l-2 3l-1 1l1 1l-2 1l1 2l-1 1l-2-1l-1 1l1 1v1l-1 2v1h3v1v1l1 1l2 1v1l-1 1l-2-1l-3 2l-1 2l-1 1h58h2h1v-37v-13v-3v-17h-24h-38h-40z"/><path id="48107" d="m387 249l1 40l39-1v-39z"/><path id="48109" d="m132 415v17v72v2v13v15l62-39v-1v-1v-1l2-23l4-54h-24h-15h-8h-1h-15h-5z"/><path id="48111" d="m274 0v17l1 25h66v-42h-6h-58z"/><path id="48113" d="m732 357v9h2h36h1v-23v-1v-6v-4v-5v-1h-5h-2h-5h-5h-2h-2h-3h-9h-2h-1h-1h-2v10v2v1v2v1v2v2v5v1v2z"/><path id="48115" d="m338 328v40h40l-1-40h-29z"/><path id="48117" d="m274 129v2v14v5v5v5v4h40h26h1v-40h-67v2v1v1z"/><path id="48119" d="m822 287l-1 18l2-2h2l2-1l1-3l3-2h2h1h2l4-3l1-1l1-1l3 1l1-1l1 1h2l3-1v-1l1 1l4-1h1h1l2 1l2-1v-1h1h-1l-2-1h-2l-2-2h-2l-2-2h-1l-1-1l-1-1l-1 1h-2l-3-3l-1 1l-1-1l-2-1h-2l-3 2l-2-2l-1 1l-3-1h-1l-3 2l-1 1h-2z"/><path id="48121" d="m705 308l-1 17l2 1h2h2h7h4h1h3h7h2h1h1h2h9v-4v-5v-12v-4v-13v-1h-8l-21-1l-13-1v20z"/><path id="48123" d="m687 672l-10 8l14 16l12-9l1 1h2h-1l1 1h3l1 1v1h1v1l25-21l-20-24l-7 6l-21 18z"/><path id="48125" d="m427 249v39h40v-40z"/><path id="48127" d="m497 711l1 39l54-1v-38h-1h-6h-3z"/><path id="48129" d="m423 124v40h11h31v-40z"/><path id="48131" d="m597 762l1 60h3h10v2h3v-2h2v1h3v7h22v-68h-8z"/><path id="48133" d="m574 369l-1 39h15l29-17l5-3v-19h-7h-40z"/><path id="48135" d="m293 407v39h2h35h2v-39z"/><path id="48137" d="m453 567v59h45h7l1-1l-2-3l1-1l-2-2v-1h-2l3-1v-1v-1l-1-3l1-1h1v-2l-1-1v-2l1-2l-1-1l2-1l1-12h1l1-5l3 1h13v-19h-28z"/><path id="48139" d="m728 365v26l11 19l4-2l38-22l1-1h-2l-2-1h-2v-1l2-3l-1-1l1-1l-1-1l-2-1l-2-3l-1-1l1-1l-1-2h1l-1-2h-1l-1-1h-36h-2l-1-1h-1z"/><path id="48141" d="m0 424v1h1v1v1l1 1v1h1v1v1h1h1v1h1h1h1v1l1 1v1l2 1l1 1v1l1-1l1-1h1l1 1h1l3 2l1 2l2 1v1v1l1 1l2 4l1 3l1 2l2 1v1l1 3l1 1v1l1 2l3 1l1 1l2 1l2 1l2 2h6v1l4-3h-1v-5h-2v-2v-16l-1-29h-4h-5h-5h-1h-1h-8h-1h-4h-1h-6h-7h-1h-1h-2v1h-1l-1 1h1v1l1-1v1v1v1v1l1 1l-2 1h-1z"/><path id="48143" d="m622 388l-5 3l17 29l4-2l1-1l4 5l15-9l11-6l-6-12v-1l-1-1l-4-11l-1-3l-4-10h-31z"/><path id="48145" d="m713 479l16 26l10-5l2-2l7-4v1l17-10l-15-27l-5 3z"/><path id="48147" d="m782 288v6l6-1l34-6v-4v-34l1-1h-1v-1l-2-1h-1v-1h-1l-1-1h-1v1l-1 1h-2h-1v-1h-1v1v1h-1l-1 1v-1h-1v1h-1h-1l-2-1h-1v1v1h-1v-1h-1h-1h-1v1v1h-1h-1v1l1 1v1v1v1h-1v1h-1h-2h-1l-1-1h-2v-1l-1 1h-1v1v1l-1 1v1v1v1h-1l-1 1h-1h-1v-1v-1v-1l-1-1z"/><path id="48149" d="m711 611l-1 1l15 12l-1 1h20l12-14l11-15l-4-7v-2v-1v-3l-1-1l-1-1l1-1l-3-1l-1-1l-2 2h-1h-3l-2-1l-4 3l-13 8v-2l-13 14z"/><path id="48151" d="m456 328v40h39v-40h-28z"/><path id="48153" d="m387 205v21v23h40v-28v-16h-33z"/><path id="48155" d="m503 212l-1 36h4h13v2l2-1l1 1h3v1h1l1 1v-2l1 1l1 1v-3l2 1l1 1l1-1h1l1 1l2 2h1v-2l1 2l1-1h1v1h1l1 1l2 1v1h1v2v-9v-24l-1 2l-1-1h-2l-1 2l-2-1l-1-1h-1h-2v-2h-2l-2 1l-2-1l-3 1l-1-1l-1 1l-18-12l-1-2h-2z"/><path id="48157" d="m804 628l2 1v2h1l1 2l-1 1v1l1 1h1l-1 1h-2v2l1 1l4 3v-1l1 2h1v3l2 1v1l-1 1l1 1h2v1l2 1v1l1 3h2l4-4l1 1l3-2l6 2l1 1l1-1l1 1v-2l2-2l1 1l1-1v-2l1-3h1v-1v-2v-1h7l1-4v-1v-1l1-2l1-4l-2-1l-10-5v-1l-1-1h-1l-1-1l-3-1l-1-1l-1-1l-4-2l-1-1l-5-3l-1-1l-9 4h-2v2h-5h2v2h-1l1 1v1l-2-1l-2 1l1 1l2-1l1 1l-2 1l1 1l1 1l-1 3z"/><path id="48159" d="m863 290v38h6h5l1-5l2-1v-1v-32l-2 1l-3 1v-1h-2l-1 1h-2l-3-1z"/><path id="48161" d="m773 433l20 34l34-18v-1h-1v-1l1-1v-1v-1v-1l-1 1h-1l-1-1l-1-1h-1l-1 1l-1-1v-1v-1h1v-1h-1v-1h1l-1-1h-1h-1v-1h1h-1h-1h-1v-1h-2v-1h-1h-1v-1l1-1v-1v-1l-1-1h-1l1-1v-1h1v-1v1v-1h-1v1h-1v-1h-1h-1v-1v-1l1-1h1l-1-1v-1h-1l1-1l-1-1h-1v1l-1-1h-1v-1h1v1v-1v-1h-1v-1l1-1v-1z"/><path id="48163" d="m551 672v39h1h46l-1-39z"/><path id="48165" d="m273 338v2v4v1v4v2v2v4v2v2v1v6h65v-40h-29h-36v6v2v1v1z"/><path id="48167" d="m904 647v1v1h1l1-1h1l1-1l1-2l1-1l2-1l3-2l3-2l7-3l10-4v-4h-1h-2v2l-1 1h-4l-3 2h1v1l-1 1h-1l-1-1h-1h-1h-1l-1 1v1v1l-1 1l-2 1h-1l-1-1h-1v1h-1l-2 3l-1 1l-2 2l-1 1zm-27 26h1l1-1l2-2l4-3l17-11l1-1l2-1l2-3h1h-1h-1h-2h-1l-2-2v1v2l-1 1l-2 1l-1 1h-1l-8 8l-1 1l-8 5zm-6-41l-2 8l3 5l6 9l5 8l2-2l6-5l2 1l2-2v-1v-2l1-3v-4l-1-2l-2-1h-1l1-2l1-1v-1l-4-1h-2l-1-1v-1l-1-1v-1l-4-1l-1 3l-1-1v1v-1v1v1h-1v1h-1h-2l-1 1l-1-2h-1l-1-2v-2l-1 1z"/><path id="48169" d="m388 289v39h29l10-1v-39z"/><path id="48171" d="m559 549v18v14l29-1h26l-1-31h-28z"/><path id="48173" d="m371 407v39h39v-39h-33z"/><path id="48175" d="m675 709l2 1v2h2v2l1 2l2 4l3 2l2-1l1 1h3h1l1 2v4h2v1h2h1l2 3l2-1l1 1h1l2 1l16-14v-1h1l-1-1v-1l-1-1v-1l1-10l-1-1l1-1l1-2l-2-2l-1-2v-1l-1-2l-2-1l-1 1h-1l-3 1v-2h-1v-1h-1v-1l-1-1h-3l-1-1h1h-2l-1-1l-12 9z"/><path id="48177" d="m671 647l-2 2l10 12l9 10l21-18l7-6l3-11v-7l5-4l1-1l-15-12l-21 13h-1v-1l-2-1l-2 4l-6 9l-1 2z"/><path id="48179" d="m423 83v41h42v-41z"/><path id="48181" d="m739 238v49h8v1h35v-30l-2-1v-1h-1v-1v-1h-1v-1h-1l-1 1h-2h-1l-1-1v-1l-1-1v-1h-1h-1h-1h-1l-1-1l-1-1h-2v-1v-1l1-1h1l1-1v-1h-1h-2l-1-1l-1-1h-1l-1 1v1v1v1v1l-1 1v1h-1v1h-3h-1h-1v-1v-1l-1-1l-1-1h-1h-2v1v1h-1h-1l-1-1v-1l-1-2l-1-1l1-1l-1-2v-1h-1v-1h-1z"/><path id="48183" d="m888 367v14v1h7h20l2 1l1-1l1-3l-1 1v-1h-4l-2-2l-2-1v1v-21h-2l-2-1h-1l-4 7l-10 4l-2 1z"/><path id="48185" d="m796 540l1 1l1 1l1 3l1 1l-1 1l2 2l-1 2l1 1l1 2h1l2 1l-1 1h-1l-1 3h-2v1v2v1l-1 1l3 2l2-1l-1 2h1l-1 3l1 1v1h-1l1 1l10-1h3l9-1v-6v-2l-1-14l-1-12l-3-21l-20 4h-3v2h-1l1 3v2v2l-1 1l1 3v2z"/><path id="48187" d="m635 628v1l1 2l2 1h2l2 2l1 1l1 1l2 1v1h2h1v3l-1 1l1 5l1 1l2-1h10h9l6-9l1-2l6-9l2-4h-1v-1l-3-1v1l-1-1h-1l-2-2v-1l-2-1h1l-1-1l-1-2h-1v-1l-1-1l-1-1v1l-1-1v-1v-2l-1-2l-1-1h-1l-5 5l-4 4l-1 1l-6 5l-9 4z"/><path id="48189" d="m347 204v45h40v-23v-21l-33-1z"/><path id="48191" d="m434 164v40h33h1h6v-40h-9z"/><path id="48193" d="m623 443l15 24l7-4l31-19l-18-31l-15 9l4 7z"/><path id="48195" d="m382 0l1 42h40l1-42z"/><path id="48197" d="m506 205v8l18 12l1-1l1 1l3-1l2 1l2-1h2v2h2h1l1 1l2 1l1-2h2l1 1l1-2v-28h-1v-1h-1l-1-1h-1h-2h-1h-1v1v1v1l-1 1h-2h-1l-1-1v1h-1l-1-1h-2h-1v-1v-1h-1v-1h-1l-1-1h-1v-1l-1-1l-1-1l-2-2v-1l-1-1h-1l-1-1l-1-1v-1l-1-1l-1-1l-1-1h-1v-1h-2h-1v1h-1v1h-1h-1z"/><path id="48199" d="m907 549l11 34h11l4 1l2-1v1h2l1-1l3-1l1-2v-2h3l2-1l3-1v1l4 2l1-3l1-1l-2-1v-3l2-1h-1l-1-2v-2h1v-2l1-1h1l-1-2l-1-3v-1l-1-2l1-1v-1l1-1v-2h1v-2l1-2h-36v3z"/><path id="48201" d="m815 580l-1-2l7 23l3 10l1 1l5 3l1 1l4 2l1 1l1 1l3 1l1 1h1l1 1v1l10 5l2 1l3-1h3l1-1h2h1h2v1l1 3l1-1l2 1l1-1v2l1 2h1l1 2l1-1h2h1v-1h1v-1v-1v1v-1l1 1l1-3l4 1v-1v-1l2-1v-1v-1l-2-2v-1v-1h1l2-2v-1l1-1h1l1 1v1l1-2h-1v-1h-1l1-3l2-2l-1-3l1-2l-2-1l-1-2l-2-1l-1-1l-1-3l1-5l-1-2h-2l-2-6l-3-9l-8 7l-4 4l-1 1h-2h-2v-1l-3-3l-2-1h-1h-1l-1-3l-1 1l-3 1l-1-1l-1-3l-1-1l-1-1h-1h-1l-2 1l-1 2h-1h-1l-1 1l-3 2l-1-1l-4 1l-2 1h-3h-2h-1v-1h-1l-2-2h-1l-2-1l-1-1z"/><path id="48203" d="m910 343v13v21v-1l2 1l2 2h4v1l1-1l2-1l2 1l1 1l2-1l2 3h2h3h1v2h1l1 2l24-6v-1v-3v-1v-2v-1v-1v-2v-1v-3v-1v-4v-1v-2v-1v-4l-3 1l-1-1h-1v-1l1-1v-1h-1l-1-1h-1l-1 1l-1 2l-2 1h-2l-1-1l-1-1h1v-1h-1v-1v-1h-1v1v-1h-1v1l-1-1v1h-1v1l-1 1v-1h-1v1h-1h-1v1h-1l-1 1h-1h-1h-3h-3h-2l-3-1l-1-1h-1l-1-1h-1l-2-2h-1l-3-2l-1-1l-1-1z"/><path id="48205" d="m274 64v1v1l1 1v5l-1 11l67-1v-40h-66v21z"/><path id="48207" d="m507 288v40l29 1h10v-41z"/><path id="48209" d="m645 561l-9 28l13 11l7 6l1 3v1l2 4l4-4l5-5h-2l1-2l3-3l4-3l3-3l3-3h1l-4-3l-2-2l-2-2l-4-3l-8-7l-2-1z"/><path id="48211" d="m465 42v41h41v-25v-16z"/><path id="48213" d="m776 383v1h2l2 1h2l1 1l2 1l2 1l2 2v2h1l1 1l2-1v2l3 2l1 1l2-1h1h-1v2l-2 1v1l1 1h2l2-1l1 2l-1 2v1v1l1 2h2l1-1v1v5l1 1l47-7l-2-2v-2l-1-1l1-5l-1-1l-1-2l1-1v-2l1-1l1-2l-1-3l1-2h-48h-9h-4z"/><path id="48215" d="m614 916v1l1 1h1h1h1v1h1h1v1h1l1-1h1h1l1 1v1l2 1h1l1 2l2 1l1-1h1v1v1l1 2h1h1h2v1h-1l1 2l2 1l1-1h1l1 1v1h1v-1l1-1l2 2v1l2-1l1-1l1 1h1v-1h1v1v1h3v-1v-1h2h2v1h1h1h1h2l2-1h1v1h1v-1v-4v-1v-9v-10v-7h-4l-6-1h-1l2-8l1 1v-2l1-5h-2v-15h-26l-6 14l-7 15z"/><path id="48217" d="m697 402v1l2 3v1l-2 3l1 1v2v1h3l1-2v2l2 2h2v1l-2 2l-2 1l-1 1l1 1l1 1h1l3 2h-1v2h1l3 2h2h1v2l-3 3l1 2l3 2l18-11l8 14l16-9l-13-24l-4 2l-11-19l-30 8l2 1l-1 2z"/><path id="48219" d="m307 249l2 40h39l-1-40z"/><path id="48221" d="m653 365v4l4 10l1 3l4 11l1 1l12-8h13v-14v-2v-5z"/><path id="48223" d="m821 325v1h15v2h27v-38v1l-2 1l-2-1h-1h-1l-4 1l-1-1v1l-3 1h-2l-1-1l-1 1l-3-1l-1 1l-1 1l-4 3h-2h-1h-2l-3 2l-1 3l-2 1h-2l-2 2z"/><path id="48225" d="m828 492l1 4h1l2 1h1l2 1l1-1h1l1 2l1 1v1h-3v1l1 1l-1 2h-1l1 2l2 4l2-1l14-11l36-29l-1-2l-2-1v-1l-1-1h-2l-2-3l-3 1v-3h1l-1-2l-2-2h-1v-1v-1l-1-1l-1-1l-3 1h-4l-1-2l-29 5l1 1l-7 2l-1 2h1l1 1h-1l-1 1h2l1 1v3l1 1v3l3 1l-1 2h1v2h-1v2l-1 1l-1-1h-1v1l-1 1v2v2l-2 2v2l1 2h-1l-1 2z"/><path id="48227" d="m378 368l-1 39h33h6l1-39z"/><path id="48229" d="m49 415l1 29v16v2h2v5h1l-4 3l2 2h2v1v1l1 2h2l1 1v1h2v1l3 3l1 2l2 2l1 1v1v1l1 1h2l2 1v1l5 2v2h2l1 1l1 1l1 1v2v1l2 3l1 1h1l2 2v1h1l5 4h1l1 1v2v1l2 1h1l1 1l2 1v1h1l1-1l2 2h1h1h2v1h1h1v1h1h1v1v1h1h1h1l1 1v1l1 1l3 2v1l1 1v-1h2h1v1l1 1l1 3l5-3v-15v-13v-2v-72v-17h-13h-3h-1h-1h-18h-3h-23h-2h-8h-2h-1z"/><path id="48231" d="m788 326v13h17h11h-2l-2-3v-1l3-9h6v-1v-20l1-18l-34 6z"/><path id="48233" d="m383 42v41l40-1v-40z"/><path id="48235" d="m410 457l-1 40h24h21l-1-39z"/><path id="48237" d="m626 289v35h28h10l1-39h-5v-3h-34z"/><path id="48239" d="m739 675l8 3l2 3l1 6h2l1 2h1l1 2l2 2l-1 3h1l1 2v1v2h2v2l1 1l1 1l4-1l1 2h1h6h4l2-2v3v1h6l1-25l-25-24l-1-2z"/><path id="48241" d="m928 501h1v1v1v1h1v-1h1l1-1h1h1v-1l1 1l1-1h1l1 1h1l1-1h1v1l1 1h1h1h1v1v1v1v1v1h1h-1l1 1v1v-1v1h1h1h-1l1 1h-1l1 1h-1v1l1 1v1v1v1l1 1v1v1v1h1l-1 1l1 1h1h1v1h1h-1l1 1v1v1v1v1v1l1 1v1h1h1v1l1 1v1h1l-1-1h1l1 1v1v1l-1 1h-1v1v1v1h-1v1v1h1v1l1 1v1l-1 2v2h-1v2l-1 1v1l-1 1l1 2v1l1 3l1 2h-1l-1 1v2h-1v2l1 2h1l-2 1h17l2-62l-3-19l-10 2v2l-7 1z"/><path id="48243" d="m132 534l-5 3l36 9l46 10h8l27-22l-11-9l-39-30z"/><path id="48245" d="m929 583v19v1h7v24v4l17-7l3-2h3l4-1h5h4h2h2l-1-1h1l-2-3l-1-1l-1-1h-1v-1v-1l-2-1v-1v-1v-1l1-1l1-1v-1h2l1-1l1-5v-2l-1-3l-3-1l-1-1h-2h-1l-1-1h-2v-1l-1 1v-2h-2v-3l-2-1h-2l-1-1l1-2h1l-1-2h-2l-1-2l-4-2v-1l-3 1l-2 1h-3v2l-1 2l-3 1l-1 1h-2v-1l-2 1z"/><path id="48247" d="m586 830v41h40l1-23h-4v-7h-2v-8l-1-1v-1h-2v-1h1v-7h-3v-1h-2v2h-3v-2h-10h-3v8z"/><path id="48249" d="m641 762v68h13v-32h9l1-12v-9l10-10l1-1l-1-2h-3l-2-1l-2-1z"/><path id="48251" d="m688 370v2v14v11h1l1 1l-1 1h2v2h1l3 2l1-1v-2l2-1l30-8v-26h-17h-3h-3h-3h-9h-5z"/><path id="48253" d="m495 328v40h39v1h2v-40l-29-1z"/><path id="48255" d="m644 690l2 2l5 7l7 8l7-2l2 1l2 2h2l1 1h2h1l16-13l-14-16l10-8l1-1l-9-10l-20 17z"/><path id="48257" d="m771 366h-1l1 1h1l1 2h-1l1 2l-1 1l1 1l2 3l2 1l1 1l-1 1l1 1l-2 3h16h4h9v-44h-17v2l-17 1v1z"/><path id="48259" d="m588 580l1 32l10 5l3 1v-1l3-1l3-1l1-1v1l18-17l-13-18z"/><path id="48261" d="m704 852v10l1 8l2 6l2 7l2 4h2l-1-2l-2-7l-2-8l-1-8l-1-7v-7v-8l1-7l1-4h-2l-1 6l-1 8zm-44-17v36v15h2l7 1h32v-1v-2l-2-7v-2v-2l-1-4h1l1-3v-6l1-6v-8l1-7h-1l1-4l1-4l-1-1h-2v1h-1h-1l-1 1h-1v1h-1h-2h-1l-1-1h-1h-1h-2h-1v-1v-1v-1l-1-1l-6 2l-1-1l-3-1l-1 1h-1v2l-2 1l-1-1l-1 1l-2 1l-1-1l-4 1v1z"/><path id="48263" d="m427 288v39l4 1h25h11v-40z"/><path id="48265" d="m525 567v19h5v15h6h25l8 1l20 10l-1-32l-29 1v-14z"/><path id="48267" d="m497 530v37h28h34v-18h-14v-19z"/><path id="48269" d="m467 248v40h40l-1-40h-4z"/><path id="48271" d="m445 660h1l2 3v1l-1 1l1 1l1 1h1v1l1 1l1 1h1l1 1h1v2h43v-47h-45v18l-1 1v3v3l-3 1v2l1 1l-1 3h-1v1h-1h-1z"/><path id="48273" d="m706 829h2l1-3l3-10l3-7l3-6h-2h-2l-3 6l-2 7l-2 7zm-52-31v32h6v5l2-1v-1l4-1l1 1l2-1l1-1l1 1l2-1v-2h1l1-1l3 1l1 1l6-2l1 1l1-1h1l2-2h1l3-2l1-1v-1l1-1l2 1v1v1l-1 1h-1l1 1l-1 1h-1v1h-1h-1l1 1h2l2-2l2-1h2h1v-1l1-1v-1l2-4v-1v-1v-1l1-2v-1l1-1v-2l1-2l1-3h-19h-20v-1l-2-1l-1-1v-1l-1-1l-2-1l-1-1h-1z"/><path id="48275" d="m506 248l1 40h39v-30v-2h-1v-1l-2-1l-1-1h-1v-1h-1l-1 1l-1-2v2h-1l-2-2l-1-1h-1l-1 1l-1-1l-2-1v3l-1-1l-1-1v2l-1-1h-1v-1h-3l-1-1l-2 1v-2z"/><path id="48277" d="m822 249v34h2l1-1l3-2h1l3 1l1-1l2 2l3-2h2l2 1l1 1l1-1l3 3h2l1-1l1 1l1 1h1l2 2h2l2 2h2l2 1v-45v-1h-1l-1 1h-1h-2l-2 1l-3-1h-1v-1h-1l-1 1h-1h-1v-1v-1h-1v1h-1h-1v-1v-1v-1v-1h-1l-2-1h-1v1l-3 2h-1h-1l-1 1l-1 1h-1l-1-1h-1h-1h-1v1v1l1 1v1h-1l-1 1v-1l-1-1h-1h-2v1h1v1h-1h-1z"/><path id="48279" d="m307 204v45h40v-45h-33z"/><path id="48281" d="m616 484l-1 3h1h1l1 1l-1 1l2 1l1-1v1h-2v2l-1 1l2 3l1-2h2l1 1l1-1l-1 2h1v1l-2 1v2h2l1 2l40-1v-3h1l-2-3l-19-32l-7 4v1z"/><path id="48283" d="m552 711v38v1l1 14l44-2l1-13l-1-36l1-2z"/><path id="48285" d="m719 636l-3 11l20 24l3 4l22-18l7-6l-18-21h-3v-1v-1v-2l-3-1h-20l-5 4z"/><path id="48287" d="m709 557l6 4l4 2l4 2l5 5l5 18v2l13-8l4-3l4-4v-2l1-2h1h1h2v-1l2-3h1h-2l-2-3l-2 1l-1-1h-1h-1l-1-3l-1-2v-1h-2l-3-3l-1-1l-1-1v-1h-2l1-2l-1-2l-1-3l-4-1l-14 8z"/><path id="48289" d="m787 481l-1 1l1 2v3l1 1v2v2l2 2l-1 2l1 1h1l1 2l-1 5h2l-1 3l4-2h2l7-5l2-2h3l3-2h16l-1-4h1l1-2h1l-1-2v-2l2-2v-2v-2l1-1v-1h1l1 1l1-1v-2h1v-2h-1l1-2l-3-1v-3l-1-1v-3l-1-1h-2l1-1h1l-1-1h-1l1-2v-1l-2-1l1-2h2v-2l-1-1l2-2v-1l-2-3l-2 1l1 2l-1 2h-1l-1-2l-34 18l-7 4l1 1v3l-1 2v2z"/><path id="48291" d="m874 562l6 16l3 9l2 6h2l1 2l-1 5l1 3l37-1h1h3v-19h-11l-11-34l-3 1l-6-1l1 1z"/><path id="48293" d="m740 441l10 17l15 27l22-13l-1-1l7-4l-20-34l-17-1z"/><path id="48295" d="m465 0v42h41v-42h-7h-7h-9h-1h-1h-2h-2h-2h-1h-1h-7z"/><path id="48297" d="m633 714v48h8h26l-1-1v-1l-1-1l1-1v-1l6-5l1-1l-21-42l6-2l-7-8z"/><path id="48299" d="m585 511v38h28l14-1l5 2v-7l-1-1h-1l-2 1l-1-1v-1l1-1l-1-3v-1l-1-2h-1v-1h3l-1-3l1-1h1l1-2l-4-1v-1v-1v-1h1l1-3h1l1-1l-2-1l-2 1l1-2l-1-1h-2v-1v-1l1-3z"/><path id="48301" d="m203 415v2l2-1l1 2l-1 1l1 1h1l1 1v1v2l2 1v2l4-2l1 2l1 2h-1l1 2v2l1 3l1-1v1l2 1v1h3h2l1 2l1 1h3v2h-1v1l2 2h22v-31h-30h-2h-10z"/><path id="48303" d="m347 249l1 40h40l-1-40z"/><path id="48305" d="m348 289v39h29h11v-39z"/><path id="48307" d="m536 497v13h9h30v-47v1l-2-1h-3l-2 1v-2l-1 1l-3-2l-2 3l-2 1v1h-1l-1 2l-2-2v-1l-1 1l-1-1h-2v-2h-1l-2-1l-1 2l1 1l-2 1l-1 1l-1-2l-2 1l-1-3l-1-2l-2-1h-3l1 33z"/><path id="48309" d="m690 451l-1 1l14 24l6 7l4-4l32-18l5-3l-10-17l-8-14l-18 11z"/><path id="48311" d="m598 749l-1 13h36v-48v-3h-23h-12l-1 2z"/><path id="48313" d="m792 507l1 1l2 1l1 1l-1 2l1 3v1l1 1l1 2v1h3l20-4h1l2 1l2-2h1l2-2h2l1-1l3 1h1l1 1l2-1v-1h1v-2l-2 1l-2-4l-1-2h1l1-2l-1-1v-1h3v-1l-1-1l-1-2h-1l-1 1l-2-1h-1l-2-1h-1h-16l-3 2h-3l-2 2l-7 5h-2z"/><path id="48315" d="m909 336l1 3l2 1l-2 1v2l1 1l1 1l3 2h1l2 2h1l1 1h1l1 1l3 1h2h3h3h1h1l1-1h1v-1h1h1v-1h1v1l1-1v-1h1v-1l1 1v-1h1v1v-1h1v1v1h1v1h-1l1 1l1 1h2l2-1l1-2l1-1h1l1 1h1v1l-1 1v1h1l1 1l3-1v-6v-1v-1v-1v-7v-1h-1l-46 1z"/><path id="48317" d="m338 368v39h33h6l1-39h-40z"/><path id="48319" d="m545 510v20v19h14h26v-38h-10v-1z"/><path id="48321" d="m782 733l3-2l1-1l2-1l2-2l2-1l2-2l2-1l9-4l6-3l9-4l5-3l10-6l2-1l5-3l6-4h1l-1-1l-1 1h-1h-1h-1h-1v-1v-1v-1h-1v-1h-1l-1-1l-1-1h-1v-1l-1-1l1-1v-1h-1v-1h-1v-1h-1v1v-1h-1h-1h-1h-1h-2h-1v-1h1h-1v-1h1h-1v-1v-1l-1 1v-1h1v-1h-1h1h-1v-1h1h-1v-1h1l1-1h-1v-1v1l-1-1h-1v-1v-1h-1h-1h-1v-1v-1v-1v-1l-1-1v-1h1v-1v1v-1l-1-1v-1v-2l-2-1l-7 7l-26 16l-1 25v3z"/><path id="48323" d="m455 673l1 1v1v1v1v2h1v2v3v1l1 1l-1 1v1l1 1h2v1l1 1v1l1 1h1l-1 1v1h1h1l1 2l1 1l-1 1l1 2h1l1 2v2l-1 1v1l1 3h2v1h1h1v1v1v1l1 1l3 1v1l-1 2v2l2 1v1h2h1l1 1h-1v1h-1h-1v1l1 1l1 1v1l1 1h-1v1v1v1v1l2 2v1l2 2v1v1v1v1l1 1l1 1l1 1v1l2-1v1h1v2v1h8l-1-39l1-38z"/><path id="48325" d="m551 625v47h46v-14v-23v-15l-9 11h-3v1l-2-1l1-1l-1-1l1-2v-1h-2z"/><path id="48327" d="m497 496v34h48v-20h-9v-13z"/><path id="48329" d="m332 407v39h39v-39h-33z"/><path id="48331" d="m711 526l3 2l9 24l14-8l27-16l-1-1l1-1l-1-2h-1v-1v-1l-1-2l-1-1l-2-3v-1h1l-1-1l1-1l-1-1l-2 1h-1v-1h-1l-1-1v-2l-1-1v-1l2-2l-1-1h-1v-3v-1h-1l-1-2l-1 1h-1l1-2l-1-2v-1l-7 4l-2 2l-10 5l-13 9h-1z"/><path id="48333" d="m583 462v1h1v1h1v1h1v-1v-1h1v1v1l1 1h1l1-1v1l1-1h1h1v2l1 1h1l1-1v1h1h1h1h1l-1 1v1h1v1h1v-1v-1v-1h1v-1v-1h1v1v1h1h1h1v1v1h-1v1v1v1h-1l1 1l1-1h1v-1h1l1-1v1l1 1l-1 1l1 1l-1 1h1v-1h1v1h-1l1 1h1l1-1v-1h1v1l-1 1v1l-1 1h-1v1l1 1h1v1v-1h1l1 1v1h1v1l22-16v-1l-15-24l-2-3l-13 2l-7 1l-2 7l-16 11v1z"/><path id="48335" d="m417 368l-1 39h28h11l1-39l-39-1z"/><path id="48337" d="m660 282v3h5h33v-44h-1h-2l-1 1h-1v1h-1l-2-1l-1-1v-1h1v-2l-2-2l-2-1l-1-1h-1h-1l-1 1l-1 2l-1 1l-1 1h-1h-1v1v1h-1h-1v1v1l-1 1h-1v1l-2 1l-2 1h-1l-2-1l-3-2h-1h-1h-1v-1z"/><path id="48339" d="m824 537l1 12l1 14v2v6v14h3l2-1l4-1l1 1l3-2l1-1h1h1l1-2l2-1h1h1l1 1l1 1l1 3l1 1l3-1l1-1l1 3h1h1l2 1l3 3v1h2h2l1-1l4-4l8-7l-6-16l-4 3v-1l2-2l-2-1l-1-2h-2l-3-2l-1-1l-3-5v-3h-19z"/><path id="48341" d="m341 42v40v1h42v-41z"/><path id="48343" d="m902 292l-1 34l2 2l2 3l3 2l1 1v2h4v-36l-2-2l-1-2l-2 1l-2-2l-2 1v-2l-2-3z"/><path id="48345" d="m427 205v16v28l40-1v-44h-33z"/><path id="48347" d="m889 433v1l3 2v1h-3v1l1 2v2l1 4v1l1 2l1 4l1 1l1-1v3l1 1h1l1 2h1l1 2h2h2l1 1h1l2 2h3l2-1v1l2 1h4v1h3v2l1 1l1-1h1l1 1l1 1v1l2 5l4 1l1 1v2l2 1l1 2l1 1l-1-1l1-1l-1-1l2-2v-2v-2v-1l-1-2v-3l1-1l1-1l-1-2v-3v-1l1-1v-3v-2v-1l-1-1v-1l-1-1l-2-1l-1-2l-2-1v-1l-1-1v-2l-1-2l1-1v-3l-2-2h1v-2l-1-2l-1-2h-37v1l-1 1l-1 2z"/><path id="48349" d="m743 408l13 24l17 1l34-19l-1-1v-5v-1l-1 1h-2l-1-2v-1v-1l1-2l-1-2l-2 1h-2l-1-1v-1l2-1v-2h1h-1l-2 1l-1-1l-3-2v-2l-2 1l-1-1h-1v-2l-2-2l-2-1l-2-1l-1-1l-1 1z"/><path id="48351" d="m970 490l3 19l-2 62h15h-1v-2v-1h1l-1-1h-1l-1-1l-2-2v-1l1-2v-1v-1v-1h1v-1l1-1l2-1v-1v-2l-1-3v-1v-1l-1-1l-1-1h1v-1v-1v-1l1-1l2-1h1l-1-1v-1v-2l1-1l1-1l2-1l1-2v-1l1-1v-1l-1-1l1-1l1-1v-1v-1l1-1h1v-1h1v-1v-1v-1v-2l-1-1v-1l1-1v-1v-1h1h1v-1v-1l-2-2l-1-1v-1v-1h1h1l2-2v-1h-1v-1v-1v-1l-1-1l-1-1v-1l1-1v-1v-1v-1v-1l1-2h-1h-1h-1l-1 1v1l-1-1z"/><path id="48353" d="m456 368l-1 39l32 1h1h7v-30v-10z"/><path id="48355" d="m715 802l-1 1h2h2v-1l6-11l4-6l3-4l-1-1v-2l-1-4h-1l-1 3l-2 4v1v2l-2 3l-3 6l-3 5zm-51-16l-1 12h1l1 1l2 1l1 1v1l1 1l2 1v1h20h19v-1l2-2v-1v-1l2-5l1-1v-1l-4-1l-3-1l-1-2l-2-2v-1v-1v-1v-1l1-2l-3 1h-4l-3-2h-2l-1-1h-2h-1l-2-1v-2h-1v1l-1 1l-3-1l1-1l-2-1v-1h-1h-2l-1-1l-1 1l-1-2l-1-1l-2 1v-2h-1l2-1v-2l-10 10z"/><path id="48357" d="m424 0l-1 42h42v-42h-3h-1h-4h-1h-4h-1h-3h-3h-2h-2h-2h-3h-1h-2h-1h-5h-1z"/><path id="48359" d="m274 118v3v3h67v-41v-1l-67 1v35z"/><path id="48361" d="m954 571v3l2 1l-1 1l-1 3l1 2h2l1 2h-1l-1 2l1 1h2l2 1v3h2v2l1-1v1h2l1 1h1h2l1 1l3 1l1 3v2l-1 5l1-2l1-1l1-2v-2l1-1l1-3v-1l4-2v-1v-1l1-1h2v-1h-1l-1-1l-1-1h1v-1l2-1v-2v-1v1h1v-1l-1-1v-1v-1h-1v-1l-1-2l1-1l1-2h-15z"/><path id="48363" d="m615 349v20h7h31v-4l1-41h-28v5h-11z"/><path id="48365" d="m917 408v9h7h38v-1l-1-1l-1 1v-1v-5v-6v-1v-2v-1v-3v-2v-4v-9v-1v-1l-24 6l-1-2h-1v-2h-1h-3h-2l-2-3v4l-2 4l-1 3l-2 3l-2 4v4l-1 2z"/><path id="48367" d="m654 324l-1 41h35h5v-20v-20h-10l-19-1z"/><path id="48369" d="m274 204h33h7v-40h-40v7v2v3v15v5v1v1z"/><path id="48371" d="m233 525l11 9l18 15l49 39v-20h17v-28h15v-5h11h17v-2l-3-2v-2v-3h-2v-3l1-1l-2-3l1-1l-2-3l-2-1l1-2v-1h-2l-1-1v-1l-3-1v-1l-2-2h-1l-1 1l-2-1l-1-1l-2 1h-2h-1l-1-1l-1 1l-1-1h-1l-1-1l-1 1l-1-2l-2-1h-1h-1h-2l-3-2l-2-1l-1-1h-2l-1-1l-1-2l-1-1l1-2l-1-4l-1-1v-1l-3-2l-1-1l-2-1l-4-1l-1 1l-1-1l-1-1l-1-1l-1-1l-2-1l-1-1l-2 2h-1l-1 2h-2l-1-1l-2 1l-2 2l-1-2l-1-1l-2-1v-1h-1l-2-2h-1v-1h-3l-2-1l-1-1z"/><path id="48373" d="m872 520h1l1 1l1 1l2 2h-1l1 2l-1 1v3l1 1l2 1l-1 1v1l1 1l1-2l1 1l2-1h1v1l2 1h-1l1 2v2l-2 2l1 1l2-1l3 1h1l1 1h2l1 1l2 1l2-1l1 1v1h-2l-1 2v1h1l6 1l3-1h15v-3l-9-43l7-4l-2-1l-2-1l-2-1v-1l-1 2l-1-1h-2l-2-1h-1l-8-4l-7 10z"/><path id="48375" d="m341 83v41h42v-41z"/><path id="48377" d="m127 537v1v1h1h2h1l2 3l1 2v1l1 3l1 3v1h-1l1 3l1 1l-1 1v1l2 2h1v1l1 1v1l1 1l1 1l1 1l1 2v1v1h1h1l1 2v1l1 1l1 3v1v2v1v2v1v1v2h-1v1v2v1h1v3l1 1l-1 2l1 2v1l1 1v1l2 2v1l1 1l1 3h1l2 4v1l1 1v1v2l2 2l-1 1l3 3l1 1h1l1 2h1l4 3v1v1l1 1h1l3 2h1v-1h1l3 1l1 1l2 1v1h1v1v1v1h1l1 1l1 1v1l1 1l2 2h1l1 1h1v1h1v1h1l1 1l2 1l4 2h1h2l1 1h1h3l1 1h2l1 1h2v-52v-49h-8l-46-10z"/><path id="48379" d="m812 335v1l2 3h2l1 2l1 1h1l2 3l3 1l2-1h3v1l2 1v1h2l2 1l2 2l2-1l-3-22v-2h-15h-6z"/><path id="48381" d="m341 124v40h13h28l1-40z"/><path id="48383" d="m371 446v51h38l1-40v-2v-9z"/><path id="48385" d="m501 618h2v1l2 2l-1 1l2 3l-1 1l31-1v-24h-6v-15h-5h-13l-3-1l-1 5h-1l-1 12l-2 1l1 1l-1 2v2l1 1v2h-1l-1 1l1 3v1v1z"/><path id="48387" d="m863 244v1v45h1l3 1h2l1-1h2v1l3-1l2-1l3-1l1 1h2v1h2l1-1h3h2l3 1l1-1h1l2 1h2h1l1 2v-1l2 3v2l2-1v-34l1-1v-1v-1h-1h-1v-1v-1h-1l-1 1h-1v-1h-1h-1v1h-1h-1h-1v-1h-1v-1l-2-1l-1-1v-1v-1v-1h-1v1h-1v-1v-1l-1-1v-1l-1-1l-1 1l-1-1h-1h-1h-1h-1v-2l-1-1v-1l-1 1h-1v-1h-1v-1h-1v-1v-1h-1h-1h-1h-1l-1-1l-3-1h-1l-1 2v1v1v1h-1v1l-1-1v1v1h-1v1z"/><path id="48389" d="m194 494v1l39 30l44-54l-1-1h-3v2h-4h-2l-1-1h-2l-5-1l-1-2v-2l-2 1l-3 1l-2-1h-1l-2-1h-2h-2h-1l-3-3l1-1l-2-3l1-4l-1-1v-2v-1v-3l-2-1h-1l-1 1h-1l-3-2l-2-2v-1h1v-2h-3l-1-1l-1-2h-2h-3v-1l-2-1v-1l-1 1l-1-3v-2l-1-2h1l-1-2l-1-2l-4 2v-2l-2-1v-2v-1l-1-1h-1l-1-1l1-1l-1-2l-2 1v-2h-3l-4 54l-2 23v1z"/><path id="48391" d="m693 753l2 1l2-1l1-1v-1l1 3l1-1l1 2h2l-1 2l2-1h1l1-1l2 1h1h1v1l1-2v1l-1 1l2 1l1-1v2h2v1l1 2l2-2v-1l5-4l9-4h1v-2h-1h-1l-1-1l-3-1l-2-2l1-1l-1-1h1l25-4l-1-2v-2l1-1l1-2v-1l1-1l-2-2l-2 2l-1-2l-1-1l-1-1h-1v-2l-2-1h-1l-1 1v1l-3-2l-2 1l-2-1l-1-1l-1-2v1h-1v-2l-1 1h-1l-1 1l-1-2l-2 1l-1-1h-1h-1l-16 14z"/><path id="48393" d="m423 82v1h42v-41h-42z"/><path id="48395" d="m748 495l1 2l-1 2h1l1-1l1 2h1v1v3h1l1 1l-2 2v1l1 1v2l1 1h1v1h1l2-1l1 1l-1 1l1 1h-1v1l2 3l1 1l1 2v1v1h1l1 2l-1 1l1 1h1v2l3 1l8-4l3-4l1-3v-2l1-2l2-1v-2l2-2l6-4h1l1-3h-2l1-5l-1-2h-1l-1-1l1-2l-2-2v-2v-2l-1-1v-3l-1-2l1-1l-1-2v-2l1-2v-3l-22 13z"/><path id="48397" d="m771 336v6l17-1v-2v-13h-5h-7h-1h-4v1v5z"/><path id="48399" d="m488 408v34v10l10 1h29l1-45h-33z"/><path id="48401" d="m888 382v21v26h4h37l-1-1v-2l-1-2l-3-2v-5h-7v-9l1-5l1-2v-4l2-4l2-3l1-3l2-4v-4l-2 1l-1-1l-2-1l-2 1l-1 3l-1 1l-2-1h-20z"/><path id="48403" d="m959 491l1 1l10-2l24-1l-1-1v-2v-1v-1l-1-1v-1h1v-1l-1-1h-2l-1-1l-1-1v-1h-1l1-2v-2h1v-1h-1v-1v-1v-1l-2-1v-1v-1v-1h-1l-3-2v-1v-1h1l1-1v-1h-1v-1v-1h-1l-1 1l-1-1h-1l-2-2v-1l-1-2l-4-1l-1-1l-6 3l-1 1v9l-1 1l-3 4l1 2v2l-1 2v1v3v1l1 4l-1 2v4z"/><path id="48405" d="m933 446v1l2 1l1 2l2 1l1 1v1l1 1v1v2v3l-1 1v1v3l1 2l-1 1l-1 1v3l1 2v1v2v2l-2 2l1 1l-1 1l1 1l3 1v1l2 1v1h1l2 1v1l2 1v1l4 2l1 1l7-1v-2l-1-1l1-2v-4l1-2l-1-4v-1v-3v-1l1-2v-2l-1-2l3-4l1-1v-9l-8-5z"/><path id="48407" d="m860 548v3l3 5l1 1l3 2h2l1 2l2 1l-2 2v1l4-3l25-12l-1-1h-1v-1l1-2h2v-1l-1-1l-2 1l-2-1l-1-1h-2l-1-1h-1l-3-1l-2 1l-1-1l2-2v-2l-1-2h1l-2-1v-1h-1l-2 1l-1-1l-1 2l-1-1v-1l1-1l-2-1l-1-1v-3l1-1l-1-2h1l-2-2l-1-1l-1-1h-1l-3-2l-1-2l1-2l-1-1h-5v3l-1 1z"/><path id="48409" d="m666 758l-1 1l1 1v1l1 1l2 1l2 1h3l1 2l-1 1v2l-2 1h1v2l2-1l1 1l1 2l1-1l1 1h2h1v1l2 1l-1 1l3 1l1-1v-1h1v2l2 1h1h2l1 1h2h-1v-2l2-1l3 1h6l3-1l1 1l2-1h2h1l1 1v1l1 1v1v1h1h1h1l1-1l2-4l1-1v-1l-9-15v-1h-2v-2l-1 1l-2-1l1-1v-1l-1 2v-1h-1h-1l-2-1l-1 1h-1l-2 1l1-2h-2l-1-2l-1 1l-1-3v1l-1 1l-2 1l-2-1l-2 3l-19-4l-6 5z"/><path id="48411" d="m575 510v1h10h40h2v-2h-3v-2l1-1l-1-2l1-2l-1-2h-2v-2l2-1v-1h-1l1-2l-1 1l-1-1h-2l-1 2l-2-3l1-1v-2h2v-1l-1 1l-2-1l1-1l-1-1h-1h-1l1-3v-1h-1v-1l-1-1h-1v1v-1h-1l-1-1v-1h1l1-1v-1l1-1v-1h-1v1l-1 1h-1l-1-1h1v-1h-1v1h-1l1-1l-1-1l1-1l-1-1v-1l-1 1h-1v1h-1l-1 1l-1-1h1v-1v-1v-1h1v-1v-1h-1h-1h-1v-1v-1h-1v1v1h-1v1v1v1h-1v-1h-1v-1l1-1h-1h-1h-1h-1v-1l-1 1h-1l-1-1v-2h-1h-1l-1 1v-1l-1 1h-1l-1-1v-1v-1h-1v1v1h-1v-1h-1v-1h-1v-1v-1l-2 1l-2-1l-3 3l-1-1z"/><path id="48413" d="m433 497v17v3v13h64v-34l-43 1z"/><path id="48415" d="m417 328v39l39 1v-40h-25l-4-1z"/><path id="48417" d="m536 329v40h38h1v-18v-22h-29z"/><path id="48419" d="m924 417v5l3 2l1 2v2l1 1l1 2l1 2v2h-1l2 2v3l-1 1l1 2v2l1 1l23 3l8 5l1-1l6-3l1 1l4 1l-1-1l1-1v-1l1 1v-1v-3l-1-1l1-1l1-1v-1v-1h-1v-1v-1l-1-1v-1l1-2h-1v-1v-1h-1l-1-1l-1-1v-2h-1v-1v-1l-1-1v-1h-1h-1l-1-1v-1h-1l-2-1l-3-5z"/><path id="48421" d="m341 0v42h42l-1-42h-2h-3h-1h-5h-1h-3h-8h-8h-6h-1z"/><path id="48423" d="m842 353v19l4 4l2 2l1 2l3 2l1 1l-1 2l1 3l-1 2l-1 1v2l-1 1l1 2l1 1l-1 5l1 1h18h18v-21v-1v-14l-2 1h-1l1-2l-2 1l-1-1h-1h-1v-1h-1h-2h-2v-1h-1l-1 2v-1l-1 1l-2-2v-1l-2 1l-1-1h-2l-5-3l-3 1h-1v-1h-1v1v-1v1v-1h-2h-1h-2l-1-1h-2v-1l-1-1l-3-2v-1h-1z"/><path id="48425" d="m663 394v1l6 12l18-11l1 1v-11h-13z"/><path id="48427" d="m569 891v1h1l1 1h2l1 2l1 2l-1 3v1v1l2 1v1h2l1-1h1h1v1h1h1h2h1v2h1l1-1l2 2h1h2h1h1l1-1h1l1 1v1v2h1h2v1h1v1h1l1 1v1l1 1h1l1 1v1l1 1h1l1-1l1-1h1h1h1l7-16l7-15l6-14h-8h-40l-5 9l-12 9l1 1z"/><path id="48429" d="m575 351v18h40v-20v-20h-29h-11z"/><path id="48431" d="m410 446v9l30-1l1-13l2 1l1-35h-28h-6z"/><path id="48433" d="m467 288v40h28h12v-40z"/><path id="48435" d="m433 530v37h20h44v-37z"/><path id="48437" d="m354 164v40l33 1h7v-41h-12z"/><path id="48439" d="m693 345v20h9h3h3h3h17h2h1l1 1v-9v-3v-2v-1v-5v-2v-2v-1v-2v-1v-2v-10h-7h-3h-1h-4h-7h-2h-2l-2-1h-1h-10z"/><path id="48441" d="m495 378v30h33h6v-32v-7v-1h-39z"/><path id="48443" d="m311 568v20l18 15h1h1v1l1 1h1v-1h1v1h1l1 1l2 1l1-1h1l2 3l1 1l2 1h2h1l2 1l1-1v-1h1h2h1l1-1v1h1v1l1-1l1 1h1l1-1h1l1 1l1-1h1l2 1h1h1v1h1v-1h1l1 1v-45l1-1l1-2l3-2l2 1l1-1v-1l-2-1l-1-1v-1v-1h-3v-1l1-2v-1l-1-1l1-1l2 1l1-1l-1-2l2-1l-1-1l1-1l2-3l-2-2l1-3l-1-2h-2l-1-1h-3h-1h-1h-17h-11v5h-15v28z"/><path id="48445" d="m309 289v39h29h10v-39z"/><path id="48447" d="m546 288v41h29h11v-41z"/><path id="48449" d="m877 289v32l1 1l2-1l1-1h1l2-2h2h4h2h1v2l1 1l1 1l2 1l1 1l3 2l1-34l-1-2h-1h-2l-2-1h-1l-1 1l-3-1h-2h-3l-1 1h-2v-1h-2l-1-1z"/><path id="48451" d="m410 455v2l43 1l1 39l43-1l1-43l-10-1v-10h-45l-2-1l-1 13z"/><path id="48453" d="m649 555l-4 6l14 12l2 1l8 7l4 3l2 2l2 2l4 3l4-5v1l12-13l1-1l6-13l3-4l-1-1l-2-1h-1l-2-2h-2l-3-2l-2 1h-1l-1-2l-1-1h-2l-4 3l-1-1h-1l-1 2h-2l-2 1l-1 1l-1 1h-1l-1-2h-1l-3-2l-1-3l-1-1l1-3l-3-2l-2 1l1-2v-2h-2l-1-2l-3 2l-1-2v1l-2 1l-1-1l-6 12l2-1v2z"/><path id="48455" d="m854 499v11l2 1l-1 1l2 2h1v1h-1v2h1h2l1-2l1 2l1-1v-3h5l1 1l-1 2l1 2l3 2l20-19l7-10l-1-1v-2l-1-2l1-3l-1-1l-2-1l1-1v-1v-1h-1l-1-2l1-1l-1-1h-3l-1-1l1-1h-1v-2z"/><path id="48457" d="m920 499l-7 4l9 43h36v-1l-1-1v-1h-1v-1v-1h1v-1v-1v-1h1l1-1v-1v-1l-1-1h-1l1 1h-1v-1l-1-1v-1h-1h-1v-1l-1-1v-1v-1v-1v-1v-1l-1-1h1h-1v-1h-1h-1l-1-1l1-1h-1v-1v-1v-1l-1-1v-1v-1v-1l-1-1v-1h1l-1-1h1l-1-1h1h-1h-1v-1v1v-1l-1-1h1h-1v-1v-1v-1v-1v-1h-1h-1h-1l-1-1v-1h-1l-1 1h-1l-1-1h-1l-1 1l-1-1v1h-1h-1l-1 1h-1v1h-1v-1v-1v-1h-1l-1 1l-1-1l-2-1l-1-1z"/><path id="48459" d="m875 355v9h1v1h2h2h1v1h1h1l1 1l2-1l-1 2h1l2-1h1l2-1l10-4l4-7h1l2 1h2v-13v-2l2-1l-2-1l-1-3v-2l-1-1h-33z"/><path id="48461" d="m330 446v41l1 6v4h40v-51h-39z"/><path id="48463" d="m498 626v47l53-1v-47h-15l-31 1z"/><path id="48465" d="m372 567v45h1l1 1h2v1l1-1h3v1h1h1v-1l2-1l2 1v-1l1-1l1-1l1 2v1l1 1l2-1l2-1l1 1v1h1h2v1h1v1h1v1v1l1 1l1 3v1h1h2h1v1h1l-1 4l1 2h1l1-2v-2v-1l2 1v1v3l-1 3v1l1 1l1-1l1 1h2h2v1l1 3h1h1v-1l1 1h1h1l2 1l1 2l1 1v1v1l1 1l1 2h1l2 1v1h1h1l1 1l1 1l1 1h2v1v2h1h1l1 1h1l2 2h1h1h1v-1h1l1-3l-1-1v-2l3-1v-3v-3l1-1v-18v-59h-20h-1h-2z"/><path id="48467" d="m805 339v44h48l-1-1l-3-2l-1-2l-2-2l-4-4v-19v-1l-3-1v-1l-2 1l-2-2l-2-1h-2v-1l-2-1v-1h-3l-2 1l-3-1l-2-3h-1l-1-1l-1-2z"/><path id="48469" d="m711 692h1v2l3-1h1l1-1l2 1l1 2v1l1 2l2 2l-1 2l-1 1l1 1l-1 10v1l1 1v1l1 1h-1v1h1h1l1 1l2-1l1 2l1-1h1l1-1v2h1v-1l1 2l1 1l2 1l2-1l3 2v-1l1-1h1l-1-2l1-2l-1-1l-1-1l-1-1l6-4l10-3l4-3h1l1-1l-1-1l-1-1v-2h-2v-2v-1l-1-2h-1l1-3l-2-2l-1-2h-1l-1-2h-2l-1-6l-2-3l-8-3l-3-4z"/><path id="48471" d="m822 516h-1l3 21l17 11h19l2-31l-1-2l-1 2h-2h-1v-2h1v-1h-1l-2-2l1-1l-2-1v-11l-14 11v2h-1v1l-2 1l-1-1h-1l-3-1l-1 1h-2l-2 2h-1l-2 2z"/><path id="48473" d="m796 580l1 2l1 2l1-1v1v1h1l1 1h-1v2h2l1 1l-1 1h2v2l-1 1l1 2l-1 1l-2-1l1 2h1v1l-1-1l-1 1l1 2l-1 2l3 2h-2l1 1l-1 1v1l1 1v1l2 1h2l1 1v1l1 2l-1 2v1h5v-2h2l9-4l-3-10l-7-23l1 2h1l1 1l2 1h1l2 2h1v1h1h2v-14l-9 1h-3l-10 1l-1 1l-1-1l-1 1l-1-1l-1 1v3v1v1v1l-2-1l1 1z"/><path id="48475" d="m231 446l3 2h1l1-1h1l2 1v3v1v2l1 1l-1 4l2 3l-1 1l3 3h1h2h2l2 1h1l2 1l3-1l2-1v2l1 2l5 1h2l1 1h2h4v-2h3l1 1l1 1l2 1h3v1h1l2 2h1v1l2 1l1 1l1 2l2-2l2-1v-32h-2h-40z"/><path id="48477" d="m750 579l2 1h3h1l2-2l1 1l3 1l-1 1l1 1l1 1v3v1v2l3-3v1h5l18-3h1l1 2h2l2 1h2l2 1l1-2h1l-1-1h-1v-1v-1l-1 1l-1-2l-1-2h2l-1-1l2 1v-1v-1v-1v-3l1-1l1 1l1-1l1 1l1-1l-1-1h1v-1l-1-1l1-3h-1l1-2l-2 1l-3-2v-1v-1v-2v-1l-2 1v-2l-1-1v2l-4 1h-1l-1 1h-1l-1-2h-1l-2 1h-2l-3 2v-1l-1 1l-3 1h-3v1h-1l-2 1l-2-1v1l-3 1l-3 1h-1l-2 3v1h-2h-1h-1l-1 2v2z"/><path id="48479" d="m490 750h1l1 1h1v1h1h1l2 1l2 1h1v2l1 1l1 1v1v1h1l1 1h1v3l1 1l1 2v1h2h2v2v1v1l1 2h2v1v1v1l-1 1l1 1l1 1h1v1l-1 1v2l1 1h2v1v1h1h1v-1l1 2v1l1 1h1h1l1 1v1l2 2v1v1h1l1 1l1-1h1h1v1v1v1h2h1v-1h1h1v1h1v1v1h1h1v-1l1 1l1 2l1 1v1v1l-1 4h1h1l2 1l-1 2v1v1v2v3l-1 1v1v1v1l-1 1h-1l-1 1l1 1h1h1h1v1v1v1h1h1h1l6-5l3 4l29 1h12v-8l-1-60l-44 2l-1-14v-1l-54 1z"/><path id="48481" d="m765 657l-3 2l25 24l26-16l7-7l3-2l-1-1h-2l-1-3v-1l-2-1v-1h-2l-1-1l1-1v-1l-2-1v-3h-1l-1-2v1l-4-3l-1-1v-2h2l1-1h-1l-1-1v-1l1-1l-1-2h-1v-2l-2-1l-2-2h-2l-3-1l-10 10l-3 10l-2 1z"/><path id="48483" d="m465 83v41h41v-23v-18z"/><path id="48485" d="m586 214v35l40-1v-22v-1l-1 1h-1v1h-2v1h-1l-1-1l-2-2v-1v-1l-1-1l-1-1l-1-1l-2-1h-1h-1l-1-1h-1v1l-3 2h-1h-1h-1h-1v1h-1v-1h-1l-2-1l-1-1l-2-1h-2v1v1h-1v-1v-1l-3-1l-1-1l-1-1l-1-1z"/><path id="48487" d="m546 225v24h40v-35h-1v1h-1v-1v-1h-1h-1v1l-1 1l-1-1h-1v1h-1v-1h-1h-1h-1l-1 1h-1l-1-1h1v-1h-1l-1 1h-1h-2v-1v-1l-1-1v-2l1-1l-1-1h-1v-1v-1v-1v-1v-1h-1l-1-1v-1v-1h-1l-1-1h-1h1v-1h1l-1-1l-2-1l-1 1h-1v-1l-1-1h-1v-1h-1v-1v-1h-1h-1l-1 2v1v1l1 1l-1 2v1h-1l-1-1v1h-1l-1-1l-2-1z"/><path id="48489" d="m711 889l-4 2l6 1l2 9l1 2h2l-3-8l-2-8h-2zm-53 11h1l6 1h4v7l22 4h3l1-2h1l2-1h1l2 1v-1l1-2h1l1-2l1-2h3l-2-6h-3l1-2l-1-2v-2l-1-2l-1-2h-32l-7-1l-1 5v2l-1-1z"/><path id="48491" d="m655 538l1 1l2-1v-1l1 2l3-2l1 2h2v2l-1 2l2-1l3 2l-1 3l1 1l1 3l3 2h1l1 2h1l1-1l1-1l2-1h2l1-2h1l1 1l4-3h2l1 1l1 2h1l2-1l3 2h2l2 2h1l2 1l1 1l2 1l14-5l-9-24l-3-2l-15-6l-9-4l-11-3h-4l-11 10z"/><path id="48493" d="m627 670l6 7l11 13l15-12l20-17l-10-12l2-2h-9h-10l-2 1l-1-1l-1-5l-14 20z"/><path id="48495" d="m253 415v31h40v-39h-1h-19v8h-2h-10h-4h-1z"/><path id="48497" d="m665 285l-1 39l19 1h10h10h1l1-17v-3v-20h-7z"/><path id="48499" d="m836 328l3 22v1l3 1v1l1 1h1v1l3 2l1 1v1h2l1 1h2h1h2v1v-1v1v-1h1v1h1l3-1l5 3h2l1 1l2-1v1l2 2l1-1v1l1-2v-9v-22l1-9l-1-1l-1 5h-5h-6z"/><path id="48501" d="m273 328h36v-39h-36v6v1v5v4v7v9v3v1z"/><path id="48503" d="m586 288v41h29h11v-5v-35z"/><path id="48505" d="m548 830l1 1v1l-1 2h1v1l1 3v1l-1 1v1l1 1l-1 1v1l1 1l-1 1l-1 1l1 3h-1v1h1v1h1v-1h1v1l1 1l1 1h1v1l-1 1h-1l1 1v1l1 1h1h2l1 1v1l-1 2l1 1h2l1 1l1 1v2l2 3v3l2 2v3l1 3l2 3v4l12-9l5-9v-41l-29-1l-3-4z"/><path id="48507" d="m498 673l-1 38h45h3h6v-39z"/></svg>
