<?xml version="1.0" encoding="UTF-8"?><!DOCTYPE svg PUBLIC '-//W3C//DTD SVG 1.1//EN' 'http://www.w3.org/Graphics/SVG/1.1/DTD/svg11.dtd'><svg viewBox="0 0 612.735 763.075" xmlns="http://www.w3.org/2000/svg"><path id="11001" d="m0 229l5 8l4 13l10 13l20 23l9 24l6 6l22 20l10 6l23 9l12 1l24 3l5 4l3 2l11 39l15 32l9 1l3 3l9 15l-1 7l7 9l8-2l2-6l-3-7l4-1l5 4h1l8 11l4 11l1 9l-2 5l22 51v1l-3 33l-26 6h-7l-1 2l-1 4v14l4 6l3-3l4 1l6 5l3 14l-3 27l3 21l7 3l-9 53l-1 34l43-43l67-69l4-1l21-24l39-36l51-52l11-12l13-13l11-10l86-87l3-2l25-25l4-4l-53-54l-22-23l-20-20l-146-144l-30-31h-1l-16-18l-16-16l-6-5l-60-60l-14-14l-4 4l-34 35l-51 50l-41 41l-17 16l-26 29l-12 9z"/></svg>
