<?xml version="1.0" encoding="UTF-8"?><!DOCTYPE svg PUBLIC '-//W3C//DTD SVG 1.1//EN' 'http://www.w3.org/Graphics/SVG/1.1/DTD/svg11.dtd'><svg viewBox="0 0 612.73 712.023" xmlns="http://www.w3.org/2000/svg"><path data-zip="20001" d="m267 314.6l3 0l0 42.3l-3 5.6l3 0l14.9 -0.5l0 4.4l5.9 -0.2l0 17.1l13.7 4.9l8.6 2.3l4.6 -3.8l7.1 1.6l0.1 -2.3l1.7 -6l1.2 -4.3l-5.5 0l0 -20.3l-9.1 0l0 -4.2l9 0l0 -9.1l-5.7 -0.2l2.2 -7l-5.5 -2.3l9.2 -3.8l-0.1 -13.1l0.3 -59.5l-14.8 1.5l-7.9 -4.7l-3.6 -3.4l-5.3 -2.3l-17.6 3l-4.8 -1.7l0.3 1.6l1.1 5.8l0 52.9l-3 5.5z"/><path data-zip="20002" d="m313.2 390.5l0.6 7.1l8.6 5l9.2 -0.1l-0.1 -8.2l7 0l4.3 0l0 -4.2l4.3 0l0 4.2l23.1 0l3.2 2.2l9.4 -0.1l0 -3.5l7.8 1.5l14.2 0l0 -8.3l10.2 0l0 8.3l40.5 -0.3l4.4 -20.3l-1 -15.7l8.2 -14.6l4.1 -10.3l10.2 -18l2.6 -12.8l4.6 -2l17.6 -1.3l6.8 -6.6l-84.4 -5l-16.8 -1l-10.1 5l-57.2 25.6l15.2 -39l3.6 -10.8l-1.8 -6l-1.6 11.4l-12.7 -0.1l0 -12.1l-9.4 -0.3l-7.3 -5l-7.7 1.2l-0.3 59.5l0.1 13.1l-9.2 3.8l5.5 2.3l-2.2 7l5.7 0.2l0 9.1l-9 0l0 4.2l9.1 0l0 20.3l5.5 0l-1.2 4.3l4.9 0l0 6l-6.6 -0.1l-0.1 2.3l-7.1 -1.6l-4.6 3.8z"/><path data-zip="20003" d="m317.8 460.9l1.5 17.8l3.1 0l0 -10.5l-0.3 -2.3l1.3 0.9l1.5 2l2.3 1.5l5.7 3l5.9 -8.1l23.1 3l8.8 -0.2l6.9 -4.6l17.9 -13.4l17.3 -7.3l13.8 -5.6l10.8 -16l8.2 -9.6l10 -17.3l-40.5 0.3l0 -8.3l-10.2 0l0 8.3l-14.2 0l-7.8 -1.5l0 3.5l-9.4 0.1l-3.2 -2.2l-23.1 0l0 -4.2l-4.3 0l0 4.2l-4.3 0l0 2.5l0 5.8l0 5.9l-6.9 0l0 -5.9l-9.2 0.1l0 9.4l-0.1 11.2l0 2l0 11.7l-4.4 0l4.4 3.3l0.2 20.6l-4.6 0z"/><g data-zip="20004"><path d="m255.7 362.5l0 3.6l5.8 0l1 0l0 -3.6l-6.8 0z"/><path d="m233.9 373.4l0 12.3l17 0l0.7 -12.8l4.2 0l0 12.7l29.3 0.1l5.8 0l0 -2.6l0 -17.1l-5.9 0.2l0 -4.4l-14.9 0.5l0 3.6l-7.5 0l-0.1 4.5l-6.8 0.1l0 -4.7l-4.9 0l-4.3 -5.3l0 11l-8.3 1.6l-4.4 0z"/></g><path data-zip="20005" d="m242.4 329.9l0 16.8l5.7 4.5l-1.5 9.6l4.3 5.3l4.9 0l0 -3.6l6.8 0l0 3.6l7.5 0l0 -3.6l-3 0l3 -5.6l0 -42.3l-3 0l-24.6 0l0 9.1l5.7 0l-5.7 6.3z"/><path data-zip="20006" d="m207.3 370l1.7 1.1l3.9 2.6l9.3 6.7l5.1 5.3l6.6 0l0 -12.3l0 -12.8l4.4 0.2l0 12.5l8.3 -1.6l0 -11l1.5 -9.6l-5.7 -4.5l-15 0l-5.1 -4.6l-4.2 4.6l-5.1 -4.6l0 4.6l0 4.5l0 2.3l0 4.2l0 8.3l-5.6 3.9z"/><path data-zip="20007" d="m43 295.1l4.7 12.8l6.4 6.7l21.8 19.5l10.2 6.4l21.4 7.9l1.9 0.7l33.7 4.3l1.5 0.2l2.1 1.3l1.9 -2.4l17.4 -3.8l-0.1 3.6l15.6 5.2l-0.3 -2.3l-3.1 -3.9l5.7 -7.4l8.8 -19.5l10.1 -4.3l-6.8 -8.4l-5.5 -2.2l-13.2 -11.2l1.7 -8.6l-2.2 -2.1l-13.8 -0.5l-3.3 -2.2l-8.2 1.4l-7.5 -7.5l-1.5 -11.1l13.4 3l4.7 4.6l4.5 0.6l-2.6 -6.7l-6.8 -4.7l0 -11.5l-32 0l-4.7 4.6l-5.8 -7.2l-1.7 7.7l-3.2 -6.4l-31.8 1.1l-2.9 6.6l-5.7 -0.1l-6.6 13.1l0.5 4.4l-6 5.3l-2.7 -2.6l-1.1 6.8l-9 8.5z"/><g data-zip="20008"><path d="m186.2 85l-3.5 6.8l5.5 1.7l4.8 -3.3l0.6 -5.2l-7.5 0z"/><path d="m140.1 144.4l-7.1 -0.1l7.5 16.5l-2.8 13l0.2 39.5l5.4 -3.5l6.7 0l5.6 3.5l0 39.8l0 11.5l6.8 4.7l2.6 6.7l-4.5 -0.6l-4.7 -4.6l-13.4 -3l1.5 11.1l7.5 7.5l8.2 -1.4l3.3 2.2l13.8 0.5l2.2 2.1l-1.7 8.6l13.2 11.2l5.5 2.2l6.8 8.4l3.9 -2.9l6.3 0.3l0 -3l0 -5.5l-2.7 0l4.3 -6.8l-0.4 -5.3l-3.8 -9.2l-3.9 -2.6l-3.9 -8.7l4.3 -4.4l-0.8 -9.4l-1.8 -11.9l10.4 7.9l3.7 -5.2l0.6 -2.7l-7.6 -12.2l-10.2 -3.2l0.2 -3.7l7.4 -7.5l-0.5 -7.1l-11.6 -2.7l2.4 -14l4.2 -10l-4.1 -5.8l-1.5 -12.5l-3.9 -9.1l-4.1 -1.4l-7.9 -8.8l-4.8 -11.7l-20.5 -4.3l-6.4 7.1l-3.1 -2.3l2.4 -3.6l-5 -0.3l-4.3 6.8z"/></g><path data-zip="20009" d="m202.6 276.5l3.9 8.7l3.9 2.6l3.8 9.2l0.4 5.3l-4.3 6.8l2.7 0l0 5.5l29.5 0l24.6 0l3 -5.5l0 -52.9l-1.1 -5.8l-6.7 -1.3l-36.2 0.7l-5.9 -4.8l2.3 6.6l-2.2 3.5l-2 -1.6l-3.7 5.2l-10.4 -7.9l1.8 11.9l0.8 9.4l-4.3 4.4z"/><g data-zip="20010"><path d="m201.5 231.7l-0.2 3.7l10.2 3.2l7.6 12.2l-0.6 2.7l2 1.6l2.2 -3.5l-2.3 -6.6l5.9 4.8l36.2 -0.7l6.7 1.3l-0.3 -1.6l4.8 1.7l17.6 -3l5.3 2.3l3.6 3.4l7.9 4.7l14.8 -1.5l0.7 -5.8l5 -11.1l-23.7 0.4l-9.3 2.1l-2.6 -13.6l-0.2 -10.2l0.6 -1.9l-6.9 -1.1l-4.9 4l-0.2 -3.8l-31.1 0.1l-5.2 -3.9l-16.7 9.3l-11.9 1.1l-6.8 3.2l-1.5 3.4l-6.7 3.1z"/><path d="m185.9 218.3l-1.5 -0.4l3.1 2.2l2.3 -0.9l1.4 -0.6l-1.1 -0.4l-4.1 0.1z"/></g><path data-zip="20011" d="m199.2 200.3l-2.4 14l11.6 2.7l0.5 7.1l-7.4 7.5l6.7 -3.1l1.5 -3.4l6.8 -3.2l11.9 -1.1l16.7 -9.3l5.2 3.9l31.1 -0.1l0.2 3.8l4.9 -4l6.9 1.1l4.7 -1.8l6.2 -7l11.1 -17.3l1.6 -0.9l8.4 8.4l9.3 6.1l1.3 -7.9l8.2 0l-9.6 -10.6l13.2 -4.8l-4.9 -15.3l8.6 -3l8.9 -0.6l-2.4 -2.4l4.8 -1l5.2 -1.9l4.7 -0.8l3.9 0.2l5.9 1.2l1.5 -3.2l-27.7 -27.5l-15 -14.9l-6.9 -7.1l-16.2 -0.1l-3 -3.3l-6.7 0.1l0.2 3.3l-7.3 0l0 4.3l-10.9 0l0 -4.3l-22.2 0l-6.4 -1l-16.7 0l-2.9 2.6l0.2 -7.1l-7 0l-0.6 15.4l4.8 0.6l2.6 -3.5l0 10.6l-6.4 -1.9l-7 1.3l-7.3 5.2l8.4 6.3l-4.6 6.1l-0.5 13.2l-6.3 7.2l-2 6l-5.5 4.9l0.2 5.3l8.4 1.7l-5.7 8.8l-4.5 -1l-6.6 5.5l-4.2 10z"/><path data-zip="20012" d="m213.3 15.6l-14.9 14.4l17.2 11l9.8 1.1l6.5 5.1l-1.8 6.1l-4.4 2.6l-3.6 -2.3l-3.5 3.3l2.3 6.2l11.1 7l1.7 8.2l-1.7 8.9l-5.3 3.2l-7.8 0.9l-1.7 6.5l-4.3 4.8l-2.7 11.2l3.9 6.2l8 6.5l7.3 -5.2l7 -1.3l6.4 1.9l0 -10.6l-2.6 3.5l-4.8 -0.6l0.6 -15.4l7 0l-0.2 7.1l2.9 -2.6l16.7 0l6.4 1l22.2 0l0 4.3l10.9 0l0 -4.3l7.3 0l-0.2 -3.3l6.7 -0.1l3 3.3l16.2 0.1l-10.1 -10.5l-16 -16.1l-5.2 -5.6l-32.3 -31.7l-28 -27.5l-13.7 -12.7l-16.1 15.6z"/><path data-zip="20015" d="m84.5 142.4l1.7 2.4l11.5 -2.3l35.2 1.7l7.1 0.1l4.3 -6.8l5 0.3l-2.4 3.6l3.1 2.3l6.4 -7.1l20.5 4.3l4.8 11.7l7.9 8.8l4.1 1.4l3.9 9.1l1.5 12.5l4.1 5.8l6.6 -5.5l4.5 1l5.7 -8.8l-8.4 -1.7l-0.2 -5.3l5.5 -4.9l2 -6l6.3 -7.2l0.5 -13.2l4.6 -6.1l-8.4 -6.3l-8 -6.5l-3.9 -6.2l2.7 -11.2l4.3 -4.8l1.7 -6.5l7.8 -0.9l5.3 -3.2l1.7 -8.9l-1.7 -8.2l-11.1 -7l-2.3 -6.2l3.5 -3.3l3.6 2.3l4.4 -2.6l1.8 -6.1l-6.5 -5.1l-9.8 -1.1l-17.2 -11l-1.6 1.6l-6.1 5.9l-106.1 105z"/><path data-zip="20016" d="m0 227.6l5.4 7.2l3.2 10.9l0.6 2.2l9.3 13.9l20.7 22.8l3.8 10.4l9 -8.5l1.1 -6.8l2.7 2.6l6 -5.3l-0.5 -4.4l6.6 -13.1l5.7 0.1l2.9 -6.6l31.8 -1.1l3.2 6.4l1.7 -7.7l5.8 7.2l4.7 -4.6l32 0l0 -39.8l-5.6 -3.5l-6.7 0l-5.4 3.5l-0.2 -39.5l2.8 -13l-7.5 -16.5l-35.2 -1.7l-11.5 2.3l-1.7 -2.4l-2.2 2.2l-26.8 28.5l-11.1 9.4l-44.4 45.2z"/><path data-zip="20017" d="m323.5 250.5l-0.7 5.8l7.7 -1.2l7.3 5l9.4 0.3l0 12.1l12.7 0.1l1.6 -11.4l1.8 6l1.6 -6.8l18.6 0l0.3 6.4l4.5 -1.8l1.9 -5.1l5.6 -1.4l-0.4 -7l5 -0.3l-1.6 -25.9l-3.5 -16.3l10.6 0.1l-4.5 -5.6l5.2 0l-0.5 -9.3l7.4 -11.7l-1.8 -1.8l-27.5 -27.3l-1.5 3.2l-5.9 -1.2l-3.9 -0.2l-4.7 0.8l-5.2 1.9l-4.8 1l2.4 2.4l-8.9 0.6l-8.6 3l4.9 15.3l-13.2 4.8l9.6 10.6l-8.2 0l-1.3 7.9l-9.3 -6.1l-0.8 6.6l4.9 12.4l1.6 11.4l-2.6 11.5l-5 11.1z"/><path data-zip="20018" d="m359.7 278.1l-15.2 39l57.2 -25.6l10.1 -5l16.8 1l84.4 5l2 -1.5l2.9 -4.4l-49.2 -48.8l-55.4 -55.1l-7.4 11.7l0.5 9.3l-5.2 0l4.5 5.6l-10.6 -0.1l3.5 16.3l1.6 25.9l-5 0.3l0.4 7l-5.6 1.4l-1.9 5.1l-4.5 1.8l-0.3 -6.4l-18.6 0l-1.6 6.8l-3.6 10.8z"/><path data-zip="20019" d="m426.6 437.1l-13.8 5.6l14.9 8.6l6.3 -1.3l4.2 2.9l4.5 -2.9l3.9 1.2l0 6.3l4.8 0l0 -4.7l13.4 -1.5l9.7 7.4l15.7 -0.1l8.4 2.7l-0.3 -2.7l25.3 14l1.5 -1.5l56.2 -56.5l2.6 -2.6l24.8 -24.7l4.1 -4.1l-65 -66.7l-9.8 -10.1l-13.2 -13.1l-6.7 -6.6l-2.9 4.4l-2 1.5l-6.8 6.6l-17.6 1.3l-4.6 2l-2.6 12.8l-10.2 18l-4.1 10.3l-8.2 14.6l1 15.7l-4.4 20.3l-10 17.3l-8.2 9.6l-10.8 16z"/><path data-zip="20020" d="m332.9 473.3l5.1 2.6l3.8 2l1.9 9.7l-1 7.9l-4 7.7l2.3 1.5l-4.6 26.5l2.9 6.3l13.6 -2.8l-0.7 -3.9l8 -6.6l0 -3.7l32.1 26.6l-12.2 16.5l18.7 -6l0.2 -4.3l6.3 -0.9l-2.3 3.7l7.1 16.5l4.8 1l12.9 -4.6l42.8 -44.1l12.9 -13.3l11.7 -10.5l8.7 -8.8l13.6 -13.6l5.9 -6l-25.3 -14l0.3 2.7l-8.4 -2.7l-15.7 0.1l-9.7 -7.4l-13.4 1.5l0 4.7l-4.8 0l0 -6.3l-3.9 -1.2l-4.5 2.9l-4.2 -2.9l-6.3 1.3l-14.9 -8.6l-17.3 7.3l-17.9 13.4l-6.9 4.6l-8.8 0.2l-23.1 -3l-5.9 8.1z"/><g data-zip="20024"><path d="m186 382.8l8.7 10.7l0.9 6.1l7.4 8.7l15 14.6l19.9 15.5l9.9 9.4l9.1 11.9l7.7 14.3l18.2 43.3l-0.1 3.9l10.4 21.4l0.4 -1l10.4 -25.9l4.6 -4.7l17.9 -13.5l11.6 -21.6l-5.1 -2.6l-5.7 -3l-10.2 19.7l-7.7 2.8l-0.3 -4.2l8.6 -1.2l1.7 -8.8l-1.5 -17.8l4.6 0l-0.2 -20.6l-4.4 -3.3l4.4 0l0 -11.7l0 -2l-9.1 -3.4l-0.9 -6l-2.8 -6.3l1.4 -1.5l6.4 6l5 0.1l0 -9.4l-8.6 -5l-0.6 -7.1l-8.6 -2.3l-7 3.2l0 6.7l-12.7 0.2l0 -12.5l-29.3 -0.1l-4.9 0l-17 0l-6.6 0l-9.3 0l-5.1 0l-6.3 0l-20.5 -2.9z"/><path d="m162.3 393l1.6 5.8l15.3 32l3.3 0.1l4.5 0.1l1.1 0l3.2 3.4l9.1 6.7l4.4 8.9l3.1 0.5l5.3 -5.1l-12.2 -13.4l-10.2 -9.1l-9.1 -9.9l-3.1 -5.4l-7.2 -11.4l-9 -3.2z"/></g><g data-zip="20032"><path d="m267.7 669.8l-2.8 3.1l5.1 4.3l3.7 13.3l8.7 4.3l1.3 17.2l61.1 -62.2l4.1 -1.5l21.3 -23.6l38.4 -35.9l3.9 -4l15.5 -16l-12.9 4.6l-4.8 -1l-7.1 -16.5l2.3 -3.7l-6.3 0.9l-0.2 4.3l-18.7 6l12.2 -16.5l-32.1 -26.6l0 3.7l-8 6.6l0.7 3.9l-13.6 2.8l-2.9 -6.3l4.6 -26.5l-2.3 -1.5l-3.9 7.7l-2.3 10.2l-8.9 21.6l1 6.7l-2 -6l-13.3 -4l6.1 -5.6l4.2 -11.3l-1.7 -9.7l-5 4.7l-2.5 -2.3l-6.1 5.8l-4.1 10.9l-6.7 9.6l-0.4 1l-6.3 15.5l-5.2 21l-3.5 18.9l2.1 3.9l-3.3 4.5l-4.4 11.9l-2.2 13.4l-2.6 38z"/><path d="m258.6 688.4l-0.9 10.6l4.4 -0.6l1.8 -1.9l-3.8 -3.9l-1.5 -4.3z"/></g><path data-zip="20036" d="m206.7 329.1l0 7.4l6.3 -1.3l0 7l5.1 4.6l4.2 -4.6l5.1 4.6l15 0l0 -16.8l5.7 -6.3l-5.7 0l0 -9.1l-29.5 0l0 3l0 11.6l-6.3 0z"/><path data-zip="20037" d="m148.7 352.4l-1.9 2.4l3.4 2.1l2.6 2.2l7.7 27.6l1.8 6.3l9 3.2l7.2 11.4l17.2 -8l-0.9 -6.1l-8.7 -10.7l20.5 2.9l0 -5.2l-3.7 -9.4l6.1 0l-1.7 -1.1l5.6 -3.9l0 -8.3l-2 0l0.2 -4.2l1.8 0l0 -2.3l-6.3 -2.9l0 -1.4l5.7 0l0.6 -4.8l0 -7l-6.3 1.3l0 -7.4l6.3 0l0 -11.6l-6.3 -0.3l-3.9 2.9l-10.1 4.3l-8.8 19.5l-5.7 7.4l3.1 3.9l0.3 2.3l-15.6 -5.2l0.1 -3.6l-17.4 3.8z"/><path data-zip="20045" d="m255.7 366.1l0 4.7l6.8 -0.1l0.1 -4.5l-1 0l-5.8 0z"/><path data-zip="20052" d="m211.1 353.6l-0.2 4.2l2 0l0 -4.2l-1.8 0z"/><path data-zip="20053" d="m311 406.1l-1.4 1.5l2.8 6.3l0.9 6l9.1 3.4l0.1 -11.2l-5 -0.1l-6.4 -6z"/><path data-zip="20057" d="m118.7 308.7l-1.7 22l4.5 3l10.2 -0.1l8.8 0.7l-0.3 -12.8l-4.3 -12.5l-17.2 -0.3z"/><path data-zip="20064" d="m340.1 203.7l4.9 33.4l0.9 2.2l17.9 -9.5l0.3 -2.2l-8.2 -24l-15.9 0z"/><path data-zip="20202" d="m285 402.7l0 4.7l5.8 -2.1l0 -2.5l-5.9 0z"/><path data-zip="20204" d="m304.5 408.4l0 3.6l4.5 0l0 -3.7l-4.5 0z"/><path data-zip="20228" d="m255.5 403.4l0.1 9.1l7 0l4.4 -3.7l0.1 -4.6l0.1 -1.3l-11.5 0.6z"/><path data-zip="20230" d="m251.5 373l-0.7 12.8l4.9 0l0 -12.7l-4.2 0z"/><path data-zip="20240" d="m222.2 373.4l0 7.1l5 -0.1l0 -7l-5.1 0z"/><path data-zip="20245" d="m212.9 373.7l0 6.8l5.1 0l0 5.3l9.3 0l-5.1 -5.3l-9.3 -6.7z"/><path data-zip="20260" d="m272.9 412.9l0 8.8l4.3 -0.1l1.7 -0.2l-0.1 -8.6l-5.9 0z"/><path data-zip="20307" d="m249.7 80.2l-6.9 5.4l19.4 -0.6l8 -4.4l0.9 -8.3l0.7 -8.1l-15.8 0l0 8.2l-4.6 0l-1.7 7.8z"/><path data-zip="20317" d="m292.8 218.1l0.2 10.2l2.6 13.6l9.3 -2.1l23.7 -0.4l2.6 -11.5l-1.6 -11.4l-4.9 -12.4l0.8 -6.6l-8.4 -8.4l-1.6 0.9l-11.1 17.3l-6.2 7l-4.7 1.8l-0.6 1.9z"/><path data-zip="20319" d="m287.5 462.6l2.6 9.7l0 43.5l13.1 -9.5l1 -8.3l0.1 -27.6l2.8 -9.6l-14.2 0.4l-5.4 1.4z"/><path data-zip="20373" d="m293.6 541.7l6.7 -9.6l4.1 -10.9l6.1 -5.8l2.5 2.3l5 -4.7l1.7 9.7l-4.2 11.3l-6.1 5.6l13.3 4l2 6l-1 -6.7l8.9 -21.6l2.3 -10.2l3.9 -7.7l4 -7.7l1 -7.9l-1.9 -9.7l-3.8 -2l-11.6 21.6l-17.9 13.5l-4.6 4.7l-10.4 25.9z"/><path data-zip="20390" d="m363.5 433.7l0 1.3l6.8 1.3l0.1 -1.6l-0.7 -1l-6.1 0z"/><path data-zip="20405" d="m222.2 366.1l0 7.3l5.1 0l0.1 -7.3l-5.1 0z"/><path data-zip="20418" d="m206.5 380.5l0 5.2l6.3 0l0 -5.2l-6.4 0z"/><path data-zip="20427" d="m206.6 347l0 1.4l6.3 2.9l0 -4.5l-6.3 0.2z"/><path data-zip="20506" d="m233.9 360.6l0 12.8l4.4 0l0 -12.5l-4.4 -0.2z"/><path data-zip="20510" d="m326.8 380l-1.7 6l6.6 0.1l0 -6l-4.9 0z"/><path data-zip="20520" d="m202.8 371.1l3.7 9.4l6.4 0l0 -6.8l-3.9 -2.6l-6.1 0z"/><path data-zip="20535" d="m273.1 375.5l0 1.5l5.9 2.1l0 -3.4l-5.9 -0.2z"/><path data-zip="20540" d="m331.6 394.3l0.1 8.2l0 5.9l6.9 0l0 -5.9l0 -5.8l0 -2.5l-7 0z"/><path data-zip="20551" d="m212.9 380.5l0 5.2l5.1 0l0 -5.3l-5.1 0z"/><path data-zip="20553" d="m278.9 402.7l0 4.6l6.2 0l0 -4l-6.1 -0.7z"/><path data-zip="20560" d="m267.1 398.7l0 4.1l11.8 0l0.8 -4.3l-5.8 -1.3l-1.9 0.1l-4.9 1.5z"/><path data-zip="20565" d="m285 385.9l0 12.5l12.7 -0.2l0 -6.7l7 -3.2l-13.7 -4.9l0 2.6l-5.8 0z"/><path data-zip="20566" d="m184.7 362.8l-0.6 10.4l2.7 8.9l6.9 -3.8l-2.6 -6.9l2.3 -7.9l-6.9 2.4l-1.9 -3.1z"/><path data-zip="20593" d="m309 488.6l0.3 4.2l7.7 -2.8l10.2 -19.7l-2.3 -1.5l-1.5 -2l-1.3 -0.9l0.3 2.3l0 10.5l-3.1 0l-1.7 8.8l-8.6 1.2z"/></svg>
