<?xml version="1.0" encoding="UTF-8"?><!DOCTYPE svg PUBLIC '-//W3C//DTD SVG 1.1//EN' 'http://www.w3.org/Graphics/SVG/1.1/DTD/svg11.dtd'><svg viewBox="0 0 1000 882.042" xmlns="http://www.w3.org/2000/svg"><path data-id="29001" d="m437.3 53.3l-0.1 59.9l1.3 0l26 -0.1l49.2 0.2l-0.2 -35l-0.2 -17.1l-0.3 -8.6l-50.1 0.6l-25.7 0.1z"/><path data-id="29003" d="m109.5 105.2l-2.6 1.7l2.7 1.5l1.3 2.7l3.5 0.4l0.9 3.8l-1.1 2.3l1 7l1.5 1.5l0.9 5.7l-2.6 4l2 1.4l0 3.4l1 0.3l1.4 -0.2l2.2 -0.7l1.8 0.1l1.1 0.5l1.4 0.9l1 1.4l0.1 1.1l-0.6 1.5l-1.1 1.1l-0.5 1.2l0.4 1.8l2 2.1l1.4 1l1 0.3l1 0.1l1.6 -0.1l1.8 1.1l0.5 1l8.3 0.5l32.8 0.3l-0.4 -42.8l-0.2 -1.1l0.1 -15.9l-65.5 -0.8l1.4 4.2l-1.6 1.3l0.1 4.6z"/><path data-id="29005" d="m0.2 7l0.2 2.4l1 1.8l0.3 1.2l-0.2 1l-0.6 1.1l0 1.2l0.9 1.1l2.2 0.8l1.7 0.1l1.8 -0.8l1.6 0.1l0.8 1.1l1.7 -1.4l0 -1.7l0.1 -1.6l0.3 -1.1l0.1 -1.2l1.1 -0.7l1.3 -0.4l1 0l0.9 1.2l0.5 1.3l1.3 1.6l-0.3 3.6l-0.9 1.2l-4.5 1.8l-1.2 0.5l0.6 1.2l0.2 1.1l-0.1 1.4l-0.2 1.5l0.4 1.5l1.5 1.6l1.1 0.6l1.7 1.8l1.1 1.8l0.4 1.4l-0.1 1.2l-0.7 1.9l0.2 2l1.5 2.5l0.8 1.8l0.3 1.7l-0.1 1.6l0.8 1.7l1.5 1.7l0.5 1.2l0.2 1.1l-0.4 1.3l-1.3 0.9l-2.1 0.7l-1.3 1.2l-0.2 1.3l0.6 1l1.3 0.4l1.4 -0.4l2 -0.9l1.5 -0.3l1.3 0.4l1 0.5l1.3 1.3l1.2 0.7l2 0.1l1.4 0.6l1.1 1.4l0 1.5l-0.7 2l0.2 1.2l56.1 0.5l0.4 -42.7l-3.6 0l0 -19.6l-1.4 0l-1.1 0l-17.5 -0.2l-3.3 0l-2.4 -0.1l-6.2 -0.1l-8.1 -0.1l-8.4 -0.1l-1.2 0l-3.3 -0.1l-2.9 -0.1l-5.5 -0.1l-4.6 -0.1l-6.8 0l-8.8 -0.1l-2.9 -0.1l-1.2 1.4z"/><path data-id="29007" d="m518.9 250.2l-0.6 16.9l31.5 1.3l-0.9 33.9l71.4 1l0.7 -17.1l33 1l-4.4 -34.1l-27.8 -1.1l-14.2 -0.1l0.1 -2.8l-55.5 -0.3l-33.2 -1.4l-0.1 2.7z"/><path data-id="29009" d="m254.3 788.6l16.9 0l6.3 0l2.4 0l5.9 0l20.8 0l1.4 0l1.3 0l1.5 0l3.1 0l14.2 0l1.6 -60l-5.9 -0.1l0.2 -12.3l0.1 -6.9l-59.6 -1.5l-8.1 -0.2l-0.9 34.4l0.2 1.8l-1.4 44.7z"/><path data-id="29011" d="m173.3 625.8l80.2 3.4l1 -43.8l0.3 -11l-81.5 -2.6l0 3.1l0 5l0 7.3l0 2.7l0 5.6l0 1.2l0 7.1l0 2.7l0 1.7l0 1.1l0 2.8l0 2.7l0 2.8l0 2.7l0 5.4z"/><path data-id="29013" d="m173.9 493.3l0 1.4l55.9 1.8l1.5 1l-1.5 1.5l0.4 2.3l1.9 -0.3l0.1 -2.5l1.4 1l0.8 -3.3l2.1 -0.3l-0.5 3.2l1.4 -1.7l5 -2.2l3.1 -0.2l3 1.8l0.8 2.1l1.2 -2.1l3 3.1l3.6 -1l1.3 -33.8l-3.8 -0.1l1.2 -36l0.2 -8.4l-3.1 -1.7l-6.9 0.4l-6.2 1.6l-1.9 -0.7l-3.8 0.5l-2.1 -2.4l-4.6 1.7l-3.8 -2.2l-2.2 0.5l-2.2 -2.4l-17.1 -0.5l-28 -0.7l0 8.3l0 5.9l0 2.1l0 4.3l0 1l0 5.5l0 2.2l0 1.8l0 2.3l0 2.1l0 4l0 6.2l0 2.1l0 1.5l0 2.9l0 2.5l-0.1 4.3l0 1.4l0 2.1l0 15.7z"/><path data-id="29015" d="m338 444.8l-0.8 21.9l3.9 1.5l-1 24l65.7 2l0.1 -2.8l0.8 -20.7l-3.5 -0.2l0.7 -14.6l0.3 -8l0.5 -26.3l0.7 -16.8l-33.4 -1l-0.2 5.6l-33.1 -1.2l0.1 12.6l-0.9 23.9z"/><path data-id="29017" d="m832.4 635.7l-0.8 43l16.9 0.1l-0.1 8.4l17.3 0.2l0 -2.7l5.5 0.1l-0.1 -13.7l13.9 0.2l0 -16.9l0.8 -72.2l-42.8 0.4l1.2 10.6l-1.1 43.2l-10.8 -0.5z"/><path data-id="29019" d="m480 318.7l1.8 1.6l7.4 7.3l1.5 2l2.9 2.7l0.7 1.2l-0.5 5.3l3.2 2.7l1.8 4.2l4.2 3.7l2.9 -0.2l2.4 2.1l-0.3 3.7l-4 4.9l2.2 4.8l5.2 1.7l2.5 4.8l-2.6 4.5l10.1 2.9l6.3 4.3l3.3 -0.4l1.3 0.5l0.3 -8.8l-1.1 -1.7l1.6 -0.9l-0.1 -2.3l3.6 -2.2l-0.3 -2l3.5 -5.5l1.1 0.1l-0.2 -3.4l0.8 -3.4l3.6 -2.7l-2.6 -2.1l1 -1.4l-0.6 -6.4l-1.9 0.2l0.5 -8.8l1.7 -12.8l1.6 -3.3l-0.6 -1.2l1.5 -4.4l-0.9 -1.7l0.7 -6.2l3.1 0l0.9 -33.9l-31.5 -1.3l-8.4 -0.2l-8.9 -0.2l-12.5 30.9l-7.7 17.5l1.3 2.4l-2.1 1.3z"/><path data-id="29021" d="m99.1 206.5l-0.1 1l0.6 2.3l1 1.7l75.1 0.6l-0.1 -16.8l0 -25.4l-0.1 -14.2l-32.8 -0.3l-8.2 0.1l0.1 1.5l-0.1 1.2l-0.7 1.9l-1.4 1.1l-5.3 0.4l-1.1 0.7l-0.5 1.4l0.3 1l1.2 1.4l1.4 1.1l1.6 0.3l1.1 -0.4l2.2 -1.7l1.9 -0.5l1.2 1l0.6 2.6l-0.5 2.1l-1.1 1.6l-2.1 1.5l-1.1 0.4l-1.1 0.2l-1.6 -0.3l-1.2 -0.6l-1.7 -1.3l-1.4 -1.2l-1.4 -0.7l-1 0l-1.5 1.3l-0.8 1.4l-0.1 1.7l0.4 3.1l-0.1 2.8l-0.3 1.3l-0.8 1l-1.2 0.7l-1.4 0.2l-1.2 0l-1.1 0.1l-1.4 0.6l-1.4 1.5l-1.5 2.4l-1 1.6l-0.7 1.3l-0.6 1.5l-0.2 1l0.3 1.8l0.9 1.8l0.2 1.3l-0.4 2l-0.8 1.4l-1.4 1.1l-1.1 0.2l-2.6 -0.9l-1.4 0.3l-1.1 0.9l-1 3.2z"/><path data-id="29023" d="m763.4 708.7l-0.2 8.1l2.8 0l-0.2 13.4l5.3 0.1l0 8.3l-0.1 16.2l5.4 0l-0.1 16.3l2.7 0.1l-0.2 17.4l11.4 0l24.1 0l16.6 0.1l1.2 0l0.1 -4.5l1.6 -1.5l-0.1 -2.2l3.2 -0.5l0.9 -3.2l-0.6 -4.7l0.8 -1.8l2 -3.4l1.9 -0.4l1.1 -2.5l1.9 -5.4l-2 -3.2l1.4 -3.5l-2.5 -4.1l-3 -4.5l0.2 -1.8l-1.9 -0.8l-0.5 -3.1l-2 0l0.9 -6l-2.7 -1.9l-1.3 -3.2l1.2 -2.2l-2 -1.5l-4.1 -5.3l1.8 -2.5l-1.2 -1.2l-0.8 -4.3l-12 -0.7l-2.1 -0.2l-48.8 0z"/><path data-id="29025" d="m235 170.1l-0.4 42.5l8.3 0.2l51.6 0.1l7.4 0.2l0.1 -16.9l-0.1 -33.7l-50.1 -0.2l-16.9 -0.6l0 8.4z"/><path data-id="29027" d="m531.6 372.8l1.1 1.7l-0.3 8.8l2.4 2.5l0.3 4.9l5 4.5l4.7 2.4l4.3 1.5l7.2 0.7l7.9 -2.6l4 -3.2l5.7 -1.8l7.5 -7.1l2.5 -4.5l2.5 -2l5.9 -2.3l9.2 -1l5.1 -4.2l11.8 0.6l2 -68.4l-71.4 -1l-3.1 0l-0.7 6.2l0.9 1.7l-1.5 4.4l0.6 1.2l-1.6 3.3l-1.7 12.8l-0.5 8.8l1.9 -0.2l0.6 6.4l-1 1.4l2.6 2.1l-3.6 2.7l-0.8 3.4l0.2 3.4l-1.1 -0.1l-3.5 5.5l0.3 2l-3.6 2.2l0.1 2.3l-1.6 0.9z"/><path data-id="29029" d="m404 456l-0.7 14.6l3.5 0.2l-0.8 20.7l-0.1 2.8l-1.1 30.4l32.5 1.3l35.2 0.6l0.8 5.5l2.3 2.1l-0.1 2.3l4.4 3.4l1 3.2l2.3 1l2.6 -2l2.7 -0.2l1.8 -3l3.2 -0.2l4.2 0.9l0.5 -2.1l4.5 -4.6l1.5 0.1l0.4 -22.5l0.1 -8.2l-16.4 -0.2l0.1 -2.8l-2.7 -0.1l0.1 -2.7l-2.8 -0.1l0 -2.7l-2.7 -0.6l0.1 -5.1l-2.7 0l0 -2.8l-1.4 0l0.1 -5.5l-1.2 -5.9l-5.5 -0.2l0.2 -7.9l-5.3 0l-3 -1.8l-5.3 0.1l-3.7 1.7l-1.3 4.4l-6.4 -0.3l-23.4 -1.2l4.2 -2.6l0.4 -1.7l-4.3 -1.5l-2.8 5.8l-1.5 1.8l-3.8 -0.3l-1.1 -1.7l1.5 -2.2l3.6 0l0.3 -2l-2.9 -0.4l-1.2 -3.6l-4.3 -4.5l-2.1 -1.3l-3.1 1.6z"/><path data-id="29031" d="m885 654.3l0 16.9l15.2 0l1 -2.7l5.5 0l2.7 -2.7l0 -5.4l2.6 -2.7l5.5 -1.4l0 -2.3l2.5 0l1.9 0l0 -2.8l5.5 0l5.6 -1.3l0 -1.4l6.9 0.4l1.7 -1.2l-1.2 -1.3l-0.9 -1l-1.8 -2.5l-0.7 -1.6l0.1 -1.2l0.5 -1.3l0.4 -2.1l1.9 -2l1.2 -1.8l1.1 -0.9l1.4 -0.5l3 -0.2l1.1 -0.2l1.7 -0.7l1 -1.4l1.1 -5.4l0.1 -1.3l-0.2 -1.8l-0.5 -1.9l-1.2 -3.7l-0.8 -2l-1.7 -2.4l-3 -3.1l-3.1 -5.2l-0.8 -2.1l-0.4 -1.5l-1.1 -2.1l-0.7 -1l-0.6 -1.1l-0.7 -3.4l-0.1 -1.3l0 -1l-3.2 -0.2l-1.8 -1.9l-3.9 1.1l-1.6 -0.7l-1.6 -5.4l-3.5 2.8l-3.3 -1.7l-2.7 -0.1l-1.1 2.7l-1.7 -1.8l-4 -1.1l-1.2 2.2l-1.2 -2.3l-3.2 1.8l-8 -0.7l0 -1.7l-8.8 0.6l-0.3 71.7z"/><path data-id="29033" d="m301.9 213.2l0.1 61.5l2.9 -0.5l4.2 0.7l1.7 -0.7l2.8 -4.2l3 -0.9l1.7 -2.4l3.3 1l6.5 0.5l3.8 4.2l6.5 0.7l3.6 -1.6l0.7 -2.9l-1.3 -5.1l0.6 -3.5l2.2 -1.9l1.8 0.1l3.1 4.6l4.9 0.3l1.3 1.4l-1.8 4.9l2.8 1.7l4.2 -1.3l5.2 -3.2l0.7 -3l-2.2 -4.2l0 -2l1.8 -2.4l5.9 0.1l2.2 -0.4l3.3 -5.1l3.9 1.9l2.2 -2l3.5 -5.3l0.3 -3.1l-1.6 -3.9l2.4 -1.9l3.1 1.2l3.7 5.1l5.3 -1l-1.7 -1.1l-0.2 -5.1l-3.5 -1.5l-2.1 0.4l-1.6 -2.8l-2.7 0.7l-2 -0.8l-2.5 1.2l0.4 -2.1l-2.6 1l1.4 -2.8l-1.3 -4.4l-2.9 2.9l-4.3 0l1.7 -0.6l-0.3 -3.3l-1.5 -3.6l1.6 -0.2l-2.6 -4.2l2.6 -5.9l-0.1 -4.4l-1.2 -3.2l0.7 -1.7l-1.2 -3.6l-71.9 0.8l-0.1 16.9z"/><path data-id="29035" d="m681.8 716.7l-0.3 10.9l16.3 0.4l13.6 0.3l11.8 1.3l7.6 0.4l34.9 0.3l0.2 -13.4l-2.8 0l0.2 -8.1l-2.7 -0.1l0.2 -8.2l-2.7 -0.1l0 -2.8l0 -2.7l-2.7 0l0.2 -9.2l-7.5 -0.1l-27.7 -0.6l0.1 -8.2l-5.4 -0.6l-2.7 0.9l-7.3 0.4l-5.6 1.3l-16.9 0.1l-0.9 37.9z"/><path data-id="29037" d="m174.1 413.9l0 1.1l27.7 0.7l17.4 0.5l2.2 2.4l2.2 -0.5l3.8 2.2l4.6 -1.7l2.1 2.4l3.8 -0.5l1.9 0.7l6.2 -1.6l6.9 -0.4l3.1 1.7l-0.3 -3.6l0.5 -19.4l-8.3 -0.3l0.3 -8.3l0.2 -8.3l-1.9 -0.1l1.5 -34.1l-22.3 -0.4l-16.2 -0.6l-3.5 -0.2l-13.6 -0.6l-6 -0.4l-11.7 -0.7l0.1 3.8l-0.1 3.2l-0.2 13.2l-0.3 20.5l0 2l-0.1 3l0 5.6l0 5.8l0 6l0 5.2l0 1.4z"/><path data-id="29039" d="m254.8 574.4l-0.3 11l68.8 1.7l0.3 -11l0.6 -21l-3.4 -0.1l0.4 -10.4l0.2 -6.1l-27.4 -1l0.4 -11l-38.5 -1.6l-1.1 27.6l0 19.2l-0.1 2.7z"/><path data-id="29041" d="m372.6 182.6l0.6 6l3.3 5.5l-2.5 1.5l1.2 3.6l-0.7 1.7l1.2 3.2l0.1 4.4l-2.6 5.9l2.6 4.2l-1.6 0.2l1.5 3.6l0.3 3.3l-1.7 0.6l4.3 0l2.9 -2.9l1.3 4.4l-1.4 2.8l2.6 -1l-0.4 2.1l2.5 -1.2l2 0.8l2.7 -0.7l1.6 2.8l2.1 -0.4l3.5 1.5l0.2 5.1l1.7 1.1l3.6 2.3l1.1 7l4.2 3.5l3.1 0.9l7 -0.5l2.5 0.6l1 2.7l-0.9 3l1.7 2.5l3.6 1.3l1.2 1.9l-0.6 4.2l1.2 1.5l2.3 0.4l4.6 -2.7l2.4 1.9l8.8 -22.7l12.4 4.3l0.5 -16.8l0 -1.3l1 -37.7l1.1 -17.4l-25.3 -0.4l-15.3 -0.4l-18.3 -0.9l-27.7 0.6l-3 4.2z"/><path data-id="29043" d="m324.4 676.5l-0.2 19.2l21.7 0.4l19.2 0.3l-0.7 32.8l5.6 0.1l11.7 0.3l11.9 0.3l35.6 0.9l0.9 -49l0.1 -2.7l-13.6 -0.5l-10.7 -0.2l-16.2 -0.4l-13.6 -0.5l-5 -0.1l-4.1 0l-9.6 -0.2l-11 -0.2l-21.9 -0.3z"/><path data-id="29045" d="m573 61.6l-0.2 8.6l67.9 1.7l1 -2.1l0 -1.1l-0.4 -1l0 -1l0.5 -2.1l0.6 -1.4l2.1 -4.7l0.3 -1l0.5 -2.4l0.7 -1.6l1.5 -2.2l0.7 -1.1l1.2 -1.5l1.5 -0.8l1.5 -1.5l-3.2 -1.5l-3.6 0.2l-2.9 0.3l-0.6 -3.2l-1.5 -0.4l-1.1 -0.3l-1.2 -0.9l-1.3 -0.2l-0.7 -1.3l0.9 -1.9l0.4 -1.2l-1.5 -0.4l-0.7 -1.3l1.1 -1.2l0.4 -1.1l-0.3 -1.1l-2.9 -0.1l-1.3 -0.1l-1.7 -0.4l-1.6 -1l-0.8 -1.1l-0.4 -1.7l-0.5 -1.6l-0.6 -1l-2.7 -1.5l-1.3 -1l-0.7 -1.1l-0.2 -1.3l0.5 -1.8l0.1 -1.5l-0.1 -1l-1 -0.8l-1.9 -0.4l-2.4 -0.7l-2.5 -0.3l-1.6 -0.4l-1 -0.9l-0.4 -1l0.9 -2.9l-0.4 -1.3l-1.1 -0.9l-2.3 -1.4l-1.2 -1.3l-1.4 -2.4l-8.5 0.4l-1.4 0.1l-2.8 0.1l-1.6 0.1l-1.1 0.1l-5.4 0.3l-10.6 0.4l-1.6 60.1z"/><path data-id="29047" d="m174.9 291.6l0 1.2l1.4 0.7l2.8 -1.5l1.9 -1.1l2.5 -1.5l2.1 -2.7l2.2 -0.8l5.4 0.7l3.4 4.9l2.6 -1.7l6.4 -7.3l-1.1 -5.2l2.7 -0.1l3.5 5.9l4.8 -3.9l3 -7l3.6 -3.4l5.3 0.1l6.4 5.6l0.2 -36.5l0 -2.3l0.1 -9.2l-37.9 -0.1l-19.9 -0.1l-0.7 16.4l0 7.3l0.1 8.5l0 4.2l0 4.1l0 9.8l-0.1 3.1l0 3.9l1.5 0.9l0.3 2.8l-1.6 2.3l-0.8 1.2z"/><path data-id="29049" d="m175.6 169.9l0 25.4l0.1 16.8l0 11.6l0 2.8l20.6 0.2l37.9 0.1l0.3 -14.1l0.4 -42.5l-59.4 -0.3z"/><path data-id="29051" d="m500.9 386.4l-9.7 38.2l13.7 0.5l-0.7 16l11.9 0.8l6.7 0l5.1 2.8l3.8 -2.5l4.5 0l0.2 -6.7l9 -2.6l2.8 -3.3l-1.5 -3.4l-3.7 -2.1l-2.7 -6.2l0 -1.2l2.4 -1l5.3 3.3l5.1 -1.5l5.8 -0.2l3.4 -1.9l1.8 -4.5l-2.5 -4.6l-0.1 -5.3l3.3 -1.6l-0.8 -2l-7.9 2.6l-7.2 -0.7l-4.3 -1.5l-4.7 -2.4l-5 -4.5l-0.3 -4.9l-2.4 -2.5l-1.3 -0.5l-3.3 0.4l-6.3 -4.3l-10.1 -2.9l2.6 -4.5l-2.5 -4.8l-5.2 -1.7l-5.4 21.4z"/><path data-id="29053" d="m408.1 328.5l-1.4 45.2l16.4 1.4l16.6 0.3l16.9 -0.1l16.4 0.8l0 -1.5l0 -1.3l15.5 -38.7l2.2 -5.1l-1.5 -2l-7.4 -7.3l-5.4 0.6l-10.7 -1.7l-4.1 0.1l-3.4 -1.6l-11.4 2.3l-9.1 -2l-3.5 -3.6l-5.8 -3.9l-3 -8.4l-17.1 17.8l-0.3 8.5z"/><path data-id="29055" d="m635.1 465.9l0.1 11.1l1.4 0l-0.6 69.1l33 0.3l-0.4 16.5l23.6 0.5l1 -8.2l7 0.2l0.5 -24.8l0.2 -16.5l-0.1 -46.9l-40.4 0l-0.3 -1.1l-25.1 -0.2z"/><path data-id="29057" d="m253.5 629.2l-0.3 11l4.7 0.1l63.9 1.5l0.7 -27.4l0.8 -27.4l-68.8 -1.7l-1 43.8z"/><path data-id="29059" d="m387.5 543.5l-0.5 13.8l2.7 0.1l-1.4 59.1l16.3 0.4l0.3 -13.7l32.7 0.7l1.1 -44.8l-2 0l0.3 -19.4l0.4 -13.7l-32.5 -1.3l-16.5 -0.3l-0.8 19.3z"/><path data-id="29061" d="m233.4 93.8l-0.3 19.9l2.3 0.1l-0.4 48l16.9 0.6l50.1 0.2l-0.4 -34.1l-0.3 -33.9l-67.8 -0.7z"/><path data-id="29063" d="m175.2 112.9l0.4 42.8l0.1 14.2l59.4 0.3l0 -8.4l0.4 -48l-2.3 -0.1l-16.7 -0.9l-41.3 0z"/><path data-id="29065" d="m594.5 545.7l-0.4 36.4l8.1 0l0 33l16.2 0.3l65.1 1.4l0.1 -16.3l-15.5 -0.6l0.3 -16.6l15.4 0.8l8.1 0.1l0.3 -20.7l-23.6 -0.5l0.4 -16.5l-33 -0.3l-30.7 -0.4l-10.8 0z"/><path data-id="29067" d="m430.1 681.6l-0.9 49l21.6 0.6l97.7 2.2l2.5 0l1.1 -49.1l-24.4 -0.6l-65.1 -1.4l-20.8 -0.3l-11.8 -0.4z"/><path data-id="29069" d="m808.4 882l1.4 0l3.9 0l7.5 -0.1l20 -0.2l4.7 0l3.5 -0.1l19.7 -0.2l1.1 0l0.8 -35.7l-0.2 -36.8l-1.7 -0.1l2.3 -13.1l-0.2 -8.4l0.7 -7.5l-1.4 -14.9l-26.1 -1.1l-1.6 0.1l-1.1 2.5l-1.9 0.4l-1.1 4.1l-1.7 1.1l0.6 4.7l-0.9 3.2l-3.2 0.5l0.1 2.2l-1.6 1.5l-0.1 4.5l4 0l6.2 0l-1.1 3.1l2.7 1.7l0.1 2.3l1.1 4.3l-1.4 2.3l1.9 1.7l3.2 2l4.4 0.6l2.1 2.7l0.4 5.5l-2.1 3l-0.4 4.2l2.4 2.9l-2.2 2.7l-0.7 3l-4.7 1.3l-1.7 4.1l-0.1 2.6l-2.4 0.3l-2.1 2.5l-4 1.7l-1 0.9l-1.7 1.5l-1.4 1.9l-1.6 -0.5l-2.2 4.8l0 3.7l-3 2.3l-3.5 1.8l-2.4 0.8l-0.8 2.7l-2.9 1.5l0.1 2.7l-2.2 1.5l-0.9 3.8l-1.8 3.7l-4 5.8z"/><path data-id="29071" d="m659.9 372.5l0 1.9l0.2 48.9l0.3 21.5l-0.3 21.4l0.3 1.1l40.4 0l15.9 0l2.9 -0.5l11.2 0.3l17.3 0.2l2.6 -17.4l1.1 -6.6l0.9 -5.4l1.8 -11l0.2 -9.7l0 -2l0.3 -13.8l0.2 -13.9l0 -3.4l-1.5 0.9l-1.2 1.8l-0.8 2.6l-2.6 3.2l-5.9 1.7l-5.5 4.5l-6.8 4.1l-4.3 1.3l-6.2 -2.6l-4.2 -1.5l-2.3 -1.4l-2.1 -2.1l-1.6 -3.8l-3.5 -2.8l-3.2 -0.2l-5.3 1.9l-2.9 0.3l-7.6 -1.8l-6.5 -2.6l-0.2 -4.1l-1.5 -2.3l-3.4 -2.2l-8 -7.7l-4.3 1.8l-4.1 -0.4z"/><path data-id="29073" d="m618.6 451.1l0 25.7l2.1 0l14.4 0.2l-0.1 -11.1l25.1 0.2l0.3 -21.4l-0.3 -21.5l-0.1 -48.6l-0.1 -2.2l-4.2 -1.8l-3.2 -0.3l-3.6 0.1l-2.2 0.6l-2.2 -0.3l-1.9 -1.1l-1.7 0.7l-0.9 1.3l0 1.5l-6.7 3.6l-6.1 -1.1l-7.9 -4.1l-0.4 45.7l-0.1 5.3l-0.2 28.5z"/><path data-id="29075" d="m175.1 95.9l-0.1 15.9l0.2 1.1l41.3 0l16.7 0.9l0.3 -19.9l0.4 -48.6l-57.6 -0.5l-1.1 51.1z"/><path data-id="29077" d="m322.6 614.5l-0.7 27.4l3.1 0.1l-0.6 34.5l21.9 0.3l11 0.2l9.6 0.2l4.1 0l5 0.1l13.6 0.5l16.2 0.4l0.5 -27.5l0.1 -6.5l-2.3 0l0.5 -27.3l-16.3 -0.4l-10.3 -0.3l-27.9 -0.9l-27.6 -0.7z"/><path data-id="29079" d="m301.3 68.8l-0.1 25.7l0.3 33.9l3.2 0.1l56.8 -1.7l0 -12.8l-0.8 -45.7l-59.3 0.5z"/><path data-id="29081" d="m231.1 8.2l0.1 20l2.5 0l0.1 17l-0.4 48.6l67.8 0.7l0.1 -25.7l-0.2 -41l-1.5 0l0 -20.7l-6.2 0.1l-3.8 0.1l-1.9 0l-6.7 0.1l-2.3 0l-3.3 0.1l-4.2 0.1l-1.9 0l-5.8 0.1l-2.8 0.1l-6.9 0.1l-1.3 0l-21.4 0.2z"/><path data-id="29083" d="m255.7 429.3l-1.2 36l3.8 0.1l73.8 2.5l-1.9 -3.4l1.9 -0.1l3 2.7l2 -0.3l0.8 -21.9l0.9 -23.9l-0.1 -12.6l0.3 -8.4l-82.9 -2.1l-0.5 19.4l0.3 3.6l-0.2 8.4z"/><path data-id="29085" d="m329.8 538.7l-0.1 2.8l57.8 2l0.8 -19.3l16.5 0.3l1.1 -30.4l-65.7 -2l-1.2 30.3l-8.5 -0.3l-0.7 16.5z"/><path data-id="29087" d="m32.9 68.7l1.2 1.1l3.8 1.9l1 0.2l2.3 -0.2l1.5 0.1l1.1 0.5l1.5 2l0.3 1l0 1.9l-0.5 1.6l-1.4 2.5l-0.1 1.7l0.5 1.3l1.2 1.7l1.5 1.5l2.7 1.1l1 0.9l0.3 1.1l0.1 1.3l0.2 1l0.5 1.1l1.4 1l1.5 0.1l1.7 0.7l0.8 1.4l0.1 1.6l-0.6 1.2l-1.5 1.4l-0.5 1.3l0.2 1.4l0.1 1l-0.9 1.8l-0.8 1.4l0.2 2.8l0.4 1l1.4 1.9l1.7 1l1.2 0.3l3.4 -1l1.1 0l1.2 0.4l1.8 2l1.2 0.7l1.6 0.5l1.1 1l0.4 1.1l0 1.6l0.9 1.8l1.9 1.3l2.2 1.1l1.9 2.2l0.6 1.1l1.1 1.2l1.3 0.7l1.5 0.2l1.6 -0.1l1 0.2l1.4 0.8l0.6 2.1l-0.2 1.1l-0.6 1.4l-0.1 1.1l0.7 1.1l1.2 0.7l2.1 0.1l1.1 -0.4l1.9 -1l1.6 0.2l1 1.5l-0.1 1.7l0.4 1.5l0.9 1l1 0.5l3.3 1l2.4 1.2l1.3 0.2l4.3 -0.5l1.6 -0.1l1.6 -0.6l1 -1.6l-0.1 -1.9l1 -2.1l1.5 -0.6l2.3 0.5l0 -3.4l-2 -1.4l2.6 -4l-0.9 -5.7l-1.5 -1.5l-1 -7l1.1 -2.3l-0.9 -3.8l-3.5 -0.4l-1.3 -2.7l-2.7 -1.5l2.6 -1.7l-0.1 -4.6l1.6 -1.3l-1.4 -4.2l-3.4 -4.1l0.8 -4.1l-1.9 -4.7l1.4 -2l-0.2 -8l-1 -2.8l-16.3 -0.2l-56.1 -0.5z"/><path data-id="29089" d="m424 291.2l-0.2 2.8l1.7 1.5l3.8 0.7l0.2 2.2l-4.1 3.8l3 8.4l5.8 3.9l3.5 3.6l9.1 2l11.4 -2.3l3.4 1.6l4.1 -0.1l10.7 1.7l5.4 -0.6l-1.8 -1.6l2.1 -1.3l-1.3 -2.4l7.7 -17.5l12.5 -30.9l-19.4 -6.6l-1.3 -0.5l-20.8 -7l-12.4 -4.3l-8.8 22.7l-1.7 4.9l-4.5 4l-2.1 2.7l-0.2 3.6l-2.5 3.3l-3.2 1.7z"/><path data-id="29091" d="m547.4 788.6l3.3 0l3.5 0l2.7 0l4.2 0l1.4 0l4.6 0l18.3 -0.1l8.9 0l1 0l2.2 0l2.8 0l5.9 0l5.8 0l2.2 0l0 -19.9l-0.9 -3.5l0.6 -30.4l2.1 0.1l0.3 -18.9l0.3 -13.5l0.1 -16.6l-21.5 -0.2l-27.2 -1.1l-16.2 -0.1l-1.1 49.1l-2.5 0l-1.2 55.1z"/><path data-id="29093" d="m692.2 563.5l-0.3 20.7l2.7 0l5.4 0.1l17 -3l29.4 0.3l3.3 -0.2l-0.6 43.3l3.5 0.2l-0.6 19.3l2.7 -0.2l11 -0.7l2.8 0.5l13.8 -0.1l0.1 -8.5l0.3 -53l1.8 0l0 -8.6l-16.9 0.2l0.4 -17.4l-17.5 -0.4l-16.8 0.6l-10.9 -0.7l-22.9 -0.4l-7 -0.2l-1 8.2z"/><path data-id="29095" d="m174.7 318.2l0 4.8l0 2.8l0 1l0 7.3l0 1.5l0 1.3l0 2.8l0 1.6l0 1.2l0 1.5l11.7 0.7l6 0.4l13.6 0.6l3.5 0.2l15.5 0.6l23 0.4l0.8 -14.4l0 -1.8l0.5 -13.2l0.1 -2.3l0.1 -3.4l0.3 -9.1l0.2 -5.7l0.3 -10l-4.3 -5.4l-6.9 -1.5l-1.1 -0.9l2.5 -5.6l-6.3 1l-6.4 -5.6l-5.3 -0.1l-3.6 3.4l-3 7l-4.8 3.9l-3.5 -5.9l-2.7 0.1l1.1 5.2l-6.4 7.3l-2.6 1.7l-3.4 -4.9l-5.4 -0.7l-2.2 0.8l-2.1 2.7l-2.3 1.4l-2.1 1.2l-2.8 1.5l-1.4 -0.7l0 4.6l0 1.5l0 3.1l0 4.1l-0.1 7.1l-0.1 5z"/><path data-id="29097" d="m173.2 660.9l0 1.2l0 2.7l0 5.2l0 3.6l0 1.7l0 1.4l0 1.9l0 2.1l0 3.4l6.2 0.1l1.8 0.1l17.8 0.2l2.9 0l1.6 0l1.5 0l16.5 0.2l35.4 1l1 -45.5l-4.7 -0.1l0.3 -11l-80.2 -2.8l0 4.9l0 2.8l-0.1 15.7l0 2.1l0 1.7l0 2.3l0 2.5l0 1.1l0 1.4z"/><path data-id="29099" d="m750.7 449.8l-2.6 17.4l14.8 19.3l-0.5 3.1l6.7 1.9l1.2 0.4l3 0.9l-1.4 5.6l1.3 4.7l-2.3 1.5l6.7 0.8l25.1 -7.4l13 -9.9l5 1.2l2.1 -2.9l4.7 -2.1l-0.4 -2.5l-3.3 -5.7l-1.2 -1.3l-1.1 -1.1l-1.5 -0.9l-1.5 -0.6l-1.7 -0.6l-1.4 -1.1l-3.3 -5l-0.8 -2l-0.7 -2.3l-0.5 -2.6l-0.1 -1.1l-0.5 -2.2l-0.1 -1.2l-0.3 -1.5l0 -2.4l0.3 -1.9l-0.1 -3.6l0.3 -1.9l0.4 -1.3l1.8 -3.8l1 -3.3l0.9 -1.4l-0.6 -4.2l0.2 -5.6l1.6 -3.4l-6 0.2l-5.6 -0.8l-1.2 -5l1.2 0.5l1.4 -3.9l-9.1 -0.1l-3.8 0.1l-3.2 -0.1l-11.8 0l-1.7 4.2l-1.7 1.6l-3 -2.8l-3 -0.3l-1 1.6l0.9 4.2l-3.7 2.2l-2.6 -4.9l-5.4 -2.1l-0.6 3l-0.2 9.7l-1.8 11l-0.9 5.4l-1.1 6.6z"/><path data-id="29101" d="m248 346.8l-1.5 34.1l1.9 0.1l-0.2 8.3l-0.3 8.3l8.3 0.3l82.9 2.1l0.7 -23.7l0.1 -2.8l0.7 -13.9l0.1 -2.8l0.9 -20.6l-0.7 -2.1l0.2 -5.6l-50.5 -1.8l-0.2 5.6l-16.1 -0.7l-23.5 -0.9l-2 0l0 1.8l-0.8 14.4z"/><path data-id="29103" d="m513.3 61.2l0.2 17.1l0.2 35l0.1 16.4l8.5 0.2l50.2 0.6l0.8 -51.8l-0.6 -8.5l0.2 -8.6l-59.6 -0.4z"/><path data-id="29105" d="m436.9 539.6l-0.3 19.4l2 0l-1.1 44.8l25 0.5l19.1 0.5l45.9 1.1l0.4 -24.9l0.1 -8.3l-8.3 -4.2l-16.4 -8.2l0.6 -25.2l0.1 -2.3l-1.5 -0.1l-4.5 4.6l-0.5 2.1l-4.2 -0.9l-3.2 0.2l-1.8 3l-2.7 0.2l-2.6 2l-2.3 -1l-1 -3.2l-4.4 -3.4l0.1 -2.3l-2.3 -2.1l-0.8 -5.5l-35.2 -0.6l-0.4 13.7z"/><path data-id="29107" d="m249.2 317.4l-0.5 13.2l2 0l23.5 0.9l16.1 0.7l0.2 -5.6l50.5 1.8l0.1 -2.8l2.9 -67.6l-2.2 1.9l-0.6 3.5l1.3 5.1l-0.7 2.9l-3.6 1.6l-6.5 -0.7l-3.8 -4.2l-6.5 -0.5l-3.3 -1l-1.7 2.4l-3 0.9l-2.8 4.2l-1.7 0.7l-4.2 -0.7l-2.9 0.5l-4.5 1.2l-4.5 -2.4l-3.2 -0.4l-5.3 2.2l-3.6 3.8l-4.3 0l-1.8 0.9l-1.2 5.2l-1.9 1.8l-4.2 -1.8l0.8 -3l3.1 -2.8l0.1 -1.7l-2.7 -2.7l-7.3 2.8l-1 2.6l1.7 4.6l-5.7 3.9l-3.7 -0.2l-2.6 -1.5l-0.3 10l-0.2 5.7l-0.3 9.1l-0.1 3.2l-0.1 2.5z"/><path data-id="29109" d="m256.5 704.9l-0.1 2.7l8.1 0.2l59.6 1.5l0.1 -13.7l0.2 -19.2l0.6 -34.5l-3.1 -0.1l-63.9 -1.5l-1 45.5l-0.3 10.9l-0.2 8.1z"/><path data-id="29111" d="m573.3 78.7l-0.8 51.8l16.8 0.2l60.6 0.6l-0.9 -1.2l-0.9 -1.6l-0.4 -1.1l-0.7 -1.2l-0.6 -1.5l-0.9 -1l-0.3 -1.3l-1.5 -3.6l-1 -2l-1.6 -3.4l0.8 -4.1l-0.9 -2.6l-0.3 -1.4l-0.5 -2.5l-0.8 -3.4l-0.5 -2.7l-0.2 -1.2l-0.2 -3.7l0.5 -1.8l-0.6 -2.8l-0.2 -1.6l0.3 -2l0.8 -1.3l-0.1 -1.7l-0.1 -2.1l0.4 -1.7l0 -1.5l-0.3 -1.4l0.8 -1.3l-67.4 -2.3l-0.1 8.5z"/><path data-id="29113" d="m676.2 287.7l-0.6 28.4l11.4 0.1l-0.1 11.6l11.9 0l-0.2 11.4l5.6 0l17.3 0.4l0.3 -4.5l1.4 0.1l0.6 1.1l1.1 0.1l1 2.77556e-17l1.1 -0.1l9 0l6.9 2.3l1.5 -0.3l0.2 -4.6l0.2 -1.8l3.9 -2.2l3.6 0.3l1.2 -1.5l5.7 5l0.1 -3.6l3.5 1.1l-1.5 -3.4l4.3 -0.1l-0.5 -2.7l-1 -2.7l-0.1 -4.2l-0.3 -1.5l-0.6 -1.3l-0.8 -1.2l-0.4 -1.3l-1.6 -3.3l-1.1 -2.5l-0.9 -2.3l1.8 -2.2l0.2 -1.2l2.6 -3.2l0.2 -2.3l-0.5 -2.5l-0.4 -1.2l-1.1 -1.9l-0.8 -1.1l-0.7 -1.5l-0.4 -1.5l-0.3 -4.2l-0.7 -2.4l-0.5 -2.3l0 -1l0.1 -1.5l-0.8 -2.7l-69.1 -0.6l-0.2 9.3l-0.2 7.7l-11.2 -0.1z"/><path data-id="29115" d="m361.2 144l-0.2 34.4l14.7 0l27.7 -0.6l18.3 0.9l15.3 0.4l1.6 -65.8l-1.3 0l-1.3 0.1l-5.2 0l-69.2 0.7l0 12.8l-0.2 17.1z"/><path data-id="29117" d="m301.5 128.4l0.4 34.1l0.1 33.7l71.9 -0.8l2.5 -1.5l-3.3 -5.5l-0.6 -6l3 -4.2l-14.7 0l0.2 -34.4l0.3 -16.3l-56.9 0.9l-3.2 -0.1z"/><path data-id="29119" d="m173.2 738.6l0 12.2l0 6l0 10.6l0 1.1l0 1.4l0 4l0 1.7l0 5.9l0 3.6l0 3.4l8.8 0l6 0.1l23.7 -0.1l13.8 0.1l13.2 0.1l10.5 0.1l1.7 0l3.4 0l1.4 -44.7l-0.2 -1.8l-82.3 -3.5z"/><path data-id="29121" d="m438.5 113.2l-1.6 65.8l25.3 0.4l-0.4 17.1l58.6 1l1.9 -67.7l-8.5 -0.2l-0.1 -16.4l-49.2 -0.2l-26 0.1z"/><path data-id="29123" d="m783 582.2l-0.3 53l30.5 0.6l16.5 -0.3l2.8 0.3l10.8 0.5l1.1 -43.2l-1.2 -10.6l0 -8.4l-46 -0.2l-9.5 0l-2.7 -0.2l0 8.6l-1.8 0z"/><path data-id="29125" d="m535.9 470l-0.1 5.3l2.5 0.1l-0.6 27.6l24.6 1l5.4 0.2l2.8 0l2 -5.9l1.7 -0.1l0.9 2l6 -3.9l21.3 -0.4l18.1 0.4l0.3 -19.5l-2.1 0l0 -25.7l-16.9 0l-2.7 -0.6l-13.1 -0.3l-3.1 0.7l-21.1 0.2l-25.6 -0.7l-0.3 19.6z"/><path data-id="29127" d="m589.3 130.7l-1 56.5l19.7 0.2l0 -5.6l61.2 0.3l-1.7 -1.5l-2.1 -1.5l-2.1 -1.7l-1.1 -1.1l-2.2 -2.7l-0.3 -3.1l0.4 -1.7l0.2 -2.1l0 -1.9l0.6 -2l-0.3 -1.5l-0.7 -1.5l-1.1 -1.6l-1.6 -1.3l-1.8 -1.1l-1.3 -1l-1.2 -0.7l-2.2 -1.5l-1 -1.5l-1.5 -4.9l-0.2 -1.5l0.1 -1l0.5 -2.1l2.2 -2.8l1.2 -1.4l0.3 -1.4l-0.1 -1.1l-0.4 -1l-1.1 -1.5l-1 -0.9l-60.6 -0.6z"/><path data-id="29129" d="m299.6 7.1l0 20.7l1.5 0l0.2 41l59.3 -0.5l0 -22.9l0 -17.4l-1.2 -0.1l0.1 -21.3l-10.1 0.1l-3.5 0l-8.8 -0.1l-3.6 0l-1.3 0l-1.3 0l-4.9 0.1l-8.8 0.2l-1.9 0l-1.2 0l-2 0l-4.8 0l-2.2 0l-1.9 0l-3 0z"/><path data-id="29131" d="m462.1 439.7l-0.9 24.1l3 1.8l5.3 0l-0.2 7.9l5.5 0.2l1.2 5.9l-0.1 5.5l1.4 0l0 2.8l2.7 0l-0.1 5.1l2.7 0.6l0 2.7l2.8 0.1l-0.1 2.7l2.7 0.1l-0.1 2.8l16.4 0.2l33.1 0.9l0.6 -27.6l-2.5 -0.1l0.1 -5.3l0.3 -19.6l0.2 -8.3l-4.5 0l-3.8 2.5l-5.1 -2.8l-6.7 0l-11.9 -0.8l0.7 -16l-13.7 -0.5l-5.5 -0.1l-14 -0.4l-1.2 15.8l-8.4 -0.1z"/><path data-id="29133" d="m936.9 719.3l0 4.1l2.6 0l0 2.8l2.8 0l3 8.2l2.6 -0.1l0 4.1l1.3 -0.1l1.3 4l4.1 3.1l1.4 5.1l2.7 0l1.4 5.4l2.7 1.3l0 2.8l2.8 1.3l0 2.4l1.4 1.3l2.5 3.9l1 1.9l2.4 3l1.1 1.2l1.7 1.2l3.6 -0.3l1.4 -0.5l1.5 -1.3l2.2 -4.7l0.3 -3.1l0.3 -1.4l1 -1.9l0.7 -1l2 -1.8l1.5 -1.8l0.8 -1.2l-1.4 -1l0.1 -1.2l0 -1.4l-1 -1.5l-1.4 -1.4l-1.8 -2l-0.7 -1.6l0 -1.1l0.2 -1.6l0.3 -1l0.9 -1.5l1.1 -1.2l2.3 -1.1l1.8 0.7l2.2 0.1l1 0.6l1.4 0l1.1 -1.5l0.4 -1.5l0 -1.5l-0.5 -1.2l-1.3 -1l-2.2 -0.1l-1.8 -0.1l-1.8 -1.2l-1 -1.6l-0.6 -1.1l0 -1.3l0 -2.8l0.8 -1.6l1 -0.5l1.1 0l1.8 -0.8l1.5 0l0.9 -1.9l0.8 -2.7l1 -2l1.5 -7l1.1 -3.6l0.5 -3.5l-0.1 -1.3l-0.5 -1l-1 -1.3l-1.3 -1l-1 -0.3l-1.2 0.2l-1.2 0.5l-1.4 0.4l-1.8 0.9l-1.2 0.5l-1.1 -0.1l-1.2 -0.5l-1 -1.2l-0.4 -1.8l0 -1.9l-0.5 -2.2l-0.9 -1.5l-3.1 -2.1l-1.3 -1.2l-0.6 -1l-1.1 -2.8l-1.4 -2.7l-0.7 1.5l-3.1 -0.2l-2.1 -0.4l-2.1 -0.4l-0.5 2.2l0.5 1.4l0.9 1l1.5 0.9l2 0.8l1.7 1.4l0.9 1l0.4 1.5l-0.9 2.9l-0.9 1.2l-1.4 0.8l-2 -0.7l-3.1 -3.2l-5.2 0l0 1.3l-4.1 1.4l-0.1 5.5l-5.4 0l0 2.7l-2.8 0l0 2.7l-5.3 0l0 5.5l-5.5 0l0 5.5l-2.7 1.4z"/><path data-id="29135" d="m439.6 375.4l-0.3 16.7l32.5 31.8l14 0.4l5.5 0.1l9.7 -38.2l5.4 -21.5l-2.2 -4.8l4 -4.9l0.3 -3.7l-2.4 -2.1l-2.9 0.2l-4.2 -3.7l-1.8 -4.2l-3.2 -2.7l0.5 -5.3l-0.7 -1.2l-2.9 -2.7l-2.2 5.1l-15.5 38.7l0 1.3l0 1.5l-16.4 -0.8l-16.1 -0.1z"/><path data-id="29137" d="m519.2 238.9l-0.3 8.6l33.2 1.4l55.5 0.3l0.9 -50.4l-0.6 -2.8l0.1 -8.5l-19.7 -0.2l-50.7 -0.9l-0.2 10.7l-16.9 0.6l-1.3 41.4z"/><path data-id="29139" d="m618.3 371.7l1 -0.1l7.9 4.1l6.1 1.1l6.7 -3.6l0 -1.5l0.9 -1.3l1.7 -0.7l1.9 1.1l2.9 -0.3l1.5 0l3.6 -0.1l0.4 -26l11.5 0.1l5.5 -0.3l5.5 0.4l0.1 -28.7l0.6 -28.4l-22.3 -0.5l-33 -1l-0.7 17.1l-2 68.4z"/><path data-id="29141" d="m404.3 448l-0.3 8l3.1 -1.6l2.1 1.3l4.3 4.5l1.2 3.6l2.9 0.4l-0.3 2l-3.6 0l-1.5 2.2l1.1 1.7l3.8 0.3l1.5 -1.8l2.8 -5.8l4.3 1.5l-0.4 1.7l-4.2 2.6l23.4 1.2l6.4 0.3l1.3 -4.4l3.7 -1.7l5.3 -0.1l0.9 -24.1l8.4 0.1l0.5 -15.8l-31.8 -31.8l0.3 -16.7l-16.6 -0.3l-16.4 -1.4l-0.5 13.9l-0.6 17.4l-0.7 16.8l-0.5 26.3z"/><path data-id="29143" d="m869.1 808.9l1.7 0.1l7.2 0.4l24.2 0l1 -6l2 -1.7l5.4 2.1l2.8 2.9l5.6 0l4.3 -1.9l2.8 1.4l1.3 3.9l3.1 3l2.7 1.3l0 4.3l1 -0.1l1.6 -0.8l1.2 -1.3l0.9 -2.1l0.5 -2.6l-0.6 -2.1l-1.7 -2.9l-2.6 -3.7l-0.5 -1.3l0.1 -1.5l0.6 -1.2l2 -1.9l0.6 -1l0.4 -1l0.2 -2.5l-0.5 -1.1l-1.8 -1.9l-0.7 -1.2l-0.6 -1.3l-1.7 -2.2l-0.9 -1.5l-0.8 -2.2l-0.6 -1.4l-0.2 -1.6l0.3 -1l0.4 -1.1l1.3 -1.7l1.8 -1.2l2.7 -0.2l1.3 0.5l2.8 0.5l2.3 0.8l1.8 2.2l0.8 2.4l0.3 2l-0.1 1.2l-0.4 1.6l-0.6 1.4l-0.7 1.2l-1.2 1.8l-1.2 3.5l-0.1 1l0.5 1.5l2.2 1.4l1.8 0.2l1.7 -0.8l2.5 -2.5l1.1 -1.4l1 -1.4l0.9 -1.8l1.7 -5.4l1 -2.6l0.3 -1.8l0.1 -1.4l2 -4.5l0.3 -1.4l0.4 -3.2l0.2 -1.1l0.8 -1.3l2.2 -1.4l1.9 -0.5l1.5 -0.2l1 0l0 -2.4l-2.8 -1.3l0 -2.8l-2.7 -1.3l-1.4 -5.4l-2.7 0l-1.4 -5.1l-4.1 -3.1l-1.3 -4l-1.3 0.1l0 -4.1l-2.6 0.1l-3 -8.2l-2.8 0l0 -2.8l-2.6 0l0 -4.1l-2.7 0l-4.4 -0.3l-5.6 0.9l-2.8 1l-6.1 0.2l-4.1 0.1l-2 0l0.7 22.3l-0.1 21.1l-38.6 -0.4l0.7 15.6l-0.7 7.5l0.2 8.4l-2.3 13.1z"/><path data-id="29145" d="m173.2 717.4l0 6.1l0 15.1l82.3 3.5l0.9 -34.4l0.1 -2.7l0.2 -8.1l0.3 -10.9l-35.4 -1l-16.5 -0.2l-1.5 0l-1.6 0l-2.4 0l-18.3 -0.2l-1.8 -0.1l-6.2 -0.1l0 3.1l0 5.9l0 1.9l0 9.2l0 2.4l0 1.5l0 3.3l0 2.7l-0.1 3.2z"/><path data-id="29147" d="m85.7 6.9l0 19.6l3.6 0l-0.4 42.7l16.3 0.2l1 2.8l0.2 8l-1.4 2l1.9 4.7l-0.8 4.1l3.4 4.1l65.5 0.8l1.1 -51.1l-1.5 0l0 -16.8l-3.5 0l0 -19.4l-7.6 -0.1l-4.8 -0.1l-8.9 -0.2l-5.6 -0.1l-1.3 0l-11.5 -0.2l-2.7 0l-6 -0.1l-1.7 0l-3.8 0l-11.6 -0.2l-1.6 0l-2.7 0l-1.4 0l-2.1 0l-5 -0.1l-1.4 0l-5.7 -0.1z"/><path data-id="29149" d="m614.2 734.6l-0.6 30.4l0.9 3.5l0 19.9l4.5 0l1.7 0l2.1 0l2.5 0l7.8 0l1.5 0l1.5 0l4.4 0l7.5 0.2l2.1 0l4.4 0l26.9 -0.1l1.3 0l13.8 0l1 -52.7l0.4 -2.5l0.1 -5.6l-16.3 -0.4l0.3 -10.9l-4.1 -0.2l-34.2 -0.1l-3.3 -0.2l-23.7 -0.3l-0.3 18.9l-2.1 -0.1z"/><path data-id="29151" d="m536.3 442.1l-0.2 8.3l25.6 0.7l21.1 -0.2l3.1 -0.7l13.1 0.3l2.7 0.6l16.9 0l0.2 -28.5l0.1 -5.3l0.4 -45.7l-1 0.1l-11.8 -0.6l-5.1 4.2l-9.2 1l-5.9 2.3l-2.5 2l-2.5 4.5l-7.5 7.1l-5.7 1.8l-4 3.2l0.8 2l-3.3 1.6l0.1 5.3l2.5 4.6l-1.8 4.5l-3.4 1.9l-5.8 0.2l-5.1 1.5l-5.3 -3.3l-2.4 1l0 1.2l2.7 6.2l3.7 2.1l1.5 3.4l-2.8 3.3l-9 2.6l-0.2 6.7z"/><path data-id="29153" d="m450.9 731.2l-1.1 57.6l31.2 -0.1l5.3 -0.1l1.8 0l10.9 0l3.6 0.1l5.3 0l1.5 0.1l3.7 -0.1l4.8 0l1.3 0l13.9 -0.1l2.5 0l7.4 -0.1l1.9 0l2.6 0l1.2 -55.1l-97.7 -2.2z"/><path data-id="29155" d="m870.8 809.1l0.2 36.8l0.1 35.6l8.7 -0.1l3.8 0l1 0l14.8 -0.2l4.8 0l4.6 -0.1l0.5 -1.3l1.7 -2.3l0.6 -1.6l0.6 -4.2l0.4 -3.8l0.3 -1.9l1.2 -1.7l2.2 -1.3l2.2 -0.8l2.2 -0.6l2 -1.3l2 -1l1.1 -1.4l0.2 -1.6l0.1 -1.6l-0.1 -1.1l-0.3 -1l-1 -1.7l-0.9 -1.2l-1.7 -1.6l-1.6 -1l-1.1 -0.7l-1.2 -1l-1.5 -1.4l-1.4 -0.9l-2.3 -1.7l-1.9 -1.7l-1.1 -1.1l-0.8 -1.1l0.3 -1.3l0.8 -1.3l1.1 -0.3l2 0.7l3.8 -0.4l1.5 0.2l2.7 1.2l2 0.7l1.3 0.2l2.3 -0.3l1.5 -0.5l1.8 -1.5l1 -0.2l1.4 0.5l1.1 0l1.1 -0.9l0 -1.7l-0.2 -1.6l-0.6 -1.3l-1.1 -0.6l-1.2 0.5l-3.6 -2l-1.7 -1.5l-3.3 -2.3l-1.1 -2.2l-0.1 -1.6l0.6 -1.2l1.6 -1.1l3.6 0l3.2 0.9l2.3 0.2l0 -4.3l-2.7 -1.3l-3.1 -3l-1.3 -3.9l-2.8 -1.4l-4.3 1.9l-5.6 0l-2.8 -2.9l-5.4 -2.1l-2 1.7l-1 6l-24.2 0l-7.2 -0.4z"/><path data-id="29157" d="m843 574l0 8.4l42.8 -0.4l8.8 -0.6l0 1.7l8 0.7l3.2 -1.8l1.2 2.3l1.2 -2.2l4 1.1l1.7 1.8l1.1 -2.7l2.7 0.1l3.3 1.7l3.5 -2.8l1.6 5.4l1.6 0.7l3.9 -1.1l1.8 1.9l3.2 0.2l0 -1.2l0 -1.3l0.7 -1l1.1 0l2.3 0.8l1.2 -0.1l1.2 -1l0.2 -1.3l-0.4 -1.1l-1.1 -1.6l-3.1 -3.4l-0.6 -1.3l-1.1 -1.8l0.3 -1.8l-0.1 -1l0.1 -2.2l0.3 -1.6l0.3 -1.7l-0.7 -1.3l-1.4 -1.1l-2 -0.5l-4.2 -1.2l-1 -0.4l-1.5 -0.8l-1.2 -2l-0.8 -1.8l-1.9 -1.3l-1.1 -0.5l-0.1 -1.1l-1.2 -0.2l-1.4 0.6l-1.8 -0.1l-1.9 -0.3l-1 -0.8l-0.4 -1.4l0.6 -1.7l0.4 -1.4l0.1 -1l0 -1l-1.3 -2.6l-1.2 -1l-2.9 -1.7l-3.1 -2.2l-1.8 -1.8l-1.1 -1.5l-2 -0.7l-1.1 -0.1l-1.2 -0.8l-1.4 -0.1l-1.1 -0.5l-1.7 -0.4l-1 -2.2l0.4 -1l-0.1 -1l-2.4 -1.6l-3.4 -2.7l-1 -0.6l-1.2 0.2l-1.8 1.3l-2 2.5l-3.1 2.2l-2.4 0.3l-1.5 -0.2l-2.1 -0.8l-9.3 10.1l-5.2 9.2l-11.4 19.2l-5.4 5.6z"/><path data-id="29159" d="m339.1 399.9l-0.3 8.4l33.1 1.2l0.2 -5.6l33.4 1l0.6 -17.4l0.5 -13.9l1.4 -45.2l-8.3 -0.6l-25.2 -0.8l-33.3 -1.4l-0.1 2.8l-0.2 5.6l0.7 2.1l-0.9 20.6l-0.1 2.8l-0.7 13.9l-0.1 2.8l-0.7 23.7z"/><path data-id="29161" d="m561.7 545.2l-0.7 36.2l33 0.7l0.4 -36.4l10.8 0l30.7 0.4l0.6 -69.1l-1.4 0l-14.4 -0.2l-0.3 19.5l-18.1 -0.4l-21.3 0.4l-6 3.9l-0.9 -2l-1.7 0.1l-2 5.9l-2.8 0l-5.4 -0.2l-0.3 24.7l-0.3 16.5z"/><path data-id="29163" d="m646.2 227.5l3.3 25.6l4.4 34.1l22.3 0.5l11.2 0.1l0.2 -7.7l0.2 -9.3l69.1 0.6l0.1 -1.2l-0.9 -4.1l-1 -1.5l-2.3 -0.9l-2.8 -3.1l-0.9 -2l-1.5 -1.2l-1 -1.1l-0.5 -1.3l-3.5 -2.1l-3.5 -3.8l-1.1 -0.9l-1.7 -1.2l-5.2 -3.1l-0.9 -1l-0.4 -1l-1.8 -0.9l-1.4 -0.6l-1.4 -1.4l-0.3 -1l-0.5 -1.1l-1.4 -0.9l-1.4 -0.3l-1.5 -0.6l-1.5 -1.2l-2.4 -0.9l-1.5 -0.9l-1.2 -1l-1.7 -1.2l-2.2 -1.9l-2.2 -2.7l-1 -1.3l-0.4 -1l-0.3 -4l-1.6 -1.6l-1.7 -2.7l-1 -2.4l-1.1 -1.8l-2.1 -0.5l-1.8 -0.2l-3.2 -0.7l-1.5 -1.4l-0.8 -1.1l-0.7 -1.2l-0.5 -3.3l-0.4 -2l-0.6 -1.2l-3.8 0l-24.6 18.6l-13.9 10z"/><path data-id="29165" d="m100.6 211.5l1.5 1.8l1.5 1.5l3.5 2l1.1 1.2l0.3 1.1l0.2 2.7l0.2 1.1l0.9 1.7l1.1 1l2.6 1.6l3 0.9l2 1.5l0.8 2.7l0.5 1l1 0.8l1.7 0.7l1 1l0.1 1.7l0.2 1.1l0.9 1.1l2.5 0.7l1.1 -0.3l2.1 -1.3l1 -0.1l1.5 0.7l0.6 1.1l0.3 1.6l-0.3 1l-1.5 1.3l-1.2 0.3l-1.2 1.1l-0.4 1l0.3 5.4l0.2 1.2l0.2 1.1l0.3 1.1l0.5 1.2l0.7 1.2l1.2 1.5l1.3 1l1.6 0.6l1.6 0.8l1.6 1l1.3 1.2l1 1.2l0.6 1.2l0.3 1.6l-0.4 1.5l-1.1 2l0.2 1.2l1.5 1.6l1.9 0.6l1.8 0.1l1.8 -0.3l1.4 0.8l1.1 2.6l1.1 2l1.6 1.3l1.6 0.6l2.7 0.2l1.4 -0.3l2.7 -1.6l1.4 -1l1 -0.2l1.7 0.4l1.1 1.6l0.3 1.1l-0.3 2l1.8 0.7l1.6 0.2l2.4 -0.7l1.2 -0.7l1 -0.1l1.1 0.2l0 -3.9l0.1 -3.1l0 -9.8l0 -4.1l0 -4.2l-0.1 -8.5l0 -7.3l0 -16.5l0 -2.8l0 -11.6l-75.1 -0.6z"/><path data-id="29167" d="m321.3 544.6l-0.4 10.4l3.4 0.1l-0.6 21l-0.3 11l-0.8 27.4l27.6 0.7l27.9 0.9l10.3 0.3l1.4 -59.1l-2.7 -0.1l0.5 -13.8l-57.8 -2l0.1 -2.8l-8.3 -0.3l-0.2 6.1z"/><path data-id="29169" d="m504.1 535.1l-0.6 25.2l16.4 8.2l8.3 4.2l-0.1 8.3l9.9 -0.1l23.1 0.5l0.7 -36.2l0.3 -16.5l0.3 -24.7l-24.1 -0.8l-33.6 -1.1l-0.1 8.2l-0.4 22.5l-0.1 2.3z"/><path data-id="29171" d="m359.6 6.6l-0.1 21.3l1.2 0.1l0 17.4l76.6 -0.6l0 8.5l25.3 -0.1l0.1 -10l3 -0.7l-0.2 -2.1l-3.9 -2.9l-2.4 -4.5l1 -6.8l3.7 -3l-1.1 -3.9l2 -0.8l-4.2 -1.7l0.7 -4.1l1.7 -2.4l-5.2 0.5l3.9 -1.8l-3.4 -4.3l-4.1 0.1l-2.3 0.1l-10.6 0.1l-1.1 0l-3.3 0l-3.2 0l-1.6 0.1l-2.1 0l-5.7 0l-2.4 0.1l-19.1 0.6l-1.8 0.1l-5.8 0.2l-18.7 0.4l-8.5 0l-4.2 0l-4.3 0z"/><path data-id="29173" d="m607.7 249.1l-0.1 2.8l14.2 0.1l27.8 1.1l-3.3 -25.6l13.9 -10l24.6 -18.6l3.8 0l-1.2 -1.4l-4.6 -1.9l-1 -0.5l-2.7 -2.4l-0.7 -1.4l-2.2 -2.3l-0.9 -1.6l-1.4 -1.7l-1.1 -0.9l-1.6 -0.9l-1.3 -0.9l-0.6 -1l-61.2 -0.3l0 5.6l-0.1 8.5l0.6 2.8l-0.9 50.4z"/><path data-id="29175" d="m460 235.8l-0.5 16.8l20.8 7l1.3 0.5l19.4 6.6l8.6 0.2l8.7 0.2l0.6 -16.9l0.1 -2.7l0.3 -8.6l1.1 -41.4l-58.6 -1l-1.7 38l0 1.3z"/><path data-id="29177" d="m234.2 238.2l-0.2 36.5l6.3 -1l-2.5 5.6l1.1 0.9l6.9 1.5l4.3 5.4l2.6 1.5l3.7 0.2l5.7 -3.9l-1.7 -4.6l1 -2.6l7.3 -2.8l2.7 2.7l-0.1 1.7l-3.1 2.8l-0.8 3l4.2 1.8l1.9 -1.8l1.2 -5.2l1.8 -0.9l4.3 0l3.6 -3.8l5.3 -2.2l3.2 0.4l4.5 2.4l4.5 -1.2l-0.1 -61.5l-7.4 -0.2l-51.6 -0.1l-8.3 -0.2l-0.3 14.1l-0.1 9.2l0 2.3z"/><path data-id="29179" d="m668.4 583.3l-0.3 16.6l15.5 0.6l-0.1 16.3l5.5 0.1l-0.1 13.8l0 5.5l2.7 -0.1l-0.1 10.9l5.4 0.1l-0.4 10.4l5.7 -0.7l-0.1 5.5l2.7 -0.6l-0.1 2.8l5.5 -1.2l-0.1 5.5l2.7 -0.6l-0.1 9l2.7 -0.9l5.4 0.6l-0.1 8.2l27.7 0.6l0.1 -16.5l3.3 0l0.1 -5.4l2.8 0.1l0.4 -11.4l-0.2 -8.3l-2.7 0.2l0.6 -19.3l-3.5 -0.2l0.6 -43.3l-3.3 0.2l-29.4 -0.3l-17 3l-5.4 -0.1l-2.7 0l-8.1 -0.1l-15.4 -0.8z"/><path data-id="29181" d="m697.3 736.1l-1 52.7l4.5 0l11.8 0l1.4 0l4.1 0l2.7 0l12.6 0l4.3 -0.1l9.9 0l2.8 0l8.2 0l2.7 0l6 0l6.1 0l1.1 0l1.7 0l1.3 0l1.4 0l0.2 -17.4l-2.7 -0.1l0.1 -16.3l-5.4 0l0.1 -16.2l0 -8.3l-5.3 -0.1l-34.9 -0.3l-7.6 -0.4l-11.8 -1.3l-13.6 -0.3l-0.1 5.6l-0.4 2.5z"/><path data-id="29183" d="m720.8 372.1l-0.2 29.5l6.2 2.6l4.3 -1.3l6.8 -4.1l5.5 -4.5l5.9 -1.7l2.6 -3.2l0.8 -2.6l1.2 -1.8l1.5 -0.9l3.6 -1.3l4.3 -3.8l2.5 -4.2l4 -0.6l3.9 1.4l5.7 0.5l3.5 -0.3l1.4 -0.7l1.4 -2.3l-0.1 -6.2l5.9 -4l1.5 -2.4l1 -3.6l0.4 -1.5l4.8 -7l1.5 -0.5l5.2 1.2l4.8 -0.5l3.3 -6.8l1.6 -4.8l1.8 -0.9l3.2 0.7l6.4 6.9l2.9 1.7l8 4.8l6.4 -2.1l3.4 4.5l0.4 -1.8l0.8 -4.3l0 -1.2l-0.6 -1.1l-5.7 -3.4l-2.2 -1.8l-3.1 -1.7l-1.2 -0.3l-2.1 -2l-2 -2l-1.1 -0.7l-1.7 -0.8l-1.3 -0.9l-1 -0.3l-2 -0.3l-1.1 -0.2l-3.1 0l-1.1 0l-1.7 -0.8l-1 -0.4l-1.4 -0.7l-1.9 -1.4l-5.5 -2.8l-1.9 -0.9l-1.6 -0.5l-1 -0.1l-1.7 -0.1l-1.4 -0.3l-2.5 -0.5l-1.7 0.7l-1.4 1.1l-1.5 2.8l0 1.8l-0.6 1.7l-2 3l-1.1 1.5l-1.4 0.8l-2.1 2.3l-1.9 2.3l-1.8 0.8l-1.3 0.3l-1.8 0.2l-1 -0.1l-1.8 -1.2l-4.5 -2.6l-1.6 -3l-1.8 -1.5l-1.4 -1.6l-0.9 -1.5l-0.3 -1.2l-4.3 0.1l1.5 3.4l-3.5 -1.1l-0.1 3.6l-5.7 -5l-1.2 1.5l-3.6 -0.3l-3.9 2.2l-0.2 1.8l-0.2 4.6l-1.5 0.3l-6.9 -2.3l-8.2 0l-1 -0.1l-1.1 0.3l-1.1 -0.3l-1.1 -0.3l-1.7 -0.8l-0.3 4.5l-0.6 24.7l-0.1 7.8z"/><path data-id="29185" d="m257.1 499.1l-1.1 25.8l38.5 1.6l-0.4 11l27.4 1l8.3 0.3l0.7 -16.5l8.5 0.3l1.2 -30.3l1 -24l-3.9 -1.5l-2 0.3l-3 -2.7l-1.9 0.1l1.9 3.4l-73.8 -2.5l-1.3 33.8z"/><path data-id="29186" d="m796.2 529.1l8.5 8.2l12.6 12.7l17.7 18.7l6.9 -5.7l6.5 5.4l11.4 -19.2l5.2 -9.2l9.2 -10.2l-1.9 -1.2l-3.2 -6.4l-0.5 -2.2l1 -0.9l1.3 -1.7l1.8 0l1.4 -1.1l1.9 -1.5l0.1 -1.1l-1.3 0.2l-0.6 -1.2l-0.7 -1l-1.9 0.7l-3.6 0.7l-1.1 0.1l-1.6 -0.2l-1.7 -1.4l-3.6 -4.8l-2 -0.9l-1 -1.1l-0.4 -1.2l-1.5 -1l-1.1 0l-1.3 0.3l-1.1 -0.1l-3.3 -2.1l-1 -1l-1.3 -1.7l0 -1.9l-0.4 -1.7l-2.5 -1.8l-2.1 -1.1l-2.1 1l-4.9 -3.3l-2 -1.4l-3.7 -3.5l-1 -2.4l0 2l-4.7 2.1l-2.1 2.9l-5 -1.2l-13 9.9l14 11.5l-20.4 19.5z"/><path data-id="29187" d="m768.4 556.4l-0.4 17.4l16.9 -0.2l2.7 0.2l9.5 0l46 0.2l5.4 -5.6l-6.5 -5.4l-6.9 5.7l-17.7 -18.7l-12.6 -12.7l-8.5 -8.2l19.6 -18.7l-13.2 -12.3l-25.1 7.4l-6.7 -0.8l2.3 -1.5l-1.3 -4.7l1.4 -5.6l-3 -0.9l-1.2 -0.4l-0.2 24.1l0 2.7l-0.5 38.1z"/><path data-id="29189" d="m754.7 415.1l0 2l0.6 -3l5.4 2.1l2.6 4.9l3.7 -2.2l-0.9 -4.2l1 -1.6l3 0.3l3 2.8l1.7 -1.6l1.7 -4.2l11.4 0l3.6 0.1l3.8 -0.1l9.1 0.1l-1.4 3.9l-1.2 -0.5l1.2 5l5.6 0.8l6 -0.2l-1.6 3.4l-0.2 5.6l1.1 3.7l1.8 -2l4.9 -5.5l1 -2.2l0.5 -1l0.2 -1.5l0.5 -2.9l0.2 -1.2l0.5 -1.4l0.1 -1.3l0.5 -1.9l0.2 -1l0.9 -3.6l0.5 -1.5l-1.3 -1.8l-0.5 -2.1l-1.2 -0.7l-2.5 -2l-1.9 -2.5l-0.9 -1.8l-0.4 -2.8l0.8 -2.6l0.5 -2.1l0.7 -3.1l0.5 -3.1l2.6 -4.2l2.9 -4.7l1.9 -3.1l1.7 -1l4.9 -3.2l3.2 -4.2l0.3 -2.5l2.6 0.4l3 -2l3.5 -2.9l0.8 -1.5l-3.4 -4.5l-6.4 2.1l-8 -4.8l-2.9 -1.7l-6.4 -6.9l-3.2 -0.7l-1.8 0.9l-1.6 4.8l-3.3 6.8l-4.8 0.5l-5.2 -1.2l-1.5 0.5l-4.8 7l-0.4 1.5l-1 3.6l-1.5 2.4l-5.9 4l0.1 6.2l-1.4 2.3l-1.4 0.7l-3.5 0.3l-5.7 -0.5l-3.9 -1.4l-3.1 0.3l-3.4 4.5l-4.3 3.8l-3.6 1.3l0 3.4l-0.2 13.9l-0.3 13.8z"/><path data-id="29195" d="m344.1 258.1l-2.9 67.6l33.3 1.5l25.2 0.7l8.3 0.6l0.3 -8.5l17.1 -17.8l4.1 -3.8l-0.2 -2.2l-3.8 -0.7l-1.7 -1.5l0.2 -2.8l3.2 -1.7l2.5 -3.3l0.2 -3.6l2.1 -2.7l4.5 -4l1.7 -4.9l-2.4 -1.9l-4.6 2.7l-2.3 -0.4l-1.2 -1.5l0.6 -4.2l-1.2 -1.9l-3.6 -1.3l-1.7 -2.5l0.9 -3l-1 -2.7l-2.5 -0.6l-7 0.5l-3.1 -0.9l-4.2 -3.5l-1.1 -7l-3.6 -2.3l-5.3 1l-3.7 -5.1l-3.1 -1.2l-2.4 1.9l1.6 3.9l-0.3 3.1l-3.5 5.3l-2.2 2l-3.9 -1.9l-3.3 5.1l-2.2 0.4l-5.9 -0.1l-1.8 2.4l0 2l2.2 4.2l-0.7 3l-5.2 3.2l-4.2 1.3l-2.8 -1.7l1.8 -4.9l-1.3 -1.4l-4.9 -0.3l-3.1 -4.6l-1.8 -0.1z"/><path data-id="29197" d="m461.7 9.1l-3.9 1.8l5.2 -0.5l-1.7 2.4l-0.7 4.1l4.2 1.7l-2 0.8l1.1 3.9l-3.7 3l-1 6.8l2.4 4.5l3.9 2.9l0.2 2.1l-3 0.7l0.3 10l50.1 -0.6l-0.1 -49.4l-4.3 0.2l-11.1 0.2l-1.2 0l-3 0.1l-14.7 0.5l-8.6 0.3l-7.3 0.2l-4.2 0.1l3.4 4.3z"/><path data-id="29199" d="m512.9 3.2l0.1 49.4l0 7.9l59.9 1.1l1 -60l-4.2 0.2l-4.1 0.1l-4.6 0.1l-5.7 0.2l-2.1 0.1l-1.5 0l-13 0.3l-2.5 0.1l-3.2 0l-2.8 0.1l-9.3 0.2l-4.9 0.1l-2.9 0.1z"/><path data-id="29201" d="m898.8 676.6l-1.9 1.9l2.9 6.6l1.6 0.4l0.3 3.6l5 7.6l0.9 6.9l3.2 2.3l0.9 3.4l-0.7 4.1l0.8 2.6l-1.6 2.4l0.9 2.8l4.1 -0.1l6.1 -0.2l2.6 -0.1l5.8 -1.8l4.4 0.3l2.7 0l2.7 -1.4l0 -5.5l5.5 0l0 -5.5l5.3 0l0 -2.7l2.8 0l0 -2.7l5.4 0l0.1 -5.5l4.1 -1.4l0 -1.3l5.2 0l-1.6 -1.3l-1.2 -0.7l-2.2 -1l-2.5 -0.9l-2.4 -1.8l-0.8 -1.2l-0.2 -1.6l0.9 -2.9l0.5 -1.9l0 -1l-0.5 -1.6l-0.8 -1.6l-1.4 -1.5l-2.1 -1.5l-1 -1.1l-1.7 -2.5l-1.4 -2.6l-0.5 -1.7l-2.7 -5l-0.9 -2.1l-0.8 -3.5l1.4 -4.2l0 -1.2l-1.9 -1.2l-1.3 0.1l-1.4 0.3l-1.7 1.2l-6.9 -0.4l0 1.4l-5.6 1.3l-5.5 0l0 2.8l-1.9 0l-2.5 0l0 2.3l-5.5 1.4l-2.6 2.7l0 5.4l-2.7 2.7l-5.5 0l-1 2.7l-1.4 5.4z"/><path data-id="29203" d="m616.9 702.3l-0.3 13.5l23.7 0.3l3.3 0.2l34.2 0.1l4.1 0.2l0.9 -37.9l16.9 -0.1l5.6 -1.3l7.3 -0.4l0.1 -9l-2.7 0.6l0.1 -5.5l-5.5 1.2l0.1 -2.8l-2.7 0.6l0.1 -5.5l-5.7 0.7l0.4 -10.4l-5.4 -0.1l0.1 -10.9l-2.7 0.1l0 -5.5l0.1 -13.8l-5.5 -0.1l-65.1 -1.4l-0.2 32.8l-1.2 37.5l-0.1 16.6z"/><path data-id="29205" d="m522.3 129.8l-1.7 67.7l16.6 0.2l0.5 -11.5l50.7 0.9l1 -56.5l-16.8 -0.2l-50.2 -0.6z"/><path data-id="29207" d="m826.3 709.5l0.8 4.3l1.2 1.2l-1.8 2.5l4.1 5.3l2 1.5l-1.2 2.2l1.3 3.2l2.7 1.9l-0.9 6l2 0l0.5 3.1l1.9 0.8l-0.2 1.8l3 4.5l2.5 4.1l-1.4 3.5l2 3.2l-1.9 5.4l1.6 -0.1l26.8 0.4l38.6 0.4l0.1 -21.1l-0.7 -22.3l2 0l-0.9 -2.8l1.6 -2.4l-0.8 -2.6l1.1 -4.2l-1.3 -3.3l-3.2 -2.3l-0.9 -6.9l-5 -7.6l-0.3 -3.6l-1.6 -0.4l-2.9 -6.6l1.9 -1.9l1.4 -5.4l-15.2 0l-13.9 -0.2l0.1 13.7l-5.5 -0.1l0 2.7l-17.3 -0.2l-5.6 -0.1l-0.1 6.4l-2.8 0l-0.1 2.7l-2.7 0l0 2.7l-2.7 0l0 2.7l-2.7 0l-0.1 5.4l-2.7 0l0 2.7l-2.5 -0.1z"/><path data-id="29209" d="m324 716.2l-0.2 12.3l5.9 0.1l-1.6 60l10.5 0l1.1 0l12 0.1l4.6 0l12.1 0l0.3 -11l0.6 -32.2l0.8 -16.2l-5.6 -0.1l0.7 -32.8l-19.2 -0.3l-21.7 -0.4l-0.1 13.7l-0.1 6.9z"/><path data-id="29211" d="m360.7 45.4l0 22.9l0.1 45.7l69.9 -0.7l5.2 0l1.3 -0.1l0.1 -59.9l0 -8.5l-76.6 0.6z"/><path data-id="29213" d="m368.6 777.6l-0.3 11l3.3 0l21.3 0.1l3.8 0l5.5 -0.1l2.9 0l26.3 0.1l6.1 0l2.3 0l9.9 0.1l1.1 -57.6l-21.6 -0.6l-35.6 -0.9l-11.9 -0.3l-11.7 -0.3l-0.8 16.2l-0.6 32.2z"/><path data-id="29215" d="m527.6 605.9l0 19.1l0.7 22l-0.6 36.7l24.4 0.6l16.2 0.1l27.2 1.1l21.5 0.2l1.2 -37.5l0.2 -32.8l-16.2 -0.3l0 -33l-8.1 0l-33 -0.7l-23.1 -0.5l-9.9 0.1l-0.4 24.9z"/><path data-id="29217" d="m173.3 557.4l0 1.4l0 6.1l0 1.5l0 1.7l0 3.7l81.5 2.6l0.1 -2.7l0.7 -19.2l0.4 -27.6l1.1 -25.8l-3.6 1l-3 -3.1l-1.2 2.1l-0.8 -2.1l-3 -1.8l-3.1 0.2l-5 2.2l-1.4 1.7l0.5 -3.2l-2.1 0.3l-0.8 3.3l-1.4 -1l-0.1 2.5l-1.9 0.3l-0.4 -2.3l1.5 -1.5l-1.5 -1l-55.9 -1.8l0 4.4l0 8.5l0 4.1l0 3.7l0 1.4l0 1.5l-0.1 4l0 1.8l0 3.7l0 1.6l0 1.1l0 1.8l0 2.2l0 1.2l0 1.5l-0.1 3.4l-0.1 8.8l0 8.2z"/><path data-id="29219" d="m652.9 344.5l-0.4 26l3.2 0.3l4.2 1.8l4.1 0.4l3.4 -2.1l8.9 8l3.4 2.2l1.5 2.3l0.2 4.1l6.5 2.6l7.6 1.8l2.9 -0.3l5.3 -1.9l3.2 0.2l3.5 2.8l1.6 3.8l2.1 2.1l2.3 1.4l4.2 1.5l0.2 -29.5l0.1 -7.8l0.6 -24.7l-17.3 -0.4l-5.6 0l0.2 -11.4l-11.9 0l0.1 -11.6l-11.4 -0.1l-0.1 28.7l-5.5 -0.4l-5.5 0.3l-11.5 -0.1z"/><path data-id="29221" d="m700.8 530.6l-0.5 24.8l22.9 0.4l10.9 0.7l16.8 -0.6l17.5 0.4l0.5 -38.1l0 -2.7l0.2 -24.1l-6.7 -1.9l0.5 -3.1l-14.8 -19.3l-17.3 -0.2l-11.2 -0.3l-2.9 0.5l-15.9 0l0.1 46.9l-0.2 16.5z"/><path data-id="29223" d="m748.3 669l-0.1 16.5l7.5 0.1l-0.2 9.2l2.7 0l0 2.7l0 2.8l2.7 0.1l-0.2 8.2l2.7 0.1l48.8 0l2.1 0.2l12 0.7l2.5 0.1l0 -2.7l2.7 0l0.1 -5.4l2.7 0l0 -2.7l2.7 0l0 -2.7l2.7 0l0.1 -2.7l2.8 0l0.1 -6.4l5.6 0.1l0.1 -8.4l-16.9 -0.1l0.8 -43l-2.8 -0.3l-16.5 0.3l-30.5 -0.6l-0.1 8.5l-13.8 0.1l-2.8 -0.5l-11 0.7l0.2 8.3l-0.4 11.4l-2.8 -0.1l-0.1 5.4l-3.3 0z"/><path data-id="29225" d="m404.6 616.8l-0.5 27.3l2.3 0l-0.1 6.5l-0.5 27.5l10.7 0.2l13.6 0.5l-0.1 2.7l11.8 0.4l20.8 0.3l1 -36.9l-2 -0.1l0.8 -41.1l-24.8 -0.5l-32.9 -0.7l-0.3 13.7z"/><path data-id="29227" d="m171.2 8.4l0 19.4l3.5 0l0 16.8l1.5 0l57.6 0.5l-0.1 -17l-2.5 0l-0.1 -20l-8.3 0.1l-1.1 0l-2.4 0l-2.1 0l-1.8 0l-3.2 0l-10.7 0.1l-4.5 0l-1.6 0l-2.8 0l-6.7 0l-1.2 0l-7.8 0l-5.7 0z"/><path data-id="29229" d="m462.6 604.3l-0.8 41.1l2 0.1l-1 36.9l65.1 1.4l0.6 -36.7l-0.7 -22l0 -19.1l-45.9 -1.1l-19.1 -0.5z"/><path data-id="29510" d="m817.3 391.5l0.3 3l0.9 1.8l1.9 2.5l2.5 2l1.2 0.7l0.5 2.1l1.7 1.1l1.1 -2.1l3.9 -6.2l1.1 -0.7l1 -1l1.2 -0.9l1 -1.1l1.4 -2.6l1.2 -4.1l0.1 -2.6l-0.5 -3.2l-0.2 -1.3l-0.6 -1.8l-1.3 -2.5l-1.1 -1.1l-1 -1.8l-0.4 -1.7l0 -1.2l0.3 -1.6l0.7 -1.2l2.1 -2.1l1.2 -0.7l1.1 -1.5l0.2 -1.1l0.6 -1.2l0.7 -1.1l-2.6 -0.4l-0.3 2.5l-3.2 4.2l-4.9 3.2l-1 0.5l-2.6 3.6l-2.5 4l-3 4.9l-0.5 3.1l-0.6 2.4l-0.6 2.8l-0.7 2.4z"/></svg>
