<?xml version="1.0" encoding="UTF-8"?>
<!DOCTYPE svg PUBLIC '-//W3C//DTD SVG 1.1//EN' 'http://www.w3.org/Graphics/SVG/1.1/DTD/svg11.dtd'>
<svg viewBox="0 0 1000 882.042" xmlns="http://www.w3.org/2000/svg">
  <g data-id="001">
    <path d="m437.258 53.349l-0.084 59.902l1.305 -0.009l26.033 -0.148l49.225 0.166l-0.208 -35.004l-0.202 -17.051l-0.326 -8.596l-50.06 0.597l-25.684 0.144z" />
  </g>
  <g data-id="003">
    <path d="m109.53 105.188l-2.579 1.68l2.709 1.453l1.291 2.66l3.514 0.408l0.941 3.8l-1.137 2.337l1.047 7.018l1.532 1.47l0.872 5.714l-2.642 4.004l1.956 1.408l-0.003 3.366l2.346 0.062l2.158 -0.715l1.769 0.118l1.149 0.469l1.404 0.93l0.988 1.416l0.097 1.143l-0.631 1.494l-1.098 1.102l-0.541 1.149l0.395 1.783l2.039 2.069l1.383 1.011l1.045 0.334l1.016 0.112l1.57 -0.103l1.747 1.065l0.595 1.008l8.242 0.494l32.833 0.257l-0.382 -42.84l-0.176 -1.112l0.092 -15.904l-65.48 -0.778l1.422 4.188l-1.602 1.286l0.118 4.642z" />
  </g>
  <g data-id="005">
    <path d="m0.173 6.99l0.266 2.38l1.011 1.816l0.249 1.207l-0.2 1.001l-0.557 1.059l-0.042 1.231l0.875 1.13l2.124 0.807l1.712 0.068l1.803 -0.758l1.636 0.111l0.854 1.115l1.705 -1.365l-0.01 -1.677l0.091 -1.607l0.268 -1.101l0.11 -1.227l1.054 -0.734l1.257 -0.374l1.043 -0.013l0.939 1.171l0.508 1.326l1.301 1.59l-0.339 3.614l-0.901 1.231l-4.553 1.808l-1.181 0.563l0.603 1.226l0.183 1.073l-0.078 1.382l-0.226 1.524l0.316 1.456l1.541 1.592l1.077 0.632l1.762 1.767l1.082 1.831l0.383 1.406l-0.099 1.175l-0.664 1.953l0.238 1.997l1.455 2.467l0.821 1.829l0.268 1.692l-0.04 1.654l0.813 1.665l1.478 1.683l0.509 1.225l0.153 1.122l-0.375 1.291l-1.289 0.98l-2.116 0.735l-1.301 1.196l-0.212 1.329l0.975 1.181l1.384 0.13l2.854 -1.266l1.458 -0.346l1.253 0.329l2.239 1.838l1.255 0.71l2.044 0.089l1.409 0.659l1.065 1.396l0.02 1.493l-0.717 2.022l0.219 1.237l56.053 0.541l0.435 -42.704l-3.641 -0.046l-0.037 -19.588l-1.37 -0.024l-1.105 -0.026l-17.497 -0.215l-3.328 -0.045l-2.41 -0.079l-6.218 -0.101l-8.076 -0.104l-8.399 -0.108l-1.167 -0.031l-3.262 -0.075l-2.859 -0.066l-5.546 -0.105l-4.609 -0.146l-6.831 -0.029l-8.838 -0.109l-2.876 -0.054l-1.184 1.381z" />
  </g>
  <g data-id="007">
    <path d="m518.909 250.158l-0.589 16.926l31.471 1.285l-0.901 33.921l71.36 0.993l0.659 -17.14l33.039 1.026l-4.374 -34.069l-27.8 -1.066l-14.177 -0.055l0.075 -2.831l-55.473 -0.302l-33.214 -1.378l-0.076 2.69z" />
  </g>
  <g data-id="009">
    <path d="m254.292 788.606l16.952 0.002l6.304 0l2.354 0l5.897 -0.013l20.782 -0.046l1.367 -0.026l1.339 0l1.466 0.008l3.138 0.008l14.222 0.036l1.57 -59.965l-5.861 -0.099l0.161 -12.265l0.127 -6.884l-59.558 -1.477l-8.109 -0.199l-0.922 34.431l0.187 1.765l-1.414 44.725z" />
  </g>
  <g data-id="011">
    <path d="m173.323 625.783l80.221 3.445l1.003 -43.836l0.279 -10.996l-81.495 -2.621l0.015 3.104l0.027 5.045l0.003 7.297l0.018 2.757l0.038 5.573l0.018 1.189l-0.035 7.127l-0.024 2.661l-0.006 1.734l0.004 1.073l0.01 2.825l-0.02 2.694l-0.037 2.759l-0.007 2.741l-0.01 5.429z" />
  </g>
  <g data-id="013">
    <path d="m173.857 493.271l0.001 1.38l55.935 1.763l1.513 0.955l-1.481 1.48l0.396 2.282l1.938 -0.251l0.144 -2.474l1.394 1.018l0.755 -3.264l2.125 -0.291l-0.485 3.236l1.362 -1.675l5 -2.245l3.128 -0.159l2.96 1.842l0.834 2.114l1.198 -2.051l2.974 3.143l3.561 -0.96l1.257 -33.772l-3.793 -0.099l1.174 -35.972l0.25 -8.442l-3.1 -1.692l-6.945 0.402l-6.191 1.603l-1.883 -0.749l-3.797 0.5l-2.139 -2.357l-4.623 1.722l-3.831 -2.213l-2.213 0.529l-2.196 -2.414l-17.059 -0.451l-27.983 -0.718l-0.044 8.304l-0.031 5.883l0.015 2.102l-0.01 4.359l0.05 6.46l0.026 2.18l0.023 1.825l0 2.349l-0.026 2.119l0.023 4.013l0.012 6.224l-0.003 2.056l-0.004 1.475l-0.025 2.923l-0.038 2.548l-0.052 4.315l-0.049 1.386l-0.016 2.07l-0.031 15.692z" />
  </g>
  <g data-id="015">
    <path d="m338.001 444.774l-0.783 21.859l3.925 1.55l-0.999 23.989l65.721 2.025l0.097 -2.788l0.821 -20.672l-3.459 -0.156l0.67 -14.604l0.298 -7.953l0.547 -26.273l0.713 -16.787l-33.428 -1.033l-0.209 5.565l-33.088 -1.178l0.118 12.564l-0.944 23.891z" />
  </g>
  <g data-id="017">
    <path d="m832.409 635.695l-0.835 42.962l16.908 0.122l-0.134 8.385l17.305 0.205l-0.02 -2.745l5.491 0.066l-0.057 -13.703l13.923 0.212l-0.025 -16.942l0.849 -72.214l-42.787 0.35l1.232 10.624l-1.073 43.219l-10.779 -0.542z" />
  </g>
  <g data-id="019">
    <path d="m480.027 318.715l1.801 1.602l7.404 7.316l1.54 2.046l2.869 2.735l0.744 1.209l-0.53 5.29l3.157 2.662l1.777 4.217l4.192 3.745l2.941 -0.185l2.387 2.134l-0.251 3.653l-3.959 4.89l2.178 4.83l5.19 1.728l2.539 4.811l-2.643 4.457l10.117 2.933l6.268 4.292l3.314 -0.352l1.309 0.549l0.33 -8.803l-1.143 -1.689l1.558 -0.89l-0.104 -2.305l3.589 -2.234l-0.259 -2.019l3.477 -5.503l1.127 0.093l-0.216 -3.399l0.821 -3.444l3.629 -2.684l-2.598 -2.126l1.045 -1.409l-0.562 -6.436l-1.894 0.184l0.543 -8.814l1.682 -12.806l1.576 -3.346l-0.553 -1.153l1.5 -4.38l-0.862 -1.688l0.704 -6.165l3.129 0.03l0.901 -33.921l-31.471 -1.285l-8.401 -0.239l-8.939 -0.214l-12.481 30.911l-7.725 17.461l1.309 2.434l-2.056 1.279z" />
  </g>
  <g data-id="021">
    <path d="m99.107 206.468l-0.072 1.009l0.637 2.264l0.961 1.736l75.147 0.617l-0.136 -16.827l-0.02 -25.388l-0.086 -14.173l-32.833 -0.257l-8.174 0.067l0.097 1.479l-0.06 1.248l-0.687 1.863l-1.402 1.113l-5.289 0.365l-1.067 0.677l-0.457 1.437l0.228 1.026l1.203 1.394l1.414 1.082l1.579 0.296l1.062 -0.359l2.281 -1.738l1.915 -0.547l1.2 1.111l0.555 2.65l-0.524 2.085l-1.079 1.636l-2.097 1.52l-1.139 0.37l-1.134 0.166l-1.611 -0.339l-1.237 -0.586l-1.75 -1.281l-1.38 -1.209l-1.424 -0.782l-1.702 0.492l-1.549 2.132l-0.098 1.748l0.393 3.066l-0.079 2.813l-0.35 1.274l-1.534 1.514l-1.797 0.402l-1.172 0.018l-1.145 0.139l-1.393 0.564l-1.397 1.443l-1.471 2.442l-1.062 1.66l-0.744 1.263l-0.577 1.464l-0.233 1.041l0.23 1.881l0.821 1.757l0.233 1.308l-0.436 1.939l-0.828 1.379l-1.456 1.044l-1.144 0.193l-2.599 -0.954l-1.435 0.26l-1.095 0.863l-0.999 3.132z" />
  </g>
  <g data-id="023">
    <path d="m763.369 708.675l-0.175 8.127l2.769 0.037l-0.206 13.376l5.258 0.093l-0.022 8.332l-0.108 16.233l5.426 0.033l-0.088 16.286l2.695 0.051l-0.213 17.415l11.387 0.009l24.007 0.035l16.619 0.082l1.23 -0.016l0.118 -4.505l1.57 -1.508l-0.074 -2.221l3.177 -0.483l0.89 -3.197l-0.632 -4.732l0.801 -1.785l1.965 -3.41l1.875 -0.41l1.145 -2.516l1.924 -5.436l-2.037 -3.248l1.4 -3.532l-2.534 -4.113l-2.96 -4.453l0.219 -1.761l-1.86 -0.838l-0.49 -3.088l-2.021 0.013l0.943 -5.963l-2.692 -1.895l-1.286 -3.181l1.22 -2.159l-2.009 -1.462l-4.063 -5.344l1.752 -2.507l-1.214 -1.226l-0.793 -4.299l-11.975 -0.676l-2.127 -0.187l-48.811 0.031z" />
  </g>
  <g data-id="025">
    <path d="m234.987 170.143l-0.369 42.528l8.253 0.189l51.644 0.107l7.396 0.218l0.124 -16.876l-0.095 -33.732l-50.063 -0.23l-16.873 -0.605l-0.018 8.402z" />
  </g>
  <g data-id="027">
    <path d="m531.559 372.785l1.143 1.689l-0.33 8.803l2.383 2.471l0.339 4.856l4.968 4.463l4.707 2.415l4.288 1.461l7.158 0.747l7.866 -2.561l4.038 -3.207l5.705 -1.809l7.518 -7.096l2.456 -4.537l2.514 -2.001l5.855 -2.273l9.175 -0.955l5.095 -4.169l11.841 0.638l1.973 -68.438l-71.36 -0.993l-3.129 -0.03l-0.704 6.165l0.862 1.688l-1.5 4.38l0.553 1.153l-1.576 3.346l-1.682 12.806l-0.543 8.814l1.894 -0.184l0.562 6.436l-1.045 1.409l2.598 2.126l-3.629 2.684l-0.821 3.444l0.216 3.399l-1.127 -0.093l-3.477 5.503l0.259 2.019l-3.589 2.234l0.104 2.305l-1.558 0.89z" />
  </g>
  <g data-id="029">
    <path d="m403.995 455.977l-0.67 14.604l3.459 0.156l-0.821 20.672l-0.097 2.788l-1.086 30.379l32.515 1.308l35.232 0.61l0.824 5.5l2.262 2.144l-0.075 2.257l4.398 3.359l0.956 3.183l2.286 1.005l2.606 -2.01l2.694 -0.156l1.832 -2.991l3.163 -0.243l4.173 0.898l0.455 -2.1l4.495 -4.629l1.531 0.11l0.353 -22.524l0.089 -8.246l-16.433 -0.22l0.06 -2.776l-2.743 -0.101l0.051 -2.728l-2.82 -0.064l0.045 -2.7l-2.718 -0.559l0.082 -5.074l-2.742 -0.038l0.044 -2.761l-1.359 -0.022l0.058 -5.528l-1.245 -5.895l-5.498 -0.171l0.195 -7.89l-5.318 0.038l-3.041 -1.754l-5.321 0.084l-3.682 1.739l-1.281 4.355l-6.354 -0.293l-23.373 -1.157l4.239 -2.65l0.404 -1.735l-4.284 -1.55l-2.841 5.838l-1.55 1.784l-3.758 -0.267l-1.092 -1.69l1.533 -2.208l3.557 -0.039l0.314 -1.983l-2.914 -0.358l-1.212 -3.577l-4.304 -4.524l-2.126 -1.251l-3.15 1.649z" />
  </g>
  <g data-id="031">
    <path d="m884.966 654.257l0.025 16.942l15.191 0.03l1.003 -2.717l5.502 -0.006l2.694 -2.744l-0.001 -5.415l2.649 -2.729l5.491 -1.411l-0.029 -2.311l2.508 -0.002l1.866 0l0.03 -2.771l5.532 -0.009l5.573 -1.348l0.02 -1.371l6.89 0.421l1.687 -1.174l-1.147 -1.311l-1.556 -1.894l-1.068 -1.624l-0.664 -1.568l0.097 -1.232l0.462 -1.372l0.414 -2.167l1.91 -2.009l1.183 -1.86l1.046 -0.807l1.444 -0.475l2.973 -0.211l1.074 -0.225l1.725 -0.747l0.944 -1.416l1.154 -5.386l0.147 -1.346l-0.212 -1.784l-0.521 -1.95l-1.227 -3.654l-0.845 -1.953l-1.678 -2.428l-3.031 -3.096l-3.123 -5.198l-0.845 -2.066l-0.381 -1.512l-1.082 -2.147l-0.74 -1.037l-0.606 -1.086l-0.695 -3.447l-0.125 -1.309l0.029 -1.035l-3.245 -0.151l-1.794 -1.854l-3.911 1.098l-1.573 -0.681l-1.566 -5.371l-3.499 2.753l-3.255 -1.737l-2.673 -0.103l-1.114 2.729l-1.696 -1.849l-4.044 -1.113l-1.227 2.187l-1.191 -2.264l-3.194 1.818l-8.032 -0.654l-0.008 -1.707l-8.817 0.647l-0.32 71.709z" />
  </g>
  <g data-id="033">
    <path d="m301.912 213.184l0.108 61.524l2.922 -0.509l4.156 0.656l1.66 -0.662l2.776 -4.167l2.95 -0.879l1.704 -2.404l3.32 0.977l6.502 0.529l3.806 4.184l6.513 0.678l3.61 -1.58l0.651 -2.877l-1.29 -5.136l0.63 -3.492l2.215 -1.908l1.835 0.082l3.109 4.614l4.911 0.266l1.28 1.373l-1.846 4.861l2.83 1.66l4.224 -1.348l5.213 -3.23l0.655 -2.993l-2.22 -4.184l-0.049 -1.95l1.776 -2.406l5.934 0.063l2.233 -0.439l3.266 -5.09l3.871 1.929l2.206 -1.981l3.492 -5.346l0.275 -3.117l-1.574 -3.876l2.39 -1.854l3.061 1.229l3.699 5.11l5.265 -0.972l-1.678 -1.124l-0.223 -5.119l-3.545 -1.509l-2.084 0.372l-1.618 -2.834l-2.694 0.749l-2.05 -0.848l-2.45 1.229l0.352 -2.114l-2.625 0.991l1.379 -2.812l-1.281 -4.35l-2.894 2.934l-4.259 -0.041l1.727 -0.559l-0.302 -3.333l-1.528 -3.561l1.586 -0.233l-2.555 -4.188l2.552 -5.858l-0.065 -4.352l-1.213 -3.216l0.654 -1.705l-1.193 -3.553l-71.94 0.822l-0.124 16.876z" />
  </g>
  <g data-id="035">
    <path d="m681.841 716.661l-0.299 10.891l16.312 0.376l13.57 0.285l11.775 1.29l7.64 0.449l34.918 0.262l0.206 -13.376l-2.769 -0.037l0.175 -8.127l-2.746 -0.13l0.22 -8.166l-2.696 -0.056l0.027 -2.815l0.038 -2.682l-2.689 -0.006l0.182 -9.219l-7.464 -0.148l-27.699 -0.612l0.135 -8.219l-5.442 -0.572l-2.678 0.888l-7.335 0.357l-5.637 1.336l-16.894 0.088l-0.851 37.944z" />
  </g>
  <g data-id="037">
    <path d="m174.061 413.93l-0.025 1.062l27.688 0.712l17.354 0.457l2.196 2.414l2.213 -0.529l3.831 2.213l4.623 -1.722l2.139 2.357l3.797 -0.5l1.883 0.749l6.191 -1.603l6.945 -0.402l3.1 1.692l-0.316 -3.621l0.525 -19.406l-8.291 -0.255l0.255 -8.347l0.233 -8.294l-1.942 -0.066l1.539 -34.053l-22.297 -0.36l-16.185 -0.57l-3.512 -0.155l-13.569 -0.558l-6 -0.378l-11.676 -0.679l0.061 3.778l-0.062 3.171l-0.203 13.186l-0.331 20.545l0.021 1.989l-0.066 3.018l0.003 5.583l-0.04 5.81l-0.046 5.947l-0.027 5.19l-0.012 1.393z" />
  </g>
  <g data-id="039">
    <path d="m254.826 574.396l-0.279 10.996l68.808 1.679l0.333 -11.011l0.647 -20.978l-3.438 -0.104l0.404 -10.384l0.2 -6.131l-27.412 -0.974l0.367 -11.03l-38.455 -1.572l-1.148 27.552l0.034 19.21l-0.061 2.747z" />
  </g>
  <g data-id="041">
    <path d="m372.593 182.57l0.586 5.953l3.3 5.481l-2.503 1.482l1.193 3.553l-0.654 1.705l1.213 3.216l0.065 4.352l-2.552 5.858l2.555 4.188l-1.586 0.233l1.528 3.561l0.302 3.333l-1.727 0.559l4.259 0.041l2.894 -2.934l1.281 4.35l-1.379 2.812l2.625 -0.991l-0.352 2.114l2.45 -1.229l2.05 0.848l2.694 -0.749l1.618 2.834l2.084 -0.372l3.545 1.509l0.223 5.119l1.678 1.124l3.624 2.307l1.105 7.019l4.218 3.457l3.143 0.881l7.036 -0.458l2.547 0.572l0.978 2.724l-0.855 2.984l1.734 2.505l3.563 1.3l1.221 1.934l-0.615 4.209l1.184 1.483l2.318 0.396l4.638 -2.709l2.398 1.873l8.816 -22.714l12.433 4.255l0.514 -16.752l0.04 -1.282l1.048 -37.671l1.1 -17.39l-25.254 -0.368l-15.279 -0.422l-18.333 -0.889l-27.661 0.614l-3.05 4.193z" />
  </g>
  <g data-id="043">
    <path d="m324.423 676.472l-0.184 19.208l21.672 0.369l19.173 0.253l-0.688 32.819l5.645 0.081l11.732 0.266l11.862 0.304l35.579 0.869l0.908 -49.004l0.053 -2.736l-13.587 -0.459l-10.732 -0.193l-16.163 -0.411l-13.603 -0.538l-5.044 -0.131l-4.141 -0.038l-9.632 -0.157l-10.983 -0.165l-21.867 -0.335z" />
  </g>
  <g data-id="045">
    <path d="m572.953 61.581l-0.16 8.565l67.939 1.658l1.01 -2.107l0 -1.044l-0.354 -1.003l-0.025 -1.048l0.478 -2.118l0.568 -1.449l2.135 -4.697l0.782 -3.364l0.669 -1.563l1.483 -2.212l0.659 -1.073l1.273 -1.463l1.483 -0.75l1.501 -1.549l-3.269 -1.571l-3.576 0.196l-2.905 0.267l-0.613 -3.168l-1.422 -0.377l-1.075 -0.312l-1.306 -0.989l-1.249 -0.219l-0.708 -1.385l0.849 -1.928l0.338 -1.247l-1.498 -0.285l-0.661 -1.285l1.114 -1.147l0.455 -1.107l-0.303 -1.101l-2.801 -0.06l-1.334 -0.122l-1.671 -0.437l-1.633 -0.92l-0.84 -1.054l-0.444 -1.595l-0.535 -1.598l-1.162 -1.529l-2.053 -0.993l-1.288 -0.936l-0.66 -1.04l-0.126 -1.373l0.51 -1.822l0.115 -1.526l-0.306 -1.338l-2.697 -0.931l-2.436 -0.719l-2.494 -0.345l-1.606 -0.414l-1.046 -0.859l-0.428 -1.475l0.874 -2.35l-0.464 -1.307l-1.129 -0.935l-2.347 -1.361l-1.204 -1.278l-1.357 -2.39l-8.508 0.425l-1.417 0.076l-2.785 0.113l-1.626 0.066l-1.147 0.078l-5.381 0.343l-10.619 0.377l-1.566 60.104z" />
  </g>
  <g data-id="047">
    <path d="m174.909 291.636l-0.048 1.151l1.438 0.711l2.836 -1.489l1.917 -1.096l2.465 -1.496l2.075 -2.714l2.222 -0.825l5.433 0.718l3.449 4.853l2.591 -1.667l6.399 -7.304l-1.056 -5.175l2.686 -0.079l3.477 5.933l4.834 -3.869l3.017 -6.958l3.638 -3.4l5.297 0.135l6.427 5.633l0.176 -36.499l0.03 -2.251l0.075 -9.199l-37.857 -0.145l-19.869 -0.085l-0.718 16.46l0.007 7.297l0.057 8.492l-0.044 4.236l-0.043 4.073l-0.022 9.791l-0.053 3.116l-0.04 3.889l1.468 0.889l0.3 2.82l-1.573 2.298l-0.794 1.216z" />
  </g>
  <g data-id="049">
    <path d="m175.625 169.879l0.02 25.388l0.136 16.827l0.026 11.6l0.033 2.767l20.588 0.141l37.857 0.145l0.332 -14.076l0.369 -42.528l-59.363 -0.264z" />
  </g>
  <g data-id="051">
    <path d="m500.903 386.356l-9.653 38.157l13.736 0.478l-0.737 16.049l11.9 0.773l6.663 -0.045l5.138 2.83l3.82 -2.486l4.524 0.038l0.194 -6.743l8.957 -2.632l2.757 -3.312l-1.468 -3.441l-3.672 -2.145l-2.691 -6.176l-0.015 -1.195l2.361 -0.972l5.291 3.29l5.143 -1.469l5.76 -0.235l3.436 -1.877l1.776 -4.545l-2.469 -4.612l-0.101 -5.341l3.349 -1.579l-0.821 -2.038l-7.866 2.561l-7.158 -0.747l-4.288 -1.461l-4.707 -2.415l-4.968 -4.463l-0.339 -4.856l-2.383 -2.471l-1.309 -0.549l-3.314 0.352l-6.268 -4.292l-10.117 -2.933l2.643 -4.457l-2.539 -4.811l-5.19 -1.728l-5.361 21.444z" />
  </g>
  <g data-id="053">
    <path d="m408.075 328.494l-1.426 45.207l16.397 1.402l16.578 0.345l16.949 -0.02l16.409 0.78l0.046 -1.523l0.028 -1.251l15.52 -38.655l2.197 -5.1l-1.54 -2.046l-7.404 -7.316l-5.399 0.608l-10.74 -1.676l-4.071 0.054l-3.391 -1.552l-11.409 2.306l-9.11 -1.954l-3.508 -3.595l-5.757 -3.923l-3.01 -8.362l-17.062 17.762l-0.297 8.508z" />
  </g>
  <g data-id="055">
    <path d="m635.063 465.916l0.109 11.126l1.402 0.03l-0.565 69.06l33.027 0.342l-0.351 16.507l23.564 0.513l1.022 -8.232l6.966 0.151l0.549 -24.803l0.236 -16.528l-0.148 -46.851l-40.387 0.003l-0.314 -1.082l-25.11 -0.235z" />
  </g>
  <g data-id="057">
    <path d="m253.543 629.229l-0.262 11.008l4.721 0.146l63.882 1.519l0.703 -27.402l0.767 -27.428l-68.808 -1.679l-1.003 43.836z" />
  </g>
  <g data-id="059">
    <path d="m387.484 543.526l-0.519 13.781l2.726 0.067l-1.394 59.053l16.344 0.418l0.269 -13.671l32.67 0.656l1.079 -44.823l-2.042 -0.038l0.269 -19.364l0.409 -13.72l-32.515 -1.308l-16.507 -0.305l-0.789 19.255z" />
  </g>
  <g data-id="061">
    <path d="m233.379 93.794l-0.315 19.92l2.298 0.068l-0.358 47.96l16.873 0.605l50.063 0.23l-0.447 -34.132l-0.307 -33.921l-67.808 -0.728z" />
  </g>
  <g data-id="063">
    <path d="m175.157 112.866l0.382 42.84l0.086 14.173l59.363 0.264l0.018 -8.402l0.358 -47.96l-2.298 -0.068l-16.652 -0.855l-41.255 0.007z" />
  </g>
  <g data-id="065">
    <path d="m594.453 545.697l-0.432 36.427l8.135 0.018l-0.037 32.982l16.24 0.26l65.125 1.406l0.132 -16.348l-15.466 -0.608l0.266 -16.568l15.432 0.759l8.143 0.136l0.259 -20.667l-23.564 -0.513l0.351 -16.507l-33.027 -0.342l-30.738 -0.392l-10.818 -0.043z" />
  </g>
  <g data-id="067">
    <path d="m430.121 681.636l-0.908 49.004l21.64 0.576l97.744 2.22l2.451 0.041l1.09 -49.137l-24.364 -0.639l-65.086 -1.389l-20.792 -0.305l-11.774 -0.371z" />
  </g>
  <g data-id="069">
    <path d="m808.407 882.042l1.374 -0.024l3.91 -0.015l7.526 -0.093l20.007 -0.181l4.716 -0.048l3.519 -0.094l19.665 -0.158l1.084 0.034l0.78 -35.595l-0.178 -36.792l-1.673 -0.148l2.255 -13.136l-0.212 -8.418l0.744 -7.512l-1.41 -14.892l-26.16 -1.071l-1.568 0.104l-1.145 2.516l-1.875 0.41l-1.102 4.15l-1.664 1.045l0.632 4.732l-0.89 3.197l-3.177 0.483l0.074 2.221l-1.57 1.508l-0.118 4.505l4.012 0.006l6.211 -0.024l-1.151 3.094l2.681 1.715l0.13 2.284l1.088 4.334l-1.439 2.266l1.903 1.743l3.227 2.047l4.354 0.616l2.141 2.697l0.391 5.462l-2.078 2.959l-0.386 4.162l2.397 2.896l-2.221 2.693l-0.738 3.013l-4.672 1.252l-1.653 4.12l-0.061 2.609l-2.378 0.343l-2.05 2.497l-4.033 1.665l-2.655 2.399l-1.377 1.889l-1.595 -0.512l-2.239 4.752l-0.032 3.651l-2.998 2.298l-3.464 1.795l-2.362 0.826l-0.812 2.728l-2.885 1.531l0.101 2.681l-2.212 1.484l-0.911 3.778l-1.793 3.748l-3.982 5.777z" />
  </g>
  <g data-id="071">
    <path d="m659.917 372.502l-0.004 1.878l0.218 48.837l0.33 21.5l-0.287 21.434l0.314 1.082l40.387 -0.003l15.897 -0.04l2.914 -0.456l11.194 0.334l17.267 0.157l2.604 -17.441l1.079 -6.587l0.929 -5.374l1.768 -11.028l0.193 -9.705l0.026 -2.003l0.339 -13.751l0.247 -13.879l-0.015 -3.438l-1.511 0.909l-1.242 1.814l-0.807 2.643l-2.626 3.201l-5.897 1.737l-5.52 4.464l-6.753 4.079l-4.251 1.308l-6.165 -2.568l-4.187 -1.452l-2.286 -1.411l-2.061 -2.113l-1.632 -3.827l-3.531 -2.832l-3.209 -0.206l-5.331 1.866l-2.94 0.254l-7.553 -1.843l-6.529 -2.621l-0.158 -4.106l-1.471 -2.299l-3.354 -2.232l-7.981 -7.698l-4.282 1.785l-4.121 -0.366z" />
  </g>
  <g data-id="073">
    <path d="m618.643 451.127l-0.025 25.708l2.148 0.03l14.406 0.176l-0.109 -11.126l25.11 0.235l0.287 -21.434l-0.33 -21.5l-0.097 -48.572l-0.117 -2.143l-4.214 -1.751l-3.192 -0.256l-3.626 0.114l-2.21 0.559l-2.207 -0.26l-1.912 -1.092l-1.712 0.738l-0.88 1.265l-0.029 1.511l-6.672 3.568l-6.07 -1.109l-7.895 -4.147l-0.414 45.706l-0.063 5.271l-0.176 28.506z" />
  </g>
  <g data-id="075">
    <path d="m175.073 95.851l-0.092 15.904l0.176 1.112l41.255 -0.007l16.652 0.855l0.315 -19.92l0.362 -48.608l-57.552 -0.484l-1.117 51.148z" />
  </g>
  <g data-id="077">
    <path d="m322.588 614.499l-0.703 27.402l3.108 0.1l-0.57 34.472l21.867 0.335l10.983 0.165l9.632 0.157l4.141 0.038l5.044 0.131l13.603 0.538l16.163 0.411l0.469 -27.522l0.09 -6.533l-2.283 -0.039l0.509 -27.31l-16.344 -0.418l-10.269 -0.313l-27.889 -0.885l-27.55 -0.73z" />
  </g>
  <g data-id="079">
    <path d="m301.291 68.816l-0.104 25.706l0.307 33.921l3.164 0.139l56.756 -1.713l0.001 -12.806l-0.789 -45.704l-59.335 0.457z" />
  </g>
  <g data-id="081">
    <path d="m231.051 8.232l0.101 20.011l2.538 -0.021l0.051 16.964l-0.362 48.608l67.808 0.728l0.104 -25.706l-0.225 -40.998l-1.457 0.032l0.031 -20.738l-6.163 0.06l-3.811 0.096l-1.906 0.036l-6.691 0.117l-2.342 0.067l-3.254 0.067l-4.22 0.113l-1.933 0.023l-5.801 0.142l-2.792 0.065l-6.904 0.135l-1.344 0.018l-21.427 0.177z" />
  </g>
  <g data-id="083">
    <path d="m255.746 429.272l-1.174 35.972l3.793 0.099l73.831 2.461l-1.875 -3.407l1.872 -0.139l3.048 2.672l1.977 -0.297l0.783 -21.859l0.944 -23.891l-0.118 -12.564l0.257 -8.375l-82.879 -2.14l-0.525 19.406l0.316 3.621l-0.25 8.442z" />
  </g>
  <g data-id="085">
    <path d="m329.77 538.729l-0.135 2.787l57.848 2.01l0.789 -19.255l16.507 0.305l1.086 -30.379l-65.721 -2.025l-1.222 30.333l-8.479 -0.263l-0.673 16.487z" />
  </g>
  <g data-id="087">
    <path d="m32.938 68.723l1.147 1.059l3.78 1.883l3.245 -0.032l1.487 0.13l1.132 0.529l1.532 2l0.329 1.032l0.044 1.827l-0.511 1.574l-1.326 2.513l-0.033 1.644l0.502 1.3l1.219 1.714l1.544 1.517l2.686 1.159l1.198 1.42l0.216 1.941l0.352 1.509l0.935 1.106l2.292 0.532l1.62 0.712l0.797 1.412l0.043 1.574l-0.612 1.173l-1.564 1.401l-0.457 1.273l0.21 1.442l-0.092 1.927l-1.272 1.529l-0.493 1.479l0.348 2.057l0.374 1.019l1.433 1.98l1.708 0.993l1.298 0.248l3.477 -0.925l1.065 -0.005l1.213 0.435l1.878 1.994l1.16 0.674l1.571 0.477l1.026 1.058l0.404 1.097l0.01 1.649l0.883 1.838l1.916 1.3l2.241 1.093l1.933 2.247l0.629 1.12l1.108 1.22l1.329 0.722l1.538 0.228l1.633 -0.127l2.364 1.072l0.56 2.109l-0.198 1.117l-0.559 1.42l-0.068 1.096l0.638 1.074l1.217 0.656l2.152 0.123l1.072 -0.383l1.867 -0.968l1.525 0.202l1.063 1.554l-0.126 1.686l0.42 1.497l1.863 1.468l3.334 0.976l2.36 1.176l1.292 0.277l4.344 -0.518l1.557 -0.084l1.511 -0.689l0.993 -1.635l-0.079 -1.959l1.079 -2.074l1.543 -0.63l2.251 0.547l0.003 -3.366l-1.956 -1.408l2.642 -4.004l-0.872 -5.714l-1.532 -1.47l-1.047 -7.018l1.137 -2.337l-0.941 -3.8l-3.514 -0.408l-1.291 -2.66l-2.709 -1.453l2.579 -1.68l-0.118 -4.642l1.602 -1.286l-1.422 -4.188l-3.383 -4.09l0.752 -4.069l-1.93 -4.668l1.45 -2.025l-0.168 -7.99l-1.008 -2.801l-16.314 -0.166l-56.053 -0.541z" />
  </g>
  <g data-id="089">
    <path d="m424.043 291.185l-0.207 2.828l1.675 1.498l3.757 0.73l0.241 2.189l-4.075 3.793l3.01 8.362l5.757 3.923l3.508 3.595l9.11 1.954l11.409 -2.306l3.391 1.552l4.071 -0.054l10.74 1.676l5.399 -0.608l-1.801 -1.602l2.056 -1.279l-1.309 -2.434l7.725 -17.461l12.481 -30.911l-19.368 -6.612l-1.349 -0.456l-20.796 -7.025l-12.433 -4.255l-8.816 22.714l-1.664 4.862l-4.525 3.999l-2.136 2.748l-0.19 3.577l-2.478 3.254l-3.181 1.748z" />
  </g>
  <g data-id="091">
    <path d="m547.388 788.581l3.304 0.011l3.508 0.008l2.66 0.017l4.244 0.005l1.419 0.022l4.587 0.005l18.388 -0.054l8.99 -0.038l3.185 -0.017l2.786 -0.007l5.909 -0.018l5.849 -0.035l2.288 -0.013l0.049 -19.906l-0.946 -3.517l0.614 -30.413l2.13 0.056l0.286 -18.94l0.265 -13.473l0.11 -16.562l-21.545 -0.206l-27.156 -1.054l-16.174 -0.114l-1.09 49.137l-2.451 -0.041l-1.209 55.145z" />
  </g>
  <g data-id="093">
    <path d="m692.249 563.493l-0.259 20.667l2.739 -0.01l5.411 0.072l17.018 -3.042l29.376 0.328l3.333 -0.169l-0.637 43.297l3.48 0.163l-0.585 19.341l2.722 -0.174l11.036 -0.702l2.848 0.48l13.805 -0.074l0.131 -8.471l0.348 -52.991l1.837 0.002l0.019 -8.556l-16.905 0.157l0.41 -17.415l-17.498 -0.449l-16.804 0.566l-10.942 -0.732l-22.894 -0.37l-6.966 -0.151l-1.022 8.232z" />
  </g>
  <g data-id="095">
    <path d="m174.715 318.176l0.019 4.831l0.011 2.836l0.023 1.323l-0.006 7.02l-0.001 1.487l-0.001 1.373l0 2.809l0 1.539l0 1.193l0 1.5l11.676 0.679l6 0.378l13.569 0.558l3.512 0.155l15.504 0.569l22.978 0.361l0.765 -14.408l-0.028 -1.78l0.477 -13.152l0.062 -2.264l0.086 -3.402l0.279 -9.13l0.207 -5.668l0.291 -10.002l-4.32 -5.357l-6.938 -1.46l-1.079 -0.877l2.5 -5.601l-6.294 1.01l-6.427 -5.633l-5.297 -0.135l-3.638 3.4l-3.017 6.958l-4.834 3.869l-3.477 -5.933l-2.686 0.079l1.056 5.175l-6.399 7.304l-2.591 1.667l-3.449 -4.853l-5.433 -0.718l-2.222 0.825l-2.075 2.714l-2.27 1.436l-2.112 1.156l-2.836 1.489l-1.438 -0.711l0.018 4.581l-0.015 1.546l0.015 3.087l-0.041 4.063l-0.072 7.091l-0.051 5.022z" />
  </g>
  <g data-id="097">
    <path d="m173.191 660.87l0.005 1.204l0.018 2.739l0.042 5.236l-0.021 3.603l0.009 1.728l0.014 1.37l-0.003 1.923l0.015 2.133l0.016 3.431l6.218 0.122l1.792 0.057l17.817 0.219l2.869 0.041l1.617 0.024l1.502 0.017l16.489 0.189l35.38 0.959l1.033 -45.482l-4.721 -0.146l0.262 -11.008l-80.208 -2.803l-0.015 4.852l-0.002 2.794l-0.064 15.655l-0.007 2.089l-0.008 1.753l-0.006 2.303l-0.014 2.461l-0.001 1.112l-0.028 1.427z" />
  </g>
  <g data-id="099">
    <path d="m750.75 449.783l-2.604 17.441l14.797 19.322l-0.472 3.116l6.676 1.858l1.186 0.447l3.004 0.878l-1.423 5.56l1.306 4.652l-2.291 1.55l6.705 0.807l25.061 -7.381l12.977 -9.902l5.002 1.214l2.149 -2.934l4.748 -2.115l-0.406 -2.535l-3.335 -5.676l-1.223 -1.302l-1.15 -1.144l-1.457 -0.913l-1.519 -0.634l-1.756 -0.575l-1.378 -1.141l-3.348 -5.008l-0.848 -2.034l-0.654 -2.256l-0.462 -2.613l-0.112 -1.097l-0.469 -2.219l-0.146 -1.237l-0.309 -1.513l0.016 -2.405l0.315 -1.89l-0.12 -3.627l0.255 -1.948l0.389 -1.28l1.783 -3.839l0.985 -3.297l0.938 -1.415l-0.698 -4.182l0.154 -5.555l1.599 -3.447l-6.043 0.212l-5.636 -0.785l-1.172 -5.049l1.156 0.486l1.386 -3.891l-9.126 -0.126l-3.776 0.119l-3.165 -0.051l-11.774 -0.038l-1.727 4.217l-1.653 1.586l-2.987 -2.76l-3.027 -0.344l-1.03 1.598l0.946 4.216l-3.653 2.157l-2.584 -4.854l-5.393 -2.086l-0.641 2.968l-0.193 9.705l-1.768 11.028l-0.929 5.374l-1.079 6.587z" />
  </g>
  <g data-id="101">
    <path d="m247.999 346.789l-1.539 34.053l1.942 0.066l-0.233 8.294l-0.255 8.347l8.291 0.255l82.879 2.14l0.69 -23.654l0.138 -2.791l0.697 -13.932l0.136 -2.788l0.93 -20.577l-0.731 -2.136l0.2 -5.608l-50.546 -1.825l-0.24 5.622l-16.081 -0.708l-23.534 -0.946l-2.005 -0.001l0.028 1.78l-0.765 14.408z" />
  </g>
  <g data-id="103">
    <path d="m513.327 61.204l0.202 17.051l0.208 35.004l0.053 16.407l8.512 0.158l50.204 0.599l0.822 -51.758l-0.535 -8.518l0.16 -8.565l-59.626 -0.378z" />
  </g>
  <g data-id="105">
    <path d="m436.886 539.604l-0.269 19.364l2.042 0.038l-1.079 44.823l24.987 0.458l19.124 0.531l45.947 1.093l0.419 -24.86l0.09 -8.303l-8.263 -4.202l-16.423 -8.195l0.59 -25.22l0.074 -2.308l-1.531 -0.11l-4.495 4.629l-0.455 2.1l-4.173 -0.898l-3.163 0.243l-1.832 2.991l-2.694 0.156l-2.606 2.01l-2.286 -1.005l-0.956 -3.183l-4.398 -3.359l0.075 -2.257l-2.262 -2.144l-0.824 -5.5l-35.232 -0.61l-0.409 13.72z" />
  </g>
  <g data-id="107">
    <path d="m249.213 317.448l-0.477 13.152l2.005 0.001l23.534 0.946l16.081 0.708l0.24 -5.622l50.546 1.825l0.135 -2.774l2.868 -67.567l-2.215 1.908l-0.63 3.492l1.29 5.136l-0.651 2.877l-3.61 1.58l-6.513 -0.678l-3.806 -4.184l-6.502 -0.529l-3.32 -0.977l-1.704 2.404l-2.95 0.879l-2.776 4.167l-1.66 0.662l-4.156 -0.656l-2.922 0.509l-4.498 1.158l-4.497 -2.441l-3.241 -0.35l-5.254 2.201l-3.625 3.777l-4.256 0.03l-1.829 0.907l-1.244 5.222l-1.919 1.757l-4.155 -1.781l0.829 -3.04l3.105 -2.813l0.128 -1.746l-2.743 -2.659l-7.3 2.76l-1.034 2.604l1.726 4.557l-5.731 3.912l-3.696 -0.244l-2.65 -1.538l-0.291 10.002l-0.207 5.668l-0.279 9.13l-0.08 3.188l-0.068 2.478z" />
  </g>
  <g data-id="109">
    <path d="m256.497 704.945l-0.056 2.74l8.109 0.199l59.558 1.477l0.131 -13.681l0.184 -19.208l0.57 -34.472l-3.108 -0.1l-63.882 -1.519l-1.033 45.482l-0.28 10.933l-0.192 8.147z" />
  </g>
  <g data-id="111">
    <path d="m573.329 78.665l-0.822 51.758l16.833 0.233l60.648 0.578l-0.912 -1.177l-0.85 -1.603l-0.385 -1.129l-0.725 -1.178l-0.63 -1.507l-1.173 -1.61l-0.385 -1.578l-1.206 -2.672l-1.014 -2.022l-1.619 -3.349l0.79 -4.106l-0.863 -2.645l-0.344 -1.43l-0.473 -2.486l-0.776 -3.362l-0.485 -2.693l-0.161 -1.199l-0.214 -3.742l0.513 -1.81l-0.544 -2.766l-0.168 -1.587l0.301 -2.011l0.836 -1.336l-0.176 -1.795l-0.043 -2.117l0.399 -1.716l-0.001 -1.454l-0.231 -1.398l0.745 -1.351l-67.401 -2.255l-0.127 8.488z" />
  </g>
  <g data-id="113">
    <path d="m676.238 287.688l-0.607 28.377l11.369 0.12l-0.144 11.557l11.858 0.048l-0.159 11.393l5.62 -0.006l17.255 0.36l0.312 -4.483l1.369 0.132l0.743 1.003l1.085 0.244l1.092 -0.08l1.053 0.003l8.476 -0.081l6.949 2.283l1.535 -0.326l0.245 -4.633l0.229 -1.811l3.926 -2.185l3.61 0.335l1.202 -1.529l5.683 5.024l0.124 -3.638l3.527 1.06l-1.532 -3.442l4.259 -0.065l-0.548 -2.692l-1.007 -2.69l-0.067 -4.23l-0.269 -1.495l-0.58 -1.335l-0.846 -1.272l-0.342 -1.31l-1.587 -3.259l-1.092 -2.543l-0.86 -2.26l1.722 -2.237l0.256 -1.2l2.648 -3.196l0.248 -2.363l-0.514 -2.505l-0.471 -1.229l-1.091 -1.882l-0.827 -1.112l-0.704 -1.489l-0.41 -1.489l-0.307 -4.262l-0.662 -2.393l-0.454 -2.34l-0.003 -1.039l0.124 -1.474l-0.784 -2.647l-69.071 -0.604l-0.188 9.305l-0.185 7.704l-11.205 -0.122z" />
  </g>
  <g data-id="115">
    <path d="m361.215 143.961l-0.229 34.369l14.656 0.047l27.661 -0.614l18.333 0.889l15.279 0.422l1.564 -65.833l-1.305 0.009l-1.322 0.09l-5.222 0.032l-69.216 0.69l-0.001 12.806l-0.199 17.091z" />
  </g>
  <g data-id="117">
    <path d="m301.494 128.444l0.447 34.132l0.095 33.732l71.94 -0.822l2.503 -1.482l-3.3 -5.481l-0.586 -5.953l3.05 -4.193l-14.656 -0.047l0.229 -34.369l0.293 -16.264l-56.85 0.886l-3.164 -0.139z" />
  </g>
  <g data-id="119">
    <path d="m173.221 738.611l0.027 12.175l0.016 5.976l0.032 10.609l-0.007 1.074l0.002 1.443l0.006 3.99l-0.003 1.683l-0.01 5.916l0.002 3.575l-0.005 3.426l8.782 -0.015l5.964 0.053l23.709 -0.072l13.769 0.069l13.162 0.066l10.477 0.052l1.681 -0.013l3.469 -0.011l1.414 -44.725l-0.187 -1.765l-82.298 -3.504z" />
  </g>
  <g data-id="121">
    <path d="m438.479 113.241l-1.564 65.833l25.254 0.368l-0.422 17.088l58.611 0.956l1.946 -67.662l-8.512 -0.158l-0.053 -16.407l-49.225 -0.166l-26.033 0.148z" />
  </g>
  <g data-id="123">
    <path d="m783.015 582.209l-0.348 52.991l30.481 0.568l16.46 -0.327l2.801 0.254l10.779 0.542l1.073 -43.219l-1.232 -10.624l-0.002 -8.356l-45.956 -0.215l-9.464 0.016l-2.735 -0.185l-0.019 8.556l-1.837 -0.002z" />
  </g>
  <g data-id="125">
    <path d="m535.864 470.044l-0.063 5.293l2.457 0.057l-0.599 27.578l24.597 1.084l5.445 0.193l2.768 -0.012l2.031 -5.897l1.685 -0.114l0.941 1.982l5.977 -3.867l21.271 -0.389l18.112 0.436l0.281 -19.524l-2.148 -0.03l0.025 -25.708l-16.865 -0.04l-2.7 -0.634l-13.148 -0.299l-3.126 0.708l-21.079 0.22l-25.61 -0.667l-0.251 19.629z" />
  </g>
  <g data-id="127">
    <path d="m589.34 130.655l-0.957 56.49l19.697 0.169l-0.037 -5.614l61.238 0.314l-1.668 -1.501l-2.066 -1.527l-2.052 -1.746l-1.116 -1.144l-2.248 -2.678l-0.33 -3.119l0.382 -1.722l0.225 -2.158l0.032 -1.94l0.592 -1.982l-0.255 -1.506l-0.677 -1.482l-1.076 -1.649l-1.592 -1.306l-1.81 -1.086l-1.254 -1.043l-1.242 -0.685l-2.248 -1.525l-0.978 -1.504l-1.548 -4.856l-0.219 -1.475l0.649 -3.051l2.181 -2.762l1.21 -1.394l0.31 -1.418l-0.083 -1.092l-0.37 -1.027l-1.082 -1.517l-61.61 -1.464z" />
  </g>
  <g data-id="129">
    <path d="m299.641 7.113l-0.031 20.738l1.457 -0.032l0.225 40.998l59.335 -0.457l0.042 -22.926l0.011 -17.419l-1.196 -0.137l0.068 -21.308l-10.093 0.083l-3.525 -0.049l-8.812 -0.063l-3.619 0.013l-1.29 0.035l-1.249 0.018l-4.81 0.127l-8.817 0.226l-1.893 0.021l-1.236 0.022l-1.982 0.05l-4.81 0.046l-2.22 0.02l-1.942 -0.035l-2.997 0.021z" />
  </g>
  <g data-id="131">
    <path d="m462.093 439.679l-0.907 24.129l3.041 1.754l5.318 -0.038l-0.195 7.89l5.498 0.171l1.245 5.895l-0.058 5.528l1.359 0.022l-0.044 2.761l2.742 0.038l-0.082 5.074l2.718 0.559l-0.045 2.7l2.82 0.064l-0.051 2.728l2.743 0.101l-0.06 2.776l16.433 0.22l33.09 0.92l0.599 -27.578l-2.457 -0.057l0.063 -5.293l0.251 -19.629l0.18 -8.266l-4.524 -0.038l-3.82 2.486l-5.138 -2.83l-6.663 0.045l-11.9 -0.773l0.737 -16.049l-13.736 -0.478l-5.493 -0.137l-13.981 -0.426l-1.283 15.804l-8.4 -0.074z" />
  </g>
  <g data-id="133">
    <path d="m936.942 719.328l0.016 4.066l2.638 -0.002l0.007 2.827l2.832 0.045l2.983 8.165l2.638 -0.073l-0.041 4.052l1.348 -0.056l1.339 4.005l4.082 3.09l1.384 5.061l2.654 -0.007l1.41 5.405l2.718 1.35l0.033 2.795l2.77 1.279l-0.017 2.385l1.413 1.331l2.494 3.904l1.028 1.942l2.352 2.99l1.082 1.177l1.755 1.163l3.513 -0.313l1.382 -0.476l1.479 -1.265l2.223 -4.742l0.255 -3.098l0.265 -1.395l0.988 -1.932l1.381 -1.623l1.285 -1.068l1.519 -1.815l0.827 -1.162l-1.444 -1.035l0.115 -1.176l-0.008 -1.368l-1.022 -1.577l-1.426 -1.36l-1.75 -2.014l-0.703 -1.518l-0.047 -1.052l0.187 -1.578l1.235 -2.43l1.053 -1.2l2.31 -1.091l1.815 0.655l2.198 0.112l1.018 0.638l1.406 0.041l1.039 -1.508l0.395 -1.45l-0.043 -1.505l-0.538 -1.209l-1.271 -1.049l-2.289 -0.126l-1.75 -0.145l-1.883 -1.205l-0.989 -1.553l-0.553 -1.133l0.026 -1.24l-0.047 -2.772l0.819 -1.579l2.09 -0.505l1.767 -0.87l1.454 -0.038l0.903 -1.888l0.785 -2.74l1.032 -2.007l1.563 -6.982l1.085 -3.577l0.493 -3.504l-0.113 -1.254l-1.483 -2.254l-1.319 -0.997l-1.014 -0.304l-1.175 0.271l-1.183 0.495l-1.359 0.334l-1.78 0.913l-1.234 0.463l-1.083 -0.11l-1.237 -0.494l-0.99 -1.214l-0.441 -1.833l0.001 -1.929l-0.518 -2.189l-0.981 -1.561l-3.062 -2.07l-1.284 -1.163l-0.629 -1.046l-1.108 -2.802l-1.39 -2.671l-0.75 1.491l-3.061 -0.216l-2.047 -0.398l-2.051 -0.433l-0.463 2.207l0.512 1.401l0.903 1.023l1.525 0.858l2.018 0.801l1.712 1.399l0.941 1.012l0.359 1.462l-0.887 2.897l-0.905 1.247l-1.358 0.887l-2.023 -0.66l-3.073 -3.162l-5.163 -0.027l-0.016 1.348l-4.104 1.447l-0.068 5.502l-5.426 0.03l-0.001 2.747l-2.786 -0.009l-0.007 2.731l-5.309 -0.022l0.035 5.525l-5.471 -0.004l0.025 5.456l-2.74 1.407z" />
  </g>
  <g data-id="135">
    <path d="m439.624 375.448l-0.305 16.72l32.458 31.782l13.981 0.426l5.493 0.137l9.653 -38.157l5.374 -21.496l-2.178 -4.83l3.959 -4.89l0.251 -3.653l-2.387 -2.134l-2.941 0.185l-4.192 -3.745l-1.777 -4.217l-3.157 -2.662l0.53 -5.29l-0.744 -1.209l-2.869 -2.735l-2.197 5.1l-15.52 38.655l-0.028 1.251l-0.046 1.523l-16.409 -0.78l-16.1 -0.145z" />
  </g>
  <g data-id="137">
    <path d="m519.247 238.885l-0.261 8.583l33.214 1.378l55.473 0.302l0.904 -50.446l-0.613 -2.839l0.117 -8.548l-19.697 -0.169l-50.667 -0.86l-0.231 10.664l-16.895 0.537l-1.343 41.398z" />
  </g>
  <g data-id="139">
    <path d="m618.277 371.721l1.018 -0.076l7.895 4.147l6.07 1.109l6.672 -3.568l0.029 -1.511l0.88 -1.265l1.712 -0.738l1.912 1.092l2.927 -0.338l1.49 0.039l3.626 -0.114l0.42 -26.04l11.531 0.148l5.536 -0.254l5.537 0.388l0.096 -28.673l0.607 -28.377l-22.289 -0.521l-33.039 -1.026l-0.659 17.14l-1.973 68.438z" />
  </g>
  <g data-id="141">
    <path d="m404.292 448.024l-0.298 7.953l3.15 -1.649l2.126 1.251l4.304 4.524l1.212 3.577l2.914 0.358l-0.314 1.983l-3.557 0.039l-1.533 2.208l1.092 1.69l3.758 0.267l1.55 -1.784l2.841 -5.838l4.284 1.55l-0.404 1.735l-4.239 2.65l23.373 1.157l6.354 0.293l1.281 -4.355l3.682 -1.739l5.321 -0.084l0.907 -24.129l8.4 0.074l0.534 -15.838l-31.709 -31.748l0.305 -16.72l-16.578 -0.345l-16.397 -1.402l-0.521 13.858l-0.575 17.405l-0.713 16.787l-0.547 26.273z" />
  </g>
  <g data-id="143">
    <path d="m869.135 808.927l1.673 0.148l7.173 0.438l24.159 0.01l1.045 -5.96l1.99 -1.716l5.406 2.094l2.818 2.865l5.579 0.039l4.302 -1.94l2.804 1.379l1.285 3.866l3.071 2.976l2.716 1.309l0.012 4.312l1.038 -0.128l1.655 -0.777l1.202 -1.287l0.872 -2.101l0.518 -2.554l-0.634 -2.096l-1.698 -2.895l-2.553 -3.659l-0.437 -1.299l0.029 -1.459l0.628 -1.237l2.036 -1.86l0.936 -1.936l0.228 -2.512l-0.475 -1.096l-1.775 -1.887l-0.705 -1.212l-0.558 -1.309l-1.703 -2.249l-0.902 -1.568l-0.818 -2.154l-0.639 -1.379l-0.215 -1.525l0.255 -1.035l0.448 -1.137l1.307 -1.734l1.794 -1.207l2.775 -0.216l1.331 0.456l2.79 0.446l2.283 0.836l1.723 2.22l0.836 2.437l0.347 1.992l-0.066 1.159l-0.416 1.613l-0.568 1.407l-0.708 1.243l-1.234 1.785l-1.208 3.501l-0.087 1.02l0.51 1.434l2.117 1.431l1.854 0.122l1.659 -0.763l2.444 -2.449l1.116 -1.387l0.954 -1.398l0.846 -1.798l1.743 -5.43l1.044 -2.641l0.281 -1.799l0.136 -1.431l1.969 -4.468l0.317 -1.404l0.394 -3.166l0.246 -1.077l0.804 -1.301l2.171 -1.418l1.911 -0.476l1.454 -0.235l0.984 -2.374l-2.77 -1.279l-0.033 -2.795l-2.718 -1.35l-1.41 -5.405l-2.654 0.007l-1.384 -5.061l-4.082 -3.09l-1.339 -4.005l-1.348 0.056l0.041 -4.052l-2.638 0.073l-2.983 -8.165l-2.832 -0.045l-0.007 -2.827l-2.638 0.002l-0.016 -4.066l-2.684 0.023l-4.4 -0.26l-5.617 0.873l-2.851 0.959l-6.131 0.16l-4.051 0.135l-1.982 0.043l0.708 22.265l-0.127 21.072l-38.622 -0.351l0.736 15.612l-0.744 7.512l0.212 8.418l-2.255 13.136z" />
  </g>
  <g data-id="145">
    <path d="m173.168 717.372l0.042 6.131l0.011 15.109l82.298 3.504l0.922 -34.431l0.056 -2.74l0.192 -8.147l0.28 -10.933l-35.38 -0.959l-16.489 -0.189l-1.502 -0.017l-1.617 -0.024l-2.357 -0.035l-18.329 -0.225l-1.792 -0.057l-6.218 -0.122l-0.013 3.052l-0.004 5.914l0.005 1.897l-0.009 9.14l-0.021 2.357l-0.019 1.487l0.002 3.405l0.006 2.706l-0.062 3.177z" />
  </g>
  <g data-id="147">
    <path d="m85.748 6.927l0.037 19.588l3.641 0.046l-0.435 42.704l16.314 0.166l1.008 2.801l0.168 7.99l-1.45 2.025l1.93 4.668l-0.752 4.069l3.383 4.09l65.48 0.778l1.117 -51.148l-1.521 -0.02l0.035 -16.85l-3.517 -0.014l-0.021 -19.444l-7.575 -0.119l-4.842 -0.082l-8.848 -0.153l-5.572 -0.109l-1.317 -0.036l-11.507 -0.202l-2.711 -0.065l-6.027 -0.119l-1.701 -0.034l-3.77 0.029l-11.573 -0.234l-1.621 -0.025l-2.676 -0.032l-1.439 0.01l-2.04 -0.058l-5.044 -0.088l-1.432 -0.031l-5.723 -0.101z" />
  </g>
  <g data-id="149">
    <path d="m614.223 734.633l-0.614 30.413l0.946 3.517l-0.049 19.906l4.457 0.024l1.67 0.026l2.059 -0.012l2.453 -0.015l7.813 0.034l1.469 0.008l1.436 0.018l4.439 0.039l7.51 0.233l2.022 0.034l4.38 0.047l26.943 -0.093l1.311 0.01l13.798 -0.027l1.035 -52.712l0.423 -2.512l0.13 -5.642l-16.312 -0.376l0.299 -10.891l-4.089 -0.242l-34.152 -0.125l-3.298 -0.202l-23.663 -0.342l-0.286 18.94l-2.13 -0.056z" />
  </g>
  <g data-id="151">
    <path d="m536.295 442.149l-0.18 8.266l25.61 0.667l21.079 -0.22l3.126 -0.708l13.148 0.299l2.7 0.634l16.865 0.04l0.176 -28.506l0.063 -5.271l0.414 -45.706l-1.018 0.076l-11.841 -0.638l-5.095 4.169l-9.175 0.955l-5.855 2.273l-2.514 2.001l-2.456 4.537l-7.518 7.096l-5.705 1.809l-4.038 3.207l0.821 2.038l-3.349 1.579l0.101 5.341l2.469 4.612l-1.776 4.545l-3.436 1.877l-5.76 0.235l-5.143 1.469l-5.291 -3.29l-2.361 0.972l0.015 1.195l2.691 6.176l3.672 2.145l1.468 3.441l-2.757 3.312l-8.957 2.632l-0.194 6.743z" />
  </g>
  <g data-id="153">
    <path d="m450.853 731.216l-1.118 57.568l31.171 -0.087l5.259 -0.069l1.841 -0.024l10.891 0.04l3.557 0.114l5.311 0.013l1.463 0.12l3.727 -0.11l4.773 0.014l1.347 -0.034l13.933 -0.097l2.549 0.012l7.355 -0.053l1.881 -0.013l2.595 -0.029l1.209 -55.145l-97.744 -2.22z" />
  </g>
  <g data-id="155">
    <path d="m870.808 809.075l0.178 36.792l0.111 35.556l8.683 -0.064l3.868 -0.036l15.778 -0.178l4.884 -0.008l4.601 -0.077l0.503 -1.307l1.668 -2.309l0.578 -1.617l0.62 -4.165l0.373 -3.82l0.287 -1.883l1.133 -1.732l2.211 -1.352l2.2 -0.833l2.204 -0.599l1.973 -1.291l1.976 -1.048l1.189 -1.432l0.284 -1.566l0.074 -1.569l-0.09 -1.117l-1.298 -2.679l-0.919 -1.229l-1.681 -1.631l-1.681 -1.005l-1.115 -0.662l-1.183 -0.956l-1.511 -1.379l-1.388 -0.926l-2.307 -1.743l-1.96 -1.68l-1.056 -1.089l-0.834 -1.067l0.261 -1.271l0.74 -1.333l1.087 -0.276l1.987 0.705l3.824 -0.447l1.548 0.224l2.662 1.148l1.988 0.749l1.314 0.216l2.254 -0.256l1.465 -0.516l1.88 -1.45l1.049 -0.18l1.354 0.527l1.098 0.057l1.03 -0.87l0.036 -1.714l-0.153 -1.624l-0.592 -1.268l-1.062 -0.57l-1.155 0.5l-3.625 -1.963l-1.697 -1.579l-3.295 -2.281l-1.112 -2.164l-0.084 -1.64l0.593 -1.216l1.524 -1.143l3.6 -0.023l3.175 0.857l2.312 0.174l-0.012 -4.312l-2.716 -1.309l-3.071 -2.976l-1.285 -3.866l-2.804 -1.379l-4.302 1.94l-5.579 -0.039l-2.818 -2.865l-5.406 -2.094l-1.99 1.716l-1.045 5.96l-24.159 -0.01l-7.173 -0.438z" />
  </g>
  <g data-id="157">
    <path d="m843.026 574.038l0.002 8.356l42.787 -0.35l8.817 -0.647l0.008 1.707l8.032 0.654l3.194 -1.818l1.191 2.264l1.227 -2.187l4.044 1.113l1.696 1.849l1.114 -2.729l2.673 0.103l3.255 1.737l3.499 -2.753l1.566 5.371l1.573 0.681l3.911 -1.098l1.794 1.854l3.245 0.151l0.031 -1.123l0.036 -1.289l0.709 -1.046l1.048 0.067l2.32 0.762l1.197 -0.139l1.276 -0.951l0.242 -1.345l-0.369 -1.11l-1.107 -1.567l-3.111 -3.384l-0.594 -1.268l-1.077 -1.789l0.272 -1.814l-0.138 -1l0.102 -2.249l0.332 -1.628l0.288 -1.694l-0.7 -1.369l-1.355 -1.075l-1.935 -0.494l-4.202 -1.162l-1.02 -0.355l-1.468 -0.795l-1.195 -1.958l-0.79 -1.759l-1.826 -1.288l-1.023 -0.505l-0.052 -1.105l-1.211 -0.177l-1.4 0.633l-1.806 -0.062l-1.951 -0.303l-1.063 -0.831l-0.366 -1.4l0.579 -1.711l0.44 -1.369l0.144 -1.004l-0.164 -1.36l-1.247 -2.221l-1.193 -0.975l-2.84 -1.758l-3.133 -2.159l-1.789 -1.775l-1.051 -1.596l-2.025 -0.662l-1.109 -0.119l-1.177 -0.79l-1.361 -0.065l-1.158 -0.563l-1.75 -0.372l-0.995 -2.195l0.402 -1.058l-0.054 -1.035l-2.338 -1.529l-3.386 -2.675l-1.278 -0.715l-2.721 1.645l-2.044 2.584l-3.102 2.218l-2.399 0.372l-1.478 -0.196l-2.127 -0.763l-9.368 10.087l-5.178 9.23l-11.392 19.22l-5.429 5.624z" />
  </g>
  <g data-id="159">
    <path d="m339.083 399.943l-0.257 8.375l33.088 1.178l0.209 -5.565l33.428 1.033l0.575 -17.405l0.521 -13.858l1.426 -45.207l-8.251 -0.628l-25.199 -0.768l-33.346 -1.414l-0.135 2.774l-0.2 5.608l0.731 2.136l-0.93 20.577l-0.136 2.788l-0.697 13.932l-0.138 2.791l-0.69 23.654z" />
  </g>
  <g data-id="161">
    <path d="m561.741 545.235l-0.698 36.193l32.977 0.696l0.432 -36.427l10.818 0.043l30.738 0.392l0.565 -69.06l-1.402 -0.03l-14.406 -0.176l-0.281 19.524l-18.112 -0.436l-21.271 0.389l-5.977 3.867l-0.941 -1.982l-1.685 0.114l-2.031 5.897l-2.768 0.012l-5.445 -0.193l-0.254 24.674l-0.26 16.505z" />
  </g>
  <g data-id="163">
    <path d="m646.248 227.515l3.326 25.584l4.374 34.069l22.289 0.521l11.205 0.122l0.185 -7.704l0.188 -9.305l69.071 0.604l0.097 -1.173l-0.868 -4.061l-1.048 -1.533l-2.232 -0.973l-2.812 -3.077l-0.935 -2.036l-1.484 -1.282l-1.031 -1.112l-0.417 -1.276l-3.504 -2.13l-3.483 -3.861l-1.108 -0.936l-1.74 -1.181l-5.192 -3.095l-1.33 -1.555l-0.8 -1.055l-1.943 -0.557l-1.164 -0.748l-1.046 -1.897l-0.494 -1.049l-1.389 -0.922l-1.372 -0.29l-1.501 -0.572l-1.519 -1.23l-2.422 -0.905l-1.483 -0.901l-1.238 -0.981l-1.746 -1.17l-2.196 -1.89l-2.215 -2.655l-0.956 -1.307l-0.446 -1.021l-0.283 -3.983l-1.648 -1.592l-1.645 -2.776l-0.985 -2.356l-1.114 -1.83l-2.097 -0.467l-1.847 -0.219l-3.241 -0.694l-1.548 -1.408l-0.753 -1.072l-0.717 -1.236l-0.483 -3.298l-0.388 -1.958l-0.566 -1.209l-3.79 -0.038l-24.617 18.636l-13.898 10.042z" />
  </g>
  <g data-id="165">
    <path d="m100.634 211.477l1.525 1.768l1.496 1.462l3.483 2.052l1.092 1.193l0.349 1.084l0.221 2.716l0.185 1.057l0.951 1.665l1.104 1.069l2.633 1.565l3.004 0.899l2.041 1.478l0.829 2.686l1.162 1.479l2.102 1.014l1.041 1.016l0.18 1.722l0.162 1.137l0.881 1.144l2.485 0.67l1.086 -0.36l2.102 -1.25l1.025 -0.149l1.49 0.73l0.606 1.144l0.283 1.588l-0.34 1.031l-1.434 1.231l-1.212 0.31l-1.239 1.104l-0.429 1.004l0.315 5.401l0.219 1.212l0.191 1.055l0.328 1.1l0.463 1.177l0.724 1.158l1.222 1.496l1.309 1.034l1.611 0.638l1.572 0.777l1.611 1.034l1.268 1.173l0.956 1.189l0.597 1.235l0.273 1.578l-0.319 1.494l-1.064 1.964l0.201 1.17l1.463 1.531l1.817 0.634l1.798 0.111l1.845 -0.319l1.424 0.801l1.124 2.613l1.079 1.952l1.618 1.295l1.558 0.58l2.741 0.232l1.423 -0.27l2.667 -1.577l1.363 -0.955l1.034 -0.155l1.678 0.444l1.045 1.575l0.277 1.12l-0.318 2.018l1.753 0.676l1.603 0.193l2.412 -0.676l1.213 -0.657l1.049 -0.097l1.064 0.174l0.04 -3.889l0.053 -3.116l0.022 -9.791l0.043 -4.073l0.044 -4.236l-0.057 -8.492l-0.007 -7.297l-0.001 -16.516l-0.033 -2.767l-0.026 -11.6l-75.147 -0.617z" />
  </g>
  <g data-id="167">
    <path d="m321.301 544.594l-0.404 10.384l3.438 0.104l-0.647 20.978l-0.333 11.011l-0.767 27.428l27.55 0.73l27.889 0.885l10.269 0.313l1.394 -59.053l-2.726 -0.067l0.519 -13.781l-57.848 -2.01l0.135 -2.787l-8.269 -0.266l-0.2 6.131z" />
  </g>
  <g data-id="169">
    <path d="m504.051 535.129l-0.59 25.22l16.423 8.195l8.263 4.202l-0.09 8.303l9.917 -0.132l23.069 0.511l0.698 -36.193l0.26 -16.505l0.254 -24.674l-24.093 -0.835l-33.594 -1.169l-0.089 8.246l-0.353 22.524l-0.074 2.308z" />
  </g>
  <g data-id="171">
    <path d="m359.552 6.57l-0.068 21.308l1.196 0.137l-0.011 17.419l76.638 -0.569l-0.047 8.485l25.282 -0.136l0.125 -9.996l2.973 -0.67l-0.195 -2.081l-3.908 -2.88l-2.36 -4.525l1.04 -6.812l3.717 -2.984l-1.055 -3.852l1.981 -0.766l-4.191 -1.736l0.66 -4.077l1.73 -2.436l-5.182 0.479l3.86 -1.779l-3.351 -4.346l-4.139 0.07l-2.273 0.059l-10.584 0.062l-1.051 0.021l-3.343 0.024l-3.263 0.003l-1.591 0.06l-2.059 0.035l-5.7 0.023l-2.419 0.062l-19.139 0.597l-1.764 0.077l-5.768 0.229l-18.696 0.406l-8.537 0.025l-4.17 0.031l-4.336 0.035z" />
  </g>
  <g data-id="173">
    <path d="m607.672 249.147l-0.075 2.831l14.177 0.055l27.8 1.066l-3.326 -25.584l13.898 -10.042l24.617 -18.636l3.79 0.038l-1.185 -1.346l-4.602 -1.945l-1.002 -0.482l-2.681 -2.424l-0.703 -1.409l-2.181 -2.278l-0.942 -1.55l-1.404 -1.706l-1.077 -0.851l-1.567 -0.901l-1.303 -0.947l-0.629 -1.022l-61.238 -0.314l0.037 5.614l-0.117 8.548l0.613 2.839l-0.904 50.446z" />
  </g>
  <g data-id="175">
    <path d="m459.981 235.785l-0.514 16.752l20.796 7.025l1.349 0.456l19.368 6.612l8.649 0.207l8.691 0.246l0.589 -16.926l0.076 -2.69l0.261 -8.583l1.11 -41.399l-58.611 -0.956l-1.726 37.973l-0.04 1.282z" />
  </g>
  <g data-id="177">
    <path d="m234.182 238.197l-0.176 36.499l6.294 -1.01l-2.5 5.601l1.079 0.877l6.938 1.46l4.32 5.357l2.65 1.538l3.696 0.244l5.731 -3.912l-1.726 -4.557l1.034 -2.604l7.3 -2.76l2.743 2.659l-0.128 1.746l-3.105 2.813l-0.829 3.04l4.155 1.781l1.919 -1.757l1.244 -5.222l1.829 -0.907l4.256 -0.03l3.625 -3.777l5.254 -2.201l3.241 0.35l4.497 2.441l4.498 -1.158l-0.108 -61.524l-7.396 -0.218l-51.644 -0.107l-8.253 -0.189l-0.332 14.076l-0.075 9.199l-0.03 2.251z" />
  </g>
  <g data-id="179">
    <path d="m668.415 583.265l-0.266 16.568l15.466 0.608l-0.132 16.348l5.461 0.089l-0.099 13.78l-0.013 5.484l2.656 -0.061l-0.134 10.916l5.418 0.081l-0.431 10.351l5.657 -0.698l-0.091 5.455l2.731 -0.638l-0.062 2.794l5.497 -1.246l-0.119 5.481l2.693 -0.62l-0.09 8.98l2.678 -0.888l5.442 0.572l-0.135 8.219l27.699 0.612l0.079 -16.45l3.329 0.034l0.139 -5.447l2.805 0.058l0.406 -11.421l-0.152 -8.26l-2.722 0.174l0.585 -19.341l-3.48 -0.163l0.637 -43.297l-3.333 0.169l-29.376 -0.328l-17.018 3.042l-5.411 -0.072l-2.739 0.01l-8.143 -0.136l-15.432 -0.759z" />
  </g>
  <g data-id="181">
    <path d="m697.301 736.083l-1.035 52.712l4.532 -0.034l11.729 -0.032l1.41 -0.039l4.09 -0.017l2.725 -0.011l12.559 0.008l4.311 -0.031l9.892 0.005l2.805 0.005l8.156 0.033l2.729 -0.036l5.956 0.004l6.096 -0.013l1.064 0.019l1.67 0l1.342 -0.007l1.372 0.009l0.213 -17.415l-2.695 -0.051l0.088 -16.286l-5.426 -0.033l0.108 -16.233l0.022 -8.332l-5.258 -0.093l-34.918 -0.262l-7.64 -0.449l-11.775 -1.29l-13.57 -0.285l-0.13 5.642l-0.423 2.512z" />
  </g>
  <g data-id="183">
    <path d="m720.757 372.088l-0.214 29.515l6.165 2.568l4.251 -1.308l6.753 -4.079l5.52 -4.464l5.897 -1.737l2.626 -3.201l0.807 -2.643l1.242 -1.814l1.511 -0.909l3.619 -1.255l4.332 -3.79l2.472 -4.19l3.978 -0.655l3.925 1.421l5.717 0.46l3.47 -0.327l1.352 -0.731l1.389 -2.315l-0.146 -6.248l5.871 -3.959l1.475 -2.412l1.007 -3.587l0.357 -1.53l4.833 -7.005l1.49 -0.459l5.183 1.189l4.759 -0.541l3.323 -6.791l1.557 -4.765l1.769 -0.891l3.216 0.652l6.382 6.855l2.933 1.703l8.014 4.849l6.354 -2.115l3.435 4.481l0.449 -1.788l0.839 -4.307l-0.045 -1.173l-0.587 -1.107l-5.719 -3.432l-2.232 -1.77l-3.071 -1.674l-1.243 -0.327l-2.099 -1.972l-2.07 -2.001l-1.093 -0.668l-1.703 -0.764l-1.28 -0.869l-1.01 -0.273l-1.93 -0.345l-1.139 -0.223l-3.182 0.062l-1.109 -0.025l-1.716 -0.845l-2.391 -1.074l-1.934 -1.406l-5.495 -2.824l-1.901 -0.883l-1.58 -0.485l-1.01 -0.149l-1.74 -0.088l-1.351 -0.335l-2.554 -0.431l-1.741 0.663l-1.455 1.056l-1.542 2.769l-0.046 1.877l-0.636 1.681l-1.969 2.998l-1.099 1.471l-1.425 0.76l-2.12 2.259l-1.934 2.314l-1.747 0.82l-1.338 0.307l-1.811 0.164l-2.791 -1.292l-4.459 -2.618l-1.614 -2.942l-1.811 -1.572l-1.388 -1.572l-0.916 -1.497l-0.328 -1.182l-4.26 0.061l1.532 3.442l-3.527 -1.06l-0.124 3.638l-5.683 -5.024l-1.202 1.529l-3.61 -0.335l-3.926 2.185l-0.229 1.811l-0.245 4.633l-1.535 0.326l-6.949 -2.283l-8.157 -0.018l-1.039 -0.108l-1.008 0.476l-1.012 -0.126l-0.969 -1.018l-1.633 -0.427l-0.312 4.483l-0.605 24.721l-0.068 7.83z" />
  </g>
  <g data-id="185">
    <path d="m257.108 499.114l-1.107 25.773l38.455 1.572l-0.367 11.03l27.412 0.974l8.269 0.266l0.673 -16.487l8.479 0.263l1.222 -30.333l0.999 -23.989l-3.925 -1.55l-1.977 0.297l-3.048 -2.672l-1.872 0.139l1.875 3.407l-73.831 -2.461l-1.257 33.772z" />
  </g>
  <g data-id="186">
    <path d="m796.238 529.075l8.491 8.187l12.619 12.739l17.675 18.737l6.894 -5.705l6.538 5.381l11.392 -19.22l5.178 -9.23l9.247 -10.166l-1.858 -1.217l-3.154 -6.404l-0.49 -2.176l1.895 -1.452l0.394 -1.108l1.83 -0.027l1.423 -1.113l1.878 -1.508l0.046 -1.12l-1.305 0.167l-0.59 -1.112l-2.572 -0.314l-3.596 0.733l-1.105 0.113l-1.619 -0.195l-1.685 -1.321l-3.604 -4.766l-2.022 -0.911l-1.045 -1.113l-0.377 -1.15l-1.445 -0.936l-1.084 -0.024l-1.3 0.299l-1.094 -0.065l-3.334 -2.049l-1.034 -0.981l-1.314 -1.711l0.028 -1.877l-0.322 -1.726l-2.456 -1.784l-2.094 -1.087l-2.051 0.97l-4.894 -3.307l-2.07 -1.398l-3.656 -3.484l-1.049 -2.358l0.025 2.01l-4.748 2.115l-2.149 2.934l-5.002 -1.214l-12.977 9.902l13.954 11.518l-20.411 19.525z" />
  </g>
  <g data-id="187">
    <path d="m768.376 556.397l-0.41 17.415l16.905 -0.157l2.735 0.185l9.464 -0.016l45.956 0.215l5.429 -5.624l-6.538 -5.381l-6.894 5.705l-17.675 -18.737l-12.619 -12.739l-8.491 -8.187l19.578 -18.723l-13.121 -12.32l-25.061 7.381l-6.705 -0.807l2.291 -1.55l-1.306 -4.652l1.423 -5.56l-3.004 -0.878l-1.186 -0.447l-0.226 24.055l-0.015 2.715l-0.531 38.107z" />
  </g>
  <g data-id="189">
    <path d="m754.744 415.086l-0.026 2.003l0.641 -2.968l5.393 2.086l2.584 4.854l3.653 -2.157l-0.946 -4.216l1.03 -1.598l3.027 0.344l2.987 2.76l1.653 -1.586l1.727 -4.217l11.412 0.038l3.527 0.051l3.776 -0.119l9.126 0.126l-1.386 3.891l-1.156 -0.486l1.172 5.049l5.636 0.785l6.043 -0.212l-1.599 3.447l-0.154 5.555l1.107 3.706l1.834 -2.035l4.974 -5.467l0.974 -2.237l0.719 -2.41l0.513 -2.923l0.206 -1.171l0.494 -1.359l0.15 -1.282l0.539 -1.875l0.198 -1.024l0.923 -3.658l0.526 -1.501l-1.323 -1.758l-0.48 -2.078l-1.185 -0.692l-2.511 -1.985l-1.947 -2.464l-0.932 -1.812l-0.351 -2.761l0.781 -2.541l0.476 -2.063l0.728 -3.172l0.524 -3.066l2.611 -4.237l2.907 -4.701l1.905 -3.071l1.745 -0.967l4.893 -3.165l3.248 -4.152l0.31 -2.512l2.64 0.381l2.975 -2.037l3.535 -2.883l0.809 -1.48l-3.435 -4.481l-6.354 2.115l-8.014 -4.849l-2.933 -1.703l-6.382 -6.855l-3.216 -0.652l-1.769 0.891l-1.557 4.765l-3.323 6.791l-4.759 0.541l-5.183 -1.189l-1.49 0.459l-4.833 7.005l-0.357 1.53l-1.007 3.587l-1.475 2.412l-5.871 3.959l0.146 6.248l-1.389 2.315l-1.352 0.731l-3.47 0.327l-5.717 -0.46l-3.925 -1.421l-3.08 0.313l-3.37 4.532l-4.332 3.79l-3.619 1.255l0.015 3.438l-0.247 13.879l-0.339 13.751z" />
  </g>
  <g data-id="195">
    <path d="m344.146 258.117l-2.868 67.567l33.343 1.486l25.202 0.696l8.251 0.628l0.297 -8.508l17.062 -17.762l4.075 -3.793l-0.241 -2.189l-3.757 -0.73l-1.675 -1.498l0.207 -2.828l3.181 -1.748l2.478 -3.254l0.19 -3.577l2.136 -2.748l4.525 -3.999l1.664 -4.862l-2.398 -1.873l-4.638 2.709l-2.318 -0.396l-1.184 -1.483l0.615 -4.209l-1.221 -1.934l-3.563 -1.3l-1.734 -2.505l0.855 -2.984l-0.978 -2.724l-2.547 -0.572l-7.036 0.458l-3.143 -0.881l-4.218 -3.457l-1.105 -7.019l-3.624 -2.307l-5.265 0.972l-3.699 -5.11l-3.061 -1.229l-2.39 1.854l1.574 3.876l-0.275 3.117l-3.492 5.346l-2.206 1.981l-3.871 -1.929l-3.266 5.09l-2.233 0.439l-5.934 -0.063l-1.776 2.406l0.049 1.95l2.22 4.184l-0.655 2.993l-5.213 3.23l-4.224 1.348l-2.83 -1.66l1.846 -4.861l-1.28 -1.373l-4.911 -0.266l-3.109 -4.614l-1.835 -0.082z" />
  </g>
  <g data-id="197">
    <path d="m461.735 9.096l-3.86 1.779l5.182 -0.479l-1.73 2.436l-0.66 4.077l4.191 1.736l-1.981 0.766l1.055 3.852l-3.717 2.984l-1.04 6.812l2.36 4.525l3.908 2.88l0.195 2.081l-2.973 0.67l0.277 9.988l50.06 -0.597l-0.125 -49.379l-4.327 0.151l-11.093 0.241l-1.178 -0.013l-3.008 0.082l-14.768 0.55l-8.631 0.256l-7.309 0.206l-4.179 0.048l3.351 4.346z" />
  </g>
  <g data-id="199">
    <path d="m512.882 3.229l0.12 49.379l0.008 7.886l59.944 1.088l0.994 -60.043l-4.175 0.144l-4.149 0.134l-4.639 0.142l-5.73 0.21l-2.162 0.094l-1.578 0.019l-13.018 0.307l-2.454 0.091l-3.212 0.047l-2.828 0.059l-9.328 0.21l-4.861 0.131l-2.932 0.105z" />
  </g>
  <g data-id="201">
    <path d="m898.789 676.623l-1.851 1.924l2.885 6.612l1.582 0.386l0.348 3.595l5.026 7.625l0.861 6.941l3.218 2.301l0.942 3.376l-0.635 4.059l0.78 2.626l-1.604 2.367l0.867 2.784l4.051 -0.135l6.131 -0.16l2.646 -0.083l5.822 -1.749l4.4 0.26l2.684 -0.023l2.74 -1.407l-0.025 -5.456l5.471 0.004l-0.035 -5.525l5.309 0.022l0.007 -2.731l2.786 0.009l0.001 -2.747l5.426 -0.03l0.068 -5.502l4.104 -1.447l0.016 -1.348l5.163 0.027l-1.549 -1.321l-1.226 -0.722l-2.222 -1.048l-2.457 -0.87l-2.379 -1.773l-0.847 -1.283l-0.224 -1.631l0.98 -2.885l0.476 -1.879l0.015 -1.02l-0.464 -1.624l-0.819 -1.63l-1.385 -1.489l-2.101 -1.523l-1.052 -1.079l-1.664 -2.477l-1.441 -2.604l-0.46 -1.729l-2.671 -5.044l-0.862 -2.143l-0.864 -3.514l1.398 -4.17l0.008 -1.26l-1.839 -1.184l-1.3 0.057l-1.427 0.291l-1.687 1.174l-6.89 -0.421l-0.02 1.371l-5.573 1.348l-5.532 0.009l-0.03 2.771l-1.866 0l-2.508 0.002l0.029 2.311l-5.491 1.411l-2.649 2.729l0.001 5.415l-2.694 2.744l-5.502 0.006l-1.003 2.717l-1.393 5.394z" />
  </g>
  <g data-id="203">
    <path d="m616.904 702.277l-0.265 13.473l23.663 0.342l3.298 0.202l34.152 0.125l4.089 0.242l0.851 -37.944l16.894 -0.088l5.637 -1.336l7.335 -0.357l0.09 -8.98l-2.693 0.62l0.119 -5.481l-5.497 1.246l0.062 -2.794l-2.731 0.638l0.091 -5.455l-5.657 0.698l0.431 -10.351l-5.418 -0.081l0.134 -10.916l-2.656 0.061l0.013 -5.484l0.099 -13.78l-5.461 -0.089l-65.125 -1.406l-0.161 32.849l-1.184 37.482l-0.11 16.562z" />
  </g>
  <g data-id="205">
    <path d="m522.303 129.824l-1.713 67.663l16.637 0.239l0.489 -11.44l50.667 0.86l0.957 -56.49l-16.833 -0.233l-50.204 -0.599z" />
  </g>
  <g data-id="207">
    <path d="m826.282 709.508l0.793 4.299l1.214 1.226l-1.752 2.507l4.063 5.344l2.009 1.462l-1.22 2.159l1.286 3.181l2.692 1.895l-0.943 5.963l2.021 -0.013l0.49 3.088l1.86 0.838l-0.219 1.761l2.96 4.453l2.534 4.113l-1.4 3.532l2.037 3.248l-1.924 5.436l1.568 -0.104l26.834 0.351l38.622 0.351l0.127 -21.072l-0.708 -22.265l1.982 -0.043l-0.867 -2.784l1.604 -2.367l-0.78 -2.626l1.079 -4.166l-1.386 -3.269l-3.218 -2.301l-0.861 -6.941l-5.026 -7.625l-0.348 -3.595l-1.582 -0.386l-2.885 -6.612l1.851 -1.924l1.393 -5.394l-15.191 -0.03l-13.923 -0.212l0.057 13.703l-5.491 -0.066l0.02 2.745l-17.305 -0.205l-5.583 -0.074l-0.139 6.409l-2.76 -0.039l-0.088 2.711l-2.676 -0.028l-0.037 2.75l-2.742 -0.018l-0.044 2.667l-2.7 -0.019l-0.06 5.416l-2.702 -0.035l-0.021 2.702l-2.514 -0.097z" />
  </g>
  <g data-id="209">
    <path d="m323.981 716.245l-0.161 12.265l5.861 0.099l-1.57 59.965l10.451 0.003l1.064 -0.006l12.046 0.061l4.63 -0.016l12.095 0.049l0.253 -11.031l0.612 -32.188l0.779 -16.245l-5.645 -0.081l0.688 -32.819l-19.173 -0.253l-21.672 -0.369l-0.131 13.681l-0.127 6.884z" />
  </g>
  <g data-id="211">
    <path d="m360.668 45.433l-0.042 22.926l0.099 45.704l69.906 -0.69l5.222 -0.032l1.322 -0.09l0.084 -59.902l0.047 -8.485l-76.638 0.569z" />
  </g>
  <g data-id="213">
    <path d="m368.65 777.635l-0.251 11.031l3.274 0.012l21.318 0.078l3.772 0.014l5.54 -0.062l2.918 -0.011l26.24 0.07l6.034 -0.022l2.273 -0.009l9.968 0.048l1.118 -57.568l-21.64 -0.576l-35.579 -0.869l-11.862 -0.304l-11.732 -0.266l-0.779 16.245l-0.612 32.188z" />
  </g>
  <g data-id="215">
    <path d="m527.639 605.91l0.03 19.062l0.731 22.03l-0.627 36.698l24.364 0.639l16.174 0.114l27.156 1.054l21.545 0.206l1.184 -37.482l0.161 -32.849l-16.24 -0.26l0.037 -32.982l-8.135 -0.018l-32.977 -0.696l-23.069 -0.511l-9.917 0.132l-0.419 24.86z" />
  </g>
  <g data-id="217">
    <path d="m173.295 557.364l-0.025 1.426l0.025 6.058l-0.012 1.508l0.023 1.72l0.024 3.681l81.495 2.639l0.061 -2.747l0.659 -19.184l0.455 -27.578l1.107 -25.773l-3.561 0.96l-2.974 -3.143l-1.198 2.051l-0.834 -2.114l-2.96 -1.842l-3.128 0.159l-5 2.245l-1.362 1.675l0.485 -3.236l-2.125 0.291l-0.755 3.264l-1.394 -1.018l-0.144 2.474l-1.938 0.251l-0.396 -2.282l1.481 -1.48l-1.513 -0.955l-55.935 -1.757l0.011 4.375l-0.035 8.479l-0.052 4.071l-0.001 3.709l-0.008 1.359l-0.033 1.455l-0.051 3.942l-0.032 1.814l-0.047 3.711l-0.032 1.615l0.013 1.105l-0.025 1.781l-0.041 2.177l-0.023 1.208l-0.004 1.465l-0.062 3.433l-0.129 8.812l-0.013 8.196z" />
  </g>
  <g data-id="219">
    <path d="m652.93 344.456l-0.42 26.04l3.192 0.256l4.214 1.751l4.121 0.366l3.394 -2.102l8.869 8.015l3.354 2.232l1.471 2.299l0.158 4.106l6.529 2.621l7.553 1.843l2.94 -0.254l5.331 -1.866l3.209 0.206l3.531 2.832l1.632 3.827l2.061 2.113l2.286 1.411l4.187 1.452l0.214 -29.515l0.068 -7.83l0.605 -24.721l-17.255 -0.36l-5.62 0.006l0.159 -11.393l-11.858 -0.048l0.144 -11.557l-11.369 -0.12l-0.096 28.673l-5.537 -0.388l-5.536 0.254l-11.531 -0.148z" />
  </g>
  <g data-id="221">
    <path d="m700.786 530.609l-0.549 24.803l22.894 0.37l10.942 0.732l16.804 -0.566l17.498 0.449l0.531 -38.107l0.015 -2.715l0.226 -24.055l-6.676 -1.858l0.472 -3.116l-14.797 -19.322l-17.267 -0.157l-11.194 -0.334l-2.914 0.456l-15.897 0.04l0.148 46.851l-0.236 16.528z" />
  </g>
  <g data-id="223">
    <path d="m748.32 669.002l-0.079 16.45l7.464 0.148l-0.182 9.219l2.689 0.006l-0.038 2.682l-0.027 2.815l2.696 0.056l-0.22 8.166l2.746 0.13l48.811 -0.031l2.127 0.187l11.975 0.676l2.514 0.097l0.021 -2.702l2.702 0.035l0.06 -5.416l2.7 0.019l0.044 -2.667l2.742 0.018l0.037 -2.75l2.676 0.028l0.088 -2.711l2.76 0.039l0.139 -6.409l5.583 0.074l0.134 -8.385l-16.908 -0.122l0.835 -42.962l-2.801 -0.254l-16.46 0.327l-30.481 -0.568l-0.131 8.471l-13.805 0.074l-2.848 -0.48l-11.036 0.702l0.152 8.26l-0.406 11.421l-2.805 -0.058l-0.139 5.447l-3.329 -0.034z" />
  </g>
  <g data-id="225">
    <path d="m404.641 616.844l-0.509 27.31l2.283 0.039l-0.09 6.533l-0.469 27.522l10.732 0.193l13.587 0.459l-0.053 2.736l11.774 0.371l20.792 0.305l1.033 -36.861l-1.997 -0.069l0.844 -41.097l-24.781 -0.479l-32.876 -0.635l-0.269 13.671z" />
  </g>
  <g data-id="227">
    <path d="m171.165 8.375l0.021 19.444l3.517 0.014l-0.035 16.85l1.521 0.02l57.552 0.484l-0.051 -16.964l-2.538 0.021l-0.101 -20.011l-8.255 0.076l-1.118 0.035l-2.383 -0.036l-2.103 0.009l-1.766 0l-3.258 0.023l-10.698 0.063l-4.548 0.019l-1.582 0.023l-2.791 0.024l-6.68 -0.006l-1.191 -0.014l-7.815 -0.031l-5.697 -0.043z" />
  </g>
  <g data-id="229">
    <path d="m462.567 604.286l-0.844 41.097l1.997 0.069l-1.033 36.861l65.086 1.389l0.627 -36.698l-0.731 -22.03l-0.03 -19.062l-45.947 -1.093l-19.124 -0.531z" />
  </g>
  <g data-id="510">
    <path d="m817.347 391.549l0.296 2.938l0.932 1.812l1.947 2.464l2.465 1.95l1.231 0.727l0.48 2.078l1.704 1.058l1.122 -2.063l3.905 -6.181l1.124 -0.709l1.674 -1.538l1.428 -1.471l1.402 -2.57l1.174 -4.081l0.164 -2.589l-0.5 -3.184l-0.233 -1.169l-0.569 -1.803l-1.318 -2.456l-1.048 -1.132l-1.048 -1.785l-0.419 -1.728l0.015 -1.19l0.3 -1.555l0.704 -1.171l2.082 -2.074l1.183 -0.749l1.064 -1.46l0.18 -1.114l0.569 -1.21l0.71 -1.133l-2.64 -0.381l-0.31 2.512l-3.248 4.152l-4.893 3.165l-1.006 0.506l-2.644 3.532l-2.465 3.99l-3.053 4.948l-0.524 3.066l-0.61 2.432l-0.594 2.803l-0.726 2.364z" />
  </g>
</svg>
