<?xml version="1.0" encoding="UTF-8"?>
<!DOCTYPE svg PUBLIC '-//W3C//DTD SVG 1.1//EN' 'http://www.w3.org/Graphics/SVG/1.1/DTD/svg11.dtd'>
<svg viewBox="0 0 1000 1616.91" xmlns="http://www.w3.org/2000/svg">
  <g data-id="001">
    <path d="m117.698 1293.84l0.237 37.459l1.731 1.859l4.692 -2.014l7.55 -0.516l2.424 2.021l1.501 5.365l1.994 1.558l2.02 4.89l-1.338 3.095l-0.259 5.207l5.518 6.364l2.533 0.76l0.56 2.861l2.123 0.986l3.14 5.472l4.933 0.443l0.509 1.092l46.384 -0.257l0.608 -55.707l-0.135 -50.331l-0.719 1.239l-9.441 -9.658l-36.242 -36.724l-3.006 -3.033l-37.178 0.046l-0.1 38.607l6.393 0.018l-0.02 3.263l0.013 9.731l-0.01 25.927l-6.415 -0.023z" />
  </g>
  <g data-id="003">
    <path d="m55.937 981.538l-0.771 1.546l44.519 0.588l0.097 39.997l4.06 5.894l-0.637 4.911l11.944 0.009l0.043 27.98l19.558 10.648l17.384 -0.032l7.082 -4.908l3.2 0.358l0.365 -3.741l3.316 -6.683l3.232 3.878l5.848 -1.19l-0.706 -2.483l0.129 -1.559l-0.398 -2.453l-0.305 -2.165l-0.874 -2.109l-0.414 -2.002l-0.393 -1.823l0.084 -1.522l-0.41 -2.106l-1.037 -1.502l0.713 -2.32l0.285 -1.851l0.504 -2.063l0.697 -1.555l-0.225 -1.514l-0.14 -2.656l-0.811 -1.946l0.948 -1.926l0.754 -2.65l0.693 -3.017l-0.076 -1.069l0.025 -1.16l0.894 -2.772l-0.818 -1.576l-1.065 -0.503l-0.984 -1.413l-0.737 -1.083l-0.24 -1.149l0.7 -3.222l-1.769 -1.725l-0.835 -1.588l-0.974 -1.59l-1.297 -1.103l-0.223 -1.207l-0.303 -1.314l0.728 -1.692l0.274 -1.197l0.155 -1.254l-0.019 -1.465l0.406 -1.475l0.117 -2.123l0.186 -1.004l0.065 -1.863l0.097 -1.542l-0.053 -1.022l0.397 -1.424l-0.069 -1.035l-0.195 -1.468l1.127 -1.474l0.148 -1.26l0.251 -1.314l0.276 -1.53l1.194 -0.592l0.915 -2.128l1.153 -0.628l0.928 -1.243l0.159 -1.427l0.029 -1.364l0.301 -1.133l0.372 -1.195l0.214 -1.889l0.183 -1.424l1.048 0.072l2.114 0.49l0.971 -1.328l0.596 -1.882l0.776 -1.189l0.417 -1.788l0.017 -2.28l-0.726 -1.255l-1.197 -1.187l-0.275 -1.612l-0.898 -1.48l0.439 -1.838l0.714 -1.509l1.284 -0.958l0.865 -1.336l1.824 -2.015l0.115 -1.839l-0.026 -1.023l0.729 -1.353l0.607 -1.015l0.408 -1.561l-3.234 -1.961l-2.752 -0.29l-1.098 -0.617l-1.032 -2.434l0.309 -2.145l-0.694 -2.096l-25.861 -0.361l0.096 -2.371l2.933 -2.187l-0.2 -4.086l-2.67 -5.827l0.432 -2.848l-1.879 -6.15l-2.898 -6.439l-1.964 -6.5l-55.543 0.044l-1.425 2.98l-1.219 3.419l-0.93 4.648l0.133 2.772l-2.526 8.207l0.003 1.962l-0.737 4.241l-0.397 1.017l-3.779 5.936l-3.259 1.928l-1.233 2.227l-0.283 1.75l0.076 2.253l-2.187 4.111l-1.814 2.195l-2.671 2.925l-2.61 1.583l-1.069 1.895l0.508 1.663l0.028 3.166l-1.956 3.909l-0.251 1.263l1.114 4.314l0.798 1.897l1.735 2.481l0.599 1.738l-1.045 2.143l-0.587 1.977l-0.638 2.203l-0.718 2.67l-0.309 1.354l-0.744 1.55l-1.339 2.315l-2.945 2.806l-2.041 2.261z" />
  </g>
  <g data-id="005">
    <path d="m724.573 1403.6l0.081 2.613l2.981 2.521l-2.485 6.025l1.612 1.614l1.631 -2.296l4.07 -2.23l0 -2.067l9.397 -1.459l3.932 -4.187l2.737 0.31l2.178 -3.096l4.793 2.777l6.242 10.632l0.629 26.827l3.147 0.021l0.051 12.68l6.316 0.011l0.038 7.948l3.159 -0.005l0.068 4.763l3.143 -0.011l-0.002 6.337l6.19 0.02l-1.572 4.771l0.523 11.527l-4.739 0.787l-0.689 14.262l5.698 -0.004l0.692 4.721l2.378 3.165l3.142 0.012l0.492 4.215l7.37 -1.357l1.042 5.849l-0.496 8.824l-1.757 1.535l-3.891 7.092l0.285 5.1l3.556 -0.581l2.228 2.11l2.516 -0.393l2.641 -7.003l11.07 -0.026l0.768 2.935l4.023 6.309l0.797 3.054l2.937 -0.278l1.873 2.294l22.961 -0.07l-0.011 6.336l14.064 0.046l0.227 -34.896l3.175 0.008l0.026 -6.369l-1.567 0.015l-0.03 -9.528l-1.577 -0.002l-0.254 -7.726l-3.157 -0.033l-0.101 -20.367l-0.806 -3.232l-3.959 -0.774l0.014 -8.586l-3.178 -0.001l1.481 -3.478l-1.753 -1.312l-0.271 -4.724l-14.167 0.001l-4.461 4.361l-3.379 -0.228l-1.338 -5.872l-3.745 -5.56l-0.588 -2.598l-0.654 -6.059l1 -4.337l1.999 -0.015l0.995 -4.519l-2.372 -3.974l-0.195 -6.73l-2.162 -4.059l2.538 -3.213l-1.566 -1.097l2.613 -5.913l3.981 -1.574l3.337 0.268l-1.073 -5.081l4.01 -1.412l1.769 -2.462l-1.636 -6.909l-95.739 0.093l-1.324 1.394l-2.194 -1.347l-0.33 2.088l-4.377 4.79l-5.487 0.373l0.953 3.445l-2.485 2.172z" />
  </g>
  <g data-id="007">
    <path d="m904.613 1490.03l2.111 11.307l1.87 1.88l1.03 5.163l3.404 8.709l0.48 3.596l-3.139 3.171l0.014 5.383l2.413 -0.759l0.331 4.018l3.782 2.825l1.053 2.511l-5.827 5.614l0.992 3.413l-0.699 4.819l3.914 2.425l-4.684 3.025l-1.354 3.146l-2.396 0.61l0.142 3.903l-2.016 4.406l2.926 11.629l3.348 2.642l-1.921 9.345l5.246 3.465l7.261 1.875l1.014 1.284l1.208 14.988l5.876 -0.048l7.395 -0.239l1.559 0.02l59.551 -0.178l-0.068 -30.624l0 -1.408l0.008 -7.334l-0.006 -2.634l0.004 -18.74l-0.001 -14.972l0.045 -33.987l0.015 -1.965l-3.23 1.092l0.625 1.776l-5.233 2.519l-2.338 -0.497l-3.518 2.141l-4.48 -1.932l-1.904 3.808l-2.923 -1.349l-7.344 0.227l-2.277 -3.71l1.973 -3.024l2.312 -13.909l-2.967 -2.716l-0.052 -3.816l-1.195 0.41l-2.053 5.686l-2.928 4.768l-6.339 -1.845l-3.721 -2.135l0.247 -3.31l-4.491 -0.908l-37.412 -0.02l-2.845 1.61l-2.787 2.85z" />
  </g>
  <g data-id="009">
    <path d="m32.738 395.627l0.037 4.483l-0.028 20.916l0.019 8.021l0.002 5.28l0.003 5.086l0.006 6.436l0.002 6.513l6.259 -0.763l5.369 3.616l-1.566 6.188l3.225 4.317l2.11 0.869l3.095 -3.396l4.677 0.869l2.115 2.725l5.819 4.54l1.92 0.414l-0.027 3.081l10.347 -0.014l50.489 -0.967l-0.016 3.431l20.776 0.043l0.002 -93.119l-17.233 0.307l-24.245 -0.47l0.01 3.437l-6.875 -0.014l0.008 6.884l-17.152 -0.004l0.029 -3.445l-2.323 0.007l-9.872 1.246l0.002 3.418l-36.982 0.067z" />
  </g>
  <g data-id="011">
    <path d="m683.174 1371.04l-0.008 54.66l30.838 -0.04l1.523 -4.26l2.025 1.126l2.408 -3.463l0.073 -4.542l2.902 -2.155l-0.792 -2.356l2.511 -3.794l-0.081 -2.613l2.485 -2.172l-0.953 -3.445l5.487 -0.373l4.377 -4.79l0.33 -2.088l2.194 1.347l1.324 -1.394l95.739 -0.093l18.681 0.298l57.702 0.212l0.232 -57.882l-37.817 -0.099l0.003 -18.57l-19.889 -0.06l-15.815 -0.089l0.024 -9.641l-9.634 -0.026l0.016 -3.286l-67.22 -0.025l0.026 -44.817l-19.256 0.011l-9.337 0.765l-0.285 18.501l-9.582 0.902l-9.353 0.011l-0.069 19.296l-19.378 -0.049l-1.641 18.217l-0.001 18.297l-9.727 0.01l-0.064 38.467z" />
  </g>
  <g data-id="013">
    <path d="m362.344 1192.33l3.678 10.531l-2.479 1.968l3.222 2.232l2.806 -1.273l3.364 3.184l7.296 3.524l6.133 1.766l-1.066 5.526l4.11 0.816l4.587 -3.292l6.492 2.479l3.202 -3.396l4.15 -1.751l2.032 2.069l1.52 4.727l0.396 7.568l3.866 2.773l-2.242 3.093l0.628 5.813l-1.907 2.677l1.433 3.594l2.716 2.061l-1.03 6.958l-1.675 2.947l-0.528 5.772l4.953 -0.59l2.503 4.317l7.967 3.291l-1.444 6.14l5.455 7.191l5.234 1.82l3.766 2.85l-1.357 4.513l-5.17 4.922l0.026 8.226l3.205 0.009l-0.07 6.606l-1.217 7.813l5.062 0.949l3.693 -0.736l2.759 1.632l4.958 -2.017l6.091 1.706l-0.039 15.27l3.241 0.01l-0.033 12.812l106.512 -0.032l48.516 -0.017l0.118 77.378l-9.52 -0.007l-0.004 39.512l9.778 -1.118l6.201 -2.894l2.002 3.405l9.083 9.511l6.812 0.098l0.788 2.245l3.277 -1.577l0.02 -10.977l9.389 -0.033l-0.039 -19.078l-9.366 0.031l-0.012 -18.896l-1.042 -57.94l38.03 0.003l0.064 -38.467l-57.205 0.022l0.008 -18.289l-44.088 -0.086l0.146 -28.86l-3.114 0.833l-3.097 -1.474l1.173 -2.537l-3.022 -4.269l-0.439 -4.931l-2.281 -7l-4.275 -1.244l-3.338 0.654l-0.728 2.664l-3.915 1.868l-3.438 -0.526l-1.23 -0.585l-1.175 -6.283l-3.589 -1.08l-1.336 -4.47l-5.071 -5.691l-4.773 0.175l-1.051 -4.874l-3.562 -1.736l-2.979 -4.1l-3.627 -2.33l-1.554 -5.692l-3.568 -7.189l-3.789 -1.67l-3.827 2.505l0.064 3.473l-2.737 2.656l-7.578 -1.262l-3.341 -3.56l-0.714 -4.009l-2.863 -0.042l-3.246 -3.457l-9.94 -4.665l-5.501 -4.552l-1.322 -6.655l0.824 -4.018l-2.237 -1.856l-8.202 -0.702l-2.542 3.604l-8.18 -4.806l-2.82 0.927l-2.617 -1.272l-4.973 0.151l-1.698 -1.788l-3.664 1.212l-1.919 6.135l1.035 1.894l-2.451 3.927l-5.469 0.289l-3.168 -1.584l-0.238 -5.292l-3.659 -4.144l-4.38 -1.962l-1.792 -2.658l-5.929 -3.012l-21.392 -0.015l-0.013 -14.604l-9.597 -0.002l-9.298 5.429l-1.37 3.485l-5.136 3.331l-4.087 5.353z" />
  </g>
  <g data-id="015">
    <path d="m156.458 1139.19l-1.444 77.081l3.006 3.033l36.242 36.724l9.441 9.658l0.719 -1.239l3.1 0.421l0.116 -2.699l3.332 -1.463l0.846 2.822l2.827 0.773l2.472 -1.503l3.405 1.688l4.632 -3.726l2.636 0.611l5.446 -7.433l4.37 -2.6l2.532 1.617l3.835 -2.386l0.67 -3.181l4.658 0.583l5.318 -7.128l3.022 -0.654l2.982 -5.044l-1.069 -5.087l2.797 -3.98l0.511 -4.324l3.329 -3.454l7.3 1.256l2.818 -5.209l-1.456 -7.03l2.166 -2.216l2.025 -5.406l2.055 -1.886l4.741 -0.924l7.385 -3.44l9.511 -3.454l1.682 1.208l11.175 -3.685l1.709 -5.559l3.878 -7.853l2.848 -2.488l2.96 -5.783l0.974 -5.314l2.062 -2.755l-1.646 -3.311l-3.751 -3.474l7.839 1.849l2.83 3.296l2.462 7.787l0.207 8.596l1.876 4.256l4.305 2.882l3.879 -1.253l-1.146 3.593l4.048 4.44l4.683 -3.793l4.274 1.759l3.416 0.022l3.78 -7.253l-2.832 -1.515l0.378 -5.01l-2.588 -2.125l-1.413 1.645l-4.032 -1.383l-2.546 -4.108l0.738 -4.717l3.863 -4.745l3.217 -1.293l0.263 -2.81l-3.627 -0.036l-4.226 -4.849l3.001 -1.668l1.77 -3.136l-1.135 -3.176l-4.372 -2.202l-1.686 1.155l-3.454 -3.608l-3.997 1.375l-3.635 -4.982l-2.13 0.427l-3.874 -2.819l0.793 -2.445l-1.946 -4.898l2.305 -0.937l-1.332 -9.783l-1.64 -3.034l-3.882 3.153l-1.557 -4.829l-3.759 -0.937l-1.914 2.573l-0.304 -3.243l-6.127 -3.066l-1.112 -3.328l-1.18 -0.632l-2.616 -1.282l-2.569 -0.314l-1.73 0.506l-1.219 -0.158l-0.343 1.492l0.624 1.302l-0.033 2.03l0.22 2.631l-0.471 2.137l-1.981 1.353l-1.951 1.174l-1.789 1.607l-0.005 1.626l-0.883 2.768l-1.318 0.955l-1.547 -0.355l-1.837 -0.274l-1.653 1.295l-1.643 1.619l-1.285 1.433l-2.409 1.023l-1.449 0.737l-1.87 -0.048l-1.67 1.174l-1.239 -1.06l-1.017 -0.961l-1.228 0.956l-7.547 0.675l-9.687 0.009l-4.029 0.009l-6.412 -0.03l-11.216 0.033l-9.504 -0.005l-6.967 -0.039l-6.131 -0.022l-6.264 0.048l-8.079 -0.02l-4.186 0.001l-6.12 -0.184l-7.262 0.012l-0.919 1.269l-0.443 1.612l-0.125 1.192l0.065 1.489l-0.479 1.908l-0.639 1.429l-0.213 1.481l-0.256 1.637l-0.152 1.376l-0.485 1.218l0.094 1.122l0.404 1.482l0.019 1.197l-0.401 1.519l-2.16 0.016l-3.757 -0.813l-6.01 -0.01l-3.33 0.002l-9.549 0.036z" />
  </g>
  <g data-id="017">
    <path d="m32.479 232.762l-0.095 16.399l55.486 0.039l10.476 0.014l0.051 -3.438l20.758 0.027l-0.125 24.378l28.32 -0.06l-0.01 -30.667l9.109 -10.65l6.455 -1.695l4.192 5.424l7.301 5.992l6.726 -2.863l2.699 5.106l6.661 4.033l2.101 4.39l-0.007 -5.444l0.084 -14.458l-0.094 -1.581l-0.015 -2.553l0.019 -2.756l0.062 -8.768l-0.14 -22.111l-0.032 -5.147l0.101 -2.987l-0.062 -5.993l0.127 -8.529l-0.17 -25.162l0.137 -16.477l0 -5.122l-118.693 0.387l0.006 -42.364l-0.113 -3.017l0.059 -39.366l-39.876 0.181l-0.153 23.691l-0.054 22.735l-0.111 6.928l-0.023 1.892l-0.149 29.455l0.023 16.98l0.005 1.694l0.012 12.614l-0.552 39.584l-0.161 5.699l-0.004 1.511l0.011 1.012l-0.251 11.86l-0.047 9.518l-0.044 9.64z" />
  </g>
  <g data-id="019">
    <path d="m761.867 1256.61l-0.026 44.817l67.22 0.025l-0.016 3.286l9.634 0.026l-0.024 9.641l15.815 0.089l19.889 0.06l-0.003 18.57l37.817 0.099l-0.232 57.882l37.036 -0.237l1.083 0.144l49.848 0.235l0.018 -1.141l-0.01 -1.035l0.016 -2.68l-0.011 -1.079l-0.004 -1.88l-0.005 -1.212l-0.005 -1.294l0.001 -1.368l-0.015 -23.152l0 -1.619l0.01 -1.063l-0.01 -1.402l-0.063 -26.609l-0.095 -41.151l-1.714 -4.104l-2.803 -1.755l-2.047 1.327l-6.483 -2.338l-2.808 -3.275l-4.593 -0.086l-4.334 1.627l-1.407 -0.918l-3.031 -10.307l0.043 -3.613l-2.864 -3.448l-25.152 -0.027l-21.295 -0.011l-5.526 -1.072l-9.678 0.018l-57.682 0.091l-86.494 -0.062z" />
  </g>
  <g data-id="021">
    <path d="m34.022 30.995l-0.045 6.929l39.876 -0.181l-0.059 39.366l-0.175 3.017l0.282 42.364l118.693 -0.387l0 -3.231l-0.006 -118.797l-51.624 -0.074l-1.115 0.154l-6.688 0.103l-54.8 0.038l-44.377 0.185l0.039 30.514z" />
  </g>
  <g data-id="023">
    <path d="m557.912 1266.8l-2.286 2.601l3.438 0.526l3.915 -1.868l0.728 -2.664l3.338 -0.654l4.275 1.244l2.281 7l0.439 4.931l3.022 4.269l-1.173 2.537l3.097 1.474l3.114 -0.833l-0.146 28.86l44.088 0.086l-0.008 18.289l57.205 -0.022l9.727 -0.01l0.001 -18.297l1.641 -18.217l19.378 0.049l0.069 -19.296l9.353 -0.011l9.582 -0.902l-0.026 -18.499l0.344 -38.998l0.27 -38.954l-48.243 -0.094l-0.124 -58.8l-52.507 0.217l-15.472 -0.045l0.041 39.12l-6.701 -0.043l0.51 15.407l1.388 1.647l0.068 15.445l-1.59 3.948l-0.158 4.705l7.404 3.516l3.133 4.593l0.907 3.347l1.991 0.722l1.964 5.549l-2.722 -2.918l-5.624 -1.568l-4.897 1.847l-0.307 5.263l-1.394 3.733l-4.482 4.009l-1.077 2.555l-4.248 1.041l-2.202 3.396l-1.841 -0.307l-5.242 4.334l-4.256 1.227l-6.987 5.073l-5.612 2.479l-7.616 7.235l-3.848 0.142l-2.193 1.612l-3.726 8.975z" />
  </g>
  <g data-id="025">
    <path d="m347.845 1313.58l0.068 38.194l79.289 -0.062l35.429 -0.287l0.033 -12.812l-3.241 -0.01l0.039 -15.27l-6.091 -1.706l-4.958 2.017l-2.759 -1.632l-3.693 0.736l-5.062 -0.949l1.217 -7.813l0.07 -6.606l-3.205 -0.009l-0.026 -8.226l5.17 -4.922l1.357 -4.513l-3.766 -2.85l-5.234 -1.82l-5.455 -7.191l1.444 -6.14l-7.967 -3.291l-2.503 -4.317l-4.953 0.59l0.528 -5.772l1.675 -2.947l1.03 -6.958l-2.716 -2.061l-1.433 -3.594l1.907 -2.677l-0.628 -5.813l2.242 -3.093l-3.866 -2.773l-0.396 -7.568l-1.52 -4.727l-2.032 -2.069l-4.15 1.751l-3.202 3.396l-6.492 -2.479l-4.587 3.292l-4.11 -0.816l1.066 -5.526l-6.133 -1.766l-7.296 -3.524l-3.364 -3.184l-2.806 1.273l-3.222 -2.232l-1.814 1.637l-0.591 5.029l-2.515 1.297l-2.973 12.282l-0.67 5.005l2.176 3.928l1.726 -0.063l1.363 2.831l0.139 4.167l-4.423 5.325l0.998 2.778l-1.105 3.072l0.498 6.277l-1.583 -0.095l-3.524 4.309l-2.834 -1.042l-0.565 52.017z" />
  </g>
  <g data-id="027">
    <path d="m34.433 1209.19l-0.536 2.02l1.501 1.389l0.273 1.263l-0.766 2.249l-0.003 16.568l-0.012 4.268l-0.016 1.924l0.039 5.174l3.545 2.224l5.873 1.252l2.08 7.075l5.044 3.535l2.016 3.728l6.464 2.438l4.273 -0.505l4.697 3.777l2.553 6.56l3.188 4.68l-0.75 2.668l0.578 8.074l5.969 5.208l2.518 4.15l8.426 7.992l1.473 3.093l7.223 3.682l2.486 4.144l1.101 4.356l3.414 5.657l4.641 1.546l4.607 0.287l1.603 1.637l-0.237 -37.459l6.415 0.023l0.01 -25.927l-0.013 -9.731l0.02 -3.263l-6.393 -0.018l0.1 -38.607l-12.916 0.006l-19.372 -0.006l-6.528 -0.007l0.004 1.624l-6.466 0.015l0.002 1.603l-9.673 -0.005l0.004 -3.28l-6.551 0.001l-0.055 -3.215l-3.179 0.009l-0.027 -3.237l-6.542 -0.064l0.016 -9.769l-4.073 0.006l-0.431 2.526l-1.17 1.016l-1.257 -0.128l-2.158 0.583l-1.662 0.739l-0.263 1.022l1.936 1.038l0.274 1.662l-1.527 0.219l-1.079 0.002z" />
  </g>
  <g data-id="029">
    <path d="m821.584 1417.99l2.162 4.059l0.195 6.73l2.372 3.974l-0.995 4.519l-1.999 0.015l-1 4.337l0.654 6.059l0.588 2.598l3.745 5.56l1.338 5.872l3.379 0.228l4.461 -4.361l14.167 -0.001l0.271 4.724l1.753 1.312l-1.481 3.478l3.178 0.001l-0.014 8.586l3.959 0.774l0.806 3.232l0.101 20.367l3.157 0.033l0.254 7.726l1.577 0.002l0.03 9.528l1.567 -0.015l-0.026 6.369l22.137 0l1.69 -2.765l1.922 -0.384l0.801 3.208l18.036 0.108l3.139 -3.171l-0.48 -3.596l-3.404 -8.709l-1.03 -5.163l-1.87 -1.88l-2.111 -11.307l2.787 -2.85l2.845 -1.61l37.412 0.02l4.491 0.908l-0.247 3.31l3.721 2.135l6.339 1.845l2.928 -4.768l2.053 -5.686l1.195 -0.41l0.052 3.816l2.967 2.716l-2.312 13.909l-1.973 3.024l2.277 3.71l7.344 -0.227l2.923 1.349l1.904 -3.808l4.48 1.932l3.518 -2.141l2.338 0.497l5.233 -2.519l-0.625 -1.776l3.23 -1.092l0.112 -15.064l0.396 -30.683l-0.092 -33.481l0.025 -17.303l0.003 -2.417l0 -1.109l0.005 -1.23l-0.033 -9.624l-49.85 -0.391l-1.083 -0.144l-37.036 0.237l-57.702 -0.212l-18.681 -0.298l1.636 6.909l-1.769 2.462l-4.01 1.412l1.073 5.081l-3.337 -0.268l-3.981 1.574l-2.613 5.913l1.566 1.097l-2.538 3.213z" />
  </g>
  <g data-id="031">
    <path d="m477.07 1523.44l-0.194 18.954l0.783 73.186l28.127 0.054l7.366 0.006l2.178 0.027l1.054 0.02l7.714 0.222l16.234 1.007l11.468 -0.092l4.207 -0.136l5.089 -0.077l42.535 -0.725l11.174 -0.217l4.732 -0.079l7.197 0.066l2.829 -0.193l14.395 -0.187l40.327 -0.567l0.138 -71.639l-0.456 -56.972l-27.887 -0.32l0.08 -8.286l-3.308 -1.45l-6.658 1.893l-3.277 1.577l-0.788 -2.245l-6.812 -0.098l-9.083 -9.511l-2.002 -3.405l-6.201 2.894l-9.778 1.118l-3.469 -0.931l-10.245 3.684l-2.914 2.462l-1.488 4.477l-3.647 6.326l-2.296 2.139l-3.684 8.988l-1.61 2.044l-7.242 3.713l-6.49 -0.802l-3.073 -2.456l-0.843 -2.875l-2.678 -2.122l-1.512 0.175l-8.203 4.406l-5.797 -2.965l-2.172 0.032l-6.777 3.094l-8.762 0.307l-2.302 1.635l-10.757 2.609l-0.324 2.467l-0.013 18.815l-34.888 -0.046z" />
  </g>
  <g data-id="033">
    <path d="m685.21 1120.54l0.124 58.8l48.243 0.094l0.08 -19.407l86.912 0.154l19.618 0.095l0.105 -19.473l19.367 -0.065l-0.023 -9.771l9.016 0.007l-0.003 -9.826l0.902 -19.278l9.797 -0.006l-0.013 -19.084l28.097 0.08l0.023 -33.455l-10.35 -2.351l-3.653 -0.077l-0.861 2.263l-0.955 1.508l-3.503 0.109l-1.486 0.519l-2.027 1.584l-7.649 2.591l-0.247 2.397l-2.19 0.55l-3.396 -3.797l-1.089 -3.115l-3.421 -5.477l-2.798 0.14l-2.535 1.4l-7.158 0.103l-0.578 1.52l-4.728 3.028l-2.322 0.28l-3.003 -1.562l-3.042 -0.972l-0.23 2.02l-0.453 1.673l-2.66 -1.078l-2.513 -0.456l-3.919 1.607l-0.483 1.536l-1.686 0.539l-2.959 -1.742l-0.642 -1.759l-1.19 -0.817l-4.54 -0.397l-2.437 1.956l-6.774 -2.375l-1.255 -1.352l0.425 -1.3l-0.528 -1.702l-2.043 -1.207l-2.562 -0.323l-4.439 0.236l-3.461 2.45l-1.194 1.721l0.006 1.844l-5.45 0.726l-1.633 2.228l0.374 8.08l-0.375 1.548l-1.587 4.324l-3.004 4.315l-7.735 -3.199l-4.033 -3.05l-2.074 -0.976l-4.372 3.837l-1.839 -0.767l-1.155 -2.111l-3.729 -1.851l-1.382 -0.216l-3.703 0.892l-1.723 -0.087l-2.85 -2.181l-8.637 0.832l-1.464 0.2l-1.078 -1.089l-5.911 -2.659l-1.822 -0.299l-2.577 1.173l-2.246 1.792l-4.375 1.558l-3.369 4.432l-5.027 5.031l-1.265 4.477l2.281 3.436l1.498 3.423l-0.102 3.199l-0.106 33.267l-20.384 -0.878l-8.86 0.012z" />
  </g>
  <g data-id="035">
    <path d="m126.935 569.92l0.733 17.022l-0.018 15.436l0.613 -1.693l12.671 -0.593l0.03 7.864l7.927 6.879l1.832 5.744l17.987 -0.024l2.083 2.275l2.246 7.434l3.466 0.473l2.768 3.601l2.801 -2.218l6.157 0.388l6.038 3.529l6.326 9.43l6.802 4.106l3.099 -0.829l14.45 2.318l5.441 3.92l1.28 -1.416l4.513 1.044l0.867 -2.985l2.709 -1.037l1.327 -2.948l-0.928 -2.871l2.385 -2.428l1.38 -4.975l-0.425 -5.066l1.372 -2.495l7.079 -4.835l2.371 -4.525l5.191 -5.618l-0.82 -3.087l1.383 -5.215l61.663 -14.21l105.487 -23.604l-2.611 -0.779l-0.868 -1.512l0.231 -2.591l-1.217 -0.747l-2.198 -0.298l-0.53 -1.756l-0.384 -2.95l1.492 -1.004l1.395 -1.686l0.229 -4.07l-1.887 -1.775l-2.068 -3.404l-2.414 -1.403l-2.15 -0.357l-3.358 -0.557l-2.053 4.148l-1.229 1.93l-1.618 -0.072l-2.326 0.685l-1.539 3.233l-2.567 0.211l-0.529 -1.168l-2.518 -1.889l-0.413 -1.16l1.224 -3.499l1.019 -0.511l1.046 -1.557l0.278 -4.545l-2.774 -2.572l-0.633 -2.228l-1.573 0.246l-1.893 -1.171l-1.541 0.213l-1.952 -0.39l-1.135 -2.243l-1.296 -0.374l-2.465 -2.534l-0.187 -1.539l-2.921 0.012l-1.831 1.795l-1.193 -0.977l0.407 -1.902l-0.662 -1.577l-2.533 -0.663l-1.859 -1.893l-0.249 -2.258l0.659 -1.065l-0.919 -1.809l-1.788 -0.313l-1.164 -0.822l0.595 -1.852l1.877 -1.763l0.321 -1.545l-0.927 -3.604l1.429 -2.968l0.555 -1.921l-1.159 -0.431l-4.68 -2.44l-108.973 -0.792l-111.827 -0.308l-0.017 72.248l-20.414 -0.268z" />
  </g>
  <g data-id="037">
    <path d="m312.775 1042.27l-0.045 1.064l0.435 1.66l0.323 1.776l0.157 1.424l0.737 1.42l0.466 2.192l-0.044 1.585l1.715 1.56l0.299 1.426l1.591 -0.133l1.847 0.352l1.495 -0.661l0.616 1.602l1.018 0.765l-0.062 2.059l1.229 2.009l0.463 1.065l0.143 1.129l0.125 1.54l-1.115 1.011l0.53 1.098l0.846 1.262l-1.007 1.223l0.336 2.995l0.123 3.616l-0.812 2.987l-1.179 1.6l-1.303 4.306l-1.283 1.672l-1.074 2.391l-1.403 1.553l-1.495 1.011l-0.471 1.604l-0.797 1.297l-0.891 1.076l1.112 3.328l6.127 3.066l0.304 3.243l1.914 -2.573l3.759 0.937l1.557 4.829l3.882 -3.153l1.64 3.034l1.332 9.783l-2.305 0.937l1.946 4.898l-0.793 2.445l3.874 2.819l2.13 -0.427l3.635 4.982l3.997 -1.375l3.454 3.608l1.686 -1.155l4.372 2.202l1.135 3.176l-1.77 3.136l-3.001 1.668l4.226 4.849l3.627 0.036l-0.263 2.81l-3.217 1.293l-3.863 4.745l-0.738 4.717l2.546 4.108l4.032 1.383l1.413 -1.645l2.588 2.125l-0.378 5.01l2.832 1.515l-3.78 7.253l1.919 0.65l1.214 1.907l5.136 -3.331l1.37 -3.485l9.298 -5.429l9.597 0.002l0.013 14.604l21.392 0.015l5.929 3.012l1.792 2.658l4.38 1.962l3.659 4.144l0.238 5.292l3.168 1.584l5.469 -0.289l2.451 -3.927l-1.035 -1.894l1.919 -6.135l3.664 -1.212l1.698 1.788l4.973 -0.151l2.617 1.272l2.82 -0.927l8.18 4.806l2.542 -3.604l8.202 0.702l2.237 1.856l-0.824 4.018l1.322 6.655l5.501 4.552l9.94 4.665l3.246 3.457l2.863 0.042l0.714 4.009l3.341 3.56l7.578 1.262l2.737 -2.656l-0.064 -3.473l3.827 -2.505l3.789 1.67l3.568 7.189l1.554 5.692l3.627 2.33l2.979 4.1l3.562 1.736l1.051 4.874l4.773 -0.175l5.071 5.691l1.336 4.47l3.589 1.08l1.175 6.283l1.23 0.585l2.286 -2.601l3.726 -8.975l2.193 -1.612l3.848 -0.142l7.616 -7.235l5.612 -2.479l6.987 -5.073l4.256 -1.227l5.242 -4.334l1.841 0.307l2.202 -3.396l4.248 -1.041l1.077 -2.555l4.482 -4.009l1.394 -3.733l0.307 -5.263l4.897 -1.847l5.624 1.568l2.722 2.918l-1.964 -5.549l-1.991 -0.722l-0.907 -3.347l-3.133 -4.593l-7.404 -3.516l0.158 -4.705l1.59 -3.948l-0.068 -15.445l-1.388 -1.647l-0.51 -15.407l6.701 0.043l-0.041 -39.12l15.472 0.045l-2.291 -5.997l1.413 -2.831l-2.188 -9.905l-2.713 -2.888l-0.775 -3.733l-7.024 -8.312l-3.333 -9.116l-1.679 -0.873l-1.754 -5.491l-4.955 0.685l-3.971 5.859l-8.444 -1l-5.621 -3.852l-10.489 -1.375l-8.454 -5.621l-6.246 -1.395l-6.861 -3.008l-4.558 0.01l-4.538 -6.66l-8.88 -7.918l-3.371 -1.649l-8.743 -12.18l-1.573 0.07l-5.856 -7.653l-3.6 -8.213l-1.293 -5.078l-5.481 -10.095l-6.341 3.285l-1.84 2.53l-3.106 -3.392l-9.993 -0.362l0.113 -3.501l2.345 -3.641l-0.442 -4.936l1.315 -0.725l0.711 -7.893l-0.887 -5.663l-2.328 -0.063l-1.594 -3.636l-0.548 3.356l-6.043 3.323l-2.542 6.053l-3.522 0.801l-2.492 4.025l-4.652 1.845l-1.56 4.372l0.164 3.597l-4.338 3.459l-3.925 0.894l-0.4 4.559l5.45 2.213l-2.146 8.339l-3.644 3.762l-4.279 1.153l-2.116 4.49l-0.557 4.475l-4.123 3.98l-2.902 -2.231l-3.954 0.239l-3.309 4.601l-4.284 1.568l-5.708 -4.331l1.076 -5.399l-1.619 -3.676l-3.778 -4.07l-5.421 -2.108l-8.098 2.669l-4.543 -0.532l0.692 -3.904l-3.31 -5.635l-3.951 -4.35l-1.807 0.22l-3.945 -6.019l0.514 -6.121l2.678 -6.338l-2.37 -3.186l-1.251 0.622l-1.556 0.751l-1.146 0.649l-0.673 1.19l-0.584 1.324l-1 0.47l-1.77 0.819l-1.804 1.022l-1.321 1.153l-1.772 1.482l-0.601 1.404l-1.439 0.565l-1.742 1.386l-0.822 2.551l-0.929 1.259l-1.41 0.584l-1.483 0.759l-0.951 1.482l-2.181 -0.226l-1.148 -0.669l-1.148 -0.714l-1.137 -0.054l-1.475 0.339l-0.781 1.54l-1.164 1.475l-1.4 -1.526l-0.218 -1.682l0.1 -1.127l-0.044 -1.266l-1.443 0.107l-1.486 -0.414l-0.313 -1.51l-1.725 -1.276l-1.753 -0.656l-1.794 -0.823l-1.015 -1.456l-2.455 -0.737l-3.161 2.622l-1.988 1.471l-1.988 1.637l-1.418 2.477l-1.31 1.388l1.352 1.842l0.392 1.663l-1.398 2.881l0.109 1.311l-0.41 1.798l-0.301 1.285l-0.431 1.57l-0.739 1.262l-0.62 1.221l-0.161 1.579l-0.42 1.15l-1.525 0.963l-1.169 2.01l-1.603 0.875l-0.34 1.352l-1.148 0.341l-1.151 -0.643l-1.393 -0.157l-0.829 1.189l0.072 1.222l-1.016 -0.068l-2.271 -0.018l-1.565 0.715l-0.864 1.791l-1.49 -0.062l-1.138 -0.694l-1.218 1.602l-1.018 1.168l-0.405 1.077l-0.722 1.682l-1.177 1.341z" />
  </g>
  <g data-id="039">
    <path d="m157.565 1370.74l1.322 2.283l2.063 0.829l2.876 0.465l3.285 0.6l1.387 1.341l0.789 1.658l-1.865 1.808l-0.286 2.353l1.105 2.787l1.926 0.888l2.779 1.433l2.424 -0.395l1.401 0.433l1.201 1.579l-0.988 1.562l-0.711 1.143l1.317 1.121l1.147 -0.204l1.575 -0.09l2.893 2.703l1.593 1.449l0.942 1.518l1.813 0.389l2.464 -0.134l2.648 0.888l1.779 2.905l1.22 2.093l1.16 0.868l1.387 1.341l2.14 0.426l2.094 0.15l1.9 0.344l1.023 0.372l1.438 -1.59l-0.538 -1.657l-1.097 -2.093l0.612 -1.616l0.721 -2.36l1.409 -1.037l1.828 -0.72l1.143 -1.43l1.342 0.017l1.65 2.701l1.943 1.603l1.925 -0.177l1.502 -1.153l1.654 0.38l1.548 2.596l2.494 1.035l1.997 -0.322l1.729 -0.348l2.08 -0.093l2.072 -0.057l1.795 0.979l0.22 2.254l-1.165 1.212l1.302 2.056l1.911 0.867l2.663 0.423l1.694 -0.158l1.449 -0.846l1.963 0.725l2.414 -0.067l3.098 0.037l2.29 -0.58l1.566 -0.407l1.48 -0.673l1.746 -1.255l1.799 -0.628l2.295 0.031l1.728 1.515l0.824 1.517l1.238 0.973l1.498 0.19l1.304 -0.073l1.625 0.252l1.436 0.271l1.812 -1.283l3.448 -0.494l1.661 0.906l1.499 1.07l1.643 1.43l1.963 -0.221l2.293 -0.018l1.873 -0.104l1.453 0.034l1.953 1.531l0.01 8.525l-0.385 7.017l-1.674 1.255l0.018 13.009l-0.005 2.111l4.809 1.937l5.511 0.002l7.49 0.025l8.687 -0.008l12.357 -0.029l14.294 -0.073l10.506 -0.032l3.515 -0.02l-0.012 -31.557l-7.916 -0.594l0.112 -62.586l-0.068 -38.194l0.565 -52.017l2.834 1.042l3.524 -4.309l1.583 0.095l-0.498 -6.277l1.105 -3.072l-0.998 -2.778l4.423 -5.325l-0.139 -4.167l-1.363 -2.831l-1.726 0.063l-2.176 -3.928l0.67 -5.005l2.973 -12.282l2.515 -1.297l0.591 -5.029l1.814 -1.637l2.479 -1.968l-3.678 -10.531l4.087 -5.353l-1.214 -1.907l-1.919 -0.65l-3.416 -0.022l-4.274 -1.759l-4.683 3.793l-4.048 -4.44l1.146 -3.593l-3.879 1.253l-4.305 -2.882l-1.876 -4.256l-0.207 -8.596l-2.462 -7.787l-2.83 -3.296l-7.839 -1.849l3.751 3.474l1.646 3.311l-2.062 2.755l-0.974 5.314l-2.96 5.783l-2.848 2.488l-3.878 7.853l-1.709 5.559l-11.175 3.685l-1.682 -1.208l-9.511 3.454l-7.385 3.44l-4.741 0.924l-2.055 1.886l-2.025 5.406l-2.166 2.216l1.456 7.03l-2.818 5.209l-7.3 -1.256l-3.329 3.454l-0.511 4.324l-2.797 3.98l1.069 5.087l-2.982 5.044l-3.022 0.654l-5.318 7.128l-4.658 -0.583l-0.67 3.181l-3.835 2.386l-2.532 -1.617l-4.37 2.6l-5.446 7.433l-2.636 -0.611l-4.632 3.726l-3.405 -1.688l-2.472 1.503l-2.827 -0.773l-0.846 -2.822l-3.332 1.463l-0.116 2.699l-3.1 -0.421l0.135 50.331l-0.608 55.707l-46.384 0.257z" />
  </g>
  <g data-id="041">
    <path d="m825.367 1552.27l2.076 3.463l2.424 -0.13l2.398 5.226l2.011 1.678l0.112 14.942l-6.292 -0.058l-0.028 37.451l15.689 -0.163l10.839 -0.026l4.701 -0.011l6.347 -0.002l20.278 -0.174l1.787 -0.002l37.406 -0.039l-1.208 -14.988l-1.014 -1.284l-7.261 -1.875l-5.246 -3.465l1.921 -9.345l-3.348 -2.642l-2.926 -11.629l2.016 -4.406l-0.142 -3.903l2.396 -0.61l1.354 -3.146l4.684 -3.025l-3.914 -2.425l0.699 -4.819l-0.992 -3.413l5.827 -5.614l-1.053 -2.511l-3.782 -2.825l-0.331 -4.018l-2.413 0.759l-0.014 -5.383l-18.036 -0.108l-0.801 -3.208l-2.861 -0.014l-0.751 3.163l-22.137 0l-3.175 -0.008l-0.227 34.896l-14.064 -0.046l0.011 -6.336l-22.961 0.07z" />
  </g>
  <g data-id="043">
    <path d="m820.57 1160.18l-0.07 19.409l28.931 0.076l0.027 9.751l22.509 0.051l-0.045 6.47l22.509 0.081l0.035 3.237l22.42 0.03l0.009 -3.972l3.102 -1.667l1.26 -2.408l4.92 -2.229l3.631 0.296l1.862 2.542l6.769 1.383l4.265 -2.806l7.136 -5.648l3.007 1.792l1.279 3.292l2.95 1.311l4.768 -1.617l1.427 -2.694l2.776 0.044l2.695 -2.249l8.082 3.703l1.582 -1.696l10.287 -6.473l1.741 0.029l7.153 -3.556l1.851 0.19l-0.046 -3.691l-0.279 -4.519l0.053 -9.05l0.048 -12.224l-0.108 -2.268l-0.093 -51.492l0.088 -4.806l-0.011 -13.747l0.039 -8.647l-3.051 -1.504l-6.583 -1.615l-3.174 -2.683l-1.652 -3.874l1.009 -3.604l-3.67 -2.176l-3.007 -1.569l-1.128 -1.256l0.016 -2.134l-0.97 -1.513l-2.369 -1.013l-3.753 -0.178l-1.045 -2.271l-1.048 -5.098l2.184 -3.261l-4.6 -6.277l-2.68 0.867l-1.236 -1.896l1.324 -2.869l-5.965 -8.921l-2.894 -3.83l-1.959 -1.909l-1.839 1.448l-1.38 -0.248l-1.767 -2.443l-1.296 -2.711l-1.653 -1.098l-1.427 0.586l-0.637 1.32l-0.124 5.313l-2.532 2.861l-1.604 -0.745l-0.869 -1.39l-1.482 -0.09l-6.865 2.637l-1.288 0.904l-0.143 1.072l0.86 2.869l1.116 1.176l1.333 0.978l-0.558 2.859l-3.523 4.636l-1.457 0.014l-1.403 1.268l1.157 3.157l-2.527 2.249l-0.502 2.54l0.121 1.188l0.917 3.778l2.125 1.678l-0.503 1.565l0.4 1.331l2.156 0.315l3.684 1.984l0.234 1.703l-5.333 1.009l-2.473 0.52l-1.271 -2.404l-3.65 -1.972l-1.603 0.589l-1.006 -0.162l-3.702 -1.728l-2.498 1.955l-2.122 1.181l-0.507 33.345l-28.097 -0.08l0.013 19.084l-9.797 0.006l-0.902 19.278l0.003 9.826l-9.016 -0.007l0.023 9.771l-19.367 0.065l-0.105 19.473l-19.618 -0.095z" />
  </g>
  <g data-id="045">
    <path d="m85.576 1177.33l-0.028 38.985l19.372 0.006l12.916 -0.006l37.178 -0.046l1.444 -77.081l9.549 -0.036l0.155 -38.947l9.777 -0.033l-0.762 -39.384l-5.848 1.19l-3.232 -3.878l-3.316 6.683l-0.365 3.741l-3.2 -0.358l-7.082 4.908l-3.139 5.284l-0.48 7.712l-1.87 2.489l0.85 4.126l-3.025 8.031l0.924 2.573l-1.536 5.167l1.515 2.426l-1.562 8.823l1.315 4.506l-2.211 2.379l0.471 8.902l-0.704 3.7l-15.098 -0.058l-0.078 19.331l-12.834 -0.137l-0.009 12.83l-6.448 -0.083l-0.013 6.442l-22.627 -0.189z" />
  </g>
  <g data-id="047">
    <path d="m347.913 1351.77l-0.112 62.586l7.916 0.594l1.896 -1.297l10.597 0.623l0.897 2.157l5.806 5.289l2.764 4.843l-0.25 3.383l-1.803 3.826l-3.599 2.877l0.854 1.61l-1.521 3.192l1.16 5.379l4.106 -0.773l5.034 2.983l3.089 0.345l2.231 4.437l-1.036 4.706l4.156 2.115l-0.187 3.933l2.198 4.761l5.561 0.013l5.153 -1.972l10.23 3.022l4.921 -0.302l5.698 2.555l-0.147 -44.282l3.714 -0.003l-0.037 -76.662l-79.289 0.062z" />
  </g>
  <g data-id="049">
    <path d="m72.357 750.202l0.694 1.457l0.381 1.293l-0.182 1.743l0.096 1.114l0.912 1.517l3.109 2.036l1.309 -0.111l1.624 -1.003l1.443 -1.108l3.346 -0.138l1.142 0.383l1.673 0.987l1.786 3.363l1.108 2.945l2.386 2.681l3.065 0.504l1.081 -0.337l1.227 -0.857l4.354 0.916l1.941 0.573l2.513 2.546l2.9 2.853l1.671 0.567l1.922 3.571l-0.136 5.166l0.261 4.222l0.161 1.135l1.149 2.369l2.572 2.597l2.874 3.357l1.067 1.364l0.871 2.273l0.813 1.995l0.737 1.472l1.244 1.591l0.248 3.506l-2.953 5.737l-1.345 0.783l-2.013 1.818l-3.368 4.607l-1.91 4.958l-1.348 2.506l-1.555 3.473l-0.86 4.123l0.617 1.93l0.024 2.27l-1.115 0.395l-2.291 1.998l-1.975 2.208l-0.681 3.578l-0.812 3.352l-3.486 3.345l-1.222 2.337l-4.294 8.485l-3.313 6.786l-0.138 1.645l0.331 3.743l0.07 2.083l-0.092 1.319l-0.284 1.567l-1.051 1.291l-1 0.696l55.543 -0.044l1.964 6.5l2.898 6.439l1.879 6.15l-0.432 2.848l2.67 5.827l0.2 4.086l-2.933 2.187l-0.096 2.371l25.867 0.261l1.471 -3.753l-0.196 -2.978l2.39 -4.907l6.479 1.302l2.846 -2.842l2.552 -0.232l0.416 -2.544l4.214 -1.236l6.883 -8.333l1.869 3.596l-1.729 1.885l157.246 -0.365l49.512 -0.07l3.085 -8.353l8.203 -9.423l2.67 -1.483l2.282 -3.706l-1.712 0.364l-5.943 -5.349l-4.711 -5.457l-0.735 -4.506l-3.376 -1.455l-3.624 -6.302l-2.736 0.212l-4.068 -3.822l-1.451 -5.173l-3.884 -0.408l0.456 -6.862l-1.328 -2.318l0.779 -7.376l4.247 -0.726l5.371 4.963l4.665 -0.612l3.969 1.935l0.002 2.346l2.724 0.677l5.118 -11.085l5.896 -3.451l3.856 -3.555l2.034 -3.657l0.127 -4.47l0.686 -1.423l2.559 -3.586l-1.093 -2.269l-1.457 -0.606l-1.511 -2.84l-0.056 -1.338l4.497 -3.045l2.199 0.294l2.338 -2.217l1.292 -2.328l0.047 -2.44l-1.48 -0.96l0.12 -1.443l1.992 -3.074l-1.002 -2.887l-1.509 -2.172l-2.186 -0.506l-3.263 -3.462l-0.211 -3.272l-3.241 -4.004l1.724 -2.865l1.741 -1.202l2.431 -6.49l2.438 -1.82l-0.408 -1.34l0.347 -1.823l2.032 -1.737l2.045 -0.493l1.629 0.516l1.343 -0.391l2.021 -1.115l2.468 -1.644l2.749 0.946l2.227 1.295l1.031 -2.945l2.883 -4.003l0.174 -1.581l-1.273 -2.849l-1.493 -0.473l-1.428 -1.85l-2.902 -5.625l1.206 -1.94l1.243 -0.879l0.652 -1.036l1.165 -0.822l0.395 -1.297l-0.234 -1.29l-0.91 -1.012l-0.41 -1.502l-3.074 -2.132l-2.893 -0.255l-1.182 -1.616l-1.518 -0.342l-1.102 0.807l-2.309 -1.734l0.452 -1.813l1.638 -1.908l-1.037 -3.185l-2.122 0.502l-2.085 -0.62l0.24 -2.205l1.644 -1.646l4.368 -4.411l0.919 -2.833l0.293 -4.31l-2.317 -3.585l-2.954 -0.768l-4.526 -2.758l-0.671 -3.397l2.286 -5.614l3.471 -0.306l1.762 1.586l2.417 -1.672l1.792 -0.181l1.018 -1.188l0.438 -6.759l-0.97 -3.226l0.515 -1.035l-0.948 -4.671l-2.636 -1.759l-0.359 -4.322l0.88 -1.355l1.898 0.511l1.925 -0.668l2.261 -2.293l-0.995 -5.108l0.286 -1.224l2.895 -5.886l0.116 -1.352l0.38 -4.427l-0.147 -1.406l-1.753 -4.772l2.364 -3.307l3.271 -2.073l0.497 -1.244l0.189 -3.839l1.675 -1.009l-0.279 -1.703l-1.391 -1.722l0.592 -2.238l-0.561 -1.424l-1.838 -0.737l-0.907 -1.787l-0.538 -4.974l3.038 -1.576l1.487 0.769l3.681 -1.375l1.686 -2.802l-1.151 -2.306l0.768 -2.707l-0.442 -2.297l1.235 -3.093l1.255 -1.848l0.066 -1.377l-1.783 -2.583l3.206 -5.23l-0.063 -7.486l-0.266 -2.5l-1.163 -1.691l-4.487 -1.951l-5.634 0.994l-1.431 1.225l-1.214 0.509l-2.18 -0.748l-4.648 2.675l0.079 1.756l-1.909 1.84l-2.61 0.4l-2.982 -1.691l-3.002 -0.132l-4.24 -1.839l-3.582 1.333l-2.268 1.723l-1.711 0.255l-106.061 23.433l-61.663 14.21l-1.383 5.215l0.82 3.087l-5.191 5.618l-2.371 4.525l-7.079 4.835l-1.372 2.495l0.425 5.066l-1.38 4.975l-2.385 2.428l0.928 2.871l-1.327 2.948l-2.709 1.037l-0.867 2.985l-4.513 -1.044l-1.28 1.416l-5.441 -3.92l-14.45 -2.318l-3.099 0.829l-6.802 -4.106l-6.326 -9.43l-6.038 -3.529l-6.157 -0.388l-2.801 2.218l-2.768 -3.601l-3.466 -0.473l0.627 1.947l0.665 2.045l1.444 1.506l0.547 1.977l1.333 2.596l0.948 2.773l1.069 2.445l0.33 1.77l2.068 2.869l1.458 0.943l1.81 2.133l1.234 2.417l2.001 1.343l1.818 0.311l2.629 0.692l0.963 2.194l1.449 0.997l1.62 1.399l0.842 1.996l-1.46 0.975l-1.041 0.697l-1.102 0.694l-1.478 0.657l-1.353 0.345l-1.061 -0.201l-1.073 -0.062l-1.631 0.513l-1.253 0.147l-1.889 -0.244l-2.169 -0.29l-1.532 -0.245l-2.387 -0.602l-1.892 0.861l-1.113 1.775l-1.05 1.315l-0.542 1.108l-0.906 1.383l-1.469 0.895l-1.165 2.585l0.137 1.227l-0.269 1.966l-1.078 1.103l-2.518 -1.008l-2.03 -0.77l-1.078 0.47l-1.633 -0.79l-0.473 -1.002l-2.04 -0.936l-1.984 0.569l-1.069 -0.67l-1.725 -0.687l-1.261 0.942l-1.455 0.72l-1.857 -0.788l-1.365 -1.339l-1.262 -1.665l-1.498 -0.292l-1.016 -0.202l-1.066 -0.132l-1.369 0.159l-1.079 0.038l-1.666 -0.443l-1.409 -0.275l-1.885 -0.549l-1.733 -0.871l-1.448 -1.35l-1.185 -0.469l-1.386 0.472l-1.273 0.833l-1.042 -0.151l-1.002 1.553l-0.174 1.095l-0.35 1.892l-1.016 1.726l-0.24 1.486l-0.927 1.504l-0.543 1.81l-1.026 1.334l0.259 1.604l0.403 1.849l-0.301 1.473l-1.411 0.084l-1.51 -0.186l-1.506 -0.454l-1.098 -1.277l-0.371 1.283l0.009 5.437l-0.015 4.651l-0.005 2.985l0.005 2.373l-0.042 1.949l-0.27 1.498l0.149 1.359l-0.531 1.657l-0.951 1.45l-0.527 1.502l0.321 1.035l0.219 1.008l-0.269 1.139l-1.389 1.113l-1.303 -0.344l-1.291 -1.003l-1.532 -1.324l-0.959 -1.412l-1.774 -1.763l-1.395 -1.052l-1.01 -0.486l-1.161 -0.605l-1.113 -0.226l-1.052 0.398l-1.065 -0.824l-1.621 -0.042l-1.785 0.419l-1.188 1.916l0.356 2.955l0.447 2.204l-0.529 1.402l-1.804 1.512l-2.256 -1.039l-2.177 -0.551l-1.204 0.046l-1.401 0.33l-7.731 8.37l-1.276 4.428l4.307 11.129l-3.209 5.751l-7.133 3.045z" />
  </g>
  <g data-id="051">
    <path d="m733.307 1218.39l-0.033 38.996l9.337 -0.765l19.256 -0.011l86.494 0.062l57.682 -0.091l0.017 -6.346l-14.746 -0.022l-4.255 -2.863l-2.747 0.183l-2.797 -1.929l-4.154 -5.795l-2.653 -0.505l-1.723 -2.779l-4.371 -0.427l-2.432 -4.108l-4.662 -2.269l-0.997 -2.936l-1.782 0.945l-1.713 -2.459l-2.726 3.659l-3.259 0.569l-2.665 -1.26l0.977 -9.702l0.1 -29.117l-0.027 -9.751l-28.931 -0.076l0.07 -19.409l-86.912 -0.154l-0.08 19.407l-0.27 38.954z" />
  </g>
  <g data-id="053">
    <path d="m423.525 1428.38l0.147 44.282l2.389 1.647l10.055 1.859l11.878 7.373l4.017 0.834l10.58 -0.496l3.984 2.097l2.839 3.504l4.128 0.178l3.245 2.179l6.856 0.562l10.522 5.892l1.087 3.424l3.672 4.127l3.165 0.639l2.58 -2.563l3.003 -0.327l4.646 -3.226l3.949 -1.293l2.179 0.999l4.607 -0.475l2.302 -1.635l8.762 -0.307l0.018 -50.394l-19.078 0.004l0.018 -9.547l-47.715 -0.134l0.001 -3.19l-3.174 -0.011l-0.006 -5.979l-36.94 -0.024l-3.714 0.003z" />
  </g>
  <g data-id="055">
    <path d="m32.326 301.155l0.091 3.868l0.063 2.202l-0.001 3.168l0.007 3.91l0.016 5.561l0.016 1.2l0.049 13.076l0.045 11.83l-0.052 3.728l0.07 6.122l0.032 1.277l0.005 1.245l0.092 10.632l-0.004 3.463l0.004 6.78l0 5.358l0.011 3.176l-0.047 5.762l0.017 2.113l36.982 -0.067l-0.002 -3.418l9.872 -1.246l2.323 -0.007l-0.029 3.445l17.152 0.004l-0.008 -6.884l6.875 0.014l-0.01 -3.437l24.245 0.47l17.233 -0.307l-0.021 -114.073l-28.32 0.06l0.125 -24.378l-20.758 -0.027l-0.051 3.438l-10.476 -0.014l-55.486 -0.039l-0.015 2.676l-0.001 1.922l-0.017 28.716l0.076 3.991l-0.01 10.511l-0.068 2.905l-0.022 1.272z" />
  </g>
  <g data-id="057">
    <path d="m32.804 523.632l-0.028 2.441l0.069 27.138l-0.042 37.219l51.71 -0.273l3.671 -10.504l1.354 -0.214l4.724 -5.525l6.07 -4.133l6.288 0.284l20.314 -0.145l20.414 0.268l0.017 -72.248l0.003 -20.627l-20.776 -0.043l0.016 -3.431l-50.489 0.967l-10.347 0.014l0.027 -3.081l-1.92 -0.414l-5.819 -4.54l-2.115 -2.725l-4.677 -0.869l-3.095 3.396l-2.11 -0.869l-3.225 -4.317l1.566 -6.188l-5.369 -3.616l-6.259 0.763l0.026 71.272z" />
  </g>
  <g data-id="059">
    <path d="m391.761 1000.16l-0.514 6.121l3.945 6.019l1.807 -0.22l3.951 4.35l3.31 5.635l-0.692 3.904l4.543 0.532l8.098 -2.669l5.421 2.108l3.778 4.07l1.619 3.676l-1.076 5.399l5.708 4.331l4.284 -1.568l3.309 -4.601l3.954 -0.239l2.902 2.231l4.123 -3.98l0.557 -4.475l2.116 -4.49l4.279 -1.153l3.644 -3.762l2.146 -8.339l-5.45 -2.213l0.4 -4.559l3.925 -0.894l4.338 -3.459l-0.164 -3.597l1.56 -4.372l4.652 -1.845l2.492 -4.025l3.522 -0.801l2.542 -6.053l6.043 -3.323l0.548 -3.356l1.594 3.636l2.328 0.063l0.887 5.663l-0.711 7.893l-1.315 0.725l0.442 4.936l-2.345 3.641l-0.113 3.501l9.993 0.362l3.106 3.392l1.84 -2.53l6.341 -3.285l5.481 10.095l1.293 5.078l3.6 8.213l5.856 7.653l1.573 -0.07l8.743 12.18l3.371 1.649l8.88 7.918l4.538 6.66l4.558 -0.01l6.861 3.008l6.246 1.395l8.454 5.621l10.489 1.375l5.621 3.852l8.444 1l3.971 -5.859l4.955 -0.685l1.754 5.491l1.679 0.873l3.333 9.116l7.024 8.312l0.775 3.733l2.713 2.888l2.188 9.905l-1.413 2.831l2.291 5.997l52.507 -0.217l8.86 -0.012l20.384 0.878l-0.063 -33.033l-1 1.381l-3.931 2.871l-1.7 -0.396l-4.254 -4.59l-0.491 -4.074l-5.319 -1.587l-5.446 -2.891l-4.861 -3.633l-3.526 -3.736l-0.533 -4.724l-1.902 -2.251l-1.211 -3.469l1.468 -1.575l1.648 -3.271l-0.059 -1.702l-5.671 -3.664l-0.605 -1.997l1.223 -1.716l0.163 -1.316l-3.8 -2.936l-1.498 -2.9l-1.956 -1.259l-0.216 -1.479l1.623 -2.653l1.317 -0.785l1.423 -0.287l1.197 -2.43l-0.348 -1.716l-2.272 -2.816l-0.438 -1.588l-0.341 -2.601l0.43 -1.126l-0.456 -1.554l-1.826 -2.662l-2.606 -1.381l-0.498 -2.519l-0.159 -4.642l-2.377 -2.061l-2.895 -3.329l-0.465 -1.669l1.019 -1.052l-0.011 -1.84l-1.478 -0.877l-2.837 -0.943l-3.413 -1.43l-0.65 -1.46l-1.769 -1.952l-2.462 -1.573l-4.695 -1.154l-1.361 -2.002l-5.035 2.329l-2.976 2.125l-7.239 4.206l-1.989 -1.566l1.184 -1.626l-1.512 -4.751l-3.387 -3.093l-3.115 -1.025l-4.183 -0.561l-5.624 -7.692l-2.885 -7l-2.591 -5.154l-1.23 -3.365l0.693 -1.432l2.195 -0.39l2.157 0.512l2.986 -1.25l0.835 -1.447l-0.174 -3.705l-0.347 -1.937l0.021 -3.172l1.477 -1.921l-1.965 -6.435l-0.226 -2.178l-0.106 -3.32l-1.389 -1.286l-2.966 0.543l-1.606 -2.175l-5.078 -4.114l1.259 -2.106l1.051 -2.06l-0.612 -1.533l-3.059 -0.361l-3.333 0.787l-4.06 -3.499l0.835 -2.876l-4.055 -5.729l0.765 -2.506l-1.551 -3.233l-6.03 -5.006l-1.695 -3.503l-0.43 -1.472l-1.123 -1.541l-1.388 -1.106l-1.416 -0.721l-1.7 -0.984l-1.144 -2.632l0.078 -1.311l0.561 -1.26l-0.207 -1.637l-7.459 -9.567l-0.505 -1.027l-0.237 -3.637l0.753 -4.395l0.506 -4.666l-0.113 -1.175l-4.489 -3.751l-2.151 -0.063l-0.449 -2.035l2.05 -1.575l-0.041 -2.05l-3.013 -4.698l3.002 -5.949l0.712 -2.038l-1.092 -3.558l-0.156 -3.957l-1.673 -0.966l-2.939 -0.011l-1.011 0.07l-1.015 0.748l-4.099 -0.189l2.369 -10.502l2.574 -3.153l0.376 -1.099l-0.222 -1.81l-0.609 -2.194l-2.636 -2.384l-6.184 -2.577l-3.968 1.531l-3.014 -1.15l0.419 -2.777l0.789 -1.716l-0.546 -1.562l-1.711 -1.189l-3.28 -4.582l-1.113 -5.226l-3.625 1.319l-1.464 -1.708l-2.69 -1.612l-4.674 1.949l-0.79 3.442l0.075 2.514l1.014 2.791l-0.797 2.22l-2.375 -0.003l-5.511 4.827l-2.286 3.777l-0.219 1.691l0.169 1.623l-0.723 1.332l-2.214 1.112l-3.551 0.483l-1.475 2.262l0.462 1.256l-1.072 2.657l-3.16 1.048l-4.066 0.342l-1.037 1.357l-1.021 2.06l-1.752 0.236l-3.916 -2.499l-3.255 0.126l-0.599 1.857l0.589 1.056l0.058 2.059l-2.225 6.552l-1.468 2.232l-1.371 1.265l-8.711 4.899l-1.904 -0.138l-2.532 -3.266l-0.791 -3.75l-3.71 -2.873l-4.385 -1.577l-3.74 -6.06l-1.915 -1.486l-1.561 -4.32l-2.132 -0.46l-3.939 1.798l-1.317 -0.862l-1.842 -2.054l-1.341 -0.609l-3.78 2.346l-1.537 -1.179l-2.034 3.657l-3.856 3.555l-5.896 3.451l-5.118 11.085l-2.724 -0.677l-0.002 -2.346l-3.969 -1.935l-4.665 0.612l-5.371 -4.963l-4.247 0.726l-0.779 7.376l1.328 2.318l-0.456 6.862l3.884 0.408l1.451 5.173l4.068 3.822l2.736 -0.212l3.624 6.302l3.376 1.455l0.735 4.506l4.711 5.457l5.943 5.349l1.712 -0.364l-2.282 3.706l-2.67 1.483l-8.203 9.423l-3.085 8.353l-4.526 3.92l-0.241 4.576l-1.406 2.036l1.74 6.89l-1.889 6.064l2.011 1.271l-1.05 2.21l0.76 8.575l-0.818 3.592l0.724 4.721l-1.994 7.519l0.109 5.322l1.86 3.321l-1.984 2.298l1.981 7.544l-1.816 2.83l-4.473 0.722l-1.213 2.373l1.313 1.486l-0.962 3.854l-4.328 1.673l-2.895 5.908l2.37 3.186l-2.678 6.338z" />
  </g>
  <g data-id="061">
    <path d="m85.416 641.027l0.516 6.567l1.229 1.332l3.11 11.374l-3.089 1.204l0.155 40.532l-0.038 15.644l1.5 -0.532l1.204 -0.046l2.177 0.551l1.303 0.902l2.064 -0.538l1.222 -2.239l-0.447 -2.204l-0.356 -2.955l1.188 -1.916l1.785 -0.419l1.621 0.042l1.065 0.824l1.052 -0.398l1.113 0.226l1.161 0.605l1.01 0.486l1.004 0.324l1.186 1.573l1.376 1.561l1.234 1.562l1.641 0.845l1.228 1.175l1.402 -0.435l0.841 -1.959l-0.219 -1.008l-0.321 -1.035l0.527 -1.502l0.951 -1.45l0.367 -1.305l0.015 -1.711l0.27 -1.498l0.042 -1.949l-0.005 -2.373l0.005 -2.985l0.015 -4.651l-0.009 -5.437l0.371 -1.283l1.098 1.277l1.506 0.454l1.51 0.186l1.411 -0.084l0.301 -1.473l-0.476 -1.2l0.067 -1.564l0.186 -1.379l0.75 -1.64l1.052 -1.606l0.501 -1.281l0.633 -1.675l0.456 -2.072l0.445 -1.883l0.381 -1.141l1.135 -0.205l1.14 -0.384l1.173 -1.007l1.539 0.114l1.302 1.179l1.604 1.146l1.818 0.706l1.607 0.089l1.512 0.801l1.897 -0.086l1.369 -0.159l1.066 0.132l1.016 0.202l1.498 0.292l1.262 1.665l1.365 1.339l1.013 0.454l2.299 -0.386l1.261 -0.942l1.178 0.34l1.616 1.017l1.118 -0.138l1.934 -0.104l1.445 1.611l1.633 0.79l1.078 -0.47l1.063 0.418l2.533 1.462l1.402 -0.368l0.897 -2.803l-0.137 -1.227l0.409 -1.629l1.414 -1.481l1.456 -0.924l0.803 -1.937l1.05 -1.315l1.113 -1.775l1.181 -0.471l2.25 -0.545l2.38 1.002l2.169 0.29l1.889 0.244l1.253 -0.147l1.008 -0.223l1.696 -0.228l1.061 0.201l1.353 -0.345l1.478 -0.657l1.102 -0.694l1.041 -0.697l1.46 -0.975l0.1 -1.126l-2.562 -2.269l-1.449 -0.997l-0.963 -2.194l-2.629 -0.692l-1.818 -0.311l-2.001 -1.343l-1.234 -2.417l-1.81 -2.133l-1.458 -0.943l-2.068 -2.869l-0.33 -1.77l-1.069 -2.445l-0.948 -2.773l-0.985 -1.603l-0.895 -2.97l-1.444 -1.506l-0.665 -2.045l-0.627 -1.947l-2.246 -7.434l-2.083 -2.275l-17.987 0.024l-1.832 -5.744l-7.927 -6.879l-7.923 -0.248l3.176 7.054l4.937 5.027l1.179 12.931l-1.317 4.174l-2.896 0.573l-2.459 -1.416l-3.241 0.942l-7.546 -1.914l-3.812 2.854l0.458 3.08l-36.104 0.014z" />
  </g>
  <g data-id="063">
    <path d="m427.202 1351.71l0.037 76.662l36.94 0.024l0.006 5.979l3.174 0.011l-0.001 3.19l47.715 0.134l-0.018 9.547l19.078 -0.004l27.071 0.114l0.007 -18.758l8.029 0.02l-0.096 -77.237l-106.512 0.032l-35.429 0.287z" />
  </g>
  <g data-id="065">
    <path d="m849.357 1218.54l-0.977 9.702l2.665 1.26l3.259 -0.569l2.726 -3.659l1.713 2.459l1.782 -0.945l0.997 2.936l4.662 2.269l2.432 4.108l4.371 0.427l1.723 2.779l2.653 0.505l4.154 5.795l2.797 1.929l2.747 -0.183l4.255 2.863l14.746 0.022l-0.017 6.346l9.678 -0.018l5.526 1.072l21.295 0.011l-0.166 -58.25l0.325 -8.97l-4.265 2.806l-6.769 -1.383l-1.862 -2.542l-3.631 -0.296l-4.92 2.229l-1.26 2.408l-3.102 1.667l-0.009 3.972l-22.42 -0.03l-0.035 -3.237l-22.509 -0.081l0.045 -6.47l-22.509 -0.051l-0.1 29.117z" />
  </g>
  <g data-id="067">
    <path d="m534.133 1447.26l-0.018 50.394l6.777 -3.094l2.172 -0.032l5.797 2.965l8.203 -4.406l1.512 -0.175l2.678 2.122l0.843 2.875l3.073 2.456l6.49 0.802l7.242 -3.713l1.61 -2.044l3.684 -8.988l2.296 -2.139l3.647 -6.326l1.488 -4.477l2.914 -2.462l10.245 -3.684l3.469 0.931l0.004 -39.512l9.52 0.007l-0.118 -77.378l-48.516 0.017l0.096 77.237l-8.029 -0.02l-0.007 18.758l-27.071 -0.114z" />
  </g>
  <g data-id="069">
    <path d="m29.074 631.736l0.006 2.726l0.33 1.078l1.446 1.211l1.011 0.314l1.777 0.273l1.081 0.6l0.812 2.28l-0.038 2.059l0.367 1.257l2.126 2.217l1.649 0.502l1.204 0.877l0.833 1.562l-1.01 2.879l0.565 1.752l1.829 1.6l0.929 1.114l0.574 1.006l1.281 3.406l0.571 2.668l-0.124 1.143l-0.548 1.437l-1.081 2.415l0.046 1.407l2.166 2.308l1.725 1.976l2.866 3.288l0.436 1.427l-2.293 5.203l-2.075 3.855l-0.427 1.636l-0.046 1.79l-0.645 2.076l-3.032 1.054l-1.241 1.122l-0.035 1.853l0.488 1.141l1.44 0.753l1.1 0.201l2.359 1.854l0.953 1.612l1.766 4.962l1.404 4.962l0.698 4.277l0.434 1.036l0.739 1.509l2.98 3.37l0.983 3.662l1.796 3.157l0.976 4.919l0.502 1.586l1.089 2.247l2.621 3.475l2.185 1.36l1.745 1.267l3.731 5.205l7.39 -2.505l3.209 -5.751l-4.307 -11.129l1.276 -4.428l7.632 -8.168l0.038 -15.644l-0.155 -40.532l3.089 -1.204l-3.11 -11.374l-1.229 -1.332l-0.516 -6.567l36.104 -0.014l-0.458 -3.08l3.812 -2.854l7.546 1.914l3.241 -0.942l2.459 1.416l2.896 -0.573l1.317 -4.174l-1.179 -12.931l-4.937 -5.027l-3.176 -7.054l7.923 0.248l-0.03 -7.864l-12.671 0.593l-0.613 1.693l0.018 -15.436l-0.733 -17.022l-20.314 0.145l-6.288 -0.284l-6.07 4.133l-4.724 5.525l-1.354 0.214l-3.671 10.504l-51.71 0.273l-0.018 16.389l0.005 2.125l-0.011 8.615l0.825 1.775l-0.137 1.943l-0.999 3.466l-0.835 3.652l-1.71 1.913l-0.85 1.428z" />
  </g>
  <g data-id="071">
    <path d="m684.424 1543.07l-0.012 71.639l3.359 -0.008l11.232 -0.115l4.391 -0.028l7.943 -0.092l7.192 -0.073l12.77 -0.136l9.897 0l31.81 -0.14l10.428 -0.037l19.556 0.029l4.166 -0.049l7.441 0.011l3.165 0.998l1.392 -0.028l8.903 -0.195l0.042 -37.451l6.292 0.058l-0.112 -14.942l-2.011 -1.678l-2.398 -5.226l-2.424 0.13l-2.076 -3.463l-1.873 -2.294l-2.937 0.278l-0.797 -3.054l-4.023 -6.309l-0.768 -2.935l-11.07 0.026l-2.641 7.003l-2.516 0.393l-2.228 -2.11l-3.556 0.581l-0.285 -5.1l3.891 -7.092l1.757 -1.535l0.496 -8.824l-1.042 -5.849l-7.37 1.357l-0.492 -4.215l-3.142 -0.012l-2.378 -3.165l-0.692 -4.721l-5.698 0.004l-12.632 0.016l0.047 19.015l-25.186 -0.037l-0.006 19.06l-55.801 0.315z" />
  </g>
  <g data-id="073">
    <path d="m34.846 1257.86l0.034 2.309l0.005 1.951l-0.02 1.309l0.019 3.866l0.02 122.694l0.064 47.946l-0.067 40.082l0.018 53.893l0.068 4.664l-0.011 41.584l-0.064 7.212l0.079 3.395l-0.016 25.584l1.275 0.115l1.458 0.268l6.468 -0.188l55.228 0.269l6.425 0.083l9.939 -0.041l2.398 0.1l1.405 -0.052l2.568 0.103l3.596 0.068l15.332 0.058l5.761 -0.217l27.233 -0.059l20.216 0.02l1.266 0.013l1.902 -0.079l1.087 -0.062l4.087 -0.105l16.012 0.105l1.293 0.034l1.519 0.244l39.401 -0.141l6.301 0.115l44.032 0.17l9.605 -0.134l34.87 0.154l0.07 -66.414l0.005 -102.261l-3.515 0.02l-10.506 0.032l-14.294 0.073l-12.357 0.029l-8.687 0.008l-7.49 -0.025l-5.511 -0.002l-4.809 -1.937l0.005 -2.111l-0.018 -13.009l1.674 -1.255l0.385 -7.017l-0.01 -8.525l-1.953 -1.531l-1.453 -0.034l-1.873 0.104l-2.293 0.018l-1.963 0.221l-1.643 -1.43l-1.499 -1.07l-1.661 -0.906l-2.546 0.311l-1.721 0.716l-2.429 0.479l-1.625 -0.252l-1.304 0.073l-1.498 -0.19l-1.238 -0.973l-0.824 -1.517l-1.728 -1.515l-2.295 -0.031l-1.799 0.628l-1.746 1.255l-1.48 0.673l-1.566 0.407l-2.29 0.58l-3.098 -0.037l-2.414 0.067l-1.963 -0.725l-1.449 0.846l-1.694 0.158l-2.663 -0.423l-1.911 -0.867l-1.302 -2.056l1.165 -1.212l-0.22 -2.254l-1.795 -0.979l-2.072 0.057l-2.08 0.093l-1.729 0.348l-1.997 0.322l-2.494 -1.035l-1.548 -2.596l-1.654 -0.38l-1.502 1.153l-1.925 0.177l-1.943 -1.603l-0.924 -2.096l-2.068 -0.622l-1.143 1.43l-1.828 0.72l-1.409 1.037l-0.721 2.36l-0.612 1.616l1.097 2.093l0.538 1.657l-0.499 1.35l-1.962 -0.132l-1.9 -0.344l-2.094 -0.15l-2.14 -0.426l-1.387 -1.341l-1.16 -0.868l-1.22 -2.093l-1.779 -2.905l-2.648 -0.888l-2.464 0.134l-1.813 -0.389l-0.942 -1.518l-1.593 -1.449l-2.893 -2.703l-1.575 0.09l-1.147 0.204l-1.317 -1.121l0.711 -1.143l0.988 -1.562l-1.201 -1.579l-1.401 -0.433l-2.424 0.395l-2.779 -1.433l-1.926 -0.888l-1.105 -2.787l0.286 -2.353l1.05 -0.97l0.026 -2.496l-1.387 -1.341l-3.285 -0.6l-2.876 -0.465l-2.063 -0.829l-1.509 -1.673l-0.322 -1.702l-4.933 -0.443l-3.14 -5.472l-2.123 -0.986l-0.56 -2.861l-2.533 -0.76l-5.518 -6.364l0.259 -5.207l1.338 -3.095l-2.02 -4.89l-1.994 -1.558l-1.501 -5.365l-2.424 -2.021l-7.55 0.516l-4.692 2.014l-1.731 -1.859l-1.603 -1.637l-4.607 -0.287l-4.641 -1.546l-3.414 -5.657l-1.101 -4.356l-2.486 -4.144l-7.223 -3.682l-1.473 -3.093l-8.426 -7.992l-2.518 -4.15l-5.969 -5.208l-0.578 -8.074l0.75 -2.668l-3.188 -4.68l-2.553 -6.56l-4.697 -3.777l-4.273 0.505l-6.464 -2.438l-2.016 -3.728l-5.044 -3.535l-2.08 -7.075l-5.873 -1.252l-3.551 -1.734l-0.015 1.178l0.009 2.484l-0.007 7.295l-0.032 1.511z" />
  </g>
  <g data-id="075">
    <path d="m43.069 1196.55l-0.589 3.451l4.073 -0.006l-0.016 9.769l6.542 0.064l0.027 3.237l3.179 -0.009l0.055 3.215l6.551 -0.001l-0.004 3.28l9.673 0.005l-0.002 -1.603l6.466 -0.015l-0.004 -1.624l6.528 0.007l0.028 -38.985l22.627 0.189l0.013 -6.442l6.448 0.083l0.009 -12.83l12.834 0.137l0.078 -19.331l-71.791 -0.255l-4.929 9.699l-0.971 2.111l-1.52 1.343l-2.238 0.52l-1.644 0.181l-1.137 0.593l0.038 7.775l0.244 1.098l2.622 1.32l2.078 1.625l0.971 1.407l0.422 1.25l-0.329 2.961l-1.031 2.035l1.093 2.234l-0.292 1.566l-3.496 0.373l-1.431 1.221l-1.147 0.799l0.97 1.418l1.015 -0.195l0.604 1.04l-0.236 1.036l-0.035 1.463l-0.597 1.999l-0.617 1.016l1.454 1.917l-0.018 2.11l-3.141 1.338l0.363 2.114l0.146 1.012l0.065 1.286z" />
  </g>
  <g data-id="077">
    <path d="m645.144 1371.04l1.042 57.94l0.012 18.896l9.366 -0.031l0.039 19.078l-9.389 0.033l-0.02 10.977l6.658 -1.893l3.308 1.45l-0.08 8.286l27.887 0.32l0.18 56.971l56.077 -0.314l0.006 -19.06l25.186 0.037l-0.047 -19.015l12.632 -0.016l0.689 -14.262l4.739 -0.787l-0.523 -11.527l1.572 -4.771l-6.19 -0.02l0.002 -6.337l-3.143 0.011l-0.068 -4.763l-3.159 0.005l-0.038 -7.948l-6.316 -0.011l-0.051 -12.68l-3.147 -0.021l-0.629 -26.827l-6.242 -10.632l-4.793 -2.777l-2.178 3.096l-2.737 -0.31l-3.932 4.187l-9.397 1.459l0 2.067l-4.07 2.23l-1.631 2.296l-1.612 -1.614l2.485 -6.025l-2.981 -2.521l-2.511 3.794l0.792 2.356l-2.902 2.155l-0.073 4.542l-2.408 3.463l-2.025 -1.126l-1.523 4.26l-30.838 0.04l0.008 -54.66l-38.03 -0.003z" />
  </g>
  <g data-id="079">
    <path d="m147.34 239.454l0.01 30.667l0.021 114.073l-0.002 93.119l-0.003 20.627l110.853 0.19l110.153 0.228l-1.574 -1.39l-2.799 -3.092l-2.099 -3.347l-0.296 -1.387l-4.373 -0.888l-3.141 1.449l-1.836 -4.677l-1.067 -2.728l-1.481 -5.91l-2.098 -4.745l-1.289 -0.494l-1.344 0.046l-3.9 -4.552l-2.098 -4.705l0.112 -2.216l-0.456 -1.143l-2.434 -0.411l-2.163 -1.036l-1.023 -2.388l-1.313 -2.971l-2.618 -2.37l-2.997 -2.132l-3.489 -0.47l-1.79 -2.684l-0.295 -2.636l-1.031 -2.025l-4.12 -0.712l-2.005 -0.764l-0.134 -1.158l0.863 -3.001l-0.469 -4.768l-1.323 -0.979l-1.716 -1.334l-1.097 -2.497l0.828 -2.057l-3.201 -1.867l-3.238 0.622l-4.041 -1.779l-3.721 0.71l-1.903 -1.497l-0.241 -1.312l-1.671 -0.878l-3.539 0.526l-0.774 -1.182l-1.77 -0.925l-1.885 1.106l-4.51 -2.692l-3.293 -2.311l-1.779 -5.938l-1.724 -1.577l0.252 -3.04l-1.177 -1.384l-1.506 0.101l-1.756 -1.111l-0.09 -2.265l-6.476 -3.738l-4.077 1.107l-2.402 -5.376l-2.638 -0.547l-0.27 -1.526l-3.704 -1.684l-2.385 0.005l-1.289 -2.113l-2.578 -0.173l-1.865 0.67l-1.71 -0.247l1.881 -4.333l2.927 -0.985l1.828 -1.392l5.837 -1.136l1.399 0.719l3.906 -0.615l1.559 -1.165l1.59 -4.417l-3.026 0.449l-1.899 -0.078l-1.173 -2.428l-2.466 1.017l-1.731 -4.259l-2.819 -3.455l0.146 -1.737l2.252 -1.05l-1.608 -1.639l-1.762 0.207l-3.755 -1.086l-1.983 -1.172l-0.444 -1.946l3.942 -4.316l1.389 -0.995l2.749 -1.623l1.968 -4.51l-0.259 -5.831l-2.175 -2.65l-3.538 -1.697l-1.016 -3.02l1.458 -5.571l0.702 -4.197l-1.272 -2.13l-2.059 -1.842l-2.484 -1.707l-2.398 0.311l-1.567 -2.726l0.309 -3.559l-2.484 -3.01l-1.056 -0.442l-3.479 1.422l-1.073 -0.763l-0.582 -1.241l0.015 -2.076l-0.865 -2.599l-1.105 -1.15l-0.122 -5.376l0.339 -1.506l-0.925 -3.191l-3.109 -1.988l-0.664 -1.882l-1.01 -1.538l-3.224 1.525l-1.138 -2.159l-1.212 -0.328l-3.75 -6.835l-3.837 -3.914l-0.328 -2.829l-2.916 -1.753l-0.979 -1.607l-0.939 -2.344l-1.966 -3.062l-0.045 -1.077l-3.694 -5.26l-1.309 0.307l-1.71 -1.324l-2.101 -4.509l-6.661 -4.033l-2.699 -5.106l-6.726 2.863l-7.301 -5.992l-4.192 -5.424l-6.455 1.695l-9.109 10.65z" />
  </g>
  <g data-id="081">
    <path d="m942.377 1199.4l0.166 58.25l25.152 0.027l2.864 3.448l-0.043 3.613l3.031 10.307l1.407 0.918l4.334 -1.627l4.593 0.086l2.808 3.275l6.483 2.338l2.047 -1.327l2.803 1.755l1.714 4.104l-0.042 -18.256l-0.039 -16.939l-0.028 -4.888l-0.027 -1.066l-0.06 -8.088l-0.002 -1.001l-0.045 -19.945l0.032 -20.704l-0.065 -14.92l-0.024 -1.901l-1.851 -0.19l-7.153 3.556l-1.741 -0.029l-10.287 6.473l-1.582 1.696l-8.082 -3.703l-2.695 2.249l-2.776 -0.044l-1.427 2.694l-4.768 1.617l-2.95 -1.311l-1.279 -3.292l-3.007 -1.792l-7.136 5.648l0.005 8.164z" />
  </g>
  <g data-id="083">
    <path d="m355.725 1548.77l-0.07 66.414l1.028 0.001l18.969 -0.847l2.416 0l3.764 -0.306l7.226 -0.193l3.983 0.084l13.819 0.779l19.751 0.807l16.132 -0.019l4.949 -0.194l29.958 0.277l-0.774 -73.186l0.194 -18.954l34.888 0.046l0.013 -18.815l0.324 -2.467l10.757 -2.609l-4.607 0.475l-2.179 -0.999l-3.949 1.293l-4.646 3.226l-3.003 0.327l-2.58 2.563l-3.165 -0.639l-3.672 -4.127l-1.087 -3.424l-10.522 -5.892l-6.856 -0.562l-3.245 -2.179l-4.128 -0.178l-2.839 -3.504l-3.984 -2.097l-10.58 0.496l-4.017 -0.834l-11.878 -7.373l-10.055 -1.859l-2.389 -1.647l-5.698 -2.555l-4.921 0.302l-10.23 -3.022l-5.153 1.972l-5.561 -0.013l-2.198 -4.761l0.187 -3.933l-4.156 -2.115l1.036 -4.706l-2.231 -4.437l-3.089 -0.345l-5.034 -2.983l-4.106 0.773l-1.16 -5.379l1.521 -3.192l-0.854 -1.61l3.599 -2.877l1.803 -3.826l0.25 -3.383l-2.764 -4.843l-5.806 -5.289l-0.897 -2.157l-10.597 -0.623l-1.896 1.297l0.012 31.557l-0.005 102.261z" />
  </g>
  <g data-id="085">
    <path d="m166.162 1100.21l-0.155 38.947l3.33 -0.002l6.01 0.01l3.757 0.813l2.16 -0.016l0.401 -1.519l-0.019 -1.197l-0.404 -1.482l-0.094 -1.122l0.485 -1.218l0.152 -1.376l0.256 -1.637l0.213 -1.481l0.639 -1.429l0.252 -1.135l0.162 -2.262l0.125 -1.192l0.443 -1.612l0.919 -1.269l7.262 -0.012l6.12 0.184l4.186 -0.001l8.079 0.02l6.264 -0.048l6.131 0.022l6.967 0.039l9.504 0.005l11.216 -0.033l6.412 0.03l4.029 -0.009l9.687 -0.009l7.547 -0.675l1.228 -0.956l1.017 0.961l1.239 1.06l1.67 -1.174l1.87 0.048l1.449 -0.737l2.409 -1.023l1.285 -1.433l1.643 -1.619l1.653 -1.295l1.837 0.274l1.492 0.701l1.373 -1.301l0.883 -2.768l0.005 -1.626l1.789 -1.607l1.951 -1.174l1.981 -1.353l0.471 -2.137l-0.22 -2.631l0.033 -2.03l-0.624 -1.302l0.343 -1.492l1.219 0.158l1.73 -0.506l2.569 0.314l2.616 1.282l1.18 0.632l0.891 -1.076l0.797 -1.297l0.471 -1.604l1.495 -1.011l1.403 -1.553l1.074 -2.391l1.283 -1.672l1.303 -4.306l1.179 -1.6l0.812 -2.987l-0.123 -3.616l-0.078 -2.392l-0.02 -1.609l0.555 -1.256l-1.315 -0.526l1.268 -1.806l-0.125 -1.54l-0.143 -1.129l-0.463 -1.065l-0.963 -1.153l-0.264 -2.257l-0.362 -1.205l-0.844 -1.023l-1.073 -0.736l-1.96 0.315l-1.82 0.176l-0.747 -1.536l-0.755 -1.072l-1.182 -1.281l-0.122 -2.147l-0.621 -1.402l-0.351 -2.279l-0.223 -1.054l-0.535 -2.382l0.045 -1.064l1.177 -1.341l0.722 -1.682l0.405 -1.077l1.018 -1.168l0.282 -1.029l2.074 0.121l1.286 0.437l0.414 -1.693l2.219 -1.188l1.72 -0.612l1.567 0.698l-0.072 -1.222l-0.047 -1.276l1.361 0.332l2.059 0.555l1.148 -0.341l0.34 -1.352l1.603 -0.875l0.499 -1.115l1.555 -1.245l1.06 -1.763l0.161 -1.579l0.62 -1.221l0.739 -1.262l0.431 -1.57l0.301 -1.285l0.41 -1.798l-0.109 -1.311l1.398 -2.881l-0.392 -1.663l-1.352 -1.842l1.31 -1.388l1.418 -2.477l1.988 -1.637l1.988 -1.471l2.384 -1.638l2.622 -1.009l1.625 2.218l1.794 0.823l1.753 0.656l1.725 1.276l0.313 1.51l0.806 1.11l1.171 -1.528l0.996 1.991l-0.1 1.127l0.218 1.682l0.47 1.115l1.246 -0.355l0.651 -1.512l1.772 -0.688l1.818 -0.334l1.148 0.714l1.148 0.669l1.203 0.584l1.985 -1.264l0.669 -1.115l2.168 -0.804l0.929 -1.259l0.872 -1.612l0.771 -2.143l2.36 -0.747l0.601 -1.404l1.772 -1.482l1.321 -1.153l1.092 -0.379l1.59 -1.1l1.892 -0.832l0.584 -1.324l0.673 -1.19l1.146 -0.649l1.556 -0.751l1.148 -0.336l2.998 -6.194l4.328 -1.673l0.962 -3.854l-1.313 -1.486l1.213 -2.373l4.473 -0.722l1.816 -2.83l-1.981 -7.544l1.984 -2.298l-1.86 -3.321l-0.109 -5.322l1.994 -7.519l-0.724 -4.721l0.818 -3.592l-0.76 -8.575l1.05 -2.21l-2.011 -1.271l1.889 -6.064l-1.74 -6.89l1.406 -2.036l0.241 -4.576l4.526 -3.92l-49.512 0.07l-157.246 0.365l1.729 -1.885l-1.869 -3.596l-6.883 8.333l-4.214 1.236l-0.416 2.544l-2.552 0.232l-2.846 2.842l-6.479 -1.302l-2.39 4.907l0.196 2.978l-1.471 3.753l0.688 2.196l-0.309 2.145l0.115 1.501l2.015 1.55l2.752 0.29l2.5 1.267l0.69 1.681l-0.971 1.589l-0.729 1.353l0.026 1.023l-0.115 1.839l-1.025 1.377l-1.664 1.974l-1.284 0.958l-0.714 1.509l-0.439 1.838l0.898 1.48l0.275 1.612l1.197 1.187l0.726 1.255l0.228 1.451l-0.662 2.617l-0.776 1.189l-0.596 1.882l-0.971 1.328l-1.365 0.033l-1.797 -0.595l-0.183 1.424l-0.536 1.052l-0.05 2.032l-0.301 1.133l-0.029 1.364l-0.159 1.427l-0.928 1.243l-1.153 0.628l-0.134 1.798l-1.444 0.485l-0.807 1.967l-0.251 1.314l-0.148 1.26l-1.127 1.474l0.195 1.468l0.069 1.035l-0.397 1.424l0.053 1.022l-0.097 1.542l-0.065 1.863l-0.186 1.004l-0.051 1.432l-0.185 1.298l-0.386 1.741l0.236 1.087l-0.447 1.354l-0.443 1.392l-0.082 2.216l0.223 1.207l1.297 1.103l0.974 1.59l0.835 1.588l1.769 1.725l-0.189 2.748l-0.764 1.166l0.803 1.032l0.898 1.001l0.736 1.089l1.66 1.91l-0.336 1.975l-0.644 1.262l0.137 1.764l-0.693 3.017l-0.754 2.65l-0.948 1.926l0.811 1.946l0.14 2.656l0.225 1.514l-0.697 1.555l-0.504 2.063l-0.285 1.851l-0.235 1.658l-0.179 1.356l1.148 2.914l-0.084 1.522l0.393 1.823l0.414 2.002l0.874 2.109l0.305 2.165l0.398 2.453l-0.129 1.559l0.454 2.082l1.014 39.785l-9.777 0.033z" />
  </g>
  <g data-id="087">
    <path d="m0.057 1083.93l-0.057 1.258l1.276 3.864l1.158 1.326l1.779 1.763l1.02 0.555l2.137 2.323l1.221 2.44l-0.287 1.571l-1.9 3.742l-1.917 0.881l-0.783 1.738l0.498 2.94l3.037 3.274l4.485 3.364l2.142 0.315l2.204 -0.174l1.518 -1.061l0.497 -1.46l1.592 -1.832l1.52 -0.694l1.195 0.163l1.555 2.019l0.587 2.402l2.03 2.348l1.785 1.323l1.279 1.523l0.458 1.434l1.041 0.46l1.254 -3.139l1.038 -0.907l1.337 -0.467l1.182 0.635l3.102 0.152l2.279 -0.02l1.769 0.593l0.637 1.614l-0.321 2.194l0.039 4.032l0.327 2.421l3.884 1.348l1.139 -0.55l2.442 0.487l3.652 2.717l1.128 1.844l0.27 2.491l-0.298 1.326l71.597 0.637l15.098 0.058l0.704 -3.7l-0.471 -8.902l2.211 -2.379l-1.315 -4.506l1.562 -8.823l-1.515 -2.426l1.536 -5.167l-0.924 -2.573l3.025 -8.031l-0.85 -4.126l1.87 -2.489l0.48 -7.712l3.139 -5.284l-17.384 0.032l-19.558 -10.648l-0.043 -27.98l-11.944 -0.009l0.637 -4.911l-4.06 -5.894l-0.097 -39.997l-44.519 -0.588l-0.765 1.534l-2.376 4.643l-1.226 1.364l-0.903 2.182l0.468 1.774l-0.629 1.614l-2.307 1.341l-2.871 0.636l-1.775 1.635l-1.403 1.272l-2 1.363l-1.152 0.081l-1.251 -0.186l-3.947 1.967l-3.872 4.777l0.293 1.243l-0.217 3.408l-1.681 1.393l-1.113 1.893l-0.231 1.239l-1.721 4.062l-0.898 2.59l0.294 1.219l-0.525 2.567l-1.615 3.078l-1.052 0.505l-0.493 1.075l-0.438 1.242l-0.765 4.721l0.083 2.261l-1.485 1.947l-1.374 0.863l-0.932 1.598l0.859 1.615l-0.199 2.623l-0.82 2.149l-1.902 2.485l-3.315 0.5l-1.318 2.166l-0.253 1.493l-0.482 1.56l-0.955 1.777l-1.403 1.439l-1.2 -0.113l-1.247 0.549l-0.267 1.473l0.679 1.6l0.731 2.51l0.233 1.197l0.151 1.292l-0.07 4.714l-0.518 1.468l-1.158 2.921l-1.512 1.82l-1.265 0.705z" />
  </g>
</svg>
