<?xml version="1.0" encoding="UTF-8"?><!DOCTYPE svg PUBLIC '-//W3C//DTD SVG 1.1//EN' 'http://www.w3.org/Graphics/SVG/1.1/DTD/svg11.dtd'><svg viewBox="0 0 1000 1616.91" xmlns="http://www.w3.org/2000/svg"><path data-id="16001" d="m117.7 1293.8l0.2 37.5l1.7 1.9l4.7 -2l7.5 -0.5l2.4 2l1.5 5.4l2 1.6l2 4.9l-1.3 3.1l-0.3 5.2l5.5 6.4l2.5 0.8l0.6 2.9l2.1 1l3.1 5.5l4.9 0.4l0.5 1.1l46.4 -0.3l0.6 -55.7l-0.1 -50.3l-0.7 1.2l-9.4 -9.7l-36.2 -36.7l-3 -3l-37.2 0l-0.1 38.6l6.4 0l0 3.3l0 9.7l0 25.9l-6.4 0z"/><path data-id="16003" d="m55.9 981.5l-0.8 1.5l44.5 0.6l0.1 40l4.1 5.9l-0.6 4.9l11.9 0l0 28l19.6 10.6l17.4 0l7.1 -4.9l3.2 0.4l0.4 -3.7l3.3 -6.7l3.2 3.9l5.8 -1.2l-0.8 -2.5l0.1 -1.6l-0.4 -2.5l-0.3 -2.2l-0.9 -2.1l-0.4 -2l-0.4 -1.8l0.1 -1.5l-0.4 -2.1l-1 -1.5l0.7 -2.4l0.3 -1.9l0.5 -2.1l0.7 -1.6l-0.2 -1.5l-0.1 -2.7l-0.8 -1.9l0.9 -1.9l0.8 -2.6l0.7 -3l-0.1 -1.1l0 -1.2l0.9 -2.8l-0.8 -1.6l-1 -0.5l-1 -1.4l-0.7 -1.1l-0.2 -1.2l0.7 -3.2l-1.8 -1.7l-0.8 -1.6l-1 -1.6l-1.3 -1.1l-0.2 -1.2l-0.3 -1.3l0.7 -1.7l0.3 -1.2l0.2 -1.3l0 -1.5l0.4 -1.5l0.2 -2.1l0.2 -1l0.1 -1.9l0.1 -1.5l-0.1 -1l0.2 -1l0 -1.4l-0.2 -1.5l1.2 -1.5l0.1 -1.3l0.3 -1.3l0.3 -1.5l1.2 -0.6l0.9 -2.1l1.2 -0.6l0.9 -1.3l0.2 -1.4l0 -1.4l0.3 -1.1l0.4 -1.2l0.2 -1.9l0.1 -1.4l1 0.1l2.1 0.5l1 -1.3l0.6 -1.9l0.8 -1.2l0.4 -1.8l0 -2.3l-0.7 -1.3l-1.2 -1.2l-0.3 -1.6l-0.9 -1.4l0.4 -1.8l0.7 -1.5l1.3 -1l0.9 -1.3l1.8 -2l0.1 -1.8l0 -1l0.7 -1.3l0.6 -1l0.4 -1.6l-3.2 -2l-2.8 -0.3l-1.1 -0.6l-1 -2.4l0.3 -2.1l-0.7 -2.1l-25.9 -0.4l0.1 -2.4l2.9 -2.2l-0.2 -4.1l-2.7 -5.8l0.4 -2.8l-1.9 -6.2l-2.9 -6.4l-2 -6.5l-55.5 0l-1.5 3l-1.2 3.4l-0.9 4.6l0.1 2.8l-0.2 1l-2.4 7.2l0 2l-0.7 4.2l-0.4 1l-3.8 5.9l-3.3 1.9l-1.2 2.2l-0.3 1.8l0.1 2.3l-2.2 4.1l-1.8 2.2l-2.7 2.9l-2.6 1.6l-1.1 1.9l0.6 1.6l0 3.2l-1.9 4l-0.3 1.3l1.1 4.3l0.8 1.9l1.7 2.5l0.6 1.7l-1 2.1l-0.6 2l-0.6 2.2l-0.7 2.7l-0.3 1.4l-0.7 1.5l-1.3 2.3l-2.9 2.8l-2 2.3z"/><path data-id="16005" d="m724.6 1403.6l0.1 2.6l3 2.5l-2.5 6l1.6 1.6l1.6 -2.3l4.1 -2.2l0 -2.1l9.4 -1.5l3.9 -4.2l2.7 0.3l2.2 -3.1l4.8 2.8l6.2 10.6l0.6 26.8l3.1 0l0.1 12.7l6.3 0l0 7.9l3.2 0l0.1 4.8l3.1 0l0 6.3l6.2 0l-1.6 4.8l0.5 11.5l-4.7 0.8l-0.7 14.3l5.7 0l0.7 4.7l2.4 3.2l3.1 0l0.5 4.2l7.4 -1.4l1 5.8l-0.5 8.8l-1.8 1.5l-3.9 7.1l0.3 5.1l3.6 -0.6l2.2 2.1l2.5 -0.4l2.6 -7l11.1 0l0.8 2.9l4 6.3l0.8 3.1l2.9 -0.3l1.9 2.3l23 -0.1l0 6.3l14.1 0l0.2 -34.9l3.2 0l0 -6.4l-1.6 0l0 -9.5l-1.6 0l-0.3 -7.7l-3.2 0l-0.1 -20.4l-0.8 -3.2l-4 -0.8l0 -8.6l-3.2 0l1.5 -3.5l-1.8 -1.3l-0.3 -4.7l-14.2 0l-4.5 4.4l-3.4 -0.2l-1.3 -5.9l-3.7 -5.6l-0.6 -2.6l-0.7 -6.1l1 -4.3l2 0l1 -4.5l-2.4 -4l-0.2 -6.7l-2.2 -4.1l2.5 -3.2l-1.6 -1.1l2.6 -5.9l4 -1.6l3.3 0.3l-1.1 -5.1l4 -1.4l1.8 -2.5l-1.6 -6.9l-95.7 0.1l-1.3 1.4l-2.2 -1.3l-0.3 2.1l-4.4 4.8l-5.5 0.4l1 3.4l-2.5 2.2z"/><path data-id="16007" d="m904.6 1490l2.1 11.3l1.9 1.9l1 5.2l3.4 8.7l0.5 3.6l-3.1 3.2l0 5.4l2.4 -0.8l0.3 4l3.8 2.8l1.1 2.5l-5.8 5.6l1 3.4l-0.7 4.8l3.9 2.4l-4.7 3l-1.4 3.1l-2.4 0.6l0.1 3.9l-2 4.4l2.9 11.6l3.3 2.6l-1.9 9.3l5.2 3.5l7.3 1.9l1 1.3l1.2 15l5.9 0l7.4 -0.2l1.5 0l59.6 -0.2l-0.1 -30.6l0 -1.4l0 -7.3l0 -2.6l0 -18.7l0 -15l0 -34l0 -2l-3.2 1.1l0.6 1.8l-5.2 2.5l-2.3 -0.5l-3.5 2.1l-4.5 -1.9l-1.9 3.8l-2.9 -1.3l-7.3 0.2l-2.3 -3.7l2 -3l2.3 -13.9l-3 -2.7l-0.1 -3.8l-1.2 0.4l-2.1 5.7l-2.9 4.8l-6.3 -1.8l-3.7 -2.1l0.2 -3.3l-4.5 -0.9l-37.4 0l-2.8 1.6l-2.8 2.9z"/><path data-id="16009" d="m32.7 395.6l0 4.5l0 20.9l0 8l0 5.3l0 5.1l0 6.4l0 6.5l6.3 -0.8l5.4 3.6l-1.6 6.2l3.2 4.3l2.1 0.9l3.1 -3.4l4.7 0.9l2.1 2.7l5.8 4.5l1.9 0.4l0 3.1l10.3 0l50.5 -1l0 3.4l20.8 0l0 -93.1l-17.2 0.3l-24.2 -0.5l0 3.4l-6.9 0l0 6.9l-17.2 0l0 -3.4l-2.3 0l-9.9 1.2l0 3.4l-37 0.1z"/><path data-id="16011" d="m683.2 1371l0 54.7l30.8 0l1.5 -4.3l2 1.1l2.4 -3.5l0.1 -4.5l2.9 -2.2l-0.8 -2.4l2.5 -3.8l-0.1 -2.6l2.5 -2.2l-1 -3.4l5.5 -0.4l4.4 -4.8l0.3 -2.1l2.2 1.3l1.3 -1.4l95.7 -0.1l18.7 0.3l57.7 0.2l0.2 -57.9l-37.8 -0.1l0 -18.6l-19.9 -0.1l-15.8 -0.1l0 -9.6l-9.6 0l0 -3.3l-67.2 0l0 -44.8l-19.3 0l-9.3 0.8l-0.3 18.5l-9.6 0.9l-9.4 0l-0.1 19.3l-19.4 0l-1.6 18.2l0 18.3l-9.7 0l-0.1 38.5z"/><path data-id="16013" d="m362.3 1192.3l3.7 10.5l-2.5 2l3.2 2.2l2.8 -1.3l3.4 3.2l7.3 3.5l6.1 1.8l-1.1 5.5l4.1 0.8l4.6 -3.3l6.5 2.5l3.2 -3.4l4.1 -1.8l2 2.1l1.5 4.7l0.4 7.6l3.9 2.8l-2.2 3.1l0.6 5.8l-1.9 2.7l1.4 3.6l2.7 2.1l-1 7l-1.7 2.9l-0.5 5.8l5 -0.6l2.5 4.3l8 3.3l-1.4 6.1l5.5 7.2l5.2 1.8l3.8 2.8l-1.4 4.5l-5.2 4.9l0 8.2l3.2 0l-0.1 6.6l-1.2 7.8l5.1 0.9l3.7 -0.7l2.8 1.6l5 -2l6.1 1.7l0 15.3l3.2 0l0 12.8l106.5 0l48.5 0l0.1 77.4l-9.5 0l0 39.5l9.8 -1.1l6.2 -2.9l2 3.4l9.1 9.5l6.8 0.1l0.8 2.2l3.3 -1.6l0 -11l9.4 0l0 -19.1l-9.4 0l0 -18.9l-1 -57.9l38 0l0.1 -38.5l-57.2 0l0 -18.3l-44.1 -0.1l0.1 -28.9l-3.1 0.8l-3.1 -1.5l1.2 -2.5l-3 -4.3l-0.4 -4.9l-2.3 -7l-4.3 -1.2l-3.3 0.7l-0.7 2.7l-3.9 1.9l-3.4 -0.5l-1.2 -0.6l-1.2 -6.3l-3.6 -1.1l-1.3 -4.5l-5.1 -5.7l-4.8 0.2l-1.1 -4.9l-3.6 -1.7l-3 -4.1l-3.6 -2.3l-1.6 -5.7l-3.6 -7.2l-3.8 -1.7l-3.8 2.5l0.1 3.5l-2.7 2.7l-7.6 -1.3l-3.3 -3.6l-0.7 -4l-2.9 0l-3.2 -3.5l-9.9 -4.7l-5.5 -4.6l-1.3 -6.7l0.8 -4l-2.2 -1.9l-8.2 -0.7l-2.5 3.6l-8.2 -4.8l-2.8 0.9l-2.6 -1.3l-5 0.2l-1.7 -1.8l-3.7 1.2l-1.9 6.1l1 1.9l-2.5 3.9l-5.5 0.3l-3.2 -1.6l-0.2 -5.3l-3.7 -4.1l-4.4 -2l-1.8 -2.7l-5.9 -3l-21.4 0l0 -14.6l-9.6 0l-9.3 5.4l-1.4 3.5l-5.1 3.3l-4.1 5.4z"/><path data-id="16015" d="m156.5 1139.2l-1.4 77.1l3 3l36.2 36.7l9.4 9.7l0.7 -1.2l3.1 0.4l0.1 -2.7l3.3 -1.5l0.8 2.8l2.8 0.8l2.5 -1.5l3.4 1.7l4.6 -3.7l2.6 0.6l5.4 -7.4l4.4 -2.6l2.5 1.6l3.8 -2.4l0.7 -3.2l4.7 0.6l5.3 -7.1l3 -0.7l3 -5l-1.1 -5.1l2.8 -4l0.5 -4.3l3.3 -3.5l7.3 1.3l2.8 -5.2l-1.5 -7l2.2 -2.2l2 -5.4l2.1 -1.9l4.7 -0.9l7.4 -3.4l9.5 -3.5l1.7 1.2l11.2 -3.7l1.7 -5.6l3.9 -7.9l2.8 -2.5l3 -5.8l1 -5.3l2.1 -2.8l-1.6 -3.3l-3.8 -3.5l7.8 1.8l2.8 3.3l2.5 7.8l0.2 8.6l1.9 4.3l4.3 2.9l3.9 -1.3l-1.1 3.6l4 4.4l4.7 -3.8l4.3 1.8l3.4 0l3.8 -7.3l-2.8 -1.5l0.4 -5l-2.6 -2.1l-1.4 1.6l-4 -1.4l-2.5 -4.1l0.7 -4.7l3.9 -4.7l3.2 -1.3l0.3 -2.8l-3.6 0l-4.2 -4.8l3 -1.7l1.8 -3.1l-1.1 -3.2l-4.4 -2.2l-1.7 1.2l-3.5 -3.6l-4 1.4l-3.6 -5l-2.1 0.4l-3.9 -2.8l0.8 -2.4l-1.9 -4.9l2.3 -0.9l-1.3 -9.8l-1.6 -3l-3.9 3.2l-1.6 -4.8l-3.8 -0.9l-1.9 2.6l-0.3 -3.2l-6.1 -3.1l-1.1 -3.3l-1.2 -0.6l-2.6 -1.3l-2.6 -0.3l-1.7 0.5l-1.2 -0.2l-0.3 1.5l0.6 1.3l0 2l0.2 2.6l-0.5 2.1l-2 1.4l-2 1.2l-1.8 1.6l0 1.6l-0.9 2.8l-1.3 0.9l-1.6 -0.4l-1.8 -0.3l-1.7 1.3l-1.6 1.6l-1.3 1.4l-2.4 1l-1.4 0.7l-1.9 0l-1.7 1.2l-1.2 -1.1l-1 -1l-1.2 1l-7.5 0.7l-9.7 0l-4 0l-6.4 0l-11.2 0l-9.5 0l-7 0l-6.1 0l-6.3 0l-8.1 0l-4.2 0l-6.1 -0.2l-7.3 0l-0.9 1.3l-0.4 1.6l-0.1 1.2l0.1 1.5l-0.5 1.9l-0.6 1.4l-0.2 1.5l-0.3 1.6l-0.2 1.4l-0.5 1.2l0.1 1.1l0.4 1.5l0 1.2l-0.4 1.5l-2.2 0l-3.8 -0.8l-6 0l-3.3 0l-9.5 0z"/><path data-id="16017" d="m32.5 232.8l-0.1 16.4l55.5 0l10.5 0l0.1 -3.4l20.8 0l-0.1 24.4l28.3 -0.1l0 -30.7l9.1 -10.7l6.5 -1.7l4.2 5.4l7.3 6l6.7 -2.9l2.7 5.1l6.7 4l2.1 4.4l0 -5.4l0.1 -14.5l-0.1 -1.6l0 -2.6l0 -2.8l0.1 -8.8l-0.1 -22.1l0 -5.1l0.1 -3l-0.1 -6l0.1 -8.5l-0.2 -25.2l0.1 -16.5l0 -5.1l-118.7 0.4l0 -42.4l-0.1 -3l0.1 -39.4l-39.9 0.2l-0.2 23.7l-0.1 22.7l-0.1 6.9l0 1.9l-0.1 29.5l0 17l0 1.7l0 12.6l-0.6 39.6l-0.2 5.7l0 1.5l0 1l-0.3 11.9l0 9.5l0 9.6z"/><path data-id="16019" d="m761.9 1256.6l0 44.8l67.2 0l0 3.3l9.6 0l0 9.6l15.8 0.1l19.9 0.1l0 18.6l37.8 0.1l-0.2 57.9l37 -0.2l1.1 0.1l49.8 0.2l0 -1.1l0 -1l0 -2.7l0 -1.1l0 -1.9l0 -1.2l0 -1.3l0 -1.4l0 -23.2l0 -1.6l0 -1.1l0 -1.4l-0.1 -26.6l-0.1 -41.2l-1.7 -4.1l-2.8 -1.8l-2 1.3l-6.5 -2.3l-2.8 -3.3l-4.6 -0.1l-4.3 1.6l-1.4 -0.9l-3 -10.3l0 -3.6l-2.9 -3.4l-25.2 0l-21.3 0l-5.5 -1.1l-9.7 0l-57.7 0.1l-86.5 -0.1z"/><path data-id="16021" d="m34 31l0 6.9l39.9 -0.2l-0.1 39.4l-0.2 3l0.3 42.4l118.7 -0.4l0 -3.2l0 -118.8l-51.6 -0.1l-1.1 0.2l-6.7 0.1l-54.8 0l-44.4 0.1l0 30.5z"/><path data-id="16023" d="m557.9 1266.8l-2.3 2.6l3.4 0.5l3.9 -1.9l0.7 -2.7l3.3 -0.7l4.3 1.2l2.3 7l0.4 4.9l3 4.3l-1.2 2.5l3.1 1.5l3.1 -0.8l-0.1 28.9l44.1 0.1l0 18.3l57.2 0l9.7 0l0 -18.3l1.6 -18.2l19.4 0l0.1 -19.3l9.4 0l9.6 -0.9l0 -18.5l0.3 -39l0.3 -39l-48.2 -0.1l-0.1 -58.8l-52.5 0.2l-15.5 0l0 39.1l-6.7 0l0.5 15.4l1.4 1.6l0.1 15.4l-1.6 3.9l-0.2 4.7l7.4 3.5l3.1 4.6l0.9 3.3l2 0.7l2 5.5l-2.7 -2.9l-5.6 -1.6l-4.9 1.8l-0.3 5.3l-1.4 3.7l-4.5 4l-1.1 2.6l-4.2 1l-2.2 3.4l-1.8 -0.3l-5.2 4.3l-4.3 1.2l-7 5.1l-5.6 2.5l-7.6 7.2l-3.8 0.1l-2.2 1.6l-3.7 9z"/><path data-id="16025" d="m347.8 1313.6l0.1 38.2l79.3 -0.1l35.4 -0.3l0 -12.8l-3.2 0l0 -15.3l-6.1 -1.7l-5 2l-2.8 -1.6l-3.7 0.7l-5.1 -0.9l1.2 -7.8l0.1 -6.6l-3.2 0l0 -8.2l5.2 -4.9l1.4 -4.5l-3.8 -2.8l-5.2 -1.8l-5.5 -7.2l1.4 -6.1l-8 -3.3l-2.5 -4.3l-5 0.6l0.5 -5.8l1.7 -2.9l1 -7l-2.7 -2.1l-1.4 -3.6l1.9 -2.7l-0.6 -5.8l2.2 -3.1l-3.9 -2.8l-0.4 -7.6l-1.5 -4.7l-2 -2.1l-4.1 1.8l-3.2 3.4l-6.5 -2.5l-4.6 3.3l-4.1 -0.8l1.1 -5.5l-6.1 -1.8l-7.3 -3.5l-3.4 -3.2l-2.8 1.3l-3.2 -2.2l-1.8 1.6l-0.6 5l-2.5 1.3l-3 12.3l-0.7 5l2.2 3.9l1.7 -0.1l1.4 2.8l0.1 4.2l-4.4 5.3l1 2.8l-1.1 3.1l0.5 6.3l-1.6 -0.1l-3.5 4.3l-2.8 -1l-0.6 52z"/><path data-id="16027" d="m34.4 1209.2l-0.5 2l1.5 1.4l0.3 1.3l-0.8 2.3l0 16.6l0 4.2l0 1.9l0 5.2l3.6 2.2l5.9 1.3l2.1 7.1l5 3.5l2 3.7l6.5 2.4l4.3 -0.5l4.7 3.8l2.6 6.6l3.2 4.7l-0.8 2.7l0.6 8.1l6 5.2l2.5 4.1l8.4 8l1.5 3.1l7.2 3.7l2.5 4.1l1.1 4.4l3.4 5.7l4.6 1.5l4.6 0.3l1.6 1.6l-0.2 -37.5l6.4 0l0 -25.9l0 -9.7l0 -3.3l-6.4 0l0.1 -38.6l-12.9 0l-19.4 0l-6.5 0l0 1.6l-6.5 0l0 1.6l-9.7 0l0 -3.3l-6.6 0l-0.1 -3.2l-3.2 0l0 -3.2l-6.5 -0.1l0 -9.8l-4.1 0l-0.4 2.5l-1.2 1.1l-1.3 -0.1l-2.2 0.6l-1.7 0.7l-0.3 1l1.9 1l0.3 1.7l-1.5 0.2l-1.1 0z"/><path data-id="16029" d="m821.6 1418l2.2 4.1l0.2 6.7l2.4 4l-1 4.5l-2 0l-1 4.3l0.7 6.1l0.6 2.6l3.7 5.6l1.3 5.9l3.4 0.2l4.5 -4.4l14.2 0l0.3 4.7l1.8 1.3l-1.5 3.5l3.2 0l0 8.6l4 0.8l0.8 3.2l0.1 20.4l3.2 0l0.3 7.7l1.6 0l0 9.5l1.6 0l0 6.4l22.1 0l1.7 -2.8l2 -0.4l0.8 3.2l18 0.1l3.1 -3.2l-0.5 -3.6l-3.4 -8.7l-1 -5.2l-1.9 -1.9l-2.1 -11.3l2.8 -2.9l2.8 -1.6l37.4 0l4.5 0.9l-0.2 3.3l3.7 2.1l6.3 1.8l2.9 -4.8l2.1 -5.7l1.2 -0.4l0.1 3.8l3 2.7l-2.3 13.9l-2 3l2.3 3.7l7.3 -0.2l2.9 1.3l1.9 -3.8l4.5 1.9l3.5 -2.1l2.3 0.5l5.2 -2.5l-0.6 -1.8l3.2 -1.1l0.1 -15.1l0.4 -30.7l-0.1 -33.5l0 -17.3l0 -2.4l0 -1.1l0 -1.2l0 -9.6l-49.8 -0.4l-1.1 -0.1l-37 0.2l-57.7 -0.2l-18.7 -0.3l1.6 6.9l-1.8 2.5l-4 1.4l1.1 5.1l-3.3 -0.3l-4 1.6l-2.6 5.9l1.6 1.1l-2.5 3.2z"/><path data-id="16031" d="m477.1 1523.4l-0.2 19l0.8 73.2l28.1 0.1l7.3 0l2.2 0l1.1 0l7.7 0.2l16.2 1l11.5 -0.1l4.2 -0.1l5.1 -0.1l42.5 -0.7l11.2 -0.2l4.7 -0.1l7.2 0.1l2.8 -0.2l14.4 -0.2l40.4 -0.5l0.1 -71.6l-0.5 -57l-27.9 -0.3l0.1 -8.3l-3.3 -1.5l-6.7 1.9l-3.3 1.6l-0.8 -2.2l-6.8 -0.1l-9.1 -9.5l-2 -3.4l-6.2 2.9l-9.8 1.1l-3.5 -0.9l-10.2 3.7l-2.9 2.5l-1.5 4.5l-3.6 6.3l-2.3 2.1l-3.7 9l-1.6 2l-7.2 3.7l-6.5 -0.8l-3.1 -2.5l-0.8 -2.9l-2.7 -2.1l-1.5 0.2l-8.2 4.4l-5.8 -3l-2.2 0l-6.8 3.1l-8.8 0.3l-2.3 1.6l-10.8 2.6l-0.3 2.5l0 18.8l-34.9 0z"/><path data-id="16033" d="m685.2 1120.5l0.1 58.8l48.2 0.1l0.1 -19.4l86.9 0.2l19.6 0.1l0.1 -19.5l19.4 -0.1l0 -9.8l9 0l0 -9.8l0.9 -19.3l9.8 0l0 -19.1l28.1 0.1l0 -33.5l-10.4 -2.4l-3.7 -0.1l-0.9 2.3l-1 1.5l-3.5 0.1l-1.5 0.5l-2 1.6l-7.7 2.6l-0.2 2.4l-2.2 0.5l-3.4 -3.8l-1.1 -3.1l-3.4 -5.5l-2.8 0.1l-2.5 1.4l-7.2 0.1l-0.6 1.5l-4.7 3l-2.3 0.3l-3 -1.6l-3 -1l-0.3 2l-0.5 1.7l-2.7 -1.1l-2.5 -0.5l-3.9 1.6l-0.5 1.5l-1.6 0.5l-3 -1.7l-0.6 -1.8l-1.2 -0.8l-4.5 -0.4l-2.4 2l-6.8 -2.4l-1.3 -1.4l0.4 -1.3l-0.5 -1.7l-2 -1.2l-2.6 -0.3l-4.4 0.2l-3.5 2.4l-1.1 1.7l0 1.8l-5.5 0.7l-1.7 2.2l0.4 8.1l-0.4 1.5l-1.6 4.3l-3 4.3l-7.7 -3.2l-4 -3.1l-2.1 -1l-4.4 3.8l-1.8 -0.8l-1.2 -2.1l-3.7 -1.9l-1.4 -0.2l-3.7 0.9l-1.7 -0.1l-2.8 -2.2l-8.6 0.8l-1.5 0.2l-1.1 -1.1l-5.9 -2.7l-1.8 -0.3l-2.6 1.2l-2.2 1.8l-4.4 1.6l-3.4 4.4l-5 5l-1.3 4.5l2.3 3.4l1.5 3.4l-0.1 3.2l-0.1 33.2l-20.4 -0.9l-8.9 0z"/><path data-id="16035" d="m126.9 569.9l0.7 17l0 15.4l0.6 -1.7l12.7 -0.6l0 7.9l7.9 6.9l1.8 5.7l18 0l2.1 2.3l2.2 7.4l3.5 0.5l2.8 3.6l2.8 -2.2l6.2 0.4l6 3.5l6.3 9.4l6.8 4.1l3.1 -0.8l14.4 2.3l5.4 3.9l1.3 -1.4l4.5 1l0.9 -3l2.7 -1l1.3 -2.9l-0.9 -2.9l2.4 -2.4l1.4 -5l-0.4 -5.1l1.4 -2.5l7.1 -4.8l2.4 -4.5l5.2 -5.6l-0.8 -3.1l1.4 -5.2l61.7 -14.2l105.5 -23.6l-2.6 -0.8l-0.9 -1.5l0.2 -2.6l-1.2 -0.7l-2.2 -0.3l-0.5 -1.8l-0.4 -2.9l1.5 -1l1.4 -1.7l0.2 -4.1l-1.9 -1.8l-2.1 -3.4l-2.4 -1.4l-2.2 -0.4l-3.4 -0.6l-2 4.1l-1.2 1.9l-1.6 -0.1l-2.3 0.7l-1.5 3.2l-2.6 0.2l-0.5 -1.2l-2.5 -1.9l-0.4 -1.2l1.2 -3.5l1 -0.5l1 -1.6l0.3 -4.5l-2.8 -2.6l-0.6 -2.2l-1.6 0.2l-1.9 -1.2l-1.5 0.2l-2 -0.4l-1.1 -2.2l-1.3 -0.4l-2.5 -2.5l-0.2 -1.5l-2.9 0l-1.8 1.8l-1.2 -1l0.4 -1.9l-0.7 -1.6l-2.5 -0.7l-1.9 -1.9l-0.2 -2.3l0.7 -1.1l-0.9 -1.8l-1.8 -0.3l-1.2 -0.8l0.6 -1.9l1.9 -1.7l0.3 -1.5l-0.9 -3.6l1.4 -3l1 -0.7l-0.4 -1.2l-1.2 -0.4l-4.7 -2.4l-109 -0.8l-1 -0.1l-110.9 -0.2l0 72.2l-20.4 -0.3z"/><path data-id="16037" d="m312.8 1042.3l0 1.1l0.4 1.7l0.3 1.8l0.2 1.4l0.7 1.5l0.5 2.2l-0.1 1.6l1 0.5l0.8 1.1l0.3 1.4l1.5 -0.1l1.9 0.4l1.5 -0.7l0.6 1.6l1 0.7l-0.1 2.1l1.3 2.1l0.5 1.1l0.1 1.1l0.1 1.5l-1.1 1l0.5 1.1l0.8 1.2l-1 1.2l0.4 3l0.1 3.6l-0.8 3l-1.2 1.6l-1.3 4.3l-1.3 1.7l-1.1 2.4l-1.4 1.6l-1.5 1l-0.4 1.7l-0.8 1.3l-0.9 1.1l1.1 3.3l6.1 3.1l0.3 3.2l1.9 -2.6l3.8 0.9l1.6 4.8l3.9 -3.2l1.6 3l1.3 9.8l-2.3 0.9l1.9 4.9l-0.8 2.4l3.9 2.8l2.1 -0.4l3.6 5l4 -1.4l3.5 3.6l1.7 -1.2l4.4 2.2l1.1 3.2l-1.8 3.1l-3 1.7l4.2 4.8l3.6 0l-0.3 2.8l-3.2 1.3l-3.9 4.7l-0.7 4.7l2.5 4.1l4 1.4l1.4 -1.6l2.6 2.1l-0.4 5l2.8 1.5l-3.8 7.3l1.9 0.7l1.2 1.9l5.1 -3.3l1.4 -3.5l9.3 -5.4l9.6 0l0 14.6l21.4 0l5.9 3l1.8 2.7l4.4 2l3.7 4.1l0.2 5.3l3.2 1.6l5.5 -0.3l2.5 -3.9l-1 -1.9l1.9 -6.1l3.7 -1.2l1.7 1.8l5 -0.2l2.6 1.3l2.8 -0.9l8.2 4.8l2.5 -3.6l8.2 0.7l2.2 1.9l-0.8 4l1.3 6.7l5.5 4.6l9.9 4.7l3.2 3.5l2.9 0l0.7 4l3.3 3.6l7.6 1.3l2.7 -2.7l-0.1 -3.5l3.8 -2.5l3.8 1.7l3.6 7.2l1.6 5.7l3.6 2.3l3 4.1l3.6 1.7l1.1 4.9l4.8 -0.2l5.1 5.7l1.3 4.5l3.6 1.1l1.2 6.3l1.2 0.6l2.3 -2.6l3.7 -9l2.2 -1.6l3.8 -0.1l7.6 -7.2l5.6 -2.5l7 -5.1l4.3 -1.2l5.2 -4.3l1.8 0.3l2.2 -3.4l4.2 -1l1.1 -2.6l4.5 -4l1.4 -3.7l0.3 -5.3l4.9 -1.8l5.6 1.6l2.7 2.9l-2 -5.5l-2 -0.7l-0.9 -3.3l-3.1 -4.6l-7.4 -3.5l0.2 -4.7l1.6 -3.9l-0.1 -15.4l-1.4 -1.6l-0.5 -15.4l6.7 0l0 -39.1l15.5 0l-2.3 -6l1.4 -2.8l-2.2 -9.9l-2.7 -2.9l-0.8 -3.7l-7 -8.3l-3.3 -9.1l-1.7 -0.9l-1.8 -5.5l-5 0.7l-4 5.9l-8.4 -1l-5.6 -3.9l-10.5 -1.4l-8.5 -5.6l-6.2 -1.4l-6.9 -3l-4.6 0l-4.5 -6.7l-8.9 -7.9l-3.4 -1.6l-8.7 -12.2l-1.6 0.1l-5.9 -7.7l-3.6 -8.2l-1.3 -5.1l-5.5 -10.1l-6.3 3.3l-1.8 2.5l-3.1 -3.4l-10 -0.4l0.1 -3.5l2.3 -3.6l-0.4 -4.9l1.3 -0.7l0.7 -7.9l-0.9 -5.7l-2.3 -0.1l-1.6 -3.6l-0.5 3.4l-6 3.3l-2.5 6.1l-3.5 0.8l-2.5 4l-4.7 1.8l-1.6 4.4l0.2 3.6l-4.3 3.5l-3.9 0.9l-0.4 4.6l5.5 2.2l-2.1 8.3l-3.6 3.8l-4.3 1.2l-2.1 4.5l-0.6 4.5l-4.1 4l-2.9 -2.2l-4 0.2l-3.3 4.6l-4.3 1.6l-5.7 -4.3l1.1 -5.4l-1.6 -3.7l-3.8 -4.1l-5.4 -2.1l-8.1 2.7l-4.5 -0.5l0.7 -3.9l-3.3 -5.6l-4 -4.3l-1.8 0.2l-3.9 -6l0.5 -6.1l2.7 -6.3l-2.4 -3.2l-1.2 0.6l-1.5 0.7l-1.1 0.6l-0.7 1.2l-0.6 1.3l-1 0.5l-1.8 0.9l-1.8 1l-1.3 1.2l-1.8 1.5l-0.6 1.4l-1.4 0.6l-1.7 1.4l-0.8 2.5l-0.9 1.3l-1.4 0.6l-1.5 0.7l-0.9 1.5l-1 0.4l-1.2 -0.6l-1.1 -0.7l-1.1 -0.7l-1.1 -0.1l-1.5 0.4l-1 0.8l-0.6 1.5l-1.2 0.4l-0.5 -1.1l-0.2 -1.7l0.1 -1.1l0 -1.3l-1 -0.7l-1.2 1.5l-0.8 -1.1l-0.3 -1.5l-1.7 -1.3l-1.8 -0.7l-1.8 -0.8l-1 -1.5l-2.4 -0.8l-0.8 1l-2.4 1.6l-2 1.5l-2 1.6l-1.4 2.5l-1.4 1.4l1.4 1.8l0.4 1.7l-1.4 2.9l0.1 1.3l-0.4 1.8l-0.3 1.3l-0.4 1.6l-0.7 1.3l-0.6 1.2l-0.2 1.6l-0.4 1.2l-1.5 0.9l-1.2 2l-1.6 0.9l-0.3 1.4l-1.1 0.3l-1.2 -0.6l-1.4 -0.1l-0.9 1.2l0.1 1.2l-1 -0.1l-2.3 0l-1.6 0.7l-0.9 1.8l-1.5 -0.1l-1.1 -0.7l-1.2 1.6l-1 1.2l-0.4 1.1l-0.7 1.7l-1.2 1.3z"/><path data-id="16039" d="m157.6 1370.7l1.3 2.3l2.1 0.8l2.9 0.5l3.3 0.6l1.4 1.3l0.8 1.7l-1.8 1.8l-0.3 2.4l1.1 2.8l1.9 0.9l2.8 1.4l2.4 -0.4l1.4 0.4l1.2 1.6l-1 1.6l-0.7 1.1l1.3 1.1l1.1 -0.2l1.6 -0.1l2.9 2.7l1.6 1.4l0.9 1.5l1.8 0.4l2.5 -0.1l2.6 0.9l1.8 2.9l1.2 2.1l1.2 0.9l1.4 1.3l2.1 0.4l2.1 0.2l1.9 0.3l1 0.4l1.4 -1.6l-0.5 -1.7l-1.1 -2.1l0.6 -1.6l0.7 -2.4l1.4 -1l1.8 -0.7l1.1 -1.4l1.3 0l1.6 2.7l1.9 1.6l1.9 -0.2l1.5 -1.2l1.7 0.4l1.5 2.6l2.5 1l2 -0.3l1.7 -0.3l2.1 -0.1l2.1 -0.1l1.8 1l0.2 2.3l-1.2 1.2l1.3 2.1l1.9 0.9l2.7 0.4l1.7 -0.2l1.4 -0.8l2 0.7l2.4 -0.1l3.1 0l2.3 -0.6l1.6 -0.4l1.5 -0.7l1.7 -1.3l1.8 -0.6l2.3 0l1.7 1.5l0.8 1.5l1.2 1l1.5 0.2l1.3 -0.1l1.6 0.3l1.4 0.3l1 -0.8l1.7 -0.7l2.5 -0.3l1.7 0.9l1.5 1.1l1.6 1.4l2 -0.2l2.3 0l1.9 -0.1l1.5 0l2 1.5l0 8.5l-0.4 7l-1.7 1.3l0 13l0 2.1l4.8 1.9l5.5 0l7.5 0l8.7 0l12.4 0l14.3 -0.1l10.5 0l3.5 0l0 -31.6l-7.9 -0.6l0.1 -62.6l-0.1 -38.2l0.6 -52l2.8 1l3.5 -4.3l1.6 0.1l-0.5 -6.3l1.1 -3.1l-1 -2.8l4.4 -5.3l-0.1 -4.2l-1.4 -2.8l-1.7 0.1l-2.2 -3.9l0.7 -5l3 -12.3l2.5 -1.3l0.6 -5l1.8 -1.6l2.5 -2l-3.7 -10.5l4.1 -5.4l-1.2 -1.9l-1.9 -0.7l-3.4 0l-4.3 -1.8l-4.7 3.8l-4 -4.4l1.1 -3.6l-3.9 1.3l-4.3 -2.9l-1.9 -4.3l-0.2 -8.6l-2.5 -7.8l-2.8 -3.3l-7.8 -1.8l3.8 3.5l1.6 3.3l-2.1 2.8l-1 5.3l-3 5.8l-2.8 2.5l-3.9 7.9l-1.7 5.6l-11.2 3.7l-1.7 -1.2l-9.5 3.5l-7.4 3.4l-4.7 0.9l-2.1 1.9l-2 5.4l-2.2 2.2l1.5 7l-2.8 5.2l-7.3 -1.3l-3.3 3.5l-0.5 4.3l-2.8 4l1.1 5.1l-3 5l-3 0.7l-5.3 7.1l-4.7 -0.6l-0.7 3.2l-3.8 2.4l-2.5 -1.6l-4.4 2.6l-5.4 7.4l-2.6 -0.6l-4.6 3.7l-3.4 -1.7l-2.5 1.5l-2.8 -0.8l-0.8 -2.8l-3.3 1.5l-0.1 2.7l-3.1 -0.4l0.1 50.3l-0.6 55.7l-46.4 0.3z"/><path data-id="16041" d="m825.4 1552.3l2.1 3.5l2.4 -0.1l2.4 5.2l2 1.7l0.1 14.9l-6.3 -0.1l0 37.5l15.7 -0.2l10.8 0l4.7 0l6.3 0l20.3 -0.2l1.8 0l37.4 0l-1.2 -15l-1 -1.3l-7.3 -1.9l-5.2 -3.5l1.9 -9.3l-3.3 -2.6l-2.9 -11.6l2 -4.4l-0.1 -3.9l2.4 -0.6l1.4 -3.1l4.7 -3l-3.9 -2.4l0.7 -4.8l-1 -3.4l5.8 -5.6l-1.1 -2.5l-3.8 -2.8l-0.3 -4l-2.4 0.8l0 -5.4l-18 -0.1l-0.8 -3.2l-2.9 0l-0.8 3.2l-22.1 0l-3.2 0l-0.2 34.9l-14.1 0l0 -6.3l-23 0.1z"/><path data-id="16043" d="m820.6 1160.2l-0.1 19.4l28.9 0.1l0 9.8l22.5 0.1l0 6.5l22.5 0.1l0 3.2l22.4 0l0 -4l3.1 -1.7l1.3 -2.4l4.9 -2.2l3.6 0.3l1.9 2.5l6.8 1.4l4.3 -2.8l7.1 -5.6l3 1.8l1.3 3.3l3 1.3l4.8 -1.6l1.4 -2.7l2.8 0l2.7 -2.2l8.1 3.7l1.6 -1.7l10.3 -6.5l1.7 0l7.2 -3.6l1.9 0.2l0 -3.7l-0.3 -4.5l0.1 -9l0 -12.3l-0.1 -2.3l-0.1 -51.5l0.1 -4.8l0 -13.7l0 -8.6l-0.6 -1l-2.5 -0.5l-6.6 -1.6l-3.2 -2.7l-1.7 -3.9l1 -3.6l-3.7 -2.2l-3 -1.6l-1.1 -1.3l0 -2.1l-1 -1.5l-2.4 -1l-3.8 -0.2l-1 -2.3l-1 -5.1l2.2 -3.3l-4.6 -6.3l-2.7 0.9l-1.2 -1.9l1.3 -2.9l-6 -8.9l-2.9 -3.8l-2 -1.9l-1.8 1.4l-1.4 -0.2l-1.8 -2.4l-1.3 -2.7l-1.7 -1.1l-1.4 0.6l-0.6 1.3l-0.2 5.3l-2.5 2.9l-1.6 -0.7l-0.9 -1.4l-1.5 -0.1l-6.9 2.6l-1.3 0.9l-0.1 1.1l0.9 2.9l1.1 1.2l1.3 1l-0.6 2.9l-3.5 4.6l-1.5 0l-1.4 1.3l1.2 3.2l-2.5 2.2l-0.5 2.5l0.1 1.2l0.9 3.8l2.1 1.7l-0.5 1.6l0.4 1.3l2.2 0.3l3.7 2l0.2 1.7l-5.3 1l-2.5 0.5l-1.3 -2.4l-3.7 -2l-1.6 0.6l-1 -0.2l-3.7 -1.7l-1 0.3l-1.5 1.7l-2.1 1.2l-0.5 33.4l-28.1 -0.1l0 19.1l-9.8 0l-0.9 19.3l0 9.8l-9 0l0 9.8l-19.4 0.1l-0.1 19.5l-19.6 -0.1z"/><path data-id="16045" d="m85.6 1177.3l0 39l19.4 0l12.9 0l37.2 0l1.4 -77.1l9.5 0l0.2 -38.9l9.8 0l-0.8 -39.4l-5.8 1.2l-3.2 -3.9l-3.3 6.7l-0.4 3.7l-3.2 -0.4l-7.1 4.9l-3.1 5.3l-0.5 7.7l-1.9 2.5l0.9 4.1l-3 8l0.9 2.6l-1.5 5.2l1.5 2.4l-1.6 8.8l1.3 4.5l-2.2 2.4l0.5 8.9l-0.7 3.7l-15.1 -0.1l-0.1 19.3l-12.8 -0.1l0 12.8l-6.4 -0.1l0 6.4l-22.6 -0.2z"/><path data-id="16047" d="m347.9 1351.8l-0.1 62.6l7.9 0.6l1.9 -1.3l10.6 0.6l0.9 2.2l5.8 5.3l2.8 4.8l-0.3 3.4l-1.8 3.8l-3.6 2.9l0.9 1.6l-1.5 3.2l1.2 5.4l4.1 -0.8l5 3l3.1 0.3l2.2 4.4l-1 4.7l4.2 2.1l-0.2 3.9l2.2 4.8l5.6 0l5.2 -2l10.2 3l4.9 -0.3l5.7 2.6l-0.1 -44.3l3.7 0l0 -76.7l-79.3 0.1z"/><path data-id="16049" d="m72.4 750.2l0.7 1.5l0.4 1.3l-0.2 1.7l0.1 1.2l0.9 1.5l3.1 2l1.3 -0.1l1.6 -1l1.5 -1.1l3.3 -0.1l1.1 0.4l1.7 1l1.7 3.4l1.1 2.9l2.4 2.7l3 0.5l1.1 -0.3l1.2 -0.8l4.4 0.9l1.9 0.6l2.5 2.5l2.9 2.9l1 0.4l1.1 0.6l1.5 3.2l-0.2 5.2l0.3 4.2l0.2 1.1l1.1 2.4l2.6 2.6l2.9 3.4l1.1 1.4l0.9 2.3l0.8 2l0.7 1.5l0.5 1l1 1.1l0 3l-3 5.7l-1.4 0.8l-2 1.8l-3.4 4.6l-1.9 5l-1.3 2.5l-1.6 3.5l-0.9 4.1l0.6 2l0 2.3l-1.1 0.4l-2.3 2l-2 2.2l-0.7 3.6l-0.8 3.4l-3.5 3.3l-1.2 2.3l-4.3 8.5l-3.3 6.8l-0.1 1.6l0.3 3.7l0.1 2.1l-0.1 1.3l-0.3 1.6l-1.1 1.3l-1 0.7l55.5 0l2 6.5l2.9 6.4l1.9 6.2l-0.4 2.8l2.7 5.8l0.2 4.1l-2.9 2.2l-0.1 2.4l25.9 0.3l1.5 -3.8l-0.2 -3l2.4 -4.9l6.5 1.3l2.8 -2.8l2.6 -0.2l0.4 -2.5l4.2 -1.2l6.9 -8.3l1.9 3.6l-1.7 1.9l157.2 -0.4l49.5 -0.1l3.1 -8.4l8.2 -9.4l2.7 -1.5l2.3 -3.7l-1.7 0.4l-5.9 -5.3l-4.7 -5.5l-0.7 -4.5l-3.4 -1.5l-3.6 -6.3l-2.7 0.2l-4.1 -3.8l-1.5 -5.2l-3.9 -0.4l0.5 -6.9l-1.3 -2.3l0.8 -7.4l4.2 -0.7l5.4 5l4.7 -0.6l4 1.9l0 2.3l2.7 0.7l5.1 -11.1l5.9 -3.5l3.9 -3.6l2 -3.7l0.1 -4.5l0.7 -1.4l2.6 -3.6l-1.1 -2.3l-1.5 -0.6l-1.5 -2.8l-0.1 -1.3l4.5 -3.1l1 -0.4l1.2 0.7l2.3 -2.2l1.3 -2.3l0 -2.4l-1.5 -1l0.1 -1.4l2 -3.1l-1 -2.9l-1.5 -2.2l-2.2 -0.5l-3.3 -3.5l-0.2 -3.3l-3.2 -4l1.7 -2.9l1.7 -1.2l2.4 -6.5l2.4 -1.8l-0.4 -1.3l0.3 -1.8l2 -1.7l2 -0.5l1.6 0.5l1.3 -0.4l2 -1.1l2.5 -1.6l2.7 0.9l2.2 1.3l1 -2.9l2.9 -4l0.2 -1.6l-1.3 -2.8l-1.5 -0.5l-1.4 -1.9l-2.9 -5.6l1.3 -1.9l1.2 -0.9l0.7 -1l1.2 -0.8l0.4 -1.3l-0.2 -1.3l-0.9 -1l-0.4 -1.5l-3.1 -2.1l-2.9 -0.3l-1.2 -1.6l-1.5 -0.3l-1.1 0.8l-1 0.1l-1.3 -1.8l0.5 -1.8l1.6 -1.9l-1 -3.2l-2.1 0.5l-2.1 -0.6l0.2 -2.2l1.6 -1.6l4.4 -4.4l0.9 -2.8l0.3 -4.3l-2.3 -3.6l-3 -0.8l-4.5 -2.8l-0.7 -3.4l2.3 -5.6l3.5 -0.3l1.8 1.6l2.4 -1.7l1.8 -0.2l1 -1.2l0.4 -6.8l-1 -3.2l0.5 -1l-0.9 -4.7l-2.6 -1.8l-0.4 -4.3l0.9 -1.4l1.9 0.5l1.9 -0.7l2.2 -2.3l0.3 -1l-1.3 -4.1l0.3 -1.2l2.9 -5.9l0.1 -1.4l0.4 -4.4l-0.1 -1.4l-1.8 -4.8l2.4 -3.3l3.3 -2.1l0.5 -1.2l0.2 -3.8l1.7 -1l-0.3 -1.7l-1.4 -1.7l0.6 -2.2l-0.6 -1.4l-1.8 -0.7l-0.9 -1.8l-0.5 -5l3 -1.6l1.5 0.8l3.7 -1.4l1.7 -2.8l-1.2 -2.3l0.8 -2.7l-0.4 -2.3l1.2 -3.1l1.3 -1.8l0 -1.4l-1.8 -2.6l3.2 -5.2l-0.1 -7.5l-0.3 -2.5l-1.2 -1.7l-4.5 -1.9l-5.6 1l-1.4 1.2l-1.2 0.5l-2.2 -0.7l-4.6 2.7l0.1 1.8l-1.9 1.8l-2.6 0.4l-3 -1.7l-3 -0.1l-4.2 -1.8l-3.6 1.3l-2.3 1.7l-1.7 0.3l-106.1 23.4l-61.7 14.2l-1.4 5.2l0.8 3.1l-5.2 5.6l-2.4 4.5l-7.1 4.8l-1.4 2.5l0.4 5.1l-1.4 5l-2.4 2.4l0.9 2.9l-1.3 2.9l-2.7 1l-0.9 3l-4.5 -1l-1.3 1.4l-5.4 -3.9l-14.4 -2.3l-3.1 0.8l-6.8 -4.1l-6.3 -9.4l-6 -3.5l-6.2 -0.4l-2.8 2.2l-2.8 -3.6l-3.5 -0.5l0.6 1.9l0.7 2l1.4 1.5l0.5 2l0.3 1l1 1.6l0.9 2.8l1.1 2.4l0.3 1.8l2.1 2.9l1.5 0.9l1.8 2.1l1.2 2.4l2 1.3l1.8 0.3l2.6 0.7l1 2.2l1.4 1l1.6 1.4l0.8 2l-1.4 1l-1 0.7l-1.1 0.7l-1.5 0.7l-1.4 0.3l-1.1 -0.2l-1.1 -0.1l-1.6 0.5l-1.3 0.1l-1.9 -0.2l-2.2 -0.3l-1.5 -0.2l-2.3 -0.6l-1.9 0.9l-1.1 1.8l-1.1 1.3l-0.5 1.1l-0.9 1.4l-1.5 0.9l-0.8 1l-0.4 1.6l0.1 1.2l-0.3 2l-1.1 1.1l-1 0.1l-1.6 -1.1l-1 -0.4l-1.1 -0.4l-1.1 0.5l-1.6 -0.8l-0.5 -1l-1 -0.6l-1.1 -0.3l-2 0.5l-1.1 -0.7l-1.7 -0.6l-1.3 0.9l-1.5 0.7l-1.8 -0.8l-1.4 -1.3l-1.3 -1.7l-1.5 -0.3l-1 -0.2l-1.1 -0.1l-1.3 0.2l-1.1 0l-1.6 -0.5l-1.4 -0.3l-1.9 -0.5l-1.7 -0.9l-1.5 -1.4l-1.2 -0.5l-1.4 0.5l-1.3 0.8l-1 -0.1l-1 1.6l-0.2 1.1l-0.4 1.9l-0.4 1l-0.6 1.7l-0.5 1.3l-1.1 1.6l-0.2 1l-1 1.3l0.3 1.6l0.3 1l0.2 1.8l-1.7 0.7l-1.5 -0.2l-1.5 -0.5l-1.1 -1.3l-0.4 1.3l0 5.4l0 4.7l0 3l0 2.4l0 1.9l-0.3 1.5l0.2 1.3l-0.6 1.7l-0.9 1.5l-0.5 1.5l0.3 1l0.2 1l-0.3 1.1l-1.4 1.1l-1.3 -0.4l-1.3 -1l-1.6 -1.3l-1 -1.4l-1 -0.9l-1.2 -1.5l-1 -0.3l-1 -0.5l-1.2 -0.6l-1.1 -0.2l-1 0.4l-1.1 -0.8l-1.6 0l-1.8 0.4l-1.2 1.9l0.4 3l0.4 2.2l-0.5 1.4l-1.8 1.5l-1 -0.1l-1.3 -0.9l-2.2 -0.6l-1.2 0l-1.4 0.3l-7.7 8.4l-1.3 4.4l4.3 11.1l-3.2 5.8l-7.1 3z"/><path data-id="16051" d="m733.3 1218.4l0 39l9.3 -0.8l19.3 0l86.5 0.1l57.7 -0.1l0 -6.3l-14.7 0l-4.3 -2.9l-2.7 0.2l-2.8 -1.9l-4.2 -5.8l-2.7 -0.5l-1.7 -2.8l-4.4 -0.4l-2.4 -4.1l-4.7 -2.3l-1 -2.9l-1.8 0.9l-1.7 -2.5l-2.7 3.7l-3.3 0.6l-2.7 -1.3l1 -9.7l0.1 -29.1l0 -9.8l-28.9 -0.1l0.1 -19.4l-86.9 -0.2l-0.1 19.4l-0.3 39z"/><path data-id="16053" d="m423.5 1428.4l0.1 44.3l2.4 1.6l10.1 1.9l11.9 7.4l4 0.8l10.6 -0.5l4 2.1l2.8 3.5l4.1 0.2l3.2 2.2l6.9 0.6l10.5 5.9l1.1 3.4l3.7 4.1l3.2 0.6l2.6 -2.6l3 -0.3l4.6 -3.2l3.9 -1.3l2.2 1l4.6 -0.5l2.3 -1.6l8.8 -0.3l0 -50.4l-19.1 0l0 -9.5l-47.7 -0.1l0 -3.2l-3.2 0l0 -6l-36.9 0l-3.7 0z"/><path data-id="16055" d="m32.3 301.2l0.1 3.9l0.1 2.2l0 3.1l0 3.9l0 5.6l0 1.2l0 13.1l0 11.8l-0.1 3.7l0.1 6.1l0 1.3l0 1.2l0.1 10.6l0 3.5l0 6.8l0 5.4l0 3.2l0 5.8l0 2.1l37 -0.1l0 -3.4l9.9 -1.2l2.3 0l0 3.4l17.2 0l0 -6.9l6.9 0l0 -3.4l24.2 0.5l17.2 -0.3l0 -114.1l-28.3 0.1l0.1 -24.4l-20.8 0l-0.1 3.4l-10.5 0l-55.5 0l0 2.7l0 1.9l0 28.7l0.1 4l0 10.5l-0.1 2.9l0 1.3z"/><path data-id="16057" d="m32.8 523.6l0 2.4l0.1 27.1l0 37.2l51.7 -0.3l3.7 -10.5l1.4 -0.2l4.7 -5.5l6.1 -4.1l6.3 0.3l20.3 -0.1l20.4 0.3l0 -72.2l0 -20.6l-20.8 0l0 -3.4l-50.5 1l-10.3 0l0 -3.1l-1.9 -0.4l-5.8 -4.5l-2.1 -2.7l-4.7 -0.9l-3.1 3.4l-2.1 -0.9l-3.2 -4.3l1.6 -6.2l-5.4 -3.6l-6.3 0.8l0 71.3z"/><path data-id="16059" d="m391.8 1000.2l-0.5 6.1l3.9 6l1.8 -0.2l4 4.3l3.3 5.6l-0.7 3.9l4.5 0.5l8.1 -2.7l5.4 2.1l3.8 4.1l1.6 3.7l-1.1 5.4l5.7 4.3l4.3 -1.6l3.3 -4.6l4 -0.2l2.9 2.2l4.1 -4l0.6 -4.5l2.1 -4.5l4.3 -1.2l3.6 -3.8l2.1 -8.3l-5.5 -2.2l0.4 -4.6l3.9 -0.9l4.3 -3.5l-0.2 -3.6l1.6 -4.4l4.7 -1.8l2.5 -4l3.5 -0.8l2.5 -6.1l6 -3.3l0.5 -3.4l1.6 3.6l2.3 0.1l0.9 5.7l-0.7 7.9l-1.3 0.7l0.4 4.9l-2.3 3.6l-0.1 3.5l10 0.4l3.1 3.4l1.8 -2.5l6.3 -3.3l5.5 10.1l1.3 5.1l3.6 8.2l5.9 7.7l1.6 -0.1l8.7 12.2l3.4 1.6l8.9 7.9l4.5 6.7l4.6 0l6.9 3l6.2 1.4l8.5 5.6l10.5 1.4l5.6 3.9l8.4 1l4 -5.9l5 -0.7l1.8 5.5l1.7 0.9l3.3 9.1l7 8.3l0.8 3.7l2.7 2.9l2.2 9.9l-1.4 2.8l2.3 6l52.5 -0.2l8.9 0l20.4 0.9l-0.1 -33l-1 1.4l-3.9 2.9l-1.7 -0.4l-4.3 -4.6l-0.5 -4.1l-5.3 -1.6l-5.4 -2.9l-4.9 -3.6l-3.5 -3.7l-0.5 -4.7l-1.9 -2.3l-1.2 -3.5l1.5 -1.6l1.6 -3.3l-0.1 -1.7l-5.7 -3.7l-0.6 -2l1.2 -1.7l0.2 -1.3l-3.8 -2.9l-1.5 -2.9l-2 -1.3l-0.2 -1.5l1.6 -2.7l1.3 -0.8l1.4 -0.3l1.2 -2.5l-0.3 -1.7l-2.3 -2.8l-0.4 -1.6l-0.3 -2.6l0.4 -1.1l-0.5 -1.6l-1.8 -2.7l-2.6 -1.4l-0.5 -2.5l-0.2 -4.6l-2.4 -2.1l-2.9 -3.3l-0.5 -1.7l1 -1.1l0 -1.8l-1.5 -0.9l-2.8 -0.9l-3.4 -1.5l-0.6 -1.5l-1.8 -2l-2.5 -1.6l-4.7 -1.2l-1.4 -2l-5 2.3l-3 2.1l-0.8 1l-6.5 3.2l-2 -1.6l1.2 -1.6l-1.5 -4.8l-3.4 -3.1l-3.1 -1l-4.2 -0.6l-5.6 -7.7l-2.9 -7l-2.6 -5.2l-1.2 -3.4l0.7 -1.4l2.2 -0.4l1 0.3l1.2 0.2l3 -1.2l0.8 -1.4l-0.2 -3.7l-0.3 -1.9l0 -3.2l1.5 -1.9l-2 -6.4l-0.2 -2.2l-0.1 -3.3l-1.4 -1.3l-1 0.5l-2 0.1l-1.6 -2.2l-5.1 -4.1l1.3 -2.1l1.1 -2.1l-0.6 -1.5l-3.1 -0.4l-3.3 0.8l-4.1 -3.5l0.8 -2.9l-4.1 -5.7l0.8 -2.5l-1.6 -3.2l-6 -5l-1.7 -3.5l-0.4 -1.5l-1.1 -1.5l-1.4 -1.1l-1.4 -0.7l-1.7 -1l-1.1 -2.6l0.1 -1.3l0.6 -1.3l-0.2 -1.6l-7.5 -9.6l-0.5 -1l-0.2 -3.6l0.8 -4.4l0.5 -4.7l-0.1 -1.2l-4.5 -3.8l-2.2 -0.1l-0.4 -2l2.1 -1.6l0 -2l-3 -4.7l3 -5.9l0.7 -2l-1.1 -3.6l-0.2 -4l-1.7 -1l-2.9 0l-1 0.1l-1 0.7l-4.1 -0.2l2.4 -10.5l2.6 -3.2l0.4 -1.1l-0.2 -1.8l-0.6 -2.2l-2.6 -2.4l-6.2 -2.6l-4 1.5l-3 -1.2l0.4 -2.8l0.8 -1.7l-0.5 -1.6l-1.7 -1.2l-3.3 -4.6l-1.1 -5.2l-3.6 1.4l-1.5 -1.7l-2.7 -1.6l-4.7 1.9l-0.8 3.4l0.1 2.5l1 2.8l-0.2 1l-0.6 1.2l-2.4 0l-5.5 4.8l-2.3 3.8l-0.2 1.7l0.2 1.6l-0.7 1.3l-2.2 1.1l-3.6 0.5l-1.5 2.3l0.5 1.2l-1.1 2.6l-3.2 1l-4.1 0.3l-1 1.4l-1 2.1l-1.8 0.2l-3.9 -2.5l-3.3 0.1l-0.6 1.9l0.6 1.1l0.1 2.1l-2.2 6.6l-1.5 2.2l-1.4 1.3l-8.7 4.9l-1.9 -0.1l-2.5 -3.3l-0.8 -3.8l-3.7 -2.8l-4.4 -1.6l-3.7 -6.1l-1.9 -1.5l-1 -0.3l-0.6 -4l-2.1 -0.5l-3.9 1.8l-1.3 -0.9l-1.8 -2.1l-1.3 -0.6l-3.8 2.3l-1.5 -1.2l-2 3.7l-3.9 3.6l-5.9 3.5l-5.1 11.1l-2.7 -0.7l0 -2.3l-4 -1.9l-4.7 0.6l-5.4 -5l-4.2 0.7l-0.8 7.4l1.3 2.3l-0.5 6.9l3.9 0.4l1.5 5.2l4.1 3.8l2.7 -0.2l3.6 6.3l3.4 1.5l0.7 4.5l4.7 5.5l5.9 5.3l1.7 -0.4l-2.3 3.7l-2.7 1.5l-8.2 9.4l-3.1 8.4l-4.5 3.9l-0.2 4.6l-1.4 2l1.7 6.9l-1.9 6.1l2 1.3l-1.1 2.2l0.8 8.6l-0.8 3.6l0.7 4.7l-2 7.5l0.1 5.3l1.9 3.3l-2 2.3l2 7.5l-1.8 2.8l-4.5 0.7l-1.2 2.4l1.3 1.5l-1 3.9l-4.3 1.7l-2.9 5.9l2.4 3.2l-2.7 6.3z"/><path data-id="16061" d="m85.4 641l0.5 6.6l1.2 1.3l3.1 11.4l-3.1 1.2l0.2 40.5l0 15.6l1.5 -0.5l1.2 0l2.2 0.6l1.3 0.9l1 0.1l1.1 -0.7l1.2 -2.2l-0.4 -2.2l-0.4 -3l1.2 -1.9l1.8 -0.4l1.6 0l1.1 0.8l1 -0.4l1.1 0.2l1.2 0.6l1 0.5l1 0.3l1.2 1.5l1 0.9l1 1.4l1.6 1.3l1.3 1l1.3 0.4l1.4 -1.1l0.3 -1.1l-0.2 -1l-0.3 -1l0.5 -1.5l0.9 -1.5l0.4 -1.3l0 -1.7l0.3 -1.5l0 -1.9l0 -2.4l0 -3l0 -4.7l0 -5.4l0.4 -1.3l1.1 1.3l1.5 0.5l1.5 0.2l1.4 -0.1l0.3 -1.5l-0.5 -1.2l0 -1.6l0.1 -1.4l0.8 -1.6l1.1 -1.6l0.5 -1.3l0.6 -1.7l0.4 -1l0.1 -1.1l0.5 -1.9l0.4 -1.2l1.1 -0.2l1.1 -0.4l1.2 -1l1.6 0.1l1.3 1.2l1.6 1.2l1.8 0.7l1.6 0.1l1.5 0.8l1.9 0l1.3 -0.2l1.1 0.1l1 0.2l1.5 0.3l1.3 1.7l1.4 1.3l1 0.5l2.3 -0.4l1.3 -0.9l1.2 0.3l1.6 1l1.1 -0.1l2 -0.1l1 0.6l0.5 1l1.6 0.8l1.1 -0.5l1.1 0.4l1 0.4l1.6 1.1l1 -0.1l1.1 -1.1l0.3 -2l-0.1 -1.2l0.4 -1.6l0.8 -1l1.5 -0.9l0.9 -1.4l0.5 -1.1l1.1 -1.3l1.1 -1.8l1.2 -0.5l2.2 -0.6l2.3 1l2.2 0.3l1.9 0.2l1.3 -0.1l1 -0.2l1.7 -0.2l1.1 0.2l1.4 -0.3l1.5 -0.7l1.1 -0.7l1 -0.7l1.4 -1l0.1 -1.1l-2.5 -2.3l-1.4 -1l-1 -2.2l-2.6 -0.7l-1.8 -0.3l-2 -1.3l-1.2 -2.4l-1.8 -2.1l-1.5 -0.9l-2.1 -2.9l-0.3 -1.8l-1.1 -2.4l-0.9 -2.8l-1 -1.6l-0.3 -1l-0.5 -2l-1.4 -1.5l-0.7 -2l-0.6 -1.9l-2.2 -7.4l-2.1 -2.3l-18 0l-1.8 -5.7l-7.9 -6.9l-7.9 -0.2l3.2 7.1l4.9 5l1.2 12.9l-1.3 4.2l-2.9 0.6l-2.5 -1.4l-3.2 0.9l-7.5 -1.9l-3.8 2.9l0.5 3.1l-36.1 0z"/><path data-id="16063" d="m427.2 1351.7l0 76.7l36.9 0l0 6l3.2 0l0 3.2l47.7 0.1l0 9.5l19.1 0l27.1 0.1l0 -18.8l8 0l-0.1 -77.2l-106.5 0l-35.4 0.3z"/><path data-id="16065" d="m849.4 1218.5l-1 9.7l2.7 1.3l3.3 -0.6l2.7 -3.7l1.7 2.5l1.8 -0.9l1 2.9l4.7 2.3l2.4 4.1l4.4 0.4l1.7 2.8l2.7 0.5l4.2 5.8l2.8 1.9l2.7 -0.2l4.3 2.9l14.7 0l0 6.3l9.7 0l5.5 1.1l21.3 0l-0.2 -58.3l0.3 -9l-4.3 2.8l-6.8 -1.4l-1.9 -2.5l-3.6 -0.3l-4.9 2.2l-1.3 2.4l-3.1 1.7l0 4l-22.4 0l0 -3.2l-22.5 -0.1l0 -6.5l-22.5 -0.1l-0.1 29.1z"/><path data-id="16067" d="m534.1 1447.3l0 50.4l6.8 -3.1l2.2 0l5.8 3l8.2 -4.4l1.5 -0.2l2.7 2.1l0.8 2.9l3.1 2.5l6.5 0.8l7.2 -3.7l1.6 -2l3.7 -9l2.3 -2.1l3.6 -6.3l1.5 -4.5l2.9 -2.5l10.2 -3.7l3.5 0.9l0 -39.5l9.5 0l-0.1 -77.4l-48.5 0l0.1 77.2l-8 0l0 18.8l-27.1 -0.1z"/><path data-id="16069" d="m29.1 631.7l0 2.7l0.3 1.1l1.5 1.2l1 0.3l1.8 0.3l1.1 0.6l0.8 2.2l0 2.1l0.4 1.2l2.1 2.2l1.6 0.5l1.2 0.9l0.8 1.5l-1 2.9l0.5 1.7l1.8 1.6l1 1.1l0.6 1l1.3 3.4l0.6 2.7l-0.1 1.1l-0.5 1.4l-1.1 2.4l0 1.5l2.2 2.3l1.7 2l2.9 3.3l0.4 1.4l-2.3 5.2l-2.1 3.9l-0.4 1.7l0 1.8l-0.6 2.1l-3 1l-1.3 1.1l0 1.9l0.5 1.1l1.4 0.8l1.1 0.2l2.3 1.8l1 1.6l1.8 5l1.4 5l0.7 4.3l0.4 1.1l0.7 1.5l3 3.4l1 3.7l1.8 3.2l1 4.9l0.5 1.6l1.1 2.2l2.6 3.5l2.2 1.4l1.7 1.3l3.7 5.2l7.4 -2.5l3.2 -5.8l-4.3 -11.1l1.3 -4.4l7.6 -8.2l0 -15.6l-0.2 -40.5l3.1 -1.2l-3.1 -11.4l-1.2 -1.3l-0.5 -6.6l36.1 0l-0.5 -3.1l3.8 -2.9l7.5 1.9l3.2 -0.9l2.5 1.4l2.9 -0.6l1.3 -4.2l-1.2 -12.9l-4.9 -5l-3.2 -7.1l7.9 0.2l0 -7.9l-12.7 0.6l-0.6 1.7l0 -15.4l-0.7 -17l-20.3 0.1l-6.3 -0.3l-6.1 4.1l-4.7 5.5l-1.4 0.2l-3.7 10.5l-51.7 0.3l0 16.4l0 2.1l0 8.6l0.8 1.8l-0.1 1.9l-1 3.4l-0.8 3.6l-1.7 1.9l-0.9 1.5z"/><path data-id="16071" d="m684.4 1543.1l0 71.6l3.4 0l11.2 -0.1l4.4 0l8 -0.1l7.2 -0.1l12.8 -0.1l9.9 0l31.8 -0.1l10.4 0l19.6 0l4.2 0l7.4 0l3.2 1l1.4 0l8.9 -0.2l0 -37.5l6.3 0.1l-0.1 -14.9l-2 -1.7l-2.4 -5.2l-2.4 0.1l-2.1 -3.5l-1.9 -2.3l-2.9 0.3l-0.8 -3.1l-4 -6.3l-0.8 -2.9l-11.1 0l-2.6 7l-2.5 0.4l-2.2 -2.1l-3.6 0.6l-0.3 -5.1l3.9 -7.1l1.8 -1.5l0.5 -8.8l-1 -5.8l-7.4 1.4l-0.5 -4.2l-3.1 0l-2.4 -3.2l-0.7 -4.7l-5.7 0l-12.6 0l0 19l-25.2 0l0 19.1l-55.8 0.3z"/><path data-id="16073" d="m34.8 1257.9l0 2.3l0 2l0 1.3l0 3.8l0 122.7l0.1 48l-0.1 40.1l0 53.9l0.1 4.7l0 41.6l-0.1 7.2l0.1 3.4l0 25.6l1.3 0.1l1.4 0.3l6.5 -0.2l55.2 0.3l6.4 0.1l10 0l2.4 0.1l1.4 -0.1l2.6 0.1l3.6 0.1l15.3 0.1l5.8 -0.2l27.2 -0.1l20.2 0l1.3 0l1.9 -0.1l1.1 -0.1l4.1 -0.1l16 0.1l1.3 0l1.5 0.2l39.4 -0.1l6.3 0.1l44 0.2l9.6 -0.1l34.9 0.1l0.1 -66.4l0 -102.3l-3.5 0l-10.5 0l-14.3 0.1l-12.4 0l-8.7 0l-7.5 0l-5.5 0l-4.8 -1.9l0 -2.1l0 -13l1.7 -1.3l0.4 -7l0 -8.5l-2 -1.5l-1.5 0l-1.9 0.1l-2.3 0l-2 0.2l-1.6 -1.4l-1.5 -1.1l-1.7 -0.9l-2.5 0.3l-1.7 0.7l-1 0.8l-1.4 -0.3l-1.6 -0.3l-1.3 0.1l-1.5 -0.2l-1.2 -1l-0.8 -1.5l-1.7 -1.5l-2.3 0l-1.8 0.6l-1.7 1.3l-1.5 0.7l-1.6 0.4l-2.3 0.6l-3.1 0l-2.4 0.1l-2 -0.7l-1.4 0.8l-1.7 0.2l-2.7 -0.4l-1.9 -0.9l-1.3 -2.1l1.2 -1.2l-0.2 -2.3l-1.8 -1l-2.1 0.1l-2.1 0.1l-1.7 0.3l-2 0.3l-2.5 -1l-1.5 -2.6l-1.7 -0.4l-1.5 1.2l-1.9 0.2l-1.9 -1.6l-0.9 -2.1l-2 -0.6l-1.1 1.4l-1.8 0.7l-1.4 1l-0.7 2.4l-0.6 1.6l1.1 2.1l0.5 1.7l-0.5 1.4l-1.9 -0.2l-1.9 -0.3l-2.1 -0.2l-2.1 -0.4l-1.4 -1.3l-1.2 -0.9l-1.2 -2.1l-1.8 -2.9l-2.6 -0.9l-2.5 0.1l-1.8 -0.4l-0.9 -1.5l-1.6 -1.4l-2.9 -2.7l-1.6 0.1l-1.1 0.2l-1.3 -1.1l0.7 -1.1l1 -1.6l-1.2 -1.6l-1.4 -0.4l-2.4 0.4l-2.8 -1.4l-1.9 -0.9l-1.1 -2.8l0.3 -2.4l1 -1l0 -2.5l-1.4 -1.3l-3.3 -0.6l-2.9 -0.5l-2.1 -0.8l-1.5 -1.7l-0.3 -1.7l-4.9 -0.4l-3.1 -5.5l-2.1 -1l-0.6 -2.9l-2.5 -0.8l-5.5 -6.4l0.3 -5.2l1.3 -3.1l-2 -4.9l-2 -1.6l-1.5 -5.4l-2.4 -2l-7.5 0.5l-4.7 2l-1.7 -1.9l-1.6 -1.6l-4.6 -0.3l-4.6 -1.5l-3.4 -5.7l-1.1 -4.4l-2.5 -4.1l-7.2 -3.7l-1.5 -3.1l-8.4 -8l-2.5 -4.1l-6 -5.2l-0.6 -8.1l0.8 -2.7l-3.2 -4.7l-2.6 -6.6l-4.7 -3.8l-4.3 0.5l-6.5 -2.4l-2 -3.7l-5 -3.5l-2.1 -7.1l-5.9 -1.3l-3.6 -1.7l0 1.2l0 2.5l0 7.3l0 1.5z"/><path data-id="16075" d="m43.1 1196.5l-0.6 3.5l4.1 0l0 9.8l6.5 0.1l0 3.2l3.2 0l0.1 3.2l6.6 0l0 3.3l9.7 0l0 -1.6l6.5 0l0 -1.6l6.5 0l0 -39l22.6 0.2l0 -6.4l6.4 0.1l0 -12.8l12.8 0.1l0.1 -19.3l-71.8 -0.3l-4.9 9.7l-1 2.1l-1.6 1.3l-2.2 0.5l-1.6 0.2l-1.1 0.6l0 7.8l0.1 1l2.7 1.4l2.1 1.6l1 1.4l0.4 1.2l-0.4 3l-1 2l1.1 2.2l-0.3 1.6l-3.5 0.4l-1.4 1.2l-1.1 0.8l1 1.4l1 -0.2l0.6 1.1l-0.2 1l0 1.5l-0.6 2l-0.6 1l0.2 1l1.2 0.9l0 2.1l-3.1 1.3l0.4 2.1l0.1 1l0.1 1.3z"/><path data-id="16077" d="m645.1 1371l1 57.9l0 18.9l9.4 0l0 19.1l-9.4 0l0 11l6.7 -1.9l3.3 1.5l-0.1 8.3l27.9 0.3l0.2 57l56.1 -0.3l0 -19.1l25.2 0l0 -19l12.6 0l0.7 -14.3l4.7 -0.8l-0.5 -11.5l1.6 -4.8l-6.2 0l0 -6.3l-3.1 0l-0.1 -4.8l-3.2 0l0 -7.9l-6.3 0l-0.1 -12.7l-3.1 0l-0.6 -26.8l-6.2 -10.6l-4.8 -2.8l-2.2 3.1l-2.7 -0.3l-3.9 4.2l-9.4 1.5l0 2.1l-4.1 2.2l-1.6 2.3l-1.6 -1.6l2.5 -6l-3 -2.5l-2.5 3.8l0.8 2.4l-2.9 2.2l-0.1 4.5l-2.4 3.5l-2 -1.1l-1.5 4.3l-30.8 0l0 -54.7l-38 0z"/><path data-id="16079" d="m147.3 239.5l0 30.7l0 114.1l0 93.1l0 20.6l110.9 0.2l1 0.1l109.2 0.1l-1.6 -1.4l-2.8 -3.1l-2.1 -3.3l-0.3 -1.4l-4.4 -0.9l-0.6 1l-2.6 0.5l-1.8 -4.7l-1.1 -2.7l-1.5 -5.9l-2.1 -4.7l-1.3 -0.5l-1.3 0l-3.9 -4.6l-2.1 -4.7l0.1 -2.2l-0.5 -1.1l-2.4 -0.4l-2.2 -1l-1 -2.4l-1.3 -3l-2.6 -2.4l-3 -2.1l-3.5 -0.5l-1.8 -2.7l-0.3 -2.6l-1 -2l-4.1 -0.7l-2 -0.8l-0.1 -1.2l0.9 -3l0.6 -1l-1.1 -3.8l-1.3 -1l-1.7 -1.3l-1.1 -2.5l0.8 -2.1l-3.2 -1.9l-3.2 0.6l-4 -1.8l-3.7 0.7l-1.9 -1.5l-0.2 -1.3l-1.7 -0.9l-3.5 0.5l-0.7 -1.2l-1.8 -0.9l-1.9 1.1l-4.5 -2.7l-3.3 -2.3l-1.8 -5.9l-1.7 -1.6l0.3 -3l-1.2 -1.4l-1.5 0.1l-1.8 -1.1l-0.1 -2.3l-6.5 -3.7l-4.1 1.1l-2.4 -5.4l-2.6 -0.5l-0.3 -1.5l-3.7 -1.7l-2.4 0l-1.3 -2.1l-2.6 -0.2l-1.9 0.7l-1.7 -0.2l1.9 -4.3l2.9 -1l1.8 -1.4l5.8 -1.1l1.4 0.7l3.9 -0.6l1.6 -1.2l1.6 -4.4l-3 0.4l-1.9 -0.1l-1.2 -2.4l-2.5 1l-1.8 -4.3l-2.8 -3.5l0.1 -1.7l2.3 -1l-1.6 -1.6l-1.8 0.2l-3.8 -1.1l-2 -1.2l-0.4 -1.9l3.9 -4.3l1.4 -1l2.7 -1.6l2 -4.5l-0.3 -5.8l-2.2 -2.6l-3.5 -1.7l-1 -3l1.5 -5.6l0.7 -4.2l-1.3 -2.1l-2.1 -1.8l-2.5 -1.7l-2.4 0.3l-1.6 -2.7l0.3 -3.6l-2.5 -3l-1.1 -0.4l-3.5 1.4l-1.1 -0.8l-0.6 -1.2l0 -2.1l-0.9 -2.6l-1.1 -1.2l-0.1 -5.4l0.3 -1.5l-0.9 -3.2l-3.1 -2l-0.7 -1.9l-1 -1.5l-3.2 1.5l-0.9 -1l-0.2 -1.2l-1.2 -0.3l-3.8 -6.8l-3.8 -3.9l-0.3 -2.8l-0.6 -1l-2.3 -0.8l-1 -1.6l-0.9 -2.3l-2 -3.1l0 -1.1l-3.7 -5.3l-1.3 0.3l-1.7 -1.3l-2.1 -4.5l-6.7 -4l-2.7 -5.1l-6.7 2.9l-7.3 -6l-4.2 -5.4l-6.5 1.7l-9.1 10.7z"/><path data-id="16081" d="m942.4 1199.4l0.2 58.3l25.2 0l2.9 3.4l0 3.6l3 10.3l1.4 0.9l4.3 -1.6l4.6 0.1l2.8 3.3l6.5 2.3l2 -1.3l2.8 1.8l1.7 4.1l0 -18.3l0 -16.9l0 -4.9l0 -1.1l-0.1 -8.1l0 -1l-0.1 -20l0 -20.7l-0.1 -14.9l0 -1.9l-1.9 -0.2l-7.2 3.6l-1.7 0l-10.3 6.5l-1.6 1.7l-8.1 -3.7l-2.7 2.2l-2.8 0l-1.4 2.7l-4.8 1.6l-3 -1.3l-1.3 -3.3l-3 -1.8l-7.1 5.6l0 8.2z"/><path data-id="16083" d="m355.7 1548.8l-0.1 66.4l1 0l19 -0.8l2.4 0l3.8 -0.3l7.2 -0.2l4 0.1l13.8 0.8l19.8 0.8l16.1 0l4.9 -0.2l30 0.3l-0.8 -73.2l0.2 -19l34.9 0l0 -18.8l0.3 -2.5l10.8 -2.6l-4.6 0.5l-2.2 -1l-3.9 1.3l-4.6 3.2l-3 0.3l-2.6 2.6l-3.2 -0.6l-3.7 -4.1l-1.1 -3.4l-10.5 -5.9l-6.9 -0.6l-3.2 -2.2l-4.1 -0.2l-2.8 -3.5l-4 -2.1l-10.6 0.5l-4 -0.8l-11.9 -7.4l-10.1 -1.9l-2.4 -1.6l-5.7 -2.6l-4.9 0.3l-10.2 -3l-5.2 2l-5.6 0l-2.2 -4.8l0.2 -3.9l-4.2 -2.1l1 -4.7l-2.2 -4.4l-3.1 -0.3l-5 -3l-4.1 0.8l-1.2 -5.4l1.5 -3.2l-0.9 -1.6l3.6 -2.9l1.8 -3.8l0.3 -3.4l-2.8 -4.8l-5.8 -5.3l-0.9 -2.2l-10.6 -0.6l-1.9 1.3l0 31.6l0 102.3z"/><path data-id="16085" d="m166.2 1100.2l-0.2 38.9l3.3 0l6 0l3.8 0.8l2.2 0l0.4 -1.5l0 -1.2l-0.4 -1.5l-0.1 -1.1l0.5 -1.2l0.2 -1.4l0.3 -1.6l0.2 -1.5l0.6 -1.4l0.3 -1.1l0.1 -2.3l0.1 -1.2l0.4 -1.6l0.9 -1.3l7.3 0l6.1 0.2l4.2 0l8.1 0l6.3 0l6.1 0l7 0l9.5 0l11.2 0l6.4 0l4 0l9.7 0l7.5 -0.7l1.2 -1l1 1l0.5 1l2.4 -1.1l1.9 0l1.4 -0.7l2.4 -1l1.3 -1.4l1.6 -1.6l1.7 -1.3l1.8 0.3l1.5 0.7l1.4 -1.2l0.9 -2.8l0 -1.6l1.8 -1.6l2 -1.2l2 -1.4l0.5 -2.1l-0.2 -2.6l0 -2l-0.6 -1.3l0.3 -1.5l1.2 0.2l1.7 -0.5l2.6 0.3l2.6 1.3l1.2 0.6l0.9 -1.1l0.8 -1.3l-0.2 -1l2.1 -1.7l1.4 -1.6l1.1 -2.4l1.3 -1.7l1.3 -4.3l1.2 -1.6l0.8 -3l-0.1 -3.6l-0.1 -2.4l-0.1 -1.6l0.6 -1.2l-1.3 -0.5l1.3 -1.8l-0.1 -1.5l-0.1 -1.1l-0.5 -1.1l-1 -1.2l-0.3 -2.3l-0.3 -1.2l-0.8 -1l-1.1 -0.7l-2 0.3l-1.8 0.1l-0.7 -1.5l-0.8 -1.1l-1 -0.5l0.1 -1.6l-0.4 -1.4l-0.6 -1.4l-0.4 -2.3l-0.2 -1.1l-0.5 -2.4l0 -1.1l1.2 -1.3l0.7 -1.7l0.4 -1.1l1 -1.2l0.3 -1l2 0.1l1.3 0.5l0.4 -1.7l2.3 -1.2l1.7 -0.6l1.6 0.7l-0.1 -1.2l0 -1.3l1.4 0.3l2.1 0.5l1.1 -0.3l0.3 -1.4l1.6 -0.9l0.5 -1.1l1.6 -1.2l1 -1.8l0.2 -1.6l0.6 -1.2l0.7 -1.3l0.4 -1.6l0.3 -1.3l0.4 -1.8l-0.1 -1.3l1.4 -2.9l-0.4 -1.7l-1 -0.9l0.3 -1.7l2.1 -3.1l2 -1.6l2 -1.5l2.4 -1.6l0.8 -1l1.8 0l1.6 2.3l1.8 0.8l1.8 0.7l1.7 1.3l0.3 1.5l0.8 1.1l1.2 -1.5l1 0.7l0 1.3l-0.1 1.1l0.2 1.7l0.5 1.1l1.2 -0.4l0.6 -1.5l1 -0.8l1.5 -0.4l1.1 0.1l1.1 0.7l1.1 0.7l1.2 0.6l1 -0.4l1 -0.9l0.6 -1.1l2.2 -0.8l0.9 -1.3l0.9 -1.6l0.7 -2.1l2.3 -0.8l0.6 -1.4l1.8 -1.5l1.3 -1.2l1.1 -0.4l1.6 -1.1l1.9 -0.9l0.6 -1.3l0.7 -1.2l1.1 -0.6l1.5 -0.7l1.1 -0.3l3 -6.2l4.3 -1.7l1 -3.9l-1.3 -1.5l1.2 -2.4l4.5 -0.7l1.8 -2.8l-2 -7.5l2 -2.3l-1.9 -3.3l-0.1 -5.3l2 -7.5l-0.7 -4.7l0.8 -3.6l-0.8 -8.6l1.1 -2.2l-2 -1.3l1.9 -6.1l-1.7 -6.9l1.4 -2l0.2 -4.6l4.5 -3.9l-49.5 0.1l-157.2 0.4l1.7 -1.9l-1.9 -3.6l-6.9 8.3l-4.2 1.2l-0.4 2.5l-2.6 0.2l-2.8 2.8l-6.5 -1.3l-2.4 4.9l0.2 3l-1.5 3.8l0.7 2.2l-0.3 2.1l0.1 1.5l2 1.5l2.8 0.3l2.5 1.3l0.7 1.7l-1 1.6l-0.7 1.3l0 1l-0.1 1.8l-1 1.4l-1.7 1.9l-1.3 1l-0.7 1.5l-0.4 1.8l0.9 1.4l0.3 1.6l1.2 1.2l0.7 1.3l0.2 1.5l-0.6 2.6l-0.8 1.2l-0.6 1.9l-1 1.3l-1.4 0l-1.7 -0.6l-0.1 1.4l-0.5 1.1l-0.1 2l-0.3 1.1l0 1.4l-0.2 1.4l-0.4 1l-1.7 0.9l-0.1 1.8l-1.5 0.5l-0.8 1.9l-0.3 1.3l-0.1 1.3l-1.2 1.5l0.2 1.5l0.1 1l-0.3 1.4l0.1 1l-0.1 1.5l-0.1 1.9l-0.2 1l-0.1 1.4l-0.2 1.3l-0.4 1.8l0.2 1.1l-0.5 1.4l-0.4 1.4l-0.1 2.2l0.2 1.2l1.3 1.1l1 1.6l0.8 1.6l1.8 1.7l-0.2 2.7l-0.8 1.2l0.8 1.1l0.9 1l0.7 1.1l1.6 1.9l-0.3 2l-0.7 1.3l0.2 1.8l-0.7 3l-0.8 2.6l-0.9 1.9l0.8 1.9l0.1 2.7l0.2 1.5l-0.7 1.6l-0.5 2.1l-0.3 1.9l-0.2 1.7l-0.2 1.4l1.1 2.9l-0.1 1.5l0.4 1.8l0.4 2l0.9 2.1l0.3 2.2l0.4 2.5l-0.1 1.6l0.5 2.1l1.1 39.8l-9.8 0z"/><path data-id="16087" d="m0.1 1083.9l-0.1 1.3l1.3 3.9l1.2 1.3l1.8 1.8l1 0.6l2.2 2.4l1.2 2.4l-0.3 1.6l-1.9 3.7l-2 0.9l-0.9 1.7l0.5 2.9l3 3.3l4.5 3.3l2.1 0.3l2.2 -0.2l1.5 -1l0.5 -1.4l1.6 -1.8l1.5 -0.7l1.2 0.2l0.9 1l0.6 1l0.6 2.4l2 2.4l1.8 1.3l1.3 1.5l0.5 1.4l1.1 0.5l1.2 -3.1l1 -0.9l1.3 -0.5l1.2 0.6l3.1 0.2l2.3 0l1.8 0.6l0.7 1.6l-0.3 2.2l0 4l0.3 2.4l1 0.7l2.9 0.6l1.2 -0.6l2.4 0.4l3.7 2.7l1.1 1.9l0.3 2.5l-0.3 1.4l71.6 0.7l15.1 0.1l0.7 -3.7l-0.5 -8.9l2.2 -2.4l-1.3 -4.5l1.6 -8.8l-1.5 -2.4l1.5 -5.2l-0.9 -2.6l3 -8l-0.9 -4.1l1.9 -2.5l0.5 -7.7l3.1 -5.3l-17.4 0l-19.6 -10.6l0 -28l-11.9 0l0.6 -4.9l-4.1 -5.9l-0.1 -40l-44.5 -0.6l-0.8 1.5l-2.4 4.6l-1.2 1.4l-0.9 2.2l0.1 1l0.4 1.1l-0.7 1.3l-2.3 1.3l-2.9 0.6l-1 0.6l-0.8 1l-1.4 1.3l-2 1.3l-1.2 0.1l-1.3 -0.2l-3.9 2l-1 0.7l-2.9 4.1l0.3 1.2l-0.2 3.4l-1.7 1.4l-1.1 1.9l-0.2 1.2l-1.7 4.1l-0.8 2.6l0.3 1.2l-0.5 2.6l-1.6 3.1l-1.1 0.5l-0.5 1.1l-0.4 1.2l-0.8 4.7l0.1 2.3l-1.5 1.9l-1.4 0.9l-1 1.6l0.9 1.6l-0.2 2.6l-0.8 2.1l-0.5 1l-1.4 1.5l-1 0.4l-2.3 0.1l-1.3 2.1l-0.3 1.5l-0.5 1.6l-1 1.8l-1.4 1.4l-1.2 -0.1l-1.2 0.5l-0.3 1l0.2 1.3l1.2 3.3l0.2 1.2l0.2 1.3l-0.1 4.7l-0.5 1.5l-1.2 2.9l-1.5 1.8l-1.3 0.7z"/></svg>
