<?xml version="1.0" encoding="UTF-8"?>
<!DOCTYPE svg PUBLIC '-//W3C//DTD SVG 1.1//EN' 'http://www.w3.org/Graphics/SVG/1.1/DTD/svg11.dtd'>
<svg viewBox="0 0 10000 16169.1" xmlns="http://www.w3.org/2000/svg">
  <g data-id="001">
    <path d="m1177 12938.4l0 0l2.4 374.6l17.3 18.6l46.9 -20.1l75.5 -5.2l24.2 20.2l15 53.6l19.9 15.6l20.2 48.9l-13.4 30.9l-2.6 52.1l55.2 63.6l25.3 7.6l5.6 28.6l21.2 9.9l31.4 54.7l49.3 4.4l5.1 10.9l463.8 -2.6l6.1 -557.1l-1.4 -503.3l-7.2 12.4l-94.4 -96.6l-362.4 -367.2l-30.1 -30.3l-371.8 0.5l-1 386.1l63.9 0.2l-0.2 32.6l0.1 97.3l-0.1 259.3l-64.1 -0.2z" />
  </g>
  <g data-id="003">
    <path d="m559.4 9815.4l0 0l-7.7 15.5l445.2 5.9l1 400l40.6 58.9l-6.4 49.1l119.4 0.1l0.4 279.8l195.6 106.5l173.8 -0.3l70.8 -49.1l32 3.6l3.6 -37.4l33.2 -66.8l32.3 38.8l58.5 -11.9l-2.5 -4l-4.5 -20.8l1.3 -15.6l-4 -24.5l-3 -21.7l-8.7 -21.1l-4.1 -20l-3.9 -18.2l0.8 -15.2l-4.1 -21.1l-7.4 -8.1l-3 -6.9l4.8 -6.6l2.3 -16.6l2.8 -18.5l5 -20.6l7 -15.5l-2.3 -15.1l-1.4 -26.6l-8.1 -19.5l9.5 -19.3l7.5 -26.5l6.9 -30.2l-0.8 -10.7l-0.6 -6.9l0.9 -4.6l5.6 -8l3.4 -19.8l-8.2 -15.8l-6.3 -3.4l-2.1 0.1l-2.2 -1.7l-0.6 -2.3l-2.4 -3.6l-2.1 -3.3l-4.7 -4.9l-4.3 -5.1l-1.5 -2.5l-1.6 -3.2l-4.9 -4.6l2.5 -6.9l5.1 -4.7l1.9 -27.5l-17.7 -17.2l-8.3 -15.9l-9.7 -15.9l-4.7 -7l-8.3 -4.1l-2.2 -12.1l-3 -13.1l3.9 -9l3.4 -7.9l1 -6l1.7 -5.9l2.7 -7.6l-1.2 -4.9l-1.2 -5.9l1 -8.7l2.9 -8.7l1.2 -6.1l0.7 -6.9l0.5 -14.3l1.9 -10l0.6 -18.6l1 -15.4l-0.5 -10.2l2.5 -10l1.5 -4.3l-0.7 -10.4l-0.4 -8.7l-1.5 -6l2.5 -5.7l5.5 -1.3l3.3 -7.7l1.5 -12.6l2.5 -13.1l2.8 -15.3l5.3 -4.4l6.6 -1.6l3.7 1.8l4.1 -1.5l0.1 -3.6l1.3 -18l11.5 -6.3l5.1 -2.7l3.1 -3.1l1.1 -6.7l1.6 -14.3l0.3 -13.6l3 -11.3l3.7 -11.9l-3.2 -8.4l5.4 -10.5l-1.5 -8.9l3.3 -5.4l10.5 0.7l7.5 5.2l13.7 -0.3l9.7 -13.3l6 -18.8l7.8 -11.9l4.2 -17.9l2.5 -8.3l-2.3 -14.5l-5.2 -7l-2 -5.5l-7 -7.3l-4.9 -4.6l-2.8 -16.1l-7.1 -7.4l-1.9 -7.4l4.4 -18.4l7.1 -15.1l12.8 -9.6l8.6 -13.4l8 -6.4l10.2 -13.8l1.1 -18.4l-0.3 -10.2l0.1 -8.5l7.2 -5.1l6.1 -10.1l3.6 -5.7l0.4 -9.9l-7.3 -6.9l-25 -12.7l-27.5 -2.9l-11 -6.2l-9.2 -9.3l-1.2 -15l3.1 -21.5l-6.9 -21l0.1 -1l-258.7 -2.6l1 -23.7l29.3 -21.9l-2 -40.9l-26.7 -58.3l4.3 -28.5l-18.8 -61.5l-29 -64.4l-19.6 -65l-555.4 0.4l-6.7 9l-7.5 20.8l-12.2 34.2l-9.3 46.5l-0.6 5.1l1.9 22.6l-1.6 9.9l-23.7 72.1l0 19.6l-7.4 42.4l-1.4 5.2l-2.6 4.9l-37.8 59.4l-32.6 19.3l-12.3 22.3l-1.7 5l-1.1 12.5l0.8 22.5l0.1 3l-22 38.2l-18.1 22l-26.7 29.2l-8 5.8l-18.1 10.1l-10.7 19l-0.2 2l3.5 7.4l1.7 7.2l0.3 31.7l-2.4 3.6l-17.2 35.5l-2.5 12.6l11.1 43.1l1.1 3.9l6.9 15l17.4 24.8l6 17.4l-0.3 3.7l-2.3 5.5l-7.8 12.2l-5.9 19.8l-6.4 22l-7.2 26.7l-3.1 13.5l-7.4 15.5l-13.4 23.1l-29.5 28.1l-20.4 22.6z" />
  </g>
  <g data-id="005">
    <path d="m7245.7 14036l0 0l0.8 26.1l29.8 25.2l-24.9 60.3l16.1 16.1l16.3 -23l40.7 -22.3l0 -20.7l94 -14.6l39.3 -41.9l27.4 3.1l21.8 -31l47.9 27.8l62.4 106.3l6.3 268.3l31.5 0.2l0.5 126.8l63.2 0.1l0.4 79.5l31.6 -0l0.7 47.6l31.4 -0.1l-0 63.4l61.9 0.2l-15.7 47.7l5.2 115.3l-47.4 7.9l-6.9 142.6l57 -0l6.9 47.2l23.8 31.7l31.4 0.1l4.9 42.1l73.7 -13.6l10.4 58.5l-5 88.2l-17.6 15.3l-38.9 70.9l2.8 51l35.6 -5.8l22.3 21.1l25.2 -3.9l26.4 -70l110.7 -0.3l7.7 29.3l40.2 63.1l8 30.5l29.4 -2.8l18.7 22.9l229.6 -0.7l-0.1 63.4l140.6 0.5l2.3 -349l31.8 0.1l0.3 -63.7l-15.7 0.1l-0.3 -95.3l-15.8 -0l-2.5 -77.3l-31.6 -0.3l-1 -203.7l-8.1 -32.3l-39.6 -7.7l0.1 -85.9l-31.8 -0l14.8 -34.8l-17.5 -13.1l-2.7 -47.2l-141.7 0l-44.6 43.6l-33.8 -2.3l-13.4 -58.7l-37.4 -55.6l-5.9 -26l-6.5 -60.6l10 -43.4l20 -0.2l9.9 -45.2l-23.7 -39.7l-1.9 -67.3l-21.6 -40.6l25.4 -32.1l-15.7 -11l26.1 -59.1l39.8 -15.7l33.4 2.7l-10.7 -50.8l40.1 -14.1l17.7 -24.6l-16.4 -69.1l-957.4 0.9l-13.2 13.9l-21.9 -13.5l-3.3 20.9l-43.8 47.9l-54.9 3.7l9.5 34.4l-24.9 21.7z" />
  </g>
  <g data-id="007">
    <path d="m9046.1 14900.3l0 0l21.1 113.1l18.7 18.8l10.3 51.6l34 87.1l4.8 36l-31.4 31.7l0.1 53.8l24.1 -7.6l3.3 40.2l37.8 28.2l10.5 25.1l-58.3 56.1l9.9 34.1l-7 48.2l39.1 24.3l-46.8 30.2l-13.5 31.5l-24 6.1l1.4 39l-20.2 44.1l29.3 116.3l33.5 26.4l-19.2 93.4l52.5 34.7l72.6 18.7l10.1 12.8l12.1 149.9l0 -0l0.8 -0l57.9 -0.5l74 -2.4l7.5 0.1l8.1 0.1l595.5 -1.8l-0.7 -306.2l0 -14.1l0.1 -73.3l-0.1 -26.3l0 -187.4l-0 -149.7l0.5 -339.9l0.1 -19.6l-32.3 10.9l6.3 17.8l-52.3 25.2l-23.4 -5l-35.2 21.4l-44.8 -19.3l-19 38.1l-29.2 -13.5l-73.4 2.3l-22.8 -37.1l19.7 -30.2l23.1 -139.1l-29.7 -27.2l-0.5 -38.2l-12 4.1l-20.5 56.9l-29.3 47.7l-63.4 -18.5l-37.2 -21.4l2.5 -33.1l-44.9 -9.1l-374.1 -0.2l-28.4 16.1l-27.9 28.5z" />
  </g>
  <g data-id="009">
    <path d="m327.4 3956.3l0 0l0.4 44.8l-0.3 209.2l0.2 80.2l0 52.8l0 50.9l0.1 64.4l0 65.1l62.6 -7.6l53.7 36.2l-15.7 61.9l32.3 43.2l21.1 8.7l30.9 -34l46.8 8.7l21.2 27.2l58.2 45.4l19.2 4.1l-0.3 30.8l103.5 -0.1l504.9 -9.7l-0.2 34.3l207.8 0.4l0 -931.2l-172.3 3.1l-242.5 -4.7l0.1 34.4l-68.8 -0.1l0.1 68.8l-171.5 -0l0.3 -34.5l-23.2 0.1l-98.7 12.5l0 34.2l-369.8 0.7z" />
  </g>
  <g data-id="011">
    <path d="m6831.7 13710.4l0 0l-0.1 546.6l308.4 -0.4l15.2 -42.6l20.3 11.3l24.1 -34.6l0.7 -45.4l29 -21.5l-7.9 -23.6l25.1 -37.9l-0.8 -26.1l24.9 -21.7l-9.5 -34.4l54.9 -3.7l43.8 -47.9l3.3 -20.9l21.9 13.5l13.2 -13.9l957.4 -0.9l186.8 3l577 2.1l2.3 -578.8l-378.2 -1l0 -185.7l-198.9 -0.6l-158.2 -0.9l0.2 -96.4l-96.3 -0.3l0.2 -32.9l-672.2 -0.3l0.3 -448.2l-192.6 0.1l-93.4 7.7l-3.1 0l0.3 185l-95.8 9l-93.5 0.1l-0.7 193l-193.8 -0.5l-16.4 182.2l-0 183l-97.3 0.1l-0.6 384.7z" />
  </g>
  <g data-id="013">
    <path d="m3623.4 11923.3l0 0l36.8 105.3l-24.8 19.7l32.2 22.3l28.1 -12.7l33.6 31.8l73 35.2l61.3 17.7l-10.7 55.3l41.1 8.2l45.9 -32.9l64.9 24.8l32 -34l41.5 -17.5l20.3 20.7l15.2 47.3l4 75.7l38.7 27.7l-22.4 30.9l6.3 58.1l-19.1 26.8l14.3 35.9l27.2 20.6l-10.3 69.6l-16.7 29.5l-5.3 57.7l49.5 -5.9l25 43.2l79.7 32.9l-14.4 61.4l54.5 71.9l52.3 18.2l37.7 28.5l-13.6 45.1l-51.7 49.2l0.3 82.3l32.1 0.1l-0.7 66.1l-12.2 78.1l50.6 9.5l36.9 -7.4l27.6 16.3l49.6 -20.2l60.9 17.1l-0.4 152.7l32.4 0.1l-0.3 128.1l1065.1 -0.3l485.2 -0.2l1.2 773.8l-95.2 -0.1l-0 395.1l97.8 -11.2l62 -28.9l20 34.1l90.8 95.1l68.1 1l7.9 22.4l32.8 -15.8l0.2 -109.8l93.9 -0.3l-0.4 -190.8l-93.7 0.3l-0.1 -189l-10.4 -579.4l380.3 0l0.6 -384.7l-572 0.2l0.1 -182.9l-440.9 -0.9l1.5 -288.6l-31.1 8.3l-31 -14.7l11.7 -25.4l-30.2 -42.7l-4.4 -49.3l-22.8 -70l-42.8 -12.4l-33.4 6.5l-7.3 26.6l-39.2 18.7l-34.4 -5.3l-12.3 -5.9l-11.8 -62.8l-35.9 -10.8l-13.4 -44.7l-50.7 -56.9l-47.7 1.7l-10.5 -48.7l-35.6 -17.4l-29.8 -41l-36.3 -23.3l-15.5 -56.9l-35.7 -71.9l-37.9 -16.7l-38.3 25.1l0.6 34.7l-27.4 26.6l-75.8 -12.6l-33.4 -35.6l-7.1 -40.1l-28.6 -0.4l-32.5 -34.6l-99.4 -46.7l-55 -45.5l-13.2 -66.5l8.2 -40.2l-22.4 -18.6l-82 -7l-25.4 36l-81.8 -48.1l-28.2 9.3l-26.2 -12.7l-49.7 1.5l-17 -17.9l-36.6 12.1l-19.2 61.3l10.4 18.9l-24.5 39.3l-54.7 2.9l-31.7 -15.8l-2.4 -52.9l-36.6 -41.4l-43.8 -19.6l-17.9 -26.6l-59.3 -30.1l-213.9 -0.2l-0.1 -146l-96 -0l-93 54.3l-13.7 34.9l-51.4 33.3l-40.9 53.5z" />
  </g>
  <g data-id="015">
    <path d="m1564.6 11391.9l0 0l-14.4 770.8l30.1 30.3l362.4 367.2l94.4 96.6l7.2 -12.4l31 4.2l1.2 -27l33.3 -14.6l8.5 28.2l28.3 7.7l24.7 -15l34 16.9l46.3 -37.3l26.4 6.1l54.5 -74.3l43.7 -26l25.3 16.2l38.4 -23.9l6.7 -31.8l46.6 5.8l53.2 -71.3l30.2 -6.5l29.8 -50.4l-10.7 -50.9l28 -39.8l5.1 -43.2l33.3 -34.5l73 12.6l28.2 -52.1l-14.6 -70.3l21.7 -22.2l20.2 -54.1l20.6 -18.9l47.4 -9.2l73.9 -34.4l95.1 -34.5l16.8 12.1l111.7 -36.8l17.1 -55.6l38.8 -78.5l28.5 -24.9l29.6 -57.8l9.7 -53.1l20.6 -27.6l-16.5 -33.1l-37.5 -34.7l78.4 18.5l28.3 33l24.6 77.9l2.1 86l18.8 42.6l43.1 28.8l38.8 -12.5l-11.5 35.9l40.5 44.4l46.8 -37.9l42.7 17.6l34.2 0.2l37.8 -72.5l-28.3 -15.1l3.8 -50.1l-25.9 -21.3l-14.1 16.5l-40.3 -13.8l-25.5 -41.1l7.4 -47.2l38.6 -47.4l32.2 -12.9l2.6 -28.1l-36.3 -0.4l-42.3 -48.5l30 -16.7l17.7 -31.4l-11.3 -31.8l-43.7 -22l-16.9 11.6l-34.5 -36.1l-40 13.8l-36.3 -49.8l-21.3 4.3l-38.7 -28.2l7.9 -24.5l-19.5 -49l23.1 -9.4l-13.3 -97.8l-16.4 -30.3l-38.8 31.5l-15.6 -48.3l-37.6 -9.4l-19.1 25.7l-3 -32.4l-61.3 -30.7l-11.1 -33.3l-11.8 -6.3l-26.2 -12.8l-25.7 -3.1l-17.3 5.1l-12.2 -1.6l-3.4 14.9l6.2 13l-0.3 20.3l2.2 26.3l-4.7 21.4l-19.8 13.5l-19.5 11.7l-17.9 16.1l-0.1 16.3l-8.8 27.7l-8.3 4.4l-4.8 5.1l-0.5 3.5l-7.9 -0.4l-7 -6.6l-18.4 -2.7l-16.5 13l-16.4 16.2l-12.9 14.3l-24.1 10.2l-14.5 7.4l-18.7 -0.5l-16.7 11.7l-7.4 -0.9l-5 -9.7l-10.2 -9.6l-12.3 9.6l-75.5 6.7l-96.9 0.1l-40.3 0.1l-64.1 -0.3l-112.2 0.3l-95 -0l-69.7 -0.4l-61.3 -0.2l-62.6 0.5l-80.8 -0.2l-41.9 0l-61.2 -1.8l-72.6 0.1l-9.2 12.7l-4.4 16.1l-1.3 11.9l0.7 14.9l-2.3 7.7l-2.5 11.3l-6.4 14.3l-2.1 14.8l-2.6 16.4l-1.5 13.8l-4.8 12.2l0.9 11.2l4 14.8l0.2 12l4.5 7l-8.5 8.2l-21.6 0.2l-37.6 -8.1l-60.1 -0.1l-33.3 0l-95.5 0.4z" />
  </g>
  <g data-id="017">
    <path d="m324.8 2327.6l0 0l-0.9 164l554.9 0.4l104.8 0.1l0.5 -34.4l207.6 0.3l-1.3 243.8l283.2 -0.6l-0.1 -306.7l91.1 -106.5l64.6 -17l41.9 54.2l73 59.9l67.3 -28.6l27 51.1l66.6 40.3l21 43.9l-0.1 -54.4l0.8 -144.6l-0.9 -15.8l-0.2 -25.5l0.2 -27.6l0.6 -87.7l-1.4 -221.1l-0.3 -51.5l1 -29.9l-0.6 -59.9l1.3 -85.3l-1.7 -251.6l1.4 -164.8l-0 -51.2l-1186.9 3.9l0.1 -423.6l-2.9 0l1.7 -30.2l0.6 -393.7l-398.8 1.8l-1.5 236.9l-0.5 227.4l-1.1 69.3l-0.2 18.9l-1.5 294.6l0.2 169.8l0 0.7l0.1 16.2l-0.1 1l0.2 125.1l0 0.8l-5.5 395l-1.6 57l-0 0.9l0.1 7l0 0.7l-0 1.3l-0.1 5.3l0.3 2.2l-0.2 8l-2.5 118.6l-0.5 95.2l-0.4 96.4l-0 0.2z" />
  </g>
  <g data-id="019">
    <path d="m7618.7 12566.1l0 0l-0.3 448.2l672.2 0.3l-0.2 32.9l96.3 0.3l-0.2 96.4l158.2 0.9l198.9 0.6l-0 185.7l378.2 1l-2.3 578.8l370.4 -2.4l10.8 1.4l498.5 2.4l-0.1 -7.1l0.3 -4.3l0 -0.6l0 -3.5l-0.1 -6.3l0.2 -26.8l-0.1 -7.1l-0 -3.7l-0 -18.8l-0.1 -12.1l-0.1 -12.9l-0 -4.5l0 -9.1l-0.1 -231.5l-0.1 -0.3l0.1 -15.9l0.1 -10.6l-0.1 -14l-0.6 -266.1l-0.9 -411.5l-17.1 -41l-28 -17.5l-20.5 13.3l-64.8 -23.4l-28.1 -32.8l-45.9 -0.9l-43.3 16.3l-14.1 -9.2l-30.3 -103.1l0.4 -36.1l-28.6 -34.5l-251.5 -0.3l-212.9 -0.1l-55.3 -10.7l-96.8 0.2l-576.8 0.9l-864.9 -0.6z" />
  </g>
  <g data-id="021">
    <path d="m340.2 310l0 0l-0.4 69.3l398.8 -1.8l-0.6 393.7l-1.7 30.2l2.9 -0l-0.1 423.6l1186.9 -3.9l-0 -32.3l-0.1 -1188l-516.2 -0.7l-11.1 1.5l-66.9 1l-548 0.4l0.1 0.4l-443.9 1.5l0.4 305.1z" />
  </g>
  <g data-id="023">
    <path d="m5579.1 12668l0 0l-22.9 26l34.4 5.3l39.2 -18.7l7.3 -26.6l33.4 -6.5l42.8 12.4l22.8 70l4.4 49.3l30.2 42.7l-11.7 25.4l31 14.7l31.1 -8.3l-1.5 288.6l440.9 0.9l-0.1 182.9l572 -0.2l97.3 -0.1l0 -183l16.4 -182.2l193.8 0.5l0.7 -193l93.5 -0.1l95.8 -9l-0.3 -185l3.1 -0l0.3 -390l2.7 -389.5l-482.4 -0.9l-1.2 -588l-525.1 2.2l-154.7 -0.5l0.4 391.2l-67 -0.4l5.1 154.1l13.9 16.5l0.7 154.4l-15.9 39.5l-1.6 47l74 35.2l31.3 45.9l9.1 33.5l19.9 7.2l19.6 55.5l-27.2 -29.2l-56.2 -15.7l-49 18.5l-3.1 52.6l-13.9 37.3l-44.8 40.1l-10.8 25.5l-42.5 10.4l-22 34l-18.4 -3.1l-52.4 43.3l-42.6 12.3l-69.9 50.7l-56.1 24.8l-76.2 72.4l-38.5 1.4l-21.9 16.1l-37.3 89.8z" />
  </g>
  <g data-id="025">
    <path d="m3478.5 13135.8l0 0l0.7 381.9l792.9 -0.6l354.3 -2.9l0.3 -128.1l-32.4 -0.1l0.4 -152.7l-60.9 -17.1l-49.6 20.2l-27.6 -16.3l-36.9 7.4l-50.6 -9.5l12.2 -78.1l0.7 -66.1l-32.1 -0.1l-0.3 -82.3l51.7 -49.2l13.6 -45.1l-37.7 -28.5l-52.3 -18.2l-54.5 -71.9l14.4 -61.4l-79.7 -32.9l-25 -43.2l-49.5 5.9l5.3 -57.7l16.7 -29.5l10.3 -69.6l-27.2 -20.6l-14.3 -35.9l19.1 -26.8l-6.3 -58.1l22.4 -30.9l-38.7 -27.7l-4 -75.7l-15.2 -47.3l-20.3 -20.7l-41.5 17.5l-32 34l-64.9 -24.8l-45.9 32.9l-41.1 -8.2l10.7 -55.3l-61.3 -17.7l-73 -35.2l-33.6 -31.8l-28.1 12.7l-32.2 -22.3l-18.1 16.4l-5.9 50.3l-25.2 13l-29.7 122.8l-6.7 50.1l21.8 39.3l17.3 -0.6l13.6 28.3l1.4 41.7l-44.2 53.3l10 27.8l-11 30.7l5 62.8l-15.8 -1l-35.2 43.1l-28.3 -10.4l-5.7 520.2z" />
  </g>
  <g data-id="027">
    <path d="m344.3 12091.9l0 0l-5.4 20.2l15 13.9l2.7 12.6l-0.6 1.6l-7.1 20.8l-0 165.7l-0.3 2.3l0.2 40.4l-0.2 19.2l0.4 51.7l-0.1 4.9l35.5 17.3l58.7 12.5l20.8 70.8l50.4 35.4l20.2 37.3l64.6 24.4l42.7 -5.1l47 37.8l25.5 65.6l31.9 46.8l-7.5 26.7l5.8 80.7l59.7 52.1l25.2 41.5l84.3 79.9l14.7 30.9l72.2 36.8l24.9 41.4l11 43.6l34.1 56.6l46.4 15.5l46.1 2.9l16 16.4l-2.4 -374.6l64.1 0.2l0.1 -259.3l-0.1 -97.3l0.2 -32.6l-63.9 -0.2l1 -386.1l-129.2 0.1l-193.7 -0.1l-65.3 -0.1l0 16.2l-64.7 0.1l0 16l-96.7 -0.1l0 -32.8l-65.5 0l-0.5 -32.1l-31.8 0.1l-0.3 -32.4l-65.4 -0.6l0.2 -97.7l-40.7 0.1l-4.3 25.3l-1 2.5l-10.7 7.6l-2.9 1l-9.6 -2.3l-2.7 0.5l-18.9 5.3l-16.6 7.4l-2.6 10.2l5.3 5.1l14.1 5.3l4.8 7.9l-2.1 8.8l-6.2 5.2l-9.1 -3l-10.8 0l-7.1 5.1z" />
  </g>
  <g data-id="029">
    <path d="m8215.8 14179.9l0 0l21.6 40.6l1.9 67.3l23.7 39.7l-9.9 45.2l-20 0.2l-10 43.4l6.5 60.6l5.9 26l37.4 55.6l13.4 58.7l33.8 2.3l44.6 -43.6l141.7 -0l2.7 47.2l17.5 13.1l-14.8 34.8l31.8 0l-0.1 85.9l39.6 7.7l8.1 32.3l1 203.7l31.6 0.3l2.5 77.3l15.8 0l0.3 95.3l15.7 -0.1l-0.3 63.7l221.4 -0l16.9 -27.6l-9.4 -4l28.6 0.1l8 32.1l180.4 1.1l31.4 -31.7l-4.8 -36l-34 -87.1l-10.3 -51.6l-18.7 -18.8l-21.1 -113.1l27.9 -28.5l28.4 -16.1l374.1 0.2l44.9 9.1l-2.5 33.1l37.2 21.4l63.4 18.5l29.3 -47.7l20.5 -56.9l12 -4.1l0.5 38.2l29.7 27.2l-23.1 139.1l-19.7 30.2l22.8 37.1l73.4 -2.3l29.2 13.5l19 -38.1l44.8 19.3l35.2 -21.4l23.4 5l52.3 -25.2l-6.3 -17.8l32.3 -10.9l1.1 -150.6l4 -306.8l-0.9 -334.8l0.2 -173l0 -24.2l0 -11.1l0.1 -12.3l-0.3 -96.2l-0 -1.6l-498.5 -2.4l-10.8 -1.4l-370.4 2.4l-577 -2.1l-186.8 -3l16.4 69.1l-17.7 24.6l-40.1 14.1l10.7 50.8l-33.4 -2.7l-39.8 15.7l-26.1 59.1l15.7 11l-25.4 32.1z" />
  </g>
  <g data-id="031">
    <path d="m4770.7 15234.4l0 0l-1.9 189.5l7.8 731.9l281.3 0.5l0.3 0.3l73.4 -0.2l-0 0.3l21.8 -0l0 0.2l10.5 0l77.1 2.2l162.3 10.1l114.7 -0.9l42.1 -1.4l50.9 -0.8l425.3 -7.2l6.9 -1.1l104.8 -1.1l47.3 -0.8l9.2 -0.2l62.7 0.8l28.3 -1.9l144 -1.9l2.7 -1.3l400.6 -4.4l1.3 -0l0.1 -716.4l-2.8 -0l-1.8 -569.7l-278.9 -3.2l0.8 -82.9l-33.1 -14.5l-66.6 18.9l-32.8 15.8l-7.9 -22.4l-68.1 -1l-90.8 -95.1l-20 -34.1l-62 28.9l-97.8 11.2l-34.7 -9.3l-102.4 36.8l-29.1 24.6l-14.9 44.8l-36.5 63.3l-23 21.4l-36.8 89.9l-16.1 20.4l-72.4 37.1l-64.9 -8l-30.7 -24.6l-8.4 -28.8l-26.8 -21.2l-15.1 1.8l-82 44.1l-58 -29.6l-21.7 0.3l-67.8 30.9l-87.6 3.1l-23 16.3l-107.6 26.1l-3.2 24.7l-0.1 188.2l-348.9 -0.5z" />
  </g>
  <g data-id="033">
    <path d="m6852.1 11205.4l0 0l1.2 588l482.4 0.9l0.8 -194.1l869.1 1.5l196.2 0.9l1.1 -194.7l193.7 -0.6l-0.2 -97.7l90.2 0.1l-0 -98.3l9 -192.8l98 -0.1l-0.1 -190.8l281 0.8l0.2 -334.5l-103.5 -23.5l-36.5 -0.8l-8.6 22.6l-9.6 15.1l-35 1.1l-14.9 5.2l-20.3 15.8l-4.7 8.9l-71.7 17l-2.5 24l-21.9 5.5l-34 -38l-10.9 -31.2l-34.2 -54.8l-28 1.4l-25.3 14l-71.6 1l-5.8 15.2l-47.3 30.3l-23.2 2.8l-30 -15.6l-30.4 -9.7l-3.7 8.9l1.4 11.3l-4.5 16.7l-26.6 -10.8l-25.1 -4.6l-39.2 16.1l-4.8 15.4l-8.5 5.4l-8.4 0l-29.6 -17.4l-6.4 -17.6l-11.9 -8.2l-45.4 -4l-24.4 19.6l-6.8 -0.1l-60.9 -23.7l-12.5 -13.5l4.3 -13l-5.3 -17l-20.4 -12.1l-25.6 -3.2l-44.4 2.4l-34.6 24.5l-8.5 9.3l-3.5 7.9l0.1 18.4l-6.8 6.3l-47.7 0.9l-8.7 6.9l-7.6 15.4l3.7 80.8l-3.8 15.5l-15.9 43.2l-30 43.2l-77.4 -32l-40.3 -30.5l-20.7 -9.8l-43.7 38.4l-18.4 -7.7l-0.5 -9l-11 -12.1l-37.3 -18.5l-13.8 -2.2l-37 8.9l-17.2 -0.9l-28.5 -21.8l-86.4 8.3l-14.6 2l-10.8 -10.9l-59.1 -26.6l-18.2 -3l-25.8 11.7l-22.5 17.9l-43.8 15.6l-33.7 44.3l-50.3 50.3l-12.7 44.8l22.8 34.4l15 34.2l-1 32l-1.7 2.3l0.6 330.3l-203.8 -8.8l-88.6 0.1z" />
  </g>
  <g data-id="035">
    <path d="m1269.4 5699.2l0 0l7.3 170.2l-0.2 154.4l6.1 -16.9l126.7 -5.9l0.3 78.6l79.3 68.8l18.3 57.4l179.9 -0.2l20.8 22.7l22.5 74.3l34.7 4.7l27.7 36l28 -22.2l61.6 3.9l60.4 35.3l63.3 94.3l68 41.1l31 -8.3l144.5 23.2l54.4 39.2l12.8 -14.2l45.1 10.4l8.7 -29.8l27.1 -10.4l13.3 -29.5l-9.3 -28.7l23.8 -24.3l13.8 -49.8l-4.2 -50.7l13.7 -24.9l70.8 -48.3l23.7 -45.2l51.9 -56.2l-8.2 -30.9l13.8 -52.1l616.6 -142.1l1054.9 -236l-26.1 -7.8l-8.7 -15.1l7.2 -8.2l-4.9 -17.7l-12.2 -7.5l-22 -3l-5.3 -17.6l-3.8 -29.5l14.9 -10l14 -16.9l2.3 -40.7l-18.9 -17.7l-20.7 -34l-24.1 -14l-21.5 -3.6l-33.6 -5.6l-5.1 0.2l-15.5 41.2l-12.3 19.3l-16.2 -0.7l-23.3 6.9l-15.4 32.3l-25.7 2.1l-5.3 -11.7l-25.2 -18.9l-4.1 -11.6l12.2 -35l10.2 -5.1l10.5 -15.6l2.8 -45.5l-27.7 -25.7l-6.3 -22.3l-4.1 -3l-11.7 5.5l-18.9 -11.7l-15.4 2.1l-19.5 -3.9l-11.3 -22.4l-13 -3.7l-24.7 -25.3l-1.9 -15.4l-5.9 -6.6l-23.3 6.7l-18.3 18l-11.9 -9.8l4.1 -19l-6.6 -15.8l-25.3 -6.6l-18.6 -18.9l-2.5 -22.6l6.6 -10.7l-9.2 -18.1l-17.9 -3.1l-11.6 -8.2l6 -18.5l8.7 -4.4l10 -13.2l3.2 -15.4l-9.3 -36l14.3 -29.7l9.7 -7l-4.2 -12.2l-11.6 -4.3l-46.8 -24.4l2.1 -6.8l-1091.8 -1.1l-9.7 -1.2l-1108.5 -1.9l-0.2 722.5l-204.1 -2.7z" />
  </g>
  <g data-id="037">
    <path d="m3127.8 10422.7l0 0l-0.4 10.6l4.4 16.6l1 7.2l2.2 10.5l1.6 14.2l1.9 8.5l5.4 5.7l0.8 8.4l3.9 13.6l-2.7 7.9l2.2 7.9l9.6 4.9l7.6 10.7l-2.1 8.9l5.1 5.4l4.5 1.1l11.4 -2.4l6.8 0.7l11.7 2.8l7.9 -6l7 -0.6l3.7 8l2.5 8l6 2.2l4.2 5.5l-0.6 6.6l-0 14l2.7 8.6l9.6 11.5l4.6 10.6l1.4 11.3l1.2 15.4l-11.2 10.1l-1.5 7.9l6.8 3l6.3 2.2l2.1 10.4l-7.7 2.2l-2.4 10.1l2.6 6l0.8 23.9l1.2 36.2l-8.1 29.9l-11.8 16l-13 43.1l-12.8 16.7l-10.7 23.9l-14 15.5l-15 10.1l-6.3 6.5l1.6 9.5l-8 13l-7.9 3.2l-1 7.5l11.1 33.3l61.3 30.7l3 32.4l19.1 -25.7l37.6 9.4l15.6 48.3l38.8 -31.5l16.4 30.3l13.3 97.8l-23.1 9.4l19.5 49l-7.9 24.5l38.7 28.2l21.3 -4.3l36.3 49.8l40 -13.8l34.5 36.1l16.9 -11.6l43.7 22l11.3 31.8l-17.7 31.4l-30 16.7l42.3 48.5l36.3 0.4l-2.6 28.1l-32.2 12.9l-38.6 47.4l-7.4 47.2l25.5 41.1l40.3 13.8l14.1 -16.5l25.9 21.3l-3.8 50.1l28.3 15.1l-37.8 72.5l19.2 6.5l12.1 19.1l51.4 -33.3l13.7 -34.9l93 -54.3l96 0l0.1 146l213.9 0.2l59.3 30.1l17.9 26.6l43.8 19.6l36.6 41.4l2.4 52.9l31.7 15.8l54.7 -2.9l24.5 -39.3l-10.4 -18.9l19.2 -61.3l36.6 -12.1l17 17.9l49.7 -1.5l26.2 12.7l28.2 -9.3l81.8 48.1l25.4 -36l82 7l22.4 18.6l-8.2 40.2l13.2 66.5l55 45.5l99.4 46.7l32.5 34.6l28.6 0.4l7.1 40.1l33.4 35.6l75.8 12.6l27.4 -26.6l-0.6 -34.7l38.3 -25.1l37.9 16.7l35.7 71.9l15.5 56.9l36.3 23.3l29.8 41l35.6 17.4l10.5 48.7l47.7 -1.7l50.7 56.9l13.4 44.7l35.9 10.8l11.8 62.8l12.3 5.9l22.9 -26l37.3 -89.8l21.9 -16.1l38.5 -1.4l76.2 -72.4l56.1 -24.8l69.9 -50.7l42.6 -12.3l52.4 -43.3l18.4 3.1l22 -34l42.5 -10.4l10.8 -25.5l44.8 -40.1l13.9 -37.3l3.1 -52.6l49 -18.5l56.2 15.7l27.2 29.2l-19.6 -55.5l-19.9 -7.2l-9.1 -33.5l-31.3 -45.9l-74 -35.2l1.6 -47l15.9 -39.5l-0.7 -154.4l-13.9 -16.5l-5.1 -154.1l67 0.4l-0.4 -391.2l154.7 0.5l-22.9 -60l14.1 -28.3l-21.9 -99l-27.1 -28.9l-7.7 -37.3l-70.2 -83.1l-33.3 -91.2l-16.8 -8.7l-17.5 -54.9l-49.5 6.8l-39.7 58.6l-84.4 -10l-56.2 -38.5l-104.9 -13.8l-84.5 -56.2l-62.5 -13.9l-68.6 -30.1l-45.6 0.1l-45.4 -66.6l-88.8 -79.2l-33.7 -16.5l-87.4 -121.8l-15.7 0.7l-58.6 -76.5l-36 -82.1l-12.9 -50.8l-54.8 -100.9l-63.4 32.8l-18.4 25.3l-31.1 -33.9l-99.9 -3.6l1.1 -35l23.5 -36.4l-4.4 -49.4l13.2 -7.3l7.1 -78.9l-8.9 -56.6l-23.3 -0.6l-15.9 -36.4l-5.5 33.6l-60.4 33.2l-25.4 60.5l-35.2 8l-24.9 40.3l-46.5 18.4l-15.6 43.7l1.6 36l-43.4 34.6l-39.3 8.9l-4 45.6l54.5 22.1l-21.5 83.4l-36.4 37.6l-42.8 11.5l-21.2 44.9l-5.6 44.8l-41.2 39.8l-29 -22.3l-39.5 2.4l-33.1 46l-42.8 15.7l-57.1 -43.3l10.8 -54l-16.2 -36.8l-37.8 -40.7l-54.2 -21.1l-81 26.7l-45.4 -5.3l6.9 -39l-33.1 -56.3l-39.5 -43.5l-18.1 2.2l-39.5 -60.2l5.1 -61.2l26.8 -63.4l-23.7 -31.9l-1 2.9l-11.5 3.4l-8.1 5.4l-7.4 2.1l-11.5 6.5l-6.7 11.9l-5.8 13.2l-10 4.7l-1.1 6.7l-6.7 0.9l-1.2 -3.9l-8.8 4.6l-7.1 6.4l-10.9 3.8l-13.2 11.5l-17.7 14.8l-6 14l-14.4 5.7l-9.2 1.8l-8.2 12l0.5 9.4l-8.7 16.1l-4 6l-5.3 6.6l-14.1 5.8l-7.6 2.2l-7.3 5.4l0.6 5.8l-10.1 9.1l-9.8 3.6l-12 -5.8l-11.5 -6.7l-11.5 -7.1l-11.4 -0.5l-6.8 3.9l-7.9 -0.5l-4.6 -0.3l-5.2 7.7l2 8l-8.5 7.1l-3.2 7.7l-9.3 -4.1l-4.7 -11.1l-2.2 -16.8l1 -11.3l-0.4 -12.7l-9.5 -7.2l-4.9 8.3l-6.8 7l-8.1 -11.1l-3.1 -15.1l-17.3 -12.8l-17.5 -6.6l-9.2 -1.1l-8.7 -7.2l-10.1 -14.6l-6.1 -7.6l-18.5 0.2l-7.8 9.8l-23.8 16.4l-19.9 14.7l-19.9 16.4l-14.2 24.8l-6.5 5.6l-6.6 8.2l3.6 9.4l9.9 9l3.9 16.6l-14 28.8l1.1 13.1l-4.1 18l-3 12.9l-4.3 15.7l-7.4 12.6l-6.2 12.2l-1.6 15.8l-4.2 11.5l-6.4 6.1l-8.9 3.5l-6.7 8.9l-5 11.2l-16 8.8l-3.4 13.5l-11.5 3.4l-11.5 -6.4l-9.1 0.9l-4.8 -2.5l-8.8 -0.9l0.5 12.8l0.7 12.2l-10.2 -0.7l-5.5 -6.3l-17.2 6.1l-15.6 7.2l-6.5 4.7l-2.1 13.2l-2 3.7l-6.7 -0.8l-6.2 -3.6l-11.4 -6.9l-9.4 5.7l-2.8 10.3l-10.2 11.7l-4.1 10.8l-7.2 16.8l-11.8 13.4z" />
  </g>
  <g data-id="039">
    <path d="m1575.7 13707.4l0 0l-1.9 6.1l15.1 16.7l20.6 8.3l28.8 4.6l32.9 6l13.9 13.4l7.9 16.6l-8.2 8.4l-10.5 9.7l-2.9 23.5l11 27.9l19.3 8.9l27.8 14.3l24.2 -4l14 4.3l12 15.8l-9.9 15.6l-7.1 11.4l13.2 11.2l11.5 -2l15.8 -0.9l28.9 27l15.9 14.5l9.4 15.2l18.1 3.9l24.6 -1.3l26.5 8.9l17.8 29.1l12.2 20.9l11.6 8.7l13.9 13.4l21.4 4.3l20.9 1.5l19 3.4l10.2 3.7l9.4 -2.4l5 -13.5l-5.4 -16.6l-11 -20.9l6.1 -16.2l7.2 -23.6l14.1 -10.4l18.3 -7.2l11.4 -14.3l13.4 0.2l7.3 6.1l9.2 21l19.4 16l19.3 -1.8l15 -11.5l16.5 3.8l15.5 26l24.9 10.4l20 -3.2l17.3 -3.5l20.8 -0.9l20.7 -0.6l18 9.8l2.2 22.5l-11.6 12.1l13 20.6l19.1 8.7l26.6 4.2l16.9 -1.6l14.5 -8.5l19.6 7.3l24.1 -0.7l31 0.4l22.9 -5.8l15.7 -4.1l14.8 -6.7l17.5 -12.6l18 -6.3l22.9 0.3l17.3 15.1l8.2 15.2l12.4 9.7l15 1.9l13 -0.7l16.3 2.5l14.4 2.7l5.2 -0.6l4.7 -6.9l8.2 -5.3l9 -1.8l25.5 -3.1l16.6 9.1l15 10.7l16.4 14.3l19.6 -2.2l22.9 -0.2l18.7 -1l14.5 0.3l19.5 15.3l0.1 85.2l-3.8 70.2l-16.7 12.5l0.2 130.1l-0 21.1l48.1 19.4l55.1 0l74.9 0.3l86.9 -0.1l123.6 -0.3l142.9 -0.7l105.1 -0.3l35.2 -0.2l-0.1 -315.6l-79.2 -5.9l1.1 -625.9l-0.7 -381.9l5.7 -520.2l28.3 10.4l35.2 -43.1l15.8 1l-5 -62.8l11 -30.7l-10 -27.8l44.2 -53.3l-1.4 -41.7l-13.6 -28.3l-17.3 0.6l-21.8 -39.3l6.7 -50.1l29.7 -122.8l25.2 -13l5.9 -50.3l18.1 -16.4l24.8 -19.7l-36.8 -105.3l40.9 -53.5l-12.1 -19.1l-19.2 -6.5l-34.2 -0.2l-42.7 -17.6l-46.8 37.9l-40.5 -44.4l11.5 -35.9l-38.8 12.5l-43.1 -28.8l-18.8 -42.6l-2.1 -86l-24.6 -77.9l-28.3 -33l-78.4 -18.5l37.5 34.7l16.5 33.1l-20.6 27.6l-9.7 53.1l-29.6 57.8l-28.5 24.9l-38.8 78.5l-17.1 55.6l-111.7 36.8l-16.8 -12.1l-95.1 34.5l-73.9 34.4l-47.4 9.2l-20.6 18.9l-20.2 54.1l-21.7 22.2l14.6 70.3l-28.2 52.1l-73 -12.6l-33.3 34.5l-5.1 43.2l-28 39.8l10.7 50.9l-29.8 50.4l-30.2 6.5l-53.2 71.3l-46.6 -5.8l-6.7 31.8l-38.4 23.9l-25.3 -16.2l-43.7 26l-54.5 74.3l-26.4 -6.1l-46.3 37.3l-34 -16.9l-24.7 15l-28.3 -7.7l-8.5 -28.2l-33.3 14.6l-1.2 27l-31 -4.2l1.4 503.3l-6.1 557.1l-463.8 2.6z" />
  </g>
  <g data-id="041">
    <path d="m8253.7 15522.7l0 0l20.8 34.6l24.2 -1.3l24 52.3l20.1 16.8l1.1 149.4l-62.9 -0.6l-0.3 374.5l156.9 -1.6l108.4 -0.3l47 -0.1l0.3 0l63.1 -0.1l202.8 -1.7l17.9 -0l374.1 -0.4l-12.1 -149.9l-10.1 -12.8l-72.6 -18.7l-52.5 -34.7l19.2 -93.4l-33.5 -26.4l-29.3 -116.3l20.2 -44.1l-1.4 -39l24 -6.1l13.5 -31.5l46.8 -30.2l-39.1 -24.3l7 -48.2l-9.9 -34.1l58.3 -56.1l-10.5 -25.1l-37.8 -28.2l-3.3 -40.2l-24.1 7.6l-0.1 -53.8l-180.4 -1.1l-8 -32.1l-28.6 -0.1l9.4 4l-16.9 27.6l-221.4 0l-31.8 -0.1l-2.3 349l-140.6 -0.5l0.1 -63.4l-229.6 0.7z" />
  </g>
  <g data-id="043">
    <path d="m8205.7 11601.8l0 0l-0.7 194.1l289.3 0.8l0.3 97.5l225.1 0.5l-0.5 64.7l225.1 0.8l0.4 32.4l224.2 0.3l0.1 -39.7l31 -16.7l12.6 -24.1l49.2 -22.3l36.3 3l18.6 25.4l67.7 13.8l42.6 -28.1l71.4 -56.5l30.1 17.9l12.8 32.9l29.5 13.1l47.7 -16.2l14.3 -26.9l27.8 0.4l26.9 -22.5l80.8 37l15.8 -17l102.9 -64.7l17.4 0.3l71.5 -35.6l18.5 1.9l-0.5 -36.9l-2.8 -45.2l0.5 -90.5l0 -1l0.2 -4.6l0.3 -116.6l-1.1 -22.7l-0.9 -514.9l0.9 -48.1l-0.1 -137.5l0 -5.1l0.4 -81.4l-5.6 -9.8l-24.9 -5.2l-65.8 -16.1l-31.7 -26.8l-16.5 -38.7l10.1 -36l-36.7 -21.8l-30.1 -15.7l-11.3 -12.6l0.2 -21.3l-9.7 -15.1l-23.7 -10.1l-37.5 -1.8l-10.4 -22.7l-10.5 -51l21.8 -32.6l-46 -62.8l-26.8 8.7l-12.4 -19l13.2 -28.7l-59.7 -89.2l-28.9 -38.3l-19.6 -19.1l-18.4 14.5l-13.8 -2.5l-17.7 -24.4l0.7 -8.8l-13.7 -18.3l-4 -2.6l-12.5 -8.3l-14.3 5.9l-6.4 13.2l5.4 4.9l-6.6 48.2l-25.3 28.6l-16 -7.5l-8.7 -13.9l-14.8 -0.9l-68.7 26.4l-7.5 2.9l-5.4 6.1l-1.4 10.7l8.6 28.7l11.2 11.8l13.3 9.8l-5.6 28.6l-35.2 46.4l-14.6 0.1l-14 12.7l11.6 31.6l-25.3 22.5l-5 25.4l1.2 11.9l9.2 37.8l21.2 16.8l-5 15.6l4 13.3l21.6 3.1l36.8 19.8l2.3 17l-6.4 8.4l-47 1.7l-24.7 5.2l-12.7 -24l-36.5 -19.7l-16 5.9l-10.1 -1.6l-37 -17.3l-9.7 3l-15.3 16.5l-21.2 11.8l-4.8 -1.1l-0.2 334.5l-281 -0.8l0.1 190.8l-98 0.1l-9 192.8l0 98.3l-90.2 -0.1l0.2 97.7l-193.7 0.6l-1.1 194.7l-196.2 -0.9z" />
  </g>
  <g data-id="045">
    <path d="m855.8 11773.3l0 0l-0.3 389.9l193.7 0.1l129.2 -0.1l371.8 -0.5l14.4 -770.8l95.5 -0.4l1.6 -389.5l97.8 -0.3l-7.6 -393.8l-58.5 11.9l-32.3 -38.8l-33.2 66.8l-3.6 37.4l-32 -3.6l-70.8 49.1l-31.4 52.8l-4.8 77.1l-18.7 24.9l8.5 41.3l-30.3 80.3l9.2 25.7l-15.4 51.7l15.2 24.3l-15.6 88.2l13.2 45.1l-22.1 23.8l4.7 89l-7 37l-151 -0.6l-0.8 193.3l-128.3 -1.4l-0.1 128.3l-64.5 -0.8l-0.1 64.4l-226.3 -1.9z" />
  </g>
  <g data-id="047">
    <path d="m3479.1 13517.7l0 0l-1.1 625.9l79.2 5.9l19 -13l106 6.2l9 21.6l58.1 52.9l27.6 48.4l-2.5 33.8l-18 38.3l-36 28.8l8.5 16.1l-15.2 31.9l11.6 53.8l41.1 -7.7l50.3 29.8l30.9 3.5l22.3 44.4l-10.4 47.1l41.6 21.1l-1.9 39.3l22 47.6l55.6 0.1l51.5 -19.7l102.3 30.2l49.2 -3l57 25.6l-1.5 -442.8l37.1 -0l-0.4 -766.6l-792.9 0.6z" />
  </g>
  <g data-id="049">
    <path d="m723.6 7502l0 0l6.9 14.6l3.8 12.9l0.4 9.4l-2.3 8l-0.2 7.6l1.2 3.6l9.1 15.2l31.1 20.4l5.8 1l7.3 -2.1l7 -3.4l9.3 -6.6l7.6 -7.1l6.8 -4l33.5 -1.4l6 1.2l5.4 2.7l16.7 9.9l1.4 1.7l16.4 32l11.1 29.5l23.9 26.8l9.2 4.6l21.4 0.5l10.8 -3.4l6.2 -5.5l6.1 -3.1l43.5 9.2l19.4 5.7l25.1 25.5l29 28.5l9.5 4.2l7.2 1.5l3.9 4.1l15.3 31.6l2.4 7.1l-3.7 44.6l2.6 42.2l1.6 11.4l11.5 23.7l7 8.9l18.8 17.1l28.7 33.6l10.7 13.6l8.7 22.7l8.1 20l7.4 14.7l5 9.9l7.5 6l2.7 5.1l-0.2 30l-29.5 57.4l-1.7 2.1l-11.8 5.8l-20.1 18.2l-33.7 46.1l-19.1 49.6l-13.5 25.1l-7.8 8.8l-7.7 26l-8.6 41.2l0 2.6l6.2 16.7l0.2 22.7l-11.2 3.9l-3.6 2.4l-19.3 17.6l-8.8 8.1l-11 13.9l-6.8 35.8l-8.1 33.5l-34.9 33.5l-12.2 23.4l-42.9 84.8l-33.1 67.9l-1.4 16.4l3.3 37.4l0.7 20.8l-0.9 13.2l-2.8 15.7l-1.8 3.4l-8.8 9.5l-9.7 6.6l-0.3 0.4l555.4 -0.4l19.6 65l29 64.4l18.8 61.5l-4.3 28.5l26.7 58.3l2 40.9l-29.3 21.9l-1 23.7l258.7 2.6l14.7 -37.5l-2 -29.8l23.9 -49.1l64.8 13l28.5 -28.4l25.5 -2.3l4.2 -25.4l42.1 -12.4l68.8 -83.3l18.7 36l-17.3 18.8l1572.5 -3.7l495.1 -0.7l30.8 -83.5l82 -94.2l26.7 -14.8l22.8 -37.1l-17.1 3.6l-59.4 -53.5l-47.1 -54.6l-7.3 -45.1l-33.8 -14.5l-36.2 -63l-27.4 2.1l-40.7 -38.2l-14.5 -51.7l-38.8 -4.1l4.6 -68.6l-13.3 -23.2l7.8 -73.8l42.5 -7.3l53.7 49.6l46.6 -6.1l39.7 19.3l0 23.5l27.2 6.8l51.2 -110.9l59 -34.5l38.6 -35.6l20.3 -36.6l1.3 -44.7l6.9 -14.2l25.6 -35.9l-10.9 -22.7l-14.6 -6.1l-15.1 -28.4l-0.6 -13.4l4.2 -5.8l40.8 -24.7l9.8 -3.9l12.2 6.9l23.4 -22.2l12.9 -23.3l0.5 -24.4l-14.8 -9.6l1.2 -14.4l19.9 -30.7l-10 -28.9l-15.1 -21.7l-21.9 -5.1l-32.6 -34.6l-2.1 -32.7l-32.4 -40l17.2 -28.6l17.4 -12l24.3 -64.9l24.4 -18.2l-4.1 -13.4l3.5 -18.2l20.3 -17.4l20.5 -4.9l16.3 5.2l13.4 -3.9l20.2 -11.1l24.7 -16.4l27.5 9.5l22.3 12.9l5.2 -2.2l5.1 -27.3l28.8 -40l1.7 -15.8l-12.7 -28.5l-14.9 -4.7l-14.3 -18.5l-29 -56.3l-0.3 -5.3l5.8 -3.7l6.5 -10.4l12.4 -8.8l6.5 -10.4l11.7 -8.2l3.9 -13l-2.3 -12.9l-9.1 -10.1l-4.1 -15l-30.7 -21.3l-28.9 -2.6l-11.8 -16.2l-15.2 -3.4l-11 8.1l-9.8 0.9l-13.3 -18.2l4.5 -18.1l16.4 -19.1l-10.4 -31.9l-21.2 5l-20.8 -6.2l2.4 -22.1l16.4 -16.5l43.7 -44.1l9.2 -28.3l2.9 -43.1l-23.2 -35.9l-29.5 -7.7l-45.3 -27.6l-6.7 -34l22.9 -56.1l34.7 -3.1l17.6 15.9l24.2 -16.7l17.9 -1.8l10.2 -11.9l4.4 -67.6l-9.7 -32.3l5.2 -10.4l-9.5 -46.7l-26.4 -17.6l-3.6 -43.2l8.8 -13.6l19 5.1l19.2 -6.7l9.5 -6.6l13.1 -16.4l2.8 -10l-12.7 -41.1l2.9 -12.2l29 -58.9l1.2 -13.5l3.8 -44.3l-1.5 -14.1l-17.5 -47.7l23.6 -33.1l32.7 -20.7l5 -12.4l1.9 -38.4l16.8 -10.1l-2.8 -17l-13.9 -17.2l5.9 -22.4l-5.6 -14.2l-18.4 -7.4l-9.1 -17.9l-5.4 -49.7l4.3 -8.8l26.1 -7l14.9 7.7l36.8 -13.8l16.9 -28l-11.5 -23.1l7.7 -27.1l-4.4 -23l12.3 -30.9l12.6 -18.5l0.2 -5.2l0.4 -8.6l-17.8 -25.8l32.1 -52.3l-0.6 -74.9l-2.7 -25l-11.6 -16.9l-0.2 -0.1l-44.7 -19.4l-56.3 9.9l-14.3 12.3l-12.1 5.1l-21.8 -7.5l-46.5 26.7l0.8 17.6l-19.1 18.4l-26.1 4l-29.8 -16.9l-30 -1.3l-42.4 -18.4l-35.8 13.3l-22.7 17.2l-17.1 2.6l-5.7 -1.7l-1054.9 236l-616.6 142.1l-13.8 52.1l8.2 30.9l-51.9 56.2l-23.7 45.2l-70.8 48.3l-13.7 24.9l4.2 50.7l-13.8 49.8l-23.8 24.3l9.3 28.7l-13.3 29.5l-27.1 10.4l-8.7 29.8l-45.1 -10.4l-12.8 14.2l-54.4 -39.2l-144.5 -23.2l-31 8.3l-68 -41.1l-63.3 -94.3l-60.4 -35.3l-61.6 -3.9l-28 22.2l-27.7 -36l-34.7 -4.7l6.3 19.5l6.7 20.4l14.4 15.1l5.5 19.8l3.5 9.9l9.9 16l9.5 27.7l10.7 24.4l3.3 17.7l20.7 28.7l14.6 9.4l18.1 21.3l12.3 24.2l20 13.4l18.2 3.1l26.3 6.9l9.6 21.9l14.5 10l16.2 14l9.4 8.7l-1 11.3l-6.1 2.9l-8.5 6.9l-10.4 7l-11 6.9l-14.8 6.6l-13.5 3.5l-10.6 -2l-10.7 -0.6l-6.2 2.9l-10.1 2.2l-12.5 1.5l-18.9 -2.4l-21.7 -2.9l-15.3 -2.4l-8.5 -7.6l-15.4 1.6l-7.1 3.9l-11.8 4.7l-7.2 9.2l-3.9 8.5l-10.5 13.2l-5.4 11.1l-2.6 8.3l-6.5 5.5l-8.1 3.7l-6.6 5.2l-7.6 9.6l-4.1 16.3l1.4 12.3l-2.7 19.7l-6.3 8.4l-4.5 2.7l-9.5 1l-15.7 -11.1l-9.7 -3.5l-10.6 -4.2l-10.8 4.7l-8.4 -2.4l-8 -5.5l-4.7 -10l-9.7 -6.1l-10.7 -3.3l-8.7 4.3l-11.2 1.4l-10.7 -6.7l-5.5 -3.5l-11.8 -3.4l-12.6 9.4l-14.5 7.2l-8.4 -3.3l-10.1 -4.5l-5.6 -5.3l-8.1 -8.1l-5.7 -9l-6.9 -7.6l-6 -2.3l-9 -0.6l-10.2 -2l-10.7 -1.3l-7.2 1l-6.5 0.6l-10.8 0.4l-8.2 0.5l-8.5 -4.9l-6.6 -3.1l-7.4 0.3l-8.6 -1.2l-10.2 -4.3l-7.9 -2.8l-9.4 -5.9l-6.7 -5.6l-7.8 -7.9l-5.2 -3.8l-6.7 -0.8l-8.7 -0.3l-5.1 5l-6.6 5.1l-6.1 3.3l-5.3 0.6l-5.1 -2.1l-6.2 4.1l-2.2 4.5l-1.6 6.9l-1.7 11l-2.7 7.9l-0.8 11l-3.8 9.7l-6.4 7.6l0.1 9.2l-2.5 5.7l-2.6 7.1l-6.7 7.9l-3.8 8.1l-1.6 10l-5.9 6.4l-4.4 6.9l2.5 6.9l0.1 9.2l-2.2 2.7l1.5 3.8l2.8 3l1.9 9l0 8.6l-3.1 6.2l-5.7 3.1l-8.4 -2.3l-7.8 -0.8l-7.3 -1.1l-5.9 -0.6l-9.1 -3.9l-5.2 -5.4l-4.1 -3.6l-1.7 -3.8l-3.9 4l0.2 8.8l0.1 54.4l-0.2 46.5l-0.1 29.9l0.1 23.7l-0.4 19.5l-2.9 9.4l0.2 5.6l1.5 8.1l-0 5.5l-1.6 3.5l-2.6 4.9l-1.1 8.2l-7.1 7.7l-2.4 6.8l-2.9 5.9l-2.3 9.1l3.2 10.4l2.2 10.1l-2.7 11.4l-5.7 8.2l-8.2 2.9l-5.9 1.4l-7.2 -4.9l-5.1 -6.9l-7.8 -3.1l-8.6 -5.3l-6.7 -7.9l-5.6 -7.7l-4 -6.4l-9.8 -9.2l-8 -8.4l-3.9 -7.3l-10 -3.2l-10.1 -4.9l-11.6 -6.1l-11.1 -2.3l-6.2 2.1l-4.3 1.9l-6.1 -2.9l-4.6 -5.4l-16.2 -0.4l-17.8 4.2l-11.9 19.2l3.6 29.6l4.5 22l-5.3 14l-6.9 8.4l-11.1 6.8l-9.5 -1.4l-13 -9l-21.8 -5.5l-12 0.5l-7.5 -2.2l-6.5 5.5l-1 2l-76.3 81.7l-12.8 44.3l43.1 111.3l-32.1 57.5l-71.3 30.5z" />
  </g>
  <g data-id="051">
    <path d="m7333.1 12183.9l0 0l-0.3 390l93.4 -7.7l192.6 -0.1l864.9 0.6l576.8 -0.9l0.2 -63.5l-147.5 -0.2l-42.5 -28.6l-27.5 1.8l-28 -19.3l-41.5 -58l-26.5 -5.1l-17.2 -27.8l-43.7 -4.3l-24.3 -41.1l-46.6 -22.7l-10 -29.4l-17.8 9.4l-17.1 -24.6l-27.3 36.6l-32.6 5.7l-26.7 -12.6l9.8 -97l1 -291.2l-0.3 -97.5l-289.3 -0.8l0.7 -194.1l-869.1 -1.5l-0.8 194.1l-2.7 389.5z" />
  </g>
  <g data-id="053">
    <path d="m4235.2 14283.8l0 0l1.5 442.8l23.9 16.5l100.5 18.6l118.8 73.7l40.2 8.3l105.8 -5l39.8 21l28.4 35l41.3 1.8l32.5 21.8l68.6 5.6l105.2 58.9l10.9 34.2l36.7 41.3l31.6 6.4l25.8 -25.6l30 -3.3l46.5 -32.3l39.5 -12.9l21.8 10l46.1 -4.8l23 -16.3l87.6 -3.1l0.2 -503.9l-190.8 0l0.2 -95.5l-477.2 -1.3l0 -31.9l-31.7 -0.1l-0.1 -59.8l-369.4 -0.2l-37.1 0z" />
  </g>
  <g data-id="055">
    <path d="m323.3 3011.6l0 0l-0.1 0.9l1 37.8l-0.1 2.4l0.8 19.6l0.1 1.5l-0.1 30.2l0.1 39.1l0.2 55.6l0.2 7.7l0 4.3l0 0.1l0.5 130.6l0.4 118.3l-0.5 37.3l-0.2 0.8l0.9 60.5l0.3 12.8l0.1 12.4l0.9 106.3l-0 34.6l0 67.8l-0 53.6l0.1 31.8l-0.5 57.6l0.2 21.1l369.8 -0.7l-0 -34.2l98.7 -12.5l23.2 -0.1l-0.3 34.5l171.5 0l-0.1 -68.8l68.8 0.1l-0.1 -34.4l242.5 4.7l172.3 -3.1l-0.2 -1140.7l-283.2 0.6l1.3 -243.8l-207.6 -0.3l-0.5 34.4l-104.8 -0.1l-554.9 -0.4l-0.2 26.8l-0 19.2l-0.2 287.2l0.8 39.9l-0.1 105.1l-0.7 29.1l-0.1 3.9l-0.2 8.8z" />
  </g>
  <g data-id="057">
    <path d="m328 5236.3l0 0l-0.3 24.4l0.7 271.4l-0.4 372.2l517.1 -2.7l36.7 -105l13.5 -2.1l47.2 -55.2l60.7 -41.3l62.9 2.8l203.1 -1.4l204.1 2.7l0.2 -722.5l0 -206.3l-207.8 -0.4l0.2 -34.3l-504.9 9.7l-103.5 0.1l0.3 -30.8l-19.2 -4.1l-58.2 -45.4l-21.2 -27.2l-46.8 -8.7l-30.9 34l-21.1 -8.7l-32.3 -43.2l15.7 -61.9l-53.7 -36.2l-62.6 7.6l0.3 712.7z" />
  </g>
  <g data-id="059">
    <path d="m3917.6 10001.6l0 0l-5.1 61.2l39.5 60.2l18.1 -2.2l39.5 43.5l33.1 56.3l-6.9 39l45.4 5.3l81 -26.7l54.2 21.1l37.8 40.7l16.2 36.8l-10.8 54l57.1 43.3l42.8 -15.7l33.1 -46l39.5 -2.4l29 22.3l41.2 -39.8l5.6 -44.8l21.2 -44.9l42.8 -11.5l36.4 -37.6l21.5 -83.4l-54.5 -22.1l4 -45.6l39.3 -8.9l43.4 -34.6l-1.6 -36l15.6 -43.7l46.5 -18.4l24.9 -40.3l35.2 -8l25.4 -60.5l60.4 -33.2l5.5 -33.6l15.9 36.4l23.3 0.6l8.9 56.6l-7.1 78.9l-13.2 7.3l4.4 49.4l-23.5 36.4l-1.1 35l99.9 3.6l31.1 33.9l18.4 -25.3l63.4 -32.8l54.8 100.9l12.9 50.8l36 82.1l58.6 76.5l15.7 -0.7l87.4 121.8l33.7 16.5l88.8 79.2l45.4 66.6l45.6 -0.1l68.6 30.1l62.5 13.9l84.5 56.2l104.9 13.8l56.2 38.5l84.4 10l39.7 -58.6l49.5 -6.8l17.5 54.9l16.8 8.7l33.3 91.2l70.2 83.1l7.7 37.3l27.1 28.9l21.9 99l-14.1 28.3l22.9 60l525.1 -2.2l88.6 -0.1l203.8 8.8l-0.6 -330.3l-10 13.8l-39.3 28.7l-17 -4l-42.5 -45.9l-4.9 -40.7l-53.2 -15.9l-54.5 -28.9l-48.6 -36.3l-35.3 -37.4l-5.3 -47.2l-19 -22.5l-12.1 -34.7l14.7 -15.7l16.5 -32.7l-0.6 -17l-56.7 -36.6l-6.1 -20l12.2 -17.2l1.6 -13.2l-38 -29.4l-15 -29l-19.6 -12.6l-2.2 -14.8l16.2 -26.5l13.2 -7.8l14.2 -2.9l5.2 -5.7l6.7 -18.6l-3.5 -17.2l-22.7 -28.2l-4.4 -15.9l-3.4 -26l4.3 -11.3l-4.6 -15.5l-18.3 -26.6l-26.1 -13.8l-5 -25.2l-1.6 -46.4l-23.8 -20.6l-29 -33.3l-4.6 -16.7l10.2 -10.5l-0.1 -18.4l-14.8 -8.8l-28.4 -9.4l-9 4.4l-25.1 -18.7l-6.5 -14.6l-17.7 -19.5l-24.6 -15.7l-46.9 -11.5l-13.6 -20l-50.4 23.3l-29.8 21.3l-7.5 9.9l-64.8 32.1l-19.9 -15.7l-1.2 -8.5l13 -7.8l1 -3.9l-16.1 -43.6l-33.9 -30.9l-31.1 -10.3l-41.8 -5.6l-56.2 -76.9l-28.9 -70l-25.9 -51.5l-12.3 -33.6l6.9 -14.3l22 -3.9l9.8 3.5l11.8 1.7l29.9 -12.5l8.3 -14.5l-1.7 -37.1l-3.5 -19.4l0.2 -31.7l14.8 -19.2l-19.7 -64.4l-2.3 -21.8l-1.1 -33.2l-13.9 -12.9l-9.7 4.8l-20 0.6l-16.1 -21.8l-50.8 -41.1l12.6 -21.1l10.5 -20.6l-6.1 -15.3l-30.6 -3.6l-33.3 7.9l-40.6 -35l8.3 -28.8l-40.5 -57.3l7.6 -25.1l-15.5 -32.3l-60.3 -50.1l-17 -35l-4.3 -14.7l-11.2 -15.4l-13.9 -11.1l-14.2 -7.2l-7 0.3l-10 -10.2l-11.4 -26.3l0.8 -13.1l5.6 -12.6l-2.1 -16.4l-74.6 -95.7l-5 -10.3l-2.4 -36.4l7.5 -44l5.1 -46.7l-1.1 -11.7l-2.1 -5l-42.8 -32.5l-21.5 -0.6l-4.5 -20.3l20.5 -15.7l-0.4 -20.5l-30.1 -47l-1.4 -7.1l31.4 -52.4l7.1 -20.4l-10.9 -35.6l-1.6 -39.6l-3.1 -6.8l-13.6 -2.8l-29.4 -0.1l-10.1 0.7l-10.2 7.5l-41 -1.9l23.7 -105l25.7 -31.5l3.8 -11l-2.2 -18.1l-6.1 -21.9l-26.4 -23.8l-61.8 -25.8l-39.7 15.3l-30.1 -11.5l4.2 -27.8l7.9 -17.2l-5.5 -15.6l-17.1 -11.9l-32.8 -45.8l-11.1 -52.3l-0.1 -0.3l-36.2 13.5l-14.6 -17.1l-26.9 -16.1l-46.7 19.5l-5.9 7.4l-2 27l0.7 25.1l10.1 27.9l-1.9 9.8l-6.1 12.4l-23.8 -0l-55.1 48.3l-22.9 37.8l-2.2 16.9l1.7 16.2l-7.2 13.3l-22.1 11.1l-35.5 4.8l-14.8 22.6l-1.4 4.4l6.1 8.1l-0.8 8.1l-9.9 18.5l-31.6 10.5l-40.7 3.4l-10.4 13.6l-10.2 20.6l-17.5 2.4l-39.2 -25l-32.5 1.3l-6 18.6l5.9 10.6l0.6 20.6l-22.2 65.5l-14.7 22.3l-13.7 12.7l-87.1 49l-19 -1.4l-25.3 -32.7l-7.9 -37.5l-4.7 -5.3l-32.4 -23.4l-43.9 -15.8l-37.4 -60.6l-19.2 -14.9l-9.5 -3.3l-6.1 -39.9l-21.3 -4.6l-39.4 18l-13.2 -8.6l-18.4 -20.5l-13.4 -6.1l-37.8 23.5l-15.4 -11.8l-20.3 36.6l-38.6 35.6l-59 34.5l-51.2 110.9l-27.2 -6.8l-0 -23.5l-39.7 -19.3l-46.6 6.1l-53.7 -49.6l-42.5 7.3l-7.8 73.8l13.3 23.2l-4.6 68.6l38.8 4.1l14.5 51.7l40.7 38.2l27.4 -2.1l36.2 63l33.8 14.5l7.3 45.1l47.1 54.6l59.4 53.5l17.1 -3.6l-22.8 37.1l-26.7 14.8l-82 94.2l-30.8 83.5l-45.3 39.2l-2.4 45.8l-14.1 20.4l17.4 68.9l-18.9 60.6l20.1 12.7l-10.5 22.1l7.6 85.8l-8.2 35.9l7.2 47.2l-19.9 75.2l1.1 53.2l18.6 33.2l-19.8 23l19.8 75.4l-18.2 28.3l-44.7 7.2l-12.1 23.7l13.1 14.9l-9.6 38.5l-43.3 16.7l-29 59.1l23.7 31.9l-26.8 63.4z" />
  </g>
  <g data-id="061">
    <path d="m854.2 6410.3l0 0l5.2 65.7l12.3 13.3l31.1 113.7l-30.9 12l1.6 405.3l-0.4 156.4l1 -2l6.5 -5.5l7.5 2.2l12 -0.5l21.8 5.5l13 9l9.5 1.4l11.1 -6.8l6.9 -8.4l5.3 -14l-4.5 -22l-3.6 -29.6l11.9 -19.2l17.8 -4.2l16.2 0.4l4.6 5.4l6.1 2.9l4.3 -1.9l6.2 -2.1l11.1 2.3l11.6 6.1l10.1 4.9l10 3.2l3.9 7.3l8 8.4l9.8 9.2l4 6.4l5.6 7.7l6.7 7.9l8.6 5.3l7.8 3.1l5.1 6.9l7.2 4.9l5.9 -1.4l8.2 -2.9l5.7 -8.2l2.7 -11.4l-2.2 -10.1l-3.2 -10.4l2.3 -9.1l2.9 -5.9l2.4 -6.8l7.1 -7.7l1.1 -8.2l2.6 -4.9l1.6 -3.5l0 -5.5l-1.5 -8.1l-0.2 -5.6l2.9 -9.4l0.4 -19.5l-0.1 -23.7l0.1 -29.9l0.2 -46.5l-0.1 -54.4l-0.2 -8.8l3.9 -4l1.7 3.8l4.1 3.6l5.2 5.4l9.1 3.9l5.9 0.6l7.3 1.1l7.8 0.8l8.4 2.3l5.7 -3.1l3.1 -6.2l-0 -8.6l-1.9 -9l-2.8 -3l-1.5 -3.8l2.2 -2.7l-0.1 -9.2l-2.5 -6.9l4.4 -6.9l5.9 -6.4l1.6 -10l3.8 -8.1l6.7 -7.9l2.6 -7.1l2.5 -5.7l-0.1 -9.2l6.4 -7.6l3.8 -9.7l0.8 -11l2.7 -7.9l1.7 -11l1.6 -6.9l2.2 -4.5l6.2 -4.1l5.1 2.1l5.3 -0.6l6.1 -3.3l6.6 -5.1l5.1 -5l8.7 0.3l6.7 0.8l5.2 3.8l7.8 7.9l6.7 5.6l9.4 5.9l7.9 2.8l10.2 4.3l8.6 1.2l7.4 -0.3l6.6 3.1l8.5 4.9l8.2 -0.5l10.8 -0.4l6.5 -0.6l7.2 -1l10.7 1.3l10.2 2l9 0.6l6 2.3l6.9 7.6l5.7 9l8.1 8.1l5.6 5.3l10.1 4.5l8.4 3.3l14.5 -7.2l12.6 -9.4l11.8 3.4l5.5 3.5l10.7 6.7l11.2 -1.4l8.7 -4.3l10.7 3.3l9.7 6.1l4.7 10l8 5.5l8.4 2.4l10.8 -4.7l10.6 4.2l9.7 3.5l15.7 11.1l9.5 -1l4.5 -2.7l6.3 -8.4l2.7 -19.7l-1.4 -12.3l4.1 -16.3l7.6 -9.6l6.6 -5.2l8.1 -3.7l6.5 -5.5l2.6 -8.3l5.4 -11.1l10.5 -13.2l3.9 -8.5l7.2 -9.2l11.8 -4.7l7.1 -3.9l15.4 -1.6l8.5 7.6l15.3 2.4l21.7 2.9l18.9 2.4l12.5 -1.5l10.1 -2.2l6.2 -2.9l10.7 0.6l10.6 2l13.5 -3.5l14.8 -6.6l11 -6.9l10.4 -7l8.5 -6.9l6.1 -2.9l1 -11.3l-9.4 -8.7l-16.2 -14l-14.5 -10l-9.6 -21.9l-26.3 -6.9l-18.2 -3.1l-20 -13.4l-12.3 -24.2l-18.1 -21.3l-14.6 -9.4l-20.7 -28.7l-3.3 -17.7l-10.7 -24.4l-9.5 -27.7l-9.9 -16l-3.5 -9.9l-5.5 -19.8l-14.4 -15.1l-6.7 -20.4l-6.3 -19.5l-22.5 -74.3l-20.8 -22.7l-179.9 0.2l-18.3 -57.4l-79.3 -68.8l-79.2 -2.5l31.8 70.5l49.4 50.3l11.8 129.3l-13.2 41.7l-29 5.7l-24.6 -14.2l-32.4 9.4l-75.5 -19.1l-38.1 28.5l4.6 30.8l-361 0.1z" />
  </g>
  <g data-id="063">
    <path d="m4272 13517.1l0 0l0.4 766.6l369.4 0.2l0.1 59.8l31.7 0.1l-0 31.9l477.2 1.3l-0.2 95.5l190.8 -0l270.7 1.1l0.1 -187.6l80.3 0.2l-1 -772.4l-1065.1 0.3l-354.3 2.9z" />
  </g>
  <g data-id="065">
    <path d="m8493.6 12185.4l0 0l-9.8 97l26.7 12.6l32.6 -5.7l27.3 -36.6l17.1 24.6l17.8 -9.4l10 29.4l46.6 22.7l24.3 41.1l43.7 4.3l17.2 27.8l26.5 5.1l41.5 58l28 19.3l27.5 -1.8l42.5 28.6l147.5 0.2l-0.2 63.5l96.8 -0.2l55.3 10.7l212.9 0.1l-1.7 -582.5l3.3 -8.1l-0 -81.6l-42.6 28.1l-67.7 -13.8l-18.6 -25.4l-36.3 -3l-49.2 22.3l-12.6 24.1l-31 16.7l-0.1 39.7l-224.2 -0.3l-0.4 -32.4l-225.1 -0.8l0.5 -64.7l-225.1 -0.5l-1 291.2z" />
  </g>
  <g data-id="067">
    <path d="m5341.3 14472.6l0 0l-0.2 503.9l67.8 -30.9l21.7 -0.3l58 29.6l82 -44.1l15.1 -1.8l26.8 21.2l8.4 28.8l30.7 24.6l64.9 8l72.4 -37.1l16.1 -20.4l36.8 -89.9l23 -21.4l36.5 -63.3l14.9 -44.8l29.1 -24.6l102.4 -36.8l34.7 9.3l0 -395.1l95.2 0.1l-1.2 -773.8l-485.2 0.2l1 772.4l-80.3 -0.2l-0.1 187.6l-270.7 -1.1z" />
  </g>
  <g data-id="069">
    <path d="m290.7 6317.4l0 0l0.1 27.3l0.2 2.6l3.1 8.2l7.6 8.1l6.9 4l10.1 3.1l17.8 2.7l6.1 2.3l4.7 3.7l6.3 6.5l1.1 2.8l0.7 13.5l-1.2 6l0.8 14.6l1 6.3l2.6 6.3l6.9 8.3l14.4 13.9l16.5 5l12 8.8l5 6.4l3.3 9.2l-0.5 6.9l-9.7 21.9l-0.9 4.4l0.5 5l6 8.1l18.3 16l5.6 6.4l3.7 4.8l5.7 10.1l3.8 8.5l9 25.6l5.7 26.7l-1.2 11.4l-5.5 14.4l-10.8 24.1l-0.7 4.5l1.2 9.5l4.6 8.7l17 14.4l17.2 19.8l28.7 32.9l3.4 7.2l1 7l-2.2 9.4l-20.7 42.6l-20.7 38.6l-3.1 5.6l-1.1 10.7l-0.5 17.9l-6.4 20.8l-6.9 7.4l-23.4 3.1l-4.7 2.4l-3 2.2l-4.7 6.6l-1.2 3.6l0 4.6l0.8 10.4l4.9 11.4l14.4 7.5l11 2l4.5 -1l4.9 2.1l14.2 17.5l9.5 16.1l17.7 49.6l14 49.6l7 42.8l2.4 7.7l1.9 2.7l7.4 15.1l29.8 33.7l9.8 36.6l18 31.6l9.8 49.2l5 15.9l10.9 22.5l4.1 7.2l22.1 27.5l21.9 13.6l17.5 12.7l8.1 7.8l29.2 44.2l2.6 5.4l71.3 -30.5l32.1 -57.5l-43.1 -111.3l12.8 -44.3l76.3 -81.7l0.4 -156.4l-1.6 -405.3l30.9 -12l-31.1 -113.7l-12.3 -13.3l-5.2 -65.7l361 -0.1l-4.6 -30.8l38.1 -28.5l75.5 19.1l32.4 -9.4l24.6 14.2l29 -5.7l13.2 -41.7l-11.8 -129.3l-49.4 -50.3l-31.8 -70.5l79.2 2.5l-0.3 -78.6l-126.7 5.9l-6.1 16.9l0.2 -154.4l-7.3 -170.2l-203.1 1.4l-62.9 -2.8l-60.7 41.3l-47.2 55.2l-13.5 2.1l-36.7 105l-517.1 2.7l-0.2 163.9l0 5.2l0 16.1l-0.1 86.1l-0 1.1l5.2 6.6l3 10l-1.4 19.4l-1.5 5.2l-2.9 4.1l-5.6 25.4l-0.3 7.1l-8 29.4l-4.1 6.4l-3.7 2.8l-9.3 9.9l-5.7 8.5l-2.8 5.8z" />
  </g>
  <g data-id="071">
    <path d="m6844.2 15430.7l0 0l-0.1 716.4l33.6 -0.1l112.3 -1.1l43.9 -0.3l2.8 0l76.6 -0.9l0.1 0.1l71.8 -0.8l127.7 -1.4l99 0l318.1 -1.4l0.4 -0.3l103.9 -0.1l195.6 0.3l41.7 -0.5l74.4 0.1l31.7 10l13.9 -0.3l1.2 -0l87.8 -1.9l0.1 -0l0.3 -374.5l62.9 0.6l-1.1 -149.4l-20.1 -16.8l-24 -52.3l-24.2 1.3l-20.8 -34.6l-18.7 -22.9l-29.4 2.8l-8 -30.5l-40.2 -63.1l-7.7 -29.3l-110.7 0.3l-26.4 70l-25.2 3.9l-22.3 -21.1l-35.6 5.8l-2.8 -51l38.9 -70.9l17.6 -15.3l5 -88.2l-10.4 -58.5l-73.7 13.6l-4.9 -42.1l-31.4 -0.1l-23.8 -31.7l-6.9 -47.2l-57 0l-126.3 0.2l0.5 190.2l-251.9 -0.4l-0.1 190.6l-558 3.2z" />
  </g>
  <g data-id="073">
    <path d="m348.5 12578.6l0 0l0.1 7.6l0.2 15.5l0 19.5l-0.1 3.5l-0.1 9.6l-0.1 5.3l0.2 33.3l0 2.6l0.2 1224.4l-0.1 0.6l0.7 478.9l-0.1 0.6l-0 0.3l-0.5 399.9l0.2 538.9l0.7 46.6l-0.1 415.8l-0.6 72.1l0.8 34l-0.2 255.8l12.7 1.2l0.1 0l14.4 2.6l64.7 -1.9l552.3 2.7l1.3 0.8l62.9 0l7.6 -1l91.8 0.6l24 1l14.1 -0.5l3.2 1.3l22.5 -0.3l4.4 -0.1l31.6 0.7l153.3 0.6l57.6 -2.2l272.3 -0.6l5 0.1l197.2 0.1l0.1 0.1l12.6 0l-0 0l19 -0.8l0 0.1l10.8 -0.7l0 0l40.9 -1.1l160.1 1.1l12.9 0.3l15.2 2.4l394 -1.4l63 1.2l440.3 1.7l96 -1.3l5.7 1.2l343 0.3l0.7 -664.1l0 -1022.6l-35.2 0.2l-105.1 0.3l-142.9 0.7l-123.6 0.3l-86.9 0.1l-74.9 -0.3l-55.1 -0l-48.1 -19.4l0 -21.1l-0.2 -130.1l16.7 -12.5l3.8 -70.2l-0.1 -85.2l-19.5 -15.3l-14.5 -0.3l-18.7 1l-22.9 0.2l-19.6 2.2l-16.4 -14.3l-15 -10.7l-16.6 -9.1l-25.5 3.1l-9 1.8l-8.2 5.3l-4.7 6.9l-5.2 0.6l-14.4 -2.7l-16.3 -2.5l-13 0.7l-15 -1.9l-12.4 -9.7l-8.2 -15.2l-17.3 -15.1l-22.9 -0.3l-18 6.3l-17.5 12.6l-14.8 6.7l-15.7 4.1l-22.9 5.8l-31 -0.4l-24.1 0.7l-19.6 -7.3l-14.5 8.5l-16.9 1.6l-26.6 -4.2l-19.1 -8.7l-13 -20.6l11.6 -12.1l-2.2 -22.5l-18 -9.8l-20.7 0.6l-20.8 0.9l-17.3 3.5l-20 3.2l-24.9 -10.4l-15.5 -26l-16.5 -3.8l-15 11.5l-19.3 1.8l-19.4 -16l-9.2 -21l-7.3 -6.1l-13.4 -0.2l-11.4 14.3l-18.3 7.2l-14.1 10.4l-7.2 23.6l-6.1 16.2l11 20.9l5.4 16.6l-5 13.5l-9.4 2.4l-10.2 -3.7l-19 -3.4l-20.9 -1.5l-21.4 -4.3l-13.9 -13.4l-11.6 -8.7l-12.2 -20.9l-17.8 -29.1l-26.5 -8.9l-24.6 1.3l-18.1 -3.9l-9.4 -15.2l-15.9 -14.5l-28.9 -27l-15.8 0.9l-11.5 2l-13.2 -11.2l7.1 -11.4l9.9 -15.6l-12 -15.8l-14 -4.3l-24.2 4l-27.8 -14.3l-19.3 -8.9l-11 -27.9l2.9 -23.5l10.5 -9.7l8.2 -8.4l-7.9 -16.6l-13.9 -13.4l-32.9 -6l-28.8 -4.6l-20.6 -8.3l-15.1 -16.7l1.9 -6.1l-5.1 -10.9l-49.3 -4.4l-31.4 -54.7l-21.2 -9.9l-5.6 -28.6l-25.3 -7.6l-55.2 -63.6l2.6 -52.1l13.4 -30.9l-20.2 -48.9l-19.9 -15.6l-15 -53.6l-24.2 -20.2l-75.5 5.2l-46.9 20.1l-17.3 -18.6l-16 -16.4l-46.1 -2.9l-46.4 -15.5l-34.1 -56.6l-11 -43.6l-24.9 -41.4l-72.2 -36.8l-14.7 -30.9l-84.3 -79.9l-25.2 -41.5l-59.7 -52.1l-5.8 -80.7l7.5 -26.7l-31.9 -46.8l-25.5 -65.6l-47 -37.8l-42.7 5.1l-64.6 -24.4l-20.2 -37.3l-50.4 -35.4l-20.8 -70.8l-58.7 -12.5l-35.5 -17.3l-0.1 11.8l0.1 24.8l-0.1 73l-0.3 15.1l-0.2 8.6z" />
  </g>
  <g data-id="075">
    <path d="m430.7 11965.5l0 0l-5.9 34.5l40.7 -0.1l-0.2 97.7l65.4 0.6l0.3 32.4l31.8 -0.1l0.5 32.1l65.5 -0l-0 32.8l96.7 0.1l-0 -16l64.7 -0.1l-0 -16.2l65.3 0.1l0.3 -389.9l226.3 1.9l0.1 -64.4l64.5 0.8l0.1 -128.3l128.3 1.4l0.8 -193.3l-717.9 -2.5l-49.3 97l-1 4.7l-8.7 16.4l-6.7 7l-8.5 6.5l-22.4 5.2l-16.4 1.8l-11.4 5.9l-5 6.6l5.4 71.2l1.3 9.5l1.1 1.5l26.2 13.2l20.8 16.3l9.7 14.1l4.2 12.5l0.4 5.7l-3.7 23.9l-10.3 20.3l10.9 22.3l-2.9 15.7l-35 3.7l-14.3 12.2l-11.5 8l9.7 14.2l10.1 -1.9l7 4.7l-1 5.7l-2.4 10.4l-0.3 14.6l-6 20l-6.2 10.2l2.2 9.9l12.3 9.3l-0.2 21.1l-9.2 9.2l-22.2 4.2l3.6 21.1l1.5 10.1l0.7 12.9z" />
  </g>
  <g data-id="077">
    <path d="m6451.4 13710.4l0 0l10.4 579.4l0.1 189l93.7 -0.3l0.4 190.8l-93.9 0.3l-0.2 109.8l66.6 -18.9l33.1 14.5l-0.8 82.9l278.9 3.2l1.8 569.7l2.8 0l558 -3.2l0.1 -190.6l251.9 0.4l-0.5 -190.2l126.3 -0.2l6.9 -142.6l47.4 -7.9l-5.2 -115.3l15.7 -47.7l-61.9 -0.2l0 -63.4l-31.4 0.1l-0.7 -47.6l-31.6 0l-0.4 -79.5l-63.2 -0.1l-0.5 -126.8l-31.5 -0.2l-6.3 -268.3l-62.4 -106.3l-47.9 -27.8l-21.8 31l-27.4 -3.1l-39.3 41.9l-94 14.6l0 20.7l-40.7 22.3l-16.3 23l-16.1 -16.1l24.9 -60.3l-29.8 -25.2l-25.1 37.9l7.9 23.6l-29 21.5l-0.7 45.4l-24.1 34.6l-20.3 -11.3l-15.2 42.6l-308.4 0.4l0.1 -546.6l-380.3 -0z" />
  </g>
  <g data-id="079">
    <path d="m1473.4 2394.5l0 0l0.1 306.7l0.2 1140.7l-0 931.2l-0 206.3l1108.5 1.9l9.7 1.2l1091.8 1.1l-15.7 -13.9l-28 -30.9l-21 -33.5l-3 -13.9l-43.7 -8.9l-5.8 9.7l-25.6 4.8l-18.4 -46.8l-10.7 -27.3l-14.8 -59.1l-21 -47.5l-12.9 -4.9l-13.4 0.5l-39 -45.5l-21 -47.1l1.1 -22.2l-4.6 -11.4l-24.3 -4.1l-21.6 -10.4l-10.2 -23.9l-13.1 -29.7l-26.2 -23.7l-30 -21.3l-34.9 -4.7l-17.9 -26.8l-3 -26.4l-10.3 -20.3l-41.2 -7.1l-20.1 -7.6l-1.3 -11.6l8.6 -30l6.3 -10l-10.9 -37.7l-13.2 -9.8l-7.8 -1.2l-9.4 -12.1l-11 -25l8.3 -20.6l-32 -18.7l-32.4 6.2l-40.4 -17.8l-37.2 7.1l-19 -15l-2.4 -13.1l-16.7 -8.8l-35.4 5.3l-7.5 -4.3l-0.3 -7.5l-17.7 -9.3l-18.8 11.1l-9.2 -6.9l-35.9 -20l-32.9 -23.1l-17.8 -59.4l-17.2 -15.8l2.5 -30.4l-11.8 -13.8l-15.1 1l-17.6 -11.1l-0.9 -22.7l-64.8 -37.4l-40.8 11.1l-24 -53.8l-26.4 -5.5l-2.7 -15.3l-37 -16.8l-23.9 0l-12.9 -21.1l-25.8 -1.7l-18.7 6.7l-17.1 -2.5l18.8 -43.3l29.3 -9.8l18.3 -13.9l58.4 -11.4l14 7.2l39.1 -6.1l15.6 -11.6l15.9 -44.2l-8.3 -4.8l-22 9.3l-19 -0.8l-11.7 -24.3l-24.7 10.2l-4.6 -1.5l-12.7 -41.1l-28.2 -34.6l1.5 -17.4l22.5 -10.5l-16.1 -16.4l-17.6 2.1l-37.6 -10.9l-19.8 -11.7l-4.4 -19.5l39.4 -43.2l13.9 -9.9l27.5 -16.2l19.7 -45.1l-2.6 -58.3l-21.7 -26.5l-8.4 -1.5l-27 -15.5l-10.2 -30.2l14.6 -55.7l7 -42l-12.7 -21.3l-20.6 -18.4l-24.8 -17.1l-9.3 3.8l-14.7 -0.7l-7 -9.3l-8.6 -18l3.1 -35.6l-24.8 -30.1l-10.6 -4.4l-34.8 14.2l-10.7 -7.6l-5.8 -12.4l0.2 -20.8l-8.7 -26l-11.1 -11.5l-1.2 -53.8l3.4 -15.1l-9.2 -31.9l-31.1 -19.9l-6.6 -18.8l-10.1 -15.4l-32.2 15.3l-9.1 -9.6l-2.3 -12l-12.1 -3.3l-37.5 -68.4l-38.4 -39.1l-3.3 -28.3l-6.3 -9.9l-22.8 -7.6l-9.8 -16.1l-9.4 -23.4l-19.7 -30.6l-0.5 -10.8l-36.9 -52.6l-13.1 3.1l-17.1 -13.2l-0 -1.2l-21 -43.9l-66.6 -40.3l-27 -51.1l-67.3 28.6l-73 -59.9l-41.9 -54.2l-64.6 17l-91.1 106.5z" />
  </g>
  <g data-id="081">
    <path d="m9423.8 11994l0 0l1.7 582.5l251.5 0.3l28.6 34.5l-0.4 36.1l30.3 103.1l14.1 9.2l43.3 -16.3l45.9 0.9l28.1 32.8l64.8 23.4l20.5 -13.3l28 17.5l17.1 41l-0.4 -182.6l-0.4 -169.4l-0.3 -48.9l-0.4 -8.6l0.1 -2l-0.1 -4.5l-0.5 -76.3l-0 -10l0.2 -0.9l-0.6 -198.5l0.3 -207l-0.6 -149.2l-0.2 -19l-18.5 -1.9l-71.5 35.6l-17.4 -0.3l-102.9 64.7l-15.8 17l-80.8 -37l-26.9 22.5l-27.8 -0.4l-14.3 26.9l-47.7 16.2l-29.5 -13.1l-12.8 -32.9l-30.1 -17.9l-71.4 56.5l0 81.6l-3.3 8.1z" />
  </g>
  <g data-id="083">
    <path d="m3557.2 15487.7l0 0l-0.7 664.1l10.3 0l189.7 -8.5l24.2 0l37.6 -3.1l72.3 -1.9l39.8 0.8l138.2 7.8l197.5 8.1l161.3 -0.2l0 -0.1l49.5 -1.9l299.6 2.8l0.1 0l-7.8 -731.9l1.9 -189.5l348.9 0.5l0.1 -188.2l3.2 -24.7l107.6 -26.1l-46.1 4.8l-21.8 -10l-39.5 12.9l-46.5 32.3l-30 3.3l-25.8 25.6l-31.6 -6.4l-36.7 -41.3l-10.9 -34.2l-105.2 -58.9l-68.6 -5.6l-32.5 -21.8l-41.3 -1.8l-28.4 -35l-39.8 -21l-105.8 5l-40.2 -8.3l-118.8 -73.7l-100.5 -18.6l-23.9 -16.5l-57 -25.6l-49.2 3l-102.3 -30.2l-51.5 19.7l-55.6 -0.1l-22 -47.6l1.9 -39.3l-41.6 -21.1l10.4 -47.1l-22.3 -44.4l-30.9 -3.5l-50.3 -29.8l-41.1 7.7l-11.6 -53.8l15.2 -31.9l-8.5 -16.1l36 -28.8l18 -38.3l2.5 -33.8l-27.6 -48.4l-58.1 -52.9l-9 -21.6l-106 -6.2l-19 13l0.1 315.6l-0 1022.6z" />
  </g>
  <g data-id="085">
    <path d="m1661.6 11002.1l0 0l-1.6 389.5l33.3 -0l60.1 0.1l37.6 8.1l21.6 -0.2l8.5 -8.2l-4.5 -7l-0.2 -12l-4 -14.8l-0.9 -11.2l4.8 -12.2l1.5 -13.8l2.6 -16.4l2.1 -14.8l6.4 -14.3l2.5 -11.3l2.3 -7.7l-0.7 -14.9l1.3 -11.9l4.4 -16.1l9.2 -12.7l72.6 -0.1l61.2 1.8l41.9 -0l80.8 0.2l62.6 -0.5l61.3 0.2l69.7 0.4l95 0l112.2 -0.3l64.1 0.3l40.3 -0.1l96.9 -0.1l75.5 -6.7l12.3 -9.6l10.2 9.6l5 9.7l7.4 0.9l16.7 -11.7l18.7 0.5l14.5 -7.4l24.1 -10.2l12.9 -14.3l16.4 -16.2l16.5 -13l18.4 2.7l7 6.6l7.9 0.4l0.5 -3.5l4.8 -5.1l8.3 -4.4l8.8 -27.7l0.1 -16.3l17.9 -16.1l19.5 -11.7l19.8 -13.5l4.7 -21.4l-2.2 -26.3l0.3 -20.3l-6.2 -13l3.4 -14.9l12.2 1.6l17.3 -5.1l25.7 3.1l26.2 12.8l11.8 6.3l1 -7.5l7.9 -3.2l8 -13l-1.6 -9.5l6.3 -6.5l15 -10.1l14 -15.5l10.7 -23.9l12.8 -16.7l13 -43.1l11.8 -16l8.1 -29.9l-1.2 -36.2l-0.8 -23.9l-2.6 -6l2.4 -10.1l7.7 -2.2l-2.1 -10.4l-6.3 -2.2l-6.8 -3l1.5 -7.9l11.2 -10.1l-1.2 -15.4l-1.4 -11.3l-4.6 -10.6l-9.6 -11.5l-2.7 -8.6l0 -14l0.6 -6.6l-4.2 -5.5l-6 -2.2l-2.5 -8l-3.7 -8l-7 0.6l-7.9 6l-11.7 -2.8l-6.8 -0.7l-11.4 2.4l-4.5 -1.1l-5.1 -5.4l2.1 -8.9l-7.6 -10.7l-9.6 -4.9l-2.2 -7.9l2.7 -7.9l-3.9 -13.6l-0.8 -8.4l-5.4 -5.7l-1.9 -8.5l-1.6 -14.2l-2.2 -10.5l-1 -7.2l-4.4 -16.6l0.4 -10.6l11.8 -13.4l7.2 -16.8l4.1 -10.8l10.2 -11.7l2.8 -10.3l9.4 -5.7l11.4 6.9l6.2 3.6l6.7 0.8l2 -3.7l2.1 -13.2l6.5 -4.7l15.6 -7.2l17.2 -6.1l5.5 6.3l10.2 0.7l-0.7 -12.2l-0.5 -12.8l8.8 0.9l4.8 2.5l9.1 -0.9l11.5 6.4l11.5 -3.4l3.4 -13.5l16 -8.8l5 -11.2l6.7 -8.9l8.9 -3.5l6.4 -6.1l4.2 -11.5l1.6 -15.8l6.2 -12.2l7.4 -12.6l4.3 -15.7l3 -12.9l4.1 -18l-1.1 -13.1l14 -28.8l-3.9 -16.6l-9.9 -9l-3.6 -9.4l6.6 -8.2l6.5 -5.6l14.2 -24.8l19.9 -16.4l19.9 -14.7l23.8 -16.4l7.8 -9.8l18.5 -0.2l6.1 7.6l10.1 14.6l8.7 7.2l9.2 1.1l17.5 6.6l17.3 12.8l3.1 15.1l8.1 11.1l6.8 -7l4.9 -8.3l9.5 7.2l0.4 12.7l-1 11.3l2.2 16.8l4.7 11.1l9.3 4.1l3.2 -7.7l8.5 -7.1l-2 -8l5.2 -7.7l4.6 0.3l7.9 0.5l6.8 -3.9l11.4 0.5l11.5 7.1l11.5 6.7l12 5.8l9.8 -3.6l10.1 -9.1l-0.6 -5.8l7.3 -5.4l7.6 -2.2l14.1 -5.8l5.3 -6.6l4 -6l8.7 -16.1l-0.5 -9.4l8.2 -12l9.2 -1.8l14.4 -5.7l6 -14l17.7 -14.8l13.2 -11.5l10.9 -3.8l7.1 -6.4l8.8 -4.6l1.2 3.9l6.7 -0.9l1.1 -6.7l10 -4.7l5.8 -13.2l6.7 -11.9l11.5 -6.5l7.4 -2.1l8.1 -5.4l11.5 -3.4l1 -2.9l29 -59.1l43.3 -16.7l9.6 -38.5l-13.1 -14.9l12.1 -23.7l44.7 -7.2l18.2 -28.3l-19.8 -75.4l19.8 -23l-18.6 -33.2l-1.1 -53.2l19.9 -75.2l-7.2 -47.2l8.2 -35.9l-7.6 -85.8l10.5 -22.1l-20.1 -12.7l18.9 -60.6l-17.4 -68.9l14.1 -20.4l2.4 -45.8l45.3 -39.2l-495.1 0.7l-1572.5 3.7l17.3 -18.8l-18.7 -36l-68.8 83.3l-42.1 12.4l-4.2 25.4l-25.5 2.3l-28.5 28.4l-64.8 -13l-23.9 49.1l2 29.8l-14.7 37.5l-0.1 1l6.9 21l-3.1 21.5l1.2 15l9.2 9.3l11 6.2l27.5 2.9l25 12.7l7.3 6.9l-0.4 9.9l-3.6 5.7l-6.1 10.1l-7.2 5.1l-0.1 8.5l0.3 10.2l-1.1 18.4l-10.2 13.8l-8 6.4l-8.6 13.4l-12.8 9.6l-7.1 15.1l-4.4 18.4l1.9 7.4l7.1 7.4l2.8 16.1l4.9 4.6l7 7.3l2 5.5l5.2 7l2.3 14.5l-2.5 8.3l-4.2 17.9l-7.8 11.9l-6 18.8l-9.7 13.3l-13.7 0.3l-7.5 -5.2l-10.5 -0.7l-3.3 5.4l1.5 8.9l-5.4 10.5l3.2 8.4l-3.7 11.9l-3 11.3l-0.3 13.6l-1.6 14.3l-1.1 6.7l-3.1 3.1l-5.1 2.7l-11.5 6.3l-1.3 18l-0.1 3.6l-4.1 1.5l-3.7 -1.8l-6.6 1.6l-5.3 4.4l-2.8 15.3l-2.5 13.1l-1.5 12.6l-3.3 7.7l-5.5 1.3l-2.5 5.7l1.5 6l0.4 8.7l0.7 10.4l-1.5 4.3l-2.5 10l0.5 10.2l-1 15.4l-0.6 18.6l-1.9 10l-0.5 14.3l-0.7 6.9l-1.2 6.1l-2.9 8.7l-1 8.7l1.2 5.9l1.2 4.9l-2.7 7.6l-1.7 5.9l-1 6l-3.4 7.9l-3.9 9l3 13.1l2.2 12.1l8.3 4.1l4.7 7l9.7 15.9l8.3 15.9l17.7 17.2l-1.9 27.5l-5.1 4.7l-2.5 6.9l4.9 4.6l1.6 3.2l1.5 2.5l4.3 5.1l4.7 4.9l2.1 3.3l2.4 3.6l0.6 2.3l2.2 1.7l2.1 -0.1l6.3 3.4l8.2 15.8l-3.4 19.8l-5.6 8l-0.9 4.6l0.6 6.9l0.8 10.7l-6.9 30.2l-7.5 26.5l-9.5 19.3l8.1 19.5l1.4 26.6l2.3 15.1l-7 15.5l-5 20.6l-2.8 18.5l-2.3 16.6l-4.8 6.6l3 6.9l7.4 8.1l4.1 21.1l-0.8 15.2l3.9 18.2l4.1 20l8.7 21.1l3 21.7l4 24.5l-1.3 15.6l4.5 20.8l2.5 4l7.6 393.8l-97.8 0.3z" />
  </g>
  <g data-id="087">
    <path d="m0.6 10839.3l0 0l-0.6 12.6l12.8 38.6l11.6 13.3l17.8 17.6l10.2 5.5l5.8 5.6l15.5 17.6l1.9 2.4l10.3 22.1l-0.1 3.6l-2.7 12.1l-1.1 2.2l-17.9 35.2l-3.5 2.8l-15.7 6l-2.6 2l-1.7 2.4l-3.6 13l-0 0l-3.8 5.5l-0.3 3.1l9.2 20.8l30.4 32.7l8.1 6.5l36.8 27.2l21.4 3.2l22 -1.7l7.9 -2.5l7.3 -8.1l1.4 -2.8l0.9 -6.3l2.6 -5.4l15.9 -18.3l4.9 -3.1l10.3 -3.9l6.4 -0.2l5.6 1.9l3.2 2.6l6 7.4l6.4 10.3l1.6 3.6l4.3 20.4l2.3 4.7l18 18.8l17.8 13.2l12.8 15.2l4.6 14.3l5.6 4l4.8 0.6l4.8 -2.1l2.5 -5.1l5.2 -24.2l10.4 -9.1l6.4 -4.1l6.9 -0.6l3.7 0.8l8.1 5.5l5.3 1.5l25.7 0l22.8 -0.2l17.7 5.9l3.8 6.4l2.6 9.7l-3.2 21.9l0.4 40.3l3.3 24.2l7.1 6l2.8 1l28.9 6.4l3.8 -0.9l7.6 -4.6l8.2 -0.6l16.2 5.4l36.5 27.2l4.3 5.9l7 12.6l2.7 24.9l-0.4 4.7l-2.6 8.6l-1.9 3.8l717.9 2.5l151 0.6l7 -37l-4.7 -89l22.1 -23.8l-13.2 -45.1l15.6 -88.2l-15.2 -24.3l15.4 -51.7l-9.2 -25.7l30.3 -80.3l-8.5 -41.3l18.7 -24.9l4.8 -77.1l31.4 -52.8l-173.8 0.3l-195.6 -106.5l-0.4 -279.8l-119.4 -0.1l6.4 -49.1l-40.6 -58.9l-1 -400l-445.2 -5.9l-7.6 15.3l-23.8 46.4l-12.3 13.6l-4.8 8.2l-4.2 13.6l-0.2 4.5l1.1 5.2l3.7 8l0.2 2.5l-1.8 6.1l-4.7 7.5l-3.4 2.3l-19.7 11.1l-28.7 6.4l-6.6 3l-3.2 3l-7.9 10.5l-14 12.7l-8.9 7.3l-11.1 6.4l-11.5 0.8l-12.5 -1.9l-39.5 19.7l-9.6 6.9l-29.1 40.9l2.9 12.4l-2.2 34.1l-3.3 6.9l-13.5 7l-11.1 18.9l-2.3 12.4l-0.4 5.8l-16.9 34.8l-7.5 9.2l-1.5 16.7l2.9 12.2l-5.2 25.7l-16.1 30.8l-10.5 5l-4.9 10.8l-4.4 12.4l-7.7 47.2l0.8 22.6l-2 5.2l-12.8 14.3l-6.6 5.1l-7.1 3.5l-5.7 6.4l-3.6 9.6l0.5 5l8.1 11.1l-2 26.2l-8.2 21.5l-5.1 9.8l-13.9 15l-9.9 3.9l-23.2 1.1l-6.1 8.4l-7.1 13.3l-3 7.9l0.5 7l-1.9 7.9l-2.9 7.7l-9.5 17.8l-14 14.4l-3.6 0.7l-8.4 -1.8l-12.5 5.5l-1.6 3.1l-1.4 6.7l0.3 4.9l2.1 7.5l4.7 8.4l7.3 25.1l2.3 12l1.5 12.9l-0.7 47.1l-5.2 14.7l-11.6 29.2l-2.5 4.8l-12.7 13.4l-12.6 7z" />
  </g>
</svg>
