<?xml version="1.0" encoding="UTF-8"?>
<!DOCTYPE svg PUBLIC '-//W3C//DTD SVG 1.1//EN' 'http://www.w3.org/Graphics/SVG/1.1/DTD/svg11.dtd'>
<svg viewBox="0 0 10000 5238.18" xmlns="http://www.w3.org/2000/svg">
  <g data-id="001">
    <path d="m946.4 712.5l0 0l-2.4 14.4l27.1 10.2l3.6 -6.1l1.3 -10.3l1.2 -10.1l3.2 -6.5l4.3 -2.9l9.6 -1.5l21.1 20.4l2.9 10.1l-0.2 5.9l4.1 10.4l8 6.9l4.9 1l17.2 -5.7l7.6 0.1l15.9 17.3l29.6 17.8l40.8 18.3l19.6 15.6l6 10.3l4.5 3.9l17 -4.5l2.7 -0.7l2.9 -5.9l4.8 -62.3l15.2 -7.3l10.4 -11.1l7 -12.1l-0.7 -3.4l-5.3 -4.7l-2.5 -8l0.7 -4l8 -8l11.6 -7.1l14.9 -2.4l20 3.3l3.7 -2l17.5 -29.6l30.2 -44.9l9.3 -19.9l11.7 -10.8l15.6 4l5.1 -0.1l4.7 -4l13 -25.6l0.1 -3.3l38.2 -56.6l2.1 -6.4l-0.4 -17.2l25.1 -19l3.4 -2.6l18.6 5.7l8.8 8.1l11.3 5.8l10.5 -3.1l7.3 -17.6l-3.6 -10.6l-11.2 -14.4l-14.1 -3.1l0.8 -33.6l2.8 -4.1l13.3 -0.4l15.1 -21.5l0.1 -8.3l6.3 -22l17 3.7l3.1 4.6l5.8 1l4.5 -6l1.1 -11l-1.3 -10.2l-13 -38.8l13.1 -28.7l3 -0.8l8.2 -2.1l35.4 -21.7l21.2 -8.2l1.8 7l-0.7 6.1l-6.3 13.8l-6.8 2.6l-3.4 4.4l-13.2 36.5l0 5.1l2.2 2.7l17.9 6.7l14.4 1.6l14.6 -11.9l18.4 -9.6l12.7 3.4l15.1 9.9l5.9 18.1l-0.5 4.7l-11.9 12.4l-18.1 11.7l-4.9 -2.5l-0.3 -6l-4.9 -4l-20.2 -0.1l-17.2 3.7l-19.7 13.7l-2.8 5.6l-0.1 2.1l8.7 11.8l4.9 2.4l3.6 4.4l4.6 10l0.4 6.4l1.9 5.6l16.4 15.6l7.8 4.3l23.3 3.3l7 -3.4l6.9 -14.4l3.9 -1.9l10.2 -0.9l1.9 8.6l2.6 24.3l12.7 22.7l3 10.6l0.9 0.2l22.1 4l3.3 1.5l10.5 15.3l3.5 2.7l28.1 7.6l4.1 3.7l1.9 3.5l1.1 9.2l4.6 5.5l15.8 5.6l15.3 10.2l15.5 0.6l10.7 9.9l14.8 5l3.2 1.1l56.6 -7.1l4.7 -2.2l0.4 -3.9l12.5 -0.9l19.2 5.6l17.2 7.3l2.3 2.3l12.1 2.5l6.4 -4.7l4.6 -1.3l3.9 0.9l1.7 2.2l2.2 7.6l3.3 4.7l7.5 5.9l0.6 0.4l18.3 3.9l14.1 12.6l10.7 7.2l2.3 0.7l2.2 0.7l19.8 -6.1l9.8 0.4l5.9 2l8 -0.9l42.1 -10.7l14.6 -0.4l17.5 6.6l23.5 11.4l9.4 -0.7l20.9 3.3l9.1 -4.7l3.7 -0.3l7.6 1.6l14.6 7.9l6.8 0.4l5.7 -2l12.9 -11.8l4.4 -15l-0.3 -9.7l-1.9 -10.7l1.4 -5l4.5 -3.6l18.5 -2.3l3.5 -4.1l-0.3 -4.5l-0.7 -4.1l1 -3.6l5.2 -3.2l4.2 0l7.5 6.3l8.1 7.2l4.5 -1.6l2.9 -6.9l0.8 -6.8l0 -8.2l2.1 -6.3l7.7 -1.4l7.8 8.2l6.5 0.8l6.6 -1.4l3.8 -1.8l1.4 -4.5l-2.8 -8.2l-7.4 -13.4l-7.3 -8.3l-26.2 -12.8l-27.1 -21.5l-9.4 -10l-8.9 -17.9l0.6 -14.1l1.9 -6.3l6 -4.6l7.5 -3.6l11.7 -3l6.3 0.2l33.6 13l11.9 7.6l6.6 7l3.1 1.7l24 7.4l16 -4.7l7.9 -5.1l4.8 -6.6l-0.3 -9.2l-4.5 -8.4l-11.8 -9.8l-22.9 -13.8l-17.5 -14.2l-11.1 -12.9l-13.4 -20.1l-3.3 -6l-1.4 -5.1l0.7 -6.8l6.9 -8l9.8 -3.7l12.1 1.5l17.3 8.6l38.4 14.7l11.4 11.6l16.2 9.4l12.2 2.1l7.8 -1.3l3.5 -2.6l2.1 -4.9l-0.3 -3.2l-15.1 -17.1l-8.7 -12l-1.1 -3.1l0 -5.2l2.2 -9.1l4.5 -3.3l16.5 -3.2l11.7 4.5l3.9 4.1l8.4 4.3l9.3 1.4l5.8 -2l4.3 -4.3l0.9 -3.5l-0.5 -5.5l-4.3 -7.8l-7.1 -6.2l-1.7 -7.3l2.8 -4.6l6.9 -2.7l7.5 0.3l40.6 11.7l-14.8 -48.4l-51.9 -19.8l66.1 -7.6l-21.1 -38.8l51.2 -1.2l16.8 -48.1l-66.5 -88.4l-85 0.1l-131.4 0.1l-50.9 -1.1l-171.8 1.1l-19.6 -1.1l-66.4 0.9l-77.4 -0.3l-107.9 -0.4l-147.3 -0.6l-191 0.3l-270.5 0.5l-158.3 359.6l-155.2 352z" />
  </g>
  <g data-id="003">
    <path d="m5964.1 1807.9l0 0l29.2 29.5l-11.9 49.4l-11.3 12l14.2 8l61.9 19.1l29.7 48.5l32 1.2l56.9 30.7l15.2 51l103.8 96.6l17.9 171l46 51.7l-13.9 34l9.3 24.7l-43.7 77.6l-10.9 107.2l-32.1 20.3l18.6 80.2l-26.8 28.1l33.9 71.7l29.1 14.3l97.5 -60.1l44.7 6.2l0.7 117.1l89.3 15.3l107.5 -0.6l14.3 22.9l5.8 -31.4l-1.2 -7.6l-6.1 -4l-32.9 2.1l-18.6 -22.1l-10.8 -27l-5.3 -65.5l55.2 -31.1l18.9 -25.7l-1.1 -13.9l6.3 -9.2l32.9 -17.9l25.2 -47.1l20.3 -61.3l0 -11.9l-15.1 -29.8l-28.6 13.7l-16.4 -7.6l-0.8 -0.4l-5.6 -34.7l18.7 -18.1l46.1 -44.6l2.9 -7.5l-3.4 -20.6l-4.3 -3.2l-2.5 -11.6l0.2 -11.1l0.3 -19l8.6 -2.8l31.7 -10.1l14.2 8.6l0.2 11.3l9.2 0.6l13.1 0.8l3.2 -20.8l-8.6 -28.1l26.1 -49.5l-16.9 -21.1l-11.9 -0.6l-18.5 -22.9l-8.1 -31.3l1.5 -15.5l17.5 -2.1l26.7 -3.3l6.7 -6.5l2.5 -2.5l3.4 -15.1l0.1 -0l48.7 -14.5l11.5 -3.4l63.3 -64.6l-8.3 -32.8l-16.4 -30.7l-76.3 -56.8l0.2 -0.3l14.6 -25.4l20.9 -36.5l2.8 -21l-0.5 -1.8l-3.4 -12.7l-21.1 -77.7l1.1 -39.2l8.6 -14.5l-5.1 -3.2l-20.6 -13l-28.5 -18l-42.1 -32.5l-10.1 -18.6l-17.7 -9.4l-0.4 -0.2l-37.1 8.8l-0.9 0.2l-16.8 -23.6l-7.8 -4.9l-16.8 -10.6l-14.6 -9.2l-18.9 -36.9l-0.2 -47.5l-35.7 28.3l-61.3 -24.4l-6.7 -3l-4.7 -1.6l-15.3 -17.3l-50.8 -61.9l-15.6 -8.7l-29.1 39.4l-22.3 -5l-20.5 -11.3l-104.1 35.1l-0.8 9.6l-1.1 6l-32.9 29.4l-18.2 35.5l-3.9 19.4l-55.4 10l-78.8 99.1l-12.3 48.6l-59.4 18.3l-30.1 36.3l-30.9 19.8z" />
  </g>
  <g data-id="005">
    <path d="m5858.3 826.1l0 0l-18.6 32.1l31.8 35.2l-6.1 60.8l24.1 22.5l-40.3 19.3l5.4 34l35.1 39.1l-20 20.3l18 53.9l89.7 58.7l25.9 -21.3l63.8 13.4l36.1 56l-35.8 82.6l69.1 44.5l-1.7 6.5l56.4 49.2l37.6 14.5l12.6 5l36.5 35.6l9 -2.5l0.8 -9.6l104.1 -35.1l20.5 11.3l22.3 5l29.1 -39.4l-57.7 -33.5l-35.3 -19.2l-55.8 -31.9l-32.1 -18.2l-27.4 -15.1l-0.3 -27.7l0 -195.1l-0 -24.5l-0.3 -26.6l191.8 -0.2l99.1 -0.3l27.5 -0l58 -0.2l32.6 0.4l0 45.2l0 2.8l-0 131.6l0.6 38.8l0 162.2l19.4 0.6l18.7 36.7l21.2 -10.4l0.1 0.1l9.7 22.6l6.3 14.7l-11.1 28.5l5.9 13.3l21.4 7.6l19.8 -8.4l37.4 -2.3l4.3 2.8l31.4 20.3l11.6 7.5l38.8 -29.9l17.1 -41l42.7 -29.5l7.3 -5l54.1 -18.2l48.4 -31.6l13.9 -24.5l-28.8 -10.5l-62.8 -43.2l-1 -0.7l7.4 -24.3l0.1 -0.9l3.2 -40.8l0.5 -0.5l32.1 -34.8l3 -3.2l54.5 17l8.2 2.6l16.7 -28.9l-49 -46.9l1.8 -8.5l3.3 -15.3l2.3 -10.9l27.3 2.2l-17.5 -47.9l3.5 -45l-38.6 -20.8l-0.7 -0.4l3.2 -24.6l-5.1 -14.4l-26.6 -30.1l-3.5 -47.6l-29.7 -111.7l-77 -54.6l-27.5 -28.8l-8.7 -40l-129.7 -71.8l-35.6 6.3l-49.1 -57.2l-35.3 -129.3l-26.2 -27.6l-12.9 -49.3l-3.4 -141l-6.2 -172.2l-0.3 0l-90.6 0.1l-198 0.2l-32.5 0l-8.3 0l-160.7 0.9l-38.8 132.4l-60.7 215.6l-79.9 295.9l-5.9 53.8l-53.6 73.1l13.1 49.3z" />
  </g>
  <g data-id="009">
    <path d="m6277.6 2938.2l0 0l-1.7 5.5l15.8 24.2l-5.6 42.3l23.2 18.5l-7.5 22.2l-23.8 15.4l38.6 17.9l-1 16.4l-16.5 23l-2.8 34.8l32.4 26.3l13.8 28.2l-0.5 52.7l-18.3 54.1l19 79.7l-7.2 48.9l29.2 29.9l-26.1 74.5l49.5 74.5l-5 24.7l67.9 62.4l35.6 54.8l24.4 2.9l75.8 50.1l23.6 31.5l43.6 -7.8l73.4 72.6l41.3 86.3l-10 46.5l37.7 6.6l5.9 -14.3l0.4 0.3l24.7 15l11.8 7.2l40.1 -9.3l2.4 -0.6l0.7 0.1l30.2 4.6l32.2 -52.2l40.4 -58l1.7 -59.6l-4.8 -16.6l-11.3 -4.9l-21 -18.8l-28.6 -53.7l-47.1 -53.9l-33 -25.9l-8.4 -11.5l-3 -4.2l0.5 -9.6l-83.1 -91l-30 -62.6l-21.8 -70.2l-4.1 -29.3l5.4 -47.9l-2.8 -99.3l11.4 -73.6l-9.6 -39.3l-20.4 -47.9l-17.5 -93.5l-0.3 -61.5l7.4 -40.1l-14.3 -22.9l-107.5 0.6l-89.3 -15.3l-0.7 -117.1l-44.7 -6.2l-97.5 60.1l3.4 4.5l0.1 9.2l1.8 15.6l-1.9 4.6l-4.9 2.5l-15.4 -0l-2.6 2.4l-1.6 5.5l0.3 4.7l4.2 12.9l0.3 6.7l-12.5 26.2l-4.6 8.4z" />
  </g>
  <g data-id="011">
    <path d="m7823.5 2892.2l0 0l16.9 22.3l32.2 37.5l0.4 32.5l36.6 -3.2l11.5 38.1l59.5 30.4l16.9 -8.7l74 -30.4l17.5 -39.5l18.3 16.9l41.7 3.5l13.9 -10.6l59.4 -17.5l84.9 23.1l4.2 56.7l79.8 -28.5l124.9 146.6l-0 -0l-12.4 -202.6l-10.6 -173l-6.4 -105l-3.6 -58.8l-1.3 -22.2l-0 -0.8l-0.6 -9.1l-2.5 -39.1l-0.1 -3.2l-3.4 -59l-0.6 -3.3l-4.7 -75.4l-32.2 -519l-3.7 -59l-4.5 -58.8l-0.7 -15.6l-3.5 -66.1l-97.3 30.4l-98.8 70.8l-30 65.8l-1 41l-47.2 41.5l-47.6 113.4l-64.9 52.6l-48 69l5.8 45.1l-33.1 63.9l8.4 58.9l-0.7 97.1l60.5 86.9l-11.2 46l70.9 76.5l-30.8 17.4l-50.7 29.8l-38.2 51.2l-38.1 -3.9l-74.3 80l10.7 29.4l-46.1 38.1z" />
  </g>
  <g data-id="013">
    <path d="m4903.4 244.1l0 0l23.9 42.6l-15.5 17.7l44.3 42.7l36.4 -5l17.7 33.5l16.2 -26.3l77.5 80l54.2 2.8l64.4 62.3l-2.9 56.6l41.5 6.6l95.4 102.3l7.3 15.4l-24.6 39.6l3.7 53.3l-70.1 120.6l-24.8 132.8l-22.3 56.8l36.7 15.5l113.6 -60.3l82 21.5l89.2 33l125.4 -39l91 29.2l106 11l20 -20.3l-35.1 -39.1l-5.4 -34l40.3 -19.3l-24.1 -22.5l6.1 -60.8l-31.8 -35.2l18.6 -32.1l-13.1 -49.3l53.6 -73.1l5.9 -53.8l79.9 -295.9l60.7 -215.6l38.8 -132.4l-0.4 0l-43.5 0.6l-6.3 -0.3l-161.9 0.8l-20.3 0.1l-16.8 0l-87.9 -0.9l-122.3 2.7l-18.6 -0.1l-108 -0.5l-25 -0.6l-1.6 0.3l-355.7 0.3l-0.2 0l-21 41l24.9 21.1l-61.3 10.9l18.4 50l-62.7 38.1l-30.3 52.8l-0.5 42.3l-35.2 6.1l-44.4 -26.8z" />
  </g>
  <g data-id="015">
    <path d="m7331.8 4.3l0 0l46.4 103.2l88.1 77.3l58.8 118.8l93.3 113.7l26.2 37.2l19.1 25.7l23.1 46.7l26.8 -10.5l1 -0.1l37.2 -3.1l37.1 -3.1l54.2 -4.6l13.9 -27.3l1.2 -2.3l15.9 -7.6l27.2 8.6l23.1 7.3l7 21.9l0.1 4.4l0.5 29.1l-20.5 25.4l-23.1 57.2l-17.7 63.2l-5.5 35.3l-14.3 20.5l-21.1 48.2l6.4 11.4l15.6 -2.9l9.5 -20.4l18.4 -4.2l0.3 -0.1l30.2 31.6l-0.2 6.2l-0.1 3.1l-13.2 27.2l-33.4 14.5l-21.4 46l-21.7 17.7l-41.6 18.9l-13.4 22.6l2.3 17.9l9.8 5.5l74.5 3.4l0 0.6l0.1 24.4l44.5 26.1l42 -21.1l49 20.3l35.5 -9.4l8.6 10.9l60.4 4l22.8 14.8l41.1 -20.4l27.4 9.5l29.4 -18.7l25.3 -9.3l16.9 -21.1l10.9 -2.6l20.3 7.4l8.4 13.1l88.2 -7l-7 -111.7l-11.9 -189.5l-9.9 -157.1l-0.1 -2.4l-0.2 -2.8l-2.6 -41.2l-10.4 -176.8l-1.8 -31l-1.6 -27.1l-1.3 -20.1l-1.4 -30.8l-1.3 -29.9l0.1 -37.6l0 -28.4l-0.1 -3.4l0.6 -53.1l0 -0.7l0.1 -63.1l-25.2 -0.2l-23.7 -0.1l-4.2 0l-420.7 1l-32.5 -1l-32.8 0.3l-216.7 0.8l-26.4 0.1l-219.7 0.8z" />
  </g>
  <g data-id="017">
    <path d="m5010.6 3516l0 0l-23.9 88l32.1 132.2l0 22.8l-9.6 39.2l31.7 90.6l75.3 56.4l21.2 9.5l46.5 -16.6l112.5 -75.2l20.3 -26l4.1 -11.5l5.9 -16.7l28.6 4.1l0.1 0l9 8.5l34.9 -3.8l10.5 -20.7l24.6 -28.6l70.5 -52.6l4.8 -2.8l3.2 -1.8l54 -2.7l0.7 -0l33.2 67.9l6.9 36.4l23.2 41.2l10.6 91.9l18.2 45l48.6 40.3l26.6 10.6l28.3 24.4l11 14.6l2.3 3.1l3.3 10.3l0 0.7l2.8 56l28 9l49.5 32.8l45.6 21l4.5 2.1l38.8 36.7l11.1 4.8l9.8 -20.4l6 -31.6l0.8 -4l-12.6 -43.5l-14.3 -31.9l-16.1 -40.2l-11 -30.3l-25.2 -20.1l13.7 -34.5l10.8 -26.2l6.6 -16.1l18.5 9.1l-4.6 -29.9l-54.5 -42.8l5.2 -23.4l0 -0.3l48.4 -26.9l66.4 -102.6l104.1 -215.8l137.7 -3.9l0.2 2.4l3.6 -1.1l3 2l0.3 4.9l1 -1.8l2.8 4.6l0.6 4.7l4.1 1.6l2.9 5l0.1 2.5l4.4 -2.1l2.5 2.1l1.6 4.2l3.1 4.6l1.7 4.2l31.3 6.2l25.5 -13.4l26.1 -74.5l-29.2 -29.9l-56.2 -18.5l-1.7 -0.5l-1.9 -8.8l-6.8 7.5l-79.9 -45.4l-4.9 -102.4l-14.4 -69.8l-20 -3.7l-236.6 -112.3l-113.9 16.5l-117.7 -24.1l-74 19.1l-50.7 23.7l-59.8 86.9l-66.2 -213.1l-21 -46.1l-12.3 7.8l-16.2 13.9l-8.3 0.9l-7.2 4.3l-36.3 31.7l-23.7 34.6l-4.4 40l-3.2 29.3l9 16.2l-0.7 8.7l4.5 17.9l43.7 1.8l10.5 0.4l-9.9 21.4l-31.7 20.3l-10 15.6l-44.1 25.3l-47.4 -3.7l-31.8 17.8l-58.9 91.7l-25.3 39.3l-12 3.1l-25.4 6.5l-18.8 36.8l-19.8 38.7l-19.6 38.3z" />
  </g>
  <g data-id="019">
    <path d="m7642.1 4627.9l0 0l10.5 30.5l11.1 -6.3l1.4 -5.4l9.4 -4.2l45.3 -20l9.4 5.4l19 13.1l38.1 -77.5l-1 -1.9l-0.2 -1l-4.7 -26.6l2.8 -32.2l24.5 -8.1l-0.5 -16.9l-60 -74.1l-42.8 0.6l-8.3 0.1l-38.7 31.1l-8.3 118.3l7.5 29.6l-3.4 26.1l-0.3 2.1l-11 17.4z" />
    <path d="m7099.6 3573.9l0 0l9.8 49l1 4.8l24.1 39.4l43.6 57.8l41.6 75.5l5.6 29.8l-3.9 28.8l27.2 53.2l45.5 35.3l-35 61.4l17.8 46.2l62.1 14.6l3.9 5.7l8.4 12.1l15.8 22.7l36.4 50.6l3.8 5.3l20.6 34.6l3 5l15.2 32.6l38.4 52.4l0.7 0.5l32 21.6l2.7 1.8l32.2 6.6l22.1 -19.6l58.6 -42l11.3 0.9l44.6 3.4l12.2 39.4l25.9 32.6l58.5 29.8l-8.2 -39.8l-19 -31.9l-0.3 -22.1l12 -15.9l25.8 -72.2l-6.9 -22.5l-44.4 -46.3l1.4 -15.8l9 -24.8l9 -11.2l17.3 -3.1l38.9 -26.5l14.6 -59.7l-4.4 -11.1l0.6 -10.1l11.1 -27.7l10.5 -12.2l64 24.8l26.9 70.2l0 25.4l-5.2 23.8l-11.4 11.8l-27.2 14.4l-61.5 8.3l-19.6 9.1l2.4 5.5l20.1 8.3l38.3 61.4l5.8 10.4l4.5 8.1l3.5 32.5l26.8 33l8.2 22.2l-7.8 36.2l1.6 -0.5l56.5 -15.6l12.9 -23l-8.6 -6.4l-9.7 1l-12.9 -11.7l-0.8 -31.9l7.7 -8.5l29.1 -15.4l-5.1 -74.9l30.5 -65.9l28.6 -51.4l55.7 -35.6l59.2 -22.5l0 0.2l2.4 20.9l3.7 -90.4l50.6 -11.2l-29 -37l12.8 -61.9l58 -40.3l-36.7 -28l47.8 -59.9l-13.9 -49.5l13.3 -14.8l16.7 -3.4l29.5 -6.9l84.7 -60.4l9.9 -47.2l17.5 -23.1l46 -10l51.2 -56.3l-4.2 -70.3l-1.2 -20l-4 -65.4l-0.2 -4.4l-0.8 -14.5l-0.8 -13.9l-1.7 -26.4l-0 -0.1l-124.9 -146.6l-79.8 28.5l-4.2 -56.7l-84.9 -23.1l-59.4 17.5l-13.9 10.6l-41.7 -3.5l-18.3 -16.9l-17.5 39.5l-74 30.4l-16.9 8.7l-20.5 24.3l-8 50.9l-57.6 66.1l5.8 43.4l-23 50.7l-85.6 58.3l5.9 15.7l-3.7 3.1l-29.1 24.4l-35.5 -30.9l-48.7 -43.1l-23.6 -20.9l-50.1 17.9l-35.6 -21.4l-26.5 -29.7l-27.9 20.3l-33.4 -11.5l1.1 -33.2l-10.4 -54.9l-11 1.3l-35.9 22.2l-26.3 23.3l-1.1 6.5l-21.1 11.5l-42.3 -21l-12.3 -42.1l-22.2 6.7l-39.8 32.2l-17.3 -1.6l-17.5 17.7l15.8 21.7l8.9 12.2l-11 18.3l-39.2 25.5l-32.2 20.9l-7.1 10.2l41.2 7.5l15.4 22.6l8 11.7l8.4 24.3l-3.5 20l-8.1 16.5l6.6 10.5l9.1 3.6l46 -23.6l5.8 0.6l1.7 0.2l3.1 0.3l10.1 5.9l-4.1 23.7l-2.5 14.2l-1.3 2.3l-28.1 48.3l-4 4l-4.1 4.1l-39.9 3.7l-0.1 0l-4.1 -5.7l-13.3 0.7l-64.3 16.4l-20.7 -5.5l-20.5 22.7z" />
  </g>
  <g data-id="021">
    <path d="m4078.9 1165.5l0 0l2.9 -0.3l10.1 7.3l11.7 13.6l34.1 18.1l24.1 7.4l9.4 1.3l45.4 14.7l22.6 -2.8l15.8 5.3l13.9 1.7l10.1 -1.9l22 -9.5l19 -3.3l7.8 0.7l1.7 1.5l5.9 5l3.1 5.8l-2.1 21.6l4.3 24.3l17.4 20l4.6 9.9l11.7 12.7l3.6 5.5l2.3 7.9l6 5.8l13.8 7.5l27 9.5l3.4 1.7l3 3.7l25.2 13.4l26.6 4.6l22.1 10.1l4.8 4.3l8.7 13l21.6 20.8l24.8 17.9l4.7 6.5l1 3.3l-0.6 8.7l-2.2 4.9l9.4 -3.9l380.8 -226.1l4.5 -2.9l47.8 -28.8l211.2 -125.9l1.6 -1.3l22.3 -56.8l24.8 -132.8l70.1 -120.6l-3.7 -53.3l24.6 -39.6l-7.3 -15.4l-95.4 -102.3l-41.5 -6.6l2.9 -56.6l-64.4 -62.3l-54.2 -2.8l-77.5 -80l-16.2 26.3l-17.7 -33.5l-36.4 5l-44.3 -42.7l15.5 -17.7l-23.9 -42.6l44.4 26.8l35.2 -6.1l0.5 -42.3l30.3 -52.8l62.7 -38.1l-18.4 -50l61.3 -10.9l-24.9 -21.1l21 -41l-51.7 0l-7.9 0l-486.6 0l-21.9 0l-47.8 71.4l-40.6 34.5l34.9 22.4l-61.5 104.6l-28.4 27.8l-84.3 32.7l-37.4 142.2l-16.2 21.8l-8.4 67.6l-33.4 31.7l-23.6 87.7l19.4 24.4l-17.2 28.6l13.5 36.8l-40.1 65.2l-14.8 129.1l-35.5 99.5l-40.1 73.8l-7.1 55.3z" />
  </g>
  <g data-id="023">
    <path d="m1.9 1246.2l0 0l-1.9 47.8l2.1 5.2l-1.2 37.7l2.5 0.7l0.7 0.2l-2.3 171.4l24.4 6.5l15.5 -10.4l37.1 -12.8l29 -15.6l34.7 -32.3l-1.5 -16l10.6 -15.1l18.7 -4.8l56.4 -72.7l24.5 -22.2l33.4 -5.2l17.1 -9.1l22.4 -23.5l0.4 -3.1l-4.4 -7.5l2.8 -11.1l27 -18.6l39.7 -13l28.1 14.1l21.6 2.4l5.6 -1.7l14.7 -30l3.8 -39l22 -17.2l6.6 -5.1l31.7 -15l3.2 -3.9l-0.1 -49.1l3.7 -7.5l36.9 -5.9l14.9 -14.5l20 1.5l14.4 -6.3l24.8 -36.6l11.3 -24.1l5.4 -4.8l5 -0.5l8.7 4.3l22.8 -5.4l5.3 -11l5.4 -1.8l9.3 2.1l7.4 -3.6l3.7 -11.3l-2 -10.9l11.6 -32.1l4.8 -3.3l4.5 0l8.2 2.9l4.5 9.5l4.5 2.9l4.8 0l4.5 0l3.7 -2.2l2.5 -5.8l1.7 -10.9l2.8 -6.9l9 -2.9l10.1 -1.8l5.4 -4.7l2 -9.9l-1 -9.8l0.8 -8.5l11.3 -10.7l5.6 1.2l4.8 -1.1l3.4 -3.6l2.3 -4l0.8 -6.6l0.5 -7.1l5.2 -8.3l13.8 -7.1l8.4 -7.6l19.8 -41.4l-1.6 -8.7l-4.7 -8.5l-1.8 -5.3l0.4 -3.4l1.8 -1.9l3.5 -2.1l4.1 -1.3l7.6 2.5l18.2 3l33 -9.2l2.4 -14.4l155.2 -352l158.3 -359.6l-6.3 0l-257.7 -0.3l-24.7 0.1l-756.8 4.2l-189.7 1.1l0.2 225l-0.9 3.6l-1.8 2.1l-0.3 36.6l-2.2 286.7l-7.9 0l0 20.5l-0.7 9.7l-3.9 516.5l-3.8 0l-1.7 139.6z" />
  </g>
  <g data-id="025">
    <path d="m6574.4 4.7l0 0l6.2 172.2l3.4 141l12.9 49.3l26.2 27.6l35.3 129.3l49.1 57.2l35.6 -6.3l129.7 71.8l8.7 40l27.5 28.8l77 54.6l29.7 111.7l3.5 47.6l26.6 30.1l5.1 14.4l1.6 -12.4l14.6 4.4l48.3 14.4l28.4 -4.4l3 -0.5l25.4 22.8l-4.3 49.8l-33.5 18.2l1.7 0.7l54.8 23l-7 60.6l20.6 35.1l-15.7 46.7l33.5 4.3l12.8 -67.7l43.9 -46.5l-23.3 -50.3l-42.3 -33.7l38 -61l-0.5 -42l32.1 -25.7l9.6 -56l-2.4 -54.1l46.3 -19.8l14.5 89.7l-38.3 63.2l-20.1 72l24 52.1l35.4 25.1l59.3 -43.2l16 -24.3l24.1 -4.9l19.4 -42.6l28.6 -41.1l27.9 2.9l55.2 -46.4l11.4 -18.6l32.9 -23.5l42.7 -7.8l4.7 4.7l45.5 -32.1l0.1 -13.1l-24.9 -66.6l-25.5 -8.2l-33.9 5.1l-14.3 -7.8l-20.9 -23.1l-7.5 -27.3l47.7 -119.3l45.9 -17.9l-23.1 -46.7l-19.1 -25.7l-26.2 -37.2l-93.3 -113.7l-58.8 -118.8l-88.1 -77.3l-46.4 -103.2l-0.5 0l-14 0l-316.8 0l-1.1 0l-33.8 0.3l-19.8 -0.1l-32.3 -0.2l-0.2 0.3l-52.9 -0.1l-111.8 -0.2l-56.8 0l-117.5 0.3z" />
  </g>
  <g data-id="027">
    <path d="m5182.9 1117.4l0 0l37.8 80.1l68.2 61.2l12.6 44.4l8.7 24.5l61.1 7.2l75.1 34.5l19.3 37.3l37.7 10.5l28.1 50.5l51.6 39.5l2.3 73.1l26.2 44.2l52.1 12.1l-3.7 36.8l53.2 9.7l-15.4 35.4l66.3 -12.7l25.8 24l5.9 10l59.7 -12.4l41.4 53l67 27.8l30.9 -19.8l30.1 -36.3l59.4 -18.3l12.3 -48.6l78.8 -99.1l55.4 -10l3.9 -19.4l18.2 -35.5l32.9 -29.4l1.1 -6l-9 2.5l-36.5 -35.6l-12.6 -5l-37.6 -14.5l-56.4 -49.2l1.7 -6.5l-69.1 -44.5l35.8 -82.6l-36.1 -56l-63.8 -13.4l-25.9 21.3l-89.7 -58.7l-18 -53.9l-106 -11l-91 -29.2l-125.4 39l-89.2 -33l-82 -21.5l-113.6 60.3l-36.7 -15.5l-1.6 1.3l-41.3 37.6z" />
  </g>
  <g data-id="029">
    <path d="m7238.6 1626.8l0 0l-8.8 57.3l39.7 6.9l17.9 28.4l44 122.6l3.9 24.8l1.4 63.3l-0.2 0.7l-13.2 44.2l-1 1.9l-7.7 14.7l-4 31.5l24.6 30.2l51 24.7l19 -13.1l-17.7 -29.9l-9.3 -47.4l1.8 -20.4l2.2 -25.2l1.9 -21.9l15 -61.6l43.9 -31.1l37.3 4.4l20.9 2.4l92.4 -38l51.6 -57.4l49 -33l-20.7 -27.5l76.5 -43.6l17.3 -21.2l-15.1 -31.3l-40 -11.3l-9.8 -22.4l27.6 -52.3l66.2 -47.6l15.2 -2l24.8 -36.9l48.7 2.3l1.6 -1l2 -2.3l0.8 -2.6l0.2 -3l-0.9 -5.4l0.2 -2.5l0.7 -1.6l1.1 -1.1l1.2 -0.2l1.6 0.4l2.4 0.9l2.7 1.1l3 1l3.2 0.6l3.8 -0.2l9.6 -3.9l5.9 -0.6l8.1 2.8l9.4 9.9l9.4 3.4l5.3 0.8l9.9 -6.2l7.2 0.8l8.7 9.6l2.8 1.5l6 0.3l38.5 -16.3l5.4 1.9l3.8 0.8l4.5 -0.4l11.1 -3.5l33.3 -6.9l6.3 -0.6l1.8 -0.9l0.8 -1.4l-1.2 -2.9l-0.3 -3.8l0.7 -6.6l2.5 -3.4l2.9 -1.2l4.4 0.6l3 2.8l2.1 7.9l1.9 2.4l2.5 0.5l7.6 -4.4l5 -2.4l2.4 1.2l1.2 3.1l3.4 1.2l6 -0.2l14.8 -28.4l63 5.2l75.2 45.7l113 -12.3l-9.3 -147.2l-14.8 -235.1l-0 -0.5l-88.2 7l-8.4 -13.1l-20.3 -7.4l-10.9 2.6l-16.9 21.1l-25.3 9.3l-29.4 18.7l-27.4 -9.5l-41.1 20.4l-22.8 -14.8l-60.4 -4l-8.6 -10.9l-35.5 9.4l-49 -20.3l-42 21.1l-44.5 -26.1l0.1 26.1l-9.3 3.3l-37 13l-22.4 -16.1l-38.1 -9.4l-136.7 -4.7l-13.1 33l-41.9 28.7l-4.6 19.4l8.4 11.4l-27.7 17.7l-31.9 -4.4l-24.2 11.1l-34.2 37.2l-2.4 11.2l1.4 8.8l15.6 6.9l5.2 10.6l-2.1 22.6l-8.5 20.1l-9.4 18.7l-39.1 45.1l-18.5 0.2l-18.2 22.7l-28.6 83.4l-42.8 99.2l-10.8 22.1l-24.3 32.2l-18.1 43.7z" />
  </g>
  <g data-id="031">
    <path d="m4416.5 1682.8l0 0l0.2 4.6l1 21.3l4.9 27.6l8 15.5l2.4 4.6l10.4 6.8l35.2 13.5l10.7 2.6l20.6 10.8l10.2 10.6l9.6 15.5l10.4 22.7l6.7 17.8l0.7 1.3l14.7 28.2l2.6 3.2l7.3 4.1l12.1 3.6l34.8 5.4l32 10.8l17.5 1.3l24.4 5.6l6 -0.4l6.1 -0.4l30.5 8.1l12.6 -2.4l11.3 4.4l17 0.6l17.6 -2.7l21.2 -0.4l22.6 -2.5l10.8 3.5l3.4 2.3l0.7 4.3l12.2 5l9.2 3.7l21 12.5l9.5 0.6l21.9 7.3l17.8 8.7l41.5 36l19.6 6.3l24.1 5.5l15.5 9l0 0l5.4 5.8l3.2 13.9l-5.2 15.4l-11 9.9l-8.8 26.1l6.1 19.4l8.6 5.8l2 4.1l-3.4 18.6l33.8 27.8l5.7 -9.3l1.5 -1.2l3.6 0.2l3.6 4.2l7.7 14.6l7.8 5.9l22.5 5.5l5 -2.9l12.8 4.3l2.5 2.9l11.3 3.2l20.7 -2l11.9 -3.8l25 3.8l8.8 0.3l2.5 -2l3.6 0.3l32 6.3l6.5 2.4l3.6 2.3l20.1 25.8l13.1 22.9l9.7 21.4l17.6 16.3l0.1 0.1l34.4 -35l8.6 -7.2l20.7 -22l12.9 -12.7l31.9 -31.5l39.1 -38.6l26.5 -26.8l3.4 -3.4l10.6 11.1l46.6 45.8l4.1 4.3l12.4 12.5l12.9 13.4l27.2 -29.4l-1.3 -48.6l37.2 -64.7l6.4 -11.1l44.9 -77.6l77 -133.4l23.2 -77.3l42.3 -37.9l-59.7 12.4l-5.9 -10l-25.8 -24l-66.3 12.7l15.4 -35.4l-53.2 -9.7l3.7 -36.8l-52.1 -12.1l-26.2 -44.2l-2.3 -73.1l-51.6 -39.5l-28.1 -50.5l-37.7 -10.5l-19.3 -37.3l-75.1 -34.5l-61.1 -7.2l-8.7 -24.5l-12.6 -44.4l-68.2 -61.2l-37.8 -80.1l41.3 -37.6l-211.2 125.9l-47.8 28.8l-4.5 2.9l-380.8 226.1l-9.4 3.9l-2.2 4.8l-23 19.9l-7.9 10l-5.2 18.6l2.1 20.6l-5.3 12.9l-2.8 3.9l-16.6 10.2l-43.2 10.5l-12.3 10.4l-13.1 22.1l-10.8 28.6l-8.2 36.6l-5.4 6.4z" />
  </g>
  <g data-id="033">
    <path d="m5425.3 2947.5l0 0l-15.4 9.8l21 46.1l66.2 213.1l59.8 -86.9l50.7 -23.7l74 -19.1l117.7 24.1l113.9 -16.5l236.6 112.3l20 3.7l14.4 69.8l4.9 102.4l79.9 45.4l6.8 -7.5l1.9 8.8l1.7 0.5l56.2 18.5l7.2 -48.9l-19 -79.7l18.3 -54.1l0.5 -52.7l-13.8 -28.2l-32.4 -26.3l2.8 -34.8l16.5 -23l1 -16.4l-38.6 -17.9l23.8 -15.4l7.5 -22.2l-23.2 -18.5l5.6 -42.3l-15.8 -24.2l1.7 -5.5l4.6 -8.4l12.5 -26.2l-0.3 -6.7l-4.2 -12.9l-0.3 -4.7l1.6 -5.5l2.6 -2.4l15.4 0l4.9 -2.5l1.9 -4.6l-1.8 -15.6l-0.1 -9.2l-3.4 -4.5l-29.1 -14.3l-33.9 -71.7l26.8 -28.1l-18.6 -80.2l32.1 -20.3l10.9 -107.2l43.7 -77.6l-9.3 -24.7l13.9 -34l-46 -51.7l-17.9 -171l-103.8 -96.6l-15.2 -51l-56.9 -30.7l-32 -1.2l-29.7 -48.5l-61.9 -19.1l-14.2 -8l11.3 -12l11.9 -49.4l-29.2 -29.5l-67 -27.8l-41.4 -53l-42.3 37.9l-23.2 77.3l-77 133.4l-44.9 77.6l-6.4 11.1l-37.2 64.7l1.3 48.6l-27.2 29.4l0.2 0.2l23.9 23.8l112.6 111.9l15.4 15.3l17 17.4l40.9 41.8l-3.2 3.3l-19.1 19.1l-2 2l-66.5 66.8l-9 8.1l-10 10.3l-8.6 8.8l-39.6 40.7l-29.7 27.8l-16.4 18.2l-3.2 1.2l-51.9 52.9l-32.9 33.5l-1.1 1.5l-1.4 3.5l-0.6 13.2l-1.6 34.8l-0.3 13.8l-1.2 63.1l-0.3 15l2 10.4l-0.9 38.7l-2 17.3l-7.2 12.1l-17.3 12.7l-27.3 1l-14.7 -2.9l-2.1 -2.7l-2 0.8l-13 5z" />
  </g>
  <g data-id="035">
    <path d="m7009.8 2540.2l0 0l2.5 31.8l15.5 9.7l15.9 -45.9l24.2 -15.6l22.1 4.8l14.8 -13l6.7 -11.8l-9.8 -62.8l-7.1 -18.7l5.4 -38.9l0 -0.2l27.1 -15l13.8 -0.4l0.1 -0l21.5 37.4l34.2 -12.1l-0 -0l-1.4 -21.8l-12.5 -24.4l7.9 -29.3l51.4 -38.4l18.3 33.7l0.6 16.6l5.5 13.3l13.1 3.3l15.1 -6l3.7 -8.3l-6.3 -12.8l-0.1 -0.1l1.6 -30.2l34.9 -9.5l6 -1.6l41 14.9l23 26l-3.2 103.2l11.2 28.5l-5.7 58.7l4.2 20.9l2.7 13.2l19.1 -39l19.9 16.4l27.8 -20.4l14 -40.2l31.3 -9.5l40 9.7l9.2 10.1l12.2 -17.5l42.9 -0.8l1.9 -22.7l-24.1 -41.5l4.3 -18.8l-9.1 -7.8l1.9 -7.3l5.2 -5.8l3.6 -6.8l-1.4 -6.8l0.9 -10.7l6.2 -8.9l4.5 -9.7l1.4 -7.3l4.4 -9.9l4.6 -2.5l0.6 -4.3l18.7 -9.4l323.8 76.1l-8.4 -58.9l33.1 -63.9l-5.8 -45.1l48 -69l64.9 -52.6l47.6 -113.4l47.2 -41.5l1 -41l30 -65.8l98.8 -70.8l97.3 -30.4l-0 -0.7l-3.8 -62.5l-3.8 -37.6l-11.1 -198.4l-0 -0.1l-113 12.3l-75.2 -45.7l-63 -5.2l-14.8 28.4l-6 0.2l-3.4 -1.2l-1.2 -3.1l-2.4 -1.2l-5 2.4l-7.6 4.4l-2.5 -0.5l-1.9 -2.4l-2.1 -7.9l-3 -2.8l-4.4 -0.6l-2.9 1.2l-2.5 3.4l-0.7 6.6l0.3 3.8l1.2 2.9l-0.8 1.4l-1.8 0.9l-6.3 0.6l-33.3 6.9l-11.1 3.5l-4.5 0.4l-3.8 -0.8l-5.4 -1.9l-38.5 16.3l-6 -0.3l-2.8 -1.5l-8.7 -9.6l-7.2 -0.8l-9.9 6.2l-5.3 -0.8l-9.4 -3.4l-9.4 -9.9l-8.1 -2.8l-5.9 0.6l-9.6 3.9l-3.8 0.2l-3.2 -0.6l-3 -1l-2.7 -1.1l-2.4 -0.9l-1.6 -0.4l-1.2 0.2l-1.1 1.1l-0.7 1.6l-0.2 2.5l0.9 5.4l-0.2 3l-0.8 2.6l-2 2.3l-1.6 1l-48.7 -2.3l-24.8 36.9l-15.2 2l-66.2 47.6l-27.6 52.3l9.8 22.4l40 11.3l15.1 31.3l-17.3 21.2l-76.5 43.6l20.7 27.5l-49 33l-51.6 57.4l-92.4 38l29.1 3.4l-12.1 38.9l-6.6 14.1l-12.4 26.4l-22.8 7.8l-14 11.6l-20.1 36.4l13.4 42.4l24.1 38.8l8.9 23.8l-0.8 30.5l-86.4 76.7l-37.3 7.4l-23.3 -20.4l-1.6 -0.4l-64.9 -17.2l-16.4 1.3l-25.7 2.1l-37.1 -62.2l-20 -63.4l4.1 -16.7l-1.8 -23.4l-22.3 12.7l-19.2 35.5l-7.4 40.7l2.8 7.5l-0.9 19.6l-70.2 122.8l-17.8 52.3l-8.9 91.8l2.2 97.4l-26 67.6z" />
  </g>
  <g data-id="037">
    <path d="m5893.2 3871.2l0 0l-5.2 23.4l54.5 42.8l4.6 29.9l21.6 10.6l2.1 1l23.1 11.4l-32.7 30.5l19.8 18.8l0.3 0.2l16.9 53.8l15.3 44.4l36.2 43.6l-6.3 75.7l-0.2 2.1l-1.6 3.9l-13.5 0.5l0.6 5.7l32 37.9l39.6 22.6l2.8 1.6l59.3 18.2l18.1 -24.7l9.5 -12.9l46.1 4.9l7.3 0.8l8.5 -0.3l57.5 -2l30.7 -1.1l66.5 26.7l25.6 -1.7l94.4 32.8l43 35.3l11.9 9.8l30.1 32.3l12.7 33.1l4.5 29.5l11.2 35.5l23.7 54.2l16.8 -15.2l17.1 -5.2l13.5 1.4l20.1 10l0.2 0.1l15.7 22.6l26.7 38.5l10.8 32l6.7 4.8l17.9 -8l-2.4 -15.9l-7.5 -11.9l-0.1 -10.1l-0 -0.6l10.1 -23.5l9.8 -22.8l-19.5 -51.4l24.8 -7.7l44.5 -13.7l4.2 22.2l3.5 18.5l-9.9 22l23.1 36.6l-1.9 19.4l20.8 38.2l10.5 4.5l4.7 -4.2l3 -2.7l16.2 -0.2l1.4 -0l29.4 11.7l46.3 66.8l23.8 57.3l19.1 18.2l25.6 -1.5l19.4 10.8l13.1 13.8l11 24.6l5.9 -19.5l-22.2 -81.1l-3.3 -79.2l-14.9 -32.9l-0 -0.2l-2.5 -24.6l0.8 -1.1l40.6 -52.9l-21.6 -48.3l-53.6 -65.8l-18.8 -39.9l-52.6 -73.7l-31.7 -119.1l1.1 -22.1l10.5 -32.2l44.4 -52l-1.2 -8.8l-14.6 -10.7l-48.2 -23.7l-13.6 19.8l-33.7 11l-30.8 23l-34.3 -1.6l-24.9 -17.4l-1.9 -2.8l-24.9 -36.2l-1.3 -1.9l12.3 -29.9l-37.7 -6.6l10 -46.5l-41.3 -86.3l-73.4 -72.6l-43.6 7.8l-23.6 -31.5l-75.8 -50.1l-24.4 -2.9l-35.6 -54.8l-67.9 -62.4l5 -24.7l-49.5 -74.5l-25.5 13.4l-31.3 -6.2l-1.7 -4.2l-3.1 -4.6l-1.6 -4.2l-2.5 -2.1l-4.4 2.1l-0.1 -2.5l-2.9 -5l-4.1 -1.6l-0.6 -4.7l-2.8 -4.6l-1 1.8l-0.3 -4.9l-3 -2l-3.6 1.1l-0.2 -2.4l-137.7 3.9l-104.1 215.8l-66.4 102.6l-48.4 26.9l-0 0.3z" />
  </g>
  <g data-id="039">
    <path d="m7967.1 4522.6l0 0l-18.8 70.9l22.7 54.5l9.6 14.4l15.3 8.9l4.1 0.1l-1 -40.8l29.9 -17.6l37.2 -21.8l1.7 -1l13.8 -8.1l43.7 11.8l27.8 7.5l5.9 -1.4l14.6 -16.2l11.3 -5.8l10.3 -5.3l13.6 -0.5l36.4 31.9l0.1 0.1l-21.5 54.3l-0.8 2l-11.4 1.8l-47.8 34.8l-3 5.9l-14.1 27.8l-20.5 40.6l14.3 42.1l6.1 4.1l5.9 -0.7l22.6 -2.9l-2.7 -16l2.5 -4.5l33.1 -14.2l55.6 15.6l0.4 0.6l14.6 22l-29.5 35.9l-7.6 9.3l-1.5 0.9l-16.4 9.9l-23.5 14.1l-0.5 0.3l-4.6 0.2l-1.2 -6.9l-15.7 -6l-27 9.6l-8.3 3l-5 17.5l0.2 46.5l-16.8 25.6l-36.5 81.4l18.2 56.2l-4.4 41.7l-2.8 27l-9.6 16.2l12.7 23.6l17.2 14.7l7 -2.4l47.7 -16.4l13.7 -9.2l12.5 -8.4l37.6 -25.3l5.7 -15l24.4 -22.8l25.5 -23.9l53.9 -50.5l15.9 1.6l39.8 3.9l7.2 1.9l12.7 3.3l27.6 15.3l1.1 -0.5l21.5 -10.1l11.9 -11.6l1.3 -6l20.1 -9.2l61.2 25.8l32.2 2.9l15 11.9l4.3 3.4l-4.4 14l-10.8 16.3l10.3 3.1l21.6 11.6l18.2 -4.6l-1.4 -56.4l7.9 -8.6l6.5 -17.7l8.1 -9.8l1.8 -2.2l7.8 -9.7l3.3 -9l3.7 -3.2l9.5 -3.1l3.5 -4.8l1.4 -10.3l0.2 -0l-33.7 -82.3l-37.2 -19.4l-10.8 -47.4l11 -17.9l38.1 22.6l36.5 -29.4l11.6 -51.6l81.8 13.5l21.4 -48.3l69.5 -12.3l-3.1 -56.7l-77.9 -100.3l59.6 -56.6l10 -42l-34.4 -59.3l-33.1 -34l-67.6 -108.5l-15.6 -84.6l-113.5 -58.3l-75 71l-0 10.1l6.3 7.4l-1.8 3.4l-58.5 0.7l-7.6 -27.2l-8.2 2l-2.3 -15.9l-13.7 -6l-2.7 0.6l-4 2.7l-6.6 7.3l-2.8 0.6l-9.7 -3.6l-2.4 -3.8l-1.5 -5.2l-2 -3l-1.9 -0.2l-1.2 2.4l1.5 3.5l0.1 2.7l-1.1 1.6l-4.8 1.2l-2.6 -1.3l-0.3 -2.6l2.1 -5.2l-0.4 -2.6l-1.4 -1l-3.3 -0.9l-8.2 -1l-9 -0.6l-8 0.5l-6.9 1.8l-9.2 35.3l-52.9 20.4l-6.1 18.3l-7.8 13.1l-82.4 3.8l-57.7 43.5l12.3 14.1l17.2 19.7l0.3 0.3l11.3 45.8l-0.8 0.5l-39.2 27.1l-30.7 7.4l-15.4 -4.2l-3.6 -10.2l-4.2 -1.4l-122.3 48l-20.7 25.7l-0.9 5.3l10.6 15.6l-0.3 3.9l-0.2 2l-0.1 1.3l-8.4 18.3z" />
    <path d="m7746.1 5013.6l0 0l-0.5 19.1l6.9 85.9l10.9 -1.2l0.7 -0l25.4 1l1.5 -0.3l16.1 -0.3l1.4 -0l1.8 0l33.9 0.6l27 0.5l11.3 -19.6l-13.2 -41l28.4 -39.6l4.6 -46.7l-14 -48.8l-37 -8.6l-10.3 -33.7l-28 -6.4l-2.4 -0.5l-47 20l-10.2 18.9l-5.4 30.6l-0.4 17.4l-1.3 52.7z" />
    <path d="m7723.7 4712l0 0l2.2 2.4l48.7 52.7l30.1 16.5l26.5 -4.4l12.7 -13.9l-5.1 -52.1l-29.7 -35.9l2 -26.1l19.3 -14.8l-1.3 -27.3l-11.9 1l-7.2 -4l-3.5 -1.9l-20.1 -40.6l-38.1 77.5l11.2 7.7l6.2 12.2l2.4 4.6l-5.5 6.1l-11.7 3.9l-6.5 2.1l-20.6 34.4z" />
  </g>
  <g data-id="041">
    <path d="m7090.1 2887.4l0 0l-16.8 127.3l17.3 43.3l40.4 -23.3l1.2 -29.5l-13.5 -41l5.2 -40.3l3.4 -5.5l17.8 -28.8l7.6 -3.2l30.1 9.6l0.1 0.1l7.6 9.2l-7.2 14.1l1.5 3.7l52.9 15.3l7.7 -1.4l3 -32.3l33.6 -34.3l0.6 -0.6l37 3l3.7 31.5l-6.3 13.8l0.9 7.4l1.6 12.5l58.4 89.4l28.1 32.1l8.2 -6l48.6 -1.1l44 43.7l19 61.3l44 4.5l27.8 34.3l67.7 -3.5l73.1 64l40.7 53.3l0.4 1l12.2 32.6l85.6 -58.3l23 -50.7l-5.8 -43.4l57.6 -66.1l8 -50.9l20.5 -24.3l-59.5 -30.4l-11.5 -38.1l-36.6 3.2l-0.4 -32.5l-32.2 -37.5l-16.9 -22.3l46.1 -38.1l-10.7 -29.4l74.3 -80l38.1 3.9l38.2 -51.2l50.7 -29.8l30.8 -17.4l-70.9 -76.5l11.2 -46l-60.5 -86.9l0.7 -97.1l-323.8 -76.1l-18.7 9.4l-0.6 4.3l-4.6 2.5l-4.4 9.9l-1.4 7.3l-4.5 9.7l-6.2 8.9l-0.9 10.7l1.4 6.8l-3.6 6.8l-5.2 5.8l-1.9 7.3l9.1 7.8l-4.3 18.8l24.1 41.5l-1.9 22.7l-42.9 0.8l-12.2 17.5l-9.2 -10.1l-40 -9.7l-31.3 9.5l-14 40.2l-27.8 20.4l-19.9 -16.4l-19.1 39l1.1 5.4l3 14.8l0.1 0.3l14.9 40.6l-5.3 22.8l-9 18.1l-1.6 3.2l-47.7 6l-4.1 -2l-55.7 -26.5l-10.1 -9.3l-34.8 -63.8l3.6 -11.7l-16.6 -0.6l-14.8 47.1l1.7 11.8l-24.9 11.8l-21.1 -2.8l-7 6.1l-18.1 37.1l-2.6 47.7l-30.8 50.8l-24.4 18.4l-15.1 60.7l1.7 62.3z" />
    <path d="m6961.7 2770.8l0 0l16.1 39.1l0.2 0.5l20.5 38.2l40.5 -8.1l1.7 -5.2l-18.8 -49.8l1.8 -30.8l0.4 -6.8l-22.2 -28l-40.2 50.9z" />
  </g>
  <g data-id="043">
    <path d="m2532.7 185.4l0 0l51.9 19.8l14.8 48.4l4.4 1.3l42.6 14.8l11 4.1l56.6 26.7l26.8 2.4l9.7 2.4l3.9 -1.3l3.9 -7l0.1 -13.9l2.6 -11.8l18.3 -28.2l16.6 -13.7l19.5 -21.4l23.4 -13.8l5.9 -6.1l3.3 -6.5l-0.6 -4.4l-20.6 -23l-0.3 -7l3.5 -4.4l9.5 -5.1l46.3 0.4l8.6 -1.9l4.2 -3.6l9.9 -12.3l9.6 -20.6l3 -3.3l18.8 -14.2l13.8 -2.5l11.9 1l20.8 5.8l17.9 9.1l24.1 0.3l18.6 6.2l5.7 3.9l19.8 3.9l27.3 9l9 1.3l13.7 5.4l10.4 6.2l16.4 19l2.8 1.3l14.3 0.1l10.7 6.7l6.6 6.4l12.6 14.6l1.6 1.8l36.9 37.6l4.5 8.4l5.1 6.6l4.5 3.3l15.4 11.3l6.5 7l13.2 24.2l14.1 16.9l3.4 6.1l24.9 45.4l3.1 3.5l7.3 4.5l9.9 2.5l24.5 0.9l34 1l7.2 -4.3l11.1 -15.3l13.8 -6.3l15.9 1.8l9.6 10.1l-1.1 41.5l11.5 16.3l16.1 -6.8l6 -21.5l1.9 -40.8l-20.6 -19.8l0.6 -5.6l5.5 -4.8l10 -1.1l10.4 4.3l9.3 11l6.2 18.3l7.1 8.1l18.5 6.1l25.3 6.1l25.8 8.2l3.6 1.1l14.3 -2.1l5.5 -5.4l1 -17.9l-1.9 -5.6l-11.3 -15.3l-0.1 -3.5l4.3 -3.7l23.4 4.3l13.6 9.2l24.5 9.5l9.8 2.2l24 -0.4l10.8 3.3l10 9.3l4 5.4l4.6 29.4l-0.1 11l-2.2 17.9l-5.5 29.7l-3.4 6.6l-3.6 7l-13.2 6l-30.8 -0.8l-22.3 3.1l-15.7 -1l-12.9 1.2l-17.3 8.9l-4.1 3.6l-1.5 3.3l-0.7 6.1l5.7 11.7l33.6 22.4l13.9 17.2l2.1 5.5l0.3 4.9l-1.7 19.2l-2.4 10.2l0 20.6l2.7 3.7l2.8 3.9l7.9 2.1l24.2 -3.7l18.7 -11.5l1.3 -28.2l3.3 -5.6l4.8 -3.1l7.7 -1.3l14.2 6.3l4.1 3.7l3.6 9.6l0.5 5.3l-3.6 18.1l-8.8 10.1l-36.2 25.1l-6.1 10.3l0.8 2.6l1.7 5.4l16.9 9.1l30.8 7.8l1.5 0.4l38.2 9.9l30.3 -2.2l12.8 -12.9l9.5 -7.8l6.4 -2.9l16.3 -1.3l7.7 1.2l11.2 9.8l1 7.9l-3.5 4.9l-10.4 6.2l-21.9 8.5l-30.9 15.5l-6.8 15.4l5.8 13l13.5 10l15.2 7.1l1 6l-3.3 5.5l-8.2 0.9l-20.2 -1.2l-5.5 10.5l6.3 11.2l15 13.1l0.5 12.8l-8.3 9.2l-10.3 4.7l-5.2 10.4l9.7 11.5l17.5 11.2l29.1 3.8l26 -1.7l10.4 4.7l9.1 6.3l3.6 4.1l0.9 9l11.7 27l16.8 26.9l8.1 26.3l1.1 8.8l-0.9 5.6l-4 4.5l-6 2.3l-20.2 3.6l-5.6 2.5l-2.7 3.6l-0.9 7.2l1.2 3.8l20.6 38.4l0.6 15.1l-4.6 19.6l-10 11l-18.7 11.5l-5.4 8.6l1.9 11.4l5.9 9.4l10.2 5.9l44.8 20.5l16.1 13.6l14.8 1l8.2 2l18.4 -2.7l23.1 8.5l10.1 0.5l13.2 -4.3l12.2 -10.9l10.3 -1.2l7.1 -55.3l40.1 -73.8l35.5 -99.5l14.8 -129.1l40.1 -65.2l-13.5 -36.8l17.2 -28.6l-19.4 -24.4l23.6 -87.7l33.4 -31.7l8.4 -67.6l16.2 -21.8l37.4 -142.2l84.3 -32.7l28.4 -27.8l61.5 -104.6l-34.9 -22.4l40.6 -34.5l47.8 -71.4l-0.3 0l-144.7 -0.4l-3.1 0.1l-303.4 -1.8l-6.3 -0l-5.1 -0.2l-111.7 -0.1l-19.1 -0.6l-23.9 -0.3l-57.1 -0.4l-47.2 -0.5l-1.4 -0l-190.6 -2l-448.3 -0.2l-4.6 0l-52.1 -0.1l-234.3 -0.2l-3.5 -0.3l-80.8 0.1l-6.2 0l-58.2 -0.3l-0.2 -0.1l-139 -0.2l-14.4 0.7l-5.5 -0.3l-2.2 0.1l-4.6 -0.1l-0.5 0l66.5 88.4l-16.8 48.1l-51.2 1.2l21.1 38.8l-66.1 7.6z" />
  </g>
  <g data-id="045">
    <path d="m8043.7 4232.3l0 0l13.9 14.8l6.5 16.9l-0.4 15.5l18.9 41.6l9.8 10.2l11.3 1.6l11.2 -8.6l-8.3 -24.4l1.9 -5.5l11.4 -8.7l19.8 -0.2l9.8 3.1l0 0l12.8 14.6l57.7 -43.5l82.4 -3.8l7.8 -13.1l6.1 -18.3l52.9 -20.4l9.2 -35.3l6.9 -1.8l8 -0.5l9 0.6l8.2 1l3.3 0.9l1.4 1l0.4 2.6l-2.1 5.2l0.3 2.6l2.6 1.3l4.8 -1.2l1.1 -1.6l-0.1 -2.7l-1.5 -3.5l1.2 -2.4l1.9 0.2l2 3l1.5 5.2l2.4 3.8l9.7 3.6l2.8 -0.6l6.6 -7.3l4 -2.7l2.7 -0.6l13.7 6l2.3 15.9l8.2 -2l7.6 27.2l58.5 -0.7l1.8 -3.4l-6.3 -7.4l0 -10.1l75 -71l113.5 58.3l352 -21.7l189.1 -10.1l36.7 -67.3l74.5 -53.8l36.5 -65.7l-51.2 -76.2l28.5 -66l-54.4 -137.3l-0.2 -0l-32.8 -0.1l-34.4 -0.3l-50.7 -0l-2.8 -0.1l-36.3 -0.7l-31.4 -0.6l-8.3 -0.2l-0.5 -0l-109.7 -2.9l-3.9 -0.1l-47.3 -1.3l-6.4 -0.2l-41.3 -1.3l-3.2 0l-24.9 -0.9l-57.4 -1.7l-1.6 -0l-31.9 -1.2l-21.4 -1.2l-12.9 0.4l-8.5 -0.3l-11.2 -1.3l-73 -3l-39.3 -1.3l-33.7 -1.1l-6.2 -0.4l-63 -3.5l-6.4 -92.8l-0.7 -11.8l-4.7 -73.5l-3.1 -59.3l-0 -0.4l-3.1 -51.8l-0 -0.1l-51.2 56.3l-46 10l-17.5 23.1l-9.9 47.2l-84.7 60.4l-29.5 6.9l-16.7 3.4l-13.3 14.8l13.9 49.5l-47.8 59.9l36.7 28l-58 40.3l-12.8 61.9l29 37l-50.6 11.2l-3.7 90.4l1.5 13.1l-22.2 44l-24.4 9l-23.8 57.3l-22.8 32.4l4 34l-14.2 38.6l-21.7 27.2z" />
  </g>
  <g data-id="047">
    <path d="m8622 4853.4l0 0l10.8 47.4l37.2 19.4l33.7 82.3l137.6 -15.4l258.1 -27.8l159.6 -16.8l6.1 -0.6l206.7 -23.9l51.2 -5.7l14.1 -1.6l26.9 -2l59.4 -99.4l50.3 -98l37 -97.4l39.7 -148.7l1.8 -6.6l35.5 -103.9l59.5 -154.2l31.3 -107.1l20.4 -34.2l3.9 0.5l10.5 1.4l4.4 -4.3l0.1 -0.3l29.3 -88.7l25 -98.2l15.3 -72.9l12.7 -104.8l-8 -0l-2.2 -0l-25.3 -0l-3.6 -0l-8.1 0l-44.5 0.1l-117.8 0.2l-98.1 0.5l-44.3 -0.3l-107.4 -0.8l-17.2 -0.3l-28.5 -0.2l-153.6 -1.2l54.4 137.3l-28.5 66l51.2 76.2l-36.5 65.7l-74.5 53.8l-36.7 67.3l-189.1 10.1l-352 21.7l15.6 84.6l67.6 108.5l33.1 34l34.4 59.3l-10 42l-59.6 56.6l77.9 100.3l3.1 56.7l-69.5 12.3l-21.4 48.3l-81.8 -13.5l-11.6 51.6l-36.5 29.4l-38.1 -22.6l-11 17.9z" />
  </g>
  <g data-id="510">
    <path d="m6254.8 1026.1l0 0l0.3 26.6l0 24.5l0 195.1l0.3 27.7l27.4 15.1l32.1 18.2l55.8 31.9l35.3 19.2l57.7 33.5l15.6 8.7l50.8 61.9l15.3 17.3l4.7 1.6l6.7 3l61.3 24.4l35.7 -28.3l-0.1 -18.2l-46 -10.6l-1.5 -0.3l-20.5 -22.1l-0.1 -0.1l11.7 -25.4l-43.3 -45l-1.8 -3.6l-16.1 -32.6l-0.1 -0.2l20 -9.2l0.3 -0.2l13.7 6.2l58.6 26.6l0.1 0l21.1 34.2l14.5 0.5l-0 -162.2l-0.6 -38.8l0 -131.6l-0 -2.8l-0 -45.2l-32.6 -0.4l-58 0.2l-27.5 0l-99.1 0.3l-191.8 0.2z" />
  </g>
</svg>
