<?xml version="1.0" encoding="UTF-8"?><!DOCTYPE svg PUBLIC '-//W3C//DTD SVG 1.1//EN' 'http://www.w3.org/Graphics/SVG/1.1/DTD/svg11.dtd'><svg viewBox="0 0 1000 523.818" xmlns="http://www.w3.org/2000/svg"><path data-id="24001" d="m94.6 71.3l-0.2 1.4l2.7 1l0.5 -1.6l0.1 -1l1.7 -1l2.1 2l0.3 1l0.4 1.6l1.3 0.8l1.7 -0.6l2.4 1.7l3 1.8l4.1 1.8l2 1.6l0.6 1l2.1 -0.1l1.1 -6.9l1.5 -0.7l1 -1.1l0.7 -1.2l-0.8 -1.6l0.9 -1.2l1.2 -0.7l1.5 -0.2l2 0.3l2.2 -3.2l3 -4.5l0.9 -2l1.2 -1.1l1.6 0.4l1 -0.4l1.3 -2.6l3.8 -6l0.2 -2.3l2.5 -1.9l2.2 0.3l2 1.4l1 -0.3l0.7 -1.8l-0.4 -1.1l-1.1 -1.4l-1.4 -0.3l0.1 -3.4l1.6 -0.4l1.5 -2.1l0.6 -3l1.7 0.4l1.3 0l0.1 -1.1l-0.1 -1l-1.3 -3.9l1.3 -2.9l1.1 -0.3l3.5 -2.2l2.1 -0.8l0.1 1.3l-0.6 1.4l-1 0.7l-1.3 3.7l2 1.5l1.4 0.2l1.5 -1.2l1.8 -1l1.3 0.3l1.5 1l0.6 1.8l-1.2 1.7l-1.8 1.2l-1 -1.2l-2 0l-1.7 0.4l-2 1.4l0.6 2l1.4 1.6l0.2 1.2l1.6 1.6l3.1 0.7l1.4 -1.7l1.4 -0.3l0.5 3.3l1.3 2.3l0.3 1.1l2.3 0.4l1.4 1.7l3.2 1.1l0.7 1.6l2.1 1.1l1.5 1l1.6 0.1l1.1 1l1.5 0.5l6 -0.6l1.7 -0.7l1.9 0.6l1.7 0.7l1.4 0.5l1.1 -0.6l0.8 1.1l1 1.1l1.9 0.4l1.4 1.3l1.1 0.7l2.4 -0.4l1 0l1.4 0.1l4.2 -1.1l1.5 0l1.7 0.7l2.3 1.1l3 0.2l1.3 -0.5l2.3 1l1.3 -0.2l1.3 -1.2l0.4 -1.5l0 -1l-0.2 -1.1l2.5 -1.1l0.2 -1.3l1 -0.7l1.6 1.3l0.8 -1.6l0.2 -1.4l1.6 0.7l1.4 0l0.2 -1.5l-0.7 -1.3l-3.3 -2.1l-2.7 -2.2l-0.9 -1l-0.9 -1.8l0.1 -1.4l0.8 -1.1l2 -0.7l4 1.3l1.2 0.8l1 0.9l2.4 0.7l1.6 -0.5l1.3 -1.2l-0.5 -1.7l-1.2 -1l-2.3 -1.4l-1.8 -1.4l-1.1 -1.3l-1.3 -2l-0.4 -1.1l0.8 -1.5l1 -0.4l1.2 0.2l1.7 0.9l3.8 1.5l1.1 1.2l1.6 0.9l1.2 0.2l1.1 -0.4l-1.3 -2.5l-0.9 -1.2l0.1 -1.7l2.1 -0.6l1.2 0.4l1.2 0.8l1.5 -0.1l0.5 -1.2l-1.1 -1.4l0.1 -1.2l1.4 -0.3l4.1 1.2l-1.5 -4.8l-5.2 -2l6.6 -0.8l-2.1 -3.9l5.1 -0.1l1.7 -4.8l-6.6 -8.8l-8.5 0l-13.1 0l-5.1 -0.1l-17.2 0.1l-2 -0.1l-6.6 0.1l-7.7 0l-10.8 0l-14.7 -0.1l-19.1 0l-27.1 0l-15.8 36l-15.5 35.2z"/><path data-id="24003" d="m596.4 180.8l2.9 3l-1.2 4.9l-1.1 1.2l1.4 0.8l6.2 1.9l3 4.9l3.2 0.1l5.7 3.1l1.5 5.1l10.4 9.7l1.8 17.1l4.6 5.2l-1.4 3.4l0.9 2.5l-4.4 7.8l-1.1 10.7l-3.2 2l1.9 8l-2.7 2.8l3.4 7.2l2.9 1.4l9.8 -6l4.5 0.6l0.1 11.7l8.9 1.5l10.7 -0.1l1.4 2.3l0.6 -3.1l-0.7 -1.2l-3.3 0.2l-1.9 -2.2l-1.1 -2.7l-0.5 -6.6l5.5 -3.1l1.9 -2.6l-0.1 -1.4l3.9 -2.7l2.5 -4.7l2 -6.1l0 -1.2l-1.5 -3l-2.9 1.4l-1.6 -0.8l-0.7 -3.5l1.9 -1.8l4.6 -4.5l0 -2.9l-0.6 -1.5l0 -1.1l0 -1.9l4.1 -1.3l1.4 0.9l0 1.1l2.2 0.2l0.3 -2.1l-0.9 -2.8l2.6 -5l-1.7 -2.1l-1.2 -0.1l-1.8 -2.3l-0.8 -3.1l0.2 -1.5l1.7 -0.2l2.7 -0.3l1 -0.9l0.3 -1.5l4.9 -1.5l1.2 -0.3l6.3 -6.5l-0.8 -3.3l-1.6 -3.1l-7.6 -5.7l1.5 -2.5l2.1 -3.6l0.3 -2.1l-0.3 -1.5l-2.1 -7.8l0.1 -3.9l0.9 -1.5l-2.6 -1.6l-2.9 -1.8l-4.2 -3.3l-1 -1.9l-1.8 -0.9l-3.7 0.9l-1.8 -2.4l-2.5 -1.6l-1.5 -0.9l-1.9 -3.7l0 -4.7l-3.6 2.8l-6.1 -2.4l-1.2 -0.5l-1.5 -1.7l-5.1 -6.2l-1.6 -0.9l-2.9 3.9l-2.2 -0.5l-2.1 -1.1l-10.4 3.5l-0.1 1l-3.4 3.5l-1.8 3.6l-0.4 1.9l-5.5 1l-7.9 9.9l-1.2 4.9l-5.9 1.8l-3 3.6l-3.1 2z"/><path data-id="24005" d="m585.8 82.6l-1.9 3.2l3.2 3.5l-0.6 6.1l2.4 2.2l-4 1.9l0.5 3.4l3.5 3.9l-2 2l1.8 5.4l9 5.9l2.6 -2.1l6.4 1.3l3.6 5.6l-3.6 8.3l6.9 4.5l5.4 5.5l3.8 1.4l1.3 0.5l3.6 3.6l1 -1.2l10.4 -3.5l2.1 1.1l2.2 0.5l2.9 -3.9l-5.8 -3.4l-3.5 -1.9l-5.6 -3.2l-3.2 -1.8l-2.7 -1.5l0 -2.8l0 -19.5l0 -2.5l0 -2.7l19.2 0l9.9 0l2.8 0l5.8 0l3.3 0l0 4.5l0 13.5l0.1 3.9l0 16.2l1.9 0.1l1.9 3.7l2.1 -1l1 2.3l0.6 1.5l-1.1 2.9l0.6 1.3l2.1 0.8l2 -0.8l3.7 -0.2l3.5 2.3l1.2 0.7l3.9 -3l1.7 -4.1l4.3 -3l6.1 -2.3l4.8 -3.2l1.4 -2.5l-2.9 -1l-6.3 -4.3l0.6 -2.5l0.3 -4.2l3.2 -3.6l5.7 1.4l2.5 -2.6l-4.9 -4.7l0.5 -2.3l0.2 -1.1l2.7 0.2l-1.8 -4.8l0.3 -4.5l-3.9 -2.1l0.2 -2.5l-0.5 -1.4l-2.7 -3l-0.3 -4.8l-3 -11.2l-7.7 -5.5l-2.8 -2.9l-0.9 -4l-13 -7.2l-3.6 0.6l-4.9 -5.7l-3.5 -12.9l-2.6 -2.8l-1.3 -4.9l-0.3 -14.1l-0.6 -17.2l-9.1 0l-19.8 0l-3.2 0l-16.9 0.1l-3.9 13.2l-6.1 21.6l-8 29.6l-0.6 5.4l-5.4 7.3l1.3 4.9z"/><path data-id="24009" d="m627.8 293.8l1.4 2.9l-0.6 4.2l2.3 1.9l-0.7 2.2l-2.4 1.5l3.9 1.8l-0.1 1.6l-1.7 2.3l-0.3 3.5l3.2 2.6l1.4 2.8l-0.1 5.3l-1.8 5.4l1.9 8l-0.7 4.9l2.9 3l-2.6 7.4l5 7.4l-0.5 2.5l6.8 6.2l3.6 5.5l2.4 0.3l7.6 5l2.4 3.2l4.4 -0.8l7.3 7.3l4.1 8.6l-1 4.6l3.8 0.7l0.6 -1.4l2.5 1.5l1.2 0.7l4 -0.9l3.3 0.4l3.2 -5.2l4 -5.8l0.2 -6l-0.5 -1.7l-1.1 -0.5l-2.1 -1.9l-2.9 -5.4l-4.7 -5.4l-3.3 -2.6l-0.8 -1.2l-0.3 -1.4l-8.3 -9.1l-3 -6.3l-2.2 -7l-0.4 -2.9l0.5 -4.8l-0.3 -9.9l1.1 -7.4l-1 -3.9l-2 -4.8l-1.8 -9.4l0 -6.1l0.7 -4l-1.4 -2.3l-10.7 0.1l-8.9 -1.5l-0.1 -11.7l-4.5 -0.6l-9.8 6l0.3 1.3l0.2 1.6l-2.2 0.7l-0.5 1.2l0.4 1.3l-1.3 3.3z"/><path data-id="24011" d="m782.3 289.2l1.7 2.2l3.2 3.8l0 3.2l3.7 -0.3l1.2 3.8l6 3l1.7 -0.9l7.4 -3l1.8 -3.9l1.8 1.7l4.2 0.4l1.4 -1.1l5.9 -1.7l8.5 2.3l0.4 5.7l8 -2.8l12.5 14.7l-1.2 -20.3l-1.1 -17.3l-0.6 -10.5l-0.4 -5.9l-0.1 -2.2l-0.1 -1l-0.3 -3.9l-0.3 -6.2l-0.6 -7.8l-3.2 -51.9l-0.4 -5.9l-0.4 -5.9l-0.1 -1.6l-0.3 -6.6l-9.7 3l-9.9 7.1l-3 6.6l-0.1 4.1l-4.7 4.2l-4.8 11.3l-6.5 5.3l-4.8 6.9l0.6 4.5l-3.3 6.4l0.8 5.9l-0.1 9.7l6 8.7l-1.1 4.6l7.1 7.6l-3.1 1.7l-5.1 3l-3.8 5.1l-3.8 -0.4l-7.4 8l1.1 2.9l-4.6 3.8z"/><path data-id="24013" d="m490.3 24.4l2.4 4.3l-1.5 1.8l4.4 4.3l3.6 -0.5l1.8 3.3l1.6 -2.6l7.8 8l5.4 0.3l6.4 6.2l-0.3 5.7l4.1 0.7l9.5 10.2l0.7 1.5l-2.5 4l0.4 5.3l-7 12.1l-2.5 13.3l-2.2 5.7l3.7 1.6l11.4 -6l8.2 2.2l8.9 3.3l12.5 -3.9l9.1 2.9l10.6 1.1l2 -2l-3.5 -3.9l-0.5 -3.4l4 -1.9l-2.4 -2.2l0.6 -6.1l-3.2 -3.5l1.9 -3.2l-1.3 -4.9l5.4 -7.3l0.6 -5.4l8 -29.6l6.1 -21.6l3.9 -13.2l-4.3 0.1l-16.8 0.1l-2 0l-1.7 0l-8.8 -0.1l-12.2 0.3l-1.9 0l-10.8 0l-2.5 -0.1l-35.8 0l-2.1 4.1l2.5 2.1l-6.1 1.1l1.8 5l-6.3 3.8l-3 5.3l-0.1 4.2l-3.5 0.6l-4.4 -2.7z"/><path data-id="24015" d="m733.2 0.4l4.6 10.3l8.8 7.7l5.9 11.9l9.3 11.4l2.6 3.7l1.9 2.6l2.3 4.7l2.7 -1l3.8 -0.3l3.7 -0.3l5.4 -0.5l1.4 -2.7l1.7 -1l2.7 0.9l2.3 0.7l0.7 2.2l0.1 3.3l-2.1 2.5l-2.3 5.7l-1.8 6.3l-0.5 3.5l-1.4 2l-2.1 4.8l0.6 1.1l1.6 -0.3l1 -2l1.8 -0.4l3 3.2l-1.3 3.6l-3.3 1.5l-2.1 4.6l-2.2 1.8l-4.2 1.9l-1.3 2.3l0.2 1.8l1 0.6l7.4 0.3l0 2.5l4.5 2.6l4.2 -2.1l4.9 2l3.5 -0.9l0.9 1.1l6 0.4l2.3 1.5l4.1 -2l2.7 0.9l2.9 -1.9l2.5 -0.9l1.7 -2.1l1.1 -0.3l2 0.7l0.8 1.3l8.8 -0.7l-0.7 -11.2l-1.2 -18.9l-1 -15.7l-0.3 -4.6l-1 -17.7l-0.2 -3.1l-0.2 -2.7l-0.1 -2l-0.1 -3.1l-0.1 -3l0 -3.8l0 -2.8l0.1 -5.6l0 -6.4l-2.5 0l-2.4 0l-42.5 0.1l-3.2 -0.1l-3.3 0l-21.7 0.1l-2.6 0l-22 0.1z"/><path data-id="24017" d="m501.1 351.6l-2.4 8.8l3.2 13.2l0 2.3l-1 3.9l3.2 9.1l7.5 5.6l2.1 0.9l4.6 -1.7l11.3 -7.5l2 -2.6l0.4 -1.2l0.6 -1.7l2.9 0.4l4.4 0.5l1.1 -2.1l2.5 -2.9l7.1 -5.3l6.2 -0.8l3.4 6.8l0.7 3.6l2.3 4.1l1.1 9.2l1.8 4.5l4.9 4l2.7 1.1l2.8 2.4l1.1 1.5l0.5 1.3l0.3 5.7l2.8 0.9l4.9 3.3l4.6 2.1l4.4 3.9l1.1 0.5l1 -2l0.6 -3.2l-1.2 -4.8l-1.4 -3.2l-1.6 -4l-1.1 -3l-2.5 -2l1.4 -3.5l1.1 -2.6l0.7 -1.6l1.9 0.9l-0.5 -3l-5.5 -4.3l0.5 -2.3l4.8 -2.7l6.6 -10.3l10.4 -21.6l13.8 -0.4l1.1 1.1l0.8 1.2l1.2 1.2l3.3 1l2.6 -1.3l2.6 -7.4l-2.9 -3l-5.6 -1.9l-1.1 -0.1l-8 -4.5l-0.5 -10.2l-1.4 -7l-2 -0.4l-23.7 -11.2l-11.4 1.7l-11.8 -2.4l-7.4 1.9l-5.1 2.4l-6 8.7l-6.6 -21.3l-2.1 -4.6l-1.2 0.8l-1.6 1.4l-1.5 0.5l-3.6 3.2l-2.4 3.5l-0.4 4l-0.3 2.9l0.9 1.6l0.4 2.7l4.4 0.2l1.1 0l-1 2.1l-3.2 2l-1 1.6l-4.4 2.5l-4.7 -0.4l-3.2 1.8l-5.9 9.2l-2.5 3.9l-1.2 0.3l-2.5 0.7l-1.9 3.7l-2 3.9l-2 3.8z"/><g data-id="24019"><path d="m764.2 462.8l1.1 3.1l1.1 -0.6l1 -0.9l4.5 -2l2.8 1.8l3.8 -7.8l-0.6 -3l0.3 -3.2l2.5 -0.8l-0.1 -1.7l-6 -7.4l-4.3 0.1l-4.7 3.1l-0.8 11.8l0.7 3l-0.3 2.6l-1.1 1.9z"/><path d="m710 357.4l1 4.9l2.5 4.4l4.4 5.8l4.2 7.6l0.6 3l-0.4 2.9l2.7 5.3l4.5 3.5l-3.5 6.1l1.8 4.6l6.2 1.5l1.2 1.8l1.6 2.3l3.6 5.1l2.5 4l1.8 3.8l3.8 5.2l3.3 2.2l3.5 0.9l2.2 -2l5.9 -4.2l1.1 0.1l4.5 0.3l1.2 3.9l2.6 3.3l5.8 3l-0.8 -4l-1.9 -3.2l0 -2.2l1.2 -1.6l2.6 -7.2l-0.7 -2.3l-4.4 -4.6l0.1 -1.6l0.9 -2.5l0.9 -1.1l1.7 -0.3l3.9 -2.6l1.5 -6l-0.4 -1.1l0.1 -1l1.1 -2.8l1.1 -1.2l6.4 2.5l2.7 7l0 2.5l-0.5 2.4l-1.1 1.2l-2.7 1.4l-6.2 0.8l-2 0.9l2.2 1.3l3.8 6.1l0.6 1l0.8 4l2.7 3.3l0.8 2.2l-0.8 3.6l5.8 -1.6l1.3 -2.3l-1.9 -0.5l-1.3 -1.2l-0.1 -3.2l3.7 -2.3l-0.5 -7.5l3.1 -6.6l2.9 -5.1l5.6 -3.6l5.9 -2.2l0.2 2.1l0.4 -9l5.1 -1.1l-2.9 -3.7l1.3 -6.2l5.8 -4l-3.7 -2.8l4.8 -6l-1.4 -5l1.3 -1.5l1.7 -0.3l3 -0.7l8.5 -6l1 -4.7l1.7 -2.3l4.6 -1l5.1 -5.6l-0.4 -7l-0.1 -2l-0.4 -6.5l-0.1 -1.9l-0.1 -1.4l-0.2 -2.6l-12.5 -14.7l-8 2.8l-0.4 -5.7l-8.5 -2.3l-5.9 1.7l-1.4 1.1l-4.2 -0.4l-1.8 -1.7l-1.8 3.9l-7.4 3l-1.7 0.9l-2.1 2.4l-0.8 5.1l-5.8 6.6l0.6 4.3l-2.3 5.1l-8.6 5.8l0.6 1.6l-3.3 2.7l-3.6 -3.1l-4.9 -4.3l-2.4 -2.1l-5 1.8l-3.6 -2.1l-2.7 -3l-2.8 2l-3.3 -1.1l0.1 -3.3l-1 -5.5l-1.1 0.1l-3.6 2.2l-2.6 2.3l-2.2 1.9l-4.2 -2.1l-1.2 -4.2l-2.2 0.7l-4 3.2l-1.7 -0.2l-1.7 1.8l1.6 2.2l0.9 1.2l-1.1 1.8l-3.9 2.5l-3.2 2.1l-0.7 1l4.1 0.8l1.5 2.3l0.8 1.2l0.8 2.4l-0.3 2l-0.8 1.6l0.7 1.1l5.5 -2l1.1 0.1l1 0.6l-0.4 2.4l-0.2 1.4l-2.9 5l-4.8 1.2l-1.7 -0.5l-6.4 1.6l-2.1 -0.6l-2.1 2.3z"/></g><path data-id="24021" d="m407.9 116.5l1.3 0.7l1.2 1.4l3.4 1.8l2.4 0.7l5.4 1.6l2.3 -0.3l1.6 0.5l1.4 0.2l1 -0.2l2.2 -1l1.9 -0.3l1 0.2l0.9 1.1l-0.2 2.2l0.4 2.4l1.7 2l0.5 1l1.2 1.3l0.6 1.3l2 1.4l2.7 1l3.1 1.9l2.7 0.5l2.2 1l1.4 1.7l2.2 2.1l2.5 1.8l0.5 1.8l38.8 -22.5l5.2 -3.2l21.1 -12.6l2.4 -5.8l2.5 -13.3l7 -12.1l-0.4 -5.3l2.5 -4l-0.7 -1.5l-9.5 -10.2l-4.1 -0.7l0.3 -5.7l-6.4 -6.2l-5.4 -0.3l-7.8 -8l-1.6 2.6l-1.8 -3.3l-3.6 0.5l-4.4 -4.3l1.5 -1.8l-2.4 -4.3l4.4 2.7l3.5 -0.6l0.1 -4.2l3 -5.3l6.3 -3.8l-1.8 -5l6.1 -1.1l-2.5 -2.1l2.1 -4.1l-5.2 0l-49.5 0l-2.2 0l-4.8 7.1l-4.1 3.4l3.5 2.2l-6.1 10.5l-2.8 2.8l-8.4 3.3l-3.7 14.2l-1.6 2.2l-0.8 6.8l-3.3 3.2l-2.4 8.8l1.9 2.4l-1.7 2.9l1.3 3.7l-4 6.5l-1.5 12.9l-3.6 10l-4 7.4l-0.7 5.5z"/><path data-id="24023" d="m0.2 124.6l-0.2 4.8l0.1 4.3l0.1 17.2l2.4 0.6l1.6 -1l3.7 -1.3l2.9 -1.6l3.5 -3.2l-0.1 -1.6l1.1 -1.5l1.9 -0.5l5.6 -7.3l2.4 -2.2l3.3 -0.5l1.7 -0.9l2.2 -2.3l-0.4 -1.1l0.3 -1.1l2.7 -1.9l4 -1.3l2.8 1.4l2.2 0.2l2.1 -3.2l0.4 -3.9l2.2 -1.7l3.9 -2l0.3 -5.3l4.1 -1.4l1.5 -1.4l2 0.1l1.4 -0.6l2.5 -3.7l1.1 -2.4l1 -0.6l3.2 -0.1l0.5 -1.1l1.4 0l1.1 -1.5l-0.2 -1.1l1.2 -3.2l1 -0.3l1.3 1.2l1 0.3l1.2 -0.8l0.2 -1.1l1.2 -1l1 -0.2l0.7 -1.5l-0.1 -1l1.2 -1.9l1.1 0l0.6 -1.5l0.5 -1.5l1.4 -0.7l2.8 -4.9l-0.7 -1.7l0 -1l1.5 -0.1l1.8 0.3l3.3 -0.9l0.2 -1.4l15.5 -35.2l15.8 -36l-26.4 0l-2.5 0l-75.7 0.4l-19 0.1l0 22.5l-0.3 4.3l-0.2 28.7l-0.8 2l-0.1 1l-0.4 51.6l-0.6 14z"/><path data-id="24025" d="m657.4 0.5l0.6 17.2l0.3 14.1l1.3 4.9l2.6 2.8l3.5 12.9l4.9 5.7l3.6 -0.6l13 7.2l0.9 4l2.8 2.9l7.7 5.5l3 11.2l0.3 4.8l2.7 3l0.5 1.4l0.2 -1.2l1.5 0.4l4.8 1.4l2.8 -0.4l2.8 2.3l-0.4 5l-3.3 1.8l5.7 2.4l-0.7 6.1l2.1 3.5l-1.6 4.7l3.3 0.4l1.3 -6.8l4.4 -4.6l-2.3 -5l-4.2 -3.4l3.8 -6.1l-0.1 -4.2l3.2 -2.6l1 -5.6l-0.2 -5.4l4.6 -2l1.4 9l-3.8 6.3l-2 7.2l2.4 5.2l3.5 2.5l5.9 -4.3l1.6 -2.4l2.4 -0.5l1.9 -4.3l2.9 -4.1l2.8 0.3l5.5 -4.6l1.1 -1.9l3.3 -2.3l4.3 -0.8l5 -2.7l0 -1.3l-2.5 -6.7l-2.5 -0.8l-3.4 0.5l-1.4 -0.8l-2.1 -2.3l-0.7 -2.7l4.8 -11.9l4.6 -1.8l-2.3 -4.7l-1.9 -2.6l-2.6 -3.7l-9.3 -11.4l-5.9 -11.9l-8.8 -7.7l-4.6 -10.3l-1.4 0l-31.7 0l-3.5 0l-2 0l-3.2 0l-5.3 0l-11.2 0l-5.7 0l-11.8 0z"/><path data-id="24027" d="m518.3 111.7l3.8 8l6.8 6.1l1.3 4.4l0.9 2.5l6.1 0.7l7.5 3.4l1.9 3.7l3.8 1l2.8 5l5.2 4l0.2 7.3l2.6 4.4l5.2 1.2l-0.4 3.7l5.3 1l-1.5 3.5l6.6 -1.3l2.6 2.4l0.6 1l6 -1.2l4.1 5.3l6.7 2.8l3.1 -2l3 -3.6l5.9 -1.8l1.2 -4.9l7.9 -9.9l5.5 -1l0.4 -1.9l1.8 -3.6l3.3 -2.9l-4.4 -4l-1.3 -0.5l-3.8 -1.4l-5.6 -4.9l-6.7 -5.1l3.6 -8.3l-3.6 -5.6l-6.4 -1.3l-2.6 2.1l-9 -5.9l-1.8 -5.4l-10.6 -1.1l-9.1 -2.9l-12.5 3.9l-8.9 -3.3l-8.2 -2.2l-11.4 6l-3.7 -1.6l-4.3 3.9z"/><path data-id="24029" d="m723.9 162.7l-0.9 5.7l4 0.7l1.8 2.8l4.4 12.3l0.4 2.5l0.1 6.3l-1.3 4.5l-0.9 1.7l-0.4 3.2l2.5 3l5.1 2.5l1.9 -1.3l-1.8 -3l-0.9 -4.7l0.2 -2l0.2 -2.5l0.2 -2.2l1.5 -6.2l4.4 -3.1l3.7 0.4l2.1 0.2l9.2 -3.8l5.2 -5.7l4.9 -3.3l-2.1 -2.7l7.7 -4.4l1.7 -2.1l-1.5 -3.1l-4 -1.1l-1 -2.2l2.8 -5.2l6.6 -4.8l1.5 -0.2l2.5 -3.7l4.9 0.2l0.4 -1.4l1 -0.3l1 0.2l1 -0.4l1.4 0.2l0.9 1l1.4 0.4l1 -0.6l1.6 1.1l4.7 -1.4l1.4 0.3l1.1 -0.3l3.3 -0.7l0.8 -1l0.4 -1l1 0.3l0.4 1l1 -0.3l1.1 0.3l2.1 -2.8l6.3 0.5l7.5 4.6l11.3 -1.2l-0.9 -14.7l-1.5 -23.5l-8.8 0.7l-0.8 -1.3l-2 -0.7l-1.1 0.3l-1.7 2.1l-2.5 0.9l-2.9 1.9l-2.7 -0.9l-4.1 2l-2.3 -1.5l-6 -0.4l-0.9 -1.1l-3.5 0.9l-4.9 -2l-4.2 2.1l-4.5 -2.6l0 2.6l-4.6 1.6l-2.2 -1.6l-3.8 -0.9l-13.7 -0.5l-1.3 3.3l-4.2 2.9l-0.5 1.9l0.8 1.1l-2.8 1.8l-3.2 -0.4l-2.4 1.1l-3.4 3.7l-0.2 1.1l1.7 1.6l0.5 1.1l-0.2 2.3l-0.9 2l-0.9 1.9l-3.9 4.5l-1.9 0l-1.8 2.3l-2.9 8.3l-4.3 9.9l-1.1 2.2l-2.4 3.2l-1.8 4.4z"/><path data-id="24031" d="m441.7 168.3l0.1 2.6l0.5 2.8l0.8 1.5l1.2 1.2l3.5 1.3l1.1 0.3l2.1 1.1l1 1.1l1 1.5l1 2.3l0.7 1.8l1.6 2.9l1 0.7l1.2 0.4l3.5 0.5l3.2 1.1l1.7 0.1l2.4 0.6l1.2 0l3 0.8l1.3 -0.2l1.1 0.4l1.7 0.1l1.8 -0.3l2.1 0l2.3 -0.2l1.1 0.4l1.6 1.1l3 1.6l3.1 0.8l1.8 0.9l4.1 3.6l2 0.6l2.4 0.6l1.6 0.9l0.8 2l-0.5 1.5l-1.1 1l-0.9 2.6l0.6 1.9l1.1 1l-0.3 1.9l3.4 2.8l0.8 -1l1.6 1.9l3.1 1.2l1.8 0.1l1.3 0.6l2.1 -0.2l1.2 -0.4l2.5 0.4l1.1 -0.2l3.6 0.6l1.1 0.4l2 2.6l1.3 2.3l1 2.1l1.8 1.6l3.4 -3.5l3 -2.9l1.3 -1.3l3.2 -3.1l3.9 -3.9l2.7 -2.7l1.4 0.8l4.7 4.6l1.6 1.6l1.3 1.3l2.7 -2.9l-0.1 -4.9l3.7 -6.5l0.6 -1.1l4.5 -7.8l7.7 -13.3l2.3 -7.7l4.2 -3.8l-6 1.2l-0.6 -1l-2.6 -2.4l-6.6 1.3l1.5 -3.5l-5.3 -1l0.4 -3.7l-5.2 -1.2l-2.6 -4.4l-0.2 -7.3l-5.2 -4l-2.8 -5l-3.8 -1l-1.9 -3.7l-7.5 -3.4l-6.1 -0.7l-0.9 -2.5l-1.3 -4.4l-6.8 -6.1l-3.8 -8l4.1 -3.8l-21.1 12.6l-4.8 2.9l-38.5 22.9l-1.1 0.9l-2.3 2l-0.8 1l-0.5 1.9l0.2 2.1l-0.5 1.3l-2 1.4l-4.3 1.1l-1.2 1l-1.3 2.2l-1.1 2.9l-0.8 3.7z"/><path data-id="24033" d="m542.5 294.8l-1.5 1l2.1 4.6l6.6 21.3l6 -8.7l5.1 -2.4l7.4 -1.9l11.8 2.4l11.4 -1.7l23.7 11.2l2 0.4l1.4 7l0.5 10.2l8 4.5l1.1 0.1l5.6 1.9l0.7 -4.9l-1.9 -8l1.8 -5.4l0.1 -5.3l-1.4 -2.8l-3.2 -2.6l0.3 -3.5l1.7 -2.3l0.1 -1.6l-3.9 -1.8l2.4 -1.5l0.7 -2.2l-2.3 -1.9l0.6 -4.2l-1.6 -2.4l0.7 -1.3l1.3 -2.6l-0.4 -2l0.2 -1l1.8 -0.2l0.5 -2.3l-0.3 -1.3l-2.9 -1.4l-3.4 -7.2l2.7 -2.8l-1.9 -8l3.2 -2l1.1 -10.7l4.4 -7.8l-0.9 -2.5l1.4 -3.4l-4.6 -5.2l-1.8 -17.1l-10.4 -9.7l-1.5 -5.1l-5.7 -3.1l-3.2 -0.1l-3 -4.9l-6.2 -1.9l-1.4 -0.8l1.1 -1.2l1.2 -4.9l-2.9 -3l-6.7 -2.8l-4.1 -5.3l-4.2 3.8l-2.3 7.7l-7.7 13.3l-4.5 7.8l-0.6 1.1l-3.7 6.5l0.1 4.9l-2.7 2.9l2.4 2.4l11.3 11.2l1.5 1.5l1.7 1.7l4.1 4.2l-2.2 2.2l-6.8 6.9l-1.9 1.8l-4.9 5l-3 2.8l-1.6 1.8l-5.5 5.4l-3.3 3.3l-0.3 1.8l-0.2 3.5l0 1.4l-0.1 6.3l0 1.5l0.2 1l-0.1 3.9l-0.2 1.7l-0.7 1.2l-1.7 1.3l-2.7 0.1l-1.5 -0.3l-1.7 0.3z"/><path data-id="24035" d="m701 254l0.3 3.2l1.6 1l1.6 -4.6l2.4 -1.6l2.2 0.5l1.5 -1.3l0.7 -1.2l-1 -6.3l-0.7 -1.9l0.5 -3.9l2.7 -1.5l1.4 0l2.1 3.7l3.4 -1.2l-0.1 -2.2l-1.3 -2.4l0.8 -2.9l5.1 -3.8l1.8 3.4l0.1 1.7l0.6 1.3l1.3 0.3l1.5 -0.6l-0.2 -2.1l0.2 -3l3.5 -1l4.7 1.3l2.3 2.6l-0.3 10.3l1.1 2.8l-0.6 5.9l0.4 2.1l0.3 1.3l1.9 -3.9l2 1.6l2.8 -2l1.4 -4l3.1 -1l4 1l0.9 1l1.2 -1.8l4.3 -0.1l0.2 -2.3l-2.4 -4.2l0.4 -1.9l-0.7 -1.5l0.9 -1.3l0 -1.8l1 -1.9l0.5 -1.7l2.5 -1.5l32.4 7.6l-0.8 -5.9l3.3 -6.4l-0.6 -4.5l4.8 -6.9l6.5 -5.3l4.8 -11.3l4.7 -4.2l0.1 -4.1l3 -6.6l9.9 -7.1l9.7 -3l-0.4 -6.4l-0.4 -3.8l-1.1 -19.8l-11.3 1.2l-7.5 -4.6l-6.3 -0.5l-1.5 2.8l-1.2 -0.5l-1.3 0.6l-0.6 -1.1l-1 -0.3l-0.4 1l-4.1 1.7l-1.1 0.3l-1.4 -0.3l-3.8 1.6l-1.8 -1.2l-1.7 0.5l-1.4 -0.4l-0.9 -1l-1.4 -0.2l-1 0.4l-1 -0.2l-0.9 1.1l-5.4 0.4l-2.5 3.7l-1.5 0.2l-6.6 4.8l-2.8 5.2l1 2.2l4 1.1l1.5 3.1l-1.7 2.1l-7.7 4.4l2.1 2.7l-4.9 3.3l-5.2 5.7l-9.2 3.8l2.9 0.3l-1.2 3.9l-0.7 1.4l-1.2 2.6l-2.3 0.8l-1.4 1.2l-2 3.6l1.3 4.2l2.4 3.9l0.9 2.4l-0.1 3l-8.6 7.7l-3.7 0.7l-2.3 -2l-6.7 -1.7l-1.6 0.1l-2.6 0.2l-3.7 -6.2l-2 -6.3l0.4 -1.7l-0.2 -2.3l-2.2 1.3l-1.9 3.6l-0.7 4.1l0.2 2.7l-7 12.3l-1.8 5.2l-0.9 9.2l0.2 9.7l-2.6 6.8z"/><path data-id="24037" d="m589.3 387.1l-0.5 2.3l5.5 4.3l0.5 3l2.2 1.1l2.5 1.2l-3.3 3.1l2 1.9l1.7 5.4l1.5 4.4l3.6 4.4l-0.6 7.6l-1.5 0.6l3.3 4.4l4 2.3l6.2 2l1.8 -2.5l0.9 -1.3l4.6 0.5l1.6 0.1l5.7 -0.2l3.1 -0.1l6.7 2.7l2.6 -0.2l9.4 3.3l4.3 3.5l1.2 1l3 3.2l1.3 3.3l0.5 3l1.1 3.5l2.4 5.4l1.7 -1.5l1.7 -0.5l1.4 0.1l2 1l1.6 2.3l2.7 3.8l1.1 3.2l2.5 -0.3l-0.2 -1.6l-0.8 -1.2l0 -1l1 -2.4l1 -2.3l-2 -5.1l2.5 -0.8l4.5 -1.4l0.4 2.2l0.4 1.8l-1 2.2l2.3 3.7l-0.2 1.9l2.1 3.8l1.1 0.5l2.4 -0.7l3 1.2l4.6 6.7l2.4 5.7l1.9 1.8l2.6 -0.1l1.9 1.1l1.3 1.4l1.1 2.5l0.6 -1.9l-2.2 -8.1l-0.3 -7.9l-1.5 -3.3l-0.3 -2.5l4.2 -5.4l-2.2 -4.8l-5.4 -6.6l-1.9 -4l-5.3 -7.4l-3.2 -11.9l0.1 -2.2l1.1 -3.2l4.4 -5.2l-1.6 -2l-4.8 -2.4l-1.4 2l-3.4 1.1l-3.1 2.3l-3.4 -0.2l-2.5 -1.7l-2.7 -3.9l1.1 -3.2l-3.8 -0.7l1 -4.6l-4.1 -8.6l-7.3 -7.3l-4.4 0.8l-2.4 -3.2l-7.6 -5l-2.4 -0.3l-3.6 -5.5l-6.8 -6.2l0.5 -2.5l-5 -7.4l-2.6 1.3l-3.1 -0.6l-0.7 -1.3l-1 -0.8l-0.8 -1.2l-14.6 -0.2l-10.4 21.6l-6.6 10.3l-4.8 2.7z"/><g data-id="24039"><path d="m796.7 452.3l-1.9 7.1l2.3 5.4l1 1.4l1.5 0.9l0.3 -4.1l3 -1.8l3.7 -2.2l1.6 -0.9l4.4 1.2l2.8 0.8l2.1 -1.7l1.1 -0.6l1 -0.5l1.4 -0.1l3.6 3.2l-2.1 5.4l-1.2 0.4l-4.8 3.5l-1.7 3.4l-2.1 4.1l1.4 4.2l1.2 0.3l2.3 -0.3l-0.3 -1.6l3.6 -1.9l5.6 1.6l1.5 2.3l-2.9 3.6l-0.9 1l-1.6 1l-2.3 1.4l-2.2 -1.3l-2.7 1l-1.3 2.1l0 4.7l-1.7 2.6l-3.6 8.1l1.8 5.6l-0.4 4.2l-0.3 2.7l-1 1.6l1.3 2.4l1.7 1.5l5.5 -1.8l1.4 -0.9l1.2 -0.8l3.8 -2.5l0.6 -1.5l2.4 -2.3l2.6 -2.4l5.4 -5.1l1.6 0.2l4 0.4l2 0.5l2.8 1.5l2.3 -1.1l1.2 -1.2l2.1 -1.5l6.1 2.6l3.2 0.3l1.5 1.2l0 1.7l-1.1 1.6l1 0.3l2.2 1.2l1.8 -0.5l-0.1 -5.6l1.5 -2.7l0.8 -1l1 -1.2l0.7 -1.2l1.3 -0.8l0.1 -1l-3.4 -8.2l-3.7 -1.9l-1.1 -4.7l1.1 -1.8l3.8 2.3l3.6 -2.9l1.2 -5.2l8.2 1.3l2.1 -4.8l6.9 -1.2l-0.3 -5.7l-7.8 -10l6 -5.7l1 -4.2l-3.4 -5.9l-3.3 -3.4l-6.8 -10.9l-1.6 -8.5l-11.3 -5.8l-7.5 7.1l0 1l0.4 1l-5.9 0.1l-0.8 -2.7l-1 -1.4l-1.4 -0.6l-1.4 1.1l-1.3 -0.3l-0.5 -1.2l-0.2 1.1l-0.6 -1.1l-1.2 -0.3l-1.7 0l-1.6 3.7l-5.3 2l-0.6 1.8l-0.8 1.3l-8.2 0.4l-5.8 4.3l1.2 1.4l1.7 2l1.1 4.6l-4 2.8l-3.1 0.7l-1.5 -0.4l-0.4 -1l-12.6 4.7l-2.1 2.6l1 2.1l-0.8 2.5z"/><path d="m774.6 501.4l0 1.9l0.7 8.6l1.1 -0.1l2.6 0.1l1.7 0l3.7 0.1l2.7 0l1.1 -2l-1.3 -4.1l2.8 -4l0.5 -4.7l-1.4 -4.9l-3.7 -0.9l-1 -3.4l-2.8 -0.6l-4.9 1.9l-1 1.9l-0.5 3.1l0 1.7l-0.1 5.3z"/><path d="m772.4 471.2l5.1 5.5l3 1.6l2.6 -0.4l1.3 -1.4l-0.5 -5.2l-3 -3.6l0.2 -2.6l1.9 -1.5l-0.1 -2.7l-1.2 0.1l-1 -0.6l-2 -4.1l-3.8 7.8l1.1 0.8l0.6 1.2l-0.4 1.1l-1.2 0.4l-2.7 3.6z"/></g><g data-id="24041"><path d="m709 288.7l-1.7 12.7l1.7 4.3l4 -2.3l0.1 -2.9l-1.3 -4.1l0.5 -4l2.1 -3.5l3.8 0.7l0.1 2.3l5.5 1.9l1.1 -3.3l3.4 -3.4l3.8 0.2l0.4 3.2l-0.6 1.4l0.3 2l5.8 8.9l2.8 3.2l5.7 -0.7l4.4 4.4l1.9 6.1l4.4 0.5l2.8 3.4l6.8 -0.3l7.3 6.4l4.1 5.3l1.2 3.4l8.6 -5.8l2.3 -5.1l-0.6 -4.3l5.8 -6.6l0.8 -5.1l2.1 -2.4l-6 -3l-1.2 -3.8l-3.7 0.3l0 -3.2l-3.2 -3.8l-1.7 -2.2l4.6 -3.8l-1.1 -2.9l7.4 -8l3.8 0.4l3.8 -5.1l5.1 -3l3.1 -1.7l-7.1 -7.6l1.1 -4.6l-6 -8.7l0.1 -9.7l-32.4 -7.6l-1.9 0.9l-1 1.6l-0.5 1.7l-0.7 2l-0.3 1.4l-0.7 1.3l0.5 2.7l2.4 4.2l-0.2 2.3l-4.3 0.1l-1.2 1.8l-0.9 -1l-4 -1l-3.1 1l-1.4 4l-2.8 2l-2 -1.6l-1.9 3.9l0.4 2l1.5 4.1l-0.5 2.3l-0.9 1.8l-5 0.9l-6 -2.9l-1 -0.9l-3.5 -6.4l0.4 -1.2l-1.7 -0.1l-1.5 4.7l0.2 1.2l-2.5 1.2l-2.1 -0.3l-2.5 4.3l-0.3 4.8l-3.1 5.1l-2.4 1.8l-1.5 6.1l0.2 6.2z"/><path d="m696.2 277.1l1.6 3.9l2.1 3.8l4.1 -0.8l-1.7 -5.5l0.2 -3.1l-2.2 -3.5l-4 5.1z"/></g><path data-id="24043" d="m253.3 18.5l5.2 2l1.5 4.8l4.7 1.6l1.1 0.4l5.7 2.7l2.7 0.2l1 0.2l0.8 -2.2l0.3 -1.2l1.8 -2.8l1.7 -1.4l2 -2.1l2.3 -1.4l0.9 -1.2l-2.2 -2.7l0.4 -1.1l1 -0.5l4.6 0l1.3 -0.6l1 -1.2l1 -2.1l2.2 -1.7l1.4 -0.3l1.2 0.1l2.1 0.6l1.8 0.9l2.4 0l1.9 0.6l2.6 0.8l2.7 0.9l2.3 0.6l1 0.6l1.6 1.9l1.7 0.1l1.1 0.7l2 2.1l3.9 4l0.9 1.5l1.9 1.4l1.9 3.1l1.4 1.7l2.8 5.1l1 0.8l1 0.2l2.5 0.1l3.4 0.1l1.8 -1.9l1.4 -0.6l1.6 0.2l1 1l-0.1 4.2l1.1 1.6l1.6 -0.7l0.6 -2.2l0.2 -4.1l-2.1 -2l0.7 -1.1l1 -0.1l1 0.4l0.9 1.1l0.6 1.8l2.5 1.4l2.5 0.6l2.6 0.8l1.8 -0.1l0.7 -2.3l-1.3 -2.1l2.7 -0.3l1.4 0.9l2.5 1l1 0.2l2.4 0l1.1 0.3l1 0.9l0.9 3.4l0 1.1l-0.2 1.8l-0.6 3l-0.7 1.4l-1.3 0.6l-3.1 -0.1l-2.2 0.3l-1.6 -0.1l-1.3 0.1l-1.7 0.9l-0.7 1.3l0.6 1.2l3.4 2.2l1.4 1.7l0.2 1.1l-0.2 1.9l-0.2 1l0 2.1l1.4 1l2.4 -0.4l1.9 -1.2l0.1 -2.8l1.6 -1l1.4 0.6l0.8 1.4l-0.4 2.3l-0.9 1l-3.6 2.5l-0.6 1l2 1.7l3.1 0.8l4 1l3 -0.2l1.3 -1.3l1 -0.8l2.2 -0.4l1.9 1.1l-0.2 1.3l-1 0.6l-2.2 0.8l-3.1 1.5l-0.7 1.5l0.6 1.3l1.3 1l1.5 0.7l-0.2 1.1l-2.8 0l-0.5 1.1l0.6 1.1l1.5 1.3l0.1 1.3l-1.8 1.4l-0.5 1l1 1.1l1.7 1.1l2.9 0.4l2.6 -0.2l1 0.5l1.3 1l1.3 3.6l1.7 2.7l0.8 2.6l0 1.5l-1 0.6l-2 0.4l-1 1.3l2.2 4.2l0.1 1.5l-0.5 2l-1 1.1l-1.9 1.2l-0.3 2l1.6 1.5l4.5 2l1.6 1.4l1.5 0.1l2.6 -0.1l2.3 0.9l1 0.1l1.3 -0.4l1.2 -1.1l1 -0.1l0.7 -5.5l4 -7.4l3.6 -10l1.5 -12.9l4 -6.5l-1.3 -3.7l1.7 -2.9l-1.9 -2.4l2.4 -8.8l3.3 -3.2l0.8 -6.8l1.6 -2.2l3.7 -14.2l8.4 -3.3l2.8 -2.8l6.1 -10.5l-3.5 -2.2l4.1 -3.4l4.8 -7.1l-14.5 0l-30.6 -0.2l-1.1 0l-11.2 0l-1.9 -0.1l-2.4 0l-5.7 0l-4.7 0l-19.2 -0.2l-44.8 0l-5.7 0l-23.4 0l-8.5 0l-6.4 0l-13.9 0l-1.4 0.1l-1.2 0l6.5 8.8l-1.7 4.8l-5.1 0.1l2.1 3.9l-6.6 0.8z"/><path data-id="24045" d="m804.4 423.2l1.4 1.5l0.6 1.7l0 1.5l1.9 4.2l1 1l1.1 0.2l1.1 -0.9l-0.8 -2.4l1.3 -1.5l2 0l1 0.3l1.3 1.5l5.8 -4.3l8.2 -0.4l0.8 -1.3l0.6 -1.8l5.3 -2l0.9 -3.5l1.5 -0.3l1.7 0.2l0.2 1l1 -0.8l0.5 1.2l1 0.4l1 -0.8l2.1 0.2l0.2 1.6l1.6 2.5l5.9 -0.1l-0.4 -1l0 -1l7.5 -7.1l11.3 5.8l35.2 -2.2l18.9 -1l3.7 -6.7l7.5 -5.4l3.6 -6.6l-5.1 -7.6l2.8 -6.6l-5.4 -13.7l-3.3 0l-3.4 0l-5.1 0l-3.9 -0.1l-3.1 -0.1l-11.8 -0.3l-5.1 -0.1l-4.7 -0.1l-2.8 -0.1l-5.7 -0.2l-3.4 -0.1l-2.1 -0.1l-1.3 0l-2 -0.1l-7.3 -0.3l-3.9 -0.1l-3.4 -0.1l-6.9 -0.4l-0.6 -9.3l-0.1 -1.2l-0.5 -7.4l-0.3 -5.9l-0.3 -5.2l-5.1 5.6l-4.6 1l-1.7 2.3l-1 4.7l-8.5 6l-3 0.7l-1.7 0.3l-1.3 1.5l1.4 5l-4.8 6l3.7 2.8l-5.8 4l-1.3 6.2l2.9 3.7l-5.1 1.1l-0.4 9l0.2 1.3l-2.2 4.4l-2.4 0.9l-2.4 5.7l-2.3 3.2l0.4 3.4l-1.4 3.9l-2.2 2.7z"/><path data-id="24047" d="m862.2 485.3l1.1 4.7l3.7 1.9l3.4 8.2l13.8 -1.5l25.8 -2.8l16 -1.7l21.3 -2.5l5.1 -0.6l1.4 -0.2l2.7 -0.2l5.9 -9.9l5 -9.8l3.7 -9.7l4 -14.9l3.7 -11.1l5.9 -15.4l3.1 -10.7l2 -3.4l1.5 0.2l3.3 -9.3l2.5 -9.8l1.5 -7.3l1.3 -10.5l-1 0l-2.5 0l-1.2 0l-4.4 0l-11.8 0l-9.8 0.1l-4.4 0l-10.7 -0.1l-1.7 0l-2.8 0l-15.4 -0.1l5.4 13.7l-2.8 6.6l5.1 7.6l-3.6 6.6l-7.5 5.4l-3.7 6.7l-18.9 1l-35.2 2.2l1.6 8.5l6.8 10.9l3.3 3.4l3.4 5.9l-1 4.2l-6 5.7l7.8 10l0.3 5.7l-6.9 1.2l-2.1 4.8l-8.2 -1.3l-1.2 5.2l-3.6 2.9l-3.8 -2.3l-1.1 1.8z"/><path data-id="24510" d="m625.5 102.6l0 2.7l0 2.5l0 19.5l0 2.8l2.7 1.5l3.2 1.8l5.6 3.2l3.5 1.9l5.8 3.4l1.6 0.9l5.1 6.2l1.5 1.7l1.2 0.5l6.1 2.4l3.6 -2.8l0 -1.8l-4.6 -1.1l-2.1 -2.2l1.2 -2.5l-4.3 -4.5l-1.8 -3.7l2 -0.9l1.4 0.6l5.9 2.7l2.1 3.4l1.4 0l0 -16.2l-0.1 -3.9l0 -13.2l0 -4.8l-3.3 0l-5.8 0l-2.8 0l-9.9 0l-19.2 0z"/></svg>
