<?xml version="1.0" encoding="UTF-8"?>
<!DOCTYPE svg PUBLIC '-//W3C//DTD SVG 1.1//EN' 'http://www.w3.org/Graphics/SVG/1.1/DTD/svg11.dtd'>
<svg viewBox="0 0 1000 523.818" xmlns="http://www.w3.org/2000/svg">
  <g data-id="001">
    <path d="m94.643 71.251l-0.241 1.438l2.713 1.022l0.485 -1.638l0.124 -1.012l1.713 -1.082l2.109 2.045l0.291 1.007l0.392 1.63l1.29 0.788l1.716 -0.567l2.353 1.737l2.962 1.776l4.083 1.833l1.962 1.561l0.599 1.028l2.14 -0.061l1.042 -6.895l1.516 -0.728l1.044 -1.115l0.698 -1.209l-0.844 -1.61l0.871 -1.202l1.158 -0.715l1.49 -0.24l1.995 0.334l2.123 -3.165l3.022 -4.493l0.926 -1.99l1.172 -1.075l1.557 0.402l2.279 -2.967l3.838 -5.983l0.165 -2.36l2.51 -1.899l2.199 0.312l2.004 1.385l1.045 -0.314l0.733 -1.762l-0.361 -1.061l-1.124 -1.443l-1.409 -0.306l0.079 -3.36l1.602 -0.45l1.506 -2.148l0.646 -3.025l1.702 0.366l1.337 -0.036l0.11 -1.104l-0.134 -1.022l-1.302 -3.885l1.307 -2.866l1.127 -0.293l3.537 -2.165l2.118 -0.819l0.112 1.316l-0.631 1.375l-1.014 0.702l-1.315 3.651l2.008 1.454l1.441 0.156l1.461 -1.192l1.844 -0.963l1.266 0.343l1.507 0.989l0.594 1.806l-1.238 1.707l-1.805 1.172l-1.003 -1.244l-2.024 -0.011l-1.716 0.374l-1.97 1.368l0.582 1.958l1.306 1.679l0.224 1.197l1.643 1.559l3.103 0.763l1.391 -1.786l1.412 -0.281l0.448 3.29l1.273 2.273l0.3 1.056l2.303 0.414l1.378 1.684l3.163 1.035l0.706 1.638l2.043 1.11l1.531 1.016l1.551 0.06l1.071 0.989l1.481 0.5l5.987 -0.596l1.759 -0.702l1.917 0.56l1.724 0.734l1.433 0.481l1.106 -0.598l0.782 1.071l1.082 1.064l1.887 0.432l1.411 1.263l1.071 0.721l2.435 -0.475l1.577 0.24l5.01 -1.154l1.464 -0.04l1.75 0.656l2.348 1.137l3.032 0.252l1.283 -0.502l2.223 0.954l1.248 -0.16l1.293 -1.183l0.439 -1.503l-0.216 -2.04l2.447 -1.089l0.244 -1.269l1.048 -0.68l1.566 1.348l0.81 -1.529l0.21 -1.451l1.549 0.688l1.317 -0.053l0.245 -1.45l-0.736 -1.337l-3.355 -2.106l-2.71 -2.152l-0.939 -1.003l-0.893 -1.785l0.064 -1.408l0.794 -1.087l1.925 -0.662l3.996 1.317l1.185 0.762l3.369 1.612l1.598 -0.474l1.266 -1.17l-0.485 -1.759l-1.178 -0.983l-2.291 -1.379l-1.751 -1.425l-1.112 -1.291l-1.339 -2.013l-0.473 -1.104l0.759 -1.472l2.186 -0.214l1.732 0.857l3.837 1.467l1.139 1.158l1.618 0.937l1.219 0.215l1.122 -0.396l-1.334 -2.514l-0.865 -1.205l0.106 -1.746l2.1 -0.656l1.173 0.448l1.234 0.842l1.513 -0.061l0.472 -1.324l-1.141 -1.405l0.106 -1.191l1.432 -0.242l4.061 1.17l-1.476 -4.839l-5.187 -1.981l6.605 -0.762l-2.107 -3.88l5.115 -0.116l1.681 -4.809l-6.648 -8.839l-8.5 0.008l-13.144 0.012l-5.088 -0.113l-17.184 0.113l-1.963 -0.111l-6.641 0.091l-7.743 -0.032l-10.79 -0.044l-14.726 -0.06l-19.095 0.035l-27.053 0.049l-15.828 35.965l-15.52 35.202z" />
  </g>
  <g data-id="003">
    <path d="m596.409 180.791l2.917 2.95l-1.195 4.945l-1.128 1.202l1.419 0.803l6.192 1.912l2.974 4.852l3.202 0.12l5.693 3.073l1.519 5.102l10.376 9.664l1.786 17.099l4.601 5.167l-1.389 3.403l0.931 2.471l-4.367 7.763l-1.091 10.724l-3.214 2.033l1.855 8.022l-2.684 2.809l3.39 7.17l2.909 1.426l9.752 -6.009l4.469 0.623l0.067 11.707l8.933 1.532l10.747 -0.056l1.43 2.286l0.582 -3.138l-0.724 -1.157l-3.291 0.211l-1.863 -2.208l-1.08 -2.697l-0.529 -6.551l5.521 -3.108l1.892 -2.572l-0.113 -1.387l3.92 -2.717l2.523 -4.713l2.028 -6.131l0 -1.186l-1.51 -2.98l-2.863 1.367l-1.644 -0.763l-0.645 -3.503l1.872 -1.812l4.608 -4.462l-0.045 -2.808l-0.676 -1.476l0.017 -1.108l0.028 -1.902l4.037 -1.29l1.415 0.856l0.023 1.129l2.231 0.145l0.315 -2.085l-0.856 -2.809l2.613 -4.952l-1.69 -2.114l-1.194 -0.058l-1.847 -2.289l-0.811 -3.129l0.154 -1.546l1.745 -0.213l2.675 -0.327l1.262 -2.405l4.884 -1.454l1.153 -0.343l6.331 -6.465l-0.834 -3.277l-1.645 -3.074l-7.625 -5.679l1.477 -2.571l2.094 -3.645l0.275 -2.099l-0.394 -1.45l-2.111 -7.772l0.113 -3.92l0.856 -1.452l-2.575 -1.625l-2.855 -1.802l-4.213 -3.254l-1.014 -1.859l-1.771 -0.937l-3.755 0.864l-1.773 -2.338l-2.457 -1.549l-1.463 -0.922l-1.892 -3.691l-0.016 -4.746l-3.566 2.828l-6.13 -2.436l-1.147 -0.455l-1.527 -1.731l-5.076 -6.193l-1.558 -0.872l-2.91 3.937l-2.226 -0.5l-2.053 -1.13l-10.415 3.509l-0.183 1.561l-3.289 2.936l-1.819 3.553l-0.385 1.942l-5.541 1l-7.878 9.906l-1.229 4.855l-5.936 1.835l-3.008 3.634l-3.086 1.976z" />
  </g>
  <g data-id="005">
    <path d="m585.835 82.614l-1.861 3.213l3.184 3.524l-0.606 6.075l2.406 2.246l-4.031 1.934l0.537 3.398l3.508 3.91l-2.004 2.029l1.8 5.387l8.974 5.873l2.595 -2.128l6.384 1.34l3.606 5.603l-3.582 8.258l6.909 4.453l5.475 5.57l3.757 1.447l1.26 0.497l3.645 3.558l0.975 -1.209l10.415 -3.509l2.053 1.13l2.226 0.5l2.91 -3.937l-5.767 -3.353l-3.525 -1.916l-5.585 -3.186l-3.209 -1.818l-2.74 -1.509l-0.03 -2.767l0 -19.509l-0.001 -2.452l-0.027 -2.662l19.177 -0.024l9.909 -0.026l2.751 -0.004l5.802 -0.017l3.255 0.036l0.002 4.518l0 13.446l0.061 3.882l0.002 16.221l1.943 0.065l1.874 3.668l2.115 -1.044l0.976 2.278l0.63 1.47l-1.112 2.851l0.586 1.328l2.14 0.756l1.983 -0.843l3.74 -0.233l3.573 2.305l1.158 0.747l3.875 -2.994l1.712 -4.1l4.267 -2.955l6.142 -2.322l4.84 -3.162l1.39 -2.454l-2.88 -1.047l-6.278 -4.32l0.643 -2.496l0.325 -4.167l3.258 -3.532l5.744 1.378l2.487 -2.634l-4.903 -4.69l0.507 -2.377l0.233 -1.093l2.725 0.225l-1.752 -4.788l0.348 -4.498l-3.863 -2.076l0.248 -2.496l-0.512 -1.441l-2.665 -3.01l-0.35 -4.758l-2.975 -11.169l-7.705 -5.46l-2.753 -2.876l-0.871 -3.999l-12.974 -7.18l-3.564 0.631l-4.908 -5.722l-3.526 -12.93l-2.622 -2.76l-1.29 -4.925l-0.343 -14.097l-0.617 -17.221l-9.084 0.01l-19.8 0.021l-3.247 0.003l-16.902 0.09l-3.877 13.236l-6.069 21.562l-7.988 29.592l-0.588 5.384l-5.36 7.313l1.307 4.931z" />
  </g>
  <g data-id="009">
    <path d="m627.759 293.816l1.411 2.97l-0.56 4.235l2.317 1.855l-0.747 2.219l-2.375 1.535l3.861 1.786l-0.099 1.64l-1.65 2.302l-0.276 3.481l3.241 2.629l1.382 2.822l-0.05 5.265l-1.835 5.411l1.899 7.968l-0.717 4.888l2.916 2.991l-2.614 7.448l4.951 7.446l-0.496 2.469l6.793 6.236l3.564 5.48l2.443 0.293l7.576 5.01l2.358 3.15l4.362 -0.783l7.344 7.263l4.133 8.634l-1.001 4.65l3.767 0.662l0.589 -1.429l2.514 1.531l1.181 0.719l4.013 -0.934l3.336 0.411l3.217 -5.219l4.041 -5.797l0.174 -5.962l-0.477 -1.658l-1.133 -0.487l-2.102 -1.876l-2.855 -5.37l-4.706 -5.391l-3.304 -2.587l-0.837 -1.154l-0.258 -1.381l-8.313 -9.097l-3.002 -6.264l-2.181 -7.019l-0.406 -2.926l0.541 -4.786l-0.278 -9.932l1.14 -7.356l-0.963 -3.926l-2.042 -4.786l-1.752 -9.35l-0.031 -6.15l0.743 -4.011l-1.43 -2.286l-10.747 0.056l-8.933 -1.532l-0.067 -11.707l-4.469 -0.623l-9.752 6.009l0.342 1.363l0.185 1.562l-2.213 0.704l-0.386 1.261l0.418 1.292l-1.227 3.289z" />
  </g>
  <g data-id="011">
    <path d="m782.345 289.216l1.693 2.225l3.218 3.755l0.045 3.249l3.663 -0.322l1.153 3.805l5.953 3.043l1.694 -0.867l7.405 -3.041l1.751 -3.947l1.826 1.688l4.172 0.353l1.385 -1.064l5.935 -1.747l8.493 2.311l0.421 5.67l7.975 -2.847l12.493 14.662l-1.244 -20.265l-1.061 -17.303l-0.644 -10.503l-0.36 -5.877l-0.127 -2.215l-0.319 -4.903l-0.352 -6.214l-0.527 -7.871l-3.219 -51.902l-0.365 -5.898l-0.447 -5.884l-0.074 -1.564l-0.345 -6.61l-9.734 3.036l-9.883 7.083l-2.998 6.582l-0.105 4.095l-4.722 4.151l-4.763 11.339l-6.493 5.26l-4.797 6.903l0.576 4.512l-3.307 6.391l0.838 5.887l-0.068 9.706l6.047 8.687l-1.121 4.597l7.087 7.646l-3.084 1.737l-5.072 2.98l-3.816 5.121l-3.811 -0.388l-7.427 8l1.069 2.943l-4.608 3.812z" />
  </g>
  <g data-id="013">
    <path d="m490.343 24.411l2.39 4.264l-1.546 1.771l4.431 4.265l3.644 -0.499l1.774 3.349l1.62 -2.633l7.751 8.002l5.425 0.283l6.439 6.228l-0.293 5.658l4.147 0.659l9.539 10.226l0.727 1.544l-2.459 3.962l0.369 5.333l-7.011 12.059l-2.482 13.281l-2.229 5.681l3.674 1.552l11.357 -6.029l8.2 2.153l8.919 3.305l12.544 -3.901l9.098 2.923l10.597 1.097l2.004 -2.029l-3.508 -3.91l-0.537 -3.398l4.031 -1.934l-2.406 -2.246l0.606 -6.075l-3.184 -3.524l1.861 -3.213l-1.307 -4.931l5.36 -7.313l0.588 -5.384l7.988 -29.592l6.069 -21.562l3.877 -13.236l-4.387 0.059l-16.825 0.052l-2.031 0.01l-1.682 0l-8.794 -0.087l-12.233 0.265l-1.86 -0.008l-10.801 -0.048l-2.501 -0.058l-35.73 0.065l-2.114 4.1l2.494 2.114l-6.127 1.094l1.837 5.002l-6.272 3.813l-3.034 5.28l-0.052 4.232l-3.517 0.608l-4.439 -2.678z" />
  </g>
  <g data-id="015">
    <path d="m733.179 0.432l4.642 10.32l8.809 7.727l5.88 11.878l9.325 11.369l2.616 3.716l1.915 2.571l2.311 4.669l2.682 -1.045l3.815 -0.322l3.708 -0.313l5.425 -0.458l1.386 -2.73l1.702 -0.994l2.718 0.863l2.305 0.732l0.702 2.191l0.06 3.357l-2.051 2.536l-2.307 5.715l-1.766 6.323l-0.549 3.528l-1.432 2.048l-2.115 4.823l0.644 1.142l1.563 -0.293l0.955 -2.036l1.836 -0.421l3.048 3.156l-1.348 3.653l-3.337 1.451l-2.137 4.604l-2.174 1.768l-4.161 1.887l-1.343 2.261l0.232 1.795l8.43 0.891l0.012 2.502l4.453 2.608l4.197 -2.108l4.895 2.032l3.548 -0.945l0.859 1.092l6.037 0.401l2.279 1.479l4.112 -2.044l2.745 0.947l2.939 -1.87l2.526 -0.931l1.693 -2.11l1.088 -0.258l2.03 0.738l0.843 1.314l8.824 -0.698l-0.704 -11.171l-1.194 -18.948l-0.989 -15.709l-0.292 -4.64l-1.036 -17.678l-0.181 -3.096l-0.159 -2.713l-0.126 -2.013l-0.138 -3.081l-0.134 -2.994l0.005 -3.756l0.004 -2.841l0.05 -5.65l0.008 -6.381l-2.524 -0.021l-2.367 -0.007l-42.482 0.103l-3.248 -0.1l-3.278 0.026l-21.672 0.075l-2.643 0.009l-21.969 0.076z" />
  </g>
  <g data-id="017">
    <path d="m501.058 351.599l-2.393 8.801l3.212 13.22l0 2.278l-0.963 3.917l3.169 9.055l7.534 5.639l2.122 0.946l4.648 -1.658l11.254 -7.519l2.026 -2.597l0.406 -1.153l0.588 -1.668l2.862 0.412l4.405 0.48l1.054 -2.073l2.457 -2.863l7.052 -5.265l6.199 -0.732l3.387 6.79l0.688 3.64l2.322 4.116l1.058 9.19l1.823 4.502l4.858 4.034l2.658 1.057l2.834 2.445l1.101 1.458l0.561 1.342l0.281 5.676l2.799 0.901l4.95 3.279l4.558 2.104l4.332 3.877l1.112 0.479l0.98 -2.042l0.598 -3.162l-1.182 -4.751l-1.427 -3.191l-1.606 -4.016l-1.098 -3.025l-2.517 -2.008l1.365 -3.454l1.08 -2.625l0.661 -1.606l1.852 0.911l-0.461 -2.993l-5.452 -4.282l0.519 -2.342l4.847 -2.722l6.636 -10.259l10.413 -21.575l13.765 -0.388l1.089 1.115l0.764 1.129l1.177 1.139l3.297 1.042l2.552 -1.339l2.614 -7.448l-2.916 -2.991l-5.62 -1.851l-1.046 -0.179l-7.993 -4.537l-0.486 -10.243l-1.441 -6.985l-1.999 -0.366l-23.656 -11.23l-11.391 1.65l-11.767 -2.407l-7.4 1.906l-5.074 2.371l-5.979 8.693l-6.617 -21.309l-2.096 -4.607l-1.233 0.783l-1.622 1.386l-1.555 0.52l-3.627 3.175l-2.366 3.463l-0.442 3.996l-0.324 2.928l0.901 1.615l0.383 2.653l4.367 0.179l1.053 0.043l-0.991 2.142l-3.175 2.031l-1.003 1.561l-4.408 2.527l-4.736 -0.366l-3.176 1.779l-5.889 9.173l-2.526 3.934l-1.205 0.311l-2.537 0.654l-1.884 3.681l-1.981 3.869l-1.964 3.834z" />
  </g>
  <g data-id="019">
    <path d="m764.209 462.79l1.053 3.054l1.11 -0.629l1.086 -0.961l4.534 -2.001l2.845 1.848l3.814 -7.751l-0.584 -2.948l0.275 -3.22l2.45 -0.812l-0.052 -1.693l-5.996 -7.409l-4.283 0.055l-4.696 3.122l-0.832 11.834l0.747 2.957l-0.34 2.61l-1.131 1.946z" />
    <path d="m709.956 357.388l0.985 4.896l2.511 4.421l4.36 5.781l4.161 7.55l0.556 2.981l-0.387 2.882l2.721 5.325l4.55 3.531l-3.503 6.14l1.776 4.617l6.208 1.458l1.233 1.773l1.582 2.274l3.643 5.056l2.441 3.99l1.817 3.758l3.841 5.242l3.269 2.201l3.485 0.843l2.207 -1.96l5.857 -4.197l1.134 0.085l4.459 0.335l1.215 3.937l2.589 3.263l5.85 2.981l-0.823 -3.978l-1.895 -3.191l-0.032 -2.206l1.198 -1.595l2.579 -7.224l-0.686 -2.254l-4.436 -4.633l0.144 -1.577l0.897 -2.484l0.897 -1.117l1.728 -0.308l3.89 -2.647l1.457 -5.97l-0.435 -1.111l0.063 -1.007l1.108 -2.768l1.051 -1.224l6.4 2.479l2.687 7.015l0.001 2.545l-0.517 2.38l-1.138 1.183l-2.716 1.441l-6.151 0.829l-1.964 0.906l2.251 1.375l3.828 6.144l0.579 1.041l0.797 4.056l2.676 3.304l0.821 2.218l-0.78 3.616l5.812 -1.603l1.288 -2.298l-1.825 -0.545l-1.295 -1.174l-0.082 -3.186l3.679 -2.391l-0.507 -7.493l3.052 -6.586l2.865 -5.141l5.569 -3.561l5.917 -2.249l0.248 2.116l0.367 -9.035l5.065 -1.121l-2.904 -3.7l1.281 -6.187l5.8 -4.031l-3.667 -2.803l4.777 -5.992l-1.393 -4.951l1.328 -1.477l1.672 -0.336l2.954 -0.694l8.471 -6.043l0.994 -4.72l1.748 -2.31l4.596 -0.995l5.119 -5.628l-0.424 -7.029l-0.121 -2.003l-0.404 -6.539l-0.103 -1.891l-0.079 -1.393l-0.171 -2.641l-12.494 -14.677l-7.975 2.847l-0.421 -5.67l-8.493 -2.311l-5.935 1.747l-1.385 1.064l-4.172 -0.353l-1.826 -1.688l-1.751 3.947l-7.405 3.041l-1.694 0.867l-2.055 2.429l-0.801 5.093l-5.765 6.611l0.581 4.342l-2.296 5.065l-8.561 5.826l0.589 1.57l-3.274 2.746l-3.553 -3.094l-4.873 -4.311l-2.356 -2.088l-5.007 1.794l-3.561 -2.142l-2.651 -2.972l-2.79 2.029l-3.342 -1.145l0.107 -3.32l-1.043 -5.486l-1.105 0.125l-3.59 2.22l-2.635 2.33l-2.214 1.808l-4.226 -2.097l-1.231 -4.207l-2.221 0.668l-3.975 3.222l-1.728 -0.159l-1.749 1.771l1.578 2.169l0.89 1.223l-1.096 1.834l-3.92 2.548l-3.216 2.091l-0.709 1.015l4.118 0.752l1.544 2.264l0.799 1.172l0.84 2.426l-0.349 2.004l-0.808 1.648l0.663 1.055l5.515 -1.995l1.068 0.106l1.011 0.592l-0.409 2.368l-0.245 1.419l-2.94 5.057l-4.809 1.176l-1.759 -0.5l-6.431 1.643l-2.073 -0.553l-2.051 2.27z" />
  </g>
  <g data-id="021">
    <path d="m407.895 116.549l1.303 0.7l1.174 1.359l3.409 1.812l2.414 0.74l5.484 1.607l2.262 -0.281l1.579 0.526l1.386 0.173l1.015 -0.194l2.195 -0.953l1.904 -0.327l1.538 0.713l0.1 2.737l0.431 2.43l1.744 2.004l1.637 2.25l0.59 1.338l1.975 1.331l2.698 0.953l3.168 1.878l2.663 0.461l2.206 1.006l1.353 1.723l2.161 2.081l2.479 1.789l0.511 1.843l38.8 -22.508l5.224 -3.175l21.116 -12.589l2.391 -5.814l2.482 -13.281l7.011 -12.059l-0.369 -5.333l2.459 -3.962l-0.727 -1.544l-9.539 -10.226l-4.147 -0.659l0.293 -5.658l-6.439 -6.228l-5.425 -0.283l-7.751 -8.002l-1.62 2.633l-1.774 -3.349l-3.644 0.499l-4.431 -4.265l1.546 -1.771l-2.39 -4.264l4.439 2.678l3.517 -0.608l0.052 -4.232l3.034 -5.28l6.272 -3.813l-1.837 -5.002l6.127 -1.094l-2.494 -2.114l2.098 -4.1l-5.165 0.001l-49.448 0.001l-2.188 0l-4.778 7.142l-4.056 3.446l3.489 2.239l-6.148 10.461l-2.838 2.778l-8.431 3.272l-3.735 14.219l-1.624 2.176l-0.841 6.761l-3.341 3.17l-2.36 8.77l1.937 2.437l-1.715 2.86l1.346 3.677l-4.009 6.518l-1.48 12.915l-3.552 9.952l-4.006 7.382l-0.713 5.529z" />
  </g>
  <g data-id="023">
    <path d="m0.189 124.617l-0.189 4.784l0.085 4.286l0.091 17.232l2.441 0.649l1.55 -1.039l3.711 -1.285l2.896 -1.557l3.473 -3.227l-0.146 -1.604l1.061 -1.511l1.87 -0.485l5.639 -7.272l2.449 -2.216l3.337 -0.515l1.711 -0.907l2.241 -2.345l-0.405 -1.058l0.283 -1.106l2.695 -1.859l3.968 -1.299l2.806 1.405l2.163 0.24l2.024 -3.177l0.38 -3.904l2.198 -1.723l3.824 -2.013l0.311 -5.306l4.067 -1.341l1.494 -1.449l2.003 0.147l1.441 -0.63l2.482 -3.658l1.128 -2.408l1.037 -0.537l3.153 -0.107l0.531 -1.104l1.461 0.031l1.105 -1.49l-0.204 -1.094l1.162 -3.209l1.747 -0.036l0.902 1.24l1.296 -0.219l0.423 -1.678l1.184 -0.985l1.014 -0.183l0.733 -1.459l-0.024 -1.826l1.129 -1.068l1.037 0.013l0.644 -1.428l0.564 -1.535l1.383 -0.708l2.817 -4.901l-0.634 -1.721l0.041 -1.058l1.516 -0.098l1.816 0.3l3.299 -0.915l0.241 -1.438l15.52 -35.202l15.828 -35.965l-26.395 -0.027l-2.468 0.014l-75.681 0.422l-18.97 0.106l0.02 22.504l-0.296 4.222l-0.22 28.671l-0.786 2.047l-0.454 52.616l-0.55 13.959z" />
  </g>
  <g data-id="025">
    <path d="m657.443 0.472l0.617 17.221l0.343 14.097l1.29 4.925l2.622 2.76l3.526 12.93l4.908 5.722l3.564 -0.631l12.974 7.18l0.871 3.999l2.753 2.876l7.705 5.46l2.975 11.169l0.35 4.758l2.665 3.01l0.512 1.441l0.161 -1.238l1.463 0.436l4.829 1.438l2.836 -0.436l2.84 2.23l-0.428 4.98l-3.347 1.821l5.651 2.375l-0.698 6.059l2.063 3.507l-1.574 4.667l3.348 0.43l1.277 -6.769l4.391 -4.647l-2.329 -5.033l-4.23 -3.373l3.802 -6.104l-0.054 -4.204l3.213 -2.57l0.964 -5.596l-0.241 -5.408l4.632 -1.981l1.446 8.969l-3.829 6.319l-2.008 7.202l2.399 5.212l3.541 2.514l5.927 -4.318l1.596 -2.426l2.409 -0.491l1.937 -4.256l2.861 -4.111l2.794 0.292l5.516 -4.641l1.142 -1.863l3.287 -2.347l4.272 -0.777l5.02 -2.743l0.013 -1.309l-2.488 -6.665l-2.548 -0.821l-3.386 0.509l-1.431 -0.781l-2.087 -2.309l-0.749 -2.735l4.772 -11.928l4.586 -1.788l-2.311 -4.669l-1.915 -2.571l-2.616 -3.716l-9.325 -11.369l-5.88 -11.878l-8.809 -7.727l-4.642 -10.32l-1.442 0l-31.676 0.004l-3.492 0.03l-1.975 -0.011l-3.229 -0.018l-5.309 0.02l-11.183 -0.018l-5.677 0.001l-11.754 0.031z" />
  </g>
  <g data-id="027">
    <path d="m518.29 111.738l3.777 8.005l6.824 6.118l1.26 4.442l0.874 2.451l6.113 0.716l7.512 3.448l1.935 3.733l3.765 1.049l2.813 5.046l5.16 3.95l0.226 7.314l2.624 4.419l5.206 1.207l-0.37 3.682l5.32 0.967l-1.537 3.539l6.627 -1.269l2.582 2.398l6.565 -0.242l4.144 5.301l6.702 2.779l3.086 -1.976l3.008 -3.634l5.936 -1.835l1.229 -4.855l7.878 -9.906l5.541 -1l0.385 -1.942l1.819 -3.553l3.289 -2.936l-4.437 -3.91l-1.26 -0.497l-3.757 -1.447l-5.643 -4.92l-6.741 -5.103l3.582 -8.258l-3.606 -5.603l-6.384 -1.34l-2.595 2.128l-8.974 -5.873l-1.8 -5.387l-10.597 -1.097l-9.098 -2.923l-12.544 3.901l-8.919 -3.305l-8.2 -2.153l-11.357 6.029l-3.674 -1.552l-4.288 3.893z" />
  </g>
  <g data-id="029">
    <path d="m723.862 162.683l-0.876 5.731l3.973 0.686l1.786 2.84l4.396 12.265l0.385 2.484l0.142 6.329l-1.34 4.496l-0.865 1.66l-0.401 3.153l2.461 3.018l5.103 2.467l1.903 -1.308l-1.765 -2.986l-0.927 -4.739l0.175 -2.038l0.217 -2.521l0.188 -2.187l1.5 -6.157l4.388 -3.111l3.731 0.437l2.085 0.244l9.244 -3.803l5.16 -5.737l4.897 -3.297l-2.068 -2.746l7.652 -4.36l1.729 -2.123l-1.511 -3.133l-4.005 -1.131l-0.981 -2.239l2.757 -5.231l6.616 -4.764l1.518 -0.197l2.482 -3.693l4.873 0.233l0.375 -1.435l1.292 -0.204l1.669 -0.351l1.399 0.221l1.88 1.327l1.527 -0.54l1.583 1.04l4.733 -1.454l1.368 0.233l1.107 -0.349l3.332 -0.695l0.812 -1.627l1.288 -0.125l0.402 1.029l1.006 -0.391l1.203 0.306l2.08 -2.857l6.305 0.519l7.523 4.571l11.302 -1.231l-0.93 -14.719l-1.484 -23.507l-8.827 0.653l-0.843 -1.314l-2.03 -0.738l-1.088 0.258l-1.693 2.11l-2.526 0.931l-2.939 1.87l-2.745 -0.947l-4.112 2.044l-2.279 -1.479l-6.037 -0.401l-0.859 -1.092l-3.548 0.945l-4.895 -2.032l-4.197 2.108l-4.453 -2.608l0.012 2.605l-4.637 1.633l-2.238 -1.608l-3.813 -0.941l-13.671 -0.47l-1.313 3.302l-4.189 2.871l-0.455 1.939l0.844 1.143l-2.771 1.775l-3.188 -0.44l-2.422 1.111l-3.415 3.716l-0.24 1.124l1.702 1.565l0.521 1.063l-0.209 2.255l-0.854 2.01l-0.941 1.872l-3.91 4.51l-1.852 0.017l-1.821 2.274l-2.864 8.336l-4.276 9.924l-1.081 2.215l-2.427 3.218l-1.81 4.369z" />
  </g>
  <g data-id="031">
    <path d="m441.653 168.277l0.125 2.591l0.489 2.757l0.805 1.546l1.276 1.135l3.517 1.348l1.071 0.265l2.063 1.084l1.019 1.058l0.962 1.547l1.035 2.266l0.669 1.781l1.538 2.942l2.206 1.096l3.476 0.539l3.204 1.083l1.746 0.129l2.441 0.563l1.214 -0.084l3.047 0.812l1.255 -0.238l1.133 0.438l1.701 0.061l1.763 -0.266l2.116 -0.037l2.258 -0.249l1.076 0.354l1.628 1.154l3.013 1.621l3.131 0.783l1.78 0.87l4.145 3.602l1.96 0.633l2.411 0.551l1.555 0.899l0.855 1.972l-0.518 1.537l-1.104 0.986l-0.879 2.609l0.608 1.942l1.059 0.986l-0.338 1.855l3.379 2.782l0.721 -1.045l1.494 1.903l3.034 1.142l1.78 0.145l1.374 0.609l2.073 -0.203l1.194 -0.377l2.501 0.377l1.127 -0.174l3.563 0.66l1.01 0.469l2.005 2.579l1.307 2.289l0.969 2.144l1.758 1.633l3.446 -3.487l2.929 -2.926l1.289 -1.274l3.185 -3.15l3.907 -3.864l2.654 -2.684l1.401 0.771l4.664 4.579l1.645 1.681l1.286 1.34l2.715 -2.944l-0.127 -4.858l3.725 -6.468l0.64 -1.114l4.495 -7.758l7.702 -13.338l2.318 -7.733l4.233 -3.792l-5.97 1.24l-3.177 -3.396l-6.627 1.269l1.537 -3.539l-5.32 -0.967l0.37 -3.682l-5.206 -1.207l-2.624 -4.419l-0.226 -7.314l-5.16 -3.95l-2.813 -5.046l-3.765 -1.049l-1.935 -3.733l-7.512 -3.448l-6.113 -0.716l-0.874 -2.451l-1.26 -4.442l-6.824 -6.118l-3.777 -8.005l4.126 -3.76l-21.116 12.589l-4.776 2.883l-38.53 22.904l-1.155 0.867l-2.305 1.99l-1.31 2.854l0.206 2.061l-0.529 1.29l-1.94 1.404l-4.324 1.051l-1.232 1.036l-1.306 2.207l-1.08 2.858l-0.822 3.661z" />
  </g>
  <g data-id="033">
    <path d="m542.534 294.752l-1.539 0.978l2.096 4.607l6.617 21.309l5.979 -8.693l5.074 -2.371l7.4 -1.906l11.767 2.407l11.391 -1.65l23.656 11.23l1.999 0.366l1.441 6.985l0.486 10.243l7.993 4.537l1.046 0.179l5.62 1.851l0.717 -4.888l-1.899 -7.968l1.835 -5.411l0.05 -5.265l-1.382 -2.822l-3.241 -2.629l0.276 -3.481l1.65 -2.302l0.099 -1.64l-3.861 -1.786l2.375 -1.535l0.747 -2.219l-2.317 -1.855l0.56 -4.235l-1.58 -2.424l0.634 -1.391l1.252 -2.622l-0.443 -1.959l0.126 -1.02l1.799 -0.237l0.489 -2.27l-0.342 -1.363l-2.909 -1.426l-3.39 -7.17l2.684 -2.809l-1.855 -8.022l3.214 -2.033l1.091 -10.724l4.367 -7.763l-0.931 -2.471l1.389 -3.403l-4.601 -5.167l-1.786 -17.099l-10.376 -9.664l-1.519 -5.102l-5.693 -3.073l-3.202 -0.12l-2.974 -4.852l-6.192 -1.912l-1.419 -0.803l1.128 -1.202l1.195 -4.945l-2.917 -2.95l-6.702 -2.779l-4.144 -5.301l-4.233 3.792l-2.318 7.733l-7.702 13.338l-4.495 7.758l-0.64 1.114l-3.725 6.468l0.127 4.858l-2.715 2.944l2.41 2.396l11.258 11.188l1.538 1.528l1.7 1.739l4.09 4.184l-2.231 2.24l-6.849 6.888l-1.902 1.842l-4.811 4.956l-2.974 2.776l-1.645 1.822l-5.503 5.403l-3.285 3.348l-0.308 1.818l-0.163 3.48l-0.027 1.376l-0.124 6.308l-0.029 1.502l0.203 1.04l-0.09 3.87l-0.203 1.733l-0.721 1.213l-1.735 1.27l-2.731 0.101l-1.473 -0.294l-1.72 0.308z" />
  </g>
  <g data-id="035">
    <path d="m700.98 254.018l0.251 3.178l1.552 0.969l1.589 -4.59l2.422 -1.564l2.209 0.48l1.48 -1.301l0.673 -1.181l-0.976 -6.28l-0.707 -1.868l0.537 -3.889l2.708 -1.525l1.379 -0.04l2.152 3.737l3.418 -1.205l-0.138 -2.187l-1.254 -2.438l0.793 -2.931l5.143 -3.842l1.834 3.368l0.059 1.657l0.554 1.332l1.313 0.332l1.515 -0.602l-0.262 -2.113l0.153 -3.03l3.487 -0.953l4.694 1.329l2.299 2.602l-0.321 10.323l1.122 2.848l-0.567 5.865l0.421 2.091l0.267 1.323l1.912 -3.897l1.987 1.642l2.776 -2.036l1.396 -4.015l3.127 -0.953l4.004 0.97l0.915 1.006l1.224 -1.75l4.293 -0.078l0.189 -2.275l-2.407 -4.154l0.427 -1.879l-0.716 -1.52l0.878 -1.258l-0.052 -1.753l1.067 -1.86l0.577 -1.718l2.393 -1.624l32.377 7.61l-0.838 -5.887l3.307 -6.391l-0.576 -4.512l4.797 -6.903l6.493 -5.26l4.763 -11.339l4.722 -4.151l0.105 -4.095l2.998 -6.582l9.883 -7.083l9.734 -3.036l-0.385 -6.32l-0.377 -3.764l-1.11 -19.835l-11.302 1.225l-7.523 -4.571l-6.305 -0.519l-1.478 2.838l-1.06 -0.407l-1.505 0.562l-0.648 -1.08l-1.037 -0.216l-0.322 1.003l-4.073 1.66l-1.107 0.349l-1.368 -0.233l-3.848 1.631l-1.753 -1.135l-1.707 0.534l-1.475 -0.417l-1.751 -1.27l-1.549 0.456l-1.012 -0.141l-0.923 1.138l-5.313 0.367l-2.482 3.693l-1.518 0.197l-6.616 4.764l-2.757 5.231l0.981 2.239l4.005 1.131l1.511 3.133l-1.729 2.123l-7.652 4.36l2.068 2.746l-4.897 3.297l-5.16 5.737l-9.244 3.803l2.91 0.341l-1.206 3.89l-0.661 1.408l-1.238 2.636l-2.275 0.783l-1.402 1.155l-2.01 3.638l1.335 4.235l2.412 3.883l0.892 2.382l-0.084 3.049l-8.645 7.67l-3.733 0.736l-2.331 -2.041l-6.654 -1.763l-1.638 0.132l-2.567 0.207l-3.714 -6.219l-2.001 -6.344l0.41 -1.673l-0.185 -2.337l-2.235 1.274l-1.917 3.551l-0.74 4.075l0.198 2.714l-7.018 12.279l-1.78 5.231l-0.886 9.179l0.221 9.739l-2.596 6.762z" />
  </g>
  <g data-id="037">
    <path d="m589.32 387.121l-0.519 2.342l5.452 4.282l0.461 2.993l2.161 1.063l2.52 1.239l-3.266 3.052l1.983 1.877l1.713 5.405l1.526 4.444l3.624 4.356l-0.631 7.566l-1.527 0.649l3.261 4.36l3.962 2.263l6.213 1.981l1.807 -2.465l0.948 -1.294l4.608 0.494l1.579 0.048l5.749 -0.2l3.067 -0.106l6.654 2.673l2.565 -0.165l9.441 3.282l4.296 3.531l1.187 0.976l3.005 3.234l1.267 3.306l0.45 2.952l1.116 3.548l2.368 5.416l1.678 -1.52l1.711 -0.524l1.352 0.145l2.006 1l1.585 2.268l2.669 3.846l1.085 3.197l2.454 -0.321l-0.242 -1.593l-0.751 -1.186l-0.013 -1.01l1.007 -2.407l0.977 -2.276l-1.955 -5.141l2.483 -0.767l4.451 -1.375l0.423 2.22l0.353 1.85l-0.992 2.205l2.311 3.657l-0.19 1.942l2.075 3.821l1.051 0.452l2.382 -0.718l3.072 1.166l4.629 6.679l2.377 5.73l1.912 1.82l2.556 -0.147l1.936 1.075l1.311 1.383l1.104 2.461l0.59 -1.949l-2.215 -8.11l-0.335 -7.92l-1.489 -3.289l-0.255 -2.478l4.145 -5.404l-2.156 -4.826l-5.364 -6.577l-1.884 -3.988l-5.264 -7.369l-3.171 -11.913l0.105 -2.213l1.055 -3.224l4.436 -5.199l-1.58 -1.947l-4.821 -2.375l-1.362 1.982l-3.374 1.098l-3.079 2.303l-3.427 -0.16l-2.49 -1.74l-2.678 -3.902l1.099 -3.182l-3.767 -0.662l1.001 -4.65l-4.133 -8.634l-7.344 -7.263l-4.362 0.783l-2.358 -3.15l-7.576 -5.01l-2.443 -0.293l-3.564 -5.48l-6.793 -6.236l0.496 -2.469l-4.951 -7.446l-2.552 1.339l-3.125 -0.62l-0.65 -1.308l-1.406 -0.913l-0.468 -1.247l-14.443 0.051l-10.413 21.575l-6.636 10.259l-4.842 2.691z" />
  </g>
  <g data-id="039">
    <path d="m796.713 452.259l-1.88 7.089l2.266 5.446l0.96 1.442l1.535 0.892l0.314 -4.075l2.995 -1.756l3.725 -2.184l1.557 -0.912l4.365 1.184l2.78 0.754l2.049 -1.765l1.134 -0.58l1.034 -0.529l1.365 -0.053l3.638 3.189l-2.138 5.441l-1.217 0.389l-4.778 3.477l-1.709 3.374l-2.055 4.056l1.425 4.213l1.192 0.331l2.257 -0.287l-0.268 -1.605l3.561 -1.868l5.559 1.562l1.505 2.255l-2.945 3.586l-0.909 1.017l-1.64 0.986l-2.346 1.41l-2.206 -1.232l-2.705 0.964l-1.326 2.049l0.023 4.655l-1.683 2.565l-3.647 8.141l1.821 5.62l-0.437 4.173l-0.283 2.699l-0.958 1.621l1.268 2.361l1.724 1.465l5.476 -1.883l1.372 -0.921l1.247 -0.838l3.76 -2.526l0.566 -1.498l2.436 -2.281l2.553 -2.391l5.394 -5.053l1.586 0.157l3.984 0.395l1.993 0.512l2.759 1.528l2.263 -1.066l1.192 -1.159l2.143 -1.519l6.118 2.577l3.225 0.295l1.501 1.193l-0.008 1.749l-1.075 1.634l1.027 0.306l2.161 1.16l1.819 -0.455l-0.14 -5.643l1.443 -2.626l0.986 -1.198l1.106 -1.868l1.324 -0.629l0.497 -1.516l-3.343 -8.23l-3.725 -1.939l-1.08 -4.74l1.097 -1.794l3.806 2.258l3.647 -2.937l1.159 -5.163l8.178 1.349l2.143 -4.829l6.948 -1.233l-0.308 -5.666l-7.791 -10.031l5.963 -5.665l1.004 -4.204l-3.438 -5.929l-3.307 -3.4l-6.756 -10.853l-1.563 -8.465l-11.346 -5.832l-7.497 7.104l0 1.01l0.445 1.082l-5.855 0.075l-0.762 -2.718l-1.049 -1.388l-1.365 -0.599l-1.328 1.056l-1.245 -0.306l-0.588 -1.2l-0.248 1.003l-0.606 -1.056l-1.281 -0.286l-1.704 -0.006l-1.616 3.714l-5.293 2.036l-0.606 1.835l-0.78 1.309l-8.244 0.383l-5.774 4.348l1.232 1.409l1.719 1.966l1.161 4.609l-3.994 2.758l-3.075 0.736l-1.544 -0.418l-0.364 -1.02l-12.652 4.657l-2.071 2.572l0.966 2.092l-0.9 2.551z" />
    <path d="m774.607 501.362l-0.048 1.911l0.693 8.585l1.09 -0.118l2.606 0.098l1.756 -0.063l3.703 0.061l2.7 0.049l1.132 -1.957l-1.318 -4.103l2.841 -3.96l0.458 -4.672l-1.399 -4.877l-3.705 -0.855l-1.035 -3.366l-2.799 -0.637l-4.935 1.94l-1.024 1.892l-0.542 3.057l-0.044 1.74l-0.132 5.273z" />
    <path d="m772.374 471.2l5.098 5.508l3.013 1.645l2.649 -0.444l1.271 -1.39l-0.51 -5.214l-2.974 -3.593l0.197 -2.609l1.933 -1.481l-0.129 -2.726l-1.195 0.104l-1.064 -0.598l-2.011 -4.056l-3.814 7.751l1.115 0.768l0.621 1.22l-0.319 1.072l-1.173 0.389l-2.706 3.652z" />
  </g>
  <g data-id="041">
    <path d="m709.014 288.739l-1.68 12.733l1.725 4.326l4.038 -2.326l0.125 -2.946l-1.346 -4.103l0.517 -4.034l2.118 -3.433l3.773 0.633l0.052 2.342l5.442 1.898l1.067 -3.37l3.363 -3.433l3.754 0.242l0.371 3.152l-0.631 1.375l0.251 1.996l5.839 8.935l2.81 3.208l5.672 -0.711l4.404 4.372l1.904 6.128l4.396 0.453l2.784 3.427l6.774 -0.348l7.309 6.399l4.069 5.328l1.259 3.357l8.561 -5.826l2.296 -5.065l-0.581 -4.342l5.765 -6.611l0.801 -5.093l2.055 -2.429l-5.953 -3.043l-1.153 -3.805l-3.663 0.322l-0.045 -3.249l-3.218 -3.755l-1.693 -2.225l4.608 -3.812l-1.069 -2.943l7.427 -8l3.811 0.388l3.816 -5.121l5.072 -2.98l3.084 -1.737l-7.087 -7.646l1.121 -4.597l-6.047 -8.687l0.068 -9.706l-32.377 -7.61l-1.873 0.943l-0.96 1.671l-0.586 1.695l-0.705 1.966l-0.221 1.356l-0.712 1.317l0.483 2.664l2.407 4.154l-0.189 2.275l-4.293 0.078l-1.224 1.75l-0.915 -1.006l-4.004 -0.97l-3.127 0.953l-1.396 4.015l-2.776 2.036l-1.987 -1.642l-1.912 3.897l0.408 2.022l1.497 4.097l-0.527 2.277l-0.902 1.806l-4.933 0.916l-5.983 -2.851l-1.009 -0.927l-3.479 -6.384l0.358 -1.174l-1.657 -0.058l-1.482 4.708l0.167 1.179l-2.488 1.178l-2.105 -0.28l-2.506 4.328l-0.261 4.77l-3.084 5.075l-2.445 1.843l-1.506 6.07l0.171 6.228z" />
    <path d="m696.167 277.076l1.605 3.911l2.07 3.865l4.053 -0.813l-1.707 -5.498l0.175 -3.08l-2.182 -3.472l-4.016 5.087z" />
  </g>
  <g data-id="043">
    <path d="m253.27 18.541l5.187 1.981l1.476 4.839l4.696 1.604l1.1 0.408l5.658 2.672l2.685 0.242l1.359 0.108l0.393 -2.089l0.26 -1.184l1.828 -2.816l1.657 -1.366l1.952 -2.143l2.339 -1.38l0.919 -1.258l-2.121 -2.744l0.327 -1.145l5.587 -0.471l1.28 -0.549l0.987 -1.232l0.96 -2.062l2.181 -1.754l1.382 -0.251l1.186 0.104l2.081 0.577l1.794 0.911l2.407 0.035l1.86 0.617l2.542 0.777l2.728 0.896l2.274 0.675l1.041 0.622l1.641 1.901l1.707 0.147l1.067 0.669l1.923 2.106l3.843 3.943l0.96 1.492l1.985 1.459l1.964 3.118l1.407 1.686l2.828 5.151l1.038 0.803l3.446 0.334l3.396 0.097l1.832 -1.954l1.383 -0.631l1.589 0.182l0.958 1.012l-0.111 4.155l1.149 1.635l1.607 -0.68l0.604 -2.154l0.195 -4.084l-2.059 -1.98l0.61 -1.036l1.002 -0.105l1.043 0.431l0.929 1.102l0.62 1.832l2.561 1.411l2.528 0.606l2.585 0.821l1.787 -0.091l0.651 -2.328l-1.318 -2.081l2.757 -0.283l1.361 0.923l2.451 0.953l3.383 0.183l1.076 0.33l1 0.932l0.859 3.475l-0.014 1.1l-0.217 1.786l-0.55 2.97l-0.702 1.358l-1.317 0.595l-3.08 -0.08l-2.227 0.31l-1.575 -0.102l-1.29 0.117l-1.731 0.895l-0.633 1.31l0.565 1.17l3.358 2.241l1.392 1.723l0.234 1.042l-0.172 1.924l-0.239 1.022l0.001 2.064l1.338 0.973l2.424 -0.371l1.874 -1.154l0.131 -2.818l1.583 -1.003l1.424 0.634l0.772 1.329l-0.31 2.342l-0.88 1.01l-3.618 2.505l-0.605 1.031l1.944 1.713l3.081 0.783l3.978 1.029l3.031 -0.22l1.282 -1.288l1.593 -1.07l1.63 -0.126l1.888 1.103l-0.246 1.282l-1.044 0.621l-2.189 0.849l-3.092 1.548l-0.684 1.539l0.578 1.302l1.349 1.002l1.516 0.707l-0.225 1.142l-2.839 -0.025l-0.549 1.053l0.625 1.118l1.499 1.315l0.053 1.279l-1.853 1.384l-0.517 1.039l0.968 1.148l1.749 1.125l2.906 0.381l2.598 -0.172l1.036 0.474l1.268 1.035l1.264 3.597l1.682 2.693l0.812 2.627l0.021 1.44l-1.002 0.681l-2.016 0.361l-0.921 1.326l2.176 4.221l0.061 1.513l-0.463 1.96l-1.004 1.099l-1.867 1.155l-0.352 2l1.612 1.534l4.477 2.046l1.607 1.363l1.476 0.098l2.66 -0.071l2.309 0.852l1.009 0.053l1.32 -0.426l1.221 -1.093l1.033 -0.12l0.713 -5.529l4.006 -7.382l3.552 -9.952l1.48 -12.915l4.009 -6.518l-1.346 -3.677l1.715 -2.86l-1.937 -2.437l2.36 -8.77l3.341 -3.17l0.841 -6.761l1.624 -2.176l3.735 -14.219l8.431 -3.272l2.838 -2.778l6.148 -10.461l-3.489 -2.239l4.056 -3.446l4.778 -7.142l-14.498 -0.041l-30.652 -0.172l-1.146 -0.024l-11.172 -0.012l-1.915 -0.058l-2.385 -0.032l-5.706 -0.044l-4.72 -0.049l-19.202 -0.199l-44.834 -0.022l-5.664 -0.001l-23.432 -0.024l-8.434 -0.022l-6.446 -0.026l-13.914 -0.027l-1.441 0.067l-1.219 -0.023l6.594 8.839l-1.681 4.809l-5.115 0.116l2.107 3.88l-6.605 0.762z" />
  </g>
  <g data-id="045">
    <path d="m804.367 423.231l1.386 1.485l0.647 1.694l-0.04 1.548l1.895 4.163l0.98 1.024l1.131 0.158l1.125 -0.86l-0.829 -2.436l1.334 -1.419l1.979 -0.02l2.259 1.776l5.774 -4.348l8.244 -0.383l0.78 -1.309l0.606 -1.835l5.293 -2.036l0.921 -3.535l1.497 -0.232l1.718 0.157l0.323 1.229l0.807 -1.008l0.777 1.22l1.245 0.306l1.058 -0.997l1.635 0.54l0.232 1.591l1.579 2.515l5.855 -0.075l-0.445 -1.082l0 -1.01l7.497 -7.104l11.346 5.832l35.2 -2.174l18.909 -1.008l3.675 -6.733l7.451 -5.379l3.648 -6.567l-5.12 -7.623l2.847 -6.598l-5.439 -13.725l-3.299 -0.011l-3.438 -0.028l-5.073 -0.002l-3.904 -0.082l-3.143 -0.06l-11.848 -0.304l-5.124 -0.138l-4.769 -0.148l-2.807 -0.087l-5.735 -0.174l-3.358 -0.124l-2.139 -0.125l-1.286 0.04l-1.975 -0.164l-7.299 -0.302l-3.93 -0.132l-3.369 -0.114l-6.914 -0.394l-0.642 -9.282l-0.072 -1.179l-0.471 -7.354l-0.314 -5.928l-0.313 -5.219l-5.12 5.614l-4.596 0.995l-1.748 2.31l-0.994 4.72l-8.471 6.043l-2.954 0.694l-1.672 0.336l-1.328 1.477l1.393 4.951l-4.777 5.992l3.667 2.803l-5.8 4.031l-1.281 6.187l2.904 3.7l-5.065 1.121l-0.367 9.035l0.154 1.311l-2.219 4.398l-2.44 0.903l-2.383 5.73l-2.276 3.24l0.402 3.4l-1.419 3.855l-2.168 2.718z" />
  </g>
  <g data-id="047">
    <path d="m862.195 485.344l1.08 4.74l3.725 1.939l3.367 8.226l13.761 -1.539l25.814 -2.784l15.964 -1.676l21.282 -2.454l5.116 -0.573l1.406 -0.158l2.689 -0.201l5.937 -9.943l5.029 -9.796l3.695 -9.736l3.974 -14.875l3.723 -11.05l5.946 -15.42l3.129 -10.706l2.041 -3.419l1.447 0.191l3.377 -9.337l2.502 -9.824l1.527 -7.292l1.273 -10.478l-1.024 -0.003l-2.531 -0.004l-1.17 0.003l-4.446 0.006l-11.777 0.017l-9.807 0.053l-4.433 -0.032l-10.736 -0.078l-1.719 -0.027l-2.849 -0.021l-15.361 -0.116l5.439 13.725l-2.847 6.598l5.12 7.623l-3.648 6.567l-7.451 5.379l-3.675 6.733l-18.909 1.008l-35.2 2.174l1.563 8.465l6.756 10.853l3.307 3.4l3.438 5.929l-1.004 4.204l-5.963 5.665l7.791 10.031l0.308 5.666l-6.948 1.233l-2.143 4.829l-8.178 -1.349l-1.159 5.163l-3.647 2.937l-3.806 -2.258l-1.097 1.794z" />
  </g>
  <g data-id="510">
    <path d="m625.483 102.607l0.027 2.662l0.001 2.452l0 19.509l0.03 2.767l2.74 1.509l3.209 1.818l5.585 3.186l3.525 1.916l5.767 3.353l1.558 0.872l5.076 6.193l1.527 1.731l1.147 0.455l6.13 2.436l3.566 -2.828l-0.006 -1.824l-4.597 -1.06l-2.198 -2.243l1.159 -2.553l-4.331 -4.501l-1.784 -3.622l1.991 -0.941l1.406 0.607l5.863 2.663l2.116 3.428l1.45 0.048l-0.002 -16.221l-0.061 -3.882l0.003 -13.161l-0.005 -4.803l-3.255 -0.036l-5.802 0.017l-2.751 0.004l-9.909 0.026l-19.177 0.024z" />
  </g>
</svg>
