<?xml version="1.0" encoding="UTF-8"?><!DOCTYPE svg PUBLIC '-//W3C//DTD SVG 1.1//EN' 'http://www.w3.org/Graphics/SVG/1.1/DTD/svg11.dtd'><svg viewBox="0 0 1000 523.818" xmlns="http://www.w3.org/2000/svg"><path id="24001" d="m95 71l-1 2l3 1v-1l1-1v-1v-1h1l3 2v1v1v1h1h1h1h1l2 2l3 1l4 2l2 2v1h1h1h1v-1v-6l2-1l1-1l1-1v-1h-1v-1l1-1l1-1h1h2h1l1-3l3-4l1-2l2-1h1h1l1-3l4-6v-1v-1l3-2h2l1 1l1 1l1-1l1-2v-1l-2-1h-1v-4h2l1-2v-1l1-2h2v1l1-1v-1v-1l-1-4l1-3h1l3-2l3-1v1l-1 2h-1l-1 4v1h2l1 1l2-2l2-1l1 1l1 1l1 1v1l-1 1l-2 1h-1v-1h-2h-2l-2 2v1l1 1h1v1v1v1l2 1l1 1h2h1v-2h1h1v1v2l2 3v1h2l1 2h1l3 1v1l1 1h1l2 1l1 1l2 1h1l6-1h1h1h2l1 1h1h1h1h1v1l1 1h2l1 2h1v1h1l2-1h1h1l4-1h2l1 1l3 1h1h2h1h1l1 1h1l1-1l1-1v-1v-1v-1v-1h1h2v-1v-1h1h1v1h1v-1v-1v-1h1l1 1h1l1-1v-1l-1-1l-1-1l-3-1l-2-2l-1-1l-1-2v-2l1-1h1h1l4 1l1 1h1v1h2h2l1-1v-1v-1l-2-1l-2-1l-2-2l-1-1l-1-2v-1h-1l1-1v-1h1h1l2 1l4 1l1 1l2 1l1 1h1v-1v-1l-1-1l-1-1v-1v-1v-1h2l1 1h1l1 1l1-1h1l-1-1v-1h-1v-1v-1h1h1l4 1l-2-4l-5-2l7-1l-2-4h5l2-5l-7-9h-9h-13h-5h-17h-2h-7h-7h-11h-15h-19h-27l-16 36z"/><path id="24003" d="m596 181l3 3l-1 5l-1 1l1 1l7 2l3 4l3 1l5 3l2 5l10 9l2 18l5 5l-2 3l1 3l-4 7l-1 11l-3 2l1 8l-2 3l3 7l3 2l10-7l4 1v12l9 1h11l2 3v-4l-1-1h-3l-2-2l-1-2v-7l5-3l2-3v-1l1-1l3-2l2-4l2-7v-1l-1-3l-3 2l-2-1v-4l2-1l4-5v-1v-2l-1-1v-1l1-2l4-2l1 1v1l1 1h1l1-2l-1-3l2-5l-1-2h-2l-1-3l-1-3v-1l2-1h2l1-1l1-1l4-2h2l6-7l-1-3l-2-3l-7-6l1-2l2-4l1-2l-1-1l-2-8v-4l1-2l-2-1l-3-2l-4-3l-1-2l-2-1l-4 1l-2-2l-1-1l-1-1l-2-1l-2-4v-4l-3 2l-6-2h-1l-2-2l-5-6l-2-1l-3 4l-2-1l-2-1l-10 4v1l-4 3l-2 4v2l-5 1l-8 9l-2 5l-5 2l-4 4z"/><path id="24005" d="m586 83l-2 3l3 3v6l2 3l-4 2v3l4 4l-2 2l2 5l9 6l2-2l7 1l3 6l-3 8l7 5h-1l6 5l4 2h1l4 4h1v-1l10-4l2 1l2 1l3-4l-5-4l-4-1l-6-4l-3-1l-2-2v-3v-19v-3l-1-2h20h10h2h6h3v4v14v3v17h2l2 3l2-1l1 3l1 1l-1 3v1l3 1l2-1h3h1l3 2l1 1l4-3l2-4l4-3l1-1l5-1l5-4l1-2l-3-1l-6-4l1-3v-4l3-4h1l5 2h1l2-3l-5-5v-2v-1h3l-2-5l1-4l-4-2v-3v-1l-3-3v-5l-3-11l-8-5l-3-3l-1-4l-13-8l-3 1l-5-6l-4-13l-2-2l-2-5v-14l-1-18h-9l-19 1h-4h-1h-16l-3 13l-7 21l-8 30v5l-5 8z"/><path id="24009" d="m628 294l1 3v4l2 2l-1 2l-2 2l4 1v2l-2 2v4l3 2l1 3v6l-2 5l2 8v5l2 3l-2 7l5 8l-1 2l7 6l4 6h2l8 5l2 3h4l8 7l4 8l-1 5l4 1v-2l3 2l1 1l4-1h3l4-5l4-6v-6l-1-2h-1l-2-2l-3-5l-5-6l-3-2l-1-1v-1v-1l-8-9l-3-6l-2-7l-1-3l1-5l-1-10l2-7l-1-4l-2-5l-2-9v-6l1-4l-2-3h-11l-9-1v-12l-4-1l-10 7v1l1 1l-1 1h-2v1v2l-1 3z"/><path id="24011" d="m782 289l2 2l3 4v3h4l1 4l6 3l2-1l7-3l2-4l2 2h4l1-1l6-2l9 3v5l8-3l13 15l-2-20l-1-17v-11l-1-6v-2v-1v-4v-6h-1v-8l-3-52l-1-6v-6v-1v-7l-10 3l-10 7l-3 7v4l-5 4l-5 11l-6 6l-5 7l1 4l-4 6l1 6v10l6 9l-1 4l7 8l-3 2l-5 3l-4 5l-4-1l-7 8l1 3z"/><path id="24013" d="m490 24l3 5l-2 1l5 5l3-1l2 4l2-3l7 8h6l6 6v6l4 1l10 10v2l-2 3v6l-7 12l-2 13l-2 6l3 1l12-6l8 3l9 3l12-4l9 3l11 1l2-2l-4-4v-3l4-2l-2-3v-6l-3-3l2-3l-1-5l5-8v-5l8-30l7-21l3-13h-4h-1h-16h-2h-2h-8h-13h-1h-11h-3h-35l-3 4l3 2l-6 1l2 5l-7 4l-3 5v4l-3 1z"/><path id="24015" d="m733 0l5 11l9 7l6 12l9 12l2 3l2 3l3 5l2-1l4-1h4h5l2-3l1-1l3 1h2l1 3v3l-2 2l-2 6l-2 7v3l-2 2l-2 5l1 1h1l1-2l2-1l3 3v1l-1 3l-4 2l-2 4l-2 2l-4 2l-1 2v2h1l7 1v2l5 3l4-2l5 2l3-1l1 1h6l2 2l5-2l2 1l3-2l3-1l1-2h2h2v2l9-1v-11l-2-19l-1-16v-5l-1-17v-3v-3v-2l-1-3v-3v-4v-3v-5v-7h-2h-3h-42h-3h-4h-21h-3z"/><path id="24017" d="m501 352l-2 8l3 14v2l-1 4l3 9l8 6h2l4-1l12-8l2-2v-1l1-2h3v1h4l1-2l2-3l7-5l1-1h6l3 7l1 3l2 4l1 10l2 4l5 4l2 1l3 3l1 1h1v1v6l3 1l5 3l5 2v1l4 3l1 1l1-2l1-3v-1l-2-4l-1-3l-2-4l-1-3l-2-2l1-4l1-3l1-1l2 1l-1-3l-5-5v-2l5-3l7-10l10-21l14-1l1 1v1h1v1v-1l1 1v1l3 1l3-2l2-7l-2-3l-6-2v-1l-1 1l-8-5l-1-10l-1-7h-2l-24-12l-11 2l-12-2l-7 2l-5 2l-6 9l-7-22l-2-4l-1 1l-2 1h-1l-4 4l-2 3l-1 4v3l1 2v2h4h2l-1 3l-4 2l-1 1l-4 3l-5-1l-3 2l-6 9l-2 4l-2 1h-2l-2 4l-2 4z"/><path id="24019" d="m764 463l1 3l1-1h1v-1l5-2l1 1l2 1l4-8l-1-3v-3l3-1v-1l-6-8h-5l-4 3l-1 12l1 3l-1 3zm-54-106l1 5v1l2 4l5 5l4 8l1 3l-1 3l3 5l4 4l-3 6l2 5l6 1v1l1 1l2 2l3 5l1 1l2 3v1l2 3l3 5h1l3 2l3 1l2-2l6-4h1h5l1 4l3 4l6 3l-1-4l-2-4v-2l1-1l3-8l-1-2l-5-5l1-1v-3l1-1h2l4-3l1-6v-1v-1l1-3l1-1l7 3l2 7v2v3l-1 1l-3 1l-6 1l-2 1v1h2l4 7v1h1v4l3 3l1 2l-1 4l6-2l1-2l-1-1h-1l-1-1v-3l1-1l3-1l-1-8l3-6l3-6l6-3l5-2l1 2v-9l5-1l-3-4l2-6l5-4l-3-3l4-6l-1-5l1-2h2l3-1l8-6l1-4l2-3l5-1l5-5v-7l-1-2v-7v-2v-1v-3l-13-15l-8 3v-5l-9-3l-6 2l-1 1h-4l-2-2l-2 4l-7 3l-2 1l-2 2l-1 5l-6 7l1 4l-2 6l-9 5l1 2h-1l-3 3l-3-3l-5-5l-2-2l-5 2l-4-2l-3-3l-2 2l-4-1v-4l-1-5h-1l-3 2l-3 3l-2 1l-4-2l-2-4l-2 1l-4 3h-2l-1 2l1 2l1 1l-1 2l-4 2l-3 2l-1 1l4 1l2 2l1 2l1 2l-1 2l-1 2l1 1h1l5-2h1l1 1l-1 2v1v1l-3 4v1h-1l-4 1v-1h-1l-7 2l-2-1z"/><path id="24021" d="m408 117h1l1 2l4 1l2 1h1l5 2l2-1l2 1h1h1l2-1h2h1h1v1v2v3l2 2v1l1 1h1v1l1 1l1 1h3v1l3 1l3 1l2 1l1 2l2 2l3 1v1v1v1l1-1l38-22l1-1l4-2l21-13h1l2-6l2-13l7-12v-6l2-3v-2l-10-10l-4-1v-6l-6-6h-6l-7-8l-2 3l-2-4l-3 1l-5-5l2-1l-3-5l5 3l3-1v-4l3-5l7-4l-2-5l6-1l-3-2l3-4h-6h-49h-2l-5 7l-4 3l3 3l-6 10l-3 3l-8 3l-4 14l-1 3l-1 6l-4 4l-2 8l2 3l-2 3l2 3l-4 7l-2 13l-3 10l-4 7z"/><path id="24023" d="m0 125v4v1v4v17l3 1l1-1l4-2l3-1l3-4v-1l1-2h2l6-7l2-3h3l2-1l2-2v-1v-2l3-1l4-2l3 2h2l2-3v-4l3-2l3-2h1v-5v-1l4-1l1-1h2h2l2-4l1-3h1h1h2l1-1h1l1-1l1-1l-1-1l2-3h1l1 1h1l1-1v-1l1-1h1h1v-1v-1v-1l1-1h1v-1h1v-1v-1l2-1v-1l2-4v-1v-1v-1h1l2 1l3-1l1-2l15-35l16-36h-1h-25h-3h-76l-19 1v22v1v3v29h-1v2v1v52h-1z"/><path id="24025" d="m657 0l1 18v14l2 5l2 2l4 13l5 6l3-1l13 8l1 4l3 3l8 5l3 11v5l3 3v1v-1l2 1l5 1h2h1l2 2v5l-4 2h1l5 2l-1 6l2 4l-1 4l3 1l2-7l4-5l-2-5l-5-3l4-6v-4l3-3l1-6v-5l5-2l1 9l-4 6l-2 7l3 6l3 2l6-4l2-3h2l2-4l3-4h3l5-5l1-2l4-2l4-1v1l5-3v-2l-2-6l-3-1h-3l-2-1l-2-2l-1-3l5-12l5-1l-3-5l-2-3l-2-3l-9-12l-6-12l-9-7l-5-11h-1h-32h-3h-2h-4h-5h-11h-6z"/><path id="24027" d="m518 112l4 8l7 6l1 4l1 3h6l8 4l2 4l3 1l3 5l5 4l1 7l2 4l5 2v3l5 1l-1 4l6-1l3 2l1 1l6-1l4 5l6 3l3-2l4-4l5-2l2-5l8-9l5-1v-2l2-4l4-3h-1l-4-4h-1l-4-2l-6-5h1l-7-5l3-8l-3-6l-7-1l-2 2l-9-6l-2-5l-11-1l-9-3l-12 4l-9-3l-8-3l-12 6l-3-1h-1z"/><path id="24029" d="m724 163l-1 5l4 1l2 3l4 12l1 3v6l-2 5l-1 1v3l3 3l5 3l2-1l-2-3l-1-5v-2v-3v-2l2-6l4-3h4h2l9-3l6-6l4-3l-2-3l8-4l2-3l-2-3l-4-1l-1-2l3-5l7-5h1l3-4h4h1v-1v-1h1v1h1l1-1h1l1 1l1 1h1l1-1l1 1h1l4-1h1h1l4-1h1v-1h-1l1-1h1v1h1h1h1l2-3l6 1l7 4l12-1l-1-15l-2-23l-9 1v-2h-2h-2l-1 2l-3 1l-3 2l-2-1l-5 2l-2-2h-6l-1-1l-3 1l-5-2l-4 2l-5-3v3h-1l-3 2l-3-2l-3-1h-14l-1 3l-5 3v2l1 1l-3 2l-3-1l-3 1l-3 4v1v1l1 1l1 1v2l-1 2l-1 2l-4 4h-2l-2 3l-3 8l-4 10l-1 2l-2 3z"/><path id="24031" d="m442 168v1v2v3l1 1v1h1l4 2h1l2 1l1 1l1 2l1 2l1 2l1 3h1l1 1h4l3 1h2l2 1h1h1l3 1l1-1l1 1h2h1h3l2-1l1 1l1 1h1l2 2h1h3l1 1l5 4h2l2 1l1 1h1v2v1l-1 1l-1 3v2l1 1h1l-1 2l4 3v-1h1l1 1l1 1l2 1v-1l2 1h1h2h1h3h1l3 1h1l2 3l2 2l1 2l1 2l4-4h1l2-3l1-1l3-3l4-4l3-3l1 1l5 5l2 1l1 2l3-3l-1-5l4-7l1-1l4-7l8-14l2-7l5-4l-6 1l-1-1l-3-2l-6 1l1-4l-5-1v-3l-5-2l-2-4l-1-7l-5-4l-3-5l-3-1l-2-4l-8-4h-6l-1-3l-1-4l-7-6l-4-8l4-4l-21 13l-4 2l-1 1l-38 22l-1 1l-2 2l-1 1l-1 2v2v1v1l-2 1l-4 1l-2 1l-1 2l-1 3l-1 4z"/><path id="24033" d="m543 295l-2 1l2 4l7 22l6-9l5-2l7-2l12 2l11-2l24 12h2l1 7l1 10l8 5l1-1v1l6 2v-5l-2-8l2-5v-6l-1-3l-3-2v-4l2-2v-2l-4-1l2-2l1-2l-2-2v-4l-1-3v-1l1-3v-2v-1h2l1-1l-1-1v-1l-3-2l-3-7l2-3l-1-8l3-2l1-11l4-7l-1-3l2-3l-5-5l-2-18l-10-9l-2-5l-5-3l-3-1l-3-4l-7-2l-1-1l1-1l1-5l-3-3l-6-3l-4-5l-5 4l-2 7l-8 14l-4 7l-1 1l-4 7l1 5l-3 3l2 2l12 11l1 2l2 2l4 4l-2 2h-1l-6 7l-1 1l-1 1l-1 1l-4 4l-3 2l-2 2l-5 6l-3 3l-1 1v1v3v2v6v2v1v3v2l-1 1l-2 2h-2l-2-1z"/><path id="24035" d="m701 254v3l2 1l1-4l3-2h2l1-1l1-1l-1-6l-1-2l1-4l3-2h1l2 4l4-1v-2l-2-3l1-3l5-3l2 3v2l1 1h1h1l1-1l-1-1v-4h4v-1l5 2l2 2v11l1 3l-1 6l1 2v1l2-4l2 2l2-2l2-4l3-1l4 1l1 1l1-2h4l1-2l-3-5l1-2h-1v-1v-1h1v-1v-1v-1l1-1v-1v-1h1l2-1l32 7l-1-6l4-6l-1-4l5-7l6-6l5-11l5-4v-4l3-7l10-7l10-3l-1-6v-4l-1-20l-12 1l-7-4l-6-1l-2 3h-1h-1h-1v-1h-1l-1 1h1v1h-1l-4 1h-1h-1l-4 1h-1l-1-1l-1 1h-1l-1-1l-1-1h-1l-1 1h-1v-1h-1v1v1h-1h-4l-3 4h-1l-7 5l-3 5l1 2l4 1l2 3l-2 3l-8 4l2 3l-4 3l-6 6l-9 3l3 1l-1 4l-1 1l-1 3l-2 1l-2 1l-2 3l2 5l2 3l1 3v3l-9 8h-4l-2-2l-7-2l-1 1h-3l-3-6l-2-7v-1v-3l-3 1l-1 4l-1 4v1v2l-7 12l-2 5l-1 10l1 9z"/><path id="24037" d="m589 387v2l5 5l1 3l2 1l2 1l-3 3l2 2l2 5l1 5l4 4l-1 8h-1v1l3 4l4 2l6 2l2-2l1-2l5 1h1h6l3-1l7 3h2l10 3l4 4l1 1l3 3l1 3l1 3l1 4l2 5l2-1l2-1h1l2 1l2 3l2 3l1 4h1l2-1v-1l-1-1v-1v-1l1-2l1-2l-2-5l2-1l5-1v2l1 2l-1 2l2 3v2l2 4l1 1v-1h1h1l3 1l5 7l2 6l2 1h3l2 1l1 2l1 2l1-2l-2-8l-1-8l-1-3l-1-3h1l4-5l-3-5l-5-6l-2-4l-5-8l-3-12v-2l1-3l4-5v-1l-1-1l-5-3l-1 2l-4 1l-3 3h-3l-3-2l-2-4h-1l2-3l-4-1l1-5l-4-8l-8-7h-4l-2-3l-8-5h-2l-4-6l-7-6l1-2l-5-8l-3 2l-3-1v-1l-1-1v1v-1h-1v-1l-1-1l-14 1l-10 21l-7 10l-5 3z"/><path id="24039" d="m797 452l-2 7l2 6l1 1l2 1v-4l3-2l4-2l1-1l5 1l2 1h1l1-2h2l1-1h1l4 3l-3 6h-1l-5 4l-1 3l-2 4l1 4l1 1l3-1l-1-1l1-1l3-1l5 1v1l2 2l-3 3l-1 1l-2 1l-2 2l-1-1h-1h-3l-1 1v2v4l-2 3l-4 8l2 5v5v2l-1 2l1 2l2 2l5-2l1-1l2-1l3-2l1-2l2-2l3-3l5-5l2 1h4h1h1l3 2l2-1l1-1v-1l2-1l6 3h4l1 1l1 1l-1 1l-1 2h1l2 1h2v-6l1-1v-2l1-1l1-1l1-1h1v-1v-1l-3-8l-4-2l-1-5l1-1l4 2l4-3l1-5l8 1l2-5l7-1v-6l-8-10l6-5l1-5l-3-5l-4-4l-6-11l-2-8l-11-6l-8 7v1l1 1h-6l-1-2h-1v-2h-1h-1l-1 1l-1-1v-1h-1v1h-1l1-1h-1h-1h-1h-1l-1 3l-5 2l-1 2l-1 2h-8l-6 4l1 2l2 2l1 4l-4 3l-3 1l-1-1l-1-1l-12 5l-2 3l1 2zm-22 49v2v9h1h3h2h3h3l1-2l-1-4l3-4v-5l-1-5l-4-1l-1-3l-3-1l-5 2l-1 2v3v2zm-3-30h1l4 6l3 1h3l1-1v-6l-3-3v-3l2-1v-3h-1h-1v-1l-2-4l-4 8l1 1l1 1v1h-1l-1 1h-1z"/><path id="24041" d="m709 289l-2 12l2 5l4-3v-2l-1-5v-4h1l2-3l3 1l1 1l-1 1l6 2h1v-4l3-3h4v3v2v1v1l6 9l3 3v-1h5l5 5l2 6h4l3 4l7-1l7 7l4 5l1 3l9-5l2-6l-1-4l6-7l1-5l2-2l-6-3l-1-4h-4v-3l-3-4l-2-2l5-4l-1-3l7-8l4 1l4-5l5-3l3-2l-7-8l1-4l-6-9v-10l-32-7l-2 1h-1v1v1l-1 1v1v1v1h-1v1v1h1l-1 2l3 5l-1 2h-4l-1 2l-1-1l-4-1l-3 1l-2 4l-2 2l-2-2l-2 4v2l2 4l-1 2l-1 2l-5 1l-6-3l-1-1l-3-6v-1h-1l-2 4v2l-2 1l-2-1l-1 1l-2 4v5l-3 5l-3 1l-1 7zm-13-12l2 4l2 4l4-1l-2-5v-4l-2-3z"/><path id="24043" d="m253 19l5 2l2 4l5 2h1l5 3h3l1 1v-1h1v-2v-1l2-3l2-1l2-2l2-2l1-1l-2-3v-1h1h5l1-1l1-1l1-2l2-2h1h2l2 1l1 1h3h2v1h2l3 1h1l1 1h1l2 2h2l1 1v1l2 1l3 4l1 1l1 1l1 1l1 1l1 2l2 2l3 5l1 1h1h2h3h1l1-2l2-1l1 1l1 1v4l1 1h2v-2l1-4l-2-2v-1l1-1l1 1l1 1l1 2l1 1h1l3 1l3 1h1l1-1v-2l-1-2v-1l2 1l2 1l2 1h1h3h1l1 1v1l1 3l-1 1v2v3h-1v1h-1h-3l-3 1h-1h-1l-2 1h-1v1l1 1l3 2l1 2l1 1v2l-1 1v2h1v1h1h2l2-1v-3v-1h1h1h1v1l1 1v2l-1 1l-4 3l-1 1h1l1 1l3 1h1l3 1h3l2-1l1-1l2-1l1 1h1v1v1h-1l-3 1l-3 2v1v2l2 1h1v1l-1 1l-2-1l-1 2l1 1l2 1v1l-1 1l-1 1l-1 1l1 1l2 1h3h2l2 1l1 1v1l1 2l2 3l1 3v1h-1v1h-2h-1v1v1l2 4v1l-1 2l-1 1l-1 1l-1 1v1l1 1l1 1l4 2l2 1h1l1 1l2-1l2 1h1h2l1-1h1l1-6l4-7l3-10l2-13l4-7l-2-3l2-3l-2-3l2-8l4-4l1-6l1-3l4-14l8-3l3-3l6-10l-3-3l4-3l5-7h-15h-30h-1h-1h-11h-2h-2l-6-1h-4h-1h-19h-44h-1h-5h-24h-8h-1h-5h-14h-2h-1l7 9l-2 5h-5l2 4z"/><path id="24045" d="m804 423l2 2v1v2l2 4l1 1h1l1-1v-2v-1h1h2h1l1 1l6-4h8l1-2l1-2l5-2l1-3h1h1h1h1l-1 1h1v-1h1v1l1 1l1-1h1h1v2h1l1 2h6l-1-1v-1l8-7l11 6l35-2l19-1l4-7l7-6l4-6l-5-8l3-6l-6-14h-3h-4h-5h-4h-3h-1l-11-1h-5h-4h-1h-2h-6h-3h-2h-2h-1h-1l-7-1h-4h-3h-1h-6l-1-10v-1v-7l-1-6v-5l-5 5l-5 1l-2 3l-1 4l-8 6l-3 1h-2l-1 2l1 5l-4 6l3 3l-5 4l-2 6l3 4l-5 1v9v1l-2 4l-3 1l-2 6l-2 3v4l-1 4z"/><path id="24047" d="m862 485l1 5l4 2l3 8l14-1l26-3l16-2h1l20-2l5-1h2h2l6-10l5-10l4-10l4-14v-1l4-11l6-15l3-11l2-3h1h1l3-9l2-10l2-7l1-11h-1h-3h-1h-4h-12h-10h-4h-11h-2h-2h-16l6 14l-3 6l5 8l-4 6l-7 6l-4 7l-19 1l-35 2l2 8l6 11l4 4l3 5l-1 5l-6 5l8 10v6l-7 1l-2 5l-8-1l-1 5l-4 3l-4-2z"/><path id="24510" d="m625 103l1 2v3v19v3l2 2l3 1l6 4l4 1l5 4l2 1l5 6l2 2h1l6 2l3-2v-2l-4-1l-2-2v-1l1-2l-5-5l-1-3l2-1h1l6 3l2 4h1v-17v-3v-14v-4h-3h-6h-2h-10z"/></svg>
