<?xml version="1.0" encoding="UTF-8"?><!DOCTYPE svg PUBLIC '-//W3C//DTD SVG 1.1//EN' 'http://www.w3.org/Graphics/SVG/1.1/DTD/svg11.dtd'><svg viewBox="0 0 1000 855.736" xmlns="http://www.w3.org/2000/svg"><path data-id="05001" d="m584.8 540.8l-0.4 18l24 1.3l-0.5 4l4.5 -2.6l5 -0.1l3.8 1.9l0.2 7.5l2.6 3.1l-1.3 1.9l1.3 5.2l3.9 -1.6l0.3 5.3l3 -1.9l5.2 0.2l1.8 1.9l-1.1 1.2l2 5.9l-1.5 4l2 2.8l0.2 10.7l2.6 2.4l5.9 7.8l3.8 0l4.6 -4.9l5.7 0.5l-0.7 5l-6.4 3.7l0.9 1.8l9.4 -1.2l4.1 -2.8l2.8 0.2l1.8 3.6l2.2 0.1l2.4 -4.1l2.3 -1l2.8 1.4l0.8 4.2l2.1 0.5l6.3 -1.3l3.5 5l3.8 -4.3l-0.6 -1.7l-4.7 -4.1l0.4 -3.5l-2.9 -5.3l-2.3 -0.3l-0.6 -3.6l-1.8 -0.7l-0.4 -3.8l1.7 -3.3l-1.2 -1.9l5.1 -5.3l4.2 1.5l1.1 -5.7l4 0.8l0.9 -2.7l1.3 -2.7l2.6 -0.2l0.6 -2.3l3.4 -0.7l-2.4 -3l1.3 -0.8l-2.1 -4.3l1.8 -6.2l3 0.2l2 -3.7l-1 -5.3l-2.8 -2.7l3.3 -1.2l-2.2 -2.6l-0.9 -4.3l4 -8.6l0.3 -4.4l-7.4 -1.8l-2.5 -5.4l-3.4 -2.4l-1.5 -1.1l-1.6 -5.5l-5.5 -2.3l2.4 -2.4l-4.2 -6.9l-3.4 2.6l-5.4 -1l2.4 -3l-1.8 -4.1l-0.6 -3.4l-2.8 1.5l-6.3 -5.2l0.4 -6.2l-7.9 -1.7l1.9 -6.8l-17.4 -0.4l-43.6 -1.1l-0.2 21.4l-4.1 0.2l-12.5 -0.6l-5.5 -0.2l-0.9 42.6z"/><path data-id="05003" d="m500.1 815l-1.4 2.6l5.4 1.3l-0.5 6.1l-3.1 3.2l-0.8 5.3l0.7 6.4l3 0l1.2 9.2l4.8 0l3.1 5.7l23.6 0.2l15.5 0l24.1 0.2l3.9 -0.1l21.7 0.2l2 0l1.7 0l5.9 0l1.5 -0.1l2.6 0l11.9 0l2.2 0.1l5.8 0.1l0.6 -92.1l-29.9 -0.6l-53.6 -1.2l-3.7 0l-20 -0.4l0.7 2.6l5.4 2.3l-1.9 2l0.5 3.1l-4.1 3.7l2.8 4.9l-0.8 4.5l-6.4 1.1l1.6 2.8l-5.4 2.6l-2.8 -0.7l0.9 2.9l-1.4 2.2l-6 1.6l0.6 2.8l-2.7 -0.6l-0.8 3.6l-2.8 1.8l-2.7 -1.1l0.1 4l-2.7 -0.5l-1.5 3l1.1 5.4z"/><path data-id="05005" d="m407.3 35.2l2.9 4.2l8.9 -2.1l1.1 1.6l-1.2 3.7l-3.8 -1.7l-3.6 3.4l-0.6 4.1l4.4 -1.8l3 1.1l2.6 2.6l-4.1 8.7l4.6 -1.3l4.3 2.6l4.9 0.3l-0.4 7.2l3.4 3.2l-4 5.3l3.1 3.6l4.5 3.8l3.1 -3.6l-0.5 3.6l4 2.8l-1.6 0.7l-2 0l3.5 3.7l-0.5 17.9l-0.6 21.6l21.5 0.5l0.5 -21.6l21.6 0.4l0.4 -18.3l-4 -0.2l0.3 -10.4l10.9 0.3l0.6 -21.8l-0.2 -6.6l0.6 -15.3l0.2 -1.2l0.6 -31.1l0.2 -5.1l-9.9 0.1l-2.4 0l-1 0l-18.7 0.1l-1.8 0l-6.4 0l-5 0.1l-2 -0.2l-7.1 0l-4.8 -0.2l-14.6 -0.1l-2.5 0l-0.8 28l-3.3 -0.1l-0.6 1.9l-8 5.1z"/><path data-id="05007" d="m0 0l0.5 3.6l0.3 2.2l0.4 3.7l1.2 9.9l0.6 4.2l0.6 4.4l1.3 10.4l0.4 3.3l1 8.1l0.3 2.2l1.4 10.2l0.4 2.5l0.2 1.6l0.6 4.9l1 7.5l0.2 1.3l0.6 4.1l0.3 2.4l1.8 12.4l26.4 0.6l5.2 0.1l1 -10.7l10.8 0.1l0.3 -7.1l0.1 -2.6l0.3 -8.4l4.6 0.1l25.9 0.7l1.6 0l7.2 0.3l4.9 0.1l4 0.1l15.2 0.4l-1.3 -3.9l3.3 -1.6l2 4.8l3 -0.3l2 2.1l0.2 -6.2l2.9 1.5l2.8 -3.4l11.3 0.3l3.6 0.1l0.1 -18.1l10.8 0.2l-3.3 -1.6l-0.4 -2.7l-6.8 -3.1l0.2 -10.2l-2.7 1.9l-2 -2.3l1.7 -4.1l3.1 -0.1l0 -26.1l-7.9 0l-3.2 0l-7.5 0l-1 0l-22 0l-5 0l-2.4 0l-14.3 -0.1l-17.7 -0.1l-18.5 -0.1l-31.8 0.1l-8 -0.1l-11.8 0z"/><path data-id="05009" d="m265.1 80.1l-0.2 14.2l7.2 0.3l25.1 0.7l11 -0.4l7.3 0.7l21.1 0.2l10.9 0.3l0.3 -18l0 -32.9l0.3 -3.7l0.8 -39.4l2.2 3.8l3.8 2.8l0.1 -8.3l-8 0l-35.1 -0.1l-3.8 0l-7.7 0.1l-5.1 0l-28.1 -0.1l-1.5 0.3l0.5 19.9l-0.2 30.1l-0.3 16l-0.1 13.4z"/><path data-id="05011" d="m449.7 774.4l0.6 6.7l5.7 3.8l-1.7 4.1l6.1 0.5l0.5 4.1l3.5 -0.5l2.7 -3.8l0.5 3.8l5 0.1l0.6 2.4l3.8 0.9l2.2 -1.9l2.2 1.1l-1.4 5.4l4.1 1.9l-2.1 0.4l0 3.1l5.4 1.8l3.3 -2.7l-0.6 5.9l1.9 0l2 3.9l-1.6 2.2l4.1 -1.9l2.5 1.8l1.4 -2.6l-1.1 -5.4l1.5 -3l2.7 0.5l-0.1 -4l2.7 1.1l2.8 -1.8l0.8 -3.6l2.7 0.6l-0.6 -2.8l6 -1.6l1.4 -2.2l-0.9 -2.9l2.8 0.7l5.4 -2.6l-1.6 -2.8l6.4 -1.1l0.8 -4.5l-2.8 -4.9l4.1 -3.7l-0.5 -3.1l1.9 -2l-5.4 -2.3l-0.7 -2.6l-2.4 -4.2l2 -4.8l-3.9 -2.5l-0.7 -2.6l3.1 -4.1l-1.8 -3.1l2 -3.2l-1.8 -7.1l6.4 -0.1l0 -40.4l0 -1.8l-41.9 -0.2l-20.3 -0.1l-9.2 -0.5l2.2 6.2l-1.3 4.3l1.1 8.3l-1.5 3.2l1.6 7.7l-0.7 3l2 5l-1.8 6.6l2.3 5.4l-2.1 3.8l0.4 4.2l-1.6 6.1l-2.5 3.7l-0.2 3.4l-2.8 3.1l-0.9 5.3l-2.9 0.3l-1.5 8.7z"/><path data-id="05013" d="m370.4 725.8l-0.2 1.6l3.6 1.6l-2.9 5l3.6 2.2l-2 2l2.5 2l3.1 -0.4l0.3 -2.2l4 3.2l-1.7 5.2l1.6 2l2.8 -0.4l-0.5 5.4l6 0.2l4.4 -0.8l-0.4 2.7l3.7 1.9l-1 4.6l4.3 -3.1l6.9 2.7l1.3 6.1l2.4 -1.4l0.1 2.7l4 0.3l2.9 2.4l1.9 9.5l3.9 -2.5l3.1 2.7l1.5 -2.9l4.4 5.9l-2.8 2.2l2.7 2.6l1.3 -1.1l1.6 3.1l2.9 1.2l10.2 -2.1l6.1 -4.9l-5.7 -3.8l-0.6 -6.7l1.5 -8.7l2.9 -0.3l0.9 -5.3l2.8 -3.1l0.2 -3.4l2.5 -3.7l1.6 -6.1l-0.4 -4.2l2.1 -3.8l-2.3 -5.4l1.8 -6.6l-2 -5l0.7 -3l-1.6 -7.7l1.5 -3.2l-1.1 -8.3l1.3 -4.3l-2.2 -6.2l-2.2 -8.5l3 -8.4l-1.4 -4.2l-50 -1.7l-0.4 15.9l-0.9 1.9l-2 2.5l0 1.8l-7.1 4.4l-3.5 7.7l-14.3 2.3l-1.9 8.6l4.6 6l-1.5 9.3l-1.9 -2.7l-3.9 4.5l-3.7 -1.9l-2.3 2.2z"/><path data-id="05015" d="m148 26.3l-1.7 4.1l2 2.3l2.7 -1.9l-0.2 10.2l6.8 3.1l0.4 2.7l3.3 1.6l31.8 0.9l-1.1 7l4.7 -2.1l1.8 1.4l-2.1 2.4l4.7 2.3l-0.4 14.4l1.7 3.6l5.4 0.2l-0.1 4.8l0 2.6l7 0.2l-0.1 7.2l14.4 0.3l7 0.2l28.9 0.7l0.2 -14.2l0.1 -13.4l0.3 -16l0.2 -30.1l-0.5 -19.9l1 -0.3l-4.4 0l-16 0l-6.5 0l-16.2 -0.1l-1.4 0l-14 0l-19.1 0l-4.2 0l-2 0l-1.8 0l-1.7 0l-28 0.1l0 26.1l-3.1 0.1z"/><path data-id="05017" d="m635.5 763.3l-0.6 92.1l1.4 0l3.5 -0.1l2.1 0l9.9 0.1l8.6 0.1l1.4 0l2.9 0l5.6 0.1l3.9 0l19.9 0.2l0 -1.7l0.8 -2l1.2 -0.9l1.3 -0.7l1.5 -0.2l1 -0.4l1.7 -1.2l0.7 -1.1l0.4 -2l0.6 -1.9l-0.2 -1.1l-0.7 -1.2l-5.1 -4.2l-2.2 -1l-1.1 -0.1l-1.1 -0.4l-0.6 -1l-1.2 -1.6l-3 -1.5l-1 -0.9l-0.2 -3.1l1.4 -3.2l1.3 -1.2l1 -0.5l2.9 -0.2l1.6 0.2l1.8 1.6l0.5 1.1l1.4 0.2l2.3 0.2l3.5 -0.2l2 -0.4l2.2 -1.2l1.2 -2l0.4 -2.6l0.1 -1.4l0.1 -4.6l-0.5 -4.2l-0.6 -2.8l-0.4 -2.6l1.2 -0.2l1.3 -0.4l0.4 -1l1.4 0.1l0.4 -1.4l0.9 -1.1l2 -2.1l0.7 -1.2l0.6 -2.1l0.5 -1.3l0.2 -1.1l0.1 -1.2l-0.3 -1.1l-1.4 -1.5l-1.3 -0.4l-1.7 -0.1l-1.1 0.3l-1.2 0.6l-1 1.1l-0.5 1.2l-0.8 3.9l-0.9 1.6l-0.4 2.1l-1.8 -0.1l-0.9 -1l-0.8 -1.7l-0.6 -1.9l-2.2 -1.8l0.5 -1.5l0 -1.3l-2.9 -3.9l-0.3 -4.3l-0.4 -3.4l0.4 -1.1l-0.1 -3.8l3.4 -2.7l3.6 -5.1l1.1 -1.5l2.1 -2.1l3.1 -2.5l2.6 -3.7l0.8 -1.8l0.1 -4l-0.5 -1.2l-1 -0.8l-2 -0.5l-1.5 0.4l-1.9 1.9l-1 2.1l-0.2 1.4l0.4 1.5l0 2l-0.8 2.2l-1.6 2.2l-1.3 1.4l-2 1.3l-3.5 1.7l-2.6 0.4l-2.5 -0.2l-1.1 -0.3l-1 -0.4l-2.9 -1.6l-2.7 -2.2l-0.9 -1.2l0.1 -1.2l0.7 -1.3l1.1 -1l1.5 0.1l1.5 -0.4l1 0.6l3.2 -1.2l3.2 -1.2l1.8 0.1l1.5 -0.7l0.7 -1.4l1.5 -1.8l0.5 -1.3l0.1 -1.1l-0.3 -1.5l-1.1 -3l-2.3 -2l-4.2 -2.8l-1.4 -1.1l-1.7 0.2l-0.7 1.4l-0.3 1.1l0 1.8l0.3 1.7l0.8 2.3l0.5 2.3l-1.6 2.2l-1.9 1.2l-1.5 0.5l-2.4 0.6l-2.1 -0.2l-3.6 -1l0.3 -1.2l0.2 -2.4l1.9 -2.2l1.5 -0.5l1.4 -0.9l0.6 -1.2l1.2 -2.3l0.8 -1.3l1.3 -1.1l1.3 -1.3l-0.3 -2.1l-6.3 -5.4l-2.1 -2.8l-0.7 -1.4l-0.5 -1.4l0 -1.1l0.3 -1l-2.8 0l-0.2 10.7l-15.9 -0.3l-1.7 -3.6l-2.6 0l-0.9 3.4l0.3 -10.7l-20.9 0l-0.8 42.1z"/><path data-id="05019" d="m224.5 553.9l-0.1 9.6l8.1 2l3.8 -0.6l-3.5 4.4l2.4 2.4l-1.4 5.4l1.3 2.9l-1.5 3.8l3 2.4l-0.7 1.5l2 10.6l0.2 5.1l3.5 2.7l2.4 8l2.6 1.2l2.6 3.6l-0.3 3.2l1.4 3.9l-0.1 1.4l5.6 3.6l1.8 5l6.6 4.4l-0.7 3.9l3.5 9l1 0.2l1 0.6l1 0.1l3.5 3l4.6 -0.7l7.3 2.7l3.8 4.9l4.7 -3.3l3.1 -0.4l2.3 5.6l3.2 3l1.7 0.7l3.6 0.1l1.6 -2.4l3.3 0l6 4l4.8 -2.1l3.1 0.3l10.6 -5.5l0.3 -2.8l4.1 -2.4l4.4 3.7l-0.7 -2.4l2.3 -2.4l-1 -1.9l3 -0.8l-1 -4.5l-3.2 -0.3l-2 -10l3.3 -1.1l-2.9 -1.3l-0.2 -2.4l-5.3 -4.8l-1.1 -5.5l-4.1 -3.2l2.5 -3l11.3 0.7l0.9 -27.9l0.5 -14l-28.9 -1.2l-1.8 1.3l-0.8 -6l2.1 -4l1.3 -1.3l-1 -2.8l-1.5 -1.9l0.8 -3.6l-10 0.2l-1.1 -2.5l-22 -0.6l0.2 -7.1l-10.6 -0.3l-20.1 -0.4l-1.1 0l0.2 -14.2l-10.5 -0.2l-14.2 -0.3l-0.3 21.3l-4.2 -0.1z"/><path data-id="05021" d="m766.5 52.8l-0.1 5.3l18.3 -0.3l49.6 2l30 0.2l-0.2 14.6l26.3 -0.2l1.5 -0.9l5.4 -2.2l2.8 -3.4l3.2 -0.5l0.1 -3.5l2.2 -5.5l6.3 -1.7l1 -4l3 -3.6l-3.2 -3.9l0.5 -5.6l2.8 -4l-0.5 -7.3l-2.9 -3.6l-5.8 -0.8l-4.3 -2.7l-2.6 -2.3l1.9 -3l-1.5 -5.8l-0.2 -3.1l-3.4 -2.2l1.1 -3.6l-8 -0.7l-4.7 0l-2.4 0l-22.3 -0.1l-31.1 0l-1.1 0l-15.3 0l-1.8 0l-1.8 0l-2.2 0l-1.4 0l-7.2 0l-1 0l-8 0l-3.7 0l-10.9 0l-3.4 0l2.6 3.3l-1 9.5l-1 2.4l4.5 3.9l-2.7 2.2l4.4 0.1l-0.6 32.2l-2.7 -0.8l-3.3 0.7l-2 -2.3l-2.9 1.3z"/><path data-id="05023" d="m476.4 242.6l-0.8 39.5l14.2 0.3l11.9 0.1l2.3 -0.2l52.2 1.1l0.4 -19.3l2.7 -1.1l1.6 -3.4l1.9 1.2l4.7 -1.4l0.4 -19.4l0.8 -43.9l-3.5 1.8l-6.1 -0.1l-39.2 -0.7l-41.9 -1.1l-0.2 16.2l-0.5 19l-0.1 7.9l-0.8 3.5z"/><path data-id="05025" d="m431.6 601.7l-0.8 20.5l3.9 0l7.2 8.3l3.9 6l1.4 6.5l2.6 4.2l5.6 3.9l3.2 6l0.6 8l1.4 4.2l-3 8.4l2.2 8.5l9.2 0.5l20.3 0.1l41.9 0.2l0 -21.1l-0.1 -44.9l4.7 0l-0.2 -21.1l-7 0.1l-16.4 0.1l-32.9 0.3l-20.8 0.7l-27.1 0.6z"/><path data-id="05027" d="m226.7 852.3l4.7 0l18.1 0.1l7.4 0l6.4 0l14 0l4.6 -0.1l3.7 0.1l8.7 0l7 0l3.7 0l4 0l1.7 0l17 0.1l0.5 -19.3l1.6 -67.2l-7.1 -0.2l-21.1 -0.6l0.5 -17.5l-21 -0.5l-0.1 3.5l-21.2 -0.8l-7.8 -0.2l-2.2 2.9l-8.9 25l-1.6 3l0.6 1.7l0.5 1.8l-2.6 2.9l0.7 3.1l-1.9 4.4l-8 -0.4l-1.8 58z"/><path data-id="05029" d="m317.1 344.8l2.9 5.1l-2.9 2.8l12 0.3l3.7 -0.1l10.7 0.3l38.8 0.7l8.2 -1.6l5.3 -6.4l5.1 -1.1l-0.3 4l-3.8 2.1l-0.2 1.9l4.6 -0.3l4.5 -1.9l7.3 -7.5l1.8 0.6l2.3 -3.1l4.4 2.8l2.8 -5.4l1.5 -9.1l-5.7 -3.9l1.3 -7.8l-1.9 -0.7l5.5 -3.9l-2.1 -4.1l6.1 -5.8l0.6 -21.6l0.4 -21.5l-17.7 -0.4l-57 -1.5l-0.7 50l-0.1 21.5l-8.3 0.5l-5.7 0.6l-6.4 6.9l-4.6 2.2l-0.2 3.3l-12.3 2.2z"/><path data-id="05031" d="m720.5 175.1l-0.4 21.8l65 0.8l21.9 0.2l20.9 -0.7l21.9 1.5l21.1 0.3l-0.4 -73.6l-10.2 0.1l-5.8 0l-1.8 0l-1.9 7.7l-14.7 -0.1l-7.2 0l-18 -0.1l-3.5 0l-12.6 -0.2l-37.4 -0.4l-1.9 3.1l0.9 1.2l-0.8 6.7l-2.2 -0.1l-0.1 10.8l-32.1 -1l-0.5 22z"/><path data-id="05033" d="m25.1 184.3l0.9 7.4l3.1 22.5l1.5 11l0.2 1.3l0.3 1.5l1.3 10.5l1.4 10.8l2.5 16.9l4.8 -4.6l5.3 -0.3l5.9 4.7l3.8 5.1l-1.8 6.8l1.1 2.3l7.5 4.6l5 -1.7l4 1.5l3.6 -0.3l1.7 0.3l5.8 -1.5l3 -6.9l4.5 2.4l5.7 -1.6l0.8 -3.6l-5.3 -8.9l0.9 -1.6l3 -2.1l11.2 1.9l2.4 -0.7l9.6 -3.8l-5.5 -4.2l2.7 -1.1l-1.3 -1.9l-0.3 -1l1.7 -1.4l1.5 -0.6l-1.4 -10.6l3.4 -3.1l0.1 -4.3l-10.7 -0.3l0.3 -14.3l0.2 -7.2l18 0.4l0.3 -10.7l3.6 0.2l0.1 -7.1l10.6 0.3l0.1 -3.6l3.7 0.1l0.1 -3.6l-3.7 -0.1l-10.5 -0.3l-28.9 -0.8l-3.6 -0.1l-0.1 3.5l-17.6 -0.6l-13.8 -0.4l-21.4 -0.6l-21.2 -0.5z"/><path data-id="05035" d="m827.4 284.5l-0.7 43.2l0.7 8.5l20.6 -1l-1.5 35.8l-0.1 24.1l0.1 17.4l1.3 -0.6l4.4 -2.6l5.6 -1.8l2.4 -1.8l1.6 1.9l1.9 1.5l2.4 0.6l1.5 -1.6l0.3 -1.4l-0.3 -1l-1.8 -2.7l2.3 -2l4.5 -2.5l5.9 -4.2l0.8 -1.7l0.4 -1.7l0.1 -4.1l-0.3 -1.6l-0.7 -1.7l-1.9 -1.6l-3.7 -1.8l-1.8 -1.8l-1.2 -0.5l-1.9 -1.8l-1.4 -3.3l-0.2 -2.1l0.1 -1.3l0.6 -2.1l1.2 -2.6l0.7 -2.2l1 -0.9l5.4 0.4l0.6 1l1.2 0.5l5.2 0.8l1.2 0.3l1.7 1l1.4 -0.1l1.9 -1.5l0.8 -1.1l-0.2 -1.5l-0.1 -1.7l0.1 -1.3l0.3 -1.4l2.8 -7.3l0.9 -5.1l0.7 -1.5l1.7 -1.8l1.1 -0.9l3.1 -1.5l1.2 0.3l6 3.7l1.8 0.5l2 -0.4l1.5 -0.9l2.5 -2.4l0.9 -1.1l0.4 -1.1l-0.4 -2.6l-4.8 -1.2l-1.2 -1.1l-1.3 -1.8l-1 -1.7l-0.2 -1l-1 -0.8l-0.6 -1.5l0.3 -2.7l1.4 -0.1l2.3 1.1l0.8 -2.1l0.9 -2.2l1.5 1.1l1.4 -0.9l0 -1.4l-0.6 -1.8l-1.2 -1.8l-0.7 -1l-0.9 -1.6l-1.4 -1.9l-1.4 -1l-1 -0.3l-1.3 -0.1l-1.4 0.2l-1.7 0.4l-1.7 0.2l-2.4 -0.9l-1.4 -1.6l-1.6 -3l-0.4 -1.1l0.7 -3.5l0.8 -1.4l1.6 -0.9l2.8 0.9l1.4 -0.4l1.7 -1l1.3 0.3l1.6 -0.4l0.5 -4.8l0.6 -1.9l-1.3 -2.6l2 -2.2l0.7 -1.4l1.3 -0.9l1.3 -2l1.8 -3.8l-1 -0.3l-1.6 -1.4l-1.2 -0.6l-2.2 -2l-1.2 -1.8l-1.3 -0.8l-2.7 -0.5l-1.5 0.6l-1.2 1.2l-0.5 1.8l0.1 1.1l0.5 1.8l1.6 2.7l-1.9 0.5l-4.3 0l-1.2 -0.7l-1.2 -1.1l1.5 -6.9l0 -2l6.1 -4.5l-29.5 -0.5l-10.9 -0.1l-32.5 -0.6l-0.1 21.6z"/><path data-id="05037" d="m719.5 284.4l-0.6 50.7l42.9 -0.1l1.4 0.1l20.2 0.1l16.9 0.7l5.2 -0.3l21.8 0.7l-0.7 -8.7l0.7 -43.2l0.1 -21.6l-21.8 0l0 -1.8l-21.2 -0.2l-21.7 1l-21.6 1l-21.1 -0.3l-0.7 11.1l0 10.9z"/><path data-id="05039" d="m335.6 618.9l-2.5 3l4.1 3.2l1.1 5.5l5.3 4.8l0.2 2.4l2.9 1.3l-3.3 1.1l2 10l3.2 0.3l1 4.5l-3 0.8l1 1.9l-2.3 2.4l1.3 1.5l1.6 0l60.3 1.9l50.5 1.7l-0.6 -8l-3.2 -6l-5.6 -3.9l-2.6 -4.2l-1.4 -6.5l-3.9 -6l-7.2 -8.3l-3.9 0l0.8 -20.5l27.1 -0.6l-7.5 -3.7l-0.1 -2.8l-3.8 -4.4l-2.3 -2.7l-4.2 -2.4l-4.4 0.6l-4.2 -3.5l-4.6 1.1l-0.4 -2.7l-37.1 -1.3l-27.3 -0.5l-14.5 -1l-0.5 14l-0.9 27.9l-11.3 -0.7z"/><path data-id="05041" d="m615.8 646.8l-0.4 21.2l11.6 0.7l10 0l-0.6 52.4l20.9 0l-0.3 10.7l0.9 -3.4l2.6 0l1.7 3.6l15.9 0.3l0.2 -10.7l2.8 0l1.4 -1.5l4.2 -0.8l1 -0.3l1.9 -1l1.6 -1.3l1.1 -0.4l3.1 0.4l1.8 -0.3l2.8 -2l1.2 -1.5l0.4 -2.2l-0.1 -1.2l-0.4 -1.2l-1.3 -2.3l-2.3 -1.8l-2.8 -2.5l-1.4 -1.1l-1.4 -0.8l-1.4 -0.6l-5.2 -1.2l-1.6 -0.7l-1.5 -1.7l-0.5 -2.1l0.2 -1.3l0.5 -1.1l0.9 -1.3l1.7 -1.3l1.3 -0.6l3 -0.3l2.9 -0.3l2 -0.5l1 -0.5l3.4 4.2l2.2 3.1l6.5 3.9l1.4 0.5l1.2 0.2l1.9 -0.2l2.3 -1.1l1.6 -0.9l1.7 -0.4l2.7 -0.8l1.1 -1.6l0.2 -2.3l-1.2 -0.3l-0.6 -1.8l-1.5 -2.3l-1.8 -1.5l-1.7 -0.9l-2.3 0.4l-2.9 1.7l-2.3 0.6l-1.3 0.1l-2 -0.2l-1.6 -0.8l-1.4 -1.3l-2.5 -3l-0.4 -1.4l0 -1l0.7 -2.6l-0.3 -1l0.6 -1.1l0.1 -1.2l-0.8 -1.6l0.6 -1.6l0.9 -1.5l1 -0.8l1.8 0.3l1.1 0.7l1.3 1.1l0.8 1l3.7 -1.3l5.7 -0.4l1.3 -0.3l5.5 3.6l2.8 -0.2l2.5 -1.1l1.3 -1.1l0.9 -1.7l0.2 -1l-0.7 -1.9l-1.7 -1.7l-1.5 -0.7l-2.5 -0.4l-1 -0.4l-3.5 -1.7l-1.5 -1.4l-0.6 -1.3l-0.8 -1.2l-1.7 -2l-1.2 -3l-0.4 -1.9l0 -1.2l0.4 -1l1.9 -2.6l1.2 -1.3l3.7 -3.8l2.1 -2.3l1.8 -2.7l1.3 -1.6l0.1 -1l-1.9 -1.9l-3.2 -1.6l-2.2 -0.9l-6.4 -1.6l-1.1 -0.5l-0.9 -1.2l-0.2 -1.1l0.1 -1.6l1.2 -1.8l1.6 -0.9l2.6 -0.3l2.8 0l1.1 -0.4l1.8 -2.1l3 -1.9l1.1 2.1l1.7 4.2l0.4 1.5l0.6 1.1l1.1 0.8l1.4 0.6l2.2 0l1.2 -0.3l1.1 -0.9l0.8 -2.6l-2 -3.8l-1.3 -1.1l-2.1 -5.5l1 -0.3l1.2 -0.2l1.2 -0.1l2.5 0.3l1.6 0.6l1.5 -0.1l1.6 -0.3l2.2 -0.9l1.8 0.3l3.1 -0.5l1.4 -0.7l1 -1.4l0 -1.8l-0.3 -1.6l0.1 -1.5l0.5 -1.5l0.9 -1.3l1.5 -2l0.5 -1l0.3 -1l-0.3 -1.5l-0.9 -1.5l-1.2 -0.9l-1.1 -0.3l-1.1 0l-1.5 0.8l-2.6 0.5l-1.5 -0.3l-5 -3.7l-1.7 -2.4l-32.8 0l-0.9 2.7l-4 -0.8l-1.1 5.7l-4.2 -1.5l-5.1 5.3l1.2 1.9l-1.7 3.3l0.4 3.8l1.8 0.7l0.6 3.6l2.3 0.3l2.9 5.3l-0.4 3.5l4.7 4.1l0.6 1.7l-3.8 4.3l-3.5 -5l-6.3 1.3l-2.1 -0.5l-0.8 -4.2l-2.8 -1.4l-2.3 1l-2.4 4.1l-2.2 -0.1l-1.8 -3.6l-2.8 -0.2l-4.1 2.8l-9.4 1.2l-0.9 -1.8l6.4 -3.7l0.7 -5l-5.7 -0.5l-4.6 4.9l-3.8 0l-5.9 -7.8l-0.1 3.9l-8.7 -1.5l-0.1 7l-16.7 -0.2l-0.3 8.1l-0.6 13.1l-0.5 4.5z"/><path data-id="05043" d="m523.3 746.8l0.7 2.6l3.9 2.5l-2 4.8l2.4 4.2l20 0.4l3.7 0l53.6 1.2l29.9 0.6l0.8 -42.1l0.6 -52.4l-10 0l-11.6 -0.7l-21.3 -2.1l-21.2 0.1l-13.1 0.1l-28.4 0l0 21.1l0 1.8l0 40.4l-6.4 0.1l1.8 7.1l-2 3.2l1.8 3.1l-3.1 4.1z"/><path data-id="05045" d="m408.9 366.6l-2.7 6l5.2 8.1l5.6 2.3l12.2 0.6l1.4 1.2l4.7 9.8l-1.7 12.1l5.1 3.6l-2.2 -3.6l1 -3.2l-1.6 -7.6l6.5 -3l-0.3 -4.5l31.6 0.9l6.4 0.1l0.5 -21.3l4 0.1l17.4 0.5l0.1 -3.7l0.2 -9.6l0.6 -22.1l0.1 -10l0.9 -40.8l-2.3 0.2l-11.9 -0.1l-14.2 -0.3l-27.9 -0.8l-1.6 0l-16.4 -0.4l-0.6 21.6l-6.1 5.8l2.1 4.1l-5.5 3.9l1.9 0.7l-1.3 7.8l5.7 3.9l-1.5 9.1l-2.8 5.4l-4.4 -2.8l-2.3 3.1l1 0.9l1 3l0.6 2.2l0.1 2.7l-0.9 5.5l-3.1 4.8l-1.8 1.7l-2.9 2.1z"/><path data-id="05047" d="m108.2 301l-0.6 17.5l3.7 0.3l-0.1 3.6l3.4 0.1l0.3 -3.7l3.6 0.1l0.1 -4.3l11 0.2l10.7 0.2l0.6 -22.1l21.5 1.5l0.4 -17.8l0.3 -11l2.5 6.7l7.4 6.3l1.8 3.1l7.8 -2.7l2 -66.5l0.2 -7.1l0.7 -23.6l-43.2 -1.4l0 3.6l3.7 0.1l-0.1 3.6l-3.7 -0.1l-0.1 3.6l-10.6 -0.3l-0.1 7.1l-3.6 -0.2l-0.3 10.7l-18 -0.4l-0.2 7.2l-0.3 14.3l10.7 0.3l-0.1 4.3l-3.4 3.1l1.4 10.6l-1.5 0.6l-1.7 1.4l-0.3 1.1l2.2 0.9l-3 2l5.5 4.2l-9.6 3.8l-0.2 4.9l-0.2 3.2l-0.6 31z"/><path data-id="05049" d="m494.6 53l-0.2 6l64.8 2.1l29.2 0.5l25.2 0.8l0 -1.9l0 -20l10.7 0.1l11.7 0.3l0.3 -20.8l0.6 -19.7l-10.1 -0.3l-6 -0.1l-1.4 0l-2.5 0l-9.5 0l-1 0l-3.3 0l-2.8 0l-2.2 0l-6 0l-2.8 0l-8.2 0l-7.9 0l-3.7 0l-3 0l-1.3 0l-11.7 0l-24.4 0.1l-6.8 0l-1.9 0l-5.4 0l-3.9 0l-4.7 0l-4.4 0l-3.5 0l-2.5 0l-0.2 5.1l-0.6 31.1l-0.2 1.2l-0.6 15.3z"/><path data-id="05051" d="m244.2 469l-0.7 50.1l3.9 -0.1l28.2 0.5l3.6 0.1l23 0.7l33.6 0.6l0 -13.5l6.9 -0.9l-0.3 -14.1l7.1 0.2l17.4 0.4l0.3 -14.2l-3.5 -0.1l0.1 -3.6l0.1 -3.2l-13.9 -0.2l0.3 -10.8l-21 -0.5l0.1 -11.6l2 -4l0 -17.4l-21.3 0.1l-17.5 0l-25.3 -0.3l-21.4 0.2l0 7.1l0.1 14.2l-1.7 0l-0.3 18.3l0 2.1z"/><path data-id="05053" d="m391 557.4l-1 21.8l37.1 1.3l0.4 2.7l4.6 -1.1l4.2 3.5l4.4 -0.6l4.2 2.4l2.3 2.7l3.8 4.4l0.1 2.8l7.5 3.7l20.8 -0.7l0.2 -40.9l3.9 0.1l0.3 -14.2l0.1 -4.3l0.2 -2.8l0.2 -16.7l0.1 -4.6l0.2 -21.3l-7.6 -0.2l-30 -0.5l-1.7 0l-0.2 10.7l-13.1 -0.3l-1.5 0l-22.5 -0.6l-6.8 7.3l-0.3 3.1l-8.8 -0.3l-0.9 42.6z"/><path data-id="05055" d="m756.7 123.9l-0.7 2.9l3.4 3.1l-2.1 2.6l37.4 0.4l12.6 0.2l3.5 0l18 0.1l7.2 0l14.7 0.1l1.9 -7.7l5.3 -7.8l2.4 -5l1.2 -5.1l3 -2l-0.1 -3.6l3.9 -2.1l1.1 -3.7l3.2 -1.1l4.7 -2.4l4 -3.1l0 -4.9l3 -6.4l2.1 0.7l1.8 -2.5l2.2 -2l-26.5 -0.1l0.2 -14.6l-30 -0.2l-49.6 -2l-18.3 0.3l-0.6 29.2l8.3 0.1l4.3 0.1l-3.2 3.6l-1 1.6l-0.5 3.6l-4 5l-6.1 3.5l-0.9 6l-2.8 3.9l0.2 4.4l-3.4 4.9z"/><path data-id="05057" d="m130.4 681.4l1 3.4l2.7 1.7l-3.1 0.7l1.2 2.5l-1.3 5.2l4.2 3.1l1.4 2.9l1.8 -3.9l3.3 0.2l2 2.9l-2.7 5.1l5.1 -1.9l1.4 2.5l2.3 -1.7l2.4 1.5l1.7 3.4l2.6 -0.6l2.8 1.6l2.7 1.6l-0.6 3.6l-2.3 2.9l1.1 2.6l4.2 0.3l1.3 5.7l3.1 3.6l1.2 6.6l3.4 -1.1l-1.8 -2.7l3.6 -4.6l-1.5 4.1l3.5 3.6l2.8 4.7l17.5 0.5l30.7 0.9l0.5 -21l1.1 -37.1l0.1 -3.9l0.1 -1.3l0.1 -3.5l0.5 -17.5l2.1 0.1l0.8 -31.9l-0.8 -1.6l-6.7 3.6l-6.9 1.3l-0.5 -2.8l-3.1 0.8l-5.2 -2.3l-6.5 -0.8l-2.5 1.2l-2 -3.1l-4.2 -2.5l-6.9 -0.1l-3.5 -2.8l-3.6 -0.4l-6.4 -2.5l-14.8 -0.5l-0.3 14.1l-1.4 49.2l-25.3 -0.8l-2.4 5.5z"/><path data-id="05059" d="m243.4 519.1l-0.2 14l10.5 0.2l-0.2 14.2l1.1 0l20.1 0.4l10.6 0.3l-0.2 7.1l22 0.6l1.1 2.5l10 -0.2l-0.8 3.6l1.5 1.9l1 2.8l-1.3 1.3l-2.1 4l0.8 6l1.8 -1.3l28.9 1.2l14.5 1l27.3 0.5l1 -21.8l0.9 -42.6l-3.5 -0.1l0.2 -14.2l-10.8 -0.2l0.1 -7.2l-7.5 -0.1l-3.5 0l-17.4 -0.4l-7.1 -0.2l0.3 14.1l-6.9 0.9l0 13.5l-33.6 -0.6l-23 -0.7l-3.6 -0.1l-28.2 -0.5l-3.9 0.1z"/><path data-id="05061" d="m73 529.2l-0.3 21l2.5 0l0 18.7l27.8 0.3l3 1l-1.5 2.5l0.5 7.2l-1.7 2.9l4.6 2.4l-2.6 3.2l2.4 2.6l-2.1 6.1l3.3 1.1l-2.4 9.1l3 7.9l1.2 0.6l-0.3 4.8l2.1 2.8l-2.5 7.1l0.8 5.1l0.9 1l1.7 2.3l0.1 4.4l6.7 3.3l0.1 5.4l2 0.5l1.2 3.6l6.4 6.5l1.4 2.5l-1 0.6l1.8 1.9l-1.7 4.3l2.1 4.1l25.6 0.8l1.4 -49.2l0.3 -14.1l0.5 -42.5l-21.1 -0.7l0.3 -18.6l-2.5 0l0.3 -21.2l-64.2 -1.3z"/><path data-id="05063" d="m552.4 171.6l1.2 9.9l5.8 5.4l-0.2 10.9l6.1 0.1l3.5 -1.8l-0.8 43.9l9.8 0l7.3 0.2l12.2 0.2l13.3 0.5l42.7 1l0.1 -15.1l0.1 -13l8.8 0.7l0.4 -2.6l-3.4 -1.1l0.2 -3.2l-2.9 -3.4l1.3 -2.4l-1.7 -1.7l1.9 -6.4l1.6 2.1l1 -6.9l4.6 -6.3l3.7 -1.4l2.9 -5.2l1.3 1.1l4.8 -3.2l-2.8 -0.6l2.8 -2.2l2.9 0l-0.1 -2.5l-2.9 -2.8l2.4 0.3l1.6 -2.7l3.9 -1.3l-2.6 -0.7l1.9 -1.8l-1.2 -5.6l3.9 -2l-31.9 -0.1l-21.6 -0.5l0.3 -11l-34.2 -0.6l-15.6 -0.6l-8.6 -0.3l-19.3 18.7l0 5.2l-4.3 8.9z"/><path data-id="05065" d="m483.4 81l-0.3 10.4l4 0.2l1.3 6.8l2.6 0.8l4.5 -3.3l3 0.8l2.7 7.6l2.5 4.3l7.7 2.8l3.5 4.6l-1.3 2.5l-5.7 1l-1.5 3.6l2.7 4.8l0.1 5l-5 3.9l-0.4 3.3l6.6 2.3l6.5 -4l3.5 1l0.5 4.1l4.5 0.9l4.7 -5.1l2.6 -0.1l3.1 2.1l3.3 4.8l8.1 7.3l6.1 0.2l3.4 3.7l19.3 -18.7l8.6 0.3l0.2 -14.7l5.4 0.1l-1.8 -4.6l1.9 -0.9l1.3 -35.3l0.1 -10.9l-3.6 -0.1l0.2 -11l-29.2 -0.5l-64.4 -1.5l-0.6 21.8l-10.9 -0.3z"/><path data-id="05067" d="m610.5 240.9l-0.6 21.8l47.7 0.8l-0.6 -1.4l19.6 -0.2l0.3 21.8l42.6 0.8l0 -10.9l0.1 -11.5l0.5 -65.2l0.4 -21.8l0.5 -22l-21.4 -1.2l-12 0l-3.9 2l1.2 5.6l-1.9 1.8l2.6 0.7l-3.9 1.3l-1.6 2.7l-2.4 -0.3l2.9 2.8l0.1 2.5l-2.9 0l-2.8 2.2l2.8 0.6l-4.8 3.2l-1.3 -1.1l-2.9 5.2l-3.7 1.4l-4.6 6.3l-1 6.9l-1.6 -2.1l-1.9 6.4l1.7 1.7l-1.3 2.4l2.9 3.4l-0.2 3.2l3.4 1.1l-0.4 2.6l-8.8 -0.7l-0.1 13l-0.1 15.1l-42.7 -1z"/><path data-id="05069" d="m479.7 559.5l-0.2 40.9l32.9 -0.3l16.4 -0.1l7 -0.1l0 -7.1l2.3 0l18.6 0l21.1 -0.2l0 7l3.7 0l-0.1 -26.5l3 0.2l3.7 0.7l10.3 7.9l5.7 2.4l5 -1.3l1.4 2l-4.1 1.8l-1.4 3.6l1.5 3.7l3.9 -0.3l2.6 -2.9l3.6 -1.1l4.1 2l2 2.5l3.3 3.3l7.2 -2.6l4.8 1.1l1.5 -4l-2 -5.9l1.1 -1.2l-1.8 -1.9l-5.2 -0.2l-3 1.9l-0.3 -5.3l-3.9 1.6l-1.3 -5.2l1.3 -1.9l-2.6 -3.1l-0.2 -7.5l-3.8 -1.9l-5 0.1l-4.5 2.6l0.5 -4l-24 -1.3l0.4 -18l0.9 -42.6l-54.2 -1.5l-8 -0.2l-3.1 0l-22.9 -0.5l-12.9 -0.3l-0.2 21.3l-0.1 4.6l-0.2 16.7l-0.2 2.8l-0.1 4.3l-0.3 14.2l-3.9 -0.1z"/><path data-id="05071" d="m184.6 212.7l-2 66.5l5.1 -1.4l3 -6l1.9 0.4l4 4.4l9.3 0.6l6.6 -3.9l7 -2.2l3.6 2.6l2.9 0.2l2.8 -2l3.5 -4.7l5.5 -0.9l2.2 5.2l0 4.4l2.1 5.9l3.6 3.4l-0.5 1.7l-4.7 1.7l0.3 2.3l11.5 -0.6l6.2 -2.6l6.8 3.5l0.2 -13.7l0.4 -21.5l14.5 0.3l0 -3.6l0.5 -28.6l10.7 0.3l0.7 -32.5l-7.2 -0.3l-35 -0.1l-29.3 -1l0.1 -7.2l-35.5 -1.3l-0.7 23.6l-0.2 7.1z"/><path data-id="05073" d="m153.6 829l-1.2 5.9l6.5 7.9l1.8 5.9l2.9 2.4l-0.2 1l16.4 0l38.6 0.2l1.3 0l6.8 0l1.9 -58l8 0.4l1.9 -4.4l-0.7 -3.1l2.6 -2.9l-0.5 -1.8l-0.6 -1.7l1.6 -3l8.9 -25l2.2 -2.9l-23.8 -0.7l0.2 -7l-30.7 -0.9l-17.5 -0.5l0.1 2.2l-2.5 1.8l-0.7 2.5l0.7 1.1l1.1 1.9l-2.2 1.4l-1.1 1.4l1.1 0.9l2.1 -0.6l1.6 -1.7l2.1 -1.4l0.8 2.3l-2.5 1.5l-1.6 0.3l-0.3 2.3l1.2 1l2.4 3.3l2.6 2.5l4.4 0.8l1.2 0.9l-1.3 1.9l-3.8 0.1l-1.3 1.2l0 1.6l-1.1 1.9l2.5 3.1l2 -0.1l3.5 1.6l-3.6 3.7l-1.9 0.8l1.3 3.3l1.3 2.8l-1.2 3.1l-3.3 0.5l-1.3 -1.4l-2.5 -1.2l-1.1 1.6l3.5 4.2l1.8 4l-2 4.9l1.5 0.4l-1.4 0.7l-2.1 0.8l-2.6 1.8l-1.6 2.6l0.9 1.6l3.1 3.4l-2.1 1l-1.6 -1l-3.5 1.7l4 1l1.9 1l-0.4 1.7l-3.3 -0.7l-1.3 -1.3l-2.5 -0.7l-1.7 2.1l0.3 2l-2.1 1.3l-0.1 -2.2l-2.2 -2.9l-1.8 0.7l-2.9 1.6l0.1 2.8l0.5 1.1l-2.5 0.1l-1.4 -1.9l-3.4 2.8l-0.1 4.7z"/><path data-id="05075" d="m656.2 129.6l-0.6 22.1l31.9 0.1l12 0l21.4 1.2l32.1 1l0.1 -10.8l2.2 0.1l0.8 -6.7l-0.9 -1.2l1.9 -3.1l2.1 -2.6l-3.4 -3.1l0.7 -2.9l3.4 -4.9l-0.2 -4.4l2.8 -3.9l0.9 -6l6.1 -3.5l4 -5l0.5 -3.6l1 -1.6l3 -2.9l-4.1 -0.8l-8.3 -0.1l-14.6 -0.2l-14.9 0l-17.8 -0.2l-1.4 -0.4l-2.6 2.3l0.2 6.1l-1.9 1.1l0.2 -2.6l-2.8 -1.8l0.7 -4.5l-7.4 -0.7l-4.4 -3.2l-0.5 -3.4l-2.7 -2.7l-1.2 -3.7l-4.1 0l-4.2 -3.1l-4.7 -1.6l-1.1 -3.9l-1.9 3.8l0.3 -8l-3.7 -0.1l-0.1 3.6l-14.5 -0.3l-0.1 3.5l-3.5 -0.1l-0.4 18.2l-0.5 44.4z"/><path data-id="05077" d="m707.4 404.2l-0.5 32.4l10.7 0.2l-0.1 7.4l-0.4 14.3l14.4 0.3l32 0.4l47.7 0.4l-0.3 -1.3l-0.3 -1.1l-0.2 -3.4l-0.2 -1.4l1.3 -2.3l1.8 -1.5l4.1 -0.5l2.7 4.3l-2.2 1.8l-0.8 2l-0.2 2.1l0.2 1.3l0.5 1.1l0.8 1.2l2.1 0.9l1 0.1l1.5 -0.2l1.5 -0.6l1.8 -1.4l1 -1l1.3 -1.8l1.8 -1.7l1.6 -1.2l2 -2.3l0.8 -1.2l0.6 -2.4l-0.1 -1.8l-0.7 -1.1l-1.6 -1.2l-1 -0.2l-1.4 0l-1.9 0.2l-2.7 0.6l-2.5 0.3l-1.4 -0.1l-2 -0.5l-1.4 -0.8l-3.9 -4.6l-0.5 -1.5l0.2 -1.5l0.8 -1.3l1.4 -0.7l1.2 -0.3l1.3 -1.6l0.2 -3.7l-0.7 -2.2l-0.3 -1.4l0 -1.4l0.7 -1.6l0.8 -1.1l1.7 -1.2l1.7 -0.4l1.6 0.1l0.4 1.3l1.8 4l0.4 1.3l0 1.2l-0.8 1.3l-2.2 1.5l-0.8 1.2l-0.3 1.2l0 1.2l0.2 1.2l0.5 1.4l3.3 2.1l2.6 0.1l1.8 -0.3l2 -0.5l2.4 -1.4l1.1 -1.7l0.2 -1.1l-0.4 -2.2l-1.2 -2.7l-2.3 -4.1l-0.6 -1.9l-0.2 -1.1l0.1 -1.3l0.3 -1l1.3 -2l1.3 -0.9l0.5 -1.5l-1.4 -3.5l-2.1 -3.6l-1.5 -2l-0.6 -2.8l0.1 -1.4l0.9 -2l2.7 -1.8l1.3 -0.2l1.2 0.2l1.8 0.8l1.3 0.8l1.7 3.3l0.2 1l-0.5 2l0.2 2.4l0.4 1.9l1 1.7l1.8 0.6l1.3 -0.2l-0.1 -17.4l-42.5 -0.6l-14.6 0.2l-10.9 0.1l-41.2 -0.5l-19 -1.2l-10.6 0l-0.2 11z"/><path data-id="05079" d="m531.2 621.1l0.1 44.9l27.5 0l14 -0.1l21.2 -0.1l21.3 2.1l0.4 -21.2l0.5 -4.5l0.6 -13.1l0.3 -8.1l16.7 0.2l0.1 -7l8.7 1.5l0.1 -3.9l-2.6 -2.4l-0.2 -10.7l-2 -2.8l-4.8 -1.1l-7.2 2.6l-3.3 -3.3l-2 -2.5l-4.1 -2l-3.6 1.1l-2.6 2.9l-3.9 0.3l-1.5 -3.7l1.4 -3.6l4.1 -1.8l-1.4 -2l-5 1.3l-5.7 -2.4l-10.3 -7.9l-3.7 -0.7l-3 -0.2l0.1 26.5l-3.7 0l0 -7l-21.1 0.2l-18.6 0l-2.3 0l0 7.1l0.2 21.1l-4.7 0z"/><path data-id="05081" d="m26.6 699.5l-0.1 3.7l5.3 -1.7l1.4 6.4l-1.2 5l4.4 1l3.5 4.1l6.7 -1.1l1.6 1.8l-2.1 2.2l-0.9 3.5l6.8 1.9l1.3 -4.2l2.9 -1.6l1.6 3.5l4.2 0.2l2.3 -5.9l3.6 0.3l2 2.4l3.7 -5.2l2.8 2.3l-2.3 4.8l4.8 0.9l3 -5l5.6 -4.5l4.2 0.8l3.9 2.7l3.8 6.2l4.2 -4.4l6.1 -0.5l3.3 1.2l1.2 3.9l1.3 -0.3l9 -2.9l1.3 1.5l-1.4 4.3l2.5 1.6l3 -5l-1.3 -5.3l2.1 -1.1l3.2 7.7l3.2 -0.2l-1.1 -5.3l2.2 -2.6l6.5 2.6l1.6 -5l2.7 0.4l3.8 -4.9l5.7 2l0.6 -1.6l-2.8 -1.6l-2.6 0.6l-1.7 -3.4l-2.4 -1.5l-2.3 1.7l-1.4 -2.5l-5.1 1.9l2.7 -5.1l-2 -2.9l-3.3 -0.2l-1.8 3.9l-1.4 -2.9l-4.2 -3.1l1.3 -5.2l-1.2 -2.5l3.1 -0.7l-2.7 -1.7l-1 -3.4l2.4 -5.5l-17 -0.5l0.2 -7l-9.2 -0.3l-7 -1.9l-4.5 2.2l-0.6 -1.9l-3.1 1.4l-5.6 -1.2l1.3 -5l-1.7 -0.5l-5.2 2.1l-0.1 -2.7l-3.9 3l-2.8 -3.8l-3.6 0l-3.2 -3l-3.6 2.1l-0.1 -7.8l-4.3 -2.3l-1.7 0.7l-1.5 -5.4l-6.3 1.2l2.1 -2.3l-5.4 -1.9l1.8 -9.2l-1.1 -1.9l-4.7 -1.1l-2.6 0.6l1.9 4.1l-4.8 -1.4l-2.1 0.6l-4.2 -3.7l-2 0.8l-0.3 14.4l-0.2 7.3l-0.1 5.1l-0.2 6.6l0 1.8l-0.1 1.6l-0.2 7.9l0 1.3l-0.2 8.3l0 1.3l-0.2 4.8l-0.2 6.8l0 2.4z"/><path data-id="05083" d="m96 347.1l-0.2 10.8l13.7 0.4l-0.1 6.7l74.3 1.7l-0.8 -6.6l0.5 -21.7l8.7 0.3l0.1 -3.5l26.8 0.7l0.1 -3.6l3.6 0.1l0.1 -3.6l3.5 0.1l2 -1.7l0 -5.2l1.9 -2l3.5 0.3l0 -1.8l28.5 0.8l7.2 0l0.3 -25.8l-1.5 -0.7l-2.7 -1.8l-6.8 -3.5l-6.2 2.6l-11.5 0.6l-0.3 -2.3l4.7 -1.7l0.5 -1.7l-3.6 -3.4l-2.1 -5.9l0 -4.4l-2.2 -5.2l-5.5 0.9l-3.5 4.7l-2.8 2l-2.9 -0.2l-3.6 -2.6l-7 2.2l-6.6 3.9l-9.3 -0.6l-4 -4.4l-1.9 -0.4l-3 6l-5.1 1.4l-7.8 2.7l-1.8 -3.1l-7.4 -6.3l-2.5 -6.7l-0.3 11l-0.4 17.8l-21.5 -1.5l-0.6 22.1l-10.7 -0.2l-11 -0.2l-0.1 4.3l-0.5 17.9l-21.7 -0.6l-0.3 10.7z"/><path data-id="05085" d="m502.1 364.9l-0.1 3.7l10.2 0.1l-0.4 23l-0.1 5l-0.2 7.6l-0.2 5.8l0.1 1.5l-0.4 11.5l-0.4 14.8l-3 4.7l-1.5 10.3l0.4 2.4l-2.9 8.8l16.8 0.4l-0.1 32.2l3.1 0l8 0.2l54.2 1.5l5.5 0.2l-0.6 -4.2l2.2 -4.8l7.5 -8.3l-0.8 -3.4l-5.7 -3.3l3.4 -8l2 -3.3l-0.9 -2.6l-10.1 -8.3l-1.6 -0.3l1.2 -49.9l0.2 -10.8l-22.1 -0.5l0.2 -26.7l-15.4 1.4l-3.3 -2l-1.2 1l-5.5 -4.4l-4.5 0.4l-6.3 -2.6l-2.9 -0.9l-3.3 -4.1l-7.4 2.3l-4.9 -2l-2.9 2.5l-6.2 -0.4l-0.2 9.6z"/><path data-id="05087" d="m132.2 166l-0.5 17.9l10.5 0.3l0 -3.6l43.2 1.4l35.5 1.3l0.4 -14.8l-1.8 -0.1l0.5 -14.4l3.5 0.1l0.2 -10.9l3.6 0.2l0.1 -7.2l3.6 0.1l0.1 -3.6l3.5 0l0.5 -21.4l0.5 -6.8l-7 -0.2l0.1 -10.9l-14.4 -0.3l0.1 -7.2l-7 -0.2l0 -2.6l0.1 -4.8l-5.4 -0.2l-1.7 -3.6l0.4 -14.4l-4.7 -2.3l2.1 -2.4l-1.8 -1.4l-4.7 2.1l1.1 -7l-31.8 -0.9l-10.8 -0.2l-0.1 18.1l-3.6 -0.1l-11.3 35.9l-0.3 14.2l-0.3 13.9l-0.5 21.6l-0.4 14.3l-1.8 0z"/><path data-id="05089" d="m347.6 78.2l-0.3 18l10.8 0.1l0.1 10.9l21.2 0.6l30.1 0.5l17.2 0.4l3.9 0l13.1 0.2l0.5 -17.9l-3.5 -3.7l2 0l1.6 -0.7l-4 -2.8l0.5 -3.6l-3.1 3.6l-4.5 -3.8l-3.1 -3.6l4 -5.3l-3.4 -3.2l0.4 -7.2l-4.9 -0.3l-4.3 -2.6l-4.6 1.3l4.1 -8.7l-2.6 -2.6l-3 -1.1l-4.4 1.8l0.6 -4.1l3.6 -3.4l3.8 1.7l1.2 -3.7l-1.1 -1.6l-8.9 2.1l-2.9 -4.2l8 -5.1l0.6 -1.9l3.3 0.1l0.8 -28l-7.1 0.1l-41.8 0.1l-13.3 -0.1l-3.2 0l-0.1 8.3l-3.8 -2.8l-2.2 -3.8l-0.8 39.4l-0.3 3.7l0 32.9z"/><path data-id="05091" d="m115.5 723.9l0 2.4l0.1 11.9l0 5.5l0 8.3l0 1.2l0 2.6l0 8.3l0 2l0 1.6l-0.1 3l0 1.6l0 1.1l0 4.1l0 7.8l0 6.4l0 2.5l0 2.6l0.1 2l0 6.4l0 3l0 10.2l-0.1 4l0 1.3l0 1l0 9.9l0 3.2l0 14.5l1.4 0l1.6 0l42.9 0l1.9 0l0.2 -1l-2.9 -2.4l-1.8 -5.9l-6.5 -7.9l1.2 -5.9l0.1 -4.7l3.4 -2.8l1.4 1.9l2.5 -0.1l-0.5 -1.1l-0.1 -2.8l2.9 -1.6l1.8 -0.7l2.2 2.9l0.1 2.2l2.1 -1.3l-0.3 -2l1.7 -2.1l2.5 0.7l1.3 1.3l2.8 0.9l0.9 -1.9l-1.9 -1l-4 -1l2.8 -2.5l2.3 1.8l2.1 -1l-3.1 -3.4l-0.9 -1.6l1.6 -2.6l2.6 -1.8l2.1 -0.8l1.4 -0.7l-1.5 -0.4l2 -4.9l-1.8 -4l-3.5 -4.2l1.1 -1.6l2.5 1.2l1.3 1.4l3.3 -0.5l1.2 -3.1l-1.3 -2.8l-1.3 -3.3l1.9 -0.8l3.6 -3.7l-3.5 -1.6l-2 0.1l-2.5 -3.1l1.1 -1.9l0 -1.6l1.3 -1.2l3.8 -0.1l1.3 -1.9l-1.2 -0.9l-4.4 -0.8l-2.6 -2.5l-2.4 -3.3l-1.2 -1l0.3 -2.3l1.6 -0.3l2.5 -1.5l-0.8 -2.3l-2.1 1.4l-1.6 1.7l-2.1 0.6l-1.1 -0.9l1.1 -1.4l2.2 -1.4l-1.1 -1.9l-0.7 -1.1l0.7 -2.5l2.5 -1.8l-0.1 -2.2l-2.8 -4.7l-3.5 -3.6l1.5 -4.1l-3.6 4.6l1.8 2.7l-3.4 1.1l-1.2 -6.6l-3.1 -3.6l-1.3 -5.7l-4.2 -0.3l-1.1 -2.6l2.3 -2.9l0.6 -3.6l-2.7 -1.6l-0.6 1.6l-5.7 -2l-3.8 4.9l-2.7 -0.4l-1.6 5l-6.5 -2.6l-2.2 2.6l1.1 5.3l-3.2 0.2l-3.2 -7.7l-2.1 1.1l1.3 5.3l-3 5l-2.5 -1.6l1.4 -4.3l-1.3 -1.5l-9 2.9z"/><path data-id="05093" d="m870.5 125.5l0.4 73.6l0 37.8l0 2.1l0 24.7l29.5 0.5l2.2 -1.3l1.3 -4.4l0.5 -1.5l1.2 -1.7l1.3 -1.1l1.2 0l3.4 -0.5l1 0.5l1.6 1.5l0.9 1.1l0.1 1.3l-0.8 2.6l-0.6 2.6l0 1.4l0.7 2.6l1.7 2l-1.5 1.7l2.5 1.1l0.9 -1l1.1 -1.2l0.5 -1.5l2.5 -2.1l0.1 -1l0.8 -1.6l0.1 -1.7l0.6 -2.3l1 -2.6l-0.3 -1.3l-2.9 -2.6l-1.7 -2.9l-0.5 -1l-0.5 -1.9l-0.4 -2.7l0.2 -1.7l0.6 -1.8l0.9 -1.9l0.4 -2.6l1.3 -1.4l1.8 -0.7l1.3 0.1l1.2 -0.8l2.5 -0.5l1.2 0.1l3.3 1.7l3.6 3l0.6 1.8l-0.4 1.1l0.3 1.1l1 0.9l1.3 0.6l2.3 0.2l2.1 1l1.6 -0.2l1.3 -1.4l1.1 -3.4l-1 -1l-0.2 -1.4l-0.9 -1.4l-2.1 -0.2l-1 -0.2l-2.5 -1.2l-1.1 -1.7l-1.5 -3.1l-0.5 -1.3l-0.2 -1l0.2 -1.2l1.1 -1.7l1.2 -1l2.6 -1.5l2.6 -1.1l1.5 -1.2l1.2 0.2l1.3 0.3l1.1 -0.2l3.6 -2.8l2.5 -1l1.5 -0.9l0.9 -2.4l0.2 -1.5l-0.1 -1.8l-0.5 -1.4l-1.1 -1.5l-1.2 -0.3l-1.5 0.5l-1 0.6l-1.2 2.1l-0.8 1l-2.4 0.7l-1.5 -0.1l-1.9 -0.4l-1.5 -0.6l-1.7 -1.2l-1.3 -1.4l-1.1 -2.3l-1.5 -1.8l-0.6 -1l-0.5 -1l-0.2 -1.2l-0.1 -4l-0.4 -3l0 -1l0.5 -1.4l1.2 -1.3l7 -4.1l1.1 -1.1l4.4 2.3l0.9 1.3l1.3 0.9l2.7 -1.6l1.2 -0.6l2.3 -1.4l2.7 0.2l1.6 -0.2l2.1 -1l1 -1.1l2 -2.7l0.4 -1.2l-0.5 -2.1l0.6 -1.1l2.9 -3l3.3 -1.1l1.5 -0.2l3 1.1l1.8 -0.1l2.1 -0.8l3.5 -2.2l0.8 -1.5l0.1 -1l-0.4 -1.5l-1.3 -1.2l-4.1 -2.2l-4 -1.3l-3 -1.3l-1 -0.8l-0.8 -1.5l-0.1 -1.1l0.1 -1.1l0.8 -2.6l0.6 -1.2l1.9 -1.7l3 -2.2l5.3 0.1l5.4 2.3l1.3 1.7l1 1.1l1.5 0.6l2.4 -0.6l1.5 -1.3l0.7 -1l0.5 -2.3l-1.1 -3.3l-1.2 -2l-3 -2.5l-1.1 -1.2l-2.1 -1.8l-2.6 -1.6l-2.1 -1.4l-1.8 -2.1l-0.3 -1.6l0.2 -2.6l-2 -2.1l-1 -1.7l-7.4 0l-20 0.2l-1.1 0l-4.4 0l-12.6 0.1l-1.2 0.1l-1.5 0l-26.4 0.2l-4.5 0.1l-6.5 0.1l-26.1 0.2z"/><path data-id="05095" d="m637.6 453l-0.2 14.3l7.2 0.1l-0.1 3.7l7.1 0.2l-0.2 7.2l17.4 0.4l-1.9 6.8l7.9 1.7l-0.4 6.2l6.3 5.2l2.8 -1.5l0.6 3.4l1.8 4.1l-2.4 3l5.4 1l3.4 -2.6l4.2 6.9l-2.4 2.4l5.5 2.3l1.5 5.3l1.1 0.8l3.9 2.9l2.5 5.4l7.4 1.8l10.8 0.1l0.4 -32.4l-10.9 -0.4l0.6 -42.7l0.4 -14.3l0.1 -7.4l-10.7 -0.2l0.5 -32.4l-3.6 0l0.2 -10.9l-7.2 0l0.5 -22.2l-11.8 -0.2l-5.9 -0.2l-0.1 4.8l-11.1 -0.1l-0.3 17.8l-14.8 -0.1l-2.7 1.9l7.7 7.7l-3.4 2.8l-2.5 8.8l-0.3 39.2l-14.5 -0.4z"/><path data-id="05097" d="m137.8 481.5l-0.6 49l91.8 2.3l14.2 0.3l0.2 -14l0.7 -50.1l0 -2.1l0.3 -18.3l1.7 0l-0.1 -14.2l-63.5 -0.5l-7 -0.3l-0.1 3.6l-7.2 -0.2l0 3.5l-7.1 1.7l-10.7 -0.3l-1.6 6.2l0 5.4l-10.5 -0.1l-0.4 28z"/><path data-id="05099" d="m228.2 742.3l-0.2 7l23.8 0.7l7.8 0.2l21.2 0.8l0.1 -3.5l21 0.5l2.4 -78.3l-1.7 -0.7l-3.2 -3l-2.3 -5.6l-3.1 0.4l-4.7 3.3l-3.8 -4.9l-7.3 -2.7l-4.6 0.7l-3.4 -2.8l-1.1 -0.3l-1 -0.6l-1 -0.2l-3.5 -9l0.7 -3.9l-6.6 -4.4l-1.8 -5l-5.6 -3.6l0.1 -1.4l-9.2 2l-7.6 -1.9l-0.8 31.9l-2.1 -0.1l-0.5 17.5l-0.1 3.5l-0.1 1.3l-0.1 3.9l-1.1 37.1l-0.5 21z"/><path data-id="05101" d="m220 154l-0.5 14.4l1.8 0.1l-0.4 14.8l-0.1 7.2l29.3 1l35 0.1l7.2 0.3l42.9 1l0.9 -21.9l1.1 -43.9l0.5 -20.3l-1.4 0l0.2 -10.8l-21.1 -0.3l-7.3 -0.7l-11 0.4l-25.1 -0.7l-7.2 -0.3l-28.9 -0.7l-7 -0.2l-0.1 10.9l7 0.2l-0.5 6.8l-0.5 21.4l-3.5 0l-0.1 3.6l-3.6 -0.1l-0.1 7.2l-3.6 -0.2l-0.2 10.9l-3.5 -0.1z"/><path data-id="05103" d="m301.9 747.8l-0.5 17.5l21.1 0.6l7.1 0.2l6.9 0.2l28.2 0.9l5.4 -0.5l3.5 -3.1l8 1.3l1 2.7l6.9 1.4l4.1 2.3l3 -3.1l4.4 2.2l4.2 -1.3l1.7 -2.3l5.5 1.6l-0.1 -2.7l-2.4 1.4l-1.3 -6.1l-6.9 -2.7l-4.3 3.1l1 -4.6l-3.7 -1.9l0.4 -2.7l-4.4 0.8l-6 -0.2l0.5 -5.4l-2.8 0.4l-1.6 -2l1.7 -5.2l-4 -3.2l-0.3 2.2l-3.1 0.4l-2.5 -2l2 -2l-3.6 -2.2l2.9 -5l-3.6 -1.6l0.2 -1.6l2.3 -2.2l3.7 1.9l3.9 -4.5l1.9 2.7l1.5 -9.3l-4.6 -6l1.9 -8.6l14.3 -2.3l3.5 -7.7l7.1 -4.4l0 -1.8l2 -2.5l0.9 -1.9l0.4 -15.9l-60.8 -1.9l-1.6 0l-5 -2.8l-4.1 2.4l-0.3 2.8l-10.6 5.5l-3.1 -0.3l-4.8 2.1l-6 -4l-3.3 0l-1.6 2.4l-3.6 -0.1l-2.4 78.3z"/><path data-id="05105" d="m263.9 402.1l0 3.6l3.5 0l0.1 21.5l25.3 0.3l17.5 0l0.3 -21.1l21 -0.2l28.1 0.9l2.4 1.9l3.1 -0.6l4.4 2.5l4.9 -0.7l3.2 3.5l0.2 -6.2l-3.1 -0.1l0.4 -14.1l20.9 0.3l0.4 -7.2l12.3 0.4l8.4 0.3l0 -3.8l-5.6 -2.7l-5.2 -8.1l2.7 -6l2.9 -2.1l1.8 -1.7l3.1 -4.8l0.9 -5.5l-0.1 -2.7l-0.6 -2.2l-1 -3l-1 -0.9l-1.8 -0.6l-7.3 7.5l-4.5 1.9l-4.6 0.3l0.2 -1.9l3.8 -2.1l0.3 -4l-5.1 1.1l-5.3 6.4l-8.2 1.6l-38.8 -0.7l-10.7 -0.3l-3.7 0.1l-12 -0.3l-2.2 0l0 3.6l-3.6 -0.1l0 3.6l-3.6 -0.1l0 3.5l-3.7 0l-0.1 3.9l-3.6 -0.2l-0.1 3.5l-3.6 -0.1l-0.1 3.5l-3.6 -0.1l0 3.6l-4.3 -0.1l-0.1 3.5l-3.7 -0.1l-0.1 3.6l-3.4 -0.1l0 3.7l-3.6 0l0 3.6l-3.4 -0.1l-0.1 3l-3.6 0.6l0 3.6l-3.5 0.1l0 3.3l-3.5 -0.1z"/><path data-id="05107" d="m705.1 583.9l-1.3 2.7l32.8 0l-0.7 -1.5l-0.2 -1.3l1 -2l3.3 -2.5l5.6 -4.1l1.3 0.3l1.8 0.8l2.3 2.3l1.3 0.8l1.8 1.5l2.9 1.1l1.3 0.2l2.2 -0.2l1.2 -0.5l1.5 -1l1.4 -1.4l1 -1.5l0.6 -1.4l0.1 -1.5l-0.3 -2l-0.8 -1.2l-3.2 -0.9l-2 0.2l-1.8 -0.5l-1.7 -0.2l-1.8 0.7l-1 0.2l-1.5 -0.7l-1.1 0.3l-1 0.6l-4.8 -2.9l-4.2 -5.1l-0.5 -1l-0.4 -1.9l0 -1.7l0.8 -1.5l0.9 -1.1l1.2 -0.5l2.2 0.1l1.1 0.4l1.3 3.6l1.1 1.3l3.1 2.2l2.4 0.8l2.1 0.1l1.8 1.2l0.6 -1.1l0.5 -1.4l0.4 -1.5l0 -1.7l0 -1.5l0.6 -3.4l0.9 -4.2l0.9 -1.5l1.5 -1l1.6 -0.4l2 -0.7l1.1 0l5.1 0.6l1.4 -0.1l2 -1.5l2.4 -3.8l0.4 -1l0.1 -1.7l-0.4 -1.7l-0.4 -1.1l-0.9 -1.5l-3.3 -2.9l-0.5 -1l-0.1 -1.6l0.3 -1.7l1 -1l1.2 -0.6l1.2 -0.2l1.7 0.2l2.5 0.7l3.4 0.1l2.4 -0.5l1.9 -0.7l1.5 -0.1l0.6 1.5l-0.2 2.3l-2 3.5l-0.4 2.2l0.1 1.7l0.6 1l2.4 1.4l1.8 0l1.6 -0.6l0.5 -1.1l0.3 -1.8l-0.6 -2.1l-1.3 -3.1l0 -1.8l2.3 -3.9l2.8 -2.9l1.3 -0.6l3.3 -0.6l7.6 -5.3l1.1 -1.1l0.8 -1.3l0.6 -1.1l0.4 -1.2l0.1 -1.2l-0.3 -1.5l-1.3 -2.8l-2 -1.7l-1 -2.9l-0.3 -3.5l0.2 -1.5l0.3 -1.3l0.8 -1.9l0.5 -2.1l2.3 -2.9l2.8 -1.5l1.9 -1.6l0.9 -1.8l0.1 -1.4l-1 -3l-0.7 -1.2l-1.7 -2.2l-1.4 -1.4l-1.1 -1.2l-0.9 -1.9l-1.4 -2.2l-1.1 -2.8l-0.2 -2.7l1 -3.6l-47.7 -0.4l-32 -0.4l-14.4 -0.3l-0.6 42.7l10.9 0.4l-0.4 32.4l-10.8 -0.1l-0.3 4.4l-4 8.6l0.9 4.3l2.2 2.6l-3.3 1.2l2.8 2.7l1 5.3l-2 3.7l-3 -0.2l-1.8 6.2l2.1 4.3l-1.3 0.8l2.4 3l-3.4 0.7l-0.6 2.3l-2.6 0.2z"/><path data-id="05109" d="m137.2 530.5l-0.3 21.2l2.5 0l-0.3 18.6l21.1 0.7l-0.5 42.5l14.8 0.5l6.4 2.5l3.6 0.4l3.5 2.8l6.9 0.1l4.2 2.5l2 3.1l2.5 -1.2l6.5 0.8l5.2 2.3l3.1 -0.8l0.5 2.8l6.9 -1.3l6.7 -3.6l0.8 1.6l7.6 1.9l9.2 -2l-1.4 -3.9l0.3 -3.2l-2.6 -3.6l-2.6 -1.2l-2.4 -8l-3.5 -2.7l-0.2 -5.1l-2 -10.6l0.7 -1.5l-3 -2.4l1.5 -3.8l-1.3 -2.9l1.4 -5.4l-2.4 -2.4l3.5 -4.4l-3.8 0.6l-8.1 -2l0.1 -9.6l4.2 0.1l0.3 -21.3l-91.8 -2.3z"/><path data-id="05111" d="m720.1 196.9l-0.5 65.2l21.7 0.7l21.6 -1l21.7 -1l21.2 0.2l0 1.8l21.8 0l32.5 0.6l10.9 0.1l0 -24.7l0 -2.1l0 -37.8l-21.1 -0.3l-21.9 -1.5l-20.9 0.7l-21.9 -0.2l-65 -0.8z"/><path data-id="05113" d="m30.6 530l-0.9 39.5l45.6 -0.6l0 -18.7l-2.5 0l0.3 -21l64.2 1.3l0.6 -49l0.4 -28l0.1 -3.5l-17.7 -0.8l0 -2.2l-60.2 -1.2l0.2 -7.1l-27.7 -0.6l-0.2 8.7l-0.3 12.4l0 2l-0.5 21.3l-0.2 9.8l-0.5 21.4l0 1.2l-0.1 2.9l-0.3 10.5l-0.1 1.8z"/><path data-id="05115" d="m265.4 277.4l-0.2 13.7l2.7 1.8l1.5 0.7l5.3 4.8l1.1 5.1l2.4 0.8l6.8 0.5l3.5 2.3l5.5 6.7l3.2 6.3l2 7.2l3 2.2l5.5 -2.4l2.2 1.1l-0.8 2.7l-2.3 5.3l1.5 4.3l4.7 2.4l3.1 -0.2l2.7 -1.6l0.9 -1.9l-0.5 -4.8l0.6 -1.8l1.2 -0.9l19.7 -3.1l5.6 1.3l8.3 -0.5l0.1 -21.5l0.7 -50l0.2 -12.5l0.1 -8.8l7.2 0.1l0.7 -42.9l-28.5 -0.6l-42.9 -1l-0.7 32.5l-10.7 -0.3l-0.5 28.6l0 3.6l-14.5 -0.3l-0.4 21.5z"/><path data-id="05117" d="m566.1 364.1l-0.2 26.7l22.1 0.5l-0.2 10.8l-1.2 49.9l1.6 0.3l10.1 8.3l0.9 2.6l-2 3.3l-3.4 8l5.7 3.3l0.8 3.4l-7.5 8.3l-2.2 4.8l0.6 4.2l12.5 0.6l4.1 -0.2l0.2 -21.4l43.6 1.1l0.2 -7.2l-7.1 -0.2l0.1 -3.7l-7.2 -0.1l0.2 -14.3l14.5 0.4l0.8 -38.7l2 -9.3l3.4 -2.8l-7.7 -7.7l2.7 -1.9l0.4 -23.2l0.6 -11l-15.7 -0.1l0.6 -2.1l-4.5 2.2l-3.2 -1.3l0.3 -2.3l6 -0.3l-3.8 -5.4l-23.9 -0.5l-0.2 16.3l-4.7 1.1l-6.5 -1.7l-0.7 -3.8l-4.1 -2.7l-2.9 0.8l-4.4 -3.1l-8.7 3.9l-4.3 -0.7l-7.3 4.8z"/><path data-id="05119" d="m374.9 393.3l-0.4 14.1l3.1 0.1l17.8 0.4l-0.6 21.3l20.3 0.7l0.3 17.7l10.6 0.4l-0.2 3.5l10.3 0.4l1.2 0l-0.2 6.3l-0.2 4.8l19.1 0.3l0.7 3.4l-0.3 7.2l4.2 0.1l16.8 0.3l-0.3 21.3l7.6 0.2l12.9 0.3l22.9 0.5l0.1 -32.2l-16.8 -0.4l2.9 -8.8l-0.4 -2.4l1.5 -10.3l3 -4.7l0.4 -14.8l0.4 -11.5l-0.1 -1.4l0.2 -5.9l0.2 -7.6l0.1 -5l0.4 -23l-10.2 -0.1l-17.4 -0.5l-4 -0.1l-0.5 21.3l-6.4 -0.1l-31.6 -0.9l0.3 4.5l-6.5 3l1.6 7.6l-1 3.2l2.2 3.6l-5.1 -3.6l1.7 -12.1l-4.7 -9.8l-1.4 -1.2l-12.2 -0.6l0 4.2l-8.4 -0.3l-12.3 -0.4l-0.4 7.2l-20.9 -0.3z"/><path data-id="05121" d="m646 0.6l1.3 4.3l8.2 3.7l1.7 11l8.1 0.1l-0.3 7.6l3.7 0.1l-0.2 3.6l3.5 0.1l-0.2 10.9l3.5 0l-0.1 18.2l3.7 0.1l-0.3 8l1.9 -3.8l1.1 3.9l4.7 1.6l4.2 3.1l4.1 0l1.2 3.7l2.7 2.7l0.5 3.4l4.4 3.2l7.4 0.7l-0.7 4.5l2.8 1.8l-0.2 2.6l1.9 -1.1l-0.2 -6.1l2.6 -2.3l1.4 0.4l17.8 0.2l14.9 0l14.6 0.2l0.6 -29.2l0.1 -5.3l2.9 -1.3l2 2.3l3.3 -0.7l3.1 1.6l0.2 -33l-4.4 -0.1l2.7 -2.2l-4.5 -3.9l1 -2.4l1 -9.5l-3 -3.3l-13.3 0l-4.7 0.1l-1.2 -0.1l-16.4 0l-4.2 0l-5.5 0l-1.9 0.1l-15.7 0l-6.2 0l-18.3 0.1l-2.1 0l-35.7 0.1z"/><path data-id="05123" d="m697.4 371l-0.5 22.2l7.2 0l-0.2 10.9l3.6 0l0.2 -11l10.6 0l19 1.2l41.2 0.5l10.9 -0.1l14.6 -0.2l42.5 0.6l0.1 -24.1l1.5 -35.8l-20.6 1l-21.5 -0.2l-4.7 -0.4l-17.7 -0.3l-20.2 -0.1l-1.4 -0.1l-42.9 0.1l-0.6 36.2l-21 -0.4z"/><path data-id="05125" d="m310.5 406.4l-0.3 21.1l21.3 -0.1l0 17.4l-2 4l-0.1 11.6l21 0.5l-0.3 10.8l13.9 0.2l-0.1 3.2l-0.1 3.6l3.5 0.1l-0.3 14.2l3.5 0l7.5 0.1l-0.1 7.2l10.8 0.2l-0.2 14.2l3.5 0.1l8.8 0.3l0.3 -3.1l6.8 -7.3l22.5 0.6l1.5 0l13.1 0.3l0.2 -10.7l1.7 0l30 0.5l0.3 -21.3l-16.8 -0.3l-4.2 -0.1l0.3 -7.2l0.1 -2.7l-19.9 -1l0.2 -4.8l0.2 -6.3l-1.2 0l-10.3 -0.4l0.2 -3.5l-10.6 -0.4l0.4 -16.8l-21 -1.6l0.6 -21.3l-17.8 -0.4l-0.2 6.2l-3.2 -3.5l-4.9 0.7l-4.4 -2.5l-3.1 0.6l-2.4 -1.9l-28.1 -0.9l-21 0.2z"/><path data-id="05127" d="m33.5 413.9l-0.7 24.1l27.7 0.6l-0.2 7.1l60.2 1.2l0 2.2l17.7 0.8l-0.1 3.5l10.5 0.1l0 -5.4l1.6 -6.2l10.7 0.3l7.1 -1.7l0 -3.5l7.2 0.2l0.1 -3.6l7 0.3l0.6 -39.1l0.1 -6.6l0.4 -21.5l-74.3 -1.7l0.1 -6.7l-13.7 -0.4l0.2 -10.8l-3.6 0l-0.1 1.8l-7.3 1.6l-7.5 3.8l-3.7 1.2l0 1.8l3.7 0.1l0.5 17.6l-0.1 4.3l-5.2 2.2l-7.8 1.7l-5.9 -0.8l-4.9 2l-3.8 -3.5l-1.7 3.4l-3.2 1.2l-3.5 -1.6l-4 4.5l-3.7 -0.6l-0.3 9.3l0 1.3l-0.1 3.8l-0.1 3.4l0 1.4l-0.2 6.8z"/><path data-id="05129" d="m336.1 171l-0.9 21.9l28.5 0.6l35.9 1l0.3 -18l6.3 0.2l36.5 0.4l0.5 -46.5l0.6 -21.6l-13.1 -0.2l-3.9 0l-17.2 -0.4l-30.1 -0.5l-21.2 -0.6l-0.1 -10.9l-10.8 -0.1l-10.9 -0.2l-0.2 10.8l1.4 0l-0.5 20.3l-1.1 43.9z"/><path data-id="05131" d="m34.5 376.9l-0.3 10.9l3.7 0.6l4 -4.5l3.5 1.6l3.2 -1.2l1.7 -3.4l3.8 3.5l4.9 -2l5.9 0.8l7.8 -1.7l5.2 -2.2l0.1 -4.3l0.4 -17.1l-4.6 -0.6l0 -1.4l3.7 -1.6l7.5 -3.8l7.3 -1.6l0.1 -1.8l3.6 0l0.3 -10.7l21.7 0.6l0.5 -17.5l-3.6 -0.5l-0.3 3.7l-3.4 -0.1l0.1 -3.6l-3.7 -0.3l0.6 -17.5l0.6 -31l0.2 -3.2l0.2 -4.9l-2.4 0.7l-11.2 -1.9l-3 2.1l-0.9 1.6l5.3 8.9l-0.8 3.6l-5.7 1.6l-4.5 -2.4l-3 6.9l-5.8 1.5l-1.7 -0.3l-3.6 0.3l-4 -1.5l-5 1.7l-7.5 -4.6l-1.1 -2.3l1.8 -6.8l-3.8 -5.1l-5.9 -4.7l-5.3 0.3l-4.8 4.6l1.2 8.4l-0.5 1.7l0.2 1.6l-0.1 1.1l0.4 1.7l-0.1 1.6l-0.5 13.9l-0.2 3.7l0 1l0 2.9l-0.1 1l-0.2 5.3l-0.2 1.9l0 2.8l-0.1 4.9l-0.1 3.4l0 2.5l-0.1 3.8l0 2.1l-0.2 8.5l-0.1 2.2l-0.4 14.1l-0.6 20.7z"/><path data-id="05133" d="m28.3 626.8l-0.1 3.1l2 -0.8l4.2 3.7l2.1 -0.6l4.8 1.4l-1.9 -4.1l2.6 -0.6l4.7 1.1l1.1 1.9l-1.8 9.2l5.4 1.9l-2.1 2.3l6.3 -1.2l1.5 5.4l1.7 -0.7l4.3 2.3l0.1 7.8l3.6 -2.1l3.2 3l3.6 0l2.8 3.8l3.9 -3l0.1 2.7l5.2 -2.1l1.7 0.5l-1.3 5l5.6 1.2l3.1 -1.4l0.6 1.9l4.5 -2.2l7 1.9l9.2 0.3l-0.2 7l16.7 0.5l-2.1 -4.1l1.7 -4.3l-1.8 -1.9l1 -0.6l-1.4 -2.5l-6.4 -6.5l-1.2 -3.6l-2 -0.5l-0.1 -5.4l-6.7 -3.3l-0.1 -4.4l-1.7 -2.3l-0.9 -1l-0.8 -5.1l2.5 -7.1l-2.1 -2.8l0.3 -4.8l-1.2 -0.6l-3 -7.9l2.4 -9.1l-3.3 -1.1l2.1 -6.1l-2.4 -2.6l2.6 -3.2l-4.6 -2.4l1.7 -2.9l-0.5 -7.2l1.5 -2.5l-3 -1l-27.6 -0.3l-45.8 0.6l-0.9 40.8l-0.4 15.6z"/><path data-id="05135" d="m584.9 124.3l-0.2 14.7l15.6 0.6l34.2 0.6l-0.3 11l21.6 0.5l0.6 -22.1l0.5 -44.4l0.4 -18.2l3.5 0.1l0.1 -3.5l14.5 0.3l0.1 -3.6l0.1 -18.2l-3.5 0l0.2 -10.9l-3.5 -0.1l0.2 -3.6l-3.7 -0.1l0.3 -7.6l-8.1 -0.1l-1.7 -11l-8.2 -3.7l-1.7 -4.3l-5.2 0l-2.6 0l-1.3 19.7l-0.3 20.8l-11.7 -0.3l-10.7 -0.1l0 20l0 1.9l-25.2 -0.8l-0.2 11l3.6 0.1l-0.1 10.9l-1.3 35.3l-1.9 0.9l1.8 4.6l-5.4 -0.1z"/><path data-id="05137" d="m442.6 177l-0.3 18l35.8 1l41.9 1.1l39.2 0.7l0.2 -10.9l-5.8 -5.4l-1.2 -9.9l4.3 -8.9l0 -5.2l-3.4 -3.7l-6.1 -0.2l-8.1 -7.3l-3.3 -4.8l-3.1 -2.1l-2.6 0.1l-4.7 5.1l-4.5 -0.9l-0.5 -4.1l-3.5 -1l-6.5 4l-6.6 -2.3l0.4 -3.3l5 -3.9l-0.1 -5l-2.7 -4.8l1.5 -3.6l5.7 -1l1.3 -2.5l-3.5 -4.6l-7.7 -2.8l-2.5 -4.3l-2.7 -7.6l-3 -0.8l-4.5 3.3l-2.6 -0.8l-1.3 -6.8l-0.4 18.3l-21.6 -0.4l-0.5 21.6l-21.5 -0.5l-0.5 46.5z"/><path data-id="05139" d="m328.1 833.3l-0.5 19.3l3.5 0l4.9 0.1l15.9 0.2l2.7 0l2 0l2.7 0.1l6.9 0.2l12.7 0.1l1.6 0l1.8 0l37.4 0.5l5.2 0.1l6.9 0l20 0.3l1.5 0l5.4 0.1l8.7 0.1l14 0.2l30.9 0.2l-3.1 -5.7l-4.8 0l-1.2 -9.2l-3 0l-0.7 -6.4l0.8 -5.3l3.1 -3.2l0.5 -6.1l-5.4 -1.3l-2.5 -1.8l-4.1 1.9l1.6 -2.2l-2 -3.9l-1.9 0l0.6 -5.9l-3.3 2.7l-5.4 -1.8l0 -3.1l2.1 -0.4l-4.1 -1.9l1.4 -5.4l-2.2 -1.1l-2.2 1.9l-3.8 -0.9l-0.6 -2.4l-5 -0.1l-0.5 -3.8l-2.7 3.8l-3.5 0.5l-0.5 -4.1l-6.1 -0.5l1.7 -4.1l-6.1 4.9l-10.2 2.1l-2.9 -1.2l-1.6 -3.1l-1.3 1.1l-2.7 -2.6l2.8 -2.2l-4.4 -5.9l-1.5 2.9l-3.1 -2.7l-3.9 2.5l-1.9 -9.5l-2.9 -2.4l-4 -0.3l-5.5 -1.6l-1.7 2.3l-4.2 1.3l-4.4 -2.2l-3 3.1l-4.1 -2.3l-6.9 -1.4l-1 -2.7l-8 -1.3l-3.5 3.1l-5.4 0.5l-28.2 -0.9l-6.9 -0.2l-1.6 67.2z"/><path data-id="05141" d="m355.6 245.1l-0.2 12.5l57 1.5l17.7 0.4l-0.4 21.5l16.4 0.4l1.6 0l27.9 0.8l0.8 -39.5l0.8 -3.5l0.1 -7.9l0.5 -19l0.2 -16.2l-35.8 -1l0.3 -18l-36.5 -0.4l-6.3 -0.2l-0.3 18l-35.9 -1l-0.7 42.9l-7.2 -0.1l-0.1 8.8z"/><path data-id="05143" d="m13.2 99.1l0.9 6l2.4 17.6l0.2 1.3l0.2 1.5l0.3 2.2l0.8 5.4l0.7 5.1l0.4 2.4l1.1 8.4l2 13.9l0.4 3l0.2 1.8l0.3 2.3l0.4 2.7l0.3 2.3l1 7.1l0.2 1.6l21.3 1.2l20.9 0.6l14.3 0.4l17.6 0.6l0.1 -3.5l3.6 0.1l28.9 0.8l0.5 -17.9l1.8 0l0.4 -14.3l0.5 -21.6l0.3 -13.9l0.3 -14.2l11.3 -35.9l-11.3 -0.3l-2.8 3.4l-2.9 -1.5l-0.2 6.2l-2 -2.1l-3 0.3l-2 -4.8l-3.3 1.6l1.3 3.9l-15.2 -0.4l-4 -0.1l-4.9 -0.1l-7.2 -0.3l-1.6 0l-25.9 -0.7l-4.6 -0.1l-0.3 8.4l-0.1 2.6l-0.3 7.1l-10.8 -0.1l-1 10.7l-5.2 -0.1l-26.4 -0.6z"/><path data-id="05145" d="m503 333.1l-0.6 22.1l6.2 0.4l2.9 -2.5l4.9 2l7.4 -2.3l3.3 4.1l3.2 0.3l6 3.2l4.5 -0.4l5.5 4.4l1.2 -1l3.3 2l15.4 -1.4l7.3 -4.8l4.3 0.7l8.7 -3.9l4.4 3.1l2.9 -0.8l4.1 2.7l0.7 3.8l6.5 1.7l4.7 -1.1l0.2 -16.3l23.9 0.5l3 -3.2l5.2 -0.4l-4.1 -1l1.2 -2.4l-2.6 -4.9l4.7 0.3l-1.7 -4.4l-4.4 -0.2l-0.1 -2.8l5.2 -0.1l2.5 -3l-1 -1.6l-0.2 -2l2.4 0.2l1.6 -4.9l2.3 0.6l0.1 3.1l3.4 2.1l0.5 -1.7l-1.7 -0.4l-1 -0.8l1.8 -2.5l0.1 -1.4l-1.5 -0.1l-1.1 -0.9l1.3 -0.5l1.1 0.7l0.6 -1.3l-1.2 -0.7l-0.8 -1.3l0.3 -1.4l0.3 -1.3l0.7 -1.2l1.7 -1.1l0.7 -1.6l-0.1 -1.2l-1.3 -0.6l-0.3 1l0.1 1.5l-0.7 1.2l-1 0.4l-2.7 -3.3l-2.2 -0.1l0.1 -3.1l-0.2 -6.3l-5 1.7l2.5 -8.3l-1 -1.9l-3 -2.1l3.9 -1.7l-2.5 -4l1.5 -0.5l3.6 2.8l0.6 -1.4l-3.2 -2.2l4.2 -2.8l2.5 2.8l1.8 -0.5l-3.5 -3.4l6 -3.7l-0.3 -3.8l1.6 -2.1l1.4 5.5l2.3 -3.9l-2.4 -1.6l2 -2.2l-47.7 -0.8l0.6 -21.8l-13.3 -0.5l-12.2 -0.2l-7.3 -0.2l-9.8 0l-0.4 19.4l-4.7 1.4l-1.9 -1.2l-1.6 3.4l-2.7 1.1l-0.4 19.3l-52.2 -1.1l-0.9 40.8l-0.1 10z"/><path data-id="05147" d="m631.8 355.2l-0.3 2.3l3.2 1.3l4.5 -2.2l-0.6 2.1l15.7 0.1l-0.6 11l-0.4 23.2l14.8 0.1l0.3 -17.8l11.1 0.1l0.1 -4.8l5.9 0.2l11.8 0.2l21 0.4l0.6 -36.2l0.6 -50.7l-42.6 -0.8l-0.3 -21.8l-19.6 0.2l0.6 1.4l-2 2.2l2.4 1.6l-2.3 3.9l-1.4 -5.5l-1.6 2.1l0.3 3.8l-6 3.7l3.5 3.4l-1.8 0.5l-2.5 -2.8l-4.2 2.8l3.2 2.2l-0.6 1.4l-3.6 -2.8l-1.5 0.5l2.5 4l-3.9 1.7l3 2.1l1 1.9l-2.5 8.3l5 -1.7l0.2 6.3l-0.1 3.1l2.2 0.1l2.7 3.3l1 -0.4l0.7 -1.2l-0.1 -1.5l0.3 -1l1.1 0.2l0.3 1.6l-0.3 1.1l-1.2 1.1l-1.4 1.2l-0.5 1.8l-0.3 1.4l0.8 1.3l1.2 0.7l-0.3 1.3l-1.4 -0.7l-1 -0.1l0 1.1l2 0.4l0.2 1.5l-1.7 1.9l0.3 1.2l1.8 0.1l0.3 1.6l-3.4 -0.6l-0.4 -4l-2.3 -0.6l-0.9 4.2l-3.1 0.5l0.2 2l1 1.6l-2.5 3l-5.2 0.1l0.1 2.8l4.4 0.2l1.7 4.4l-4.7 -0.3l2.6 4.9l-1.2 2.4l4.1 1l-5.2 0.4l-3 3.2l3.8 5.4l-6 0.3z"/><path data-id="05149" d="m183.1 394.9l-0.6 39.1l63.5 0.5l0 -7.1l21.4 -0.2l-0.1 -21.5l-3.5 0l0 -3.6l3.5 0.1l0 -3.3l3.5 -0.1l0 -3.6l3.6 -0.6l0.1 -3l3.4 0.1l0 -3.6l3.6 0l0 -3.7l3.4 0.1l0.1 -3.6l3.7 0.1l0.1 -3.5l4.3 0.1l0 -3.6l3.6 0.1l0.1 -3.5l3.6 0.1l0.1 -3.5l3.6 0.2l0.1 -3.9l3.7 0l0 -3.5l3.6 0.1l0 -3.6l3.6 0.1l0 -3.6l2.2 0l2.9 -2.8l-2.9 -5.1l12.3 -2.2l0.2 -3.3l4.6 -2.2l6.4 -6.9l5.7 -0.6l-5.6 -1.3l-19.7 3.1l-1.2 0.9l-0.6 1.8l0.5 4.8l-0.9 1.9l-2.7 1.6l-3.1 0.2l-4.7 -2.4l-1.5 -4.3l2.3 -5.3l0.8 -2.7l-2.2 -1.1l-5.5 2.4l-3 -2.2l-2 -7.2l-3.2 -6.3l-5.5 -6.7l-3.5 -2.3l-6.8 -0.5l-2.4 -0.8l-1.1 -5.1l-5.3 -4.8l-0.3 25.8l-7.2 0l-28.5 -0.8l0 1.8l-3.5 -0.3l-1.9 2l0 5.2l-2 1.7l-3.5 -0.1l-0.1 3.6l-3.6 -0.1l-0.1 3.6l-26.8 -0.7l-0.1 3.5l-8.7 -0.3l-0.5 21.7l0.8 6.6l-0.4 21.5l-0.1 6.6z"/></svg>
