<?xml version="1.0" encoding="UTF-8"?><!DOCTYPE svg PUBLIC '-//W3C//DTD SVG 1.1//EN' 'http://www.w3.org/Graphics/SVG/1.1/DTD/svg11.dtd'><svg viewBox="0 0 1000 855.736" xmlns="http://www.w3.org/2000/svg"><path id="05001" d="m585 541l-1 18l24 1v4l4-3h5l4 2v8l3 3l-1 2l1 5l4-2v6l3-2h6l1 2l-1 1l2 6l-1 4l2 3v11l3 2l6 8h3l5-5l6 1l-1 5l-6 3l1 2l9-1l4-3h3l2 4h2l2-4l3-1l2 1l1 4l2 1l7-1l3 5l4-5l-1-1l-4-4v-4l-3-5h-2l-1-4l-2-1v-4l2-3l-2-2l5-5l5 1l1-5h4l1-2l1-3h3v-3h4l-3-3l2-1l-2-4l1-7l3 1l2-4l-1-5l-2-3l3-1l-2-3l-1-4l4-9v-4l-7-2l-3-5l-3-3h-1l-1-1l-1-5l-6-3l3-2l-5-7l-3 3l-5-1l2-3l-2-4v-4l-3 2l-7-6l1-6l-8-1l2-7l-17-1l-44-1v22h-4l-13-1h-5z"/><path id="05003" d="m500 815l-1 3l5 1v6l-3 3l-1 6v6h3l2 9h4l4 6h23h16h24h4h21h2h2h6h1h3h12h2h6l1-92h-30l-54-2h-4h-20l1 3l5 2l-1 2v3l-4 4l3 5l-1 4l-6 1l1 3l-5 3l-3-1l1 3l-1 2l-6 2v3l-3-1v3l-3 2l-3-1v4h-2l-2 3z"/><path id="05005" d="m407 35l3 4l9-2l1 2l-1 4l-4-2l-3 3l-1 4l5-2l3 2l2 2l-4 9l5-1l4 2l5 1v7l3 3l-4 5l3 4l5 4l3-4l-1 4l4 3h-1h-2l3 4v18l-1 22h22v-22l22 1v-18l-4-1v-10h11l1-21l-1-1l1-6v-15v-2l1-31v-5h-10h-2h-1h-19h-2h-6l-5 1l-2-1h-7h-5h-15h-2l-1 28h-3l-1 2z"/><path id="05007" d="m0 0l1 4v2v4l2 9v5l1 4l1 10v4l1 8l1 2l1 10v3l1 1v1v4v1l1 7l1 1v4v3l2 12l27 1h5l1-11h11v-7v-2v-9h5l26 1h1h8h4h5l15 1l-2-4l4-2l2 5h3l2 2v-6l3 1l3-3h11h3l1-18h10l-3-1v-3l-7-3v-10l-3 2l-2-3l2-4h3v-26h-8h-3h-8h-23h-5h-2h-14h-18h-18h-32h-8z"/><path id="05009" d="m265 80v14l7 1h25h11l7 1h21h11l1-18v-33v-3l1-40l2 4l4 3v-9h-8h-35h-1h-3h-1h-7h-5h-28h-1l-1 1l1 20v30l-1 16z"/><path id="05011" d="m450 774v7l6 4l-2 4l6 1l1 4l3-1l3-4v4h5l1 3l4 1l2-2l2 1l-1 5l4 2h-2v3l5 2l3-2v6h2l2 3l-2 3l4-2l3 2l1-3l-1-5l2-3h2v-4l3 1l3-2v-3l3 1v-3l6-2l1-2l-1-3l3 1l5-3l-1-3l6-1l1-4l-3-5l4-4v-3l1-2l-5-2l-1-3l-2-4l2-5l-4-3l-1-2l3-4l-1-3l2-4l-2-7h6v-40v-2h-42h-20l-9-1l2 6l-1 5l1 8l-2 3l2 8l-1 3l2 5l-2 7l3 5l-2 4v4l-2 6l-2 4v3l-3 3l-1 5l-3 1z"/><path id="05013" d="m370 726v1l4 2l-3 5l4 2l-3 2l3 2h3v-2l4 3l-1 5l1 2h3v5h6l4-1v3l3 2l-1 4l5-3l7 3l1 6l2-1v2l4 1l3 2l2 10l4-3l3 3l2-3l4 6l-3 2l3 3l1-1l2 3l3 1l10-2l6-5l-6-4v-7l1-8l3-1l1-5l3-3v-3l2-4l2-6v-4l2-4l-3-5l2-7l-2-5l1-3l-2-8l2-3l-1-8l1-5l-2-6l-2-8l3-9l-2-4l-50-2v16l-1 2l-2 3v2l-7 4l-4 8l-14 2l-2 8l5 7l-2 9l-2-3l-4 5l-3-2z"/><path id="05015" d="m148 26l-2 4l2 3l3-2v10l7 3v3l3 1l32 1l-1 7l5-2l1 1l-2 3l5 2v14l1 4h6v5v3h7v7h14l7 1h29v-14v-13l1-16v-30l-1-20l1-1h-4h-16h-7h-16h-1h-14h-19h-4h-2h-2h-2h-28v26z"/><path id="05017" d="m636 763l-1 92h1h4h2h10h9h1h1h2l5 1h4h20v-2l1-2l1-1l1-1h2h1l2-1v-1l1-2v-2v-1l-1-2l-5-4l-2-1h-1h-1v-1h-1l-1-2l-3-1l-1-1v-1v-2v-1l1-3h1l1-1h1l2-1l2 1l2 1v1l2 1h2h4l2-1l2-1v-1l1-1v-1v-2v-1l1-5l-1-4l-1-3v-2h1h1v-1h1v-1h1v-1h1l1-1l2-2v-2l1-2v-1l1-1v-1l-1-1v-1l-1-1h-1h-2h-1l-1 1h-1v1l-1 1l-1 4v1l-1 1v2v1h-1l-1-1l-1-1v-2l-1-2l-2-2v-1v-2l-3-4v-4v-3v-1v-1v-3v-1l3-2l1-1l3-4l1-1l2-2l3-3l3-4l1-1v-4v-1l-1-1h-1v-1h-1h-1l-1 1h-1l-1 1v1l-1 2v1v1v2v3l-2 2l-1 1l-2 2l-4 1l-2 1l-3-1h-1h-1l-3-2l-3-2v-1h-1v-1l1-1v-1h1v-1h2h1h1l1 1l3-2l3-1h2l1-1l1-1l1-2l1-1v-1l-1-2l-1-3l-2-2l-4-3h-1v-1h-1h-1l-1 2v1v2v1l1 3v2l-1 2l-1 1h-1l-2 1h-2h-1h-1l-4-1v-1h1v-2v-1l2-2h1l2-1v-1l1-2l1-2l1-1l1-1h1v-1l-1-1v-1l-6-5h-1l-1-2l-1-2v-1v-1v-1h-3v10h-16l-1-4h-3l-1 4v-11h-21z"/><path id="05019" d="m224 554v10l8 2l4-1l-3 4l2 3l-1 5l1 3l-1 4l3 2l-1 2l2 10v6l4 2l2 8l3 1l2 4v3l1 4v1l6 4l2 5l6 4l-1 4l4 9l1 1v-1v1h1h1l4 3l4-1l7 3l4 5l5-3l3-1l2 6l4 3l1 1h4l2-3h3l6 4l5-2h3l10-5l1-3l4-2l4 4l1-1l-2-2l3-2l-1-2l3-1l-1-4l-4-1l-2-10l4-1l-3-1v-3l-6-4l-1-6l-4-3l3-3l11 1l1-28v-14l-29-1l-1 1l-1-6l2-4l1-1l-1-3l-1-2v-4h-10l-1-2l-22-1v-7h-10h-20l-1-1v-14h-11h-14v21z"/><path id="05021" d="m766 53v5h19l49 2h30v15l26-1v1l2-1l5-3l3-3l3-1v-3l2-6l7-1l1-4l3-4l-3-4v-5l3-4l-1-8l-3-3l-5-1l-5-3l-2-2l2-3l-2-6v-3l-3-2h-1l2-4v-1h-8h-5h-1h-1h-23h-31h-1h-15h-2h-2h-2h-2h-7h-1h-8h-3h-11h-4l3 4l-1 9l-1 3l4 3l-2 3h4l-1 32l1 1l-3-2l-4 1l-2-2z"/><path id="05023" d="m476 243v39h14l12 1l2-1l52 1l1-19l2-1l2-3l2 1l4-2l1-19l1-44l-4 2h-6l-39-1l-42-1v16l-1 19v8z"/><path id="05025" d="m432 602l-1 20h4l7 8l4 7l1 6l3 4l5 4l4 6v8l2 4l-3 9l2 8l9 1h20h42v-21v-45h5v-21h-7h-17h-33l-20 1z"/><path id="05027" d="m227 852h4h19h7h6h14h5h4h8h7h4h4h2l17 1v-20l2-67h-7l-22-1l1-17l-21-1v4l-21-1h-8l-2 3l-9 25l-2 3l1 2v1l-2 3v3l-2 5l-8-1z"/><path id="05029" d="m317 345l3 5l-3 3h12h4h11l38 1l9-2l5-6l5-1v4l-4 2v2l4-1l5-1l7-8l2 1l2-3l5 2l2-5l2-9l-6-4l1-8l-1-1l5-3l-2-5l6-5l1-22v-22h-18l-57-1v50l-1 21l-8 1h-5l-7 7l-4 2l-1 4z"/><path id="05031" d="m720 175v22l65 1h22l21-1l22 2h21l-1-74l-10 1h-6h-1l-2 7h-15h-7h-18h-4h-12h-38l-2 3l1 1l-1 6h-2v11l-32-1z"/><path id="05033" d="m25 184l1 8v1l3 21l2 11v1v1v1l1 10l2 11l2 17l5-4l5-1l6 5l4 5l-2 7l1 2l8 5l5-2l4 2l4-1h1l6-1l3-7l5 3l5-2l1-4l-5-9l1-1l3-2l11 2l2-1l10-4l-6-4l3-1v-1l-1-1h-1v-1l2-1h1l1-1l-2-10l4-4v-4h-11v-15v-7l18 1l1-11h3v-7h11v-3h4v-4h-4h-10l-29-1h-4v4l-17-1l-14-1h-1h-21z"/><path id="05035" d="m827 284v44v8l21-1l-1 36l-1 24l1 18l1-1l4-3l6-1l1-1l1-1l2 2l2 1v1h2l1-1v-1l1-1v-1h-1l-1-3v-1l2-1l4-2l6-5h1v-1v-2v-4v-2v-1h-1v-1l-2-1l-3-2h-1l-1-2h-1l-1-1l-1-1l-1-1l-1-2v-2v-2l1-2l1-2l1-3l1-1l5 1h1v1h1l5 1h1l2 1h1l2-1l1-2v-1v-2v-1v-2l3-7l1-5l1-1v-1l1-1l1-1l1-1l2-1h1l1 1l6 3l1 1h2l1-1h1l2-3l1-1l1-1l-1-3l-5-1l-1-1v-1l-1-1h-1v-1v-1h-1v-1l-1-2v-2h2l2 1l1-2l1-3l1 1h1h1v-2v-1l-1-1l-1-1l-1-1l-1-2l-1-2l-2-1h-1h-1h-1h-2l-2 1l-2-1l-1-2l-2-3v-1v-1v-3h1v-1h1l1-1l3 1h1l2-1h1h2v-5l1-2l-2-3h1l1-2l1-1l1-1l1-1l1-1l2-4h-1l-2-2h-1l-1-1l-1-1l-1-1l-1-1l-1-1h-3h-1l-1 1l-1 1v1v1l1 2l1 3h-2h-4h-1l-1-1v-1l1-6v-2l1-1l5-4h-29l-11-1h-32z"/><path id="05037" d="m720 284l-1 51h43h1h20l17 1l1-1l5 1h21v-8v-44l1-21h-22v-2h-21l-22 1l-22 1h-21v-1v12z"/><path id="05039" d="m336 619l-3 3l4 3l1 6l6 4v3l3 1l-4 1l2 10l4 1l1 4l-3 1l1 2l-3 2l2 2h1l61 1l50 2v-8l-4-6l-5-4l-3-4l-1-6l-4-7l-7-8h-4l1-20l27-1l-8-4v-2l-4-5l-2-2l-4-3l-5 1l-4-4l-4 1l-1-2l-37-2h-27l-15-1v14l-1 28z"/><path id="05041" d="m616 647l-1 21l12 1h10l-1 52h21v11l1-4h3l1 4h16v-10h3l1-1v-1h1l4-1h1l2-1l1-1h1v-1l3 1h1h1l3-2l1-1v-1v-2v-1v-1l-1-1v-2l-3-2l-3-2l-1-1l-1-1l-2-1l-5-1h-2v-1l-1-1v-1l-1-1l1-2v-1l1-1l2-1l1-1h1h2l3-1h2h1v-1l4 5l2 3l6 4h2l1 1h1l1-1l2-1l2-1h1h1l2-1h1v-2v-2h-1v-1v-1l-1-1l-1-1l-2-2h-1v-1h-1l-2 1l-3 1l-2 1h-1h-2l-2-1l-1-1l-3-3v-1v-1v-1l1-2l-1-1l1-1v-1v-1h-1v-1l1-2l1-1l1-1h1h1l1 1l1 1l1 1l4-1l5-1h2l5 4h1h2l2-2l2-1l1-1v-1v-1l-1-1l-2-2l-1-1h-3h-1l-3-2l-1-1v-1l-1-1l-1-1l-2-2v-1l-1-2v-2v-1v-1l2-3l1-1l4-4l2-2l2-3l1-1v-1v-1l-2-1l-3-2l-2-1l-6-1l-1-1h-1v-1l-1-1v-1l1-1l1-2h1l1-1h2h3h1l1-1l1-1l3-2l1 2l1 4l1 2v1l2 1h1h1h1h1l1-1h1v-1v-2v-1l-2-2l-1-2l-2-5h1l1-1h1l3 1h1h2h2l2-1h2h3l1-1l1-1v-1v-1v-2v-1v-1v-1l1-1l2-2v-1l1-1v-1h-1l-1-2l-1-1h-1h-1l-2 1h-2h-1h-1l-5-4l-1-2h-33l-1 2h-4l-1 5l-5-1l-5 5l2 2l-2 3v4l2 1l1 4h2l3 5v4l4 4l1 1l-4 5l-3-5l-7 1l-2-1l-1-4l-2-1l-3 1l-2 4h-2l-2-4h-3l-4 3l-9 1l-1-2l6-3l1-5l-6-1l-5 5h-3l-6-8v4l-9-2v7h-17v8l-1 13z"/><path id="05043" d="m523 747l1 2l4 3l-2 5l2 4h20h4l54 2h30v-42l1-52h-10l-12-1l-21-2h-21h-13h-1h-28v21v2v40h-6l2 7l-2 4l1 3z"/><path id="05045" d="m409 367l-3 6l5 8l6 2l12 1l2 1l4 10l-1 12l5 3l-3-3l1-4l-1-7l6-3v-5l32 1h6l1-21h4l17 1v-4v-10l1-22v-10l1-41l-2 1l-12-1h-14l-28-1h-2h-16l-1 22l-6 5l2 5l-5 3l1 1l-1 8l6 4l-2 9l-2 5l-5-2l-2 3l1 1l1 3l1 2v3l-1 5l-3 5l-2 2z"/><path id="05047" d="m108 301v18h3v3l4 1v-4h4v-4h11h10l1-22l21 2l1-18v-11l3 6l7 7l2 3l8-3l2-66v-7v-24l-43-1v3h4v4h-4v3h-11v7h-3l-1 11l-18-1v7v15h11v4l-4 4l2 10l-1 1h-1l-2 1v1h1l1 1v1l-3 1l6 4l-10 4v5v3z"/><path id="05049" d="m495 53l-1 6l1 1l64 1l29 1h26v-2v-19h10h12v-21l1-19l-10-1h-6h-1h-1h-2h-9h-1h-4h-2h-3h-6h-2h-1h-8h-8h-3h-3h-1h-1h-11h-1h-24h-6h-2h-6h-4h-4h-5h-3h-3v5l-1 31v2z"/><path id="05051" d="m244 469l-1 50h4l29 1h3h23l34 1v-14h7l-1-15l7 1h18v-14h-3v-4v-3h-14v-11l-21-1v-11l2-4l1-18h-22h-17h-26h-21v7v15h-2v18z"/><path id="05053" d="m391 557l-1 22l37 2l1 2l4-1l4 4l5-1l4 3l2 2l4 5v2l8 4l20-1l1-40h4v-15v-4v-3v-16v-5l1-21h-8l-30-1h-2v11l-13-1h-2h-22l-7 7v3h-9z"/><path id="05055" d="m757 124l-1 3l3 3l-2 3h38h12h4h18h7h15l2-7l5-8l2-5l2-5l3-2l-1-4l4-2l1-4l4-1l4-2l4-3v-5l3-6h2l2-2l2-2v-1l-26 1v-15h-30l-49-2h-19v29h8h4v1l-3 3l-1 2v3l-4 5l-6 4l-1 6l-3 4v4z"/><path id="05057" d="m130 681l1 4l3 2h-3l1 3l-1 5l4 3l2 3l1-4h4l2 3l-3 5l5-2l1 3l3-2l2 2l2 3l2-1l3 2l3 2l-1 3l-2 3l1 3h4l2 6l3 3l1 7l3-1l-1-3l3-5l-1 5l3 3l3 5h17l31 1l1-21l1-37v-4v-1v-4l1-17h2v-32v-2l-7 4l-7 1v-2h-4l-5-2l-6-1l-3 1l-2-3l-4-2h-7l-3-3l-4-1l-6-2l-15-1l-1 14l-1 50l-25-1z"/><path id="05059" d="m243 519v14h11v14l1 1h20h10v7l22 1l1 2h10v4l1 2l1 3l-1 1l-2 4l1 6l1-1l29 1l15 1h27l1-22l1-42h-4l1-14l-11-1v-7h-8h-3h-18l-7-1l1 15h-7v14l-34-1h-23h-3l-29-1z"/><path id="05061" d="m73 529v21h2v19h28l3 1l-1 3v7l-2 3l5 2l-3 3l3 3l-2 6l3 1l-2 9l3 8l1 1v5l2 2l-3 7l1 6l1 1l2 2v4l6 3v6h2l2 4l6 6l1 3l-1 1l2 1l-2 5l3 4l25 1l1-50l1-14v-42l-21-1v-18h-2v-22z"/><path id="05063" d="m552 172l2 9l5 6v11h6l4-2l-1 44h10h7h12l13 1l43 1v-15v-13l9 1l1-3l-4-1v-3l-3-4l2-2l-2-2l2-6l1 2l2-7l4-6l4-2l3-5l1 1l5-3l-3-1l3-2h3v-2l-3-3h2l2-3l4-1l-3-1l2-1l-1-6l4-2h-32l-22-1v-11h-34l-15-1h-9l-19 19v5z"/><path id="05065" d="m483 81v10l4 1l1 6l3 1l4-3l3 1l3 7l3 5l7 2l4 5l-1 3l-6 1l-2 3l3 5v5l-5 4v3l6 3l7-4l3 1l1 4l4 1l5-5l3-1l3 3l3 4l8 8h6l4 4l19-19h9v-15h5l-1-4l1-1l2-35v-11h-4v-11l-29-1l-64-1l-1 21z"/><path id="05067" d="m610 241v22h48l-1-1h20v22h43v-10v-12v-65v-22l1-22l-21-1h-12l-4 2l1 6l-2 1l3 1l-4 1l-2 3h-2l3 3v2h-3l-3 2l3 1l-5 3l-1-1l-3 5l-4 2l-4 6l-2 7l-1-2l-2 6l2 2l-2 2l3 4v3l4 1l-1 3l-9-1v13v15z"/><path id="05069" d="m480 560l-1 40h33h17h7v-7h2h19h21v7h3v-27h3l4 1l10 8l6 2l5-1l1 2l-4 2l-1 4l1 3h4l3-3l4-1l4 2l2 2l3 4l7-3l5 1l1-4l-2-6l1-1l-1-2h-6l-3 2v-6l-4 2l-1-5l1-2l-3-3v-8l-4-2h-5l-4 3v-4l-24-1l1-18l1-43l-55-1h-7h-4l-22-1h-13l-1 21v5v16v3v4v15z"/><path id="05071" d="m185 213l-2 66l5-1l3-6h1l5 5h9l6-4l7-2l4 3h3l3-2l3-5l6-1l2 5v5l2 6l4 3l-1 2l-5 2l1 2l11-1l6-2l7 3v-14l1-21h14v-3l1-29h11v-32h-7h-35l-29-2v-7l-36-1v24z"/><path id="05073" d="m154 829l-2 6l7 8l2 6l3 2l-1 1h17h38h2h1h6l1-58l8 1l2-5v-3l2-3v-1l-1-2l2-3l9-25l2-3l-24-1v-7l-31-1h-17v2l-2 2l-1 2l1 1l1 2l-3 2l-1 1l1 1h2l2-2l2-2l1 3l-3 1h-1v3l1 1l2 3l3 2l4 1l1 1l-1 2h-4l-1 1v2l-1 2l2 3h2l4 1l-4 4l-2 1l2 3l1 3l-1 3l-3 1l-2-2l-2-1l-1 2l3 4l2 4l-2 5h1l-1 1l-2 1l-3 1l-1 3v2l4 3l-3 1l-1-1l-1-1l-3 3l4 1l2 1v1l-1 1l-3-1l-1-2h-2l-2 2v2l-2 1v-2l-2-3l-2 1l-3 1l1 3v1h-3l-1-2l-3 3z"/><path id="05075" d="m656 130v22h32h12l21 1l32 1v-11h2l1-6l-1-1l2-3l2-3l-3-3l1-3l3-5v-4l3-4l1-6l6-4l4-5v-3l1-2l3-3v-1h-4h-8h-15h-15h-18h-1l-3 2l1 6l-2 1v-3l-3-1l1-5l-8-1l-4-3v-3l-3-3l-1-4h-4l-5-3l-4-1l-1-4l-2 3v-8h-4v4h-14v3h-4v18z"/><path id="05077" d="m707 404v33h11l-1 7v14l14 1h33h47v-1v-1l-1-3v-1v-1l2-2v-1l1-1h4l3 4l-2 2l-1 1v1v2v2l1 1v1h1l2 1h1h1l2-1l1-1l1-1l2-2l1-2l2-1l2-2l1-2l1-2v-1l-1-1v-1l-1-1h-1h-1h-1h-2l-3 1h-2h-2l-2-1h-1l-4-5l-1-1v-1l1-1v-1l1-1h1h1v-1h1v-1v-1v-3v-2l-1-1v-1v-1l1-1l1-1l1-1l1-1h1h2v1l2 4l1 2v1l-1 1l-2 2l-1 1v1v1v2v1l1 1l3 1h2h2l2-1l2-1l1-1l1-1v-1v-1l-1-1l-1-3l-2-4l-1-2v-1v-1l1-1v-1l1-1l1-1l1-1v-1l-2-3l-2-4l-1-2h-1v-2v-2l1-2l1-1l2-1h1h1l2 1h1v1h1l1 3v1v1v1v1v2v1l1 2h1l1 1h1h1l-1-18h-42h-15h-11l-41-1l-19-1h-10z"/><path id="05079" d="m531 621v45h28h1h13h21l21 2l1-21v-5l1-13v-8h17v-7l9 2v-4l-3-2v-11l-2-3l-5-1l-7 3l-3-4l-2-2l-4-2l-4 1l-3 3h-4l-1-3l1-4l4-2l-1-2l-5 1l-6-2l-10-8l-4-1h-3v27h-3v-7h-21h-19h-2v7v21z"/><path id="05081" d="m27 699v4l5-2l1 7l-1 5l5 1l3 4l7-1l1 1l-2 3l-1 3l7 2l1-4l3-2l2 4h4l2-6h4l2 3l3-5l3 2l-2 5l5 1l3-5l5-5l5 1l3 3l4 6l5-4l6-1l3 1l1 4h1h1l9-3l1 1l-2 5l3 1l3-5l-1-5l2-1l3 8l3-1l-1-5l2-2l7 2l1-5l3 1l4-5l6 2v-2l-3-2l-2 1l-2-3l-2-2l-3 2l-1-3l-5 2l3-5l-2-3h-4l-1 4l-2-3l-4-3l1-5l-1-3h3l-3-2l-1-4l3-5l-17-1v-7h-9l-7-2l-5 2v-1l-3 1l-6-1l1-5l-1-1l-6 2v-2l-3 3l-3-4h-4l-3-3l-4 2v-8l-4-2h-2l-1-5l-7 1l3-2l-6-2l2-9l-1-2l-5-1h-3l2 4l-4-1l-3 1l-4-4l-2 1v1v13v8v5l-1 6v2v2v8v1v8v1v5v1v6z"/><path id="05083" d="m96 347v11h13v7l75 2l-1-7v-22l9 1v-4l27 1v-4h3l1-3h3l2-2v-5l2-2h3v-1h29h7v-25l-1-1l-3-2l-7-3l-6 2l-11 1l-1-2l5-2l1-2l-4-3l-2-6v-5l-2-5l-6 1l-3 5l-3 2h-3l-4-3l-7 2l-6 4h-9l-5-5h-1l-3 6l-5 1l-8 3l-2-3l-7-7l-3-6v11l-1 18l-21-2l-1 22h-10h-11v4h-1v18l-22-1z"/><path id="05085" d="m502 365v4h10v23v5l-1 7v6v1v12v15l-3 4l-2 11l1 2l-3 9h16v33h4h7l55 1h5v-4l2-5l7-8l-1-3l-5-4l3-8l2-3l-1-2l-10-9h-1l1-50v-11h-22v-27l-15 2l-4-2h-1l-5-4h-5l-6-2v-1h-3l-3-4l-8 2l-5-2l-2 3l-7-1z"/><path id="05087" d="m132 166v18h10v-3l43 1l36 1v-15h-1v-14h4v-11h3l1-7h3v-3h4v-22l1-7h-7v-11h-14v-7h-7v-3v-5h-6l-1-4v-14l-5-2l2-3l-1-1l-5 2l1-7l-32-1h-10l-1 18h-3l-12 36v14v14l-1 22v14z"/><path id="05089" d="m348 78l-1 18h11v11l21 1h30l18 1h4h13v-18l-3-4h2h1l-4-3l1-4l-3 4l-5-4l-3-4l4-5l-3-3v-7l-5-1l-4-2l-5 1l4-9l-2-2l-3-2l-5 2l1-4l3-3l4 2l1-4l-1-2l-9 2l-3-4l8-5l1-2h3l1-28h-7h-42h-13h-3v9l-4-3l-2-4l-1 40v3z"/><path id="05091" d="m116 724v2v12v1v5v8v1v3v8v2v2v3v1v1v4v8v7v2v3v2v6v3v1v9v4v2v1v9v4v14h1h2h43h1l1-1l-3-2l-2-6l-7-8l2-6v-5l3-3l1 2h3v-1l-1-3l3-1l2-1l2 3v2l2-1v-2l2-2h2l1 2l3 1l1-1v-1l-2-1l-4-1l3-3l1 1l1 1l3-1l-4-3v-2l1-3l3-1l2-1l1-1h-1l2-5l-2-4l-3-4l1-2l2 1l2 2l3-1l1-3l-1-3l-2-3l2-1l4-4l-4-1h-2l-2-3l1-2v-2l1-1h4l1-2l-1-1l-4-1l-3-2l-2-3l-1-1v-3h1l3-1l-1-3l-2 2l-2 2h-2l-1-1l1-1l3-2l-1-2l-1-1l1-2l2-2v-2l-3-5l-3-3l1-5l-3 5l1 3l-3 1l-1-7l-3-3l-2-6h-4l-1-3l2-3l1-3l-3-2v2l-6-2l-4 5l-3-1l-1 5l-7-2l-2 2l1 5l-3 1l-3-8l-2 1l1 5l-3 5l-3-1l2-5l-1-1z"/><path id="05093" d="m871 125h-1l1 74v38v2v25h29l3-1l1-5v-1l1-1l1-1l1-1h1h1h2h1l2 2l1 1v1l-1 3v2v2v2l2 2l-1 2l2 1l1-1l1-1v-1l1-1v-1l2-1v-1l1-1v-1v-1v-1l1-1v-1l1-2v-1h-1l-2-3l-2-3l-1-1v-2l-1-2l1-2v-2h1v-2l1-2v-1l1-1h1h1h1l1-1h1l2-1h1l1 1l2 1l4 3v1l1 1h-1v1v1l1 1h1l1 1h2l2 1h1h1v-1l1-1l1-3v-1h-1v-1v-1l-1-1h-1h-1h-1l-3-2l-1-1l-1-3l-1-2v-1v-1l1-1v-1l2-1l2-1l3-1l1-1l1-1v1h2h1l3-3l3-1l1-1l1-1v-1l1-2v-1l-1-2l-1-1l-1-1l-2 1h-1v1l-1 2h-1v1h-2h-2h-1l-2-1l-2-1l-1-2l-1-2l-1-2l-1-1l-1-1v-1v-4v-3v-1v-1l1-1l1-1l7-4l1-1h1l3 3l1 1l1 1h1l2-2h1l2-2h3h2h1l1-1l1-1l2-3v-1v-2l1-1l2-3l4-1v-1l1 1l3 1h2l2-1l1-1l3-1v-1l1-1v-1l-1-1v-1h-1l-4-3l-4-1l-3-1l-1-1l-1-1v-1v-1v-1v-1l1-1l1-1l2-2l3-2h5l5 2l2 2l1 1l1 1h1l1-1h1l1-1l1-1v-3v-1l-1-2v-1l-1-1l-3-2l-1-2l-2-1l-3-2l-2-1l-1-1l-1-2v-1v-3l-2-2v-1l-1-1h-1h-6l-20 1h-1h-5h-1h-11h-1h-2h-26h-5h-6z"/><path id="05095" d="m638 453l-1 14h8v4h7v7l17 1l-2 7l8 1l-1 6l7 6l3-2v4l2 4l-2 3l5 1l3-3l5 7l-3 2l6 3l1 5l1 1h1l3 3l3 5l7 2h11v-33h-11l1-43v-14l1-7h-11v-33h-3v-11h-7v-22h-11h-6v4h-11l-1 18h-15l-2 2l7 8l-3 2l-3 9l1 1l-1 38z"/><path id="05097" d="m138 482l-1 48l92 3h14v-14l1-50v-2v-18h2v-15h-63h-8v3h-7v4l-7 1h-11l-1 6v6l-11-1z"/><path id="05099" d="m228 742v7l24 1h8l21 1v-4l21 1l2-78l-1-1l-4-3l-2-6l-3 1l-5 3l-4-5l-7-3l-4 1l-4-3h-1h-1v-1v1l-1-1l-4-9l1-4l-6-4l-2-5l-6-4v-1l-9 2l-8-2v32h-2l-1 17v4v1v4l-1 37z"/><path id="05101" d="m220 154v14h1v15v7l29 2h35h7l43 1l1-22l1-44l1-20h-2v-11h-21l-7-1h-11h-25l-7-1h-29l-7-1v11h7l-1 7v22h-4v3h-3l-1 7h-3v11z"/><path id="05103" d="m302 748l-1 17l22 1h7h7l28 1h5l4-3l8 1l1 3l6 1l5 2l3-3l4 2l4-1l2-2l5 1v-2l-2 1l-1-6l-7-3l-5 3l1-4l-3-2v-3l-4 1h-6v-5h-3l-1-2l1-5l-4-3v2h-3l-3-2l3-2l-4-2l3-5l-4-2v-1l3-2l3 2l4-5l2 3l2-9l-5-7l2-8l14-2l4-8l7-4v-2l2-3l1-2v-16l-61-1h-1l-1 1l-4-4l-4 2l-1 3l-10 5h-3l-5 2l-6-4h-3l-2 3h-4z"/><path id="05105" d="m264 402v4h3v21h26h17v-21h21l29 1l2 2l3-1l4 3l5-1l3 4l1-6l-3-1v-14l21 1v-8l12 1h9v-4l-6-2l-5-8l3-6l3-2l2-2l3-5l1-5v-3l-1-2l-1-3l-1-1l-2-1l-7 8l-5 1l-4 1v-2l4-2v-4l-5 1l-5 6l-9 2l-38-1h-11h-4h-12h-2v3h-4v4h-3v3h-4v4h-4v4l-3-1v4h-4v3h-4v4h-4v3h-3v4h-4v4h-3v3h-4v4h-4v3z"/><path id="05107" d="m705 584l-1 3h33l-1-1v-1v-1l1-2l3-3l6-4l1 1h2l2 3l1 1l2 1h1l2 1h1h2h2l1-1l2-2l1-1v-2v-1v-2v-1h-1l-1-1h-2h-2l-2-1h-1h-1l-1 1h-1h-1h-1h-1h-1h-1l-4-3h-1l-3-5v-1l-1-2v-1v-1l1-1l1-1h1h2h1l1 1l1 3l1 1l3 2l2 1h2l1 1h1l1-1v-1l1-2v-1v-2v-3l1-4l1-1v-1l1-1h1h1l2-1h1l5 1l2-1l2-1v-1l2-3l1-1v-2l-1-1v-1l-1-2l-3-3h-1v-1v-1v-2h1v-1l2-1h1h1l3 1h1h2h3l2-1h1v1h1v3l-2 3l-1 2v2l1 1l1 1l1 1h2l2-1v-1v-1v-1v-2l-2-3l1-2l2-4l-1-1l4-2h1l1-1h2h1l7-5l1-1l1-2v-1l1-1v-1v-2l-2-2v-1l-2-1v-1l-1-2v-3v-2v-1l1-1v-1l1-2v-1l2-2l3-2l2-1v-1l1-1v-1l-1-3l-1-2l-2-2l-1-1l-1-1l-1-2l-1-3l-1-2l-1-3l1-4h-47h-33l-14-1l-1 43h11v33h-11v4l-4 9l1 4l2 3l-3 1l2 3l1 5l-2 4l-3-1l-1 7l2 4l-2 1l3 3h-4v3z"/><path id="05109" d="m137 530v22h2v18l21 1v42l15 1l6 2l4 1l3 3h7l4 2l2 3l3-1l6 1l5 2h4v2l7-1l7-4v2l8 2l9-2l-1-4v-3l-2-4l-3-1l-2-8l-4-2v-6l-2-10l1-2l-3-2l1-4l-1-3l1-5l-2-3l3-4l-4 1l-8-2v-10h5v-21z"/><path id="05111" d="m720 197v65v1h21l22-1l22-1h21v2h22h32l11 1v-25v-2v-38h-21l-22-2l-21 1h-22z"/><path id="05113" d="m31 530l-1 39h45v-19h-2v-21l64 1l1-48v-29v-3l-17-1v-2l-61-1l1-7l-28-1v9l-1 12v2v21v1v9l-1 22v1v3v10z"/><path id="05115" d="m265 277v14l3 2l1 1l6 4l1 5l2 1l7 1l3 2l6 7l3 6l2 7l3 2l6-2l2 1l-1 3l-2 5l1 4l5 3l3-1l3-1l1-2l-1-5l1-2l1-1l20-3l5 2l8-1l1-21v-50l1-13v-9h7l1-43h-29l-43-1v32h-11l-1 29v3h-14z"/><path id="05117" d="m566 364v27h22v11l-1 50h1l10 9l1 2l-2 3l-3 8l5 4l1 3l-7 8l-2 5v4l13 1h4v-22l44 1v-7h-7v-4h-8l1-14h14l1-38l-1-1l3-9l3-2l-7-8l2-2l1-23v-11h-15v-2l-4 2l-3-1v-3h6l-4-5l-24-1v16l-5 2l-6-2l-1-4l-4-3l-3 1l-5-3l-8 4l-5-1z"/><path id="05119" d="m375 393v14l3 1h17v21l20 1l1 1l-1 17h11v4h10h1v6v5h19l1 1v3l-1 7h5h16v22h8h13l22 1v-33h-16l3-9l-1-2l2-11l3-4v-15v-12v-1v-6l1-7v-5v-23h-10l-17-1h-4l-1 21h-6l-32-1v5l-6 3l1 7l-1 4l3 3l-5-3l1-12l-4-10l-2-1l-12-1v4h-9l-12-1v8z"/><path id="05121" d="m646 1l1 4l9 4l1 11h8v7l4 1v3h3v11h4l-1 18h4v8l2-3l1 4l4 1l5 3h4l1 4l3 3v3l4 3l8 1l-1 5l3 1v3l2-1l-1-6l3-2h1h18h15h15v-29v-5l3-1l2 2l4-1l3 2l-1-1l1-32h-4l2-3l-4-3l1-3l1-9l-3-4h-13h-5h-1h-17h-4h-5h-2h-16h-6l-18 1l-2-1l-36 1z"/><path id="05123" d="m697 371v22h7v11h3l1-11h10l19 1l41 1h11h15h42l1-24l1-36l-21 1h-21l-5-1l-1 1l-17-1h-20h-1h-43l-1 36z"/><path id="05125" d="m310 406v21h22l-1 18l-2 4v11l21 1v11h14v3v4h3v14h3h8v7l11 1l-1 14h4h9v-3l7-7h22h2l13 1v-11h2l30 1v-22h-16h-5l1-7v-3l-1-1h-19v-5v-6h-1h-10v-4h-11l1-17l-1-1l-20-1v-21h-17l-1 6l-3-4l-5 1l-4-3l-3 1l-2-2l-29-1z"/><path id="05127" d="m34 414l-1 24l28 1l-1 7l61 1v2l17 1v3l11 1v-6l1-6h11l7-1v-4h7v-3h8v-39v-7l1-21l-75-2v-7h-13v-11h-4v2l-7 1l-7 4l-4 1v1v1h3l1 1v17v4l-5 2l-8 2l-6-1l-5 2l-4-3l-1 3l-4 1l-3-1l-4 4h-4v9v1v4v4v1z"/><path id="05129" d="m336 171l-1 22h29l35 1l1-18l6 1h37v-46l1-22h-13h-4l-18-1h-30l-21-1v-11h-11h-11v11h2l-1 20z"/><path id="05131" d="m35 377l-1 11h4l4-4l3 1l4-1l1-3l4 3l5-2l6 1l8-2l5-2v-4v-17l-1-1h-3v-1v-1l4-1l7-4l7-1v-2h4v-11l22 1v-18h1h-4v4l-4-1v-3h-3v-18l1-31v-3v-5l-2 1l-11-2l-3 2l-1 1l5 9l-1 4l-5 2l-5-3l-3 7l-6 1h-1l-4 1l-4-2l-5 2l-8-5l-1-2l2-7l-4-5l-6-5l-5 1l-5 4l2 9h-1v1v2v1v2v1v14v4v1v3v1l-1 5v2v1v2v5v3v1v2v3v1v1v9v2l-1 14z"/><path id="05133" d="m28 627v3l2-1l4 4l3-1l4 1l-2-4h3l5 1l1 2l-2 9l6 2l-3 2l7-1l1 5h2l4 2v8l4-2l3 3h4l3 4l3-3v2l6-2l1 1l-1 5l6 1l3-1v1l5-2l7 2h9v7l17 1l-3-4l2-5l-2-1l1-1l-1-3l-6-6l-2-4h-2v-6l-6-3v-4l-2-2l-1-1l-1-6l3-7l-2-2v-5l-1-1l-3-8l2-9l-3-1l2-6l-3-3l3-3l-5-2l2-3v-7l1-3l-3-1h-28h-45l-1 41v1l-1 15z"/><path id="05135" d="m585 124v15l15 1h34v11l22 1v-22l1-45v-18h4v-3h14v-4l1-18h-4v-11h-3v-3l-4-1v-7h-8l-1-11l-9-4l-1-4h-6h-2h-1l-1 19v21h-12h-10v19v2h-26v11h4v11l-2 35l-1 1l1 4z"/><path id="05137" d="m443 177l-1 18l36 1l42 1l39 1v-11l-5-6l-2-9l5-9v-5l-4-4h-6l-8-8l-3-4l-3-3l-3 1l-5 5l-4-1l-1-4l-3-1l-7 4l-6-3v-3l5-4v-5l-3-5l2-3l6-1l1-3l-4-5l-7-2l-3-5l-3-7l-3-1l-4 3l-3-1l-1-6v18l-22-1v22h-22z"/><path id="05139" d="m328 833v20h3h5h16h3h2h2h7h13h2h1h1l37 1h5h1h6h20h1h6h9l14 1h31l-4-6h-4l-2-9h-3v-6l1-6l3-3v-6l-5-1l-3-2l-4 2l2-3l-2-3h-2v-6l-3 2l-5-2v-3h2l-4-2l1-5l-2-1l-2 2l-4-1l-1-3h-5v-4l-3 4l-3 1l-1-4l-6-1l2-4l-6 5l-10 2l-3-1l-2-3l-1 1l-3-3l3-2l-4-6l-2 3l-3-3l-4 3l-2-10l-3-2l-4-1l-5-1l-2 2l-4 1l-4-2l-3 3l-5-2l-6-1l-1-3l-8-1l-4 3h-5l-28-1h-7z"/><path id="05141" d="m356 245l-1 13l57 1h18v22h16h2l28 1v-39l1-4v-8l1-19v-16l-36-1l1-18h-37l-6-1l-1 18l-35-1l-1 43h-7z"/><path id="05143" d="m13 99l1 6l3 18v1v1v3l1 5l1 5v2v1l1 8l2 14l1 3v2v2v3h1v1v1v1l1 6v2l21 1h21h1l14 1l17 1v-4h4l29 1v-18h2v-14l1-22v-14v-14l12-36h-11l-3 3l-3-1v6l-2-2h-3l-2-5l-4 2l2 4l-15-1h-5h-4h-8h-1l-26-1h-5v9v2v7h-11l-1 11h-5z"/><path id="05145" d="m503 333l-1 22l7 1l2-3l5 2l8-2l3 4h3v1l6 2h5l5 4h1l4 2l15-2l7-5l5 1l8-4l5 3l3-1l4 3l1 4l6 2l5-2v-16l24 1l3-4h5l-4-1l1-2l-2-5h4l-1-4l-5-1v-2l5-1l3-2l-1-2l-1-2h3l1-1l1-4l2 1v3v1l3 1l1-2h-1h-1h-1v-1l2-2v-1v-1h-1h-1h-1v-1h1h2v-1l-1-1h-1v-1v-1h1v-2l1-1l1-1h1v-1v-1v-1h-1h-1v1v1v1l-1 1h-1l-2-4h-2v-3v-6l-5 2l2-9l-1-1l-3-3l4-1l-3-4l2-1l3 3l1-1l-3-3l4-2l3 2h1l-3-4l6-3v-4l1-2l2 5l2-4l-2-1l2-3h-48v-22l-13-1h-12h-7h-10l-1 19l-4 2l-2-1l-2 3l-2 1l-1 19l-52-1l-1 41z"/><path id="05147" d="m632 355v3l3 1l4-2v2h15v11l-1 23h15l1-18h11v-4h6h11h21l1-36l1-51h-43v-22h-20l1 1l-2 3l2 1l-2 4l-2-5l-1 2v4l-6 3l3 4h-1l-3-2l-4 2l3 3l-1 1l-3-3l-2 1l3 4l-4 1l3 3l1 1l-2 9l5-2v6v3h2l2 4h1l1-1v-1v-1v-1h1h1v1v1v1h-1l-1 1l-1 1v2h-1v1v1h1l1 1v1h-2h-1v1h1h1h1v1v1l-2 2v1h1h1h1l-1 2l-3-1v-1v-3l-2-1l-1 4l-1 1h-3l1 2l1 2l-3 2l-5 1v2l5 1l1 4h-4l2 5l-1 2l4 1h-5l-3 4l4 5z"/><path id="05149" d="m183 395v39h63v-7h21v-21h-3v-4h3v-3h4v-4h4v-3h3v-4h4v-4h3v-3h4v-4h4v-3h4v-4l3 1v-4h4v-4h4v-3h3v-4h4v-3h2l3-3l-3-5l12-2l1-4l4-2l7-7h5l-5-2l-20 3l-1 1l-1 2l1 5l-1 2l-3 1l-3 1l-5-3l-1-4l2-5l1-3l-2-1l-6 2l-3-2l-2-7l-3-6l-6-7l-3-2l-7-1l-2-1l-1-5l-6-4v25h-7h-29v1h-3l-2 2v5l-2 2h-3l-1 3h-3v4l-27-1v4l-9-1v22l1 7l-1 21z"/></svg>
