<?xml version="1.0" encoding="UTF-8"?>
<!DOCTYPE svg PUBLIC '-//W3C//DTD SVG 1.1//EN' 'http://www.w3.org/Graphics/SVG/1.1/DTD/svg11.dtd'>
<svg viewBox="0 0 10000 8557.36" xmlns="http://www.w3.org/2000/svg">
  <g data-id="001">
    <path d="m5847.9 5407.9l0 0l-4.2 179.7l239.8 12.5l-4.6 40.3l45.2 -25.8l50.3 -0.5l38.1 19.2l1.6 75.5l26.2 30.8l-12.6 18.7l12.9 52l39.3 -16.2l3.4 52.8l30.4 -18.5l52.4 2.4l18.4 19.1l-11.1 11.6l20.4 59.3l-15 40.4l19.6 28.4l2 107l26.5 24l59.1 78.1l38.1 0.1l46.4 -48.7l56.9 5.3l-6.9 50l-63.8 37.2l9.3 18.4l94.4 -11.6l41.5 -28.1l27.5 1.7l17.7 36.2l22 0.7l24.3 -40.7l22.7 -10.3l27.8 13.6l7.9 42l21 5.1l63.1 -12.5l34.6 50l37.6 -42.9l-5.8 -16.5l-46.6 -41.4l3.7 -35l-29.1 -53.2l-23.3 -2.8l-6.1 -36.3l-17.7 -6.9l-4.2 -38.2l17.2 -33.5l-12 -19.4l50.5 -53.3l42.3 14.8l11.5 -57l40 8.2l9.2 -26.8l0.1 -0.4l12.9 -27.2l26.1 -2.5l5.6 -23.1l34.3 -7.1l-23.6 -30.3l13.3 -7.7l-21.2 -42.5l17.9 -61.7l30 2l19.8 -37.4l-9.5 -53.1l-27.9 -27.3l33.5 -12.4l-21.5 -26.3l-8.8 -42.8l40.2 -85.6l2.8 -44.1l-74.5 -17.9l-25.4 -53.7l-33.8 -23.8l-4.7 -5l-3.2 -2.2l-6.7 -3.7l-1.3 -2.1l-15.5 -52.8l-55.3 -22.6l24.2 -24.1l-42 -69.5l-34.5 26.1l-54 -9.9l24.5 -30.1l-17.6 -40.7l-5.8 -34.3l-28.3 15.1l-63 -51.6l4 -61.7l-79.4 -16.7l19.3 -67.7l-173.6 -4.2l-435.6 -11.2l-2.2 213.7l-41.2 2.4l-124.7 -5.8l-54.6 -1.8l-9.1 426.2z" />
  </g>
  <g data-id="003">
    <path d="m5001.3 8150.1l0 0l-13.7 26l53.8 13.5l-4.9 60.8l-31.5 31.6l-7.7 53.3l6.6 63.6l30.1 0.2l11.9 91.6l48.2 -0l31 57.1l235.6 1.8l3.9 -0.2l150.6 -0.5l241.4 1.7l39.3 -1.3l217 2.2l1.9 0l18.2 -0.2l17.3 0.4l58.7 0.1l0.3 0.1l14.7 -1l25.8 0.2l119.4 0.1l22 1.4l57.9 0.7l6.1 -920.5l-299.1 -5.9l-535.8 -11.8l-36.8 -0.2l-199.8 -4.3l6.6 26.3l54.1 23l-19.1 20.5l4.9 30.7l-41.3 37.3l28.2 49.2l-7.6 44.7l-64.4 11.1l16.3 28l-54.1 25.5l-28.1 -7.4l9.5 29.2l-13.7 22l-60.2 16.4l5.9 28.4l-27 -6.2l-7.5 36l-28.1 17.8l-26.7 -11.4l1.3 39.6l-27.2 -4.8l-15.4 29.6l10.8 54.4z" />
  </g>
  <g data-id="005">
    <path d="m4073.2 351.6l0 0l28.6 41.7l89.3 -21.3l11.2 16.5l-12 36.6l-38 -16.9l-35.7 33.9l-6 40.9l44.5 -18l30.1 11.2l26.5 26.1l-40.6 87.1l46.2 -13l43.4 26.5l49.2 3.3l-4 72.2l34.4 32.3l-39.7 53.4l30.9 35.6l45.5 37.9l30.5 -35.6l-4.9 36.2l39.9 28.4l-16.2 7.4l-19.6 0l34.6 36.6l-4.7 179l-5.7 216l215.4 4.6l4.6 -216.4l215.8 4.5l4.5 -182.9l-39.8 -1.6l2.6 -103.7l108.6 3.3l5.8 -218l-4.4 -5.6l1.6 -59.9l6.4 -153.3l1.9 -12.3l6.4 -310.8l1.7 -50.9l-98.7 0.7l-24.2 -0.1l-5.4 0.1l-4.6 -0.1l-187 1.3l-18.1 0.5l-64.1 -0.2l-50 1.5l-19.6 -1.6l-71.3 -0.2l-47.7 -1.5l-146.2 -0.5l-24.7 0.3l-8.1 280.1l-33 -0.9l-6 18.7l-79.8 51.3z" />
  </g>
  <g data-id="007">
    <path d="m0 0.5l0 0l5.2 36.1l3 21.9l4.5 36.8l12.5 98.9l5.6 41.6l1.3 7.9l4.5 36.3l12.7 104.5l4.2 33l10.3 81.2l3 22l13.8 102.4l-0 1.3l3.8 23.6l1.9 15.9l0.4 2.3l1 6.8l5.2 40.5l1.1 6.9l0 0.2l9.4 67.6l1.9 13.3l5.7 41.2l0 0.4l3.3 24l18.1 124.2l264.4 6l51.9 0.9l10 -107.3l107.6 0.9l2.6 -70.9l0.6 -25.7l2.6 -83.9l45.7 1.3l259.2 6.7l16.4 0.4l72.2 2.6l49.3 0.7l40.4 0.7l152.2 3.7l-13.5 -38.6l32.8 -16.1l19.7 48.1l29.5 -3.3l20.5 20.8l2.1 -61.5l29.2 15.2l27.6 -34.3l113 2.8l36.5 0.5l1.1 -181.1l107.5 2.2l-33.2 -15.6l-3.8 -27l-68.4 -30.6l2.4 -101.8l-27.5 19.3l-20.2 -22.6l16.9 -40.7l30.8 -0.5l0.1 -260.8l-79.2 0.2l-31.6 0l-75.1 0l-9.5 0l-220.2 -0l-7.4 -0l-43.2 0.1l-3.3 0l-21 0.2l-1.6 -0l-140.6 -0.7l-176.7 -0.9l-184.8 -0.9l-318.3 1l-80.1 -0.7l-117.9 0.2z" />
  </g>
  <g data-id="009">
    <path d="m2650.9 801.1l0 0l-2.4 142.3l71.7 3.1l251 6.9l110 -4.5l72.8 7.5l210.7 1.8l-0 1.2l108.5 2.5l2.6 -179.9l-0.5 -329.3l2.8 -36.8l7.6 -393.6l21.7 37.6l38.2 27.6l1.3 -83.4l-80.3 0.3l-0.7 -0l-350.1 -1l-2.1 0l-36.4 0l-2.7 0.1l-74.4 0.8l-50.6 -0.2l-280.8 -1l-5.3 -0l-10.4 3.5l4.6 199.2l-2.4 301.5l-3.3 160l-0.9 133.8z" />
  </g>
  <g data-id="011">
    <path d="m4496.5 7744l0 0l6.3 67.2l56.7 38l-17 40.7l60.5 5.4l4.7 40.8l34.9 -5.2l27.1 -37.7l4.6 37.9l49.5 1.1l6 24.3l38.3 9l21.7 -18.5l21.7 11.3l-14.4 53.6l40.9 18.6l-21.2 3.9l0.2 30.7l54 18.4l33.3 -26.7l-6 58.7l19 0.2l19.9 39.2l-16 22.1l40.9 -18.5l25.5 17.8l13.7 -26l-10.8 -54.4l15.4 -29.6l27.2 4.8l-1.3 -39.6l26.7 11.4l28.1 -17.8l7.5 -36l27 6.2l-5.9 -28.4l60.2 -16.4l13.7 -22l-9.5 -29.2l28.1 7.4l54.1 -25.5l-16.3 -28l64.4 -11.1l7.6 -44.7l-28.2 -49.2l41.3 -37.3l-4.9 -30.7l19.1 -20.5l-54.1 -23l-6.6 -26.3l-24 -42.4l19.7 -48.3l-39 -25l-7.4 -26.2l30.6 -40.6l-17.7 -31.1l19.7 -32l-17.6 -70.6l63.9 -0.7l0.5 -404.3l0 -17.6l-419.1 -2.1l-203.1 -0.6l-91.6 -5.4l21.6 61.6l-13.1 42.8l11 83.1l-15.3 32l15.5 77.3l-6.6 30.5l20.3 50.3l-17.6 65.8l22.7 53.7l-21.2 37.5l4 41.8l-15.8 61.5l-25.3 36.7l-1.8 33.5l-28 30.7l-9.2 52.7l-29.1 2.8l-14.7 86.6z" />
  </g>
  <g data-id="013">
    <path d="m3704 7258.2l0 0l-1.7 15.9l35.6 16.1l-28.9 50.4l36.3 22.3l-20.4 20.3l25.4 19.6l30.9 -4.2l2.6 -21.6l40 32.2l-16.7 51.6l16 20l28.1 -4l-4.8 53.7l60 1.6l44.3 -8.3l-3.6 26.6l37.2 18.7l-9.6 45.5l43 -31l69.1 26.9l12.5 61.3l23.6 -13.8l0.8 26.7l40 2.7l28.7 24.2l18.6 94.8l39.2 -24.8l31.4 27.2l14.9 -29l44 58.9l-28.3 21.9l26.9 26.2l12.9 -10.9l16.3 30.9l28.8 12.2l101.5 -21.4l60.7 -48.7l-56.7 -38l-6.3 -67.2l14.7 -86.6l29.1 -2.8l9.2 -52.7l28 -30.7l1.8 -33.5l25.3 -36.7l15.8 -61.5l-4 -41.8l21.2 -37.5l-22.7 -53.7l17.6 -65.8l-20.3 -50.3l6.6 -30.5l-15.5 -77.3l15.3 -32l-11 -83.1l13.1 -42.8l-21.6 -61.6l-22.1 -84.8l29.8 -84.4l-14.5 -41.7l-500.3 -17.3l-4 158.9l-9 19.3l-20.1 24.7l-0.3 17.5l-71.4 43.6l-35.4 76.7l-142.5 22.9l-18.6 86.5l46 60.4l-15 93.1l-19.1 -27.2l-39.1 44.5l-36.6 -19.2l-22.7 21.7z" />
  </g>
  <g data-id="015">
    <path d="m1479.6 263.4l0 0l-16.9 40.7l20.2 22.6l27.5 -19.3l-2.4 101.8l68.4 30.6l3.8 27l33.2 15.6l317.5 8.7l-10.7 70l46.6 -20.6l17.6 13.9l-21.2 23.5l47.1 23.3l-3.6 143.7l16.6 36.5l54 2.1l-0.8 48.3l-0.4 26.5l69.9 1.7l-0.8 71.6l144 3l70.4 1.9l288.9 6.8l2.4 -142.3l0.9 -133.8l3.3 -160l2.4 -301.5l-4.6 -199.2l10.4 -3.5l-44 -0.2l-0 -0l-159.6 -0.3l-2.7 -0.4l-62.2 0.2l-161.7 -0.8l-14.3 0.1l-140.3 -0l-190.9 -0.5l-42.1 -0.1l-19.7 -0.1l-18 0l-17.4 0.3l-0.9 0l-279 0.6l-0.1 260.8l-30.8 0.5z" />
  </g>
  <g data-id="017">
    <path d="m6355.3 7632.5l0 0l-6.1 920.5l14.1 0.2l35.4 -0.6l20.7 0.2l99.4 0.5l86.5 0.6l6.5 0.3l6.8 0.1l2.7 0l5.1 0.1l21.1 0.2l55.5 0.6l39 -0.2l199 2.3l-0.4 -17.3l7.9 -20l12.5 -9.3l12.9 -6.6l14.7 -2.2l10 -3.6l16.8 -11.6l6.9 -11.3l4.5 -19.9l6.2 -19.1l0.2 -3.3l-1.8 -7.8l-6.9 -11.9l-50.6 -41.9l-21.8 -9.6l-10.6 -1.4l-11.3 -3.9l-4.1 -3.6l-2.4 -5.6l-12.3 -16.1l-30.4 -14.9l-8.5 -5.7l-1.9 -3l-0.7 -3.5l-1.3 -27.9l0.6 -9.3l13 -23.1l4.3 -4.8l9 -7.4l10.2 -4.5l28.7 -2.3l15.6 2.1l2.7 1.4l14.6 14.7l2.3 7.9l3 2.7l14.1 2.2l23.5 1.6l35.3 -1.8l19.6 -4.2l22.4 -12.3l6.7 -7l4.6 -13.3l1.4 -8.5l2.7 -17l1.4 -14.4l1.1 -45.8l-5.2 -42.4l-5.9 -28.1l-3.6 -25.5l11.5 -2l6.2 0.1l6.5 -3.9l0.8 -1.6l0 -6.3l3.1 -2.4l7.2 1.6l6.8 -1.2l-0.8 -6.7l4.8 -6.8l6.2 -0.1l3.5 -10.5l19.7 -21l7.5 -12.3l5.5 -21.1l4.9 -13l2.4 -10.7l0.7 -11.5l-3.1 -10.5l-6.1 -9.1l-8.5 -6.3l-12.8 -3.6l-16.7 -0.7l-11.1 3.1l-12 6.2l-5.5 4.9l-4.9 6.5l-4.9 11.8l-8.5 39.3l-2.3 6l-6.6 10.4l-4.4 21.3l-4.3 8.3l-2 0.1l-12.1 -8.8l-8.9 -9.9l-7.6 -16.9l-5.8 -18.6l-2 -3.3l-19.8 -15.5l5.1 -15l-0 -13.3l-29.2 -39.4l-3.1 -7l0.3 -35.6l-4.4 -33.9l0.6 -5.1l2.9 -5.9l1.9 -8.5l-2.5 -30.1l0.9 -2.6l3.2 -3.3l30.3 -20.8l9.4 -8.9l27.4 -41.7l10.7 -14.6l21.3 -20.7l31.3 -24.5l26.2 -36.8l8.3 -18l1.1 -40.1l-0.8 -2.1l-3.6 -9.7l-9.8 -8.5l-5.9 -3.2l-13.9 -1.7l-6.6 0.4l-8.1 3.5l-9.4 6.3l-10.2 12.7l-5.5 8.8l-4.9 12.2l-1.6 9.3l0.1 4.8l4.3 14.6l0.2 19.7l-8.2 22.3l-15.9 22.1l-13.3 14.3l-19.8 13.5l-34.8 17l-26.3 3.8l-24.7 -1.9l-11.4 -3.2l-10 -4.4l-28.5 -16.4l-27.4 -22.1l-6.7 -7.7l-1.8 -3.9l-0.4 -6.4l1 -5.9l6.9 -13.3l5.4 -6.3l6.5 -3.6l14.8 1.4l15.2 -4.5l10.2 5.8l6.2 0.4l25.9 -12.5l31.6 -12.1l5.6 -1.3l11.5 1.8l14.6 -7.5l2.7 -4.4l0 -3.3l3.9 -7.3l15.1 -17.5l5.2 -13.4l1 -11.3l-3.4 -15.5l-10.9 -30.4l-23.2 -20.4l-41.5 -28l-5.7 -4.6l-7.8 -6.3l-6.8 -2.1l-9.7 3.9l-6.6 14.3l-3.3 11.1l0.3 17.5l2.7 17.2l7.7 22.7l4.9 23.4l-16 21.7l-9 6.9l-10.4 5.3l-15.4 5.4l-24.4 6.1l-7 0.1l-14.3 -2.2l-35.8 -10.3l-1.5 -3.9l3.3 -4.1l1.8 -4.2l1.7 -23.9l1.9 -7.6l16.7 -13.7l6.3 -0.7l9.4 -4.2l14 -9.2l3.6 -4.1l2.2 -7.8l12.2 -23.1l8 -12.9l12.6 -10.9l7.5 -8.2l5.2 -5.3l0.3 -9.1l-3.4 -12l-5.5 -7.7l-56.9 -45.5l-7.3 -7.1l-14.1 -21.3l-7.1 -14.1l-4.9 -13.9l-0.5 -11.3l2.3 -7.6l1.1 -1.9l-27.6 -0.1l-2.4 106.8l-158.8 -3.5l-16.9 -36.1l-26.1 -0.1l-9.4 34.1l2.6 -106.6l-208.9 -0.1l-7.9 421.2z" />
  </g>
  <g data-id="019">
    <path d="m2245 5539.3l0 0l-1.5 96.5l81.5 20.3l37.6 -6.5l-34.9 43.9l23.7 24.1l-14.3 53.8l13.2 29.1l-15.1 38.4l30.2 24.3l-6.5 15.1l19.7 106.1l1.9 50.7l35 26.9l23.6 79.8l26.4 11.6l25.9 35.5l-3.1 32.2l14.4 38.7l-0.6 14.2l56.2 35.8l18.2 49.8l65.6 43.7l-7.1 38.5l34.9 90.1l2.1 1.8l2 1l2.4 0.8l1 -0.4l0.4 -0.5l1.1 -0.4l1.2 -1l0.7 -0.3l0.9 0.4l1.5 0.5l1 1.3l0 0.4l1.1 0.9l2.4 1.1l3.6 2.8l0.9 0.8l1.5 0.6l2.1 0.4l1.7 0l2.2 -1.4l0.9 -0.1l0.9 0.3l0.3 0.4l0.6 1.8l-0.3 0.3l34.3 27.7l45.6 -6.6l72.7 26.8l38.3 48.7l47.2 -33.1l31.5 -4.3l23.3 55.6l32.2 30.5l16.9 7.4l36.2 1.4l16.2 -23.9l32.7 -0.2l60.2 39.7l48.2 -21.3l31 3.4l105.6 -55.1l2.9 -27.8l41.3 -24l43.5 37.3l6 -9.2l-12.9 -15.1l22.9 -23.5l-10.3 -19.4l29.9 -7.9l-10.1 -44.9l-32.1 -2.5l-20 -100l33.4 -11.4l-29.3 -13l-2.5 -24.3l-52.8 -48.1l-11.4 -55.4l-41.4 -32.3l24.7 -29.6l112.7 7.5l9.2 -278.9l4.5 -140l-289 -11.9l-18 12.9l-8.3 -60.3l21.1 -40l13.5 -12.6l-10 -28.1l-15.4 -19.5l8.2 -36.1l-100.4 1.7l-11.4 -24.6l-220 -5.7l2.3 -71.2l-106.1 -2.6l-201.3 -4.3l-11.5 -0.3l2.1 -142.1l-105.2 -2l-141.8 -3.2l-3.5 213l-42.5 -1.1z" />
  </g>
  <g data-id="021">
    <path d="m7664.7 528.2l0 0l-0.8 53.1l182.6 -2.7l495.8 19.7l300.5 2.2l-2.3 146l262.9 -2l1.5 2.6l13.2 -12l54.1 -22.3l27.5 -33.5l31.9 -4.6l0.8 -35l22.2 -55.3l62.7 -16.8l9.9 -40.4l29.8 -36.2l-32.2 -38.9l5.2 -55.9l27.9 -39.7l-5.2 -73.3l-28.7 -36.2l-58.5 -8.3l-43.3 -27.5l-25.5 -23.4l19.3 -30.4l-14.6 -58.2l-1.7 -30.7l-34.4 -22l-1.6 -1l12.7 -35l-1.1 -3.7l3.9 -2.8l-83.4 0.3l-47 0.1l-6.8 -0.2l-0.1 0l-16.5 0.2l-223.1 -1.1l-311 -0.4l-0.9 -0l-10.3 -0.1l-152.7 -0.1l-0.1 -0l-18.4 -0.1l-18 0.1l-22.4 0l-14.3 -0.3l-72.3 0.3l-9.6 -0.1l-79.9 -0.1l-36.6 0.5l-109.5 -0.4l-33.7 -0.1l-3.9 -0l29.7 33.2l-10.3 94.9l-10 24.4l45.1 39.5l-26.8 21.9l44.2 0.7l-6.4 321.9l4.3 8.2l-31.1 -16.3l-33.4 7.2l-19.9 -22.8l-29.4 12.9z" />
  </g>
  <g data-id="023">
    <path d="m4763.9 2426.3l0 0l-7.9 394.6l142.2 2.7l118.8 1.4l23.1 -1.7l521.8 10.9l3.6 -192.8l26.8 -11.3l16.5 -33.9l18.7 12l47.2 -14.1l3.8 -194l8.3 -439.4l-34.5 17.8l-60.7 -1l-391.8 -6.8l-419.2 -11.1l-2.3 162.3l-4.9 190l-1.2 78.8l-8.2 35.4z" />
  </g>
  <g data-id="025">
    <path d="m4315.7 6017.3l0 0l-7.9 204.6l39.2 0.2l72.2 82.8l39.1 60.4l13.7 65l25.8 42l56.2 39.4l31.8 60.4l6.3 80l14.5 41.7l-29.8 84.4l22.1 84.8l91.6 5.4l203.1 0.6l419.1 2.1l-0.3 -211.3l-0.9 -449.3l47 0.3l-1.5 -211l-69.8 0.5l-163.5 1l-328.9 2.9l-207.9 6.5l-271.3 6.3z" />
  </g>
  <g data-id="027">
    <path d="m2267 8523l0 0l2 -0l45.1 -0.4l0.1 -0l180.8 0.9l74 -0.2l64.3 0.4l0.4 0.1l139.9 0.4l46.2 -1l36.7 1.1l86.6 0.2l69.6 0.2l36.8 0.1l0.9 -0.1l39.3 -0.3l16.6 0.1l5 0.3l164.8 1.2l4.7 -192.9l15.9 -672.2l-71.3 -1.6l-211.3 -5.7l5.3 -174.9l-210.5 -5.1l-0.5 35.2l-212.1 -8.1l-78.1 -1.6l-22.4 28.7l-88.7 250l-15.9 30.2l5.8 17.5l5.2 17.9l-26 28.9l7 31l-18.7 44.3l-79.9 -4.4l-17.6 580.1z" />
  </g>
  <g data-id="029">
    <path d="m3171.5 3448.1l0 0l29.1 50.6l-28.7 28.1l120.3 3.4l36.7 -0.6l107 2.6l388 7.3l82.3 -16.5l52.6 -64.3l51.1 -11l-2.7 39.7l-37.8 21.3l-1.5 19.4l46 -3.2l44.5 -18.8l73 -74.9l17.5 6.3l23.2 -31.2l43.6 27.7l27.9 -54.1l14.6 -91.3l-57.1 -38.9l13.5 -77.7l-19.1 -7.4l54.9 -39.4l-20.6 -41.3l60.6 -58.4l5.6 -216.1l4.4 -214.6l-176.9 -3.9l-569.9 -14.8l-7.4 499.9l-1.4 215.2l-82.7 5.2l-56.7 5.8l-63.7 69.1l-46.3 21.9l-1.6 32.6l-122.6 22.4z" />
  </g>
  <g data-id="031">
    <path d="m7204.6 1750.7l0 0l-3.9 218.4l650.5 7.8l218.7 2l209.4 -7l218.8 14.9l211.2 3.3l-4.4 -735.6l-6.9 0.1l-94.6 0.9l-6.4 0.3l-52.5 0.2l-18.4 0.3l-19.1 77l-146.6 -1l-71.9 -0.4l-179.8 -0.7l-35.3 -0.3l-126.3 -1.8l-374.4 -4.2l-19.1 31l8.6 11.5l-8.3 66.7l-21.6 -0.8l-1.2 108.1l-321.2 -10.4l-5.1 219.5z" />
  </g>
  <g data-id="033">
    <path d="m251.3 1843.4l0 0l9.5 74.1l1.3 7.7l30 216.8l14.8 110.1l1.6 12.7l0.7 4.1l1.6 11.4l13.5 104.5l13.9 107.9l0.2 1l24.7 168.3l47.8 -46.1l52.8 -3.4l58.7 46.7l38.3 50.8l-17.7 68l10.8 22.9l75.2 46l50 -16.7l39.8 15l36.3 -3.3l17.2 2.9l58.1 -15l30.4 -68.7l45 24.3l56.9 -15.9l7.9 -36.1l-52.9 -89.1l8.6 -15.7l29.6 -21.1l112.2 19.1l23.6 -7.2l96.4 -38l-54.6 -41.7l26.9 -11l2.6 -8.8l-16.4 -10l-5.9 1.1l-0.3 -6.1l3.2 -4.6l16.9 -13.8l6.3 0.4l8.7 -5.6l-14.1 -105.6l33.6 -31.3l1 -43.3l-107 -3.2l3.2 -143.2l1.8 -71.9l180 4.2l3 -107l36 1.5l1.3 -71.1l105.9 3.3l0.7 -36.3l37.2 0.9l0.9 -35.6l-37.4 -0.8l-104.7 -2.9l-288.6 -8.2l-35.9 -0.9l-1.2 35.2l-176.2 -6.2l-137.7 -4.4l-5 -0.2l-208.9 -6.1l-212.2 -4.7z" />
  </g>
  <g data-id="035">
    <path d="m8274.1 2845l0 0l-6.7 431.6l7 84.9l206.2 -9.9l-15 358.1l-1.3 241.3l1.1 174.3l12.8 -5.7l43.8 -26l55.6 -17.8l8 -4.7l15.8 -12.9l16.3 19.2l18.6 15l7.8 3.8l15.9 1.5l7.9 -4.8l6.9 -10.6l2.6 -9.4l0.3 -5.2l-2.4 -7.9l-1.5 -2.2l-18.2 -27.2l7 -8.3l16.2 -12.1l45.4 -24.6l58.9 -42.3l3.6 -5.9l3.5 -10.9l3.7 -16.8l0.5 -40.6l-3.3 -16.5l-3.5 -8.8l-4.5 -8l-7.9 -9.3l-11.4 -6.9l-37.4 -17.9l-8 -6.3l-10.1 -12l-11.8 -5l-6.7 -4.3l-12.2 -14.1l-3.9 -7l-9.8 -26.4l-2 -21.1l0.8 -13.4l6 -20.7l12.5 -26l6.8 -22.3l3.4 -5.4l2.3 -1.3l5 -2.9l53.7 3.7l3 1.7l0.8 5.2l2 2.7l11.9 4.7l52 7.8l11.7 3.3l17.2 9.6l3.8 0.6l10 -1.8l18.6 -15.4l8.1 -11.3l-1.5 -15.4l-0.6 -17.4l1.1 -13.3l2.9 -13.9l27.6 -72.7l9.1 -50.8l6.5 -14.7l1 -1l15.7 -16.6l10.6 -8.9l8.2 -5.3l22.7 -9.8l3.8 -0.3l7.6 2.7l59.6 37.1l17.7 5.4l20.1 -3.9l7.8 -3.7l6.6 -4.6l24.6 -24.4l9.3 -10.8l2.4 -4.2l1.6 -7.2l-3.8 -25.7l-1 -1.9l-4.9 -4.4l-42.2 -6.5l-5.2 -2.4l-7.2 -9.2l-6.5 -8.6l-6.9 -8.6l-4.6 -6.7l-5.1 -9.5l-2.2 -9.5l-3.8 -0.5l-6.3 -7.5l-6.4 -15.3l-0.3 -6.6l2.7 -19.5l14.3 -1.5l23.5 10.6l1.9 -0.1l6.4 -20.8l9.4 -22.4l9 4.8l5.9 5.6l8.8 -1.6l5.1 -6.6l0.2 -13.7l-1.5 -8.3l-3.9 -9.7l-3.8 -8.4l-8.4 -9.9l-6.8 -9.6l-9.2 -15.9l-14.2 -19.2l-3.1 -3.5l-11.3 -7.1l-10.1 -2.9l-12.8 -0.8l-14.3 2l-17.1 4.5l-16.6 2.2l-23.5 -9.1l-13.6 -16.2l-15.5 -29.6l-4.4 -11.1l-0.2 -7.2l7.4 -27.6l2.8 -7.2l5.2 -7l4.6 -4.2l11.1 -4.8l7.2 -1.7l20.7 11l14.3 -4.1l17.5 -10l3.7 -0l9.3 2.8l16.3 -3.9l4.6 -48.4l6 -19.2l-12.9 -25.6l3 0.5l3 -1.4l14.1 -20.9l7 -13.8l6.7 -8.1l6 -1l5.2 -5.9l8.2 -13.6l17.8 -37.9l-6 -0.9l-3.9 -1.9l-15.7 -13.7l-11.8 -6.2l-6.2 -4.7l-16.5 -15.4l-3.9 -4.6l-7.6 -13l-3.9 -3.8l-8.8 -3.8l-27.3 -5.1l-9.4 1.9l-5.5 3.6l-7.6 7.3l-3.6 4.7l-3.3 7.2l-2.2 10.6l0.6 10.8l4.8 18.4l16 27l-18.9 5l-42.9 -0.3l-12.4 -7.2l-12 -10.9l-1.9 -7.7l17.2 -61.4l0.2 -20.4l3.2 -8.6l58 -36.1l-295 -5.2l-108.5 -1.5l-324.9 -6.3l-1.4 216.5z" />
  </g>
  <g data-id="037">
    <path d="m7195 2844.2l0 0l-5.8 507.4l429.4 -1.4l14.1 1.4l202.3 0.6l169.2 6.9l7.6 -4.3l44.5 1.1l3.3 3.3l214.9 4.2l0 -2.1l-7 -84.9l6.7 -431.6l1.4 -216.5l-218.1 0.2l0.3 -17.5l-211.9 -2.3l-216.6 9.8l-216 9.7l-211.4 -2.8l-5.7 -4.4l-0.8 114.5l-0.3 108.6z" />
  </g>
  <g data-id="039">
    <path d="m3355.6 6188.8l0 0l-24.7 29.6l41.4 32.3l11.4 55.4l52.8 48.1l2.5 24.3l29.3 13l-33.4 11.4l20 100l32.1 2.5l10.1 44.9l-29.9 7.9l10.3 19.4l-22.9 23.5l12.9 15.1l15.8 -0.1l603.4 18.7l5.1 0.1l500.3 17.3l-6.3 -80l-31.8 -60.4l-56.2 -39.4l-25.8 -42l-13.7 -65l-39.1 -60.4l-72.2 -82.8l-39.2 -0.2l7.9 -204.6l271.3 -6.3l-75.4 -37.4l-1.5 -27.8l-38.4 -43.7l-23.1 -26.5l-42.1 -24.2l-43.6 5.6l-41.7 -35l-45.9 11l-4.1 -27.4l-371.4 -13.1l-272.7 -5l-145.4 -10.2l-4.5 140l-9.2 278.9l-112.7 -7.5z" />
  </g>
  <g data-id="041">
    <path d="m6157.7 6468.5l0 0l-4.1 212l115.7 6.8l100.1 0.4l-6.3 523.6l208.9 0.1l-2.6 106.6l9.4 -34.1l26.1 0.1l16.9 36.1l158.8 3.5l2.4 -106.8l27.6 0.1l4.8 -8l8.8 -6.5l5.3 -1.9l36.8 -6.3l9.8 -3.1l18.8 -10l15.8 -12.8l5.7 -2.6l4.5 -0.9l30.6 3.9l6.7 -0l10.6 -3.3l27.6 -19.7l8.8 -8.7l3.2 -6l1.7 -5.9l2.3 -15.9l-0.9 -11.8l-4.1 -12.2l-2.9 -8.5l-9.7 -14.8l-22.7 -17.8l-27.6 -24.8l-14 -10.8l-14.4 -8.1l-14.4 -6l-51.9 -11.9l-15.6 -7.2l-7.9 -8l-7.1 -9.4l-3.4 -6.4l-1.6 -15l2.3 -13.4l5.2 -11.3l9.5 -12.5l17.1 -12.9l13.5 -6.2l9.4 -1.7l21.3 -0.8l28.9 -3l19.9 -4.9l6.8 -4.1l3.2 -0.6l33.5 42.3l21.7 30.9l6 5.5l59.3 33.8l14 5.3l11.7 2.3l8.2 0.2l11.3 -2.3l22.9 -10.6l15.9 -9l17.4 -4l8.3 -0.5l19.2 -7.4l4.6 -4.1l6.2 -12.4l2.3 -8.4l-0.1 -14.8l-6 -2.4l-5.5 -0.8l-2.1 -9.2l-3.8 -8.9l-4.5 -8.1l-11.1 -15.4l-17.7 -14.9l-8.7 -5.6l-7.8 -2.6l-9.1 -1.4l-14.3 5l-29.1 17l-22.6 5.7l-13.2 0.8l-20.3 -1.6l-15.7 -8.3l-13.7 -13.2l-24.9 -30.4l-2.1 -5.1l-1.7 -8.5l0.2 -9.8l6.5 -25.7l-2.5 -5.3l-0.1 -5.5l6.1 -10.5l1.6 -9.1l-1.1 -2.7l-4.7 -3l-2.4 -4.6l-0.6 -8.1l6.2 -15.7l4.3 -8l5.1 -6.8l7 -7l3.4 -1.5l8 -0.1l9.6 3.2l11.3 7.5l12.8 10.8l8.4 9.6l36.8 -12.5l7 -1.5l50.2 -3l13.3 -2.6l54.5 36.4l7 1.6l21.1 -4.1l25.5 -10.9l12.6 -10.7l5.3 -7.7l3.6 -9.2l2 -9.6l-1.7 -8.4l-4.9 -11.1l-16.8 -16.8l-15.4 -7.4l-24.8 -4.5l-10.2 -3.6l-34.7 -16.7l-8.8 -6.1l-5.7 -8.1l-6.3 -13.2l-7.8 -11.5l-16.7 -19.8l-5.1 -8l-7.4 -22l-3.7 -19.2l0.4 -12l3.9 -10.5l19.4 -26.1l11.9 -13.4l37.5 -37.5l20.7 -22.9l17.9 -26.9l13.4 -15.7l1.6 -3.5l-0.6 -5.7l-5.4 -7.1l-14.3 -11.8l-31.9 -16.1l-21.6 -8.8l-63.9 -16.1l-1 -0.5l-10.2 -4.7l-5.4 -5.1l-3.9 -7.4l-2.2 -11.3l0.1 -9l1.3 -7.1l2.4 -6.5l9.5 -11l7.9 -5.4l7.8 -3.6l8.4 -2.2l18 -1.5l27.9 0l11.3 -4.2l6.4 -6l11.7 -14.6l29.9 -19l10.6 21l17.4 42.4l4 14.8l5.8 10.8l10.6 8l14.5 5.6l8.6 1.5l13.1 -0.8l12.1 -3.3l6.5 -3.5l4.9 -5.2l2.9 -5.4l5 -20.5l-0.7 -9.2l-18.9 -29l-13.2 -11.3l-4.9 -8.6l-16.1 -45.9l10.5 -3.5l11.7 -2.1l12.5 -0.7l24.7 3.3l16.4 5.9l15.4 -0.6l15.6 -2.9l22.4 -9.4l3.5 -0.2l14.8 3.2l30.5 -4.6l14.2 -7.4l7 -7.1l3.1 -6.6l0.8 -6.3l-0.8 -11.5l-3.3 -15.8l0.9 -14.7l1.6 -7.2l3 -7.7l8.5 -13l15.2 -19.8l5.2 -10.5l2.8 -10.1l0.1 -5.4l-2.9 -9.5l-9.4 -15.2l-4.6 -4l-7.5 -5l-11 -2.9l-10.9 0l-15.3 7.6l-26 4.6l-8.7 -0.7l-5.8 -2.2l-50.4 -37.4l-4.4 -4.6l-13 -18.7l-327.6 -0.3l-0.1 0.4l-9.2 26.8l-40 -8.2l-11.5 57l-42.3 -14.8l-50.5 53.3l12 19.4l-17.2 33.5l4.2 38.2l17.7 6.9l6.1 36.3l23.3 2.8l29.1 53.2l-3.7 35l46.6 41.4l5.8 16.5l-37.6 42.9l-34.6 -50l-63.1 12.5l-21 -5.1l-7.9 -42l-27.8 -13.6l-22.7 10.3l-24.3 40.7l-22 -0.7l-17.7 -36.2l-27.5 -1.7l-41.5 28.1l-94.4 11.6l-9.3 -18.4l63.8 -37.2l6.9 -50l-56.9 -5.3l-46.4 48.7l-38.1 -0.1l-59.1 -78.1l-1 38.7l-86.5 -15.2l-1 70.3l-166.8 -2.4l-2.7 80.5l-6 130.6l-5.3 45.3z" />
  </g>
  <g data-id="043">
    <path d="m5233.3 7468.4l0 0l7.4 26.2l39 25l-19.7 48.3l24 42.4l199.8 4.3l36.8 0.2l535.8 11.8l299.1 5.9l7.9 -421.2l6.3 -523.6l-100.1 -0.4l-115.7 -6.8l-213.3 -21.4l-211.8 0.6l-131.4 0.8l-9.4 -0.3l-275.3 -0l0.3 211.3l-0 17.6l-0.5 404.3l-63.9 0.7l17.6 70.6l-19.7 32l17.7 31.1l-30.6 40.6z" />
  </g>
  <g data-id="045">
    <path d="m4089.5 3666.3l0 0l-27.3 59.7l51.9 80.8l55.6 23.5l122.3 5.8l14.3 11.9l47 97.7l-17.4 120.6l51.4 36.4l-22.4 -36.1l9.8 -32.5l-16 -76.3l65.3 -29.7l-2.9 -44.8l316.5 8.6l64.4 1.5l4.7 -213.3l39.5 0.5l174 5.1l0.9 -37.2l2.3 -96.1l6.3 -221.5l1.3 -99.7l9 -407.9l-23.1 1.7l-118.8 -1.4l-142.2 -2.7l-279.4 -7.5l-16.3 -0.2l-164.2 -3.8l-5.6 216.1l-60.6 58.4l20.6 41.3l-54.9 39.4l19.1 7.4l-13.5 77.7l57.1 38.9l-14.6 91.3l-27.9 54.1l-43.6 -27.7l-23.2 31.2l9.8 9.1l10.4 30.1l6.3 21.5l0.9 27.5l-8.9 54.6l-31.2 48.5l-18 17l-28.7 20.5z" />
  </g>
  <g data-id="047">
    <path d="m1082 3010.2l0 0l-6 174.8l37.3 3.1l-1.3 36.5l33.7 0.9l3.3 -36.7l36 1.4l0.5 -42.6l110 2.5l107.4 1.8l6.1 -220.7l215.2 14.7l3.7 -178.2l2.8 -110.1l24.7 67l74 63.5l18 31.1l77.9 -26.5l20.2 -665.2l1.5 -71.3l6.6 -236.1l-431.5 -13.9l-0.5 35.9l37.4 0.8l-0.9 35.6l-37.2 -0.9l-0.7 36.3l-105.9 -3.3l-1.3 71.1l-36 -1.5l-3 107l-180 -4.2l-1.8 71.9l-3.2 143.2l107 3.2l-1 43.3l-33.6 31.3l14.1 105.6l-8.7 5.6l-6.3 -0.4l-16.9 13.8l-3.2 4.6l0.3 6.1l5.9 -1.1l16.4 10l-2.6 8.8l-26.9 11l54.6 41.7l-96.4 38l-1.7 49.5l-2.4 31.7l-5.8 309.7z" />
  </g>
  <g data-id="049">
    <path d="m4945.6 529.8l0 0l-1.6 59.9l4.4 5.6l644.5 14.6l291.7 5.2l252.1 8.4l0.4 -18.7l0 -199.5l107.4 1.4l116.6 3.4l3.2 -207.6l5.7 -197.5l-100.8 -3.1l-59.6 -0.5l-14.3 -0.3l-5 0.1l-19.7 -0.1l-94.6 -0l-10.3 -0.5l-32.9 0.2l-27.6 0.2l-22.4 -0.3l-59.8 -0.3l-27.5 0.2l-3.2 -0.1l-78.5 0.5l-79.3 0.2l-37.4 0.1l-29.7 0.3l-5.1 -0l-7.9 -0.1l-117.4 0.5l-3.2 0l-240.9 0.9l-5.9 -0.2l-61.6 -0.1l-19 -0.3l-54.2 -0.1l-2.8 0l-35.7 -0.2l-47.1 -0.1l-44.1 -0.2l-0.2 0l-34.8 0.4l-25.2 0.2l-1.7 50.9l-6.4 310.8l-1.9 12.3l-6.4 153.3z" />
  </g>
  <g data-id="051">
    <path d="m2441.9 4690.4l0 0l-7.4 500.5l39.2 -0.6l282.2 5.2l35.7 1.4l230 7l336.2 5.6l0.4 -135.3l69.2 -8.7l-3.3 -140.9l70.8 1.7l174.3 4.5l3.4 -142.5l-35.1 -0.6l1.1 -36.4l0.8 -32.3l-138.6 -1.7l3.1 -107.5l-210 -5.1l0.9 -116.3l20 -40.2l0.5 -173.8l-213 0.9l-174.7 -0.2l-252.8 -2.9l-214.5 2.1l0.3 70.9l0.8 142.3l-16.7 0.1l-2.6 182.8l-0.1 20.6z" />
  </g>
  <g data-id="053">
    <path d="m3910.1 5574.4l0 0l-10.1 218.1l371.4 13.1l4.1 27.4l45.9 -11l41.7 35l43.6 -5.6l42.1 24.2l23.1 26.5l38.4 43.7l1.5 27.8l75.4 37.4l207.9 -6.5l1.7 -409.4l39.5 1l2.7 -142.1l0.6 -43l1.6 -28.2l2.2 -167l0.6 -46.2l2.2 -212.5l-76 -1.8l-300.2 -5.2l-17 -0.4l-2.3 107l-131 -3l-15.3 -0.4l-225.2 -5.7l-67.8 72.8l-3.1 30.8l-88.5 -2.7l-9.4 425.8z" />
  </g>
  <g data-id="055">
    <path d="m7566.8 1239.4l0 0l-7.3 28.9l34 30.8l-21.1 25.9l374.4 4.2l126.3 1.8l35.3 0.3l179.8 0.7l71.9 0.4l146.6 1l19.1 -77l53.4 -77.6l24.1 -50.3l12.2 -50.7l29.7 -19.9l-1.4 -36l38.7 -20.6l10.9 -36.6l31.7 -11.1l46.5 -24.1l40.2 -30.8l0.4 -49l30.1 -63.8l21.4 6.9l18.5 -25.4l22.4 -20.2l-1.5 -2.6l-262.9 2l2.3 -146l-300.5 -2.2l-495.8 -19.7l-182.6 2.7l-6.4 292.3l82.7 0.6l42.6 0.6l-1.7 7l-30.5 29.4l-10.2 16.5l-4.6 35.8l-39.8 50l-60.9 34.6l-8.6 59.9l-27.8 38.8l2.1 43.8l-34 48.9z" />
  </g>
  <g data-id="057">
    <path d="m1304 6814.2l0 0l9.7 34.2l26.5 17l-30.8 6.7l12.2 24.7l-12.7 52.1l42.1 31.1l14.2 28.5l18.3 -38.6l33.4 1.6l20.3 28.8l-27.3 51.1l51.2 -18.9l13.5 25.4l22.8 -16.7l24.2 15.2l16.8 33.8l25.9 -6.4l28.1 16l26.9 15.7l-5.6 35.7l-23.2 28.5l10.5 26.4l42.2 2.7l13 56.9l30.8 36.4l12.3 66.3l34.4 -11.4l-17.9 -27.2l35.9 -45.6l-14.6 41.1l34.6 36.1l27.7 47l175.1 5.1l307 9.1l5 -210.5l10.6 -370.6l1.2 -39.5l1.2 -13.1l0.8 -34.7l5.1 -175l20.7 0.6l8.4 -319.4l-7.8 -15.5l-67 36l-69.2 13l-5.4 -28l-31.4 7.7l-52.5 -23.5l-65.2 -8.2l-24.9 11.7l-20 -31.2l-41.6 -25.4l-68.8 -1.4l-35.1 -27.9l-36.1 -3.8l-63.5 -24.5l-148.2 -5.2l-3.3 140.8l-13.5 491.8l-253.1 -7.8l-24.4 55.2z" />
  </g>
  <g data-id="059">
    <path d="m2434.5 5190.9l0 0l-1.8 139.7l105.2 2l-2.1 142.1l11.5 0.3l201.3 4.3l106.1 2.6l-2.3 71.2l220 5.7l11.4 24.6l100.4 -1.7l-8.2 36.1l15.4 19.5l10 28.1l-13.5 12.6l-21.1 40l8.3 60.3l18 -12.9l289 11.9l145.4 10.2l272.7 5l10.1 -218.1l9.4 -425.8l-35.1 -1.1l2.2 -142.4l-108.3 -1.9l1.3 -71.7l-75 -1.1l-35.4 0.3l-174.3 -4.5l-70.8 -1.7l3.3 140.9l-69.2 8.7l-0.4 135.3l-336.2 -5.6l-230 -7l-35.7 -1.4l-282.2 -5.2l-39.2 0.6z" />
  </g>
  <g data-id="061">
    <path d="m730.4 5291.7l0 0l-2.9 209.8l24.6 -0.4l0.3 187.2l2.3 -0.1l276.5 3.1l30.1 10l-14.9 24.7l5.2 71.9l-17.2 28.5l46.4 24.1l-26.3 31.9l24 26.4l-21.2 61.1l33.3 11.4l-24.2 91.2l30.1 79.4l11.9 5.6l-3.1 47.5l21.4 27.7l-25.3 71.4l7.8 51.4l9 9.6l17.1 22.8l0.7 43.9l67.3 33l1.2 53.6l20.3 4.6l11.5 36l63.5 65.1l13.8 25.4l-9.8 6.3l17.7 18.9l-17.1 43.4l20.9 40.6l3 0.1l253.1 7.8l13.5 -491.8l3.3 -140.8l4.7 -424.7l-211.4 -7l3.1 -185.5l-25.5 -0.1l3.3 -212l-642.1 -13.1z" />
  </g>
  <g data-id="063">
    <path d="m5523.6 1716l0 0l11.8 98.5l58.3 54.4l-2.2 108.8l60.7 1l34.5 -17.8l-8.3 439.4l98.2 -0.2l73.3 2.3l122 2.4l132.9 4.6l426.9 10.1l0.6 -150.9l1 -130.1l87.8 7.3l3.9 -26.4l-33.8 -10.6l1.7 -32.4l-28.6 -34l12.9 -23.6l-17.2 -17.2l19.2 -64.1l15.5 20.5l10.3 -68.9l45.8 -63l36.6 -13.7l29.4 -51.9l13.5 10.7l47.7 -32.3l-27.5 -5.5l28.2 -22.4l29 -0l-1.4 -25.2l-29.4 -28.2l23.7 2.9l16.1 -27.1l38.7 -13.2l-26.1 -6.7l19.5 -17.8l-11.9 -56.1l38.8 -20.5l-319.1 -1.5l-216.1 -4.7l3 -110l-341.6 -6.3l-155.8 -6l-86 -2.8l-193.2 187.4l-0.3 52.4l-43 88.6z" />
  </g>
  <g data-id="065">
    <path d="m4834.1 810l0 0l-2.6 103.7l39.8 1.6l12.5 68.4l25.7 7.9l45 -32.9l30 7.9l27.4 75.7l25.1 42.9l77.1 28.5l35.1 46.2l-12.8 25.3l-56.7 10.3l-15.5 36l27.4 48.5l0.7 50.5l-50.4 39.4l-4.3 33.4l66.2 23.3l64.9 -40.2l35.2 10.4l5 40.6l45.3 8.8l46.8 -50.6l26.4 -1.2l31.2 21.3l32.8 47.9l81.1 73.3l60.6 1.5l33.7 36.7l193.2 -187.4l86 2.8l2.4 -147l54.5 0.9l-17.8 -46.1l19.3 -9.4l13.5 -353.1l1.4 -109.1l-36.4 -1.5l1.6 -110l-291.7 -5.2l-644.5 -14.6l-5.8 218l-108.6 -3.3z" />
  </g>
  <g data-id="067">
    <path d="m6104.9 2409.4l0 0l-5.6 217.7l477.4 7.9l-5.9 -14.5l195.6 -2.2l2.9 217.8l425.7 8.1l0.3 -108.6l0.8 -114.5l4.6 -652l3.9 -218.4l5.1 -219.5l-213.8 -12.2l-120.2 -0.1l-38.8 20.5l11.9 56.1l-19.5 17.8l26.1 6.7l-38.7 13.2l-16.1 27.1l-23.7 -2.9l29.4 28.2l1.4 25.2l-29 0l-28.2 22.4l27.5 5.5l-47.7 32.3l-13.5 -10.7l-29.4 51.9l-36.6 13.7l-45.8 63l-10.3 68.9l-15.5 -20.5l-19.2 64.1l17.2 17.2l-12.9 23.6l28.6 34l-1.7 32.4l33.8 10.6l-3.9 26.4l-87.8 -7.3l-1 130.1l-0.6 150.9l-426.9 -10.1z" />
  </g>
  <g data-id="069">
    <path d="m4796.6 5595.1l0 0l-1.7 409.4l328.9 -2.9l163.5 -1l69.8 -0.5l0.3 -71l22.6 -0.3l186.4 0.4l210.5 -1.6l0.3 70.5l36.6 -0.3l-1.3 -264.7l30.2 1.5l37.4 6.8l102.8 79.3l57 24.2l49.9 -12.9l14.2 20.2l-40.8 17.6l-14.4 35.8l14.9 36.6l38.7 -3.1l26.4 -29.4l36.2 -11l41 19.7l19.9 25.3l32.9 32.9l71.7 -26.3l48.4 11.1l15 -40.4l-20.4 -59.3l11.1 -11.6l-18.4 -19.1l-52.4 -2.4l-30.4 18.5l-3.4 -52.8l-39.3 16.2l-12.9 -52l12.6 -18.7l-26.2 -30.8l-1.6 -75.5l-38.1 -19.2l-50.3 0.5l-45.2 25.8l4.6 -40.3l-239.8 -12.5l4.2 -179.7l9.1 -426.2l-542.2 -14.7l-79.6 -1.9l-31.4 0.3l-228.6 -5.3l-129.4 -3.1l-2.2 212.5l-0.6 46.2l-2.2 167l-1.6 28.2l-0.6 43l-2.7 142.1l-39.5 -1z" />
  </g>
  <g data-id="071">
    <path d="m1845.7 2127.2l0 0l-20.2 665.2l51.1 -14.3l29.6 -60.5l18.7 4.1l40.2 43.6l92.6 6.2l66.2 -39.4l69.6 -21.6l36.3 26.5l28.9 1.8l28.5 -20.3l35.1 -46.9l55.3 -9.1l21.7 51.7l0.1 43.7l20.5 59.1l36 34.5l-4.9 16.8l-46.7 17.3l3.2 23l114.6 -6.4l61.7 -26.4l68.2 34.5l2.2 -136.5l4.1 -215l145.3 3.3l0.4 -35.8l4.6 -286.3l107.3 3.1l6.7 -324.6l-71.6 -2.8l-349.9 -0.6l-292.6 -10.4l0.7 -72.1l-355.5 -12.7l-6.6 236.1l-1.5 71.3z" />
  </g>
  <g data-id="073">
    <path d="m1535.7 8289.6l0 0l-11.9 58.6l65 79.4l18.2 59.1l29.3 24.2l-1.6 9.9l164.2 -0.2l385.6 2l13.2 0l7.9 0.1l0 0l60.5 0.4l0.8 -0l17.6 -580.1l79.9 4.4l18.7 -44.3l-7 -31l26 -28.9l-5.2 -17.9l-5.8 -17.5l15.9 -30.2l88.7 -250l22.4 -28.7l-238.1 -6.7l1.8 -69.5l-307 -9.1l-175.1 -5.1l0.7 22.2l-24.9 18.3l-7.4 25l7.2 10.6l11.4 19.4l-22.2 14l-11.2 14.3l10.6 9.1l21 -6.2l15.5 -17.3l21.3 -14.4l7.8 23.3l-25.2 14.6l-15.5 2.7l-3.4 22.9l11.9 10.2l24.3 33.1l26 24.6l44.4 7.8l12 8.8l-12.9 18.6l-37.8 0.6l-13 12.1l0.4 16l-11 19.2l24.7 30.8l20.4 -0.6l34.6 15.8l-35.9 36.7l-19 7.6l13.3 33.4l12.7 28l-11.8 31.1l-33.4 4.6l-12.9 -13.8l-24.9 -11.6l-10.7 16.3l34.6 41.9l17.7 39.8l-20.1 49.1l15.2 3.9l-13.9 7.2l-21.4 7.7l-26.3 17.5l-16.5 26l8.9 15.8l31 34.4l-21.1 10.2l-16.5 -9.8l-7.3 -8.4l-28 25.3l39.6 9.6l18.6 10.5l-3.6 16.5l-4.8 2l-27.8 -9.2l-13.1 -13.1l-24.7 -6.7l-16.6 21.3l3.4 20.1l-21.1 13.1l-0.9 -21.6l-21.5 -28.6l-17.7 6.7l-28.5 15.5l1 27.6l4.8 11.3l-25.1 1.5l-13.9 -18.7l-34.1 28l-1.2 47.2z" />
  </g>
  <g data-id="075">
    <path d="m6562.5 1296.4l0 0l-5.8 221l319.1 1.5l120.2 0.1l213.8 12.2l321.2 10.4l1.2 -108.1l21.6 0.8l8.3 -66.7l-8.6 -11.5l19.1 -31l21.1 -25.9l-34 -30.8l7.3 -28.9l34 -48.9l-2.1 -43.8l27.8 -38.8l8.6 -59.9l60.9 -34.6l39.8 -50l4.6 -35.8l10.2 -16.5l30.5 -29.4l1.7 -7l-42.6 -0.6l-82.7 -0.6l-145.9 -2.3l-149 -0l-178.5 -2.2l-13.7 -3.7l-25.5 23.4l2.3 60.9l-19 10.5l1.6 -26.3l-28.2 -18.2l7.1 -45.3l-74.3 -7l-44.2 -31.7l-4.7 -34.1l-26.9 -27.2l-11.6 -37.2l-40.8 -0.3l-41.5 -31.2l-46.8 -16.3l-10.6 -39.1l-19 37.7l2.6 -79.8l-36.6 -0.5l-0.8 35.9l-145.2 -3.5l-1.4 35.2l-35.4 -0.5l-4.2 181.9l-4.8 443.7z" />
  </g>
  <g data-id="077">
    <path d="m7074 4041.7l0 0l-5.2 323.9l106.7 1.7l-1.3 73.7l-3.6 142.6l144.2 2.8l320.5 3.9l477.3 3.9l0.8 -3.2l-0.1 -2.3l-3.9 -8.5l-2.6 -11.3l-2 -33.5l-2.4 -7.9l0.2 -5.7l12.9 -22.7l6.6 -8.8l11.3 -6.3l41 -4.8l26.8 42.7l-21.6 18.2l-5 9.1l-2.7 11.5l-2.3 21.5l2 13.1l4.8 10.7l8.3 11.8l7.9 5.1l13.1 4.4l10 0.7l15.5 -2.5l14.7 -5.9l18.2 -14.1l10.1 -10l12.9 -17.9l17.6 -16.5l16.4 -12.4l19.9 -23.2l7.6 -11.9l6.5 -23.9l0.5 -8.6l-2.4 -8.6l-6.7 -11.1l-8.3 -8.4l-8.1 -4.3l-9.7 -1.7l-13.9 0.1l-19.3 2.2l-26.7 6.3l-24.6 3.4l-14.3 -0.5l-19.6 -4.8l-14.2 -8.1l-39.4 -46.4l-3.7 -5.5l-1.2 -3.7l-0.2 -6.3l1.9 -14.9l3.6 -7.5l3.8 -5.2l7.3 -5.2l7.2 -1.8l6.3 -0.9l5.8 -2.2l5.4 -3.8l3.6 -3.8l4 -8.2l2.2 -8.2l0.1 -28.8l-7.2 -22.1l-3.3 -14.1l-0.6 -6.6l1.1 -6.6l7.1 -16.1l7.7 -11.3l7.5 -6.9l10.4 -4.9l17 -4.1l16.5 1.2l3.9 12.9l18.3 40l4.3 13.1l1.1 8.8l-0.7 3.1l-8.4 13.1l-22.2 15.3l-8.1 12.1l-2.7 12.1l0 12.1l1.8 12.1l5.4 14.2l7.2 7.7l26.3 13.3l25.7 1.2l18.4 -2.6l19.7 -5.5l24 -14.5l6 -6.4l5 -10.6l2.5 -11.2l0.2 -8.1l-3.8 -13.6l-11.8 -26.7l-23.2 -40.7l-6.3 -19.5l-2.1 -10.7l1.4 -12.7l3.2 -10l3.5 -6.3l10.4 -13.6l12.8 -9.4l4.6 -14.6l-0.3 -7.3l-13.8 -28.3l-21.3 -35.7l-15.2 -20.4l-3.9 -8.6l-2.3 -19.4l1 -14.3l1.2 -5.1l8.2 -14.9l8.4 -7.5l19.2 -11.5l12.7 -2.3l11.9 2l18.3 7.7l7.1 4.1l5.9 4.2l3.5 4.5l13 28.2l2.2 9.9l-0.3 5.1l-5.2 15.1l-0 9.5l1.8 14.9l4.2 18.6l9.8 16.6l3.1 2.3l15.1 4.5l8.4 -0.4l5.4 -2.4l-1.1 -174.3l-424.8 -5.7l-146.5 2.2l-109.2 1.1l-412 -4.6l-190.3 -12.1l-106.1 0.3l-1.5 109.5z" />
  </g>
  <g data-id="079">
    <path d="m5311.6 6210.8l0 0l0.9 449.3l275.3 0l9.4 0.3l131.4 -0.8l211.8 -0.6l213.3 21.4l4.1 -212l5.3 -45.3l6 -130.6l2.7 -80.5l166.8 2.4l1 -70.3l86.5 15.2l1 -38.7l-26.5 -24l-2 -107l-19.6 -28.4l-48.4 -11.1l-71.7 26.3l-32.9 -32.9l-19.9 -25.3l-41 -19.7l-36.2 11l-26.4 29.4l-38.7 3.1l-14.9 -36.6l14.4 -35.8l40.8 -17.6l-14.2 -20.2l-49.9 12.9l-57 -24.2l-102.8 -79.3l-37.4 -6.8l-30.2 -1.5l1.3 264.7l-36.6 0.3l-0.3 -70.5l-210.5 1.6l-186.4 -0.4l-22.6 0.3l-0.3 71l1.5 211l-47 -0.3z" />
  </g>
  <g data-id="081">
    <path d="m266.1 6994.9l0 0l-0.6 37.3l9.2 -2.3l44.5 -15.3l13.8 63.6l-11.9 49.6l44.3 9.8l34.5 41l66.6 -11.3l16.4 17.6l-20.7 22l-9.1 34.7l67.6 19.1l12.7 -41.9l28.6 -15.6l15.7 34.7l42.2 2.5l22.5 -59.2l35.8 3.2l19.6 24.4l36.6 -51.6l27.7 22.7l-22.8 48.2l47.9 9.3l30.3 -50.3l56.2 -44.5l42.5 8l38.7 27l38.5 61.8l41.7 -44l61.3 -4.5l33.3 12l11.8 39l8.4 -0.6l5.2 -2.2l90.1 -29.3l13.4 14.8l-14 43.4l25.4 15.9l30 -50.3l-12.7 -53.1l20.6 -11l32 76.7l31.9 -2.2l-10.6 -52.6l21.8 -26.2l65.3 26.5l16.3 -50.4l27.2 4l37.7 -48.7l56.7 19.6l6.2 -16.2l-28.1 -16l-25.9 6.4l-16.8 -33.8l-24.2 -15.2l-22.8 16.7l-13.5 -25.4l-51.2 18.9l27.3 -51.1l-20.3 -28.8l-33.4 -1.6l-18.3 38.6l-14.2 -28.5l-42.1 -31.1l12.7 -52.1l-12.2 -24.7l30.8 -6.7l-26.5 -17l-9.7 -34.2l24.4 -55.2l-3 -0.1l-166.8 -5.4l1.9 -69.7l-91.9 -2.9l-70.1 -19.3l-45.2 22.1l-5.7 -18.6l-30.6 13.6l-56.3 -12.3l13.1 -50.3l-16.7 -5.1l-52.3 20.7l-0.9 -26.5l-38.5 30.1l-28.1 -38.3l-35.5 0.2l-32.2 -29.6l-36 20.9l-1.1 -78l-42.9 -23.2l-16.8 6.6l-15.4 -53.5l-63 12.4l21.4 -23.5l-54.2 -19.4l17.6 -91.8l-11.3 -19l-46.8 -10.7l-26.1 5.6l19.1 40.6l-47.8 -13.8l-21.3 6.4l-41.8 -36.6l-20.1 8.3l-0.1 7.7l-2.9 136.3l-0.3 0.7l-1.9 72.3l-1.2 51.2l-1.6 66l-0 0.6l-0.4 16.8l-0.6 16.2l-1.7 79.2l-0.2 6.4l-0.2 6.9l-0 0.5l-2 81.8l0.1 13.1l-1.6 47.7l0.2 8.9l-2 59.3l-0.1 24.3z" />
  </g>
  <g data-id="083">
    <path d="m959.9 3470.9l0 0l-2.4 108.1l136.8 4.1l-1.2 67.3l742.9 16.9l-8.4 -66.5l4.8 -216.6l87.3 2.7l0.6 -35.4l267.7 6.8l1.2 -35.8l35.9 0.7l0.5 -35.7l35.1 1.2l19.6 -16.5l0.2 -52.5l18.7 -19.5l35.2 3.1l-0.1 -18l284.5 8.4l71.5 -0.4l3.4 -258.2l-15 -6.7l-26.7 -18l-68.2 -34.5l-61.7 26.4l-114.6 6.4l-3.2 -23l46.7 -17.3l4.9 -16.8l-36 -34.5l-20.5 -59.1l-0.1 -43.7l-21.7 -51.7l-55.3 9.1l-35.1 46.9l-28.5 20.3l-28.9 -1.8l-36.3 -26.5l-69.6 21.6l-66.2 39.4l-92.6 -6.2l-40.2 -43.6l-18.7 -4.1l-29.6 60.5l-51.1 14.3l-77.9 26.5l-18 -31.1l-74 -63.5l-24.7 -67l-2.8 110.1l-3.7 178.2l-215.2 -14.7l-6.1 220.7l-107.4 -1.8l-110 -2.5l-0.5 42.6l-0.2 4.2l-5.2 175.3l-217.3 -6.2l-2.5 107.4z" />
  </g>
  <g data-id="085">
    <path d="m5021.1 3648.5l0 0l-0.9 37.2l101.6 1l-3.6 229.6l-1.2 50.1l-2.4 76.5l-2.4 57.6l-0.1 0.6l1.4 13.8l-3.5 114.9l-4.1 147.8l-29.5 47l-14.8 103.1l3.8 23.6l-29.1 87.9l168.5 4.2l-0.9 322l31.4 -0.3l79.6 1.9l542.2 14.7l54.6 1.8l-6.1 -41.8l22.4 -48.4l74.6 -82.6l-7.6 -33.7l-57.2 -32.6l33.6 -80.3l19.7 -32.6l-9.1 -26.3l-100.6 -83.4l-15.5 -2.6l12.4 -498.6l2 -107.7l-221.2 -4.7l2.4 -267.2l-153.6 14.4l-33.2 -20.4l-11.9 9.8l-55.2 -44.3l-44.5 4.1l-63.2 -25.9l3.4 -5.6l-32.1 -3.4l-33.4 -41.3l-74 22.6l-49.4 -19.7l-28.8 25.4l-61.9 -4.2l-2.3 96.1z" />
  </g>
  <g data-id="087">
    <path d="m1321.7 1659.7l0 0l-4.6 179.4l104.7 2.9l0.5 -35.9l431.5 13.9l355.5 12.7l4.2 -148.3l-18.1 -0.7l4.9 -143.8l35.4 1.3l2.2 -109.5l36.3 2.4l1.5 -72.2l35.7 0.5l0.8 -35.9l34.8 0.1l5.1 -213.8l5.2 -67.8l-69.6 -1.7l1.4 -108.6l-144 -3l0.8 -71.6l-69.9 -1.7l0.4 -26.5l0.8 -48.3l-54 -2.1l-16.6 -36.5l3.6 -143.7l-47.1 -23.3l21.2 -23.5l-17.6 -13.9l-46.6 20.6l10.7 -70l-317.5 -8.7l-107.5 -2.2l-1.1 181.1l-36.5 -0.5l-113.4 358.5l-3.1 142.4l-3.1 138.5l-5.3 216.4l-3.9 143.2l-17.6 -0.1z" />
  </g>
  <g data-id="089">
    <path d="m3475.7 781.9l0 0l-2.6 179.9l108.3 1l0.7 108.7l211.8 6.2l301 5.4l172 3.7l38.7 0.4l131.2 2.4l4.7 -179l-34.6 -36.6l19.6 -0l16.2 -7.4l-39.9 -28.4l4.9 -36.2l-30.5 35.6l-45.5 -37.9l-30.9 -35.6l39.7 -53.4l-34.4 -32.3l4 -72.2l-49.2 -3.3l-43.4 -26.5l-46.2 13l40.6 -87.1l-26.5 -26.1l-30.1 -11.2l-44.5 18l6 -40.9l35.7 -33.9l38 16.9l12 -36.6l-11.2 -16.5l-89.3 21.3l-28.6 -41.7l79.8 -51.3l6 -18.7l33 0.9l8.1 -280.1l-70.6 0.9l-418.4 1.2l-133.3 -0.8l-0.5 0.1l-30.5 0.1l-1.3 83.4l-38.2 -27.6l-21.7 -37.6l-7.6 393.6l-2.8 36.8l0.5 329.3z" />
  </g>
  <g data-id="091">
    <path d="m1155.2 7238.9l0 0l0 2l0.1 22l0.7 118.8l-0.5 4.2l-0.1 0.6l0.2 49.9l0.4 83.1l0 11.6l0.2 26l-0.3 82.7l-0.1 19.7l0.4 15.8l-0.5 29.9l0.1 16l0 11.4l0 40.6l0.1 78.1l0.1 64.5l0 0l-0.1 24.8l0.1 25.9l0.6 20l-0.3 64l-0 30.2l0 6.9l0.3 94.9l-0.9 40.4l0.2 12.8l0.1 10.3l0.3 98.8l-0.3 31.8l0.1 144.6l3.1 0.1l11.3 0.1l15.8 0l7.1 -0.2l422.1 -0.4l19.4 -0l1.6 -9.9l-29.3 -24.2l-18.2 -59.1l-65 -79.4l11.9 -58.6l1.2 -47.2l34.1 -28l13.9 18.7l25.1 -1.5l-4.8 -11.3l-1 -27.6l28.5 -15.5l17.7 -6.7l21.5 28.6l0.9 21.6l21.1 -13.1l-3.4 -20.1l16.6 -21.3l24.7 6.7l13.1 13.1l27.8 9.2l4.8 -2l3.6 -16.5l-18.6 -10.5l-39.6 -9.6l28 -25.3l7.3 8.4l16.5 9.8l21.1 -10.2l-31 -34.4l-8.9 -15.8l16.5 -26l26.3 -17.5l21.4 -7.7l13.9 -7.2l-15.2 -3.9l20.1 -49.1l-17.7 -39.8l-34.6 -41.9l10.7 -16.3l24.9 11.6l12.9 13.8l33.4 -4.6l11.8 -31.1l-12.7 -28l-13.3 -33.4l19 -7.6l35.9 -36.7l-34.6 -15.8l-20.4 0.6l-24.7 -30.8l11 -19.2l-0.4 -16l13 -12.1l37.8 -0.6l12.9 -18.6l-12 -8.8l-44.4 -7.8l-26 -24.6l-24.3 -33.1l-11.9 -10.2l3.4 -22.9l15.5 -2.7l25.2 -14.6l-7.8 -23.3l-21.3 14.4l-15.5 17.3l-21 6.2l-10.6 -9.1l11.2 -14.3l22.2 -14l-11.4 -19.4l-7.2 -10.6l7.4 -25l24.9 -18.3l-0.7 -22.2l-27.7 -47l-34.6 -36.1l14.6 -41.1l-35.9 45.6l17.9 27.2l-34.4 11.4l-12.3 -66.3l-30.8 -36.4l-13 -56.9l-42.2 -2.7l-10.5 -26.4l23.2 -28.5l5.6 -35.7l-26.9 -15.7l-6.2 16.2l-56.7 -19.6l-37.7 48.7l-27.2 -4l-16.3 50.4l-65.3 -26.5l-21.8 26.2l10.6 52.6l-31.9 2.2l-32 -76.7l-20.6 11l12.7 53.1l-30 50.3l-25.4 -15.9l14 -43.4l-13.4 -14.8l-90.1 29.3z" />
  </g>
  <g data-id="093">
    <path d="m8705.1 1254.6l0 0l-0.3 0l4.4 735.6l-0.4 377.7l0.2 20.9l-0.1 247.4l295 5.2l21.6 -13.4l12.7 -44.2l5.1 -14.5l4.5 -7.5l8 -9.1l13.5 -11l12 0.1l6.1 -4.2l27.6 -0.6l9.8 4.9l16 15l8.8 11.2l1.3 3.4l-0.1 9.6l-8.3 26.2l-5.5 26.5l-0 13.9l7.1 26.4l17.2 20l-14.6 17l25.4 11.2l9.4 -10.5l10.9 -12.2l2.6 -6.1l2.2 -9.4l3.2 -4.9l4.2 -4.2l18.1 -11.7l0.6 -9.7l3.9 -9.1l3.9 -6.5l1.6 -5.5l-0.6 -11.8l0.6 -7.2l4.7 -16l4.4 -7.7l6.5 -18.4l-0.3 -7.4l-2.8 -6.1l-29.3 -25.8l-17.2 -28.6l-4.6 -10.5l-5.5 -19.3l-3.5 -27l2.4 -17.2l5.8 -18.1l3 -5.1l5.6 -14.4l4.5 -26.1l4.3 -5.7l9.4 -7.7l8.7 -4.5l9.5 -2.7l13.3 0.8l12.2 -7.7l6 -2.4l18.7 -2.7l12.1 1l7.3 1.8l26.2 15.3l35.8 30.1l3.6 5.8l2.1 12l-0.3 3.2l-3.9 7.6l0 7.2l2.8 3.9l10.3 9.2l6.5 4.4l6 1.7l22.9 2.1l21 10.2l7.7 1.4l7.9 -3.1l7 -5.7l5.8 -7.8l2.7 -5.9l7.6 -27.7l-1 -3.8l-2.4 -2.7l-6.5 -3.1l-0.8 -0.3l-3.2 -1.4l-0.2 -5.8l1.9 -7.3l-1.7 -8.6l-6.8 -5.4l-6.5 -1.5l-13.5 -0.6l-10 -2.4l-24.7 -12.4l-6.8 -9.3l-4.3 -8.1l-14.6 -30.8l-5 -13.3l-2.5 -10.1l0.1 -4.4l2.3 -8l5.2 -9.3l6 -8l11.5 -10.2l25.9 -15.5l25.9 -10.8l15 -11.9l3 -1.2l9.4 3.4l12.5 2.7l5.6 0.4l5.3 -1.6l35.8 -27.5l25.5 -10.2l14.6 -9l5.5 -9.4l4.2 -14.8l1.9 -14.7l-0.6 -17.9l-4.7 -13.9l-10.9 -14.9l-4.7 -2.5l-7 -0.8l-14.7 4.7l-10.2 5.8l-2.8 3.3l-8.8 18.2l-4.1 5.8l-4.1 3.6l-7.1 3l-16.9 3.7l-14.5 -0.6l-18.7 -4.1l-14.7 -6.2l-16.7 -11.8l-12.8 -14l-10.7 -23.3l-15 -18.1l-6.3 -9.9l-4.9 -10.4l-1.7 -12l-0.7 -40.1l-3.9 -30.1l0.4 -9.6l4.9 -14.1l4.6 -6.9l7.5 -5.8l70 -40.7l4.7 -5.9l6.3 -5.2l9 0.8l34.9 22.3l9.3 12.6l12.6 9l8.9 0.2l18 -15.6l12.4 -6.2l22.9 -14l27 2l16 -2l7.5 -2.5l13.6 -8l3.1 -3l7.3 -8l20.2 -27.4l4.1 -11.6l0.4 -6.3l-4.6 -14.5l6 -10.7l29.2 -30.4l32.8 -11l0 -4.2l15.2 2l29.9 11.4l18.1 -0.9l21.4 -8l7.1 -5.4l27.8 -16.6l4.4 -5l4.3 -9.8l1.4 -9.9l-0.7 -6.8l-3 -7.9l-3 -3.9l-9.9 -7.9l-40.7 -21.6l-40 -13.2l-30 -13.3l-10.2 -8.1l-6.1 -8.8l-1.7 -5.8l-0.5 -10.6l1.4 -11.3l2.3 -8.6l6 -17.2l6.1 -11.5l18.9 -16.8l30.3 -21.6l52.9 1.2l53.9 23.1l12.7 17.3l9.7 10.6l15 6.1l7.8 -0l15.9 -6.1l4.7 -2.9l9.6 -9.8l6.9 -10l4.9 -23.4l-3.8 -9.1l-7.3 -24.3l-3.9 -9.1l-7.8 -10.8l-30.1 -24.8l-11.1 -11.8l-20.7 -17.8l-26 -15.8l-20.8 -14.3l-8.7 -8l-8.5 -13l-1.8 -6.6l-0.6 -9.1l2.4 -25.8l-0.7 -2.4l-18.6 -18.9l-5.6 -8.2l-3.8 -9.3l-9 0.2l-0.2 -0.1l-65 0.1l-0.6 0l-198.6 2.2l-11.2 0.2l-1 -0l-1 0l-42.1 0.3l-9.4 0.2l-0.5 0l-116.6 0.9l-1 0l-2.4 -0.3l-8.6 0.8l-14.6 -0.4l-264 2.1l-45.3 1.4l-2 -0.1l-63.3 0.6l-261.4 2.4z" />
  </g>
  <g data-id="095">
    <path d="m6376.2 4530.2l0 0l-1.6 142.6l71.6 1.1l-0.9 36.5l71.5 2.3l-1.5 71.7l173.6 4.2l-19.3 67.7l79.4 16.7l-4 61.7l63 51.6l28.3 -15.1l5.8 34.3l17.6 40.7l-24.5 30.1l54 9.9l34.5 -26.1l42 69.5l-24.2 24.1l55.3 22.6l15.5 52.8l1.3 2.1l6.7 3.7l3.2 2.2l4.7 5l33.8 23.8l25.4 53.7l74.5 17.9l107.7 0.6l4.5 -324.2l-109.2 -3.6l5.7 -426.9l3.6 -142.6l1.3 -73.7l-106.7 -1.7l5.2 -323.9l-35.8 -0.1l2.3 -109.4l-72.1 -0.1l5.3 -222.3l-117.7 -2.4l-58.6 -2l-1.3 47.6l-110.5 -0.5l-3.4 178.2l-148.3 -0.7l-26.9 18.7l76.5 77.4l-33.7 28l-24.9 88l4.9 4.7l-8.4 387.4l-145.2 -3.8z" />
  </g>
  <g data-id="097">
    <path d="m1378.3 4815.2l0 0l-5.8 489.6l918.4 22.5l141.8 3.2l1.8 -139.7l7.4 -500.5l0.1 -20.6l2.6 -182.8l16.7 -0.1l-0.8 -142.3l-635.4 -4.7l-70.2 -2.9l-1 35.6l-72 -2.2l-0.2 35.2l-71.2 17.4l-107 -3.4l-15.7 62.2l-0.3 53.8l-105.3 -0.8l-4 280.3z" />
  </g>
  <g data-id="099">
    <path d="m2281.9 7422.6l0 0l-1.8 69.5l238.1 6.7l78.1 1.6l212.1 8.1l0.5 -35.2l210.5 5.1l24.3 -782.6l-16.9 -7.4l-32.2 -30.5l-23.3 -55.6l-31.5 4.3l-47.2 33.1l-38.3 -48.7l-72.7 -26.8l-45.6 6.6l-34.3 -27.7l0.3 -0.3l-0.6 -1.8l-0.3 -0.4l-0.9 -0.3l-0.9 0.1l-2.2 1.4l-1.7 -0l-2.1 -0.4l-1.5 -0.6l-0.9 -0.8l-3.6 -2.8l-2.4 -1.1l-1.1 -0.9l-0 -0.4l-1 -1.3l-1.5 -0.5l-0.9 -0.4l-0.7 0.3l-1.2 1l-1.1 0.4l-0.4 0.5l-1 0.4l-2.4 -0.8l-2 -1l-2.1 -1.8l-34.9 -90.1l7.1 -38.5l-65.6 -43.7l-18.2 -49.8l-56.2 -35.8l0.6 -14.2l-91.9 20.1l-75.6 -19.5l-8.4 319.4l-20.7 -0.6l-5.1 175l-0.8 34.7l-1.2 13.1l-1.2 39.5l-10.6 370.6l-5 210.5z" />
  </g>
  <g data-id="101">
    <path d="m2200.4 1539.8l0 0l-4.9 143.8l18.1 0.7l-4.2 148.3l-0.7 72.1l292.6 10.4l349.9 0.6l71.6 2.8l428.6 10.3l9.5 -219l11.4 -439.5l4.9 -203l-14.1 -0.4l1.8 -107.6l0 -1.2l-210.7 -1.8l-72.8 -7.5l-110 4.5l-251 -6.9l-71.7 -3.1l-288.9 -6.8l-70.4 -1.9l-1.4 108.6l69.6 1.7l-5.2 67.8l-5.1 213.8l-34.8 -0.1l-0.8 35.9l-35.7 -0.5l-1.5 72.2l-36.3 -2.4l-2.2 109.5l-35.4 -1.3z" />
  </g>
  <g data-id="103">
    <path d="m3019.4 7478.5l0 0l-5.3 174.9l211.3 5.7l71.3 1.6l68.9 2l281.6 9l53.9 -5.3l35 -30.9l80 13.3l9.6 27.1l69 13.9l41.4 23.1l29.6 -30.7l44.3 22.3l41.7 -12.6l17.4 -22.7l54.7 15.7l-0.8 -26.7l-23.6 13.8l-12.5 -61.3l-69.1 -26.9l-43 31l9.6 -45.5l-37.2 -18.7l3.6 -26.6l-44.3 8.3l-60 -1.6l4.8 -53.7l-28.1 4l-16 -20l16.7 -51.6l-40 -32.2l-2.6 21.6l-30.9 4.2l-25.4 -19.6l20.4 -20.3l-36.3 -22.3l28.9 -50.4l-35.6 -16.1l1.7 -15.9l22.7 -21.7l36.6 19.2l39.1 -44.5l19.1 27.2l15 -93.1l-46 -60.4l18.6 -86.5l142.5 -22.9l35.4 -76.7l71.4 -43.6l0.3 -17.5l20.1 -24.7l9 -19.3l4 -158.9l-5.1 -0.1l-603.4 -18.7l-15.8 0.1l-6 9.2l-43.5 -37.3l-41.3 24l-2.9 27.8l-105.6 55.1l-31 -3.4l-48.2 21.3l-60.2 -39.7l-32.7 0.2l-16.2 23.9l-36.2 -1.4l-24.3 782.6z" />
  </g>
  <g data-id="105">
    <path d="m2638.7 4020.9l0 0l-0.4 35.5l35.4 0.2l1 215l252.8 2.9l174.7 0.2l2.6 -211.1l210 -2.5l281 9.2l24 19.1l30.8 -5.6l43.7 25.1l48.7 -7.3l31.8 35.4l1.7 -62.1l-31.5 -0.6l3.6 -141l208.6 3l4.3 -71.6l123 4.2l84.4 3.1l0.5 -38.2l0.1 -3.6l-55.6 -23.5l-51.9 -80.8l27.3 -59.7l28.7 -20.5l18 -17l31.2 -48.5l8.9 -54.6l-0.9 -27.5l-6.3 -21.5l-10.4 -30.1l-9.8 -9.1l-17.5 -6.3l-73 74.9l-44.5 18.8l-46 3.2l1.5 -19.4l37.8 -21.3l2.7 -39.7l-51.1 11l-52.6 64.3l-82.3 16.5l-388 -7.3l-107 -2.6l-36.7 0.6l-120.3 -3.4l-21.6 -0.1l-0.5 35.9l-35.8 -0.7l-0.5 35.7l-35.7 -0.5l-0.1 35.2l-36.7 0.3l-0.7 39.3l-35.9 -1.9l-0.7 35.4l-35.5 -1.1l-1 35.4l-36.2 -0.7l0.2 35.8l-42.8 -1l-0.6 35.3l-36.8 -0.7l-1 36l-33.7 -0.9l-0.3 37.4l-35.6 0.2l0.2 35.6l-34.4 -0.6l-0.5 29.6l-36.2 5.7l-0.4 36.1l-35.2 1.2l0 32.8l-35.2 -0.7z" />
  </g>
  <g data-id="107">
    <path d="m7050.8 5839.5l0 0l-12.9 27.2l327.6 0.3l-2 -2.8l-5 -12.1l-1.7 -12.7l10.1 -19.8l32.6 -24.9l56.4 -40.7l12.9 2.9l18.5 8.2l22.7 23l12.5 8.2l18 14.5l6.6 3.9l22.3 7.4l12.7 1.5l22.3 -2.4l11.7 -4.7l9.2 -5.3l6.3 -5l13.5 -14.2l10 -14.6l6.2 -13.5l1.3 -14.5l-3.1 -20.5l-2.7 -6.2l-4.7 -5.7l-8.4 -5.5l-23.8 -4.3l-19.7 2.4l-17.9 -5.5l-17.1 -2l-7 1.4l-11 5.8l-10.2 2.2l-8.4 -0.6l-7.3 -5.9l-10.5 3.1l-10.4 5.8l-8 -6.8l-40.1 -22.2l-8.5 -7.3l-33.4 -43.5l-5.1 -10.3l-3.6 -19.4l-0.3 -17.2l1.5 -6.3l5.8 -8.6l9 -10.5l11.8 -4.8l21.6 1.5l10.7 3.5l2.3 2.3l3.3 6.2l8.4 27.6l3.6 5.8l7.5 7l31 21.7l24.2 8l20.8 1.3l7.9 5.3l10 7l6 -10.9l5.4 -14.3l4.3 -15.1l1 -7.6l-1.2 -9.5l0.3 -14.6l6.1 -34l9.2 -42.3l3.6 -9.1l4.7 -5.9l7.6 -6.3l7.2 -3.9l16.3 -3.9l19.9 -7.4l10.8 0.2l50.9 6l14.3 -1.4l19.9 -15.4l5.2 -5.9l19.3 -31.6l4.4 -10.4l0.6 -16.9l-4.2 -16.5l-4.1 -11.2l-8.5 -15l-32.6 -28.7l-3.9 -6l-1.3 -3.9l-1.4 -16.1l2.8 -16.6l2.6 -4.5l7.4 -6.4l11.8 -6.1l12.2 -1.6l17.1 1.7l25.1 7.4l8.5 1.3l25.8 -0.4l24 -5l19.4 -6.7l14.6 -0.5l2.6 6.9l2.8 8.5l-2.2 23.4l-20 34.8l-4.3 21.8l1.1 17.3l6.3 9.7l8 6.8l15.9 6.7l17.6 0l16 -5.8l5.1 -10.8l2.8 -5.8l0.2 -12.3l-6.1 -20.6l-0.9 -2.3l-12 -28.9l0.1 -17.7l23 -39l-6.4 -9.4l34.5 -19.9l13 -6.1l6.7 -2l26.4 -3.8l9.1 -4.8l66.9 -48.3l10.7 -11.2l8.4 -12.6l5.5 -10.9l3.8 -11.5l1.4 -11.8l-3 -14.6l-13.3 -28l-5.9 -6l-13.7 -10.9l-3.5 -5.9l-5.8 -22.7l-3.2 -34.7l2 -15.4l2.9 -13.2l1.9 -8.8l6 -9.7l5 -21.3l5.2 -8.5l18.4 -20.9l28.3 -15l19.2 -16.4l4.2 -6.4l4.7 -12.1l1.1 -6.7l-0.4 -6.8l-9.9 -30.3l-6.7 -11.8l-16.9 -21.6l-14.5 -13.9l-10.6 -11.9l-9.4 -19l-13.9 -21.9l-11.1 -28.1l-2.1 -26.6l9.7 -36.1l-477.3 -3.9l-320.5 -3.9l-144.2 -2.8l-5.7 426.9l109.2 3.6l-4.5 324.2l-107.7 -0.6l-2.8 44.1l-40.2 85.6l8.8 42.8l21.5 26.3l-33.5 12.4l27.9 27.3l9.5 53.1l-19.8 37.4l-30 -2l-17.9 61.7l21.2 42.5l-13.3 7.7l23.6 30.3l-34.3 7.1l-5.6 23.1l-26.1 2.5z" />
  </g>
  <g data-id="109">
    <path d="m1372.5 5304.8l0 0l-3.3 212l25.5 0.1l-3.1 185.5l211.4 7l-4.7 424.7l148.2 5.2l63.5 24.5l36.1 3.8l35.1 27.9l68.8 1.4l41.6 25.4l20 31.2l24.9 -11.7l65.2 8.2l52.5 23.5l31.4 -7.7l5.4 28l69.2 -13l67 -36l7.8 15.5l75.6 19.5l91.9 -20.1l-14.4 -38.7l3.1 -32.2l-25.9 -35.5l-26.4 -11.6l-23.6 -79.8l-35 -26.9l-1.9 -50.7l-19.7 -106.1l6.5 -15.1l-30.2 -24.3l15.1 -38.4l-13.2 -29.1l14.3 -53.8l-23.7 -24.1l34.9 -43.9l-37.6 6.5l-81.5 -20.3l1.5 -96.5l42.5 1.1l3.5 -213l-918.4 -22.5z" />
  </g>
  <g data-id="111">
    <path d="m7200.7 1969.1l0 0l-4.6 652l5.7 4.4l211.4 2.8l216 -9.7l216.6 -9.8l211.9 2.3l-0.3 17.5l218.1 -0.2l324.9 6.3l108.5 1.5l0.1 -247.4l-0.2 -20.9l0.4 -377.7l-211.2 -3.3l-218.8 -14.9l-209.4 7l-218.7 -2l-650.5 -7.8z" />
  </g>
  <g data-id="113">
    <path d="m305.8 5300l0 0l-8.9 394.7l455.6 -6.4l-0.3 -187.2l-24.6 0.4l2.9 -209.8l642.1 13.1l5.8 -489.6l4 -280.3l0.8 -35.4l-177.2 -7.9l0.1 -22.4l-602.2 -12.4l1.6 -70.9l-277 -6l-2.5 86.8l-3.5 123.5l0.1 19.6l-5.1 212.7l-0 6.4l-2.2 92.3l-5.1 214.3l-0.3 12.5l-0.7 28.6l-2.5 105.2l-0.8 18.2z" />
  </g>
  <g data-id="115">
    <path d="m2654.3 2773.9l0 0l-2.2 136.5l26.7 18l15 6.7l53.1 48.1l10.9 51.2l23.7 8.1l67.7 4.9l35.2 23.4l55.1 66.5l32.2 63.1l19.7 71.9l30.5 21.6l54.5 -24.3l21.9 10.7l-7.7 27.2l-22.5 52.8l14.9 42.6l47.5 24.2l31 -2.1l26.5 -16.4l9.2 -19.3l-5 -48.2l5.5 -17.8l11.7 -8.6l197.2 -31.4l55.6 13.3l82.7 -5.2l1.4 -215.2l7.4 -499.9l1.8 -125.3l0.7 -87.7l72.3 0.5l7.3 -429l-284.6 -5.6l-428.6 -10.3l-6.7 324.6l-107.3 -3.1l-4.6 286.3l-0.4 35.8l-145.3 -3.3l-4.1 215z" />
  </g>
  <g data-id="117">
    <path d="m5661.3 3641l0 0l-2.4 267.2l221.2 4.7l-2 107.7l-12.4 498.6l15.5 2.6l100.6 83.4l9.1 26.3l-19.7 32.6l-33.6 80.3l57.2 32.6l7.6 33.7l-74.6 82.6l-22.4 48.4l6.1 41.8l124.7 5.8l41.2 -2.4l2.2 -213.7l435.6 11.2l1.5 -71.7l-71.5 -2.3l0.9 -36.5l-71.6 -1.1l1.6 -142.6l145.2 3.8l8.4 -387.4l-4.9 -4.7l24.9 -88l33.7 -28l-76.5 -77.4l26.9 -18.7l3.9 -231.9l5.8 -109.6l-157.1 -0.8l6.1 -21.4l-45.3 22.2l-32.1 -12.7l2.8 -23.1l59.8 -2.5l-38 -53.9l-239.1 -5.2l-2.2 163l-46.9 11.3l-64.8 -16.8l-7 -37.9l-41.3 -27.3l-29.5 8.4l-44.3 -30.6l-87.3 39.2l-42.6 -7.3l-73.3 48.1z" />
  </g>
  <g data-id="119">
    <path d="m3748.8 3933.5l0 0l-3.6 141l31.5 0.6l178 4.4l-6.2 213.4l203.2 6.7l6.6 9l-3.9 168l106.4 3.7l-2.2 34.7l102.6 3.7l11.8 0.4l-2.2 62.6l-1.6 47.7l190.6 3l7.5 7.4l-1.2 27l-3.1 71.8l42.3 0.8l167.9 2.6l-3.2 213.3l76 1.8l129.4 3.1l228.6 5.3l0.9 -322l-168.5 -4.2l29.1 -87.9l-3.8 -23.6l14.8 -103.1l29.5 -47l4.1 -147.8l3.5 -114.9l-1.4 -13.8l0.1 -0.6l2.4 -57.6l2.4 -76.5l1.2 -50.1l3.6 -229.6l-101.6 -1l-174 -5.1l-39.5 -0.5l-4.7 213.3l-64.4 -1.5l-316.5 -8.6l2.9 44.8l-65.3 29.7l16 76.3l-9.8 32.5l22.4 36.1l-51.4 -36.4l17.4 -120.6l-47 -97.7l-14.3 -11.9l-122.3 -5.8l-0.1 3.6l-0.5 38.2l-84.4 -3.1l-123 -4.2l-4.3 71.6l-208.6 -3z" />
  </g>
  <g data-id="121">
    <path d="m6460.3 6.1l0 0l-4 0.1l17.1 43.4l82.5 37l17.1 110.2l81.2 1.2l-2.8 76.5l37.2 1.4l-1.8 36l34.7 0.5l-1.6 109l35.1 0l-0.7 182.1l36.6 0.5l-2.6 79.8l19 -37.7l10.6 39.1l46.8 16.3l41.5 31.2l40.8 0.3l11.6 37.2l26.9 27.2l4.7 34.1l44.2 31.7l74.3 7l-7.1 45.3l28.2 18.2l-1.6 26.3l19 -10.5l-2.3 -60.9l25.5 -23.4l13.7 3.7l178.5 2.2l149 0l145.9 2.3l6.4 -292.3l0.8 -53.1l29.4 -12.9l19.9 22.8l33.4 -7.2l31.1 16.3l-4.3 -8.2l6.4 -321.9l-44.2 -0.7l26.8 -21.9l-45.1 -39.5l10 -24.4l10.3 -94.9l-29.7 -33.2l-132.8 -0.1l-46.9 1.2l-5.6 -0.6l-0.6 -0.3l-4.7 0.1l-163.7 -0.1l-4.9 0l-36.6 0.1l-54.9 0.2l-18.9 0.5l-156.7 0.5l-0.8 -0.1l-60.8 0.5l-182.6 0.5l-2.6 -0.1l-17.6 -0.1l-357 1.2l-0.5 -0.1z" />
  </g>
  <g data-id="123">
    <path d="m6973.7 3709.7l0 0l-5.3 222.3l72.1 0.1l-2.3 109.4l35.8 0.1l1.5 -109.5l106.1 -0.3l190.3 12.1l412 4.6l109.2 -1.1l146.5 -2.2l424.8 5.7l1.3 -241.3l15 -358.1l-206.2 9.9l-0 2.1l-214.9 -4.2l-3.3 -3.3l-44.5 -1.1l-7.6 4.3l-169.2 -6.9l-202.3 -0.6l-14.1 -1.4l-429.4 1.4l-5.5 361.5l-210 -3.5z" />
  </g>
  <g data-id="125">
    <path d="m3104.8 4063.8l0 0l-2.6 211.1l213 -0.9l-0.5 173.8l-20 40.2l-0.9 116.3l210 5.1l-3.1 107.5l138.6 1.7l-0.8 32.3l-1.1 36.4l35.1 0.6l-3.4 142.5l35.4 -0.3l75 1.1l-1.3 71.7l108.3 1.9l-2.2 142.4l35.1 1.1l88.5 2.7l3.1 -30.8l67.8 -72.8l225.2 5.7l15.3 0.4l131 3l2.3 -107l17 0.4l300.2 5.2l3.2 -213.3l-167.9 -2.6l-42.3 -0.8l3.1 -71.8l1.2 -27l-7.5 -7.4l-190.6 -3l1.6 -47.7l2.2 -62.6l-11.8 -0.4l-102.6 -3.7l2.2 -34.7l-106.4 -3.7l3.9 -168l-6.6 -9l-203.2 -6.7l6.2 -213.4l-178 -4.4l-1.7 62.1l-31.8 -35.4l-48.7 7.3l-43.7 -25.1l-30.8 5.6l-24 -19.1l-281 -9.2l-210 2.5z" />
  </g>
  <g data-id="127">
    <path d="m335.3 4138.5l0 0l-6.8 241.5l277 6l-1.6 70.9l602.2 12.4l-0.1 22.4l177.2 7.9l-0.8 35.4l105.3 0.8l0.3 -53.8l15.7 -62.2l107 3.4l71.2 -17.4l0.2 -35.2l72 2.2l1 -35.6l70.2 2.9l6.1 -391.4l1.2 -66.1l3.7 -215.2l-742.9 -16.9l1.2 -67.3l-136.8 -4.1l2.4 -108.1l-36.3 -0.4l-0.6 18.1l-73.1 16.2l-74.6 37.8l-36.9 12.1l0.2 4.5l-0.4 13.7l36.5 1.2l8.8 5.5l-3.7 170.9l-0.8 42.5l-51.6 21.5l-77.8 16.9l-58.7 -7.6l-49.2 20l-38.5 -35.4l-17.2 33.6l-32.1 12.3l-34.7 -15.6l-40.5 45.4l-36.9 -6.3l-2.7 93.4l0.3 4.2l0.1 8.8l-1.2 37.5l-0.9 34.1l-0.2 6.5l-0.2 8l-1.9 68.2z" />
  </g>
  <g data-id="129">
    <path d="m3360.7 1709.9l0 0l-9.5 219l284.6 5.6l359 10l2.8 -179.5l63.3 1.7l365.2 3.8l4.8 -464.8l5.7 -216l-131.2 -2.4l-38.7 -0.4l-172 -3.7l-301 -5.4l-211.8 -6.2l-0.7 -108.7l-108.3 -1l-108.5 -2.5l-1.8 107.6l14.1 0.4l-4.9 203l-11.4 439.5z" />
  </g>
  <g data-id="131">
    <path d="m345.1 3769.2l0 0l-3.2 108.7l36.9 6.3l40.5 -45.4l34.7 15.6l32.1 -12.3l17.2 -33.6l38.5 35.4l49.2 -20l58.7 7.6l77.8 -16.9l51.6 -21.5l0.8 -42.5l3.7 -170.9l-8.8 -5.5l-36.5 -1.2l0.4 -13.7l-0.2 -4.5l36.9 -12.1l74.6 -37.8l73.1 -16.2l0.6 -18.1l36.3 0.4l2.5 -107.4l217.3 6.2l5.2 -175.3l0.2 -4.2l-36 -1.4l-3.3 36.7l-33.7 -0.9l1.3 -36.5l-37.3 -3.1l6 -174.8l5.8 -309.7l2.4 -31.7l1.7 -49.5l-23.6 7.2l-112.2 -19.1l-29.6 21.1l-8.6 15.7l52.9 89.1l-7.9 36.1l-56.9 15.9l-45 -24.3l-30.4 68.7l-58.1 15l-17.2 -2.9l-36.3 3.3l-39.8 -15l-50 16.7l-75.2 -46l-10.8 -22.9l17.7 -68l-38.3 -50.8l-58.7 -46.7l-52.8 3.4l-47.8 46.1l12.3 83.5l-0.3 1l-1.6 5l-3.5 10.9l0.3 2.3l2.1 14l-1.5 11.1l3.8 16.5l-1 5.4l0.4 11.1l-4.6 139l-2.1 37l-0.2 9.9l-0.1 28.6l-0.8 4l-0.2 6l-0 1.3l-1.6 52.2l-2 19.4l-0.4 7.2l0.4 20.5l-1.3 49.1l-0.4 5.9l-1.2 27.8l0.1 9.1l0.4 15.8l-1.3 37.8l-0.1 6.8l-0.3 13.8l-2.1 85.2l-1 22.3l-4.1 140.6l-6.1 207z" />
  </g>
  <g data-id="133">
    <path d="m283.3 6267.7l0 0l-0.6 31.3l20.1 -8.3l41.8 36.6l21.3 -6.4l47.8 13.8l-19.1 -40.6l26.1 -5.6l46.8 10.7l11.3 19l-17.6 91.8l54.2 19.4l-21.4 23.5l63 -12.4l15.4 53.5l16.8 -6.6l42.9 23.2l1.1 78l36 -20.9l32.2 29.6l35.5 -0.2l28.1 38.3l38.5 -30.1l0.9 26.5l52.3 -20.7l16.7 5.1l-13.1 50.3l56.3 12.3l30.6 -13.6l5.7 18.6l45.2 -22.1l70.1 19.3l91.9 2.9l-1.9 69.7l166.8 5.4l-20.9 -40.6l17.1 -43.4l-17.7 -18.9l9.8 -6.3l-13.8 -25.4l-63.5 -65.1l-11.5 -36l-20.3 -4.6l-1.2 -53.6l-67.3 -33l-0.7 -43.9l-17.1 -22.8l-9 -9.6l-7.8 -51.4l25.3 -71.4l-21.4 -27.7l3.1 -47.5l-11.9 -5.6l-30.1 -79.4l24.2 -91.2l-33.3 -11.4l21.2 -61.1l-24 -26.4l26.3 -31.9l-46.4 -24.1l17.2 -28.5l-5.2 -71.9l14.9 -24.7l-30.1 -10l-276.5 -3.1l-2.3 0.1l-455.6 6.4l-9.3 408l0 0.1l0 0.3l0 5l-4.1 151.1l-0.2 8.6z" />
  </g>
  <g data-id="135">
    <path d="m5848.6 1243.5l0 0l-2.4 147l155.8 6l341.6 6.3l-3 110l216.1 4.7l5.8 -221l4.8 -443.7l4.2 -181.9l35.4 0.5l1.4 -35.2l145.2 3.5l0.8 -35.9l0.7 -182.1l-35.1 -0l1.6 -109l-34.7 -0.5l1.8 -36l-37.2 -1.4l2.8 -76.5l-81.2 -1.2l-17.1 -110.2l-82.5 -37l-17.1 -43.4l-0.2 -0l-52.4 -0.3l-6.4 -0.3l-19.7 -0.2l-7.5 -0.2l-5.7 197.5l-3.2 207.6l-116.6 -3.4l-107.4 -1.4l0 199.5l-0.4 18.7l-252.1 -8.4l-1.6 110l36.4 1.5l-1.4 109.1l-13.5 353.1l-19.3 9.4l17.8 46.1l-54.5 -0.9z" />
  </g>
  <g data-id="137">
    <path d="m4426.2 1770.5l0 0l-3.4 179.7l357.7 9.5l419.2 11.1l391.8 6.8l2.2 -108.8l-58.3 -54.4l-11.8 -98.5l43 -88.6l0.3 -52.4l-33.7 -36.7l-60.6 -1.5l-81.1 -73.3l-32.8 -47.9l-31.2 -21.3l-26.4 1.2l-46.8 50.6l-45.3 -8.8l-5 -40.6l-35.2 -10.4l-64.9 40.2l-66.2 -23.3l4.3 -33.4l50.4 -39.4l-0.7 -50.5l-27.4 -48.5l15.5 -36l56.7 -10.3l12.8 -25.3l-35.1 -46.2l-77.1 -28.5l-25.1 -42.9l-27.4 -75.7l-30 -7.9l-45 32.9l-25.7 -7.9l-12.5 -68.4l-4.5 182.9l-215.8 -4.5l-4.6 216.4l-215.4 -4.6l-4.8 464.8z" />
  </g>
  <g data-id="139">
    <path d="m3280.7 8332.9l0 0l-4.7 192.9l35.3 0.3l49.4 0.9l158.9 1.8l26.8 -0.2l19.9 0.1l0.4 0.1l26.7 0.9l68.9 2l127.4 1.2l16.5 -0l0.5 0l2.4 0l15.4 -0.2l9.2 0.2l365 4.5l52.3 0.6l4.8 0l63.6 0.4l200 3.1l14.9 0.2l54.2 0.7l86.9 0.6l140.4 2.5l309.1 2.2l-31 -57.1l-48.2 0l-11.9 -91.6l-30.1 -0.2l-6.6 -63.6l7.7 -53.3l31.5 -31.6l4.9 -60.8l-53.8 -13.5l-25.5 -17.8l-40.9 18.5l16 -22.1l-19.9 -39.2l-19 -0.2l6 -58.7l-33.3 26.7l-54 -18.4l-0.2 -30.7l21.2 -3.9l-40.9 -18.6l14.4 -53.6l-21.7 -11.3l-21.7 18.5l-38.3 -9l-6 -24.3l-49.5 -1.1l-4.6 -37.9l-27.1 37.7l-34.9 5.2l-4.7 -40.8l-60.5 -5.4l17 -40.7l-60.7 48.7l-101.5 21.4l-28.8 -12.2l-16.3 -30.9l-12.9 10.9l-26.9 -26.2l28.3 -21.9l-44 -58.9l-14.9 29l-31.4 -27.2l-39.2 24.8l-18.6 -94.8l-28.7 -24.2l-40 -2.7l-54.7 -15.7l-17.4 22.7l-41.7 12.6l-44.3 -22.3l-29.6 30.7l-41.4 -23.1l-69 -13.9l-9.6 -27.1l-80 -13.3l-35 30.9l-53.9 5.3l-281.6 -9l-68.9 -2l-15.9 672.2z" />
  </g>
  <g data-id="141">
    <path d="m3555.5 2450.8l0 0l-1.8 125.3l569.9 14.8l176.9 3.9l-4.4 214.6l164.2 3.8l16.3 0.2l279.4 7.5l7.9 -394.6l8.2 -35.4l1.2 -78.8l4.9 -190l2.3 -162.3l-357.7 -9.5l3.4 -179.7l-365.2 -3.8l-63.3 -1.7l-2.8 179.5l-359 -10l-7.3 429l-72.3 -0.5l-0.7 87.7z" />
  </g>
  <g data-id="143">
    <path d="m132.2 991.5l0 0l8.7 59.6l0.3 2.5l24.1 172.7l1.8 12.7l2.4 14.6l3.2 22.2l7.6 54.2l0.3 1l7.1 49.5l0.6 4.2l2.9 19.7l0.6 3.1l-0 0.2l0 1.4l10.2 80.4l20 138.9l4 30.4l2.4 18l2.9 22.7l3.7 26.7l0.8 6.5l0.5 2.9l1.8 14.2l1.2 8.6l9 62.4l2.4 15.9l0.9 6.8l212.2 4.7l208.9 6.1l5 0.2l137.7 4.4l176.2 6.2l1.2 -35.2l35.9 0.9l288.6 8.2l4.6 -179.4l17.6 0.1l3.9 -143.2l5.3 -216.4l3.1 -138.5l3.1 -142.4l113.4 -358.5l-113 -2.8l-27.6 34.3l-29.2 -15.2l-2.1 61.5l-20.5 -20.8l-29.5 3.3l-19.7 -48.1l-32.8 16.1l13.5 38.6l-152.2 -3.7l-40.4 -0.7l-49.3 -0.7l-72.2 -2.6l-16.4 -0.4l-259.2 -6.7l-45.7 -1.3l-2.6 83.9l-0.6 25.7l-2.6 70.9l-107.6 -0.9l-10 107.3l-51.9 -0.9l-264.4 -6z" />
  </g>
  <g data-id="145">
    <path d="m5029.7 3331l0 0l-6.3 221.5l61.9 4.2l28.8 -25.4l49.4 19.7l74 -22.6l33.4 41.3l32.1 3.4l-3.4 5.6l63.2 25.9l44.5 -4.1l55.2 44.3l11.9 -9.8l33.2 20.4l153.6 -14.4l73.3 -48.1l42.6 7.3l87.3 -39.2l44.3 30.6l29.5 -8.4l41.3 27.3l7 37.9l64.8 16.8l46.9 -11.3l2.2 -163l239.1 5.2l29.5 -31.6l51.6 -3.6l-40.6 -10.2l12.1 -24.3l-26.3 -48.6l46.6 2.8l-17.4 -44.2l-44.4 -1.7l-0.6 -28.1l51.7 -1.5l24.9 -29.7l-9.6 -15.6l-2.4 -19.9l23.9 2.3l7.3 -7.1l9.1 -41.9l23 6l0.7 30.7l2.5 9.2l30.9 11.7l2.7 -5.7l1.5 -11.2l-0.5 -1.6l-4.3 -3.3l-11.7 0.7l-6.1 -2.3l-3.9 -6.3l0.6 -5.8l16.9 -19.5l4 -8.7l-3.4 -4.6l-3.3 -1.1l-12.2 0.4l-8.4 -3.6l-2.8 -5l0.2 -3.9l2.5 -2.3l5.1 -0.9l5.1 2.3l11.5 6.6l3.1 -0.2l5.4 -5.2l0.4 -4.2l-1.9 -3.8l-3.8 -2.6l-8.3 -4.1l-6.6 -8.3l-1.3 -4.9l0.7 -8.7l2.1 -4.7l3.2 -13.5l1.9 -4.5l5.2 -6.6l8.6 -5.1l7.7 -6.1l3.7 -5.3l3 -10.6l0.2 -7.6l-1.1 -4.4l-2.5 -4.3l-6.7 -3.1l-3.6 1l-3.5 5.3l-0.2 4.8l1.1 8.7l0.1 6.4l-1.2 4.7l-6.1 6.6l-5 2.5l-5.3 0.7l-26.5 -33l-21.6 -0.5l0.6 -31.1l-2.2 -62.9l-49.9 17.1l25.1 -83.2l-10.2 -19.2l-29.7 -21.2l38.6 -16.6l-25.3 -40.4l14.7 -5.4l36.2 27.8l6.4 -14l-32.1 -22.5l42.4 -27.5l25 27.5l17.5 -5.4l-34.5 -33.9l60.2 -37.2l-2.5 -38.1l16.5 -21.2l14.4 54.6l22.8 -38.8l-24 -15.6l20 -22.2l-477.4 -7.9l5.6 -217.7l-132.9 -4.6l-122 -2.4l-73.3 -2.3l-98.2 0.2l-3.8 194l-47.2 14.1l-18.7 -12l-16.5 33.9l-26.8 11.3l-3.6 192.8l-521.8 -10.9l-9 407.9l-1.3 99.7z" />
  </g>
  <g data-id="147">
    <path d="m6318 3552.5l0 0l-2.8 23.1l32.1 12.7l45.3 -22.2l-6.1 21.4l157.1 0.8l-5.8 109.6l-3.9 231.9l148.3 0.7l3.4 -178.2l110.5 0.5l1.3 -47.6l58.6 2l117.7 2.4l210 3.5l5.5 -361.5l5.8 -507.4l-425.7 -8.1l-2.9 -217.8l-195.6 2.2l5.9 14.5l-20 22.2l24 15.6l-22.8 38.8l-14.4 -54.6l-16.5 21.2l2.5 38.1l-60.2 37.2l34.5 33.9l-17.5 5.4l-25 -27.5l-42.4 27.5l32.1 22.5l-6.4 14l-36.2 -27.8l-14.7 5.4l25.3 40.4l-38.6 16.6l29.7 21.2l10.2 19.2l-25.1 83.2l49.9 -17.1l2.2 62.9l-0.6 31.1l21.6 0.5l26.5 33l5.3 -0.7l5 -2.5l6.1 -6.6l1.2 -4.7l-0.1 -6.4l-1.1 -8.7l0.2 -4.8l3.5 -5.3l3.6 -1l6.7 3.1l2.5 4.3l1.1 4.4l-0.2 7.6l-3 10.6l-3.7 5.3l-7.7 6.1l-8.6 5.1l-5.2 6.6l-1.9 4.5l-3.2 13.5l-2.1 4.7l-0.7 8.7l1.3 4.9l6.6 8.3l8.3 4.1l3.8 2.6l1.9 3.8l-0.4 4.2l-5.4 5.2l-3.1 0.2l-11.5 -6.6l-5.1 -2.3l-5.1 0.9l-2.5 2.3l-0.2 3.9l2.8 5l8.4 3.6l12.2 -0.4l3.3 1.1l3.4 4.6l-4 8.7l-16.9 19.5l-0.6 5.8l3.9 6.3l6.1 2.3l11.7 -0.7l4.3 3.3l0.5 1.6l-1.5 11.2l-2.7 5.7l-30.9 -11.7l-2.5 -9.2l-0.7 -30.7l-23 -6l-9.1 41.9l-7.3 7.1l-23.9 -2.3l2.4 19.9l9.6 15.6l-24.9 29.7l-51.7 1.5l0.6 28.1l44.4 1.7l17.4 44.2l-46.6 -2.8l26.3 48.6l-12.1 24.3l40.6 10.2l-51.6 3.6l-29.5 31.6l38 53.9l-59.8 2.5z" />
  </g>
  <g data-id="149">
    <path d="m1831.1 3948.6l0 0l-6.1 391.4l635.4 4.7l-0.3 -70.9l214.5 -2.1l-1 -215l-35.4 -0.2l0.4 -35.5l35.2 0.7l0 -32.8l35.2 -1.2l0.4 -36.1l36.2 -5.7l0.5 -29.6l34.4 0.6l-0.2 -35.6l35.6 -0.2l0.3 -37.4l33.7 0.9l1 -36l36.8 0.7l0.6 -35.3l42.8 1l-0.2 -35.8l36.2 0.7l1 -35.4l35.5 1.1l0.7 -35.4l35.9 1.9l0.7 -39.3l36.7 -0.3l0.1 -35.2l35.7 0.5l0.5 -35.7l35.8 0.7l0.5 -35.9l21.6 0.1l28.7 -28.1l-29.1 -50.6l122.6 -22.4l1.6 -32.6l46.3 -21.9l63.7 -69.1l56.7 -5.8l-55.6 -13.3l-197.2 31.4l-11.7 8.6l-5.5 17.8l5 48.2l-9.2 19.3l-26.5 16.4l-31 2.1l-47.5 -24.2l-14.9 -42.6l22.5 -52.8l7.7 -27.2l-21.9 -10.7l-54.5 24.3l-30.5 -21.6l-19.7 -71.9l-32.2 -63.1l-55.1 -66.5l-35.2 -23.4l-67.7 -4.9l-23.7 -8.1l-10.9 -51.2l-53.1 -48.1l-3.4 258.2l-71.5 0.4l-284.5 -8.4l0.1 18l-35.2 -3.1l-18.7 19.5l-0.2 52.5l-19.6 16.5l-35.1 -1.2l-0.5 35.7l-35.9 -0.7l-1.2 35.8l-267.7 -6.8l-0.6 35.4l-87.3 -2.7l-4.8 216.6l8.4 66.5l-3.7 215.2l-1.2 66.1z" />
  </g>
</svg>
