<?xml version="1.0" encoding="UTF-8"?><!DOCTYPE svg PUBLIC '-//W3C//DTD SVG 1.1//EN' 'http://www.w3.org/Graphics/SVG/1.1/DTD/svg11.dtd'><svg viewBox="0 0 1000 563.961" xmlns="http://www.w3.org/2000/svg"><path data-id="30001" d="m175.8 406.4l0.6 2.7l1.7 2.4l1.2 1.4l-0.6 2.3l1.6 0.6l2 -0.8l3.2 1.3l1.4 1.2l0.3 1.1l-0.1 1.5l-1.3 1.6l-1.2 5.4l2.1 0.1l1 -0.4l1.5 0l1 2.5l0.6 1.8l-0.4 1.1l-1.6 2.7l1.7 2.8l0 1.1l-1.1 0.8l0.2 1.1l1.1 0l2.2 1.7l-0.1 3.3l-0.4 2.3l0.1 1.9l4.2 5.4l-0.2 1.5l0.6 2.1l1.6 0.9l1.3 1.4l1.1 2.6l3.1 2.6l0.8 1.7l-0.4 1.3l2.1 3l-0.4 1.5l2.1 1.8l1.7 -0.4l1.6 0.2l-0.2 1.9l-0.7 1.1l2.6 2.1l0.8 1.1l1 0l1.2 0.5l0.1 1.7l0.1 1.1l1 3.3l-0.8 1l0 1.6l0.2 1l0.1 1.9l-1.9 1.3l-1.1 -0.3l-1.1 0.2l0.2 2.4l1.3 2.7l1.5 3.6l2.9 4l2.2 0.3l1.6 0.5l1.7 1.6l0.8 2.3l-0.6 1l1 0.8l3.3 -1.7l1.9 -1.6l2.6 -1.2l0.7 1l2.4 0.6l1.3 0.8l0.9 1l1.6 1.8l2 0.3l0.8 1.4l-0.3 1.4l1.5 1.7l1.2 1.1l0.1 2.4l0.3 1.3l1.3 0.7l0.9 1.4l0 1.4l0.2 1.3l1.4 2.3l-0.1 1.9l-1 0.4l-1.5 1.8l1.1 1.4l0.8 1.5l2 1.5l-0.7 1.6l0.3 1l2.9 1.9l-0.9 2.6l-0.2 2.6l1 1.2l0.3 2.4l1.8 1.9l2.5 1.9l2.8 1.5l2.7 0.8l0.3 2.1l2.2 2.4l2.9 -1.3l0.7 -2.5l-0.8 -1.8l-1.2 -1.8l0.7 -2.3l2.6 -2.6l1.7 -2.3l2.3 -0.8l1.2 -0.9l1.3 -0.6l4 1.6l1.4 0.5l4.5 -0.4l1.5 1.1l2.8 -0.5l2.6 1.1l0.6 1.1l3.2 -1.6l1.1 0.5l2.1 1.6l4 1.7l1.6 -2.2l0.8 -2.2l0 -5l0.9 -1.2l2.5 0l0.3 -1.3l2.4 -2.2l2.3 -0.1l1.3 0.2l1.1 0.6l0.1 1.6l3.7 1.9l1.7 -1l2.3 0.2l0.9 1.3l1.5 0.9l1 -1.1l2 -0.8l1.3 0.2l1.4 0.6l0.1 -1.5l1.8 0l1.6 0.8l1.2 -0.1l2.4 -1.6l4 -0.9l1.3 -0.7l1.4 -0.1l1.8 2.8l0.6 1.6l1.8 2l1.1 -0.3l0.1 -1.2l3.7 -0.9l1.2 -1.3l2.6 -0.4l0.9 -2l1.9 0l5.3 1.2l1.3 -0.5l1.3 -1.1l1.9 0.9l1.3 -0.2l1.9 1l0.7 1.2l1.3 -0.3l2.4 -0.1l0.2 -1.3l-1.9 -1l-1.1 -0.2l0.1 -1.5l-1.1 -0.9l-0.5 -1.9l0.2 -1.9l1.3 -1.2l-0.6 -1.6l1.5 -0.7l1.8 -2.4l0.3 -1.5l-1.3 -1.1l-0.4 -1.5l-24.2 -1l0 -8.5l-20.3 -0.1l-3.4 -0.2l0 -5l-8.4 -0.1l0 -10.1l-2 0l0 -10.3l-11.9 0l0 -10.4l-10.2 0l-0.6 -30.9l0 -5.2l-3.4 -5.8l-2.8 -0.4l-3.1 2l-1.8 0l-2.5 -1.3l-0.9 -1.7l-4.4 -3.4l-0.6 -3.6l-0.5 -2.3l0.9 -1.1l0.6 -3.2l0 -3.8l0.6 -1.4l-0.6 -1.5l-1.1 -2.4l0.6 -1.3l-0.7 -2.5l-2.9 -1.2l-1.4 -3.1l0.5 -2.1l-1 -2.3l-1.8 -0.9l-0.4 -1l-1.2 0.6l-2 -1.8l-2.6 -0.7l-1.1 0.2l-1.4 -1.4l-1.5 1.1l-2 -2.5l-1.5 0.3l-3.6 -1.1l-1.1 -0.9l-1.9 -1.7l-5.1 -3.7l-1.2 -2.5l-6.5 -0.4l-1.6 1.3l-2.7 1l-2.2 2.5l-1.7 3.3l-1.9 -0.1l-0.8 1.5l-2.3 -0.8l-0.9 1l-1.5 4.1l0.1 1.6l-1.2 -0.2l-1.4 -0.8l-3.3 -4.8l0.4 -2.9l-1 -3l-2.2 -3.6l-2.3 -6l-1.7 -0.3l-1.6 3.1l-0.1 2.3l0.7 1.5l-3.3 1.1l-1.9 1.1l-0.1 1.5l-1.6 0l-1 1.1l-2.7 0.1l-1.1 0.6l-2.5 -1l-1.2 0.6l-1.4 2.3l-1.2 0.5l-2.8 2.7l-1.1 0l0.4 1.6l-1.4 1.8l-2.1 1.5l-1.6 -0.2l-0.5 -2.4l-1.3 -1l-2.2 1.4l-1.7 2.9l1 1.8l-0.6 3.8l-2.2 0.4z"/><path data-id="30003" d="m612 461.2l0.8 1.9l2.5 0l4.9 0l4.2 0l1.4 0l2.5 0l3.2 0l3.9 -0.1l4.3 -0.1l3.6 0l2.7 0l5.1 0l4.7 0l3.7 0l2 0l-1.4 0.5l-0.8 1.1l0 1.1l-0.4 1.2l-1 0.4l-0.2 1.3l-1.2 -0.1l0.1 1.2l-0.6 1.5l0.5 1.2l-1.4 0.7l0 1.1l-0.2 1l-0.3 1.3l-1 0.4l-1 0.9l-0.7 1.3l-0.7 1.7l-0.9 1l1.1 0.8l-1.1 0.9l-0.7 1.6l0.2 1.2l-0.5 1.1l0.6 1l2.2 0.5l5.8 -0.1l12.4 0l7.4 0l13.4 0.1l11.8 0l3.4 0l6.3 0l11.7 0l18.1 0.2l2.4 0.2l1.7 0.3l2.8 0.1l5.3 0l7.9 0l27.1 0.1l25.2 0.1l0 -21.9l-1.3 0l-9.9 0l-30.7 0l-0.1 -20.5l3.3 0.2l0 -38.2l-9.7 -0.4l-5.5 -0.9l0 -12.4l3 0l0 -5.2l-5.2 0l0 -4.6l-9.4 0l0 -5.2l-10.4 0l0 -5.2l-20.7 0l0 -10.4l-7.2 0l-13.6 0l0 6.9l-10.3 0l0 3.5l-3.5 0l0 3.4l-3.5 0l0 3.5l-13.8 0l0 13.8l-1.8 0l0 12.2l0 19.4l-10.3 0l0 3.4l-10.2 0l0 3.4l-10.7 0l-16.6 -0.4l-2.6 3.1l-0.9 5.8l-0.4 1.8l-0.5 2.1l-0.2 3.1l0 4.9l0 6.5z"/><path data-id="30005" d="m541 89.2l0 9l1.5 0l0 10.8l-0.4 32.8l0 16.4l2.3 -0.7l2 1.7l1.9 0.7l2.3 -0.1l7.2 -3.1l3.1 -0.9l1 -1.5l1.6 -0.8l0.6 -2l3.7 -0.2l3.3 0.5l2.5 1.4l2.3 -0.2l5.6 -2.5l3 1.1l2.5 -1.3l1.9 0.1l1.5 1.2l1.4 0.1l-0.2 2.3l2.1 2l-2.5 2.4l0.5 1l2 -0.8l2.4 0.1l0 -16.9l0.2 -6.5l18 -0.1l3.8 0.4l0.2 -4.6l1.3 -4.2l3.1 1.2l11.3 0.6l0 -30.3l1.9 0l0 -28.2l4.4 0.9l1.1 1.9l0 -18.3l2.3 0l0 -21.9l5 0l0 -21.7l1.9 0l0 -10.9l-12.7 0l-19.7 0l-20.8 0l-10.3 0l-20.2 -0.1l-20.7 0l0 10.9l-1.3 0l0 43.7l0.7 5.3l2.7 0l0 9.1l-2.7 0l0 7.3l-1.8 0l0 12.7l-2.7 0z"/><path data-id="30007" d="m354.8 301.4l0.1 52.3l0.2 10.4l10.3 0.1l0 15.5l0 10.3l0.5 -1.3l1 -0.6l0.6 -1.4l1.1 -0.5l0.9 -1.1l0.3 -1.5l0.9 -1l0.9 -1.3l1.3 -0.4l1.2 -0.5l1.1 0.6l0.2 -1l1.1 -0.8l1.3 -0.2l1.1 -0.7l1.4 -1.5l1.3 -1.3l0.4 -1.2l0 -1.2l0.1 -1.9l0.6 -1l1.3 0.9l1.5 -0.4l0.1 -2.4l-0.4 -1l0.2 -1.2l-0.1 -1.2l0 -2.1l0.7 -1.2l0.7 -1.3l1 -0.8l-0.1 -1.8l1 -0.1l0.7 -1l1.1 -0.4l1.1 -1.4l0.2 -3l3.4 -4.2l3.4 0l6 0l3.7 -0.6l7.3 0l0.1 -2l-0.1 -1.4l-0.7 -1.2l-1.1 -1l0.4 -1l-1.6 -1l-1.2 -0.9l-1 -0.8l0 -1.1l0.3 -1l0.1 -1l0.1 -1.4l0.4 -1.3l0.9 -1.5l1.2 -1.7l1 -0.1l0.5 -1l-0.1 -1.5l0.4 -1.3l0.2 -1.4l0.7 -1.3l-0.6 -1.1l-1.2 -0.9l-1.3 -1.2l-1 -0.9l-1.1 -0.5l-2.77556e-17 -1.6l-1.4 0.4l-1.1 0.1l-1.9 0.5l-0.2 1.1l-1.2 0.8l-1.2 0.2l-1.9 -0.4l-1.3 -0.9l-0.3 -1.8l-0.2 -1.9l-0.2 -1l0.1 -1.6l-1 -0.7l-0.7 -1.3l-0.7 -1.9l-1.1 -0.6l-1.1 -0.2l-1.2 -0.5l-1.1 -0.5l-0.2 -1.3l1.3 -0.9l0 -1.8l-0.8 -1.5l0.2 -1.4l-0.3 -1.2l0.7 -1l0 -1.4l-0.4 -1.1l-1.2 0l-1.4 0.1l-0.9 -1l-1.2 -0.2l-1.3 0.4l-0.5 -1.4l-0.3 -2l-0.8 -1.1l-1 -0.4l-1.1 0l0.4 -1.1l-0.3 -1.1l-1 -0.5l0.4 -1.2l-0.5 -1l0.1 -1.1l0 -1.6l-1.3 -1l-1 -0.5l-1 -0.8l-3.9 -0.8l-1.4 0.3l-0.5 -1.3l-1.6 -0.6l-1.3 0.4l-1.9 3.9l-1.2 1l-0.1 18.9l0.7 1.5l-13 0.1z"/><path data-id="30009" d="m520.5 469.1l0 19.5l4 0.1l7.2 -0.1l7.4 0l15.6 -0.3l9.8 -0.1l13.8 -0.1l1.7 0.7l1.7 0l9.3 0l22.2 -0.1l5.1 0l3.6 0l1 0l5.4 0.1l19.1 -0.1l1.8 0.1l-0.6 -1.3l0.3 -1l0.3 -1.6l0.7 -1.6l1 -0.2l-1 -1.1l1.1 -1l0.2 -1.3l0.4 -1.7l1 -0.7l1 -0.3l0.3 -1.3l0.6 -1.1l0 -1.1l1.4 -1l-0.5 -1.2l0 -1l0.8 -1.3l1 -0.2l0.3 -1.3l1.3 -0.2l-0.7 -1.1l0.8 -1.8l0.2 -1.1l1.3 0l-1.3 -0.5l-3.7 0l-4.7 0l-5.1 0l-2.7 0l-3.6 0l-4.3 0.1l-3.9 0.1l-3.2 0l-2.5 0l-1.4 0l-4.2 0l-4.9 0l-2 0l-1.3 -1l0 -7.4l0 -4.9l0.2 -3.1l0.5 -2.1l0.4 -1.8l0.9 -5.8l2.1 -2.5l-3.9 -0.6l-0.1 -7l-5.1 0l0 -3.4l-3.4 0l-0.1 -4.2l1.7 -3.3l0 -2.7l-1.4 0.4l-3.7 2.8l-1.5 -0.3l-2.5 1.3l-3.5 0l-3.2 -1.6l-4.7 1.8l-0.9 1.2l-2.4 0.9l-4.9 -0.5l0 7.7l-5.3 0l0 7l-13.7 0l0 1.7l-5.2 0l0 1.7l-1.7 0l0 1.7l-3.4 0l0 1.7l-1.7 0l0 1.7l-1.7 0l0 1.7l-1.7 0l0 1.7l-1.7 0l-0.5 3.4l-1.7 0l0 3.4l-1.7 0l0 5.1l-6.6 0l0 11.1l-9.2 0z"/><path data-id="30011" d="m916.8 447.2l0 41.5l1.1 0l21.7 0.1l3.2 -0.1l5.1 0.1l16.2 0l18.3 0l16 0.1l1.5 -0.1l0 -14.8l0 -10.5l0 -14.6l0 -1.1l0 -3.4l0 -2.3l0 -8.2l-0.1 -3.3l0 -1.1l0 -4.6l0 -1.4l-0.1 -23.8l-0.1 -14.1l0 -1.6l-7.6 0l0 -10.4l-16.1 -0.2l-5.2 0l0 -10.1l-10.4 0l0 -9.8l-30.8 0l-4.5 0l0 41.9l-3.6 0l-0.4 41l0 10.8l-4.2 0z"/><path data-id="30013" d="m333.2 185.7l0.2 39.7l1.5 -0.8l1.5 1l-0.1 1.4l2.7 -0.6l-0.1 1.3l1.5 0.6l1.6 3.1l1.8 1l2 0l0 1.5l1.7 -0.7l7.1 0l-0.1 26.3l11 0l9.9 0l0 -10.6l21.2 -0.1l0 -1.3l10.6 0l0 -9.4l6.5 0.1l-0.3 1.9l0.6 3.3l-2.3 2l2.7 2.9l1.4 -0.4l4.9 0.5l6.9 3l1.8 1.8l1.7 2.6l1 -0.2l0.2 3l2.6 0.8l1.7 1.6l1.2 -1l0.6 1l2.6 1.4l0.1 3.7l0 1.8l1.3 -0.5l1.6 1.3l1.6 -0.8l1.5 2.5l1.4 0.8l0.8 -2.3l1.4 0l-0.4 -10.6l-0.3 -10.6l0 -10.4l-10.4 -0.1l0.3 -10.7l0 -6.2l-0.9 -1.8l-0.9 -7.2l1.3 0l0.4 1.3l0 -7.6l10.7 0l-0.1 -7.1l-0.1 -3.7l-10.7 0l0.1 -9.8l-7.9 0.1l-1.3 -2.7l-2.4 0.6l-2.5 -0.6l-2.3 -2l-0.4 -1l-2.7 -0.1l-2.3 -1.2l-1.6 -2l1.1 -3.5l1.7 -3.5l1.8 -2.9l1.5 -2.4l-36 0.1l-19.7 0l-1.7 0l0 10.7l-21.4 0l0 13.1l-3.3 0.1l-3.1 -0.4l-2.2 -1.3l-1.8 0.2z"/><path data-id="30015" d="m386.4 109.3l0 18.1l0 35.9l36 -0.1l-0.6 2.1l-1.8 2.8l-2.6 3.9l-1.1 3.5l1.6 2l2.3 1.2l2.7 0.1l0.4 1l2.3 2l2.5 0.6l1.5 -1.2l2.2 3.3l7.9 -0.1l-0.1 9.8l10.7 0l0.1 3.7l35.5 0l4.5 0.2l1 -1.6l5.7 -2.5l4 -3.8l2.3 0.5l2.3 -1.9l5 -3.7l3.6 -0.4l1.8 -1.9l-0.1 -3l0.6 -1.5l-0.4 -3.5l1 -2.4l0.4 -2.9l-0.8 -5.3l0.3 -2.6l6.8 1.1l2.7 0.1l3.8 -4l3.7 -0.6l2.2 0.9l2.3 -1.9l3.4 1.1l0 -16.4l0.4 -32.8l-5.3 0.3l-10.7 0l0 -1.8l0 -9.3l-9.9 0.3l0 -10.9l-14 0l-4.1 0l-46.8 -0.1l0 10.8l-10.9 0l-6 0l0 10.8l-48.5 0.1z"/><path data-id="30017" d="m820.8 384.8l0 10.5l44.4 0l41.9 0.1l14.5 0.1l3.6 0l0 -41.9l4.5 0l0 -21.3l-1.6 0l-0.1 -20.4l14.4 0l0 -15.8l-10.5 0l0 5.3l-10.5 0l0 3.5l-21.2 -0.1l0 -3.5l-17.5 -0.1l0 -3.5l-3.5 0l0 -7l-7 0l0 -10.6l-3.5 0l0 -10.6l-17.9 0l0 -3.5l-21.1 0.1l0 1.8l0 1.8l-2.9 0l0 25.1l0 17.1l-2.9 0l0 31.3l0.1 10.5l-3.2 0l0 31.3z"/><path data-id="30019" d="m824.1 11.5l0 11l10.9 0l0 32.9l18.1 0l69.2 0l0 -10.9l-5.4 0l0 -32.9l-1.6 0l0 -11.2l-14.4 0l-15.8 0l-17.7 0l-15.4 0l-19.3 0l-5.1 0l0 11.3l-3.3 0z"/><path data-id="30021" d="m886.1 184.1l0 42.8l6.8 0l0 25l10.7 0l0 7.1l10.6 0l0 1.7l1.7 0l0 1.8l1.8 0l0 3.5l35.3 0.1l8.9 0l0.9 -1.8l1.8 0l0.9 -1.8l1.8 0l0 -1.8l1.8 0l0.9 -3.5l2.6 -1.8l0.9 -3.5l2.7 -3.6l0 -4.4l1.8 0l0 -11.6l-0.9 -5.3l-1.3 -1.8l0 -2.7l-0.9 -3.5l-2.7 -3.5l-1.1 0l0 -1.8l-2.7 -1.8l-0.9 -1.8l-1.7 -0.2l2.4 -3.2l0.2 -1.2l-7.7 0l0 -21.5l-6.7 0l0 -10.7l-32 0l0 -10.8l-21.4 0l0 -10.8l-10.7 0l0 32.2l-3.6 0z"/><path data-id="30023" d="m210.9 377.2l1.8 0.5l2.3 6l2.2 3.6l1 3l-0.4 2.9l3.3 4.8l1.4 0.8l1.2 0.2l-0.1 -1.6l1.5 -4.1l0.9 -1l2.3 0.8l0.8 -1.5l1.9 0.1l2.1 -2.6l1.8 -3.2l2.7 -1l1.6 -1.3l6.5 0.4l1.2 2.5l2.1 -1.1l3.1 -0.2l0.8 -1.4l4.1 -2.7l0.4 -2l2.6 -0.5l-0.8 -4.9l0 -3l1.3 -1.4l3.3 0.8l1.3 -1.5l-0.2 -2.1l1.4 -2.4l6.2 0l0 -2.3l0 -8.2l8 0l2.1 -2.1l1.3 -2.6l2.1 1.1l3.2 -1.6l0.3 -3.9l-2 -3l1.5 -0.6l1.8 -2.9l-39.8 -0.1l0 5.2l-20.6 0.1l0 10.5l0.9 9.2l-0.3 1.7l-4.8 4.8l-2.2 -0.2l-1.3 -1.4l-1.5 0.5l-0.2 1.7l-1.3 1.3l-2.1 1l-1.4 -0.3l-0.8 1.9l-1 3.4l-1.6 -1l-1.5 1z"/><path data-id="30025" d="m927.8 311.9l0.1 20.4l1.6 0l0 21.3l30.8 0l0 9.8l10.4 0l0 10.1l5.2 0l16.1 0.2l0 10.4l7.6 0l-0.1 -7.6l-0.1 -6.6l0.1 -14.8l0 -18.8l0 -5.3l0 -2.1l0 -3l-0.1 -2.1l0.1 -15.2l0 -3.8l0 -12.2l-25.8 0l0 -3.5l-5.3 0l0 -1.8l-15.7 0l0 3.5l-10.5 0l0 5.3l0 15.8l-14.4 0z"/><path data-id="30027" d="m485.9 198l0 7.1l7.1 0l0 10.7l10.6 0l0 5.3l10.6 0l0 5.3l9.6 0l0.1 35.4l-1.8 0l0 1.8l-1.3 0l-0.4 1.8l-0.1 4.4l-3.1 0l0 2.6l3 0.9l0.9 2.7l2.6 0l0 4.4l0.9 6.1l29.7 0.1l0 -7l31.6 0.1l31.5 0.2l0.1 -10.6l1.6 0l0.2 -31.9l-10.6 0l0.1 -10.4l1.4 0l0 -10.7l10.7 0l0 -4.5l10.5 0l10.6 -0.1l1.8 -0.9l0 -26.6l0.2 -6.5l-1.6 0.4l-0.3 1.6l-1.2 0l-0.5 -1.6l-1.8 0.3l-0.7 -1.8l-1.5 -0.4l-0.7 1.3l-1.4 -0.4l0.3 -1.9l-1.4 -1.3l-1.2 -0.1l-1.5 2.2l-2.9 -0.4l0.1 -1l-1.5 -1.4l-1 0.9l-2.8 0.6l-3.2 -1.8l-1.7 0.6l-3.3 0l-1.4 -1.5l-1.8 -0.2l-1.6 -2.1l-2.2 0.7l-1.3 -0.2l-1.5 -2.2l0.5 -2.4l-3.3 -3.5l-5.6 -3l-2.4 -0.1l-2 0.8l-0.5 -1l2.5 -2.4l-2.1 -2l0.2 -2.3l-1.4 -0.1l-1.5 -1.2l-1.9 -0.1l-2.5 1.3l-3 -1.1l-5.6 2.5l-2.3 0.2l-2.5 -1.4l-3.3 -0.5l-3.7 0.2l-0.6 2l-1.6 0.8l-1 1.5l-3.1 0.9l-6.3 3.8l-3.2 -0.6l-1.9 -0.7l-2 -1.7l-2.3 0.7l-3.4 -1.1l-2.3 1.9l-2.2 -0.9l-3.7 0.6l-3.8 4l-2.7 -0.1l-6.8 -1.1l-0.3 2.6l0.8 5.3l-0.4 2.9l-1 2.4l0.4 3.5l-0.6 1.5l0.1 3l-1.8 1.9l-3.6 0.4l-5 3.7l-2.3 1.9l-2.3 -0.5l-4 3l-5.7 3.3l-1 1.6l-4.5 -0.2z"/><path data-id="30029" d="m85.7 97.6l0 10.8l0.8 15.1l0 1.8l1.8 0l0 16.2l10.7 0l3.5 -0.4l17.8 0l0 10.6l10.6 0l0 -10.6l-1.2 0l0 -10.8l10.3 0l21.5 -0.1l6 0l-0.5 -4.2l-1.1 -0.4l-0.3 1.2l-1.4 -4.1l2.3 0l0 -1.8l1.8 0l-0.1 -1.8l12 0l1 1.1l0.6 3.6l1.9 4.4l3.2 -0.2l2.6 2.8l0.2 1.3l1.5 -0.4l2.8 4.3l1.6 0l2.2 2.5l0.6 1.7l-0.8 2.2l0.8 3.1l-0.3 3.5l-1 0.9l0.9 2.7l1.5 1.2l0.2 2.2l-1.2 1.2l0.4 1.3l1.6 1.9l3.1 -0.2l0.4 3l-0.6 4.2l-1.4 0.6l-0.2 4.5l-0.7 2.7l14 0l11.7 0.6l15.1 0l-0.2 -1.5l0.9 -1.6l-0.7 -2.1l1 -0.2l0.3 -2.7l-1.5 -1.9l-1.6 -5.4l0.1 -1.3l2.2 -2l1.4 0.5l2.3 -0.2l1.1 -0.8l-0.1 -2.9l1.4 -0.4l0.5 -3.9l-0.8 -2.6l0.9 -1.7l0 -3.5l-0.4 -1.8l-2.5 -1.3l0.5 -2.7l1.9 -0.9l3.4 -0.2l0.7 -1.8l2.4 -1.5l2.8 1.2l3.3 -0.2l1.7 -3.7l1.1 0.1l-2.4 -6.7l-2.4 -0.7l-1.2 -1.9l1.1 -0.7l-2.2 -2.4l-1.5 0.1l0.3 -1.8l-1.3 -1.2l0.9 -2.4l-1.4 -1.6l-1.2 0l-1.3 -0.3l-1.8 1.5l-0.1 -2.4l-0.9 -1.1l-2.2 1.7l-3.7 -0.2l-1.5 -1.6l-1.2 -1.8l-2 -1.2l-1.5 1.4l-1.9 -0.8l-0.5 -5.9l0.9 -2l-0.8 -1.6l-2.6 -1.6l-1.8 -0.7l-0.7 -2.4l-2.1 -0.4l-2.1 -1.9l-0.6 -1.7l-1.6 -1l0 -1l-0.9 -1l1.3 -1.6l1.1 -0.7l1.5 -1.4l0.3 -1l-0.1 -1.5l-1 -1.5l0 -1l-0.5 -1.5l-1.9 0.3l-1 0.3l-1.8 -0.4l-1.1 -1.3l-1.3 -0.8l-1.5 -1.1l-1.1 -0.7l-0.6 -1.3l1 -1.6l-0.2 -1l0.1 -1.7l-0.5 -1.7l0.1 -1l0 -1l0.3 -1.1l0.1 -1.5l-1.7 -0.8l-1.9 -1l-0.3 -1l-1.4 -1l-1.3 -0.9l-1.5 0.4l-1.4 -0.3l-1.1 0.9l-1.5 -0.3l-0.3 -1l-1.2 -1.3l-1.3 0.2l-1 1.1l-1.5 -0.5l-1.2 -0.2l-1.2 -0.1l-1.4 -0.8l-1.4 -1.1l-1 -0.7l0.3 -1.1l0.2 -1.8l0.1 -1.9l0.8 -1.5l0.5 -1l-0.6 -1.3l-0.2 -1l1.9 -0.6l0.8 -1.3l0.5 -1.3l-0.5 -1.3l-0.3 -1.5l-1.4 -0.9l-1.1 -1.4l-0.2 -1.1l-1 -0.6l-0.9 -1.5l-0.5 -1l0.2 -1.6l0.7 -1l0 -1.2l-1.2 -0.7l-0.9 -1.3l-0.8 -1l-1.2 0.8l-0.6 -1l-1 -0.4l-1.4 -0.6l-1.4 0.8l-0.9 1.1l-1.4 -0.6l-1.3 -0.4l-1 1.7l-1.5 1.1l-1 0.9l-1 -0.5l-1.2 -0.2l-1.4 -0.6l0.1 -1.2l0.1 -1.6l-0.9 -1.1l-1.1 -0.6l-1.1 -1.7l-2 -1.2l1.8 -1.2l1.2 -0.8l0.2 -1.8l-0.7 -1.6l-1.1 -0.1l-0.5 -1.1l0.3 -1l1.3 -1.7l-1.6 0l-1.1 -1.3l0 -1.3l-0.8 -1.7l-13.9 -0.5l-6.5 -0.1l-10.7 0l-13.7 0l-10.3 0l-1 1.2l0.4 1.1l3.2 0.3l1 0.8l-1 2.5l-1.8 1.9l1.2 3.6l-0.6 2.5l1.4 2.1l0.2 4.1l-2.6 1.3l-0.8 2.7l1.5 1l3.6 0.3l-0.1 1.3l2.1 1.3l1.1 2.6l1.9 0.9l-0.6 1.2l-2 1.2l-3 1l-1.1 2l0.9 1.8l-0.9 2l3 1.1l1.4 1.5l-20.8 0l0 10.7l3.2 0l0.1 21.9l0 21.7l-14.3 0z"/><path data-id="30031" d="m353.4 394.1l0 1.4l3.5 0l0 1.7l3.4 0l0 3.5l5.2 0l0 1.7l1.7 0l0 1.7l1.7 0l0 1.7l1.7 0l0 1.8l1.7 0l0 1.7l1.7 0l0 1.7l1.7 0l0 1.7l15.4 0l0.1 34.6l-1.9 0l0.1 51.8l-0.4 18.9l0.9 1l0.9 1.8l1.6 -0.6l1 1l1.5 2l3.1 4.6l-0.7 1.5l0.6 1l1.4 -0.4l2.4 3.2l-1.1 1.7l0.5 2.6l0.5 1.2l1.9 0.1l1.2 0.5l0.5 1.9l2.2 1.4l1.9 1.1l-0.5 1.9l0.9 2l1.6 1.4l3.4 0.8l1.3 0.3l-0.2 -17.1l0 -4.8l0 -6.9l-0.1 -2.9l0 -13.7l0.1 -7.9l0.1 -8l1.3 -20.6l0 -20.7l10 0l-0.1 -20.6l5.1 0l0.1 -7.8l5.2 0l0 -2.7l0 -10.5l0 -4.9l0 -5.2l0.6 -17.3l-0.3 -6.9l0.7 -18.4l0 -6.1l-17.4 0l-5.7 0l-7.3 0l-3.7 0.6l-6 0l-3.4 0l-3.4 4.2l-0.2 3l-0.5 1l-1.1 0.6l-0.9 1.1l-1 -0.3l0 1.6l-1.3 1.5l-0.7 1.3l-0.7 1.2l0.1 1.2l0 2.1l-0.2 1.2l0.4 1l0.4 1.6l-1.3 1l-1.1 0.1l-1.4 -0.3l-0.2 1.5l0 2.1l-0.4 1.2l-1.3 1.3l-1 1.2l-0.8 1l-1.1 0l-1.1 0.6l-0.9 1.1l-1.1 -0.1l-1.4 0.3l-1.3 0.4l-0.9 1.3l-0.9 1l-0.3 1.5l-0.9 1.1l-1.1 0.5l-0.2 1l-1.1 0.5l-0.4 1.5l-4.1 4.8l-1.9 0.3l-2.4 -1.3l-2.4 1.3l-1.7 -0.6z"/><path data-id="30033" d="m673 218.1l1.1 0.8l-0.7 1.2l0.3 1l1 0.6l0.7 1.2l-0.1 1l-0.8 1.2l1.3 0.6l-0.3 1.4l1 -0.3l-0.4 1.1l-1 0.2l0.2 1.1l-1.3 0.2l1 1.5l-1 0.9l1.1 0.1l-0.4 1l-0.8 1l1.3 0.5l0.7 1l-1 0.3l0.9 1.4l-0.3 1.4l0.4 1.1l1.1 0.9l-0.1 1.2l-0.2 1l-0.2 1l1.2 0.7l0.4 1.1l-1.2 1.1l0.6 1l1.2 -0.7l0.7 1.4l0.8 1.1l-0.2 1.1l-0.5 1l-0.7 1l-0.3 1.3l0.1 1.1l-0.7 1.2l0.6 1l-1 -0.1l0.1 1l-0.3 1.4l-0.6 1.1l-0.3 1.1l-0.8 1l0 1.4l1 0.2l0.6 1l1.1 0.6l2.77556e-17 1.1l1.2 0.6l35.3 0l0 -1l62.2 0l0 1.8l52.8 -0.1l0 -1.8l0 -39.2l-7 0l0 -21.3l-10.6 0l0 -21.5l3.1 0l0 -42l-8.1 0l0 -11l-5 0l-1.2 -0.9l0.4 -1.4l-1.5 -0.8l-0.4 1.5l-4.1 1.5l-0.6 1.5l1.7 1.7l-0.8 2.2l-2.7 1.4l1.7 1.5l0 1.5l-1.7 -0.2l-1.1 0.7l1.3 1.7l-0.2 1.4l-2.8 1.2l0.5 1.5l-1.1 1.9l-3.3 1l0.6 2.5l-1.6 -0.8l-2.6 0.1l-0.7 2.3l-1.3 -0.5l-2.9 0.5l0 2.1l-1.9 2.6l-2.1 0.3l-2.1 -1.4l-4 -0.1l-2.3 0.7l-1.5 2.4l0.8 2l-0.9 3l-1 0.4l-2.7 0.7l-1.6 -0.8l-1.3 0.5l-3.2 -0.2l-1 1.3l-4.9 0.1l-3.6 -0.8l-3.7 0.2l-1.4 0.7l-6.2 0l-2.9 -2.3l-4 0l-2.4 -1.3l-4.6 -0.1l-1.1 1.8l0.7 1.9l-1.6 1.9l-0.1 2.6l-1 0.4l-4 -0.2l-1.8 -2.3l-2.7 -0.4l-1.2 0.4l-2.2 -0.8l-1.4 0.3l-0.5 2l-1.7 -2.1l-1.4 -0.5l0.6 2.9l-1.3 1.1l-0.8 -1.1l-2 0l-1.2 3.6l-1.8 1.8l-0.1 1.7l-2.6 1l0.1 1.9l-1.3 0.5l-1.2 -1.2l-2 0.9l-1.9 1.5l-0.2 1.2l-1.9 1.4l1.2 2.7l-1.3 1.2l0.2 3.3l-3.8 0.7l-0.4 1l0.1 1l0.2 1.4l-0.6 1l0.7 1.2l-1.3 1.5l-0.5 1l-0.6 1l-0.8 1.3l-0.9 1.3l0.8 1.3l-0.8 1.3l0.5 1.2l1.2 0l-1.1 1.8l0.6 1l-1 1l1.1 0.4l-1 0.7l0.6 1.3l-0.4 1.2l-0.7 1z"/><path data-id="30035" d="m165 0.3l0.5 1.2l0.3 1.4l0.6 1.8l1.4 0l0.3 1.2l-1 1.7l-0.1 1l1.7 0.2l0.7 1.6l0.2 1l-1.6 1.6l-1.1 0.4l0.4 1.3l1.3 1.5l1.4 1l0.9 1l0.6 1.6l-1 1.2l1.4 0.9l1.2 0.7l1.6 0.3l1 -0.9l1.5 -1.1l0.5 -1.1l1.8 -0.2l1 0.7l1.3 -1.2l1.4 -0.8l1.4 0.6l1 0.4l0.6 1l1.2 -0.8l0.8 1l0.9 1.3l1.2 0.7l0 1.2l-0.7 1l-0.2 1.6l0.5 1l0.9 1.5l1 0.6l0.2 1.1l1.1 1.4l1.4 0.9l0.3 1.5l0.5 1.3l-0.5 1.3l-0.8 1.3l-1 0.3l-0.7 1.3l0.6 1.3l-0.5 1l-0.8 1.5l-0.2 1l0 1.8l-0.5 1.3l0.5 1.1l1.1 0.6l1.5 1.1l2 0.6l1.2 0.2l1.5 0.5l1 -1.1l1.3 -0.2l1.2 1.3l0.3 1l1.5 0.3l1.1 -0.9l1.4 0.3l1 -0.2l1.1 0.3l1.6 0.9l0.8 1.5l1 0.6l1.9 0.5l0.6 1.4l-0.3 1.9l0 1l-0.1 1l0.4 1.2l-0.2 1.4l0.4 1.8l-1 1.6l0.2 1l1.5 1l1.2 0.5l0.8 1.1l1.4 0.9l1.4 0.9l1.9 -0.1l1 -0.5l1.3 1l0.1 1.7l1 1.5l0.1 1.5l-0.3 1l-1.5 1.4l-1.1 0.7l-1 1.2l0.6 1.4l0 1l1.5 1l64.5 0.8l0.3 -8.3l0 -13.5l29 0l1.8 0.8l1.9 -0.1l-0.4 -11.2l0 -9.1l0 -34.8l-0.4 -10.7l-18 0l-13.2 0l-15.8 0l-13.4 0l-16.3 0l-20.1 0.1l-12.5 0l-21.9 0l-24.8 -0.1z"/><path data-id="30037" d="m532.5 343.6l0 10.5l4.1 0l-0.1 10.5l15.7 0l0.1 -10.5l40.9 0l12.1 0l0 -17.4l-1.7 0l0 -3.5l-1.7 0l0 -1.8l-0.9 -3.5l-0.9 -1.7l-1.7 0l0.1 -10.5l-1.7 0l0.1 -4.6l-2.1 0l0 -10.5l-7 -0.1l0 -5.3l-1.8 0l0 -15.7l-31.6 -0.1l0 7l0.1 24.6l-1.2 0l0.1 32.7l-20.9 0z"/><path data-id="30039" d="m180.8 309.4l1 1.3l1.4 6.2l-0.7 2.6l3.1 1.5l0.3 1l1.3 1.6l0.3 1.2l0.9 1l0 1.7l0.1 1.3l0.1 1.1l0.8 1.6l-0.5 1.5l-0.4 1.3l0.1 1.3l1.6 1l1 0.4l0.2 1.2l-0.9 2l-1.2 1.1l0 1.2l-1.2 0.6l-1.3 0.6l-1.2 1.1l0.3 1.5l1 0.5l1.4 1.1l-0.2 1.6l0 1.1l-0.3 1.1l1.1 0.9l0.5 1l0.7 1.2l1 1.3l-0.7 1.2l-0.8 1.6l-0.5 1l-0.7 1.3l-0.5 1.1l-0.2 1l-0.6 1.4l1.6 1.3l1.1 0.4l1.1 -1.1l0.4 -1l1 -0.1l0.8 1.1l1 -0.1l1.9 0.2l0.6 1.1l1 0.7l0.3 1.1l0.2 1.1l0.2 1.5l0.5 1.5l1 1.5l1.2 0.1l1.3 -0.4l0.6 1.5l0.8 1l1.1 0.2l1.2 1l1 -0.5l1 -0.5l1.5 0.2l1.2 0.6l1.5 -1l1.6 1l1.7 -2.7l0.1 -2.6l1.4 0.3l2.1 -1l1.3 -1.3l0.2 -1.7l1.5 -0.5l1.3 1.4l2.2 0.2l4.8 -4.8l0.3 -1.7l0 -9.2l-0.9 -10.5l20.6 -0.1l0 -5.2l0 -15.7l-0.1 -10.5l-0.1 -30.5l-1.9 0.5l-1.4 1.3l-3.1 0.9l-1.4 -1.5l-2.8 -0.9l-1.3 -1.5l0.8 -1.1l-3.2 -3.1l-1.4 -0.5l-1.2 -2.2l0 -1.5l-2 -1.5l-0.8 1.6l-1.3 0.7l0 -3.1l-10.4 0l0 3.6l-5.2 0l0 7.1l-5.4 0l-0.5 2l0 1.4l-9.7 0l0 7l-10.5 0l-2.8 -0.3l0.8 2.9l1.2 0.9l-1.1 1.8l0.4 3.1l-2 0.6l0.5 1.6l-1.4 2.9l-0.3 3.6l-2.4 1.6z"/><path data-id="30041" d="m441.3 54.9l-0.5 43.5l10.9 0l0 -10.8l46.8 0.1l4.1 0l14 0l0 10.9l9.9 -0.3l0 9.3l0 1.8l10.7 0l5.3 -0.3l0 -10.8l-1.5 0l0 -9l2.7 0l0 -12.7l1.8 0l0 -7.3l2.7 0l0 -9.1l-2.7 0l0 -4.7l-0.7 -44.3l1.3 0l0 -10.9l-15 0l-30.1 0.1l-27.7 0.1l-9.6 0l-4.3 0l-3.8 0l-13.8 0l0 10.7l-0.6 43.9z"/><path data-id="30043" d="m288.9 340.9l-1.5 0.6l2 3l-0.3 3.9l2.7 0.5l1.6 -1.2l1.7 0.1l-1 2.2l0.4 1l-0.6 2.6l2 3.3l2.5 1.9l0.4 2.1l-1.3 2.9l0.4 1.5l1.1 0.3l1.2 0.4l0.8 2.4l-0.7 2l1.2 4.6l-0.5 2.2l1.6 2.3l-0.4 1.3l1.4 2.6l-2.2 4.1l0.3 1.2l1 0.8l12.3 6l1.1 1.9l3.2 0.5l2 2l1.8 -0.2l2.7 -2.6l-0.1 -1.1l2.1 -2.9l0.5 -4.2l3 -1.4l1.6 0.4l2.2 -1.1l3.2 1.5l1.6 -0.8l3 -0.4l1.4 3.2l2.3 -0.1l1 1.5l2.4 -0.4l3 1.4l0.2 1.4l1.7 0.6l2.4 -1.3l2.4 1.3l1.9 -0.3l3.7 -4.5l0 -10.3l0 -15.5l-10.3 -0.1l-0.2 -10.4l-0.1 -52.3l-2.5 0l-16.8 0.1l-1.2 0.3l0 2.8l-0.9 1.1l-3.3 2.1l-3.1 0.2l-1.2 -0.9l-1.4 1.2l-2.7 1.3l-1.8 0.2l0.2 2.4l1.9 1l0.3 1.8l-1 0.7l-2.2 0l-0.4 1.7l-1.9 1.6l-2.1 0.9l-1.6 -0.8l-2 0.1l-2.2 2.1l-1 2.2l-4.5 -0.1l-1.9 2.1l0 1.4l-2.1 0.9l-0.2 2.5l-1.5 -1.4l-2.2 -0.2l-0.4 1.4l-2.4 -0.1l-3.1 3.2l1 4.7l-1.8 2.9z"/><path data-id="30045" d="m438.1 211.3l0 7.2l0.9 1.8l0.9 6.2l-0.3 10.7l10.4 0.1l0 10.4l0.3 10.6l0.4 10.6l-1.4 0l0 1.6l0.3 2.7l2.4 3.6l4.7 0.1l0.5 1.5l-0.5 2.5l1.2 0.7l2.1 2.5l1.5 0l0.7 1.2l1.2 0.1l1.4 2.8l2.4 -0.9l1.3 1l1.9 -1.2l2 -0.6l2.1 1.3l0.4 1.2l1.3 -0.1l0.3 -1.5l1.9 -0.4l2.4 -2.7l5.2 0.2l1.6 -2.1l2.8 1.1l2.5 -0.3l1 -2.4l2.5 -1l2.9 -0.3l1.9 1.6l5 -2l2.8 1.8l3.4 1.4l3.2 2.1l1.1 -0.3l2.1 2.1l6.2 -0.1l0 -6.1l-0.9 -4.4l-2.6 0l0 -1.8l-3.5 -0.9l-0.4 -3.5l3.1 0l0.1 -4.4l0.4 -1.8l1.3 0l0 -1.8l1.8 0l-0.1 -35.4l-9.6 0l0 -5.3l-10.6 0l0 -5.3l-10.6 0l0 -10.7l-7.1 0l0 -7.1l-35.5 0l0.1 7.1l-10.7 0l0 7.6l-0.4 -1.3l-1.3 0z"/><path data-id="30047" d="m120.3 151.9l0 5.4l1.7 0l0.1 17.9l19.4 -0.1l0.8 1.6l1.6 -0.8l-1.5 1.3l0 1.9l0.8 1.5l-2.8 2l-0.1 2.5l-1.6 4.6l1.1 0.3l1.7 -1.9l4.3 0.1l1.2 3.4l-1.7 0.8l-1.8 -0.6l0 1.9l-1.2 1.4l-0.2 4l-0.8 2.2l2.4 3l-0.1 1.1l1.7 -0.7l1.4 0.8l7.1 0l0 21.3l1.3 0l0 5.4l21.1 0l0 -5.3l9.3 0l-0.2 -10.7l-1.6 -0.4l-1 -1.6l-1.3 -0.4l-1 -2.4l-1.5 -0.4l1.1 -0.8l0.4 -2.5l-0.6 -2l1 -1.9l0.5 -2.7l-1.7 -3.1l0 -1.8l-1.1 -2l-2.4 -1.2l0.3 -1l-1.9 -1.2l1.3 -2.7l1.8 -0.4l0.5 -1.7l-1.6 -0.8l-0.1 -2.3l0.8 -1.2l-1.1 -3.4l0.2 -2.6l-1.5 -0.2l26.2 0l0.7 -2.7l0.2 -4.5l1.4 -0.6l0.6 -4.2l-0.4 -3l-3.1 0.2l-1.6 -1.9l-0.4 -1.3l1.2 -1.2l-0.2 -2.2l-1.5 -1.2l-0.9 -2.7l1 -0.9l0.3 -3.5l-0.8 -3.1l0.8 -2.2l-0.6 -1.7l-2.2 -2.5l-1.6 0l-2.1 -4.2l-1.5 -0.2l-1 0.1l-2.5 -3.7l-3.2 0.2l-1.9 -4.4l-0.6 -3.6l-1 -1.1l-12 0l0.1 1.8l-1.8 0l0 1.8l-2.3 0l1.4 4.1l0.3 -1.2l1.1 0.4l0.5 4.2l-6 0l-21.5 0.1l-10.3 0l0 10.8l1.2 0l0 10.6l-10.6 0z"/><path data-id="30049" d="m240.3 159.3l-0.1 1.3l1.6 5.4l1.5 1.9l-0.3 2.7l-1 0.2l0.7 2.1l-0.9 1.6l0.2 1.5l2.2 3.1l-0.6 1.5l0.1 5.2l0.7 3.1l1.9 1.2l2.7 -1l0 37.9l21.9 0.3l0 29l0 13.1l10.6 0l11 -0.3l0 16.4l10.4 0l0 5.3l7.5 0l1.9 4.6l0.4 1.6l-2 3.7l0.7 3l1.2 2.2l0 1.6l-1.1 0.9l0.4 2.5l-0.2 4.8l-1.4 0.8l-0.2 1.2l1.1 1.5l2 -0.1l1.6 0.8l2.1 -0.9l1.9 -1.6l0.4 -1.7l2.2 0l1 -0.7l-0.3 -1.8l-1.9 -1l-0.2 -2.4l1.8 -0.2l2.7 -1.3l1.4 -1.2l1.2 0.9l3.1 -0.2l3.3 -2.1l0.9 -1.1l0 -2.8l1.2 -0.3l16.8 -0.1l2.5 0l13 -0.1l-0.7 -1.5l0.1 -18.9l1.2 -1l1.9 -3.9l1.3 -0.4l1.6 0.6l0.5 1.3l1.4 -0.3l3 1.2l1.1 -3.8l-2.3 -3.3l-0.7 1.5l-3.4 -0.7l-2.1 0.3l-2.4 -3l-1 0l-0.5 -1.4l0.6 -2.6l2.5 -1.6l0 -1.7l-1.3 -1.3l-2.9 -1.3l-11 0l0.1 -26.3l-7.1 0l-1.3 0.9l-0.4 -1.7l-2 0l-1.8 -1l-1.6 -3.1l-1.5 -0.6l0.1 -1.3l-2.7 0.6l0.1 -1.4l-1.5 -1l-1.5 0.8l-0.2 -39.7l-1.2 -0.1l-1 0.6l-1 -0.4l-1.3 0.5l-1.1 0.5l-1.2 -0.5l-1.2 -0.4l-1.5 0.6l-1.1 -0.3l-1.2 0.7l-1.3 0.6l-1.5 -0.6l-1.6 0.1l-1.7 -0.2l-1.4 0.2l-0.6 -1.2l-1.2 -1.2l-0.8 -1.2l-1.2 -0.9l-1.5 0.2l0.1 -1l-1.3 0l-1 0.3l-1.4 -0.7l-1.4 -0.1l0 -1l-0.3 -1.3l-0.1 -1l-0.7 -1.2l-0.3 -1.4l-1 -0.8l-1.2 -0.2l-1.4 -0.4l-1.6 -0.5l-1.1 -0.1l-1.3 -0.7l-0.7 -1.4l0 -1l-1 -0.1l-1 -0.6l-1.1 0.2l-0.9 1.2l-1.4 0.3l-1.3 0.1l-1.1 -0.4l-1.1 0.7l-1 0.4l-1.1 0.7l-1.2 0.4l-1.2 -5.55112e-17l-1 -0.1l-1.6 0.1l-1.4 0.2l-1 1l-1.1 0.3l-1.2 1l-1.9 -0.4l-0.9 -1l-1.5 0.3l-1.3 -1.4l-0.9 -1l-1.1 -1.2l-0.7 -1l-0.8 -1.6l-1.2 -1.8l-0.9 -1.1l-0.6 -1.2l0 -1.1l0.5 -2l0.1 -1l-0.4 -1.3l-0.9 -2l-0.6 -1l0.4 -1.1l0 -1.8l0.2 -1.4l0.2 -1.1l0 -1.7l0 -1.8l-0.7 -1.4l-0.2 -1.1l0 -1l-1.3 -1.3l-0.5 -1.8l-0.1 -1.6l-0.4 -1.2l-1.5 -1l-0.1 -1.3l-0.3 -2l-0.3 -1.3l-2.5 1.3l-0.7 1.8l-3.4 0.2l-1.9 0.9l-0.5 2.7l2.5 1.3l0.4 1.8l0 3.5l-0.9 1.7l0.8 2.6l-0.5 3.9l-1.4 0.4l0.1 2.9l-1.1 0.8l-2.3 0.2l-1.4 -0.5l-2.2 2z"/><path data-id="30051" d="m386.4 98.4l0 10.9l48.5 -0.1l0 -10.8l6 0l0.5 -43.5l0.6 -43.9l0 -10.7l-12 0.1l-9.8 0.1l-22.1 0l0 10.2l-0.5 44.3l0 43.5l-11.1 0z"/><path data-id="30053" d="m0.1 65.7l-0.1 8.5l0.1 13l-0.1 4.4l0 3.1l-0.1 1.5l0 2.7l2.7 1.2l-0.1 4.6l1.1 1.5l2.9 0.4l1.1 0.7l1.7 -4.4l2.4 0.2l0.6 -1.4l3.7 -2.1l2 -0.1l2.6 -1.5l1.5 -2.1l0.9 -2.4l2.3 -0.4l2 1.2l1.7 1.8l0.4 1.7l1.1 1.6l0.4 1.2l0 1l-1.4 1.5l-0.3 1.9l1.5 0.6l0.7 1.2l0.8 1.3l0.9 1.4l-0.2 1.1l0.7 1.3l0.2 1.6l0.3 1.2l-0.4 1.1l1 1.2l1.4 1.2l0 1l0.2 1l0.6 1.4l1.1 1.3l1.2 0.6l1.3 1l0.7 1.2l0.4 1.7l0.1 1.2l-0.5 1.7l-0.1 1l-0.7 1.5l0.6 1.4l0.7 1.5l1.2 1l1.9 0.4l1.4 -0.8l1.5 -2.77556e-17l1.9 -1.11022e-16l1 0.4l0.7 -1.6l0.3 -1l1.4 -0.2l0.3 1.7l0.9 1.5l2.1 0.2l1.7 -0.8l1.9 -0.7l1.2 0.7l1.1 1.2l0.8 1.3l1.1 -2.77556e-17l0.9 -1.2l1.1 -1.2l1.4 0.4l1.1 -0.3l1.2 -0.9l1.1 0.2l0.9 -1.6l0.1 -1.1l0 -1l-0.3 -1.4l0.8 -1.5l1 0.4l1.1 0.5l0.2 -1.5l0.4 -1.5l-0.7 -1l0 -1l-0.3 -1.1l3 -0.8l2.6 0l3.7 0l1.6 0l0.9 -15.1l-0.8 -10.8l14.3 0l0 -21.7l-0.1 -21.9l-3.2 0l0 -10.7l20.8 0l-1.4 -1.5l-3 -1.1l0.9 -2l-0.9 -1.8l1.1 -2l3 -1l2 -1.2l0.6 -1.2l-1.9 -0.9l-1.1 -2.6l-2.1 -1.3l0.1 -1.3l-3.6 -0.3l-1.5 -1l0.8 -2.7l2.6 -1.3l-0.2 -4.1l-1.4 -2.1l0.6 -2.5l-1.2 -3.6l1.8 -1.9l1 -2.5l-1 -0.8l-3.2 -0.3l-0.4 -1.1l1 -1.2l-17 0.1l-16.5 0.1l-43.3 -0.1l-18.8 0l-14.4 0l0 61.3l0 1.7l0 2.6z"/><path data-id="30055" d="m802 120.5l-1 3.1l1.3 5.7l-0.4 1.9l5 0l0 11l8.1 0l0 42l-3.1 0l0 21.5l10.6 0l0 21.3l7 0l10.6 0l0 10.8l10.6 0l0 -10.8l35.5 -0.1l0 -42.8l3.6 0l0 -32.2l10.7 0l0 -9.6l3.3 0l0 -24.7l-1.9 0.4l-0.1 -2.2l-0.8 -1l-2.8 0l-4.6 1.3l-1.1 -1.7l-2.8 0.5l-1.6 -0.5l-5.8 0.4l-2.6 -0.2l-1.6 -0.9l-1.3 1.2l-1 2.5l-3.1 -1.9l-2.2 0.2l-1.9 1.1l-2.5 -0.5l0.7 1.4l-0.3 1.9l-1.5 0.7l-0.4 -1.4l-2.4 0.4l-2.2 2.7l-2.5 0.8l-1.2 -0.7l-1 -2.1l-0.7 3.1l-1.9 -0.3l-2.9 1.8l-2.8 -1.4l-0.6 -1.6l-1.2 0l0.2 2.5l-1.9 1.3l-1.3 -1.2l-3.3 -0.3l-2.6 -2.2l-1.6 0.9l1.1 1.2l-0.2 1.2l-2.5 -0.2l-1.8 -3l-1.6 -0.2l-0.8 3l-2.2 0.8l-1.9 -0.4l1.4 -1.5l0.2 -1.5l-8.6 0.5l-1.3 -0.4l-2.6 -2.1l-2.1 0.6l-1.7 -1.8l-1.4 1.2l-2.1 -0.1l-0.8 -1.9l-2.2 0.1l-1.4 2.4z"/><path data-id="30057" d="m278.5 425.7l0.5 2.3l0.6 3.6l4.4 3.4l0.9 1.7l2.5 1.3l1.8 0l3.1 -2l2.8 0.4l3.4 5.8l0 5.2l0.6 30.9l10.2 0l0 10.4l11.9 0l0 10.3l2 0l0 10.1l8.4 0.1l0 5l3.4 0.2l20.3 0.1l0 8.5l25 0l3.5 -1.4l1.2 0.7l2.1 -1.1l0.3 -2.5l0 -1l1.3 0.1l0.4 -18.9l-0.1 -51.8l1.9 0l-0.1 -34.6l-15.4 0l0 -1.7l-1.7 0l0 -1.7l-1.7 0l0 -1.7l-1.7 0l0 -1.8l-1.7 0l0 -1.7l-1.7 0l0 -1.7l-1.7 0l0 -1.7l-5.2 0l0 -3.5l-3.4 0l0 -1.7l-3.5 0l0 -1.4l-0.2 -1.4l-3 -1.4l-2.4 0.4l-1 -1.5l-2.3 0.1l-1.4 -3.2l-2.4 0.8l-2.2 0.4l-3.2 -1.5l-2.2 1.1l-1.6 -0.4l-3 1.4l-1.1 3.4l-1.5 3.7l0.1 1.1l-2.7 2.6l-1.8 0.2l-22.6 0.7l-2 -2l-1.1 -0.1l-1.4 1.6l-0.9 2.3l0.2 2.3l-2.2 2.8l-2.3 0.7l-1.9 2l-7.2 4.3l0.6 1.5l-0.6 1.4l0 3.8l-0.6 3.2l-0.9 1.1z"/><path data-id="30059" d="m365.7 259.6l2.9 1.3l1.3 1.3l0 1.7l-2.5 1.6l0.3 1.7l-0.4 2.3l1 0l2.4 3l2.1 -0.3l3.4 0.7l0.7 -1.5l2.3 3.3l-0.2 3.4l1 0.8l1 0.5l1.1 0.7l0.3 1l-0.1 1.1l0.4 1.1l-0.4 1.4l1 1.1l0.3 1.1l-0.4 1.1l1.1 0l1 0.4l0.8 1.1l0.2 1.2l0 1.8l1.3 0.1l1.4 -0.3l1.3 1.4l1.4 -0.1l1.2 0l0.4 1.1l0 1l-0.7 1.4l0.3 1.2l-0.2 1.4l0.8 1.5l0.3 1.3l-1.6 1.4l0.2 1.3l1.1 0.5l1.2 0.5l1.1 0.2l1.1 0.6l0.5 1.1l0.4 1.4l1.3 0.9l0.1 1.4l0.2 1.7l0.3 1.2l-0.2 1.8l1 0.9l1.7 0.8l2.1 0.1l1.2 -0.8l0.2 -1.1l1.2 -0.5l1.8 -0.1l1 -0.3l0.3 1l1.2 1l1.4 1.3l1.5 1.4l1.2 1.4l-0.7 1.3l-0.2 1.4l-0.4 1.3l0.1 1.5l-0.5 1l-1 0.1l-1.2 1.7l-0.9 1.5l-0.4 1.3l-0.1 1.4l-0.1 1l-0.3 1l0 1.1l1 0.8l1.2 0.9l1.3 0.8l-0.1 1.2l1.1 1l0.7 1.2l0.1 1.4l-0.1 1.6l5.7 0.4l17.4 0l31.2 0.1l10.6 0.9l0 -4.4l0 -32.5l0.7 -26.7l-2.4 2.7l-1.9 0.4l-0.3 1.5l-1.3 0.1l-0.4 -1.2l-2.1 -1.3l-2 0.6l-1.9 1.2l-1.3 -1l-2.4 0.9l-1.4 -2.8l-1.2 -0.1l-0.7 -1.2l-1.5 0l-2.1 -2.5l-1.2 -0.7l0.5 -2.5l-0.5 -1.5l-4.7 -0.1l-2.4 -3.6l0.4 -1.8l-1.5 -0.2l-1.4 -0.8l-1.5 -2.5l-1.6 0.8l-1.6 -1.3l-1.3 0.5l0 -1.8l-0.9 -2.8l-1.8 -2.3l-0.6 -1l-1.2 1l-1.7 -1.6l-2.6 -0.8l-0.2 -3l-1 0.2l-1.7 -2.6l-1.8 -1.8l-6.9 -3l-4.9 -0.5l-1.4 0.4l-2.7 -2.9l2.3 -2l-0.6 -3.3l0.3 -1.9l-6.5 -0.1l0 9.4l-10.6 0l0 1.3l-21.2 0.1l0 10.6l-9.9 0z"/><path data-id="30061" d="m24.2 197.1l1.9 -0.2l1.3 0.1l0.7 1.1l1.2 0l1.9 0.9l1.5 1.1l1.2 2.8l2.1 -0.6l3.3 1.9l0 1.2l1.7 0.5l0.5 2.3l1.8 3.9l1.7 1.2l1.9 1l1.5 -0.2l1.3 1.1l1.8 -0.3l1 1.2l1 0.8l1.9 -0.4l2.1 0.9l1.7 -0.3l1.7 1l-0.4 1.1l0.6 1.3l1.6 1.2l0.6 1.9l-0.7 2l1.1 1l2.1 0.4l0.5 1l0.2 1.4l0.9 1.4l1.8 0.2l1.5 1.1l1.4 1.2l0.7 1.5l0.5 1.2l1.1 0.5l1.3 0.2l0.1 1.7l1.1 2.4l2 2.3l1.4 0.3l1.1 2.4l0.8 3.1l0.6 1.4l0.9 2.4l1.3 -0.2l2.6 0l1.3 2.4l1.4 1.6l0.7 1.1l2.4 1.3l0.3 1.2l-0.7 1.5l0.5 1.9l-0.7 1.5l-0.8 1.2l1.5 0.6l0.2 1.4l0.1 1.2l1 1l1.3 0.3l0.1 1.8l1.5 -0.4l1.2 -0.3l0.4 1.1l1.3 1.3l1.3 1.4l1 0.2l1.8 0.5l1.1 1l1.4 1.3l-0.1 2.3l-1 1.1l-0.6 1.8l1.5 1.6l1.6 0.5l0.8 -1.7l1.2 -0.4l1.4 -1l0.8 -2.1l2 0.3l0 -1.2l10.5 0l0 -10.5l-1.4 0l0 -15.8l1.6 0l-0.1 -3.5l1.8 0l0 -2.1l1.9 0l1.4 1.2l2.9 0.7l0 -1.9l2.7 0l0 -1.8l-5.3 0l0 -5.4l-6.9 0l0 -3.4l-1.7 0l0 -3.5l-3.5 0l0 -1.8l-1.8 0l0 -3.5l-3.4 0l0 -1.8l-1.7 0l0 -5.3l-5.3 0l0 -1.8l-1.8 0l0 -3.5l-3.8 0l0 -3.6l-5.3 0l0 -1.8l-5.2 0l0 -7.5l-0.8 -2.6l-2.9 -0.7l-1.1 -1.7l-1.4 0.7l-3.6 -2.3l-3.3 0.5l-1.8 -1.2l-0.7 -1.8l-3 -1.6l-1.6 -0.2l-3 -2.2l-2.8 -0.8l-2 1.9l-3.1 0.1l-1.7 -1.6l-3.2 -0.2l-2.3 1.1l-1.2 1.3l-3.8 -1.1l-1.2 -2.5l-1.8 -0.1l0.3 1.4l-0.9 1.1l-2.8 0.6l-3.9 -0.5l-1.4 -0.6l-0.8 2.3l-2.8 0.9l-3.7 0.2l-2.4 1.2l-1 2.2z"/><path data-id="30063" d="m104.3 216.1l0 3.5l1.8 0l0 1.8l5.3 0l0 5.3l1.7 0l0 1.8l3.4 0l0 3.5l1.8 0l0 1.8l3.5 0l0 3.5l1.7 0l0 3.4l6.9 0l0 5.4l5.3 0l0 1.8l-2.7 0l0 1.9l-2.9 -0.7l-1.4 -1.2l-1.9 0l0 2.1l-1.8 0l0.1 3.5l-1.6 0l0 15.8l1.4 0l0 10.5l-10.5 0l0 1.2l1.1 0.2l1.2 0.7l1.1 1.8l1 0.9l-0.1 2.1l-1.5 1.4l0.2 1.5l1.4 1.1l0.9 1.3l0 1.2l1.3 0.4l1.2 0l1.2 -0.9l1.8 -0.7l2.2 0.9l1.5 0.1l1.5 0.9l1.3 -0.2l1 -0.9l2.4 -2.3l1.1 0.4l1.3 -0.9l2.9 -0.5l2.3 1l13.4 0l1.1 -0.1l27.5 0l2.8 0.3l10.5 0l0 -7l9.7 0l0 -1.4l0.5 -2l5.4 0l0 -7.1l5.2 0l0 -3.6l9.5 0l0 -42.4l-13.6 0.1l0 -51.8l-14 0l-26.2 0l1.5 0.2l-0.2 2.6l1.1 3.4l-0.8 1.2l0.1 2.3l1.6 0.8l-0.5 1.7l-1.8 0.4l-1.3 2.7l1.9 1.2l-0.3 1l2.4 1.2l1.1 2l0 1.8l1.7 3.1l-0.5 2.7l-1 1.9l0.6 2l-0.4 2.5l-1.1 0.8l1.5 0.4l1 2.4l1.3 0.4l1 1.6l1.6 -0.3l0.2 11.4l-9.3 0l0 5.3l-21.1 0l-2.1 1.3l-2 -0.8l-1.5 1.7l-1.1 -0.1l-1.3 -0.4l-1.8 -1.5l-2.5 -1.1l-1.9 -1.6l0.8 -2.2l-0.6 -1.8l-4.1 -0.7l-1.7 -1.6l-2.5 0.3l-1.2 -1.4l-1.9 -0.1l-4.3 -2.4l-1.8 -1.8l-2.5 -0.3l-3.6 -1.1l-4.2 -1l-1.8 2.4l-3.6 -1.1l-3.8 -0.6z"/><path data-id="30065" d="m586.2 279.4l0 15.7l1.8 0l0 5.3l7 0.1l0 10.5l2.1 0l-0.1 4.6l1.7 0l-0.1 10.5l1.7 0l0 1.7l0.9 3.5l0.9 1.8l1.7 0l0 3.5l1.7 0l0 17.4l31.2 -0.1l0 -12.4l3.5 0l0 -1.7l3.5 0l0 -1.7l24.3 0l0 -5.3l1.5 0l0 -3.5l1.8 0l0 -1.7l1.8 0l0 -1.7l1.7 0l0 -1.8l1.7 0l0 -1.7l12.2 0l0.1 -12.2l-1.3 0l0.1 -12.2l-3.5 0l1.7 -2.3l0.4 -2l-0.7 -1.1l1 -2.6l1.3 -2.1l-0.6 -1.5l-1.9 -1.3l-0.4 -2.8l1.5 -0.3l-0.3 -1.8l-1.2 -1.5l-66.9 0.8l-31.5 -0.2z"/><path data-id="30067" d="m416.7 488.6l21.7 -0.2l2 0.4l4.7 0.9l12.7 0l5.3 0l7.1 -0.2l3.3 -0.8l1.7 0.2l1.5 0l3.1 0.3l7.3 0.1l7.4 -0.9l7 0l2.1 0l10.4 0l6.4 0.1l0 -19.5l-22.1 -0.6l-13.6 0l0 -20.9l0.7 -20.3l0.1 -17.8l-0.2 -13.8l-6 0l0 -41.8l0.9 -6.1l-10.6 0l-31.2 -1l0 6.1l-0.7 18.4l0.3 6.9l-0.1 17.3l-0.5 5.2l0 4.9l0 10.5l0 2.7l-5.2 0l-0.1 7.8l-5.1 0l0.1 20.6l-10 0l0 20.7l-0.5 20.6z"/><path data-id="30069" d="m608.9 226.6l-0.1 10.4l10.6 0l-0.2 31.9l-1.6 0l-0.1 10.6l66.9 -0.8l-1.5 -3l0.3 -2.6l-2.7 -4.1l-0.3 -1.2l-1.7 -0.6l-0.7 -1.3l-1.2 -1.2l-0.6 -1l-1 -0.2l0 -1.4l0.8 -1l0.3 -1.1l-0.3 -1.2l1 -0.4l0.5 -1l0.7 -1.3l-0.6 -1.1l0.5 -1.1l0.1 -1l-0.1 -1l1 -0.6l0.7 -1l-0.3 -1l-0.1 -1.3l-0.8 -1.3l-1.5 0.4l-0.6 -1l1.2 -0.7l-0.4 -1.5l-1 -0.5l0 -1.2l0.6 -1l0.1 -1.1l-1.1 -0.4l0.5 -1l-1.1 -0.4l0.1 -1l-0.3 -1.4l-1.1 -0.8l1 0l-0.2 -1.2l-1.1 -0.2l-5.55112e-17 -1l1 -0.8l-1 -0.3l1.3 -0.7l-0.9 -1.1l0.8 -1.1l-0.2 -1.1l1.1 0.3l0.2 -1.1l-0.6 -1.3l-1.3 -0.9l0.8 -1.2l0.1 -1l-0.7 -1.2l-1.1 -0.2l0.1 -1.2l0.7 -1.2l-1 -0.3l-0.1 -1.1l1.1 0.1l-1.1 -1.1l0.6 -1.4l0.1 -1.1l-0.5 -1.1l1.2 -0.8l-0.3 -1.9l1 -0.3l-1.1 -0.2l-1.1 -1.4l0.5 -1.2l-0.3 -1l0.6 -1.1l0.7 -1l0.3 -1.3l0.8 -1.1l0.6 -1.1l0.8 -1.6l0.1 -1l0 -1.4l-0.8 -1l0.1 -1l0.7 -5.1l0.9 -2.7l-1.8 -1.3l0 -1.8l-0.9 -1.1l0.1 -2.9l-2.7 -0.3l-1.2 -2l-3.8 0.5l-3.6 -2l-1.2 0.8l-4.8 -0.1l-0.9 1.1l-2.6 0.4l-1.8 -1.2l-3.2 0.9l-1.8 -0.7l-1.9 1l-2.6 -0.5l-0.2 6.5l0 26.6l-1.8 0.9l-10.6 0.1l-10.5 0l0 4.5l-10.7 0l0 10.7l-1.4 0z"/><path data-id="30071" d="m596 141.9l0 16.9l5.6 3l3.3 3.5l-0.5 2.4l1.5 2.2l1.3 0.2l2.2 -0.7l1.6 2.1l1.8 0.2l1.4 1.5l3.3 0l1.7 -0.6l3.2 1.8l2.8 -0.6l1 -0.9l1.5 1.4l-0.1 1l2.9 0.4l1.5 -2.2l1.2 0.1l0.5 1.7l0.6 1.5l1.4 0.4l0.7 -1.3l1.5 0.4l0.7 1.8l1.8 -0.3l0.5 1.6l1.2 0l0.3 -1.6l1.6 -0.4l2.6 0.5l1.9 -1l1.8 0.7l3.2 -0.9l1.8 1.2l2.6 -0.4l0.9 -1.1l4.8 0.1l1.2 -0.8l3.6 2l3.8 -0.5l1.2 2l2.7 0.3l-0.1 2.9l0.9 1.1l0 1.8l1.8 1.3l-0.9 2.7l0 4.6l3.8 -0.7l-0.2 -3.3l1.3 -1.2l-1.2 -2.7l1.9 -1.4l0.2 -1.2l1.9 -1.5l1.7 0l1.5 0.3l1.3 -0.5l-0.1 -1.9l2.6 -1l0.1 -1.7l1.8 -1.8l1.2 -3.6l2 0l0.8 1.1l1.3 -1.1l-0.6 -2.9l1.4 0.5l1.7 2.1l0.5 -2l1.4 -0.3l2.2 0.8l1.2 -0.4l2.7 0.4l1.8 2.3l4 0.2l1 -0.4l0.1 -2.6l1.6 -1.9l-0.7 -1.9l1.1 -1.8l0 -22.2l0.8 -43.3l2.9 0l0 -10.9l9.1 0l0 -11.2l-3.4 0l0 -5.8l0 -5.1l3.6 0l0.5 -4.5l2.1 0.9l2.8 0l0 -7.4l-1.1 0l0 -43.5l2.2 0l0 -11.1l-14.6 0l-5 0.1l-27.4 0l-27.6 0l-13.3 0l0 10.9l-1.9 0l0 21.7l-5 0l0 21.9l-2.3 0l0 18.3l-1.1 -1.9l-3.8 -0.3l-0.5 -1l-0.1 28.6l-1.9 0l0 30.3l-11.3 -0.6l-2.4 -1.3l-2 4.3l-0.2 4.6l-3.8 -0.4l-18 0.1l-0.2 6.5z"/><path data-id="30073" d="m224.9 87.1l2.2 2.8l2.1 0.4l0.7 2.4l1.8 0.7l2.6 1.6l0.8 1.6l-0.9 2l0.5 5.9l1.9 0.8l1.5 -1.4l2 1.2l1.2 1.8l1.8 0.7l3.4 1.1l2.2 -1.7l0.9 1.1l0.1 2.4l1.8 -1.5l1.3 0.3l9.5 0l6.2 -0.3l54 0.3l0 5.4l10.8 0.1l0 5.4l5.3 0l0 7.2l16.2 0.1l31.7 -0.4l0 -18.1l0 -10.9l-21.4 0l0 -3.6l0 -12.7l-10.8 0l0 -5.4l-10.4 0l-5.9 -0.2l0 -5.6l-1.1 -1.3l-1.8 -0.4l-3.9 1l-0.4 1.1l-1.8 -1.8l-4.4 -2.7l-1.8 0.6l-0.9 -1.3l-1.9 0.1l-1.8 -0.8l-29 0l0 13.5l0.1 8.2l-64.3 0.1z"/><path data-id="30075" d="m813.5 447.2l0 20.4l1.3 0l0 21.9l19.9 0l8 0l1.2 -0.7l5.5 0l39.7 0l24.5 0l3.2 0l0 -41.5l4.2 0l0 -10.8l0.4 -41l-14.5 -0.1l-41.9 -0.1l-44.4 0l-3.6 0l0.2 3.8l-0.3 48.2l-3.6 0z"/><path data-id="30077" d="m215.1 175.4l0 51.8l13.6 -0.1l0 42.4l0.9 3.1l1.3 -0.7l0.8 -1.6l2 1.5l0 1.5l1.2 2.2l1.4 0.5l3.2 3.1l-0.8 1.1l0.4 1.8l3.7 0.6l1.4 1.5l3.1 -0.9l1.4 -1.3l1.9 -0.5l0.1 30.5l0.2 9.9l-0.1 16.3l39.8 0.1l-1 -4.7l3.1 -3.2l2.4 0.1l0.4 -1.4l2.2 0.2l1.5 1.4l0.2 -2.5l2.1 -0.9l0 -1.4l1.9 -2.1l4.5 0.1l1 -2.2l2.2 -2.1l-1.1 -1.5l0.2 -1.2l1.4 -0.8l0.2 -4.8l-0.4 -2.5l1.1 -0.9l0 -1.6l-1.2 -2.2l-0.7 -3l2 -3.7l-0.4 -1.6l-1.9 -4.6l-7.5 0l0 -5.3l-10.4 0l0 -16.4l-11 0.3l-10.6 0l0 -13.1l0 -29l-21.9 -0.3l0 -37.9l-2.7 1l-1.9 -1.2l-0.7 -3.1l-0.1 -5.2l0.6 -1.5l-2.2 -3.1l-15.1 0l-11.7 -0.6z"/><path data-id="30079" d="m829.5 226.9l0 39.2l21.1 -0.1l0 3.5l17.9 0l0 10.6l3.5 0l0 10.6l7 0l0 7l3.5 0l0 3.5l17.5 0.1l0 3.5l21.2 0.1l0 -3.5l10.5 0l0 -5.3l10.5 0l0 -5.3l10.5 0l0 -3.5l0 -17.9l0.3 -3.5l-35.3 -0.1l0 -3.5l-1.8 0l0 -1.8l-1.7 0l0 -1.7l-10.6 0l0 -7.1l-10.7 0l0 -25l-6.8 0l-35.5 0.1l0 10.8l-10.6 0l0 -10.8l-10.6 0z"/><path data-id="30081" d="m124.4 395.6l-0.9 1.5l1.7 2.1l0.1 1.7l1.7 1.8l1.1 0.3l0.8 1.1l0.5 1.5l-1 1.6l0.7 1.2l0 1.3l-0.7 1.2l-1.2 1.1l-1.1 -0.2l-2.1 1.3l-0.2 1l0.8 1.5l1.4 1.5l-1.3 1.9l-0.5 3l2.8 -0.6l1.7 1.4l2.7 -0.5l1.1 0.2l0.3 2.1l1.5 1l1.9 3.1l2.3 0.8l1.7 1.2l0.6 2.2l1.3 1.7l1 0.1l4.5 -2.5l1.5 -1.9l1.1 -3.4l0 -1.1l0 -1.5l1.7 -0.1l2 1.3l1.4 -1.2l2.6 -0.9l1.6 -0.5l0.5 -1l-0.2 -1l0.8 -1.2l1.8 -0.2l1.1 -0.6l0.3 -1.5l1.3 -2.8l2.8 -2.5l1.2 0l0.4 -1.1l-0.5 -1.4l0 -1.3l0.1 -1.4l2.7 -1.4l1.4 0.8l2.7 0.2l1.3 -1l1.5 -3.2l-1 -1.8l1.7 -2.9l2.2 -1.4l1.3 1l0.5 2.4l1.6 0.2l2.1 -1.5l1.4 -1.8l-0.4 -1.6l1.1 0l2.8 -2.7l1.2 -0.5l1.4 -2.3l1.2 -0.6l2.5 1l1.1 -0.6l2.7 -0.1l1 -1.1l1.6 0l0.1 -1.5l1.9 -1.1l3.3 -1.1l-0.7 -1.5l0.1 -2.3l1.6 -3.1l-1.3 -0.8l-1.1 -0.2l-1.4 0.5l-1 0.5l-0.8 -1.1l-1.5 -0.1l-0.8 -1l0 -1.1l-1.3 -0.2l-1.2 0.5l-1.1 -1.4l-0.6 -1.2l-0.3 -1.5l-0.4 -1.3l-0.2 -1l-1.2 -1.4l-0.6 -1.1l-1 -0.2l-1.9 0.1l-0.8 -1.1l-1 0.1l-0.4 1l-0.6 1l-1 -0.2l-1.5 -0.5l-0.8 -1.7l0.9 -1.6l0.5 -1.1l0.7 -1.3l0.5 -1l0.3 -1.1l1.2 -1.7l-1 -1.3l-0.7 -1.2l-0.5 -1l-1.1 -0.9l0.3 -1.1l0 -1.1l0.2 -1l-0.9 -1.3l-1 -0.1l-0.8 -1.5l0.4 -1.6l1.5 -0.5l1.4 -0.8l0.4 -1.4l1.2 -1.1l0.4 -1.5l0.7 -1.2l-1.4 -0.9l-1.1 -0.6l-0.5 -1.1l0.1 -1.3l0.6 -1.3l-0.3 -1.6l-0.5 -1.9l-0.1 -1.3l0.3 -1.1l-0.4 -1.2l-1.1 -1.6l-1.2 -1.4l-0.4 -1.2l-3.1 -1.5l0.7 -2.6l-1.4 -6.2l-1 -1.3l2.4 -1.6l0.3 -3.6l1.4 -2.9l-0.5 -1.6l2 -0.6l-0.4 -3.1l1.1 -1.8l-1.2 -0.9l-0.8 -2.9l-27.5 0l-1.1 0.1l-13.4 0l0.7 2.2l0 3.9l-1.7 2.7l0.9 1.3l-0.6 1.7l-0.6 1.6l0.2 1.2l-0.4 1.4l0.6 1.2l-0.9 1.4l-1.9 0.7l-2.1 0l0.1 3.1l1.4 1.3l0 1.9l0.8 1.8l-1 2.5l-2 1.7l-1.2 1.7l0.9 2.5l-0.1 3l-1.6 3.7l0.6 2.7l-0.8 1.3l-1.5 0.6l-1 -0.3l-0.3 2.9l1.4 0.9l0.5 2.4l0.2 2.2l-0.2 3.5l-1.4 0.7l-1.2 0.9l-2.7 -0.6l-1.2 2.9l0.3 1.8l2.3 1.4l1.5 0.4l1.2 1.9l-0.2 2.2l-0.5 1.5l-2.3 2.3l-0.9 1.9l1.1 0.3l1.1 -0.3l0.5 1.6l-0.8 1l0.5 1.8l1.1 -0.4l1.4 1l1.5 0.1l1.6 1.1l0.7 1.3l-0.1 1.4l-1.5 1.4l-0.6 1l1.5 2.9l0.7 1l1.5 1.7l-1.6 2.9l-0.3 1.4l-1.4 -0.6l-1.4 -0.5l-1.3 0.8l-1 0.6l-1.5 -0.1l-1.1 0.3l-1 0.9l0 1.6l-1.3 0.9l-1.3 3.4z"/><path data-id="30083" d="m900.5 151.8l0 10.8l21.4 0l0 10.8l32 0l0 10.7l6.7 0l0 21.5l7.7 0l2.9 0.1l21.1 -0.1l0 -5.3l7.2 0l0 -5l0 -2.6l0 -7.9l0 -9.8l0 -1.1l0 -1.6l0 -15.1l0.1 -6.9l0.1 -4.8l0 -2.6l0 -3.6l-0.1 -7.3l0 -2.7l0 -2.7l-1.8 -1.3l-2.7 0.4l-0.6 -1.7l1 -1.5l-2.4 -1.5l-0.9 -2.2l-2.7 2.5l-1.8 -1.7l0.4 -2.1l-1.7 0l0.2 3.6l-1.9 0.9l-1.8 -0.1l-3.7 -2.5l-2.5 0.7l-2.4 -0.2l-0.9 -2.8l-1.3 -1l-1.5 0l-4 -2.3l-1.4 -3.1l-2.3 -0.3l-2 1.5l-1.4 -1.8l-1.3 -0.3l-3.3 2.4l-0.2 -2.2l-1.9 -2l-1.6 1.6l0.2 2l-4.6 1.1l-0.2 -1.2l-2.5 -0.7l-2.8 0.9l-1.1 -1.9l-2.4 -0.2l-2.8 1.2l-2.5 -0.8l-2.4 -3l-1.4 0l-2 1.6l-0.3 3.3l-1.8 2l-2.2 -1.1l0 2.4l-1.3 2.2l-0.2 -1.8l-1.1 -0.6l-0.6 2l-1.8 0.6l-0.7 1.3l-1.1 -3l-2.3 1.7l-2.5 0.7l0.5 -2.2l-2.7 0.4l-2.6 -1.1l0.5 -1.8l-1.2 -0.6l0 2.7l-1.1 1.6l0 24.7l-3.3 0l0 9.6z"/><path data-id="30085" d="m849.7 103l0 21.5l2.9 -1.8l1.9 0.3l0.7 -3.1l1 2.1l1.2 0.7l2.5 -0.8l2.2 -2.7l2.4 -0.4l0.4 1.4l1.5 -0.7l0.3 -1.9l-0.7 -1.4l2.5 0.5l1.9 -1.1l2.2 -0.2l3.1 1.9l1 -2.5l1.3 -1.2l1.6 0.9l2.6 0.2l5.8 -0.4l1.6 0.5l2.8 -0.5l1.1 1.7l4.6 -1.3l2.8 0l0.8 1l0.1 2.2l1.9 -0.4l1.1 -1.6l0 -2.7l1.2 0.6l-0.5 1.8l2.6 1.1l2.7 -0.4l-0.5 2.2l2.5 -0.7l2.3 -1.7l1.1 3l0.7 -1.3l1.8 -0.6l0.6 -2l1.1 0.6l0.2 1.8l1.3 -2.2l-0.8 -2.1l3 0.8l1.8 -2l0.3 -3.3l2 -1.6l1.4 0l2.4 3l2.5 0.8l2.8 -1.2l2.4 0.2l1.1 1.9l2.8 -0.9l2.5 0.7l0.2 1.2l4.6 -1.1l-0.2 -2l1.6 -1.6l1.9 2l-0.4 2.1l3.9 -2.3l1.3 0.3l1.4 1.8l2 -1.5l2.3 0.3l1.4 3.1l4 2.3l1.5 0l1.3 1l0.9 2.8l2.4 0.2l2.5 -0.7l3.7 2.5l1.8 0.1l1.9 -0.9l-0.2 -3.6l1.7 0l-0.4 2.1l1.8 1.7l2.7 -2.5l0.9 2.2l2.4 1.5l-1 1.5l0.6 1.7l2.7 -0.4l1.8 0.9l-0.1 -21l0 -1.5l0 -2l0 -6.1l0 -1.7l0 -10.9l0 -4l0 -1.9l-48.4 0l0 -10.9l-10.8 0l0 -10.9l-18 0l-69.2 0l0 43.2l-3.3 0l0 4.5z"/><path data-id="30087" d="m679.2 267.2l1.3 0.8l0.3 1.2l2.7 4.1l-0.3 2.6l1.5 3l1.2 1.5l0.3 1.8l-1.5 0.3l0.9 2.2l1.4 1.9l0.6 1.5l-1.3 2.1l-1 2.6l0.7 1.1l-0.4 2l-1.7 2.3l3.5 0l-0.1 12.2l1.3 0l2.2 0l1.4 1.7l47 -0.1l0 1.8l1.7 0l0 8.8l10.4 0l0 10.7l1.8 0.1l0 20.7l5.7 -0.3l0 30.9l0 1.1l0 4.6l5.2 0l0 5.2l-3 0l0 12.4l5.5 0.9l9.9 0l-0.2 38.6l-3.3 -0.2l0.1 20.5l30.7 0l9.9 0l0 -20.4l3.6 0l0.3 -48.2l-0.2 -3.8l3.6 0l0 -10.5l0 -31.3l3.2 0l-0.1 -10.5l0 -31.3l2.9 0l0 -17.1l0 -25.1l2.9 0l0 -1.8l-52.8 0.1l0 -1.8l-62.2 0l0 1l-35.3 0z"/><path data-id="30089" d="m0 98.8l0.1 11.4l0 4.5l0 1.4l0 1.3l0 8.3l0 2.8l1.6 0.6l1.9 2.7l1 2.2l0.5 1.2l1.7 1.2l0.5 2l2 2l1.9 3.5l1.2 1.3l1.7 -0.8l0.8 1.8l1.6 1l0.5 1.6l-0.1 3.6l1 1.9l0 1.1l0.9 1l1.8 -0.7l1.8 1.8l-0.2 1.8l0.8 1.4l1.3 -0.2l1.3 0.9l1.1 1l0.7 1.1l-0.4 2.2l-0.8 2.9l0.5 1.6l1.4 0.8l1.5 1.5l0.1 3l-1 2.3l-1.4 0.8l-2.7 2.7l0.2 1l1 0.6l1.9 0.6l1.7 0.7l-1.2 0.5l1.4 2.7l0.7 2.1l1.5 -0.4l0.6 1.3l1 0l1.1 -0.5l1.8 0.8l3.9 0.5l2.8 -0.6l0.9 -1.1l-0.3 -1.4l1.8 0.1l1.2 2.5l3.8 1.1l1.2 -1.3l2.3 -1.1l3.2 0.2l1.7 1.6l3.1 -0.1l2 -1.9l2.8 0.8l3 2.2l1.6 0.2l3 1.6l0.7 1.8l1.8 1.2l3.3 -0.5l3.6 2.3l1.4 -0.7l1.1 1.7l2.9 0.7l0.8 2.6l0 7.5l5.2 0l0 1.8l5.3 0l0 3.6l3.8 0l3 1.1l4.4 0.6l1.8 -2.4l4.2 1l3.6 1.1l2.5 0.3l1.8 1.8l4.3 2.4l1.9 0.1l1.2 1.4l2.5 -0.3l1.7 1.6l3.4 1.2l1.3 1.3l-0.8 2.2l1.9 1.6l2.5 1.1l1.1 1.3l1.2 0.4l1 0.3l2.4 -1.7l2 0.8l2.1 -1.3l0 -5.4l-1.3 0l0 -21.3l-7.1 0l-1.4 -0.8l-1.7 0.7l0.1 -1.1l-2.4 -3l0.8 -2.2l0.2 -4l1.2 -1.4l0 -1.9l1.8 0.6l1.7 -0.8l-1.2 -3.4l-4.3 -0.1l-1.7 1.9l-1.1 -0.3l1.6 -4.6l0.1 -2.5l2.8 -2l-0.8 -1.5l0 -1.9l1.5 -1.3l-1.6 0.8l-0.8 -1.6l-19.4 0.1l-0.1 -17.9l-1.7 0l0 -5.4l0 -10.6l-17.8 0l-3.5 0.4l-10.7 0l0 -16.2l-1.8 0l0 -1.8l-2.5 0l-3.7 0l-2.6 0l-2.6 0l-0.2 1.2l0.1 1.7l0.7 1l0.1 1.1l-0.5 1.1l-1.1 0.9l-0.7 -1.4l-0.5 1.2l-0.8 1.2l0.4 1.4l0 1l-0.5 1.4l-1 0.7l-1.1 0.2l-1.4 1l-1 -0.5l-1.1 0.5l-1.4 1.5l-1.1 0.7l-1.2 -1.6l-1.1 -1.2l-1.2 -0.7l-1 0.3l-1.7 0.7l-2.1 0.9l-1.6 -1.3l-0.1 -1.7l-1.1 -0.7l-1 1.1l0 1.4l-1.7 -0.2l-1.1 -0.6l-1.4 0.5l-1.4 0.6l-2 0.3l-1.5 -1l-0.9 -1.1l-0.8 -1.4l0.1 -1.5l0.6 -1.8l0.5 -1.7l-0.1 -1.2l-0.2 -1.4l-0.6 -1.1l-1.2 -1.3l-1.1 -0.3l-1.1 -1.3l-0.6 -1l-0.8 -1.3l0.2 -1.1l-1 -1.1l-1 -0.8l-0.2 -1.4l-0.2 -1.2l0 -1.5l-0.3 -1.3l-0.4 -1.8l-0.9 -1.4l-0.8 -1.3l-0.7 -1.2l-1.5 -0.6l-0.1 -1l0.9 -1.7l0.9 -1l0.1 -1.2l-0.8 -1.4l-1.2 -2.6l-1.7 -1.8l-2 -1.2l-2.3 0.4l-0.9 2.4l-1.5 2.1l-2.4 0.7l-2.2 0.9l-3.7 2.1l-0.6 1.4l-2.4 -0.2l-1.7 4.4l-1.1 -0.7l-2.9 -0.4l-1.1 -1.5l0.1 -4.6l-2.7 -1.2z"/><path data-id="30091" d="m915.2 0.3l0 11.2l1.6 0l0 32.9l5.4 0l0 10.9l18 0l0 10.9l10.8 0l0 10.9l48.4 0l0 -2.8l0 -1.3l0 -3.1l0 -2.8l0 -3.4l0 -2.9l0 -1l0 -1.7l0 -2.9l0 -3.6l0 -3.6l0 -1.8l0 -1.8l0 -1.2l0 -11.3l0 -2.3l0 -2.9l0 -1.1l0 -6.4l0 -2.3l0 -1l0 -3.6l0 -1.2l0 -2.7l0 -1.2l0 -1.1l0 -1.5l0 -3l0 -1.6l-26.4 0.1l-20.1 0l-22.9 0l-14.6 0z"/><path data-id="30093" d="m248.9 385.6l-2.1 1.1l5.1 3.7l1.9 1.7l0.2 1l4.5 1l1.5 -0.3l2 2.5l1.5 -1.1l1.4 1.4l1.1 -0.2l2.6 0.7l2 1.8l1.2 -0.6l0.4 1l1.8 0.9l0.1 1.7l0.4 2.7l1.4 3.1l2.9 1.2l0.7 2.5l-0.6 1.3l1.1 2.4l7.2 -4.3l1.9 -2l2.3 -0.7l2.2 -2.8l-0.2 -2.3l0.9 -2.3l1.4 -1.6l1.1 0.1l2 2l22.6 -0.7l-2 -2l-3.2 -0.5l-1.1 -1.9l-12.3 -6l-1 -0.8l-0.3 -1.2l2.2 -4.1l-1.4 -2.6l0.4 -1.3l-1.6 -2.3l0.5 -2.2l-1.2 -4.6l0.7 -2l-0.8 -2.4l-1.2 -0.4l-1.1 -0.3l-0.4 -1.5l1.3 -2.9l-0.4 -2.1l-2.5 -1.9l-2 -3.3l0.6 -2.6l-0.4 -1l1 -2.2l-1.7 -0.1l-1.6 1.2l-2.7 -0.5l-3.2 1.6l-2.1 -1.1l-1.3 2.6l-2.1 2.1l-8 0l0 8.2l0 2.3l-6.2 0l-1.4 2.4l0.2 2.1l-1.3 1.5l-3.3 -0.8l-1.3 1.4l0 3l1.3 4l-3.1 1.4l-0.4 2l-4.1 2.7l-0.8 1.4l-3.1 0.2z"/><path data-id="30095" d="m498.3 447.6l0 20.9l22.1 0l9.2 0.6l0 -11.1l6.6 0l0 -5.1l1.7 0l0 -3.4l1.7 0l0.5 -3.4l1.7 0l0 -1.7l1.7 0l0 -1.7l1.7 0l0 -1.7l1.7 0l0 -1.7l3.4 0l0 -1.7l1.7 0l0 -1.7l5.2 0l0 -1.7l13.7 0l0 -7l5.3 0l0 -7.7l4.9 0.5l2.4 -0.9l0.9 -1.2l4.7 -1.8l3.2 1.6l3.5 0l2.5 -1.3l1.5 0.3l0 -3.4l-1.7 0l0 -1.7l-1.7 -1l0 -2.5l-1.7 0l0.2 -12.1l0 -20.9l-1.7 0l-0.3 -8.7l0.1 -12.1l-40.9 0l-0.1 10.5l-0.5 1.4l0 8.7l-7 0.1l0.1 10.6l-3.6 -0.1l0.2 10.4l-1.4 0l0.2 20.8l-10.3 0l0 5.2l-10.3 0l0 5.2l-10.2 0l-0.1 20.6l-11 0z"/><path data-id="30097" d="m479.3 353.9l0 41.8l6 0l0.2 13.8l-0.1 17.8l0 20.3l-0.7 20.9l13.6 0l0 -20.9l11 0l0 -19.7l10.3 -0.9l0 -5.2l10.3 0l0 -5.2l10.3 0l-0.2 -20.8l1.4 0l-0.2 -10.4l3.6 0.1l-0.1 -10.6l7 -0.1l0 -8.7l0.5 -1.4l-15.7 0l0.1 -10.5l-4.1 0l0 -10.5l-52.3 -0.1l0 4.4l0 6.1z"/><path data-id="30099" d="m252.7 109.5l1.2 0l1.4 1.6l-0.9 2.4l1.3 1.2l-0.3 1.8l1.5 -0.1l2.2 2.4l-1.1 0.7l0.3 2.4l3.3 0.2l2.4 6.7l-1.1 -0.1l-1.7 3.7l-3.3 0.2l-2.8 -1.2l0.4 1.5l0.3 2l0.1 1.3l1.5 1l0.4 1.2l0.1 1.6l0.3 1.2l0.7 1.2l0.8 1.7l0.2 1.1l0.7 1.4l0 1.8l0 1l-0.2 1.8l-0.2 1.4l0 1.8l-0.4 1.1l0.6 1l0.4 1.3l0.9 1.4l-0.1 1.6l0 1.3l-0.5 1.8l0.6 1.2l0.9 1.1l0.6 1.1l0.8 1.7l1.3 1.6l0.3 1l1.2 0.8l1.1 1.2l1.5 0.4l1.6 0.9l1 0.5l1.6 -0.4l1.6 -1l1 -1l1.4 -0.2l1.2 -0.4l1.3 0.6l1 -0.5l1.1 -0.2l1.2 0l1.3 -1l1.1 -0.7l1.1 0.4l1.3 -0.1l1.4 -0.3l0.9 -1.2l1 -0.5l1.1 0.9l1 0.1l0 1l0.3 1l1.2 0.4l1.1 1l1.3 -0.1l1.6 0.5l1.2 0.5l1.6 0.8l0.3 1.4l0.4 1.3l0.8 1.6l-0.4 1l1.7 0.7l1.4 0.7l1 -0.3l1.3 0l-0.1 1l1 -0.1l1.3 0.1l0.6 1.6l1.4 0.7l0.8 1.5l1.6 0.3l1 -0.2l1.6 0.4l1.5 -0.1l1.2 0.2l1.3 -0.6l1 0l1.5 -0.2l1.2 -0.3l1.6 0.4l1.3 0.3l1 -0.4l1.2 -0.5l1.3 -0.2l1.2 0.1l1.8 -0.2l2.2 1.3l3.1 0.4l3.3 -0.1l0 -13.1l21.4 0l0 -10.7l1.7 0l19.7 0l0 -35.9l-31.7 0.4l-16.2 -0.1l0 -7.2l-5.3 0l0 -5.4l-10.8 -0.1l0 -5.4l-54 -0.3l-6.2 0.3l-9.5 0z"/><path data-id="30101" d="m321.1 0.3l0.4 10.7l0 34.8l0 9.1l0.4 11.2l0.9 1.3l1.7 0.3l4.5 1.8l1.8 1.8l0.4 -1.1l3.9 -1l1.8 0.4l1.1 1.3l0 5.6l5.9 0.2l10.4 0l0 5.4l10.8 0l0 12.7l0 3.6l21.4 0l11.1 0l0 -43.5l0.2 -43.9l0.3 -10.6l-8.9 0l-14.9 0l-13.7 -0.1l-9.6 -0.1l-13.9 -0.1l-15.8 0z"/><path data-id="30103" d="m692 312l0 1.7l1.7 0l0 3.5l1.7 0l0 3.5l1.7 0l0 1.8l1.7 0l0 3.5l1.7 0l0 1.7l1.7 0l0 5.2l1.7 0l0 1.7l1.7 0l0 3.5l1.7 0l0 1.7l1.7 0l0 3.5l1.7 0l0 3.5l1.7 0l0 1.7l1.7 0l-0.7 3.2l0.9 1.3l-1.7 2.1l0.9 1.8l-2.1 2.4l-0.2 2l-1.4 1.4l0.5 1.9l7.2 0l0 10.4l20.7 0l0 5.2l10.4 0l0 5.2l9.4 0l0 -1.1l0 -30.9l-5.7 0.3l0 -20.7l-1.8 -0.1l0 -10.7l-10.4 0l0 -8.8l-1.7 0l0 -1.8l-47 0.1z"/><path data-id="30105" d="m719 141.9l0 22.2l4.6 0.1l2.4 1.3l4 0l2.9 2.3l6.2 0l1.4 -0.7l3.7 -0.2l3.6 0.8l4.9 -0.1l1 -1.3l3.2 0.2l1.3 -0.5l1.6 0.8l2.7 -0.7l1 -0.4l0.9 -3l-0.8 -2l1.5 -2.4l2.3 -0.7l4 0.1l2.1 1.4l2.1 -0.3l1.9 -2.6l0 -2.1l2.9 -0.5l1.3 0.5l0.7 -2.3l2.6 -0.1l1 1.7l0 -3.4l3.3 -1l1.1 -1.9l-0.5 -1.5l2.8 -1.2l0.2 -1.4l-1.3 -1.7l1.1 -0.7l1.7 0.2l0 -1.5l-1.7 -1.5l2.7 -1.4l0.8 -2.2l-1.7 -1.7l0.6 -1.5l4.1 -1.5l0.4 -1.5l1.5 0.8l-0.4 1.4l1.2 0.9l0.4 -1.9l-1.3 -5.7l1 -3.1l1.4 -2.4l2.2 -0.1l0.8 1.9l2.1 0.1l1.4 -1.2l1.7 1.8l2.1 -0.6l2.6 2.1l1.3 0.4l8.6 -0.5l-0.2 1.5l-1.4 1.5l1.9 0.4l2.2 -0.8l0.8 -3l1.6 0.2l1.8 3l2.5 0.2l0.2 -1.2l-1.1 -1.2l1.6 -0.9l2.6 2.2l3.3 0.3l1.3 1.2l1.9 -1.3l-0.2 -2.5l1.2 0l0.6 1.6l2.8 1.4l0 -21.5l0 -4.5l3.3 0l0 -43.2l-18.1 0l0 -32.9l-10.9 0l0 -11l3.3 0l0 -11.3l-11.1 0l-11 0l-8 0l-15.3 0l-25.4 0l-18.1 0l0 11.1l-2.2 0l0 43.5l1.1 0l0 7.4l-2.8 0l-2.1 -0.9l-0.5 4.5l-3.6 0l0 5.1l0 5.8l3.4 0l0 11.2l-9.1 0l0 10.9l-2.9 0l0 43.3z"/><path data-id="30107" d="m480.3 311l0 32.5l52.3 0.1l20.9 0l-0.1 -32.7l1.2 0l-0.1 -24.6l-29.7 0l-6.2 0l-2.1 -2.1l-1.1 0.3l-3.2 -2.1l-3.4 -1.4l-2.8 -1.8l-5 2l-1.9 -1.6l-2.9 0.3l-2.5 1l-1 2.4l-2.5 0.3l-2.8 -1.1l-1.6 2.1l-5.2 -0.2l0 26.7z"/><path data-id="30109" d="m952.7 269.5l0 17.9l15.7 0l0 1.8l5.3 0l0 3.5l25.8 0l0 -8.2l0 -1.5l0 -13.3l0 -12.6l0 -12.7l0 -2l0 -1.3l0 -1.8l0 -1.7l0 -4.2l-0.1 -10.8l0 -5.9l0 -1l0 -7.2l0 -1.6l0 -3.9l0 -2.7l-7.2 0l0 5.3l-21.1 0.1l-2.9 -0.1l-0.2 1.2l-2.4 3.2l1.7 0.2l0.9 1.8l2.7 1.8l0 1.8l1.1 0l1.8 3.5l0.9 3.5l0.9 2.7l1.3 1.8l0 5.3l0.9 11.6l-1.8 0l0 4.4l-2.7 3.6l-0.9 3.5l-2.6 1.8l-0.9 3.5l-1.8 0l0 1.8l-1.8 0l-0.9 1.8l-1.8 0l-0.9 1.8l-8.9 0l-0.3 3.5z"/><path data-id="30111" d="m593.2 354.1l-0.1 12.1l0.3 8.7l1.7 0l0 20.9l-0.2 12.1l1.7 0l0 2.5l1.7 1l0 1.7l1.7 0l0 3.4l3.7 -2.8l1.4 -0.4l0 2.7l-1.7 3.3l0.1 4.2l3.4 0l0 3.4l5.1 0l0.1 7l4.4 0l16.6 0.4l10.7 0l0 -3.4l10.2 0l0 -3.4l10.3 0l0 -19.4l0 -12.2l1.8 0l0 -13.8l13.8 0l0 -3.5l3.5 0l0 -3.4l3.5 0l0 -3.5l10.3 0l0 -6.9l13.6 0l-0.5 -1.9l1.4 -1.4l0.2 -2l2.1 -2.4l-0.9 -1.8l1.7 -2.1l-0.9 -1.3l0.7 -3.2l-1.7 0l0 -1.7l-1.7 0l0 -3.5l-1.7 0l0 -3.5l-1.7 0l0 -1.7l-1.7 0l0 -3.5l-1.7 0l0 -1.7l-1.7 0l0 -5.2l-1.7 0l0 -1.7l-1.7 0l0 -3.5l-1.7 0l0 -1.8l-1.7 0l0 -3.5l-1.7 0l0 -3.5l-1.7 0l0 -1.7l-1.4 -1.7l-2.2 0l-0.1 12.2l-12.2 0l0 1.7l-1.7 0l0 1.8l-1.7 0l0 1.7l-1.8 0l0 1.7l-1.8 0l0 3.5l-1.5 0l0 5.3l-24.3 0l0 1.7l-3.5 0l0 1.7l-3.5 0l0 12.4l-31.2 0.1l-12.1 0z"/></svg>
