<?xml version="1.0" encoding="UTF-8"?>
<!DOCTYPE svg PUBLIC '-//W3C//DTD SVG 1.1//EN' 'http://www.w3.org/Graphics/SVG/1.1/DTD/svg11.dtd'>
<svg viewBox="0 0 10000 5639.61" xmlns="http://www.w3.org/2000/svg">
  <g data-id="001">
    <path d="m1758.1 4063.7l0 0l5.7 27l16.9 23.7l8.8 6.1l2.8 8.1l-4.1 8.9l-2.2 14.3l15.6 5.9l20.5 -7.9l31.9 13.3l13.6 12.3l3.1 11.3l1.1 9.3l-1.9 5.7l-13.3 16.3l-12.2 54.2l21.2 1l5.2 -3.9l5.2 -0.4l15.2 0.1l7 1.5l1.6 3.5l0.8 20.4l5.6 18.4l-3.7 10.5l-16.2 27l0.7 3.7l15.6 24.3l0.2 10.6l-10.6 8.1l2.3 10.5l11.1 0.3l22.1 16.8l1.1 2.6l0.6 6.1l-2.6 24.1l-3.9 22.7l1.2 18.8l2.6 5.3l38.5 49.4l1.1 8.5l-2.9 6.5l-0.4 6.8l5.9 13.6l5.2 5.2l3.6 -0.2l7.3 3.7l7.2 5.7l5.8 8l2.2 7.6l8.8 18.1l31.1 25.8l8 16.7l-3.9 12.9l20.9 29.6l-4.3 14.8l21 18.1l17.2 -4.1l15.8 1.9l3.2 7.9l-5.4 10.6l-6.5 10.9l26.2 21.2l8.3 11.2l10.3 -0.3l5 -2.5l7.2 6.6l0.5 17.1l1.2 11.2l10.1 33.2l-7.6 9.9l-0.1 16.4l1.8 10l0.9 19.1l-4.3 7.5l-15.4 6.5l-6.1 -0.9l-5 -1.8l-11.3 2l-3.6 7.4l6.3 17.4l13.4 26.6l14.9 36.1l29 39.7l21.6 2.9l16.1 5.3l17.5 16l8.3 22.5l-0.5 2l-6.7 4l0.6 4.4l10.3 8.1l33.5 -16.6l3.9 -5.1l15.4 -11l26 -12l7 10.3l24.2 6l12.7 8.1l9.1 10.1l3.4 7.5l13 9.6l4.7 -2.3l14.6 4.9l7.6 4.5l0.1 9.5l-5.3 5.4l2.4 8.6l14.9 17.2l12.3 10.6l0.8 24l2.6 13l13.5 7.1l9.4 13.7l2.4 8l-2.2 5.8l1.8 13.4l2.3 8.2l11.7 14.5l1.8 8.9l-3.5 9.6l-2.7 3l-7.3 1.5l-6.8 4.1l-8.4 13.7l1.1 7.6l10.1 6.5l7.7 15l19.6 15.2l-0.8 6.8l-6.3 8.9l3.1 10.3l29.3 18.9l0.3 8.8l-8.5 16.9l-7.6 8.1l6.3 17.9l9.8 11.6l2.7 24.4l18.2 19.3l25.1 18.8l28.1 14.9l27.5 8.2l2.5 21l22 23.7l8.8 2l20.3 -14.8l5.2 -7.1l0.9 -1.2l0.5 -16.5l-7.7 -17.7l-11.8 -17.7l6.5 -23.1l25.9 -26l17.4 -22.9l22.6 -8l11.6 -9.3l13.3 -6.1l9.4 1.5l30.5 13.7l5.6 5.6l7.6 -1l44.6 -4.3l14.7 11.3l8.9 0.4l19.1 -4.6l7.1 1.1l19.2 9.6l5.7 6.3l0.3 4.6l9.5 4l22.6 -19.8l10.7 5l20.8 15.7l39.9 16.5l15.5 -22.3l8.2 -22.3l1.9 -8l-1.9 -41.7l3.9 -7.9l4.5 -3.6l24.6 -0.5l3.5 -3.3l-0 -9.5l1.8 -4.1l4.4 -4.8l17.9 -12.6l22.9 -1.2l13.2 1.7l10.5 6.2l2.7 8.8l-2.2 6.7l6.5 7l31.4 12.2l3.5 0.1l12.6 -10.1l23.4 2.1l6.1 4.2l3.3 9.1l15.3 9l4.3 -0l4.4 -2.8l2.5 -7.9l20.2 -8.3l13 2.4l13.7 5.6l2.3 -8.6l-0.7 -5.8l1.9 -4.6l15.7 5l15.5 8.1l12 -1.4l24.4 -15.6l3 -7.8l36.9 -0.5l13.1 -7.2l14.4 -0.7l17.7 28.3l5.6 16.1l17.5 19.6l11.3 -2.8l1.3 -12.4l37 -8.8l2.4 -4.6l10.5 -8.2l7.7 -2.7l18.1 -0.6l4.9 -7.8l4.4 -11.7l18.9 0.4l53.4 12.1l2.5 0.6l11 -6.1l7.9 -8.5l5 -1.6l19.1 8.9l5.2 0.8l8.3 -3l18.8 10.2l6.6 12.4l12.8 -2.7l24.2 -0.9l3.3 -4.3l-1.2 -8.8l-19 -10.2l-11.1 -1.6l-2.1 -6.9l2.6 -8.1l-11 -8.7l-4.7 -19.5l-0.6 -6.1l2.6 -13.1l13 -11.6l-6 -16.3l7.2 -6.5l7.5 -0.1l18.2 -23.9l2.9 -14.8l-6.9 -5l-5.8 -6.1l-4.4 -14.8l0.7 -5.5l2.8 -3.2l3.9 -1.5l-249.7 -0.2l-0 -84.6l-203.1 -1.3l-33.8 -1.6l0.1 -49.9l-84.4 -0.9l0.1 -100.9l-19.7 -0.2l-0.5 -103.3l-119.1 -0l0.3 -103.6l-102.4 -0.1l-6.5 -309l0.3 -52l-34.4 -58.3l-28.2 -4.2l-31.5 19.8l-17.7 0.5l-25 -13.2l-8.5 -17.2l-43.8 -33.7l-6.4 -35.7l-4.8 -23.3l9 -11.3l6 -31.6l-0.3 -37.7l6.4 -13.6l-6.3 -14.8l-10.5 -24l6.2 -12.7l-7.4 -24.9l-29.2 -11.5l-14.5 -30.7l5 -20.9l-8.8 -5.6l-0.9 -16.9l-17.7 -8.8l-3.9 -9.7l-11.6 5.8l-20.3 -18.5l-26.3 -6.6l-11 2.4l-13.6 -13.7l-14.8 10.7l-20.5 -25.2l-15.2 2.8l-35.8 -11.3l-9.1 1.3l-2.3 -10.2l-18.9 -16.5l-50.6 -36.9l-12.3 -25.2l-64.9 -4.2l-15.5 12.8l-26.6 9.7l-21.8 25l4.2 7.1l-21.2 25.9l-18.9 -0.8l-8.4 14.6l-23 -8.2l-8.6 9.7l-15.1 40.7l1.2 15.5l-12.4 -2.3l-14.3 -7.8l-33.2 -47.9l4.4 -29.2l-9.8 -29.6l-22.1 -36.1l-22.9 -60.1l-17.2 -3.1l-15.8 30.7l-1.2 23.1l6.6 15.2l-32.9 11.1l-19.4 10.8l-0.7 15.2l-15.6 -0.3l-9.6 10.9l-26.8 1.1l-11 6l-24.8 -9.8l-12.4 6.2l-14.1 22.5l-12.2 5.3l-28.3 27.4l-11.5 -0.1l3.9 16.4l-14.4 18.4l-21.2 14.7l-16.3 -2.4l-4.6 -24.3l-12.9 -10.1l-21.6 13.7l-16.5 28.6l9.8 18.4l-5.7 38l-9.1 -6.1l-13.3 9.9z" />
  </g>
  <g data-id="003">
    <path d="m6119.8 4612.2l0 0l-0 8.9l7.5 10l5.5 0l20.3 0.1l49.1 0.2l42 -0.4l14.5 -0.2l24.6 -0.2l32.5 -0.5l38.8 -0.7l43 -0.9l35.6 -0.2l27.2 -0.2l50.9 -0.2l47.4 -0.2l36.7 0l19.7 -0l0.2 2.1l-7.4 3.1l-7.5 -0.3l-6.3 0.2l0.6 2l1 6l-3.9 2.7l-2.3 9l1.8 2.5l-5.6 3.8l-2.5 -0l1.5 3.4l3.6 5l3.8 1.4l-0.7 4.7l-4.8 -0.5l-3.9 -3.7l-4.4 2.5l0.2 4.4l-2.1 9.1l-0.7 3.7l-4.6 -1.5l-1.8 -2.7l-3.8 0.2l-2.8 1.1l0.4 4l3.6 2.3l0.5 4.7l-3.8 0.1l-3.1 1.5l-1 7l2.4 7.2l-1.8 3.2l3.2 3.1l2.6 1.6l0.6 3.9l-2.1 3l-6.4 5l-6.5 -0.5l-4.4 4.8l2.2 1.1l1.9 4.8l-1.9 5.6l0.4 3.7l-4.4 3.3l-3.8 -2.3l-0.9 4.2l3.4 1.8l2.9 6.1l-1.3 4.6l-5.2 2.2l-4 -3.3l0.3 -2.3l-4.7 2l-1.2 6l-4.2 3l-2.2 -1.1l-4.3 5.4l-0.9 8.7l-3.3 8.2l-4.3 9.2l1.7 4.1l-4.8 1.1l-3.8 -0.2l-1.7 4.6l0.1 3.6l5 3.7l5.8 0.1l4.5 3.3l-2.7 5.3l-3.1 -1.1l-5.3 -0.8l-5.3 2.8l-3.4 7.9l-3.8 8l-0.1 7.5l1.5 3.5l-2.3 3.5l-2.5 0.8l0.3 3l0 3.8l-2.8 3.4l-0.8 4.5l3.3 0.2l3.8 -0.4l2.7 2.9l-0.8 3.1l-2.2 2.7l0.1 0l9.3 -0.9l16.4 -0.4l57.5 -0.6l123.8 -0.2l2.8 -0.4l71.5 0.3l133.9 0.6l118.1 -0.1l0.9 -0.1l32.9 -0.2l63.5 -0.4l117.1 0.1l180.9 1.5l7.1 0.8l16.6 0.8l17.3 2.5l8.3 -0.5l20.1 0.7l52.6 0.2l78.8 0.3l3.4 0.1l268.1 1.3l252.3 1.2l0 -219.3l-13.3 -0l-99.2 -0l-307.3 0l-0.6 -204.8l32.6 1.6l-0 -381.8l1.7 -4.3l-99 -0.1l-55.4 -8.7l0.1 -124.4l29.7 0l-0.1 -52l-51.5 0.1l-0 -45.9l-94.1 -0l0.2 -52l-103.6 0.2l0 -52l-207.1 0.1l0.2 -103.9l-72.1 -0l-135.6 -0.2l-0 69.4l-103.5 0.1l-0.1 34.7l-34.6 -0.1l0 34.5l-34.6 -0.2l0 34.6l-137.8 -0.1l-0.2 138.4l-18.3 -0l-0.1 122l-0 193.6l-102.8 -0l0 34.5l-102.5 0l-0.1 34.4l-107.3 0.1l-166.3 -4.3l-0.3 0l-5.1 6.1l-20.5 24.5l-8.8 58.4l-4.1 17.9l-4.7 21.2l-1.8 31l0.1 48.7l-0.2 65z" />
  </g>
  <g data-id="005">
    <path d="m5410.4 891.7l0 0l-0.1 90.2l14.8 0.1l-0.3 108.3l-3.6 327.9l-0 163.8l23.1 -7l19.7 16.8l19.3 7.2l22.7 -0.8l9.5 6.9l63 -37.9l30.7 -9.4l9.8 -14.7l15.9 -8.3l6.5 -20.2l36.9 -2.1l33 5l24.9 13.7l23 -1.6l55.7 -24.7l29.7 10.7l24.6 -13.2l18.6 0.6l15.3 12.4l14.3 1l-2.4 23.5l21 20.3l-24.6 24.3l5.3 9.6l20.2 -7.8l23.6 1.2l0 -168.8l2.3 -64.7l180.4 -0.7l38.4 3.5l1.9 -45.8l13.1 -42l7.5 -1.1l24.2 13.2l112.9 5.9l0.1 -302.9l18.8 0l0 -282.3l0.7 -4.4l4.7 9.9l37.9 3.2l10.7 19.2l0.1 -183l22.6 0l-0.1 -219l49.7 -0l0 -216.7l19.2 0.1l-0 -109.1l-127.1 0.4l-197 0.2l-207.6 -0.1l-102.5 0.1l-201.6 -1.2l-207.4 -0.3l-0 0l-0.1 109.5l-13.2 0.1l0.2 436.8l7 -0l0 6.4l-0 47.3l27.1 -0.1l0 91.2l-27 -0.1l-0.2 72.8l-18.1 0l-0.2 126.9l-27.1 -0z" />
  </g>
  <g data-id="007">
    <path d="m3548.4 3013.9l0 0l1.3 522.5l1.5 103.8l103.4 0.7l0.1 155l0.2 103.2l0.8 -0.4l3.2 -3.1l-0.1 -5.9l0.7 -3.7l2.6 -5.2l1.7 -3l3.6 1.2l1.1 1.4l1.9 1.4l3.4 -2l-1.1 -2.6l-1.3 -2.4l2.6 -8.2l2.5 -2.4l4.7 0.5l2.2 0.5l0.2 -2.2l1.7 -3l0.5 -3.2l4.3 -3.9l4.6 -4.2l1.5 -7.6l1.2 -6.8l4.7 -4.9l4.1 -4.9l4.9 -5.5l3.6 -6.6l8 -1.5l4.8 -3.3l5.5 -0.1l1.9 -3.4l3.5 -2.3l1.8 1.9l3.9 0.8l2.1 2.5l3.1 0.4l2.4 -2.7l0.4 -4.8l-0.2 -2.4l1.9 -1.6l2 0.7l0.5 2.3l4.5 -1.5l-0 -3.3l2 -4.1l2.9 -0l6.1 -2.2l3.6 -0l1.5 -1.4l2.9 1l1.4 1.2l2.3 -1l-0.7 -2l0.2 -3.9l5.2 -1.2l3.9 -2.8l2.9 -5.5l6.6 -5.5l6.4 -6.2l6.9 -6.6l3.6 -12.4l-0.3 -12.1l-0.2 -8.5l1 -9.7l1.3 -4.8l5 -4.7l4.1 1.9l5 6.3l4.3 0.5l7.5 -1.9l7.5 -2.5l4.6 -7.7l-4.4 -16.4l-5.1 -2.7l0.7 -7.1l3.4 -5.8l-0.9 -6.5l-0.6 -12l0.6 -8.9l-0.6 -11.6l6.7 -12.4l6.7 -13.4l10.2 -7.9l2.9 -7.4l-3.9 -10.7l1.3 -4.3l0.6 -1.1l1.8 0.5l1.5 1.3l1.6 0.8l2 1.8l1.8 0.7l0.6 -1.5l1.4 -1.4l0.4 -2.9l3.1 -5.8l2.2 -0.9l2 0.3l1.2 -0.1l0.8 -1.3l2.4 -1l2.7 -1l2.5 -0.7l3 -1.1l1.5 -1.6l2.1 -1.6l3 -7.9l2.3 -29.9l34.2 -42.1l34.1 0l59.5 -0.1l36.5 -6l72.7 -0l0.3 -3.5l0.6 -16l-0.9 -14.2l-3.5 -5l-2.7 -7.3l-9.3 -3.1l-1.7 -7.5l3.7 -7.4l0.3 -3.3l-3.1 -1.8l-5.9 -3.4l-7.4 -4.8l-3.4 -1.5l-3.2 -0l-2.3 -2.5l0.3 -2.2l-0.7 -2.7l-3 -1.5l-3.4 -0.7l-3.5 -3.9l-3.1 -2.8l-0.6 -5.6l0.7 -4.9l2.7 -10.4l1.4 -9.7l0.8 -14.3l4.4 -12.8l8.5 -14.8l7.8 -9.2l3.7 -7.5l5.8 -1.6l4.2 0.8l5.5 -4.3l0 -5.8l1.6 -8.2l-2.6 -7.5l-0.4 -6.1l3.6 -7.2l2.1 -7.3l-0.4 -7.1l3.8 -4.6l3.5 -7.8l-3.5 -7.7l-3.4 -2.8l-6.3 -2.6l-5.5 -5.6l-5.4 -4.1l-4.4 -3.7l-3.6 -4.2l-1.4 -3.4l-2.4 -5.3l-7.2 -1.3l-3.4 -1.9l-8.3 -3l-1.4 -5.4l2.7 -3.9l-2.1 -7.2l-3.7 0.5l-9.5 3.1l-11 0.7l-6.7 -0.2l-12.3 5.3l-2.4 11.2l-11.8 7.9l-12.5 2.3l-8.6 -3l-10.5 -0.9l-6.5 -6.7l-6.4 -2.3l-3.5 -7.3l0.8 -11.4l0.9 -7.1l-2.9 -12l-2.5 -10.3l-0.2 -6.8l0.9 -9.1l-1.5 -5.3l-5.5 -3.6l-2.5 1.9l-3.4 -2.1l-2.4 -4.5l-1.6 -6.1l-1.9 -8l-5.2 -10.8l-11.3 -6.5l-10.5 -2.3l-6 -0.3l-5.9 -4.7l-11.5 -4.9l-3.2 -4.9l0.8 -8l9.4 -8.3l3.8 -0.5l2.9 -5.3l0.2 -4.4l-3.3 -8.9l-7 -6.6l-0.7 -7.9l3.4 -7.1l-1.1 -7.5l-2.9 -11.9l2.7 -5.9l3.5 -3.7l0 -4.3l-1.9 -3.1l1.7 -6.8l-2 -5.1l-0.6 -2.3l-1.4 -4l-4.3 -0.4l-5.2 -0.5l-2.7 -0.4l-7 0.9l-7.4 -0.4l-4.2 -6.3l-4.8 -3.6l-3.8 -3.6l-8 1.9l-6.4 1.3l-7.2 2.5l-1.8 2.5l-3.6 -2.2l0.1 -4.1l1.3 -10l-1 -7.8l-2.1 -11.9l-2.9 -6.8l-4.6 -3.6l-2.9 -4.3l-7.1 -0.1l-7.2 -0.2l-3.6 0.1l-3 -1.9l0.7 -2.3l3.9 -3.8l1.9 -3.4l-0.6 -5.4l-2.2 -5.5l-5.1 -2.6l-4.8 -2l-2.6 -0.6l0.9 -3.2l2.3 -2.1l3.9 -5.7l2.5 -2l-0 -3.9l-2.6 -2.1l-4.9 -1.8l-2.2 -1.1l-1.2 -3l2.7 -2.2l1.4 -1.5l1.3 -1.4l-0.6 -0.6l0.1 -1.9l0.9 -1.4l0.2 -7.9l-0.7 -6.6l-2.5 -3l-4.1 -5.7l-7 -1.4l-4.1 -2.8l-3.5 -1.5l-3.4 -0.3l-6.1 -5.8l-3.7 -1.8l-9 3.6l-29.8 -11.7l-14.2 3.4l-4.6 -12.7l-16.4 -6.1l-12.9 4.4l-18.7 38.8l-11.9 9.9l-0.7 188.9l6.8 15.1l-129.9 0.6z" />
  </g>
  <g data-id="009">
    <path d="m5204.7 4690.5l0 0l0.2 194.7l39.8 0.7l72.5 -1.1l74.4 -0.1l156.4 -2.7l8.9 0.3l88.6 -0.8l4.9 -0.1l133.2 -0.7l17 7.4l17.3 -0l93.3 -0.2l222.5 -0.6l51.4 -0.1l35.7 -0.1l10.5 -0.1l54.3 1l191.1 -0.7l18.1 0.9l2.2 -2.7l0.8 -3.1l-2.7 -2.9l-3.8 0.4l-3.3 -0.2l0.8 -4.5l2.8 -3.4l-0 -3.8l-0.3 -3l2.5 -0.8l2.3 -3.5l-1.5 -3.5l0.1 -7.5l3.8 -8l3.4 -7.9l5.3 -2.8l5.3 0.8l3.1 1.1l2.7 -5.3l-4.5 -3.3l-5.8 -0.1l-5 -3.7l-0.1 -3.6l1.7 -4.6l3.8 0.2l4.8 -1.1l-1.7 -4.1l4.3 -9.2l3.3 -8.2l0.9 -8.7l4.3 -5.4l2.2 1.1l4.2 -3l1.2 -6l4.7 -2l-0.3 2.3l4 3.3l5.2 -2.2l1.3 -4.6l-2.9 -6.1l-3.4 -1.8l0.9 -4.2l3.8 2.3l4.4 -3.3l-0.4 -3.7l1.9 -5.6l-1.9 -4.8l-2.2 -1.1l4.4 -4.8l6.5 0.5l6.4 -5l2.1 -3l-0.6 -3.9l-2.6 -1.6l-3.2 -3.1l1.8 -3.2l-2.4 -7.2l1 -7l3.1 -1.5l3.8 -0.1l-0.5 -4.7l-3.6 -2.3l-0.4 -4l2.8 -1.1l3.8 -0.2l1.8 2.7l4.6 1.5l0.7 -3.7l2.1 -9.1l-0.2 -4.4l4.4 -2.5l3.9 3.7l4.8 0.5l0.7 -4.7l-3.8 -1.4l-3.6 -5l-1.5 -3.4l2.5 0l5.6 -3.8l-1.8 -2.5l2.3 -9l3.9 -2.7l-1 -6l-0.6 -2l6.3 -0.2l7.5 0.3l7.4 -3.1l-0.2 -2.1l-19.7 0l-36.7 -0l-47.4 0.2l-50.9 0.2l-27.2 0.2l-35.6 0.2l-43 0.9l-38.8 0.7l-32.5 0.5l-24.6 0.2l-14.5 0.2l-42 0.4l-49.1 -0.2l-20.3 -0.1l-5.5 -0l-7.5 -10l0 -8.9l0.2 -65l-0.1 -48.7l1.8 -31l4.7 -21.2l4.1 -17.9l8.8 -58.4l20.5 -24.5l5.1 -6.1l-43.9 0l-1 -69.5l-50.8 -0.2l-0.4 -34.5l-34.1 -0.2l-0.5 -42.3l17 -33.5l-0 -27.4l-13.8 4.5l-37 28.4l-15 -2.9l-25.3 13.1l-35.4 -0.4l-32.4 -16.3l-46.6 18.1l-9.1 12.4l-23.9 9.2l-49.3 -5.1l-0.4 76.7l-52.7 -0.1l-0.2 69.6l-137.1 0.2l-0 17.2l-51.5 0.1l0 17.2l-16.9 0l0.1 17.2l-34.3 -0.1l-0 17.2l-17.2 0l-0 17.2l-17.1 -0l0 17.2l-17.1 0l0 17.2l-17.1 0l-4.8 34.3l-17.1 -0l0 34.4l-17.2 0l0.3 51.3l-66.1 0l0.1 111.2l-92.3 0z" />
  </g>
  <g data-id="011">
    <path d="m9168.2 4472.1l0 0l-0 415.4l10.8 0.1l5 -0l0.9 -0.1l210.8 1.5l4.3 0.1l27.9 -0.5l51 1.1l1.1 -0.3l161.1 0.5l0.3 0l183.1 0.3l160.2 0.9l6.2 -0.2l9.2 -1.1l-0.5 -2.4l0.1 -145.6l-0.3 -1.1l-0.1 -103.8l-0.2 -145.6l0.1 -11.1l0.1 -34.2l-0.2 -22.8l-0.3 -82.1l-0.8 -33.3l0.4 -10.9l0.1 -4l-0.5 -42.5l0.1 -13.8l-0.2 -8.6l-0.5 -228.8l-1 -141.4l-0.2 -4.3l-0 -12l-75.6 0.1l-0 -104l-160.9 -2.2l-52.3 0.4l0.1 -101.3l-104.4 -0l-0 -97.7l-307.5 -0.5l-44.7 0l-0.1 418.7l-35.5 -0l-4.5 409.7l-0 107.6l-42.4 0z" />
  </g>
  <g data-id="013">
    <path d="m3332.1 1857.3l0 0l2.5 397.4l15.4 -8l14.9 10.4l-1.4 14.2l27 -6l-1.3 12.7l14.6 5.8l16.3 31.2l18.3 9.7l19.9 -0.1l-0 15.3l4.5 2.4l13.4 -9l71.3 -0.3l-0.8 262.8l110 0.4l99 0.1l-0.1 -106.4l211.6 -0.6l0 -13.1l105.6 -0l-0.1 -93.5l64.8 0.5l-2.6 18.8l5.9 33.3l-23.3 19.8l27.1 28.5l14.4 -4.2l48.8 4.9l69.4 29.9l18 18.1l17.3 25.8l9.7 -1.9l2.5 30.1l25.8 7.9l16.7 15.8l12.3 -10l5.7 10.2l25.5 14l-8 9.3l8.5 28l0.4 18.3l13.1 -4.8l16 12.5l16.1 -8.3l15.4 24.6l14.1 8.2l7.6 -6.8l-0 -16.5l13.8 0l-3.8 -105.7l-3.5 -105.8l-0.1 -104.1l-104.5 -0.8l3.1 -106.9l0.3 -62.1l-9 -0l0.1 -17.8l-8.9 -0l-0.2 -72.1l13.3 -0.1l4.4 13.3l-0.1 -76.2l106.7 0.1l-0.5 -70.7l-0.9 -36.7l-107 0.3l0.6 -98l-79.5 0.7l-13.2 -27.4l-8.7 -6.2l-14.6 12.4l-24.8 -6.2l-23 -20.3l-3.7 -9.6l-27.3 -0.9l-23.3 -12.3l-16.2 -19.8l10.7 -34.7l17.1 -35.4l9.2 -4.5l8.8 -25.4l9.3 -3.3l6.2 -20.8l-360.2 0.8l-0.2 0l-196.9 0.3l-17.4 0.1l0.2 106.9l-213.7 0l0.1 131l-32.8 1.2l-31 -3.9l-22.5 -13l-17.8 2.2z" />
  </g>
  <g data-id="015">
    <path d="m3863.9 1093.2l0 0l0.5 180.7l-0.3 358.6l360.2 -0.8l-6.2 20.8l-9.3 3.3l-8.8 25.4l-9.2 4.5l-17.1 35.4l-10.7 34.7l16.2 19.8l23.3 12.3l27.3 0.9l3.7 9.6l23 20.3l24.8 6.2l14.6 -12.4l8.7 6.2l13.2 27.4l79.5 -0.7l-0.6 98l107 -0.3l0.9 36.7l354.7 -0.2l45 1.7l10.3 -16.3l56.7 -24.6l0.2 -8.3l40 -29.9l23.4 4.9l23.3 -19.1l49.8 -37.4l36.4 -3.9l18.5 -19.4l-1.1 -30.3l6.1 -14.9l-4.4 -35.2l9.9 -24.5l4.1 -29.1l-7.7 -52.5l3.3 -25.7l68.1 10.8l27 0.8l37.6 -39.8l36.6 -5.8l22.3 8.5l22.5 -18.8l34.2 11.1l0 -163.8l3.6 -327.9l-53.1 2.6l-107.2 -0.5l0 -18l-0.1 -92.7l-99 3.2l-0.1 -108.8l-140 -0.1l-40.8 -0l-468.2 -0.5l-0.1 108.5l-108.5 0.2l-59.6 0l0.2 107.8l-484.5 1.2z" />
  </g>
  <g data-id="017">
    <path d="m8208 3847.9l0 0l-0.2 104.9l443.7 0.3l418.7 1.1l144.9 0.6l35.5 0l0.1 -418.7l44.7 -0l-0.1 -212.7l-16.4 0l-0.6 -203.9l144.3 0.1l-0.3 -158l-104.6 0.2l-0 52.6l-104.9 -0.3l0 35.1l-211.9 -1l0.1 -35.2l-175 -0.9l-0.2 -35.2l-35.4 -0.1l-0.1 -70.4l-70 0.1l-0.3 -105.6l-34.7 0.1l-0.1 -106.1l-178.6 0.2l-0 -35.1l-211.4 0.6l0.1 17.5l0.1 17.5l-28.5 0l0.2 251l0 170.9l-29 0l0.2 312.9l1.3 104.6l-31.8 0.1l0.1 312.6z" />
  </g>
  <g data-id="019">
    <path d="m8240.9 114.7l0 0l0 109.7l108.8 -0.1l-0 328.6l180.6 0.1l691.9 0.2l0.1 -109.4l-54.3 -0l0.3 -329l-16.3 -0l0.1 -112.2l-144.4 -0.3l-158.4 -0.4l-176.7 -0.2l-153.7 0.1l-193.3 0.3l-51.4 -0.1l0 112.6l-33.2 0z" />
  </g>
  <g data-id="021">
    <path d="m8861.5 1840.7l0 0l0.2 427.6l67.8 0.1l0.1 249.8l106.6 0l-0.2 70.7l106.1 0l-0 16.9l17.3 0.1l0 17.7l17.7 0.1l0 35.5l352.8 0.7l89.2 0l8.8 -17.6l17.6 0.1l8.8 -17.6l17.6 0.1l-0 -17.6l17.6 0.1l8.8 -35.4l26.4 -17.7l8.9 -35.4l26.6 -35.7l-0 -44.2l17.7 -0.1l0.3 -115.9l-8.8 -0.1l0.2 -53.5l-12.6 -17.5l0.1 -26.5l-8.8 0l0.1 -35.4l-8.9 0l-17.7 -35.5l-11.4 0l-0.1 -17.7l-26.7 -18l-9 -17.9l-17.4 -1.6l23.6 -31.6l1.9 -11.6l-77.4 -0.3l0.2 -215.1l-67.4 0.1l0.3 -107.3l-320.5 0l0.4 -107.6l-213.9 -0.4l0.2 -107.6l-107 0.1l-0.2 322.5l-35.9 0z" />
  </g>
  <g data-id="023">
    <path d="m2108.5 3771.7l0 0l1.1 1.5l17.2 3.1l22.9 60.1l22.1 36.1l9.8 29.6l-4.4 29.2l33.2 47.9l14.3 7.8l12.4 2.3l-1.2 -15.5l15.1 -40.7l8.6 -9.7l23 8.2l8.4 -14.6l18.9 0.8l21.2 -25.9l-4.2 -7.1l21.8 -25l26.6 -9.7l15.5 -12.8l64.9 4.2l12.3 25.2l20.6 -10.8l30.6 -2l8.3 -14.2l40.7 -26.6l4.2 -20.4l25.8 -5.1l5 -9.3l-12.6 -40.5l-0.5 -29.8l13.5 -13.8l32.5 8.1l13.2 -14.9l-1.9 -21.2l14.4 -24.3l62.5 0.1l0.2 -22.9l0 -0.5l0.3 -81.7l80 0.2l20.6 -20.7l13.2 -25.9l20.9 10.8l31.7 -16.3l2.9 -39.5l-20.3 -30.2l15.2 -5.9l17.5 -28.9l-398.2 -1.2l0 52.4l-206.2 0.7l-0.4 104.6l8.9 -0l0 91.8l-3 16.9l-48.1 47.8l-22.2 -2.1l-13.3 -13.8l-15.4 5.3l-2 16.5l-13.2 12.8l-21.3 10.1l-14.4 -3.5l-8.4 19.4l7.4 7l-17.2 27l-16.5 -10.4l-14.6 10z" />
  </g>
  <g data-id="025">
    <path d="m9278.3 3119.4l0 0l0.6 203.9l16.4 -0l0.1 212.7l307.5 0.5l0 97.7l104.4 0l-0.1 101.3l52.3 -0.4l160.9 2.2l0 104l75.6 -0.1l-1.2 -75.8l-1.1 -65.8l0.9 -148.5l0.4 -1.3l-0.2 -186.7l-0 -53.5l0 -20.9l-0 -30.1l-0.5 -20.6l0.9 -152.1l-0 -37.7l-0.1 -121.8l-0 -0.1l-257.7 0.1l0.1 -35.1l-52.7 -0.1l0 -17.5l-157.3 -0l0.1 35.1l-104.9 -0.4l-0.2 52.8l0.3 158l-144.3 -0.1z" />
  </g>
  <g data-id="027">
    <path d="m4859.2 1979.7l0 0l0.3 71.2l71 -0.3l0.2 107l106.1 -0.3l0.2 53.3l106.2 -0.2l0.4 53.4l96.1 -0.5l1 353.9l-17.6 0l0.1 17.6l-13.2 0l-4.3 17.6l-1.1 44l-30.6 0.1l0.1 26.4l4.4 8.8l26.4 -0l8.9 8.8l0.1 17.6l25.8 -0.2l0.2 43.9l8.8 -0.1l0.1 61l0 0.6l296.9 -0l-0 -70.1l316.1 0.8l314.8 1.6l0.6 -106.3l16.3 0l1.8 -318.9l-106.5 -0.1l0.6 -104.3l14 0.1l0.1 -106.6l106.6 0.3l0.2 -44.7l105.4 -0.4l106.1 -1.3l17.7 -8.9l-0 -265.7l2 -64.9l-16.3 4.2l-2.6 15.9l-12.1 -0.1l-4.9 -15.8l-18 3.2l-7.1 -17.8l-15.1 -3.8l-6.7 12.5l-13.7 -4.4l3.2 -19.4l-9 3.6l-5.5 -16.7l-12 -1.2l-14.7 21.6l-28.9 -3.6l1.4 -9.8l-15.5 -14.4l-10.4 8.5l-28.2 5.5l-32.1 -18.3l-17 5.9l-33.3 -0l-14.1 -14.7l-17.9 -1.6l-15.8 -21.1l-22.1 7.4l-13.5 -2.1l-15.2 -21.5l4.8 -23.7l-33.2 -34.8l-55.9 -30l-23.6 -1.2l-20.2 7.8l-5.3 -9.6l24.6 -24.3l-21 -20.3l2.4 -23.5l-14.3 -1l-15.3 -12.4l-18.6 -0.6l-24.6 13.2l-29.7 -10.7l-55.7 24.7l-23 1.6l-24.9 -13.7l-33 -5l-36.9 2.1l-6.5 20.2l-15.9 8.3l-9.8 14.7l-30.7 9.4l-63 37.9l-9.5 -6.9l-22.7 0.8l-19.3 -7.2l-19.7 -16.8l-23.1 7l-34.2 -11.1l-22.5 18.8l-22.3 -8.5l-36.6 5.8l-37.6 39.8l-27 -0.8l-68.1 -10.8l-3.3 25.7l7.7 52.5l-4.1 29.1l-9.9 24.5l4.4 35.2l-6.1 14.9l1.1 30.3l-18.5 19.4l-36.4 3.9l-49.8 37.4l-23.3 19.1l-23.4 -4.9l-40 29.9l-0.2 8.3l-56.7 24.6l-10.3 16.3l-45 -1.7z" />
  </g>
  <g data-id="029">
    <path d="m857.4 976.2l0 0l0.3 108.4l8 0l-0.5 151.4l-0 18l17.7 -0l0.1 162l106.8 0l35.3 -3.7l178.3 0.2l0.1 106.3l105.9 -0.1l-0.1 -106l-12.2 -0l-0 -107.6l103.3 -0l214.8 -0.6l59.6 -0l-4.7 -42.4l-11.4 -4.3l-3.2 12.4l-13.8 -41.1l23.3 0.2l0.3 -17.9l18 -0l-0.6 -17.8l120.3 -0.3l10.2 11.3l5.7 36l19.4 44.4l32.1 -2.5l26.1 27.7l-1.5 9l3.1 3.8l6.6 -5.1l8 0.8l4 -2.3l3.1 3.2l21.5 41.9l16.5 -0l22.2 25.3l5.6 16.7l-8.3 21.5l7.5 30.9l-2.8 35.1l-10.1 8.9l9.2 27.3l15 11.6l2.4 22.2l-11.9 12.2l3.8 13.2l15.7 18.9l30.5 -1.8l4.4 29.7l-6.1 42.4l-13.9 5.6l-2 45.3l-7.5 27.2l139.5 -0l117.1 5.6l151.1 0l-1.6 -14.8l8.8 -15.8l-7.3 -20.9l9.9 -2.4l3.5 -27l-14.9 -19.1l-16.2 -53.6l1.4 -12.7l21.5 -19.6l13.7 5.3l22.8 -2.4l11.2 -7.9l-1.5 -28.6l13.6 -3.9l5.4 -39.5l-7.8 -26.1l9.3 -16.6l0 -35.1l-4 -18.3l-24.7 -13.1l4.9 -27.4l19.3 -8.6l34.4 -2.5l6.9 -17.9l24.2 -15.5l27.7 11.6l32.7 -2.5l16.5 -37l11.1 0.8l-24.1 -67.4l-23.6 -6.8l-9 5.4l-3 -23.7l11.3 -6.9l-22.1 -24.2l-15.2 1.2l2.6 -18.3l-12.8 -12.3l9.1 -24l-14.4 -16.2l-11.8 -0.4l-12.8 -2.8l-17.5 14.9l-1.4 -24.4l-9.2 -11.3l-22.4 16.9l-36.5 -2.2l3.2 -9.1l-17.9 -7.2l-11.6 -17.7l-19.9 -12.2l-14.7 13.6l-19.2 -7.6l-5 -59.4l8.5 -20.4l-8.5 -16.1l-25.7 -15.9l-18.3 -6.7l-6.8 -23.7l-20.6 -4.3l-21.2 -19.3l-0.9 -8.9l-4.8 -7.8l-1.5 -0.2l-7.6 -5l-7.5 -5.1l0.1 -9.6l-6.1 -7.4l-2.9 -2.6l2.6 -4.4l3.7 -3.7l5.9 -8.2l10.7 -7.3l7.1 -6.1l7.7 -7.9l3.4 -9.8l2.1 -6.8l-2.9 -7.9l-8.3 -6.2l-2.2 -9.4l-0 -9.7l-0.8 -6.9l-4.4 -7.6l-8.9 -2l-9.9 4.6l-9.9 3.4l-8.9 -2l-9.3 -2.2l-4.6 -7l-5.5 -5.9l-8 -2.9l-5.2 -4.7l-3.2 -6.2l-5.8 -2.8l-5.9 -2.1l-5.7 -1.9l-5.1 -5l-4.3 -2.7l-3.1 -4.4l1.2 -6.5l3.6 -8.8l5.8 -6.9l-1.7 -10l-1.6 -8.4l3.4 -9.1l-0.6 -5.1l-4.3 -11.9l0.8 -10.2l0.1 -9.8l2.7 -11.4l-0.1 -8.4l1.2 -7.2l-6.7 -7.2l-10.4 -1l-9.2 -3.6l-10.4 -6.4l-2.6 -9.9l-5 -5.5l-8.8 -4.7l-6.8 -4.4l-2 -4.1l-4 -1.5l-4.8 1.8l-10.5 2.3l-7.3 1.5l-6.7 -3.8l-6.9 3l-3.6 5.6l-8.5 1.6l-7.3 -5.4l-2.9 -9.9l-7.2 -8.1l-4.5 -5.1l-6.6 -2.2l-5.9 4.3l-4.1 4.6l-6.3 6.4l-7.5 -0.1l-7.2 -4.9l-11.5 -2.2l-12.4 -1.3l-8.3 -4.6l-6 -3l-5.6 -3.3l-3.3 -5.2l-4.8 -2.8l-5.8 -3.4l-4.3 -3.6l-1.1 -7l3.8 -4.3l0.7 -9.3l0.9 -9.1l-0.8 -8.8l1.7 -9.6l3.7 -7.2l3.8 -8.2l4.4 -4.2l0.8 -5.5l-2.2 -5.2l-4.4 -7.9l-2.1 -6.6l-0.4 -3.2l4.7 -3.2l3.5 0.3l9.9 -3l4.3 -5.8l3.6 -7.1l1.2 -6.2l4 -6.9l-3.8 -7.6l-1.1 -5.4l0 -7.5l-2.8 -6.7l-4.7 -6l-8.7 -3l-5.7 -4.9l-4.5 -8.5l-2.1 -10.6l-9.6 -6.3l-6.9 -7.2l-2.1 -8.4l-2.8 -5.5l-1.9 -4.7l-2 -8.7l3.8 -6.8l6.6 -9.6l0.5 -5.2l0.8 -3.4l-1.2 -4.4l-4.8 -2.2l-7.5 -5.4l-5.8 -6.1l-2.6 -7.2l-3.1 -8.8l-5.3 -1.3l-5.3 4.8l-6.8 2.6l-6.3 -4.3l-0.5 -5.8l-9.7 -3.8l-8.9 -6l-4.5 0.3l-7.3 3.9l-7.3 3.7l-6 6.4l-3.2 4.6l-3.9 1.1l-5.2 -2l-5.4 -5.4l-9.5 -2.8l-4.5 -1.4l-2.7 1.1l-2.1 5.2l-5.3 10.7l-7.1 7.4l-8.4 3.9l-5 4.5l-4.8 3.8l-7.4 -0.6l-3.1 -4.4l-5.4 0l-1.4 2.4l-3.2 0l-2.5 -3.8l-5.9 -3.4l-8 -3.5l-3.7 -2.4l-2.1 -4.3l2.4 -2.6l5.2 -2.8l3.5 -6l-2.1 -9.9l-3.6 -6.4l-5.4 -5.4l-4.3 -5l-6.9 -0.5l-7.4 -8.5l-3.7 -7.9l-9.3 -6.6l-10.9 -5.4l-1.7 -5.4l4.4 -3.3l4.8 -0.2l10.7 -3.9l11.7 -7.8l3.6 -7.9l-1.6 -10.2l0.3 -7.5l-6.5 -8.1l-11 -1.3l-5.6 -1.1l-1.6 -7.1l2.5 -3.4l2.6 -10.3l7.3 -7.4l5.6 -10.1l-2.4 -1.5l-6.5 -1l-6.6 2l-7.4 -2.4l-4 -10.8l-1.9 -7.1l1.8 -5.8l-5.4 -8.3l-3.5 -8.6l-1.5 -2.7l-136.5 -1.7l-64.7 -0.7l-107.1 -0.4l-137.2 0.3l-103 0.5l-10.3 12.3l3.9 10.7l31.6 3.1l10 8.5l-10.2 24.6l-18.2 19.3l12.4 36l-5.9 24.8l14.5 20.9l1.7 40.6l-26.3 13.5l-7.7 27.5l15 10.3l35.7 2.8l-1.4 12.6l21 12.7l10.7 25.6l19.3 9.1l-5.9 11.7l-20.1 12.4l-29.5 10.4l-10.8 20.1l9 17.7l-9.1 19.8l29.9 10.5l14.1 14.7l-207.8 0.1l-0.1 107.3l32.4 0.1l1 218.6l0.4 217l-143.2 0.2z" />
  </g>
  <g data-id="031">
    <path d="m3534 3941.3l0 0l-0.1 13.8l35 -0.1l0 17l34.5 0.2l0.1 34.7l51.6 -0.1l-0 17.3l16.6 0l0 17.3l17.2 -0.1l-0 17.3l17.3 -0.1l0.1 17.7l17.1 -0.2l-0 17.3l17.2 -0.3l0 17.4l17.2 -0.5l0.1 17.4l153.9 0.4l1.1 346.1l-19.1 0l0.7 517.8l-4.1 188.5l2.1 1.4l7.1 9.4l-0.4 4.5l9.1 12.6l7.1 1.3l9.5 -7.5l10.1 9.9l14.9 19.8l30.8 46l-6.8 14.8l6.4 9.8l13.8 -4.5l23.7 32.4l-11.3 16.8l5.4 26.3l5.4 11.7l19.4 0.9l12.2 5.2l5 7.8l-0.1 11l5.8 6.5l15.5 8.1l18.9 11.2l-5.2 18.6l8.5 20l16.4 13.8l34 8.3l12.9 2.7l-2.3 -171.2l-0.1 -48.4l-0.1 -69.2l-0.8 -28.8l-0.4 -137l1 -78.7l-0.5 -2.7l0.8 -77l8.4 -0l5.4 -206.4l0.4 -207l100.1 0.1l-1.1 -206l50.8 -0l0.7 -78.2l52.1 -0l0.1 -27l-0.5 -105.4l-0.1 -48.9l0.1 -51.9l4.9 0l0.7 -173.3l-3.2 -68.9l7 -183.7l0.2 -61.2l-174.4 -0.1l-57.2 -0l-72.7 0l-36.5 6l-59.5 0.1l-34.1 -0l-34.2 42.1l-2.3 29.9l-3 7.9l-2.1 1.6l-1.5 1.6l-3 1.1l-2.5 0.7l-2.7 1l-2.4 1l-0.8 1.3l-1.2 0.1l-2 -0.3l-2.2 0.9l-3.1 5.8l-0.4 2.9l-1.4 1.4l-0.6 1.5l-1.8 -0.7l-2 -1.8l-1.6 -0.8l-1.5 -1.3l-1.8 -0.5l-0.6 1.1l-1.3 4.3l3.9 10.7l-2.9 7.4l-10.2 7.9l-6.7 13.4l-6.7 12.4l0.6 11.6l-0.6 8.9l0.6 12l0.9 6.5l-3.4 5.8l-0.7 7.1l5.1 2.7l4.4 16.4l-4.6 7.7l-7.5 2.5l-7.5 1.9l-4.3 -0.5l-5 -6.3l-4.1 -1.9l-5 4.7l-1.3 4.8l-1 9.7l0.2 8.5l0.3 12.1l-3.6 12.4l-6.9 6.6l-6.4 6.2l-6.6 5.5l-2.9 5.5l-3.9 2.8l-5.2 1.2l-0.2 3.9l0.7 2l-2.3 1l-1.4 -1.2l-2.9 -1l-1.5 1.4l-3.6 0l-6.1 2.2l-2.9 0l-2 4.1l0 3.3l-4.5 1.5l-0.5 -2.3l-2 -0.7l-1.9 1.6l0.2 2.4l-0.4 4.8l-2.4 2.7l-3.1 -0.4l-2.1 -2.5l-3.9 -0.8l-1.8 -1.9l-3.5 2.3l-1.9 3.4l-5.5 0.1l-4.8 3.3l-8 1.5l-3.6 6.6l-4.9 5.5l-4.1 4.9l-4.7 4.9l-1.2 6.8l-1.5 7.6l-4.6 4.2l-4.3 3.9l-0.5 3.2l-1.7 3l-0.2 2.2l-2.2 -0.5l-4.7 -0.5l-2.5 2.4l-2.6 8.2l1.3 2.4l1.1 2.6l-3.4 2l-1.9 -1.4l-1.1 -1.4l-3.6 -1.2l-1.7 3l-2.6 5.2l-0.7 3.7l0.1 5.9l-3.2 3.1l-0.8 0.4l-37.1 44.8l-18.6 3l-24 -12.9l-24.5 13.3l-16.7 -6.2z" />
  </g>
  <g data-id="033">
    <path d="m6730.1 2181.1l0 0l-1.6 2.9l2.5 3.2l3.3 1.4l3.7 1.3l2.9 -0.2l2.9 2.1l0.8 5.2l-2.6 2.4l-5.5 -2.6l-1.6 3.7l0.4 1.7l2.5 2l1.3 4.1l-0.7 3.5l-2.9 -2.2l-1.8 -3.2l-0.9 4.6l4.6 4.1l5.5 -0l-0.2 -1.5l3.9 0.7l1.7 1.9l-0 2.8l-1.2 0.3l2.6 3.4l4.5 5.7l-1.1 10.3l-5 4.1l-0.9 2.5l-2 3.4l-0.2 3.4l0.2 -0.3l4.1 1.1l4.7 0.1l4.2 4.5l-2 -1.1l-2.1 0.4l0.5 3.4l3.1 0.5l1 3.7l-2.8 2.3l-0.9 4.8l4.1 -1.1l-0.5 -2.9l3.8 0.4l1.9 1.3l-0.9 5l-3.2 1.6l-0.4 4.3l1.1 1.6l0.1 3.4l-3.6 2.5l-4.8 -3l-0.6 -2.3l-0.9 -1.3l-4.1 2.7l1.5 4.9l4.3 3.1l-0.6 5.5l1.8 3.3l-3.8 -1.1l-1.3 -3.5l-0.7 -1l-3.7 0.2l-4.2 0.3l2.1 5.3l2.6 4.1l4.7 5.6l3.7 4.7l-5.6 2.9l-4.4 -0.2l-4.3 1.4l0.8 2.7l1.9 -0.5l4.7 -1.7l3.3 0.1l0 4.8l-4.3 4.5l-2.2 1l-2.4 -1l-0.3 -3.9l-2.8 2.9l0.8 3.7l-2.5 3.8l1.3 3.4l1.7 2.5l5.4 1.5l1.8 -1.6l4.3 2.4l2.9 5l1.8 -0.1l3.8 4l-1.8 1.2l-0.9 -1.5l-2.1 -1.8l-1.4 1.3l-1.4 3.6l-4.5 0.8l-2.6 -1.7l-2 0.9l3 3.1l8.4 5.3l3.1 7.2l0.4 6.7l-2.6 6.9l-3.4 -0.8l1 4.4l1.9 -0.1l1.6 -0.4l1.4 4.1l1.3 3.6l3.1 -2.3l-0.5 -3.6l5.1 -0.3l2.4 2.4l-0.3 3.7l-3.2 2.6l-1.6 3.4l2.5 4.4l3.8 -1.3l3.2 -0l0.7 1.4l-2.5 2.5l-3.1 0.5l-1.9 1.7l-1.4 3l3.1 2.9l2.6 -0.9l0.9 0.8l-2.7 2l-1.7 3.7l-3 2l-0.9 -0.4l2.7 2.3l-1.3 6.5l-0.7 2.5l2.4 2l3.7 0.8l6 3.7l3 6.6l1.1 4.1l1.2 -0.3l0.8 0.1l-2.4 3.7l-6.1 0.1l-6.4 7.5l0.4 3.2l5.6 6.6l5.6 1.4l2.7 -3.6l0.7 -2.8l1.7 -1.5l3.1 3.3l1 6.4l2.5 5.1l1.4 -1.6l2.7 1l-0.2 3.4l0.7 4.5l2.8 1.6l-0.3 2.8l-2.7 1l-1.1 1.8l0.7 1.3l-0.7 2.5l-1.3 1.8l2.9 2.2l1.6 2.8l0.6 1.5l-3.3 3.4l-2.8 0.3l-0.8 -0.6l-1.4 2.8l2.3 2.2l2.8 1.1l-2.6 1.4l-2.3 -1.2l-4.4 2.9l-0.9 3.2l-2.3 1.2l-2.5 -1.1l-1.9 1.9l-2.3 -0.2l0.8 3l3.9 4.9l-0.6 4.1l-3.2 1.6l-0 1.6l2.7 2.4l0.9 4.7l-5.8 5.9l-1.3 6.1l2.9 4.1l3.1 0.6l0.7 -0.4l-1.3 4.7l-3.7 -0.6l-6 -0.3l-3.6 2.4l-0.3 3.7l3.3 1.5l2.9 -0l2 1.1l-3 1.3l-3.5 0.6l-2.5 2.6l1.1 1.1l0.9 2.6l3.1 1.5l-0.6 5l-4.4 -0.1l-5.1 -0.7l0.3 6.9l2.7 5l-2.6 7l0.5 3.6l-1.1 3.3l-3.9 0.9l-2.9 6l2.9 6.1l-2.6 8.1l1.2 4.6l5.1 0.1l4.1 -2.9l7.2 3l1.1 4.2l-1.6 3.2l6 3.7l5.3 2.1l2.5 -0.8l0.6 4.5l-2.1 2.1l-1.1 5.1l4.6 3.9l7.3 1.6l353.4 0.1l0 -9.9l622.4 -0.4l-0.1 17.6l527.7 -0.9l-0.1 -17.5l-0.2 -391.6l-69.6 0.1l-0.2 -213.1l-106.1 0.2l0.1 -215.1l30.8 -0l0.2 -419.8l-80.9 0l-0.2 -110.3l-50.2 -0.3l-12.4 -9.2l3.8 -14l-15.4 -8.3l-4.2 15.5l-41.1 15.1l-5.9 14.6l16.8 17.3l-8.2 22.4l-26.9 13.6l17.3 15.4l-0.2 15.1l-16.9 -2.3l-10.5 7.3l13.5 17.3l-1.8 13.6l-28.3 11.5l4.8 15.1l-11.3 19.4l-32.6 10l5.9 25l-5.6 9.3l-10 -16.9l-26 0.7l-7.3 23l-13 -5.2l-28.8 4.7l0.4 20.9l-19.2 26.1l-21.4 3.3l-21.2 -13.7l-40.4 -1.1l-22.9 7.5l-14.6 23.9l7.8 19.6l-9.4 29.9l-9.7 4.1l-27.3 6.6l-15.8 -8.4l-13.5 5.1l-32 -1.9l-10.1 13l-49.3 0.9l-36.3 -8.2l-37.2 1.5l-13.5 7.3l-61.5 0.4l-29.4 -23.3l-39.5 -0.3l-23.7 -13l-45.5 -0.6l-11 17.8l6.9 18.6l-16.1 19.2l-0.8 26.3l-9.5 4.1l-39.8 -2.3l-17.9 -23.4l-27.4 -4.2l-11.6 4.2l-22.2 -8.4l-13.8 2.9l-5.2 19.5l-17 -21.3l-14 -4.6l6.4 28.6l-12.7 10.6l-7.6 -11.1l-19.6 0.2l-12.4 36.4l-18.3 18.3l-0.6 16.7l-25.7 10.4l1 19l-13.3 5.4l-12.5 -11.8l-2.8 9l-17.5 -0.5l-18.5 14.6l-2.3 11.7l-18.9 13.8l12 26.9l-13.1 11.6l2.2 32.6l-37.9 6.6l-3.5 3l-3.7 2.2l0.6 3.9l1.8 1.2l-2.2 3.6l-2.3 1.3l1.9 1.9l3.1 3.1l3.2 4.9l-0.6 9.1l1.2 5.3l-4.4 2.4l-4.5 -0.1l1.4 3.4l5 0.2l3.1 0.6l-2.3 3.9l0.8 6.5l-0.4 3.3l-3.9 2.8l-5 3.2l-4.4 6.3l1.9 3.3l0.6 2.8l-5.2 -0.7l-5.1 2.5l1.9 3.4l1.5 -0.7l1.7 3.4l0.5 2.1l-4.7 2.6l-3.7 -0.7l-1 4.5l1.2 0.1l-1.1 2.9l-1.3 -0.2l0.9 2.4l1.6 2.4l-3.9 2.3l-5.9 3.6l-2.9 4.5l2.2 2.4l-2.1 3.2l-3.2 -0.4l-3.1 3.6l1.6 4.2l5.8 4.1l-0.1 5.1l-2.6 0.9l-1.5 7.2l-3.2 4.6l3 5.3l2.9 -0l1 2.7l-2.3 3.7l-0.3 4.4l2.5 -1.7l-1 -2.2l2.6 -0.5l1 1.8l2.6 -0.4l3.2 -1.9l1.8 0.2l3.1 1.1l2 1.3l-2 2.1l-2.9 2.1l-7.2 1l-5.5 10.5l3.3 5.5l3.6 -0.4l1.8 3.3l-2.8 2.5l-2.1 3.6l-7.3 2.5l-1.4 3.6l2.3 1.8l3 -0.9l5.8 3l-0.7 3.4l-4 -0.2l-5 4l-0.7 3.1l-1.7 3l3.3 2.3l4.1 -0.6l1.7 5.5l1 2.7l-1.5 1.5l-1.8 -2.2l0.5 -1.2l-1.3 0.9l-3.5 1.5l-1.7 4.4l4.3 3.7l4 1.9l4.5 2.1l-2 2.8l-4.9 -0.3l-5.5 -0.6l-3.1 4.4z" />
  </g>
  <g data-id="035">
    <path d="m1649.9 2.8l0 0l1.5 2.7l3.5 8.6l5.4 8.3l-1.8 5.8l1.9 7.1l4 10.8l7.4 2.4l6.6 -2l6.5 1l2.4 1.5l-5.6 10.1l-7.3 7.4l-2.6 10.3l-2.5 3.4l1.6 7.1l5.6 1.1l11 1.3l6.5 8.1l-0.3 7.5l1.6 10.2l-3.6 7.9l-11.7 7.8l-10.7 3.9l-4.8 0.2l-4.4 3.3l1.7 5.4l10.9 5.4l9.3 6.6l3.7 7.9l7.4 8.5l6.9 0.5l4.3 5l5.4 5.4l3.6 6.4l2.1 9.9l-3.5 6l-5.2 2.8l-2.4 2.6l2.1 4.3l3.7 2.4l8 3.5l5.9 3.4l2.5 3.8l3.2 0l1.4 -2.4l5.4 -0l3.1 4.4l7.4 0.6l4.8 -3.8l5 -4.5l8.4 -3.9l7.1 -7.4l5.3 -10.7l2.1 -5.2l2.7 -1.1l4.5 1.4l9.5 2.8l5.4 5.4l5.2 2l3.9 -1.1l3.2 -4.6l6 -6.4l7.3 -3.7l7.3 -3.9l4.5 -0.3l8.9 6l9.7 3.8l0.5 5.8l6.3 4.3l6.8 -2.6l5.3 -4.8l5.3 1.3l3.1 8.8l2.6 7.2l5.8 6.1l7.5 5.4l4.8 2.2l1.2 4.4l-0.8 3.4l-0.5 5.2l-6.6 9.6l-3.8 6.8l2 8.7l1.9 4.7l2.8 5.5l2.1 8.4l6.9 7.2l9.6 6.3l2.1 10.6l4.5 8.5l5.7 4.9l8.7 3l4.7 6l2.8 6.7l-0 7.5l1.1 5.4l3.8 7.6l-4 6.9l-1.2 6.2l-3.6 7.1l-4.3 5.8l-9.9 3l-3.5 -0.3l-4.7 3.2l0.4 3.2l2.1 6.6l4.4 7.9l2.2 5.2l-0.8 5.5l-4.4 4.2l-3.8 8.2l-3.7 7.2l-1.7 9.6l0.8 8.8l-0.9 9.1l-0.7 9.3l-3.8 4.3l1.1 7l4.3 3.6l5.8 3.4l4.8 2.8l3.3 5.2l5.6 3.3l6 3l8.3 4.6l12.4 1.3l11.5 2.2l7.2 4.9l7.5 0.1l6.3 -6.4l4.1 -4.6l5.9 -4.3l6.6 2.2l4.5 5.1l7.2 8.1l2.9 9.9l7.3 5.4l8.5 -1.6l3.6 -5.6l6.9 -3l6.7 3.8l7.3 -1.5l10.5 -2.3l4.8 -1.8l4 1.5l2 4.1l6.8 4.4l8.8 4.7l5 5.5l2.6 9.9l10.4 6.4l9.2 3.6l10.4 1l6.7 7.2l-1.2 7.2l0.1 8.4l-2.7 11.4l-0.1 9.8l-0.8 10.2l4.3 11.9l0.6 5.1l-3.4 9.1l1.6 8.4l1.7 10l-5.8 6.9l-3.6 8.8l-1.2 6.5l3.1 4.4l4.3 2.7l5.1 5l5.7 1.9l5.9 2.1l5.8 2.8l3.2 6.2l5.2 4.7l8 2.9l5.5 5.9l4.6 7l9.3 2.2l8.9 2l9.9 -3.4l9.9 -4.6l8.9 2l4.4 7.6l0.8 6.9l0 9.7l2.2 9.4l8.3 6.2l2.9 7.9l-2.1 6.8l-3.4 9.8l-7.7 7.9l-7.1 6.1l-10.7 7.3l-5.9 8.2l-3.7 3.7l-2.6 4.4l2.9 2.6l6.1 7.4l-0.1 9.6l7.5 5.1l7.6 5l1.5 0.2l4.8 7.8l639.3 0.4l4.5 -0.5l-1 -81.7l0.1 -135.3l289.7 -0.3l18.2 8.3l18.7 -0.7l-3.6 -111.7l-0 -91.2l0.1 -347.5l-3.7 -107.1l-180.4 -0.2l-132 -0.1l-158.3 0.2l-134.5 -0l-162.6 0.4l-200.9 0.6l-125.1 0.1l-218.9 -0.2l-248.3 -1.2z" />
  </g>
  <g data-id="037">
    <path d="m5325.2 3436.5l0 0l0 104.5l41.3 -0l-0.8 105l156.5 0.3l0.8 -105.2l409.3 0l120.6 -0.1l0.4 -174.4l-17.4 -0l-0.1 -35l-17.4 -0l-0 -17.5l-8.7 0l0.3 -35.1l-8.7 0l0.3 -17.5l-17.4 -0l1.2 -105.1l-17.5 -0.1l1.4 -45.9l-20.9 -0.1l0.3 -105.4l-70 -1.1l0.2 -52.6l-17.7 0.1l0.3 -157.2l-316.1 -0.8l0 70.1l0.5 245.9l-12.5 -0l0.5 326.9l-209 0.4z" />
  </g>
  <g data-id="039">
    <path d="m1808 3094.1l0 0l10.4 13.4l13.9 61.8l-7 26l31.2 15l3 9.6l0.6 2.4l5.3 6.4l7.2 8l2.9 12.2l7.6 4.4l1.2 5.5l3.2 5.6l-2.7 11.3l1.3 13.5l1.3 10.8l4.3 7.6l4 8.4l-1.4 7.7l-3.8 6.9l-2.3 5.8l-2.3 6.7l0.6 6.1l-0.3 7.3l4.9 4.3l10.5 6.1l10.4 3.7l3.7 5.1l-2.4 7.1l-5.3 5.1l-4.2 14.7l-6.4 2.5l-3.2 3.1l-2.5 6.4l1.2 4.7l-0.7 7.4l-4 1.6l-8 3.8l-6.2 4l-7.4 1.8l-7.8 3.2l-4.4 8.3l-0.3 8.2l3 6.6l1.5 5.8l4.4 2.3l5.5 -2.6l3.1 0.5l1.6 3.5l4.2 4.3l4.9 3.2l2.2 0.9l0.2 2.5l-1.8 2.1l-2.2 3l0.4 6.6l0.1 4.8l-0.1 5.9l-2 5.3l-0.7 6.1l3.2 3.3l5.1 4.5l3.3 2.4l2.2 4.3l-0.6 2.5l0.8 3.2l3.4 0.7l4.7 5.4l2.1 6.9l5.7 6.5l3.6 5.9l-6.6 12.2l-5.3 5.2l-2.8 11.3l-1.1 5.6l-4.4 4.2l-6.6 6.9l-0.3 5.5l-2.4 4.7l-2.8 5.6l-2.2 9.8l-6.7 5.8l1.2 8l-1.4 3.9l4.2 4.6l3.9 0.5l8.9 3.5l5.6 0.9l4.8 3.4l4.9 -1.1l3.5 -3.1l1.9 -6.8l1.9 -4.4l2.2 -6.2l5 -2l4.9 1.2l5 6.8l3.2 3.9l10 -0.8l9.4 -0.2l9.7 2.3l6.5 2l0.9 3.1l-2 5.6l3.2 5.8l6.9 1.2l3.2 -1.3l1.4 3.6l-2.3 3.9l1.3 4.1l1.3 5.5l1.2 5.5l2.6 7.8l-0.6 7.1l3.6 8l0.9 6.9l5.2 5l5.1 10.4l6.3 3.9l5.7 -2.6l6.1 -1.9l7.3 -2.4l2.6 -0.9l3.1 5.1l0.4 4.9l-0.2 5.8l3.1 7.3l4.6 3l6.3 -1.6l5.2 3.7l3.8 -0.5l3.8 2.5l1.1 3.7l3.3 3.9l3.2 -2.1l7.4 -2.6l5.3 -3.6l5.1 -0.7l4.2 0.2l4.7 1.7l6.3 -0.5l6.3 3l3.1 2.2l2.9 1l14.6 -10l16.5 10.4l17.2 -27l-7.4 -7l8.4 -19.4l14.4 3.5l21.3 -10.1l13.2 -12.8l2 -16.5l15.4 -5.3l13.3 13.8l22.2 2.1l48.1 -47.8l3 -16.9l-0 -91.8l-8.9 0l0.4 -104.6l206.2 -0.7l-0 -52.4l0.1 -156.6l0.6 -6.4l-1.9 -98.8l-0.7 -305.1l-18.6 5.1l-14.2 13.1l-30.9 8.7l-14.1 -15.3l-28.1 -9.1l-9.4 3.3l-4.3 -17.6l8 -10.7l-31.8 -30.7l-14 -4.8l-11.9 -22.1l0.5 -15.1l-19.9 -14.8l-8.3 16.1l-13 7.1l-0.1 -30.7l-9.5 0l-94.7 0.1l-0.4 36l-52.2 -0.3l-0 70.6l-54.3 0.1l-5.4 20.2l-0 13.9l-97.1 0.3l0.1 70.2l-104.5 0.2l-28.5 -3.3l8.4 28.6l12 9l-11 18.3l3.9 31.2l-19.6 6.1l5.4 16.1l-13.7 29.2l-3.2 36.1l-24.5 16.4z" />
  </g>
  <g data-id="041">
    <path d="m4412.5 549.1l0 0l-4.8 435l108.5 -0.2l0.1 -108.5l468.2 0.5l40.8 0l140 0.1l0.1 108.8l99 -3.2l0.1 92.7l-0 18l107.2 0.5l53.1 -2.6l0.3 -108.3l-14.8 -0.1l0.1 -90.2l27.1 0l0.2 -126.9l18.1 -0l0.2 -72.8l27 0.1l0 -91.2l-27.1 0.1l0 -47.3l-0 -6.4l-7 0l-0.2 -436.8l13.2 -0.1l0.1 -109.5l-150.4 0.3l-300.6 0.6l-276.6 0.6l-96.2 0.2l-43.3 0.1l-38.2 0.1l-138.3 0.3l0.3 107.2l-6.2 438.8z" />
  </g>
  <g data-id="043">
    <path d="m2889.3 3409.5l0 0l-15.2 5.9l20.3 30.2l-2.9 39.5l26.5 4.8l16.2 -12.1l17 0.9l-9.7 22.2l3.8 9.7l-6.2 25.7l20.1 33.1l24.6 19.1l3.8 20.5l-12.7 29l3.6 15l10.9 3l12 3.5l7.8 24l-7.1 20.2l11.8 46.2l-5.3 21.6l16.4 22.6l-2.6 4.3l-0.9 9.2l13.7 26.5l-21.8 40.5l3.4 12.5l10.2 8.4l122.7 60.2l11.2 19.2l32.2 5.5l20.4 20.5l17.9 -1.8l26.8 -25.9l-0.6 -11.4l20.9 -28.9l-5.5 -8.3l10.6 -34.4l30.4 -13.6l16.5 3.6l22.5 -10.9l32.3 14.7l16 -7.7l6.4 3.7l23.6 -8.5l13.5 32.2l23.4 -0.7l10.3 15l24.2 -3.9l29.8 14l1.6 13.5l16.7 6.2l24.5 -13.3l24 12.9l18.6 -3l37.1 -44.8l-0.2 -103.2l-0.1 -155l-103.4 -0.7l-1.5 -103.8l-1.3 -522.5l-24.6 -0.1l-168.1 0.9l-11.6 3.1l-0.2 27.9l-8.7 11.2l-32.8 20.8l-31.1 2.3l-12 -8.7l-13.8 12.2l-26.6 12.9l-18.3 1.6l2.3 24.3l19.4 10.5l2.9 17.7l-10.2 7.1l-22.3 0.1l-4.1 17.2l-18.6 16.5l-21.5 9.1l-15.5 -8.4l-19.6 0.9l-22.1 21.1l-10.4 22.1l-45.1 -1.5l-18.6 21.2l0.1 13.9l-21.1 9l-2.3 25.4l-14.7 -14l-22.3 -1.8l-4.5 14.3l-24.4 -1.5l-30.6 31.9l9.5 47.2l-17.5 28.9z" />
  </g>
  <g data-id="045">
    <path d="m4380.7 2113.5l0 0l0.2 72.1l8.9 0l-0.1 17.8l9 0l-0.3 62.1l-3.1 106.9l104.5 0.8l0.1 104.1l3.5 105.8l3.8 105.7l-13.8 -0l0 16.5l7 9.1l-4.2 17.9l24 35.6l47.4 1l4.9 14.7l-5.4 24.8l12.3 7l21 24.7l15 0l7.1 12.3l12.3 1.4l13.7 27.8l24.5 -9.4l12.7 10l18.7 -12.3l20.2 -5.8l21.5 12.7l4.4 12l13.1 -0.7l2.6 -15.2l18.9 -3.5l24.5 -26.5l52.1 2.4l16 -20.8l28.5 11.2l25.1 -3.1l9.5 -24.2l24.6 -9.8l28.8 -3l18.8 16l49.6 -20.3l27.7 18.4l33.6 14.4l31.6 21.5l10.5 -3.1l21.1 21.1l61.7 -0.8l-0.1 -61l-8.8 0.1l-0.2 -43.9l-25.8 0.2l-0.1 -17.6l-8.9 -8.8l-26.4 0l-4.4 -8.8l-0.1 -26.4l30.6 -0.1l1.1 -44l4.3 -17.6l13.2 -0l-0.1 -17.6l17.6 -0l-1 -353.9l-96.1 0.5l-0.4 -53.4l-106.2 0.2l-0.2 -53.3l-106.1 0.3l-0.2 -107l-71 0.3l-0.3 -71.2l-354.7 0.2l0.5 70.7l-106.7 -0.1l0.1 76.2l-4.4 -13.3l-13.3 0.1z" />
  </g>
  <g data-id="047">
    <path d="m1203.4 1518.9l0 0l-0.3 53.8l17 0.1l0.6 178.8l194.3 -0.5l7.9 15.8l15.6 -8.2l-14.5 13.5l0.3 19.3l8.4 14.6l-27.9 20.2l-1.4 25.1l-16 46.3l11 2.7l16.6 -19.2l43 0.8l12.1 34l-17.1 7.9l-17.8 -6.2l-0.4 18.8l-11.7 13.9l-1.9 40.3l-8.4 22.1l24.1 30.5l-1.1 10.6l16.8 -7.5l13.9 8.2l71.2 0.2l-0.1 213.3l13.4 0l-0.1 53.5l211.2 -0.1l-0.1 -53.2l93.4 0l-2.4 -106.6l-0 -7l-16 2.9l-9.9 -15.9l-12.8 -3.9l-10 -24.4l-14.9 -4l11.4 -8l4.3 -25.4l-6 -20.3l9.8 -18.6l5.1 -26.9l-16.8 -30.5l0.4 -18.3l-10.7 -19.6l-23.9 -12.3l3 -10.2l-18.7 -12.4l13.1 -27.1l17.7 -3.6l4.7 -16.6l-15.9 -7.6l-1.5 -23.4l8.3 -12.2l-10.6 -34.2l1.6 -26.3l-15.4 -1.8l262.1 -0l7.5 -27.2l2 -45.3l13.9 -5.6l6.1 -42.4l-4.4 -29.7l-30.5 1.8l-15.7 -18.9l-3.8 -13.2l11.9 -12.2l-2.4 -22.2l-15 -11.6l-9.2 -27.3l10.1 -8.9l2.8 -35.1l-7.5 -30.9l8.3 -21.5l-5.6 -16.7l-22.2 -25.3l-16.5 0l-21.5 -41.9l-3.1 -3.2l-4 2.3l-8 -0.8l-6.6 5.1l-3.1 -3.8l1.5 -9l-26.1 -27.7l-32.1 2.5l-19.4 -44.4l-5.7 -36l-10.2 -11.3l-120.3 0.3l0.6 17.8l-18 0l-0.3 17.9l-23.3 -0.2l13.8 41.1l3.2 -12.4l11.4 4.3l4.7 42.4l-59.6 0l-214.8 0.6l-103.3 0l0 107.6l12.2 0l0.1 106l-105.9 0.1z" />
  </g>
  <g data-id="049">
    <path d="m2402.7 1593l0 0l-1.4 12.7l16.2 53.6l14.9 19.1l-3.5 27l-9.9 2.4l7.3 20.9l-8.8 15.8l1.6 14.8l22.2 30.9l-5.8 15.4l1.3 52.1l7.1 31.2l19.2 12.3l26.7 -9.6l0.2 379.2l219.2 3.1l0 290.3l0.1 131.3l106.1 0.1l110.3 -3.2l0.1 163.8l103.9 -0l0.2 52.8l74.7 0.1l18.9 45.9l4.2 15.8l-19.6 37.2l7.5 30.4l11.7 22l0.3 16l-10.8 9.1l3.7 24.8l-2.3 48.3l-13.8 7.9l-1.9 12.1l10.7 14.7l19.6 -0.9l15.5 8.4l21.5 -9.1l18.6 -16.5l4.1 -17.2l22.3 -0.1l10.2 -7.1l-2.9 -17.7l-19.4 -10.5l-2.3 -24.3l18.3 -1.6l26.6 -12.9l13.8 -12.2l12 8.7l31.1 -2.3l32.8 -20.8l8.7 -11.2l0.2 -27.9l11.6 -3.1l168.1 -0.9l24.6 0.1l129.9 -0.6l-6.8 -15.1l0.7 -188.9l11.9 -9.9l18.7 -38.8l12.9 -4.4l16.4 6.1l4.6 12.7l14.2 -3.4l29.8 11.7l9 -3.6l1.7 -33.8l-23.1 -32.6l-7.1 15.4l-34.3 -6.9l-21.3 2.7l-23.7 -30l-9.9 0.5l-5.2 -13.7l8.6 -9.3l-3.1 -17.4l25.5 -16l-0.1 -16.8l-12.6 -13l-28.5 -12.8l-110 -0.4l0.8 -262.8l-71.3 0.3l-13.4 9l-4.5 -2.4l0 -15.3l-19.9 0.1l-18.3 -9.7l-16.3 -31.2l-14.6 -5.8l1.3 -12.7l-27 6l1.4 -14.2l-14.9 -10.4l-15.4 8l-2.5 -397.4l-3.5 1.2l-9.5 -2.3l-3.9 3.8l-6.1 1.7l-3.2 -3.8l-7 -0.2l-4.9 5.3l-7.9 0.5l-2.2 3.6l-4.4 0.8l-4.8 -0.5l-4 -4.5l-8.1 -1.1l-7.6 -3l-4 -1.4l-4 1.5l-3.7 2.8l-7.3 2.2l-7.9 0.4l-3.2 -3.3l-7.3 2.7l-5.4 4.5l-8.4 1.6l-4.8 4.2l-4.6 -1.4l-2.4 -5.1l-7.7 0.1l-6.9 0.6l-8.5 0.2l-6.7 -4l-10.4 2l-6.6 1.5l-6.6 1.1l-2.4 -4.7l-3.7 -6.6l-4.5 -8.3l-7.9 -4.5l-5.8 -3.1l-2.2 -8.9l-4.4 -6.9l-8 -2.3l-5.1 1.2l-3.7 2.9l-6.1 -2.3l1.3 -5l0.4 -4.6l-7.2 -1.1l-6 1.3l-10.3 3l-7.3 -2.6l-6.8 -3.8l-8.9 -0.6l-4.5 0.2l-3.4 -5.8l2.8 -4.1l1.5 -5.8l-3.6 -6.8l1.8 -4.6l-2.6 -4.7l-3.1 0.8l-5.6 -6.3l1.6 -6.6l-2 -5.9l-1.4 -8.2l-6.9 -4.9l-3 -3.4l-6.2 -0l-6 -2.2l-6.1 -2.9l-8.5 -1.2l-8.4 -3.7l-8 -1.1l-4.5 2.4l-5.6 -2.8l-2 -2.6l-2.6 -4l-3.9 1.7l-3.6 -2.1l-3.9 -4.5l1.1 -5.3l-4.3 -4.8l0.2 -6.4l0.4 -4.1l-6.4 -0.3l-4.3 -1.4l-6.1 -4.7l-2.2 0.2l-1.7 -1.3l-1 -3.1l-5 -2.2l-2.7 1.7l-2.2 5.1l-5 4.5l-0.8 4.2l-2.9 2.7l-6.2 3.1l-8 0.4l-6.8 -0.6l-6.2 2.4l-4.8 -0.6l-6.1 -2.6l-7.5 2.6l-3.8 4.1l-3.9 3.5l-5.8 0.1l-3.4 5.8l-7.7 1.1l-4.3 -1.2l-4.6 0.9l-0.2 3.1l-3.1 1.4l-3.1 -2.9l-2.3 -1.3l-2.5 1.1l-3.9 2.6l-0.7 2.3l-3.5 2.3l-3.5 -2.4l-2.4 -3.5l-3.6 -3.2l-4.6 1.6l-6.8 2l-7.1 3.9l-7.3 -1.6l-6 4.8l-4.1 5l-7.4 2.2l-3.8 0.7l-3.6 1.9l-1.3 4.7l-7.5 3.4l-9.1 0.8l-9.9 -5.1l-8.5 -9.6l-6.6 0.5l-7.7 2.3l-7.1 -6.4l-6.1 -7.8l-5.2 -4.4l-4.3 -6.2l-8.4 -2.3l-2.9 -9.8l-7.2 -10.5l-6 -6.3l-2.4 -9.6l-5.7 -7.2l-5.6 -11.3l-4.8 -4.2l-4.4 -6.7l-3 -6.8l-2.8 -4.6l0.4 -11.3l4.6 -7l0 -13.5l0.5 -9.7l0.3 -6.4l-3.7 -7.5l-5 -6.6l-4.1 -13.3l-6.3 -9.7l4.1 -10.7l0.4 -8.8l-0.4 -8.6l1.4 -9l0.7 -5.5l1.6 -10.6l-0.2 -7.1l0.5 -9.8l1.5 -9.1l-1.8 -9.2l-1.2 -7.4l-6.2 -6.9l-0.1 -5.5l-1.8 -5.5l-0.5 -9.5l-7.9 -6.7l-4.9 -6.2l-2.4 -5.9l-3.2 -11.9l1.3 -8.1l-2.4 -7.7l-4.3 -12.3l-9 -3.9l-6.1 -6.4l-1.1 -13.3l-3.4 -19.5l-2.9 -12.7l-0.8 -1.7l-24.2 15.5l-6.9 17.9l-34.4 2.5l-19.3 8.6l-4.9 27.4l24.7 13.1l4 18.3l-0 35.1l-9.3 16.6l7.8 26.1l-5.4 39.5l-13.6 3.9l1.5 28.6l-11.2 7.9l-22.8 2.4l-13.7 -5.3l-21.5 19.6z" />
  </g>
  <g data-id="051">
    <path d="m3863.9 984.2l0 0l-0.1 109l484.5 -1.2l-0.2 -107.8l59.6 -0l4.8 -435l6.2 -438.8l-0.3 -107.2l-119.6 0.6l-0.6 0l-97 0.7l-221.4 0.4l-0.1 101.7l-2.8 3.7l-1.8 438.9l0.2 435l-111.3 -0z" />
  </g>
  <g data-id="053">
    <path d="m0.7 656.6l0 0l-0.7 85l0.9 129.9l-0.7 44l0.3 30.9l-0.5 15.4l0.2 26.6l27.4 12.4l-1.1 45.8l11.2 14.6l29 3.7l10.8 7.2l16.6 -43.8l23.8 1.8l6 -14l37.4 -20.9l20.4 -0.8l1.8 -7.6l24.3 -6.8l14.7 -21.1l9.3 -24.2l23.5 -3.9l20.3 12l16.7 17.6l4.3 16.8l4.2 3l3.8 5.6l3.4 6.7l4.9 6.5l-0.5 4.9l0 7.4l-0.2 2.7l-1.9 1.3l-3.9 0.7l-2.7 5.5l-4.7 7.7l-2.7 5.5l-0.9 4.4l0.9 9.5l5.9 3.9l9.2 1.6l3 4.7l4.2 7.2l4.5 4.1l4.5 4.6l-0.8 4.5l2.7 5.2l6.2 8.7l-1.8 11.4l5.6 7.5l1 5.8l2.5 7.3l-0 8.5l-0.1 5.8l3.5 6.3l-1.1 6.2l-2.6 5.3l-2 0.3l1.2 3.4l1.3 3.2l4.7 3.5l4.8 3.4l4.5 5.4l2.5 2.6l6.3 3.8l1.5 3.6l-1.5 5.9l-0.9 5.2l3.4 4.8l4.3 3.7l0.9 3.5l0.9 5.5l4.8 4.4l4.2 4.7l2.2 3.9l5.3 4.4l7.1 1.8l3.9 0.9l4.3 5l5.1 4.4l3.1 3.8l1.6 4.6l2.5 3.3l2 3.4l1.4 6l1.5 8.1l1.8 6.2l-1.5 6.1l-1.5 8.2l-3.4 8.6l-1.5 9.8l-5.2 7.9l-2.3 7.3l0.9 8l5.1 6l3.4 8.4l4.3 7.4l5 4.4l6.9 5.6l7.6 3.8l10.9 -0.5l9.1 -2.8l5 -4.9l2.2 -2.1l4.4 -1l3 2.2l6.1 0.9l0.7 -2.2l7.4 -3.8l11.2 5.5l9.7 3.6l3.3 1.2l4.3 -3.3l0.1 -6.1l-0.3 -7.7l0.8 -4.9l1.9 -5l7.2 -1.3l6.6 -1.1l5 3.4l-1 5.3l-1.3 9l1.6 7.9l7.3 6.8l8.7 6.3l11.8 -4.5l9.1 -4.9l7.7 -3.4l8.8 -3.7l9.9 -2.7l6.1 0.3l5.9 6.9l8.4 4.4l2.8 7.9l2.7 7.2l4.8 5.9l3.7 3.2l4.3 -1.1l2.6 -2.3l4.4 -4.3l5.4 -8.1l5.5 -1.3l4.5 -3.3l-0.3 -2.6l1.7 -4.7l8.5 0.2l5.1 4.1l5.1 1.1l6.1 -3.5l4.5 -3.5l4 -2.8l3.8 -3l2.6 2.6l3.9 -2.1l3.7 1.1l3.3 -0.7l1.7 -3.4l1.2 -4.4l2.7 -7.5l1.9 -6.3l-1.5 -4.5l1.4 -4.5l-0.5 -5.1l-1 -6.4l-1.5 -2.7l0.1 -5.3l3.6 -0.4l4 -6.6l0.3 -7.8l-0.9 -2.5l2.2 -2.8l4 2l4.7 7.6l2.3 6l5.3 -0.2l3.7 -1.4l1.6 -7.7l0.3 -6.8l4.9 -3.9l1.9 -4.9l-2.7 -6.1l-3.4 -4.4l-3.9 -5.5l0.1 -9.6l-0.5 -7.1l-1.6 -4.2l-1.5 -3.6l5 -3.7l26.4 0l25.7 0.1l37.2 0l16.4 -0.1l8.7 -0l0.5 -151.4l-8 -0l-0.3 -108.4l143.2 -0.2l-0.4 -217l-1 -218.6l-32.4 -0.1l0.1 -107.3l207.8 -0.1l-14.1 -14.7l-29.9 -10.5l9.1 -19.8l-9 -17.7l10.8 -20.1l29.5 -10.4l20.1 -12.4l5.9 -11.7l-19.3 -9.1l-10.7 -25.6l-21 -12.7l1.4 -12.6l-35.7 -2.8l-15 -10.3l7.7 -27.5l26.3 -13.5l-1.7 -40.6l-14.5 -20.9l5.9 -24.8l-12.4 -36l18.2 -19.3l10.2 -24.6l-10 -8.5l-31.6 -3.1l-3.9 -10.7l10.3 -12.3l-170.3 0.6l-165 0.5l-432.9 -1.5l-188.4 -0.3l-144.1 0.2l0 613.2l0 16.7l0 26.4z" />
  </g>
  <g data-id="055">
    <path d="m8019.6 1204.5l0 0l-10.1 30.7l13 56.6l-3.6 19.1l50.2 0.3l0.2 110.3l80.9 -0l-0.2 419.8l-30.8 0l-0.1 215.1l106.1 -0.2l0.2 213.1l69.6 -0.1l105.7 -0.1l-0 107.7l106 -0.2l-0.3 -107.7l355.3 -0.6l-0.2 -427.6l35.9 -0l0.2 -322.5l107 -0.1l0.1 -96.2l32.9 -0l0.3 -246.9l-19 3.6l-1.1 -22.1l-8.4 -9.7l-27.9 0.3l-45.8 12.5l-11.4 -17l-27.7 4.8l-15.8 -5.2l-58.1 4.4l-26 -1.9l-15.5 -8.6l-12.8 11.9l-10.4 25.2l-31.1 -19.3l-22.1 2.2l-18.7 10.6l-25.3 -5l6.9 14.1l-3.2 18.6l-14.9 6.7l-4.1 -14.1l-23.6 4.4l-21.9 26.9l-24.8 8.2l-12.4 -6.5l-10.3 -20.6l-7.1 30.6l-18.8 -2.7l-29.1 18l-27.8 -13.9l-6.1 -15.9l-12.3 -0l2.3 24.7l-19.2 13l-13.1 -11.7l-32.8 -3.1l-26.3 -22.2l-15.8 9.5l10.9 12.3l-2 12.1l-24.7 -2.5l-18.4 -30.3l-16.2 -2.3l-8.2 30l-22.3 7.8l-18.6 -3.5l13.9 -14.5l2 -14.7l-86.4 5.2l-12.9 -4.4l-25.6 -20.7l-21.1 6.5l-17 -17.5l-14.3 11.7l-21.5 -0.9l-7.6 -19.3l-22.5 0.5l-14.3 23.7z" />
  </g>
  <g data-id="057">
    <path d="m2785 4257.1l0 0l4.8 23.3l6.4 35.7l43.8 33.7l8.5 17.2l25 13.2l17.7 -0.5l31.5 -19.8l28.2 4.2l34.4 58.3l-0.3 52l6.5 309l102.4 0.1l-0.3 103.6l119.1 0l0.5 103.3l19.7 0.2l-0.1 100.9l84.4 0.9l-0.1 49.9l33.8 1.6l203.1 1.3l0 84.6l249.7 0.2l35.4 -13.6l7.7 0.5l4.5 7.2l8.3 3.8l13.1 -14.8l3.4 -24.9l-2.8 -2.5l3.3 -6.8l7.4 -3l6.5 4.3l4.1 -188.5l-0.7 -517.8l19.1 -0l-1.1 -346.1l-153.9 -0.4l-0.1 -17.4l-17.2 0.5l-0 -17.4l-17.2 0.3l0 -17.3l-17.1 0.2l-0.1 -17.7l-17.3 0.1l0 -17.3l-17.2 0.1l-0 -17.3l-16.6 -0l0 -17.3l-51.6 0.1l-0.1 -34.7l-34.5 -0.2l-0 -17l-35 0.1l0.1 -13.8l-1.6 -13.5l-29.8 -14l-24.2 3.9l-10.3 -15l-23.4 0.7l-13.5 -32.2l-23.6 8.5l-6.4 -3.7l-16 7.7l-32.3 -14.7l-22.5 10.9l-16.5 -3.6l-30.4 13.6l-10.6 34.4l5.5 8.3l-20.9 28.9l0.6 11.4l-26.8 25.9l-17.9 1.8l-226.1 7.1l-19.6 -19.6l-10.9 -0.9l-14.2 15.6l-8.5 22.7l1.6 23.5l-21.8 28.4l-23 7.2l-19.2 20.1l-71.9 43.4l6.3 14.8l-6.4 13.6l0.3 37.7l-6 31.6l-9 11.3z" />
  </g>
  <g data-id="059">
    <path d="m3656.5 2596l0 0l28.5 12.8l12.6 13l0.1 16.8l-25.5 16l3.1 17.4l-8.6 9.3l5.2 13.7l9.9 -0.5l23.7 30l21.3 -2.7l34.3 6.9l7.1 -15.4l23.1 32.6l-1.7 33.8l3.7 1.8l6.1 5.8l3.4 0.3l3.5 1.5l4.1 2.8l7 1.4l4.1 5.7l2.5 3l0.7 6.6l-0.2 7.9l-0.9 1.4l-0.1 1.9l0.6 0.6l-1.3 1.4l-1.4 1.5l-2.7 2.2l1.2 3l2.2 1.1l4.9 1.8l2.6 2.1l0 3.9l-2.5 2l-3.9 5.7l-2.3 2.1l-0.9 3.2l2.6 0.6l4.8 2l5.1 2.6l2.2 5.5l0.6 5.4l-1.9 3.4l-3.9 3.8l-0.7 2.3l3 1.9l3.6 -0.1l7.2 0.2l7.1 0.1l2.9 4.3l4.6 3.6l2.9 6.8l2.1 11.9l1 7.8l-1.3 10l-0.1 4.1l3.6 2.2l1.8 -2.5l7.2 -2.5l6.4 -1.3l8 -1.9l3.8 3.6l4.8 3.6l4.2 6.3l7.4 0.4l7 -0.9l2.7 0.4l5.2 0.5l4.3 0.4l1.4 4l0.6 2.3l2 5.1l-1.7 6.8l1.9 3.1l-0 4.3l-3.5 3.7l-2.7 5.9l2.9 11.9l1.1 7.5l-3.4 7.1l0.7 7.9l7 6.6l3.3 8.9l-0.2 4.4l-2.9 5.3l-3.8 0.5l-9.4 8.3l-0.8 8l3.2 4.9l11.5 4.9l5.9 4.7l6 0.3l10.5 2.3l11.3 6.5l5.2 10.8l1.9 8l1.6 6.1l2.4 4.5l3.4 2.1l2.5 -1.9l5.5 3.6l1.5 5.3l-0.9 9.1l0.2 6.8l2.5 10.3l2.9 12l-0.9 7.1l-0.8 11.4l3.5 7.3l6.4 2.3l6.5 6.7l10.5 0.9l8.6 3l12.5 -2.3l11.8 -7.9l2.4 -11.2l12.3 -5.3l6.7 0.2l11 -0.7l9.5 -3.1l3.7 -0.5l2.1 7.2l-2.7 3.9l1.4 5.4l8.3 3l3.4 1.9l7.2 1.3l2.4 5.3l1.4 3.4l3.6 4.2l4.4 3.7l5.4 4.1l5.5 5.6l6.3 2.6l3.4 2.8l3.5 7.7l-3.5 7.8l-3.8 4.6l0.4 7.1l-2.1 7.3l-3.6 7.2l0.4 6.1l2.6 7.5l-1.6 8.2l-0 5.8l-5.5 4.3l-4.2 -0.8l-5.8 1.6l-3.7 7.5l-7.8 9.2l-8.5 14.8l-4.4 12.8l-0.8 14.3l-1.4 9.7l-2.7 10.4l-0.7 4.9l0.6 5.6l3.1 2.8l3.5 3.9l3.4 0.7l3 1.5l0.7 2.7l-0.3 2.2l2.3 2.5l3.2 0l3.4 1.5l7.4 4.8l5.9 3.4l3.1 1.8l-0.3 3.3l-3.7 7.4l1.7 7.5l9.3 3.1l2.7 7.3l3.5 5l0.9 14.2l-0.6 16l-0.3 3.5l57.2 0l174.4 0.1l311.9 0.8l-0 9.3l106 -0l-0 -43.6l0.4 -324.8l7.1 -0l-0.3 -267.4l-24.5 26.5l-18.9 3.5l-2.6 15.2l-13.1 0.7l-4.4 -12l-21.5 -12.7l-20.2 5.8l-18.7 12.3l-12.7 -10l-24.5 9.4l-13.7 -27.8l-12.3 -1.4l-7.1 -12.3l-15 -0l-21 -24.7l-12.3 -7l5.4 -24.8l-4.9 -14.7l-47.4 -1l-24 -35.6l4.2 -17.9l-7 -9.1l-7.6 6.8l-14.1 -8.2l-15.4 -24.6l-16.1 8.3l-16 -12.5l-13.1 4.8l-0.4 -18.3l-8.5 -28l8 -9.3l-25.5 -14l-5.7 -10.2l-12.3 10l-16.7 -15.8l-25.8 -7.9l-2.5 -30.1l-9.7 1.9l-17.3 -25.8l-18 -18.1l-69.4 -29.9l-48.8 -4.9l-14.4 4.2l-27.1 -28.5l23.3 -19.8l-5.9 -33.3l2.6 -18.8l-64.8 -0.5l0.1 93.5l-105.6 0l-0 13.1l-211.6 0.6l0.1 106.4l-99 -0.1z" />
  </g>
  <g data-id="061">
    <path d="m242 1971l0 0l8.8 1.3l9.6 -3.5l13.3 0.9l6.7 10.9l12.3 -0l19.1 8.7l1.4 7.9l13.6 2.8l12.4 27.7l21 -5.7l33.4 19.3l0.5 11.7l9.1 5.7l7.8 -0.5l6.1 7.1l-1.3 15.7l8.9 8.1l9.2 30.7l17 11.9l18.5 10.3l4.7 3.6l9.7 -5.7l9.1 4.8l0.1 3.9l3.9 2.2l18.3 -2.7l8.6 4.5l1.2 6.8l9.8 7.7l19.2 -3.7l20.9 9.2l16.7 -3.2l16.5 9.6l-4.3 10.6l5.7 12.9l4.8 6.2l4 0.6l6.8 5.1l5.6 19.5l-3.2 5.2l-4.5 15.5l0.7 6l10.4 3.9l21.3 3.7l5.3 10.5l1.5 13.6l9.2 13.9l18 2.4l15.5 11l13.5 12.2l6.8 15.3l5.3 12.3l11.2 5.3l12.6 2.1l2.4 5.9l-0.6 11.4l10.8 24.3l20.1 23.5l6.9 -0.2l6.7 2.6l10.8 24.5l7.6 30.5l5.5 14.1l9.5 24.1l13.2 -2.5l3 -5l22.6 4.6l1.5 7.2l10.8 17.3l14.4 16l8.1 7.2l-1.1 3.5l24.2 12.6l6 2.2l2.1 6.3l-5 3.6l-7.4 15.3l4.8 18.6l-1.7 8l-5.2 6.8l-4.5 2.3l-3.1 9.6l6 4.2l9.2 1.6l4.7 9.3l-3.4 5.5l1.3 11.7l9.6 9.8l13.1 3.4l3.4 8.1l-2.1 9.8l6.2 5l9.5 -9.3l12 -3.5l3 3.4l1 7.9l12.7 13.1l6.7 1.9l5.9 11.6l10.1 2l8 -1.1l9.8 6l6 -2.8l2.1 1.5l3.3 11.5l14.3 13.3l-1.4 23.5l-5.4 8l-5.3 2.6l-6.3 18.1l2.1 6l13 9.8l2.7 6l13.2 -1.1l7.9 -16.7l12 -3.5l8.4 0.4l6.3 -10l8 -21.3l2.6 -0.1l17.3 2.9l0 -11.8l104.7 0.1l0.1 -104.9l-14.4 0.1l0.1 -158.2l16.4 0l-0.6 -35.5l18.2 0.1l-0 -20.7l18.9 0.1l13.7 12.1l29 7.3l-0.1 -19.2l26.6 0l-0.1 -17.5l-53 -0.1l-0.4 -53.9l-68.6 0.2l0.4 -33.6l-17.5 -0l-0.1 -35.4l-35.4 0l0.1 -17.8l-17.7 0l0.2 -35.4l-34.3 -0l0 -18.5l-17.4 0.1l0 -53.2l-52.9 0l-0 -17.8l-17.7 0l-0.1 -35.4l-37.6 0.1l-0.1 -35.7l-52.9 -0l0 -17.8l-52.4 -0.2l-0.1 -75.5l-8.4 -26.2l-29 -6.5l-11.3 -16.9l-14.5 7.4l-35.7 -23l-33.5 5.1l-17.8 -12.2l-6.6 -18.3l-30.4 -16.3l-15.8 -1.7l-30.2 -22.1l-27.6 -8l-19.5 18.7l-30.8 1l-17.2 -15.7l-31.9 -1.5l-23 10.7l-12 13.1l-38.5 -10.9l-12.1 -25l-17.9 -0.8l2.7 13.8l-8.7 10.5l-27.6 5.7l-38.6 -4.7l-13.9 -5.8l-8.2 22.8l-8 6l-20.2 3.2l-7.2 -3.7l-30.1 5.9l-9.4 7.2l-15.1 5.1l-9.7 22.4z" />
  </g>
  <g data-id="063">
    <path d="m1043 2161.2l0 0l0.1 35.4l17.7 -0l0 17.8l52.9 -0l-0 53.2l17.4 -0.1l-0 18.5l34.3 0l-0.2 35.4l17.7 -0l-0.1 17.8l35.4 -0l0.1 35.4l17.5 0l-0.4 33.6l68.6 -0.2l0.4 53.9l53 0.1l0.1 17.5l-26.6 -0l0.1 19.2l-29 -7.3l-13.7 -12.1l-18.9 -0.1l0 20.7l-18.2 -0.1l0.6 35.5l-16.4 -0l-0.1 158.2l14.4 -0.1l-0.1 104.9l-104.7 -0.1l-0 11.8l11.1 1.8l12.5 7.2l10.7 17.6l9.7 9.2l-1.2 21l-7.2 8.7l-7.7 5.2l2 15.2l2.7 9.1l11.3 1.5l6.3 3.9l2.5 9.2l-3.7 4.2l4.5 7.8l13.5 4l3 0.9l8.8 -1.3l11.7 -8.9l18.5 -6.9l21.9 9.5l15.5 0.7l15.4 8.7l13.5 -2.1l9.9 -9.5l-0.4 -9.1l24 -13.8l11.3 3.9l6.3 -2.6l7.4 -6.3l29.1 -5.1l23.1 10l134.1 0.2l10.7 -0.6l274.8 0l28.5 3.3l104.5 -0.2l-0.1 -70.2l97.1 -0.3l0 -13.9l5.4 -20.2l54.3 -0.1l0 -70.6l52.2 0.3l0.4 -36l94.7 -0.1l-0 -424.3l-136.1 0.6l-0 -517.6l-139.5 0l-262.1 0l15.4 1.8l-1.6 26.3l10.6 34.2l-8.3 12.2l1.5 23.4l15.9 7.6l-4.7 16.6l-17.7 3.6l-13.1 27.1l18.7 12.4l-3 10.2l23.9 12.3l10.7 19.6l-0.4 18.3l16.8 30.5l-5.1 26.9l-9.8 18.6l6 20.3l-4.3 25.4l-11.4 8l14.9 4l10 24.4l12.8 3.9l9.9 15.9l16 -2.9l0 7l2.4 106.6l-93.4 -0l0.1 53.2l-211.2 0.1l-20.8 12.8l-20 -8.1l-15.1 16.6l-3 -0.4l-1.8 0l-1 -0.5l-2.5 0.5l-1.8 -1.3l-2.4 -0.2l-1.1 -0.8l-0.6 0.4l-1.6 0l-2.2 -0.5l-5 -1.8l-1.7 -0.3l-2.6 -1.5l-1.5 -0.1l-0.6 0.4l-10.9 -12.8l-25.4 -11l-19 -15.5l8.2 -22.5l-6.4 -18.1l-7 4.8l-34.2 -12l-17.1 -16.2l-25.4 2.6l-12.2 -13.9l-18.5 -1.1l-42.8 -24.1l-17.5 -18.1l-24.7 -3l-36 -10.8l-42.2 -10.3l-17.9 24.1l-35.6 -11.2l-7.9 4.8l-30 -11z" />
  </g>
  <g data-id="065">
    <path d="m5861.7 2794l0 0l-0.3 157.2l17.7 -0.1l-0.2 52.6l70 1.1l-0.3 105.4l20.9 0.1l-1.4 45.9l17.5 0.1l-1.2 105.1l17.4 0l-0.3 17.5l8.7 -0l-0.3 35.1l8.7 -0l0 17.5l17.4 0l0.1 35l17.4 0l-0.4 174.4l312.2 -0.6l-0.1 -123.9l34.9 0.5l0 -17.4l34.9 0.4l0.1 -17.3l242.7 -0.1l0 -52.8l14.8 0l-0.3 -35l17.6 -0.2l-0.2 -17.4l17.6 -0l-0.1 -17.5l17.4 -0.1l-0.1 -17.5l17.4 -0.2l-0 -17.5l121.9 0.1l0.7 -121.8l-12.9 0.2l1.1 -122l-35.2 0l17.3 -23.2l4 -20.1l-7.3 -11.1l10.2 -25.7l13.1 -21.3l-6.1 -14.7l-18.8 -13.2l5.1 -6.4l-8.6 -22.1l14.7 -2.6l-3.3 -17.6l-11.9 -15.3l-669.2 7.9l-314.8 -1.6z" />
  </g>
  <g data-id="067">
    <path d="m4167 4886.3l0 0l0.7 -0l215.9 -1.9l19.5 3.6l9 2.3l37.9 6.6l127.3 0.1l4.4 -0.3l49.2 0.1l70.9 -1.7l33.5 -8l17.1 1.8l14.7 -0.1l31.4 2.7l72.7 0.8l74.4 -9.1l69.7 0.3l0.7 0.1l20 0.4l5.4 0.1l99.3 -0.1l64.1 1.3l0.2 0l-0.2 -194.7l0 -5.7l-221.3 -0l-136.2 0l-0.2 -208.9l7.4 -0.1l-0.1 -203l1 -178.1l-2.2 -137.6l-59.7 -0.1l-0.1 -417.7l9 0l-0 -60.8l-106 0l0 -9.3l-311.9 -0.8l-0.2 61.2l-7 183.7l3.2 68.9l-0.7 173.3l-4.9 -0l-0.1 51.9l0.1 48.9l0.5 105.4l-0.1 27l-52.1 0l-0.7 78.2l-50.8 0l1.1 206l-100.1 -0.1l-0.4 207l-5.4 206.4z" />
  </g>
  <g data-id="069">
    <path d="m6089.4 2266.1l0 0l-0.6 104.3l106.5 0.1l-1.8 318.9l-16.3 -0l-0.6 106.3l669.2 -7.9l-15 -29.9l3.5 -25.7l-26.5 -40.6l-2.7 -12.2l-17.2 -5.7l4.3 -1.8l-7.3 -1.6l-4.6 -3.9l1.1 -5.1l2.1 -2.1l-0.6 -4.5l-2.5 0.8l-5.3 -2.1l-6 -3.7l1.6 -3.2l-1.1 -4.2l-7.2 -3l-4.1 2.9l-5.1 -0.1l-1.2 -4.6l2.6 -8.1l-2.9 -6.1l2.9 -6l3.9 -0.9l1.1 -3.3l-0.5 -3.6l2.6 -7l-2.7 -5l-0.3 -6.9l5.1 0.7l4.4 0.1l0.6 -5l-3.1 -1.5l-0.9 -2.6l-1.1 -1.1l2.5 -2.6l3.5 -0.6l3 -1.3l-2 -1.1l-2.9 0l-3.3 -1.5l0.3 -3.7l3.6 -2.4l6 0.3l3.7 0.6l1.3 -4.7l-0.7 0.4l-3.1 -0.6l-2.9 -4.1l1.3 -6.1l5.8 -5.9l-0.9 -4.7l-2.7 -2.4l0 -1.6l3.2 -1.6l0.6 -4.1l-3.9 -4.9l-0.8 -3l2.3 0.2l1.9 -1.9l2.5 1.1l2.3 -1.2l0.9 -3.2l4.4 -2.9l2.3 1.2l2.6 -1.4l-2.8 -1.1l-2.3 -2.2l1.4 -2.8l0.8 0.6l2.8 -0.3l3.3 -3.4l-0.6 -1.5l-1.6 -2.8l-2.9 -2.2l1.3 -1.8l0.7 -2.5l-0.7 -1.3l1.1 -1.8l2.7 -1l0.3 -2.8l-2.8 -1.6l-0.7 -4.5l0.2 -3.4l-2.7 -1l-1.4 1.6l-2.5 -5.1l-1 -6.4l-3.1 -3.3l-1.7 1.5l-0.7 2.8l-2.7 3.6l-5.6 -1.4l-5.6 -6.6l-0.4 -3.2l6.4 -7.5l6.1 -0.1l2.4 -3.7l-0.8 -0.1l-1.2 0.3l-1.1 -4.1l-3 -6.6l-6 -3.7l-3.7 -0.8l-2.4 -2l0.7 -2.5l1.3 -6.5l-2.7 -2.3l0.9 0.4l3 -2l1.7 -3.7l2.7 -2l-0.9 -0.8l-2.6 0.9l-3.1 -2.9l1.4 -3l1.9 -1.7l3.1 -0.5l2.5 -2.5l-0.7 -1.4l-3.2 0l-3.8 1.3l-2.5 -4.4l1.6 -3.4l3.2 -2.6l0.3 -3.7l-2.4 -2.4l-5.1 0.3l0.5 3.6l-3.1 2.3l-1.3 -3.6l-1.4 -4.1l-1.6 0.4l-1.9 0.1l-1 -4.4l3.4 0.8l2.6 -6.9l-0.4 -6.7l-3.1 -7.2l-8.4 -5.3l-3 -3.1l2 -0.9l2.6 1.7l4.5 -0.8l1.4 -3.6l1.4 -1.3l2.1 1.8l0.9 1.5l1.8 -1.2l-3.8 -4l-1.8 0.1l-2.9 -5l-4.3 -2.4l-1.8 1.6l-5.4 -1.5l-1.7 -2.5l-1.3 -3.4l2.5 -3.8l-0.8 -3.7l2.8 -2.9l0.3 3.9l2.4 1l2.2 -1l4.3 -4.5l-0 -4.8l-3.3 -0.1l-4.7 1.7l-1.9 0.5l-0.8 -2.7l4.3 -1.4l4.4 0.2l5.6 -2.9l-3.7 -4.7l-4.7 -5.6l-2.6 -4.1l-2.1 -5.3l4.2 -0.3l3.7 -0.2l0.7 1l1.3 3.5l3.8 1.1l-1.8 -3.3l0.6 -5.5l-4.3 -3.1l-1.5 -4.9l4.1 -2.7l0.9 1.3l0.6 2.3l4.8 3l3.6 -2.5l-0.1 -3.4l-1.1 -1.6l0.4 -4.3l3.2 -1.6l0.9 -5l-1.9 -1.3l-3.8 -0.4l0.5 2.9l-4.1 1.1l0.9 -4.8l2.8 -2.3l-1 -3.7l-3.1 -0.5l-0.5 -3.4l2.1 -0.4l2 1.1l-4.2 -4.5l-4.7 -0.1l-4.1 -1.1l-0.2 0.3l0.2 -3.4l2 -3.4l0.9 -2.5l5 -4.1l1.1 -10.3l-4.5 -5.7l-2.6 -3.4l1.2 -0.3l0 -2.8l-1.7 -1.9l-3.9 -0.7l0.2 1.5l-5.5 0l-4.6 -4.1l0.9 -4.6l1.8 3.2l2.9 2.2l0.7 -3.5l-1.3 -4.1l-2.5 -2l-0.4 -1.7l1.6 -3.7l5.5 2.6l2.6 -2.4l-0.8 -5.2l-2.9 -2.1l-2.9 0.2l-3.7 -1.3l-3.3 -1.4l-2.5 -3.2l1.6 -2.9l3.1 -4.4l5.5 0.6l4.9 0.3l2 -2.8l-4.5 -2.1l-4 -1.9l-4.3 -3.7l1.7 -4.4l3.5 -1.5l1.3 -0.9l-0.5 1.2l1.8 2.2l1.5 -1.5l-1 -2.7l-1.7 -5.5l-4.1 0.6l-3.3 -2.3l1.7 -3l0.7 -3.1l5 -4l4 0.2l0.7 -3.4l-5.8 -3l-3 0.9l-2.3 -1.8l1.4 -3.6l7.3 -2.5l2.1 -3.6l2.8 -2.5l-1.8 -3.3l-3.6 0.4l-3.3 -5.5l5.5 -10.5l7.2 -1l2.9 -2.1l2 -2.1l-2 -1.3l-3.1 -1.1l-1.8 -0.2l-3.2 1.9l-2.6 0.4l-1 -1.8l-2.6 0.5l1 2.2l-2.5 1.7l0.3 -4.4l2.3 -3.7l-1 -2.7l-2.9 0l-3 -5.3l3.2 -4.6l1.5 -7.2l2.6 -0.9l0.1 -5.1l-5.8 -4.1l-1.6 -4.2l3.1 -3.6l3.2 0.4l2.1 -3.2l-2.2 -2.4l2.9 -4.5l5.9 -3.6l3.9 -2.3l-1.6 -2.4l-0.9 -2.4l1.3 0.2l1.1 -2.9l-1.2 -0.1l1 -4.5l3.7 0.7l4.7 -2.6l-0.5 -2.1l-1.7 -3.4l-1.5 0.7l-1.9 -3.4l5.1 -2.5l5.2 0.7l-0.6 -2.8l-1.9 -3.3l4.4 -6.3l5 -3.2l3.9 -2.8l0.4 -3.3l-0.8 -6.5l2.3 -3.9l-3.1 -0.6l-5 -0.2l-1.4 -3.4l4.5 0.1l4.4 -2.4l-1.2 -5.3l0.6 -9.1l-3.2 -4.9l-3.1 -3.1l-1.9 -1.9l2.3 -1.3l2.2 -3.6l-1.8 -1.2l-0.6 -3.9l3.7 -2.2l3.5 -3l0 -46l9.2 -27.2l-17.5 -13l-0.3 -18l-8.9 -11.3l1.3 -28.7l-27.5 -2.8l-12.2 -19.8l-38.3 4.8l-36 -20l-11.8 7.8l-48 -0.5l-8.6 10.8l-25.8 4.4l-17.5 -11.9l-32 9.1l-18 -6.9l-18.9 10.3l-25.5 -5l-2 64.9l0 265.7l-17.7 8.9l-106.1 1.3l-105.4 0.4l-0.2 44.7l-106.6 -0.3l-0.1 106.6l-14 -0.1z" />
  </g>
  <g data-id="071">
    <path d="m5960.3 1418.7l0 0l-0 168.8l55.9 30l33.2 34.8l-4.8 23.7l15.2 21.5l13.5 2.1l22.1 -7.4l15.8 21.1l17.9 1.6l14.1 14.7l33.3 0l17 -5.9l32.1 18.3l28.2 -5.5l10.4 -8.5l15.5 14.4l-1.4 9.8l28.9 3.6l14.7 -21.6l12 1.2l5.5 16.7l9 -3.6l-3.2 19.4l13.7 4.4l6.7 -12.5l15.1 3.8l7.1 17.8l18 -3.2l4.9 15.8l12.1 0.1l2.6 -15.9l16.3 -4.2l25.5 5l18.9 -10.3l18 6.9l32 -9.1l17.5 11.9l25.8 -4.4l8.6 -10.8l48 0.5l11.8 -7.8l36 20l38.3 -4.8l12.2 19.8l27.5 2.8l-1.3 28.7l8.9 11.3l0.3 18l17.5 13l-9.2 27.2l-0 46l37.9 -6.6l-2.2 -32.6l13.1 -11.6l-12 -26.9l18.9 -13.8l2.3 -11.7l18.5 -14.6l17.5 0.5l2.8 -9l12.5 11.8l13.3 -5.4l-1 -19l25.7 -10.4l0.6 -16.7l18.3 -18.3l12.4 -36.4l19.6 -0.2l7.6 11.1l12.7 -10.6l-6.4 -28.6l14 4.6l17 21.3l5.2 -19.5l13.8 -2.9l22.2 8.4l11.6 -4.2l27.4 4.2l17.9 23.4l39.8 2.3l9.5 -4.1l0.8 -26.3l16.1 -19.2l-6.9 -18.6l11 -17.8l0.4 -221.5l8.1 0l0.1 -433.3l29 0.1l0.4 -108.5l90.6 0.5l0.1 -111.9l-34 0.1l-0.3 -57.7l-0.2 -51.4l36.4 -0.1l5 -45.2l21.3 9.1l28 0.4l-0 -73.8l-11.3 -0.1l0.2 -435l21.8 0.1l0 -110.9l-146.3 -0.1l-50 0.9l-274.2 -0.4l-276.4 0.2l-132.8 0.1l0 109.1l-19.2 -0.1l-0 216.7l-49.7 0l0.1 219l-22.6 -0l-0.1 183l-10.7 -19.2l-37.9 -3.2l-4.7 -9.9l-0.7 4.4l-0 282.3l-18.8 -0l-0.1 302.9l-112.9 -5.9l-24.2 -13.2l-7.5 1.1l-13.1 42l-1.9 45.8l-38.4 -3.5l-180.4 0.7l-2.3 64.7z" />
  </g>
  <g data-id="073">
    <path d="m2248.7 870.7l0 0l0.9 8.9l21.2 19.3l20.6 4.3l6.8 23.7l18.3 6.7l25.7 15.9l8.5 16.1l-8.5 20.4l5 59.4l19.2 7.6l14.7 -13.6l19.9 12.2l11.6 17.7l17.9 7.2l-3.2 9.1l36.5 2.2l22.4 -16.9l9.2 11.3l1.4 24.4l17.5 -14.9l12.8 2.8l95 0l61.6 -2.7l540.3 3.1l0.1 54.3l108 0.7l-0.3 54.4l53.5 0.2l-0.1 72.4l162.1 0.5l317.3 -3.8l-0.5 -180.7l0.1 -109l-213.6 -0l-0 -35.9l-0.1 -126.6l-108.3 -0.4l-0 -54.2l-103.8 0.1l-58.6 -1.6l-0 -55.5l-11.2 -13l-17.8 -4.4l-39.3 10.4l-3.8 10.9l-18.2 -18.3l-43.7 -26.9l-1.4 8.6l-17.4 -3.5l-8.5 -12.8l-18.7 0.7l-18.2 -8.3l-289.7 0.3l-0.1 135.3l1 81.7l-4.5 0.5l-639.3 -0.4z" />
  </g>
  <g data-id="075">
    <path d="m8134.7 4472.4l0 0l-0.1 203.6l13.3 0l-0 219.3l0.1 0l198.8 0.1l80.5 0l11.6 -7.5l0.7 -1.1l54.4 0.6l396.9 0l245.4 0l31.8 0l0.1 0l0 -415.4l42.4 -0l0 -107.6l4.5 -409.7l-144.9 -0.6l-418.7 -1.1l-443.7 -0.3l-35.6 0l2.3 38l-3.3 481.5l-36.5 -0z" />
  </g>
  <g data-id="077">
    <path d="m2150.9 1753.7l0 0l0 517.6l136.1 -0.6l0 424.3l9.5 -0l0.1 30.7l13 -7.1l8.3 -16.1l19.9 14.8l-0.5 15.1l11.9 22.1l14 4.8l31.8 30.7l-8 10.7l4.3 17.6l9.4 -3.3l28.1 9.1l14.1 15.3l30.9 -8.7l14.2 -13.1l18.6 -5.1l0.7 305.1l1.9 98.8l-0.6 6.4l-0.1 156.6l398.2 1.2l-9.5 -47.2l30.6 -31.9l24.4 1.5l4.5 -14.3l22.3 1.8l14.7 14l2.3 -25.4l21.1 -9l-0.1 -13.9l18.6 -21.2l45.1 1.5l10.4 -22.1l22.1 -21.1l-10.7 -14.7l1.9 -12.1l13.8 -7.9l2.3 -48.3l-3.7 -24.8l10.8 -9.1l-0.3 -16l-11.7 -22l-7.5 -30.4l19.6 -37.2l-4.2 -15.8l-18.9 -45.9l-74.7 -0.1l-0.2 -52.8l-103.9 0l-0.1 -163.8l-110.3 3.2l-106.1 -0.1l-0.1 -131.3l-0 -290.3l-219.2 -3.1l-0.2 -379.2l-26.7 9.6l-19.2 -12.3l-7.1 -31.2l-1.3 -52.1l5.8 -15.4l-22.2 -30.9l-151.1 0l-117.1 -5.6z" />
  </g>
  <g data-id="079">
    <path d="m8295.2 2269.1l0 0l0.2 391.6l211.4 -0.6l0 35.1l178.6 -0.2l0.1 106.1l34.7 -0.1l0.3 105.6l70 -0.1l0.1 70.4l35.4 0.1l0.2 35.2l175 0.9l-0.1 35.2l211.9 1l-0 -35.1l104.9 0.3l0 -52.6l104.6 -0.2l0.2 -52.8l104.9 0.4l-0.1 -35.1l-0.3 -178.6l2.9 -35.3l-352.8 -0.7l-0 -35.5l-17.7 -0.1l-0 -17.7l-17.3 -0.1l0 -16.9l-106.1 -0l0.2 -70.7l-106.6 -0l-0.1 -249.8l-67.8 -0.1l-355.3 0.6l0.3 107.7l-106 0.2l0 -107.7l-105.7 0.1z" />
  </g>
  <g data-id="081">
    <path d="m1244.3 3955.9l0 0l-8.9 14.8l16.7 20.7l1.1 16.9l16.8 17.9l11.3 2.6l7.8 11.2l5.2 14.9l-10.3 15.9l-0.6 7.4l7.6 5l-0.2 12.6l-6.7 12l-12.1 11.4l-6.3 -3.5l-5.1 2l-21 12.8l-2.2 3l0.3 6.9l7.8 14.7l7.5 3.1l5.6 11.7l-13.2 18.5l-3.5 7.3l-0.7 23.1l7.9 6.1l19.5 -12.1l6.9 3.1l9.5 10.6l6.8 4.5l20.3 -9.3l11 2.4l3.1 20.6l4.9 1.7l9.9 7.7l19.3 31.3l22.6 8.1l16.7 12.1l2.4 2.7l4.1 19.4l13.1 16.9l9.8 0.7l45 -25.3l7.1 -6.5l7.6 -11.5l11.5 -33.8l-0.3 -10.6l-3 -5.5l3.1 -9.6l16.8 -0.6l20.2 12.9l9 -1.2l5.3 -10.6l5.4 -7l21 -1.8l16.3 -5.4l5.1 -9.5l0.4 -4.2l-3.1 -4.2l0.7 -2.3l7.6 -11.7l18.3 -2.5l11.4 -5.7l3.7 -6.9l-0.9 -8.4l1.1 -8.7l11.8 -19.5l28.4 -24.9l12.3 0l3.1 -6.4l1 -5l-5.2 -14.4l-0.4 -13l1 -14l3.1 -3.8l24.1 -10.1l13.9 8.3l7.6 8.8l18.7 -7l0 0.2l13.3 -9.9l9.1 6.1l5.7 -38l-9.8 -18.4l16.5 -28.6l21.6 -13.7l12.9 10.1l4.6 24.3l16.3 2.4l21.2 -14.7l14.4 -18.4l-3.9 -16.4l11.5 0.1l28.3 -27.4l12.2 -5.3l14.1 -22.5l12.4 -6.2l24.8 9.8l11 -6l26.8 -1.1l9.6 -10.9l15.6 0.3l0.7 -15.2l19.4 -10.8l32.9 -11.1l-6.6 -15.2l1.2 -23.1l15.8 -30.7l-1.1 -1.5l-2.9 -1l-3.1 -2.2l-6.3 -3l-6.3 0.5l-4.7 -1.7l-4.2 -0.2l-5.1 0.7l-5.3 3.6l-7.4 2.6l-3.2 2.1l-3.3 -3.9l-1.1 -3.7l-3.8 -2.5l-3.8 0.5l-5.2 -3.7l-6.3 1.6l-4.6 -3l-3.1 -7.3l0.2 -5.8l-0.4 -4.9l-3.1 -5.1l-2.6 0.9l-7.3 2.4l-6.1 1.9l-5.7 2.6l-6.3 -3.9l-5.1 -10.4l-5.2 -5l-0.9 -6.9l-3.6 -8l0.6 -7.1l-2.6 -7.8l-1.2 -5.5l-1.3 -5.5l-1.3 -4.1l2.3 -3.9l-1.4 -3.6l-3.2 1.3l-6.9 -1.2l-3.2 -5.8l2 -5.6l-0.9 -3.1l-6.5 -2l-9.7 -2.3l-9.4 0.2l-10 0.8l-3.2 -3.9l-5 -6.8l-4.9 -1.2l-5 2l-2.2 6.2l-1.9 4.4l-1.9 6.8l-3.5 3.1l-4.9 1.1l-4.8 -3.4l-5.6 -0.9l-8.9 -3.5l-3.9 -0.5l-4.2 -4.6l1.4 -3.9l-1.2 -8l6.7 -5.8l2.2 -9.8l2.8 -5.6l2.4 -4.7l0.3 -5.5l6.6 -6.9l4.4 -4.2l1.1 -5.6l2.8 -11.3l5.3 -5.2l6.6 -12.2l-3.6 -5.9l-5.7 -6.5l-2.1 -6.9l-4.7 -5.4l-3.4 -0.7l-0.8 -3.2l0.6 -2.5l-2.2 -4.3l-3.3 -2.4l-5.1 -4.5l-3.2 -3.3l0.7 -6.1l2 -5.3l0.1 -5.9l-0.1 -4.8l-0.4 -6.6l2.2 -3l1.8 -2.1l-0.2 -2.5l-2.2 -0.9l-4.9 -3.2l-4.2 -4.3l-1.6 -3.5l-3.1 -0.5l-5.5 2.6l-4.4 -2.3l-1.5 -5.8l-3 -6.6l0.3 -8.2l4.4 -8.3l7.8 -3.2l7.4 -1.8l6.2 -4l8 -3.8l4 -1.6l0.7 -7.4l-1.2 -4.7l2.5 -6.4l3.2 -3.1l6.4 -2.5l4.2 -14.7l5.3 -5.1l2.4 -7.1l-3.7 -5.1l-10.4 -3.7l-10.5 -6.1l-4.9 -4.3l0.3 -7.3l-0.6 -6.1l2.3 -6.7l2.3 -5.8l3.8 -6.9l1.4 -7.7l-4 -8.4l-4.3 -7.6l-1.3 -10.8l-1.3 -13.5l2.7 -11.3l-3.2 -5.6l-1.2 -5.5l-7.6 -4.4l-2.9 -12.2l-7.2 -8l-5.3 -6.4l-0.6 -2.4l-3 -9.6l-31.2 -15l7 -26l-13.9 -61.8l-10.4 -13.4l24.5 -16.4l3.2 -36.1l13.7 -29.2l-5.4 -16.1l19.6 -6.1l-3.9 -31.2l11 -18.3l-12 -9l-8.4 -28.6l-274.8 -0l-10.7 0.6l-134.1 -0.2l0.1 0l6 8.7l1.4 12.9l0.3 38.6l-16.5 27l9.2 13.3l-0.2 4.4l-0.1 2.7l-6.5 9.5l-6.4 16l2.3 11.9l-4 14l5.9 11.9l-8.7 14.5l-19 7.1l-7.7 -4l-13.5 3.6l-2.2 4.5l2.8 25.7l4.7 9.2l9.5 3.8l2.9 7.4l-3.1 11.6l7.2 8.9l1.4 8.8l-8.6 5.2l-1 19.8l-2.6 6.4l-16.9 10.7l-12.2 17.1l9 24.6l0.8 7.3l-2 22.8l-0.6 7l-14.9 30.4l-1.5 6.3l6.6 21.2l-1.4 5.2l-6.8 8.4l-4.9 3.4l-9.9 3.4l-9.8 -2.6l-4.5 7l1.9 22.3l13.6 9.1l4.9 24.1l-2.7 5.3l5 16.7l-2.3 34.9l-5.3 6.1l-9.2 0.9l-12.5 8.6l-9.1 -8.2l-17.9 1.6l-11.8 29l3.5 17.5l23.4 14.2l15.2 4l12 18.5l-1.5 22.2l-4.7 14.6l-22.5 22.8l-8.5 8.5l-1.2 11.4l10.8 3.2l11 -2.6l5.4 16.4l-8.5 9.8l-2.3 9.4l6.9 9.4l5 -0.4l5.7 -4.2l7.8 1.8l6.1 8.3l14.9 1.3l15.9 11l2.1 7.8l4.7 5.2l1.2 6.7l-2 6.7l-6 4.2l-3.4 5.3l-6.4 4.5l-3.4 5.4l-3 1.9l0.1 2.7l15 29l7.4 9.6l7.7 2.4l6.6 14.7l-0.9 8.2l-14.9 20.7l-2.6 14.1l-2.7 1.1l-11.5 -6.7l-14.2 -4.9l-12.7 8.5l-10.4 5.8l-6.9 2l-8.4 -2.7l-10.6 2.5l-10.5 9l-1.8 9.4l2.1 6.9l-12.6 9.4l-12.5 33.5l-9 6.2z" />
  </g>
  <g data-id="083">
    <path d="m9004.5 1518.1l0 0l-0.2 107.6l213.9 0.4l-0.4 107.6l320.5 -0l-0.3 107.3l67.4 -0.1l-0.2 215.1l77.4 0.3l29.2 1.2l211 -0.5l0.3 -53.5l72 0.4l-0 -0.5l0.2 -50.4l0.1 -25.8l0.4 -79.1l0.2 -98.3l-0.3 -11.2l0.4 -15.7l0.4 -151l0 -0.2l0.7 -69.3l-0 -2.6l-0.1 -3.6l0.6 -41.5l0.2 -25.5l-0.5 -35.7l-0.9 -72.7l-0.1 -6.1l-0.4 -21.2l-0.2 -26.5l0 -4.1l-18.4 -9.1l-27.3 4.2l-6.5 -17.1l9.8 -15.1l-23.8 -14.6l-9 -22.4l-27.3 25l-17.6 -16.8l4.3 -21.3l-16.7 0.1l2.1 35.8l-19.4 8.5l-18.2 -0.7l-37.1 -24.8l-25.2 7.2l-24 -1.6l-9.1 -27.7l-13.4 -10l-15.4 -0.3l-40.1 -22.6l-13.9 -30.6l-22.6 -2.8l-20.5 14.9l-13.9 -17.9l-13.5 -2.9l-33.2 23.6l-6.4 -0.6l4 -21.1l-18.7 -20.1l-15.7 16l2.1 20.3l-46.2 10.8l-2.1 -12.4l-25.1 -7l-27.7 9.3l-10.9 -18.6l-23.7 -2.3l-27.8 11.6l-25.4 -7.6l-24.1 -30.4l-13.7 0.1l-20.4 16.4l-2.6 32.6l-17.6 19.8l-22.3 -11.4l-8.4 2.9l7.7 20.6l-12.9 22.5l-1.8 -17.7l-11.4 -5.8l-6.3 20l-17.6 6.1l-7.2 13.5l-11.3 -30l-23.1 16.7l-25.3 6.6l4.8 -21.7l-27.4 4.3l-25.8 -11l5.1 -18.2l-11.6 -6l-0.4 26.9l-11 16.3l-0.3 246.9l-32.9 0l-0.1 96.2z" />
  </g>
  <g data-id="085">
    <path d="m8497.4 1030.1l0 0l-0.1 215l29.1 -18l18.8 2.7l7.1 -30.6l10.3 20.6l12.4 6.5l24.8 -8.2l21.9 -26.9l23.6 -4.4l4.1 14.1l14.9 -6.7l3.2 -18.6l-6.9 -14.1l25.3 5l18.7 -10.6l22.1 -2.2l31.1 19.3l10.4 -25.2l12.8 -11.9l15.5 8.6l26 1.9l58.1 -4.4l15.8 5.2l27.7 -4.8l11.4 17l45.8 -12.5l27.9 -0.3l8.4 9.7l1.1 22.1l19 -3.6l11 -16.3l0.4 -26.9l11.6 6l-5.1 18.2l25.8 11l27.4 -4.3l-4.8 21.7l25.3 -6.6l23.1 -16.7l11.3 30l7.2 -13.5l17.6 -6.1l6.3 -20l11.4 5.8l1.8 17.7l12.9 -22.5l-7.7 -20.6l8.4 -2.9l22.3 11.4l17.6 -19.8l2.6 -32.6l20.4 -16.4l13.7 -0.1l24.1 30.4l25.4 7.6l27.8 -11.6l23.7 2.3l10.9 18.6l27.7 -9.3l25.1 7l2.1 12.4l46.2 -10.8l-2.1 -20.3l15.7 -16l18.7 20.1l-4 21.1l6.4 0.6l33.2 -23.6l13.5 2.9l13.9 17.9l20.5 -14.9l22.6 2.8l13.9 30.6l40.1 22.6l15.4 0.3l13.4 10l9.1 27.7l24 1.6l25.2 -7.2l37.1 24.8l18.2 0.7l19.4 -8.5l-2.1 -35.8l16.7 -0.1l-4.3 21.3l17.6 16.8l27.3 -25l9 22.4l23.8 14.6l-9.8 15.1l6.5 17.1l27.3 -4.2l18.4 9.1l-1.1 -209.7l-0.1 -14.8l0.1 -20.3l-0.1 -1.8l-0.1 -59.4l-0 -4l0.1 -2l-0.2 -11.2l-0.1 -2.1l-0.2 -107l-0 -39.9l-0.2 -0.8l-0.2 -18.2l-483.6 -0.1l0 -109.2l-108.2 -0.3l0 -108.8l-179.6 -0.1l-691.9 -0.2l-0.1 431.7l-32.7 0l-0 45.3z" />
  </g>
  <g data-id="087">
    <path d="m6792 2671.8l0 0l-4.3 1.8l17.2 5.7l2.7 12.2l26.5 40.6l-3.5 25.7l15 29.9l11.9 15.3l3.3 17.6l-14.7 2.6l8.6 22.1l-5.1 6.4l18.8 13.2l6.1 14.7l-13.1 21.3l-10.2 25.7l7.3 11.1l-4 20.1l-17.3 23.2l35.2 -0l-1.1 122l12.9 -0.2l22 -0l13.6 17.2l469.6 -1.1l0.1 17.6l17.4 0.1l0.1 87.6l104.1 0.2l-0.1 107.1l17.6 0.9l0 206.6l56.9 -3l-0 308.6l0 10.9l0 45.9l51.5 -0.1l0.1 52l-29.7 -0l-0.1 124.4l55.4 8.7l99 0.1l-1.7 4.3l0 381.8l-32.6 -1.6l0.6 204.8l307.3 -0l99.2 0l0.1 -203.6l36.5 0l3.3 -481.5l-2.3 -38l35.6 -0l0.2 -104.9l-0.1 -312.6l31.8 -0.1l-1.3 -104.6l-0.2 -312.9l29 -0l-0 -170.9l-0.2 -251l28.5 -0l-0.1 -17.5l-527.7 0.9l0.1 -17.6l-622.4 0.4l-0 9.9l-353.4 -0.1z" />
  </g>
  <g data-id="089">
    <path d="m0.2 988.5l0 0l0.7 114.1l-0.3 45.3l-0.1 14.2l0.1 13.2l0.5 8.2l-0.4 74.6l0 28.1l0 0.6l8.8 6.8l6.8 -1.6l19.1 27.1l0.2 5.6l10.2 15.8l4.8 12.1l5.1 8.3l11.8 3.9l3.3 5.1l1.7 14.6l19.8 20.2l19.4 35.3l6.3 1.7l1.2 6.2l4.7 4.9l16.6 -7.9l5.2 7.9l3.4 9.7l16 10.3l4.8 16.5l-1.8 7.8l0.6 27.7l5.7 5.9l4.5 13.4l-0.1 10.7l3 6.4l5.5 3.9l18 -7.3l5.5 2.3l12.8 15.5l-1.6 18.4l4.5 9.3l3.6 4.8l7.6 0.4l4.8 -2l12.8 8.8l10.6 9.5l6.6 11l-3.6 21.7l-7.5 28.8l5.2 15.6l13.9 8l4.3 0.8l11.2 13.7l1.3 30.1l-10.2 23.3l-14.2 8.4l-7.2 5.1l-20.3 22.3l2.3 10l10.2 6.1l19.4 5.6l9.1 -1.1l8.3 8.5l-11.6 5.4l-0.8 9l14.6 17.8l6.6 21.2l2.4 0.8l12.7 -5.2l6.1 12.5l9.8 0.4l11.4 -4.8l4.3 2.5l13.9 5.8l38.6 4.7l27.6 -5.7l8.7 -10.5l-2.7 -13.8l17.9 0.8l12.1 25l38.5 10.9l12 -13.1l23 -10.7l31.9 1.5l17.2 15.7l30.8 -1l19.5 -18.7l27.6 8l30.2 22.1l15.8 1.7l30.4 16.3l6.6 18.3l17.8 12.2l33.5 -5.1l35.7 23l14.5 -7.4l11.3 16.9l29 6.5l8.4 26.2l0.1 75.5l52.4 0.2l-0 17.8l52.9 0l0.1 35.7l37.6 -0.1l30 11l7.9 -4.8l35.6 11.2l17.9 -24.1l42.2 10.3l36 10.8l24.7 3l17.5 18.1l42.8 24.1l18.5 1.1l12.2 13.9l25.4 -2.6l17.1 16.2l34.2 12l7 -4.8l6.4 18.1l-8.2 22.5l19 15.5l25.4 11l10.9 12.8l0.6 -0.4l1.5 0.1l2.6 1.5l1.7 0.3l5 1.8l2.2 0.5l1.6 -0l0.6 -0.4l1.1 0.8l2.4 0.2l1.8 1.3l2.5 -0.5l1 0.5l1.8 -0l3 0.4l15.1 -16.6l20 8.1l20.8 -12.8l0.1 -53.5l-13.4 -0l0.1 -213.3l-71.2 -0.2l-13.9 -8.2l-16.8 7.5l1.1 -10.6l-24.1 -30.5l8.4 -22.1l1.9 -40.3l11.7 -13.9l0.4 -18.8l17.8 6.2l17.1 -7.9l-12.1 -34l-43 -0.8l-16.6 19.2l-11 -2.7l16 -46.3l1.4 -25.1l27.9 -20.2l-8.4 -14.6l-0.3 -19.3l14.5 -13.5l-15.6 8.2l-7.9 -15.8l-194.3 0.5l-0.6 -178.8l-17 -0.1l0.3 -53.8l-0.1 -106.3l-178.3 -0.2l-35.3 3.7l-106.8 -0l-0.1 -162l-17.7 0l0 -18l-8.7 0l-16.4 0.1l-37.2 -0l-25.7 -0.1l-26.4 -0l-5 3.7l1.5 3.6l1.6 4.2l0.5 7.1l-0.1 9.6l3.9 5.5l3.4 4.4l2.7 6.1l-1.9 4.9l-4.9 3.9l-0.3 6.8l-1.6 7.7l-3.7 1.4l-5.3 0.2l-2.3 -6l-4.7 -7.6l-4 -2l-2.2 2.8l0.9 2.5l-0.3 7.8l-4 6.6l-3.6 0.4l-0.1 5.3l1.5 2.7l1 6.4l0.5 5.1l-1.4 4.5l1.5 4.5l-1.9 6.3l-2.7 7.5l-1.2 4.4l-1.7 3.4l-3.3 0.7l-3.7 -1.1l-3.9 2.1l-2.6 -2.6l-3.8 3l-4 2.8l-4.5 3.5l-6.1 3.5l-5.1 -1.1l-5.1 -4.1l-8.5 -0.2l-1.7 4.7l0.3 2.6l-4.5 3.3l-5.5 1.3l-5.4 8.1l-4.4 4.3l-2.6 2.3l-4.3 1.1l-3.7 -3.2l-4.8 -5.9l-2.7 -7.2l-2.8 -7.9l-8.4 -4.4l-5.9 -6.9l-6.1 -0.3l-9.9 2.7l-8.8 3.7l-7.7 3.4l-9.1 4.9l-11.8 4.5l-8.7 -6.3l-7.3 -6.8l-1.6 -7.9l1.3 -9l1 -5.3l-5 -3.4l-6.6 1.1l-7.2 1.3l-1.9 5l-0.8 4.9l0.3 7.7l-0.1 6.1l-4.3 3.3l-3.3 -1.2l-9.7 -3.6l-11.2 -5.5l-7.4 3.8l-0.7 2.2l-6.1 -0.9l-3 -2.2l-4.4 1l-2.2 2.1l-5 4.9l-9.1 2.8l-10.9 0.5l-7.6 -3.8l-6.9 -5.6l-5 -4.4l-4.3 -7.4l-3.4 -8.4l-5.1 -6l-0.9 -8l2.3 -7.3l5.2 -7.9l1.5 -9.8l3.4 -8.6l1.5 -8.2l1.5 -6.1l-1.8 -6.2l-1.5 -8.1l-1.4 -6l-2 -3.4l-2.5 -3.3l-1.6 -4.6l-3.1 -3.8l-5.1 -4.4l-4.3 -5l-3.9 -0.9l-7.1 -1.8l-5.3 -4.4l-2.2 -3.9l-4.2 -4.7l-4.8 -4.4l-0.9 -5.5l-0.9 -3.5l-4.3 -3.7l-3.4 -4.8l0.9 -5.2l1.5 -5.9l-1.5 -3.6l-6.3 -3.8l-2.5 -2.6l-4.5 -5.4l-4.8 -3.4l-4.7 -3.5l-1.3 -3.2l-1.2 -3.4l2 -0.3l2.6 -5.3l1.1 -6.2l-3.5 -6.3l0.1 -5.8l0 -8.5l-2.5 -7.3l-1 -5.8l-5.6 -7.5l1.8 -11.4l-6.2 -8.7l-2.7 -5.2l0.8 -4.5l-4.5 -4.6l-4.5 -4.1l-4.2 -7.2l-3 -4.7l-9.2 -1.6l-5.9 -3.9l-0.9 -9.5l0.9 -4.4l2.7 -5.5l4.7 -7.7l2.7 -5.5l3.9 -0.7l1.9 -1.3l0.2 -2.7l-0 -7.4l0.5 -4.9l-4.9 -6.5l-3.4 -6.7l-3.8 -5.6l-4.2 -3l-4.3 -16.8l-16.7 -17.6l-20.3 -12l-23.5 3.9l-9.3 24.2l-14.7 21.1l-24.3 6.8l-1.8 7.6l-20.4 0.8l-37.4 20.9l-6 14l-23.8 -1.8l-16.6 43.8l-10.8 -7.2l-29 -3.7l-11.2 -14.6l1.1 -45.8l-27.4 -12.4z" />
  </g>
  <g data-id="091">
    <path d="m9152 2.6l0 0l-0.1 112.2l16.3 0l-0.3 329l54.3 0l-0.1 109.4l179.6 0.1l-0 108.8l108.2 0.3l-0 109.2l483.6 0.1l-0 -0.2l-0 -1.6l-0.1 -25.6l0.1 -12.6l-0.1 -31.2l-0.1 -1.7l-0.1 -6.6l0 -0.5l-0.1 -17.8l-0.1 -34l-0.4 -7.4l0.3 -22.4l0.1 -10.1l-0.3 -6.1l0.2 -0.9l-0.1 -10.4l-0 -29l-0.1 -36.3l-0.2 -9.4l0.2 -26.6l0.3 -6.9l-0 -1.7l0 -8.8l-0.2 -18.5l-0.1 -1.6l0 -9.5l0 -1.8l0 -5.4l-0 -1.3l-0.4 -104.6l-0.2 -5.3l0.3 -18l-0.3 -29l-0 -10.7l-0.3 -63.7l0.2 -23.2l-0.1 -2.3l-0 -8.2l-0 -2.2l0.1 -5.3l0.1 -28.7l-0.1 -5.4l0 -6.7l-0.1 -27.3l0.1 -8.5l-0.1 -3.8l-0.1 -8l0.1 -2.8l0.1 -6.7l-0.1 -2.4l0.2 -6.1l-0.1 -3.8l0.1 -25.7l-0.2 -16l-264.2 0.6l-201.2 0.5l-228.5 -0.1l-146.2 -0.2z" />
  </g>
  <g data-id="093">
    <path d="m2488.7 3855.9l0 0l-20.6 10.8l50.6 36.9l18.9 16.5l2.3 10.2l9.1 -1.3l35.8 11.3l15.2 -2.8l20.5 25.2l14.8 -10.7l13.6 13.7l11 -2.4l26.3 6.6l20.3 18.5l11.6 -5.8l3.9 9.7l17.7 8.8l0.9 16.9l8.8 5.6l-5 20.9l14.5 30.7l29.2 11.5l7.4 24.9l-6.2 12.7l10.5 24l71.9 -43.4l19.2 -20.1l23 -7.2l21.8 -28.4l-1.6 -23.5l8.5 -22.7l14.2 -15.6l10.9 0.9l19.6 19.6l226.1 -7.1l-20.4 -20.5l-32.2 -5.5l-11.2 -19.2l-122.7 -60.2l-10.2 -8.4l-3.4 -12.5l21.8 -40.5l-13.7 -26.5l0.9 -9.2l2.6 -4.3l-16.4 -22.6l5.3 -21.6l-11.8 -46.2l7.1 -20.2l-7.8 -24l-12 -3.5l-10.9 -3l-3.6 -15l12.7 -29l-3.8 -20.5l-24.6 -19.1l-20.1 -33.1l6.2 -25.7l-3.8 -9.7l9.7 -22.2l-17 -0.9l-16.2 12.1l-26.5 -4.8l-31.7 16.3l-20.9 -10.8l-13.2 25.9l-20.6 20.7l-80 -0.2l-0.3 81.7l-0 0.5l-0.2 22.9l-62.5 -0.1l-14.4 24.3l1.9 21.2l-13.2 14.9l-32.5 -8.1l-13.5 13.8l0.5 29.8l12.6 40.5l-5 9.3l-25.8 5.1l-4.2 20.4l-40.7 26.6l-8.3 14.2l-30.6 2z" />
  </g>
  <g data-id="095">
    <path d="m4983.3 4476l0 0l0.1 208.9l221.3 0l-0 5.7l92.3 0l-0.1 -111.2l66.1 -0l-0.3 -51.3l17.2 -0l-0 -34.4l17.1 0l4.8 -34.3l17.1 -0l-0 -17.2l17.1 -0l-0 -17.2l17.1 0l0 -17.2l17.2 -0l0 -17.2l34.3 0.1l-0.1 -17.2l16.9 -0l-0 -17.2l51.5 -0.1l0 -17.2l137.1 -0.2l0.2 -69.6l52.7 0.1l0.4 -76.7l49.3 5.1l23.9 -9.2l9.1 -12.4l46.6 -18.1l32.4 16.3l35.4 0.4l25.3 -13.1l15 2.9l-0.1 -33.8l-17.1 0l-0.1 -17l-17.2 -9.5l0.1 -25.3l-17 0.1l2.3 -121l0.2 -209.4l-17.2 -0l-2.5 -86.9l0.7 -120.6l-409.3 -0l-0.8 105.2l-4.9 14.1l-0 87.5l-69.6 1.1l0.5 106.4l-35.7 -0.6l1.9 104.3l-14.5 0l1.5 207.8l-102.7 0.1l0 51.6l-102.7 -0.4l-0 51.7l-101.8 0l-0.6 9.2l-0.1 196.9l-110.4 0z" />
  </g>
  <g data-id="097">
    <path d="m4793.3 3539.3l0 0l0.1 417.7l59.7 0.1l2.2 137.6l-1 178.1l0.1 203l-7.4 0.1l0.2 208.9l136.2 0l-0.1 -208.9l110.4 0l0.1 -196.9l0.6 -9.2l101.8 -0l0 -51.7l102.7 0.4l0 -51.6l102.7 -0.1l-1.5 -207.8l14.5 -0l-1.9 -104.3l35.7 0.6l-0.5 -106.4l69.6 -1.1l0 -87.5l4.9 -14.1l-156.5 -0.3l0.8 -105l-41.3 0l-0 -104.5l-522.9 -1.4l0 43.6l0 60.8l-9 -0z" />
  </g>
  <g data-id="099">
    <path d="m2527 1094.7l0 0l11.8 0.4l14.4 16.2l-9.1 24l12.8 12.3l-2.6 18.3l15.2 -1.2l22.1 24.2l-11.3 6.9l3 23.7l9 -5.4l23.6 6.8l24.1 67.4l-11.1 -0.8l-16.5 37l-32.7 2.5l-27.7 -11.6l0.8 1.7l2.9 12.7l3.4 19.5l1.1 13.3l6.1 6.4l9 3.9l4.3 12.3l2.4 7.7l-1.3 8.1l3.2 11.9l2.4 5.9l4.9 6.2l7.9 6.7l0.5 9.5l1.8 5.5l0.1 5.5l6.2 6.9l1.2 7.4l1.8 9.2l-1.5 9.1l-0.5 9.8l0.2 7.1l-1.6 10.6l-0.7 5.5l-1.4 9l0.4 8.6l-0.4 8.8l-4.1 10.7l6.3 9.7l4.1 13.3l5 6.6l3.7 7.5l-0.3 6.4l-0.5 9.7l-0 13.5l-4.6 7l-0.4 11.3l2.8 4.6l3 6.8l4.4 6.7l4.8 4.2l5.6 11.3l5.7 7.2l2.4 9.6l6 6.3l7.2 10.5l2.9 9.8l8.4 2.3l4.3 6.2l5.2 4.4l6.1 7.8l7.1 6.4l7.7 -2.3l6.6 -0.5l8.5 9.6l9.9 5.1l9.1 -0.8l7.5 -3.4l1.3 -4.7l3.6 -1.9l3.8 -0.7l7.4 -2.2l4.1 -5l6 -4.8l7.3 1.6l7.1 -3.9l6.8 -2l4.6 -1.6l3.6 3.2l2.4 3.5l3.5 2.4l3.5 -2.3l0.7 -2.3l3.9 -2.6l2.5 -1.1l2.3 1.3l3.1 2.9l3.1 -1.4l0.2 -3.1l4.6 -0.9l4.3 1.2l7.7 -1.1l3.4 -5.8l5.8 -0.1l3.9 -3.5l3.8 -4.1l7.5 -2.6l6.1 2.6l4.8 0.6l6.2 -2.4l6.8 0.6l8 -0.4l6.2 -3.1l2.9 -2.7l0.8 -4.2l5 -4.5l2.2 -5.1l2.7 -1.7l5 2.2l1 3.1l1.7 1.3l2.2 -0.2l6.1 4.7l4.3 1.4l6.4 0.3l-0.4 4.1l-0.2 6.4l4.3 4.8l-1.1 5.3l3.9 4.5l3.6 2.1l3.9 -1.7l2.6 4l2 2.6l5.6 2.8l4.5 -2.4l8 1.1l8.4 3.7l8.5 1.2l6.1 2.9l6 2.2l6.2 0l3 3.4l6.9 4.9l1.4 8.2l2 5.9l-1.6 6.6l5.6 6.3l3.1 -0.8l2.6 4.7l-1.8 4.6l3.6 6.8l-1.5 5.8l-2.8 4.1l3.4 5.8l4.5 -0.2l8.9 0.6l6.8 3.8l7.3 2.6l10.3 -3l6 -1.3l7.2 1.1l-0.4 4.6l-1.3 5l6.1 2.3l3.7 -2.9l5.1 -1.2l8 2.3l4.4 6.9l2.2 8.9l5.8 3.1l7.9 4.5l4.5 8.3l3.7 6.6l2.4 4.7l6.6 -1.1l6.6 -1.5l10.4 -2l6.7 4l8.5 -0.2l6.9 -0.6l7.7 -0.1l2.4 5.1l4.6 1.4l4.8 -4.2l8.4 -1.6l5.4 -4.5l7.3 -2.7l3.2 3.3l7.9 -0.4l7.3 -2.2l3.7 -2.8l4 -1.5l4 1.4l7.6 3l8.1 1.1l4 4.5l4.8 0.5l4.4 -0.8l2.2 -3.6l7.9 -0.5l4.9 -5.3l7 0.2l3.2 3.8l6.1 -1.7l3.9 -3.8l9.5 2.3l3.5 -1.2l17.8 -2.2l22.5 13l31 3.9l32.8 -1.2l-0.1 -131l213.7 -0l-0.2 -106.9l17.4 -0.1l196.9 -0.3l0.2 0l0.3 -358.6l-317.3 3.8l-162.1 -0.5l0.1 -72.4l-53.5 -0.2l0.3 -54.4l-108 -0.7l-0.1 -54.3l-540.3 -3.1l-61.6 2.7l-95 0z" />
  </g>
  <g data-id="101">
    <path d="m3210.9 3.3l0 0l3.7 107.1l-0.1 347.5l0 91.2l3.6 111.7l8.5 12.8l17.4 3.5l1.4 -8.6l43.7 26.9l18.2 18.3l3.8 -10.9l39.3 -10.4l17.8 4.4l11.2 13l0 55.5l58.6 1.6l103.8 -0.1l0 54.2l108.3 0.4l0.1 126.6l0 35.9l213.6 0l111.3 0l-0.2 -435l1.8 -438.9l2.8 -3.7l0.1 -101.7l-89.3 0.3l-148.5 0.4l-137.4 -0.8l-96.2 -0.9l-139.4 -0.7l-158.1 0.2z" />
  </g>
  <g data-id="103">
    <path d="m6919.9 3119.9l0 0l0.1 17.2l17.4 0.1l0.2 35l17.5 0l0.2 35l17.4 0.1l0.1 17.5l17.4 0.1l0 34.9l17.3 -0.1l0 17.5l17.4 -0l0 52.4l17.4 -0.1l0 17.5l17.4 -0l0 34.9l17.4 -0l-0 17.5l17.4 -0l-0 34.9l17.3 -0.1l0 34.9l17.4 -0l-0.1 17.4l17.5 0l-6.8 32.4l9.5 13.1l-17.5 20.5l8.8 18.2l-20.6 23.8l-2.1 19.9l-14 14.2l4.9 19.3l72.1 0l-0.2 103.9l207.1 -0.1l-0 52l103.6 -0.2l-0.2 52l94.1 0l-0 -10.9l0 -308.6l-56.9 3l0 -206.6l-17.6 -0.9l0.1 -107.1l-104.1 -0.2l-0.1 -87.6l-17.4 -0.1l-0.1 -17.6l-469.6 1.1z" />
  </g>
  <g data-id="105">
    <path d="m7189.8 1418.8l0 0l-0.4 221.5l45.5 0.6l23.7 13l39.5 0.3l29.4 23.3l61.5 -0.4l13.5 -7.3l37.2 -1.5l36.3 8.2l49.3 -0.9l10.1 -13l32 1.9l13.5 -5.1l15.8 8.4l27.3 -6.6l9.7 -4.1l9.4 -29.9l-7.8 -19.6l14.6 -23.9l22.9 -7.5l40.4 1.1l21.2 13.7l21.4 -3.3l19.2 -26.1l-0.4 -20.9l28.8 -4.7l13 5.2l7.3 -23l26 -0.7l10 16.9l5.6 -9.3l-5.9 -25l32.6 -10l11.3 -19.4l-4.8 -15.1l28.3 -11.5l1.8 -13.6l-13.5 -17.3l10.5 -7.3l16.9 2.3l0.2 -15.1l-17.3 -15.4l26.9 -13.6l8.2 -22.4l-16.8 -17.3l5.9 -14.6l41.1 -15.1l4.2 -15.5l15.4 8.3l-3.8 14l12.4 9.2l3.6 -19.1l-13 -56.6l10.1 -30.7l14.3 -23.7l22.5 -0.5l7.6 19.3l21.5 0.9l14.3 -11.7l17 17.5l21.1 -6.5l25.6 20.7l12.9 4.4l86.4 -5.2l-2 14.7l-13.9 14.5l18.6 3.5l22.3 -7.8l8.2 -30l16.2 2.3l18.4 30.3l24.7 2.5l2 -12.1l-10.9 -12.3l15.8 -9.5l26.3 22.2l32.8 3.1l13.1 11.7l19.2 -13l-2.3 -24.7l12.3 0l6.1 15.9l27.8 13.9l0.1 -215l0 -45.3l32.7 -0l0.1 -431.7l-180.6 -0.1l0 -328.6l-108.8 0.1l-0 -109.7l33.2 -0l-0 -112.6l-111.1 -0l-110.3 -0.1l-80.4 -0.1l-152.6 -0.2l-253.8 -0.2l-180.8 -0.1l-0 110.9l-21.8 -0.1l-0.2 435l11.3 0.1l0 73.8l-28 -0.4l-21.3 -9.1l-5 45.2l-36.4 0.1l0.2 51.4l0.3 57.7l34 -0.1l-0.1 111.9l-90.6 -0.5l-0.4 108.5l-29 -0.1l-0.1 433.3l-8.1 -0z" />
  </g>
  <g data-id="107">
    <path d="m4802.7 3110.2l0 0l-0.4 324.8l522.9 1.4l209 -0.4l-0.5 -326.9l12.5 0l-0.5 -245.9l-296.9 0l0 -0.6l-61.7 0.8l-21.1 -21.1l-10.5 3.1l-31.6 -21.5l-33.6 -14.4l-27.7 -18.4l-49.6 20.3l-18.8 -16l-28.8 3l-24.6 9.8l-9.5 24.2l-25.1 3.1l-28.5 -11.2l-16 20.8l-52.1 -2.4l0.3 267.4l-7.1 0z" />
  </g>
  <g data-id="109">
    <path d="m9526.9 2695.3l0 0l0.3 178.6l157.3 0l-0 17.5l52.7 0.1l-0.1 35.1l257.7 -0.1l-0.2 -81.6l-0.1 -6.2l0.2 -9l-0 -1l0 -3.9l-0.4 -128.1l0.3 -125.6l0 -0.1l-0 -8.8l0.4 -117.6l0 -4l-0.1 -15.6l-0 -4.7l-0 -7.8l-0.1 -17.9l0.3 -3.2l-0.1 -14.2l0.2 -42.3l-0.6 -108.1l0.3 -59.1l0.1 -2.6l0 -1.1l-0 -5.6l-0.1 -3.1l0 -3.7l-0.2 -65.3l-0 -2.2l-0 -14.1l0.4 -38.8l-0.2 -27.1l-72 -0.4l-0.3 53.5l-211 0.5l-29.2 -1.2l-1.9 11.6l-23.6 31.6l17.4 1.6l9 17.9l26.7 18l0.1 17.7l11.4 -0l17.7 35.5l8.9 -0l-0.1 35.4l8.8 -0l-0.1 26.5l12.6 17.5l-0.2 53.5l8.8 0.1l-0.3 115.9l-17.7 0.1l0 44.2l-26.6 35.7l-8.9 35.4l-26.4 17.7l-8.8 35.4l-17.6 -0.1l0 17.6l-17.6 -0.1l-8.8 17.6l-17.6 -0.1l-8.8 17.6l-89.2 -0l-2.9 35.3z" />
  </g>
  <g data-id="111">
    <path d="m5932.4 3541.1l0 0l-0.7 120.6l2.5 86.9l17.2 0l-0.2 209.4l-2.3 121l17 -0.1l-0.1 25.3l17.2 9.5l0.1 17l17.1 -0l0.1 33.8l37 -28.4l13.8 -4.5l0 27.4l-17 33.5l0.5 42.3l34.1 0.2l0.4 34.5l50.8 0.2l1 69.5l43.9 -0l0.3 0l166.3 4.3l107.3 -0.1l0.1 -34.4l102.5 -0l-0 -34.5l102.8 0l0 -193.6l0.1 -122l18.3 0l0.2 -138.4l137.8 0.1l-0 -34.6l34.6 0.2l-0 -34.5l34.6 0.1l0.1 -34.7l103.5 -0.1l0 -69.4l135.6 0.2l-4.9 -19.3l14 -14.2l2.1 -19.9l20.6 -23.8l-8.8 -18.2l17.5 -20.5l-9.5 -13.1l6.8 -32.4l-17.5 -0l0.1 -17.4l-17.4 0l-0 -34.9l-17.3 0.1l0 -34.9l-17.4 0l0 -17.5l-17.4 0l-0 -34.9l-17.4 0l-0 -17.5l-17.4 0.1l-0 -52.4l-17.4 0l-0 -17.5l-17.3 0.1l-0 -34.9l-17.4 -0.1l-0.1 -17.5l-17.4 -0.1l-0.2 -35l-17.5 -0l-0.2 -35l-17.4 -0.1l-0.1 -17.2l-13.6 -17.2l-22 0l-0.7 121.8l-121.9 -0.1l0 17.5l-17.4 0.2l0.1 17.5l-17.4 0.1l0.1 17.5l-17.6 0l0.2 17.4l-17.6 0.2l0.3 35l-14.8 -0l-0 52.8l-242.7 0.1l-0.1 17.3l-34.9 -0.4l-0 17.4l-34.9 -0.5l0.1 123.9l-312.2 0.6l-120.6 0.1z" />
  </g>
</svg>
