<?xml version="1.0" encoding="UTF-8"?><!DOCTYPE svg PUBLIC '-//W3C//DTD SVG 1.1//EN' 'http://www.w3.org/Graphics/SVG/1.1/DTD/svg11.dtd'><svg viewBox="0 0 1000 779.15" xmlns="http://www.w3.org/2000/svg"><path data-id="36001" d="m695.3 454.4l0.2 2.2l1.2 -0.2l40.6 -6.3l18.9 -3.3l-0.2 -3.9l1.6 -3.8l1.2 -2l1.5 -7.8l-1 -8.1l2.3 -7l2.1 -2.7l2.3 -4.1l0.4 -2l2.3 -8.8l0.1 -1.7l0.9 -2.9l-1.7 1.3l-2.6 -3.2l-1.2 -1.2l-0.4 -3.3l-1.8 0.2l-4 5.8l-1.4 -1.1l-3.7 2.3l-12.3 2.7l-3.4 0.5l-21.8 3.7l-9.3 1.6l2 2.2l-0.6 8.6l-3 8.3l-5.1 7.4l-1 4.3l0.9 2.2l1.1 2l-0.4 5.5l-2 4.1l-2.6 8.6z"/><path data-id="36003" d="m183.8 437l0.1 89.2l4.7 0.1l8.2 -0.1l10.4 -0.1l11.8 0.2l4.2 0.1l20.9 0l1.2 0l9.2 0l1.1 -33l0.6 -15.3l0.7 -20.9l1 -11.5l-14.8 -0.6l-0.1 -7.4l-14.5 -0.1l-11.2 0l-33.6 -0.4z"/><path data-id="36005" d="m737.8 713.5l-0.6 1.3l2.3 1.1l1 0.3l-0.5 1.2l-1.1 1.5l-1 1.9l-0.7 1.8l0 1.3l0.1 1.4l0 1.3l0.6 1.3l1.8 1.2l2.7 1.1l2.6 0.6l1.1 -1.8l2.1 -0.6l2.4 -0.5l2.1 -0.2l2.2 0.8l-0.5 -2.6l-1.8 -1.6l-0.4 -1l0.3 -2.6l1.6 -0.3l0.7 -1.3l0.3 1.5l0.8 1.5l0.7 -1l1.3 0l0.6 -1.6l-0.7 -1l0.4 -2.8l-2.1 -0.7l-5 -1.7l-1.9 -0.5l-1.1 -2l-1.6 1l-2.3 -0.9l-5 -1.9l-1.5 4.7z"/><path data-id="36007" d="m459.4 456.1l3.6 17.1l-0.6 3.9l2.4 1.5l0.9 3.5l-2 0.1l2 4.6l-0.7 7.5l-3.7 0.2l0.3 5.5l0.7 8.9l0 4.5l0.5 7.4l-0.1 5.6l5.8 0l9.7 0l3.2 0l11.1 0l12.3 0.1l3.9 0l16.7 -0.2l7.2 0l8.8 0l6.1 0l4.3 0l-2.5 -7.3l0.3 -18.5l0.2 -7.6l-8.2 0l-19.4 -0.1l-0.2 -9.1l-10.6 -0.1l-12.3 0.1l-2.2 0.8l-0.9 -2.6l-1 -14.6l-1.5 -12l-19.9 1.1l-4.6 -0.4l-9.2 0.3z"/><path data-id="36009" d="m88.7 434.2l-0.1 92.1l9.9 0.1l8.1 0.1l5.6 0.1l15.8 -0.1l19.4 -0.3l36.5 0.1l-0.1 -89.2l-19.7 0.4l0.1 -2.9l-8.1 2.5l-4.5 2.2l-4.4 -0.6l-1.9 1.7l-3.3 0.8l-0.9 1.2l-2.1 -0.3l-4.2 3.5l-0.6 -2.3l-4.7 0.8l-0.2 1.3l-3.1 0.4l-2.2 2.6l-1.7 -1.3l-5.3 3.3l-5.2 0.3l-2.9 -1.3l-2.4 1.2l0.1 -2l-2.7 -2.5l-2 -0.7l-1.2 -3.7l-2.5 -2l-0.3 -2.8l-5.7 -3.7l-3.5 0.9z"/><path data-id="36011" d="m382.3 390.9l0.3 6.1l1.1 7.1l5.5 7.3l2.4 8.1l6.6 0.2l19.7 -0.9l0.1 1.5l24.4 -0.9l-1.1 -25.4l-0.1 -1.6l-3.8 -5.7l-6.5 -6.2l-11.8 0.6l-0.9 -14.5l-0.7 -13.3l-3.7 0.2l-0.7 -16.9l3.3 -0.8l-1.8 -6.1l1.7 -0.7l-0.8 -14.1l-0.2 -5.1l-15.1 0.5l-2.1 -28.8l-1.7 1l-1.5 2.1l-3.4 6l-1.9 2.4l-1.7 1.4l-3.1 0.1l2.6 45.7l-2 3l-0.1 5.1l0.6 1.6l-3.2 12l0.7 10.4l1.5 4.3l0.5 5.3l-2.9 8.5z"/><path data-id="36013" d="m0 483.3l0 1.4l0 10.1l0 1.8l0 1.8l0 2l0 3.3l0.1 2.1l0 17l0 3.2l11.5 0.1l5.7 0.1l1.8 0l7.5 0.1l1.6 0l3.5 0l4.9 0l28.2 -0.1l9 -0.1l14.8 0l0.1 -92.1l-5.9 -5.5l-3.7 0l-1.5 2.8l-5.6 1.3l-3.8 1.7l-2.5 0.7l-2.7 1.5l-2.4 2l-4.3 1.9l-1.8 1.9l-1.4 -0.1l-1.2 0.1l-1.3 1.5l-2.5 2.4l-3 2.3l-3 4.3l-3.1 3l-2.7 1.2l-4.6 3.8l-4.5 3.2l-6 3.7l-6.5 4.5l-9.2 5.3l-5.6 2.5l0 3.2z"/><path data-id="36015" d="m353.7 525.9l2.9 -0.1l2 0l11.6 0l2.4 0l8.4 0l14.1 0.2l10.1 0.1l2.1 -8.8l-2.3 -13.6l-0.4 -4.2l3.3 0.1l0.1 -16.2l-0.3 -5.4l-10.2 -0.2l0 5.8l-2.9 2.6l-5.4 -0.6l0 -1.8l-5.9 0l-0.2 -7.8l-13.8 0l-15.4 1.1l0 1.5l0 13.6l0 33.7z"/><path data-id="36017" d="m489.8 402.2l2 31.1l1.3 21.8l1.5 12l1 14.6l0.9 2.6l2.2 -0.8l12.3 -0.1l10.6 0.1l0.2 9.1l19.4 0.1l8.2 0l0.3 -14.8l0.1 -5.6l2.1 -3.7l0.5 -3l-1.6 -4.7l1.8 -3.4l2.3 -2.6l-1.5 -5l-1.6 -2.8l-0.7 -3.1l1.2 -1.4l-1.1 -3.7l1.8 -0.4l2.8 -7.1l3.8 -1.7l1.3 -2.7l-1.3 -6.1l1.8 -1.7l-0.3 -4l-0.6 -4.8l2.2 -2.7l2.1 -5l0.1 -4.4l-16.7 1l-0.1 -1.3l-58.3 3.7z"/><path data-id="36019" d="m725.4 3.6l2.3 16.5l0.4 5.6l-0.1 6.3l2.6 23l2.6 -0.2l2.6 23.9l1.6 -0.2l2.9 26l26.4 -2.8l4 0.7l5.1 -3l1.7 0.7l5.6 -1.9l2.1 -3.1l3.5 -1l3.8 0.3l1 -2.4l3.6 -3.6l-0.5 -3.2l15.8 -1.6l-1.4 -1.5l-1.3 -1.3l-1.8 -2.3l-0.2 -1.2l-0.8 -1.2l0.6 -1.1l-0.5 -1.7l-0.3 -1.2l-1 -1.1l0.4 -1.5l-0.1 -1.5l1.1 -1l0.1 -2.1l0.5 -1.7l0.1 -1.3l0.1 -1.5l0.3 -1.2l1 -1.9l-0.5 -1.1l0.1 -4.5l-0.1 -2.9l1 -1.6l1.1 -3.1l0.6 -1.4l1.1 -1l0.3 -1.2l-0.1 -1.9l-2.1 -3l-1 -1.2l-1 -0.6l-1.2 -1.8l-0.7 -1.6l0.2 -2.2l1 -1l0.7 -2.3l0.5 -2.9l0.2 -1l0.5 -1.3l1 -1.2l1.1 -1l0.1 -1.1l-0.1 -3.4l0.2 -3.1l-0.1 -1l-1.5 -1.8l-0.5 -1.4l0.1 -1.1l1.3 -3.7l-11.9 0.3l-25.6 1l-4.5 0.1l-11.1 -0.1l-14.1 0.4l-19.3 1z"/><path data-id="36021" d="m738.8 507.4l-1 5.3l2.8 -0.1l11.3 5.6l13.6 7l23.3 4.7l0.7 -12.3l3.1 0l-1.4 -6.2l4.1 -15l11.7 -43l3.9 -14.5l-46.2 6.7l-8.3 1.1l1 5.9l-2.3 9.4l1.5 8.6l-0.1 6.3l-2.5 5.9l-4.1 2l-1.6 2l-0.9 6.6l-4.7 4.1l-2.3 6.9l-1.4 2.9z"/><path data-id="36023" d="m441.1 394.1l1.1 25.1l1.5 37.4l15.6 -0.5l9.2 -0.3l4.6 0.4l19.9 -1.1l-1.3 -21.8l-2 -31.1l-0.8 -11.6l-37.9 2.8l-10 0.6z"/><path data-id="36025" d="m549.3 500.5l-0.3 18.5l2.5 7.3l5.4 0l1.7 0.7l1.1 1.4l-0.6 2.1l1.6 1.1l0.9 1.1l0.5 1.2l1 0.9l1.1 0.1l0.2 -1l1.1 0.3l0.1 1.2l1.5 1.1l0.3 2.1l0.1 1.2l0.7 1.4l0.3 1.6l-0.6 1.5l0.2 1l1 0.3l0.7 1.3l-0.8 1l0.4 1.2l1.1 0.3l1 -0.8l1.1 0.9l1.1 0.7l1.5 -1.7l1.4 -0.4l1.2 0.5l0.8 1l1 -0.8l0.5 -1.1l1 0.4l0 1.9l0.6 1.3l1.4 0.6l19.7 -11.9l27.4 -16.7l14 -8.8l14.7 -9.1l0.7 -1l2.2 -3.3l3.4 0.3l6.6 -4.1l-10.8 -5.5l13.8 -25.2l-1.9 -1l-22.2 -11.9l-11.7 -16l-4.1 0.3l-3.6 1.8l-9 -1.3l-15.8 7.6l-3 4.8l-3.2 -2.4l-0.2 4.3l-5 -0.3l-4.3 1.7l-13.1 10.7l0.8 -3.7l-3.4 2.1l-3 0.4l-2.6 -0.3l-1 2.6l-3 2l-1.8 3.1l-4.3 1.1l-4.6 -1.3l-4.8 1.4l-0.1 5.6l-0.3 14.8l-0.2 7.6z"/><path data-id="36027" d="m729.1 614.2l-0.2 4.3l2.3 2.7l6 -8.3l30.5 -4l2.5 -0.4l3.2 -0.6l8.6 -1.4l6.3 -0.1l1.1 -15.7l0.1 -3.6l0.2 -4.3l0.2 -3.5l0.6 -9l0.1 -2.8l0.8 -11.2l0.4 -5.9l0.5 -5.7l0.2 -5.1l0.4 -6.1l0.4 -7.1l0.3 -8.4l-1.2 0l-3.1 0l-0.7 12.3l-23.3 -4.7l-13.6 -7l-11.3 -5.6l-2.8 0.1l0.4 1.2l-0.8 1.8l-0.6 9.4l-3.5 16.4l3 6.3l-1 3.8l-0.4 13.6l0.6 1.2l0.7 1.3l0 3.3l-0.4 3.7l-0.3 2.6l0.4 1.5l0.1 1.1l-0.6 2.6l-0.8 13.3l-0.2 1.4l-4.2 6.6l-0.8 2.6l-0.3 1.3l0 5.4l-0.1 1.1z"/><path data-id="36029" d="m80 425.3l-0.9 3.5l3.7 0l5.9 5.5l3.5 -0.9l5.7 3.7l0.3 2.8l2.5 2l1.2 3.7l2 0.7l2.7 2.5l-0.1 2l2.4 -1.2l2.1 1.9l6 -0.9l5.3 -3.3l1.7 1.3l2.2 -2.6l3.1 -0.4l0.2 -1.3l4.7 -0.8l0.6 2.3l4.2 -3.5l2.1 0.3l0.9 -1.2l3.3 -0.8l1.9 -1.7l4.4 0.6l4.5 -2.2l8.1 -2.5l0.1 -42l-3.2 0l0.2 -15l2.8 0l0 -15l0 -23.2l-1 1.2l-3.2 -0.1l-1.5 -2.7l-1.4 1.6l-2.4 0.5l-1.4 -1.3l-3.2 0.7l-1.3 2.7l-2.3 0.2l-1.9 -2.7l-2.9 -1.6l-0.8 2.8l-2.1 -1l-2.3 1.1l-1.8 -1.1l-2.8 0.9l-1.1 -0.9l-2.1 2.7l-7.3 0.8l-2.6 2.5l-1.1 0.2l0.7 2.5l-0.4 1l-1.3 1.8l-6 -0.5l-1.3 -3.7l-1.2 -1.3l-5 -2.7l-8.1 -0.5l-1.3 0.6l1.1 0.3l0.6 1.2l0 1.8l-0.8 3.1l-1.2 2.5l0.1 3.4l1.1 1.6l4.6 2.9l1.7 1.9l3.7 0.3l1.7 1.6l0.8 1.6l0.8 2.5l0 4l-0.8 2.3l2.6 0.3l1.2 3l1.3 2.4l1.6 2.1l-0.1 1.1l-0.7 1.4l0.3 2.4l0.3 1.3l1.2 2.4l-0.3 1.3l-1.9 2.4l-6.3 5.7l-3.3 0.9l-3.2 2.5l-2.7 2.1l-1.9 0.1l-1.6 0.5l-3.8 2.1l-1.7 3.6l-0.2 4.1l-1.2 0.8l-4.8 4.6l-0.3 1.3l-1 2z"/><path data-id="36031" d="m696.5 185.5l-10.2 7.8l15.6 20.1l1.4 -1.7l6.8 -1.6l1.3 2.1l4.7 2.2l2 -0.7l4.9 2.2l-1.3 9.1l78.3 -10.4l7.4 -0.8l-1.4 -1.5l0 -2.1l1 -1.4l1.1 -1l0 -1l-1 -1.3l0.4 -1.6l0.7 -1.7l-0.3 -1l-0.9 -1.9l-1.6 -2.1l-0.7 -2.5l-0.9 -2.3l0.3 -3.3l-0.2 -3.3l-0.6 -1.5l-0.2 -1.3l0.9 -5l-0.2 -1.5l-0.4 -1.2l-1.2 -0.9l-1 -1l-1.2 -0.9l0.6 -3.6l0.2 -1.5l0.1 -1.4l1.6 -3.5l0.6 -2.3l-0.4 -2.4l-0.3 -1l0.5 -1.1l1.1 -1.2l0.4 -2l0.1 -1.2l0.2 -1.1l0.1 -1.2l0.8 -1l-0.1 -1.4l1.1 -1.4l1.3 -0.9l1.3 -1.1l0.6 -1.3l0.3 -1.2l0.7 -1.3l1 -0.7l1 -1.1l1.1 -0.4l0.6 -1l0.4 -1.5l0.4 -1.1l0.3 -1.8l-0.2 -1l-0.6 -1.4l-0.7 -2.4l-0.2 -1.5l0 -1.6l0.1 -1.1l0 -1.5l-0.3 -1.7l-0.9 -2.4l0 -1.3l0.2 -1.4l1.6 -1.9l0.8 -1l0.3 -1.1l0.2 -1.4l1.8 -4.6l0.3 -1.6l-0.2 -1.4l-0.6 -1.6l0.2 -1.6l0 -1.3l-0.7 -2.5l-0.1 -1.1l-0.2 -1.4l-0.8 -1.2l-1 -1.1l-0.1 -1.1l-0.1 -1l-1 -0.9l-1 -2.2l-15.7 1l0.5 3.2l-3.6 3.6l-1 2.4l-3.8 -0.3l-3.5 1l-2.1 3.1l-5.6 1.9l-1.7 -0.7l-5.1 3l-4 -0.7l-26.4 2.8l-29.3 4l2.4 17.6l3.7 30.1l-23.8 3l3.3 26.5z"/><path data-id="36033" d="m637.4 3.2l0.2 8.1l9.9 0.1l2.4 24.5l12.3 114.3l-2.4 0.2l1.2 12.4l32 -3.8l23.8 -3l-3.7 -30.1l-2.4 -17.6l29.3 -4l-2.9 -26l-1.6 0.2l-2.6 -23.9l-2.6 0.2l-2.6 -23l0.1 -6.3l-0.4 -5.6l-2.3 -16.5l-15.1 0.8l-11 -0.1l-12.8 0l-15.5 -0.9l-11.6 -0.3l-14.2 -0.2l-1.4 -0.3l-1.4 0.3l-2.3 -0.6l-2.6 0.9z"/><path data-id="36035" d="m631 340.1l1.3 4.4l0.5 1.8l27.5 10.7l6.8 0.1l49.5 0.4l-3.4 -29.6l-2 -17.4l-10.6 1l0.4 4.6l-12.8 1.2l-0.5 -4.7l-26.3 2.3l-22.5 -10.1l2.1 19.4l-2.8 1.6l1.1 2.7l-3.2 0.9l0.7 3.3l-3.9 1l-1.9 6.3z"/><path data-id="36037" d="m164 332.3l0.1 6.9l0 23.2l0 15l49.4 -0.5l0 1.1l10 -0.2l5.1 0.4l-0.1 -7.4l2.6 0.1l0.1 -7l2.9 0.1l0.2 -7.4l0.3 -2.6l0.4 -5.9l-5.9 -0.4l5.4 -15.6l-11.3 -0.6l-39.6 0.3l-19.6 0.5z"/><path data-id="36039" d="m660.9 491.8l10.8 5.5l18.2 9.4l4.5 0.5l24.9 2.6l4.1 -12.6l4.9 1.2l0.1 -2.3l10.6 8.2l1 0.3l2.3 -6.9l4.7 -4.1l0.9 -6.6l1.6 -2l4.1 -2l2.5 -5.9l0.1 -6.3l-1.5 -8.6l2.3 -9.4l-0.1 -5.5l-19.8 2.9l-40.6 6.3l1.2 5.3l-1.8 -0.3l-2.2 2.7l-8.8 1.3l-4.2 -3.1l-8.2 3.2l1.9 1l-13.8 25.2z"/><path data-id="36041" d="m630.7 270.1l-11.6 25.6l19.6 9.3l22.5 10.1l26.3 -2.3l0.5 4.7l12.8 -1.2l-0.4 -4.6l10.6 -1l-2.5 -20.4l-6.9 -62.3l19.9 -2.8l1.3 -9.1l-4.9 -2.2l-2 0.7l-4.7 -2.2l-1.3 -2.1l-6.8 1.6l-1.4 1.7l-15.6 -20.1l10.2 -7.8l-3.3 -26.5l-32 3.8l-14.4 1.9l-15.1 1.9l-10.9 1.3l9.9 102.2z"/><path data-id="36043" d="m574.6 345.5l0.4 5.1l1.1 14.2l0.7 10.3l-1.4 0.1l0.2 4l9 -0.6l4.9 -8.4l18.5 10.7l6.1 3.7l1.5 -1.2l2 -11.4l14.6 6l2.9 -23l-0.4 -5.9l-2 -2.9l-0.5 -1.8l-1.3 -4.4l1.9 -6.3l3.9 -1l-0.7 -3.3l3.2 -0.9l-1.1 -2.7l2.8 -1.6l-2.1 -19.4l-19.6 -9.3l11.6 -25.6l-9.9 -102.2l-26.4 3.5l-13.6 -8.2l7.6 84.5l4.2 49.6l-2.9 1l-0.8 2l-1.7 1.5l-3.6 -0.1l-1.8 8.1l5 3l6.8 2.4l-11.6 19.5l-2.4 3.5l-0.3 3.4l-3.2 1.9l-1.4 2.1z"/><g data-id="36045"><path d="m428.6 202.2l1.6 0.4l3.4 -1l3.4 -4.7l0.8 -2.2l-2.3 0l-3.5 3l-3.4 4.6z"/><path d="m427.6 171.9l-0.2 1.7l1 1l1.7 -0.3l5.1 0.3l1.7 1l0.7 2.1l2.5 0.8l1.6 1.4l0.1 2.4l-1.3 2.6l-0.5 1.7l1.5 0.3l2.2 -1l5.9 -1.6l1 1.3l3.9 1.6l2.8 3l1.3 1.2l1.1 3.1l0.1 2.3l0 1l-2.3 1.6l-1 -0.3l-6.3 4.8l-2.3 -0.3l1.5 -4.6l-0.6 -1.7l-1.8 2.4l-4.1 0.8l-3.3 2.4l-1.4 1.9l-0.3 3.3l8.1 5.5l2.7 9.4l1 6.1l0.6 6.7l22.6 2.1l-0.4 -6.8l31.7 3.2l-1.5 -17.4l-8.1 -0.6l1.3 -16.1l10.4 0.9l19.5 -16.3l3.4 1.1l4.3 -0.4l-0.9 -7.1l6.1 -0.2l0 -4.7l1.1 -1.9l-1.2 -0.8l2.3 -4l-7.8 -5.1l1.6 -2.6l11.1 -17.7l-8 -5.2l-44.3 -27.7l-1.4 1.5l-5.2 4.7l-1.2 0.4l-0.9 1.1l-1.3 0.7l-1.2 1.1l-2.6 1.1l-1 -0.6l-2.9 -0.1l-5.6 2.8l-6.6 5.7l-1.8 0.3l-1.9 0.6l-4.4 2.4l-0.3 7.3l-3.4 3.2l-2 1.2l-4.9 1.9l-5.2 0l-3.3 0.8l-5 10.9l-2.3 6.5l1.3 2.3l-0.1 2.6l-1 3.6l-1.4 0.9z"/><path d="m418.5 199.4l1.5 1.4l2.7 -2l4 -2.5l1.3 -2.3l-4.3 -0.8l-5.3 6.2z"/></g><path data-id="36047" d="m723.6 757l0.2 2.7l0.8 1.4l3 1.1l1.2 2.2l-1.5 1.6l2.6 0.7l1.5 -0.2l1.7 -0.2l1.7 -0.2l1.3 -0.2l1.3 -0.2l-0.2 1.1l6.1 -0.8l4.5 -2.5l1.9 -3.1l0.2 -3.5l-1.9 -2.5l-1.1 -4.7l-0.7 -1.4l-0.7 -2.5l-1.4 0.6l-2.1 1.5l-1.6 -2.6l-0.7 -1.1l-1.1 -2l-0.7 -1.7l-3.3 -2.1l-1.1 0.4l-0.1 2.3l-1.3 2.2l-2.7 0.8l-0.8 2.4l-1.8 1.3l-0.4 3.9l-1 1.2l-0.9 1.3l-0.6 1.1l-0.3 1.4z"/><path data-id="36049" d="m496 200.6l-1.3 16.1l8.1 0.6l1.5 17.4l1 11.2l1.3 27l28.2 8.8l17.8 -11.5l21.1 -13.3l14.6 -9.3l-7.6 -84.5l-11.5 -6.9l-19.2 -11.9l-4.1 -2.5l-11.1 17.7l-1.6 2.6l7.8 5.1l-2.3 4l1.2 0.8l-1.1 1.9l0 4.7l-6.1 0.2l0.9 7.1l-4.3 0.4l-3.4 -1.1l-19.5 16.3l-10.4 -0.9z"/><path data-id="36051" d="m216.8 430.7l-1.6 4.3l2.3 -0.4l0.5 2.3l10.5 0.5l14.5 0.1l0.1 7.4l14.8 0.6l0.3 -11l7.5 0l0.2 -7.8l21.4 0.5l0.1 -11.9l0.4 -4.1l-14.2 -0.3l-1.6 -15.7l3 0l0 -15.7l4.6 0l0.7 -2l-2.7 -12.2l-1.7 -1.3l-7.2 0.7l-15.4 -0.1l3.4 -0.8l1.5 -5.9l-1.3 -1.6l-22.6 0.1l-0.2 7.4l-2.9 -0.1l-0.1 7l-2.6 -0.1l0.1 7.4l-0.2 33.7l-1.6 0.8l-2.7 8.2l-3.2 0.9l1.2 1.8l-2.1 2.4l-3.2 1l1.8 1.9l-1.8 1.7z"/><path data-id="36053" d="m477.1 322.5l2.4 5.3l0.5 3.4l2.2 0.4l-0.7 3l-1.2 -0.8l-1.4 2.9l0.1 2.1l3 0.6l4 -0.4l1.2 17.3l1.8 34.3l0.8 11.6l58.3 -3.7l0.1 1.3l16.7 -1l2 -1.8l0.9 -3.1l2.7 -2.1l-0.2 -1.9l1.7 -6.6l-0.9 -1.8l-0.1 -3.5l-0.1 -1.2l-23.9 1.4l-0.9 -12l-1.6 0l-10.9 0.2l-1 -15.3l-0.2 -3l-5.6 0.4l-0.3 -4.5l-5.3 -3.3l0.2 -2.6l-1.7 -3.2l-2.1 -0.2l-1.1 -2l-3.7 -1.9l0 -2.3l-2.1 -1.9l-3.6 0.7l-2.1 -1.9l-3.7 1.9l-5.3 -0.3l-3.6 2.4l-2 -1.5l-5.2 -1.1l-1 -2.6l-7.2 -1.4z"/><path data-id="36055" d="m223.3 316.5l0 15l11.6 -0.1l-5.7 16.3l5.9 0.4l-0.4 5.9l-0.3 2.6l22.6 -0.1l1.3 1.6l-1.5 5.9l-3.4 0.8l15.4 0.1l7.2 -0.7l12.4 0.1l-0.4 -15.8l14.4 0l-0.5 -28l-0.1 -14.1l-1.9 0.2l-3 1.2l-2.8 0.6l-5 1.9l-3.1 0.7l-4.2 2.7l-2.1 -0.2l-3.3 -1.3l-3.2 -2.4l-2.5 -1.9l-4 -2l-6 -5l-1.6 -2.7l-2.1 -1.1l-3.3 -1.3l-3.5 -0.4l-1.5 -0.1l-1.5 -0.4l-1 -0.3l-7.4 -1.1l-3.7 -1.3l-2.3 0l-3.8 -1.1l-1.6 -0.8l-1.4 -0.2l-2.3 0.7l-0.1 14l-0.1 5.2l0 6.1z"/><path data-id="36057" d="m632.3 378.2l1.5 0.6l13 5.2l10.9 2.9l13.6 6.9l5.5 -0.6l15.4 -1.3l3.3 -2.2l0.9 -2.6l21.7 -14.7l0 -1.3l-1 -8.9l-0.5 -4.1l-49.6 -1l-6.8 -0.1l-27.5 -10.7l2 2.9l0 5.4l-2.5 23.5z"/><path data-id="36059" d="m758.1 728.4l2.3 3.1l6.2 5l0.1 1.6l-0.9 2.5l-2.2 0.6l-0.3 2.3l0.1 4.6l-0.3 3l0.4 2l-1.5 0.8l-0.4 2.3l-1 0.1l-2.5 1.3l0.1 2l1.5 0.8l1.2 -0.2l1.1 3.1l-1.7 0.6l1 0.5l12.9 0.7l3.8 -0.8l4.6 0.5l1.9 0.4l6.5 -1.9l2.8 -0.7l7.7 -2l-0.2 -7l-0.3 -7.4l-0.4 -2.7l-0.1 -1.2l-0.5 -3.3l-0.3 -2l-0.7 -5.1l-2.3 -14.3l-1.7 -1.7l-0.2 -3.7l-2.5 -3.9l-2.3 1.7l-4.1 0.7l-2.3 -1.2l-3.7 1.5l-2.8 1.6l-1.2 -0.3l-1.8 1.1l-1.7 2.4l-0.2 2.4l-1.9 0.9l-5.4 -1.9l-2 0.6l0.4 1.6l-3.5 5.1l0 1l-1.8 3.4z"/><path data-id="36061" d="m722.9 746.8l2.7 1l1.3 0.3l1.8 -1.3l0.8 -2.4l1.9 -0.2l1.6 -2l0.6 -2.4l0.1 -1.7l3.2 -4.6l0.1 -1.3l1.7 -0.6l1.1 -2.4l-1.9 -1.3l-0.6 -1.3l0 -1.3l-0.1 -1.4l0 -1.3l0.7 -1.8l0.8 -1.4l1.3 -2l0.5 -1.2l-1 -0.3l-2.3 -1.1l-0.6 1.2l-1.3 2.7l-0.7 1.7l-1.2 3.5l-0.6 1l-1.9 3.7l-0.5 1l-0.7 1.3l-1 1.8l-0.9 1.6l-0.7 1.4l-0.4 2.1l-0.4 1.9l-0.2 1.2l-0.4 2.7l-2.1 1.6l-0.8 1.6z"/><path data-id="36063" d="m87 340.2l6.9 2.9l1.3 -0.6l8.1 0.5l4.3 2.1l1.9 1.9l0.8 3.8l6.5 0.4l1.3 -1.8l0.4 -1l-0.7 -2.5l1.1 -0.2l2.6 -2.5l7.3 -0.8l2.1 -2.7l1.1 0.9l2.8 -0.9l1.8 1.1l2.3 -1.1l2.1 1l0.8 -2.8l2.9 1.6l1.9 2.7l2.3 -0.2l1.3 -2.7l3.2 -0.7l1.4 1.3l2.4 -0.5l1.4 -1.6l1.5 2.7l3.2 0.1l1 -1.2l-0.1 -6.9l0.6 -15.2l-0.8 -15l0.1 -11.9l-1 0.1l-1.2 -0.6l-8.2 0.8l-11 2.1l-7.9 2.8l-6.4 1.2l-3.9 1.3l-7.1 1.7l-3.2 1.1l-9 3.1l-5.2 2.1l-6.1 1.3l-6.4 2l1.1 1.9l0.7 2.2l0.4 2.9l0 2.1l0.3 2.1l-0.2 2.4l-0.1 1.7l0.6 1.6l0.5 2l0.3 1.7l-0.2 1l-1 1l-1 1.3l-0.2 1.6l0.2 1.7l-0.6 2.1l-1.2 1.7z"/><path data-id="36065" d="m490.2 298.2l3 1l-2.7 28.4l2 1.5l3.6 -2.4l5.3 0.3l3.7 -1.9l2.1 1.9l3.6 -0.7l2.1 1.9l0 2.3l3.7 1.9l1.1 2l2.1 0.2l1.7 3.2l-0.2 2.6l5.3 3.3l0.3 4.5l5.6 -0.4l0.2 3l1 15.3l10.9 -0.2l1.6 0l0.9 12l23.9 -1.4l0.7 -1l3.8 -0.4l1.4 -0.1l-0.7 -10.3l-1.1 -14.2l-0.4 -5.1l1.4 -2.1l3.2 -1.9l0.3 -3.4l2.4 -3.5l11.6 -19.5l-6.8 -2.4l-5 -3l1.8 -8.1l3.6 0.1l1.7 -1.5l0.8 -2l2.9 -1l-4.2 -49.6l-14.6 9.3l-21.1 13.3l-17.8 11.5l-28.2 -8.8l-7.4 -2.3l-9.1 27.6z"/><path data-id="36067" d="m412.9 336.8l0.7 16.9l3.7 -0.2l0.7 13.3l0.9 14.5l11.8 -0.6l6.5 6.2l3.8 5.7l0.1 1.6l10 -0.6l37.9 -2.8l-1.8 -34.3l-0.9 -16.7l-4.3 -0.2l-3 -0.6l-0.1 -2.1l1.4 -2.9l1.2 0.8l0.7 -3l-2.2 -0.4l-0.5 -3.4l-2.8 -5l-1.5 0.7l-5.2 -4l-4.1 0.5l-0.8 -2.5l2.1 0.2l-5.9 -3.4l-5.5 -1.9l-5.7 -4.9l-1 0.5l0 4.2l2.1 4.7l-3.8 2.1l-2.6 -1.7l-1.8 -4l-2.1 -0.2l1.7 3.5l-2.4 3l-3.2 -5.1l-4.8 -0.4l-17 0.9l0.8 14.1l-1.7 0.7l1.8 6.1l-3.3 0.8z"/><path data-id="36069" d="m272 395.4l1.6 15.7l14.2 0.3l-0.4 4.1l-0.1 11.9l4.5 0.1l11.3 0.1l-0.1 -13.5l0 -2.2l1.7 -5.5l2 -5.6l2.9 -4.6l24.2 -0.8l19.2 -0.2l-0.8 -1.6l0.6 -10.4l-0.9 -4l0.3 -2.1l1.9 -0.7l-0.1 -24.2l-21.4 0.1l-0.1 -4.7l-14.1 0l-15.9 0.9l-14.4 0l0.4 15.8l-12.4 -0.1l1.7 1.3l2.7 12.2l-0.7 2l-4.6 0l0 15.7l-3 0z"/><path data-id="36071" d="m632.4 619.4l1 4.1l1.4 -0.9l1.1 0.8l-0.5 2.1l-0.3 1.4l0.6 1.2l1.9 0.6l1.3 2.2l0.9 1.1l1.1 0.8l0.7 1.1l-0.9 1.1l7 4.1l4.3 2.5l13.6 8.5l5.3 3.2l10 6.6l1.5 0.9l5.9 3.6l2.4 1.6l2.8 1.6l5.8 3.4l9.2 -8.9l8 -7.6l3.7 -3.5l11.1 -10.6l2.5 -4l1.8 -7.8l-1.5 -1l-2.8 -6.5l-2.3 -2.7l0.2 -4.3l0.1 -1.1l0 -5.4l0.3 -1.3l0.8 -2.6l4.2 -6.6l0.2 -1.4l-10.6 1.3l-2.1 0.2l-1.8 -4.3l-2.8 1.3l-1.1 -1.5l-4.5 -1.4l1 5.6l-7.7 -1.4l-8.1 -2.5l0.2 -4.1l-1.8 -0.6l-5.1 2.9l-4.5 3.5l-3.3 0.6l-5.2 2.7l-1.4 1.6l-4.5 5.5l-2.7 5l-6.8 0.3l-28.2 1.5l-1.1 0.5l1.3 4.6l-1.5 2.4z"/><path data-id="36073" d="m164 290.2l-0.1 11.9l0.8 15l-0.6 15.2l19.6 -0.5l39.6 -0.3l0 -15l0 -6.1l0.1 -5.2l0 -14l-3.5 -0.2l-10.2 -1.6l-5.1 0l-11.2 1.1l-2.2 -0.3l-13.7 -0.5l-1.5 -0.4l-12.1 0.9z"/><path data-id="36075" d="m399.1 281.1l-1.3 0.7l1.5 28.5l15.7 -0.2l0.2 5.1l17 -0.9l4.8 0.4l3.2 5.1l2.4 -3l-1.7 -3.5l2.1 0.2l1.8 4l2.6 1.7l3.8 -2.1l-2.1 -4.7l0 -4.2l1 -0.5l5.7 4.9l5.5 1.9l5.9 3.4l-2.1 -0.2l0.8 2.5l4.1 -0.5l5.2 4l1.5 -0.7l7.6 1.1l1 2.6l5.2 1.1l2.7 -28.4l-3 -1l9.1 -27.6l7.4 2.3l-1.3 -27l-1 -11.2l-31.7 -3.2l0.4 6.8l-22.6 -2.1l0.5 5.3l-0.3 8.6l-0.5 4.4l-0.8 2.6l-1 2.6l-1.4 2.1l-3.9 1.5l-4.7 2.1l-4.3 0.2l-1.8 -0.3l-3 -2.2l-5.3 0.4l-3.4 2.4l-4.4 2.9l-1.8 3l-2.5 1.1l-1.1 -0.4l-2 1.8l-3.9 2.1l-5.6 4.4z"/><path data-id="36077" d="m552 468.8l-2.1 3.7l4.8 -1.4l4.6 1.3l4.3 -1.1l1.8 -3.1l3 -2l1 -2.6l2.6 0.3l3 -0.4l3.4 -2.1l-0.8 3.7l13.1 -10.7l4.3 -1.7l5 0.3l0.2 -4.3l3.2 2.4l3 -4.8l15.8 -7.6l8.4 1.1l4.2 -1.6l4.1 -0.3l5 -8l5.3 -10.7l-0.5 -3.6l-4.2 -17.7l0.3 -7.1l2.2 -6.5l-13 -5.2l-1.5 -0.6l-14.6 -6l-2 11.4l-1.5 1.2l-6.1 -3.7l-18.5 -10.7l-4.9 8.4l-9 0.6l-0.2 -4l-3.8 0.4l-0.7 1l0.1 1.2l0.1 3.5l0.9 1.8l-1.7 6.6l0.2 1.9l-2.7 2.1l-0.9 3.1l-2 1.8l-0.1 4.4l-2.1 5l-2.2 2.7l0.6 4.8l0.3 4l-1.8 1.7l1.3 6.1l-1.3 2.7l-3.8 1.7l-2.8 7.1l-1.8 0.4l1.1 3.7l-1.2 1.4l0.7 3.1l1.6 2.8l1.5 5l-2.3 2.6l-1.8 3.4l1.6 4.7l-0.5 3z"/><path data-id="36079" d="m731.2 640.5l11.1 -1l4 -0.6l8.2 -1.1l2.2 -0.3l15.2 -2.1l14.6 -1.9l0.2 -1.7l0.3 -4.9l0.4 -4.7l0.1 -1.2l0.1 -1.7l0 -1l0.1 -1.1l0.1 -2.1l0.5 -8.7l-6.3 0.1l-8.6 1.4l-3.2 0.6l-2.5 0.4l-30.5 4l-6 8.3l2.8 6.5l1.5 1l-1.8 7.8l-2.5 4z"/><path data-id="36081" d="m733.7 738l-0.1 1l1.1 -0.4l2.8 1.8l1 1.4l1.3 2.6l0.7 1.1l1.6 2.6l2.1 -1.5l1.4 -0.6l0.3 2.1l0.6 1.2l0.8 5.4l2.7 2.4l-0.2 3.5l-1.9 3.1l-4.5 2.5l-6.1 0.8l-0.9 4.4l4.5 -2.2l8.9 -3.5l7.5 -2.3l2.3 -0.2l2.5 -0.2l-1.1 -3.1l-1.2 0.2l-1.5 -0.8l-0.3 -1.6l2.7 -1.7l1 -0.1l0.4 -2.3l1.5 -0.8l-0.4 -2l0.3 -3l-0.1 -4.6l-0.3 -1.4l2.8 -1.5l1 -1.9l-0.2 -2.2l-6.2 -5l-2.4 -3l-1.6 0.9l-0.6 -1.1l-3.1 -0.6l-2.1 0.2l-2.4 0.5l-2.1 0.6l-1 1.4l-1.8 0.4l-3.5 -1.6l-0.6 2l-1.4 1.2l-0.9 1.1l-3.1 4.3z"/><path data-id="36083" d="m756 442.9l0.2 3.9l8.3 -1.1l46.2 -6.7l11.1 -40.6l-1.5 0l-1.8 -9.6l0.6 -1.1l0.3 -1l-0.4 -1.1l0.2 -2.4l1.1 -10.8l0.1 -6.4l0 -1l-13.4 -0.7l-1.5 -1.5l-5.2 -1l-2.2 2.4l-8.4 0.2l-13.6 0.4l-1.4 0l-1.9 0.5l-1.2 1l-2.3 3.5l-0.6 1.9l-0.1 1.5l1.4 3.1l-0.3 2.8l2.1 6.8l-0.2 2.8l-1.4 1.2l-0.6 2.2l-0.9 2.9l-0.1 1.7l-2.3 8l-0.4 2.8l-2.1 3.6l-2.3 3.2l-2.3 6.9l1 8.2l-1.5 7.8l-1.2 2l-1.6 3.8z"/><path data-id="36085" d="m696.1 777.5l0.7 1.3l2.5 -0.6l1.7 -0.2l1.2 -1.1l1.3 -0.4l2.2 -1.5l1.5 -0.4l1.9 -1.2l1.3 -0.8l2.2 -0.5l1.9 -1.6l3.4 -3.8l3 -3.3l1.1 -2.2l-1.2 -2l-0.7 -1.3l-0.3 -2.9l-0.8 -1.1l-1.4 -0.6l-3 0.6l-2.3 0.7l-1.9 0.3l-2.3 -0.3l-1.1 -0.2l-1.4 -0.2l-2 1.8l-0.8 1.8l0.1 1.4l-0.2 1.7l0.5 1.1l-0.5 1.2l-0.5 1.7l-0.5 2.1l-0.7 1.9l-1.3 0.1l-1.5 0.7l-1.3 1.4l0.1 2l0.3 1.4l-0.7 1.1l-0.9 1.9z"/><path data-id="36087" d="m699.2 671.1l2.9 1.6l2 1.1l1.6 0.9l10.8 6.3l7 4.1l10.4 6.2l5.9 3.5l1.2 0.6l1.1 0l0.1 -1.4l0.5 -5.4l-0.7 -5.6l0.1 -3.8l0.8 -6l-0.6 -3.7l-2.1 -2.3l-1.6 -3.7l-1.2 -3.1l-2.1 -3l-2.9 -4.2l0.5 -3.2l2.6 -4l-2.3 -1.5l-2.3 -3.7l-10.9 10.1l-3.7 3.5l-8 7.6l-9.2 8.9z"/><path data-id="36089" d="m498.5 103.9l-5 5.1l44.3 27.7l8 5.2l4.1 2.5l19.2 11.9l11.5 6.9l13.6 8.2l26.4 -3.5l10.9 -1.3l15.1 -1.9l14.4 -1.9l-1.2 -12.4l2.4 -0.2l-12.3 -114.3l-2.4 -24.5l-9.9 -0.1l-0.7 -7.5l-2.3 0.8l-2 -0.8l-1.1 -1.6l-3.1 -0.1l-1.6 -1.1l-1 -0.5l-1.7 -0.4l-1 0.2l-1.5 0.8l-1 0.9l-1.8 0.8l-1.1 0l-1.3 0.2l-1.6 1.3l-0.9 1.7l-4 -0.2l-4.2 0.2l-2.6 1.1l-0.8 1l0 1l-0.7 1.3l-2.8 2.1l-4.2 2.1l-4.6 1.4l-1.1 1l-1.8 0.6l-1.8 1.1l-1.1 2.1l-2.8 1.2l-2.9 1.8l-1 0.3l-2.9 1.1l-1.3 1.4l-1.6 0.2l-1.8 1.7l-1.6 0.5l-1.9 1.1l-3.1 2.2l0.1 1.9l-3.4 3.5l-1.6 0.1l-2.5 2.9l-0.8 1.1l-1.9 0.5l-1.2 1.2l-2.1 0.8l-1.3 2.2l-6.8 6.4l-3.6 2.7l-9.5 10.1l-4.7 5.1l-5.6 4.9l-4.3 4.3l-3.9 4.4l-5 4.8l-5.3 7.8l-1.7 7z"/><path data-id="36091" d="m708.6 290.1l2.5 20.4l2 17.4l3.4 29.6l0.6 4.7l4.7 0.4l6.3 3.4l6.3 6.2l6.5 -2.4l1.1 10.4l1.8 0l0.7 2.9l6.8 9.3l1.6 0.2l3.7 -2.3l1.4 1.1l4 -5.8l1.8 -0.2l0.4 3.3l1.2 1.2l2.6 3.2l1.7 -1.3l0.6 -2.2l1.4 -1.2l0.2 -2.8l-2.1 -6.8l0.3 -2.8l-1.4 -3.1l0.1 -1.5l0.6 -1.9l2.3 -3.5l1.2 -1l1.9 -0.5l0.5 -4.9l2.7 -2l1.7 -4.5l1.4 -7.3l1 -1l0.3 -9l-0.2 -2l-1.7 -2.6l1.3 -3.2l-1.2 -3.1l1.1 -2.3l-0.6 -1.6l0.8 -2.7l-2.3 -6.2l1 -3.3l-1.5 -0.8l1.5 -5.6l-0.8 -1l-6 0.3l-1 2.5l-2.6 -0.6l-0.5 1.4l1.8 2.1l-2.5 1l-0.5 -2.3l-2.6 0.3l-4 2l-0.8 4.3l-2.5 3l-3.3 -3.3l-1.7 -1l-3.8 0.2l-0.3 -2.9l1.2 -1.8l0 -5.1l-1.4 -0.2l-2.8 -4.1l0.7 -1.3l-2.8 -4.8l0.6 -1.3l-1.6 -4.4l-35 4.6z"/><path data-id="36093" d="m692.5 396.6l-2.3 1.6l4.2 5.7l4.1 -0.8l7 1.1l0.5 -3l9.3 -1.6l21.8 -3.7l3.4 -0.5l12 -2l-1.3 -0.9l-6.8 -9.3l-0.7 -2.9l-1.8 0l-1.1 -10.4l-6.5 2.4l-6.3 -6.2l-6.3 -3.4l-4.7 -0.4l1 8.9l0 1.3l-21.7 14.7l-0.9 2.6l1.9 2.1l-1.4 4.7l-3.6 0.1z"/><path data-id="36095" d="m643.8 429.6l-5 8l11.7 16l22.2 11.9l8.2 -3.2l4.2 3.1l8.8 -1.3l2.2 -2.7l1.8 0.3l-1.2 -5.3l-1.2 0.2l-0.2 -2.2l2.6 -8.6l2 -4.1l0.4 -5.5l-1.1 -2l-0.9 -2.2l1 -4.3l5.1 -7.4l3 -8.3l0.6 -8.6l-2 -2.2l-0.5 3l-7 -1.1l-4.1 0.8l-4.2 -5.7l2.3 -1.6l3.6 -0.1l1.4 -4.7l-1.9 -2.1l-3.3 2.2l-15.4 1.3l-5.5 0.6l-13.6 -6.9l-10.9 -2.9l-2.2 6.5l-0.3 7.1l4.2 17.7l0.5 3.6l-5.3 10.7z"/><path data-id="36097" d="m335.8 443.5l1 36.2l3.1 -0.5l13.9 -0.5l0 -1.5l15.4 -1.1l13.8 0l0.2 7.8l5.9 0l0 1.8l4.7 -0.1l3.6 -1.9l0 -5.8l-9.1 -0.2l0.1 -15.2l-0.8 -29.7l-25.2 0.9l-0.7 8.2l1.4 5.3l-9.4 0.7l-3 -0.7l-0.2 -3.7l-14.9 0.2z"/><path data-id="36099" d="m352.1 377.2l-0.3 2.1l0.9 4l-0.6 10.4l0.8 1.6l3 0l0.1 2.5l1.4 5.9l4.8 8.9l0.4 14.6l-0.2 6.4l25.2 -0.9l14 -0.5l-4.1 -2.9l-3.4 -4.3l-2.7 -5.5l-2.4 -8.1l-5.5 -7.3l-1.1 -7.1l-0.3 -6.1l2.9 -8.5l-0.5 -5.3l-1.5 -4.3l-0.7 -10.4l3.2 -12l-31.6 1.9l0.1 24.2l-1.9 0.7z"/><path data-id="36101" d="m255.6 493.4l-1.1 33l17.7 -0.1l13.2 -0.1l6.2 0l42 0.1l7.7 -0.2l7.1 -0.1l5.3 -0.1l0 -33.7l0 -13.6l-13.9 0.5l-3.1 0.5l-1 -36.2l0 -3.8l-2.5 1.5l-2.8 -0.5l0 -9.2l0.7 -3.9l-12.5 0.1l-15.7 0l-11.3 -0.1l-4.5 -0.1l-21.4 -0.5l-0.2 7.8l-7.5 0l-0.3 11l-1 11.5l-0.7 20.9l-0.6 15.3z"/><g data-id="36103"><path d="m977.4 652.1l-0.2 1l4.3 -0.5l1 -0.6l2 -1.4l2.1 -1l2.1 -0.9l1.4 -0.7l1.1 -1.6l-2.1 0.6l-1.2 0.3l-3.4 0.8l-1.4 -0.2l-2 1.3l-1.5 -0.1l-1.4 1.8l-0.7 1.3z"/><path d="m963.7 678.6l2.8 0.8l1.8 0.7l1.2 2.2l0 3.5l1.3 -0.6l0.7 -6l-0.4 -1.3l-5.4 -2.3l-0.2 1.2l-1.6 1.2z"/><path d="m954.7 664.3l-0.3 2.1l2.1 1.7l1.5 -1.5l0.8 -1.5l2.7 -1.7l0.4 -1.4l-3.9 0.6l-3.2 1.8z"/><path d="m792.5 707.8l2.4 4l0.2 3.7l1.7 1.7l2.2 13.6l0.8 5.8l0.3 2l0.4 2.7l0.2 1.8l0.4 2.5l0.5 6.9l0 7.7l9.1 -3.4l3.2 -0.4l2.5 2.1l5.3 -0.1l3.2 -0.6l3.9 -1l8 -2.4l11.4 -3.5l5.4 -2.2l11.3 -5.6l6.4 -2.8l1.2 -0.5l12 -4.8l1.4 -0.5l1.5 -0.5l2.2 -0.8l19.6 -6.9l13.1 -4.9l9.4 -4l35.6 -17.6l10.8 -4.7l11.8 -5.7l4 -1l3.8 -2l2.2 -3.1l-1.1 -1.1l-3.1 0.2l-1.3 -0.9l-2.5 0.1l-2.4 0.5l-2.7 1l-0.2 1.2l0.1 1.6l-0.8 1.1l-4.1 1.4l-2 1.9l-2.6 1.3l-1.5 -0.3l-0.6 1.1l0.3 1l-1 0.8l-2.4 -0.7l-0.9 2.1l-1.6 0.9l-1.7 -0.4l-0.9 -1l-2.7 -4l0.3 -1.2l-0.3 -1.4l-2.1 -2l-1.1 -0.2l-1.5 1.2l-0.6 1.3l-1.4 1l-1.4 0.1l-2 -1.4l-1.5 -0.6l-1.5 -0.1l-2.4 0.5l-1.7 -1.6l-1.2 -2.7l0.8 -1.5l-2.7 -0.7l-2.5 -1.3l-2.3 -3.1l0 -2.3l1.1 -2l1.1 -0.8l1.5 -0.1l0.8 1l0 3.3l4.5 -2.7l1.5 -1.5l2 -3.2l-1 -0.8l-2.9 1.2l-1.3 -0.7l-1.6 0.5l-2.7 1.3l-2.3 0.2l-3 1.2l-6.1 7.2l-1.9 1.5l-3.5 0.3l-2 3.2l-2.1 2.5l-5.6 2.4l-3.6 3l-1.4 0.7l-0.6 1l-2.5 2l-6.4 2.6l-3.6 0.4l-2.8 -0.1l-2.8 0.4l-4.8 1.6l-3.6 0.5l-6.6 -0.8l-7.9 1.1l-3.2 0.1l-5.2 -0.6l-5.2 -0.1l-5.6 0.3l-1.2 0.1l-4 -1.5l-1.7 0.1l-1.9 0.1l-3.8 1l-0.5 1.7l-0.2 3.5l-0.4 1l-10.2 4l-1 -0.4l-7.4 -2.9l-4.6 -0.9l-1.6 0.4l-1.1 0.1l-1.7 -0.8l-1.1 -1l-2.3 -3l-1 0.2l-0.3 2l0.1 2.9l-3.3 0.6l-0.2 -1.3l-4.3 -1.4l-1.9 -0.8l-1.7 0l-0.6 3.1z"/></g><path data-id="36105" d="m583.8 551.5l2 1l1.6 -0.2l0.7 1.6l-0.2 1l0.2 1.3l1.7 0.8l1.3 1.1l1.3 -0.5l1 0.1l-0.3 1.9l-0.9 1l-1.5 0l-1.1 1.4l-0.3 1l-0.2 1.3l1.1 1l2 -0.5l1.3 0.7l1 0.4l0.9 2.1l0.1 1.3l-0.3 1.6l0.2 1.4l0.5 2l-1.4 0.3l-1 0.5l1.1 1.8l0.9 1.9l0.2 1l-1 1.4l0.1 1l0.9 1.1l0.2 1.1l-0.1 2.4l0.1 1.4l0.7 1.7l-0.1 1l-1.2 -0.1l-1 0.4l0.2 1l-1 0.1l-0.3 1.5l0.7 1.2l1.4 1.2l1.2 2.2l0.8 1.3l1 0.4l1.3 2.2l0.3 1.3l-1.1 0.8l0.1 1l1 0.3l1.6 1.3l0.3 1.1l-0.3 1.1l1.2 0.4l1.1 0.1l0.5 1.2l-0.4 1.9l0.3 1.4l1.7 0.6l1.5 0.2l1.3 -0.8l2 -0.3l1 0.9l1.5 0.2l0.5 1.2l0.2 1.2l1.5 0.5l0.8 1l-0.7 1.1l-0.2 1.1l1 0.3l1.5 -0.4l1.5 -0.6l1.4 0.1l1.1 0.9l1.1 1l1.1 0.1l0.7 -1.1l1.3 -1l1.4 0.8l0.2 1.1l0.5 1.2l1.4 0.3l1.4 -0.7l1.2 0.4l1.1 -0.2l-1 -4.1l1.5 -2.4l-1.3 -4.6l1.1 -0.5l28.2 -1.5l6.8 -0.3l2.7 -5l4.5 -5.5l1.4 -1.6l5.2 -2.7l-1.2 -1.2l-2.4 -7.8l-22.8 -17.1l6.3 -8.7l4.9 -6.5l4.2 -6.8l-25.5 -15l-2.4 -1.4l-13.5 -7.6l-27.4 16.7l-18.9 11.5z"/><path data-id="36107" d="m404.7 499.6l0.4 4.2l2.3 13.6l-2 8.8l10.7 0.2l1.4 0l14.2 0.1l25.9 -0.1l1.8 0l3.2 0l0.1 -5.6l-0.5 -7.4l0 -4.5l-0.7 -8.9l-0.3 -5.5l3.7 -0.2l0.7 -7.5l-2 -4.6l2 -0.1l-0.9 -3.5l-2.4 -1.5l0.6 -3.9l-3.6 -17.1l-15.6 0.5l-5.2 0.5l-0.6 3.4l7.3 3.7l0.6 2.1l-1.7 4.5l0.2 4.8l-4.8 0l0 -2l-7.9 0l0 -1.7l-8.2 0l-0.1 9.5l-7.4 -0.1l0.1 -3l-8.1 -0.1l0.3 5.4l-0.1 16.2l-3.3 -0.1z"/><path data-id="36109" d="m387.7 432.7l1.4 29.4l-0.7 15.5l9.1 0.2l10.2 0.2l8.1 0.1l-0.1 3l7.4 0.1l0.1 -9.5l8.2 0l0 1.7l7.9 0l0 2l4.8 0l-0.2 -4.8l1.7 -4.5l-0.6 -2.1l-7.3 -3.7l0.6 -3.4l5.2 -0.5l-1.5 -37.1l-24.4 0.9l-0.1 -1.5l-19.7 0.9l-6.6 -0.2l2.7 5.5l3.4 4.3l4.1 2.9l-14 0.5z"/><path data-id="36111" d="m630.1 523.3l13.5 7.6l2.4 1.4l25.5 15l-4.2 6.8l-4.9 6.5l-6.3 8.7l22.8 17.1l2.4 7.8l1.5 0.7l3 -0.1l4.5 -3.5l5.1 -2.9l1.8 0.6l-0.2 4.1l8.1 2.5l7.7 1.4l-1 -5.6l4.5 1.4l1.1 1.5l2.8 -1.3l1.8 4.3l2.1 -0.2l10.6 -1.3l0.8 -13.3l0.6 -2.6l-0.1 -1.1l-0.4 -1.5l0.3 -2.6l0.4 -3.1l0 -3.9l-0.7 -1.3l-0.6 -1.2l0.4 -13.6l1 -3.8l-3 -6.3l3.5 -16.4l0.6 -9.4l0.8 -1.8l-0.4 -1.2l1 -5.3l1.4 -2.9l-1 -0.3l-10.6 -8.2l-0.1 2.3l-4.9 -1.2l-4.1 12.6l-24.9 -2.6l-4.5 -0.5l-18.2 -9.4l-6.6 4.1l-3.4 -0.3l-2.2 3.3l-0.7 1l-14.7 9.1l-14 8.8z"/><path data-id="36113" d="m701.7 227.8l6.9 62.3l35 -4.6l1.6 4.4l-0.6 1.3l2.8 4.8l-0.7 1.3l2.8 4.1l1.4 0.2l0 5.1l-1.2 1.8l0.3 2.9l3.8 -0.2l1.7 1l2.6 3.8l3.2 -3.5l0.8 -4.3l4 -2l2.6 -0.3l0.5 2.3l2.5 -1l-1.8 -2.1l0.5 -1.4l2.6 0.6l1 -2.5l6 -0.3l-1.9 -13.5l-2.4 -17.9l-1 -1.9l3.7 -9.7l-0.8 -1.8l3.1 -1.1l7.9 -11.7l1.6 -0.2l2.6 -3.1l1.2 -6.5l1.5 -2.6l1.5 -5.9l0 -4.9l-1.4 -0.5l4.2 -5.6l-78.3 10.4l-19.9 2.8z"/><path data-id="36115" d="m774.8 268.2l1 1.9l2.4 17.9l1.9 13.5l0.8 1l-1.5 5.6l1.5 0.8l-1 3.3l2.3 6.2l-0.8 2.7l0.6 1.6l-1.1 2.3l1.2 3.1l-1.3 3.2l1.7 2.6l0.2 2l-0.3 9l-1 1l-1.4 7.3l-1.7 4.5l-2.7 2l-0.5 4.9l1.4 0l13.6 -0.4l8.4 -0.2l2.2 -2.4l5.2 1l1.5 1.5l13.4 0.1l0.5 -15.1l0.5 -9.8l0.1 -1.6l0.8 -20.9l0.1 -2.3l0.3 -5.1l0.3 -9.6l0.2 -7l0 -1.5l0 -1.2l0.5 -15.9l0 -1.5l0.2 -7.8l-0.1 -1.5l0.7 -1.1l0.1 -1l-0.6 -1.2l-0.5 -1.5l-0.2 -1.1l-0.8 -1.4l-1.4 -1.2l-1.3 -0.4l-1.8 -0.8l0.2 -1.1l-0.1 -1.4l0.2 -1l-0.2 -1.3l-1 -3.3l-1.2 0.1l-1.7 -0.6l-2.3 0.3l-2.1 0.2l-1.1 0.3l-1 1.5l0.3 1.5l-0.6 1.1l-0.7 2.6l0.1 1l-1.2 1.6l-1.1 0.2l-2.1 -1.5l-1.2 -1l-0.4 -1.3l0.7 -1.4l0.3 -1.3l-0.2 -1l0.7 -1.4l-1.3 -2.4l0.2 -1.5l1 -0.9l0.5 -1.8l0.8 -2l0.4 -2.1l-0.1 -1.2l0.9 -1.1l0.8 -1.5l0.7 -1.4l1.1 -1.1l0.9 -1.3l0 -1.8l0.1 -1.2l1 -2l1.1 -1.9l0.5 -1.1l-0.5 -1.1l-0.4 -1.6l-1.3 -1.2l-1 -0.9l-0.2 -1.3l-7.5 0.4l-4.2 5.6l1.4 0.5l0 4.9l-1.5 5.9l-1.5 2.6l-1.2 6.5l-2.6 3.1l-1.6 0.2l-7.9 11.7l-3.1 1.1l0.8 1.8l-3.7 9.7z"/><path data-id="36117" d="m301.8 306.4l0.1 14.1l0.5 28l15.8 0l14.2 -0.9l0.1 4.7l21.4 -0.1l31.6 -1.9l-0.6 -1.6l0.1 -5.1l2 -3l-2.6 -45.7l-1.1 0l-2 2.1l-2.8 2.3l-3.2 1.5l-5.9 0.7l-1.7 1.2l-2.8 1l-1.2 -0.2l-2.2 0.4l-2.3 1.2l-3.8 2.5l-4.6 -0.7l-1.4 0.5l-4.3 0l-4.2 -1.7l-5.6 -1.2l-2.3 0.4l-1.6 -0.3l-3.8 1.1l-5.2 -0.5l-6.3 1.2l-5 -0.1l-1.3 -0.5l-3.3 0.1l-4.4 0.5z"/><path data-id="36119" d="m731 641l2.3 3.7l2.3 1.5l-2.6 4l-0.5 3.2l2.9 4.2l2.1 3l1.2 3.1l1.6 3.7l2.1 2.3l0.6 3.7l-0.8 6l-0.1 3.8l0.7 5.6l-0.5 5.4l-0.1 1.4l-0.3 2.6l-0.3 1.1l-0.8 2.8l-0.3 1.1l-1 4.5l-0.3 1.2l5 1.9l2.3 0.9l0.9 -1.6l1.8 2.6l1.4 0.5l5.5 1.7l2.1 0.7l0 -1.6l-1 -1l2.4 -3.4l3.2 -2.1l1.3 -1.2l3 -1.3l1.5 -0.9l1.1 -2.9l1.7 -0.7l1.1 -2.1l-0.2 -1l-0.2 -1.3l-0.1 -1l0.5 -1.4l-0.9 -2.2l-1 -1.6l-1.2 -2l-0.9 -1.5l-0.9 -1.4l-1.5 -2.5l-1.4 -2.3l-0.7 -1l-0.7 -1.2l4 -2.5l7.1 -4.4l1 -0.6l2.2 -1.3l6.3 -3.7l1.3 -0.8l5.1 -3.1l2.3 -1.4l1.4 -0.8l-2.2 -4.3l-2 -3.3l-4.1 -6.5l0.3 -2.1l-0.1 -1.4l0.1 -1.7l0.5 -5.9l-14.5 1.1l-15.2 2.1l-2.2 0.3l-8.2 1.1l-4 0.6l-11.3 1.5z"/><path data-id="36121" d="m161.4 377.4l-0.2 15l3.2 0l-0.1 42l-0.1 2.9l19.7 -0.4l33.8 0l0 -2.4l-2.3 0.4l1.6 -4.3l1.8 -1.7l-1.8 -1.9l3.2 -1l2.1 -2.4l-1.2 -1.8l3.2 -0.9l2.7 -8.2l1.6 -0.8l0.2 -33.7l-5.1 -0.4l-10 0.2l0 -1.1l-49.4 0.5l-2.8 0z"/><path data-id="36123" d="m302.9 411.9l0 2.2l0.1 13.5l15.7 0l12.5 -0.1l-0.7 3.9l0 9.2l2.8 0.5l2.5 -1.5l0 3.8l14.9 -0.2l0.2 3.7l3 0.7l9.4 -0.7l-1.4 -5.3l0.7 -8.2l0.2 -6.4l-0.4 -14.6l-4.8 -8.9l-1.4 -5.9l-0.1 -2.5l-3 0l-19.2 0.2l-24 0.4l-3.1 5l-2 5.6l-1.7 5.5z"/></svg>
