<?xml version="1.0" encoding="UTF-8"?>
<!DOCTYPE svg PUBLIC '-//W3C//DTD SVG 1.1//EN' 'http://www.w3.org/Graphics/SVG/1.1/DTD/svg11.dtd'>
<svg viewBox="0 0 1000 779.15" xmlns="http://www.w3.org/2000/svg">
  <g data-id="001">
    <path d="m695.337 454.428l0.176 2.182l1.159 -0.185l40.608 -6.273l18.915 -3.329l-0.231 -3.941l1.567 -3.803l1.188 -2.018l1.468 -7.802l-0.958 -8.111l2.274 -6.979l2.125 -2.718l2.34 -4.112l0.379 -1.979l2.357 -8.856l0.135 -1.665l0.885 -2.861l-1.708 1.344l-2.58 -3.206l-1.164 -1.241l-0.354 -3.345l-1.809 0.207l-4.022 5.793l-1.417 -1.086l-3.719 2.294l-12.321 2.66l-3.411 0.471l-21.85 3.697l-9.332 1.594l1.973 2.199l-0.638 8.567l-3.007 8.327l-5.123 7.442l-0.958 4.274l0.905 2.225l1.111 1.963l-0.362 5.495l-2.018 4.136l-2.581 8.639z" />
  </g>
  <g data-id="003">
    <path d="m183.825 437.048l0.09 89.18l4.67 0.076l8.171 -0.111l10.356 -0.141l11.833 0.177l4.259 0.112l20.931 0.04l1.168 -0.004l9.217 -0.04l1.062 -32.972l0.597 -15.26l0.732 -20.948l1.02 -11.53l-14.833 -0.576l-0.059 -7.41l-14.453 -0.103l-11.189 -0.016l-33.573 -0.473z" />
  </g>
  <g data-id="005">
    <path d="m737.818 713.51l-0.557 1.255l2.303 1.087l1.038 0.355l-0.487 1.159l-1.067 1.514l-1.012 1.825l-0.722 1.819l-0.007 1.258l0.093 1.446l-0.035 1.335l0.554 1.281l1.847 1.18l2.712 1.068l2.599 0.601l1.096 -1.816l2.063 -0.56l2.412 -0.487l2.06 -0.244l2.244 0.838l-0.477 -2.543l-1.841 -1.632l-0.466 -1.633l0.35 -1.941l1.678 -0.216l0.729 -1.263l0.347 1.511l0.714 1.429l0.643 -1.097l1.348 -0.017l0.571 -1.6l-0.686 -1.021l0.429 -2.754l-2.092 -0.716l-5.002 -1.693l-1.919 -0.479l-1.096 -2.027l-1.636 0.938l-2.3 -0.907l-5.024 -1.941l-1.403 4.687z" />
  </g>
  <g data-id="007">
    <path d="m459.398 456.06l3.612 17.108l-0.627 3.94l2.385 1.471l0.891 3.533l-2.017 0.108l1.96 4.606l-0.702 7.452l-3.737 0.213l0.277 5.494l0.692 8.896l-0.049 4.518l0.521 7.356l-0.128 5.569l5.787 -0.011l9.74 -0.019l3.121 0.007l11.097 0.028l12.311 0.124l3.937 0.04l16.684 -0.187l7.24 -0.022l8.77 -0.026l6.011 -0.018l4.299 -0.008l-2.473 -7.259l0.267 -18.479l0.157 -7.611l-8.249 -0.026l-19.412 -0.076l-0.15 -9.062l-10.623 -0.112l-12.281 0.058l-2.165 0.807l-0.922 -2.636l-1.046 -14.646l-1.512 -12.048l-19.873 1.091l-4.616 -0.447l-9.176 0.275z" />
  </g>
  <g data-id="009">
    <path d="m88.715 434.192l-0.062 92.062l9.891 0.053l8.122 0.14l5.578 0.096l15.812 -0.094l19.366 -0.301l36.494 0.079l-0.09 -89.18l-19.696 0.352l0.078 -2.946l-8.055 2.463l-4.494 2.22l-4.372 -0.59l-1.896 1.662l-3.285 0.813l-0.882 1.236l-2.118 -0.272l-4.242 3.515l-0.603 -2.3l-4.697 0.821l-0.203 1.332l-3.059 0.386l-2.176 2.639l-1.747 -1.286l-5.29 3.25l-5.218 0.337l-2.877 -1.266l-2.443 1.153l0.065 -1.999l-2.73 -2.455l-2.048 -0.685l-1.206 -3.66l-2.488 -1.988l-0.262 -2.814l-5.666 -3.707l-3.501 0.932z" />
  </g>
  <g data-id="011">
    <path d="m382.256 390.92l0.321 6.118l1.084 7.063l5.52 7.334l2.374 8.052l6.609 0.233l19.66 -0.913l0.058 1.513l24.389 -0.855l-1.149 -25.415l-0.085 -1.588l-3.847 -5.666l-6.478 -6.228l-11.817 0.642l-0.889 -14.466l-0.705 -13.274l-3.661 0.234l-0.745 -16.911l3.283 -0.763l-1.809 -6.091l1.658 -0.66l-0.779 -14.139l-0.243 -5.057l-15.13 0.503l-2.068 -28.763l-1.728 1.007l-1.505 2.109l-3.409 6.042l-1.927 2.407l-1.708 1.436l-3.054 0.13l2.552 45.735l-1.956 3.034l-0.104 5.109l0.608 1.571l-3.232 12.029l0.745 10.403l1.546 4.258l0.514 5.305l-2.893 8.52z" />
  </g>
  <g data-id="013">
    <path d="m0.024 483.262l-0.024 1.418l0.04 10.149l-0.011 1.76l0.02 1.816l-0.013 2.041l-0.033 3.321l0.052 2.09l-0.011 17.03l0.023 3.231l11.573 0.123l5.672 0.057l1.827 0.002l7.52 0.055l1.637 0.024l3.472 0.019l4.872 0.027l28.169 -0.094l9.006 -0.111l14.838 0.034l0.062 -92.062l-5.945 -5.514l-3.661 0.047l-1.517 2.751l-5.63 1.338l-3.79 1.681l-2.491 0.743l-2.749 1.476l-2.37 2.047l-4.348 1.946l-1.738 1.854l-1.37 -0.1l-1.224 0.128l-1.283 1.496l-2.506 2.35l-2.974 2.265l-2.993 4.268l-3.088 2.951l-2.689 1.176l-4.579 3.754l-4.46 3.245l-6.037 3.727l-6.497 4.45l-9.166 5.288l-5.581 2.539l-0.002 3.163z" />
  </g>
  <g data-id="015">
    <path d="m353.712 525.912l2.927 -0.051l1.961 -0.017l11.638 -0.017l2.429 0.017l8.374 -0.003l14.112 0.152l10.117 0.109l2.103 -8.782l-2.267 -13.555l-0.42 -4.207l3.315 0.086l0.094 -16.164l-0.325 -5.415l-10.24 -0.188l-0.029 5.844l-2.874 2.553l-5.49 -0.663l-0.016 -1.833l-5.932 0.048l-0.156 -7.806l-13.786 -0.006l-15.413 1.08l-0.034 1.529l-0.044 13.555l-0.045 33.734z" />
  </g>
  <g data-id="017">
    <path d="m489.799 402.217l1.974 31.141l1.291 21.783l1.512 12.048l1.046 14.646l0.922 2.636l2.165 -0.807l12.281 -0.058l10.623 0.112l0.15 9.062l19.412 0.076l8.249 0.026l0.292 -14.8l0.1 -5.556l2.149 -3.749l0.514 -2.959l-1.571 -4.695l1.784 -3.448l2.272 -2.584l-1.466 -4.968l-1.635 -2.756l-0.675 -3.095l1.183 -1.355l-1.056 -3.72l1.809 -0.434l2.793 -7.092l3.78 -1.681l1.335 -2.664l-1.332 -6.102l1.794 -1.687l-0.303 -4.001l-0.634 -4.772l2.164 -2.676l2.121 -4.976l0.08 -4.383l-16.71 1.032l-0.086 -1.259l-58.331 3.716z" />
  </g>
  <g data-id="019">
    <path d="m725.374 3.593l2.27 16.487l0.441 5.594l-0.093 6.289l2.569 23.014l2.559 -0.239l2.561 23.866l1.641 -0.236l2.94 25.981l26.432 -2.812l3.976 0.747l5.089 -3.019l1.702 0.717l5.602 -1.947l2.066 -3.052l3.55 -0.971l3.833 0.345l1.048 -2.399l3.558 -3.58l-0.461 -3.174l15.837 -1.626l-1.441 -1.517l-1.273 -1.271l-1.809 -2.292l-0.162 -1.169l-0.782 -1.293l0.637 -1.09l-0.495 -1.738l-0.279 -1.234l-0.923 -1.096l0.472 -1.523l-0.085 -1.532l1.089 -1.054l0.075 -2.034l0.486 -1.675l0.178 -1.138l0.111 -1.462l0.273 -1.21l1.06 -1.915l-0.538 -1.028l0.062 -4.512l-0.062 -2.874l0.998 -1.645l1.136 -3.069l0.561 -1.432l1.08 -1.034l0.324 -1.19l-0.099 -1.861l-2.058 -3.065l-0.997 -1.234l-1.463 -1.039l-0.721 -1.279l-0.761 -1.554l0.194 -2.144l1.355 -1.721l0.334 -1.492l0.535 -2.932l0.241 -1.031l0.52 -1.296l1.06 -1.218l1.121 -1.138l0.063 -1.149l-0.142 -3.441l0.215 -3.069l-0.865 -1.774l-0.693 -1.029l-0.492 -1.402l0.086 -1.091l1.304 -3.698l-11.921 0.294l-25.594 1.026l-4.521 0.1l-11.071 -0.059l-14.117 0.36l-19.327 0.976z" />
  </g>
  <g data-id="021">
    <path d="m738.772 507.385l-1.032 5.326l2.763 -0.142l11.289 5.6l13.61 7.024l23.256 4.681l0.715 -12.255l3.104 0.05l-1.425 -6.233l4.076 -14.966l11.689 -43.034l3.918 -14.465l-46.226 6.733l-8.314 1.118l1 5.879l-2.341 9.396l1.508 8.577l-0.116 6.262l-2.488 5.932l-4.074 1.978l-1.595 2.004l-0.941 6.649l-4.688 4.076l-2.322 6.865l-1.365 2.945z" />
  </g>
  <g data-id="023">
    <path d="m441.121 394.05l1.146 25.095l1.549 37.39l15.58 -0.474l9.176 -0.275l4.616 0.447l19.873 -1.091l-1.291 -21.783l-1.974 -31.141l-0.79 -11.563l-37.929 2.798l-9.958 0.598z" />
  </g>
  <g data-id="025">
    <path d="m549.269 500.493l-0.267 18.479l2.473 7.259l5.394 -0.008l1.645 0.701l1.134 1.467l-0.615 2.11l1.662 1.032l0.877 1.112l0.533 1.269l1.797 1.023l0.681 -1.072l0.863 1.264l1.602 1.39l0.328 2.08l0.144 1.209l0.712 1.394l0.248 1.596l-0.608 1.496l0.606 1.221l1.293 1.507l-0.791 1.078l0.416 1.181l1.18 0.299l1.273 -0.862l1.204 1.3l1.452 -0.183l0.652 -1.174l1.387 -0.411l1.217 0.438l0.695 1.023l1.062 -0.75l0.488 -1.137l1.085 0.906l-0.086 1.322l0.577 1.302l1.425 0.513l19.687 -11.879l27.392 -16.653l14.041 -8.762l14.684 -9.148l0.675 -1.01l2.186 -3.253l3.415 0.265l6.612 -4.147l-10.827 -5.496l13.802 -25.24l-1.937 -1.017l-22.184 -11.881l-11.723 -16.018l-4.109 0.326l-3.646 1.841l-9.01 -1.274l-15.758 7.574l-2.998 4.792l-3.232 -2.359l-0.235 4.319l-4.965 -0.273l-4.344 1.715l-13.133 10.67l0.794 -3.685l-3.374 2.132l-2.995 0.398l-2.562 -0.274l-0.953 2.629l-2.988 2.024l-1.846 3.113l-4.307 1.111l-4.576 -1.258l-4.778 1.368l-0.1 5.556l-0.292 14.8l-0.157 7.611z" />
  </g>
  <g data-id="027">
    <path d="m729.06 614.171l-0.169 4.321l2.289 2.72l6.035 -8.334l30.497 -4.048l2.451 -0.415l3.244 -0.607l8.582 -1.38l6.288 -0.124l1.142 -15.653l0.129 -3.625l0.225 -4.323l0.184 -3.53l0.615 -9.042l0.114 -2.838l0.76 -11.212l0.382 -5.933l0.465 -5.74l0.225 -5.077l0.449 -6.146l0.425 -7.073l0.291 -8.436l-1.21 -0.006l-3.104 -0.05l-0.715 12.255l-23.256 -4.681l-13.61 -7.024l-11.289 -5.6l-2.763 0.142l0.435 1.167l-0.771 1.764l-0.571 9.354l-3.465 16.413l3.008 6.317l-1.021 3.784l-0.397 13.59l0.636 1.178l0.708 1.346l-0.012 3.348l-0.424 3.619l-0.284 2.582l0.405 1.542l0.126 1.05l-0.576 2.585l-0.794 13.343l-0.179 1.384l-4.213 6.631l-0.824 2.606l-0.34 1.35l-0.048 5.394l-0.081 1.112z" />
  </g>
  <g data-id="029">
    <path d="m80.006 425.267l-0.897 3.458l3.661 -0.047l5.945 5.514l3.501 -0.932l5.666 3.707l0.262 2.814l2.488 1.988l1.206 3.66l2.048 0.685l2.73 2.455l-0.065 1.999l2.443 -1.153l2.055 1.897l6.04 -0.968l5.29 -3.25l1.747 1.286l2.176 -2.639l3.059 -0.386l0.203 -1.332l4.697 -0.821l0.603 2.3l4.242 -3.515l2.118 0.272l0.882 -1.236l3.285 -0.813l1.896 -1.662l4.372 0.59l4.494 -2.22l8.055 -2.463l0.089 -41.989l-3.151 -0.034l0.239 -15.016l2.767 0.047l0.019 -15.041l-0.028 -23.209l-1.023 1.222l-3.212 -0.131l-1.502 -2.706l-1.39 1.6l-2.43 0.542l-1.356 -1.253l-3.229 0.713l-1.251 2.716l-2.258 0.188l-1.884 -2.67l-2.939 -1.634l-0.793 2.821l-2.064 -1.006l-2.287 1.062l-1.785 -1.051l-2.801 0.915l-1.088 -0.895l-2.07 2.744l-7.341 0.796l-2.568 2.462l-1.126 0.227l0.671 2.473l-0.361 1.006l-1.334 1.849l-5.96 -0.494l-1.239 -3.781l-1.214 -1.281l-4.984 -2.666l-8.146 -0.451l-1.254 0.565l1.144 0.33l0.643 1.239l0.036 1.761l-0.835 3.132l-1.158 2.538l0.121 3.378l1.063 1.643l4.617 2.853l1.682 1.901l3.719 0.328l1.708 1.555l0.821 1.573l0.849 2.487l-0.013 4.041l-0.847 2.314l2.631 0.296l1.151 3.036l1.307 2.408l1.615 2.062l-0.125 1.078l-0.659 1.441l0.253 2.362l0.338 1.328l1.218 2.344l-0.266 1.344l-1.91 2.361l-6.274 5.685l-3.289 0.913l-3.241 2.497l-2.704 2.083l-1.897 0.138l-1.606 0.516l-3.795 2.134l-1.695 3.579l-0.19 4.059l-1.202 0.825l-4.819 4.573l-0.297 1.266l-1.038 2.021z" />
  </g>
  <g data-id="031">
    <path d="m696.458 185.491l-10.224 7.831l15.57 20.062l1.379 -1.655l6.799 -1.63l1.315 2.085l4.657 2.229l2.05 -0.677l4.881 2.194l-1.258 9.079l78.281 -10.366l7.436 -0.839l-1.388 -1.559l0.013 -2.102l1.053 -1.394l1.034 -0.928l-0.923 -1.757l-0.065 -1.158l0.93 -2.619l-0.273 -1.076l-0.908 -1.871l-1.567 -2.123l-0.638 -2.459l-0.862 -2.255l0.281 -3.325l-0.164 -3.251l-0.56 -1.455l-0.169 -1.253l0.836 -5.058l-0.178 -1.546l-0.429 -1.173l-1.187 -0.89l-0.99 -1.004l-1.125 -0.857l0.618 -3.673l0.226 -1.455l0.122 -1.355l1.634 -3.523l0.633 -2.336l-0.308 -2.358l-0.255 -1.191l0.967 -1.154l0.725 -1.143l0.347 -1.669l0.115 -1.22l0.261 -1.161l0.101 -1.227l0.64 -2.344l1.081 -1.43l1.246 -0.879l1.314 -1.126l0.519 -1.35l0.336 -1.178l0.678 -1.322l0.842 -1.358l1.162 -0.516l1.184 -0.467l0.617 -1.048l0.403 -1.452l0.404 -1.136l0.303 -1.774l-0.161 -1.022l-0.574 -1.353l-0.687 -2.446l-0.248 -1.502l-0.04 -1.631l0.09 -1.091l-0.02 -1.49l-0.374 -1.684l-0.972 -2.39l-0.038 -1.338l0.173 -1.388l1.597 -1.838l0.751 -1.035l0.329 -1.097l0.244 -1.397l1.829 -4.558l0.275 -1.633l-0.173 -1.475l-0.62 -1.564l0.176 -1.639l-0.027 -1.302l-0.693 -2.559l-0.064 -1.147l-0.226 -1.441l-0.78 -1.226l-1.008 -1.132l-0.034 -1.105l-0.357 -1.289l-0.881 -1.269l-1.025 -1.603l-15.791 0.997l0.461 3.174l-3.558 3.58l-1.048 2.399l-3.833 -0.345l-3.55 0.971l-2.066 3.052l-5.602 1.947l-1.702 -0.717l-5.089 3.019l-3.976 -0.747l-26.432 2.812l-29.312 3.972l2.401 17.583l3.662 30.051l-23.828 3.007l3.272 26.529z" />
  </g>
  <g data-id="033">
    <path d="m637.442 3.182l0.287 8.055l9.921 0.07l2.395 24.54l12.302 114.286l-2.378 0.215l1.18 12.366l32.037 -3.753l23.828 -3.007l-3.662 -30.051l-2.401 -17.583l29.312 -3.972l-2.94 -25.981l-1.641 0.236l-2.561 -23.866l-2.559 0.239l-2.569 -23.014l0.093 -6.289l-0.441 -5.594l-2.27 -16.487l-15.105 0.763l-11.045 -0.116l-12.781 0.043l-15.475 -0.917l-11.572 -0.298l-14.224 -0.16l-1.463 -0.242l-1.382 0.224l-2.282 -0.65l-2.6 0.941z" />
  </g>
  <g data-id="035">
    <path d="m630.971 340.133l1.28 4.4l0.47 1.824l27.515 10.707l6.77 0.071l49.504 0.378l-3.398 -29.601l-2 -17.366l-10.634 1.01l0.419 4.646l-12.835 1.166l-0.506 -4.679l-26.345 2.347l-22.509 -10.078l2.103 19.437l-2.786 1.638l1.143 2.676l-3.163 0.879l0.725 3.28l-3.883 0.996l-1.87 6.269z" />
  </g>
  <g data-id="037">
    <path d="m164.009 332.295l0.134 6.916l0.028 23.209l-0.019 15.041l49.357 -0.471l0.001 1.112l9.967 -0.216l5.11 0.386l-0.072 -7.441l2.568 0.104l0.126 -6.965l2.887 0.089l0.2 -7.381l0.29 -2.611l0.432 -5.916l-5.935 -0.431l5.429 -15.551l-11.278 -0.631l-39.619 0.292l-19.605 0.464z" />
  </g>
  <g data-id="039">
    <path d="m660.876 491.79l10.827 5.496l18.232 9.362l4.549 0.464l24.894 2.563l4.099 -12.587l4.908 1.198l0.144 -2.326l10.637 8.203l3.294 -6.588l4.688 -4.076l0.941 -6.649l1.595 -2.004l4.074 -1.978l2.488 -5.932l0.116 -6.262l-1.508 -8.577l2.341 -9.396l-0.056 -5.466l-19.859 2.916l-40.608 6.273l1.216 5.317l-1.833 -0.335l-2.208 2.7l-8.784 1.311l-4.17 -3.113l-8.153 3.228l1.937 1.017l-13.802 25.24z" />
  </g>
  <g data-id="041">
    <path d="m630.733 270.056l-11.649 25.57l19.618 9.332l22.509 10.078l26.345 -2.347l0.506 4.679l12.835 -1.166l-0.419 -4.646l10.634 -1.01l-2.524 -20.435l-6.897 -62.334l19.937 -2.768l1.258 -9.079l-4.881 -2.194l-2.05 0.677l-4.657 -2.229l-1.315 -2.085l-6.799 1.63l-1.379 1.655l-15.57 -20.062l10.224 -7.831l-3.272 -26.529l-32.037 3.753l-14.409 1.921l-15.056 1.891l-10.886 1.323l9.936 102.206z" />
  </g>
  <g data-id="043">
    <path d="m574.637 345.484l0.392 5.14l1.093 14.211l0.749 10.346l-1.355 0.119l0.192 4.043l8.952 -0.554l4.917 -8.39l18.49 10.691l6.082 3.705l1.526 -1.226l2.005 -11.428l14.612 6.048l2.903 -23.037l-0.436 -5.908l-2.035 -2.887l-0.47 -1.824l-1.28 -4.4l1.87 -6.269l3.883 -0.996l-0.725 -3.28l3.163 -0.879l-1.143 -2.676l2.786 -1.638l-2.103 -19.437l-19.618 -9.332l11.649 -25.57l-9.936 -102.206l-26.386 3.466l-13.582 -8.197l7.589 84.502l4.247 49.592l-2.942 0.962l-0.842 2.023l-1.688 1.547l-3.561 -0.091l-1.818 8.113l5.02 3.024l6.769 2.381l-11.604 19.522l-2.37 3.471l-0.34 3.366l-3.222 1.876l-1.429 2.077z" />
  </g>
  <g data-id="045">
    <path d="m428.587 202.176l1.611 0.386l3.382 -1.05l3.391 -4.705l0.783 -2.173l-2.295 -0.039l-3.457 3.006l-3.415 4.575z" />
    <path d="m427.623 171.894l-0.247 1.715l0.984 1.025l1.747 -0.256l5.117 0.314l1.723 1.043l0.732 2.083l2.525 0.749l1.55 1.412l0.123 2.439l-1.342 2.604l-0.547 1.725l1.473 0.331l2.206 -0.957l5.912 -1.598l0.958 1.296l3.883 1.62l2.816 3.039l1.344 1.199l1.071 3.128l0.079 2.282l0.036 1.035l-2.305 1.616l-7.23 4.522l-2.255 -0.271l1.463 -4.583l-0.612 -1.696l-1.834 2.385l-4.051 0.836l-3.253 2.421l-1.36 1.931l-0.292 3.258l8.099 5.528l2.761 9.365l0.983 6.085l0.624 6.739l22.578 2.114l-0.39 -6.8l31.689 3.173l-1.544 -17.408l-8.067 -0.625l1.262 -16.149l10.423 0.911l19.541 -16.258l3.351 1.07l4.336 -0.443l-0.897 -7.097l6.092 -0.245l-0.023 -4.7l1.097 -1.858l-1.189 -0.777l2.304 -4.034l-7.761 -5.073l1.565 -2.559l11.053 -17.66l-8.048 -5.162l-44.309 -27.65l-1.447 1.495l-5.248 4.735l-1.172 0.425l-0.913 1.075l-1.29 0.744l-1.249 1.108l-2.611 1.113l-1.024 -0.715l-2.873 -0.116l-5.594 2.797l-6.593 5.688l-1.844 0.268l-1.851 0.61l-4.461 2.439l-0.308 7.272l-3.423 3.241l-1.954 1.183l-4.896 1.919l-5.194 -0.019l-3.301 0.834l-5.028 10.901l-2.316 6.471l1.253 2.264l-0.131 2.628l-1.043 3.642l-1.43 0.866z" />
    <path d="m418.473 199.405l1.503 1.353l2.706 -1.971l4.029 -2.463l1.348 -2.293l-4.325 -0.788l-5.261 6.163z" />
  </g>
  <g data-id="047">
    <path d="m723.648 757.029l0.183 2.672l0.852 1.418l2.951 1.139l1.144 2.249l-1.459 1.591l2.615 0.696l1.521 -0.188l1.719 -0.212l1.692 -0.209l1.339 -0.165l1.291 -0.16l-0.232 1.119l6.113 -0.751l4.454 -2.485l1.947 -3.086l0.18 -3.511l-1.935 -2.544l-1.175 -4.691l-0.723 -1.283l-0.678 -2.547l-1.379 0.587l-2.138 1.453l-1.55 -2.645l-0.665 -1.083l-1.098 -1.957l-0.645 -1.672l-3.302 -2.158l-1.084 0.437l-0.021 2.346l-1.283 2.231l-2.746 0.844l-0.817 2.367l-1.81 1.333l-0.378 3.856l-1.004 1.203l-0.926 1.251l-0.61 1.206l-0.342 1.351z" />
  </g>
  <g data-id="049">
    <path d="m496.031 200.563l-1.262 16.149l8.067 0.625l1.544 17.408l0.984 11.157l1.336 26.994l28.17 8.821l17.848 -11.495l21.141 -13.341l14.558 -9.26l-7.589 -84.502l-11.512 -6.9l-19.247 -11.864l-4.148 -2.516l-11.053 17.66l-1.565 2.559l7.761 5.073l-2.304 4.034l1.189 0.777l-1.097 1.858l0.023 4.7l-6.092 0.245l0.897 7.097l-4.336 0.443l-3.351 -1.07l-19.541 16.258l-10.423 -0.911z" />
  </g>
  <g data-id="051">
    <path d="m216.823 430.746l-1.6 4.312l2.284 -0.401l0.544 2.339l10.537 0.541l14.453 0.103l0.059 7.41l14.833 0.576l0.297 -10.955l7.501 0l0.177 -7.786l21.38 0.536l0.124 -11.865l0.384 -4.12l-14.159 -0.29l-1.626 -15.702l2.967 0.035l0.028 -15.698l4.563 -0.009l0.719 -2.041l-2.658 -12.159l-1.659 -1.322l-7.228 0.691l-15.372 -0.086l3.374 -0.833l1.471 -5.861l-1.291 -1.587l-22.625 0.105l-0.2 7.381l-2.887 -0.089l-0.126 6.965l-2.568 -0.104l0.072 7.441l-0.173 33.671l-1.571 0.777l-2.738 8.243l-3.16 0.93l1.166 1.83l-2.111 2.389l-3.212 0.96l1.844 1.943l-1.809 1.728z" />
  </g>
  <g data-id="053">
    <path d="m477.137 322.537l2.366 5.247l0.495 3.436l2.154 0.393l-0.726 3.016l-1.211 -0.763l-1.366 2.861l0.125 2.099l3.041 0.628l3.996 -0.428l1.159 17.368l1.838 34.26l0.79 11.563l58.331 -3.716l0.086 1.259l16.71 -1.032l2.001 -1.798l0.873 -3.091l2.75 -2.081l-0.231 -1.92l1.732 -6.644l-0.894 -1.775l-0.115 -3.484l-0.055 -1.189l-23.932 1.43l-0.886 -12.047l-1.559 0.036l-10.916 0.191l-1.027 -15.324l-0.234 -2.966l-5.579 0.373l-0.331 -4.5l-5.287 -3.328l0.241 -2.599l-1.734 -3.203l-2.099 -0.186l-1.075 -2.03l-3.688 -1.918l0.024 -2.337l-2.12 -1.934l-3.617 0.672l-2.057 -1.938l-3.69 1.892l-5.317 -0.265l-3.555 2.395l-2.046 -1.537l-5.197 -1.066l-0.983 -2.598l-7.184 -1.423z" />
  </g>
  <g data-id="055">
    <path d="m223.282 316.529l-0.049 15.01l11.555 -0.101l-5.706 16.283l5.935 0.431l-0.432 5.916l-0.29 2.611l22.625 -0.105l1.291 1.587l-1.471 5.861l-3.374 0.833l15.372 0.086l7.228 -0.691l12.378 0.138l-0.367 -15.805l14.412 -0.023l-0.452 -28.017l-0.125 -14.109l-1.894 0.224l-2.973 1.233l-2.823 0.619l-5.036 1.942l-3.071 0.722l-4.207 2.742l-2.13 -0.207l-3.314 -1.302l-3.154 -2.377l-2.531 -1.907l-3.996 -2.007l-6.03 -5.001l-1.606 -2.66l-2.087 -1.148l-3.327 -1.252l-3.567 -0.331l-1.549 -0.104l-1.453 -0.386l-8.407 -1.319l-3.731 -1.27l-2.264 0l-3.82 -1.131l-1.556 -0.8l-1.417 -0.191l-2.327 0.679l-0.108 13.961l-0.107 5.245l-0.045 6.12z" />
  </g>
  <g data-id="057">
    <path d="m632.29 378.189l1.525 0.618l13.022 5.193l10.855 2.87l13.606 6.884l5.506 -0.605l15.424 -1.261l3.305 -2.194l0.869 -2.649l21.705 -14.661l-0.003 -1.305l-1.026 -8.887l-0.495 -4.064l-49.576 -0.993l-6.77 -0.071l-27.515 -10.707l2.035 2.887l0.011 5.42l-2.478 23.525z" />
  </g>
  <g data-id="059">
    <path d="m758.145 728.354l2.278 3.06l6.155 5.008l0.133 1.554l-0.894 2.568l-2.16 0.581l-0.285 2.269l0.14 4.587l-0.284 2.982l0.409 1.984l-1.501 0.725l-0.408 2.326l-1.017 0.086l-2.457 1.337l0.089 1.934l1.516 0.766l1.151 -0.225l1.069 3.131l-1.666 0.573l13.844 1.116l3.798 -0.813l4.612 0.549l1.938 0.396l6.548 -1.896l2.836 -0.735l7.728 -2.003l-0.195 -6.995l-0.32 -7.416l-0.413 -2.744l-0.131 -1.17l-0.485 -3.291l-0.315 -1.979l-0.708 -5.059l-2.298 -14.225l-1.748 -1.74l-0.155 -3.704l-2.499 -3.942l-2.269 1.671l-4.183 0.69l-2.29 -1.188l-3.669 1.423l-2.833 1.573l-1.189 -0.251l-1.783 1.138l-1.682 2.409l-0.19 2.392l-1.875 0.868l-5.436 -1.905l-2.011 0.602l0.367 1.622l-3.506 5.01l-1.758 4.352z" />
  </g>
  <g data-id="061">
    <path d="m722.858 746.768l2.762 1.053l1.286 0.342l1.81 -1.333l0.817 -2.367l1.931 -0.242l1.609 -2.027l0.552 -2.426l0.097 -1.728l3.296 -4.622l0.115 -1.271l1.697 -0.611l1.08 -2.397l-1.995 -1.295l-0.554 -1.281l0.035 -1.335l-0.093 -1.446l0.007 -1.258l0.722 -1.819l0.769 -1.36l1.31 -1.979l0.487 -1.159l-1.038 -0.355l-2.303 -1.087l-0.591 1.234l-1.29 2.726l-0.721 1.739l-1.164 3.528l-0.606 1.013l-2.006 3.678l-1.265 2.32l-0.958 1.757l-0.871 1.598l-0.695 1.378l-0.397 2.086l-0.361 1.896l-0.217 1.22l-0.386 2.672l-2.064 1.555l-0.813 1.604z" />
  </g>
  <g data-id="063">
    <path d="m86.957 340.174l6.97 2.917l1.254 -0.565l8.146 0.451l4.268 2.115l1.93 1.832l0.772 3.842l6.427 0.433l1.334 -1.849l0.361 -1.006l-0.671 -2.473l1.126 -0.227l2.568 -2.462l7.341 -0.796l2.07 -2.744l1.088 0.895l2.801 -0.915l1.785 1.051l2.287 -1.062l2.064 1.006l0.793 -2.821l2.939 1.634l1.884 2.67l2.258 -0.188l1.251 -2.716l3.229 -0.713l1.356 1.253l2.43 -0.542l1.39 -1.6l1.502 2.706l3.212 0.131l1.023 -1.222l-0.134 -6.916l0.644 -15.194l-0.761 -15.033l0.117 -11.905l-2.153 -0.556l-8.205 0.85l-10.998 2.073l-7.907 2.847l-6.363 1.165l-3.871 1.304l-7.121 1.652l-3.2 1.148l-9.031 3.077l-5.199 2.085l-6.069 1.315l-6.403 1.951l1.149 1.929l0.698 2.222l0.379 2.864l-0.031 2.141l0.299 2.134l-0.231 2.388l-0.063 1.735l0.582 1.561l0.493 1.977l0.278 1.664l-0.898 1.491l-0.923 1.421l-0.727 1.156l0.142 1.574l0.142 1.041l-0.566 2.058l-1.255 1.743z" />
  </g>
  <g data-id="065">
    <path d="m490.188 298.201l3.014 0.999l-2.7 28.424l2.046 1.537l3.555 -2.395l5.317 0.265l3.69 -1.892l2.057 1.938l3.617 -0.672l2.12 1.934l-0.024 2.337l3.688 1.918l1.075 2.03l2.099 0.186l1.734 3.203l-0.241 2.599l5.287 3.328l0.331 4.5l5.579 -0.373l0.234 2.966l1.027 15.324l10.916 -0.191l1.559 -0.036l0.886 12.047l23.932 -1.43l0.702 -1.024l3.827 -0.421l1.355 -0.119l-0.749 -10.346l-1.093 -14.211l-0.392 -5.14l1.429 -2.077l3.222 -1.876l0.34 -3.366l2.37 -3.471l11.604 -19.522l-6.769 -2.381l-5.02 -3.024l1.818 -8.113l3.561 0.091l1.688 -1.547l0.842 -2.023l2.942 -0.962l-4.247 -49.592l-14.558 9.26l-21.141 13.341l-17.848 11.495l-28.17 -8.821l-7.389 -2.299l-9.123 27.605z" />
  </g>
  <g data-id="067">
    <path d="m412.895 336.793l0.745 16.911l3.661 -0.234l0.705 13.274l0.889 14.466l11.817 -0.642l6.478 6.228l3.847 5.666l0.085 1.588l9.958 -0.598l37.929 -2.798l-1.838 -34.26l-0.879 -16.746l-4.276 -0.194l-3.041 -0.628l-0.125 -2.099l1.366 -2.861l1.211 0.763l0.726 -3.016l-2.154 -0.393l-0.495 -3.436l-2.803 -4.984l-1.495 0.698l-5.175 -3.957l-4.08 0.476l-0.766 -2.503l2.076 0.2l-5.853 -3.445l-5.481 -1.863l-5.683 -4.91l-1.044 0.533l0.028 4.25l2.069 4.676l-3.82 2.1l-2.555 -1.666l-1.809 -3.975l-2.1 -0.226l1.708 3.524l-2.4 3.016l-3.214 -5.096l-4.831 -0.385l-17.024 0.894l0.779 14.139l-1.658 0.66l1.809 6.091l-3.283 0.763z" />
  </g>
  <g data-id="069">
    <path d="m272.008 395.444l1.626 15.702l14.159 0.29l-0.384 4.12l-0.124 11.865l4.46 0.068l11.273 0.091l-0.062 -13.527l-0.014 -2.201l1.708 -5.523l2.024 -5.63l2.927 -4.558l24.198 -0.724l19.195 -0.152l-0.822 -1.554l0.561 -10.431l-0.91 -4.023l0.268 -2.072l1.918 -0.668l-0.071 -24.227l-21.436 0.12l-0.115 -4.745l-14.087 0.021l-15.913 0.877l-14.412 0.023l0.367 15.805l-12.378 -0.138l1.659 1.322l2.658 12.159l-0.719 2.041l-4.563 0.009l-0.028 15.698l-2.967 -0.035z" />
  </g>
  <g data-id="071">
    <path d="m632.396 619.421l0.981 4.139l1.377 -0.952l1.05 0.534l-0.401 2.362l-0.289 1.407l0.615 1.134l1.925 0.626l1.328 2.122l0.899 1.182l1.052 0.786l0.69 1.111l-0.871 1.096l6.939 4.121l4.325 2.544l13.628 8.49l5.315 3.217l9.953 6.598l1.465 0.895l5.859 3.577l2.403 1.647l2.771 1.62l5.77 3.372l9.194 -8.89l7.962 -7.568l3.711 -3.532l11.146 -10.589l2.546 -4.017l1.766 -7.791l-1.498 -0.957l-2.827 -6.488l-2.289 -2.72l0.169 -4.321l0.081 -1.112l0.048 -5.394l0.34 -1.35l0.824 -2.606l4.213 -6.631l0.179 -1.384l-10.602 1.342l-2.095 0.242l-1.821 -4.294l-2.759 1.252l-1.108 -1.464l-4.536 -1.427l1.027 5.607l-7.73 -1.395l-8.107 -2.466l0.179 -4.052l-1.784 -0.559l-5.112 2.941l-4.55 3.531l-3.336 0.575l-5.214 2.672l-1.397 1.614l-4.455 5.452l-2.667 4.964l-6.846 0.269l-28.162 1.461l-1.077 0.519l1.275 4.551l-1.472 2.395z" />
  </g>
  <g data-id="073">
    <path d="m164.01 290.163l-0.117 11.905l0.761 15.033l-0.644 15.194l19.605 -0.464l39.619 -0.292l0.049 -15.01l0.045 -6.12l0.107 -5.245l0.013 -13.967l-3.544 -0.223l-10.233 -1.575l-5.146 0.021l-11.183 1.121l-2.154 -0.313l-13.669 -0.543l-1.456 -0.438l-12.052 0.917z" />
  </g>
  <g data-id="075">
    <path d="m399.075 281.086l-1.267 0.738l1.514 28.451l15.684 -0.191l0.243 5.057l17.024 -0.894l4.831 0.385l3.214 5.096l2.4 -3.016l-1.708 -3.524l2.1 0.226l1.809 3.975l2.555 1.666l3.82 -2.1l-2.069 -4.676l-0.028 -4.25l1.044 -0.533l5.683 4.91l5.481 1.863l5.853 3.445l-2.076 -0.2l0.766 2.503l4.08 -0.476l5.175 3.957l1.495 -0.698l7.621 1.16l0.983 2.598l5.197 1.066l2.7 -28.424l-3.014 -0.999l9.123 -27.605l7.389 2.299l-1.336 -26.994l-0.984 -11.157l-31.689 -3.173l0.39 6.8l-22.578 -2.114l0.494 5.328l-0.322 8.616l-0.548 4.449l-0.807 2.591l-1.025 2.614l-1.359 2.123l-3.941 1.441l-4.711 2.068l-4.276 0.156l-1.844 -0.254l-2.954 -2.16l-5.286 0.465l-3.394 2.433l-4.43 2.865l-1.83 3.039l-2.517 1.085l-1.141 -0.35l-2.015 1.889l-3.923 2.05l-5.599 4.383z" />
  </g>
  <g data-id="077">
    <path d="m551.968 468.776l-2.149 3.749l4.778 -1.368l4.576 1.258l4.307 -1.111l1.846 -3.113l2.988 -2.024l0.953 -2.629l2.562 0.274l2.995 -0.398l3.374 -2.132l-0.794 3.685l13.133 -10.67l4.344 -1.715l4.965 0.273l0.235 -4.319l3.232 2.359l2.998 -4.792l15.758 -7.574l8.392 1.075l4.264 -1.642l4.109 -0.326l4.952 -8.01l5.287 -10.691l-0.507 -3.634l-4.158 -17.71l0.269 -7.093l2.161 -6.498l-13.022 -5.193l-1.525 -0.618l-14.612 -6.048l-2.005 11.428l-1.526 1.226l-6.082 -3.705l-18.49 -10.691l-4.917 8.39l-8.952 0.554l-0.192 -4.043l-3.827 0.421l-0.702 1.024l0.055 1.189l0.115 3.484l0.894 1.775l-1.732 6.644l0.231 1.92l-2.75 2.081l-0.873 3.091l-2.001 1.798l-0.08 4.383l-2.121 4.976l-2.164 2.676l0.634 4.772l0.303 4.001l-1.794 1.687l1.332 6.102l-1.335 2.664l-3.78 1.681l-2.793 7.092l-1.809 0.434l1.056 3.72l-1.183 1.355l0.675 3.095l1.635 2.756l1.466 4.968l-2.272 2.584l-1.784 3.448l1.571 4.695l-0.514 2.959z" />
  </g>
  <g data-id="079">
    <path d="m731.193 640.466l11.121 -1.044l3.978 -0.568l8.165 -1.075l2.207 -0.311l15.196 -2.124l14.564 -1.9l0.165 -1.727l0.285 -4.952l0.442 -4.708l0.089 -1.213l0.114 -1.727l0.098 -2.054l0.117 -2.093l0.545 -8.663l-6.288 0.124l-8.582 1.38l-3.244 0.607l-2.451 0.415l-30.497 4.048l-6.035 8.334l2.827 6.488l1.498 0.957l-1.766 7.791l-2.546 4.017z" />
  </g>
  <g data-id="081">
    <path d="m733.723 738.041l-0.139 1.002l1.084 -0.437l2.793 1.826l0.967 1.413l1.285 2.548l0.665 1.083l1.55 2.645l2.138 -1.453l1.379 -0.587l0.34 2.119l0.595 1.15l0.796 5.323l2.78 2.473l-0.18 3.511l-1.947 3.086l-4.454 2.485l-6.113 0.751l-0.91 4.386l4.484 -2.248l8.947 -3.463l7.523 -2.258l2.284 -0.18l2.49 -0.187l-1.069 -3.131l-1.151 0.225l-1.516 -0.766l-0.258 -1.558l2.626 -1.713l1.017 -0.086l0.408 -2.326l1.501 -0.725l-0.409 -1.984l0.284 -2.982l-0.14 -4.587l-0.279 -1.41l2.724 -1.44l0.965 -1.935l-0.204 -2.187l-6.155 -5.008l-2.385 -2.959l-1.546 0.882l-0.639 -1.094l-3.147 -0.658l-2.06 0.244l-2.412 0.487l-2.063 0.56l-1.013 1.439l-1.812 0.396l-3.434 -1.573l-0.596 1.989l-1.405 1.218l-0.891 1.072l-3.148 4.337z" />
  </g>
  <g data-id="083">
    <path d="m755.964 442.883l0.231 3.941l8.314 -1.118l46.226 -6.733l11.076 -40.561l-1.45 -0.014l-1.837 -9.633l0.583 -1.055l0.327 -1.005l-0.419 -1.082l0.212 -2.406l1.212 -10.9l0.146 -6.423l0.023 -1.023l-13.334 -0.633l-1.545 -1.479l-5.193 -0.977l-2.205 2.361l-8.44 0.212l-13.564 0.369l-1.379 -0.012l-1.921 0.52l-1.237 0.992l-2.333 3.496l-0.605 1.896l-0.111 1.464l1.433 3.066l-0.342 2.848l2.054 6.83l-0.215 2.759l-1.39 1.239l-0.557 2.157l-0.885 2.861l-0.135 1.665l-2.336 8.048l-0.4 2.787l-2.125 3.648l-2.34 3.182l-2.252 6.912l0.936 8.178l-1.468 7.802l-1.188 2.018l-1.567 3.803z" />
  </g>
  <g data-id="085">
    <path d="m696.134 777.465l0.723 1.354l2.479 -0.534l1.702 -0.217l1.178 -1.139l1.335 -0.379l2.247 -1.482l1.49 -0.36l1.903 -1.247l1.346 -0.791l2.201 -0.516l1.86 -1.575l3.374 -3.774l2.985 -3.324l1.162 -2.24l-1.216 -2.04l-0.614 -1.324l-0.266 -2.892l-0.782 -1.148l-1.381 -0.583l-2.931 0.598l-2.299 0.685l-1.91 0.292l-2.296 -0.347l-1.164 -0.176l-1.363 -0.198l-1.995 1.792l-0.801 1.777l0.133 1.418l-0.168 1.657l0.549 1.12l-0.54 1.198l-0.485 1.657l-0.501 2.111l-0.676 1.901l-1.338 0.102l-1.494 0.711l-1.265 1.448l0.054 2.002l0.301 1.444l-0.664 1.15l-0.872 1.866z" />
  </g>
  <g data-id="087">
    <path d="m699.195 671.054l2.908 1.578l2.028 1.101l1.638 0.889l10.828 6.345l7.049 4.146l10.39 6.162l5.949 3.527l1.164 0.67l1.101 0.017l0.051 -1.358l0.531 -5.415l-0.683 -5.568l0.126 -3.776l0.784 -5.96l-0.62 -3.661l-2.125 -2.318l-1.57 -3.679l-1.238 -3.144l-2.085 -3.045l-2.886 -4.17l0.493 -3.247l2.568 -4.006l-2.264 -1.465l-2.29 -3.705l-10.994 10.084l-3.711 3.532l-7.962 7.568l-9.179 8.898z" />
  </g>
  <g data-id="089">
    <path d="m498.527 103.898l-4.962 5.129l44.309 27.65l8.048 5.162l4.148 2.516l19.247 11.864l11.512 6.9l13.582 8.197l26.386 -3.466l10.886 -1.323l15.056 -1.891l14.409 -1.921l-1.18 -12.366l2.378 -0.215l-12.302 -114.286l-2.395 -24.54l-9.921 -0.07l-0.749 -7.483l-2.329 0.766l-1.97 -0.781l-1.079 -1.6l-3.086 -0.135l-1.552 -1.137l-1.799 -0.334l-1.9 -0.323l-1.455 0.786l-1.046 0.877l-1.799 0.737l-1.084 -0.016l-1.341 0.235l-1.631 1.304l-0.914 1.68l-3.983 -0.19l-4.176 0.182l-2.567 1.065l-0.824 1.039l-0.049 1.022l-0.696 1.344l-2.779 2.115l-4.154 2.144l-4.641 1.34l-1.076 1.049l-1.846 0.602l-1.799 1.069l-1.136 2.072l-2.804 1.234l-2.929 1.804l-1.005 0.331l-2.823 1.04l-1.276 1.364l-1.602 0.168l-1.798 1.661l-1.611 0.452l-1.883 1.064l-3.098 2.202l0.145 1.903l-3.448 3.524l-1.617 0.145l-2.509 2.868l-0.757 1.134l-1.9 0.549l-1.219 1.169l-2.135 0.816l-1.272 2.238l-6.792 6.429l-3.575 2.695l-9.488 10.061l-4.737 5.134l-5.568 4.922l-4.326 4.324l-3.854 4.397l-4.956 4.784l-5.255 7.839l-1.651 6.981z" />
  </g>
  <g data-id="091">
    <path d="m708.588 290.111l2.524 20.435l2 17.366l3.398 29.601l0.567 4.679l4.746 0.448l6.299 3.42l6.349 6.248l6.46 -2.393l1.069 10.372l1.792 0.035l0.747 2.864l6.792 9.309l1.619 0.243l3.719 -2.294l1.417 1.086l4.022 -5.793l1.809 -0.207l0.354 3.345l1.164 1.241l2.58 3.206l1.708 -1.344l0.557 -2.157l1.39 -1.239l0.215 -2.759l-2.054 -6.83l0.342 -2.848l-1.433 -3.066l0.111 -1.464l0.605 -1.896l2.333 -3.496l1.237 -0.992l1.921 -0.52l0.505 -4.917l2.673 -2.006l1.672 -4.545l1.427 -7.285l0.971 -1.049l0.317 -8.966l-0.2 -1.978l-1.714 -2.645l1.336 -3.232l-1.217 -3.05l1.13 -2.301l-0.607 -1.628l0.813 -2.739l-2.252 -6.169l1.015 -3.342l-1.468 -0.837l1.497 -5.567l-6.822 -0.631l-0.999 2.537l-2.607 -0.622l-0.492 1.404l1.784 2.12l-2.492 0.956l-0.531 -2.345l-2.607 0.336l-4.036 2.011l-0.819 4.28l-2.474 3.008l-3.316 -3.304l-1.716 -1.024l-3.815 0.177l-0.267 -2.871l1.2 -1.781l0.031 -5.085l-1.403 -0.22l-2.792 -4.122l0.722 -1.292l-2.794 -4.761l0.556 -1.288l-1.584 -4.442l-34.987 4.614z" />
  </g>
  <g data-id="093">
    <path d="m692.538 396.561l-2.32 1.6l4.179 5.704l4.104 -0.801l7.034 1.106l0.501 -3.009l9.332 -1.594l21.85 -3.697l3.411 -0.471l12.036 -1.954l-1.334 -0.949l-6.792 -9.309l-0.747 -2.864l-1.792 -0.035l-1.069 -10.372l-6.46 2.393l-6.349 -6.248l-6.299 -3.42l-4.746 -0.448l1.026 8.887l0.003 1.305l-21.705 14.661l-0.869 2.649l1.929 2.062l-1.358 4.727l-3.566 0.078z" />
  </g>
  <g data-id="095">
    <path d="m643.785 429.625l-4.952 8.01l11.723 16.018l22.184 11.881l8.153 -3.228l4.17 3.113l8.784 -1.311l2.208 -2.7l1.833 0.335l-1.216 -5.317l-1.159 0.185l-0.176 -2.182l2.581 -8.639l2.018 -4.136l0.362 -5.495l-1.111 -1.963l-0.905 -2.225l0.958 -4.274l5.123 -7.442l3.007 -8.327l0.638 -8.567l-1.973 -2.199l-0.501 3.009l-7.034 -1.106l-4.104 0.801l-4.179 -5.704l2.32 -1.6l3.566 -0.078l1.358 -4.727l-1.929 -2.062l-3.305 2.194l-15.424 1.261l-5.506 0.605l-13.606 -6.884l-10.855 -2.87l-2.161 6.498l-0.269 7.093l4.158 17.71l0.507 3.634l-5.287 10.691z" />
  </g>
  <g data-id="097">
    <path d="m335.817 443.472l0.954 36.2l3.146 -0.533l13.883 -0.516l0.034 -1.529l15.413 -1.08l13.786 0.006l0.156 7.806l5.932 -0.048l0.016 1.833l4.749 -0.084l3.615 -1.806l0.029 -5.844l-9.12 -0.249l0.108 -15.212l-0.772 -29.759l-25.163 0.902l-0.663 8.19l1.396 5.275l-9.382 0.663l-3.028 -0.695l-0.179 -3.701l-14.91 0.18z" />
  </g>
  <g data-id="099">
    <path d="m352.093 377.182l-0.268 2.072l0.91 4.023l-0.561 10.431l0.822 1.554l3.031 -0.036l0.088 2.53l1.438 5.875l4.838 8.945l0.387 14.586l-0.194 6.398l25.163 -0.902l13.998 -0.536l-4.079 -2.875l-3.425 -4.304l-2.685 -5.456l-2.374 -8.052l-5.52 -7.334l-1.084 -7.063l-0.321 -6.118l2.893 -8.52l-0.514 -5.305l-1.546 -4.258l-0.745 -10.403l3.232 -12.029l-31.637 1.882l0.071 24.227l-1.918 0.668z" />
  </g>
  <g data-id="101">
    <path d="m255.583 493.364l-1.062 32.972l17.696 -0.125l13.246 -0.094l6.164 0.015l41.979 0.1l7.718 -0.181l7.088 -0.066l5.301 -0.072l0.045 -33.734l0.044 -13.555l-13.883 0.516l-3.146 0.533l-0.954 -36.2l-0.049 -3.774l-2.49 1.46l-2.811 -0.482l-0.012 -9.234l0.734 -3.95l-12.518 0.085l-15.652 0.001l-11.273 -0.091l-4.46 -0.068l-21.38 -0.536l-0.177 7.786l-7.501 0l-0.297 10.955l-1.02 11.53l-0.732 20.948l-0.597 15.26z" />
  </g>
  <g data-id="103">
    <path d="m977.391 652.121l4.11 0.436l2.977 -2.042l2.065 -1.004l2.065 -0.898l1.393 -0.719l1.07 -1.606l-2.12 0.58l-1.176 0.265l-3.44 0.809l-1.398 -0.175l-1.993 1.321l-1.525 -0.107l-1.33 1.855l-0.698 1.284z" />
    <path d="m963.734 678.614l2.829 0.778l1.791 0.72l1.172 2.188l-0.008 3.516l1.293 -0.572l0.735 -5.981l-0.385 -1.273l-5.375 -2.286l-0.208 1.177l-1.567 1.224z" />
    <path d="m954.729 664.336l-0.301 2.104l2.104 1.653l1.503 -1.503l0.752 -1.503l2.656 -1.735l0.35 -1.421l-3.908 0.601l-3.157 1.804z" />
    <path d="m792.507 707.836l2.446 4.055l0.155 3.704l1.748 1.74l2.169 13.565l0.837 5.719l0.315 1.979l0.389 2.657l0.227 1.804l0.384 2.539l0.534 6.928l0.01 7.688l9.15 -3.441l3.188 -0.433l2.513 2.057l5.3 -0.114l3.207 -0.61l3.883 -0.964l7.991 -2.435l11.422 -3.481l5.365 -2.215l11.299 -5.611l6.368 -2.754l1.227 -0.531l12.018 -4.779l1.388 -0.465l1.514 -0.454l2.167 -0.769l19.559 -6.943l13.084 -4.929l9.379 -4l35.594 -17.647l10.763 -4.662l11.848 -5.746l4.042 -1.003l3.773 -2.031l2.238 -3.073l-1.044 -1.061l-3.172 0.204l-1.229 -0.862l-2.546 0.054l-2.386 0.521l-2.7 1.036l-0.249 1.211l0.062 1.635l-0.754 1.091l-4.075 1.359l-1.993 1.898l-2.628 1.272l-1.477 -0.303l-0.516 1.144l0.256 1.013l-1.064 0.821l-2.307 -0.722l-0.869 2.118l-1.571 0.855l-1.714 -0.459l-3.592 -4.999l0.287 -1.237l-0.273 -1.409l-2.095 -2.042l-1.144 -0.223l-1.516 1.181l-0.583 1.293l-1.401 0.982l-1.429 0.051l-1.975 -1.398l-1.504 -0.628l-1.504 -0.07l-2.437 0.454l-1.662 -1.588l-1.194 -2.741l0.807 -1.485l-2.657 -0.724l-2.469 -1.278l-2.269 -3.065l-0.012 -2.243l1.093 -1.996l1.073 -0.835l1.489 -0.118l0.76 4.293l4.459 -2.721l1.461 -1.454l2.004 -3.241l-3.842 0.385l-1.352 -0.769l-1.558 0.478l-2.74 1.322l-2.252 0.163l-2.978 1.189l-6.135 7.224l-1.938 1.506l-3.453 0.309l-1.965 3.206l-2.091 2.483l-5.596 2.442l-3.58 2.986l-1.407 0.738l-3.081 2.993l-6.354 2.619l-3.56 0.382l-2.79 -0.102l-2.822 0.408l-4.754 1.576l-3.598 0.524l-6.571 -0.75l-7.867 1.144l-3.236 0.083l-5.228 -0.616l-5.157 -0.059l-5.63 0.335l-1.166 0.1l-4.038 -1.535l-1.716 0.088l-1.925 0.099l-3.847 0.965l-0.492 1.731l-0.198 3.478l-0.348 1.034l-10.156 3.98l-8.32 -3.243l-4.592 -0.854l-1.619 0.385l-1.088 0.101l-1.67 -0.837l-1.075 -0.988l-2.327 -2.964l-1.012 0.218l-0.329 1.976l0.063 2.863l-3.273 0.601l-0.13 -1.388l-4.281 -1.323l-1.854 -0.77l-1.695 0.033l-0.617 3.118z" />
  </g>
  <g data-id="105">
    <path d="m583.828 551.476l1.956 0.977l1.542 -0.115l0.677 1.617l-0.197 1.018l0.21 1.276l1.684 0.753l1.334 1.149l1.222 -0.549l1.02 0.495l-0.337 1.648l-1.76 0.791l-1.661 1.628l-0.264 1.006l-0.138 1.324l1.163 0.99l2.02 -0.481l1.379 0.663l1.915 2.503l0.079 1.325l-0.254 1.62l0.163 1.359l0.484 2.043l-1.452 0.365l-0.772 1.271l1.332 1.649l0.507 1.238l0.19 1.008l-0.952 1.359l0.603 1.053l0.671 2.011l-0.076 2.447l0.079 1.368l0.645 1.717l-0.246 1.258l-1.054 -0.414l-0.773 1.074l-1.481 0.476l0.248 1.321l0.764 1.176l1.369 1.178l1.135 2.143l0.872 1.36l1.22 0.593l1.115 1.984l0.301 1.277l-1.094 0.752l0.225 1.125l1.025 0.295l1.4 1.241l0.369 1.083l-0.351 1.101l1.242 0.399l1.042 0.14l0.413 1.173l-0.362 2.004l0.241 1.388l1.702 0.583l1.471 0.176l1.288 -0.714l1.959 -0.287l1.074 0.876l1.464 0.258l0.555 1.264l0.158 1.179l1.495 0.497l0.758 1.173l-0.927 1.529l2.489 0.31l1.522 -0.617l1.327 0.14l1.091 0.943l1.095 1.004l1.052 0.156l0.723 -1.028l1.361 -1.044l1.378 0.824l0.212 1.148l0.525 1.233l1.399 0.268l1.404 -0.668l1.206 0.463l1.138 -0.233l-0.981 -4.139l1.472 -2.395l-1.275 -4.551l1.077 -0.519l28.162 -1.461l6.846 -0.269l2.667 -4.964l4.455 -5.452l1.397 -1.614l5.214 -2.672l-1.149 -1.219l-2.384 -7.816l-22.78 -17.088l6.271 -8.744l4.88 -6.525l4.204 -6.849l-25.468 -14.973l-2.402 -1.361l-13.493 -7.607l-27.392 16.653l-18.871 11.483z" />
  </g>
  <g data-id="107">
    <path d="m404.686 499.559l0.42 4.207l2.267 13.555l-2.041 8.783l10.7 0.178l1.376 0.029l14.199 0.089l25.851 -0.086l1.811 -0.007l3.208 0.016l0.128 -5.569l-0.521 -7.356l0.049 -4.518l-0.692 -8.896l-0.277 -5.494l3.737 -0.213l0.702 -7.452l-1.96 -4.606l2.017 -0.108l-0.891 -3.533l-2.385 -1.471l0.627 -3.94l-3.612 -17.108l-15.58 0.474l-5.242 0.466l-0.593 3.397l7.256 3.653l0.561 2.109l-1.729 4.528l0.154 4.826l-4.81 -0.015l-0.006 -1.96l-7.893 -0.036l-0.032 -1.685l-8.15 -0.014l-0.113 9.471l-7.374 -0.134l0.067 -2.969l-8.144 -0.107l0.325 5.415l-0.094 16.164l-3.315 -0.086z" />
  </g>
  <g data-id="109">
    <path d="m387.746 432.658l1.382 29.435l-0.718 15.536l9.12 0.249l10.24 0.188l8.144 0.107l-0.067 2.969l7.374 0.134l0.113 -9.471l8.15 0.014l0.032 1.685l7.893 0.036l0.006 1.96l4.81 0.015l-0.154 -4.826l1.729 -4.528l-0.561 -2.109l-7.256 -3.653l0.593 -3.397l5.242 -0.466l-1.546 -37.07l-24.389 0.855l-0.058 -1.513l-19.66 0.913l-6.609 -0.233l2.685 5.456l3.425 4.304l4.079 2.875l-13.998 0.536z" />
  </g>
  <g data-id="111">
    <path d="m630.091 523.341l13.493 7.607l2.402 1.361l25.468 14.973l-4.204 6.849l-4.88 6.525l-6.271 8.744l22.78 17.088l2.384 7.816l1.485 0.7l3 -0.056l4.55 -3.531l5.112 -2.941l1.784 0.559l-0.179 4.052l8.107 2.466l7.73 1.395l-1.027 -5.607l4.536 1.427l1.108 1.464l2.759 -1.252l1.821 4.294l2.095 -0.242l10.602 -1.342l0.794 -13.343l0.576 -2.585l-0.126 -1.05l-0.405 -1.542l0.284 -2.582l0.424 -3.06l0.012 -3.907l-0.708 -1.346l-0.636 -1.178l0.397 -13.59l1.021 -3.784l-3.008 -6.317l3.465 -16.413l0.571 -9.354l0.771 -1.764l-0.435 -1.167l1.032 -5.326l1.365 -2.945l-11.609 -8.48l-0.144 2.326l-4.908 -1.198l-4.099 12.587l-24.894 -2.563l-4.549 -0.464l-18.232 -9.362l-6.612 4.147l-3.415 -0.265l-2.186 3.253l-0.675 1.01l-14.684 9.148l-14.041 8.762z" />
  </g>
  <g data-id="113">
    <path d="m701.691 227.777l6.897 62.334l34.987 -4.614l1.584 4.442l-0.556 1.288l2.794 4.761l-0.722 1.292l2.792 4.122l1.403 0.22l-0.031 5.085l-1.2 1.781l0.267 2.871l3.815 -0.177l1.716 1.024l2.613 3.834l3.177 -3.538l0.819 -4.28l4.036 -2.011l2.607 -0.336l0.531 2.345l2.492 -0.956l-1.784 -2.12l0.492 -1.404l2.607 0.622l0.999 -2.537l6.046 -0.338l-1.864 -13.492l-2.434 -17.889l-0.975 -1.892l3.742 -9.684l-0.78 -1.776l3.064 -1.114l7.869 -11.651l1.583 -0.244l2.625 -3.104l1.181 -6.468l1.549 -2.585l1.512 -5.93l-0.039 -4.911l-1.394 -0.495l4.198 -5.608l-78.281 10.366l-19.937 2.768z" />
  </g>
  <g data-id="115">
    <path d="m774.798 268.214l0.975 1.892l2.434 17.889l1.864 13.492l-0.721 6.536l1.468 0.837l-1.015 3.342l2.252 6.169l-0.813 2.739l0.607 1.628l-1.13 2.301l1.217 3.05l-1.336 3.232l1.714 2.645l0.2 1.978l-0.317 8.966l-0.971 1.049l-1.427 7.285l-1.672 4.545l-2.673 2.006l-0.505 4.917l1.379 0.012l13.564 -0.369l8.44 -0.212l2.205 -2.361l5.193 0.977l1.545 1.479l13.356 0.065l0.539 -15.054l0.484 -9.771l0.08 -1.57l0.783 -20.917l0.085 -2.263l0.281 -5.097l0.25 -9.63l0.181 -6.964l0.032 -1.527l0.02 -1.182l0.495 -15.938l0.046 -1.504l0.169 -7.755l-0.08 -1.44l0.735 -1.089l-0.468 -1.906l-0.609 -1.76l-0.278 -1.122l-0.763 -1.414l-1.36 -1.226l-1.309 -0.396l-1.747 -0.747l0.18 -1.046l-0.143 -1.405l0.128 -1.746l-0.732 -1.306l-0.513 -2.505l-1.079 0.043l-1.681 -0.614l-2.313 0.273l-2.076 0.175l-1.084 0.252l-0.935 1.564l0.276 1.514l-0.68 1.111l-0.718 2.608l0.007 1.389l-1.087 1.197l-1.054 0.179l-2.109 -1.544l-1.227 -0.915l-0.464 -1.319l0.676 -1.44l0.357 -1.351l-0.196 -1.021l0.744 -1.438l-1.275 -2.418l0.183 -1.428l1.385 -1.722l0.122 -1.007l0.82 -1.963l0.498 -2.081l-0.142 -1.229l0.875 -1.095l0.827 -1.549l0.747 -1.374l1.028 -1.115l0.904 -1.333l-0.014 -1.793l0.055 -1.173l0.928 -1.911l1.057 -1.924l0.492 -1.103l-0.513 -1.097l-0.353 -1.614l-1.345 -1.299l-1.034 -0.95l-0.241 -1.267l-7.57 0.404l-4.198 5.608l1.394 0.495l0.039 4.911l-1.512 5.93l-1.549 2.585l-1.181 6.468l-2.625 3.104l-1.583 0.244l-7.869 11.651l-3.064 1.114l0.78 1.776l-3.742 9.684z" />
  </g>
  <g data-id="117">
    <path d="m301.813 306.434l0.125 14.109l0.452 28.017l15.77 0.006l14.23 -0.904l0.115 4.745l21.436 -0.12l31.637 -1.882l-0.608 -1.571l0.104 -5.109l1.956 -3.034l-2.552 -45.735l-1.08 0.046l-2.027 2.077l-2.777 2.265l-3.249 1.533l-5.941 0.736l-1.682 1.209l-2.836 0.959l-1.204 -0.168l-2.198 0.361l-2.285 1.183l-3.772 2.487l-4.588 -0.662l-1.422 0.529l-4.324 0.041l-4.227 -1.689l-5.638 -1.218l-2.348 0.401l-1.643 -0.335l-3.753 1.052l-5.182 -0.453l-6.339 1.173l-5.034 -0.137l-1.346 -0.5l-3.348 0.064l-4.42 0.523z" />
  </g>
  <g data-id="119">
    <path d="m731.041 640.971l2.29 3.705l2.264 1.465l-2.568 4.006l-0.493 3.247l2.886 4.17l2.085 3.045l1.238 3.144l1.57 3.679l2.125 2.318l0.62 3.661l-0.784 5.96l-0.126 3.776l0.683 5.568l-0.531 5.415l-0.051 1.358l-0.316 2.597l-0.31 1.147l-0.757 2.805l-0.299 1.107l-1.05 4.454l-0.294 1.226l5.024 1.941l2.3 0.907l0.927 -1.562l1.805 2.651l1.415 0.548l5.506 1.624l2.092 0.716l-0.002 -1.59l-1.038 -0.959l2.354 -3.442l3.162 -2.076l1.269 -1.178l3.006 -1.266l1.455 -0.938l1.063 -2.947l1.72 -0.737l1.076 -2.077l-0.468 -1.393l0.038 -1.942l0.481 -1.374l-0.897 -2.145l-0.987 -1.61l-1.202 -1.962l-0.911 -1.493l-0.898 -1.442l-1.504 -2.498l-1.355 -2.251l-0.721 -1.007l-0.658 -1.192l4.026 -2.474l7.118 -4.376l3.198 -1.918l6.255 -3.739l1.302 -0.799l5.064 -3.111l2.363 -1.416l1.394 -0.827l-2.231 -4.277l-2.002 -3.282l-4.121 -6.514l0.257 -2.05l-0.082 -1.403l0.076 -1.746l0.472 -5.934l-14.499 1.081l-15.196 2.124l-2.207 0.311l-8.165 1.075l-3.978 0.568l-11.273 1.549z" />
  </g>
  <g data-id="121">
    <path d="m161.385 377.414l-0.239 15.016l3.151 0.034l-0.089 41.989l-0.078 2.946l19.696 -0.352l33.754 0.042l-0.073 -2.433l-2.284 0.401l1.6 -4.312l1.809 -1.728l-1.844 -1.943l3.212 -0.96l2.111 -2.389l-1.166 -1.83l3.16 -0.93l2.738 -8.243l1.571 -0.777l0.173 -33.671l-5.11 -0.386l-9.967 0.216l-0.001 -1.112l-49.357 0.471l-2.767 -0.047z" />
  </g>
  <g data-id="123">
    <path d="m302.943 411.851l0.014 2.201l0.062 13.527l15.652 -0.001l12.518 -0.085l-0.734 3.95l0.012 9.234l2.811 0.482l2.49 -1.46l0.049 3.774l14.91 -0.18l0.179 3.701l3.028 0.695l9.382 -0.663l-1.396 -5.275l0.663 -8.19l0.194 -6.398l-0.387 -14.586l-4.838 -8.945l-1.438 -5.875l-0.088 -2.53l-3.031 0.036l-19.195 0.152l-24.014 0.357l-3.111 4.925l-2.024 5.63l-1.708 5.523z" />
  </g>
</svg>
