<?xml version="1.0" encoding="UTF-8"?>
<!DOCTYPE svg PUBLIC '-//W3C//DTD SVG 1.1//EN' 'http://www.w3.org/Graphics/SVG/1.1/DTD/svg11.dtd'>
<svg viewBox="0 0 10000 7791.5" xmlns="http://www.w3.org/2000/svg">
  <g data-id="001">
    <path d="m6953.4 4544.3l0 0l1.8 21.8l11.6 -1.9l406.1 -62.7l189.1 -33.3l-2.3 -39.4l15.7 -38l11.9 -20.2l14.7 -78l-9.6 -81.1l0.2 -0.7l22.5 -69.1l21.2 -27.2l2.2 -4.6l21.2 -36.5l3.8 -19.8l0.2 -8.1l23.4 -80.5l1.4 -16.7l8.9 -28.6l-17.1 13.4l-25.8 -32.1l-11.6 -12.4l-3.5 -33.4l-18.1 2.1l-40.2 57.9l-14.2 -10.9l-37.2 22.9l-2.9 7.1l-120.4 19.5l-34.1 4.7l-218.5 37l-93.3 15.9l19.7 22l-6.4 85.7l-30.1 83.3l-51.2 74.4l-9.6 42.7l9 22.3l11.1 19.6l-3.6 54.9l-20.2 41.4l-25.8 86.4z" />
  </g>
  <g data-id="003">
    <path d="m1838.3 4370.5l0 0l0.9 891.8l46.7 0.8l81.7 -1.1l103.6 -1.4l118.3 1.8l0.3 0l42.3 1.1l209.3 0.4l11.7 -0l92.2 -0.4l10.6 -329.7l6 -152.6l7.3 -209.5l10.2 -115.3l-148.3 -5.8l-0.6 -74.1l-144.5 -1l-111.9 -0.2l6.5 -5.2l-4.7 0.9l-337.5 -0.4z" />
  </g>
  <g data-id="005">
    <path d="m7378.2 7135.1l0 0l-5.6 12.5l23 10.9l6.2 -5.8l2.2 2.2l2 7.1l-4.9 11.6l-10.7 15.1l-2.4 4.7l-7.7 13.6l-7.2 18.2l-0.1 12.6l0.9 14.5l-0.4 13.3l1 6.1l4.5 6.7l18.5 11.8l1.5 1.2l25.6 9.5l8.7 6.2l17.3 -0.2l0.8 -3.8l10.1 -14.4l20.6 -5.6l24.1 -4.9l20.6 -2.4l22.4 8.4l9 -1.8l-13.8 -23.6l-9.1 -4.9l-9.3 -11.4l-4.2 -9.5l-0.5 -6.8l3.5 -19.4l7.5 -4.6l9.3 2.5l2.9 -7l4.4 -5.7l1.9 -0.4l3.5 7.4l-1.9 8.1l3.6 7.6l3.6 6.7l1.9 2l1.6 -1.3l1.7 -2.2l1.1 -9.5l6.1 -3.2l7.4 3l4.6 -0.5l1.1 -15.5l-1.5 -5.2l-5.3 -5l4.3 -27.5l-20.9 -7.2l-50 -16.9l-1 2.2l-4 -1.5l-14.1 -5.5l-11 -20.3l-7.1 -6.2l-9.3 15.6l-23 -9.1l-50.2 -19.4l-0.6 0.2l-1.6 6.6l-0 0.1l-11.8 40z" />
  </g>
  <g data-id="007">
    <path d="m4594 4560.6l0 0l36.1 171.1l-6.3 39.4l23.8 14.7l8.9 35.3l-20.2 1.1l19.6 46.1l-7 74.5l-37.4 2.1l2.8 54.9l6.9 89l-0.5 45.2l5.2 73.6l-1.3 55.7l57.9 -0.1l97.4 -0.2l3.6 0l27.6 0.1l111 0.3l123.1 1.2l39.4 0.4l166.8 -1.9l72.4 -0.2l87.7 -0.3l0.7 -0l7.6 -0.3l51.8 0.1l5.4 -0l37.6 -0.1l-24.7 -72.6l2.7 -184.8l1.6 -76.1l-82.5 -0.3l-194.1 -0.8l-1.5 -90.6l-106.2 -1.1l-122.8 0.6l-21.7 8.1l-9.2 -26.4l-10.5 -146.5l-15.1 -120.5l-198.7 10.9l-46.2 -4.5l-91.8 2.7z" />
  </g>
  <g data-id="009">
    <path d="m887.1 4341.9l0 0l-0.6 920.6l98.9 0.5l81.2 1.4l55.8 1l158.1 -0.9l193.7 -3l364.9 0.8l-0.9 -891.8l-197 3.5l0.8 -29.5l-80.6 24.6l-44.9 22.2l-43.7 -5.9l-19 16.6l-32.8 8.1l-8.8 12.4l-21.2 -2.7l-42.4 35.2l-6 -23l-47 8.2l-2 13.3l-30.6 3.9l-21.8 26.4l-17.5 -12.9l-52.9 32.5l-52.2 3.4l-8.2 6.3l-20.6 -19l-24.4 11.5l0.6 -20l-27.3 -24.5l-20.5 -6.9l-12.1 -36.6l-24.9 -19.9l-2.6 -28.1l-56.7 -37.1l-35 9.3z" />
  </g>
  <g data-id="011">
    <path d="m3822.6 3909.2l0 0l3.2 61.2l10.8 70.6l55.2 73.3l23.7 80.5l66.1 2.3l196.6 -9.1l0.6 15.1l243.9 -8.5l-0 -3.2l-11.5 -250.9l-0.9 -15.9l-38.5 -56.7l-64.8 -62.3l-118.2 6.4l-8.9 -144.7l-7 -132.7l-36.6 2.3l-7.4 -169.1l32.8 -7.6l-18.1 -60.9l16.6 -6.6l-7.8 -141.4l-2.4 -50.6l-151.3 5l-5.5 -3.1l-15.1 -284.5l-17.3 10.1l-15 21.1l-34.1 60.4l-19.3 24.1l-17.1 14.4l-30.5 1.3l25.5 457.4l-19.6 30.3l-1 51.1l6.1 15.7l-32.3 120.3l7.5 104l15.5 42.6l5.1 53.1l-28.9 85.2z" />
  </g>
  <g data-id="013">
    <path d="m0.2 4832.6l0 0l-0.2 14.2l0.4 101.5l-0.1 6.7l0 10.9l0.2 18.2l-0.1 20.4l-0.3 33.2l0.5 20.9l-0.1 170.3l0.2 32.3l0.4 2.1l115.3 -0.9l56.7 0.6l-0 -0.1l18.3 0.1l75.2 0.6l16.4 0.2l34.7 0.2l48.7 0.3l281.7 -0.9l90.1 -1.1l148.4 0.3l0.6 -920.6l-59.5 -55.1l-36.6 0.5l-2.3 9l-12.8 18.5l-56.3 13.4l-37.9 16.8l-24.9 7.4l-27.5 14.8l-23.7 20.5l-43.5 19.5l-6.8 8.7l-10.6 9.8l-4.6 1.3l-9.1 -2.3l-12.2 1.3l-12.8 15l-25.1 23.5l-29.7 22.6l-29.9 42.7l-30.9 29.5l-26.9 11.8l-45.8 37.5l-44.6 32.5l-60.4 37.3l-65 44.5l-91.7 52.9l-55.8 25.4l-0 31.6z" />
  </g>
  <g data-id="015">
    <path d="m3537.1 5259.1l0 0l0.1 -0l29.2 -0.5l7 -0.2l12.6 0l6.6 0l1.4 -0.2l108.4 0l24.3 0.2l83.7 -0l141.1 1.5l101.2 1.1l0.6 0l20.4 -87.8l-22.7 -135.5l-4.2 -42.1l33.1 0.9l0.9 -161.6l-3.2 -54.1l-102.4 -1.9l-0.3 58.4l-28.7 25.5l-7.4 -7.5l-47.5 0.8l-0.2 -18.3l-59.3 0.5l-1.6 -78.1l-137.9 -0.1l-154.1 10.8l-0.3 15.3l-0.4 135.5l-0.4 337.3z" />
  </g>
  <g data-id="017">
    <path d="m4898 4022.2l0 0l19.7 311.4l12.9 217.8l15.1 120.5l10.5 146.5l9.2 26.4l21.7 -8.1l122.8 -0.6l106.2 1.1l1.5 90.6l194.1 0.8l82.5 0.3l2.9 -148l1 -55.6l21.5 -37.5l5.1 -29.6l-15.7 -47l17.8 -34.5l22.7 -25.8l-14.7 -49.7l-16.3 -27.6l-6.7 -31l11.8 -13.5l-10.6 -37.2l18.1 -4.3l27.9 -70.9l37.8 -16.8l13.3 -26.6l-13.3 -61l17.9 -16.9l-3 -40l-6.3 -47.7l21.6 -26.8l21.2 -49.8l0.8 -43.8l-167.1 10.3l-0.9 -12.6l-583.3 37.2z" />
  </g>
  <g data-id="019">
    <path d="m7253.7 35.9l0 0l22.7 164.9l4.4 55.9l-0.9 62.9l25.7 230.1l25.6 -2.4l25.6 238.7l16.4 -2.4l29.4 259.8l264.3 -28.1l39.8 7.5l50.9 -30.2l17 7.2l56 -19.5l20.7 -30.5l35.5 -9.7l38.3 3.5l10.5 -24l35.6 -35.8l-4.6 -31.7l158.4 -16.3l-0.2 -2.1l-5.3 -6.9l-9 -6.2l-6.5 -2.7l-2 -1.8l-4.2 -8.2l-1.8 -1.7l-7.3 -7.1l-9 -14l-1.6 -11.7l-2.7 -5.5l-5.1 -7.4l0.3 -2.3l4.7 -5.8l1.4 -2.9l0.6 -3.1l-0.7 -4.2l-4.9 -10l-2.8 -12.3l-8.7 -8.9l-0.5 -2l0.3 -2.3l3.3 -7.2l1.1 -5.8l0.8 -7.3l-1.6 -8l0.5 -1.5l8.9 -7.1l1.5 -2l-5.8 -7.6l6.6 -12.7l-0.1 -1.7l-1.2 -2.4l-0.1 -2.8l6.2 -9.9l1.4 -0.7l3.1 0.3l1.2 -1.7l-0.5 -4.6l-3.4 -4.7l1.1 -14.6l1 -1l4.9 -1.7l-0.3 -4.9l-2.9 -4.4l-0.6 -1.9l6.1 -4.8l5 -12.4l-0 -1.5l-5.4 -8.8l0.6 -45.1l-0.6 -28.7l2.2 -6.2l7.7 -10.3l4.2 -7.6l7.2 -23.1l2.1 -8.4l3.6 -5.9l10.8 -10.3l2.5 -5.5l0.8 -6.4l-1 -18.6l-0.6 -5.3l-1.3 -4.3l-18.7 -21l-4.1 -7.1l-1.9 -2l-4 -3.2l-9.6 -5.6l-5 -4.8l-2.1 -2.9l-5.1 -9.9l-4.3 -1.9l-0.9 -1.2l-2.4 -12.5l-0 -6.8l2 -14.7l5.2 -6.6l4.7 -3l3.6 -7.6l3.3 -14.9l5.4 -29.3l2.4 -10.3l2.8 -7.3l2.4 -5.7l3.2 -5.1l7.4 -7.1l6.4 -4.5l2.1 -1.5l2.7 -5.4l0.6 -11.5l-1.4 -34.4l2.1 -30.7l-0.4 -7.5l-0.6 -2l-7.6 -8.2l-6.9 -10.3l-3.4 -7.9l-1.6 -6.1l-0.7 -5.9l1.5 -5l4.1 -7.4l8.9 -29.6l-119.2 2.9l-255.9 10.3l-45.2 1l-110.7 -0.6l-141.2 3.6l-193.3 9.8z" />
  </g>
  <g data-id="021">
    <path d="m7387.7 5073.9l0 0l-10.3 53.3l27.6 -1.4l112.9 56l136.1 70.2l232.6 46.8l7.2 -122.6l31 0.5l-14.2 -62.3l40.8 -149.7l116.9 -430.3l39.2 -144.6l-462.3 67.3l-83.1 11.2l9.4 4.1l0.6 54.7l-23.4 94l15.1 85.8l-1.2 62.6l-24.9 59.3l-40.7 19.8l-15.9 20l-9.4 66.5l-46.9 40.8l-23.2 68.7l-13.6 29.4z" />
  </g>
  <g data-id="023">
    <path d="m4411.2 3940.5l0 0l11.5 250.9l0 3.2l15.5 370.7l155.8 -4.7l91.8 -2.7l46.2 4.5l198.7 -10.9l-12.9 -217.8l-19.7 -311.4l-7.9 -115.6l-379.3 28l-99.6 6z" />
  </g>
  <g data-id="025">
    <path d="m5492.7 5004.9l0 0l-2.7 184.8l24.7 72.6l53.9 -0.1l7.7 4l8.8 3l6.9 4.3l4.5 10.3l-0.2 3.9l-5.9 17.2l0.3 2.4l3.4 3.5l4.7 0.8l8.2 3.5l8.8 11.1l3 1.4l2.4 11.3l6.8 6.9l3.1 2l8.1 1.4l2.9 -0.3l0.5 -0.9l-0.5 -6.7l1.5 -1.8l2.3 -1.1l6.2 -0.1l2.9 3.6l-0.4 9.2l1 3.5l2 3.7l13 6.8l2.3 9l0.9 11.8l-0.1 7.6l1.5 4.5l7.1 13.9l2.7 7.3l-0.3 8.6l-6.3 8.3l0.2 6.7l1.6 9.9l4.4 2.3l6.1 1.5l3 2.3l3.9 11.3l-1.1 3.4l-3.9 3.1l-2.9 4.3l0.2 4.5l1.1 3.2l2.9 4.1l3.4 2.8l8.4 0.2l4 -2.1l5.9 -6.1l2.8 -0.4l3 2.4l5.3 7l3.7 3.6l7.5 3.4l2.5 0l4.6 -5.2l6.5 -11.7l6.6 -3.1l7.3 -1l7.8 1.8l4.4 2.6l3.7 3.8l1.6 4.4l1.7 2l2.4 2l2.2 0.3l1.7 -1l2.1 -2.9l2.2 -5.9l1.7 -7.2l3.2 -4.1l2.6 -0.5l5.1 1.8l1.8 2.2l1.4 5.5l-0.9 13.2l3.2 9.2l2.6 3.9l3.3 3l6.4 2.6l4.6 -0.4l8.2 -4l188.7 -114.8l273.9 -166.5l140.4 -87.6l146.8 -91.5l6.7 -10.1l21.9 -32.5l34.2 2.7l66.1 -41.5l-108.3 -55l138 -252.4l-19.4 -10.2l-221.8 -118.8l-117.2 -160.2l-41.1 3.3l-36.5 18.4l-6.2 -2l-83.9 -10.7l-157.6 75.7l-30 47.9l-32.3 -23.6l-2.4 43.2l-49.6 -2.7l-43.4 17.1l-131.3 106.7l7.9 -36.8l-33.7 21.3l-30 4l-25.6 -2.7l-9.5 26.3l-29.9 20.2l-18.5 31.1l-43.1 11.1l-45.8 -12.6l-47.8 13.7l-1 55.6l-2.9 148l-1.6 76.1z" />
  </g>
  <g data-id="027">
    <path d="m7290.6 6141.7l0 0l-1.7 43.2l22.9 27.2l60.3 -83.3l305 -40.5l24.5 -4.1l32.4 -6.1l85.8 -13.8l62.9 -1.2l11.4 -156.5l0 -0.1l1.3 -36.2l2.3 -43.2l1.8 -35.3l6.2 -90.4l1.1 -28.4l0.1 -1.8l7.5 -110.3l0.1 -0.9l3.7 -58.5l4.7 -57.4l2.2 -50.8l4.5 -61.5l4.2 -70.7l2.9 -84.4l-12.1 -0.1l-31 -0.5l-7.2 122.6l-232.6 -46.8l-136.1 -70.2l-112.9 -56l-27.6 1.4l4.4 11.7l-7.7 17.6l-5.7 93.5l-34.6 164.1l30.1 63.2l-10.2 37.8l-4 135.9l6.4 11.8l7.1 13.5l-0.1 33.5l0 5.6l-4.2 30.6l-2.8 25.8l1.1 6.4l2.9 9l1.3 10.5l-5.8 25.9l-7.9 133.4l-1.8 13.8l-42.1 66.3l-8.2 26.1l-3.4 13.5l-0.5 53.9l-0.8 11.1z" />
  </g>
  <g data-id="029">
    <path d="m800.1 4252.7l0 0l-9 34.6l36.6 -0.5l59.5 55.1l35 -9.3l56.7 37.1l2.6 28.1l24.9 19.9l12.1 36.6l20.5 6.9l27.3 24.5l-0.6 20l24.4 -11.5l20.6 19l8.2 -6.3l52.2 -3.4l52.9 -32.5l17.5 12.9l21.8 -26.4l30.6 -3.9l2 -13.3l47 -8.2l6 23l42.4 -35.2l21.2 2.7l8.8 -12.4l32.8 -8.1l19 -16.6l43.7 5.9l44.9 -22.2l80.6 -24.6l0.9 -419.9l-31.5 -0.3l2.4 -150.2l27.7 0.5l0.2 -150.4l-0.3 -232.1l-10.2 12.2l-32.1 -1.3l-15 -27.1l-13.9 16l-24.3 5.4l-13.6 -12.5l-32.3 7.1l-12.5 27.2l-22.6 1.9l-18.8 -26.7l-29.4 -16.3l-7.9 28.2l-20.6 -10.1l-22.9 10.6l-17.9 -10.5l-28 9.1l-10.9 -8.9l-20.7 27.4l-73.4 8l-25.7 24.6l-11.3 2.3l6.7 24.7l-3.6 10.1l-13.3 18.5l-59.6 -4.9l-4.7 0.6l-7.7 -38.4l-12.1 -12.8l-7.2 -5.5l-42.7 -21.1l-81.5 -4.5l-12.5 5.7l11.4 3.3l6.4 12.4l0.4 17.6l-8.3 31.3l-11.6 25.4l1.2 33.8l10.6 16.4l46.2 28.5l16.8 19l37.2 3.3l17.1 15.6l8.2 15.7l4.1 7.8l4.4 17.1l-0.1 40.4l-8.5 23.1l26.3 3l11.5 30.4l13.1 24.1l8.4 1.6l7.8 19l-1.3 10.8l-6.6 14.4l2.5 23.6l3.4 13.3l2.1 8.1l3.7 0.7l6.5 14.7l-2.7 13.4l-19.1 23.6l-62.7 56.8l-32.9 9.1l-32.4 25l-27 20.8l-19 1.4l-16.1 5.2l-37.9 21.3l-17 35.8l-1.9 40.6l-12 8.3l-7 -0.2l-41.2 45.9l-3 12.7l-10.4 20.2l-5.5 5.7l-4.3 1.9z" />
  </g>
  <g data-id="031">
    <path d="m6964.6 1854.9l0 0l-102.2 78.3l155.7 200.6l13.8 -16.5l68 -16.3l13.2 20.9l46.6 22.3l20.5 -6.8l48.8 21.9l-12.6 90.8l782.8 -103.7l74.4 -8.4l-1.9 -4.3l-3.1 -4.1l-8.9 -7.1l-2.8 -6l-0.3 -2.5l3.2 -12.6l2.3 -5.3l8.3 -8.6l6.7 -3.6l3.7 -5.7l1.8 -4.8l-0.3 -1.6l-1.6 -2.5l-9.2 -8.7l-1.3 -4.2l0.7 -7.4l2.7 -9.5l6.6 -16.7l0.1 -2.5l-2.9 -8.3l-9.1 -18.7l-15.7 -21.2l-1.7 -4.6l-4.6 -20l-8.6 -22.5l-1.1 -5.3l3.9 -27.9l-1.6 -32.5l-5.6 -14.6l-1.7 -7.7l0 -4.8l1.7 -6.1l6.6 -44.5l-0 -8.3l-1.8 -7.1l-0.4 -1.8l-3.8 -9.9l-4.5 -4.5l-7.3 -4.4l-3.7 -1.3l-6.2 -8.7l-3.5 -1.8l-7.7 -6.7l-1.1 -4.3l7.3 -32.5l2.3 -14.6l1.2 -13.6l16.3 -35.2l6.3 -23.4l-0.5 -8.6l-2.6 -15l-2.6 -9.6l0 -2.3l5.1 -8.8l4.6 -2.7l6.1 -8.7l1.1 -2.8l3.5 -16.7l1.1 -12.2l4 -6.8l0.2 -1.4l-1.6 -3.4l-0.9 -4.9l0.6 -4l1.3 -3.4l6.9 -6.5l0.9 -3.1l-1.5 -13.8l0.3 -3.2l2.6 -2.5l4 -0.5l1.7 -1l2.2 -7.1l5.8 -4l3 -0.7l3.6 -4.1l2.2 -4.2l11 -7.1l0.7 -3.2l4.5 -10.3l3.3 -5.9l0 -5.9l0.6 -1.3l5 -4.1l1.2 -7.8l9.6 -7.4l-1.2 -6.2l8.2 -2.7l3.5 -2.5l4.5 -5.8l1.5 -0.4l5.9 1.6l1.4 -0.5l4.8 -10l4 -14.5l4 -11.4l0.7 -2l2.3 -15.7l-1.6 -10.2l-5.7 -13.5l-6.9 -24.5l-2.5 -15l-0.4 -16.3l0.9 -10.9l-0.2 -14.9l-1.4 -8.3l-2.3 -8.5l-0.5 -1.8l-9.2 -22.1l-0.4 -13.4l1.7 -13.9l4.1 -6.5l11.9 -11.8l5 -5.9l2.5 -4.5l3.3 -11l2.4 -14l18.3 -45.6l2.8 -16.3l0.1 -1.1l0.2 -4.2l-2 -9.4l-6.2 -15.6l1.8 -16.4l-0.3 -13l-1.2 -9.5l-5.7 -16.1l-0.6 -11.5l-2.3 -14.4l-7.8 -12.3l-8.1 -8.4l-2 -3l-0.7 -5l0.4 -6l-0.1 -0.8l-1.1 -8.8l-2.4 -3.2l-5.8 -2.4l-1.2 -1.3l-1.4 -3.2l-0.4 -5.7l-0.9 -2.9l-9.4 -13.1l-0.4 -2.1l0.8 -4.2l-158.4 16.3l4.6 31.7l-35.6 35.8l-10.5 24l-38.3 -3.5l-35.5 9.7l-20.7 30.5l-56 19.5l-17 -7.2l-50.9 30.2l-39.8 -7.5l-264.3 28.1l-293.1 39.7l24 175.8l36.6 300.5l-238.3 30.1l32.7 265.3z" />
  </g>
  <g data-id="033">
    <path d="m6374.4 31.8l0 0l-4.6 5.7l7.5 74.8l99.2 0.7l23.9 245.4l123 1142.9l-23.8 2.2l11.8 123.7l320.4 -37.5l238.3 -30.1l-36.6 -300.5l-24 -175.8l293.1 -39.7l-29.4 -259.8l-16.4 2.4l-25.6 -238.7l-25.6 2.4l-25.7 -230.1l0.9 -62.9l-4.4 -55.9l-22.7 -164.9l-151.1 7.6l-110.5 -1.2l-127.8 0.4l-154.8 -9.2l-115.7 -3l-142.2 -1.6l-7.4 -3.7l-7.2 1.3l-6.8 1.6l-7 0.6l-22.8 -6.5l-26 9.4z" />
  </g>
  <g data-id="035">
    <path d="m6309.7 3401.3l0 0l12.8 44l4.7 18.2l275.1 107.1l67.7 0.7l495 3.8l-34 -296l-20 -173.7l-106.3 10.1l4.2 46.5l-128.4 11.7l-5.1 -46.8l-263.4 23.5l-225.1 -100.8l21 194.4l-27.9 16.4l11.4 26.8l-31.6 8.8l7.3 32.8l-38.8 10l-18.7 62.7z" />
  </g>
  <g data-id="037">
    <path d="m1640.1 3322.9l0 0l1.3 69.2l0.3 232.1l-0.2 150.4l493.6 -4.7l0 11.1l99.7 -2.2l51.1 3.9l-0.7 -74.4l25.7 1l1.3 -69.6l28.9 0.9l2 -73.8l2.9 -26.1l4.3 -59.2l-59.4 -4.3l54.3 -155.5l2.8 -7.3l-115.6 1l-396.2 2.9l-196 4.6z" />
  </g>
  <g data-id="039">
    <path d="m6608.8 4917.9l0 0l108.3 55l182.3 93.6l45.5 4.6l248.9 25.6l41 -125.9l49.1 12l1.4 -23.3l106.4 82l9.7 2.8l23.2 -68.7l46.9 -40.8l9.4 -66.5l15.9 -20l40.7 -19.8l24.9 -59.3l1.2 -62.6l-15.1 -85.8l23.4 -94l-0.6 -54.7l-9.4 -4.1l-189.1 33.3l-406.1 62.7l12.2 53.2l-18.3 -3.4l-22.1 27l-87.8 13.1l-41.7 -31.1l-81.5 32.3l19.4 10.2l-138 252.4z" />
  </g>
  <g data-id="041">
    <path d="m6307.3 2700.6l0 0l-116.5 255.7l196.2 93.3l225.1 100.8l263.4 -23.5l5.1 46.8l128.4 -11.7l-4.2 -46.5l106.3 -10.1l-25.2 -204.4l-69 -623.3l199.4 -27.7l12.6 -90.8l-48.8 -21.9l-20.5 6.8l-46.6 -22.3l-13.2 -20.9l-68 16.3l-13.8 16.5l-155.7 -200.6l102.2 -78.3l-32.7 -265.3l-320.4 37.5l-144.1 19.2l-150.6 18.9l-108.9 13.2l99.4 1022.1z" />
  </g>
  <g data-id="043">
    <path d="m5746.4 3454.8l0 0l3.9 51.4l10.9 142.1l7.5 103.5l-13.6 1.2l1.9 40.4l89.5 -5.5l49.2 -83.9l184.9 106.9l60.8 37l15.3 -12.3l20 -114.3l146.1 60.5l29 -230.4l-4.2 -4.9l-0.1 -54.2l-20.4 -28.9l-4.7 -18.2l-12.8 -44l18.7 -62.7l38.8 -10l-7.3 -32.8l31.6 -8.8l-11.4 -26.8l27.9 -16.4l-21 -194.4l-196.2 -93.3l116.5 -255.7l-99.4 -1022.1l-263.9 34.7l-135.8 -82l75.9 845l42.5 495.9l-29.4 9.6l-8.4 20.2l-16.9 15.5l-35.6 -0.9l-18.2 81.1l50.2 30.2l67.7 23.8l-116 195.2l-23.7 34.7l-3.4 33.7l-32.2 18.8l-14.3 20.8z" />
  </g>
  <g data-id="045">
    <path d="m4285.9 2021.8l0 0l16.1 3.9l33.8 -10.5l33.9 -47.1l7.8 -21.7l-22.9 -0.4l-34.6 30.1l-34.1 45.7z" />
    <path d="m4276.2 1718.9l0 0l-2.5 17.2l9.8 10.2l17.5 -2.6l51.2 3.1l17.2 10.4l7.3 20.8l6.8 8.7l18.4 -1.2l15.5 14.1l1.2 24.4l-13.4 26l-5.5 17.2l14.7 3.3l22.1 -9.6l59.1 -16l9.6 13l38.8 16.2l28.2 30.4l13.4 12l10.7 31.3l0.8 22.8l0.4 10.3l-23 16.2l-9.7 -3.2l-62.6 48.4l-22.5 -2.7l14.6 -45.8l-6.1 -17l-18.3 23.9l-40.5 8.4l-32.5 24.2l-13.6 19.3l-2.9 32.6l81 55.3l7.3 5l20.3 88.7l9.8 60.9l6.2 67.4l225.8 21.1l-3.9 -68l316.9 31.7l-15.4 -174.1l-80.7 -6.2l12.6 -161.5l104.2 9.1l195.4 -162.6l33.5 10.7l43.4 -4.4l-9 -71l60.9 -2.4l-0.2 -47l11 -18.6l-11.9 -7.8l23 -40.3l-77.6 -50.7l15.7 -25.6l110.5 -176.6l-80.5 -51.6l-443.1 -276.5l-14.5 14.9l-52.5 47.4l-11.7 4.3l-9.1 10.8l-12.9 7.4l-12.5 11.1l-26.1 11.1l-3.6 -1.4l-2.3 -4.5l-4.4 -1.3l-5.2 -0.9l-23.5 -0.2l-9.3 6.5l-46.6 21.5l-65.9 56.9l-18.4 2.7l-7.8 5.6l-10.7 0.5l-5.5 -3.6l-39.1 28l-3.1 72.7l-34.2 32.4l-19.5 11.8l-49 19.2l-5.3 -0.9l-46.7 0.7l-33 8.3l-50.3 109l-4.1 7l-19 57.7l12.5 22.6l-1.3 26.3l-10.4 36.4l-14.3 8.7z" />
    <path d="m4184.7 1994.1l0 0l15 13.5l27.1 -19.7l40.3 -24.6l13.5 -22.9l-43.2 -7.9l-52.6 61.6z" />
  </g>
  <g data-id="047">
    <path d="m7236.5 7570.3l0 0l-1.7 6.9l3.6 19.9l3.8 6.4l0.5 0.8l4.2 7l29.5 11.4l1.1 0.4l6.8 2.6l3.5 19.4l-2.1 2.3l-12.5 13.6l26.2 7l15.2 -1.9l17.2 -2.1l8 -1l8.9 -1.1l13.4 -1.7l4.6 -0.6l8.3 -1l-2.3 11.2l61.1 -7.5l44.5 -24.8l19.5 -30.9l1.8 -35.1l-19.3 -25.4l-8.5 0.7l-3.3 -47.6l-4.7 -5.6l-0.5 -2.7l-2.1 -4.6l-0.6 -2.9l-2.8 -1.3l-3.4 -21.2l-13.8 5.9l-21.4 14.5l-15.5 -26.5l-6.6 -10.8l-11 -19.6l-0.5 -0.9l-1.5 -2.5l0.1 -2.5l-4.6 -10.8l-1.8 -2.1l-3.3 -1.2l-27.9 -18.3l-10.8 4.4l0.4 7.3l-0.6 16.2l-3.7 6.3l-1.2 1.7l-7.9 14.2l-8.2 6l-19.3 2.4l-8.2 23.7l-9.4 6.9l-8.7 6.5l-8.6 2.7l2 2.9l2.8 32.9l-10 12l-1.3 1.6l-2.7 3.2l-3.4 4.1l-1.8 3.6l-0.3 0.6l-0.6 1.2l-0.2 0.4l-0.6 1.2l-0.7 1.4l-0.5 0.9l-3.1 6.2l-3.4 13.5z" />
  </g>
  <g data-id="049">
    <path d="m4960.3 2005.6l0 0l-12.6 161.5l80.7 6.2l15.4 174.1l9.8 111.6l13.4 269.9l281.7 88.2l178.5 -114.9l211.4 -133.4l145.6 -92.6l-75.9 -845l-115.1 -69l-192.5 -118.6l-41.5 -25.2l-110.5 176.6l-15.7 25.6l77.6 50.7l-23 40.3l11.9 7.8l-11 18.6l0.2 47l-60.9 2.4l9 71l-43.4 4.4l-33.5 -10.7l-195.4 162.6l-104.2 -9.1z" />
  </g>
  <g data-id="051">
    <path d="m2168.2 4307.5l0 0l-16 43.1l22.8 -4l5.4 23.4l-6.5 5.2l111.9 0.2l144.5 1l0.6 74.1l148.3 5.8l3 -109.5l75 -0l1.8 -77.9l213.8 5.4l1.2 -118.7l3.8 -41.2l-141.6 -2.9l-16.3 -157l29.7 0.4l0.3 -157l45.6 -0.1l7.2 -20.4l-26.6 -121.6l-16.6 -13.2l-72.3 6.9l-153.7 -0.9l33.7 -8.3l14.7 -58.6l-12.9 -15.9l-226.3 1.1l-2 73.8l-28.9 -0.9l-1.3 69.6l-25.7 -1l0.7 74.4l-1.7 336.7l-15.7 7.8l-27.4 82.4l-31.6 9.3l11.7 18.3l-21.1 23.9l-32.1 9.6l18.4 19.4l-18.1 17.3z" />
  </g>
  <g data-id="053">
    <path d="m4771.4 3225.4l0 0l-4.4 2.6l28 49.8l5 34.4l21.5 3.9l-7.3 30.2l-12.1 -7.6l-13.7 28.6l1.3 21l30.4 6.3l40 -4.3l2.8 6.2l8.8 167.5l18.4 342.6l7.9 115.6l583.3 -37.2l0.9 12.6l167.1 -10.3l20 -18l8.7 -30.9l27.5 -20.8l-2.3 -19.2l17.3 -66.4l-8.9 -17.7l-1.2 -34.8l3.4 -6.8l-4 -5.1l-239.3 14.3l-8.9 -120.5l-15.6 0.4l-109.2 1.9l-10.3 -153.2l-2.3 -29.7l-55.8 3.7l-3.3 -45l-52.9 -33.3l2.4 -26l-17.3 -32l-21 -1.9l-10.7 -20.3l-36.9 -19.2l0.2 -23.4l-21.2 -19.3l-36.2 6.7l-20.6 -19.4l-36.9 18.9l-53.2 -2.6l-35.6 24l-20.5 -15.4l-52 -10.7l-9.8 -26l-71.8 -14.2z" />
  </g>
  <g data-id="055">
    <path d="m2232.8 3165.3l0 0l-0.5 150.1l115.6 -1l-2.8 7.3l-54.3 155.5l59.4 4.3l-4.3 59.2l-2.9 26.1l226.3 -1.1l12.9 15.9l-14.7 58.6l-33.7 8.3l153.7 0.9l72.3 -6.9l123.8 1.4l-3.7 -158l144.1 -0.2l-4.5 -280.2l-1.3 -141.1l-18.9 2.2l-29.7 12.3l-28.2 6.2l-50.4 19.4l-30.7 7.2l-42.1 27.4l-0.1 -0l-21.2 -2.1l-33.1 -13l-31.5 -23.8l-25.3 -19.1l-7.8 -5.9l-32.2 -14.2l-8.3 -6.1l-51.9 -43.9l-16.1 -26.6l-20.9 -11.5l-33.3 -12.5l-4.2 -6.6l-31.5 3.3l-15.5 -1l-14.5 -3.9l-9.7 -2.6l-74.4 -10.6l-37.3 -12.7l-22.6 0l-38.2 -11.3l-15.6 -8l-14.2 -1.9l-23.3 6.8l-1 -0.1l-0.1 139.7l-1.1 52.5l-0.5 61.2z" />
  </g>
  <g data-id="057">
    <path d="m6322.9 3781.9l0 0l15.3 6.2l130.2 51.9l108.6 28.7l136.1 68.8l55.1 -6.1l154.2 -12.6l33.1 -21.9l8.7 -26.5l217 -146.6l-0 -13l-10.3 -88.9l-5 -40.6l-0.7 -6.1l-495 -3.8l-67.7 -0.7l-275.1 -107.1l20.4 28.9l0.1 54.2l4.2 4.9l-29 230.4z" />
  </g>
  <g data-id="059">
    <path d="m7581.5 7283.5l0 0l-1.1 1l23.8 29.6l61.6 50.1l1.3 15.5l0.7 6.3l-9.6 19.4l-21.6 5.8l-7.1 3.6l1.5 5l2.8 14.1l1.4 45.9l-2.8 29.8l4.1 19.8l-9.3 5.6l-5.7 1.7l-4.1 23.3l-4.2 -4.8l-6 5.7l-24.6 13.4l-1.7 3.8l2.6 15.6l15.2 7.7l11.5 -2.3l10.7 31.3l-16.7 5.7l9.7 4.5l128.7 6.6l38 -8.1l46.1 5.5l5.5 0.7l13.9 3.3l65.5 -19l28.4 -7.4l77.3 -20l-1.9 -69.9l1.9 -6.9l-5 -67.2l-0.3 -2.1l-3.8 -25.4l-0.9 -8.7l-0.4 -3l-1 -6.3l-3.9 -26.6l-3.2 -19.8l-7.1 -50.6l-1.3 -6.6l-21.7 -135.7l-17.5 -17.4l-1.6 -37l-25 -39.4l-3.6 7.8l-19 8.9l-5.4 -2.5l-36.4 9.4l-22.9 -11.9l-4.8 0.7l-31.9 13.6l-8.5 7.5l-19.9 8.2l-11.9 -2.5l-8.6 2l-9.2 9.4l-16.8 24.1l-1.9 23.9l-18.7 8.7l-6.2 2.9l-48.2 -21.9l-20.1 6l-1.4 1.8l5.1 14.4l-2 6.5l-33 43.6l0.5 9.9l-18 33.7z" />
  </g>
  <g data-id="061">
    <path d="m7228.6 7467.7l0 0l1.4 2.1l2.2 1.2l24 7.3l4.3 6.2l8.6 -2.7l8.7 -6.5l9.4 -6.9l8.2 -23.7l19.3 -2.4l8.2 -6l7.9 -14.2l1.2 -1.7l3.7 -6.3l0.6 -16.2l-0.4 -7.3l1.4 -10l1.5 -2.9l31.5 -43.4l1.2 -12.7l7.8 2l9.2 -8.1l4.8 -4.1l6 -19.9l-1.5 -1.2l-18.5 -11.8l-4.5 -6.7l-1 -6.1l0.4 -13.3l-0.9 -14.5l0.1 -12.6l7.2 -18.2l7.7 -13.6l2.4 -4.7l10.7 -15.1l4.9 -11.6l-2 -7.1l-2.2 -2.2l-6.2 5.8l-23 -10.9l-5.9 12.3l-0.1 0.2l-12.8 27.1l-7.2 17.4l-11.6 35.3l-6.1 10.1l-0 0l-0.1 0.2l-2.5 4.6l-1.5 2.7l-15.9 29.2l-1.1 2l-4.2 7.8l-7.3 13.4l-9.6 17.6l-1.1 2.1l-7.6 13.9l-1.1 2.1l-0.8 1.7l-5 10l-4 20.9l-3.6 19l-1.6 8.6l-0.1 0.3l-0.5 3.3l-3.9 26.7l-20.6 15.5l-8.1 16z" />
  </g>
  <g data-id="063">
    <path d="m869.6 3401.7l0 0l0.3 9.2l69.4 20l12.5 -5.7l81.5 4.5l42.7 21.1l7.2 5.5l12.1 12.8l7.7 38.4l4.7 -0.6l59.6 4.9l13.3 -18.5l3.6 -10.1l-6.7 -24.7l11.3 -2.3l25.7 -24.6l73.4 -8l20.7 -27.4l10.9 8.9l28 -9.1l17.9 10.5l22.9 -10.6l20.6 10.1l7.9 -28.2l29.4 16.3l18.8 26.7l22.6 -1.9l12.5 -27.2l32.3 -7.1l13.6 12.5l24.3 -5.4l13.9 -16l15 27.1l32.1 1.3l10.2 -12.2l-1.3 -69.2l6.4 -151.9l-7.6 -150.3l1.2 -119.1l-9.6 0.7l-11.9 -6.3l-8 -0.6l-74 9.1l-110 20.7l-79.1 28.5l-63.6 11.7l-38.7 13l-71.2 16.5l-2.8 -1.6l-29.2 13l-90.3 30.8l-52 20.9l-60.7 13.1l-64 19.5l11.5 19.3l7 22.2l3.8 28.6l-0.1 6.3l-0.2 15.1l3 21.3l-2.3 23.9l-0.6 17.3l5.8 15.6l2.4 4l2.5 15.8l2.2 7.1l0.6 9.5l-2.2 9.7l-6.8 5.2l-3.3 5.1l-5.9 9.1l-4.3 3.6l-2.9 8l0.7 8.4l0.7 7.4l1.4 10.4l-5.7 20.6l-6.2 8.4l-6.3 9z" />
  </g>
  <g data-id="065">
    <path d="m4901.9 2982l0 0l30.1 10l-27 284.2l20.5 15.4l35.6 -24l53.2 2.6l36.9 -18.9l20.6 19.4l36.2 -6.7l21.2 19.3l-0.2 23.4l36.9 19.2l10.7 20.3l21 1.9l17.3 32l-2.4 26l52.9 33.3l3.3 45l55.8 -3.7l2.3 29.7l10.3 153.2l109.2 -1.9l15.6 -0.4l8.9 120.5l239.3 -14.3l7 -10.2l38.3 -4.2l13.6 -1.2l-7.5 -103.5l-10.9 -142.1l-3.9 -51.4l14.3 -20.8l32.2 -18.8l3.4 -33.7l23.7 -34.7l116 -195.2l-67.7 -23.8l-50.2 -30.2l18.2 -81.1l35.6 0.9l16.9 -15.5l8.4 -20.2l29.4 -9.6l-42.5 -495.9l-145.6 92.6l-211.4 133.4l-178.5 114.9l-281.7 -88.2l-73.9 -23l-91.2 276z" />
  </g>
  <g data-id="067">
    <path d="m4129 3367.9l0 0l7.4 169.1l36.6 -2.3l7 132.7l8.9 144.7l118.2 -6.4l64.8 62.3l38.5 56.7l0.9 15.9l99.6 -6l379.3 -28l-18.4 -342.6l-8.8 -167.5l-2.8 -6.2l-40 4.3l-30.4 -6.3l-1.3 -21l13.7 -28.6l12.1 7.6l7.3 -30.2l-21.5 -3.9l-5 -34.4l-28 -49.8l-15 7l-51.8 -39.6l-40.8 4.8l-7.7 -25l20.8 2l-58.5 -34.5l-54.8 -18.6l-56.8 -49.1l-10.4 5.3l0.3 42.5l20.7 46.8l-38.2 21l-25.6 -16.7l-18.1 -39.8l-21 -2.3l17.1 35.2l-24 30.2l-32.1 -51l-48.3 -3.9l-170.2 8.9l7.8 141.4l-16.6 6.6l18.1 60.9l-32.8 7.6z" />
  </g>
  <g data-id="069">
    <path d="m2720.1 3954.4l0 0l16.3 157l141.6 2.9l-3.8 41.2l-1.2 118.7l44.6 0.7l112.7 0.9l-0.6 -135.3l-0.1 -22l17.1 -55.2l20.2 -56.3l29.3 -45.6l1.8 -3.7l240.1 -3.6l192 -1.5l-8.2 -15.5l5.6 -104.3l-9.1 -40.2l2.7 -20.7l19.2 -6.7l-0.7 -242.3l-214.4 1.2l-1.2 -47.4l-140.9 0.2l-1.4 8.8l-157.7 -0.1l-144.1 0.2l3.7 158l-123.8 -1.4l16.6 13.2l26.6 121.6l-7.2 20.4l-45.6 0.1l-0.3 157l-29.7 -0.4z" />
  </g>
  <g data-id="071">
    <path d="m6324 6194.2l0 0l9.8 41.4l0.4 -0.3l4.7 -4.8l8.7 -4.5l3.7 -0.9l3.1 0.9l2.2 2.4l1.5 3l0.8 2.8l0.2 5.3l-5 15.6l-3 3.5l-0.8 6l1 4.7l3 6.6l3.1 4.7l3.1 2.4l4.1 2.2l12 1.6l6.2 3.6l3.2 4.7l3.8 13l2.4 5.4l6.5 6.4l10.5 7.9l4.9 5.2l2 5.9l-0.3 3.9l-1.7 2.1l-6.7 5.1l1.9 -0.1l67.5 41.4l43.3 25.4l136.3 84.9l53.1 32.2l99.5 66l14.7 8.9l58.6 35.8l24 16.5l27.7 16.2l57.7 33.7l0.1 0.1l91.8 -89l79.6 -75.7l37.1 -35.3l111.5 -105.9l25.5 -40.2l17.7 -77.9l-15 -9.6l-28.3 -64.9l-22.9 -27.2l1.7 -43.2l0.8 -11.1l0.5 -53.9l3.4 -13.5l8.2 -26.1l42.1 -66.3l1.8 -13.8l-106 13.4l-20.9 2.4l-18.2 -42.9l-27.6 12.5l-11.1 -14.6l-45.4 -14.3l10.3 56.1l-77.3 -13.9l-81.1 -24.7l1.8 -40.5l-17.8 -5.6l-51.1 29.4l-45.5 35.3l-33.4 5.7l-52.1 26.7l-14 16.1l-44.5 54.5l-26.7 49.6l-68.5 2.7l-281.6 14.6l-10.8 5.2l12.7 45.5l-14.7 23.9z" />
  </g>
  <g data-id="073">
    <path d="m1640.1 2901.6l0 0l-1.2 119.1l7.6 150.3l-6.4 151.9l196 -4.6l396.2 -2.9l0.5 -150.1l0.5 -61.2l1.1 -52.5l0.1 -139.7l-35.4 -2.2l-102.3 -15.8l-51.5 0.2l-111.8 11.2l-21.5 -3.1l-136.7 -5.4l-14.6 -4.4l-120.5 9.2z" />
  </g>
  <g data-id="075">
    <path d="m3990.7 2810.9l0 0l-12.7 7.4l15.1 284.5l5.5 3.1l151.3 -5l2.4 50.6l170.2 -8.9l48.3 3.9l32.1 51l24 -30.2l-17.1 -35.2l21 2.3l18.1 39.8l25.6 16.7l38.2 -21l-20.7 -46.8l-0.3 -42.5l10.4 -5.3l56.8 49.1l54.8 18.6l58.5 34.5l-20.8 -2l7.7 25l40.8 -4.8l51.8 39.6l15 -7l4.4 -2.6l71.8 14.2l9.8 26l52 10.7l27 -284.2l-30.1 -10l91.2 -276l73.9 23l-13.4 -269.9l-9.8 -111.6l-316.9 -31.7l3.9 68l-225.8 -21.1l4.9 53.3l-3.2 86.2l-5.5 44.5l-8.1 25.9l-10.3 26.1l-13.6 21.2l-9 6.5l-30.4 7.9l-47.1 20.7l-42.8 1.6l-18.4 -2.5l-29.5 -21.6l-2.6 0.2l-50.2 4.4l-8.8 3.3l-25.2 21.1l-44.3 28.7l-18.3 30.4l-25.2 10.8l-11.4 -3.5l-7.7 4.4l-12.4 14.5l-7 3.7l-32.2 16.8l-56 43.8z" />
  </g>
  <g data-id="077">
    <path d="m5519.7 4687.8l0 0l-21.5 37.5l47.8 -13.7l45.8 12.6l43.1 -11.1l18.5 -31.1l29.9 -20.2l9.5 -26.3l25.6 2.7l30 -4l33.7 -21.3l-7.9 36.8l131.3 -106.7l43.4 -17.1l49.6 2.7l2.4 -43.2l32.3 23.6l30 -47.9l157.6 -75.7l83.9 10.7l6.2 2l36.5 -18.4l41.1 -3.3l49.5 -80.1l52.9 -106.9l-5.1 -36.3l-41.6 -177.1l2.7 -70.9l21.6 -65l-130.2 -51.9l-15.3 -6.2l-146.1 -60.5l-20 114.3l-15.3 12.3l-60.8 -37l-184.9 -106.9l-49.2 83.9l-89.5 5.5l-1.9 -40.4l-38.3 4.2l-7 10.2l4 5.1l-3.4 6.8l1.2 34.8l8.9 17.7l-17.3 66.4l2.3 19.2l-27.5 20.8l-8.7 30.9l-20 18l-0.8 43.8l-21.2 49.8l-21.6 26.8l6.3 47.7l3 40l-17.9 16.9l13.3 61l-13.3 26.6l-37.8 16.8l-27.9 70.9l-18.1 4.3l10.6 37.2l-11.8 13.5l6.7 31l16.3 27.6l14.7 49.7l-22.7 25.8l-17.8 34.5l15.7 47l-5.1 29.6z" />
  </g>
  <g data-id="079">
    <path d="m7311.9 6404.7l0 0l-1.5 5.1l112.7 -15.5l39.8 -5.7l81.7 -10.8l22.1 -3.1l152 -21.2l145.6 -19l1.6 -17.3l0 -0.2l2.8 -49.3l4.4 -47.1l0.3 -3.3l0.6 -8.8l1.1 -17.3l0.1 -2.9l0.1 -3.7l0 -0.8l0.1 -2.4l0.6 -10.7l1.2 -20.9l0.1 -0.8l0 -0.9l0.2 -1.9l0.1 -1.5l0.1 -1.2l4.9 -80.2l-62.9 1.2l-85.8 13.8l-32.4 6.1l-24.5 4.1l-305 40.5l-60.3 83.3l28.3 64.9l15 9.6l-17.7 77.9l-25.5 40.2z" />
  </g>
  <g data-id="081">
    <path d="m7337.2 7380.4l0 0l-1.4 10l10.8 -4.4l27.9 18.3l3.3 1.2l1.8 2.1l4.6 10.8l-0.1 2.5l1.5 2.5l0.5 0.9l11 19.6l6.6 10.8l15.5 26.5l21.4 -14.5l13.8 -5.9l3.4 21.2l2.8 1.3l0.6 2.9l2.1 4.6l0.5 2.7l4.7 5.6l3.3 47.6l8.5 -0.7l19.3 25.4l-1.8 35.1l-19.5 30.9l-44.5 24.8l-61.1 7.5l-0.8 4.1l-8.3 39.8l44.8 -22.5l89.5 -34.6l75.2 -22.6l22.8 -1.8l8.2 3.9l16.7 -5.7l-10.7 -31.3l-11.5 2.3l-15.2 -7.7l-2.6 -15.6l1.7 -3.8l24.6 -13.4l6 -5.7l4.2 4.8l4.1 -23.3l5.7 -1.7l9.3 -5.6l-4.1 -19.8l2.8 -29.8l-1.4 -45.9l-2.8 -14.1l-1.5 -5l7.1 -3.6l21.6 -5.8l9.6 -19.4l-0.7 -6.3l-1.3 -15.5l-61.6 -50.1l-23.8 -29.6l-8.7 8.2l-6.8 0.6l-6.4 -10.9l-9 1.8l-22.4 -8.4l-20.6 2.4l-24.1 4.9l-20.6 5.6l-10.1 14.4l-0.8 3.8l-17.3 0.2l-8.7 -6.2l-25.6 -9.5l-6 19.9l-4.8 4.1l-9.2 8.1l-7.8 -2l-1.2 12.7l-31.5 43.4l-1.5 2.9z" />
  </g>
  <g data-id="083">
    <path d="m7559.6 4428.8l0 0l2.3 39.4l83.1 -11.2l462.3 -67.3l110.8 -405.6l-14.5 -0.1l-18.4 -96.3l5.8 -10.5l3.3 -10l-4.2 -10.8l2.1 -24.1l1.4 -1.5l7.1 2.7l0.2 -7.2l3.4 -103l1.5 -64.2l0.2 -10.2l0.1 -3.7l0.1 -2l-133.6 -0.7l-15.4 -14.8l-51.9 -9.8l-22.1 23.6l-84.4 2.1l-135.6 3.7l-13.8 -0.1l-19.2 5.2l-12.4 9.9l-23.3 35l-6 19l-1.1 14.6l14.3 30.7l-3.4 28.5l20.5 68.3l-2.1 27.6l-13.9 12.4l-5.6 21.6l-8.9 28.6l-1.4 16.7l-23.4 80.5l-0.2 8.1l-3.8 19.8l-21.2 36.5l-2.2 4.6l-21.2 27.2l-22.5 69.1l-0.2 0.7l9.6 81.1l-14.7 78l-11.9 20.2l-15.7 38z" />
  </g>
  <g data-id="085">
    <path d="m6961.3 7774.7l0 0l-2.6 6.3l9.8 7.2l7.8 3.3l17 -8.6l17 -2.2l11.8 -11.4l13.3 -3.8l22.5 -14.8l14.9 -3.6l19 -12.5l13.5 -7.9l0.3 -0.2l9.1 8.5l12.6 -13.4l18.6 -15.8l33.7 -37.7l29.9 -33.2l3.3 -6.4l8.3 -16l-12.2 -20.4l-0.5 -1.1l-5.6 -12.1l-2.7 -28.9l-7.8 -11.5l-13.8 -5.8l-8.8 5.6l-20.5 0.4l-23 6.8l-19.1 2.9l-23 -3.5l-0.1 -0l-11.5 -1.7l-13.6 -2l-8 3.1l-11.9 14.8l-4.2 5.2l-2.3 2.8l-1.6 9.7l1.3 14.2l-1.7 16.6l5.5 11.2l-5.4 12l-4.8 16.6l-5 21.1l-6.8 19l-0 0l-13.4 1l-14.9 7.1l-12.6 14.5l0.5 20l3 14.4l-6.6 11.5l-8.7 18.7z" />
  </g>
  <g data-id="087">
    <path d="m6992 6710.5l0 0l29.1 15.8l20.3 11l16.4 8.9l108.3 63.4l5.4 3.2l65.1 38.3l0 0l103.9 61.6l59.5 35.3l6.1 4.7l2.6 1.5l2.9 0.5l11 0.2l0.5 -13.6l5.3 -54.2l-6.8 -55.7l1.3 -37.8l7.8 -59.6l-6.2 -36.6l-21.2 -23.2l-15.7 -36.8l-12.4 -31.4l-20.8 -30.4l-28.9 -41.7l4.9 -32.5l25.7 -40.1l-22.6 -14.6l-22.9 -37l1.5 -5.1l-111.5 105.9l-37.1 35.3l-79.6 75.7l-91.8 89z" />
  </g>
  <g data-id="089">
    <path d="m4985.3 1039l0 0l-49.6 51.3l443.1 276.5l80.5 51.6l41.5 25.2l192.5 118.6l115.1 69l135.8 82l263.9 -34.7l108.9 -13.2l150.6 -18.9l144.1 -19.2l-11.8 -123.7l23.8 -2.2l-123 -1142.9l-23.9 -245.4l-99.2 -0.7l-7.5 -74.8l-6.4 7.9l-16.9 -0.3l-19.7 -7.8l-10.8 -16l-30.9 -1.3l-8 -8l-7.6 -3.3l-9.9 -4.5l-8.1 1.2l-8.8 -5.3l-10.2 2.1l-14.6 7.9l-10.5 8.8l-9.5 4.7l-8.5 2.7l-10.8 -0.2l-13.4 2.4l-16.3 13l-9.1 16.8l-39.8 -1.9l-9.2 -0.4l-32.6 2.3l-25.7 10.6l-8.2 10.4l-0.5 10.2l-7 13.4l-27.8 21.2l-41.5 21.4l-7.9 7.9l-38.5 5.6l-10.8 10.5l-18.5 6l-18 10.7l-11.4 20.7l-28 12.3l-29.3 18l-10 3.3l-8.6 6.8l-19.7 3.6l-12.8 13.6l-16 1.7l-18 16.6l-16.1 4.5l-18.8 10.6l-31 22l1.4 19l-34.5 35.2l-16.2 1.5l-25.1 28.7l-7.6 11.3l-19 5.5l-12.2 11.7l-21.3 8.2l-12.7 22.4l-67.9 64.3l-35.7 27l-94.9 100.6l-47.4 51.3l-55.7 49.2l-43.3 43.2l-38.5 44l-49.6 47.8l-52.6 78.4l-16.5 69.8z" />
  </g>
  <g data-id="091">
    <path d="m7085.9 2901.1l0 0l25.2 204.4l20 173.7l34 296l0.7 6.1l5 40.6l47.5 4.5l63 34.2l63.5 62.5l64.6 -23.9l10.7 103.7l17.9 0.3l7.5 28.6l67.9 93.1l16.2 2.4l37.2 -22.9l14.2 10.9l40.2 -57.9l18.1 -2.1l3.5 33.4l11.6 12.4l25.8 32.1l17.1 -13.4l5.6 -21.6l13.9 -12.4l2.1 -27.6l-20.5 -68.3l3.4 -28.5l-14.3 -30.7l1.1 -14.6l6 -19l23.3 -35l12.4 -9.9l19.2 -5.2l5.1 -49.2l26.7 -20.1l16.7 -45.4l14.3 -72.9l9.7 -10.5l3.2 -89.7l-2 -19.8l-17.1 -26.5l13.4 -32.3l-12.2 -30.5l11.3 -23l-6.1 -16.3l8.1 -27.4l-22.5 -61.7l10.2 -33.4l-14.7 -8.4l15 -55.7l-7.8 -9.7l-60.5 3.4l-10 25.4l-26.1 -6.2l-4.9 14l17.8 21.2l-24.9 9.6l-5.3 -23.5l-26.1 3.4l-40.4 20.1l-8.2 42.8l-24.7 30.1l-7 5.3l-26.1 -38.3l-17.2 -10.2l-38.1 1.8l-2.7 -28.7l12 -17.8l0.3 -50.8l-14 -2.2l-27.9 -41.2l7.2 -12.9l-27.9 -47.6l5.6 -12.9l-15.8 -44.4l-349.9 46.1z" />
  </g>
  <g data-id="093">
    <path d="m6925.4 3965.6l0 0l-23.2 16l41.8 57l41 -8l70.3 11.1l5 -30.1l93.3 -15.9l218.5 -37l34.1 -4.7l120.4 -19.5l2.9 -7.1l-16.2 -2.4l-67.9 -93.1l-7.5 -28.6l-17.9 -0.3l-10.7 -103.7l-64.6 23.9l-63.5 -62.5l-63 -34.2l-47.5 -4.5l10.3 88.9l0 13l-217 146.6l-8.7 26.5l19.3 20.6l-13.6 47.3l-35.7 0.8z" />
  </g>
  <g data-id="095">
    <path d="m6437.8 4296.2l0 0l-49.5 80.1l117.2 160.2l221.8 118.8l81.5 -32.3l41.7 31.1l87.8 -13.1l22.1 -27l18.3 3.4l-12.2 -53.2l-11.6 1.9l-1.8 -21.8l25.8 -86.4l20.2 -41.4l3.6 -54.9l-11.1 -19.6l-9 -22.3l9.6 -42.7l51.2 -74.4l30.1 -83.3l6.4 -85.7l-19.7 -22l-5 30.1l-70.3 -11.1l-41 8l-41.8 -57l23.2 -16l35.7 -0.8l13.6 -47.3l-19.3 -20.6l-33.1 21.9l-154.2 12.6l-55.1 6.1l-136.1 -68.8l-108.6 -28.7l-21.6 65l-2.7 70.9l41.6 177.1l5.1 36.3l-52.9 106.9z" />
  </g>
  <g data-id="097">
    <path d="m3358.2 4434.7l0 0l9.5 362l31.5 -5.3l138.8 -5.2l0.3 -15.3l154.1 -10.8l137.9 0.1l1.6 78.1l59.3 -0.5l0.2 18.3l47.5 -0.8l7.4 7.5l28.7 -25.5l0.3 -58.4l-91.2 -2.5l1.1 -152.1l6.1 -3.2l-13.8 -294.4l-251.6 9l-6.6 81.9l14 52.8l-93.8 6.6l-30.3 -6.9l-1.8 -37l-149.1 1.8z" />
  </g>
  <g data-id="099">
    <path d="m3520.9 3771.8l0 0l-2.7 20.7l9.1 40.2l-5.6 104.3l8.2 15.5l30.3 -0.4l0.9 25.3l14.4 58.7l48.4 89.4l3.9 145.9l-1.9 64l251.6 -9l140 -5.4l-40.8 -28.7l-34.3 -43l-26.8 -54.6l-23.7 -80.5l-55.2 -73.3l-10.8 -70.6l-3.2 -61.2l28.9 -85.2l-5.1 -53.1l-15.5 -42.6l-7.5 -104l32.3 -120.3l-316.4 18.8l0.7 242.3l-19.2 6.7z" />
  </g>
  <g data-id="101">
    <path d="m2555.8 4933.6l0 0l-10.6 329.7l177 -1.3l132.5 -0.9l61.6 0.1l419.8 1l77.2 -1.8l70.9 -0.7l0.1 0l52.9 -0.8l0.4 -337.3l0.4 -135.5l-138.8 5.2l-31.5 5.3l-9.5 -362l-0.5 -37.7l-24.9 14.6l-28.1 -4.8l-0.1 -92.3l7.3 -39.5l-125.2 0.9l-156.5 0l-112.7 -0.9l-44.6 -0.7l-213.8 -5.4l-1.8 77.9l-75 0l-3 109.5l-10.2 115.3l-7.3 209.5l-6 152.6z" />
  </g>
  <g data-id="103">
    <path d="m9773.9 6521.2l0 0l-2.4 9.5l43.5 -5.2l9.8 -6l20 -14.4l20.7 -10l20.7 -9l13.9 -7.2l10.7 -16.1l-21.2 5.8l-11.8 2.7l-34.4 8.1l-14 -1.8l-19.9 13.2l-15.2 -1.1l-5.7 5.3l-7.6 13.3l-7 12.8z" />
    <path d="m9637.3 6786.1l0 0l1.3 5.8l3.4 3.2l23.6 -1.2l17.9 7.2l4.1 4l7.6 17.9l-0.1 35.2l1.9 1.4l11 -7.2l7.3 -59.8l-3.8 -12.7l-53.8 -22.9l-2.1 11.8l-4.9 6.3l-10.8 6l-2.8 5.1z" />
    <path d="m9547.3 6643.4l0 0l-3 21l21 16.5l15 -15l7.5 -15l26.6 -17.4l3.5 -14.2l-39.1 6l-31.6 18z" />
    <path d="m7925.1 7078.4l0 0l-0.5 1.1l25 39.4l1.6 37l17.5 17.4l21.7 135.7l1.3 6.6l7.1 50.6l3.2 19.8l3.9 26.6l1 6.3l0.4 3l0.9 8.7l3.8 25.4l0.3 2.1l5 67.2l-1.9 6.9l1.9 69.9l8.2 -2.1l83.3 -32.3l31.9 -4.3l25.1 20.6l53 -1.1l3 -0.1l29 -6l38.8 -9.6l79.9 -24.3l114.2 -34.8l53.7 -22.1l113 -56.1l63.7 -27.5l12.3 -5.3l120.2 -47.8l13.9 -4.6l5.1 1.3l10 -5.9l21.7 -7.7l195.6 -69.4l130.8 -49.3l93.8 -40l355.9 -176.5l107.6 -46.6l118.5 -57.5l40.4 -10l37.7 -20.3l22.4 -30.7l-1.6 -5l-8.8 -5.6l-6.4 3.1l-25.3 -1.1l-7.5 -2.8l-4.8 -5.8l-25.5 0.5l-23.9 5.2l-27 10.4l-2.5 12.1l1.5 7l-0.9 9.4l-7.5 10.9l-40.8 13.6l-19.9 19l-26.3 12.7l-14.8 -3l-5.6 3.5l0.5 8l2.6 10.1l-2.6 5.5l-4.6 2l-2.4 0.6l-1.1 0.2l-4.4 -7.8l-18.6 0.6l-3.8 4.5l-0.9 5l-3.9 11.7l-15.7 8.6l-8.5 -0.3l-8.7 -4.3l-9.3 -9.6l-26.6 -40.4l2.9 -12.4l-2.7 -14.1l-20.9 -20.4l-8.2 -3.3l-3.2 1.1l-15.2 11.8l-5.8 12.9l-4.8 4.7l-9.2 5.1l-14.3 0.5l-19.8 -14l-15 -6.3l-15 -0.7l-24.4 4.5l-16.6 -15.9l-11.9 -27.4l8.1 -14.8l-4.6 -6.2l-21.9 -1.1l-24.7 -12.8l-22.7 -30.6l-0 -8.8l-0.1 -13.6l10.9 -20l10.7 -8.4l6.8 -2.4l8 1.2l8 9.7l-0.4 33.2l44.6 -27.2l14.6 -14.5l20 -32.4l-0.6 -5.1l-9 -2.9l-28.8 11.9l-6.2 -1.5l-7.3 -6.2l-15.6 4.8l-27.4 13.2l-22.5 1.6l-29.8 11.9l-61.3 72.2l-19.4 15.1l-34.5 3.1l-19.7 32.1l-20.9 24.8l-56 24.4l-35.8 29.9l-14.1 7.4l-5.6 10l-25.2 20l-63.5 26.2l-35.6 3.8l-27.9 -1l-28.2 4.1l-47.5 15.8l-36 5.2l-65.7 -7.5l-78.7 11.4l-32.4 0.8l-52.3 -6.2l-51.6 -0.6l-56.3 3.4l-4.1 3.9l-7.5 -2.9l-40.4 -15.3l-17.2 0.9l-19.3 1l-38.5 9.6l-4.9 17.3l-2 34.8l-2.8 8.4l-0.6 1.9l-101.6 39.8l-9.7 -3.8l-73.5 -28.7l-45.9 -8.5l-16.2 3.9l-1.8 3.3l-9.1 -2.3l-16.7 -8.4l-10.8 -9.9l-23.3 -29.6l-8.7 0.2l-1.4 2l-3.3 19.8l0.6 28.6l-3.9 8.1l-28.8 -2.1l-0.6 -6.5l-0.7 -7.4l-8.6 -8.5l-34.2 -4.7l-18.5 -7.7l-8.9 -6.9l-8.1 7.2l-6.2 31.2z" />
  </g>
  <g data-id="105">
    <path d="m5838.3 5514.8l0 0l3.3 -1.4l4.5 -0.6l11.7 11.8l3.9 0.4l11.5 -1.6l4 2l1.5 1.8l1.3 4.9l-0.1 7.5l-2 10.2l-0.2 5.1l0.4 2.7l1.9 4.9l16.8 7.5l8.2 8.4l5.1 3.1l4.7 -0.1l7.6 -5.4l2.2 -0.5l4.6 0l2.8 2.3l0.5 3.1l-0.5 6.1l-2.8 10.4l-3.1 6.2l-1.7 1.8l-4 1.7l-8.7 -1.8l-5.8 1.9l-10.9 14.3l-1.1 2.4l-1.5 7.6l-0.6 5.4l-0.8 7.8l0.4 2.6l1.1 2.5l3.2 3.6l7 1.3l3.3 0l16.9 -4.8l4.5 -0.5l2.2 1.7l2 2.9l5.2 2.6l4.6 1l5.2 3.5l9.3 20.5l0.8 13.2l-2.5 16.2l1.6 13.6l4.8 20.4l-0.2 3l-1 2.3l-1.9 1l-11.3 -2.6l-6.9 0.6l-2.5 4.1l-0.2 3.4l2 4.6l9.4 9.7l3.9 6.8l5.1 12.4l1.9 10.1l-0.1 4.2l-1.7 2.6l-7.7 6.8l-0.7 3.5l1.1 4.5l1.5 1.2l4.1 1.3l5.1 9.5l1.6 10.6l-0.8 24.5l0.8 13.7l0.6 3l5.9 14.2l-0.8 9.6l-1.6 3l-2.3 0.7l-1.4 -0.3l-4.4 -3.7l-2.5 -0.8l-7.9 2l-1.8 1.8l-0.1 1.6l2.2 5.3l0.3 2.5l-3.8 2l-6.4 -0.9l-4.9 1.1l-3.7 2.7l0 3.7l6.2 6.8l3.5 3.8l4.1 7.9l4.6 6.6l9 5.1l7.7 7.6l3.6 13.8l4.3 9.1l4.4 4.5l4.8 3.3l5 0.8l2.4 1.9l11.2 19.8l2.8 9l0.2 3.8l-1.9 2.6l-6.6 2.2l-2.5 2.8l0.1 7.9l0.7 1.8l1.5 1.5l8.1 1.8l2.1 1.2l6.8 5l7.2 7.4l3.2 5.7l0.5 2.3l-0 2.8l-2.1 5.2l-1.4 5.8l0 3.1l0.7 2l4.5 1.2l7.2 -2.3l7.9 0l2.5 1.4l1.6 2.2l2.5 9.5l0.3 4.2l-0.4 3.4l-3.5 12.4l-0.4 5.5l0.7 3.6l2.1 4.7l2.1 1.6l14.9 4.2l14.7 1.8l2.3 -0.6l10.5 -6.6l3.1 -4.4l4.9 -0.6l11.7 2.1l7.3 6.7l3.5 2l8.6 0.2l6 2.4l4.2 5.3l1.3 7.3l0 5.9l1.5 5.9l3.4 2.2l11.5 2.7l3.7 2.1l2.2 2.8l1.6 4.7l0.1 2.2l-7.4 8.7l-1.9 6.6l0.5 3.7l2.7 1.8l6.6 1.1l15.1 -3.5l15.2 -6.2l7.7 -0.7l5.5 2.1l7.1 5l3.8 4.4l10.9 10l2.9 1.4l5 0.5l2.6 -0.3l3.2 -1.8l4 -8.5l6.2 -6.3l7.4 -4.2l5.7 0.2l2.4 1.3l5.6 6.8l1.1 3.4l0.3 5.7l0.7 2.3l5.2 12.3l1.9 2.2l4.3 1.7l7.7 -1.2l8 -4.6l6.1 -2.1l3.3 0.2l8.8 4.4l6.5 0.5l4.9 -2.9l-9.8 -41.4l14.7 -23.9l-12.7 -45.5l10.8 -5.2l281.6 -14.6l68.5 -2.7l26.7 -49.6l44.5 -54.5l14 -16.1l52.1 -26.7l3.4 -5.2l-14.8 -7l-23.8 -78.2l-227.8 -170.9l62.7 -87.4l48.8 -65.3l42 -68.5l-254.7 -149.7l-24 -13.6l-134.9 -76.1l-273.9 166.5l-188.7 114.8z" />
  </g>
  <g data-id="107">
    <path d="m4046.9 4995.6l0 0l4.2 42.1l22.7 135.5l-20.4 87.8l107 1.8l8.2 0.1l5.5 0.2l142 0.9l7.8 0.1l250.7 -1l18.1 -0.1l9.5 0l22.6 0.2l1.3 -55.7l-5.2 -73.6l0.5 -45.2l-6.9 -89l-2.8 -54.9l37.4 -2.1l7 -74.5l-19.6 -46.1l20.2 -1.1l-8.9 -35.3l-23.8 -14.7l6.3 -39.4l-36.1 -171.1l-155.8 4.7l-52.4 4.7l-5.9 34l72.6 36.5l5.6 21.1l-17.3 45.3l1.5 48.3l-48.1 -0.2l-0.1 -19.6l-78.9 -0.4l-0.3 -16.9l-81.5 -0.1l-1.1 94.7l-73.7 -1.3l0.7 -29.7l-81.4 -1.1l3.2 54.1l-0.9 161.6l-33.1 -0.9z" />
  </g>
  <g data-id="109">
    <path d="m3877.5 4326.6l0 0l13.8 294.4l-6.1 3.2l-1.1 152.1l91.2 2.5l102.4 1.9l81.4 1.1l-0.7 29.7l73.7 1.3l1.1 -94.7l81.5 0.1l0.3 16.9l78.9 0.4l0.1 19.6l48.1 0.2l-1.5 -48.3l17.3 -45.3l-5.6 -21.1l-72.6 -36.5l5.9 -34l52.4 -4.7l-15.5 -370.7l-243.9 8.5l-0.6 -15.1l-196.6 9.1l-66.1 -2.3l26.8 54.6l34.3 43l40.8 28.7l-140 5.4z" />
  </g>
  <g data-id="111">
    <path d="m6300.9 5233.4l0 0l134.9 76.1l24 13.6l254.7 149.7l-42 68.5l-48.8 65.3l-62.7 87.4l227.8 170.9l23.8 78.2l14.8 7l-3.4 5.2l33.4 -5.7l45.5 -35.3l51.1 -29.4l17.8 5.6l-1.8 40.5l81.1 24.7l77.3 13.9l-10.3 -56.1l45.4 14.3l11.1 14.6l27.6 -12.5l18.2 42.9l20.9 -2.4l106 -13.4l7.9 -133.4l5.8 -25.9l-1.3 -10.5l-2.9 -9l-1.1 -6.4l2.8 -25.8l4.2 -30.6l0 -5.6l0.1 -33.5l-7.1 -13.5l-6.4 -11.8l4 -135.9l10.2 -37.8l-30.1 -63.2l34.6 -164.1l5.7 -93.5l7.7 -17.6l-4.4 -11.7l10.3 -53.3l13.6 -29.4l-9.7 -2.8l-106.4 -82l-1.4 23.3l-49.1 -12l-41 125.9l-248.9 -25.6l-45.5 -4.6l-182.3 -93.6l-66.1 41.5l-34.2 -2.7l-21.9 32.5l-6.7 10.1l-146.8 91.5l-140.4 87.6z" />
  </g>
  <g data-id="113">
    <path d="m7016.9 2277.8l0 0l69 623.3l349.9 -46.1l15.8 44.4l-5.6 12.9l27.9 47.6l-7.2 12.9l27.9 41.2l14 2.2l-0.3 50.8l-12 17.8l2.7 28.7l38.1 -1.8l17.2 10.2l26.1 38.3l7 -5.3l24.7 -30.1l8.2 -42.8l40.4 -20.1l26.1 -3.4l5.3 23.5l24.9 -9.6l-17.8 -21.2l4.9 -14l26.1 6.2l10 -25.4l60.5 -3.4l-18.6 -134.9l-24.3 -178.9l-9.8 -18.9l37.4 -96.8l-7.8 -17.8l30.6 -11.1l78.7 -116.5l15.8 -2.4l26.2 -31l11.8 -64.7l15.5 -25.9l15.1 -59.3l-0.4 -49.1l-13.9 -5l42 -56.1l-782.8 103.7l-199.4 27.7z" />
  </g>
  <g data-id="115">
    <path d="m7748 2682.1l0 0l9.8 18.9l24.3 178.9l18.6 134.9l7.8 9.7l-15 55.7l14.7 8.4l-10.2 33.4l22.5 61.7l-8.1 27.4l6.1 16.3l-11.3 23l12.2 30.5l-13.4 32.3l17.1 26.5l2 19.8l-3.2 89.7l-9.7 10.5l-14.3 72.9l-16.7 45.4l-26.7 20.1l-5.1 49.2l13.8 0.1l135.6 -3.7l84.4 -2.1l22.1 -23.6l51.9 9.8l15.4 14.8l133.6 0.7l5.4 -150.5l0.3 -9l4.5 -88.7l0.8 -15.7l7.8 -209.2l0.8 -22.6l0.1 -1.1l2.8 -49.8l2.5 -96.3l1.8 -69.6l0.3 -15.3l0.2 -11.8l0.1 -1.2l4.8 -158.1l0.5 -15l1.7 -77.5l0.4 -6.9l-1.2 -0.6l-0.1 -6.9l1.1 -4.5l4.4 -3.4l1.9 -3l0.6 -5.1l-0.3 -4.6l-0.6 0.1l-4.5 -9.4l-1.3 -2.7l-1.6 -1.7l-2.9 -1.1l-0.3 -12.2l2.5 -3.8l-0.3 -2.2l-5 -5.2l-7.6 -14.1l-6.9 -6.9l-6.7 -5.4l-13.1 -4l-1.6 -2l-0.4 -3.8l-4.6 -3l-10.9 1.3l-1.4 -0.8l-0.9 -2.2l1.1 -3.9l2.9 -3.5l-0.3 -1l-5.8 -3.9l4.7 -9.1l0.6 -2.3l0.8 -7.5l-0 -7.7l-1.9 -4.6l-5.4 -8.4l-2.9 -1.4l-2.3 -23.7l-0.6 -2.3l-2 -2.4l-2.7 -1.7l-1.8 0.9l-3.7 5.9l-2.8 -0.9l-6 -4.8l-8 -0.5l-4.8 3l-18.3 -0.3l-6.9 6.2l-13.9 -4.5l-0.7 0.8l-8.2 2l-2 -0.3l-2.2 -1.9l-3.8 0.4l-0.8 3l3.3 5.3l-0.1 1.1l-5.8 7.7l-1.9 3.6l4.6 11.5l-0.1 2l-1.2 2.7l-5.4 6.4l-7.2 5l0 21l1.1 9.7l-1 4.2l-1 2.2l-9.8 9.8l-4.8 3.2l-3 0l-2.7 -1.4l-6.7 -4l-14.3 -11.4l-4.3 -6.6l-7.9 -2.6l-2.5 -1.8l-2.9 -5.3l-0.4 -2.2l1.1 -3.9l6.8 -14.4l4.3 -7.4l-0.7 -6.1l-2.1 -7.8l0.1 -2.4l7.4 -14.4l0.2 -1.9l-0.8 -2.9l-12.1 -19.4l-0.9 -3.7l2.7 -10.6l1.6 -3l2.1 -2.4l6 -3.9l4.1 -8l1.2 -10.1l8.2 -19.6l0.4 -5.4l0.5 -1.6l4.1 -13.8l0.8 -5.9l-2.2 -6.4l0.6 -3.2l3.4 -5.1l4.7 -2.7l3.6 -3.9l2.3 -4.1l2.4 -7.5l7.5 -13.7l3.7 -4.8l6.6 -6.4l9 -13.3l0.9 -6.1l-1 -11.9l0.6 -11.7l0.7 -3.5l8.6 -15.6l10.6 -19.2l4.9 -11l0.1 -2.6l-5.3 -8.4l-1 -3.1l-2.5 -13.1l-6.3 -7.5l-7.2 -5.5l-10.3 -9.5l-1.1 -3.2l-1.3 -9.5l-1.3 -4.2l-0.1 -0.1l-74.4 8.4l-42 56.1l13.9 5l0.4 49.1l-15.1 59.3l-15.5 25.9l-11.8 64.7l-26.2 31l-15.8 2.4l-78.7 116.5l-30.6 11.1l7.8 17.8l-37.4 96.8z" />
  </g>
  <g data-id="117">
    <path d="m3018.1 3064.3l0 0l1.3 141.1l4.5 280.2l157.7 0.1l1.4 -8.8l140.9 -0.2l1.2 47.4l214.4 -1.2l316.4 -18.8l-6.1 -15.7l1 -51.1l19.6 -30.3l-25.5 -457.4l-10.8 0.5l-20.3 20.8l-27.8 22.6l-32.5 15.3l-59.4 7.4l-16.8 12.1l-28.4 9.6l-12 -1.7l-22 3.6l-22.8 11.8l-37.7 24.9l-7.9 1.2l-38 -7.8l-14.2 5.3l-43.2 0.4l-42.3 -16.9l-56.4 -12.2l-23.5 4l-16.4 -3.3l-37.5 10.5l-51.8 -4.5l-63.4 11.7l-50.3 -1.4l-13.5 -5l-33.5 0.6l-44.2 5.2z" />
  </g>
  <g data-id="119">
    <path d="m7310.4 6409.7l0 0l22.9 37l22.6 14.6l-25.7 40.1l-4.9 32.5l28.9 41.7l20.8 30.4l12.4 31.4l15.7 36.8l21.2 23.2l6.2 36.6l-7.8 59.6l-1.3 37.8l6.8 55.7l-5.3 54.2l-0.5 13.6l-3.2 26l-3.1 11.5l-7.6 28l-3 11.1l-10.5 44.5l-2.7 9l-0.3 3.2l50.2 19.4l23 9.1l9.3 -15.6l7.1 6.2l11 20.3l14.1 5.5l4 1.5l1 -2.2l50 16.9l20.9 7.2l1.1 -7.2l-1.1 -8.7l-4.3 -3.5l-6.1 -6.1l23.5 -34.4l31.6 -20.8l12.7 -11.8l30.1 -12.7l14.5 -9.4l4 -6.4l6.6 -23.1l17.2 -7.4l3 1.7l2.7 -3.7l5.1 -18.8l-1.7 -9.3l-0.4 -0.5l-2.6 -4l1.1 -9.4l-0.8 -10.1l4.8 -13.7l1.1 -6.7l-0.9 -1.8l-0 -0l-9.2 -12.9l-9.9 -16.1l-12 -19.6l-9.1 -14.9l-9 -14.4l-15 -25l-13.5 -22.5l-7.2 -10.1l-6.6 -11.9l40.3 -24.7l71.2 -43.8l9.5 -5.8l22.5 -13.4l62.5 -37.4l0.2 -0.1l12.8 -7.9l50.6 -31.1l6.5 -4l17.1 -10.2l13.9 -8.3l2.8 -1.7l-25.1 -41.1l-20 -32.8l-41.2 -65.1l2.6 -20.5l-0.8 -14l0.8 -17.5l4.7 -59.3l0.7 -8.2l-145.6 19l-152 21.2l-22.1 3.1l-81.7 10.8l-39.8 5.7l-112.7 15.5z" />
  </g>
  <g data-id="121">
    <path d="m1613.8 3774.1l0 0l-2.4 150.2l31.5 0.3l-0.9 419.9l-0.8 29.5l197 -3.5l337.5 0.4l4.7 -0.9l-5.4 -23.4l-22.8 4l16 -43.1l18.1 -17.3l-18.4 -19.4l32.1 -9.6l21.1 -23.9l-11.7 -18.3l31.6 -9.3l27.4 -82.4l15.7 -7.8l1.7 -336.7l-51.1 -3.9l-99.7 2.2l-0 -11.1l-493.6 4.7l-27.7 -0.5z" />
  </g>
  <g data-id="123">
    <path d="m3029.4 4118.5l0 0l0.1 22l0.6 135.3l156.5 -0l125.2 -0.9l-7.3 39.5l0.1 92.3l28.1 4.8l24.9 -14.6l0.5 37.7l149.1 -1.8l1.8 37l30.3 6.9l93.8 -6.6l-14 -52.8l6.6 -81.9l1.9 -64l-3.9 -145.9l-48.4 -89.4l-14.4 -58.7l-0.9 -25.3l-30.3 0.4l-192 1.5l-240.1 3.6l-1.8 3.7l-29.3 45.6l-20.2 56.3l-17.1 55.2z" />
  </g>
</svg>
