<?xml version="1.0" encoding="UTF-8"?><!DOCTYPE svg PUBLIC '-//W3C//DTD SVG 1.1//EN' 'http://www.w3.org/Graphics/SVG/1.1/DTD/svg11.dtd'><svg viewBox="0 0 1000 1586.59" xmlns="http://www.w3.org/2000/svg"><path data-id="01001" d="m434.1 787.5l-0.3 6.6l5.7 25.4l-2.4 10.1l4.4 7.8l3.3 8.7l-1.7 1.6l4.2 4.5l2.8 6l-2 3.9l4.8 0.3l7.1 4.5l-5.9 3.1l0.5 5l4.6 7.1l3.3 2.6l2.2 5.4l-2.1 4.5l-1.7 2.5l1.3 7.7l5 0.4l7 -10.6l-2 -9.2l0.6 -8.6l7.9 1.8l6.4 -5.1l2.6 0.6l-0.3 10.2l2.1 3.7l7.8 2.4l7.8 -7.5l0.6 -7l9.9 -2.8l1.3 2.4l-0.4 8l5.4 4.3l3.8 -4.5l3.2 0l7.8 3.8l2.8 8.2l10 -1.9l1.4 -6.6l7.9 -4.3l0.6 -8.7l1.4 -0.8l3.2 2l9.4 -3.3l-0.3 -39.3l-0.1 -16.7l-0.2 -42.4l-31.1 0.1l-53 0.5l0.2 14.6l-16.2 0.3l-12.6 0.2l-28.2 -1.3z"/><path data-id="01003" d="m123.9 1586.1l4.1 0.1l4.1 -1.1l10.5 -1.2l10.1 -0.3l24.5 1l10.6 -0.7l18.1 -3.7l21.9 -2.9l21.1 -6.3l6.5 -1.7l3.8 -0.4l7.3 -1.5l0 -1.1l2.5 -2.7l11.9 -3.3l0.8 -3.1l-6 0.9l-2 -0.9l-0.9 -2l1.5 -1.7l2.6 -1.1l4.6 -2.2l1.3 -0.9l2.1 -2.5l0.1 -5.2l0 -1.5l0.7 -1.7l2 -1.9l0.9 -1.5l-0.6 -1.9l0 -1.5l0.9 -1.4l1.5 -2.3l0.6 -1l1.9 -1.2l1 0l1.7 0.4l1.2 0.1l1.5 -0.5l1.3 -1.6l3.5 -1.7l1.2 -0.8l3 -2.5l1.2 -1.9l-0.1 -1.2l-0.5 -1.3l-3.5 -1.7l-3 -0.5l-1.4 0.3l-2.1 -0.7l-0.9 -1.1l-1.9 -0.3l-2.9 -2.7l-1.3 -1.6l-0.3 -1.9l-1.2 -0.9l0.4 -1.8l0.7 -2l-0.2 -1.5l-2 -3.1l-1.4 -0.4l-1.2 -1.2l0.3 -1l0.1 -2.1l0 -2.2l3.1 -7.2l1.1 -0.3l1 -1.3l0.5 -1.9l1.4 -0.2l1.2 -1.8l-0.5 -1l0.6 -1l1 -0.2l1.1 -3.4l0.6 -5.3l0.5 -1.1l1 -0.3l1 -1.4l0.6 -2.1l-0.2 -2.6l0.5 -1.2l0.1 -1.3l-0.7 -4.2l-0.3 -1.3l0 -2.1l-2.3 -4l-0.3 -1.7l0.1 -1.1l-1.6 -0.9l-1.9 -0.6l-1.5 -1.1l-1.5 -1.7l-1.6 0l-1.1 -0.6l-1.1 -1.3l-1.6 -1.4l-2.1 0.4l-2.6 -1.1l-1.1 -1.5l-1.1 -0.4l-1.4 -2l-0.5 -1.2l-1.6 -0.6l-2.7 -0.6l-1.5 -0.4l-0.8 -1.5l-1.8 -2.3l-3.3 -1.5l-2.5 -1.7l-0.8 -2l0 -1.6l-0.3 -2.2l-1.6 -2l-1.1 -1.5l0.3 -2.2l-2 -2.5l-2.1 -1.4l-1.4 -1.9l-1.1 -0.9l-1.1 -0.5l-1.3 -2.5l-1.4 -1.4l-1.7 -0.9l-1.8 -0.6l-1.7 -1.2l-0.3 -1.5l-0.5 -1.1l-2.1 -1.3l-1.4 -0.7l-0.3 -1.9l-1.9 -1.7l-0.6 -2.1l0.1 -1.7l-0.6 -1l-1.9 -1.9l1.4 -3.8l1.5 -2.3l1.1 -0.9l-0.4 -2l0.1 -1.2l1.7 -1.3l0.5 -2.3l0.7 -2l1 -2.4l1.5 -4l1.3 -1.5l1.7 -4.2l0.8 -4.2l-0.5 -1.6l-0.6 -1.2l-0.3 -1.1l0.4 -1.2l-1.1 -2.4l-0.7 -2.6l-4.5 -0.6l0 -14.2l-0.1 -66.3l-4.6 0.5l-12.3 -6.2l-10.6 -13.1l-14.2 1.6l-1.8 1.2l-6.7 -2.9l-2.3 -5.3l-1.4 4l6.5 7.7l0.1 2.3l-4.5 2l-4.7 -2.9l-2.8 1.1l-1.5 5.3l-4.3 -0.3l3.4 4.2l-2.1 2.6l2.4 2.7l-6.7 -1.4l-1 3l4.2 5.8l-3.2 1.2l-2.7 -3.6l-2.6 5.8l-2.9 -2.1l-4.6 1.7l-2.1 3.9l-9.2 -1.8l1.5 9.7l-8.8 0.1l1.8 4.7l7.3 0.3l-1.8 8.3l-8.3 10.5l3.6 7l4.1 0.1l2.1 6.4l-4.5 6.1l1.9 2.4l-4 4.5l2.3 6l-2.4 7.2l6 2l5.4 8.6l-7.8 3.4l-0.6 2l-9.1 14.2l1.7 4.3l7.4 4.1l2.8 7.3l-11.9 5.1l-1 5.6l-7.3 4.2l-1.5 2.9l-1.1 6.1l7.1 17.9l-2.1 4.3l4.9 2.1l2.7 1.1l7 5.3l5.4 0.5l1.6 1.5l3.3 5.4l1.9 6.6l-0.7 9.7l1 3.1l1 1l1 2.3l0.7 4.9l-1 4.3l-1.6 3.8l-6.2 12.5l0.4 2l2.1 1.6l1.2 1.8l1.6 7.9l1.5 10.3l0.7 1.6l11.5 8.4l3.1 1.6l2.4 0.3l2.2 2.6l1.6 4l0.4 1l5.8 6.8l3.5 2.7l6.7 4l4.8 6.6l0.1 4.5l-3.2 4.8l-5.9 2.6l-4 0.4l-4.4 -0.4l-11.8 4.5l-5.4 0.5l-3.9 -0.2l-2 -0.7l-3.7 -2l-1.3 -1.8l-5 -2.6l-3.6 1.6l-5 6.8l-15.9 1.7l-1.5 2.5z"/><path data-id="01005" d="m762.3 1131.7l-1.9 0.5l45.4 0.2l33 -1l14.1 0.4l0.1 -28.6l55.8 1.4l1.8 -2.6l1 -10.3l4.9 -1.5l11.1 -8.9l5.5 3.1l-1.4 -5.4l-0.8 -2.8l1.5 -8.6l-3 -7.9l3.3 -14.5l2.8 -3.2l10.5 -16.9l1.9 -6.3l3.4 -9.2l2.6 -7.1l1.2 -16.1l-37.9 0.2l-1.8 -1l-1.2 -5.7l-9.3 -6.9l-2 -6.9l-6.6 -4.9l0.5 -3.1l-42.5 0.4l-4.8 2.4l-0.8 28.8l0.5 12.2l-23.5 0.3l0.1 4.7l-19 0.9l-3.4 0.9l-3.4 11l-12.3 16.2l-2.5 10.3l-5.6 7.7l2.6 7.3l-1.6 8.7l3.2 8.1l-3.2 8.1l-6 3.5l-2.7 5.3l-0.3 8l-3.3 3l0.5 12.3l-3.8 9.2l-3.2 4.2z"/><path data-id="01007" d="m293.3 674.8l0.2 42.8l28.4 -0.2l0.1 14.5l24 -0.2l5.8 -1l31.9 -0.3l22.1 -0.3l39.9 0.3l0 -3.8l0 -18l-0.2 -49.2l-1.2 0l-14.7 -4.7l0 -4.9l-4.9 0l0.2 -6.6l-5.1 -1.8l-0.1 -18l-5.4 -1.2l-10.3 -1.3l-0.3 -26.9l-10.9 -0.1l-3 0l-7.7 8.5l-4.9 0l-0.1 -4.8l-6 -0.1l-2.4 1.2l-13.1 12l0 22l-23.1 -0.8l-8.3 13l-1.8 23.1l-0.2 6.1l-28.9 0.9z"/><path data-id="01009" d="m421.3 389l2.5 4.5l0.2 9.9l4.8 0l14.7 -9.4l26.7 0.7l8.2 0.1l31.8 22.7l-0.7 2.4l16.6 0.2l2.9 0l0.1 -12.3l15.6 0l2.6 -3l9 -1.5l9.8 -3.6l2.1 2l8.9 -5.3l7.9 -8.7l9.7 -8.3l-1.9 -6.9l7.6 -8.6l-1 -2.6l-12.4 0.1l8.6 -10.7l1.8 -4.9l0.1 -18.3l2.7 -10.7l5.3 -9l-2.8 -4.3l-18 -20.9l-2.3 -2.9l-6.2 -7.7l-2.2 -3.3l-3.8 -5.7l-3.8 -9.2l-2.5 -0.1l-9.2 -0.3l-3.8 3.8l-5.4 -1.1l-1.2 8.4l-4.5 0.4l-4.6 12.4l3 0.6l-5.2 5.7l-1.1 0.1l-7.5 11.7l-1.8 5.5l-6.4 -1.1l-8.2 5.1l-0.9 5.2l-2 1.6l-1 0.8l-0.9 -1.1l-1.2 0.9l-1.6 0.7l-1.2 1.1l-0.7 -1.4l-0.3 -1l0.3 -1.2l-1 -0.7l-0.9 1.4l-1.1 1.1l-1.2 0.8l-0.5 1l1 0.8l1 1.7l1 1.3l0.4 1.1l1.8 2l-4.3 -0.5l-0.1 7l-5.3 2.6l-4.5 6.7l-1 3.9l-5.5 1.5l-1.1 7.3l-7.7 3.6l-0.1 3.7l-7.8 -1.7l-0.3 5.4l-4.2 -3.1l-8.9 6l-2.7 -1.2l-2.3 6.3l-10.7 2.8l1.2 12l-12 5.1z"/><path data-id="01011" d="m690.3 924.3l0.4 35.9l0.3 29.8l3.6 1.2l2.3 -2.3l7.2 0l1.1 -2.4l0 2.4l9.6 -0.1l0.1 2.4l5 0l0.3 19.2l2.3 2.4l0 4.8l26.3 0l-0.3 28.6l37.2 0l2.5 -10.3l12.3 -16.2l3.4 -11l3.4 -0.9l19 -0.9l-0.1 -4.7l23.5 -0.3l-0.5 -12.2l0.8 -28.8l4.8 -2.4l-4.8 0l-1.7 -29l-117.9 0.9l-1.8 -1l-3.8 -3.8l-0.5 -14.9l-5.8 -4.5l0 10l-5.7 0.2l-18.8 0.7l0 7.2l-3.5 0z"/><path data-id="01013" d="m436.5 1019.4l0.6 43.1l0.3 25.5l-0.2 39.5l3.6 5.4l1.6 7.9l3.8 4.7l2.5 7.9l-0.2 2.2l7.5 7.1l38.5 0.4l56.5 -0.5l-0.1 -42.6l14.2 -0.1l0.7 -14.9l-0.1 -42.8l2.2 -3.7l-2.3 -1.2l-0.4 -38.9l-114.2 0.8l-14.3 0.2z"/><path data-id="01015" d="m650 439.1l-0.5 10.1l18.4 1.1l6.9 0.4l1.5 0.4l6.6 9.1l0.8 8.5l0.3 5.7l6.9 1l0.5 4.8l33.3 0.2l22.6 0.1l-0.4 9.8l14.5 0l0.5 -14.7l5 0.2l-0.1 -4.7l9.7 -0.8l-0.2 -4l9.7 0.2l4.8 -7.1l0.1 -41.9l4.7 -0.1l0.1 -4.8l4.9 0.1l0 -4.9l4.9 0.1l0.2 -14.7l-14.5 -0.2l0 -9.7l9.8 0.1l0 -5l19.4 0.2l0.7 -17.6l0.2 -4.9l-51 -3.7l-7.5 -0.5l-0.6 11.2l-19.6 -4l-9.9 -1l-9.9 -0.1l-5 2.5l0 12.3l-9.7 0l-0.1 -4.9l-9.7 2.2l0 3.8l0 3.5l-4.8 -0.3l-0.3 4.9l-2.1 4.8l-7.3 -0.4l0.1 4.9l-7 -0.4l-0.7 3.7l-4.5 -0.2l3.9 6.1l-3.6 8.9l5.6 11.7l-5.1 1.1l-5.3 5.7l-9.8 6.4l-2 4.4l-5.5 0.6z"/><path data-id="01017" d="m803.6 640.2l-0.1 69.9l0.1 56l45.4 -0.6l0 -4.9l4.8 0.1l2.5 4.7l7.6 0.1l5.8 -0.1l17.6 -0.1l2.3 -4.8l41.8 -0.5l1.4 -1.7l-2.5 -2.8l4.7 -4.4l-3.1 -2.9l-9.7 -9.8l4 -10.4l-8.6 -6.2l-0.4 -2.9l-0.8 -6.5l-3.9 -23l-1.3 -7.9l-4.1 -24.3l-0.4 -2.3l-2.5 -15.2l-100.7 0.2z"/><path data-id="01019" d="m733.7 259.3l0.1 14.7l0.6 30.1l2.3 0.3l5.9 -5.1l5.8 0l-1.7 8.4l16.7 37.4l-0.5 7l7.5 0.5l51 3.7l-0.2 4.9l9.6 -0.3l0.1 -4.9l19.4 -0.1l7.5 -2.4l-2 -12.1l-4 -24.3l-0.5 -2.9l-1.8 -11.3l-0.3 -3.6l-7.1 -42.4l-0.9 -5l-0.2 -1.2l-0.9 -5.7l-2.3 -14.1l-1 -5.5l-2.9 -16.3l-4.9 -27.4l-1.7 -9.2l-1 -5.8l-0.4 -2l-5.5 3.4l-3.1 4.7l-4.2 -0.4l-0.3 3.8l-4.6 2.2l1.9 5.3l-2.8 -0.9l-1 4.2l1.2 6.2l-5.9 6.4l-4.5 9.3l-2.3 -1.3l1.3 3.5l-4.6 6.9l-7.7 1.6l-2.2 3.4l-0.9 2.9l-27.6 28.5l-9.7 0.1l0.2 6.6l-4.8 -0.2l-5.1 -1.1z"/><path data-id="01021" d="m405.7 730.1l0.4 35.7l0 22l27.9 -0.3l28.2 1.3l12.6 -0.2l16.2 -0.3l-0.2 -14.6l53 -0.5l31.1 -0.1l-0.1 -14.3l10.7 -1l-6.1 -3.1l-4.7 -8.4l-3.9 -1.2l-8.3 -7.4l-1 -6.5l3.6 -5.8l-1 -4.2l-3.9 -1.8l-4.1 -1.7l-2.9 -10.4l-7.1 -7.9l-0.6 -13.9l2.1 -4.7l-3.3 -6.3l1.4 -5.4l-5.4 -1.3l-4.7 1.8l-14 -12l-1.7 -5l-33.5 0.2l-20.2 0.1l-6.3 0.1l-5 -0.8l-10.9 -0.3l0.1 7.3l1.2 0l0.2 49.2l0 18l0 3.8l-39.9 -0.3z"/><path data-id="01023" d="m0 1041.7l0.2 6.1l0.4 7.8l0.7 19.9l1 22.4l0.2 8l105 -0.4l-1.4 -12.5l-3.2 -7.6l-4.8 0l-5.7 2.7l-4.5 -4.5l-1.9 -7.5l-4.3 -9.1l5.2 -7.9l1 -4.2l3.5 -2.1l2.1 -5.1l2.5 -9.6l11.4 -1.9l3.2 -3.6l6.1 -0.5l-3.5 -4.4l-5.7 4.9l-4 -5.9l-4.2 0.2l-1.2 -3.6l6.9 -4.9l4.4 3.7l2.8 -1.6l-0.8 -10.4l-5.2 -5.6l-0.8 4.6l-5.2 -4.3l-1.1 -3.5l1.1 -8l-1.4 -3.3l6.3 -6.2l3.1 -0.3l4 3l7.2 -6.8l-2.1 -6.4l4.6 -14.2l4 0l4 -13.3l-1.5 -5.1l1.4 -6.1l-2.1 -5.2l1.6 -8.8l-3 -3.3l0.3 -4.4l4.2 0.5l0 -4.3l3.6 0.7l4.4 -4.4l2.2 3.2l5.5 -1.9l3.2 0.8l-2.2 6.2l3.1 0.2l1.1 -3.4l-0.6 -1.6l0.3 -4.4l-136.9 0.6l-1.9 19.3l-0.8 7.4l-2.1 18.1l-1.2 11.8l-2.9 27.6l-0.4 4.1l-3.8 35.4l-0.1 1l-1.2 12z"/><path data-id="01025" d="m81.6 1067.1l4.3 9.1l1.9 7.5l4.5 4.5l5.7 -2.7l4.8 0l3.2 7.6l1.4 12.5l0.4 4.3l2.3 5.4l-3 3.6l1.5 9.3l2.7 4.6l-1.6 3.5l2.2 3.7l5.8 3.6l6.6 -0.2l1.2 4.4l-4.7 -0.4l2.5 3.9l3.5 2.7l10.3 4.4l3.2 2.7l7.8 1.3l5 7.8l5.1 3.7l-3.6 8.1l1 5.7l-5.5 2.4l6.7 5.9l-4.7 5.4l5.7 0.6l-1.3 3.8l-4.4 -0.7l-4.6 7l7.5 -0.5l-0.4 -4.2l5.8 2.8l3 -3.6l-1.5 6.5l1.1 2.7l-5.4 13.4l-0.6 -3.6l-3.7 -0.2l-0.4 7.1l-9.8 -1.1l-1.4 1.6l4.8 4.9l-2.8 5.4l0.6 3.9l-5.8 -0.6l-2.9 3.3l4.7 0.5l1.6 2.7l5.4 1.9l3.5 6.4l-4.8 5.8l0.5 4.5l9.2 1.8l2.1 -3.9l4.6 -1.7l2.9 2.1l2.6 -5.8l2.7 3.6l3.2 -1.2l-4.2 -5.8l1 -3l6.7 1.4l-2.4 -2.7l2.1 -2.6l-3.4 -4.2l4.3 0.3l1.5 -5.3l2.8 -1.1l4.7 2.9l4.5 -2l-0.1 -2.3l-6.5 -7.7l1.4 -4l2.3 5.3l6.7 2.9l1.8 -1.2l-5.2 -5.9l-0.2 -4.4l4.6 -5l1.4 -6.6l2.3 0.6l0.3 7.1l2 2.4l6.6 -3.4l-0.9 -9.8l5.5 -8.9l5.7 -2.2l5.6 -5.1l7.2 -0.5l4.7 4.6l5.5 0.4l7.3 -7.4l3.8 -10.7l0.2 -4.2l-11.8 -7.4l-4.6 -4.8l6.2 -4.2l9.4 -8.6l-0.4 -47l14.1 -0.2l-0.6 -38.3l4.9 0.1l0 -5l-33.3 0.7l-0.2 -14.2l-3.4 -1.9l-9.4 0.1l-0.3 -38l-38.4 0.3l-74.8 0.1l0.8 10.4l-2.8 1.6l-4.4 -3.7l-6.9 4.9l1.2 3.6l4.2 -0.2l4 5.9l5.7 -4.9l3.5 4.4l-6.1 0.5l-3.2 3.6l-11.4 1.9l-2.5 9.6l-2.1 5.1l-3.5 2.1l-1 4.2l-5.2 7.9z"/><path data-id="01027" d="m641.9 610.8l-0.4 30.4l46.1 -0.1l0 4.8l9.7 -0.1l0 -4.9l48.3 0.3l13.4 -0.3l27.9 -0.5l0.9 -66.5l2.5 0.1l0.1 -6l-2.5 -0.1l1.8 -57.4l-34 -0.9l-0.1 5.1l-4.8 -0.1l0 4.8l-29.3 0l0 -2.5l4.9 0l0.2 -5l4.7 0l0.1 -2.4l-14.8 0l-0.1 14.7l-4.9 0l-0.3 19.5l-4.8 0.1l-0.1 4.8l-9.8 0l-1.1 29.3l-8.7 0l-24.9 -0.6l-4.8 -0.1l-0.7 34l-14.6 -0.4z"/><path data-id="01029" d="m721.5 516.9l0 2.5l29.3 0l0 -4.8l4.8 0.1l0.1 -5.1l34 0.9l81.2 1.2l1.3 -3l4.7 3.5l7.4 2.7l-2.7 -15.7l-0.3 -2l-2.1 -12.8l-0.3 -2.1l-4 -24.4l-5.4 -32.5l-0.9 -6l-0.4 -2l-4.1 -25.8l-0.3 -1.8l-2.5 -15.4l-3.4 -21l-7.5 2.4l-19.4 0.1l-0.1 4.9l-9.6 0.3l-0.7 17.6l-19.4 -0.2l0 5l-9.8 -0.1l0 9.7l14.5 0.2l-0.2 14.7l-4.9 -0.1l0 4.9l-4.9 -0.1l-0.1 4.8l-4.7 0.1l-0.1 41.9l-4.8 7.1l-9.7 -0.2l0.2 4l-9.7 0.8l0.1 4.7l-5 -0.2l-0.5 14.7l-14.5 0l-0.2 4.8l-15.4 14.4l-0.1 2.4l-4.7 0l-0.2 5l-4.9 0z"/><path data-id="01031" d="m635.3 1195.3l0.4 23.8l0.4 52.4l19 -0.2l2.4 3.5l0 -3.6l16.2 -0.3l74.5 -0.7l0.4 -45.7l0.1 -6.6l0.2 -85.5l-99.5 0.1l0.5 26.2l-1.8 0l-1.7 2.4l-10.7 0.1l0.2 29.4l-0.7 4.8z"/><path data-id="01033" d="m93.2 142.8l-0.2 2.1l140.1 4.3l10.4 0.3l19.8 0.4l3.3 0.3l-0.2 -3.8l3.1 -3.1l-2 -4l3.3 -3.8l1.6 -5.6l5.6 -4l-1.9 -3.5l6.7 1.3l4.5 -5.7l-2.2 -7.2l0.3 -4.9l6.6 -4.3l-1.9 -2.8l1.5 -11.7l3.2 -5.3l-5 -2.1l2.2 -9l-14.9 -4.3l-12.4 -6.7l-16.8 4.5l-5.5 5.2l-2.5 1.6l-3.1 1l-5.2 1.1l-3 1.7l-4.4 1.8l-1.6 0.1l-5.2 1.9l-3.7 1.3l-7 9.2l-9.7 3.8l-11.1 0.9l-8.1 -3.1l-7.1 -7.4l-16.5 -14.1l-3.7 -11.7l-5.2 -9.8l-9.6 -6.5l-15.1 -6.8l-15.9 4.9l-2.7 27.4l-2.5 22.2l-0.6 7.5l-1.3 9.8l-3.2 24.7l-1.2 11.3z"/><path data-id="01035" d="m293.6 1244l-1.8 5.2l109.1 -0.3l76 0l-2.3 3.5l2.4 9.9l-2.4 5.9l4.4 3l5 -0.5l4.9 3.6l0 -2.4l5.8 -0.4l-0.2 -43.1l-0.4 -6.9l2.8 -0.7l7.1 -7.2l-2.3 -6.4l3.7 -4.5l-3.6 -11l-7.4 0l-0.1 -28.6l-38.5 -0.4l-7.5 -7.1l0.2 -2.2l-2.5 -7.9l-3.8 -4.7l-1.6 -7.9l-3.6 -5.4l0.2 -39.5l-7.8 2.3l-4.1 3.7l-8.7 2.9l-2.6 2.5l-9.7 2l-7.5 -1.9l-2.7 4.4l1.4 9l-6.2 3.6l-3.6 4.6l-12.2 3.2l-0.7 9.2l-2.2 8.9l-3.9 6.9l-2.5 10.3l0.3 5l-8.7 13.6l-2.5 6.5l-5.1 1l-1.4 0.5l-11.5 12.2l-7.1 4.9l-9.9 15l-4 1.8l-3.7 10.4l-9.3 5.5l-7.7 8z"/><path data-id="01037" d="m545.8 669.1l-1.4 5.4l3.3 6.3l-2.1 4.7l0.6 13.9l7.1 7.9l2.9 10.4l4.1 1.7l3.9 1.8l1 4.2l-3.6 5.8l1 6.5l8.3 7.4l3.9 1.2l4.7 8.4l6.1 3.1l10.7 -0.1l0 -4.8l4.9 0.1l-0.1 4.7l87.1 -0.4l0 -19l-1.7 -2.6l1.7 -2.5l-0.2 -37.2l0 -19.3l-0.2 -30.8l0 -4.8l-46.1 0.1l-88.4 0.5l-5.6 4.8l1.4 6.9l-3.9 3.6l0.8 12.1z"/><path data-id="01039" d="m494.1 1221.4l0.4 6.9l0.2 43.1l0 62.5l3.3 1.9l2.8 0l3.8 0l27.1 -0.2l1.2 0l12.1 0.6l2 -0.1l3.6 0.1l11.6 -0.2l1 0.1l13.9 -0.1l3.6 0l4.8 -0.1l1.5 0l1.2 0l16.8 0.1l4.3 0.1l9.2 0l5.1 -0.2l14.3 0.1l-0.9 -2.9l-0.9 -61.6l-0.4 -52.4l-0.4 -23.8l0.7 -4.8l-19 -0.4l0.5 -4.8l-4.7 0l-0.9 -23.9l-5.2 0l-5.8 7.7l-3.1 1.3l-2.6 4.6l-6.9 0.1l-1.6 4.3l-7.1 7.5l-1.2 -25l-4.3 0.5l-23.4 0.1l-56.5 0.5l0.1 28.6l7.4 0l3.6 11l-3.7 4.5l2.3 6.4l-7.1 7.2l-2.8 0.7z"/><path data-id="01041" d="m550.7 1120l0.1 42.6l23.4 -0.1l4.3 -0.5l0.4 24.8l7.9 -7.3l1.6 -4.3l6.9 -0.1l2.6 -4.6l3.1 -1.3l5.8 -7.7l5.2 0l0.9 23.9l4.7 0l-0.5 4.8l19 0.4l-0.2 -29.4l10.7 -0.1l1.7 -2.4l1.8 0l-0.5 -26.2l-9.4 0.4l0.3 -3.8l5.5 -6.3l-0.3 -4.2l3.6 -1l-0.3 -41.9l-14.2 0.2l0 -5.7l4.6 -8.1l0.2 -12.4l2.6 -7.5l-0.5 -12.3l-4.6 -11.8l-30.9 0.5l-0.4 -28.1l-1 -0.5l-27.7 0.3l0.4 28.6l-12.1 -0.3l0.4 38.9l2.3 1.2l-2.2 3.7l0.1 42.8l-0.7 14.9l-14.2 0.1z"/><path data-id="01043" d="m368.9 343.6l4.7 9.5l6.1 1.9l2.2 8.2l5.3 5.4l1 4.3l-5.2 2.7l2.5 2.8l23.7 0.4l0.1 7.6l3.6 1.8l8.5 0.9l12 -5.1l-1.2 -12l10.7 -2.8l2.3 -6.3l2.7 1.2l8.9 -6l4.2 3.1l0.3 -5.4l7.8 1.7l0.1 -3.7l7.7 -3.6l1.1 -7.3l5.5 -1.5l1 -3.9l4.5 -6.7l5.3 -2.6l0.1 -7l4.3 0.5l-1.5 -1.6l-0.6 -1.2l-0.6 -1l-1 -1.5l-0.9 -1.1l-0.6 -1.1l1.7 -1.2l1.1 -1.1l0.6 -1.3l1 -0.1l0.3 1.2l-0.3 1l0.3 1.8l1.4 -0.5l1.6 -0.7l0.9 -1.1l1 0.1l0.1 1.1l1.6 -1l1.1 -0.8l1.8 -6l8.2 -5.1l6.4 1.1l1.8 -5.5l7.5 -11.7l1.1 -0.1l5.2 -5.7l-3 -0.6l4.6 -12.4l4.5 -0.4l1.2 -8.4l5.4 1.1l3.8 -3.8l9.2 0.3l-1.8 -10.1l-5 -4.6l-20.1 -0.3l-9 -0.3l-64.9 -1l-6.7 -0.1l-70.7 -1.4l-5.1 -0.5l0.1 4.9l-0.1 23.9l-0.2 18.8l-0.3 60.7l-10.9 -0.3z"/><path data-id="01045" d="m748.7 1224.4l-0.4 45.7l22.6 0.4l3.8 -3.1l2.1 -10.2l5 -4.4l3.1 -6.9l6.9 -1.5l9 1l4.9 2.7l11 3.4l16.8 2.5l0.1 -13.4l4.9 0.1l11.7 0.2l2.5 -0.3l-0.1 -9.1l0.2 -15.8l-0.4 -25.3l0.6 -16.2l-0.2 -42.3l-14.1 -0.4l-33 1l-45.4 -0.2l-11.4 0l-0.2 85.5l-0.1 6.6z"/><path data-id="01047" d="m279.1 905.4l0.2 14.1l7.7 -1.3l6.1 8.2l7.9 2.2l1.6 4.7l3.9 0.4l2.5 8.1l3.4 -1.5l6.9 2.1l3 4.6l7.1 4.4l3.3 7.8l5 -0.9l3 3.7l-2.5 4l4.4 0.5l6.2 9.4l9.2 2.5l-0.4 5.2l4.5 1.8l-0.6 5.7l75.6 -0.2l-0.4 -58.3l27.3 0.1l0 -4.2l-3 1.3l-5.6 -2.7l-6.3 -9.3l2.9 -5.6l7.7 -6.2l-6.8 -1.3l0 -6.3l9.9 -3.9l2.1 -4.5l-2.2 -5.4l-3.3 -2.6l-4.6 -7.1l-0.5 -5l5.9 -3.1l-7.1 -4.5l-4.8 -0.3l2 -3.9l-2.8 -6l-4.2 -4.5l1.7 -1.6l-3.3 -8.7l-4.4 -7.8l2.4 -10.1l-5.7 -25.4l0.3 -6.6l-27.9 0.3l0 -22l-4.3 11.2l0.3 10.6l-3.2 7l-1.2 7.3l2 7.2l-4.5 4.9l-6.8 4.6l1.2 4.3l-1.3 6.7l-2.3 0.9l-3 9.8l-3.4 5.4l-30.2 0.5l-12.5 1l-44 0.3l0.4 57.8l-14.3 0.2z"/><path data-id="01049" d="m659.3 197l-2.4 8.1l2.5 9.8l0.3 13.9l0.3 17.2l0.1 11.1l0.4 16.6l73.2 0.3l-0.1 -14.7l5.1 1.1l4.8 0.2l-0.2 -6.6l9.7 -0.1l27.6 -28.5l0.9 -2.9l2.2 -3.4l7.7 -1.6l4.6 -6.9l-2 -3l3 0.8l4.5 -9.3l5.9 -6.4l-1.2 -6.2l1 -4.2l2.8 0.9l-1.9 -5.3l4.6 -2.2l0.3 -3.8l4.2 0.4l3.1 -4.7l5.5 -3.4l-1 -6.2l-2.8 -15.6l-1.9 -11.9l-2 -11.1l-3.1 -17.4l-2.5 -14.3l-6.1 -37.5l-12.3 9.7l-2 11.2l-7.2 15l-3.7 3.4l-5.5 0.2l-25.8 40.6l-26.7 21.1l-16 12.5l-5.1 6.2l-0.7 1.2l-0.7 1.2l-1.1 0.4l-10.5 6.3l-3.3 -0.5l-5.4 2.8l-6.4 -0.9l-14.7 16.3z"/><path data-id="01051" d="m574.8 758.8l0.1 14.3l0.2 42.4l0.1 16.7l0.3 39.3l3.6 -5.6l15 -1.9l10.1 5.9l-4.7 -9.4l4.8 -7.8l-1.5 -7.3l6.4 5.4l7.9 -4.6l-0.2 -4.9l7.2 2.1l10.9 14.4l4.9 1.3l-3.3 3.8l10.6 0.6l0.9 3.2l7.1 -3.1l-1.1 3.9l3.7 1.7l8.4 -1.5l2.3 3l8.8 2.2l1.1 -3.9l5.5 -0.7l9 -4.3l-0.8 -6.1l2.3 3.6l3.3 -4.3l4 4.1l7.6 -4.1l10.4 2l3.4 -2.5l2.7 -6.2l5.6 -0.6l-4.9 -1.9l-4.4 -3.8l-1.2 -2.3l0.8 -19.1l-1.9 -18.8l1.2 -6.1l0.7 -4.8l-6.7 -10l1.2 -7.1l4.7 -5.9l3 -12.4l-4.3 0l-16.6 -0.1l-0.2 -4.7l-4.8 0l0.2 4.7l-9.8 0l-87.1 0.4l0.1 -4.7l-4.9 -0.1l0 4.8l-10.7 0.1l-10.7 1z"/><path data-id="01053" d="m239.2 1254.4l0.1 66.3l0 14.2l4.6 0l7.7 -0.1l6.3 0l8.1 0.1l11 -0.2l3.8 0l1.4 0l1.6 -0.1l1.6 0l4.9 0l1.8 0l16.2 -0.1l1.1 0l2.3 0l6.1 0l6.1 -0.1l2.3 0.1l3.6 -0.1l7.1 0l1.4 0l1 0l5.4 0.6l2.3 -0.2l1.3 -0.1l17.1 -0.6l6.4 -0.2l4.4 0.2l1.7 -0.2l14 0.1l1.3 0l2.9 0l3.8 -0.2l1 0.1l2.6 0l6.3 0l1.6 0.2l19.7 0.3l11.1 0l4.2 0l11.5 0.1l12.8 0.1l11.4 0.2l4.7 -0.1l6.1 0.7l5 0l-3.3 -1.9l0 -62.5l-5.8 0.4l0 2.4l-4.9 -3.6l-5 0.5l-4.4 -3l2.4 -5.9l-2.4 -9.9l2.3 -3.5l-76 0l-109.1 0.3l-17.2 0.1l-9.4 4l-10.1 6.7l-15.8 -5.6z"/><path data-id="01055" d="m595.4 350.9l-8.6 10.7l12.4 -0.1l9.9 -14.7l3.4 -1.8l7.4 7.9l6 -5.8l8.7 -2.1l4.3 5.6l4.3 2.4l0.6 6.9l0.2 6.1l4.5 2l1.8 7.1l8.4 -1.5l1 7.7l3.4 6.7l6.6 -1.5l5.2 6.5l-3 1.4l4.5 0.2l0.7 -3.7l7 0.4l-0.1 -4.9l7.3 0.4l2.1 -4.8l0.3 -4.9l4.8 0.3l0 -3.5l0 -3.8l9.7 -2.2l0.1 4.9l9.7 0l0 -12.3l5 -2.5l9.9 0.1l9.9 1l19.6 4l0.6 -11.2l0.5 -7l-16.7 -37.4l1.7 -8.4l-5.8 0l-5.9 5.1l-2.3 -0.3l-0.6 -30.1l-73.2 -0.3l0.1 4.9l-14.3 -0.3l-4.7 1.3l-4.5 0.2l-31.7 28.3l-5.3 9l-2.7 10.7l-0.1 18.3l-1.8 4.9z"/><path data-id="01057" d="m145.5 368.3l1.4 93.5l0 39.3l29.5 -0.3l29 1.8l13.7 -0.5l5.8 -0.2l0 -19.5l9.8 -0.3l0 -9.8l58 2.6l0 -29.2l-29.2 -1l-0.9 -58.9l-29.1 -1.5l0 -14.5l-24.1 0.2l-39.3 -1.6l-24.7 -0.1z"/><path data-id="01059" d="m85.8 212.8l-2.2 20.2l73.9 2.9l49.7 0.8l26.8 1.1l29.3 0.8l0 -88.8l-19.8 -0.4l-10.4 -0.3l-140.1 -4.3l-4.5 40.1l-2.6 27.1z"/><path data-id="01061" d="m636.1 1271.4l0.9 61.6l0.9 2.9l1.9 0l1.4 0.1l1.7 0l1.7 0l12.8 0.2l16.9 -0.1l1 0l4.9 0l10.1 0.1l29.3 -0.2l40.1 -0.4l47.6 -0.5l22.6 -0.2l2.8 0l0.8 -47l-0.1 -19.1l-27.9 1.6l-34.8 -0.1l-22.6 -0.4l-74.5 0.7l-16.2 0.3l0 3.6l-2.4 -3.5l-19 0.2z"/><path data-id="01063" d="m77.3 697.4l-3.1 3.6l4.9 4.7l2.7 13l7 6.2l-6.9 7.5l9.1 1.8l4.1 -2.7l7.6 11.4l7.3 -2l4.1 4.1l-4.1 6.4l-6.6 -2.1l-1.9 2.8l2.3 10.5l5.5 6.6l-1 3.4l-8.5 2.7l2.4 3.9l8.1 1.7l7.5 -4.3l3 3.1l-4.8 4.4l0.8 9.2l-6.7 2.6l0 6.3l6.1 8.7l13.2 -2.4l9.2 -3.3l8.3 -5.3l5.2 -1.8l4.7 2.5l1.9 3.4l7.7 -2.5l5.3 0.4l4.8 5l-5.4 4.9l-0.5 -5.2l-5.7 -1.1l-4.3 3.2l-0.1 2.6l6.5 6.8l0.3 9.1l5.7 4l2.7 -5l6 1.1l-0.3 7.7l3 -1.4l3.2 -3.5l0.6 -5.4l0.6 -4.3l1 0.5l2 -1.4l-0.3 -3.9l0.8 -1.9l2.5 0.5l1.2 0.6l0.2 1.9l3.5 -1.1l3.2 -2.6l1.2 -0.4l1.3 -0.9l-0.9 -1.3l-0.9 -1.6l-1.1 -3.3l-0.1 -1.1l-2 -0.6l-1.8 0.5l-5.6 2.4l-2.3 -0.5l-4.5 -4l-1.1 -3.2l0.9 -3l2 0.1l2.7 0.1l2.8 -0.8l4.9 1.2l4.2 -1.5l0.9 -2l0.2 -2.5l-3.4 -0.4l-6.3 1.3l-3.8 -2.9l0.3 -3.5l1.2 -1.4l-2.3 -9.6l0.1 -2.7l-2.8 -0.9l-1.8 1.4l-1.3 1.3l-2.9 -0.5l-1.5 -2.5l0.8 -3.8l2.2 -2.1l2.1 0l2.2 -4.7l-2.6 -3.3l-2.4 -2.7l-2.8 -1.3l-0.5 1.6l0.3 1l-2.5 0.8l-2.8 0.1l-2.4 0.7l-1.6 -1l-0.6 -1.5l0.8 -2l1.8 -0.8l2.5 -0.1l2.6 -1.8l2 -2.7l3.1 -2.3l1.3 -2.4l0.4 -2.2l0.5 -1.8l0.1 -3.3l-0.5 -3.1l-1.4 -1.6l-2.7 -1.2l0.1 -2.3l2 -0.3l0.3 -1.6l-1.3 -0.2l-1.5 -1.9l0.7 -2l1.1 0.2l1.5 -1.4l-0.3 -2l-0.1 -1.2l0.9 -1l2.3 0.5l-0.8 -2l-1.2 -0.6l-0.4 -1l1.2 0.2l1.7 1.1l0.7 -1.5l-0.2 -1.4l1.3 0l1.4 -0.3l3 0.5l1.5 -1.6l2.7 0.2l1.5 -1.9l0 -1.8l-1.3 -2.3l-1.6 -1.2l0.1 -1.2l0.8 -1l2 0l1 -2l1.1 0.1l1.4 0.5l-0.8 -1.5l5.4 -1.5l1.3 -1.8l-1 -1.9l-1.7 0.4l-1.6 -1.3l1.6 -2.1l-1.6 -3.5l-0.4 -1.2l-0.2 -1.2l1.1 0l1.5 0.5l1.8 -0.3l1.2 -2l2.9 -0.4l3.2 -2l-1 -2.5l-1.4 -2.3l0.8 -3.2l-11.3 -0.5l-22.3 0l0.2 -25.5l-1.8 -14.3l0.1 -5.6l-11 4.8l-15.9 8.7l-1.3 -0.5l-8.5 12.3l-3.5 -1l-12.7 5.7l-3.5 3.3l2.2 3.8l-3.3 3.2l-6 -6.2l-2.8 -0.5l-3.1 5.5l-8.1 -1.8l-9.5 1.5l1.8 4l-8 5.6l0 4.3l1.3 8.4l2.8 2l-2.2 3.4l-5.2 -2.7l0.5 5.6l2.8 0.9l-0.8 3.6l-5.9 -1.2z"/><path data-id="01065" d="m168.9 753.6l0.2 2.1l1.6 1l2.4 -0.7l2.8 -0.1l2.5 -0.8l-0.3 -1l0.5 -1.6l2.8 1.3l2.4 2.7l2.6 3.3l-2.2 4.7l-2.1 0l-2.2 2.1l-0.8 3.8l1.5 2.5l2.9 0.5l1.3 -1.3l1.8 -1.4l2.8 0.9l-0.1 2.7l2.3 9.6l-1.2 1.4l-0.3 3.5l3.8 2.9l6.3 -1.3l3.4 0.4l-0.2 2.5l-0.9 2l-4.2 1.5l-4.9 -1.2l-2.8 0.8l-2.7 -0.1l-2 -0.1l-0.9 3l1.1 3.2l4.5 4l2.3 0.5l5.6 -2.4l1.8 -0.5l2 0.6l0.1 1.1l1.1 3.3l0.9 1.6l0.9 1.3l-1.3 0.9l-1.2 0.4l-3.2 2.6l-3.5 1.1l-0.2 -1.9l-1.2 -0.6l-2.5 -0.5l-0.8 1.9l0.3 3.9l-2 1.4l-1 -0.5l-0.6 4.3l-0.6 5.4l-3.2 3.5l23.4 0l-0.1 14.4l5.1 0l51.9 -0.4l-0.2 -57.5l14.3 -0.1l0 -24l0.5 -5.1l0 -28.9l14.2 -0.1l0.1 -14.5l-0.2 -42.8l-82 -1.1l0.8 1.9l1.8 3.2l-3.2 2l-2.9 0.4l-1.2 2l-1.8 0.3l-1.5 -0.5l-1.1 0l0.2 1.2l0.4 1.2l1.6 3.5l-1.6 2.1l1.6 1.3l1.7 -0.4l1 1.9l-1.3 1.8l-4.6 1.9l0 1.1l-1.3 0.4l-1.2 -1l-1 2l-1.3 0.4l-1.5 0.6l-0.1 1.2l1.6 1.2l1.3 2.3l0 1.8l-1.5 1.9l-2.7 -0.2l-1.5 1.6l-3 -0.5l-1.4 0.3l-1.3 0l0.2 1.4l-0.7 1.5l-1.2 -0.4l-1.2 -1.3l-0.1 1.4l1.2 0.6l0.8 1.2l-1.4 0.8l-1.8 0.5l0.1 1.2l0.3 2l-1.5 1.4l-1.1 -0.2l-0.7 2l1.5 1.9l1.3 0.2l-0.3 1.6l-2 0.3l-0.1 2.3l2.7 1.2l1.4 1.6l0.5 3.1l-0.1 3.3l-0.5 1.8l-0.4 2.2l-1.3 2.4l-3.1 2.3l-2 2.7l-2.6 1.8l-2.5 0.1l-1.8 0.8l-0.4 1.4z"/><path data-id="01067" d="m852.5 1190.3l0.4 25.3l-0.2 15.8l40 1.4l5.9 -0.1l6.5 0.5l14 0.6l25.2 -0.3l0.6 -10.2l-1.6 -7.5l4.2 -11.5l-0.7 -4l3.9 -6.8l-1.6 -12.1l7.3 -16l1.1 -9l-4.5 -8.6l-1.2 -17.1l-5.7 -8.8l-11.9 -14.8l1.8 -12.4l-2.7 -10.2l-5.5 -3.1l-11.1 8.9l-4.9 1.5l-1 10.3l-1.8 2.6l-55.8 -1.4l-0.1 28.6l0.2 42.3l-0.6 16.2z"/><path data-id="01069" d="m774.8 1267.4l-3.8 3.1l34.8 0.1l27.9 -1.6l0.1 19.1l-0.8 47l68.2 -1.2l24.9 0l2.3 0.1l24.6 0l1.6 0l5.8 0l1 0l7 0l0.3 -1.4l-2.8 -15.8l-3.4 -7.2l-0.8 -1.8l-2.5 -8.9l-4.8 -3.7l-6.6 -12.2l-4.7 -1.8l-3.9 -7.9l2.2 -7.6l0.3 -7.4l-4.4 -14.3l6.9 -6.1l0.3 -4.4l-25.2 0.3l-14 -0.6l-6.5 -0.5l-5.9 0.1l-40 -1.4l0.1 9.1l-2.5 0.3l-11.7 -0.2l-4.9 -0.1l-0.1 13.4l-16.8 -2.5l-11 -3.4l-4.9 -2.7l-9 -1l-6.9 1.5l-3.1 6.9l-5 4.4l-2.1 10.2z"/><path data-id="01071" d="m590.2 92.8l1.2 36l7.8 6.6l-1.5 0.8l1.3 2.7l2.4 -0.1l37.7 0.1l9.6 0.1l-0.1 3.6l0.3 22.8l6 -4.2l8 3.9l0 3.1l0.4 8.1l3.6 8.2l7.2 -3.9l6.4 0.9l5.4 -2.8l3.3 0.5l10.5 -6.3l1.1 -0.4l0.7 -1.2l0.7 -1.2l5.1 -6.2l16 -12.5l26.7 -21.1l25.8 -40.6l5.5 -0.2l3.7 -3.4l7.2 -15l2 -11.2l12.3 -9.7l-3.4 -21.7l-1 -7.1l-0.2 -2.3l-1.6 -11.2l-61.2 -1.2l-1.2 0l-9.8 -0.1l-55.2 -0.4l-69.7 -0.5l1.4 5.5l4.7 2.1l0.6 3.7l7.8 4.2l0.6 2.6l0 3.8l-4.3 0.8l-2.6 -4.9l-4 -2.2l-4.3 3.4l-4.1 -0.8l4.2 7.6l-5.1 4.6l-6.1 9.4l1.2 5.4l5.7 9l-4.7 4.8l1.6 18.4l-1.2 6.4l-4.4 3.1z"/><path data-id="01073" d="m315.7 519l1.7 4.8l6 0.2l-0.1 4.7l8.4 0.4l0 5l8.5 2.6l1.2 7.4l4.8 0.1l0 9.8l9.6 2.6l0.8 5l4.1 0l0.1 5l0 2.3l4.9 0l0 4.8l9.7 0.2l0.1 5.1l11 0.1l6.1 4.9l0 2.8l0 6.9l10.9 0.1l12.3 0.2l0 -2.3l1.2 -0.7l2.5 -4.2l12.1 -3.6l0 -6.1l8.5 -6.7l1.2 -3.1l2.4 -2.3l12 0.2l2.5 0l0 -3.7l0.1 -5.9l14.4 -2l0.1 -7.4l4.8 0.2l2.4 -9.2l9.6 -0.2l2.1 -4.8l2.9 0.1l-0.1 -3l2.5 -4.1l4.9 -0.1l1.9 -5l11.4 -0.1l6.2 -0.1l12.2 -16.9l12.1 -2.2l0.1 -7.3l0 -2.5l-9.8 -2.6l0.1 -14.9l2.4 -4.8l0 -4.9l2.4 0l0 -4.7l2.5 0l-0.1 -2.5l0.1 -21.9l-4.9 -4.8l0 -9.9l-9.8 0l-2.9 0l-16.6 -0.2l0.7 -2.4l-31.8 -22.7l-8.2 -0.1l-26.7 -0.7l-14.7 9.4l-4.8 0l-0.6 4.9l-4.3 -0.1l0.1 5l-9.8 -0.3l0 4.9l-4.9 -0.1l0 8.8l-2.3 5.9l-2.5 0l0.2 13.9l-4.9 0.7l-0.1 9.8l-9.8 -0.2l0 9.7l-14.4 -0.1l0 5l-9.8 -0.1l0 4.9l-4.8 0l-2.1 6.9l2.1 5.5l3.1 2.2l-6.8 5.7l-6.3 -0.2l-5 8.4l-5.1 -5.5l-1.9 2.9l2.4 3.1l1.6 4.1l-6.7 -0.5l0.1 5.5l-12.6 -2.1l-3.2 7.2z"/><path data-id="01075" d="m56.7 485.4l-1.3 12.3l91.6 3.3l0 -39.3l-1.4 -93.5l0 -34.4l-9.9 -0.2l0.1 -9.8l-61.5 -2.1l-1 9.8l-0.7 6.3l-3.7 32.8l-0.8 7l-1.7 15l-1.3 12.2l-0.8 5.1l-0.3 4.7l-1.3 12.3l-0.9 8.5l-0.6 7l0 1l-0.4 4.3l-1.7 15.9l-1.4 13.8l-0.3 3.1l-0.3 2.7l-0.1 1.4z"/><path data-id="01077" d="m75.4 0l0.6 3.5l0.5 2.2l3.2 5.5l2.1 2.5l1.1 1.7l1.1 2.5l2.9 7.4l1.9 3.8l2.3 2.7l1.8 1.6l4.1 2.5l7 2.8l16.5 -4.3l15.1 6.8l9.6 6.5l5.2 9.8l3.7 11.7l16.5 14.1l7.1 7.4l8.1 3.1l11.1 -0.9l9.7 -3.8l7 -9.2l3.7 -1.3l5.2 -1.9l1.2 -0.1l4.8 -1.8l3 -1.7l5.2 -1.1l3.1 -1l2.5 -1.6l5.5 -5.2l16.8 -4.5l12.4 6.7l14.9 4.3l15.7 -1.7l7.3 2.9l12.9 15.5l10.4 -2.7l-4.9 -5.1l2 -3.5l4.3 -1.5l11.3 -9.4l1.2 -62.3l-1.7 0l-2.1 -0.1l-1.8 -0.1l-11 -0.3l-8.1 -0.2l-14 -0.3l-2.8 -0.1l-6.1 -0.1l-2.9 -0.1l-7.3 -0.1l-1.2 0l-2 0l-2.4 0l-47.2 -0.3l-5.3 0l-10.9 0.1l-2 0l-7.1 -0.1l-1 0l-2.5 0l-13.8 -0.2l-2.4 0l-1.7 -0.1l-21.8 -0.2l-5.7 0l-1.4 0l-13.8 -0.1l-13 -0.1l-3.2 0l-4.2 0l-56.6 -0.7z"/><path data-id="01079" d="m263.3 149.8l0 88.8l8.8 0.1l108.3 1.7l-0.1 -4.9l0.2 -34.5l0.9 -53.7l0.1 -10.6l0.2 -27.3l-4 -3.8l-5.4 -9.1l-9.1 -6.4l-14.3 -6.9l-10.6 1.6l-10.4 2.7l-12.9 -15.5l-7.3 -2.9l-15.7 1.7l-2.2 9l5 2.1l-3.2 5.3l-1.5 11.7l1.9 2.8l-6.6 4.3l-0.3 4.9l2.2 7.2l-4.5 5.7l-6.7 -1.3l1.9 3.5l-5.6 4l-1.6 5.6l-3.3 3.8l2 4l-3.1 3.1l0.2 3.8l-3.3 -0.3z"/><path data-id="01081" d="m774.7 776.4l0.3 33.6l0.1 4.6l9.6 -0.1l0.1 4.8l47.9 23.5l14.2 -0.1l0.4 6.1l0.9 22.8l21.5 -0.2l7.5 -0.1l-1 -19.1l30.4 -0.5l21.6 -0.3l24.6 -0.6l-0.4 -11.5l1.2 -0.5l2.4 0l12.3 -0.2l-0.9 -4.6l-4.3 -6.3l-3.3 -3.3l-9.3 -9l-3.4 -9.3l-2.8 -7.8l-4.4 -4.4l4.7 -4.3l-1.4 -3.9l-5.9 -5.3l-2.2 -10l2.4 -4.9l-1.2 -3.4l-3.2 -3.6l-1.4 1.7l-41.8 0.5l-2.3 4.8l-17.6 0.1l-5.8 0.1l-7.6 -0.1l-2.5 -4.7l-4.8 -0.1l0 4.9l-45.4 0.6l-4.7 0.2l-0.1 4.6l-19.4 0.5l0.1 4.8l-4.8 0.2z"/><path data-id="01083" d="m335.4 76.3l-2 3.5l4.9 5.1l10.6 -1.6l14.3 6.9l9.1 6.4l5.4 9.1l4 3.8l14.6 12.1l4.9 -0.6l8 6.1l4.1 2.3l3.3 3l2.1 1.8l18.3 11.4l13.1 4.3l6.5 3.7l13.1 1.8l0.9 -37.9l0.1 -18.9l0 -3.7l0.3 -24.9l0 -1.2l0.1 -9.3l0.3 -17.5l0.1 -16.6l0 -19.9l-10.3 0.1l-4.4 0l-2.8 0l-2.4 0l-2 0l-29.3 -0.8l-1.6 0l-7.6 -0.2l-3.1 0l-31.1 -0.7l-24.6 -0.6l-1.2 62.3l-11.3 9.4l-4.3 1.5z"/><path data-id="01085" d="m436.7 932.7l0.4 58.3l14.1 -0.1l-0.3 28.4l114.2 -0.8l12.1 0.3l-0.4 -28.6l-0.6 -52.1l-0.1 -11.6l-21.2 -13.3l-1.8 -5.7l4.6 -9.9l-6.2 -4.3l-10 1.9l-2.8 -8.2l-7.8 -3.8l-3.2 0l-3.8 4.5l-5.4 -4.3l0.4 -8l-1.3 -2.4l-9.9 2.8l-0.6 7l-7.8 7.5l-7.8 -2.4l-2.1 -3.7l0.3 -10.2l-2.6 -0.6l-6.4 5.1l-7.9 -1.8l-0.6 8.6l2 9.2l-7 10.6l-5 -0.4l-1.3 -7.7l1.7 -2.5l-9.9 3.9l0 6.3l6.8 1.3l-7.7 6.2l-2.9 5.6l6.3 9.3l5.6 2.7l3 -1.3l0 4.2l-27.3 -0.1z"/><path data-id="01087" d="m683.7 868.3l3.4 5.2l-1 6.6l5.8 8.7l0.7 7.2l6.2 0.8l3 3.3l1.2 7l9.8 9.2l5.7 -0.2l0 -10l5.8 4.5l0.5 14.9l3.8 3.8l1.8 1l117.9 -0.9l-0.1 -57.8l-0.9 -22.8l-0.4 -6.1l-14.2 0.1l-47.9 -23.5l-0.1 -4.8l-9.6 0.1l-0.1 -4.6l-3.7 0.1l-1 4.6l-24 0.2l0.1 7.4l0.3 21.4l-24.8 0.4l4.4 3.8l4.9 1.9l-5.6 0.6l-2.7 6.2l-3.4 2.5l-10.4 -2l-7.6 4.1l-4 -4.1l-3.3 4.3l-2.3 -3.6l0.8 6.1l-9 4.3z"/><path data-id="01089" d="m470.5 117.4l-0.9 37.9l10.3 -1.7l8.8 -9.2l5.5 -2.1l7.2 3.8l3.2 8.7l8.1 -1.1l6.1 -7.5l4.4 -1.7l8.5 2.2l4 4.7l0.9 5.3l-0.3 1.5l5.4 13.6l8.9 6.4l8.7 2.3l4.2 -2.8l8.4 1.4l3.2 -4.9l6.6 -2l-1 -6.2l6.3 1.6l4.1 -3.3l4.7 4.5l2.2 -0.9l1.6 -5.6l3.7 -3.4l1.3 -7.3l-6.2 -1.5l-0.7 -2.7l7.9 -2.2l0 -4.4l-6.6 -2.3l-1.3 -2.7l1.5 -0.8l-7.8 -6.6l-1.2 -36l4.4 -3.1l1.2 -6.4l-1.6 -18.4l4.7 -4.8l-5.7 -9l-1.2 -5.4l6.1 -9.4l5.1 -4.6l-4.2 -7.6l4.1 0.8l4.3 -3.4l4 2.2l2.6 4.9l4.3 -0.8l0 -3.8l-0.6 -2.6l-7.8 -4.2l-0.6 -3.7l-4.7 -2.1l-1.4 -5.5l-2.1 0l-21.9 -0.2l-10.2 0.2l-9.5 0.1l-14 0l-2.9 0l-7.6 -0.1l-4.3 0l-4.9 -0.1l-3.1 0l-11.5 -0.2l-5.2 0l-3.1 -0.1l-1 0l-30.5 0l0 19.9l-0.1 16.6l-0.3 17.5l-0.1 9.3l0 1.2l-0.3 24.9l0 3.7l-0.1 18.9z"/><path data-id="01091" d="m99 990l1.4 3.3l-1.1 8l1.1 3.5l5.2 4.3l0.8 -4.6l5.2 5.6l74.8 -0.1l38.4 -0.3l0 -3.6l12.6 -1.1l-0.3 -41.8l28.4 -0.1l-0.3 -39l2.6 -5l11.7 0.4l-0.2 -14.1l-14.3 0.1l-0.1 -57.7l-51.9 0.4l-5.1 0l0.1 -14.4l-23.4 0l-3 1.4l0.3 -7.7l-6 -1.1l-2.7 5l3.3 2.2l-0.9 2.4l-2.3 1l-13.6 -2.6l-3.5 1.6l-8.8 8.9l-2.5 6l-5.8 5.1l-5.4 0.8l-10.3 7.2l-3 7.7l-1.1 11l7.5 2.2l7.1 7.7l6.4 1l5.3 5.1l2.8 4.7l3.2 1.3l-0.3 4.4l0.6 1.6l-1.1 3.4l-3.1 -0.2l2.2 -6.2l-3.2 -0.8l-5.5 1.9l-2.2 -3.2l-4.4 4.4l-3.6 -0.7l0 4.3l-4.2 -0.5l-0.3 4.4l3 3.3l-1.6 8.8l2.1 5.2l-1.4 6.1l1.5 5.1l-4 13.3l-4 0l-4.6 14.2l2.1 6.4l-7.2 6.8l-4 -3l-3.1 0.3l-6.3 6.2z"/><path data-id="01093" d="m75.2 312.2l-1 9.5l61.5 2.1l-0.1 9.8l9.9 0.2l0 34.4l24.7 0.1l39.3 1.6l24.1 -0.2l-0.1 -29.3l0 -22.9l0.3 -34l0.3 -16.6l-0.1 -29.3l-26.8 -1.1l-49.7 -0.8l-73.9 -2.9l-0.6 6.4l-0.3 2.8l-2.8 24.6l-0.3 5.5l-0.9 4.9l-0.4 5l-2.3 20l-1 9.9z"/><path data-id="01095" d="m527.8 229.5l-0.1 9.1l9 0.3l20.1 0.3l5 4.6l1.8 10.1l2.5 0.1l3.8 9.2l3.8 5.7l2.2 3.3l6.2 7.7l2.3 2.9l18 20.9l2.8 4.3l31.7 -28.3l4.5 -0.2l4.7 -1.3l14.3 0.3l-0.1 -4.9l-0.4 -16.6l-0.1 -11.1l-0.3 -17.2l-0.3 -13.9l-2.5 -9.8l2.4 -8.1l14.7 -16.3l-7.2 3.9l-3.6 -8.2l-0.4 -8.1l0 -3.1l-8 -3.9l-6 4.2l-0.3 -22.8l0.1 -3.6l-9.6 -0.1l-37.1 -0.1l-3 0l6.6 2.4l0 4.4l-7.9 2.2l0.7 2.7l6.2 1.5l-1.3 7.3l-3.7 3.4l-1.6 5.6l-2.2 0.9l-4.7 -4.5l-4.1 3.3l-6.3 -1.6l1 6.2l-6.6 2l-3.2 4.9l-8.4 -1.4l-4.2 2.8l-8.7 -2.3l-8.6 -6.1l-5.7 -13.9l0.3 -1.5l-6.5 42.5l-2.2 16.6l-0.1 13.3z"/><g data-id="01097"><path d="m119.8 1490.8l-2.7 3.6l7.6 5l0.3 -4l0 -4.3l-3.3 -1.3l-2 1z"/><path d="m57.5 1543.7l-1.7 6.6l4.3 4.6l2.7 -2.3l0 -6.6l-0.7 -6.6l-3 -1.7l-1.7 6z"/><path d="m39.8 1582.1l1.7 3.8l5.4 0.6l7.2 -0.3l20 -4.7l11.5 -1.4l6.1 0.7l10.4 4.5l4 -5.1l3.9 -1.4l1.1 -1.4l-3.3 -3.5l-10.6 -7.7l0 3.3l-1.6 3.7l-3.7 0.5l-4.3 0.9l-5.2 0l-13.3 2.3l-10.1 2l-7.5 2l-4.4 0.3l-7.4 0.9z"/><path d="m11.5 1296.8l1.7 36.9l1 24.7l0.7 16.2l0.3 2.8l1.7 42.5l0.1 1.2l0.2 6.1l0.1 2.1l0.5 12.2l0.4 10.3l0.2 1.7l0 2.9l0.4 10.7l0.4 9.7l0.2 4.8l0.1 3.9l0.4 7.2l2 45.8l5.7 -5.2l3 -0.8l6.3 -0.5l2.5 0.3l3.5 2.6l0.9 3.3l1.4 0.3l5.8 -0.6l2.2 -3.9l6.1 0.2l15.7 6.6l1.2 -0.1l3.2 4.6l0 1l-2.2 0.5l-0.6 1.5l0.8 5.7l1.2 1.4l5.5 -2.5l4.5 -0.8l5.5 2.1l2.3 -5.7l1 -1l2.6 -4.8l2.3 -6.7l0.9 -16.2l-0.7 -8.2l1.6 -2.7l1.1 -3.2l-1.7 -7.1l-0.2 -2.5l0.8 -2.9l2.8 -4.5l2.2 -1.7l0.3 -5.7l-1.1 -5.5l3 -5.1l2.8 -3l3 -7.8l-1.6 -2.1l-0.7 -8.4l4.9 -2.5l2.7 -0.4l2.2 -2.5l1.3 -4l2.7 -3l1.1 -0.6l2.1 -4.3l-7.1 -17.9l1.1 -6.1l1.5 -2.9l7.3 -4.2l1 -5.6l11.9 -5.1l-2.8 -7.3l-7.4 -4.1l-1.7 -4.3l9.1 -14.2l0.6 -2l7.8 -3.4l-5.4 -8.6l-6 -2l2.4 -7.2l-2.3 -6l4 -4.5l-1.9 -2.4l4.5 -6.1l-2.1 -6.4l-4.1 -0.1l-3.6 -7l8.3 -10.5l1.8 -8.3l-7.3 -0.3l-1.8 -4.7l-4.5 -3.5l-9.4 9.5l-7.8 0l-77.9 0.1l0 9.6l-28.5 0z"/></g><path data-id="01099" d="m192.2 1226.8l0.2 4.4l5.2 5.9l14.2 -1.6l10.6 13.1l12.3 6.2l4.6 -0.5l15.8 5.6l10.1 -6.7l9.4 -4l17.2 -0.1l1.8 -5.2l7.7 -8l9.3 -5.5l3.7 -10.4l4 -1.8l9.9 -15l7.1 -4.9l11.5 -12.2l1.4 -0.5l5.1 -1l2.5 -6.5l8.7 -13.6l-0.3 -5l2.5 -10.3l3.9 -6.9l2.2 -8.9l0.7 -9.2l12.2 -3.2l3.6 -4.6l6.2 -3.6l-1.4 -9l2.7 -4.4l7.5 1.9l9.7 -2l2.6 -2.5l8.7 -2.9l4.1 -3.7l7.8 -2.3l-0.3 -25.5l-85.7 0.7l-8.5 -1.1l-71.5 0.8l0 5l-4.9 -0.1l0.6 38.3l-14.1 0.2l0.4 47l-9.4 8.6l-6.2 4.2l4.6 4.8l11.8 7.4l-0.2 4.2l-3.8 10.7l-7.3 7.4l-5.5 -0.4l-4.7 -4.6l-7.2 0.5l-5.6 5.1l-5.7 2.2l-5.5 8.9l0.9 9.8l-6.6 3.4l-2 -2.4l-0.3 -7.1l-2.3 -0.6l-1.4 6.6l-4.6 5z"/><path data-id="01101" d="m552.9 886.7l-1.4 6.6l6.2 4.3l-4.6 9.9l1.8 5.7l21.2 13.3l0.1 11.3l0.6 52.4l27.7 -0.3l1 0.5l0.4 28.1l30.9 -0.5l54.6 -0.4l-0.4 -27.5l-0.3 -29.8l-0.4 -35.9l3.5 0l0 -7.2l18.8 -0.7l-9.8 -9.2l-1.2 -7l-3 -3.3l-6.2 -0.8l-0.7 -7.2l-5.8 -8.7l1 -6.6l-3.4 -5.2l-5.5 0.7l-1.1 3.9l-8.8 -2.2l-2.3 -3l-8.4 1.5l-3.7 -1.7l1.1 -3.9l-7.1 3.1l-0.9 -3.2l-10.6 -0.6l3.3 -3.8l-4.9 -1.3l-10.9 -14.4l-7.2 -2.1l0.2 4.9l-7.9 4.6l-6.4 -5.4l1.5 7.3l-4.8 7.8l4.7 9.4l-10.1 -5.9l-15 1.9l-3.6 5.6l-9.4 3.3l-3.2 -2l-1.4 0.8l-0.6 8.7l-7.9 4.3z"/><path data-id="01103" d="m380.6 201l-0.2 34.5l5.1 0.5l70.7 1.4l6.7 0.1l64.9 1l0.1 -9.1l0.1 -13.3l2.1 -15.9l5.8 -42.3l-0.1 -6.2l-4 -4.7l-8.5 -2.2l-4.4 1.7l-6.1 7.5l-8.1 1.1l-3.2 -8.7l-7.2 -3.8l-5.5 2.1l-8.8 9.2l-10.3 1.7l-13.1 -1.8l-6.5 -3.7l-13.1 -4.3l-18.3 -11.4l-2.1 -1.8l-3.3 -3l-4.1 -2.3l-8 -6.1l-4.9 0.6l-14.6 -12.1l-0.2 27.3l-0.1 10.6l-0.9 53.7z"/><path data-id="01105" d="m264.5 790.3l0.2 57.5l0.1 57.7l14.3 -0.1l14.3 -0.2l-0.4 -57.8l44 -0.3l12.5 -1l30.2 -0.5l3.4 -5.4l3 -9.8l2.3 -0.9l1.3 -6.7l-1.2 -4.3l6.8 -4.6l4.5 -4.9l-2 -7.2l1.2 -7.3l3.2 -7l-0.3 -10.6l4.3 -11.2l-0.4 -35.7l-22.1 0.3l-31.9 0.3l-5.8 1l-24 0.2l-0.1 -14.5l-28.4 0.2l-0.1 14.5l-14.2 0.1l0 28.9l-0.5 5.1l0 24l-14.3 0.1z"/><path data-id="01107" d="m39.7 651.8l-2.6 27.1l47 -1.6l0 -4.3l8 -5.6l-1.8 -4l9.5 -1.5l8.1 1.8l3.1 -5.5l2.8 0.5l6 6.2l3.3 -3.2l-2.2 -3.8l3.5 -3.3l12.7 -5.7l3.5 1l8.5 -12.3l1.3 0.5l15.9 -8.7l11 -4.8l-0.3 -43.6l-0.6 -80.4l-29.5 0.3l-91.6 -3.3l-0.6 5.9l-0.2 1.3l-3.8 37.9l-3.3 32.4l-0.5 4.6l-2.3 22.5l-0.8 5.9l-0.5 6.4l-3.9 37z"/><path data-id="01109" d="m634.5 1070l0 5.7l14.2 -0.2l0.3 41.9l-3.6 1l0.3 4.2l-5.5 6.3l-0.3 3.8l9.4 -0.4l99.5 -0.1l11.4 0l1.9 -0.5l3.2 -4.2l3.8 -9.2l-0.5 -12.3l3.3 -3l0.3 -8l2.7 -5.3l6 -3.5l3.2 -8.1l-3.2 -8.1l1.6 -8.7l-2.6 -7.3l5.6 -7.7l-37.2 0l0.3 -28.6l-26.3 0l0 -4.8l-2.3 -2.4l-0.3 -19.2l-5 0l-0.1 -2.4l-9.6 0.1l0 -2.4l-1.1 2.4l-7.2 0l-2.3 2.3l-3.6 -1.2l0.4 27.5l-54.6 0.4l4.6 11.8l0.5 12.3l-2.6 7.5l-0.2 12.4l-4.6 8.1z"/><path data-id="01111" d="m787.6 573.9l-0.9 66.5l16.9 -0.2l100.7 -0.2l-1.2 -7.2l-16 -99.6l-2.9 -18.3l-7.4 -2.7l-4.7 -3.5l-1.3 3l-81.2 -1.2l-1.8 57.4l2.5 0.1l-0.1 6l-2.5 -0.1z"/><path data-id="01113" d="m848 871.7l0.1 57.8l1.7 29l4.8 0l42.5 -0.4l-0.5 3.1l6.6 4.9l2 6.9l9.3 6.9l1.2 5.7l1.8 1l37.9 -0.2l0.6 -8.2l-3.3 -16l13.2 -14.7l13.8 -6l-0.8 -1.6l-4.1 -1.2l3.3 -4l11.8 -0.9l1 -2.9l2.1 -5.9l6.9 -4.4l-12.4 -12l-6.3 -2.6l-12.7 -5.2l-1.7 -4.8l6.9 -8.8l0.4 -5.6l1.3 -3.6l0.5 -8l3.3 -2.5l-2.3 -6.7l-6.6 -3.4l0 -7.3l-2 -10.1l-0.3 -1.4l-12.3 0.2l-2.4 0l-1.2 0.5l0.4 11.5l-24.6 0.6l-21.6 0.3l-30.4 0.5l1 19.1l-7.5 0.1l-21.5 0.2z"/><path data-id="01115" d="m529 407.9l-0.1 12.3l9.8 0l0 9.9l4.9 4.8l-0.1 21.9l0.1 2.5l-2.4 -0.1l-0.1 4.8l-2.4 0l0 4.9l-2.4 4.8l-0.1 14.9l9.8 2.6l0 2.5l9.8 -0.1l-0.1 14.6l28.9 0l-0.1 37.3l9.1 -6.7l2.7 -4.7l3.6 -6.5l3.5 -2.7l8.4 -19.6l4.9 -0.4l-0.7 5.3l3.4 2.5l5 -1.9l2.4 -8.7l10.1 -7.8l-0.6 -3.2l-4.4 -2.3l-3.5 -9.4l2.2 -2.2l6.8 1.2l1.3 -0.9l-4.6 -5l8.7 -3.5l1.3 -5.8l-2.1 -7.8l-7.9 -5.7l-1.2 -4.3l5.1 -3.3l2.8 0.9l1.6 5.8l4.4 2.6l2.7 -2.5l0.5 -10.1l5.5 -0.6l2 -4.4l9.8 -6.4l5.3 -5.7l5.1 -1.1l-5.6 -11.7l3.6 -8.9l-3.9 -6.1l3 -1.4l-5.2 -6.5l-6.6 1.5l-3.4 -6.7l-1 -7.7l-8.4 1.5l-1.8 -7.1l-4.5 -2l-0.2 -6.1l-0.6 -6.9l-4.3 -2.4l-4.3 -5.6l-8.7 2.1l-6 5.8l-7.4 -7.9l-3.4 1.8l-9.9 14.7l1 2.6l-7.6 8.6l1.9 6.9l-9.7 8.3l-7.9 8.7l-8.9 5.3l-2.1 -2l-9.8 3.6l-9 1.5l-2.6 3l-15.6 0z"/><path data-id="01117" d="m403.6 593.8l0.3 26.9l10.3 1.3l5.4 1.2l0.1 18l5.1 1.8l-0.2 6.6l4.9 0l0 4.9l14.7 4.7l-0.1 -7.3l10.9 0.3l5 0.8l6.3 -0.1l20.2 -0.1l33.5 -0.2l1.7 5l14 12l4.7 -1.8l5.4 1.3l-0.8 -12.1l3.9 -3.6l-1.4 -6.9l5.6 -4.8l8.7 -7.4l-6.4 -7.7l-0.1 -3.7l-5.5 -6.5l4.7 -7.6l7 -0.4l-1.5 -7.2l5.4 -6l3.2 0.2l1.9 -2.5l1.3 -3.7l-2.8 -7l6.7 2.9l4.7 -0.8l9 -5.7l0 -4.9l-1.7 -3.4l-0.1 -6.1l1.5 -3.8l5.9 -2.1l-3.3 -6.5l-7.2 -6.2l0.1 -37.3l-28.9 0l0.1 -14.6l-9.8 0.1l-0.1 7.3l-12.1 2.2l-12.2 16.9l-6.2 0.1l-11.4 0.1l-1.9 5l-4.9 0.1l-1.9 3.5l-0.5 3.6l-2.9 -0.1l-2.1 4.8l-9.6 0.2l-2.4 9.2l-4.8 -0.2l-0.1 7.4l-14.4 2l-0.1 5.9l0 3.7l-2.5 0l-12 -0.2l-2.4 2.3l-1.2 3.1l-8.5 6.7l0 6.1l-12.1 3.6l-2.5 3.8l-1.2 1.1l0 2.3l-12.3 -0.2z"/><path data-id="01119" d="m16.6 883.5l-2.1 21.5l136.9 -0.6l-3.2 -1.3l-2.8 -4.7l-5.3 -5.1l-6.4 -1l-7.1 -7.7l-7.5 -2.2l1.1 -11l3 -7.7l10.3 -7.2l5.4 -0.8l5.8 -5.1l2.5 -6l8.8 -8.9l3.5 -1.6l13.6 2.6l2.3 -1l0.9 -2.4l-3.3 -2.2l-5.7 -4l-0.3 -9.1l-6.5 -6.8l0.1 -2.6l4.3 -3.2l5.7 1.1l0.5 5.2l5.4 -4.9l-4.8 -5l-5.3 -0.4l-7.7 2.5l-1.9 -3.4l-4.7 -2.5l-5.2 1.8l-8.3 5.3l-9.2 3.3l-13.2 2.4l-6.1 -8.7l0 -6.3l6.7 -2.6l-0.8 -9.2l4.8 -4.4l-3 -3.1l-7.5 4.3l-8.1 -1.7l-2.4 -3.9l8.5 -2.7l1 -3.4l-5.5 -6.6l-2.3 -10.5l1.9 -2.8l6.6 2.1l4.1 -6.4l-4.1 -4.1l-7.3 2l-7.6 -11.4l-4.1 2.7l-9.1 -1.8l6.9 -7.5l-7 -6.2l-2.7 -13l-4.9 -4.7l3.1 -3.6l5.9 1.2l0.8 -3.6l-2.8 -0.9l-0.5 -5.6l5.2 2.7l2.2 -3.4l-2.8 -2l-1.3 -8.4l-47 1.6l-2.1 20.7l-1.8 17.9l-3.9 42.3l-1.4 11.9l-2.7 28.1l-1.6 16.2l-3.1 30.7l-1.1 11.7l-1.8 16.7l-0.7 6.4l-0.4 2z"/><path data-id="01121" d="m554.5 608.7l-4.7 7.6l5.5 6.5l0.1 3.7l6.4 7.7l-8.7 7.4l88.4 -0.5l0.4 -30.4l14.6 0.4l0.7 -34l4.8 0.1l24.9 0.6l8.7 0l1.1 -29.3l9.8 0l0.1 -4.8l4.8 -0.1l0.3 -19.5l4.9 0l0.1 -14.7l14.8 0l15.4 -14.4l0.2 -4.8l0.4 -9.8l-22.6 -0.1l-33.3 -0.2l-0.5 -4.8l-6.9 -1l-0.3 -5.7l-0.8 -8.5l-6.6 -9.1l-1.5 -0.4l-6.9 -0.4l-18.4 -1.1l-2.7 2.5l-4.4 -2.6l-1.6 -5.8l-2.8 -0.9l-5.1 3.3l1.2 4.3l7.9 5.7l2.1 7.8l-1.3 5.8l-8.7 3.5l4.6 5l-1.3 0.9l-6.8 -1.2l-2.2 2.2l3.5 9.4l4.4 2.3l0.6 3.2l-10.1 7.8l-2.4 8.7l-5 1.9l-3.4 -2.5l0.7 -5.3l-4.9 0.4l-8.4 19.6l-3.5 2.7l-3.6 6.5l-2.7 4.7l-9.1 6.7l7.2 6.2l3.3 6.5l-5.9 2.1l-1.5 3.8l0.1 6.1l1.7 3.4l0 4.9l-9 5.7l-4.7 0.8l-6.7 -2.9l2.8 7l-1.3 3.7l-1.9 2.5l-3.2 -0.2l-5.4 6l1.5 7.2l-7 0.4z"/><path data-id="01123" d="m688 733.2l-1.7 2.5l1.7 2.6l0 19l9.8 0l-0.2 -4.7l4.8 0l0.2 4.7l16.6 0.1l4.3 0l-3 12.4l-4.7 5.9l-1.2 7.1l6.7 10l-0.7 4.8l-1.2 6.1l1.9 18.8l-0.8 19.1l1.2 2.3l24.8 -0.4l-0.3 -21.4l-0.1 -7.4l24 -0.2l1 -4.6l3.7 -0.1l-0.3 -33.6l4.8 -0.2l-0.1 -4.8l19.4 -0.5l0.1 -4.6l4.7 -0.2l-0.1 -56l0.1 -69.9l-16.9 0.2l-27.9 0.5l-13.4 0.3l-48.3 -0.3l0 4.9l-9.7 0.1l0.2 30.8l0 19.3l0.2 37.2z"/><path data-id="01125" d="m176.5 500.8l0.6 80.4l0.3 43.6l-0.1 5.6l1.8 14.3l-0.2 25.5l22.3 0l10.5 -0.2l-0.2 3.6l82 1.1l28.9 -0.9l0.2 -6.1l1.8 -23.1l8.3 -13l23.1 0.8l0 -22l13.1 -12l2.4 -1.2l6 0.1l0.1 4.8l4.9 0l7.7 -8.5l3 0l0 -6.9l0 -2.8l-6.1 -4.9l-11 -0.1l-0.1 -5.1l-9.7 -0.2l0 -4.8l-4.9 0l0 -2.3l-0.1 -5l-4.1 0l-0.8 -5l-9.6 -2.6l0 -9.8l-4.8 -0.1l-1.2 -7.4l-8.5 -2.6l0 -5l-8.4 -0.4l0.1 -4.7l-6 -0.2l-1.7 -4.8l3.2 -7.2l12.6 2.1l-0.1 -5.5l6.7 0.5l-1.6 -4.1l-14.3 -0.4l-0.1 -24.5l-14.7 0.1l0 -4.9l-14.7 -0.1l-58 -2.6l0 9.8l-9.8 0.3l0 19.5l-5.8 0.2l-13.7 0.5l-29 -1.8z"/><path data-id="01127" d="m233.6 340.6l0.1 29.3l0 14.5l29.1 1.5l0.9 58.9l29.2 1l0 29.2l14.7 0.1l0 4.9l14.7 -0.1l0.1 24.5l14.3 0.4l-2.4 -3.1l1.9 -2.9l5.1 5.5l5 -8.4l6.3 0.2l6.8 -5.7l-3.1 -2.2l-2.1 -5.5l2.1 -6.9l4.8 0l0 -4.9l9.8 0.1l0 -5l14.4 0.1l0 -9.7l9.8 0.2l0.1 -9.8l4.9 -0.7l-0.2 -13.9l2.5 0l2.3 -5.9l0 -8.8l4.9 0.1l0 -4.9l9.8 0.3l-0.1 -5l4.3 0.1l0.6 -4.9l-0.2 -9.9l-2.5 -4.5l-8.5 -0.9l-3.6 -1.8l-0.1 -7.6l-23.7 -0.4l-2.5 -2.8l5.2 -2.7l-1 -4.3l-5.3 -5.4l-2.2 -8.2l-6.1 -1.9l-4.7 -9.5l-5 -4l-5.9 0.8l-2.8 6l-4.7 -3l-13.8 -0.2l-65.2 -0.7l-38 -1.9z"/><path data-id="01129" d="m2.5 1106l1.3 24.2l1.9 40.6l0.4 6.1l0.1 7.2l0.4 7.7l0.3 4.8l1 21.3l1.5 28.8l0.3 4.9l-0.1 1.9l0.2 5.1l1.7 38.2l28.5 0l0 -9.6l77.9 -0.1l7.8 0l9.4 -9.5l4.5 3.5l8.8 -0.1l-1.5 -9.7l-0.5 -4.5l4.8 -5.8l-3.5 -6.4l-5.4 -1.9l-1.6 -2.7l-4.7 -0.5l2.9 -3.3l5.8 0.6l-0.6 -3.9l2.8 -5.4l-4.8 -4.9l1.4 -1.6l9.8 1.1l0.4 -7.1l3.7 0.2l0.6 3.6l5.4 -13.4l-1.1 -2.7l1.5 -6.5l-3 3.6l-5.8 -2.8l0.4 4.2l-7.5 0.5l4.6 -7l4.4 0.7l1.3 -3.8l-5.7 -0.6l4.7 -5.4l-6.7 -5.9l5.5 -2.4l-1 -5.7l3.6 -8.1l-5.1 -3.7l-5 -7.8l-7.8 -1.3l-3.2 -2.7l-10.3 -4.4l-3.5 -2.7l-2.5 -3.9l4.7 0.4l-1.2 -4.4l-6.6 0.2l-5.8 -3.6l-2.2 -3.7l1.6 -3.5l-2.7 -4.6l-1.5 -9.3l3 -3.6l-2.3 -5.4l-0.4 -4.3l-105 0.4z"/><path data-id="01131" d="m224.7 1006.1l0 3.6l0.3 38l9.4 -0.1l3.4 1.9l0.2 14.2l33.3 -0.7l71.5 -0.8l8.5 1.1l85.7 -0.7l-0.6 -43.1l14.3 -0.2l0.3 -28.4l-14.1 0.1l-75.6 0.2l0.6 -5.7l-4.5 -1.8l0.4 -5.2l-9.2 -2.5l-6.2 -9.4l-4.4 -0.5l2.5 -4l-3 -3.7l-5 0.9l-3.3 -7.8l-7.1 -4.4l-3 -4.6l-6.9 -2.1l-3.4 1.5l-2.5 -8.1l-3.9 -0.4l-1.6 -4.7l-7.9 -2.2l-6.1 -8.2l-7.7 1.3l-11.7 -0.4l-2.6 5l0.3 39l-28.4 0.1l0.3 41.8l-12.6 1.1z"/><path data-id="01133" d="m233.5 317.7l0 22.9l38 1.9l65.2 0.7l13.8 0.2l4.7 3l2.8 -6l5.9 -0.8l5 4l10.9 0.3l0.3 -60.7l0.2 -18.8l0.1 -23.9l-108.3 -1.7l-8.8 -0.1l-29.3 -0.8l0.1 29.3l-0.3 16.6l-0.3 34z"/></svg>
