<?xml version="1.0" encoding="UTF-8"?>
<!DOCTYPE svg PUBLIC '-//W3C//DTD SVG 1.1//EN' 'http://www.w3.org/Graphics/SVG/1.1/DTD/svg11.dtd'>
<svg viewBox="0 0 1000 1586.59" xmlns="http://www.w3.org/2000/svg">
  <g data-id="001">
    <path d="m434.074 787.474l-0.341 6.592l5.724 25.37l-2.357 10.06l4.442 7.796l3.304 8.741l-1.734 1.616l4.183 4.453l2.834 5.99l-1.963 3.86l4.797 0.285l7.116 4.496l-5.875 3.077l0.472 4.958l4.608 7.138l3.305 2.641l2.238 5.439l-2.102 4.476l-1.677 2.498l1.343 7.684l4.978 0.442l7.005 -10.598l-2.032 -9.207l0.581 -8.591l7.92 1.816l6.362 -5.087l2.591 0.556l-0.316 10.163l2.146 3.73l7.757 2.435l7.796 -7.516l0.608 -6.972l9.883 -2.799l1.269 2.357l-0.387 8.035l5.443 4.269l3.756 -4.517l3.159 0.004l7.817 3.796l2.792 8.172l9.977 -1.87l1.359 -6.57l7.907 -4.282l0.638 -8.653l1.396 -0.781l3.223 1.982l9.361 -3.337l-0.295 -39.294l-0.061 -16.744l-0.187 -42.437l-31.061 0.109l-52.956 0.452l0.231 14.575l-16.224 0.336l-12.568 0.199l-28.188 -1.343z" />
  </g>
  <g data-id="003">
    <path d="m123.878 1586.08l4.102 0.113l4.067 -1.094l10.532 -1.217l10.083 -0.275l24.459 1.03l10.576 -0.704l18.146 -3.654l21.944 -2.917l21.074 -6.315l6.492 -1.674l3.785 -0.395l7.313 -1.543l-0.016 -1.12l2.504 -2.678l11.86 -3.256l0.77 -3.081l-6.008 0.924l-2.003 -0.924l-0.924 -2.002l1.541 -1.694l2.619 -1.078l4.569 -2.175l1.367 -0.97l2.149 -2.522l0.083 -5.238l0.028 -1.52l0.782 -1.746l2.024 -1.91l0.877 -1.453l-0.614 -1.908l0.056 -1.553l0.949 -1.423l1.535 -2.362l0.614 -1.067l1.926 -1.165l2.651 0.356l1.2 0.065l1.507 -0.453l1.311 -1.585l3.46 -1.747l1.2 -0.777l3.043 -2.457l1.277 -1.993l-0.097 -1.24l-0.486 -1.343l-3.487 -1.769l-3.014 -0.486l-1.368 0.324l-2.176 -0.744l-0.893 -1.133l-1.897 -0.291l-2.902 -2.687l-1.256 -1.618l-0.279 -1.943l-1.144 -0.842l0.474 -1.846l0.67 -2.007l-0.167 -1.522l-1.979 -3.097l-1.382 -0.461l-1.25 -1.191l0.336 -1.007l0.019 -2.182l-0.044 -2.19l3.11 -7.151l1.116 -0.364l0.991 -1.262l0.517 -1.916l1.012 -0.118l1.05 -0.453l0.554 -1.448l-0.517 -1.055l1.116 -1.262l1.612 -3.32l0.608 -5.26l0.547 -1.122l1.486 -0.721l0.547 -1.011l0.637 -2.125l-0.177 -2.623l0.525 -1.178l0.052 -1.256l-0.657 -4.244l-0.347 -1.345l-0.022 -2.022l-2.403 -3.979l-0.347 -1.68l0.044 -1.093l-1.613 -0.938l-1.894 -0.625l-1.495 -1.101l-1.532 -1.71l-1.576 -0.007l-1.058 -0.588l-1.051 -1.339l-1.613 -1.398l-2.117 0.439l-2.62 -1.063l-1.133 -1.443l-1.125 -0.424l-1.437 -2.038l-0.459 -1.183l-1.621 -0.647l-2.717 -0.601l-1.547 -0.401l-0.791 -1.533l-1.835 -2.344l-3.316 -1.549l-2.51 -1.682l-0.77 -2.041l-0.014 -1.619l-0.31 -2.15l-1.599 -1.987l-1.088 -1.467l0.311 -2.158l-1.955 -2.465l-2.073 -1.362l-1.318 -1.883l-1.097 -0.923l-1.089 -0.469l-1.341 -2.479l-1.401 -1.377l-1.674 -0.856l-1.793 -0.633l-1.727 -1.184l-0.319 -1.466l-0.541 -1.132l-2.069 -1.303l-1.378 -0.67l-0.379 -1.84l-1.913 -1.742l-0.659 -2.005l0.075 -1.705l-2.431 -2.847l1.381 -3.836l1.559 -2.278l1.007 -0.909l-0.483 -2.012l0.088 -1.245l1.727 -1.282l0.503 -2.303l0.659 -1.953l1.001 -2.394l1.556 -4.025l1.223 -1.469l1.742 -4.132l0.8 -4.221l-0.483 -1.611l-0.594 -1.156l-0.297 -1.096l0.4 -1.239l-1.129 -2.431l-0.684 -2.64l-4.535 -0.545l0.004 -14.209l-0.132 -66.331l-4.558 0.498l-12.331 -6.221l-10.566 -13.101l-14.193 1.558l-1.794 1.184l-6.712 -2.945l-2.341 -5.317l-1.381 4.043l6.473 7.737l0.07 2.336l-4.459 1.952l-4.665 -2.877l-2.817 1.084l-1.503 5.298l-4.349 -0.304l3.398 4.163l-2.099 2.584l2.43 2.703l-6.738 -1.419l-0.984 3.031l4.211 5.786l-3.193 1.222l-2.742 -3.632l-2.621 5.797l-2.906 -2.072l-4.648 1.692l-2.065 3.851l-9.194 -1.818l1.471 9.745l-8.804 0.116l1.837 4.706l7.3 0.334l-1.801 8.33l-8.272 10.477l3.622 7.006l4.057 0.056l2.107 6.416l-4.52 6.12l1.91 2.37l-3.989 4.526l2.283 5.993l-2.391 7.158l6.037 1.956l5.375 8.579l-7.819 3.423l-0.609 1.989l-9.052 14.172l1.663 4.328l7.393 4.051l2.771 7.267l-11.864 5.069l-0.987 5.617l-7.282 4.245l-1.535 2.89l-1.15 6.114l7.066 17.875l-2.065 4.326l4.916 2.073l2.674 1.128l7.034 5.264l5.378 0.464l1.576 1.537l3.271 5.395l1.902 6.571l-0.677 9.694l0.984 3.122l0.988 1.02l1.039 2.31l0.686 4.895l-1.014 4.313l-1.618 3.796l-6.198 12.466l0.405 2.026l2.146 1.619l1.166 1.766l1.645 7.931l1.459 10.325l0.716 1.572l11.531 8.388l3.128 1.607l2.42 0.335l2.202 2.627l1.635 3.995l0.418 1.022l5.752 6.824l3.502 2.749l6.685 4.04l4.811 6.62l0.071 4.5l-3.171 4.827l-5.894 2.62l-4.001 0.384l-4.369 -0.4l-11.815 4.523l-5.374 0.549l-3.867 -0.209l-2.026 -0.741l-3.712 -2.037l-1.251 -1.767l-4.965 -2.636l-3.61 1.585l-4.986 6.766l-15.945 1.688l-1.474 2.479z" />
  </g>
  <g data-id="005">
    <path d="m762.267 1131.71l-1.906 0.512l45.43 0.158l33.038 -0.983l14.119 0.36l0.111 -28.586l55.796 1.396l1.831 -2.645l0.971 -10.281l4.944 -1.519l11.128 -8.87l5.51 3.147l-1.437 -5.406l-0.751 -2.827l1.479 -8.635l-2.958 -7.882l3.345 -14.538l2.766 -3.203l10.548 -16.897l1.897 -6.314l3.386 -9.21l2.618 -7.122l1.248 -16.11l-37.872 0.242l-1.771 -0.95l-1.209 -5.68l-9.312 -6.872l-1.993 -6.904l-6.562 -4.901l0.542 -3.095l-42.527 0.422l-4.8 2.406l-0.801 28.783l0.513 12.182l-23.485 0.295l0.079 4.726l-19.026 0.901l-3.35 0.887l-3.409 10.989l-12.277 16.189l-2.484 10.3l-5.559 7.72l2.59 7.323l-1.626 8.652l3.194 8.148l-3.188 8.105l-5.995 3.541l-2.652 5.289l-0.283 8.027l-3.29 3.022l0.492 12.305l-3.819 9.221l-3.233 4.182z" />
  </g>
  <g data-id="007">
    <path d="m293.346 674.827l0.205 42.847l28.385 -0.205l0.081 14.483l23.968 -0.238l5.792 -0.974l31.906 -0.278l22.051 -0.341l39.913 0.256l-0.028 -3.844l-0.001 -17.97l-0.18 -49.227l-1.204 0.008l-14.73 -4.714l-0.006 -4.907l-4.93 0.019l0.218 -6.609l-5.143 -1.82l-0.071 -18.021l-5.367 -1.235l-10.268 -1.319l-0.349 -26.901l-10.852 -0.149l-3.043 0.025l-7.662 8.465l-4.858 -0.006l-0.1 -4.793l-6.036 -0.115l-2.391 1.236l-13.137 11.983l-0.046 21.965l-23.056 -0.801l-8.268 13.035l-1.757 23.082l-0.185 6.131l-28.851 0.932z" />
  </g>
  <g data-id="009">
    <path d="m421.304 389.004l2.526 4.488l0.179 9.931l4.779 -0.004l14.674 -9.381l26.669 0.74l8.156 0.14l31.769 22.703l-0.691 2.389l16.645 0.178l2.878 0.016l0.076 -12.308l15.558 0.026l2.589 -2.986l8.984 -1.463l9.77 -3.636l2.11 2.014l8.855 -5.346l7.938 -8.672l9.721 -8.323l-1.899 -6.895l7.632 -8.556l-0.969 -2.596l-12.425 0.127l8.598 -10.669l1.846 -4.921l0.092 -18.309l2.716 -10.707l5.342 -9.024l-2.831 -4.287l-18.038 -20.902l-2.342 -2.859l-6.227 -7.669l-2.211 -3.335l-3.837 -5.738l-3.751 -9.19l-2.48 -0.068l-9.187 -0.293l-3.827 3.787l-5.377 -1.132l-1.244 8.433l-4.455 0.45l-4.588 12.442l2.954 0.627l-5.201 5.659l-1.111 0.092l-7.505 11.728l-1.791 5.528l-6.412 -1.069l-8.182 5.051l-0.941 5.249l-2.094 1.554l-1.291 1.123l-0.493 -1.202l-1.347 0.646l-1.549 0.694l-1.157 1.156l-0.699 -1.417l-0.259 -1.005l0.314 -1.218l-1.028 -0.692l-0.888 1.445l-1.029 1.125l-1.215 0.777l-0.438 1.032l1.478 1.561l1.032 1.596l0.92 1.762l1.78 2.013l-4.349 -0.476l-0.144 7.045l-5.333 2.559l-4.496 6.742l-1.03 3.911l-5.495 1.498l-1.096 7.318l-7.723 3.576l-0.094 3.748l-7.841 -1.719l-0.334 5.38l-4.158 -3.057l-8.917 6.005l-2.711 -1.189l-2.27 6.345l-10.705 2.76l1.169 12.024l-12.043 5.119z" />
  </g>
  <g data-id="011">
    <path d="m690.349 924.257l0.362 35.921l0.281 29.827l3.571 1.184l2.272 -2.295l7.16 -0.041l1.104 -2.417l0.006 2.41l9.633 -0.06l0.083 2.435l4.968 0.001l0.279 19.186l2.344 2.369l-0.028 4.802l26.313 0l-0.279 28.568l37.217 0.027l2.484 -10.3l12.277 -16.189l3.409 -10.989l3.35 -0.887l19.026 -0.901l-0.079 -4.726l23.485 -0.295l-0.513 -12.182l0.801 -28.783l4.8 -2.406l-4.799 0.033l-1.703 -29.047l-117.941 0.882l-1.781 -0.97l-3.756 -3.77l-0.504 -14.911l-5.768 -4.543l-0.042 10.002l-5.749 0.2l-18.769 0.673l0.003 7.162l-3.519 0.031z" />
  </g>
  <g data-id="013">
    <path d="m436.489 1019.41l0.569 43.069l0.279 25.473l-0.243 39.472l3.574 5.352l1.633 7.907l3.778 4.656l2.486 7.931l-0.181 2.225l7.51 7.129l38.46 0.412l56.46 -0.453l-0.089 -42.557l14.202 -0.121l0.741 -14.92l-0.121 -42.843l2.246 -3.672l-2.304 -1.179l-0.441 -38.851l-114.232 0.81l-14.33 0.162z" />
  </g>
  <g data-id="015">
    <path d="m650.014 439.056l-0.516 10.074l18.405 1.105l6.916 0.364l1.462 0.418l6.635 9.113l0.832 8.5l0.3 5.676l6.937 1.024l0.543 4.84l33.307 0.158l22.605 0.147l-0.417 9.827l14.492 0.049l0.505 -14.713l4.964 0.193l-0.122 -4.727l9.714 -0.763l-0.152 -4.012l9.731 0.209l4.808 -7.121l0.148 -41.905l4.689 -0.057l0.099 -4.846l4.861 0.063l0.022 -4.899l4.857 0.084l0.219 -14.72l-14.489 -0.194l0.032 -9.669l9.798 0.137l0.011 -5.003l19.358 0.201l0.666 -17.576l0.185 -4.897l-50.967 -3.676l-7.502 -0.523l-0.556 11.154l-19.55 -3.957l-9.865 -0.993l-9.872 -0.094l-4.995 2.455l0.028 12.308l-9.683 0l-0.056 -4.909l-9.683 2.152l0 3.766l0 3.53l-4.827 -0.269l-0.299 4.871l-2.128 4.808l-7.339 -0.404l0.056 4.906l-7.047 -0.371l-0.711 3.697l-4.52 -0.202l3.86 6.068l-3.607 8.852l5.581 11.655l-5.083 1.062l-5.307 5.679l-9.763 6.432l-2.036 4.365l-5.533 0.555z" />
  </g>
  <g data-id="017">
    <path d="m803.631 640.216l-0.072 69.895l0.079 56.022l45.371 -0.597l0 -4.876l4.772 0.1l2.483 4.71l7.65 0.075l5.781 -0.064l17.633 -0.078l2.338 -4.777l41.801 -0.464l1.379 -1.731l-2.45 -2.758l4.657 -4.41l-3.106 -2.896l-9.659 -9.804l4.03 -10.35l-8.623 -6.157l-0.388 -2.973l-0.843 -6.465l-3.852 -22.975l-1.323 -7.892l-4.067 -24.283l-0.389 -2.345l-2.544 -15.152l-100.658 0.245z" />
  </g>
  <g data-id="019">
    <path d="m733.689 259.267l0.061 14.661l0.628 30.115l2.277 0.253l5.926 -5.107l5.849 0l-1.692 8.398l16.724 37.371l-0.513 6.98l7.502 0.523l50.967 3.676l-0.185 4.897l9.564 -0.327l0.148 -4.883l19.438 -0.053l7.466 -2.375l-1.976 -12.104l-3.994 -24.304l-0.452 -2.877l-1.777 -11.315l-0.348 -3.606l-7.139 -42.365l-0.841 -5.08l-0.174 -1.25l-0.945 -5.724l-2.335 -14.138l-0.995 -5.509l-2.95 -16.343l-4.946 -27.426l-1.693 -9.228l-1.039 -5.77l-0.447 -2.004l-5.499 3.416l-3.06 4.74l-4.176 -0.393l-0.285 3.839l-4.631 2.155l1.853 5.341l-2.786 -0.86l-1.002 4.178l1.189 6.176l-5.867 6.354l-4.46 9.304l-2.315 -1.315l1.291 3.492l-4.55 6.882l-7.676 1.584l-2.236 3.413l-0.87 2.853l-27.591 28.475l-9.733 0.058l0.175 6.597l-4.763 -0.247l-5.121 -1.127z" />
  </g>
  <g data-id="021">
    <path d="m405.735 730.121l0.389 35.68l0.028 21.971l27.922 -0.298l28.188 1.343l12.568 -0.199l16.224 -0.336l-0.231 -14.575l52.956 -0.452l31.061 -0.109l-0.061 -14.331l10.704 -0.992l-6.073 -3.108l-4.65 -8.375l-3.861 -1.17l-8.309 -7.367l-1.026 -6.497l3.587 -5.816l-1.029 -4.224l-3.948 -1.81l-4.06 -1.731l-2.871 -10.391l-7.101 -7.892l-0.602 -13.906l2.091 -4.723l-3.254 -6.326l1.378 -5.381l-5.445 -1.287l-4.74 1.831l-14.004 -12.034l-1.666 -4.967l-33.484 0.243l-20.175 0.143l-6.287 0.105l-4.991 -0.802l-10.859 -0.307l0.127 7.311l1.204 -0.008l0.18 49.227l0.001 17.97l0.028 3.844l-39.913 -0.256z" />
  </g>
  <g data-id="023">
    <path d="m0 1041.71l0.163 6.146l0.398 7.809l0.71 19.921l0.994 22.45l0.19 7.99l104.955 -0.443l-1.422 -12.538l-3.219 -7.637l-4.773 0.008l-5.748 2.718l-4.453 -4.479l-1.867 -7.495l-4.316 -9.102l5.245 -7.918l0.999 -4.174l3.522 -2.118l2.085 -5.132l2.466 -9.648l11.382 -1.919l3.24 -3.629l6.079 -0.547l-3.479 -4.415l-5.684 4.923l-3.963 -5.938l-4.163 0.233l-1.173 -3.608l6.903 -4.855l4.398 3.654l2.832 -1.558l-0.761 -10.374l-5.191 -5.55l-0.831 4.597l-5.166 -4.331l-1.074 -3.482l1.126 -8.016l-1.38 -3.276l6.265 -6.163l3.103 -0.322l3.95 3.004l7.227 -6.769l-2.089 -6.427l4.574 -14.246l4.03 0.02l3.988 -13.305l-1.523 -5.115l1.399 -6.099l-2.1 -5.153l1.562 -8.83l-2.977 -3.321l0.272 -4.446l4.163 0.513l-0.013 -4.277l3.593 0.67l4.389 -4.368l2.169 3.169l5.452 -1.928l3.236 0.801l-2.201 6.176l3.095 0.194l1.075 -3.35l-0.586 -1.568l0.318 -4.393l-136.948 0.625l-1.904 19.32l-0.842 7.419l-2.053 18.086l-1.228 11.816l-2.893 27.637l-0.43 4.106l-3.823 35.334l-1.274 12.924z" />
  </g>
  <g data-id="025">
    <path d="m81.613 1067.06l4.316 9.102l1.867 7.495l4.453 4.479l5.748 -2.718l4.773 -0.008l3.219 7.637l1.422 12.538l0.374 4.303l2.298 5.431l-2.979 3.564l1.511 9.317l2.71 4.567l-1.591 3.476l2.157 3.693l5.8 3.602l6.629 -0.245l1.212 4.367l-4.662 -0.44l2.45 3.854l3.53 2.662l10.288 4.409l3.175 2.735l7.775 1.253l5.043 7.757l5.105 3.688l-3.612 8.052l1.015 5.684l-5.485 2.41l6.688 5.885l-4.654 5.415l5.713 0.58l-1.318 3.773l-4.364 -0.667l-4.625 6.995l7.531 -0.512l-0.376 -4.216l5.758 2.796l2.989 -3.634l-1.541 6.489l1.104 2.719l-5.361 13.389l-0.572 -3.6l-3.658 -0.166l-0.362 7.075l-9.792 -1.077l-1.425 1.64l4.804 4.871l-2.756 5.428l0.633 3.886l-5.753 -0.646l-2.928 3.254l4.744 0.456l1.632 2.673l5.398 1.919l3.544 6.441l-4.765 5.785l0.508 4.532l9.194 1.818l2.065 -3.851l4.648 -1.692l2.906 2.072l2.621 -5.797l2.742 3.632l3.193 -1.222l-4.211 -5.786l0.984 -3.031l6.738 1.419l-2.43 -2.703l2.099 -2.584l-3.398 -4.163l4.349 0.304l1.503 -5.298l2.817 -1.084l4.665 2.877l4.459 -1.952l-0.07 -2.336l-6.473 -7.737l1.381 -4.043l2.341 5.317l6.712 2.945l1.794 -1.184l-5.201 -5.914l-0.164 -4.396l4.574 -4.95l1.448 -6.605l2.303 0.638l0.269 7.112l2.003 2.384l6.597 -3.385l-0.859 -9.842l5.523 -8.896l5.724 -2.157l5.569 -5.104l7.233 -0.524l4.728 4.588l5.46 0.386l7.293 -7.37l3.807 -10.663l0.16 -4.25l-11.797 -7.355l-4.571 -4.773l6.191 -4.155l9.443 -8.556l-0.398 -47.039l14.15 -0.233l-0.623 -38.251l4.858 0.121l0.006 -5.002l-33.256 0.699l-0.234 -14.214l-3.371 -1.854l-9.432 0.096l-0.26 -38.011l-38.375 0.296l-74.835 0.09l0.761 10.374l-2.832 1.558l-4.398 -3.654l-6.903 4.855l1.173 3.608l4.163 -0.233l3.963 5.938l5.684 -4.923l3.479 4.415l-6.079 0.547l-3.24 3.629l-11.382 1.919l-2.466 9.648l-2.085 5.132l-3.522 2.118l-0.999 4.174l-5.245 7.918z" />
  </g>
  <g data-id="027">
    <path d="m641.888 610.774l-0.43 30.424l46.056 -0.083l0.04 4.79l9.657 -0.082l-0.043 -4.923l48.279 0.329l13.412 -0.327l27.896 -0.451l0.89 -66.538l2.52 0.065l0.085 -6.001l-2.451 -0.093l1.795 -57.386l-34.027 -0.906l-0.057 5.058l-4.76 -0.054l-0.013 4.78l-29.312 -0.026l0.03 -2.456l4.917 0.004l0.208 -4.957l4.712 -0.023l0.148 -2.375l-14.794 0.029l-0.12 14.701l-4.877 0.045l-0.264 19.515l-4.775 0.051l-0.108 4.781l-9.84 -0.04l-1.051 29.285l-8.723 -0.042l-24.913 -0.588l-4.844 -0.081l-0.661 33.968l-14.583 -0.39z" />
  </g>
  <g data-id="029">
    <path d="m721.456 516.894l-0.03 2.456l29.312 0.026l0.013 -4.78l4.76 0.054l0.057 -5.058l34.027 0.906l81.173 1.153l1.347 -2.991l4.655 3.468l7.414 2.721l-2.667 -15.702l-0.278 -2.039l-2.113 -12.809l-0.342 -2.073l-4.019 -24.385l-5.357 -32.53l-0.862 -5.992l-0.378 -2.012l-4.061 -25.758l-0.286 -1.813l-2.524 -15.35l-3.449 -20.989l-7.466 2.375l-19.438 0.053l-0.148 4.883l-9.564 0.327l-0.666 17.576l-19.358 -0.201l-0.011 5.003l-9.798 -0.137l-0.032 9.669l14.489 0.194l-0.219 14.72l-4.857 -0.084l-0.022 4.899l-4.861 -0.063l-0.099 4.846l-4.689 0.057l-0.148 41.905l-4.808 7.121l-9.731 -0.209l0.152 4.012l-9.714 0.763l0.122 4.727l-4.964 -0.193l-0.505 14.713l-14.492 -0.049l-0.223 4.812l-15.357 14.428l-0.148 2.375l-4.712 0.023l-0.208 4.957l-4.917 -0.004z" />
  </g>
  <g data-id="031">
    <path d="m635.321 1195.27l0.369 23.78l0.438 52.387l18.973 -0.176l2.44 3.475l0.001 -3.561l16.239 -0.348l74.539 -0.739l0.363 -45.679l0.088 -6.628l0.179 -85.535l-99.546 0.073l0.543 26.224l-1.776 0.024l-1.743 2.422l-10.666 0.083l0.232 29.408l-0.674 4.788z" />
  </g>
  <g data-id="033">
    <path d="m93.192 142.796l-0.207 2.065l140.092 4.254l10.373 0.309l19.835 0.392l3.307 0.288l-0.207 -3.813l3.13 -3.053l-2.004 -4.011l3.295 -3.782l1.621 -5.597l5.605 -4.005l-1.905 -3.509l6.74 1.287l4.49 -5.679l-2.158 -7.224l0.331 -4.893l6.602 -4.252l-1.889 -2.768l1.453 -11.688l3.172 -5.311l-4.997 -2.062l2.199 -8.972l-14.916 -4.283l-12.388 -6.716l-16.849 4.486l-5.544 5.209l-2.533 1.642l-3.071 1.016l-5.217 1.086l-2.956 1.692l-4.354 1.844l-1.616 0.099l-5.248 1.874l-3.733 1.26l-7.002 9.249l-9.673 3.768l-11.059 0.858l-8.056 -3.116l-7.11 -7.385l-16.456 -14.094l-3.674 -11.704l-5.249 -9.78l-9.583 -6.49l-15.14 -6.759l-15.91 4.903l-2.699 27.397l-2.472 22.192l-0.555 7.474l-1.26 9.825l-3.164 24.658l-1.243 11.338z" />
  </g>
  <g data-id="035">
    <path d="m293.641 1243.99l-1.836 5.201l109.097 -0.303l76.04 0.007l-2.317 3.472l2.372 9.853l-2.443 5.944l4.422 2.964l5.003 -0.486l4.903 3.582l0.023 -2.387l5.806 -0.403l-0.239 -43.133l-0.365 -6.873l2.771 -0.68l7.051 -7.164l-2.287 -6.405l3.728 -4.51l-3.563 -11.038l-7.358 -0.027l-0.093 -28.565l-38.46 -0.412l-7.51 -7.129l0.181 -2.225l-2.486 -7.931l-3.778 -4.656l-1.633 -7.907l-3.574 -5.352l0.243 -39.472l-7.812 2.257l-4.138 3.699l-8.697 2.856l-2.63 2.499l-9.716 1.969l-7.522 -1.896l-2.75 4.425l1.392 9.007l-6.24 3.619l-3.633 4.616l-12.193 3.227l-0.655 9.166l-2.156 8.937l-3.85 6.887l-2.458 10.261l0.321 4.989l-8.747 13.566l-2.488 6.547l-5.097 1.043l-1.362 0.487l-11.472 12.172l-7.147 4.878l-9.894 15.043l-4.004 1.839l-3.693 10.413l-9.332 5.517l-7.721 8.011z" />
  </g>
  <g data-id="037">
    <path d="m545.757 669.108l-1.378 5.381l3.254 6.326l-2.091 4.723l0.602 13.906l7.101 7.892l2.871 10.391l4.06 1.731l3.948 1.81l1.029 4.224l-3.587 5.816l1.026 6.497l8.309 7.367l3.861 1.17l4.65 8.375l6.073 3.108l10.661 -0.067l0.021 -4.761l4.892 0.097l-0.088 4.692l87.14 -0.427l-0.034 -18.99l-1.725 -2.63l1.653 -2.541l-0.207 -37.239l-0.009 -19.274l-0.231 -30.778l-0.04 -4.79l-46.056 0.083l-88.359 0.483l-5.612 4.834l1.428 6.888l-3.916 3.583l0.758 12.123z" />
  </g>
  <g data-id="039">
    <path d="m494.108 1221.43l0.365 6.873l0.239 43.133l0.017 62.5l3.322 1.903l2.757 0.019l3.823 0.001l27.091 -0.187l1.158 -0.037l12.137 0.644l1.982 -0.148l3.595 0.117l11.616 -0.215l1.009 0.067l13.893 -0.084l3.62 -0.04l4.853 -0.098l1.472 -0.001l1.217 0.007l16.828 0.138l4.283 0.075l9.152 -0.018l5.054 -0.168l14.276 0.104l-0.867 -2.939l-0.871 -61.638l-0.438 -52.387l-0.369 -23.78l0.674 -4.788l-18.953 -0.358l0.471 -4.758l-4.699 0.037l-0.872 -23.858l-5.227 0.004l-5.791 7.677l-3.058 1.339l-2.633 4.592l-6.87 0.061l-1.574 4.268l-7.084 7.526l-1.187 -25.014l-4.309 0.509l-23.391 0.079l-56.46 0.453l0.093 28.565l7.358 0.027l3.563 11.038l-3.728 4.51l2.287 6.405l-7.051 7.164l-2.771 0.68z" />
  </g>
  <g data-id="041">
    <path d="m550.727 1120.03l0.089 42.557l23.391 -0.079l4.309 -0.509l0.392 24.804l7.879 -7.316l1.574 -4.268l6.87 -0.061l2.633 -4.592l3.058 -1.339l5.791 -7.677l5.227 -0.004l0.872 23.858l4.699 -0.037l-0.471 4.758l18.953 0.358l-0.232 -29.408l10.666 -0.083l1.743 -2.422l1.776 -0.024l-0.543 -26.224l-9.432 0.401l0.285 -3.826l5.523 -6.341l-0.328 -4.161l3.602 -0.956l-0.333 -41.926l-14.242 0.164l-0.008 -5.716l4.593 -8.055l0.179 -12.449l2.572 -7.511l-0.524 -12.312l-4.579 -11.791l-30.928 0.457l-0.362 -28.05l-28.674 -0.139l0.355 28.613l-12.052 -0.281l0.441 38.851l2.304 1.179l-2.246 3.672l0.121 42.843l-0.741 14.92l-14.202 0.121z" />
  </g>
  <g data-id="043">
    <path d="m368.936 343.605l4.731 9.466l6.056 1.886l2.177 8.164l5.299 5.398l1.001 4.291l-5.25 2.704l2.504 2.778l23.651 0.392l0.06 7.645l3.593 1.763l8.547 0.911l12.043 -5.119l-1.169 -12.024l10.705 -2.76l2.27 -6.345l2.711 1.189l8.917 -6.005l4.158 3.057l0.334 -5.38l7.841 1.719l0.094 -3.748l7.723 -3.576l1.096 -7.318l5.495 -1.498l1.03 -3.911l4.496 -6.742l5.333 -2.559l0.144 -7.045l4.349 0.476l-1.455 -1.566l-0.61 -1.211l-1.141 -1.645l-1.031 -1.768l-1.113 -0.979l1.793 -1.572l1.029 -1.125l0.545 -1.34l1.127 -0.064l0.217 1.177l-0.028 1.697l0.014 1.122l1.343 -0.547l1.567 -0.673l0.915 -1.122l1.055 0.632l1.642 -0.412l1.135 -0.789l1.9 -6.014l8.182 -5.051l6.412 1.069l1.791 -5.528l7.505 -11.728l1.111 -0.092l5.201 -5.659l-2.954 -0.627l4.588 -12.442l4.455 -0.45l1.244 -8.433l5.377 1.132l3.827 -3.787l9.187 0.293l-1.794 -10.073l-5.044 -4.597l-20.089 -0.333l-9.045 -0.321l-64.917 -1.036l-6.717 -0.139l-70.685 -1.393l-5.059 -0.508l0.056 4.898l-0.08 23.95l-0.207 18.829l-0.293 60.7l-10.895 -0.283z" />
  </g>
  <g data-id="045">
    <path d="m748.683 1224.41l-0.363 45.679l22.621 0.384l3.816 -3.113l2.111 -10.237l4.995 -4.44l3.127 -6.918l6.886 -1.523l9.027 1.037l4.861 2.677l11 3.366l16.814 2.537l0.115 -13.384l4.855 0.102l11.667 0.166l2.536 -0.311l-0.081 -9.062l0.202 -15.805l-0.37 -25.31l0.631 -16.24l-0.185 -42.259l-14.119 -0.36l-33.038 0.983l-45.43 -0.158l-11.41 0.028l-0.179 85.535l-0.088 6.628z" />
  </g>
  <g data-id="047">
    <path d="m279.075 905.421l0.244 14.092l7.706 -1.325l6.094 8.188l7.944 2.24l1.585 4.672l3.928 0.41l2.547 8.145l3.353 -1.46l6.896 2.084l2.986 4.638l7.096 4.404l3.255 7.765l5.026 -0.877l2.962 3.695l-2.489 3.968l4.365 0.523l6.231 9.436l9.171 2.451l-0.353 5.211l4.463 1.829l-0.635 5.659l75.591 -0.15l-0.376 -58.345l27.342 0.093l-0.038 -4.236l-3.031 1.262l-5.564 -2.713l-6.331 -9.342l2.865 -5.605l7.705 -6.164l-6.822 -1.288l0.027 -6.303l9.906 -3.915l2.102 -4.476l-2.238 -5.439l-3.305 -2.641l-4.608 -7.138l-0.472 -4.958l5.875 -3.077l-7.116 -4.496l-4.797 -0.285l1.963 -3.86l-2.834 -5.99l-4.183 -4.453l1.734 -1.616l-3.304 -8.741l-4.442 -7.796l2.357 -10.06l-5.724 -25.37l0.341 -6.592l-27.922 0.298l-0.028 -21.971l-4.323 11.172l0.328 10.557l-3.196 6.976l-1.21 7.347l1.998 7.15l-4.547 4.884l-6.808 4.641l1.158 4.325l-1.28 6.715l-2.267 0.881l-3.002 9.821l-3.355 5.369l-30.201 0.503l-12.455 0.982l-43.958 0.349l0.393 57.786l-14.324 0.161z" />
  </g>
  <g data-id="049">
    <path d="m659.319 196.973l-2.381 8.102l2.461 9.82l0.323 13.871l0.282 17.243l0.132 11.116l0.376 16.55l73.238 0.253l-0.061 -14.661l5.121 1.127l4.763 0.247l-0.175 -6.597l9.733 -0.058l27.591 -28.475l0.87 -2.853l2.236 -3.413l7.676 -1.584l4.55 -6.882l-2.002 -3.024l3.026 0.847l4.46 -9.304l5.867 -6.354l-1.189 -6.176l1.002 -4.178l2.786 0.86l-1.853 -5.341l4.631 -2.155l0.285 -3.839l4.176 0.393l3.06 -4.74l5.498 -3.423l-0.937 -6.235l-2.842 -15.616l-1.905 -11.924l-2.001 -11.14l-3.122 -17.454l-2.501 -14.24l-6.062 -37.481l-12.255 9.687l-2.009 11.182l-7.235 14.953l-3.678 3.412l-5.485 0.226l-25.792 40.607l-26.688 21.107l-16.025 12.521l-5.132 6.173l-0.746 1.233l-0.763 1.263l-1.064 0.389l-10.515 6.288l-3.28 -0.544l-5.373 2.781l-6.38 -0.87l-14.691 16.309z" />
  </g>
  <g data-id="051">
    <path d="m574.779 758.815l0.061 14.331l0.187 42.437l0.061 16.744l0.295 39.294l3.564 -5.621l15.048 -1.883l10.122 5.856l-4.735 -9.457l4.794 -7.765l-1.469 -7.265l6.417 5.413l7.877 -4.603l-0.243 -4.87l7.206 2.073l10.88 14.421l4.875 1.284l-3.259 3.758l10.615 0.589l0.895 3.21l7.139 -3.112l-1.145 3.921l3.691 1.706l8.385 -1.528l2.293 2.954l8.834 2.171l1.076 -3.894l5.451 -0.678l9.03 -4.322l-0.793 -6.102l2.297 3.649l3.295 -4.292l4.047 4.075l7.583 -4.099l10.424 1.967l3.404 -2.45l2.658 -6.244l5.6 -0.621l-4.933 -1.894l-4.421 -3.83l-1.184 -2.343l0.767 -19.145l-1.93 -18.793l1.193 -6.106l0.708 -4.788l-6.688 -10.02l1.184 -7.116l4.704 -5.871l3 -12.447l-4.327 -0.018l-16.6 -0.081l-0.196 -4.746l-4.8 -0.033l0.169 4.743l-9.774 -0.018l-87.14 0.427l0.088 -4.692l-4.892 -0.097l-0.021 4.761l-10.661 0.067l-10.704 0.992z" />
  </g>
  <g data-id="053">
    <path d="m239.226 1254.39l0.132 66.331l-0.004 14.209l4.633 -0.02l7.684 -0.134l6.344 -0.019l8.098 0.111l10.959 -0.201l3.729 0.008l1.422 -0.007l1.696 -0.038l1.645 0.015l4.888 0.021l1.819 0.037l16.164 -0.066l1.069 0.024l2.331 -0.008l6.05 -0.009l6.08 -0.053l2.275 0.079l3.637 -0.053l7.096 0.027l1.402 0.023l1.379 -0.008l4.997 0.594l2.28 -0.16l1.33 -0.093l17.064 -0.605l6.371 -0.165l4.405 0.237l1.701 -0.203l14.018 0.092l1.275 -0.016l2.881 0.02l3.836 -0.151l1.011 0.08l2.584 0.03l6.347 -0.02l1.641 0.213l19.717 0.311l11.07 0.041l4.226 -0.018l11.455 0.082l12.839 0.131l11.35 0.223l4.701 -0.146l6.175 0.662l5.022 0.035l-3.322 -1.903l-0.017 -62.5l-5.806 0.403l-0.023 2.387l-4.903 -3.582l-5.003 0.486l-4.422 -2.964l2.443 -5.944l-2.372 -9.853l2.317 -3.472l-76.04 -0.007l-109.097 0.303l-17.231 0.101l-9.432 3.971l-10.123 6.729l-15.794 -5.602z" />
  </g>
  <g data-id="055">
    <path d="m595.427 350.921l-8.598 10.669l12.425 -0.127l9.904 -14.659l3.362 -1.802l7.393 7.898l5.965 -5.782l8.662 -2.063l4.333 5.625l4.323 2.362l0.552 6.891l0.221 6.094l4.511 2.022l1.81 7.119l8.439 -1.549l1 7.663l3.41 6.667l6.57 -1.485l5.186 6.514l-2.995 1.411l4.52 0.202l0.711 -3.697l7.047 0.371l-0.056 -4.906l7.339 0.404l2.128 -4.808l0.299 -4.871l4.827 0.269l0 -3.53l0 -3.766l9.683 -2.152l0.056 4.909l9.683 0l-0.028 -12.308l4.995 -2.455l9.872 0.094l9.865 0.993l19.55 3.957l0.556 -11.154l0.513 -6.98l-16.724 -37.371l1.692 -8.398l-5.849 0l-5.926 5.107l-2.277 -0.253l-0.628 -30.115l-73.238 -0.253l0.133 4.9l-14.338 -0.35l-4.665 1.277l-4.536 0.191l-31.683 28.267l-5.342 9.024l-2.716 10.707l-0.092 18.309l-1.846 4.921z" />
  </g>
  <g data-id="057">
    <path d="m145.5 368.261l1.431 93.539l0.039 39.267l29.532 -0.259l29.028 1.764l13.697 -0.508l5.833 -0.194l0.008 -19.466l9.773 -0.289l-0.03 -9.77l58.044 2.592l-0.04 -29.166l-29.158 -0.985l-0.911 -58.94l-29.142 -1.472l0.03 -14.539l-24.138 0.153l-39.288 -1.585l-24.707 -0.141z" />
  </g>
  <g data-id="059">
    <path d="m85.752 212.825l-2.155 20.235l73.87 2.881l49.67 0.79l26.833 1.078l29.299 0.81l0.015 -88.804l-19.835 -0.392l-10.373 -0.309l-140.092 -4.254l-4.549 40.129l-2.607 27.099z" />
  </g>
  <g data-id="061">
    <path d="m636.127 1271.44l0.871 61.638l0.867 2.939l1.936 0.014l1.403 0.067l1.737 0.03l1.7 0.008l12.826 0.249l16.938 -0.071l1.046 -0.037l4.862 -0.024l10.156 0.146l29.325 -0.195l40.07 -0.447l47.585 -0.51l22.633 -0.172l2.813 -0.051l0.801 -47.019l-0.093 -19.07l-27.896 1.635l-34.768 -0.097l-22.621 -0.384l-74.539 0.739l-16.239 0.348l-0.001 3.561l-2.44 -3.475l-18.973 0.176z" />
  </g>
  <g data-id="063">
    <path d="m77.271 697.353l-3.073 3.613l4.9 4.671l2.731 12.978l6.974 6.246l-6.909 7.529l9.056 1.773l4.072 -2.652l7.611 11.435l7.318 -2.017l4.104 4.083l-4.148 6.386l-6.597 -2.15l-1.856 2.8l2.29 10.527l5.457 6.579l-0.979 3.44l-8.506 2.658l2.434 3.918l8.067 1.731l7.464 -4.307l2.953 3.091l-4.768 4.404l0.832 9.248l-6.702 2.615l-0.038 6.264l6.09 8.693l13.239 -2.411l9.175 -3.332l8.29 -5.316l5.192 -1.808l4.707 2.492l1.948 3.375l7.702 -2.487l5.335 0.428l4.808 4.979l-5.387 4.927l-0.53 -5.166l-5.729 -1.073l-4.265 3.205l-0.123 2.559l6.513 6.788l0.336 9.117l5.69 4.038l2.674 -5.004l6.005 1.144l-0.297 7.713l3.02 -1.362l3.197 -3.459l0.62 -5.438l0.586 -4.344l2.933 -0.947l-0.34 -3.863l0.754 -1.875l2.473 0.515l1.227 0.64l0.243 1.928l3.523 -1.077l3.232 -2.591l1.168 -0.441l1.301 -0.887l-0.928 -1.269l-0.909 -1.571l-1.113 -3.306l-0.143 -1.128l-1.992 -0.621l-1.841 0.488l-5.57 2.39l-2.329 -0.471l-4.472 -4.036l-1.139 -3.157l0.856 -3.037l1.98 0.052l2.744 0.059l2.847 -0.804l4.948 1.219l4.163 -1.465l0.95 -1.973l0.222 -2.512l-3.363 -0.351l-6.338 1.309l-3.831 -2.897l0.281 -3.489l1.222 -1.422l-2.319 -9.579l0.137 -2.724l-2.761 -0.887l-1.843 1.414l-1.344 1.289l-2.885 -0.536l-1.452 -2.463l0.836 -3.843l2.157 -2.078l2.147 -0.002l2.19 -4.742l-2.627 -3.323l-2.361 -2.666l-2.799 -1.262l-0.536 1.612l-2.168 1.787l-2.789 0.096l-2.356 0.741l-1.57 -0.98l-0.644 -1.495l0.777 -1.994l1.805 -0.824l2.519 -0.101l2.606 -1.772l2.043 -2.676l3.087 -2.333l1.28 -2.369l0.368 -2.198l0.475 -1.803l0.146 -3.294l-0.513 -3.109l-1.428 -1.627l-2.695 -1.167l0.124 -2.256l2.047 -0.252l0.343 -1.566l-1.26 -0.22l-1.537 -1.899l0.713 -1.971l1.077 0.205l1.549 -1.39l-0.283 -2.016l-0.051 -1.206l0.899 -1.047l2.365 0.439l-0.764 -2.037l-1.166 -0.592l-0.415 -1.012l1.181 0.2l1.711 1.185l0.749 -1.458l-0.173 -1.369l1.26 0.016l1.438 -0.299l2.961 0.481l1.532 -1.626l2.699 0.201l1.544 -1.89l0.034 -1.823l-1.265 -2.271l-1.573 -1.199l0.134 -1.243l0.786 -1.043l2.005 -0.041l1.003 -1.994l1.086 0.078l1.421 0.441l-0.792 -1.485l5.396 -1.564l1.255 -1.778l-0.978 -1.946l-1.684 0.419l-1.55 -1.252l1.582 -2.067l-1.632 -3.473l-0.427 -1.158l-0.189 -1.234l1.094 0.025l1.455 0.501l1.778 -0.347l1.2 -1.994l2.933 -0.353l3.234 -1.993l-0.985 -2.533l-1.321 -2.257l0.868 -3.256l-11.251 -0.545l-22.295 0.002l0.216 -25.501l-1.838 -14.328l0.147 -5.59l-10.958 4.815l-15.874 8.66l-1.292 -0.488l-8.519 12.332l-3.531 -0.99l-12.69 5.665l-3.46 3.318l2.177 3.822l-3.309 3.172l-6.018 -6.231l-2.756 -0.473l-3.126 5.498l-8.129 -1.85l-9.539 1.5l1.805 3.973l-8.044 5.555l-0.027 4.261l1.26 8.419l2.787 1.985l-2.212 3.412l-5.242 -2.704l0.475 5.574l2.808 0.93l-0.845 3.59l-5.852 -1.183z" />
  </g>
  <g data-id="065">
    <path d="m168.911 753.617l0.257 2.115l1.57 0.98l2.356 -0.741l2.789 -0.096l2.459 -0.802l0.245 -2.597l2.799 1.262l2.361 2.666l2.627 3.323l-2.19 4.742l-2.147 0.002l-2.157 2.078l-0.836 3.843l1.452 2.463l2.885 0.536l1.344 -1.289l1.843 -1.414l2.761 0.887l-0.137 2.724l2.319 9.579l-1.222 1.422l-0.281 3.489l3.831 2.897l6.338 -1.309l3.363 0.351l-0.222 2.512l-0.95 1.973l-4.163 1.465l-4.948 -1.219l-2.847 0.804l-2.744 -0.059l-1.98 -0.052l-0.856 3.037l1.139 3.157l4.472 4.036l2.329 0.471l5.57 -2.39l1.841 -0.488l1.992 0.621l0.143 1.128l1.113 3.306l0.909 1.571l0.928 1.269l-1.301 0.887l-1.168 0.441l-3.232 2.591l-3.523 1.077l-0.243 -1.928l-1.227 -0.64l-2.473 -0.515l-0.754 1.875l0.34 3.863l-1.959 1.425l-1.56 3.866l-0.62 5.438l-3.197 3.459l23.449 0.009l-0.062 14.43l5.076 0.045l51.919 -0.412l-0.199 -57.507l14.31 -0.051l0.03 -23.979l0.45 -5.063l0.006 -28.932l14.171 -0.069l0.052 -14.508l-0.205 -42.847l-81.973 -1.146l0.718 1.89l1.752 3.228l-3.234 1.993l-2.933 0.353l-1.2 1.994l-1.778 0.347l-1.455 -0.501l-1.094 -0.025l0.189 1.234l0.427 1.158l1.632 3.473l-1.582 2.067l1.55 1.252l1.684 -0.419l0.978 1.946l-1.255 1.778l-4.623 1.916l0.019 1.133l-1.282 0.435l-1.225 -0.954l-1.003 1.994l-1.327 0.432l-1.464 0.652l-0.134 1.243l1.573 1.199l1.265 2.271l-0.034 1.823l-1.544 1.89l-2.699 -0.201l-1.532 1.626l-2.961 -0.481l-1.438 0.299l-1.26 -0.016l0.173 1.369l-0.749 1.458l-1.232 -0.442l-1.203 -1.299l-0.042 1.368l1.166 0.592l0.773 1.243l-1.43 0.812l-1.843 0.59l0.051 1.206l0.283 2.016l-1.549 1.39l-1.077 -0.205l-0.713 1.971l1.537 1.899l1.26 0.22l-0.343 1.566l-2.047 0.252l-0.124 2.256l2.695 1.167l1.428 1.627l0.513 3.109l-0.146 3.294l-0.475 1.803l-0.368 2.198l-1.28 2.369l-3.087 2.333l-2.043 2.676l-2.606 1.772l-2.519 0.101l-1.805 0.824l-0.39 1.374z" />
  </g>
  <g data-id="067">
    <path d="m852.502 1190.25l0.37 25.31l-0.202 15.805l40.006 1.413l5.924 -0.05l6.549 0.466l14.015 0.555l25.197 -0.318l0.606 -10.239l-1.627 -7.478l4.159 -11.516l-0.669 -4.04l3.899 -6.831l-1.567 -12.109l7.273 -15.962l1.025 -9.01l-4.487 -8.565l-1.171 -17.057l-5.74 -8.802l-11.943 -14.819l1.842 -12.366l-2.723 -10.242l-5.51 -3.147l-11.128 8.87l-4.944 1.519l-0.971 10.281l-1.831 2.645l-55.796 -1.396l-0.111 28.586l0.185 42.259l-0.631 16.24z" />
  </g>
  <g data-id="069">
    <path d="m774.757 1267.36l-3.816 3.113l34.768 0.097l27.896 -1.635l0.093 19.07l-0.801 47.019l68.237 -1.238l24.883 0.016l2.404 0.045l24.638 0.035l1.519 0l5.841 -0.021l1.016 -0.008l7.016 -0.004l0.28 -1.42l-2.761 -15.794l-3.4 -7.153l-0.845 -1.777l-2.515 -8.874l-4.814 -3.682l-6.63 -12.205l-4.681 -1.76l-3.937 -7.868l2.161 -7.601l0.258 -7.431l-4.382 -14.289l6.913 -6.114l0.263 -4.448l-25.197 0.318l-14.015 -0.555l-6.549 -0.466l-5.924 0.05l-40.006 -1.413l0.081 9.062l-2.536 0.311l-11.667 -0.166l-4.855 -0.102l-0.115 13.384l-16.814 -2.537l-11 -3.366l-4.861 -2.677l-9.027 -1.037l-6.886 1.523l-3.127 6.918l-4.995 4.44l-2.111 10.237z" />
  </g>
  <g data-id="071">
    <path d="m590.186 92.847l1.201 35.953l7.8 6.609l-1.529 0.769l1.253 2.684l2.397 -0.135l37.746 0.122l9.634 0.126l-0.061 3.637l0.256 22.847l5.967 -4.198l7.961 3.93l0.029 3.098l0.443 8.061l3.555 8.18l7.172 -3.866l6.38 0.87l5.373 -2.781l3.28 0.544l10.515 -6.288l1.064 -0.389l0.763 -1.263l0.746 -1.233l5.132 -6.173l16.025 -12.521l26.688 -21.107l25.792 -40.607l5.485 -0.226l3.678 -3.412l7.235 -14.953l2.009 -11.182l12.255 -9.687l-3.353 -21.704l-1.009 -7.06l-0.169 -2.332l-1.613 -11.207l-61.177 -1.18l-1.203 -0.008l-9.825 -0.073l-55.16 -0.409l-69.662 -0.517l1.383 5.511l4.729 2.143l0.648 3.707l7.775 4.209l0.619 2.587l0.008 3.843l-4.268 0.812l-2.646 -4.887l-3.99 -2.154l-4.302 3.387l-4.131 -0.772l4.166 7.592l-5.056 4.557l-6.102 9.436l1.209 5.432l5.698 8.964l-4.742 4.849l1.587 18.355l-1.227 6.361l-4.428 3.15z" />
  </g>
  <g data-id="073">
    <path d="m315.735 518.99l1.708 4.766l5.989 0.174l-0.078 4.686l8.38 0.382l0.025 4.972l8.507 2.639l1.249 7.431l4.818 0.149l0.013 9.786l9.603 2.578l0.765 5.032l4.139 0.03l0.07 4.999l0.032 2.304l4.873 0.033l0.047 4.817l9.729 0.192l0.108 5.064l10.955 0.056l6.067 4.919l0.001 2.772l0.004 6.915l10.852 0.149l12.266 0.151l0.04 -2.331l1.222 -0.717l2.452 -4.115l12.112 -3.566l0.009 -6.132l8.533 -6.684l1.191 -3.087l2.447 -2.303l12.024 0.219l2.464 0.005l0.035 -3.669l0.068 -5.934l14.394 -2.042l0.08 -7.372l4.804 0.192l2.415 -9.188l9.586 -0.154l2.098 -4.766l2.863 0.075l-0.07 -2.985l2.418 -4.089l4.88 -0.08l1.902 -4.971l11.425 -0.056l6.189 -0.095l12.246 -16.883l12.117 -2.217l0.116 -7.284l0.011 -2.505l-9.836 -2.56l0.145 -14.884l2.427 -4.819l-0.012 -4.87l2.416 0.008l0.016 -4.744l2.505 -0.068l-0.084 -2.462l0.098 -21.859l-4.902 -4.831l-0.032 -9.912l-9.778 -0.048l-2.878 -0.016l-16.645 -0.178l0.691 -2.389l-31.769 -22.703l-8.156 -0.14l-26.669 -0.74l-14.674 9.381l-4.779 0.004l-0.588 4.859l-4.317 -0.129l0.087 4.952l-9.777 -0.26l0.021 4.923l-4.854 -0.052l-0.019 8.773l-2.296 5.909l-2.527 0.003l0.229 13.923l-4.865 0.667l-0.141 9.76l-9.75 -0.171l-0.009 9.728l-14.437 -0.117l0.017 4.957l-9.771 -0.13l-0.035 4.864l-4.847 -0.021l-2.135 6.868l2.138 5.504l3.103 2.183l-6.762 5.742l-6.298 -0.218l-4.986 8.43l-5.087 -5.484l-1.906 2.854l2.402 3.055l1.552 4.098l-6.719 -0.534l0.116 5.519l-12.627 -2.066l-3.187 7.179z" />
  </g>
  <g data-id="075">
    <path d="m56.693 485.414l-1.275 12.325l91.551 3.328l-0.039 -39.267l-1.431 -93.539l-0.04 -34.411l-9.906 -0.236l0.14 -9.832l-61.471 -2.099l-0.98 9.811l-0.706 6.313l-3.672 32.825l-0.787 7.03l-1.742 15.042l-1.273 12.201l-0.829 5.104l-0.312 4.703l-1.338 12.318l-0.926 8.524l-0.611 6.973l-0.049 1.006l-0.421 4.333l-1.638 15.898l-1.396 13.808l-0.322 3.078l-0.256 2.717l-0.127 1.351z" />
  </g>
  <g data-id="077">
    <path d="m75.414 0l0.597 3.493l0.561 2.242l3.176 5.545l2.08 2.534l1.079 1.684l1.117 2.487l2.932 7.406l1.947 3.765l2.311 2.729l1.846 1.614l4.097 2.519l6.987 2.767l16.499 -4.259l15.14 6.759l9.583 6.49l5.249 9.78l3.674 11.704l16.456 14.094l7.11 7.385l8.056 3.116l11.059 -0.858l9.673 -3.768l7.002 -9.249l3.733 -1.26l5.248 -1.874l1.21 -0.135l4.76 -1.808l2.956 -1.692l5.217 -1.086l3.071 -1.016l2.533 -1.642l5.544 -5.209l16.849 -4.486l12.388 6.716l14.916 4.283l15.699 -1.689l7.262 2.888l12.925 15.518l10.388 -2.654l-4.918 -5.074l2.015 -3.488l4.329 -1.537l11.343 -9.398l1.159 -62.271l-1.653 -0.042l-2.057 -0.061l-1.811 -0.054l-11.013 -0.309l-8.14 -0.179l-13.97 -0.254l-2.799 -0.055l-6.08 -0.1l-2.858 -0.087l-7.279 -0.1l-1.156 -0.003l-1.973 -0.04l-2.361 -0.014l-47.186 -0.275l-5.259 -0.031l-10.91 0.071l-2.032 -0.005l-7.096 -0.107l-1.035 -0.046l-2.497 -0.034l-13.784 -0.212l-2.431 -0.025l-1.67 -0.056l-21.848 -0.242l-5.788 0.029l-1.428 0.02l-13.738 -0.049l-12.98 -0.061l-3.187 -0.015l-4.218 -0.02l-56.623 -0.712z" />
  </g>
  <g data-id="079">
    <path d="m263.285 149.816l-0.015 88.804l8.808 0.052l108.333 1.738l-0.056 -4.898l0.207 -34.485l0.881 -53.687l0.126 -10.587l0.192 -27.274l-4.014 -3.808l-5.413 -9.112l-9.133 -6.369l-14.282 -6.917l-10.576 1.562l-10.388 2.654l-12.925 -15.518l-7.262 -2.888l-15.699 1.689l-2.199 8.972l4.997 2.062l-3.172 5.311l-1.453 11.688l1.889 2.768l-6.602 4.252l-0.331 4.893l2.158 7.224l-4.49 5.679l-6.74 -1.287l1.905 3.509l-5.605 4.005l-1.621 5.597l-3.295 3.782l2.004 4.011l-3.13 3.053l0.207 3.813l-3.307 -0.288z" />
  </g>
  <g data-id="081">
    <path d="m774.729 776.448l0.251 33.635l0.056 4.603l9.599 -0.099l0.056 4.768l47.911 23.498l14.167 -0.051l0.4 6.09l0.864 22.762l21.542 -0.214l7.45 -0.117l-1.032 -19.109l30.441 -0.544l21.562 -0.296l24.605 -0.572l-0.424 -11.514l1.199 -0.517l2.441 -0.028l12.285 -0.245l-0.938 -4.555l-4.3 -6.307l-3.337 -3.252l-9.262 -9.027l-3.354 -9.302l-2.807 -7.787l-4.351 -4.385l4.689 -4.349l-1.396 -3.903l-5.916 -5.271l-2.233 -9.979l2.368 -4.882l-1.2 -3.44l-3.222 -3.627l-1.379 1.731l-41.801 0.464l-2.338 4.777l-17.633 0.078l-5.781 0.064l-7.65 -0.075l-2.483 -4.71l-4.772 -0.1l0 4.876l-45.371 0.597l-4.7 0.193l-0.072 4.65l-19.421 0.464l0.056 4.841l-4.772 0.166z" />
  </g>
  <g data-id="083">
    <path d="m335.44 76.274l-2.015 3.488l4.918 5.074l10.576 -1.562l14.282 6.917l9.133 6.369l5.413 9.112l4.014 3.808l14.569 12.091l4.894 -0.557l8.02 6.081l4.054 2.311l3.289 2.961l2.086 1.77l18.3 11.373l13.139 4.292l6.479 3.708l13.07 1.828l0.873 -37.909l0.134 -18.855l0.025 -3.668l0.271 -24.855l0.017 -1.241l0.103 -9.3l0.275 -17.503l0.078 -16.593l0.019 -19.926l-10.333 0.055l-4.367 0l-2.835 -0.033l-2.394 -0.027l-1.981 -0.006l-29.291 -0.832l-1.532 -0.072l-7.644 -0.174l-3.116 -0.014l-31.104 -0.735l-24.587 -0.581l-1.159 62.271l-11.343 9.398l-4.329 1.537z" />
  </g>
  <g data-id="085">
    <path d="m436.667 932.674l0.376 58.345l14.058 -0.126l-0.281 28.359l114.232 -0.81l12.052 0.281l-0.355 -28.613l-0.557 -52.141l-0.139 -11.654l-21.187 -13.26l-1.773 -5.654l4.625 -9.881l-6.221 -4.257l-9.977 1.87l-2.792 -8.172l-7.817 -3.796l-3.159 -0.004l-3.756 4.517l-5.443 -4.269l0.387 -8.035l-1.269 -2.357l-9.883 2.799l-0.608 6.972l-7.796 7.516l-7.757 -2.435l-2.146 -3.73l0.316 -10.163l-2.591 -0.556l-6.362 5.087l-7.92 -1.816l-0.581 8.591l2.032 9.207l-7.005 10.598l-4.978 -0.442l-1.343 -7.684l1.677 -2.498l-9.906 3.915l-0.027 6.303l6.822 1.288l-7.705 6.164l-2.865 5.605l6.331 9.342l5.564 2.713l3.031 -1.262l0.038 4.236l-27.342 -0.093z" />
  </g>
  <g data-id="087">
    <path d="m683.693 868.302l3.368 5.179l-1.015 6.616l5.835 8.716l0.665 7.204l6.189 0.841l2.969 3.324l1.156 7.025l9.774 9.185l5.749 -0.2l0.042 -10.002l5.768 4.543l0.504 14.911l3.756 3.77l1.781 0.97l117.941 -0.882l-0.14 -57.848l-0.864 -22.762l-0.4 -6.09l-14.167 0.051l-47.911 -23.498l-0.056 -4.768l-9.599 0.099l-0.056 -4.603l-3.719 0.052l-0.969 4.617l-23.978 0.247l0.102 7.364l0.297 21.383l-24.832 0.391l4.421 3.83l4.933 1.894l-5.6 0.621l-2.658 6.244l-3.404 2.45l-10.424 -1.967l-7.583 4.099l-4.047 -4.075l-3.295 4.292l-2.297 -3.649l0.793 6.102l-9.03 4.322z" />
  </g>
  <g data-id="089">
    <path d="m470.534 117.426l-0.873 37.909l10.301 -1.654l8.766 -9.162l5.451 -2.134l7.151 3.799l3.186 8.709l8.077 -1.052l6.146 -7.465l4.376 -1.654l8.517 2.234l4.025 4.696l0.942 5.318l-0.259 1.512l5.398 13.623l8.862 6.427l8.672 2.254l4.172 -2.764l8.384 1.427l3.2 -4.934l6.563 -2.046l-0.976 -6.156l6.33 1.566l4.061 -3.297l4.743 4.533l2.228 -0.874l1.59 -5.574l3.714 -3.432l1.267 -7.271l-6.195 -1.526l-0.719 -2.717l7.908 -2.154l-0.015 -4.412l-6.619 -2.295l-1.253 -2.684l1.529 -0.769l-7.8 -6.609l-1.201 -35.953l4.428 -3.15l1.227 -6.361l-1.587 -18.355l4.742 -4.849l-5.698 -8.964l-1.209 -5.432l6.102 -9.436l5.056 -4.557l-4.166 -7.592l4.131 0.772l4.302 -3.387l3.99 2.154l2.646 4.887l4.268 -0.812l-0.008 -3.843l-0.619 -2.587l-7.775 -4.209l-0.648 -3.707l-4.729 -2.143l-1.383 -5.511l-2.089 -0.017l-21.888 -0.175l-10.247 0.196l-9.451 0.134l-13.991 0.004l-2.943 0.001l-7.64 -0.1l-4.284 -0.014l-4.951 -0.063l-3.091 -0.015l-11.489 -0.17l-5.133 -0.018l-3.137 -0.071l-1.639 -0.024l-29.829 0.049l-0.019 19.926l-0.078 16.593l-0.275 17.503l-0.103 9.3l-0.017 1.241l-0.271 24.855l-0.025 3.668l-0.134 18.855z" />
  </g>
  <g data-id="091">
    <path d="m99.024 989.978l1.38 3.276l-1.126 8.016l1.074 3.482l5.166 4.331l0.831 -4.597l5.191 5.55l74.835 -0.09l38.375 -0.296l-0.049 -3.554l12.609 -1.094l-0.349 -41.773l28.428 -0.144l-0.32 -38.975l2.569 -4.951l11.68 0.354l-0.244 -14.092l-14.289 0.106l-0.054 -57.743l-51.919 0.412l-5.076 -0.045l0.062 -14.43l-23.449 -0.009l-3.02 1.362l0.297 -7.713l-6.005 -1.144l-2.674 5.004l3.324 2.155l-0.856 2.446l-2.262 0.986l-13.557 -2.637l-3.461 1.649l-8.761 8.913l-2.535 6.046l-5.834 5.097l-5.444 0.766l-10.34 7.152l-2.986 7.715l-1.119 10.966l7.495 2.189l7.147 7.674l6.395 0.952l5.316 5.096l2.767 4.711l3.157 1.345l-0.318 4.393l0.586 1.568l-1.075 3.35l-3.095 -0.194l2.201 -6.176l-3.236 -0.801l-5.452 1.928l-2.169 -3.169l-4.389 4.368l-3.593 -0.67l0.013 4.277l-4.163 -0.513l-0.272 4.446l2.977 3.321l-1.562 8.83l2.1 5.153l-1.399 6.099l1.523 5.115l-3.988 13.305l-4.03 -0.02l-4.574 14.246l2.089 6.427l-7.227 6.769l-3.95 -3.004l-3.103 0.322l-6.265 6.163z" />
  </g>
  <g data-id="093">
    <path d="m75.184 312.178l-0.961 9.507l61.471 2.099l-0.14 9.832l9.906 0.236l0.04 34.411l24.707 0.141l39.288 1.585l24.138 -0.153l-0.052 -29.252l-0.034 -22.877l0.267 -33.959l0.256 -16.621l-0.1 -29.317l-26.833 -1.078l-49.67 -0.79l-73.87 -2.881l-0.624 6.379l-0.285 2.808l-2.729 24.613l-0.266 5.457l-0.853 4.944l-0.405 4.983l-2.251 20.028l-1.001 9.905z" />
  </g>
  <g data-id="095">
    <path d="m527.818 229.47l-0.084 9.117l9.045 0.321l20.089 0.333l5.044 4.597l1.794 10.073l2.48 0.068l3.751 9.19l3.837 5.738l2.211 3.335l6.227 7.669l2.342 2.859l18.038 20.902l2.831 4.287l31.683 -28.267l4.536 -0.191l4.665 -1.277l14.338 0.35l-0.133 -4.9l-0.376 -16.55l-0.132 -11.116l-0.282 -17.243l-0.323 -13.871l-2.461 -9.82l2.381 -8.102l14.691 -16.309l-7.172 3.866l-3.555 -8.18l-0.443 -8.061l-0.029 -3.098l-7.961 -3.93l-5.967 4.198l-0.256 -22.847l0.061 -3.637l-9.634 -0.126l-37.124 -0.122l-3.048 0.019l6.648 2.411l0.015 4.412l-7.908 2.154l0.719 2.717l6.195 1.526l-1.267 7.271l-3.714 3.432l-1.59 5.574l-2.228 0.874l-4.743 -4.533l-4.061 3.297l-6.33 -1.566l0.976 6.156l-6.563 2.046l-3.2 4.934l-8.384 -1.427l-4.172 2.764l-8.672 -2.254l-8.591 -6.13l-5.669 -13.92l0.259 -1.512l-6.473 42.593l-2.221 16.585l-0.088 13.321z" />
  </g>
  <g data-id="097">
    <path d="m119.841 1490.77l-2.653 3.648l7.627 4.974l0.331 -3.979l0 -4.311l-3.316 -1.326l-1.99 0.995z" />
    <path d="m57.469 1543.72l-1.658 6.632l4.311 4.642l2.653 -2.321l0 -6.632l-0.663 -6.632l-2.985 -1.658l-1.658 5.969z" />
    <path d="m39.754 1582.11l1.702 3.829l5.389 0.567l7.233 -0.284l19.996 -4.68l11.487 -1.418l6.098 0.709l10.439 4.49l4.026 -5.057l3.939 -1.39l1.098 -1.318l-3.337 -3.471l-10.56 -7.682l-0.018 3.263l-1.649 3.688l-3.654 0.528l-4.254 0.851l-5.247 0l-13.331 2.269l-10.069 1.986l-7.516 1.985l-4.396 0.284l-7.374 0.851z" />
    <path d="m11.502 1296.84l1.73 36.864l1.056 24.749l0.687 16.221l0.26 2.815l1.724 42.533l0.05 1.242l0.201 6.107l0.059 2.149l0.493 12.201l0.419 10.302l0.17 1.724l-0.006 2.892l0.411 10.69l0.372 9.674l0.185 4.812l0.13 3.875l0.353 7.207l2.026 45.772l5.679 -5.234l2.971 -0.776l6.328 -0.474l2.53 0.333l3.538 2.622l0.858 3.347l1.372 0.348l5.848 -0.593l2.236 -3.925l6.122 0.16l15.682 6.559l1.236 -0.089l3.219 4.609l-2.183 1.467l-0.56 1.541l0.753 5.682l1.15 1.371l5.462 -2.482l4.518 -0.81l5.47 2.087l2.266 -5.748l0.96 -1.007l2.561 -4.833l2.276 -6.687l0.894 -16.193l-0.66 -8.233l1.616 -2.746l1.054 -3.183l-1.708 -7.115l-0.218 -2.55l0.808 -2.865l2.829 -4.476l2.216 -1.666l0.328 -5.703l-1.082 -5.489l2.956 -5.066l2.79 -3.047l3.041 -7.845l-1.563 -2.14l-0.67 -8.367l4.927 -2.49l2.721 -0.372l2.199 -2.522l1.292 -4.017l2.688 -3.023l1.13 -0.573l2.065 -4.326l-7.066 -17.875l1.15 -6.114l1.535 -2.89l7.282 -4.245l0.987 -5.617l11.864 -5.069l-2.771 -7.267l-7.393 -4.051l-1.663 -4.328l9.052 -14.172l0.609 -1.989l7.819 -3.423l-5.375 -8.579l-6.037 -1.956l2.391 -7.158l-2.283 -5.993l3.989 -4.526l-1.91 -2.37l4.52 -6.12l-2.107 -6.416l-4.057 -0.056l-3.622 -7.006l8.272 -10.477l1.801 -8.33l-7.3 -0.334l-1.837 -4.706l-4.451 -3.461l-9.439 9.469l-7.77 0.047l-77.93 0.098l-0.04 9.604l-28.484 0.019z" />
  </g>
  <g data-id="099">
    <path d="m192.212 1226.82l0.164 4.396l5.201 5.914l14.193 -1.558l10.566 13.101l12.331 6.221l4.558 -0.498l15.794 5.602l10.123 -6.729l9.432 -3.971l17.231 -0.101l1.836 -5.201l7.721 -8.011l9.332 -5.517l3.693 -10.413l4.004 -1.839l9.894 -15.043l7.147 -4.878l11.472 -12.172l1.362 -0.487l5.097 -1.043l2.488 -6.547l8.747 -13.566l-0.321 -4.989l2.458 -10.261l3.85 -6.887l2.156 -8.937l0.655 -9.166l12.193 -3.227l3.633 -4.616l6.24 -3.619l-1.392 -9.007l2.75 -4.425l7.522 1.896l9.716 -1.969l2.63 -2.499l8.697 -2.856l4.138 -3.699l7.812 -2.257l-0.279 -25.473l-85.715 0.7l-8.501 -1.083l-71.538 0.836l-0.006 5.002l-4.858 -0.121l0.623 38.251l-14.15 0.233l0.398 47.039l-9.443 8.556l-6.191 4.155l4.571 4.773l11.797 7.355l-0.16 4.25l-3.807 10.663l-7.293 7.37l-5.46 -0.386l-4.728 -4.588l-7.233 0.524l-5.569 5.104l-5.724 2.157l-5.523 8.896l0.859 9.842l-6.597 3.385l-2.003 -2.384l-0.269 -7.112l-2.303 -0.638l-1.448 6.605l-4.574 4.95z" />
  </g>
  <g data-id="101">
    <path d="m552.857 886.692l-1.359 6.57l6.221 4.257l-4.625 9.881l1.773 5.654l21.187 13.26l0.128 11.323l0.568 52.472l27.69 -0.318l1.346 28.507l30.928 -0.457l54.639 -0.362l-0.36 -27.475l-0.281 -29.827l-0.362 -35.921l3.519 -0.031l-0.003 -7.162l18.769 -0.673l-9.774 -9.185l-1.156 -7.025l-2.969 -3.324l-6.189 -0.841l-0.665 -7.204l-5.835 -8.716l1.015 -6.616l-3.368 -5.179l-5.451 0.678l-1.076 3.894l-8.834 -2.171l-2.293 -2.954l-8.385 1.528l-3.691 -1.706l1.145 -3.921l-7.139 3.112l-0.895 -3.21l-10.615 -0.589l3.259 -3.758l-4.875 -1.284l-10.88 -14.421l-7.206 -2.073l0.243 4.87l-7.877 4.603l-6.417 -5.413l1.469 7.265l-4.794 7.765l4.746 9.424l-10.133 -5.823l-15.048 1.883l-3.564 5.621l-9.361 3.337l-3.223 -1.982l-1.396 0.781l-0.638 8.653l-7.907 4.282z" />
  </g>
  <g data-id="103">
    <path d="m380.562 201.027l-0.207 34.485l5.059 0.508l70.685 1.393l6.717 0.139l64.917 1.036l0.084 -9.117l0.088 -13.321l2.139 -15.915l5.738 -42.313l-0.125 -6.268l-4.025 -4.696l-8.517 -2.234l-4.376 1.654l-6.146 7.465l-8.077 1.052l-3.186 -8.709l-7.151 -3.799l-5.451 2.134l-8.766 9.162l-10.301 1.654l-13.07 -1.828l-6.479 -3.708l-13.139 -4.292l-18.3 -11.373l-2.086 -1.77l-3.289 -2.961l-4.054 -2.311l-8.02 -6.081l-4.894 0.557l-14.569 -12.091l-0.192 27.274l-0.126 10.587l-0.881 53.687z" />
  </g>
  <g data-id="105">
    <path d="m264.532 790.276l0.199 57.507l0.054 57.743l14.289 -0.106l14.324 -0.161l-0.393 -57.786l43.958 -0.349l12.455 -0.982l30.201 -0.503l3.355 -5.369l3.002 -9.821l2.267 -0.881l1.28 -6.715l-1.158 -4.325l6.808 -4.641l4.547 -4.884l-1.998 -7.15l1.21 -7.347l3.196 -6.976l-0.328 -10.557l4.323 -11.172l-0.389 -35.68l-22.051 0.341l-31.906 0.278l-5.792 0.974l-23.968 0.238l-0.081 -14.483l-28.385 0.205l-0.052 14.508l-14.171 0.069l-0.006 28.932l-0.45 5.063l-0.03 23.979l-14.31 0.051z" />
  </g>
  <g data-id="107">
    <path d="m39.684 651.823l-2.63 27.056l47.04 -1.551l0.027 -4.261l8.044 -5.555l-1.805 -3.973l9.539 -1.5l8.129 1.85l3.126 -5.498l2.756 0.473l6.018 6.231l3.309 -3.172l-2.177 -3.822l3.46 -3.318l12.69 -5.665l3.531 0.99l8.519 -12.332l1.292 0.488l15.874 -8.66l10.958 -4.815l-0.257 -43.584l-0.625 -80.397l-29.532 0.259l-91.551 -3.328l-0.61 5.873l-0.172 1.348l-3.811 37.92l-3.255 32.351l-0.467 4.637l-2.265 22.488l-0.753 5.87l-0.53 6.402l-3.85 36.984z" />
  </g>
  <g data-id="109">
    <path d="m634.472 1069.96l0.008 5.716l14.242 -0.164l0.333 41.926l-3.602 0.956l0.328 4.161l-5.523 6.341l-0.285 3.826l9.432 -0.401l99.546 -0.073l11.41 -0.028l1.906 -0.512l3.233 -4.182l3.819 -9.221l-0.492 -12.305l3.29 -3.022l0.283 -8.027l2.652 -5.289l5.995 -3.541l3.188 -8.105l-3.194 -8.148l1.626 -8.652l-2.59 -7.323l5.559 -7.72l-37.217 -0.027l0.279 -28.568l-26.313 0l0.028 -4.802l-2.344 -2.369l-0.279 -19.186l-4.968 -0.001l-0.083 -2.435l-9.633 0.06l-0.006 -2.41l-1.104 2.417l-7.16 0.041l-2.272 2.295l-3.571 -1.184l0.36 27.475l-54.639 0.362l4.579 11.791l0.524 12.312l-2.572 7.511l-0.179 12.449l-4.593 8.055z" />
  </g>
  <g data-id="111">
    <path d="m787.646 573.913l-0.89 66.538l16.875 -0.235l100.658 -0.245l-1.152 -7.154l-16.012 -99.637l-2.94 -18.332l-7.414 -2.721l-4.655 -3.468l-1.347 2.991l-81.173 -1.153l-1.795 57.386l2.451 0.093l-0.085 6.001l-2.52 -0.065z" />
  </g>
  <g data-id="113">
    <path d="m848.034 871.653l0.14 57.848l1.703 29.047l4.799 -0.033l42.527 -0.422l-0.542 3.095l6.562 4.901l1.993 6.904l9.312 6.872l1.209 5.68l1.771 0.95l37.872 -0.242l0.636 -8.214l-3.261 -16.02l13.249 -14.659l13.823 -5.987l-0.809 -1.616l-4.102 -1.22l3.321 -3.991l11.831 -0.923l1.004 -2.87l2.066 -5.905l6.863 -4.352l-12.38 -11.987l-6.295 -2.599l-12.7 -5.244l-1.736 -4.842l6.873 -8.756l0.433 -5.619l1.349 -3.51l0.534 -7.971l3.276 -2.515l-2.344 -6.711l-6.557 -3.439l0.028 -7.275l-2.08 -10.104l-0.294 -1.429l-12.285 0.245l-2.441 0.028l-1.199 0.517l0.424 11.514l-24.605 0.572l-21.562 0.296l-30.441 0.544l1.032 19.109l-7.45 0.117l-21.542 0.214z" />
  </g>
  <g data-id="115">
    <path d="m528.964 407.897l-0.076 12.308l9.778 0.048l0.032 9.912l4.902 4.831l-0.098 21.859l0.084 2.462l-2.425 -0.061l-0.096 4.873l-2.416 -0.008l0.012 4.87l-2.427 4.819l-0.145 14.884l9.836 2.56l-0.011 2.505l9.831 -0.059l-0.109 14.57l28.941 0.045l-0.124 37.263l9.138 -6.704l2.736 -4.696l3.632 -6.49l3.479 -2.693l8.376 -19.565l4.888 -0.363l-0.7 5.276l3.445 2.512l5.003 -1.903l2.441 -8.707l10.069 -7.759l-0.608 -3.151l-4.443 -2.25l-3.466 -9.397l2.173 -2.237l6.795 1.157l1.254 -0.875l-4.57 -5.013l8.729 -3.523l1.282 -5.829l-2.108 -7.777l-7.911 -5.696l-1.171 -4.259l5.124 -3.334l2.79 0.945l1.604 5.805l4.396 2.582l2.666 -2.504l0.516 -10.074l5.533 -0.555l2.036 -4.365l9.763 -6.432l5.307 -5.679l5.083 -1.062l-5.581 -11.655l3.607 -8.852l-3.86 -6.068l2.995 -1.411l-5.186 -6.514l-6.57 1.485l-3.41 -6.667l-1 -7.663l-8.439 1.549l-1.81 -7.119l-4.511 -2.022l-0.221 -6.094l-0.552 -6.891l-4.323 -2.362l-4.333 -5.625l-8.662 2.063l-5.965 5.782l-7.393 -7.898l-3.362 1.802l-9.904 14.659l0.969 2.596l-7.632 8.556l1.899 6.895l-9.721 8.323l-7.938 8.672l-8.855 5.346l-2.11 -2.014l-9.77 3.636l-8.984 1.463l-2.589 2.986l-15.558 -0.026z" />
  </g>
  <g data-id="117">
    <path d="m403.589 593.837l0.349 26.901l10.268 1.319l5.367 1.235l0.071 18.021l5.143 1.82l-0.218 6.609l4.93 -0.019l0.006 4.907l14.73 4.714l-0.127 -7.311l10.859 0.307l4.991 0.802l6.287 -0.105l20.175 -0.143l33.484 -0.243l1.666 4.967l14.004 12.034l4.74 -1.831l5.445 1.287l-0.758 -12.123l3.916 -3.583l-1.428 -6.888l5.612 -4.834l8.679 -7.387l-6.434 -7.719l-0.135 -3.746l-5.486 -6.542l4.739 -7.577l7.022 -0.354l-1.537 -7.19l5.438 -6.037l3.201 0.198l1.857 -2.514l1.256 -3.681l-2.76 -7.043l6.691 2.912l4.728 -0.831l9.048 -5.667l-0.025 -4.928l-1.745 -3.394l-0.07 -6.131l1.477 -3.752l5.938 -2.054l-3.326 -6.502l-7.201 -6.164l0.124 -37.263l-28.941 -0.045l0.109 -14.57l-9.831 0.059l-0.116 7.284l-12.117 2.217l-12.246 16.883l-6.189 0.095l-11.425 0.056l-1.902 4.971l-4.88 0.08l-1.862 3.467l-0.486 3.607l-2.863 -0.075l-2.098 4.766l-9.586 0.154l-2.415 9.188l-4.804 -0.192l-0.08 7.372l-14.394 2.042l-0.068 5.934l-0.035 3.669l-2.464 -0.005l-12.024 -0.219l-2.447 2.303l-1.191 3.087l-8.533 6.684l-0.009 6.132l-12.112 3.566l-2.451 3.755l-1.223 1.077l-0.04 2.331l-12.266 -0.151z" />
  </g>
  <g data-id="119">
    <path d="m16.577 883.522l-2.13 21.547l136.948 -0.625l-3.157 -1.345l-2.767 -4.711l-5.316 -5.096l-6.395 -0.952l-7.147 -7.674l-7.495 -2.189l1.119 -10.966l2.986 -7.715l10.34 -7.152l5.444 -0.766l5.834 -5.097l2.535 -6.046l8.761 -8.913l3.461 -1.649l13.557 2.637l2.262 -0.986l0.856 -2.446l-3.324 -2.155l-5.69 -4.038l-0.336 -9.117l-6.513 -6.788l0.123 -2.559l4.265 -3.205l5.729 1.073l0.53 5.166l5.387 -4.927l-4.808 -4.979l-5.335 -0.428l-7.702 2.487l-1.948 -3.375l-4.707 -2.492l-5.192 1.808l-8.29 5.316l-9.175 3.332l-13.239 2.411l-6.09 -8.693l0.038 -6.264l6.702 -2.615l-0.832 -9.248l4.768 -4.404l-2.953 -3.091l-7.464 4.307l-8.067 -1.731l-2.434 -3.918l8.506 -2.658l0.979 -3.44l-5.457 -6.579l-2.29 -10.527l1.856 -2.8l6.597 2.15l4.148 -6.386l-4.104 -4.083l-7.318 2.017l-7.611 -11.435l-4.072 2.652l-9.056 -1.773l6.909 -7.529l-6.974 -6.246l-2.731 -12.978l-4.9 -4.671l3.073 -3.613l5.852 1.183l0.845 -3.59l-2.808 -0.93l-0.475 -5.574l5.242 2.704l2.212 -3.412l-2.787 -1.985l-1.26 -8.419l-47.04 1.551l-2.07 20.659l-1.798 17.929l-3.922 42.322l-1.392 11.885l-2.692 28.132l-1.638 16.174l-3.1 30.683l-1.067 11.751l-1.76 16.731l-0.671 6.36l-0.368 2.016z" />
  </g>
  <g data-id="121">
    <path d="m554.463 608.711l-4.739 7.577l5.486 6.542l0.135 3.746l6.434 7.719l-8.679 7.387l88.359 -0.483l0.43 -30.424l14.583 0.39l0.661 -33.968l4.844 0.081l24.913 0.588l8.723 0.042l1.051 -29.285l9.84 0.04l0.108 -4.781l4.775 -0.051l0.264 -19.515l4.877 -0.045l0.12 -14.701l14.794 -0.029l15.357 -14.428l0.223 -4.812l0.417 -9.827l-22.605 -0.147l-33.307 -0.158l-0.543 -4.84l-6.937 -1.024l-0.3 -5.676l-0.832 -8.5l-6.635 -9.113l-1.462 -0.418l-6.916 -0.364l-18.405 -1.105l-2.666 2.504l-4.396 -2.582l-1.604 -5.805l-2.79 -0.945l-5.124 3.334l1.171 4.259l7.911 5.696l2.108 7.777l-1.282 5.829l-8.729 3.523l4.57 5.013l-1.254 0.875l-6.795 -1.157l-2.173 2.237l3.466 9.397l4.443 2.25l0.608 3.151l-10.069 7.759l-2.441 8.707l-5.003 1.903l-3.445 -2.512l0.7 -5.276l-4.888 0.363l-8.376 19.565l-3.479 2.693l-3.632 6.49l-2.736 4.696l-9.138 6.704l7.201 6.164l3.326 6.502l-5.938 2.054l-1.477 3.752l0.07 6.131l1.745 3.394l0.025 4.928l-9.048 5.667l-4.728 0.831l-6.691 -2.912l2.76 7.043l-1.256 3.681l-1.857 2.514l-3.201 -0.198l-5.438 6.037l1.537 7.19l-7.022 0.354z" />
  </g>
  <g data-id="123">
    <path d="m688.003 733.197l-1.653 2.541l1.725 2.63l0.034 18.99l9.774 0.018l-0.169 -4.743l4.8 0.033l0.196 4.746l16.6 0.081l4.327 0.018l-3 12.447l-4.704 5.871l-1.184 7.116l6.688 10.02l-0.708 4.788l-1.193 6.106l1.93 18.793l-0.767 19.145l1.184 2.343l24.832 -0.391l-0.297 -21.383l-0.102 -7.364l23.978 -0.247l0.969 -4.617l3.719 -0.052l-0.251 -33.635l4.772 -0.166l-0.056 -4.841l19.421 -0.464l0.072 -4.65l4.7 -0.193l-0.079 -56.022l0.072 -69.895l-16.875 0.235l-27.896 0.451l-13.412 0.327l-48.279 -0.329l0.043 4.923l-9.657 0.082l0.231 30.778l0.009 19.274l0.207 37.239z" />
  </g>
  <g data-id="125">
    <path d="m176.501 500.808l0.625 80.397l0.257 43.584l-0.147 5.59l1.838 14.328l-0.216 25.501l22.295 -0.002l10.49 -0.153l-0.271 3.626l81.973 1.146l28.851 -0.932l0.185 -6.131l1.757 -23.082l8.268 -13.035l23.056 0.801l0.046 -21.965l13.137 -11.983l2.391 -1.236l6.036 0.115l0.1 4.793l4.858 0.006l7.662 -8.465l3.043 -0.025l-0.004 -6.915l-0.001 -2.772l-6.067 -4.919l-10.955 -0.056l-0.108 -5.064l-9.729 -0.192l-0.047 -4.817l-4.873 -0.033l-0.032 -2.304l-0.07 -4.999l-4.139 -0.03l-0.765 -5.032l-9.603 -2.578l-0.013 -9.786l-4.818 -0.149l-1.249 -7.431l-8.507 -2.639l-0.025 -4.972l-8.38 -0.382l0.078 -4.686l-5.989 -0.174l-1.708 -4.766l3.187 -7.179l12.627 2.066l-0.116 -5.519l6.719 0.534l-1.552 -4.098l-14.318 -0.414l-0.082 -24.518l-14.652 0.11l-0.022 -4.901l-14.672 -0.134l-58.044 -2.592l0.03 9.77l-9.773 0.289l-0.008 19.466l-5.833 0.194l-13.697 0.508l-29.028 -1.764z" />
  </g>
  <g data-id="127">
    <path d="m233.582 340.583l0.052 29.252l-0.03 14.539l29.142 1.472l0.911 58.94l29.158 0.985l0.04 29.166l14.672 0.134l0.022 4.901l14.652 -0.11l0.082 24.518l14.318 0.414l-2.402 -3.055l1.906 -2.854l5.087 5.484l4.986 -8.43l6.298 0.218l6.762 -5.742l-3.103 -2.183l-2.138 -5.504l2.135 -6.868l4.847 0.021l0.035 -4.864l9.771 0.13l-0.017 -4.957l14.437 0.117l0.009 -9.728l9.75 0.171l0.141 -9.76l4.865 -0.667l-0.229 -13.923l2.527 -0.003l2.296 -5.909l0.019 -8.773l4.854 0.052l-0.021 -4.923l9.777 0.26l-0.087 -4.952l4.317 0.129l0.588 -4.859l-0.179 -9.931l-2.526 -4.488l-8.547 -0.911l-3.593 -1.763l-0.06 -7.645l-23.651 -0.392l-2.504 -2.778l5.25 -2.704l-1.001 -4.291l-5.299 -5.398l-2.177 -8.164l-6.056 -1.886l-4.731 -9.466l-4.987 -3.998l-5.86 0.774l-2.825 6.032l-4.661 -3.037l-13.831 -0.219l-65.215 -0.696l-37.976 -1.877z" />
  </g>
  <g data-id="129">
    <path d="m2.456 1106.03l1.313 24.242l1.872 40.554l0.401 6.097l0.148 7.225l0.412 7.723l0.254 4.761l0.963 21.347l1.535 28.854l0.259 4.886l-0.056 1.879l0.215 5.105l1.731 38.141l28.484 -0.019l0.04 -9.604l77.93 -0.098l7.77 -0.047l9.439 -9.469l4.451 3.461l8.804 -0.116l-1.471 -9.745l-0.508 -4.532l4.765 -5.785l-3.544 -6.441l-5.398 -1.919l-1.632 -2.673l-4.744 -0.456l2.928 -3.254l5.753 0.646l-0.633 -3.886l2.756 -5.428l-4.804 -4.871l1.425 -1.64l9.792 1.077l0.362 -7.075l3.658 0.166l0.572 3.6l5.361 -13.389l-1.104 -2.719l1.541 -6.489l-2.989 3.634l-5.758 -2.796l0.376 4.216l-7.531 0.512l4.625 -6.995l4.364 0.667l1.318 -3.773l-5.713 -0.58l4.654 -5.415l-6.688 -5.885l5.485 -2.41l-1.015 -5.684l3.612 -8.052l-5.105 -3.688l-5.043 -7.757l-7.775 -1.253l-3.175 -2.735l-10.288 -4.409l-3.53 -2.662l-2.45 -3.854l4.662 0.44l-1.212 -4.367l-6.629 0.245l-5.8 -3.602l-2.157 -3.693l1.591 -3.476l-2.71 -4.567l-1.511 -9.317l2.979 -3.564l-2.298 -5.431l-0.374 -4.303l-104.955 0.443z" />
  </g>
  <g data-id="131">
    <path d="m224.701 1006.1l0.049 3.554l0.26 38.011l9.432 -0.096l3.371 1.854l0.234 14.214l33.256 -0.699l71.538 -0.836l8.501 1.083l85.715 -0.7l-0.569 -43.069l14.33 -0.162l0.281 -28.359l-14.058 0.126l-75.591 0.15l0.635 -5.659l-4.463 -1.829l0.353 -5.211l-9.171 -2.451l-6.231 -9.436l-4.365 -0.523l2.489 -3.968l-2.962 -3.695l-5.026 0.877l-3.255 -7.765l-7.096 -4.404l-2.986 -4.638l-6.896 -2.084l-3.353 1.46l-2.547 -8.145l-3.928 -0.41l-1.585 -4.672l-7.944 -2.24l-6.094 -8.188l-7.706 1.325l-11.68 -0.354l-2.569 4.951l0.32 38.975l-28.428 0.144l0.349 41.773l-12.609 1.094z" />
  </g>
  <g data-id="133">
    <path d="m233.547 317.706l0.034 22.877l37.976 1.877l65.215 0.696l13.831 0.219l4.661 3.037l2.825 -6.032l5.86 -0.774l4.987 3.998l10.895 0.283l0.293 -60.7l0.207 -18.829l0.08 -23.95l-108.333 -1.738l-8.808 -0.052l-29.299 -0.81l0.1 29.317l-0.256 16.621l-0.267 33.959z" />
  </g>
</svg>
