<?xml version="1.0" encoding="UTF-8"?>
<!DOCTYPE svg PUBLIC '-//W3C//DTD SVG 1.1//EN' 'http://www.w3.org/Graphics/SVG/1.1/DTD/svg11.dtd'>
<svg viewBox="0 0 10000 15014.5" xmlns="http://www.w3.org/2000/svg">
  <g data-id="001">
    <path d="m1308.3 4448.7l0 0l-1.6 218.5l29.4 -0l0.1 195.4l31.5 -0.1l0.1 47.5l31.5 -0.1l0.4 235l-31.3 -0.1l-0 64.5l-2.2 41.5l17.9 -43.6l28.8 -6.1l85.8 -77.6l86.6 -109.2l2.3 22.9l-32.5 16.2l1.6 186.6l-20.3 -0l-1.6 256.7l-46.1 -0l-0.9 282.7l30.7 1.3l0.6 30.5l30.9 3.6l0.6 27.8l31 0.2l-0 31.5l31.1 0.1l-0.1 31.6l31.5 -0.1l-0.2 31.5l31.5 -0.3l-0.4 34.3l30.1 -1l0.1 31.7l37.9 -0.2l-0 31.9l31.3 0.2l-0 31.5l31.2 -0.4l0.4 30.9l31 -0.2l0 32l32.6 -0.1l-0.8 64l38.7 0.8l-0.2 25.3l31.7 0.1l0.3 32l30 0.2l-0 33.6l34.6 0.3l-0.2 29.6l29.8 0.4l0.7 63l64.2 0.9l0.3 80.8l1489.6 2.1l150.3 -42.7l-1.9 -4.4l-3.1 -12.1l-1.7 -3.9l-4.8 -5.7l-5.9 -3.2l-6.4 -2.7l-6.7 -0.8l-4.9 -4.3l-6.6 -8.2l3.9 -8.9l5.4 -6.5l3.3 -12.7l-2.6 -19.8l-11.7 -4.8l1.1 -13.1l9.1 -0.9l6.9 -8.1l6.9 -10.2l-6.2 -9.8l4.7 -23.4l16.1 -11.5l25.8 -21.5l19.3 -4.9l15 -26.6l13.1 -22.7l11 -6.3l10.9 -13.8l2.2 -17.1l5.5 -26.1l-2 -22.8l-12.6 -26.2l-8.2 -17.2l-3.7 -26l-15.7 -22.5l-0.3 -17.9l-9.3 -18.8l-6.9 -26.7l-6.4 -19.3l-7.4 -18.2l1 -21.7l-4.2 -13.9l4.5 -30.5l11.5 -19.7l4.4 -8.7l8.5 -5.5l4.9 3.3l25 5.3l20.7 -4.8l13.6 -3.7l15.2 -2.4l8.3 -8.1l7 -12.2l5.7 -10.9l3.6 -10.9l0.9 -10.5l10.2 -9.3l0.6 -13.5l10.1 -7.9l16.5 -3.1l14.7 -3.1l14.6 -9.3l3.8 -16.5l1 -13.5l3.8 -14.2l-7.8 -11.7l-10.3 -4.8l-10.4 -1.9l-2.4 -4.1l0.2 -7.8l4 -4.8l13.2 -6.3l12.3 -2.8l9.6 -10.7l10.5 2.1l10.4 -7.6l6.9 -18.9l11.3 -6.3l6.6 0.4l6.3 -5.9l1.4 -5.7l10.1 -6.8l9.9 -6.3l1.2 -11.9l-1 -10.2l0 -7.8l5 -6.3l9.4 -3l15.1 1.7l15.1 -12.2l24 -1.7l21.1 -4.6l10.1 -8.5l8.5 -6.4l16.1 -1.5l20.9 9.9l9 -3.7l5.9 -7.8l4.5 -15.4l9.1 -9.1l2.7 -13.5l4 -16.7l-0.4 -8.4l-0.2 -14.6l4.9 -13.7l1.6 -17l-1.6 -16.5l-2.2 -8.3l3.5 -12.4l3.5 -10.2l9.4 -13.4l10 -14.5l1.9 -9.1l-1.6 -12.8l-7.8 -5.6l-13 -9.3l-6.7 -5.6l-9 -7.4l4.8 -8l7.6 -9.6l-0.6 -13.9l10.1 -15l1.3 -13.3l5.5 -7.6l3.5 -12.2l-5.2 -8.5l-13.8 -13.5l-8.1 -14.6l-7.4 -12.2l3.5 -15.1l-4.5 -10.3l8.2 -15.1l5.7 -14.4l5 -13.1l-3.4 -10.5l-5.7 -7.6l-7.4 -1.7l-10.2 -10.7l-4.7 -7.2l-1.2 -14.6l-0 -13.5l1.2 -17l6.4 -12.9l5.4 -11.6l-1 -17.2l-1.5 -32.7l9.6 -13.1l-5 -12.8l-2.2 -16.1l8.3 -17.2l17.9 -21l4.2 -17.7l6.6 -14.5l2 -17l4.5 -17.9l-1 -15.5l1.2 -15.9l-3.9 -10.7l-4 -18.1l-2.8 -15.7l-2.3 -17.7l1 -12.9l-4.9 -9.8l-7.2 -15.7l-7.4 -16.4l-15.3 -10.3l-14.4 -9.4l-12.9 -12.5l-4.5 -29.5l-18.9 -9.4l-9.7 -23.8l-10.1 -14l-12.9 -15.8l-3.7 -5.9l-1607.8 5.2l-1213.9 -1.6z" />
  </g>
  <g data-id="003">
    <path d="m6886.9 11205.3l0 0l2 1396.9l83.8 3l-0.1 101.1l-0.3 327.2l159.5 155.1l103.2 97.8l34 32l35.2 34.9l0.6 0.6l0.8 0.8l33.2 31.3l2.6 3.8l209.5 203.7l147.4 141.1l11.4 13.1l2.6 2.1l17.7 17l4.1 4.3l41.4 40.1l105.7 102.3l54.3 52.6l185.6 181.8l0.9 0.4l22.3 21.5l1.6 1l33.5 33.4l38.4 36.1l8.2 9l90.9 88.3l170.3 168.4l28.1 26.6l0.2 0l201.7 198.4l1.3 1.2l286.2 282.3l-5.3 -14.2l-2.3 -24l1.9 -16l7.5 -18.9l8.9 -14.6l34.2 -29.1l5.2 -10.8l1.2 -8.9l-3.1 -12.8l-14.1 -16.9l-15.7 -11.5l-34 -16l-6.6 -11l4 -8.3l24.2 -25.3l16.8 -6.9l34.8 1.2l19.1 -5.5l15.4 -10.3l9.7 -20.4l5.3 -49.9l0.6 -41.9l-4.8 -35.1l-4.6 -10.9l-8.6 -7.7l-6 -41.6l0.8 -16.7l-6.7 -49.8l-17.4 -71l2.6 -58.1l-14.1 -58.3l-11.9 -31.8l-26.3 -83.2l-41.7 -40.4l-17 -31l-4 -10.8l-3.1 -35.7l-10.9 -30.6l-7.9 -16.5l-2.6 -21.1l3.4 -27.8l5.7 -9.1l17.9 -13.6l8.5 -12.4l1.8 -8l-0.8 -4.1l-4.7 -6l-3 -12.8l-1.7 -37.5l-5.3 -28.6l0.9 -5.9l10.1 -14.6l8.9 -20.8l1.5 -27.2l-8 -17.1l-31.7 -46.2l-20.6 -20.5l-1 -27.4l13.1 -27.9l2.7 -15.1l-4.4 -8l-18.3 -12l-11.9 -12.4l-7 -14.7l0.2 -6.8l13.4 -45.6l2.7 -46.1l-9.6 -27.1l4.2 -43.6l-22.1 -33.1l3.7 -8.3l10.4 -9.1l13.4 -33.1l-1.2 -6.6l-5.8 -19.6l0 -10.5l3.5 -13.4l26.4 -17.5l20.7 -3.7l4.2 -20.1l-55.4 -55.8l-13.8 -21.8l1.7 -32.6l-13.7 -13.8l-22.9 -13.9l-3 -5.2l4.8 -25.6l-2.7 -12.2l-17.9 -27.9l-5.3 -19.6l0.9 -44.4l0.8 -7.1l3.8 -7l5.3 -6l10.4 -11.7l2.4 -13.1l-1.2 -6.5l-6.5 -9l-8.5 -4.5l-2 -6.5l0.4 -5.5l0 -11.6l6.1 -10.6l0.8 -8.5l-7.2 -15.2l-4.7 -9.8l-18 -18.5l-2.3 -4.5l-0.2 -11.5l3.3 -7.3l11 -13.1l18.3 -15.3l31.6 -6.9l12.6 -0.1l72.5 -19.9l6.1 -5.4l4.9 -8.7l47.3 -37.7l6.5 2.7l10 18.4l8.7 4.2l14.1 -8l18.5 -16.9l42.2 -19.7l44 -1.3l57.1 2.7l8.4 5.6l3.5 5.5l-0.3 6.7l-1 10.2l-1.3 5.9l0.6 6.7l2.2 3.5l3.8 2l10.1 2l15.2 -3.2l28.3 -19.5l10.9 -1.9l8.8 2.3l8.5 16.3l7.8 9l3.4 0.9l32.6 -21.4l17.1 -19.6l7.7 -3.1l11.6 -0.2l55.9 8.8l15.1 26.7l43.3 46.1l14.2 5.2l34.1 47.8l4.5 15.7l-3.6 7.4l-10.6 9.7l-3.2 7.3l0.9 7.5l2.6 2.8l56.7 24.5l16 22.1l6.6 13.4l6 6.8l17.6 11.9l23.2 11.7l9.2 0.6l32.9 -2.7l35.7 -11.1l26.1 -13.8l17.4 -0.2l20.7 8l4 -1.5l5.9 -7.2l16.7 -27.5l1.7 -11.4l-1.7 -13.2l2.2 -13.1l37.5 -74.1l0.6 -3.7l-5.5 -8.1l-9.7 -8l-1.3 -3.7l1.4 -10.5l3.8 -6.3l16.5 -11l13.1 -0.6l5.6 -3.1l18.3 -47.2l35.1 -75.3l12.9 -18.1l22.6 -9.8l0.2 -106.3l-0.6 -11.1l-1.9 -38l-0.5 -43.1l2.6 -53.8l-1.1 -21.1l3 -136.3l-0 -108.1l-1.1 -63.5l-3.3 -55.3l-2 -252.8l-0.8 -8.1l-0.7 -65.3l-0.1 -390.9l0 -0l-192.5 -0.5l-1000.3 -1l-0.3 -20.1l-1639.8 0.8l0.2 23.4l-261.8 -0.4z" />
  </g>
  <g data-id="005">
    <path d="m3.9 6376.4l0 0l1.6 97.6l2.4 146.5l162.1 142.8l530.7 470.3l1 0.8l2.7 2.4l153 136l0.3 0.3l72.8 63.9l-0 -0l125.1 114l9.9 7.5l61.5 53.5l8.4 7.6l-1.4 -243.8l-31.1 -0.1l-3.5 -173.2l-12.8 -14.8l-81.8 5.9l4 -162.8l-30 -30.5l-0.2 -63.2l-30.2 0.2l0.6 -63.3l29.6 -0.3l1.8 -156.4l30.7 0.1l1.4 -61.8l97.3 -16.1l55.1 0.1l0.5 -61.8l-2.2 -138.6l-144.2 -3.4l-256.9 -1.3l-337.1 1.9l-0.1 -31.6l-15.1 -31.3l-405.9 2.9z" />
  </g>
  <g data-id="007">
    <path d="m5007.4 1128.5l0 0l-0.3 1113.9l723.5 -0.3l718.4 1.1l0.5 738.9l263 1186.3l278.1 -1l560 -0.1l29.8 1.9l974.3 10.9l1433.3 11.3l0.9 -252.3l-0 -365.7l0.6 -58.4l1 -12l-0.5 -141.4l-0.1 -2.9l0.5 -23.8l3 -485.1l-0.5 -71.6l0 -1.2l1.1 -27.6l1.7 -506l0 -0.1l1.2 -462.3l-1.9 -7.1l1.9 -20.1l2 -606.8l-1.2 -18.4l0.8 -258.6l0.8 -21.4l0.1 -289.2l-2.1 -217.7l0.1 0l2.4 -77.1l-3.5 -245.4l-10.9 -0l-0 -0.2l-22.7 0l0 -0.3l-76.3 0.2l-0.3 -0.3l-292.3 -0.6l-0.1 -0l-311.3 -2.9l-51.4 1.9l-0 0.1l-167.6 0.2l-205.2 -8.4l-143.6 -8.1l-41.4 -0.9l-75.1 2l-39.1 3.2l-25.1 0l-197.1 8.8l-10.7 -0l-356.4 -0.3l-5.9 -1.3l-99.8 1.4l-457.5 -1.8l-65.5 -1.2l-409.4 1.5l-15.8 -2.5l-13.4 -0.4l-166.4 -1.1l-42.5 1.1l-0 -0l-11.3 0.7l-0 -0.1l-19.8 0.9l0 -0l-13.1 -0l-0.1 -0.1l-204.9 -0.1l-5.2 -0.1l-283 0.6l-59.9 2.3l-159.3 -0.6l-32.8 -0.8l-4.6 0.1l-23.4 0.3l-3.3 -1.3l-14.6 0.5l-24.9 -1l-95.4 -0.6l-7.9 1l-65.4 -0l-1.4 -0.8l-573.9 -2.8l-67.2 1.9l-15 -2.8l-0.1 1122.1z" />
  </g>
  <g data-id="009">
    <path d="m2661.4 8981.4l0 0l-16.5 0.6l296.4 270.8l333.1 304.4l20.8 20.4l-0.1 0.1l107.4 97.2l119.3 113l48.1 39.2l72.4 68.3l201.8 189.9l53.2 45.4l166.3 156.9l67.9 61.1l67 62.4l1.3 -0.2l208.2 196.8l184.1 172.2l35.4 30.8l132.3 123.9l0.9 -836.4l1.2 -1311l-1.4 -29.4l-85.1 -98.3l-41.3 -4.7l0.3 -42.1l-754.4 -862.3l-910.8 1011.2l-27.7 35.9l-168.5 189.9l-106.5 -0.4l-4.9 -5.6z" />
  </g>
  <g data-id="011">
    <path d="m5713.3 6239l0 0l-6.4 31.9l1003.5 0.5l16 -1.3l143.6 0l-0.1 -127.6l-0.8 -310.1l0.5 -121.5l-0.5 -82.4l6.9 3.1l12.5 -1.7l8.4 -9.6l26.2 -11.4l9.9 -10.9l-0.1 -27.2l5.3 -7.7l5.4 -13.2l9.2 -6l8.5 -6.5l13.8 -18.7l6.2 -25.6l13.1 -55.9l2.1 -52.5l26.3 -38.6l-5 -48.8l-11 -52.8l3.4 -52l-1.1 -43.7l-9.4 -39.5l-6.1 -68.4l26.6 -41.5l10.8 -36.2l-1.2 -55.4l-4.5 -56.8l22.8 -40.2l10 -44.3l-14.8 -39.7l-2.9 -40.7l5.7 -44.2l-24.9 -52l-2.6 -55.1l-16.8 -49.9l-6.3 -41.4l9.7 -53.3l-0.2 -59.2l-9.9 -47.7l-9.1 -54.1l17.3 -33.5l-7.6 -22.7l-4.8 -5.7l-278.1 1l-263 -1186.3l-0.5 -738.9l-718.4 -1.1l-0.5 118.5l-16.3 1.2l1.6 352.5l-7.1 1571l16.3 3.8l-4.1 1471.1l-6.7 53.3l-0.5 425.6z" />
  </g>
  <g data-id="013">
    <path d="m1130.9 1719.9l0 0l2.1 611l33.8 0l876.4 -1l-0.1 232.7l584.2 0.5l1330.8 -4.7l-0.3 384l577.3 17.9l-1 331.4l90.2 -256.7l382.4 -1.3l0.4 -791.2l0.3 -1113.9l0.1 -1122.1l-0.1 -0l-13.2 -1.2l-24.7 0l-24.3 0l-22.1 -0.3l-216.5 -0.8l-33.1 1.1l-311.9 1.3l-66.1 -0.8l-302.8 2.7l-3.8 0.8l-414.8 -0.5l-542.6 3l-0.3 0l-508.9 3.5l-169 3.5l-158.6 4.7l-133.2 -2l-2.3 0l-30.8 0.6l-344.3 -3.2l-347.4 1.4l-39.6 -2.3l-32.1 0.8l-122.6 -0.8l-1.1 309.3l-3.7 598.1l5.1 394l32.4 -0.4l-1.8 402.1l-42.5 -1.3z" />
  </g>
  <g data-id="015">
    <path d="m3695.6 6306.9l0 0l-1.1 13.1l11.7 4.8l2.6 19.8l-3.3 12.7l-5.4 6.5l-3.9 8.9l6.6 8.2l4.9 4.3l6.7 0.8l6.4 2.7l5.9 3.2l4.8 5.7l1.7 3.9l3.1 12.1l1.9 4.4l743.6 -151.3l846.1 2.9l379 1.3l6.4 -31.9l0.5 -425.6l6.7 -53.3l4.1 -1471.1l-16.3 -3.8l7.1 -1571l-1.6 -352.5l16.3 -1.2l0.5 -118.5l-723.5 0.3l-0.4 791.2l-382.4 1.3l-90.2 256.7l-404.2 1153.4l3.7 5.9l12.9 15.8l10.1 14l9.7 23.8l18.9 9.4l4.5 29.5l12.9 12.5l14.4 9.4l15.3 10.3l7.4 16.4l7.2 15.7l4.9 9.8l-1 12.9l2.3 17.7l2.8 15.7l4 18.1l3.9 10.7l-1.2 15.9l1 15.5l-4.5 17.9l-2 17l-6.6 14.5l-4.2 17.7l-17.9 21l-8.3 17.2l2.2 16.1l5 12.8l-9.6 13.1l1.5 32.7l1 17.2l-5.4 11.6l-6.4 12.9l-1.2 17l0 13.5l1.2 14.6l4.7 7.2l10.2 10.7l7.4 1.7l5.7 7.6l3.4 10.5l-5 13.1l-5.7 14.4l-8.2 15.1l4.5 10.3l-3.5 15.1l7.4 12.2l8.1 14.6l13.8 13.5l5.2 8.5l-3.5 12.2l-5.5 7.6l-1.3 13.3l-10.1 15l0.6 13.9l-7.6 9.6l-4.8 8l9 7.4l6.7 5.6l13 9.3l7.8 5.6l1.6 12.8l-1.9 9.1l-10 14.5l-9.4 13.4l-3.5 10.2l-3.5 12.4l2.2 8.3l1.6 16.5l-1.6 17l-4.9 13.7l0.2 14.6l0.4 8.4l-4 16.7l-2.7 13.5l-9.1 9.1l-4.5 15.4l-5.9 7.8l-9 3.7l-20.9 -9.9l-16.1 1.5l-8.5 6.4l-10.1 8.5l-21.1 4.6l-24 1.7l-15.1 12.2l-15.1 -1.7l-9.4 3l-5 6.3l0 7.8l1 10.2l-1.2 11.9l-9.9 6.3l-10.1 6.8l-1.4 5.7l-6.3 5.9l-6.6 -0.4l-11.3 6.3l-6.9 18.9l-10.4 7.6l-10.5 -2.1l-9.6 10.7l-12.3 2.8l-13.2 6.3l-4 4.8l-0.2 7.8l2.4 4.1l10.4 1.9l10.3 4.8l7.8 11.7l-3.8 14.2l-1 13.5l-3.8 16.5l-14.6 9.3l-14.7 3.1l-16.5 3.1l-10.1 7.9l-0.6 13.5l-10.2 9.3l-0.9 10.5l-3.6 10.9l-5.7 10.9l-7 12.2l-8.3 8.1l-15.2 2.4l-13.6 3.7l-20.7 4.8l-25 -5.3l-4.9 -3.3l-8.5 5.5l-4.4 8.7l-11.5 19.7l-4.5 30.5l4.2 13.9l-1 21.7l7.4 18.2l6.4 19.3l6.9 26.7l9.3 18.8l0.3 17.9l15.7 22.5l3.7 26l8.2 17.2l12.6 26.2l2 22.8l-5.5 26.1l-2.2 17.1l-10.9 13.8l-11 6.3l-13.1 22.7l-15 26.6l-19.3 4.9l-25.8 21.5l-16.1 11.5l-4.7 23.4l6.2 9.8l-6.9 10.2l-6.9 8.1l-9.1 0.9z" />
  </g>
  <g data-id="017">
    <path d="m6891.1 11164.2l0 0l-4.1 41.1l261.8 0.4l-0.2 -23.4l1639.8 -0.8l0.3 20.1l1000.3 1l192.5 0.5l1 -240.3l-1 -89.4l-1.9 -184.9l-0.1 -5.3l-1.7 -27.3l1.6 -63.8l-0.5 -27l0.8 -53.1l0.4 -129.4l-1 -105.3l0 -1.4l0.3 -18l0 -1.1l-0.2 -162.1l0 -0.6l0.3 -99.9l-1.1 -28.2l-0.3 -86.2l-0.1 -41.7l0 -22.2l-0.1 -31.2l0 -1.3l-0.5 -158.4l0.8 -25.4l0.3 -66.7l1 -232.3l-0.1 -0.5l0.2 -1.5l0.9 -19.8l2 -19.7l2.4 -93.9l-2 -29.2l-0.4 -61.3l0.5 -61.3l-1.3 -252l0.9 -316.5l-0 -0.3l-0.4 -215.8l1.2 -31.5l-1.2 -298.8l0 -0.3l-0.7 -203.9l1.1 -93.9l-0 -8.5l-0.5 -53.9l0 -0.1l0.5 -224l-182.1 0.1l-10.6 -0.6l-1401.3 0.6l0 1339.4l-1496.8 0.5l-1.6 1641.7l0.6 868.6z" />
  </g>
  <g data-id="019">
    <path d="m491.3 6077.6l0 0l50.9 89.8l55.9 30.4l146.7 1.9l1.4 34.3l-23.6 51l22.5 38.8l17.2 110.6l256.9 1.3l144.2 3.4l2.2 138.6l-0.5 61.8l-55.1 -0.1l-97.3 16.1l-1.4 61.8l-30.7 -0.1l-1.8 156.4l-29.6 0.3l-0.6 63.3l30.2 -0.2l0.2 63.2l30 30.5l-4 162.8l81.8 -5.9l12.8 14.8l3.5 173.2l31.1 0.1l1.4 243.8l82.4 74.7l47.4 41l26.9 25.2l130.7 116.1l52 1.5l367.3 -1.4l-0.3 -751.4l8.2 -187.3l-188.4 1.8l-0.5 -198.2l141.6 -279.2l5.7 -2.1l290.1 -1.9l-0.3 -80.8l-64.2 -0.9l-0.7 -63l-29.8 -0.4l0.2 -29.6l-34.6 -0.3l0 -33.6l-30 -0.2l-0.3 -32l-31.7 -0.1l0.2 -25.3l-38.7 -0.8l0.8 -64l-32.6 0.1l-0 -32l-31 0.2l-0.4 -30.9l-31.2 0.4l0 -31.5l-31.3 -0.2l0 -31.9l-37.9 0.2l-0.1 -31.7l-30.1 1l0.4 -34.3l-31.5 0.3l0.2 -31.5l-31.5 0.1l0.1 -31.6l-31.1 -0.1l0 -31.5l-31 -0.2l-0.6 -27.8l-30.9 -3.6l-0.6 -30.5l-30.7 -1.3l0.9 -282.7l46.1 0l1.6 -256.7l20.3 0l-1.6 -186.6l32.5 -16.2l-2.3 -22.9l-86.6 109.2l-85.8 77.6l-28.8 6.1l-17.9 43.6l2.2 -41.5l-116.4 3.6l-41.7 60.2l-327.1 617l-131.7 71.5l-150.8 82l-109.4 34z" />
  </g>
  <g data-id="021">
    <path d="m1422.6 7876.7l0 0l52 46.1l48.3 43.4l24.8 24.8l87.6 77.1l48.8 45.9l86 74.2l45.5 40.6l106.3 96.3l146.2 134.2l42.4 36.1l54.1 48.4l155.4 144.3l83.2 73.3l119 108.3l122.6 112.2l16.5 -0.6l4.9 5.6l106.5 0.4l168.5 -189.9l27.7 -35.9l910.8 -1011.2l-846.8 -956.2l-0.1 -174.3l555.1 -159.1l-1489.6 -2.1l-290.1 1.9l-5.7 2.1l-141.6 279.2l0.5 198.2l188.4 -1.8l-8.2 187.3l0.3 751.4l-367.3 1.4l-52 -1.5z" />
  </g>
  <g data-id="023">
    <path d="m3032.9 6619.8l0 0l0.1 174.3l846.8 956.2l754.4 862.3l-0.3 42.1l41.3 4.7l85.1 98.3l1.4 29.4l-1.2 1311l-0.9 836.4l57 53.4l109.4 103.6l110.3 102l769.2 726.7l68.9 66.1l21.2 19l180.8 175.3l7.5 5l209.5 198.9l257.5 246.5l6.1 5.3l303 291.3l33.3 31.9l67.2 62.8l11.6 11.3l0.3 -327.2l0.1 -101.1l-83.8 -3l-2 -1396.9l4.1 -41.1l-0.6 -868.6l1.6 -1641.7l1496.8 -0.5l0 -1339.4l-991.9 -686l-15.1 -8.2l-512 -349.6l-143.6 0l-16 1.3l-1003.5 -0.5l-379 -1.3l-846.1 -2.9l-743.6 151.3l-150.3 42.7l-555.1 159.1z" />
  </g>
  <g data-id="027">
    <path d="m1118.4 3310l0 0l-1.3 1140.4l191.3 -1.7l1213.9 1.6l1607.8 -5.2l404.2 -1153.4l1 -331.4l-577.3 -17.9l0.3 -384l-1330.8 4.7l-584.2 -0.5l0.1 -232.7l-876.4 1l-5.8 977.9l-42.7 1.1z" />
  </g>
  <g data-id="029">
    <path d="m488.9 6059.6l0 0l2.4 18l109.4 -34l150.8 -82l131.7 -71.5l327.1 -617l6.4 -12.1l-100.1 66.4l-30.7 -2.7l-21.3 23.9l-71.8 -8.2l-90 13.4l-9.2 40.3l-65.5 8l-48.8 -3.1l-92.7 45.8l-42.8 67.4l-72.5 6.7l-39.1 -25l-12.4 7.8l-0.9 138.7l0.2 11l68.8 -0l-3.5 94.1l-33.3 -0.8l-14.2 32.3l29.1 62.4l-0.1 31.6l15.6 0.3l0.5 31.5l-31.7 -0.2l-0.1 110l-31 -0.1l-0.9 47.1l-29.4 -0.1z" />
  </g>
  <g data-id="031">
    <path d="m0 6125.7l0 0l-0 7.5l2.1 128.9l207.4 0.2l31.3 -12.2l-0.7 -31.3l60 -48.3l37.9 -1l55.7 -14.8l-0 -31.5l31.4 -0.1l0.1 -31.4l66.1 -14l-2.4 -18l29.4 0.1l0.9 -47.1l31 0.1l0.1 -110l31.7 0.2l-0.5 -31.5l-15.6 -0.3l0.1 -31.6l-29.1 -62.4l14.2 -32.3l33.3 0.8l3.5 -94.1l-68.8 0l-0.2 -11l0.9 -138.7l12.4 -7.8l39.1 25l72.5 -6.7l42.8 -67.4l92.7 -45.8l48.8 3.1l65.5 -8l9.2 -40.3l90 -13.4l71.8 8.2l21.3 -23.9l30.7 2.7l100.1 -66.4l-6.4 12.1l41.7 -60.2l116.4 -3.6l0 -64.5l31.3 0.1l-0.4 -235l-31.5 0.1l-0.1 -47.5l-31.5 0.1l-0.1 -195.4l-29.4 0l1.6 -218.5l-191.3 1.7l1.3 -1140.4l42.7 -1.1l5.8 -977.9l-33.8 -0l-2.1 -611l42.5 1.3l1.8 -402.1l-32.4 0.4l-5.1 -394l3.7 -598.1l1.1 -309.3l-60.2 -0.4l-0.1 -0l-141.5 -2.5l-471.2 -1.8l-107.9 -2.8l-98.6 0.6l-39.3 -0.4l-23.8 0l-168.2 3.1l-20.6 2.8l0 0.7l-0.2 269.6l1.7 281.1l-1 280.6l1 13.7l-2 266.3l-0.7 705.3l0.9 690.7l0.2 12.5l0 3.4l1.3 256.9l1.6 63.9l2.7 488.1l-0.4 392l0 1.3l-0 126.8l-0 2.4l-1.6 298.6l-0.2 76.2l0.1 31.4l-0.2 11.9l-0.6 252.3l-3.5 229.6l-1.5 154.1l0.2 1.8l-1.1 99.8l-0.3 25.7l-0.7 399.5l-2.3 203.6l-0 0.2l-2.2 152.2l-0.5 96.3l-1 30.4l-0 0.2l-0.2 5.4l-0 1.1l0.5 47.8l-0.2 27.5l-0.8 108z" />
  </g>
  <g data-id="033">
    <path d="m6869 5628.6l0 0l0.5 82.4l-0.5 121.5l0.8 310.1l0.1 127.6l512 349.6l15.1 8.2l991.9 686l1401.3 -0.6l10.6 0.6l182.1 -0.1l0.2 -111.4l1 -44.6l-0.5 -268.9l1.6 -2.7l0.8 -5.4l-1.8 -273.3l3.4 -1070.2l-1.1 -93l0.8 -471.7l-0.9 -75.8l1 -58.6l0.1 -185.6l0 -0.1l1 -198.5l-0.5 -72.7l0.8 -148.4l-0.6 -13.9l0.1 -27.8l-1433.3 -11.3l-974.3 -10.9l-29.8 -1.9l-560 0.1l4.8 5.7l7.6 22.7l-17.3 33.5l9.1 54.1l9.9 47.7l0.2 59.2l-9.7 53.3l6.3 41.4l16.8 49.9l2.6 55.1l24.9 52l-5.7 44.2l2.9 40.7l14.8 39.7l-10 44.3l-22.8 40.2l4.5 56.8l1.2 55.4l-10.8 36.2l-26.6 41.5l6.1 68.4l9.4 39.5l1.1 43.7l-3.4 52l11 52.8l5 48.8l-26.3 38.6l-2.1 52.5l-13.1 55.9l-6.2 25.6l-13.8 18.7l-8.5 6.5l-9.2 6l-5.4 13.2l-5.3 7.7l0.1 27.2l-9.9 10.9l-26.2 11.4l-8.4 9.6l-12.5 1.7l-6.9 -3.1z" />
  </g>
  <g data-id="510">
    <path d="m2.1 6262.1l0 0l1.8 114.3l405.9 -2.9l15.1 31.3l0.1 31.6l337.1 -1.9l-17.2 -110.6l-22.5 -38.8l23.6 -51l-1.4 -34.3l-146.7 -1.9l-55.9 -30.4l-50.9 -89.8l-66.1 14l-0.1 31.4l-31.4 0.1l0 31.5l-55.7 14.8l-37.9 1l-60 48.3l0.7 31.3l-31.3 12.2l-207.4 -0.2z" />
  </g>
</svg>
