<?xml version="1.0" encoding="UTF-8"?><!DOCTYPE svg PUBLIC '-//W3C//DTD SVG 1.1//EN' 'http://www.w3.org/Graphics/SVG/1.1/DTD/svg11.dtd'><svg viewBox="0 0 1000 1501.45" xmlns="http://www.w3.org/2000/svg"><path data-id="32001" d="m130.8 444.9l-0.2 21.9l2.9 0l0 19.5l3.1 0l0 4.8l3.2 0l0 23.5l-3.1 0l0 6.4l-0.2 4.2l1.8 -4.4l2.9 -0.6l8.6 -7.8l8.7 -10.9l0.2 2.3l-3.3 1.6l0.2 18.7l-2 0l-0.2 25.7l-4.6 0l-0.1 28.3l3.1 0.1l0.1 3l3.1 0.4l0.1 2.8l3.1 0l0 3.2l3.1 0l0 3.2l3.1 0l0 3.2l3.1 0l0 3.4l3 -0.1l0 3.2l3.8 0l0 3.2l3.1 0l0 3.2l3.1 0l0 3.1l3.1 0l0 3.2l3.3 0l-0.1 6.4l3.9 0.1l0 2.5l3.2 0l0 3.2l3 0l0 3.4l3.5 0l0 3l3 0l0.1 6.3l6.4 0.1l0 8.1l149 0.2l15 -4.3l-0.5 -1.6l-0.7 -1l-1.2 -0.6l-1.2 -0.5l-0.3 -1.7l0.8 -2l-0.3 -2l-1.2 -0.5l0.1 -1.3l1.6 -0.9l0.7 -1l-0.6 -1l0.5 -2.3l1.6 -1.2l2.6 -2.1l1.9 -0.5l1.5 -2.7l1.3 -2.3l1.1 -0.6l1.1 -1.4l0.2 -1.7l0.6 -2.6l-0.2 -2.3l-1.3 -2.6l-0.8 -1.7l-0.4 -2.6l-1.6 -2.3l0 -1.8l-0.9 -1.9l-0.7 -2.7l-0.6 -1.9l-0.7 -1.8l0.1 -2.2l-0.4 -1.4l0.4 -3l1.1 -2l1.3 -1.4l3 0.8l2.1 -0.5l1.4 -0.4l1.5 -0.2l1.5 -2l0.6 -1.1l0.4 -1.1l0.1 -1l1 -0.9l0.1 -1.4l1 -0.8l1.7 -0.3l1.5 -0.3l1.5 -0.9l0.4 -1.6l0.1 -1.3l0.4 -1.4l-0.8 -1.2l-1 -0.5l-1 -0.2l-0.2 -1.2l1.7 -1.1l1.2 -0.3l1 -1.1l1.1 0.2l1 -0.8l0.7 -1.9l1.1 -0.6l1.3 -0.6l1.1 -1.3l1 -0.6l0.1 -1.2l-0.1 -1l0.5 -1.4l2.4 -0.1l1.5 -1.2l2.4 -0.2l2.1 -0.5l1 -0.9l2.4 -0.8l2.1 1l1.5 -1.2l0.5 -1.5l1.2 -2.2l0.4 -1.7l0 -2.3l0.5 -1.4l0.2 -1.7l-0.2 -1.6l0.2 -2l0.4 -1l0.9 -1.3l1 -1.5l0 -2.2l-2.1 -1.5l-1.6 -1.3l1.3 -1.8l-0.1 -1.4l1 -1.5l0.1 -1.3l1 -2l-1.9 -2.3l-0.8 -1.5l-0.7 -1.2l0.4 -1.5l-0.5 -1l0.8 -1.5l0.6 -1.4l0.5 -1.3l-0.3 -1l-1.3 -1l-1 -1.1l-0.6 -2.2l0 -1.4l0.1 -1.7l0.6 -1.3l0.5 -1.2l-0.1 -1.7l-0.2 -3.3l1 -1.3l-0.5 -1.3l-0.2 -1.6l0.8 -1.7l1.8 -2.1l0.4 -1.8l0.7 -1.4l0.2 -1.7l0.5 -1.8l-0.1 -1.6l0.1 -1.6l-0.4 -1.1l-0.4 -1.8l-0.3 -1.6l-0.2 -1.8l0.1 -1.3l-0.5 -1l-0.7 -1.6l-0.7 -1.6l-1.5 -1l-1.4 -0.9l-1.3 -1.2l-0.5 -3l-1.9 -0.9l-1 -2.4l-1 -1.4l-1.3 -1.6l-161.2 -0.1l-121.4 -0.2z"/><path data-id="32003" d="m688.7 1120.5l0.2 139.7l8.4 0.3l0 10.1l0 32.7l15.9 15.5l10.3 9.8l3.4 3.2l3.5 3.5l3.5 3.3l21.3 20.8l14.7 14.1l1.1 1.3l2.1 1.9l4.5 4.4l10.6 10.2l5.4 5.3l18.6 18.2l2.3 2.2l3.6 3.4l3.8 3.6l9.9 9.7l17 16.8l2.8 2.7l20.2 19.8l28.7 28.3l-0.5 -1.4l-0.2 -2.4l0.2 -1.6l0.7 -1.9l0.9 -1.5l3.4 -2.9l0.5 -1.1l-0.2 -2.2l-1.4 -1.7l-1.6 -1.1l-3.4 -1.6l-0.7 -1.1l2.8 -3.3l1.7 -0.7l3.5 0.1l1.9 -0.5l1.5 -1l1 -2l0.5 -5l0.1 -4.2l-0.5 -3.5l-0.5 -1.1l-1.5 -5l0.1 -1.7l-0.7 -5l-1.7 -7.1l0.3 -5.8l-1.4 -5.8l-1.2 -3.2l-2.6 -8.3l-4.2 -4l-1.7 -3.1l-0.4 -1.1l-0.3 -3.6l-1.1 -3.1l-0.8 -1.7l-0.3 -2.1l0.3 -2.8l2.4 -2.3l0.9 -1.2l0.1 -1.2l-0.8 -1.9l-0.2 -3.7l-0.5 -2.9l1.1 -2.1l0.9 -2.1l0.2 -2.7l-0.8 -1.7l-3.2 -4.6l-2.1 -2l-0.1 -2.7l1.3 -2.8l0.3 -1.5l-2.2 -2l-1.2 -1.2l-0.7 -1.5l1.3 -5.3l0.3 -4.6l-1 -2.7l0.4 -4.4l-2.2 -3.3l1.4 -1.7l1.3 -3.3l-0.7 -2.7l0 -1.1l0.3 -1.3l2.6 -1.7l2.1 -0.4l0.4 -2l-5.5 -5.6l-1.4 -2.2l0.2 -3.3l-1.4 -1.4l-2.3 -1.4l0.2 -3.1l-0.3 -1.2l-1.8 -2.8l-0.5 -2l0.1 -4.4l0.5 -1.4l1.5 -1.8l0.2 -1.3l-0.8 -1.6l-1.1 -1.2l0 -1.8l0.6 -1.1l-0.6 -2.4l-0.5 -1l-1.8 -1.8l-0.2 -1.6l1.4 -2l1.8 -1.5l3.2 -0.7l1.3 0l7.2 -2l1.1 -1.4l4.7 -3.8l1.6 2.1l2.3 -0.4l1.9 -1.7l4.2 -2l4.4 -0.1l5.7 0.3l1.1 1.1l-0.1 1.7l0 1.3l1.6 0.8l1.5 -0.3l2.8 -2l1.1 -0.2l1.7 1.8l1.1 1l3.3 -2.1l1.7 -2l2 -0.3l5.6 0.9l1.5 2.7l4.3 4.6l1.4 0.5l3.4 4.8l0.5 1.6l-1.5 1.7l-0.2 1.4l6 2.7l1.6 2.2l0.7 1.3l2.4 1.9l2.3 1.2l4.2 -0.2l3.6 -1.1l2.6 -1.4l1.7 0l2.1 0.8l1 -0.8l1.7 -2.8l0.2 -1.1l-0.2 -1.3l0.2 -1.3l3.7 -7.4l-0.5 -1.2l-1 -0.8l0 -1.5l2.1 -1.7l1.3 -0.1l2.4 -5l3.5 -7.5l1.3 -1.8l2.3 -1l0 -10.6l-0.1 -1.1l-0.2 -3.8l0 -4.3l0.3 -5.4l-0.1 -2.1l0.3 -13.6l0 -10.8l-0.1 -6.4l-0.3 -5.5l-0.2 -25.3l-0.2 -7.3l0 -39.1l-19.3 -0.1l-100 -0.1l0 -2l-164 0.1l0 2.3l-26.2 0z"/><path data-id="32005" d="m0.4 637.6l0.2 9.8l0.2 14.7l16.2 14.3l53.1 47l15.7 13.9l7.3 6.4l12.5 11.4l1 0.8l6.2 5.3l0.7 -23.6l-3.1 0l-0.3 -17.3l-1.3 -1.5l-8.2 0.6l0.4 -16.3l-3 -3.1l0 -6.3l-3 0l0.1 -6.3l3 0l0.2 -15.6l3.1 0l0.1 -6.2l9.7 -1.6l5.5 0l0 -6.2l-0.2 -13.9l-14.4 -0.3l-25.7 -0.1l-33.7 0.2l0 -3.2l-1.5 -3.1l-40.6 0.3z"/><path data-id="32007" d="m500.7 112.9l0 111.4l72.3 0l71.8 0.1l0.1 73.9l26.3 118.6l27.8 -0.1l56 0l3 0.2l97.4 1.1l143.3 1.1l0.1 -25.2l0 -36.6l0.1 -5.8l0.1 -1.2l-0.1 -14.1l0 -2.7l0.3 -48.5l-0.1 -7.2l0.1 -2.9l0.2 -50.6l0.1 -46.2l0 -2.7l0.2 -60.7l-0.1 -1.8l0.1 -25.9l0.1 -2.1l0 -28.9l-0.2 -21.8l0.2 -7.7l-0.3 -24.5l-1.1 0l-2.3 0l-7.6 0l-29.2 -0.1l-31.1 -0.3l-5.1 0.2l-16.8 0l-20.5 -0.8l-14.4 -0.8l-4.1 -0.1l-7.5 0.2l-3.9 0.3l-2.5 0l-19.7 0.9l-1.1 0l-35.6 0l-10.6 0l-45.8 -0.2l-6.5 -0.1l-40.9 0.1l-1.6 -0.3l-1.3 0l-16.6 -0.1l-4.2 0.1l-1.1 0.1l-2 0.1l-1.3 0l-20.5 0l-28.8 0.1l-6 0.2l-15.9 -0.1l-3.3 -0.1l-2.8 0l-1.8 0l-2.5 -0.1l-9.5 -0.1l-7.3 0.1l-57.5 -0.4l-6.7 0.2l-1.5 -0.3l0 112.2z"/><path data-id="32009" d="m266.1 898.1l-1.7 0.1l29.6 27.1l33.3 30.4l2.1 2l10.7 9.7l11.9 11.3l4.8 3.9l7.2 6.8l20.2 19l5.3 4.5l16.6 15.7l6.8 6.1l6.7 6.2l20.9 19.7l18.4 17.2l3.5 3.1l13.2 12.4l0.1 -83.6l0.1 -131.1l-0.1 -2.9l-8.5 -9.8l-4.1 -0.5l0 -4.2l-75.4 -86.2l-91.1 101.1l-2.8 3.6l-16.9 19l-10.7 0z"/><path data-id="32011" d="m571.3 623.9l-0.6 3.2l100.3 0.1l1.6 -0.1l14.4 0l0 -12.8l-0.1 -31l0 -12.1l0 -8.2l2 0.1l0.8 -1l2.6 -1.1l1 -1.1l0 -2.7l1 -2.1l1.7 -1.3l1.4 -1.9l0.6 -2.6l1.3 -5.6l0.2 -5.3l2.6 -3.9l-0.5 -4.9l-1.1 -5.3l0.3 -5.2l-0.1 -4.4l-0.9 -4l-0.6 -6.8l2.7 -4.2l1.1 -3.6l-0.1 -5.5l-0.5 -5.7l2.3 -4l1 -4.4l-1.5 -4l-0.3 -4.1l0.6 -4.4l-2.5 -5.2l-0.3 -5.5l-1.7 -5l-0.6 -4.1l1 -5.3l0 -5.9l-1 -4.8l-0.9 -5.4l1.7 -3.4l-0.8 -2.3l-28.3 -0.5l-26.3 -118.6l-0.1 -73.9l-71.8 -0.1l-0.1 11.8l-1.6 0.1l0.2 35.2l-0.7 157.1l1.6 0.4l-0.4 147.1l-0.7 5.3l0 42.6z"/><path data-id="32013" d="m113.1 172l0.2 61.1l3.4 0l87.6 -0.1l0 23.3l58.4 0.1l133.1 -0.5l0 38.4l57.7 1.8l-0.1 33.1l9 -25.7l38.2 -0.1l0 -79.1l0 -111.4l0 -112.2l-1.3 -0.1l-2.5 0l-2.4 0l-2.2 0l-21.7 -0.1l-3.3 0.1l-31.2 0.1l-6.6 -0.1l-30.3 0.3l-41.9 0l-54.3 0.3l-50.9 0.3l-16.9 0.3l-15.9 0.5l-13.3 -0.2l-3.3 0.1l-34.4 -0.3l-34.7 0.1l-4 -0.2l-3.2 0.1l-12.3 -0.1l-0.1 30.9l-0.4 59.8l0.5 39.4l3.2 0l-0.2 40.2l-4.2 -0.1z"/><path data-id="32015" d="m369.6 630.7l-0.1 1.3l1.2 0.5l0.3 2l-0.3 1.3l-0.9 1.6l1.2 1.2l1.3 0.4l1.1 0.9l0.5 1.6l74.6 -14.7l84.6 0.3l37.9 0.1l0.6 -3.2l0 -42.6l0.7 -5.3l0.4 -147.1l-1.6 -0.4l0.7 -157.1l-0.2 -35.2l1.6 -0.1l0.1 -11.8l-72.3 0l0 79.1l-38.2 0.1l-9 25.7l-40.4 115.3l1.7 2.2l1 1.4l1 2.4l1.9 0.9l0.5 3l1.3 1.2l1.4 0.9l1.5 1l0.7 1.6l0.7 1.6l0.5 1l-0.1 1.3l0.2 1.8l0.3 1.6l0.4 1.8l0.4 1.1l-0.1 1.6l0.1 1.6l-0.5 1.8l-0.2 1.7l-0.7 1.4l-0.4 1.8l-1.8 2.1l-0.8 1.7l0.2 1.6l0.5 1.3l-1 1.3l0.2 3.3l0.1 1.7l-0.5 1.2l-0.6 1.3l-0.1 1.7l0 1.4l0.1 1.5l1.5 1.8l1.3 1l0.3 1l-0.5 1.3l-0.6 1.4l-0.8 1.5l0.5 1l-0.4 1.5l0.7 1.2l0.8 1.5l1.4 1.4l0.1 2.1l-0.7 2.1l-1 1.5l0.1 1.4l-0.8 1l0.4 1.5l2 1.5l1 1.9l-1.2 2.4l-0.9 1.3l-0.4 1l-0.4 1.2l0.4 2.4l-0.2 1.7l-0.5 1.4l0 1.5l-0.4 2.5l-0.3 1.3l-1.4 2.4l-1.5 1.2l-2.1 -1l-1.6 0.2l-1.8 1.5l-2.1 0.5l-2.4 0.2l-1.5 1.2l-1.5 -0.2l-1.4 0.9l0.1 1.8l-0.1 1.2l-1 0.6l-1 0.7l-0.7 1.2l-1.8 0.6l-0.7 1.9l-1 0.8l-1.1 -0.2l-1 1.1l-1.2 0.3l-1.3 0.6l-0.4 1.3l1.2 0.6l1 0.5l0.8 1.2l-0.4 1.4l-0.1 1.3l-0.4 1.6l-1.5 0.9l-1.5 0.3l-1.7 0.3l-1 0.8l-0.1 1.4l-1 0.9l-0.1 1l-0.4 1.1l-0.6 1.1l-0.7 1.2l-2.3 1l-1.4 0.4l-2.1 0.5l-2.5 -0.5l-1.4 0.2l-1.5 2.9l-0.4 3l0.4 1.4l-0.1 2.2l0.7 1.8l0.6 1.9l0.7 2.7l0.9 1.9l0 1.8l1.6 2.3l0.4 2.6l0.8 1.7l1.3 2.6l0.2 2.3l-0.6 2.6l-0.2 1.7l-1.1 1.4l-1.1 0.6l-1.3 2.3l-1.5 2.7l-1.9 0.5l-2.6 2.1l-1.6 1.2l-0.5 2.3l0.6 1l-0.7 1l-1.6 0.9z"/><path data-id="32017" d="m689.1 1116.4l-0.4 4.1l26.2 0l0 -2.3l164 -0.1l0 2l100 0.1l19.3 0.1l0.1 -24l-0.1 -8.9l-0.2 -18.5l-0.2 -3.2l0.2 -6.4l-0.1 -2.7l0.1 -5.3l0 -12.9l-0.1 -10.5l0 -1.9l0 -16.3l0 -10.1l-0.1 -2.8l0 -8.6l0 -4.2l0 -2.2l0 -3.1l0 -15.9l0.1 -2.5l0 -6.7l0.1 -23.2l0.1 -2.3l0.2 -2l0.2 -9.4l-0.2 -2.9l0 -6.1l0 -6.1l-0.1 -25.2l0.1 -31.6l0 -21.6l0.1 -3.1l-0.1 -29.9l-0.1 -20.4l0.1 -9.4l0 -6.3l0 -22.4l-18.2 0l-1.1 -0.1l-140.1 0.1l0 133.9l-149.7 0l-0.2 164.2l0.1 86.9z"/><path data-id="32019" d="m49.1 607.8l5.1 9l5.6 3l14.7 0.2l0.1 3.4l-2.4 5.1l2.2 3.9l1.7 11.1l25.7 0.1l14.4 0.3l0.2 13.9l0 6.2l-5.5 0l-9.7 1.6l-0.1 6.2l-3.1 0l-0.2 15.6l-3 0l-0.1 6.3l3 0l0 6.3l3 3.1l-0.4 16.3l8.2 -0.6l1.3 1.5l0.3 17.3l3.1 0l0.1 24.4l8.2 7.5l4.7 4.1l2.7 2.5l13.1 11.6l5.2 0.1l36.7 -0.1l0 -75.1l0.8 -18.7l-18.8 0.2l-0.1 -19.8l14.2 -27.9l29.6 -0.4l0 -8.1l-6.4 -0.1l-0.1 -6.3l-3 0l0 -3l-3.5 0l0 -3.4l-3 0l0 -3.2l-3.2 0l0 -2.5l-3.9 -0.1l0.1 -6.4l-3.3 0l0 -3.2l-3.1 0l0 -3.1l-3.1 0l0 -3.2l-3.1 0l0 -3.2l-3.8 0l0 -3.2l-3 0.1l0 -3.4l-3.1 0l0 -3.2l-3.1 0l0 -3.2l-3.1 0l0 -3.2l-3.1 0l-0.1 -2.8l-3.1 -0.4l-0.1 -3l-3.1 -0.1l0.1 -28.3l4.6 0l0.2 -25.7l2 0l-0.2 -18.7l3.3 -1.6l-0.2 -2.3l-8.7 10.9l-8.6 7.8l-2.9 0.6l-1.8 4.4l0.2 -4.2l-11.6 0.4l-4.2 6l-32.7 61.7l-13.2 7.1l-15.1 8.2l-10.9 3.4z"/><path data-id="32021" d="m142.3 787.7l5.2 4.6l4.8 4.3l2.5 2.5l8.8 7.7l4.9 4.6l8.6 7.4l4.6 4.1l10.6 9.6l14.6 13.4l4.2 3.6l5.4 4.8l15.5 14.4l8.3 7.3l11.9 10.8l12.3 11.2l1.7 -0.1l11.2 0.6l16.9 -19l2.8 -3.6l91.1 -101.1l-84.7 -95.6l0 -17.4l55.5 -15.9l-149 -0.2l-29 0.2l-14.8 28.1l0.1 19.8l18.8 -0.2l-0.8 18.7l0 75.1l-36.7 0.1l-5.2 -0.1z"/><path data-id="32023" d="m303.3 662l0 17.4l84.7 95.6l75.4 86.2l0 4.2l4.1 0.5l8.5 9.8l0.1 2.9l-0.1 131.1l-0.1 83.6l5.7 5.3l10.9 10.4l11 10.2l76.9 72.7l6.9 6.6l2.1 1.9l18.1 17.5l21.7 20.4l25.8 24.6l30.9 29.6l3.3 3.2l6.7 6.3l1.2 1.1l0 -32.7l0 -10.1l-8.4 -0.3l-0.2 -139.7l0.4 -4.1l-0.1 -86.9l0.2 -164.2l149.7 0l0 -133.9l-99.2 -68.6l-1.5 -0.8l-51.2 -35l-14.4 0l-1.6 0.1l-100.3 -0.1l-37.9 -0.1l-84.6 -0.3l-74.4 15.1l-15 4.3l-55.5 15.9z"/><path data-id="32027" d="m111.8 331l-0.1 114l19.1 -0.2l121.4 0.2l160.8 -0.5l40.4 -115.3l0.1 -33.1l-57.7 -1.8l0 -38.4l-133.1 0.5l-58.4 -0.1l0 -23.3l-87.6 0.1l-0.6 97.8l-4.3 0.1z"/><path data-id="32029" d="m48.9 606l0.2 1.8l10.9 -3.4l15.1 -8.2l13.2 -7.1l32.7 -61.7l0.6 -1.2l-10 6.6l-3.1 -0.3l-2.1 2.4l-7.2 -0.8l-9 1.3l-0.9 4l-6.6 0.8l-4.9 -0.3l-9.3 4.6l-4.3 6.7l-7.2 0.7l-3.9 -2.5l-1.2 0.8l-0.1 13.9l0 1.1l6.9 0l-0.3 9.4l-3.3 -0.1l-1.4 3.2l2.9 6.2l0 3.2l1.6 0l0.1 3.2l-3.2 0l0 11l-3.1 0l-0.1 4.7l-2.9 0z"/><path data-id="32031" d="m0 612.6l0.2 13.6l20.7 0l3.1 -1.2l-0.1 -3.1l6 -4.8l3.8 -0.1l5.6 -1.5l0 -3.1l3.1 0l0 -3.1l6.6 -1.4l-0.2 -1.8l2.9 0l0.1 -4.7l3.1 0l0 -11l3.2 0l-0.1 -3.2l-1.6 0l0 -3.2l-2.9 -6.2l1.4 -3.2l3.3 0.1l0.3 -9.4l-6.9 0l0 -1.1l0.1 -13.9l1.2 -0.8l3.9 2.5l7.2 -0.7l4.3 -6.7l9.3 -4.6l4.9 0.3l6.6 -0.8l0.9 -4l9 -1.3l7.2 0.8l2.1 -2.4l3.1 0.3l10 -6.6l-0.6 1.2l4.2 -6l11.6 -0.4l0 -6.4l3.1 0l0 -23.5l-3.2 0l0 -4.8l-3.1 0l0 -19.5l-2.9 0l0.2 -21.9l-19.1 0.2l0.1 -114l4.3 -0.1l0.6 -97.8l-3.4 0l-0.2 -61.1l4.2 0.1l0.2 -40.2l-3.2 0l-0.5 -39.4l0.4 -59.8l0.1 -30.9l-6 0l-14.2 -0.2l-47.1 -0.2l-10.8 -0.3l-9.9 0.1l-3.9 0l-2.4 0l-16.8 0.3l-2.1 0.3l0 27.1l0.2 28.1l-0.1 28.1l0.1 1.4l-0.2 26.6l-0.1 70.5l0.1 69.1l0 1.3l0.1 26l0.2 6.4l0.3 48.8l0 39.2l0 12.8l-0.2 30.1l0 7.6l0 3.1l0 1.2l-0.1 25.2l-0.4 23l-0.1 15.4l-0.1 10.2l0 2.6l-0.1 40l-0.2 20.4l-0.2 15.2l0 9.6l-0.1 3l0 5.4l0 2.8l-0.1 10.8z"/><path data-id="32033" d="m686.9 562.9l0 8.2l0 12.1l0.1 31l0 12.8l51.2 35l1.5 0.8l99.2 68.6l140.1 -0.1l1.1 0.1l18.2 0l0 -11.1l0.1 -4.5l0 -26.9l0.1 -28.1l0.3 -107l-0.1 -9.3l0.1 -47.2l-0.1 -7.6l0.1 -5.9l0 -18.6l0.1 -19.9l0 -7.3l0.1 -14.8l-0.1 -1.4l0 -2.8l-143.3 -1.1l-97.4 -1.1l-3 -0.2l-56 0l1.3 2.9l-1.7 3.4l0.9 5.4l1 4.8l0 5.9l-1 5.3l0.6 4.1l1.7 5l0.3 5.5l2.5 5.2l-0.6 4.4l0.3 4.1l1.5 4l-1 4.4l-2.3 4l0.5 5.7l0.1 5.5l-1.1 3.6l-2.7 4.2l0.6 6.8l0.9 4l0.1 4.4l-0.3 5.2l1.1 5.3l0.5 4.9l-2.6 3.9l-0.2 5.3l-1.3 5.6l-0.6 2.6l-1.4 1.9l-1.7 1.3l-0.5 1.3l-0.5 3.5l-1 1.1l-2.6 1.1l-0.8 1l-1.3 0.2z"/><path data-id="32510" d="m0.2 626.2l0.2 11.4l40.6 -0.3l1.5 3.1l0 3.2l33.7 -0.2l-1.7 -11.1l-2.2 -3.9l2.4 -5.1l-0.1 -3.4l-14.7 -0.2l-5.6 -3l-5.1 -9l-6.6 1.4l0 3.1l-3.1 0l0 3.1l-5.6 1.5l-3.8 0.1l-6 4.8l0.1 3.1l-3.1 1.2l-20.7 0z"/></svg>
