<?xml version="1.0" encoding="UTF-8"?>
<!DOCTYPE svg PUBLIC '-//W3C//DTD SVG 1.1//EN' 'http://www.w3.org/Graphics/SVG/1.1/DTD/svg11.dtd'>
<svg viewBox="0 0 1000 1501.45" xmlns="http://www.w3.org/2000/svg">
  <g data-id="001">
    <path d="m130.834 444.87l-0.161 21.85l2.935 -0.002l0.014 19.54l3.148 -0.006l0.009 4.75l3.152 -0.015l0.043 23.504l-3.132 -0.006l-0.003 6.447l-0.224 4.154l1.79 -4.359l2.883 -0.61l8.581 -7.762l8.662 -10.923l0.227 2.291l-3.255 1.62l0.157 18.661l-2.027 -0.004l-0.161 25.669l-4.614 0l-0.094 28.269l3.067 0.13l0.057 3.047l3.087 0.356l0.06 2.784l3.104 0.019l-0.001 3.153l3.11 0.008l-0.014 3.155l3.148 -0.011l-0.02 3.153l3.15 -0.029l-0.041 3.425l3.015 -0.101l0.012 3.171l3.792 -0.022l-0.002 3.191l3.131 0.019l-0.004 3.151l3.124 -0.036l0.04 3.086l3.095 -0.023l0.001 3.204l3.257 -0.007l-0.083 6.396l3.867 0.082l-0.022 2.531l3.173 0.014l0.034 3.201l2.998 0.023l-0.001 3.357l3.457 0.026l-0.023 2.962l2.981 0.044l0.072 6.298l6.42 0.087l0.03 8.076l148.962 0.211l15.026 -4.269l-0.501 -1.649l-1.249 -1.283l-1.311 -0.351l-1.143 -1.247l0.93 -1.541l0.328 -1.27l-0.257 -1.983l-1.167 -0.48l0.106 -1.308l1.591 -0.899l0.693 -1.024l-0.159 -3.321l1.613 -1.154l2.583 -2.149l1.927 -0.492l1.502 -2.66l1.311 -2.268l1.103 -0.633l1.089 -1.382l0.216 -1.708l0.555 -2.61l-0.196 -2.282l-1.261 -2.621l-0.817 -1.718l-0.365 -2.603l-1.574 -2.251l-0.029 -1.79l-0.927 -1.883l-0.685 -2.667l-0.642 -1.927l-0.742 -1.816l0.098 -2.17l-0.416 -1.385l0.448 -3.045l1.145 -1.971l1.295 -1.419l2.998 0.859l2.068 -0.476l1.357 -0.374l1.524 -0.242l1.524 -2.029l0.574 -1.091l0.355 -1.086l0.091 -1.049l1.023 -0.933l0.059 -1.35l1.005 -0.786l1.65 -0.314l1.475 -0.313l1.462 -0.934l0.376 -1.65l0.105 -1.345l0.38 -1.419l-0.784 -1.173l-1.032 -0.485l-1.039 -0.189l-0.221 -1.19l1.727 -1.112l1.232 -0.277l0.964 -1.072l1.053 0.208l1.039 -0.762l0.686 -1.888l1.129 -0.634l1.285 -0.553l1.152 -1.246l1.104 -1.825l-0.101 -1.021l0.503 -1.412l2.448 -0.13l1.509 -1.217l2.397 -0.174l2.112 -0.456l1.01 -0.855l2.453 -0.789l2.086 0.989l1.491 -1.148l0.453 -1.543l1.173 -2.261l0.402 -1.674l-0.059 -2.306l0.49 -1.373l0.162 -1.695l-0.156 -1.65l0.132 -2.066l0.352 -1.022l0.935 -1.343l1.002 -1.451l0.034 -2.189l-2.086 -1.497l-1.568 -1.302l1.25 -1.764l-0.064 -1.386l1.007 -1.505l0.134 -1.33l0.906 -1.984l-1.897 -2.202l-0.806 -1.461l-0.739 -1.221l0.352 -1.505l-0.453 -1.025l0.822 -1.506l0.571 -1.44l0.503 -1.31l-0.336 -1.048l-1.31 -0.938l-1.024 -1.069l-0.588 -2.183l0 -1.353l0.117 -1.704l0.638 -1.289l0.537 -1.158l-0.101 -1.724l-0.151 -3.272l0.955 -1.309l-0.498 -1.275l-0.218 -1.61l0.834 -1.719l1.793 -2.096l0.419 -1.768l0.656 -1.448l0.199 -1.696l0.453 -1.791l-0.101 -1.551l0.117 -1.595l-0.386 -1.07l-0.402 -1.813l-0.285 -1.573l-0.235 -1.77l0.101 -1.289l-1.207 -2.558l-0.738 -1.64l-1.525 -1.027l-1.442 -0.94l-1.291 -1.246l-0.453 -2.952l-1.894 -0.94l-0.972 -2.384l-1.006 -1.4l-1.291 -1.575l-161.149 -0.079l-121.385 -0.155z" />
  </g>
  <g data-id="003">
    <path d="m688.695 1120.53l0.196 139.688l8.379 0.304l-0.007 10.112l-0.03 32.72l15.947 15.508l10.315 9.78l3.402 3.202l3.517 3.49l3.459 3.262l21.212 20.747l14.737 14.111l1.145 1.313l2.025 1.911l4.554 4.434l10.573 10.225l5.431 5.261l18.562 18.182l2.315 2.191l3.515 3.439l3.844 3.612l9.901 9.733l17.029 16.843l2.805 2.656l20.189 19.847l28.753 28.349l-0.534 -1.422l-0.226 -2.404l0.189 -1.599l0.748 -1.887l0.889 -1.461l3.424 -2.912l0.515 -1.082l-0.187 -2.171l-1.407 -1.693l-1.573 -1.148l-3.405 -1.598l-0.658 -1.1l2.82 -3.36l1.681 -0.689l3.484 0.119l1.907 -0.549l1.545 -1.029l0.968 -2.044l0.533 -4.987l0.055 -4.189l-0.483 -3.509l-0.455 -1.089l-1.463 -4.931l0.075 -1.674l-0.673 -4.985l-1.739 -7.1l0.263 -5.809l-1.405 -5.825l-1.194 -3.18l-2.632 -8.316l-4.168 -4.044l-1.696 -3.101l-0.398 -1.081l-0.315 -3.572l-1.094 -3.057l-0.795 -1.654l-0.262 -2.11l0.335 -2.779l2.363 -2.265l0.855 -1.236l0.1 -1.215l-0.771 -1.874l-0.168 -3.749l-0.533 -2.861l1.103 -2.043l0.888 -2.082l0.151 -2.721l-0.805 -1.711l-3.168 -4.619l-2.062 -2.047l-0.101 -2.739l1.308 -2.785l0.268 -1.506l-2.263 -2.002l-1.19 -1.238l-0.704 -1.466l1.358 -5.244l0.268 -4.605l-0.955 -2.706l0.419 -4.359l-2.213 -3.306l1.408 -1.736l1.341 -3.311l-0.693 -2.622l0 -1.052l0.349 -1.339l2.641 -1.746l2.066 -0.372l0.418 -2.007l-5.544 -5.583l-1.382 -2.181l0.166 -3.259l-1.369 -1.376l-2.29 -1.388l0.174 -3.08l-0.272 -1.22l-1.786 -2.79l-0.53 -1.955l0.086 -4.441l0.456 -1.41l1.569 -1.767l0.244 -1.306l-0.772 -1.558l-1.056 -1.105l0.041 -1.709l0.61 -1.055l-0.64 -2.372l-2.27 -2.831l-0.254 -1.602l1.431 -2.041l1.829 -1.527l3.163 -0.689l1.261 -0.012l7.246 -1.992l1.104 -1.411l4.732 -3.769l1.648 2.112l2.283 -0.378l1.852 -1.692l4.221 -1.973l4.399 -0.132l5.71 0.268l1.189 1.106l-0.127 1.688l-0.064 1.256l1.616 0.745l1.523 -0.321l2.83 -1.952l1.092 -0.186l1.728 1.861l1.126 0.987l3.258 -2.145l1.713 -1.963l1.923 -0.334l5.593 0.884l1.508 2.671l4.33 4.612l1.424 0.523l3.41 4.783l0.451 1.568l-1.419 1.714l-0.226 1.478l5.926 2.723l1.602 2.206l0.658 1.344l2.358 1.874l2.322 1.167l4.209 -0.218l3.572 -1.115l2.607 -1.38l1.736 -0.018l2.068 0.803l2.669 -3.611l0.17 -1.14l-0.17 -1.322l0.219 -1.307l3.749 -7.414l-0.491 -1.177l-1.092 -1.166l0.139 -1.05l2.033 -1.722l1.306 -0.062l2.392 -5.024l3.508 -7.533l1.295 -1.807l2.257 -0.977l0.016 -10.633l-0.061 -1.111l-0.188 -3.8l-0.048 -4.309l0.265 -5.377l-0.109 -2.106l0.298 -13.632l-0.004 -10.811l-0.11 -6.351l-0.333 -5.531l-0.198 -25.277l-0.151 -7.341l-0.01 -39.091l-19.254 -0.056l-100.034 -0.097l-0.035 -2.014l-163.983 0.081l0.016 2.343l-26.177 -0.039z" />
  </g>
  <g data-id="005">
    <path d="m0.393 637.64l0.158 9.761l0.243 14.655l16.208 14.282l53.073 47.029l15.671 13.931l7.303 6.413l12.507 11.403l7.135 6.101l0.697 -23.62l-3.109 -0.011l-0.347 -17.324l-1.275 -1.481l-8.178 0.585l0.397 -16.285l-2.995 -3.055l-0.018 -6.325l-3.018 0.021l0.06 -6.328l2.955 -0.029l0.179 -15.636l3.074 0.015l0.142 -6.182l9.732 -1.608l5.511 0.013l0.048 -6.182l-0.218 -13.865l-14.416 -0.336l-25.695 -0.134l-33.706 0.192l-0.012 -3.158l-1.512 -3.128l-40.594 0.286z" />
  </g>
  <g data-id="007">
    <path d="m500.743 112.855l-0.026 111.39l72.348 -0.032l71.844 0.108l0.054 73.886l26.305 118.632l27.812 -0.102l55.998 -0.013l2.98 0.189l97.43 1.087l143.334 1.128l0.089 -25.235l-0.004 -36.566l0.059 -5.836l0.102 -1.202l-0.05 -14.142l0.04 -2.669l0.298 -48.513l-0.055 -7.162l0.11 -2.879l0.173 -50.598l0.117 -46.236l0.009 -2.719l0.195 -60.678l-0.119 -1.842l0.085 -25.862l0.079 -2.14l0.011 -28.923l-0.21 -21.769l0.253 -7.702l-0.348 -24.54l-1.093 0l-2.268 -0.017l-7.624 -0.008l-29.255 -0.086l-31.139 -0.288l-5.139 0.193l-16.766 0.028l-20.524 -0.839l-14.359 -0.81l-4.139 -0.087l-7.509 0.2l-3.911 0.318l-2.51 0l-19.711 0.88l-1.068 -0.001l-35.641 -0.032l-10.573 0.012l-45.754 -0.176l-6.548 -0.12l-40.943 0.146l-1.578 -0.254l-1.344 -0.035l-16.639 -0.11l-4.246 0.113l-1.128 0.071l-1.981 0.076l-1.309 -0.007l-20.493 -0.022l-28.818 0.05l-5.986 0.226l-15.932 -0.06l-3.28 -0.076l-2.796 0.032l-1.789 -0.08l-2.492 -0.104l-9.537 -0.062l-7.33 0.103l-57.527 -0.364l-6.721 0.195l-1.501 -0.275l-0.009 112.21z" />
  </g>
  <g data-id="009">
    <path d="m266.137 898.141l-1.652 0.058l29.643 27.082l33.315 30.437l2.077 2.044l10.731 9.726l11.926 11.3l4.81 3.923l7.241 6.83l20.175 18.994l5.321 4.541l16.626 15.693l6.794 6.109l6.701 6.242l20.953 19.655l18.414 17.215l3.542 3.08l13.227 12.387l0.088 -83.638l0.12 -131.096l-0.142 -2.943l-8.514 -9.831l-4.132 -0.473l0.026 -4.212l-75.445 -86.231l-91.083 101.122l-2.769 3.587l-16.85 18.991l-10.651 -0.039z" />
  </g>
  <g data-id="011">
    <path d="m571.334 623.905l-0.643 3.195l100.346 0.051l1.599 -0.134l14.358 0l-0.011 -12.76l-0.079 -31.008l0.047 -12.149l-0.049 -8.236l1.947 0.136l3.459 -2.095l0.992 -1.088l-0.007 -2.716l1.073 -2.089l1.767 -1.253l1.38 -1.873l0.615 -2.562l1.309 -5.592l0.205 -5.253l2.635 -3.858l-0.498 -4.881l-1.101 -5.275l0.342 -5.202l-0.108 -4.369l-0.938 -3.951l-0.612 -6.838l2.66 -4.152l1.078 -3.616l-0.124 -5.544l-0.453 -5.677l2.281 -4.023l0.996 -4.431l-1.481 -3.967l-0.295 -4.067l0.571 -4.424l-2.494 -5.199l-0.264 -5.51l-1.684 -4.993l-0.631 -4.141l0.968 -5.325l-0.015 -5.925l-0.99 -4.769l-0.906 -5.41l1.734 -3.351l-0.756 -2.274l-28.291 -0.465l-26.305 -118.632l-0.054 -73.886l-71.844 -0.108l-0.053 11.85l-1.628 0.124l0.155 35.245l-0.705 157.103l1.626 0.377l-0.412 147.108l-0.666 5.327l-0.047 42.558z" />
  </g>
  <g data-id="013">
    <path d="m113.085 171.991l0.214 61.104l3.385 0.004l87.644 -0.105l-0.006 23.27l58.421 0.052l133.08 -0.472l-0.03 38.395l57.731 1.786l-0.105 33.142l9.019 -25.67l38.237 -0.13l0.041 -79.122l0.026 -111.39l0.009 -112.21l-1.339 -0.123l-2.465 0l-2.43 0l-2.214 -0.033l-21.653 -0.078l-3.311 0.111l-31.187 0.135l-6.612 -0.083l-30.283 0.269l-41.859 0.029l-54.26 0.302l-50.923 0.349l-16.896 0.35l-15.857 0.474l-13.319 -0.203l-3.309 0.067l-34.43 -0.316l-34.739 0.139l-3.955 -0.233l-3.211 0.083l-12.261 -0.082l-0.107 30.932l-0.37 59.809l0.515 39.404l3.238 -0.039l-0.181 40.209l-4.25 -0.128z" />
  </g>
  <g data-id="015">
    <path d="m369.561 630.687l-0.106 1.308l1.167 0.48l0.257 1.983l-0.328 1.27l-0.93 1.541l1.143 1.247l1.311 0.351l1.075 0.889l0.483 1.6l74.547 -14.683l84.61 0.292l37.901 0.133l0.643 -3.195l0.047 -42.558l0.666 -5.327l0.412 -147.108l-1.626 -0.377l0.705 -157.103l-0.155 -35.245l1.628 -0.124l0.053 -11.85l-72.348 0.032l-0.041 79.122l-38.237 0.13l-9.019 25.67l-40.42 115.342l1.66 2.17l1.006 1.4l0.972 2.384l1.894 0.94l0.453 2.952l1.291 1.246l1.442 0.94l1.525 1.027l0.738 1.64l0.721 1.574l0.385 2.273l0.235 1.77l0.285 1.573l0.402 1.813l0.386 1.07l-0.117 1.595l0.101 1.551l-0.453 1.791l-0.199 1.696l-0.656 1.448l-0.419 1.768l-1.793 2.096l-0.834 1.719l0.218 1.61l0.498 1.275l-0.955 1.309l0.151 3.272l0.101 1.724l-0.537 1.158l-0.638 1.289l-0.117 1.704l0 1.353l0.118 1.463l1.494 1.789l1.31 0.938l0.336 1.048l-0.503 1.31l-0.571 1.44l-0.822 1.506l0.453 1.025l-0.352 1.505l0.739 1.221l0.806 1.461l1.377 1.352l0.168 2.071l-0.688 2.093l-1.007 1.505l0.064 1.386l-1.25 1.764l1.568 1.302l1.302 0.933l0.942 1.843l-1.194 2.361l-0.935 1.343l-0.352 1.022l-0.351 1.239l0.375 2.477l-0.162 1.695l-0.49 1.373l0.023 1.464l-0.366 2.516l-0.268 1.348l-1.358 2.456l-1.491 1.148l-2.086 -0.989l-1.607 0.153l-1.856 1.491l-2.112 0.456l-2.397 0.174l-1.509 1.217l-1.509 -0.174l-1.442 0.934l0.101 1.803l-0.117 1.195l-1.998 1.308l-0.767 1.162l-1.788 0.593l-0.686 1.888l-1.039 0.762l-1.053 -0.208l-0.964 1.072l-1.232 0.277l-1.324 0.631l-0.419 1.265l1.276 0.595l1.032 0.485l0.784 1.173l-0.38 1.419l-0.105 1.345l-0.376 1.65l-1.462 0.934l-1.475 0.313l-1.65 0.314l-1.005 0.786l-0.059 1.35l-1.023 0.933l-0.091 1.049l-0.355 1.086l-0.574 1.091l-0.697 1.223l-2.351 1.048l-1.357 0.374l-2.068 0.476l-2.503 -0.527l-1.346 0.214l-1.589 2.844l-0.448 3.045l0.416 1.385l-0.098 2.17l0.742 1.816l0.642 1.927l0.685 2.667l0.927 1.883l0.029 1.79l1.574 2.251l0.365 2.603l0.817 1.718l1.261 2.621l0.196 2.282l-0.555 2.61l-0.216 1.708l-1.089 1.382l-1.103 0.633l-1.311 2.268l-1.502 2.66l-1.927 0.492l-2.583 2.149l-1.613 1.154l-0.466 2.34l-0.068 2.005l-1.591 0.899z" />
  </g>
  <g data-id="017">
    <path d="m689.108 1116.42l-0.413 4.112l26.177 0.039l-0.016 -2.343l163.983 -0.081l0.035 2.014l100.034 0.097l19.254 0.053l0.105 -24.026l-0.101 -8.944l-0.193 -18.488l-0.18 -3.263l0.161 -6.376l-0.052 -2.695l0.085 -5.312l0.045 -12.939l-0.095 -10.528l0.029 -1.938l-0.021 -16.319l0.027 -10.047l-0.114 -2.819l-0.029 -8.619l-0.014 -4.172l0.003 -2.218l-0.006 -3.117l-0.041 -15.967l0.082 -2.537l0.028 -6.674l0.097 -23.232l0.103 -2.178l0.199 -1.974l0.242 -9.39l-0.202 -2.925l-0.042 -6.126l0.045 -6.128l-0.128 -25.205l0.087 -31.649l-0.039 -21.619l0.121 -3.146l-0.118 -29.881l-0.061 -20.422l0.109 -9.39l-0.054 -6.245l0.045 -22.409l-18.206 0.01l-1.057 -0.064l-140.131 0.063l0 133.943l-149.681 0.048l-0.161 164.168l0.06 86.858z" />
  </g>
  <g data-id="019">
    <path d="m49.128 607.76l5.087 8.982l5.585 3.044l14.666 0.187l0.138 3.433l-2.358 5.096l2.249 3.884l1.723 11.064l25.695 0.134l14.416 0.336l0.218 13.865l-0.048 6.182l-5.511 -0.013l-9.732 1.608l-0.142 6.182l-3.074 -0.015l-0.179 15.636l-2.955 0.029l-0.06 6.328l3.018 -0.021l0.018 6.325l2.995 3.055l-0.397 16.285l8.178 -0.585l1.275 1.481l0.347 17.324l3.109 0.011l0.143 24.382l8.238 7.468l4.739 4.097l2.686 2.523l13.071 11.611l5.196 0.15l36.727 -0.136l-0.027 -75.141l0.821 -18.73l-18.84 0.185l-0.052 -19.819l14.161 -27.922l29.586 -0.402l-0.03 -8.076l-6.42 -0.087l-0.072 -6.298l-2.981 -0.044l0.023 -2.962l-3.457 -0.026l0.001 -3.357l-2.998 -0.023l-0.034 -3.201l-3.173 -0.014l0.022 -2.531l-3.867 -0.082l0.083 -6.396l-3.257 0.007l-0.001 -3.204l-3.095 0.023l-0.04 -3.086l-3.124 0.036l0.004 -3.151l-3.131 -0.019l0.002 -3.191l-3.792 0.022l-0.012 -3.171l-3.015 0.101l0.041 -3.425l-3.15 0.029l0.02 -3.153l-3.148 0.011l0.014 -3.155l-3.11 -0.008l0.001 -3.153l-3.104 -0.019l-0.06 -2.784l-3.087 -0.356l-0.057 -3.047l-3.067 -0.13l0.094 -28.269l4.614 0l0.161 -25.669l2.027 0.004l-0.157 -18.661l3.255 -1.62l-0.227 -2.291l-8.662 10.923l-8.581 7.762l-2.883 0.61l-1.79 4.359l0.224 -4.154l-11.635 0.361l-4.17 6.018l-32.713 61.704l-13.17 7.145l-15.08 8.201l-10.944 3.398z" />
  </g>
  <g data-id="021">
    <path d="m142.264 787.675l5.196 4.613l4.831 4.344l2.481 2.477l8.763 7.712l4.878 4.594l8.599 7.417l4.552 4.06l10.632 9.625l14.619 13.419l4.235 3.611l5.412 4.845l15.541 14.434l8.319 7.331l11.901 10.825l12.262 11.217l1.652 -0.058l11.14 0.595l16.85 -18.991l2.769 -3.587l91.083 -101.122l-84.681 -95.625l-0.007 -17.432l55.507 -15.91l-148.962 -0.211l-29.012 0.187l-14.735 28.137l0.052 19.819l18.84 -0.185l-0.821 18.73l0.027 75.141l-36.727 0.136l-5.196 -0.15z" />
  </g>
  <g data-id="023">
    <path d="m303.292 661.98l0.007 17.432l84.681 95.625l75.445 86.231l-0.026 4.212l4.132 0.473l8.514 9.831l0.142 2.943l-0.12 131.096l-0.088 83.638l5.703 5.338l10.936 10.362l11.035 10.195l76.92 72.672l6.889 6.615l2.12 1.902l18.084 17.526l21.701 20.383l25.754 24.647l30.901 29.658l3.333 3.189l6.716 6.278l1.161 1.129l0.03 -32.72l0.007 -10.112l-8.379 -0.304l-0.196 -139.688l0.413 -4.112l-0.06 -86.858l0.161 -164.168l149.681 -0.048l0 -133.943l-99.185 -68.6l-1.507 -0.823l-51.204 -34.962l-14.358 0l-1.599 0.134l-100.346 -0.051l-37.901 -0.133l-84.61 -0.292l-74.355 15.126l-15.026 4.269l-55.507 15.91z" />
  </g>
  <g data-id="027">
    <path d="m111.839 331.004l-0.133 114.036l19.128 -0.17l121.385 0.155l160.78 -0.516l40.42 -115.342l0.105 -33.142l-57.731 -1.786l0.03 -38.395l-133.08 0.472l-58.421 -0.052l0.006 -23.27l-87.644 0.105l-0.576 97.793l-4.269 0.112z" />
  </g>
  <g data-id="029">
    <path d="m48.889 605.962l0.239 1.797l10.944 -3.398l15.08 -8.201l13.17 -7.145l32.713 -61.704l0.643 -1.208l-10.012 6.636l-3.073 -0.271l-2.135 2.387l-7.182 -0.819l-8.999 1.337l-0.924 4.033l-6.553 0.799l-4.879 -0.31l-9.269 4.584l-4.282 6.74l-7.246 0.67l-3.911 -2.501l-1.241 0.784l-0.089 13.871l0.016 1.104l6.876 -0.003l-0.348 9.41l-3.328 -0.078l-1.419 3.231l2.91 6.24l-0.005 3.161l1.561 0.028l0.054 3.152l-3.17 -0.024l-0.01 11.001l-3.098 -0.007l-0.094 4.711l-2.942 -0.006z" />
  </g>
  <g data-id="031">
    <path d="m0.001 612.566l0.207 13.64l20.737 0.019l3.132 -1.219l-0.069 -3.133l5.998 -4.834l3.792 -0.102l5.571 -1.477l0 -3.147l3.135 -0.013l0.013 -3.136l6.612 -1.404l-0.239 -1.797l2.942 0.006l0.094 -4.711l3.098 0.007l0.01 -11.001l3.17 0.024l-0.054 -3.152l-1.561 -0.028l0.005 -3.161l-2.91 -6.24l1.419 -3.231l3.328 0.078l0.348 -9.41l-6.876 0.003l-0.016 -1.104l0.089 -13.871l1.241 -0.784l3.911 2.501l7.246 -0.67l4.282 -6.74l9.269 -4.584l4.879 0.31l6.553 -0.799l0.924 -4.033l8.999 -1.337l7.182 0.819l2.135 -2.387l3.073 0.271l10.012 -6.636l-0.643 1.208l4.17 -6.018l11.635 -0.361l0.003 -6.447l3.132 0.006l-0.043 -23.504l-3.152 0.015l-0.009 -4.75l-3.148 0.006l-0.014 -19.54l-2.935 0.002l0.161 -21.85l-19.128 0.17l0.133 -114.036l4.269 -0.112l0.576 -97.793l-3.385 -0.004l-0.214 -61.104l4.25 0.128l0.181 -40.209l-3.238 0.039l-0.515 -39.404l0.37 -59.809l0.107 -30.932l-6.024 -0.04l-14.159 -0.247l-47.122 -0.184l-10.787 -0.281l-9.859 0.059l-3.927 -0.044l-2.376 0.001l-16.825 0.315l-2.059 0.28l-0.017 27.026l0.166 28.11l-0.095 28.056l0.096 1.374l-0.2 26.627l-0.066 70.53l0.085 69.072l0.021 1.252l0.126 26.033l0.159 6.394l0.269 48.815l-0.038 39.198l-0.005 12.812l-0.158 30.099l-0.018 7.62l0.01 3.143l-0.019 1.192l-0.057 25.233l-0.352 22.964l-0.146 15.412l-0.091 10.157l-0.028 2.565l-0.071 39.95l-0.231 20.36l-0.22 15.23l-0.047 9.629l-0.102 3.041l0.029 5.457l-0.02 2.75l-0.08 10.8z" />
  </g>
  <g data-id="033">
    <path d="m686.903 562.862l0.049 8.236l-0.047 12.149l0.079 31.008l0.011 12.76l51.204 34.962l1.507 0.823l99.185 68.6l140.131 -0.063l1.057 0.064l18.206 -0.01l0.023 -11.135l0.097 -4.457l-0.05 -26.888l0.06 -28.135l0.339 -107.023l-0.109 -9.3l0.076 -47.168l-0.085 -7.578l0.095 -5.861l0.013 -18.564l0.097 -19.867l-0.047 -7.273l0.075 -14.841l-0.06 -1.388l0.01 -2.784l-143.334 -1.128l-97.43 -1.087l-2.98 -0.189l-55.998 0.013l1.235 2.841l-1.734 3.351l0.906 5.41l0.99 4.769l0.015 5.925l-0.968 5.325l0.631 4.141l1.684 4.993l0.264 5.51l2.494 5.199l-0.571 4.424l0.295 4.067l1.481 3.967l-0.996 4.431l-2.281 4.023l0.453 5.677l0.124 5.544l-1.078 3.616l-2.66 4.152l0.612 6.838l0.938 3.951l0.108 4.369l-0.342 5.202l1.101 5.275l0.498 4.881l-2.635 3.858l-0.205 5.253l-1.309 5.592l-0.615 2.562l-1.38 1.873l-1.767 1.253l-0.54 1.322l-0.526 3.483l-0.992 1.088l-2.622 1.135l-2.09 1.13z" />
  </g>
  <g data-id="510">
    <path d="m0.208 626.206l0.185 11.434l40.594 -0.286l1.512 3.128l0.012 3.158l33.706 -0.192l-1.723 -11.064l-2.249 -3.884l2.358 -5.096l-0.138 -3.433l-14.666 -0.187l-5.585 -3.044l-5.087 -8.982l-6.612 1.404l-0.013 3.136l-3.135 0.013l0 3.147l-5.571 1.477l-3.792 0.102l-5.998 4.834l0.069 3.133l-3.132 1.219l-20.737 -0.019z" />
  </g>
</svg>
