<?xml version="1.0" encoding="UTF-8"?>
<!DOCTYPE svg PUBLIC '-//W3C//DTD SVG 1.1//EN' 'http://www.w3.org/Graphics/SVG/1.1/DTD/svg11.dtd'>
<svg viewBox="0 0 991.446 1266.86" xmlns="http://www.w3.org/2000/svg">
  <g data-id="010">
    <path d="m69.905 1232.73l-13.27 32.235l41.713 1.894l34.131 -20.855l-18.962 -28.445l-22.754 3.794l-20.858 11.377z" />
    <path d="m20.607 582.345l-20.607 40.072l23.2 26.417l39.415 47.704l20.089 25.531l33.997 0.802l13.629 33.458l-25.708 55.703l-55.135 71.29l0.338 51.685l46.627 83.457l30.438 125.911l41.789 46.746l77.667 26.531l60.864 2.442l53.236 -54.229l39.566 -37.264l34.536 -50.402l14.191 -38.654l-0.073 -113.781l10.393 -133.416l35.8 -79.087l53.74 -34.787l53.279 -46.282l76.377 -63.941l116.84 -106.568l96.597 -62.365l43.434 -94.063l32.212 -81.814l24.109 -52.563l-13.751 -12.026l-78.792 0.387l-58.551 -16.926l-4.392 -26.423l-39.368 -43.448l-29.765 -40.42l-47.093 -32.018l-25.769 2.985l-29.217 47.1l-29.261 43.101l0.402 79.509l-43.793 79.725l-56.76 100.368l5.272 43.85l-17.517 49.179l-42.89 -10.751l-25.874 5.787l-11.517 11.979l-0.897 21.669l13.76 18.841l-15.778 23.303l-23.951 8.824l-36.668 -11.427l-66.186 10.792l-115.081 30.838l-63.649 7.763l-76.065 2.022l-37.688 16.886z" />
  </g>
</svg>
