<?xml version="1.0" encoding="UTF-8"?>
<!DOCTYPE svg PUBLIC '-//W3C//DTD SVG 1.1//EN' 'http://www.w3.org/Graphics/SVG/1.1/DTD/svg11.dtd'>
<svg viewBox="0 0 991.446 1266.86" xmlns="http://www.w3.org/2000/svg">
  <g data-id="010">
    <path d="m69.9 1232.7l0 0l-13.3 32.2l41.7 1.9l34.1 -20.9l-19 -28.4l-22.8 3.8l-20.9 11.4z" />
    <path d="m20.6 582.3l0 0l-20.6 40.1l23.2 26.4l39.4 47.7l20.1 25.5l34 0.8l13.6 33.5l-25.7 55.7l-55.1 71.3l0.3 51.7l46.6 83.5l30.4 125.9l41.8 46.7l77.7 26.5l60.9 2.4l53.2 -54.2l39.6 -37.3l34.5 -50.4l14.2 -38.7l-0.1 -113.8l10.4 -133.4l35.8 -79.1l53.7 -34.8l53.3 -46.3l76.4 -63.9l116.8 -106.6l96.6 -62.4l43.4 -94.1l32.2 -81.8l24.1 -52.6l-13.8 -12l-78.8 0.4l-58.6 -16.9l-4.4 -26.4l-39.4 -43.4l-29.8 -40.4l-47.1 -32l-25.8 3l-29.2 47.1l-29.3 43.1l0.4 79.5l-43.8 79.7l-56.8 100.4l5.3 43.9l-17.5 49.2l-42.9 -10.8l-25.9 5.8l-11.5 12l-0.9 21.7l13.8 18.8l-15.8 23.3l-24 8.8l-36.7 -11.4l-66.2 10.8l-115.1 30.8l-63.6 7.8l-76.1 2l-37.7 16.9z" />
  </g>
</svg>
