<?xml version="1.0" encoding="UTF-8"?>
<!DOCTYPE svg PUBLIC '-//W3C//DTD SVG 1.1//EN' 'http://www.w3.org/Graphics/SVG/1.1/DTD/svg11.dtd'>
<svg viewBox="0 0 1000 378.966" xmlns="http://www.w3.org/2000/svg">
  <g data-id="001">
    <path d="m539.307 98.068l-0.062 6.092l34.427 -0.136l-1.316 -2.918l-0.062 -1.595l-0.888 -3.622l-1.226 -0.902l0.658 -15.849l0.069 -2.372l0.067 -3.026l0.478 -25.414l-9.049 -0.254l-3.179 -0.09l-1.223 -0.034l-16.853 -0.476l-0.769 1.128l-0.486 12.539l-0.113 4.291l-0.453 30.854l-0.013 1.329z" />
  </g>
  <g data-id="003">
    <path d="m335.982 106.823l1.097 3.879l3.919 -0.286l5.02 -1.382l0.682 -1.036l2.567 0.844l4.044 -1.772l5.343 -0.766l1.652 5.357l2.133 1.779l3.412 -4.427l4.279 -6.88l4.039 -13.99l0.242 -5.361l-1.094 -2.601l-0.425 -1.01l-1.351 -3.212l-2.22 0.638l-1.023 1.33l-4.574 0.473l-0.769 -1.024l-3.67 -0.128l-3.296 1.501l-2.664 -1.611l-3.279 1.031l-2.105 -0.142l-2.888 0.701l-4.267 3.003l-3.036 1.075l-1.64 10.206l1.069 6.158l-1.198 7.654z" />
  </g>
  <g data-id="005">
    <path d="m334.936 1.882l0.012 4.024l2.98 4.707l1.351 3.47l4.816 5.749l1.072 3.952l-0.224 1.179l-0.164 1.016l1.249 0.587l1.063 1.094l-0.122 2.358l-0.756 1.053l1.105 0.087l2.635 -1.618l3.488 -3.048l2.967 -4.65l2.788 2.809l1.111 -1.882l3.756 -2.086l1.954 3.221l3.782 0.945l0.054 2.487l1.929 2.821l1.475 0.27l2.624 -0.992l1.021 0.261l1.597 -3.578l2.253 -2.391l-2.985 -4.824l5.275 -6.705l0.936 -5.489l1.91 -3.005l-4.815 -0.184l-6.709 -0.08l-6.21 -0.47l-2.749 -0.049l-4.694 -0.267l-1.918 -0.042l-3.317 -0.211l-8.869 -0.308l-1.409 -0.098l-5.101 -0.155l-5.162 0.042z" />
  </g>
  <g data-id="007">
    <path d="m451.424 246.497l1.818 0.029l2.376 0.038l5.604 0.09l8.429 0.212l3.168 0.08l3.63 0.091l2.457 0.059l3.887 0.085l1.726 0.051l1.601 0.042l1.437 0.038l8.183 0.217l1.608 -1.698l1.218 -4.897l2.574 -1.685l1.932 -2.157l1.617 -2.769l-0.104 -1.204l-2.602 -5.708l0.999 -2.942l-0.375 -1.109l-3.628 -2.949l0.738 -2.855l1.755 -1.503l-0.722 -2.262l-2.864 -2.101l-0.446 -4.159l-1.245 -2.524l-2.499 -0.436l-3.346 2.154l-1.936 2.397l-3.382 -0.614l-1.893 -1.591l-3.058 -1.317l-0.966 -4.407l-2.026 -2.876l-1.594 -1.344l-0.587 -2.791l-1.851 0.87l0.516 1.467l-1.326 1.307l-1.992 -1.03l-1.296 1.402l0.624 1.878l-1.463 0.459l-2.01 -1.061l-0.483 -1.358l-1.377 1.215l-2.017 0.046l-1.929 -3.496l-1.345 -4.098l-2.574 2.144l-2.308 24.414l-0.252 2.672l-2.402 25.482z" />
  </g>
  <g data-id="009">
    <path d="m291.342 25.464l0.191 1.331l11.256 6.668l5.893 7.109l2.212 3.729l1.592 -0.586l7.437 4.916l2.45 -2.186l2.468 -0.414l3.261 -2.991l-0.029 -1.891l2.909 1.407l2.477 -1.258l-0.002 -1.491l0.377 -1.25l-0.403 -6.422l1.971 -1.201l1.868 -0.432l1.201 -0.347l1.743 1.234l1.722 -0.001l1.04 1.378l2.559 -0.241l1.054 -0.887l0.38 -1.618l0.122 -2.358l-1.104 -0.762l-0.913 -1.008l-0.358 -1.627l-0.621 -4.431l-4.816 -5.749l-1.351 -3.47l-2.98 -4.707l-0.012 -4.024l-2.433 0.007l-7.605 -0.302l-3.859 -0.506l-1.462 0.196l-1.178 -0.112l-2.392 -0.098l-9.015 -0.913l-8.643 -0.154l-0.17 1.292l0.226 1.152l-1.06 0.393l-0.417 1.163l0.012 1.052l-0.847 1.094l-0.273 1.057l-0.859 1.506l0.793 1.532l0.307 1.074l-0.237 1.338l0.298 1.864l0.114 1.296l0.109 1.065l-1.46 0.8l-0.772 1.242l-0.017 1.268l0 1.093l-0.305 1.09l-1.352 1.871l-1.097 1.226z" />
  </g>
  <g data-id="011">
    <path d="m252.925 67.574l1.293 5.647l3.329 8.022l-1.142 -0.021l-1.068 2.896l2.782 6.287l5.884 4.277l3.086 -2.13l-0.946 -2.109l2.142 -2.442l4.979 -5.662l2.459 1.835l0.568 1.283l3.216 0.359l4.217 1.815l8.066 -14.734l-2.07 -0.74l-0.455 -1.321l-0.349 -1.085l-5.571 -2.986l-1.836 -7.31l-3.426 -4.171l-3.186 0.591l-2.075 -2.616l-0.407 -2.088l1.17 -2.777l-0.088 -4.834l-2.292 -1.347l-1.679 3.111l-0.666 1.233l-2.392 3.908l-7.507 13.686l-0.734 1.369l-1.219 -0.698l-1.151 -0.196l-0.812 1.913l-2.076 0.922z" />
  </g>
  <g data-id="013">
    <path d="m805.144 121.347l-1.136 2.77l2.925 2.145l0.311 1.627l-1.169 0.452l0.529 4.203l3.427 2.946l-0.944 2.1l3.254 1.464l-0.405 1.046l1.761 0.213l-0.063 1.872l2.163 0.046l0.74 2.295l-1.815 0.18l-3 -0.32l-5.504 4.846l0.264 8.621l-1.962 2.987l0.239 2.307l25.976 16.235l5.144 4.715l1.961 1.798l5.688 5.226l24.026 -2.661l2.299 -6.079l-0.753 -2.878l0.154 -3.975l1.212 -1.14l-6.462 -1.184l-25.714 -12.172l-8.431 -0.576l-6.767 -7.308l0.231 -3.406l9.316 5.767l12.538 3.543l8.085 4.022l5.546 -1.142l11.739 5.543l2.917 0l-2.402 -10.208l-3.723 -6.858l3.839 -3.907l4.925 1.334l8.26 -1.287l1.396 -2.669l-3.875 -3.275l-1.065 0.612l-2.711 -0.877l0.681 -1.517l-2.04 -0.381l-2.991 -2.028l-3.221 -4.926l0.467 -3.239l-4.009 -4.884l-23.367 -0.07l-0.298 -1.982l-5.995 3.251l-9.64 5.241l-5.506 -2.792l-14.576 -8.409l-1.146 0.923l0.422 1.916l-1.743 -0.093z" />
  </g>
  <g data-id="015">
    <path d="m789.112 71.892l0.248 1.357l0.416 1.082l1.168 0.64l1.598 0.801l1.409 0.925l1.177 0.93l1.422 0.636l1.499 0.75l1.224 0.596l1.139 0.638l1.331 0.047l0.972 1.638l-0.614 1.08l1.508 0.288l0.607 1.201l0.144 1.309l-0.297 1.52l-0.374 1.333l-0.288 1.155l0.343 1.026l1.585 1.192l1.035 0.198l1.641 -1.188l1.954 0.426l1.031 -0.702l0.799 1.336l1.074 0.17l1.329 -0.603l1.558 0.823l1.2 -1.091l1.212 -0.03l1.878 -1.283l1.29 0.712l0.389 1.171l1.109 0.918l0.244 1.765l0.145 2.102l-1.022 0.733l-0.39 2.024l-0.602 1.783l1.159 0.91l1.594 -0.569l1.204 0.078l1.868 -0.59l0.442 -1.051l1.336 -0.752l2.044 -1.024l1.178 -1.605l1.375 -0.543l1.562 0.462l1.061 2.058l0.933 1.583l0.838 1.515l-0.61 2.164l0.571 1.513l-0.463 1.105l0.777 1.203l1.949 0.584l1.496 -1.419l1.224 -1.356l1.96 -2.279l0.292 -1.795l-0.469 -1.66l0.931 -1.651l1.079 -0.061l1.892 0.817l0.971 1.309l1.406 1.051l2.01 -0.09l2.003 -0.878l1.565 -2.332l1.304 -4.135l2.049 -0.77l1.119 -3.061l-0.637 -1.001l-0.297 -1.761l0.535 -1.248l1.188 -1.321l0.594 -1.248l-0.475 -1.175l-4.415 -9.238l-3.284 -11.276l0.865 -9.141l2.735 -4.347l-20.668 0.115l-7.674 0.679l-1.665 -0.552l-2.508 0.414l-19.717 -0.519l-2.83 -0.52l-2.321 4.078l-3.979 0.029l-3.857 1.325l-0.166 3.677l0.925 1.826l1.009 0.215l0.489 1.105l1.553 -0.06l-0.302 1.168l0.095 1.168l1.594 0.922l-0.198 1.296l1.004 0.762l-0.5 1.049l2.167 1.224l-1.331 1.069l-2.783 -0.386l-1.951 0.5l-1.615 0.867l-1.68 0.16l-0.763 1.468z" />
  </g>
  <g data-id="017">
    <path d="m611.502 243.585l1.817 3.323l1.793 4.451l1.762 5.898l1.891 2.472l1.828 1.154l1.771 2.762l-0.419 2.871l-1.045 2.539l-1.776 3.865l0.34 1.433l-1.376 4.476l-2.037 2.041l0.567 5.402l1.377 2.197l-0.218 1.085l-1.923 0.292l-0.626 1.815l1.229 1.419l3.706 1.731l17.188 -1.098l1.534 2.216l1.231 -0.996l1.469 0.875l1.205 0.488l3.459 2.664l4.66 1.459l12.117 5.931l2.774 -0.094l2.687 1.004l3.522 -0.281l3.513 0.72l8.855 -4.366l8.979 -9.013l-2.976 -1.403l-1.042 -1.75l-2.653 -0.566l-2.239 -2.202l0.098 -1.615l-1.989 -2.461l2.007 -2.084l0.306 -1.154l-1.603 -2.955l-4.209 -2.322l-1.213 -4.47l0.141 -1.436l-1.334 -0.837l0.116 -2.188l-1.709 -1.265l-0.906 -2.1l-2.257 -0.403l-0.861 -1.042l-1.98 -3.96l-0.008 -1.605l0.139 -1.126l-2.14 -2.139l-1.205 -0.115l-1.868 -2.513l-1.446 -4.031l-2.223 -2.316l-2.707 -1.738l-0.141 -1.813l-1.953 0.998l-2.44 -0.303l-30.008 0.037l-4.881 0.474l-6.673 1.669z" />
  </g>
  <g data-id="019">
    <path d="m639.893 365.398l3.271 3.3l4.624 4.778l4.433 4.595l3.616 -1.957l14.112 -4.951l12.165 -1.416l11.105 -0.259l4.6 0.285l4.685 0.836l8.658 2.412l1.045 2.781l0.3 1.239l4.08 1.927l1.177 -1.195l0.371 -3.326l1.164 -4.685l1.062 -2.265l-1.277 -5.761l0.756 -1.328l1.056 -6.458l0.148 -4.139l-0.656 -8.711l-1.872 -4.188l-0.557 -4.033l0.206 -1.277l-0.53 -1.689l0.53 -4.034l-3.487 -4.618l-3.34 -3.345l1.117 -3.906l-2.284 0.234l-0.278 -1.655l-5.486 -1.157l-1.609 -1.66l-5.02 -2.642l-2.826 2.01l-4.142 7.659l-3.293 6.094l-2.92 5.388l-13.557 1.63l0.846 2.199l-3.066 2.344l-3.783 4.331l-1.372 -0.674l-7.849 -3.287l-1.734 2.013l-2.326 1.14l0.672 2.492l-1.139 0.337l-1.222 4.488l0.252 4.342l-2.753 1.585l0.387 1.374l-6.968 3.892l1.569 3.939l-2.434 2.091l-0.227 2.884z" />
  </g>
  <g data-id="021">
    <path d="m162.239 127.11l0.773 1.629l1.43 4.423l1.221 -0.301l0.93 2.973l3.629 -1.739l1.808 4.411l2.602 2.728l0.916 1.23l-1.307 1.665l1.315 2.056l-1.376 2.931l-2.418 6.711l2.009 4.389l4.124 2.295l5.009 -4.342l3.091 -0.711l2.291 0.613l3.53 2.678l1.544 -1.04l2.116 0.859l4.568 -1.011l0.212 2.651l1.606 1.183l-0.268 -3.835l4.5 -0.12l4.409 -0.618l0.886 -1.147l3.471 -2.295l6.135 1.876l-0.697 -3.401l1.172 -0.506l2.946 -1.531l7.562 4.49l1.512 0.922l3.166 -5.142l-0.969 -2.946l1.4 -0.069l5.807 -1.079l-5.746 -3.512l-3.528 -0.943l-4.576 -4.875l1.097 -1.321l1.035 -0.979l-1.556 -5.748l0.695 -1.968l-1.487 -2.722l0.564 -1.313l1.504 -1.132l-0.425 -1.78l-0.629 -1.151l-3.197 -1.123l-2.481 -2.195l-1.257 -5.115l0.89 -1.387l-2.655 -3.467l-5.277 0.402l-1.047 0.67l-1.562 0.198l-3.622 0.322l-1.384 1.572l-3.82 -0.669l-1.723 0.615l-12.025 6.38l-1.473 0.768l-3.629 1.731l-3.985 0.273l-0.16 2.094l-1.942 -0.636l-2.345 1.655l-4.855 2.041l-1.385 1.38l-4.661 -2.202l-4.01 3.263z" />
  </g>
  <g data-id="023">
    <path d="m265.039 107.22l-1.598 2.002l3.677 3.273l3.379 3.003l2.426 2.346l3.782 3.517l5.107 20.082l3.095 -1.221l2.765 -1.226l2.118 -2.909l1.368 1.213l1.873 0.009l2.188 3.283l1.5 0.15l2.004 1.559l2.85 0.998l5.78 -1.338l3.493 1.776l2.424 -0.87l1.117 -0.474l3.226 -5.524l3.46 -4.001l2.298 -2.667l2.581 -3.035l0.727 -1.166l4.164 -6.654l2.906 -4.681l-1.545 1.433l-2.452 -0.148l-3.073 -1.869l-1.592 -0.195l-0.41 -1.515l-12.614 0.941l-5.056 -6.616l-1.08 0.763l-2.22 -1.498l-1.033 -2.501l-7.958 -3.711l-3.931 -4.691l-1.596 -2.756l-1.957 0.202l-0.18 -2.846l-1.717 -0.342l-1.008 -0.582l-0.603 -1.099l-4.217 -1.815l-3.216 -0.359l-0.548 -1.177l-2.479 -1.941l-4.533 5.154l0.083 1.016l0.628 1.028l0.594 2.333l2.05 3.619l0.412 3.089l-2.068 5.611l-1.661 0.746l-1.315 2.028l-2.416 0.255z" />
  </g>
  <g data-id="025">
    <path d="m399.132 151.03l-0.292 1.758l3.915 10.957l-1.368 1.917l2.244 2.704l5.727 4.695l0.404 1.281l0.824 3.016l1.16 4.299l0.263 1.185l7.947 5.789l4.869 3.081l5.82 3.7l-0.134 -1.028l2.461 -3.303l21.317 -39.643l-22.743 0.049l-5.36 -0.044l-7.3 -0.258l-1.045 -0.044l-6.433 -0.2l-4.642 0.12l-1.974 -0.019l-5.659 -0.008z" />
  </g>
  <g data-id="027">
    <path d="m283.346 66.766l5.571 2.986l0.351 1.061l0.318 1.068l2.205 1.017l-8.066 14.734l0.334 1.015l1.001 0.683l1.993 0.325l0.18 2.846l1.957 -0.202l1.596 2.756l3.931 4.691l7.958 3.711l1.033 2.501l2.22 1.498l1.08 -0.763l5.056 6.616l12.614 -0.941l0.41 1.515l1.592 0.195l3.073 1.869l2.452 0.148l1.545 -1.433l1.16 -1.177l2.171 -2.783l-1.097 -3.879l1.198 -7.654l-1.069 -6.158l1.64 -10.206l-1.843 -3.956l-4.05 -2.393l-1.754 0.191l0.749 -1.311l-1.487 -2.171l-2.426 -1.69l-2.327 0.791l-1.581 -2.688l-6.475 -0.841l-3.308 -2.803l-12.725 -0.128l-1.879 -0.581l-15.297 1.542z" />
  </g>
  <g data-id="029">
    <path d="m883.471 5.252l-5.647 0.059l5.664 5.565l6.098 6.011l3.005 1.615l1.795 0.25l3.091 2.131l-0.008 1.14l2.259 0.429l3.028 0.261l-0.283 1.25l2.352 2.315l1.207 1.997l3.684 0.33l0.472 3.005l1.857 -1.228l1.481 3.525l1.234 0.677l0.061 2.064l2.418 -0.179l1.212 0.807l-1.907 0.641l-0.417 1.834l-1.737 0.747l3.554 0.906l2.772 0.262l3.315 0.456l5.701 6.974l3.066 1.227l1.181 2.662l1.664 1.131l1.145 1.918l2.679 1.433l6.334 1.755l1.624 0.269l2.218 -0.083l-1.375 -1.18l-2.172 -1.153l-2.21 -2.402l1.202 -3.412l-1.318 -3.558l-0.262 -1.084l-0.189 -1.752l1.351 -0.794l0.075 -1.599l-1.853 -0.444l-0.539 -2.501l-2.811 -0.348l-1.509 -2.78l-1.429 -0.663l0.437 -1.533l-1.59 0.816l0.247 -1.438l-2.499 -1.548l-1.459 1.733l-1.377 0.108l-4.364 -1.56l-0.816 -1.86l-2.913 -3.276l-1.111 -0.521l-0.12 -3.807l-17.462 -17.572l-7.152 -0.023l-9.994 -0.033l-2.958 0.031z" />
  </g>
  <g data-id="031">
    <path d="m807.168 249.669l3.139 4.294l1.613 0.417l0.386 3.256l1.475 2.075l-0.195 5.46l1.57 0.78l-0.818 1.83l-1.009 1.101l0.564 1.432l8.694 -2.825l4.608 -1.158l9.478 -1.811l10.019 -1.496l5.349 -0.436l4.86 0.029l3.748 0.574l1.968 -0.088l1.542 1.047l2.223 1.085l2.733 0.695l4.429 1.698l3.399 2.001l-0.122 2.029l-0.539 2.029l2.172 3.758l1.325 -3.679l3.4 -6.384l4.921 -7.201l7.181 -9.63l8.642 -9.308l8.701 -7.312l10.811 -11.339l7.251 -5.875l4.182 -3.925l-0.867 -1.52l-2.405 -0.979l-3.206 3.917l-2.084 1.958l-5.45 5.97l-3.927 3.913l-4.37 5.068l-4.548 3.939l-5.508 4.97l-2.084 2.54l-2.405 2.539l-1.202 0.976l-1.194 1.266l-2.113 2.274l-1.212 1.698l-2.146 1.906l-1.293 2.567l-8.973 12.922l-16.95 -7.587l-0.009 -1.007l6.437 0.117l-0.456 -9.657l1.784 -0.425l2.524 2.709l-0.43 9.466l6.942 2.311l0.586 -3.45l0.771 -1.815l1.448 -1.237l-0.235 -1.832l1.87 -1.678l1.447 -2.167l1.073 -1.977l1.529 -4.089l1.421 -0.536l0.845 -1.58l1.22 0.48l0.785 -1.998l0.181 -2.776l1.29 -0.697l0.614 1.234l1.234 0.081l0.57 -1.455l1.002 -0.733l2.324 0.098l1.563 -1.368l1.563 -2.15l0.962 -1.71l3.086 -3.666l1.042 -2.347l-1.786 -2.092l-0.62 -2.427l0.594 -1.046l0.291 -1.576l-3.406 -2.055l-3.807 -1.713l-1.363 -0.245l0.401 1.223l1.202 1.272l2.324 4.11l0.361 1.467l-7.815 0.147l-1.203 -1.663l-2.164 -1.957l-0.721 -4.061l-0.08 -2.496l-0.361 -1.224l-3.126 -2.546l-1.247 0.868l-0.634 2.479l-1.141 2.479l-0.127 2.323l-1.268 1.393l-4.185 0.929l-3.044 0.31l-2.41 0.929l-5.305 0.318l-5.491 3.603l3.517 3.49l-1.14 3.542l-2.29 1.731l-1.119 4.124l-7.346 3.162l-14.125 0.191l0.114 1.126l-8.189 1.676l0.038 2.122l-11.693 -0.252l-2.278 -0.058l-1.353 1.177l-8.745 1.616z" />
  </g>
  <g data-id="033">
    <path d="m540.437 47.453l17.561 0.496l1.223 0.034l3.179 0.09l9.049 0.254l11.619 0.218l1.768 -42.029l-7.938 0.023l-1.103 0.011l-3.53 0.05l-10.535 -0.005l-11.573 -0.006l-2.747 0.027l-4.582 0.04l-2.393 40.797z" />
  </g>
  <g data-id="035">
    <path d="m314.386 142.392l53.044 2.392l8.392 0.451l1.495 0.029l1.986 0.056l0.985 -4.751l2.023 -1.542l-1.15 -1.804l2.061 -1.956l-2.928 -3.044l-1.7 -4.013l-4.402 -5.542l-6.319 -0.06l-0.737 -3.816l-4.699 -5.352l-2.133 -1.779l-1.652 -5.357l-5.343 0.766l-4.044 1.772l-2.567 -0.844l-0.682 1.036l-5.02 1.382l-3.919 0.286l-2.416 2.303l-0.915 1.657l-2.906 4.681l-4.164 6.654l-0.727 1.166l-2.581 3.035l-2.175 2.723l-3.583 3.945l-3.226 5.524z" />
  </g>
  <g data-id="037">
    <path d="m537.736 149.755l1.821 -0.034l17.793 -0.316l3.596 -0.055l3.178 -0.925l1.206 -1.122l-1.341 -1.615l4.281 -1.493l-0.743 1.636l1.83 1.604l1.448 -0.548l1.975 -2.39l0.06 -2.241l2.925 0.477l-0.778 1.932l2.905 -0.945l-0.039 -2.57l1.386 -0.326l3.432 -3.406l1.019 -2.049l3.543 -1.307l2.391 0.963l4.833 3.425l0.682 3.62l2.598 3.062l3.2 0.868l2.933 2.835l4.68 -6.491l1.461 -2.03l-9.01 -3.748l1.347 -4.739l0.656 -2.26l3.421 -11.228l1.209 -4.245l0.607 -3.126l0.703 -1.614l0.68 -1.902l1.039 -3.241l0.378 -3.502l-1.568 0.086l-3.084 0.168l-7.785 0.427l-7.416 0.339l-4.241 -0.475l-1.374 -0.092l-9.818 -1.251l-3.46 -0.412l0.053 1.445l1.322 3.082l-34.427 0.136l-0.668 22.632l-0.049 1.055l-0.792 21.908z" />
  </g>
  <g data-id="039">
    <path d="m1.337 210.048l-1.337 12.467l21.698 0.124l11.238 0.025l2.786 -0.016l2.867 -2.537l2.64 -2.845l-1.087 -2.406l1.095 -1.429l1.453 -0.238l1.45 -1.819l2.614 -1.271l2.751 -3.808l2.229 -2.116l0.886 -2.279l1.602 -0.799l2.791 0.624l4.921 -2.295l3.044 -0.682l1.628 -2.453l2.279 -2.358l-1.92 -0.584l3.563 -3.52l0.578 -2.4l-1.253 -0.795l-1.17 -1.267l-2.389 1.755l-4.427 -0.104l-2.438 -1.619l-3.115 0.991l-5.751 0.855l-2.207 1.502l-1.159 -0.278l-4.803 2.13l-2.526 0.242l-3.669 -2.101l0.014 -2.257l-1.049 -0.872l0.052 -2.391l-2.181 -2.619l-1.537 1.909l-1.117 1.161l-1.253 0.456l-1.241 0.484l-1.974 1.824l-1.134 0.258l-1.247 -0.12l-1.309 -0.117l-1.298 0.699l-2.133 -0.235l-1.501 0.096l-1.117 0.705l-1.117 0.097l-1.207 -0.511l-0.425 -1.67l-1.009 -1.423l-1.343 -0.415l-1.862 1.92l-1.422 0.787l-0.846 1.05l-1.704 0.981l-0.88 1.133l-1.027 2.746l-0.329 3.348l-0.312 2.067l-0.768 6.315l-0.409 3.935l-0.179 1.97z" />
  </g>
  <g data-id="041">
    <path d="m857.756 54.478l-0.231 7.212l5.073 14.553l2.612 1.184l2.436 -0.441l1.842 0.073l1.307 0.661l1.604 2.424l1.01 1.175l1.961 -0.367l1.782 0l3.742 0.587l2.525 -1.726l3.683 -0.881l0.891 -2.057l3.445 -3.012l0.891 -1.617l-3.679 -0.511l-1.744 -1.641l-2.206 -0.768l-1.2 1.154l-2.968 -1.747l-2.429 0.395l-3.586 -1.858l-2.173 -18.307l1.901 -2.561l0.86 -5.013l-0.352 -2.279l0.758 -1.724l0.269 -4.128l-1.253 2.348l-2.633 1.331l-5.225 -0.566l-1.564 2.552l-1.772 -0.645l-0.632 1.953l-2.369 0.717l0.198 1.556l0.358 1.079l1.825 1.46l-4.957 9.433z" />
  </g>
  <g data-id="043">
    <path d="m35.799 221.683l7.664 0.959l11.909 0.027l9.162 -0.055l14.657 0.151l7.966 -0.812l7.495 -0.137l-3.119 -1.608l-0.954 1.178l-0.902 -1.752l0.653 -1.229l-2.453 -2.773l-1.621 -0.036l-1.057 -1.781l0.507 -1.084l-2.582 -3.099l-0.169 -1.335l-3.531 -1.983l-0.13 -3.093l-1.879 0.938l-0.684 -2.435l-2.037 -2.908l-0.722 1.416l-2.046 -1.066l-1.675 0.709l-1.72 -0.366l-1.397 1.382l-1.275 -1.474l-3.928 0.012l-4.921 2.295l-2.791 -0.624l-1.602 0.799l-0.886 2.279l-2.229 2.116l-2.751 3.808l-2.614 1.271l-1.45 1.819l-1.453 0.238l-1.095 1.429l1.087 2.406l-2.64 2.845l-2.79 1.572z" />
  </g>
  <g data-id="045">
    <path d="m289.097 190.211l-0.967 5.835l3.342 0.121l2.508 0.091l4.001 0.21l3.847 0.202l3.591 0.188l3.745 0.197l4.122 0.184l5.741 0.257l3.707 0.169l1.017 0.05l9.67 0.469l4.361 0.205l0.493 -3.616l-0.024 -2.588l-0.043 -4.547l0.137 -1.264l-3.578 -3.935l-1.281 -4.772l1.065 -2.377l-1.054 -0.764l-3.712 -2.353l-6.395 -9.227l-2.04 -5.114l-4.437 -9.226l-0.273 -4.85l-2.502 -0.823l-3.293 0.802l-3.493 -1.776l-5.78 1.338l-2.85 -0.998l-1.899 -2.188l-1.331 31.485l-6.396 18.613z" />
  </g>
  <g data-id="047">
    <path d="m592.407 317.021l8.516 8.649l3.618 3.672l6.071 6.159l2.278 2.31l1.686 1.71l2.185 2.235l4.928 5.04l1.967 2.011l2.798 2.86l6.462 6.603l1.065 1.016l4.54 4.727l1.23 1.241l1.052 -1.779l1.752 -3.052l-1.569 -3.939l6.968 -3.892l-0.387 -1.374l2.753 -1.585l-0.252 -4.342l1.222 -4.488l1.139 -0.337l-0.672 -2.492l2.326 -1.14l1.734 -2.013l7.849 3.287l1.372 0.674l3.783 -4.331l3.066 -2.344l-0.846 -2.199l13.519 -1.559l2.958 -5.459l2.991 -5.535l4.444 -8.218l-4.534 0.506l-0.839 -2.014l-2.901 -0.912l-2.302 -3.385l-8.855 4.366l-3.513 -0.72l-3.522 0.281l-2.687 -1.004l-2.774 0.094l-12.117 -5.931l-4.66 -1.459l-2.742 -2.229l-1.026 -0.554l-2.365 -1.244l-1.231 0.996l-0.839 -1.708l-17.883 0.59l-3.706 -1.731l-0.598 -1.415l-3.663 3.098l-2.396 1.209l-2.063 -0.258l-2.782 1.707l-1.261 2.081l0.314 4.148l-3.389 0.826l-1.462 1.372l1.101 2.401l-1.044 1.55l-1.613 0.024l-2.281 5.639l-2.915 1.558z" />
  </g>
  <g data-id="049">
    <path d="m772.652 189.335l2.476 1.418l12.717 8.75l14.667 8.809l2.409 1.432l1.122 3.366l1.054 -0.549l1.065 -0.206l0.772 1.024l1.012 -0.914l1 -0.559l2.065 -1.189l1.919 6.516l-0.474 1.329l-0.542 20.885l-0.044 1.711l-0.063 3.039l6.691 -0.462l-1.882 1.727l-1.357 1.409l2.278 0.058l11.693 0.252l-0.038 -2.122l8.189 -1.676l-0.114 -1.126l14.125 -0.191l7.346 -3.162l1.119 -4.124l2.29 -1.731l1.14 -3.542l-3.517 -3.49l-8.934 5.86l-14.736 -5.109l-9.462 -6.531l-1.396 -5.588l0.491 -1.32l3.041 1.022l1.761 -0.511l0.757 -1.454l0.235 -2.103l-0.106 -1.048l0.44 -4.472l-1.085 -0.19l-3.233 -1.526l-2.051 -3.321l1.947 -1.374l0.832 -4.721l3.423 -4.478l2.991 -0.782l1.147 -2.479l-1.961 -1.798l-4.482 -4.108l-26.638 -16.842l-0.643 1.141l-0.527 1.132l-1.325 0.52l-1.925 -0.155l-1.283 2.483l0.317 1.352l-0.124 1.39l-2.494 1.373l-1.043 -2.426l-3 -1.385l-6.394 7.114l-4.337 -1.705l-1.989 0.09l-2.569 1.344l0.034 2.306l-2.09 1.873l1.825 3.642l0.736 2.37l-5.278 3.726z" />
  </g>
  <g data-id="051">
    <path d="m587.712 203.563l1.319 1.597l1.327 6.052l-0.094 3.93l3.768 5.801l2.488 5.054l-0.088 1.091l9.091 5.762l1.595 1.37l1.919 3.369l-0.377 1.944l2.841 4.054l6.673 -1.669l4.881 -0.474l30.008 -0.037l1.976 0.716l2.417 -1.411l-2.076 -1.775l0.046 -1.583l-3.928 -2.992l0.163 -1.858l-1.323 0.065l-1.696 -3.046l-4.746 -3.485l-3.626 -4.052l0.23 -2.224l-1.51 -4.628l-0.516 -4.958l-1.053 -1.009l2.237 -2.444l1.465 -1.761l-1.474 -0.723l2.008 -2.636l-0.444 -3.556l1.033 -0.732l-1.051 -1.499l0.352 -1.33l-1.204 -0.689l2.483 -1.008l-0.789 -1.301l1.614 -2.052l-0.008 -2.391l-11.438 -1.95l-7.147 -0.166l-1.402 -0.719l-1.184 1.234l-2.272 -0.343l-2.51 0.92l-1.366 1.422l-1.895 0.16l-0.263 1.372l-5.279 1.072l-1.181 0.701l-4.778 0.946l-2.262 -0.307l-3.272 0.863l-7.759 2.183l-0.201 2.463l-0.349 1.239l-1.373 5.428z" />
  </g>
  <g data-id="053">
    <path d="m903.584 5.277l17.452 17.572l0.12 3.807l1.111 0.521l2.913 3.276l0.816 1.86l4.364 1.56l1.377 -0.108l1.459 -1.733l2.499 1.548l-0.247 1.438l1.59 -0.816l-0.437 1.533l1.429 0.663l1.509 2.78l2.811 0.348l0.539 2.501l1.853 0.444l-0.075 1.599l-1.351 0.794l0.189 1.752l1.077 -0.31l3.102 1.923l1.318 4.471l3.122 3.544l2.152 3.855l-0.272 2.489l-0.166 1.976l2.257 3.53l1.32 1.309l4.096 2.789l0.919 -1.344l-0.986 -4.253l-1.474 -3.372l-1.025 -1.269l-0.156 -1.729l-1.806 -2.624l-0.146 -2.335l-0.859 -3.182l-1.113 -0.847l-0.615 -1.803l-0.361 -2.373l0.625 -1.949l0.146 -1.986l-1.377 -0.303l-1.064 -0.266l-0.683 -1.223l-0.798 -3.668l-2.262 -4.583l-0.903 -1.335l0.72 -2.985l-0.75 -5.975l-1.026 -0.258l-0.9 1.231l-2.438 0.226l-2.004 -2.555l-1.108 -0.188l-1.584 -0.709l-1.84 -2.35l-1.324 -3.35l-1.197 -3.939l1.823 -0.831l0.442 -1.489l2.964 -0.147l1.126 0.349l0.642 1.808l-1.044 2.644l1.636 1.18l0.31 -1.282l1.408 -0.05l2.775 0.621l0.918 1.093l1.134 -0.42l1.128 0l1.782 3.546l0.356 2.659l2.733 1.55l1.426 2.067l-0.119 4.354l0.594 1.771l1.247 1.254l0.52 2.342l-0.03 1.032l-1.069 1.475l-0.446 3.207l0.832 1.548l1.694 0.406l1.663 4.494l-0.416 1.657l0.921 1.658l1.052 1.193l2.373 -0.588l-2.604 -8.231l-2.519 -9.414l-1.832 -9.12l-2.474 -10.873l-1.144 -7.104l-1.433 0l-1.377 0l-1.026 0.01l-1.176 0.004l-1.196 0l-3.475 0.014l-8.338 0l-10.787 -0.009l-21.534 0.01z" />
  </g>
  <g data-id="055">
    <path d="m969.746 91.272l0.341 1.432l2.439 1.413l0.507 1.921l1.834 2.459l2.038 1.97l0.311 1.016l0.058 3.331l-1.689 1.17l4.07 1.609l1.664 1.287l1.114 -0.872l-0.611 -4.446l0.332 -1.215l-2.224 -4.076l-1.91 -2.658l-1.068 -1.599l-1.389 -1.791l-1.254 -0.55l-2.14 -0.896l-1.46 -0.043z" />
    <path d="m966.704 193.391l0.492 1.989l2.314 -0.708l6.344 -2.504l4.195 -1.628l2.865 -1.002l3.376 -0.501l2.251 -0.125l1.739 0.501l1.262 0.359l0.87 -1.107l2.678 -11.909l1.739 -9.911l1.739 -12.181l1 -10.249l0.274 -3.85l0.158 -2.12l-2.309 -11.389l-1.913 -6.93l-0.715 -2.001l-1.871 -3.639l-1.117 -0.328l1.287 4.934l0.198 1.985l0.943 5.711l0.983 1.984l1.044 3.274l0.625 2.983l0.595 3.038l0 6.416l-0.409 2.012l-0.597 1.757l-0.236 2.414l0.117 1.486l0.102 1.759l-0.819 4.271l-0.614 4.144l-0.716 5.147l-0.664 3.358l-0.666 3.668l-0.614 2.508l-0.614 4.137l-0.716 2.131l-2.854 0.946l-2.358 0.289l-1.69 -0.77l-0.158 1.164l-1.925 1.676l-1.69 1.444l-1.193 0.639l-2.66 0.877l-1.228 -0.125l-1.365 -0.379l-0.784 1.131l-1.637 1.253l-1.023 0.626l-1.823 0.695l-1.247 0.182z" />
    <path d="m962.124 50.579l0.918 2.369l1.058 2.935l2.021 5.196l0.385 1.684l0.144 1.443l0.45 1.223l1.188 6.396l0.03 1.176l-0.238 1.58l0.119 1.212l1.544 0.882l0.534 1.139l-0.505 1.579l-0.059 1.469l0.386 1.028l5.049 1.285l0.802 1.211l0.534 1.932l2.241 2.378l1.203 2.55l0.77 1.588l0.722 2.165l0.047 2.336l2.444 3.484l1.396 3.115l1.454 3.039l0.751 1.148l0.708 2.167l1.246 0.589l0.416 1.347l1.343 0.728l0.385 -1.01l-0.646 -1.394l-1.53 -3.447l-1.974 -5.724l-10.013 -21.897l-4.311 -7.964l-2.433 -5.051l-2.27 -5.673l-2.393 -7.048l-1.452 -3.459l-2.465 0.296z" />
    <path d="m937.454 128.245l12.6 0.155l1.059 3.558l1.721 2.52l-0.352 2.543l1.123 3.346l1.155 -0.541l0.888 1.092l1.649 1.092l4.502 -0.468l2.473 -0.702l-0.317 -1.793l1.712 -1.56l1.776 -0.936l1.966 -2.184l-0.824 -1.716l-0.571 -2.341l0.063 -2.341l3.171 -3.045l-0.191 -1.953l-1.078 -4.843l-1.205 -3.438l-0.317 -1.485l0.634 -1.72l0.668 -2.879l-0.059 -1.578l-0.832 -2.305l-1.544 -1.832l-0.535 -2.639l-1.782 -4.179l-1.129 -2.347l-0.416 -1.394l0 -1.027l-2.079 -1.247l-0.475 -1.321l-5.049 -3.083l-1.188 -0.294l-2.139 -0.073l-2.257 0.22l-4.396 1.688l-1.01 0.734l0.415 1.027l1.9 1.688l-0.059 1.174l-2.316 1.613l-1.663 2.64l-1.723 0.586l-1.051 8.383l0.028 9.567l-2.947 13.637z" />
  </g>
  <g data-id="057">
    <path d="m433.644 104.156l-1.034 1.405l1.717 1.07l0.89 2.861l-1.382 2.21l2.938 3.245l-0.928 3.16l0.632 1.175l1.109 -0.082l2.281 1.293l5.653 1.282l4.281 -0.577l0.386 5.599l2.644 1.887l2.219 4.337l4.32 2.26l2.175 3.244l2.542 2.137l-0.139 3.932l3.073 6.67l6.045 -0.086l7.011 -0.123l0.247 -8.126l0.97 -26.603l0.083 -1.843l0.211 -4.526l0.533 -11.274l0.207 -5.299l0.059 -2.304l0.033 -1.146l0.049 -1.434l0.221 -6.35l0.048 -1.32l-10.638 -1.983l-8.598 -0.256l-0.011 2.556l-0.002 1.644l-2.761 0.003l-9.525 0.015l-1.521 0.308l-5.644 2.592l0.958 1.94l0.245 2.845l0.811 1.817l-0.754 2.234l1.128 2.571l-0.556 1.137l-4.27 -0.799l-0.979 1.534l2.814 1.479l0.655 2.124l-1.471 1.843l-2.764 -1.478l-0.67 3.064l-2.001 -0.916l-1.64 1.365l-1.903 -2.312z" />
  </g>
  <g data-id="059">
    <path d="m407.758 102.819l1.808 -1.472l2.629 1.118l-0.351 1.216l4.576 0.196l4.556 3.909l2.29 0.132l1.229 1.321l1.036 1.084l1.866 1.067l1.472 0.961l1.476 1.344l0.673 -1.167l2.699 1.209l2.131 4.367l0.928 -3.16l-2.938 -3.245l1.382 -2.21l-0.89 -2.861l-1.717 -1.07l1.034 -1.405l1.903 2.312l1.64 -1.365l2.001 0.916l0.67 -3.064l2.764 1.478l1.471 -1.843l-0.655 -2.124l-2.814 -1.479l0.979 -1.534l4.27 0.799l0.556 -1.137l-1.128 -2.571l0.754 -2.234l-0.811 -1.817l-0.245 -2.845l-1.868 -1.522l-2.978 -1.955l0.314 -4.012l-3.975 -3.95l-1.178 -2.606l-3.688 2.232l-12.142 -0.194l-10.075 -0.463l-1.196 20.034l-0.402 6.736z" />
  </g>
  <g data-id="061">
    <path d="m690.859 256.448l3.768 1.876l3.388 2.438l2.393 -1.59l5.394 -0.834l3.974 0.394l2.064 -1.048l2.161 2.125l2.118 0.365l2.104 -0.104l2.042 -1.095l1.857 0.478l26.89 -0.115l0.603 -9.957l0.59 -3.107l2.435 -14.801l-0.26 -2.366l-2.501 -4.541l-6.262 -4.768l-1.694 -1.956l-0.342 -4.551l0.002 -5.57l-2.272 -6.871l-7.342 -4.454l-5.583 2.138l-0.955 2.213l-2.114 -2.442l-2.4 -1.185l-3.205 0.989l-2.668 -2.548l-4.077 -1.383l-4.223 1.164l-2.206 1.426l-9.707 -2.013l0.046 7.239l-0.996 6.033l1.355 1.892l0.48 8.341l0.953 16.078l-5.812 22.109z" />
  </g>
  <g data-id="063">
    <path d="m599.247 96.828l-0.642 4.561l7.754 -0.425l3.081 -0.168l1.602 -0.088l1.542 0.027l6.851 0.125l1.958 -5.25l0.792 -2.357l4.73 0.275l1.555 -1.493l1.113 -0.494l1.572 -2.156l1.046 -1.428l2.075 -6.891l-2.237 -2.866l-3.798 -0.25l-0.047 -2.292l-0.029 -1.19l0.34 -2.023l-2.817 -0.089l-3.541 -2.264l0.576 -17.578l0.019 -1.013l0.002 -2.107l-16.189 -0.48l-2.446 13.521l-0.358 2.443l-2.012 14.273l-0.946 6.702l-0.434 3.069l-0.157 1.126l-0.161 1.133l-0.671 4.749z" />
  </g>
  <g data-id="065">
    <path d="m733.627 98.485l-1 2.347l8.699 5.486l1.772 7.104l1.385 4.755l0.555 1.905l2.868 3.246l2.051 2.273l1.095 1.968l1.059 -0.752l7.025 -5.193l7.02 -4.976l1.775 -1.176l4.879 -5.439l2.956 -1.062l2.324 0.467l1.791 -2.926l2.196 -0.927l4.489 1.925l0.06 -5.129l0.045 -1.578l0.791 -5.271l-7.535 -13.021l-1.347 -0.687l-2.313 -1.545l-3.772 -3.228l-4.803 0.146l-1.304 -0.348l-1.216 -2.943l1.312 -1.261l-1.393 -3.727l-2.484 -0.145l-7.2 -1.999l-0.174 -1.123l-1.873 -2.612l-2.89 0.126l-0.929 -2.387l-2.199 0.179l-0.679 1.477l-0.33 3.774l-3.778 7.263l-3.377 7.513l-0.979 3.952l-4.572 13.549z" />
  </g>
  <g data-id="067">
    <path d="m429.419 69.411l0.822 4.831l1.383 1.592l3.688 -2.232l1.178 2.606l3.975 3.95l-0.314 4.012l2.844 1.876l1.044 -0.339l4.674 -2.147l2.491 -0.753l9.525 -0.015l2.761 -0.003l0.001 -1.004l0.012 -3.196l8.598 0.256l10.638 1.983l0.455 -17.218l0.073 -1.727l0.128 -2.162l0.261 -13.319l-37.828 -0.513l-9.173 -0.091l-0.071 2.81l1.681 1.622l0.342 1.071l-1.252 1.644l0.259 3.723l0.476 1.087l-0.015 5.038l-1.724 2.488l-5.771 1.813l-1.162 2.317z" />
  </g>
  <g data-id="069">
    <path d="m651.802 71.047l-0.181 8.236l6.66 3.019l6.828 3.51l3.671 5.315l4.632 0.811l0.234 2.816l3.562 2.273l1.379 -0.308l2.605 3.086l1.635 4.119l1.813 2.419l-0.233 1.156l8.08 -16.178l1.405 -2.693l13.434 -24.983l5.204 -9.612l-4.355 -1.783l-2.946 -0.139l-3.603 1.023l-2.419 -2.32l-0.924 -2.893l-2.725 0.268l-1.765 -1.526l-2.443 1.187l-3.452 -1.359l-9.261 -1.349l-3.517 4.441l-4.514 -0.086l-3.831 9.154l-1.104 0.739l-7.205 -1.544l-1.227 0.022l-5.438 13.18z" />
  </g>
  <g data-id="071">
    <path d="m323.55 162.954l6.235 9.219l3.712 2.353l1.054 0.764l-1.065 2.377l1.281 4.772l3.653 3.162l-0.212 2.037l0.04 4.25l0.027 2.885l-0.493 3.616l4.216 0.198l2.395 0.113l3.132 0.147l11.675 0.644l3.088 0.17l3.789 0.295l3.794 0.299l2.991 -0.613l1.662 -3.658l-1.304 -6.208l0.353 -1.407l0.189 -1.355l-0.667 -3.162l1.699 -5.191l3.083 -6.091l1.188 0.444l2.088 -0.489l2.323 -1.291l-4.497 -2.102l-1.17 1.511l-1.537 -1.931l3.614 -3.035l-15.717 -0.907l-17.772 -0.801l-1.957 -0.093l-20.57 -0.908z" />
  </g>
  <g data-id="073">
    <path d="m831.67 16.474l0.603 4.291l-0.112 3.699l1.443 1.676l2.886 1.561l1.328 0.04l8.425 3.688l2.937 0.618l1.799 -0.386l2.048 1.409l2.932 3.971l4.373 3.91l2.369 -0.717l0.632 -1.953l1.697 0.156l1.639 -2.063l5.225 0.566l2.633 -1.331l1.253 -2.348l2.31 -0.872l9.643 -2.916l-4.253 -12.698l0.008 -5.898l-5.664 -5.565l-1.851 -0.029l-1.981 -0.032l-18.372 -0.034l-1.28 0.085l-3.567 -0.039l-2.909 0.007l-12.278 -0.209l-0.018 1.16l1.363 3.152l-0.282 1.502l-1.455 0.742l-1.582 4.6l-1.944 0.257z" />
  </g>
  <g data-id="075">
    <path d="m32.085 172.628l0.572 1.799l0.026 1.142l-0.372 1.494l0.767 1.023l0.823 1.244l-0.733 1.189l2.048 2.701l-0.052 2.391l1.049 0.872l-0.014 2.257l3.669 2.101l2.526 -0.242l4.803 -2.13l1.159 0.278l2.207 -1.502l4.774 -1.66l4.092 -0.186l2.438 1.619l4.427 0.104l2.389 -1.755l1.17 1.267l2.111 -3.846l-1.272 -2.928l0.53 -2.684l3.401 -2.583l4.429 -1.314l2.214 -3.304l2.151 -5.741l-0.361 -3.37l-2.827 1.078l-0.889 -1.256l-2.793 -0.981l-0.177 1.546l-1.453 -0.032l-8.347 -2.068l-2.861 0.761l-1.945 -0.245l-3.29 -1.609l-0.347 1.422l-4.309 -1.149l-2.22 0.666l-1.04 -1.676l-4.545 -0.643l-1.537 1.996l-1.322 0.284l-1.519 -1.667l-1.393 0.724l-1.473 1.048l-1.611 1.351l-0.63 1.008l-0.462 1.14l-1.067 0.992l-1.007 0.768l0.206 1.393l1.196 1.301l-0.181 1.065l0.25 1.525l-1.309 1.673l-1.822 1.209z" />
  </g>
  <g data-id="077">
    <path d="m622.481 69.134l3.073 3.217l2.954 0.094l3.665 -0.71l4.013 0.2l14.599 6.996l1.017 -7.884l5.438 -13.18l-1.322 -1.08l-0.099 -11.576l-0.227 -26.496l1.162 -4.511l0.355 -3.863l2.807 -0.948l1.798 -2.983l-1.559 0.022l-4.42 0.175l-2.229 0.012l-8.527 -0.015l-5.592 -0.11l-1.713 -0.022l-7.229 0.019l-2.738 0.007l-4.274 0.02l0.161 2.145l-0.845 40.731l-0.002 2.107l-0.019 1.013l-0.245 16.62z" />
  </g>
  <g data-id="079">
    <path d="m733.257 141.839l-0.438 20.515l2.393 2.296l0.629 3.417l-0.639 1.804l3.154 0.292l6.017 -0.869l3.027 -0.436l2.143 4.114l4.447 -0.93l3.627 -3.516l1.99 0.793l2.728 -1.726l3.494 -1.643l1.517 -2.646l3.064 0.775l2.037 -2.082l-0.139 -2.597l-1.796 -2.224l-0.164 -2.21l-1.994 -2.829l0.734 -2.829l-2.099 -0.04l-0.127 -1.331l-3.984 -0.742l-1.186 -2.129l-2.506 -2.122l-1.955 -0.473l-5.875 -7.173l-2.164 -1.598l-0.835 -2.614l-1.316 -0.375l-11.914 9.557l-1.83 -0.27l-0.039 1.84z" />
  </g>
  <g data-id="081">
    <path d="m482.389 91.078l-0.059 2.304l8.415 0.402l1.244 0.056l22.334 1.194l5.65 0.286l12.966 0.644l6.384 0.322l0.45 -30.75l0.096 -3.635l0.506 -13.299l-18.972 -0.62l-5.519 -0.229l-3.57 -0.147l-9.735 -0.446l-18.846 -0.753l-0.338 13.316l-0.097 1.412l-0.104 2.477l-0.455 17.218l-0.04 1.1l-0.229 6.57l-0.049 1.434l-0.033 1.146z" />
  </g>
  <g data-id="083">
    <path d="m712.532 54.032l2.133 1.832l1.023 1.971l1.264 -2.625l1.878 1.894l0.759 -1.668l2.939 1.546l-0.572 2.046l2.47 0.559l1.663 2.641l2.92 -0.677l4.359 0.567l1.622 0.893l0.359 -1.585l2.394 1.166l1.029 -0.162l2.82 -2.013l3.189 3.223l2.563 -2.683l2.199 -0.179l0.929 2.387l2.89 -0.126l1.715 2.289l0.332 1.446l7.2 1.999l2.484 0.145l1.393 3.727l-1.312 1.261l1.216 2.943l1.304 0.348l4.803 -0.146l4.036 2.317l2.049 2.456l2.09 -0.189l7.146 -8.335l1.321 -0.929l0.855 -1.018l0.529 -1.257l1.914 -0.371l1.615 -0.867l1.951 -0.5l1.817 0.186l2.297 -0.869l-2.167 -1.224l1.03 -0.699l-1.003 -0.37l-0.308 -1.115l-1.422 -1.349l-0.176 -1.028l0.226 -1.269l-1.148 -0.2l-0.934 -1.38l-1.009 -0.215l-1.123 0.446l-3.035 -3.74l-2.55 0.052l-4.019 -3.078l1.019 -2.942l-0.338 -2.054l-3.286 -2.034l-0.534 -4.153l-3.074 -4.324l-3.06 0.443l-2.969 1.793l-5.191 0.716l-3.416 -1.515l-1.615 -3l0.652 -2.04l3.713 -3.34l0.282 -2.529l-1.215 -3.645l-3.838 -0.775l-0.218 -1.028l-2.048 -0.812l-2.412 -1.962l-1.537 -4.157l-4.149 0.147l-3.219 -1.108l-2.375 0.084l-1.342 0.926l-3.544 -0.256l-1.704 -1.335l-3.195 -1.301l-2.582 -0.287l-5.918 -1.326l-0.76 1.083l-1.097 4.255l-0.307 12.829l-2.893 9.66l-0.542 2.094l-2.145 4.026l-5.092 9.39z" />
  </g>
  <g data-id="085">
    <path d="m575.282 183.927l3.303 2.474l3.232 1.285l1.47 3.65l6.349 3.098l7.759 -2.183l3.272 -0.863l2.262 0.307l4.778 -0.946l1.181 -0.701l5.279 -1.072l0.263 -1.372l1.895 -0.16l1.366 -1.422l2.51 -0.92l2.272 0.343l1.184 -1.234l1.402 0.719l6.351 -0.83l12.234 2.946l3.665 -3.832l0.134 -3.244l5.089 -2.714l0.959 -2.562l-4.27 -4.531l-0.705 -2.831l-2.386 -1.91l-2.061 -5.045l-1.599 -2.78l-2.488 -1.797l-1.416 -3.444l-1.506 -0.012l-1.582 -2.711l-2.187 -0.488l-3.572 -1.282l-1.667 -0.614l-9.254 -3.608l-1.049 -0.408l-7.511 -2.92l-1.554 1.852l-4.811 6.673l-12.072 14.837l-12.063 14.86l-4.453 5.395z" />
  </g>
  <g data-id="087">
    <path d="m120.245 123.537l0.056 1.098l4.592 0.549l0.817 1.46l2.898 1.427l-2.296 2.927l2.984 3.159l-0.012 2.089l-1.076 1.968l0.385 1.906l1.709 0.811l1.256 3.616l-1.78 2.077l-0.316 2.254l-1.344 0.973l2.578 0.751l0.235 1.726l2.706 1.064l-0.034 3.428l3.223 -0.006l1.999 0.912l0.133 1.176l1.216 0.204l-0.07 1.775l2.686 1.215l1.359 1.562l0.058 2.81l2.134 1.967l2.058 0.395l1.829 1.344l2.896 4.799l-0.004 2.438l4.22 1.726l0.727 1.488l1.153 -0.923l1.264 -0.934l2.64 -1.266l5.013 -0.548l2.991 -4.063l1.618 -3.519l1.832 -2.754l3.263 -1.943l0.054 -2.163l-4.124 -2.295l-2.009 -4.389l2.418 -6.711l1.376 -2.931l-1.315 -2.056l1.307 -1.665l-0.853 -1.211l-2.665 -2.747l-1.808 -4.411l-2.715 1.099l-1.844 -2.333l-1.221 0.301l-1.43 -4.423l-1.236 -0.863l-1.473 -1.696l0.277 -2.613l-1.331 -1.73l-0.817 -3.978l-3.411 0.815l-1.037 -1.078l0.789 -2.733l-1.446 -3.529l-1.304 0.688l-1.073 1.221l-1.335 0.679l-1.158 -0.734l-3.401 -1.252l-1.139 0.216l-1.358 -0.332l-1.565 -0.01l-1.465 0.351l-1.353 1.352l-1.5 0.717l-1.094 0.651l-3.022 0.155l-1.381 0.032l-0.627 1.429l-0.61 1.183l-1.203 1.004l-0.547 1.25l-1.42 0.611l-1.832 0.147l-1.979 -0.231l-1.138 0.342l-1.028 0.518l-0.364 1.049l-0.184 1.168z" />
  </g>
  <g data-id="089">
    <path d="m182.906 158.168l-5.009 4.342l11.057 13.041l3.147 3.459l1.022 2.144l-0.678 3.863l1.346 0.18l0.034 5.132l1.411 7.859l1.944 2.929l1.181 -1.095l1.004 -0.178l0.84 -1.027l1.265 0.144l1.16 0.347l1.017 -0.867l1.216 -0.119l1.199 -0.058l0.92 -1.13l1.266 -0.413l1.81 -0.366l0.808 1.263l1.505 0.433l1.308 -2.397l0.399 -1.362l1.484 -1.297l1.76 -1.482l1.316 0.369l0.396 1.141l-0.009 1.2l0.429 1.264l1.411 -0.041l1.203 -1.036l0.264 -4.291l-0.884 -2.928l1.09 -0.243l0.299 -4.626l2.163 -4.036l1.946 -0.8l0.583 -2.478l2.848 -4.543l2.094 -3.179l-0.989 -1.674l-1.166 -5.887l1.547 -3.167l-7.442 -4.751l-2.946 1.531l-1.172 0.506l0.131 2.541l-5.569 -1.016l-3.471 2.295l-0.886 1.147l-4.409 0.618l-3.945 0.067l-0.287 3.888l-1.606 -1.183l-0.212 -2.651l-3.798 1.48l-2.886 -1.328l-1.544 1.04l-3.53 -2.678l-2.291 -0.613l-3.091 0.711z" />
  </g>
  <g data-id="091">
    <path d="m802.561 47.85l2.873 0.561l19.717 0.519l2.508 -0.414l1.665 0.552l7.674 -0.679l20.668 -0.115l3.04 -4.835l-0.374 -2.489l-4.373 -3.91l-2.932 -3.971l-2.048 -1.409l-1.799 0.386l-2.937 -0.618l-8.425 -3.688l-1.328 -0.04l-2.886 -1.561l-1.443 -1.676l0.112 -3.699l-0.603 -4.291l1.944 -0.257l1.582 -4.6l1.455 -0.742l0.282 -1.502l-1.974 -2.395l-19.585 -0.868l-3.357 0.09l-3.145 -0.013l-1.318 -0.313l1.77 1.708l0.092 1.286l6.165 0.95l1.213 0.947l-0.334 1.615l1.265 0.079l0.878 2.314l-2.827 1.566l-0.951 -1.03l-2.598 1.105l-1.61 2.221l0.663 2.463l-6.717 21.084l-1.999 5.667z" />
  </g>
  <g data-id="093">
    <path d="m548.686 214.906l1.048 2.281l2.046 0.958l1.532 2.122l2.173 1.309l2.257 2.694l2.862 4.326l0.482 7.815l1.265 4.778l-1.154 1.945l17.655 0.665l2.785 -2.652l11.758 -11.174l1.752 -1.663l1.287 -1.222l0.088 -1.091l-2.488 -5.054l-3.768 -5.801l0.094 -3.93l-1.327 -6.052l-1.319 -1.597l1.373 -5.428l0.349 -1.239l-1.085 -0.235l-1.983 1.291l-0.758 -1.01l-1.067 0.653l-1.491 -1.578l-1.519 -0.047l-0.854 -1.673l-4.077 -0.127l-2.072 -2.296l-1.554 -0.441l-1.374 1.501l-2.891 1.054l-3.301 3.082l-2.814 1.57l-7.678 8.999l-6.23 7.267z" />
  </g>
  <g data-id="095">
    <path d="m937.393 211.434l1.36 0.221l2.11 -1.969l2.149 -1.5l2.149 -1.751l3.581 -2.001l8.185 -4.379l5.73 -2.878l2.251 -1.127l1.33 -0.375l0.468 -2.283l-3.606 0.741l-1.773 1.541l-1.293 0.623l-3.004 0.879l-6.139 3.004l-1.842 1.126l-1.535 1.001l-3.479 2.127l-1.33 0.25l-1.97 -0.311l-0.747 1.586l0.157 1.057l-0.305 1.17l-1.023 1.125l-1.423 2.123z" />
    <path d="m867.121 123.362l3.883 4.884l-0.467 3.239l3.221 4.926l2.991 2.028l1.827 0.132l-0.468 1.766l2.259 0.583l1.517 -0.318l4.264 3.497l1.279 0.731l-2.288 5.385l-12.371 0.381l5.196 13.616l4.63 4.037l1.522 1.4l1.522 0l1.141 -1.244l1.522 -0.467l1.395 0.778l0.507 2.177l1.268 0.467l1.268 0.777l1.142 0.622l1.268 -1.089l1.522 0.155l1.015 0.933l1.776 0.466l1.015 -0.155l0.634 -1.244l3.425 0l2.537 1.399l1.902 0.311l1.395 -0.932l2.029 0l3.298 1.866l2.663 0l1.522 0.622l2.156 0.777l0.761 -1.71l1.141 -1.477l1.078 -0.233l3.424 -1.4l2.663 -1.322l1.078 -1.789l-0.127 -1.244l-0.317 -1.712l1.522 -1.478l1.459 0.234l1.332 0.778l1.205 -1.167l0.253 -2.179l0.317 -1.323l1.332 -1.557l0.381 -1.401l-0.127 -1.635l0.951 -1.246l2.727 -1.324l-0.19 -1.48l1.141 -3.039l1.014 -1.091l3.298 -0.546l0.888 -1.091l0 -1.247l1.522 -2.495l2.84 -1.33l-1.123 -3.346l0.352 -2.543l-1.721 -2.52l-1.059 -3.558l-12.711 0.012l-1.79 2.697l-1.161 -0.259l-0.701 -1.077l-1.663 -2.244l-3.558 0.758l-3.164 -1.882l0.271 -1.194l-1.538 -0.037l-1.439 -1.433l-2.871 0.565l-0.65 1.073l0.672 2.355l-1.34 1.143l0.443 1.38l-1.665 1.279l-0.694 1.712l0.328 1.931l-2.197 3.049l-7.99 -0.888l-1.327 -0.603l3.233 -11.366l-15.426 -0.948l-15.756 -1.043l-10.242 -0.018z" />
  </g>
  <g data-id="097">
    <path d="m365.85 109.013l-3.412 4.427l4.699 5.352l0.737 3.816l6.319 0.06l4.402 5.542l1.7 4.013l2.674 2.559l-1.807 2.441l1.15 1.804l-2.023 1.542l-0.985 4.751l2.295 2.425l-1.906 -0.283l-0.628 4.562l1.67 1.411l4.583 -3.647l5.032 0.432l7.222 0.634l1.478 0.14l5.351 0.037l0.076 -2.719l-0.757 -4.731l-3.106 -15.805l5.899 -20.605l1.002 -3.506l0.263 -1.201l0.433 -7.256l1.196 -20.034l-3.003 -0.092l-1.467 -0.044l-1.839 -0.055l-14.945 -0.432l-3.397 -0.088l-4.19 -0.105l-1.46 -0.116l-1.088 -0.085l-6.477 1.798l1.351 3.212l0.425 1.01l1.094 2.601l-0.242 5.361l-4.039 13.99l-4.279 6.88z" />
  </g>
  <g data-id="099">
    <path d="m108.103 162l0.342 2.054l2.207 1.998l1.087 5.966l-0.914 3.218l0.872 2.08l1.218 0.562l-0.175 1.443l1.197 2.743l-0.439 2.323l1.969 1.248l0.826 3.038l1.602 0.791l3.581 -0.473l0.44 -1.03l1.916 0.038l0.871 2.199l-0.227 4.062l-0.583 4.958l4.143 3.228l1.074 3.461l3.367 2.087l0.491 2.064l-1.053 0.117l-1.176 0.716l-1.032 0.563l0.56 1.441l2.122 0.596l4.497 7.333l11.277 -3.709l-2.684 -1.399l-0.759 -1.43l-1.997 -0.788l1.348 -3.212l2.698 -2.552l4.267 -5.005l0.261 -2.267l-1.569 -0.713l-0.205 -1.388l1.739 -0.561l-0.644 -2.76l2.044 -0.96l1.009 -2.841l2.703 -1.339l0.979 -1.719l0.902 -4.672l-0.185 -2.891l-0.727 -1.488l-4.22 -1.726l0.004 -2.438l-2.896 -4.799l-1.829 -1.344l-2.058 -0.395l-2.134 -1.967l-0.058 -2.81l-1.359 -1.562l-2.686 -1.215l0.07 -1.775l-1.216 -0.204l-0.133 -1.176l-1.999 -0.912l-3.223 0.006l0.034 -3.428l-2.706 -1.064l-0.235 -1.726l-2.578 -0.751l-2.74 -0.687l-2.873 -0.726l-5.127 3.542l-0.424 1.401l-2.669 1.327l-1.062 1.948l-1.95 -1.309l-1.816 0.917l-1.355 5.74z" />
  </g>
  <g data-id="101">
    <path d="m684.369 107.68z" />
    <path d="m634.906 147.689l-1.618 1.453l2.187 0.488l1.582 2.711l1.506 0.012l1.416 3.444l2.488 1.797l1.44 2.518l2.22 5.307l2.386 1.91l0.705 2.831l4.27 4.531l-0.959 2.562l1.319 1.851l0.494 1.092l1.405 1.86l2.022 2.535l2.633 0.369l2.075 0.279l3.588 0.462l1.286 -0.302l1.042 -0.759l7.329 -2.417l2.954 -0.988l1.903 -3.798l1.423 0.002l2.296 -1.454l1.654 0.778l2.953 -2.017l2.065 -0.767l5.005 -1.465l-1.038 -2.29l2.058 -2.721l-1.068 -0.705l-0.14 -3.575l5.102 -11.632l0.452 -1.033l1.464 -3.35l3.15 -7.192l-5.737 -2.105l-1 -0.333l-3.029 -9.216l-1.127 -4.02l0.088 -1.348l-3.56 -3.153l-1.34 0.367l-1.778 -3.777l-3.484 -2.531l0.764 -2.598l-1.386 -3.511l-1.01 0.672l-6.616 4.601l-15.384 10.234l-1.295 0.105l-19.307 18.719l-2.383 2.261l-2.155 2.068l-1.291 1.216z" />
  </g>
  <g data-id="103">
    <path d="m743.618 219.798l6.174 4.59l4.212 -1.328l15.366 2.041l8.469 4.629l2.545 1.393l4.331 2.372l0.39 -2.324l3.583 -1.873l2.502 0.225l4.733 1.649l2.155 3.5l1.238 0.019l0.36 1.875l1.654 1.091l2.169 6.202l2.354 0.461l-1.902 2.603l2.835 2.785l-0.109 1.42l0.489 -1.458l8.745 -1.616l1.353 -1.177l1.357 -1.409l1.867 -1.666l-6.676 0.401l0.063 -3.039l0.044 -1.711l0.542 -20.885l0.474 -1.329l-1.179 -5.608l-2.371 -0.684l-0.467 1.01l-1.008 0.541l-1.298 -0.22l-1.032 -0.366l-1.095 0.998l-1.559 -3.16l-2.409 -1.432l-14.368 -8.603l-13.016 -8.956l-2.476 -1.418l-5.785 -1.856l1.975 9.612l-8.118 10.73l-1.098 1.452l-1.369 1.811l-14.638 8.713z" />
  </g>
  <g data-id="105">
    <path d="m562.549 152.12l-2.695 3.921l3.612 5.166l-0.129 1.283l4.437 3.138l2.717 7.629l9.243 5.275l12.063 -14.86l12.033 -14.79l-2.894 -2.882l-3.2 -0.868l-2.598 -3.062l-0.682 -3.62l-4.557 -3.12l-2.667 -1.268l-3.543 1.307l-1.019 2.049l-3.432 3.406l-1.386 0.326l0.039 2.57l-2.905 0.945l0.778 -1.932l-2.925 -0.477l-0.06 2.241l-1.975 2.39l-1.448 0.548l-1.83 -1.604l0.743 -1.636l-4.281 1.493l1.341 1.615l-1.206 1.122l-3.178 0.925l1.604 2.771z" />
  </g>
  <g data-id="107">
    <path d="m732.513 185.45l-0.541 10.947l7.342 4.454l2.257 6.428l0.176 5.247l0.179 5.317l1.694 1.956l14.638 -8.713l1.369 -1.811l1.098 -1.452l8.118 -10.73l-2.225 -9.692l6.035 1.936l5.278 -3.726l-0.24 -1.451l-2.321 -4.561l2.09 -1.873l-0.034 -2.306l2.309 -1.122l1.917 -0.668l-1.596 -1.481l-2.044 0.529l-0.833 -2.578l-1.646 -0.468l-0.343 -3.113l-1.38 -0.774l-1.363 -3.742l-2.037 2.082l-3.064 -0.775l-1.517 2.646l-2.632 1.269l-3.59 2.1l-1.99 -0.793l-3.627 3.516l-4.447 0.93l-2.143 -4.114l-3.027 0.436l-6.017 0.869l-2.44 -0.171l-2.118 1.596l-0.69 1.875l-0.556 11.206z" />
  </g>
  <g data-id="109">
    <path d="m314.235 142.722l2.405 1.035l0.273 4.85l4.437 9.226l1.679 4.578l21.411 1.467l1.957 0.093l17.772 0.801l15.717 0.907l-0.426 -4.378l1.834 -3.248l-1.039 -2.082l0.479 -2.535l-1.67 -1.411l0.628 -4.562l1.906 0.283l-2.295 -2.425l-1.986 -0.056l-1.495 -0.029l-8.392 -0.451l-52.993 -2.39z" />
  </g>
  <g data-id="111">
    <path d="m228.868 125.825l1.447 2.813l-0.695 1.968l2.455 5.417l-1.043 0.439l-1.988 2.192l4.576 4.875l3.528 0.943l5.746 3.512l2.089 1.36l6.18 -1.894l3.662 -0.197l2.648 0.053l1.24 -0.454l2.941 -2.2l3.967 3.583l6.199 -1.66l4.019 -0.568l3.902 -0.026l2.07 -4.538l-5.107 -20.082l-3.782 -3.517l-2.426 -2.346l-3.379 -3.003l-3.677 -3.273l1.598 -2.002l2.416 -0.255l1.315 -2.028l1.661 -0.746l2.068 -5.611l-0.412 -3.089l-2.05 -3.619l-0.594 -2.333l-0.429 -1l-2.87 1.906l0.946 2.109l-3.086 2.13l0.202 3.665l-2.171 1.537l-1.602 -1.561l-3.885 4.454l-2.897 0.685l-2.899 -0.469l-2.389 3.71l-1.456 0.237l-3.882 4.754l0.403 2.51l-3.282 4.974l-5.569 3.178l-1.701 1.889l-1.981 -0.776l-1.504 1.132l-0.524 1.222z" />
  </g>
  <g data-id="113">
    <path d="m66.605 196.295l-0.744 3.123l1.275 1.474l1.397 -1.382l1.72 0.366l1.675 -0.709l2.046 1.066l0.722 -1.416l2.037 2.908l0.684 2.435l1.879 -0.938l0.13 3.093l3.531 1.983l0.169 1.335l2.582 3.099l-0.507 1.084l1.057 1.781l1.621 0.036l2.453 2.773l-0.653 1.229l0.902 1.752l0.954 -1.178l3.119 1.608l18.073 -0.329l14.933 -0.493l9.229 -0.166l-4.497 -7.333l-1.722 -0.38l-0.96 -1.657l1.032 -0.563l1.176 -0.716l1.04 0.009l-0.478 -2.19l-3.367 -2.087l-1.074 -3.461l-4.143 -3.228l-0.078 -4.17l0.888 -4.85l-0.871 -2.199l-1.916 -0.038l-0.44 1.03l-3.581 0.473l-1.602 -0.791l-0.826 -3.038l-1.969 -1.248l0.439 -2.323l-1.197 -2.743l0.175 -1.443l-1.218 -0.562l-0.872 -2.08l-2.778 0.691l-3.987 -0.246l-1.262 1.551l-2.449 -1.193l-4.39 3.841l-1.727 -1.11l-2.84 1.034l-18.162 2.094l-1.27 0.891l-2.111 3.846l1.253 0.795l-0.578 2.4l-3.563 3.52l1.92 0.584l-2.279 2.358z" />
  </g>
  <g data-id="115">
    <path d="m153.405 111.193l1.368 3.671l-0.789 2.733l1.037 1.078l3.411 -0.815l0.817 3.978l1.331 1.73l-0.277 2.613l1.936 0.93l4.01 -3.263l4.661 2.202l1.385 -1.38l5.055 -1.48l2.145 -2.216l1.942 0.636l0.16 -2.094l3.985 -0.273l3.629 -1.731l1.473 -0.768l12.025 -6.38l1.046 -0.561l4.497 0.615l1.384 -1.572l3.215 0.143l1.969 -0.663l1.047 -0.67l-1.245 -3.501l0.235 -2.231l-2.446 -2.765l-1.661 -2.876l-2.349 -1.306l-2.257 -0.033l0.499 -1.634l-0.924 -1.251l2.082 -2.511l-1.818 -1.175l-1.043 -2.931l-1.24 0.238l-1.675 0.526l-1.261 0.585l-1.21 1.027l-1.614 0.708l-1.035 -0.516l-1.726 -0.994l-1.781 0.051l-0.352 -1.174l0.468 -1.395l-0.023 -1.077l-0.916 -1.134l1.211 -2.493l0.993 -1.091l-0.367 -1.136l-1.228 -1.499l-0.858 -1.298l-1.253 -1.102l-1.715 -0.097l-1.27 0.919l-1.529 0.464l-1.715 0.949l-0.597 1.046l-1.376 0.586l-1.591 0.809l-1.117 1.451l-2.82 1.702l-1.026 0.251l-1.9 0.571l-0.383 1.058l-0.695 2.052l1.029 0.544l-0.75 1.241l-0.495 1.787l-1.463 1.116l-0.648 1.01l0.37 1.1l-1.493 0.7l-1.119 -0.799l-1.574 -1.456l-1.112 -1.06l-1.227 0.047l-1.121 -0.636l-1.497 0.39l-1.469 0.637l-0.523 1.836l-1.02 0.629l-0.12 1.702l0.536 1.019l0.268 1.447l0.095 1.308l0.45 1.073l-0.179 1.02l-1.709 0.904l-0.511 2.093l0.091 1.31l-1.319 0.74l-0.63 1.257l-1.646 1.55l-0.462 1.156l-0.632 1.027l-0.054 1.076z" />
  </g>
  <g data-id="117">
    <path d="m780.671 81.635l6.792 13.897l-0.791 5.271l-0.045 1.578l-0.06 5.129l7.282 3.101l3.455 1.473l-0.518 2.938l4.845 0.692l4.834 3.811l1.146 -0.923l14.576 8.409l5.506 2.792l9.64 -5.241l5.995 -3.251l1.798 -1.49l1.612 -2.52l1.438 -4.605l1.278 -1.106l-1.065 -2.077l2.3 -3.081l-0.816 -1.549l1.335 -2.746l1.896 -0.981l-2.3 0.141l-1.06 -0.753l-1.317 -1.607l-1.892 -0.817l-1.079 0.061l-0.931 1.651l0.469 1.66l-0.292 1.795l-1.212 1.345l-1.972 2.29l-1.496 1.419l-1.368 0.109l-0.827 -1.001l-0.068 -2l-0.571 -1.513l0.233 -1.371l0.214 -1.632l-1.608 -2.259l-1.061 -2.058l-1.562 -0.462l-1.375 0.543l-1.178 1.605l-1.373 0.521l-1.473 0.914l-0.976 1.392l-1.868 0.59l-1.204 -0.078l-1.594 0.569l-1.159 -0.91l-0.128 -1.269l0.974 -1.779l0.869 -1.003l-0.011 -1.627l-0.218 -1.756l-0.264 -1.685l-1.095 -1.377l-1.29 -0.712l-1.192 0.65l-1.375 0.603l-1.34 0.824l-1.041 0.183l-1.325 -0.173l-1.399 0.489l-0.675 -1.261l-1.063 -0.173l-1.703 -0.004l-1.719 0.131l-1.879 0.675l-1.585 -1.192l-0.343 -1.026l0.288 -1.155l0.429 -1.018l0.305 -1.294l-0.509 -1.613l0.103 -1.099l-1.007 -0.41l-0.295 -1.297l-0.596 -1.171l-1.707 -0.514l-1.139 -0.638l-1.224 -0.596l-1.499 -0.75l-1.422 -0.636l-1.177 -0.93l-1.409 -0.925l-1.598 -0.801l-1.168 -0.64l-0.416 -1.082l-1.266 -0.25l-7.423 8.636z" />
  </g>
  <g data-id="119">
    <path d="m368.246 210.833l0.043 1.483l1.823 2.444l2.048 -1.434l3.001 -2.102l1.418 -0.994l2.966 -2.078l2.586 -2.037l3.204 4.226l2.444 3.205l1.618 2.304l3.403 4.844l2.186 -2.161l1.112 -0.572l4.286 -1.58l4.141 -3.744l3.03 -2.877l1.012 -0.961l5.243 -5.116l2.121 -2.067l4.021 -3.949l3.662 -3.596l1.911 -1.894l-5.571 -3.549l-7.609 -4.814l-0.356 -1.284l-1.405 -5.175l-0.75 -2.745l-0.478 -1.552l-5.727 -4.695l-2.244 -2.704l1.368 -1.917l-3.915 -10.957l0.292 -1.758l-1.561 -0.173l-6.919 -0.608l-5.335 -0.458l-4.583 3.647l-0.479 2.535l1.039 2.082l-1.834 3.248l0.33 4.164l-3.518 3.249l1.537 1.931l1.17 -1.511l4.497 2.102l-2.323 1.291l-2.088 0.489l-1.188 -0.444l-3.083 6.091l-1.699 5.191l0.667 3.162l-0.189 1.355l-0.353 1.407l1.304 6.208l-0.804 3.822l-3.764 0.536l-0.941 2.209l1.381 0.957l0.673 1.732l-0.221 1.33l-1.305 0.482l-1.209 1.997l-0.089 1.784z" />
  </g>
  <g data-id="121">
    <path d="m215.77 70.69l-0.813 1.485l1.945 0.159l0.039 -1.435l2.143 1.56l3.122 -1.934l1.801 4.451l-0.198 3.157l2.907 0.556l1.192 -2.671l1.497 2.388l2.316 1.605l-0.592 1.909l2.567 1.956l-0.384 -2.289l1.804 0.083l0.413 -1.156l4.116 -0.324l0.522 1.793l-1.232 -0.157l1.401 1.808l-0.014 2.953l0.622 1.184l-1.289 1.155l3.161 3.352l1.919 0.044l-0.235 1.885l1.366 0.889l-0.816 2.235l1.087 6.924l-1.104 0.133l0.742 2.255l1.131 0.298l1.456 -0.237l2.389 -3.71l2.899 0.469l2.897 -0.685l3.885 -4.454l1.602 1.561l2.171 -1.537l-0.202 -3.665l-5.884 -4.277l-2.782 -6.287l1.068 -2.896l1.142 0.021l-3.329 -8.022l-1.383 -5.653l-1.986 0.006l-1.197 -0.209l-2.031 0.391l-1.222 -2.117l0.161 -1.29l-0.485 -1.034l-0.372 -1.118l-1.332 -0.545l-1.501 0.21l-1.085 0.464l-1.014 -0.641l-1.287 -0.675l-1.354 -0.88l-1.218 0.294l-0.704 1.438l-1.067 1.039l-1.104 1.162l-1.448 -0.398l-1.197 0.852l-1.061 -0.167l-1.027 -0.964l-1.512 0.614l-1.726 1.452l-1.243 0.486l-1.995 0.31l-1.524 0.503l-1.243 0.729l-1.024 0.989l-1.072 0.335l-1.636 1.299z" />
  </g>
  <g data-id="123">
    <path d="m467.022 151.264l0.76 2.614l3.363 1.681l4.233 1.899l0.903 4.092l1.17 1.987l-0.405 1.872l3.547 2.2l1.246 2.02l-1.709 1.991l0.056 1.88l-1.813 3.056l0.164 1.913l-1.521 2.839l-0.476 4.41l0.833 2.65l2.37 2.441l1.888 6.308l-2.516 4.077l5.869 0.822l4.52 -2.945l3.804 0.135l5.75 -0.581l5.341 -3.056l1.707 0.914l2.626 -0.368l2.353 0.545l5.498 0.186l3.448 0.198l2.071 -0.894l2.355 0.589l3.539 2.437l3.139 -0.823l-1.502 -0.891l-3.098 -2.712l-2.024 -7.68l-2.794 -0.827l-1.603 -3.386l0.233 -3.51l-5.068 -20.921l-1.056 -3.223l-0.425 -4.954l-33.722 0.807l-6.537 0.113l-6.519 0.096z" />
  </g>
  <g data-id="125">
    <path d="m513.799 150.247l0.425 4.954l1.045 3.186l5.079 20.958l-0.233 3.51l1.603 3.386l2.794 0.827l2.024 7.68l3.098 2.712l1.372 0.356l0.682 2.565l2.294 1.379l1.779 2.28l-1.068 5.308l0.773 1.938l8.42 0.781l2.192 0.738l2.609 2.1l5.986 -7.004l7.922 -9.262l2.814 -1.57l3.301 -3.082l2.891 -1.054l1.374 -1.501l1.554 0.441l2.072 2.296l4.077 0.127l0.854 1.673l1.519 0.047l1.491 1.578l0.911 -1.183l0.587 1.358l2.31 -1.109l1.085 0.235l-0.076 -1.864l-6.072 -3.697l-1.47 -3.65l-3.232 -1.285l-3.303 -2.474l4.453 -5.395l-9.243 -5.275l-2.717 -7.629l-4.437 -3.138l0.112 -1.248l-3.595 -5.201l2.695 -3.921l-1.604 -2.771l-3.553 0.055l-17.836 0.316l-1.214 0.022l-19.635 0.396l-4.908 0.109z" />
  </g>
  <g data-id="127">
    <path d="m684.365 107.767l1.39 3.538l-0.764 2.598l3.484 2.531l1.562 3.381l1.556 0.029l1.145 -1.03l3.164 -0.879l6.77 -3.037l18.342 -8.895l1.772 -0.887l4.715 -1.849l3.287 1.686l1.838 -4.119l1 -2.347l4.572 -13.549l0.979 -3.952l3.377 -7.513l3.778 -7.263l0.33 -3.774l0.679 -1.477l-2.563 2.683l-3.189 -3.223l-2.397 1.512l-1.04 0.339l-2.806 -0.842l-0.359 1.585l-1.622 -0.893l-4.359 -0.567l-2.92 0.677l-1.663 -2.641l-2.47 -0.559l0.572 -2.046l-2.939 -1.546l-0.759 1.668l-1.878 -1.894l-1.264 2.625l-1.023 -1.971l-2.133 -1.832l-5.155 9.523l-13.465 25.038l-1.423 2.727l-8.05 16.241z" />
  </g>
  <g data-id="129">
    <path d="m709.895 312.586l0.278 1.655l2.284 -0.234l-1.117 3.906l3.34 3.345l2.924 3.929l0.033 4.723l0.53 1.689l-0.206 1.277l0.557 4.033l1.872 4.188l0.656 8.711l-0.148 4.139l-1.056 6.458l-0.756 1.328l1.277 5.761l1.042 -2.223l1.398 -3.599l4.217 -13.101l0.426 -1.05l3.678 -8.868l1.419 -2.982l7.293 -11.232l2.756 -3.768l2.733 -2.755l-2.627 -0.005l-1.441 -1.445l-4.54 -5.113l-2.587 -3.588l0.502 -2.04l-1.389 -1.015l-3.775 1.239l-2.645 1.916l-1.791 0.337l-0.404 -1.552l-2.159 0.045l-1.161 1.817l-1.316 -1.159l-1.959 0.19l-0.495 -1.944l-1.507 1.437l-1.291 0.039l0.974 1.795l-1.675 3.019l-1.08 0.185l-3.063 0.507z" />
  </g>
  <g data-id="131">
    <path d="m724.565 9.063l0.042 2.714l0.76 -1.083l5.623 1.256l2.877 0.357l3.195 1.301l1.704 1.335l3.544 0.256l1.342 -0.926l2.375 -0.084l3.219 1.108l4.149 -0.147l1.537 4.157l2.412 1.962l2.048 0.812l0.218 1.028l3.838 0.775l1.215 3.645l-0.282 2.529l-3.713 3.34l-0.652 2.04l1.615 3l3.416 1.515l5.191 -0.716l2.969 -1.793l3.06 -0.443l3.074 4.324l0.534 4.153l3.286 2.034l0.338 2.054l-1.019 2.942l4.019 3.078l2.55 -0.052l3.035 3.74l1.123 -0.446l-0.925 -1.826l0.166 -3.677l3.857 -1.325l3.979 -0.029l2.21 -3.985l1.971 -5.514l6.678 -20.953l-0.528 -2.881l1.61 -2.221l2.598 -1.105l0.951 1.03l2.827 -1.566l-0.878 -2.314l-1.265 -0.079l0.334 -1.615l-1.213 -0.947l-6.165 -0.95l-0.092 -1.286l-1.77 -1.708l-2.912 0.021l-1.69 0.222l-10.348 -0.022l-51.091 -0.11l-1.965 0.015l-11.387 0.086l-1.614 0.008l-1.965 0.01l-0.014 2.958z" />
  </g>
  <g data-id="133">
    <path d="m749.371 258.602l2.248 6.593l2.228 5.923l0.671 1.79l6.712 19.587l0.728 1.161l3.277 1.075l2.422 2.991l2.952 -2.136l3.258 -2.088l15.841 -8.792l9.199 -7.115l3.591 -2.402l3.737 -1.955l4.422 -1.869l3.235 -1.051l-0.564 -1.432l1.009 -1.101l0.72 -1.077l-0.804 -1.054l-0.473 -5.939l-1.475 -2.075l-0.386 -3.256l-1.613 -0.417l-2.938 -3.474l-3.416 -3.567l1.902 -2.603l-2.354 -0.461l-2.107 -6.052l-1.716 -1.241l-0.36 -1.875l-1.238 -0.019l-2.155 -3.5l-4.733 -1.649l-2.502 -0.225l-3.583 1.873l-0.39 2.324l-3.903 -2.139l-2.973 -1.626l-8.469 -4.629l-15.366 -2.041l-4.043 1.454l2.42 4.593l0.26 2.366l-2.435 14.801l-0.499 2.21l-0.337 10.118z" />
  </g>
  <g data-id="135">
    <path d="m570.18 94.986l1.226 0.902l0.884 3.607l2.7 0.334l10.033 1.202l1.926 0.22l4.241 0.475l7.416 -0.339l0.642 -4.561l0.797 -5.646l0.161 -1.133l0.157 -1.126l0.357 -2.524l1.023 -7.247l1.905 -13.496l0.363 -2.522l2.009 -14.232l-20.055 -0.31l-1.889 -0.031l-1.005 -0.016l-11.619 -0.218l-0.538 25.406l0 2.811l-0.072 2.469l-0.242 15.288z" />
  </g>
  <g data-id="137">
    <path d="m829.447 198.355l-1.947 1.374l2.051 3.321l3.233 1.526l1.085 0.19l-0.842 3.789l0.508 1.731l-0.235 2.103l-0.757 1.454l-1.389 0.152l17.346 11.83l18.24 -11.934l1.903 -1.395l1.015 0l1.522 -0.93l2.79 -3.41l1.649 -2.17l0.381 -1.085l1.268 -0.93l1.141 -2.636l0 -1.086l-0.381 -2.327l0.381 -1.086l1.649 -2.483l1.902 -2.018l1.141 -0.776l0.381 -1.087l0.127 -1.708l0.761 -1.087l1.775 -2.796l0 -2.175l-0.507 -2.486l-1.141 -2.642l-2.029 -1.088l-5.454 -0.933l-4.439 -0.621l-1.649 -0.466l-1.673 1.056l-0.154 3.975l0.753 2.878l-2.299 6.079l-24.026 2.661l-5.688 -5.226l-1.147 2.479l-2.991 0.782l-3.423 4.478l-0.832 4.721z" />
  </g>
  <g data-id="139">
    <path d="m883.487 10.876l-0.008 5.898l4.253 12.698l0.686 2.011l6.283 10.679l1.727 1.702l0.198 2.332l3.095 1.24l1.146 1.259l2.264 0.087l1.569 2.581l1.427 -0.249l1.958 4.815l2.172 0.681l0.698 1.264l1.235 0.665l0.987 1.663l2.404 2.929l3.151 1.969l9.747 -1.728l2.356 -0.613l1.399 -1.272l-0.697 -2.227l-1.654 -4.783l-4.033 -2.067l-3.795 -6.95l-2.47 -0.266l-1.956 -2.16l0.312 -1.632l-3.554 -0.906l1.737 -0.747l0.417 -1.834l1.907 -0.641l-1.212 -0.807l-2.418 0.179l-0.061 -2.064l-1.234 -0.677l-1.481 -3.525l-1.857 1.228l-0.472 -3.005l-3.684 -0.33l-1.207 -1.997l-2.352 -2.315l0.283 -1.25l-2.82 0.687l-2.467 -1.377l0.008 -1.14l-3.091 -2.131l-1.795 -0.25l-3.005 -1.615l-6.098 -6.011z" />
  </g>
  <g data-id="141">
    <path d="m682.557 284.322l1.989 2.461l-0.098 1.615l2.239 2.202l2.653 0.566l1.042 1.75l2.976 1.403l-8.979 9.013l2.302 3.385l2.901 0.912l0.839 2.014l4.534 -0.506l2.826 -2.01l5.02 2.642l1.609 1.66l5.486 1.157l2.948 -0.487l1.195 -0.205l1.675 -3.019l-0.974 -1.795l1.291 -0.039l1.507 -1.437l0.495 1.944l1.959 -0.19l1.316 1.159l1.161 -1.817l2.159 -0.045l0.404 1.552l1.791 -0.337l2.645 -1.916l3.775 -1.239l1.389 1.015l-0.502 2.04l2.587 3.588l4.5 4.99l1.481 1.568l2.627 0.005l3.237 -3.787l2.883 -2.927l3.006 -2.417l5.947 -5.598l2.864 -2.285l4.398 -3.182l-1.65 -2.31l-4.049 -1.756l-0.728 -1.161l-6.712 -19.587l-0.608 -1.628l-2.193 -5.83l-2.356 -6.113l-27.237 0.116l-1.857 -0.478l-2.042 1.095l-2.104 0.104l-1.982 -0.236l-2.297 -2.254l-2.064 1.048l-3.974 -0.394l-5.394 0.834l0.06 2.001l-4.857 3.863l-11.048 17.202l-2.007 2.084z" />
  </g>
  <g data-id="143">
    <path d="m874.245 46.404l-1.901 2.561l2.173 18.307l3.586 1.858l2.429 -0.395l2.968 1.747l1.2 -1.154l2.206 0.768l1.744 1.641l3.806 0.079l6.408 -1.553l2.02 0l1.544 0.22l2.198 -1.103l0.594 -1.176l-4.088 -1.355l-1.292 -1.413l-3.325 0.084l-9.045 -8.825l0.931 -1.249l6.128 4.09l2.249 3.499l4.925 0.672l7.321 3.982l2.97 0.882l2.495 0.441l2.808 -1.646l-4.153 -3.275l-2.129 -4.356l-1.826 -1.397l-1.513 -1.836l-1.543 -5.39l-1.427 0.249l-1.569 -2.581l-2.264 -0.087l-1.146 -1.259l-3.095 -1.24l-0.198 -2.332l-1.727 -1.702l-6.283 -10.679l-0.686 -2.011l-9.643 2.916l-2.021 0.334l-0.558 4.666l-0.758 1.724l0.352 2.279l-0.86 5.013z" />
  </g>
  <g data-id="145">
    <path d="m583.07 48.544l1.005 0.016l1.18 0.019l20.764 0.322l16.728 0.493l0.845 -40.731l-0.161 -2.145l-13.344 -0.036l-3.099 -0.02l-3.224 -0.006l-17.393 0.082l-1.489 -0.024l-1.813 42.029z" />
  </g>
  <g data-id="147">
    <path d="m747.041 130.713l1.316 0.375l0.835 2.614l2.164 1.598l5.875 7.173l1.955 0.473l2.506 2.122l1.186 2.129l3.984 0.742l0.127 1.331l2.099 0.04l-0.734 2.829l1.994 2.829l0.164 2.21l1.796 2.224l0.139 2.597l1.363 3.742l1.38 0.774l0.343 3.113l1.646 0.468l0.833 2.578l2.044 -0.529l1.851 1.101l4.414 2.441l6.394 -7.114l3 1.385l1.043 2.426l2.494 -1.373l-0.041 -1.209l0.093 -1.052l1.038 -2.964l1.173 -0.324l1.243 0.375l1.361 -1.548l0.643 -1.141l-0.239 -2.307l1.962 -2.987l-0.264 -8.621l5.504 -4.846l3 0.32l1.815 -0.18l-0.74 -2.295l-2.163 -0.046l0.063 -1.872l-1.761 -0.213l0.405 -1.046l-3.254 -1.464l0.944 -2.1l-3.427 -2.946l-0.529 -4.203l1.169 -0.452l-0.311 -1.627l-2.925 -2.145l1.136 -2.77l1.743 0.093l-0.422 -1.916l-4.834 -3.811l-4.845 -0.692l0.518 -2.938l-3.455 -1.473l-7.282 -3.101l-4.489 -1.925l-2.196 0.927l-1.791 2.926l-2.324 -0.467l-2.956 1.062l-4.879 5.439l-1.775 1.176l-7.02 4.976l-7.025 5.193l-1.059 0.752l-4.012 3.144z" />
  </g>
  <g data-id="149">
    <path d="m221.981 187.206l0.366 2.631l-0.282 4.575l1.027 -0.123l1.199 0.34l1.194 0.811l1.826 -1.135l1.333 -0.27l1.449 -0.676l2.821 0.169l3.001 0.256l1.658 0.102l2.339 0.151l1.125 0.082l2.013 0.091l3.241 0.08l3.708 0.223l1.861 0.112l4.646 0.142l5.301 0.162l3.619 0.175l-0.173 -3.363l0.645 -1.596l-0.058 -1.095l0.039 -1.857l-0.39 -1.832l-3.039 -1.776l-0.615 -1.713l-3.199 -2.556l-3.088 -4.901l-2.278 -0.695l-0.292 -1.522l-3.159 -3.889l-2.432 -2.182l-2.7 -1.553l-2.096 -0.102l-1.516 1.688l-2.189 -0.97l-2.512 1.129l-1.388 -0.98l-2.504 1.295l-2.228 3.755l-2.732 4.624l-0.583 2.478l-1.946 0.8l-2.163 4.036l-0.299 4.626z" />
  </g>
  <g data-id="151">
    <path d="m480.325 142.929l-0.247 8.126l33.722 -0.807l4.908 -0.109l19.028 -0.384l0.792 -21.908l0.049 -1.055l0.668 -22.632l0.062 -6.092l0.017 -1.782l-6.365 -0.321l-12.985 -0.645l-5.65 -0.286l-22.334 -1.194l-1.244 -0.056l-8.415 -0.402l-0.201 5.136l-0.539 11.437l-0.202 4.335l-0.084 1.843l-0.968 26.449z" />
  </g>
  <g data-id="153">
    <path d="m479.116 201.194l0.966 4.407l3.058 1.317l1.893 1.591l3.382 0.614l1.936 -2.397l3.346 -2.154l2.499 0.436l1.245 2.524l0.446 4.159l2.864 2.101l0.722 2.262l-1.755 1.503l-0.738 2.855l3.628 2.949l0.375 1.109l-0.999 2.942l2.602 5.708l0.104 1.204l-1.617 2.769l-1.932 2.157l-2.574 1.685l-1.218 4.897l-1.541 1.7l4.059 0.102l2.341 0.059l10.954 -0.076l3.236 0.034l5.864 0.098l4.39 -1.387l2.196 -1.433l2.316 1.4l-1.002 -1.582l0.628 -1.713l-1.037 -1.787l1.191 -1.876l6.109 -6.11l-0.737 -2.36l-1.505 -1.093l-0.429 -2.686l1.208 -2.633l0.158 -2.497l6.763 -4.466l6.175 -2.619l-2.609 -2.1l-2.192 -0.738l-8.42 -0.781l-0.773 -1.938l1.068 -5.308l-1.779 -2.28l-2.294 -1.379l-0.552 -2.03l-3.139 0.823l-3.539 -2.437l-2.355 -0.589l-2.071 0.894l-3.08 -0.428l-5.866 0.044l-2.353 -0.545l-2.626 0.368l-1.707 -0.914l-5.341 3.056l-5.152 -0.339l-4.402 0.785l-4.019 2.514l-6.37 -0.391z" />
  </g>
  <g data-id="155">
    <path d="m548.369 271.725l1.301 1.271l10.348 10.371l3.045 3.217l2.783 2.936l2.251 2.431l4.168 4.501l3.81 3.919l1.919 1.973l5.359 5.461l9.052 9.214l2.073 -2.093l3.124 -5.103l1.613 -0.024l1.044 -1.55l-1.101 -2.401l1.462 -1.372l3.389 -0.826l-0.314 -4.148l1.261 -2.081l2.782 -1.707l2.063 0.258l2.396 -1.209l3.032 -3.102l0.626 -1.815l1.923 -0.292l0.218 -1.085l-1.377 -2.197l-0.567 -5.402l2.037 -2.041l1.376 -4.476l-0.34 -1.433l1.776 -3.865l0.066 -1.996l1.398 -3.414l-1.771 -2.762l-1.828 -1.154l-1.891 -2.472l-1.762 -5.898l-1.793 -4.451l-1.817 -3.323l-2.841 -4.054l0.452 -1.744l-1.994 -3.569l-1.595 -1.37l-9.451 -5.42l-2.679 2.543l-11.758 11.174l-2.785 2.652l-17.655 -0.665l-0.492 1.714l2.394 7.098l-14.73 19.779z" />
  </g>
  <g data-id="157">
    <path d="m483.657 46.374l18.923 0.784l9.416 0.433l3.851 0.159l5.557 0.23l18.972 0.62l0.061 -1.148l2.055 -40.8l-17.283 -0.142l-5.417 -0.032l-19.454 -0.117l-1.963 0.056l-1.74 -0.001l-5.291 -0.004l-2.849 -0.004l-3.953 0.001l-0.67 30.152l-0.143 6.534l-0.035 1.577l-0.038 1.703z" />
  </g>
  <g data-id="159">
    <path d="m400.614 127.778l3.106 15.805l0.757 4.731l-0.053 2.72l2.342 0.022l4.642 -0.12l6.433 0.2l1.045 0.044l7.3 0.258l5.36 0.044l22.743 -0.049l12.734 -0.171l-3.073 -6.67l0.139 -3.932l-2.542 -2.137l-2.175 -3.244l-4.32 -2.26l-2.219 -4.337l-2.644 -1.887l0.302 -4.754l-4.969 -0.268l-5.653 -1.282l-2.281 -1.293l-1.109 0.082l-0.632 -1.175l-2.131 -4.367l-1.929 -0.988l-1.012 0.029l-1.907 -0.427l-1.511 -0.257l-1.053 -0.894l-1.143 -1.007l-0.97 -1.39l-2.475 -1.723l-5.297 -3.203l-4.576 -0.196l0.351 -1.216l-2.629 -1.118l-1.793 1.516l-1.259 4.31l-5.899 20.605z" />
  </g>
  <g data-id="161">
    <path d="m230.312 159.726l1.166 5.887l1.007 1.017l2.504 -1.295l1.388 0.98l2.512 -1.129l2.189 0.97l1.516 -1.688l2.096 0.102l2.7 1.553l2.432 2.182l3.159 3.889l0.292 1.522l2.278 0.695l3.088 4.901l3.199 2.556l0.615 1.713l3.039 1.776l0.555 1.149l-0.204 2.54l0.058 1.095l-0.645 1.596l0.173 3.363l4.934 0.238l5.746 0.191l8.192 0.376l3.354 0.122l1.446 -5.818l6.396 -18.613l1.226 -30.856l-1.5 -0.15l-1.369 -3.259l-2.231 0.366l-1.829 -1.612l-2.118 2.909l-2.765 1.226l-2.886 0.465l-2.279 5.294l-3.902 0.026l-3.148 0.022l-7.07 2.206l-3.967 -3.583l-2.941 2.2l-1.24 0.454l-2.648 -0.053l-3.662 0.197l-6.18 1.894l-2.089 -1.36l-5.133 0.947l-1.916 0.143l0.811 3.004l-3.166 5.142l-1.512 -0.922l-1.667 3.428z" />
  </g>
  <g data-id="163">
    <path d="m637.597 208.175l0.875 2l0.516 4.958l1.51 4.628l-0.23 2.224l3.626 4.052l4.746 3.485l1.696 3.046l1.323 -0.065l-0.163 1.858l3.928 2.992l-0.046 1.583l2.076 1.775l0.141 1.813l2.707 1.738l2.223 2.316l1.446 4.031l1.868 2.513l1.205 0.115l1.233 2.051l0.768 1.214l0.008 1.605l2.517 4.028l2.581 1.377l0.906 2.1l1.709 1.265l-0.116 2.188l1.334 0.837l-0.141 1.436l1.213 4.47l4.209 2.322l1.603 2.955l-0.306 1.154l11.048 -17.202l4.857 -3.863l-0.06 -2.001l-2.393 1.59l-3.388 -2.438l-3.768 -1.876l5.812 -22.109l-0.912 -15.367l-0.521 -9.052l-1.355 -1.892l0.996 -6.033l-0.046 -7.239l0.178 -2.017l-8.33 -2.623l-1.211 -0.396l-6.79 -8.486l-2.261 0.765l-8.022 2.64l-1.042 0.759l-1.286 0.302l-3.588 -0.462l-1.733 -0.232l-2.975 -0.416l-2.022 -2.535l-1.405 -1.86l-0.494 -1.092l-1.252 -1.758l-5.156 2.621l-0.134 3.244l-3.665 3.832l0.008 2.391l-1.614 2.052l0.789 1.301l-2.483 1.008l1.204 0.689l-0.352 1.33l1.051 1.499l-1.033 0.732l0.444 3.556l-2.008 2.636l1.474 0.723l-1.635 1.115l-1.889 2.099z" />
  </g>
  <g data-id="165">
    <path d="m522.263 247.749l1.991 0.031l4.635 4.634l8.183 8.103l3.295 3.245l1.379 1.375l3.392 3.362l1.229 1.259l0.869 1.021l1.132 0.946l14.73 -19.779l-2.974 -6.13l0.924 -2.672l1.302 -1.955l-1.265 -4.778l-0.482 -7.815l-2.862 -4.326l-2.257 -2.694l-2.173 -1.309l-1.532 -2.122l-2.046 -0.958l-0.873 -1.443l-6.35 1.781l-6.763 4.466l0.399 2.132l-1.765 2.998l0.429 2.686l1.505 1.093l0.737 2.36l-6.109 6.11l-1.191 1.876l1.037 1.787l-0.628 1.713l1.002 1.582l-2.316 -1.4l-2.196 1.433l-3.876 0.512z" />
  </g>
  <g data-id="167">
    <path d="m430.51 194.381l0.134 1.028l2.69 0.679l1.462 1.847l3.195 0.78l1.317 -0.902l4.498 0.237l2.229 -1.824l1.308 1.951l3.933 -1.118l2.868 -2.808l2.242 -0.323l2.574 -2.144l1.345 4.098l1.929 3.496l2.017 -0.046l1.377 -1.215l0.483 1.358l2.01 1.061l1.463 -0.459l-0.624 -1.878l1.296 -1.402l1.992 1.03l1.326 -1.307l-0.516 -1.467l1.851 -0.87l0.587 2.791l1.594 1.344l2.026 2.876l2.516 -4.077l-1.888 -6.308l-2.37 -2.441l-0.833 -2.65l0.476 -4.41l1.521 -2.839l-0.164 -1.913l1.813 -3.056l-0.056 -1.88l1.709 -1.991l-1.246 -2.02l-3.547 -2.2l0.405 -1.872l-1.17 -1.987l-0.903 -4.092l-3.599 -2.153l-3.997 -1.427l-0.76 -2.614l-12.734 0.171l-21.317 39.643l-2.461 3.303z" />
  </g>
  <g data-id="169">
    <path d="m437.964 5.266l-1.308 40.532l8.816 0.087l38.185 0.517l0.038 -1.731l0.035 -1.577l0.143 -6.534l0.662 -30.152l-2.947 -0.006l-7.754 -0.015l-5.343 -0.076l-6.304 -0.078l-7.879 -0.032l-15.385 -0.877z" />
  </g>
  <g data-id="171">
    <path d="m377.767 18.903l2.985 4.824l-2.253 2.391l1.351 1.04l-0.131 1.238l1.603 1.705l1.279 0.976l2.822 0.776l1.482 2.865l2.697 1.989l-0.503 12.616l7.317 -2.523l2.856 0.131l1.522 -3.039l2.006 1.643l1.125 -2.018l0.882 1.437l5.413 -0.181l2.008 2.502l2.312 -0.892l0.535 -2.146l1.634 -0.054l0.481 -1.93l3.497 2.376l1.526 -1.102l3.58 -1.078l1.238 0.764l0.322 3.002l5.83 0.333l1.78 -0.517l1.625 2.574l0.071 -2.81l1.308 -40.532l-7.992 -0.419l-11.409 -0.598l-1.436 -0.075l-3.222 -0.114l-1.169 -0.088l-4.64 -0.348l-2.879 -0.004l-4.887 0.287l-3.414 -0.071l-3.742 0.233l-7.285 -0.365l-1.91 3.005l-0.936 5.489l-5.275 6.705z" />
  </g>
  <g data-id="173">
    <path d="m42.025 157.22l1.125 1.74l1.322 -0.284l1.537 -1.996l4.545 0.643l1.04 1.676l2.22 -0.666l4.309 1.149l0.347 -1.422l3.29 1.609l1.945 0.245l2.861 -0.761l8.347 2.068l1.453 0.032l0.177 -1.546l2.793 0.981l0.889 1.256l2.827 -1.078l0.361 3.37l-1.691 5.405l-2.674 3.64l-4.429 1.314l-3.401 2.583l-0.53 2.684l1.718 2.493l18.836 -2.533l2.99 -1.051l1.727 1.11l4.39 -3.841l2.449 1.193l1.262 -1.551l3.987 0.246l2.778 -0.691l0.914 -3.218l-1.087 -5.966l-2.207 -1.998l-0.342 -2.054l1.355 -5.74l1.816 -0.917l1.95 1.309l1.062 -1.948l2.669 -1.327l0.424 -1.401l5.127 -3.542l2.237 -0.2l3.376 1.613l1.344 -0.973l0.316 -2.254l1.78 -2.077l-1.256 -3.616l-1.709 -0.811l-0.385 -1.906l1.076 -1.968l0.012 -2.089l-2.984 -3.159l2.296 -2.927l-2.898 -1.427l-0.817 -1.46l-4.592 -0.549l-1.104 1.184l-1.139 1.121l-1.544 0.688l-0.215 1.025l-0.685 1.303l-1.504 0.458l-1.198 -1.162l-1.564 -0.369l-1.388 0.694l-0.915 1.129l-1.305 1.89l-1.112 0.29l-1.347 0.424l-0.443 1.178l-1.231 0.525l-1.895 1.089l-1.346 0.49l-1.004 -0.25l-1.268 1.224l-1.156 1.432l-1.127 0.483l-0.661 1.377l-0.79 1.525l-1.445 0.724l-2.17 0.015l-1.874 -0.249l-2.031 0.045l-1.571 -0.228l-1.157 0.274l-1.043 0.149l-0.98 -1.383l-1.189 -0.891l-1.186 0.738l-1.627 0.851l-1.214 0.252l-1.428 -0.31l-1.106 -0.115l-1.145 0.023l-1.248 0.018l-1.543 0.069l-1.057 -0.026l-1.533 0.719l-1.371 0.027l-1.912 0.278l-1.103 -0.187l-1.36 0.052l-0.947 1.627l-2.517 1.22l-0.83 1.009l-1.782 1.453l-1.648 0.314l-1.545 0.069l-1.412 0.02l-1.541 0.3l-1.354 2.171l-1.05 0.906l-0.477 1.039l-0.412 1.295l-1.162 0.88l-1.148 0.005l-1.402 0.842z" />
  </g>
  <g data-id="175">
    <path d="m144.07 210.291l-1.348 3.212l1.997 0.788l0.759 1.43l2.684 1.399l12.543 -3.92l9.899 -3.133l2.471 -0.865l1.04 0.2l-0.052 1.365l0.196 1.314l1.457 -0.556l1.163 -0.2l0.527 -1.221l1.254 -0.133l0.981 -1.155l1.043 -0.749l1.499 -0.452l1.382 -0.265l0.727 -1.089l-0.309 -1.155l0.581 -1.354l1.035 -0.111l0.818 1l1.326 -0.178l1.034 -1.018l1.182 -0.182l1.036 0.267l0.885 -1.17l1.294 -0.607l1.305 0.18l1.126 -0.718l1.112 0.113l-1.483 -3.141l-1.411 -7.859l-0.034 -5.132l-1.346 -0.18l0.678 -3.863l-1.022 -2.144l-3.147 -3.459l-11.057 -13.041l-0.054 2.163l-3.263 1.943l-1.76 2.639l-1.69 3.634l-2.991 4.063l-5.013 0.548l-2 1.01l-1.247 0.784l-1.81 1.329l0.185 2.891l-0.902 4.672l-0.979 1.719l-2.703 1.339l-1.009 2.841l-2.044 0.96l0.644 2.76l-1.739 0.561l0.205 1.388l1.569 0.713l-0.261 2.267l-4.267 5.005l-2.698 2.552z" />
  </g>
  <g data-id="177">
    <path d="m893.16 112.091l-0.042 12.332l15.426 0.948l-3.233 11.366l1.327 0.603l7.99 0.888l2.197 -3.049l-0.328 -1.931l0.694 -1.712l1.665 -1.279l-0.443 -1.38l1.34 -1.143l-0.672 -2.355l0.65 -1.073l2.871 -0.565l1.439 1.433l1.538 0.037l-0.271 1.194l3.164 1.882l3.558 -0.758l1.879 1.409l0.909 -3.509l-1.176 -3.834l-0.414 -12.341l-1.435 -6.505l2.943 -5.079l2.568 -4.295l-0.631 -1.852l0.653 -3.229l-1.128 -1.908l-4.277 -3.083l-2.376 0.441l-1.192 -0.44l-9.352 -0.037l-4.218 0.734l-6.594 2.129l-5.109 3.596l-2.554 0.514l-2.554 0.147l-0.534 1.7l-1.388 2.136l1.169 4.378l1.816 3.054l-5.872 10.437z" />
  </g>
  <g data-id="179">
    <path d="m392.802 220.693l2.124 3.022l1.667 2.264l2.791 3.781l-0.505 4.608l-0.969 8.841l-0.213 1.942l2.175 0.574l5.728 0.059l4.837 0.05l1.47 0.015l2.757 0.028l2.315 0.051l7.262 0.101l6.986 0.03l1.642 0.073l3.788 0.046l1.898 0.059l1.009 0.022l1.003 0.041l1.934 0.052l5.619 0.091l3.301 0.053l2.402 -25.482l0.252 -2.672l2.308 -24.414l-2.242 0.323l-2.868 2.808l-3.933 1.118l-1.308 -1.951l-2.229 1.824l-4.498 -0.237l-1.317 0.902l-3.195 -0.78l-1.462 -1.847l-2.734 -0.554l-5.024 -3.325l-1.853 1.755l-3.77 3.703l-3.928 3.857l-2.214 2.159l-4.718 4.605l-1.48 1.417l-3.087 2.932l-3.508 3.284l-4.169 1.176l-1.862 1.436l-2.186 2.161z" />
  </g>
  <g data-id="181">
    <path d="m655.591 18.716l0.227 26.496l0.099 11.576l1.322 1.08l1.227 -0.022l7.205 1.544l1.104 -0.739l3.831 -9.154l4.514 0.086l3.517 -4.441l3.362 -5.591l-5.283 -33.327l-12.675 0.16l-2.328 0.027l-1.798 2.983l-2.807 0.948l-0.355 3.863l-1.162 4.511z" />
  </g>
  <g data-id="183">
    <path d="m602.349 131.826l-1.347 4.739l9.063 3.672l7.682 2.992l1.049 0.408l9.254 3.608l1.11 0.42l4.129 1.476l1.618 -1.453l1.314 -1.235l2.155 -2.068l2.383 -2.261l19.064 -18.249l1.538 -0.575l15.255 -10.145l6.745 -4.69l1.006 -0.699l0.276 -1.423l-1.813 -2.419l-1.635 -4.119l-2.605 -3.086l-1.379 0.308l-3.562 -2.273l-0.234 -2.816l-4.632 -0.811l-3.671 -5.315l-6.828 -3.51l-6.66 -3.019l-15.435 -7.348l-4.013 -0.2l-3.665 0.71l-0.34 2.023l0.029 1.19l0.047 2.292l3.798 0.25l1.547 2.571l-1.333 7.115l-1.098 1.499l-1.572 2.156l-1.02 0.286l-0.79 1.351l-4.987 -0.67l-1.393 3.102l-1.583 4.711l-7.226 0.414l-1.542 -0.027l-0.378 3.502l-0.996 3.109l-0.517 1.458l-0.909 2.19l-0.607 3.126l-1.209 4.245l-3.396 11.143l-0.667 2.297z" />
  </g>
  <g data-id="185">
    <path d="m676.725 6.224l5.274 33.327l-3.362 5.591l9.261 1.349l3.452 1.359l2.443 -1.187l1.765 1.526l2.725 -0.268l0.924 2.893l2.419 2.32l3.603 -1.023l2.946 0.139l4.355 1.783l5.092 -9.39l1.884 -3.437l0.803 -2.683l2.893 -9.66l0.307 -12.829l1.097 -4.255l-0.034 -2.157l0.006 -3.515l-15.702 0.069l-10.602 0.051l-12.698 -0.084l-8.852 0.085z" />
  </g>
  <g data-id="187">
    <path d="m843.329 121.31l0.298 1.982l23.311 0.07l10.424 0.018l15.756 1.043l0.042 -12.332l5.872 -10.437l-1.816 -3.054l-1.169 -4.378l1.388 -2.136l0.281 -2.048l-1.826 -2.513l-0.059 -1.248l-0.891 -1.174l-7.989 1.358l-1.485 1.321l-2.614 0.807l-1.188 0.734l-2.376 0.807l-6.594 0.293l-1.901 0.293l-6 0.66l-1.188 0.22l-2.733 -1.541l-1.136 3.035l-2.049 0.77l-1.304 4.135l-1.565 2.332l-1.713 0.827l-1.896 0.981l-1.335 2.746l0.816 1.549l-2.3 3.081l1.065 2.077l-1.278 1.106l-1.438 4.605l-1.612 2.52l-1.798 1.49z" />
  </g>
  <g data-id="189">
    <path d="m272.332 40.128l-1.125 2.086l2.292 1.347l0.088 4.834l-1.575 2.019l0.812 2.846l2.075 2.616l3.186 -0.591l2.426 3.52l1 0.651l1.836 7.31l15.297 -1.542l1.745 0.58l12.859 0.129l5.087 -3.497l5.033 -8.096l-0.708 -1.077l-0.409 -2.651l-1.334 -1.84l-8.43 -5.057l-1.592 0.586l-2.212 -3.729l-5.893 -7.109l-10.414 -5.717l-0.028 1.046l-0.05 1.244l0.805 1.369l0.153 1.331l1.681 1.232l0.205 1.052l-1.265 0.326l-1.555 -0.703l-1.522 0.477l-1.123 0.103l-1.318 -0.207l-1.339 -1.093l-1.072 -0.333l-0.88 -1.284l-1.465 0.523l-1.607 0.743l-1.208 0.207l-1.403 0.978l-1.319 0.781l-1.918 2.184l-1.456 1.399l-1.18 0.244l-1.177 0.761z" />
  </g>
  <g data-id="191">
    <path d="m680.584 177.437l-1.903 3.798l6.79 8.486l1.029 0.411l8.512 2.608l-0.178 2.017l9.707 2.013l1.654 -1.072l4.775 -1.518l4.077 1.383l2.668 2.548l3.205 -0.989l2.4 1.185l2.114 2.442l0.955 -2.213l5.583 -2.138l0.541 -10.947l0.595 -11.986l0.549 -1.123l1.545 -2.469l0.639 -1.804l-0.629 -3.417l-2.393 -2.296l0.438 -20.515l0.039 -1.84l-1.491 -0.141l-4.29 0.022l-4.974 0.03l-9.083 0.06l-6.731 -1.694l-0.765 1.74l-3.15 7.192l-1.464 3.35l-0.452 1.033l-5.102 11.632l0.14 3.575l1.068 0.705l-2.058 2.721l0.286 1.478l-4.253 2.277l-2.137 0.112l-2.881 2.672l-1.654 -0.778l-2.296 1.454l-1.423 -0.002z" />
  </g>
  <g data-id="193">
    <path d="m313.248 65.933l3.308 2.803l6.475 0.841l1.581 2.688l2.327 -0.791l2.054 1.426l1.859 2.435l-0.749 1.311l1.754 -0.191l4.05 2.393l1.843 3.956l3.036 -1.075l4.267 -3.003l2.168 0.138l2.825 -0.697l3.279 -1.031l2.664 1.611l3.296 -1.501l3.67 0.128l0.769 1.024l4.574 -0.473l1.023 -1.33l2.22 -0.638l5.998 -1.836l1.567 0.123l1.46 0.116l4.19 0.105l3.397 0.088l0.946 -25.232l0.503 -12.616l-2.697 -1.989l-1.482 -2.865l-2.386 -0.706l-1.715 -1.046l-1.094 -1.386l-0.378 -1.557l-1.351 -1.04l-1.597 3.578l-1.021 -0.261l-2.624 0.992l-1.475 -0.27l-1.929 -2.821l-0.054 -2.487l-3.782 -0.945l-1.954 -3.221l-3.756 2.086l-1.111 1.882l-2.788 -2.809l-2.967 4.65l-3.488 3.048l-2.635 1.618l-1.105 -0.087l-0.678 1.452l-2.559 0.241l-1.04 -1.378l-1.722 0.001l-1.658 -0.739l-1.286 -0.148l-1.193 -0.07l-2.124 0.917l-0.119 7.208l-0.377 1.25l0.002 1.491l-2.477 1.258l-2.909 -1.407l0.029 1.891l-3.261 2.991l-2.468 0.414l-1.457 2.327l1.334 1.84l0.41 2.557l0.707 1.171l-5.033 8.096l-5.087 3.497z" />
  </g>
  <g data-id="195">
    <path d="m692.74 118.812l-1.145 1.03l2.74 2.396l0.732 2.105l1.127 4.02l2.718 8.613l1.311 0.936l4.945 1.816l1.557 -1.451l6.731 1.694l8.589 -0.057l5.468 -0.033l4.29 -0.022l1.383 0.112l1.938 0.299l11.914 -9.557l3.434 -2.765l-0.517 -2.347l-2.051 -2.273l-2.868 -3.246l-0.555 -1.905l-1.385 -4.755l-1.772 -7.104l-8.699 -5.486l-1.838 4.119l-3.287 -1.686l-4.715 1.849l-1.772 0.887l-18.185 8.821l-6.156 2.9l-3.935 1.09z" />
  </g>
  <g data-id="197">
    <path d="m389.099 49.323l-0.946 25.232l14.404 0.415l2.38 0.072l1.467 0.044l3.003 0.092l9.378 0.433l12.839 0.224l-1.383 -1.592l-0.822 -4.831l1.162 -2.317l5.771 -1.813l1.724 -2.488l0.171 -4.594l-0.632 -1.531l-0.259 -3.723l1.447 -1.197l-0.537 -1.518l-1.681 -1.622l-1.625 -2.574l-1.78 0.517l-5.83 -0.333l-0.322 -3.002l-1.238 -0.764l-3.58 1.078l-1.526 1.102l-3.497 -2.376l-0.481 1.93l-1.634 0.054l-0.535 2.146l-2.312 0.892l-2.008 -2.502l-5.413 0.181l-0.882 -1.437l-1.125 2.018l-2.006 -1.643l-1.522 3.039l-2.856 -0.131l-7.317 2.523z" />
  </g>
  <g data-id="199">
    <path d="m204.947 85.44l1.035 2.932l1.818 1.175l-2.082 2.511l0.924 1.251l-0.499 1.634l2.257 0.033l2.349 1.306l1.661 2.876l2.446 2.765l-0.235 2.231l1.245 3.501l5.277 -0.402l2.655 3.467l-0.89 1.387l1.257 5.115l2.481 2.195l3.197 1.123l0.574 1.038l0.48 1.893l1.981 0.776l1.701 -1.889l5.569 -3.178l3.213 -4.873l-0.334 -2.611l3.882 -4.754l-1.131 -0.298l-0.742 -2.255l1.104 -0.133l-1.087 -6.924l0.816 -2.235l-1.366 -0.889l0.235 -1.885l-1.919 -0.044l-3.161 -3.352l1.289 -1.155l-0.622 -1.184l0.014 -2.953l-1.401 -1.808l1.232 0.157l-0.522 -1.793l-4.116 0.324l-0.413 1.156l-1.804 -0.083l0.384 2.289l-2.567 -1.956l0.592 -1.909l-2.316 -1.605l-1.497 -2.388l-1.192 2.671l-2.907 -0.556l0.198 -3.157l-1.801 -4.451l-3.122 1.934l-2.143 -1.56l-0.039 1.435l-1.945 -0.159l-4.964 9.065l-1.527 1.074l-1.05 0.534l-1.885 1.913z" />
  </g>
</svg>
