<?xml version="1.0" encoding="UTF-8"?><!DOCTYPE svg PUBLIC '-//W3C//DTD SVG 1.1//EN' 'http://www.w3.org/Graphics/SVG/1.1/DTD/svg11.dtd'><svg viewBox="0 0 1000 441.181" xmlns="http://www.w3.org/2000/svg"><path data-id="21001" d="m531.7 340.6l0.5 6.9l2.5 9.8l8.1 8.8l-1.3 2.6l28.9 2.1l3.4 -11.8l5.2 -6l10.1 -15.2l6.1 -10l-1.3 -1.8l-0.4 -10l-7.3 -4.1l-7 -4.7l-3.1 0.6l0.6 1.8l-1.1 3.9l-4.1 1.6l-3.3 -0.3l-3.1 0.7l-2.8 2.4l-2.4 -0.1l0.6 3.1l-1.2 0.6l-4.7 5.2l-3.6 4l-7 3.9l-12.2 5.8z"/><path data-id="21003" d="m414.5 411.9l1 4.2l4.8 0.1l2.1 -0.1l3.4 0.2l5.2 0.6l9.4 0.7l2.2 0.1l1.1 0.1l15.2 0.9l5.8 0.5l8.2 0.4l3.3 -3.7l0.2 -1.7l-3.6 -10l-0.8 -3.1l-2.6 -2.8l-3.7 -0.9l-2.9 -1.8l2.3 -0.7l-0.5 -1.8l-1.7 -0.7l0.7 -2l-3 0.3l0.5 -2.8l1.2 -0.9l-2.8 -4.3l0.1 -6.2l1.6 -1.1l-4.2 -0.3l-1.5 2.9l1 3.1l-1.1 -0.7l-2 -4.5l-2.2 0.5l0.9 -1.7l-1 -1.8l0.7 -3.1l-1.9 0.9l0.2 2.5l-1.2 0.8l-2.5 -1.3l2.1 -1.6l-0.8 -1.6l-2.9 2l-2 -2l-0.4 4.2l-3.8 1.7l-4.3 0.9l0.7 1.3l-0.2 1.3l-1.4 1.8l-7.3 6.2l-9.8 8.4l-1 6.2l0.7 2.9l-1.4 7.3z"/><path data-id="21005" d="m578.8 193.3l0.2 4.4l2 12.4l1.9 1l1.5 -4.2l2.7 1.3l-0.1 2.6l5.1 1.3l2.2 -1.9l2.7 0.9l0.4 1.2l2.6 -1.1l1 -2.7l1.7 0.2l1.8 -5l5.3 -3.1l4.7 1.1l1.8 1.3l11.5 -5l-2.9 -0.6l-0.7 -1.3l0.8 -3.1l-2.6 -1.2l0.9 -2.7l-2.6 -4.1l2.7 -0.7l0.3 -1.4l-2 -1.4l2 -2.5l-0.5 -1.6l-1.5 -1.1l-1.8 1.6l-1.2 -1l0 -3.4l-3 3.3l-1.9 0.6l-7.3 -2.7l-1.2 -1.6l-7.4 -1.6l-2.1 1.6l-2 5.9l0.9 2l-3.1 2.4l-1.6 2.8l-2.4 0.6l-3.3 2.8l-0.6 4.1l-5 -0.3z"/><path data-id="21007" d="m51.3 351l-0.1 1.5l0.2 1.7l0.2 1l0.7 1.6l0.9 1.3l3.7 3l1.2 0.3l1.4 0.3l1.1 0.9l0.9 1.1l0.5 1.3l-0.3 2.9l1.2 0l1.5 4.7l2.2 -1.3l0.2 -2.1l1.6 1.6l3.1 0.4l1.7 -1.1l3.3 1.8l10.1 -3.7l7.9 -1.7l4.8 -0.3l-0.8 -2.2l-6.2 -18l-8.3 -24l-1.3 -1.1l-3.2 -0.2l-2.2 0.2l-2.3 0.7l-1 0.6l-2.9 1.5l-1 1.2l-2.7 2.5l-2.4 2.3l-1.4 1.6l-0.8 1.5l-0.4 1l-0.4 1.6l-1.6 3.6l-1.2 0.9l-1.9 1.7l-0.4 1.1l-1.1 1l-1 0.3l-1.8 2.4l-0.5 1l-0.5 1l-0.5 1.5l-0.3 1.1z"/><path data-id="21009" d="m448.4 371.1l-2.1 1.6l2.5 1.3l1.2 -0.8l-0.2 -2.5l1.9 -0.9l-0.7 3.1l1 1.8l-0.9 1.7l2.2 -0.5l2 4.5l1.1 0.7l-1 -3.1l1.5 -2.9l4.2 0.3l-1.6 1.1l-0.1 6.2l2.8 4.3l-1.2 0.9l-0.5 2.8l3 -0.3l-0.7 2l1.7 0.7l0.5 1.8l-2.3 0.7l2 2.5l4.6 0.2l2.6 2.8l0.8 3.1l22.3 -16.2l4.6 -2.4l4.3 -0.8l-1.5 -27l-0.7 -3.4l-0.5 -6.9l0.4 -6.8l-2.1 0l-0.7 -4.7l2.3 -2l2 -3.2l-7.6 1.1l-7.2 2l-6.5 0.5l-11.3 -1.4l-8.4 -1.7l-2.3 18.8l-5.2 -1.3l-3.7 11.1l-3.3 9.9l0.8 1.6z"/><path data-id="21011" d="m735.4 160.9l-0.2 2.6l1.8 1l-1.2 2l12.3 3.7l8 9.3l2.5 6.6l5.9 5.9l-0.3 1.3l3.7 -2l1.6 1.2l1.7 -1.6l2.2 0.1l3.9 -2.7l3.3 0.2l3.3 3.3l0.7 -1.2l3.2 0.5l1 -1.9l-0.3 -6l10 1.4l2.4 -3.1l2.3 -0.3l-0.4 -2.3l-5.4 -0.5l-0.5 2.8l-1.2 -3.1l-1.9 -1l2.5 -2.2l-1.3 -1.9l-3.9 1.2l0.7 -3.2l-3 -2.6l-1.7 0.3l-2.4 3.6l-2.4 -4.2l1 -2l3 -1.4l-1.9 -3l-1.8 2l-2 -2l-1.4 2.8l-1.7 -5.1l-1.6 0.8l-1.5 -2.9l-1.5 0.9l0.1 -7l-2 1.2l-1.1 -1.4l0.9 -2.7l-3.6 0l1.5 -4.2l-2.2 1.4l-3.2 -1.5l-0.9 1.3l-1.3 -1.5l-1.4 0.4l-0.8 2.2l-1.4 -0.5l-1.3 -3.1l-3.3 0.6l-1.6 1.5l-15.4 16z"/><path data-id="21013" d="m738.2 416.9l4.1 7l-0.8 2.5l4.8 0.2l13.9 0.4l12.9 0.2l1 -1.6l1 -1l0.3 -1.1l1 -0.2l1.1 -1l1.1 -0.8l0.2 -1l1.1 -0.3l1.4 0.1l1.2 -0.7l0.7 -1l1.2 -0.6l2.8 -0.6l1.9 -0.7l2 -1.3l1.6 -0.4l1.1 -0.9l2.2 -1l1.2 -0.1l1.1 -0.3l1.2 0.5l2.9 0.4l0.9 -5.3l-2.7 -2l-2.7 -3.8l1.3 -3.9l0.7 -4.3l-3.4 -4l3.9 -6.9l-1.6 -2.4l-0.4 -3.4l0.9 -1.8l-1.3 0l1.4 -2.6l-2.6 -2l0.1 -2.5l-1.5 0.2l-9 -3l0.7 2.4l2.3 1.6l-1.3 1.5l-0.7 2.9l-4.1 1.2l-1.1 2.2l-1.1 -0.7l-1.8 1.4l0.1 2.2l-2.7 0.3l-2.6 1.6l-1.2 2.5l-1.8 0.5l-1.2 2.6l-3 1.9l-0.1 1.3l-2 -0.6l-2.9 1.2l-1.4 -0.4l-1.6 2.5l0.3 2.1l-1.6 1.8l-0.1 2.2l-2.5 0.9l-1.7 5.1l-1.8 1l-1.4 -1.5l-1.6 4.5l-10.3 6.8z"/><path data-id="21015" d="m614.5 15.3l0.4 1.3l0.7 1.5l0.8 1.1l1.6 1.4l0.7 1l1 1.4l0.9 1.4l0.4 1l1 1l0.9 1.6l0.4 1.1l-0.3 2.2l-4.2 4.5l-0.8 1l-0.9 1.5l-0.1 1.2l1 2.1l1.3 0.5l4 0.1l1.5 0.3l2.4 0.8l1.6 1.2l0.5 1.5l-0.2 1l-0.7 1.5l1.5 0.2l0.2 2l2.4 0.1l1.2 2.7l8.9 6.8l3 2.3l2.2 -3.5l3.7 -0.7l0.9 -5.2l1.4 -7.8l-1.5 -13.1l-0.2 -2.5l-0.1 -1.1l-0.6 -6.8l-0.7 -7.4l-0.2 -2l-1.2 -0.4l-2.4 -2.5l-2.1 -1l-1.5 -0.1l-1 -0.4l-1 -1.2l-1.2 -1.9l-1.6 -2.3l-1.6 -1.5l-2.4 -0.9l-1.4 0.1l-1.6 1.4l-2.3 3.5l-1.3 0.9l-2.2 0.6l-1.2 0.6l-1.5 0.6l-1.1 1.1l-1.3 1.2l-1.5 1.7l-1.3 0.7l-2.4 1.3l-1.2 1.6z"/><path data-id="21017" d="m674.3 145.6l0.1 1l2.4 3.4l0.5 7.2l2.4 1.1l3.8 0l2.3 4.9l-2.4 3.5l0.7 4l-1.6 3.4l2.7 2.5l4.5 2.3l1.1 -1.4l4.1 2.9l0.1 1.4l27.1 -8l11.9 -10l1.6 -2.9l1.1 -2.9l-1.1 -1.8l-1.5 0.2l-0.7 2.5l-1.8 -2.7l-2.5 1l-0.9 -1.6l-3.8 -1.9l1.3 -0.7l-0.5 -2.8l-2.7 0l0.2 -2.1l-1.7 -0.7l-0.8 2.3l-1.1 -1.8l-2.2 -0.9l2.1 -1.7l-3.4 -1.6l-0.3 -1.6l-4.4 -8.4l-3.7 -2.8l-11.3 9.5l-2 1l-1.5 -0.7l0.2 1.4l-3.8 2.7l-3.7 -1.2l-2.2 3l-5 -1.6l-3.4 0.7z"/><path data-id="21019" d="m888.8 127.2l-0.9 3.2l6 1.9l-1.3 2.9l-1.7 17l3.6 1.4l3.9 -0.4l4.9 -4.1l8.6 -0.8l3.2 0.5l0.7 2.8l1.3 0.3l1.2 0l1.1 -1.5l0.5 -1.5l0 -1.8l-0.6 -1.2l-0.1 -1.6l-0.2 -1.4l1.1 -1.9l0 -1.2l-0.4 -1.2l-1.2 -1.4l-0.5 -1.1l-1.1 -0.7l0 -2.2l0.1 -1.2l0.5 -1.2l-0.1 -1.5l-0.6 -1.3l0.2 -1.1l0.4 -1l-0.3 -1.4l0.1 -1.3l-0.1 -1.5l-0.5 -1.8l-0.4 -3.8l-0.5 -1.4l-0.7 -1.1l-1.3 -0.8l-1.7 -0.8l-1.4 -1l-1.1 -1.1l-1.1 -1.5l-3.1 2.8l-10.5 9.3l-1.1 3.2l-4.4 3.7z"/><path data-id="21021" d="m597 254.3l-1.2 14.3l4.9 -0.5l0 2.5l13.7 0.3l6.7 -2.7l8.4 -4.7l4.6 -1.6l-1.1 -0.4l0.2 -1.2l1.2 -0.2l-0.2 1.8l2.1 -0.5l5.7 -3.8l0 -2.1l4 1.3l0.8 -1.2l-0.8 -1.6l0.8 -2.7l-3.5 0.9l0 1.5l-1.9 -0.7l2 -2l-2.5 -2.6l2.2 -0.8l-0.5 -2.3l-1.5 1l-0.9 -2.7l-2.4 0.8l-2.8 -0.9l1.3 -2.1l-1.5 -0.4l-6.4 -0.7l-1.9 2.1l-25.2 4.1l-3.3 0.2l-0.2 2.4l-0.5 5.5z"/><path data-id="21023" d="m702.2 54.1l3.1 38.8l0.8 -1.1l0.7 2.6l-1.3 1.1l0.2 3l-1.5 1.5l7 0.1l2.1 0.7l3.2 -2.4l2.3 -3.7l2.8 -1.9l0 -1.8l1.2 1.7l3.9 -0.2l1.5 2.9l4.8 -0.1l0.7 -1.7l11.5 -29.4l-1.2 -0.3l-1.9 -0.3l-2.2 -2l-1.3 -0.4l-1.1 -0.2l-2.2 0l-2.2 0.9l-1.4 0.3l-2.2 0.9l-2.8 0.8l-1 -0.1l-1.4 0l-1.1 0.1l-3 -0.8l-1.9 -0.7l-3.5 -1.7l-2.7 -0.9l-5.6 -1l-1 -0.3l-1 -0.5l-1.2 -1.4l-1 -2.2z"/><path data-id="21025" d="m787.8 275.1l3.9 10l2 4.7l-2 3.9l0.5 5.3l1.5 1.5l-1.8 3l1.5 0.7l6.5 -4.7l1.3 -3.1l1.8 0.7l1.8 -1l3.6 4.6l2.4 2.1l2.9 0l1.6 -1.4l0.2 -1.9l1.4 0l1.9 -1.2l1.4 -2.4l2.9 0.3l1.1 -1.4l4.3 -2.1l7.3 -7.4l1.6 2.2l0.3 2.6l9.9 1.6l-1.4 -8.6l5.5 -6.8l-0.2 -3.3l3.1 0.3l1.1 -1.6l2 0.7l2.1 2.6l2.3 -0.4l1.5 1.2l2.3 -0.9l1.5 1.4l3.4 -0.9l-1.5 -2.5l-4.9 -1.7l-1.4 -3.6l-1.4 0.2l0.7 -5.8l-2 -1l-1.5 0.9l-2.4 -2.4l-0.8 -2.1l-1.2 0.3l-2.3 -3.8l-3.3 3.4l-2.7 0.8l-0.9 -2l-3.9 -3.8l-4.5 -0.5l-2.2 -1l-2 -2.9l-1.5 -0.3l-2.6 -1.7l-1.6 0.9l-1.9 -1.3l-3 -0.1l-1.7 1.4l-4.5 -1.6l-3.4 -2.6l-3.6 1.5l-1.7 2.8l-0.3 2.9l-3.3 4.3l-4.8 1.8l-0.1 -4.3l-3.5 1.2l-7.5 21.9z"/><path data-id="21027" d="m382 220.3l-1.5 7.1l7.3 22.9l-2.2 -1.1l-0.2 7.1l2.7 5.3l3.6 3.8l3.1 -2.8l-0.8 -3l3 0.6l0.1 1.2l2.2 -0.2l1.5 -1.9l-2.4 0.2l0.7 -2.2l3.3 -1.6l5.4 3.8l-0.6 1.6l2.6 -0.2l1 2.5l2.9 -0.7l2 2.3l2.2 -0.2l2.6 1.5l3.6 -0.7l-0.8 -4l1.3 -1.3l4.9 1.4l4 -1.3l12.2 -25.4l4.1 -8.7l-7.6 -7.8l-4.4 -5.2l-24.5 -20.5l-8.1 -7.6l-1.2 0l-1.5 0.2l-1 0.5l-0.7 2.2l0.1 1.5l0 1l-0.1 1l0 1.5l0.1 2.8l0 2.3l0.2 1l0.4 1.3l1.1 1.2l0.7 1.7l0.1 1l-1.7 1.5l-1.2 0.6l-1.7 0.3l-1 -0.2l-2.3 -0.7l-1.8 -0.2l-1.1 0.3l-1 1.1l-0.5 1.3l0.3 3.7l-0.1 1.6l0.2 1.2l-0.9 1.5l-1.4 0.9l-1.4 0.9l-1.1 0.6l-1.8 0.4l-1 -0.1l-1.4 1.1z"/><path data-id="21029" d="m477.6 193.2l4.1 1.2l0.9 3.7l-0.6 4.5l1.4 0.4l1.9 -1.4l3.3 0.5l1.3 3.9l1.9 0.5l0.4 3l1.9 1.8l-2.7 -0.5l-0.6 2.2l2.7 3.5l1.9 -0.3l2.3 2.9l3.3 1.6l2.4 1.9l0.6 1.7l2.3 0.4l3.8 -1.5l1.4 0.6l4.9 -3.1l4.3 -4.1l-0.3 -1.9l1.8 0.1l3.1 -2.6l-1.1 -1.4l0.1 -2.9l4.6 -2.9l3.3 -4.9l-1.4 -1.3l5.9 -4.2l-3.6 -3.4l4 -8.5l2.3 -5.6l4.4 -1.4l1 -2.3l-11.4 4.9l-1.8 0.8l-2.8 1.3l-2.1 0.2l-6.5 -0.7l-10.8 -1.2l-1.7 -0.2l-10.2 3.6l-3.5 1.2l-3.3 1.2l-5.3 1.8l-3.9 3.3l-2.9 3.9z"/><path data-id="21031" d="m345.9 345.7l-0.1 1.6l12.6 2.1l22.5 9.3l1 -3.3l6.6 -20.9l0.4 -1l-0.1 -1l0 -1.3l-1.1 -0.8l-0.1 -1.1l1.5 -0.2l2.2 -0.7l0.9 1l0.9 -1l1 0.2l1.5 -0.5l-0.1 1.1l2.8 0.7l5.9 -2.4l1.7 1.4l2.4 4.8l2.3 0.3l0.8 -2.4l4.3 2.2l0.2 -2.6l1.3 -0.4l-9.2 -25l-2.4 -6.8l-16.4 -5.4l-19.4 15.1l-1.3 -0.8l-0.8 -2.9l-3.3 -1.3l-1.9 0.9l-0.4 3.9l1.4 2.3l-2.3 -0.5l-0.3 2.1l-2.2 2.2l-1.2 3l-1.1 -0.2l-2.9 2.8l-0.3 2.1l-1.8 1.7l-0.8 1.6l1.3 4.1l-3.5 -0.5l-0.6 3.3l-1.5 3.8l1.9 -0.9l1.5 1.1l-0.4 1.7l2.1 -1.4l0.1 1.9l2.4 1.8l-2.6 -0.1l-0.3 1.8l1.3 2.2l-3.6 1.7l-2.5 -0.1z"/><path data-id="21033" d="m195.6 328.3l-1.6 0.7l7.1 0.8l8.8 17.7l12.9 17.7l2.5 1.5l12.3 -4l4.1 -4.5l3 -3.2l2.4 -12.9l1.6 -8.1l-2.2 -2.1l-1 0.1l-1.1 -2.9l-2.1 0.1l-0.5 -2.4l-1.8 0.7l-0.1 -3.4l-2.1 2.4l-1.4 -0.5l0.4 -2.6l-2.3 -3l-2.1 -1.4l1.4 -2.3l-0.7 -4.1l0.8 -1.9l-1.8 -0.4l1.5 -4.2l-3.2 0.2l-0.1 2.9l-3.9 -3.5l2.5 -2.9l2.3 -0.6l0.2 -1.3l-1.9 -0.4l3.5 -4.4l-33.1 23.4l-4.9 2.6l1.2 1.7l-1.2 0.8l0.8 3.7z"/><path data-id="21035" d="m142.7 399.7l-0.4 40.8l2.2 0l2.6 0l4.7 0.1l11.2 0l1.3 0l25.4 0.3l9.7 0.2l1.1 -1.2l0.8 -1l0.3 -1.3l0 -1l0.4 -1.2l0.2 -1.6l-0.2 -1.8l-0.2 -1.6l-0.5 -1.8l-0.2 -1.9l-0.5 -3.1l-1.4 -4.5l-0.2 -1.7l-1 -1.7l-0.5 -1.5l-0.3 -3l-1.3 -4.7l-4 -6.6l-3.3 -0.2l-46 -0.3z"/><path data-id="21037" d="m666.5 8.6l1.1 4.1l-0.5 2.4l1.6 3l-0.6 1.8l0.1 1.5l2.6 2.9l2.5 1.8l-2 2.7l1.7 1.7l1.6 -2.8l1.8 0.9l-4.6 5l2.6 7l-1 7.7l-1.9 1.9l1.6 5.2l2.8 -1.4l1.6 3.7l1.3 0.1l2.7 -1.1l20.4 -10.6l0 -1.5l-0.3 -1.5l-0.7 -1.3l-0.7 -1.1l-1.5 -2.7l-2.4 -3.1l-1.8 -2.4l-0.9 -2.1l-0.2 -2.9l-0.4 -1.8l-0.7 -1.8l-1.2 -1.8l-1.7 -1.8l-1.3 -0.9l-1.3 -0.7l-1.9 -0.7l-3.5 -0.6l-1 0l-1.1 -0.1l-2.5 -0.9l-1.2 -1.3l-0.3 -1.6l0 -1.8l0 -1l-0.1 -1.4l-0.3 -1.7l-0.7 -1.3l-1.2 -1.4l-1.6 -0.6l-1.1 0.1l-1.4 0.7l-0.9 1l-0.8 1.4l-1.1 1z"/><path data-id="21039" d="m51.6 389.4l0.6 1.5l0.8 1.3l1 0.8l2.2 0.4l1.4 0l1.3 0.5l2.5 -2l5.6 1.7l-0.7 2.3l8.5 0.2l24.9 -0.3l0 -28.5l-0.4 -1.2l-3.9 1.1l-8.8 0.9l-10.1 3.7l-3.3 -1.8l-1.7 1.1l-3.1 -0.4l-1.6 -1.6l-0.2 2.1l-2.2 1.3l-1.5 -4.7l-1.2 0l-1.2 3.9l-1.1 5.4l-1.2 2.6l-0.7 2.4l-0.8 1.7l-1.3 0l-1.3 0.6l-1.3 0.1l-1.4 1.2l-0.2 3.1z"/><path data-id="21041" d="m557.5 69.4l0.1 1.8l13.2 16.6l-0.2 1.6l2.1 2.8l0.3 3.6l5.7 -0.9l12.3 -1.9l1.9 -2.4l4.7 -0.5l1.2 -3.1l5.3 -0.7l0.6 -2l4.3 -0.4l0.3 -1.9l-3.7 -2.9l-8 -13.9l-2.3 1.2l-2.5 1.7l-1.5 0.6l-1.4 1l-2.5 1.5l-2.7 2.5l-1.5 1.5l-1.8 1.1l-1.2 0.5l-2.2 0.7l-1.9 0l-1.9 -0.6l-1.6 -0.7l-1 -0.9l-2.3 -3.7l-1 -1.5l-1.6 -1l-1.2 -0.4l-1 -0.2l-1.8 -0.2l-2.2 0.1l-3.3 0.8z"/><path data-id="21043" d="m819.1 139.5l1.8 5.2l2.6 6l-0.6 1.4l1.5 5.7l1.7 -0.9l0.3 1.5l2.6 2.4l2.9 -0.1l1.5 -0.2l1.6 -2.7l0.4 -4.6l4.2 -2.6l1.1 -2.4l2.4 0.4l3.2 3.8l6.8 3.4l1 2.6l3 2.8l0.3 1.8l1.4 -3.4l1.7 0.7l2 -1.7l0.6 2.3l2.4 0.6l-0.1 1.6l1.9 1.2l2.4 -0.4l1.6 1l2.7 -1.1l5.4 -3.5l3.9 1l4 -3l0.3 -4.1l3.5 -1.8l1.7 -17l1.3 -2.9l-6 -1.9l-12.5 -4.2l-3.4 -0.5l-4.2 1.3l-10.7 -12l-2 -0.1l-4 -2.9l-3.2 -0.4l-2.2 -2l-3.7 -1.1l-2.9 1.3l0.3 4.5l-1.9 2.6l-1.7 -0.2l0.7 2.3l-3.9 2.5l-0.2 4.9l0.8 3.9l-0.9 3.1l1.2 2.8l-2.2 1.4l-4.9 1.2l-3.7 -1.7l-3.8 2.4z"/><path data-id="21045" d="m583.7 298.4l-4.5 9l7 4.7l7.3 4.1l0.4 10l1.3 1.8l9.6 12l2.1 1.8l5 -0.8l2 -1.5l11.8 -9.5l11.9 -10.7l0.5 -2.2l-1 -5.8l2.4 -2.2l-2.2 -10l-9.6 -5l-7.2 -6.1l-1.2 -6.7l0.4 -10.1l1.3 -3.3l-6.7 2.7l-13.7 -0.3l0 -2.5l-4.9 0.5l-0.5 7.5l-0.2 14.5l-3.8 -0.2l-1.8 2.6l-2.4 0l-3.3 2.2l0 3.2z"/><path data-id="21047" d="m244.6 355.1l-3 3.2l9.7 5.9l-1.6 14.4l-0.3 10.4l0 9.8l-1.2 8.6l-1.5 10.9l7 -0.2l10 -0.2l15.7 -0.2l1.2 0l1.5 0l1.4 0l3.8 0l5 0l1.6 0l10.1 -70.8l-1.9 0.3l-1.5 -2.4l0.2 -3.8l-2.8 0.1l-3.7 -4l0.1 -4.2l-3.5 0.1l0.5 2.2l-2.1 1.9l-15.1 1.1l-4.3 3.4l-13.4 -4.9l-3.7 -2l-4 -0.4l-1.6 8.1l-2.4 12.9z"/><path data-id="21049" d="m687.9 208.3l-1.3 1.5l1.5 1.1l8.8 -4.2l0.7 5.5l0.3 1.2l3.3 -1.7l2.1 2.6l4.6 -1.2l2.6 2.9l4.7 -1l3.1 2.9l1.9 -1.8l1.6 1.4l0.7 5l2.3 -2l-0.2 -2.1l2.6 2.3l4.9 -0.6l-3.3 -5.3l2.8 1.6l2.1 -6.6l-0.2 -3l3.3 -2.2l-2 -4.6l-13 -26.2l-27.1 8l0.2 4.5l-1.1 1.1l1.3 2.4l-5.2 3l-0.1 6l1.3 -0.4l-3.5 5.5l1.1 2.3l-2.2 0.9l1.1 1.3z"/><path data-id="21051" d="m739.4 327.2l-2.9 3.7l3.2 3.3l2.5 5.9l3 0.4l2.4 -1.4l0.4 1.6l2.3 0.9l0.4 2l-3.3 2.8l2.2 3.2l2 2.1l2.9 -0.1l0.3 2l2.1 0.7l2.4 -1.6l3 -0.1l-0.7 2.4l0.7 1.3l4.1 -1.9l1.5 1.7l-0.5 1.7l4.7 3.3l5.2 1.7l2.5 2.7l3.8 0l0.6 1.2l2.4 -0.5l9 3l1.5 -0.2l-1.8 -9.9l1.6 -0.8l-2.1 -2.9l-1.7 -4.8l0 -3.2l-1.8 -1.5l2.3 -3.9l-2.1 -2.6l0 -8l6.1 -6.1l-3.1 -4.5l2.8 -0.8l-0.4 -3.2l-2.1 -0.6l-1.9 -1.5l-3.4 0l0.3 -1.4l-2.3 -3.2l-1.9 0.4l-1.5 -2.7l-1.8 -1l-2.1 -4.9l-1.9 -2.3l-2 0.5l-1.4 3l-5.2 -0.3l-8.8 -1.6l0.2 2.3l-5 0.6l-5.5 4.1l-2.5 -0.1l0.7 2l-3 4.6l-0.2 2.1l-2.7 -1.3l-2.9 1.9l0.4 7.2l-0.9 2.6z"/><path data-id="21053" d="m562.1 420.1l2.6 -0.1l10.6 0.2l13 0.5l1.3 0.1l8.1 0.4l5 0.4l1.5 0.2l-3.2 -1.5l-0.6 -3l0.8 -3.3l-1.5 -0.9l1.1 -1.4l-2.3 -2.2l-0.2 -4.6l2.1 -6.3l-2.9 -8.3l-4.3 -4.3l-0.7 -4.2l-7.1 5.2l-10.3 -7.7l-5 -1.9l2.6 5.1l-4.1 18.1l-6.5 19.4z"/><path data-id="21055" d="m159.5 291.8l0.5 1.3l4.8 -0.1l2.5 3l-0.9 1.9l1.7 5.5l3.5 3l6.4 7.3l3 8.9l-3.1 6l2.9 1.3l1.4 3.4l-0.8 1.2l-0.5 2.6l2 -0.3l-0.2 1.2l3.2 -1.1l-0.4 -1.7l1.3 -1.1l2.2 0.3l0.7 -1.8l1.7 0.6l2.9 -4.1l1.6 -0.7l-0.8 -3.7l1.2 -0.8l-1.2 -1.7l4.9 -2.6l33.1 -23.4l-2.4 -1.4l-3.3 2.2l-2.1 -0.9l0 -1.9l1.8 -0.5l-0.2 -4.4l-2.8 2.5l-3.9 0.4l-3.3 -1.3l-2 -2.4l0.3 -2.2l-1 -4.4l1.4 -2.5l-2.9 0.2l-0.8 1.1l-2.8 -0.4l2.1 -1.7l-0.7 -2.4l-1.1 0.9l-2.2 -2l-0.2 -5.4l-2.2 -1.4l-0.7 3.1l-1.7 2.5l-1.8 -0.8l-1.8 2.1l-0.2 1.5l0 1.1l-0.7 1.3l-1.3 0.2l-0.8 1.2l-1 0.2l-2.4 -0.2l-2.4 0.3l-3.8 0.6l-1.9 0.2l-2.3 0.6l-2.4 0.3l-2.4 0.5l-1.7 0.1l-2.3 0l-3.5 0.7l-2.1 1l-1.9 1l-1.1 0.9l-1.2 0.9l-2.3 3l-1.3 1z"/><path data-id="21057" d="m521.9 379.7l1 2.4l2.6 3.2l-0.9 2.5l-2 0.8l1 6.7l2.3 1.1l3.8 -0.6l3.3 7.1l6.1 -0.3l-3.4 7l8 11.8l13.4 -0.8l1.2 -0.3l3.2 0l7.1 -19.6l4.1 -18.1l-2.8 0.2l-1.5 -4l-3.6 -3.3l5.6 -4.5l-28.9 -2.1l-2.9 7.3l-4.4 4.3l-3.9 0.9l-3.1 1.9l-2.6 -3l-2.8 -0.5z"/><path data-id="21059" d="m286.3 238.8l-2 6.8l19.3 10.2l13.4 5.8l2.8 1.9l5.7 1.4l5 -0.6l2.5 1.6l4.2 -3.3l7.5 -8.3l2.6 1.2l3.2 -1.1l1.6 -2.2l5.1 -2l1.7 -1.8l3.1 -1.3l-6.4 -5.8l5.7 -4.8l0.8 -9l-3.3 -4.7l-1.5 -3.5l-4.3 0.8l-1 1.3l-2.5 -1.5l0.5 -5.3l1.9 -2.1l-2.1 -0.6l-1.2 -3.3l-1.7 -0.6l-3.5 2l-3.8 0.1l1.8 -3.5l-0.6 -2l-3.2 1.3l-3.9 2.7l-1.2 1.4l-0.5 1.5l0.2 1l0.1 1.5l-0.8 2.5l-0.3 1l-0.5 3.1l-0.3 1.3l-1 2.8l-0.7 1.4l-2.6 2.3l-1.2 0.5l-1.5 0.4l-1.1 -0.1l-1.1 -0.4l-0.8 -1.2l-0.6 -2.5l-0.6 -1.5l-1.5 -2.7l-1.2 -1.3l-1.1 -0.4l-1.2 0.2l-2.9 -0.4l-1.3 -0.4l-1.1 -0.5l-4.5 -3l-1 -0.9l-0.8 -1l-4.5 -3.3l-2.7 13.2l2.7 1.7l-1 1.7l1.7 2.3l3.4 0.5l-1.1 1.4l-1.3 2.1l-4.3 3.2l-6.3 0.7l-3 2.2z"/><path data-id="21061" d="m407.9 305.7l9.2 25l15.4 14.7l3.3 -0.8l1.9 -1.9l3.1 -1.2l3.5 4.5l10.4 2.6l5.2 1.3l2.3 -18.8l1 -7.9l-14.3 -19.9l-2.5 0.5l-1.4 -1.3l-0.7 2.1l-2.1 -0.8l-34.2 2z"/><path data-id="21063" d="m828.3 181.4l0.4 1.7l2.3 1.5l2.3 -0.3l1.3 1.3l0.2 2.8l3.6 2.8l2.7 -1.1l2.9 1.1l1 2.3l1.1 -1.2l3.5 0l1.1 -1l4.8 0.3l2.3 1.9l2.5 -2.1l3.5 -4.2l2.7 -2.5l3.3 0.1l1.9 -2.4l0 -2.2l3.3 -3.6l1.3 0.6l2.5 -2.9l-2.4 -3.4l-0.1 -4l-1.3 -3l-3.6 1.1l-1.6 -1l-2.4 0.4l-1.9 -1.2l0.1 -1.6l-2.4 -0.6l-0.6 -2.3l-2 1.7l-1.7 -0.7l-1.4 3.4l-0.3 -1.8l-3 -2.8l-1 -2.6l-6.8 -3.4l-3.2 -3.8l-2.4 -0.4l-1.1 2.4l-4.2 2.6l-0.4 4.6l-1.6 2.7l-1.5 0.2l-2.6 0.7l2.7 2l5 0.1l0.8 1.1l-1.7 0.7l-1.4 5.4l-3.3 0.3l-2.1 2.5l0.3 2.2l-1.3 5.5z"/><path data-id="21065" d="m715.8 252.5l1.9 6.1l2.9 6.5l6 0.4l10.5 -3l3.3 1.4l4.5 5l6.2 -11l-1 -1.1l4.4 -3.4l3.2 0l-1.9 -4.8l5.5 -3.8l4.1 -4.5l3.6 -0.2l-0.1 -2.1l-3.4 -0.5l-2.7 -1.5l-1.1 -2.6l-3.5 0l-2.3 1.9l-1.2 -3.3l-4.6 2.2l-5.4 -1.2l-0.7 -1.2l-6.8 -5.6l0.1 -7.4l-3.8 -0.9l-1.4 2.1l-4.9 0.6l-2.6 -2.3l0.2 2.1l-2.3 2l-0.7 -5l-1.6 2.9l-3.8 3.8l3 -0.4l3.3 2.4l-3.8 4.6l2.8 1.1l0.1 3l-2.4 5l0.8 1.5l0.5 6.9l-5 4.3z"/><path data-id="21067" d="m646 190l-0.3 2.3l7.3 2.4l1.6 0.5l2.8 1.5l4.6 2.4l1.8 0.9l5.6 2.9l1 2.9l2.5 2.3l2.4 6.8l-0.2 3.5l3.3 -4l3.2 4.3l2.7 -2.2l-2.4 -5.8l0.7 -1.3l4.9 3.3l0.5 -1.7l-1.5 -1.1l1.3 -1.5l-1.1 -1.3l2.2 -0.9l-1.1 -2.3l3.5 -5.5l-1.3 0.4l0.1 -6l5.2 -3l-1 -1.9l0.8 -1.6l-0.2 -4.5l-0.1 -1.4l-4.1 -2.9l-1.1 1.4l-4.5 -2.3l-2.7 -2.5l1.6 -3.4l-0.7 -4l2.4 -3.5l-2.3 -4.9l-3.8 0l-18 8.2l-10.7 4.9l-0.6 2.2l-0.5 2l-2.7 10.2l-1.1 4.2z"/><path data-id="21069" d="m734.7 117.3l0.4 2.1l4.1 2.8l3.6 6.6l0.7 3.9l3.3 -0.6l-1.1 2.5l3.4 -2.3l0.8 2.1l1.2 -0.4l0 2.9l2.4 -0.8l-1.2 2.2l1.9 1.7l-1.9 3.1l3.3 -0.6l1.3 3.1l1.4 0.5l0.8 -2.2l1.4 -0.4l1.3 1.5l0.9 -1.3l3.2 1.5l2.2 -1.4l-1.5 4.2l3.6 0l-0.9 2.7l1.1 1.4l2 -1.2l-0.1 7l1.5 -0.9l1.5 2.9l1.6 -0.8l1.7 5.1l1.4 -2.8l2.7 -1l3.7 -4.2l3 0.3l1.1 -3.5l4.1 -2.9l0.6 -2.2l1.7 -0.3l-0.9 -3.8l1.2 -0.3l0.5 -3.6l1.8 -1.5l-1.3 -1.6l-0.1 -2.7l2.2 -1.7l1.5 0.8l2.3 -4.5l-1.8 -2.9l-4.1 -0.4l-2.3 -2.2l-4.9 -0.9l-3.9 -1.9l0.9 -2.2l-2 -7.6l-1.2 -2.1l-3.4 -0.3l-0.5 -3.1l-1.7 -0.6l-10.5 3.6l-18.1 8l-9.3 -6l-6.9 6.8z"/><path data-id="21071" d="m871.7 240.2l-0.7 6.4l2.4 3.6l2 0.5l1.2 2.1l-0.4 5.7l1.3 3l-0.7 1.9l1.7 2l-0.1 3.4l1.4 1.4l-1.8 0.5l-0.5 3.9l-1.9 1.6l0.1 1.3l-2.1 0.8l12.4 3.2l0 5.1l-0.5 3.6l3.3 0.5l3.8 -3l2.5 0.7l0.9 1.9l-0.1 5.5l0.5 1.6l-1.5 3l1.6 2.5l0.5 3.3l-0.5 1.4l3.6 1.1l-0.1 2.1l2 0.6l1.4 -0.9l0.9 -2.6l2.8 -0.1l0.3 -2.4l2.3 -5l-1.9 -3.1l1.6 -1.7l2.7 0.2l1.9 -1.2l-0.4 -1.1l2.3 -2.8l0.4 -4.3l1.7 -1.7l0.2 -4.4l-1.4 -4.9l-3.4 -0.2l3.3 -22.9l-2.1 -4.7l6.7 -2.4l-7.7 -3.3l-2.5 -2.6l-1.7 -1.1l-2.6 0.2l-1.5 -1.6l-2.1 -0.3l-3 -2l-2.1 0.9l-1.7 -2l-1.5 0l-0.5 2.4l-2.4 -0.7l-7.8 2.7l-3.4 0.1l-0.7 1.6l-3.3 2.7l-1 -1.6l-2.4 -1.1l-1.8 0.5z"/><path data-id="21073" d="m598.4 169.3l-0.5 2.1l7.4 1.6l1.2 1.6l7.3 2.7l1.9 -0.6l3 -3.3l0 -4.1l18.4 -9l-0.7 -2.2l-0.3 -3.8l-1.1 -20.3l-6.9 2.3l-5.9 -3.1l-4.2 0l-2.9 0.3l-1.8 -3.3l-12 6.6l5.4 0.6l-5.5 9.6l-0.3 8.2l-0.8 8.4l0.5 2.5l-2.1 3.2z"/><g data-id="21075"><path d="m21.8 436.1l-1.5 4.8l1.8 0l1.7 0l1.2 -0.2l3.3 -0.4l1.4 -0.2l6 -0.6l2.4 0.1l9.3 0.1l6.3 0.2l5.7 0.1l3.9 0l2.4 0l1.7 0l3.2 0l3.2 0l1.4 0l4.7 0.1l8.5 0l2 0.1l1.3 -0.1l5.2 -0.1l-9.1 -12.1l-3.2 -0.3l-1.7 -2.1l-11.3 -0.1l-15.8 -9.3l-3.6 -0.2l-1.1 0.9l-1.2 1.4l-0.7 1.2l-0.4 1.7l-0.2 2.7l-1.4 3.5l-1.8 1.7l-1.2 0.4l-2.9 0.3l-1.3 -0.6l-1.4 -1.4l-2.1 -2.6l-0.9 -1.7l-1.6 -2.6l-1.7 -2l-2.2 0.2l-1.7 0.4l-1.2 0.6l-1.3 1.5l-0.3 1.2l-0.3 2.8l-0.3 1.2l-1.7 3.9l-0.1 1.2l-0.2 1.6l-0.9 2.3z"/><path d="m0 432.1l0.2 1.4l0.6 1.2l0.7 1.9l0.8 1.3l1.5 2l0.5 1.1l5.4 0l1.6 0l1.1 -1.6l0.6 -1.1l0.5 -1.2l0.4 -1.4l0.1 -1l-0.3 -1.7l-0.7 -2.1l-0.8 -1.4l-2.7 -1.3l-1.9 -0.2l-1.1 -0.3l-2.7 -0.1l-1.4 0.6l-1.4 1.4l-0.9 1.7z"/></g><path data-id="21077" d="m599.4 64.4l-1.6 0.8l8 13.9l3.7 2.9l1.1 -1.9l2.7 0.6l4.6 -4.9l3.4 0.3l1.9 -2.5l4.8 -2.2l1 0.7l0.7 -7.5l15.9 -2l-3 -2.3l-8.9 -6.8l-1.2 -2.7l-2.4 -0.1l-0.2 -2l-2 0.4l-1.1 1.1l-1.8 1.2l-1.3 1.4l-0.3 1.6l0.4 1.1l1.4 2.2l0.6 2.2l-0.1 1.1l-1.1 0.5l-1 0l-2.5 -0.8l-1.2 -0.4l-4.1 -0.7l-1.8 0.7l-1.8 1.1l-2.3 1.1l-1.1 0.3l-2.9 -0.4l-2.1 -0.2l-1.5 0.2l-1.3 0.6l-1.6 1.3z"/><path data-id="21079" d="m634.5 240.7l1.5 0.4l-1.3 2.1l2.8 0.9l2.4 -0.8l0.9 2.7l1.5 -1l0.5 2.3l-2.2 0.8l2.5 2.6l-2 2l1.9 0.7l0 -1.5l2.6 -1.5l0.1 3.3l1 -1l0.9 1.4l-1.1 2.3l2.4 2.7l1.6 -0.3l0.5 1.7l19.1 16.4l2.7 0.3l0.7 1.1l9.5 2.2l2.5 -4.2l-0.7 -2.9l1.7 -3.9l-3 -5.5l-0.2 -3.4l-3.2 -1.2l-0.4 -2.8l-2.9 -0.3l1.2 -2l-2.3 -2.1l-2.2 -4.7l-2.4 -2.6l1.4 -0.7l-2.7 -2.8l-1.4 -0.5l-0.3 -2.8l-2 -1l1.1 -2.2l-2.7 -1.6l0.5 -1.3l-1.9 -0.7l-1.7 0.3l-0.1 2.1l-2.2 1l-2.1 3.4l-2.1 -1.1l0.3 -2.5l-1.5 -0.5l-1.4 1.7l-1.2 -0.9l1.6 -1.4l-1 -1.7l-3.4 -1.1l-0.9 -2.5l2.5 -1.4l2.3 0.7l-1.1 -1.9l-5.3 -1l0 4.3l-2.7 -1.1l0.2 -5.9l-2.6 -0.3l-2.8 2.1l0.1 2.6l1.8 2.2l-1.7 2.7l2.8 1.1l-1.2 2.8l1.6 0.2l-2 2.2l2.3 0.8l-3.7 0.5l-1.4 -0.7l0.2 2.5l-2.4 0.1z"/><path data-id="21081" d="m629.8 64.6l-0.7 7.5l1.5 17.2l12.3 9.9l2 2.7l-1.2 1.9l2.3 0l1.9 3.1l2.1 4.8l3.4 0.7l2.7 1.3l2.3 -2.9l5.4 -3l4.7 0l1.2 -5.7l-7.4 -42l-9.6 -0.2l-1.4 -1.6l-3.7 0.7l-2.2 3.5l-15.9 2z"/><path data-id="21083" d="m99.2 396.8l-0.3 2l0.4 12l-0.1 29.5l2.3 0l6.8 0l4.2 0l7.1 0.1l11 0l4.2 0l3.8 0.1l3.5 0.1l0.4 -40.8l0.2 -31.5l-11.7 -0.2l-16.6 0.1l-1.3 -0.6l-13.6 -0.1l0 28.5z"/><path data-id="21085" d="m382.1 266.7l0.1 1.7l6.8 25l16.4 5.4l2.4 6.8l34.2 -2l2.1 0.8l0.7 -2.1l1.4 1.3l2.5 -0.5l0.2 -1.5l3.9 1l0.8 -1.2l1.9 1.3l3.4 -2.1l1.2 1.8l0.9 -3.8l-1 -2.9l2.8 -1l4.2 -1.2l-3.2 -2.4l1.4 -1.5l-2 -5.3l-2.6 -1.3l0.9 -2.4l1.4 -0.7l-1.6 -2.2l1 -1l-7.9 -11.8l-5.9 0.6l-0.9 -1.4l-1.3 2.8l-3.3 -3.3l-4.1 -0.1l-1.8 -4.5l-0.2 1.3l-2.7 1.6l-0.9 -1.5l-4 1.3l-4.8 -0.8l-1.4 0.7l0.8 4l-4 -0.1l-2.2 -0.7l-2.2 0.2l-2 -2.3l-2.9 0.7l-1 -2.5l-2.6 0.2l0.6 -1.6l-5.4 -3.8l-3.3 1.6l-0.7 2.2l2.4 -0.2l-1.5 1.9l-2.2 0.2l-0.1 -1.2l-3 -0.6l0.8 3l-3.1 2.8l2.1 1.8l-0.3 1.1l-2.5 0.4l0.1 1.2l-3 -2.7l-0.7 -2l-1.9 -0.1l-1 1.8l-2.4 -0.2z"/><path data-id="21087" d="m510.9 299.1l-1.6 9.8l2 2.2l0.3 2.9l1.4 0.5l-1.2 3l-1 11.2l3.4 6.5l3.8 3l5.4 1.4l8.4 1.1l12.2 -5.8l7 -3.9l3.6 -4l-2.5 -4.8l-4.5 -0.1l0.4 -2.4l1.6 -0.2l-0.3 -2.1l-5 -9l-6.2 -9.7l-14.1 -11.4l0.2 -6.1l-3.1 1.5l-3.6 -1.8l-0.5 2.9l-3.6 2.9l1.1 2.4l0.8 4.2l-4.5 5.9z"/><path data-id="21089" d="m844.5 105.5l-2.4 3.1l3.7 1.1l2.2 2l3.2 0.4l4 2.9l2 0.1l10.7 12l4.2 -1.3l3.4 0.5l12.5 4.2l0.9 -3.2l4.4 -3.7l1.1 -3.2l10.5 -9.3l3.1 -2.8l-1.3 -1.6l-1.9 -3.4l-0.9 -1l-2.4 -1.4l-1.4 -1.2l-1.9 -0.3l-3.2 -0.2l-2.1 0.2l-1.4 -0.2l-1.4 -0.5l-2.1 -1.3l-3 -2.6l-1 -1.5l-0.5 -1.5l-0.4 -1.5l-0.2 -1.2l-0.1 -2l0.1 -2.2l-0.4 -2.4l-0.5 -1.5l-0.8 -1.5l-1.1 -2l0.1 -1.2l0.2 -1.3l0.5 -2.3l0.2 -1.6l-0.2 -1.9l-0.4 -1l-0.7 -1l-1.3 -0.8l-4.6 1l-2.6 1.1l-2.1 1.4l-1.3 1l-1.4 0.5l-1.9 -0.5l-2.3 -0.2l-1.3 0.2l-1.2 0.5l-1 1.5l-0.5 1.4l2.4 4.2l-1.9 3l-1.6 0.3l-0.6 4.1l-2.5 1.2l0.6 1.8l-1.5 1.9l1.3 2.6l-1.4 1.2l-2.3 4.9l-2.2 3.3l-4 1.5l-0.2 1.3z"/><path data-id="21091" d="m341.5 206.6l-1.8 3.5l3.8 -0.1l3.5 -2l1.7 0.6l1.2 3.3l2.1 0.6l-1.9 2.1l-0.5 5.3l2.5 1.5l1 -1.3l4.3 -0.8l1.5 3.5l3.3 4.7l-0.8 9l24.3 12.6l2.2 1.1l-7.3 -22.9l1.5 -7.1l1.4 -1.1l-0.8 -1.2l-0.1 -1.2l0.2 -1l0.4 -1.1l1.3 -2.8l0.5 -1.5l0.1 -1.3l-0.4 -1l-1.8 -0.7l-1.6 -0.3l-1 0l-1.5 1.1l-2.1 1.7l-1.1 0.7l-2 5.55112e-17l-2.5 -3.1l-1.8 -3.3l-2 -4l-1.1 -2.7l-0.3 -1.2l-0.6 -1.5l-2.1 -1.4l-1.2 -0.4l-1.9 1l-1.8 0.6l-1.9 1.3l-1 1.2l-1.4 1.3l-1.4 1.9l-1.4 1.6l-2.2 1.5l-1.1 0.3l-2.2 0.2l-2.6 0.2l-1.9 0.3l0.6 2z"/><path data-id="21093" d="m433.3 260.6l0.9 1.5l2.7 -1.6l0.2 -1.3l1.8 4.5l4.1 0.1l3.3 3.3l1.3 -2.8l0.9 1.4l5.9 -0.6l7.9 11.8l-1 1l1.6 2.2l-1.4 0.7l-0.9 2.4l2.6 1.3l6 0.5l14.4 1.1l-0.2 -5.3l2.4 -11.9l4.9 -4.1l2.3 -0.9l0.2 -1.7l2.9 -3.9l-0.6 -2.5l3.5 -1.3l-0.2 -1.3l5.3 -2.6l6.1 -10.7l1.2 -2.2l-0.9 -3.7l-5.3 -3.2l-1.6 -2.5l0.4 -3.8l-0.6 -1.7l-2.4 -1.9l-3.3 -1.6l-2.3 -2.9l-1.9 0.3l-2.7 -3.5l0.6 -2.2l2.7 0.5l-1.9 -1.8l-0.4 -3l-1.9 -0.5l-1.3 -3.9l-3.3 -0.5l-1.9 1.4l-1.4 -0.4l0.6 -4.5l-0.9 -3.7l-3.7 -0.8l-1.4 -2l-1.7 0.7l-2.3 0.2l-2.7 0.6l0 2.1l1.9 12.9l0.8 5.7l-1.3 2.9l-2.9 6.7l-18.9 3.3l-4.1 8.7l-12.2 25.4z"/><path data-id="21095" d="m796.7 390.3l3.4 4l-0.7 4.3l-1.3 3.9l2.7 3.8l2.7 2l-0.2 5.3l1.7 0l1 -0.3l1.2 0.1l1.1 -0.1l1.6 -0.6l2.1 -1l0.8 -1.3l2.8 -1.3l1.4 -0.3l1.7 -1.1l3.6 -1.1l1.2 -0.5l2.5 -0.4l1.6 -0.7l1.5 -0.5l1.1 -0.1l1.2 -0.6l1 -0.3l2.5 -0.7l2.7 -1l3.2 -0.3l1.1 0.1l1.4 -0.5l1.4 0.1l1.3 -0.2l0.7 -1.1l0.3 -1.1l-0.6 -1.2l0.5 -1.8l-0.4 -1l1.1 -0.8l1.2 -1.6l0.9 -1l1.2 -1.9l-0.1 -1.4l0 -1.3l1 -0.4l1.6 -1.1l0.6 -1.6l1.2 -0.2l1.9 0l1 -0.2l2.3 -0.4l1.8 1.3l1.1 -0.7l2 -1.2l1.2 -0.1l1 0.3l1.4 -0.8l1.2 -0.6l1.9 -0.2l2 -1.1l1.4 -0.1l0.7 -1l1.4 -0.4l1 -0.8l1.1 -0.4l0.4 -1.3l0.5 -1.2l-0.4 -1.2l1.2 -1.2l0.7 -1l0.5 -1.4l-0.4 -1.1l0.2 -1.1l0.6 -1.1l-1.1 -0.8l-0.9 -1.2l0.1 -1.1l-9.2 -7.1l-3.4 2.2l-5.1 1.4l-2.4 2.6l-2 -1.1l-15.2 4.6l0.6 -4.1l3 -1.6l0.6 -1.6l-5.3 -3.3l-2.6 0l-0.5 2.5l-5.9 0.6l-3.9 5.6l-8.4 4.7l-9.9 3.2l0.5 2.9l-1.7 2.2l-6.2 1.1l-4.5 -1.9l-0.9 1.8l0.4 3.4l1.6 2.4l-3.9 6.9z"/><path data-id="21097" d="m659.2 110.4l1.8 4.7l2.3 2.4l-0.2 2.9l4.3 2.7l3.7 4.1l1.2 3.3l-0.5 1.4l0.8 4.7l1.6 2.1l1.4 4.1l-1.3 2.7l3.4 -0.7l5 1.6l2.2 -3l3.7 1.2l3.8 -2.7l-0.2 -1.4l1.5 0.7l2 -1l11.3 -9.5l12.1 -14.7l-4 -4l-2.3 0.7l-0.5 -1.8l-4 -1.3l0.7 -5.8l2.2 -3.6l-7 -0.1l1.5 -1.5l-0.2 -3l-25.6 3.6l-1.6 -0.7l-2 3.1l1.1 0.5l-3.8 1.2l0 1.2l-3.6 -2.2l-1.2 5.7l-4.7 0l-4.7 2.6z"/><path data-id="21099" d="m449 301.8l-0.2 1.5l14.3 19.9l-1 7.9l8.4 1.7l11.3 1.4l6.5 -0.5l7.2 -2l7.6 -1.1l7.6 -2.1l1 -11.2l1.2 -3l-1.4 -0.5l-0.3 -2.9l-2 -2.2l1.6 -9.8l4.5 -5.9l-0.8 -4.2l-10 -0.6l-2.2 -1l-18.7 -1.5l-14.4 -1.1l-6 -0.5l2 5.3l-1.4 1.5l3.2 2.4l-4.2 1.2l-2.8 1l1 2.9l-0.9 3.8l-1.2 -1.8l-3.4 2.1l-1.9 -1.3l-0.8 1.2l-3.9 -1z"/><path data-id="21101" d="m216.9 208.3l-0.7 1l14.7 23.2l0.5 -1.5l2.5 0.1l-1 1.6l2.7 1l0.7 -2.1l1.3 1.7l-0.3 1.2l1.4 3.4l0.6 8.4l-0.5 1.5l2.6 5.1l31.4 -1.5l3 -2.9l7.7 -1.5l0.8 -1.7l2 -6.8l3 -2.2l6.3 -0.7l4.3 -3.2l1.3 -2.1l1.1 -1.4l-3.4 -0.5l-1.7 -2.3l1 -1.7l-2.7 -1.7l2.7 -13.2l-2.3 -1.2l-1.5 -0.4l-1.8 -0.5l-1 -0.8l-1.2 -0.9l-1.4 -1.5l-1.2 -1l-1.4 -0.5l-1.3 -0.4l-2.3 -0.6l-1.3 0l-1.1 0.1l-1.4 0.3l-2.4 1.5l-2.7 2.2l-1.9 1.9l-1.3 0.5l-1.2 -1l-1.5 -0.6l-1.9 -1.1l-1.8 -1.4l-0.9 -1.1l-0.8 -1.5l-0.3 -1.2l0.1 -1.3l-0.6 -1.5l-1 -0.6l-1 -0.1l-1.1 0.6l-0.5 1.2l0.2 1l-0.4 1.6l-1.7 1.8l-1.2 1.9l0.4 1.8l0.8 1.5l1.6 1.4l1.5 1.1l1.1 4l0 1.3l-2.4 3.7l-1.2 1.1l-1.3 0.5l-1.4 0.3l-1.3 0.2l-1.2 0l-1.5 -0.2l-1.2 -0.7l-0.7 -1.5l-0.2 -1l0 -1.6l0.8 -1.7l1.3 -1.3l0.5 -1.2l-0.3 -2l-0.9 -1l-1.2 -0.6l-1.1 0.2l-1.6 0.9l-1.3 0.6l-1 0.2l-2 -0.3l-3.8 0.5l-1.1 0.8l-1.7 1.4l-1 0.3l-2.3 0.1l-3 -0.2l-1 -0.5l-0.5 -1.3l-2 -2.1l-0.8 -1.9l-1.2 -1.5l-1.4 -0.9l-1.2 -0.3l-1.6 0.5l-2.2 2.8z"/><path data-id="21103" d="m555.5 116.1l1.9 2.8l0.9 6.6l5.5 7.7l37.5 3.8l12 -6.6l1.8 3.3l2.9 -0.3l0.3 -2l-3.4 -1.1l-0.4 -2.4l2.3 -4.5l-2 -1.5l-3.8 -1.1l0 -1.8l2 -1.3l-0.3 -1.8l-1.4 -0.8l-2 2.4l-0.1 3.8l-1.4 0.3l-1.8 -1.9l1.5 -3.3l-0.7 -2.8l-4.2 -2.3l-0.4 -1.4l2 -3l-1 -0.9l-2.9 0.8l-1.3 1.5l-1.6 -1l3.6 -7l-0.9 -1.5l-4.4 -2.1l-2.6 1.6l-1.8 -2.4l0.2 -3l-12.3 1.9l-10.7 10.3l-3.9 4.7l-4.5 0.6l-4.2 5.6z"/><path data-id="21105" d="m48.7 403.7l0.2 1.6l2 2.5l1.3 1.2l0.9 1.4l0 1.2l1.2 1.9l-0.7 1l-1.3 1.6l3.6 0.2l15.8 9.3l11.3 0.1l1.7 2.1l3.2 0.3l9.1 12.1l1 0l1.3 0l0.1 -29.5l-0.4 -12l0.3 -2l-24.4 -0.5l-8.5 -0.2l0.7 -2.3l-5.6 -1.7l-2.5 2l0.9 1.6l0 1.3l-0.3 1.3l-0.9 1.3l-1.3 0l-2.1 -0.7l-2 -0.6l-1.7 0.5l-1.6 1.5l-0.8 1.3l-0.5 2.3z"/><path data-id="21107" d="m228.7 302.7l-2.5 2.9l3.9 3.5l0.1 -2.9l3.2 -0.2l-1.5 4.2l1.8 0.4l-0.8 1.9l0.7 4.1l-1.4 2.3l2.1 1.4l2.3 3l-0.4 2.6l1.4 0.5l2.1 -2.4l0.1 3.4l1.8 -0.7l0.5 2.4l2.1 -0.1l1.1 2.9l1 -0.1l2.2 2.1l4 0.4l3.7 2l13.4 4.9l4.3 -3.4l15.1 -1.1l2.1 -1.9l-0.5 -2.2l3.5 -0.1l0.9 -2.3l2 -0.9l-0.7 -1.6l1.4 -0.9l-2.3 -0.8l-1.3 -2.4l-1.9 -0.6l0.3 -1.5l-2.9 -2.5l0.7 -1.7l-3.3 -2l0.2 -2l1.1 -6.3l1.6 -1.1l2.7 1.5l1.1 -4.4l2.1 -1.3l2.8 -5.1l-1.2 -0.3l1.8 -2.5l-2 -1.7l-2.2 0.6l0.5 -1.3l-3.4 -3.1l-1.4 -10.5l1.6 -5.1l-2.3 -2.7l0.9 -1.7l-2 -4.2l-16 13.6l-12.7 4.3l-28.9 18.4l-0.2 1.3l-2.3 0.6z"/><path data-id="21109" d="m705.5 275.6l0.2 2.8l1.9 4.9l2.6 5.1l1.3 1.4l-1.3 5.4l5.3 4.6l-1.8 0.9l0.7 5.4l2.3 -2.7l1.7 1.5l0.1 3.1l4.1 3.4l3.7 1l-0.3 2.2l5.9 2.4l8.1 0.5l2.9 -1.9l2.7 1.3l0.2 -2.1l3 -4.6l-0.7 -2l2.5 0.1l5.5 -4.1l5 -0.6l-0.2 -2.3l-4.3 -5.5l-4.2 -10.9l-2 -0.6l-2.5 -4.3l-0.2 -6.7l-1.1 -2.2l-1.6 -1.9l-4.5 -5l-3.3 -1.4l-10.5 3l-6 -0.4l-6.8 0.2l-3.9 1.2l-3.6 5.8l-0.8 3.3z"/><path data-id="21111" d="m477.5 191.1l0.2 2.1l3.4 -3.6l3.9 -3.3l5.3 -1.8l3.3 -1.2l3.5 -1.2l10.2 -3.6l1.7 0.2l10.8 1.2l6.5 0.7l2.1 -0.2l2.8 -1.3l1.8 -0.8l11.4 -4.9l0.2 -1.2l0.5 -3.6l2.5 -19.5l-8.3 -3.6l-1.1 -0.7l-2.1 -1.5l-4.6 -3.2l-2.4 -1.7l-5.2 -1.9l2.1 -0.4l-9 -6.5l0 2.4l-1.1 3.9l-1 2.6l-0.8 1.3l-1.2 1.5l-0.8 1.5l-1.1 1l-3.9 2.3l-2.7 1.6l-1.5 0.8l-2.1 -0.9l-0.6 -1.2l-1 -1.1l-1 -0.4l-1.4 0l-1.5 0.6l-1.8 0.3l-1 0.4l-1.4 2.1l-0.4 1.8l0 1l-0.2 1.9l-0.8 1.6l-0.7 1.2l-2.3 1.9l-1.6 1.5l-1.9 2.5l-0.6 1.4l-1.2 3.2l-0.1 3.5l0.6 4.8l0.1 1.8l-0.2 2.4l-0.9 2.1l-0.3 1.2l-0.4 2.1l-0.2 2.2l-0.2 1.5l-0.3 1l-0.8 1.3l-1.2 1.2z"/><path data-id="21113" d="m637.4 220.8l0.9 2.9l2.8 -2.1l2.6 0.3l-0.2 5.9l2.7 1.1l0 -4.3l5.3 1l1.1 1.9l-2.3 -0.7l-2.5 1.4l0.9 2.5l3.4 1.1l1 1.7l-1.6 1.4l1.2 0.9l1.4 -1.7l1.5 0.5l-0.3 2.5l2.1 1.1l2.1 -3.4l2.2 -1l0.1 -2.1l1.7 -0.3l3.9 -2.6l1.8 -2.8l2.7 -0.2l-3 -6.1l1.2 -2.1l3.9 2.1l1.5 -1.1l0.2 -3.5l-2.4 -6.8l-2.5 -2.3l-1 -2.9l-5.6 -2.9l-1.8 -0.9l-4.6 -2.4l-2.8 -1.5l-1.6 -0.5l-7.3 -2.4l-6.5 23.6l1.1 0.2l1.7 1l-4.5 3.6z"/><path data-id="21115" d="m865.3 214.7l-2 1.7l3 4l-1.1 2.9l5.2 3.9l1.3 13l1.8 -0.5l2.4 1.1l1 1.6l3.3 -2.7l0.7 -1.6l3.4 -0.1l7.8 -2.7l2.4 0.7l0.5 -2.4l1.5 0l1.7 2l2.1 -0.9l3 2l2.1 0.3l1.5 1.6l2.6 -0.2l1.7 1.1l-2 -5.4l0.3 -4.2l-2.7 -1.6l1.3 -3.2l2.6 -2.7l-3.4 -4.8l7.7 -4.6l-8.5 -2.2l-7.8 -4l-12.5 -8.6l-5.7 -1.6l-7.4 -3.2l-2.7 -0.6l-2.5 1.6l-2.4 4.5l3.6 8.5l0 3.2l-2.7 -0.8l-1 4.9z"/><path data-id="21117" d="m650.5 12.4l0.2 2l0.7 7.4l0.6 6.8l0.1 1.1l0.2 2.5l1.5 13.1l-1.4 7.8l-0.9 5.2l1.4 1.6l9.6 0.2l14.2 -2.2l-0.8 -3.9l-2.8 1.4l-1.6 -5.2l1.9 -1.9l1.4 -7.2l-3.2 -6.8l4.8 -5.7l-1.8 -0.9l-1.6 2.8l-1.7 -1.7l2 -2.7l-2.5 -1.8l-2.6 -2.9l-0.1 -1.5l0.6 -1.8l-1.6 -3l0.5 -2.4l-1.6 -3.8l-1.8 0.5l-2.9 -1.2l-1.3 0l-1.7 2.1l-1 0.9l-2.7 0.7l-1.2 0.7l-2.4 0.1z"/><path data-id="21119" d="m846.2 283.2l1.4 8.6l1.8 12.1l-0.7 3.6l0.8 1.9l-1.2 0.6l-1 4.5l0.9 3.5l-0.8 1.8l1.4 -0.8l1.9 0.9l4.6 -1.5l-0.1 2.2l1.7 2.5l2.8 -0.2l0.5 1.4l3.1 0.5l0.7 1.6l2.1 1.3l0.7 2.5l2.8 -2.9l1.9 -0.1l1.6 -2l1.5 0.4l3.6 -2.8l2.5 -4.2l2.9 -2.3l2.6 -0.5l1.7 -1.6l2.3 1.2l5.8 -1.4l3.2 -0.3l1.1 -1.6l1.8 -0.7l-2 -0.6l0.1 -2.1l-3.6 -1.1l0.5 -1.4l-0.5 -3.3l-1.6 -2.5l1.5 -3l-0.5 -1.6l0.1 -5.5l-0.9 -1.9l-2.5 -0.7l-3.8 3l-3.3 -0.5l0.5 -3.6l0 -5.1l-12.7 -2.3l-1.8 -1.4l-1 -2.2l-3.4 0.9l-1.5 -1.4l-2.3 0.9l-1.5 -1.2l-2.3 0.4l-2.1 -2.6l-2 -0.7l-1.1 1.6l-2.4 -1l-0.5 4l-5.5 6.8z"/><path data-id="21121" d="m720.4 365.9l1.5 4.8l-0.6 3.6l2 2.3l0.6 6l1.7 -0.3l3.3 6.1l3.6 1.2l0.1 1.7l2.1 0l0.9 3.6l-1.3 3.3l2.4 -0.3l1.2 1.9l0.1 3.6l10.7 6.6l1.6 -4.5l1.4 1.5l1.8 -1l1.7 -5.1l2.5 -0.9l0.1 -2.2l1.6 -1.8l-0.3 -2.1l1.6 -2.5l1.4 0.4l2.9 -1.2l2 0.6l0.1 -1.3l3 -1.9l1.2 -2.6l1.8 -0.5l1.2 -2.5l2.6 -1.6l2.7 -0.3l-0.1 -2.2l1.8 -1.4l1.1 0.7l1.1 -2.2l4.1 -1.2l0.7 -2.9l1.3 -1.5l-2.3 -1.6l-0.7 -2.4l-2.4 0.5l-0.6 -1.2l-3.8 0l-2.5 -2.7l-5.2 -1.7l-4.7 -3.3l0.5 -1.7l-1.5 -1.7l-4.1 1.9l-0.7 -1.3l0.7 -2.4l-3 0.1l-2.4 1.6l-2.1 -0.7l-0.3 -2l-2.9 0.1l-2 -2.1l-4.5 3.7l-2.2 -0.7l-1.2 6.6l-3.6 3.1l-5.4 -0.5l-4.2 -1.3l-1.7 2l-2.9 0.3l-3.2 3.1z"/><path data-id="21123" d="m483.4 280.7l0.2 5.3l18.7 1.5l2.2 1l10 0.6l-1.1 -2.4l3.6 -2.9l0.5 -2.9l3.6 1.8l3.1 -1.5l7.2 2.6l3.9 -4.8l1.3 2.6l3 0.3l-1 -4.3l-2.4 -3.9l-1.5 -5.5l-2.4 -0.9l-2.8 -1.4l-1.1 1.4l0.5 3.9l-2.3 1.2l-3.6 -1.9l-1.8 -2.3l-2.3 1.3l0.1 -1.8l2.5 -2.9l-0.3 -3.6l2.1 -0.9l-2.8 -1.8l-0.3 -1.4l2.8 0.3l1.7 -2.1l1.5 0.6l-0.7 -2.6l-1.4 -0.9l-2.3 0.7l0.8 -2.2l0.4 -6.7l-1.8 -1.2l-2.6 1.1l-1.6 -0.4l-1 -3.2l-3.5 -2.7l-1.1 0l-1.2 2.2l-6.1 10.7l-5.3 2.6l0.2 1.3l-3.5 1.3l0.6 2.5l-2.9 3.9l-0.2 1.7l-2.3 0.9l-4.9 4.1l-2.4 11.9z"/><path data-id="21125" d="m685.4 365.4l-1.3 2.3l2.9 1l6.4 -1.1l4.5 -2.7l0.9 -1.7l-0.2 3.1l1.5 1.1l1.6 1l1.5 -3.1l1.8 2.1l2.5 -0.1l0.9 1.4l2.9 -1.4l3.5 -3.5l1.3 -0.2l2.9 2.6l1.3 -0.3l3.2 -3.1l2.9 -0.3l1.7 -2l4.2 1.3l5.4 0.5l3.6 -3.1l1.2 -6.6l2.2 0.7l4.5 -3.7l-2.2 -3.2l3.3 -2.8l-0.4 -2l-2.3 -0.9l-0.4 -1.6l-2.4 1.4l-3 -0.4l-2.5 -5.9l-3.2 -3.3l2.9 -3.7l0.9 -2.6l-0.4 -7.2l-8.1 -0.5l-5.9 -2.4l0.3 -2.2l-3.7 -1l-4.1 -3.4l-0.1 -3.1l-1.7 -1.5l-2.3 2.7l-1.4 2.9l-4 0.5l-2.9 3.2l-2 0l-0.2 6.2l-1.6 -0.9l-1.5 3.2l-1.7 -1.7l-1.1 3.5l-1.1 1l1.6 0.9l-2.9 1.4l2 2.6l-4.1 1.7l1.1 1.6l0 1.7l0 3.7l-0.9 1.4l2.4 0.5l-1.9 0.7l1.7 1.9l-0.7 2.1l-2.1 0.2l-3.1 4.2l1 0.7l0.1 2.9l1.8 0.3l-0.9 2.1l-2.9 0.2l2.4 2.8l-0.5 1.3l-4.2 1.6l0.6 2.9l-1.7 2z"/><path data-id="21127" d="m861 191.8l0.8 5.6l3.5 1.6l2.4 -4.5l2.5 -1.6l2.7 0.6l7.4 3.2l5.7 1.6l12.5 8.6l7.8 4l8.5 2.2l2.1 -1.8l-0.7 -5.3l2.8 -2l-0.1 -3.4l6 -1.5l4.9 2.9l1.3 0.1l1.7 -1.6l0.7 -3l0.7 -1.2l-1 -1l-1.9 -1.5l-1.8 -0.5l-1 -0.4l-1.2 0.3l-0.2 -1.1l-1.1 -2l0 -1.1l-1.2 -1l-0.6 -1.3l-0.3 -1.4l-0.5 -1l-0.3 -1.1l-0.3 -1.2l-1.3 -0.7l-0.8 -1.3l-1.1 -0.2l-1.3 -1.4l-0.2 -1.2l-0.1 -1.5l-1 -0.7l-0.9 -1l-2.1 -0.5l-0.6 -2l-1.7 -0.7l-0.5 -1.1l0 -1.4l-0.9 -2.3l0.7 -1l1.8 0.1l1.6 0l1.2 -2.9l0.6 -1.6l0.2 -3.3l-1 -0.7l-0.9 -2.2l0.7 -2l-0.4 -3l-3.2 -0.5l-8.6 0.8l-4.9 4.1l-3.9 0.4l-3.6 -1.4l-3.5 1.8l-0.3 4.1l-4 3l-3.9 -1l-5.4 3.5l2.2 3l0.1 4l2.4 3.4l-2.5 2.9l-1.3 -0.6l-3.3 3.6l0 2.2l-1.9 2.4l-3.3 -0.1l-2.7 2.5l-2.6 4.6z"/><path data-id="21129" d="m744.9 269l1.6 1.9l1.1 2.2l2.5 0.7l-0.1 1.4l4.9 3l11.4 -1.2l-0.3 -2.3l1.7 -2.2l4 2.2l2.8 -0.7l3.1 -4.1l2.8 -0.5l1.8 4.8l1.9 -0.7l3.7 1.4l7.5 -21.9l-12.4 -4.7l-1.5 -2l-10.5 -6.2l-1.9 0l-3.6 0.2l-4.1 4.5l-5.5 3.8l1.9 4.8l-3.2 0l-4.4 3.4l1 1.1l-6.2 11z"/><path data-id="21131" d="m791.2 345.6l1.8 1.5l0 3.2l1.7 4.8l2.1 2.9l-1.6 0.8l1.8 9.9l-0.1 2.5l2.6 2l-1.4 2.6l1.3 0l4.5 1.9l6.2 -1.1l1.7 -2.2l-0.5 -2.9l9.9 -3.2l8.4 -4.7l3.9 -5.6l5.9 -0.6l0.5 -2.5l-0.5 -2.3l1 -0.5l0 -4l1.8 -1.8l-1.6 -1.2l1.2 -3.5l-3.5 -1.1l-1.5 -3.3l-2.9 -1.3l1.2 -1.2l-1.1 -1.7l3.3 -2l0 -1.3l-4 -1.6l-2.9 -3.2l-1.1 0.7l-2.5 -1.2l-0.7 -1.6l-1.5 0.5l-1.6 -2.5l-1.8 0.7l-2.6 -5.8l1.1 -2l-2.3 -1.9l0.2 -1.9l-5.8 -2.3l-0.4 -1.8l-4.3 3.3l0 1.7l-2.9 0.3l-3.3 0.4l-1 2.3l0.5 3.3l-3.2 2.6l-2.8 0.8l3.1 4.5l-6.1 6.1l0 8l2.1 2.6l-2.3 3.9z"/><path data-id="21133" d="m844.3 361.7l-0.6 4.1l15.2 -4.6l2 1.1l2.4 -2.6l5.1 -1.4l3.4 -2.2l9.2 6.8l0.8 -1l1.2 -0.8l1.2 0.2l1.2 -0.8l0.9 -1.4l-0.1 -1l1 -0.1l1.1 -0.2l1.7 -0.4l1 0.4l1.5 -0.4l0.6 -1.2l1.3 -1l1.1 -1.1l1 0.3l1 -2.7l1.4 -0.6l1.1 0.3l0.3 -1.6l-0.1 -1.7l-0.4 -1.7l1.1 -0.4l-0.3 -1l-0.6 -1.6l0.5 -1.5l-0.6 -1.7l0.5 -1.3l1.9 -0.9l1.6 -1l1.5 -0.7l1.1 0.1l1.2 -1.2l1.4 -0.5l0.6 -1l2.6 -0.5l1.1 -1.4l1 -0.9l1.2 -0.8l1.4 -0.7l1.4 -1.4l1 -0.5l1.8 -1.3l-3.2 -2.1l-1.6 -3.4l-3.5 -3l-5.6 3.4l-1.7 -0.2l-2.7 -2.3l0.7 -2.1l-3.2 -0.2l-1.1 -2.4l-3.2 0.3l-5.8 1.4l-2.3 -1.2l-1.7 1.6l-2.6 0.5l-2.9 2.3l-2.5 4.2l-3.6 2.8l-1.5 -0.4l-1.6 2l-1.9 0.1l-2.8 2.9l-0.7 -2.5l-2.1 -1.3l-2.2 3l-2.8 2l0.3 1.4l-3.1 5.5l1 5.2l1.4 2l-0.3 3l-2 0.1l-1.8 3.2l2.6 1.2l-0.4 2.9l-7.3 4.1l-1.5 -1.4l-0.6 1.6l-3 1.6z"/><path data-id="21135" d="m779.4 85.2l-0.4 1.1l2.8 4.3l-2.3 14.5l1.7 0.6l0.5 3.1l3.4 0.3l1.2 2.1l2 7.6l-0.9 2.2l3.9 1.9l4.9 0.9l2.3 2.2l4.1 0.4l1.8 2.9l5.4 -2.5l1.5 3.5l2.9 2.2l2.9 6.8l2 0.4l3.8 -2.4l3.7 1.7l4.9 -1.2l2.2 -1.4l-1.2 -2.8l0.9 -3.1l-0.8 -3.9l0.2 -4.9l3.9 -2.5l-0.7 -2.3l1.7 0.2l1.9 -2.6l-0.3 -4.5l2.9 -1.3l2.4 -3.1l0.2 -1.3l4 -1.5l2.2 -3.3l2.3 -4.9l1.4 -1.2l-1.3 -2.6l1.5 -1.9l-0.6 -1.8l2.5 -1.2l0.6 -4.1l1.6 -0.3l1.9 -3l-2.7 -3.7l-1.1 1.6l-1.5 1.2l-2.6 1.3l-2.4 0.6l-1.2 1l-1.3 2.1l-0.5 2.3l-1.1 2.2l-1.1 1.1l-1.9 0.8l-1 0.1l-1 0l-2.5 0.4l-1.5 0.1l-1.1 -0.3l-1.6 -0.9l-1.2 -0.6l-1.7 -0.1l-1.2 0.8l-1.3 0.3l-0.6 1l-2.4 2.7l-1 0.4l-1 -0.3l-1.3 -0.8l-0.8 -1l-0.3 -1.1l-0.1 -1.1l-0.2 -1.3l-0.7 -1.2l-1.6 -1.4l-2.2 -1.4l-1.3 -0.8l-1.3 -0.5l-1.1 -0.3l-3.6 -0.6l-1.1 -0.3l-2.7 -0.2l-2.2 -0.7l-1.5 -0.2l-1.1 -1.1l-1.3 -1.3l-2.3 -1.6l-1.1 -0.4l-1.1 -0.2l-1.6 0.2l-2.1 0.6l-1.7 0.6l-1 0.4l-6.2 1.4l-1.5 0.8l-0.9 1l-0.8 2.4l-0.1 1.1l-0.4 1.5z"/><path data-id="21137" d="m619.8 271.4l-0.4 10.1l1.2 6.7l7.2 6.1l9.6 5l2.2 10l-2.4 2.2l1 5.8l-0.5 2.2l19.3 -17.3l2.3 -2.1l7 4.5l7.4 -26l-0.7 -1.1l-2.7 -0.3l-19.1 -16.4l-0.5 -1.7l-1.6 0.3l-2.4 -2.7l1.1 -2.3l-0.9 -1.4l-1 1l0.8 1.6l-0.8 1.2l-4 -1.3l0 2.1l-5.7 3.8l-2 0.6l0.3 -1.4l-1.4 -0.3l-0.2 1.2l1.1 0.4l-4.6 1.6l-8.4 4.7l-1.3 3.3z"/><path data-id="21139" d="m132.5 345.7l-0.3 1.8l5.2 5.4l4 2.1l1.8 0l4.5 -2l2.9 -2.5l4.3 -0.9l3.7 -1.4l3.5 0.5l4.1 2.1l8.9 11l4.1 -3l-2.3 -4.5l1.4 -4.7l-2 -4.2l1.9 -2.3l0.8 -5.7l2.3 -2.8l0.8 -1.2l-1.4 -3.4l-2.9 -1.3l3.1 -6l-3 -8.9l-6.4 -7.3l-3.5 -3l-1.7 -5.5l0.9 -1.9l-2.5 -3l-4.8 0.1l-0.5 -1.3l-1.7 0.3l-0.8 -1.2l-1.3 -1.1l-1.3 -0.9l-1.5 -0.6l-1.3 0.5l-1 0.4l-1.7 0.5l-1.4 0.8l-2.1 1.8l-1.4 2.3l-0.3 2l-0.5 1.7l-0.1 1.6l-0.2 1.5l-0.3 1l-0.9 2l-0.8 1.6l-0.6 1.6l-0.9 1.5l-0.4 1.3l-0.2 1.1l0.8 1.8l0.3 1.1l-0.1 1l1 1.1l1.1 0.8l1 1.2l0.7 1.8l1 1.6l1.7 1.1l1.1 1.1l1.2 3l0.3 1.2l0.8 2.6l0.5 1.2l0.7 1.1l-1.3 4.3l-1.1 2.8l-0.1 1.7l-1.9 4.1l-2.3 0.9l-1.8 0.1l-1.9 0.4l-1.3 0l-2.2 -0.4l-1.8 -0.5l-1.9 -1z"/><path data-id="21141" d="m330.2 400.1l-0.2 17.2l6.5 -0.1l13.8 -0.4l6.9 -0.1l2.8 -0.1l1.9 -0.1l7.2 -0.2l1.6 -12.8l1.5 -4.7l3.1 -6.5l1.6 -2.4l1.8 -5.7l4.6 -5.3l3.1 -1.1l2.7 0l-0.6 -1.5l-7.6 -17.7l-22.5 -9.3l-12.6 -2.1l-4.6 -0.8l-10.1 2.1l-0.7 42.2l1.1 6.1l-1.2 3.2z"/><path data-id="21143" d="m179.1 358.7l-4.1 3l6.7 7.6l1.2 5.7l3 5.5l14.1 -5.1l6.2 -2l14.7 -8.2l1.8 0l-12.9 -17.7l-8.8 -17.7l-7.1 -0.8l-2.9 4.1l-1.7 -0.6l-0.7 1.8l-2.2 -0.3l-1.3 1.1l0.4 1.7l-3.2 1.1l0.2 -1.2l-2 0.3l0.5 -2.6l-2.3 2.8l-0.8 5.7l-1.9 2.3l2 4.2l-1.4 4.7l2.3 4.5z"/><path data-id="21145" d="m83.9 321.1l8.4 24.9l6.2 18l0.8 2.2l0.4 1.2l13.6 0.1l1.3 0.6l16.6 -0.1l11.7 0.2l-0.1 -6.4l0 -3.3l0.3 -3.5l-1.8 0l-4 -2.1l-5.2 -5.4l0.3 -1.8l-1.7 -1.2l-1.6 -2.3l-1.5 -1.2l-1.4 -0.9l-1.9 -1.1l-1.6 -0.4l-6.5 -3l-1.9 -0.5l-2.3 0.3l-1.5 -0.6l-1.9 -1.2l-2.5 -1.8l-1.4 -1l-1.5 -1.6l-1.4 -1l-1.1 -0.6l-2 -0.6l-1.9 -0.7l-4.5 -2.2l-4.4 -1.6l-1.9 -0.8l-1.4 -0.4z"/><path data-id="21147" d="m643.9 401.5l-13.7 22.3l20.2 0.6l10.8 0.5l5.7 -0.1l7.5 0.1l22.6 0.7l1.3 0l4.5 0l-1.6 -3.5l-4.2 -3.4l-4.7 -7l-1.6 -5.4l-0.4 -8l-1.3 -0.3l-0.7 -2.3l-1.6 -1l0.6 -3.9l-1.4 -1l1.4 -1.7l3.5 -1.8l-3.4 -0.8l3.9 -3.6l-1.3 -1.9l1.2 -1.3l-0.8 -2l0.8 -2.4l1.5 -1.2l-0.9 -3.2l1.7 -2.3l-6.4 1.1l-2.9 -1l1.3 -2.3l-1.1 -0.6l-2.1 1.6l-4.5 1l-21.2 13.1l-1.8 0.8l2.3 3l-2.8 1.2l2.3 2l-0.5 3.5l-2.4 -0.8l0.5 1.4l-3.5 1l-1.1 1.1l-0.4 3l-5.2 1.3l0 3.6z"/><path data-id="21149" d="m272.9 251.6l-0.6 3.3l2.2 4.4l2.2 1.1l9.1 0.8l2.9 3.2l2 4.2l-0.9 1.7l2.3 2.7l-1.6 5.1l1.4 10.5l3.4 3.1l-0.5 1.3l2.2 -0.6l2 1.7l11.2 1.8l5.2 -5.4l7.7 0.3l1.6 -0.7l-0.6 -7.4l-4.1 -4l2.9 2.3l1.3 -1.6l7.1 -11.7l1.5 -1.5l-2.5 -1.6l-5 0.6l-5.7 -1.4l-2.8 -1.9l-13.4 -5.8l-19.3 -10.2l-0.8 1.7l-7.7 1.5l-3 2.9z"/><path data-id="21151" d="m663.4 231.4l1.9 0.7l-0.5 1.3l2.7 1.6l-1.1 2.2l2 1l0.3 2.8l1.4 0.5l2.7 2.8l-1.4 0.7l2.4 2.6l2.2 4.7l2.3 2.1l-1.2 2l2.9 0.3l0.4 2.8l3.2 1.2l0.2 3.4l3 5.5l5.8 0.3l0.3 2.3l4.4 1.3l5.8 -2l3.3 0.7l3.6 -5.8l3.9 -1.2l6.8 -0.2l-2.9 -6.5l-1.9 -6.1l5 -4.3l-0.5 -6.9l-0.8 -1.5l2.4 -5l-0.1 -3l-2.8 -1.1l3.8 -4.6l-3.3 -2.4l-3 0.4l3.8 -3.8l1.6 -2.9l-1.6 -1.4l-1.9 1.8l-3.1 -2.9l-4.7 1l-2.6 -2.9l-4.6 1.2l-2.1 -2.6l-3.3 1.7l-0.3 -1.2l-0.7 -5.5l-8.8 4.2l-0.5 1.7l-4.9 -3.3l-0.7 1.3l2.4 5.8l-2.7 2.2l-3.2 -4.3l-3.3 4l-1.5 1.1l-3.9 -2.1l-1.2 2.1l3 6.1l-2.7 0.2l-1.8 2.8l-3.9 2.6z"/><path data-id="21153" d="m831.4 228.7l-3.1 2.7l3.6 4.2l-2.5 5.2l2.5 2.4l-1.9 2.1l1.2 2.6l1.5 0.3l2 2.9l2.2 1l4.5 0.5l3.9 3.8l0.9 2l2.7 -0.8l3.3 -3.4l2.3 3.8l1.2 -0.3l0.8 2.1l2.4 2.4l1.5 -0.9l2 1l-0.7 5.8l1.4 -0.2l1.4 3.6l4.9 1.7l1.5 2.5l1 2.2l2.1 0.5l2.1 -0.8l-0.1 -1.3l1.9 -1.6l0.5 -3.9l1.8 -0.5l-1.4 -1.4l0.1 -3.4l-1.7 -2l0.7 -1.9l-1.3 -3l0.4 -5.7l-1.2 -2.1l-2 -0.5l-2.4 -3.6l0.7 -6.4l-1.3 -13l-5.2 -3.9l1.1 -2.9l-3 -4l-2.2 -1.4l-1.7 -3.1l-1 2.4l-1.9 0.4l-4.3 -3.4l-5.2 -0.7l2.1 5l-8 5.4l-0.6 1.7l-3.9 0.4l-2.3 4.8l-2.8 0.8z"/><path data-id="21155" d="m532.5 267.1l2.4 0.9l1.5 5.5l2.4 3.9l1 4.3l3 -1.9l5.3 0.3l0.7 1.1l3.7 0.4l3.8 -0.6l2.7 3.2l1.1 -0.1l4.4 2.6l1.5 3l2.7 -0.6l2.4 -3.4l2.9 -0.4l1.6 -1.9l2.9 -1.7l3.7 2.9l1.9 -1l2.2 2.8l1.9 0.7l1.3 2.3l1.9 0.8l3.8 0.2l0.2 -14.5l0.5 -7.5l1.2 -14.3l-17.9 0l-12 0l-7.1 -3.5l-3.9 0.1l-1.1 -0.7l-3.2 -2.9l0.6 -2.5l-0.7 -2.4l-2.1 -1.8l-1.4 -2.9l-6.4 7.4l-9.3 21.8z"/><path data-id="21157" d="m143 368.2l-0.2 31.5l46 0.3l3.3 0.2l-2.5 -9.9l-3.6 -9.8l-3 -5.5l-1.2 -5.7l-6.7 -7.6l-8.9 -11l-4.1 -2.1l-3.5 -0.5l-3.7 1.4l-4.3 0.9l-2.9 2.5l-4.5 2l-0.3 3.5l0 3.3l0.1 6.4z"/><path data-id="21159" d="m908.1 225.1l-1.3 3.2l2.7 1.6l-0.3 4.2l2 5.4l2.5 2.6l7.5 2.6l1.1 -0.3l4.7 -0.5l2.3 0.9l1.7 1.7l3.2 -0.8l1.3 2.4l5 -2l1.8 1.6l2.3 -4.3l-3.5 -2.5l4.9 -4.5l5.6 -0.2l0.7 -1.2l1 -1.2l-0.8 -1.1l-1.1 -2.1l-0.5 -1.7l-1.2 -0.3l-0.7 -1l-1.2 -0.4l-0.9 -1.1l-1 -1.1l-0.8 -1.5l-2 -2.1l-1.1 -0.9l-0.5 -1.6l-1.1 -0.4l-0.1 -1.3l-0.3 -1l0.8 -1.7l-0.2 -2l-1.3 -1l-0.9 -1.5l-1.6 -1.2l-3.1 0.8l-2.2 -3l-1.1 -1.7l-0.8 -1l0.6 -1.7l-4.9 -3.3l-6 1.5l0.1 3.4l-2.8 2l0.7 5.3l-2.1 1.8l-7.7 4.6l3.4 4.8l-2.6 2.7z"/><path data-id="21161" d="m733.6 93.5l2.8 1.2l1.3 9.1l4 6.8l9.3 6l18.1 -8l10.5 -3.6l2.3 -14.5l-2.8 -4.3l-0.9 1.1l-1.4 0.4l-2.1 -0.3l-3.2 -1.6l-1.3 -0.3l-1 -0.8l-2.3 -0.2l-1.5 -0.3l-1.6 -0.4l-1.3 -1l-0.5 -1.4l-0.6 -3.1l-0.5 -1.8l-1 -1l-1 -0.5l-1 -0.3l-1 -0.1l-1 -0.4l-1.6 -1.1l-0.9 -1l-0.2 -1.5l-0.3 -1.2l-0.5 -1.6l-1.3 -1.6l-1 -0.6l-2.7 -0.9l-2.2 -0.4l-11.5 29.4z"/><path data-id="21163" d="m406.4 185.4l-1.4 0l8.1 7.6l24.5 20.5l4.4 5.2l7.6 7.8l18.9 -3.3l2.9 -6.7l1.3 -2.9l-0.8 -5.7l-1.9 -12.9l-0.3 -2.1l-1.3 0.2l-1.5 0.4l-1.2 0.6l-0.7 1.3l0.2 2.4l-0.1 1l-1 1.1l-1.5 -0.9l-1 -1.3l-1.3 -2.6l-0.4 -1l-0.7 -1.4l-1 -0.7l-1.1 -0.6l-1.6 -0.7l-1.3 -0.3l-1.2 -0.1l-1.8 0.1l-3.5 0.9l-1.5 -0.2l-1.6 -0.9l-2 -0.9l-1.8 -1l-1.7 -1.9l-2.2 -1.1l-1.5 -1.2l-1.6 -2.4l-0.7 -3.7l0 -1.5l1 -5.3l-0.1 -1.3l-2.1 -3.4l-2.2 -1.6l-1.7 -0.8l-1.7 -1.4l-2.4 -2.4l-1.7 -0.6l-1.8 0.9l-0.6 1.2l0.1 2.4l0.7 1.2l2.4 0.8l3.6 0.9l0.6 1.2l-0.3 1.4l-0.7 1l-3.2 0.7l-3 -0.4l-1.6 1l-1.2 2.8l-1.1 0.3l-1.8 -2l-1.7 -1.4l-2.4 -0.2l-1 0.4l-1.2 1.7l0 1.3l1 1.7l3.3 1.6l0.5 1.4l-0.4 1.9l-0.7 1.1l-1.8 1.7l-2.6 0.7l-1.1 0.1z"/><path data-id="21165" d="m762 194.9l0.8 11.7l2.4 3.7l10.9 7.3l0.6 2.9l4.2 1.6l1.4 -1.6l4 2.7l5.1 -0.5l3.6 -1.6l0.9 -3.4l2.9 -1.7l-1.5 -1.3l1.4 -3.5l6.8 -8.6l1.4 -15.3l-3.9 2.8l0.9 -2.7l-2.9 0.1l1.9 -3l-4.6 -0.1l-10 -1.4l0.3 6l-1 1.9l-3.2 -0.5l-0.7 1.2l-3.3 -3.3l-3.3 -0.2l-3.9 2.7l-2.2 -0.1l-1.7 1.6l-1.6 -1.2l-3.7 2l-2.1 1.7z"/><path data-id="21167" d="m597 211l-0.1 1.7l4.1 4.5l-0.4 3.3l-0.3 3.1l-2.5 22.9l3.3 -0.2l25.2 -4.1l1.9 -2.1l6.4 0.7l2.4 -0.1l-0.2 -2.5l1.4 0.7l3.7 -0.5l-2.3 -0.8l2 -2.2l-1.6 -0.2l1.2 -2.8l-2.8 -1.1l1.7 -2.7l-1.8 -2.2l-0.1 -2.6l-0.9 -2.9l4.5 -3.6l-1.7 -1l-1.1 -0.2l-1.4 0l-3.1 1.9l-2.7 0.5l-1.2 -1.6l2 -2.8l-0.9 -2.5l-1.8 -0.3l0.7 -2.2l-1.1 -0.6l-1.4 3.1l-1 -0.1l0.7 -4.2l-4.1 -0.3l0.7 -1.7l3.2 -1.6l-2.9 -1.5l0.1 -1.2l2.8 -1.7l0.1 -1.1l-11.5 5l-1.8 -1.3l-4.7 -1.1l-5.3 3.1l-1.8 5l-1.7 -0.2l-1 2.7l-2.6 1.1l-0.4 -1.2z"/><path data-id="21169" d="m498.9 335.9l0.7 4.7l2.1 0l-0.4 6.8l0.5 6.9l0.7 3.4l1.5 27l16.6 1.4l1.4 0.5l0.8 1.9l2 -0.8l0.9 -2.5l-2.6 -3.2l-1 -2.4l2.8 0.5l2.6 3l3.1 -1.9l3.9 -0.9l4.4 -4.3l2.9 -7.3l1.3 -2.6l-8.1 -8.8l-2.5 -9.8l-0.5 -6.9l-8.4 -1.1l-5.4 -1.4l-3.8 -3l-3.4 -6.5l-7.6 2.1l-2 3.2l-2.3 2z"/><path data-id="21171" d="m472.6 404.2l3.6 10l-0.2 1.7l-3.3 3.7l2.1 0.1l11.3 0.7l5.5 0.3l4 -0.1l1.7 0.1l7.5 0.2l7.1 0.4l16.5 0.4l8.4 0.1l6.8 -0.6l-8 -11.8l3.4 -7l-6.1 0.3l-3.3 -7.1l-3.8 0.6l-2.3 -1.1l-1 -6.7l-0.8 -1.9l-1.4 -0.5l-16.6 -1.4l-4.3 0.8l-4.6 2.4l-22.3 16.2z"/><path data-id="21173" d="m733.8 163.7l-11.9 10l13 26.2l2 4.6l7.6 2.3l2.9 0l1 1.9l6.6 -0.2l1.8 1l4.4 -1.3l1.7 -1.7l-0.8 -11.7l2.1 -1.7l0.3 -1.3l-5.9 -5.9l-2.5 -6.6l-8 -9.3l-12.3 -3.7l1.2 -2l-1.8 -1l0.2 -2.6l-1.6 2.9z"/><path data-id="21175" d="m798.7 211.2l-1.4 3.5l1.5 1.3l2.2 1.7l-0.8 1.3l3.8 0.2l2.9 3.9l6.1 0.9l-0.2 2.2l3.1 0.2l3.7 3.4l0.3 2.5l1 1.8l5.8 2.7l0.1 3l2.5 1l2.5 -5.2l-3.6 -4.2l3.1 -2.7l2.8 -0.8l2.3 -4.8l3.9 -0.4l0.6 -1.7l8 -5.4l-2.1 -5l5.2 0.7l4.3 3.4l1.9 -0.4l1 -2.4l1.7 3.1l2.2 1.4l2 -1.7l1 -4.9l2.7 0.8l0 -3.2l-3.6 -8.5l-3.5 -1.6l-0.8 -5.6l-3.4 1.7l-2.3 -1.9l-4.8 -0.3l-1.1 1l-3.5 0l-1.1 1.2l-1 -2.3l-2.9 -1.1l-2.7 1.1l-3.6 -2.8l-0.2 -2.8l-1.3 -1.3l-2.3 0.3l-2.3 -1.5l-0.4 -1.7l1.3 -5.5l-0.3 -2.2l-4.7 3.8l-4.6 1.4l-3.2 3.1l-1.7 -0.6l-1.2 3l-3.7 2.1l-1 -1.4l-3 1.2l0.7 1l-1.4 15.3l-6.8 8.6z"/><path data-id="21177" d="m287.2 313.6l-0.2 2l3.3 2l-0.7 1.7l2.9 2.5l-0.3 1.5l1.9 0.6l1.3 2.4l2.3 0.8l-1.4 0.9l0.7 1.6l-2 0.9l-0.9 2.3l-0.1 4.2l3.7 4l2.8 -0.1l0.6 3.1l0.7 3.1l1.9 -0.3l1.9 1.4l-0.7 3.9l17.4 -0.7l8.5 -2.7l10.1 -2.1l4.6 0.8l0.1 -1.6l2.5 0.1l3.6 -1.7l-1.3 -2.2l0.3 -1.8l2.6 0.1l-2.4 -1.8l-0.1 -1.9l-2.1 1.4l0.4 -1.7l-1.5 -1.1l-1.9 0.9l1.5 -3.8l0.6 -3.3l3.5 0.5l-1.3 -4.1l0.8 -1.6l-2.6 -2.1l1.3 -1.3l-1.8 -1.4l-3.1 0.1l-1 -2.8l-2.2 -0.1l-1.5 -1.9l0.2 -2.8l-1 -2.6l0.3 -2.4l-4 -6l-1.9 -1.7l-2.8 -1l-2.6 -0.1l-2.1 1.7l-2.2 5.3l-2.3 0.3l-2.1 -1.6l1.7 -4.1l3.8 -2.6l-0.6 -6.6l-1.6 0.7l-7.7 -0.3l-5.2 5.4l-11.2 -1.8l-1.8 2.5l1.2 0.3l-2.8 5.1l-2.1 1.3l-1.1 4.4l-2.7 -1.5l-1.6 1.1l-1.1 6.3z"/><path data-id="21179" d="m504 224.3l-0.4 3.8l1.6 2.5l5.3 3.2l1.5 3.5l4 2.9l1 3.2l1.6 0.4l2.6 -1.1l1.8 1.2l-0.4 6.7l-0.8 2.2l2.3 -0.7l1.4 0.9l0.7 2.6l-1.5 -0.6l-1.7 2.1l-2.8 -0.3l0.3 1.4l2.8 1.8l-2.1 0.9l0.3 3.6l-2.5 2.9l-0.1 1.8l2.3 -1.3l1.8 2.3l3.6 1.9l2.3 -1.2l-0.5 -3.9l1.1 -1.4l2.8 1.4l9.3 -21.8l6.4 -7.4l2 -1.7l1.7 0.2l-0.2 -4.1l2.9 1.2l-0.4 -4.5l2.3 0.6l0.2 -1.1l3.7 -1.1l-0.7 -1.9l1.9 -4.4l2.9 -1.3l-0.5 -1.6l2.2 0.7l2.8 -0.7l-1.5 -3l2.8 0.1l0.8 1.8l1.4 -2.7l-0.2 2.6l1.7 1.6l1.1 -2l-1.1 -0.8l1.2 -2.9l-0.5 -2.9l3.6 1.7l2.4 0.4l0.1 -2l-2 -12.4l-18 3.1l-9.7 2.1l-2.7 0.1l-3.5 -3.3l-4.9 -2l-3.4 -3.2l-5.9 4.2l1.4 1.3l-3.3 4.9l-4.6 2.9l-0.1 2.9l1.1 1.4l-3.1 2.6l-1.8 -0.1l0.3 1.9l-4.3 4.1l-4.9 3.1l-1.4 -0.6l-4.3 2.1l-1.8 -1z"/><path data-id="21181" d="m707 130.8l3.7 2.8l4.4 8.4l0.3 1.6l3.4 1.6l-2.1 1.7l2.2 0.9l1.1 1.8l0.8 -2.3l1.7 0.7l-0.2 2.1l2.7 0l0.5 2.8l-1.3 0.7l3.8 1.9l0.9 1.6l2.5 -1l1.8 2.7l0.7 -2.5l1.5 -0.2l1.1 1.8l-1.1 2.9l15.4 -16l1.6 -1.5l1.9 -3.1l-1.9 -1.7l1.2 -2.2l-2.4 0.8l0 -2.9l-1.2 0.4l-0.8 -2.1l-3.4 2.3l1.1 -2.5l-3.3 0.6l-0.7 -3.9l-3.6 -6.6l-4.1 -2.8l-2.5 2.9l-1.4 -1.8l-8.3 -4.1l-3.8 -0.3l-12.1 14.7z"/><path data-id="21183" d="m321.7 299.3l-1.7 4.1l2.1 1.6l2.3 -0.3l2.2 -5.3l2.1 -1.7l2.6 0.1l2.8 1l1.9 1.7l4 6l-0.3 2.4l1 2.6l-0.2 2.8l1.5 1.9l2.2 0.1l1 2.8l3.1 -0.1l1.8 1.4l-1.3 1.3l2.6 2.1l1.8 -1.7l0.3 -2.1l2.9 -2.8l1.1 0.2l1.2 -3l2.2 -2.2l0.3 -2.1l2.3 0.5l-1.4 -2.3l0.4 -3.9l1.9 -0.9l3.3 1.3l0.8 2.9l1.3 0.8l19.4 -15.1l-6.8 -25l-0.1 -1.7l2.4 0.2l1 -1.8l1.9 0.1l0.7 2l3 2.7l-0.1 -1.2l2.5 -0.4l0.3 -1.1l-2.1 -1.8l-3.6 -3.8l-2.7 -5.3l0.2 -7.1l-24.3 -12.6l-5.7 4.8l6.4 5.8l-3.1 1.3l-1.7 1.8l-5.1 2l-1.6 2.2l-3.2 1.1l-1.9 -0.8l-8.2 7.9l-4.2 3.3l-1.5 1.5l-7.1 11.7l-1.3 1.6l-2.9 -2.3l4.1 4l0.6 7.4l0.6 6.6l-3.8 2.6z"/><path data-id="21185" d="m517.1 129.3l9 6.5l-2.1 0.4l5.2 1.9l2.4 1.7l3.8 2.7l2.9 2l1.1 0.7l2.6 -3.1l2.8 1.9l1 -1.7l1 1.5l3.3 -2.4l4.5 0.8l3.6 -1.2l5.4 -8l-5.5 -7.7l-0.9 -6.6l-1.9 -2.8l4.2 -5.6l-1.3 -1.4l-5.3 -1.1l-1.9 -1.9l-6.5 -0.1l-1.8 -0.2l-2.2 1l-1 0.7l-1 1.1l-0.4 1l-0.4 1.6l-1.3 2.2l-1 1.1l-2.4 1.2l-1.3 0.5l-1.2 0.4l-2.2 0.4l-2.9 0.1l-1.6 0.5l-2.1 1.4l-2.2 3.2l-0.2 1l-1.1 2.5l-0.4 1.1l-0.7 2.6z"/><path data-id="21187" d="m591.2 93l-0.2 3l1.8 2.4l2.6 -1.6l4.4 2.1l0.9 1.5l-3.6 7l1.6 1l1.3 -1.5l2.9 -0.8l1 0.9l-2 3l0.4 1.4l4.2 2.3l0.7 2.8l-1.5 3.3l1.8 1.9l1.4 -0.3l0.1 -3.8l2 -2.4l1.4 0.8l0.3 1.8l-2 1.3l0 1.8l3.8 1.1l2 1.5l-2.3 4.5l0.4 2.4l3.4 1.1l-0.3 2l4.2 0l5.9 3.1l6.9 -2.3l4.5 -3l3.2 -3.4l7.6 -6.9l5.7 -7l-2.7 -1.3l-3.4 -0.7l-2.1 -4.8l-1.9 -3.1l-2.3 0l1.2 -1.9l-2 -2.7l-12.3 -9.9l-1.5 -17.2l-1 -0.7l-4.8 2.2l-1.9 2.5l-3.4 -0.3l-4.6 4.9l-2.7 -0.6l-1.1 1.9l-0.3 1.9l-4.3 0.4l-0.6 2l-5.3 0.7l-1.2 3.1l-4.7 0.5l-1.9 2.4z"/><path data-id="21189" d="m747.5 273.2l0.2 6.7l2.5 4.3l2 0.6l4.2 10.9l4.3 5.5l8.8 1.6l5.2 0.3l1.4 -3l2 -0.5l1.9 2.3l2.1 4.9l1.8 1l1.5 2.7l1.9 -0.4l2.3 3.2l-0.3 1.4l3.4 0l1.9 1.5l0.7 -2.4l-4 -2.4l0.5 -7.8l1.8 -3l-1.5 -1.5l-0.5 -5.3l2 -3.9l-2 -4.7l-3.9 -10l-3.7 -1.4l-1.9 0.7l-1.8 -4.8l-2.8 0.5l-3.1 4.1l-2.8 0.7l-4 -2.2l-1.7 2.2l0.3 2.3l-11.4 1.2l-4.9 -3l0.1 -1.4l-2.5 -0.7z"/><path data-id="21191" d="m662.5 60.1l7.4 42l3.6 2.2l0 -1.2l3.8 -1.2l-1.1 -0.5l2 -3.1l1.6 0.7l25.6 -3.6l1.3 -1.1l-0.7 -2.6l-0.8 1.1l-3.8 -37.9l0.6 -1.4l-0.3 -2l-0.1 -1.8l0.2 -3.3l-20.4 10.3l-2.7 1.1l-1.3 -0.1l-15 2.4z"/><path data-id="21193" d="m791.9 303.5l-0.5 7.8l4 2.4l-0.7 2.4l2.1 0.6l0.4 3.2l3.2 -2.6l-0.5 -3.3l1 -2.3l2.4 -1.3l3.8 0.6l0 -1.7l4.3 -3.3l0.4 1.8l5.8 2.3l-0.2 1.9l2.3 1.9l-1.1 2l2.6 5.8l1.8 -0.7l1.6 2.5l1.5 -0.5l0.7 1.6l2.5 1.2l1.1 -0.7l2.9 3.2l4 1.6l0 1.3l-3.3 2l1.1 1.7l-1.2 1.2l2.9 1.3l1.5 3.3l3.5 1.1l-1.2 3.5l1.6 1.2l-1.8 1.8l0 4l-1 0.5l0.5 2.3l2.6 0l5.3 3.3l1.5 1.4l7.3 -4.1l0.4 -2.9l-2.6 -1.2l1.8 -3.2l2 -0.1l0.3 -3l-1.4 -2l-1 -5.2l3.1 -5.5l-0.3 -1.4l2.8 -2l2.2 -3l-0.7 -1.6l-3.1 -0.5l-0.5 -1.4l-2.8 0.2l-1.7 -2.5l0.1 -2.2l-4.6 1.5l-1.9 -0.9l-1.4 0.8l0.8 -1.8l-0.9 -3.5l1 -4.5l1.2 -0.6l-0.8 -1.9l0.7 -3.6l-1.8 -12.1l-9.9 -1.6l-0.3 -2.6l-1.6 -2.2l-7.3 7.4l-4.3 2.1l-1.1 1.4l-2.9 -0.3l-1.4 2.4l-1.9 1.2l-1.4 0l-0.2 1.9l-1.6 1.4l-2.9 0l-2.4 -2.1l-3.6 -4.6l-1.8 1l-1.8 -0.7l-1.3 3.1l-6.5 4.7l-1.5 -0.7z"/><path data-id="21195" d="m900.1 312.3l-1.1 1.6l1.1 2.4l3.2 0.2l-0.7 2.1l2.7 2.3l1.7 0.2l5.6 -3.4l3.5 3l1.6 3.4l3.2 2.1l1.5 -1.1l2.9 -1.6l1 -0.5l1 -0.6l1.1 -0.6l1.3 -0.8l1.5 -0.6l1.8 -0.8l1.3 -0.4l1.5 -0.7l2.2 -0.6l2.3 -0.8l4.3 -1.4l1.2 -0.1l1.6 -0.7l1.2 -0.1l1.8 -1.5l0 -1.1l1.3 -0.2l1.6 -0.9l0.2 -1l0.9 -1l2.3 -1.9l4.9 -4.3l6.8 -6l10.2 -8.8l8.2 -7.2l1.6 -1.6l10.9 -9.5l-0.2 -1.5l-1.4 0.7l-1.1 0l-2.5 1.5l-1.1 -0.1l-0.4 -1l-1.4 0.5l-1.1 -0.8l-1 -0.7l-1.3 1.6l-1.2 0.1l0 -1l-1.3 -2.1l-1.5 0l-2.3 -0.4l-1.9 -0.2l-1 -2.8l-0.4 -1.7l-0.6 -1.1l-1.3 -0.3l-2 0.4l-1 -2.6l-1.6 -1.7l-0.7 -1l-1.4 -0.3l-1.2 -0.4l-1.1 0.5l-1.4 -1.5l0.5 -1l-1.1 -1.2l-0.2 -1l-1.7 -1.4l-1.7 0.7l-2 -0.9l-1.3 -1.2l-1.1 0l-1 -0.1l0.1 -1.3l-0.2 -1.4l-0.9 -1.2l0.7 -1l-0.5 -1l-1.3 -1.2l-0.8 -1.4l-0.2 -1l-0.2 -1l-1 -0.4l-6.4 -0.6l-4.9 4.5l3.5 2.5l-2.3 4.3l-1.8 -1.6l-5 2l-1.3 -2.4l-3.2 0.8l-1.7 -1.7l-2.3 -0.9l-4.7 0.5l-0.9 1l-6.7 2.4l2.1 4.7l-3.3 22.9l3.4 0.2l1.4 4.9l-0.2 4.4l-1.7 1.7l-0.4 4.3l-2.3 2.8l0.4 1.1l-1.9 1.2l-2.7 -0.2l-1.6 1.7l1.9 3.1l-2.3 5l-0.3 2.4l-2.8 0.1l-0.9 2.6l-1.4 0.9l-1.8 0.7z"/><path data-id="21197" d="m731.6 216.3l-2.8 -1.6l3.3 5.3l1.4 -2.1l3.8 0.9l-0.1 7.4l6.8 5.6l0.7 1.2l5.4 1.2l4.6 -2.2l1.2 3.3l2.3 -1.9l3.5 0l1.1 2.6l2.7 1.5l3.4 0.5l0.1 2.1l1.9 0l10.1 -18.1l-4.2 -1.6l-0.6 -2.9l-10.9 -7.3l-2.4 -3.7l-1.7 1.7l-4.4 1.3l-1.8 -1l-6.6 0.2l-1 -1.9l-2.9 0l-7.6 -2.3l-3.3 2.2l0.2 3l-2.1 6.6z"/><path data-id="21199" d="m613.2 344.3l0.2 6.6l5.5 6.4l3.7 1.7l3.6 1.6l3.3 1.5l1.8 3.4l5.2 -1.4l3.1 -2.4l4.3 1.1l7.1 12.8l2.6 2.7l2.4 -2.1l-1 1.6l1.5 2.5l21.2 -13.1l4.5 -1l2.1 -1.6l1.1 0.6l1.7 -2l-0.6 -2.9l4.2 -1.6l0.5 -1.3l-2.4 -2.8l2.9 -0.2l0.9 -2.1l-1.8 -0.3l-0.1 -2.9l-1 -0.7l3.1 -4.2l2.1 -0.2l0.7 -2.1l-1.7 -1.9l1.9 -0.7l-2.4 -0.5l0.9 -1.4l0 -3.7l-0.4 -1.5l-1.1 -0.6l-12.7 -12.8l-6.5 -6.2l-7.4 -8.2l-7 -4.5l-2.3 2.1l-19.3 17.3l-11.9 10.7l-11.8 9.5l-0.8 4.8z"/><path data-id="21201" d="m709 103.8l-0.7 5.8l4 1.3l0.5 1.8l2.3 -0.7l4 4l3.8 0.3l8.3 4.1l1.4 1.8l2.5 -2.9l-0.4 -2.1l6.9 -6.8l-4 -6.8l-1.3 -9.1l-2.8 -1.2l-0.7 1.7l-4.8 0.1l-1.5 -2.9l-3.9 0.2l-1.2 -1.7l0 1.8l-2.8 1.9l-2.3 3.7l-3.2 2.4l-2.1 -0.7l-2.2 3.6z"/><path data-id="21203" d="m673.7 278.4l-7.4 26l7.4 8.2l6.5 6.2l12.7 12.8l1.1 0.6l0.4 1.5l0 -1.7l-1.5 -1.3l4.5 -2l-2 -2.6l2.9 -1.4l-1.6 -0.9l1.1 -1l1.1 -3.5l1.7 1.7l1.5 -3.2l1.6 0.9l0.2 -6.2l2 0l2.9 -3.2l4 -0.5l1.4 -2.9l-0.7 -5.4l1.8 -0.9l-5.3 -4.6l1.3 -5.4l-1.3 -1.4l-2.6 -5.1l-1.9 -4.9l-0.2 -2.8l0.8 -3.3l-3.3 -0.7l-5.8 2l-4.4 -1.3l-0.3 -2.3l-5.8 -0.3l-1.7 3.9l0.7 2.9l-2.5 4.2l-9.5 -2.2z"/><path data-id="21205" d="m780.4 161.6l2 2l1.8 -2l1.9 3l-3 1.4l-1 2l2.4 4.2l2.4 -3.6l1.7 -0.3l3 2.6l-0.7 3.2l3.9 -1.2l1.3 1.9l-2.5 2.2l1.9 1l1.2 3.1l0.5 -2.8l5.4 0.5l0.4 2.3l-2.3 0.3l-2.4 3.1l4.6 0.1l-1.9 3l2.9 -0.1l-0.9 2.7l3.9 -2.8l-0.7 -1l3 -1.2l1 1.4l3.7 -2.1l1.2 -3l1.7 0.6l3.2 -3.1l4.6 -1.4l4.7 -3.8l2.1 -2.5l3.3 -0.3l1.4 -5.4l1.7 -0.7l-0.8 -1.1l-5 -0.1l-2.7 -2l2.6 -0.7l-2.9 0.1l-2.6 -2.4l-0.3 -1.5l-1.7 0.9l-1.5 -5.7l0.6 -1.4l-2.6 -6l-1.8 -5.2l-2 -0.4l-2.9 -6.8l-2.9 -2.2l-1.5 -3.5l-5.4 2.5l-2.3 4.5l-1.5 -0.8l-2.2 1.7l0.1 2.7l1.3 1.6l-1.8 1.5l-0.5 3.6l-1.2 0.3l0.9 3.8l-1.7 0.3l-0.6 2.2l-4.1 2.9l-1.1 3.5l-3 -0.3l-3.7 4.2l-2.7 1z"/><path data-id="21207" d="m564.9 375.5l3.6 3.3l1.5 4l2.8 -0.2l-2.6 -5.1l5 1.9l10.3 7.7l7.1 -5.2l6.1 -4.7l7.5 -4.8l1.4 -6.4l3.8 -0.2l1.8 1.9l9.5 -8.6l-3.7 -1.7l-5.5 -6.4l-0.2 -6.6l0.8 -4.8l-2 1.5l-5 0.8l-2.1 -1.8l-9.6 -12l-6.1 10l-10.1 15.2l-5.2 6l-3.4 11.8l-5.6 4.5z"/><path data-id="21209" d="m635.1 134l1.1 20.3l0.3 3.8l0.7 2.2l2.3 3.7l4.9 -0.5l2.9 0l-1 0.9l0.9 6l1.9 1.5l-1.4 1.6l2.6 0l0.6 -2.2l10.7 -4.9l18 -8.2l-2.4 -1.1l-0.5 -7.2l-2.4 -3.4l-0.1 -1l1.3 -2.7l-1.4 -4.1l-1.6 -2.1l-0.8 -4.7l0.5 -1.4l-1.2 -3.3l-3.7 -4.1l-4.3 -2.7l0.2 -2.9l-2.3 -2.4l-1.8 -4.7l-3 3.3l-5.7 7l-7.6 6.9l-3.2 3.4l-4.5 3z"/><path data-id="21211" d="m542.1 142.1l-2.6 3.1l7.5 3.2l-1.7 19.9l25.2 9.7l4.8 2.4l12.4 6.3l2.4 -0.6l1.6 -2.8l3.1 -2.4l-0.9 -2l2 -5.9l2.1 -1.6l0.5 -2.1l2.1 -3.2l-0.5 -2.5l0.8 -8.4l0.3 -8.2l5.5 -9.6l-5.4 -0.6l-37.5 -3.8l-5.4 8l-3.6 1.2l-4.5 -0.8l-3.3 2.4l-1 -1.5l-1 1.7l-2.8 -1.9z"/><path data-id="21213" d="m369.2 416.3l6.5 -0.1l14.1 -0.5l2.2 -0.1l3.4 3.1l1.7 -0.7l0.2 -1.1l5.5 -1.3l4.5 0.1l8.2 0.2l-1 -4.2l1.4 -7.3l-0.7 -2.9l1 -6.2l0.7 -5.1l-24 -3.8l-2.7 -6.3l-1 -2.3l-2.7 0l-3.1 1.1l-4.6 5.3l-1.8 5.7l-1.6 2.4l-3.1 6.5l-1.5 4.7l-1.6 12.8z"/><path data-id="21215" d="m533 191.1l3.6 3.4l3.4 3.2l4.9 2l3.5 3.3l2.7 -0.1l9.7 -2.1l18 -3.1l-0.2 -4.4l5 0.3l0.6 -4.1l3.3 -2.8l-12.4 -6.3l-4.8 -2.4l-25.2 -9.7l-0.5 3.6l-0.2 1.2l-1 2.3l-4.4 1.4l-2.3 5.6l-4 8.5z"/><path data-id="21217" d="m524.3 281.1l-0.2 6.1l14.1 11.4l6.2 9.7l5 9l0.3 2.1l-1.6 0.2l-0.4 2.4l4.5 0.1l2.5 4.8l4.7 -5.2l1.2 -0.6l-0.6 -3.1l2.4 0.1l2.8 -2.4l3.1 -0.7l3.3 0.3l4.1 -1.6l1.1 -3.9l-0.6 -1.8l3.1 -0.6l4.5 -9l0 -3.2l3.3 -2.2l2.4 0l1.8 -2.6l-1.9 -0.8l-1.3 -2.3l-1.9 -0.7l-2.2 -2.8l-1.9 1l-3.7 -2.9l-2 2.4l-2.5 1.2l-2.9 0.4l-2.4 3.4l-2.7 0.6l-1.5 -3l-4.4 -2.6l-1.1 0.1l-2.7 -3.2l-3.8 0.6l-3.7 -0.4l-0.7 -1.1l-5.3 -0.3l-3 1.9l-3 -0.3l-1.3 -2.6l-3.9 4.8l-7.2 -2.6z"/><path data-id="21219" d="m293.9 417.5l2.8 0l4.4 0l4.4 0l2.2 0l15.3 -0.1l7.1 -0.1l0.2 -17.2l1.2 -3.2l-1.1 -6.1l0.7 -42.2l-8.5 2.7l-17.4 0.7l0.7 -3.9l-1.9 -1.4l-10.1 70.8z"/><path data-id="21221" d="m185.9 380.5l3.6 9.8l2.5 9.9l4 6.6l1.3 4.7l3.4 0l4.3 0.2l18.4 2l3 0.2l-0.5 5l14.3 -0.5l6.6 -0.2l1.5 -10.9l1.2 -8.6l0 -9.8l0.3 -10.4l1.6 -14.4l-9.7 -5.9l-4.1 4.5l-12.3 4l-2.5 -1.5l-1.8 0l-14.7 8.2l-6.2 2l-14.1 5.1z"/><path data-id="21223" d="m540.9 77.4l0.2 1.2l1.4 2l0.8 1.8l0.1 1.8l-0.2 2.8l0 3.7l0.3 1.4l1.2 2.6l1.1 2.1l0.5 1.7l0.1 1.4l0 1.5l-1 2.4l-1.3 1.3l7.2 0.9l1.9 1.9l5.3 1.1l1.3 1.4l4.5 -0.6l3.9 -4.7l10.7 -10.3l-5.7 0.9l-0.3 -3.6l-2.1 -2.8l0.2 -1.6l-13.2 -16.6l-0.4 -1.7l-1 0.4l-1.4 0.4l-1.5 0.2l-1.2 0l-3.7 -0.9l-1.4 -0.2l-1.5 0.3l-1.6 0.9l-1.1 1.6l-0.9 1.1l-0.9 3l-0.1 1.1z"/><path data-id="21225" d="m185.5 250l0.2 1.4l0 1.5l0.2 1.2l0.5 1.7l1.4 3.2l0.3 1.4l0 1.4l0.5 1l0.4 1l1.5 1l0.9 1l1.1 1l1.7 2.7l1.9 1.3l1.2 1.1l0.8 1.6l0.1 1.3l2 -1.6l1.8 0.8l1.7 -2.5l0.7 -3.1l2.2 1.4l0.2 5.4l2.2 2l1.1 -0.9l0.7 2.4l-2.1 1.7l2.8 0.4l0.8 -1.1l2.9 -0.2l17 -16.5l9.1 -9.8l-2.6 -5.1l0.5 -1.5l-0.6 -8.4l-1.4 -3.4l0.3 -1.2l-1.3 -1.7l-0.7 2.1l-2.7 -1l1 -1.6l-2.5 -0.1l-0.5 1.5l-14.7 -23.2l-1.3 1.5l-0.5 1.5l0.1 1.4l0.4 1.2l1.2 1.5l1.6 1.5l0.6 1l0.3 1l0.5 3.3l-0.4 1.7l-1.7 0.9l-1.1 0.4l-1 0.8l-0.2 1l-1.2 2.4l-1.1 0.6l-1 -0.2l-1.3 -1.4l-0.8 -1.1l-1 -0.6l-1.2 -0.7l-1.5 -0.7l-1.4 -0.3l-1.7 0.5l-1 1.2l-0.4 1.3l-0.3 2l-1.2 3l-1.3 1.9l-1.7 1.6l-1.2 0.5l-1.8 1.2l-1.5 1.3l-1.4 0.6l-1.9 2.6l-1.8 2.4l-0.8 1.2l-0.9 1.8l-0.3 1.1z"/><path data-id="21227" d="m381.9 355.4l-1 3.3l7.6 17.7l0.6 1.5l1 2.3l2.7 6.3l24 3.8l-0.7 5.1l9.8 -8.4l7.3 -6.2l1.5 -1.3l0.1 -1.8l-0.7 -1.3l4.3 -0.9l3.8 -1.7l0.4 -4.2l2 2l2.9 -2l3.3 -9.9l3.7 -11.1l-10.4 -2.6l-3.5 -4.5l-3.1 1.2l-1.9 1.9l-3.3 0.8l-15.4 -14.7l-1.3 0.4l-0.2 2.6l-4.3 -2.2l-0.8 2.4l-2.3 -0.3l-2.4 -4.8l-1.7 -1.4l-5.9 2.4l-2.8 -0.7l0.1 -1.1l-1.5 0.5l-1 -0.2l-0.9 1l-0.9 -1l-1.6 0l-1.3 0.2l-0.9 1.1l0.6 1.1l0.7 1.1l0.1 1.1l-0.4 1l-6.6 21.4z"/><path data-id="21229" d="m548.2 237.8l1.4 2.9l2.1 1.8l0.7 2.4l-0.6 2.5l3.2 2.9l1.1 0.7l3.9 -0.1l7.1 3.5l12 0l17.9 0l0.5 -5.5l0.2 -2.4l2.5 -22.9l-0.5 -3.2l1.2 -3.2l-4.1 -4.5l0.1 -1.7l-2.7 -0.9l-2.2 1.9l-5.1 -1.3l0.1 -2.6l-2.7 -1.3l-1.5 4.2l-1.9 -1l-0.1 2l-2.4 -0.4l-3.6 -1.7l0.5 2.9l-1.2 2.9l1.1 0.8l-1.1 2l-1.7 -1.6l0.2 -2.6l-1.4 2.7l-0.8 -1.8l-2.8 -0.1l1.5 3l-2.8 0.7l-2.2 -0.7l0.5 1.6l-2.9 1.3l-1.9 4.4l0.7 1.9l-3.7 1.1l-0.2 1.1l-2.3 -0.6l0.4 4.5l-2.9 -1.2l0.2 4.1l-1.7 -0.2l-2 1.7z"/><path data-id="21231" d="m592.5 381.9l0.7 4.2l4.3 4.3l2.9 8.3l-2.1 6.3l0.2 4.6l2.3 2.2l-1.1 1.4l1.5 0.9l-0.8 3.3l0.6 3l3.2 1.5l4.1 0.5l11.1 1l2.2 0.2l5.2 0.1l2.4 0.1l14.6 -22.3l0 -3.6l5.2 -1.3l0.4 -3l1.1 -1.1l3.5 -1l-0.5 -1.4l2.4 0.8l0.5 -3.5l-2.3 -2l2.8 -1.2l-2.3 -3l1.8 -0.8l-1.5 -2.5l1 -1.6l-2.4 2.1l-2.6 -2.7l-7.1 -12.8l-4.3 -1.1l-3.1 2.4l-5.2 1.4l-1.8 -3.4l-3.3 -1.5l-3.6 -1.6l-9.5 8.6l-1.8 -1.9l-3.2 -0.5l-2 7.1l-7.5 4.8l-6.1 4.7z"/><path data-id="21233" d="m214 281.9l1 4.4l-0.3 2.2l1.1 2.7l3.5 1.8l4.6 -1.2l2.8 -2.5l0.2 4.4l-1.8 0.5l0 1.9l2.1 0.9l3.3 -2.2l2.4 1.4l-3.5 4.4l1.9 0.4l28.9 -18.4l12.7 -4.3l16 -13.6l-2.9 -3.2l-9.1 -0.8l-2.2 -1.1l-2.2 -4.4l0.6 -3.3l-31.4 1.5l-9.1 9.8l-17 16.5l-1.4 2.5z"/><path data-id="21235" d="m687.1 388l-1.4 1.7l1.4 1l-0.6 3.9l1.6 1l0.7 2.3l1.3 0.3l0.4 8l1.6 5.4l4.7 7l4.2 3.4l1.6 3.5l13.1 0.1l18.4 0.3l7.5 0.3l0.8 -2.5l-4.1 -7l10.3 -6.8l-10.7 -6.6l-0.1 -3.6l-1.2 -1.9l-2.4 0.3l1.3 -3.3l-0.9 -3.6l-2.1 0l-0.1 -1.7l-3.6 -1.2l-3.3 -6.1l-1.7 0.3l-0.6 -6l-2 -2.3l0.6 -3.6l-1.5 -4.8l-1.3 0.3l-2.9 -2.6l-1.3 0.2l-3.5 3.5l-2.9 1.4l-0.9 -1.4l-2.5 0.1l-1.8 -2.1l-1.5 3.1l-1.6 -1l-1.5 -1.1l0.2 -3.1l-0.9 1.7l-4.5 2.7l-1.7 2.3l0.9 3.2l-1.5 1.2l-0.8 2.4l0.8 2l-1.2 1.3l1.3 1.9l-3.9 3.6l3.4 0.8l-3.5 1.8z"/><path data-id="21237" d="m781 222.1l-10.1 18.1l10.5 6.2l1.5 2l12.4 4.7l3.5 -1.2l0.1 4.3l4.8 -1.8l3.3 -4.3l0.3 -2.9l1.7 -2.8l3.6 -1.5l3.4 2.6l4.5 1.6l1.7 -1.4l3 0.1l1.9 1.3l1.6 -0.9l2.6 1.7l-1.2 -2.6l1.9 -2.1l-2.5 -2.4l-2.5 -1l-0.1 -3l-5.8 -2.7l-1 -1.8l0.4 -3.4l-4.4 -2.5l-3.1 -0.2l0.2 -2.2l-6.1 -0.9l-2.9 -3.9l-3.8 -0.2l0.8 -1.3l-2.2 -1.7l-2.9 1.7l-0.9 3.4l-3.6 1.6l-5.1 0.5l-4 -2.7l-1.4 1.6z"/><path data-id="21239" d="m618.8 173.4l0 3.4l1.2 1l1.8 -1.6l1.5 1.1l0.5 1.6l-2 2.5l2 1.4l-0.3 1.4l-2.7 0.7l2.6 4.1l-0.9 2.7l2.6 1.2l-0.8 3.1l0.7 1.3l2.9 0.6l-0.1 1.1l-2.8 1.7l-0.1 1.2l2.9 1.5l-3.2 1.6l-0.7 1.7l4.1 0.3l-0.7 4.2l1 0.1l1.4 -3.1l1.1 0.6l-0.7 2.2l1.8 0.3l0.9 2.5l-2 2.8l1.2 1.6l2.7 -0.5l3.1 -1.9l1.4 0l6.5 -23.6l0.3 -2.3l1.1 -4.2l2.7 -10.2l0.5 -2l-2.6 0l1.4 -1.6l-1.9 -1.5l-0.9 -6l1 -0.9l-2.9 0l-4.3 -0.4l-2.9 -2.8l-18.4 9l0.2 3.4z"/></svg>
