<?xml version="1.0" encoding="UTF-8"?>
<!DOCTYPE svg PUBLIC '-//W3C//DTD SVG 1.1//EN' 'http://www.w3.org/Graphics/SVG/1.1/DTD/svg11.dtd'>
<svg viewBox="0 0 10000 4411.81" xmlns="http://www.w3.org/2000/svg">
  <g data-id="001">
    <path d="m5317.3 3406.4l0 0l5.4 69.4l25.1 98.3l81.3 88.2l-13.2 26.2l289 21.5l34.4 -118.1l52.1 -59.9l100.6 -152.1l60.9 -99.8l-13.5 -17.7l-4.4 -99.6l-72.6 -41.4l-69.8 -46.8l-30.5 5.7l5.7 18.1l-11.2 39.4l-40.8 15.9l-32.8 -2.8l-31.4 6.9l-28.3 23.6l-24 -1.1l5.9 31.5l-12.4 5.7l-46.7 52l-36.1 39.8l-70.4 38.8l-122.3 58.3z" />
  </g>
  <g data-id="003">
    <path d="m4144.5 4118.5l0 0l10 42.1l47.8 1.3l1.6 -0.5l19.3 0.5l34.2 1.7l52.2 5.6l93.6 7.3l4 0.1l3.5 0.4l0.3 0.1l14.1 1.2l0.8 0.1l9.6 0.6l152 9l1.7 -0.2l55.6 5.1l6.9 0.6l0.5 0.1l74.8 2.9l33.1 -36.7l1.7 -17.4l-36.2 -100.1l-7.8 -30.9l-25.5 -28.1l-37.4 -9.3l-9 7l-20 -25.1l23 -7.1l-5.1 -18.2l-17.2 -7.5l7 -20.1l-30.2 3.1l5.1 -28l12.1 -9.2l-27.8 -43.1l0.9 -62.5l15.8 -10.5l-42.2 -2.8l-14.9 29.5l9.5 31l-11.1 -7l-19.6 -44.6l-21.7 5.2l8.7 -17.1l-9.5 -17.8l7.4 -30.6l-18.6 8.7l2 25.1l-11.6 8.3l-24.5 -13l20.8 -16.1l-8.1 -16.1l-29.3 20.3l-19.9 -19.9l-3.8 42.5l-37.6 16.9l-42.9 9.2l-0.7 7.9l8 4.7l-1.9 13.4l0.9 5.2l-15.5 13.2l-73.3 62.4l-98.4 83.7l-10.3 61.8l6.6 29.1l-13.6 73z" />
  </g>
  <g data-id="005">
    <path d="m5787.6 1933.1l0 0l1.8 43.5l19.8 123.6l19.1 9.9l15.4 -42.4l26.8 13.2l-0.9 25.6l50.9 13.3l22 -18.7l27.5 9.3l3.7 12l25.9 -11l10.3 -26.9l17 2.5l18.2 -49.8l52.9 -31.1l47 11.1l17.8 12.7l114.9 -50.3l-28.6 -5.5l-6.8 -13l8 -31.3l-25.6 -12.3l9.1 -27.1l-26.3 -40.7l26.7 -7.1l3.4 -13.8l-20.5 -13.8l19.9 -25.2l-4.7 -16.3l-14.8 -10.7l-17.7 16.4l-12.4 -10.4l0.3 -34.2l-29.6 33.3l-19.5 6l-73.4 -27.4l-12.2 -15.8l-74 -16.4l-21 16.3l-19.6 58.6l8.9 19.8l-31.4 24.4l-15.7 28.2l-23.7 6l-32.6 28.3l-6 40.7l-50.1 -3.4z" />
  </g>
  <g data-id="007">
    <path d="m512.9 3510.5l0 0l-1.5 14.9l2.2 17.2l2.5 9.7l7.1 15.7l3.3 5.5l6.1 7.8l7.6 5.4l29.2 24.6l7.3 5l5.3 -2l5 -0.4l8.9 2.7l4.3 2.5l7.3 6.2l8.7 11.3l4.3 8.5l0.8 5.2l0.2 5.8l-2.5 22.8l12.2 -0.5l14.8 47.4l21.6 -12.7l2.2 -20.6l16.3 15.6l30.6 4.1l16.5 -10.9l32.9 18l100.8 -37.3l78.8 -16.5l8.6 7.9l39.1 -11l-7.6 -22.2l-62.4 -179.8l-82.9 -239.9l-1.1 -9l-11.9 -1.8l-32.5 -1.8l-21.6 2l-23.3 7.1l-9.9 6.3l3.4 -1l-10.6 8.4l-21 8.2l-10 11.9l-4.9 1.7l-22.1 23.3l-23.9 22.5l-13.5 15.7l-8.4 15.1l-3.7 10l-1.2 6.9l-3.1 8.6l-16 36.1l-5.8 5.4l-6.4 3.8l-2 3.5l-4 4.2l-13 9.1l-1.2 1.8l-3.1 8.7l-4.1 5l-6.9 5.2l-4.2 1.5l-2 -1.1l-4.2 2.6l-17.9 24.2l-5 9.9l-5.1 10.1l-4.8 14.9l-2.6 11z" />
  </g>
  <g data-id="009">
    <path d="m4484.2 3711.4l0 0l-20.8 16.1l24.5 13l11.6 -8.3l-2 -25.1l18.6 -8.7l-7.4 30.6l9.5 17.8l-8.7 17.1l21.7 -5.2l19.6 44.6l11.1 7l-9.5 -31l14.9 -29.5l42.2 2.8l-15.8 10.5l-0.9 62.5l27.8 43.1l-12.1 9.2l-5.1 28l30.2 -3.1l-7 20.1l17.2 7.5l5.1 18.2l-23 7.1l20 25.1l9 -7l37.4 9.3l25.5 28.1l7.8 30.9l223.4 -162.3l45.7 -24.1l43.4 -8.4l-14.6 -270.4l-6.6 -34.4l-5.1 -68.8l4.2 -68l-20.6 0.2l-6.8 -47.1l23.2 -19.6l19.8 -32.3l-76.2 11.1l-72.1 19.7l-64.8 4.6l-112.9 -14.4l-84.5 -16.7l-23.4 187.8l-51.6 -12.8l-37 110.6l-33 98.5l8.1 16.1z" />
  </g>
  <g data-id="011">
    <path d="m7353.7 1608.7l0 0l-1.8 25.9l18.5 10.2l-12.3 19.7l122.6 37.2l79.6 92.6l25.1 65.8l58.9 59.1l-3.3 12.7l37.4 -19.7l16.4 11.9l16.6 -15.6l21.9 1l39.3 -26.9l32.5 2.3l32.5 32.9l6.8 -12.1l31.7 4.5l10 -19.2l-2.7 -59.5l100.1 13.8l24.2 -30.9l23.2 -2.5l-4 -22.8l-53.9 -5.1l-5.1 28.3l-11.7 -30.8l-19.5 -9.7l25.2 -22.4l-13.4 -18.8l-38.5 11.5l7.1 -32.4l-30.2 -26l-17 3.2l-23.7 35.8l-24.1 -41.9l9.6 -19.6l29.7 -13.9l-18.9 -30.4l-18.1 19.7l-20.2 -20l-14.4 27.6l-17.1 -51l-16 7.8l-15.4 -29.3l-14.9 9.1l1.1 -69.8l-20.3 11.5l-10.8 -13.7l8.5 -27.2l-36.1 0l14.8 -42.2l-22.5 14.5l-31.9 -14.8l-8.6 13l-12.7 -15.1l-14.3 4.4l-8.5 21.6l-14.3 -4.9l-13.5 -31.2l-33.4 6.5l-16.5 15.4l-153.9 160.1z" />
  </g>
  <g data-id="013">
    <path d="m7382.3 4168.9l0 0l41.3 70.2l-8 24.5l47.8 2l138.6 4.3l129.2 2.1l2.5 -2.9l1.7 -4.6l5.9 -8.2l4.6 -3.1l3.2 -4.1l2 -3.3l0.3 -3.7l1.1 -3.7l2 -2.6l9.9 -1.8l2.6 -1.6l7.8 -8.2l10.8 -8l1.6 -9.8l4.1 -2.5l7.1 -1l6.3 3.1l8 -2l5.1 -1.8l6.7 -4.6l4.6 -5.6l2.5 -4.3l8.7 -5.1l3 -1.1l1.7 0.2l1.7 1.3l3 -0.3l21.3 -7l9.5 -0.7l9.9 -6.4l5.4 -4.4l4.1 -4.8l11.2 -4.1l8.9 -1.1l7.2 -3.4l11.4 -8.7l0.1 -2.3l1.4 -2.8l3 -2l3.3 0.3l14.6 -2.6l5.7 -2.5l6.3 0.7l7.2 -0.7l2 -1.8l2.5 -0.5l5.4 0.7l6.6 3.9l8.3 2.5l21.2 2.4l7.2 -0.3l2 -53.3l-27.2 -20.5l-27.2 -38.3l12.9 -38.9l6.9 -43.2l-34.1 -39.5l39.5 -68.6l-16 -23.6l-3.8 -34.3l9.1 -18.2l-13.3 0l13.8 -26.1l-26.4 -19.9l0.5 -24.9l-15.3 1.6l-90.5 -30l7.5 23.9l23.2 16l-12.7 14.9l-7 29.2l-41.1 11.6l-10.8 22.2l-11.1 -6.7l-18.4 14.5l0.9 21.6l-27.4 3.3l-25.8 15.9l-11.7 25.3l-18.5 5.1l-11.7 25.6l-30.2 18.7l-1.3 12.7l-20.1 -6.4l-28.6 11.9l-13.7 -4.2l-15.9 25.4l2.6 20.7l-16.2 17.9l-0.7 22.3l-25.1 8.8l-17.2 50.8l-17.8 10.5l-14.1 -15.3l-15.8 45l-103.4 68.4z" />
  </g>
  <g data-id="015">
    <path d="m6144.9 152.6l0 0l0.3 8.4l3.8 4.8l6.9 14.8l8.2 11.5l6.3 5.4l10.4 8.9l7.3 9.9l10.1 13.8l8.7 14l1.2 3.9l3.1 6.1l9.5 10.2l3.6 5.5l4.8 11.1l3.8 11.2l1 9.3l-3.6 13.4l-3.3 5.9l-38.9 39l-7.9 9.6l-9.2 15l-2 7.2l0.6 4.6l2.4 7.4l8.4 13.5l0.7 1l3.1 2.1l9.2 2.5l39.8 0.7l15 3l8.3 0.6l16.4 6.9l15.9 12.4l2.3 2.5l1.5 3l0.9 8.6l-1.6 9.8l-3.3 8.7l-3.5 6.3l-3.6 4.7l-1.2 1.1l19.8 -4.1l1.9 20.4l23.8 0.6l12.2 27.3l89.5 68.1l29.7 22.5l21.7 -34.9l36.7 -7.2l9.4 -52.4l13.9 -77.8l-14.8 -131.4l-2.4 -24.9l-1 -10.8l-6.4 -68l-7 -74.1l-1.9 -20.5l-11.8 -4.1l-23.5 -25.2l-9.1 -6.4l-11.7 -4.2l-14.6 -0.5l-10 -3.7l-6.4 -6.3l-3.6 -5.6l-12.4 -19.4l-15.9 -23.2l-5.9 -7.5l-10 -8.3l-7.8 -4.2l-15.9 -5.1l-8.7 0.2l-4.9 1.2l-16.2 13.7l-22.7 34.7l-4.8 4.7l-8.1 4l-22.3 6.4l-2 3.5l-2 1l-8.4 1.7l-8 2.2l-6.5 3.8l-10.9 11.2l-13.2 11.9l-14.6 17.1l-13.5 7.3l-23.6 12.7l-6.6 6.6l-4.6 8.6z" />
  </g>
  <g data-id="017">
    <path d="m6742.7 1456.2l0 0l1.3 9.7l24 33.9l4.5 71.8l23.8 10.6l37.9 -0.2l23.3 49.4l-24.4 35l6.9 40l-16.3 33.7l26.8 24.7l44.6 23.3l11.2 -13.6l40.6 28.9l1 14.3l270.7 -80.3l118.8 -100.2l16.1 -28.5l11.4 -28.8l-10.6 -17.9l-15.5 2.1l-6.7 24.9l-18.3 -26.7l-24.9 9.6l-9.1 -16l-37.7 -19.3l12.6 -7.1l-5.2 -28l-27.1 0.1l1.9 -21.3l-16.7 -6.9l-8.3 23.5l-10.9 -18.2l-21.7 -9.4l21.1 -17.1l-34.2 -15.8l-3.2 -15.7l-44.2 -84.4l-36.5 -28.2l-112.5 95.5l-19.9 9.9l-14.9 -7.1l1.5 13.8l-37.9 26.9l-37 -11.6l-22.1 29.9l-50.3 -16.4l-33.7 7.4z" />
  </g>
  <g data-id="019">
    <path d="m8888.2 1272.1l0 0l-9 32l60.1 19l-12.8 28.8l-16.8 170.3l36.4 14.4l39.1 -3.9l49.1 -40.9l85.6 -8.5l31.8 4.8l7.4 28.1l0.5 0l12.2 3.1l11.7 -0.3l2.7 -1.3l2.9 -3.7l4.7 -10.4l4.7 -15.2l0.1 -18.2l-2.8 -4.7l-2.7 -7.1l-0.9 -5.3l-0.3 -11.4l-4 -6.3l-0.3 -2.3l2.1 -6.1l4.1 -8.4l7.2 -10.9l1.2 -2.7l0.1 -3.6l-1.1 -5.1l-4.3 -12.3l-1.3 -3.6l-11.1 -9.7l-3.4 -7.6l-2.3 -2.8l-3.7 -2.3l-5.2 -2l-1.9 -3.5l-0.3 -21.8l0.9 -11.7l1.1 -4.2l3.6 -7.6l1.2 -5.4l-2.5 -10.2l-0.6 -2.6l0 -0l-5.1 -10.1l-0.6 -2.7l0.7 -4.7l1.9 -3.3l3.7 -10.4l-2.7 -14.4l-0.1 -4.9l1.1 -8.1l3.4 -6.9l-4.3 -8.2l-5 -18l-4.4 -37.6l-5.4 -13.8l-3 -5.7l-4.4 -5.2l-6.1 -4.3l-7.4 -4.4l-7.4 -3.3l-10.5 -4.7l-14.1 -9.9l-11.4 -10.8l-11.1 -15l-31.5 28.1l-104.7 92.9l-10.8 31.5l-43.9 36.8z" />
  </g>
  <g data-id="021">
    <path d="m5970.3 2543.2l0 0l-12.5 142.7l49 -5.5l0.3 24.7l136.8 2.5l66.6 -26.9l83.8 -46.9l46.4 -16.2l-5.9 -3.5l-5.2 0.3l0.8 -6.2l3 -2.4l-1.8 -4.2l12.2 -2.5l2.6 0.4l-1.2 5.3l-3.6 12.8l1 1.4l20.1 -6.2l56.8 -38.2l0.1 -21.5l39.6 12.5l8 -12.2l-7.9 -15.6l7.9 -27.2l-9.2 -6.4l-26.5 14.8l0.5 15l-19.3 -6.8l19.6 -19.8l-25.4 -26l21.8 -8.4l-5.4 -23.3l-14.8 9.9l-9.5 -26.6l-23.8 8l-28 -9.3l13 -20.5l-14.6 -3.9l-64 -6.9l-18.8 21l-252.4 40.6l-33.1 2.2l-2 24l-4.8 55.1z" />
  </g>
  <g data-id="023">
    <path d="m7021.7 541.3l0 0l-7.3 8.5l37.6 378.7l8.3 -10.5l7.3 26l-12.9 10.7l1.8 30.4l-15.3 15.1l70.5 1.4l20.6 7.3l31.6 -24.1l23.5 -37.2l27.6 -19.3l-0.3 -18.3l12.3 16.8l38.6 -2.4l14.9 28.8l48.1 -0.6l7.3 -17.5l115.3 -293.8l-0.1 -0l-11.8 -2.7l-5.6 0.2l-12.8 -3.2l-2.1 -1.1l0.2 -4l-20.4 -15.2l-12.6 -4.3l-11.3 -2l-21.9 0.5l-21.9 8.8l-14 3l-22.4 8.6l-28.1 7.6l-9.4 -1.4l-1.4 0l-14.1 0.4l-10.6 1.1l-30 -8l-19.1 -6.7l-9 -5.9l-25.5 -11.4l-27.4 -9.1l-55.8 -10.1l-9.5 -2.8l-9.6 -5.3l-12 -13.6l-4.3 -6.6l-6.4 -15l-0.3 -1.5z" />
  </g>
  <g data-id="025">
    <path d="m7877.9 2750.6l0 0l38.7 100.4l20.3 46.7l-19.6 38.5l5.2 53.1l14.7 15.3l-17.8 30.4l14.9 6.8l65.2 -47.4l13.1 -30.7l18.1 7.5l17.8 -9.7l35.8 46.4l24 20.7l29.4 0.1l15.7 -13.6l1.9 -19.2l13.7 0.3l19.3 -11.6l13.8 -24.5l29.1 3.3l10.5 -13.9l42.8 -20.8l72.6 -74.3l16.4 21.7l3.4 26.1l99.1 16l-13.6 -86.4l54.6 -67.8l-2 -33.5l7.4 -7.2l23.7 9.6l11.4 -15.6l20.1 7l20.6 25.9l22.8 -3.7l14.8 12.2l22.7 -8.8l14.6 14.2l33.9 -8.6l-15 -25l-48.7 -16.7l-14.3 -36.3l-13.5 1.7l7.3 -57.6l-19.7 -9.5l-14.8 8.9l-23.9 -23.6l-8.2 -21.5l-11.6 3.2l-23.4 -37.6l-32.7 34.5l-26.7 7.6l-9.2 -20.4l-38.9 -37.9l-44.6 -4.7l-22.1 -9.6l-19.8 -28.8l-14.8 -2.9l-25.8 -17.2l-15.5 9.1l-19.4 -13.2l-30.3 -0.8l-16.7 13.8l-44.6 -16l-34.4 -25.8l-36.5 15l-17.3 28.2l-2.6 28.5l-33 43.3l-48.3 18.1l-0.6 -43.2l-34.7 11.8l-74.8 219.4z" />
  </g>
  <g data-id="027">
    <path d="m3819.6 2203.2l0 0l-15.5 71.5l73 229.1l-21.8 -11.4l-2.2 71.1l26.8 53l36 37.7l31.3 -28.3l-7.9 -30.2l29.8 6.3l1.2 12.3l21.9 -2.4l15 -19.3l-23.8 2.2l6.7 -22.1l32.6 -15.7l54.4 38.1l-6.3 16l26.4 -2.2l10.3 25.1l29 -6.5l20.2 23.2l21.7 -2.3l25.5 15.2l-3.7 -7.7l40 1.1l-8.5 -40.2l13.1 -12.9l0.6 6.3l48 8.4l40 -12.7l121.6 -253.9l41.4 -87.3l-76.1 -78.2l-44.2 -51.8l-245 -205.2l-81 -76l-12.2 -0.1l-15.4 2.2l-7.3 3l-2.8 2.3l-3.2 4.9l-4.1 17.4l0.8 15.5l-0.4 9.5l-1.3 9.6l-0.2 14.6l1.3 27.6l-0.4 22.7l1.8 10.1l4.4 12.9l2.5 4.4l7.9 8.1l4.2 7.4l3.1 10.1l0.6 9.5l-1.6 3.2l-4.2 4.5l-10.8 6.6l-11.9 5.9l-7.7 2.7l-8.6 0.2l-10.2 -1.6l-23.3 -7.2l-18.5 -1.6l-8.2 1.4l-2.7 1.9l-9.9 11.4l-3.1 5.5l-1.8 7l-0.3 9.2l2.6 27.8l-0.2 6.9l-1.4 9.4l2.5 5.5l0.2 2.2l-1 4.6l-8.6 15.2l-6 4.8l-8 4.2l-13.9 9.3l-11.2 5.7l-5.3 1.9l-12.8 2.2l-5.9 -0.4l-3.7 -1.5l-14.2 11.2z" />
  </g>
  <g data-id="029">
    <path d="m4776.4 1931.7l0 0l3.9 3.9l36.7 8.1l8.8 36.8l-5.8 44.9l14.4 4.2l18.9 -14l32.8 5.2l13.1 39.4l19.3 4.9l3.6 30.2l18.5 18.3l-27.1 -5.1l-5.6 22.3l27.4 35l18.7 -2.9l23.1 28.5l32.8 15.8l24.2 19.2l5.8 16.8l22.9 4.3l-5.1 5.6l43.4 -21l14.1 5.6l48.9 -31.5l43.4 -41.4l-3.5 -18.8l17.6 1.1l30.6 -26l-11.2 -14l1.1 -29.2l45.8 -28.7l32.9 -49.3l-13.5 -12.5l59.3 -42.2l-36.4 -34.4l39.8 -85.4l22.9 -56.4l43.5 -14.3l9.6 -22.8l-114.5 49.5l-17.9 8.2l-28.2 12.9l-21.3 2.3l-65.5 -7.2l-108.3 -11.9l-17.4 -1.9l-102 35.9l-35.2 12.3l-33.3 11.6l-53.3 18.3l-39.4 33.2l-28.7 39.1l-4.8 -2.6z" />
  </g>
  <g data-id="031">
    <path d="m3458.5 3457.4l0 0l-0.8 15.7l126.3 20.5l224.7 93.4l10.2 -33.1l65.6 -209.1l-1.7 -0.1l-1.2 -1.3l0.3 -1.7l2 -1.4l1.5 -0.7l1.9 -1.8l1.6 -3.1l0.5 -2l-0.2 -2.7l-1.2 -3.5l-0.3 -2l-0 -2.6l0.2 -2.5l1 -3.2l0.2 -1.4l-1.3 -3.2l-4.7 -2.7l-1.7 -1.4l-3.7 -4.4l-1.3 -2.3l-0.9 -2.1l-0.2 -1.4l0.3 -2.5l0.8 -1.9l0.3 -1.8l-0.7 -2.2l8.6 -5.1l7.2 4.7l6 -7.1l16 0.4l8.9 9.9l8.6 -10.1l9.9 1.8l14.6 -5.2l-1 11.4l28.3 7.1l58.6 -23.9l16.6 14l23.7 48.2l22.7 2.7l8.5 -23.9l42.5 22.2l2.2 -25.6l12.7 -3.8l-92 -249.7l-23.7 -68.5l-164.3 -54l-193.8 150.5l-13.4 -8.1l-8 -28.6l-33.3 -13.5l-19.3 9.2l-3.9 39l13.9 23l-22.9 -5.3l-3.4 21l-21.5 22.4l-12.2 29.5l-10.5 -2.4l-28.5 27.7l-2.5 20.7l-18.2 17l-8.2 16.4l13.3 41.3l-35.3 -4.6l-6.2 32.8l-15.4 38.3l18.7 -9.3l15.2 11.3l-4.2 16.6l20.5 -13.6l0.8 19.1l23.6 17.9l-26.1 -1.5l-3.1 18.1l13 21.7l-36.5 16.8l-24.9 -0.6z" />
  </g>
  <g data-id="033">
    <path d="m1956.1 3283.3l0 0l-16 7.3l70.5 8.1l88 176.8l129.1 176.8l24.9 15.5l122.6 -39.5l41.4 -45l29.5 -32.1l24.2 -129.2l15.7 -81.2l-22.1 -20.6l-10.2 1.1l-11.1 -29.1l-21.2 0.6l-4.6 -24.4l-17.8 7.4l-1.4 -34l-21 23.6l-14.1 -5.3l4.1 -26.4l-22.9 -30.3l-21.1 -14.2l14 -23l-6.9 -41l8.2 -18.6l-18.1 -4.3l14.8 -42.1l-32.1 2l-0.6 28.9l-39.5 -35l24.6 -29.1l22.6 -5.5l1.9 -13.3l-19 -3.9l35.3 -43.8l-330.6 234.3l-48.7 25.8l11.8 16.8l-11.9 8.4l7.9 37.4z" />
  </g>
  <g data-id="035">
    <path d="m1427.5 3997.1l0 0l-4.4 408.3l21.7 0.1l26.3 0.3l3.1 -0.4l44.4 0.6l112.5 0.4l6.4 0.1l6.7 0.1l254.3 3.1l97.4 2.3l0.1 0l3.6 -4.8l6.8 -6.6l7.7 -10.3l2.2 -5.6l0.6 -6.5l-0.7 -5.2l0.7 -4.5l1.9 -3.5l2.3 -8.5l2.2 -15.6l-1.7 -18.1l-2.4 -16.4l-5.3 -18.1l-2.1 -18.6l-5.2 -30.8l-13.9 -45.1l0.2 -8.6l-1.9 -7.9l-2 -4.5l-7.7 -12.4l-5 -14.6l-3.1 -30.1l-12.6 -46.9l-40.4 -66.3l-33.2 -2.5l-459.6 -2.7z" />
  </g>
  <g data-id="037">
    <path d="m6664.6 86.1l0 0l-5.3 2.6l16.1 38l-5.2 23.9l16.5 29.6l-6.3 18.5l1.1 15l25.6 28.7l24.9 18l-19.8 26.9l17.1 16.9l16.4 -28.3l17.8 8.7l-46 50.5l-1.8 7.1l28.3 63.4l3.6 4.8l-13.6 72.3l-19.2 18.8l16.2 51.7l27.9 -13.8l16 37l13.2 1.2l27.2 -10.9l204.4 -105.6l-0.3 -9.5l-0.3 -6.5l-2.8 -15l-7.5 -13l-3.3 -3.8l-3.9 -6.5l-14.9 -27.3l-5 -5.7l-18.6 -25.2l-6.6 -6.2l-10.8 -18l-9.1 -21.1l-1.8 -28.8l-1 -7.4l-2.8 -10.6l-7 -17.7l-11.8 -17.8l-8.2 -8.6l-8.7 -9.1l-3.8 -2.7l-9.1 -6.4l-12.8 -6.9l-18.9 -7.4l-34.7 -6.4l-9.6 -0.2l-8.9 -1.9l-2.1 1.2l-5.8 0l-19.1 -8.9l-5.6 -3.6l-2.9 -3.2l-2.5 -5.6l-3.3 -15.7l-1.1 -9.1l0.7 -9l-0.4 -9.7l-2.2 -4.9l0.9 -9.5l1.4 -3l-3.5 -13.6l-6.7 -12.5l-6 -8.1l-6 -5.6l-7.3 -4.4l-8.8 -2.4l-11.2 0.5l-0.9 0.5l-6.6 3.4l-6.2 4.1l-8.9 10.2l-7.9 14.1l-2.8 2.8l-0.9 0.9l-7.3 6.1z" />
  </g>
  <g data-id="039">
    <path d="m515.7 3894.3l0 0l0.6 4.9l1.8 4.4l3.1 5.6l5.2 9.4l3.4 4.2l10 7.6l6.6 2.9l15.4 1.3l14.5 0.2l5.6 0.9l7.1 3.9l0.1 0.1l25.4 -19.7l55.7 16.9l-7.2 23.4l85.4 2l248.5 -2.5l0.4 -285.5l-4 -11.9l-39.1 11l-8.6 -7.9l-78.8 16.5l-100.8 37.3l-32.9 -18l-16.5 10.9l-30.6 -4.1l-16.3 -15.6l-2.2 20.6l-21.6 12.7l-14.8 -47.4l-12.2 0.5l-0 0l-1.8 7.9l-9.5 31.4l-10.8 53.8l-3 7.5l-9.1 17.6l-6.9 24.1l-7.9 16.6l-12.8 0.3l-7.7 0.9l-5 5.4l-2.8 1.3l-9.7 -0l-4.7 1.7l-4 2.8l-4.9 6.6l-1.3 2l-1 5.3l0.4 24.3l-0.9 6z" />
  </g>
  <g data-id="041">
    <path d="m5575.1 694.3l0 0l-3 1l4.4 17.3l132.4 166.3l-1.7 15.5l21.4 27.7l3.4 35.5l56.7 -8.8l123.2 -19.2l19.4 -23.9l46.7 -5.4l12.2 -30.6l53.1 -7.1l6.2 -20.4l43.3 -3.5l3.2 -19l-37 -29.4l-80.1 -138.9l-22.8 11.6l-9.2 7.3l-16.2 9.9l-15.3 5.7l-5.8 3.5l-7.6 6.8l-24.7 14.6l-3.1 2.5l-4.8 6.2l0.1 1.4l-19 16.1l-15.4 14.9l-7.4 5.4l-10.8 6.3l-12.2 5.3l-21.5 7l-6 -0.5l-13.4 1.3l-4.2 -0.6l-14.6 -5l-3.8 -1.3l-11.5 -6.3l-10.3 -9.3l-6.5 -7.6l-16.6 -28.7l-5 -6.3l-5.4 -9.4l-16.2 -10l-11.6 -3.6l-10.3 -2.1l-18.1 -2.1l-22.1 1.3l-32.5 8.3z" />
  </g>
  <g data-id="043">
    <path d="m8190.5 1395.4l0 0l17.8 52.2l26.2 60.5l-6.4 13.8l15.2 56.9l16.5 -9.1l2.7 15.5l26.3 24.4l29.2 -1.2l15 -1.7l15.7 -27.5l3.6 -45.5l42.5 -26l11 -24.1l24.1 4l31.8 37.7l67.8 33.6l10 25.8l29.9 28.5l2.6 17.5l14.2 -34.1l17.4 6.6l20.5 -17.1l5.8 22.6l23.8 5.5l-0.6 16.1l18.8 12.2l23.9 -4.2l15.7 10.4l26.6 -11.3l53.8 -34.9l39.3 9.7l40.5 -30.3l2.7 -40.9l35.4 -18.5l16.8 -170.3l12.8 -28.8l-60.1 -19l-125.2 -42l-34.1 -4.5l-42.1 13.4l-106.6 -120.4l-19.5 -1.2l-39.9 -28.6l-31.9 -4.1l-22.4 -19.7l-37 -11.1l-29 13.3l2.8 44.7l-18.5 26.2l-16.6 -1.6l7.3 22.9l-39 24.7l-1.9 48.7l8.2 39.1l-9.4 30.7l11.7 27.8l-21.8 14.4l-49.4 11.7l-36.5 -16.6l-37.8 23.7z" />
  </g>
  <g data-id="045">
    <path d="m5837.4 2984.3l0 0l-44.6 90.4l69.8 46.8l72.6 41.4l4.4 99.6l13.5 17.7l95.6 120.4l21.3 17.8l49.8 -8.3l20.3 -14.9l117.9 -94.7l119.2 -106.7l5.3 -22.2l-9.8 -57.6l23.7 -21.7l-22 -99.5l-96.3 -50.5l-71.9 -60.6l-12.2 -66.6l4 -101.4l12.7 -32.9l-66.6 26.9l-136.8 -2.5l-0.3 -24.7l-49 5.5l-5 74.8l-2 145.5l-37.8 -2.4l-17.8 26.5l-24.5 0.1l-33.2 22.1l-0.1 31.8z" />
  </g>
  <g data-id="047">
    <path d="m2446 3551.2l0 0l-29.5 32.1l96.8 58.8l-16 143.9l-2.6 104.2l0.1 98.3l-11.8 85.6l-15 108.7l69.7 -1.6l100.2 -1.8l2.5 0l154.7 -2.5l11.7 -0.2l15.1 -0.5l14.1 0l0 -0l37.6 -0.3l49.8 -0.4l4.8 -0.1l10.7 -0.1l100.7 -707.9l-19.4 3.1l-15 -23.8l7.8 -6.6l-6.2 -31.3l-28.4 1l-37.3 -40.3l0.7 -41.8l-34.9 0.9l5.5 21.6l-21.2 18.6l-151 10.6l-43.3 33.7l-134.4 -49.1l-36.5 -19.6l-40.1 -3.5l-15.7 81.2l-24.2 129.2z" />
  </g>
  <g data-id="049">
    <path d="m6879 2083.5l0 0l-13 15.3l15.1 10.9l88.2 -42.1l6.6 55.4l2.9 11.9l33.5 -17.4l20.7 25.5l46.1 -12.1l26.5 29l46.8 -10.2l31.2 28.9l19.3 -18.3l16.3 14.1l6.9 49.6l23.2 -20.2l-2.4 -20.5l25.9 23.4l49.4 -6.4l-33.4 -53.1l27.5 15.7l21.5 -66.2l-2.2 -29.9l33.5 -21.7l-20 -46.1l-130.2 -261.5l-270.7 80.3l2.3 45l-10.5 11.3l2.9 4.9l10.3 18.8l-52.4 30.3l-0.7 60.1l13.5 -3.8l-35.3 54.7l11.3 22.6l-21.5 8.9l11 13.1z" />
  </g>
  <g data-id="051">
    <path d="m7393.6 3271.8l0 0l-29 36.6l31.7 33.3l24.8 59.1l30.2 3.8l23.7 -13.6l3.6 16.1l23.1 8.8l3.7 20.3l-33.3 27.6l21.7 32.5l19.9 20.5l29.2 -1.4l3.1 20.2l21.4 6.9l23.8 -16.3l29.6 -0.9l-7.4 23.7l7.1 12.8l40.7 -19l14.9 16.8l-4.7 16.6l47.4 32.8l52.1 17l25.5 27.5l37.8 -0.3l5.8 11.5l24.2 -5l90.5 30l15.3 -1.6l-18.3 -98.7l16 -8.4l-20.5 -29.5l-16.5 -47.9l-0.2 -32.2l-18.3 -15.1l23.4 -39.2l-21 -26.3l-0.1 -79.9l60.7 -60.6l-31.3 -44.6l27.7 -7.6l-4.4 -31.7l-20.6 -5.7l-19.1 -15.3l-34.3 0.4l2.6 -13.5l-23.1 -31.6l-18.6 4.3l-15.2 -26.9l-17.8 -10.3l-21.3 -48.6l-19.4 -23l-19.5 4.7l-13.7 30.1l-52.1 -2.9l-87.8 -16.3l1.6 23.1l-49.9 5.8l-54.6 40.8l-24.7 -0.6l6.8 20.3l-30.3 46l-2.1 21.4l-26.7 -13.2l-28.8 18.6l3.9 72l-9 26.2z" />
  </g>
  <g data-id="053">
    <path d="m5620.9 4201.1l0 0l7 -1l18.8 -0.1l106.4 1.7l130.5 4.9l12.8 0.9l81.2 4.2l50.2 4.4l15.2 1.8l-32.3 -14.7l-6.5 -30.1l8.2 -33.1l-14.7 -8.5l10.6 -13.9l-22.7 -21.5l-2 -46l20.9 -62.8l-29.3 -83.2l-43.1 -43l-6.8 -42.1l-71.1 51.6l-103.3 -76.8l-50 -19.1l25.8 51.3l-40.8 181.4l-65.1 193.6z" />
  </g>
  <g data-id="055">
    <path d="m1594.8 2918.5l0 0l-0.1 0.1l5.3 12.9l48.1 -1.5l24.6 29.6l-9.3 18.5l16.5 55.4l34.5 29.9l63.6 73l29.6 88.8l-31.4 60l29.2 13.4l14.2 33.6l-8.2 12l-5 25.8l19.6 -3.2l-2.3 12.1l31.6 -11.3l-4.2 -16.6l13.4 -10.5l22.2 3l6.6 -17.8l17.2 5.7l29.5 -40.7l16 -7.3l-7.9 -37.4l11.9 -8.4l-11.8 -16.8l48.7 -25.8l330.6 -234.3l-23.5 -14.5l-33 22l-20.8 -9l-0.3 -18.6l18.2 -4.6l-1.8 -43.6l-27.5 25.4l-38.6 3.5l-6.6 8.3l-26 -21.5l-9.4 3.3l-10.9 -27.3l2.6 -21.5l-10 -44l14.5 -24.6l-29.2 1.9l-8.3 11.4l-28 -3.6l21.4 -17.3l-7.2 -24.3l-11.3 8.8l-21.5 -20.4l-2.5 -53.6l-22 -14.3l-7.2 31l-17.1 24.7l-17.6 -7.7l-18.2 21.5l0.1 0.2l-1.7 15.4l-2 6.5l1.5 4.4l1 0.5l-0.2 2l-2.6 5.4l-4.6 4.9l-1 -0.5l-5.1 -2.7l-7.4 5.7l-8.1 12.3l-4.6 2.7l-3.6 0l-1 -1.1l0 -1.6l-6.1 -0.5l-17.9 1.1l-24.4 3.1l-6.1 -1.7l-3.3 -0.1l-28.8 7.8l-19.3 2.2l-4.6 3l-17.5 3.1l-24.1 2.8l-23.8 4.6l-16.8 1l-22.9 0.1l-34.8 6.9l-21.2 9.6l-19.4 10.3l-6.5 7.3l-4.8 2.4l-12.4 8.9l-3.4 3.5l-20 27.3l-13.2 9.7z" />
  </g>
  <g data-id="057">
    <path d="m5219 3796.9l0 0l9.7 24.2l25.7 31.6l-8.6 25.2l-19.7 8l9.8 66.8l23.1 10.6l37.6 -6.5l33 71.4l61 -3.1l-34.1 69.7l79.5 118.3l8.3 -0.7l126.2 -6.6l12.4 -2.6l31.9 0.2l5.7 -2.3l0.2 -0l65.1 -193.6l40.8 -181.4l-28 1.9l-14.6 -39.9l-35.7 -33.3l56.4 -44.7l-289 -21.5l-29.4 72.9l-43.6 43.2l-38.9 8.7l-31.2 18.6l-26 -29.7l-27.7 -5.3z" />
  </g>
  <g data-id="059">
    <path d="m2863.3 2388.2l0 0l-19.8 68.1l193.2 102.2l133.8 58.1l27.6 18.9l56.9 14.4l50.1 -6.3l25.2 16.5l42.3 -32.6l75.4 -83.1l6.9 3.8l19.1 8.2l31.7 -10.8l16.1 -21.7l50.6 -20.1l17.1 -17.7l30.7 -13.4l-64.1 -58.4l56.7 -48l8.3 -89.5l-33.4 -47.1l-15.2 -34.8l-42.7 7.6l-9.7 12.6l-24.5 -14.7l5.2 -52.9l19.3 -21.4l-20.8 -6.5l-12.4 -33.4l-16.8 -6.2l-34.9 19.6l-37.8 1.3l17.6 -35.2l-6.5 -19.8l-0.2 0.1l-32 13l-9.2 4.5l-30.4 21.8l-11.6 13.8l-3.7 7.5l-1.5 6.5l0.5 3.8l2.3 5.9l1 6.8l0.5 8.1l-1.1 7.1l-7.1 18.4l-2.9 10.1l-5.2 30.6l-3.2 13l-9.9 28.3l-3.2 7.3l-3.8 6.9l-7.7 8.4l-1.1 1.2l-17.4 14l-12.2 5.3l-14.8 3.5l-10.6 -0.6l-10.9 -3.6l-2.8 -2.6l-4.6 -9.3l-5.7 -25l-0 -0l-5.8 -14.8l-15.2 -27l-7.1 -9.1l-4.5 -3.8l-3.3 -1.8l-7.8 -1.8l-12.1 1.6l-29.2 -4l-13.4 -4l-11.2 -4.8l-45.1 -30.3l-10.1 -9.2l-7.6 -9.7l-1.6 -2l-5.9 -5.1l-36.7 -25.8l-0.4 -0.2l-27.3 132.1l27 17.1l-10 16.5l17.3 23l34.4 5.5l-11.3 14.1l-13.2 20.5l-43.3 31.9l-63.1 6.8l-29.9 22z" />
  </g>
  <g data-id="061">
    <path d="m4078.6 3057l0 0l92 249.7l154.4 147.2l33.2 -8.2l19.3 -18.8l30.5 -11.6l34.7 45l103.5 25.7l51.6 12.8l23.4 -187.8l9.6 -79.3l-142.6 -198.9l-25.5 4.8l-13.9 -13.3l-7.3 21.3l-21.2 -8.3l-341.7 19.6z" />
  </g>
  <g data-id="063">
    <path d="m8283.2 1814.1l0 0l4.1 16.7l22.8 14.8l23.1 -2.6l13.1 13.2l1.8 27.6l35.6 27.9l26.6 -10.7l29.2 11l9.5 23.1l10.6 -12.4l35.2 0.3l10.7 -9.8l47.8 3l23 18.7l24.6 -21.3l9.2 4.1l26.5 -46.2l27.3 -25.5l32.7 0.8l18.8 -24.4l-0 -22.4l32.8 -35.9l12.5 5.6l24.8 -28.5l-23.8 -33.8l-1.4 -39.6l-13.1 -30.3l-9.2 -0.5l-26.6 11.3l-15.7 -10.4l-23.9 4.2l-18.8 -12.2l0.6 -16.1l-23.8 -5.5l-5.8 -22.6l-20.5 17.1l-17.4 -6.6l-14.2 34.1l-2.6 -17.5l-29.9 -28.5l-10 -25.8l-67.8 -33.6l-31.8 -37.7l-24.1 -4l-11 24.1l-42.5 26l-3.6 45.5l-15.7 27.5l-15 1.7l-26.2 7.2l27.5 20.1l50 1l8.2 11.5l-16.8 7l-14 54.2l-32.6 2.8l-21.1 25.1l2.7 21.9l-12.6 55.3z" />
  </g>
  <g data-id="065">
    <path d="m7157.7 2524.7l0 0l19 61l29.1 65.4l59.6 4.4l104.9 -29.6l33.4 13.7l45.1 50.3l62.4 -110.1l-10.3 -11.1l44.1 -33.8l32 0.4l-18.7 -48.2l54.7 -37.7l41.4 -45.5l35.7 -2.1l-0.7 -20.8l-33.9 -4.8l-27 -15.4l-11.3 -26.1l-34.6 0l-22.5 18.6l-12.2 -32.7l-46.1 21.5l-53.7 -11.7l-7.3 -12.3l-67.7 -55.6l0.9 -74.1l-38.2 -9.2l-13.6 20.9l-49.4 6.4l-25.9 -23.4l2.4 20.5l-23.2 20.2l-6.9 -49.6l-16.2 28.8l-38.2 37.8l29.7 -4.2l33.2 24.1l-38.4 45.5l27.9 10.8l1.1 30.2l-23.8 49.7l8.4 15.3l4.7 69.4l-49.6 42.7z" />
  </g>
  <g data-id="067">
    <path d="m6460 1900l0 0l-3.5 23.2l73.2 23.8l16.2 5.3l28.4 14.8l46.1 23.9l17.6 9.2l56 29.2l10.1 29.5l25.4 22.6l24 68.1l-1.8 34.8l32.9 -40.1l32.2 42.9l26.9 -22.1l-23.5 -58.4l6.5 -12.9l49.3 32.6l4.9 -16.7l-15.1 -10.9l13 -15.3l-11 -13.1l21.5 -8.9l-11.3 -22.6l35.3 -54.7l-13.5 3.8l0.7 -60.1l52.4 -30.3l-10.3 -18.8l-2.9 -4.9l10.5 -11.3l-2.3 -45l-1 -14.3l-40.6 -28.9l-11.2 13.6l-44.6 -23.3l-26.8 -24.7l16.3 -33.7l-6.9 -40l24.4 -35l-23.3 -49.4l-37.9 0.2l-180.3 81.7l-107.3 49.3l-5.9 22l-5.3 20l-26.5 102.2l-11.1 42.5z" />
  </g>
  <g data-id="069">
    <path d="m7347.2 1173.5l0 0l3.6 20.8l40.7 27.9l36.4 66.3l6.9 38.8l33.3 -5.7l-11 25.5l34.5 -23.1l8.3 21.4l12.2 -3.5l-0.5 29.5l23.9 -7.6l-11.6 21.9l19.3 17l-19.2 30.5l33.4 -6.5l13.5 31.2l14.3 4.9l8.5 -21.6l14.3 -4.4l12.7 15.1l8.6 -13l31.9 14.8l22.5 -14.5l-14.8 42.2l36.1 -0l-8.5 27.2l10.8 13.7l20.3 -11.5l-1.1 69.8l14.9 -9.1l15.4 29.3l16 -7.8l17.1 51l14.4 -27.6l26.6 -9.7l37.1 -41.7l29.5 2.8l10.6 -34.6l41.2 -29l6.1 -21.9l17.4 -2.9l-9.4 -37.9l11.7 -3.5l5.1 -36.3l17.7 -14.6l-13 -15.7l-0.8 -26.7l21.8 -16.6l15.5 7.5l22.8 -44.6l-18.1 -28.7l-40.5 -4.5l-22.9 -22l-49.1 -8.8l-38.6 -19l8.9 -22l-20.3 -75.9l-11.7 -20.9l-33.6 -2.8l-5 -30.8l-17.5 -5.7l-105 36l-180.8 80l-93.4 -60.3l-69 67.9z" />
  </g>
  <g data-id="071">
    <path d="m8717.2 2401.9l0 0l-6.7 63.8l23.8 35.5l20.2 4.9l12.2 21.4l-4.1 56.6l12.8 30l-7.4 19.2l17.5 20.4l-1.3 34.5l14.2 14l-17.5 4.9l-4.9 39l-19 15.6l1.4 13.3l-20.9 8.2l-3.1 9.3l126.7 23.1l-0 50.6l-5.2 36.4l32.8 4.8l37.6 -29.7l25.2 7.2l9.1 19.1l-0.9 55.2l5 16.1l-15.2 30l15.9 25.4l5.3 33.4l-5.5 14.5l36 11.1l-1 20.7l19.6 5.7l13.9 -8.6l8.6 -25.8l28.1 -1.2l3.3 -23.9l23.5 -49.9l-18.7 -30.7l16.5 -17l27.1 1.6l18.7 -12.2l-4.1 -11.5l22.7 -27.5l3.6 -42.8l17.5 -16.9l2 -44.4l-14 -49.2l-33.9 -2.2l33.3 -229.2l-21.4 -46.7l67 -24.1l-1.6 -6.9l-74.6 -26.1l-25.3 -25.7l-17.1 -10.7l-26.1 1.9l-14.9 -16.4l-21.4 -2.7l-29.6 -20.4l-20.6 8.8l-16.9 -20.4l-14.6 0.2l-5 23.8l-24.4 -7.1l-78.3 27.4l-33.6 0.7l-7.1 16.3l-32.7 26.8l-10.1 -15.6l-24.1 -11.2l-17.9 5z" />
  </g>
  <g data-id="073">
    <path d="m5983.7 1693.3l0 0l-4.9 20.8l74 16.4l12.2 15.8l73.4 27.4l19.5 -6l29.6 -33.3l2 -6.9l-1.9 -33.9l183.6 -90.4l-6.8 -21.6l-2.5 -38.2l-11 -203.1l-69.4 23l-59.2 -30.6l-42.2 0.3l-28.8 2.6l-18.3 -32.9l-120.2 65.8l53.5 5.6l-55.1 96l-2.8 81.7l-8.5 84.3l4.8 25.3l-21.2 32z" />
  </g>
  <g data-id="075">
    <path d="m218 4361l0 0l-15.3 47.7l17.6 -0.2l16.9 0.1l12.2 -1.6l2.2 -0.6l30.9 -2.9l13.9 -1.7l60.2 -6.4l23.6 0.6l4.2 0.4l89 1.4l63.1 1.8l0.3 0l57.1 1.4l3 0.1l36 0.3l23.7 0.2l17.4 0.2l31.8 0.3l31.7 0.4l0.2 0l4.8 0l8.9 0.1l46.8 0.7l85.4 -0l19.7 0.8l12.9 -1.2l52.4 -0.8l-90.7 -121.2l-31.8 -2.9l-16.9 -20.9l-112.7 -1l-158.4 -93.4l-36.3 -2.2l-0.1 0.1l-11.3 9.4l-5.8 5.9l-6.3 8.4l-6.7 11.6l-1.9 5.4l-2.3 12.2l-2.2 27.2l-14.4 35.1l-5.1 6.5l-13 11.1l-12.1 4.2l-28.6 3.1l-2.2 -0.3l-10.6 -6.2l-4.8 -4.1l-9.5 -10.3l-20.6 -26.2l-9 -17l-15.6 -26.2l-6.2 -8.1l-11.3 -11.7l-1.1 -0l-8.5 -0.1l-12.8 2.1l-16.8 4.2l-11.9 5.5l-7.2 6.9l-5.9 8.4l-1.2 3l-2.2 9.5l-3.5 27.8l-2.8 12.3l-17.3 39.2l-0.9 5.3l-0.2 7.3l-2.5 15.8l-9.2 23.2z" />
    <path d="m0 4321.1l0 0l0.4 8.6l1.5 4.8l5.6 12.1l7.2 18.9l2.6 5.5l5.3 8.3l14.9 19.7l4.9 11.5l54.2 0.1l7.2 0.2l9.3 0.5l3.9 -7.6l7 -8.1l6.2 -10.9l5 -12.4l3.7 -14.2l0.6 -10.2l-3 -17.5l-7.3 -21.4l-7.6 -13.6l-2.4 -2.6l-5.2 -3.4l-20 -7.3l-18.9 -2.5l-5.6 -1.5l-4.8 -2.4l-6.9 -1.6l-19.6 1l-4.8 0.9l-8.6 4.6l-7.2 6l-6.7 7.8l-4.8 7.4l-3.9 10l-2.2 9.1z" />
  </g>
  <g data-id="077">
    <path d="m5994.5 643.7l0 0l-15.5 7.9l80.1 138.9l37 29.4l11.3 -18.5l26.8 6.4l46.1 -48.9l33.9 2.7l18.7 -24.7l48.5 -22.1l10.3 7l6.6 -75.4l158.6 -20.4l-29.7 -22.5l-89.5 -68.1l-12.2 -27.3l-23.8 -0.6l-1.9 -20.4l-19.8 4.1l-11.3 10.8l-18.3 12.3l-8.1 7.1l-5.4 7.2l-3.2 7.2l0.1 8.8l3.7 11.4l13.9 22.5l3.4 8.6l3 12.6l-0.1 6.1l-1.5 5.2l-2.3 2.7l-8.9 2.3l-9.6 -0.2l-9.1 -1.8l-16.1 -6.4l-11.8 -3.6l-40.8 -7.5l-7.9 1.6l-10.4 5.2l-17.6 11l-23.3 11.1l-10.6 3.2l-8.6 0.6l-19.6 -4.7l-21.3 -2.1l-14.8 1.5l-7.8 2.7l-5.3 3.4l-15.5 13.5z" />
  </g>
  <g data-id="079">
    <path d="m6345.4 2407.4l0 0l14.6 3.9l-13 20.5l28 9.3l23.8 -8l9.5 26.6l14.8 -9.9l5.4 23.3l-21.8 8.4l25.4 26l-19.6 19.8l19.3 6.8l-0.5 -15l26.5 -14.8l9.2 6.4l-7.9 27.2l9.8 -9.7l8.7 14.1l-11 22.7l24.1 27.4l15.7 -3.1l5 17.5l191 163.5l27.4 2.8l7.5 11.4l95 21.9l24.8 -41.9l-7 -29.5l17.2 -38.7l-30.1 -54.7l-2.1 -33.8l-32 -11.9l-4.4 -28l-28.6 -2.8l12.3 -20.4l-22.8 -20.9l-21.7 -47l-23.5 -26.3l13.8 -6.8l-27.3 -28l-14.3 -5.1l-3.4 -28.1l-20.1 -10.3l11.5 -22.1l-26.8 -16.5l4.5 -12.8l-18.6 -7.4l-16.5 2.7l-0.9 20.5l-21.7 10.5l-20.7 34.4l-21.1 -11.3l2.7 -25.4l-14.7 -4.6l-13.5 17.1l-12.5 -8.7l15.6 -13.9l-10 -16.7l-34.4 -11.4l-8.8 -24.6l24.5 -14.5l23.1 7l-10.6 -18.6l-52.6 -9.9l-0.4 43.2l-26.7 -11.3l1.7 -59.1l-26.1 -2.7l-27.9 20.8l0.6 26.3l17.8 21.7l-16.9 27.5l28.3 11.1l-12.2 28.4l15.9 2.2l-19.9 21.6l22.7 7.6l-36.9 4.7l-13.8 -7.3l1.5 24.9l-23.9 1.2z" />
  </g>
  <g data-id="081">
    <path d="m6298.2 646.2l0 0l-6.6 75.4l15.1 171.5l122.7 99l20.4 27.4l-12 19.2l23.1 0l19.3 30.5l20.6 48.2l34 6.9l26.6 13.4l23.5 -29.2l7 -4.2l47.3 -25.8l47.5 -0.4l11.8 -57.4l-73.6 -419.6l-95.6 -1.5l-14 -15.9l-36.7 7.2l-21.7 34.9l-158.6 20.4z" />
  </g>
  <g data-id="083">
    <path d="m991.7 3968.2l0 0l-3.2 19.8l4.3 119.7l-0.6 294.9l22.6 0.1l68.5 -0.1l42.4 0.3l71.2 0.7l110.2 0.5l42.2 0.2l37.8 0.6l0.1 -0l5.4 -0.1l0.5 0.1l29.9 0.6l0.2 0l4.4 -408.3l2.1 -315l-117.4 -2l-166.2 0.9l-12.6 -5.9l-136.1 -0.8l-0.4 285.5l-5.1 8.5z" />
  </g>
  <g data-id="085">
    <path d="m3821.2 2667l0 0l1.1 17.5l68.3 250.1l164.3 54l23.7 68.5l341.7 -19.6l21.2 8.3l7.3 -21.3l13.9 13.3l25.5 -4.8l1.9 -15.2l38.6 10l8.1 -12.4l19 12.9l33.5 -21.3l12.4 18.3l8.9 -38.3l-10.3 -29.1l28 -10.2l42.1 -12.1l-32.3 -23.6l14.3 -15.4l-19.5 -52.6l-26.1 -13.2l9.4 -24.2l14.4 -7.2l-16.1 -21.6l9.6 -10.1l-78.6 -117.9l-59.4 6.3l-8.9 -13.5l-13.4 27.7l-33.1 -32.7l-40.9 -0.8l-18 -44.7l-2.4 12.9l-26.5 15.9l-9.4 -14.7l-40 12.7l-48 -8.4l-0.6 -6.3l-13.1 12.9l8.5 40.2l-40 -1.1l3.7 7.7l-25.5 -15.2l-21.7 2.3l-20.2 -23.2l-29 6.5l-10.3 -25.1l-26.4 2.2l6.3 -16l-54.4 -38.1l-32.6 15.7l-6.7 22.1l23.8 -2.2l-15 19.3l-21.9 2.4l-1.2 -12.3l-29.8 -6.3l7.9 30.2l-31.3 28.3l20.9 17.5l-3.1 10.5l-24.9 4.2l0.9 12l-29.7 -27.1l-6.8 -19.8l-18.8 -1.1l-9.7 18.2l-23.6 -1.8z" />
  </g>
  <g data-id="087">
    <path d="m5108.8 2990.6l0 0l-15.6 98.3l19.8 22.1l2.9 28.5l13.7 5.3l-12.3 29.7l-9.8 111.5l33.6 65l37.6 29.7l54.4 14.5l84.2 11.3l122.3 -58.3l70.4 -38.8l36.1 -39.8l-25.1 -47.7l-45.5 -1.3l3.5 -23.9l16.1 -1.9l-2.6 -21.2l-49.5 -90.2l-61.6 -96.8l-140.8 -114.5l2.2 -61.4l-30.8 14.7l-35.9 -17.8l-5.3 29.3l-35.7 28.7l10.6 24.4l7.8 41.9l-44.8 58.5z" />
  </g>
  <g data-id="089">
    <path d="m8444.9 1055l0 0l-24.4 30.9l37 11.1l22.4 19.7l31.9 4.1l39.9 28.6l19.5 1.2l106.6 120.4l42.1 -13.4l34.1 4.5l125.2 42l9 -32l43.9 -36.8l10.8 -31.5l104.7 -92.9l31.5 -28.1l-0.1 -0.1l-13.4 -16.3l-18.7 -34.3l-8.8 -10.4l-4.5 -3.7l-18.5 -10.4l-7.3 -5.2l-6.8 -6.6l-8 -2.8l-11.3 0.5l-31.7 -2.4l-20.7 2.3l-13.5 -1.6l-13.6 -5.4l-20.9 -12.7l-5.5 -3.3l-25.5 -22.6l-6.3 -7.9l-3.8 -7.2l-5.4 -15.4l-3.9 -15.3l-2 -12.4l-1.3 -20.3l0.7 -22.2l-4.1 -24.1l-5.1 -15l-8.3 -15l-7 -7.8l-3.5 -12.4l0.9 -12.1l2.1 -12.8l5.4 -22.6l1.1 -6.2l0.7 -10.3l-1.8 -18.9l-1.7 -5.4l-2.3 -4.8l-1.5 -3.1l-5.3 -7.1l-12.8 -7.8l-6.6 -0.8l-38.8 11l-25.6 11.5l-20.7 14l-12.9 10.4l-14.1 4.7l-8.8 -0.5l-10.4 -3.9l-7 -1.3l-16.5 -1.1l-13.1 2.1l-8.1 2.8l-3.7 2.4l-0.2 0.3l-2.8 3l-3.9 6.2l-3.3 6.4l-5.1 13.6l-3.1 4.7l27.2 37.5l-18.7 30.3l-15.7 2.6l-5.7 40.7l-25.3 12.1l5.5 17.8l-14.7 19.1l12.9 25.7l-14.3 12.1l-23.5 49.2l-21.6 32.7l-40.1 15.1l-1.6 13.2z" />
  </g>
  <g data-id="091">
    <path d="m3415 2065.7l0 0l-17.6 35.2l37.8 -1.3l34.9 -19.6l16.8 6.2l12.4 33.4l20.8 6.5l-19.3 21.4l-5.2 52.9l24.5 14.7l9.7 -12.6l42.7 -7.6l15.2 34.8l33.4 47.1l-8.3 89.5l242.5 126.1l21.8 11.4l-73 -229.1l15.5 -71.5l14.2 -11.2l-3.9 -2.7l-4.4 -9.3l-1.1 -12l1.7 -9.7l3.8 -11l12.7 -27.7l5.2 -14.6l0.9 -5.7l-0.1 -6.9l-1.8 -6.9l-2.1 -3.5l-4 -3.3l-14.2 -4.1l-16 -3.1l-10.4 -0.2l-6.7 3.2l-7.9 7.6l-20.8 16.9l-10.9 7.2l-3.1 1.6l-5 0.8l-12.1 -2.8l-4.3 -3.7l-21.4 -27.2l-18.5 -32.7l-19.6 -40l-10.6 -27.2l-3.4 -12l-5.8 -14.9l-20.9 -13.6l-5.1 -2.5l-0.7 -0.3l-6.3 -0.9l-4.5 0.8l-15.3 8.7l-18.2 6.2l-9.1 4.6l-9.6 8l-4.9 5.3l-4.5 6.7l-7.2 7.5l-7.2 5.4l-4.8 5.3l-9.4 14.1l-13.6 16.3l-6.2 5.2l-0.2 0.1l-15.9 10.5l-11.1 2.8l-7.4 0l-14.8 2.3l-26.5 1.9l-5.6 -0.8l-12.9 4.4l6.5 19.8z" />
  </g>
  <g data-id="093">
    <path d="m4333.4 2605.9l0 0l9.4 14.7l26.5 -15.9l2.4 -12.9l18 44.7l40.9 0.8l33.1 32.7l13.4 -27.7l8.9 13.5l59.4 -6.3l78.6 117.9l-9.6 10.1l16.1 21.6l-14.4 7.2l-9.4 24.2l26.1 13.2l59.7 4.6l143.8 11.3l-2.1 -53.1l24.5 -118.7l48.9 -41l23.3 -8.9l2.1 -17.1l28.9 -39.3l-6.1 -25.3l35.3 -12.5l-1.7 -12.9l53.1 -26.5l60.7 -107.5l12.2 -21.6l5.7 -2.3l-14.9 -35.4l-53.4 -32l-16.3 -25.1l3.6 -37.5l-5.8 -16.8l-24.2 -19.2l-32.8 -15.8l-23.1 -28.5l-18.7 2.9l-27.4 -35l5.6 -22.3l27.1 5.1l-18.5 -18.3l-3.6 -30.2l-19.3 -4.9l-13.1 -39.4l-32.8 -5.2l-18.9 14l-14.4 -4.2l5.8 -44.9l-8.8 -36.8l-36.7 -8.1l-3.9 -3.9l-9.6 -15.8l-3.2 1.8l-4.5 2.6l-9 1.7l-23.3 1.8l-27 5.8l-3.1 0.5l3.1 20.6l18.8 128.7l8.4 57.4l-12.6 29l-28.8 66.5l-189.1 32.5l-41.4 87.3l-121.6 253.9z" />
  </g>
  <g data-id="095">
    <path d="m7966.5 3903.4l0 0l34.1 39.5l-6.9 43.2l-12.9 38.9l27.2 38.3l27.2 20.5l-2 53.3l0.3 -0l3.7 -1.5l4.3 1.6l8.7 -0.8l9.6 -2.6l5.7 1.1l6.3 -0.5l10.5 -1.5l5.5 -1.8l10.1 -3.8l21 -9.8l1.2 -1.3l-0.9 -2.3l0.4 -0.8l7.9 -9l4.2 -2.6l24.4 -10l4.6 -3.1l2.5 -0.3l2.5 2l1.3 0l3.7 -1.8l2.4 -2.4l1.3 -0.9l3.7 -1.1l1.4 -1.6l9.1 -4.8l35.6 -11.3l3.5 -1.5l2.1 -2l5.7 -1.8l25.4 -3.9l1.2 -0.3l1.6 -2l13.4 -4.6l3.9 0.3l4.2 -1.1l7.5 -4.1l10.7 -1.3l12.1 -5.7l10.3 -3l2.8 0.3l21.6 -7.2l26.7 -10.2l6.7 -3.3l24.8 -0.2l10.9 0.7l7.8 -1.1l6.3 -3.8l13.9 0.7l12.8 -2.1l2.8 -5.7l4.3 -5.3l4.2 -1.7l-0.6 -9.1l-0.7 -2.5l2.8 -5.1l1.3 -0.5l0.1 -0.2l-9 -4.9l0.3 -2l1.4 -2.5l3.1 -4.6l0.5 -9.4l-4.2 -9.7l3.8 -6.4l7.2 -2.1l5.5 -4.7l5.9 -10.8l5.1 -7.1l3.6 -2.9l6.5 -7.4l6 -12.5l-0.5 -14.3l-1.2 -3.1l-2.5 -3l-0.5 -2.5l0.4 -1.5l3.8 -4.4l10 -4.3l3 -2.6l2.6 -3.6l9.6 -3.9l5.9 -0.5l1.8 -6.6l-2.4 -9.4l3.9 -6.6l4.3 1.6l4.1 2.8l2.9 0.3l4.6 -3.5l10.5 3l6.4 0.3l4.3 -2l2.8 -2.3l20.1 -1.8l1.3 0.3l2 5.9l3.3 2.8l12.2 4.4l4.4 -0l4.1 -1l3 -6.4l7.1 -8l12.7 -4.1l12.5 -0.9l7.7 1l1.9 2.2l2.2 0.1l12.2 -8l12.2 -5.9l18.6 -1.8l19.9 -10.9l13.9 -0.5l0.2 -0l1.8 0.3l3.3 -1.1l0.7 -1.5l-1 -2.6l0 -2.5l2.2 -1.6l14.3 -4l7.1 -3.5l3.2 -4.3l3.9 -2.6l6.7 -1l1.2 -0.8l0.9 -3.7l-0.5 -1.6l-0.6 -1.9l2.9 -3.7l4.2 -1.7l4.1 -7.4l-3.3 -2.7l-6.5 -7.5l1.7 -3.7l3.2 -3.4l2.2 -1.9l6.6 -7.4l2.5 -4.9l2.3 -2.3l2 -3.2l2.5 -1.7l1.8 -4.2l0.9 -2.9l-0.7 -5.2l-0.4 -0.6l-2.3 -7.2l-1.5 -3.1l0.5 -9.1l0.9 -1.6l0.9 -5.3l5.1 -5.6l0.5 -2.2l-3.6 -0.4l-2.7 -3.3l-3.1 -2.9l-1.8 -0.4l-1.6 -0.2l-2.6 -8.4l-3.8 -3.8l-0.1 -0.8l1.1 -10l0.4 -3.5l-92.4 -68l-34.3 22.4l-51.2 14l-23.7 26.3l-20.5 -11.3l-151.5 45.5l5.6 -41.2l29.9 -16.1l5.7 -15.7l-52.9 -33l-26 -0.2l-4.8 24.8l-58.6 5.5l-39 55.6l-84.5 46.6l-99.1 32.3l5.4 28.5l-17.2 22l-62 10.9l-44.7 -19.4l-9.1 18.2l3.8 34.3l16 23.6l-39.5 68.6z" />
  </g>
  <g data-id="097">
    <path d="m6591.9 1104.5l0 0l17.7 47.3l22.8 23.7l-1.8 29.2l42.6 26.8l36.7 40.8l11.7 33.1l-5.2 14.3l8.4 46.8l16.5 20.9l14.3 41.5l-12.9 27.4l33.7 -7.4l50.3 16.4l22.1 -29.9l37 11.6l37.9 -26.9l-1.5 -13.8l14.9 7.1l19.9 -9.9l112.5 -95.5l120.9 -147l-39.6 -40l-23.1 6.9l-4.5 -18.3l-40.3 -13.5l7.1 -58.4l21.6 -35.9l-70.5 -1.4l15.3 -15.1l-1.8 -30.4l-256.3 36l-15.9 -6.8l-20.3 30.6l11.3 5.1l-38.2 11.5l-0.3 12l-36.5 -22.4l-11.8 57.4l-47.5 0.4l-47.3 25.8z" />
  </g>
  <g data-id="099">
    <path d="m4490 3017.8l0 0l-1.9 15.2l142.6 198.9l-9.6 79.3l84.5 16.7l112.9 14.4l64.8 -4.6l72.1 -19.7l76.2 -11.1l75.9 -20.8l9.8 -111.5l12.3 -29.7l-13.7 -5.3l-2.9 -28.5l-19.8 -22.1l15.6 -98.3l44.8 -58.5l-7.8 -41.9l-99.9 -5.5l-22.4 -9.7l-187.2 -15.1l-143.8 -11.3l-59.7 -4.6l19.5 52.6l-14.3 15.4l32.3 23.6l-42.1 12.1l-28 10.2l10.3 29.1l-8.9 38.3l-12.4 -18.3l-33.5 21.3l-19 -12.9l-8.1 12.4l-38.6 -10z" />
  </g>
  <g data-id="101">
    <path d="m2168.9 2083.2l0 0l-7 10.3l147.2 231.8l5.3 -14.6l25.1 1.5l-9.5 16.3l26.7 10.4l7.3 -20.6l12.6 16.8l-2.9 12.4l14.1 34.1l5.7 83.7l-4.6 14.6l26.2 51.5l314.5 -15.2l29.6 -28.8l76.9 -14.5l7.6 -16.5l19.8 -68.1l29.9 -22l63.1 -6.8l43.3 -31.9l13.2 -20.5l11.3 -14.1l-34.4 -5.5l-17.3 -23l10 -16.5l-27 -17.1l27.3 -132.1l-22.9 -12l-15.4 -4.2l-3.2 0.1l-1.6 1.1l-12.5 -6l-10.1 -8.3l-2.8 -3.5l-4.7 -3.8l-4.4 -0.8l-2.6 -2.2l-11.4 -12.8l-0.5 -0.9l0.9 -1.9l-0.5 -0.6l-0.5 -0.3l-9.8 -5.6l-14.4 -4.9l-13 -4.5l-1.9 -1.7l-21 -4.2l-13.1 -0.1l-11 1l-14.4 2.9l-3.5 1.6l-0.9 0.6l-18.8 12.3l-27.4 22.5l-5.3 5.9l-14.1 12.5l-8.4 4.1l-5.3 0.5l-11.5 -10.3l-14.8 -6.1l-18.9 -10.6l-3.4 -2.2l-3.6 -2.4l-10.6 -9.5l-8.6 -11.3l-3.3 -5.5l-4.8 -10.4l-3 -12.3l1.1 -13l-1.7 -8.5l-4.2 -6.3l-4.2 -3.2l-6.3 -3.3l-2.6 -0.5l-2.5 -0.5l-4.1 0.3l-5 1.7l-6.2 3.8l-3.2 6l-1.8 6.3l0 6.2l2.2 4.2l-3.5 15.5l-6 8.4l-11.4 10.1l-8.1 8.5l-4.4 11.2l0.7 8.8l2.8 8.9l3.9 9l4 6.4l15.5 13.5l8.6 5.1l6.4 5.5l7.3 8.7l4.1 30.7l-0.4 13l-3.6 7.2l-19.8 29.9l-7.7 8l-3.9 3.1l-12.6 4.8l-14.2 3.4l-13.2 1.9l-12.2 -0.2l-14.9 -2.4l-7.7 -2.8l-4.1 -4.3l-4.8 -7.6l-2 -7.2l-1.6 -9.6l0.4 -15.8l8.2 -16.7l2.9 -4.1l5.7 -5.1l3.6 -4.4l2.7 -5l1.7 -7.1l-0.1 -6.9l-2.8 -13.2l-1.9 -3.8l-6.5 -6.2l-5.6 -4.1l-6.1 -2.2l-4.8 -0.4l-5.7 1.7l-16.2 8.5l-0.3 0.2l-12.8 5.6l-9.6 2.2l-7.4 0.9l-12.7 -3.8l-9 -0.5l-29.1 6.2l-11.5 7.7l-2.6 2.9l-14 11.3l-3.6 2l-5.1 1.2l-0.8 0.2l-5.6 0.7l-16.9 0.1l-29.7 -2.2l-4.3 -1.3l-5.5 -4.1l-4.1 -4.3l-0.6 -1.8l-0.1 -7.1l-3.9 -7.3l-1.2 -1.8l-15.3 -12.5l-2 -3.5l-5.7 -15.1l-3.2 -5.3l-9.2 -9.9l-6.3 -5.1l-7.9 -3.7l-12 -2.8l-7.4 0.7l-8.8 4.4l-22.3 28.3z" />
  </g>
  <g data-id="103">
    <path d="m5555 1160.5l0 0l18.9 27.7l8.7 65.7l55.2 76.8l375.2 37.7l120.2 -65.8l18.3 32.9l28.8 -2.6l2.8 -19.9l-34.2 -11.2l-4.2 -23.9l22.8 -44.7l-20.5 -14.6l-38 -10.6l-0.4 -17.9l20 -12.7l-3.1 -17.6l-13.7 -7.9l-20.4 23.7l-1.4 38l-13.9 2.7l-17.7 -18.8l15.1 -33l-6.6 -28l-42 -22.6l-4.4 -13.8l19.7 -29.7l-10.3 -9.1l-29.1 7.5l-13.4 15.4l-16.5 -10.1l35.7 -69.5l-8.5 -15.1l-44 -21.4l-25.6 16l-18.4 -24.5l2 -30.2l-123.2 19.2l-107.4 103.2l-39 46.7l-45.2 6.2l-42.2 55.5z" />
  </g>
  <g data-id="105">
    <path d="m487 4037.3l0 0l0.4 9.2l1.6 6.7l4.5 6.6l15.4 17.7l12.5 11.9l7 8.3l2 5.5l0.1 12l-2 5.9l-3.2 3.4l4.2 1l12.7 9.1l-7.3 10.2l-13.3 15.8l36.3 2.2l158.4 93.4l112.7 1l16.9 20.9l31.8 2.9l90.7 121.2l0.3 -0l9.6 0.1l0.4 0l13.5 0.1l0.6 -294.9l-4.3 -119.7l3.2 -19.8l5.1 -8.5l-248.5 2.5l-85.4 -2l7.2 -23.4l-55.7 -16.9l-25.4 19.7l4 5.2l4.7 10.6l1 5.2l-0.7 8l-3.5 12.7l-4.2 8.1l-4.9 5.1l-5.6 0.1l-6.7 -0.4l-8.9 -5.6l-12.4 -1.5l-6.9 0.5l-13 -6l-2.9 0.3l-13.7 5.5l-6.5 4.1l-9.2 10.5l-8.2 12.8l-2.6 8.5l-1.6 13.9z" />
  </g>
  <g data-id="107">
    <path d="m2286.8 3027l0 0l-24.6 29.1l39.5 35l0.6 -28.9l32.1 -2l-14.8 42.1l18.1 4.3l-8.2 18.6l6.9 41l-14 23l21.1 14.2l22.9 30.3l-4.1 26.4l14.1 5.3l21 -23.6l1.4 34l17.8 -7.4l4.6 24.4l21.2 -0.6l11.1 29.1l10.2 -1.1l22.1 20.6l40.1 3.5l36.5 19.6l134.4 49.1l43.3 -33.7l151 -10.6l21.2 -18.6l-5.5 -21.6l34.9 -0.9l8.8 -22.9l19.9 -8.9l-6.8 -16.1l13.7 -9.2l-23.4 -7.8l-13.4 -23.8l-18.9 -5.8l2.9 -14.8l-29.3 -25l6.7 -17.2l-32.5 -20.5l2.4 -20.2l10.8 -63.4l15.9 -10.8l26.7 14.9l10.8 -43.7l20.6 -13l28.4 -51l-11.8 -3l18.4 -25.3l-20.4 -16.6l-22.4 5.6l4.6 -12.9l-34.3 -30.9l-13.9 -104.5l16.1 -50.7l-22.6 -26.8l9.2 -16.5l-20.4 -41.7l-160.3 136.2l-126.8 42.8l-289 184.2l-1.9 13.3l-22.6 5.5z" />
  </g>
  <g data-id="109">
    <path d="m7054.7 2755.9l0 0l2.3 28l18.8 48.6l25.9 50.7l13.1 14l-13 53.6l53 45.6l-18.1 8.6l6.6 54.3l22.5 -26.7l16.7 15.4l1.1 30.6l40.7 33.6l36.6 10.4l-2.6 22.2l58.9 24.3l81.4 4.6l28.8 -18.6l26.7 13.2l2.1 -21.4l30.3 -46l-6.8 -20.3l24.7 0.6l54.6 -40.8l49.9 -5.8l-1.6 -23.1l-43.3 -55.4l-42.1 -108.6l-19.9 -5.8l-24.8 -43l-1.7 -66.9l-10.8 -22.3l-15.8 -19.5l-45.1 -50.3l-33.4 -13.7l-104.9 29.6l-59.6 -4.4l-68 2.3l-39.1 12.1l-36.4 57.5l-7.6 32.8z" />
  </g>
  <g data-id="111">
    <path d="m4774.9 1911.3l0 0l-8.1 4.6l9.6 15.8l4.8 2.6l28.7 -39.1l39.4 -33.2l53.3 -18.3l33.3 -11.6l35.2 -12.3l102 -35.9l17.4 1.9l108.3 11.9l65.5 7.2l21.3 -2.3l28.2 -12.9l17.9 -8.2l114.5 -49.5l1.5 -12.4l4.8 -36.1l25.2 -194.6l-8.5 -3.7l-74.7 -32.5l-10.6 -7.3l-21.3 -14.8l-7.7 -5.4l-37.7 -27.2l-24.2 -17.3l-52.5 -18.7l20.8 -3.9l-90.2 -64.6l-0.6 5.8l0.7 17.9l-1 7.8l-9.8 31.1l-9.8 26.5l-8.2 12.9l-11.6 14.9l-8.3 15.4l-1 0.9l-10.2 8.9l-3.3 2l-35.5 21.4l-26.8 16.1l-7 4.2l-8 3.7l-8 -1.2l-13.3 -7.9l-7.2 -8.5l1.1 -3.3l-0.3 -1.3l-9.7 -9.5l-10 -3.9l-13.9 -0.2l-0 0l-3.3 1.2l-2.6 2l-8.5 2.8l-17.9 3.3l-10 4l-7.4 6.4l-7.2 14.6l-4.2 17.9l0.1 10.4l-2.2 19l-0 0.1l-7.6 15.9l-0.4 0.6l-7.5 11.3l-22.5 18.8l-4.3 4.1l-1.8 1.7l-1.7 1.6l-7.5 7l-19.1 24.9l-3.8 7l-2.5 6.6l-12.1 32.1l-0.9 35.3l5.6 48.4l0 0.1l0.8 18l-2.1 23.6l-9.2 21.4l-3.3 11.5l-1.8 7.7l-1.8 12.7l-1.6 21.9l-2.4 14.9l-1.3 5.8l-2 4.4l-2 4.4l-6.3 8.6l-5.8 6.5l-6.4 5.8z" />
  </g>
  <g data-id="113">
    <path d="m6373.6 2208l0 0l8.5 29.2l27.9 -20.8l26.1 2.7l-1.7 59.1l26.7 11.3l0.4 -43.2l52.6 9.9l10.6 18.6l-23.1 -7l-24.5 14.5l8.8 24.6l34.4 11.4l10 16.7l-15.6 13.9l12.5 8.7l13.5 -17.1l14.7 4.6l-2.7 25.4l21.1 11.3l20.7 -34.4l21.7 -10.5l0.9 -20.5l16.5 -2.7l39 -26.2l17.8 -28.1l26.8 -2.1l-30.4 -61.3l11.6 -21.4l38.7 21.2l14.6 -11.3l1.8 -34.8l-24 -68.1l-25.4 -22.6l-10.1 -29.5l-56 -29.2l-17.6 -9.2l-46.1 -23.9l-28.4 -14.8l-16.2 -5.3l-73.2 -23.8l-65.2 236.5l10.6 2l16.8 9.9l-45.1 36.4z" />
  </g>
  <g data-id="115">
    <path d="m8653.5 2147l0 0l-20.3 17.2l30.4 39.7l-10.8 28.7l51.5 39l12.9 130.4l17.9 -5l24.1 11.2l10.1 15.6l32.7 -26.8l7.1 -16.3l33.6 -0.7l78.3 -27.4l24.4 7.1l5 -23.8l14.6 -0.2l16.9 20.4l20.6 -8.8l29.6 20.4l21.4 2.7l14.9 16.4l26.1 -1.9l17.1 10.7l-19.7 -54.3l2.8 -41.8l-27.4 -15.8l13.3 -32.2l25.7 -26.8l-34.3 -48.1l76.9 -45.7l-84.8 -21.7l-78.4 -40l-124.9 -85.9l-57.3 -16.2l-74.2 -31.6l-26.8 -6.3l-24.6 15.6l-24 45l36 85.2l0.3 31.7l-26.9 -8.4l-9.7 48.8z" />
  </g>
  <g data-id="117">
    <path d="m6505 123.9l0 0l1.9 20.5l7 74.1l6.4 68l1 10.8l2.4 24.9l14.8 131.4l-13.9 77.8l-9.4 52.4l14 15.9l95.6 1.5l142.5 -22.4l7.6 -2.3l-16 -37l-27.9 13.8l-16.2 -51.7l19.2 -18.8l13.6 -72.3l-3.6 -4.8l-28.3 -63.4l1.8 -7.1l46 -50.5l-17.8 -8.7l-16.4 28.3l-17.1 -16.9l19.8 -26.9l-24.9 -18l-25.6 -28.7l-1.1 -15l6.3 -18.5l-16.5 -29.6l5.2 -23.9l-16.1 -38l-4.8 2.4l-12.9 2.7l-6.7 -0.2l-22 -11.9l-2.9 -0.8l-9.6 0.5l-4.7 2.9l-4.1 4.7l-8.4 12.7l-10.4 8.6l-0.4 0.3l-26.6 6.7l-12.2 6.7l-8.2 1.5l-16 -0.4l-4.4 -1.5z" />
  </g>
  <g data-id="119">
    <path d="m8462.2 2831.9l0 0l13.6 86.4l17.9 120.9l-7.3 35.8l7.6 18.9l-11.7 5.6l-10.4 44.7l9 35.5l-8.4 18.1l14.3 -7.8l18.9 8.7l46.3 -14.8l-1.4 21.7l17.2 25.5l28 -1.7l5.2 14.1l30.5 5.1l7.5 15.7l20.6 13.2l6.6 24.9l27.8 -28.7l18.7 -0.6l16.1 -20.3l14.5 4.5l36 -28l24.5 -41.6l29.4 -22.5l26 -4.9l17.3 -16.3l23.3 12.3l58.2 -14l32.5 -3l10.7 -15.7l18.1 -7.1l-19.6 -5.7l1 -20.7l-36 -11.1l5.5 -14.5l-5.3 -33.4l-15.9 -25.4l15.2 -30l-5 -16.1l0.9 -55.2l-9.1 -19.1l-25.2 -7.2l-37.6 29.7l-32.8 -4.8l5.2 -36.4l0 -50.6l-126.7 -23.1l3.1 -9.3l-20.5 -5.1l-9.8 -22.4l-33.9 8.6l-14.6 -14.2l-22.7 8.8l-14.8 -12.2l-22.8 3.7l-20.6 -25.9l-20.1 -7l-11.4 15.6l-23.7 -9.6l-7.4 7.2l2 33.5l-54.6 67.8z" />
  </g>
  <g data-id="121">
    <path d="m7203.9 3659.2l0 0l15 47.7l-6.5 36.4l19.6 23.4l6.4 60.4l17.4 -2.9l32.6 60.7l35.5 12.1l1.1 17.1l21 0l9 35.9l-13.1 32.7l24 -3.1l11.7 18.9l1.5 36.3l106.5 65.6l15.8 -45l14.1 15.3l17.8 -10.5l17.2 -50.8l25.1 -8.8l0.7 -22.3l16.2 -17.9l-2.6 -20.7l15.9 -25.4l13.7 4.2l28.6 -11.9l20.1 6.4l1.3 -12.7l30.2 -18.7l11.7 -25.6l18.5 -5.1l11.7 -25.3l25.8 -15.9l27.4 -3.3l-0.9 -21.6l18.4 -14.5l11.1 6.7l10.8 -22.2l41.1 -11.6l7 -29.2l12.7 -14.9l-23.2 -16l-7.5 -23.9l-24.2 5l-5.8 -11.5l-37.8 0.3l-25.5 -27.5l-52.1 -17l-47.4 -32.8l4.7 -16.6l-14.9 -16.8l-40.7 19l-7.1 -12.8l7.4 -23.7l-29.6 0.9l-23.8 16.3l-21.4 -6.9l-3.1 -20.2l-29.2 1.4l-19.9 -20.5l-45 37l-22.1 -6.5l-12.3 65.9l-36.1 31.5l-54 -5.5l-42.2 -13.2l-17.5 20l-29 2.6l-31.8 31.1z" />
  </g>
  <g data-id="123">
    <path d="m4834.1 2806.7l0 0l2.1 53.1l187.2 15.1l22.4 9.7l99.9 5.5l-10.6 -24.4l35.7 -28.7l5.3 -29.3l35.9 17.8l30.8 -14.7l71.8 26.3l39.5 -47.8l13.2 26l29.7 2.8l-9.8 -43.5l-23.7 -39.5l-14.8 -55.4l-24 -8.7l-28.4 -13.7l-10.8 14.3l5.3 39.3l-23.2 12.2l-36.3 -18.8l-18.1 -23.1l-23.4 12.9l0.8 -18.4l25.2 -29.1l-3.3 -36l21.3 -9.1l-27.6 -18.3l-3.4 -14.2l28.2 3.5l16.7 -21.4l15.4 6.2l-6.9 -26l-13.7 -9.5l-22.8 7.3l7.7 -22l4.2 -67l-18.3 -12.2l-26 11.1l-15.9 -4.2l-9.7 -32.3l-34.9 -26.9l-11.4 -0l-12.2 21.6l-60.7 107.5l-53.1 26.5l1.7 12.9l-35.3 12.5l6.1 25.3l-28.9 39.3l-2.1 17.1l-23.3 8.9l-48.9 41l-24.5 118.7z" />
  </g>
  <g data-id="125">
    <path d="m6854 3653.6l0 0l-13.4 22.7l29.4 10l63.7 -10.6l44.5 -27l9.3 -17.3l-1.9 31.1l15.1 11l16.1 10.1l15 -31.2l18 21.2l24.8 -0.9l9.3 13.7l29.3 -13.8l35.5 -34.9l13 -2.1l29.1 26.1l13.1 -2.8l31.8 -31.1l29 -2.6l17.5 -20l42.2 13.2l54 5.5l36.1 -31.5l12.3 -65.9l22.1 6.5l45 -37l-21.7 -32.5l33.3 -27.6l-3.7 -20.3l-23.1 -8.8l-3.6 -16.1l-23.7 13.6l-30.2 -3.8l-24.8 -59.1l-31.7 -33.3l29 -36.6l9 -26.2l-3.9 -72l-81.4 -4.6l-58.9 -24.3l2.6 -22.2l-36.6 -10.4l-40.7 -33.6l-1.1 -30.6l-16.7 -15.4l-22.5 26.7l-14 28.6l-39.7 5.2l-29 31.5l-20.3 -0.1l-2.1 62.5l-15.6 -9.1l-14.9 31.9l-17.5 -17.3l-11.2 35l-11.1 10.5l16.2 9.5l-29 13.8l20.2 26l-41 17.1l-4.4 2.8l14.9 12.5l-0.4 17l-0.4 36.6l-9.4 13.7l23.6 5.3l-18.9 7.4l16.8 19.2l-6.6 21.4l-21.4 2.2l-31.2 41.8l10 7.1l0.7 28.6l18.4 3.5l-8.6 21.1l-29.2 2l24.1 28.5l-4.8 12.7l-42.3 16l5.9 29.4l-17.5 20.2z" />
  </g>
  <g data-id="127">
    <path d="m8610.2 1917.8l0 0l8.4 56.2l35.1 15.6l24 -45l24.6 -15.6l26.8 6.3l74.2 31.6l57.3 16.2l124.9 85.9l78.4 40l84.8 21.7l21.2 -17.9l-6.7 -52.9l28 -20.3l-1 -33.6l60.5 -14.5l49.4 28.8l-0 -0l0.8 -1.5l1.8 -0.3l9.8 2.2l3.6 -1.3l5.5 -5.2l7.7 -9.6l4.3 -7l0.2 -1.4l-1.3 -1.2l4.3 -20.6l5.8 -6.3l1.2 -5.7l-0.2 -5.2l-1.6 -2.3l-2 -1.3l-6.1 -2.1l-18.8 -14.8l-2.3 -4.4l-2.7 -0.9l-13.3 -0.5l-9.6 -3.9l-3.4 0.4l-4.5 2.6l-3.6 -0.4l-1.8 -2.1l-0.6 -2.1l0.6 -4.4l-0.3 -3.5l-2.7 -2.2l-3.8 -7.4l-4.3 -11l0 -11.4l-1.6 -2l-4.3 -2l-6.1 -5.8l-4.8 -8.6l-0.6 -4l2.1 -4.9l0.2 -4.2l-5.2 -5.4l-3.5 -6.2l-1.1 -3.6l-0.1 -7.1l-3.2 -4.3l-2.8 -3.3l-0.2 -9.2l-2.2 -3.7l-11 -3.4l-8.1 -13l-11 -2.4l-13.1 -14.3l-1.9 -6l0.5 -6.3l-0.7 -14.9l-2.7 -3.1l-5.3 -1.7l-2.4 -1.6l-5.8 -8.4l-2.8 -2.4l-3.3 -1.6l-5.2 -4.2l-12.6 1l-4.3 -0.9l-1.2 -1.2l-1.1 -2.9l-0 -14.6l-1.3 -2.4l-5.3 -2.4l-10.6 -3.1l-2.9 -2l-1.1 -2l-1.3 -7.4l-0.1 -14.5l-0.7 -7.7l-7.6 -14.6l2.3 -6.8l5.2 -2.6l17.9 1l7.9 2.4l7.8 -2l2.8 -2.2l9.3 -26.9l6.5 -16l0.6 -6.3l0.6 -27.4l-2.5 -2.6l-7.1 -3.7l-4.2 -4.2l-1.9 -5.2l-2.8 -13l0.3 -2.6l6.7 -16.6l2.4 -2.2l0.9 0l-7.4 -28.1l-31.8 -4.8l-85.6 8.5l-49.1 40.9l-39.1 3.9l-36.4 -14.4l-35.4 18.5l-2.7 40.9l-40.5 30.3l-39.3 -9.7l-53.8 34.9l9.2 0.5l13.1 30.3l1.4 39.6l23.8 33.8l-24.8 28.5l-12.5 -5.6l-32.8 35.9l0 22.4l-18.8 24.4l-32.7 -0.8l-27.3 25.5l-26.5 46.2z" />
  </g>
  <g data-id="129">
    <path d="m7448.8 2689.9l0 0l15.8 19.5l10.8 22.3l24.9 6.7l-0.7 14.2l49.3 30.3l113.5 -12.3l-2.7 -22.6l17.3 -22l39.6 22.3l28 -7.1l30.6 -41.1l28.2 -5.4l17.5 48.5l19.4 -6.7l37.4 14.2l74.8 -219.4l-124 -47.2l-15.3 -19.9l-104.7 -62.4l-18.6 0.1l-35.7 2.1l-41.4 45.5l-54.7 37.7l18.7 48.2l-32 -0.4l-44.1 33.8l10.3 11.1l-62.4 110.1z" />
  </g>
  <g data-id="131">
    <path d="m7912.2 3456.2l0 0l18.3 15.1l0.2 32.2l16.5 47.9l20.5 29.5l-16 8.4l18.3 98.7l-0.5 24.9l26.4 19.9l-13.8 26.1l13.3 -0l44.7 19.4l62 -10.9l17.2 -22l-5.4 -28.5l99.1 -32.3l84.5 -46.6l39 -55.6l58.6 -5.5l4.8 -24.8l-5.4 -23.3l10.4 -5.2l0.3 -39.7l18 -18.2l-16.1 -12.3l12.4 -35.2l-35.2 -11.1l-15.2 -32.7l-28.6 -13.1l12 -12l-11.4 -17.2l32.8 -20.1l-0.4 -13.3l-40 -16.1l-29.4 -32.5l-10.7 6.6l-24.6 -12.2l-6.7 -15.9l-15.3 4.6l-16.4 -25.3l-17.8 7.1l-25.7 -57.9l10.7 -19.6l-23 -19.3l2.3 -19l-57.9 -23.1l-3.9 -18l-43.4 33.4l-0.3 16.7l-29.3 3.5l-8.9 -9.4l-23.6 12.9l-10.3 23.2l4.6 33.3l-32.3 26.3l-27.7 7.6l31.3 44.6l-60.7 60.6l0.1 79.9l21 26.3l-23.4 39.2z" />
  </g>
  <g data-id="133">
    <path d="m8443.2 3616.9l0 0l-5.6 41.2l151.5 -45.5l20.5 11.3l23.7 -26.3l51.2 -14l34.3 -22.4l92.4 68l1 -3.8l1.2 -1.7l1.1 -0.9l0.9 -0.4l1.5 -1.2l2.6 -1.6l3.1 2.8l3.5 -0l1.5 -1.3l0.5 -5.1l3.5 -4.9l1.5 0.4l1.6 0.8l2.6 1.7l5.8 -0.5l4.9 -5l1.6 -0.4l2 0.1l3.3 -3l2.8 -5.2l4 -2.4l2.2 -6.7l-1.9 -5.6l0.8 -4.3l1.8 -3.5l4.4 -0.9l3.3 3.5l1.2 -0.4l2.7 -3l2.2 0.1l3 -1.7l2.9 3.1l17.2 -4.3l4 -2.8l1.7 1.9l0.6 3l1.1 1.3l1.8 0.7l3.4 -2.1l0.6 -0.8l1.8 -1.2l0.3 -0.3l8.9 -0.1l4.9 -7l1.3 -4.5l7.3 -0.7l6.2 -8.6l0.9 -3.6l9.5 -7l6.7 1.2l2.9 1.6l1.5 2.5l3.6 -1.8l3.2 -7.6l2.5 -19l1.6 -2.6l11.6 -2.5l2.5 1.8l7.2 2.2l1.6 -0.8l0.5 -0.3l2.9 -3.9l-1.1 -4.1l0.2 -7.9l1.1 -9.1l-2.2 -7.6l-3.2 -7.1l-0.9 -10.1l4.3 -4.1l2.7 0.6l4.4 -0.9l2.1 -2.5l-0.6 -3.8l-1.3 -1.9l-3.2 -1.9l-3.2 -5.2l-2.5 -11.4l0.8 -1.8l2.9 -2.2l0.7 -11.5l-0.4 -7.3l-5.7 -10.2l-0.2 -5.2l0.3 -1.5l5.4 -7.1l4.9 -3.5l2.6 0.3l11.1 -5.6l16 -9.9l14.5 -7.1l6.8 0.4l3.5 1l6.9 -5.7l5 -5.8l6.9 -3.2l6.5 -1.9l3.6 -9.2l2 -1.2l2.1 -1l23.9 -3.9l11.3 -14.3l9.8 -8.6l12 -8.1l14.3 -6.7l6.2 -5.5l-0.6 -2.8l1 -1.3l7.5 -4.6l10.2 -4.7l17.9 -12.5l-32.1 -21.3l-16.1 -34.3l-35.3 -29.8l-56 33.8l-16.8 -2.4l-27.4 -22.9l6.9 -21.1l-31.8 -2.1l-11.3 -24.5l-32.5 3l-58.2 14l-23.3 -12.3l-17.3 16.3l-26 4.9l-29.4 22.5l-24.5 41.6l-36 28l-14.5 -4.5l-16.1 20.3l-18.7 0.6l-27.8 28.7l-6.6 -24.9l-20.6 -13.2l-21.8 30.1l-28.3 19.8l3.5 13.6l-30.5 54.7l10.1 52.4l13.6 20.2l-2.7 29.7l-19.8 0.8l-18.5 31.7l25.9 11.8l-4.1 29.2l-73 41.4l-14.8 -14.4l-5.7 15.7l-29.9 16.1z" />
  </g>
  <g data-id="135">
    <path d="m7794 851.7l0 0l-3.8 10.5l28 43l-22.7 144.7l17.5 5.7l5 30.8l33.6 2.8l11.7 20.9l20.3 75.9l-8.9 22l38.6 19l49.1 8.8l22.9 22l40.5 4.5l18.1 28.7l53.7 -24.6l15.3 34.8l28.8 21.8l29.1 68.5l19.7 3.9l37.8 -23.7l36.5 16.6l49.4 -11.7l21.8 -14.4l-11.7 -27.8l9.4 -30.7l-8.2 -39.1l1.9 -48.7l39 -24.7l-7.3 -22.9l16.6 1.6l18.5 -26.2l-2.8 -44.7l29 -13.3l24.4 -30.9l1.6 -13.2l40.1 -15.1l21.6 -32.7l23.5 -49.2l14.3 -12.1l-12.9 -25.7l14.7 -19.1l-5.5 -17.8l25.3 -12.1l5.7 -40.7l15.7 -2.6l18.7 -30.3l-27.2 -37.5l-11 16.4l-14.7 11.5l-26.2 13.3l-24.3 6.4l-6.2 3.5l-6.5 6l-7.2 9.4l-6.2 11.6l-4.9 23.5l-3.5 8.4l-8 14.3l-4.6 5.8l-5.6 5.4l-18.5 7.6l-10.3 0.8l-10.4 -0.3l-24.7 4.5l-14.5 1.1l-11.3 -2.7l-15.8 -9.4l-12.3 -5.7l-9.3 -1.7l-8 1.1l-7.3 2.9l-4.5 4.7l-8.6 1.1l-3.8 2l-4.7 5.4l-0.2 0.2l-1.1 5.2l-23.7 26.7l-3.1 2.1l-7 2.3l-10.2 -2.7l-7.7 -4.5l-4.8 -4.2l-8 -10l-2 -5l-1.3 -6.4l-0.6 -11.2l-2.4 -13.3l-6.9 -11.6l-16.3 -13.8l-21.6 -14l-13.4 -7.6l-12.7 -4.9l-11.1 -2.9l-35.9 -5.6l-10.7 -3.2l-26.6 -1.6l-8.7 -1.3l-13.2 -6.4l-3.6 0.6l-10.8 -3.1l-5.4 -4.5l-5.6 -7l-13.2 -13.2l-9 -6.9l-14.5 -8.5l-10.8 -4.1l-11 -2.2l-16.3 1.6l-21 5.6l-16.5 5.8l-9.5 4.3l-7.9 1.8l0.5 -1.6l-53.9 14.4l-14.7 8l-9.3 10.2l-2.9 4.7l-1.5 4.5l-2.7 14.7l-0.7 11.3l-4 15.5z" />
  </g>
  <g data-id="137">
    <path d="m6197.9 2713.7l0 0l-4 101.4l12.2 66.6l71.9 60.6l96.3 50.5l22 99.5l-23.7 21.7l9.8 57.6l-5.3 22.2l192.6 -173.3l23.3 -20.8l70.4 44.5l73.9 -260l-7.5 -11.4l-27.4 -2.8l-191 -163.5l-5 -17.5l-15.7 3.1l-24.1 -27.4l11 -22.7l-8.7 -14.1l-9.8 9.7l7.9 15.6l-8 12.2l-39.6 -12.5l-0.1 21.5l-56.8 38.2l-20.1 6.2l-1 -1.4l3.6 -12.8l1.2 -5.3l-2.6 -0.4l-12.2 2.5l1.8 4.2l-3 2.4l-0.8 6.2l5.2 -0.3l5.9 3.5l-46.4 16.2l-83.8 46.9l-12.7 32.9z" />
  </g>
  <g data-id="139">
    <path d="m1324.7 3457.4l0 0l-2.8 17.7l51.6 53.6l39.9 21.3l17.5 -0.4l44.8 -20.4l29.4 -25l43.1 -9.2l37 -14l34.6 4.9l41.5 20.9l88.6 109.7l41 -29.7l-23.1 -45.5l13.8 -47.1l-19.5 -41.8l18.7 -23.3l7.9 -57.2l22.9 -27.8l8.2 -12l-14.2 -33.6l-29.2 -13.4l31.4 -60l-29.6 -88.8l-63.6 -73l-34.5 -29.9l-16.5 -55.4l9.3 -18.5l-24.6 -29.6l-48.1 1.5l-5.3 -12.9l-4 3.1l-5.1 2.1l-7.6 -1.8l-2.9 -2.7l-5.3 -9.1l-13.4 -11l-12.7 -8.5l-8.9 -4.1l-6.2 -1.8l-5.7 1.2l-2.3 1.3l-4.9 2.8l-9.7 4.2l-9.5 2.1l-8.1 2.9l-14.2 7.8l-7.7 5.4l-13 13.1l-5.7 7.1l-8.4 15.5l-2.5 19.6l-4.7 17.3l-0.7 16l-2.4 15.4l-3.3 9.9l-4.4 7.5l-5 12.2l-8.5 16.3l-5.9 16.5l-4.7 7.4l-3.7 8l-4.2 12.5l-1.7 11.4l8.4 17.6l3.5 11.1l-3.1 7.5l1.7 3.1l9.5 11l11 8.5l6.7 7.2l3 5.5l6.9 18.4l2 3.9l8.4 11.7l6.3 5.2l10.8 5.8l10.7 10.7l3.8 5.8l7.6 23.9l3.2 12l2.3 2.9l5.7 23.3l-0.4 3l3 6.2l2.1 2.7l2.4 1.5l4.9 8.8l-0.5 4.2l-13 38.7l-1.5 2.3l-10.1 26.2l0 1.1l1 1.1l-2.4 15.2l-18.9 40.9l-22.6 9.2l-8.8 1.8l-9.5 -1.3l-0.3 0.1l-18.6 4.2l-13 0.1l-9.3 -0.6l-13.3 -2.6l-18.2 -4.6l-19.2 -9.9l-5 -4.2z" />
  </g>
  <g data-id="141">
    <path d="m3302.4 4001l0 0l-1.7 171.7l64.8 -1.2l138 -3.8l0.7 -0.1l68 -1l27.8 -0.5l19.4 -0.7l2.9 -0.1l4.1 0.1l65.4 -2.1l15.7 -128.2l14.5 -46.9l31.4 -65l16 -23.6l17.8 -56.8l45.8 -52.5l30.9 -11l27.4 -0.2l-6.4 -15l-76.3 -177l-224.7 -93.4l-126.3 -20.5l-46 -7.6l-100.9 20.7l-6.6 421.5l10.6 61.1l-12.3 32.1z" />
  </g>
  <g data-id="143">
    <path d="m1790.9 3586.8l0 0l-41 29.7l67 76.3l12 57.1l30.2 55.3l141.4 -50.7l61.9 -19.9l147.3 -82.2l18 0l-129.1 -176.8l-88 -176.8l-70.5 -8.1l-29.5 40.7l-17.2 -5.7l-6.6 17.8l-22.2 -3l-13.4 10.5l4.2 16.6l-31.6 11.3l2.3 -12.1l-19.6 3.2l5 -25.8l-22.9 27.8l-7.9 57.2l-18.7 23.3l19.5 41.8l-13.8 47.1l23.1 45.5z" />
  </g>
  <g data-id="145">
    <path d="m839.3 3211.3l0 0l1.1 9l82.9 239.9l62.4 179.8l7.6 22.2l4 11.9l136.1 0.8l12.6 5.9l166.2 -0.9l117.4 2l-1.3 -64.1l-0.3 -33l3 -35.3l-17.5 0.4l-39.9 -21.3l-51.6 -53.6l2.8 -17.7l-7.3 -6.1l-9.7 -6l-6.5 -7.8l-10 -15l-6.2 -3.5l-9.5 -8.8l-13.5 -9.3l-19 -11.1l-6.2 -2.5l-9.7 -0.5l-9.1 -2.5l-56.4 -27.3l-8.2 -2.9l-11.3 -2.5l-23.2 3.3l-4.2 -0.9l-11.4 -4.6l-7.7 -4.2l-10.7 -8.3l-9.2 -5.2l-16.2 -13.1l-13.9 -10.1l-4.6 -6.1l-9.8 -10l-13.7 -10.3l-11 -6.2l-20 -6l-18.6 -7.1l-45.3 -21.8l-43.8 -15.8l-18.5 -8.2l-5.2 -0.8l-9.4 -3.1l-4.9 -1.6l-1.8 -0.3z" />
  </g>
  <g data-id="147">
    <path d="m6438.6 4014.8l0 0l-137.4 223.5l201.8 6l107.5 5.4l56.8 -0.7l75.1 1l225.7 6.9l12.9 -0.2l44.7 -0.3l0.2 0l-16.3 -34.7l-42 -33.7l-47.4 -70.2l-16 -54l-3.8 -80.2l-12.6 -2.7l-7 -23.1l-16.3 -10.3l6.4 -39.4l-14.2 -10.4l14.1 -17.3l34.9 -18.2l-34.3 -8l39.3 -36.2l-13.3 -19.1l12 -12.7l-8.4 -19.6l8.3 -24l15.4 -11.6l-8.5 -32.5l17.3 -22.6l-63.7 10.6l-29.4 -10l13.4 -22.7l-10.6 -5.7l-21.5 15.9l-45.2 10.3l-212.1 131.2l-17.8 7.6l23.5 29.9l-28.4 11.5l23.3 20.2l-5 34.9l-24.4 -7.9l5.1 14.2l-34.7 9.7l-10.9 10.7l-4.4 29.8l-52.4 13.1l0.1 35.6z" />
  </g>
  <g data-id="149">
    <path d="m2729.5 2516.2l0 0l-5.7 33.4l22.3 44l21.9 11.1l90.8 8.2l28.7 32l20.4 41.7l-9.2 16.5l22.6 26.8l-16.1 50.7l13.9 104.5l34.3 30.9l-4.6 12.9l22.4 -5.6l20.4 16.6l111.8 18l52.4 -54l77.3 3.4l16.4 -7.5l-6.3 -74l-40.8 -40.5l29.3 22.6l13.5 -15.6l70.5 -117.4l14.7 -15l-25.2 -16.5l-50.1 6.3l-56.9 -14.4l-27.6 -18.9l-133.8 -58.1l-193.2 -102.2l-7.6 16.5l-76.9 14.5l-29.6 28.8z" />
  </g>
  <g data-id="151">
    <path d="m6633.6 2313.6l0 0l18.6 7.4l-4.5 12.8l26.8 16.5l-11.5 22.1l20.1 10.3l3.4 28.1l14.3 5.1l27.3 28l-13.8 6.8l23.5 26.3l21.7 47l22.8 20.9l-12.3 20.4l28.6 2.8l4.4 28l32 11.9l2.1 33.8l30.1 54.7l57.7 2.7l2.6 23.2l44.5 13.5l57.7 -19.7l32.5 7.2l36.4 -57.5l39.1 -12.1l68 -2.3l-29.1 -65.4l-19 -61l49.6 -42.7l-4.7 -69.4l-8.4 -15.3l23.8 -49.7l-1.1 -30.2l-27.9 -10.8l38.4 -45.5l-33.2 -24.1l-29.7 4.2l38.2 -37.8l16.2 -28.8l-16.3 -14.1l-19.3 18.3l-31.2 -28.9l-46.8 10.2l-26.5 -29l-46.1 12.1l-20.7 -25.5l-33.5 17.4l-2.9 -11.9l-6.6 -55.4l-88.2 42.1l-4.9 16.7l-49.3 -32.6l-6.5 12.9l23.5 58.4l-26.9 22.1l-32.2 -42.9l-32.9 40.1l-14.6 11.3l-38.7 -21.2l-11.6 21.4l30.4 61.3l-26.8 2.1l-17.8 28.1l-39 26.2z" />
  </g>
  <g data-id="153">
    <path d="m8314.1 2287.1l0 0l-30.6 27l36.1 41.8l-25 52.1l25.5 24.2l-19.2 21l11.5 26.3l14.8 2.9l19.8 28.8l22.1 9.6l44.6 4.7l38.9 37.9l9.2 20.4l26.7 -7.6l32.7 -34.5l23.4 37.6l11.6 -3.2l8.2 21.5l23.9 23.6l14.8 -8.9l19.7 9.5l-7.3 57.6l13.5 -1.7l14.3 36.3l48.7 16.7l15 25l9.8 22.4l20.5 5.1l20.9 -8.2l-1.4 -13.3l19 -15.6l4.9 -39l17.5 -4.9l-14.2 -14l1.3 -34.5l-17.5 -20.4l7.4 -19.2l-12.8 -30l4.1 -56.6l-12.2 -21.4l-20.2 -4.9l-23.8 -35.5l6.7 -63.8l-12.9 -130.4l-51.5 -39l10.8 -28.7l-30.4 -39.7l-22.2 -14.4l-17.3 -30.8l-10.4 23.5l-18.7 3.5l-42.9 -33.6l-52.4 -6.8l21 50.5l-79.7 53.6l-6 17.4l-38.6 4l-23.4 48.3l-28.5 7.8z" />
  </g>
  <g data-id="155">
    <path d="m5324.7 2670.9l0 0l24 8.7l14.8 55.4l23.7 39.5l9.8 43.5l29.5 -19l53.2 3.1l7.4 11l37.2 3.9l38.1 -5.5l27.2 32l10.7 -1l43.7 26.5l14.7 30.5l26.9 -6.2l24.5 -34.4l29.2 -3.6l16.4 -19l8.5 7l20.5 -24.3l37.3 29.4l18.9 -9.7l21.7 27.9l18.6 7.2l13.1 22.8l18.9 7.5l37.8 2.4l2 -145.5l5 -74.8l12.5 -142.7l-178.7 0.3l-119.9 0.3l-70.9 -34.7l-38.7 0.6l-11.4 -7l-32 -29.4l5.6 -24.7l-7 -23.5l-21.3 -18.4l-14.3 -28.6l-64 74.3l-93.1 218.4z" />
  </g>
  <g data-id="157">
    <path d="m1429.6 3682l0 0l-2.1 315l459.6 2.7l33.2 2.5l-25.1 -99.1l-36 -98l-30.2 -55.3l-12 -57.1l-67 -76.3l-88.6 -109.7l-41.5 -20.9l-34.6 -4.9l-37 14l-43.1 9.2l-29.4 25l-44.8 20.4l-3 35.3l0.3 33l1.3 64.1z" />
  </g>
  <g data-id="159">
    <path d="m9080.6 2251.5l0 0l-13.3 32.2l27.4 15.8l-2.8 41.8l19.7 54.3l25.3 25.7l74.6 26.1l1.6 6.9l9.4 -10.4l47.2 -5.3l22.8 9.4l17.1 17l32.1 -8.1l12.8 24.1l49.9 -20l18.5 15.8l23.4 -43l-35.1 -25.4l48.7 -45.2l56.4 -2.2l-0.4 -0.4l-0.3 -3.5l7 -8.6l8.9 -4.6l0.5 -6.9l-8.3 -11.3l-2.8 -0.3l-2.2 -1.2l-3.5 -3.8l-0.1 -1.5l-2.7 -13.6l-2.1 -1.4l-1.7 -2.5l-0.3 -2.4l0.9 -3.6l-1.7 -8.5l-1 -0.9l-11 -1.9l-7.1 -9.9l-2.4 -1.3l-6.7 -0.9l-3.4 -1.7l-1.6 -2.2l-0.8 -2.6l-2.9 -3.8l-2.9 -1.9l-6.4 -0.7l-3.3 -1.4l-1.5 -8.8l-1.4 -4.3l-7.5 -10.8l-1.7 -1.3l-1.6 0l-15.7 -19.5l-10.8 -9.3l-1.4 -1.9l-4.2 -13.6l-1.3 -0.9l-5.5 -0.5l-4.1 -1.9l0 -1.1l-1.2 -12l-0.8 -7.9l-2 -1.5l-1 -2.3l0.2 -2.2l2.6 -1.5l5.8 -11.2l-1.3 -2.9l-0.9 -4.5l0.2 -11.6l-0.8 -2.9l-2.2 -3l-9.9 -4.4l-4.1 -2.7l-4.8 -11.9l-3.7 -5.4l-11.9 -6.8l-31.1 8.3l-1.7 0.2l-2.7 -1.8l-17.1 -27.8l-1 -1.9l-9.8 -14.9l-3.2 -2.1l-4.9 -8.2l-0.1 -2.6l2.1 -2.9l4.1 -10.6l-0 -4.3l-49.4 -28.8l-60.5 14.5l1 33.6l-28 20.3l6.7 52.9l-21.2 17.9l-76.9 45.7l34.3 48.1l-25.7 26.8z" />
  </g>
  <g data-id="161">
    <path d="m7335.7 935.1l0 0l27.6 11.5l12.7 91l40.2 67.9l93.4 60.3l180.8 -80l105 -36l22.7 -144.7l-28 -43l-5 7.2l-4.2 3.6l-3.3 1.5l-5.1 1.9l-6.1 1.1l-5.5 -0.2l-15 -3.3l-7.9 -3.1l-24.3 -13.2l-1.7 -0.1l-3.7 -0.1l-6.9 -2.9l-4.6 -3.5l-1.3 -2.7l-3.8 -2.5l-22.9 -2.1l-15.4 -2.8l-16.5 -4.2l-3.5 -1.3l-5.6 -3.9l-3.7 -4.9l-4.7 -14.5l-1.8 -7.5l-3.7 -23.1l-4.8 -18.1l-4.6 -6.5l-4.7 -3.7l-10.4 -5l-10.2 -3.3l-9.9 -1.4l-10.5 -3.6l-16 -10.8l-3.5 -3.1l-5.1 -6.8l-1.4 -4l-1.1 -4.6l-0.3 -5.6l-2.5 -11.9l-2 -8.2l-3.3 -8.2l-4.4 -7.2l-9.1 -9l-9.9 -5.7l-8.7 -3.7l-18.3 -5.4l-22.1 -4.3l-115.3 293.8z" />
  </g>
  <g data-id="163">
    <path d="m4063.8 1853.5l0 0l-13.6 -0.2l81 76l245 205.2l44.2 51.8l76.1 78.2l189.1 -32.5l28.8 -66.5l12.6 -29l-8.4 -57.4l-18.8 -128.7l-3.1 -20.6l-13.4 2.1l-15.2 4l-11.6 5.8l-3.9 4.2l-3.3 8.8l-0.4 6l2.5 18.1l-1.3 9.6l-2.2 4.9l-2.9 3.9l-5.5 2.2l-3.8 -0.4l-4.3 -1.9l-7.2 -7l-10.3 -12.9l-4.1 -7.2l-8.9 -19.3l-4.3 -10.3l1.2 -3.5l-1.9 -2.5l-6.1 -6.5l-9.8 -7.1l-10.8 -6.3l-16.3 -7.5l-13.2 -3.1l-12.3 -1.2l-17.7 0.9l-34.5 9.3l-6.4 -0.1l-8.9 -2.3l-15.7 -8.6l-20.4 -9.1l-18.3 -10.1l-6.8 -8.9l-9.9 -10.1l-22.2 -10.9l-14.9 -11.5l-7.4 -7.4l-0.6 -0.9l-8.2 -16.3l-6.8 -36.5l0.1 -15.4l9.8 -52.8l-0.8 -13l-21 -33.7l-21.5 -16.4l-17.1 -8.4l-16.9 -13.8l-3.7 -3l-19.6 -20.8l-16.6 -5.7l-17.6 9.1l-1.9 4.2l-3.8 8.4l0.9 24.2l7.5 12l23.8 7.7l36.4 8.8l6.1 11.5l-2.9 14l-6.5 10.3l-8.9 6.1l-22.8 1.3l-30.1 -3.6l-5.9 2.3l-9.8 7.8l-11.8 28.1l-7.1 4l-4.5 -0.7l-18 -19.9l-17.1 -14.1l-23.7 -1.8l-9.6 4.5l-5.2 5.6l-2.9 3.2l-3.7 8.1l-0.2 12.8l3.1 9.4l6.7 8l32.5 16.1l5.2 13.6l-3.5 19.1l-7.2 11.3l-18.3 16.6l-25.9 7.1l-11.2 1.1z" />
  </g>
  <g data-id="165">
    <path d="m7620.2 1948.5l0 0l8.4 117.2l24.2 37.2l109.1 72.6l5.8 29.5l41.9 15.6l13.7 -15.8l39.9 27.5l51.2 -5.4l36.3 -16.4l8.9 -33.7l28.8 -16.9l-15 -13l13.8 -34.8l67.9 -86.4l13.7 -152.6l-38.7 28.4l8.6 -26.5l-28.8 0.9l19.3 -29.8l-45.7 -0.7l-100.1 -13.8l2.7 59.5l-10 19.2l-31.7 -4.5l-6.8 12.1l-32.5 -32.9l-32.5 -2.3l-39.3 26.9l-21.9 -1l-16.6 15.6l-16.4 -11.9l-37.4 19.7l-20.7 16.8z" />
  </g>
  <g data-id="167">
    <path d="m5969.8 2110.4l0 0l-1.2 16.6l40.7 44.8l-3.6 32.8l-8.2 -0.9l4.9 31.6l-25.2 229l33.1 -2.2l252.4 -40.6l18.8 -21l64 6.9l23.9 -1.2l-1.5 -24.9l13.8 7.3l36.9 -4.7l-22.7 -7.6l19.9 -21.6l-15.9 -2.2l12.2 -28.4l-28.3 -11.1l16.9 -27.5l-17.8 -21.7l-0.6 -26.3l-8.5 -29.2l45.1 -36.4l-16.8 -9.9l-10.6 -2l-14.2 -0.4l-31.5 18.8l-27 5.1l-11.6 -15.8l19.7 -28.2l-9 -24.5l-17.7 -2.5l7.2 -22.3l-10.7 -6.3l-13.6 31.3l-10.1 -0.5l6.7 -42.2l-41.4 -3.2l7.1 -17.4l31.7 -16.5l-28.8 -15.2l0.8 -12l27.6 -17.5l1.2 -10.9l-114.9 50.3l-17.8 -12.7l-47 -11.1l-52.9 31.1l-18.2 49.8l-17 -2.5l-10.3 26.9l-25.9 11l-3.7 -12z" />
  </g>
  <g data-id="169">
    <path d="m4988.5 3358.8l0 0l6.8 47.1l20.6 -0.2l-4.2 68l5.1 68.8l6.6 34.4l14.6 270.4l166 14.4l13.9 5.2l8.2 18.9l19.7 -8l8.6 -25.2l-25.7 -31.6l-9.7 -24.2l27.7 5.3l26 29.7l31.2 -18.6l38.9 -8.7l43.6 -43.2l29.4 -72.9l13.2 -26.2l-81.3 -88.2l-25.1 -98.3l-5.4 -69.4l-84.2 -11.3l-54.4 -14.5l-37.6 -29.7l-33.6 -65l-75.9 20.8l-19.8 32.3l-23.2 19.6z" />
  </g>
  <g data-id="171">
    <path d="m4725.7 4042.3l0 0l36.2 100.1l-1.7 17.4l-33.1 36.7l20.9 0.8l113.2 7.3l54.8 2.6l40.3 -0.6l16.9 0.9l0 0l74.6 2.3l71.1 3.7l165.3 3.9l0.7 0.1l83 1.2l68.3 -5.8l-79.5 -118.3l34.1 -69.7l-61 3.1l-33 -71.4l-37.6 6.5l-23.1 -10.6l-9.8 -66.8l-8.2 -18.9l-13.9 -5.2l-166 -14.4l-43.4 8.4l-45.7 24.1l-223.4 162.3z" />
  </g>
  <g data-id="173">
    <path d="m7337.6 1637.2l0 0l-118.8 100.2l130.2 261.5l20 46.1l76.4 23.4l28.8 0.3l10 19.1l66.2 -2.2l17.6 10.3l43.6 -13.5l17.1 -16.8l-8.4 -117.2l20.7 -16.8l3.3 -12.7l-58.9 -59.1l-25.1 -65.8l-79.6 -92.6l-122.6 -37.2l12.3 -19.7l-18.5 -10.2l1.8 -25.9l-16.1 28.5z" />
  </g>
  <g data-id="175">
    <path d="m7987.2 2111.9l0 0l-13.8 34.8l15 13l22.3 16.8l-8.1 13.2l38 2l29.3 39.2l61.3 9l-1.5 22.2l30.5 1.8l37.5 34l6.6 -8.7l-4.3 33.9l10.1 17.6l58.1 27.3l1.3 29.6l25.1 10.4l25 -52.1l-36.1 -41.8l30.6 -27l28.5 -7.8l23.4 -48.3l38.6 -4l6 -17.4l79.7 -53.6l-21 -50.5l52.4 6.8l42.9 33.6l18.7 -3.5l10.4 -23.5l17.3 30.8l22.2 14.4l20.3 -17.2l9.7 -48.8l26.9 8.4l-0.3 -31.7l-36 -85.2l-35.1 -15.6l-8.4 -56.2l-9.2 -4.1l-24.6 21.3l-23 -18.7l-47.8 -3l-10.7 9.8l-35.2 -0.3l-10.6 12.4l-9.5 -23.1l-29.2 -11l-26.6 10.7l-35.6 -27.9l-1.8 -27.6l-13.1 -13.2l-23.1 2.6l-22.8 -14.8l-4.1 -16.7l12.6 -55.3l-2.7 -21.9l-46.7 38.1l-46.5 13.9l-31.6 31l-17.3 -6.5l-11.9 29.9l-36.8 21.1l-10.5 -14.4l-30 12.5l6.9 10.4l-13.7 152.6l-67.9 86.4z" />
  </g>
  <g data-id="177">
    <path d="m2871.8 3135.5l0 0l-2.4 20.2l32.5 20.5l-6.7 17.2l29.3 25l-2.9 14.8l18.9 5.8l13.4 23.8l23.4 7.8l-13.7 9.2l6.8 16.1l-19.9 8.9l-8.8 22.9l-0.7 41.8l37.3 40.3l28.4 -1l6.2 31.3l-7.8 6.6l15 23.8l19.4 -3.1l18.6 13.7l-6.6 38.8l173.8 -6.9l85.3 -26.8l100.9 -20.7l46 7.6l0.8 -15.7l24.9 0.6l36.5 -16.8l-13 -21.7l3.1 -18.1l26.1 1.5l-23.6 -17.9l-0.8 -19.1l-20.5 13.6l4.2 -16.6l-15.2 -11.3l-18.7 9.3l15.4 -38.3l6.2 -32.8l35.3 4.6l-13.3 -41.3l8.2 -16.4l-26.3 -21.3l12.5 -12.5l-17.7 -14.4l-31.3 1.5l-10.3 -28.1l-22 -0.6l-14.6 -19.3l2.3 -27.6l-9.5 -26.2l2.9 -23.8l-39.7 -60.5l-19 -16.8l-28 -10.2l-25.6 -1.4l-21.1 17.3l-21.6 52.8l-22.8 3.3l-20.9 -15.9l16.6 -40.6l38.4 -26.3l-6.1 -66.4l-16.4 7.5l-77.3 -3.4l-52.4 54l-111.8 -18l-18.4 25.3l11.8 3l-28.4 51l-20.6 13l-10.8 43.7l-26.7 -14.9l-15.9 10.8l-10.8 63.4z" />
  </g>
  <g data-id="179">
    <path d="m5040 2243.2l0 0l-3.6 37.5l16.3 25.1l53.4 32l14.9 35.4l-5.7 2.3l11.4 0l34.9 26.9l9.7 32.3l15.9 4.2l26 -11.1l18.3 12.2l-4.2 67l-7.7 22l22.8 -7.3l13.7 9.5l6.9 26l-15.4 -6.2l-16.7 21.4l-28.2 -3.5l3.4 14.2l27.6 18.3l-21.3 9.1l3.3 36l-25.2 29.1l-0.8 18.4l23.4 -12.9l18.1 23.1l36.3 18.8l23.2 -12.2l-5.3 -39.3l10.8 -14.3l28.4 13.7l93.1 -218.4l64 -74.3l20.3 -16.7l17.1 1.8l-2.1 -41.4l28.9 11.9l-3.6 -44.5l23.4 6.3l2 -10.9l36.9 -11.4l-7.2 -18.5l19.3 -43.8l28.9 -12.7l-4.7 -16.5l21.5 7.3l27.9 -6.6l-14.9 -30.2l28.1 0.7l8 18l14 -26.9l-2.5 25.9l17.1 15.9l10.5 -20l-10.9 -8.2l12.1 -29.3l-4.7 -29.1l36.3 17.4l24.1 3.8l1.3 -20.1l-19.8 -123.6l-180.4 31l-97.4 21.4l-26.8 0.7l-34.5 -32.8l-49.5 -19.6l-33.9 -32.2l-59.3 42.2l13.5 12.5l-32.9 49.3l-45.8 28.7l-1.1 29.2l11.2 14l-30.6 26l-17.6 -1.1l3.5 18.8l-43.4 41.4l-48.9 31.5l-14.1 -5.6l-43.4 21l5.1 -5.6l-22.9 -4.3z" />
  </g>
  <g data-id="181">
    <path d="m7069.5 1307.8l0 0l36.5 28.2l44.2 84.4l3.2 15.7l34.2 15.8l-21.1 17.1l21.7 9.4l10.9 18.2l8.3 -23.5l16.7 6.9l-1.9 21.3l27.1 -0.1l5.2 28l-12.6 7.1l37.7 19.3l9.1 16l24.9 -9.6l18.3 26.7l6.7 -24.9l15.5 -2.1l10.6 17.9l-11.4 28.8l153.9 -160.1l16.5 -15.4l19.2 -30.5l-19.3 -17l11.6 -21.9l-23.9 7.6l0.5 -29.5l-12.2 3.5l-8.3 -21.4l-34.5 23.1l11 -25.5l-33.3 5.7l-6.9 -38.8l-36.4 -66.3l-40.7 -27.9l-25.2 28.8l-14.4 -17.8l-83.1 -41.2l-37.8 -3.3l-120.9 147z" />
  </g>
  <g data-id="183">
    <path d="m3217.1 2992.6l0 0l-16.6 40.6l20.9 15.9l22.8 -3.3l21.6 -52.8l21.1 -17.3l25.6 1.4l28 10.2l19 16.8l39.7 60.5l-2.9 23.8l9.5 26.2l-2.3 27.6l14.6 19.3l22 0.6l10.3 28.1l31.3 -1.5l17.7 14.4l-12.5 12.5l26.3 21.3l18.2 -17l2.5 -20.7l28.5 -27.7l10.5 2.4l12.2 -29.5l21.5 -22.4l3.4 -21l22.9 5.3l-13.9 -23l3.9 -39l19.3 -9.2l33.3 13.5l8 28.6l13.4 8.1l193.8 -150.5l-68.3 -250.1l-1.1 -17.5l23.6 1.8l9.7 -18.2l18.8 1.1l6.8 19.8l29.7 27.1l-0.9 -12l24.9 -4.2l3.1 -10.5l-20.9 -17.5l-36 -37.7l-26.8 -53l2.2 -71.1l-242.5 -126.1l-56.7 48l64.1 58.4l-30.7 13.4l-17.1 17.7l-50.6 20.1l-16.1 21.7l-31.7 10.8l-19.1 -8.2l-6.9 -3.8l-75.4 83.1l-42.3 32.6l-14.7 15l-70.5 117.4l-13.5 15.6l-29.3 -22.6l40.8 40.5l6.3 74l6.1 66.4l-38.4 26.3z" />
  </g>
  <g data-id="185">
    <path d="m5171.2 1293.4l0 0l-0 0.1l90.2 64.6l-20.8 3.9l52.5 18.7l24.2 17.3l37.7 27.2l7.7 5.4l21.3 14.8l10.6 7.3l26.4 -31.4l27.9 18.8l10.2 -17.3l10 15.3l33.4 -23.5l45.1 8.3l36 -11.8l54.4 -80.4l-55.2 -76.8l-8.7 -65.7l-18.9 -27.7l42.2 -55.5l-12.8 -13.8l-53.4 -11.4l-18.9 -18.8l-64.6 -0.6l-6.7 -8.2l-0.3 0.2l-11.3 6.3l-22 9.7l-5.3 3l-5.5 3.9l-7.3 6.7l-2.8 3.7l-4.4 9.7l-2.4 6.4l-2.3 10.3l-2.2 4.5l-11.2 18.5l-9.8 10.8l-23.8 11.6l-13.4 5.1l-12.3 3.7l-22 3.7l-28.9 1l-16.4 4.7l-21.1 14.1l-5 4.7l-16.9 27.2l0.3 2.4l-1.7 7.7l-11 24.8l-3.9 11.1l-1 3.8l-5.7 21.9z" />
  </g>
  <g data-id="187">
    <path d="m5911.9 929.8l0 0l-2 30.2l18.4 24.5l25.6 -16l44 21.4l8.5 15.1l-35.7 69.5l16.5 10.1l13.4 -15.4l29.1 -7.5l10.3 9.1l-19.7 29.7l4.4 13.8l42 22.6l6.6 28l-15.1 33l17.7 18.8l13.9 -2.7l1.4 -38l20.4 -23.7l13.7 7.9l3.1 17.6l-20 12.7l0.4 17.9l38 10.6l20.5 14.6l-22.8 44.7l4.2 23.9l34.2 11.2l-2.8 19.9l42.2 -0.3l59.2 30.6l69.4 -23l45.5 -29.7l32.1 -33.6l76.2 -68.8l56.6 -70.3l-26.6 -13.4l-34 -6.9l-20.6 -48.2l-19.3 -30.5l-23.1 -0l12 -19.2l-20.4 -27.4l-122.7 -99l-15.1 -171.5l-10.3 -7l-48.5 22.1l-18.7 24.7l-33.9 -2.7l-46.1 48.9l-26.8 -6.4l-11.3 18.5l-3.2 19l-43.3 3.5l-6.2 20.4l-53.1 7.1l-12.2 30.6l-46.7 5.4l-19.4 23.9z" />
  </g>
  <g data-id="189">
    <path d="m7475.5 2731.6l0 0l1.7 66.9l24.8 43l19.9 5.8l42.1 108.6l43.3 55.4l87.8 16.3l52.1 2.9l13.7 -30.1l19.5 -4.7l19.4 23l21.3 48.6l17.8 10.3l15.2 26.9l18.6 -4.3l23.1 31.6l-2.6 13.5l34.3 -0.4l19.1 15.3l7.4 -23.8l-40.1 -23.6l5.5 -78l17.8 -30.4l-14.7 -15.3l-5.2 -53.1l19.6 -38.5l-20.3 -46.7l-38.7 -100.4l-37.4 -14.2l-19.4 6.7l-17.5 -48.5l-28.2 5.4l-30.6 41.1l-28 7.1l-39.6 -22.3l-17.3 22l2.7 22.6l-113.5 12.3l-49.3 -30.3l0.7 -14.2l-24.9 -6.7z" />
  </g>
  <g data-id="191">
    <path d="m6624.9 601.2l0 0l73.6 419.6l36.5 22.4l0.3 -12l38.2 -11.5l-11.3 -5.1l20.3 -30.6l15.9 6.8l256.3 -36l12.9 -10.7l-7.3 -26l-8.3 10.5l-37.6 -378.7l7.3 -8.5l-1.2 -5.3l-2.6 -20.5l-0.6 -18.4l2.5 -32.6l-0.1 -3.4l-204.4 105.6l-27.2 10.9l-13.2 -1.2l-7.6 2.3l-142.5 22.4z" />
  </g>
  <g data-id="193">
    <path d="m7919.3 3035l0 0l-5.5 78l40.1 23.6l-7.4 23.8l20.6 5.7l4.4 31.7l32.3 -26.3l-4.6 -33.3l10.3 -23.2l23.6 -12.9l8.9 9.4l29.3 -3.5l0.3 -16.7l43.4 -33.4l3.9 18l57.9 23.1l-2.3 19l23 19.3l-10.7 19.6l25.7 57.9l17.8 -7.1l16.4 25.3l15.3 -4.6l6.7 15.9l24.6 12.2l10.7 -6.6l29.4 32.5l40 16.1l0.4 13.3l-32.8 20.1l11.4 17.2l-12 12l28.6 13.1l15.2 32.7l35.2 11.1l-12.4 35.2l16.1 12.3l-18 18.2l-0.3 39.7l-10.4 5.2l5.4 23.3l26 0.2l52.9 33l14.8 14.4l73 -41.4l4.1 -29.2l-25.9 -11.8l18.5 -31.7l19.8 -0.8l2.7 -29.7l-13.6 -20.2l-10.1 -52.4l30.5 -54.7l-3.5 -13.6l28.3 -19.8l21.8 -30.1l-7.5 -15.7l-30.5 -5.1l-5.2 -14.1l-28 1.7l-17.2 -25.5l1.4 -21.7l-46.3 14.8l-18.9 -8.7l-14.3 7.8l8.4 -18.1l-9 -35.5l10.4 -44.7l11.7 -5.6l-7.6 -18.9l7.3 -35.8l-17.9 -120.9l-99.1 -16l-3.4 -26.1l-16.4 -21.7l-72.6 74.3l-42.8 20.8l-10.5 13.9l-29.1 -3.3l-13.8 24.5l-19.3 11.6l-13.7 -0.3l-1.9 19.2l-15.7 13.6l-29.4 -0.1l-24 -20.7l-35.8 -46.4l-17.8 9.7l-18.1 -7.5l-13.1 30.7l-65.2 47.4l-14.9 -6.8z" />
  </g>
  <g data-id="195">
    <path d="m9001.4 3123.3l0 0l-10.7 15.7l11.3 24.5l31.8 2.1l-6.9 21.1l27.4 22.9l16.8 2.4l56 -33.8l35.3 29.8l16.1 34.3l32.1 21.3l0.1 -0l9.4 -5.8l5.7 -5.3l0 -0l4.6 -2.7l24.4 -12.6l4 -2.7l5.6 -2l10.5 -6.1l10.7 -6.2l0.6 -0.6l11.9 -7.1l3.4 -0.9l11.8 -5l1.2 -1l17.3 -7.2l13.4 -4.5l8 0l6.6 -7.1l3.7 -2.2l17.7 -4.3l6.2 -0.5l17 -7.5l42.6 -13.7l3.1 -0.9l8.8 0.4l15.9 -7.5l12.1 -1.3l5.8 -3.1l11.7 -11.6l0.3 -11.2l6.5 1.9l7.1 -4.1l9.1 -1.6l7.4 -7.2l2.1 -5.7l0.4 -4.4l1.4 -2.1l2.3 -2.2l6.4 -6.3l23 -19.1l49.4 -43.2l67.9 -60l1.2 -1.8l101.1 -86.3l81.6 -72.3l15.7 -15.9l108.6 -94.9l3.8 -5.6l0.6 -3.1l-6.8 -5.8l-8.2 1.8l-5.9 5.1l-2.2 0.9l-6.6 -1.7l-2.1 0.5l-4.6 6.9l-1.9 1.2l-17.6 6.5l-2.3 0.7l-6.3 -0.5l-2.6 -1.3l-1.3 -7l-2.6 -3.3l-2.8 0.1l-5.6 3.8l-4.7 1l-10.7 -8.4l-1.4 -6.9l-1.2 -1.7l-5.1 -0.7l-2.6 2.7l-0.5 3.6l0.5 4.5l-13.1 8.4l-3.5 -0.2l-5 1.5l-2.7 -0.3l-1.4 -1.1l-0.5 -3.6l1.5 -4.8l-1 -4.3l-11.6 -17.4l-2.3 -1.3l-12.6 0.7l-6 -1l-16.8 -3.5l-0.4 -2.2l-1.1 -1.1l-17.7 0.8l-10.2 -27.9l0.1 -2.3l-1.7 -2l-2.3 -12.7l-3.7 -8.1l-2.4 -3.3l-12.6 -2.7l-6.4 4.2l-2.6 2.9l-10.9 -3.1l-1.2 -6.6l-9 -18.7l-4.8 -0.8l-1.2 -2.3l-0.2 -5.2l-9.8 -8.6l-6.2 -6l-1.3 -3.5l1.4 -4.7l-5.9 -1.1l-1.1 -0.2l-0.8 1.1l-6.7 2.2l-11.6 -3.8l-1.7 0.7l-1.2 2.2l-1.2 0.5l-7 1.2l-5 -0.5l-2.8 -1.4l1.1 -2.2l-7.1 -10.5l-0.1 -1.4l1.5 -1.9l3.1 -6.7l-0 -2.3l-3.5 -2.7l-5.6 -2.7l-1.8 -4.1l-0.8 -8.2l-0.8 -1.9l-17.5 -13.9l-1.8 -0.5l-4.1 1.4l-11 6.7l-6.4 0.3l-14.3 -9.4l-5.3 -2.3l-7.7 -10.3l-11.3 -0.2l-2.3 3.2l-4.7 -1.5l-3.4 -2.2l-0.4 -3l0.8 -1.9l-0.3 -7.6l-0.5 -0.5l-1.8 -13.1l-0.2 -1.5l-2 -1.1l-4.9 -5l-1.8 -4.8l1.2 -4.2l6.1 -6l0.9 -4.3l-1.9 -2.9l-3.8 -3.3l-6.2 -1l-2 -1.6l-4.5 -9.4l-0.6 -6.7l-0.8 -2.4l-5.9 -4.6l-2.2 -10.3l-0.6 -8.9l-0.8 -1.2l-1.1 -1.1l-9.4 -3.1l-8.2 -7.8l-56.4 2.2l-48.7 45.2l35.1 25.4l-23.4 43l-18.5 -15.8l-49.9 20l-12.8 -24.1l-32.1 8.1l-17.1 -17l-22.8 -9.4l-47.2 5.3l-9.4 10.4l-67 24.1l21.4 46.7l-33.3 229.2l33.9 2.2l14 49.2l-2 44.4l-17.5 16.9l-3.6 42.8l-22.7 27.5l4.1 11.5l-18.7 12.2l-27.1 -1.6l-16.5 17l18.7 30.7l-23.5 49.9l-3.3 23.9l-28.1 1.2l-8.6 25.8l-13.9 8.6l-18.1 7.1z" />
  </g>
  <g data-id="197">
    <path d="m7316.2 2162.9l0 0l-27.5 -15.7l33.4 53.1l13.6 -20.9l38.2 9.2l-0.9 74.1l67.7 55.6l7.3 12.3l53.7 11.7l46.1 -21.5l12.2 32.7l22.5 -18.6l34.6 -0l11.3 26.1l27 15.4l33.9 4.8l0.7 20.8l18.6 -0.1l101.1 -181.1l-41.9 -15.6l-5.8 -29.5l-109.1 -72.6l-24.2 -37.2l-17.1 16.8l-43.6 13.5l-17.6 -10.3l-66.2 2.2l-10 -19.1l-28.8 -0.3l-76.4 -23.4l-33.5 21.7l2.2 29.9l-21.5 66.2z" />
  </g>
  <g data-id="199">
    <path d="m6132.2 3443.2l0 0l1.7 65.9l55.3 64.5l36.8 17.1l35.7 16.5l32.6 15l17.9 34.1l51.8 -14.5l31 -23.7l42.8 10.9l71.5 128.3l25.5 27.5l24.2 -21.1l-9.8 16.3l15.5 25.4l212.1 -131.2l45.2 -10.3l21.5 -15.9l10.6 5.7l17.5 -20.2l-5.9 -29.4l42.3 -16l4.8 -12.7l-24.1 -28.5l29.2 -2l8.6 -21.1l-18.4 -3.5l-0.7 -28.6l-10 -7.1l31.2 -41.8l21.4 -2.2l6.6 -21.4l-16.8 -19.2l18.9 -7.4l-23.6 -5.3l9.4 -13.7l0.4 -36.6l-3.6 -14.5l-11.4 -5.6l-126.7 -128.4l-65 -61.7l-74.5 -82.2l-70.4 -44.5l-23.3 20.8l-192.6 173.3l-119.2 106.7l-117.9 94.7l-7.8 48z" />
  </g>
  <g data-id="201">
    <path d="m7090 1037.5l0 0l-7.1 58.4l40.3 13.5l4.5 18.3l23.1 -6.9l39.6 40l37.8 3.3l83.1 41.2l14.4 17.8l25.2 -28.8l-3.6 -20.8l69 -67.9l-40.2 -67.9l-12.7 -91l-27.6 -11.5l-7.3 17.5l-48.1 0.6l-14.9 -28.8l-38.6 2.4l-12.3 -16.8l0.3 18.3l-27.6 19.3l-23.5 37.2l-31.6 24.1l-20.6 -7.3l-21.6 35.9z" />
  </g>
  <g data-id="203">
    <path d="m6737.3 2784.3l0 0l-73.9 260l74.5 82.2l65 61.7l126.7 128.4l11.4 5.6l3.6 14.5l0.4 -17l-14.9 -12.5l4.4 -2.8l41 -17.1l-20.2 -26l29 -13.8l-16.2 -9.5l11.1 -10.5l11.2 -35l17.5 17.3l14.9 -31.9l15.6 9.1l2.1 -62.5l20.3 0.1l29 -31.5l39.7 -5.2l14 -28.6l-6.6 -54.3l18.1 -8.6l-53 -45.6l13 -53.6l-13.1 -14l-25.9 -50.7l-18.8 -48.6l-2.3 -28l7.6 -32.8l-32.5 -7.2l-57.7 19.7l-44.5 -13.5l-2.6 -23.2l-57.7 -2.7l-17.2 38.7l7 29.5l-24.8 41.9l-95 -21.9z" />
  </g>
  <g data-id="205">
    <path d="m7804.2 1616.3l0 0l20.2 20l18.1 -19.7l18.9 30.4l-29.7 13.9l-9.6 19.6l24.1 41.9l23.7 -35.8l17 -3.2l30.2 26l-7.1 32.4l38.5 -11.5l13.4 18.8l-25.2 22.4l19.5 9.7l11.7 30.8l5.1 -28.3l53.9 5.1l4 22.8l-23.2 2.5l-24.2 30.9l45.7 0.7l-19.3 29.8l28.8 -0.9l-8.6 26.5l38.7 -28.4l-6.9 -10.4l30 -12.5l10.5 14.4l36.8 -21.1l11.9 -29.9l17.3 6.5l31.6 -31l46.5 -13.9l46.7 -38.1l21.1 -25.1l32.6 -2.8l14 -54.2l16.8 -7l-8.2 -11.5l-50 -1l-27.5 -20.1l26.2 -7.2l-29.2 1.2l-26.3 -24.4l-2.7 -15.5l-16.5 9.1l-15.2 -56.9l6.4 -13.8l-26.2 -60.5l-17.8 -52.2l-19.7 -3.9l-29.1 -68.5l-28.8 -21.8l-15.3 -34.8l-53.7 24.6l-22.8 44.6l-15.5 -7.5l-21.8 16.6l0.8 26.7l13 15.7l-17.7 14.6l-5.1 36.3l-11.7 3.5l9.4 37.9l-17.4 2.9l-6.1 21.9l-41.2 29l-10.6 34.6l-29.5 -2.8l-37.1 41.7l-26.6 9.7z" />
  </g>
  <g data-id="207">
    <path d="m5648.5 3754.7l0 0l35.7 33.3l14.6 39.9l28 -1.9l-25.8 -51.3l50 19.1l103.3 76.8l71.1 -51.6l60.8 -46.9l75.2 -47.7l13.7 -64.4l6.4 -7l31.6 4.8l17.9 18.7l94.8 -85.8l-36.8 -17.1l-55.3 -64.5l-1.7 -65.9l7.8 -48l-20.3 14.9l-49.8 8.3l-21.3 -17.8l-95.6 -120.4l-60.9 99.8l-100.6 152.1l-52.1 59.9l-34.4 118.1l-56.4 44.7z" />
  </g>
  <g data-id="209">
    <path d="m6351 1340.2l0 0l11 203.1l2.5 38.2l6.8 21.6l23.2 36.9l5.7 -9.2l43.4 4.3l29.4 -0.5l-9.8 9.3l9.3 59.9l18.6 15.4l-14.4 15.6l26.2 0.4l5.9 -22l107.3 -49.3l180.3 -81.7l-23.8 -10.6l-4.5 -71.8l-24 -33.9l-1.3 -9.7l12.9 -27.4l-14.3 -41.5l-16.5 -20.9l-8.4 -46.8l5.2 -14.3l-11.7 -33.1l-36.7 -40.8l-42.6 -26.8l1.8 -29.2l-22.8 -23.7l-17.7 -47.3l-7 4.2l-23.5 29.2l-56.6 70.3l-76.2 68.8l-32.1 33.6l-45.5 29.7z" />
  </g>
  <g data-id="211">
    <path d="m5420.8 1421.3l0 0l-26.4 31.4l74.7 32.5l8.5 3.7l-25.2 194.6l252 96.9l47.7 24.4l124.2 62.7l23.7 -6l15.7 -28.2l31.4 -24.4l-8.9 -19.8l19.6 -58.6l21 -16.3l4.9 -20.8l21.2 -32l-4.8 -25.3l8.5 -84.3l2.8 -81.7l55.1 -96l-53.5 -5.6l-375.2 -37.7l-54.4 80.4l-36 11.8l-45.1 -8.3l-33.4 23.5l-10 -15.3l-10.2 17.3l-27.9 -18.8z" />
  </g>
  <g data-id="213">
    <path d="m3691.8 4163.4l0 0l5.8 -0.2l59.3 -0.5l141.2 -4.5l1.8 -0l19.9 -0.6l33.9 31.2l0.3 -0.1l16.6 -7.3l1.6 -11.2l8.8 1.5l-0.5 5.5l47.3 -19.5l45.1 1.3l0.1 -0l1.6 -0.1l4.9 -0.1l75.1 2l-10 -42.1l13.6 -73l-6.6 -29.1l10.3 -61.8l6.9 -51l-240.3 -37.9l-27.2 -63.5l-10 -23.2l-27.4 0.2l-30.9 11l-45.8 52.5l-17.8 56.8l-16 23.6l-31.4 65l-14.5 46.9l-15.7 128.2z" />
  </g>
  <g data-id="215">
    <path d="m5330.4 1910.8l0 0l36.4 34.4l33.9 32.2l49.5 19.6l34.5 32.8l26.8 -0.7l97.4 -21.4l180.4 -31l-1.8 -43.5l50.1 3.4l6 -40.7l32.6 -28.3l-124.2 -62.7l-47.7 -24.4l-252 -96.9l-4.8 36.1l-1.5 12.4l-9.6 22.8l-43.5 14.3l-22.9 56.4l-39.8 85.4z" />
  </g>
  <g data-id="217">
    <path d="m5242.9 2810.8l0 0l-2.2 61.4l140.8 114.5l61.6 96.8l49.5 90.2l2.6 21.2l-16.1 1.9l-3.5 23.9l45.5 1.3l25.1 47.7l46.7 -52l12.4 -5.7l-5.9 -31.5l24 1.1l28.3 -23.6l31.4 -6.9l32.8 2.8l40.8 -15.9l11.2 -39.4l-5.7 -18.1l30.5 -5.7l44.6 -90.4l0.1 -31.8l33.2 -22.1l24.5 -0.1l17.8 -26.5l-18.9 -7.5l-13.1 -22.8l-18.6 -7.2l-21.7 -27.9l-18.9 9.7l-37.3 -29.4l-20.5 24.3l-8.5 -7l-16.4 19l-29.2 3.6l-24.5 34.4l-26.9 6.2l-14.7 -30.5l-43.7 -26.5l-10.7 1l-27.2 -32l-38.1 5.5l-37.2 -3.9l-7.4 -11l-53.2 -3.1l-29.5 19l-29.7 -2.8l-13.2 -26l-39.5 47.8l-71.8 -26.3z" />
  </g>
  <g data-id="219">
    <path d="m2939 4175.4l0 0l27.6 -0.1l44 -0.2l4.1 0.1l40.4 -0.2l21.8 -0.1l0.7 -0l151.9 -0.9l71.2 -1.3l1.7 -171.7l12.3 -32.1l-10.6 -61.1l6.6 -421.5l-85.3 26.8l-173.8 6.9l6.6 -38.8l-18.6 -13.7l-100.7 707.9z" />
  </g>
  <g data-id="221">
    <path d="m1859.1 3805.2l0 0l36 98l25.1 99.1l40.4 66.3l12.6 46.9l33.9 0.2l43.4 1.6l183.7 19.6l29.6 2.3l-4.8 49.9l142.6 -4.8l66.5 -1.5l15 -108.7l11.8 -85.6l-0.1 -98.3l2.6 -104.2l16 -143.9l-96.8 -58.8l-41.4 45l-122.6 39.5l-24.9 -15.5l-18 -0l-147.3 82.2l-61.9 19.9l-141.4 50.7z" />
  </g>
  <g data-id="223">
    <path d="m5409.2 774.4l0 0l0.7 6.8l1.3 5l14 20.2l8 18.1l1.3 17.5l-2.3 27.8l0.1 37l1 8.4l1.5 6.2l1.7 5.8l10.4 20.1l11.1 21.5l5.3 16.8l0.7 13.7l-0.4 15.3l-2.3 9.4l-7.6 15.4l-3.6 4.8l-9.4 7.9l6.7 8.2l64.6 0.6l18.9 18.8l53.4 11.4l12.8 13.8l45.2 -6.2l39 -46.7l107.4 -103.2l-56.7 8.8l-3.4 -35.5l-21.4 -27.7l1.7 -15.5l-132.4 -166.3l-4.4 -17.3l-10.4 3.7l-14.2 3.8l-15.2 1.9l-0.6 0.1l-11.1 -0.2l-37.1 -9.1l-13.7 -1.9l-7.5 1.4l-7.1 2.4l-15.8 9.1l-4.9 5.1l-5.9 11l-8.7 10.9l-4.3 6.8l-5.1 23.1l-1.3 11z" />
  </g>
  <g data-id="225">
    <path d="m1855.4 2499.5l0 0l0.2 5.4l1.9 8.7l0.3 15.2l2 11.9l5.4 16.6l13.8 31.7l1.9 7.6l0.7 6.5l-0.9 7.3l1.3 7.3l5 10.2l3.6 10l2.3 2.1l13.3 8l9.4 9.9l11.5 10l5.8 8l11 19.4l6.3 7.5l2.4 1.6l10.7 3.6l7.6 5.3l4.2 5.8l7.5 15.8l1 3.6l-0.3 9l2 4.6l18.2 -21.5l17.6 7.7l17.1 -24.7l7.2 -31l22 14.3l2.5 53.6l21.5 20.4l11.3 -8.8l7.2 24.3l-21.4 17.3l28 3.6l8.3 -11.4l29.2 -1.9l170 -164.8l90.9 -97.8l-26.2 -51.5l4.6 -14.6l-5.7 -83.7l-14.1 -34.1l2.9 -12.4l-12.6 -16.8l-7.3 20.6l-26.7 -10.4l9.5 -16.3l-25.1 -1.5l-5.3 14.6l-147.2 -231.8l-0.9 1.3l-5.7 6l-6.1 7.9l-2.1 3l-2.2 5.2l-1 7.2l-0.2 6.9l1.3 6.9l2.5 7.3l2.5 4.5l11.7 15.4l16.3 15.1l6.1 10.3l3.3 9.7l5.2 33l-1 8.7l-2.9 8.2l-5.6 4.1l-10.6 5l-11 3.8l-6.6 3.6l-3.1 4.1l0.3 5.6l-1.5 3.5l-3.6 3l-7.8 21.1l-2.6 3l-2.8 1.9l-5.3 1l-9.8 -2.5l-13.5 -14.4l-2 -4.6l-6 -5.6l-10.5 -6.3l-3.7 -0.7l-5.3 -3.1l-2.5 -2.8l-5.3 -3.2l-10 -4.1l-13.7 -3l-7.7 0.9l-9.2 3.6l-5.8 4.8l-4.5 7.4l-3.9 12.7l-2.8 20.3l-2.3 8.3l-9.6 21.7l-12.7 19.1l-5.5 6.6l-11.5 8.9l-12.3 4.8l-5.2 3l-13 8.9l-8 8.6l-6.9 3.5l-14.1 5.5l-6.1 4.8l-3.4 4.3l-9.6 16.5l-2.6 9.4l-14.7 14.8l-8.2 12.4l-8.6 17.5l-1.5 4.5l-1.1 7.1z" />
  </g>
  <g data-id="227">
    <path d="m3818.8 3554l0 0l-10.2 33.1l76.3 177l6.4 15l10 23.2l27.2 63.5l240.3 37.9l-6.9 51l98.4 -83.7l73.3 -62.4l15.5 -13.2l-0.9 -5.2l1.9 -13.4l-8 -4.7l0.7 -7.9l42.9 -9.2l37.6 -16.9l3.8 -42.5l19.9 19.9l29.3 -20.3l33 -98.5l37 -110.6l-103.5 -25.7l-34.7 -45l-30.5 11.6l-19.3 18.8l-33.2 8.2l-154.4 -147.2l-12.7 3.8l-2.2 25.6l-42.5 -22.2l-8.5 23.9l-22.7 -2.7l-23.7 -48.2l-16.6 -14l-58.6 23.9l-28.3 -7.1l1 -11.4l-14.6 5.2l-9.9 -1.8l-8.6 10.1l-8.9 -9.9l-16 -0.4l-6 7.1l-7.2 -4.7l-8.6 5.1l0.7 2.2l-0.3 1.8l-0.8 1.9l-0.3 2.5l0.2 1.4l0.9 2.1l1.3 2.3l3.7 4.4l1.7 1.4l4.7 2.7l1.3 3.2l-0.2 1.4l-1 3.2l-0.2 2.5l0 2.6l0.3 2l1.2 3.5l0.2 2.7l-0.5 2l-1.6 3.1l-1.9 1.8l-1.5 0.7l-2 1.4l-0.3 1.7l1.2 1.3l1.7 0.1l-65.6 209.1z" />
  </g>
  <g data-id="229">
    <path d="m5481.8 2378.1l0 0l14.3 28.6l21.3 18.4l7 23.5l-5.6 24.7l32 29.4l11.4 7l38.7 -0.6l70.9 34.7l119.9 -0.3l178.7 -0.3l4.8 -55.1l2 -24l25.2 -229l-4.9 -31.6l8.2 0.9l3.6 -32.8l-40.7 -44.8l1.2 -16.6l-27.5 -9.3l-22 18.7l-50.9 -13.3l0.9 -25.6l-26.8 -13.2l-15.4 42.4l-19.1 -9.9l-1.3 20.1l-24.1 -3.8l-36.3 -17.4l4.7 29.1l-12.1 29.3l10.9 8.2l-10.5 20l-17.1 -15.9l2.5 -25.9l-14 26.9l-8 -18l-28.1 -0.7l14.9 30.2l-27.9 6.6l-21.5 -7.3l4.7 16.5l-28.9 12.7l-19.3 43.8l7.2 18.5l-36.9 11.4l-2 10.9l-23.4 -6.3l3.6 44.5l-28.9 -11.9l2.1 41.4l-17.1 -1.8l-20.3 16.7z" />
  </g>
  <g data-id="231">
    <path d="m5925.4 3819l0 0l6.8 42.1l43.1 43l29.3 83.2l-20.9 62.8l2 46l22.7 21.5l-10.6 13.9l14.7 8.5l-8.2 33.1l6.5 30.1l32.3 14.7l40.7 4.9l110.7 9.9l-0 0.1l21.9 2.1l51.7 1.4l24.1 1.5l0.1 0l9.1 0.3l137.4 -223.5l-0.1 -35.6l52.4 -13.1l4.4 -29.8l10.9 -10.7l34.7 -9.7l-5.1 -14.2l24.4 7.9l5 -34.9l-23.3 -20.2l28.4 -11.5l-23.5 -29.9l17.8 -7.6l-15.5 -25.4l9.8 -16.3l-24.2 21.1l-25.5 -27.5l-71.5 -128.3l-42.8 -10.9l-31 23.7l-51.8 14.5l-17.9 -34.1l-32.6 -15l-35.7 -16.5l-94.8 85.8l-17.9 -18.7l-31.6 -4.8l-6.4 7l-13.7 64.4l-75.2 47.7l-60.8 46.9z" />
  </g>
  <g data-id="233">
    <path d="m2139.7 2818.6l0 0l10 44l-2.6 21.5l10.9 27.3l9.4 -3.3l26 21.5l6.6 -8.3l38.6 -3.5l27.5 -25.4l1.8 43.6l-18.2 4.6l0.3 18.6l20.8 9l33 -22l23.5 14.5l-35.3 43.8l19 3.9l289 -184.2l126.8 -42.8l160.3 -136.2l-28.7 -32l-90.8 -8.2l-21.9 -11.1l-22.3 -44l5.7 -33.4l-314.5 15.2l-90.9 97.8l-170 164.8l-14.5 24.6z" />
  </g>
  <g data-id="235">
    <path d="m6870.8 3880.1l0 0l-14.1 17.3l14.2 10.4l-6.4 39.4l16.3 10.3l7 23.1l12.6 2.7l3.8 80.2l16 54l47.4 70.2l42 33.7l16.3 34.7l131.1 1.3l183.6 3l0.3 0l74.7 3.1l8 -24.5l-41.3 -70.2l103.4 -68.4l-106.5 -65.6l-1.5 -36.3l-11.7 -18.9l-24 3.1l13.1 -32.7l-9 -35.9l-21 -0l-1.1 -17.1l-35.5 -12.1l-32.6 -60.7l-17.4 2.9l-6.4 -60.4l-19.6 -23.4l6.5 -36.4l-15 -47.7l-13.1 2.8l-29.1 -26.1l-13 2.1l-35.5 34.9l-29.3 13.8l-9.3 -13.7l-24.8 0.9l-18 -21.2l-15 31.2l-16.1 -10.1l-15.1 -11l1.9 -31.1l-9.3 17.3l-44.5 27l-17.3 22.6l8.5 32.5l-15.4 11.6l-8.3 24l8.4 19.6l-12 12.7l13.3 19.1l-39.3 36.2l34.3 8l-34.9 18.2z" />
  </g>
  <g data-id="237">
    <path d="m7809.7 2220.6l0 0l-101.1 181.1l104.7 62.4l15.3 19.9l124 47.2l34.7 -11.8l0.6 43.2l48.3 -18.1l33 -43.3l2.6 -28.5l17.3 -28.2l36.5 -15l34.4 25.8l44.6 16l16.7 -13.8l30.3 0.8l19.4 13.2l15.5 -9.1l25.8 17.2l-11.5 -26.3l19.2 -21l-25.5 -24.2l-25.1 -10.4l-1.3 -29.6l-58.1 -27.3l-10.1 -17.6l4.3 -33.9l-6.6 8.7l-37.5 -34l-30.5 -1.8l1.5 -22.2l-61.3 -9l-29.3 -39.2l-38 -2l8.1 -13.2l-22.3 -16.8l-28.8 16.9l-8.9 33.7l-36.3 16.4l-51.2 5.4l-39.9 -27.5l-13.7 15.8z" />
  </g>
  <g data-id="239">
    <path d="m6187.6 1734.4l0 0l-0.3 34.2l12.4 10.4l17.7 -16.4l14.8 10.7l4.7 16.3l-19.9 25.2l20.5 13.8l-3.4 13.8l-26.7 7.1l26.3 40.7l-9.1 27.1l25.6 12.3l-8 31.3l6.8 13l28.6 5.5l-1.2 10.9l-27.6 17.5l-0.8 12l28.8 15.2l-31.7 16.5l-7.1 17.4l41.4 3.2l-6.7 42.2l10.1 0.5l13.6 -31.3l10.7 6.3l-7.2 22.3l17.7 2.5l9 24.5l-19.7 28.2l11.6 15.8l27 -5.1l31.5 -18.8l14.2 0.4l65.2 -236.5l3.5 -23.2l11.1 -42.5l26.5 -102.2l5.3 -20l-26.2 -0.4l14.4 -15.6l-18.6 -15.4l-9.3 -59.9l9.8 -9.3l-29.4 0.5l-43.4 -4.3l-5.7 9.2l-23.2 -36.9l-183.6 90.4l1.9 33.9l-2 6.9z" />
  </g>
</svg>
