<?xml version="1.0" encoding="UTF-8"?><!DOCTYPE svg PUBLIC '-//W3C//DTD SVG 1.1//EN' 'http://www.w3.org/Graphics/SVG/1.1/DTD/svg11.dtd'><svg viewBox="0 0 1000 1957" xmlns="http://www.w3.org/2000/svg"><path id="33001" d="m445 1297l9 8l-6 11l-1 3l12 17l10 7l-2 7l8 13l13 10l8-3l10 35l10 7l21-15l7 2l42 31l9 6l57 42l61 45l15-17l26-35l-17-119l15-17l-19-15l-6 6l-10-11l-16-4l-14-13l-28-25l-4-5l-1-1l-51-49l-50-49l6 47l-32 5l-37 5l-3 17l2 13l-3 10l3 7l-6 11l-14 9l-11-5z"/><path id="33003" d="m536 1070l2 14l9 59l3 1l3 25l50 49l51 49l1 1l4 5l28 25l14 13l16 4l10 11l6-6l19 15l19-26l9 50h14l10-16l16-2l7 35l33-43h1l3-1v1l3-7l-1-1l-1-1l-1-1v-4l-1-1l-2-1l-4-5l-1 1l-1-2l-1-33l-1-7l-3-57v-1v-7v-3l-2-28l-2-29v-35l-1-29l-1-14v-15l-3-94l-2-39v-13l-3-101l-1-10v-20l-19 1l1 35l-30 1l-83-6l-27 80l-5 34l-13 5l-4-5v-23l-7-32l-15-10l-6-27l-11 2l-6 1l7 32l14 10l6 27l-3 16l9 22h10l-20 34l2 16l10 64z"/><path id="33005" d="m0 1842v1l2 4l3 3v4v3l1 7l2 11l2 3l11 10l1 2l3 3l1 3l1 2l-1 2l-1 1l-2 1l-1 2v2l2 2h1l2-1l4-2v-1l1-2v-1h1l3 1l1 2l1 2l1 1l3 1l1 2l1 2l1 6v3l3 4l4 5l1 3v2h4l21 1l47 2l21 1h2l43 1l42 2h8l16 1h1l53 2l28 1l-8-56l-17-1l-5-33l-9-63l-1-8l-2-10h-30l1-16l1-29v-10l9-47l4-31l-2-3l-76-2l12-37l-57 8l-38 6l1 5l-24-1l2 18l-32-2v-18l-11-1v4v2l-1 1l-2 2v2l3 5l2 2h2h1l1 1v2v1h-1v1l1 2l1 2l1 1l2 3v4v1l-1 2l-3 3l-1 1v3l2 4l2 6v2l-1 2l-2 3l-3 4l-5 6l-5 5l-1 2l-1 1l1 3v1l2 2l1 3v3l-1 6v2l2 5l1 1l2 1l5 4v1v2v2l-2 2l-2 1l-3-1l-2 1l-1 2l-1 3v3v2l2 2v1l-3 3l-4 5h-2l-1-2h-1l-3 2l-3 3l-6 1l-2 1l-6 1l-7 6l-2 2v2l1 1l1 1l1 1l1 2l1 2v3l-1 6l2 7v2l-1 1l-2 1v1l-1 3v7l-1 2l-2 3l-2 2l-3 1l-3 1l-1 1l-1 7v3v3v1l1 4z"/><path id="33007" d="m427 684l37 56l6-3l53 24l7 38l36-6l1 5l20-3l14 8l15 28l11-2l6 27l15 10l7 32v23l4 5l13-5l5-34l27-80l83 6l30-1l-1-35l19-1l-1-13l-1-29l-1-28l-3-73l-1-19l-2-44l-1-41l-2-33l-3-62v-14l-4-68l-4-66l-3-52l-1-4l-5-106l-2-29l-2-50l-4-45h-1l-2 1l-5 2l-4 5l-1 5l-2 3l1 1v1h2l-1 3l-2 2h-1l-2 2l-2 5v3l-2 5l-2 2l-2 6l-1 1l-3 1h-3h-2l-4-3l-1-2l-3-1l-2 2l-2 1h-1l-3 2v2l-1 1l-1-1v-1l-1-2l-2-2l-2-1l-2-1l-1-2l-1-1h-2l-5 3h-5l-1-2l-2 1l-1 2h-2l-1-2l1-1l-2-5v-1l-2-1l-3-4v-1h-3l-3-3h-2l-1-2l-1-1v-5l-2-6l1-2l-1-1l-3-1l-3 1h-1l-1-2v-1l-1-2v-1l-7 3l-2 2l-2 3l-1 3l-2 1h-2l-3 2l-1 2l-4 1l-2 1l-1 2v1l-1 2l-4 1h-2l-3 2h-1l-3-1l-2 2v1l1 1l1 2l2 4v2l-1 1l-1 2l-2 2l-3 1h-1l-3 1l-1 1l-1 3v1l-2 3v1h-1l-2-1l-1-2l-2-3l-4-1l-2 1l-3 2l-3 3l-8-2l-3-1h-2l-1 1v2h1l2 2l3 3l6 3l2 3l1 1v1l3 1h1l3 1l2 5v2l1 2l-5 4v2l-1 6l-3 1l-1 1v2v4l-2 5l-2 3l-1 1l1 4l-1 1l-1 5h-1l-1 1l-2 2l-2 5l1 2l2 1l3 7v1l-1 3l-2 3l-5 4l-2 1l-2 3v1v3l-2 2h-2l-1 2l-1 3l-1 1l-2 1l-1 4l-2 2h-2l-3 1v1v1l-1 1l-2 1l-2 4v1l-4 1l-1 1l2 3l-1 8l-2 2h-1h-1v2l2 3l1 1h1l2-1l1 1v2l-1 5l-4 7v7v1v1v1l19-1v2l-8 6l-4 2l-5-2h-9l-3 1h-3l-3 2l-4 4v5v3l3 6l3 2l2 5l4 2v4l-1 9l1 3v2l-1 1l1 9l3 3l3 3l2 4l3 2l1 1l-1 4l-1 1l-1-1l-1 1l-1 1l-3 4l-3 2v1l1 1v1l-6 8l-2 1l-1 1v1v2l-3 3l-3 1l-3 2l-2 2l-1 1v2l1 2v1l-3 2l-1 2v1v1l1 1l1 3v2v1l-1 2l-2 1l-2 7l-1 1h-1v-1l-1 1l-4 4v2v2l1 2l2 1v2l-1 1l-1 6l1 2l-1 2l-3 5h-1h-2l-5 2l-2 3v1l1 1v1l-3 2l-2 4l-2 1l-2 1l-1 3v1l-2 3h-3l-4 2h-1v2l1 1l2 1l1 3v5v1v4v1l1 1l2-1h1v1l-1 3l1 1l2 3l5 8l3 2v1l-1 2v1v1l1 1l1 2v1v5l2 2l-1 2l-1 1v1l4 3h1h3v1v1l-1 2h-1v2l1 1l-1 2v2v1l1 1l1 1l3 1h1l-1 2l1 1l1 1h2v-1l1-2h1l1 1l1 2l2 4v2v1l-2 1v2l4 3l2 4l-1 1l-1 1l-1 1v5l1 6v2v1l-1 1v2l1 2v2l1 2h2l5 2l2 2l-1 2l-1 2l-3 3h-1h-1l-1-1l-1-1l-2 2l-1 6v2v2l-1 1l-2 1h-3l-3-1l-8-1h-1l-1 1l-1 2l-1 3l-1 2l1 1l5 4l7 6l1 2v1l-1 2l-1 3l-3 4l-2 1l-1 1l-3-1v1v2l1 1l3 2v1l1 3l1 1l2 3l1 1v1h-1h-1l-3 1h-1l-2 1l-2 2v2l-1 4l-1 2l-6 1l-3-1h-1l-7 1l-1 1l-4 4l-2 1l-1 1l-1 2l-1 1l1 1v1l3 2l1 2l-2 2h-1h-4l-2 5l-1 7l-2 4l-1 1l-3 2h-4l-1 1h-1l1 2l-1 3l-3 3l-3 2l-4 4l-5 3l-4 1h-6h-2l-3 1h-1l-1 2l-1 3l-1 1h-1h-2l-3-3l-1-1h-3z"/><path id="33009" d="m120 1275v3l1 4l2 1l1 1v3l-1 2l65 11l20 9l35 15l-7 11l16 7l11-18l1 7l72 11l2-4l21-30l23-27l17 50l11-12l11 6l9-12l13-1l5 4l6-11l-9-8l13-9l11 5l14-9l6-11l-3-7l3-10l-2-13l3-17l37-5l32-5l-6-47l-3-25l-3-1l-9-59l-2-14l109-17l-10-64l-2-16l20-34h-10l-9-22l3-16l-6-27l-14-10l-7-32l6-1l-15-28l-14-8l-20 3l-1-5l-36 6l-7-38l-53-24l-6 3l-37-56l-1 1l-3 2l-1 1l-2 1h-6l-2 1l-5 4v1v1l2 4l-1 1l-1 1l-3-1l-3 1v1l-1 5l2 2v1l-2 2v1v3l2 3v1v2h-1l-3 2h-4l-3 2l-3 2l-3 2l-5 3h-5l-4 3h-2l-1-1l-4-2l-11-5l-2-1l-6 2l-4 3l-2 3l-3 2h-2l-4-2h-7l-2 1l-10-1l-2 1l-1 4l-1 1l-8 4l-4 2l-2 1h-3l-3-1h-2l-2 1l-1 3l1 1v7v2v1l-2 3l-1 1l-4 4l-4 1l-3 3l-4 7l-1 4l1 2l1 1l2 3v6l4 7l2 2l1 2v2l-2 4l-1 5v3v3v1l-3 7v1v3l-1 2l-2 1v1l-1 6l3 3l2 4l2 9l3 5h3l1 3v1l-1 3v1v10l2 3l2 1l-2 6l-1-1h-1l-2 1l-4 3l-1 6v1l8 6h2l2 1l1 1v2l-1 3v2l-1 1h-1l-2 1l-3-1h-1l-1 2l1 1l4 3l-1 5l-4 3l1 1l-3 4l-2 3v1l-1 1l-2 1v3l-2 2l-5 3l-1 1l-1 1v1v2l2 3v2l-2 2h-1v1l-1 1l-1 2h-3h-1l-1 1l-1 1v1l-2 4h-2l-1 2v2l1 4v1l-3 2l-4 4v2l2 3v2v7v3l-1 2v1v1h2l5 5l1 1v1l-3 5v1l-3 1h-3l-1 1v1l-1 2l2 6v1l-1 8l-1 1l-1 2l-7 7l-6 3l-3 3l-2 3l-2 4v3l-1 1l-4 1l-1-1l-1 1l-1 1v3l1 3l1 2v1l1 1v1l-4 2h-2l-2 1l-1 2l-2 5l1 2l2 6v8v3l-2 3l-1 3v1l1 4l1 3l1 3l-1 2l-3 3l-2 5l-1 2l-1 1l-3 3l-1 2v1v8v1l-1 1l-2 1l-3 1l-1 1l-1 1l-1 3l-1 1l-5 8l-7 3l-10 7h-4l-2 5l-2 2l-3 3l-1 3l-3 4l-1 2l-3 2l-2 3l-1 5v2v7v2l1 2v3l-1 3v3l-3 5l-1 1l-1 1v5v2v3v2l-4 1l-3 2l-1 1v2l1 1l-1 3l-2 2z"/><path id="33011" d="m268 1759l-1 16h30l2 10l1 8l9 63l5 33l17 1l8 56h16l51 2l17 1h15l50 2h9h2h1l47 2l26 1h15h5h5l9 1l24 1h10h9l12 1h19l9-10l6-11l6-8h1l5-4l-8-10l-13-3l-36-9l-4-10h-3l2-10l-15-18l-21-1l-8-48l-5-30l36-6l4-6l-8-46h-1l-26-7l-7-18l-11 6l-8-12l-12 1l-3-14l-67 11l-14-73l-35 10l-67 18l-31-68l-51 14l-15 4l7 17l-8 23l2 3l-4 31l-9 47v10z"/><path id="33013" d="m258 1484l-6 11l13 50l11 1l2 23l18 26l51-14l31 68l67-18l35-10l14 73l67-11l3 14l12-1l8 12l11-6l7 18l26 7l-5-23h6l19-45l14-29l7-16l2-2l18-40l16-36l2-5l6-8l-61-45l-57-42l-9-6l-42-31l-7-2l-21 15l-10-7l-10-35l-8 3l-13-10l-8-13l2-7l-10-7l-12-17l1-3l-5-4l-13 1l-9 12l-11-6l-11 12l-17-50l-23 27l-21 30l-2 4l-30 48l-11 21l-23-4l-3 14l6 9l-1 24z"/><path id="33015" d="m597 1785l5 30l8 48l21 1l15 18l-2 10h3l4 10l36 9l13 3l8 10l6-3l5-1l9 3l14 4l-2-39l2-2l4-6l4-4v-1h1l8-5l10-4l9 2l28 9l5-20l4-8l1-4l7-7l15-3l2-1l18-3l10-6l9-6h1h1l7-1h7l9 3l20 15l6-3l3-2l5-3h3v-5l1-5l1-3l1-2v-10l1-2v-3l2-2l4-4v-2v-4l2-8l2-2l2-3l1-3l1-1l2-2v-1h2l2-3l1-3l-1-1v-1l1-2l3-4v-3l2-5l1-2l1-2h1h2h1l1-1v-2l2-9l2-2l3-1l1-1v-2l1-5l1-2l1-1l3-2l2-2l3-7l-1-3l1-7l5-3v-8l-1-2l-2-1h-6l-7 1h-2l-3-3l-5-2h-2l-1-1l-3-6l-2-2l-1-1l-6-2l-2-3l-6-5l-8-7l-6-5l-3 4h-4l-7-6l-9 1l1 22l-8 11l-31-8l-25 6h-18l-32 1l25-42l-55-46l-3-2l-61-53l-2 5l-16 36l-18 40l-2 2l-7 16l-14 29l-19 45h-6l5 23h1l8 46l-4 6z"/><path id="33017" d="m713 1523l-6 8l61 53l3 2l55 46l-25 42l32-1h18l25-6l31 8l8-11l-1-22l9-1l7 6h4l3-4l-3-3l-1-1l-1-3v-4l-2-4v-2l2-9l1-6v-2l1-2l1-1v-1v-4l-2-5v-1v-1l2-1l2-1l1-1v-1l-1-1v-1v-2l2-11l2-2l2-5v-1l-1-1v-1h-1h-1l-1-5v-1l-1-1l-2-2h-1h-1l-1-1l-3-1l-2 1l-1-1l-1-4v-1h1v-1l-2-2l-5-2l-2 1h-1l-1-1v-2l-1-3l-1-1l-5-4l-5-1l-1-1v-3l-2-4l-2-1l-3-1l-1-1l-4-4l-1-1l2-3l1-1l1-2l-1-2l-1-1l-2 1l-1-2l-2-1l1-1v-8h-2h-1l-4-3l-3-4l-1-1v-2l-1-2l-2-1l-8 2v1l-2-1l-1-2l-1-2l-2-1l-2-1l-3-9l-1-2v-4l-1-3l-3-5l-1-1v-1l-1-2v-3v-2l-1-2v-2v-1l2-1l1-2l-1-2l-1-1l-1-2v-6v-2l2-3l3-2l2-1l2-2l1-3v-2v-2l4-3v-1v-2l-2-3l-1-3v-2l2-2l2-8l-1-2l-2-2l-3-1l-1-1l-1-2l3-2l1-1l-1-1v-2l1-4l3-5l1-1l1-6l2-2l-1-1l-1-1l2-4v-3l-1-1l-1-1v-3v-2l-3-2v-1v-1v-1l1-2h-1l-33 43l-7-35l-16 2l-10 16h-14l-9-50l-19 26l-15 17l17 119l-26 35z"/><path id="33019" d="m56 1607l1 1v7l11 1v18l32 2l-2-18l24 1l-1-5l38-6l57-8l-12 37l76 2l8-23l-7-17l15-4l-18-26l-2-23l-11-1l-13-50l6-11l16-30l1-24l-6-9l3-14l23 4l11-21l30-48l-72-11l-1-7l-11 18l-16-7l7-11l-35-15l-20-9l-65-11l-2 1l-9 8l-8 3l-5 4l-3 4l-2 7v1l1 6v10l-1 4l-3 6h-1h-2l-1 3v2l-1 6v2l1 2l3 3l3 2l2 6v1v2v6l-1 3l-1 2l-4 4v1v2l1 10v1l-2 4l-1 4v6v1v1l-2 10v3l-1 6l-1 8l-1 1l-4 5l-1 3l-1 2l1 8v1l1 2l5 3h2h4l1 1v1l-3 4l-2 2l-1 1l-3 6l-1 3l-1 2v1l1 2l3 5l3 2l1 2v2l-3 7l-3 15l-4 8l-4 6l-7 4l-1 1l-1 3v6l1 5l1 2l1 1v1l-1 2l-1 4l-2 4v3l1 5v4v1l-6 7v2l3 5v2v2z"/></svg>
