<?xml version="1.0" encoding="UTF-8"?><!DOCTYPE svg PUBLIC '-//W3C//DTD SVG 1.1//EN' 'http://www.w3.org/Graphics/SVG/1.1/DTD/svg11.dtd'><svg viewBox="0 0 1000 1957" xmlns="http://www.w3.org/2000/svg"><path data-id="33001" d="m445.4 1296.6l8.4 8.4l-6.2 11.4l-0.6 2.3l12.1 16.9l10.1 7.1l-1.8 7.6l7.4 13l12.9 9.6l8.3 -3.1l9.7 35.6l10.1 6.5l21.4 -14.4l6.5 1.5l42.1 30.5l8.9 6.4l57.2 41.6l61 45.7l15.3 -17.1l26 -35l-17 -118.8l15.2 -17.8l-19.8 -15l-5.1 6.4l-10.2 -10.6l-16.4 -4.9l-13.7 -12.8l-28 -24.5l-4.3 -5.5l-51.9 -49.8l-49.5 -48.8l5.5 47l-32.3 4.5l-36.1 5.5l-3.6 17l2.3 12.5l-3.3 10l3.1 7.8l-6.2 10.9l-13.7 8.6l-10.6 -4.5l-13 8.2z"/><path data-id="33003" d="m535.6 1070.2l2.1 13.6l9.1 59.1l3.3 0.7l3.3 25.5l49.5 48.8l51.6 49.5l4.6 5.8l28 24.5l13.7 12.8l16.4 4.9l10.2 10.6l5.1 -6.4l19.8 15l18.8 -25.2l8.8 49.2l14.4 0l9.3 -15.3l16 -1.9l7.4 34.9l33.3 -43.4l3.6 -0.5l2.7 -6.7l-1.4 -1.3l-0.9 -1.1l-0.5 -4.1l-0.7 -1.2l-2.5 -1.2l-3.6 -4.4l-2.3 -1.1l-1.3 -32.9l-0.3 -8l-3.4 -56.6l-0.1 -8.2l0.1 -2.4l-1.5 -28.3l-2.2 -29.2l-0.5 -35.2l-1 -28.5l-0.5 -14.2l-0.1 -15l-3 -93.6l-1.6 -38.9l-0.4 -13.3l-3.5 -101.5l-0.1 -9.8l-0.8 -19.9l-18.4 0.8l1.1 34.9l-30.3 1.6l-82.8 -6.6l-27.2 80.4l-5 34.3l-13 4.5l-4.2 -4.7l0.2 -23.5l-7.1 -31.9l-15 -9.8l-5.7 -27l-11.3 1.9l-5.7 1l7.2 32.7l14 9.2l5.7 27.3l-2.8 15.8l8.2 22l10.6 -0.2l-19.9 34.7l2.2 15.8l9.5 64.2l-109.3 17z"/><path data-id="33005" d="m0 1842.3l2.1 4.6l2.6 3.4l0.6 3.3l0 3.7l0.7 6.4l1.8 11.3l1.7 2.7l11.5 10.4l1.4 1.5l2.2 3.3l1.6 3.1l0.4 2.2l-0.2 1.7l-1 1l-2.5 1.3l-1 2l0.4 2l1.6 1.6l1.2 0.1l1.6 -0.5l3.9 -2.4l0.8 -1l0.2 -2.2l1.9 -1l2.3 0.6l1.8 2.3l0.7 1.8l0.8 1.1l3 1.8l0.9 1.4l0.9 2.6l0.7 5.1l0.9 3.5l2.8 3.5l3.7 5.9l1.4 3l0 1.6l4 0.2l21.1 0.9l46.3 1.9l21.8 0.9l1.6 0.1l42.9 1.4l42.6 1.4l7.3 0.3l16 0.7l1.5 0.1l52.5 2.2l28.3 0.8l-8.2 -56l-16.4 -0.7l-5.1 -32.7l-9.2 -63.1l-1.2 -7.9l-1.5 -10l-30.2 -0.7l0.5 -15.5l1.3 -29l0.5 -10.2l8.6 -46.7l3.8 -31.6l-1.8 -2.8l-75.7 -2.3l11.8 -37.1l-57.1 8.9l-37.6 5.3l1 5.7l-24.9 -1.9l2.4 18.9l-32.1 -2.6l-0.2 -17.9l-10.8 -1.1l0.3 4.6l-0.1 1.2l-0.5 1.1l-2 1.8l-0.2 2.2l2.6 5.6l2 1.3l2.2 -0.1l1.2 0.6l0.7 3.3l-1.2 0.7l1 2.6l1.6 1.9l1.1 1.3l1.6 2.8l0.2 4.1l-0.3 1.1l-0.9 2l-3.1 2.8l-1 1.9l-0.3 2.1l2.1 4.4l2.2 6.1l-0.1 2.3l-0.5 1.3l-2 3.5l-2.9 4.2l-5.1 5.8l-4.9 4.5l-1.4 2l-0.5 1.5l0.3 2.5l0.5 1.2l2 2.4l1.1 2.6l-0.4 3.5l-1.1 5.5l0.3 2.2l1.8 4.6l1.1 1.6l2.2 1.1l4.5 3.8l0.4 1.2l0 2l-0.7 1.3l-2 2.4l-1.7 0.4l-2.8 -0.5l-1.6 0.9l-1.6 2.3l-1 2.5l-0.3 3l0.7 2.5l1.3 1.5l-2.4 4.1l-4.2 4.7l-1.6 0.2l-1.4 -1.4l-1.3 -0.3l-2.8 1.6l-3.1 3.1l-6.3 1.4l-2 1.2l-5.7 0.7l-7.4 6.1l-1 2.1l-0.2 1.7l0.4 1l1.2 1.5l1 0.3l1.3 2.2l0.4 2.4l0.1 3.1l-0.4 5.3l1.5 7.4l-0.1 2.2l-2.6 2.1l-1.3 4.1l0.1 6.8l-0.7 1.4l-2.4 3.1l-1.8 1.8l-3.1 1.6l-3 1.1l-1.8 7.5l0.2 3.2l-0.6 3l1.1 5.1l-1.6 5.2z"/><path data-id="33007" d="m427.5 684.2l36.7 56.2l5.4 -3.4l53.9 24l6 37.8l36.9 -6.3l0.8 5.5l19.5 -3.3l14.2 8.1l14.8 27.9l11.3 -1.9l5.7 27l15 9.8l7.1 31.9l-0.2 23.5l4.2 4.7l13 -4.5l5 -34.3l27.2 -80.4l82.8 6.6l30.3 -1.6l-1.1 -34.9l18.4 -0.8l-0.5 -12.8l-0.8 -29.4l-1.4 -28.2l-2.9 -72.2l-1.2 -19.9l-2 -44l-1.3 -40.2l-1.1 -33.5l-3.1 -61.5l-0.4 -14.5l-3.8 -68l-4.3 -65.3l-2.8 -52.8l-0.6 -3.7l-5.6 -106.3l-1.7 -28.2l-2.3 -50.5l-3.8 -44.9l-3 0.7l-4.5 2.1l-4 5.6l-1.9 4.3l-1.1 3.4l0.3 1.2l2.4 0.4l-0.9 3l-1.8 2.4l-1.3 0.5l-1.7 1.9l-2 5l0.1 2.6l-2.5 5.4l-1.9 1.2l-2.2 6.3l-1.1 1l-2.9 0.9l-2.9 0.5l-1.8 -0.1l-4.1 -3.1l-1.3 -1.8l-2.5 -1.2l-2.5 2.2l-2.1 1l-1.1 -0.2l-2.2 2.1l-0.6 1.7l-1.3 1.1l-1 -2.2l-0.5 -1.7l-2 -2.1l-2.3 -1.5l-1.7 -0.6l-1 -2.4l-3.5 -0.5l-4.7 2.9l-4.8 -0.5l-0.7 -1.9l-2.1 1.4l-1.2 1.5l-1.7 0l-1 -1.4l0.8 -1.5l-2 -5.3l-2.2 -1.2l-2.8 -4.8l-3.1 -0.8l-3.3 -3.2l-1.7 0.1l-1.4 -2.2l-0.5 -1l-0.4 -4.1l-1.6 -6.5l1 -1.7l-4 -2.5l-3.7 1.3l-1.9 -2l0.1 -1.4l-0.6 -2.1l-6.9 2.1l-2.5 2l-2 3.2l-1.1 2.8l-1.2 1.2l-2.9 0.2l-2.2 1.8l-1.4 1.8l-4.1 0.9l-1.8 0.9l-1 2.5l-0.2 1.1l-1.3 1.7l-4.1 1.5l-1.9 -0.7l-2.2 2.2l-1 0.4l-3.9 -0.8l-1.2 1.7l0.3 2.2l1.4 1.6l1.5 4.2l0.1 1.8l-0.3 1.1l-1.1 1.9l-2 2.1l-2.9 1.2l-1.9 0.2l-2.6 1.1l-1.7 3.2l-0.2 1.3l-1.6 3l-0.9 1.2l-2.4 -1.3l-1.3 -1.7l-1.4 -3.1l-4.4 -1.1l-2.3 0.8l-2.7 2.1l-2.8 2.5l-8.6 -1.6l-3 -1l-2 0.4l-0.9 1.1l0 1.2l1.7 0.4l1.1 1.7l3.7 3.1l5.6 3.6l2.2 2.1l0.6 1.3l0.4 1.1l3.5 1.1l3.1 0.9l2.2 5.1l0.6 2l0.1 1.8l-4.2 4.1l0.2 1.6l-1.9 6.2l-2.2 1.3l-1 1l-0.3 1.2l-0.4 4.6l-1.6 5.2l-1.6 2.3l-1.4 1.2l0.5 3.7l-0.2 1.4l-1.5 4.6l-1.7 1.4l-1.7 1.8l-2.2 5.2l0.8 2l1.5 1.3l3.4 6.3l-0.2 1.8l-0.9 2.7l-2 2.6l-4.4 4.6l-2.7 0.8l-1.7 3.3l-0.3 3.5l-1.7 1.7l-1.6 0.6l-1.5 2l-0.9 2.9l-1.1 1.2l-1.5 0.4l-1.4 4.7l-2.1 2l-2.1 -0.2l-3 0.7l0.4 1.1l-1.6 2.3l-1.9 0.5l-1.5 3.8l0 1l-4.7 1.3l0.9 4.2l-0.9 7.9l-1.5 2.1l-1.2 -0.5l-1 0.2l-0.4 2.7l2.3 2.8l2 0.4l2.2 -0.9l1.1 1.6l0 1.4l-1.5 5.7l-3.2 6.1l-0.6 7.8l0.5 1.4l18.9 0.4l-0.7 1.3l-7.2 6.9l-4.3 1.5l-5.3 -2.2l-9.3 -0.1l-2.9 1.3l-2.7 0.3l-2.7 1.7l-3.7 4.2l-0.9 4.6l0.4 3l3.3 6.3l2.4 1.8l2.6 5.6l3.3 1.3l0.7 4.4l-1.1 8.5l0.7 3.1l-0.3 2l0.5 10.3l3.2 3l2.5 3.3l2 3.4l3.4 2.1l-0.7 5.2l-2 0.2l-1.5 1.6l-3.3 3.8l-2.8 2.3l-0.2 1.1l1.3 1.2l-0.3 1l-5.4 7.2l-2.3 1.3l-0.9 1l-0.4 3.3l-2.9 2.9l-3 0.8l-3.1 1.9l-2 2.7l-0.4 2.3l1 1.9l0 1.1l-2.9 2.6l-1 1.2l-0.7 1.3l0 1.5l2.2 3.7l0.4 2.2l-0.1 1.1l-0.8 1.3l-2.1 1.3l-2.5 7.4l-1.4 0.6l-1.7 0l-3.5 4.4l-0.6 1.5l0.2 1.9l1.2 2.4l2 1.2l0.1 1.3l-0.7 1.3l-1.5 5.6l0.8 2.4l-0.8 2.2l-3.1 4.4l-3 0.2l-4.6 2.2l-2.1 2.9l0.1 1.2l0.3 1.5l-2.9 2.5l-1.7 3.3l-2 1.6l-1.9 1l-1.3 2.8l0 1.5l-2 2.1l-3.2 0.6l-4 1.4l-0.3 2.2l0.5 1.3l2.3 1.1l0.9 2.5l0.1 5.2l-0.3 1.5l0 3.6l0.4 1l1.3 0.9l1.9 -1.1l0.9 1l-0.6 3.1l0.1 1l2.8 2.8l4.4 8.2l2.8 2.1l0.3 1.1l-0.8 2.3l0.3 1.4l1.8 3l-0.6 1.6l0.9 4.4l1.2 2.5l-0.2 1.6l-0.9 1.5l3.5 3.2l1.4 0.5l2.4 0.1l0.6 1l-0.3 1l-1.1 1.5l-0.6 1.9l0.6 1.7l-0.4 1.4l-0.7 1.8l0 1.2l0.9 1.3l1 0.9l3.8 0.7l-0.1 1.9l0.6 2l1.6 0.2l1 -0.1l1.4 -2.3l1.7 0.6l1.4 2l1.7 4.4l0.3 1.9l-0.4 1.4l-2 0.5l0 1.7l4.3 3.8l1.6 3.5l-1.2 1.6l-1 1l-0.4 5.4l1.3 5.6l0.1 1.9l-0.5 1.4l-0.5 1.3l-0.1 1.6l0.8 2.3l-0.1 2l0.6 1.8l2.3 0.2l4.7 2.1l2.3 1.5l-0.8 2.8l-1.3 1.7l-2.6 2.5l-1.4 0.6l-1 -0.5l-1 -0.9l-1.1 -0.2l-1.2 1.9l-1.7 5.6l-0.2 1.5l0.2 2.4l-0.7 1.1l-1.9 0.7l-3.3 0.3l-3.2 -1.5l-7.9 -0.7l-1 0.4l-1 1l-1.2 2.2l-0.9 2.8l-0.2 1.3l0.7 1.5l4.7 4.2l7 5.3l1.1 2.2l0 1.3l-0.8 2l-1.3 2.5l-3 4.5l-1.7 1.3l-3.8 -0.2l-0.8 1l0.2 1.5l1 1.5l2.8 2.4l1 3.4l0.9 1.4l2.9 2.6l0.1 1.6l-1.3 0.7l-2.8 0.4l-1.7 0.6l-1.7 0.6l-2 2.2l-0.1 1.7l-1.3 4.6l-0.8 1.5l-5.4 1.6l-3.4 -1.2l-8.1 1.3l-1 0.3l-3.5 4.6l-2 0.9l-1.5 1.1l-1 1.5l-0.1 2.3l3.8 3l0.2 1.3l-1.3 1.9l-1.2 0.9l-3.9 -0.4l-2.7 5.4l-0.9 6.9l-1.5 3.5l-1.3 1.5l-2.6 1.4l-4.6 0.6l-1 0.5l0 2.1l-0.4 3.2l-3.2 3.4l-2.7 1.6l-4.6 3.9l-4.6 3.1l-3.8 1.1l-6 -0.7l-2.9 0.3l-2.4 0.7l-1 0.9l-1.1 1.6l-1.3 3.3l-1.4 0.7l-2.4 -0.5l-2.6 -2.7l-4.1 -1.1l-1.6 0.3z"/><path data-id="33009" d="m120.2 1274.8l-0.2 3.5l1.1 3.1l1.7 1.4l0.7 1.2l0.3 3.1l-0.5 1.4l64.9 11.7l20 8.4l34.9 15.3l-7.4 11.3l15.8 7l11.5 -18.1l1.3 6.8l71.1 11.2l2.3 -3.7l21 -30.3l23.2 -27.3l16.9 49.9l11 -11.3l10.8 5.1l8.9 -11.3l13.7 -1.1l4.3 4.4l6.2 -11.4l-8.4 -8.4l13 -8.2l10.6 4.5l13.7 -8.6l6.2 -10.9l-3.1 -7.8l3.3 -10l-2.3 -12.5l3.6 -17l36.1 -5.5l32.3 -4.5l-5.5 -47l-3.3 -25.5l-3.3 -0.7l-9.1 -59.1l-2.1 -13.6l109.3 -17l-9.5 -64.2l-2.2 -15.8l19.9 -34.7l-10.6 0.2l-8.2 -22l2.8 -15.8l-5.7 -27.3l-14 -9.2l-7.2 -32.7l5.7 -1l-14.8 -27.9l-14.2 -8.1l-19.5 3.3l-0.8 -5.5l-36.9 6.3l-6 -37.8l-53.9 -24l-5.4 3.4l-37.1 -56l-1.2 0.7l-2.7 1.8l-1.4 1.5l-1.7 1l-6.5 -0.3l-1.7 0.7l-4.5 4.4l-0.6 1.1l0 1.1l1.9 3.3l-0.2 1.3l-1.7 0.7l-2.9 -0.4l-2.3 0.8l-1.4 5.6l1.8 2.3l-0.2 1.6l-1.4 1.2l-0.4 1l0.6 2.9l1.4 3.9l-0.3 2.2l-3.2 2l-4 0.7l-3.8 1.4l-2.4 1.8l-3.6 2.7l-4.5 2.5l-5 0.6l-4.3 2.4l-1.4 0.3l-1.8 -0.6l-3.3 -2.1l-11 -5.5l-2.5 -0.6l-5.7 1.3l-4.1 3.4l-2.2 3.4l-3.4 1.4l-2 -0.1l-3.3 -1.4l-7 0.2l-2.7 0.7l-9.7 -0.7l-1.9 0.9l-1 3.8l-1 1.1l-7.6 3.7l-4.1 2.2l-2.5 0.7l-2.5 0.5l-3.6 -1.3l-1.8 -0.3l-2.2 1.5l-0.4 2.3l0.8 1.2l0 6.8l-0.1 2.2l-0.5 1.4l-1.9 3l-1.1 1l-3.9 3.4l-3.8 1.1l-3 3.2l-3.5 6.8l-1.3 4.7l0.7 2l1 0.3l1.8 3.5l0.8 5.5l3.1 6.8l2.1 2.2l0.9 2.1l0.3 2l-1.5 3.7l-1.6 5.7l-0.2 2.5l0.7 2.9l-0.4 1.5l-2.9 6.5l0.3 1.6l-0.5 3l-0.6 1.3l-1.9 1.5l-0.5 1.1l-0.9 5.4l2.6 3.6l2.1 4.1l2.4 8.7l2.9 4.6l2.8 0.7l0.9 2.2l0.3 1.6l-1.4 2.6l0.4 11.3l2.2 2.5l2 0.9l-1.8 5.8l-1.7 -0.7l-3.1 1.3l-3.2 3l-1.3 5.8l-0.1 1.5l8.2 5.1l1.5 0.2l2.1 1.1l0.9 1.2l0.1 1.6l-0.5 3.5l-0.5 1.4l-0.8 1l-1.1 0.7l-2 0.4l-3.4 -0.6l-1.4 1.8l0.8 1.3l4.1 3.1l-1.5 5l-3.3 2.5l0.2 1.7l-2.8 3.3l-1.5 3.9l-1.3 1.2l-1.7 1.8l-0.3 2.9l-2 1.7l-4.6 2.6l-1.3 1l-0.9 1.3l-0.3 1.1l0.1 1.4l2.1 3.7l0.3 1.4l-2.3 2.1l-1.1 1.1l-0.3 1.2l-1.8 1.9l-2.8 0.1l-1.9 0.9l-0.6 1l-0.3 1.6l-1.7 3.2l-1.9 0.4l-1.5 1.7l0.2 2.5l0.7 3.9l-0.1 1l-2.8 1.7l-4.3 4.5l0.2 1.9l2.1 3l0.6 2.3l-0.4 7l-0.3 2.1l-0.9 2.5l0.2 1.5l1.8 0.4l5.4 4.6l1 1.5l-3 6.2l-3.5 2.2l-2.4 0l-1.4 0.6l-0.5 1.1l-0.2 1.6l1.2 6l0 1l-0.7 8l-0.6 1.8l-1 1.5l-7.6 6.7l-5.4 3.5l-3.4 2.7l-2.4 3.4l-1.5 3.3l-0.3 3.3l-4.4 1.6l-1.8 -0.2l-1.2 2l-0.4 3l0.9 2.6l1.1 2l0.6 1.5l0.6 1.6l-3.9 2.1l-2.5 0.2l-1.9 0.6l-1 1.5l-1.7 5.4l0.3 1.9l2.4 6.4l0.4 8.3l-0.6 2.5l-1.6 2.8l-1.1 3l-0.2 1.3l1.2 4l1.2 2.5l0.5 3.3l-0.8 2.6l-3.2 2.9l-1.3 4.6l-1.3 2.4l-0.8 1.1l-3.8 2.9l-0.7 1.2l-0.1 1.6l0.4 8.2l-1.5 1.4l-1.8 1.2l-3.1 0.9l-2 2.2l-1.1 2.8l-0.9 1.5l-4.9 7.1l-6.7 3.9l-10.3 6.7l-3.7 0l-2.6 5.3l-2 1.8l-2.7 3.2l-1.2 2.3l-2.8 4.4l-1.4 1.7l-2.6 1.8l-1.7 2.9l-1.3 5.2l-0.1 2.4l-0.3 7l0.9 1.4l0.7 2.3l-0.2 3l-0.5 3.4l-0.8 2.2l-2.7 5.1l-1.1 1l-0.6 1.7l-0.6 5l0.6 2.1l-0.1 2.8l-0.6 1.2l-3.9 1.7l-2.6 1.6l-1.2 1.6l0.1 1.3l1.1 1.2l-0.8 3.1l-1.8 1.4l-1.1 4.3z"/><path data-id="33011" d="m267.6 1759.2l-0.5 15.5l30.2 0.7l1.5 10l1.2 7.9l9.2 63.1l5.1 32.7l16.4 0.7l8.2 56l16.3 0.6l50.4 1.9l17.7 0.7l14.4 0.5l50.7 1.5l8.4 0.3l2.4 0.1l48 1.5l25.4 0.8l15.2 0.5l5.3 0.2l4.6 0.1l9.1 0.3l24.5 0.8l9.3 0.3l9.6 0.3l11.7 0.7l19.4 0.1l8.2 -10.5l5.9 -10.7l6.6 -7.7l5.4 -4.6l-7.9 -9.7l-13 -3.2l-36 -8.9l-3.8 -9.5l-3.4 -0.1l2 -10.1l-14.3 -18.1l-21.5 -0.9l-8.2 -48.3l-4.8 -29.8l36.2 -5.5l3.7 -6.5l-8.1 -45.6l-26.1 -6.9l-7.6 -18.9l-10.4 6.4l-8.2 -12.2l-12.8 1.6l-2.5 -14.2l-66.8 10.9l-14.3 -72.7l-35 9.4l-66.7 18.2l-30.8 -68l-51.7 14.2l-15 4l7.2 16.5l-7.9 23.2l1.8 2.8l-3.8 31.6l-8.6 46.7l-0.5 10.2l-1.3 29z"/><path data-id="33013" d="m258.2 1483.5l-6.2 11.9l13.3 50l10.9 0.2l2 23.7l17.5 25.8l51.7 -14.2l30.8 68l66.7 -18.2l35 -9.4l14.3 72.7l66.8 -10.9l2.5 14.2l12.8 -1.6l8.2 12.2l10.4 -6.4l7.6 18.9l26 6.7l-5.7 -23.4l6.3 0.1l18.9 -45.1l14.4 -28.5l6.3 -16.1l2 -1.6l17.9 -39.9l16.5 -36.2l1.6 -5.8l6.1 -7.2l-61 -45.7l-57.2 -41.6l-8.9 -6.4l-42.1 -30.5l-6.5 -1.5l-21.4 14.4l-10.1 -6.5l-9.7 -35.6l-8.3 3.1l-12.9 -9.6l-7.4 -13l1.8 -7.6l-10.1 -7.1l-12.1 -16.9l0.6 -2.3l-4.3 -4.4l-13.7 1.1l-8.9 11.3l-10.8 -5.1l-11 11.3l-16.9 -49.9l-23.2 27.3l-21 30.3l-2.3 3.7l-29.7 47.6l-11.4 20.8l-22.9 -3.1l-2.2 13.9l5.9 8.6l-1.9 24.2l-15.3 29.5z"/><path data-id="33015" d="m596.8 1785l4.8 29.8l8.2 48.3l21.5 0.9l14.3 18.1l-2 10.1l3.4 0.1l3.8 9.5l36 8.9l13 3.2l7.9 9.7l6.5 -2.1l5.1 -0.9l8.4 2.5l14.2 4.2l-2.3 -39l2.1 -2.6l4.2 -5.4l3.6 -4.3l1.2 -1l8.6 -5l9.3 -4.3l9 2.7l27.8 8.4l5.7 -19.7l3.3 -8l1.7 -3.5l7.1 -7.6l14.3 -3l2.8 -0.6l17.8 -3.7l9.3 -5.2l9.4 -6l2.2 -0.8l6.9 -0.9l6.5 0l9 2.9l20.2 16l6.1 -3l3.6 -2.9l4.9 -2.2l2.4 -0.3l0.2 -5.6l0.6 -4.7l1 -2.6l1.7 -1.9l0.2 -10.7l0.3 -2l0.7 -2.4l1.5 -2.8l4.2 -3.2l-0.3 -2.5l0.4 -4.2l2.1 -7.3l1.8 -2.1l2.2 -3.4l0.8 -2.5l0.7 -1l1.9 -2.7l2.6 -1l2.1 -3l1.1 -2.3l-1.2 -1.5l0.1 -1.2l0.7 -1.1l2.8 -4.3l0.4 -3.6l1.7 -4.8l1.2 -2.1l1.3 -1.4l2.1 0.1l1.5 -0.3l0.5 -2.8l2.8 -9.3l1.9 -2.3l2.6 -0.8l1.5 -3.5l0.3 -4.1l0.9 -2.2l1.1 -1.6l2.8 -1.3l2.3 -2.3l2.9 -7.2l-0.3 -3.1l0.3 -7.2l5.3 -2.6l-0.5 -8.4l-0.7 -1.6l-1.6 -1.4l-6.2 0.2l-7.1 1l-2.3 -0.1l-2.3 -2.9l-5.8 -1.4l-2 -0.5l-3.5 -7.1l-1.8 -2.4l-6.9 -2.4l-1.9 -2.8l-6 -5.2l-8 -7.7l-6.1 -4.1l-3 3.2l-4.5 0.1l-7 -6l-8.4 1.3l0.8 22l-7.8 10.5l-31.6 -7.2l-25.3 5.7l-17.1 0.3l-32.6 0.2l25 -41.6l-54.6 -46l-3.1 -2.6l-61.4 -53.1l-1.6 5.8l-16.5 36.2l-17.9 39.9l-2 1.6l-6.3 16.1l-14.4 28.5l-18.9 45.1l-6.3 -0.1l5.7 23.4l8.2 45.8l-3.7 6.5l-36.2 5.5z"/><path data-id="33017" d="m712.9 1523.3l-6.1 7.2l61.4 53.1l3.1 2.6l54.6 46l-25 41.6l32.6 -0.2l17.1 -0.3l25.3 -5.7l31.6 7.2l7.8 -10.5l-0.8 -22l8.4 -1.3l7 6l4.5 -0.1l3 -3.2l-3.7 -3.3l-0.7 -1.5l-0.6 -2.5l-0.4 -4.4l-1.6 -3.6l-0.5 -2.7l2.5 -8.1l0.7 -6.3l-0.3 -1.9l1.1 -2.3l1.1 -0.9l0.3 -1l-0.7 -3.8l-1.9 -5.2l0.2 -1.5l2.3 -1.8l1.6 -0.4l0.7 -1l0.1 -1.6l-0.4 -1.2l-0.4 -2.2l2.1 -11l2.1 -2l1.9 -5.4l-0.8 -2.1l-1.6 -1.3l-1.2 -4.4l-0.8 -1.8l-2.7 -2.1l-1.2 -0.5l-1.6 -0.5l-3 -0.9l-2 0.4l-2.2 -4.7l0.8 -1.3l-1.9 -2.9l-4.7 -1.8l-1.7 1.2l-1.7 -0.8l-0.9 -2.6l-0.8 -2.5l-1 -1.4l-5.1 -3.7l-4.9 -1.7l-1.1 -3.7l-1.5 -3.9l-2 -1l-3.3 -0.8l-1.4 -1.2l-3.9 -3.5l-0.8 -1.4l1.9 -2.4l1.4 -1.4l0.5 -1.9l-1 -2.6l-1.2 -0.3l-1.6 0.4l-1.3 -1.4l-1.4 -1.2l0.5 -1.2l-0.2 -7.3l-1.8 0l-4.4 -3.5l-3.9 -3.8l-0.5 -1.1l-0.3 -2.6l-0.3 -1.6l-2.4 -0.5l-7.8 2l-0.8 1l-1.9 -1.1l-0.7 -2.3l-1.4 -2.4l-1.9 -0.6l-1.7 -1.4l-3.3 -8.4l-0.8 -2.2l0.4 -3.7l-1.2 -3.2l-2.9 -4.9l-1.3 -1.7l-0.7 -2.3l-0.2 -3.7l0.4 -1.9l-1.3 -2.1l0 -1.5l0.2 -1.4l2.4 -1l0.2 -2.2l-0.1 -1.1l-1.6 -1.7l-0.5 -1.4l-0.3 -6.2l0.2 -1.8l2.1 -3.8l2.6 -1.9l1.9 -0.8l1.9 -1.9l1.4 -2.7l-0.5 -2.6l0.3 -1.6l4.1 -2.5l0.1 -1.6l-0.3 -1.9l-2.2 -3.4l-0.6 -2.2l0.3 -2.4l1.2 -2.3l1.9 -7.3l-0.5 -2.3l-1.6 -2.7l-3.6 -0.4l-1.1 -0.8l-0.7 -1.8l3.4 -2.5l0.3 -1.4l-0.8 -1l-0.3 -1.7l1.5 -3.8l2.6 -4.8l1.5 -1.2l0.7 -6.5l1.7 -1.3l-0.3 -1.2l-0.8 -1l1.5 -4.5l0 -2.8l-1.5 -1.2l-0.1 -3.4l-0.6 -2.1l-2.3 -2l-0.5 -1.8l0.1 -1.6l0.6 -1.6l-33.5 43.2l-7.4 -34.9l-16 1.9l-9.3 15.3l-14.4 0l-8.8 -49.2l-18.8 25.2l-15.2 17.8l17 118.8l-26 35l-15.3 17.1z"/><path data-id="33019" d="m56.5 1606.9l0.4 1.4l-0.1 6.5l10.8 1.2l0.2 17.9l32.1 2.6l-2.4 -18.9l24.9 1.9l-1 -5.7l37.6 -5.3l57.1 -8.9l-11.8 37.1l75.7 2.3l7.9 -23.2l-7.2 -16.5l15 -4l-17.5 -25.8l-2 -23.7l-10.9 -0.2l-13.3 -50l6.2 -11.9l15.3 -29.5l1.9 -24.2l-5.9 -8.6l2.2 -13.9l22.9 3.1l11.4 -20.8l29.7 -47.6l-71.1 -11.2l-1.3 -6.8l-11.5 18.1l-15.8 -7l7.4 -11.3l-34.9 -15.3l-20 -8.4l-65.5 -11.2l-1.5 0.6l-9.5 8.7l-7.5 3l-5 3.2l-3.4 4l-1.7 7.4l-0.1 1.2l0.9 5.6l0.4 10.4l-1.6 4.2l-3.1 5.2l-2.8 0.6l-0.9 2.6l0.1 2.5l-1.5 5.3l0.1 1.9l1.1 2.1l3.6 3.1l2.6 2.7l2.1 5.1l0.3 1.3l0 2.3l-0.7 6.3l-0.7 3l-0.8 1.3l-3.8 4l-0.5 1.1l-0.1 1.7l1.1 10.3l-0.3 1.4l-1.5 3.4l-0.9 4.6l-0.1 5.6l-0.3 1.5l-1.9 10.1l-0.1 3.2l-0.8 5.7l-1.2 8.4l-0.8 1.4l-4.3 4.2l-1.2 3l-0.3 2.7l0.5 7.9l0.2 1.2l0.7 1.1l5.1 3.4l1.9 0.3l4.5 -0.1l1.1 0.7l-0.4 1.4l-2.4 3.4l-2.1 2.1l-0.9 1.3l-3 5.9l-1.3 2.5l-0.7 2l0.9 2.9l3.3 5.4l2.7 2.5l1 1.8l0.2 1.2l-3.3 7.1l-3.3 15.2l-4.1 8.5l-3.3 5.9l-7.4 3.7l-1.8 4.2l-0.1 6.4l1.2 4.4l1.3 2.5l0.3 1.1l-0.4 2.3l-1.7 3.8l-1.5 4.6l0 2.8l1.1 4.6l0.5 4.6l-0.7 1.3l-6.1 6.3l0.5 2.5l3.1 5.1l0.2 1.8l-0.8 1.3l-4.1 4.3z"/></svg>
