<?xml version="1.0" encoding="UTF-8"?><!DOCTYPE svg PUBLIC '-//W3C//DTD SVG 1.1//EN' 'http://www.w3.org/Graphics/SVG/1.1/DTD/svg11.dtd'><svg viewBox="0 0 1000 1766.61" xmlns="http://www.w3.org/2000/svg"><g data-zip="03031"><path d="m486.8 1641.8l0.9 5.5l-0.3 1.4l0.7 4.4l6.6 -0.8l1 -0.1l1.4 6.6l5 1.2l0 1l1.7 6.4l3.7 0.4l1.1 1.7l2.2 1l1 1.9l2.3 -0.8l0.6 1.3l0.8 7l0.6 5.5l0.8 7.3l2.2 -0.3l2.7 -0.4l3.1 -0.4l4.6 -0.6l1.2 0.2l1 -0.5l11 -1.5l2.6 -0.4l0.2 -2.1l-1.3 -10.3l-1.8 -13.4l-0.9 -5.6l-3.3 -19.9l-2.4 -14.5l1 -1.2l-1.2 0.2l-0.3 -1.7l4.1 -0.6l-0.5 -1.4l-0.5 -2.4l-0.4 -2.1l-0.7 -4.3l-1.4 -7.6l-3 -16.8l-15.5 2.3l-16.9 3.2l1.9 8.3l-2.7 0.5l1 6.7l1.8 9.4l-2.2 0.3l1.3 3.3l-1.2 1.8l1.6 7.1l-3.6 0.3l-9.9 2.1l0.9 5.6l-2.4 0.4l0.8 5.5l-1.2 0.2z"/><path d="m471.2 1660.3l-3.3 -0.3l8.2 1.7l1.9 -1l3.2 0.2l3.1 1l0.4 -1.9l-1.6 0.3l-0.2 -1.6l-1.5 -0.4l0.8 -1.3l-4.1 -0.3l-3.6 0.8l-0.4 -1.9l-3.1 2.6l0.1 2.1z"/></g><path data-zip="03036" d="m681.3 1590.2l1.5 0.3l14.2 3.4l32.6 7.7l0.4 1.5l1.3 1.3l-0.1 -2.3l-0.3 -1.9l-0.2 -4.1l-0.6 -8.8l0 -2.6l-0.7 -8.9l-0.2 -3l-0.3 -4.5l7.6 1.2l4.8 0.5l4.4 0.7l7.5 1.1l0.4 -1.2l2.7 -7.6l1.8 -5.1l1.4 -4l-9.3 -2l-5.6 -2l-3.3 -1.2l-10.1 0.4l0.2 -1.2l-26.4 -7.5l1.2 -3.2l2.3 -6.9l-14.7 -4l-1 9l-2.7 14l-1.8 5.8l2.2 0.4l-2.4 9.4l-6.9 25.4z"/><path data-zip="03038" d="m657.8 1588.3l1.6 -0.9l1.5 -0.2l1.1 -1l-1.1 1.6l1.3 -0.2l3.4 25.9l0.7 5.3l0.3 2.9l1.4 14.2l0.6 9.5l-0.5 1.5l-0.2 1.7l1 1.1l0.7 1.4l-0.5 1.4l0.3 4l0.1 1.3l0.2 3.3l20.5 -2.9l11.2 -1.6l5.7 -0.8l11.7 -1.9l0.3 2l12.4 -2l7 -1.1l-0.5 -2.7l-0.1 -1.3l-0.3 -1.2l-0.6 -8.3l0.6 1.1l1.2 -0.3l0.3 1.4l1.5 -2.1l1.1 -3.2l-0.9 -4.1l-1.1 -0.7l-1.6 1.5l0 1l-1.7 1.4l0.1 1.7l-1.2 -3.4l0.4 -1.5l-1.6 -6.1l-0.8 -4.8l-1.6 -9.2l-0.1 -3.5l0 -3.8l-1.3 -1.3l-0.4 -1.5l-32.6 -7.7l-14.2 -3.4l-1.5 -0.3l-1 -0.2l-21.1 -4.9l-0.6 2.2l-0.8 1.1z"/><path data-zip="03042" d="m769.5 1525.8l3.5 0.5l31.7 0.2l6.1 0.1l14 0.1l20.5 0.2l-1.5 -10.1l0.2 -14l0.1 -5.1l0 -1.9l-0.9 -1l0 -5.1l1 -0.7l0.2 -8.1l-33 0.2l-26.7 0.2l-1.2 3.3l-3.8 10.8l-5.5 15.6l-1 2.7l-1.3 3.7l-0.4 1.2l-1.3 3.7l-0.8 3.3z"/><path data-zip="03045" d="m500.7 1501.6l3.5 15.4l-2 0.5l-0.1 3.5l-0.9 2.4l1.9 0.8l1.9 -0.3l1 1.1l8.1 38.3l3.5 1.4l16.7 -2.5l15 -2.3l19.1 -3l4.8 -5.5l-2.1 -0.8l-1.2 -1.1l-3 -0.9l0.8 -2.4l1.1 -0.7l-0.8 -1.4l1.4 -1.4l1.5 -0.8l1.4 0.6l3.3 1l2.3 0.9l-0.7 -3.7l-1.3 -0.2l-1.9 -1.3l-1 -1.1l0.5 -2.3l2.8 -0.2l-2.3 -13.2l-0.2 -1.7l-0.5 -3.1l-2.2 -12.7l-2.4 -13.4l-0.2 -1.1l-3.1 0.5l-64.5 10.5z"/><path data-zip="03048" d="m401.7 1706.1l0.8 1.4l0.4 1.8l1.8 7.2l2 0l-2.1 0.3l6.5 42.5l17.9 0.7l14.4 0.5l24.5 0.7l-5 -35.9l-1.5 -10.5l-1 -6.4l-4.1 0.6l-3.2 0.2l-1.4 -5.2l-1 -4.4l-1.3 -1.2l-1.4 -0.6l-1.9 -2l-3.6 1.1l-1.2 1l-1.5 0.4l-1.9 1.3l-1 -0.2l-0.2 -1.2l0.4 -1.7l-17.4 2.4l-10.7 1.5l-1.2 0.4l-5.7 1l0.5 3.5l-1.1 1z"/><path data-zip="03051" d="m598.9 1693.9l0.9 1.4l0.9 1.2l0.7 1.8l0.3 5.4l-0.4 2.9l0.8 2.3l0.5 1.8l5.1 5.8l1 1.3l0.2 1.7l1.8 4l0.4 2.4l-0.8 3.3l-0.1 1.9l0.6 1.9l0.5 3.6l0.8 1.7l1.6 2.4l0.4 1.9l-1.2 2.6l-0.9 2.3l-0.2 1.3l0.8 7.4l-0.2 1.6l0.5 3.2l2.1 5l24.8 0.8l0.8 -3.9l9.6 -43.7l1.4 -5.9l-0.3 -2.6l1.5 -7.3l-0.5 -3.5l-0.3 -2.1l0.3 -1.4l0 -1.5l0.6 -1.4l1.2 -1.2l-14.5 -18.3l-21.8 -1l1.5 8.9l0.1 1.7l1.1 5.7l-1.1 1.4l-1.5 0.5l-0.7 -1.3l-0.4 1.3l-2.1 0l-3.2 0.4l-12.7 2.3z"/><path data-zip="03053" d="m607.2 1601.9l-1.2 0.2l3.6 22.2l0.3 1.7l4.2 24.5l0.6 3.7l3.2 18.6l21.8 1l14.5 18.3l1.8 -0.3l0.3 -2.2l1.6 0.1l-0.5 -1.3l0.5 -1.3l2.1 -0.8l1.6 -2.3l-0.8 -2.1l1.7 -1.9l0.6 -1.4l-0.9 -1.6l0.2 -1.1l1 -1.3l-2.6 -1.4l1 -2.3l-0.7 -3l0.5 -1.2l0.2 -2.6l-1.6 -1.9l9.2 -1.3l-0.2 -3.3l0.7 -1l-1.1 -4.3l0.5 -1.4l-1.2 -0.8l-0.5 -1.7l0.2 -1.7l1 -0.6l-1.1 -10.4l-1.4 -14.2l-0.3 -2.9l-0.7 -5.3l-3.4 -25.9l-1.3 0.9l1.2 -1.6l-1.2 0.3l-1.1 0l-1.6 1.3l-1.3 0.4l1.7 -1.7l0.6 -2.2l-14.2 -3.3l0.8 5l-1.4 1.1l-1.3 0.2l-2 0.3l-8.9 1.4l-6.8 1l-6.9 1.1l-2.7 0.4l1.1 3.3l-1.9 4.3l-0.2 1.2l-1 0.9l-3.8 0.1l-3.2 0.1z"/><path data-zip="03054" d="m535.6 1620.2l0.3 1.7l1.2 -0.2l-0.1 1.1l1.5 14.6l3.3 19.9l0.9 5.6l1.8 13.4l1.3 10.3l0.3 2.3l0.6 2.7l0.6 5.4l3.1 -5l1 -0.4l-0.2 -1.2l1.3 -1.2l2 -1.3l-0.2 -1l1.7 0.6l0.4 1.4l2.2 0.7l1 0.2l2.6 -0.6l2.3 1.7l1.4 -1.3l3.6 1l1.1 -0.2l2.7 -2.9l1 -0.4l4.6 0.6l1 -0.6l1.2 0.4l0.9 2.2l-0.6 2.1l-0.8 1l1 2.2l2.8 1l2.5 -0.1l1.6 0.3l1.1 0.7l1.8 1.2l1.2 -0.6l2.3 -1.8l0.4 -1.8l-0.6 -1.3l0.4 -1.6l-0.7 -1.6l-1.7 -2.8l0.1 -2.8l-0.2 -3.2l-0.6 -2.6l-2.5 -2.3l-0.4 -1.7l0.4 -1.1l0 -1.8l-0.8 -3.1l-2 -4.3l-0.3 -1.3l1.2 -3.5l0.5 -2.2l0.1 -1.7l-0.2 -1.6l-1.7 -5.7l-0.5 -2.2l0 -1.6l0.8 -2.3l2.4 -2.9l0.7 -1.3l0.1 -1.2l1.6 -2.6l2.7 -3.6l2.3 -2.7l1.8 -1.9l0.1 -1l2.2 -4.9l2.4 -3.3l0.6 -2.4l0.6 -5.8l-26.5 4.5l-1.4 0.2l-8.9 1.5l-11.2 1.9l-8.2 1.3l-5.5 1.1l-1.2 0.2l-1.2 0.2l-4.1 0.6z"/><path data-zip="03055" d="m452.4 1653.7l0.2 1.4l0.8 5.7l0.3 2.1l6.6 45.5l1 6.4l12.4 -1.5l-1.9 -14.5l20.8 -2.7l6 -0.8l0.4 3.6l1.5 12.1l7.9 -2.9l2.4 -6.2l2.6 -0.4l2.5 -1.6l4.2 -2l-0.8 -5.3l-2.2 0.3l-0.8 -7.3l-0.6 -5.5l-0.8 -7l-0.1 -2.2l-2.8 1.7l-1 -1.9l-2.2 -1l-1.1 -1.7l-3.7 -0.4l-1.7 -6.4l0 -1l-5 -1.2l-1.4 -6.6l-1 0.1l-5.8 0.7l-1.3 -3.9l0.1 -1.8l-0.9 -5.5l-2.8 0.4l-4.2 0.6l-6.3 0.9l-1.9 0.3l0.5 2.8l0.5 2.7l-1.9 0.7l-3.3 0.6l-1.5 -0.6l0.2 1.1l-7.2 1.6l-6.4 0.9z"/><path data-zip="03060" d="m581.6 1718.1l0.5 11.6l0.2 1.5l0.7 1.7l1.1 1.7l1.2 1l6.8 4.8l1.3 0.6l2.5 -0.1l2.9 -1.3l2 0l-1.2 0.3l1.8 0.5l1.3 1l0.8 1.3l1.6 4.4l0.5 4.2l0 1.5l-0.7 7l0.1 3.1l0.8 2.6l9.2 0.3l-2.1 -5l-0.5 -3.2l0.2 -1.6l-0.8 -7.4l0.2 -1.3l0.9 -2.3l1.1 -1.7l-0.3 -2.8l-1.6 -2.4l-0.8 -1.7l-0.5 -3.6l-0.6 -1.9l0.1 -1.9l0.8 -3.3l-0.4 -2.4l-1.8 -4l-0.2 -1.7l-1 -1.3l-3.4 0.5l-1.7 -1l-0.8 1l0.9 2.2l-1 0.3l-4.3 -1l-1.2 0.2l-0.8 1.5l-2.5 0.4l-1.6 -2.1l-0.9 1.1l0.5 1.2l-4.4 0.8l-1.6 -2.2l-0.5 -2.8l0.5 -1.7l-1.4 0.4l-1.9 3z"/><path data-zip="03062" d="m554.5 1763.9l1.4 0l13.9 0.4l4.6 0.1l1.4 0l25.2 0.8l4.4 0.1l-0.6 -2.6l-0.1 -3.1l0.7 -7l0 -1.5l-0.5 -4.2l-1.6 -4.4l-0.8 -1.3l-1.3 -1l-1.8 -0.5l1.2 -0.3l-2 0l-2.9 1.3l-2.5 0.1l-1.3 -0.6l-6.8 -4.8l-1.2 -1l-1.1 -1.7l-0.7 -1.7l-0.2 -1.5l-0.5 -11.6l-1.2 2.5l-1.9 2l-1.1 0l-1.6 2.2l-0.4 2.8l-2 1.4l-1.5 2.1l-3.8 1l-2.4 3.4l-3.1 0.9l-1.2 0.6l-1.7 2.4l-0.3 2.3l-0.4 3.9l-1.2 0.7l-0.4 2.5l-0.3 4.1l-0.7 3.8l-0.5 2.4l-0.4 1.6l-1.3 3.1z"/><path data-zip="03063" d="m545.7 1698.2l-1.3 1.5l1.3 1l0.6 1.3l2 -0.7l0.8 1l1.3 0.7l1.4 -0.2l0.3 1.8l-2.7 4l7.5 -1.1l3.8 -1.3l1.1 3.1l1.2 0l1.3 3.4l-0.8 13.4l0 2.8l-0.3 1.6l-0.9 5.8l3.4 -0.6l2.4 -3.4l3.8 -1l1.5 -2.1l1.6 -0.7l0.8 -3.5l1.6 -2.2l1.1 0l1.9 -2l1.2 -2.5l0 -3.7l0.3 -3.6l0 -1.6l-3.3 -21.3l-4.6 -0.6l-1 0.4l-2.5 2l-1.3 1.1l-3.6 -1l-1.4 1.3l-1.6 -0.8l-3.3 -0.3l-1 -0.2l-1.4 -1l-1.2 -1.1l-1.7 -0.6l0.2 1l-1.1 2l-2.2 0.5l0.2 1.2l-1 0.4l-3.1 5l-1.6 1.1z"/><path data-zip="03064" d="m579.6 1687.3l-1 0.6l3.2 20.7l0.1 2.2l-0.3 3.6l0 3.7l1.9 -3l1.4 -0.4l0.2 1l-0.2 3.5l1.6 2.2l3.9 -0.1l0 -1.9l0.9 -1.1l1.6 2.1l2.5 -0.4l0.8 -1.5l1.2 -0.2l4.3 1l1 -0.3l-0.9 -2.2l0.8 -1l1.7 1l3.4 -0.5l-5.1 -5.8l-0.7 -1l-0.6 -3.1l0.4 -2.9l-0.3 -5.4l-0.7 -1.8l-0.9 -1.2l-1.7 -1.2l-2.8 -3.1l-0.7 1.9l0.6 1.3l-0.4 1.8l-2.3 1.8l-1.2 0.6l-1.5 -0.3l-1.4 -1.6l-1.6 -0.3l-2.5 0.1l-2 -0.4l-1.8 -2.8l0.8 -1l0.6 -2.1l-0.8 -1.3l-1.3 -1.3z"/><path data-zip="03071" d="m335.1 1700l1 5.2l0 2.1l0.8 1.9l6.6 47.5l16.5 0.6l51 1.9l-6.5 -42.5l2.1 0l-1.2 -0.7l-1.9 -6l-1.1 -2.6l-0.8 -1.4l1.1 -1l-0.5 -3.5l-43.3 -1.2l-23.9 -0.4z"/><path data-zip="03077" d="m706.2 1537.1l-1.2 3.2l26.4 7.5l-0.2 1.2l10.1 -0.4l3.3 1.2l5.6 2l9.3 2l2.4 -7l1.5 -4.7l0.5 -1.2l2.1 -5.9l2.8 -1.9l2.4 -0.7l-2.1 -0.3l-1.8 0.3l0 -1.6l1.6 -3.6l0.4 -1l1 -3.8l1.3 -3.7l0.4 -1.2l1.3 -3.7l1 -2.7l5.5 -15.6l3.8 -10.8l-1.5 -0.4l-2.1 -2l-0.9 1.4l-4.1 4.4l-0.5 4.4l0.1 1.7l-13.7 -3.3l-1.1 0l-24.8 -6.2l-9.6 -2.4l-4.7 13.1l-12.2 34.8l-2.3 6.9z"/><path data-zip="03086" d="m398.7 1642.9l2.4 14.5l0.4 3.5l2 12.2l0.2 1.1l4.3 26.5l1.2 -0.4l10.7 -1.5l17.4 -2.4l-0.4 1.7l0.2 1.2l1 0.2l1.9 -1.3l1.5 -0.4l1.2 -1l3.6 -1.1l1.9 2l1.4 0.6l1.3 1.2l1 4.4l1.4 5.2l3.2 -0.2l4.1 -0.6l-6.6 -45.5l-0.3 -2.1l-0.8 -5.7l-0.2 -1.4l-2.8 -18.2l-43.3 6.3l-1.2 -0.1l-2.7 0.7l-3.8 0.6z"/><path data-zip="03101" d="m592.4 1541.3l0.4 1.6l1.9 1.6l0 1.9l-0.5 5.6l1 2.7l0 1.8l-1.8 4.9l1.7 0.7l3.5 -0.4l0.3 -2l-0.8 -4.1l0.6 -2.5l1.5 -0.3l0 -3.9l-0.3 -4.7l-2.1 -0.3l-0.7 -4.4l-2.5 -0.3l-1.4 0.7l-0.8 1z"/><path data-zip="03102" d="m567.6 1546.1l-0.8 2.4l2.2 0.1l1.9 1l2.2 1.7l-4.8 5.5l11.3 -1.7l1.4 -0.1l2 13.8l3.7 -0.6l2.5 -0.1l2.1 -1l0.5 -1.9l1.7 -3.7l1.8 -4.9l0 -1.8l-1 -2.7l0.5 -5.6l0 -1.9l-1.9 -1.6l-0.4 -1.6l0.8 -1l1.4 -0.7l-2.2 -5l-0.8 -3.4l-2.7 -6.7l-0.1 -1.1l0.4 -1.9l2.9 -4.9l-0.8 -2.3l-2.3 -1.4l-1.9 -1.8l-1.6 -4.9l-1.5 -2.6l-13 1.6l2.2 12.7l0.5 3.1l0.6 1.5l1.9 13.4l-2.8 0.2l-0.5 2.3l1 1.1l1.9 1.3l1.3 0.2l0.7 3.7l-2.3 -0.9l-2.5 -1.8l-2.2 0.2l-1.3 0l-1.6 2.2l0.8 1.4l-1.1 0.7z"/><path data-zip="03103" d="m591.7 1565.1l-0.5 1.9l1.6 5.9l0.4 2.1l0.7 1.4l1.6 1.4l2 1.1l1 0.9l1.2 1.8l0.2 1.9l0.7 3.3l1.3 3.1l0.8 4.1l0.8 2.1l-0.4 6l0.5 3l0.3 3.3l-0.6 5.8l6.3 9.9l-3.6 -22.2l1.2 -0.2l3.2 -0.1l3.8 -0.1l1 -0.9l-0.7 -1.1l2.8 -4.4l-1.1 -3.3l2.7 -0.4l6.5 -1l-2 -2.3l0.5 -1.5l-1.6 -1.1l-0.1 -2.6l-0.4 -1.4l0.1 -1.1l0.7 -1.4l1.3 -0.1l-0.2 -5.2l-0.6 -1.9l-1.9 -1.6l-0.8 -2.7l-2.5 -5.2l-1.9 -3.6l-1 -3.1l-1.3 0.4l1.1 -1l-0.5 -3.6l-0.1 -1l-2.1 -0.7l-5 -0.4l-3.1 -0.2l-4 0l0 3.9l-1.5 0.3l0 1.7l-0.6 4.8l0 1.3l-3 1.2l-1.7 -0.7l-1.7 3.7z"/><path data-zip="03104" d="m588.8 1523.2l0.1 1.1l2.7 6.7l0.8 3.4l2.2 5l2.5 0.3l0.7 4.4l2.1 0.3l0.3 4.7l4 0l3.1 -0.3l5 0.9l2.1 0.7l0.1 1l2.1 -0.3l4.6 0.5l2.5 -0.2l0.5 2.9l0.1 -2l2.1 -0.6l2.2 -1.1l2.2 -4.2l1.2 -1.6l-2.9 -2.5l2.1 0.2l1.5 1.3l1.4 -2.2l0.4 -1.5l-0.4 -1.4l2.1 -0.8l1.1 -1.6l-0.1 -1.1l-0.7 -1.6l-1.8 -6.3l0.8 7.6l-20.5 -5.3l-1.9 -0.8l-1.9 -0.2l-5.5 -1.4l-0.1 -1.7l-2.4 -15.5l-1.4 0.5l-1.1 0.7l-7.4 4.1l-0.8 1.2l-2.9 4.9l-0.4 1.9z"/><path data-zip="03106" d="m568.4 1490.6l0.2 1.1l2.4 13.4l13 -1.6l1.5 2.6l1.6 4.9l1.9 1.8l2.3 1.4l0.9 1.7l7.4 -4.3l1.8 -1.1l1.3 -1.2l2.5 16.2l0.1 1.7l5.5 1.4l1.9 0.2l1.9 0.8l20.5 5.3l-0.8 -7.6l-0.4 -3.9l-2.1 -8.9l-1.1 -3.1l2.9 1.1l2.6 1l1.4 -2l0.5 -2l2 -4l7 -16.5l3.7 -7.7l1 -3.6l4.2 -10.3l0.8 -1.7l-15.9 -4l-12.6 -3.4l-4.6 -1.4l-5.3 -1.6l-1.5 -0.4l0.2 1.2l-7.1 -1.7l-8.1 -2l-2 1l-2.2 0.6l-1 0.1l-0.2 -4.5l-1.3 2.7l-3.7 5.1l-1 1.4l-2.3 3.1l-14.4 19.7l-1.9 2.3l-0.8 1.3l0.8 4.7l-3.5 0.6z"/><path data-zip="03109" d="m613.8 1555.5l1.3 0.2l1 3.1l1.9 3.6l2.5 5.2l0.8 2.7l1.9 1.6l0.6 1.9l0.2 5.2l-1.3 0.1l-0.7 1.4l-1 0.4l1.3 2.1l0.1 2.6l1.6 1.1l-0.5 1.5l1.6 1.5l7.6 -0.3l8.9 -1.4l2 -0.3l1.3 -0.2l1.5 -0.2l-0.9 -5.9l-1 -6.2l-1.3 -7.9l-4.7 -25.7l-0.5 -2.5l-0.5 -3l-1.5 0.8l-1.7 1.6l0.4 1.4l-0.4 1.5l-1.4 2.2l-1.5 -1.3l-2.1 -0.2l2.9 2.5l-1.2 1.6l-2.2 4.2l-2.2 1.1l-2.1 0.6l-0.1 2l-0.5 -2.9l-2.5 0.2l-4.6 -0.5l-2.1 0.3l0.5 3.6l-1.1 0.4z"/><path data-zip="03217" d="m481 982.7l0 2.4l2.2 2.6l1.7 0.7l1.1 1.2l0.4 2.3l1.3 1.1l1 0.3l1.1 1.1l0 1.8l0.9 1.5l-0.3 1.7l0.1 2.2l1.2 1.8l1.7 3.7l0.2 1.1l-0.1 2.1l-1.3 3.7l1.2 2.6l3.1 3.7l1.2 3.6l-0.7 3.9l1.4 -1.4l12.6 -1.5l1.6 -0.2l1.8 0.2l18.9 -2.7l-1.8 -10.3l-12.2 -12.9l-11 -11.2l-7.9 -8.8l-7 0.5l-2.3 0.2l-3 0.3l-6.8 0.5l-0.1 2.3z"/><path data-zip="03220" d="m552.3 1202.6l1.3 1.6l1.9 1.7l28.6 20.5l0.5 5l1.4 4.7l2.5 -0.8l5.1 -1.7l4 -1.7l2.3 -1.8l5.7 -7.5l4 -6l0.9 -2.5l3.4 -5l2.1 -1.9l1.2 -2l5.4 -8.3l2.1 -2.4l2.3 -3.1l2.2 -2.4l3.6 -4.5l-0.2 -1l2.5 -3.2l-6.1 -4.4l-1.2 -0.4l-19.8 -14.8l-1.6 2.8l-1.5 0.7l0.4 1l-1.6 0.4l-4.4 -3.1l-2 -2l-1.9 -1.4l-5.8 -4.2l-2.6 -1.9l-1.9 -5.1l-1.1 -1.3l-2.7 -2l-3.2 -1.1l0.3 1.6l-0.1 2.8l-0.3 1.1l-3 4.9l-1.5 2.9l-0.9 2.6l0.8 2.7l0.1 1.3l-0.8 2.1l-0.7 2.3l-1.4 2l-1.1 0.5l-1.2 1l-1.1 0.4l-0.3 1.2l1.3 2l0.1 1.4l-1.4 4.5l-1.3 1.4l-2.2 0.1l-1.9 -1.1l-1.9 -1.2l-1.2 0.9l1.4 5.6l0.9 1.4l-0.2 2.8l-1.2 2.7l-2.4 3.5l0.2 2l-2.4 1.4l-1.8 2.3z"/><g data-zip="03221"><path d="m339.2 1308.5l0.5 4.9l2.3 -2.1l0.2 -1.6l-1.1 -4.2l-0.3 -1.3l-1.5 4.2z"/><path d="m337 1267.7l0.4 1.4l2.2 1.6l0.4 -1.3l-1.3 -1l-1.7 -0.7z"/><path d="m329.6 1311.8l0.5 2.8l2.6 3.1l1 3.2l-1.7 1.9l-0.6 1.2l2.1 0.8l0 -3l2.2 -2l2 -2.7l-2.1 -2.3l-5.4 -2.8z"/><path d="m302.2 1266.5l1.5 3.6l0.8 1.1l0.3 1.5l12 28.3l-0.1 1l1.6 1.1l1.1 0l3.9 1.4l1.7 1.3l4.2 -1.1l0.5 -2.2l2 -2.7l-0.1 -2.6l1.5 -3l3.1 -2.7l3.2 -3.1l0.3 -2.1l0.8 -1.4l-1.4 -1.9l-0.7 -1.7l-2 -1.2l-1.7 0l-1 0.4l0.1 3.8l-0.8 2.5l-1.6 1.8l-0.3 2.8l-0.3 -2l0.2 -2.9l-0.6 -1.1l0.4 -1.8l1 -3.9l-0.7 -2.5l-1.2 -2.2l-4 -4.9l-1.2 -2.8l0 -1.6l-7.7 0.9l-1.9 -0.6l-3.4 0.8l-6.5 0.4l-2.7 -0.8z"/><path d="m268.9 1351.1l11 0.2l2 24l17.8 26.1l5.2 -1.7l47.2 -12.8l22.6 -6.1l12 -3.1l0.9 -4.3l-0.5 -2.5l-0.9 -2l-1 -2.7l-0.7 -1.2l-3.8 -0.2l-2.3 -0.5l-3.1 -2.5l-2.1 -2.3l-1.9 -1.3l-2.1 -0.8l-0.6 2.7l-1.6 1.2l-0.2 1.7l-1.4 0.4l-1.8 -1.4l-1 0l-2 -1l-1.1 -0.3l-9.7 -21.8l0 -2.4l-3.1 -5l-0.8 -1.7l-1.3 0.5l-13 3l0.5 -2.6l-2.1 1.7l0.5 1.2l-2.5 0.6l-4.3 1.3l0.2 1.7l-2.7 -1.1l-8 2.3l-44.6 12.6z"/></g><path data-zip="03222" d="m353.5 1051.1l3.1 1.6l-2.7 5.2l3 1.7l-2.5 4.9l5.6 3l-2.8 5l6.2 3.3l-4.1 11.3l19.4 5.8l8.4 -9.9l17.1 50.6l0.9 -1.8l-1 -1.1l1.6 -2.1l1 -0.2l1.3 0.5l1.4 -1.7l2.3 0l1.1 -1l0.3 -1.6l1.9 -2.3l2.7 0.7l2 -0.5l1.7 -1.7l2.4 0.5l1 1.2l1.7 4.9l9 -11.5l1.2 0.4l1.8 1.3l3.2 -1.6l1.7 0.8l0.8 1l0.7 -1.8l1 -0.7l3.3 -0.5l1 1.2l1.8 -0.1l1.1 1.7l-1.1 0.6l1.5 0.9l1.3 -1l0.6 -1.8l-0.5 -1.3l0.2 -1.3l1.8 -1.4l1.6 -0.9l1.6 -3.2l-1.5 -2.1l-1 -1.6l-2.4 -2.2l-2.5 -0.6l-1.3 -1.5l-0.1 -1.2l0.6 -1.9l1.4 -1.7l1.7 -0.7l1.3 0.4l1.6 0l1.7 -2.6l1.6 -1.3l1.9 -0.5l1.4 0l0.8 1.3l0.7 2.6l3.5 1.2l5.8 -0.5l1 -0.5l2.7 -2l5.9 -4.9l2.7 0.1l1.5 -1.5l-0.2 -1.2l-1.2 -2.4l0.1 -1.8l1.8 -1.8l1.8 -1.2l1.2 -0.3l2.7 -2.1l-0.8 -2.2l-1 -3.6l-1.2 -1.3l0.3 -1.1l1 -1.6l-1.2 1.4l-2.3 0.4l-0.1 -1.2l2.4 -4.7l1 -2.7l-0.9 -1.6l-0.2 -1.8l0.9 -2.1l-0.1 -2.1l-1.1 -0.5l-0.7 -1.1l-1 -0.1l-4.5 -2l-0.2 -2.2l-1.6 -3.3l-2.3 -2.5l-1.4 -1l-3 -5l-0.8 -2.9l-1.8 1.7l-1.6 0.3l-2.2 1.6l0.5 1.8l-3.7 2.2l-1.4 1.9l-0.7 2.3l-1.1 2.4l-1.2 1.7l-1.5 1l-2.8 -0.3l-0.2 -1.6l0.8 -3.2l0.6 -3.6l0.3 -3.1l2 -3.1l0.5 -2.6l1.2 -1.3l0 -2.8l-0.3 -1.4l0.3 -2.3l1 0.1l1.7 -0.5l0.5 -3.5l-1.3 -1l-1 0.6l-14.9 8.7l-31.2 18.2l0.1 -1l-1 1.5l-1.6 1l-0.4 1.1l-2.2 2.2l-15.5 -8.6l-13.9 -8.7l4.2 -6.4l1 -0.7l-22.3 -6.7l-0.9 4.4l-0.3 1.9l-3.4 4.6l-6.6 12.9l1.1 0.6l-3.6 7.9z"/><path data-zip="03227" d="m542.7 869.6l2.2 13.7l9.2 59.9l3.2 -0.3l3.1 24l63.4 -8l1.3 -0.1l46.6 -5.4l-5.6 -31.4l-5 2.9l-0.6 1.2l-2.2 1.4l-0.4 1.9l-1.6 -0.8l-1.4 -1.5l-1.1 0.2l-0.4 -1.8l-2 2.7l-1.6 0.3l0.5 -2.8l1.1 -2.1l-4.7 -0.5l-2.8 -0.9l-4 0.2l-1.3 0.4l-2.4 -1.8l-4.4 -1.9l-1.5 -1.2l-3.8 1.2l-1.2 -0.9l-0.2 -1.2l-1.5 -2.1l2.6 -0.8l1 -4l-1.4 -0.6l-1.5 -2.2l-4.5 0.6l-0.5 -2.7l-0.3 -4.1l-4.8 0.4l-0.8 -1l-2.3 -1.4l5.1 -22.7l-2.8 -0.7l-3 -0.6l-2 0.7l-0.9 1l-1.5 0.1l-2.5 0.5l-2 -2.4l-1.4 -2.9l0 -1.2l0.5 -2l-0.2 -1.1l0.6 -3.2l-1.2 -1.8l1.7 -2.3l-58.6 8.9z"/><path data-zip="03229" d="m420.6 1368.5l15 33.8l1 2.5l13.8 32.9l35 -9.4l22.5 -6.1l7.2 -1.9l3.8 -1l2.7 -0.7l-19.5 -38.2l-0.8 -2.7l-2.4 -3.7l-4.5 -8.8l-5 -10.7l-3.4 -7.2l-28.8 14.1l-1.5 0.3l-1.3 -2.4l-33.9 9.2z"/><path data-zip="03235" d="m450.2 1164.5l2.9 2.7l4.9 5.6l1.6 3.2l4.3 11.3l1.2 -0.7l1.4 5.2l4.5 16.5l-1.3 1.5l-3.8 1.4l-10.6 5.1l-3.6 1.6l0.7 2.8l2.2 2l1.3 1.7l1.4 1.3l1.1 0.3l1.4 1l3.2 -1.1l1.4 1l1.3 1.6l1.7 1.2l1.4 2.1l-0.5 7l2.4 -1.2l2.5 -0.8l0.9 9.1l1.9 3.8l2.5 1l5.8 2.9l0.7 5.2l11 -4.9l2.2 -2l0.9 -1.6l0.1 -1.8l1.3 -4.4l-0.7 -2l0.6 -2.9l0 -1.3l8.7 -0.8l-2.3 -17.1l4.9 -0.7l-0.3 -1.8l-1.1 -3.3l-1.7 0.6l-1 -5.1l1.5 -0.7l1.5 0.5l1.6 -0.5l-0.8 -2.4l-3.7 -8.7l1.7 -0.7l-2.1 -6.7l2.2 -0.9l-0.4 -1.1l0.2 -1.1l-1.3 -4.2l-1.3 0.5l-4.4 -10.8l-2.9 1.1l-5.4 2.1l-0.2 -3l-4.5 -3.2l-2 -0.6l-2.1 -0.3l-1.8 -2l-1.8 -0.5l-1.5 -2.1l-0.8 -2.5l-2.2 -3.1l-2.4 -2l-0.5 -1.2l-0.8 -2.7l-6.1 3.1l-1.8 0.7l-6.5 3.1l-1.6 0.9l-7.6 3.6z"/><path data-zip="03242" d="m352.1 1387.1l17 37.3l2.9 6.3l11.4 25.4l25.1 -6.8l7.7 -2.5l34.4 -9l-13.8 -32.9l-1 -2.5l-15 -33.8l-5.2 1.4l-11.3 3.6l-8.2 1.7l-3.7 1.3l-5.5 1.4l-11.3 3.1l-23.3 6.1z"/><path data-zip="03244" d="m280.9 1480.8l24 -5.1l31.7 -7.7l1.3 -1.9l2.3 -2.6l-4.7 -5.1l1.1 0.4l1.7 -0.6l3.7 1l0.8 1.3l2.5 -2.6l0.8 7.7l7.7 -1.8l0.6 2.3l-1.9 0.6l-0.5 1.7l0.5 1.5l-1.5 0.8l1.3 2l-0.8 2.9l0.4 2.5l-1.2 0.3l0.5 1.6l1.1 0.5l-1.3 1.5l0 4.1l0.7 1.2l2.2 1l-0.8 1.7l-0.6 1.2l0.4 1.6l1.6 1.4l-0.1 2.5l-1.4 1.5l1 2.6l0 1.2l-1.2 1.5l2.1 2.9l4.9 3.7l0.2 1.9l6.5 -0.2l0.9 5.8l2.9 0.3l51.1 -4.8l-13.2 -64.1l-25.1 6.8l-11.4 -25.4l-2.9 -6.3l-17 -37.3l-47.2 12.8l-5.2 1.7l-15.2 4.1l7.3 16.8l-8 23.5l2.2 0l-5.1 35z"/><g data-zip="03246"><path d="m564.3 1110.4l0.5 -1.2l-0.4 1.2z"/><path d="m559.1 1093.3l-1 5.6l2.2 9l0.5 -2.9l1.1 1.1l3.6 2.5l1 1l3 7.5l1.9 4.1l0.7 2.6l0.4 2.8l-0.3 5.1l0.4 2.2l0.8 2.3l2.2 3.1l2.1 4l3.2 1.1l2.7 2l1.1 1.3l1.7 4.7l2.8 2.3l5.8 4.2l1.9 1.4l1.1 1.4l5.3 3.7l0.9 -1l1.4 -1.5l2.4 -8.9l0.6 -1.7l-3.9 -1.3l-0.1 -5l0.7 -3.1l0.5 -2.4l-5 -1.2l1.3 -4.9l3.2 -12l0.7 -3.2l1.5 -1.4l-1.2 -0.3l0.3 -2.1l2.5 0.2l2.9 0.3l1.7 -5.3l2.8 -15.8l0.1 -1.6l1.3 -2.8l-4 -4.8l-9.6 -8.1l-4.7 -4l-2.1 -2.2l-2.2 -2.7l-1.1 -0.2l-2.6 1.9l-4.3 2.9l-1 1.1l-5.7 4.1l-4.2 4.6l-2.2 3l-1.8 2l-3.2 1.6l-1.8 0.9l-1 1.6l-0.3 -2.2l-1.4 1l-2.5 1.1l-3.1 0.8z"/></g><path data-zip="03251" d="m429.1 734.1l12.2 6.2l59.6 30.3l5.1 2.6l2 -6.4l7.8 24.3l1.7 -0.9l2.6 0.3l1.8 -0.9l1.9 0.4l2.5 -0.1l1.1 0.8l1.8 0.5l2.5 1.9l3.2 1.4l1.2 1.2l1 0.4l2.4 3l1 0.6l3.2 1.2l1.7 0.3l3.6 1.6l17.6 -3.6l11.5 -2.4l0 2.7l55 -10.2l-3.7 -1.3l-3.8 -0.9l-2.3 -1.2l-3.8 -1.7l-2 -2.7l0.4 -3.4l-0.7 -1.4l-2.5 -1.2l-2.3 -2.6l-1.9 -1.2l-4.7 1.6l-1.1 1.8l-1.3 0.7l-2.1 0.4l-1.8 -0.1l-1.3 -1.1l-0.5 -1.6l-1.2 -1.3l-1 -0.5l-3.7 -0.5l-1.4 0.4l-2.8 0.3l-1.6 1.1l-2.7 -0.1l-1.3 -3l0.6 -1.7l-0.6 -2l1.3 -1.3l1.5 -1.9l1 -3.3l1.3 -1.9l-0.8 -2.6l0.1 -1.8l-2.1 -1.8l-1.4 -0.9l0 -3.8l1 -4.2l2.3 -3.9l-1.1 -1.5l-0.8 -1.8l0.4 -1.6l1.9 -3.3l2.7 -0.6l1.6 -1.1l2 0.1l1 -0.3l-0.3 -2.2l2.1 -0.9l2.6 -0.1l1.4 -0.9l1.5 -0.5l3.4 -2.5l1.7 -3l1.5 -1.3l1.5 -4.4l2 -1.4l2.5 -0.7l1.6 -1.4l3.3 -0.4l3.6 -0.6l0.8 -1.6l0.4 -2l-0.3 -1.3l2.1 -0.2l1.6 0.9l1.7 0.3l2.1 -1.3l1 -1.1l-0.3 -3.3l-0.1 -1.8l-1 -1l0.4 -2.5l1 -2.3l-0.8 -1.6l-3.4 -1.8l-1.7 -2.8l-2.7 -3.8l-0.9 -2l-2.1 -2.2l-1.2 -0.6l-1.2 -1.5l-0.3 -1.2l0 -1.3l2.4 -3.3l-2.7 -2.5l1 -1.9l0.4 -1.3l1.2 -1.7l-0.3 -2l-62 -20.9l-24 65.1l-22.8 -10.1l-56.9 -25.3l-24.7 66.3z"/><path data-zip="03253" d="m509.5 1104.6l-0.2 2.5l0.3 1.2l1.6 0l11 3.5l1.2 0.8l3.9 0.9l24.3 7.5l9.2 2.9l11.5 3.1l-0.4 -2.8l-0.7 -2.6l-1.9 -4.1l-3 -7.5l-1 -1l-3.6 -2.5l-1.1 -1.1l-0.5 2.9l-2.2 -9l1 -5.6l3.1 -0.8l2.5 -1.1l1.4 -1l0.3 2.2l1.4 -0.9l1.4 -1.6l3.2 -1.6l1.8 -2l2.2 -3l4.2 -4.6l5.7 -4.1l1 -1.1l4.3 -2.9l2.6 -1.9l1.1 0.2l2.2 2.7l2.1 2.2l4.7 4l2.9 -2.4l1.5 -0.5l1.3 0.1l4.3 1.6l1.8 0.1l2.5 -0.7l1.2 0.1l3.1 1l1.6 -0.1l1.4 -0.8l1.6 -2.2l1 -2.4l1.3 -1.4l3.5 -1l1.7 -0.8l1 0.1l1.6 4l1.5 1.6l1.1 0.1l1.8 -0.6l0.4 -1.1l0.2 -3.4l0.4 -1.9l-0.1 -1.2l-0.8 -1.6l0.3 -2.2l2.5 -1.1l2.8 -0.3l1.4 0.1l2 0.6l1.7 1.1l1.5 1.6l2.2 3.5l1.3 1.4l1.6 0.9l3.7 -0.9l-41.1 -39.4l-1.6 0.4l0 -1l-1.1 0.2l-0.2 -1.3l0 -1l-4.9 -4.7l-1.3 0.2l-0.4 -1.1l-0.5 -1l-1 -1.1l-8 5.8l-1.2 -1.3l-2.3 2.2l-3.2 -3.1l-3.1 -2.7l-1.4 2l-3.9 -3.7l-9.8 9.3l-3.6 2.9l-4.4 4.3l-5.2 5.1l-5 4.9l-1.7 1.2l-1.1 0.3l0.2 1l-5.1 5.2l-5.8 6l0 1.4l-1.3 1.3l-0.5 2.3l-1.8 -1.3l-13.6 14l6.5 1.2l-1.9 1.4l-0.9 1.8l0.2 3.2l-1.7 -1.3l-0.2 -1.1l-1.7 -1.2l-1.6 -2.4l1 -0.2l-1.7 0.3l-2.5 2.8l-10.3 10.2l0.1 2.7l0.5 1.3l-2.5 -0.2l-1.5 0.2l0.9 2.4l-0.2 2.1l-2.1 5.1z"/><path data-zip="03254" d="m560.3 966.8l11.7 12l3.2 3.6l0.2 1.4l1.2 0l1.7 1.8l0.2 1.4l3.9 3.8l3.4 3.4l2.2 1l9.7 11.3l13.3 12.3l0.8 1.3l1.7 1.2l0.6 1l4.9 4.7l0 1l0.2 1.3l1.1 -0.2l0 1l1.1 -0.4l40.7 38.6l1 1l1.9 1.8l1.4 -0.7l2.7 0.4l1.1 -0.5l0.8 -2.1l-0.5 -2.6l-1.5 -3.3l-0.2 -1.8l0.7 -1.4l1.5 -1.3l3.1 -1.7l0.5 -2l-1.5 -2.1l0.2 -1l1.1 -0.3l2 0.1l2 -1.8l1 -0.4l3.3 -0.3l1.7 -0.6l1.9 -1.9l0.6 -1.1l0.4 -2.4l-1.5 -6.5l-0.6 -1.7l-0.8 -1.5l-1.5 -1.6l-2.6 -1.4l-1.7 0l-2.7 0.5l-1.8 -0.6l-1.8 -1.6l-1.4 -2.4l1.4 -3.1l13.6 -18.1l3.3 -4.5l13.6 -17.9l2.8 -4.4l11.5 -15.4l-2.6 -0.8l-3 -0.1l-13.3 -2.5l-26.4 -6l-47 5.4l-1.3 0.1l-63.4 8z"/><path data-zip="03255" d="m261.7 1288.4l-6.3 12.1l13.5 50.7l44.1 -12.2l8.5 -2.7l2.7 1.1l-0.2 -1.7l4.3 -1.3l2.5 -0.6l-0.5 -1.2l-7.2 -17l-0.3 -1l6.8 -2.8l5.1 2.9l0.1 -2.5l-2.4 -6.5l-3.2 -0.4l-3.3 0.8l-2.5 -1.4l-3.9 -1.4l-1.1 0l-1.6 -1.1l0.1 -1l-12 -28.3l-0.3 -1.5l-0.8 -1.1l-1.5 -3.6l-2.5 -5.3l-2.9 -6.6l-19.4 2.4l-0.8 2.8l-15 28.5z"/><path data-zip="03256" d="m451.3 1098.9l0.1 1.2l1.3 1.5l2.5 0.6l2.4 2.2l1 1.6l1.3 1.4l-0.8 3.2l-2.2 1.6l-1.8 1.4l-0.2 1.3l0.5 1.3l-0.6 1.8l-1.3 1l-0.5 1.4l0.4 1.7l1.5 2.6l1.9 1.7l1.9 1.1l2.3 1l2.1 4.6l0.2 2.2l1.1 2.1l1.1 1l12.2 -11.7l2.1 -2.1l20.2 -19.5l9.8 3.3l-0.3 -1.2l0.2 -2.5l2.1 -5.1l0.2 -2.1l-0.9 -2.4l1.5 -0.2l2.5 0.2l-0.5 -1.3l-0.1 -2.7l10.3 -10.2l2.5 -2.8l1.4 -1.1l-0.7 1l0.7 1.5l1 0.2l1.6 1.9l0.2 1.1l1.7 1.3l-0.2 -3.2l0.9 -1.8l1.9 -1.4l-6.5 -1.2l13.6 -14l1.8 1.3l0.5 -2.3l1.3 -1.3l0 -1.4l5.8 -6l4.5 -4.3l0.4 -1.9l1.1 -0.3l1.1 -1.8l5.6 -4.3l-0.7 -1.5l-1.9 -0.4l-1.5 1.1l-2.4 1.1l-1.8 1l-1.5 -0.1l-1.8 1l-3.6 -0.9l-2.8 -0.2l-2 -2.3l-2.2 -1.9l-0.9 -1.6l-1.5 -1.1l0.1 -3.3l-0.6 -2.6l-2.5 -0.8l-4.1 -5.4l-18.9 2.7l-1.8 -0.2l-1.6 0.2l-12.6 1.5l-1 1.3l-1.6 2l-0.4 1.3l1.3 5.3l0 1.1l-1 3.8l-0.9 1.9l-1.2 1.2l-0.4 1l0.4 2.4l0.2 3.4l0.7 3.4l1.2 3.1l-0.4 1.5l-1.2 1.4l0.8 3.4l-1.3 2.2l-1 1.6l-0.3 1.1l1.2 1.3l1 3.6l0.9 1.4l-2.8 2.9l-1.2 0.3l-1.8 1.2l-1.8 1.8l-0.1 1.8l1.2 2.4l0.2 1.2l-0.6 1.3l-2.9 -0.1l-6.6 5.1l-2.7 2l-1 0.5l-5.8 0.5l-2.8 -0.3l-1.4 -3.5l-0.8 -1.3l-1.4 0l-1.9 0.5l-1.6 1.3l-1.7 2.6l-1.6 0l-1.3 -0.4l-1.7 0.7l-1.4 1.7l-0.6 1.9z"/><path data-zip="03257" d="m272.9 1224.7l5.8 8.3l0.3 1l-1.1 18.9l-0.5 4.1l19.4 -2.4l20.1 -4.9l3.1 1.7l2.1 1.8l2.7 1.8l3 2.2l1.3 0.7l6.1 2.7l-0.8 -4.9l-0.8 -3.1l-0.9 -1l-0.7 -1.8l-1.5 -2.3l-0.5 -1.3l6.6 -1.4l18.9 -4.8l-15.4 -9.4l0.9 -1.5l-6.8 2.1l-1.8 1.5l0.8 -1.9l1.2 -0.8l-1.7 -1l-3 -3l-1.9 -0.7l1.3 0.2l2.3 1.7l1 1.4l1.1 0.7l1.7 -0.8l1.5 -0.7l1.3 -0.5l1.4 0.8l-1.1 -1.1l1.4 -0.7l1.1 -2.5l1.1 -0.5l1.9 -3.6l1.4 -0.3l1.4 -0.8l-4.8 -1.5l-0.1 -1.7l0.3 -2.3l-4.7 -1.8l-9.4 -4.4l-4 -3.7l-3.5 -3.7l-10.2 -6.1l-5.3 6l-6.3 15.2l-23.2 -3.2l-2.1 12.4l-0.2 1z"/><path data-zip="03262" d="m402.8 798.4l-0.8 2.5l17.5 2.5l-6.2 22.3l29.7 12.2l1 -0.1l1.4 1.1l5.9 2.4l19.6 8.2l4.4 -11.4l-0.3 -1.4l0.6 -4.3l0.1 -2.8l0.3 -1.1l3.5 -8.4l-1.8 -2.5l-1.3 -2.3l-0.2 -1.4l1 -5.3l1.7 -2.3l1.4 -1.6l-1 -3.3l1.1 -1.9l-0.2 -1.3l0.8 -2.3l2 -0.7l0.5 -3.1l-0.2 2.5l-1 2.4l2.3 -1.2l1.5 8l-2.5 5.3l1.8 2.6l15.3 -41l-59.3 -30.1l-12.5 -6.4l-10.4 -5.3l-14.2 59.4l0.1 4.9l-1.3 5z"/><path data-zip="03263" d="m643.4 1306.9l9.6 8.2l6.3 3.4l2.8 2.1l5.8 4.8l0.3 1l-2.1 2.3l-1.7 0.3l-0.2 2.8l-0.9 1.6l-2.5 0.1l-1 1.6l-2.3 1.6l-1.3 1.4l-1.9 3.4l52.7 12.4l1.2 -0.1l3.9 -8.5l3.9 -9.4l4.5 -4.8l1.7 -2.4l-61.8 -46.3l-7 -5.1l0.3 2.1l0.8 2l0.5 3.1l-0.5 1.1l-0.6 3.9l0.7 1.2l-9.9 13.7l-1.3 2.6z"/><path data-zip="03264" d="m426.8 962.3l-4.3 12l9.6 3.6l-0.2 1l-5.9 14l12.3 6.2l12 28l14.9 -8.7l1 -0.6l1.7 0.3l-0.3 3.4l-2.3 1.3l-1 -0.1l-0.3 2.3l0.3 1.4l0 2.8l-1.2 1.3l-0.5 2.6l-2 3.1l-0.3 3.1l-0.6 3.6l-0.8 3.2l0.2 1.6l2.2 0.4l2.1 -1.1l1.2 -1.7l1.1 -2.4l0.7 -2.3l1.4 -1.9l3.7 -2.2l-0.5 -1.8l2.2 -1.6l1.6 -0.3l1.8 -1.7l0.8 2.9l3 5l1.4 1l2.3 2.5l1.6 3.3l0.2 2.2l4.5 2l1 0.1l0.7 1.1l1.1 0.5l0.1 2.1l-0.9 2.1l0.2 1.8l0.9 1.6l-0.1 2.6l-3.3 4.8l0.1 1.2l2.3 -0.4l1.2 -1.4l1.3 -2.2l-0.8 -3.4l1.2 -1.4l0.4 -1.5l-1.2 -3.1l-0.7 -3.4l-0.2 -3.4l-0.4 -2.4l0.4 -1l1.2 -1.2l0.9 -1.9l1 -3.8l0 -1.1l-1.3 -5.3l0.4 -1.3l1.2 -1.9l0.7 -3.9l-1.2 -3.6l-3.1 -3.7l-1.2 -2.6l1.3 -3.7l0.1 -2.1l-0.2 -1.1l-1.7 -3.7l-1.2 -1.8l-0.1 -2.2l0.3 -1.7l-0.9 -1.5l0 -1.8l-1.1 -1.1l-1 -0.3l-1.3 -1.1l-0.4 -2.3l-1.1 -1.2l-1.7 -0.7l-2.2 -2.6l0 -2.4l0.3 -1.7l-0.2 -3l2.3 -0.4l0.9 -1.7l-0.4 -1.4l2.2 -0.5l-1.9 -1.4l-0.3 -2.6l-2.1 0.3l-1.2 0.3l0.8 2.2l0.6 1.1l-1.7 0.7l-2.9 2.6l-0.9 -1.5l0.2 -1.7l-0.5 -3.3l-0.3 -1.9l0.4 -1.1l2.7 -2l0.6 -1l0.1 -3l0.9 -2.7l2 -1.4l2.6 -4.2l-2 0.3l-2.3 0l-24.9 -0.2l-0.2 -5.2l-2.7 0.4l-1.7 -0.7l-0.4 -3.4l-2.5 0.2l-0.3 -2.9l-2.6 0.1l-1 -2l-3.1 -1.4l-4.1 7.4l-4.6 12.3l1.2 0.2l-2.2 5.9l-5.2 -1.9z"/><path data-zip="03275" d="m576.4 1409.9l1.6 0.5l0.5 1l1.1 0.1l2.8 -1.2l0.6 3l1 -0.6l0.2 1.5l0.6 1.7l-0.2 1.2l-0.9 -1.8l-3.5 0.4l0 1l0.4 1.4l1.5 0.4l0.1 1.7l-0.9 1.6l-0.3 1.9l2.4 2.2l3.9 1l1.6 1l2 1.9l5.1 5.3l1.7 2.5l1.4 3.8l-2.3 6.6l-0.2 1.7l0.2 4.5l1 -0.1l2.2 -0.6l2 -1l8.1 2l7.1 1.7l-0.2 -1.2l1.5 0.4l4.9 2.3l5 0.7l12.6 3.4l15.9 4l11.2 -22.5l3.4 -6.4l6.4 -16.3l-34.6 -7.9l-5 -1.5l-2.1 -0.5l-1.6 0l-1.7 -0.7l-1.7 0l-7.4 -1.6l6.5 -16.8l-3.4 -3l-4.4 -2.7l-24.3 -18l6.4 -8l0.7 -1.3l-3.4 -3.2l-1.3 1.2l0.3 1.7l-1 1l-1.7 -0.5l0.5 2.9l1.3 -0.2l-1.2 1l0 1.2l0.1 1.1l-0.5 1.1l-1.4 0.9l0 2.1l-1.3 -0.2l-1.3 0.1l1 1.3l-1.2 1.7l-0.1 1.3l-2.7 1.6l-1.7 0.5l1.1 1.1l-2.4 2.5l1.1 -0.3l-0.5 3.4l0.6 2l-1.1 0.8l3.3 0.6l0.4 1.6l-1.7 1l1.2 1.4l-1.6 1.5l-1.2 0.2l-0.5 1.1l-1.1 -0.8l-1.7 1.7l-0.3 -1.1l-1.6 -0.6l-1.9 1.5l-2.5 -1.8l-1.3 0.1l1.5 0.7l1.6 4.8l0.6 2.3l0.8 3.5l0.8 1.6l-1.5 1.5l-0.6 1.1l-1.4 0.2l-1.6 0.5l-1 1l-0.7 1.2z"/><path data-zip="03276" d="m494.9 1261l0 1l0.8 3l2.4 2.7l0.2 2.1l1.2 -0.5l7.4 -2.8l1.6 2.4l-0.1 -1.5l-0.7 -1.2l11 -4.1l1.1 0.3l5.1 -1.8l0.7 -1.2l51.8 -19.8l2.8 -0.7l5.5 -2.2l-1.2 -5.2l-0.5 -5l-28.6 -20.5l-1.9 -1.7l-1.3 -1.6l1.8 -2.3l2.4 -1.4l-0.2 -2l2.4 -3.5l1.2 -2.7l0.2 -2.5l-0.5 -1.2l-1.8 -6.1l1.2 -0.9l1.3 0.5l2.5 1.8l2.2 -0.1l1.3 -1.4l1.4 -4.5l-0.1 -1.4l-1.3 -2l0.3 -1.2l1.1 -0.4l1.2 -1l1.1 -0.5l1.4 -2l0.7 -2.3l-2.5 0l-1.3 0.8l-1.9 1l-29.7 11.9l-12.7 5.3l-3.2 1.2l-4.4 1.3l-7.1 1.7l0.4 1.1l-2.2 0.9l2.1 6.7l-1.7 0.7l3.3 8.5l1.1 2.4l-1.5 0.7l-1.5 -0.5l-1.5 0.7l0.7 4.3l2 0.2l1.1 3.3l0.3 1.8l-4.9 0.7l2.3 17.1l-8.7 0.8l0 1.3l-0.6 2.9l0.7 2l-1.3 4.4l-0.1 1.8l-0.9 1.6l-1.5 1.2l-0.8 2.8l-0.1 2.1l-1.2 2.9z"/><path data-zip="03278" d="m346.1 1330l0.8 1.7l3.1 5l0 2.4l9.7 21.8l0.4 1.1l1.9 -0.7l1.8 0.9l1.8 1.4l1.4 -0.4l0.2 -1.7l1.6 -1.2l0.6 -2.7l2.1 0.8l1.9 1.3l2.1 2.3l3.1 2.5l2.3 0.5l3.8 0.2l0.7 1.2l0.2 1.9l1.7 2.8l0.5 2.5l-0.9 4.3l5.5 -1.4l3.7 -1.3l7.7 -2.1l11.8 -3.2l5.2 -1.4l33.9 -9.2l-29.1 -60.1l-1.7 -2.7l-2 -4.2l11.6 -6.7l-2 -2.8l-4.3 -2.7l-1.8 0.1l-0.7 -2l-1.5 -0.9l2.4 -4.4l-1.2 -1.5l-1.2 0.2l-0.1 -1.4l-1.4 -0.9l-1.4 -0.1l2 -1.9l-0.1 -3l-0.2 -1.7l-2.7 -0.3l-1.5 -0.2l-1.3 3.7l1.6 5.6l0.6 4.6l-0.8 1.4l-1.5 0.8l-3.4 -1.2l-1.4 -2.8l-1.9 -1.8l-0.4 -1.2l-3.5 -1.5l-3.2 1.4l-1.5 -0.7l-2.2 -0.6l-1.8 -1.5l-3.3 -1.1l-0.7 -21.3l-9.8 4.7l-0.5 4.3l-7.5 6.2l-2 0.9l-1.7 1.3l-0.2 1l-3.2 4.9l2.9 7.5l2.3 5.1l8.8 23.7l-1.8 0l-0.4 2l0.9 2.4l0.3 3.6l-2.3 -2.5l-0.9 -1.5l-1.2 -0.2l-2.1 -1.4l-1 -0.2l-2.7 -1.5l-1.9 -0.1l-8.7 -2.2l-3.6 0l-1.7 -0.4l-1.7 0.2l1.6 0.6l9.7 7l-2.5 0.3l0.4 1.1l3.5 2.3l1.1 1.5l0.7 1.8l3 3l0.3 2.6l-2.5 1.4l-1.4 0.4l-18.9 4.2l-2.2 0.3z"/><path data-zip="03301" d="m504.1 1380.4l-1.9 0l19.5 38.2l3.1 6.1l2 3.8l2.3 -1.2l18.9 -9.8l5.4 -2.8l2.4 -1.2l3.3 -2l5.3 -2.4l0.2 2.9l-0.6 1.3l1.1 2l2.2 2l3.9 1.1l2.5 0l5 3.2l2.1 2.2l1.1 -1.7l0.1 -1.8l-0.1 -1.7l-1.5 -0.4l0.5 -1l-0.9 -1.4l3.5 -0.4l0.4 1.8l0.7 -1.2l-0.1 -1.4l-0.7 -1.8l-1 0.6l-0.6 -3l-2.4 0.4l-1.5 0.7l-0.5 -1l-1.1 0l0.2 -1.7l1 -1l1.6 -0.5l1.4 -0.2l0.6 -1.1l1.5 -1.5l-0.8 -1.6l-0.8 -3.5l0.1 -1.4l-2.3 -5.7l-1.5 -0.7l1.3 -0.1l2.2 1.9l1.3 -1.1l1.6 5.55112e-17l1.1 0.5l1.8 -1l1.1 0.8l0.4 -1l1.3 -0.3l1.6 -1.5l-1.2 -1.4l1.7 -1l-0.4 -1.6l-3.3 -0.6l1.1 -0.8l0.1 -1.7l0.1 -3.1l-1.4 -0.3l1.5 -2l-0.2 -1.6l1.7 -0.5l2.7 -1.6l0.1 -1.3l1.2 -1.7l-1 -1.3l1.3 -0.1l1 0.1l0.1 -1.3l0.9 -1l1.2 -1.1l-0.1 -1.2l0 -1.7l1.2 -1l-1.3 0.2l-0.5 -2.9l1.7 0.5l1 -1l-0.3 -1.7l1.3 -1.2l-2.3 -1.4l-1.8 -1.8l-8.7 -6.5l-4.3 -2.9l-10.2 -7.2l-10.2 -20.4l-2.6 -5.1l-19.8 10.3l-10 4.9l-1.3 1l-1.1 0.4l0.7 1.5l2.5 1.2l2.4 0.6l1.8 -0.2l2 2.5l0.2 1.2l-0.2 2.7l0.2 1.4l3.6 1l-1.9 5.8l-1.6 4.2l-0.1 3.7l-1.8 0.9l-1.9 3.1l0.4 2.9l-5.2 0.8l-2 0.7l-1.5 2.6l-0.1 1.9l-0.5 1.7l-1.1 1.2l-1.3 0.5l-1.9 1.9l-0.1 1.6l1 2.8l0.3 2.1l-2.8 0.1l-1.4 0.8l-3.2 0.5l-6.9 0.7l-5.1 0.9z"/><path data-zip="03303" d="m421.6 1291.6l2.2 4.8l1.7 2.7l29.1 60.1l1.3 2.4l1.5 -0.3l28.8 -14.1l3.4 7.2l5 10.7l4.5 8.8l2.4 3.7l0.8 2.7l1.9 0l5.1 -0.9l6.9 -0.7l3.2 -0.5l1.4 -0.8l1.9 -0.4l0.6 -1.8l-1 -2.8l0.1 -1.6l1.9 -1.9l1.3 -0.5l1.1 -1.2l0.5 -1.7l0.1 -1.9l1.5 -2.6l2 -0.7l5.2 -0.8l-0.4 -2.9l2.1 -2.6l1.6 -1.4l0.1 -3.7l1.6 -4.2l1.9 -5.8l-2.7 -0.5l-1.1 -1.9l0.2 -2.7l-0.2 -1.2l-1.1 -2l-2.7 -0.3l-2.4 -0.6l-2.5 -1.2l-0.7 -1.5l0.6 -1.8l-0.1 -1.3l-1.7 -2.4l0.3 -1.5l1.6 -1.3l0.9 -1.7l-0.2 -1.7l-1.4 -0.7l-4.1 1.8l-1.8 -0.1l-1.6 -1.1l-0.7 -1l1.5 -1.3l1.8 -3.8l1.8 -1.7l-0.6 -2.1l-1.7 -0.1l-3.4 1.2l-1.6 -0.1l-4.5 -2.2l-1.1 -0.1l-1.2 -1.3l3.3 -2.3l1 -2.4l-1.6 -2l-1.7 -0.3l-1.5 1.8l-1.9 0.9l-1.3 -1l-0.5 -1.8l1 -2.3l0.1 -1.7l-1.4 -2.2l-1.5 -1l-0.9 -1.3l-0.7 -3.2l0.1 -1.2l1.1 -3.2l-0.4 -2.3l-1.1 -1.8l-2.2 -1.3l-1.8 -2.2l-2 -1.1l-0.2 -1.6l0.2 -1.4l-2.8 -3.4l-0.8 -3l0 -1l1.2 -2.9l0.1 -2.1l0.8 -2.8l-11.5 6.5l-4.3 1.2l-15.7 8l-2.6 1.7l-2.8 1.4l-14.3 7.1l-2.4 1.4l-3.1 1.2l-4.4 2.6l-2.6 1.4l-11.8 6.1z"/><path data-zip="03307" d="m569.5 1308.2l-5.2 7.1l10.2 20.4l9.3 6.8l5.2 3.3l8.7 6.5l1.1 0.9l3 2.3l3.4 3.2l2.2 -2.8l1 -1l4.3 -5.3l0.8 -2.2l1.2 -0.4l10.7 -14.4l1.7 -3.9l15.6 -21.5l2.2 -3l9.9 -13.7l-0.7 -1.2l0.6 -3.9l0.5 -1.1l-0.5 -3.1l-0.8 -2l-0.3 -2.1l-11.4 -8.2l-0.2 -1.1l-1.4 -1l-46.9 -33.2l-5.1 1.7l-0.3 2.6l3.1 2.4l0.9 3.6l-0.4 1.4l-3.9 2.2l-3.3 0.3l0.8 1.4l-1 1.8l-0.2 1.2l1.3 2.1l-0.3 1.1l0.6 1.1l2.1 2.5l2.3 0.9l2.2 1.9l0.5 2.1l1.3 1.9l1.6 0.6l0.8 1.8l1.1 0.6l-0.2 1.2l-1.1 0.9l-18.1 25.3l-1.7 1.8l-1.2 2.2l-1.3 1.6l-4.1 5.7z"/><path data-zip="03431" d="m95.3 1562.6l8.1 34.6l2.7 11.7l8.9 -0.1l1 0.1l19.6 -0.1l3.4 0l9.5 -0.1l0 1.5l4.5 14.9l-0.7 9.2l3.2 -0.6l1.7 -0.1l-0.4 -1.3l0.2 -2l1.4 -3l1.8 -6.6l1.6 0.1l0.4 -1l2.9 0.4l1.6 0.7l1.1 -0.6l1 2.2l1.6 0.1l1.2 0.8l-1.6 -1.8l-3.4 -4.5l-0.6 -2.3l0 -1.4l1 -3.8l0.4 -1l1.6 -0.1l-0.5 3.1l4.3 0.5l2.4 1.5l1.1 -2.1l1.6 -3.1l1.8 -0.2l2.8 -0.1l0.4 -1.7l0 -10.3l11.4 -1.3l-1.7 -0.6l-1.9 -0.1l-2.7 -0.8l-0.2 -2.2l1.9 -0.8l1.1 -1.1l1.7 -4.5l1.1 -0.5l2.8 -2l0.8 -1.2l0.7 -2.2l1.2 2l0.4 1.4l1.2 0.1l0.9 -1.5l3 -1.7l1 0.1l0.7 -1.4l-1.1 -2.1l-1.2 -0.6l0.2 -1.6l1.5 1.5l0.1 -1.2l0.3 -1.1l1.1 -2l-0.2 -1l-0.7 -1.8l-2.4 1.8l-3.2 0.9l-2.3 1l-1.8 0.4l0.7 -1l2.1 -1.3l0.8 -3l0.2 -4l-1.4 -0.5l-3.6 0l-1.9 -1.3l-1.4 0.2l0.5 -1.5l-0.2 -2.4l0.8 -1.3l1.3 -2.8l-8.7 -0.4l-0.4 10.6l-15.5 -6.2l-3.7 -24.5l-1.5 2l-1.5 4.4l0.3 1.4l-0.4 1.7l0.3 1.5l-20.4 6.1l-0.2 -1.3l-3.9 -6.3l-0.8 -2.1l-2.2 -11l-2.9 -1l0.2 -1.1l-0.5 -2.8l-0.9 -1.6l-0.3 -1.8l-1.5 0.2l0.2 -1.5l-0.6 -2.2l-1.1 -0.8l-1.1 -1.6l0 -1.4l-0.9 -1l-1.6 -0.2l-1.5 -2.3l0.2 -3.5l-1.4 -1.8l1.2 -1.5l2.5 2.2l5.1 0.2l1 -0.2l2.6 -1.7l-3.4 -4.6l-1 -1.7l-0.8 -3.2l-21.9 1.9l4.2 34.9l-4.4 -0.2l-1.8 29l-10.7 2.9z"/><path data-zip="03440" d="m273 1528l-0.5 10.3l14.8 -2.4l-0.2 -2.1l2.3 -0.8l0.3 2.5l46.7 -7.4l6.3 -1l0.4 -1l0.3 -1.4l1.1 0.7l0.2 -1l-0.4 -1.2l-1.4 -1.2l0.7 -1l-1.4 -0.9l1 -2.5l1.6 -2l1 0.5l0.2 -1.2l-2.2 -1.5l0 -2.2l0.3 -1l-1.2 0l1.4 -0.5l3.1 -0.5l1.7 -0.1l-0.3 -1.5l3.2 -2l1.3 -1.9l1.2 -1.5l0 -1.2l-1 -2.6l1.4 -1.5l0.1 -2.5l-0.8 -1.5l-1.2 -1.5l0.6 -1.2l0.1 -1.5l-1.5 -1.2l0.1 -1l-0.8 -4.3l1.3 -1.5l-1.4 0.4l-0.2 -2.5l1.2 -0.3l-0.2 -1.9l0.6 -3.5l-1.3 -2l1.5 -0.8l-0.5 -1.5l0.8 -1.1l1.6 -1.2l0.2 -1.9l-8.5 1.4l-0.7 -7.3l-2.6 2.2l-0.8 -1.3l-3.7 -1l-1.7 0.6l-1.1 -0.4l4.7 5.1l-2.3 2.6l-1.3 1.9l-31.7 7.7l-23.2 4.9l-8.7 47.4z"/><path data-zip="03442" d="m333.6 1547.3l0.4 1.8l2 -0.5l3.5 -0.3l0 3l1 2.4l0.6 1.1l5.7 -0.3l1.9 0.2l25.3 -3.5l-1.6 -9.3l-2.3 0.2l-0.6 -2.8l-1.9 0.2l-0.5 -5.5l5 1.7l-0.1 -1.9l1.4 -0.4l-1.1 -3.7l-2.2 -6.5l0.6 -3.2l-0.3 -1.9l-2.9 -0.3l-0.9 -5.8l-6.5 0.2l-0.2 -1.9l-4.2 -3.9l-1.9 -1.8l-2.2 1l-3.2 2l0.7 1l-2.1 0.6l-2.7 0.8l-1.8 0.2l1.2 0l-0.3 1l0 2.2l2 0.8l5.55112e-17 1.9l-1 -0.5l-1.6 2l-1 2.5l1.4 0.9l-1.1 0.1l1.8 2.1l0.4 1.2l-0.2 1l-1.1 -0.7l-1.1 0.9l0.4 1.5l-6.3 1l1.4 9.3l-0.1 5.1l-0.4 2l1 -0.1l0.9 1.8l-5.3 0.9z"/><g data-zip="03446"><path d="m163 1610.9l0.8 1.2l1.4 -1.2l-0.3 -1l-1.9 1z"/><path d="m95.4 1648.6l-3.6 7l21.6 1.5l3.4 25l12.1 2.9l12.4 2.2l4.3 -8.5l28.8 1.5l1 0l0.1 -3.2l1.2 -4.3l-0.5 -5.3l3.1 -1l-0.8 -7.4l4.5 0.2l-0.6 -11.7l0.1 -10.9l0.4 -12.2l-7.1 -2.3l4.4 -9.8l-1.9 0l-1.5 -1l-1.1 2.1l-2.4 -1.5l-4.3 -0.5l0.5 -3.1l-1.6 0.1l-0.4 1l-1 3.8l0 1.4l0.6 2.3l3.4 4.5l1.6 1.8l-1.2 -0.8l-1.6 -0.1l-1 -2.2l-1.1 0.6l-1.6 -0.7l-2.9 -0.4l-0.4 1l-1.6 -0.1l-1.8 6.6l-1.4 3l-0.2 2l0.4 1.3l-1.7 0.1l-2.8 0.9l0.3 -8.8l-4.5 -15.6l0 -1.5l-9.5 0.1l-3.4 0l-19.6 0.1l-1 -0.1l-19 38.4l-0.4 1.2z"/></g><path data-zip="03449" d="m271.2 1567.7l-0.5 15.7l30.6 0.8l1.5 10.1l2.1 -1l19.6 -4.2l10.2 -1.8l-1.5 -1.4l1.4 -1.8l-0.7 -1.4l-0.1 -1.4l1.9 -2.4l2 -0.5l0.3 -1l-0.2 -2.6l1.5 -0.3l3.1 -1l0.3 -2.1l-0.5 -6.1l-0.6 -3.2l0 -2.8l0.4 -1.5l-0.2 -2l-0.5 -1.4l-0.6 -1.1l-0.1 -2l-0.9 -3.4l-3.5 0.3l-2 0.5l-0.4 -1.8l5.3 -0.9l-0.9 -1.8l-1 0.1l-0.2 -1.4l-0.2 -5.5l-0.5 -9.5l-46.7 7.4l-0.3 -2.5l-2.3 0.8l0.2 2.1l-14.8 2.4l-1.3 29.4z"/><path data-zip="03451" d="m0 1651.9l0.5 1.2l1.6 3.5l2.7 3.5l0.6 3.3l0.1 2.5l0.9 6.3l0.2 1.3l0.3 2.6l0.5 1.1l0.7 1.7l0.6 5.8l1 3.1l11.6 10.6l1.4 1.6l2.2 3.3l1.6 3.1l0.4 2.3l-0.2 1.7l-1 1l-2.6 1.3l-1 2.1l0.4 2l1.6 1.6l1.2 0.1l1.6 -0.5l4 -2.4l0.8 -1l0.3 -2.2l1.9 -1l2.3 0.6l1.8 2.3l0.7 1.8l0.8 1.1l3 1.8l1 1.4l0.9 2.6l0.7 5.2l0.9 3.6l2.9 3.5l3.7 6l1.4 3.1l0 1.7l4 0.2l-1.6 -10.5l1.6 -0.1l-0.4 -1.6l-1.3 -0.9l-0.1 -2.7l-0.5 -1.6l-0.3 -5.2l2.6 -1l2.3 -3.2l0 -3.4l1 -1.9l0.4 -1.4l-1 0l-2.3 -1.8l-1.6 -1.4l-1.9 0.8l-0.2 -1.1l-0.3 -1.2l-1.1 -0.8l-1.3 -0.2l-1.9 -12.9l-2.6 -17l-0.3 -2.8l-3.6 -22.4l-11.1 -0.8l-30.8 -2.8l-1.8 3.7z"/><path data-zip="03452" d="m225.6 1640l2.7 16.8l3.9 26.7l1.5 12.3l21.1 0.6l30.3 1.4l5.7 0.2l3.6 0.1l8.2 0.4l0.4 -1l2.2 0.1l0.6 1l12.9 0.7l-5.8 -35.6l-3.2 -21l-38.8 -0.7l-34.4 -2l-7.2 -0.1l-3.8 -0.1z"/><path data-zip="03455" d="m180.1 1612.5l-4.4 9.8l7.1 2.3l-0.4 12.2l2 0.7l2 0.2l1.6 0.6l2 2l2.3 3.9l-0.1 2.2l1.3 -0.2l2 2.8l0.3 1.4l1.2 0.5l0.8 1.1l2.1 1.7l0.7 2.5l3.7 -0.9l18.7 -2.8l1 5.5l4.2 -1.1l-2.7 -16.8l3.8 0.1l-1.7 -12.1l-4.1 -0.3l-4.6 -28.7l-2.5 -17.6l0.2 -5.9l-3.8 -0.2l0.3 -5.4l-5.7 -0.2l0.2 1l-1.1 2l-1.1 0.5l0.7 1.8l-1.5 -1.5l-0.2 1.6l1.2 0.6l1.1 2.1l-0.7 1.4l-1 -0.1l-3 1.7l-0.9 1.5l-1.2 -0.1l-0.4 -1.4l-1.2 -2l-0.7 2.2l-0.8 1.2l-2.8 2l-1.1 0.5l-1.7 4.5l-1.1 1.1l-1.9 0.8l0.2 2.2l1.9 0.2l2.7 0.7l1.7 0.6l-11.4 1.3l0 10.3l0 1.7l-3.2 0.1l-1.8 0.2l-1.6 3.1l1.5 1l1.9 0z"/><path data-zip="03458" d="m302.7 1594.3l1.2 8l0.6 3.4l0.3 3.5l2.5 19.1l2.4 14.5l3.4 20.8l5.6 35.8l16.4 0.5l23.9 0.4l-1.8 -13.1l3.4 -2.3l2.3 -2.3l0.4 -1.9l1.2 -1.7l0 -2l1.2 -2.3l0.5 -2.2l1.2 -1.9l-0.5 -4.3l-0.8 -1.9l0.8 -3l-0.2 -1.4l-1.1 -0.9l-1.2 -0.2l0.3 -2.6l3.3 -0.7l-0.3 -1.3l1.2 -6.5l3.2 -0.8l0.6 -1.1l-1.9 -13.1l-7.3 -48.9l-1 -1l-27.8 4.5l-10.2 1.8l-19.6 4.2l-2.1 1z"/><path data-zip="03465" d="m175.4 1680.3l-1 0l1.8 8.9l8.1 0.4l0.8 8.7l12.2 0.3l-0.5 -3.1l5.5 -0.2l-0.5 -4.9l10.3 0.3l2 -2.2l-0.6 -1.3l-1.2 -3.7l19.6 0l-3.9 -26.7l-4.2 1.1l-1 -5.5l-18.7 2.8l-3.7 0.9l-0.7 -2.5l-2.1 -1.7l-0.8 -1.1l-1.2 -0.5l-0.3 -1.4l-2 -2.8l-1.3 0.2l0.4 -1.5l-2.7 -4l-1.9 -2.6l-1.6 -0.6l-2 -0.2l-2 -0.7l-0.1 10.9l0.6 11.7l-4.5 -0.2l0.8 7.4l-3.1 1l0.5 5.3l-1.2 4.3l-0.1 3.2z"/><path data-zip="03470" d="m43.7 1651.9l3.3 21.6l0.6 3.6l2.6 17l4.5 1.3l5 2.7l6.8 -1.2l3.6 -0.1l2.4 0.6l1.1 0.8l1.8 -0.2l-1.1 2.6l5.5 0.7l3.2 0.4l-0.7 2.2l-4.9 1.3l-1.7 0.6l-2.6 2.2l1.9 0.8l-1.4 1.4l-0.7 1.1l-0.3 3l0.8 1.1l1 0.6l0.3 1.6l-1.1 2.7l-5.9 -1.1l-7.2 -0.1l-2.3 3.2l-2.6 1l0.3 5.2l0.5 1.6l0.1 2.7l1.3 0.9l0.4 1.6l-1.6 0.1l1.6 10.5l21.4 0.9l58.6 2.4l10.3 0.4l1.6 0.1l43.4 1.5l-1.3 -7.7l-1 -0.6l-0.5 -1.2l-1.1 -1.3l-1 -2.2l0.8 -2.8l-0.7 -1.1l-0.1 -1.8l-0.7 -1.4l0.4 -1.3l-0.2 -1.6l-0.9 -1.3l0.7 -1.6l1.7 -2.6l-4.2 -24.5l-0.8 -8.7l-8.1 -0.4l-1.8 -8.9l-28.8 -1.5l-4.3 8.5l-12.4 -2.2l-12.1 -2.9l-3.4 -25l-21.6 -1.5l-20.6 -1.6l-27.5 -2.1z"/><path data-zip="03561" d="m313 532.2l30.2 15.3l-5.4 9.3l1.7 2.7l-0.2 2l0.6 1.6l1.3 2.1l-1.7 1l-1 2.3l-1.5 1.5l-0.3 1.2l0.9 1l-1.7 1.7l0.7 1.1l-1.2 -0.1l2.7 1.7l1.7 1.7l0.4 -1.9l1.1 -2.5l0.7 -4.5l0.9 -3.3l-0.9 -3.7l0.4 -3.7l2.2 -8.2l1.1 -1.7l34.2 16.7l37 16.4l14.1 -13l9.6 -8.8l0.8 -1l8 -7l1 -0.6l3.6 -3.3l4.2 -3.3l1 0.2l1.5 -2.2l9.5 -7.5l-22.1 -32.8l-6.7 -10.8l-1.8 -2.1l-7.1 -11l-1.2 0.7l-2.7 1.8l-1.4 1.5l-1.8 1l-6.6 -0.4l-1.8 0.8l-4.6 4.5l-0.6 1.1l0 1.2l2 3.4l-0.2 1.3l-1.7 0.7l-2.9 -0.4l-2.4 0.8l-1.5 5.6l1.8 2.3l-0.2 1.6l-1.5 1.2l-0.4 1l0.6 3l1.4 4l-0.3 2.3l-3.3 2l-4 0.7l-3.8 1.4l-2.4 1.8l-3.6 2.7l-4.5 2.5l-5.1 0.6l-4.4 2.4l-1.4 0.3l-1.9 -0.6l-3.3 -2.2l-11.2 -5.6l-2.5 -0.6l-5.8 1.3l-4.2 3.4l-2.2 3.4l-3.4 1.4l-2 -0.1l-3.3 -1.5l-7.1 0.2l-2.7 0.8l-9.8 -0.7l-1.9 1z"/><path data-zip="03570" d="m650.6 420.5l0.2 1.1l2.2 0.6l1.9 2.3l2.2 -0.5l1.9 -0.1l3.2 2.4l3.3 -0.7l1.6 -0.6l0.2 -1.3l-1 -2.6l-0.9 -3.5l-1.6 -2l2.1 -2.6l1.2 -1.5l1.3 -0.4l4.7 -2.3l1 -1.7l2 -0.9l1.9 0.3l2.5 0.3l0.6 1.4l1.1 0.1l2.4 1.3l-0.4 1.3l1 2.1l-0.4 1.3l1.1 0.8l0.3 1.1l-2.8 1l-3.7 1.7l-4.4 0l-1.1 -0.5l-2.1 -2.2l-1.3 0.2l1.2 1l0 1.7l1.9 1.1l0.8 1.6l-0.1 1.5l0.8 1.4l0.1 1.2l1.2 1.5l1 2.1l-2 0l-2.3 1.4l-1.6 2.4l0.3 1.8l-0.7 2.5l1.1 1.8l2.6 0.3l1.9 0.9l2.1 1.9l1 1.3l0.3 3.4l4 -0.1l30.9 -1l25.3 -0.6l5.1 -0.1l1.5 0l1.1 0l1.5 0l1.8 0l0.1 -4.3l8 -0.3l3.7 1.1l-0.6 3.3l0.2 8.9l78.1 -1.7l-1 -25.6l-1.2 -20.2l-2 -44.5l-1.3 -40.8l-22.3 1.9l-0.9 1.2l-7.7 16.4l1.1 0.7l1.4 -0.7l0.7 1.1l1.7 1.8l1.8 3.2l0 3.4l0.7 2l1.6 2.5l-0.1 1.4l-1.3 -1.1l-1.3 -0.7l-4.2 -0.8l-1.1 2.2l-1.2 1.1l0.6 1.4l-1.2 1.6l-1.7 0.6l-1.6 2.4l0.9 2.5l-1.2 0.6l-1.8 -0.1l-3.1 -1.1l-1.7 0.8l-1.4 1.3l-2.9 6.1l2.7 2.1l0 1.7l-0.6 1.4l0 1.3l-0.7 1.3l0 1.6l1.5 0.2l-0.9 1.5l-1.5 -0.3l-2.2 -1.9l-1 0.4l-1.3 -0.7l-1.6 3.3l-3.6 0l-3.1 0l-11.2 0l-3.8 0.2l-105.5 3.2l-3.6 9.6l0.1 3.1l0.8 1.3l0.7 2.1l0.8 1l0.1 1.5l1.2 0.4l-1.4 1.3l-1.1 2l-2.2 1l-1 1.4l0.2 1.2l-0.4 2.4l0.5 2.2l-0.7 1.2z"/><path data-zip="03574" d="m431.1 568.8l-14.1 13l21 11.4l2.8 1.5l3 1l4.8 2.3l108.9 40.1l62 20.9l6 2l-7.3 -33.1l5.8 -1l-15 -28.2l-14.4 -8.2l-19.8 3.3l-0.7 -4.7l-37.5 5.4l-6.1 -38.3l-54.6 -24.3l-5.4 3.4l-9.5 7.5l-1.5 2.2l-1 -0.2l-4.2 3.3l-3 2.6l-1 1l-8.6 7.3l-0.8 1l-9.6 8.8z"/><g data-zip="03576"><path d="m641.3 23.2l0.3 1.6l1.7 2l0.4 1.8l1 1.5l1.7 1.2l3.4 -0.7l-1.2 -1.6l0.6 -2l-3 -2.9l-4.9 -0.9z"/><path d="m549.7 135.2l-0.3 2l1.1 -1.8l1.9 -1.6l0.7 -1.9l1.6 -1.3l1.1 -1.3l5.6 -5.2l1.1 -1.4l1.3 -0.7l2 -1.8l2.8 -1.2l4.6 2.3l1.3 2.1l1.2 0.5l2.5 2.1l0.4 1.8l2.1 2.8l1 7.2l1.5 2.2l2.2 0.8l3.8 2.4l1.3 0.5l1.5 0.3l0.4 2l3 0.4l0.9 2l4 1l2 2.1l1.1 0l0.2 1.2l1.2 0.9l1.1 -0.9l1.5 2l1.7 2.8l1.2 0.9l-0.1 1l1.1 2.4l0.2 2.7l0.9 1.3l1.2 -2.4l1 -1l2.4 2.8l1.8 1.4l0.7 1.4l-0.6 1.7l0.4 1.1l-0.4 1l0.1 2.2l-1.7 -0.6l-1.6 0.4l-1 1.1l-1.3 0.7l-1.3 -0.9l-1.6 2.6l-0.4 1.8l0.6 2.8l-0.9 2.7l1.1 1.3l22 -3.3l1.5 -0.1l19.8 -2.7l9.8 -52.7l3.5 -1.8l2.5 0.9l2.4 -0.7l1.9 -0.2l4 0.6l1.4 -0.1l3.2 -1.3l-0.3 -1.2l1.6 0.8l0.3 -1.5l-0.5 -1.1l1.8 -2.7l1.3 -1.5l0 -1.8l1.7 -3.6l0.1 -1.2l-0.9 -1.8l-1.4 -0.3l-0.6 -2.5l-0.3 -1l0.5 -1l0.8 -4.8l-1.8 -1l0.5 -2.3l1.3 -0.5l1.4 -3.5l0.3 -2.1l2.1 0.7l-0.3 1l4 -1l1.3 -1.4l0.6 -1.2l1.3 0.2l2 -0.6l1.5 -1.9l2.8 2.6l1.5 2.2l2.1 0.9l1.7 3.5l4 1.8l1.2 0.7l1 0.1l4.5 2.5l3 0.7l1.2 -0.8l0.1 -1.2l0.7 -1.7l1.7 2.7l1.2 2.8l0.2 1.3l-1.1 1.4l1.6 2.1l1.4 1l-1.6 -58.7l-25.6 -5l0.2 -2l1.1 -1.4l1.2 -0.4l3.1 -0.6l-0.1 -1.9l0.8 -5.8l0.8 -2.2l-0.4 -2.2l1.4 -4.5l1 -1.3l0 -1.6l-1.2 -1.3l-0.2 -2.5l0.4 -2.6l0.9 -1.4l-1.6 -4.7l-1.7 -0.8l-2.7 -3.1l-1.6 -1.1l-2.5 -0.7l-1 0.1l-1.3 -1.5l-1.3 -1.1l0.9 2.2l-1.6 1.6l-2.7 3.7l0 1.7l-1.2 5.2l1.4 2.3l-0.8 3.4l-2 0.8l-1.2 1.4l-1.1 0.7l-3 -0.8l-2.7 1.6l-0.8 1.7l-2.1 1.7l-1.4 -1.3l-0.5 -2.5l-1.3 -1.5l-1.5 -0.4l-1.2 -2.3l-1.8 -0.3l-1 -1.4l-1.4 -1l-1.4 1.1l-1.8 -2.9l-1.6 -1.1l-1.6 0.7l-0.6 2.2l-2.4 1.8l-2.7 0.4l-1.5 -3.1l-1.3 -1.7l-1.5 -0.8l-2.1 0l0 1.1l0.5 1.5l0.8 1.1l0 1.3l1.1 0.3l0.8 1.8l-0.6 1.5l0.6 1.1l-0.8 2.2l0.1 2.4l-0.8 2.6l0.7 1.5l1.7 3.6l-29 -5.3l-3.3 -0.9l-7.9 -1.5l-5 -0.6l-5.7 -1.1l-1.3 -0.7l0.4 1.7l-0.5 1.2l-1.1 0.2l0.1 -1.8l-1.3 0l-0.7 -1.9l-10 -1.6l-1.2 2.8l-1.7 0.3l-0.2 2.2l-5.3 2.3l-2.4 0.4l0.1 1.8l-3 1.6l-1.4 0.3l-7.5 -1.4l-4.6 0.9l-1.9 -0.3l-1 4.7l-1 0.6l0.8 1.5l2.4 1.8l2.2 5.7l-0.2 1.3l1.8 0.9l1.4 -0.7l1.6 4.4l-1.1 8.6l0.7 3.1l-0.4 2.1l-1.4 1.6l-1.4 0l1.2 2l1.6 0.8l0.6 6.1l3.3 3l2.6 3.4l2 3.5l0.1 1.1l0.3 1.5l2.6 -0.5l1.1 0.2l-0.7 1.1l-0.7 2.1l0.6 1.1l0 1.3l-1.6 -0.1l-1.8 0l-0.7 1.3l-3.4 3.9l-1.1 0.9l-1.7 1.5l-0.2 1.1l1.3 1.2l-0.3 1l-5.5 7.3l-2.3 1.3l-0.9 1l-0.4 3.3l-3 3l-3 0.8l-3.2 1.9l-2 2.7l-0.5 2.4l1 2l0 1.1l-1.9 1.7z"/></g><path data-zip="03581" d="m705.6 605.2l0.2 4.4l3.2 5.4l4.6 -12.6l83.9 6.7l15.3 -1.6l15.3 0l0.1 -28.6l-1.3 -6.8l18.6 -0.8l-0.5 -13l-0.8 -29.8l-1.4 -28.5l-1.1 -28.4l-0.8 -19.3l-78.1 1.7l0.9 36.5l-2 1.1l-1.9 -0.5l-1.1 -1.5l-1.9 -0.7l-1.7 0l-2.2 1.3l-1.3 -1.3l-1.9 -1.2l-1.4 -1.4l-1 -1.9l-1.4 -2l-3.2 -1.7l2.7 -4.1l1.4 -4.9l-1.1 -2.3l-0.1 -1.7l1.3 -2.6l0 -1.4l0.6 -2.5l-0.5 -2.1l0.6 -4.1l2.7 -5.5l0.1 -1.9l-0.8 -1.3l-1.3 -0.9l-1 0l-1.6 0l-5.1 0.1l-25.3 0.6l1.8 83.1l7.9 -0.1l-3.6 20.4l-1.6 0l0.7 20.1l-1.3 2.2l0.1 2.2l-0.6 2.5l-0.2 3.5l-1.6 3l-2.8 1.3l-4.6 2.5l-2.1 3.2l-0.9 5.6l0.5 5.5l-1.6 4.1z"/><path data-zip="03582" d="m543.7 299.8l0 1.7l3.8 4l2 1.5l1.4 -0.6l1.2 0.4l0.2 1.4l-2.6 0.7l-2.1 -1.7l-0.9 1l2.7 1.4l1.7 0.8l1.2 0.3l0.7 1.5l-0.5 1l-2 -0.8l-1.8 -1.7l-1 2.6l-0.4 3.7l1.4 4.8l0.4 3.5l-0.6 1.3l-2.6 1l-1.5 0.3l0.2 1.5l2.5 0.8l2.9 -1.1l0.5 1.3l-1.6 1l-0.1 2.4l-0.6 1.1l2.9 -1.1l1 -1.2l1 -0.4l0.7 1.6l-0.3 1.3l-1 1.5l1.7 0l2.4 -2.1l1.2 0.7l-0.2 1.2l-1.1 1.5l0 1l1.1 0.6l1.2 -0.4l-0.6 2.4l-0.2 1.5l-1 1.4l-2.6 2.1l-1 0.8l-1.3 0.2l-1.3 -0.7l-1.2 -2l-1 -0.1l-0.1 1.1l0.6 2l2.4 2.9l-0.4 1.8l-1.1 0.8l-2.6 -0.8l-1.4 1.6l0.2 2.5l0.6 1.8l-1.7 0.5l2.5 8.6l10.4 -0.9l-0.4 1.4l1.1 1l1.9 2.3l2.5 -0.4l0.8 -1.8l1 0l1.3 0.7l-0.1 1.1l1.1 1.4l1.8 2.6l1.9 1.3l1.2 1.8l0.9 -2.6l-0.4 -2.9l-1.4 -2.8l-0.1 -1.3l-1.2 -3.1l1.5 -1.8l2.7 -1.3l5.3 -0.7l-0.9 1.1l-0.3 1.9l-1.6 3l-0.4 1.6l-2.2 3l-0.7 3.1l-0.2 3.5l0.8 1.4l1.2 1l4.9 1.8l2.4 2.3l0.9 2.6l2 3.1l2.1 1.7l1.3 0.1l2.1 2.6l-1.7 0.3l1 0.7l2.8 0.8l1.3 -0.7l1.8 0.5l1.7 -0.8l4.1 -1.1l2.4 0.4l3.6 -0.6l4.3 -2.4l5.4 -3.1l-0.2 -6.8l52.3 -29.6l9 -25.6l-1.3 0.1l-2 -26.6l-1.9 0.2l-0.8 -11l1.9 -0.3l-0.3 -7l-49.7 1.4l1 6.7l-27.3 4.1l-13.2 2l-7.8 -4.2l-30.9 5.3l-0.5 1.4l-2.1 0.5z"/><path data-zip="03584" d="m489.9 451.7l17.8 23.8l46.6 -26.8l5.7 -3.3l56.3 -8.6l-1.4 -15.6l-1.8 -14.5l0 -1l-0.7 -3.3l-0.4 -10.2l-4.4 2.5l-3.2 0.1l-2.8 0.1l-4.1 1.1l-1.7 0.8l-1.8 -0.5l-1.3 0.7l-2.8 -0.8l-1.7 0l2.4 -1l-2.1 -2.6l-1.3 -0.1l-2.1 -1.7l-2 -3.1l-0.9 -2.6l-2.4 -2.3l-4.9 -1.8l-1.2 -1l-0.8 -1.4l0.2 -3.5l0.7 -3.1l2.2 -3l0.4 -1.6l1.6 -3l0.3 -1.9l0.9 -1.1l-5.3 0.7l-2.7 1.3l-1.1 1.1l0.8 3.8l0.1 1.3l1.4 2.8l0.4 2.9l-0.9 2.6l-1.2 -1.8l-1.9 -1.3l-1.8 -2.6l-0.4 -1.3l-0.6 -1.2l-1 0.2l-1.3 -0.9l-0.8 1.8l-2.5 0.4l-1.8 -1.5l-1.2 -1.8l0.4 -1.4l-10.4 0.9l-2.5 -8.6l1.7 -0.5l-1.1 -1.1l-2.1 1.1l-3.4 0.3l-3.2 -1.5l-8 -0.7l-1.1 0.4l-1 1l-1.2 2.2l-0.9 2.9l-0.2 1.4l0.7 1.5l4.8 4.3l7 5.4l1.2 2.2l0 1.3l-0.8 2l-1.3 2.6l-3.1 4.5l-1.8 1.3l-3.9 -0.2l-0.8 1l0.2 1.5l1 1.5l2.8 2.4l1 3.4l0.9 1.4l3 2.6l0.1 1.6l-1.3 0.7l-2.1 -1.1l-1.5 0.3l0.4 2.2l-0.6 1.2l-1.4 0l-0.3 -1.1l-2.2 -0.5l-0.4 1.6l-0.2 3.3l-1.3 4.6l-0.9 1.5l-3.8 1.1l-1.7 0.5l-3.5 -1.2l-2.1 2.3l-2.3 6.1l-3.3 1.2l-3 -2.1l1.2 -2.1l3.5 -1.3l1 -0.9l-0.4 -1.1l-1.1 -0.8l-1.8 -0.1l-1 0.3l-3.6 4.6l-2.1 0.9l-1.5 1.2l-1 1.5l-0.1 2.4l3.8 3l0.2 1.3l-1.3 1.9l-1.2 0.9l-4 -0.4l-2.8 5.5l-0.9 6.9l-1.2 2.7z"/><path data-zip="03585" d="m294.7 604.1l1.8 1l8.4 4.7l34.7 17.4l12.3 72.6l1 0.6l1.8 0.3l1.6 0.9l1.1 1.9l1.2 0.8l2.1 2l3.1 1.1l3.4 -0.7l2.8 1l2.2 0.6l2.9 -0.2l0.7 -1.6l-1 -1.4l-1 -2l3.3 0.2l3.4 2.6l1 0.3l1.6 1.9l0.6 1.2l0.9 2.5l19.1 -60.6l0.7 -2.2l-16.6 -5.5l29.4 -61.6l-37 -16.4l-34.2 -16.7l-1.1 1.7l-2.2 8.2l-0.4 3.7l0.9 3.7l-0.9 3.3l-0.7 4.5l-1.1 2.5l-0.4 1.9l-1.7 -1.7l-2.7 -1.7l1.2 0.1l-0.7 -1.1l1.3 -1l-0.5 -1.7l0.3 -1.2l1.5 -1.5l1 -2.3l1.7 -1l-1.3 -2.1l-0.6 -1.6l0.2 -2l-1 -2.4l-3.9 5.1l-9.2 -4.4l-24.3 38.4l-2.1 0.4l-1.3 2.5l-3.1 5.2z"/><g data-zip="03597"><path d="m597.1 290.5l0.3 1.7l-0.2 1.2l0.9 1.5l27.3 -4.1l-1 -6.7l49.7 -1.4l-0.7 -33.5l-1.4 -58.8l-7.5 -0.8l-2 -0.8l-6 -0.5l-3.8 0l1.6 -8.4l-19.8 2.7l-1.5 0.1l-22 3.3l-0.5 1.7l1.3 2.8l1.1 0.3l1.1 1.8l2.6 3.6l1.7 1.7l0.6 2.2l1.1 2.3l0.3 3.1l-1 2.6l-2.5 -0.1l-3.3 -1.1l-1.8 -0.5l1.4 8.6l-0.6 2.4l0.6 1l0 1.2l-1.3 1.1l-1 1.8l0.5 3.1l-0.5 2.8l-0.5 1.5l0 1.7l1.5 2.1l1.1 1l1.2 2.7l1.3 1.6l-0.3 2.1l-0.4 1.9l-0.6 3.4l-2.1 2.9l0.7 1.2l1.3 -0.2l1.8 0.7l1.8 1.9l-1.5 -1l-1.3 0l-1.6 1.4l-0.7 2.7l-1 0.6l-0.3 2.5l-1.1 2.1l-0.6 2.8l-1.3 2.1l-1.1 1.2l-0.7 2.3l-1 1.5l-1.8 4.4l-2.4 2.9l-0.4 1.9l-1.5 1.7l-1.2 3.3l0.1 3.5l-1.2 1.9z"/><path d="m555.5 33.6l1.8 0.5l2.6 4.9l1 -0.6l1 -4.7l1.9 0.3l4.6 -0.9l7.5 1.4l1.4 -0.3l3 -1.6l-0.1 -1.8l1.5 -0.8l6.2 -1.9l0 -1.5l-2 -3.9l2.1 -0.7l-2.8 0.1l-0.7 -1.1l-5 -2.1l-2 -2.2l-2.2 -1.1l-1.5 0l-3.7 3.3l-3 1.3l-2.4 0.3l-3.1 1.7l-3.4 4.3l-0.3 1.1l1.7 0.6l-0.8 2l-1.5 0.3l-0.2 1.3l-1.5 1.9z"/></g><path data-zip="03598" d="m433.1 478.4l6.7 11.2l1.8 2.1l6.7 10.8l22.1 32.8l5.4 -3.4l54.6 24.3l-2.5 -15.5l-0.1 -1.8l-2.6 -14.9l39.3 -6.4l-10.2 -68.8l-46.6 26.8l-17.3 -23.4l-2.2 2l-2.6 1.4l-4.6 0.6l-1 0.5l1 2.7l0.8 2.1l-0.5 1.4l-1.8 -0.7l-1.3 0.3l-0.4 1.5l-0.3 1.1l-2.7 1.7l-5.8 4.3l-4.7 3.1l-3.9 1.1l-3.2 -0.4l-1.2 -0.1l-1.7 -0.2l-2.9 0.3l-2.4 0.7l-1 0.9l-1.2 1.7l-1.3 3.4l-1.4 0.7l-2.5 -0.5l-2.6 -2.8l-1 -0.6l-3.2 -0.5l-1.6 0.3z"/><path data-zip="03603" d="m57.2 1413.3l0.4 1.5l-0.1 6.6l3.2 0.4l1.3 0.1l6.4 0.7l14.1 1.5l-2.3 -11.2l1.1 -0.8l1.4 -2.1l-1.6 -2.7l-1.3 -3.4l-1.6 -0.9l-0.7 -3.6l0.2 -1.2l1.4 -1.4l3.5 -0.4l-0.3 -2.2l35.3 -5.2l-1.7 -9.2l-6.1 -30.9l50.3 -7.7l2 -0.3l-1.8 -0.9l1.7 -2.1l0.8 -1.9l1 -0.9l0 -2l-1.2 -3l-0.7 -5.9l1 -0.5l0.1 -1.1l-2.9 0.3l-1.2 0.7l-1.2 -0.2l-2.3 -1.8l-1.6 0.1l-2.8 -1.5l-0.7 1.3l-2.7 0.2l-0.7 1.2l-1.1 0.6l-1 1.2l-0.3 1.1l0.2 2.1l1.3 4.7l-1.1 1.2l-0.2 3.4l-1.8 0.5l-1.5 1.4l-1.6 0.5l-4.7 -0.9l-1.8 -1.6l-2.9 -0.3l-1.1 0.8l-1.3 -0.3l-2.2 0l-3.1 0.4l-1.3 0l-0.3 -2.5l-1.2 -1.7l-1.2 -2.3l-2 -0.9l0.9 -1.2l1.5 -0.5l-1.6 -2.3l-1.8 -2.2l0 -1.9l1.1 -1.9l-0.1 -1.5l-0.5 -1.5l0.6 -2.4l0.2 -1.9l-1.5 -2.2l-0.4 2.1l-1.5 -1.8l-2.1 -1.3l-2.3 -0.8l3.1 -18.3l-29.9 -2.1l-1.4 2.4l-0.7 2l0.1 1l0.8 2l3.4 5.5l2.7 2.5l1 1.8l0.2 1.2l-3.4 7.2l-3.4 15.4l-4.2 8.6l-3.4 6l-7.5 3.7l-1.9 4.2l-0.1 6.5l1.2 4.4l1.3 2.5l0.3 1.1l-0.4 2.3l-1.7 3.9l-1.6 4.7l0 2.8l1.1 4.7l0.5 4.7l-0.7 1.3l-6.2 6.4l0.5 2.5l3.1 5.2l0.2 1.9l-0.8 1.3l-4.2 4.4z"/><path data-zip="03608" d="m49.1 1502.8l0.3 2.6l0.5 1.3l2 2.5l1.1 2.7l-0.4 3.5l-1.1 5.6l0.3 2.2l1.5 3.8l6.9 0.1l1.1 -0.2l1.1 0.3l18.1 0.8l18.5 2.3l8.8 0.7l4.4 0.2l-4.2 -34.9l-0.9 -7.1l-0.2 -1.6l-4.5 -34.4l-2.5 -2.6l-2.3 -0.4l-1.8 -1.9l-2.3 -0.5l-2.4 0.5l-1.2 -0.3l0.3 -1.7l2.5 -0.4l2.9 -0.8l1.8 -1.9l-3.2 -0.2l-0.9 1.7l-1.1 0.2l-1.3 0.3l0.4 -1.7l-1.5 1.1l-1.6 -2.1l-19.7 -1.6l-0.3 -18.1l-6.4 -0.7l-0.4 1.8l2.3 7.3l0.7 5l0.3 2l-0.3 1.7l1.1 4.5l6.1 4.8l-1.5 1.6l-1.4 0l-1 -0.9l-1.2 -1.3l-1.1 -3.1l-0.3 -1.3l-0.7 -3.1l-0.7 2.3l-1.2 0.7l1 2.6l1.8 2.2l0.9 1l1.6 2.8l0.2 4.2l-0.3 1.1l-0.9 2l-3.1 2.8l-1 1.9l-0.3 2.1l2.1 4.5l2.2 6.2l-0.1 2.3l-0.5 1.4l-2 3.5l-2.9 4.3l-5.2 5.9l-3.7 3.4l-1.3 1.2l-1.5 2l-0.5 1.6z"/><path data-zip="03609" d="m54.7 1431l0.1 1.4l1.6 3.4l1.1 2.4l2 1.3l2.2 -0.1l1.3 0.6l1.3 1l0.3 2.5l0.7 1.9l1.1 3.1l0.8 1l1.4 1.2l1.4 0l1.5 -1.6l-6.1 -4.8l-1.1 -4.5l0.3 -1.7l-0.3 -2l-0.7 -5l-2.3 -7.3l0.4 -1.8l-1 -0.1l-3.5 -0.3l0.3 4.6l-0.1 1.3l-0.5 1.1l-2 1.8z"/><path data-zip="03740" d="m276.6 647.3l0.6 5.2l1.2 2.2l1.1 3.2l-0.9 2.6l2 2.8l1.4 1l1.7 3.4l0.7 3.6l42.4 19.4l-0.1 3.3l0.4 2.1l0.9 1.1l0 -2.2l0.3 -1.6l-1 -2.1l3 1l-0.1 1.8l-0.7 3.1l0.2 1.4l1.5 0l1.9 -2.6l-0.3 -2.1l0.5 -1l-1.5 -2.4l-2.5 0l-1.8 -1.1l-2.3 0.3l-3.3 -3.1l-1.5 -2.4l-1.2 -3.9l-0.5 -2.8l0.3 -1.2l-0.3 -1.9l1.3 0.5l1.8 2l-0.7 3.1l0.9 2.8l1.7 1.6l2.1 0.5l1.4 0.7l1 1.4l3.4 -0.2l2 0.7l1.2 0.7l1.5 0.1l0.5 1.4l1.1 0.9l0 1l2.3 2.3l-1.1 0.9l4.4 0.9l1.6 0.8l1.9 -0.2l1.4 0.8l2 0.3l1.6 2.5l-12.3 -72.6l-34.7 -17.4l-8.4 -4.7l-2.3 3.2l-1.3 -0.5l-4.4 3.8l-0.9 -1l-1.1 0.9l3.8 5.2l-3.3 2.9l-1.9 2.2l-2.4 1.9l0.4 1.9l-1.2 0.9l-1.5 2.1l-1.8 4.1l1.2 1.4l0 2l1.7 2.5l1.2 -0.7l1 2.3l-3.8 3.5l-3.4 3.6z"/><path data-zip="03741" d="m219.3 1043.4l-2.3 3.8l5.4 2.8l21.1 9.5l3 -1.9l2.2 -0.7l0.8 2.5l-0.4 2.7l44.7 20.7l7.9 -12.1l18 4.7l2.2 0.5l1 0.5l36.5 10.8l4.1 -11.3l-6.2 -3.3l2.8 -5l-5.6 -3l2.5 -4.9l-3 -1.7l2.7 -5.2l-3.1 -1.6l3.6 -7.9l-1.1 -0.6l6.6 -12.9l3.4 -4.6l0.9 -1.6l0.3 -4.7l-1.2 -0.3l-20.7 -6.1l-19.6 -5.6l-10.1 -3.4l-10.9 -4.5l-7.4 -3l-24.6 -8.2l-17.2 -5.7l-0.4 2.4l-0.8 1l0.1 1.7l-0.4 1.4l-1 2.9l-1.1 2.2l1.4 3.6l-34.3 46.1z"/><path data-zip="03743" d="m77.6 1257.1l-0.3 2.8l0.5 8l0.2 1.2l0.7 1.2l5.2 3.5l1.9 0.3l4.5 -0.1l1.1 0.7l-0.4 1.5l-2.5 3.4l-2.1 2.1l-0.9 1.4l-3.1 6.1l30 2.2l-3.1 18.3l2.3 0.8l2.1 1.3l1.5 1.8l0.4 -2.1l1.5 2.2l-0.2 1.9l-0.6 2.4l0.5 1.5l0.1 1.5l-1.1 1.9l0 1.9l1 1.7l2.4 2.8l-1.5 0.5l-0.9 1.2l2 0.9l1.2 2.3l1.2 1.7l0.3 2.5l1.3 0l3.1 -0.4l2.2 0l1.3 0.3l1.1 -0.8l2.2 0.5l2.5 1.4l4.7 0.9l1.6 -0.5l1.5 -1.4l1.8 -0.5l0.2 -3.4l1.1 -1.2l-1.3 -4.7l-0.2 -2.1l0.3 -1.1l1 -1.2l1.1 -0.6l0.7 -1.2l2.7 -0.2l0.7 -1.3l2.8 1.5l1.6 -0.1l2.3 1.8l1.2 0.2l1.2 -0.7l0.3 -3.2l-0.1 -3.1l0.9 -3.3l5.8 -0.7l-0.5 2.4l0 1.2l15.1 -0.3l-0.4 -5.1l-0.5 -10.7l-17.9 -5.8l-4.4 -0.8l-1.1 -69.3l-67 -3.6l-2.4 -0.4l-1.9 10.3l-0.1 3.2l-0.8 5.5l-1.2 8.8l-0.8 1.5l-3.2 3.2l-1.1 1.1l-1.2 3.1z"/><path data-zip="03748" d="m204.6 1071.8l-13.8 30.8l20.3 8.5l35.4 15.5l-7.5 11.5l6 3l10 4.2l-6.2 9.9l0.3 -1.8l-1.5 -0.7l-2.8 0.5l-0.4 1.2l-0.2 1.2l2.5 0.3l0.8 1.2l-3.6 6l9.3 1.7l1.7 -0.5l0.4 -1.2l-0.3 -2.2l-1.1 -0.9l1.5 -2.1l-0.3 -1.6l-0.6 -1.9l1 -1.7l1.3 -0.4l1.6 -2.1l2.7 -1.3l1 -1.5l0.2 -2.1l2 -0.8l2.5 0.8l2.6 -4.3l1 -0.4l1.6 -3.1l0.2 -1.5l-0.5 -1.5l-3.9 -0.6l-1.3 -6.9l27 -43.9l-44.7 -20.7l0.4 -2.7l-0.8 -2.5l-2.2 0.7l-3 1.9l-21.1 -9.5l-5.4 -2.8l-4.3 6.9l-0.8 1.5l-0.6 1.2l1.6 -0.2l2.1 1.4l0.7 2.4l0.1 3.1l3.2 2.2l-0.7 2.4l-3.9 -2.7l-0.5 -1.8l-1.6 -1.5l0.1 -1.3l-2.3 -1.6l-1 2.3l-3.9 8.9l-0.7 1.2z"/><g data-zip="03755"><path d="m194.7 1036.4l-0.4 3.3l11.7 4l-1.4 -5.5l-4.9 -11.3l-1.8 -0.6l-3.2 10.3z"/><path d="m137.6 1021.5l2.7 0.8l1.1 0.4l9.1 2.9l5.1 1.6l-0.7 4.5l1.2 -0.2l1 1.5l-0.6 2.2l-1 0.6l0.4 1.2l1.4 0.2l2.7 -0.4l-0.9 -1.6l-1.6 -7.3l5.1 1.6l19.6 6.4l-0.6 -3l-0.3 -4.9l-0.8 -4.5l-0.4 -1.1l2.5 -1l-3.4 -8.7l-1.1 -2.4l-1.6 -1.8l-2.2 1.1l-2.6 1.3l-1.3 -0.1l-1.7 -0.6l-3.7 -2l-1.2 -0.4l1.1 -2l2.9 -4.3l1.3 0.8l1.5 1l3.2 0.5l2.5 -1.6l1.7 -2.6l0.7 -3.8l1 -2.2l0.2 -1.4l-0.4 -2.7l4.8 1.3l0.6 -1.3l1.7 -0.4l1.7 -1.6l1.2 -1.5l4.3 2.7l1 1.6l3.8 0.8l2 1.5l0.7 -2.6l1.5 -1.8l2.2 -3.6l1.4 -2.7l1.7 -0.8l2.6 1.8l3.4 1.1l1.2 0.6l2.3 2.6l-1.7 2.2l-5 6l-0.8 2.1l0.3 1.6l-1.7 3.1l0.1 3l-2 3.7l0.9 2.7l0.5 1.1l-0.4 5.8l-1.2 1l0 1.9l0.3 2.1l1.3 4.7l1 2.9l-1.2 2.8l-0.2 2.8l0.7 1.8l0.9 1.2l1.1 2.9l0.1 2.5l6.4 2.1l2.3 -3.8l34.3 -46.1l-1.4 -3.6l1.1 -2.2l0.3 -2.2l1.1 -2.1l-0.1 -1.7l0.8 -1l0.5 -1.9l-63 -20.4l-1.5 1.3l-1.8 1.2l-3.1 0.9l-2 2.2l-1.1 2.9l-0.9 1.5l-5 7.2l-6.8 3.9l-10.5 6.8l-3.8 0l-2.7 5.4l-2.1 1.8l-1.5 1.7l-1.2 1.4l-1.2 2.4l-2.9 4.5l-1.5 1.8l-2.6 1.8l-0.8 1.4l-0.9 1.5l-1.3 5.3l-0.1 2.5z"/></g><path data-zip="03766" d="m140.6 1091.4l-1.4 2.6l15.3 2.8l13 1.8l23.3 4l13.8 -30.8l0.7 -1.2l3.9 -8.9l1 -2.3l2.3 1.6l-0.1 1.3l1.6 1.5l0.5 1.8l3.9 2.7l1.1 -2.4l-3.1 -1.3l-0.6 -4l-0.7 -2.4l-2.1 -1.4l-1.6 0.2l0.5 -1l0.7 -1l4.5 -7.6l-6.4 -2.1l-4.5 -1.5l-11.7 -4l-11.9 -3.8l-19.6 -6.4l-5.1 -1.6l1.6 7.3l0.9 1.6l-2.7 0.4l-1.4 -0.2l-0.4 -1.2l1 -0.6l0.6 -2.2l-1 -1.5l-1.2 0.2l0.9 -3.7l-5.3 -2.4l0.9 2.5l-7.4 9.3l-2.1 3.2l3.8 4.7l3.3 13.1l1.2 -0.7l-0.3 1.1l1 2l0.8 1l-3 2.9l-1.2 1.7l-2.7 1.6l-1.2 1.2l-0.5 2.2l2.3 3l1.9 4.6l-6 11.3l-0.5 1.1z"/><path data-zip="03773" d="m157.1 1188l-1.1 11.7l1.3 24.6l1.1 69.3l4.4 0.8l17.9 5.8l0.5 10.7l0.4 5.1l-15.1 0.3l0 -1.2l0.5 -2.4l-5.8 0.7l-0.9 3.3l0.1 3.1l-0.3 3.2l2.9 -0.3l-0.1 1.1l-1 0.5l0.7 5.9l1.2 3l0 2l-1 0.9l-0.8 1.9l-1.7 2.1l1.8 0.9l-2 0.3l-1.8 3.1l0.3 3.1l1.7 -0.3l5.9 0.5l1.6 1.4l1.5 2.5l3.1 -1l3 0.2l-1.5 -9.6l-0.7 -1.4l-1.2 0.3l-1.4 0.7l-2.4 1.4l-1.4 -0.6l-1 -0.9l0.9 -1.1l1.5 -0.1l2.5 0.1l2.7 -0.4l43.7 -7.7l-3.2 -20.7l1.7 0.6l1.8 -5.1l4.3 1.5l4.5 -12.3l8.5 1.5l0 -2.2l0.6 -33.2l-1.3 -0.5l-1.1 -1.1l2.4 -1.2l0.2 -12.6l0.9 -6.8l0.4 -3.2l1.1 -7.4l-2.3 -2.9l-3.7 -2.6l-1.1 0.3l1.1 -2.7l0.1 -1.2l0.7 -2l0 -1.1l1.1 -2.3l1.1 -1.2l0.9 -1.6l1.2 -1.3l0.9 -2.1l1.3 -1.4l0.8 -3.4l1.3 -3l0.4 -2.1l0.7 -1.2l0.9 -7.7l-13.6 -5.4l-3.9 6.1l-39.1 -15.2l-6.9 -2.7l-1.5 -0.6l-7.7 15.2l-9 -3.8l-0.5 1.9l-4.2 -1l-0.4 3.8z"/><path data-zip="03774" d="m274.7 703.2l-0.1 1.5l1.3 6.9l0.8 1.7l1.5 1.5l1.9 0.4l0.8 -1.2l0 -2l1.2 -1.8l1.1 -0.7l1.9 0.6l2 1.1l0.8 1.1l0.2 1.5l-0.6 4.6l-1.3 2l-1.4 0.8l-2.2 0.3l-1.7 0l-0.3 1.1l1.5 1.1l2.1 1.2l2.9 1.2l1 1.9l-0.5 1l-1.6 1.1l-1.2 0.3l-1.3 -0.2l-1.5 -1.7l-1.1 -0.3l-1.7 0.9l-2.6 0.7l-0.6 1.3l2.1 2.3l0.5 1.5l-0.4 1l-1.9 2.2l1.8 1.6l-0.2 2l-0.9 3.6l-1.3 3.5l-1 3.8l1.2 0.6l1.3 0.3l5 2.5l-0.4 2.2l1.9 1.1l-0.1 1l-1.4 0.8l-1.5 0.2l1.6 0.4l3 1.9l2.9 -1.8l1.5 -1.3l1 -2.2l1.1 -3.2l1.4 -0.7l1.8 0.2l2.7 -11.4l2.9 0l0.2 -1.7l1.3 0l1.1 0.5l-1.4 -1.7l-0.7 -1.3l1.5 -0.5l3.2 0.4l1.6 -1.4l9.1 4.3l5.4 -3.2l-0.6 -8.4l1 8.2l7.8 -4.6l0.8 1l2.3 1.6l0.9 1.5l-0.1 1.3l-5 16.2l2.7 0l3.8 -5l-0.7 -4.7l0.3 -1.5l1 -1.5l2 -1.2l2 -2.5l1 -0.3l8.4 -25.9l-2.6 -1.8l-2.1 -1.7l-1.2 -1.1l-0.2 -1.6l-0.9 -1.5l-1.8 -1.3l-1.8 -0.7l-2.8 0.4l3.4 -0.7l0.2 -2.1l-0.5 -2.9l-1.7 -0.7l-1 2.5l-0.1 2.7l-1.1 -0.8l-1.2 1.8l-1.5 1.5l-2.2 0.9l-1.6 -1l-0.9 1.8l-1.8 -0.1l-2.4 0.3l-1.5 -1.4l0.5 -2.5l0.8 -2.4l-5.8 -2.3l-1.7 2l-1 0.7l-4.6 -1.6l-2.6 0.3l1 -3l2.4 -3.5l1.5 -3.1l-2.3 -2.3l-4.8 -2.4l-1.9 -2.2l-1.3 9.7l-11.7 -1.1l-4.2 0l-0.2 1.9l-2.6 3.4l-0.8 2.7l0.1 -1.2l0.7 -1.8l2.2 -3.6l1.1 -4.1l0.3 -2l-0.6 -2.7l-1.2 -2.9l-1.2 -1.9l-0.9 -3.3l0.5 -1.2l-1.5 -0.3l-0.1 -3.4l-1.2 1.3l0.2 7l0.2 4.4l2.3 2.6l2 1l-1.8 5.9l-1.7 -0.7l-3.2 1.3l-3.2 3.1l-1.3 5.9z"/><path data-zip="03781" d="m88.1 1151.9l60.4 5.5l-1.3 -1.1l-2.1 -2.7l-0.2 -1.9l0.9 -2.8l-1.5 -2.9l-1.9 -0.3l-1.4 -2.3l-1.2 -0.2l3.3 0l1.5 0l-0.1 -1.9l7 -7.2l4.1 -0.4l1.3 -0.7l0 -1.3l1.2 -1.3l-0.1 -1.1l0.5 -2.3l1 -0.4l0.5 2.3l3 2.7l2.6 -3.5l3.9 -3.9l2.1 -0.6l2.5 -2l1 0.6l-1.1 5.2l-0.5 1.6l0.9 2.1l1.4 2l1.5 1.4l-1.1 0.8l-2.1 0.7l-2.7 2.8l-3.7 -4l-1 -0.9l-1.3 1.2l2.2 1l0.7 2.5l1.3 1.4l-0.2 1l0.5 3.1l-0.7 1.1l-2 0.8l-1.1 1.6l-1.5 3.4l8.1 0.8l0.9 3.3l1.2 0.1l4.9 2.6l-2.5 5.2l1.3 0.7l2.3 1.7l0 1.1l-0.7 3.2l1 0.4l-1 2l6.9 2.7l6 -8.3l7.4 -11.3l0.4 -26.8l10.3 -17.6l-20.3 -8.5l-23.3 -4l-13 -1.8l-15.3 -2.8l-14.8 -2.7l-1.5 0.6l-9.6 8.8l-7.6 3.1l-5 3.2l-3.5 4l-1.7 7.5l-0.1 1.3l0.9 5.7l0.4 10.6l-1.6 4.3l-3.2 5.2l-2.8 0.7l-0.9 2.7l0.1 2.5z"/><path data-zip="03784" d="m121.8 1076.9l-0.2 3.6l1.1 3.2l1.7 1.4l0.7 1.2l0.3 3.2l-0.5 1.4l14.2 3.2l1.4 -2.6l0.5 -1.1l6 -11.3l-1.9 -4.6l-2.3 -3l0.5 -2.2l1.2 -1.2l2.7 -1.6l1.2 -1.7l3.7 -2.9l-1.5 -1l-1 -2l0.3 -1.1l-1.2 0.7l-3.3 -13.1l-4.2 -4.1l2.5 -3.8l7.4 -9.3l-0.9 -2.5l-9.1 -2.9l-1.1 -0.4l-2.7 -0.8l-0.3 6.7l0.9 1.9l0.7 2.3l-0.2 3l-0.5 3.4l-0.8 2.2l-2.8 5.1l-1.1 1l-0.6 1.7l-0.3 2.5l-0.2 1.5l-0.1 1.1l0.7 2.2l-0.1 2.8l-0.6 1.2l-4 1.7l-2.7 1.6l-1.2 1.5l0.1 1.5l1.2 1.3l-0.8 3.2l-1.9 1.5l-1.1 4.4z"/><g data-zip="03785"><path d="m295 666.9l-0.9 3.4l3.6 3.6l1.8 1.3l2.6 -2.7l0.1 -1.6l-0.9 -2.1l0.1 -2l-0.7 -2.3l0.3 -1.9l-2.4 0.5l-1.9 1.7l-1.7 2z"/><path d="m279.3 597.5l0.1 2l0.8 1.7l-0.8 -3.7z"/><path d="m269.3 638.5l-0.9 5.5l2.6 3.7l2.1 4.2l2.4 8.8l0.8 1.3l1.4 0.9l0.8 2.5l1.4 0l1.5 0l-0.9 2.7l0.6 1l1.5 -0.2l0.4 1.2l-0.5 1l-0.2 2.8l1.8 0.9l-0.5 1.2l0.9 3.3l1.2 1.9l1.2 2.9l0.6 2.7l-0.3 2l-1.1 4.1l-2.2 3.6l-0.7 1.8l-0.1 1.2l0.8 -2.7l2.6 -3.4l0.2 -1.9l4.2 0l11.7 1.1l1.3 -9.7l1.9 2.2l4.8 2.4l2.3 2.3l-1.5 3.1l-2.4 3.5l-1 3l2.6 -0.3l4.6 1.6l1 -0.7l1.7 -2l5.8 2.3l-0.8 2.4l-0.5 2.5l1.5 1.4l2.4 -0.3l1.8 0.1l0.9 -1.8l1.6 1l2.2 -0.9l1.5 -1.5l0.4 -1.5l1.9 0.5l0.1 -2.7l1 -2.5l1.7 0.7l0.5 2.9l-0.2 2.1l-2.5 0l1.9 0.3l1.8 0.7l1.8 1.3l0.9 1.5l0.2 1.6l1.2 1.1l1.3 1.7l3.4 1.8l-8.4 25.9l-9.5 29.9l0.8 2.1l1.4 2.6l-1.9 -0.1l-1.5 -0.2l0.7 1.5l-0.4 1.4l1.9 1.9l1.6 1.5l1.9 1.9l2.2 -0.4l1.8 1.5l1.8 1l0.8 1.5l2.2 1.4l1.1 -0.5l0.2 1l1.4 1l2.3 0.4l0 1.4l1.5 1.5l1.2 0.3l3.4 1.8l1.2 0l1.8 1.7l17.1 2.4l26.1 3.6l0.8 -2.5l1.8 -5.3l-0.1 -4.9l14 -58.6l-2.5 0.1l-3 -1.3l-1.9 -1.7l-2.5 -1.6l-2.7 -1.1l-1.1 -0.7l-3.8 -3.3l-2 -2.5l-2.3 -1.8l-2.9 -1.5l-3.1 -0.5l-2 0.4l-1.2 -0.3l-2.1 -1l-1 -1.1l-0.9 -2.5l-0.6 -1.2l-1.6 -1.9l-1 -0.3l-3.4 -2.6l-2.4 -0.4l0.1 2.2l1 1.4l-0.7 1.6l-2.2 -0.2l-2.9 -0.2l-2.8 -1l-2.6 0.1l-3.9 -0.5l-2.1 -2l-1.2 -0.8l-1.1 -1.9l-1.6 -0.9l-1.8 -0.3l-1 -0.6l-1.6 -2.5l-2 -0.3l-1.4 -0.8l-1.9 0.2l-1.6 -0.8l-3.8 0l0.5 -1.8l-2.3 -2.3l0 -1l-1.1 -0.9l-0.5 -1.4l-1.5 -0.1l-1.2 -0.7l-1.2 0.1l-4.2 -0.6l-1 -1.4l-1.4 -0.7l-2.1 -0.5l-1.2 -0.9l-1.4 -3.5l0.7 -3.1l-1.8 -2l-1.3 -0.5l0.3 1.9l-0.3 1.2l0.5 2.8l1.2 3.9l1.5 2.4l3.3 3.1l2.3 -0.3l1.8 1.1l2.5 0l1.5 2.4l-0.5 1l0.3 2.1l-1 1.8l-2.4 0.8l-0.2 -1.4l0.7 -3.1l0.1 -1.8l-3 -1l1 2.1l-0.3 1.6l0.8 1.5l-1.7 -0.4l-0.4 -2.1l0.1 -3.3l-42.4 -19.4l0.2 -2.7l-2.6 -4.3l-1.4 -1l-1.8 -1.9l0.7 -3.5l-1.1 -3.2l-1.2 -2.2l-0.6 -5.2l2.5 -3.2l4.7 -3.9l-1 -2.3l-1.2 0.7l-1.7 -2.5l0 -2l-1.2 -1.4l1.8 -4.1l1.5 -2.1l-1.1 0.3l-3.1 -3.2l1.2 -6.9l1.4 -6.3l1.6 -3.4l0.1 -1.1l-0.5 -1.8l-1.7 -0.6l0.3 2.3l-0.8 1.7l-0.6 4.4l-1 2.7l-0.7 2.1l0.4 3.3l-0.7 2.9l-1.1 -0.2l-3.1 7.4l0.3 1.6l-0.5 3l-0.6 1.3l-1.9 1.5l-0.6 1.1z"/></g><path data-zip="03801" d="m919.4 1482l-2.5 2.5l3 3.7l3.4 3.4l2.4 1.8l3.6 1.6l3 0.9l8.9 2.1l1.4 -0.2l2 -1.5l1.9 -0.3l4.1 -0.7l1.4 7.3l3.1 24.6l4.6 2.5l10.7 2.4l22.8 -31.8l2.7 -1.8l-1.4 -4.1l0.4 -1.4l1.7 -0.4l1.2 0.2l1.7 0.6l0.4 -1.5l-0.6 -1l-3 0.3l-1.6 -0.7l-0.5 -1.3l0.3 -2l-1.7 -2.1l-8.5 -2.7l-3.7 -7.1l-1.9 -2.4l-7 -2.4l-2.6 -3.7l-3.3 -2.7l-2.1 -1.7l-8.1 -7.8l-6.2 -4.1l-3.2 3.4l-2.9 0.3l-1.6 -0.3l-2.2 -1.1l-1.9 -1.7l-1.5 -1.9l-1.5 -1.2l-2.3 -0.8l-2.4 0.2l-1.9 0.7l-1.9 1.2l-0.9 1.2l0 1.9l2.2 2.8l0 1.4l-1.1 2.4l-0.1 2.3l0.6 4.5l0.2 3l-0.2 2.7l-1 4.5l-1 1.4l-2.4 1.4l-3.6 3.3z"/><path data-zip="03809" d="m697 1208.5l-3.4 -0.8l7.2 5.7l5.3 3l-1.5 3.2l-1.1 0.6l-5.8 8.3l15 10.7l2.3 1.8l6.7 4.7l7.9 5.3l14.5 10.5l1.2 1l2.3 1.3l2.7 1.9l1.1 -0.3l0.3 1.6l4.3 3l8.3 6.1l-1.4 -6.9l-8.4 -56.7l-2.7 -14.5l-1.8 -13.4l-1.4 -18l-2 -8.4l0.8 -1.8l6.5 -8.6l4.8 -6l4 -4.1l-19.8 -14.9l0 1.4l-1.1 3.7l-1 1.9l-1.1 -0.5l-1.9 1.7l0.3 1.3l-1.3 -1.5l-4.4 -1.7l-0.5 1.8l-1 0.7l-2.6 -1.9l-1.8 0.4l0.7 2.3l0.1 1.6l0.5 1.6l-0.3 1.9l2.1 2.2l-0.7 2.9l-1.4 -0.4l-1.7 0.9l-0.1 1.2l-0.9 2.1l0.3 1.1l2.1 1.1l-0.9 1.6l-0.9 1.3l-1.4 -0.4l-0.6 -1l0.1 -2l-1.4 0.6l-1.4 -0.2l-0.2 1l-0.3 2.8l2.7 2l0.3 2.6l-0.9 1.8l0.1 3l-1.5 0.7l-2.2 2.1l0 2.2l-0.5 3.4l0.7 1.4l0 2.3l0.9 1.9l1.1 0.6l1.7 2l0.1 1.7l0.7 -2.1l-1.5 -2.3l2.8 2.8l0.8 5.9l-0.6 2.3l0 1.7l-0.6 1.3l-1.2 -0.5l-0.5 -1.2l-1.4 -1.7l-0.5 -1.3l1.8 3.5l0.8 2.2l-0.1 1.1l-9.9 4.9l-4.3 4.4l1.5 1.2l1.9 4l0.9 1.2l-2.3 0l-4.9 0.6l-2.2 -0.6l-0.3 -1.3l-2.9 -1.2l0.5 1.8l-1.3 1.3l-2.3 0.6z"/><path data-zip="03812" d="m624 626.9l-5.8 1l7.3 33.1l14.2 9.3l5.8 27.7l0 11.3l-2.8 4.7l8.4 22.3l10.8 -0.2l-1.8 3.8l-14.5 25.9l-3.9 5.4l34.4 -1.7l76.6 2l13.7 -1.9l-1 -5.4l-2.3 -0.7l-1.4 -1l-1.3 -0.3l0.1 -1.5l-0.6 -2.1l-1.7 1.3l-2.9 -1l-1 -1l-1 -1.8l-1.3 -1.6l-2.3 -6.3l12.5 -2.2l-2.1 -15.8l4.1 0l0.8 -1.3l1.5 0.9l1.4 -1.9l-1.8 -2.4l-0.8 -2.2l-1.7 -0.3l-0.7 -2.8l-0.7 -3.4l-1.2 -0.3l-2.5 -2.1l0.1 -1.1l1 -1.7l-1.5 -2.1l-1.7 0.4l-1.5 -0.1l-1.7 0.8l-2.4 -0.8l-1.7 1.9l-1.5 0.1l-2.6 -1.3l-2.8 -0.4l1 0.4l-0.6 3.5l-0.5 1l-1 0.7l0.4 1.5l-2.3 2.6l0.3 -1l-1.5 0.3l-1.8 0.7l-1.2 1.1l-1.8 -1.7l-3.6 0.9l-1.1 0.9l-2.9 0.4l-1.8 -0.5l-2.1 0l-1 0.9l-2.9 0.7l-1.4 1.1l-1.5 0l-1.2 0.7l0.2 1.4l-1.2 0.4l-1.6 -0.7l-1.5 0.6l-1.3 -0.9l-2.3 1.9l-1.7 -0.6l-3.2 0.6l-1.4 0.6l-0.6 -2.4l-2.9 -0.9l-1.1 0.3l-3.3 -1.9l-2 0.6l-2 -1.2l-2.2 -0.5l-1.1 -0.8l-0.2 -1l-1.2 -1.4l-0.2 -1.1l-1.9 -1.2l-0.3 2.4l-6.7 0.1l-6.4 4.4l-4.2 -4.8l0.2 -23.9l-7.2 -32.3l-15.2 -9.9l-5.8 -27.3l-11.5 1.9z"/><path data-zip="03813" d="m792.1 755.3l-1.2 -0.5l4.6 19.7l-1 0.4l0.7 2.7l1.4 2.2l5.2 4.6l1.2 -0.6l1.7 0.6l-1.6 0.4l0.2 1.1l-0.2 3.3l1.2 2.6l-0.4 1.5l-1.8 1.6l-0.4 1.7l-2.2 -0.2l-3.6 1l-0.7 1.4l0.3 3l1.8 -1.1l1.3 2.7l1.7 1.4l0.1 6.3l1.1 2.5l2.6 5.2l1.2 0.2l-0.1 -2.3l16.9 -0.8l1.4 29.4l12.1 0l-0.1 -2.3l2.4 -1.8l1.6 -0.1l3.5 0.8l2.3 -0.4l3.1 0.3l2.6 0l4 0.6l-0.8 -23.5l-2 -61.6l-1.6 -39.4l-4 -116.3l-0.1 -9.9l-0.3 -7.9l-0.5 -12.3l-18.6 0.8l0.4 6.8l0.8 28.6l-15.3 0l-15.3 1.6l0.3 57.4l1.2 62.8l6.5 -0.6l0 2.6l27.1 -0.6l-2.2 1l-1 1.6l-1.1 1.9l-1.8 0.6l-0.7 1l-0.2 1.3l-1.1 0.8l-1.6 0.8l-0.8 1.5l-0.8 2.5l-1.2 0.6l-8.8 7.1l-9.4 5.9l-3.3 0l-2.5 -0.5l-2.6 0l-1.5 -1.5z"/><path data-zip="03814" d="m708.5 944.1l-10.2 15.1l13.3 2.5l3 0.1l2.6 0.8l6.2 13.2l0.8 2.2l14 29.7l13.9 -4l1.1 -0.4l8.6 -6.9l0.9 -2.3l2 1.7l1.3 -2.2l1.2 -2.9l2.7 -1.2l1.4 0.2l1 1.5l-0.2 -1.3l-0.9 -2.3l17.2 0.9l1.6 0.4l-10.5 -9.8l3.5 -4.6l7.6 -10.4l0.8 -1.3l15.9 -20.7l-1.1 -0.2l-1.1 -0.8l-2.6 -3.5l-0.9 -1.6l-2.6 -0.5l-1.1 -0.8l-1.2 0l-0.4 5.6l-0.3 2.5l-1.3 1.8l-0.5 1.5l-1.6 0.1l-1.2 2.4l-0.1 1.5l-0.4 1.9l-3.2 -0.1l-7.6 -1.6l-5.2 -1.6l-1.5 -0.7l-1.1 -1.7l-0.8 -3.3l-1.2 -3.2l-1.5 -2.2l-2 -1.8l-2.9 -1.6l-2 -0.5l-2.5 0.2l-0.4 -5l0.7 -1l-7.5 4.9l-4.6 -5.2l-1.9 -1.9l1.9 -3.1l-0.2 -2.4l0.2 -1l-1.5 -1.5l-2.7 1.2l-2.8 1.2l0.2 2.1l0.7 1l3.1 2.6l0.3 1.7l-2.2 1l2.8 2.7l1.8 0l-0.5 1.3l0.3 1.2l0.7 1l-0.6 1.2l0.2 1.1l2.8 4.3l1.2 1.6l1.1 2l1.1 1.4l-2.4 3l-0.5 2.4l-1.1 1.5l-4 -2.9l-1.4 -0.2l-2 0.7l-1.3 0l-1.4 -0.6l-3.1 -0.4l-5.6 -25.5l-12.6 5.7l-9.6 14.2z"/><g data-zip="03818"><path d="m791.4 792.8l2.9 0.9l-2.9 -0.8z"/><path d="m641.6 771.3l2.6 18.6l0.6 4.3l0.3 1.9l7.3 49.6l2.1 -0.8l2.3 2.4l-0.2 1.8l1.5 0.2l-1.2 3l-0.2 1.3l-1.3 1.4l4 3l14.2 -2.3l-0.5 -2.6l-0.6 -4.7l7.5 -0.9l0.9 7.2l11.8 -1.5l4.5 -0.6l31.7 -5.5l6.3 -1.2l7 -8.4l5.5 -6.5l7.6 -9.1l0.9 -1l2.7 -0.5l2.7 0.3l6.9 -1.4l1.1 -0.1l2 -2.7l0.1 1.8l-1 1.9l0.3 1.7l1.1 -1.3l2.2 2l5.3 -6.3l6.8 0l0.2 3.2l-0.1 2l0.1 4.4l-0.2 3.3l1.3 1.9l1.9 0.7l0.4 1.6l0.1 12.7l5.8 -0.3l10.5 -0.5l-0.3 -14.6l-0.4 -1.6l-0.4 -10l-1.2 -0.2l-2.6 -5.2l-1.1 -2.5l-0.1 -6.3l-1.7 -1.4l-1.3 -2.7l-1.4 0.9l-0.7 -2.8l-1 0.1l0.7 -3.3l-3.8 -0.4l-0.4 2.3l-1.8 2.5l-1.4 1.2l-1 -2.4l0.8 -1l1.8 0.2l0.7 -1l-0.2 -2.7l-1.9 0.8l-1.6 -2l0.6 -1.5l3.5 -0.5l0.3 -1.6l-1.4 -0.7l-2 -2.1l0 -1.1l1 -0.8l0.4 -2.7l-1.1 -1.1l-2.3 -4.9l-0.8 -2.7l-0.8 -3.1l-1.2 -0.1l-0.6 -1.6l1.6 -1l-4.6 -2.5l-0.1 -1.8l-1.6 -0.4l-1.6 -3l-0.5 2l2 3.6l0.9 1.1l1 2.8l1.6 2.7l0.2 1.8l-1.3 5.7l-0.4 3.1l1.3 2l1.2 2.5l-0.6 1.3l-0.2 2.7l-2.1 1.6l-2.9 0.4l-2.3 0.1l-1.1 0.5l-1.2 -0.2l-4.5 -23.8l-13.7 1.9l-76.6 -2l-34.4 1.7z"/></g><path data-zip="03820" d="m867.3 1388.5l1.6 1.3l4.5 1.4l3.6 3.2l2.1 1l1.7 -2.6l1.7 -0.4l1.2 1.4l3.1 3.5l4.4 5l6.6 7.5l-1.6 1.8l-1.5 1.7l0.5 1.8l2.5 0.9l1.8 1.3l3.7 0.1l1.3 -0.2l1.6 1.7l2.4 2.7l3.4 3.7l2.8 3.1l10.2 9.9l0.4 2.2l0.1 1.1l5.8 3l2.7 2.2l1.1 1l1.5 1.2l1.5 1.9l1.9 1.7l2.2 1.1l1.6 0.3l2.9 -0.3l3.2 -3.4l-3.7 -3.4l-0.7 -1.5l-0.7 -2.5l-0.4 -4.4l-1.6 -3.7l-0.5 -2.7l2.6 -8.2l0.7 -6.4l-0.3 -1.9l1.1 -2.3l1.2 -0.9l0.3 -1l-0.7 -3.8l-1.9 -5.2l0.2 -1.5l1.5 -1.3l2.5 -0.9l0.7 -1l0.1 -1.6l-0.5 -1.3l-4.9 0.8l-1.5 -0.2l-0.1 -1.5l-2.4 0.3l-0.8 -2.5l0 -1.5l-0.5 -1.9l-3.3 0.5l-2.3 1.3l-5.5 -1.5l-1.7 -1.2l-2.3 -0.9l-1 -0.2l-1.5 -1.4l0 -1.1l-0.9 -1.2l-6.2 -6.7l-1.4 -1.2l-1.4 -0.9l-0.5 -1.4l-20.7 -21.5l-3.1 5.3l-3.3 5.1l-5.6 8.7l-1.8 2.8l-3.7 5.8l-1 1.6l-2.8 4.4l-2.3 3.6z"/><path data-zip="03824" d="m869 1441.5l-7.2 39l18.5 -4.1l1.1 -0.3l1.7 -0.4l2.5 -0.6l1.8 -0.4l22.9 4.6l9.2 2.6l3.6 -3.3l2.4 -1.4l1 -1.4l1 -4.5l0.2 -2.7l-0.2 -3l-0.6 -4.5l0.1 -2.3l1.1 -2.4l0 -1.4l-2.2 -2.8l0 -1.9l0.9 -1.2l1.9 -1.2l1.9 -0.7l2.4 -0.2l2.3 0.8l-1.1 -1l-2 -1.8l-6.5 -3.4l-19.7 -9.8l-2 -0.9l-30.9 -10.8l-3.1 17.7l-0.7 3.6z"/><path data-zip="03833" d="m803.4 1569.4l-0.2 3.2l5.6 0l2.3 0l7.7 0l13.1 0l6 0l3.6 0.2l1.9 0.1l1.4 0.1l3.3 0.3l2.7 -0.7l1.6 0.5l2.6 0.8l-0.5 2.1l2.6 1l2.8 -2.6l1.5 9.8l1.1 11.2l0.4 2.4l0.7 5.8l0.3 14.3l13.7 -1.7l19.3 1.9l-0.7 -6.2l-0.3 -9.3l-2.4 -14.2l-1.6 -15.2l-0.2 -1.5l8.7 -3.3l4.4 -1.7l1.2 -0.4l2.5 -1l4 -1.5l-10.2 -7l-8.3 -5.7l-3.5 -2.4l-1.8 -1.6l-2.8 -1.6l-0.6 -1.7l-1.2 -1l1.1 -1.8l-1.8 0.1l-0.8 -1.7l1 -0.5l1.3 0.5l-0.3 -2.5l-0.6 -2.2l0.5 -2.7l2 -1.8l0.9 -1.2l0.5 -1.6l-5 -1.2l-2 -0.1l-1.1 1.7l-5.9 -3.4l-30.3 -7.6l1.5 10.1l-20.5 -0.2l-14 -0.1l-6.1 -0.1l0.4 1.2l-0.7 1.9l0.4 2l-0.7 2.3l2.6 0.5l-2.6 26.7l-0.2 2.5l-0.2 3.9l-0.1 2z"/><path data-zip="03835" d="m764.7 1274.2l-0.5 1.7l48.5 41.9l2.7 -3.7l6.2 -6.9l34.6 -45.6l-4.6 -3l-30.9 -23.6l-12 -9.2l-4.1 -2.2l-1.7 2.2l-32.1 41.3l-1.5 0.8l-4.7 6.1z"/><path data-zip="03839" d="m840.8 1340.7l4.9 5.6l1.3 1.1l-2.2 3.7l-0.1 1.6l1.4 1.2l1.3 1.5l2.2 2.7l1.5 0.1l1.2 -0.5l2.4 -2.3l0.3 -1l5 4.1l2.9 2.4l14.5 12.3l1.4 -2.1l-0.7 -1.1l1.1 -2l1 0l-1.4 -2.5l0.3 -1.9l-1.1 -1.1l1.1 -2.3l-2.1 -1l-1.6 -1.8l2 -4.1l-2.2 -2l-1.3 -2.2l-2.4 -6.8l1.6 -0.3l1.7 -1.2l-5.7 -6.6l-1 -0.9l-2.5 -1.6l-4.1 -2l-1.4 -1.4l-4.4 -6.3l-0.8 -1.9l-2.5 2.4l-1.9 2.7l-3 2.8l-2.2 1.1l-1.8 4.5l-0.3 1.6l-1.4 3.9l-0.8 1.4z"/><path data-zip="03842" d="m906 1566.2l-1.2 0.4l1.9 1.9l1.2 3.2l3.5 2.3l1.9 2.2l1.6 1.4l1.3 1.9l0.6 1.3l1.3 0.9l0.3 1.2l-0.3 2.1l1.6 4.6l1.3 0.1l1.2 0.7l1.7 1.6l2.1 0.8l1.2 1.3l1.7 -0.2l0.2 1.2l1.2 0.3l-0.6 1.7l1 0.5l1.1 0.7l2.9 -0.2l0.2 1.9l-1.2 4.2l2.4 -0.1l-1.3 1.8l1.3 1.4l1.7 -2.3l0.8 2.1l3.6 0.6l5.5 4.6l0.8 2.1l-0.2 4.4l1.8 2l1.1 1.2l0.6 -3.1l2.9 0.6l0.1 -7.6l0.3 -2l0.7 -2.4l1.5 -2.8l1.9 -0.8l4.3 -0.4l-1.9 -2.1l-0.3 -2.5l0.5 -4.3l2.1 -7.4l1.8 -2.2l2.5 -0.9l-0.2 -2.5l0.8 -2.5l0.9 -1.2l-1.5 0l-1.5 -0.5l-24.6 -4.6l-12.2 -3.4l-1.5 -0.4l-7.5 -2.6l-8.4 -2.4l-4 1.5l-2.5 1z"/><g data-zip="03845"><path d="m777.9 733.8l-0.8 -1.3l2.5 5.6l6.3 4.2l1.4 0l-1 -0.7l-0.8 -1.7l-0.8 -2l-1.4 -0.5l-1.2 -0.2l-2.5 -1.6l-1.8 -1.8z"/><path d="m757.7 687.3l1.9 5.9l0.7 1.3l1.5 3.5l0.4 1.4l1.8 2l2.8 6.2l-2.7 -0.4l3.2 3l-0.8 1.6l-1.8 2.1l-1.6 0.8l-1.9 0.3l2.1 3.5l0 1.4l-0.5 2.4l2.4 1.2l0.8 2.2l1.8 2.4l-1 1.1l-1.9 -0.1l-0.8 1.3l9.1 0l1.9 -0.1l4.1 0.5l2.2 0.3l3.2 0.5l2.6 0l7.6 -0.1l1 0l1.6 0.2l8 -0.1l0 -2.6l-6.5 0.6l-1.2 -62.8l-0.3 1.2l-1 -0.1l-1.9 1.4l-2.7 2.8l-1.4 0.9l-1.1 4.3l0.4 1.2l-0.1 2.3l-0.4 2.7l-1.2 1.4l-2.1 0.7l-1.7 1.4l-1.2 -0.3l-1.8 0.2l-2.2 -0.6l0.1 1.1l1.5 0.2l0.6 2.7l0.2 1.2l-10.6 0.9l-7.7 -0.6l-0.6 -3.5l-5.1 -1z"/></g><path data-zip="03847" d="m779.3 730.5l0.3 3.9l2.4 1.2l0.1 1.6l1.2 0.2l1.4 0.5l-0.1 1.1l1.7 2.6l1 0.7l1.7 -0.5l1 -0.6l0 -1l-1.6 -3.1l-0.2 -1.6l2 -0.3l3.7 0l3 1.8l4.6 -0.2l0.1 -1.3l1 -0.6l1 -0.9l-1.5 0.8l-1.6 -0.6l-2.1 -2.4l-1.5 -0.7l-2.4 2.4l-2.6 -0.6l-1.7 0l-0.6 1l-2.2 0.9l-0.9 1l0.8 -2.5l0 -2.1l-2.6 0l-3.2 -0.5l-2.2 -0.3z"/><path data-zip="03850" d="m671 1025.1l1.5 3.3l1.8 1.6l1.8 0.6l2.7 -0.5l1.7 0l2.6 1.4l1.2 -1.4l3.7 -1.2l2.4 0.1l1.7 0.5l1.4 0.3l1.5 1.4l1.5 0.6l2.6 0.4l2.1 -1.9l1.5 -0.4l2.3 1.2l-1.3 -2.7l-5.1 -3.7l-1.9 -4.2l-1.2 -1.9l-2.5 0.1l-1.1 -1.2l-2.4 0.2l2.9 -2l-0.2 -2.1l-0.5 -1.5l-1.2 -1.3l-0.4 -1.1l1.3 -2.1l-4.4 -2.1l-1.1 -0.7l-13.6 18.1l-1.5 2.2z"/><path data-zip="03851" d="m805.7 1222.6l-1 1.3l3.6 3.1l11.9 9.1l31.5 22.8l3.9 2.7l2 -1.4l1.1 -1.5l0.4 -1.3l0 -3.2l0.4 -1.9l-1.3 -2.1l0 -1.5l0.2 -1.5l2.5 -1l0.2 -2.2l-0.1 -1.2l-1.6 -1.7l-0.5 -1.4l-0.1 -1.8l-0.1 -1.7l-0.1 -2.8l0.2 -1.5l0.9 -2.1l1.2 -2.2l2.6 -2l1.9 -0.8l2 -1.9l1.5 -2.8l-0.5 -2.6l0.3 -1.6l1.1 -0.7l1.9 -3.9l-2.3 -2.5l-1.5 -1.2l-0.3 -1.6l0.5 -1.7l0.1 -1.9l1.6 -2.8l0.1 -1.3l-1.6 -0.6l-2.7 -2l0.2 -2.1l-1.1 0.2l-0.4 -1.8l-2.1 -1.3l-0.8 -2.4l-1.5 -0.6l0.3 -1.3l-1.2 -0.4l-1.1 0.5l0.1 -1.4l-1.3 -0.7l-1.9 -1.5l-1.3 0.1l-0.1 -1l-1.1 -0.4l1 -1.3l1 0.4l0.6 -1.3l-0.1 -1.2l0.5 -1.6l-0.2 -1.2l-1.5 -2.7l-1 -5.2l0.2 -4.6l-0.8 -1.6l-13.6 18.4l-5.7 7.6l-6.3 7.8l-4.8 7.1l-2.4 2.4l-2.5 3.2l-2.2 3.7l-6.7 7.8l-1.8 3.3z"/><path data-zip="03852" d="m851.5 1180.8l1.5 1.2l0.1 1l1.3 -0.1l1.9 1.5l1.3 0.7l-0.1 1.4l1.1 -0.5l1.2 0.4l-0.3 1.3l1.5 0.6l0.8 2.4l2.1 1.3l0.4 1.8l1.1 -0.2l0.5 1.7l2 2.4l1.6 0.6l-0.1 1.3l-1.6 2.8l-0.1 1.9l-0.5 1.7l0.3 1.6l1.5 1.2l2.3 2.5l-1.2 3.5l2.4 -1.5l0.1 -1.6l-0.3 -1.9l-2.3 -3.4l-0.6 -2.2l0.3 -2.4l1.2 -2.4l1.9 -7.4l-0.5 -2.3l-1.6 -2.7l-3.6 -0.4l-1.1 -0.8l-0.7 -1.8l2.8 -2.1l0.9 -1.9l-0.9 -1l-0.3 -1.7l1.6 -3.8l2.6 -4.9l1.5 -1.2l0.7 -6.5l1.8 -1.3l-0.3 -1.2l-0.8 -1l1.5 -4.6l0 -2.9l-1.5 -1.2l-0.1 -3.4l-0.6 -2.1l-2.4 -2.1l-0.5 -1.8l0.1 -1.6l0.6 -1.6l-3.7 4l-16.6 21.5l0.8 1.6l-0.2 4.6l1 5.2l1.5 2.7l0.2 1.2l-0.5 1.6l0.1 1.2l-0.6 1.3l-1 -0.4l-1.4 0.5z"/><path data-zip="03856" d="m844.1 1502.8l-0.2 14l30.6 6.9l5.6 4.1l1.1 -1.7l2 0.1l4.7 0.3l-0.9 -1.5l0.3 -2.2l-0.1 -2.1l-1.3 -2.9l0.8 -1.6l1.8 -0.6l2.2 -3l1.6 -1.8l3.6 -1l3.5 -7.1l-12 1.9l-4.3 0.4l-16.7 -0.9l-1.6 0.1l0.2 2.7l-6.5 -0.5l1 -2.7l-15.4 -0.8z"/><path data-zip="03857" d="m843.3 1489.7l0 5.1l0.9 1l0 1.9l-0.1 5.1l15.4 0.8l-1 2.7l6.5 0.5l-0.7 -2.1l2.1 -0.7l16.7 0.9l3.8 -0.3l12.5 -2l0.4 -2l2.1 -3.2l1.4 -1.4l3.6 -2.3l2.3 -1.7l7.8 -7.6l2.5 -2.5l-8.4 -1.9l-22.9 -5.2l-2.6 0.3l-2.1 0.5l-2.1 0.5l-1.1 0.3l-18.5 4.1l-17.4 0.3l-0.2 8.1l-1 0.7z"/><g data-zip="03860"><path d="m786.5 735.8l0.9 -1l2.2 -0.9l0.6 -1l1.7 0l2.6 0.6l1.5 -2.3l-1 0l-7.6 0.1l0 2.1l-0.8 2.5z"/><path d="m780.3 728.2l1.1 0.8l-1.1 -0.7z"/><path d="m760.5 727l-0.1 1.1l1.3 0.6l0.1 -1.1l-1.4 -0.7z"/><path d="m749.6 748.2l2.3 6.3l1.3 1.6l1 1.8l1 1l2.1 1.1l2.5 -1.4l0.1 2l0.4 1.6l1.3 0.3l1.4 1l2.3 0.7l1 5.4l4.5 23.8l1.2 0.2l1.1 -0.5l2.3 -0.1l2.9 -0.4l2.1 -1.6l0.2 -2.7l0.6 -1.3l-1.2 -2.5l-1.3 -2l0.4 -3.1l1.3 -5.7l-0.2 -1.8l-1.6 -2.7l-1 -2.8l-0.9 -1.1l-2 -3.6l-0.4 -1.4l2.5 2.4l1.6 0.4l0.1 1.8l4.6 2.5l-1.6 1l0.6 1.6l1.2 0.1l0.4 2.6l1.2 3.2l2.4 4.1l0.6 1.2l0 3.4l-1 0.8l0 1.1l2 2.1l1.4 0.7l-0.3 1.6l-2.7 0.2l-1.5 0.9l1.3 2.7l2.3 -0.6l0.5 1.8l-1 1.9l-1.8 -0.2l-0.8 1l0.4 2.2l2 -1l1.8 -2.5l0.4 -2.3l3.8 0.4l-0.7 3.3l1 -0.1l0.7 -1.4l3.6 -1l1.5 0.4l1.1 -1.9l1.8 -1.6l0.1 -1.2l-0.8 -2l0.1 -4.2l-0.2 -1.1l1.6 -0.4l-1.6 -0.9l-1.3 0.9l-5.2 -4.6l-1.4 -2.2l-0.7 -2.7l1 -0.4l-4.6 -19.7l1.2 0.5l1 1.4l3.1 0.1l2.5 0.5l3.3 0l9.4 -5.9l8.8 -7.1l1.2 -0.6l0.8 -2.5l0.8 -1.5l1.4 -0.1l1.3 -1.5l0.2 -1.3l0.7 -1l1.8 -0.6l0.4 -1.3l1.7 -2.2l2.2 -1l-27.1 0.6l-8 0.1l2.9 2.8l1.6 0.6l1.5 -0.8l-1 0.9l-1.5 -0.3l0.4 2.2l-4.6 0.2l-3 -1.8l-3.7 0l-1.9 -0.5l0.1 2.4l1.6 3.1l0 1l-1 0.6l-1.6 0.1l-1.5 0.4l-6.3 -4.2l-2.5 -5.6l0.8 1.3l1.8 1.8l2.5 1.6l-0.1 -1.6l-2.4 -1.2l0.2 -3.1l-4.3 -1.3l-2.2 0.1l-9.1 0l-4.1 0l2.1 15.8l-12.5 2.2z"/></g><g data-zip="03867"><path d="m893.7 1300.8l0.6 2.2l-0.1 -1.8z"/><path d="m812.7 1317.8l2.4 2.1l6.5 5.1l4.5 4.2l14 12l1.5 -2.1l1.4 -3.9l0.3 -1.6l1.4 -4l2.6 -1.6l3 -2.8l1.9 -2.7l1.7 -1.6l1.6 1.1l4.4 6.3l1.4 1.4l4.1 2l2.5 1.6l1 0.9l5.7 6.6l-1.2 1l-2.1 0.5l2.4 6.8l1.3 2.2l2.2 2l-2.2 3.2l2.6 2.3l0.5 1.9l-0.3 1.8l1.5 0.7l-0.7 2.3l1.5 1.7l-1.1 0.8l-1.1 2l1.1 0.4l5.6 -8.7l3.3 -5.1l3.1 -5.3l5.4 -8.3l3.1 -4.7l3.8 -5.7l-2.4 0.2l-1.6 -0.1l-1.9 -0.8l-9.2 -7.7l-1.5 -0.8l-3.8 -1.2l-0.2 -3.6l1.4 -0.1l9.3 -0.8l-2.6 -5.9l-1.5 -3.4l-7.9 -6.2l-1.6 -1.1l-4.1 -2.6l-1.4 0.6l-1.9 -0.3l-4.6 -3.8l-1.4 -0.5l-2.2 1l0.8 2.6l-0.3 5.1l-1.7 -0.8l-3.4 -4.7l2 -0.8l-2.5 -0.1l1.1 -2.9l0.2 -1.8l-0.4 -4l3.1 2.7l-0.3 -3.6l-0.6 -7.7l-1 -10.1l-0.9 -3.1l-0.8 1.6l-0.1 4.4l-0.9 1.1l-0.7 -7l-0.3 -1.7l-1.4 -2.9l-34.6 45.6l-6.2 6.9l-2.7 3.7z"/></g><path data-zip="03868" d="m856.3 1261.6l1.3 3l0.3 1.7l0.7 7l0.9 -1.1l0.1 -4.4l0.8 -1.6l0.9 3.1l1 10.1l0.6 7.7l0.3 3.6l-3.1 -2.7l0.4 4l-0.2 1.8l-1.1 2.9l1.7 0.3l-1.2 0.6l3.4 4.7l1.2 -0.2l0.2 1.9l0.6 -6l-0.8 -2.6l2.2 -1l1.4 0.5l4.6 3.8l1.9 0.3l1.4 -0.6l4.1 2.6l1.6 1.1l7.9 6.2l1.5 3.4l1.8 5.2l-8.5 1.5l-1.4 0.1l0.2 3.6l3.8 1.2l1.5 0.8l9.2 7.7l1.9 0.8l1.6 0.1l2.4 -0.2l1.7 -2.6l1.4 -2.2l0.2 -1l0.5 -2.4l1.1 -1l-2.1 0.5l-3.1 -0.2l-0.8 -1.4l1.9 -2.5l1.4 -1.4l0.5 -1.9l-1.1 -2.6l-1.2 -0.3l-1.2 0.3l-1.7 -1.3l-1.5 -1.2l0.5 -1.2l-0.2 -7.4l-1.9 0l-4.5 -3.5l-3.9 -3.8l-0.5 -1.1l-0.3 -2.7l-0.3 -1.7l-2.4 -0.5l-1.7 0.4l-6.2 1.6l-0.8 1.1l-1.9 -1.1l-0.4 -1.2l-0.4 -1.1l-1.4 -2.5l-2 -0.6l-1.2 -0.9l-4.8 -11.2l0.4 -3.7l-1.2 -3.3l-2.8 -4.6l-1.6 -2l-0.3 -1.4l-1 -0.2l-1.1 1.5l-1.2 1.6z"/><g data-zip="03872"><path d="m826.3 1070.7l0.5 1.1l2.1 0.1l-2.6 -1.1z"/><path d="m782.7 1110.3l-1.2 1.7l1.8 9.8l7.1 40l2.7 -4.2l2.4 4l2.8 -3.6l2 3.3l2.1 -4l2.5 4.5l9.4 -15.5l2.4 2.3l3.6 -3l2.1 2.6l3.3 -3.8l1 3.7l3.6 -3.8l4.7 22.7l0.5 1.3l1 -0.1l-1.2 -1.5l-0.4 -1.4l0.6 -10.5l0.8 -4.4l1.1 -2.5l0.2 3l1.7 -0.7l1.2 0.1l1.3 1l2.4 -2.9l1.2 6.4l0.8 1.2l1.4 1.1l3.7 4.3l16.6 -21.5l3.5 -4.2l2 0.5l1.6 -1l0.6 1.1l0.6 -3l1.4 -5l-1.4 -1.3l-0.9 -1.1l-0.5 -4.2l-0.8 -1.2l-2.5 -1.2l-3.7 -4.4l-2.3 -1.1l-0.7 -17.1l-3.6 0.5l-2 0l-3.2 0.9l-0.8 1.5l-2.2 0.6l-1.8 -1.3l-1.8 0.3l1.4 -1.2l0.8 -2.4l-0.7 -1.7l-1.7 -1.3l-1.4 -0.4l-3 1.6l-0.8 1.5l0.2 1.5l0.9 2l-4.3 0.5l-1.7 -0.3l-1.6 -1.4l-4.4 -4.4l-0.3 -1l-2.4 -4.5l-0.5 -1.4l-0.7 -3.8l-5 -14.6l1.6 0.2l2.1 -0.5l-0.8 -1.8l1.4 0.3l2.2 1.1l1.1 1.4l2.2 1.3l1.4 -2l-0.1 1l2.3 1.3l-0.5 -1.5l0.6 -1.4l-0.3 -1.2l1 -0.4l0.9 1.1l1.7 1.9l5.6 -2.1l5.9 -0.6l2.8 0.6l1.8 0.1l0.6 1.1l0.4 -1.2l-0.2 -1.7l0.1 -2.5l-4.6 -2.5l-2.8 -1.8l-2.8 -2.5l-3.2 -1.4l-4.7 -0.7l0.7 -1.4l-0.6 -2.6l1.4 -1.9l-0.4 -2.1l-1.6 -3.2l-0.6 -2.3l0 -1.2l0.8 -2.1l-21.3 27.2l-8.8 11l-2.7 3.2l-2.2 3.2l-11.6 14.4l-11.1 14.5z"/></g><path data-zip="03874" d="m896.3 1611.8l0.7 6.2l0.1 1.1l0.9 7.6l6.4 0.1l9.1 2.9l20.5 16.2l6.1 -3l3.6 -2.9l4.9 -2.2l2.4 -0.3l0.7 -4.2l0.2 -5l1.2 -1.9l1.4 -3.9l0.1 -3.2l-2.9 -0.6l-0.4 2.2l-1.3 -0.3l-1.8 -2l-5.1 -0.6l-0.1 3.3l1 0.2l0.7 1.1l-0.2 2.8l-2.2 -2.4l-0.6 -2l-2 -1.8l-0.7 -3.3l-1.1 1.2l-1.2 -1l-1.7 0.2l0 -1.5l-0.7 1.1l-1.4 0.1l-2 -1.7l-2.9 -1.1l-4 1.1l-3.6 0.1l-3.2 -0.2l-6.8 -0.8l-2.1 -0.3l-2.4 1.1l-1.2 0.5l-1.4 0.3l-3.4 -1.4l-0.6 -1.6l-2.2 -0.5l-1.2 0.2z"/><path data-zip="03878" d="m896.3 1342.9l-5.4 8.3l20.7 21.5l0.5 1.4l1.4 0.9l2.7 -0.7l4.3 -3.5l2 3l1.7 -0.5l2.2 0l-0.2 -3.6l0.1 -2.5l1.2 -0.7l3.4 -2.1l3.9 -2.5l4.5 -2.7l-1.1 -3.3l0.8 -1.3l-1.9 -2.9l-4.8 -1.9l-1.7 1.2l-1.7 -0.8l-0.9 -2.6l-0.8 -2.5l-1 -1.5l-1.5 -0.6l-1.4 0.1l-1 -0.4l-0.5 -1l-0.7 -1.9l-0.9 -1.3l-1.4 -0.4l-2.7 0l-1.1 -3.7l-0.5 -1.3l-1 -2.7l-2 -1.1l-3.3 -0.8l-1.3 -1.4l-1.9 2.9l-1.7 2.6l-3.8 5.7l-3.1 4.7z"/><path data-zip="03887" d="m793.1 1157.6l-2.7 4.2l12.6 64.2l1.7 -2.2l1 -1.3l1.8 -3.3l6.7 -7.8l2.2 -3.7l2.5 -3.2l2.4 -2.4l4.8 -7.1l6.3 -7.8l5.7 -7.6l13.6 -18.4l-3.7 -4.3l-1.4 -1.1l-0.8 -1.2l-1.2 -6.4l-2.4 2.9l-1.3 -1l-1.2 -0.1l-1.7 0.7l-0.2 -3l-1.1 2.5l-0.8 4.4l-0.6 10.5l0.4 1.4l1.2 1.5l-1 0.1l-0.5 -1.3l-4.7 -22.7l-3.6 3.8l-1 -3.7l-3.3 3.8l-2.1 -2.6l-3.6 3l-2.4 -2.3l-9.4 15.5l-2.5 -4.5l-2.1 4l-2 -3.3l-2.8 3.6l-2.4 -4z"/><path data-zip="03894" d="m696.6 1099.7l13.6 13.4l16.6 5l10.4 10.7l2.7 -1.4l2.4 -5.1l20.1 15.2l5.1 -6.1l-0.3 -1.2l1.6 -0.6l12.6 -17.7l1.2 -1.7l10.5 -13.7l12.2 -15.2l2.2 -3.2l2.7 -3.2l8.8 -11l-7.3 -5.3l-17.6 -13.6l-7.5 -5.5l-2.1 2.6l-1.2 -0.7l-9.8 -6.3l-5.7 -4.1l-6.3 8.9l-9.5 -6.5l-2.1 -1.9l-6.3 8.2l-0.7 1.4l-1.9 2.1l-15.9 21.9l-4.7 -2.1l-1.3 -0.3l2.6 -3.1l-2.4 0.1l-1.9 -1l-1.3 1.6l1.3 1.6l-0.6 1.2l-1 0.5l-1 -0.2l-0.8 1.2l3 1.6l-1.8 3.5l-0.8 1.4l-2 2.5l-0.5 2.6l-0.9 1.6l-1.1 -0.5l-1.4 0.1l0.6 2.4l-0.6 3.2l-0.5 1.9l-2 3.6l-0.5 2.3l0.8 1.9l-0.3 2.4l-3 1.6l-3.6 0.7l-2 1l-1.2 1.2z"/></svg>
