<?xml version="1.0" encoding="UTF-8"?>
<!DOCTYPE svg PUBLIC '-//W3C//DTD SVG 1.1//EN' 'http://www.w3.org/Graphics/SVG/1.1/DTD/svg11.dtd'>
<svg viewBox="0 0 5327.931164444482 9412.383590666752" xmlns="http://www.w3.org/2000/svg">
  <g data-zip="03031">
    <path d="m2593.9 8747.5l0 0l4.6 29.3l-1.4 7.4l1 2.3l2.6 21.1l4.3 -0.4l30.7 -3.7l5.5 -0.3l7.5 35.4l26.7 6.3l0.2 5.1l9.2 34.2l19.9 2.2l5.7 8.9l11.8 5.5l5.2 9.9l12 -4.5l2.7 -4.9l0.6 11.8l4.5 37.5l3.4 29.3l4.5 38.8l11.8 -1.8l14.6 -2.1l16.3 -2.3l24.7 -3.2l6.3 1.1l5.3 -2.6l58.9 -7.9l14.1 -2l2.4 0.9l-1.4 -12.2l-6.8 -54.8l-9.6 -71.4l-4.9 -30l-17.7 -106.2l-12.7 -77.4l-0.2 -1.3l4.8 0.4l0.8 -5.7l-6.3 1.1l-1.5 -9l21.9 -3.4l-0.4 -4.7l-2.3 -2.9l-2.4 -13l-2 -11.1l-0.2 -0.8l-3.9 -22.3l-7.2 -40.4l-16.1 -89.6l-1 -2.1l-0.7 -0.2l-81.1 14.4l-90 16.9l9.9 44l-14.4 2.9l5.1 35.5l9.6 50.2l-12 1.8l7 17.6l-6.1 9.5l8.3 38l-19 1.5l-52.7 11l5.1 29.9l-12.8 2.2l4.1 29.2l-6.1 0.9z" />
    <path d="m2510.5 8846l0 0l-17.7 -1.5l43.9 9.1l10.2 -5.1l17.2 1.1l16.6 5.6l2.3 -10.3l-8.6 1.8l-1.2 -8.7l-7.9 -2.4l4.4 -7.2l-3.2 -4l-18.6 2l-18.9 4.4l-2 -9.9l-16.7 14.1l0.3 11.2z" />
  </g>
  <g data-zip="03036">
    <path d="m3630.1 8472.3l0 0l8.1 1.9l75.7 18.3l173.6 41.1l2.2 7.9l7 6.8l-0.4 -12.3l-1.5 -10l-1.2 -22l-2.9 -47.1l-0.1 -14l-3.6 -47.6l-1.1 -15.8l-1.7 -23.9l40.4 6.6l25.7 2.8l23.6 3.5l39.7 5.7l2.2 -6.6l14.2 -40.7l9.4 -27.3l7.3 -21.1l-49.7 -10.8l-30.1 -10.6l-17.6 -6.2l-53.9 2.1l1.2 -6.6l-140.5 -39.8l6.4 -17.1l12.1 -36.7l-78.1 -21.2l-5.2 47.8l-14.3 74.4l-9.5 31.1l12 2.4l-12.8 50.3l-4.8 -0.7l-31.8 135.7z" />
  </g>
  <g data-zip="03038">
    <path d="m3504.7 8462.4l0 0l-4.6 3.3l6.7 -2.3l6.4 -5.8l1.9 -0.9l5.6 -0.2l5.7 -5.5l0.5 3.9l-6.4 4.6l-2.5 0.2l2.4 3.5l7 -5l18.3 137.8l3.6 28.4l1.4 15.4l7.3 75.6l3.2 50.6l2.5 4.9l-5.5 3.2l-1.1 8.9l5.1 5.9l-2.5 3l6.5 4.1l-2.4 7.2l1.5 21.3l4 1.4l-3.5 5.4l1.2 17.7l109 -15.7l59.8 -8.6l1.9 -1.9l2 1.4l26.2 -3.8l62.3 -10.2l1.6 10.5l66.1 -10.7l37.5 -5.7l-2.5 -14.6l1.7 -1.6l-1.7 -0.9l-0.6 -0.9l-0.2 -3.1l0.1 -0.8l1.5 -0.1l-3.1 -5.7l2 -3.6l-2.3 1.7l-3.1 -42.2l3.5 5.8l6.6 -1.6l1.8 7.6l3.6 -2.3l4 -8.9l4.3 -0.4l1.7 -16.6l-4.6 -21.9l-6 -3.6l-8.5 7.9l-0.1 5.1l-8.9 7.4l0.6 8.9l-3.5 -1.7l-2.8 -16.3l2 -7.8l-4 -4.7l-4.4 -27.5l-4.5 -25.7l-8.7 -49.2l-0.4 -18.7l0 -20.2l-7 -6.8l-2.2 -7.9l-173.6 -41.1l-75.7 -18.3l-8.1 -1.9l-5.1 -1.2l-112.6 -26.3l-3.2 11.8l-4.5 5.8z" />
  </g>
  <g data-zip="03042">
    <path d="m4100.1 8129.2l0 0l-1.2 2.7l19.8 0.1l169 1.2l32.3 0.3l74.5 0.6l109.3 1l-8.1 -53.8l1.3 -74.5l0.4 -27l0.2 -10.2l-5 -5.6l0.2 -27.1l5.5 -3.9l0.8 -43.3l-175.8 1.2l-142.3 1.3l-6.4 17.6l-20.2 57.4l-29.1 83.3l-5.1 14.5l-6.9 19.9l-2.2 6.4l-7 20l-4 17.8z" />
  </g>
  <g data-zip="03045">
    <path d="m2667.9 8000.6l0 0l18.6 82.1l-10.8 2.4l-0.7 18.8l-4.9 12.7l3.1 3l6.8 1.1l3.2 -2.4l6.9 0.5l5.1 5.7l1 3.4l42 200.9l18.6 7.3l88.8 -13.1l80 -12l101.9 -16l25.7 -29.5l-11 -4.5l-0.7 -4.8l-5.8 -1l-4.2 -4.3l-11.6 -0.5l4 -12.9l6 -3.8l-4.4 -7.3l7.7 -7.6l-1.5 -1.2l2.9 -3.1l7 0.2l7.5 3.3l4.3 -4.2l13.4 9.7l12.3 4.7l-3.8 -19.5l-6.9 -1l-10.1 -6.7l-5.4 -5.9l2.7 -12.3l15 -1.1l-12.2 -70.1l1.9 -0.8l-3.5 -7.9l-2.9 -16.7l-11.8 -67.4l-12.7 -71.2l-1 -5.7l-16.8 2.7l-343.9 56.1z" />
  </g>
  <g data-zip="03048">
    <path d="m2140.3 9090.1l0 0l4.3 7.3l1.9 9.6l3.7 4l5.8 34.1l4.1 -2.2l6.5 2.2l4.9 -1.7l-4.8 3.4l-11 -0.1l34.4 226.5l95.6 3.5l76.6 2.8l1.3 0l129.4 3.9l-26.8 -191.1l-8.1 -56.2l-5.1 -34.4l-21.6 3.4l-17.1 0.9l-7.2 -27.8l-5.1 -23.3l-6.8 -6.6l-7.6 -3l-9.9 -10.9l-19 5.8l-6.3 5.5l-7.9 2.1l-10.2 6.8l-5.5 -0.9l-0.9 -6.3l2 -8.9l-92.5 12.7l-56.8 7.8l-6.6 2l-4.1 -0.2l-26.3 5.4l2.9 18.6l-5.9 5.3z" />
  </g>
  <g data-zip="03051">
    <path d="m3190.7 9024.9l0 0l-4.4 0.8l9.3 6.5l4.6 6.3l3.8 9.4l1.8 28.7l-1.9 15.3l4.3 12.3l-0.9 4.5l3.6 5.4l27 31.1l5.4 7l0.8 9l9.5 21.2l2 13l-4.1 17.4l-0.4 10.3l2.9 9.9l2.4 19.2l4.3 9.2l8.4 12.6l2.3 10.1l-0.6 4.8l-5.9 9.1l-4.9 12l-0.9 6.8l4.4 39.2l-0.9 8.6l2.8 16.9l11.1 26.5l132.3 4.3l4.4 -20.9l50.9 -233l7.2 -31.5l-1.8 -13.9l8.2 -39l-3.6 -4.3l0.9 -14.2l-1.5 -11.1l-4.4 0.1l5.9 -7.2l0.1 -8l5 -0.9l-1.5 -6.6l6.5 -6.2l-77.2 -97.7l-116.1 -5.1l7.9 47.6l0.4 9.2l1.1 0.1l5 30.5l-5.6 7.7l-2.9 2.7l-5.4 -0.1l-3.8 -6.9l-3.4 0.8l1.2 6.1l-11.3 -0.1l-16.9 1.9l-67.4 12.4z" />
  </g>
  <g data-zip="03053">
    <path d="m3235 8535l0 0l-6.4 0.9l19.2 118.1l1.6 9.2l22.3 130.7l3.4 19.9l16.9 99.3l116.1 5.1l77.2 97.7l9.3 -1.6l1.7 -11.5l8.4 0.3l-2.4 -7l2.6 -7.1l5 -3.8l6.2 -0.8l4.6 -4.4l3.8 -7.8l-4.5 -11.4l8.9 -10.1l3.1 -7.3l-4.8 -8.3l1.3 -6l5.5 -6.8l-14 -7.5l-0.9 -2.5l6.5 -9.8l-3.6 -15.8l2.7 -6.6l-2.6 -1.5l3.8 -12.4l-8.3 -10.1l49 -7.1l-1.2 -17.7l3.5 -5.4l-4 -1.4l-1.5 -21.3l2.4 -7.2l-6.5 -4.1l2.5 -3l-5.1 -5.9l1.1 -8.9l5.5 -3.2l-2.5 -4.9l-3.2 -50.6l-7.3 -75.6l-1.4 -15.4l-3.6 -28.4l-18.3 -137.8l-7 5l-2.4 -3.5l2.5 -0.2l6.4 -4.6l-0.5 -3.9l-5.7 5.5l-5.6 0.2l-1.9 0.9l-6.4 5.8l-6.7 2.3l4.6 -3.3l4.5 -5.8l3.2 -11.8l-0.5 -0.1l-2.4 -0.6l-72.4 -17.2l4.3 26.5l0.8 4.7l-7.8 1.3l-6.9 1l-10.4 1.6l-47.3 7.3l-36.2 5.5l-2 0.3l-34.5 5.1l-14.5 2.2l6.1 17.4l-9.9 23l-4.6 0.7l3.5 5.7l-5.2 4.9l-20.3 0.4l-17.1 0.5z" />
  </g>
  <g data-zip="03054">
    <path d="m2853.7 8632.5l0 0l1.5 9l6.3 -1.1l-0.8 5.7l-4.8 -0.4l0.2 1.3l12.7 77.4l17.7 106.2l4.9 30l9.6 71.4l6.8 54.8l1.4 12.2l0.3 2.1l2.9 12.1l3.3 29l16.4 -26.7l5.5 -2l-0.6 -2.2l-0.4 -4.5l6.8 -6.5l4.6 4l6 -10.5l-1.1 -5.1l9.1 3l2.4 7.6l4.1 -1.6l7.2 5.4l5.3 1.2l13.8 -2.9l3.7 4.7l8.3 4.1l7.3 -7l19.3 5.5l5.7 -1l0.9 -4.9l13.1 -10.8l5.1 -1.9l24.7 3.1l5.1 -2.9l6.3 2.2l0.7 5.1l4.4 6.7l-3.1 11.2l-4.3 5.1l5.3 11.6l4 3l10.9 2.2l13.1 -0.4l8.3 1.6l6 3.8l1.4 4.8l8.2 1.5l6.6 -3.4l12.4 -9.5l2 -9.5l-3 -6.7l2.3 -8.4l1.6 -1.4l-5.3 -6.9l-8.9 -15.2l0.5 -14.9l-1.2 -16.8l-3.2 -13.7l-13.5 -12.2l-2 -9l2 -5.7l-0.2 -9.6l-4.2 -16.6l-10.5 -22.7l-1.6 -6.9l6.2 -18.8l2.8 -11.6l0.3 -9.1l-0.8 -8.4l-9.2 -30.5l-2.8 -11.6l0 -8.4l4 -12l12.8 -15.3l3.7 -6.7l0.7 -6.3l4.4 -4.8l4.2 -8.8l14.3 -19.2l12.3 -14.2l3 -1.6l6.3 -8.6l0.6 -5.2l11.8 -26.1l13 -17.8l3.3 -12.6l3.3 -30.9l-2.7 0.5l-138.4 23.6l-7.7 1.3l-47.7 8.3l-59.6 10.3l-43.5 7.1l-2.2 1l-27.3 4.6l-6.4 1l-6.6 1l-21.9 3.4z" />
  </g>
  <g data-zip="03055">
    <path d="m2410.5 8810.7l0 0l1.1 7.4l4.5 30.5l1.6 10.9l35.2 242.2l5.1 34.4l65.9 -8.1l-10.1 -77.5l111.1 -14.5l32.1 -4.3l2.2 19l7.8 64.4l42.3 -15.2l12.5 -33.1l14.1 -2.1l13.2 -8.8l22.1 -10.7l-4.3 -28.1l-11.8 1.8l-4.5 -38.8l-3.4 -29.3l-4.5 -37.5l-0.6 -11.8l-2.7 4.9l-12 4.5l-5.2 -9.9l-11.8 -5.5l-5.7 -8.9l-19.9 -2.2l-9.2 -34.2l-0.2 -5.1l-26.7 -6.3l-7.5 -35.4l-5.5 0.3l-30.7 3.7l-4.3 0.4l-2.6 -21.1l-1 -2.3l1.4 -7.4l-4.6 -29.3l-14.9 2l-22.5 3.2l-33.8 4.8l-10.3 1.4l0.4 2.2l2.4 12.6l2.5 14.2l-10.1 3.8l-17.5 3.2l-8.1 -3l0.8 5.7l-38.5 8.7l-33.9 4.6z" />
  </g>
  <g data-zip="03060">
    <path d="m3098.8 9154.2l0 0l2.5 61.6l1.3 8.3l3.7 9.2l5.9 9.2l6.2 5.3l36.5 25.8l6.9 3l13.3 -0.3l15.5 -6.8l10.5 -0.2l-6.3 1.5l9.4 2.6l6.8 5.3l4.1 6.7l8.4 23.5l2.7 22.3l0 7.9l-3.7 37.5l0.5 16.3l4.5 13.8l49 1.6l-11.1 -26.5l-2.8 -16.9l0.9 -8.6l-4.4 -39.2l0.9 -6.8l4.9 -12l5.9 -9.1l0.6 -4.8l-2.3 -10.1l-8.4 -12.6l-4.3 -9.2l-2.4 -19.2l-2.9 -9.9l0.4 -10.3l4.1 -17.4l-2 -13l-9.5 -21.2l-0.8 -9l-5.4 -7l-18.1 2.6l-9 -5.6l-4.1 5.6l4.6 11.5l-5.5 1.4l-22.7 -5.3l-6.2 0.8l-4.4 8l-13.3 1.9l-8.4 -11.1l-5 6l2.9 6.3l-2.6 3.6l-21 0.8l-8.4 -11.5l-2.9 -15.1l3.8 -4l-1.2 -5.6l-7.3 2.4l-10.3 16.2z" />
  </g>
  <g data-zip="03062">
    <path d="m2954.3 9397.7l0 0l1.2 0l1.5 0l4.9 0.2l3.9 0.1l0 0l70.4 2.3l24.5 0.8l7.6 0.2l0 0l134.4 4.3l23.5 0.8l1.3 0l-4.5 -13.8l-0.5 -16.3l3.7 -37.5l-0 -7.9l-2.7 -22.3l-8.4 -23.5l-4.1 -6.7l-6.8 -5.3l-9.4 -2.6l6.3 -1.5l-10.5 0.2l-15.5 6.8l-13.3 0.3l-6.9 -3l-36.5 -25.8l-6.2 -5.3l-5.9 -9.2l-3.7 -9.2l-1.3 -8.3l-2.5 -61.6l-6.2 13.4l-10.3 10.8l-6 0l-8.5 11.5l-2 15.1l-2 3.6l-8.4 3.6l-7.9 11.1l-20.1 5.6l-12.5 18.2l-16.3 4.8l-6.5 3l-1.4 4.7l-7.3 8l-1.8 12.5l-1.9 20.8l-6.5 3.9l-2 13.3l1.6 3.6l-3.2 18.3l-3.5 20l-2.4 12.6l-0.1 2.3l-2.1 6.3l0.6 2.4l-7.7 14.3z" />
  </g>
  <g data-zip="03063">
    <path d="m2907.3 9048.1l0 0l-6.7 7.9l7 5.3l3.3 7l10.6 -4l4.4 5.4l7 3.6l7.3 -0.9l1.5 9.4l-14.4 21.1l39.8 -5.8l20.3 -7.1l6.1 16.4l6.6 -0.1l7.2 17.9l-4 71.4l-0 14.9l-1.4 8.6l-5 31.1l1.7 1.6l16.3 -4.8l12.5 -18.2l20.1 -5.6l7.9 -11.1l8.4 -3.6l2 -3.6l2 -15.1l8.5 -11.5l6 -0l10.3 -10.8l6.2 -13.4l-0 -19.8l1.7 -19.2l-0 -8.6l-0.3 -3.3l-17.2 -110.3l-24.7 -3.1l-5.1 1.9l-13.1 10.8l-0.9 4.9l-5.7 1l-19.3 -5.5l-7.3 7l-8.3 -4.1l-3.7 -4.7l-13.8 2.9l-5.3 -1.2l-7.2 -5.4l-4.1 1.6l-2.4 -7.6l-9.1 -3l1.1 5.1l-6 10.5l-4.6 -4l-6.8 6.5l0.4 4.5l0.6 2.2l-5.5 2l-16.4 26.7l-8.4 6z" />
  </g>
  <g data-zip="03064">
    <path d="m3088.1 8990l0 0l-5.1 2.9l17.2 110.3l0.3 3.3l0 8.6l-1.7 19.2l0 19.8l10.3 -16.2l7.3 -2.4l1.2 5.6l-3.8 4l2.9 15.1l8.4 11.5l21 -0.8l2.6 -3.6l-2.9 -6.3l5 -6l8.4 11.1l13.3 -1.9l4.4 -8l6.2 -0.8l22.7 5.3l5.5 -1.4l-4.6 -11.5l4.1 -5.6l9 5.6l18.1 -2.6l-27 -31.1l-3.6 -5.4l0.9 -4.5l-4.3 -12.3l1.9 -15.3l-1.8 -28.7l-3.8 -9.4l-4.6 -6.3l-9.3 -6.5l-4.5 -3.9l-10.4 -12.6l-1.6 1.4l-2.3 8.4l3 6.7l-2 9.5l-12.4 9.5l-6.6 3.4l-8.2 -1.5l-1.4 -4.8l-6 -3.8l-8.3 -1.6l-13.1 0.4l-10.9 -2.2l-4 -3l-5.3 -11.6l4.3 -5.1l3.1 -11.2l-4.4 -6.7l-0.7 -5.1l-6.3 -2.2z" />
  </g>
  <g data-zip="03071">
    <path d="m1785.4 9057.7l0 0l5.2 27.8l-0.2 11.1l4.4 10.1l35 253.2l0.6 0l87.5 3.2l272 10l-34.4 -226.5l11 0.1l4.8 -3.4l-4.9 1.7l-6.5 -2.2l-4.1 2.2l-5.8 -34.1l-3.7 -4l-1.9 -9.6l-4.3 -7.3l5.9 -5.3l-2.9 -18.6l-230.8 -6.4l-127.1 -2.1z" />
  </g>
  <g data-zip="03077">
    <path d="m3762.5 8189.3l0 0l-6.4 17.1l140.5 39.8l-1.2 6.6l53.9 -2.1l17.6 6.2l30.1 10.6l49.7 10.8l12.6 -37.1l8.1 -25l2.4 -1.5l-0.2 -4.9l11 -31.4l1.3 -1l14.1 -8.8l12.7 -4l-11 -1.4l-9.5 1.5l-1.4 -0.7l1.7 -7.9l8.4 -19.1l2.1 -5.1l1.2 -2.7l4 -17.8l7 -20l2.2 -6.4l6.9 -19.9l5.1 -14.5l29.1 -83.3l20.2 -57.4l-8.1 -2.3l-11.3 -10.6l-4.9 7.5l-22 23.5l3.7 1.4l-6.3 22l0.6 9l-73.2 -17.8l-5.8 -0.1l-3.1 -2.1l-128.8 -30.7l-51.1 -12.6l-24.8 70l-1.5 4.3l-63.5 181.2l-12.1 36.7z" />
  </g>
  <g data-zip="03086">
    <path d="m2124.2 8753.3l0 0l13 77l2 18.9l10.7 65.1l0.9 5.6l22.9 141.1l6.6 -2l56.8 -7.8l92.5 -12.7l-2 8.9l0.9 6.3l5.5 0.9l10.2 -6.8l7.9 -2.1l6.3 -5.5l19 -5.8l9.9 10.9l7.6 3l6.8 6.6l5.1 23.3l7.2 27.8l17.1 -0.9l21.6 -3.4l-35.2 -242.2l-1.6 -10.9l-4.5 -30.5l-1.1 -7.4l-14.7 -97.2l-1.7 0l-229.1 33.7l-6.3 -0.4l-14.2 3.5l-20.2 3.1z" />
  </g>
  <g data-zip="03101">
    <path d="m3156 8211.8l0 0l2.3 8.8l10.2 8.8l0.1 10.3l-2.8 30.1l5.5 14.5l-0.1 9.4l-9.6 25.9l9.3 3.5l18.6 -2l2.3 -1.3l-4.6 -2.7l4.3 -6.4l-4.3 -0.5l-0.1 -21.1l3.1 -4.1l-0 -8.9l7.8 -1.4l-0 -20.6l-1.7 -25l-11.2 -1.4l-3.8 -23.4l-13.3 -1.8l-7.6 3.8l-4.4 5.6z" />
  </g>
  <g data-zip="03102">
    <path d="m3024 8237.4l0 0l-4 12.9l11.6 0.5l4.2 4.3l5.8 1l0.7 4.8l11 4.5l-25.7 29.5l60.4 -9.2l2 -0.6l5.5 -0.1l10.9 73.5l19.5 -3.5l13.1 -0.7l11 -5.1l2.9 -10.2l8.9 -19.5l9.6 -25.9l0.1 -9.4l-5.5 -14.5l2.8 -30.1l-0.1 -10.3l-10.2 -8.8l-2.3 -8.8l4.4 -5.6l7.6 -3.8l-11.7 -26.9l-4.4 -18.3l-14.6 -35.5l-0.3 -6l2.3 -10.4l15.4 -26.3l0.4 -3.2l-5 -8.8l-12.2 -7.2l-10.3 -9.6l-8.5 -26.2l-7.9 -13.9l-69.1 8.7l11.8 67.4l2.9 16.7l3.5 7.9l-1.9 0.8l12.2 70.1l-15 1.1l-2.7 12.3l5.4 5.9l10.1 6.7l6.9 1l3.8 19.5l-12.3 -4.7l-13.4 -9.7l-4.3 4.2l-7.5 -3.3l-7 -0.2l-2.9 3.1l1.5 1.2l-7.7 7.6l4.4 7.3l-6 3.8z" />
  </g>
  <g data-zip="03103">
    <path d="m3152.7 8339l0 0l-2.9 10.2l8.3 31.5l2 11.4l3.7 7.3l8.3 7.7l10.8 5.9l5.5 4.6l6.2 9.7l1.2 10.4l3.6 17.7l6.9 16.4l4.3 21.8l4.4 11.2l-1.9 31.8l2.7 16l1.7 17.7l-3.3 30.9l1.8 2.7l31.7 49.9l-19.2 -118.1l6.4 -0.9l17.1 -0.5l20.3 -0.4l5.2 -4.9l-3.5 -5.7l4.6 -0.7l9.9 -23l-6.1 -17.4l14.5 -2.2l34.5 -5.1l-2 -4.4l-8.5 -8l2.8 -8l-8.7 -5.9l-0.3 -14.1l-2.2 -7.4l-4.5 -3.6l5.4 -2.2l3.7 -7.5l7.1 -0.4l-1 -27.5l-2.9 -10.3l-10 -8.5l-4.4 -14.6l-13.2 -27.8l-10.3 -19.3l-5.3 -16.7l-6.8 1.9l-0.1 -3.3l5.9 -2l-2.5 -19.1l-0.6 -5.1l-11 -3.6l-26.4 -2.1l0 -2.9l-16.5 1.3l-21.4 -0.1l0 20.6l-7.8 1.4l0 8.9l-3.1 4.1l0.1 21.1l4.3 0.5l-4.3 6.4l4.6 2.7l-2.3 1.3l-18.6 2l-9.3 -3.5l-8.9 19.5z" />
  </g>
  <g data-zip="03104">
    <path d="m3137.1 8115.8l0 0l0.3 6l14.6 35.5l4.4 18.3l11.7 26.9l13.3 1.8l3.8 23.4l11.2 1.4l1.7 25l21.4 0.1l16.5 -1.3l0 2.9l26.4 2.1l11 3.6l0.6 5.1l11 -1.7l24.5 2.5l13.1 -1.2l2.5 15.3l0.3 -10.4l11.3 -3l11.5 -5.7l11.7 -22.5l6.4 -8.7l-15.6 -13.5l11.1 0.9l7.8 6.7l7.4 -11.9l2.2 -7.8l-2.3 -7.4l11.4 -4.2l-1.9 -4.1l8 -4.3l-0.8 -4.9l0.1 -1.2l-0.6 -0.6l-3.1 -8.2l-9.6 -33.7l4.4 40.4l-109.3 -28.1l-10.2 -4.2l-10.3 -1l-29.5 -7.3l-0.8 -9.2l-12.7 -82.6l-0.4 -2.5l-0.1 -1.1l-2.7 3l-4.3 3.4l-6 3.8l-3.7 2l-35.6 19.5l-3.6 3.1l-0.4 3.2l-15.4 26.3l-2.3 10.4z" />
  </g>
  <g data-zip="03106">
    <path d="m3028.6 7941.9l0 0l1 5.7l12.7 71.2l69.1 -8.7l7.9 13.9l8.5 26.2l10.3 9.6l12.2 7.2l5 8.8l3.6 -3.1l35.6 -19.5l3.7 -2l6 -3.8l4.3 -3.4l2.7 -3l0.1 1.1l0.4 2.5l12.7 82.6l0.8 9.2l29.5 7.3l10.3 1l10.2 4.2l109.3 28.1l-4.4 -40.4l-2.3 -21l-11.4 -47.6l-6 -16.3l15.2 6.1l13.6 5.6l4.2 -3.5l2.9 -6.7l2.5 -10.5l1.2 -2.5l9.8 -18.6l37.4 -88.1l2 0.1l17.6 -41.1l5.3 -19l22.5 -54.9l4.1 -9l-84.6 -21.2l-67.3 -18.1l-24.6 -7.5l-2.2 3.6l-26.3 -12.4l-7.8 -2.1l0.9 6.4l-37.7 -9.2l-43.1 -10.8l-10.4 5.3l-11.9 3.4l-1.9 0.2l-3 0.4l-0.9 -24l-3.3 1.8l-3.5 12.6l-19.9 27.2l-5.4 7.5l-12.2 16.7l-76.6 105.1l-10 12.1l-4 6.9l4.1 25.2l-18.4 3z" />
  </g>
  <g data-zip="03109">
    <path d="m3270.2 8287.4l0 0l0.1 3.3l6.8 -1.9l5.3 16.7l10.3 19.3l13.2 27.8l4.4 14.6l10 8.5l2.9 10.3l1 27.5l-7.1 0.4l-3.7 7.5l-5.4 2.2l4.5 3.6l2.2 7.4l0.3 14.1l8.7 5.9l-2.8 8l8.5 8l2 4.4l2 -0.3l36.2 -5.5l47.3 -7.3l10.4 -1.6l6.9 -1l7.8 -1.3l-0.8 -4.7l-4.3 -26.5l-5.4 -33.1l-7.1 -42.1l-0.1 -0.1l-25.1 -137.1l-2.6 -13.1l-2.9 -16l-8 4.3l1.9 4.1l-11.4 4.2l2.3 7.4l-2.2 7.8l-7.4 11.9l-7.8 -6.7l-11.1 -0.9l15.6 13.5l-6.4 8.7l-11.7 22.5l-11.5 5.7l-11.3 3l-0.3 10.4l-2.5 -15.3l-13.1 1.2l-24.5 -2.5l-11 1.7l2.5 19.1l-5.9 2z" />
  </g>
  <g data-zip="03217">
    <path d="m2562.9 5235.6l0 0l0.2 12.8l11.5 13.6l8.9 3.7l6.1 6.5l2.4 12.1l6.8 5.8l5.5 1.4l5.8 6.1l-0.1 9.4l4.8 8.2l-1.8 8.9l0.7 11.7l6.4 9.4l8.9 19.7l1.1 5.7l-0.7 11.3l-6.8 19.9l6.1 13.8l16.5 19.5l6.2 19l-4 21l2 -0.3l5.2 -7.2l67.3 -8.1l3.8 2.3l4.8 -3.4l9.4 1.2l100.7 -14.2l-9.5 -55.1l-65 -68.7l-58.8 -59.8l-42.2 -46.9l-37.4 2.8l-4.6 0.4l-7.7 0.6l-16 1.4l-1.3 0.1l-34.5 2.9l1.3 3.4l-1.8 9.2z" />
  </g>
  <g data-zip="03220">
    <path d="m2942.6 6407.3l0 0l6.8 8.8l9.9 9l152.3 109.1l2.8 26.8l7.7 25.1l13.3 -4.4l27 -8.8l21.2 -9.1l12.1 -9.7l30.2 -39.9l21.2 -32.2l4.6 -13.2l17.9 -26.4l11 -10.4l6.4 -10.5l28.7 -44l11.1 -12.7l12.4 -16.4l11.5 -12.6l19.2 -23.9l-1.3 -5.1l13.1 -16.9l-32.6 -23.3l-6.2 -1.9l-105.7 -79l-8.7 14.7l-1.9 -2.3l-5.8 5.9l2.3 5.3l-3.8 -3.4l-4.6 5.3l-23.3 -16.6l-1.5 -1.2l-3 -2.3l-6 -7.4l-10.4 -7.7l-31 -22.4l-13.8 -9.9l-1.1 -2l-9.3 -25.1l-5.8 -7.2l-14.5 -10.7l-17.1 -5.9l1.6 8.4l-0.8 14.7l-1.6 5.6l-16 26l-8.2 15.3l-4.6 13.6l4.4 14.5l0.5 6.9l0.3 2.8l-4.9 8.7l-3.9 12.3l-7.2 10.5l-6 2.5l-6.5 5.1l-5.9 2.2l-1.5 6.2l6.7 10.4l0.5 7.4l-7.3 23.9l-6.9 7.5l-11.9 0.6l-9.9 -5.9l-3.3 -3.8l-6.7 -2.5l-6.4 4.9l7.3 30l1.4 1.7l0.4 1.2l2.4 4.9l0.1 1.6l-1.2 13.3l-6.2 14.4l-12.7 18.8l1 10.5l-12.6 7.7l-9.7 12.3z" />
  </g>
  <g data-zip="03221">
    <path d="m1807.3 6971.8l0 0l2.5 26.2l12.4 -11.2l0.8 -8.3l-5.8 -22.3l-1.6 -6.7l-8.2 22.3z" />
    <path d="m1795.3 6754.1l0 0l2.2 7.3l11.7 8.8l1.9 -7.1l-7 -5.3l-8.8 -3.7z" />
    <path d="m1756 6989.3l0 0l2.5 14.7l14.1 16.6l5.1 17.3l-9.1 9.9l-3.3 6.3l11 4.2l-0 -16l1.8 -4.1l9.9 -6.5l10.7 -14.4l-11.4 -12.2l-4 -0.6l-24.5 -14.3l-2.6 -0.9z" />
    <path d="m1610.3 6747.8l0 0l8.1 19.3l4.3 6.1l1.7 8.1l64.1 151l-0.7 5.5l8.3 6l6 -0.2l20.6 7.2l9.3 6.7l4.2 0.8l18.2 -6.4l2.6 -11.8l10.4 -14.4l3.1 -3.6l-3.9 -9.9l7.9 -15.9l16.6 -14.3l16.9 -16.3l1.8 -11.4l4 -7.7l-7.3 -10.1l-3.8 -9.1l-10.7 -6.5l-8.8 -0.2l-5.1 2l1.5 4.9l-0.9 15.6l-4.3 13.5l-8.7 9.5l-1.8 14.7l-1.8 -10.4l2.5 -4.4l-1.7 -11.2l-3.2 -5.9l1.9 -9.8l3.3 -3l1.9 -17.5l-3.5 -13.1l-6.5 -11.6l-21.5 -25.9l-6.4 -15l0.2 -8.5l-3.7 0.9l-37.5 3.6l-10.3 -3.2l-18.3 4.2l-34.6 2.1l-14.3 -4.4z" />
    <path d="m1432.5 7198.5l0 0l58.7 1.3l10.9 128.1l94.6 139.2l27.8 -8.8l251.4 -68l120.6 -32.6l4 0.1l60 -16.3l4.7 -23l-2.5 -13.3l-5 -10.6l-4.4 -4.3l-1.1 -10.1l-3.8 -6.4l-20.2 -0.9l-12 -2.8l-16.5 -13.6l-11.1 -12.1l-10.3 -7l-11 -4l-2.9 14.2l-8.5 6.5l-0.8 9.2l-7.2 1.9l-9.7 -7.7l-5.4 -0.2l-4.2 -4.6l-6.2 -0.4l-3.8 4.5l-2.1 -6l-51.7 -115.9l0.2 -13l-16.6 -26.7l-4.4 -9.3l-7 2.5l-69.2 16l2.5 -14l-11 9.2l2.6 6.2l-13.1 3.1l-22.8 7l0.8 9.1l-14.5 -6.1l-42.5 12.5l-2.6 2l-234.7 64.8z" />
  </g>
  <g data-zip="03222">
    <path d="m1883.7 5600.5l0 0l16.4 8.6l-14.4 27.5l16.2 9.2l-13.4 26.2l30 16l-15 26.6l32.9 17.6l-22.1 60.2l103.3 30.7l44.8 -52.8l91.1 269.4l4.9 -9.8l-5.4 -6l8.6 -11.2l5.2 -1.1l6.9 2.7l7.5 -8.9l12 0l6 -5.4l1.8 -8.5l9.9 -12.4l14.1 3.7l10.4 -2.7l8.8 -9l3.5 -1.2l8.8 4l5.5 6.2l9.2 26.2l48 -61.2l6.6 2.4l9.5 6.8l17.3 -8.7l9.2 4.5l4.5 5.1l5 -3.2l-0.8 -6.3l5.2 -3.9l17.6 -2.8l5.2 6.7l9.5 -0.5l6 8.9l-6 3.1l8.1 4.8l7 -5.3l3.4 -9.5l-2.7 -6.7l0.8 -6.8l9.6 -7.5l8.6 -4.8l3 -4l5.2 -13.1l-1 -3.5l-7.1 -7.6l-5.2 -8.6l-12.6 -11.5l-13.1 -3.3l-6.9 -8.2l-0.6 -6.3l3.2 -10.3l7.3 -9.2l9.1 -3.6l6.9 2.4l8.4 -0.2l9.2 -14.1l8.6 -6.8l9.9 -2.5l7.3 0.2l4.4 7.1l3.6 13.6l3.6 4.7l14.8 1.7l30.7 -2.6l5.6 -2.4l14.3 -10.4l31.6 -25.9l3.9 -1.3l10.8 1.7l4.5 -1l3.3 -7.2l-1 -6.3l-6.5 -12.9l0.6 -9.4l9.6 -9.7l9.7 -6.5l6.2 -1.7l14.4 -11.4l0.3 -4.4l-5 -7.3l-5.2 -19.3l-6.3 -6.9l1.3 -5.8l5.2 -8.3l-6.2 7.3l-12.3 1.9l-4.4 -2.3l3.9 -4.4l12.6 -25l4.5 -0.6l0.6 -13.6l-5 -8.6l-1.2 -9.7l4.9 -11l-0.7 -11.4l-5.9 -2.8l-3.8 -5.8l-5.3 -0.4l-23.8 -10.7l-1 -11.9l-8.6 -17.5l-12.1 -13.5l-7.6 -5.3l-15.8 -26.7l-4.1 -15.5l-9.7 9.2l-8.3 1.7l-11.5 8.6l2.8 9.6l-19.8 11.5l-7.2 10.3l-3.5 12.4l-6.1 12.6l-6.2 8.9l-7.8 5.4l-3.2 0.8l-11.7 -2l-0.8 -8.5l4.5 -16.8l3.1 -19.1l1.7 -16.8l10.5 -16.4l2.6 -14l6.2 -6.9l-0.2 -15.1l-1.6 -7.2l1.4 -12.1l5.1 0.4l9.2 -2.5l3.4 -4.4l-0.3 -14.3l2.2 -3.6l-9.1 -1.6l-5.1 3.2l-79.3 46.6l-166.3 96.7l0.6 -5.2l-4.8 2.6l-0.4 5.2l-8.8 5.1l-2.1 6l-11.6 11.6l-82.8 -45.8l2.1 -3.6l-76.2 -42.4l22.2 -34l5.1 -3.8l-118.9 -35.5l-5 23.3l3 1.5l-4.6 8.6l-18.2 24.6l-35 68.9l6 3.4l-19.4 41.9z" />
  </g>
  <g data-zip="03227">
    <path d="m2891.3 4633l0 0l11.6 73.3l49 319l16.8 -1.8l16.6 127.7l338 -42.6l4.2 -1.1l2.4 0.3l248.1 -28.9l-29.7 -167.3l-26.7 15.4l-3.1 6.6l-11.5 7.3l-2.3 10.1l-8.8 -4.4l-7.7 -7.8l-6.1 1.2l-2.1 -9.4l-10.7 14.3l-8.4 1.5l2.9 -14.8l6 -10.9l-24.9 -2.7l-14.7 -4.8l-21.5 1.3l-6.8 2.1l-12.6 -9.6l-23.6 -10.3l-8 -6.1l-20.3 6.4l-6.5 -4.8l-0.9 -6.6l-7.9 -11l13.9 -4.4l3.4 -3.7l2 -17.4l-7.5 -3.2l-7.9 -11.6l-24.2 3.3l-2.8 -14.5l-1.4 -21.8l-25.7 2.3l-4.3 -5.5l-12.2 -7.3l27.2 -121l-15 -3.7l-4.5 -3.5l-11.8 0.7l-10.6 3.9l-4.6 5.1l-7.8 0.3l-4.2 2.7l-9.1 -0.2l-10.8 -12.8l-7.7 -15.5l0 -6.6l2.7 -10.6l-1.3 -5.7l3.1 -17.2l-4.5 -3.6l-2 -5.8l8.9 -12.3l-312.4 47.6z" />
  </g>
  <g data-zip="03229">
    <path d="m2241.1 7291.3l0 0l80 179.9l5.1 13.3l73.7 175.1l186.3 -50l4.5 -1.4l115.4 -30.7l0.7 -0.2l38 -10.2l20.4 -5.3l14.3 -3.7l-104 -203.7l-4.4 -14.2l-12.6 -19.9l-24.1 -46.8l-26.5 -57l-17.9 -38.3l-153.6 74.9l-7.9 1.8l-6.7 -12.9l-180.8 49.2z" />
  </g>
  <g data-zip="03235">
    <path d="m2398.9 6204.5l0 0l15.4 14.6l26.2 29.8l8.6 17.3l23.1 60.4l2.5 -1.4l3.6 -2l7.5 27.9l24 87.8l-6.9 7.8l-20.5 7.3l-56.5 27l-19 8.6l3.9 14.7l11.7 10.9l7.1 9.1l7.7 6.7l6 1.8l7.2 5.4l4 0.2l13.2 -5.9l7.7 5.2l7.1 8.6l8.8 6.4l0.5 4.2l6.9 7.1l-2.7 37.5l12.7 -6.5l13.3 -4.4l5 48.2l-3.5 4.5l13.7 16.1l13.3 5.5l0.6 4.6l30.3 10.5l3.9 27.5l1.3 4.3l57.4 -30.6l3.5 -4.4l7.9 -6.4l4.8 -8.7l0.5 -9.7l7.2 -23.3l-3.6 -10.6l3.4 -15.6l-0.1 -6.7l46.6 -4.3l-12.3 -90.9l26.4 -3.9l-1.7 -9.5l-5.8 -17.5l-8.9 2.9l-1.7 -4.1l-3.6 -23l4.1 1l0.3 -1l3 -3.5l8 2.6l8.4 -2.4l-0.3 -1l-3.8 -11.6l-2.4 -0.9l-17.3 -45.5l9.1 -3.8l-11.4 -35.8l11.7 -4.6l-2.1 -5.9l1.2 -5.9l-6.8 -22.3l-7 2.8l-23.4 -57.8l-1.9 -3.9l-13.7 9.7l-29 10.9l-1.2 -16l-4.7 -4.6l-18.9 -12.4l-10.6 -3.3l-11.2 -1.6l-9.8 -10.5l-9.4 -2.5l-7.8 -11.2l-4.1 -13.5l-11.6 -16.8l-12.7 -10.4l-2.7 -6.4l-4.2 -3.9l0.2 -10.6l-1.1 1.6l-31.3 15.1l-9.4 3.7l-34.4 16.5l-8.6 4.8l-40.5 19.4z" />
  </g>
  <g data-zip="03242">
    <path d="m1875.9 7390.3l0 0l90.4 198.6l15.2 33.4l60.8 135.2l133.5 -36.5l41.1 -13.2l183.3 -48.2l-73.7 -175.1l-5.1 -13.3l-80 -179.9l-27.6 7.5l-60.3 19.2l-2.7 -2.1l-41.2 11.2l-19.5 7.1l-29.4 7.4l-60 16.3l-4 -0.1l-120.6 32.6z" />
  </g>
  <g data-zip="03244">
    <path d="m1496.4 7889.7l0 0l4.4 -1l123.6 -26.1l169 -41.3l6.9 -9.9l12.3 -13.7l-25.1 -27.3l5.9 2.2l8.8 -3.2l19.8 5.5l4.1 6.8l13.3 -13.9l0.7 2.4l3.9 39l40.8 -9.8l4.3 2.4l-0.8 10.2l-10.4 3.3l1.6 3.3l-4 5.6l3.9 3.1l-1.1 4.9l-7.8 4l7 10.7l-4.2 15.3l-3.7 4.5l4.6 -0.9l1.2 10.2l-6.4 1.7l2.8 8.4l-1.7 4.6l7.6 -2.3l-6.7 8.1l0 22.1l4.3 1.2l-0.4 5.2l11.6 5.5l-3.8 1l-0.6 8.1l-3.1 6.4l1.9 8.8l4.1 -0.8l4.1 8.1l-0.6 13.4l-7.4 7.8l5.5 14l-0.1 6.5l-6.3 8l4.9 4.6l6.2 10.7l3.9 -1.1l22.3 20.6l1 10l34.9 -1.2l4.9 31.1l15.3 1.6l-0.4 -2.6l272.7 -23.1l-70.6 -341.6l-133.5 36.5l-60.8 -135.2l-15.2 -33.4l-90.4 -198.6l-251.4 68l-27.8 8.8l-80.9 21.6l38.9 89.2l-42.7 125l11.8 0.2l-27.4 186.5z" />
  </g>
  <g data-zip="03246">
    <path d="m3006.6 5915.9l0 0l-1.8 0.2l4.4 1.4l1.5 -5.6l-1.5 -2.3l-2.4 -0.4l-1.7 4.6l1.5 2z" />
    <path d="m2978.6 5825.2l0 0l-5.2 29.9l11.7 48.2l2.6 -15.2l5.7 5.8l19.2 13.6l5.4 5.3l15.9 39.9l10.1 22l3.8 14l2.1 15.1l-1.6 27.3l2 11.5l4.4 12.2l11.8 16.6l11.3 21.5l17.1 5.9l14.5 10.7l5.8 7.2l9.3 25.1l1.1 2l13.8 9.9l31 22.4l10.4 7.7l6 7.4l3 2.3l1.5 1.2l23.3 16.6l4.6 -5.3l3.8 3.4l-2.3 -5.3l5.8 -5.9l1.9 2.3l0.3 -5.9l10.5 -43.7l3.2 -9l-1.6 -4.4l-19 -2.7l-4.6 -1.6l4 -25.1l3.7 -16.7l2.6 -12.7l-26.5 -6.2l-0.5 -4.2l7.2 -22.1l16.9 -63.8l3.6 -17.2l4.9 -0.9l3.1 -6.3l-6.3 -1.8l1.8 -11.1l13.1 1.3l15.4 1.4l9.2 -28.5l14.7 -84.3l0.8 -8.6l6.8 -15l-21.3 -25.5l-50.9 -43.2l-25 -21.1l-11.2 -11.7l-12 -14.6l-5.8 -0.9l-13.9 10.2l-22.8 15.5l-5.5 6.1l-30.4 21.8l-22.2 24.4l-11.6 16l-9.4 10.6l-16.9 8.4l-9.7 5l2.1 3.9l-7.7 5l-1.6 -11.9l-7.7 5.5l-13.5 5.7l-16.4 4.4z" />
  </g>
  <g data-zip="03251">
    <path d="m2286.2 3911.4l0 0l64.8 33l1.6 1l315.8 160.2l27.2 13.8l10.9 -34l41.5 129.7l8.9 -5l5 -0.7l9.1 1.9l9.6 -5l10.4 2.1l13.1 -0.6l6.1 4.3l9.3 2.8l13.4 9.9l17 7.2l6.7 6.3l5.2 2.4l12.9 15.7l5.3 3.4l17.3 6.3l8.8 1.7l19.3 8.8l93.9 -19.2l61.4 -12.7l0 14.2l292.8 -54.2l-19.7 -6.9l-20.2 -4.7l-12.2 -6.5l-20.5 -9.2l-10.8 -14.6l-1.2 -5l3 -13.5l-1.7 -4.9l-2.4 -2.5l-13.3 -6.3l-12.1 -13.6l-10.1 -6.5l-4.3 -0.2l-20.6 8.6l-6 9.5l-6.8 3.5l-11.1 2l-9.4 -0.6l-6.9 -6.1l-2.5 -8.3l-6.6 -6.7l-5.5 -2.4l-19.7 -2.8l-7.4 1.9l-3.4 4.9l-11.6 -3.2l-8.7 5.6l-14.6 -0.7l-4.4 -2.3l-2.8 -14l3.2 -9.1l-3 -10.4l6.9 -6.8l8.2 -10.4l5.1 -17.4l7.1 -9.9l-4 -13.8l0.3 -9.8l-11 -9.6l-7.6 -4.7l0.1 -20.3l5.4 -22.5l12.4 -21l-5.8 -8l-4.3 -9.7l1.9 -8.8l10.2 -17.4l14.3 -3.1l8.3 -6.1l10.5 0.6l5.4 -1.6l-1.6 -11.8l11.1 -4.8l13.8 -0.5l7.2 -4.8l7.9 -2.8l18.2 -13.1l9.1 -16l8.2 -7.2l8.2 -23.5l10.5 -7.2l13.2 -3.8l3 -5l5.2 -2.7l17.7 -2.2l19 -3.2l4 -8.5l2.2 -10.4l-1.6 -7l11.4 -1l8.7 4.6l8.8 1.7l11.1 -6.7l5.5 -5.9l1.2 -4.5l-2.4 -13.2l-0.6 -9.6l-5.3 -5.2l2.1 -13.1l5.5 -12.5l-4.4 -8.5l-17.9 -9.8l-9 -14.8l-4.1 -4.7l-9.9 -15.5l-4.7 -10.7l-11.3 -11.8l-6.5 -3.3l-6.6 -8.2l-1.3 -6.1l-0 -6.7l3.1 -2.6l9.4 -15.2l-2.4 -4.7l-11.6 -8.7l5.5 -10.1l1.9 -7.2l6.3 -9.3l-1.5 -10.6l-330.3 -111.3l-127.8 346.8l-121.2 -54l-302.9 -134.6l-131.7 353.4z" />
  </g>
  <g data-zip="03253">
    <path d="m2714.6 5885.4l0 0l-0.8 13.2l1.8 6.3l2.8 0.8l0.3 -2.3l5.4 1.1l58.7 18.7l6.6 4.3l20.6 4.7l129.7 39.8l4.6 0.9l44.4 14.3l61.2 16.7l-2.1 -15.1l-3.8 -14l-10.1 -22l-15.9 -39.9l-5.4 -5.3l-19.2 -13.6l-5.7 -5.8l-2.6 15.2l-11.7 -48.2l5.2 -29.9l16.4 -4.4l13.5 -5.7l7.7 -5.5l1.6 11.9l7.7 -5l-2.1 -3.9l9.7 -5l16.9 -8.4l9.4 -10.6l11.6 -16l22.2 -24.4l30.4 -21.8l5.5 -6.1l22.8 -15.5l13.9 -10.2l5.8 0.9l12 14.6l11.2 11.7l25 21.1l15.3 -12.9l7.9 -2.9l7.1 0.4l22.7 8.3l9.7 0.5l13.1 -3.9l6.3 0.7l16.4 5.6l8.7 -0.7l7.7 -4.4l8.5 -11.5l5.5 -12.8l7.2 -7.3l18.6 -5.3l9.1 -4.2l5.2 0.8l4 3.7l4.4 17.5l7.8 8.4l5.9 0.7l9.6 -3l2.4 -6.1l1.1 -18.2l2 -10l-0.7 -6.2l-4.1 -8.6l1.5 -11.9l4.2 -3.3l9.2 -2.7l14.8 -1.4l7.6 0.3l10.8 3.3l8.8 5.8l7.8 8.3l11.7 18.6l7.1 7.6l8.3 5l5 0.7l14.9 -5.3l-4.8 -4l-214.4 -205.6l-2.4 0.1l-2.2 2l-3.9 -0.2l-1.6 -3l1.4 -2.3l-1.7 -1l-1.7 2.8l-2.5 -0.7l-1.6 -2.6l0.4 -4.5l2.4 -2.5l-1.9 -2.5l-26.2 -25.1l-2.1 0.9l-2.8 0.3l-1.9 -0.5l-0.8 -1l0 -1.4l-1.2 -1.5l-0.7 -1.8l-0.2 -2.3l-0.7 -1.8l-2 -1.8l-0.3 -1.2l-5 -4.8l-42.6 31.2l-6.3 -6.8l-12.4 11.8l-16.9 -16.8l-16.5 -14.1l-4.6 -3.6l-2.6 14.3l-20.6 -19.8l-52.4 49.3l-19.2 15.6l-23.4 23l-0.1 4.5l-4.9 0.5l-23 22.5l-26.6 26.1l-3 -3.3l-5.9 9.6l-5.9 1.8l1.3 5.3l-3.1 4.7l-23.7 22.7l-31 31.8l0.1 7.5l-7 7.1l-2.9 12.5l-9.7 -7.2l-72.3 74.4l34.4 6.3l-10.2 7.6l-4.9 9.6l1.1 16.8l-8.9 -7.1l-1 -5.7l-9.1 -6.2l0.4 -3.7l-5.2 -1l-3.5 -7.9l5.1 -1.2l-1.7 -4.1l-7.4 5.8l-13.2 14.7l-54.8 54.2l0.3 14.6l2.4 7l-13.3 -1.2l-7.9 0.9l5 12.6l-1.1 10.9l-11.2 27.3z" />
  </g>
  <g data-zip="03254">
    <path d="m2985.3 5151.3l0 0l62.5 64l16.8 19.2l-3.7 2.7l4.9 4.9l6.3 -0.1l9.3 9.7l1.3 7.3l20.5 20.4l3.5 -0.2l14.4 18l11.7 5.1l-2.1 4.3l53.7 56l70.8 65.8l-0.6 2l5 4.8l2.3 -0.4l7.2 7.1l3.1 5.3l26.2 25.1l1.9 2.5l-2.4 2.5l-0.4 4.5l1.6 2.6l2.5 0.7l1.7 -2.8l1.7 1l-1.4 2.3l1.6 3l3.9 0.2l2.2 -2l2.4 -0.1l214.4 205.6l4.8 4l0.5 1.2l10.1 9.9l7.4 -3.5l14.3 2.3l5.6 -2.5l4.3 -10.9l-2.6 -13.7l-8 -17.7l-1.1 -9.5l4 -7.2l7.8 -6.7l16.7 -8.9l3.8 -4.1l-1.1 -6.3l-7.9 -11.3l1.2 -5.2l5.8 -1.5l10.8 0.3l10.4 -9.4l5.4 -2.3l17.5 -1.6l9 -2.9l10 -10.2l3 -5.7l2.1 -12.7l-7.9 -34.8l-3.2 -9.1l-4 -8.1l-7.9 -8.6l-14 -7.3l-8.9 0.1l-14.4 2.5l-9.4 -3.2l-9.5 -8.5l-7.2 -12.8l-0.4 -4.9l8 -11.9l72.4 -96.5l17.4 -23.8l3.6 0.7l68.7 -96l14.8 -23.3l61.4 -82l-13.9 -4.1l-16.1 -0.8l-70.8 -13.3l-140.5 -31.8l-2 0.2l-248.1 28.9l-2.4 -0.3l-4.2 1.1l-338 42.6z" />
  </g>
  <g data-zip="03255">
    <path d="m1394.1 6864.3l0 0l-33.6 64.2l72 270l234.7 -64.8l2.6 -2l42.5 -12.5l14.5 6.1l-0.8 -9.1l22.8 -7l13.1 -3.1l-2.6 -6.2l-38.2 -90.4l-1.4 -5.2l36.3 -15l2.6 0.9l24.5 14.3l4 0.6l-3.5 -13.9l-12.8 -34.8l-16.9 -2.2l0.3 -2.3l-18.2 6.4l-4.2 -0.8l-9.3 -6.7l-20.6 -7.2l-6 0.2l-8.3 -6l0.7 -5.5l-64.1 -151l-1.7 -8.1l-4.3 -6.1l-8.1 -19.3l-13.4 -28l-15.4 -35.1l-103.2 12.6l-4.2 15.1l-1.2 1.5l-78.8 150.3z" />
  </g>
  <g data-zip="03256">
    <path d="m2404.6 5855.1l0 0l0.6 6.3l6.9 8.2l13.1 3.3l12.6 11.5l5.2 8.6l7.1 7.6l1 3.5l-5.2 13.1l-3 4l-8.6 4.8l-9.6 7.5l-0.8 6.8l2.7 6.7l-3.4 9.5l-7 5.3l-2.8 7.3l2.1 8.9l8.2 14l10.1 9l3 4.7l7 1.2l12.2 5.4l11.3 24.3l1.1 11.8l5.6 11.3l5.9 5.2l65 -62.6l2.7 -4.6l8.5 -6.2l107.6 -103.7l52 17.3l-1.8 -6.3l0.8 -13.2l11.2 -27.3l1.1 -10.9l-5 -12.6l7.9 -0.9l13.3 1.2l-2.4 -7l-0.3 -14.6l54.8 -54.2l13.2 -14.7l7.4 -5.8l1.7 4.1l-5.1 1.2l3.5 7.9l5.2 1l-0.4 3.7l9.1 6.2l1 5.7l8.9 7.1l-1.1 -16.8l4.9 -9.6l10.2 -7.6l-34.4 -6.3l72.3 -74.4l9.7 7.2l2.9 -12.5l7 -7.1l-0.1 -7.5l31 -31.8l23.7 -22.7l3.1 -4.7l-1.3 -5.3l5.9 -1.8l5.9 -9.6l3 3.3l26.6 -26.1l-3.9 -8.2l-4.1 -2.2l-5.6 -0.2l-7.8 5.7l-13 5.8l-1.4 3.3l-7.8 2l-8.2 -0.6l-2.4 4.8l-6.9 0.4l-1.8 3l-17.6 -8.2l-14.7 -1.3l-10.5 -12.5l-1.6 -4.1l-9.9 -6.1l-5 -8.3l-7.9 -5.9l0.4 -17.3l-3.3 -13.9l-13.6 -4.4l-21.7 -28.5l-100.7 14.2l-9.4 -1.2l-4.8 3.4l-3.8 -2.3l-67.3 8.1l-5.2 7.2l-2 0.3l-6.5 10.3l-1.9 7l7 28l0.2 6.1l-5.2 20.2l-4.9 9.9l-6.2 6.5l-2.2 5.6l1.9 12.8l0.8 18.1l3.6 18l6.4 16.4l-2.1 8.2l-6.4 7.3l4.2 18.2l-7 11.6l-5.2 8.3l-1.3 5.8l6.3 6.9l5.2 19.3l5 7.3l-0.3 4.4l-14.4 11.4l-6.2 1.7l-9.7 6.5l-9.6 9.7l-0.6 9.4l6.5 12.9l1 6.3l-3.3 7.2l-4.5 1l-10.8 -1.7l-3.9 1.3l-31.6 25.9l-14.3 10.4l-5.6 2.4l-30.7 2.6l-14.8 -1.7l-3.6 -4.7l-3.6 -13.6l-4.4 -7.1l-7.3 -0.2l-9.9 2.5l-8.6 6.8l-9.2 14.1l-8.4 0.2l-6.9 -2.4l-9.1 3.6l-7.3 9.2l-3.2 10.3z" />
  </g>
  <g data-zip="03257">
    <path d="m1454 6525l0 0l0.8 3.3l30.6 40.9l1.3 5.4l-5.6 100.7l-1.3 3.9l-1.6 18.1l103.2 -12.6l106.9 -26.1l16.6 8.9l11 9.6l1.1 -3l13.4 12.9l15.7 11.7l6.8 3.5l32.5 14.3l-4.4 -26.1l-4.1 -16.3l-4.9 -5.4l-3.7 -9.6l-7.8 -12.2l-2.9 -7l4.5 -1.6l30.8 -5.7l101 -25.5l-82.3 -49.8l4.8 -8.2l-36.4 11.3l-9.7 7.7l4 -10.3l6.6 -4.5l-8.9 -5.3l-16 -16.2l-10.3 -3.7l7 1l12.2 8.9l5.4 7.3l5.7 3.7l8.8 -4.3l4.9 2l3.1 -5.9l6.7 -2.7l7.5 4.3l-6.1 -5.7l7.5 -3.6l6 -13.5l5.9 -2.8l10.1 -19.2l7.7 -1.5l7.4 -4.3l-25.8 -8l-0.6 -9l1.5 -12.1l-25.1 -9.7l-50.2 -23.4l-21.3 -19.6l-18.4 -19.5l-54.2 -32.5l-28 31.7l-33.4 80.8l-123.5 -17l-11.4 66l-1.1 5.6z" />
  </g>
  <g data-zip="03262">
    <path d="m2145.8 4254.1l0 0l-4.1 13.1l93.4 13.2l-32.9 119l158 64.9l5.4 -0.6l7.5 5.9l31.5 13l104.6 43.5l23.4 -60.9l-1.7 -7.5l3.1 -22.7l0.3 -15l1.8 -6l18.7 -44.6l-9.7 -13.3l-7 -12.3l-1 -7.6l5.4 -28.3l9.1 -12.3l4.3 4.5l3.1 -12.9l-2.8 -0.5l-2.5 -17.1l5.6 -9.9l-1 -7l4.1 -12.3l10.8 -3.6l2.9 -16.6l-1 13.2l-5.2 12.7l12.2 -6.3l-0.5 3l8.4 39.2l-13.3 28.5l9.7 13.7l81.7 -218.5l-315.8 -160.2l-1.6 -1l-64.8 -33l-55.4 -28.1l-1 4.3l-74.6 312l0.4 25.9l-7 26.9l-2.8 1.7z" />
  </g>
  <g data-zip="03263">
    <path d="m3427.9 6963.1l0 0l-4.6 2.1l55.8 41.7l33.4 18.3l15.1 11.2l31.2 25.4l1.4 5.3l-11.4 12.2l-9 1.4l-1 14.8l-4.9 8.3l-13.2 0.8l-5.1 8.7l-12.2 8.3l-7 7.6l-10 18.1l281 66.2l6.4 -0.3l20.8 -45l3.8 -5l17.1 -45.4l2.1 1.9l22.1 -27.8l0.9 -4.4l7.9 -8.8l-329.3 -246.5l-37.5 -27.1l1.3 11.2l4.1 10.5l2.5 16.6l-2.9 5.7l-3.1 20.7l3.9 6.4l-52.7 73.2l-6.7 13.6z" />
  </g>
  <g data-zip="03264">
    <path d="m2273.8 5126.9l0 0l-23 63.8l51.1 18.9l-1.2 5.1l-31.2 74.6l65.4 32.9l63.8 149l79.3 -46.6l5.1 -3.2l9.1 1.6l-2.2 3.6l0.3 14.3l-3.4 4.4l-9.2 2.5l-5.1 -0.4l-1.4 12.1l1.6 7.2l0.2 15.1l-6.2 6.9l-2.6 14l-10.5 16.4l-1.7 16.8l-3.1 19.1l-4.5 16.8l0.8 8.5l11.7 2l3.2 -0.8l7.8 -5.4l6.2 -8.9l6.1 -12.6l3.5 -12.4l7.2 -10.3l19.8 -11.5l-2.8 -9.6l11.5 -8.6l8.3 -1.7l9.7 -9.2l4.1 15.5l15.8 26.7l7.6 5.3l12.1 13.5l8.6 17.5l1 11.9l23.8 10.7l5.3 0.4l3.8 5.8l5.9 2.8l0.7 11.4l-4.9 11l1.2 9.7l5 8.6l-0.6 13.6l-4.5 0.6l-12.6 25l-3.9 4.4l4.4 2.3l12.3 -1.9l6.2 -7.3l7 -11.6l-4.2 -18.2l6.4 -7.3l2.1 -8.2l-6.4 -16.4l-3.6 -18l-0.8 -18.1l-1.9 -12.8l2.2 -5.6l6.2 -6.5l4.9 -9.9l5.2 -20.2l-0.2 -6.1l-7 -28l1.9 -7l6.5 -10.3l4 -21l-6.2 -19l-16.5 -19.5l-6.1 -13.8l6.8 -19.9l0.7 -11.3l-1.1 -5.7l-8.9 -19.7l-6.4 -9.4l-0.7 -11.7l1.8 -8.9l-4.8 -8.2l0.1 -9.4l-5.8 -6.1l-5.5 -1.4l-6.8 -5.8l-2.4 -12.1l-6.1 -6.5l-8.9 -3.7l-11.5 -13.6l-0.2 -12.8l1.8 -9.2l-1.3 -3.4l0.3 -12.6l12.2 -2.3l4.9 -9.2l0.3 -1.4l-0.8 -2.7l-1.6 -3l11.5 -2.9l-10 -7.5l-1.4 -14.1l-11 1.4l-3.2 -4.7l-3 6.6l4.4 11.6l3.4 5.9l-8.9 3.5l-15.4 13.9l-4.5 -8l0.9 -8.9l-2.8 -17.6l-1.8 -10.1l2 -5.9l14.3 -10.6l3.3 -5.5l0.3 -16l4.9 -14.1l3.8 -3.8l6.8 -3.8l13.8 -22.1l-3.7 0.5l-7 1.1l-12.3 -0l-132.9 -1l-0.8 -27.8l-14.3 1.9l-0.5 -4.9l-8.6 1l-1.9 -18.4l-13.2 1.2l-1.6 -15.4l-14.1 0.4l-5.6 -10.4l-16.3 -7.6l-21.9 39.6l-24.4 65.4l6.5 1.2l-11.8 31.2l-27.8 -9.9z" />
  </g>
  <g data-zip="03275">
    <path d="m3071.2 7512.1l0 0l2.5 2.9l5.7 0l2.7 5.2l5.8 0.4l2 -4.1l12.7 -2.3l3.2 15.8l5.3 -3.4l0.8 7.9l2.6 1.8l0.3 7.7l-1 6.3l-2.9 -0l-2.1 -9.6l-18.8 1.9l-0.3 5.3l5 1.9l-2.6 5.2l7.8 2.1l0.7 9l-4.9 4.9l-0 3.7l4.3 1l-5.9 9.2l12.9 11.7l21 5.2l8.3 5.5l10.9 10.1l27.2 28l8.8 13.3l7.3 20.1l0.2 4.7l-12 30.5l-0.9 9.3l0.9 24l3 -0.4l1.9 -0.2l11.9 -3.4l10.4 -5.3l43.1 10.8l37.7 9.2l-0.9 -6.4l7.8 2.1l26.3 12.4l2.2 -3.6l24.6 7.5l67.3 18.1l84.6 21.2l59.7 -120l18 -34l34.2 -86.9l-184.1 -42.2l-26.4 -7.8l-11.2 -2.7l-8.5 0.1l-9.1 -3.8l-9.1 -0.1l-39.4 -8.3l34.8 -89.3l4.9 0.4l-23.1 -16.4l-23.2 -14.6l-129.6 -96.1l34.1 -42.4l3.5 -6.7l-17.9 -16.8l-7.1 6.2l1.6 9.1l-5.3 5.4l-9.1 -2.6l2.5 15.6l6.7 -1.1l-6.6 5.3l-0.1 6.6l0.1 0.2l-0.3 1.7l0.4 1.2l1 1.3l0.1 0.8l-0.7 1.4l0.2 3l-2.5 2.4l-3.8 3.4l-3.7 1.9l1.2 1.3l-2.4 2.3l1.2 7.2l-1.4 -0.4l-5.5 -0.5l-6.9 0.8l5.4 6.7l-6.5 9.3l-0.4 7.1l-14.3 8.7l-4.8 -2.1l-4 4.8l6 5.6l-5 2.9l-8.1 10.9l5.6 -1.5l1.5 3.3l-4.2 15l3.9 1.4l-0.3 8.9l-6.1 4.4l17.6 3l2 8.4l-9.1 5.3l6.2 7.6l-8.5 8l-2.2 0.9l-2.2 -0.3l-2 0.3l-0.6 0.5l-1.2 2l-0.9 3.2l-5.6 -4.4l-9.2 8.8l-0.3 -3.9l-1.1 -1.9l-2.4 0.2l-2.1 -0.6l-3.9 -2.6l-2.5 -0.9l-1.4 1.3l-0.4 2.5l-5.1 5.2l-1.7 0.5l-11.8 -10l-6.7 0.6l8 3.8l8.3 25.7l3.6 4.8l-0.6 7.4l4.3 18.8l4 8.4l-8.1 7.8l-3.1 5.7l-7.6 1.2l-3.6 3.3l-4.7 -0.5l-2 5l-3.2 0.3l-3.5 6.6z" />
  </g>
  <g data-zip="03276">
    <path d="m2636.6 6718.4l0 0l0.2 5.1l4.2 15.7l12.8 14.3l2.1 3.6l-1.2 7.5l1.6 -1.6l4.9 -0.9l39.6 -14.9l8.5 12.9l4.1 -3.9l-4.9 -4.3l-3.5 -6.3l58.4 -22.1l5.8 1.7l27.3 -9.3l1.8 -4.8l2.4 -1.6l276 -105.6l15.1 -3.6l29.5 -11.7l1.1 -2.5l-7.7 -25.1l-2.8 -26.8l-152.3 -109.1l-9.9 -9l-6.8 -8.8l9.7 -12.3l12.6 -7.7l-1 -10.5l12.7 -18.8l6.2 -14.4l1.2 -13.3l-0.1 -1.6l-2.4 -4.9l-0.4 -1.2l-1.4 -1.7l-7.3 -30l6.4 -4.9l6.7 2.5l3.3 3.8l9.9 5.9l11.9 -0.6l6.9 -7.5l7.3 -23.9l-0.5 -7.4l-6.7 -10.4l1.5 -6.2l5.9 -2.2l6.5 -5.1l6 -2.5l7.2 -10.5l3.9 -12.3l-5 -1.5l-8.5 1.6l-6.8 4.1l-10.3 5.4l-158.4 63.5l-67.9 28.3l-4.1 -1.1l-0.7 3l-12.2 4.3l-23.4 6.7l-37.9 9.3l2.1 5.9l-11.7 4.6l11.4 35.8l-9.1 3.8l17.3 45.5l2.4 0.9l3.8 11.6l0.3 1l-8.4 2.4l-8 -2.6l-3 3.5l-0.3 1l-4.1 -1l3.6 23l1.7 4.1l8.9 -2.9l5.8 17.5l1.7 9.5l-26.4 3.9l12.3 90.9l-46.6 4.3l0.1 6.7l-3.4 15.6l3.6 10.6l-7.2 23.3l-0.5 9.7l-4.8 8.7l-7.9 6.4l-4.1 14.9l-0.6 11l-6.2 15.6z" />
  </g>
  <g data-zip="03278">
    <path d="m1843.9 7086.2l0 0l4.4 9.3l16.6 26.7l-0.2 13l51.7 115.9l2.1 6l3.8 -4.5l6.2 0.4l4.2 4.6l5.4 0.2l9.7 7.7l7.2 -1.9l0.8 -9.2l8.5 -6.5l2.9 -14.2l11 4l10.3 7l11.1 12.1l16.5 13.6l12 2.8l20.2 0.9l3.8 6.4l1.1 10.1l4.4 4.3l5 10.6l2.5 13.3l-4.7 23l29.4 -7.4l19.5 -7.1l41.2 -11.2l2.7 2.1l60.3 -19.2l27.6 -7.5l180.8 -49.2l-155 -320.3l-9.3 -14.6l-10.4 -22.6l-1.1 -3l62.6 -32.5l-10.8 -14.8l-22.9 -14.2l-9.9 0.6l-3.9 -10.5l-7.9 -4.8l13 -23.7l-6.3 -7.9l-6.1 0.9l-0.3 -7.2l-7.2 -4.9l-7.4 -0.7l-1.8 -4.3l12 -5.8l4.6 -4.8l-5.4 -11.2l-0.8 -9.1l-4.1 -3.2l-10.2 1.8l-7.9 -1l-6.9 19.7l8.5 29.9l3 24.7l-4.5 7.4l-7.9 4l-17.9 -6.6l-7.4 -15l-10 -9.8l-2.1 -6.4l-5 -3.9l-13.7 -4.4l-17.1 7.4l-8 -3.7l-11.8 -3.1l-9.5 -8.1l-17.5 -6.1l-3.8 -113.3l-52.2 25l-2.5 23l-40.2 33l-10.6 4.6l-9 6.7l-1.2 5.2l-16.8 26l15.5 40.2l12.3 27.1l46.8 126.4l-9.7 -0.2l-2 10.7l4.8 13l1.5 19.1l-12.2 -13.1l-4.9 -8.2l-6.6 -0.9l-11.1 -7.3l-5.2 -0.9l-14.5 -7.8l-10.2 -0.7l-46.5 -11.5l-19 0.2l-9.1 -2.3l-9 0.8l8.3 3.2l51.5 37.2l-4 -1l-9.3 2.6l2.2 5.9l18.7 12.3l5.6 7.8l3.7 9.8l15.9 15.9l2.7 4.9l-0.9 9.1l-13.5 7.4l-7.6 1.9l-100.5 22.2l-11.5 1.8z" />
  </g>
  <g data-zip="03301">
    <path d="m2685.9 7354.5l0 0l-10.3 -0.1l104 203.7l16.5 32.5l10.4 20.5l12.5 -6.5l100.7 -52.4l28.9 -15l12.7 -6.6l17.5 -10.7l4.2 -0.5l24 -12.5l3 -1.6l-2.2 16.8l-3 6.8l6.1 10.8l11.5 10.6l20.7 6.1l13.2 0.1l4.7 1.6l21.8 15.3l11.2 11.8l5.9 -9.2l-4.3 -1l0 -3.7l4.9 -4.9l-0.7 -9l-7.8 -2.1l2.6 -5.2l-5 -1.9l0.3 -5.3l18.8 -1.9l2.1 9.6l2.9 0l1 -6.3l-0.3 -7.7l-2.6 -1.8l-0.8 -7.9l-5.3 3.4l-3.2 -15.8l-12.7 2.3l-2 4.1l-5.8 -0.4l-2.7 -5.2l-5.7 0l-2.5 -2.9l3.5 -6.6l3.2 -0.3l2 -5l4.7 0.5l3.6 -3.3l7.6 -1.2l3.1 -5.7l8.1 -7.8l-4 -8.4l-4.3 -18.8l0.6 -7.4l-3.6 -4.8l-8.3 -25.7l-8 -3.8l6.7 -0.6l11.8 10l1.7 -0.5l5.1 -5.2l0.4 -2.5l1.4 -1.3l2.5 0.9l3.9 2.6l2.1 0.6l2.4 -0.2l1.1 1.9l0.3 3.9l9.2 -8.8l5.6 4.4l0.9 -3.2l1.2 -2l0.6 -0.5l2 -0.3l2.2 0.3l2.2 -0.9l8.5 -8l-6.2 -7.6l9.1 -5.3l-2 -8.4l-17.6 -3l6.1 -4.4l0.3 -8.9l-3.9 -1.4l4.2 -15l-1.5 -3.3l-5.6 1.5l8.1 -10.9l5 -2.9l-6 -5.6l4 -4.8l4.8 2.1l14.3 -8.7l0.4 -7.1l6.5 -9.3l-5.4 -6.7l6.9 -0.8l5.5 0.5l1.4 0.4l-1.2 -7.2l2.4 -2.3l-1.2 -1.3l3.7 -1.9l3.8 -3.4l2.5 -2.4l-0.2 -3l0.7 -1.4l-0.1 -0.8l-1 -1.3l-0.4 -1.2l0.3 -1.7l-0.1 -0.2l0.1 -6.6l6.6 -5.3l-6.7 1.1l-2.5 -15.6l9.1 2.6l5.3 -5.4l-1.6 -9.1l7.1 -6.2l-12.1 -7.3l-3.7 -4.8l-5.9 -5l-46.5 -34.5l-22.8 -15.6l-4.5 -2l-49.3 -36.2l-54.3 -108.8l-13.6 -27.2l-105.6 54.8l-53.2 26.3l-6.8 5.4l-5.7 2l3.7 7.7l13.1 6.5l12.6 3.2l9.5 -1.2l4.9 2.6l5.6 10.9l0.9 6.6l-1.3 14.5l1.1 7.4l5 2.8l14.3 2.9l-10.2 30.8l-8.4 22.4l-0.8 19.8l-9.4 4.6l1 2.5l-11 13.9l2.4 15.4l-27.5 4.4l-10.5 3.9l-8.1 14l-0.6 10.3l-2.4 8.9l-5.9 6.2l-6.7 2.5l-10.2 10.4l-0.4 8.6l5.5 15.1l1.6 11.4l-5 -1.9l-10.4 2.1l-7.7 4.5l-17.1 2.6l-36.6 4l-27.2 4.9z" />
  </g>
  <g data-zip="03303">
    <path d="m2246.1 6881.6l0 0l1.1 3l10.4 22.6l9.3 14.6l155 320.3l6.7 12.9l7.9 -1.8l153.6 -74.9l17.9 38.3l26.5 57l24.1 46.8l12.6 19.9l4.4 14.2l10.3 0.1l27.2 -4.9l36.6 -4l17.1 -2.6l7.7 -4.5l10.4 -2.1l5 1.9l-1.6 -11.4l-5.5 -15.1l0.4 -8.6l10.2 -10.4l6.7 -2.5l5.9 -6.2l2.4 -8.9l0.6 -10.3l8.1 -14l10.5 -3.9l27.5 -4.4l-2.4 -15.4l11 -13.9l-1 -2.5l9.4 -4.6l0.8 -19.8l8.4 -22.4l10.2 -30.8l-14.3 -2.9l-5 -2.8l-1.1 -7.4l1.3 -14.5l-0.9 -6.6l-5.6 -10.9l-4.9 -2.6l-9.5 1.2l-12.6 -3.2l-13.1 -6.5l-3.7 -7.7l-1.8 -2.3l4.6 -7.3l-0.5 -6.9l-9 -12.6l1.5 -8l8.7 -6.7l5 -8.9l-1.3 -9.3l-7.5 -3.5l-22 9.4l-9.8 -0.4l-8.4 -5.6l-3.9 -5.4l8 -6.8l9.5 -20.2l9.7 -9l1.4 -4.4l-5 -6.7l-9.3 -0.3l-17.9 6.5l-8.3 -0.4l-24 -11.9l-5.7 -0.3l-6.2 -6.8l17.4 -12l5.3 -12.7l-8.5 -10.8l-9.2 -1.3l-8.1 9.6l-10.3 4.8l-6.7 -5.5l-2.8 -9.6l5.6 -12l0.6 -8.9l-7.5 -11.7l-8.1 -5.3l-4.5 -6.9l-3.9 -17.2l0.4 -6.4l5.8 -17l-2 -12.2l-6.1 -9.5l-11.9 -6.7l-9.4 -11.7l-10.4 -5.8l-1.2 -8.4l1.2 -7.5l-2.1 -3.6l-12.8 -14.3l-4.2 -15.7l-0.2 -5.1l6.2 -15.6l0.6 -11l4.1 -14.9l-3.5 4.4l-57.4 30.6l-23.1 6.2l-83.4 42.6l-13.8 8.9l-14.8 7.3l-2.6 -0.2l-73.5 37.9l-13 7.4l-16.5 6.1l-23.2 13.7l-13.9 7.2l-62.6 32.5z" />
  </g>
  <g data-zip="03307">
    <path d="m3034.4 6970.2l0 0l-27.5 37.9l54.3 108.8l49.3 36.2l4.5 2l22.8 15.6l46.5 34.5l5.9 5l3.7 4.8l12.1 7.3l17.9 16.8l11.6 -14.7l5.2 -5.2l22.7 -28.4l4.3 -11.7l6.3 -1.9l57.1 -76.5l9 -20.5l83 -114.8l4.6 -2.1l6.7 -13.6l52.7 -73.2l-3.9 -6.4l3.1 -20.7l2.9 -5.7l-2.5 -16.6l-4.1 -10.5l-1.3 -11.2l-60.6 -43.9l-1.3 -5.8l-7.3 -5.3l-3.7 1.9l-246.1 -179.2l-27 8.8l-1.5 13.6l16.5 12.6l4.7 19l-2.4 7.4l-5 1.8l-16 10.1l-17.4 1.5l4 7.7l-5.2 9.5l-1 6.4l7 11.4l-1.7 6l3.2 5.9l4.2 -0.7l6.9 13.9l12 4.8l11.7 10.3l2.5 11.3l7.1 10.4l8.4 3l4.1 9.7l5.9 3l-1 6.1l-5.6 5l-96.4 134.9l-9.2 9.6l-6.2 11.7l-7.1 8.4l-22 30.2l-1.8 4.1z" />
  </g>
  <g data-zip="03431">
    <path d="m508 8325.2l0 0l43.4 184.3l14.5 62.5l47.6 -0.3l5.2 0.3l104.4 -0.7l18 -0.1l50.6 -0.4l0.2 8l23.8 79.4l0.2 3.7l-3.5 45.2l2.1 1.8l14.7 -4.6l8.8 -0.7l-2.2 -7l0.9 -10.8l7.2 -16.2l9.8 -35.2l8.8 0.8l2.1 -5.5l15.6 1.9l8.8 3.9l5.8 -3.2l5.3 11.8l8.7 0.7l6.4 4.4l-8.7 -9.5l-17.9 -24.2l-3.3 -12.1l0.2 -7.6l5.6 -20.4l2.3 -5.2l8.8 -0.4l-2.6 16.7l22.8 2.9l13 8l5.9 -11.3l8.7 -16.5l9.7 -1.3l14.9 -0.8l2 -0.2l0 -9.2l0.2 -54.6l61 -6.7l-9.1 -3l-10 -0.7l-4.4 -3.3l-10.1 -0.9l-0.8 -11.6l10.1 -4.1l6 -5.6l9 -23.7l6 -2.5l14.7 -10.7l4.1 -6.6l4 -11.9l6.5 10.6l2 7.3l6.5 0.3l4.8 -7.7l15.9 -9.2l5.2 0.5l3.7 -7.4l-5.8 -11l-6.4 -3l0.9 -8.4l8.1 7.8l0.5 -6.2l-4.4 -3.2l6.1 -2.9l6.1 -10.9l-1.3 -5.2l-3.7 -0.2l0.2 -9.6l-2.6 0.5l-9.9 9.1l-17.2 4.6l-12.5 5.1l-9.9 2.1l3.7 -5.5l11.3 -7l4.2 -16.2l1.3 -21.1l-7.5 -2.5l-19 0.2l-9.9 -6.7l-7.5 0.8l2.8 -8.1l-0.8 -12.7l4.4 -6.8l-0.1 -4.6l6.9 -10l-46.3 -2.3l-2.2 56.3l-82.8 -33.2l-19.9 -130.4l-7.9 10.7l-8.2 23.7l1.4 7.5l-2.3 8.9l1.5 8.2l-108.7 32.3l-0.9 -6.7l-20.6 -33.8l-4.1 -11.1l-11.7 -58.6l-15.7 -5.3l1 -5.9l-2.7 -4.5l-0.1 -10.5l-4.6 -8.5l-1.4 -9.7l-7.9 1l1 -8.2l-3 -11.6l-6 -4.1l-6.1 -8.4l-0.1 -7.3l-5 -5.3l-8.6 -1.2l-8.1 -12.1l0.9 -18.9l-7.3 -9.7l6.5 -8.1l5 2l8.6 9.6l27.3 1l5.6 -1.2l13.9 -8.8l-18.4 -24.6l-5.2 -9.1l-4.1 -16.9l-116.6 10.1l22.6 186.1l-23.3 -0.8l-9.8 154.4l-57.1 15.3z" />
  </g>
  <g data-zip="03440">
    <path d="m1454.3 8141.1l0 0l-2.5 55l78.7 -13l-1.3 -11l12.2 -4.2l1.5 13.1l248.8 -39.2l33.8 -5.5l-2 -3.1l4.1 -1.9l-4.3 -2.7l5.9 -4.7l6.1 3.5l1.2 -5.1l-2 -6.4l-7.7 -6.2l-1.9 -4.6l5.8 -0.3l-7.4 -4.6l5.2 -13.5l8.4 -10.8l5.2 2.4l0.8 -6.2l-4.2 0l3.1 -3.8l-10.5 -4.3l-0.1 -11.8l1.6 -5.5l-6.5 -0.2l7.4 -2.9l2.2 1.7l14.1 -4.2l9 -0.8l1.9 -2.6l-3.9 -5.2l16.8 -10.5l6.8 -10.1l6.3 -8l0.1 -6.5l-5.5 -14l7.4 -7.8l0.6 -13.4l-4.1 -8.1l-4.1 0.8l-1.9 -8.8l3.1 -6.4l0.6 -8.1l3.8 -1l-11.6 -5.5l0.4 -5.2l-4.3 -1.2l-0 -22.1l6.7 -8.1l-7.6 2.3l1.7 -4.6l-2.8 -8.4l6.4 -1.7l-1.2 -10.2l-4.6 0.9l3.7 -4.5l4.2 -15.3l-7 -10.7l7.8 -4l1.1 -4.9l-3.9 -3.1l4 -5.6l-1.6 -3.3l10.4 -3.3l0.8 -10.2l-4.3 -2.4l-40.8 9.8l-3.9 -39l-0.7 -2.4l-13.3 13.9l-4.1 -6.8l-19.8 -5.5l-8.8 3.2l-5.9 -2.2l25.1 27.3l-12.3 13.7l-6.9 9.9l-169 41.3l-123.6 26.1l-46.5 252.4z" />
  </g>
  <g data-zip="03442">
    <path d="m1777.3 8243.7l0 0l2 9.7l10.8 -2.4l18.5 -1.5l0.2 15.7l4.9 2.2l0.6 10.9l3.3 5.7l30.3 -1.7l10.3 0.9l134.8 -18.9l-8.3 -49.5l-12.1 1.2l-3.1 -15l-10.2 1l-2.8 -29.1l26.4 8.9l-0.6 -10.1l7.5 -2.1l-6 -19.7l-11.6 -34.8l3.2 -16.8l-1.6 -9.9l-15.3 -1.6l-4.9 -31.1l-34.9 1.2l-1 -10l-22.3 -20.6l-3.9 1.1l-6.2 -10.7l-4.9 -4.6l-6.8 10.1l-16.8 10.5l3.9 5.2l-1.9 2.6l-9 0.8l-14.1 4.2l-2.2 -1.7l-7.4 2.9l6.5 0.2l-1.6 5.5l0.1 11.8l10.5 4.3l-3.1 3.8l4.2 0l-0.8 6.2l-5.2 -2.4l-8.4 10.8l-5.2 13.5l7.4 4.6l-5.8 0.3l1.9 4.6l7.7 6.2l2 6.4l-1.2 5.1l-6.1 -3.5l-5.9 4.7l4.3 2.7l-4.1 1.9l2 3.1l-33.8 5.5l7.3 49.7l-5 0.8l4.1 26.3l-3.2 3.4l0.8 7.4l5.1 -0.5l4.8 9.8l-28.2 4.9z" />
  </g>
  <g data-zip="03446">
    <path d="m868.2 8582.5l0 0l4 6.6l7.3 -6.3l-1.6 -5.4l-2.5 1.4l-7.3 3.6z" />
    <path d="m508.5 8783.6l0 0l-19.1 37.2l114.9 8.2l18.2 133.4l64.3 15.3l66 11.8l23.1 -45.4l153.6 7.9l5.1 0.2l0.6 -17l6.3 -22.7l-2.6 -28.1l16.5 -5.2l-4.5 -39.3l24 1l-3.4 -62.5l0.7 -57.8l2.1 -64.9l-38 -12.1l23.6 -52.1l-10.3 -0.2l-8.2 -5.1l-5.9 11.3l-13 -8l-22.8 -2.9l2.6 -16.7l-8.8 0.4l-2.3 5.2l-5.6 20.4l-0.2 7.6l3.3 12.1l17.9 24.2l8.7 9.5l-6.4 -4.4l-8.7 -0.7l-5.3 -11.8l-5.8 3.2l-8.8 -3.9l-15.6 -1.9l-2.1 5.5l-8.8 -0.8l-9.8 35.2l-7.2 16.2l-0.9 10.8l2.2 7l-8.8 0.7l-14.7 4.6l-2.1 -1.8l3.5 -45.2l-0.2 -3.7l-23.8 -79.4l-0.2 -8l-50.6 0.4l-18 0.1l-104.4 0.7l-5.2 -0.3l-101.2 204.4l-2 6.6l-1.9 1z" />
  </g>
  <g data-zip="03449">
    <path d="m1444.7 8352.6l0 0l-2.8 83.6l163.2 4l7.9 54l11.4 -5.2l104.2 -22.2l54.3 -9.3l-8 -7.3l0 -3l7.2 -6.3l-3.9 -7.3l-0.7 -7.6l2.1 -4l8.2 -8.4l10.8 -2.4l1.3 -5.1l-3.7 -4.8l2.7 -9.1l7.7 -1.4l16.7 -5.1l1.3 -11.3l-2.5 -32.7l-3.3 -16.8l0.2 -14.9l1.9 -8.2l-0.8 -10.7l-2.6 -7.2l-3.3 -5.7l-0.6 -10.9l-4.9 -2.2l-0.2 -15.7l-18.5 1.5l-10.8 2.4l-2 -9.7l28.2 -4.9l-4.8 -9.8l-5.1 0.5l-0.8 -7.4l3.2 -3.4l-4.1 -26.3l5 -0.8l-7.3 -49.7l-248.8 39.2l-1.5 -13.1l-12.2 4.2l1.3 11l-78.7 13l-7.1 156.5z" />
  </g>
  <g data-zip="03451">
    <path d="m0 8801.1l0 0l2.8 6.3l0 0l8.3 18.8l14.2 18.6l3.3 17.6l0.5 13.5l4.6 33.4l0.9 7.1l1.7 14l2.8 5.8l3.5 9.1l3.4 30.8l5.4 16.3l61.9 56.3l7.3 8.3l11.9 17.6l8.4 16.6l2.4 12l-0.9 9l-5.2 5.5l-13.6 7.1l-5.5 11l1.9 10.8l8.7 8.4l6.5 0.3l8.4 -2.6l21.2 -12.9l4.2 -5.5l1.3 -11.6l2.4 -3.7l7.6 -1.5l12.3 3.3l9.8 12.2l4 9.5l4.4 5.7l16.1 9.6l5.1 7.4l4.9 14.1l3.5 27.7l4.8 19.1l15.3 18.7l19.9 31.7l7.3 16.3l-0.1 8.9l21.3 0.9l-8.5 -55.8l8.6 -0.4l-2.3 -8.8l-6.7 -4.9l-0.3 -14.3l-2.7 -8.5l-1.7 -27.8l13.8 -5.1l12.1 -17.2l0.2 -17.9l5.3 -10l2 -7.4l-5.5 0.2l-12.1 -9.4l-4.2 -0.6l-4.3 -6.9l-4.8 -0.4l-5.2 4.7l-3.8 -3.5l2.5 -2.3l-1.4 -6.3l-5.9 -4.3l-6.9 -1.3l-10.3 -69l-13.8 -90.3l-1.4 -14.8l-1.5 -4.2l-17.3 -115.3l-58.9 -4.5l-164.2 -15.2l-3.4 -0.4l-6.4 20.3z" />
  </g>
  <g data-zip="03452">
    <path d="m1201.8 8737.8l0 0l14.2 89.5l20.9 142.2l7.9 65.8l112.5 3l161.3 7.5l1.9 -3l1 3.2l27.4 1.3l4 0.2l-0.3 -0.7l0.2 -3.1l16.1 4.3l4.1 0.8l39.3 1.7l2 -5.1l11.6 0.4l3.4 5.4l68.7 3.8l-30.8 -189.9l1.2 -1.2l-18.1 -110.6l-206.6 -3.5l-183.2 -10.6l-38.1 -0.5l-20.5 -0.7z" />
  </g>
  <g data-zip="03455">
    <path d="m959.8 8591.5l0 0l-23.6 52.1l38 12.1l-2.1 64.9l10.4 3.6l10.9 1.2l8.4 2.9l10.6 10.4l-0.7 3.1l12.8 17.6l1.5 3.9l-1.9 8.2l7.2 -1.3l10.4 14.8l1.4 7.2l6.2 2.7l4.5 6.1l11.1 8.9l3.7 13.2l19.8 -4.6l99.5 -14.9l5.6 29.5l22.4 -5.8l-14.2 -89.5l20.5 0.7l-8.8 -64.3l-21.9 -1.3l-24.4 -153l-13.4 -93.9l0.9 -31.4l-20.4 -0.8l1.6 -28.7l-30.5 -1.3l1.3 5.2l-6.1 10.9l-6.1 2.9l4.4 3.2l-0.5 6.2l-8.1 -7.8l-0.9 8.4l6.4 3l5.8 11l-3.7 7.4l-5.2 -0.5l-15.9 9.2l-4.8 7.7l-6.5 -0.3l-2 -7.3l-6.5 -10.6l-4 11.9l-4.1 6.6l-14.7 10.7l-6 2.5l-9 23.7l-6 5.6l-10.1 4.1l0.8 11.6l10.1 0.9l4.4 3.3l10 0.7l9.1 3l-61 6.7l-0.2 54.6l-0 9.2l-2 0.2l-14.9 0.8l-9.7 1.3l-8.7 16.5l8.2 5.1l10.3 0.2z" />
  </g>
  <g data-zip="03458">
    <path d="m1613 8494.2l0 0l6.6 42.9l-2 -0.1l2.1 4.6l3.1 13.5l1.7 18.9l13.1 101.8l12.6 77.2l18.1 110.6l-1.2 1.2l30.8 189.9l1.1 -1l86.4 3.9l127.1 2.1l-9.7 -69.9l18.3 -12.2l12.1 -12l2 -10.1l6.4 -9.2l0.2 -10.9l6.1 -12.3l2.8 -11.5l6.4 -10.2l-2.7 -23l-4.4 -10l4.2 -15.9l-1.2 -7.4l-5.9 -5l-6.2 -1.2l1.4 -13.9l17.3 -3.9l-1.6 -7.1l6.5 -34.8l17.3 -4.1l-0.9 -4.9l4.4 -1.2l-10.3 -69.6l-38.9 -260.4l-2.5 -3.6l-2.9 -1.9l-147.9 24.1l-54.3 9.3l-104.2 22.2l-11.4 5.2z" />
  </g>
  <g data-zip="03465">
    <path d="m934.5 8952.3l0 0l-5.1 -0.2l9.6 47.5l43.1 2.3l4.4 46.3l65.2 1.5l-2.5 -16.7l29.4 -0.9l-2.8 -26.2l55.1 1.7l4.9 -1.4l6.1 -10.3l-3.2 -7.1l-4.4 1.7l-2 -21.1l104.6 0.2l-20.9 -142.2l-22.4 5.8l-5.6 -29.5l-99.5 14.9l-19.8 4.6l-3.7 -13.2l-11.1 -8.9l-4.5 -6.1l-6.2 -2.7l-1.4 -7.2l-10.4 -14.8l-7.2 1.3l1.9 -8.2l-1.5 -3.9l-12.8 -17.6l0.7 -3.1l-10.6 -10.4l-8.4 -2.9l-10.9 -1.2l-10.4 -3.6l-0.7 57.8l3.4 62.5l-24 -1l4.5 39.3l-16.5 5.2l2.6 28.1l-6.3 22.7l-0.6 17z" />
  </g>
  <g data-zip="03470">
    <path d="m232.9 8800.9l0 0l17.3 115.3l1.5 4.2l1.4 14.8l13.8 90.3l24.2 6.9l26.4 14.4l36.4 -6.2l18.9 -0.4l3.7 3.5l9.2 -0.6l5.9 4l9.5 -0.8l-5.9 14l29.5 3.6l17 2.4l-3.6 -0.5l0.1 12.3l-4.7 4.4l-21.6 2.9l-8.8 3.1l-13.7 11.9l1.1 3.5l8.8 0.3l-0.7 3.1l-7.1 4.4l-4 6l-1.5 15.9l4.4 6.1l5.5 3.4l1.4 8.7l-6.1 14.4l-31.3 -5.8l-38.6 -0.4l-12.1 17.2l-13.8 5.1l1.7 27.8l2.7 8.5l0.3 14.3l6.7 4.9l2.3 8.8l-8.6 0.4l8.5 55.8l114.1 4.7l312.4 12.9l54.8 2.3l8.5 0.3l231.5 7.8l-7 -41.2l-5.5 -3.4l-2.5 -6.4l-6 -7.2l-5.5 -11.7l-0.9 -4.1l5.2 -10.8l-4 -5.7l-0.6 -9.4l-3.7 -7.4l2.2 -7.1l-0.9 -8.3l-4.8 -7.1l3.6 -8.4l9.1 -13.6l-1.3 -3.7l-21.1 -127l-4.4 -46.3l-43.1 -2.3l-9.6 -47.5l-153.6 -7.9l-23.1 45.4l-66 -11.8l-64.3 -15.3l-18.2 -133.4l-114.9 -8.2l-109.8 -8.5l-146.6 -11.4z" />
  </g>
  <g data-zip="03561">
    <path d="m1667.9 2835.5l0 0l-0.1 0.3l160.7 80.9l-28.8 49.3l4 1.4l5.5 12.6l-1 10.4l3.2 8.5l6.8 11.2l-8.9 5.4l-5.1 12.4l-8 8.1l-1.6 6.4l4.7 5.6l-1.9 3.5l-6.9 5.3l3.6 6.1l-6.1 -0.3l14.5 8.8l9 9.3l2 -10.1l5.7 -13.4l3.5 -23.8l5 -17.5l-5 -19.7l2 -19.8l11.5 -43.7l5.9 -9.2l182.5 88.8l197.3 87.6l74.9 -69.3l51.4 -47l4.3 -5.3l42.7 -37.1l1.2 -0.8l1.9 -1l2 -1.8l3.2 -3.6l16 -13.8l22.3 -17.6l5.6 1.1l7.8 -11.6l50.7 -39.9l-117.6 -174.9l-35.9 -57.4l-9.3 -11.2l-37.6 -58.7l-6.4 3.5l-14.3 9.6l-7.6 8l-9.4 5.4l-35.2 -1.9l-9.4 4l-24.6 24l-3.3 6.1l-0 6.1l10.5 18.1l-1.2 6.8l-9.2 3.8l-15.6 -2.1l-12.5 4.3l-3.7 3.5l-4 26.4l1.5 3.5l8.2 8.4l0.6 4.2l-1.7 4.3l-7.7 6.6l-1.9 5.2l3.4 15.8l7.3 21.2l0.8 4.6l-2 7.4l-4.2 4.1l-13.1 6.5l-21.6 3.8l-20.4 7.6l-13 9.7l-19.2 14.4l-24.2 13.6l-27.1 3.1l-23.2 12.8l-7.5 1.4l-9.9 -3l-17.6 -11.6l-59.5 -29.7l-13.3 -3.2l-30.7 7.1l-22.3 18.4l-11.7 18.1l-18.3 7.4l-10.6 -0.3l-17.8 -7.7l-37.7 0.8l-14.6 4l-52.4 -3.8l-10.2 5.1z" />
  </g>
  <g data-zip="03570">
    <path d="m3466.3 2240.3l0 0l1.1 5.6l11.5 3.1l10.1 12.2l11.5 -2.9l10.3 -0.4l17.1 12.6l17.8 -3.5l8.5 -3l1 -6.7l-5.4 -13.8l-4.9 -18.6l-8.3 -10.7l-0.2 -4.3l11.4 -9.5l6.5 -8.1l7.2 -2.1l25 -12.2l5.3 -8.8l10.6 -4.6l10.2 1.6l4.6 -3.1l8.5 4.7l3.2 7.4l5.6 0.4l12.9 7l-2.4 7l5.4 11.3l-2.4 6.8l6 4.3l1.5 5.9l-15.2 5.3l-3 5l-16.3 4.2l-23.5 0.2l-5.8 -2.6l-11.2 -11.5l-6.7 1l6.5 5.1l0.2 8.9l10 6.1l-1.2 3.5l5.3 4.8l-0.6 7.8l4.3 7.2l0.3 6.5l6.2 8.2l5.5 11.3l-2.4 2.5l-8.4 -2.5l-12.2 7.2l-8.8 13l1.6 9.7l-2.6 3.7l-0.9 9.4l6.1 9.5l13.7 1.7l10.1 5l11.1 10l5.6 7.2l1.8 18.2l21.2 -0.7l164.8 -5.3l134.6 -3l27.2 -0.8l8.1 -0l0.8 0.1l5.5 -0.2l8.1 -0.2l9.4 -0.2l0.6 -23l42.4 -1.7l19.5 6l2 1.7l-5.6 15.9l1.1 47.6l415.9 -8.9l-5.5 -136.2l-6.5 -107.5l-10.7 -237.3l-7 -217.2l-118.8 10l-2.3 -2.4l-2.4 8.9l-41.2 87.3l5.7 3.9l7.3 -3.6l3.7 5.8l9.1 9.6l9.5 16.9l0.1 18.3l4 10.8l8.6 13.2l-0.5 7.6l-7.1 -6l-6.9 -3.5l-22.4 -4.5l-3.8 3.6l-2.2 8.1l-6.2 5.7l3.1 7.3l-1.2 4.7l-5.4 3.9l-9.3 3.5l-8.6 12.7l5 13.4l-6.5 3.4l-9.5 -0.4l-16.4 -6.1l-8.8 4.4l-7.3 7l-15.6 32.7l14.3 11l-0.1 9.2l-3.1 7.3l-0 6.8l-3.5 7.1l-0.1 8.7l7.9 1.3l-5 7.8l-8 -1.5l-11.7 -9.9l-2.6 -4.2l-2.6 6.3l-7.1 -3.5l-8.4 17.6l-18.9 0.1l-2.1 -1.5l-14.5 1.6l-59.9 -0.2l-20.5 1.1l-562 17.3l-19 51.2l0.7 16.7l4.5 7.1l3.9 11l4.5 5.2l0.4 8.2l6.3 2.2l-7.6 7.1l-6 10.8l-11.5 5.1l-5.3 7.3l1.3 6.2l-2 12.9l2.8 11.5l-3.5 6.4z" />
  </g>
  <g data-zip="03574">
    <path d="m2296.9 3030.7l0 0l-74.9 69.3l111.8 61l14.7 7.9l15.8 5.5l25.3 12.1l580.3 213.4l330.3 111.3l32.2 10.7l-38.8 -176.5l30.9 -5.1l-79.9 -150.4l-76.8 -43.8l-105.2 17.8l-3.9 -25l-0.7 -4.9l-199.2 33.8l-32.6 -204.1l-291 -129.6l-29 18.2l-50.7 39.9l-7.8 11.6l-5.6 -1.1l-22.3 17.6l-16 13.8l-3.2 3.6l-2 1.8l-1.9 1l-1.2 0.8l-42.7 37.1l-4.3 5.3l-51.4 47z" />
  </g>
  <g data-zip="03576">
    <path d="m3416.7 123.7l0 0l1.7 8.4l9.2 10.8l2 9.5l5.5 8.2l9 6.4l18 -3.5l-6.2 -8.8l3.1 -10.6l2.8 -2.4l-18.9 -13.1l-26.4 -4.9z" />
    <path d="m2928.8 720.3l0 0l-1.8 10.8l6 -9.7l10 -8.4l3.9 -10.2l8.7 -6.8l5.7 -7.1l30.1 -27.8l5.7 -7.3l6.7 -3.8l10.4 -9.3l14.7 -6.4l24.5 12.3l6.9 11.1l6.6 2.6l13.1 11l2.1 9.4l11.2 14.8l5.6 38.4l8.1 11.9l12 4.5l20.3 12.9l4.4 -3.2l2.8 5.7l7.7 1.7l2 10.7l16.1 2.2l4.5 10.8l21.5 5.1l1.2 3.8l9.8 7.5l5.9 -0.2l1.1 6.6l6.6 5l6 -4.6l4.4 0.5l3.7 10.2l9.3 15l2.4 -1.8l3.7 6.4l-0.3 5.4l6 13l1.1 14.4l4.6 7l2.5 -0.7l3.9 -12.2l5.1 -5.3l12.6 15l9.3 7.2l3.8 7.2l-3.1 9l2.3 6.1l-2 5.2l0.6 12l-9.2 -3.3l-8.8 2.3l-5.1 5.8l-7.2 3.7l-6.8 -4.7l-8.4 13.8l-1.9 9.8l3.2 15.2l-4.8 14.5l5.9 6.7l117.4 -17.6l8.2 -0.5l105.4 -14.6l52 -280.6l18.6 -9.7l13.1 4.9l12.8 -3.9l10.4 -1.2l21.4 3l7.6 -0.5l17.1 -6.8l-4 -3.5l2.5 -2.4l8.4 4.2l1.4 -8.2l-2.6 -5.8l9.6 -14.3l6.9 -8.1l0.1 -9.7l9.2 -19.3l0.3 -6.3l-4.9 -9.7l-7.7 -1.3l-4.4 2l5.7 -7.3l-5.1 -8.2l-1.5 -5.6l2.5 -5.6l4.2 -25.5l-3.1 2l-6.4 -7.6l2.7 -12.1l6.7 -2.8l7.5 -18.7l-1.3 -4.5l3 -7.2l5 -2.4l6.5 6.5l-1.4 5.3l4.3 -3.2l17.1 -2.3l7.2 -7.6l2.9 -6.6l7.1 1.2l10.6 -3l8 -9.9l14.8 13.7l4 2.4l4.5 9.3l11.1 4.9l4.5 4.5l4.7 14.3l3.4 3.8l17.9 5.7l6.5 3.7l5.5 0.3l24.1 13.2l16.2 3.9l6.2 -4.3l0.3 -6.5l3.6 -9l9.2 14.6l6.3 14.9l-2 3l3.2 3.8l-4.9 2.9l-1.3 4.5l8.5 11.2l7.6 5.5l5 1.4l-13.5 -314.4l-136.4 -26.9l0.9 -10.4l5.8 -7.3l6.3 -2.3l16.3 -3l-0.7 -9.9l4.5 -30.8l4.1 -11.6l-2.3 -11.6l7.3 -24.2l5.1 -6.8l0.1 -8.5l-6.4 -6.8l-0.9 -13.3l2.3 -13.7l4.7 -7.7l-8.7 -24.9l-9.3 -4.5l-14.4 -16.3l-8.8 -5.6l-13.3 -4l-5.2 0.7l-6.8 -8.2l-7 -5.9l-0.9 1.3l5.8 10.6l-1.9 4.5l-6.8 4.1l-14.6 19.8l0 9.2l-6.7 27.8l7.6 12l-4.1 18.3l-10.8 4.1l-6.3 7.3l-6.1 3.6l-16.1 -4.5l-3.8 4.7l-10.6 3.8l-4.5 8.8l-11 8.9l-7.4 -6.9l-2.5 -13.1l-7 -8l-8.2 -2.2l-6.3 -12.2l-9.8 -1.4l-5.3 -7.3l-7.5 -5.1l-7.3 5.6l-3.7 -3l-5.6 -12.2l-8.3 -6l-4.6 -0.3l-4 4.5l-3.3 11.7l-12.5 9.5l-14.5 2.4l-8.1 -16.5l-7.2 -9.1l-8.1 -4.4l-11.2 -0.1l-0.2 5.9l2.5 7.8l4.4 6.1l-3.1 2.2l3.4 4.7l5.6 1.6l4.1 9.5l-3.3 8l3.4 6l-4.2 11.6l0.3 12.6l-3 3.8l-0.8 10.1l3.7 7.9l4.4 0.3l-0.1 4l4.6 14.6l-154.4 -28.1l-17.3 -4.8l-42.3 -8l-26.5 -3l-30.2 -5.7l-7.2 -3.9l2 9.2l-2.6 6.2l-6.1 1.2l-2.5 -1.2l3.1 -8.7l-6.9 0l-3.9 -9.9l-53.4 -8.7l-6.5 14.8l-9.1 1.7l-1.2 3.5l-0.1 8.1l-28.3 12.5l-4.6 -2.2l-8 4.5l0.6 9.8l-16.1 8.4l-7.6 1.8l-40.2 -7.3l-24.4 4.6l-10.1 -1.5l-5.1 24.8l-5.2 3.1l4.1 7.7l12.9 9.7l11.9 30.3l4 2.6l-5.4 4.4l0.5 2.7l9.2 1.9l3.9 -0.6l3.5 -3.1l4.2 -0.8l4 24l-5.7 45.9l3.8 16.7l-1.9 11l-2.3 4.7l-5.3 3.7l-7.4 0l-1.5 2.7l7.7 7.7l8.4 4.5l3.3 32.3l17.4 16l13.8 18l10.8 18.6l0.7 5.9l0 4.7l1.8 3.2l3 1.1l10.5 -3.6l2.7 -0.2l3 0.9l0.8 5l-4.8 1.2l-3.2 4.2l-0.6 0.8l0.2 6.3l3.3 5.9l-0.2 6.7l-1.4 2.8l-1.2 -0.4l-2.4 0.5l-3.6 -3l-4.9 -1.8l-4.5 1.4l-1.8 3.2l-2.2 3.9l-18 20.6l-5.8 4.8l-2.4 1.9l-7.1 5.8l-1.4 2.8l0.8 3.4l6.9 6.5l-1.7 5.4l-29.4 38.8l-12.4 7l-5 5.3l-1.6 3.7l-0.8 13.8l-15.8 15.9l-16.1 4.4l-16.9 10.2l-10.6 14.6l-1.9 4l-0.4 8.5l1.1 2l4.5 8.4l0.1 6.1l-9.9 8.9z" />
  </g>
  <g data-zip="03581">
    <path d="m3759.4 3224.6l0 0l1.1 23.7l17.2 28.8l24.4 -67.3l447.2 35.8l81.8 -8.5l81.8 0.1l0.5 -152.2l-4.5 0.1l-2.1 -36l99.4 -4.5l-2.9 -69l-4.3 -158.5l-7.6 -152.1l-6.1 -151.1l-4.2 -102.8l-415.9 8.9l4.6 194.3l-2.3 1.6l-8.6 4.4l-1 -2.6l-9.2 -0.1l-5.6 -7.9l-10.3 -4l-8.9 0.1l-11.5 7.1l-3.9 -0.6l-3.3 -6.3l-10.2 -6.6l-7.6 -7.5l-5.1 -10.4l-7.4 -10.4l-17.1 -8.9l0.7 -3.4l13.7 -18.5l7.2 -26.3l-5.9 -12.1l-0.7 -9.2l7.1 -13.9l-0.2 -7.5l3.3 -13.4l-2.7 -11l3.4 -22l14.3 -29.4l0.6 -10.1l-4.1 -7.2l1 -4.6l-8.1 0.2l-5.5 0.2l-0.8 -0.1l-8.1 0l-27.2 0.8l-134.6 3l9.8 442.6l42 -0.8l-18.9 108.9l-8.5 0l3.7 106.9l-6.7 12l0.5 11.8l-3.1 13.2l-0.8 18.5l-8.6 15.9l-14.9 6.7l-24.4 13.4l-11.4 16.9l-4.9 29.9l2.5 29.3l-8.3 21.8z" />
  </g>
  <g data-zip="03582">
    <path d="m2897 1597.3l0 0l0 9.2l1.5 2.8l18.4 18.6l10.6 8l7.7 -3.4l6.7 2.2l0.9 7.4l-14 3.9l-11.4 -9l-4.9 5.5l2.6 5l11.6 2.8l9 4.1l6.3 1.8l3.6 8.1l-2.7 5.2l-10.9 -4.4l-9.7 -9l-3.1 3.8l-2.2 9.9l-2.2 19.6l7.7 25.8l2.2 18.6l-3.1 7.1l-4.7 4.7l-9.2 0.8l-8.2 1.5l1 7.9l4.2 3.2l9.3 1l15.4 -6l3.6 1.4l-0.9 5.3l-8.4 5.2l-0.8 12.9l-3.2 5.7l4.2 1.3l11 -7.3l5.2 -6.6l5.3 -2.2l3 2.5l0.5 6l-1.7 6.9l-4 4.9l-0.9 3.4l4 2.8l4.9 -2.7l13 -11.3l5.1 0.3l1.6 3.7l-0.9 6.3l-6 7.9l-0.1 5.5l5.6 3.4l6.4 -2.2l3 -0.1l-0.3 3.4l-6.3 9.6l-1 7.8l-5.2 7.4l-13.8 11l-5.6 4.2l-6.8 1.1l-6.8 -3.7l-6.5 -10.6l-5.2 -0.7l-0.4 6l1.9 4.6l1.3 6.1l12.7 15.7l0.7 5l-2.7 4.8l-5.9 4.3l-2.8 0.5l-11.3 -5l-4.3 1.3l-3 6.8l1.2 13.1l-2.5 3.9l6 5.8l-8.9 2.4l13.1 45.8l55.3 -4.9l-1.9 7.5l6 5.1l0.6 4.3l9.7 7.8l13.4 -2.1l4.4 -9.8l5.2 -0l1.7 4.9l5.3 -0.9l-0.5 5.6l3.5 0.8l2.1 6.8l9.7 13.8l9.9 6.9l6.3 9.8l4.9 -13.7l-2.3 -15.4l-7.4 -14.9l-0.5 -6.9l-6.2 -16.4l2 -4l6.1 -5.7l14.6 -6.8l28.3 -3.7l-4.6 6l-1.5 10l-8.6 15.8l-2.3 8.4l-11.5 16.3l-4 16.5l-0.9 18.9l4.5 7.7l6.5 5.4l26.2 9.8l12.9 12.2l4.9 14l10.7 16.4l11 8.8l7 0.5l11.1 14l-9.1 1.4l-3.9 3.8l8.8 0.1l14.8 4.1l6.9 -3.5l9.5 2.5l9 -4.3l22 -5.9l13 2.1l2.1 -2.9l16.8 -0.4l22.7 -12.8l28.9 -16.5l-1.3 -36.3l278.8 -157.8l47.9 -136.1l-6.8 0.4l-10.9 -141.5l-9.9 1.1l-4.2 -58.7l10.4 -1.7l-1.4 -37.3l-264.8 7.2l5.1 35.7l-145.4 21.9l-70.4 10.9l-41.5 -22.6l-164.9 28.1l0.1 0.5l-2.4 6.8l-11 2.5z" />
  </g>
  <g data-zip="03584">
    <path d="m2610.1 2406.7l0 0l2.8 2.4l92.2 124.9l248.5 -142.6l30.6 -17.6l1.9 -1l297.7 -44.9l-7.4 -83.1l-9.4 -77.3l0 -5.2l-3.5 -17.6l-2.1 -54.3l-0.7 0.4l-22.7 12.8l-16.8 0.4l-2.1 2.9l-13 -2.1l-22 5.9l-9 4.3l-9.5 -2.5l-6.9 3.5l-14.8 -4.1l-8.8 -0.1l3.9 -3.8l9.1 -1.4l-11.1 -14l-7 -0.5l-11 -8.8l-10.7 -16.4l-4.9 -14l-12.9 -12.2l-26.2 -9.8l-6.5 -5.4l-4.5 -7.7l0.9 -18.9l4 -16.5l11.5 -16.3l2.3 -8.4l8.6 -15.8l1.5 -10l4.6 -6l-28.3 3.7l-14.6 6.8l-6.1 5.7l-2 4l6.2 16.4l0.5 6.9l7.4 14.9l2.3 15.4l-4.9 13.7l-6.3 -9.8l-9.9 -6.9l-9.7 -13.8l-2.1 -6.8l-3.5 -0.8l0.5 -5.6l-5.3 0.9l-1.7 -4.9l-5.2 0l-4.4 9.8l-13.4 2.1l-9.7 -7.8l-0.6 -4.3l-6 -5.1l1.9 -7.5l-55.3 4.9l-13.1 -45.8l8.9 -2.4l-6 -5.8l-1.3 2l-10.3 3.7l-18.1 1.8l-17.2 -8.2l-42.7 -3.8l-5.6 2.4l-5.3 5.3l-6.4 11.9l-4.8 15.2l-0.9 7.2l3.8 8.1l25.4 22.8l37.5 28.6l6.1 11.8l0.2 6.8l-4.2 10.8l-7.1 13.6l-16.4 24.2l-9.4 7.1l-4 0.9l-16.8 -2.3l-4.1 5.4l0.8 7.9l5.4 8l15.2 12.7l2.8 5l2.9 13.4l5 7.7l15.9 13.8l2 3.5l-1.7 5.5l-3.3 3.2l-3.5 0.6l-11.3 -5.9l-8.1 1.4l2.2 11.5l-3.2 6.3l-7.7 0l-0 -3.5l-1.8 -2.8l-4.8 -3.7l-6.9 0.9l-2.1 8.5l-1.3 17.3l-7.1 24.7l-4.6 7.8l-20.3 6l-9 2.6l-18.5 -6.5l-4.9 0.9l-6.5 11l-12.3 32.4l-17.3 6.2l-15.7 -10.9l6.5 -11l18.6 -7.1l5.1 -4.7l-1.9 -5.8l-5.8 -4.1l-9.8 -0.5l-5.2 1.8l-19 24.7l-11.1 4.8l-8.1 6.2l-5.3 8.2l-1.4 4.5l0.9 8.4l3.8 4.5l16.6 12l1.3 7.1l-7.1 10l-6.5 4.9l-21.1 -2.3l-3 2.5l-11.5 26.5l-5 37l-6.1 14.2z" />
  </g>
  <g data-zip="03585">
    <path d="m1570 3218.7l0 0l9.5 5.3l44.9 25l185 92.6l65.3 386.6l5.4 3.1l9.5 1.4l8.5 4.6l5.8 10.3l6.5 4l11.1 10.7l16.4 5.6l4.5 -3l13.9 -0.3l15 5.1l11.8 2.9l3.5 -2.1l11.8 1.3l3.7 -8.3l-5.4 -7.4l-5.5 -10.6l4.7 -1.3l12.7 2.3l18.2 13.7l5.2 1.8l8.4 9.9l3.4 6.3l4.6 13.4l102 -322.9l-0 -0.2l3.7 -11.7l-88.5 -29.1l156.4 -328l-197.3 -87.6l-182.5 -88.8l-5.9 9.2l-11.5 43.7l-2 19.8l5 19.7l-5 17.5l-3.5 23.8l-5.7 13.4l-2 10.1l-9 -9.3l-14.5 -8.8l6.1 0.3l-3.6 -6.1l6.9 -5.3l1.9 -3.5l-4.7 -5.6l1.6 -6.4l8 -8.1l5.1 -12.4l8.9 -5.4l-6.8 -11.2l-3.2 -8.5l1 -10.4l-5.5 -12.6l-4 -1.4l-16.8 28.7l-49 -23.6l-129.6 204.5l-11.2 2.3l-4.1 2.8l-2.7 10.4l-16.4 27.5z" />
  </g>
  <g data-zip="03597">
    <path d="m3181.5 1547.9l0 0l1.8 9l-0.9 6.3l4.8 7.8l145.4 -21.9l-5.1 -35.7l264.8 -7.2l-3.7 -178.5l-7.6 -313.4l-40 -4.3l-10.5 -4.5l-31.9 -2.5l-20.4 0.2l8.5 -44.6l-105.4 14.6l-8.2 0.5l-117.4 17.6l-2.5 9.1l6.7 14.9l5.7 1.3l5.7 9.6l14 18.9l9.2 8.9l3 11.7l5.8 12.1l1.8 16.6l-5.3 13.8l-3.5 3l-9.9 -3.9l-4.9 -4.5l-12.7 -1.7l-9.8 -2.7l7.6 45.7l3.3 4.3l-6.4 8.7l3.3 5.2l-0.2 6.4l-7.2 5.9l-5.2 9.7l2.9 16.6l-2.4 14.9l-2.7 7.9l0 8.8l7.9 11.5l5.6 5.1l6.4 14.1l6.7 8.5l-1.5 11.1l1 4.7l-3.4 5.5l-3 18.3l-11.1 15.2l3.7 6.5l6.8 -1l9.7 3.7l9.6 10.2l-8 -5.3l-6.7 0.2l-8.5 7.7l-2.7 4.4l-1.1 9.9l-5.3 2.9l-1.6 13.2l-5.6 11.4l-3.5 15l-6.7 11l-6 6.3l-3.6 12.1l-5.2 7.9l-9.6 23.6l-12.8 15.2l-2 10.1l-8.1 9.3l-6.4 17.6l0.5 18.9l-6.4 10z" />
    <path d="m2959.7 179.2l0 0l0.8 4.6l9 -2.1l13.9 26.3l5.2 -3.1l5.1 -24.8l10.1 1.5l24.4 -4.6l40.2 7.3l7.6 -1.8l16.1 -8.4l-0.6 -9.8l8 -4.5l4.6 2.2l28.3 -12.5l0.1 -8.1l-10.9 -20.6l10.9 -3.8l-15.2 0.7l-4 -5.8l-26.4 -11.2l-10.6 -11.8l-11.5 -5.8l-8.1 -0.1l-19.9 17.4l-15.8 6.9l-12.9 1.5l-1.6 0.2l-14.8 9.2l-0.8 1.1l-17.2 21.6l-1.6 5.7l9.1 3.3l2.8 3.7l-6.9 6.7l-8.2 1.7l-1.8 3.5l0.5 3.5l-7.9 10.1z" />
  </g>
  <g data-zip="03598">
    <path d="m2307.7 2548.9l0 0l-2.1 1.1l37.6 58.7l9.3 11.2l35.9 57.4l117.6 174.9l29 -18.2l291 129.6l-13.2 -82.7l-0.6 -9.6l-13.6 -79.6l209.4 -34l-54.4 -366.4l-248.5 142.6l-92.2 -124.9l-2.8 -2.4l-2 4.7l-6.9 7.9l-13.8 7.5l-24.6 3.3l-5.5 2.8l-0.1 2.8l5.4 11.6l4.2 11.3l-2.8 7.6l-3.2 1.2l-6.6 -4.7l-6.9 1.5l-2.1 8.1l-1.5 5.6l-14.2 9.1l-30.9 23.1l-25.1 16.7l-20.5 6.1l-17.1 -1.9l-6.4 -0.7l-8.8 -1l-15.5 1.5l-12.8 3.9l-5.6 4.7l-2.1 3l-4 5.8l-7 18l-2.3 2.9l-5.6 1.2l-13.2 -2.4l-14 -14.8l-5.1 -3.4l-17.1 -2.6l-8.8 1.8z" />
  </g>
  <g data-zip="03603">
    <path d="m304.9 7530l0 0l2 7.8l-0.7 35l0 0.3l17 1.8l0.9 0.1l0.4 0l2.1 0.2l3.4 0.3l34.4 3.6l75.2 7.8l-12.1 -59.5l5.8 -4.2l7.4 -11.2l-8.4 -14.3l-7 -18.2l-4.1 -4.6l-4.2 0.1l-3.8 -18.9l0.9 -6.3l7.4 -7.5l18.6 -2l-1.4 -11.6l188 -28l-9.2 -49l-32.3 -164.4l267.9 -40.8l10.9 -1.7l-9.5 -4.7l9.3 -11l4.4 -10.4l5.2 -4.5l-0.1 -10.7l-6.2 -16.1l-3.6 -31.3l5.1 -2.9l1.8 -5.1l-1.2 -1.2l-15.4 1.4l-6.6 3.8l-6.4 -1.2l-12.3 -9.4l-8.4 0.7l-14.7 -8l-3.9 6.9l-14.1 1.2l-3.7 6.2l-5.8 3.3l-5.6 6.6l-1.6 5.7l1 11l6.7 25.1l-5.9 6.6l-1.1 18.1l-9.5 2.7l-8.2 7.5l-8.6 2.8l-25.1 -4.6l-9.8 -8.6l-3.5 1.1l-11.9 -2.5l-6.1 4.5l-6.9 -1.8l-11.7 0l-16.4 2.4l-7 -0.2l-1.4 -13.4l-6.6 -9l-6.6 -12.1l-10.6 -5l4.5 -6.4l7.8 -2.7l-8.6 -12.1l-4.1 -2.6l-5.5 -8.8l0.2 -9.9l5.7 -9.9l-0.3 -7.9l-2.7 -8.2l3.3 -12.6l1 -10.1l-7.7 -11.5l-1.9 11.1l-7.8 -9.5l-11.2 -6.7l-12.1 -4.2l16.5 -97.4l-159.4 -11.2l-0.6 -0.6l-6.8 13.2l-3.8 10.9l0.5 5.1l4.4 10.9l18 29.2l14.3 13.3l5.3 9.8l1 6.5l-18.1 38.4l-18 82l-22.2 46.1l-17.9 31.7l-39.7 19.8l-3.4 4.1l-6.7 18.2l-0.7 34.6l6.6 23.7l7.1 13.4l1.5 6.1l-0.3 1.4l-2 10.6l-9.3 20.7l-8.3 24.9l-0.2 15.2l5.7 24.9l2.5 25l-3.6 6.9l-32.9 34.2l2.5 13.2l16.6 27.8l1 10l-4.4 7l-22.3 23.4z" />
  </g>
  <g data-zip="03608">
    <path d="m261.8 8006.7l0 0l1.5 13.8l2.7 6.7l10.6 13.1l5.8 14.1l-1.9 18.8l-6.1 29.6l1.7 11.8l8.1 20l36.7 0.4l6 -1.3l5.9 1.5l96.3 4.1l98.6 12.5l47.1 3.6l23.3 0.8l-22.6 -186.1l-4.6 -37.8l-1.5 -5l0.4 -3.7l-23.9 -183.2l-13.4 -14.1l-12.4 -2l-9.7 -10.3l-12.2 -2.5l-0.6 -4.5l-12.3 7.5l-6.3 -1.5l1.3 -8.8l13.5 -2.1l3.9 1.7l11.5 -5.6l9.7 -10.1l-16.9 -1.2l-5 9.2l-5.7 1l-0.4 -4.8l-6.4 6.6l2.1 -9.2l-7.8 5.8l-8.3 -11.3l-104.7 -8.4l-1.3 -96.6l-34.4 -3.6l-2.1 9.6l12 39l3.8 26.8l1.6 10.9l-1.8 9.3l5.8 24.2l32.5 25.6l-8.1 8.7l-7.7 -0.3l-2.6 -2.7l-2.7 -2.3l-2 -1.8l-4.4 -5.3l-5.8 -16.5l-1.7 -7.2l-2.1 -3l-1.5 -13.2l-4.4 -0.7l0.7 12.7l-0.5 2.9l-5.7 1.3l-0.5 3.8l5.7 10.3l2.2 2.5l7.7 8.9l4.8 5.5l8.6 14.9l0.9 22.3l-1.4 5.7l-5 10.9l-16.7 15l-5.4 10l-1.8 11.1l11.2 23.9l11.7 32.8l-0.4 12.3l-2.5 7.2l-10.7 18.7l-15.5 22.7l-27.7 31.4l-19.7 18l-6.8 6.3l-7.8 10.7l-2.5 8.3z" />
  </g>
  <g data-zip="03609">
    <path d="m291.6 7624.4l0 0l0.7 7.7l8.4 17.9l5.9 12.6l10.7 6.9l11.9 -0.7l6.7 3l2.9 3.3l0.1 1.7l4.4 0.7l1.5 13.2l2.1 3l1.7 7.2l5.8 16.5l4.4 5.3l2 1.8l2.7 2.3l2.6 2.7l7.7 0.3l8.1 -8.7l-32.5 -25.6l-5.8 -24.2l1.8 -9.3l-1.6 -10.9l-3.8 -26.8l-12 -39l2.1 -9.6l-3.4 -0.3l-2.1 -0.2l-0.4 -0l-0.9 -0.1l-17 -1.8l1.6 24.7l-0.7 6.7l-2.9 6l-10.9 9.8l-1.8 4.1z" />
  </g>
  <g data-zip="03740">
    <path d="m1473.9 3448.7l0 0l3.3 27.5l6.3 11.5l5.9 17l-5 13.7l1.1 4.6l9.4 10.1l7.7 5.5l8.8 18.1l4.9 4.9l-1 14.3l225.7 103.2l-0.4 17.3l2.2 11.2l4.7 6l4.3 -4l-4 -8l1.5 -8.4l-5.1 -11l16 5.6l-0.5 9.4l-4 16.5l1 7.6l7.9 0.3l5 -4.2l5.4 -9.8l-1.6 -11l2.5 -5.5l-8.1 -12.8l-13.5 0.1l-9.7 -5.8l-12.1 1.5l-17.4 -16.7l-7.8 -13l-6.3 -20.6l-2.7 -15.2l1.8 -6.2l-1.7 -10.3l6.8 2.9l9.4 10.7l-3.7 16.5l4.6 14.7l2.6 3.9l6.2 4.9l11 2.5l7.4 3.9l5.5 7.6l18.2 -1.3l4.1 4.2l6.5 -0.3l6.3 3.7l8.2 0.8l2.4 7.6l5.9 4.7l-0.3 5.1l12.2 12.4l-5.9 4.7l3.3 4.7l20 0.1l8.4 4.1l10.2 -1.1l7.7 4.4l10.6 1.4l8.7 13.3l-65.3 -386.6l-185 -92.6l-44.9 -25l-12.3 16.8l-7 -2.7l-23.7 20.2l-4.8 -5.5l-5.9 4.7l20.3 27.6l-17.5 15.6l-9.9 11.6l-12.9 9.9l2.1 10.2l-6.3 4.9l-7.7 11.2l-9.7 21.9l6.6 7.4l0.1 10.6l9.2 13.4l6.5 -3.5l5.2 12.1l-20.3 18.7l-4.5 2.2l-13.1 17.2z" />
  </g>
  <g data-zip="03741">
    <path d="m1168.3 5559.4l0 0l-12.5 20.2l28.6 15.1l112.3 50.4l15.8 -10.4l11.8 -3.7l4.1 13.5l-2.1 14.3l238 110.5l41.9 -64.6l96.1 25l12 2.5l5.2 2.5l194.6 57.4l22.1 -60.2l-32.9 -17.6l15 -26.6l-30 -16l13.4 -26.2l-16.2 -9.2l14.4 -27.5l-16.4 -8.6l19.4 -41.9l-6 -3.4l35 -68.9l18.2 -24.6l4.6 -8.6l-3 -1.5l5 -23.3l-2.6 0.9l-3.7 -2.8l-110.2 -32.6l-104.3 -29.8l-53.7 -18.1l-58 -23.9l-2.5 -0.5l-36.8 -15.3l-131.2 -43.8l-91.7 -30.3l0.7 2.9l-2.7 10l-4 5.1l0.6 9.2l-2.2 7.5l-3.7 4l-1.6 11.8l-5.7 11.9l7.7 19.1l-182.9 245.9z" />
  </g>
  <g data-zip="03743">
    <path d="m413.2 6697.5l0 0l-1.7 14.7l2.6 42.6l1.2 6.5l3.8 6.1l27.5 18.6l10.2 1.7l24.1 -0.7l6 3.8l-2.4 7.8l-13.1 18.3l-11.3 11.3l-4.9 7.2l-16.7 32.4l0.6 0.6l159.4 11.2l-16.5 97.4l12.1 4.2l11.2 6.7l7.8 9.5l1.9 -11.1l7.7 11.5l-1 10.1l-3.3 12.6l2.7 8.2l0.3 7.9l-5.7 9.9l-0.2 9.9l5.5 8.8l4.1 2.6l8.6 12.1l-7.8 2.7l-4.5 6.4l10.6 5l6.6 12.1l6.6 9l1.4 13.4l7 0.2l16.4 -2.4l11.7 -0l6.9 1.8l6.1 -4.5l11.9 2.5l3.5 -1.1l9.8 8.6l25.1 4.6l8.6 -2.8l8.2 -7.5l9.5 -2.7l1.1 -18.1l5.9 -6.6l-6.7 -25.1l-1 -11l1.6 -5.7l5.6 -6.6l5.8 -3.3l3.7 -6.2l14.1 -1.2l3.9 -6.9l14.7 8l8.4 -0.7l12.3 9.4l6.4 1.2l6.6 -3.8l1.6 -17.3l-0.7 -16.3l4.6 -17.4l30.6 -3.9l-2.9 13l-0.1 6.4l80.4 -1.5l-2.2 -27l-2.4 -56.9l-95.5 -30.7l-23.4 -4.4l-5.8 -369.5l-357.2 -19l-12.6 -1.9l-10.3 54.9l-0.5 17l-4.1 29.3l-6.6 47.1l-4.2 7.8l-17.1 16.9l-6 5.9l-1.3 3.2l-5.2 13.2z" />
  </g>
  <g data-zip="03748">
    <path d="m1089.9 5710.3l0 0l-73.6 164.3l108.1 45.1l188.7 82.4l-40.1 61l31.9 15.8l53.4 22.1l-33.2 53l-1.9 -2.2l3.6 -7.6l-7.8 -3.6l-15 2.5l-2.1 6.4l-0.8 6.3l4.9 2.5l8.5 -0.9l4.4 6.4l-19.4 32l49.4 9l8.8 -2.7l2.1 -6.6l-1.4 -11.8l-5.8 -5l8 -11.2l-2.8 -1.5l1.3 -6.8l-3.4 -10.1l5 -2.8l0.4 -6.3l7 -2.1l8.3 -11.2l14.5 -6.7l5.2 -8.1l1.3 -11.3l10.8 -4.2l13.5 4.4l-0.4 -3.5l14.6 -19.2l5.4 -2.1l8.4 -16.3l1.1 -8.1l-3.5 -3.2l0.8 -4.7l-20.7 -3.3l-6.8 -37l143.8 -234.1l-238 -110.5l2.1 -14.3l-4.1 -13.5l-11.8 3.7l-15.8 10.4l-112.3 -50.4l-28.6 -15.1l-22.7 36.8l-0.8 3.9l-3.2 4.2l-0.4 0.8l-2.5 5.5l8.4 -1.3l11 7.6l3.5 12.8l0.5 16.8l2.9 5l14.6 7.2l2.2 -0.1l-5.7 12.7l-20.7 -14.5l-2.7 -9.7l-8.5 -8.1l0.5 -6.7l-12.2 -8.5l-5.6 12.5l-20.9 47.3l-3.8 6.6z" />
  </g>
  <g data-zip="03755">
    <path d="m1037.6 5521.9l0 0l-2.1 17.4l62.1 21.1l-7.5 -29.5l-25.9 -60.4l-9.6 -3.2l-17 54.7z" />
    <path d="m733.3 5442.7l0 0l-0 0l14.2 4.2l6 1.9l48.7 15.6l27.4 8.7l0.9 4.2l-5 19.6l6.3 -1.2l5.4 7.8l-3.1 11.8l-5.3 3.1l2.3 6.2l7.3 1.3l14.6 -2.4l-4.6 -8.4l-8.3 -38.7l27.4 8.7l104.6 33.9l-3.3 -15.9l-1.8 -25.9l-4.5 -23.9l-2.4 -6l-0.2 -0.9l3.4 -2.7l10.2 -1.8l-18 -46.3l-5.9 -12.9l-8.7 -9.6l-3.3 0l-8.3 5.9l-13.9 6.9l-6.8 -0.3l-9.3 -3.3l-19.5 -10.9l-6.6 -2.1l5.6 -10.5l15.3 -22.7l2.6 4.8l4.2 -0.4l8 5.1l17 2.6l2.4 4.1l10.5 -12.8l9.3 -14.1l3.5 -20.2l5.5 -11.5l1.1 -7.5l-2.1 -14.3l25.6 6.8l3.2 -6.7l8.9 -2.2l9 -8.7l6.2 -7.8l2.5 -0.2l20 14.6l5.1 8.7l20.4 4.1l10.5 8.3l3.9 -14.1l7.8 -9.7l11.7 -19.1l7.5 -14.6l8.8 -4.3l4.2 -0.8l9.6 10.8l18.1 6l6.4 3.5l12.2 13.8l-8.9 11.5l-26.6 32.1l-4 11.3l1.4 8.4l-8.9 16.6l0.7 16.1l-10.4 19.6l-4.2 4.2l8.9 10.2l2.4 5.6l-2.1 30.7l-6.6 5.3l-0 10l1.8 10.9l6.9 25.1l5.1 15.6l-6.1 15.1l-0.9 14.9l3.7 9.7l5 6.4l6.1 15.5l0.4 13.5l34.3 11.3l12.5 -20.2l182.9 -245.9l-7.7 -19.1l5.7 -11.9l1.6 -11.8l3.7 -4l2.2 -7.5l-0.6 -9.2l4 -5.1l2.7 -10l-0.7 -2.9l-335.3 -105.8l-1.3 0.2l-0.1 0.1l-6.8 6.7l-9.6 6.4l-16.5 4.8l-4.7 3.1l-5.9 8.5l-5.7 15.3l-4.6 8l-26.4 38.5l-36 20.9l-55.9 36l-20.2 0.1l-14.2 28.6l-11 9.8l-1 1.2l-6.7 8.1l-1.1 1.3l-5.5 6.6l-6.2 12.5l-15.3 23.9l-7.8 9.4l-14 9.9l-4.4 7.4l-1.6 2.8l-3.1 5.3l-7.2 28l-0.5 13.1z" />
  </g>
  <g data-zip="03766">
    <path d="m749 5814.9l0 0l-7.6 14.1l81.5 14.9l69.2 9.4l124.1 21.3l73.6 -164.3l3.8 -6.6l20.9 -47.3l5.6 -12.5l12.2 8.5l-0.5 6.7l8.5 8.1l2.7 9.7l20.7 14.5l5.7 -12.7l-2.2 0.1l-14.6 -7.2l-2.9 -5l-0.5 -16.8l-3.5 -12.8l-11 -7.6l-8.4 1.3l2.5 -5.5l0.4 -0.8l3.2 -4.2l0.8 -3.9l22.7 -36.8l-34.3 -11.3l-24 -8l-62.1 -21.1l-63.4 -20.2l-104.6 -33.9l-27.4 -8.7l8.3 38.7l4.6 8.4l-14.6 2.4l-7.3 -1.3l-2.3 -6.2l5.3 -3.1l3.1 -11.8l-5.4 -7.8l-6.3 1.2l5 -19.6l-0.9 -4.2l-27.4 -8.7l4.7 13.1l-39.7 49.3l-11.4 17.3l-2.2 3.3l22.4 21.6l17.4 69.8l6.4 -3.7l-1.7 5.8l5.2 10.5l4.5 5.5l3.6 -0l-19.7 15.3l-6.6 9.3l-14.6 8.5l-6.3 6.5l-2.7 11.8l12 15.9l10 24.7l-32 60.1l-2.7 5.9z" />
  </g>
  <g data-zip="03773">
    <path d="m836.9 6329.7l0 0l-5.7 62.1l6.9 131.2l5.8 369.5l23.4 4.4l95.5 30.7l2.4 56.9l2.2 27l-80.4 1.5l0.1 -6.4l2.9 -13l-30.6 3.9l-4.6 17.4l0.7 16.3l-1.6 17.3l15.4 -1.4l1.2 1.2l-1.8 5.1l-5.1 2.9l3.6 31.3l6.2 16.1l0.1 10.7l-5.2 4.5l-4.4 10.4l-9.3 11l9.5 4.7l-10.9 1.7l-9.4 16.7l1.5 16.4l9.2 -1.3l31.5 2.9l8.7 7.4l7.8 13.4l16.5 -5.4l15.8 1l-8 -51l-3.6 -7.5l-6.3 1.7l-2.9 4.8l-4.6 -0.9l-3 -1.2l-9.3 8.5l-7.6 -3.2l-5.3 -4.9l4.9 -5.8l7.8 -0.7l-0.3 -3.3l4.8 1.3l0.4 3.7l8.7 -1.2l14.6 -2.1l232.9 -40.8l-17 -110.1l9.3 3l9.7 -27l23 8.1l23.8 -65.8l45 8.2l0.2 -11.5l3.1 -177l-4.3 -2l-2.7 -0.6l-3.1 -4.3l-2.6 -1.8l12.8 -6.4l1.3 -67.3l5 -36.3l-0.9 -3.4l3.4 -13.8l5.8 -39.3l-1 -3.2l-11.1 -12.1l-19.7 -13.7l-6.1 1.6l-0.5 -3.3l6.4 -11.2l0.4 -6.5l3.6 -10.4l0 -6l5.9 -12.1l6.1 -6.5l4.8 -8.5l6.5 -6.8l5 -11.4l6.7 -7.4l4.7 -1.4l-0.4 -16.3l7.1 -16l2 -11.4l-1.5 -3.2l5.3 -3.1l4.8 -40.9l-72.7 -28.6l-21 32.3l-208.2 -81l-36.5 -14.3l-8 -3.1l-40.9 81.2l-47.8 -20.3l-2.4 10.2l-22.3 -5.4l-1.9 20.3z" />
  </g>
  <g data-zip="03774">
    <path d="m1463.8 3746.3l0 0l-0.5 8.2l7.1 36.7l4.1 9.1l7.8 7.9l10 2l2.6 -2.5l1.5 -4l0.1 -10.7l6.2 -9.6l6.1 -3.9l10.4 3.2l10.8 6l4.4 5.8l0.9 3.6l0.1 4.2l-3.4 24.6l-1.2 3.9l-5.7 6.8l-7.2 4.3l-11.8 1.4l-9.2 -0.1l-2.2 2.3l0.5 3.8l8.2 5.9l11.3 6.4l15.5 6.2l5.1 10l-2.5 5.2l-4.9 4.1l-3.6 1.6l-6.4 1.5l-6.8 -0.9l-4.5 -4.7l-3.4 -4.5l-5.6 -1.4l-9.3 5l-13.9 4l-3.9 2.2l0.7 5.1l4.8 4.4l6.3 7.8l2.5 8.1l-2 5.4l-9.9 11.7l9.5 8.6l-1 10.5l-4.6 19.3l-7.2 18.8l-5.2 20.5l6.2 3l3.3 -1.9l3.6 3.9l4.9 -0.3l22 14l-2.2 11.7l10 5.9l-0.6 5.3l-7.5 4.1l-8 1.3l8.3 1.9l2.2 3.8l13.7 6.4l15.5 -9.4l8.2 -6.7l5.3 -11.6l5.9 -16.8l7.6 -4l9.3 1.3l14.4 -60.6l15.6 -0.1l1.3 -9.3l7 -0.1l6 2.9l3.1 -1.8l-2 -3.4l-8.4 -4.2l-3.8 -6.8l7.8 -2.4l16.9 2.4l8.4 -7.3l48.3 22.8l28.7 -17l-3.2 -44.9l5.5 43.5l41.5 -24.6l4.2 5.3l12.3 8.5l5 8l-0.4 6.8l-26.4 86.2l14.2 -0.1l20.2 -26.9l-4 -3.5l0 -21.5l1.9 -7.8l5.1 -7.8l10.5 -6.2l10.8 -13.5l5.3 -1.8l44.6 -138l-13.9 -9.8l-4.2 -0.1l-6.7 -9.2l-6.5 -5.8l-1.2 -8.8l-4.5 -7.8l-9.7 -7.1l-9.7 -4l-14.8 2l4.9 -3.5l13.5 -0.2l1.3 -11.3l-2.7 -15.2l-9 -3.9l-5.5 13.2l-0.7 14.2l-5.9 -4.5l-4 1.4l-2.2 8.1l-8.1 7.9l-11.7 4.9l-8.6 -5.4l-5 9.5l-9.4 -0.6l-12.9 1.8l-8.1 -7.2l2.7 -13.6l4.2 -12.6l-30.8 -12.5l-9.1 10.8l-5.3 3.7l-24.4 -8.5l-13.9 1.7l5.3 -15.8l12.7 -18.8l7.8 -16.7l-12.1 -12.1l-25.3 -12.9l-10 -11.6l-7.1 51.9l-62.4 -5.7l-22.1 -0l-0.8 10.2l-13.7 18.4l-4.5 14.4l0.6 -6.4l3.9 -9.8l11.7 -19.1l6.1 -22l1.3 -10.6l-3.1 -14.4l-6.2 -15.4l-6.2 -10.1l-4.9 -17.3l2.9 -6.3l-7.8 -1.7l-1.8 -3.1l0.9 -14.7l-2.3 -0.7l-4.3 7.4l-0.5 4l1.5 33.8l1.1 23.5l12 13.7l10.5 5.1l1.6 4l-11.1 27.7l-3.9 0.3l-5.5 -4.2l-3.6 0.1l-13.1 7.1l-17.2 16.3l-6.8 31.4z" />
  </g>
  <g data-zip="03781">
    <path d="m469.3 6137.5l0 0l-0.8 2.9l323 26.9l-7.2 -5.7l-10.9 -14.1l-1.1 -10.3l4.9 -14.8l-8.1 -15.4l-2.1 1.8l-7.8 -3.4l-7.7 -12.5l-6.4 -1.1l-0 -3.6l17.4 4l7.9 0l-0.4 -10.1l37.1 -38.6l21.7 -2.1l6.8 -3.7l-0.2 -7.1l6.6 -6.9l-0.4 -5.8l2.9 -12.2l5.2 -2.4l-0.8 3.6l3.7 8.3l16.2 14.5l3.6 -2.5l10 -15.8l20.7 -20.5l11.3 -3.2l13.2 -10.4l3.4 1.5l2.2 1.4l-5.7 27.5l-2.8 8.3l4.8 11.1l7.5 10.6l8.2 7.6l-5.6 4.1l-11.4 3.9l-14.5 15l-19.7 -21.4l-5.4 -4.9l-6.7 6.4l11.6 5.4l3.8 5l-0.1 8.8l6.7 7.4l-1.1 5.5l2.5 16.7l-3.5 6l-10.7 4.1l-6.1 8.6l-7.9 18.1l2.3 2.7l41.2 1.4l4.7 17.7l6.3 0.6l26.3 14.1l-13.3 27.9l7.1 3.9l-1.8 4.4l13.8 4.6l0.1 5.7l-3.8 17.1l5.2 2l-5.2 10.8l36.5 14.3l31.7 -44.2l39.2 -60.3l1.9 -143l54.9 -93.8l-108.1 -45.1l-124.1 -21.3l-69.2 -9.4l-81.5 -14.9l-78.6 -14.6l-7.9 3.3l-51.1 46.8l-40.7 16.4l-0.5 0.3l-26.3 16.7l-18.4 21.5l-9.3 40l-0.5 6.7l4.6 30.3l2.3 56.4l-8.5 22.9l-16.9 27.8l-4.7 4l-10.2 -0.6l-5 14.1l0.4 13.3l-0.9 3.1z" />
  </g>
  <g data-zip="03784">
    <path d="m649.1 5737.7l0 0l-1 19l6 16.9l9.3 7.7l3.8 6.3l0.2 2l1.5 14.7l-2.5 7.5l-3.2 2.4l-0.2 0.1l78.6 14.6l7.6 -14.1l2.7 -5.9l32 -60.1l-10 -24.7l-12 -15.9l2.7 -11.8l6.3 -6.5l14.6 -8.5l6.6 -9.3l19.7 -15.3l-3.6 0l-4.5 -5.5l-5.2 -10.5l1.7 -5.8l-6.4 3.7l-17.4 -69.8l-22.4 -21.6l2.2 -3.3l11.4 -17.3l39.7 -49.3l-4.7 -13.1l-48.7 -15.6l-6 -1.9l-14.2 -4.2l-1.4 36l-0.1 2.1l4.9 7.7l3.7 12.3l-0.9 16.2l-2.7 18.3l-0.6 1.8l-3.6 10.2l-14.8 27.4l-6 5.2l-3.3 9.2l-1.5 13.1l-0.9 8.2l-0.7 5.9l3.5 11.5l-0.6 15.1l-3.4 6.6l-21.2 9.1l-14.2 8.6l-5 4.9l-1.4 3.3l-0 0l-0.1 0.3l0.6 7.3l6.1 6.7l0.4 2.6l-5 14.3l-9.9 7.7l-5.9 23.4z" />
  </g>
  <g data-zip="03785">
    <path d="m1571.9 3553.3l0 0l-4.8 18.2l19.1 19.4l9.6 7.2l14.1 -14.4l0.5 -8.4l-5.1 -11l0.6 -10.9l-3.9 -12.3l1.7 -10.1l-4.7 -3.6l-7.8 6.4l-3.7 -4.9l-6.3 13.7l-9.1 10.6z" />
    <path d="m1488.3 3183.3l0 0l-4.3 2.6l4.7 7.8l4.2 9.2l0.7 1.4l3 -2.1l-8.3 -18.9z" />
    <path d="m1435 3402.1l0 0l-4.6 29.2l14.1 19.6l11.2 22.4l13 46.9l4.4 6.8l7.4 4.8l4 13.1l3 1.6l4.2 -1.4l8 0.2l-0.1 3.6l-4.7 10.8l1.5 5l1.8 0.8l1.5 0.6l6.4 -1.8l4.7 3.9l-2.9 2.9l-4.4 4.4l-0.5 0.8l2.3 0.7l-0.9 14.7l1.8 3.1l7.8 1.7l-2.9 6.3l4.9 17.3l6.2 10.1l6.2 15.4l3.1 14.4l-1.3 10.6l-6.1 22l-11.7 19.1l-3.9 9.8l-0.6 6.4l4.5 -14.4l13.7 -18.4l0.8 -10.2l22.1 0l62.4 5.7l7.1 -51.9l10 11.6l25.3 12.9l12.1 12.1l-7.8 16.7l-12.7 18.8l-5.3 15.8l13.9 -1.7l24.4 8.5l5.3 -3.7l9.1 -10.8l30.8 12.5l-4.2 12.6l-2.7 13.6l8.1 7.2l12.9 -1.8l9.4 0.6l5 -9.5l8.6 5.4l11.7 -4.9l8.1 -7.9l2.2 -8.1l4 -1.4l5.9 4.5l0.7 -14.2l5.5 -13.2l9 3.9l2.7 15.2l-1.3 11.3l-13.5 0.2l-4.9 3.5l14.8 -2l9.7 4l9.7 7.1l4.5 7.8l1.2 8.8l6.5 5.8l6.7 9.2l4.2 0.1l13.9 9.8l-44.6 138l-50.7 159.1l4.3 11.4l7.5 13.8l-2.3 4.1l-8.2 -5l-8.2 -0.9l3.6 8l-2.4 7.3l1.4 4.8l8.4 5.2l-0.5 4.3l9 3.9l9.9 10l4.3 -2.9l7.3 0.4l9.6 7.8l9.8 5.3l4.1 7.9l11.9 7.5l5.9 -2.9l1.2 5.3l7.3 5.4l12 2.1l-0.1 7.5l8.1 7.8l6.6 1.7l18.2 9.8l6.6 0.3l9.4 9.2l91.1 13l139.1 19.2l4.1 -13.1l2.8 -1.7l7 -26.9l-0.4 -25.9l74.6 -312l-4.3 -1.9l-9.2 2.7l-16 -6.9l-10 -9l-13.1 -8.5l-14.5 -6.1l-6 -3.8l-20.5 -17.8l-10.4 -13.3l-12 -9.9l-15.6 -7.9l-16.3 -2.5l-10.6 2.1l-6.5 -1.7l-11.2 -5.3l-5.2 -5.9l-4.6 -13.4l-3.4 -6.3l-8.4 -9.9l-5.2 -1.8l-18.2 -13.7l-12.7 -2.3l-4.7 1.3l5.5 10.6l5.4 7.4l-3.7 8.3l-11.8 -1.3l-3.5 2.1l-11.8 -2.9l-15 -5.1l-13.9 0.3l-4.5 3l-16.4 -5.6l-11.1 -10.7l-6.5 -4l-5.8 -10.3l-8.5 -4.6l-9.5 -1.4l-5.4 -3.1l-8.7 -13.3l-10.6 -1.4l-7.7 -4.4l-10.2 1.1l-8.4 -4.1l-20 -0.1l-3.3 -4.7l5.9 -4.7l-12.2 -12.4l0.3 -5.1l-5.9 -4.7l-2.4 -7.6l-8.2 -0.8l-6.3 -3.7l-6.5 0.3l-4.1 -4.2l-18.2 1.3l-5.5 -7.6l-7.4 -3.9l-11 -2.5l-6.2 -4.9l-2.6 -3.9l-4.6 -14.7l3.7 -16.5l-9.4 -10.7l-6.8 -2.9l1.7 10.3l-1.8 6.2l2.7 15.2l6.3 20.6l7.8 13l17.4 16.7l12.1 -1.5l9.7 5.8l13.5 -0.1l8.1 12.8l-2.5 5.5l1.6 11l-5.4 9.8l-5 4.2l-7.9 -0.3l-1 -7.6l4 -16.5l0.5 -9.4l-16 -5.6l5.1 11l-1.5 8.4l4 8l-4.3 4l-4.7 -6l-2.2 -11.2l0.4 -17.3l-225.7 -103.2l1 -14.3l-4.9 -4.9l-8.8 -18.1l-7.7 -5.5l-9.4 -10.1l-1.1 -4.6l5 -13.7l-5.9 -17l-6.3 -11.5l-3.3 -27.5l13.1 -17.2l4.5 -2.2l20.3 -18.7l-5.2 -12.1l-6.5 3.5l-9.2 -13.4l-0.1 -10.6l-6.6 -7.4l9.7 -21.9l7.7 -11.2l-1.1 -3.4l-4.8 5.1l-16.5 -16.9l6.6 -36.8l7.4 -33.7l8.5 -17.9l0.6 -5.7l-2.7 -9.6l-9.1 -3.4l1.5 12l-4.2 8.8l-3 23.4l-5.4 14.3l-3.2 3.6l-0.3 7.2l2.4 17.8l-3.5 15.5l-5.7 -0.8l-0.8 4.1l-15.6 35.2l1.6 8.7l-2.7 16.1l-3.1 6.8l-10.2 8.1l-3 6.1z" />
  </g>
  <g data-zip="03801">
    <path d="m4898.6 7896l0 0l-13.2 13.1l16 19.5l18.3 18.3l13 9.7l19.4 8.7l16.2 4.6l47.3 11.2l7.6 -1l3.1 -1.8l7.3 -6.2l3.3 -2.1l6.7 0.6l22.1 -3.8l7.2 38.6l16.6 131.3l24.6 13.3l57.2 12.9l121.3 -169.7l14.6 -9.6l0.3 -4.4l-8 -17.6l2.1 -7.4l8.8 -2.1l6.2 1l4.5 3.4l4.8 -0.2l2 -8.1l-3 -5.1l-16.2 1.4l-8.4 -3.6l-2.5 -6.8l1.8 -10.7l-0.6 -1l-0.3 0l-7.9 -10.1l-3.2 -4.1l-42.2 -10.4l-3.5 -3.6l-15.7 -34.3l-9.9 -12.8l-4.2 -3.2l-0.5 -0.4l-32.3 -9.2l-13.9 -19.9l-17.8 -14.2l-0.1 -0.1l-11.3 -9l-43.1 -41.3l-32.9 -22l-16.9 18.2l-15.3 1.4l-8.4 -1.4l-11.7 -6.1l-10.1 -9.3l-7.9 -10.3l-8.1 -6.5l-12.4 -4l-12.9 0.9l-10 3.6l-10 6.4l-4.6 6.6l-0.2 10.2l11.9 14.8l-0 7.3l-5.6 12.6l-0.4 12.4l3.3 24l0.9 16.2l-0.8 14.6l-5.4 24.1l-5.1 7.3l-12.7 7.5l-19 17.7z" />
  </g>
  <g data-zip="03809">
    <path d="m3713.4 6438.6l0 0l-18.3 -4.3l38.5 30.2l4.1 -0.7l24 16.4l-7.8 17.1l-6 2.9l-30.9 44.3l80 57.2l12.1 9.7l35.8 25.2l2.7 1.2l39.2 26.9l3.6 4.1l73.8 51.7l6.2 5.4l12.2 6.9l14.3 10.3l5.9 -1.8l1.8 8.3l22.7 15.8l44.3 32.5l-7.5 -36.6l-45 -301.9l-14.5 -77.3l-9.7 -71.3l4.2 -3.9l-12 -92.1l-10.8 -44.8l-0.4 -3.9l4.5 -5.7l-0.5 -3.9l35.2 -42l25.6 -32l21.1 -22.1l-105.3 -79.6l-0.2 7.7l-4 2.6l-1.6 16.8l-5.6 10l-6.1 -2.9l-10.3 9.1l1.7 7l-7 -7.7l-23.5 -9.3l-2.6 9.4l-5.2 4l-14 -10.2l-9.4 1.9l3.8 12.4l0.3 8.6l2.5 8.7l-1.6 9.9l11.3 11.9l-3.7 15.4l-7.3 -2.1l-9 4.9l-0.8 6.4l-3.9 3.3l-1.2 7.8l1.5 5.8l3.7 0.3l7.7 5.8l-4.7 8.5l1.7 4.7l-6.2 2.1l-7.3 -2.3l-3.1 -5.2l0.8 -10.8l-7.3 3.2l-7.6 -1.2l-1.3 5.1l-1.6 15.1l14.4 10.8l1.4 13.8l-5 9.7l0.6 16l-8.2 3.9l-11.7 11.3l0.2 11.8l-2.5 4.3l0 13.8l3.8 7.3l0 12l4.7 9.9l5.8 3.4l9 10.6l0.6 9.1l3.7 4.8l-0.2 -16l-8.1 -12.4l2.6 -3.5l12.5 18.8l4.2 31.4l-3.2 12.2l-0.2 9l-2.4 1.6l-1.2 5.4l-6.2 -2.6l-2.4 -6.6l-7.7 -9.1l-2.9 -6.9l1.3 4.6l8.6 14.1l4.1 12l-0.8 6.1l-52.9 26l-23 23.3l7.8 6.5l1.4 4.9l8.8 16.3l4 1.7l0.6 5l-12.5 0.2l-26 3.4l-2.9 -2.5l-8.6 -0.3l-1.6 -6.9l-15.5 -6.3l2.8 9.4l-7.1 6.7l-12.4 3.1z" />
  </g>
  <g data-zip="03812">
    <path d="m3324.4 3340.2l0 0l-30.9 5.1l38.8 176.5l75.8 49.8l30.9 147.5l0.1 60l-15 25.1l44.5 119l57.4 -1.2l-9.6 20.3l-77.1 138.2l-21 28.8l183.1 -9l408.2 10.8l73.1 -10l-5.4 -28.6l-12.4 -3.8l-7.4 -5.3l-6.9 -1.8l0.3 -8.1l-2.7 -0.7l-0.4 -10.9l-9 6.8l-4 0.7l-11.4 -5.8l-5.4 -5.5l-5.3 -9.6l-6.7 -8.5l-12.1 -33.4l66.3 -11.7l-11 -84.1l22 -0.1l4.4 -6.8l8.2 4.7l4.9 0.4l-2.7 -5l5.1 -5.8l-9.7 -12.6l-4.5 -11.9l-9.2 -1.4l-3.7 -4.7l0.2 -9.9l3.2 -4.5l-6.7 -13.8l-6.5 -1.5l-13.2 -11.1l0.4 -5.7l5.3 -9.3l-0.9 -4l-6.8 -7.4l-9.3 2.3l-8.1 -0.4l-9 4l-5 -3.6l-7.8 -0.5l-9 10.2l-7.9 0.5l-14.1 -7.1l-14.7 -2.2l5.4 2l-3.1 2.5l-0 16l-2.4 5.5l-5.3 3.7l2.1 8l-12.2 13.7l1.4 -5.2l-3.6 -1.9l-4.4 3.9l-9.4 3.8l-0.5 4.7l-5.7 0.8l-9.5 -8.8l-19 4.8l-5.6 5l-15.2 2.2l-9.6 -2.7l-11.3 -0.2l-5.5 5l-15.5 4l-7.5 5.9l-7.8 -0l-6.2 3.7l0.9 7.5l-6.5 2.4l-8.3 -3.7l-7.9 3.3l-7 -4.8l-12.1 10l-9.2 -3.2l-16.9 3.2l-7.7 3.1l-3.7 -3.5l0.4 -9.1l-15.4 -4.7l-5.7 1.7l-17.6 -9.9l-10.4 3l-10.5 -6.4l-4.4 1l-7.7 -3.7l-6 -4.5l-1.1 -5.5l-6.6 -7.4l-0.9 -5.7l-10.1 -6.6l-1.9 12.8l-36 0.6l-34.3 23.7l-22.4 -25.6l1.1 -127.4l-38.6 -172l-80.8 -52.8l-31 -145.6l-61.2 10.2z" />
  </g>
  <g data-zip="03813">
    <path d="m4220 4024.3l0 0l-6.4 -2.7l24.6 105.1l-3.6 1.5l-1.9 0.5l3.6 14.5l7.6 11.7l27.5 24.7l6.3 -3.3l0.7 -1.5l8.5 4.7l-8.8 2l1.2 5.8l-1.1 17.4l0.5 5.1l5.9 8.9l-1.6 1.8l-0.7 6.1l-9.4 8.7l-1.9 9.3l-3.5 1l-8.1 -2.3l-19.3 5.1l-3.5 7.6l1.4 16l2 -1.3l7.3 -4.7l6.8 14.1l9.3 7.3l0.7 33.3l6 13.3l13.9 27.7l6.4 0.9l-0.3 -12.5l2.9 -3.3l87.2 -1l7.4 156.8l64.5 0l-0.8 -12l12.8 -9.3l8.3 -0.7l1.4 4.9l17.2 -0.6l12.4 -2.1l16.3 1.6l13.7 -0.2l21.5 3.4l-4 -125.1l-10.6 -328.2l-8.5 -210.1l0.1 -1.1l-21.1 -618.4l-0.6 -52.7l0.1 -1.6l-1.7 -40.5l-2.8 -65.5l-99.4 4.5l2.1 36l4.5 -0.1l-0.5 152.2l-81.8 -0.1l-81.8 8.5l1.7 305.7l6.6 334.3l34.6 -3.4l0 13.7l144.5 -3l-11.6 5.4l-5.1 8.5l-4 3.2l-2 7.1l-9.4 3l-3.6 5.5l-1.2 6.9l-6.1 4.3l-1.2 3.8l-7.7 0.5l-4.4 7.8l-4.5 13.2l-6.6 3.1l-46.7 37.9l-49.9 31.3l-17.7 0.2l-13.1 -2.7l-13.9 -0.3l-2.6 -0.4l-5.4 -7.2z" />
  </g>
  <g data-zip="03814">
    <path d="m3774.7 5029.9l0 0l-54.3 80.7l70.8 13.3l16.1 0.8l13.9 4.1l32.9 70.5l4.5 11.5l74.5 158.3l74.2 -21.5l5.8 -2.2l45.9 -37l4.8 -12l10.4 8.8l7 -11.9l6.6 -15.4l14.5 -6.4l7.3 0.8l5.3 8l-0.8 -7l-4.9 -12.5l91.8 5l2.1 -4.6l6.4 7l3.5 -3.4l-59.7 -48.9l-0.1 -2.7l18.8 -21.8l40.6 -55.3l4.5 -7l84.8 -110.1l-5.6 -1.3l-5.7 -4.2l-13.9 -18.7l-5 -8.5l-4.2 -2.3l-9.6 -0.7l-6 -4l-6.2 0.1l-3.7 2.4l1.7 27.1l-1.6 13.3l-7.1 9.3l-2.9 8l-4.8 3.3l-3.8 -2.9l-2.8 3.2l-3.5 9.8l-0.8 8.2l-2.3 3.4l-0.1 6.9l-3.4 1.5l-14.1 -2.3l-40.6 -8.7l-27.6 -8.7l-8.2 -3.8l-5.8 -9.1l-4.3 -17.6l-6.3 -16.9l-8 -12l-10.9 -9.4l-15.6 -8.4l-10.5 -2.8l-2.9 1.6l-10.9 -0.7l-1.6 -2.1l-0.4 -24.4l3.7 -5.1l-40 26.3l-24.7 -27.9l-10.3 -10.1l0.5 -4.8l9.4 -11.8l3.5 -1.4l-4.1 -11.2l1.2 -5.4l-8.1 -8.2l-0.3 -2.7l-14.4 9.2l-14.7 6.6l-1.6 2.2l2.8 9.3l3.7 5.6l16.7 13.8l1.7 9.3l-11.6 5.4l14.7 14.6l9.8 0.1l-2.7 6.9l1.6 6.2l-3 3.7l7.1 1.8l-3 6.6l0.9 5.8l4.2 4.8l10.8 17.9l6.4 8.6l5.6 10.8l5.9 7.5l1.1 1.5l-13.7 14.3l-2.4 13l-6.1 8.2l-21.3 -15.6l-7.6 -1.2l-10.8 3.5l-7.1 0.1l-7.7 -3.2l-16.5 -2l-29.8 -136.1l-67.1 30.1l-51.1 75.7z" />
  </g>
  <g data-zip="03818">
    <path d="m4216.3 4224l0 0l-0.2 4.6l4 -0.2l11.5 -0.2l0 -4.3l-15.4 0z" />
    <path d="m3418.5 4109.3l0 0l13.9 99.2l3.4 22.9l3.1 1.6l-1.6 8.7l39.1 264.1l2.2 -3.3l8.8 -1l1 3.8l11.1 9l-0.9 9.4l8.2 1.1l-6.3 15.9l-1.1 7.1l-4.3 0.8l-2.6 6.4l21.2 16l75.4 -12.1l-2.9 -13.8l-3.1 -25.1l40 -4.9l4.6 38.5l62.9 -8.1l23.8 -3l0 2.1l169 -31.5l33.5 -6.2l37.4 -44.9l3 -5l25.9 -29.7l40.6 -48.7l4.9 -5.4l2.8 -0.7l11.6 -1.9l14.5 1.7l36.8 -7.5l2.7 3.3l1.4 -3l0.7 -0.1l0.8 -0.6l0.5 1l0.4 0.4l0.7 0.1l8.9 -16.2l3.2 -0.1l-2.5 9.7l-5.5 10.3l1.4 9.2l6 -7l5 2.2l7.1 8.6l28 -33.6l36.3 -0.2l0.9 16.8l-0.8 10.7l0.7 23.5l-0.8 17.5l6.9 9.9l2.3 -1.5l8.2 5.5l2 8.3l0.5 67.7l30.9 -1.5l56 -2.7l-1.7 -77.7l-2.1 -8.8l-2.3 -53.2l-6.4 -0.9l-13.9 -27.7l-6 -13.3l-0.7 -33.3l-9.3 -7.3l-6.8 -14.1l-7.3 4.7l-2 1.3l-1.4 -16l-5.5 0.4l3.9 -17.8l-20.4 -1.9l-2.1 12.4l-9.5 13.5l-7.5 6.3l-3 -1.2l-2.3 -11.7l1.9 -3.9l2.4 -1.4l9.7 1l3.5 -5.1l1.6 -5l-2.9 -9.5l-10.3 4.3l-2.2 -1.1l-6.6 -9.8l-0.4 -4.6l3.6 -3.2l4 -1.4l14.4 -1l1.5 -8.6l-7.7 -3.9l-10.6 -11.1l0.3 -5.7l5.3 -4.5l2.3 -14.5l-1.9 -3.7l-3.7 -2.3l0.6 -4.3l-12.8 -21.8l-4 -14.4l-2 -2.6l-2 -13.7l-6.5 -0.6l-4.2 -4.5l1 -4.3l8.3 -5.2l-24.5 -13.5l-0.8 -9.6l-8.7 -1.9l-8.3 -15.9l-4.6 3.5l2.2 7.5l10.8 19.1l4.7 5.9l5.2 14.9l8.3 14.4l1.1 9.7l-6.9 30.2l-1.9 16.4l6.9 10.8l6.2 13.6l-3.4 6.7l-1.2 14.2l-11.3 8.4l-15.5 2.3l-12.4 0.3l-5.7 2.6l-6.6 -1.2l-24.1 -126.9l-73.1 10l-408.2 -10.8l-183.1 9z" />
  </g>
  <g data-zip="03820">
    <path d="m4621.1 7397.8l0 0l8.6 7.2l24 7.6l19.3 17.1l11.2 5.2l9 -14l9.1 -2l-2 4.2l5.5 -1.2l3.4 4.1l16.5 18.8l23.4 26.9l35.4 39.7l1.6 1.8l-10.3 8.1l-8 9l2.6 9.8l13.1 5l4 3.6l5.6 3l19.8 0.5l6.8 -1.2l8.4 9.2l3.7 4.2l9.3 10.3l18 19.8l14.7 16.3l54.2 53l2.3 11.5l0.4 5.6l30.7 16l3.9 1.9l10.5 9.4l5.9 5.5l8.1 6.5l7.9 10.3l10.1 9.3l11.7 6.1l8.4 1.4l15.3 -1.4l16.9 -18.2l-19.8 -18l-3.8 -8l-3.5 -13.6l-2 -23.5l-8.4 -19.6l-2.6 -14.4l13.7 -43.9l3.8 -33.9l-1.5 -10.4l6.1 -12.4l0 -0l3.4 -2.6l3 -2.2l1.5 -5.2l-3.8 -20.4l-0 -0.1l-10.2 -27.8l1.2 -8l2 -3.2l6 -3.8l4 -2.6l8.9 -2.3l4 -5.5l0.6 -8.5l-2.4 -6.7l-25.9 4.5l-8.2 -1.1l-0.5 -8.1l-13 1.8l-2 -4.2l-2 -8.8l1 -3l-0.9 -4.7l-2.9 -4.3l-0.2 -5.8l-3.5 1.5l-0 -1.5l-13.8 2.7l-12.5 7.1l-29.1 -7.8l-4.1 -3.8l-4.5 -2.5l-12.2 -4.9l-5.6 -1.2l-7.8 -7.5l0 -6.1l-4.9 -6.4l-32.9 -35.7l-7.6 -6.3l-4 -3.7l-3.2 -0.9l-2.8 -7.2l-110.1 -114.3l-16.3 28l-17.8 27.4l-29.8 46.5l-2.2 3.7l-7.3 11.2l-19.9 31.2l-5.6 8.5l-14.8 23.4l-12 18.9z" />
  </g>
  <g data-zip="03824">
    <path d="m4630.2 7680.2l0 0l-38.5 208l98.4 -22l6.1 -1.4l8.9 -2.2l2.2 -0.5l11.1 -2.7l9.4 -2.2l0.6 -0.2l0.9 0.1l2.7 0.6l117.7 24.2l4.3 3.9l44.6 10.1l19 -17.7l12.7 -7.5l5.1 -7.3l5.4 -24.1l0.8 -14.6l-0.9 -16.2l-3.3 -24l0.4 -12.4l5.6 -12.6l0 -7.3l-11.9 -14.8l0.2 -10.2l4.6 -6.6l10 -6.4l10 -3.6l12.9 -0.9l12.4 4l-5.9 -5.5l-10.5 -9.4l-3.9 -1.9l-30.7 -16l-104.8 -52.2l-10.4 -4.7l-2.2 -1.1l-162.5 -56.2l-16.7 94.3l-3.8 19.2z" />
  </g>
  <g data-zip="03833">
    <path d="m4280.5 8361.9l0 0l-1.3 16.8l29.7 0.2l12.5 0.1l41 0.2l1 -0l69 -0l31.9 -0l19.1 0.8l10 0.5l7.5 0.3l17.5 1.8l14.6 -3.5l8.7 2.7l2.2 3.2l11.7 1.2l-2.5 11l-1.6 4.8l15.2 0.5l1.9 2.2l12.8 -16.2l4.7 0.4l3.3 51.9l5.9 59.5l2.4 12.7l3.6 30.7l1.9 76.1l72.9 -9.1l102.9 10.2l-3.6 -33.1l-1.8 -49.8l-12.7 -75.4l-8.7 -81.2l-0.9 -7.9l46.1 -17.4l23.7 -8.9l6.2 -2.3l13.6 -5.1l21.1 -7.8l-54.1 -37.2l-44.1 -30.4l-2.3 -2.7l-1.7 -0l-14.8 -10l-9.5 -8.6l-3.3 -0.4l-11.9 -8.1l-0.3 -1.1l-3.1 -1.3l0.7 -7.1l-6.2 -5.5l0.7 -4.7l5.2 -4.7l-0.4 -4.6l-8.9 5.2l-4.5 -3.4l0.5 -6l5.2 -2.9l6.8 2.7l-1.6 -13.1l-3.2 -11.9l2.8 -14.2l10.8 -9.5l4.8 -6.2l2.6 -8.4l-1.8 -4.8l-24.8 -1.3l-10.6 -0.7l-6.1 8.9l-31.2 -18.3l1.6 -3.5l-163.3 -36.8l8.1 53.8l-109.3 -1l-74.5 -0.6l-32.3 -0.3l2.2 6.1l-3.6 10.2l1.9 10.5l-3.9 12.3l1.5 2.3l12.1 0.5l-13.7 142l-1.2 13.6l0.3 3l-0.8 1.5l-1.2 16.2l-0.2 3.1l-0.6 7.4z" />
  </g>
  <g data-zip="03835">
    <path d="m4074.1 6789l0 0l-2.4 9.1l258.5 223.4l14.6 -19.8l32.9 -36.7l184.4 -242.7l0.4 -0.5l-4.2 -0.8l-20.9 -14.1l-164.8 -125.6l-2.9 4.2l-60.5 -53l-2.7 5l-19 -16.7l-9.1 11.6l-170.9 219.9l-7.9 4.5l-25.3 32.5z" />
  </g>
  <g data-zip="03839">
    <path d="m4479.5 7143.2l0 0l-3.9 3.5l30 26l6.7 5.9l-11.8 19.9l-0.6 8.4l7.5 6.3l6.7 7.8l5 4.6l6.7 9.6l7.9 0.5l6.3 -2.5l12.7 -12.4l1.4 -5.3l4.1 3.8l22.1 18l15.7 12.9l77.3 65.6l7.3 -11.2l2.2 -3.7l-6.1 -2l6.1 -10.8l5.5 0l0.6 -4l-7.9 -9.2l1.7 -10l2.3 -2l-7.9 -3.6l5.8 -12l-4.4 2.4l-6.7 -8l4.4 -2l-12.5 -7.2l-1.3 -4.7l11.9 -17l-11.9 -10.4l-7.2 -11.6l-12.8 -36l8.7 -1.4l2.5 -1.3l6.6 -5.5l-30.3 -35.3l-5.3 -4.8l-13.4 -8.3l-22 -10.5l-7.3 -7.4l-23.6 -33.3l-4.5 -10.1l-4.1 4.1l-9.2 8.4l-10.3 14.6l-16.1 15.1l-11.9 6l-2.2 2.7l-7.2 21.3l-1.6 8.3l-7.3 20.7l-4.5 7.2z" />
  </g>
  <g data-zip="03842">
    <path d="m4827.3 8344.8l0 0l-6.2 2.3l10.3 10.4l6.4 17.2l4.4 4.3l14.5 7.7l10 12l8.5 7.7l-0.6 4.3l7.4 5.6l3.5 7l7 4.9l1.8 6.2l-1.6 11.4l8.4 24.3l0.9 -1.3l0.2 0.8l5.8 0.8l1.4 -0l1.5 1l3.4 2.8l2 -2.9l7 11.5l11.4 4.1l6.3 7.2l9 -1.3l1.1 6.2l6.3 1.5l-3.2 9.3l5.3 2.6l4.7 4.9l1.1 -1.1l4.4 4.2l11.2 -5.5l4.4 -0.2l-0.5 2l-6.1 0.3l3 7.6l-6.6 22.5l12.9 -0.3l-6.8 9.6l6.7 7.2l9.1 -12.3l3.8 2.4l0.6 8.4l3.9 3.1l15.4 -0.2l29.2 24.6l4.3 11.2l-1.3 23.2l9.4 10.6l5.8 6.5l0.9 -4.8l2.3 -12l15.4 3.3l0.7 -40.7l1.8 -10.6l4 -12.9l8 -15l10 -4.3l22.7 -1.9l-9.9 -11.1l-1.4 -13.4l2.4 -22.9l11.1 -39.2l9.7 -11.5l13.2 -5l-1.2 -13.3l4.2 -13.6l4.6 -6.6l-1.4 1.4l-6.3 -1.4l-8.1 -2.5l-3 0.2l-127.6 -24.5l-65.2 -18.3l-7.9 -2.2l-40.1 -14l-44.6 -12.6l-21.1 7.8l-13.6 5.1z" />
  </g>
  <g data-zip="03845">
    <path d="m4144.4 3909.6l0 0l-4.2 -6.7l13.2 30l33.3 22.6l7.3 0l-5.4 -4l-4 -9l-4.7 -5l0.7 -5.9l-2.4 -4.6l-5 2l-6.2 -1.3l-13.1 -8.8l-9.5 -9.4z" />
    <path d="m4036.9 3661.7l0 0l10.3 31.2l4 6.8l8.1 18.9l2.2 7.7l9.6 10.4l15.1 32.9l-14.4 -2.1l17 16l2.7 4.5l-6.8 4.1l-9.5 11l-8.6 4.5l-10.1 1.6l11.2 18.8l1.4 4l-1.8 3l0.4 -1.8l-3.2 4.5l-0.2 9.9l3.7 4.7l9.2 1.4l4.5 11.9l9.7 12.6l-5.1 5.8l2.7 5l-4.9 -0.4l-8.2 -4.7l-4.4 6.8l48.6 -0.1l10.1 -0.8l1.6 -0.1l20.5 2.5l12 1.8l17 2.4l13.6 -0.2l40.5 -0.5l5.5 0.3l5 -0.8l3.7 1.5l42.5 -0.7l-0 -13.7l-34.6 3.4l-6.6 -334.3l-1.4 6.5l-5.2 -0.4l-10 7.6l-14.6 15.1l-7.6 4.5l-6 22.6l2.4 6.3l-0.6 12.4l-2.2 14.6l-6.2 7.6l-11.1 4l-9.1 7.2l-6.1 -1.8l-9.4 1.2l-4.7 -3.5l-7.1 0.5l-1.6 2.8l2.2 3.4l7.9 1.2l4.7 5l-1.6 9.4l1.1 6.4l-2.1 2.8l-54.1 2.3l-41 -3.4l-3 -18.8l-27.3 -5.2z" />
  </g>
  <g data-zip="03847">
    <path d="m4152.1 3892.1l0 0l2.6 4.5l-0.9 16.3l13 6.2l0.3 8.6l6.2 1.3l5 -2l2.4 4.6l-0.7 5.9l4.7 5l4 9l5.4 4l0.7 -2.4l8.6 -0.3l5.5 -3l-0.2 -5.5l-8.8 -16.4l-1.1 -8.7l-4.1 0.6l4.9 -5l10 2.6l19.8 -0.1l15.9 9.9l24.7 -0.8l0.8 -7.1l-2.4 -5l8 1.5l5.4 -5l-7.7 4.1l-8.6 -3.3l-11.4 -12.6l-4.4 -2.2l-3.7 -1.5l-5 0.8l-8.1 12.2l-13.7 -3.3l-8.9 0.1l-3.1 5.4l-11.8 4.8l-2.3 4.9l-2.5 0.3l4.2 -13.1l0.2 -11.1l-13.6 0.2l-17 -2.4l-12 -1.8z" />
  </g>
  <g data-zip="03850">
    <path d="m3574.9 5461.6l0 0l0.4 4.9l7.2 12.8l9.5 8.5l9.4 3.2l14.4 -2.5l8.9 -0.1l14 7.3l-0.9 -1.9l7.3 -5.2l19.6 -6.2l13 0.7l4.3 4l4.9 -1.8l7.6 1.5l8.1 7.4l7.9 3.4l13.7 2.2l11.4 -9.9l8.1 -2l12.3 6.4l-7.2 -14.4l-3.1 -3.4l-23.9 -16.6l-10.4 -22.3l-6.4 -10.4l-13.3 0.7l-5.6 -6.4l-12.6 0.9l-4.2 2.7l19.9 -13.5l-0.8 -11.4l-2.6 -8.1l-6.5 -7.1l-2.2 -5.7l7 -11l-4.6 -4.3l-18.6 -7.1l-5.7 -3.6l-72.4 96.5l-8 11.9z" />
  </g>
  <g data-zip="03851">
    <path d="m4292.6 6513.8l0 0l-5.3 6.7l19 16.7l2.7 -5l60.5 53l2.9 -4.2l164.8 125.6l20.9 14.1l4.2 0.8l6.6 -8.4l6 -7.9l3 -3.7l-1.3 -3.3l0 -1.2l0 -15.7l2.2 -10l-7.1 -11.1l-0.2 -8l1 -7.8l13.1 -5.4l0.9 -11.9l-0.7 -6.1l-8.6 -9.3l-2.7 -7.7l-0.5 -9.4l-0.4 -9l-0.7 -15l1 -7.8l0.2 -1.6l0 -0.3l0.2 -0.3l4.6 -8.3l0.6 -1.1l5.9 -10.6l14.1 -10.5l4.6 -2l5.4 -2.3l10.4 -10.4l7.8 -14.7l-2.9 -13.8l1.7 -8.7l4 -2.5l1.9 -1.2l3.5 -2.2l6.3 -18.5l-12.1 -13.6l-8 -6.5l-1.6 -8.4l2.6 -8.9l0.7 -10l8.7 -15.1l0.7 -7.1l-8.8 -3l-14.4 -10.9l3.6 -2.1l-2.5 -9.3l-5.8 0.9l-1.9 -9.4l-11.3 -6.7l-4.2 -12.8l-8.2 -3.2l1.6 -7.1l-6.5 -2.4l-5.8 2.7l0.4 -7.4l-7 -3.5l-10.2 -8.2l-6.9 0.7l-0.5 -5.1l-5.8 -2.2l-2.2 -4.1l7.2 -2.7l5.4 2l3.2 -6.8l-0.4 -6.2l2.5 -8.4l-1 -6.2l-7.8 -14.4l-5.3 -27.8l1.3 -24.5l-4.2 -8.5l-72.6 97.8l-30.4 40.4l-33.4 41.5l-25.8 37.7l-13 12.6l-13.2 17l-11.6 19.7l-35.8 41.6l-9.5 17.7z" />
  </g>
  <g data-zip="03852">
    <path d="m4536.9 6291.3l0 0l2.2 4.1l5.8 2.2l0.5 5.1l6.9 -0.7l10.2 8.2l7 3.5l-0.4 7.4l5.8 -2.7l6.5 2.4l-1.6 7.1l8.2 3.2l4.2 12.8l11.3 6.7l1.9 9.4l5.8 -0.9l2.5 9.3l-3.6 2.1l14.4 10.9l8.8 3l-0.7 7.1l-8.7 15.1l-0.7 10l-2.6 8.9l1.6 8.4l8 6.5l12.1 13.6l-6.3 18.5l12.9 -8l0.3 -8.6l-1.7 -10.3l-12.1 -18.1l-3.2 -11.6l1.8 -12.7l6.6 -12.5l10.3 -39.5l-2.8 -12.5l-8.8 -14.4l-0.3 0.1l-4.3 1.4l-14.4 -3.9l-5.9 -4.5l-3.8 -9.6l14.9 -11l3.4 -2.5l1.6 -7.4l-4.6 -5.3l-1.7 -9l8.3 -20.4l13.9 -26l8 -6.4l3.6 -34.9l9.3 -7.1l-1.8 -6.2l-4.3 -5.5l8.2 -24.4l-0.1 -15.3l-7.9 -6.5l-1.2 -3.1l0.5 -15.1l-3.4 -11.4l-12.6 -10.9l-2.3 -3.8l-0.6 -6.1l0.7 -8.7l3.2 -8.5l0.1 0l-1.1 -1.1l-18.6 22.2l-88.5 114.5l4.2 8.5l-1.3 24.5l5.3 27.8l7.8 14.4l1 6.2l-2.5 8.4l0.4 6.2l-3.2 6.8l-5.4 -2l-7.2 2.7z" />
  </g>
  <g data-zip="03856">
    <path d="m4497.1 8006.8l0 0l-1.3 74.5l163.3 36.8l-1.6 3.5l31.2 18.3l6.1 -8.9l10.6 0.7l24.8 1.3l-5 -8.2l1.5 -11.9l-0.5 -11.3l-6.8 -15.4l0.8 -4.4l3.2 -4.4l9.5 -3.3l12 -15.8l0.9 -1.8l7.4 -7.8l19.4 -5.5l3.8 -2.7l14.8 -34.9l-64 10.3l-2.5 0.4l-20 1.7l-89.1 -4.8l-8.4 0.8l-2.4 3.2l3.6 11l-34.6 -2.8l5.1 -14.2l-81.8 -4.3z" />
  </g>
  <g data-zip="03857">
    <path d="m4492.9 7936.9l0 0l-0.2 27.1l5 5.6l-0.2 10.2l-0.4 27l81.8 4.3l-5.1 14.2l34.6 2.8l-3.6 -11l2.4 -3.2l8.4 -0.8l89.1 4.8l20 -1.7l2.5 -0.4l64 -10.3l2.3 -10.7l11.4 -17l7.6 -7.2l19.1 -12.4l12.2 -8.8l41.6 -40.3l13.2 -13.1l-44.6 -10.1l-4.3 -3.9l-117.7 -24.2l-2.7 -0.6l-0.9 -0.1l-0.6 0.2l-9.4 2.2l-11.1 2.7l-2.2 0.5l-8.9 2.2l-6.1 1.4l-98.4 22l-92.5 1.5l-0.8 43.3l-5.5 3.9z" />
  </g>
  <g data-zip="03860">
    <path d="m4190.3 3920.4l0 0l2.5 -0.3l2.3 -4.9l11.8 -4.8l3.1 -5.4l8.9 -0.1l13.7 3.3l8.1 -12.2l-5.5 -0.3l-40.5 0.5l-0.2 11.1l-4.2 13.1z" />
    <path d="m4157.2 3880l0 0l0.6 1.5l2.3 1.3l1.5 0.6l1.8 0.3l3 -0.1l1.7 -0.5l0.6 -0.6l0 -2.1l-0.7 -0.9l-1.3 -0.4l-6.6 -0l-3.1 0.8z" />
    <path d="m4051.7 3873.2l0 0l-0.3 5.8l0.7 2.8l6.5 0.7l0.8 -5.6l-7.7 -3.6z" />
    <path d="m3994 3986.5l0 0l12.1 33.4l6.7 8.5l5.3 9.6l5.4 5.5l11.4 5.8l4 -0.7l9 -6.8l0.4 10.9l2.7 0.7l-0.3 8.1l6.9 1.8l7.4 5.3l12.4 3.8l5.4 28.6l24.1 126.9l6.6 1.2l5.7 -2.6l12.4 -0.3l15.5 -2.3l11.3 -8.4l1.2 -14.2l3.4 -6.7l-6.2 -13.6l-6.9 -10.8l1.9 -16.4l6.9 -30.2l-1.1 -9.7l-8.3 -14.4l-5.2 -14.9l-4.7 -5.9l-10.8 -19.1l-2.2 -7.5l4.6 -3.5l8.3 15.9l8.7 1.9l0.8 9.6l24.5 13.5l-8.3 5.2l-1 4.3l4.2 4.5l6.5 0.6l2 13.7l2 2.6l4 14.4l12.8 21.8l-0.6 4.3l3.7 2.3l1.9 3.7l-2.3 14.5l-5.3 4.5l-0.3 5.7l10.6 11.1l7.7 3.9l-1.5 8.6l-14.4 1l-4 1.4l-3.6 3.2l0.4 4.6l6.6 9.8l2.2 1.1l10.3 -4.3l2.9 9.5l-1.6 5l-3.5 5.1l-9.7 -1l-2.4 1.4l-1.9 3.9l2.3 11.7l3 1.2l7.5 -6.3l9.5 -13.5l2.1 -12.4l20.4 1.9l-3.9 17.8l5.5 -0.4l3.5 -7.6l19.3 -5.1l8.1 2.3l3.5 -1l1.9 -9.3l9.4 -8.7l0.7 -6.1l1.6 -1.8l-5.9 -8.9l-0.5 -5.1l1.1 -17.4l-1.2 -5.8l8.8 -2l-8.5 -4.7l-0.7 1.5l-6.3 3.3l-27.5 -24.7l-7.6 -11.7l-3.6 -14.5l1.9 -0.5l3.6 -1.5l-24.6 -105.1l6.4 2.7l5.4 7.2l2.6 0.4l13.9 0.3l13.1 2.7l17.7 -0.2l49.9 -31.3l46.7 -37.9l6.6 -3.1l4.5 -13.2l4.4 -7.8l7.7 -0.5l1.2 -3.8l6.1 -4.3l1.2 -6.9l3.6 -5.5l9.4 -3l2 -7.1l4 -3.2l5.1 -8.5l11.6 -5.4l-144.5 3l-42.5 0.7l4.4 2.2l11.4 12.6l8.6 3.3l7.7 -4.1l-5.4 5l-8 -1.5l2.4 5l-0.8 7.1l-24.7 0.8l-15.9 -9.9l-19.8 0.1l-10 -2.6l-4.9 5l4.1 -0.6l1.1 8.7l8.8 16.4l0.2 5.5l-5.5 3l-8.6 0.3l-0.7 2.4l-7.3 -0l-33.3 -22.6l-13.2 -30l4.2 6.7l9.5 9.4l13.1 8.8l-0.3 -8.6l-13 -6.2l0.9 -16.3l-2.6 -4.5l-20.5 -2.5l-1.6 0.1l-10.1 0.8l-48.6 0.1l-22 0.1l11 84.1l-66.3 11.7z" />
  </g>
  <g data-zip="03867">
    <path d="m4761.7 6930.4l0 0l-1.1 1.3l4 10.2l2.5 -0.8l-3.1 -9l-2.4 -1.8z" />
    <path d="m4330.2 7021.4l0 0l12.8 11.2l34.4 27.4l23.7 22.5l74.4 64.1l3.9 -3.5l4.5 -7.2l7.3 -20.7l1.6 -8.3l7.2 -21.3l2.2 -2.7l11.9 -6l16.1 -15.1l10.3 -14.6l9.2 -8.4l4.1 -4.1l4.5 10.1l23.6 33.3l7.3 7.4l22 10.5l13.4 8.3l5.3 4.8l30.3 35.3l-6.6 5.5l-2.5 1.3l-8.7 1.4l12.8 36l7.2 11.6l11.9 10.4l-11.9 17l1.3 4.7l12.5 7.2l-4.4 2l6.7 8l4.4 -2.4l-5.8 12l7.9 3.6l-2.3 2l-1.7 10l7.9 9.2l-0.6 4l-5.5 0l-6.1 10.8l6.1 2l29.8 -46.5l17.8 -27.4l16.3 -28l28.7 -44l16.5 -25.2l20.1 -30.6l-12.7 1.1l-8.7 -0.7l-10.1 -4.4l-49.2 -41.2l-8 -4.5l-20.3 -6.6l-1.2 -19.2l7.7 -0.6l49.7 -4.2l-4 -3.7l-9.6 -27.9l-7.9 -18.1l-42.2 -32.9l-8.3 -5.9l-22.1 -13.8l-7.5 3.4l-10.4 -1.4l-24.3 -20.3l-7.4 -2.5l-11.7 5.5l4.1 14l-1.6 27.4l-1.7 5l-0.9 -10.3l-6.2 1l-17.9 -25l10.4 -4.3l-4.1 1.2l-8.9 -1.5l6 -15.7l1 -9.5l-1.9 -21.4l16.5 14.3l-1.6 -19.4l-3.4 -40.9l-5.2 -53.7l-5 -16.5l-4.1 8.8l-0.4 23.3l-4.6 5.7l-3.6 -37.1l-1.8 -9l-7.2 -15.3l-184.4 242.7l-32.9 36.7l-14.6 19.8z" />
  </g>
  <g data-zip="03868">
    <path d="m4562.4 6721.6l0 0l-0.4 0.5l7.2 15.3l1.8 9l3.6 37.1l4.6 -5.7l0.4 -23.3l4.1 -8.8l5 16.5l5.2 53.7l3.4 40.9l1.6 19.4l-16.5 -14.3l1.9 21.4l-1 9.5l-6 15.7l8.9 1.5l4.1 -1.2l-10.4 4.3l17.9 25l6.2 -1l0.9 10.3l1.7 -5l1.6 -27.4l-4.1 -14l11.7 -5.5l7.4 2.5l24.3 20.3l10.4 1.4l7.5 -3.4l22.1 13.8l8.3 5.9l42.2 32.9l7.9 18.1l9.6 27.9l4 3.7l-49.7 4.2l-7.7 0.6l1.2 19.2l20.3 6.6l8 4.5l49.2 41.2l10.1 4.4l8.7 0.7l12.7 -1.1l8.9 -13.6l7.6 -11.5l2.5 -3.8l-1.6 -1.7l2.8 -12.8l5.6 -5.5l-2.9 -2.5l-8.6 5.1l-16.6 -0.9l-4.1 -7.6l10.2 -13.2l7.3 -7.5l2.9 -10.4l-5.6 -14.1l-6.3 -1.7l-6.2 1.5l-2.3 0.5l-7 -7.6l-7.7 -6.4l2.4 -6.7l-1.1 -39.5l-9.9 -0.1l-3 -1.7l-20.9 -17.1l-1 -0.8l-19.9 -19.2l-2.5 -5.8l-1.6 -14.2l-1.6 -8.8l-12.7 -2.4l-9.1 2.3l-32.9 8.4l-4.4 5.7l-10.2 -5.7l-2 -6.3l-1.9 -6l-1.8 -3.2l-5.7 -9.9l-10.5 -3.4l-6.2 -5l-3.1 -2.5l-22.2 -56.8l2.1 -19.9l-6.6 -17.4l-14.8 -24.6l-1.1 -1.8l-7.2 -9.1l0.1 -2.7l-1.7 -4.5l-1.9 -5l-3 3.7l-6 7.9l-6.6 8.4z" />
  </g>
  <g data-zip="03872">
    <path d="m4402.3 5704.8l0 0l2.7 5.7l11.1 0.5l1.3 -2.9l-0.8 -1.8l-14.3 -1.5z" />
    <path d="m4170 5915.6l0 0l-6.4 9l9.6 52.2l37.9 213.3l14.4 -22.2l13 21.6l15 -19.3l10.7 17.5l11.1 -21.5l13.5 24.1l50.3 -82.6l13 12.3l19.4 -15.8l11.4 13.7l17.7 -20.1l5.6 19.6l19.2 -20.2l25.3 120.7l2.7 6.7l3.7 2l1.7 -2.8l-6.5 -7.9l-2.1 -7.7l3 -56.2l4.2 -23.2l6 -13.5l1.1 16l9.3 -3.8l6.5 0.8l7.1 5.5l13 -15.6l6.4 34.3l4.2 6.4l7.5 5.8l19.5 23l88.5 -114.5l18.6 -22.2l1.1 1.1l9.8 1.6l8.4 -5.2l1.7 3.8l0.2 0.4l1.7 1.5l3.4 -0.4l0.2 -15.2l7.5 -26.7l-3 -4.9l-4.2 -1.9l-4.9 -6.1l-2.5 -22.3l-4 -6.3l-13.4 -6.5l-19.5 -23.7l-4.6 1.3l-7.5 -6.9l-3.6 -91.2l-19.1 2.5l-10.4 -0.2l-17 4.6l-4.5 7.9l-11.7 3.4l-9.6 -6.9l-3.3 4.1l-6.4 -2.7l-0.9 -2.6l8.5 -3.9l4.1 -12.6l-3.8 -9.3l-9.3 -7l-7.3 -2l-3.2 3.8l-12.9 4.6l-4.1 7.7l0.9 7.9l4.7 10.8l-0.3 3.9l-22.1 -0.9l-9.2 -1.4l-8.7 -7.6l-23.3 -23.6l-1.8 -5.2l-12.7 -23.7l-2.5 -7.4l-3.6 -20.3l-26.7 -77.8l8.5 0.9l4.5 3.1l7 -6.1l-4.1 -9.6l1.6 -2.9l5.7 4.6l11.9 5.7l5.8 7.4l11.5 6.9l7.6 -10.9l-0.4 5.3l3.7 4.3l8.7 2.9l-2.8 -7.8l3.4 -7.3l-1.4 -6.4l5.3 -2l4.7 6l4.2 -1.4l4.8 11.8l29.7 -11l31.3 -3.4l14.7 3.1l9.3 0.5l3.2 6.1l1.9 -6.2l-1 -9.3l-4.8 -3.5l5.3 -9.9l-24.5 -13.6l-14.8 -9.8l-15.2 -13.5l-17 -7.3l-25 -3.6l3.5 -7.7l-3.3 -14l7.3 -10.2l-1.9 -11.3l-8.6 -17.1l-3 -12l0.1 -6.2l4.3 -11.1l-4.3 4.5l-109.2 140.8l-46.8 58.7l-14.2 17.3l-11.5 17l-61.6 76.6l-3.4 4.2l-56.1 73z" />
  </g>
  <g data-zip="03874">
    <path d="m4775.5 8587.8l0 0l3.6 33.1l0.7 5.8l1.1 3l3.8 37.4l0.2 0.7l34.1 0.1l48.4 15.6l109.3 86.1l32.8 -16.1l19.2 -15.6l26.3 -11.8l13 -1.6l3.5 -22.3l1.1 -26.4l6.6 -10.3l7.3 -20.9l0.3 -17l-15.4 -3.3l-2.3 12l-0.9 4.8l-5.8 -6.5l-9.4 -10.6l-27.4 -3.2l-0.6 17.5l5.5 0.9l3.8 5.9l-1 14.9l-11.8 -12.7l-3.1 -10.7l-10.5 -9.8l-3.6 -17.6l-3.1 -1l-2.7 7.6l-6.2 -5.3l-3.6 2.9l-5.5 -1.5l0 -7.9l-4.7 0l0.8 5.8l-4.4 -2.1l-3.3 2.9l-2.3 -4.1l-8.5 -4.7l-15.4 -5.8l-21.1 5.7l-4.9 -1l-14.2 1.4l-17.1 -0.9l-36 -4l-3.8 0.7l-7.4 -2.3l-4.7 3.5l-7.9 2.3l-1.6 0.4l-1.9 1.4l-2.5 0.7l-3.2 1.4l-1.7 0.4l-2.4 -0.5l-18.3 -7.3l-3.2 -8.3l-2.1 -1.8l-9.7 -1l-6.2 1z" />
  </g>
  <g data-zip="03878">
    <path d="m4775.5 7155l0 0l-28.7 44l110.1 114.3l2.8 7.2l3.2 0.9l4 3.7l14.4 -3.6l-0.5 -4.2l23.2 -14.2l10.5 16l9.2 -2.4l11.8 -0l-1.2 -19l0.3 -13.2l6.2 -3.9l18.2 -11.2l20.7 -13.4l3.9 -2.3l20.1 -12.2l-5.7 -17.4l0.6 -4.2l3.9 -2.8l1.5 -3.3l-11.7 -12.1l-0.2 -0.2l-25.4 -9.9l-8.9 6.5l-9.1 -4.4l-4.1 -4.2l-0.7 -9.7l-4.5 -13.5l-5.4 -7.8l0 -0l-7.7 -3l-7.4 0.4l-5.5 -2.3l-2.8 -5.2l-4.4 -4.1l0.5 -6.1l-5 -6.9l-7.4 -2.4l-14.2 -0.1l-3.2 -2.8l-2.6 -17.2l-0.6 -1.6l-2.1 -5.5l-5.4 -14.1l-10.8 -5.6l-17.8 -4.4l-6.9 -7.3l-2.5 3.8l-7.6 11.5l-8.9 13.6l-20.1 30.6l-16.5 25.2z" />
  </g>
  <g data-zip="03887">
    <path d="m4225.5 6167.8l0 0l-14.4 22.2l67.1 342.1l9.1 -11.6l5.3 -6.7l9.5 -17.7l35.8 -41.6l11.6 -19.7l13.2 -17l13 -12.6l25.8 -37.7l33.4 -41.5l30.4 -40.4l72.6 -97.8l-19.5 -23l-7.5 -5.8l-4.2 -6.4l-6.4 -34.3l-13 15.6l-7.1 -5.5l-6.5 -0.8l-9.3 3.8l-1.1 -16l-6 13.5l-4.2 23.2l-3 56.2l2.1 7.7l6.5 7.9l-1.7 2.8l-3.7 -2l-2.7 -6.7l-25.3 -120.7l-19.2 20.2l-5.6 -19.6l-17.7 20.1l-11.4 -13.7l-19.4 15.8l-13 -12.3l-50.3 82.6l-13.5 -24.1l-11.1 21.5l-10.7 -17.5l-15 19.3l-13 -21.6z" />
  </g>
  <g data-zip="03894">
    <path d="m3711.2 5859.2l0 0l-4 -0.2l76.3 71.4l88.4 26.7l55.2 57.1l14.6 -7.7l13 -27l1.8 1.5l105.3 79.6l27.4 -32.5l-1.7 -6.2l8.4 -3l67.4 -94.2l6.4 -9l56.1 -73l3.4 -4.2l61.6 -76.6l11.5 -17l14.2 -17.3l46.8 -58.7l-38.8 -28.1l-3.1 -0.3l-90.4 -71.7l-39.9 -29.4l-11.4 13.9l-6.4 -3.5l-52 -33.8l-30.3 -21.7l-33.5 47.5l-50.8 -34.4l-11 -10.3l-2.8 1l-30.8 42.4l-3.5 7.7l-10.2 11.2l-84.9 116.7l-24.9 -11l-6.7 -1.8l13.8 -16.3l-13 0.6l-10 -5.1l-7.1 8.7l6.9 8.7l-3.1 6.3l-5.3 2.9l-5.2 -1.1l-4.4 6.4l3.5 0.7l12.2 7.9l3.2 0.3l-12.9 18.2l-4 7.2l-10.6 13.4l-2.4 13.8l-4.7 8.6l-5.7 -2.8l-7.5 0.5l-0.8 3.1l4.1 9.5l-2.2 4.3l-1.1 12.6l-2.7 10.1l-10.6 19l-2.4 12.2l4.5 10l-1.6 12.9l-2 3.3l-13.6 5.2l-19.2 3.5l-10.4 5.2l-6.6 6.3z" />
  </g>
</svg>
