<?xml version="1.0" encoding="UTF-8"?><!DOCTYPE svg PUBLIC '-//W3C//DTD SVG 1.1//EN' 'http://www.w3.org/Graphics/SVG/1.1/DTD/svg11.dtd'><svg viewBox="0 0 1000 1766.61" xmlns="http://www.w3.org/2000/svg"><path id="03031" d="m487 1642l1 5l-1 2h1v4h1l6-1h1l1 7l5 1v1l2 6l4 1l1 2l2 1l1 1h2l1-1v2l1 7v5l1 8l2-1h3h3l5-1h1h1l11-2h3v-2l-2-11l-1-13l-1-6l-4-20l-2-14h1v-1h-1v-2h4v-1l-1-1v-2l-1-2v-5l-2-7l-3-17v-1l-15 3l-17 3l2 9h-3l1 7l2 9l-3 1l2 3l-1 2l1 7h-3l-10 2l1 6h-3l1 6zm-16 18h-3l8 2l2-1h3l3 1l1-2h-2v-1l-2-1l1-1v-1l-4 1h-3l-1-1l-3 2z"/><path id="03036" d="m681 1590l2 1l14 3l33 8v1l1 1v-2v-2v-4l-1-9v-2v-9l-1-3v-5l8 1l4 1l5 1l7 1l1-2l2-7l2-5l2-4l-10-2l-5-2l-4-1h-10v-1l-26-8l1-3l2-7l-14-4l-1 9l-3 14l-2 6h3l-3 10h-1z"/><path id="03038" d="m658 1588l-1 1l1-1l1-1h1h1l1-1v1l-1 1h-1h1h1l3 25l1 6v3l2 14v9l1 1l-1 1v1l1 2h-1l1 1v1v4l1 1l-1 1v3l21-3l11-2h1h5l11-2l1 2l12-2l7-2v-2v-1v-1l-1-1h1h-1v-8v1h2v1h1v-2h1v-3v-4l-2-1l-1 2v1l-2 1v2v-1l-1-3l1-1l-1-1l-1-5l-1-5l-2-9v-4v-4l-1-1v-1l-33-8l-14-3l-2-1h-1l-21-5v2z"/><path id="03042" d="m770 1526h-1h4l32 1h6h14h20l-1-10v-14v-5v-2l-1-1v-5l1-1v-8h-33h-26l-1 4l-4 10l-6 16l-1 3l-1 3v2l-2 3z"/><path id="03045" d="m501 1502l3 15l-2 1v3l-1 2l1 1h1h1h1l1 1v1l8 37l3 2l17-3l15-2l19-3l5-6l-2-1l-1-1h-1h-2l1-3l1-1l-1-1l1-1v-1h1h1h1h1l3 1l2 1l-1-3l-1-1l-2-1l-1-1l1-2h2l-2-14v-1l-1-3l-2-13l-2-13l-1-1h-3z"/><path id="03048" d="m402 1706l1 1v2l1 1l1 6h2h1l-1 1h-2l6 42l18 1h14h1l24 1l-5-36l-2-10l-1-7l-4 1h-3l-1-5l-1-4l-1-2h-2l-2-2l-3 1l-2 1h-1l-2 1h-1v-1v-2l-17 3l-11 1l-1 1h-1l-5 1l1 3z"/><path id="03051" d="m599 1694h-1l2 1l1 1v2l1 6l-1 2l1 3v1l1 1l5 5l1 2v1l2 4v3l-1 3v2l1 2v4l1 1l2 3v2l-1 2l-1 2v2l1 7l-1 2l1 3l2 5l25 1l1-4l9-44l2-6l-1-3l2-7l-1-1v-2v-2h-1l1-2v-1h1v-2l1-1l-14-18l-22-1l1 9v2h1l1 5l-1 2h-1h-1l-1-1v1h-2l-3 1z"/><path id="03053" d="m607 1602h-1l4 22v2l4 25l1 3l3 19l22 1l14 18h2v-2h2l-1-2l1-1l1-1h1l1-1l1-1l-1-2l1-2l1-1l-1-2v-1l1-1l-2-2l1-2l-1-3l1-1l-1-1l1-2l-2-2l9-1v-3l1-1l-1-1v-4v-1l-1-1h1l-1-2v-1l1-1l-1-1v-9l-2-14v-3l-1-6l-3-25h-1h-1h1l1-1v-1l-1 1h-1h-1l-1 1l-1 1l1-1l1-1v-2l-14-3l1 5l-1 1h-2h-2l-9 2l-6 1h-1l-6 1h-3l1 3l-2 5v1l-1 1h-4z"/><path id="03054" d="m536 1620v2h1v1h-1l2 14l4 20l1 6l1 13l2 11v2l1 3v5l3-5h1v-1v-1l1-1l1 1l1-2v-1l2 1v1h1l2 1h1l2-1l1 1l1 1l2-1l3 1h1l1-1l2-2l1-1l5 1l1-1l1 1v1l1 1l-1 2l-1 1l1 2l1 1h2h3h1l1 1l1 1h1h1l3-2v-2v-1v-2l-1-1l-1-3v-3l-1-3v-3l-3-2v-2v-1v-2v-3l-2-4l-1-1l1-4l1-2v-2v-1l-2-6v-2v-2v-2l3-3v-1l1-1v-1l1-2l3-3l2-3h1l1-2v-1l2-5l3-3v-3l1-5h-1l-26 4h-1l-9 2l-11 2l-8 1h-1l-5 1h-1l-1 1z"/><path id="03055" d="m452 1654l1 1v6l1 2l6 45l1 7l13-2l-2-14l21-3l6-1v4l2 12l7-3l3-6l2-1l3-1l4-2l-1-6l-2 1l-1-8v-5l-1-7v-2l-1 1h-2l-1-1l-2-1l-1-2l-4-1l-2-6v-1l-5-1l-1-7h-1l-6 1h-1v-4h-1l1-2l-1-5h-3l-4 1l-7 1h-1v3l1 2l-2 1l-4 1l-1-1v1l-7 2z"/><path id="03060" d="m582 1718v12v1l1 2l1 2l1 1l7 5h1h3l3-1h2h-1h1l2 1v2l2 4l1 4v2l-1 7v3l1 3h9l-2-5l-1-3l1-2l-1-7v-2l1-2l1-2v-2l-2-3l-1-1v-4l-1-2v-2l1-3v-3l-2-4v-1l-1-2l-4 1l-1-1l-1 1l1 2h-1l-5-1l-1 1l-1 1h-2l-2-2l-1 1l1 2h-1h-3l-2-2l-1-3h1v-1h-1z"/><path id="03062" d="m554 1764h1h1h1h13l4 1h2h25l5 1l-1-3v-3l1-7v-2l-1-4l-2-4v-2l-2-1h-1h1h-2l-3 1h-3h-1l-7-5l-1-1l-1-2l-1-2v-1v-12l-2 3l-1 2h-2l-1 2l-1 3l-2 1l-1 2l-4 1l-2 4h-3l-1 1l-1 1l-1 1v3l-1 4h-1v3v1l-1 3v4l-1 2v1v1z"/><path id="03063" d="m546 1698l-2 2l2 1v1l2-1l1 1l1 1h2v2l-3 4l8-2l4-1l1 3h1l1 4v13v3l-1 1l-1 6h1h3l2-4l4-1l1-2l2-1l1-3l1-2h2l1-2l2-3v-4v-3v-2l-3-21l-5-1l-1 1l-2 2l-1 1h-1l-3-1l-2 1l-1-1l-1-1l-2 1h-1l-2-1h-1v-1l-2-1v1l-1 2l-1-1l-1 1v1v1h-1l-3 5z"/><path id="03064" d="m580 1687l-1 1l3 21v2v3v4l2-3h1v1h-1l1 3l2 2h3h1l-1-2l1-1l2 2h2l1-1l1-1l5 1h1l-1-2l1-1l1 1l4-1l-5-5l-1-1v-1l-1-3l1-2l-1-6v-2l-1-1l-2-1l-1-1l-2-2v2v1v2l-3 2h-1h-1l-1-1l-1-1h-1h-3h-2l-1-1l-1-2l1-1l1-2l-1-1v-1z"/><path id="03071" d="m335 1700l1 5v2l1 2l6 48h1h16l51 2l-6-42h2l1-1h-1h-2l-1-6l-1-1v-2l-1-1l1-1l-1-3l-43-2z"/><path id="03077" d="m706 1537l-1 3l26 8v1h10l4 1l5 2l10 2l2-7l1-5h1v-1l2-6l3-2l2-1h-2h-2v-1l2-4v-1h1v-4l2-3v-2l1-3l1-3l6-16l4-10l-2-1l-2-2l-1 2l-4 4h1l-2 4v2l-13-3h-1l-1-1l-24-5l-10-3l-4 13l-1 1l-12 34z"/><path id="03086" d="m399 1643l2 14l1 4l2 12v1l4 27l1-1l11-1l17-3v2v1h1l2-1h1l2-1l3-1l2 2h2l1 2l1 4l1 5h3l4-1l-6-45l-1-2v-6l-1-1l-2-19h-1l-43 7h-1h-3z"/><path id="03101" d="m592 1541l1 2l2 2v1l-1 6l1 3v2l-2 4l2 1h4l-1-1l1-1h-1v-4l1-1v-2h1v-4v-5h-2l-1-4h-2h-2z"/><path id="03102" d="m568 1546l-1 3h2h1l1 1l2 1l-5 6l12-2h1l2 14l4-1h2l2-1l1-2l1-4l2-4v-2l-1-3l1-6v-1l-2-2l-1-2l1-1h2l-3-6v-3l-3-7v-1v-2l3-5l-1-2l-2-1l-2-2l-2-5l-1-3l-13 2l2 13l1 3v1l2 14h-2l-1 2l1 1l2 1l1 1l1 3l-2-1l-3-1h-1h-1h-1h-1v1l-1 1l1 1z"/><path id="03103" d="m592 1565l-1 2l2 6v2l1 1l1 2l2 1l1 1l2 2v2l1 3l1 3l1 4v2v6l1 3v4l-1 5l1 1l6 9l-4-22h1h3h4l1-1v-1l2-5l-1-3h3l6-1v-1l-2-2l1-1l-2-1v-3v-1l-1-1h1l1-2h1v-5l-1-2l-2-2v-2l-3-6l-2-3l-1-3h-1v-1h1l-1-3v-1l-2-1l-5-1h-3h-4v4h-1v2l-1 1v4h1l-1 1l1 1h-4l-2-1z"/><path id="03104" d="m589 1523v1l3 7v3l3 6h2l1 4h2v5h4h3l5 1l2 1v1l3-1l4 1l3-1v3v-2h2l2-1l3-4l1-2l-3-3h2l1 2l2-2v-2v-1l2-1v-1l1-1v-1l-1-1l-2-7l1 8l-20-5l-2-1h-2l-6-2v-2l-2-15v-1l-1 1h-1l-1 1v1l-7 3l-1 1l-3 5z"/><path id="03106" d="m568 1491l1 1l2 13l13-2l1 3l2 5l2 2l2 1l1 2l1-1l7-3v-1l1-1h1l1-1v1l2 15v2l6 2h2l2 1l20 5l-1-8v-4l-2-9l-1-3l3 1l2 1h1v-1l1-2v-1l2-3l7-17l4-8l1-3l4-11l1-1l-16-4l-13-4l-4-1l-1 1l-5-3h-1v1l-7-2l-8-2l-2 1l-2 1h-1l-1-4l-1 2l-4 5l-1 2l-2 3l-14 20l-2 2l-1 1l1 5z"/><path id="03109" d="m614 1555v1h1l1 3l2 3l3 6v2l2 2l1 2v5h-1l-1 2h-1l1 1v1v3l2 1l-1 1l2 2v1h1l6-1l9-2h2h2l1-1l-1-5l-1-7l-1-7l-5-26v-3l-1-3l-1 1v1l-2 1v1v2l-2 2l-1-2h-2l3 3l-1 2l-3 4l-2 1h-2v2v-3l-3 1l-4-1l-3 1l1 3z"/><path id="03217" d="m481 983v2l2 3h2l1 2v2l2 1h1l1 1v2l1 2l-1 1l1 2l1 2l1 4l1 1l-1 2l-1 4l1 2l3 4l2 4l-1 4l1-2l13-1h1v-1l2 1l19-3l-2-10l-12-13l-11-11l-8-9h-7h-1h-1l-3 1h-7v1z"/><path id="03220" d="m552 1203l2 1l1 2l29 20l1 5l1 5l3-1l5-1l4-2l2-2l6-7l3-6l1-3l4-5l2-2l1-2l5-8l2-2l3-3l2-3l4-4l-1-1l3-3l-6-5h-2l-19-15l-2 3v-1l-1 1v1h-1l-1 1l-4-3v-1h-1l-1-1l-2-2l-6-4l-2-2h-1l-1-5l-1-1l-3-2l-3-1v1v3v1l-3 5l-2 3l-1 2l1 3v1v1l-1 1l-1 3l-1 2h-1l-1 1l-1 1l-1 1l2 2v1l-2 5l-1 1h-2l-2-1l-1-1h-1l-1 1l1 5l1 1v1v3l-1 2l-3 4v2l-2 1z"/><path id="03221" d="m339 1309l1 4l2-2v-1l-1-4v-2zm-2-41v1l3 2v-2l-1-1zm-7 44v3l3 3l1 3l-2 2l-1 1l2 1v-3l1-1l2-1l2-3l-3-2l-5-3zm-28-46l2 4l1 1v2l12 28v1l1 1h1l4 2l2 1h1l3-1l1-2l2-3v-1v-2l1-3l3-2l3-3l1-3v-1l-1-2l-1-2l-2-1h-1l-1 1v3l-1 3l-2 2v2v-1v-1v-2l-1-2l1-1v-1l1-3l-1-3l-1-2l-4-5l-2-3l1-1h-1l-7 1l-2-1l-4 1h-6zm-33 85h11l2 24l18 26l5-1l47-13l23-6l12-3l1-4l-1-3l-1-2l-1-1v-2l-1-1h-3h-3l-3-3l-2-2l-2-2h-2v2l-2 2v1l-1 1l-2-2h-1l-1-1h-1l-1 1v-1l-10-22v-2l-3-5l-1-2h-1l-13 3v-2l-2 2l1 1h-3l-4 2v1l-3-1l-8 3z"/><path id="03222" d="m354 1051l3 2l-3 5l3 2l-3 5l6 3l-3 5l6 3l-4 11l20 6l8-10l17 51l1-2l-1-1l2-3h1l1 1l1-2h3l1-1v-2l2-2l3 1l2-1l1-1l1-1l2 1l1 1l1 5l9-11h2l1 2l4-2l1 1l1 1l1-1v-1l1-1h3l1 1h2l1 1l-1 1l1 1l2-1v-2v-1v-1l2-2l2-1l1-3v-1l-1-1l-1-2l-3-2h-2l-2-2v-1l1-2l1-2h2h1h2l2-3l1-1h2h1l1 1l1 3h1l2 1l6-1h1l3-2l6-5h1h2l1-1v-2l-1-2v-2l2-2l1-1h2l2-2v-1l-1-1l-1-4l-1-1v-2l1-1l-1 1l-2 1l-1-1l1-1l2-4h1v-3l-1-2v-1l1-2v-3h-1l-1-1h-1l-4-2l-1-3l-1-3l-3-2l-1-1l-3-5l-1-3l-2 1l-1 1l-2 1v2l-3 2l-2 2v3l-2 2l-1 2l-1 1h-1l-2-1v-1l1-3v-4l1-3l2-3v-3l1-1v-3v-1v-3l1 1l2-1v-1v-2l1-1h-2h-1l-15 9l-31 18v-1l-1 1v1l-2 1v1l-2 2l-16-9h1l-15-8l5-7h1l-23-7l-1 4h1l-1 2l-3 5l-7 13h1z"/><path id="03227" d="m543 870l2 13l9 60h3l3 24l64-8h1l47-6l-6-31l-5 3l-1 1l-2 1v2l-2-1l-1-1h-1l-1-2l-2 3h-1v-2l1-2l-4-1l-3-1h-4l-1 1l-3-2l-4-2l-2-1l-4 1l-1-1v-1l-1-2l2-1l1-1v-3h-1l-2-3l-4 1l-1-3v-4l-5 1l-1-1l-2-2l5-22l-3-1l-1-1h-2l-2 1l-1 1h-1l-1 1h-2l-2-3l-1-3v-1l1-2l-1-1l1-3l-1-1v-1l1-2z"/><path id="03229" d="m421 1369l15 33l1 3l13 33l35-10h1l22-6l7-2l4-1h3l-20-39l-1-2l-2-4l-5-9l-5-11l-3-7l-29 14l-1 1l-1-3z"/><path id="03235" d="m450 1165l3 2l5 6l2 3l4 11h1l2 5l4 17l-1 1l-4 1l-11 5l-3 2v3l3 2l1 2l1 1h2l1 1h1l2-1l2 1l1 2l2 1v1l1 1l-1 7l3-1l2-1l1 9v1l2 3l3 1v1l5 2l1 5v1l11-6l1-1l1-1l1-2v-1l2-5l-1-2l1-3v-1l8-1l-2-17l5-1v-1l-1-4l-2 1v-1l-1-4h1v-1l2 1l1-1v-2h-1l-3-9l2-1l-3-6l3-1l-1-1v-1l-1-5l-1 1l-4-11l-1-1l-2 2l-6 2v-3l-1-1l-4-2l-1-1h-3l-1-2h-2l-2-2v-3l-3-3l-2-2v-1l-1-1v-2l-6 3l-2 1l-7 3l-1 1z"/><path id="03242" d="m352 1387l17 37l3 7l11 25l25-7l8-2l34-9l-13-33l-1-3l-15-33l-6 1l-11 4v-1l-8 2l-4 2l-5 1l-12 3z"/><path id="03244" d="m281 1481h1l23-5l32-8l1-2l2-2l-5-6l2 1l1-1l4 1l1 2l2-3l1 8l8-2h1l-1 2l-2 1h1l-1 2h1v1l-2 1l1 2v3l-1 1l1-1v2l-1 1v1v1h1l-1 1v4h1v1l2 1l-1 1v1v1v2h1l1 1v3l-2 1l1 3v1l-1 2l1 1l1 2l1-1l4 4v2h7l1 6h2l52-5l-14-64l-25 7l-11-25l-3-7l-17-37l-47 13l-5 1l-16 5l8 16l-8 24h2z"/><path id="03246" d="m564 1110l1 1v-1v-1h-1v1zm-5-17l-1 6l2 9l1-3l1 1l3 3l1 1l3 7l2 4l1 3v3v5l1 2v2l3 4l2 4l3 1l3 2l1 1l1 5h1l2 2l6 4l2 2l1 1h1v1l4 3l1-1h1v-1l1-1v1v-1l2-9l1-1l-1-1l-3-1h-1l1-5v-3l1-2l-5-1v-1l1-4l3-12l1-3l1-1v-1h-1l1-2h2h3l2-5l2-16l1-1l1-3l-4-5l-10-8l-4-4l-2-2l-3-3h-1l-2 2l-5 3l-1 1l-5 4l-5 4l-2 3l-2 2l-3 2l-2 1l1 1l-2 1v-3l-1 1l-3 2z"/><path id="03251" d="m429 734l12 6l1 1l59 30l5 2l2-6l8 24l1-1h1h2h2h2h2l1 1h2l3 2l3 1l1 2h1l3 3l1 1l3 1h1l4 2l18-4l11-2v2l55-10l-3-1l-4-1l-3-1l-3-2l-2-3l-1-1l1-2v-1h-1l-2-2l-3-2l-2-1l-4 1l-1 2l-2 1h-2h-1l-2-1v-2l-1-1l-2-1h-3h-2v1h-2l-2 1h-3l-1-1v-3v-1v-2l1-1l2-2l1-4l1-2l-1-2v-2l-2-2l-1-1v-4l1-4l2-4l-1-1l-1-2l1-2l2-3h2l2-2h2h1l-1-2l3-1h2l2-1h1l3-3l2-3l2-1l1-5l2-1l3-1v-1h1l4-1h3l1-2v-2v-1h2l2 1h1l2-1l2-1v-1l-1-3v-2l-1-1l1-2l1-2l-1-2l-4-2l-1-3h-1l-2-3l-1-2l-2-3h-1l-1-2l-1-1v-1l1-1l2-3h-1l-2-2l1-2l1-1l1-2l-1-2l-62-21l-24 65l-22-10l-57-25z"/><path id="03253" d="m509 1105v2l1 1h1l11 4l2 1h3l25 8h1l8 3l11 3v-3l-1-3l-2-4l-3-7l-1-1l-3-3l-1-1l-1 3l-2-9l1-6h3l3-2l1-1v3l2-1l-1-1l2-1l3-2l2-2l2-3l5-4l5-4l1-1l5-3l2-2h1l3 3l2 2l4 4l3-3h2h1l4 2h2l3-1h1l3 1h1l2-1l1-2l2-2l1-2l3-1l2-1l1 1h1l1 4l1 1h1h2v-1l1-4v-2v-1l-1-2v-2h1l2-1h3h1h2l2 2l1 1l2 4l2 1l1 1h1l3-1l-1-1l-40-38h-1h-1v-1v1l-1-1v-1v-1l-5-5v1h-1v-1l-1-1v-1l-1-1l-8 6l-1-1l-3 2l-3-3l-3-3h-1v2l-4-3l-10 9l-4 3l-4 4v1h-1l-4 4l-5 5l-1-1l-1 2l-1 1v1l-5 5l-6 6v1l-1 1v3l-2-2l-14 14l7 2l-2 1l-1 2v3l-2-1v-1l-2-2h-1v-2h1l-1-1l-1 1l-2 3l-11 10v3l1 1h-3h-1l1 2v3z"/><path id="03254" d="m560 967l12 12l3 3v1v1h2l1 2l1 1l3 4h1l3 3l2 1v1l10 11l13 12l1 1l2 1v1l5 5v1v1l1 1v-1v1h1h1l40 38l1 1l2 2h1h3h1l1-3l-1-2l-1-3v-2l1-2l1-1l3-1l1-1v-1l-2-3v-1h1h2l2-1l1-1h4l1-1l2-2l1-1v-2l-1-7l-1-1l-1-2l-1-2l-3-1h-1l-3 1l-2-1l-2-2l-1-2v-1l1-2l14-18l3-5h1l13-18l3-4l11-15l-2-1h-3l-14-3l-26-6l-47 6h-1z"/><path id="03255" d="m262 1288l-7 12l14 51l44-12l8-3l3 1v-1l4-2h3l-1-1l-7-17v-1l7-3l5 3v-3l-3-6l-3-1l-3 1h-1l-2-1l-4-2h-1l-1-1v-1l-12-28v-2l-1-1l-2-4l-2-5l-3-6l-20 2v3h-1z"/><path id="03256" d="m451 1099v1l2 2h2l3 2l1 2l1 1v1l-1 3l-2 1l-2 2v1v1v2l-2 1v1v2l2 3l2 1v1h2l2 1l2 5v2l1 2l1 1l13-11v-1l2-2l20-19l10 3l-1-1v-2l3-5v-3l-1-2h1h3l-1-1v-3l11-10l2-3l1-1l1 1h-1v2h1l2 2v1l2 1v-3l1-2l2-1l-7-2l14-14l2 2v-3l1-1v-1l6-6l5-5v-1l1-1l1-2l1 1l5-5l-1-1l-1-1h-1l-1 1l-3 1v1h-1h-2v1h-2v1l-3-2h-3l-2-2v-1l-2-1l-1-2l-2-1v-3v-3l-3-1l-4-5l-19 3l-2-1v1h-1l-13 1l-1 2l-1 2l-1 1l2 5v1l-1 4l-1 2l-1 1l-1 1l1 3v3v3l2 3l-1 2l-1 1l1 4l-2 2l-1 1v2l1 1l1 4l1 1v1l-2 2h-2l-1 1l-2 2v2l1 2v2l-1 1h-2h-1l-6 5l-3 2h-1l-6 1l-2-1h-1l-1-3l-1-1h-1h-2l-1 1l-2 3h-2h-1h-2l-1 2z"/><path id="03257" d="m273 1225l6 8v1l-1 19v1l-1 3l20-2l20-5l3 1l2 2l3 2l3 2l1 1l6 3l-1-5v-3l-1-1l-1-2l-2-2v-2h1l6-1l18-5l-15-9l1-2l-7 2l-2 2l1-2l1-1l-1-1l-3-3l-2-1h1l2 2l1 1l1 1l2-1l1 1v-1l2-1l1 1l-1-1l1-1l2-2l1-1l2-3l1-1l1-1l-4-1l-1-2l1-2l-5-2l-9-4l-4-4l-4-4l-10-6l-5 6l-7 15l-23-3l-2 13z"/><path id="03262" d="m403 798l-1 3l18 2l-7 23l30 12h1l1 1l6 2l20 9l4-12v-1l1-5v-2v-2l4-8l-2-2l-2-3v-1l1-5l2-3l1 1v-2l-1-4l1-2v-1l1-2l2-1l1-3l-1 3l-1 2l3-1l1 8l-2 5l1 3l16-41l-59-30l-1-1l-12-6l-10-5v1l-14 58v5l-2 5z"/><path id="03263" d="m643 1307l10 8l6 4l3 2l6 4v1l-2 3h-2v3l-1 1h-2l-1 2l-2 2l-2 1l-2 4l53 12h1l4-9l1-1l3-8h1l4-5v-1l1-1l-61-47l-8-5l1 2v2l1 3l-1 2v3l1 2l-10 13z"/><path id="03264" d="m427 962l-5 12l10 4v1l-6 14l12 6l12 28l15-9h1h2l-1 1v2v1l-2 1l-1-1v3v1v3l-1 1v3l-2 3l-1 3v4l-1 3v1l2 1h1l1-1l1-2l2-2v-3l2-2l3-2v-2l2-1l1-1l2-1l1 3l3 5l1 1l3 2l1 3l1 3l4 2h1l1 1h1v3l-1 2v1l1 2v3h-1l-2 4l-1 1l1 1l2-1l1-1l2-2l-1-4l1-1l1-2l-2-3v-3v-3l-1-3l1-1l1-1l1-2l1-4v-1l-2-5l1-1l1-2l1-4l-2-4l-3-4l-1-2l1-4l1-2l-1-1l-1-4l-1-2l-1-2l1-1l-1-2v-2l-1-1h-1l-2-1v-2l-1-2h-2l-2-3v-2v-2v-1v-2h2l1-2v-1v-1h2l-2-2v-2h-2l-1-1v1l1 3v1h-1l-3 3l-1-2v-1l-1-3v-2l1-1l2-2l1-1v-3l1-3l1-1l1-1l2-4l-2 1h-2l-25-1v-5l-3 1v-1h-1l-1-4l-2 1l-1-3h-2l-1-2l-3-2l-4 8l-5 12h1l-2 6z"/><path id="03275" d="m576 1410h1h1v1l2 1v-1l2-1l1 3h1v1l1 1v1l-1 1l-1-2l-3 1v1h1l-1 1h2v2l-1 1v1h1l-1 2l2 2l4 1l2 1l2 2l5 5l1 3l2 3v1l-2 6l-1 2l1 4h1l2-1l2-1l8 2l7 2v-1h1l5 3l1-1l4 1l13 4l16 4l11-23l3-6l7-16l-35-8l-5-2h-2h-2l-1-1h-2l-7-2l6-16h1l-4-3l-5-3l-24-18l6-8l1-1l-3-3l-2 1l1 1l-1 1h-2l1 3h1l-1 1v1h-1h1v1v1h-1l-1 1v1v1h-1h-1h-1l1 1l-1 2v1l-3 2h-1v1l1 1h-1l-2 2h1l1 1l-1 2v1v1l-1 1l4 1v1l-2 1l1 2l-1 1h-1l-1 1h-1l-2 1v-1h-1h-1v-1v1l-1 1h-1l-2-2h-1l1 1l2 5l1 1v1v4l1 1l-1 2l-1 1h-1l-1 1h-1v1h-1z"/><path id="03276" d="m495 1261v1l1 3l2 3v2l1-1l8-3l1 3l1-1l-1-1v-1l11-4h1l5-1v-1l1-1l51-20h3l6-2v-1l-1-5l-1-5l-29-20l-1-2l-2-1l2-3l2-1v-2l3-4l1-2v-3v-1l-1-1l-1-5l1-1h1l1 1l2 1h2l1-1l2-5v-1l-2-2l1-1l1-1l1-1h1l1-2l1-3h-1h-1l-2 1l-2 1l-29 12l-13 5h-1v1l-2 1l-5 1l-7 2l1 1l-3 1l3 6l-2 1l3 9h1v2l-1 1l-2-1v1h-1l1 4v1l2-1l1 4v1l-5 1l2 17l-8 1v1l-1 3l1 2l-2 5v1l-1 2l-1 1l-1 3v2z"/><path id="03278" d="m346 1330l1 2l3 5v2l10 22v1l1-1h1l1 1h1l2 2l1-1v-1l2-2v-2h2l2 2l2 2l3 3h3h3l1 1v2l1 1l1 2l1 3l-1 4l5-1l4-2l8-2v1l11-4l6-1l34-10l-30-60l-1-3l-2-4l11-7l-2-2l-4-3h-2l-1-2l-1-1l2-4l-1-2l-1 1v-2l-1-1h-2v-1l2-1l1-1l-1-2v-1l-1-1h-2h-1l-2 4l2 5l1 5l-1 1l-2 1l-3-1l-2-3l-1-2l-1-1l-1-1h-2l-3 1l-2-1h-2l-2-2l-3-1l-1-21l-10 4v5l-8 6l-2 1l-1 1l-1 1l-3 5l3 7l2 6l9 23h-2v2l1 3v3l-2-2l-1-2h-1l-2-1h-1l-3-2h-2l-9-2h-3l-2-1l-2 1h2l10 7h-1h-2v2l4 2l1 1l1 2l3 3v1v2l-2 1l-2 1l-19 4z"/><path id="03301" d="m504 1380h-2l20 39l3 6l2 4l2-2l19-10l5-2l3-2l3-2h1l4-2h1v3l-1 1l1 2l2 2l4 1h3l1 1l4 2l2 3l1-2h-1v-1l1-1v-2h-2l1-1h-1v-1l3-1l1 2l1-1v-1l-1-1v-1h-1l-1-3l-2 1v1l-2-1v-1h-1h-1l1-1h1v-1h1l1-1h1l1-1l1-2l-1-1v-4v-1l-1-1l-2-5l-1-1h1l2 2h1l1-1v-1v1h1h1v1l2-1h1l1-1h1l1-1l-1-2l2-1v-1l-4-1l1-1v-1v-1l1-2l-1-1h-1l2-2h1l-1-1v-1h1l3-2v-1l1-2l-1-1h1h1h1v-1v-1l1-1h1v-1v-1h-1h1v-1l1-1h-1l-1-3h2l1-1l-1-1l2-1l-3-2v-1l-1-1l-9-6l-4-3h-1l-9-7l-11-21l-2-5l-20 11l-10 4l-1 1l-1 1v1l3 2h2h2h1l1 2v2v2v2h1l3 1l-2 6l-2 4v4h-2v1l-2 2l1 3l-5 1l-2 1l-2 3v1v2l-1 1l-2 1l-2 2v1l1 3l1 2h-1h-2l-2 1l-3 1h-7z"/><path id="03303" d="m422 1292l2 4l1 3l30 60l1 3l1-1l29-14l3 7l5 11l5 9l2 4l1 2h2l5-1h7l3-1l2-1h2h1l-1-2l-1-3v-1l2-2l2-1l1-1v-2v-1l2-3l2-1l5-1l-1-3l2-2v-1h2v-4l2-4l2-6l-3-1h-1v-2v-2v-2l-1-2h-1h-2h-2l-3-2v-1l-1-1l1-1v-1l-2-3l1-1l1-1l1-2v-2h-1l-4 1h-2l-2-1l-1-1l2-1l2-4l1-2h1l-1-2h-2l-3 2l-2-1l-4-2h-1l-2-1l4-2l1-3l-2-2h-2l-1 2l-2 1l-1-1l-1-2l1-2v-2l-1-2l-2-1l-1-2v-3v-1l1-3v-2l-2-2l-2-2l-2-2l-2-1v-1v-2l-2-3l-1-3v-1l1-3v-2l1-3l-1 1l-11 6l-4 1l-16 8l-2 2l-3 1l-14 7l-3 1l-3 2l-4 2l-3 1z"/><path id="03307" d="m570 1308l-6 7l11 21l9 7h1l4 3l9 6l1 1v1l3 2l3 3l2-3l1-1l5-5v-3h2l10-14l2-4l16-22l2-3l10-13l-1-2v-3l1-2l-1-3v-2l-1-2l-11-8v-1l-2-1l-46-33l-5 1l-1 3l3 2l1 4v1l-1 1l-3 1l-3 1v1l-1 2v1l1 2v1l1 1h1l1 3l2 1l2 2l1 2l1 2h2v2l2 1l-1 1l-1 1l-18 25l-1 2l-2 2l-1 2l-4 5z"/><path id="03431" d="m95 1563l8 34l3 12h9h1h20h3h10v1l4 15v1v8v1l3-1h1v-2v-2l1-3l2-6h2v-1h3l2 1l1-1l1 2l2 1h1l-2-1l-3-5l-1-2v-2l1-3l1-1l1-1v4h4l3 2l1-2l1-4h2h3v-2v-10l12-1l-2-1h-2l-1-1h-2v-2l2-1l1-1l2-4l1-1l3-2l1-1v-2l2 2v1h1l1-1l3-2h1l1-1l-1-2l-2-1l1-1l1 1v-1l-1-1h2l1-2l-1-1v-2h-1l-2 2l-3 1l-2 1h-2l1-1l2-1l1-3v-4l-2-1h-3l-2-1h-1v-1v-3l1-1v-1l1-2h-9v10l-16-6l-3-24l-2 2l-1 4v1l-1 2l1 2l-21 6v-2l-4-6v-2l-3-11l-3-1l1-1l-1-1v-2l-1-1v-2h-2l1-2l-1-2l-1-1l-1-1v-2l-1-1h-2l-1-2v-4l-1-1l1-2h1l1 2h5h1l3-1l-3-5l-1-2l-1-3l-22 2l4 35h-4l-2 29z"/><path id="03440" d="m273 1528l-1 10l15-2v-2l2-1l1 3l46-8l7-1h-1l1-1h-1l1-1h1l1-1l-1-1l-1-1l-1-1h2l-2-1l1-2l2-2h1v-1h-1l1-1h-2v-3v-1h-1h1h1l2-1h2v-1l3-2l1-2l1-2v-1l-1-3l2-1v-3l-1-1h-1v-2v-1v-1l1-1l-2-1v-1h-1v-4l1-1h-1v-1v-1l1-1v-2l-1 1l1-1v-3l-1-2l2-1v-1h-1l1-2h-1l2-1l1-2h-1l-8 2l-1-8l-2 3l-1-2l-4-1l-1 1l-2-1l5 6l-2 2l-1 2l-32 8l-23 5z"/><path id="03442" d="m334 1547v2h2l3-1l1 3v1l1 2v1l6-1l2 1l25-4l-1-9h-3v-3h-2l-1-5l5 2v-2l2-1l-2-3l-2-7l1-3l-1-2h-2l-1-6h-7v-2l-4-4l-1 1l-1-2l-1-1l-1 2l-3 2v1h-2l-2 1h-1h-1h1v1v3h2l-1 1h1v1h-1l-2 2l-1 2l2 1h-2l1 1l1 1l1 1l-1 1h-1l-1 1h1l-1 1h1l-7 1l2 9l-1 1v5v2l1-1l1 2z"/><path id="03446" d="m163 1611l1 1l1-1v-1h-1zm-68 38l-3 7l21 1l4 25l12 3l12 2l5-8l28 1h1l1-3l1-4l-1-5l3-1l-1-8h5l-1-11v-11l1-12l-7-3l4-9l-2-1h-1l-1 2l-3-2h-4v-4l-1 1l-1 1l-1 3v2l1 2l3 5l2 1h-1l-2-1l-1-2l-1 1l-2-1h-3v1h-2l-2 6l-1 3v2v2h-1l-3 1v-1v-8v-1l-4-15v-1h-10h-3h-20h-1l-19 38v1z"/><path id="03449" d="m271 1568v15l30 1l2 10l2-1l19-4l11-2l-2-1v-1l1-1v-1v-2l2-2h2v-1l-1-1l1-2h1l3-1l1-2l-1-6l-1-4v-2l1-2v-2l-1-1v-1l-1-2v-1l-1-3l-3 1h-2v-2l5-1l-1-2l-1 1v-2v-5l1-1l-2-9l-46 8l-1-3l-2 1v2l-15 2z"/><path id="03451" d="m0 1652l1 1l1 4l3 3v3v3l1 6v2l1 2v1l1 2l1 6l1 3l11 10l2 2l2 3l1 3l1 3v1l-1 1l-3 2l-1 2l1 2l1 1h1h2l4-2l1-2v-2l2-1l2 1l2 2l1 2l1 1l3 2l1 1v3l1 5l1 4l3 3l4 6l1 3v2h4l-2-10l2-1v-1l-2-1v-3v-1l-1-6l3-1l2-3v-3l1-2l1-1h-1l-3-2l-1-2h-1l-1 1h-1l1-1l-1-1l-1-1h-1l-2-13l-2-17l-1-3v-1l-3-21l-11-1l-31-3h-1z"/><path id="03452" d="m226 1640l2 17l4 26l2 13h21l30 2v-1l1 1h5v-1l3 1h1l8 1v-1h2l1 1h13l-6-35l-3-21l-39-1l-34-2h-8z"/><path id="03455" d="m180 1613l-4 9l7 3l-1 12h2l2 1h2l2 2v1l2 3l1 1l-1 1h2l2 3v1l1 1l1 1l2 2l1 2l3-1l19-3l1 6l4-1l-2-17h3l-1-12h-4l-5-29l-2-18v-5l-4-1v-5h-6l1 1l-1 2h-2l1 1v1l-1-1l-1 1l2 1l1 2l-1 1h-1l-3 2l-1 1h-1v-1l-2-2v2l-1 1l-3 2l-1 1l-2 4l-1 1l-2 1v2h2l1 1h2l2 1l-12 1v10v2h-3h-2l-1 4h1z"/><path id="03458" d="m303 1594l1 8v1l1 3v3l2 19l3 15l3 21l6 35l16 1h24l-2-13l4-2l2-2v-2l1-2v-2l2-2v-2l1-2v-5l-1-1l1-3v-2l-2-1h-1l1-3h3v-2l1-6l3-1v-1h1l-2-13l-8-49v-1h-1l-27 4l-11 2l-19 4z"/><path id="03465" d="m175 1680h-1l2 9l8 1l1 8l12 1v-4h5v-5l10 1l1-1l1-2v-1h-1v-4h19l-4-26l-4 1l-1-6l-19 3l-3 1l-1-2l-2-2l-1-1l-1-1v-1l-2-3h-2l1-1l-1-1l-2-3v-1l-2-2h-2l-2-1h-2v11l1 11h-5l1 8l-3 1l1 5l-1 4z"/><path id="03470" d="m44 1652l3 21v1l1 3l2 17l5 1l5 3l6-1h4h1h1l2 1h1l-1 3h6l3 1h-1v2l-1 1h-4l-1 1l-3 2v1h2l-2 1v1l-1 3l1 1l1 1l1 2l-2 2l-5-1h-8l-2 3l-3 1l1 6v1v3l2 1v1l-2 1l2 10l21 1l59 2l10 1h2l43 1l-1-7l-1-1v-1l-2-2l-1-2v-1l1-2l-1-1v-1v-2v-1v-2l-1-1l1-2l1-2v-1l-4-24l-1-8l-8-1l-2-9l-28-1l-5 8l-12-2l-12-3l-4-25l-21-1l-21-2z"/><path id="03561" d="m313 532l30 15l-5 10h1l1 2l-1 2l1 2l1 2l-1 1l-1 2l-2 2v1l1 1l-1 1l-1 1l1 1h-1l2 1l2 2v-2l1-2l1-5l1-3l-1-4v-3l3-9l1-1l34 16l37 17l14-13l10-9l1-1l8-7l1-1l3-3l4-3h1l2-2l9-8l-22-32l-6-11l-2-2l-7-11h-1l-3 2l-2 2l-1 1l-7-1l-2 1l-4 5l-1 1v1l2 3v1l-2 1h-3l-2 1h-1l-1 5l1 1l1 1v1v1l-1 1l-1 1l1 3l1 4v1v1l-1 1l-2 1l-4 1l-4 2l-3 1l-3 3l-5 3h-5l-4 3h-2l-1-1l-4-2l-11-5l-2-1l-6 1l-4 4l-3 3l-3 2l-2-1l-3-1h-7l-3 1l-10-1z"/><path id="03570" d="m651 420v2h2l2 2h2h2l3 2l3-1h2v-1l-1-3l-1-3l-1-2v-1l2-2l1-1l1-1l5-2l1-2l2-1l2 1l1-1l2 1v1h1l3 2l-1 1l1 2v1l1 1v1l-3 1v1l-3 1h-5h-1l-2-3l-1 1l1 1v1l2 1v1l1 1v1v2v1l2 2l1 2h-1h-1l-3 1l-1 2v2l-1 1v2l1 2h3l2 1l2 2l1 1v3h4l31-1h26h5h1h1h2l2-1v-4h8l3 1h1l-1 3v9l78-1l-1-26l-1-20l-2-45l-2-40l-22 1l-1 2l-7 16l1 1l1-1l1 1l1 2l2 3v4l1 2l2 2l-1 1l-1-1h-1l-4-1l-1 1l-1 1l-1 1l1 1v1l-1 1l-2 1l-2 2l1 3h-1h-2l-3-1l-1 1l-2 1l-3 6l3 2v2l-1 2v1v1v2h1l-1 1h-1l-3-2l-1 1l-1-1l-1 3h-4h-3h-11l-4 1l-106 3l-3 9v4l1 1v2l1 1v1l2 1l-2 1l-1 2l-2 1l-1 2v1v2v2z"/><path id="03574" d="m431 569l-14 13l21 11l3 2l3 1l5 2l108 40l62 21l6 2l-7-33l6-1l-15-28l-14-9l-20 4l-1-5v-1l-37 7l-7-39l-54-24l-6 3l-9 8l-2 2h-1l-4 3l-3 3l-1 1l-8 7l-1 1z"/><path id="03576" d="m641 23l1 2l1 2l1 2l1 1l1 1h4l-1-2v-2h1l-4-3zm-91 112l-1 2l1-2l2-1l1-2l2-1l1-2l5-5l2-1l1-1l2-2l3-1l4 2l1 2l2 1l2 2v2l3 3l1 7l1 2l2 1l4 2h1l1 1h1v2h3l1 2l4 1v1l2 2l1-1l1 2l1 1l1-1h1l1 2l1 3l1-1v1v1l2 3v3l1 1l1-2l1-1l2 2l2 2l1 1l-1 2v1v1v2h-2h-1l-1 1l-2 1l-1-1l-1 2l-1 2l1 3l-1 3l1 1l22-3h2l19-3l10-53l4-2l2 1h3l1-1l5 1h1l3-1l-1-1h1h1l1-1l-1-1l2-3l1-2v-1l2-4v-1l-1-2h-1h-1l1-1l-1-2v-1v-1l1-5l-1 1l-1-2l1-2l1-1l1-3v-1l1-1l1-1l1 2v1v-1h4l1-2l1-1h1h2l1-2l3 2l1 1l1 1l2 1l1 1l1 3v1l4 1h1h1l4 3l3 1l2-1v-1v-2l2 3l1 2v1v1h-1v1l2 2l1 1h1l-2-59l-26-5v-2l1-1h1l4-1l-1-2l1-6l1-2v-2l1-4l1-2v-1l-1-2v-2v-3l1-1l-2-5l-2-1l-2-3l-2-1h-2h-1l-2-2l-1-1l1 2v1l-2 1l-2 4v1l-2 6l2 2l-1 3l-2 1l-1 1l-1 1l-3-1l-1 1l-2 1l-1 1l-2 2l-1-1l-1-3l-1-1l-2-1l-1-2h-2l-1-1l-1-1l-2 1v-1l-1-2l-2-1h-1l-1 3l-2 1l-3 1l-2-3l-1-2l-2-1h-2v1l1 2l1 1h-1l1 1l1 1l1 1l-1 2l1 1l-1 2v2l-1 1v2l1 2h1v3l-29-5l-3-1l-8-2h-5l-5-1l-2-1l1 2l-1 1h-1v-2h-1l-1-2l-10-1l-1 3h-2v1v1l-5 2h-1l-2 1v2l-3 1l-1 1l-8-2l-4 1h-2l-1 4l-1 1l1 1l2 2l2 6h1l-1 1v1h2h1v-1h1l1 5l-1 8l1 4l-1 2v1h-1h-2v1l1 1l2 1l1 6l3 3l3 3l2 4v1v1v1h1l2-1h1v1h-1l-1 1v2l1 1v1h-1h-1h-1h-1v1l-4 4l-1 1l-2 1v1l2 2l-1 1l-5 7l-3 1l-1 1v1v3l-3 3h-3l-3 2l-2 3v1l-1 1l1 1l1 1v2z"/><path id="03581" d="m706 605v5l3 5l5-13l84 7l15-1h15v-29h-1v-7l19-1l-1-13l-1-29l-1-29l-1-28l-1-19l-78 1l1 37h-1l-1 1v-1h-2l-1-1l-2-1h-2l-2 1h-1v-1l-2-1l-2-1l-1-2l-1-2l-3-2v-1l3-3l1-5l-1-2v-2l1-3v-1l1-3l-1-2l1-4l2-5v-2v-2h-2h-1h-1h-5h-26l2 83h8l-4 21h-1l1 20l-2 2v2v3v3l-2 3l-3 1l-4 3l-2 3l-1 6v5z"/><path id="03582" d="m544 300v2l3 4l2 1l2-1l1 1v1l-2 1l-2-2l-1 1v1l2 1l2 1h1l1 1l-1 1h-2l-2-2v1l-1 1v4l2 5v3l-1 2l-1 1h-1h-2v2h1h2l3-1v1l-1 1v3l-1 1h1l2-1l1-1l1-1v1v1v1l-1 1v1h1h1l2-2h1h1l-1 1l-1 2v1l1 1l2-1v1l-1 2v1l-1 1l-3 3h-1l-1 1l-1-1l-2-2h-1v1l1 1v1l2 3v1v1h-1l-1 1l-2-1h-1v1v3l1 1l-2 1l2 8h11l-1 1l2 1v1l2 1h2l1-2h1v1h1v1h1v1l2 3l2 1l1 2l1-3l-1-3l-1-2v-2l-1-3v-1l1-1l3-1l5-1l-1 2v1l-1 3l-1 2l-2 3l-1 3v4l1 1l1 1l5 2l2 2l1 3l2 3l2 2h2l2 2l-2 1h-1h2l3 1l1-1l2 1l2-1l4-1h2h1h3l4-3l5-3v-6l53-30l9-26h-2l-2-26h-2v-11h1v-7l-49 1v7l-27 4l-13 2l-8-4l-31 5v1z"/><path id="03584" d="m490 452l18 24l46-27l6-3v-1l56-8l-1-16l-2-14v-1v-3l-1-11l-4 3h-3h-1h-2l-4 1l-2 1l-2-1l-1 1l-3-1h-2h1l2-1l-2-2h-2l-2-2l-2-3l-1-3l-2-2l-5-2l-1-1l-1-1v-4l1-3l2-3l1-2l1-3v-1l1-2l-5 1l-3 1l-1 1v1l1 3v2l1 2l1 3l-1 3l-1-2l-2-1l-2-3v-1h-1v-1h-1v-1h-1l-1 2h-2l-2-1v-1l-2-1l1-1h-11l-2-8l2-1l-1-1l-1 1h-2l-3 1l-3-2l-8-1l-1 1l-1 1l-2 2v3l-1 1l1 2l5 4l7 6l1 2v1l-1 2l-1 3l-3 4l-2 1l-1 1l-3-1l-1 1l1 2l1 1l2 3l1 1l1 2v2l3 2l1 1v1h-1h-1l-2-1l-1 1v2l-1 1h-1v-1l-1-1h-2v2v3l-2 5v1l-4 1l-2 1l-3-1h-1l-2 2l-2 6l-3 1l-3-2l1-2l4-1l1-1l-1-1l-1-1h-2h-1l-3 5l-2 1l-2 1l-1 1v1v2l1 1l3 2v1l-1 2l-1 1h-4h-1l-2 5l-1 7z"/><path id="03585" d="m295 604l1 1l9 5l35 17l12 73h1l2 1h1l1 2l2 1l2 2l3 1h1h2l3 1h2h1h2l1-2l-1-1l-1-2h1h2l3 3h1l2 2l1 1v3l20-61v-2l-16-6l29-61l-37-17l-34-16l-1 1l-3 9v3l1 4l-1 3l-1 5l-1 2v2l-2-2l-2-1h1l-1-1l1-1l1-1l-1-1v-1l2-2l1-2l1-1l-1-2l-1-2l1-2l-1-2h-1l-3 5l-10-4l-24 38h-2l-1 1v2z"/><path id="03597" d="m597 291v1v1l1 2l27-4v-7l49-1v-34l-2-59h-7l-2-1l-6-1h-4l1-8l-19 3h-2l-22 3v2l1 3h1l1 2l3 3l1 2l1 2l1 2v3l-1 3v1l-2-1l-1-1h-2l-2-1l1 9l1 1l-1 1v1v1l-1 2l-1 1v3v3l-1 2v1l2 3l1 1l1 2l1 2v2v1v1l-1 3l-2 3l1 1h1l2 1l2 2l-2-1h-1l-2 1v1v2h-1l-1 3l-1 2v3l-2 2l-1 1v2l-1 2l-2 4l-3 3v2l-2 2l-1 3v4zm-41-257h1l3 5l1-1l1-4h2l4-1l8 2l1-1l3-1v-2l2-1h1l5-2v-1l-2-4l2-1h-3l-1-1l-5-2l-2-2l-2-1h-1l-4 3l-3 1h-2l-1 1l-2 1h-1l-3 4v2h2v1l-1 1h-2v1v1z"/><path id="03598" d="m433 478v1l7 11l2 2l6 11l22 32l6-3l54 24l-2-15v-2l-3-15l40-6l-11-69l-46 27l-18-24v1l-2 1l-2 1l-5 1l-1 1l1 2l1 2l-1 2l-2-1l-1 1v1l-1 1l-2 2l-6 4l-5 3l-4 1h-3h-1h-2h-3l-2 1l-1 1l-1 1l-1 4h-1h-1h-2l-3-3h-1l-3-1z"/><path id="03603" d="m57 1413l1 2l-1 6l4 1h1l6 1l15 1l-3-11l1-1l2-2l-2-3l-1-3l-1-1h-1v-4v-1l1-1l4-1l-1-2l36-5l-2-9l-6-31l50-8h2l-2-1l2-2l1-2l1-1v-2l-1-3l-1-6h1v-1h-3l-1 1l-1-1l-2-1h-2l-3-2l-1 2h-2l-1 1l-1 1l-1 1v1v2l1 5l-1 1v3l-2 1l-2 1l-1 1l-5-1l-2-2h-3l-1 1l-1-1l-2 1h-3h-2v-3l-1-1l-1-3h-2l1-2h1l-2-2v-1l-1-2v-1l1-2v-2l-1-1l1-3v-2l-2-2v2l-1-1l-2-2h-3l3-19l-30-2l-1 3l-1 2v1l1 2l4 5l2 3l1 1v2l-3 7l-3 15l-4 9l-4 6l-7 4h-1l-1 4v6l1 5l1 2l1 1v1l-1 2l-2 3l-1 5v3l1 5v4v2l-7 6l1 3l3 5v2l-1 1z"/><path id="03608" d="m49 1503v2l1 2l2 2l1 3v3l-1 6v2l1 4h7h1h1l19 1l18 2l9 1h4l-4-35l-1-7v-1v-1l-5-34l-2-3h-2l-2-2l-2-1h-1l-2 1h-1v-2h3l3-1l1-2h-3l-1 1l-1 1v-1l-1 1v-2l-1 1l-2-2l-19-1l-1-18l-6-1v2l2 7l1 5v2v2l1 4l6 5l-2 2h-1l-1-1l-1-1v-1l-2-3v-1v-1l-1-2v2v1h-1l-1 1l2 2l1 2l1 1l2 3v4v1l-1 2l-3 3l-1 2l-1 2l3 4l2 6v3l-1 1l-2 4l-3 4l-5 6l-4 3l-1 1l-1 2z"/><path id="03609" d="m55 1431v1l1 4l2 2l2 1h2l1 1l1 1l1 2v1v1l2 3v1l1 1l1 1h1l2-2l-6-5l-1-4v-2v-2l-1-5l-2-7v-2h-1l-4-1l1 5v1l-1 1l-2 2z"/><path id="03740" d="m277 647v5l1 3l2 3l-1 2v1l2 2l1 1l2 4h1l-1 3l43 20v3v2l1 1l1-1l-1-1v-2l-1-2l3 1v2v3v1l1 1l1-1l1-2v-2v-1l-1-3h-3l-2-1l-2 1l-3-4l-2-2l-1-4v-3v-1v-2l1 1l2 2l-1 3l1 3l2 1l2 1h1l1 2h4h2l1 1h1l1 2l1 1l2 3l-1 1l1 1h3h2h2l1 1h2l2 3l-12-73l-35-17l-9-5l-2 3h-1l-5 4l-1-1h-1l4 6l-3 3l-2 2l-2 2v1l-1 1l-2 3l-1 4l1 1v2l2 3l1-1l1 2l-4 4h-1z"/><path id="03741" d="m219 1043l-2 4l5 3l21 10l3-2l3-1v2v3l45 21l7-12l19 4l2 1h1l36 11l4-11l-6-3l3-5l-6-3l3-5l-3-2l3-5l-3-2l3-8h-1l7-13l3-5l1-2h-1l1-4l-1-1l-21-6l-19-5l-10-4l-11-4h-1l-7-3l-24-8l-17-6v1l-1 1v1v2l-1 2l-1 2l-1 3l2 3z"/><path id="03743" d="m78 1257l-1 3l1 8v1l1 1l5 4h2h4l1 1v1l-3 3l-2 3l-1 1l-3 6l30 2l-3 19h3l2 2l1 1v-2l2 2v2l-1 3l1 1v2l-1 2v1l1 2v1l2 2h-1l-1 2h2l1 3l1 1v3h2h3l2-1l1 1l1-1h3l2 2l5 1l1-1l2-1l2-1v-3l1-1l-1-5v-2v-1l1-1l1-1l1-1h2l1-2l3 2h2l2 1l1 1l1-1l1-3l-1-3l1-4h6v2l-1 1h16l-1-5v-11l-18-6h-5l-1-70l-67-3l-2-1l-2 11v3l-1 5l-1 9l-1 2l-3 3l-1 1v1z"/><path id="03748" d="m205 1072l-14 31l20 8l35 16l-7 11l6 3l10 4l-6 10h-1l1-2h-1h-3l-1 1v1l1 1h2l1 1l-4 6l9 2l2-1v-1v-2l-1-1l1-2v-1v-1l-1-2h1v-2h2l1-2l3-1l1-2v-2l2-1l3 1v-1l3-3l1-1l1-3v-1v-1v-1h-4l-1-7l27-44l-45-21v-3v-2l-3 1l-3 2l-21-10l-5-3l-4 7v1l-1 1l-1 1h2l2 1l1 2v4v1l3 1l-1 2l-3-2l-1-2l-2-2l1-1l-3-2l-1 3l-4 9z"/><path id="03755" d="m195 1036l-1 4l12 4l-1-6l-5-11l-2-1zm-57-14h2l1 1l10 3l5 1v1l-1 4l1-1l1 2v2l-1 1v1h1h3l-1-2l-1-7l5 2l19 6v-3l-1-5v-4l-1-2h1l2-1l-4-8l-1-3l-1-2h-1l-2 2l-2 1h-1l-2-1l-4-2h-1l1-2l3-4h1l2 1l3 1v1l2-3l2-3l1-3l1-2v-2l-1-3l5 2l1-2h2l1-2l1-1h1l4 3l1 1l3 1l2 2l1-3l2-2l2-3l1-3l2-1h1l1 2l4 1l1 1l2 2l-1 2l-5 6l-1 3v1l-2 3l1 3l-2 4l-1 1l2 2v1v5l-2 1v2l1 2l1 5l1 3l-1 3v3v1l1 2l1 3v2l7 2l2-4l35-46l-2-3l1-3l1-2l1-2v-2v-1l1-1v-1l-63-20h-1l-1 1l-2 2l-3 1h-1l-1 2l-1 3l-1 1l-5 7l-6 4l-11 7h-4l-2 5l-2 2h-1l-1 2l-1 1l-1 3l-3 4l-2 2l-2 2l-1 1v1l-1 1l-1 5z"/><path id="03766" d="m141 1091l-2 3l15 3l13 2l24 4l14-31v-1l4-9l1-3l3 2l-1 1l2 2l1 2l3 2l1-2l-3-1v-1v-4l-1-2l-2-1h-2l1-1l1-1v-1l4-7l-7-2l-4-1l-12-4l-12-4l-19-6l-5-2l1 7l1 2h-3h-1v-1l1-1v-2l-1-2l-1 1l1-4v-1l-5-1v2l-7 9l-2 4h-1l5 4l3 13h1v1l1 2l1 1l-3 3l-2 1l-2 2l-2 1v2l2 3l2 5l-6 11z"/><path id="03773" d="m157 1188l-1 12l1 24l1 70h5l18 6v11l1 5h-16l1-1v-2h-6l-1 4l1 3l-1 3h3v1h-1l1 6l1 3v2l-1 1l-1 2l-2 2l2 1h-2l-2 3l1 4l1-1l6 1l2 1l1 3l3-1h3l-1-10l-1-1h-1v1h-1h-1l-2 1h-1l-1-1l1-1h1v-1h1v1h2l3-1l43-7l-3-21l2 1l2-5l4 1l4-12l9 1v-2l1-33l-1-1h-1l-1-1l3-1v-13l1-6v-1v-3l1-7v-1l-2-2l-4-2h-1v-1l1-2v-1l1-2v-1l1-2l1-2l1-1l1-2l1-2l2-1h1l-1-3l2-3v-2v-1l1-1l1-7l-14-6l-4 6l-39-15l-7-3h-1l-8 15l-9-4v2l-5-1z"/><path id="03774" d="m275 703v2l1 7l1 1l1 2h2h1v-1v-2l1-2l1-1l2 1l2 1l1 1v1v1v4l-1 1l-1 1l-1 1h-2h-2v1v1l1 1l2 1l3 1l1 2v1l-1 1h-1h-1h-1l-1-1l-1-1h-1l-2 1l-2 1h-1v1l1 1l1 1l1 2l-1 1l-2 2l2 2v2l-1 3l-1 4l-1 4h1h1v1h1l4 2v2l2 1v1l-2 1h-1l1 1l1 1l2 1l3-2l2-1l1-2l1-4h1h2l3-11l3-1v-1h1h1h1v-1h-2l-1-2h2h3l1-1l9 4l6-3l-1-8l1 8l8-5l1 1l2 2l1 1v1l-5 17h3l4-5l-1-1v-4v-2l1-1l2-1l2-3h1l9-26l-3-2h-1l-1-2l-1-1l-1-1v-2l-2-1l-2-1l-3 1l1-1h3v-2l-1-3l-1-1l-1 3l-1 2l-1-1v1l-1 1l-1 2l-3 1l-1-1l-1 1h-2l-2 1l-2-2l1-2l1-3l-6-2l-2 2l-1 1l-5-2h-2l1-2l2-4l2-3l-3-2l-4-3l-2-2l-2 10l-11-1h-4l-1 2l-2 3l-1 3v-2l1-1l2-4l1-4v-2v-3l-1-3l-1-2l-1-3v-1h-1l-1-1l1-3h-1l-1 2v7l1 4l2 3l2 1l-2 6h-1l-1-1l-3 1l-3 3z"/><path id="03781" d="m88 1152l61 6l-2-2l-2-2v-2l1-3l-2-3v1l-1-1l-2-2l-1-1h3h2v-1l7-8h4l1-1v-1l1-1v-1l1-3h1h-1l1 2l3 3l1-1l2-3l4-4h2l2-2h1l-1 6v1v2l2 2l1 2h-1l-2 1l-2 3l-4-4l-1-1l-1 1l2 1v1v2l2 1l-1 1l1 3l-1 1l-2 1l-1 2l-1 3v1h8l1 3h1l5 3l-3 5l2 1l-1 1l3 1v1l-1 3h1l-1 2l7 3l6-8l7-11l1-27l10-18l-20-8l-24-4l-13-2l-15-3l-15-3l-1 1l-10 9l-7 3l-5 3l-4 4l-2 8v1l1 5l1 11l-2 4l-3 6h-1h-2l-1 3v2z"/><path id="03784" d="m122 1077v3l1 4l1 1l1 1v1l1 2l-1 2h-1l15 3l2-3v-1l6-11l-2-5l-2-3v-2l2-1l2-2l2-1l3-3l-1-1l-1-2v-1h-1l-3-13l-5-4h1l2-4l7-9v-2l-10-3l-1-1h-2l-1 6v1l1 1l1 2v3l-1 4l-1 2l-2 5l-1 1l-1 2v2v2l-1 1l1 2v3l-1 1l-4 2l-2 2l-1 1h-1l1 2l1 1l-1 3l-2 2z"/><path id="03785" d="m295 667l-1 3l4 4l2 1l2-2v-2l-1-2v-2v-2v-2l-1-1l-1 1l-1-1l-1 3zm-16-70v1v1l1 2h1zm-10 42l-1 5l3 4l2 4l3 9v1l2 1l1 2v1l1-1h1v1v2v1h2l1 1h-1l-1 1h1l-1 3l1 1h1v1l1 3l1 2l1 3v3v2l-1 4l-2 4l-1 1v2l1-3l2-3l1-2h4l11 1l2-10l2 2l4 3l3 2l-2 3l-2 4l-1 2h2l5 2l1-1l2-2l6 2l-1 3l-1 2l2 2l2-1h2l1-1l1 1l3-1l1-2l1-1v-1l1 1l1-2l1-3l1 1l1 3v2h-3l-1 1l3-1l2 1l2 1v2l1 1l1 1l1 2h1l3 2l-9 26l-9 30v2l2 2l-1 1l-1-1h-2l1 2v1v1l1 1v1h2l2 2h1h1l2 1l2 1v2l3 1h1v1l1 1h3v1l1 2h1l4 2h1l2 2l17 2l26 4l1-3l2-5v-5l14-58l-1-1l-2 1l-3-1l-2-2l-2-2l-3-1l-1-1l-4-3l-2-2l-2-2l-3-2h-3h-2h-1l-3-1l-1-1v-3l-1-1l-2-2h-1l-3-3h-2h-1l1 2l1 1l-1 2h-2h-1h-2l-3-1h-2h-1l-3-1l-2-2l-2-1l-1-2h-1l-2-1h-1l-2-3h-2l-1-1h-2h-2h-3l-1-1l1-1l-2-3l-1-1l-1-2h-1l-1-1h-2h-4l-1-2h-1l-2-1l-2-1l-1-3l1-3l-2-2l-1-1v2v1v3l1 4l2 2l3 4l2-1l2 1h3l1 3v1v2l-1 2l-1 1l-1-1v-1v-3v-2l-3-1l1 2v2l1 1l-1 1l-1-1v-2v-3l-43-20l1-3h-1l-2-4l-1-1l-2-2v-1l1-2l-2-3l-1-3v-5l2-3h1l4-4l-1-2l-1 1l-2-3v-2l-1-1l1-4l2-3l-1 1l-3-3l1-7l1-7l2-3v-1l-1-2l-1-1v3l-1 1v5l-1 2l-1 1v1v4v3h-1l-3 7v2l-1 3v1l-2 1z"/><path id="03801" d="m919 1482l-2 2l3 4l3 4l3 1l3 2l3 1l9 2h2v-1l2-1h2l4-1l1 8l3 24l5 3l11 2l22-32l3-2l-1-4v-1l2-1l1 1h1h1v-1l-1-1h-3l-1-1l-1-1l1-2l-2-2l-1-1l-7-2h-1l-3-7l-2-2l-1-1l-6-2l-3-3l-3-3l-2-2l-8-7l-6-5l-3 4h-3h-2l-2-1l-2-2l-1-2l-2-1l-2-1h-3l-2 1l-1 1l-1 1v2l2 3v1l-1 3v2v5v3v2l-1 5l-1 1l-2 2z"/><path id="03809" d="m697 1208h-3l7 5h1l4 3l-1 3l-2 1l-5 8l15 11l2 2l7 5l8 5v1l14 9l1 1l2 2l3 2l1-1l1 2l4 3l8 6l-1-7l-9-57l-2-14l-2-14h1l-3-18l-2-8v-1l1-1l7-8l4-6l4-5l-19-14v1h-1v4l-2 2l-1-1l-2 2l1 1l-2-1l-4-2v2h-1l-3-2l-2 1l1 2v2v1v2l2 2l-1 3h-1l-2 1v1v1l-1 1l1 1l2 1l-1 2v1h-1h-1l-1-1v-2h-1h-2v1v3l3 2v3l-1 1v3l-2 1l-2 2v2v1v3l1 1v2v2l2 1l1 2v2l1 1v-3l-2-3h1l2 3l1 6v2l-1 2v1h-1l-1-1l-1-2l-1-1l2 3l1 2v1l-10 5l-5 5l2 1v1l2 3h1v1h-3l-5 1v-1h-2v-1l-3-1l1 2l-2 1z"/><path id="03812" d="m624 627l-6 1l7 33l15 9l5 28l1 11l-3 5l8 22h11l-2 4l-14 26l-4 5l34-1l77 2l13-2l-1-6h-2l-1-1l-2-1v-1v-2l-2 1h-1l-2-1l-1-1l-1-2l-1-2l-2-6l12-2l-2-16h4l1-1l2 1v-1l1-1l-2-2l-1-3h-2v-1v-2v-1l-1-2h-1l-3-3l1-1l1-1l-1-1l-1-1h-2h-1l-2 1l-1-1h-1l-2 2h-1l-3-1l-3-1h1v1v3l-1 1l-1 1l1 1l-3 3l1-1l-1-1l-1 1l-2 1v1h-1l-2-2l-3 1l-1 1h-3h-2h-2l-1 1l-3 1l-1 1h-2h-1v2h-1h-2h-1l-1-1l-3 2h-1h-4l-1 1l-1-1v-2l-3-1l-1 1l-3-2l-2 1l-2-2l-1 1l-1-1l-1-1v-1l-2-1v-2l-2-1v3h-7l-6 4l-5-5l1-23l-8-33l-15-10l-6-27z"/><path id="03813" d="m792 755h-1l4 20h-1l1 3l2 2l5 4h1h2l-2 1v1v3v1l1 2v1l-2 2v2h-1l-2-1l-3 1l-1 2v3h1l1-1l1 2l2 2v6l1 2l3 6h1v-3h1h16l2 29h12l-1-2l3-2h1l1 1h3l2-1l3 1h3h4l-1-23l-2-62l-1-39l-4-116v-10v-1l-1-7v-13l-19 1v7h1v29h-15l-15 1v58l1 62h7v2h27l-2 1l-1 1l-1 1l-1 1l-1 1l-1 1v1l-1 1l-1 1h-1l-1 1l-1 3h-1l-9 7l-9 6h-3h-3h-2h-1z"/><path id="03814" d="m708 944l-10 15l14 3h3l2 1l6 13l1 2l14 30l14-4l1-1l9-7l1-2l2 2l1-3l1-2l3-2l1 1l1 1v-1l-1-3l18 1v-1l1 2l1-1l-11-9v-1l3-4l8-10l1-1l15-21h-1l-1-1l-2-4l-1-1l-1-1h-2h-1h-1h-1v5v3l-1 1l-1 2h-1l-1 1v1l-1 2v1v1h-1h-2l-8-2l-5-2h-2l-1-2l-1-3l-1-4l-1-2l-2-2l-3-1l-2-1l-1 1h-2v-1v-4v-1l-7 5l-5-6l-2-2h1l1-3h1l-1-2v-1l-1-2l-3 2l-3 1l1 2v1l3 3l1 1l-2 1l2 3h2v1v2h-1l2 1l-1 1v1l1 1l2 3l1 2l1 2l2 1v1l-3 2v3l-1 1l-4-3h-2l-2 1h-1l-2-1h-3l-5-26l-13 6z"/><path id="03818" d="m791 793v1h1h2v-1zm-149-22l2 19l1 4v2l7 50l1-1h2v1l2 1v2h1l-1 3v2h-1l-1 1l4 3l15-2l-1-3v-5l7-1l1 8l12-2h4l32-6l6-1l7-9l1-1l5-5l7-9l1-1h1l2-1l3 1l6-2l1 1v-1h1l2-3v2l-1 2v2l1-2l1 1l1 1l6-6h6l1 3l-1 2l1 5l-1 3l2 2l2 1v1v13h6l10-1v-15v-1l-1-10h-1l-3-6l-1-2v-6l-2-2l-1-2l-1 1h-1v-3h-1l1-3l-4-1v3l-2 2l-2 1l-1-2l1-1h2l1-1v-1v-2l-2 1h-1l-1-2v-1h1v-1h3v-1l-1-1l-2-2v-1l1-1v-3v-1h-1v-1l-2-4l-1-3l-1-3h-1l-1-1h1l1-1l-4-3v-2h-2l-2-3l-1 1l1 1l2 4l1 1l1 2l1 3l1 2l-2 6v3l1 2l1 2v2l-1 2l-2 2h-3h-2l-1 1h-1l-5-24l-13 2l-77-2z"/><path id="03820" d="m867 1388l2 2l4 1l4 3l2 1l2-2l2-1l-1 1h1l1 1l3 3l4 5l7 8l-2 2l-1 1v2l3 1l1 1h1h3h2l1 2l1 1l2 2l3 3l3 3l10 10v3v1l6 3h1l2 2l1 1l2 1l1 2l2 2l2 1h2h3l3-4l-4-3l-1-1v-3l-1-4l-1-4l-1-3l3-8v-6v-2l1-3h1l1-1v-1l-1-3l-2-6v-1l1-1h1l1-1h1l1-1v-2v-1l-5 1l-2-1v-1h-2l-1-1v-1v-1v-1l-1-2v1v-1l-3 1l-2 1l-6-1v-1h-1l-3-1l-1-1l-1-1v-1l-1-1l-6-7l-2-1v-1h-1v-1l-21-22l-3 5l-3 6l-6 8v1l-2 2l-4 6l-1 2l-2 4z"/><path id="03824" d="m869 1441l-7 40l18-5h1h2h1l2-1h1h1l22 4l1 1l8 2l4-3l2-2l1-1l1-5v-2v-3v-5v-2l1-3v-1l-2-3v-2l1-1l1-1l2-1h3l2 1l-1-1l-2-2h-1l-6-3l-19-10l-2-1h-1l-30-11l-3 18z"/><path id="03833" d="m803 1569v4h6h2h8h13h6h4h1h2h3h3h1l1 1h2v2l-1 1h3h1l2-3l1 1v9l2 11v3l1 6v14l14-2l19 2l-1-6v-10l-2-14l-2-15v-1l8-4l5-1l1-1l3-1l4-1l-11-7l-8-6h-1l-2-2l-2-2h-1l-2-2h-1v-1l-1-1v-1l1-1v-1l-1 1l-1-1v-1h1h1v-2l-1-2l1-3l2-2l1-1v-2v-1h-5h-2l-1 2l-6-4l-30-7l1 10h-20h-14h-6v1v2v2l-1 2h3l-3 27v3v3v1z"/><path id="03835" d="m765 1274l-1 2l49 42l2-4l7-7l34-45v-1l-4-2l-31-24l-1 1l-11-10l-1 1l-3-3l-2 2l-32 41l-2 1z"/><path id="03839" d="m841 1341h-1l6 5l1 1l-2 4v2l1 1l1 1l1 1l1 2h2h1l3-3v-1l1 1l4 3l3 3l14 12l2-2v-1h-1l1-2h1v-1l-1-2v-1v-1l-1-1l1-2l-1 1l-1-2h1l-3-2l2-4l-2-2l-1-2l-3-7h2l2-1l-6-7l-1-1l-2-1l-5-2l-1-1l-4-7l-1-2l-1 1l-2 2l-2 2l-3 3l-2 1v1l-2 4v1l-1 4z"/><path id="03842" d="m906 1566l-1 1l2 2l1 3l1 1l3 1l1 2l2 2v1l1 1l1 1l1 1l1 1l-1 2l2 5h1h1v1l1-1l1 2l2 1l1 1h2v1h1v2l1 1l1 1v-1l1 1l2-1h1l-2 1l1 1l-1 4h2l-1 2l1 1l2-2h1v2v1h3l6 4l1 2l-1 5l2 2l1 1v-1l1-2h3v-7v-2l1-3l1-3h2l5-1l-2-2l-1-2l1-5l2-7l2-2l2-1v-3l1-2l1-1h-1h-1l-1-1h-1l-24-4l-12-4h-2l-7-3l-8-2l-4 1z"/><path id="03845" d="m778 734l-1-1l3 5l6 4h1h-1l-1-2v-1v-1l-1-1h-1h-1l-2-1zm-20-47l2 6v1l2 4v1l2 2l3 7l-3-1l3 3l1 1l-1 1l-2 2l-2 1h-2l2 3l1 1l-1 1v-1v1v2v1h2l1 3l2 2l-1 1v1l-2-1l-1 1h9h2l4 1h3h3h2h8h1h1h1h8v-2h-7l-1-62v1h-1l-2 1l-3 3l-1 1l-2 4l1 1v3l-1 2l-1 2h-2l-2 2l-1-1l-2 1v-1h-2v1l2 1h1l-1 2l1 1l-1 1h-10h-8v-4z"/><path id="03847" d="m779 731h1v3l2 2v1h1h1l1 1v1v1l1 2h1h2l1-1v-1l-2-3v-1h-1l1-1h2h4l3 2h4l1-1l-1-1h2l1-1l-2 1l-1-1l-3-2v-1h-1h-1l-2 3l-2-1h-2v1l-3 1v1h-1l1-3v-2h-2h-3z"/><path id="03850" d="m671 1025v1l1 2l2 2l2 1l3-1h1l3 1l1-1l4-1h2l1 1h1h1l2 1l1 1h3l2-2h2l2 1l-1-2l-1-1l-4-3l-2-4l-2-2h-2l-1-1h-2h-1l3-2v-2v-2l-1-1l-1-1l1-2v-1l-4-2h-1l-14 18z"/><path id="03851" d="m806 1223l-1 1l3 3l1-1l11 10l1-1l31 24l4 2v1l2-2l1-1v-1v-1v-3v-2l-1-2v-1v-2l3-1v-2v-1l-2-2v-1v-2l-1-2v-3v-1l1-1v-1h1l1-2l2-2l1-1h1l2-2l2-3l-1-2v-2l1-1h1l1-4l-2-2l-1-1l-1-2l1-2v-2l1-2l1-2h-2l-3-2l1-1l-1-1h-1v-2l-2-1l-1-3h-1v-2h-1h-1v-1l-2-1l-2-1h-1v-1h-1v-1l1-1l1 1v-2v-1l1-1v-2l-2-2l-1-5v-5v-2l-14 19l-6 7l-6 8l-5 7l-2 3l-3 3l-2 3l-7 8z"/><path id="03852" d="m852 1181v1h1v1h1l2 1l2 1v1h1h1v2h1l1 3l2 1v2h1l1 1l-1 1l3 2h2l-1 2l-1 2v2l-1 2l1 2l1 1l2 2l-1 4l3-2v-1l-1-2l-2-4l-1-2l1-2l1-3l2-7l-1-2l-1-3h-1h-3l-1-1l-1-2l3-2l1-1v-1l-1-1v-2l2-4l2-4l2-2v-6l2-2v-1l-1-1l1-4v-3l-1-1v-1v-3l-1-2l-2-2l-1-1v-1v-1l1-2l-4 4l-16 21v2v5l1 5l2 2v2l-1 1v1v2l-1-1z"/><path id="03856" d="m844 1503v14l30 7l6 4l1-2h2h5l-1-1v-2v-2l-1-3v-1l1-1l1-1l3-3l1-1l4-1v-1l3-6l-12 1v1h-4l-17-1h-1l-1 1l1 2l-7-1l1-2z"/><path id="03857" d="m843 1490v5l1 1v2v5l15 1l-1 2l7 1l-1-2l1-1h1l17 1h4v-1l12-1l1-2l2-4l1-1l4-2l2-2l8-8l2-2l-8-2l-1-1l-22-4h-1h-1l-2 1h-1h-2h-1l-18 5h-18v8z"/><path id="03860" d="m786 736h1v-1l3-1v-1h2l2 1l2-3h-1h-8v2zm-6-8v1h1h1v-1h-1zm-20-1v1l1 1h1v-1zm-10 21l2 6l1 2l1 2l1 1l2 1h1l2-1v2v1l2 1l1 1h2l1 6l5 24h1l1-1h2h3l2-2l1-2v-2l-1-2l-1-2v-3l2-6l-1-2l-1-3l-1-2l-1-1l-2-4l-1-1l1-1l2 3h2v2l4 3l-1 1h-1l1 1h1l1 3l1 3l2 4v1h1v1v3l-1 1v1l2 2l1 1v1h-3v1h-1v1l1 2h1l2-1v2v1l-1 1h-2l-1 1l1 2l2-1l2-2v-3l4 1l-1 3h1l1-2l3-1l2 1h1v-2l2-2v-1l-1-2v-1v-3v-1l2-1h-2h-1l-5-4l-2-2l-1-3h1l-4-20h1l1 2h1h2h3h3l9-6l9-7h1l1-3l1-1h1l1-1l1-1v-1l1-1l1-1l1-1l1-1l1-1l2-1h-27h-8v1l3 2l1 1l2-1l-1 1h-2l1 1l-1 1h-4l-3-2h-4h-2l-1 1h1v1l2 3v1l-1 1h-2h-1l-6-4l-3-5l1 1l2 2l2 1v-1l-2-2v-3h-1l-4-1h-2h-9h-4l2 16z"/><path id="03867" d="m894 1301v2h1l-1-2zm-81 17l2 2l7 5l4 4l14 12h1l1-2l1-4v-1l2-4v-1l2-1l3-3l2-2l2-2l1-1l1 2l4 7l1 1l5 2l2 1l1 1l6 7l-2 1h-2l3 7l1 2l2 2l-2 4l3 2h-1l1 2l1-1l-1 2l1 1v1v1l1 2v1h-1l-1 2h1l6-8l3-6l3-5l5-8l3-5l4-6l-2 1h-2l-2-1l-9-8l-1-1l-4-1v-4h1l9-1l-2-6l-2-3l-8-6l-1-1l-4-3l-2 1h-2l-4-4l-2-1l-2 1l1 3v5l-1 1v-2h-1l-3-4l2-1h-1h-2l1-3v-2v-4l3 3v-4l-1-8l-1-10l-1-3v2l-1 4v1l-1-7v-1l-2-3l-34 45l-7 7z"/><path id="03868" d="m856 1262l2 3v1l1 7v-1l1-4v-2l1 3l1 10l1 8v4l-3-3v4v2l-1 3h2h1l-2 1l3 4h1v2l1-1v-5l-1-3l2-1l2 1l4 4h2l2-1l4 3l1 1l8 6l2 3l2 6l-9 1h-1v4l4 1l1 1l9 8l2 1h2l2-1l2-2l1-2l1-1h-1l1-3l1-1h-1l-1 1h-3l-1-2l2-2l1-2l1-2l-1-2l-1-1l-2 1l-1-2l-2-1l1-1l-1-8h-1h-1l-4-3l-4-4v-1l-1-3v-1l-2-1l-2 1l-6 1l-1 1l-2-1v-1l-1-1v-1l-1-1l-2-1l-1-1l-1-1l-4-10v-4l-1-3l-3-5l-1-2v-1l-1-1v1l-1 1z"/><path id="03872" d="m826 1071l1 1h2v-1zm-43 39l-2 2l2 10l7 40l3-4l3 4l2-4l2 3l2-4l3 5l9-16l3 3l3-3l3 2l3-4l1 4l4-4l4 23l1 1l1 1v-1l-1-1l-1-2l1-10l1-5l1-2v3l2-1h1l1 1l3-3l1 7l1 1l1 1l4 4l16-21l4-4h2l1-1l1 1h1v-3l1-5v-1h-1l-1-1l-1-4v-1l-3-2l-3-4h-1l-2-1v-17h-4h-2l-3 1l-1 2h-2l-2-1l-1 1l-1-1l2-1v-2v-2l-2-1l-1-1l-1 1l-3 1v1v2l1 2h-4h-2l-2-1l-4-5l-1-1l-2-4v-2l-1-3l-5-15h2v1l2-1l-1-2v-1l1 1l3 1l1 2l2 1l1-2v1l1 1h1v-1l1-2l-1-1h1l1 1h1l1 2l5-2l6-1l3 1h2v1l1-1v-2l-1-1l1-2l-5-2l-3-2l-3-2l-3-2h-4v-2v-3l1-1v-3l-2-3l-1-2v-1l1-2l-1 1l-20 26l-9 11l-2 3l-3 3l-11 15l-1 1z"/><path id="03874" d="m896 1612l1 6v1v1l1 7h6l10 3l20 16l6-3l4-3l5-2h2l1-5v-5l1-2l2-3v-4h-3l-1 2v1l-1-1l-2-2l-5-1v3h1l1 2v2l-3-2v-2l-2-2l-1-3l-1 1l-1-1l-1 1l-1-1v-1h-1l1 1h-1h-1v-1l-2-1l-3-1l-4 1h-1l-2 1l-4-1h-6h-1l-1-1l-1 1h-2v1h-1h-1l-4-1v-2h-1h-2z"/><path id="03878" d="m896 1343l-5 8l21 22v1h1v1l3-1v-1l4-2l2 3l2-1h2v-3v-3h1l4-3l4-2v-1l4-2l-1-3v-1h1v-1l-2-2l-5-2l-1 1l-2-1l-1-1v-1l-1-3l-1-1l-1-1h-2h-1v-1l-1-1v-1l-1-2h-1h-3l-1-1v-3l-1-1l-1-3l-2-1l-3-1l-1-1l-1 1l-1 2l-2 2l-4 6z"/><path id="03887" d="m793 1158l-3 4l13 64l2-2l1-1l1-4l7-8l2-3l3-3l2-3l5-7l6-8l6-7l14-19l-4-4l-1-1l-1-1l-1-7l-3 3l-1-1h-1l-2 1v-3l-1 2l-1 5l-1 10l1 2l1 1v1l-1-1l-1-1l-4-23l-4 4l-1-4l-3 4l-3-2l-3 3l-3-3l-9 16l-3-5l-2 4l-2-3l-2 4z"/><path id="03894" d="m697 1100h-1l14 13l17 5l10 11l3-2l2-5l1 1l19 14l6-6l-1-1h2l12-18l2-2l10-13l1-1l11-15l3-3l2-3l9-11l-7-5h-1l-17-14l-7-5l-2 2h-2l-9-7l-6-4l-6 9l-10-6l-2-2h-1l-5 8l-1 1l-2 2l-16 22l-4-2h-2l3-3h-3l-1-1l-2 2l2 1l-1 1l-1 1h-1l-1 1h1l2 2h1l-3 3v1l-2 3l-1 3l-1 1h-1h-1v2v1v2l-1 2l-2 4v2l1 2l-1 2v1l-3 1l-3 1l-2 1z"/></svg>
