<?xml version="1.0" encoding="UTF-8"?>
<!DOCTYPE svg PUBLIC '-//W3C//DTD SVG 1.1//EN' 'http://www.w3.org/Graphics/SVG/1.1/DTD/svg11.dtd'>
<svg viewBox="0 0 1000 1907.95" xmlns="http://www.w3.org/2000/svg">
  <g data-id="001">
    <path d="m388.88 1404.03l-44.061 49.436l77.623 70.715l-0.461 2.552l2.181 4.12l0.675 24.637l-7.758 34.839l2.172 11.692l21.86 14.386l24.32 -1.584l19.337 9.553l19.554 -2.823l12.022 7.21l24.176 -6.336l4.96 6.766l6.575 -5.581l13.259 1.915l17.593 -12.842l11.971 8.384l16.559 -0.899l11.637 -10.389l37.165 -24.216l28.339 -12.267l2.675 -3.304l0.868 -6.869l0.06 -2.796l23.836 -19.033l19.324 -23.302l3.905 -6.547l14.383 -24.122l1.296 -5.826l-1.557 -3.119l-2.141 -0.778l-3.209 -7.724l0.743 -4.665l-8.364 -5.029l-32.669 6.065l-21.972 -45.705l-12.582 4.627l1.339 7.823l-6.366 -13.856l-4.037 8.167l-13.339 -2.248l-24.831 -17.671l-6.969 3.241l-8.411 -7.111l-6.555 -14.835l-13.322 -0.182l-7.786 -10.447l-19.398 -11.604l-19.194 0.081l-3.44 -3.425l-1.051 -29.488l-3.441 -9.744l-5.814 -7.699l-28.794 -24.117l-7.421 -6.02l-38.346 42.849l-35.474 39.693l-10.859 12.163l-20.786 23.288z" />
  </g>
  <g data-id="003">
    <path d="m773.853 268.371l0.435 3.841l12.849 19.182l14.408 8.583l7.565 0.903l24.49 2.466l0.52 -5.438l17.547 13.961l-3.282 14.441l-0.935 5.198l4.996 14.299l4.45 0.969l-0.292 20.143l2.607 2.336l-1.12 6.744l7.366 7.046l6.362 10.757l-8.009 3.941l-0.518 19.206l-5.003 11.202l-5.739 11.525l0.895 5.205l-5.67 9.798l10.308 7.078l17.625 1.209l6.133 11.142l8.426 -26.669l19.11 -9.465l16.272 -12.523l2.431 0.224l1.437 1.762l-0.02 2.496l-0.558 1.326l8.427 5.983l8.691 7.654l7.564 -13.883l0.708 -1.3l1.18 -2.167l2.942 -4.919l5.523 -16.744l3.423 -8.254l6.08 -12.848l2.851 -5.951l2.642 -5.956l5.584 -18.984l0.78 -3.177l0.435 -1.605l1.261 -4.291l4.983 -21.14l1.419 -5.255l3.595 -13.312l1.47 -5.444l1.501 -12.328l-5.224 -0.08l-1.399 -0.234l-1.227 -0.704l-2.897 -2.244l-28.238 -16.742l-49.311 -29.25l-30.881 -18.165l-2.582 -1.513l-51.394 -30.116l-7.773 -4.218l-9.626 -5.224l-23.467 57.858l-12.128 31.667z" />
  </g>
  <g data-id="005">
    <path d="m300.544 1080.54l13.606 -2.797l3.345 2.231l12.264 10.373l-5.343 9.841l0.992 6.313l2.706 2.152l-1.841 4.836l0.647 2.851l6.563 4.188l5.836 1.644l11.633 0.669l-6.321 6.327l0.922 2.408l12.652 5.538l3.397 4.646l15.951 22.254l17.037 74.175l15.72 7.486l19.798 -6.61l14.282 1.499l17.228 13.045l11.187 16.297l21.538 16.131l7.421 6.02l27.897 23.139l6.711 8.677l3.441 9.744l1.051 29.488l3.44 3.425l19.194 -0.081l19.398 11.604l7.786 10.447l13.322 0.182l6.555 14.835l8.411 7.111l6.969 -3.241l24.831 17.671l13.339 2.248l4.037 -8.167l6.366 13.856l-1.339 -7.823l12.582 -4.627l-0.865 -8.822l12.435 -6.225l4.635 -15.161l0.415 -138.277l-26.726 -63.993l-37.6 -92.348l-5.739 -14.232l-28.034 -68.87l-20.851 -46.411l-8.756 1.004l-12.586 -4.504l-23.199 -17.453l-9.178 -1.845l1.587 -5.038l-21.272 -5.966l2.299 15.313l-9.741 8.927l-1.087 2.685l-0.816 1.19l-8.971 8.077l-1.381 0.628l-1.801 0.157l-5.643 -0.393l-2.148 0.529l-2.391 1.174l-3.977 2.667l-7.575 6.544l-1.801 0.393l-2.161 -0.079l-7.145 -1.884l-7.325 -3.219l-1.719 -0.45l-2.004 -0.021l-1.981 0.628l-2.161 2.198l-1.502 2.826l-2.642 6.752l-1.381 6.123l-1.741 2.355l-3.242 2.512l-4.623 2.198l-1.982 1.413l-1.261 1.413l-0.533 1.025l-1.448 3.996l-2.401 2.119l-9.846 2.668l-4.563 2.354l-12.728 4.394l-1.742 0.235l-5.343 -0.941l-2.702 0.314l-4.143 1.804l-7.325 4.079l-17.956 11.226l-5.759 4.854l-3.603 4.235l-10.807 11.134l-1.922 1.411l-2.642 1.411l-8.669 3.091l-5.62 2.004l-4.422 3.074l-2.723 3.589l-4.683 9.405z" />
  </g>
  <g data-id="007">
    <path d="m255.875 1155.95l-3.954 6.063l12.705 20.109l21.006 17.407l-2.941 20.392l7.795 7.39l1.08 1.38l-0.647 1.406l-0.526 1.53l0.62 1.495l0.246 1.839l1.237 0.564l1.159 0.664l-9.954 10.955l14.422 -4.911l8.239 5.769l2.959 12.756l13.351 12.3l-1.257 12.348l15.473 8.881l6.561 9.759l26.341 6.508l9.932 8.505l10.971 17.285l3.683 26.061l15.288 18.337l10.859 -12.163l35.474 -39.693l38.346 -42.849l-21.538 -16.131l-11.187 -16.297l-17.228 -13.045l-14.282 -1.499l-19.798 6.61l-15.72 -7.486l-17.037 -74.175l-15.951 -22.254l-3.397 -4.646l-12.652 -5.538l-0.922 -2.408l6.321 -6.327l-11.633 -0.669l-5.836 -1.644l-6.563 -4.188l-0.647 -2.851l1.841 -4.836l-2.706 -2.152l-0.992 -6.313l5.343 -9.841l-12.264 -10.373l-3.345 -2.231l-14.193 3.498l-7.218 8.624l-9.967 4.231l-3.062 0.626l-8.299 3.083l-7.012 3.967l-2.788 2.031l-1.835 1.337l-1.921 1.88l-2.041 3.368l-0.301 1.304l-1.02 4.413l-0.24 10.336l0.14 1.092l0.521 4.076l1.254 4.236l1.688 3.826l1.321 4.07l-1.741 9.079l-1.561 3.13z" />
  </g>
  <g data-id="009">
    <path d="m352.79 1898.8l2.834 5.37l2.288 1.713l17.946 2.064l7.899 -0.476l8.023 -2.206l14.854 -7.537l7.092 -1.377l3.181 1.624l8.675 -10.112l18.848 -19.199l6.866 -5.056l9.122 -4.668l3.823 -6.274l4.55 -17.74l24.292 -39.932l19.476 -21.821l0.881 -3.807l-5.839 -5.241l-0.711 -1.75l0.588 -2.253l25.763 -46.449l12 -14.544l2.911 -10.401l6.177 -6.844l13.103 -18.467l9.942 -11.003l10.154 -9.281l12.038 -6.094l4.514 -6.39l1.374 -5.138l5.986 -5.343l-16.559 0.899l-11.971 -8.384l-17.593 12.842l-13.259 -1.915l-6.575 5.581l-4.96 -6.766l-24.176 6.336l-12.022 -7.21l-19.554 2.823l-19.337 -9.553l-24.32 1.584l-21.86 -14.386l-12.519 11.97l-8.548 56.874l-15.09 7.793l-2.899 12.389l6.851 24.37l5.857 2.02l10.815 12.483l0.752 11.766l-3.982 23.562l-3.144 11.12l-3.53 8.798l-20.806 40.401l-6.694 15.107l-3.538 11.107l-9.985 47.022z" />
  </g>
  <g data-id="011">
    <path d="m90.573 1524.38l-6.099 10.389l6.975 22.113l4.797 1.914l2.475 6.285l0.51 5.937l2.582 4.266l15.018 13.098l5.678 -4.996l8.158 -0.679l4.939 2.61l3.77 4.708l0.426 5.276l6.936 16.98l5.518 6.891l10.274 9.43l2.14 -2.06l1.629 -5.309l6.599 -3.868l11.901 3.203l4.472 11.026l0.886 3.976l-0.705 2.237l1.451 2.787l17.488 8.796l3.994 0.105l8.402 13.118l8.62 2.29l6.507 15.633l1.617 8.723l-2.628 6.791l10.174 9.729l8.848 6.284l5.762 -6.106l1.801 -7.593l7.849 -9.989l12.129 1.284l25.4 -3.425l6.564 -4.994l6.707 6.564l1.769 6.512l-1.646 8.654l16.917 1.834l13.05 -0.789l8.336 1.575l28.485 9.825l-6.851 -24.37l2.899 -12.389l15.09 -7.793l8.548 -56.874l12.519 -11.97l-2.172 -11.692l7.758 -34.839l-0.675 -24.637l-2.181 -4.12l0.461 -2.552l-77.623 -70.715l-45.978 -41.869l-7.566 18.83l-3.147 33.569l3.767 13.194l-6.243 21.093l-56.491 -49.56l-36.333 -29.566l-18.987 21.647l-28.794 30.502l-14.623 1.103l-15.512 26.555l-18.982 -4.504l-8.69 7.167l3.333 22.753z" />
  </g>
  <g data-id="013">
    <path d="m710.872 476.945l5.052 -2.146l5.762 5.012l-4.4 3.949l-4.12 8.055l27.702 17.877l13.252 3.079l3.789 -1.585l7.219 -5.516l17.51 6.918l20.456 4.813l5.39 5.172l2.236 7.999l28.133 0.868l15.421 12.009l14.358 -22.691l-2.564 -5.765l-2.359 -9.917l2.398 -11.269l-0.367 -1.991l-3.111 -1.952l-8.829 0.557l-3.12 1.662l-2.702 3.882l-5.103 0.713l-3.765 -1.986l-2.415 -9.557l3.395 -12.067l7.204 -12.932l0.478 -5.459l5.67 -9.798l-0.895 -5.205l5.739 -11.525l-31.607 -22.89l-9.132 -6.563l-4.397 -3.161l-21.069 -15.403l-3.895 -0.438l-10.513 -4.7l-3.85 -7.953l-33.268 -9.282l-6.15 33.348l3.904 13.742l0.416 8.527l-5.259 19.85l-17.495 16.063l-5.102 27.655z" />
  </g>
  <g data-id="015">
    <path d="m86.785 1229.69l5.792 4.316l-3.662 1.738l19.984 37.728l0.984 15.184l24.064 17.363l5.876 10.77l18.957 3.291l5.02 4.951l20.115 0.609l3.485 11.341l7.575 2.236l20.942 -4.222l82.925 76.603l45.978 41.869l44.061 -49.436l20.786 -23.288l-15.288 -18.337l-3.683 -26.061l-10.971 -17.285l-9.932 -8.505l-26.341 -6.508l-6.561 -9.759l-15.473 -8.881l1.257 -12.348l-13.351 -12.3l-2.959 -12.756l-8.239 -5.769l-14.422 4.911l9.954 -10.955l-1.159 -0.664l-1.124 -0.339l-0.31 -1.477l-1.01 -1.289l0.69 -1.718l0.606 -1.122l0.003 -1.461l-8.66 -8.198l2.941 -20.392l-21.006 -17.407l-12.705 -20.109l-1.45 1.605l-1.743 1.666l-3.24 1.23l-14.298 0.404l-5.096 0.144l-3.782 1.017l-3.603 2.895l-9.066 8.683l-6.364 3.755l-8.406 3.52l-5.046 1.577l-16.647 4.033l-13.338 0.515l-9.785 -1.092l-5.324 0.188l-2.816 0.099l-4.323 0.626l-6.803 2.291l-7.586 4.821l-10.467 9.62l-11.228 9.615l-7.926 6.096l-6.799 4.371z" />
  </g>
  <g data-id="017">
    <path d="m836.698 485.136l2.415 9.557l3.765 1.986l5.103 -0.713l2.702 -3.882l3.12 -1.662l8.829 -0.557l3.111 1.952l0.367 1.991l-2.398 11.269l2.359 9.917l2.564 5.765l-14.358 22.691l-3.49 5.485l-11.342 18.425l10.898 1.649l9.068 -1.387l10.912 -3.251l9.744 -0.18l4.167 -2.656l3.98 -9.059l5.197 2.039l4.442 -7.356l-4.487 -3.074l2.742 -13.793l11.854 0.447l3.857 -7.613l9.796 -7.38l1.831 -12.681l0.226 -1.562l0.805 -4.226l1.713 -8.998l1.885 -9.902l2.361 -4.743l0.943 -1.799l3.602 -6.608l5.078 -9.316l3.463 -6.354l2.015 -3.698l-8.168 -8.613l-8.427 -5.983l0.558 -1.326l-0.227 -1.706l-1.19 -2.552l-2.431 -0.224l-16.272 12.523l-19.11 9.465l-8.426 26.669l-6.133 -11.142l-17.625 -1.209l-10.308 -7.078l-0.478 5.459l-7.204 12.932l-3.395 12.067z" />
  </g>
  <g data-id="019">
    <path d="m218.835 618.405l0.641 2.714l1.017 1.58l3.371 3.834l2.153 1.622l4.709 1.864l4.021 0.699l3.445 0.012l2.657 -0.94l6.651 -6.217l3.279 -1.676l3.097 -0.362l11.681 1.992l3.836 2.008l6.351 2.26l2.777 2.695l10.325 12.726l5.936 4.798l0.815 2.085l0.513 2.411l0.788 8.202l-0.458 5.255l-0.089 6.933l0.436 4.765l1.742 10.258l0.262 4.205l-0.174 3.924l-1.261 3.628l-2.071 3.132l-0.165 3.353l0.449 2.86l-1.961 6.791l1.887 6.331l2.703 11.766l0.861 8.328l0.496 1.181l1.089 2.591l1.649 1.576l5.781 1.793l1.24 1.048l1.59 1.922l3.089 2.547l4.984 2.297l2.125 0.337l4.535 -0.933l8.327 -2.532l2.822 -1.769l1.365 -0.343l4.489 1.384l2.062 2.238l1.64 1.185l7.888 3.675l2.455 1.918l0.907 1.648l6.001 14.659l3.17 9.362l1.631 5.879l0.551 7.858l0.788 3.756l6.903 2.471l45.637 -5.726l-8.055 -24.487l40.622 -5.673l-3.875 -24.985l36.216 -5.908l-20.619 -50.209l-9.216 -21.924l13.125 9.437l20.004 -39.725l17.716 -23.715l-5.164 -13.282l11.436 -16.145l-14.313 -8.933l1.557 -11.431l-3.989 -14.941l8.782 -27.824l-5.073 -14.712l-44.162 -18.008l-15.554 -0.136l-39.588 -35.965l-22.48 26.285l-25.014 35.004l-8.682 3.976l-20.145 8.521l-36.18 24.769l-18.703 18.652l-22.543 8.777l-21.062 27.25l-5.632 2.026l0.134 1.014l-0.39 2.784l-2.317 3.872l-0.275 1.779z" />
  </g>
  <g data-id="021">
    <path d="m370.225 806.242l1.947 2.864l3.962 3.859l3.783 2.914l5.643 5.513l5.463 4.33l3.002 1.024l4.143 0.394l2.882 1.653l2.702 2.126l3.902 3.7l7.445 8.187l2.112 3.56l2.522 4.801l2.392 5.648l2.035 6.041l3.908 8.593l2.582 6.529l3.603 3.382l7.445 3.697l2.642 2.36l14.53 7.157l8.465 6.212l5.911 4.803l2.675 6.046l3.641 6.658l2.363 7.726l0.78 2.122l0.78 1.179l1.388 1.328l4.736 1.973l4.143 2.672l2.042 2.436l6.904 10.921l0.48 1.728l-0.06 3.613l-0.534 2.656l9.741 -8.927l-2.299 -15.313l21.272 5.966l-1.587 5.038l9.178 1.845l23.199 17.453l12.586 4.504l8.756 -1.004l-16.055 -34.667l12.548 2.328l18.662 -8.269l11.601 -21.027l37.098 -20.602l-2.093 -8.208l1.76 -16.2l-34.754 -11.344l-20.1 -9.894l-17.966 -16.142l-11.491 -2.676l-4.662 -14.434l1.978 -6.799l1.516 -10.614l2.503 -6.714l-1.466 -8.344l-18.759 -5.291l-40.905 12.487l-15.661 -38.591l-36.216 5.908l3.875 24.985l-40.622 5.673l8.055 24.487l-45.637 5.726l-6.41 -1.745z" />
  </g>
  <g data-id="023">
    <path d="m559.955 798.274l-1.978 6.799l4.662 14.434l11.491 2.676l17.966 16.142l20.1 9.894l34.754 11.344l-1.76 16.2l14.521 1.547l40.46 -22.25l-0.509 -6.889l25.041 -28.804l15.096 -15.454l21.91 -22.359l23.91 -24.52l1.895 -2.483l-0.951 -2.361l0.914 -1.549l0.087 -13.839l15.036 -17.159l-1.304 -1.4l-7.05 -3.582l-12.772 -4.596l-2.358 -0.849l-2.756 -9.642l-2.609 -9.703l6.132 -10.437l1.234 -2.997l4.14 -8.857l3.153 -5.457l-1.428 -6.853l-0.255 -9.505l6.004 -6.874l7.091 -3.374l6.341 -0.461l3.217 -9.045l2.379 -10.022l2.3 -7.866l-6.465 -9.054l-45.948 9.659l-8.607 -6.848l1.444 -6.403l-21.344 2.331l-12.155 1.324l-47.039 5.213l-10.846 1.197l-4.898 -2.556l-13.666 8.581l-15.67 4.948l-7.062 9.805l-1.633 8.062l4.079 3.07l2.384 8.375l34.171 38.702l-18.332 16.993l-3.498 4.349l-21.735 21.766l-32.1 18.282l-1.634 18.732l-19.531 16.291l-2.503 6.714l-1.516 10.614z" />
  </g>
  <g data-id="025">
    <path d="m579.922 933.868l-12.548 -2.328l16.055 34.667l20.851 46.411l14.848 -8.226l73.044 -65.009l87.207 4.218l0.969 14.035l10.782 14.266l-0.611 12.004l49.696 6.881l3.494 5.752l27.923 -29.29l13.352 30.895l8.747 6.576l3.984 -3.358l11.184 -9.279l8.32 3.335l-1.332 -1.623l2.341 -15.464l16.538 -67.382l1.602 -6.532l4.007 -16.34l6.971 -32.839l2.545 -15.712l1.706 -17.948l1.933 -20.352l0 -18.672l-3.363 -29.007l-3.166 -9.676l-0.36 -21.92l-9.058 -22.173l-12.272 -0.999l-0.571 5.28l8.388 9.171l1.014 8.784l7.2 4.403l-2.284 18.485l-1.813 6.751l-4.73 -0.155l-24.916 -6.151l-6.664 -2.997l-10.327 -8.675l-7.144 -3.707l-12.134 -4.245l-8.235 -4.683l-6.992 -5.566l-2.568 -0.143l-1.427 0.857l-2.426 2.854l-4.562 3.309l-3.087 0.387l-3.734 -0.673l-3.547 -2.21l-3.016 -3.064l-0.747 -2.316l-3.112 0.053l-2.933 3.992l-1.992 5.425l-3.021 3.981l-4.935 1.621l-2.438 -1.394l-2.161 -5.286l-9.1 -4.623l1.304 1.4l-15.036 17.159l-0.087 13.839l-0.914 1.549l0.951 2.361l-1.895 2.483l-23.91 24.52l-21.91 22.359l-15.096 15.454l-25.041 28.804l0.509 6.889l-40.46 22.25l-14.521 -1.547l2.093 8.208l-37.098 20.602l-11.601 21.027l-18.662 8.269z" />
  </g>
  <g data-id="027">
    <path d="m425.874 440.655l-23.748 13.041l39.588 35.965l15.554 0.136l44.162 18.008l40.319 -12.485l15.607 -4.696l45.174 -13.588l3.556 8.687l0.654 5.065l10.874 8.78l10.312 25.429l-9.516 26.187l3.896 12.305l37.249 -19.295l4.114 -0.462l6.256 -11.044l31.829 -24.081l-0.017 -5.499l3.908 0.71l7.521 -12.002l4.12 -8.055l4.4 -3.949l-5.762 -5.012l-5.052 2.146l5.102 -27.655l17.495 -16.063l5.259 -19.85l-0.416 -8.527l-3.904 -13.742l6.15 -33.348l32.451 8.879l3.281 -8.882l-9.63 -6.571l0.288 -15.69l2.773 -29.403l-11.788 -4.637l-1.713 -18.829l-0.844 3.079l-16.223 -1.606l-13.048 -2.157l-7.587 -7.281l-15.942 0.653l-10.101 -9.445l-10.414 -2.802l-6.898 6.108l4.366 -13.595l-11.588 -13.787l-20.558 7.096l-9.886 8.953l-2.35 -6.238l8.866 -27.579l-9.778 -7.277l-19.57 21.81l-47.307 53.963l-15.873 20.875l2.93 17.319l-10.126 16.701l-35.008 17.829l-1.286 -2.483l-11.114 -14.706l-22.473 7.852l-5.805 3.643l-16.619 19.273l2.866 14.569l-11.799 12.092l1.828 9.534l-19.004 25.634z" />
  </g>
  <g data-id="029">
    <path d="m619.127 1004.39l-14.848 8.226l28.034 68.87l5.739 14.232l37.6 92.348l26.726 63.993l-0.415 138.277l-4.635 15.161l-12.435 6.225l0.865 8.822l21.972 45.705l32.669 -6.065l8.364 5.029l0.849 -5.327l11.678 -0.77l8.534 -4.948l17.007 -26.411l5.125 -5.386l29.738 -54.696l29.563 -50.156l16.857 -40.026l7.332 -12.067l1.515 -2.628l0.937 -2.114l0.173 -4.375l3.678 -25.103l8.224 -86.821l2.995 -20.302l4.877 -33.079l11.392 -61.564l3.445 -18.631l3.527 -14.189l1.338 -0.803l-8.646 -3.732l-11.184 9.279l-3.984 3.358l-8.747 -6.576l-13.352 -30.895l-27.923 29.29l-3.494 -5.752l-49.696 -6.881l0.611 -12.004l-10.782 -14.266l-0.969 -14.035l-87.207 -4.218l-73.044 65.009z" />
  </g>
  <g data-id="031">
    <path d="m634.234 216.749l9.778 7.277l-8.866 27.579l2.35 6.238l9.886 -8.953l20.558 -7.096l11.588 13.787l-4.366 13.595l6.898 -6.108l10.414 2.802l10.101 9.445l15.942 -0.653l7.587 7.281l13.048 2.157l16.223 1.606l0.844 -3.079l1.713 18.829l11.788 4.637l-2.773 29.403l-0.288 15.69l9.63 6.571l-3.488 8.46l1.024 0.825l3.85 7.953l10.513 4.7l3.895 0.438l21.069 15.403l4.397 3.161l9.132 6.563l31.607 22.89l5.003 -11.202l0.518 -19.206l8.009 -3.941l-6.362 -10.757l-7.366 -7.046l1.12 -6.744l-2.607 -2.336l0.292 -20.143l-4.45 -0.969l-4.996 -14.299l0.935 -5.198l3.282 -14.441l-17.547 -13.961l-0.52 5.438l-24.49 -2.466l-7.565 -0.903l-14.408 -8.583l-12.849 -19.182l-0.435 -3.841l12.128 -31.667l23.467 -57.858l-13.801 -7.49l-27.456 -16.042l-13.151 -7.687l-11.408 -7.817l-27.808 -16.976l-33.022 34.532l-48.568 59.384z" />
  </g>
  <g data-id="033">
    <path d="m0.307 1364.61l-0.307 3.779l0.701 5.387l0.941 4.015l-0.375 2.307l0.461 1.945l1.941 3.653l4.861 4.064l3.276 1.87l1.643 1.122l1.643 1.994l2.008 1.87l3.276 3.066l2.45 0.748l1.182 -0.125l2.642 1.944l1.499 2.144l0.48 8.088l-1.695 3.897l-2.564 5.615l-4.189 5.383l-3.806 4.055l-1.004 2.007l1.464 3.018l2.341 1.204l0.534 2.988l0.08 3.738l-1.996 12.313l-0.097 4.236l0.463 3.224l1.337 0.869l-0.569 1.555l-8.768 1.203l-1.006 13.198l0.885 7.121l3.88 7.69l16.839 1.11l1.628 4.824l13.268 9.41l4.379 2.097l6.644 -0.625l13.7 28.475l6.358 8.287l5.826 3.965l8.889 3.547l-6.975 -22.113l6.099 -10.389l-3.333 -22.753l8.69 -7.167l18.982 4.504l15.512 -26.555l14.623 -1.103l28.794 -30.502l18.987 -21.647l36.333 29.566l56.491 49.56l6.243 -21.093l-3.767 -13.194l3.147 -33.569l7.566 -18.83l-82.925 -76.603l-20.942 4.222l-7.575 -2.236l-3.485 -11.341l-20.115 -0.609l-5.02 -4.951l-18.957 -3.291l-5.876 -10.77l-24.064 -17.363l-0.984 -15.184l-19.984 -37.728l-14.873 7.06l-1.208 0.573l-7.238 7.099l-1.19 4.923l-4.263 2.499l-2.341 3.593l0.18 2.265l-3.722 11.479l-0.663 1.424l-2.296 4.931l-0.73 3.448l-0.034 1.83l-1.081 3.122l-0.115 3.241l0.327 1.736l-0.451 2.594l-2.462 0.365l-2.102 -0.989l-1.988 0.765l-1.674 2.903l-0.637 1.639l-2.305 5.931l-4.683 2.419l-1.873 1.055l-1.129 1.91l-0.42 6.554l-1.201 9.205l-1.741 4.446l-2.221 3.666l-2.401 2.418l-2.402 3.431l-0.24 1.014l-5.043 6.161l-2.462 0.858l-1.681 0.078l-3.093 4.276l-2.07 2.04l-3.363 2.339l-1.921 3.976z" />
  </g>
  <g data-id="035">
    <path d="m457.347 669.075l9.216 21.924l20.619 50.209l15.661 38.591l40.905 -12.487l18.759 5.291l1.466 8.344l19.531 -16.291l1.634 -18.732l32.1 -18.282l21.735 -21.766l3.498 -4.349l18.332 -16.993l-34.171 -38.702l-2.384 -8.375l-4.079 -3.07l1.633 -8.062l7.062 -9.805l15.67 -4.948l13.666 -8.581l23.348 -16.1l6.363 -16.981l6.173 -10.798l0.02 -9.498l-15.838 1.317l-12.596 8.583l-6.117 -15.32l-37.249 19.295l-3.896 -12.305l9.516 -26.187l-10.312 -25.429l-10.874 -8.78l-0.654 -5.065l-3.556 -8.687l-45.174 13.588l-15.607 4.696l-40.319 12.485l5.073 14.712l-8.782 27.824l3.989 14.941l-1.557 11.431l14.313 8.933l-11.436 16.145l5.164 13.282l-17.716 23.715l-20.004 39.725l-13.125 -9.437z" />
  </g>
  <g data-id="037">
    <path d="m340.949 211.642l-0.058 2.511l2.132 0.725l2.09 -0.257l2.082 -1.048l3.612 -3.356l1.958 -1.186l1.562 -0.408l1.183 0.595l106.3 131.197l12.598 15.494l22.473 -7.852l11.114 14.706l1.286 2.483l35.008 -17.829l10.126 -16.701l-2.93 -17.319l15.873 -20.875l47.307 -53.963l19.57 -21.81l48.568 -59.384l33.022 -34.532l-6.956 -4.247l-47.241 -31.317l-25.227 -15.269l-64.687 -40.296l-20.53 -12.076l-32.042 -19.628l-3.411 2.296l-2.302 0.408l-2.453 1.047l-7.45 4.279l-5.674 1.12l-3.151 -0.428l-10.577 0.317l-1.64 0.935l-2.614 3.701l-1.906 7.002l-1.93 2.407l-2.926 2.781l-1.981 0.602l-4.021 0.078l-4.509 0.758l-1.814 0.652l-1.755 1.645l-0.469 1.512l2.068 3.54l0.232 1.958l-8.925 6.781l-3.107 3.994l-2.203 1.603l-3.711 1.848l-4.907 5.304l-2.407 4.865l-2.581 3.056l-1.663 5.038l-3.111 6.312l-0.112 1.199l0.886 2.812l-0.512 2.484l-0.63 1.299l-1.234 1.698l-3.411 0.545l-1.49 1.226l-2.718 5.909l-0.223 3.166l-2.481 4.373l-0.734 3.482l3.943 4.352l0.909 1.445l-0.186 1.141l-0.46 1.295l-4.136 6.943l-4.051 8.148l-2.546 6.426l-0.13 2.381l-2.19 5.319l-4.374 5.772l-6.17 5.917l-0.883 1.843l-0.365 1.975l-2.087 4.566l-10.754 13.97l-4.786 3.794l-8.361 3.455l-1.589 2.2l0.228 1.477l-10.182 8.131l-1.203 0.453l-1.81 -0.159l-2.164 0.432l-4.176 2.314l-1.404 1.735l-5.707 12.716z" />
  </g>
  <g data-id="039">
    <path d="m658.201 602.99l4.898 2.556l10.846 -1.197l47.039 -5.213l12.155 -1.324l21.344 -2.331l-1.444 6.403l8.607 6.848l45.948 -9.659l6.465 9.054l2.562 -5.684l-2.604 -5.317l0.795 -7.866l-0.631 -6.73l0.743 -4.624l1.08 -1.348l1.975 -2.465l5.646 -7.048l3.821 -1.459l6.471 0.938l5.455 0.825l11.413 -18.414l3.49 -5.485l-15.421 -12.009l-28.133 -0.868l-2.236 -7.999l-5.39 -5.172l-20.456 -4.813l-17.51 -6.918l-7.219 5.516l-3.789 1.585l-13.252 -3.079l-27.702 -17.877l-7.521 12.002l-3.908 -0.71l0.017 5.499l-31.829 24.081l-6.256 11.044l-4.114 0.462l6.117 15.32l12.596 -8.583l15.838 -1.317l-0.02 9.498l-6.173 10.798l-6.363 16.981l-23.348 16.1z" />
  </g>
  <g data-id="041">
    <path d="m213.549 529.948l1.801 4.751l2.401 3.324l3.806 1.52l3.641 -0.469l2.373 0.481l1.787 1.292l0.471 1.596l-0.413 2.47l-3.161 5.243l-3.112 1.71l-1.748 1.482l-3.497 5.394l-2.267 4.672l-0.01 1.836l3.145 3.53l2.248 4.591l1.744 9.499l-0.423 2.481l-0.845 1.215l-4.323 0.494l-1.691 0.772l-0.384 2.949l1.71 2.48l1.018 2.303l2.709 4.669l1.154 8.724l5.632 -2.026l21.062 -27.25l22.543 -8.777l18.703 -18.652l36.18 -24.769l20.145 -8.521l8.682 -3.976l25.014 -35.004l22.48 -26.285l23.748 -13.041l19.004 -25.634l-1.828 -9.534l11.799 -12.092l-2.866 -14.569l16.619 -19.273l5.805 -3.643l-12.598 -15.494l-106.08 -130.41l-0.776 5.211l-1.56 1.995l-6.966 4.875l-4.048 0.679l-3.311 1.404l-2.864 2.081l-4.058 5.094l-2.856 0.02l-2.485 5.021l-0.358 2.393l-0.824 2.165l-1.169 2.009l-3.912 5.164l-0.405 1.626l0.568 2.969l-3.164 1.826l-2.278 1.322l-3.705 3.98l-2.03 1.183l-15.9 9.27l-2.682 1.186l-3.663 0.232l-5.215 1.821l-3.463 4.515l-3.078 1.717l-5.062 2.08l-0.889 1.534l-7.702 4.809l-2.265 1.73l-2.029 2.276l-0.627 1.744l0.053 3.17l-0.346 1.867l-0.588 1.898l-1.462 2.635l-0.003 2.432l1.048 2.254l1.45 1.349l1.375 0.239l3.885 -0.935l1.252 1.415l0.449 1.481l-0.528 1.973l0.201 1.111l0.848 4.984l0.684 2.654l3.651 3.905l3.32 6.708l0.378 2.684l4.685 7.641l1.317 2.008l9.754 8.153l1.395 3.186l0.519 2.255l0.543 5.471l-0.462 3.542l1.223 2.794l5.092 5.157l7.069 9.546l1.294 2.728l0.402 1.712l-0.281 2.675l-2.472 1.873l-5.339 6.536l0.639 3.106l-1.658 2.064l-2.891 0.158l-1.629 -1.229l-1.885 -0.742l-8.572 0.546l-2.895 1.671l-0.863 1.913l0.129 4.235l1.24 1.772l5.657 5.569l1.018 1.809l-0.064 2.645l-0.875 1.983l-6.46 7.743l-1.28 1.527l-1.2 2.148l-0.277 1.658l0.345 1.973l-0.381 2.54l-4.626 6.902l-1.695 0.945l-3.31 0.438l-3.75 2.065l-1.668 2.157l-3.361 6.403l-1.103 1.448l-3.484 0.411l-6.167 -0.935l-8.569 -2.854l-3.526 -0.069l-1.239 0.577l-1.058 1.281l-1.363 2.542l-0.741 3.331l-0.373 3.564l-0.938 1.845l-2.4 2.024l-5.259 2.785l-2.844 3.328l-0.197 1.216l0.322 2.346l0.586 1.319l5.745 6.503l1.787 2.865l0.432 1.686l-0.25 1.268l-2.325 4.715l-1.825 4.753l-1.921 1.66l-1.085 1.47l-2.582 6.906l-3.122 10.928z" />
  </g>
</svg>
