<?xml version="1.0" encoding="UTF-8"?>
<!DOCTYPE svg PUBLIC '-//W3C//DTD SVG 1.1//EN' 'http://www.w3.org/Graphics/SVG/1.1/DTD/svg11.dtd'>
<svg viewBox="0 0 1000 458.432" xmlns="http://www.w3.org/2000/svg">
  <g data-id="001">
    <path d="m609.376 354.943l0.05 51.051l50.983 0.007l-0.001 -52.342l-50.694 -0.092l-0.338 1.377z" />
  </g>
  <g data-id="003">
    <path d="m657.877 87.907l-0.041 53.779l0.591 1.143l-0.02 25.616l52.865 -0.205l-0.143 -26.692l0.012 -53.76l-53.264 0.119z" />
  </g>
  <g data-id="005">
    <path d="m236.471 194.942l0.102 53.124l66.021 -0.107l0.091 -53.156l-2.225 0.022l-63.99 0.118z" />
  </g>
  <g data-id="007">
    <path d="m0.065 210.886l-0.003 2.331l0.027 1.416l-0.014 3.276l0.036 4.277l0.001 1.765l-0.018 1.767l0.025 2.873l0 1.006l0.016 14.938l0.021 1.556l-0.015 2.188l68.555 -0.034l8.592 -0.168l0.983 -6.56l-0.156 -39.976l-2.123 -0.085l-75.912 0.277l-0.01 8.077l-0.004 1.075z" />
  </g>
  <g data-id="009">
    <path d="m432.91 142.103l0.246 53.212l1.629 0.006l64.537 -0.078l-0.014 -53.128l-54.961 0.035l-11.437 -0.046z" />
  </g>
  <g data-id="011">
    <path d="m658.406 168.445l-0.018 26.667l0.505 39.833l21.934 -0.008l-0.031 -2.231l6.671 -0.091l0.015 -2.221l17.837 -0.136l-0.017 -2.205l6.363 -0.047l-0.074 -33.057l-0.319 -26.709l-52.865 0.205z" />
  </g>
  <g data-id="013">
    <path d="m69.636 87.839l0.048 53.562l4.853 0.022l0.003 13.4l4.38 0.094l47.002 0.178l10.288 0.171l18.809 -0.643l-0.488 -7.155l-0.032 -6.381l-4.561 0.055l0.079 -13.158l-0.559 -11.154l-0.147 -15.786l-0.239 -10.226l0.048 -3.378l-2.737 0.002l-76.747 0.398z" />
  </g>
  <g data-id="015">
    <path d="m548.819 15.132l-0.352 15.685l5.546 -2.889l3.244 -0.982l3.015 -1.989l2.946 -0.372l3.63 -1.873l4.521 -0.985l4.57 -3.693l3.918 -1.588l3.19 0.368l7.569 7.894l1.217 0.359l4.316 -0.687l2.49 2.407l2.414 0.903l3.882 -0.551l6.08 3.807l4.051 0.122l2.034 -0.985l8.356 4.564l4.035 -0.298l1.976 1.095l4.604 0.236l3.201 1.073l5.364 -1.474l6.421 1.252l2.203 -0.471l4.054 1.473l-0.582 -3.647l0.054 -15.272l-1.114 -0.309l-1.16 -0.609l-0.708 -1.126l-1.187 -1.108l-1.351 -0.744l-1.979 -0.877l-1.268 -0.824l-1.47 -0.634l-2.452 -1.477l-1.165 0.066l-1.007 0.517l-0.835 -1.081l-1.311 -1.29l-1.011 -0.653l-1.322 -2.497l-1.322 -2.252l-0.602 -1.576l-0.321 -1.646l-7.607 0.025l-11.279 -0.006l-8.997 0.016l-2.514 0.003l-4.222 0.013l-2.594 -0.011l-8.685 0.029l-2.195 -0.019l-4.91 -0.007l-4.378 0.002l-2.463 -0.014l-6.644 0.001l-6.398 0.009l-1.736 -0.006l-1.171 -0.019l-3.866 0.056l-4.49 -0.027l-2.268 0.022l0.038 14.574z" />
  </g>
  <g data-id="017">
    <path d="m440.816 24.299l-0.011 10.145l1.75 0.002l0.012 54l1.787 0.023l-0.008 53.679l54.961 -0.035l2.811 0.01l-0.157 -53.86l-1.401 0.025l-0.192 -46.039l-3.832 0.591l-4.722 -1.638l-2.955 0.383l-4.402 -1.215l-2.336 -1.733l-2.034 0.195l-0.814 -2.515l-4.102 0.551l-5.63 -1.173l-2.468 0.081l-4.454 -2.507l-5.502 0.487l-6.566 -2.22l-2.36 -1.268l-1.302 -3.491l-4.85 -1.153l-1.224 -1.324z" />
  </g>
  <g data-id="019">
    <path d="m529.175 327.338l-0.068 26.096l1.137 0.005l-0.103 4.36l4.72 0.99l5.078 -1.082l3.32 1.1l6.625 0.716l7.48 -0.173l1.001 0.309l1.896 -0.079l4.495 0.632l3.844 -0.326l5.317 0.643l4.267 0.087l2.484 -0.705l7.93 0.617l4.313 -0.971l4.779 -2.355l11.687 -2.26l0.338 -1.377l-0.053 -32.923l-0.009 -19.668l-3.036 0.005l-52.49 -0.055l-24.976 0.081l0.026 26.333z" />
  </g>
  <g data-id="021">
    <path d="m857.456 152.924l-0.035 42.059l12.687 0.037l-0.065 8.906l36.943 0.098l0.178 -1.249l0.936 -1.014l2.446 0.054l1.672 -0.648l0.396 -1.093l-0.822 -1.405l-2.621 -1.54l-0.425 -1.007l0.195 -1.475l1.48 -0.951l1.346 -1.146l0.112 -2.064l0.657 -1.787l0.991 -1.532l-0.319 -1.17l-0.94 -1.102l-2.091 -0.763l-1.134 -0.67l-0.64 -1.01l-0.178 -1.087l0.343 -1.461l-0.267 -1.307l-1.483 -1.494l-1.377 -0.698l-1.056 -1.34l-0.328 -1.99l-0.552 -1.117l-1.095 -1.496l0.304 -1.266l1.925 -0.818l0.702 -1.253l-0.842 -2.13l-0.013 -1.095l0.939 -1.186l0.709 -1.986l-0.036 -1.005l-1.341 -0.983l-1.751 -0.319l-1.319 0.176l-1.045 0.411l-1.036 -0.168l-0.672 -1.084l0.841 -1.693l0.016 -1.104l-1.133 -0.928l-1.318 -0.093l-1.045 0.395l-0.754 1.434l-1.678 0.147l-0.622 -1.622l1.608 -1.798l0.702 -1.163l-0.24 -1.099l-1.667 -1.192l-1.847 0.252l-1.069 -0.062l-1.028 -1.136l-4.175 0.084l-0.029 4.85l-17.236 -0.287l-10.805 0.181z" />
  </g>
  <g data-id="023">
    <path d="m764.455 247.805l0.008 53.128l52.277 0.126l0.309 -52.9l0.272 -9.042l-1.726 -0.417l-5.001 2.185l-3.89 3.343l-1.945 0.919l-4.7 0.201l-3.931 2.994l-9.978 2.45l-2.379 -1.375l-6.204 0.248l-3.916 -2.504l-5.615 1.364l-3.581 -0.72z" />
  </g>
  <g data-id="025">
    <path d="m867.863 305.614l0.011 35.114l63.121 -0.029l8.866 0.056l-0.183 -1.034l-0.907 -1.987l-0.183 -1.139l0.77 -2.244l0.161 -1.386l-0.471 -1.55l-0.66 -1.296l-0.172 -1.041l0.517 -1.238l2.182 -0.87l1.035 -0.733l0.597 -1.033l0.107 -1.326l-0.518 -1.133l-1.875 -1.826l-0.656 -1.005l-0.378 -1.686l-0.061 -1.084l0.266 -1.616l0.929 -2.005l0.172 -1.29l-0.595 -1.557l-1.236 -1.04l-1.803 -0.866l-1.039 -1.622l0.094 -1.023l0.967 -1.924l0.03 -1.56l-1.161 -1.44l-1.107 -1.228l-1.112 -0.78l-6.362 0.08l-4.858 0.788l-2.042 -1.199l-3.301 -0.815l-2.538 0.098l-6.13 2.571l-3.983 4.67l-7.199 3.329l-1.291 0.2l-1.603 -0.992l-2.038 -2.712l-3.843 -0.453l-1.762 -0.948l-2.218 -2.577l-3.418 0.072l-0.045 4.443l-13.08 -0.13z" />
  </g>
  <g data-id="027">
    <path d="m751.106 23.634l-0.043 64.015l13.46 -0.031l-0.015 13.457l40.014 0.08l0.01 -13.403l0.215 -50.283l-1.032 -0.129l-3.126 -1.208l-1.534 -0.312l-1.573 0.122l-1.918 0.322l-1.771 -0.008l-2.254 -0.396l-0.66 -1.091l-0.857 -1.742l-1.801 -1.499l-1.342 -0.497l-1.774 -0.298l-1.467 -0.101l-1.108 -0.594l-0.439 -1.69l-0.443 -1.189l0.048 -2.457l-1.66 -1.219l-1.901 -0.631l-2.217 0.437l-2.506 -0.455l-1.397 -1.585l-1.031 -0.025l-1.529 0.597l-1.337 0.811l-2.678 0.31l-1.037 -0.562l-0.92 -1.057l-1.975 0.147l-1.198 -0.546l-1.027 0.062l-1.117 0.965l-1.002 1.502l-1.181 0.829l-1.132 0.027l-1.085 -0.488l-1.013 -0.199l-1.646 0.014z" />
  </g>
  <g data-id="029">
    <path d="m228.888 399.088l0.005 5.453l0.028 1.629l81.046 -0.185l-0.295 -52.298l-80.734 0.083l-0.037 24.058l0.024 2.67l0.006 12.04l-0.043 6.55z" />
  </g>
  <g data-id="031">
    <path d="m225.377 0.368l-0.276 33.377l2.065 0.003l0.025 53.144l3.261 0.024l-0.241 53.554l3.897 0.063l66.282 0.639l66.371 0.621l66.151 0.311l11.437 0.046l0.008 -53.679l-1.787 -0.023l-0.012 -54l-1.75 -0.002l0.011 -10.145l0.008 -23.804l-9.077 -0.021l-8.205 -0.011l-14.087 -0.086l-7.043 0.042l-1.107 0.035l-1.042 0.012l-8.265 0.021l-27.679 0.05l-2.336 0.06l-2.152 -0.005l-5.906 0.018l-4.81 0.042l-4.885 -0.067l-20.965 0.009l-31.323 0.123l-14.294 0.137l-10.08 -0.06l-15.598 -0.424l-26.586 -0.004z" />
  </g>
  <g data-id="033">
    <path d="m76.753 300.814l-0.022 6.897l1.964 0.059l32.876 -0.069l2.089 -0.01l1.84 0.004l4.736 -0.022l2.211 0.05l2.175 -0.004l2.155 -0.018l2.203 0.003l2.175 0.001l2.188 0.014l2.24 -0.001l2.122 -0.017l2.168 -0.007l6.49 -0.009l2.164 0.008l1.714 0.02l9.852 -0.015l3.708 -0.04l0.018 -6.882l1.219 -0.031l-0.023 -26.327l0.117 -26.412l-3.12 -0.021l-0.003 -6.678l-83.74 0.213l-0.163 6.553l-0.637 52.739z" />
  </g>
  <g data-id="035">
    <path d="m660.407 353.658l0.001 52.342l51.912 -0.029l-0.076 -52.35l-51.837 0.037z" />
  </g>
  <g data-id="037">
    <path d="m777.674 247.991l-0.108 1.674l6.204 -0.248l2.379 1.375l9.978 -2.45l3.931 -2.994l4.7 -0.201l1.945 -0.919l3.89 -3.343l5.001 -2.185l1.721 -0.048l-0.001 -43.783l-13.034 -0.033l-4.418 -0.003l-22.17 -0.013l-0.019 19.966l0.002 33.205z" />
  </g>
  <g data-id="039">
    <path d="m804.342 141.42l-0.063 53.415l13.034 0.033l40.108 0.114l0.035 -42.059l-0.074 -11.409l-30.663 -0.07l-22.377 -0.026z" />
  </g>
  <g data-id="041">
    <path d="m434.785 195.32l0.014 52.96l1.714 -0.004l-0.008 10.864l0.211 6.391l-0.437 35.464l1.592 -0.009l91.278 0.019l24.976 -0.081l0.492 -52.773l-1.052 -0.014l0.051 -52.939l-1.122 -0.027l-53.172 0.071l-64.537 0.078z" />
  </g>
  <g data-id="043">
    <path d="m837.817 112.124l42.333 0.607l-1.073 -1.45l-0.31 -2.743l-0.168 -1.122l-0.61 -1.153l-1.013 -1.165l-1.384 -0.771l-1.341 -1.013l-1.119 -2.172l-0.015 -1.122l0.448 -1.119l0.636 -1.573l-0.748 -2.686l-0.06 -1.061l0.217 -1.177l2.973 -3.811l0.789 -2.154l-0.068 -2.371l-0.469 -1.767l-1.224 -1.705l-1.521 -0.542l-1.656 -0.215l-2.472 -0.256l-1.624 0.712l-1.813 0.93l-1.593 -0.012l-1.352 -0.409l-1.666 -1.786l-0.328 -1.019l-0.731 -1.457l-1.474 -1.224l-1.23 -0.375l-1.027 0.026l-1.157 0.388l-1.882 1.558l-1.331 0.498l-1.474 -0.093l-1.953 -1.297l-0.633 -1.666l-10.376 -0.052l0.032 13.519l-0.51 1.223l-0.024 23.079z" />
  </g>
  <g data-id="045">
    <path d="m62.71 0.147l0.214 33.711l2.61 -0.028l0.037 54.023l4.065 -0.013l76.747 -0.398l0 -53.658l-2.206 0.016l0.063 -33.528l-23.841 -0.077l-14.995 -0.048l-23.909 -0.015l-7.29 0.022l-11.494 -0.005z" />
  </g>
  <g data-id="047">
    <path d="m437.871 300.987l0.106 52.375l27.623 0.038l32.3 0.005l6.381 2.271l6.861 1.164l4.618 -0.545l1.66 0.856l9.624 -0.417l3.097 1.065l0.103 -4.36l-1.137 -0.005l0.068 -26.096l-0.026 -26.333l-91.278 -0.019z" />
  </g>
  <g data-id="049">
    <path d="m163.82 300.774l-0.018 6.882l4.841 0.046l1.446 0.013l1.059 -0.003l7.871 -0.034l1.992 0.01l10.399 0.013l1.775 0.019l8.145 -0.005l2.371 -0.006l4.593 -0.013l2.256 -0.02l2.401 0.021l7.574 -0.002l6.218 -0.013l2.159 0.007l-0.436 -6.833l-0.001 -26.431l-63.449 -0.01l0.023 26.327l-1.219 0.031z" />
  </g>
  <g data-id="051">
    <path d="m804.522 101.155l0.007 13.436l22.258 0.025l11.079 0.029l-0.054 -2.148l0.029 -23.452l0.51 -1.223l-0.032 -13.519l10.376 0.052l-0.212 -1.189l0.003 -1.277l-0.23 -1.153l-0.944 -1.547l-1.734 -1.37l-1.967 -0.803l-1.12 -0.985l-1.323 -1.936l-1.041 -1.398l-0.524 -1.354l-0.063 -1.03l0.236 -1.115l1.445 -2.434l0.888 -1.008l0.229 -1.245l-1.207 -1.097l-3.474 -1.203l-2.164 0.102l-1.956 0.659l-1.615 -0.157l-1.722 -0.471l-1.022 -0.967l0.227 -1.883l-0.033 -1.263l-0.656 -1.818l-1.513 -0.563l-1.155 -0.104l-1.585 -0.558l-1.945 -1.365l-1.413 -0.513l-1.607 -0.175l-2.281 -1.335l-1.566 0.369l-1.115 0.777l-1.242 0.758l-1.687 0.372l-1.019 -0.51l0.398 -2.197l-0.868 -2.757l-1.171 -0.906l-1.567 0.095l-2.631 -0.33l-0.215 50.283l-0.01 13.403z" />
  </g>
  <g data-id="053">
    <path d="m817.314 194.869l0.001 43.783l7.804 1.605l2.12 0.875l5.228 -1.517l3.05 0.058l4.149 2.889l2.183 0.784l6.557 -1.327l7.47 0.21l5.631 3.835l1.815 1.746l3.755 0.48l16.204 0.016l0.01 -6.63l-4.392 -0.012l0.016 -2.175l-2.204 -0.046l0.007 -2.212l-2.196 -0.011l-0.036 -2.234l-2.204 0.018l-0.001 -2.217l-1.095 -0.01l0.038 -4.429l-1.079 0l-0.101 -24.422l0.065 -8.906l-12.687 -0.037l-40.108 -0.114z" />
  </g>
  <g data-id="055">
    <path d="m867.078 248.29l1.302 1.996l4.333 2.434l1.654 4.548l-0.073 2.999l3.395 2.484l3.124 5.038l-0.024 1.361l-1.687 3.363l1.702 4.552l2.662 2.157l14.948 -0.1l4.385 -0.016l8.798 0.001l6.584 0.009l1.679 0l6.998 -0.038l2.826 -0.014l-0.489 -1.695l0.297 -1.368l1.121 -1.794l0.48 -1.338l-0.708 -2.737l-0.481 -1.324l-0.364 -2.198l-0.483 -1.287l-0.103 -1.377l0.24 -1.209l2.47 -0.381l0.183 1.126l0.597 1.466l1.02 0.845l1.517 -1.033l0.618 -1.628l-0.366 -1.72l-0.96 -1.461l-1.852 -0.685l-1.658 0.152l-1.361 -0.304l-1.555 -1.02l-1.578 -1.675l-0.423 -1.417l1.807 -1.264l1.144 -1.097l0.195 -1.554l-0.675 -1.448l-0.199 -1.004l-14.336 -0.332l-19.49 0.005l-11.008 -0.002l-16.204 -0.016z" />
  </g>
  <g data-id="057">
    <path d="m228.88 434.12l-0.011 2.142l0.029 21.71l15.442 -0.01l1.432 -0.003l7.221 0.056l1.014 -0.022l2.799 0.02l20.653 0.027l9.696 0.001l14.301 0.028l4.904 -0.014l3.598 -0.009l1.983 -0.016l0.054 -48.896l0.193 -3.165l-2.222 0.016l-81.046 0.185l0.028 1.625l-0.07 15.446l0.001 10.879z" />
  </g>
  <g data-id="059">
    <path d="m712.244 353.621l0.076 52.35l52.077 0.022l0.033 -52.386l-52.186 0.013z" />
  </g>
  <g data-id="061">
    <path d="m557.345 405.95l0.031 52.187l1.065 0.008l5.35 -0.036l1.089 -0.004l3.192 0.009l2.124 -0.006l5.338 -0.014l3.225 0.011l2.27 -0.008l1.29 -0.01l2.998 0.017l11.473 -0.024l1.586 0.007l4.961 -0.006l5.813 0.02l-0.052 -52.107l-51.751 -0.042z" />
  </g>
  <g data-id="063">
    <path d="m374.18 360.096l0.19 42.204l0.251 3.833l2.166 -0.006l44.764 -0.299l19.343 0.221l11.779 -0.183l-0.034 -13.124l13.024 0.055l-0.063 -39.396l-27.623 -0.038l-63.409 0.018l-0.388 6.716z" />
  </g>
  <g data-id="065">
    <path d="m440.893 406.048l0.482 52.149l1.803 -0.003l21.371 0.013l4.889 -0.046l2.028 0.044l2.719 0.001l10.664 0.017l4.318 -0.037l1.306 0.015l2.011 -0.04l1.677 -0.001l1.409 0.003l10.439 -0.009l-0.242 -52.269l-1.344 -0.012l-51.753 -0.007l-11.779 0.183z" />
  </g>
  <g data-id="067">
    <path d="m816.115 458.207l4.111 0.009l8.54 0.012l20.968 0.032l1.378 0.041l3.266 -0.012l1.25 -0.019l1.485 0.018l2.16 0.017l1.357 -0.027l6.537 0.01l0.717 -39.066l0.004 -39.162l-27.846 -0.01l-23.497 -0.082l-0.087 25.714l-0.344 52.526z" />
  </g>
  <g data-id="069">
    <path d="m157.335 154.555l-0.092 31.319l0.479 4.514l1.066 4.376l3.247 0.049l-0.025 46.492l0.003 6.678l3.12 0.021l-0.117 26.412l63.449 0.01l0.032 -26.429l8.076 0.069l-0.102 -53.124l-9.422 0.029l0.145 -41.018l-69.859 0.602z" />
  </g>
  <g data-id="071">
    <path d="m552.391 141.83l0.103 53.341l1.122 0.027l51.786 0.035l-0.231 -53.496l-52.781 0.093z" />
  </g>
  <g data-id="073">
    <path d="m452.638 392.741l0.034 13.124l51.753 0.007l-0.143 -50.196l-6.381 -2.271l-32.3 -0.005l0.063 39.396l-13.024 -0.055z" />
  </g>
  <g data-id="075">
    <path d="m227.194 153.953l-0.145 41.018l9.422 -0.029l63.99 -0.118l-0.073 -53.652l-66.282 -0.639l-0.27 13.465l-6.642 -0.045z" />
  </g>
  <g data-id="077">
    <path d="m606.192 195.235l0.076 52.925l52.617 0.029l0.009 -13.245l0.043 -39.229l-52.744 -0.48z" />
  </g>
  <g data-id="079">
    <path d="m609.652 300.975l0.009 19.668l0.053 32.923l50.151 0.093l0.031 -25.732l0.003 -7.133l0.003 -4.387l0.018 -14.779l-24.062 -0.626l-26.207 -0.028z" />
  </g>
  <g data-id="081">
    <path d="m659.896 327.927l-0.031 25.732l52.272 -0.041l-0.064 -52.629l-0.225 -19.253l-5.239 7.637l-1.335 1.29l-9.268 4.405l-3.881 1.132l-2.92 3.737l-3.191 2.384l-3.978 4.263l-1.337 0.142l-5.217 3.703l-2.688 4.47l-4.249 2.751l-7.797 8.626l-0.852 1.649z" />
  </g>
  <g data-id="083">
    <path d="m505.768 405.884l0.252 52.269l14.461 -0.024l2.408 0.012l6.536 -0.049l1.249 0.06l1.058 -0.015l12.885 0.003l4.196 -0.018l4.303 0.008l2.148 -0.003l1.215 0.008l0.864 -52.187l-51.577 -0.066z" />
  </g>
  <g data-id="085">
    <path d="m309.672 353.688l0.295 52.298l2.222 -0.016l62.431 0.163l-0.251 -3.833l-0.19 -42.204l0.388 -6.716l-53.758 0.352l-11.138 -0.044z" />
  </g>
  <g data-id="087">
    <path d="m311.942 458.031l3.605 0.019l5.182 0.002l3.847 -0.002l2.609 0.01l1.534 0.003l1.155 -0.012l4.322 0.018l8.072 0.018l3.731 0.008l10.321 0.017l20.422 -0.023l0.038 -23.015l-0.288 -2.786l0.295 -26.161l-2.166 0.006l-62.431 -0.163l-0.193 3.165l0.115 48.893z" />
  </g>
  <g data-id="089">
    <path d="m548.468 30.817l0.022 3.372l1.263 0.024l0.139 54.046l1.204 0.018l-0.065 53.541l1.36 0.012l52.781 -0.093l52.665 -0.052l0.041 -53.779l-0.562 -50.377l-4.054 -1.473l-2.203 0.471l-6.421 -1.252l-5.364 1.474l-3.201 -1.073l-4.604 -0.236l-1.976 -1.095l-4.035 0.298l-8.356 -4.564l-2.034 0.985l-4.051 -0.122l-6.08 -3.807l-3.882 0.551l-2.414 -0.903l-2.49 -2.407l-4.316 0.687l-1.217 -0.359l-7.569 -7.894l-3.19 -0.368l-3.918 1.588l-4.57 3.693l-4.521 0.985l-3.63 1.873l-2.946 0.372l-3.015 1.989l-3.244 0.982l-5.546 2.889z" />
  </g>
  <g data-id="091">
    <path d="m300.388 141.171l0.073 53.652l2.225 -0.022l64.493 0.428l-0.42 -53.439l-66.371 -0.621z" />
  </g>
  <g data-id="093">
    <path d="m607.095 248.146l-0.48 52.834l3.036 -0.005l26.207 0.028l23.512 0.02l0.067 -52.833l-52.343 -0.042z" />
  </g>
  <g data-id="095">
    <path d="m764.339 458.124l2.093 0.019l12.089 0.062l4.901 0.011l2.348 -0.016l4.497 0.008l10.61 0.025l2.157 -0.003l2.474 -0.018l10.607 -0.006l0.04 -52.114l-51.758 -0.1l-0.058 52.131z" />
  </g>
  <g data-id="097">
    <path d="m867.889 380.059l-0.004 39.162l45.388 0.02l-0.032 -39.203l-45.353 0.02z" />
  </g>
  <g data-id="099">
    <path d="m557.363 359.35l-0.018 46.6l51.751 0.042l0.279 -51.05l-11.687 2.26l-4.779 2.355l-4.313 0.971l-7.93 -0.617l-2.484 0.705l-4.267 -0.087l-5.317 -0.643l-3.844 0.326l-4.495 -0.632l-1.896 0.079l-1.001 -0.309z" />
  </g>
  <g data-id="101">
    <path d="m228.465 274.425l0.001 26.431l0.431 6.604l91.683 -0.009l-0.021 -6.584l-2.312 -0.001l0.078 -52.835l-15.73 -0.073l-66.021 0.107l-8.076 -0.069l-0.032 26.429z" />
  </g>
  <g data-id="103">
    <path d="m440.824 0.495l-0.008 23.804l1.224 1.324l4.85 1.153l1.302 3.491l2.36 1.268l6.566 2.22l5.502 -0.487l4.454 2.507l2.468 -0.081l5.63 1.173l4.102 -0.551l0.814 2.515l2.034 -0.195l2.336 1.733l4.402 1.215l2.955 -0.383l4.722 1.638l3.832 -0.591l2.038 -0.654l3.941 1.716l4.997 -0.009l5.054 1.015l7.669 -3.221l0.907 -2.072l2.909 -0.31l2.497 -2.879l1.79 0.112l2.47 -1.688l4.75 0.285l4.147 -2.46l2.884 0.209l2.047 -1.476l0.352 -15.685l-0.056 -14.574l-3.841 -0.002l-6.774 -0.01l-2.441 0.012l-3.081 -0.005l-8.666 0.032l-2.223 -0.028l-4.946 0.016l-4.029 0.007l-14.86 0.018l-2.281 -0.003l-2.74 -0.002l-2.903 -0.033l-2.255 0.017l-1.379 0.007l-1.037 -0.032l-1.429 0.029l-3.221 -0.028l-1.133 0.033l-1.137 -0.021l-5.547 0.006l-1.057 -0.009l-2.603 -0.027l-1.234 -0.008l-4.98 -0.009l-2.637 -0.005l-10.461 -0.041l-9.047 0.023z" />
  </g>
  <g data-id="105">
    <path d="m0 284.194l0.043 6.498l0.007 1.438l0.007 2.232l-0.008 10.952l-0.017 2.521l1.602 -0.015l1.813 -0.058l5.802 0.041l2.186 0.003l5.397 0.032l1.157 -0.055l2.086 0.012l2.232 -0.001l12.344 -0.057l20.123 0.05l8.814 0.013l1.229 -0.042l7.401 -0.014l2.857 -0.083l1.658 0.049l0.022 -6.897l0.535 -52.737l-8.592 0.168l-68.555 0.048l-0.046 9.544l0.042 1.435l-0.015 6.537l-0.122 18.386z" />
  </g>
  <g data-id="107">
    <path d="m656.786 18.611l-0.054 15.272l0.582 3.647l-0.035 50.374l53.861 -0.116l39.923 -0.139l0.043 -64.015l-1.293 -0.446l-2.254 -0.082l-1.82 0.569l-1.785 0.324l-1.653 0.074l-1.443 -0.328l-1.986 -0.653l-1.355 -0.701l-1.888 0.27l-1.731 0.803l-1.293 0.6l-1.272 0.464l-1.195 0.249l-2.083 0.093l-1.661 -0.212l-2.221 -0.568l-3.418 -0.32l-1.645 0.061l-1.112 -0.105l-1.602 -0.562l-1.473 -0.722l-1.799 -0.589l-1.306 -1.094l-1.918 0.165l-1.451 0.412l-1.988 0.993l-0.036 1.312l-0.381 1.035l-0.103 1.291l-0.57 1.429l-0.423 1.4l-1.879 2.865l-1.251 1.398l-1.945 1.822l-1.965 1.338l-1.36 0.142l-1.777 -0.189l-1.706 0.75l-1.147 0.288l-1.203 0.15l-2.514 -0.296l-1.104 -0.596l-1.365 -0.428l-0.529 -1.117l-0.702 -1.06l-1.76 -1.493l-1.348 -0.774l-1.158 -1.429l-2.606 -1.816l-1.192 -1.965l-1.032 -1.106l-1.867 0.418l-3.031 -0.699l-1.686 -0.814l-1.752 -0.984l-1.384 -1.245l-1.705 -1.132l-1.309 -0.935l-1.153 0.037l-1.331 -0.132l-1.996 -0.79l-1.407 -0.39z" />
  </g>
  <g data-id="109">
    <path d="m816.448 353.71l0.098 26.258l23.497 0.082l27.846 0.01l-0.02 -34.952l0.005 -4.379l-0.011 -35.114l-0.001 -4.398l-15.693 -0.055l-35.15 -0.098l-0.249 35.139l-0.049 17.503z" />
  </g>
  <g data-id="111">
    <path d="m318.324 248.031l-0.078 52.835l2.312 0.001l0.021 6.584l0.23 46.281l53.758 -0.352l63.409 -0.018l-0.106 -52.375l-1.592 0.009l0.437 -35.464l-0.211 -6.391l0.008 -10.864l-1.714 0.004l-52.845 -0.032l-63.629 -0.217z" />
  </g>
  <g data-id="113">
    <path d="m381.77 225.16l0.141 3.249l0.043 19.839l52.845 0.032l-0.014 -52.96l-1.629 -0.006l-51.026 0.015l-0.359 29.831z" />
  </g>
  <g data-id="115">
    <path d="m499.307 142.114l0.014 53.128l53.172 -0.071l-0.103 -53.341l-1.36 -0.012l-48.912 0.306l-2.811 -0.01z" />
  </g>
  <g data-id="117">
    <path d="m302.685 194.802l-0.091 53.156l15.73 0.073l63.629 0.217l-0.043 -19.839l-0.141 -3.249l0.359 -29.831l-14.951 -0.099l-64.493 -0.428z" />
  </g>
  <g data-id="119">
    <path d="m711.128 141.548l0.143 26.692l0.094 25.954l53.102 0.606l-0.019 -40.044l-0.019 -13.39l-53.301 0.181z" />
  </g>
  <g data-id="121">
    <path d="m659.438 248.189l-0.067 52.833l0.532 15.385l-0.003 4.387l-0.002 6.396l8.648 -9.538l4.249 -2.751l2.688 -4.47l5.217 -3.703l1.337 -0.142l3.978 -4.263l3.191 -2.384l2.92 -3.737l3.471 -1.925l9.678 -3.612l1.335 -1.29l5.239 -7.637l3.171 -3.02l3.948 -6.32l6.192 -4.915l6.094 -5.73l3.152 -0.287l3.749 -1.599l-0.005 -2.417l-0.024 -9.438l-12.041 0.029l-0.198 13.061l-22.043 0.139l0.037 2.221l-17.746 0.077l0 2.22l-5.549 -0.019l0.013 2.223l-19.881 -0.046l0.173 -19.722l-1.451 -0.007z" />
  </g>
  <g data-id="123">
    <path d="m78.114 194.76l0 6.781l0.156 39.976l83.74 -0.213l0.025 -46.492l-3.247 -0.049l-1.066 -4.376l-0.479 -4.514l0.092 -31.319l-2.316 0.068l-18.809 0.643l-10.288 -0.171l-47.002 -0.178l0.082 39.832z" />
  </g>
  <g data-id="125">
    <path d="m658.893 234.945l-0.009 13.245l2.004 0.006l-0.173 19.722l19.881 0.046l-0.013 -2.223l5.549 0.019l0 -2.22l17.746 -0.077l-0.037 -2.221l22.043 -0.139l0.198 -13.061l0.016 -20.129l-14.433 0.095l-6.363 0.047l0.017 2.205l-17.837 0.136l-0.015 2.221l-6.671 0.091l0.031 2.231l-21.934 0.008z" />
  </g>
  <g data-id="127">
    <path d="m913.242 380.039l0.032 39.203l6.468 0.083l52.337 -0.063l-0.434 -1.328l0.547 -1.544l-0.015 -1.14l-0.813 -1.066l-1.076 -0.503l-1.561 -0.068l-1.929 -1.533l-1.347 -0.624l-1.461 0.226l-1.498 0.719l-1.032 0.297l-1.025 -0.332l-0.397 -1.182l0.462 -1.018l2.278 -1.007l1.215 -1.361l-0.062 -1.23l-0.886 -1.612l-1.092 -1.364l-0.189 -1.291l-0.143 -1.779l-0.627 -1.396l-1.111 -1.883l-0.266 -1.09l0.361 -1.291l0.306 -1.532l-0.293 -1.073l-0.826 -1.398l-1.345 -1.348l-1.825 -1.388l-0.415 -1.421l0.173 -1.164l0.06 -1.055l-0.599 -1.755l3.658 -1.457l1.408 -1.293l0.39 -2.19l-0.41 -1.279l-1.103 -1.516l-1.513 -0.884l-1.764 0.845l-0.289 1.776l-0.07 1.227l0.008 1.28l-1.301 1.042l-40.985 -0.24z" />
  </g>
  <g data-id="129">
    <path d="m660.926 405.998l-0.051 52.058l2.745 0.031l6.464 -0.046l1.62 0.02l2.57 0.006l1.694 -0.001l4.845 0.034l2.701 -0.011l2.971 0.003l4.076 0.008l4.829 0.016l4.615 0.01l6.354 -0.008l2.151 0.006l2.181 0.023l1.919 -0.014l0.09 -52.162l-51.772 0.028z" />
  </g>
  <g data-id="131">
    <path d="m867.874 340.729l-0.005 4.379l0.02 34.952l45.353 -0.02l40.827 -0.098l-1.426 -0.65l-1.693 0.631l-1.307 -0.052l-1.621 -0.616l-0.735 -1.247l0.524 -1.364l0.1 -1.227l-0.908 -1.846l-0.335 -1.12l0.706 -1.463l1.102 -0.855l1.011 -1.216l0.043 -1.475l-0.956 -1.042l-1.004 -0.757l-0.413 -2.486l-0.273 -1.087l-1.038 -1.625l-1.554 -1.374l-1.008 -0.377l-1.126 -0.103l-1.002 -0.252l-1.059 -0.597l-1.215 -0.949l-0.587 -2.518l-0.536 -1.217l-2.043 -1.542l-1.452 -0.769l-0.655 -2.154l0.253 -1.547l0.876 -1.657l1.034 -0.991l1.968 -0.904l1.138 -0.825l0.868 -1.217l-8.75 -0.756l-63.121 0.029z" />
  </g>
  <g data-id="133">
    <path d="m867.885 419.221l-0.005 39.066l18.199 0.05l7.472 -0.009l1.757 -0.006l7.944 0.035l3.251 0.01l4.134 -0.013l4.356 -0.032l3.156 0.001l1.534 0.012l0.057 -39.011l-6.468 -0.083l-45.388 -0.02z" />
  </g>
  <g data-id="135">
    <path d="m228.897 307.46l0.054 38.458l-0.012 7.853l80.734 -0.083l11.138 0.044l-0.23 -46.281l-91.683 0.009z" />
  </g>
  <g data-id="137">
    <path d="m504.281 355.676l0.143 50.196l1.344 0.012l51.577 0.066l0.018 -46.6l-7.48 0.173l-6.625 -0.716l-3.32 -1.1l-5.078 1.082l-4.075 -0.499l-3.742 -1.556l-9.624 0.417l-1.66 -0.856l-4.618 0.545l-6.861 -1.164z" />
  </g>
  <g data-id="139">
    <path d="m711.141 87.787l-0.012 53.76l53.301 -0.181l0.078 -40.291l0.015 -13.457l-13.46 0.031l-39.923 0.139z" />
  </g>
  <g data-id="141">
    <path d="m711.591 194.949l0.074 33.057l14.433 -0.095l-0.016 20.129l12.041 -0.029l0.024 9.438l3.163 -0.634l5.51 -3.755l8.263 -1.043l9.372 -4.212l3.581 0.72l5.615 -1.364l3.916 2.504l0.108 -1.674l-0.002 -33.205l0.019 -19.966l-13.224 -0.019l-52.877 0.149z" />
  </g>
  <g data-id="143">
    <path d="m711.847 281.736l0.034 18.717l52.582 0.481l-0.008 -53.128l-9.372 4.212l-8.263 1.043l-5.51 3.755l-3.163 0.634l0.005 2.417l-3.749 1.599l-3.152 0.287l-6.094 5.73l-6.192 4.915l-3.948 6.32l-3.171 3.02z" />
  </g>
  <g data-id="145">
    <path d="m376.491 432.287l0.288 2.786l-0.038 23.015l2.287 0.011l1.02 0.018l1.004 0.006l4.31 -0.025l2.653 0.011l1.691 0.042l5.088 -0.003l3.855 0.002l1.755 0l4.668 0.007l2.734 0.011l1.16 0.002l3.424 -0.006l6.517 -0.002l18.116 0.028l1.857 0l2.109 0.02l-0.097 -52.161l-19.343 -0.221l-44.764 0.299l-0.295 26.161z" />
  </g>
  <g data-id="147">
    <path d="m919.741 419.325l-0.057 39.011l6.008 0.017l8.646 0.008l10.796 0.003l47.209 0.067l4.043 0l3.614 0l-0.328 -1.166l-1.983 -1.171l-2.066 -1.884l-1.178 -0.485l-2.983 0.659l-1.475 -0.138l-1.303 -0.758l-1.094 -1.512l-0.55 -2.348l0.377 -1.129l0.971 -1.167l0.07 -1.471l-0.16 -1.101l1.201 -1.75l0.809 -1.186l-0.033 -1.202l-0.608 -1.078l-1.237 -0.544l-1.11 -0.08l-1.094 -0.747l-0.529 -1.576l-0.051 -1.02l-0.786 -1.398l-1.627 -0.642l-1.845 -1.546l-0.931 -1.308l-0.408 -1.751l0.55 -1.691l0.749 -1.302l0.191 -1.584l-0.323 -1.224l-1.169 -1.527l-1.999 -0.503l-1.738 0.168l-3.626 -1.583l-52.945 -0.362z" />
  </g>
  <g data-id="149">
    <path d="m500.368 42.249l0.192 46.039l1.401 -0.025l0.157 53.86l48.912 -0.306l0.065 -53.541l-1.204 -0.018l-0.139 -54.046l-1.263 -0.024l-0.022 -3.372l-2.047 1.476l-2.884 -0.209l-4.147 2.46l-4.75 -0.285l-2.47 1.688l-1.79 -0.112l-2.497 2.879l-2.909 0.31l-0.907 2.072l-7.669 3.221l-5.054 -1.015l-4.997 0.009l-3.941 -1.716l-2.038 0.654z" />
  </g>
  <g data-id="151">
    <path d="m764.43 353.607l-0.033 52.386l51.758 0.1l0.391 -26.126l-0.098 -26.258l-52.018 -0.102z" />
  </g>
  <g data-id="153">
    <path d="m882.841 292.944l-0.793 2.597l2.357 5.688l2.218 2.577l1.762 0.948l3.843 0.453l2.038 2.712l1.603 0.992l1.291 -0.2l7.199 -3.329l3.983 -4.67l6.13 -2.571l2.538 -0.098l3.301 0.815l2.042 1.199l4.323 -0.867l6.897 -0.001l1.112 0.78l-0.335 -1.078l0.493 -1.392l1.445 -1.635l0.329 -1.218l-0.328 -1.952l-0.05 -2.524l-0.32 -1.032l-1.166 -2.034l-0.515 -1.944l0.241 -1.366l1.072 -1.249l2.188 0.414l1.247 -0.865l-0.251 -1.444l-1.453 -0.987l-6.049 0.411l-1.543 -1.002l-1.868 -0.015l-7.591 0.065l-2.047 -0.005l-6.584 -0.009l-8.798 -0.001l-4.385 0.016l-14.948 0.1l1.312 6.994l-0.401 2.149l0.968 2.195l-2.503 2.385z" />
  </g>
  <g data-id="155">
    <path d="m817.05 248.159l-0.031 52.904l35.15 0.098l15.693 0.055l0.001 4.398l13.08 0.13l0.045 -4.443l3.418 -0.072l-2.357 -5.688l0.793 -2.597l2.503 -2.385l-0.608 -1.497l0.041 -2.847l-1.312 -6.994l-2.662 -2.157l-1.702 -4.552l1.687 -3.363l0.024 -1.361l-3.124 -5.038l-3.395 -2.484l0.073 -2.999l-1.654 -4.548l-4.333 -2.434l-1.302 -1.996l-3.755 -0.48l-1.815 -1.746l-5.631 -3.835l-7.47 -0.21l-6.557 1.327l-2.183 -0.784l-4.149 -2.889l-3.05 -0.058l-5.228 1.517l-2.12 -0.875l-7.799 -1.14l0.008 8.55z" />
  </g>
  <g data-id="157">
    <path d="m0.067 169.799l-0.011 3.177l0.029 23.328l-0.006 5.43l75.912 -0.277l2.123 0.085l0 -6.781l0.807 -39.843l-4.38 -0.094l-74.448 0.28l-0.006 1.039l-0.011 2.924l-0.015 9.376l0.007 1.357z" />
  </g>
  <g data-id="159">
    <path d="m764.463 300.934l-0.032 52.674l52.018 0.102l0.321 -17.507l-0.029 -35.143l-52.277 -0.126z" />
  </g>
  <g data-id="161">
    <path d="m144.239 0.27l-0.063 33.528l2.206 -0.016l0 53.658l2.737 -0.002l-0.048 3.378l0.239 10.226l0.147 15.786l0.559 11.154l-0.079 13.158l4.561 -0.055l0.032 6.381l0.488 7.155l2.316 -0.068l69.859 -0.602l6.642 0.045l0.27 -13.465l-3.897 -0.063l0.241 -53.554l-3.261 -0.024l-0.025 -53.144l-2.065 -0.003l0.276 -33.377l-40.937 -0.04l-5.349 0.008l-34.851 -0.066z" />
  </g>
  <g data-id="163">
    <path d="m554.617 248.152l-0.492 52.773l52.49 0.055l0.48 -52.834l-52.478 0.005z" />
  </g>
  <g data-id="165">
    <path d="m0.044 0.176l0.03 38.389l0.032 16.261l-0.018 2.5l-0.003 3.452l-0.038 17.355l0.038 37.421l-0.002 1.276l0.004 12.302l-0.028 5.093l0.046 1.895l-0.04 5.531l-0.001 2.156l0.01 8.211l0.02 3.085l74.448 -0.28l-0.003 -13.4l-4.853 -0.022l-0.048 -53.562l-4.065 0.013l-0.037 -54.023l-2.61 0.028l-0.214 -33.711l-8.145 -0.006l-4.803 0.02l-3.955 -0.114l-7.108 0.067l-11.304 -0.062l-12.691 0.071l-4.728 -0.124l-2.837 0.003l-7.095 0.173z" />
  </g>
  <g data-id="167">
    <path d="m764.43 141.367l0.019 13.39l0.019 40.044l13.224 0.019l22.17 0.013l4.418 0.003l0.063 -53.415l-26.652 -0.035l-13.261 -0.018z" />
  </g>
  <g data-id="169">
    <path d="m712.697 405.97l-0.078 52.162l5.071 -0.024l1.076 0.025l28.866 0.014l5.949 -0.022l2.13 0.013l2.198 -0.013l1.099 0.007l5.332 -0.009l0.058 -52.131l-51.7 -0.023z" />
  </g>
  <g data-id="171">
    <path d="m366.758 141.792l0.42 53.439l14.951 0.099l51.026 -0.015l-0.246 -53.212l-66.151 -0.311z" />
  </g>
  <g data-id="173">
    <path d="m826.853 114.616l-0.134 26.83l30.663 0.07l0.074 11.409l10.805 -0.181l17.236 0.287l0.029 -4.85l4.172 -0.091l-0.634 -2.02l-0.103 -1.522l0.295 -1.715l0.57 -1.122l0.474 -1.153l0.119 -1.092l-0.083 -1.079l-0.57 -1.254l-1.528 -1.113l-1.756 -0.374l-1.036 -0.691l-0.788 -1.642l-1.016 -1.282l-1.385 -0.881l-1.118 -1.482l-0.294 -1.641l0.352 -1.432l-0.094 -1.239l-1.261 -2.015l0.278 -1.133l1.326 -0.363l1.488 -0.632l0.951 -1.282l-0.719 -1.596l0.263 -1.509l-0.414 -1.459l-1.157 -1.497l-1.708 -1.138l-42.34 -0.236l0.054 2.148l-11.013 -0.029z" />
  </g>
  <g data-id="175">
    <path d="m553.616 195.199l-0.051 52.939l1.052 0.014l51.651 0.009l-0.076 -52.925l-52.576 -0.037z" />
  </g>
  <g data-id="177">
    <path d="m870.044 203.927l0.101 24.422l1.079 0l-0.038 4.429l1.095 0.01l0.001 2.217l2.204 -0.018l0.036 2.234l2.196 0.011l-0.007 2.212l2.204 0.046l-0.016 2.175l4.392 0.012l-0.01 6.63l11.008 0.002l19.49 -0.005l14.065 -0.004l0.975 -1.981l0.102 -1.368l-0.275 -1.063l-0.1 -1.114l1.06 -1.573l0.462 -1.248l-0.305 -1.197l-1.188 -1.226l-1.035 -0.376l-1.721 0.526l-1.878 -0.687l-1.088 -0.375l-2.486 -0.391l-1.336 -1.407l-0.324 -1.182l1.359 -1.272l1.078 -1.093l0.58 -1.101l-0.121 -1.743l-0.645 -2.332l-1.201 -1.048l-1.104 -0.032l-1.002 0.937l-0.246 1.883l-0.424 2.205l-1.579 0.852l-1.122 -0.644l-1.097 -1.351l-1.483 -1.201l-1.055 -0.547l-0.5 -1.144l-0.24 -1.211l0.294 -1.692l1.009 -1.461l0.415 -1.445l-0.528 -1.293l-1.798 -0.892l-1.41 -1.636l-0.426 -1.181l-0.045 -1.126l0.435 -1.012l1.537 -1.764l0.647 -1.814l-0.33 -1.732l-1.55 -1.51l-1.086 -1.426l-37.026 -0.883z" />
  </g>
  <g data-id="179">
    <path d="m764.508 101.076l-0.078 40.291l13.261 0.018l26.652 0.035l22.377 0.026l0.134 -26.83l-22.324 -0.025l-0.007 -13.436l-40.014 -0.08z" />
  </g>
  <g data-id="181">
    <path d="m609.097 405.992l0.052 52.107l1.826 0.006l1.979 -0.029l2.318 0.001l2.171 0.014l1.5 -0.033l3.082 0.014l2.334 -0.011l2.072 -0.001l1.674 0.031l1.989 -0.002l2.302 -0.008l2.127 0.001l1.592 0.001l24.758 -0.029l0.051 -52.058l-51.5 -0.005z" />
  </g>
  <g data-id="183">
    <path d="m605.171 141.738l0.231 53.496l52.986 -0.122l0.018 -26.667l0.02 -25.616l-0.591 -1.143l-52.665 0.052z" />
  </g>
  <g data-id="185">
    <path d="m712.072 300.989l0.064 52.629l52.294 -0.01l0.032 -52.674l-52.391 0.055z" />
  </g>
</svg>
