<?xml version="1.0" encoding="UTF-8"?>
<!DOCTYPE svg PUBLIC '-//W3C//DTD SVG 1.1//EN' 'http://www.w3.org/Graphics/SVG/1.1/DTD/svg11.dtd'>
<svg viewBox="0 0 10000 4584.32" xmlns="http://www.w3.org/2000/svg">
  <g data-id="001">
    <path d="m6093.8 3549.4l0 0l0.5 510.5l509.8 0.1l-0 -523.4l-5.4 0l-501.5 -0.9l-3.4 13.8z" />
  </g>
  <g data-id="003">
    <path d="m6578.8 879.1l0 0l-0.4 537.8l5.9 11.4l-0.2 256.2l528.6 -2l-1.4 -266.9l0.1 -537.6l-532.6 1.2z" />
  </g>
  <g data-id="005">
    <path d="m2364.7 1949.4l0 0l1 531.2l660.2 -1.1l0.9 -531.6l-22.2 0.2l-639.9 1.2z" />
  </g>
  <g data-id="007">
    <path d="m0.7 2108.9l0 0l-0 23.3l0.3 14.2l-0.1 32.8l0.4 42.8l0 17.7l-0.1 0.1l-0.1 17.6l0 3.1l0.2 25.6l-0 10.1l0.2 149.4l0.2 15.6l-0.1 21.9l-0 0.1l685.5 -0.5l85.9 -1.7l8.2 -0.1l1.6 -65.5l-1.6 -399.8l-21.2 -0.8l-759.1 2.8l-0.1 80.8l-0 10.7z" />
  </g>
  <g data-id="009">
    <path d="m4329.1 1421l0 0l2.5 532.1l16.3 0.1l645.4 -0.8l-0.1 -531.3l-549.6 0.3l-114.4 -0.5z" />
  </g>
  <g data-id="011">
    <path d="m6584.1 1684.4l0 0l-0.2 266.7l5.5 6l-0.4 392.3l219.3 -0.1l-0.3 -22.3l66.7 -0.9l0.2 -22.2l178.4 -1.4l-0.2 -22.1l63.6 -0.5l-0.7 -330.6l-2.3 -7.6l-0.9 -259.5l-528.6 2z" />
  </g>
  <g data-id="013">
    <path d="m696.4 878.4l0 0l0.5 535.6l48.5 0.2l0 134l43.8 0.9l470 1.8l102.9 1.7l188.1 -6.4l-4.9 -71.6l-0.3 -63.8l-45.6 0.6l0.8 -131.6l-5.6 -111.5l-1.5 -157.9l-2.4 -102.3l0.5 -33.8l-27.4 0l-767.5 4z" />
  </g>
  <g data-id="015">
    <path d="m5488.2 151.3l0 0l-3.5 156.9l55.5 -28.9l32.4 -9.8l30.1 -19.9l29.5 -3.7l36.3 -18.7l45.2 -9.8l45.7 -36.9l39.2 -15.9l31.9 3.7l75.7 78.9l12.2 3.6l43.2 -6.9l24.9 24.1l24.1 9l38.8 -5.5l60.8 38.1l40.5 1.2l20.3 -9.9l83.6 45.6l40.4 -3l19.8 11l46 2.4l32 10.7l53.6 -14.7l64.2 12.5l22 -4.7l40.5 14.7l-5.8 -36.5l0.5 -152.7l-11.1 -3.1l-7.3 -3.1l-4.3 -3l-3.2 -3.2l-1.2 -1.6l-2.7 -6.4l-2.5 -3.3l-5.1 -4.8l-4.4 -3l-13.5 -7.4l-19.8 -8.8l-12.7 -8.2l-14.7 -6.3l-9.7 -5.1l-14.8 -9.6l-6.3 -0.3l-5.3 0.9l-4.1 3.6l-3.2 1.3l-2.8 0.3l-5 -1.6l-2 -2.2l-1.4 -7l-1.4 -2l-4.5 -3.1l-7.2 -7.8l-3.6 -1.6l-6.5 -4.9l-13.2 -25l-13.2 -22.5l-6 -15.8l-3.2 -16.5l-76.1 0.3l-4.4 -0.2l-108.4 0.1l-2.2 -0.1l-87.8 0.3l-25.1 0l-42.2 0.1l-25.9 -0.1l-86.9 0.3l-3.7 -0.3l-18.3 0.1l-0.1 0l-49 -0.1l-43.8 0l-24.6 -0.1l-0.4 0.2l-66 -0.2l-2.1 0.1l-61.8 -0l-3.5 -0.3l-13.8 0.3l-11.7 -0.2l-38.7 0.6l-44.9 -0.3l-22.7 0.2l-0.2 -0l0.6 145.7z" />
  </g>
  <g data-id="017">
    <path d="m4408.2 243l0 0l-0.1 101.4l17.5 0l0.1 540l17.9 0.2l-0.1 536.8l549.6 -0.3l28.1 0.1l-1.6 -538.6l-14 0.2l-1.9 -460.4l-38.3 5.9l-47.2 -16.4l-29.6 3.8l-44 -12.2l-23.4 -17.3l-20.3 2l-8.1 -25.2l-41 5.5l-56.3 -11.7l-24.7 0.8l-44.5 -25.1l-55 4.9l-65.7 -22.2l-23.6 -12.7l-13 -34.9l-48.5 -11.5l-12.2 -13.2z" />
  </g>
  <g data-id="019">
    <path d="m5291.8 3273.4l0 0l-0.7 261l11.4 0.1l-1 43.6l6.5 4.9l40.8 5l50.8 -10.8l33.2 11l66.2 7.2l74.8 -1.7l10 3.1l19 -0.8l45 6.3l38.4 -3.3l53.2 6.4l42.7 0.9l24.8 -7l79.3 6.2l43.1 -9.7l47.8 -23.5l116.9 -22.6l3.4 -13.8l-0.5 -329.2l-0.1 -196.7l-30.4 0.1l-524.9 -0.6l-249.8 0.8l0.3 263.3z" />
  </g>
  <g data-id="021">
    <path d="m8574.6 1529.2l0 0l-0.3 420.6l126.9 0.4l-0.6 89.1l369.4 1l0.4 -8.5l1.4 -4l2.8 -4.7l6.6 -5.4l7.8 -3.3l16.6 3.8l9.3 -1.1l7.4 -5.4l3.3 -5.1l0.8 -2.8l-0.2 -3l-1 -2.9l-2 -4l-5.2 -7.2l-9.1 -6.5l-17.2 -8.9l-3.4 -5.6l-0.9 -4.5l-0.1 -5.1l2.1 -9.7l2.1 -3.3l6 -4.2l6.7 -2.1l8 -4.4l5.4 -7l1.8 -5.7l-0.7 -15l1.6 -9.9l5 -8l7.8 -9.1l2.1 -6.3l-0.4 -5l-2.8 -6.7l-2.7 -4.4l-6.7 -6.6l-6.3 -3.6l-14.6 -4.1l-5.1 -2.2l-6.3 -4.5l-4.4 -5.4l-2 -4.7l-1.7 -6.8l-0.1 -4.1l3.4 -14.6l-0.1 -6.2l-2.5 -6.8l-4.2 -6.5l-2.6 -2.7l-8 -5.7l-8.5 -3.4l-5.3 -3.6l-4.3 -4.9l-3.5 -3.9l-2.8 -4.6l-1.8 -4.8l-0.8 -3.9l-0.7 -11.2l-1.7 -5.1l-3.8 -6.1l-6.9 -7.8l-4.1 -7.1l-0.3 -5.7l1.4 -3.8l1.9 -3.1l5.5 -3.6l13.8 -4.5l3 -2.2l3.3 -6.1l0.7 -4.2l-0.5 -5.6l-7.9 -15.7l-1.2 -6.4l1.1 -4.6l1.2 -2.1l8.2 -9.7l2.4 -5.4l4.7 -14.5l0.3 -7.1l-0.7 -3l-3.5 -4.5l-9.9 -5.3l-17.5 -3.2l-4.7 0l-8.5 1.7l-7 3.3l-3.5 0.8l-8.1 -0.6l-2.3 -1.1l-5 -5.1l-1.1 -2l-0.7 -3.7l3 -7.5l5.4 -9.5l1.1 -3.5l0.3 -3.4l-1.2 -4.1l-3.9 -5.7l-7.4 -3.6l-13.2 -0.9l-10.5 3.9l-2.8 4.4l-4.8 10l-2.4 3l-1.8 1.1l-4.9 0.5l-7.7 -3.1l-4.8 -4.5l-1.5 -2.4l-0.4 -3.1l0.5 -6.3l3.5 -8.2l12.6 -9.8l4.9 -6.2l2.2 -5.5l-0.2 -5.2l-2.2 -5.8l-2.1 -2.9l-7.4 -6l-7.2 -3l-9.7 -0.8l-8.8 3.3l-1.8 2.1l-5.8 -1.4l-3.1 -1.4l-5.4 -3.8l-3.2 -4.1l-1.7 -3.5l-0 -0.1l-41.7 0.9l-0.3 48.5l-172.4 -2.9l-108 1.8z" />
  </g>
  <g data-id="023">
    <path d="m7644.5 2478.1l0 0l0.1 531.3l522.8 1.3l2.8 0l0.3 -529l2.8 -4.9l-0.1 -85.5l-0.1 -4.6l-17.2 0.5l-50 21.8l-38.9 33.4l-19.4 9.2l-47 2l-39.3 29.9l-99.8 24.5l-23.8 -13.8l-62 2.5l-39.2 -25l-56.2 13.6l-35.8 -7.2z" />
  </g>
  <g data-id="025">
    <path d="m8678.6 3056.1l0 0l0.1 351.1l631.2 -0.3l88.7 0.6l-0.4 -6l-1.5 -4.3l-9.1 -19.9l-1.8 -11.4l0.6 -6l1.1 -3.6l6.1 -12.8l1.5 -7.5l0.1 -6.3l-4.7 -15.5l-6.6 -13l-1.6 -6.7l-0.1 -3.7l0.9 -4.9l1 -2.1l3.3 -5.3l1.8 -1.5l4.3 -2.9l15.7 -4.2l6.2 -3.7l4.2 -3.6l4.4 -6.6l1.6 -3.7l1.4 -6.9l-0.3 -6.4l-1.3 -3.7l-2.9 -5.7l-1 -1.9l-5 -5.9l-13.7 -12.4l-2.7 -3.4l-3.9 -6.7l-1.5 -4.6l-2.3 -12.2l-0.6 -10.8l2.7 -16.2l9.3 -20l1.7 -12.9l-0.9 -5l-1.4 -4l-3.7 -6.6l-6.1 -5.8l-6.2 -4.6l-9.4 -3.4l-8.7 -5.3l-3.9 -3.2l-4.3 -6.5l-2.2 -6.6l-0.3 -5.2l1.3 -5l2.9 -7.1l6.8 -12.1l0.9 -9.4l-0.6 -6.2l-0.9 -3.3l-1.5 -2.3l-9.2 -8.8l-11.1 -12.3l-11.1 -7.8l-63.6 0.8l-1.5 0.5l-1.4 0l-1.2 -0.5l-1.2 -0.8l-43.2 8.7l-20.4 -12l-33 -8.2l-25.4 1l-61.3 25.7l-39.8 46.7l-72 33.3l-12.9 2l-16 -9.9l-20.4 -27.1l-38.4 -4.5l-17.6 -9.5l-22.2 -25.8l-34.2 0.7l-0.4 44.4l-130.8 -1.3z" />
  </g>
  <g data-id="027">
    <path d="m7511.1 236.3l0 0l-0.4 640.2l134.6 -0.3l-0.2 134.6l400.1 0.8l0.1 -134l2.1 -502.8l-10.3 -1.3l-6.1 -2l-3.5 -3.4l-21.7 -6.7l-15.3 -3.1l-7.2 -0.2l-8.6 1.4l-7 2.1l-12.2 1.1l-5.9 -0.6l-11.8 0.5l-22.5 -4l-3.6 -4l-3 -6.9l0.1 -3.2l-1.4 -3.8l-7.3 -10.4l-7.1 -8.5l-11 -6.5l-4 -2.4l-3.6 -1.3l-5.8 -1.3l-7.3 -0.5l-10.4 -2.5l-14.7 -1l-4.9 -1.6l-6.2 -4.4l-1.7 -2.2l-1.6 -3.6l-1 -11.1l-1.3 -4.4l-3.2 -7.5l-0.5 -2.8l1 -21.8l-1.6 -3.6l-15 -8.6l-6.8 -2.8l-12.2 -3.5l-3.7 -0.1l-5.7 2.4l-12.8 2.1l-25.1 -4.5l-14 -15.9l-5.3 -3l-2.5 0.5l-2.6 2.3l-8 4l-7.3 1.9l-2.2 1.1l-2.5 2.8l-2.6 1.7l-6.2 2.5l-5.7 1.4l-21 1.7l-2.5 -0.5l-7.8 -5.1l-7.7 -7.1l-1.6 -3.4l-19.7 1.5l-6.1 -0.9l-5.9 -4.5l-4.4 -0.9l-5.8 1.5l-4.2 2.2l-7 7.4l-2.2 4.6l-0.5 2.4l-7.3 8l-8.2 6.9l-3.6 1.4l-11.3 0.3l-4.8 -1.4l-2.7 -2.2l-3.3 -1.3l-10.1 -2l-16.5 0.1z" />
  </g>
  <g data-id="029">
    <path d="m2288.9 3990.9l0 0l0.3 5l-0.3 49.6l0.3 16.3l810.5 -1.8l-2.9 -523l-807.3 0.8l-0.4 240.6l0.2 26.7l0.1 120.4l-0.4 65.5z" />
  </g>
  <g data-id="031">
    <path d="m2253.8 3.7l0 0l-2.8 333.8l20.6 0l0.2 531.4l32.6 0.2l-2.4 535.5l39 0.6l662.8 6.4l663.7 6.2l661.5 3.1l114.4 0.5l0.1 -536.8l-17.9 -0.2l-0.1 -540l-17.5 -0l0.1 -101.4l0.1 -238l-0 0l-0 0l-90.7 -0.2l-6.8 -0.1l-75.3 0l-6.7 -0l-134.2 -0.8l-70.4 0.4l-11.1 0.3l-10.4 0.1l-82.7 0.2l-7.2 0.8l-269.6 -0.3l-23.4 0.6l-21.5 -0l-59.1 0.2l-6.7 -0.1l-41.4 0.6l-48.8 -0.7l-209.7 0.1l-0.4 0l-1.3 0l-1.4 0l-1.3 -0.1l-308.9 1.2l-142.9 1.4l-100.8 -0.6l-156 -4.2l-265.9 -0l-0.1 -0z" />
  </g>
  <g data-id="033">
    <path d="m767.5 3008.1l0 0l-0.2 69l19.6 0.6l2.7 0l326.1 -0.7l1.4 0.1l19.4 -0.2l1.8 0l16.6 0l5.4 0.1l41.9 -0.4l2.2 0.1l19.9 0.4l1.4 0.1l20.4 -0.1l1.3 0.2l2.1 0l1.2 -0.1l16.9 -0.3l2 0.4l20.1 -0.3l1.8 0.2l20 -0.2l2 0.1l19.9 0l1.9 0.1l20.5 -0.1l2.3 0.3l18.9 -0.5l3.2 0.1l18.5 -0.1l3.5 0.3l61.4 -0.4l7.8 0.2l13.8 -0.1l17.1 0.2l98.5 -0.2l37.1 -0.4l0.2 -68.8l12.2 -0.3l-0.2 -263.3l1.2 -264.1l-31.2 -0.2l-0 -66.8l-837.4 2.1l-1.6 65.5l-8.2 0.1l1.8 527.3l-7.2 0.1z" />
  </g>
  <g data-id="035">
    <path d="m6604.1 3536.6l0 0l0 523.4l5.2 -0l513.9 -0.3l-0.8 -523.5l-1.1 -0l-517.3 0.4z" />
  </g>
  <g data-id="037">
    <path d="m7776.7 2479.9l0 0l-1.1 16.7l62 -2.5l23.8 13.8l99.8 -24.5l39.3 -29.9l47 -2l19.4 -9.2l38.9 -33.4l50 -21.8l17.2 -0.5l-0 -437.8l-130.3 -0.3l-44.2 -0l-221.7 -0.1l-0.2 199.7l0 332.1z" />
  </g>
  <g data-id="039">
    <path d="m8043.4 1414.2l0 0l-0.6 534.2l130.3 0.3l401.1 1.1l0.3 -420.6l-0.7 -114.1l-306.6 -0.7l-223.8 -0.3z" />
  </g>
  <g data-id="041">
    <path d="m4347.8 1953.2l0 0l0.1 529.6l17.1 -0l-0.1 108.6l2.1 63.9l-4.4 354.6l15.9 -0.1l912.8 0.2l249.8 -0.8l4.9 -527.7l-10.5 -0.1l0.5 -529.4l-11.2 -0.3l-531.7 0.7l-645.4 0.8z" />
  </g>
  <g data-id="043">
    <path d="m8378.2 1121.2l0 0l-0 3.7l423.4 2.3l-5 -5.2l-5.7 -9.3l-3 -9.2l-0.1 -18.2l-0.8 -7.3l-0.9 -3.9l-2.1 -5.1l-4 -6.4l-10.1 -11.7l-13.8 -7.7l-7.6 -5.1l-5.8 -5l-6.7 -9.3l-4.4 -12.5l-0.4 -5l0.3 -6.2l0.9 -4.2l3.5 -6.9l6.4 -15.7l-0.8 -8.4l-6.7 -18.5l-0.6 -10.6l2.2 -11.8l2.1 -4.6l27.7 -33.5l3.8 -7.4l4.1 -14.1l0.7 -7.9l-1.4 -15.8l-4.7 -17.7l-0.7 -2.2l-11.5 -14.9l-0.1 -0l-15.1 -5.4l-4.7 -0.6l-11.9 -1.5l-24.7 -2.6l-16.2 7.1l-6.8 4.5l-11.3 4.8l-3.7 0.6l-12.2 -0.7l-13.5 -4.1l-5 -3.1l-3.3 -3.1l-8.4 -11.8l-1.9 -4.1l-1.4 -6.1l-2.2 -6.1l-5.1 -8.5l-4.1 -4.7l-3.3 -2.9l-7.3 -4.6l-12.3 -3.7l-10.3 0.3l-11.6 3.9l-5.3 3.3l-13.5 12.3l-7.7 3.8l-5.6 1.2l-8.5 0.2l-6.2 -1.2l-3 -1.3l-16.5 -11.6l-2.5 -5.3l-3.8 -11.4l-103.8 -0.5l0.3 135.2l-5.1 12.2l-0.2 230.8z" />
  </g>
  <g data-id="045">
    <path d="m627.1 1.5l0 0l2.1 337.1l26.1 -0.3l0.4 540.2l40.7 -0.1l767.5 -4l-0 -536.6l-22.1 0.2l0.6 -335.3l-238.4 -0.8l-149.9 -0.5l-1.4 -0l-237.7 -0.1l-72.9 0.2l-114.9 -0.1z" />
  </g>
  <g data-id="047">
    <path d="m4378.7 3009.9l0 0l1.1 523.8l276.2 0.4l323 0.1l63.8 22.7l68.6 11.6l46.2 -5.4l16.6 8.6l96.2 -4.2l31 10.7l1 -43.6l-11.4 -0.1l0.7 -261l-0.3 -263.3l-912.8 -0.2z" />
  </g>
  <g data-id="049">
    <path d="m1638.2 3007.7l0 0l-0.2 68.8l48.4 0.5l3.4 0l0.3 0.1l10.8 0l10.6 -0l78.7 -0.3l19.9 0.1l1.5 -0.1l102.5 0.2l17.8 0.2l81.5 -0.1l0.2 -0l0.1 0l1.4 0l22 -0.1l4.9 -0.2l41 0.1l22.6 -0.2l3.2 0l20.8 0.2l75.7 -0l62.2 -0.1l21.6 0.1l-0 -2.3l-4.3 -66l-0 -264.3l-634.5 -0.1l0.2 263.3l-12.2 0.3z" />
  </g>
  <g data-id="051">
    <path d="m8045.2 1011.6l0 0l0.1 134.4l222.6 0.2l0.7 0l110.1 0.3l-0.5 -21.5l0 -3.7l0.2 -230.8l5.1 -12.2l-0.3 -135.2l103.8 0.5l-1.6 -7.2l-0.5 -4.7l0 -12.8l-2.3 -11.5l-3.1 -6.7l-6.4 -8.8l-5.2 -5.1l-12.1 -8.6l-19.7 -8l-6.2 -4.5l-5 -5.4l-13.2 -19.4l-10.4 -14l-3.3 -6.7l-1.9 -6.8l-0.6 -10.3l0.3 -4.1l2.1 -7.1l2.5 -5.3l11.9 -19.1l4.9 -6.9l4 -3.2l1.5 -3l0.9 -5.9l-0.1 -3.6l-0.7 -1.6l-4.1 -4.8l-7.3 -4.6l-34.7 -12l-8.5 -0.4l-13.1 1.5l-2.8 0.8l-2.1 2.1l-14.7 3.7l-16.1 -1.6l-17.2 -4.7l-6.3 -3.5l-2.6 -2.4l-1.4 -3.9l2.3 -18.8l-0.3 -12.6l-1.3 -9.8l-5.2 -8.4l-7.9 -3.5l-7.2 -2.1l-11.6 -1l-15.9 -5.6l-7.5 -4.7l-12 -9l-14.1 -5.1l-16.1 -1.8l-22.8 -13.4l-15.7 3.7l-4.2 1.7l-7 6l-7.5 4.7l-5 2.9l-8.9 3.3l-8 0.4l-6.5 -1l-2.2 -1.2l-1.4 -2.8l-1 -3.2l-0.2 -4l5.2 -14.7l0.5 -3.9l-0.4 -2.4l-8.7 -21.3l-7.4 -6.3l-4.3 -2.8l-3.5 -0.7l-12.1 1.7l-26.3 -3.3l-2.1 502.8l-0.1 134z" />
  </g>
  <g data-id="053">
    <path d="m8173.1 1948.7l0 0l0 437.8l0.1 4.6l78 11.4l21.2 8.7l52.3 -15.2l30.5 0.6l41.5 28.9l21.8 7.8l65.6 -13.3l74.7 2.1l56.3 38.3l18.2 17.5l37.5 4.8l162 0.2l0.1 -66.3l-43.9 -0.1l0.2 -21.7l-22 -0.5l0.1 -22.1l-22 -0.1l-0.4 -22.3l-22 0.2l-0 -22.2l-10.9 -0.1l0.4 -44.3l-10.8 -0l-1 -244.2l0.6 -89.1l-126.9 -0.4l-401.1 -1.1z" />
  </g>
  <g data-id="055">
    <path d="m8670.8 2482.9l0 0l13 20l43.3 24.3l16.5 45.5l-0.7 30l34 24.8l31.2 50.4l-0.2 13.6l-16.9 33.6l17 45.5l26.6 21.6l149.5 -1l43.8 -0.2l88 0l65.8 0.1l16.8 -0l3.7 0l66.3 -0.4l9.6 -0.2l18.7 0.1l-3.2 -7.1l-1.7 -9.9l3 -13.7l11.2 -17.9l2.9 -6.1l1.9 -7.3l0 -3.3l-0.6 -6.1l-6.5 -17.9l-4.8 -13.2l-0.7 -9.3l-3 -12.7l-0.6 -2.5l-4.2 -10.4l-1 -5.6l0 -8.1l0 -2.8l2.4 -9.3l8.2 -4.1l16.5 0.3l1.8 2l0 9.3l6 14.7l10.2 8.4l8.9 -4.7l6.3 -5.6l4.6 -6.7l0.1 -0.9l1.5 -8.7l-3.7 -17.2l-4 -8.2l-5.6 -6.4l-6.4 -3.7l-12.1 -3.2l-16.6 1.5l-9.5 -1.4l-4.1 -1.7l-15.6 -10.2l-8.7 -7.9l-7.1 -8.8l-4.1 -8.5l-0.1 -5.6l2.2 -4l3.1 -2.6l12.8 -6.1l6.3 -4.7l5.1 -6.2l2.5 -8.2l-0.6 -7.3l-6.7 -14.5l-2 -10l-2.7 -3.4l-140.7 0l-194.9 0.1l-110.1 -0l-162 -0.2z" />
  </g>
  <g data-id="057">
    <path d="m2288.8 4341.2l0 0l-0.1 21.4l0.3 217.1l154.4 -0.1l14.3 -0l72.2 0.6l10.1 -0.2l28 0.2l3.2 0.1l203.3 0.2l1.4 -0.1l95.5 0.2l143 0.3l7.1 0.1l1.2 0l40.7 -0.2l36 -0.1l19.8 -0.2l1.7 -0l-1.2 -488.9l1.9 -31.6l-22.2 0.2l-810.5 1.8l0.3 16.3l-0.7 154.5l0 9.2l-0 99.6z" />
  </g>
  <g data-id="059">
    <path d="m7122.4 3536.2l0 0l0.8 523.5l3.8 -0l517 0.2l0.3 -523.9l-521.9 0.1z" />
  </g>
  <g data-id="061">
    <path d="m5573.5 4059.5l0 0l0.3 521.9l0.2 0l10.5 0.1l53.5 -0.4l10.9 -0l31.9 0.1l21.2 -0.1l53.4 -0.1l1.9 -0.1l30.4 0.2l22.7 -0.1l0.6 -0l12.2 -0.1l0.1 0.1l29.9 0.1l114.7 -0.2l15.9 0.1l49.6 -0.1l2.6 0l55.5 0.2l-0.5 -521.1l-517.5 -0.4z" />
  </g>
  <g data-id="063">
    <path d="m3741.8 3601l0 0l1.9 422l2.5 38.3l21.7 -0.1l447.6 -3l193.4 2.2l117.8 -1.8l-0.3 -131.2l130.2 0.5l-0.6 -394l-276.2 -0.4l-634.1 0.2l-3.9 67.2z" />
  </g>
  <g data-id="065">
    <path d="m4408.9 4060.5l0 0l4.8 521.5l3.7 -0l2.4 0.1l11.8 -0.1l0 0l213.7 0.1l4.9 -0.1l44 -0.4l4.3 0.3l16 0.1l27.2 0l106.6 0.2l43.2 -0.4l4 -0.2l9 0.4l8.4 0.3l11.7 -0.7l16.8 -0l14.1 0l104.4 -0.1l0.1 0l-2.5 -522.7l-13.4 -0.1l-517.5 -0.1l-117.8 1.8z" />
  </g>
  <g data-id="067">
    <path d="m8161.1 4582.1l0 0l0.4 -0l40.7 0.1l2.5 -0l3.7 0l1.4 -0l77.8 0.1l209.7 0.3l13.8 0.4l6.2 -0l26.4 -0.1l1.1 -0l11.4 -0.2l14.9 0.2l21.6 0.2l13.6 -0.3l65.4 0.1l2.8 -0.1l4.4 0.1l0.1 -390.7l0 -391.6l-278.5 -0.1l-235 -0.8l-0.9 257.1l-3 4.1l-0.4 521.1z" />
  </g>
  <g data-id="069">
    <path d="m1573.4 1545.5l0 0l-0.9 313.2l4.8 45.1l10.7 43.8l32.5 0.5l-0.3 464.9l0 66.8l31.2 0.2l-1.2 264.1l634.5 0.1l0.3 -264.3l80.8 0.7l-1 -531.2l-94.2 0.3l1.4 -410.2l-698.6 6z" />
  </g>
  <g data-id="071">
    <path d="m5523.9 1418.3l0 0l1 533.4l11.2 0.3l517.9 0.4l-2.3 -535l-527.8 0.9z" />
  </g>
  <g data-id="073">
    <path d="m4526.4 3927.4l0 0l0.3 131.2l517.5 0.1l-1.4 -502l-63.8 -22.7l-323 -0.1l0.6 394l-130.2 -0.5z" />
  </g>
  <g data-id="075">
    <path d="m2271.9 1539.5l0 0l-1.4 410.2l94.2 -0.3l639.9 -1.2l-0.7 -536.5l-662.8 -6.4l-2.7 134.7l-66.4 -0.5z" />
  </g>
  <g data-id="077">
    <path d="m6061.9 1952.4l0 0l0.8 529.3l8.3 -0.1l517.9 0.4l0.1 -132.4l0.4 -392.3l-5.5 -6l-522 1.2z" />
  </g>
  <g data-id="079">
    <path d="m6096.5 3009.7l0 0l0.1 196.7l0.5 329.2l501.5 0.9l0.3 -257.3l0 -7.4l0 -64l0 -43.9l0.2 -147.8l-5.5 -6.1l-235.1 -0.2l-262.1 -0.3z" />
  </g>
  <g data-id="081">
    <path d="m6599 3279.3l0 0l-0.3 257.3l5.4 -0l517.3 -0.4l-0.6 -526.3l-1.9 -5.4l-0.3 -187.2l-52.4 76.4l-13.4 12.9l-92.7 44.1l-4.1 -7.9l-34.7 19.3l-29.2 37.4l-31.9 23.8l-39.8 42.6l-13.4 1.4l-52.2 37l-26.9 44.7l-42.5 27.5l-78 86.3l-8.5 16.5z" />
  </g>
  <g data-id="083">
    <path d="m5057.7 4058.8l0 0l2.5 522.7l2.6 0l0.8 -0l141.3 -0.2l3.2 0.1l1.5 0.1l4.8 -0l14.6 -0l65.4 -0.5l12.5 0.6l10.6 -0.2l128.9 0l4.6 -0.1l4.2 0.2l33.1 -0.3l4.2 0.2l38.9 -0.1l21.5 -0l9.9 0l2.2 0.1l9 0l-0.3 -521.9l-515.8 -0.7z" />
  </g>
  <g data-id="085">
    <path d="m3096.7 3536.9l0 0l2.9 523l22.2 -0.2l624.3 1.6l-2.5 -38.3l-1.9 -422l3.9 -67.2l-537.6 3.5l-111.4 -0.4z" />
  </g>
  <g data-id="087">
    <path d="m3119.4 4580.3l0 0l1.7 -0l34.4 0.2l8.5 0l43.3 0l38.5 -0l26.1 0.1l15.3 0l11.6 -0.1l43.2 0.2l80.7 0.2l37.3 0.1l103.2 0.2l204.2 -0.2l0.4 -230.1l-2.9 -27.9l3 -261.6l-21.7 0.1l-624.3 -1.6l-1.9 31.6l1.2 488.9l-1.7 0z" />
  </g>
  <g data-id="089">
    <path d="m5484.7 308.2l0 0l0.2 33.7l12.6 0.2l1.4 540.5l12 0.2l-0.6 535.4l13.6 0.1l527.8 -0.9l526.6 -0.5l0.4 -537.8l-6 -0l0.4 -503.7l-40.5 -14.7l-22 4.7l-64.2 -12.5l-53.6 14.7l-32 -10.7l-46 -2.4l-19.8 -11l-40.4 3l-83.6 -45.6l-20.3 9.9l-40.5 -1.2l-60.8 -38.1l-38.8 5.5l-24.1 -9l-24.9 -24.1l-43.2 6.9l-12.2 -3.6l-75.7 -78.9l-31.9 -3.7l-39.2 15.9l-45.7 36.9l-45.2 9.8l-36.3 18.7l-29.5 3.7l-30.1 19.9l-32.4 9.8l-55.5 28.9z" />
  </g>
  <g data-id="091">
    <path d="m3003.9 1411.7l0 0l0.7 536.5l22.2 -0.2l644.9 4.3l-4.2 -534.4l-663.7 -6.2z" />
  </g>
  <g data-id="093">
    <path d="m6071 2481.5l0 0l-4.8 528.3l30.4 -0.1l262.1 0.3l235.1 0.2l0.7 -528.3l-5.5 0l-517.9 -0.4z" />
  </g>
  <g data-id="095">
    <path d="m7643.4 4581.2l0 0l0.1 -0l20.8 0.2l0.7 -0.1l120.2 0.7l0.1 0.1l48.9 0l2.4 -0.2l21.1 -0l45 0.1l5.2 -0.5l100.9 0.7l21.6 -0l24.7 -0.2l106.1 -0.1l0.4 -521.1l-517.6 -1l-0.6 521.3z" />
  </g>
  <g data-id="097">
    <path d="m8678.9 3800.6l0 0l-0 391.6l453.9 0.2l-0.3 -392l-453.5 0.2z" />
  </g>
  <g data-id="099">
    <path d="m5573.6 3593.5l0 0l-0.2 466l517.5 0.4l3.3 0l-0.5 -510.5l-116.9 22.6l-47.8 23.5l-43.1 9.7l-79.3 -6.2l-24.8 7l-42.7 -0.9l-53.2 -6.4l-38.4 3.3l-45 -6.3l-19 0.8l-10 -3.1z" />
  </g>
  <g data-id="101">
    <path d="m2284.7 2744.3l0 0l0 264.3l4.3 66l916.8 -0.1l-0.2 -65.8l-23.1 -0l0.8 -528.3l-157.3 -0.7l-660.2 1.1l-80.8 -0.7l-0.3 264.3z" />
  </g>
  <g data-id="103">
    <path d="m4408.2 5l0 0l-0.1 238l12.2 13.2l48.5 11.5l13 34.9l23.6 12.7l65.7 22.2l55 -4.9l44.5 25.1l24.7 -0.8l56.3 11.7l41 -5.5l8.1 25.2l20.3 -2l23.4 17.3l44 12.2l29.6 -3.8l47.2 16.4l38.3 -5.9l20.4 -6.5l39.4 17.2l50 -0.1l50.5 10.1l76.7 -32.2l9.1 -20.7l29.1 -3.1l25 -28.8l17.9 1.1l24.7 -16.9l47.5 2.8l41.5 -24.6l28.8 2.1l20.5 -14.8l3.5 -156.9l-0.6 -145.7l-9.4 -0.1l-29 0.1l-67.7 -0.1l-24.4 0.1l-2.9 0.1l-3.6 0.1l-24.4 -0.2l-86.7 0.3l-3.6 -0.2l-18.6 -0.1l-4 0l-45.5 0.1l-1.5 0l-38.8 0.1l-148.6 0.2l-2.5 -0.2l-20.3 0.1l-8.7 0l-18.7 -0l-29 -0.3l-22.6 0.2l-13.8 0.1l-3.5 -0.1l-6.9 -0.2l-14.3 0.3l-32.2 -0.3l-11.3 0.3l-11.4 -0.2l-8.9 0l-46.5 0.1l-10.6 -0.1l-26 -0.3l-0.6 -0l-11.8 -0.1l-49.8 -0.1l-26.4 -0.1l-7.5 -0l-97.1 -0.4l-8.2 -0l-0.5 -0l-81.8 0.3z" />
  </g>
  <g data-id="105">
    <path d="m0 2841.9l0 0l0.4 65l0.1 14.4l0.1 22.3l-0.2 0.8l0.1 108.7l-0.1 1.9l-0.1 23.3l16 -0.1l18.1 -0.6l5.9 0.4l52.1 0l1.5 0.1l20.4 -0.1l54 0.3l11.6 -0.6l20.9 0.1l22.3 -0l123.4 -0.6l201.2 0.5l0.9 0l87.3 0.1l12.3 -0.4l74 -0.1l0.1 0.1l28.5 -0.9l16.6 0.5l0.2 -69l7.2 -0.1l-1.8 -527.3l-85.9 1.7l-685.5 0.5l-0.5 95.4l0.4 14.4l-0.2 0.3l-0.1 7.2l0.1 57.8l-0.1 0.3l-0.1 4.2l-1 179.4z" />
  </g>
  <g data-id="107">
    <path d="m6567.9 186.1l0 0l-0.5 152.7l5.8 36.5l-0.4 503.7l6 0l532.6 -1.2l399.2 -1.4l0.4 -640.2l-7.5 -2l-5.4 -2.5l-3.3 -3.1l-1.4 -3.2l-5.2 -2l-12.7 7.4l-18.2 5.7l-17.8 3.2l-16.5 0.7l-14.4 -3.3l-19.9 -6.5l-8.4 -3.7l-5.1 -3.3l-9.2 -0.1l-9.7 2.8l-17.3 8l-12.9 6l-12.7 4.6l-11.9 2.5l-20.8 0.9l-16.6 -2.1l-22.2 -5.7l-34.2 -3.2l-4 0.8l-12.5 -0.1l-11.1 -1.1l-16 -5.6l-14.7 -7.2l-4 -1.3l-14 -4.6l-10 -9l-3.1 -2l-6.5 0l-12.7 1.7l-14.5 4.1l-8.8 3.5l-11 6.5l-1.9 6.8l0.1 2.7l1.4 3.7l-0.2 4l-3.6 6.3l-1 12.9l-5.7 14.3l-4.2 14l-1.9 3.3l-4.7 5.3l-12.1 20l-4.6 6.2l-8 7.8l-6.3 2.4l-13.2 15.8l-4.3 3.8l-15.4 9.6l-3.8 0.9l-9.8 0.5l-17.8 -1.9l-17.1 7.5l-9 2.9l-2.5 -0l-3.7 -1.4l-8.4 2.9l-4.8 -0.2l-20.4 -2.8l-2.4 -2.4l-5.6 -2.5l-3.1 -1.1l-7.9 -1.2l-5.7 -3.1l-3.7 -3.1l-1.6 -8.1l-1.9 -4.9l-5.1 -5.7l-17.6 -14.9l-5.8 -2.3l-7.7 -5.5l-11.6 -14.3l-3.4 -3.4l-22.6 -14.8l-1.8 -1.7l-10.1 -17.9l-10.3 -11.1l-1.3 -0.3l-5.7 1.5l-11.6 3l-4.9 0.3l-4.1 -0.3l-21.3 -7l-16.9 -8.1l-17.5 -9.8l-5 -3.7l-2.6 -3.5l-6.2 -5.3l-17 -11.3l-3.4 -5.4l-2.3 -1.5l-7.4 -2.4l-11.5 0.4l-13.3 -1.3l-20 -7.9l-14.1 -3.9z" />
  </g>
  <g data-id="109">
    <path d="m8164.5 3537.1l0 0l1 262.6l235 0.8l278.5 0.1l-0.2 -349.5l0 -43.8l-0.1 -351.1l-0 -44l-156.9 -0.5l-351.5 -1l-2.8 -0l0.3 351.4l-0.5 175l-2.7 0z" />
  </g>
  <g data-id="111">
    <path d="m3183.2 2480.3l0 0l-0.8 528.3l23.1 0l0.2 65.8l2.3 462.8l537.6 -3.5l634.1 -0.2l-1.1 -523.8l-15.9 0.1l4.4 -354.6l-2.1 -63.9l0.1 -108.6l-17.1 0l-528.5 -0.3l-636.3 -2.2z" />
  </g>
  <g data-id="113">
    <path d="m3817.7 2251.6l0 0l1.4 32.5l0.4 198.4l528.5 0.3l-0.1 -529.6l-16.3 -0.1l-510.3 0.1l-3.6 298.3z" />
  </g>
  <g data-id="115">
    <path d="m4993.1 1421.1l0 0l0.1 531.3l531.7 -0.7l-1 -533.4l-13.6 -0.1l-489.1 3.1l-28.1 -0.1z" />
  </g>
  <g data-id="117">
    <path d="m3026.8 1948l0 0l-0.9 531.6l157.3 0.7l636.3 2.2l-0.4 -198.4l-1.4 -32.5l3.6 -298.3l-149.5 -1l-644.9 -4.3z" />
  </g>
  <g data-id="119">
    <path d="m7111.3 1415.5l0 0l1.4 266.9l0.9 259.5l2.3 7.6l528.8 -1.5l-0.2 -400.4l-0.2 -133.9l-533 1.8z" />
  </g>
  <g data-id="121">
    <path d="m6594.4 2481.9l0 0l-0.7 528.3l5.5 6.1l-0.2 147.8l-0 43.9l-0 64l-0 7.4l8.5 -16.5l78 -86.3l42.5 -27.5l26.9 -44.7l52.2 -37l13.4 -1.4l39.8 -42.6l31.9 -23.8l29.2 -37.4l34.7 -19.3l4.1 7.9l92.7 -44.1l13.4 -12.9l52.4 -76.4l31.7 -30.2l39.5 -63.2l61.9 -49.2l60.9 -57.3l31.5 -2.9l37.5 -16l-0.1 -24.2l-0.2 -94.4l-120.4 0.3l-2 130.6l-220.4 1.4l0.4 22.2l-177.5 0.8l0 22.2l-55.5 -0.2l0.1 22.2l-198.8 -0.5l1.7 -197.2l-14.5 -0.1z" />
  </g>
  <g data-id="123">
    <path d="m781.1 1947.6l0 0l0 67.8l1.6 399.8l837.4 -2.1l0.3 -464.9l-32.5 -0.5l-10.7 -43.8l-4.8 -45.1l0.9 -313.2l-23.2 0.7l-188.1 6.4l-102.9 -1.7l-470 -1.8l0.8 398.3l-8.9 0.1z" />
  </g>
  <g data-id="125">
    <path d="m6588.9 2349.5l0 0l-0.1 132.4l5.5 -0l14.5 0.1l-1.7 197.2l198.8 0.5l-0.1 -22.2l55.5 0.2l-0 -22.2l177.5 -0.8l-0.4 -22.2l220.4 -1.4l2 -130.6l0.2 -201.3l-144.3 1l-63.6 0.5l0.2 22.1l-178.4 1.4l-0.2 22.2l-66.7 0.9l0.3 22.3l-219.3 0.1z" />
  </g>
  <g data-id="127">
    <path d="m9132.4 3800.4l0 0l0.3 392l64.7 0.8l523.4 -0.6l-2.1 -2.2l-0.6 -1.6l-1.7 -4.9l0.1 -4.6l5.5 -15.4l0.6 -7.3l-0.7 -4.1l-1.9 -3.7l-6.2 -6.9l-3.9 -2.4l-6.8 -2.7l-15.6 -0.7l-6.4 -3.1l-3.2 -2.3l-9.7 -9.9l-7.4 -4.1l-6.1 -2.1l-3.5 -0.4l-5.1 0.8l-6 1.9l-15 7.2l-6.8 2.5l-3.5 0.5l-7.1 -1.5l-3.2 -1.8l-3.5 -4.4l-0.8 -2.8l0.3 -4.6l1.3 -5.5l3.3 -4.7l6.6 -4.5l16.2 -5.6l4.4 -2.5l5.4 -4.9l2.3 -6.1l0.5 -3.7l-1.2 -8.6l-1.2 -4l-2.6 -5.4l-5 -6.8l-6.3 -6.1l-4.6 -7.6l-1.6 -5.1l-0.3 -7.8l0.6 -4.9l-2 -12.9l-6.3 -14l-11.1 -18.8l-2.7 -10.9l0.8 -4.3l2.8 -8.6l2.3 -6.3l0.8 -9l-2.9 -10.7l-8.3 -14l-7.2 -8.3l-6.2 -5.2l-8.2 -4.8l-10 -9.1l-1.7 -3.1l-2 -6.7l-0.4 -4.4l0.6 -4.9l1.1 -6.7l0.6 -10.5l-1.4 -8.2l-4.6 -9.4l5 -1.8l4 -2.5l27.6 -10.3l7.2 -3.5l6.9 -9.4l3.9 -21.9l-1.3 -5.7l-2.8 -7.1l-7.1 -5l-3.9 -10.1l-7.2 -8.9l-8 0.1l-9.6 2.9l-8 5.6l-0.8 9.4l-2 8.4l-0.7 12.3l2.6 5.8l-2.5 7l-13 10.4l-1.6 -3.4l-408.3 1z" />
  </g>
  <g data-id="129">
    <path d="m6609.3 4060l0 0l-0.5 520.6l6.6 0l20.8 0.3l64.6 -0.5l16.2 0.2l8.1 0.1l17.6 -0l16.9 -0l48.5 0.3l27 -0.1l8.4 -0.1l21.3 0.1l3 0.1l37.8 -0.1l4.9 0.1l43.4 0.1l46.2 0.1l0 0l63.5 -0.1l21.5 0.1l21.8 0.2l19.2 -0.1l0.1 0l0.8 -521.6l-3.8 0l-513.9 0.3z" />
  </g>
  <g data-id="131">
    <path d="m8678.7 3407.3l0 0l-0 43.8l0.2 349.5l453.5 -0.2l408.3 -1l-4.9 -5.1l-9.3 -1.4l-3.2 0.5l-6.8 3.5l-6.9 2.3l-13.1 -0.5l-9.6 -2.6l-6.6 -3.6l-4.6 -4.8l-2 -3.8l-0.7 -3.8l1 -5.6l4.2 -8.1l1.2 -3.9l0.3 -3.8l-0.5 -4.6l-1.4 -4.6l-7.7 -13.9l-3.3 -11.2l1.3 -7l5.7 -7.7l3.3 -2.9l7.7 -5.7l6.6 -5.8l3.5 -6.3l1.4 -4.4l0.3 -5.1l-1.2 -5.3l-1.8 -3.3l-7.7 -7.1l-7.3 -5l-2.8 -2.5l-2.4 -3.7l-1.3 -4.8l-0.4 -16.4l-1 -6.2l-1.7 -4.7l-3.9 -7.5l-6.5 -8.8l-5.3 -6l-3.3 -3.2l-6.9 -4.5l-10.1 -3.8l-11.3 -1l-10 -2.5l-9.1 -5.1l-1.5 -0.9l-12.1 -9.5l-2.3 -3.6l-1.4 -4.1l-2.2 -17.5l-2.2 -6l-3.2 -6.2l-7.7 -8.7l-12.7 -6.7l-5.5 -2.5l-2 -0.3l-7 -5l-2.5 -5.3l-4.1 -16.2l0.2 -6.7l2.3 -8.8l3.5 -8.6l5.3 -7.9l6.5 -6.8l3.8 -3.1l9.5 -4.9l10.2 -4.2l7 -4.5l4.3 -3.7l4.5 -5.2l2.3 -2.9l1.9 -4l1.2 -5.8l-0.1 -1.2l-88.7 -0.6l-631.2 0.3z" />
  </g>
  <g data-id="133">
    <path d="m8678.8 4192.2l0 0l-0.1 390.7l0.1 0l181.9 0.5l4 -0l70.7 -0.1l0 -0l17.5 -0.1l4.2 0l75.2 0.3l0.1 0.1l8.1 -0l24.3 0.1l0.2 -0.1l41.2 -0.1l9.6 -0.1l34 -0.2l31.6 0l15.3 0.1l0.6 -390.1l-64.7 -0.8l-453.9 -0.2z" />
  </g>
  <g data-id="135">
    <path d="m2289 3074.6l0 0l0 2.3l0.1 0l0.4 382.3l-0.1 78.5l807.3 -0.8l111.4 0.4l-2.3 -462.8l-916.8 0.1z" />
  </g>
  <g data-id="137">
    <path d="m5042.8 3556.8l0 0l1.4 502l13.4 0.1l515.8 0.7l0.2 -466l-74.8 1.7l-66.2 -7.2l-33.2 -11l-50.8 10.8l-40.8 -5l-6.5 -4.9l-31 -10.7l-96.2 4.2l-16.6 -8.6l-46.2 5.4l-68.6 -11.6z" />
  </g>
  <g data-id="139">
    <path d="m7111.4 877.9l0 0l-0.1 537.6l533 -1.8l0.8 -402.9l0.2 -134.6l-134.6 0.3l-399.2 1.4z" />
  </g>
  <g data-id="141">
    <path d="m7115.9 1949.5l0 0l0.7 330.6l144.3 -1l-0.2 201.3l120.4 -0.3l0.2 94.4l31.6 -6.3l55.1 -37.6l82.6 -10.4l93.7 -42.1l35.8 7.2l56.2 -13.6l39.2 25l1.1 -16.7l-0 -332.1l0.2 -199.7l-132.2 -0.2l-528.8 1.5z" />
  </g>
  <g data-id="143">
    <path d="m7118.5 2817.4l0 0l0.3 187.2l1.9 5.4l523.9 -0.6l-0.1 -531.3l-93.7 42.1l-82.6 10.4l-55.1 37.6l-31.6 6.3l0.1 24.2l-37.5 16l-31.5 2.9l-60.9 57.3l-61.9 49.2l-39.5 63.2l-31.7 30.2z" />
  </g>
  <g data-id="145">
    <path d="m3764.9 4322.9l0 0l2.9 27.9l-0.4 230.1l7.6 0.3l15.3 -0.1l6.3 -0.1l3.9 0.2l10 0.1l43.1 -0.2l26.5 0.1l16.9 0.4l50.9 -0l7.1 -0.1l31.5 0.1l17.6 0l46.7 0.1l27.3 0.1l11.6 0l1.3 -0l8.1 0.1l24.8 -0.1l9.1 0l56 -0.1l181.2 0.3l2.5 -0.1l16.1 0.1l21.1 0.2l3.9 -0.1l-4.8 -521.5l-193.4 -2.2l-447.6 3l-3 261.6z" />
  </g>
  <g data-id="147">
    <path d="m9197.4 4193.2l0 0l-0.6 390.1l60.1 0.2l86.5 0.1l108 0l0.1 0l3.9 -0l468 0.7l40.4 0l36.1 0l-0.2 -3.3l-3.1 -8.4l-1.2 -2.4l-3.5 -4l-3.1 -1.7l-12 -3.6l-8.9 -5.1l-11.8 -13.7l-2.5 -1.5l-9.3 -3.3l-8.1 0l-21.7 6.5l-4.8 0.5l-5 -0.4l-5 -1.5l-7.8 -3.8l-5.3 -3.8l-7.2 -7.9l-3.7 -7.2l-2.9 -7.8l-2.7 -15.7l1.1 -5.4l2.6 -5.8l4.1 -4.9l5.6 -6.7l1.6 -7.2l-0.9 -7.5l-1.6 -11l3.5 -9.7l8.5 -7.8l3.4 -2.9l3.4 -4.6l1.3 -4.4l0.3 -7l-0.6 -5l-2.3 -5.4l-3.8 -5.4l-6.5 -3.9l-5.8 -1.5l-11.1 -0.8l-6.4 -3.3l-4.5 -4.2l-2.6 -4.2l-1.3 -3.9l-1.4 -7.6l-0.5 -10.2l-1.1 -4.6l-1.8 -4l-5 -5.3l-2.4 -1.5l-13.8 -5l-6.7 -3.9l-11.8 -11.6l-6 -7.6l-3.3 -5.5l-2.1 -4.3l-1.7 -5.6l-0.2 -7.6l0.5 -5l5 -11.9l5.1 -7.2l2.4 -5.8l1.5 -6.3l0.4 -9.6l-0.7 -4.4l-2.5 -7.9l-5.7 -9.9l-6 -5.3l-3.7 -2.3l-5 -1.7l-11.4 -1l-17.4 1.7l-7.4 -1.4l-28.9 -14.4l-6.1 -4.3l-523.4 0.6z" />
  </g>
  <g data-id="149">
    <path d="m5003.7 422.5l0 0l1.9 460.4l14 -0.2l1.6 538.6l489.1 -3.1l0.6 -535.4l-12 -0.2l-1.4 -540.5l-12.6 -0.2l-0.2 -33.7l-20.5 14.8l-28.8 -2.1l-41.5 24.6l-47.5 -2.8l-24.7 16.9l-17.9 -1.1l-25 28.8l-29.1 3.1l-9.1 20.7l-76.7 32.2l-50.5 -10.1l-50 0.1l-39.4 -17.2l-20.4 6.5z" />
  </g>
  <g data-id="151">
    <path d="m7644.3 3536.1l0 0l-0.3 523.9l517.6 1l3 -4.1l0.9 -257.1l-1 -262.6l-520.2 -1z" />
  </g>
  <g data-id="153">
    <path d="m8828.4 2929.4l0 0l-7.9 26l23.6 56.9l22.2 25.8l17.6 9.5l38.4 4.5l20.4 27.1l16 9.9l12.9 -2l72 -33.3l39.8 -46.7l61.3 -25.7l25.4 -1l33 8.2l20.4 12l43.2 -8.7l1.2 0.8l1.2 0.5l1.4 0l1.5 -0.5l63.6 -0.8l11.1 7.8l-2.7 -5.9l-0.6 -4.9l1.2 -7.3l3.7 -6.6l8.5 -8.6l5.9 -7.8l1.9 -4.8l1.4 -7.4l-0.8 -8.1l-2.5 -11.4l-0.5 -25.2l-3.2 -10.3l-11.7 -20.3l-3.7 -9l-1.5 -10.5l-0.1 -6.1l2.5 -7.6l0.4 -0.6l5.3 -7.4l5 -4.5l2.6 -1.1l2.6 0.1l2.6 1.4l14 3.7l7.5 -2l4.9 -6.7l0.7 -5.8l0 -0.2l-3.2 -8.5l-7 -6.4l-7.5 -3.5l-9.1 -1.8l-51.3 5.9l-5.6 -1.1l-4.2 -2.4l-5.6 -6.5l-0 -0.1l-18.7 -0.1l-9.6 0.2l-66.3 0.4l-3.7 -0l-16.8 0l-65.8 -0.1l-88 -0l-43.8 0.2l-149.5 1l13.1 69.9l-4 21.5l3.6 7l6.1 15l-25 23.9z" />
  </g>
  <g data-id="155">
    <path d="m8170.5 2481.6l0 0l-0.3 529l351.5 1l156.9 0.5l0 44l130.8 1.3l0.4 -44.4l34.2 -0.7l-23.6 -56.9l7.9 -26l25 -23.9l-6.1 -15l-3.6 -7l4 -21.5l-13.1 -69.9l-26.6 -21.6l-17 -45.5l16.9 -33.6l0.2 -13.6l-31.2 -50.4l-34 -24.8l0.7 -30l-16.5 -45.5l-43.3 -24.3l-13 -20l-37.5 -4.8l-18.2 -17.5l-56.3 -38.3l-74.7 -2.1l-65.6 13.3l-21.8 -7.8l-41.5 -28.9l-30.5 -0.6l-52.3 15.2l-21.2 -8.7l-78 -11.4l0.1 85.5l-2.8 4.9z" />
  </g>
  <g data-id="157">
    <path d="m0.7 1698l0 0l-0.1 31.8l0.3 233.3l-0.1 54.3l759.1 -2.8l21.2 0.8l-0 -67.8l8.9 -0.1l-0.8 -398.3l-43.8 -0.9l-744.5 2.8l0 4.7l-0.1 5.7l-0.1 0.6l-0 28.7l0.1 4.5l-0.3 89.2l0.1 13.6z" />
  </g>
  <g data-id="159">
    <path d="m7644.6 3009.3l0 0l-0.3 526.7l520.2 1l2.7 -0l0.5 -175l-0.3 -351.4l-522.8 -1.3z" />
  </g>
  <g data-id="161">
    <path d="m1442.4 2.7l0 0l-0.6 335.3l22.1 -0.2l0 536.6l27.4 -0l-0.5 33.8l2.4 102.3l1.5 157.9l5.6 111.5l-0.8 131.6l45.6 -0.6l0.3 63.8l4.9 71.6l23.2 -0.7l698.6 -6l66.4 0.5l2.7 -134.7l-39 -0.6l2.4 -535.5l-32.6 -0.2l-0.2 -531.4l-20.6 -0l2.8 -333.8l-409.4 -0.4l-53.5 0.1l-348.5 -0.7z" />
  </g>
  <g data-id="163">
    <path d="m5546.2 2481.5l0 0l-4.9 527.7l524.9 0.6l4.8 -528.3l-8.3 0.1l-516.5 -0.1z" />
  </g>
  <g data-id="165">
    <path d="m0.4 1.8l0 0l0.3 383.9l0.1 7.2l0.3 155.4l-0.2 25l0.2 4.8l-0.2 29.8l-0 0.3l0 1.2l-0.4 172.1l0.4 374.2l-0 12.8l-0.4 0l0.4 123l0.2 5.4l-0.5 45.6l0.3 5.4l0.2 13.6l-0.4 55.3l-0 21.6l-0 0.1l0.1 82l0.2 8.4l0 22.5l744.5 -2.8l-0 -134l-48.5 -0.2l-0.5 -535.6l-40.7 0.1l-0.4 -540.2l-26.1 0.3l-2.1 -337.1l-0.1 -0l-1.1 -0l-0.5 0l-79.8 -0.1l-0.7 0.1l-47.3 0.1l-39.5 -1.1l-71.1 0.7l-113 -0.6l-1.9 0.2l-125 0.6l-47.3 -1.2l-28.4 0l-71 1.7z" />
  </g>
  <g data-id="167">
    <path d="m7644.3 1413.7l0 0l0.2 133.9l0.2 400.4l132.2 0.2l221.7 0.1l44.2 0l0.6 -534.2l-266.5 -0.3l-132.6 -0.2z" />
  </g>
  <g data-id="169">
    <path d="m7127 4059.7l0 0l-0.8 521.6l2.4 0.1l48.3 -0.3l7.3 0.3l1.8 -0l1.7 0l288.7 0.1l4.5 0l1.3 0.1l53.7 -0.3l21.3 0.1l22 -0.1l8.7 0l2.3 0l53.3 -0.1l0 -0l0.6 -521.3l-517 -0.2z" />
  </g>
  <g data-id="171">
    <path d="m3667.6 1417.9l0 0l4.2 534.4l149.5 1l510.3 -0.1l-2.5 -532.1l-661.5 -3.1z" />
  </g>
  <g data-id="173">
    <path d="m8268.5 1146.2l0 0l-1.3 268.3l306.6 0.7l0.7 114.1l108 -1.8l172.4 2.9l0.3 -48.5l41.7 -0.9l-3 -7.2l-3.3 -13l-1 -15.2l0.3 -5.8l2.7 -11.4l3 -7l2.7 -4.3l4.7 -11.5l1.2 -10.9l-0.8 -10.8l-1.8 -5.1l-3.9 -7.4l-3.1 -3.7l-4.8 -4.2l-7.4 -3.3l-17.6 -3.7l-5.6 -2.8l-4.8 -4.2l-4.3 -5.9l-3.6 -10.5l-2.9 -5.4l-7.3 -7.5l-13.8 -8.8l-5 -5.1l-6.1 -9.7l-2.2 -8.1l-0.7 -8.3l3.5 -14.3l-0.9 -12.4l-1.3 -3.9l-2.7 -5l-8.7 -11.3l-0.9 -4.2l2 -5.5l1.7 -1.6l0.1 -0.1l13.2 -3.6l6.8 -0.9l3.2 -1.3l4.9 -4.1l9.5 -12.8l1 -2.4l-0 -3.4l-8.2 -10.2l1.2 -2.6l1.4 -12.5l-1.4 -7.3l-2.8 -7.3l-5.3 -8.3l-6.2 -6.7l-17.1 -11.4l-0 -0l-423.4 -2.3l0.5 21.5l-110.1 -0.3z" />
  </g>
  <g data-id="175">
    <path d="m5536.2 1952l0 0l-0.5 529.4l10.5 0.1l516.5 0.1l-0.8 -529.3l-7.9 -0l-517.9 -0.4z" />
  </g>
  <g data-id="177">
    <path d="m8700.4 2039.3l0 0l1 244.2l10.8 0l-0.4 44.3l10.9 0.1l0 22.2l22 -0.2l0.4 22.3l22 0.1l-0.1 22.1l22 0.5l-0.2 21.7l43.9 0.1l-0.1 66.3l110.1 0l194.9 -0.1l140.7 -0l2.7 3.4l-0.6 -3.2l0.7 -5l7 -14.9l1.2 -7.9l-0.2 -5.8l-2.8 -10.6l-1 -11.1l1.1 -3.8l1.7 -3l7.8 -8.9l2.4 -3.5l1.4 -3.4l0.8 -5.5l-0.5 -5.6l-2.6 -6.4l-3.6 -5.5l-8.2 -6.7l-4.4 -2.1l-5.9 -1.6l-5.1 0.1l-12.1 5.1l-6.1 0l-3.6 -1.1l-9.1 -5.8l-10.9 -3.8l-9.2 -0.9l-15.7 -3l-4.7 -2.6l-3.3 -3.3l-5.3 -8.2l-3.6 -7.7l-0.3 -2.2l0.7 -1.9l3.7 -5.1l9.9 -7.6l10.8 -10.9l2 -3.3l2.6 -4.3l1.3 -3.4l0.3 -3.3l-0.1 -4.8l-1.4 -9.3l-6.4 -23.3l-1.9 -3.8l-4.5 -4.4l-5.7 -2.3l-7.4 -0.8l-3.7 0.5l-4 2.1l-4.7 5l-1.3 2.2l-2.5 18.8l-4.2 22.1l-2.6 5.8l-1.7 1.6l-3 1.4l-8.5 -0.3l-6.4 -2.4l-4.9 -4l-6.5 -7.1l-4.4 -6.4l-6.3 -7.2l-8.5 -4.8l-8.8 -3.7l-1.7 -1.8l-5 -11.4l-2.4 -12.1l0.4 -5.6l2.6 -11.3l2.1 -4.3l8 -10.3l2.7 -5.2l1.4 -4.7l0 -4.6l-0.8 -4.8l-1.8 -4.5l-2.7 -3.7l-3.3 -2.7l-14.7 -6.2l-3.4 -2.4l-5.6 -5.7l-5.1 -8.3l-2.3 -5.3l-2 -6.5l-0.6 -5.3l0.2 -5.9l2 -6.5l2.4 -3.7l15.4 -17.6l3.4 -6.3l3.1 -11.8l-0.4 -8.2l-2.9 -9.1l-2.2 -3.6l-13.3 -11.5l-4 -4.1l-3.6 -4.9l-3.3 -5.3l-0.8 -7.5l0 -0.4l-369.4 -1z" />
  </g>
  <g data-id="179">
    <path d="m7645.1 1010.8l0 0l-0.8 402.9l132.6 0.2l266.5 0.3l223.8 0.3l1.3 -268.3l-0.7 0l-222.6 -0.2l-0.1 -134.4l-400.1 -0.8z" />
  </g>
  <g data-id="181">
    <path d="m6091 4059.9l0 0l0.5 521.1l0.1 0l18.2 0.1l19.8 -0.3l1.9 -0.2l1.3 -0.1l20 0.3l3.5 -0.1l18.2 0.2l1.5 0l13.5 -0.4l30.8 0.1l23.3 -0.1l20.7 -0l16.7 0.3l19.9 -0l23 -0.1l21.3 0l15.9 0l247.6 -0.3l0.5 -520.6l-5.2 0l-509.8 -0.1l-3.3 -0z" />
  </g>
  <g data-id="183">
    <path d="m6051.7 1417.4l0 0l2.3 535l7.9 0l522 -1.2l0.2 -266.7l0.2 -256.2l-5.9 -11.4l-526.6 0.5z" />
  </g>
  <g data-id="185">
    <path d="m7120.7 3009.9l0 0l0.6 526.3l1.1 0l521.9 -0.1l0.3 -526.7l-523.9 0.6z" />
  </g>
</svg>
