<?xml version="1.0" encoding="UTF-8"?><!DOCTYPE svg PUBLIC '-//W3C//DTD SVG 1.1//EN' 'http://www.w3.org/Graphics/SVG/1.1/DTD/svg11.dtd'><svg viewBox="0 0 1000 458.432" xmlns="http://www.w3.org/2000/svg"><path id="31001" d="m609 355v51h51v-52h-50z"/><path id="31003" d="m658 88v54v1v25h53v-26v-54z"/><path id="31005" d="m236 195l1 53h66v-53h-3z"/><path id="31007" d="m0 211v2v2v3v4v2v2v3v1v15v1v2h69h8h1v-6v-40l-2-1l-76 1v8z"/><path id="31009" d="m433 142v53h2h64v-53h-55z"/><path id="31011" d="m658 168v27l1 1v39h22v-2h6v-3h18v-2h7v-33l-1-1v-26z"/><path id="31013" d="m70 88v53h5v14h4h47h10h19v-8l-1-6h-4v-13l-1-11v-16v-10v-4h-3z"/><path id="31015" d="m549 15l-1 16l6-3l3-1l3-2h3l4-2l4-1l5-4l4-2l3 1l8 8h1l4-1l3 3l2 1l4-1l6 4h4l2-1l8 5l4-1l2 1l5 1l3 1l6-2l6 2l2-1l4 2v-4v-15l-1-1h-1l-1-1v-1h-1v-1h-2l-2-1l-1-1l-1-1h-1l-2-1h-1h-1h-1v-1h-1v-1h-1v-1l-2-2l-1-2v-2l-1-2l-7 1l-1-1l-11 1v-1l-9 1h-2h-4h-3h-9h-2h-5h-4h-3h-6h-1h-6h-1h-2h-3h-5h-2z"/><path id="31017" d="m441 24v10h2v54h1v54h55h3v-54h-1l-1-46l-3 1l-5-2l-3 1l-5-2l-2-1h-2l-1-3l-4 1l-5-1h-3l-4-3l-6 1l-6-2l-3-2l-1-3l-5-1z"/><path id="31019" d="m529 327v26h1v5h1l4 1l5-1l3 1l7 1l7-1l1 1h2h5h4l5 1h4l3-1l8 1l4-1l5-3l11-2l1-1v-33v-20h-3h-53h-25z"/><path id="31021" d="m857 153v42h13v9h37v-1v-1h1l1-1l2 1l1-1h1v-1l-1-1l-1-1l-2-1v-1v-1v-1h1l1-1h1v-1v-2v-1h1v-1l1-1h-1v-1l-1-1l-2-1l-1-1l-1-1v-1l1-1v-1h-1v-1l-1-1h-1l-1-1l-1-1v-1v-1v-1l-1-1l-1-1h1v-1l2-1v-1l-1-2v-1h1v-1l1-1v-1v-1v-1h-1l-2-1l-1 1h-1h-1l-1-1v-1l1-1v-1l-1-1h-2h-1v1v1h-1h-1l-1-1v-1l1-1l1-1l1-1l-1-1l-1-1h-1h-1v1l-1-1h-1v-1h-4l-1 5h-17z"/><path id="31023" d="m764 248v53h53v-53v-9h-1l-5 2l-4 3l-2 1h-5l-4 3l-10 3l-2-2l-6 1l-4-3l-6 2z"/><path id="31025" d="m868 306v35h63h9v-1l-1-2v-1v-1v-2h1v-1l-1-2l-1-1v-1v-1h1v-1h2h1v-1l1-1v-1l-1-1v-1l-2-1v-1l-1-1v-1v-1v-1l1-2l1-2h-1v-1l-1-1l-1-1h-1v-1h-1v-1v-1v-1l1-1v-1v-1l-1-1l-1-1l-1-1h-7l-5 1l-2-1l-3-1h-3l-6 3l-4 4l-7 4h-1l-2-1l-2-3h-4l-1-1l-3-3h-3v5z"/><path id="31027" d="m751 24v64h14v13h40v-13v-51h-1h-1l-2-1h-2h-1h-1h-1h-1h-1h-2l-1-1v-1l-1-1l-1-1h-1v-1h-1h-1h-1h-1l-1-1h-1v-1v-1v-1v-2v-1l-2-1h-1h-1h-1h-1h-3l-1-2h-1l-1 1h-1l-1 1h-3l-1-1l-1-1h-1h-1h-1h-1l-1 1v1h-1l-1 1h-1h-1h-1z"/><path id="31029" d="m229 399v1v5v1h81v-52h-81v24v2v13z"/><path id="31031" d="m225 0v34h2v53h3v53l4 1h66l67 1h66h11v-54h-1v-54h-2v-10v-24h-9h-1h-7h-1h-14h-7h-1h-1h-8l-1 1h-27h-2h-2h-6h-1h-4h-5h-21h-31h-14h-10l-16-1h-27z"/><path id="31033" d="m77 301v7h2h33h2h1h1h4h2h1h2h2h2h2h2h1h2h2h2h6h1h2h1h10h4v-7h1v-27v-26h-3v-7l-84 1v6h-1v53z"/><path id="31035" d="m660 354v52h1h51v-52z"/><path id="31037" d="m778 248v2l6-1l2 2l10-3l4-3h5l2-1l4-3l5-2h1v-44h-13h-4h-22v20z"/><path id="31039" d="m804 141v54h13h40v-42v-11l-30-1z"/><path id="31041" d="m435 195v53h2v11v7l-1 35h2h91h25l1-53h-1v-53h-2h-53z"/><path id="31043" d="m838 112l42 1v-1l-1-1v-1v-1v-1v-1h-1v-1l-1-1l-1-1h-1l-1-1v-1l-1-1v-1l1-1v-2v-1l-1-1v-1l1-2l3-3v-1v-2v-2v-2l-1-1l-2-1h-2h-2h-2v1h-1h-1h-1h-1l-1-1l-1-1v-1l-1-1l-1-1l-1-1h-1h-1h-1l-1 1l-1 1h-1h-1h-1l-2-1v-1v-1h-11v14v1z"/><path id="31045" d="m63 0v34h3v54h4l76-1v-53h-2v-34h-24h-15h-24h-7z"/><path id="31047" d="m438 301v52h28h32l6 3l7 1l5-1l1 1h10l3 1v-5h-1v-26v-26z"/><path id="31049" d="m164 301v7h5h1h1h8h2h10h2h8h3h4h3h2h8h6h2v-1l-1-6v-27h-63v27z"/><path id="31051" d="m805 101v14h22h11v-3v-23v-1v-14h11l-1-1v-1v-1v-1l-1-1l-1-1l-2-1h-1l-1-1l-1-2l-1-1v-1v-1v-1v-1l1-2l1-1v-1v-1l-1-1l-3-1h-1h-2v1h-1h-2l-2-1h-1v-1v-2v-1v-1v-1h-1h-1h-1l-2-1l-1-1l-2-1h-2l-2-1h-1h-1v1h-1l-1 1h-1h-1l-1-1l1-2l-1-2l-1-1h-2l-2-1v51z"/><path id="31053" d="m817 195v44l8 1l2 1l5-1h4l4 3h2l6-1h8l6 4l1 2h4h16v-6h-4v-3h-2v-2h-2l-1-2h-2v-2h-1v-5h-1v-24v-9h-13z"/><path id="31055" d="m867 248l1 2l5 3l1 4v3l4 3l3 5v1l-2 4l2 4l2 2h15h5h9h6h2h7h1h2l-1-1v-1v-1l2-2v-1v-1l-1-2v-1v-1v-1l-1-1v-1v-1v-1l1-1h2v1v2l1 1l1-1h1v-1l1-1l-1-2l-1-1l-2-1h-1h-1h-1l-1-1l-1-1l-1-1v-1v-1h2v-1h1v-1v-1l-1-1v-1v-1h-14h-20h-11z"/><path id="31057" d="m229 434v2v22h15h2h7h1h3h20h1h9h14h1h4h4h2v-49v-3h-2h-81v2v15v1z"/><path id="31059" d="m712 354v52h1h51v-52z"/><path id="31061" d="m557 406v52h1h6h1h3h2h6h3h2h1h3h12h1h5h1h5v-52z"/><path id="31063" d="m374 360v42l1 4h2h45h19h12v-13h13v-40h-28h-63z"/><path id="31065" d="m441 406v52h1h1h22h4h1h1h3h11h4h1h1h1h2h2h10v-52h-2h-51z"/><path id="31067" d="m816 458h4h1h8h21h1h1h2h2h1h2h2h6h1v-39v-39h-28h-23l-1 26z"/><path id="31069" d="m157 155v31l1 4l1 5h3v46v7h3v26h63v-26h9l-1-53h-9v-41z"/><path id="31071" d="m552 142v53h2h51v-53z"/><path id="31073" d="m453 393v13h51v-50l-6-3h-32v40z"/><path id="31075" d="m227 154v41h9h64v-54h-66v13z"/><path id="31077" d="m606 195v53h1h52v-13v-39l-1-1z"/><path id="31079" d="m610 301v20v33h50v-26v-1v-6v-5v-14l-1-1h-23z"/><path id="31081" d="m660 328v26h52v-53v-1v-18l-5 7l-2 2l-9 4v-1l-4 2l-3 4l-3 2l-4 5h-1l-6 3l-2 5l-4 3l-8 8z"/><path id="31083" d="m506 406v52h14h1h2h6h2h1h13h1h3h4h2h1h1v-52z"/><path id="31085" d="m310 354v52h2h63l-1-4v-42l1-7l-54 1z"/><path id="31087" d="m312 458h4h5h4h2h2h1h4h8h4h10h21v-23l-1-3l1-26h-2h-63v3v49z"/><path id="31089" d="m548 31v3h2v54h1v54h1h53h53v-54h-1v-50l-4-2l-2 1l-6-2l-6 2l-3-1l-5-1l-2-1l-4 1l-8-5l-2 1h-4l-6-4l-4 1l-2-1l-3-3l-4 1h-1l-8-8l-3-1l-4 2l-5 4l-4 1l-4 2h-3l-3 2l-3 1z"/><path id="31091" d="m300 141v54h3h64v-53z"/><path id="31093" d="m607 248v53h3h26h23v-53z"/><path id="31095" d="m764 458h2h1h12h4h1h2h4h1h10h2h3h10v-52h-52z"/><path id="31097" d="m868 380v39h45v-39z"/><path id="31099" d="m557 359v47h52v-51l-11 2l-5 3l-4 1l-8-1l-3 1h-4l-5-1h-4h-5h-2z"/><path id="31101" d="m228 274v27l1 6h92v-6h-3v-53h-15h-66h-9z"/><path id="31103" d="m441 0v24l1 2l5 1l1 3l3 2l6 2l6-1l4 3h3l5 1l4-1l1 3h2l2 1l5 2l3-1l5 2l3-1h2l4 1h5l5 1l8-3l1-2h3l2-3h2l3-2l4 1l5-3h2l2-1l1-16v-14h-1h-3h-7h-2h-1h-2h-9h-2h-1h-4h-4h-15h-2h-1h-2h-3h-2h-2h-1h-1h-3h-1h-2h-1h-4h-1h-3h-1h-5h-3l-10-1h-1z"/><path id="31105" d="m0 284v7v1v2v11v1v2h2h1h1h5h2h6h1h2h2h13h20h9h1h7h3h2v-7v-53h-8h-69v10v1v1v6z"/><path id="31107" d="m657 19v15v4v50h1h53h40v-64l-1-1h-1v-1l-1 1l-2 1h-2h-2h-1l-2-1h-1v-1h-1l-1 1h-2l-1 1l-2 1h-1h-2h-2l-2-1h-3h-1h-1h-1l-2-1l-1-1h-2l-1-1h-1h-1h-2v1h-2v1v1v1v1l-1 1v2l-1 1l-1 2l-1 1h-1l-1 2h-1l-1 1h-1h-2l-2 1h-1h-1h-1h-2h-1v-1h-1h-1v-1v-1l-2-2h-1h-1l-1-2l-2-2h-1l-1-2l-1-1l-1 1h-1l-2-1l-2-1l-2-1l-1-1l-2-1v-1h-1h-1h-2l-2-1z"/><path id="31109" d="m816 354l1 26h23h28v-35v-4v-35v-5h-16h-35v35v18z"/><path id="31111" d="m318 248v53h3v6v47l54-1h63v-52h-2l1-35v-7v-11h-2h-53z"/><path id="31113" d="m382 225v3v20h53v-53h-2h-51z"/><path id="31115" d="m499 142v53h53v-53h-1h-49z"/><path id="31117" d="m303 195v53h15h64v-20v-3v-30h-15z"/><path id="31119" d="m711 142v26v26l1 1h52v-40v-14z"/><path id="31121" d="m659 248v53l1 1v14v5v6v1l1-2l8-8l4-3l2-5l6-3h1l4-5l3-2l3-4l4-2v1l9-4l2-2l5-7l3-3l4-7l6-5l6-5l3-1l4-1v-3v-9h-12v13h-22v2l-18 1v2h-5v2h-20v-20z"/><path id="31123" d="m78 195v7v40l84-1v-46h-3l-1-5l-1-4v-31h-2h-19h-10h-47v40z"/><path id="31125" d="m659 235v13h2v20h20v-2h5v-2l18-1v-2h22v-13v-20h-14h-7v2h-18v3h-6v2z"/><path id="31127" d="m913 380v39h7h52v-1v-2v-1l-1-1h-1h-1l-1-1l-1-1h-1l-1-1l-1 1h-2v1h-1l-1-1v-1v-1h1l2-1l1-1v-1v-1l-1-1l-1-1v-1v-1v-1l-1-2l-1-2v-1v-1v-1v-1v-1l-1-1l-1-1l-1-1l-1-1v-1v-1v-2l-1-1h1v-1l3-1h1v-1l1-2v-1h-1v-1l-1-1l-1-1h-1l-1 1v1v1v1v1l-2 1z"/><path id="31129" d="m661 406v52h1h2h6h2h1h1h2h5h3h2h1h4h4h5h6h3h2h2v-52h-1z"/><path id="31131" d="m868 341v4v35h45h41v-1h-1h-1v1h-1h-1h-1l-1-1l-1-1v-1h1v-1v-1l-1-1v-2v-1h1v-1h1v-1l1-1v-1h-1v-1h-1l-1-1v-2v-1l-1-1v-1h-1l-1-1h-1h-1l-1-1h-1l-1-1v-1l-1-2v-1l-1-1h-1l-1-1h-1v-1v-1v-1v-1v-1l1-1l1-1h1l1-1h1v-1h1v-1h-9z"/><path id="31133" d="m868 419v39h18h8h1h1h7h1h3h4h1h3h3h2v-39h-7z"/><path id="31135" d="m229 307v1v38v8h81h11v-47z"/><path id="31137" d="m504 356v50h2h51v-47l-7 1l-7-1l-3-1l-5 1l-4-1h-1l-3-1h-10l-1-1l-5 1z"/><path id="31139" d="m711 88v54l53-1l1-40v-13h-14z"/><path id="31141" d="m712 195v33h14v20h12v9h3l6-4l8-1l9-4l4 1l6-2l4 3v-2v-33v-20h-14z"/><path id="31143" d="m712 282v18v1h52v-53l-9 4l-8 1l-6 4h-3v3l-4 1l-3 1l-6 5l-6 5l-4 7z"/><path id="31145" d="m376 432l1 3v23h1h1h1h1h4h3h2h5h1h3h1h5h3h1h1h2h1h6h18h2h2v-52h-19h-45z"/><path id="31147" d="m920 419v39h6h8h11h1h46h4h4v-1h-1v-1h-1h-1l-1-2h-1h-1h-3h-1h-1v-1h-1v-1l-1-1v-1v-1v-1h1v-1h1l-1-1v-1l1-1v-1h1v-1v-1v-1l-1-1h-1h-1l-1-1v-1v-1v-1h-1v-1h-2v-1l-2-1v-1h-1v-1v-1v-1l1-1v-1l1-1v-1h-1v-1v-1h-1v-1h-1h-1h-2l-3-1l-1-1z"/><path id="31149" d="m500 42l1 46h1v54h49v-54h-1v-54h-2v-3l-2 1h-2l-5 3l-4-1l-3 2h-2l-2 3h-3l-1 2l-8 3l-5-1h-5l-4-1z"/><path id="31151" d="m764 354v52h52l1-26l-1-26z"/><path id="31153" d="m883 293l-1 3l2 5l3 3l1 1h4l2 3l2 1h1l7-4l4-4l6-3h3l3 1l2 1l5-1h7l1 1l-1-1v-1h1l1-1v-1v-1h1v-1l-1-1v-3v-1l-1-2l-1-1v-1v-1h1v-1h1v-1v1h2l1-1v-1l-1-1h-1l-1-1l-5 1h-1v-1h-2h-1h-7h-2h-6h-9h-5h-15l2 7l-1 2l1 1v2z"/><path id="31155" d="m817 248v53h35h16v5h13v-5h3l-2-5l1-3l2-2v-2l-1-1l1-2l-2-7l-2-2l-2-4l2-4v-1l-3-5l-4-3v-3l-1-4l-5-3l-1-2h-4l-1-2l-6-4h-8l-6 1h-2l-4-3h-4l-5 1l-2-1l-8-1v9z"/><path id="31157" d="m0 170v3v23v6l76-1l2 1v-7h1v-40h-4h-75v1v3v1v8z"/><path id="31159" d="m764 301v53h52h1v-18v-35z"/><path id="31161" d="m144 0v34h2v53h3v4v10v16l1 11v13h4l1 6v8h2l70-1h7v-13l-4-1v-53h-3v-53h-2v-34h-41h-5z"/><path id="31163" d="m555 248l-1 53h53v-53h-1z"/><path id="31165" d="m0 0v39v16v2v1v3v17v38v1v12v1v4v1v1v6v2v8v1v2h75v-14h-5v-53h-4v-54h-3v-34h-8h-1h-4h-4h-7h-12h-12h-5h-3z"/><path id="31167" d="m764 141v14v40h14h22h4v-54h-26z"/><path id="31169" d="m713 406v52h5h1h29h6h2h2h1h5v-52z"/><path id="31171" d="m367 142v53h15h51v-53z"/><path id="31173" d="m827 115v26l30 1v11h11h17l1-5h4l-1-1v-1v-1v-1v-1l1-1v-1v-2v-1v-1h-1v-1h-1h-2v-1h-1v-1v-1h-1v-1l-2-1l-1-1v-1v-1v-1v-2v-1l-1-1v-1h1h1l1-1l1-1v-1l-1-1v-1v-1v-1h-1v-1l-2-1l-42-1v3z"/><path id="31175" d="m554 195v53h1h51v-53h-1z"/><path id="31177" d="m870 204v24h1v5h1v2h2l1 2h2v2h2v3h4v6h11h20h14v1v-1l1-2v-1v-1v-1v-1l1-1v-1v-1l-1-1l-1-1h-1l-1 1h-1l-1-1h-1h-1l-2-1l-1-1v-1v-1l1-1l1-1h1v-1v-1v-1l-1-2l-1-1h-1h-1v1l-1 2v2v1h-1h-1l-1-1l-1-1v-1h-1l-1-1l-1-1v-1v-1v-1l1-1v-1h1v-1l-1-1l-2-1l-1-1v-1l-1-1v-1l1-1l1-2h1v-2v-1l-1-1l-1-1l-1-1v-1z"/><path id="31179" d="m765 101l-1 40h14h26h23v-26h-22v-14z"/><path id="31181" d="m609 406v52h2h2h2h1h1h1h1h3h2h2h2h2h2h3h1h25v-52h-1h-51z"/><path id="31183" d="m605 142v53h1h52v-27v-25v-1z"/><path id="31185" d="m712 301v53h52v-53z"/></svg>
