<?xml version="1.0" encoding="UTF-8"?>
<!DOCTYPE svg PUBLIC '-//W3C//DTD SVG 1.1//EN' 'http://www.w3.org/Graphics/SVG/1.1/DTD/svg11.dtd'>
<svg viewBox="0 0 1000 605.329" xmlns="http://www.w3.org/2000/svg">
  <g data-id="001">
    <path d="m140.565 538.803l-0.029 64.585l7.151 0.014l2.881 0.01l5.368 -0.006l23.402 -0.001l4.109 -0.039l2.997 -0.033l1.21 0.009l11.205 0.053l1.018 0.022l9.997 -0.032l1.129 0.005l1.064 0.015l1.757 0l2.805 0.008l2.008 -0.007l1.57 0.041l5.91 -0.006l3.476 0.018l14.726 0.018l5.454 0.017l2.342 -0.004l1.88 -0.003l1.346 0.014l1.313 -0.013l5.054 0.01l3.553 -0.004l8.039 0.021l0.281 -20.927l0.092 -29.269l-66.661 -0.115l0.003 -14.879l-6.772 0.07l-50.217 0.254l-9.461 0.156z" />
  </g>
  <g data-id="003">
    <path d="m744.747 351.859l-0.007 51.143l3.745 -0.013l0.055 67.945l54.066 0.076l46.949 0.155l0.066 -67.946l-3.272 -0.015l-0.001 -51.252l-34.049 -0.105l-67.553 0.012z" />
  </g>
  <g data-id="005">
    <path d="m560.724 127.186l-0.207 70.014l4.808 0.017l-0.005 34.692l68.713 0.089l100.399 -0.118l2.57 0.224l-0.005 -13.684l-13.32 -0.267l-1.321 -2.907l1.281 -1.155l-5.044 -5.479l-1.148 -7.196l-4.577 -0.598l-2.295 1.157l-1.521 3.31l-3.742 1.856l-4.207 4l2.127 -4.357l3.738 -1.79l-1.732 -3.697l-0.494 -5.904l-0.329 6.365l-1.793 -0.58l-0.294 -5.645l-2.469 -5.988l-2.829 -0.499l-1.374 2.675l-6.405 4.889l-0.734 2.992l-1.174 -3.511l-2.976 1.815l0.334 2.772l-1.516 1.419l-2.127 -1.16l-6.199 2.5l0.354 -4.534l-2.093 -5.773l0.434 -2.268l-4.778 1.176l-3.118 5.074l-1.353 0.004l-0.012 -17.152l-5.186 0.039l-4.009 -7.199l-8.08 -2.327l-0.053 -43.164l-39.044 -0.058l-47.194 -0.071z" />
  </g>
  <g data-id="007">
    <path d="m50.995 334.372l-0.035 68.591l7.665 -0.022l0.045 68.25l50.39 0.006l0.077 -68.333l26.461 -0.056l0.015 -68.306l-8.89 -0.004l-75.727 -0.126z" />
  </g>
  <g data-id="009">
    <path d="m340.543 0.243l0.007 56.645l6.039 0.011l0.02 35.12l52.254 0.15l0.005 -17.568l87.111 0.11l0.052 17.595l17.31 -0.031l17.453 -0.08l0.049 -35.063l-5.009 -0.007l0.044 -56.858l-33.221 -0.029l-51.874 0.011l-13.154 -0.035l-27.687 0.1l-10.693 -0.04l-5.986 -0.009l-27.528 0l-5.193 -0.02z" />
  </g>
  <g data-id="011">
    <path d="m0.419 569.026l-0.142 23.797l0.184 10.538l50.299 0.013l1.027 0l11.168 -0.008l2.452 0.029l16.527 -0.031l2.243 0.02l5.682 0.075l12.189 -0.068l8.768 -0.01l1.036 -0.003l6.589 -0.017l2.71 0.01l5.747 -0.001l2.588 -0.005l4.096 -0.009l2.898 0.005l4.055 0.027l0.029 -64.585l-48.724 0.149l-91.376 -0.048l0.024 29.919z" />
  </g>
  <g data-id="013">
    <path d="m148.127 0.261l-0.154 56.547l7.238 -0.004l-0.012 17.619l0.002 17.532l69.699 -0.006l17.282 0.016l0.039 -35.121l10.815 -0.001l0.051 -17.592l17.414 0.019l0.068 -38.946l-23.426 0.087l-2.851 0.007l-20.606 -0.045l-40.716 -0.07l-34.843 -0.042z" />
  </g>
  <g data-id="015">
    <path d="m411.487 368.343l2.714 3.339l0.965 8.993l1.605 3.279l5.499 5.801l0.501 5.456l-2.034 3.268l-5.371 3.888l0.349 3.604l3.428 3.077l0.555 10.191l3.744 6.123l1.875 4.228l3.66 4.197l1.997 2.719l-0.08 2.254l-2.643 6.365l0.618 2.852l3.897 2.66l3.483 -0.214l0.133 3.22l-2.597 0.863l2.64 5.663l3.985 -1.179l0.378 5.205l2.33 1.961l6.973 -3.507l4.547 -0.905l-2.699 8.542l77.484 0.205l0.62 -50.79l0.177 -17.03l-5.258 -0.075l0.184 -67.813l-74.726 -0.032l-10.147 -0.051l-0.005 33.499l-28.779 0.144z" />
  </g>
  <g data-id="017">
    <path d="m846.348 351.952l0.001 51.252l3.272 0.015l-0.066 67.946l50.396 0.111l3.252 0.002l30.399 -0.106l2.638 -0.004l31.254 -0.08l1.014 -1.274l-0.019 -2.377l-1.088 -1.741l0.062 -1.408l0.772 -1.334l-0.051 -1.022l1.15 -1.484l-0.462 -1.192l0 -1.803l0.216 -2.411l0.192 -1.49l0.733 -1.35l-0.671 -1.083l0.409 -1.548l-0.541 -1.033l0.218 -1.339l-0.51 -1.042l0.254 -1.154l-0.408 -1.341l-0.026 -1.228l-0.305 -1.191l-0.519 -1.04l-0.103 -3.659l-0.615 -1.112l0.027 -1.201l1.148 -1.599l0.291 -1.033l0.713 -1.119l0.509 -1.268l0.306 -1.044l-0.535 -1.118l-0.118 -1.176l0.468 -1.991l-0.274 -1.301l1.347 0.371l0.52 -1.21l-1.227 -2.343l0.4 -1.543l1.054 -0.293l0.224 -1.454l0.631 -1.116l-0.23 -1.1l-0.14 -1.064l0.034 -1.047l-1.788 0.743l-1.063 1.051l-1.058 -0.858l0.132 -1.521l-0.2 -1.329l-1.041 -0.566l0.08 -1.101l-0.154 -1.22l-0.187 -1.311l-1.134 0.397l-1.3 -0.695l-0.068 -1.833l-0.333 -2.603l-0.254 -1.18l-0.231 -1.12l-1.07 -0.935l0.256 -1.665l0.374 -1.243l1.345 -0.661l-0.293 -1.29l0.382 -1.198l-0.012 -1.852l-0.064 -1.141l-0.688 -1.328l0.132 -1.22l-0.03 -1.138l0.565 -1.267l-0.156 -1.065l0.012 -1.206l0.268 -1.591l0.051 -1.237l-0.604 -1.064l0.201 -1.196l-0.872 -1.129l0.433 -1.119l-0.421 -1.484l-0.523 -1.424l0.191 -1.274l0.28 -1.068l0.421 -1.143l0.369 -1.031l-0.294 -1.144l-0.739 -1.068l0.42 -1.031l-0.764 -1.162l-0.09 -1.201l-0.739 -1.182l0.866 -1.032l-0.204 -1.089l-0.382 -1.126l-0.242 -1.163l0.358 -1.013l-0.051 -1.333l-82.125 -0.995l-33.962 -0.18z" />
  </g>
  <g data-id="019">
    <path d="m673.717 0.113l-0.012 57.168l3.939 0.008l-0.003 35.101l87.038 0.093l52.165 0.131l-0.034 -35.236l-2.958 -0.008l-0.084 -57.343l-71.853 0.018l-68.197 0.068z" />
  </g>
  <g data-id="021">
    <path d="m672.922 604.391l13.38 0.081l24.165 0.16l13.209 0.088l15.795 0.186l12.341 0.145l30.541 0.061l15.36 0.001l8.315 0.016l0.198 -66.695l-3.717 -0.033l-62.472 -0.025l-21.175 0.032l-45.589 -0.026l-0.352 66.009z" />
  </g>
  <g data-id="023">
    <path d="m0.033 27.385l-0.033 3.721l0.044 10.201l0.004 1.722l0.041 4.64l-0.042 2.89l0.089 17.625l0.003 1.078l-0.004 1.807l0.041 3.217l33.193 0.097l118.914 0.085l1.705 -0.07l1.212 0.027l0.012 -17.619l-7.238 0.004l0.154 -56.547l-55.747 -0.052l-2.665 0.129l-16.475 -0.076l-19.135 -0.022l-21.814 0.012l-6.056 -0.048l-15.629 0.007l-1.528 -0.011l-5.283 0.01l-3.766 -0.013l0.028 2.559l-0.018 4.121l-0.025 1.572l0.014 1.458l-0.009 1.732l-0.005 1.963l0.008 4.371l0 1.067l0.004 5.467l-0.022 1.199l0.008 1.312z" />
  </g>
  <g data-id="025">
    <path d="m126.632 266.217l0.098 64.012l-0.009 4.269l8.89 0.004l-0.015 68.306l67.68 -0.142l0 -5.66l50.797 -0.013l0.033 -28.525l0.009 -33.845l-8.159 0.002l-0.018 -29.918l0.051 -18.709l-3.483 -4.708l-2.749 -2.296l-1.788 -2.851l0.307 -20.372l-2.922 -2.321l-0.827 -2.778l4.003 -1.846l-0.107 -3.951l-9.808 -3.794l-3.029 2.086l-2.295 5.381l-1.374 1.092l-3.95 1.191l-7.686 -2.561l-3.483 -2.998l-8.393 -0.02l-8.34 -5.224l-2.375 -3.438l-0.067 29.728l-18.879 -0.078l-42.113 -0.022z" />
  </g>
  <g data-id="027">
    <path d="m634.033 231.998l-0.015 34.499l4.218 0.007l-0.018 16.899l102.178 0.077l-0.013 -16.866l-3.335 -0.017l-0.045 -34.493l-1.81 0.004l-101.159 -0.11z" />
  </g>
  <g data-id="029">
    <path d="m451.939 470.287l4.869 4.326l7.64 3.527l0.948 1.2l-0.578 1.825l-2.89 0.973l5.667 7.697l-0.169 1.663l-4.392 3.807l-1.049 2.493l-1.534 8.021l1.054 4.531l4.11 8.94l1.094 3.52l0.267 6.611l-1.321 4.115l-2.842 5.137l0.08 1.757l2.836 4.304l-0.087 2.759l-2.148 5.072l-2.255 2.506l-3.082 5.146l-1.847 4.64l0.376 3.586l1.364 2.173l0.213 8.447l1.935 4.211l5.311 7.976l3.616 1.518l3.48 6.519l-0.657 4.394l1.681 0.004l4.872 0.013l4.302 -0.014l1.393 0.02l1.304 0.015l15.513 0.035l1.172 0.027l1.299 0.04l13.983 0.079l2.501 0.005l1.382 -0.004l4.189 0.027l3.492 0.012l2.021 0.025l8.478 0.042l5.299 0.025l11.406 0.029l0.249 -65.662l-5.114 -0.07l0.167 -67.746l-22.109 -0.092l-77.484 -0.205z" />
  </g>
  <g data-id="031">
    <path d="m638.218 283.403l-0.058 51.394l102.348 0.129l-0.112 -51.446l-102.178 -0.077z" />
  </g>
  <g data-id="033">
    <path d="m0.448 411.937l-0.048 20.127l0.067 20.53l-0.023 2.246l0.013 1.001l0.027 13.076l0.023 19.528l32.587 0.035l0.007 -17.243l25.568 -0.045l-0.045 -68.25l-7.665 0.022l0.035 -68.591l-50.516 -0.152l0.025 10.46l0.004 1.094l-0.001 1.072l-0.057 9.884l0.097 17.319l-0.039 6.787l0.008 2.275l-0.032 3.39l0.004 1.253l0.023 3.259l-0.068 19.49l0.004 1.411z" />
  </g>
  <g data-id="035">
    <path d="m820.009 162.557l-0.022 34.771l2.858 0.019l-0.03 69.314l51.512 0.024l3.15 0.002l77.618 -0.019l-1.109 -3.433l-1.052 0.194l-0.004 -1.087l-0.569 -1.296l-0.443 -1.288l-0.729 -1.069l-0.43 -1.152l0.666 -1.123l-0.872 -1.029l-0.732 -1.052l-0.325 -1.111l0.601 -1.605l-0.761 -1.286l-0.487 -1.127l-0.176 -1.628l-1.389 -1.356l-1.647 -1.602l0.049 -1.075l-0.263 -1.17l-1.091 -0.726l-1.186 -1.462l0.35 -1.193l-0.371 -1.747l-0.127 -1.068l-0.668 -2.356l-1.549 -0.812l0.197 -2.522l-0.472 -1.294l-0.16 -1.285l-2.108 -0.836l-0.213 -1.054l-0.588 -1.034l0.56 -1.532l-0.774 -1.035l0.64 -1.095l-0.64 -1.532l1.028 0.497l0 -1.473l-0.066 -1.334l-1.588 -1.553l-1.027 -1.135l0.173 -1.215l-1.188 -0.339l-1.281 -1.036l0.267 -1.694l-0.867 -1.454l0.161 -1.375l-0.173 -1.276l0.357 -1.032l0.393 -1.474l-1.164 -1.595l-0.601 -2.714l0.463 -1.083l-1.194 -0.821l0.433 -1.428l-0.19 -3.093l-0.246 -1.258l-1.42 -1.543l-1.985 -3.052l-0.402 -1.273l0.13 -1.685l-0.776 -1.094l0.1 -1.296l-0.622 -1.373l-1.366 -0.132l-0.169 -1.378l-0.777 -2.398l-0.346 -1.77l-0.334 -1.285l-1.261 -0.805l0.148 -1.461l0.184 -1.38l-1.046 -2.154l0.2 -1.099l0.503 -1.012l-0.607 -1.099l0.6 -1.587l-97.533 -0.483l-4.131 0.007z" />
  </g>
  <g data-id="037">
    <path d="m260.55 454.095l-0.046 16.857l6.084 0.03l0.541 67.263l6.52 -0.013l0.024 15.086l-0.092 29.269l0.957 1.239l3.502 -0.542l3.739 -3.177l5.736 1.833l-0.095 -2.39l2.705 1.131l3.367 -1.905l0.847 4.481l-1.826 0.712l1.945 3.293l2.254 -1.528l3.063 1.759l3.06 -2.125l1.72 1.569l1.45 -2.248l1.232 2.723l1.159 -1.779l2.4 2.723l7.829 2.229l2.241 -0.82l0.812 -4.039l2.054 0.019l2.178 3.692l1.931 1.588l2.292 -3.07l2.744 3.591l3.597 -1.988l-0.949 -2.617l2.258 1.046l4.236 -0.544l-1.573 -2.617l0.98 -1.644l4.248 0.068l4.039 -2.031l1.79 0.419l0.999 -2.39l2.778 -1.656l3.195 1.736l8.331 -6.628l-0.238 -5.472l7.301 -1.722l2.422 0.843l2.25 -3.539l2.965 1.447l-1.111 -6.758l3.617 -1.55l0.409 -1.969l3.258 -0.254l5.786 -5.178l-2.133 -2.776l3.305 -2.598l0.526 -3.335l3.856 0.996l1.838 -2.311l2.542 -0.401l-3.058 -0.089l0.006 -16.756l-33.419 -0.011l-0.037 -50.211l-55.886 -0.102l-0.007 -16.923l-50.449 0.061z" />
  </g>
  <g data-id="039">
    <path d="m740.383 266.614l0.013 16.866l0.112 51.446l4.264 0.025l-0.025 16.907l67.553 -0.012l0.099 -16.825l-3.485 -0.01l0.302 -67.127l-0.065 -1.249l-68.768 -0.022z" />
  </g>
  <g data-id="041">
    <path d="m149.565 471.139l0.461 67.509l50.217 -0.254l6.772 -0.07l-0.003 14.879l66.661 0.115l-0.024 -15.086l-6.52 0.013l-0.541 -67.263l-6.084 -0.03l-26.792 0.08l-84.147 0.106z" />
  </g>
  <g data-id="043">
    <path d="m525.144 334.784l-0.184 67.813l5.258 0.075l-0.177 17.03l-0.62 50.79l22.109 0.092l62.152 0.252l0.44 -68.086l-4.625 0.038l0.048 -67.966l-73.731 -0.023l-10.671 -0.014z" />
  </g>
  <g data-id="045">
    <path d="m668.735 504.642l-0.031 33.691l4.57 0.049l45.589 0.026l21.175 -0.032l62.472 0.025l0.095 -67.391l-54.066 -0.076l-79.735 0.177l-0.068 33.532z" />
  </g>
  <g data-id="047">
    <path d="m551.531 470.583l-0.167 67.746l5.114 0.07l112.226 -0.066l0.031 -33.691l0.068 -33.532l-55.121 -0.276l-62.152 -0.252z" />
  </g>
  <g data-id="049">
    <path d="m398.845 109.665l-0.015 17.489l6.108 0.004l-0.024 17.649l-0.062 34.82l-0.032 17.332l5.941 0.019l-0.11 34.643l51.527 0.243l51.661 -0.024l0.058 -34.705l-5.275 -0.002l-0.032 -69.938l-5.213 -0.018l-0.035 -34.905l-17.31 0.031l-0.052 -17.595l-87.111 -0.11l-0.005 17.568l-0.019 17.498z" />
  </g>
  <g data-id="051">
    <path d="m556.479 538.398l-0.218 65.662l5.522 0.072l11.78 0.069l4.313 0.005l3.349 -0.008l2.807 -0.022l8.11 -0.007l2.986 -0.001l12.762 0.138l12.26 0.003l2.094 -0.008l5.418 0.021l3.614 0.007l2.749 0.019l1.775 -0.006l1.028 0.001l2.471 0.025l4.734 -0.002l1.151 -0.009l14.847 -0.008l1.268 -0.005l11.624 0.046l0.352 -66.009l-4.57 -0.049l-112.226 0.066z" />
  </g>
  <g data-id="053">
    <path d="m0.476 331.596l0.003 2.264l50.517 0.512l75.727 0.126l0.009 -4.269l-0.098 -64.012l42.113 0.022l18.879 0.078l0.067 -29.728l-1.855 -7.376l1.108 -8.118l4.991 -7.467l5.946 -5.96l1.724 -5.904l-5.455 -2.587l-0.74 -5.113l-1.195 -1.817l-4.191 1.842l-1.991 -0.425l-1.782 -2.317l0.608 -5.15l-5.361 -2.25l-3.936 -0.08l-3.359 -1.353l2.228 -1.132l0.544 -3.167l-3.303 -2.669l-4.333 2.165l-4.495 -0.906l-5.109 -2.67l-4.395 2.747l-4.467 -0.768l-4.204 -2.167l-5.217 1.131l-9.026 0.069l-2.875 0.019l-3.943 -2.305l-10.59 1.635l-6.482 8.052l1.014 2.017l1.628 0.779l0.532 2.036l-1.092 1.758l-1.735 0.319l-1.841 -0.46l-1.495 0.32l-0.76 1.657l-0.72 1.956l-1.602 0.659l-2.189 -0.479l-1.494 0.479l-1.548 0.718l-1.308 0.698l-1.241 0.619l-1.494 0.459l-1.188 0.359l-2.535 -0.399l-3.549 -1.656l-3.162 1.377l-3.229 1.855l-2.295 2.533l-2.055 0.173l-1.121 -0.971l-0.881 -1.496l-0.6 -1.496l-0.734 -1.516l-1.201 -0.399l-1.468 0.22l-1.548 0l-1.641 -0.299l-1.441 -0.958l-0.681 -1.217l0.254 -1.956l1.388 -1.657l1.841 -1.438l1.281 -1.678l-0.648 -1.442l-2.034 -0.136l-1.428 -0.579l-1.193 -0.74l-0.902 -1.078l-1.094 -1.239l-0.174 -1.898l2.509 -1.559l-0.031 -1.465l-2.25 -0.203l-0.961 1.507l-1.228 1.439l-1.308 1.019l-2.188 0.04l-1.882 -1.439l-2.415 -0.62l-3.002 1.219l-2.066 1.379l-1.726 6.41l1.296 5.017l-2.224 1.34l-4.34 -1.97l-3.827 3.255l0.748 5.454l-1.615 4.063l-2.867 0.622l-0.095 -1.771l-2.741 -2.549l-1.867 1.087l0.542 2.055l-1.658 4.237l-3.357 2.247l-2.371 0.796l-2.522 -1.395l-1.961 -2.551l-2.309 -1.475l-3.076 0.971l-0.155 1.105l-1.251 1.115l-1.974 -0.538l-0.379 -1.798l-0.799 -1.554l-2.05 -1.177l-1.116 -0.394l0.025 4.902l0.058 3.393l0.169 12.635l0.076 5.719l-0.028 4.093l-0.093 6.65l-0.085 12.102l-0.073 24.236l-0.067 2.52l0.044 1.793l-0.026 15.747l-0.068 12.681l-0.023 4.131l-0.036 8.082l0.027 4.423l-0.063 6.217z" />
  </g>
  <g data-id="055">
    <path d="m221.944 231.811l-0.026 17.828l1.374 -1.092l2.295 -5.381l3.029 -2.086l9.808 3.794l0.107 3.951l-4.003 1.846l0.827 2.778l2.922 2.321l-0.307 20.372l1.788 2.851l2.749 2.296l3.483 4.708l5.884 1.8l11.342 -1.661l1.868 0.87l3.416 -0.653l2.001 2.591l-1.148 3.835l1.588 0.85l7.406 -0.393l5.23 2.878l4.221 3.595l3.299 0.201l4.199 1.707l2.933 -0.203l9.61 -6.465l4.575 -1.788l8.785 1.956l9.862 -1.608l9.218 -3.921l2.542 0.186l3.4 -1.531l3.487 0.232l4.201 4.783l3.226 2.058l0.201 1.715l-2.175 2.22l-4.4 2.58l-2.669 3.376l0.334 3.635l3.376 4.613l1.308 6.547l3.616 5.775l1.721 0.985l0.787 8.507l1.454 6.475l8.26 2.675l3.576 2.635l5.549 3.227l2.693 -0.064l1.52 -5.95l10.334 -3.192l6.138 0.394l3.443 1.357l4.243 2.931l3.362 4.227l0.188 3.086l-2.215 5.953l1.281 5.949l2.424 3.372l28.779 -0.144l0.005 -33.499l10.147 0.051l0.117 -68.459l11.649 0.025l-0.007 -34.452l-51.527 -0.243l-17.154 0.052l-103.008 0.169l-68.545 -0.032z" />
  </g>
  <g data-id="057">
    <path d="m245.939 304.706l0.018 29.918l8.159 -0.002l-0.009 33.845l-0.033 28.525l-0.014 5.65l6.432 0.052l44.338 -0.029l-0.004 -50.998l67.581 0.015l0.122 -4.629l-3.576 -2.635l-8.26 -2.675l-1.454 -6.475l-0.787 -8.507l-1.721 -0.985l-3.616 -5.775l-1.308 -6.547l-3.376 -4.613l-0.334 -3.635l2.669 -3.376l4.4 -2.58l2.175 -2.22l-0.201 -1.715l-3.226 -2.058l-4.201 -4.783l-3.487 -0.232l-3.4 1.531l-2.542 -0.186l-9.218 3.921l-9.862 1.608l-8.785 -1.956l-4.575 1.788l-9.61 6.465l-2.933 0.203l-4.199 -1.707l-3.299 -0.201l-4.221 -3.595l-5.23 -2.878l-7.406 0.393l-1.588 -0.85l1.148 -3.835l-2.001 -2.591l-3.416 0.653l-1.868 -0.87l-11.342 1.661l-5.884 -1.8l-0.051 18.709z" />
  </g>
  <g data-id="059">
    <path d="m260.491 402.695l0.058 51.4l50.449 -0.061l0.007 16.923l55.886 0.102l0.037 50.211l33.419 0.011l-0.006 16.756l3.058 0.089l1.299 -3.009l-0.103 -3.978l2.856 0.937l2.106 -2.735l2.931 -2.002l-0.436 -1.475l2.576 -0.451l0.238 -4.83l1.423 -0.546l1.349 -3.32l3.138 -0.189l1.452 -2.542l0.183 3.493l1.811 0.363l1.554 -2.676l0.569 1.463l5.181 2.076l1.242 -0.989l4.207 -0.366l0.6 -1.198l5.978 1.034l0.564 2.477l1.419 -2.531l2.394 -0.986l0.728 -2.285l2.745 0.661l5.192 -2.456l2.733 -0.074l2.175 -1.645l-1.054 -4.531l1.534 -8.021l1.049 -2.493l4.392 -3.807l0.169 -1.663l-5.667 -7.697l2.89 -0.973l0.578 -1.825l-0.948 -1.2l-7.64 -3.527l-4.869 -4.326l2.699 -8.542l-4.547 0.905l-6.973 3.507l-2.33 -1.961l-0.378 -5.205l-3.985 1.179l-2.64 -5.663l2.597 -0.863l-0.133 -3.22l-3.483 0.214l-3.897 -2.66l-0.618 -2.852l2.643 -6.365l0.089 -2.234l-2.006 -2.739l-3.281 -3.565l-2.254 -4.86l-3.744 -6.123l-0.555 -10.191l-3.428 -3.077l-0.349 -3.604l-85.333 0.313l-25.205 -0.013l-44.338 0.029z" />
  </g>
  <g data-id="061">
    <path d="m155.201 91.956l0.003 34.973l7.696 -0.069l-0.018 17.818l-0.038 32.128l4.495 0.906l4.333 -2.165l3.303 2.669l-0.544 3.167l-2.228 1.132l3.359 1.353l3.936 0.08l5.361 2.25l-0.608 5.15l1.782 2.317l1.991 0.425l4.191 -1.842l1.195 1.817l0.74 5.113l5.455 2.587l-1.724 5.904l-5.946 5.96l-4.991 7.467l-1.108 8.118l1.855 7.376l2.375 3.438l8.34 5.224l8.393 0.02l3.483 2.998l7.686 2.561l3.95 -1.191l0.026 -17.828l68.545 0.032l0.043 -34.971l-6.75 0.001l-0.015 -69.895l-6.827 0.047l0.01 -35.22l-34.769 0.16l-17.282 -0.016l-69.699 0.006z" />
  </g>
  <g data-id="063">
    <path d="m736.99 197.277l0.007 21.143l0.005 13.684l0.045 34.493l3.335 0.017l68.768 0.022l13.664 0.024l0.03 -69.314l-2.858 -0.019l0.022 -34.771l-51.872 -0.056l-17.335 0.071l-0.075 34.713l-13.737 -0.007z" />
  </g>
  <g data-id="065">
    <path d="m304.825 351.668l0.004 50.998l25.205 0.013l85.333 -0.313l5.371 -3.888l2.034 -3.268l-0.501 -5.456l-5.499 -5.801l-1.605 -3.279l-0.965 -8.993l-2.714 -3.339l-2.424 -3.372l-1.281 -5.949l2.215 -5.953l-0.188 -3.086l-3.362 -4.227l-4.243 -2.931l-3.443 -1.357l-6.138 -0.394l-10.334 3.192l-1.52 5.95l-2.693 0.064l-5.549 -3.227l-0.122 4.629l-67.581 -0.015z" />
  </g>
  <g data-id="067">
    <path d="m813.768 0.026l0.084 57.343l2.958 0.008l0.034 35.236l34.812 -0.013l67.381 0.138l-0.11 -1.133l1.155 -0.622l-0.396 -1.196l-0.296 -1.395l1.204 -1.172l0.099 -1.047l0.059 -1.202l0.913 -1.976l-0.28 -1.26l0.726 -1.446l0 -1.023l1.006 -1.472l0.891 -1.347l-0.247 -1.173l1.447 -0.15l0.72 -1.831l-0.204 -1.139l0.703 -1.637l0.714 -1.208l-0.28 -1.248l0.379 -1.33l-0.115 -1.666l0.445 -1.124l-1.511 -1.273l-1.285 -1.837l0.28 -1.775l-1.086 -1.985l-1.321 -1.213l-0.082 -1.65l-0.62 -2.688l-1.411 -1.642l0.345 -1.816l-0.682 -1.803l-0.171 -1.034l-0.427 -1.095l-0.003 -1.398l-0.861 -1.021l-0.318 -1.767l0.04 -1.182l-1.123 -0.503l-0.798 -1.285l0.304 -1.29l-0.45 -1.607l0.975 -1.128l-0.458 -1.657l0.216 -1.343l-0.6 -1.723l-0.967 -1.216l0.15 -1.192l-1.567 -1.394l0.017 -1.318l-0.033 -1.445l-0.1 -1.192l-1.178 -0.568l-0.67 -1.119l0.253 -1.179l-0.959 -1.175l-0.159 -1.041l0.219 -1.022l-1.18 -1.779l-0.195 -1.465l-0.401 -2.512l-0.218 -1.152l-0.739 -2.285l-0.048 -1.522l0.556 -1.288l0.363 -1.43l-24.126 -0.908l-71.775 0.006z" />
  </g>
  <g data-id="069">
    <path d="m503.342 92.273l0.035 34.905l5.213 0.018l0.032 69.938l5.275 0.002l-0.058 34.705l17.185 0.059l34.298 0.009l0.005 -34.692l-4.808 -0.017l0.207 -70.014l47.194 0.071l-0.036 -34.987l-87.088 -0.076l-17.453 0.08z" />
  </g>
  <g data-id="071">
    <path d="m646.963 127.314l0.053 43.164l8.08 2.327l4.009 7.199l5.186 -0.039l0.012 17.152l1.353 -0.004l3.118 -5.074l4.778 -1.176l-0.434 2.268l2.093 5.773l-0.354 4.534l6.199 -2.5l2.127 1.16l1.516 -1.419l-0.334 -2.772l2.976 -1.815l1.174 3.511l0.734 -2.992l6.405 -4.889l1.374 -2.675l2.829 0.499l2.469 5.988l0.294 5.645l1.793 0.58l0.329 -6.365l0.494 5.904l1.732 3.697l-3.738 1.79l-2.127 4.357l4.207 -4l3.742 -1.856l1.521 -3.31l2.295 -1.157l4.577 0.598l1.148 7.196l5.044 5.479l-1.281 1.155l1.321 2.907l13.32 0.267l-0.007 -21.143l13.737 0.007l0.075 -34.713l17.335 -0.071l0.01 -34.993l-3.544 -0.005l0.076 -35.019l-87.038 -0.093l-0.078 34.961l-30.6 -0.037z" />
  </g>
  <g data-id="073">
    <path d="m802.605 471.01l-0.095 67.391l3.717 0.033l13.004 0.042l83.888 0.017l0.073 -50.462l0.009 -16.753l-3.252 -0.002l-50.396 -0.111l-46.949 -0.155z" />
  </g>
  <g data-id="075">
    <path d="m270.502 39.27l0.03 17.576l23.923 0.028l0.023 52.571l34.7 0.064l34.839 0.086l34.827 0.07l0.019 -17.498l-52.254 -0.15l-0.02 -35.12l-6.039 -0.011l-0.007 -56.645l-35.152 0.061l-34.822 0.02l-0.068 38.946z" />
  </g>
  <g data-id="077">
    <path d="m903.193 488.031l-0.073 50.462l2.833 0.024l-0.039 54.885l4.145 0.908l0.037 11.003l11.115 -0.026l3.594 -0.04l1.979 -0.097l11.158 0.117l2.567 0.029l14.182 -0.062l11.865 0.024l1.821 -0.082l12.035 0.01l2.758 0.017l2.769 0.03l2.779 0.046l2.772 -0.017l1.488 0.02l1.296 0.018l2.74 -0.01l1.765 0.003l0.312 -1.997l-1.203 -3.443l-0.271 -3.194l-0.013 -1.795l-0.15 -2.445l-0.302 -1.093l0.214 -1.642l-0.308 -1.019l0.391 -3.087l0.981 -2.596l0.937 -1.318l0.315 -1.261l-0.154 -1.218l0.474 -2.466l-0.289 -2.55l-0.171 -1.003l-0.697 -1.069l-0.5 -1.3l-0.414 -1.734l0.102 -1.912l-0.737 -1.822l-0.75 -1.558l0.359 -2.227l-0.121 -1.029l-0.689 -1.045l-0.509 -1.034l-0.128 -1.215l0.111 -1.273l0.373 -1.04l0.075 -1.334l-0.316 -1.11l-0.655 -1.595l-0.787 -1.841l-0.146 -2.68l1.015 -1.08l-0.471 -1.179l-0.178 -1.271l-0.122 -1.542l0.241 -1.394l-0.502 -1.213l0.359 -1.761l-0.346 -1.393l-0.358 -1.232l0.417 -1.629l-0.374 -1.351l0.171 -2.093l-1.11 -0.424l-1.59 -1.461l-0.107 -1.444l-1.032 -0.379l-1.567 -0.39l-0.938 -1.336l-1.056 -1.442l-0.431 -1.436l-1.013 -0.227l-0.503 -1.95l0.088 -1.043l-1.251 -2.861l-1.277 -0.591l-0.115 -1.017l-1.02 -0.481l-0.765 -1.367l0.089 -1.147l-0.995 -1.294l-1.198 -0.573l0.219 -1.222l-0.333 -1.256l0.544 -1.564l-0.346 -1.035l-0.51 -1.074l-0.753 -1.244l-1.095 -0.478l-0.051 -1.166l0.124 -1.81l-0.418 -1.263l0.242 -1.074l-0.035 -1.389l-0.31 -2.388l-0.783 -1.399l0.267 -1.074l-0.166 -1.224l-0.102 -1.019l-0.509 -1.223l0.497 -1.855l-0.268 -1.576l-0.752 -1.575l-1.3 -1.224l-0.102 -1.057l-1.019 -0.816l-0.3 -1.082l-0.42 -1.08l0.089 -1.039l-0.549 -1.206l-0.637 -1.261l-0.968 -1.132l-32.192 0.63l-2.638 0.004l-30.399 0.106l-0.009 16.753z" />
  </g>
  <g data-id="079">
    <path d="m515.878 0.266l-0.044 56.858l5.009 0.007l-0.049 35.063l87.088 0.076l0.025 -35.034l-4.389 -0.005l0.026 -56.965l-26.432 0.04l-59.059 -0.038l-2.175 -0.002z" />
  </g>
  <g data-id="081">
    <path d="m806.227 538.434l-0.185 66.695l2.83 0.026l1.083 0.005l2.677 0.011l23.236 0.106l1.005 -0.013l10.721 0.008l20.561 0.018l3.144 -0.009l3.622 0.037l1.324 -0.005l21.759 0.016l12.086 -0.016l-0.032 -11.003l-4.145 -0.908l0.039 -54.885l-2.833 -0.024l-83.888 -0.017l-13.004 -0.042z" />
  </g>
  <g data-id="083">
    <path d="m450.536 266.292l-0.117 68.459l74.726 0.032l10.671 0.014l0.059 -68.423l-4.892 -0.006l0.041 -34.469l-17.185 -0.059l-51.661 0.024l0.007 34.452l-11.649 -0.025z" />
  </g>
  <g data-id="085">
    <path d="m273.581 582.587l-0.006 20.919l1.216 0.016l2.102 0.003l2.176 -0.005l9.421 -0.014l4.563 0.02l2.622 -0.001l5.122 0.013l3.793 0.014l1.01 -0.031l3.808 0.023l2.84 0.001l3.598 -0.018l3.227 0.011l3.874 0.018l8.865 0.011l18.983 0.091l6.154 -0.096l1.132 0.033l4.191 -0.014l2.749 0l3.476 0.011l2.095 -0.02l6.34 0.035l2.698 0.025l3.294 0l1.071 -0.012l1.045 0.008l2.29 0.014l5.238 -0.027l16.831 -0.017l2.173 0.047l3.392 -0.005l6.514 -0.003l16.069 0.018l1.02 0l1.561 0.023l3.942 -0.072l9.346 0.066l3.088 0.007l15.442 -0.002l0.657 -4.394l-3.48 -6.519l-3.616 -1.518l-5.311 -7.976l-1.935 -4.211l-0.213 -8.447l-1.364 -2.173l-0.376 -3.586l1.847 -4.64l3.082 -5.146l2.255 -2.506l2.148 -5.072l0.087 -2.759l-2.836 -4.304l-0.08 -1.757l2.842 -5.137l1.321 -4.115l-0.267 -6.611l-1.094 -3.52l-4.11 -8.94l-2.175 1.645l-2.733 0.074l-5.192 2.456l-2.745 -0.661l-0.728 2.285l-2.394 0.986l-1.419 2.531l-0.564 -2.477l-5.978 -1.034l-0.6 1.198l-4.207 0.366l-1.242 0.989l-5.181 -2.076l-0.569 -1.463l-1.554 2.676l-1.811 -0.363l-0.183 -3.493l-1.452 2.542l-3.138 0.189l-1.349 3.32l-1.423 0.546l-0.238 4.83l-2.576 0.451l0.436 1.475l-2.931 2.002l-2.106 2.735l-2.856 -0.937l0.103 3.978l-1.299 3.009l-2.542 0.401l-1.838 2.311l-3.856 -0.996l-0.526 3.335l-3.305 2.598l2.133 2.776l-5.786 5.178l-3.258 0.254l-0.409 1.969l-3.617 1.55l1.111 6.758l-2.965 -1.447l-2.25 3.539l-2.422 -0.843l-7.301 1.722l0.238 5.472l-8.331 6.628l-3.195 -1.736l-2.778 1.656l-0.999 2.39l-1.79 -0.419l-4.039 2.031l-4.248 -0.068l-0.98 1.644l1.573 2.617l-4.236 0.544l-2.258 -1.046l0.949 2.617l-3.597 1.988l-2.744 -3.591l-2.292 3.07l-1.931 -1.588l-2.178 -3.692l-2.054 -0.019l-0.812 4.039l-2.241 0.82l-7.829 -2.229l-2.4 -2.723l-1.159 1.779l-1.232 -2.723l-1.45 2.248l-1.72 -1.569l-3.06 2.125l-3.063 -1.759l-2.254 1.528l-1.945 -3.293l1.826 -0.712l-0.847 -4.481l-3.367 1.905l-2.705 -1.131l0.095 2.39l-5.736 -1.833l-3.739 3.177l-3.502 0.542l-0.957 -1.239z" />
  </g>
  <g data-id="087">
    <path d="m0.373 518.859l0.083 3.297l0.003 4.829l-0.001 3.353l0.007 8.567l91.376 0.048l48.724 -0.149l9.461 -0.156l-0.461 -67.509l-40.506 0.058l-50.39 -0.006l-25.568 0.045l-0.007 17.243l-32.587 -0.035l0.007 6.039l-0.141 24.376z" />
  </g>
  <g data-id="089">
    <path d="m109.136 402.864l-0.077 68.333l40.506 -0.058l84.147 -0.106l26.792 -0.08l0.046 -16.857l-0.129 -51.257l-6.361 -0.195l0.014 -5.65l-50.797 0.013l0 5.66l-67.68 0.142l-26.461 0.056z" />
  </g>
  <g data-id="091">
    <path d="m809.215 267.886l-0.302 67.127l3.485 0.01l-0.099 16.825l34.049 0.105l33.962 0.18l-0.048 -16.799l-2.998 -0.061l0.212 -68.587l-3.15 -0.002l-51.512 -0.024l-13.664 -0.024l0.065 1.249z" />
  </g>
  <g data-id="093">
    <path d="m609.546 334.82l-0.048 67.966l4.625 -0.038l-0.44 68.086l54.62 0.203l80.236 -0.104l-0.055 -67.945l-3.745 0.013l0.007 -51.143l0.025 -16.907l-4.264 -0.025l-102.348 -0.129l-28.614 0.023z" />
  </g>
  <g data-id="095">
    <path d="m603.545 0.265l-0.026 56.965l4.389 0.005l-0.025 35.034l0.036 34.987l39.044 0.058l30.6 0.037l0.078 -34.961l0.003 -35.101l-3.939 -0.008l0.012 -57.168l-1.414 0.04l-33.809 0.071l-34.95 0.041z" />
  </g>
  <g data-id="097">
    <path d="m877.477 266.686l-0.212 68.587l2.998 0.061l0.048 16.799l82.451 0.201l-0.492 -1.216l0.255 -1.221l-0.624 -1.127l-0.166 -1.239l0.305 -1.033l-0.434 -1.108l0.104 -2.103l-0.35 -1.168l1.495 -2.855l-0.38 -1.25l-0.831 -1.193l0.713 -1.39l0.076 -1.128l0.026 -1.222l-1.09 -2.021l0.076 -1.618l-0.778 -1.072l-0.42 -1.261l0.051 -1.109l0.861 -1.91l0.663 -1.637l-0.701 -1.242l-0.293 -1.375l-0.701 -1.13l-1.135 -1.075l-0.324 -1.026l0.739 -1.3l0.025 -1.433l0.14 -1.394l-0.274 -1.027l0.04 -1.163l-0.096 -1.146l0.42 -1.15l-0.408 -1.527l0.688 -1.452l-0.51 -1.113l0 -1.189l0.917 -1.416l-0.218 -1.34l0.256 -1.018l-0.378 -1.054l-1.206 -0.573l-0.416 -1.507l1.556 -2.19l0.013 -1.36l-0.267 -1.039l0.204 -1.284l-0.542 -1.016l0 -1.308l0.678 -1.119l0.107 -1.478l0.264 -1.935l-0.461 -1.081l0.127 -1.005l-0.137 -1.29l-0.726 -1.157l-1.79 -0.293l-0.358 -1.094l-0.806 -2.833l-0.771 -1.235l0.772 -1.841l-0.698 -1.947l0.064 -1.49l-0.523 -1.144l-77.618 0.019z" />
  </g>
  <g data-id="099">
    <path d="m764.679 92.483l-0.076 35.019l3.544 0.005l-0.01 34.993l51.872 0.056l3.333 -0.041l98.369 0.3l0.28 -1.846l0.636 -1.524l-0.107 -1.363l-0.397 -1.174l0.247 -1.178l-0.661 -1.139l0.351 -1.554l0.692 -1.491l0.56 -1.307l0.279 -1.301l-0.417 -1.286l1.829 -2.076l-0.747 -2.085l-0.924 -1.151l0.937 -1.018l-0.548 -1.662l-0.836 -1.273l0.35 -1.009l0.319 -1.042l-0.99 -1.125l0.495 -1.688l-0.979 -1.555l-0.183 -1.196l-1.054 -1.301l0 -1.417l0.759 -1.456l0.262 -1.26l-0.471 -1.141l-0.261 -1.614l0.732 -1.024l0.679 -1.496l-0.078 -1.024l-0.967 -1.536l0.967 -1.418l-0.492 -1.103l0.676 -1.566l-0.461 -1.566l0.676 -1.79l-1.221 -1.517l-0.313 -1.045l0.281 -1.094l-0.395 -1.393l0.815 -2.576l-0.99 -1.07l-0.907 -4.928l0.148 -1.021l0.412 -1.021l-1.444 -1.422l-67.592 -0.373l-34.812 0.013l-52.165 -0.131z" />
  </g>
  <g data-id="101">
    <path d="m242.221 56.844l-0.039 35.121l34.769 -0.16l-0.01 35.22l6.827 -0.047l0.015 69.895l6.75 -0.001l-0.043 34.971l103.008 -0.169l17.154 -0.052l0.11 -34.643l-5.941 -0.019l0.032 -17.332l0.062 -34.82l0.024 -17.649l-6.108 -0.004l0.015 -17.489l-34.827 -0.07l-34.839 -0.086l-34.7 -0.064l-0.023 -52.571l-23.923 -0.028l-0.03 -17.576l-17.414 -0.019l-0.051 17.592l-10.815 0.001z" />
  </g>
  <g data-id="103">
    <path d="m531.023 231.901l-0.041 34.469l4.892 0.006l-0.059 68.423l73.731 0.023l28.614 -0.023l0.058 -51.394l0.018 -16.899l-4.218 -0.007l0.015 -34.499l-68.713 -0.089l-34.298 -0.009z" />
  </g>
  <g data-id="105">
    <path d="m0.092 81.335l0.032 1.503l0.022 5.816l0.004 4.643l0.018 1.662l0.018 1.123l-0.022 1.624l-0.051 3.59l0.067 1.185l0.022 5.446l0.018 2.846l0.009 1.145l0.031 5.266l-0.023 2.012l0.022 4.096l0.041 3.196l0.043 6.523l0.039 17.155l0.053 2.12l0.012 10.467l0.008 3.535l0.013 2.373l0.171 33.61l1.116 0.394l2.05 1.177l0.799 1.554l0.379 1.798l1.974 0.538l1.251 -1.115l0.155 -1.105l3.076 -0.971l2.309 1.475l1.961 2.551l2.522 1.395l2.371 -0.796l3.357 -2.247l1.658 -4.237l-0.542 -2.055l1.867 -1.087l2.741 2.549l0.095 1.771l2.867 -0.622l1.615 -4.063l-0.748 -5.454l3.827 -3.255l4.34 1.97l2.224 -1.34l-1.296 -5.017l1.726 -6.41l2.066 -1.379l3.002 -1.219l2.415 0.62l1.882 1.439l2.188 -0.04l1.308 -1.019l1.228 -1.439l0.961 -1.507l2.25 0.203l0.031 1.465l-1.535 1.019l-1.294 1.739l1.588 1.938l0.902 1.078l1.193 0.74l1.428 0.579l1.308 0.18l1.641 0.619l-1.548 2.457l-1.841 1.438l-1.388 1.657l-0.254 1.956l0.681 1.217l1.441 0.958l1.641 0.299l1.548 0l1.468 -0.22l1.201 0.399l0.734 1.516l0.6 1.496l0.881 1.496l1.121 0.971l2.055 -0.173l2.295 -2.533l3.229 -1.855l3.162 -1.377l3.549 1.656l2.535 0.399l1.188 -0.359l1.494 -0.459l1.241 -0.619l1.308 -0.698l1.548 -0.718l1.494 -0.479l1.201 0.18l1.709 0.299l1.388 -1.617l0.333 -1.856l1.321 -1.019l1.668 0.1l2.722 -0.059l1.092 -1.758l-0.532 -2.036l-1.628 -0.779l-1.435 -1.279l6.903 -8.79l10.59 -1.635l3.943 2.305l2.875 -0.019l9.026 -0.069l5.217 -1.131l4.204 2.167l4.467 0.768l4.395 -2.747l4.417 2.119l0.73 -31.577l0.018 -17.818l-7.696 0.069l-0.003 -34.973l-0.002 -17.532l-1.212 -0.027l-1.705 0.07l-118.914 -0.085l-33.193 -0.097l-0.005 1.407l-0.041 1.378l-0.038 4.265z" />
  </g>
</svg>
