<?xml version="1.0" encoding="UTF-8"?>
<!DOCTYPE svg PUBLIC '-//W3C//DTD SVG 1.1//EN' 'http://www.w3.org/Graphics/SVG/1.1/DTD/svg11.dtd'>
<svg viewBox="0 0 10000 7834.23" xmlns="http://www.w3.org/2000/svg">
  <g data-id="001">
    <path d="m6758.3 7074.6l0 0l2.5 751.4l147.9 2.6l38.6 0.2l184.7 1.2l472.2 0.2l8 -0l639.1 -2.4l0.4 -0l-2.9 -223.8l-1.7 -311.2l-0.8 -96.1l3.4 -620.7l-1.1 -163.2l7.5 -665.4l-14.5 -660.8l-69.6 0.6l-13.5 23.3l0.1 27.3l-14.1 0.1l-0.4 55.1l-13.6 0.1l4.5 110.2l-28.7 0.5l4.5 55.7l-177.8 0.4l-37.5 2.1l-13.5 -11l-90.7 -5.8l-20.6 -13.4l-1.1 -141l55.7 0.2l0.1 -55.9l27.6 -0l0.2 -47l-738.6 -5.1l-2.2 668.5l1.3 -0l1.1 198.8l2.5 837.5l4.4 286.9l-199.5 -0l-163.8 -0.2z" />
  </g>
  <g data-id="003">
    <path d="m3477 11.1l0 0l1.2 260l40.2 0.1l-0.2 228.7l-0.2 331.7l0.1 143.6l27.2 0.2l-0.1 183.6l-0.5 519.8l33.2 0l656.4 0.6l526.4 0.6l53.1 2.9l768.1 1.5l2.6 -315.5l-39.4 -22.3l-23.4 -26l5.8 -21.2l33 -18.8l-21 -16.9l10.4 -33.7l-14.3 -19.6l-29.1 7.9l-6.5 -59.8l2.7 -34.2l-57.5 16.1l-51.7 -24.9l0.5 -16.5l-31.7 -0l-5.3 -9.4l14.5 -73.9l-47.1 -46l-11 -33.7l-27 -3.4l-22.6 -35.3l-2.3 -5l-3.4 -18.1l-3.5 -15.5l-1.1 -8.2l-8.3 -9.3l-2.4 -9.2l-6.2 -6.6l-10 -4.5l-11 -3.7l-10.6 1.5l-12.1 -4l-4.7 -11.5l-7 -9.4l-8.5 3.7l0.8 1.3l-3.9 2.8l-6.3 2.2l-4.3 1.7l-12.7 -3.8l-10 -4.9l-13.3 -5.6l-8.3 -4.8l-12.1 -19.3l-10.5 -12.8l-3.8 -12.4l-11.3 -7.9l-4.7 4.4l-16.2 11.3l-18.6 -8.1l-7.2 -16.7l5.2 -11.5l7.7 -7.8l-1.3 -15.3l-9.4 -6.8l-14.2 1.3l-8.8 -8.2l-2.3 -11.6l-15.1 -10.4l-21.9 -7.9l-17.9 -7.3l-11 -13.3l-21.7 -4.5l-13.7 4.6l-11.3 3.9l-17.2 2.9l-13.2 -1.7l-8.9 10.4l-3.7 8.2l-9 4l-4.2 1.1l-8.2 -5.3l-8.1 -9l-7.3 -10.6l4.2 -16.6l-7.6 -9.2l-9.9 -4.5l-9.8 5.2l-9.2 -5.7l-17 -6.2l-14.3 -9.8l-8.9 3.3l-14.2 -4.5l-6.2 -10.7l-1.2 -4.2l8.3 -9.4l-0.2 -18.5l-4.8 -13.3l0.4 -9.3l1.1 -10.4l-5.2 -2.9l-2.7 -6.5l0.1 -10.3l-9.4 -14.8l-17.4 -3.8l-23.6 -4.9l-12.7 -8.6l-11.4 -9.5l-29 -13.5l-10.1 -13.2l7.8 -11.3l6.4 -5.1l7.2 -15.4l1.1 -6.8l-7.5 -7.3l-4.1 0.8l-3.4 -4.8l0 -4.9l-5.1 -7l1.1 -15.3l-2.7 -14.7l-3.5 -3l-9.5 -8.8l-9.7 -23.3l-8.7 -9.5l-13.3 -9.6l0.2 -15.4l2.8 -11.3l2 -20.7l8.3 -7.2l2.7 -1.3l1.3 -8.1l-2.5 -8.5l-1.4 -13.8l-10.6 -11l-13.2 -13.5l-10.7 -11.1l-6.9 -22.2l4.8 -19.3l1.5 -9.6l1 -9.3l-1 -9.8l-3.5 -9.5l-2.5 -14.7l0 -11.5l-7.5 -11.5l-12.8 -8.3l-16.5 -4.5l-5.1 -9.6l0 -1.2l-122.5 -0.6l-4.7 0.7l-212.3 0.3l-98.6 1.1l-28.1 0.7l-16 1.5l-0.1 -0l-31.1 -1.6l-327.6 1.1l-93.1 -1.8l-17.9 0.2l-61.1 0.2z" />
  </g>
  <g data-id="005">
    <path d="m7183.8 24.7l0 0l2.4 251.8l12.6 22.2l-1 303.1l6.1 27.9l0.1 114.5l1.3 144.7l1.5 74l-8.3 12.2l-2.9 701.2l10.4 690.9l-12 0.2l0.3 644.3l474.5 -1.7l864 -5.2l-1.1 -12.1l-0.2 -464.1l-1 -172l0.9 -276l2.1 -417.2l-4.3 -4l-3.1 -76.6l2.5 -621.1l-3.9 -520.2l12.3 1.2l3 -170.9l-2.6 -260.7l-420.7 -0l-680.6 -0.1l-93.2 -1.1l-1.3 1.9l-19.9 12.8l-138 -0.1z" />
  </g>
  <g data-id="007">
    <path d="m4464.3 6580.6l0 0l-0.2 487.5l18.2 0.1l-1.9 752.2l418 -0.2l368.6 -1.8l70.9 0.2l109.4 0.3l343.5 -1.2l203.9 1.5l576.6 1.1l20.4 0.1l3.1 0.3l9.2 0.1l55.8 1.1l7.8 0.1l93.1 3.8l-2.5 -751.4l163.8 0.2l199.5 0l-4.4 -286.9l-2.5 -837.5l-1.1 -198.8l-1.3 0l2.2 -668.5l-3.5 0l-783.9 5.3l-1281.9 -7.5l0.3 333.4l0.6 334.8l26.4 0l-2.4 666.5l-6 158.8l-599.6 -4.1l-0 10.3z" />
  </g>
  <g data-id="009">
    <path d="m7107.8 3012.6l0 0l-0.1 33.3l6.1 9.8l0.1 678.5l-0.1 287.5l1.4 272.3l0.2 119.2l-6.3 1.1l1.3 78.4l7.9 30.3l-7.1 7l1.2 417.7l-1.5 135.3l3.5 -0l738.6 5.1l-0.2 47l-27.6 0l-0.1 55.9l-55.7 -0.2l1.1 141l20.6 13.4l90.7 5.8l13.5 11l37.5 -2.1l177.8 -0.4l-4.5 -55.7l28.7 -0.5l-4.5 -110.2l13.6 -0.1l0.4 -55.1l14.1 -0.1l-0.1 -27.3l13.5 -23.3l69.6 -0.6l2.4 0.1l-3.9 -298.4l-2.1 -39.6l186.5 -1.8l53.9 -2.5l184 -1l138.2 -0.7l-1.5 -337.8l-7.1 -2.7l-2.1 -1399.8l-256.8 2.4l-864 5.2l-474.5 1.7l-86.7 1z" />
  </g>
  <g data-id="011">
    <path d="m8524.9 441.6l0 0l3.9 520.2l-2.5 621.1l3.1 76.6l4.3 4l1004.7 -10.8l10.5 1.4l447.8 1.1l-1.3 -138.6l-0.8 -534.8l0 -51.3l0 -55.4l0.1 -241.4l-0.2 -5.1l0.2 -13.2l-0.1 -46.1l-0.1 -0.6l-0 -88.9l0 -0.6l-0.8 -198.8l0.8 -16l-2.5 -246.9l-274.7 -1.6l-314 -0.5l-0.4 0l-276.2 -0.8l-1.8 0.5l-87.4 -1.8l-47.8 0.9l-7.4 -0.2l-361.4 -2.5l-1.5 0.2l-8.5 0.1l-18.5 -0.1l-0.2 -0l-54.5 -0l2.6 260.7l-3 170.9l-12.3 -1.2z" />
  </g>
  <g data-id="013">
    <path d="m1432.9 1997.6l0 0l-0.6 370.8l3.1 12.8l-0.2 689.8l423.8 3.1l0.1 64.7l0.2 126.5l30.8 -0.3l35.5 -16.1l18.7 15.9l-5.3 69.8l37.5 40.4l-18.8 55.1l9.5 13.7l-19.8 19.4l22.7 32.3l9.6 38.9l-8.6 26.3l23 24.1l12.2 70.3l30.1 7.2l13.9 73.9l41.5 20l44.4 62.3l11.8 46.3l-18.7 18.5l15.7 35.9l2.5 37.9l71.6 4l14.8 29.6l36.3 6.6l17.9 42.9l31 3.6l30.2 24.8l19.2 31.7l38.7 -12.7l34.1 49.8l21.2 48.2l6.1 42.9l17.5 33.6l46.4 17.4l20.5 44.5l30.6 36.3l52.6 22.6l-23.6 11.8l-14 37.3l18 13.1l40.9 -12.5l22.5 34l67.3 26.4l-22.3 19.3l27.8 37.3l-8.6 27.4l88 1.5l4.8 504l36.7 -0.3l-0.1 328.3l861.3 0.5l1310.3 3.2l-0.3 -333.4l-27.3 0l-2.1 -673.5l60.1 0.2l-0.7 -170.2l-0.6 -505.9l-20.6 0.2l-0.4 -676.2l-25.7 -0.2l0.2 -56.3l-86 -0.1l-0 57.3l-801.1 3.2l-0 21.7l-21.6 -0.3l-237.6 -0l0.1 -28.1l-170.2 -0.4l0 -56.8l-170.2 -0.2l0 -57.7l-169.7 0.6l0.6 -85.7l-170.7 0.4l0 -58.5l-170.7 1.1l-0.4 -28.5l-339.1 -1.2l0 -156.7l-35.5 -24.7l-54.8 -103.2l-38.9 -20.3l-17.8 -44.9l-50.6 -18.1l-4.1 -14.4l-12.4 -41l-19.1 -15.4l-44.6 -1.9l-19.9 -79.2l-26.1 -3.1l-21.3 -49.4l-29.2 -9.5l-12.1 -32.5l-42.9 -3.5l-5.2 -33l-51.7 19.2l-32.6 -30.3l-35.4 -0.4l-21.3 20.6l-19.8 10.2l-6.1 -9l-22.7 19.6l-22.3 14.2l-42.3 47.4l-14.8 45.5l-9.8 19l2.4 20.1l5 19.4l-9.6 11.2l-17.3 0.9l-18.8 7.9l-16.9 8.3l-15.6 -0.4l-16.3 7l-16.5 11.6l-9.8 11.1l-10.1 6.5l-2.5 -1.9l-6.9 -0.3l-1.5 3.9l-11.1 7.3l-10.5 7.1l-4.8 7.4l-4.2 3.7l-7.4 0.2l-7 -3.1l-12.3 -7.3l-10.7 -7.2l-7.7 -5.4l-6.6 -0.8l-5.2 -4.7l-0.5 -5.4l-4.9 -4.9l-3.8 2.5l-12.2 5.6l-13.7 -9.6l-6 -14.7l5 -10.3l-6.4 -11.9l3.2 -11.5l9.4 -9l12.5 -1.9l12.5 -2l12.3 -4.8l5.6 -5.2l1.9 -5.5l-3 -3.5l-12.2 -3.9l-5.5 -6.9l2.2 -9.4l6 -2.5l0.2 -21l-8.3 -6l-22.2 -19.3l-7 -12.8l2.9 -17.3l-2.4 -14.1l-11.5 -6.9l-12.2 -3.7l-0.4 -21.4l13.8 -17.4l0.6 -16.2l-16.9 2.3l-15.3 7.3l-54.4 7.3l-41.5 -25.2l-46.9 9.2l-22 8.4l-7.7 -7.9l-1.1 -1.6l0 -4.8l0.6 -4.4l1.3 -6.9l-1.3 -4l-0.3 -2.2l-4 -1.8l-3.9 0.6l-7 -1l-5.9 0.8l-3.1 -2.4l-0.6 -8.9l-0.4 -7.1l0.3 -6.1l-3.3 -3.6l-3.9 -4.2l0.4 -4l-3.6 -5.4l-2.3 -5.8l-4.1 -5.8l-3.1 -5.4l0.9 -4.2l-1.9 -7.8l-21.4 -11.2l-6.7 0.2z" />
  </g>
  <g data-id="015">
    <path d="m9138.5 4741.6l0 0l1.7 537.8l1.6 1303.4l0.5 168l86.4 0.6l658.5 0.5l112.3 0.3l-0.5 -53.4l0.2 -40.9l-0.3 -17.7l0 -29.1l0 -13.4l0.1 -100.8l0.1 -67.8l-0.4 -291.2l0.1 -39.7l-0.1 -16.9l0.4 -111.4l-0.2 -5.7l0 -35.8l0.1 -0.7l0.1 -7.1l-0 -5.8l-0 -28.1l-0.2 -10.5l-0.1 -102.4l0 -0.2l0 -26.9l0.5 -69.1l-0.2 -17l-0.4 -6.7l0.6 -56.9l-0.3 -6.7l-0.5 -153.6l0.5 0l0 -15.9l-0.5 -467.2l0.5 -214.8l0 -1.5l0 -0.3l-683.8 4.8l-176.9 -0.4z" />
  </g>
  <g data-id="017">
    <path d="m2489.7 2383.5l0 0l4.1 14.4l50.6 18.1l17.8 44.9l38.9 20.3l54.8 103.2l35.5 24.7l-0 156.7l339.1 1.2l0.4 28.5l170.7 -1.1l0 58.5l170.7 -0.4l-0.6 85.7l169.7 -0.6l0 57.7l170.2 0.2l-0 56.8l170.2 0.4l-0.1 28.1l237.6 0l21.6 0.3l0 -21.7l801.1 -3.2l0 -57.3l-0.1 -285.8l-172.8 1.3l0.5 -172.9l-343.6 -0.2l0.2 -168.5l-311.9 -0.6l-30.3 -18.6l15.6 -39.4l-177.7 3.2l0.5 -112.2l-171.6 -0.2l3.6 -175.9l-89 0.4l-1.2 -174.5l-86.4 0.7l-344.8 -0.4l0.7 175.9l-177.3 0.4l4.6 170.7l-257.1 0.6l-1 172l-56.5 3.2l-199 -0.2l-57.7 5.6z" />
  </g>
  <g data-id="019">
    <path d="m5264 897.2l0 0l22.6 35.3l27 3.4l11 33.7l47.1 46l-14.5 73.9l5.3 9.4l31.7 0l-0.5 16.5l51.7 24.9l57.5 -16.1l-2.7 34.2l6.5 59.8l29.1 -7.9l14.3 19.6l-10.4 33.7l21 16.9l-33 18.8l-5.8 21.2l23.4 26l39.4 22.3l-2.6 315.5l26 -0.1l1.4 694l19.9 -0.3l4.1 514.3l0.1 108.9l-0.3 15.6l948.1 -0.7l526.4 -3.5l86.7 -1l-0.3 -644.3l12 -0.2l-10.4 -690.9l2.9 -701.2l8.3 -12.2l-1.5 -74l-242.4 0.4l-356.1 4l-172.9 9.8l-377.6 -2l-312.2 -2.7l-480.3 -1.3z" />
  </g>
  <g data-id="021">
    <path d="m8246.2 7196.6l0 0l0.8 96.1l1.7 311.2l2.9 223.8l29 -0l2.5 -0l444.6 0.2l125.8 0.1l36.8 -2.3l80.6 -1.2l138.5 -2l109.2 -0.7l146.2 -0.9l0.1 0l42 0.6l361.2 -0.3l0.7 0.2l3.9 -0l125.5 -0.1l27.1 0.2l26.4 -0l27.3 0.1l19.6 0.2l0.1 -29.1l0.1 -2.3l-0.1 -135.7l0.2 -1l-0.1 -27.9l-0.1 -17.9l-0.5 -81.1l1.2 -223.9l0.1 -5.3l0.2 -0.3l-0.2 -72.2l0.1 -9l0.2 -0.3l-0.5 -17.9l0.6 -119.2l0 -0.2l0.2 -27.3l-0.3 -19.4l-0.2 -186.5l0 -12.6l-0.3 -32l-0 -3.9l0.2 -21.9l0.1 -0.1l-0 -22l-112.3 -0.3l-658.5 -0.5l-86.4 -0.6l-0.5 -168l-892.1 -7l-3.4 620.7z" />
  </g>
  <g data-id="023">
    <path d="m14 5631.6l0 0l-0 12.5l0.6 271l0.7 425.5l0.6 382l665.6 1.3l758.9 2.2l2.1 -492l0.2 -329.3l-11.2 -44.5l0.8 -463.3l-201 -0.2l-17.2 -11l-311.8 0.8l-166.6 -2.6l-2.4 -330.5l-66.8 0.2l0.1 -507.3l-47.7 -0.2l0.1 -134.2l51.1 0l-0.4 -124l-0.1 -552.7l13.4 -0.3l-0.1 -213.2l-336 0.1l-0 -154.4l-162.6 0.9l-166.6 -4.4l0.6 235.5l0.1 12.4l-0.1 9.4l-0 14.1l0 0.2l0.1 204.9l-0 8.1l0 4l0 11.5l0 10.7l0 16.6l0 3.2l0.1 6.3l-0.1 23.7l0.1 5.6l-0 3.1l0 0.5l-0.2 3.8l0.1 6.3l0 1.4l0.3 85.2l-0 10.9l-0 9.8l-0 21.4l-0.2 153.1l0.8 296.3l-3.5 271.6l-1 133.3l-0.1 17.4l-0.4 300.8l0 132.5l-0 165.9l0.1 23.3l-0.1 64.9z" />
  </g>
  <g data-id="025">
    <path d="m5015.7 4407.4l0 0l2.1 673.5l27.3 0l1281.9 7.5l783.9 -5.3l1.5 -135.3l-1.2 -417.7l7.1 -7l-7.9 -30.3l-1.3 -78.4l6.3 -1.1l-0.2 -119.2l-1.4 -272.3l0.1 -287.5l-0.1 -678.5l-6.1 -9.8l0.1 -33.3l-526.4 3.5l-948.1 0.7l0.3 -15.6l-171 -0.1l-28.8 -2.5l-405.8 0.5l-0.2 56.3l25.7 0.2l0.4 676.2l20.6 -0.2l0.6 505.9l0.7 170.2l-60.1 -0.2z" />
  </g>
  <g data-id="027">
    <path d="m8789.7 3002.4l0 0l2.1 1399.8l7.1 2.7l1.5 337.8l338.1 -1l176.9 0.4l683.8 -4.8l0.3 -37.2l-0.2 -5.9l0.2 -31.2l-0.3 -194.1l-0.1 -8.9l-0.4 -479.3l-1.1 -565.9l-0 -14.2l-0.5 -14.4l-0.3 -42.3l-0.3 -127.7l-0.2 -74.6l-0 -96.2l-0 -49.7l-0 -0.5l-1206.5 7.3z" />
  </g>
  <g data-id="029">
    <path d="m0 280.8l0 0l0.7 234.9l1.3 49.4l0.3 118.7l77.9 0.3l45.5 0l114.1 -0.1l156.7 -1.1l158.9 0.9l0.6 64l-0.6 103.5l191.4 0.1l219.7 -0.5l5.9 10.7l-1.3 18.4l-5.8 3.1l0.1 7.6l8.2 3.5l6.4 3.7l6.6 4.6l8 7.5l11.6 2.8l10.3 3.3l8 3.6l5.2 0.5l2.1 0.8l2.4 -1.8l1.3 -1l-0.4 -4.3l3.3 -5.1l6 -0.7l8.1 -0.5l4.9 -2.1l8.1 1.8l10.9 6.5l10.3 8.3l7.9 9.6l1.3 5.4l-3.7 4.2l-2.8 0.8l-1.9 3.7l-1.9 4.1l-1.6 4.3l-1 2.2l2 3.6l3.8 1.4l4 -1.6l6 3.4l6.9 7.2l6.1 8.9l1.7 7.8l-2.9 6.6l-0 6.6l-1.4 6l2.3 9.1l0.1 5.4l-4.9 6.9l-3.5 8.5l-0.1 5.5l2.2 11.8l0.9 5.9l-0.9 5.3l-1.6 4l-3.5 3.9l-2.1 -0.3l-3.1 1.1l-1.7 2.6l1 5.8l0.5 6.8l-0.7 7.9l1.8 12.1l-1 10l-4.3 14.1l-0.2 9.9l-4.1 3.4l-1.4 7.5l5.7 8.7l4.5 4.6l2.9 8.8l5.2 6.5l4.6 3.2l4.6 4.1l6.3 1.5l4.5 1.3l4.7 2.2l7.5 2.5l4.2 4.8l5.2 8.2l0.4 6.8l1.2 8.5l0 5.6l2.6 7.3l6.7 1.7l7.6 4.2l3.4 5l7.4 7l4.7 7.5l3 7.6l0.7 8l1.6 10.2l-0.8 8l1.7 10.2l0.8 7.2l2.9 10.9l-2.7 7.3l1.6 8.5l3.9 6.9l8.9 5.8l10.2 3.2l7.6 3.7l1.1 4.6l0.8 2l0.3 1.4l-1.1 0.9l0.6 0.9l1.5 1.5l0.2 3.5l-0.2 0.5l-0.2 -0.9l-0.2 -1.3l-0.6 -0.5l0 1.7l-0.1 1.8l-0.9 0.9l-1.6 -0.6l-0.7 1.4l-1 1.2l-0.4 1l-1 0.2l-0.3 -0.5l0.8 1.7l2.3 2.7l0.7 2.9l-0.6 0.4l-1.1 -1.6l-3.7 -0.4l0.9 8.2l4.4 6.6l7.9 3.3l15.7 -2.7l3.9 5l0.7 4l5.6 1.3l8.9 -2.9l1.5 4.7l5.9 8.4l12.5 2.6l15.1 14.5l5.7 21.6l-4.4 11.8l6.1 14.4l1.6 12.2l3.4 13l8.7 4.8l0.8 9.8l-2.9 19.9l3.8 17.8l8.1 12.3l11.2 9.2l3.1 -2.3l5.2 4.6l3 4.8l-7.5 5.5l-5 1.9l-1.9 12.5l7.9 3.9l8.9 6.5l-7.8 7.4l-2.3 -1.5l-6.6 3.6l2.7 10.2l6.8 6.7l6.6 -4l3.4 6.9l-10.8 6.3l-6.4 5.2l-0.8 7.6l2.5 3.4l-0.1 7.5l-1.7 7.2l-8.4 5.6l0.1 9.2l-0.8 6.5l2.6 4.7l-1.6 7.5l-0.1 6.3l3.5 1.3l3 10l5.1 4.2l91.7 6.1l0.6 39.8l0.2 179.6l0 26.9l6.7 -0.2l21.4 11.2l1.9 7.8l-0.9 4.2l3.1 5.4l4.1 5.8l2.3 5.8l3.6 5.4l-0.4 4l3.9 4.2l3.3 3.6l-0.3 6.1l0.4 7.1l0.6 8.9l3.1 2.4l5.9 -0.8l7 1l3.9 -0.6l4 1.8l0.3 2.2l1.3 4l-1.3 6.9l-0.6 4.4l0 4.8l1.1 1.6l7.7 7.9l22 -8.4l46.9 -9.2l41.5 25.2l54.4 -7.3l15.3 -7.3l16.9 -2.3l-0.6 16.2l-13.8 17.4l0.4 21.4l12.2 3.7l11.5 6.9l2.4 14.1l-2.9 17.3l7 12.8l22.2 19.3l8.3 6l-0.2 21l-6 2.5l-2.2 9.4l5.5 6.9l12.2 3.9l3 3.5l-1.9 5.5l-5.6 5.2l-12.3 4.8l-12.5 2l-12.5 1.9l-9.4 9l-3.2 11.5l6.4 11.9l-5 10.3l6 14.7l13.7 9.6l12.2 -5.6l3.8 -2.5l4.9 4.9l0.5 5.4l5.2 4.7l6.6 0.8l7.7 5.4l10.7 7.2l12.3 7.3l7 3.1l7.4 -0.2l4.2 -3.7l4.8 -7.4l10.5 -7.1l11.1 -7.3l1.5 -3.9l6.9 0.3l2.5 1.9l10.1 -6.5l9.8 -11.1l16.5 -11.6l16.3 -7l15.6 0.4l16.9 -8.3l18.8 -7.9l17.3 -0.9l9.6 -11.2l-5 -19.4l-2.4 -20.1l9.8 -19l14.8 -45.5l42.3 -47.4l22.3 -14.2l22.7 -19.6l6.1 9l19.8 -10.2l21.3 -20.6l35.4 0.4l32.6 30.3l51.7 -19.2l5.2 33l42.9 3.5l12.1 32.5l29.2 9.5l21.3 49.4l26.1 3.1l19.9 79.2l44.6 1.9l19.1 15.4l12.4 41l57.7 -5.6l199 0.2l56.5 -3.2l1 -172l257.1 -0.6l-4.6 -170.7l177.3 -0.4l-0.7 -175.9l344.8 0.4l0.3 -177.1l-33.2 -0l0.5 -519.8l0.1 -183.6l-27.2 -0.2l-0.1 -143.6l0.2 -331.7l0.2 -228.7l-40.2 -0.1l-1.2 -260l-88.1 0.2l-381.4 1l-159.9 0.4l-29.6 0l-29.2 -12.7l-228.4 1.1l-8.4 0.1l-151.9 1.4l-15.3 -0.6l-268.2 4.6l-127.6 0.2l-124.3 1.9l-68.2 -1.2l-0.3 -0l-110 -2.2l-170.3 0.2l-9.2 -0.2l-34.3 -0.7l-1.1 -0.1l-119.6 -0.5l-127.6 15.6l-124.6 -1.3l-53.8 -4.7l-25.3 0.2l-29.4 -3.1l-57.4 13.7l-121.6 2.9l-84.4 -0.2l-7.5 0.4l-218.2 -0.2l-64.9 -11.4l-15.4 -4l-33.5 -6.1l-370.1 3.2l-1.1 0l-14.5 0l-1.4 132l0.8 4.7l-1.8 134.9z" />
  </g>
  <g data-id="031">
    <path d="m8237.8 4748.7l0 0l2.1 39.6l3.9 298.4l-2.4 -0.1l14.5 660.8l-7.5 665.4l1.1 163.2l892.1 7l-1.6 -1303.4l-1.7 -537.8l-338.1 1l-138.2 0.7l-184 1l-53.9 2.5l-186.5 1.8z" />
  </g>
  <g data-id="033">
    <path d="m4490.3 9.3l0 0l-0 1.2l5.1 9.6l16.5 4.5l12.8 8.3l7.5 11.5l-0 11.5l2.5 14.7l3.5 9.5l1 9.8l-1 9.3l-1.5 9.6l-4.8 19.3l6.9 22.2l10.7 11.1l13.2 13.5l10.6 11l1.4 13.8l2.5 8.5l-1.3 8.1l-2.7 1.3l-8.3 7.2l-2 20.7l-2.8 11.3l-0.2 15.4l13.3 9.6l8.7 9.5l9.7 23.3l9.5 8.8l3.5 3l2.7 14.7l-1.1 15.3l5.1 7l-0 4.9l3.4 4.8l4.1 -0.8l7.5 7.3l-1.1 6.8l-7.2 15.4l-6.4 5.1l-7.8 11.3l10.1 13.2l29 13.5l11.4 9.5l12.7 8.6l23.6 4.9l17.4 3.8l9.4 14.8l-0.1 10.3l2.7 6.5l5.2 2.9l-1.1 10.4l-0.4 9.3l4.8 13.3l0.2 18.5l-8.3 9.4l1.2 4.2l6.2 10.7l14.2 4.5l8.9 -3.3l14.3 9.8l17 6.2l9.2 5.7l9.8 -5.2l9.9 4.5l7.6 9.2l-4.2 16.6l7.3 10.6l8.1 9l8.2 5.3l4.2 -1.1l9 -4l3.7 -8.2l8.9 -10.4l13.2 1.7l17.2 -2.9l11.3 -3.9l13.7 -4.6l21.7 4.5l11 13.3l17.9 7.3l21.9 7.9l15.1 10.4l2.3 11.6l8.8 8.2l14.2 -1.3l9.4 6.8l1.3 15.3l-7.7 7.8l-5.2 11.5l7.2 16.7l18.6 8.1l16.2 -11.3l4.7 -4.4l11.3 7.9l3.8 12.4l10.5 12.8l12.1 19.3l8.3 4.8l13.3 5.6l10 4.9l12.7 3.8l4.3 -1.7l6.3 -2.2l3.9 -2.8l-0.8 -1.3l8.5 -3.7l7 9.4l4.7 11.5l12.1 4l10.6 -1.5l11 3.7l10 4.5l6.2 6.6l2.4 9.2l8.3 9.3l1.1 8.2l3.5 15.5l3.4 18.1l2.3 5l480.3 1.3l312.2 2.7l377.6 2l172.9 -9.8l356.1 -4l242.4 -0.4l-1.3 -144.7l-0.1 -114.5l-6.1 -27.9l1 -303.1l-12.6 -22.2l-2.4 -251.8l-340.9 -0.2l-0.2 -0l-432.6 -2.1l-459.7 -2.2l-5.9 -0.1l-135.2 -0.6l-90.3 -0.4l-34.5 -1.2l-14.2 0.8l-29.6 -4.3l-28.5 -1.3l-12.2 -1.5l-310.2 -2.6l-200.7 -0.1l-108.8 0.7l-56.4 0.4l-1.5 0.1l-202.4 0.2l-229.7 -1z" />
  </g>
  <g data-id="035">
    <path d="m618.8 4411.9l0 0l-0.1 134.2l47.7 0.2l-0.1 507.3l66.8 -0.2l2.4 330.5l166.6 2.6l311.8 -0.8l17.2 11l201 0.2l729.1 12.9l712.6 0.7l0.1 -328.3l-36.7 0.3l-4.8 -504l-88 -1.5l8.6 -27.4l-27.8 -37.3l22.3 -19.3l-67.3 -26.4l-22.5 -34l-40.9 12.5l-18 -13.1l14 -37.3l23.6 -11.8l-52.6 -22.6l-30.6 -36.3l-20.5 -44.5l-46.4 -17.4l-17.5 -33.6l-6.1 -42.9l-21.2 -48.2l-34.1 -49.8l-38.7 12.7l-19.2 -31.7l-30.2 -24.8l-31 -3.6l-17.9 -42.9l-36.3 -6.6l-14.8 -29.6l-71.6 -4l-2.5 -37.9l-15.7 -35.9l18.7 -18.5l-11.8 -46.3l-44.4 -62.3l-41.5 -20l-13.9 -73.9l-30.1 -7.2l-12.2 -70.3l-23 -24.1l8.6 -26.3l-9.6 -38.9l-22.7 -32.3l19.8 -19.4l-9.5 -13.7l18.8 -55.1l-37.5 -40.4l5.3 -69.8l-18.7 -15.9l-35.5 16.1l-30.8 0.3l-0.2 -126.5l-0.1 -64.7l-423.8 -3.1l-8.2 171l-45.1 -0.3l-81.5 -0.4l-283 0.4l0.4 170.3l-334.7 -0.9l-0.4 110.6l0.1 213.2l-13.4 0.3l0.1 552.7l0.4 124l-51.1 -0z" />
  </g>
  <g data-id="037">
    <path d="m1432.1 5396.9l0 0l-0.8 463.3l11.2 44.5l-0.2 329.3l-2.1 492l-0.7 1102.8l59.9 -0.5l8.3 0.9l1.2 0l34.7 -1.1l171.6 0.6l1.4 -0.1l198.3 -1l2.2 -0.1l53.5 -0.2l189.5 0.4l12.5 0l48.9 -1.9l356.8 -3.6l26.8 -2l83.2 2.3l176.5 0.4l236.9 1.1l361.2 -0.1l149.1 1l37.1 -1l356.9 -0l99.1 -0.6l192.3 -3l182.9 0.1l1.9 -752.2l-18.2 -0.1l0.2 -487.5l0 -10.3l599.6 4.1l6 -158.8l2.4 -666.5l-26.4 0l-0.6 -334.8l-1310.3 -3.2l-861.3 -0.5l-712.6 -0.7l-729.1 -12.9z" />
  </g>
  <g data-id="039">
    <path d="m2.2 683.8l0 0l0.2 82.9l4 293.5l4.9 8.7l-0.3 72l-0 4.5l0.1 121.7l-0.8 42.5l0.8 455.7l1 20.1l-0.3 103.2l-0.2 4.1l0 0.9l-0.5 80.1l2.5 40l0.4 32.7l0.2 16.8l0.6 132l-0.3 183.2l0.5 175.7l-0.1 0.8l0 8.9l0.4 67.6l0.1 4l-0.1 1.8l0.3 7.6l0.2 43.3l0.3 149.9l0.4 161.6l0.8 364.2l166.6 4.4l162.6 -0.9l0 154.4l336 -0.1l0.4 -110.6l334.7 0.9l-0.4 -170.3l283 -0.4l81.5 0.4l45.1 0.3l8.2 -171l0.2 -689.8l-3.1 -12.8l0.6 -370.8l-0 -26.9l-0.2 -179.6l-0.6 -39.8l-91.7 -6.1l-5.1 -4.2l-3 -10l-3.5 -1.3l0.1 -6.3l1.6 -7.5l-2.6 -4.7l0.8 -6.5l-0.1 -9.2l8.4 -5.6l1.7 -7.2l0.1 -7.5l-2.5 -3.4l0.8 -7.6l6.4 -5.2l10.8 -6.3l-3.4 -6.9l-6.6 4l-6.8 -6.7l-2.7 -10.2l6.6 -3.6l2.3 1.5l7.8 -7.4l-8.9 -6.5l-7.9 -3.9l1.9 -12.5l5 -1.9l7.5 -5.5l-3 -4.8l-5.2 -4.6l-3.1 2.3l-11.2 -9.2l-8.1 -12.3l-3.8 -17.8l2.9 -19.9l-0.8 -9.8l-8.7 -4.8l-3.4 -13l-1.6 -12.2l-6.1 -14.4l4.4 -11.8l-5.7 -21.6l-15.1 -14.5l-12.5 -2.6l-5.9 -8.4l-1.5 -4.7l-8.9 2.9l-5.6 -1.3l-0.7 -4l-3.9 -5l-15.7 2.7l-7.9 -3.3l-4.4 -6.6l-0.9 -8.2l3.7 0.4l1.1 1.6l0.6 -0.4l-0.7 -2.9l-2.3 -2.7l-0.8 -1.7l0.3 0.5l1 -0.2l0.4 -1l1 -1.2l0.7 -1.4l1.6 0.6l0.9 -0.9l0.1 -1.8l-0 -1.7l0.6 0.5l0.2 1.3l0.2 0.9l0.2 -0.5l-0.2 -3.5l-1.5 -1.5l-0.6 -0.9l1.1 -0.9l-0.3 -1.4l-0.8 -2l-1.1 -4.6l-7.6 -3.7l-10.2 -3.2l-8.9 -5.8l-3.9 -6.9l-1.6 -8.5l2.7 -7.3l-2.9 -10.9l-0.8 -7.2l-1.7 -10.2l0.8 -8l-1.6 -10.2l-0.7 -8l-3 -7.6l-4.7 -7.5l-7.4 -7l-3.4 -5l-7.6 -4.2l-6.7 -1.7l-2.6 -7.3l-0 -5.6l-1.2 -8.5l-0.4 -6.8l-5.2 -8.2l-4.2 -4.8l-7.5 -2.5l-4.7 -2.2l-4.5 -1.3l-6.3 -1.5l-4.6 -4.1l-4.6 -3.2l-5.2 -6.5l-2.9 -8.8l-4.5 -4.6l-5.7 -8.7l1.4 -7.5l4.1 -3.4l0.2 -9.9l4.3 -14.1l1 -10l-1.8 -12.1l0.7 -7.9l-0.5 -6.8l-1 -5.8l1.7 -2.6l3.1 -1.1l2.1 0.3l3.5 -3.9l1.6 -4l0.9 -5.3l-0.9 -5.9l-2.2 -11.8l0.1 -5.5l3.5 -8.5l4.9 -6.9l-0.1 -5.4l-2.3 -9.1l1.4 -6l0 -6.6l2.9 -6.6l-1.7 -7.8l-6.1 -8.9l-6.9 -7.2l-6 -3.4l-4 1.6l-3.8 -1.4l-2 -3.6l1 -2.2l1.6 -4.3l1.9 -4.1l1.9 -3.7l2.8 -0.8l3.7 -4.2l-1.3 -5.4l-7.9 -9.6l-10.3 -8.3l-10.9 -6.5l-8.1 -1.8l-4.9 2.1l-8.1 0.5l-6 0.7l-3.3 5.1l0.4 4.3l-1.3 1l-2.4 1.8l-2.1 -0.8l-5.2 -0.5l-8 -3.6l-10.3 -3.3l-11.6 -2.8l-8 -7.5l-6.6 -4.6l-6.4 -3.7l-8.2 -3.5l-0.1 -7.6l5.8 -3.1l1.3 -18.4l-5.9 -10.7l-219.7 0.5l-191.4 -0.1l0.6 -103.5l-0.6 -64l-158.9 -0.9l-156.7 1.1l-114.1 0.1l-45.5 -0l-77.9 -0.3z" />
  </g>
  <g data-id="041">
    <path d="m14.8 7347.4l0 0l-0.2 480.7l422.6 2.1l51 0.9l250.1 0l55.8 3l178.5 -0.4l178.5 -2.2l18.4 1.3l160.1 -2.1l5.8 -1l104.4 -0.9l0.7 -1102.8l-758.9 -2.2l-665.6 -1.3l0 27.2l-0.7 357.9l-0.5 32.4l0 142.5l0 64.7l-0 0.2z" />
  </g>
  <g data-id="043">
    <path d="m3578 1678.8l0 0l-0.3 177.1l86.4 -0.7l1.2 174.5l89 -0.4l-3.6 175.9l171.6 0.2l-0.5 112.2l177.7 -3.2l-15.6 39.4l30.3 18.6l311.9 0.6l-0.2 168.5l343.6 0.2l-0.5 172.9l172.8 -1.3l0.1 285.8l86 0.1l405.8 -0.5l28.8 2.5l171 0.1l-0.1 -108.9l-4.1 -514.3l-19.9 0.3l-1.4 -694l-26 0.1l-768.1 -1.5l-53.1 -2.9l-526.4 -0.6l-656.4 -0.6z" />
  </g>
  <g data-id="045">
    <path d="m8531.5 2080.6l0 0l-0.9 276l1 172l0.2 464.1l1.1 12.1l256.8 -2.4l1206.5 -7.3l-0.3 -108.8l0.3 -40.9l-0.1 -8.2l-0 -0.7l-0.3 -322.2l-0 -6.6l-0.1 -22.2l-0.4 -181.7l0.6 -164.5l0.2 -3.1l0.6 -403.1l0.1 -78.2l-447.8 -1.1l-10.5 -1.4l-1004.7 10.8l-2.1 417.2z" />
  </g>
</svg>
