<?xml version="1.0" encoding="UTF-8"?><!DOCTYPE svg PUBLIC '-//W3C//DTD SVG 1.1//EN' 'http://www.w3.org/Graphics/SVG/1.1/DTD/svg11.dtd'><svg viewBox="0 0 1000 783.423" xmlns="http://www.w3.org/2000/svg"><path data-id="56001" d="m675.8 707.5l0.2 75.1l14.8 0.3l3.9 0l18.5 0.1l47.2 0l64.7 -0.2l-0.3 -22.4l-0.2 -31.1l-0.1 -9.6l0.3 -62.1l-0.1 -16.3l0.7 -66.5l-1.5 -66.1l-7 0.1l-1.4 2.3l0 2.7l-1.4 0l0 5.5l-1.4 0l0.4 11l-2.9 0l0.4 5.6l-17.8 0l-3.8 0.2l-1.4 -1.1l-9.1 -0.6l-2.1 -1.3l-0.1 -14.1l5.6 0l0 -5.6l2.8 0l0 -4.7l-73.9 -0.5l-0.2 66.9l0.2 19.9l0.3 83.8l0.4 28.7l-19.9 0l-16.4 0z"/><path data-id="56003" d="m347.7 1.1l0.1 26l4 0l0 22.9l0 33.2l0 14.4l2.7 0l0 18.4l0 52l3.3 0l65.6 0.1l52.6 0.1l5.3 0.3l76.8 0.1l0.3 -31.6l-3.9 -2.2l-2.3 -2.6l0.6 -2.1l3.3 -1.9l-2.1 -1.7l1 -3.4l-1.4 -2l-2.9 0.8l-0.7 -6l0.3 -3.4l-5.7 1.6l-5.2 -2.5l0 -1.7l-3.2 0l0.9 -8.3l-4.7 -4.6l-1.1 -3.4l-2.7 -0.3l-2.3 -3.5l-0.5 -2.3l-0.4 -1.6l-0.9 -1.7l-0.8 -1.6l-1 -0.5l-1.1 -0.4l-1.1 0.2l-1.2 -0.4l-0.5 -1.2l-1.6 -0.5l-1.3 0.8l-1.3 -0.4l-1 -0.5l-1.3 -0.6l-2 -2.4l-1 -1.3l-0.4 -1.2l-1.1 -0.8l-2.1 1.5l-1.9 -0.8l-0.7 -1.7l0.5 -1.1l0.7 -2.3l-2.3 -0.6l-1.1 -2l-1.5 -1l-2.2 -0.8l-1.8 -0.7l-1.1 -1.3l-2.2 -0.5l-1.4 0.5l-1.1 0.4l-1.7 0.3l-1.3 -0.2l-0.9 1l-1.3 1.2l-1.2 -0.4l-1.5 -2l0.4 -1.7l-1.8 -1.3l-1 0.5l-2.6 -1.2l-1.4 -1l-2.3 -0.1l-0.6 -1.1l0.7 -1.3l0 -1.9l-0.5 -1.3l0.1 -1.9l-0.8 -1.9l-0.9 -1.5l-1.7 -0.4l-2.4 -0.5l-1.3 -0.9l-1.1 -0.9l-2.9 -1.3l-1 -1.3l0.8 -1.1l1.3 -2l-0.7 -1.4l-1.2 -1.6l0.1 -1.5l-0.3 -1.5l-1.3 -1.2l-1 -2.3l-0.9 -1l-1.3 -1l0 -1.5l0.3 -1.1l0.2 -2.1l1.1 -0.8l-0.1 -1.6l-0.1 -1.4l-1.1 -1.1l-1.3 -1.4l-1.1 -1.1l-0.7 -2.2l0.5 -1.9l0.1 -1l0 -1.9l-0.4 -1l-0.3 -1.5l0 -1.1l-0.8 -1.1l-1.3 -0.8l-1.6 -0.4l-0.5 -1l-12.3 -0.2l-21.7 0.1l-9.9 0.1l-2.8 0.1l-1.6 0.2l-3.1 -0.2l-32.8 0.1l-9.3 -0.2l-1.8 0l-6.1 0z"/><path data-id="56005" d="m718.4 2.5l0.2 25.2l1.3 2.2l-0.1 30.3l0.6 2.8l0 11.5l0.1 14.5l0.1 7.4l-0.8 1.2l-0.3 70.1l1 69.1l-1.2 0l0 64.4l47.4 -0.2l86.4 -0.5l-0.1 -1.2l0 -46.4l-0.1 -17.2l0.1 -27.6l0.2 -41.7l-0.7 -8.1l0.3 -62.1l-0.4 -52l1.2 0.1l0.3 -17.1l-0.3 -26.1l-42.1 0l-68.1 0l-9.3 -0.1l-2.1 1.5l-13.8 0z"/><path data-id="56007" d="m446.4 658.1l0 48.8l1.8 0l-0.2 75.2l41.8 0l36.9 -0.2l7.1 0l10.9 0l34.3 -0.1l20.4 0.1l57.7 0.1l2 0l1.2 0l5.6 0.1l10.1 0.4l-0.2 -75.1l16.4 0l19.9 0l-0.4 -28.7l-0.3 -83.8l-0.1 -19.9l0.1 -66.9l-78.7 0.5l-128.2 -0.7l0 33.3l0.1 33.5l2.6 0l-0.2 66.7l-0.6 15.9l-60 -0.4l0 1z"/><path data-id="56009" d="m710.8 301.3l0 3.3l0.6 1l0 67.9l0 28.8l0.1 27.2l0 11.9l-0.5 7.9l0.8 3l-0.6 42.5l-0.1 13.5l74.2 0.5l0 4.7l-2.8 0l0 5.6l-5.6 0l0.1 14.1l2.1 1.3l9.1 0.6l1.4 1.1l3.8 -0.2l17.8 0l-0.4 -5.6l2.9 0l-0.4 -11l1.4 0l0 -5.5l1.4 0l0 -2.7l1.4 -2.3l7 -0.1l-0.2 -29.8l-0.2 -4l18.6 -0.2l5.4 -0.3l18.4 -0.1l13.8 -0.1l-0.1 -33.8l-0.9 -140.3l-25.7 0.2l-86.4 0.5l-47.4 0.2l-8.7 0.1z"/><path data-id="56011" d="m852.5 44.2l0.4 52l-0.3 62.1l0.3 7.7l100.9 -0.7l1 0.1l44.8 0.1l-0.1 -13.9l-0.1 -53.5l0 -5.1l0 -5.5l0 -24.1l0 -1.8l0 -4.6l0 -9l-0.1 -20l0.1 -1.6l-0.3 -24.7l-27.5 -0.2l-31.4 0l-27.6 -0.1l-8.9 -0.1l-4.8 0.1l-36.8 -0.3l-1 0l-1.9 0l-5.5 0l0.3 26.1l-0.3 17.1l-1.2 -0.1z"/><path data-id="56013" d="m143.3 199.8l-0.1 37.1l0.3 1.3l0 69l42.4 0.3l0 6.5l0 12.6l3.1 0l3.5 -1.6l1.9 1.6l-0.5 7l3.8 4l-1.9 5.5l0.9 1.4l-2 1.9l2.3 3.2l1 3.9l-0.9 2.6l2.3 2.4l1.2 7l3 0.7l1.4 7.4l4.2 2l4.4 6.2l1.2 4.6l-1.9 1.9l1.6 3.6l0.2 3.8l7.2 0.4l1.5 3l3.6 0.7l1.8 4.3l3.1 0.4l3 2.5l1.9 3.2l3.9 -1.3l3.4 5l2.1 4.8l0.6 4.3l1.7 3.4l4.6 1.7l2.1 4.4l3.1 3.6l5.3 2.3l-2.4 1.2l-1.4 3.7l1.8 1.3l4.1 -1.3l2.3 3.4l6.7 2.6l-2.2 1.9l2.8 3.7l-0.9 2.7l8.8 0.2l0.5 50.4l3.7 0l0 32.8l86.1 0.1l131 0.3l0 -33.3l-2.7 0l-0.2 -67.3l6 0l-0.1 -17l-0.1 -50.6l-2.1 0l0 -67.6l-2.6 0l0 -5.6l-8.6 0l0 5.7l-80.1 0.3l0 2.2l-2.2 0l-23.8 0l0 -2.8l-17 0l0 -5.7l-17 0l0 -5.8l-17 0.1l0.1 -8.6l-17.1 0l0 -5.9l-17.1 0.1l0 -2.8l-33.9 -0.1l0 -15.7l-3.6 -2.5l-5.5 -10.3l-3.9 -2l-1.8 -4.5l-5.1 -1.8l-0.4 -1.4l-1.2 -4.1l-1.9 -1.5l-4.5 -0.2l-2 -7.9l-2.6 -0.3l-2.1 -4.9l-2.9 -0.9l-1.2 -3.2l-4.3 -0.3l-0.5 -3.3l-5.2 1.9l-3.3 -3l-3.5 0l-2.1 2.1l-2 1l-2.9 1.1l-2.2 1.4l-4.2 4.7l-1.5 4.5l-1 1.9l0.2 2l0.5 1.9l-1 1.1l-1.7 0.1l-1.9 0.8l-1.7 0.8l-1.6 0l-1.6 0.7l-1.7 1.2l-1 1.1l-1 0.7l-1 -0.2l-1.2 1.1l-1.1 0.7l-0.9 1.1l-1.4 -0.3l-1.2 -0.7l-1.1 -0.7l-1.5 -0.6l-0.6 -1l-2.1 0.4l-1.4 -1l-0.6 -1.5l0.5 -1l-0.6 -1.2l0.3 -1.2l2.1 -1.1l1.2 -0.2l1.2 -0.5l0.8 -1.1l-1.5 -0.8l-0.3 -1.6l0.6 -2.3l-3 -2.5l-0.7 -1.3l0.3 -1.7l-0.2 -1.4l-1.2 -0.7l-1.2 -0.4l0 -2.1l1.4 -1.7l0.1 -1.6l-1.7 0.2l-1.5 0.7l-5.4 0.7l-4.1 -2.5l-4.7 0.9l-2.2 0.8l-0.9 -1l0.2 -1.6l-1.6 -0.8l-1 -1l0 -1.3l-0.7 -1.2l-0.6 -1.1l-0.7 -1.1l-0.1 -1.2l-2.1 -1.1z"/><path data-id="56015" d="m913.8 474.2l0.2 53.8l0.2 130.3l0 16.8l8.6 0.1l65.8 0l11.2 0l0 -5.3l0 -4.1l0 -1.8l0 -2.9l0 -1.3l0 -10.1l0 -6.8l0 -29.1l0 -4l0 -1.7l0 -11.1l0 -4.2l0 -1.4l0 -2.8l0 -1l0 -10.2l0 -2.7l0.1 -6.9l0 -1.7l0.1 -6.4l-0.1 -16.1l0 -1.6l0 -46.7l0 -21.5l-68.4 0.3l-17.7 0z"/><path data-id="56017" d="m249 238.4l0.4 1.4l5.1 1.8l1.8 4.5l3.9 2l5.5 10.3l3.6 2.5l0 15.7l33.9 0.1l0 2.8l17.1 -0.1l0 5.9l17.1 0l-0.1 8.6l17 -0.1l0 5.8l17 0l0 5.7l17 0l0 2.8l23.8 0l2.2 0l0 -2.2l80.1 -0.3l0 -5.7l0 -28.6l-17.3 0.1l0 -17.3l-34.4 0l0 -16.8l-31.2 -0.1l-3 -1.9l1.6 -3.9l-17.8 0.3l0 -11.2l-17.2 0l0.4 -17.6l-8.9 0l-0.1 -17.5l-8.6 0.1l-34.5 0l0.1 17.6l-17.7 0l0.5 17.1l-25.7 0.1l-0.1 17.2l-5.6 0.3l-19.9 0l-5.8 0.6z"/><path data-id="56019" d="m526.4 89.7l2.3 3.5l2.7 0.3l1.1 3.4l4.7 4.6l-1.4 7.4l3.7 0.9l0 1.7l5.2 2.5l5.7 -1.6l-0.3 3.4l0.7 6l2.9 -0.8l1.4 2l-1 3.4l2.1 1.7l-3.3 1.9l-0.6 2.1l2.3 2.6l3.9 2.2l-0.3 31.6l2.6 0l0.1 69.4l2 0l0.4 51.4l0 10.9l0 1.6l94.8 -0.1l52.6 -0.3l8.7 -0.1l0 -64.4l1.2 0l-1 -69.1l0.3 -70.1l0.8 -1.2l-0.1 -7.4l-24.2 0l-35.6 0.4l-17.3 1l-37.8 -0.2l-31.2 -0.3l-48 -0.1z"/><path data-id="56021" d="m824.6 719.7l0.1 9.6l0.2 31.1l0.3 22.4l2.9 0l44.7 0l12.6 0l3.7 -0.2l8.1 -0.1l13.9 -0.2l10.9 -0.1l14.6 -0.1l4.2 0.1l36.1 0l13 0l2.7 0l2.6 0l2.7 0l2 0l0 -2.9l0 -13.8l0 -2.9l0 -1.8l-0.1 -8.1l0.1 -22.4l0 -7.7l-0.1 -2.7l0.1 -11.9l0 -2.7l0 -1.9l0 -18.6l0 -1.3l0 -3.2l0 -2.6l0 -2.2l-11.2 0l-65.8 0l-8.6 -0.1l0 -16.8l-89.2 -0.7l-0.3 62.1z"/><path data-id="56023" d="m1.4 563.2l0 1.2l0.1 27.1l0.1 42.6l0.1 38.2l66.6 0.1l75.9 0.2l0.2 -49.2l0 -32.9l-1.1 -4.5l0.1 -46.3l-20.1 0l-1.7 -1.1l-31.2 0.1l-16.7 -0.3l-0.2 -33l-6.7 0l0 -50.7l-4.8 0l0 -13.4l5.1 0l0 -12.4l0 -55.3l1.3 0l0 -21.3l-33.6 0l0 -15.4l-16.3 0.1l-16.7 -0.4l0.1 23.5l0 1.2l0 2.3l0 20.5l0 1.2l0 1.1l0 1.1l0 1.7l0 3.3l0 1.4l0 9.2l0 1.1l0 1l0 2.1l0 15.3l0.1 29.6l-0.4 27.2l-0.1 13.3l0 1.7l0 30.1l0 13.3l0 16.6l0 2.3l0 6.5z"/><path data-id="56025" d="m501.6 440.7l0.2 67.3l2.7 0l128.2 0.7l78.4 -0.5l0.1 -13.5l-0.1 -41.8l-0.1 -3.7l-0.1 -7.8l0.6 -12l-0.1 -27.2l0 -28.8l0 -67.9l-0.6 -1l0 -3.3l-52.6 0.3l-94.8 0.1l0 -1.6l-17.1 0l-2.9 -0.3l-40.6 0.1l0 5.6l2.6 0l0 67.6l2.1 0l0.1 50.6l0.1 17l-6 0z"/><path data-id="56027" d="m879 300.2l0.2 140l0.8 34.1l33.8 -0.1l17.7 0l68.4 -0.5l0 -3.7l0 -3.7l0 -19.4l0 -48.8l-0.1 -56.6l0 -1.4l0 -1.4l0 -4.2l0 -12.8l0 -7.5l0 -9.6l0 -5l-120.7 0.6z"/><path data-id="56029" d="m0 28.1l0.1 23.5l0.1 4.9l0 11.9l7.8 0l4.5 0l11.4 0l15.7 -0.1l15.9 0.1l0.1 6.4l-0.1 10.3l19.1 0l22 -0.1l0.6 1.1l-0.1 1.8l-0.6 1.1l1.4 0.8l1.5 1.2l1.2 0.3l1 0.3l1.3 0.5l0.8 -1.1l1.4 -0.2l1.3 0l1.1 0.7l1 0.8l0.8 1l-0.6 1l-0.6 1.2l1.5 0.8l1.3 1.6l-0.1 1.5l-0.1 1.3l0.2 1.4l-0.8 1.5l0.2 1.7l0 1.1l-1 0.9l0 1.6l0.1 2l-0.1 1l-0.4 1.4l0 1l-0.5 1l1 1.4l0.8 1.5l1 0.7l1 0.3l1.2 0.5l0.9 1.3l0.1 1.5l0.3 1.3l1.5 0.6l1 1.2l0.8 1.6l0.3 1.8l0.1 1.8l0.4 1.8l-0.1 1.5l1.3 1.3l1 0.3l1 1.1l0 1l-0.1 1l-0.1 1.3l2.4 0l1.1 1l1.1 0.2l1.8 1.1l1.5 1.4l0.6 2.2l-0.4 1.2l0.6 1.4l0.2 1.2l0.3 1.3l1 1.5l-0.3 2l0.4 1.8l0.8 1.2l1.1 0.9l1.1 0.8l-1.3 0.8l-0.2 1.2l1.7 1l-1 0.6l-0.4 1.4l1.4 0.3l-0.8 1.3l-0.7 1.3l0.3 1.1l-1 1.3l-0.1 1.6l0.1 1.2l0.6 1.7l9.7 1l0.1 4l0 18l0 2.7l2.8 1.1l0.1 1.2l0.7 1.1l0.6 1.1l0.7 1.2l0 1.3l0.4 1.1l1.3 0l0.8 1.4l0 1.1l3 0l4.7 -0.9l4.1 2.5l5.4 -0.7l1.5 -0.7l1.7 -0.2l-0.1 1.6l-1.4 1.7l0 2.1l1.2 0.4l1.2 0.7l0.2 1.4l-0.3 1.7l0.7 1.3l2.2 1.9l0.8 2.7l-0.8 1.1l1.7 1.1l0.1 1l-1.8 1l-1.2 0.2l-1.2 0.2l-1.2 2.1l0.6 1.2l-0.5 1l0.6 1.5l1.4 1l1.2 -0.6l1 0.7l1.2 0.6l1.9 1.2l1.2 0.7l1.4 0.3l0.9 -1.1l1.1 -0.7l1.1 -0.7l1.1 -0.2l1 -0.7l1 -1.1l1.7 -1.2l1.6 -0.7l1.6 0l1.7 -0.8l1.9 -0.8l1.7 -0.1l1 -1.1l-0.5 -1.9l-0.2 -2l1 -1.9l1.5 -4.5l4.2 -4.7l2.2 -1.4l2.3 -2l2.6 -0.1l2.1 -2.1l3.5 0l3.3 3l5.2 -1.9l0.5 3.3l4.3 0.3l1.2 3.2l2.9 0.9l2.1 4.9l2.6 0.3l2 7.9l4.5 0.2l1.9 1.5l1.2 4.1l5.8 -0.6l19.9 0l5.6 -0.3l0.1 -17.2l25.7 -0.1l-0.5 -17.1l17.7 0l-0.1 -17.6l34.5 0l0 -17.7l-3.3 0l0 -52l0 -18.4l-2.7 0l0 -14.4l0 -33.2l0 -22.9l-4 0l-0.1 -26l-8.8 0l-38.1 0.1l-16 0l-3 0l-2.9 -1.3l-22.8 0.1l-16 0.1l-1.5 -0.1l-26.8 0.5l-12.8 0l-12.4 0.2l-6.8 -0.1l-11 -0.2l-17 0l-4.3 -0.1l-12.1 0l-12.8 1.6l-12.5 -0.1l-5.4 -0.5l-2.5 0l-2.9 -0.3l-5.7 1.4l-12.2 0.3l-8.4 0l-22.6 0l-6.5 -1.1l-1.5 -0.4l-3.3 -0.6l-37 0.3l-1.5 0l-0.1 13.2l-0.1 14z"/><path data-id="56031" d="m823.8 474.9l0.2 4l0.4 29.8l1.3 66.1l-0.7 66.5l0.1 16.3l89.2 0.7l-0.2 -130.3l-0.2 -53.8l-33.8 0.1l-13.8 0.1l-18.4 0.1l-5.4 0.3l-18.6 0.2z"/><path data-id="56033" d="m449 0.9l0.5 1.1l1.6 0.4l1.3 0.8l0.8 1.1l0 1.1l0.3 1.5l0.4 1l0.1 1l-0.2 1.9l-0.5 1.9l0.7 2.2l1.1 1.1l1.3 1.4l1.1 1.1l0.1 1.4l0.1 1.6l-1.1 0.8l-0.2 2.1l-0.3 1.1l0 1.5l1.3 1l0.9 1l1 2.3l1.3 1.2l0.3 1.5l-0.1 1.5l0.5 1.2l1.5 1.1l-0.8 2.2l-1.4 1.6l1 1.3l2.9 1.3l1.1 0.9l1.3 0.9l2.4 0.5l1.7 0.4l0.9 1.5l0 1l0.7 1.9l0.5 2.2l0 1.9l-0.7 1.3l0.6 1.1l1.4 0.4l2.3 0.7l1.7 0.6l1.9 0.1l1 0.4l0.4 2.6l0.7 1.1l1.6 1.4l1.3 -0.5l1.3 -1.8l1.3 0.2l1.7 -0.3l1.1 -0.4l1.4 -0.5l2.2 0.5l1.1 1.3l1.8 0.7l2.2 0.8l1.5 1l0.2 1.2l2.3 0.7l1 2.2l-1.3 1.9l0.7 1.7l1.9 0.8l1.6 -1.1l1.6 0.4l0.4 1.2l1 1.3l1.2 1.9l2.1 1.1l1 0.5l1.3 0.4l1 -0.4l1.2 -0.8l1.2 2.1l1.2 0.4l1.1 -0.2l1.1 0.4l1 0.5l0.8 1.6l0.9 1.7l0.4 1.6l0.3 1.8l48.2 0.6l31.2 0.3l37.8 0.2l17.3 -1l35.6 -0.4l24.2 0l-0.1 -14.5l0 -11.5l-0.6 -2.8l0.1 -30.3l-1.3 -2.2l-0.2 -25.2l-34.1 0l-43.3 -0.2l-46 -0.2l-14.1 -0.1l-9 0l-3.5 -0.1l-1.4 0.1l-3 -0.4l-2.8 -0.1l-1.2 -0.1l-31 -0.3l-20.1 0l-10.9 0.1l-5.6 0l-20.3 0l-23 -0.1z"/><path data-id="56035" d="m61.9 441.2l0 13.4l4.8 0l0 50.7l6.7 0l0.2 33l16.7 0.3l31.2 -0.1l1.7 1.1l20.1 0l72.9 1.3l71.3 0.1l0 -32.8l-3.7 0l-0.5 -50.4l-8.8 -0.2l0.9 -2.7l-2.8 -3.7l2.2 -1.9l-6.7 -2.6l-2.3 -3.4l-4.1 1.3l-1.8 -1.3l1.4 -3.7l2.4 -1.2l-5.3 -2.3l-3.1 -3.6l-2.1 -4.4l-4.6 -1.7l-1.7 -3.4l-0.6 -4.3l-2.1 -4.8l-3.4 -5l-3.9 1.3l-1.9 -3.2l-3 -2.5l-3.1 -0.4l-1.8 -4.3l-3.6 -0.7l-1.5 -3l-7.2 -0.4l-0.2 -3.8l-1.6 -3.6l1.9 -1.9l-1.2 -4.6l-4.4 -6.2l-4.2 -2l-1.4 -7.4l-3 -0.7l-1.2 -7l-2.3 -2.4l0.9 -2.6l-1 -3.9l-2.3 -3.2l2 -1.9l-0.9 -1.4l1.9 -5.5l-3.8 -4l0.5 -7l-1.9 -1.6l-3.5 1.6l-3.1 0l0 -12.6l0 -6.5l-42.4 -0.3l-0.8 17.1l-4.5 0l-8.1 0l-28.3 0l0 17l-33.5 -0.1l0 11.1l0 21.3l-1.3 0l0 55.3l0 12.4l-5.1 0z"/><path data-id="56037" d="m143.2 539.7l-0.1 46.3l1.1 4.5l0 32.9l-0.2 49.2l-0.1 110.3l6 0l4.4 0l17.2 0.1l19.9 -0.1l5.5 0l18.9 0l1.3 0l4.9 -0.2l35.7 -0.4l2.7 -0.2l8.3 0.2l17.6 0l23.7 0.1l36.1 0l14.9 0.1l3.7 -0.1l35.7 0l9.9 -0.1l19.2 -0.3l18.3 0l0.2 -75.2l-1.8 0l0 -48.8l0 -1l60 0.4l0.6 -15.9l0.2 -66.7l-2.6 0l-0.1 -33.5l-131 -0.3l-86.1 -0.1l-71.3 -0.1l-72.9 -1.3z"/><path data-id="56039" d="m0.2 68.4l0 8.3l0.4 29.4l0.5 8.1l0 12.6l-0.1 4.3l0.1 45.6l0.1 2l0 10.3l0 8.5l0.2 4l0 3.3l0 1.7l0.1 13.2l0 18.3l0.1 17.6l0 1l0 6.8l0 1.4l0 4.3l0 15l0 16.2l0.1 36.4l16.7 0.4l16.3 -0.1l0 15.4l33.6 0l0 -11.1l33.5 0.1l0 -17l28.3 0l8.1 0l4.5 0l0.8 -17.1l0 -69l-0.3 -1.3l0.1 -37.1l0 -2.7l0 -18l-0.1 -4l-9.2 -0.6l-0.8 -1.4l-0.1 -1.4l-0.2 -1.2l0.8 -1.5l0.2 -1.5l-0.2 -1.1l1.7 -1.1l-1 -0.3l-1 -1.7l1.7 -1l-1.7 -1l0.2 -1.2l1.3 -0.8l-0.8 -1l-1.4 -0.7l-0.8 -1.2l-0.4 -1.8l0.3 -2l-0.1 -1l-1.2 -1.8l-0.2 -1.2l-0.6 -1.4l0.4 -1.2l-0.6 -2.2l-1.5 -1.4l-1.2 -0.3l-0.8 -1.3l-1.5 0.2l-2.1 -0.6l-1.2 -1l0.2 -1.2l0.4 -1.1l-0.2 -1l-1.8 -0.7l-1.3 -1.3l0.1 -1.5l-0.3 -1.1l-0.3 -1.7l-0.1 -1.8l-0.4 -1.6l-1.2 -1.5l-1.1 -0.9l-1 -0.9l-0.1 -1.4l-0.5 -1.5l-1.1 -0.8l-1.5 -0.5l-1 -0.7l-0.8 -1.5l-1 -1.4l0.5 -1l0 -1l0.4 -1.4l0.1 -1l-0.2 -1.2l0 -1.5l0.9 -1.4l0.2 -1.5l-0.2 -1.2l0.3 -1.3l0.5 -1.2l-0.1 -1.5l0.3 -1.4l-0.8 -1.7l-1.3 -1l-1 -0.3l0.5 -1l0.8 -1.4l-0.8 -1l-1 -0.8l-1.1 -0.7l-1.3 0l-1.4 0.2l-0.4 1l-1.7 -0.4l-1 -0.3l-1.2 -0.3l-1.5 -1.2l-1.4 -0.8l0.6 -1.1l0.1 -1.8l-0.6 -1.1l-22 0.1l-19.1 0l0.1 -10.3l-0.1 -6.4l-15.9 -0.1l-15.7 0.1l-11.4 0l-4.5 0l-7.8 0z"/><path data-id="56041" d="m1.5 734.7l0 48.1l42.3 0.2l5.1 0.1l25 0l5.6 0.3l17.8 0l17.8 -0.2l1.8 0.1l16 -0.2l11 -0.2l0.1 -110.3l-75.9 -0.2l-66.6 -0.1l0 2.7l-0.1 35.8l0 3.2l0 14.2l0 6.5z"/><path data-id="56043" d="m357.8 167.9l0 17.7l8.6 -0.1l0.1 17.5l8.9 0l-0.4 17.6l17.2 0l0 11.2l17.8 -0.3l-1.6 3.9l3 1.9l31.2 0.1l0 16.8l34.4 0l0 17.3l17.3 -0.1l0 28.6l8.6 0l40.6 -0.1l2.9 0.3l17.1 0l0 -10.9l-0.4 -51.4l-2 0l-0.1 -69.4l-2.6 0l-76.8 -0.1l-5.3 -0.3l-52.6 -0.1l-65.6 -0.1z"/><path data-id="56045" d="m853.2 208.1l-0.1 27.6l0.1 17.2l0 46.4l0.1 1.2l25.7 -0.2l120.7 -0.7l0 -10.9l0 -4.1l0 -33.1l0 -2.9l0 -18.2l0.1 -16.5l0.1 -40.6l0 -7.8l-44.8 -0.1l-1 -0.1l-100.5 1.1l-0.2 41.7z"/></svg>
