<?xml version="1.0" encoding="UTF-8"?>
<!DOCTYPE svg PUBLIC '-//W3C//DTD SVG 1.1//EN' 'http://www.w3.org/Graphics/SVG/1.1/DTD/svg11.dtd'>
<svg viewBox="0 0 1000 783.423" xmlns="http://www.w3.org/2000/svg">
  <g data-id="001">
    <path d="m675.83 707.459l0.246 75.136l14.789 0.263l3.857 0.024l18.469 0.115l47.22 0.021l64.711 -0.244l-0.248 -22.383l-0.173 -31.123l-0.079 -9.61l0.343 -62.068l-0.105 -16.317l0.746 -66.539l-1.45 -66.081l-6.956 0.057l-1.351 2.329l0.006 2.733l-1.414 0.007l-0.038 5.509l-1.357 0.014l0.449 11.021l-2.868 0.048l0.448 5.575l-17.784 0.036l-3.753 0.211l-1.353 -1.098l-9.071 -0.576l-2.063 -1.335l-0.113 -14.096l5.57 0.024l0.014 -5.589l2.764 -0.005l0.02 -4.705l-73.859 -0.513l-0.216 66.855l0.238 19.88l0.255 83.754l0.437 28.694l-19.949 -0.002l-16.381 -0.019z" />
  </g>
  <g data-id="003">
    <path d="m347.704 1.11l0.122 26.001l4.021 0.007l-0.023 22.865l-0.02 33.171l0.015 14.358l2.723 0.024l-0.006 18.361l-0.048 51.975l3.317 0.003l65.64 0.056l52.644 0.059l5.305 0.294l76.812 0.146l0.258 -31.554l-3.942 -2.227l-2.337 -2.597l0.584 -2.122l3.302 -1.879l-2.104 -1.685l1.041 -3.368l-1.427 -1.964l-2.908 0.787l-0.653 -5.977l0.271 -3.416l-5.747 1.606l-5.171 -2.492l0.046 -1.652l-3.165 -0.001l0.917 -8.329l-4.707 -4.6l-1.101 -3.372l-2.704 -0.335l-2.262 -3.535l-0.566 -2.309l-0.353 -1.551l-0.94 -1.747l-0.862 -1.581l-1.004 -0.452l-1.097 -0.371l-1.064 0.153l-1.214 -0.397l-0.474 -1.152l-1.552 -0.567l-1.37 0.805l-1.265 -0.385l-2.332 -1.049l-2.049 -2.41l-1.047 -1.285l-0.385 -1.241l-1.135 -0.792l-2.097 1.564l-1.859 -0.806l-0.719 -1.667l0.52 -1.146l0.633 -2.305l-2.362 -0.55l-1.106 -1.98l-1.512 -1.045l-2.187 -0.79l-1.787 -0.73l-1.095 -1.332l-2.166 -0.451l-1.367 0.465l-1.129 0.388l-1.724 0.293l-1.317 -0.17l-0.891 1.038l-1.272 1.213l-1.241 -0.414l-1.543 -1.954l0.424 -1.662l-1.755 -1.372l-1.901 -0.058l-1.7 -0.625l-1.428 -0.976l-2.31 -0.117l-0.624 -1.071l0.709 -1.353l-0.023 -1.854l-0.482 -1.334l0.146 -1.968l-0.787 -1.965l-0.936 -1.478l-1.74 -0.38l-2.363 -0.488l-1.268 -0.865l-1.144 -0.95l-2.898 -1.347l-1.01 -1.318l0.785 -1.127l1.357 -2.051l-0.645 -1.416l-1.258 -1.585l0.109 -1.534l-0.27 -1.469l-1.299 -1.184l-0.965 -2.333l-2.202 -1.911l0.023 -1.542l0.281 -1.133l0.198 -2.074l1.097 -0.846l-0.117 -1.664l-0.139 -1.382l-1.056 -1.098l-1.323 -1.351l-1.071 -1.111l-0.687 -2.217l0.484 -1.927l0.251 -1.888l-0.453 -1.933l-0.254 -1.465l0.001 -1.15l-0.751 -1.149l-1.281 -0.833l-1.645 -0.446l-0.515 -1.083l-12.253 -0.055l-21.705 0.102l-9.863 0.105l-2.807 0.068l-1.6 0.151l-3.12 -0.16l-32.76 0.113l-9.314 -0.179l-1.794 0.019l-6.115 0.015z" />
  </g>
  <g data-id="005">
    <path d="m718.382 2.466l0.244 25.18l1.26 2.223l-0.1 30.311l0.614 2.792l0.012 11.451l0.131 14.467l0.147 7.397l-0.833 1.216l-0.289 70.119l1.043 69.089l-1.199 0.018l0.033 64.432l47.448 -0.168l86.4 -0.516l-0.108 -1.209l-0.019 -46.414l-0.103 -17.2l0.09 -27.595l0.214 -41.72l-0.74 -8.055l0.253 -62.107l-0.393 -52.02l1.226 0.122l0.296 -17.085l-0.258 -26.071l-42.073 -0.004l-68.061 -0.006l-9.325 -0.11l-2.113 1.473l-13.795 -0.008z" />
  </g>
  <g data-id="007">
    <path d="m446.43 658.063l-0.016 48.751l1.824 0.006l-0.188 75.224l41.8 -0.017l36.858 -0.18l7.088 0.02l10.935 0.031l34.347 -0.121l20.391 0.148l57.663 0.115l2.041 0.015l1.23 0.043l5.582 0.109l10.092 0.388l-0.246 -75.136l16.381 0.019l19.949 0.002l-0.437 -28.694l-0.255 -83.754l-0.11 -19.881l0.088 -66.854l-78.744 0.531l-128.191 -0.748l0.029 33.34l0.057 33.48l2.641 0l-0.238 66.652l-0.604 15.885l-59.962 -0.41l-0.005 1.034z" />
  </g>
  <g data-id="009">
    <path d="m710.78 301.259l-0.01 3.326l0.623 68.836l-0.01 28.753l0.144 27.23l0.023 11.922l-0.5 7.946l0.785 3.032l-0.591 42.47l-0.149 13.531l74.209 0.51l-0.02 4.705l-2.764 0.005l-0.014 5.589l-5.57 -0.024l0.113 14.096l2.063 1.335l9.071 0.576l1.353 1.098l3.753 -0.211l17.784 -0.036l-0.448 -5.575l2.868 -0.048l-0.449 -11.021l1.357 -0.014l0.038 -5.509l1.414 -0.007l-0.006 -2.733l1.351 -2.329l6.956 -0.057l-0.159 -29.828l-0.212 -3.956l18.645 -0.182l5.392 -0.251l18.401 -0.1l13.82 -0.072l-0.149 -33.775l-0.922 -140.249l-25.676 0.235l-86.4 0.516l-47.448 0.168l-8.666 0.098z" />
  </g>
  <g data-id="011">
    <path d="m852.487 44.156l0.393 52.02l-0.253 62.107l0.312 7.655l100.903 -0.683l1.046 0.141l44.78 0.106l-0.129 -13.864l-0.077 -53.485l0.005 -5.129l0.002 -5.545l0.01 -24.139l0.005 -1.833l-0.013 -4.612l-0.013 -8.953l-0.076 -19.939l0.083 -1.602l-0.255 -24.693l-27.474 -0.159l-31.403 -0.047l-27.662 -0.084l-8.921 -0.131l-4.78 0.091l-36.887 -0.277l-1.003 0.03l-1.854 -0.011l-5.475 0l0.258 26.071l-0.296 17.085l-1.226 -0.122z" />
  </g>
  <g data-id="013">
    <path d="m143.29 199.762l-0.065 37.081l0.314 1.278l-0.019 68.978l42.379 0.311l0.015 6.472l0.021 12.65l3.078 -0.027l3.549 -1.607l1.869 1.585l-0.533 6.979l3.755 4.039l-1.875 5.511l0.948 1.37l-1.977 1.942l2.272 3.227l0.957 3.893l-0.857 2.633l2.297 2.413l1.222 7.029l3.006 0.715l1.394 7.392l4.152 1.999l4.44 6.226l1.176 4.633l-1.87 1.853l1.57 3.593l0.247 3.791l7.163 0.396l1.477 2.959l3.626 0.664l1.792 4.285l3.103 0.359l3.021 2.476l1.92 3.171l3.869 -1.273l3.409 4.985l2.123 4.823l0.614 4.293l1.749 3.361l4.64 1.743l2.05 4.445l3.062 3.631l5.259 2.258l-2.356 1.182l-1.405 3.731l1.803 1.309l4.093 -1.254l2.254 3.401l6.731 2.636l-2.226 1.929l2.783 3.726l-0.864 2.739l8.796 0.151l0.482 50.403l3.666 -0.032l-0.009 32.83l86.131 0.055l131.029 0.317l-0.029 -33.34l-2.727 0l-0.214 -67.346l6.01 0.019l-0.07 -17.018l-0.059 -50.589l-2.056 0.02l-0.043 -67.617l-2.57 -0.02l0.019 -5.628l-8.595 -0.007l-0.005 5.729l-80.11 0.325l-0.003 2.167l-2.162 -0.026l-23.757 -0.005l0.013 -2.812l-17.018 -0.043l0.002 -5.682l-17.018 -0.02l0 -5.768l-16.975 0.059l0.057 -8.569l-17.075 0.039l0 -5.854l-17.068 0.106l-0.044 -2.848l-33.905 -0.119l0 -15.666l-3.554 -2.471l-5.479 -10.319l-3.888 -2.028l-1.779 -4.494l-5.063 -1.811l-0.413 -1.437l-1.236 -4.104l-1.906 -1.544l-4.463 -0.192l-1.992 -7.919l-2.612 -0.305l-2.135 -4.935l-2.924 -0.949l-1.208 -3.249l-4.287 -0.346l-0.522 -3.303l-5.172 1.924l-3.262 -3.033l-3.539 -0.042l-2.133 2.064l-1.979 1.015l-2.879 1.061l-2.231 1.421l-4.227 4.737l-1.479 4.549l-0.978 1.9l0.244 2.012l0.497 1.938l-0.957 1.124l-1.727 0.092l-1.885 0.792l-1.686 0.826l-1.559 -0.037l-1.625 0.697l-1.654 1.164l-0.981 1.114l-1.009 0.65l-1.09 0.17l-1.107 0.733l-1.05 0.705l-0.899 1.111l-1.444 -0.287l-1.233 -0.727l-1.07 -0.721l-1.433 -0.615l-0.572 -1.011l-2.086 0.322l-1.375 -0.956l-0.6 -1.473l0.496 -1.034l-0.636 -1.192l0.321 -1.153l2.19 -1.086l1.249 -0.2l1.228 -0.476l0.752 -1.071l-1.52 -0.737l-0.324 -1.633l0.619 -2.344l-3.055 -2.53l-0.704 -1.28l0.288 -1.726l-0.238 -1.406l-1.154 -0.694l-1.216 -0.37l-0.043 -2.141l1.377 -1.745l0.062 -1.619l-1.686 0.226l-1.526 0.728l-5.439 0.732l-4.147 -2.515l-4.69 0.921l-2.195 0.838l-0.885 -1.426l0.191 -1.125l-1.648 -0.838l-0.956 -1.052l-0.014 -1.329l-0.671 -1.171l-0.585 -1.111l-0.728 -1.111l-0.107 -1.199l-2.137 -1.122z" />
  </g>
  <g data-id="015">
    <path d="m913.847 474.163l0.167 53.782l0.161 130.344l0.049 16.801l8.637 0.063l65.85 0.046l11.235 0.033l-0.046 -5.34l0.018 -4.09l-0.034 -1.767l0.004 -2.91l0.005 -1.342l0.012 -10.084l0.008 -6.779l-0.036 -29.125l0.014 -3.966l-0.009 -1.694l0.037 -11.139l-0.013 -4.147l0.018 -1.367l-0.004 -2.805l-0.022 -1.046l-0.012 -10.236l0.002 -2.707l0.051 -6.905l-0.02 -1.695l0.027 -6.361l-0.083 -16.028l0.049 -1.593l-0.047 -46.719l0.047 -21.483l-68.377 0.297l-17.688 -0.036z" />
  </g>
  <g data-id="017">
    <path d="m248.966 238.35l0.413 1.437l5.063 1.811l1.779 4.494l3.888 2.028l5.479 10.319l3.554 2.471l0 15.666l33.905 0.119l0.044 2.848l17.068 -0.106l0 5.854l17.075 -0.039l-0.057 8.569l16.975 -0.059l0 5.768l17.018 0.02l-0.002 5.682l17.018 0.043l-0.013 2.812l23.757 0.005l2.162 0.026l0.003 -2.167l80.11 -0.325l0.005 -5.729l-0.007 -28.578l-17.283 0.13l0.049 -17.29l-34.363 -0.02l0.018 -16.849l-31.192 -0.06l-3.034 -1.859l1.561 -3.937l-17.765 0.324l0.048 -11.216l-17.16 -0.02l0.357 -17.588l-8.904 0.037l-0.117 -17.454l-8.638 0.071l-34.479 -0.042l0.071 17.587l-17.732 0.039l0.457 17.072l-25.71 0.055l-0.104 17.197l-5.649 0.32l-19.898 -0.024l-5.768 0.559z" />
  </g>
  <g data-id="019">
    <path d="m526.397 89.72l2.262 3.535l2.704 0.335l1.101 3.372l4.707 4.6l-1.447 7.389l3.695 0.941l-0.046 1.652l5.171 2.492l5.747 -1.606l-0.271 3.416l0.653 5.977l2.908 -0.787l1.427 1.964l-1.041 3.368l2.104 1.685l-3.302 1.879l-0.584 2.122l2.337 2.597l3.942 2.227l-0.258 31.554l2.602 -0.005l0.137 69.397l1.994 -0.026l0.408 51.432l0.009 10.886l-0.027 1.559l94.81 -0.07l52.641 -0.345l8.666 -0.098l-0.033 -64.432l1.199 -0.018l-1.043 -69.089l0.289 -70.119l0.833 -1.216l-0.147 -7.397l-24.242 0.04l-35.606 0.401l-17.289 0.982l-37.758 -0.2l-31.224 -0.265l-48.028 -0.128z" />
  </g>
  <g data-id="021">
    <path d="m824.622 719.659l0.079 9.61l0.173 31.123l0.288 22.383l2.903 -0.003l44.707 0.02l12.577 0.007l3.679 -0.231l8.063 -0.117l13.852 -0.202l10.917 -0.07l14.615 -0.094l4.208 0.067l36.116 -0.035l13.007 0.006l2.712 0.016l2.644 -0.004l2.728 0.011l1.958 0.019l0.013 -2.914l-0.002 -13.804l0.014 -2.891l-0.008 -1.795l-0.053 -8.113l0.121 -22.393l0.014 -7.782l-0.017 -2.732l0.057 -11.916l0.018 -2.75l-0.026 -1.942l-0.02 -18.649l0 -1.256l-0.03 -3.198l0.014 -2.583l0.007 -2.218l-11.235 -0.033l-65.85 -0.046l-8.637 -0.063l-0.049 -16.801l-89.211 -0.697l-0.343 62.068z" />
  </g>
  <g data-id="023">
    <path d="m1.396 563.159l0 1.247l0.06 27.104l0.065 42.55l0.059 38.199l66.563 0.13l75.886 0.22l0.208 -49.198l0.019 -32.934l-1.121 -4.454l0.079 -46.333l-20.099 -0.018l-1.716 -1.101l-31.18 0.078l-16.662 -0.261l-0.242 -33.048l-6.681 0.02l0.008 -50.729l-4.769 -0.018l0.006 -13.418l5.107 0.003l-0.042 -12.401l-0.005 -55.274l1.343 -0.031l-0.01 -21.324l-33.597 0.009l0 -15.444l-16.259 0.086l-16.665 -0.435l0.055 23.55l0.009 1.24l-0.014 2.351l0.017 20.513l-0.001 1.21l0.005 1.146l0.004 1.073l0.003 1.664l-0.004 3.327l-0.016 1.299l0.04 9.282l-0.005 1.089l-0.003 3.121l-0.022 15.314l0.082 29.632l-0.35 27.156l-0.099 13.332l-0.013 1.739l-0.04 30.08l0.001 13.25l-0.003 16.586l0.006 2.332l-0.007 6.491z" />
  </g>
  <g data-id="025">
    <path d="m501.57 440.736l0.214 67.346l2.727 0l128.191 0.748l78.394 -0.528l0.149 -13.531l-0.123 -41.77l-0.071 -3.732l-0.128 -7.836l0.605 -12.032l-0.144 -27.23l0.01 -28.753l-0.014 -67.853l-0.599 -4.309l-52.641 0.345l-94.81 0.07l0.027 -1.559l-17.095 -0.011l-2.876 -0.252l-40.583 0.052l-0.019 5.628l2.57 0.02l0.043 67.617l2.056 -0.02l0.059 50.589l0.07 17.018l-6.01 -0.019z" />
  </g>
  <g data-id="027">
    <path d="m878.97 300.241l0.212 139.982l0.859 34.042l33.805 -0.103l17.688 0.036l68.377 -0.482l0.027 -3.715l0.001 -3.716l-0.032 -19.407l-0.046 -48.822l-0.107 -56.589l-0.001 -1.421l-0.048 -1.437l-0.026 -4.227l-0.03 -12.77l-0.022 -7.461l-0.002 -9.617l-0.001 -4.97l-120.655 0.676z" />
  </g>
  <g data-id="029">
    <path d="m0 28.082l0.067 23.489l0.129 4.941l0.025 11.865l7.792 0.03l4.549 0.001l11.41 -0.01l15.673 -0.113l15.891 0.087l0.057 6.399l-0.062 10.345l19.141 0.012l21.97 -0.054l0.59 1.074l-0.127 1.837l-0.561 1.072l1.465 0.719l1.46 1.205l1.157 0.283l1.027 0.335l1.324 0.409l0.869 -1.147l1.408 -0.127l1.299 -0.031l1.089 0.651l1.027 0.835l0.929 1.5l-1.024 1.283l-0.057 1.017l1.38 0.325l1.305 1.607l-0.122 1.442l-0.144 1.264l0.244 1.45l-0.835 1.542l0.204 1.724l0.003 1.115l-1.027 0.862l-0.01 1.524l0.109 2.005l-0.1 1.004l-0.43 1.412l-0.426 1.327l0.431 1.619l0.74 1.346l1.446 1.382l1.074 0.276l1.213 0.476l0.938 1.305l0.163 1.524l0.261 1.289l1.437 0.594l1.08 1.202l0.775 1.512l0.224 1.826l0.081 1.82l0.369 1.812l-0.109 1.581l1.283 1.271l1.017 0.32l0.948 1.026l-0.062 1.032l-0.175 1.025l0.049 1.275l2.362 0.064l1.021 1.026l1.041 0.181l1.84 1.1l1.509 1.45l0.566 2.156l-0.443 1.183l0.612 1.439l0.155 1.217l0.337 1.301l0.945 1.451l-0.287 1.987l0.378 1.784l0.806 1.233l1.12 0.92l1.128 0.714l-1.256 0.746l-0.188 1.245l1.679 1.034l-1.017 0.598l-0.393 1.371l1.34 0.263l-0.747 1.316l-0.719 1.283l0.245 1.094l-1.009 1.286l-0.075 1.574l0.102 1.22l0.633 1.757l9.675 1.033l0.055 3.984l0.021 17.964l0.002 2.691l2.81 1.098l0.107 1.199l0.728 1.111l0.585 1.111l0.671 1.171l0.014 1.329l0.371 1.131l1.285 0.02l0.814 1.428l0.057 1.071l2.966 -0.047l4.69 -0.921l4.147 2.515l5.439 -0.732l1.526 -0.728l1.686 -0.226l-0.062 1.619l-1.377 1.745l0.043 2.141l1.216 0.37l1.154 0.694l0.238 1.406l-0.288 1.726l0.704 1.28l2.222 1.934l0.81 2.692l-0.821 1.192l1.768 1.074l-0.451 1.423l-1.228 0.476l-1.249 0.2l-1.245 0.191l-1.266 2.048l0.636 1.192l-0.496 1.034l0.6 1.473l1.375 0.956l1.216 -0.56l1.442 1.249l1.433 0.615l1.07 0.721l1.233 0.727l1.444 0.287l0.899 -1.111l1.05 -0.705l1.107 -0.733l1.09 -0.17l1.009 -0.65l0.981 -1.114l1.654 -1.164l1.625 -0.697l1.559 0.037l1.686 -0.826l1.885 -0.792l1.727 -0.092l0.957 -1.124l-0.497 -1.938l-0.244 -2.012l0.978 -1.9l1.479 -4.549l4.227 -4.737l2.231 -1.421l2.274 -1.962l2.584 -0.114l2.133 -2.064l3.539 0.042l3.262 3.033l5.172 -1.924l0.522 3.303l4.287 0.346l1.208 3.249l2.924 0.949l2.135 4.935l2.612 0.305l1.992 7.919l4.463 0.192l1.906 1.544l1.236 4.104l5.768 -0.559l19.898 0.024l5.649 -0.32l0.104 -17.197l25.71 -0.055l-0.457 -17.072l17.732 -0.039l-0.071 -17.587l34.479 0.042l0.028 -17.71l-3.317 -0.003l0.048 -51.975l0.006 -18.361l-2.723 -0.024l-0.015 -14.358l0.02 -33.171l0.023 -22.865l-4.021 -0.007l-0.122 -26.001l-8.814 0.022l-38.143 0.096l-15.993 0.04l-2.962 0.003l-2.917 -1.271l-22.84 0.113l-16.029 0.149l-1.53 -0.056l-26.823 0.456l-12.756 0.019l-12.428 0.188l-6.818 -0.117l-11.028 -0.219l-17.033 0.02l-4.354 -0.086l-12.072 -0.061l-12.763 1.558l-12.458 -0.134l-5.378 -0.466l-2.525 0.021l-2.936 -0.311l-5.743 1.369l-12.155 0.293l-8.436 -0.02l-22.571 0.027l-6.495 -1.135l-1.54 -0.401l-3.348 -0.609l-37.013 0.324l-1.56 0.004l-0.144 13.201l-0.097 13.955z" />
  </g>
  <g data-id="031">
    <path d="m823.783 474.869l0.212 3.956l0.395 29.842l1.214 66.067l-0.746 66.539l0.105 16.317l89.211 0.697l-0.161 -130.344l-0.167 -53.782l-33.805 0.103l-13.82 0.072l-18.401 0.1l-5.392 0.251l-18.645 0.182z" />
  </g>
  <g data-id="033">
    <path d="m449.035 0.931l0.515 1.083l1.645 0.446l1.281 0.833l0.751 1.149l-0.001 1.15l0.254 1.465l0.453 1.933l-0.251 1.888l-0.484 1.927l0.687 2.217l1.071 1.111l1.323 1.351l1.056 1.098l0.139 1.382l0.117 1.664l-1.097 0.846l-0.198 2.074l-0.281 1.133l-0.023 1.542l1.331 0.961l1.836 3.283l1.299 1.184l0.27 1.469l-0.109 1.534l0.508 1.187l1.504 1.133l-0.83 2.218l-1.421 1.641l1.01 1.318l2.898 1.347l1.144 0.95l1.268 0.865l2.363 0.488l1.74 0.38l0.936 1.478l-0.006 1.03l0.686 1.976l0.443 2.261l0.023 1.854l-0.709 1.353l0.624 1.071l1.424 0.448l2.314 0.645l1.7 0.625l1.901 0.058l1.755 1.372l-0.424 1.662l0.731 1.058l1.636 1.424l1.318 -0.511l1.262 -1.854l1.317 0.17l1.724 -0.293l1.129 -0.388l1.367 -0.465l2.166 0.451l1.095 1.332l1.787 0.73l2.187 0.79l1.512 1.045l0.229 1.16l2.296 0.686l1.077 2.21l-1.287 1.925l0.719 1.667l1.859 0.806l1.623 -1.126l1.609 0.354l0.385 1.241l1.047 1.285l1.214 1.931l2.168 1.041l2.264 0.872l1.059 -0.389l1.164 -0.788l1.173 2.091l1.214 0.397l1.064 -0.153l1.097 0.371l1.004 0.452l0.862 1.581l0.94 1.747l0.353 1.551l0.341 1.808l48.253 0.629l31.224 0.265l37.758 0.2l17.289 -0.982l35.606 -0.401l24.242 -0.04l-0.131 -14.467l-0.012 -11.451l-0.614 -2.792l0.1 -30.311l-1.26 -2.223l-0.244 -25.18l-34.087 -0.02l-43.278 -0.205l-45.974 -0.218l-14.104 -0.071l-9.028 -0.039l-3.454 -0.117l-1.419 0.082l-2.962 -0.431l-2.848 -0.132l-1.22 -0.146l-31.016 -0.262l-20.073 -0.015l-10.885 0.073l-5.643 0.038l-20.39 0.031l-22.965 -0.104z" />
  </g>
  <g data-id="035">
    <path d="m61.88 441.193l-0.006 13.418l4.769 0.018l-0.008 50.729l6.681 -0.02l0.242 33.048l16.662 0.261l31.18 -0.078l1.716 1.101l20.099 0.018l72.909 1.294l71.257 0.068l0.009 -32.83l-3.666 0.032l-0.482 -50.403l-8.796 -0.151l0.864 -2.739l-2.783 -3.726l2.226 -1.929l-6.731 -2.636l-2.254 -3.401l-4.093 1.254l-1.803 -1.309l1.405 -3.731l2.356 -1.182l-5.259 -2.258l-3.062 -3.631l-2.05 -4.445l-4.64 -1.743l-1.749 -3.361l-0.614 -4.293l-2.123 -4.823l-3.409 -4.985l-3.869 1.273l-1.92 -3.171l-3.021 -2.476l-3.103 -0.359l-1.792 -4.285l-3.626 -0.664l-1.477 -2.959l-7.163 -0.396l-0.247 -3.791l-1.57 -3.593l1.87 -1.853l-1.176 -4.633l-4.44 -6.226l-4.152 -1.999l-1.394 -7.392l-3.006 -0.715l-1.222 -7.029l-2.297 -2.413l0.857 -2.633l-0.957 -3.893l-2.272 -3.227l1.977 -1.942l-0.948 -1.37l1.875 -5.511l-3.755 -4.039l0.533 -6.979l-1.869 -1.585l-3.549 1.607l-3.078 0.027l-0.021 -12.65l-0.015 -6.472l-42.379 -0.311l-0.819 17.103l-4.515 -0.031l-8.148 -0.04l-28.297 0.042l0.037 17.027l-33.466 -0.093l-0.039 11.06l0.01 21.324l-1.343 0.031l0.005 55.274l0.042 12.401l-5.107 -0.003z" />
  </g>
  <g data-id="037">
    <path d="m143.215 539.688l-0.079 46.333l1.121 4.454l-0.019 32.934l-0.208 49.198l-0.069 110.284l5.994 -0.049l4.42 -0.018l17.164 0.056l19.97 -0.109l5.566 -0.038l18.948 0.045l1.252 0.003l4.887 -0.186l35.684 -0.356l2.677 -0.199l8.323 0.227l17.646 0.038l23.689 0.107l36.123 -0.012l14.91 0.104l3.713 -0.095l35.692 0l9.911 -0.065l19.228 -0.304l18.29 0.005l0.188 -75.224l-1.824 -0.006l0.016 -48.751l0.005 -1.034l59.962 0.41l0.604 -15.885l0.238 -66.652l-2.641 0l-0.057 -33.48l-131.029 -0.317l-86.131 -0.055l-71.257 -0.068l-72.909 -1.294z" />
  </g>
  <g data-id="039">
    <path d="m0.222 68.377l0.018 8.294l0.396 29.352l0.463 8.071l0.007 12.616l-0.078 4.253l0.082 45.573l0.095 2.007l-0.026 10.321l-0.064 8.506l0.247 4l0.041 3.266l0.021 1.683l0.057 13.205l-0.029 18.324l0.054 17.571l0.032 7.723l0.032 1.346l0.025 4.326l0.034 14.992l0.037 16.157l0.084 36.42l16.665 0.435l16.259 -0.086l0 15.444l33.597 -0.009l0.039 -11.06l33.466 0.093l-0.037 -17.027l28.297 -0.042l8.148 0.04l4.515 0.031l0.819 -17.103l0.019 -68.978l-0.314 -1.278l0.065 -37.081l-0.002 -2.691l-0.021 -17.964l-0.055 -3.984l-9.166 -0.611l-0.807 -1.418l-0.173 -1.506l-0.184 -1.129l0.834 -1.484l0.176 -1.475l-0.169 -1.102l1.721 -1.152l-1.677 -0.949l-0.267 -1.015l1.677 -0.954l-1.679 -1.034l0.188 -1.245l1.256 -0.746l-1.128 -0.714l-1.12 -0.92l-0.806 -1.233l-0.378 -1.784l0.287 -1.987l-0.945 -1.451l-0.337 -1.301l-0.155 -1.217l-0.612 -1.439l0.443 -1.183l-0.566 -2.156l-1.509 -1.45l-1.245 -0.26l-0.748 -1.313l-1.448 0.166l-2.033 -0.631l-1.232 -0.99l0.159 -1.211l0.453 -1.149l-0.93 -1.341l-1.017 -0.32l-1.283 -1.271l0.109 -1.581l-0.288 -1.09l-0.247 -1.745l-0.073 -1.82l-0.368 -1.562l-1.209 -1.451l-1.107 -0.924l-0.935 -1.463l-0.163 -1.524l-0.938 -1.305l-1.213 -0.476l-1.074 -0.276l-1.446 -1.382l-0.74 -1.346l-0.431 -1.619l0.426 -1.327l0.43 -1.412l0.1 -1.004l-0.177 -1.212l0.018 -1.477l0.926 -1.3l0.158 -1.517l-0.215 -1.178l0.356 -1.395l0.479 -1.236l-0.093 -1.508l0.296 -1.325l-0.781 -1.671l-1.29 -1.058l-0.727 -1l1.024 -1.283l-0.929 -1.5l-1.027 -0.835l-1.089 -0.651l-1.299 0.031l-1.408 0.127l-0.417 1.044l-1.776 -0.306l-1.027 -0.335l-1.157 -0.283l-1.46 -1.205l-1.465 -0.719l0.561 -1.072l0.127 -1.837l-0.59 -1.074l-21.97 0.054l-19.141 -0.012l0.062 -10.345l-0.057 -6.399l-15.891 -0.087l-15.673 0.113l-11.41 0.01l-4.549 -0.001l-7.792 -0.03z" />
  </g>
  <g data-id="041">
    <path d="m1.476 734.741l-0.025 48.075l42.257 0.21l5.097 0.095l25.013 0l5.582 0.303l17.846 -0.038l17.846 -0.216l1.836 0.125l16.009 -0.212l11.025 -0.19l0.069 -110.284l-75.886 -0.22l-66.563 -0.13l0.004 2.724l-0.068 35.789l-0.048 3.241l0.005 14.245l0.002 6.465z" />
  </g>
  <g data-id="043">
    <path d="m357.805 167.875l-0.028 17.71l8.638 -0.071l0.117 17.454l8.904 -0.037l-0.357 17.588l17.16 0.02l-0.048 11.216l17.765 -0.324l-1.561 3.937l3.034 1.859l31.192 0.06l-0.018 16.849l34.363 0.02l-0.049 17.29l17.283 -0.13l0.007 28.578l8.595 0.007l40.583 -0.052l2.876 0.252l17.095 0.011l-0.009 -10.886l-0.408 -51.432l-1.994 0.026l-0.137 -69.397l-2.602 0.005l-76.812 -0.146l-5.305 -0.294l-52.644 -0.059l-65.64 -0.056z" />
  </g>
  <g data-id="045">
    <path d="m853.154 208.057l-0.09 27.595l0.103 17.2l0.019 46.414l0.108 1.209l25.676 -0.235l120.655 -0.726l-0.035 -10.884l0.027 -4.091l-0.041 -33.102l-0.006 -2.871l-0.045 -18.169l0.059 -16.455l0.073 -40.621l0.011 -7.821l-44.78 -0.106l-1.046 -0.141l-100.475 1.083l-0.214 41.72z" />
  </g>
</svg>
