<?xml version="1.0" encoding="UTF-8"?><!DOCTYPE svg PUBLIC '-//W3C//DTD SVG 1.1//EN' 'http://www.w3.org/Graphics/SVG/1.1/DTD/svg11.dtd'><svg viewBox="0 0 1000 440.332" xmlns="http://www.w3.org/2000/svg"><path id="51001" d="m917 288v1l1 1h1l3-1l2 1h6l5 4l-2 2l2 1v3l-3 2l2 1h1l2 2l1-2l4 1l2 1h4l1-2h-1l-1-2l2-1l4-5l3-5l1-2l1-1l-2-1v-1v-3l1-3l2-6l1-4v-1l1-4l1-2l1-1l4-8l4-5l2-3l2-2h2l1-1h4v1l1 1v1h1v-1l1-1l2-1l2-3l2-4l3-6l6-10h-1h-1h-3l-11 2h-8l-14 2l-7 1l-1 1l-1 1l-1 1v1v3h-1l-1-1h-1l-3 3l-1 1l-1-2l-5 5v1h4h2l2 2v2v2l-2 1v1l-1 1v2l-1 1h-2v2h-4h-1h-1l-3 2v2l2 3l-2 2l-1 1l-1 1v1l-1 2l-1 1h-1l-1 3v2v1l-1 1l-4 6l-2 3zm-7-42v2v3l2 1l1-3l1-1h-1l-1-1l-1-1v-1zm-5-16l1 4v2l2-3l2-2l1-1h-2h-1h-1h-2z"/><path id="51003" d="m574 216l4 9l6 13l8 18v1l2 2h-2v3l2 2l3-1l3-3h4l3-1h5h2l1-6l21-30l1-1l6-9l5-10l-5-2l-11-5l-3-1l-26-10l-9-4l1 3l-6 3h-1l-1 1l-2 2l-1 2l-2 5l-1 5l-1 2l1 3l-1 4z"/><path id="51005" d="m401 269v1l2 4l1 2h1l1 1h1l3 2l2 1l4 1l3 2l4-3l2-1l7-5l1 2l8-6l2-2h3l3-6l3-1l2-4v-1l4-3l16 5l4-7l2-3l3-4l-3-2h-2h-2l-4 4l-3-3l-3-3l-7 1l-10-2l-1-1l-4-8h-5l-4-1l-2 2l-4-1l-1 1l-1 1l-1 1l-2 2l-1 1l-1 1v1h-1l-1 1l-1 2v-1h-1v1l-1 1l-1 1l-1 1v1h-1v1l1 1h-1l-1 1l-1 1l-1 1v1h-1l-1 2v1l1 1v1v1v-1h-1l-1 1l-1 1h-1v1v1l-1-1v1v2v1h1v1l-1 1h-1v1l-1 1l-1 1z"/><path id="51007" d="m645 318l1 10l48 14l3 2h6l4-4l3-1v-2l3-1l1-3l-2-4l-3 1l-1-2h-1v2h-3v2h-3l-1-2l-4-3v-2l1-2l-5-1l-1-2l-3-2l1-4l-1-4h2l-1-3v-3l-3 1l-1-1v-2l-3-1l-1 1l-3-2h-3l-2-2l-2 1v3h-4l-2 3l-3-1l-1 2h-3l-1-1l-1-1l-3 2h-2v3z"/><path id="51009" d="m503 280v2l1 1l2-1l3 2l2 6l2 4l2 2h2l2 2l4-1l1 2l2-2h2v2l2 2l2 2v1l3 2l2 3l3 4l1-1l3 2l2 1l1-1l-1-4h3l1-2h2l1-2l4-3l4-2l-1-4l3 1l4-2l-1-3l4-1l-3-1l-8-17l-3-3v-2l-2-1l-1-1l-2 1l-5-3l1-4l-1-5l-2-1h-3l-1-2l-2-2l-4 1l-3 3l-4-4l-3 3h-1l-5 9l-2 6l-2 2l-1 3l-2 2h-2l-2 3h-2z"/><path id="51011" d="m553 306l-1 2l8 17v4l1 1l2 1l1 5l3-1l4 2v4l4 1h2l4-4l5 2l2-3l4-2l1-3l6-8l4-3v-8l-3 1l-2 1l-1-3l1-2l-6-2l-2-4l-15-14v2h-5l-4 1l1 3l-4 2l-3-1l1 4l-4 2z"/><path id="51013" d="m772 87l-1 1l3 2l1 2l2 2l1 1h1l1 1l1 2v-3h3l1 1h1h1l1-1v-1l-1-2v-1h-1v-1v1v-1h-1l-1-2v-1l-1-1h-1h-1h-1v-1h-1v-1l-1-1v-1l-1-1v1l-2 2h-1l-1 1z"/><path id="51015" d="m492 197v3h2l3-3l3 1h3l-1 3l-3 3l-3 5l1 1l4 3l32 23l3 3l1 1l3-2l7-3l1 1l1 3h3l2 2l3-4l2-2l2-3l4-1l2-5h-2l1-1l1-1l2-5l2-1l1-1l2-1l6-5l1-4l-1-3l1-2l1-5l2-5l-8-7l-9-8h-2l-8-6l-11-7l-18-13h-1l-1 1v1v1h-1h-1l-1 1v1v1h-1l-1 1v1v1l-1-1v1h-1l-2 1l-1 1l2 1v2h-2l-3 4l-5 7v3h-1l-1 2l1 3l-1 2l-3 2l-1 2l-3-1l-2 1v2l-1 1l-2 3z"/><path id="51017" d="m430 229l-1 1l4 1l2-2l4 1h5l4 8l1 1l10 2l7-1l3 3l3 3l4-4h2l4-9l3-3l6-8l3-4l-2-1l2-2l3-5l-1-1l3-5l3-3l1-3h-3l-3-1l-3 3h-2v-3l2-1l-6-3l-17-3l-6-4l-5-3h-1v1h-1v1h-1h-1v1h-1v1l-1-1v1v1h-1l-1 1l-2 2v1h-1v1l-1 1h-1l-1 1v-1v1l-1 1h1l-1 1h1v1l-1 2l-1 1v1l-1 1h-1l1 3h1l1 1h-1v1l-1 1l-1 1l-1 1v2l-1 3h-1v1v1h-1v1v1l-1 1l-1 1v1v1h-1l-1 1l-1 1l-1 2l-2 1z"/><path id="51019" d="m453 333l1 3v3l2 1l1-1l2 1l3-2v4l3 2h3h1l2 6v-2l2 2l1-1l3 5l1 3l3 2v1l3 4v2l4 1l2-2l1 1l3 2l4 3l2-2l-3-2v-1l-1-2l2-1l4 1l13-27l4-9l5-9l3-5l-3-2l1-2l-2-2v-2h2l5-3h2l-2-2l-2-2v-2h-2l-2 2l-1-2l-4 1l-2-2h-2l-2-2l-2-4l-2-6l-3-2l-2 1l-1-1v-2l-3 2l2 4l1 1l-5 4l-3 2l-2 4l-3 2l-1-1l-2 2l-2 5h-5l-1-1v-2l-3-2l-3 1l-4 4l-4 4l-4 2l-3 1l2 4h2l-1 4l-7 5v1l1 2z"/><path id="51021" d="m262 367l3 4l7 8l2-2l1 1l2-2l3-3l3-3l8-5l4 2l1 2h2l4-2l2 2h1l8-4l7-1l8-3l-3-6l4-1l5-4l-3-3l3-1l-1-2l-3 2l-10-11l-4-4l4-2h-1v-1h1v-1l-2 1h-1h-1l-1 1h-2l-6 1h-1l-2 1l-4 1l-2 1h-1l-1 1l-3 2l-2 1l-3 2l-5 1l3 7l-6 2l-2 1v2l7 1l1 2l-1 4l-6 3l-4 2h-5l-5 2z"/><path id="51023" d="m427 309l1 3l14 6l2 1l5 3l3 1l2 3v-1l7-5l1-4h-2l-2-4l3-1l4-2l4-4l4-4l3-1l3 2v2l1 1h5l2-5l2-2l1 1l3-2l2-4l-9-7v-2l-13-10l2-2v-3l-1-1l-1-5l1-5l-16-5l-4 3v1l-2 4l-3 1l-3 6h-3l-2 2l-8 6l-1 1l1 2l7 12l-5 5l-1 3l-2 3l-2 4z"/><path id="51025" d="m668 440h17h2h1h1h12l13-25v-7v-20l-3-1l-4-2v-2l-4-5l-2-2l-4-1h-1l-4-2l-1 1h-5l-3 1l-6-1l-4-5l-3 27v9z"/><path id="51027" d="m162 328h-1l3-1l5 5l2 9l4 8l3 4v2l2 1v3l2 3v3l-1 1h4l2-1l3 2l3-2h1l1-2l2-1l-1-2l2-5l2-2l1 1l2-1l3 1l3-1l1-2l4-2l2-3h4l7-4l3-5l-1-1v-1v-1v-1h-1l-1-1v-1l-1 1l-1-1l-1-1h-1h-1h-1v1h-1h-1l-1-1h-1h-1v-1v-1v-1h-1v-1v-1h-1v-1l-1-1h-1h-1v-1l-1-1l-1-1h-1v-1h-1v-1v-1v-1h-1l1-2v-1v-1h1v-1h-1l-1-1v-2v-1h-1v-1h-1h-1l-1-1l-1-1l-1 1v-1l-1-2v-1l1-1h1l1-1h1h1v-1h1v-1l1-1h1v-1h-2v-1v-1l-1 1v-1h-1h-1v-1l-9 9l-2 1l-7 7l-9 8l-6 5l-5 4z"/><path id="51029" d="m575 284v2l2 2l-2 2l15 14l2 4l6 2l-1 2l1 3l2-1l3-1l1 1l-1 2h1v2l1-1l3 3h1l3 3h3v-1h3l25-44l2-9h-3l-3-2l-6-1l-5-3h-1l-4-1l-5-3l-3-6l-1 6h-2h-5l-3 1h-4l-3 3l-2 4l2 3l-1 1h-2l-1-3l-2 1v2l-2 1l-1 2v3l-3 1l-5-1h-2l-3 1l2 5z"/><path id="51031" d="m502 364l4-1v-4h2l3-3l-2-1l5-1v-2l1 2l4 3l3-1l2-3l1 1l1 3h2v-1l1-1l2 3l-1 3l2 3l1-2l4-1l2-2l3 3l1 1l4 2l6 2l1 1l4-3l8 4v-1l9-26l-4-1v-4l-4-2l-3 1l-1-5l-2-1l-1-1v-4l-8-17h-2l-1 2h-3l1 4l-1 1l-2-1l-4 3h-1h-1l-5 4h-2l-2 2l-5-4l-5 9l-4 9z"/><path id="51033" d="m715 224v2l4 4h4v-1l2 3l2 2v2l2-1l2 2l2 1l1 2l5-1l1 1l2 3l-1 1v4l2 1l-1 2l1 2h2l-1 2v1h3l2-3l2 2l1-3l6-6l4-5l1-3v-2l4 2v2l3-1l-1-3l1-6l2-2l2-1h5l4 1v-4l-2-3h-2l-3-1l1-2l-1-2l-3-3l-2-2l3-2v-4h4l1-1l-1-4l-2-2l-2-1l-2 1l-3-1l-3-4h-2v2l-2-1l1-3l-1-3l2-1l1-1l-3-1h-3l-1 4l-1-2h-2l-2-1l-2-1l-3 1l-4 5l-5 5l-9 11l-4 5l-9 10z"/><path id="51035" d="m314 400l-2 1l13 20l2-3h5l-3 4l-2 2l9 14h1l4-1h3h5h3l5 1h1h4h1v-5h-1v-4l2-3v-2l1-1l2-1l3 2l1 1h3l2-2l2 1v-2l3-1l1-4l-1-1l-12-20l-8-14l-5 4l-1 2l-7 2l-6 3l-3 1l-4 1l-20 5z"/><path id="51036" d="m760 321l-1 4l3 1l3-1l4 1l8 1l3-1h1l1 6h1l5-3l2-2l2 1l1 3l2 4v1l3 2l1-1l4-1l3-2v-4l1-2l-1-2v-8l-1-1l-3 3l1-4l-2-1l2-3l-2 1h-1l-2 2l1-2l-1-2l-1 1h-2v-2l-2 1l-4-1l-1-2l-5-1h-3l-3-3v-2l-6-1v-2l-3 6l-3 7l1 2l-1 2l-3-2v1l1 2z"/><path id="51037" d="m566 368v1l1 3l-1 3l1 1l3-2l6 1l2 1l1 3h2v-4l3-1l-1-1l1-2l1 1l1 8l1 2l-3 1v1l3 2l4 4l1 3h1l1 3l-2 1v1l2 2l-2 2v2l2 3l-3 4l2 3l1 2l2 1l19-29l5-27l-1-1h-3l-3-4v-1l-1-2l-3-2l-1-1l-3 1h-1l-2-1l-3-1l-1-2l-1-4h-5l-1-1l1-7l-4 2l-2 3l-5-2l-4 4h-2z"/><path id="51041" d="m689 314l-1 4l3 2l1 2l5 1l-1 2v2l4 3l1 2h3v-2h3v-2h1l1 2l3-1l2 4l5-1l3 4l1 1h1l1 2h3l2 1l2-1h7h1l2-1v-5l-1-1l-1-1l3-1l1 2l1-2l3-2l1 2l-2 3l-1 3l-2 1h2l1-1v-3l2-3l1-4h2h5h1v-1h1l1-4l3-4l-1-2l-2 1l-1 4l-4-1v-2l1-3v-2l-2 3l-1 1h-4l-1-2l-2 1l-2-5l-1-1l-1 1l-1-2l1-2l-2-2h-2l-1-1l-3 1l-2-1h-1l-1-5l-1-2v-1v-2l-2 1l-1-3l-5 2v-3l-2-1h-1h-3l-1-1v1l-3 2l-10 9l-4 4l-1 5l-6 1h-2z"/><path id="51043" d="m656 62l-1 4l7 3l4-1l2 2l4 4l2-2l3-3l9-6v-1l3-3l1-2v-1l1-3h1l1-2l-24-20l-1 4l-4 5v4l-1 3l-1 2l-2 4l1 2l-3 3z"/><path id="51045" d="m381 309h-1l4 13l-1 3h2l9-5l3-3l8 5l2-2l5-4l6-1l9-6l3-3l2-4l2-3l1-3l5-5l-7-12l-1-2l1-1l-1-2l-7 5l-2 1l-4 3l-3-2l-4-1l-2-1h-1v1l-2 2l-1 1l-1 1h-1l-2 1l-1 1l-4 2l2 3l-1 1h-1l2 2l2-2l1 1l-2 4h-1v1h-1l-1 1h-1h-1l-3 1l1 1h-1v1h-1h-1l-2 1v1l-3 1l-2 2l-1 1z"/><path id="51047" d="m648 142h-2l10 13l3 2v3l2 2l1 3l-3 2l1 4l2 1l-1 4h1h3l2-1l2 1l1-3l4-3l2 1v-2h2l2-1l3-1l1-2l2-1l1 2l3-1l2 1l1-1l3 1l3 2v-3l1-1l8 4l3 1l4-3l1 3l2-2v-2l-1-1l-1-3l-6-3l-6 3l-2-3l-1-4l-2-3v-2l-2-2l-2-4l-5-4l-2-5l1-2l-1-1l2-2l-3-2l1-2l-4-8l-3 1l-6 4l-13 11l-10 11z"/><path id="51049" d="m618 322l3 2h3l2 3l4-1l1 1l1-2l3 1l1-1l2-1l2-3h2v-2l3-1l6-9v-3h2l3-2l1 1l6-26l-1-2l2-3l-4-3l2-3l-1-2l-7-5h-2l-6 5l-1 3l-2 9z"/><path id="51051" d="m133 342l1 12h1l5 9l2 6h1l7 5l4 1l1 3l1 1l4-2l5-4l3 1l1-1l6-5h2l2-2h2l1-1v-3l-2-3v-3l-2-1v-2l-3-4l-4-8l-2-9l-5-5l-3 1v1v1h-1h-1v1h-1v1l-1 1h-2l-1 1h-1l-4 1l-1 1h-1h-2l-1 1h-1l-2 1l-1 1h-2l-1 1h-1v1l-3 1z"/><path id="51053" d="m685 351l1 23h5l1-1l4 2h1l4 1l2 2l4 5v2l4 2l3 1h1l1 3l1-2l1 1l26-17l1-6l-1-18v-2l-2 1l-1-3l-3-1l1-3v-2h-7l-2 1l-2-1h-3l-1-2h-1l-1-1l-3-4l-5 1l-1 3l-3 1v2l-3 1l-4 4h-6l-1 2l-2 1h-2l-4 3z"/><path id="51057" d="m771 211l2 2l3 3l1 2l-1 2l3 1h2l2 3v4v3h2v2l3 1l1 3l-1 2l1 1l-2 2l2 2v2l2 2l3-1l1 2h3v6l5-2l4 3l3-3l2 1h3l1 1v2l4 3l1 4l3-5l3 1l2-3v-1l-1-1h-3h-1l-1-2l-2-4l-2-2l-2-4v-1l-2-4l-5-3l-5-5l-2-3l-3-1l1-3h2l-3-11l-1-1l-6-1v-3h-2l-1 2h-2l-2-3l-1-5l-1-2l-1 3l-1-3l-4 1l1 4l-1 1h-4v4z"/><path id="51059" d="m728 95l1 1h2v1l1 1v1l1 1v2h2h1h2v-1h1l1 4h1l2 1v3l3 1v4l2 1l1-1l5 1l-1 2l3-1l2 2l2 1l2 2l1 1l2 3v1h1l1 3v1h1l3-1l2-2h3v-1v-1h-1l1-2v-2l1-2l2-1v-1h1h1v-1h1l1-1l1 1h1l1-1l1-1v-1v-2v-1v-3v-1v-2l-4-2h-1l-1-1l-3 1h-2h-1v-2v-2l2-2l1-1l-1-1l-2-2l-1-2l-1 1l-4-1v-3h-1l3 1l1-1l1-2l1-1h1l2-2v-1l-1-1v-1l-1-1l-1-1l-2-1h-1h-1h-1h-1h-1h-2v-1l-1-1v1l-2-2v-1l-1-1l1-1v-1l1-1h-1v-1h-1l-1-1h-1l-2-2h-1l-1-1h-1h-1l-5 6l-1 1l-3 4l-4 5l-5 6l-2 4z"/><path id="51061" d="m660 90l-2 2l3 5l3 1l5 5l2 2l-1 3l1 1v4l3 2l4 3h3l3-1l4 8l-1 2l3 2l-2 2l1 1l-1 2l2 5l5 4l2 4l2 2v2l2 3l1 4l2 3l6-3l6 3l1-6l-1-3h1l5-5l3-4l4-4l-1-1l-5-10l-6-10l-5-11l-1-2l-4-7v-3h1l1-6l2-2l2-3l1-4l-37-11l-3 3l-2 2l-4 7l-4 4l2 3z"/><path id="51063" d="m365 381l-4 1l8 14l12 20v-5l2-1l4 1l2-1v-3l1-1v-4h3l2-2v-3h2l1-1l3-1v-2l5-1l2-1l4-4l1-3l2-5l4 1l1-2l-1-3l2-1l-1-2l2-1v-2l1-3l-2-2l2-3l-1-3l-1-4l-6 2v-1l-11 5l-2 1l-7 8h-5l-2 1l-1-1v3l-3-2l-3 1l-1 2l-2-1v2h-2l-1-3l-1 2l-3 2l-1 2z"/><path id="51065" d="m615 253l3 6l5 3l4 1h1l5 3l6 1l3 2h3l1-3l6-5h2l1-3l11-21l-14-7l-3-1l-2-2l-1-1l-6-2l-3-2l-1 1z"/><path id="51067" d="m412 387l-4 4l16 4l4 1l-1 3l4 4l3 2v-1l2-7l8 2l15 4l2-1l3 2l3-3l6-3h2l3-4l4-18l2-10v-2l-3-4v-1l-3-2l-1-3l-3-5l-1 1l-2-2v2l-2-6h-1h-3l-3-2v-4l-3 2l-2-1l-1 1l-2-1l-1 1l-3 1l-2 4l-3 3l-5 4l-4-2l-1-3l-9 1l-5 6l1 4l1 3l-2 3l2 2l-1 3v2l-2 1l1 2l-2 1l1 3l-1 2l-4-1l-2 5z"/><path id="51069" d="m609 62l-1 1l11 4l1-3v-1l2-2l1-3l4-2l1 1h4l1-1v2l2 2l-3 1v1l2 2l2 4v2l18-1l1-3l1-4l2-4l3-3l-1-2l2-4l1-2l1-3v-4l4-5l1-4l-5-5h-1l-3-2l-4-4l-2-1l-3-3l-2-2l-3-3l-4-3l-3-2l-7-6v1v1v1v1h-1l1 1v1l-1 1v1h-1v1h1l1 2h-1l1 1l-1 2l-1 2v1h2h1v1h-1v1l-2 3v1l-1 1v1l-2 1v1l-1 1l-1 1l-1 2l-1 1h1v1l2 1h-1v1v1l-2 2v1h-1v1l-1 1h1l1 1l-1 1l2 2h1v1l-1 1l-2 1l-1 2v1l-3 3h-1v1h-1l-2 1l-1 1v1h-1v1v1h-1v1h-1z"/><path id="51071" d="m320 329l-4 2l4 4l10 11l3-2l1 2l-3 1l3 3l7-4l12-5l3-2l8-3l4-2l6-2l5-2l1-1l5-4h-2l1-3l-4-13h-1l-2-1v-2v-2l-2-3h-1h-1l-1 1h-1h-1h-1v1l-3 1v1l-1 1l-2 1h-1v1h-1h-1v1h-1l-1 1l-1 1l-2 1l-1 1l-2 1h-1l-1 1h-1h-1l-1 1l-1 1h-1l-1-2l-1-1l-1-1h-1h-1v-1l-3-3h-1h-1h-1v-1l-1 1v1v1h1l-3 4l4 6l-2 1l-2 1l-2 2l-2 2h-1h-1v1h-2l-2 1h-1z"/><path id="51073" d="m827 306l-1 2l4 5l2 3l1 1l6 9l4 3l4 3l2 3l2 2l1-2l1-1l1 1h5l1-1l1-1h3l3-1h2l-1-1h-2l-1-1l-1-1v-2l-2-4l-3-3l-2-2l1-2h2l1-1v-2v-1l1 1v-2l-5-1l1-5l-1-5l1-4l-5-4h-2l-1-1h-2l-3-3l-1 2l-2-2v-1l-2-2h-3l-2-1l-2-2l-2 11l2 5v3l-2 4l-1-1l-1 2z"/><path id="51075" d="m655 258l-1 3l7 5l1 2l-2 3l4 3l2 2l2 1h3l4 2h3l2-3l-2-2l1-3l3-2l2 1l1 2l1 1l3 2l4 3l1 4l4-1h3l4 3l3 1l6 3l4-2l-2-4l-2-3v-2l3-10l-4-1l-6 1l-8-2l-2-1l-3-3l-1-1l-7-1l-1-1l-2-6l-4-6l-5-2l-1-1l-2-4l-5-2z"/><path id="51077" d="m241 430l-4 3h9l9 1l3 1h1l2-1l4 1h8h2h6h5l2 1h8h1h3h2h5h3l6 1h1h7h5l7 1l-9-14v3l-2 1l2-3l-4-1l1-4l1 1l-13-20l-3 2l-2 1v3h-6h-2l-4 1l-9-1l-4 2l-10 2l-7 3l-3 1l-9 2l1 1v2l-2 3h-1l-6 3v3z"/><path id="51079" d="m596 179l-2 2l9 4l26 10l9-13h1h-2l-5-1v-2h-2v-1v-3h-2l-3-3l-3-4l1-3l-2-2v-2l1-1l-1-5l-2-4l-1 4l-3 4v3l-3 1l-1 4l-2 1l-2 2v2l-4 2l-1 3l-4 1v1z"/><path id="51081" d="m701 440h2h53l-4-2h-3v-3v-4h-1l-1-4l-5-3h-5l-2-3h-3l9-5l-8-2l4-21h-2l-2 2h-2l-4-1l-2 1l-2-1l-2-3l-3-1l-1-1l-1 2l-1-3h-1v20v7z"/><path id="51083" d="m529 440h1h8h1h1h17h1h3h3h1h14h3h1h3v-2l2-4v-1l1-3v-4l1-5l3-2l3-1l1 1l2 3l3 2l2 2h2l2 2l-2-3h-1l-6-4l-2-3l-1-1l-2-1l-1-2l-2-3l3-4l-2-3v-2l2-2l-2-2v-1l2-1l-1-3h-1l-1-3l-4-4l-3-2v-1l3-1l-1-2l-1-8l-1-1l-1 2l1 1l-3 1v4h-2l-1-3l-2-1l-6-1l-3 2l-1-1l1-3l-1-3l-8-4l-4 3l-1-1l-6-2l-4-2l-7 40l-6 31z"/><path id="51085" d="m697 264l2 1l8 2l6-1l4 1l2-1l2 2l4 3l2-1l2-1l1-1h2h1l2 3l1-1l2 1v-1l4 7l2 2l-1 2l1 1l11 7l6 1l2 2l8-9l4 1v-4l2-1l-1-1l2-2l1-2l-3-1l-2-1v1l-5 1v-1l1-3l-1-1l-1 2l-2-1h-3v-2l1-2v-2l-2-1v4l-2-3l-2 2h-1v-4l-4 1l1-2l1 1l1-2h-4l1-3l-1-3l-1 1l-2-2l-2 3h-3v-1l1-2h-2l-1-2l1-2l-2-1v-4l1-1l-2-3l-1-1l-5 1l-1-2l-2-1l-2-2l-2 1v-2l-2-2l-2-3v1h-4l-4-4v-2h-2l-3-2l-7 21z"/><path id="51087" d="m714 288l1 1h3h1l2 1l8-1l-2-3l1-1v1v-1v1v-1v-1l2 2h1h2l1 1l2-1l-1-2v-1h1l1-1l1 1h2v2v1h3l-1 2l1 1v1h2v1v1h1v1v1l-1-1v1l1 1l-1 2l-2-2h-1v2v1v6v2l-1 2l1 2l1-1l1 1l2 5l2-1l1 2h4l1-1l2-3v2l-1 3v2l4 1l1-4l2-1v-1l3 2l1-2l-1-2l3-7l3-6l-7-7h-1l-2-2l-6-1l-11-7l-1-1l1-2l-2-2l-4-7v1l-2-1l-1 1l-2-3h-1h-2l-1 1l-2 1l-2 1l-4-3l-2-2l-2 1l-3 10v2l2 3l2 4z"/><path id="51089" d="m425 405v5l1 1l-1 2l1 3l1 4l2 3v4l1 3v10h3h4h3h5h2h2h21l3-15v-1l1-5l4-25l-3 4h-2l-6 3l-3 3l-3-2l-2 1l-15-4l-8-2l-2 7v1l-3-2h-4z"/><path id="51091" d="m458 177h1v1v1h1l1 1v2v1h-1l5 3l6 4l17 3l6 3l2-3l1-1v-2l2-1l3 1l1-2l3-2l1-2l-1-3l1-2h1v-3l5-7l3-4h2v-2l-2-1l1-1l-6-3l-13-4l-3-6l-2-6l-2-1v-1l-1-1l-1-1h-2l-10-5v3h-1v1v1l-1 2v1v1v1v1l1 1h-1v1h-1v1h-1v1h-1v1v1v1h-1l1 1v1l1 1v1l-1 1h1l-1 1l1 1l-2 2l-1 1v1h-1v2h-1v1v2v1v1h-1h-1h-1h-1l-1 1h1l-1 1v1l-1 1h-1l-1 1v1l-1 1z"/><path id="51093" d="m800 416v1h1h1v1v-1l-1 1h1h-1v1h-1l1 1v-1v1v1h1v3l2 1l4-4l6-5l8-7l6-6l13-13l6-5l1 1l3-1l2-2l-1-4l-1-1l-2-1l-1-1v-1l-3-2l-2-1l-1-3l-1-1l-3-1h-4h-1l-1-1l-1-2v-1v-2l1-3v-2l-1-4v-1l-2 3v5l-2 5l-3 1l-15 8l-1 6l3 5l2 2l-1 3l1 1l-4 4l-2 7v3l-2 1v2l-2 1v3l-2 1l1 2l-1 2z"/><path id="51095" d="m803 316l-1 4l3-3l1 1v8l1 2l-1 2v4l1-1l1 3h5l3 2l1 1l1 2v1l2 2h1h1v-1l1-1v-1l4-1l1-1h5l1 1l1 2l1 1l1 1v2l1 2l4-3l-2-4l-1-4h-4h-2l-1-2h-8l-1-2l-1-1l2-1l-2-4h2l-1-4l-2-1v-2l1-3l4 1h4l2-2l-2-3l-4-5l-3-3l-1-2l-2 1v2l-1 2l-3-1l-4-2l-4 1l-4 2v5z"/><path id="51097" d="m770 230l-1 6l1 3l1-1l1 2l2 1v2h2l-1 2l2 2v2l1 3l2-1l-1 4l3 1l1 1l-2 3l1 1l2-1l4 5h2l2 2h3v2l2 1l5-1l1 3l-1 2l1 1l3-1l3 4l-2 1l2 2l1-1l1 2h2l-1 1l2 2h2l-1 2l2 1l1 2l-1 3l-1 2v2l5 3l1 3l1 2l3 3l1-2h2l1-2l1 1l2-4v-3l-2-5l2-11l-4-2l-4-6l-4-8v-2l-1-4l-4-3v-2l-1-1h-3l-2-1l-3 3l-4-3l-5 2v-6h-3l-1-2l-3 1l-2-2v-2l-2-2l2-2l-1-1l1-2l-1-3l-3-1v-2h-2v-3l-4-1h-5l-2 1z"/><path id="51099" d="m751 177v6l2 3l2 1h2l1 2l1-4h3l3 1l-1 1l-2 1l1 3l-1 3l2 1v-2h2l3 4l3 1l2-1l2 1l2 2l4-1l1 3l1-3v-2l2-1v-3v-9l6-3l-4-4v-1l1-3l1-2v-5l-1-1l-3-3l-1 1l-2 3l-1 1h-2h-1h-4l-2 3l-1 1h-2h-2l-5 2h-3l-2-1v-1v-1l-5 1l-1 1l1 3z"/><path id="51101" d="m751 255l1-1l1 3l-1 3h4l-1 2l-1-1l-1 2l4-1v4h1l2-2l2 3v-4l2 1v2l-1 2v2h3l2 1l1-2l1 1l-1 3v1l5-1v-1l2 1l3 1l-1 2l-2 2l1 1l4 1l1 3l2-1l5 4v2h5l-1-3h2l2 2v2l-2 3h3v-3l3-1h2v3h1l2-1v-4h1l2 1l-1 4l-2 2l2 1h1l4-4l3 5l1-2l1-3l-1-2l-2-1l1-2h-2l-2-2l1-1h-2l-1-2l-1 1l-2-2l2-1l-3-4l-3 1l-1-1l1-2l-1-3l-5 1l-2-1v-2h-3l-2-2h-2l-4-5l-2 1l-1-1l2-3l-1-1l-3-1l1-4l-2 1l-1-3v-2l-2-2l1-2h-2v-2l-2-1l-1-2l-1 1l-3 1v-2l-4-2v2l-1 3l-4 5l-6 6z"/><path id="51103" d="m835 252l-1 2l3 2l2 1h1l1 1l1 1l2 5l2 3v1l1 2l-1 3h1l3 4l1-1l1-3h2l4 2l5 4l1-1l1 1l2 2l7-1l3 1v-1l-1-2l-1-1h-1l-3-1l-1-1l2-4l-3-2l-2-2l-1-1l1-2v-6l-2-2h-2l-3-4v-3h-1l-1 1l-3-1l-1-2h-4h-7l-2 4z"/><path id="51105" d="m0 431h1l3 1h2h8h10h12h11h2h1h1h26l5 1l4-13l8-5l4-1l3-2l-1-2l3-4l2-1l2-3l-3-3l-4-4h-2v-3l-3-4l-1 1h-1v1h-1h-1v1h-2l-2 1h-1l-1 1h-1h-1h-2l-1 1l-1 1h-2v-1h-2h-1h-1h-1h-1v1v1h-1v1h-1h-1v1v1v1v1l-1 1l-1 1v1h-1l-1 1l1 1v1h-1l1 1v1l-1 1l-1 1h-1h-1h-1h-1h-2h-1l-2 1l-2 1h-1l-1 1h-1h-1h-1l-1 1h-2h-1v1l-4 1h-1v1h-1l-3 1l-1 1l-2 1h-1v1h-1h-1h-1h-1h-1h-2h-1v-1h-1h-1h-1v1h-1h-1l-1 1l-1 1h-1h-1v1h-1h-1l-2 1h-1l-1 1l-1 1h-1h-1h-1v1l-1 1l-1 1h-1z"/><path id="51107" d="m686 63l-9 6l37 11h2l1 2h1l3 5l5 2l1 6h1l5-6l2-4l5-6l4-5l3-4l1-1l5-6l-1-1h-1h-1h-1h-1h-1h-1l-2-1h-2h-1h-1l-2-1h-1l-1-2v-1l-1-1v-1h-1l-1-1h-1l-2-1l-1-1v-2v-1l1-2v-2l1-1h1l2-1l1-1v-2v-1h1l1-1v-1v-1h-1l-1-2h-1v-1h-1h-2l-1-1l-2-1h-1v-1l-1-1l-1-1v-2v-1h-1v-1l-1 1h-1h-1h-1h-1l-3-1h-2l-1-1l-1-1h-1h-1l-1 1l-1-1h-1h-1v1h-1l-1 1l-1 2v1l-1 1v1v1l-1 1v1h-1v1h1l-1 2l-1 1v1l-1 1l-1 1v1v1v1l-1 2v1v1h-1v2h-1v1v1l-1 1l-1 2h-1l-1 3v1l-1 2l-3 3z"/><path id="51109" d="m637 222l3 2l6 2l1 1l2 2l3 1l14 7l5 2l2 4l1 1l5 2l4 6l2 6l1 1l7 1l1 1l3 3l6-21l7-21l-3-1l-3-3l-1 1v-4h-2l-2-2l-1-2l-4-2l-2-2l-1 1l-8-3h-4h-4l-2-3l-3-1v1h-3l-6-2l-2 2l-3-1l-3 2h-5l-5 10z"/><path id="51111" d="m615 388l1 2l4 2l2-1l1 3l3-1h4l2 3l1-2l2 1l5 4l4 1v1l9 1l6 2l1-2l3 1l4 2v-1l3 1v-9l3-27l-4 1l-5 1l-1-1l-10-6v-3h-3l-4-3l-1-4l-5 3l-4 1l-6-1l-2 2l-8 2z"/><path id="51113" d="m621 144l-2 7l2 4l1 5l-1 1v2l2 2l-1 3l3 4l3 3h2v3v1h2v2l5 1h2l2 1v2l2 3h2h2v-2h3l2-1l-1-2h4l-1-1l2-2h2l4-3v-1h-1l1-4l-2-1l-1-4l3-2l-1-3l-2-2v-3l-3-2l-10-13l-13-14l-3 2l-3 5l1 3l-4 2l-1 2l-2 1z"/><path id="51115" d="m857 300l1 5l-1 5l5 1v2h2h-1l1 1v1l3 2l3 1l3 4l1 1l2 1l1 1v1l1-2v-2l1-3l1-1l1-1v-2v-3l-1-2v-4l-1-5l-2-4l-1-1l-1-1v1v1l-1 1l-3 1l-3-2v-1l-1-1l1-1l-6-1l-1 3h-3z"/><path id="51117" d="m586 438v2h8h1h6h9h3h4h2h2h14h9h13h11l2-35l-3-1v1l-4-2l-3-1l-1 2l-6-2l-9-1v-1l-4-1l-5-4l-2-1l-1 2l-2-3h-4l-3 1l-1-3l-2 1l-4-2l-1-2l-19 29l1 1l2 3l6 4h1l2 3l-2-2h-2l-2-2l-3-2l-2-3l-1-1l-3 1l-3 2l-1 5v4l-1 3v1z"/><path id="51119" d="m821 264v2l4 8l4 6l4 2l2 2l2 1h3l2 2v1l2 2l1-2l3 3h2l1 1h2l5 4h3l1-3l6 1l1-2h1h1l3-2l1-1l-4-2h-3h-3l-4-1l-1-3l-1-2h-11h-1l-1-1l-4-4l-1-2v-2l-2-5l1-1l-1-1l-1-1l-1-1l-1-1h1v-1l-3-1h-3h-1l-1-1v-1v-1l-2 3l-3-1z"/><path id="51121" d="m374 353zm-10-17l-1 5l3 4l3-2l4-1l2 1l-1 1h-4l-1 2l1 2l3 1v3l2-2l1 2l-3 3h-3v2l-3 2l4 6h-2l2 10l3-2l1-2l1 3h2v-2l2 1l1-2l3-1l3 2v-3l1 1l2-1h5l7-8l2-1l11-5v-2l-2-15l-1-3l-4-5l-3-4v-4l-8-5l-3 3l-9 5l-5 4l-1 1l-5 2l-6 2z"/><path id="51125" d="m537 245l-3 7l4-1l2 2l1 2h3l2 1l1 5l-1 4l5 3l2-1l1 1l2 1v2l3 3l8 17l3 1h5v-2l2-2l-2-2v-2l2-1l-2-5l3-1h2l5 1l3-1v-3l1-2l2-1v-2l2-1l1 3h2l1-1l-2-3l2-4l-3 1l-2-2v-3h2l-2-2v-1l-8-18l-6-13l-4-9l-2 1l-1 1l-2 1l-2 5l-1 1l-1 1h2l-2 5l-4 1l-2 3l-2 2l-3 4l-2-2h-3l-1-3l-1-1l-7 3l-3 2l-1-1z"/><path id="51127" d="m763 292h1l7 7v2l6 1v2l3 3h3l5 1l1 2l4 1l2-1v2h2l1-1l1 2l-1 2l2-2h1l2-1l-2 3l2 1l1-3v-5l4-2l4-1l4 2l3 1l1-2v-2l2-1l-1-3l-5-3v-2l-3-5l-4 4h-1l-2-1l2-2l1-4l-2-1h-1v4l-2 1h-1v-3h-2l-3 1v3h-3l2-3v-2l-2-2h-2l1 3h-5v-2l-5-4l-2 1l-1-3l-4-1l-2 1v4l-4-1z"/><path id="51131" d="m907 332v2l2 3v1v2v2v1l1 1l3 5l1 4v2l-1 2v2l1 1h1l2-1v-2h-1l-1-2l2-1l2-1l2 1l-1 2l1-1h1l2-1l1-2l2-3l3-2v-2l2-1v-2v-1l1-1l1-1v-2v-1v-5v-3h1h1l2-1l3-5l2-2v-1v-2l3-5l2-3l2-2l1-2l-1-2h-1l-1 2h-4l-2-1l-4-1l-1 2l-2-2h-1l-2-1l3-2v-3l-2-1l2-2l-5-4h-6l-2-1l-3 1h-1l-1 3l-1 2l-1 3v3l-1 1l1 1l-2 3l-1 2v2l1 2l-1 5l-2 3l-2 3v2l-1 4l1 2z"/><path id="51133" d="m837 223l-2 5l4 3l5 2l2 8l-1 2l5 3v1h4l1 2l3 1l1-1h1v3l3 4h2l2 2v6l-1 2l1 1l2 2l3 2l1-1h1l1-1l-1-2l-1-2l1-2l-1-3l1-5l-1-1l1-3l1-1h1h1v1h1l1-1l1-2l1-4l1-4l-3-4l-10-5l-2-1l-3-1l-3-1l-2-2l-4-3v-2l-3-1l-3-1v-1l-7 1l-2 3z"/><path id="51135" d="m645 343v11l1 4l4 3h3v3l10 6l1 1l5-1l4-1l4 5l6 1l3-1l-1-23l3-1l4-3h2l2-1l1-2l-3-2l-48-14z"/><path id="51137" d="m629 195l3 1l11 5l5 2h5l3-2l3 1l2-2l6 2h3v-1l3 1l2 3h4l19-22v-1l5-5l4-5l1-4l-8-4l-1 1v3l-3-2l-3-1l-1 1l-2-1l-3 1l-1-2l-2 1l-1 2l-3 1l-2 1h-2v2l-2-1l-4 3l-1 3l-2-1l-2 1h-3v1l-4 3h-2l-2 2l1 1h-4l1 2l-2 1h-3v2h-2h-2l-2-3v-2l-2-1h-1z"/><path id="51139" d="m591 146h1l1 1l5 1l1 4l8 3l1 4h7l3-4l1-4l2-7v-1l2-1l1-2l4-2l-1-3l3-5l3-2l3-4v-4l-2-3l1-6h2l2-3v-3l-4-2l-2-2l-7-3l-3 4l-6 7l-3 2l-1 2l-5-2v1l-5 7l-4 10l-2 2l-1 1l-2 4l-1 6z"/><path id="51141" d="m362 429v4h1v5h12l9 1h1l16 1h8h6h1h5h9v-10l-1-3v-4l-2-3l-1-4l-1-3l1-2l-1-1v-5l2-2h4l-4-4l1-3l-4-1l-16-4l-2 1l-5 1v2l-3 1l-1 1h-2v3l-2 2h-3v4l-1 1v3l-2 1l-4-1l-2 1v5l1 1l-1 4l-3 1v2l-2-1l-2 2h-3l-1-1l-3-2l-2 1l-1 1v2z"/><path id="51143" d="m473 425l-3 15h5h19h5l-1-3l2-2l-4-1l-3-3l2-2l6 1l3 1h1l2-6l2 1h2v4l4 1l2 3h1v2h-3l-2 3l1 1h11h4l1-6l6-31l7-40l-1-1l-3-3l-2 2l-4 1l-1 2l-2-3l1-3l-2-3l-1 1v1h-2l-1-3l-1-1l-2 3l-3 1l-4-3l-1-2v2l-5 1l2 1l-3 3h-2v4l-4 1l-4-1l-2 1l1 2v1l3 2l-2 2l-4-3l-3-2l-1-1l-2 2l-4-1l-2 10l-4 18l-4 25l-1 5z"/><path id="51145" d="m657 305l1 1h3l1-2l3 1l2-3h4v-3l2-1l2 2h3l3 2l1-1l3 1v2l1 1l3-1v3l1 3l6-1l1-5l4-4l10-9l3-2v-1l-6-3l-3-1l-4-3h-3l-4 1l-1-4l-4-3l-3-2l-1-1l-1-2l-2-1l-3 2l-1 3l2 2l-2 3h-3l-4-2h-3l-2-1l-2-2l-2 3l1 2z"/><path id="51147" d="m592 335l-1 7l1 1h5l1 4l1 2l3 1l2 1h1l3-1l1 1l3 2l1 2v1l3 4h3l1 1l8-2l2-2l6 1l4-1l5-3v-11l1-15l-1-10l-3 1v2h-2l-2 3l-2 1l-1 1l-3-1l-1 2l-1-1l-4 1l-2-3h-3l-3-2h-3v1h-3l-3-3h-1l-3-3l-1 1v-2h-1l1-2l-1-1v8l-4 3l-6 8z"/><path id="51149" d="m744 347v2l1 18l-1 6l24-14l1-1l4-2l8-9l2-2l3-1v-2h3l1-1l-1-1l1-2h1l4-3l-2-4l-1-3l-2-1l-2 2l-5 3h-1l-1-6h-1l-3 1l-8-1l-4-1l-3 1l-3-1h-1v1l1-1l1 1l2 3l-3 2h-1l-2 1l-1 1h-2l-1 1l1-6l-1-2h-2l-1 4l-2 3v3l2 1l1 3l2 3l-1 3l-2 1l-2-1z"/><path id="51153" d="m735 108v1zm-28-13v3l4 7l1 2l5 11l6 10l5 10l1 1l5-6l3 2h1l3 3h1l3 2l2 4l5 1l3 2h1v-1l1-1l1-1v-1l1-2v-1l2-3l-1-2l2-1l1-5l-1-1v-1l1-1h2v-1l-2-3l-1-1l-2-2l-2-1l-2-2l-3 1l1-2l-5-1l-1 1l-2-1v-4l-3-1v-3l-2-1h-1l-1-4h-1v1h-2h-1h-2v-2l-1-1v-1l-1-1v-1h-2l-1-1h-1l-1-6l-5-2l-3-5h-1l-1-2h-2l-1 4l-2 3l-2 2l-1 6z"/><path id="51155" d="m325 355l3 6l2 7l4 4l8 10l6 8l7-2l1-2l5-4l4-1l5-4l1-2l-2-10h2l-4-6l-1-2l-1-1l1-3l4-2l3 1v-3l-3-1l-1-2l1-2h4l1-1l-2-1l-4 1l-3 2l-3-4l1-5l-8 3l-3 2l-12 5l-7 4l-5 4z"/><path id="51157" d="m636 124l-3 4l13 14h2l4 2l10-11l13-11l6-4h-3l-4-3l-3-2v-4l-1-1l1-3l-2-2l-5-5l-3-1l-3-5l-3 2l-2 4l-2 5l-2 2l-6 3h-4l-2 3h-2l-1 6l2 3z"/><path id="51159" d="m799 211l1 1l3 11l4 2l2 2l1 4l1 2h2l2 1l4 4v3l3 1l1 1v2l1 2h1l2 3h1l2-1l2 3l1 1l1 1l1-2l6-1l2-4h7v-1l-5-3l1-2l-2-8l-5-2l-4-3h-2l-1-2l-5-1l-3-2l-3 1l-2-1l1-5l-4-4l-3-1l-5-6l-2-3z"/><path id="51161" d="m405 322v4l3 4l4 5l1 3l2 15v2v1l6-2l5-6l9-1l1 3l4 2l5-4l3-3l2-4l3-1l1-1v-3l-1-3l2-5l-1-2l-2-3l-3-1l-5-3l-2-1l-14-6l-1-3l-9 6l-6 1l-5 4z"/><path id="51163" d="m473 263l1 5l1 1v3l-2 2l13 10v2l9 7l3-2l5-4l-1-1l-2-4l3-2l2-1h2l2-3h2l2-2l1-3l2-2l2-6l5-9h1l3-3l4 4l3-3l3-7l-1-6l-3-3l-32-23l-4-3l-3 5l-2 2l2 1l-3 4l-6 8l-3 3l-4 9h2l3 2l-3 4l-2 3l-4 7z"/><path id="51165" d="m528 150v1l18 13l11 7l8 6h2l9 8l8 7l1-2l2-2l1-1h1l6-3l-1-3l2-2h2v-1l4-1l1-3l4-2v-2l2-2l2-1l1-4l3-1v-3h-7l-1-4l-8-3l-1-4l-5-1l-1-1h-1l2-4l1-6l2-4l1-1l-18-16l-9-8l-15-13v1h-1l1 1h-1v1v1h-1v1h-1v1v1v1l-1 1h-1h-1l-1 1v1v1v1v1h-1v1l-1 1v1h-1v1v1h-1v1v1l-1 2l1 1v1v2v1l-1 1l-1 1l-1-1h-1l-1 1v1l-1 1v1l-1 1l-1 1v2v1v1l-1 2h-1v1v1h-1v1v2h-1l-1 1v1v1l-1 1l-1 2l1 1v1h-1v1h-1v1z"/><path id="51167" d="m152 389l-2 2l6 14l3 10l3-2l13-7l11-4l-1-3l1-2l4-3l11-4l1 2h3l7-3l6-6l2-3l5-2l-3-8l-1-3l-2-3l-7-8l-2-5l-1 2l-3 1l-3-1l-2 1l-1-1l-2 2l-2 5l1 2l-2 1l-1 2h-1l-3 2l-3-2l-2 1h-4h-2l-2 2h-2l-6 5l-1 1l-3-1l-5 4l3 9l-9 3z"/><path id="51169" d="m86 420l-4 13h11h7h16h2l8-1h6h1h8h1h1h20h1l-2-3l-3-14l-3-10l-6-14l1-2l-16 1h-10h-2l-1 2l-1 3l-3 2l-2 3l-6-3l-3 5l-2 3l-2 1l-3 4l1 2l-3 2l-4 1z"/><path id="51171" d="m570 107l9 8l18 16l2-2l4-10l5-7v-1l5 2l1-2l3-2l6-7l3-4l7-9l4-9v-1h-4v-4v-1l2 1l-1-3l2-2v-2l-2-4l-2-2v-1l3-1l-2-2v-2l-1 1h-4l-1-1l-4 2l-1 3l-2 2v1l-1 3l-11-4l-1 1v1l-2 1l1 1l1 1l1 1h-1v1h-1l-1 1l-1 2v1l-1 1v1h-1v1l-1-1v-1h-1h-1v-1h-1v1l-1 1h-1v1l-1 1v1l-1 1v1h-1l-1 2h-1l-1 1h-1v1l-1 1v-1v-1v-1v-2l-1 1h-2l-1 2v1v1h-1v1l-2 1l-1 1l-1 1l-2 3v1l-1 1v2l-1 2l-1 1l-2 3l-1 3z"/><path id="51173" d="m220 380l-2 3l11 14l5 7l10 23l1-1l6-3h1l2-3v-2l-1-1l9-2l3-1l7-3l10-2l4-2l-1-4l-7-16l-6-8l-7-8l-5 3l1-1v-3h-2l-2 2l-8 2l-8 6l-5 2l-3-6l-2 1l-6 1z"/><path id="51175" d="m732 421h3l2 3h5l5 3l1 4h1v4v3h3l4 2h11h2l2-1l1 1h1h4h3h22h-1v-1h1l-2-1l2-3v-6l2-1v-3l-2-1l-5-2h-1l2-2l-3-1v-3h4h2l1-2l-1-2l2-1v-3l2-1v-2l2-1v-3l2-7l4-4l-1-1l1-3l-2-2l-3-5l1-6l-2 1l-10 7l-14 8l-6 4l-15 10l-11 6l-10 7z"/><path id="51177" d="m679 205h4l8 3l1-1l2 2l4 2l1 2l2 2h2v4l1-1l3 3l3 1l3 2h2l2-2l9-10l4-5l9-11l5-5l4-5h-3l-3-2l-3-4l-2 2v-1l-2 1h-2l-2-1l-1-3l1-1l-2-1l-2-2l-5-3l-2 2v-3l-2-3l-2 2l-1-3l-4 3l-3-1l-1 4l-4 5l-5 5v1z"/><path id="51179" d="m716 161l1 3l1 1v2l2 3v3l2-2l5 3l2 2v-1l3-1l3 1h1l3 5l3 4l3 2h3l3-1l2 1l-2-3v-6l2-2l-1-3l1-1l5-1h-1v-1l-1-2l-2-2v-1h1v-1l-1-3l-1-5v-3l2-4l1-1h-1l-3-2l-5-1l-2-4l-3-2h-1l-3-3h-1l-3-2l-5 6l-4 4l-3 4l-5 5h-1l1 3z"/><path id="51181" d="m773 356l3 2l2-1l1 3h3l1 2h4l5 3l4-1l-1 3l1 5v4l1 5l10-7l2-1l15-8l3-1l2-5v-5l2-3v-2v-1v-1v-1v-1l-2-2h-1v2v1l-3 4l-1 1h-1l-1-1l-2-2l-4-4l-1-1l-4-1l-3-1l-3 2l-3-1l-2-2l-2-2l-3-2v-1l-4 3h-1l-1 2l1 1l-1 1h-3v2l-3 1l-2 2z"/><path id="51183" d="m718 390l3 1l2 3l2 1l2-1l4 1h2l2-2h2l-4 21l8 2l10-7l11-6l15-10l6-4l14-8l-1-5v-4l-1-5l1-3l-4 1l-5-3h-4l-1-2h-3l-1-3l-2 1l-3-2l-4 2l-1 1l-24 14z"/><path id="51185" d="m210 351l2 5l7 8l2 3l1 3l3 8l6-1l2-1l3 6l5-2l8-6l8-2l2-2h2v3l-1 1l5-3l-3-4l3-1l5-2h5l4-2l6-3l1-4l-1-2l-7-1v-2l2-1l6-2l-3-7l5-1l3-2l-6-5l-6-4l-5-6v1h-1h1v1h-1v1h-1h-1l-1 1v1l-1 1v2l-1 1v1h-1h-1h-2l-1 1l-1 1h-1l-1 1h-1h-1v-1v1h-1v1v1v1l-1 1h-1h-1l-1 1l-1 1l-1 1v-1v1h-14h-1v-1h-1l-1-1l-2-2v-1h-1h-1l-3 5l-7 4h-4l-2 3z"/><path id="51187" d="m626 98l7 3l2 2l4 2v3h4l6-3l2-2l2-5l2-4l3-2l2-2l6-2l-2-3l4-4l4-7l-4-4l-2-2l-4 1l-7-3l-1 3l-18 1l-2 2l1 3l-2-1v1v4h4v1l-4 9z"/><path id="51191" d="m162 413l-3 2l3 14l2 3h6l7-4h3l5-2l-2-5h-1l1-1l2 2l-1 1l2 1v3l-5 5h15h10l2-3h11l11 1h11l4-1v-3l-1 1l-10-23l-5-7l-11-14l-6 6l-7 3h-3l-1-2l-11 4l-4 3l-1 2l1 3l-11 4z"/><path id="51193" d="m784 197v2l1 2l1 5l2 3h2l1-2h2v3l6 1l7-7l2 3l5 6l3 1l4 4l-1 5l2 1l3-1l3 2l5 1l1 2h2l2-5l3-1l2-3l7-1l-1-2l-1-4l-1-1l-5-2l-2-3v-3l-2-3h-1h-2v1h-3l-2-2h-2v1l-2 2l-2-1l-1-1v-1l-1-1h-1h-1l-2-1l-2 1h-3h-1l-5-1l-4-4h-1l-2-1l-3-1l-1-2l1-1l1-1v-1l-1-2l-2-2h-1l-1-1l-6 3v9v3z"/><path id="51195" d="m94 388h1l3 4v3h2l4 4l3 3l3-5l6 3l2-3l3-2l1-3l1-2h2h10l16-1l-1 2l2-2h2l9-3l-3-9l-4 2l-1-1l-1-3l-4-1l-7-5h-1l-2-6l-5-9h-1l-1-12l-1 1l-2 1l-1 1h-1v1l-1 1h-2v1l-1 1l-3 1v1h-1h-1v1h-1h-1l-1 1l-1 1h-1h-1v1v1v1v1v1v1h1v1h-1h-1l1 1v1v1v1v1h-1h-1h-1v2v1l-1-1l-1 1l-1 1h-1v1h-1v1l-1-1l-2 1v-1h-1v1v-1h-1v1v1v1h-1l-1 1h-1v1l-1-1v1l-1 1l1 1v1h1v1v1h-1l1 1v1l-1 1v1h-1v1v1v1z"/><path id="51197" d="m274 377l-2 2l6 8l7 16l1 4l9 1l4-1h2h6v-3l2-1l3-2l2-1h1l20-5l4-1l3-1l6-3l-6-8l-8-10l-4-4l-2-7l-8 3l-7 1l-8 4h-1l-2-2l-4 2h-2l-1-2l-4-2l-8 5l-3 3l-3 3l-2 2z"/><path id="51199" d="m821 320v2l2 1l1 4l2 4l3-2v3l3 3l1 2h2h4l1 4h2l1-1l1 1l4 5h1l1 3l4 6l2 2l1 1h2l1 1h2l1-1l-1-1l1-1v-1l-1-1l-1-5l2-1l1-2v-2l-1-2v-1l1-2h-1l-9 1l-2-1l-2-1l1-1l-2-2l-2-3l-4-3l-4-3l-6-9l-1-1l-2 2h-4l-4-1z"/><path id="51510" d="m775 98v2v2h1h2l3-1l1 1h1l4 2v-1v-1v-2v-1v-2h-1v-1h-1l-1-1h-3v3l-1-2l-1-1h-1l-1 1z"/><path id="51520" d="m170 432h2h2h2h1h1h3l5-5v-3l-2-1l1-1l-2-2l-1 1h1l2 5l-5 2h-3z"/><path id="51530" d="m509 262l2 2l-2 3l2 1l2-3l3-4l-1-2z"/><path id="51540" d="m611 219v1v1l4-1l2 1l2-1l1-6l-2 2v-3l-3-1l-2 2l-1 1l1 1h-1v1h1v-1v1l1 1h-1l-1 1l-1-1z"/><path id="51550" d="m853 427l-1 12h3h11h7h23v-14v-3l6-2v-1l-2-4l-2-1l-5-6l-5-1h-1l-1-1l-1-3l-2-6v-1l-2 1l-1 2l-2-1l-2 1v3l-9 2h-1l-2-2l-1-1l-1-1l3-4l-1-2l-1-1v-1h-3l-2 3v1l-2 3v1l-1 6v4z"/><path id="51570" d="m740 331l1 1l1 1v5l2-1l2-1l1-3l2-3l-1-2l-3 2l-1 2l-1-2z"/><path id="51580" d="m436 256l-1 3l2 2l3-2l-2-3l2-3l-3-2z"/><path id="51590" d="m495 429l-2 2l3 3l4 1l-2 2l1 3h3h12l-1-1l2-3h3v-2h-1l-2-3l-4-1v-4h-2l-2-1l-2 6h-1l-3-1l-6-1z"/><path id="51595" d="m727 415l-1 6h3l2-2v-5z"/><path id="51600" d="m752 93v1l2 3l2-1h4v-4h-3v-1l-4 1z"/><path id="51610" d="m768 87h1v3l4 1l1-1l-3-2z"/><path id="51620" d="m795 416v3l3 1l-2 2h1l5 2v-3h-1v-1v-1v1l-1-1h1v-1h1h-1l1-1v1v-1h-1h-1v-1h1h-2z"/><path id="51630" d="m729 176l2 1l-1 1l1 3l2 1h2l2-1v1l2-2l-3-5h-1l-3-1l-3 1z"/><path id="51640" d="m324 420l-1 4l4 1l-2 3l2-1v-3l2-2l3-4h-5l-2 3z"/><path id="51650" d="m857 361v2v1v1v1v1l1 2v1l2-1l3 5h1l1-1h1l2-1l1-1l1-1h1h1l1 1v1h1l1-1v-4l1-1l1-3l1-3v-2l-2-3l-2 2h-1l-4 1v-2h-4h-2l-1 1l1 1l-1 1h-2l-1-1l-1 2z"/><path id="51660" d="m564 157l2 2l-1 5h2l1-3l6-1l1-1l-1-5l-4-4v-1l-2 5h-2z"/><path id="51670" d="m752 326l1 2l-1 6l1-1h2l1-1l2-1h1l3-2l-2-3l-1-1l-1 1h-1z"/><path id="51678" d="m500 255v3l2-1l3-2l-2-1z"/><path id="51680" d="m523 306v2l2 2l-1 2l3 2l-3 5l5 4l2-2h2l5-4h1h1l4-3l-3-2l-1 1l-3-4l-2-3l-3-2v-1h-2l-5 3z"/><path id="51683" d="m729 112v1l3 3v-2h-1v-2v-1h1l1 2h3l2-1v-1v-1v-2l-1-2l-2-1l-2 1z"/><path id="51685" d="m735 104v1l2 1l4 3l-1-4l-1-1v2l-3-2z"/><path id="51690" d="m447 419l3 2l2 3l3 1v-2l1 2v-2l-2-2l1-3v-2l-3-1h-2z"/><path id="51700" d="m836 351v2l1 2l4 3l2 2v1h1l3-1l1 1v1v1l1 1l6 4l1 2l1 1v1v1v1l2 3l1 1h1l1-1l1-2l1-1h-1l-3-5l-2 1v-1l-1-2v-1v-1v-1v-1v-2l1-1l1-2h-2l-1-1l-2-2l-4-6l-1-3h-1l-4-5l-1-1l-1 1h-2l2 4l-4 3v1l-1 2z"/><path id="51710" d="m871 390l-1 1l3 2l2 2v1v1l1 2l2-1l2 1l1-2l2-1l2 1l2 1l2-4l-2-2v-1l2-5h-1v-1h-1l1-1v-1l-3-1l-1-1l-2-1l-3-2h-1l-2-1h-1l-2 2l-1-1h-1v3v4l1 2h1v1l-1 1h-1z"/><path id="51720" d="m120 384l2 1v2l1-1h3l-1-3l1-1h3v-2l-1-1h-4z"/><path id="51730" d="m739 341l-1 3l3 1l1 3l2-1l3-1l2 1l2-1l1-3l-2-3l-1-3l-2-1l-1 1h-2l-2 1l-2 1h-1z"/><path id="51735" d="m861 349l1 5l1 1v1h2h4v2l4-1h1l2-2v-1l-3-2l-1-1h-1l-1-1l-1-1v-1v-1h-1l-2 1l-1 1h-2v-1z"/><path id="51740" d="m861 391l-1 1h3v1l1 1l1 2l-3 4l1 1l1 1l2 2h1l9-2v-3l-1-2v-1v-1l-2-2l-3-2l1-1v-1l-2-1l-1-4h-4v3l-2 1v2z"/><path id="51750" d="m366 353l-1 3l1 1l1 2l3-2v-2h3l3-3l-1-2l-2 2l-3-1z"/><path id="51760" d="m721 290v3l5-2l1 3l2-1v2v1l1 2l1 5h1l2 1l3-1l1 1h2l2 2v-2v-6v-1v-2h1l2 2l1-2l-1-1v-1l1 1v-1v-1h-1v-1v-1h-2v-1l-1-1l1-2h-3v-1v-2h-2l-1-1l-1 1h-1v1l1 2l-2 1l-1-1h-2h-1l-2-2v1v1v-1v1v-1l-1 1l2 3z"/><path id="51770" d="m432 333l-1 2l1 1l3-1v1l1-1l2 3h1l2 3l2-2h2v-3l3-2l-1-1l-1-2l4-1l-1-4l-2-1v-1l-1 1h-1l1-2l-1 1h-1v1h-1l-1-1l-1 1l-2-3l-2 2l-3 2h-1v4l1 2v1z"/><path id="51775" d="m422 330h3l1 3l1 1l3 1l2-2h2v-1l-1-2v-4l-1-2l-5 2l-1 2z"/><path id="51790" d="m541 200l1 2l2 2h1l1-1l3 1l2-1l1-2l1-3l-1-2l1-1l-1-2h-2l-1 1l-2 1h-4l-1 1z"/><path id="51800" d="m800 438l2 1h12h4h3h2h19h2h2h6l1-12l2-17v-4l1-6v-1l2-3v-1l2-3l1-1l1-1v-2l-2-1h-1l-1-1l-1 1l-1 1v1v1h-2l-1-2v-1v-2v-2l-2 2l-3 1l-1-1l-6 5l-13 13l-6 6l-8 7l-6 5l-4 4v3l-2 1v6z"/><path id="51810" d="m883 396v1l2 6l1 3l1 1h1l5 1l5 6l2 1l2 4v1l-6 2v3v14h10h1h8h1h3h2h1h1h1h2l-1-5l-2-7l-4-9l-3-10l-2-8l-1-4v-1l-2-9v-2l-2-1l-3-1l-1 1l-2 2l-3 1h-1l-4-2h-1l-3-1h-2h-1v1l-1 1h1v1h1l-2 5v1l2 2l-2 4l-2-1z"/><path id="51820" d="m560 212l1 2v1h2l1 3l2-2l1 1h3v-4l2-1l-2-2v-2l-1 1l-3-1l-3 1l-1 2z"/><path id="51830" d="m822 332l1 1l1 2h8l-3-3v-3l-3 2l-2-4h-2l2 4z"/><path id="51840" d="m651 45l-1 5l1 1l1-1l3-6l2-1l-2-2l-4-1z"/></svg>
