<?xml version="1.0" encoding="UTF-8"?>
<!DOCTYPE svg PUBLIC '-//W3C//DTD SVG 1.1//EN' 'http://www.w3.org/Graphics/SVG/1.1/DTD/svg11.dtd'>
<svg viewBox="0 0 1000 1294.79" xmlns="http://www.w3.org/2000/svg">
  <g data-id="001">
    <path d="m0.494 915.752l0.079 24.276l0.134 35.605l-0.144 3.745l0.047 25.693l158.383 0.013l155.115 0.328l1.044 -0.365l5.833 -0.29l4.342 -5.284l-0.365 -2.569l5.832 -6.357l6.01 -2.32l1.55 -2.43l-4.527 -4.998l0.539 -2.53l5.277 -6.982l0.418 -5.871l1.946 -1.769l0.693 -5.335l-1.617 -3.673l-3.821 -2.429l-3.533 -5.872l-2.243 -0.204l-2.435 -3.58l0.152 -5.307l-2.796 -0.995l-1.693 3.237l-3.701 0.293l-1.782 -6.006l-5.231 -4.793l-2.824 -0.911l-1.549 -3.5l-3.667 -3.706l1.867 -2.16l-1.662 -5.618l-0.807 -2.787l1.035 -1.142l0.39 -11.997l-17.575 0.029l-88.536 0.033l-28.589 -0.088l-171.522 -0.007l0.058 6.433l0.006 1.015l-0.13 11.178z" />
  </g>
  <g data-id="003">
    <path d="m2.077 210.982l0.082 55.871l167.69 -0.001l80.277 -0.002l61.024 -20.355l30.667 -41.53l20.301 -27.335l40.628 0.001l1.228 -0.023l1.001 -1.719l11.975 -5.95l-2.406 -3.431l1.557 -4.453l-0.97 -6.638l2.037 -2l8.84 4.035l6.466 -3.706l0.774 -3.942l-6.988 -5.108l0.68 -2.491l6.978 -1.256l0.977 -3.008l-2.25 -2.783l-4.064 -0.155l-1.721 -9.284l-6.486 -5.71l-6.974 5.042l-3.105 -6.253l0.499 -2.281l-2.442 -7.036l0.072 -10.511l-1.45 -1.04l-0.983 -7.137l-6.722 -9.989l1.811 -2.813l0.111 -7.499l4.055 -10.782l2.651 -4.239l-4.361 -4.125l-1.07 -4.641l-1.495 -2.728l-1.733 -7.377l-6.677 -10.238l-7.269 -6.666l-3.351 -9.693l-2.425 -1.68l-2.763 -7.014l-1.722 0.035l-3.915 -1.235l-9.204 -0.013l-5.154 0.061l-24.189 -0.036l-12.849 0.009l-39.396 0.21l-12.242 -0.001l-15.796 0.169l-8.887 0.101l-9.484 0.103l-5.78 0.035l-13.893 0.142l-4.155 0.01l-49.706 0.542l-18.139 0.391l-3.499 0.238l-7.759 -0.105l-1.144 0.024l-5.853 0.097l-12.966 0.133l-53.469 1.033l-6.295 0.095l-5.204 0.168l-14.186 0.113l-20.081 -1.246l-9.541 -0.274l0.414 29.211l-0.291 9.175l0.241 25.907l-0.013 34.43l-0.094 2.547l-0.101 30.785l0.142 2.193l-0.232 72.23l-0.231 2.396z" />
  </g>
  <g data-id="005">
    <path d="m376.904 1.305l2.61 7.017l2.425 1.68l3.351 9.693l7.269 6.666l6.677 10.238l1.733 7.377l1.193 2.704l1.372 4.665l4.361 4.125l-2.651 4.239l-4.055 10.782l-0.111 7.499l-1.811 2.813l6.722 9.989l0.983 7.137l1.45 1.04l-0.072 10.511l2.442 7.036l-0.499 2.281l3.105 6.253l6.974 -5.042l6.486 5.71l1.721 9.284l4.064 0.155l2.25 2.783l-0.977 3.008l-6.978 1.256l-0.68 2.491l6.988 5.108l-0.774 3.942l3.379 7.417l10.854 2.801l3.329 -1.157l7.349 6.248l6.8 -1.86l-0.075 -2.456l4.064 -5.264l-2.95 -5.999l4.951 2.745l5.968 -3.128l2.78 5.597l6.805 -3.872l6.92 1.046l1.672 -2.756l4.276 1.423l2.124 4.806l6.497 -4.719l2.012 -11.006l2.172 -0.515l2.976 -7.597l-0.619 -2.403l4.33 -4.529l-0.117 -3.007l2.793 0.226l-0.447 -3.458l2.412 -2.478l1.038 -6.614l-0.387 -10.609l3.826 -2.467l-1.188 -3.156l2.901 -5.24l-4.753 -4.772l1.123 -12.788l-4.352 -3.065l-0.285 -9.531l-2.224 -2.105l0.143 -6.47l-2.637 -5.322l-8.122 -7.756l2.834 -9.254l-3.618 -5.572l6.676 -1.279l1.399 -4.148l-0.382 -5.187l-2.217 -7.475l-4.655 -3.224l-0.023 -3.262l-46.272 0.048l-2.21 0.002l-25.083 0.215l-7.808 0.009l-5.858 0.008l-13.408 0.032l-19.406 0.202l-10.877 0.239z" />
  </g>
  <g data-id="007">
    <path d="m559.761 577.867l0.021 28.207l5.123 3.219l0.015 4.305l4.112 4.785l2.951 9.683l5.412 6.098l5.386 -4.621l2.576 10.945l0.573 5.082l1.964 1.387l4.219 6.468l0.951 6.619l1.176 1.237l-1.326 6.123l116.517 -0.563l94.424 0.094l1.901 -5.775l-1.534 -2.161l-0.958 -6.188l-4.219 -2.395l3.071 -0.996l0.879 -4.234l-1.898 -3.444l3.778 -4.685l-1.987 -4.113l3.527 -6.297l2.746 -0.278l-2.669 -2.73l0.076 -2.564l2.902 -0.041l2.332 -4.535l-1.02 -5.28l-2.897 0.469l2.033 -5.209l4.267 -0.862l-3.837 -8.596l4.952 -0.908l1.225 5.006l2.16 0.975l-0.859 -3.681l2.278 -4.357l2.672 0.182l1.694 -6.275l-1.874 -5.685l2.191 2.556l4.394 -0.698l3.913 1.483l0.592 -1.705l-3.239 -2.081l1.551 -2.203l-18.702 0.002l-108.02 -0.127l-0.745 -1.284l-67.01 -0.421l-44.149 -0.219l-33.609 0.286z" />
  </g>
  <g data-id="009">
    <path d="m808.526 267.534l-0.001 48.489l2.564 1.598l2.287 -0.545l6.979 3.867l4.54 1.088l1.615 2.511l2.744 -0.165l5.31 4.783l7.198 -1.163l0.45 -1.973l8.411 -1.719l4.997 -0.074l2.43 -5.355l4.855 2.062l1.638 -1.798l5.382 -0.011l3.234 1.853l8.909 -5.484l5.938 0.157l4.342 -2.708l1.746 3.145l9.25 -3.416l2.801 8.394l-1.501 3.228l1.171 8.12l5.743 2.903l2.903 -3.877l6.677 -0.762l0.423 -5.061l7.928 -3.63l-0.005 -17.701l38.157 -0.062l0.178 19.138l7.768 -0.037l0.322 3.796l0.149 23.099l7.501 -0.082l-0.002 5.72l14.986 -0.059l-0.143 -13.671l0.126 -29.38l-0.323 -46.093l-24.662 -0.053l-11.633 -0.317l-3.741 0.278l-49.873 0.498l-6.83 0.26l-1.75 -0.004l-26.482 -0.062l-7.473 0.034l-28.019 0.16l-24.188 -0.067l-4.85 0.154z" />
  </g>
  <g data-id="011">
    <path d="m319.508 243.73l-8.359 2.765l46.549 81.278l22.336 -20.308l27.961 -19.762l9.869 -0.213l0.006 2.409l-2.479 9.516l1.036 5.809l5.605 8.657l4.31 -0.006l9.036 0.032l6.48 -2.405l5.148 -2.444l10.752 -3.249l2.539 -2.101l1.448 -0.165l-5.896 -3.043l-4.969 -15.266l-3.761 -5.358l-0.518 -2.411l7.89 0.151l-5.292 -8.82l-1.764 -3.307l-1.163 -0.175l-4.381 -4.557l0.926 -3.754l-3.629 -7.799l-0.81 -10.239l0.061 -1.42l2.194 -2.939l-2.334 -4.581l-9.026 0.684l-2.134 0.442l-8.781 -1.537l-2.956 -3.184l-10.001 -0.001l-11.322 -0.013l-21.682 -0.086l-52.89 17.399z" />
  </g>
  <g data-id="013">
    <path d="m628.471 344.15l0.88 4.75l-0.65 2.812l-0.19 64.851l1.264 0.007l-0.008 60.858l0.072 30.335l0.921 47.588l6.785 -0.014l-0.027 22.462l67.01 0.421l0.745 1.284l108.02 0.127l0.049 -131.972l0.011 -48.859l0.022 -81.727l-2.287 0.545l-2.564 -1.598l-1.722 -0.068l-1.588 -0.455l-1.198 -1.156l-2.042 0.438l-1.181 -0.179l-1.219 0.385l-1.403 1.406l-1.287 -0.211l-1.137 -0.297l-1.024 0.538l-1.968 0.481l-1.119 -0.149l-1.117 0.058l-1.883 0.689l-1.788 -0.65l-1.455 -0.143l-1.034 -0.071l-1.495 -0.621l-1.594 0.689l-1.543 -0.716l-1.185 -1.183l-1.335 -0.639l-1.236 0.095l-1.91 0.815l-1.218 -0.717l-1.268 -0.779l-1.143 -0.344l-2.023 0.652l-1.023 -0.404l-1.591 -1.08l-2.322 0.136l-1.458 -0.532l-1.272 0.095l-1.773 -1.093l-1.896 -0.332l-1.813 0.189l-1.825 0.835l-2.18 0.442l-1.271 -1.295l-1.535 1.877l-1.344 0.389l-1.189 0.442l-2.579 0.936l-1.433 -0.398l-1.49 -0.654l-1.53 1.806l-0.177 1.217l-0.233 1.768l-0.999 1.663l-1.768 1.14l-1.525 1.63l-1.055 0.264l-1.697 -0.012l-1.4 -0.122l-1.143 0.582l-1.905 0.374l-1.162 -0.779l-1.545 -1.002l-1.336 1.939l-0.478 1.303l-1.012 0.256l-1.604 -0.918l-1.827 -0.043l-1.329 0.484l-1.353 1.808l-1.245 0.137l-1.291 -0.663l-0.896 -1.112l-1.257 1.18l-1.57 1.673l-1.506 0.671l-1.655 0.397l-1.79 0.684l-1.49 -1.617l-1.08 -1.051l-1.123 -0.078l-1.351 0.249l-6.642 2.455l-1.326 0.009l-1.625 1.158l-1.712 -0.015l-1.064 -0.945l-1.405 -1.007l-0.723 -1.079l-1.102 0.07l-1.314 1.053l-0.503 1.031l-1.492 1.738l-0.646 1.362l-0.884 1.289l-1.333 0.888l-1.053 -0.322l-1.699 0.389l-1.343 0.204l-1.65 -0.495l-1.27 -0.6l-1.253 -0.905l-1.68 -0.892l-1.238 -0.275l-1.019 0.791l-1.845 0.897l-1.433 -0.197l-1.738 0.211l-1.399 -0.488l-1.171 1.187l-1.036 0.16l-0.745 1.426l-1.12 0.916l-1.772 0.521l-1.143 1.129l-1.367 1.956l-1.534 1.546l-1.739 0.464l-1.902 0.254l-1.049 -0.146l-1.616 -1.81l-1.599 -0.903l-1.147 -0.823l-1.335 0.509l-1.134 0.266l-1.065 -0.123l-1.492 -1.108l-2.157 -0.275l-1.667 0.062l-0.477 1.29l1.045 0.539l0.478 1.329l-1.04 0.107l-1.249 0.35l-1.193 1.733z" />
  </g>
  <g data-id="015">
    <path d="m547.886 871.752l0.269 41.396l-0.007 2.593l151.575 0.005l103.877 0l-2.327 -0.995l-1.78 -1.788l0.305 -1.211l2.697 -0.262l3.393 -0.125l2.645 -1.177l0.73 -2.132l-1.47 -1.84l1.429 -3.801l1.473 -1.56l0.074 -1.903l-1.922 -0.469l-3.885 0.749l-2.129 -2.596l-2.937 -0.561l-1.734 -0.207l-0.648 -2.088l2.082 -2.514l3.967 -1.027l1.504 2.565l1.847 0.742l2.499 -2.024l-0.063 -2.733l-0.6 -2.87l-3.768 0.071l-3.931 1.941l-2.813 0.988l-2.547 -0.836l2.817 -1.84l0.513 -5.657l1.699 -2.284l0.723 -2.016l-2.289 0.859l-2.16 -0.329l-1.818 -1.102l-0.379 -2.115l-2.677 -0.856l-2.008 -0.446l-0.238 -3.889l0.038 -3.452l1.456 -1.749l-4.29 -0.982l-2.672 -0.467l1.537 -0.193l1.016 -2.217l0.588 -4.861l3.769 -2.9l-0.276 -3.578l-2.192 -2.288l-2.926 -2.155l-1.045 -1.7l0.384 -1.769l2.366 -2.814l-0.755 -2.118l-2.595 -2.533l0.213 -1.645l-1.673 -0.651l-1.443 -0.132l-1.29 -3.512l1.459 -3.153l-4.765 -6.95l0.953 -9.806l2.451 -7.893l0.311 -2.257l-1.613 -1.598l-0.212 -2.027l8.909 -0.922l7.299 1.13l-0.004 3.73l3.717 -0.001l1.857 3.726l7.425 0.005l0.001 -3.729l-3.713 -0.001l0.006 -3.726l-3.716 -0.001l0.002 -3.733l-3.717 1.866l-7.288 -0.002l0.003 -3.958l-7.498 -0.015l-3.248 1.155l2.437 -1.768l-3.145 -2.704l2.679 -2.757l-3.176 -1.866l3.263 -6.422l-1.093 -5.066l1.288 -2.957l4.255 -1.834l1.644 -4.364l-1.09 -2.03l3.07 -3.963l-3.339 -4.19l3.527 -4.176l-1.362 -2.434l1.304 -2.899l3.976 -1.036l1.083 -1.932l-0.883 -6.477l4.642 -0.539l-1.796 -5.586l0.588 -3.436l-3.321 -3.24l1.984 -4.63l3.524 -1.733l-1.973 -1.781l0.992 -5.82l1.276 1.155l2.817 -6.041l2.376 -0.787l-0.589 -6.578l2.893 -10.022l-2.557 -1.749l0.091 -5.994l1.277 -2.755l-1.505 -3.181l-94.424 -0.094l-115.761 -0.028l0.57 -5.532l-1.176 -1.237l-0.951 -6.619l-4.219 -6.468l-1.964 -1.387l-0.573 -5.082l-2.576 -10.945l-5.386 4.621l-5.412 -6.098l-2.951 -9.683l-4.112 -4.785l-0.015 -4.305l-5.123 -3.219l-0.071 61.398l-10.606 -0.01l-0.003 11.533l-0.067 25.594l0.306 7.453l0.072 67.492l0.232 3.723l-0.188 88.495l-1.571 -0.001z" />
  </g>
  <g data-id="017">
    <path d="m272.1 1091.94l0.019 19.484l0.673 2.789l0.4 43.748l64.359 0.144l39.161 1.585l64.197 0.271l5.728 -1.021l160.095 -0.101l2.27 -0.143l70.695 -0.073l0.832 -1.267l2.723 -3.197l4.982 -3.137l0.583 -4.881l2.449 -4.292l3.285 -1.121l1.167 -2.564l0.44 -3.023l2.779 -1.15l4.259 -1.053l1.891 -2.621l2.62 0.274l1.783 -1.621l0.787 -2.28l1.738 -5.348l0.106 -3.897l3.022 -2.753l3.49 -4.45l0.714 -4.61l3.181 -4.466l0.845 -1.189l-2.019 -0.495l-2.355 0.882l-2.992 -0.282l-1.247 -2.04l-0.485 -3.079l-0.421 -2.423l1.465 -1.382l1.347 -0.039l2.796 0.034l2.244 -2.511l0.442 -3.426l3.246 -3.238l1.973 -0.655l0.9 -2.269l-0.027 -2.153l0.065 -4.046l2.928 -1.716l3.976 -0.845l4.93 0.102l3.921 0.132l4.723 0.275l1.208 2.042l0.637 3.166l1.143 0.568l1.466 -1.709l-0.233 -1.372l0.503 -3.025l2.389 -2.136l2.206 0.309l4.754 0.559l2.363 0.69l2.632 -2.395l0.681 -2.232l-0.276 -3.798l-0.496 -3.849l2.281 -2.161l1.739 -1.221l2.168 -1.674l1.594 -1.381l0.577 -2.805l1.314 -1.834l1.054 -0.562l1.91 -2.343l0.456 -1.364l1.277 -1.114l2.236 -0.414l2.154 0.134l1.718 1.726l1.278 1.175l2.953 -0.165l1.268 -1.575l-0.255 -3.851l0.94 -3.196l1.285 -2.797l2.31 -1.767l1.805 -1.144l0.219 -1.957l-0.302 -1.262l-0.203 -1.726l0.714 -1.305l0.994 -1.524l1.079 -1.094l0.684 -1.277l0.536 -1.1l1.793 -2.154l1.541 -0.905l1.14 0.318l0.745 1.015l0.863 1.019l1.105 -0.019l1.365 -1.408l3.589 -1.883l1.418 -3.762l4.634 -1.953l1.433 -3.5l-151.659 -0.402l-144.98 -0.659l-44.128 0.988l-41.506 -0.303l-21.595 0.05l-21.843 1.4l-76.476 -1.126l-5.833 0.29l-1.044 0.365l-0.057 43.016l2.394 0.005l-0.242 22.058l-23.988 0.01l1.996 2.092l-0.031 19.608l-12.938 -0.546l-9.144 0.281z" />
  </g>
  <g data-id="019">
    <path d="m777.731 806.782l-0.953 9.806l4.765 6.95l-1.459 3.153l1.29 3.512l1.443 0.132l1.673 0.651l-0.213 1.645l2.595 2.533l0.755 2.118l-1.39 2.546l-1.36 2.037l1.045 1.7l2.926 2.155l2.192 2.288l0.276 3.578l-3.769 2.9l-0.588 4.861l-1.016 2.217l-1.537 0.193l2.672 0.467l4.29 0.982l-1.456 1.749l-0.038 3.452l1.07 2.933l1.176 1.402l2.861 0.174l0.195 2.797l1.818 1.102l2.16 0.329l2.289 -0.859l-0.723 2.016l-1.699 2.284l-0.513 5.657l-2.817 1.84l2.547 0.836l2.813 -0.988l3.931 -1.941l3.768 -0.071l0.6 2.87l0.063 2.733l-2.499 2.024l-1.847 -0.742l-1.504 -2.565l-3.967 1.027l-2.082 2.514l0.648 2.088l1.734 0.207l2.937 0.561l2.129 2.596l3.037 -0.256l2.77 -0.024l-0.074 1.903l-1.473 1.56l-1.429 3.801l1.47 1.84l-0.73 2.132l-2.645 1.177l-3.393 0.125l-2.697 0.262l-0.305 1.211l1.78 1.788l2.192 0.833l109.885 0.168l82.879 -0.008l-0.058 -25.344l0.142 -30.805l0.43 -19.335l0.638 -20.371l0.049 -7.544l0.142 -9.759l0.159 -14.761l0.184 -32.406l0.149 -61.984l-0.119 -33.84l-3.612 0.439l-1.455 1.753l-2.158 -0.812l-1.648 5.362l-2.224 2.485l-168.873 -1.884l-14.089 0.001l1.474 3.181l-1.277 2.755l-0.091 5.994l2.557 1.749l-2.893 10.022l0.589 6.578l-2.376 0.787l-2.817 6.041l-1.276 -1.155l-0.992 5.82l1.973 1.781l-3.524 1.733l-1.984 4.63l3.321 3.24l-0.588 3.436l1.796 5.586l-4.642 0.539l0.883 6.477l-1.083 1.932l-3.976 1.036l-1.304 2.899l1.362 2.434l-3.527 4.176l3.339 4.19l-3.07 3.963l1.09 2.03l-1.644 4.364l-4.255 1.834l-1.288 2.957l1.093 5.066l-3.263 6.422l3.176 1.866l-2.679 2.757l3.145 2.704l-2.437 1.768l3.248 -1.155l7.498 0.015l-0.003 3.958l7.288 0.002l3.717 -1.866l-0.002 3.733l3.716 0.001l-0.006 3.726l3.713 0.001l-0.001 3.729l-7.425 -0.005l-1.857 -3.726l-3.717 0.001l0.004 -3.73l-7.297 -0.209l-8.911 0.001l-0.014 1.419l1.839 2.206l-0.311 2.257l-2.451 7.893z" />
  </g>
  <g data-id="021">
    <path d="m0.131 1134.63l-0.033 7.945l92.714 0.042l0.005 -3.428l22.604 -0.017l0.091 22.457l3.819 -0.014l40.214 0.04l-0.03 11.775l21.425 0.286l0.828 1.69l20.932 -0.042l-0.008 -6.355l27.154 -0.069l-0.034 -10.934l43.379 -0.052l-0.4 -43.748l-0.673 -2.789l-0.019 -19.484l9.144 -0.281l12.938 0.546l0.031 -19.608l-1.996 -2.092l23.988 -0.01l0.242 -22.058l-2.394 -0.005l0.057 -43.016l-155.115 -0.328l-158.383 -0.013l-0.104 37.715l0.153 30.004l-0.054 7.294l0.05 7.292l0.24 3.481l-0.289 11.178l-0.237 2.35l-0.112 2.351l-0.127 27.898z" />
  </g>
  <g data-id="023">
    <path d="m1.033 582.767l0.102 9.021l-0.091 56.149l46.282 -0.349l0.005 -2.213l184.137 0.033l107.424 -0.302l27.634 -0.084l3.81 2.912l0.718 3.88l-3.729 1.504l1.863 8.296l1.865 0.006l-0.003 5.623l-0.024 5.942l-0.07 11.933l0.001 4.362l0.965 13.574l23.307 -0.078l-0.022 3.81l11.216 0.093l0.038 -5.752l11.514 0.004l-0.133 -7.557l7.397 -0.188l-0.138 -3.802l34.986 -0.299l-0.069 -8.833l-0.069 -11.139l6.886 -0.056l-0.012 -22.709l-0.379 -23.01l-0.459 -14.925l5.587 -0.174l-0.023 -3.923l9.373 -3.84l0.02 -3.77l11.526 -0.116l-0.021 -11.445l-7.513 0.109l0.078 -3.809l-3.977 0.044l0.023 -3.78l-24.791 0.589l3.556 -6.114l2.084 -7.788l-3.972 -3.249l0.182 -3.176l-4.773 -3.124l-2.792 -7.891l-3.248 -2.232l-2.828 -2.071l-1.037 1.839l-0.57 4.313l-5.117 2.423l-1.438 2.339l-3.063 -0.43l-4.384 2.401l-6.698 11.129l-4.006 4.816l-2.454 7.723l-4.075 -1.088l-8.108 7.827l-3.323 1.118l-8.512 -1.319l2.627 -4.773l2.207 -7.64l-1.916 -2.591l-1.198 -6.598l4.404 -3.977l1.125 -3.385l-5.536 -5.137l-0.797 -3.212l-3.66 -0.852l0.233 -7.839l-1.485 -3.882l-4.428 -0.867l-5.58 -7.717l-3.945 -1.276l-8.791 5.904l-2.484 7.397l-6.698 5.63l-6.365 0.625l-1.457 -3.071l-2.753 1.041l-1.878 -2.197l-1.494 2.249l0.878 5.438l-1.318 4.888l-180.871 -0.067l-159.348 -0.36l-0.016 22.115l-0.114 6.977z" />
  </g>
  <g data-id="025">
    <path d="m229.847 1168.94l-0.061 53.967l0.421 71.289l13.905 -0.026l43.839 -0.082l10.138 0.015l2.769 -0.01l1.299 0.015l33.847 -0.113l2.246 0.025l188.532 -0.113l1.38 -0.001l11.108 0.108l2.831 -3.968l2.649 -0.588l1.19 1.423l2.295 0.106l-0.203 -2.129l1.334 -2.239l1.812 -0.832l1.211 -0.966l-2.047 -1.416l-2.048 -2.227l-0.027 -2.388l0.68 -1.113l2.154 0.887l1.877 1.093l3.628 2.399l1.757 4.377l0.644 1.337l2.754 0.527l0.898 -1.913l-0.507 -2.941l-2.446 -1.405l0.405 -1.781l0.675 -2.056l2.621 -0.106l0.491 1.249l1.019 0.942l4.541 -5.236l3.501 -5.657l1.687 -1.089l2.436 0.371l1.071 1.637l2.189 1.761l2.656 -2.089l0.623 -1.544l2.257 -0.787l2.225 0.655l4.704 0.219l1.731 -0.368l1.975 -0.764l0.645 1.171l1.585 0.941l1.761 -1.967l5.234 -1.558l3.262 0.367l1.836 0.15l1.496 -0.726l0.23 -1.826l0.551 -1.636l1.092 0.347l1.204 0.363l2.078 -0.001l0.895 -1.777l0.103 -2.08l-0.499 -2.211l2.23 -0.034l2.723 -1.321l0.668 -2.745l0.338 -1.747l1.734 -1.464l1.592 0.577l1.254 0.277l0.846 -1.647l-0.073 -1.364l1.434 -2.101l0.352 -2.819l-0.959 -1.26l0.934 -1.932l1.748 -0.942l1.199 -1.745l-0.312 -1.574l-0.959 -1.526l-0.621 -2.192l1.017 -0.586l1.76 -0.437l1.822 -0.968l-0.699 -2.304l0.042 -5.54l4.202 -0.949l1.482 -4.043l-0.898 -2.198l-1.865 -1.212l-2.884 -0.69l-1.537 -2.449l0.796 -3.229l2.379 0.239l3.749 2.638l2.793 1.631l3.033 2.108l4.829 -0.201l2.926 -1.777l1.7 -0.463l1.12 -1.601l0.104 -1.872l1.673 -0.737l0.918 1.28l1.516 -1.732l0.343 -2.245l1.595 -1.533l-0.378 -2.403l-1.464 -1.236l-1.765 -1.656l-1.842 -2.503l-0.283 -1.254l1.72 -1.283l1.736 0.583l2.474 1.451l2.574 -1.708l0.749 -1.433l0.692 -2.499l0.715 -1.744l-1.317 -2.037l-2.654 0.528l-3.452 -2.714l-1.975 -2.237l0.694 -1.422l1.461 0.266l1.441 0.222l0.813 -1.856l0.017 -1.656l1.32 -2.316l4.39 -0.05l6.825 0.856l3.088 -1.335l1.224 -0.483l-0.29 -1.563l-1.368 -0.56l-2.276 -0.008l-1.394 -1.203l0.228 -1.272l0.809 -4.678l2.322 -3.218l0.829 -1.495l-70.695 0.073l-2.27 0.143l-160.095 0.101l-5.728 1.021l-64.197 -0.271l-39.161 -1.585l-64.359 -0.144l-43.379 0.052l0.034 10.934z" />
  </g>
  <g data-id="027">
    <path d="m0.614 870.466l-0.054 26.661l171.391 0.093l28.72 0.002l88.536 -0.033l17.575 -0.029l2.443 0.375l0.015 -7.451l3.649 -0.016l0.069 -11.241l1.847 -0.007l1.832 -7.472l3.688 -1.879l18.152 -0.661l-0.02 1.819l9.315 0.115l0.003 -1.82l5.523 -0.885l-0.018 -3.746l5.37 -0.9l3.742 -4.659l3.657 -1.047l-2 -9.37l-0.011 -18.823l0.794 -6.993l7.167 0.004l0.014 -3.757l3.375 0.213l0.44 -7.054l3.709 -0.097l-0.233 -7.428l3.571 0.005l0.034 -6.118l13.707 0l-0.1 -7.476l1.85 -1.861l7.478 -0.057l0.962 -12.742l-0.087 -22.39l-0.296 -46.861l-11.216 -0.093l0.022 -3.81l-23.307 0.078l-0.965 -13.574l-0.001 -4.362l0.07 -11.933l0.024 -5.942l0.003 -5.623l-1.865 -0.006l-1.863 -8.296l3.729 -1.504l-0.718 -3.88l-3.81 -2.912l-27.634 0.084l-107.424 0.302l-184.137 -0.033l-0.005 2.213l-46.282 0.349l0.129 11.07l-0.404 127.399l0.21 32.532l-0.222 32.967l-0.116 5.306l-0.027 13.255z" />
  </g>
  <g data-id="029">
    <path d="m434.972 217.18l-0.732 4.72l4.397 4.034l-0.337 4.091l2.334 4.581l-2.194 2.939l-0.061 1.42l0.81 10.239l3.629 7.799l-0.926 3.754l4.381 4.557l1.163 0.175l1.764 3.307l5.292 8.82l-7.89 -0.151l0.518 2.411l3.761 5.358l4.969 15.266l5.896 3.043l6.387 2.17l8.527 0.68l-0.425 4.77l4.086 2.122l0.917 6.626l5.989 -3.198l3.355 1.596l1.261 2.982l6.669 3.621l6.993 -3.094l1.713 -4.928l-1.214 -2.373l3.364 -3.332l2.348 -5.863l1.722 -1.131l-1.297 -3.849l-4.711 -6.507l-1.026 -5.044l-2.771 -0.585l0.778 -9.175l-10.516 -1.197l-2.081 -1.979l-1.085 -6.808l1.586 -1.256l3.769 -1.086l2.272 -8.317l5.054 -5.512l4.47 -2.768l6.693 -0.265l5.479 -4.737l7.595 1.903l5.585 -3.257l0.551 -5.446l2.212 -5.88l4.152 0.344l2.674 -2.486l4.427 2.017l4.087 -3.383l4.937 -0.209l4.463 -5.431l3.349 -7.02l-1.168 -3.085l1.975 -3.307l-6.035 0.149l-0.298 -3.763l-5.544 1.001l2.323 -3.128l-1.548 -2.407l0.025 -8.371l3.162 -2.54l-0.074 -2.588l-6.099 -3.381l-0.502 -5.462l-6.448 -4.165l-0.946 -3.144l-7 -1.108l-3.445 -3.286l-7.27 3.375l-1.188 4.926l-2.288 1.241l0.156 3.805l-2.391 2.09l1.845 6.994l-3.559 4.254l-3.913 7.527l-3.372 1.048l-0.544 3.807l-5.774 -0.49l-1.823 -1.971l-4.883 -1.077l-7.379 0.448l-2.501 2.476l-0.545 5.216l-2.456 2.436l-3.207 0.378l-3.646 3.508l-3.867 1.196l-7.914 -1.678l-0.765 -1.068l-1.317 -1.508l-1.799 -1.069l-1.018 -0.405l-1.366 -3.11l-10.122 -0.699l-3.543 3.307l-8.109 1.886l-2.937 2.664z" />
  </g>
  <g data-id="031">
    <path d="m307.826 918.704l-1.867 2.16l3.667 3.706l1.549 3.5l2.824 0.911l5.231 4.793l1.782 6.006l3.701 -0.293l1.693 -3.237l2.796 0.995l-0.152 5.307l2.435 3.58l2.243 0.204l3.533 5.872l3.821 2.429l1.617 3.673l-0.693 5.335l-1.946 1.769l-0.418 5.871l-5.277 6.982l-0.539 2.53l4.527 4.998l-1.55 2.43l-6.01 2.32l-5.832 6.357l0.365 2.569l-4.342 5.284l76.476 1.126l21.843 -1.4l21.595 -0.05l-1.107 -69.563l2.301 -0.919l2.726 -7.306l11.408 -11.476l-58.974 0.039l-0.033 -2.137l-12.694 -0.426l-15.864 -0.009l-62.498 0.449l1.662 5.618z" />
  </g>
  <g data-id="033">
    <path d="m507.027 25.127l3.618 5.572l-2.834 9.254l8.122 7.756l2.637 5.322l-0.143 6.47l2.224 2.105l0.285 9.531l4.352 3.065l-1.123 12.788l4.753 4.772l-2.901 5.24l1.188 3.156l-3.826 2.467l0.387 10.609l-1.038 6.614l-2.412 2.478l0.447 3.458l-2.793 -0.226l0.117 3.007l-4.33 4.529l0.619 2.403l-2.976 7.597l-2.172 0.515l-2.012 11.006l0.594 2.463l6.455 3.718l-0.42 4.127l6.321 4.7l5.03 1.426l7.27 -3.375l3.445 3.286l7 1.108l0.946 3.144l6.448 4.165l0.502 5.462l6.099 3.381l0.074 2.588l-3.162 2.54l-0.025 8.371l1.548 2.407l-2.323 3.128l5.544 -1.001l0.298 3.763l6.035 -0.149l-1.975 3.307l1.168 3.085l-3.349 7.02l-4.463 5.431l6.415 0.308l5.96 -5.539l10.816 -5.142l3.85 -3.83l-0.755 -2.438l4.583 -2.078l1.741 1.842l5.173 -9.439l2.332 -1.896l3.466 -0.316l-0.003 -9.06l-0.007 -19.909l0.067 -4.53l0.095 -50.02l-0.006 -3.807l-0.082 -53.388l-0.091 -59.469l-73.661 0.22l-1.003 -0.012l-10.072 0.283l-7.16 0.059l-0.082 3.262l4.655 3.224l2.217 7.475l0.382 5.187l-1.399 4.148l-6.676 1.279z" />
  </g>
  <g data-id="035">
    <path d="m357.698 327.773l5.991 10.606l1.04 1.39l3.452 2.058l2.251 22.724l4.201 6.666l-1.223 6.2l0.54 15.391l-1.772 2.093l2.061 7.662l1.147 3.518l-0.258 1.08l2.573 1.58l3.366 -2.45l5.326 5.001l0.861 3.25l3.7 -2.336l5.385 0.346l5.665 -4.75l1.336 3.691l4.969 6.25l4.875 3.273l7.119 -2.72l3.351 -2.654l2.102 -2.221l1.035 -2.414l1.241 -0.265l4.901 -4.784l9.358 -0.892l4.852 -3.504l1.845 -1.373l2.961 -5.28l5.082 -4.062l4.958 0.286l3.435 0.779l4.428 -2.769l2.691 1.16l6.859 -5.205l2.465 -4.424l6.402 0.938l2.368 -3.325l5.971 -2.063l2.144 -6.411l-4.983 -9.141l-3.69 -4.124l-1.531 -1.777l2.331 -8.577l-1.529 -2.462l-1.163 -1.153l-3.441 -4.971l-0.003 -5.723l-5.117 -5.261l1.612 -6.715l-0.917 -6.626l-4.086 -2.122l0.425 -4.77l-8.527 -0.68l-6.387 -2.17l-1.448 0.165l-2.539 2.101l-10.752 3.249l-5.148 2.444l-6.48 2.405l-9.036 -0.032l-4.31 0.006l-5.605 -8.657l-1.036 -5.809l2.479 -9.516l-0.006 -2.409l-9.869 0.213l-27.961 19.762l-22.336 20.308z" />
  </g>
  <g data-id="037">
    <path d="m542.1 1290.05l-2.831 3.968l14.348 0.146l4.675 -0.153l24.169 0.074l13.412 -0.402l63.011 -0.202l24.941 -0.131l5.223 0.068l19.717 -0.203l1.952 0.173l4.134 1.391l89.469 -0.151l4.17 0.025l24.981 -0.001l49.882 0.049l26.004 -0.199l22.768 -0.011l22.173 -0.03l1.338 0.001l3.287 -0.021l2.608 0.02l10.505 -0.001l27.13 0.047l0.011 -18.411l0.035 -3.423l-0.039 -2.462l0.003 -3.301l-0.164 -16.975l0.003 -6.149l0.098 -2.258l-0.019 -9.65l-0.045 -31.519l0.469 -27.595l0.065 -3.815l0.244 -7.713l0.022 -18.506l-0.065 -3.398l0.008 -1.545l-0.036 -10.652l0.107 -11.383l0.019 -7.314l-0.092 -2.468l0.127 -12.65l-0.058 -9.022l0.006 -1.573l-0.024 -7.768l0.038 -2.097l0.119 -6.612l-0.412 -16.957l0.06 -5.774l0.196 -39.53l0.015 -2.958l-2.571 -20.372l-1.08 -7.767l0.02 -57.147l-82.879 0.008l-109.75 -0.006l4.696 5.035l-2.017 8.303l-4.494 -3.125l-2.005 1.857l3.509 1.339l4.704 7.944l-5.705 7.95l3.734 1.165l-0.372 4.015l2.882 -1.529l4.399 -4.685l0.996 3.309l-2.098 3.052l0.25 3.188l4.643 2.773l1.434 -3.497l2.237 1.067l-1.858 3.386l-2.941 1.904l0.886 3.075l2.925 2.659l-0.341 4.509l3.177 1.223l-0.593 4.263l1.705 1.898l3.32 -2.851l1.507 3.881l-2.963 2.348l3.245 0.984l2.337 2.887l-6.017 1.7l0.35 2.4l5.881 1.993l-3.06 3.694l3.631 1.311l-9.173 7.542l0.624 1.565l-1.295 4.029l-4.634 1.953l-1.418 3.762l-3.589 1.883l-1.365 1.408l-1.105 0.019l-0.863 -1.019l-0.745 -1.015l-1.14 -0.318l-1.541 0.905l-0.9 1.266l-1.429 1.988l-0.684 1.277l-1.079 1.094l-0.994 1.524l-0.714 1.305l0.203 1.726l0.302 1.262l-0.219 1.957l-1.805 1.144l-2.31 1.767l-1.285 2.797l-0.94 3.196l0.255 3.851l-1.268 1.575l-2.953 0.165l-1.278 -1.175l-1.718 -1.726l-2.154 -0.134l-2.236 0.414l-1.277 1.114l-0.456 1.364l-1.91 2.343l-1.054 0.562l-1.314 1.834l-0.577 2.805l-1.594 1.381l-2.168 1.674l-1.739 1.221l-2.281 2.161l0.496 3.849l0.276 3.798l-0.681 2.232l-2.632 2.395l-2.363 -0.69l-4.754 -0.559l-2.206 -0.309l-2.389 2.136l-0.503 3.025l0.233 1.372l-1.466 1.709l-1.143 -0.568l-0.637 -3.166l-1.208 -2.042l-4.723 -0.275l-3.921 -0.132l-4.93 -0.102l-3.976 0.845l-2.928 1.716l-0.065 4.046l0.027 2.153l-0.9 2.269l-1.973 0.655l-3.246 3.238l-0.442 3.426l-2.244 2.511l-2.796 -0.034l-1.347 0.039l-1.465 1.382l0.421 2.423l0.485 3.079l1.247 2.04l2.992 0.282l2.355 -0.882l2.019 0.495l-0.845 1.189l-3.181 4.466l-0.714 4.61l-3.49 4.45l-3.022 2.753l-0.106 3.897l-1.738 5.348l-0.787 2.28l-1.388 1.839l-3.015 -0.492l-1.891 2.621l-4.259 1.053l-2.779 1.15l-0.44 3.023l-1.167 2.564l-3.285 1.121l-2.449 4.292l-0.583 4.881l-4.982 3.137l-2.723 3.197l-0.832 1.267l-0.829 1.495l-2.322 3.218l-0.809 4.678l-0.228 1.272l1.394 1.203l2.276 0.008l1.368 0.56l0.29 1.563l-1.224 0.483l-3.088 1.335l-6.825 -0.856l-4.39 0.05l-1.32 2.316l-0.017 1.656l-0.813 1.856l-1.441 -0.222l-1.461 -0.266l-0.694 1.422l1.975 2.237l3.452 2.714l2.654 -0.528l1.317 2.037l-0.715 1.744l-0.692 2.499l-0.749 1.433l-2.574 1.708l-2.474 -1.451l-1.736 -0.583l-1.72 1.283l0.283 1.254l1.842 2.503l1.765 1.656l1.464 1.236l0.378 2.403l-1.595 1.533l-0.343 2.245l-1.516 1.732l-0.918 -1.28l-1.673 0.737l-0.104 1.872l-1.12 1.601l-1.7 0.463l-2.926 1.777l-4.829 0.201l-3.033 -2.108l-2.793 -1.631l-3.749 -2.638l-2.379 -0.239l-0.796 3.229l1.537 2.449l2.884 0.69l1.865 1.212l0.898 2.198l-1.482 4.043l-4.202 0.949l-0.042 5.54l0.699 2.304l-1.822 0.968l-1.76 0.437l-1.017 0.586l0.621 2.192l0.959 1.526l0.312 1.574l-1.199 1.745l-1.748 0.942l-0.934 1.932l0.959 1.26l-0.352 2.819l-1.434 2.101l0.073 1.364l-0.846 1.647l-1.254 -0.277l-1.592 -0.577l-1.734 1.464l-0.338 1.747l-0.668 2.745l-1.775 1.6l-3.178 -0.245l0.499 2.211l-0.103 2.08l-0.895 1.777l-2.078 0.001l-1.204 -0.363l-1.092 -0.347l-0.551 1.636l-0.23 1.826l-1.496 0.726l-1.836 -0.15l-3.262 -0.367l-5.234 1.558l-1.761 1.967l-1.585 -0.941l-0.645 -1.171l-1.975 0.764l-1.731 0.368l-4.704 -0.219l-2.225 -0.655l-2.257 0.787l-0.623 1.544l-2.656 2.089l-2.189 -1.761l-1.071 -1.637l-2.436 -0.371l-1.687 1.089l-3.501 5.657l-3.632 4.888l-1.928 -0.594l-0.491 -1.249l-2.621 0.106l-0.675 2.056l-0.405 1.781l1.643 1.123l1.31 3.223l-0.898 1.913l-2.754 -0.527l-0.644 -1.337l-1.757 -4.377l-3.628 -2.399l-1.877 -1.093l-2.154 -0.887l-0.68 1.113l0.027 2.388l2.048 2.227l2.047 1.416l-1.211 0.966l-1.812 0.832l-1.334 2.239l0.203 2.129l-2.295 -0.106l-1.19 -1.423l-2.649 0.588z" />
  </g>
  <g data-id="039">
    <path d="m406.462 701.127l-0.038 5.752l0.296 46.861l0.087 22.39l32.761 -0.015l-0.681 3.235l10.158 -0.061l100.366 0.246l-0.072 -67.492l-0.306 -7.453l0.067 -25.594l0.003 -11.533l10.606 0.01l0.071 -61.398l-0.021 -28.207l-63.575 0.052l-15.127 -0.011l-0.023 3.78l3.977 -0.044l-0.078 3.809l7.513 -0.109l0.021 11.445l-11.526 0.116l-0.02 3.77l-9.373 3.84l0.023 3.923l-5.587 0.174l0.459 14.925l0.379 23.01l0.012 22.709l-6.886 0.056l0.069 11.139l0.069 8.833l-34.986 0.299l0.138 3.802l-7.397 0.188l0.133 7.557l-11.514 -0.004z" />
  </g>
  <g data-id="041">
    <path d="m305.358 910.298l0.807 2.787l62.498 -0.449l15.864 0.009l12.694 0.426l0.033 2.137l58.974 -0.039l2.013 -2.015l89.913 -0.006l-0.269 -41.396l1.571 0.001l0.188 -88.495l-0.232 -3.723l-100.366 -0.246l-10.158 0.061l0.681 -3.235l-32.761 0.015l-0.962 12.742l-7.478 0.057l-1.85 1.861l0.1 7.476l-13.707 0l-0.034 6.118l-3.571 -0.005l0.233 7.428l-3.709 0.097l-0.44 7.054l-3.375 -0.213l-0.014 3.757l-7.167 -0.004l-0.794 6.993l0.011 18.823l2 9.37l-3.657 1.047l-3.742 4.659l-5.37 0.9l0.018 3.746l-5.523 0.885l-0.003 1.82l-9.315 -0.115l0.02 -1.819l-18.152 0.661l-3.688 1.879l-1.832 7.472l-1.847 0.007l-0.069 11.241l-3.649 0.016l-0.015 7.451l-2.443 -0.375l-0.39 11.997l-1.035 1.142z" />
  </g>
  <g data-id="043">
    <path d="m481.236 319.912l-1.612 6.715l5.117 5.261l0.003 5.723l3.441 4.971l1.163 1.153l1.529 2.462l-2.331 8.577l1.531 1.777l3.69 4.124l4.983 9.141l5.052 -0.696l7.718 3.291l0.475 -5.626l2.707 -6.028l8.57 -5.669l-1.298 -4.015l4.879 -0.135l2.977 -2.588l1.568 3.446l-0.112 4.523l4.305 8.336l8.269 1.529l4.77 4.527l7.568 4.901l5.387 2.547l4.773 0.782l6.629 4.214l5.952 2.675l2.853 -2.637l1.163 -5.244l2.067 -3.178l8.073 -1.048l5.002 3.349l6.073 1.103l3.546 -4.012l6.194 -0.047l3.002 -3.856l-0.378 -2.001l3.586 -8.182l-0.771 -3.937l2.966 -5.004l6.381 0.577l0.65 -2.812l-0.88 -4.75l1.193 -1.733l1.249 -0.35l1.04 -0.107l-0.478 -1.329l-1.045 -0.539l0.477 -1.29l1.667 -0.062l1.457 -0.229l1.468 1.003l1.789 0.732l1.134 -0.266l1.335 -0.509l1.147 0.823l1.599 0.903l1.616 1.81l1.049 0.146l1.902 -0.254l1.739 -0.464l1.534 -1.546l0.638 -1.036l1.313 -1.716l1.518 -0.476l1.544 -1.024l0.464 -1.211l1.706 -0.645l1.171 -1.187l1.399 0.488l1.738 -0.211l1.433 0.197l1.337 -0.271l1.026 -1.011l1.101 -0.627l1.452 0.888l1.567 0.777l1.107 1.159l1.647 0.203l1.289 0.526l1.624 -0.722l1.497 0.178l1.147 -0.267l1.097 -1.146l0.394 -1.436l1.447 -1.323l1.176 -2.028l1.314 -1.053l1.102 -0.07l0.723 1.079l1.405 1.007l1.064 0.945l1.712 0.015l1.625 -1.158l1.326 -0.009l6.642 -2.455l1.351 -0.249l1.123 0.078l1.08 1.051l0.66 1.01l2.62 -0.077l1.655 -0.397l1.506 -0.671l1.57 -1.673l0.707 -1.307l1.446 1.239l1.291 0.663l1.245 -0.137l1.269 -0.985l0.513 -1.309l1.766 -0.02l1.831 0.575l1.746 0.152l0.478 -1.303l0.345 -1.081l1.538 -0.497l1.555 1.288l1.563 0.14l1.554 -0.756l1.19 -0.077l1.682 0.113l1.337 -0.433l1.111 -0.609l1.863 -1.368l1.405 -1.493l0.981 -1.892l-0.179 -1.997l1.04 -1.281l1.248 -0.245l2.165 0.772l1.627 -0.344l2.141 -1.034l1.344 -0.389l0.872 -1.462l1.195 -0.019l1.922 0.943l2.822 -1.321l1.813 -0.189l1.896 0.332l1.773 1.093l1.272 -0.095l1.22 0.079l1.703 0.686l1.78 0.054l1.691 1.061l1.195 -0.28l1.234 -0.695l1.269 1.319l1.954 0.844l1.91 -0.815l1.236 -0.095l1.335 0.639l1.185 1.183l1.543 0.716l1.594 -0.689l1.495 0.621l1.034 0.071l1.455 0.143l1.788 0.65l1.883 -0.689l1.117 -0.058l1.119 0.149l1.008 0.045l1.984 -1.064l1.137 0.297l1.287 0.211l1.403 -1.406l1.219 -0.385l1.181 0.179l1.177 -0.449l1.562 0.574l1.229 1.075l2.154 0.116l0.429 -48.564l-1.155 -0.122l-8.378 0.069l-14.597 0.12l-23.187 0.443l-2.566 -0.175l-24.942 0.302l-24.941 0.053l-7.802 -0.423l-34.958 0l-7.123 -0.132l-59.059 -0.294l0.034 -67.19l-3.466 0.316l-2.332 1.896l-5.173 9.439l-1.741 -1.842l-4.583 2.078l0.755 2.438l-3.85 3.83l-10.816 5.142l-5.96 5.539l-6.415 -0.308l-4.937 0.209l-4.087 3.383l-4.427 -2.017l-2.674 2.486l-4.152 -0.344l-2.212 5.88l-0.551 5.446l-5.585 3.257l-7.595 -1.903l-5.479 4.737l-6.693 0.265l-4.47 2.768l-5.054 5.512l-2.272 8.317l-3.769 1.086l-1.586 1.256l1.085 6.808l2.081 1.979l10.516 1.197l-0.778 9.175l2.771 0.585l1.026 5.044l4.711 6.507l1.297 3.849l-1.722 1.131l-2.348 5.863l-3.364 3.332l1.214 2.373l-1.713 4.928l-6.993 3.094l-6.669 -3.621l-1.261 -2.982l-3.355 -1.596l-5.989 3.198z" />
  </g>
  <g data-id="045">
    <path d="m1.278 530.042l-0.115 23.633l159.348 0.36l180.871 0.067l1.318 -4.888l-0.878 -5.438l1.494 -2.249l1.878 2.197l2.753 -1.041l1.457 3.071l6.365 -0.625l6.698 -5.63l2.484 -7.397l8.791 -5.904l1.56 -7.251l-2.317 -5.258l5.27 -9.989l1.254 -2.436l-5.045 -6.364l1.645 -4.032l-1.21 -1.867l5.925 -4.933l-1.811 -2.344l0.948 -3.531l-2.37 -0.932l2.195 -3.333l-3.889 -1.994l-2.135 -3.294l0.039 -4.497l-2.412 -3.708l1.016 -6.075l-2.416 -5.247l0.473 -4.914l4.13 -2.655l-3.682 -6.292l1.048 -3.304l-2.082 -2.634l0.898 -10.122l-2.972 -2.929l-0.731 -5.966l4.58 -3.517l3.473 0.381l0.258 -1.08l-1.147 -3.518l-2.061 -7.662l1.772 -2.093l-0.54 -15.391l1.223 -6.2l-4.201 -6.666l-2.251 -22.724l-3.272 -1.892l-1.22 -1.556l-5.991 -10.606l-46.549 -81.278l-61.024 20.355l-80.277 0.002l-167.69 0.009l-0.206 60.231l-0.125 3.285l0.059 8.668l-0.354 57.75l-0.059 2.83l0.072 17.182l-0.121 1.431l-0.07 6.947l0.005 43.527l-0.106 30.039l-0.012 3.314l0.071 1.652l-0.09 17.667l0.056 8.657z" />
  </g>
  <g data-id="047">
    <path d="m802.115 649.423l-3.071 0.996l4.219 2.395l0.958 6.188l1.534 2.161l-1.87 5.775l14.089 -0.001l168.873 1.884l2.224 -2.485l1.648 -5.362l2.158 0.812l0.754 -2.752l4.313 0.552l0.064 -42.136l0.085 -55.68l-0.051 -47.887l-0.014 -31.779l-0.005 -10.955l0.005 -58.034l0.126 -13.304l-0.077 -1.278l0.148 -10.483l0.381 -20.84l-0.041 -9.037l-0.025 -2.369l-14.986 0.059l0.002 -5.72l-7.501 0.082l-0.149 -23.099l-0.322 -3.796l-7.768 0.037l-0.178 -19.138l-38.157 0.062l0.005 17.701l-7.928 3.63l-0.423 5.061l-6.677 0.762l-2.903 3.877l-5.743 -2.903l-1.171 -8.12l1.501 -3.228l-2.801 -8.394l-9.25 3.416l-1.746 -3.145l-4.342 2.708l-5.938 -0.157l-8.909 5.484l-3.234 -1.853l-5.382 0.011l-1.638 1.798l-4.855 -2.062l-2.43 5.355l-4.997 0.074l-8.411 1.719l-0.45 1.973l-7.198 1.163l-5.31 -4.783l-2.744 0.165l-1.615 -2.511l-4.54 -1.088l-6.979 -3.867l-0.022 81.727l-0.011 48.859l-0.049 131.972l18.702 -0.002l-1.551 2.203l3.239 2.081l-0.592 1.705l-3.913 -1.483l-4.394 0.698l-2.191 -2.556l1.874 5.685l-1.694 6.275l-2.672 -0.182l-2.278 4.357l0.859 3.681l-2.16 -0.975l-1.225 -5.006l-4.952 0.908l3.837 8.596l-4.267 0.862l-2.033 5.209l2.897 -0.469l1.02 5.28l-2.332 4.535l-2.902 0.041l-0.076 2.564l2.669 2.73l-2.746 0.278l-3.527 6.297l1.987 4.113l-3.778 4.685l1.898 3.444l-0.879 4.234z" />
  </g>
  <g data-id="049">
    <path d="m367.073 410.298l0.731 5.966l2.972 2.929l-0.898 10.122l2.082 2.634l-1.048 3.304l3.682 6.292l-4.13 2.655l-0.473 4.914l2.416 5.247l-1.016 6.075l2.412 3.708l-0.039 4.497l2.135 3.294l3.889 1.994l-2.195 3.333l2.37 0.932l-0.948 3.531l1.811 2.344l-5.925 4.933l1.21 1.867l-1.645 4.032l5.045 6.364l-1.254 2.436l-5.27 9.989l2.317 5.258l-1.56 7.251l3.945 1.276l5.58 7.717l4.428 0.867l1.485 3.882l-0.233 7.839l3.66 0.852l0.797 3.212l5.536 5.137l-1.125 3.385l-4.404 3.977l1.198 6.598l1.916 2.591l-2.207 7.64l-2.627 4.773l8.512 1.319l3.323 -1.118l8.108 -7.827l4.075 1.088l2.454 -7.723l4.006 -4.816l6.698 -11.129l4.384 -2.401l3.063 0.43l1.438 -2.339l5.117 -2.423l0.57 -4.313l1.037 -1.839l2.828 2.071l3.248 2.232l2.792 7.891l4.773 3.124l-0.182 3.176l3.972 3.249l-2.084 7.788l-3.556 6.114l24.791 -0.589l15.127 0.011l63.575 -0.052l33.609 0.207l44.149 -0.274l0.027 -22.462l-6.785 0.014l-38.069 -0.13l-0.121 -11.198l-7.055 -0.074l-2.569 -1.018l2.399 -5.404l-2.073 -0.605l-2.67 -4.298l-4.912 -0.938l-0.049 -3.332l-3.626 -4.238l-3.929 -7.222l-4.177 3.043l-3.891 -3.068l-0.625 -2.02l2.65 -3.623l-1.258 -4.376l4.173 -10.082l-0.873 -5.239l0.063 -5.928l-6.514 -7.972l-3.036 -6.274l1.713 -5.349l-9.387 -11.541l-9.761 -0.592l-2.709 -2.191l-13.791 1.889l-2.742 -2.841l3.855 -5.478l-8.473 -10.6l-14.949 -1.089l-0.965 -5.616l-7.875 -12.317l-2.166 1.003l-2.105 -4.905l9.166 -9.671l-0.818 -3.629l2.275 -12.299l-5.231 -7.841l-2.368 3.325l-6.402 -0.938l-2.465 4.424l-6.859 5.205l-2.691 -1.16l-4.428 2.769l-3.435 -0.779l-4.958 -0.286l-5.082 4.062l-2.961 5.28l-1.845 1.373l-4.852 3.504l-9.358 0.892l-4.901 4.784l-1.118 0.232l-1.158 2.447l-2.102 2.221l-3.351 2.654l-7.119 2.72l-4.875 -3.273l-4.969 -6.25l-1.336 -3.691l-5.665 4.75l-5.385 -0.346l-3.7 2.336l-0.861 -3.25l-5.326 -5.001l-3.366 2.45l-2.573 -1.58l-3.473 -0.381l-4.58 3.517z" />
  </g>
  <g data-id="051">
    <path d="m485.244 411.729l1.842 4.768l2.429 -0.866l7.875 12.317l0.965 5.616l14.949 1.089l8.473 10.6l-3.855 5.478l2.742 2.841l13.791 -1.889l2.709 2.191l9.761 0.592l9.387 11.541l-1.713 5.349l3.036 6.274l6.514 7.972l-0.063 5.928l0.873 5.239l-4.173 10.082l1.258 4.376l-2.65 3.623l0.625 2.02l3.891 3.068l4.177 -3.043l3.929 7.222l3.626 4.238l0.049 3.332l4.912 0.938l2.67 4.298l2.073 0.605l-2.399 5.404l2.569 1.018l7.055 0.074l0.121 11.198l38.069 0.13l-0.921 -47.588l-0.072 -30.335l0.008 -60.858l-1.264 -0.007l0.19 -64.851l-6.381 -0.577l-2.966 5.004l0.771 3.937l-3.586 8.182l0.378 2.001l-3.002 3.856l-6.194 0.047l-3.546 4.012l-6.073 -1.103l-5.002 -3.349l-8.073 1.048l-2.067 3.178l-1.163 5.244l-2.853 2.637l-5.952 -2.675l-6.629 -4.214l-4.773 -0.782l-5.387 -2.547l-7.568 -4.901l-4.77 -4.527l-8.269 -1.529l-4.305 -8.336l0.112 -4.523l-1.568 -3.446l-2.977 2.588l-4.879 0.135l1.298 4.015l-8.57 5.669l-2.707 6.028l-0.475 5.626l-7.718 -3.291l-5.052 0.696l-2.144 6.411l-5.971 2.063l5.231 7.841l-2.275 12.299l0.818 3.629l-9.166 9.671z" />
  </g>
  <g data-id="053">
    <path d="m0 1145.6l0.054 18.857l0.001 3.86l-0.003 2.64l0.016 4.966l0.034 10.26l0.136 3.356l-0.032 11.891l0.025 19.368l-0.035 2.266l0.114 12.699l-0.053 15.402l-0.101 6.324l0.062 3.208l-0.192 7.59l0.201 3.248l0.244 22.644l16.898 0.093l81.374 -0.013l12.607 -0.004l32.369 -0.01l73.063 -0.022l13.424 -0.025l0.011 -70.354l-0.371 -54.902l-27.154 0.069l0.008 6.355l-20.932 0.042l-0.828 -1.69l-21.425 -0.286l0.03 -11.775l-40.214 -0.04l-3.819 0.014l-0.091 -22.457l-22.604 0.017l-0.005 3.428l-92.714 -0.042l-0.098 3.02z" />
  </g>
  <g data-id="055">
    <path d="m439.793 934.869l1.107 69.563l41.501 0.025l44.133 -0.71l144.98 0.659l151.521 -0.127l-0.624 -1.565l9.173 -7.542l-3.631 -1.311l3.06 -3.694l-5.881 -1.993l-0.35 -2.4l6.017 -1.7l-2.337 -2.887l-3.245 -0.984l2.963 -2.348l-1.507 -3.881l-3.32 2.851l-1.705 -1.898l0.593 -4.263l-3.177 -1.223l0.341 -4.509l-2.925 -2.659l-0.886 -3.075l2.941 -1.904l1.858 -3.386l-2.237 -1.067l-1.434 3.497l-4.643 -2.773l-0.25 -3.188l2.098 -3.052l-0.996 -3.309l-4.399 4.685l-2.882 1.529l0.372 -4.015l-3.734 -1.165l5.705 -7.95l-4.704 -7.944l-3.509 -1.339l2.005 -1.857l4.494 3.125l2.017 -8.303l-4.696 -5.035l-103.877 0l-151.575 -0.005l0.007 -2.593l-89.913 0.006l-2.013 2.015l-11.408 11.476l-2.726 7.306l-2.301 0.919z" />
  </g>
  <g data-id="057">
    <path d="m311.149 246.495l8.359 -2.765l52.89 -17.399l21.682 0.086l10.529 0.015l10.794 -0.001l2.956 3.184l8.781 1.537l2.134 -0.442l8.027 -0.268l1.336 -4.507l-4.397 -4.034l0.732 -4.72l2.937 -2.664l8.109 -1.886l3.543 -3.307l10.122 0.699l0.772 2.937l1.068 0.478l1.351 0.757l1.366 1.43l1.273 1.039l8.349 2.197l3.867 -1.196l3.646 -3.508l3.207 -0.378l2.456 -2.436l0.545 -5.216l2.501 -2.476l7.379 -0.448l4.883 1.077l1.823 1.971l5.774 0.49l0.544 -3.807l3.372 -1.048l3.913 -7.527l3.559 -4.254l-1.845 -6.994l2.391 -2.09l-0.156 -3.805l2.288 -1.241l1.188 -4.926l-5.03 -1.426l-6.321 -4.7l0.42 -4.127l-6.455 -3.718l-0.594 -2.463l-6.497 4.719l-2.124 -4.806l-4.276 -1.423l-1.672 2.756l-6.92 -1.046l-6.805 3.872l-2.78 -5.597l-5.968 3.128l-4.951 -2.745l2.95 5.999l-4.064 5.264l0.075 2.456l-6.8 1.86l-7.349 -6.248l-3.329 1.157l-10.854 -2.801l-3.379 -7.417l-6.466 3.706l-8.84 -4.035l-2.037 2l0.97 6.638l-1.557 4.453l2.406 3.431l-11.975 5.95l-1.001 1.719l-1.228 0.023l-40.628 -0.001l-20.274 27.297l-30.694 41.568z" />
  </g>
</svg>
