<?xml version="1.0" encoding="UTF-8"?><!DOCTYPE svg PUBLIC '-//W3C//DTD SVG 1.1//EN' 'http://www.w3.org/Graphics/SVG/1.1/DTD/svg11.dtd'><svg viewBox="0 0 1000 1294.79" xmlns="http://www.w3.org/2000/svg"><path id="49001" d="m0 916l1 24v36v3v26h158h155h1h6l4-6v-2l6-6l6-3l1-2l-4-5v-3l6-7v-6l2-1l1-6l-2-3l-4-3l-3-6h-3l-2-3v-6l-3-1l-1 3l-4 1l-2-6l-5-5l-3-1l-1-3l-4-4l2-2l-2-6l-1-3l1-1l1-12h-18h-88h-29h-171v7v1z"/><path id="49003" d="m2 211v1v55h168h80l61-21l31-41l20-27h41h1l1-2l12-6l-2-3l1-5l-1-7l2-2l9 4l6-3l1-4l-7-5l1-3l7-1l1-3l-2-3h-4l-2-9l-7-6l-7 5l-3-6l1-2l-3-8v-10l-1-1l-1-7l-7-10l2-3v-8l4-10l3-5l-4-4l-2-4l-1-3l-2-7l-6-11l-8-6l-3-10l-2-2l-3-7h-2l-4-1h-9h-5h-24h-13h-40h-12l-16 1h-9h-9h-6h-14h-4h-50v1h-18h-3h-8h-1h-6h-13h-1l-52 1h-7l-5 1h-14l-20-2h-10l1 29l-1 9l1 26v35l-1 2v31l1 2l-1 73z"/><path id="49005" d="m377 1l3 7l2 2l3 10l8 6l6 11l2 7l1 3l2 4l4 4l-3 5l-4 10v8l-2 3l7 10l1 7l1 1v10l3 8l-1 2l3 6l7-5l7 6l2 9h4l2 3l-1 3l-7 1l-1 3l7 5l-1 4l4 7l11 3l3-1l7 6l7-2v-2l4-6l-3-6l5 3l6-3l3 6l7-4l7 1l1-3l5 2l2 4l6-4l2-11l2-1l3-8v-2l4-4v-3h3l-1-4l3-2l1-7l-1-10l4-3l-1-3l3-5l-5-5l1-13l-4-3v-9l-3-2l1-7l-3-5l-8-8l3-9l-4-6l7-1l1-4v-5l-2-8l-5-3v-3h-46h-3h-25h-8h-5h-14h-19z"/><path id="49007" d="m560 578v28l5 3v5l4 4l3 10l5 6l6-4l2 10l1 6l2 1l4 6l1 7l1 1l-1 6h1h115h95l2-6l-2-2l-1-6l-4-3l3-1l1-4l-2-3l4-5l-2-4l3-6l3-1l-3-2l1-3h2l3-4l-1-6l-3 1l2-6h4l-4-9l5-1l2 5l2 1l-1-4l2-4h3l1-6l-1-6l2 3l4-1l4 2l1-2l-4-2l2-2h-19h-108v-2h-67h-45z"/><path id="49009" d="m809 268v48l2 2l2-1l7 4l5 1l2 3l2-1l6 5l7-1v-2l9-2h5l2-5l5 2l2-2h5l3 2l9-6l6 1l4-3l2 3l9-3l3 8l-1 3l1 8l6 3l2-4h7l1-5l7-4v-18h39v19h8v4v23h8v6h15l-1-14l1-29l-1-46h-24l-12-1l-4 1h-50h-7h-1h-27h-7h-1h-27h-24l-5 1z"/><path id="49011" d="m320 244l-9 2l47 82l22-21l28-19l10-1v3l-3 9l1 6l6 9h4h9l7-2l5-3l11-3l2-2h2l-6-4l-5-15l-4-5v-3l7 1l-5-9l-2-4h-1l-4-4l1-4l-4-8l-1-10v-1l3-3l-3-5h-1l-8 1h-2l-9-1l-3-4h-10h-11h-22z"/><path id="49013" d="m628 344l1 5v3v65h1v60v31l1 47h7v23h67v2h108v-132v-49v-82l-2 1l-2-2h-1h-1h-1h-1v-1l-1-1h-1l-1 1h-1l-1-1v1l-1 1h-1h-1h-1h-1l-1 1h-1h-1h-1h-1l-1 1l-1-1h-1h-2h-1v-1h-1l-2 1l-1-1h-1v-1l-2-1h-1l-1 1h-1l-1-1h-1l-1-1h-1v1h-2l-1-1l-1-1l-1 1h-2v-1h-1h-1l-1-1h-1h-2h-2l-2 1h-1h-1v-1h-1h-1l-1 2h-1l-1 1h-1h-2h-1h-1l-1-1v1l-1 1v1v1l-1 1v1l-1 1v1h-1l-1 1l-1 1h-1h-1h-1h-1h-1l-1 1h-1h-1v-1l-1-1h-1l-1 1v1l-1 1h-1h-1l-1-1l-1 1v-1l-1 1v1l-2 1h-1l-1-1l-1-1h-1v1l-1 1l-1 1h-1v1h-1h-1l-2 1l-1-1v-1l-1-1h-2h-1l-7 3h-1h-1l-1 1h-1l-1-1l-1-1h-1v-1h-1h-1l-1 1v1l-1 1l-1 1v1l-1 1l-1 1h-1h-1h-1l-1 1h-1v-1h-1h-1l-1-1h-1l-1-1h-1v-1h-1v1h-1v1h-1h-1h-1h-1h-1h-1h-1v1h-2v1l-1 1l-1 1h-1h-1v1l-1 1l-1 1l-1 1l-1 1h-1h-1h-1h-1l-1-1v-1h-1l-1-1h-1v-1l-1 1h-1h-1h-1h-1v-1h-1h-1h-2h-1v1l1 1h1v1h-1h-1z"/><path id="49015" d="m548 872v41v3h152h104h-1l-2-1l-2-2l1-1l2-1h4l3-1v-2l-1-2l1-4l2-1v-2l-2-1l-1 1h-3l-2-2l-3-1h-2v-2l2-3l4-1l1 3l2 1l2-2v-3v-3h-4l-4 2l-3 1l-2-1l3-2v-5l2-3v-2l-2 1h-2l-2-1v-2v-1h-3l-2-1l1-1l-1-3v-3l1-2l-4-1h-3h2l1-3l1-5l3-2v-4l-2-2l-3-2l-1-2v-2h1l2-3l-1-2l-3-2v-2l-1-1h-2l-1-3l2-3l-5-7l1-10l2-8v-2l-1-2v-1v-1l9-1v1h7v4h4l1 4h8v-4h-4v-4h-4v-4l-3 2h-8v-4h-7l-3 2l2-2l-3-3l3-3l-4-2l4-6l-1-5l1-3l4-2l2-4l-1-2l3-4l-4-4l4-5l-1-2l1-3l4-1l1-2l-1-6l5-1l-2-5l1-4l-4-3l2-5l4-2l-2-1l1-6l1 1l3-6l2-1v-6l3-10l-3-2v-6l1-3l-1-3h-95h-115h-1l1-6l-1-1l-1-7l-4-6l-2-1l-1-6l-2-10l-6 4l-5-6l-3-10l-4-4v-5l-5-3v61h-11v12v26v7v68l1 3l-1 89z"/><path id="49017" d="m272 1092v19l1 3v44h65l39 2h64l6-1h160h2h71l1-2l2-3l5-3l1-5l2-4l4-1l1-3v-3l3-1l4-1l2-3l3 1l1-2l1-2l2-6v-4l3-2l4-5v-4l4-5v-1l-2-1l-2 1h-3l-1-2l-1-3v-2l1-2h2h2l3-2v-4l3-3l2-1l1-2v-2v-4l3-2l4-1h5l4 1h5l1 2l1 3l1 1l1-2v-2l1-3l2-2l2 1h5l2 1l3-3l1-2l-1-4v-3l2-3l2-1l2-1l2-2v-3l1-1l1-1l2-2l1-2l1-1h2h3l1 2l2 1h2l2-2l-1-4l1-3l2-3l2-2l2-1v-2v-1v-2v-1l1-1l1-2l1-1l1-1v-1l1-1l2-1h1l1 1l1 1h1l1-1l4-2l1-4l5-2l1-3v-1h-151h-145l-45 1v-1h-41h-22l-22 2l-76-1h-6h-1v43h2v22l-24 1l2 2v19h-13z"/><path id="49019" d="m778 807l-1 10l5 7l-2 3l1 3h2l1 1v2l3 2l1 2l-2 3h-1v2l1 2l3 2l2 2v4l-3 2l-1 5l-1 3h-2h3l4 1l-1 2v3l1 3l-1 1l2 1h3v1v2l2 1h2l2-1v2l-2 3v5l-3 2l2 1l3-1l4-2h4v3v3l-2 2l-2-1l-1-3l-4 1l-2 3v2h2l3 1l2 2h3l1-1l2 1v2l-2 1l-1 4l1 2v2l-3 1h-4l-2 1l-1 1l2 2l2 1h1h109h83v-26v-30l1-20v-20v-8l1-9v-1v-14v-33v-62v-33h-4v-1l-1 3l-2-1l-2 5l-2 3l-169-2h-14l1 3l-1 3v6l3 2l-3 10v6l-2 1l-3 6l-1-1l-1 6l2 1l-4 2l-2 5l4 3l-1 4l2 5l-5 1l1 6l-1 2l-4 1l-1 3l1 2l-4 5l4 4l-3 4l1 2l-2 4l-4 2l-1 3l1 5l-4 6l4 2l-3 3l3 3l-2 2l3-2h7v4h8l3-2v4h4v4h4v4h-8l-1-4h-4v-4h-7v-1l-9 1v1v1l1 2v2z"/><path id="49021" d="m0 1135v8h93v-4h22l1 23h3h41v11l21 1l1 1h21v-6h27v-11h43v-44l-1-3v-19h9h13v-19l-2-2l24-1v-22h-2v-43h-155h-158v38v30v7v7v4v11l-1 2v3z"/><path id="49023" d="m1 583v9v56h46v-3h184h108h28l3 3l1 4l-4 1l2 9h2v5v6v12v4l1 14h23v4h11v-6h12v-7l7-1v-3l35-1v-9v-11h7v-22l-1-23v-15l6-1v-3l9-4v-4h11v-12h-7v-3h-4v-4h-25l4-6l2-7l-4-4v-3l-5-3l-2-8l-4-2l-3-2l-1 2v4l-5 2l-2 3l-3-1l-4 3l-7 11l-4 5l-2 7l-4-1l-8 8l-4 1l-8-1l2-5l3-7l-2-3l-2-7l5-4l1-3l-6-5v-3l-4-1v-8l-1-4l-5-1l-5-8l-4-1l-9 6l-3 7l-6 6l-7 1l-1-3l-3 1l-2-2l-1 2l1 5l-2 5h-180h-160v22z"/><path id="49025" d="m230 1169v54v1v70h14h44h10h3h1h34h2h189h1h11l3-4l3-1l1 2h2v-2l1-2l2-1l1-1l-2-2l-2-2v-2l1-1l2 1l2 1l4 2l1 4l1 2h3l1-2l-1-3h-1l-1-1v-2l1-2h2l1 1l1 1h1l3-5l4-6l2-1l2 1l1 1l2 2l3-2l1-2h2h2l5 1l2-1l2-1v2l2 1l2-2l5-2h3l2 1l1-1l1-2l-1-1l1-1l1 1h1h2l1-2v-2v-2h2h1l2-1l1-3v-2l2-1h1l2 1v-2v-2l2-2v-2l-1-2l1-2l2-1l1-1v-2l-1-1l-1-3h1l2-1l2-1l-1-2v-5l4-1l2-4l-1-3l-2-1l-3-1l-1-2v-3h3l3 3l3 1l3 2h5l3-2h2l1-2v-2h2l1 1l1-2v-2l2-1v-3l-2-1l-2-2l-1-2l-1-2l2-1l2 1l2 1l3-1l1-2v-2l1-2l-1-2h-3l-3-2l-2-3v-1h2h1l1-1v-2l1-2h5h7l3-1h1v-2l-2-1h-2l-1-1v-1l1-5l2-3l1-1h-71h-2h-160l-6 1h-64l-39-2h-65h-43z"/><path id="49027" d="m1 870v27h171h29h88h18l2 1v-8h4v-11h2l2-8l3-2h18v2h10v-2l5-1v-4l6-1l3-4l4-1l-2-10v-19l1-7l7 1v-4h3l1-7h4l-1-8h4v-6h14v-7l1-2h8l1-13v-22l-1-47h-11v-4h-23l-1-14v-4v-12v-6v-5h-2l-2-9l4-1l-1-4l-3-3h-28h-108h-184v3h-46v11v127v33v1v32v5z"/><path id="49029" d="m435 217l-1 5l5 4l-1 4l3 5l-3 3v1l1 10l4 8l-1 4l4 4h1l2 4l5 9l-7-1v3l4 5l5 15l6 4l6 2h9l-1 5l4 2l1 7l6-3l4 1l1 3l7 4l7-3l1-5l-1-2l3-4l3-6l1-1l-1-4l-5-6l-1-5l-2-1v-9l-10-1l-2-2l-1-7l1-1l4-1l2-9l5-5l5-3h7l5-5l8 2l5-3l1-6l2-6l4 1l3-3l4 2l4-3h5l5-6l3-7l-1-3l2-3h-6v-4l-6 1l2-3l-1-2v-9l3-2v-3l-6-3l-1-6l-6-4l-1-3l-7-1l-4-3l-7 3l-1 5l-2 1v4l-3 2l2 7l-3 4l-4 8l-4 1v4l-6-1l-2-2l-5-1l-7 1l-2 2l-1 5l-2 3h-4l-3 4l-4 1l-8-2l-1-1h-1v-1h-1v-1h-1v-1h-1h-1v-3l-10-1l-4 4l-8 2z"/><path id="49031" d="m308 919l-2 2l4 4l1 3l3 1l5 5l2 6l4-1l1-3l3 1v6l2 3h3l3 6l4 3l2 3l-1 6l-2 1v6l-6 7v3l4 5l-1 2l-6 3l-6 6v2l-4 6l76 1l22-2h22l-1-69l2-1l3-7l11-12h-59v-2h-12h-16h-63z"/><path id="49033" d="m507 25l4 6l-3 9l8 8l3 5l-1 7l3 2v9l4 3l-1 13l5 5l-3 5l1 3l-4 3l1 10l-1 7l-3 2l1 4h-3v3l-4 4v2l-3 8l-2 1l-2 11l1 2l6 4v4l6 5l5 1l7-3l4 3l7 1l1 3l6 4l1 6l6 3v3l-3 2v9l1 2l-2 3l6-1v4h6l-2 3l1 3l-3 7l-5 6h7l6-6l10-5l4-3v-3l4-2l2 2l5-10l2-2h4v-9v-20v-4v-50v-4v-54v-59h-74h-1h-1h-9l-7 1v3l5 3l2 8v5l-1 4z"/><path id="49035" d="m358 328l6 10l1 2l3 2l2 23l5 6l-2 6l1 16l-2 2l2 8l1 3v1l3 2l3-3l5 5l1 4l4-3l5 1l6-5l1 3l5 7l5 3l7-3l4-2l2-3l1-2h1l5-5l9-1l5-3l2-2l3-5l5-4h5l3 1l5-3l3 1l6-5l3-4l6 1l3-4l6-2l2-6l-5-9l-4-4l-1-2l2-9l-2-2l-1-1l-3-5v-6l-5-5l1-7l-1-7l-4-2l1-5h-9l-6-2h-2l-2 2l-11 3l-5 3l-7 2h-9h-4l-6-9l-1-6l3-9v-3l-10 1l-28 19z"/><path id="49037" d="m542 1290l-3 4h15h4h24h14l63-1h25h5h20h2l4 2h89h4h1h24h50h26l23-1h1h21h1h1h3h3h10l27 1v-19v-3v-3v-3v-1v-16v-6v-2v-10v-32l1-27v-4v-8v-18v-4v-1v-11v-11v-1v-7v-2v-13v-9v-1v-8v-2v-7v-17v-5v-1v-39v-3l-3-20l-1-8v-57h-83h-109l4 5l-2 8l-4-3l-2 2l3 1l5 8l-6 8l4 1v4l3-1l4-5l1 3l-2 3v4l5 2l1-3l2 1l-1 3l-3 2v3l3 3v4l3 2v4l1 2l4-3l1 4l-3 2l3 1l3 3l-6 2v2l6 2l-3 4l4 1l-10 8l1 1v1l-1 3l-5 2l-1 4l-4 2l-1 1h-1l-1-1l-1-1h-1l-2 1l-1 1v1l-1 1l-1 1l-1 2l-1 1v1v2v1v2l-2 1l-2 2l-2 3l-1 3l1 4l-2 2h-2l-2-1l-1-2h-3h-2l-1 1l-1 2l-2 2l-1 1l-1 1v3l-2 2l-2 1l-2 1l-2 3v3l1 4l-1 2l-3 3l-2-1h-5l-2-1l-2 2l-1 3v2l-1 2l-1-1l-1-3l-1-2h-5l-4-1h-5l-4 1l-3 2v4v2l-1 2l-2 1l-3 3v4l-3 2h-2h-2l-1 2v2l1 3l1 2h3l2-1l2 1v1l-4 5v4l-4 5l-3 2v4l-2 6l-1 2l-1 2l-3-1l-2 3l-4 1l-3 1v3l-1 3l-4 1l-2 4l-1 5l-5 3l-2 3l-1 2l-1 1l-2 3l-1 5v1l1 1h2l2 1v2h-1l-3 1h-7h-5l-1 2v2l-1 1h-1h-2v1l2 3l3 2h3l1 2l-1 2v2l-1 2l-3 1l-2-1l-2-1l-2 1l1 2l1 2l2 2l2 1v3l-2 1v2l-1 2l-1-1h-2v2l-1 2h-2l-3 2h-5l-3-2l-3-1l-3-3h-3v3l1 2l3 1l2 1l1 3l-2 4l-4 1v5l1 2l-2 1l-2 1h-1l1 3l1 1v2l-1 1l-2 1l-1 2l1 2v2l-2 2v2v2l-2-1h-1l-2 1v2l-1 3l-2 1h-1h-2v2v2l-1 2h-2h-1l-1-1l-1 1l1 1l-1 2l-1 1l-2-1h-3l-5 2l-2 2l-2-1v-2l-2 1l-2 1l-5-1h-2h-2l-1 2l-3 2l-2-2l-1-1l-2-1l-2 1l-4 6l-3 5h-1l-1-1l-1-1h-2l-1 2v2l1 1h1l1 3l-1 2h-3l-1-2l-1-4l-4-2l-2-1l-2-1l-1 1v2l2 2l2 2l-1 1l-2 1l-1 2v2h-2l-1-2z"/><path id="49039" d="m406 701v6l1 47v22h33l-1 3h10l100 1v-68v-7v-26v-12h11v-61v-28h-64h-15v4h4v3h7v12h-11v4l-9 4v3l-6 1v15l1 23v22h-7v11v9l-35 1v3l-7 1v7z"/><path id="49041" d="m305 910l1 3h63h16h12v2h59l2-2h90v-41h1l1-89l-1-3l-100-1h-10l1-3h-33l-1 13h-8l-1 2v7h-14v6h-4l1 8h-4l-1 7h-3v4l-7-1l-1 7v19l2 10l-4 1l-3 4l-6 1v4l-5 1v2h-10v-2h-18l-3 2l-2 8h-2v11h-4v8l-2-1l-1 12z"/><path id="49043" d="m481 320l-1 7l5 5v6l3 5l1 1l2 2l-2 9l1 2l4 4l5 9l5-1l8 3v-5l3-6l8-6l-1-4h5l3-3l1 4v4l5 9l8 1l5 5l7 5l6 2l4 1l7 4l6 3l3-3l1-5l2-3l8-1l5 3l6 1l4-4h6l3-4v-2l3-8l-1-4l3-5l7 1v-3l-1-5l2-2h1h1v-1h-1l-1-1v-1h1h2h1h1v1h1h1h1h1l1-1v1h1l1 1h1v1l1 1h1h1h1h1l1-1l1-1l1-1l1-1v-1h1h1l1-1l1-1v-1h2v-1h1h1h1h1h1h1h1v-1h1v-1h1v1h1l1 1h1l1 1h1h1v1h1l1-1h1h1h1l1-1l1-1v-1l1-1l1-1v-1l1-1h1h1v1h1l1 1l1 1h1l1-1h1h1l7-3h1h2l1 1v1l1 1l2-1h1h1v-1h1l1-1l1-1v-1h1l1 1l1 1h1l2-1v-1l1-1v1l1-1l1 1h1h1l1-1v-1l1-1h1l1 1v1h1h1l1-1h1h1h1h1h1l1-1l1-1h1v-1l1-1v-1l1-1v-1v-1l1-1v-1l1 1h1h1h2h1l1-1h1l1-2h1h1v1h1h1l2-1h2h2h1l1 1h1h1v1h2l1-1l1 1l1 1h2v-1h1l1 1h1l1 1h1l1-1h1l2 1v1h1l1 1l2-1h1v1h1h2h1l1 1l1-1h1h1h1h1l1-1h1h1h1h1l1-1v-1l1 1h1l1-1h1l1 1v1h1h1h1h1v-48l-2-1h-8l-15 1h-23h-2h-25h-25h-8h-35h-7l-59-1v-67h-4l-2 2l-5 10l-2-2l-4 2v3l-4 3l-10 5l-6 6h-7h-5l-4 3l-4-2l-3 3l-4-1l-2 6l-1 6l-5 3l-8-2l-5 5h-7l-5 3l-5 5l-2 9l-4 1l-1 1l1 7l2 2l10 1v9l2 1l1 5l5 6l1 4l-1 1l-3 6l-3 4l1 2l-1 5l-7 3l-7-4l-1-3l-4-1z"/><path id="49045" d="m1 530v24h160h180l2-5l-1-5l1-2l2 2l3-1l1 3l7-1l6-6l3-7l9-6l1-7l-2-5l5-10l2-3l-6-6l2-4l-1-2l6-5l-2-2l1-4l-2-1l2-3l-4-2l-2-3v-5l-3-4l1-6l-2-5v-5l5-2l-4-7l1-3l-2-3l1-10l-3-3l-1-6l5-3h3v-1l-1-3l-2-8l2-2l-1-16l2-6l-5-6l-2-23l-3-2l-1-2l-6-10l-47-82l-61 21h-80h-168v60v3v1v8v58l-1 3l1 17l-1 1v7v44v30v3v2v17z"/><path id="49047" d="m802 649l-3 1l4 3l1 6l2 2l-2 6h14l169 2l2-3l2-5l2 1l1-3v1h4v-43v-55v-48v-32v-11v-58v-13v-1v-11l1-21v-9v-2h-15v-6h-8v-23v-4h-8v-19h-39v18l-7 4l-1 5h-7l-2 4l-6-3l-1-8l1-3l-3-8l-9 3l-2-3l-4 3l-6-1l-9 6l-3-2h-5l-2 2l-5-2l-2 5h-5l-9 2v2l-7 1l-6-5l-2 1l-2-3l-5-1l-7-4v82v49v132h19l-2 2l4 2l-1 2l-4-2l-4 1l-2-3l1 6l-1 6h-3l-2 4l1 4l-2-1l-2-5l-5 1l4 9h-4l-2 6l3-1l1 6l-3 4h-2l-1 3l3 2l-3 1l-3 6l2 4l-4 5l2 3z"/><path id="49049" d="m367 410l1 6l3 3l-1 10l2 3l-1 3l4 7l-5 2v5l2 5l-1 6l3 4v5l2 3l4 2l-2 3l2 1l-1 4l2 2l-6 5l1 2l-2 4l6 6l-2 3l-5 10l2 5l-1 7l4 1l5 8l5 1l1 4v8l4 1v3l6 5l-1 3l-5 4l2 7l2 3l-3 7l-2 5l8 1l4-1l8-8l4 1l2-7l4-5l7-11l4-3l3 1l2-3l5-2v-4l1-2l3 2l4 2l2 8l5 3v3l4 4l-2 7l-4 6h25h15h64h33h45v-23h-7h-38v-11h-7l-3-1l2-5l-2-1l-2-4l-5-1v-4l-4-4l-4-7l-4 3l-4-3l-1-2l3-4l-1-4l4-10l-1-5v-6l-6-8l-3-7l1-5l-9-12h-10l-3-2l-13 2l-3-3l4-6l-9-10l-15-1l-1-6l-7-12l-3 1v-1l-2-4l9-10v-4l2-12l-5-8l-3 4l-6-1l-3 4l-6 5l-3-1l-5 3l-3-1h-5l-5 4l-3 5l-2 2l-5 3l-9 1l-5 5h-1l-1 2l-2 3l-4 2l-7 3l-5-3l-5-7l-1-3l-6 5l-5-1l-4 3l-1-4l-5-5l-3 3l-3-2h-3z"/><path id="49051" d="m485 412l2 4v1l3-1l7 12l1 6l15 1l9 10l-4 6l3 3l13-2l3 2h10l9 12l-1 5l3 7l6 8v6l1 5l-4 10l1 4l-3 4l1 2l4 3l4-3l4 7l4 4v4l5 1l2 4l2 1l-2 5l3 1h7v11h38l-1-47v-31v-60h-1v-65l-7-1l-3 5l1 4l-3 8v2l-3 4h-6l-4 4l-6-1l-5-3l-8 1l-2 3l-1 5l-3 3l-6-3l-7-4l-4-1l-6-2l-7-5l-5-5l-8-1l-5-9v-4l-1-4l-3 3h-5l1 4l-8 6l-3 6v5l-8-3l-5 1l-2 6l-6 2l5 8l-2 12v4z"/><path id="49053" d="m0 1146v18v1v3v3v5v10v4v11v20v2v13v15v6v4v7v4v22h17h82h12h33h73h13v-70v-1v-54h-27v6h-21l-1-1l-21-1v-11h-41h-3l-1-23h-22v4h-93z"/><path id="49055" d="m440 935l1 69h41v1l45-1h145h151l-1-1l10-8l-4-1l3-4l-6-2v-2l6-2l-3-3l-3-1l3-2l-1-4l-4 3l-1-2v-4l-3-2v-4l-3-3v-3l3-2l1-3l-2-1l-1 3l-5-2v-4l2-3l-1-3l-4 5l-3 1v-4l-4-1l6-8l-5-8l-3-1l2-2l4 3l2-8l-4-5h-104h-152v-3h-90l-2 2l-11 12l-3 7z"/><path id="49057" d="m311 246l9-2l52-18h22h11h10l3 4l9 1h2l8-1h1l1-4l-5-4l1-5l3-2l8-2l4-4l10 1v3h1h1v1h1v1h1v1h1l1 1l8 2l4-1l3-4h4l2-3l1-5l2-2l7-1l5 1l2 2l6 1v-4l4-1l4-8l3-4l-2-7l3-2v-4l2-1l1-5l-5-1l-6-5v-4l-6-4l-1-2l-6 4l-2-4l-5-2l-1 3l-7-1l-7 4l-3-6l-6 3l-5-3l3 6l-4 6v2l-7 2l-7-6l-3 1l-11-3l-4-7l-6 3l-9-4l-2 2l1 7l-1 5l2 3l-12 6l-1 2h-1h-41l-20 27z"/></svg>
