<?xml version="1.0" encoding="UTF-8"?><!DOCTYPE svg PUBLIC '-//W3C//DTD SVG 1.1//EN' 'http://www.w3.org/Graphics/SVG/1.1/DTD/svg11.dtd'><svg viewBox="0 0 1000 5645.96" xmlns="http://www.w3.org/2000/svg"><g data-id="69085"><path d="m959.6 4007.2l2.1 13.5l14.5 0l23.8 -33.2l-11.4 -12.4l-11.4 7.3l-17.6 24.9z"/><path d="m792.1 2863.2l-0.9 8.6l10.8 8.7l9.1 -11l-6.6 -8.6l-6.9 -2l-5.7 4.3z"/><path d="m777.3 2611.2l0.7 10.8l9.2 10.6l9.3 0.6l11.4 -12.3l-2.8 -13.6l-11 -10.6l-10.5 2.4l-6.2 12.2z"/><path d="m737.5 3395l1.2 9.6l12.9 5.4l6 -9.4l-1 -8.9l-9.9 -7.9l-9.2 11.2z"/><path d="m690.1 2203.2l-0.5 21.4l16.1 -4.7l14.2 -11.7l5 -10.9l12.9 -18.9l14.4 -10.7l11.2 0.7l10.3 -24l-3.4 -18.8l-7.2 -7l-19.9 -3.3l-11.3 3.5l-4.5 13.5l5.8 10.4l-5.5 10.1l2.1 11l-11.8 11.6l-10.9 9.9l-9.9 9.7l-6.9 8.1z"/><path d="m628 1578l3.5 28.5l22.4 18.9l15.3 -10.9l6 -6.5l5.7 -14l-2.6 -24.5l-13.8 -15.1l-19.2 -6.3l-12.9 15.9l-4.4 14.1z"/><path d="m625.6 3691l-0.4 14.8l11.3 16.6l26.6 -1.8l20.4 0.3l10.2 -3.9l7.8 -8.3l-1.3 -10.8l-16 -8.3l-13.3 1.1l-35.8 -1l-9.5 1.3z"/><path d="m421.9 765.6l0.4 12.9l11.2 6l8.5 -5.3l3.7 -8.6l-4.4 -10.8l-11.7 -2.6l-7.6 8.4z"/><path d="m271.9 469.4l-2.4 6.9l5.8 10.5l11.6 -0.6l8.9 -8.1l-7.4 -10.3l-8.8 -2.6l-7.7 4.2z"/><path d="m0 5l1.4 10.5l7.6 5.4l8.9 -7.9l-2 -8.9l-8.9 -4l-7 5z"/></g><path data-id="69100" d="m195.6 5633.7l3.3 6.3l11.4 -1.2l13.4 -10.2l8.6 2.7l6 14.6l33.7 -4.8l16.8 -14.2l7.5 -14.7l25.5 -2.1l11.2 -7.3l0.8 -12.7l4.3 -13.4l-29.6 -7.5l-15.4 1.2l-27.3 18.2l-35 7.4l-35.4 37.6z"/><path data-id="69110" d="m670.1 4763.7l2.6 10l14.4 12l21.3 0.6l13.7 12.4l6.8 -24.8l-10.6 -8.7l3.8 -21l18.3 0.7l7.7 2.9l11.6 2.2l-1.4 -7.7l4.5 -8.4l-11.7 -14l-1 -17.1l14.2 -23.4l8.2 -8.2l-0.8 -6.5l15.2 -11l3.2 -10.2l-8.1 -14.4l-7.8 -1.9l-33.1 34l-26.5 15.8l-24.6 -8.9l0.1 21.3l-8.7 53.3l-11.2 21z"/><g data-id="69120"><path d="m582.6 4864.4l0.6 19.8l12.2 2.5l12.4 17.9l13.6 25l5.7 15.4l8.4 -3.9l15.9 -17.6l1 -21.7l5.6 -24l-3.4 -13.7l-16.4 -15.3l10.3 -18.5l-3.3 -24.8l-9.9 -14.8l-15.5 15l-23.8 25l-13.5 33.7z"/><path d="m551.1 5000.3l-8.3 11.4l9.2 4.5l14.5 -3l10.5 -4.6l2.7 -9.4l-4.8 -5.6l-23.9 6.7z"/></g></svg>
