<?xml version="1.0" encoding="UTF-8"?><!DOCTYPE svg PUBLIC '-//W3C//DTD SVG 1.1//EN' 'http://www.w3.org/Graphics/SVG/1.1/DTD/svg11.dtd'><svg viewBox="0 0 1000 5645.96" xmlns="http://www.w3.org/2000/svg"><path id="69085" d="m960 4007l2 14h14l24-33l-11-13l-12 7zm-168-1144l-1 9l11 8l9-11l-6-8l-7-2zm-15-252l1 11l9 11h9l12-12l-3-14l-11-10l-11 2zm-40 784l2 10l13 5l6-9l-1-9l-10-8zm-47-1192v22l16-5l14-12l5-11l13-19l14-10h11l11-24l-4-18l-7-7l-20-4l-11 4l-5 13l6 11l-5 10l2 11l-12 11l-11 10l-10 10zm-62-625l3 29l23 18l15-11l6-6l6-14l-3-25l-14-15l-19-6l-13 16zm-2 2113l-1 15l11 16l27-1h20l11-4l7-8l-1-11l-16-8l-13 1l-36-1zm-204-2925v12l11 6l9-5l4-8l-5-11l-11-3zm-150-297l-3 7l6 11l12-1l9-8l-8-10l-8-3zm-272-464l1 10l8 6l9-8l-2-9l-9-4z"/><path id="69100" d="m196 5634l3 6l11-1l14-10l8 2l6 15l34-5l17-14l7-15l26-2l11-7l1-13l4-13l-29-8l-16 1l-27 19l-35 7z"/><path id="69110" d="m670 4764l3 10l14 12h21l14 13l7-25l-11-9l4-21l18 1l8 3l12 2l-2-8l5-8l-12-14l-1-17l14-24l8-8v-6l15-11l3-11l-8-14l-8-2l-33 34l-26 16l-25-9v21l-9 54z"/><path id="69120" d="m583 4864v20l12 3l13 18l13 25l6 15l8-4l16-17l1-22l6-24l-3-14l-17-15l11-19l-4-25l-10-14l-15 15l-24 25zm-32 136l-8 12l9 4l15-3l10-4l3-10l-5-5z"/></svg>
