<?xml version="1.0" encoding="UTF-8"?>
<!DOCTYPE svg PUBLIC '-//W3C//DTD SVG 1.1//EN' 'http://www.w3.org/Graphics/SVG/1.1/DTD/svg11.dtd'>
<svg viewBox="0 0 1000 5645.96" xmlns="http://www.w3.org/2000/svg">
  <g data-id="085">
    <path d="m959.571 4007.24l2.074 13.476l14.513 0l23.842 -33.172l-11.403 -12.44l-11.403 7.256l-17.623 24.88z" />
    <path d="m792.076 2863.17l-0.857 8.589l10.844 8.69l9.134 -10.969l-6.588 -8.648l-6.878 -1.999l-5.655 4.338z" />
    <path d="m777.254 2611.18l0.657 10.772l9.206 10.552l9.283 0.552l11.363 -12.317l-2.826 -13.612l-11.008 -10.601l-10.515 2.413l-6.161 12.239z" />
    <path d="m737.495 3395l1.221 9.649l12.909 5.435l5.956 -9.406l-0.993 -8.936l-9.929 -7.944l-9.165 11.202z" />
    <path d="m690.064 2203.24l-0.543 21.36l16.101 -4.665l14.229 -11.731l4.964 -10.922l12.908 -18.865l14.394 -10.676l11.2 0.706l10.252 -23.958l-3.38 -18.844l-7.229 -7.003l-19.88 -3.285l-11.315 3.487l-4.462 13.519l5.755 10.399l-5.504 10.08l2.136 11.01l-11.826 11.586l-10.922 9.93l-9.941 9.737l-6.939 8.135z" />
    <path d="m627.993 1578.02l3.49 28.485l22.386 18.882l15.279 -10.929l5.992 -6.538l5.671 -14.008l-2.566 -24.496l-13.811 -15.115l-19.192 -6.305l-12.897 15.881l-4.354 14.143z" />
    <path d="m625.611 3691.02l-0.411 14.795l11.263 16.627l26.606 -1.754l20.373 0.257l10.186 -3.938l7.822 -8.317l-1.338 -10.831l-15.985 -8.284l-13.254 1.149l-35.793 -1.002l-9.469 1.298z" />
    <path d="m421.884 765.569l0.412 12.898l11.172 6.02l8.461 -5.321l3.696 -8.551l-4.354 -10.819l-11.747 -2.617l-7.641 8.391z" />
    <path d="m271.931 469.388l-2.441 6.862l5.826 10.541l11.642 -0.552l8.914 -8.082l-7.392 -10.347l-8.847 -2.649l-7.701 4.228z" />
    <path d="m0 4.965l1.374 10.482l7.562 5.404l8.936 -7.943l-1.986 -8.936l-8.936 -3.972l-6.95 4.965z" />
  </g>
  <g data-id="100">
    <path d="m195.573 5633.72l3.334 6.331l11.445 -1.164l13.365 -10.158l8.554 2.673l6.017 14.564l33.696 -4.799l16.791 -14.238l7.519 -14.7l25.538 -2.096l11.25 -7.336l0.825 -12.658l4.29 -13.421l-29.591 -7.507l-15.361 1.186l-27.268 18.24l-35 7.433l-35.402 37.649z" />
  </g>
  <g data-id="110">
    <path d="m670.13 4763.65l2.554 10.027l14.372 11.978l21.259 0.631l13.654 12.387l6.818 -24.846l-10.597 -8.679l3.799 -21.039l18.286 0.661l7.673 2.888l11.63 2.197l-1.426 -7.718l4.48 -8.392l-11.747 -14.044l-0.985 -17.11l14.223 -23.386l8.215 -8.212l-0.8 -6.479l15.246 -10.962l3.21 -10.235l-8.077 -14.377l-7.784 -1.856l-33.067 33.991l-26.539 15.826l-24.562 -8.886l0.082 21.325l-8.74 53.342l-11.176 20.97z" />
  </g>
  <g data-id="120">
    <path d="m582.627 4864.43l0.647 19.801l12.224 2.496l12.369 17.932l13.554 24.998l5.668 15.388l8.379 -3.91l15.906 -17.564l1.049 -21.713l5.635 -23.987l-3.369 -13.693l-16.429 -15.31l10.32 -18.543l-3.338 -24.842l-9.857 -14.804l-15.526 14.975l-23.757 25.027l-13.476 33.748z" />
    <path d="m551.138 5000.33l-8.293 11.403l9.244 4.452l14.458 -2.974l10.507 -4.588l2.731 -9.388l-4.777 -5.571l-23.87 6.666z" />
  </g>
</svg>
