<?xml version="1.0" encoding="UTF-8"?>
<!DOCTYPE svg PUBLIC '-//W3C//DTD SVG 1.1//EN' 'http://www.w3.org/Graphics/SVG/1.1/DTD/svg11.dtd'>
<svg viewBox="0 0 3486.22 19683.1" xmlns="http://www.w3.org/2000/svg">
  <g data-id="085">
    <path d="m3345.3 13970.1l0 0l7.2 47l50.6 0l83.1 -115.6l-39.8 -43.4l-39.8 25.3l-61.4 86.7z" />
    <path d="m2761.4 9981.6l0 0l-3 29.9l37.8 30.3l31.8 -38.2l-23 -30.1l-24 -7l-19.7 15.1z" />
    <path d="m2709.7 9103.1l0 0l2.3 37.6l32.1 36.8l32.4 1.9l39.6 -42.9l-9.9 -47.5l-38.4 -37l-36.7 8.4l-21.5 42.7z" />
    <path d="m2571.1 11835.7l0 0l4.3 33.6l45 18.9l20.8 -32.8l-3.5 -31.2l-34.6 -27.7l-31.9 39.1z" />
    <path d="m2405.7 7681l0 0l-1.9 74.5l56.1 -16.3l49.6 -40.9l17.3 -38.1l45 -65.8l50.2 -37.2l39 2.5l35.7 -83.5l-11.8 -65.7l-25.2 -24.4l-69.3 -11.5l-39.4 12.2l-15.6 47.1l20.1 36.3l-19.2 35.1l7.4 38.4l-41.2 40.4l-38.1 34.6l-34.7 33.9l-24.2 28.4z" />
    <path d="m2189.3 5501.3l0 0l12.2 99.3l78 65.8l53.3 -38.1l20.9 -22.8l19.8 -48.8l-8.9 -85.4l-48.1 -52.7l-66.9 -22l-45 55.4l-15.2 49.3z" />
    <path d="m2181 12867.7l0 0l-1.4 51.6l39.3 58l92.8 -6.1l71 0.9l35.5 -13.7l27.3 -29l-4.7 -37.8l-55.7 -28.9l-46.2 4l-124.8 -3.5l-33 4.5z" />
    <path d="m1470.8 2668.9l0 0l1.4 45l38.9 21l29.5 -18.6l12.9 -29.8l-15.2 -37.7l-41 -9.1l-26.6 29.3z" />
    <path d="m948 1636.4l0 0l-8.5 23.9l20.3 36.7l40.6 -1.9l31.1 -28.2l-25.8 -36.1l-30.8 -9.2l-26.8 14.7z" />
    <path d="m0 17.3l0 0l4.8 36.5l26.4 18.8l31.2 -27.7l-6.9 -31.2l-31.2 -13.8l-24.2 17.3z" />
  </g>
  <g data-id="100">
    <path d="m681.8 19640.4l0 0l11.6 22.1l39.9 -4.1l46.6 -35.4l29.8 9.3l21 50.8l117.5 -16.7l58.5 -49.6l26.2 -51.2l89 -7.3l39.2 -25.6l2.9 -44.1l15 -46.8l-103.2 -26.2l-53.6 4.1l-95.1 63.6l-122 25.9l-123.4 131.3z" />
  </g>
  <g data-id="110">
    <path d="m2336.2 16607.2l0 0l8.9 35l50.1 41.8l74.1 2.2l47.6 43.2l23.8 -86.6l-36.9 -30.3l13.2 -73.3l63.7 2.3l26.8 10.1l40.5 7.7l-5 -26.9l15.6 -29.3l-41 -49l-3.4 -59.6l49.6 -81.5l28.6 -28.6l-2.8 -22.6l53.2 -38.2l11.2 -35.7l-28.2 -50.1l-27.1 -6.5l-115.3 118.5l-92.5 55.2l-85.6 -31l0.3 74.3l-30.5 186l-39 73.1z" />
  </g>
  <g data-id="120">
    <path d="m2031.2 16958.5l0 0l2.3 69l42.6 8.7l43.1 62.5l47.3 87.1l19.8 53.6l29.2 -13.6l55.5 -61.2l3.7 -75.7l19.6 -83.6l-11.7 -47.7l-57.3 -53.4l36 -64.6l-11.6 -86.6l-34.4 -51.6l-54.1 52.2l-82.8 87.3l-47 117.7z" />
    <path d="m1921.4 17432.3l0 0l-28.9 39.8l32.2 15.5l50.4 -10.4l36.6 -16l9.5 -32.7l-16.7 -19.4l-83.2 23.2z" />
  </g>
</svg>
