<?xml version="1.0" encoding="UTF-8"?>
<!DOCTYPE svg PUBLIC '-//W3C//DTD SVG 1.1//EN' 'http://www.w3.org/Graphics/SVG/1.1/DTD/svg11.dtd'>
<svg viewBox="0 0 1000 651.009" xmlns="http://www.w3.org/2000/svg">
  <g data-id="001">
    <path d="m770.627 490.287l-1.313 2.299l1.474 1.595l0.862 3.699l2.863 2.616l1.25 2.215l0.341 1.318l-1.084 0.571l-0.307 1.927l0.38 1.065l6.47 2.164l3.089 5.822l1.829 5.201l0.298 5.924l1.303 0.817l0.332 1.008l1.249 7.14l0.141 4.134l2.528 1.409l1.585 -0.652l1.176 0.685l-0.192 2.598l0.165 5.709l0.471 1.607l2.32 2.942l-0.875 2.796l2.768 4.506l1.855 5.836l0.247 2.129l-0.641 7.44l-0.844 4.726l-1.311 3.157l-0.431 5.506l0.289 2.405l-2.565 12.034l-0.753 6.767l2.396 7.79l4.058 4.935l0.405 3.207l5.54 3.015l8.793 1.904l7.814 6.246l6.903 2.41l6.052 5.616l0.542 1.622l0.451 1.717l1.083 0.906l1.805 0.239l2.485 -1.432l3.756 -3.282l2.4 -3.539l2.028 -2.034l2.224 -0.228l0.982 -1.765l0.09 -3.534l2.597 -4.551l0.975 -1.006l1.866 -0.995l1.668 -2.729l0.403 -1.433l-0.027 -3.004l-0.458 -2.48l1.229 -1.293l1.162 -0.443l2.923 -4.406l1.7 -0.645l1.381 -1.415l-0.479 -1.596l1.739 -1.052l7.282 -1.762l2.233 -0.971l3.86 -3.633l0.997 -1.737l1.787 -1.618l4.902 -2.591l2.217 -0.246l3.31 -1.264l2.111 -1.718l1.448 -3.17l5.128 -3.243l1.537 -1.896l1.515 -1.139l5.908 -1.543l3.797 0.565l6.998 2.026l1.771 -0.076l1.624 -0.947l2.76 -0.565l2.349 0.133l4.767 -1.504l3.755 -2.826l9.474 -5.068l7.572 -2.86l7.293 -3.501l2.986 -3.186l3.756 -3.158l2.833 -3.078l7.528 -5.609l3.543 -2.281l5.514 -4.974l2.863 -3.441l2.498 -7.37l-0.926 -2.146l-2.264 -1.47l-1.958 -0.142l-2.8 -2.11l-4.114 -1.487l-5.246 -2.697l-3.838 -3.108l-0.695 -1.2l-1.054 -0.937l-2.42 -1.434l-0.718 -1.709l0.606 -1.626l-2.981 -1.103l-1.913 -1.092l-1.734 -1.648l-0.173 -5.956l0.665 -3.617l-1.115 -3.483l-0.687 -1.448l-1.171 -2.468l-1.681 -2.091l-7.161 -0.105l-3.417 2.13l-2.841 0.532l-1.414 -0.355l-1.152 -1.901l-0.014 -3.777l-0.01 -2.88l0.266 -5.387l-0.431 -3.028l0.999 -2.295l0.608 -2.331l0.242 -2.179l-0.365 -1.107l-1.598 -2.44l-2.299 -0.896l-2.612 -2.665l-0.527 -2.187l-1.216 -1.86l-2.419 -2.683l-6.534 -5.641l-2.694 -1.759l-1.818 -2.165l-6.7 -4.056l-5.401 -4.764l-2.263 -1.456l-2.362 -0.483l-6.384 -2.755l-10.545 -5.597l-2.725 -1.648l-7.639 -3.87l-4.458 -1.757l-6.314 -1.93l-2.616 -0.21l-1.262 -0.939l-6.484 -2.26l-1.734 0.201l-2.447 1.356l-1.699 0.219l-1.307 -0.4l-1.795 -2.633l-3.082 -1.551l-1.069 -0.197l-4.335 -4.003l-8.14 -4.189l-6.333 -3.26l-0.573 -1.376l-0.217 -2.029l-1.818 -1.871l-4.75 -2.563l-1.011 -0.065l-6.108 -2.856l-7.69 -2.2l-3.792 0.745l-1.601 0.924l-1.476 1.526l-1.983 3.811l-0.842 6l1.266 11.638l2.75 7.631l3.172 5.5l3.041 3.16l4.081 5.299l0.498 1.855l-0.642 5.947l-0.548 2.497l-0.618 1.31l-3.911 1.407l-1.899 2.877l-4.708 4.304l-0.357 1.024l-1.381 2.902l-1.87 3.63l-0.643 1.249l-1.807 2.37l-0.156 2.143l-2.568 2.292l-1.081 -0.38l-3.424 -0.181l-2.175 0.909l-1.134 0.953l-3.882 4.941l-3.27 3.549l-5.132 4.249l-0.49 4.613l-0.902 2.793z" />
  </g>
  <g data-id="003">
    <path d="m362.472 129.535l1.206 1.652l3.758 2.581l3.007 3.422l0.471 1.388l0.106 1.814l-0.336 7.163l2.491 3.52l2.585 1.973l2.395 2.321l1.784 3.548l0.303 1.818l-0.05 2.22l0.381 1.052l3.209 1.583l2.21 2.186l1.731 2.252l1.298 2.88l0.503 2.01l0.927 3.702l0.544 1.552l0.257 1.085l1.544 2.96l1.728 0.789l2.757 -0.178l8.054 -1.423l3.674 -0.649l2.398 -0.395l5.502 -0.907l1.354 -0.726l0.908 -1.326l3.187 1.49l0.21 1.23l-0.281 1.179l7.599 0.151l3.846 -0.144l3.674 2.224l1.621 0.981l1.865 1.129l3.52 0.992l1.208 1.591l0.226 1.348l2.665 1.361l3.033 -0.533l2.418 -0.957l2.187 -2.143l1.994 -0.371l4.601 -0.792l2.254 0.637l1.563 1.339l-0.515 1.085l2.592 0.493l1.048 -0.493l1.585 -1.827l6.386 -4.548l-0.092 -1.939l-0.049 -1.037l-1.08 0.092l-4.581 -2.469l-2.059 -1.372l-2.758 -4.046l-0.331 -1.007l-0.368 -2.053l0.717 -2.053l-1.875 -3.317l-0.541 -1.085l-1.17 -0.1l-1.908 -0.434l-0.48 -2.036l0.083 -1.863l0.908 -2.839l0.826 -1.242l1.024 -1.039l0.598 -1.827l-2.778 0.027l-1.357 1.098l-3.598 -1.542l-1.404 0.71l-1.233 2.239l2.91 1.697l-1.755 3.612l-0.994 1.521l-1.556 -0.753l-3.564 -2.857l-1.11 -1.52l-0.801 -2.449l-1.579 -1.023l-2.959 -0.811l-0.827 -1.435l-0.623 -3.119l-0.688 -3.444l0.56 -1.902l2.244 -0.491l0.078 -3.529l-2.872 -5.448l-2.634 -1.223l-1.035 1.212l-1.116 -0.516l0.23 -2.984l-4.269 -6.051l-1.879 -1.047l-2.39 -3.582l0.184 -1.345l-0.329 -2.983l-1.013 -0.794l-1.636 -2.729l-1.503 -4.069l-3.944 -4.577l-3.383 0.042l-5.716 2.481l-3.506 3.097l-4.908 5.123l-0.517 1.199l-0.016 1.709l-2.407 3.085l-5.2 4.076l0.269 2.157l-2.921 1.636l-8.711 1.186l-3.806 -0.71l-11.713 0.634l-4.274 0.77z" />
  </g>
  <g data-id="005">
    <path d="m594.654 207.171l1.918 1.378l5.602 0.645l2.047 3.129l0.021 -4.088l0.636 3.777l3.088 0.153l4.423 6.049l3.278 -0.423l0.251 -3.149l-3.561 -4.075l-5.13 -1.515l-0.855 -1.315l-0.156 -1.779l-2.057 -4.036l-1.143 -0.964l-2.752 0.95l-0.686 4.505l-2.085 1.405l-2.839 -0.647z" />
  </g>
  <g data-id="007">
    <path d="m84.862 40.184l0.228 2.241l2.303 2.565l1.551 3.821l2.011 1.749l6.077 1.778l2.562 1.501l7.184 1.515l1.456 2.148l2.027 1.763l2.488 3.488l4.318 3.022l1.739 1.732l1.079 -0.487l1.783 -0.805l2.424 1.181l3.444 0.881l5.307 0.886l2.704 -0.832l3.423 0.559l3.353 0.622l5.602 2.673l2.006 -1.103l2.108 -1.514l1.07 -1.28l2.215 -1.003l1.422 -1.901l1.594 -0.061l0.54 -1.816l0.99 -1.731l2.205 -0.925l2.353 -1.144l1.531 -0.942l1.668 -2.934l1.433 -1.785l-0.664 -3.582l0.751 -2.665l-0.58 -1.518l-0.555 -2.021l-0.552 -2.755l0.754 -3.62l0.327 -1.788l1.473 -0.645l1.179 -1.478l0.303 -2.778l1.701 -2.481l0.641 -2.224l1.334 -1.184l0.665 -3.542l-0.049 -4.243l-1.048 -0.655l-1.354 -0.524l0.655 -1.922l-1.805 -2.566l0.057 -2.021l-2.971 -2.359l-0.573 -1.003l-3.344 -2.976l-2.158 0.181l-3.798 -0.572l-0.138 -1.549l-3.593 -1.555l-0.786 1.375l-2.387 0.506l-2.202 0.619l-3.202 -1.02l-2.152 0.159l-2.143 -0.675l-2.84 -0.349l-2.387 2.053l0.639 1.005l-0.175 1.18l-2.272 0.917l-1.296 -2.118l-2.35 -0.305l-1.553 0.37l-0.898 -1.55l-2.772 -0.984l-1.966 0.655l-2.088 -0.027l-5.623 4.388l-3.477 1.723l-3.317 2.436l-5.112 2.578l-2.599 0.784l-2.752 0.83l-2.247 1.52l-2.35 2.324l-1.41 4.066l-1.292 4.356l-7.077 6.469l-0.022 3.389l-0.75 3.511z" />
    <path d="m0.858 76.083l-0.858 6.693l2.726 3.906l3.076 2.309l2.241 0.839l0.997 -1.378l1.957 -7.122l2.755 -4.846l2.422 -3.53l2.575 -1.598l4.288 -0.787l4.666 -1.569l3.645 -2.252l-0.174 -2.918l-1.062 -3.267l1.359 -5.521l2.313 -4.243l1.742 -0.273l0.798 -1.138l-1.204 -2.517l-2.496 -1.379l-4.472 0.366l-2.995 1.238l-1.749 6.415l-0.926 1.461l-1.792 1.363l-5.592 3.125l-4.17 1.837l-2.308 2.213l-2.043 2.621l-2.782 1.996l-2.937 7.957z" />
  </g>
  <g data-id="009">
    <path d="m652.494 259.341l1.572 1.612l0.589 1.203l0.06 3.07l1.686 3.97l8.61 9.697l17.286 8.422l2.304 -0.474l1.695 -2.637l1.832 -1.028l3.038 0.221l2.929 1.491l1.75 1.787l0.248 1.215l0.083 4.233l0.699 3.396l1.019 1.059l0.341 1.143l0.438 4.074l0.916 9.572l-0.408 1.326l-0.874 1.386l1.428 5.572l-0.25 1.159l1.077 1.297l1.197 0.627l1.604 -0.773l1.101 0.954l-0.069 1.47l7.332 2.219l1.27 -0.065l2.039 -0.632l1.455 -0.98l5.289 -0.256l3.723 0.407l1.698 -0.507l1.666 -1.513l3.395 -1.01l3.569 -1.834l1.904 -0.979l1.986 -1.373l2.772 -1.096l3.184 -0.639l1.541 0.403l2.052 1.104l3.055 -1.088l1.597 0.112l0.996 1.073l2.347 -0.77l1.638 -1.21l5.812 -2.914l1.451 -1.153l3.992 0.46l1.171 -0.447l1.764 -2.079l0.633 -1.536l1.772 -1.912l1.959 -0.865l1.083 0.231l2.257 -2.433l1.9 -3.064l0.794 -1.781l0.331 -4.231l-0.264 -2.817l0.416 -1.753l-0.617 -1.78l-2.758 -2.53l-0.108 -1.205l-5.469 -2.497l-4.871 -0.451l-5.607 -4.195l-1.807 0.663l-2.87 0.236l-2.508 -3.975l-0.604 -2.726l-6.264 -0.841l-0.682 -1.762l-8.434 -6.381l-0.296 -1.877l-1.618 -0.021l-0.625 -3.003l-2.279 -1.162l-3.778 -0.6l-2.207 0.694l-2.062 -2.035l-3.835 0.977l-3.195 -1.465l-1.514 0.735l-1.755 1.518l-1.891 -0.527l-3.323 1.721l-2.815 2.579l-1.534 0.356l-5.198 1.205l-5.097 1.788l-4.485 1.573l-1.027 -0.642l-2.368 -3.582l-0.482 -2.36l-0.661 -1.293l-1.55 -0.651l-0.792 -2.637l-1.191 -0.666l-1.753 -2.578l-3.317 -7.348l-3.029 -2.183l-3.249 -0.789l-2.17 -2.503l-2.57 -0.294l-1.071 1.398l-1.381 -0.102l-4.27 0.041l-0.25 1.038l-0.33 1.555l-1.186 1.068l-2.407 0.382l-2.829 5.275l-2.427 5.424l-1.062 6.313z" />
    <path d="m652.058 335.632l-0.259 1.023l3.811 4.016l2.597 0.4l3.924 -1.429l3 -0.575l5.018 -1.851l3.236 2.485l4.824 -1.998l1.834 0.318l1.075 -0.496l0.732 -2.343l-2.358 -0.911l0.755 -5.734l1.121 -0.998l-0.042 -1.265l-1.943 -2.87l-2.488 -1.996l-1.789 -0.329l-6.225 2.514l-0.71 1.308l-6.795 4.228l-5.245 1.679l-3.044 3.018l-1.03 1.805z" />
    <path d="m585.839 262.538l0.254 2.705l0.269 1.181l0.939 1.459l8.022 4.474l3.507 5.483l0.533 2.184l-0.932 5.668l1.701 5.897l3.099 4.245l3.471 -0.77l7.339 -0.105l3.453 -1.046l3.776 -1.935l3.359 -1.055l2.419 -0.886l3.841 -5.904l1.464 -2.864l0.183 -2.208l-0.203 -1.109l-2.879 -4.857l-2.171 -2.526l-11.051 -10.195l-3.912 -1.407l-3.507 -0.537l-6.264 -0.193l-3.347 -1.156l-3.711 0.466l-2.872 0.045l-1.868 0.482l-4.29 2.69l-0.621 1.775z" />
    <path d="m540.209 223.701l2.189 1.627l8.512 1.123l19.019 -0.762l4.089 -1.242l5.741 -1.131l2.743 0.317l5.908 1.213l3.028 0.931l1.08 0.41l4.715 2.415l8.575 2.093l8.279 2.032l3.104 0.784l2.722 0.499l3.563 -1.267l4.517 -0.314l5.694 -1.925l2.772 -2.352l3.957 -2.581l4.825 -3.782l3.024 -3.471l1.922 -2.971l0.612 -2.883l-1.89 -1.036l-3.173 0.4l-0.311 -1.999l-6.094 -1.584l-9.273 1.057l-3.612 1.334l-4.844 0.671l-5.256 -1.515l-0.301 1.236l-3.69 -0.461l3.561 4.075l-0.251 3.149l-3.278 0.423l-4.423 -6.049l-3.088 -0.153l-0.636 -3.777l-0.021 4.088l-2.047 -3.129l-5.602 -0.645l-1.918 -1.378l-4.675 -1.066l-1.428 0.034l-3.034 0.328l-6.196 -1.762l-2.843 0.126l-2.715 -0.811l-3.018 -0.21l-2.293 0.365l-5.23 -0.965l-1.266 -0.403l-1.78 -2.298l-1.83 -0.503l-2.64 0.328l-2.774 -0.155l-2.859 -1.242l-1.118 1.261l1.145 1.027l1.227 1.563l-0.137 3.31l0.241 1.291l-1.291 2.629l-2.414 2.097l-1.354 0.394l-2.061 2.287l-0.723 2.164l-1.173 2.975l-2.205 3.768z" />
  </g>
</svg>
