<?xml version="1.0" encoding="UTF-8"?><!DOCTYPE svg PUBLIC '-//W3C//DTD SVG 1.1//EN' 'http://www.w3.org/Graphics/SVG/1.1/DTD/svg11.dtd'><svg viewBox="0 0 1000 652.33" xmlns="http://www.w3.org/2000/svg"><path data-zip="96701" d="m421.6 168.7l-0.5 1.1l2.4 1.5l1.7 -1.7l-0.2 1.5l1.2 0.8l0.7 -1.5l1.4 2.77556e-17l1.4 0.6l1.9 -0.4l2.6 -0.9l1.9 -0.8l1.7 -1.3l1.2 -0.6l1 -0.5l0.6 -1l1.3 -0.6l1.1 -0.2l0 -1.8l-2.77556e-17 -1.3l-1.2 -0.9l-1 -0.9l-1.5 -0.4l-1.4 -0.4l-1.2 0.7l-1.4 0.4l-1.1 0.5l-1 0.6l-1.2 1l-1.5 0.8l-1 0.8l-1.1 0.4l-1.8 -0.7l-1.1 -0.2l-1 0.2l-1.2 0.1l-1.1 1.8l-0.4 1.6l0.2 1.1l-0.3 1.1z"/><g data-zip="96703"><path d="m165.5 7.8l1 0.5l-0.1 1.4l1 0.1l1.7 -2.2l1.1 1l-1.4 -1.3l-0.5 -1l-1.4 -0.1l-1.5 1.4z"/><path d="m151.1 15.9l0.2 1l0.9 1.1l1.2 1.4l0.6 1.1l1.5 0.4l1.1 -0.6l1.6 0.4l1.4 0l1.1 -0.3l0.1 -1l1.2 -0.3l0.6 -1.5l1.2 -0.3l1 0l1 0.2l1.4 0.5l1.2 0.5l1.4 0.3l0.4 -1.3l-0.3 -1.2l1.5 -0.5l-0.1 1.6l0.4 1.3l-0.5 1l-1.8 0.1l-1.1 -0.1l0.1 1l1.2 0.3l-1 1l1.7 0.9l1.4 0.6l1.6 0.9l0.7 -1.7l-0.3 -1.5l1.4 0.4l-0.2 -1l-1 0.1l1 -1.1l-0.2 -1.3l-0.1 -1.2l-1.1 2.77556e-17l-0.5 -2.1l-0.6 -1.9l-0.8 -1.1l-1.4 -0.1l-1 0.9l-1.2 -1l-0.4 -1.5l-2.3 0.4l-1.1 -0.1l-1.3 -0.4l-1.1 1l-1.2 0.2l-0.3 1.2l-0.4 2l-1.2 -0.1l-1.1 0.5l-1.3 0.7l-1.7 0.3l-1.4 -0.4l-1.2 0.2l-1.2 0.1z"/></g><path data-zip="96704" d="m791.7 540l0.8 1.1l1 -0.2l1.1 0.3l0.8 1.1l-0.5 1.9l-1 1.3l1.1 1.1l0.3 1.5l-0.2 1.9l0.3 1.1l1.3 1l0.8 1.9l0.8 1l-1 2l2.1 4.3l1.5 4.3l0.7 2l0.3 1.3l0 1.8l-0.8 1l-0.2 1.1l0.5 1l0 1.3l-0.4 1.2l0.1 1.4l-0.3 1.8l0 1.6l-0.8 2.7l-0.7 1.2l-0.2 1.8l0.6 1.4l-0.6 1.5l-0.3 1.8l0.2 1.5l0.4 1l-1.2 1.5l-0.4 3.1l-0.5 1.1l0.4 1.9l-0.7 1.2l-0.8 1.7l1.1 1.1l-0.2 1l-0.6 1.2l-0.7 1.1l0.2 1.3l-0.2 2.5l1.3 3.6l0.6 2.4l1.3 -0.3l1.5 -0.6l8.9 -6.8l14.1 -11.8l5.3 -4.1l0.5 -8.8l0.4 -2.7l0.3 -1.5l4.2 -7.1l2.3 -3.7l1 -1.6l4 -4.6l1.3 -1.5l1.1 -1.4l2.7 -3.3l4.2 -6.1l-5.6 -3l1.4 -2.7l-18.6 7.7l-1.1 0.8l-1.4 0.3l-1.2 0l-1.8 -0.6l-0.2 1.1l0.1 1.1l-1 0.8l-1.1 0l-1.2 -1l-1.3 0.4l-1.2 -0.2l-1.5 -0.1l-1.3 0.2l-2.3 -0.4l-2.7 0.4l-0.8 -1.2l-1.2 -1.8l-1.2 -0.3l-1.3 0.1l-1.3 0.3l-1.2 -1.4l0.4 -1.1l-0.3 -1.5l0.3 -1.3l0 -1.4l17 -3.7l-0.3 -1.1l0 -1l-1.7 -2.1l2.5 0.6l2.5 -0.2l1.4 -2l0.3 -1.4l-0.3 -4.6l-3 0.6l-1.5 -0.2l-1.6 0.1l-1.5 -0.1l-1.5 -0.4l-1.1 -0.6l-1.2 0.7l-1.6 0l-1.8 -0.1l-1 0.5l-1.5 0.3l-1.2 0.2l-1 0.3l-1.6 0.5l-1.4 0.3l-1.7 0.7l-1.2 0l0.2 1.4l-1.4 0.6l-2 0.2l-5.55112e-17 1.6l-1 0.9l-2.1 -0.2l-1.1 0.1z"/><path data-zip="96705" d="m120.9 65.3l1.2 0.9l1.7 1l2.5 0.7l1.7 0.5l1.3 -0.1l1.2 0.2l-0.4 -1l-1.1 -0.5l-0.1 -1.6l-1.5 0l-1.2 0.4l-1.5 -0.8l-1.1 -0.1l0.4 -1l0.7 -1l-1.2 -0.2l-1 0.5l-0.3 1.1l-0.9 1.2z"/><path data-zip="96706" d="m402 171.6l1.3 0.9l0.7 1.5l-0.2 1.4l-0.4 1.4l0.9 1.5l1.1 0.1l0.8 1.1l0.7 1.5l-2 1l0.1 2l2.2 -0.3l2.1 -0.4l7.3 -1.7l1.8 -1.1l0.2 -1.3l-0.2 -1.1l-0.8 -1.7l-1.2 -1.4l-1.8 -0.4l-2 -0.7l-1.4 -1.9l-0.5 -1l-1.7 -0.3l-1 -1.2l-0.8 -1.1l-1.6 1l-1.4 0.6l-1.6 1.4z"/><path data-zip="96707" d="m388.2 171.2l0.5 1.2l0.5 1.3l0.3 2.8l0.7 1.3l0 1.3l0.7 2.2l1.2 2.6l1.8 1.2l3.5 0l3 -0.8l3.3 -0.3l1.1 -0.5l-0.1 -2l2 -1l-0.7 -1.5l-0.8 -1.1l-1.1 -0.1l-0.8 -1.2l0.3 -1.7l0.2 -1.4l-0.7 -1.5l-1.2 -0.8l1.5 -1.7l2 -1l1.6 -1l-1.4 -3.3l-1.5 -3.4l-1.2 -1.6l-1 -2.4l-1.2 -1.3l-1.5 -0.4l-1.5 -1l-1.1 -0.2l-0.9 1l-0.4 1.2l0.2 1l1 1.1l-0.1 1l-1.4 1.5l-0.6 1.1l0.6 1.5l0 1.1l-0.9 1.2l0 1.2l-1 1l-1.2 0.4l-1.5 0.7l-1.3 1.6z"/><g data-zip="96708"><path d="m769.7 281z"/><path d="m768.9 280.2z"/><path d="m714 257l1.6 1.9l0.9 1.1l1 -0.5l0.3 -1.2l1.4 0.4l0.1 1.2l0.9 1.3l0.1 1.6l0.6 1.1l0.7 1.6l-0.1 1.1l-0.1 1.2l0.8 1l1.5 0.4l1.2 1.2l1.3 0.8l1.1 0.5l0.3 1.2l1.3 0.5l1.1 0.3l0.9 1.1l1.1 0.6l1.3 0.2l1.1 0.6l1.1 -0.1l1.1 0.1l1 0.2l1.2 0.2l1 0.4l-0.6 1.8l-0.6 1l-0.1 1.4l-0.1 1.4l0 1.2l-0.5 1.1l-0.2 1.1l0.1 1.2l0.1 1.1l0.5 1.2l1.9 1.7l5.3 2.7l2.9 1.8l2.3 0l0.2 -2l0.2 -1l0.6 -1.5l0.8 -1.3l0.4 -1.1l0.7 -1l0.6 -1.2l0 -1.1l0.1 -1l0.3 -1.2l0.7 -1.1l0 -1.4l0.4 -1.4l1.3 0.3l1.5 0.4l1.1 0.6l1.3 0.5l1.1 0.1l1.3 0.6l0.4 -1.1l1 -0.3l0.1 -1l-0.7 -1.1l1 0l-1.6 -0.4l-1.7 0.4l-1.8 -0.3l-1.1 -2.4l-1.2 -0.5l-0.3 -2.7l-2.7 -0.6l0 -1.4l-1.5 1.1l-1.1 -0.4l-1.6 -0.8l0 -1.1l-1.4 -1.1l-1.3 -0.5l-0.8 -1l-1 -0.6l-0.6 -1.3l-1.6 -0.8l-1.3 -1l-0.7 -1l0 -1.1l-1.7 -0.3l-0.6 -1.2l-0.2 -1.5l-1.4 -0.5l-0.9 -1l-2.2 -0.4l-1.8 -0.4l-1.2 0.9l-1.2 -0.5l-0.7 -1.1l-3.2 0.1l-1 0.3l-1 0.3l-1.5 -1l-1.2 -0.4l-1.3 0.5l-1.5 1.2l-2.3 0l-1.2 0.6l-1.4 0.7z"/></g><path data-zip="96712" d="m391.1 127.8l0.1 1.2l-0.1 1.2l2.1 0l1 0.3l5.9 2.4l1.4 1.3l2.5 1l-0.9 -1.1l-0.1 -1l0.3 -1l1.5 0.3l2.1 0.2l-0.9 -1.1l-1 -0.4l-1.1 -2.77556e-17l-1.1 0.5l-1.3 -0.9l-1 -0.3l-1.2 -0.1l-1 -0.2l-1.3 -0.3l-1.1 -0.6l-1.2 0.3l0.3 -2.2l0.7 -1.2l1 -1.9l0.7 -1.5l0.9 -1.2l1.2 -0.3l3.3 1.5l1.5 0.6l1.3 0.2l1.9 0.7l1 0.3l0.7 -1.4l-1 -0.8l-0.7 -1.1l-1.1 -0.1l-1 -0.6l-1.2 -1.2l-1.1 -0.6l1.3 -0.2l1.5 0l1.1 0.1l1 -0.1l1 0.1l1.1 -2.77556e-17l1 0l1.3 -0.4l1.4 0.3l0.2 -1.2l-0.6 -1.6l-0.3 -1.2l-0.8 -1.4l-0.6 -1.2l-0.3 -1l-0.5 -1.2l-0.5 -1.4l-1.2 -0.9l-1.2 0.3l-0.9 1.4l-1.3 1.5l-1.3 1l-1.1 1.1l-1 1.1l-0.7 1.1l-0.3 2l-0.8 1l-0.6 1l-1.5 1.7l-1.1 0.5l-1.5 1.6l-1.1 1l-1.2 1.1l0.5 1.4l-1.1 0.6l-1.5 0.7z"/><path data-zip="96713" d="m750.8 293.4l-0.2 2l1.5 0l1.9 0l0.1 2.6l1 1l0 1.5l0.1 1.1l0.1 1.6l0.2 1.4l-0.1 1.3l-0.5 1.3l-0.7 1.2l0.2 1.3l0 1.2l0.6 1.2l0.3 1l1.2 -0.4l1.2 1.6l1.1 0.6l1.2 -0.2l1.1 -0.3l1 -0.2l1 -0.2l1 -0.5l1.9 -1.2l1.1 0.6l1.5 0.3l1.7 -0.8l1 0l1.7 -2.1l-0.1 -1.2l1.2 -1.2l1 -1.1l1.5 -0.3l1.5 -0.2l1.4 -1.2l1.2 -1.3l0.3 -1l0.6 -1l1.1 -0.5l0 -1.6l0.8 -1.1l0 -1l-0.2 -1.4l0.2 -1.6l0 -1.6l0.7 -1.2l-1.2 -0.8l1.1 -0.7l-0.9 -2l-2.1 -2.3l-0.7 -1.3l-1.4 -1.1l-1.1 0l-1.3 -0.9l-2.4 -0.8l-1.1 -0.2l-1.5 -0.3l-1.2 0l-1.2 -0.9l-1.9 -1.3l-1.8 -1.2l-1.2 -2.77556e-17l0.1 1.1l-0.1 1l-1 0.3l-0.3 1l-1.2 -0.3l-1.2 -0.1l-1.1 -0.3l-1.1 -0.6l-1 -0.6l-1.3 -0.1l-1.1 0.6l-0.1 1.1l-0.3 1.1l-0.5 1.6l-0.3 1l0 1.4l-0.6 1.2l-0.7 1l-0.3 1l-0.6 1.2l-0.9 1.7l-0.2 1z"/><g data-zip="96714"><path d="m139.7 3z"/><path d="m102.1 13.9l0.2 1.1l1.1 0.6l1.2 0.3l1.5 0.2l1 0.5l1.3 0.7l1.4 0.7l1.6 2.77556e-17l1.3 -0.6l0.6 -1.1l1.6 -0.6l1 -0.7l1.4 -0.2l1 -0.6l1.1 0.2l0.8 1.6l0.8 1l1 0.3l0.3 1.2l0.6 1l1 0.4l0.9 1l0.8 1l1.1 0.7l0.9 1.2l1.1 1l0.5 1.5l0.9 1.2l0.6 1l0.3 1.1l1 0.1l1.1 0.8l1.6 0l1.5 0.9l1 0.3l1 -0.3l1 -0.3l1 -0.1l0.9 -1.2l1.1 -1.1l1 -1.2l0.8 -1l0.1 -1.1l0.5 -1.1l-0.4 -1.5l-1 -0.7l-0.2 -1l0.6 -1.4l-0.6 -1.2l-0.2 -1l0.2 -1.1l-0.4 -1.1l0 -1l0.4 -1.2l0.5 -1.4l0.2 -1.2l0.3 -1l0.1 -1.1l-5.55112e-17 -1.2l-1.1 -1.3l-1.1 -1.2l-1 -0.1l-1.1 0.8l-1 0l0.2 -1.6l-1.1 -0.2l-0.2 1.2l-2.3 0.9l-1.4 -1.5l-2.2 -0.9l-1.5 0.4l-0.9 -1.5l-1.7 -0.5l-1 -0.4l-1.3 1.2l-1.5 -0.5l-1.3 0l-1.1 1l-1.8 1.5l-1.6 0.9l-2.3 1.5l-1.1 0.3l-1.4 0.8l-2.3 2.3l-1 0.1l-1.8 1.4l-1.4 0.5l-1 0.5l-1 0.2l-2.4 0.8z"/></g><g data-zip="96716"><path d="m122.4 64.3z"/><path d="m106.2 45.7l0.2 1l0 1.2l1.2 0.7l0.3 1.2l1.1 0.5l-0.1 1.1l0 1.1l-0.7 1.1l-0.5 1.3l0.9 1.1l1.4 0.9l1.5 -0.1l1.5 -0.8l1.4 -0.6l1 -1.1l0.8 -1.4l0.6 -1.1l1 -0.1l1.3 -0.4l1.4 -0.6l-0.6 1.1l1.1 -0.2l1.11022e-16 1.4l1 0.1l1.2 -0.2l-1.2 1.9l-1.2 1.1l-1.6 1.8l-1 1.1l-0.7 1.2l1.1 1.5l-1.2 0.4l-1.3 1.3l-1.4 -0.6l-1 0.9l1.6 1.1l1 0.9l1.6 0.4l0.9 1.5l1.1 -0.5l0 -1.5l1.3 2.77556e-17l1 -1.2l0.3 -1.1l1 -0.5l1.1 -0.1l1.6 -1l0.5 -1.2l0.4 -1.3l0.2 -1.1l0.4 -1.2l0.3 -1.2l1 -0.8l0.4 -1.4l-0.1 -1.1l0.9 -1.1l1 -0.7l0.9 -1.3l0.1 -1l-0.3 -1.2l0.4 -1.5l-0.1 -1.1l0.3 -1.1l1.3 -0.9l0.7 -1.1l0.9 -1.1l0.1 -1.2l1 -0.6l0.5 -1.1l-0.3 -1l1 -1l-0.1 -1.3l-0.2 -1.2l-1.5 -1l-1.6 -1.1l-1.1 0.1l-1.9 -0.6l-0.8 -1.1l-0.1 -1l-0.9 -1.2l-0.3 -1.1l-1.3 -1.4l-0.9 -1.2l-1.1 -0.7l-0.8 -1l-0.9 -1l-1.4 -0.7l0 -1.1l-0.7 -1.1l-1.6 -1l-0.5 -1l-1 -0.9l-1 0.7l-1.1 0.2l-1.1 0.4l-1.5 0.9l-1.3 1.1l-1.1 0.4l-0.4 1.2l1 0.8l1.2 0.3l-0.4 1.2l0.6 1.3l-0.1 1l-0.6 1.1l-1.3 0.9l-0.5 1.1l-1 0.4l-0.2 1.2l-0.7 1.6l0.2 1.2l0.6 1.1l0.6 1.1l0.6 1.1l0.7 1.2l-0.4 1.8l-0.2 1l0.5 1.1l-0.8 1.1l-1 1l-1 -0.1l-1.1 1.4l-0.2 1l-0.9 1.2l-0.8 1.4z"/></g><path data-zip="96717" d="m424.9 130.4l0.1 1.2l1.3 0.9l0.8 1.3l1 1l-0.1 1.3l-0.4 1l0 1.1l0.3 1.5l0.8 1.4l0.6 1l1 0.9l0.7 1.2l1.3 0.5l1 -0.7l1 -1.3l1.3 -0.4l1.1 0.7l0.5 -1.4l1 0.4l1.5 -0.4l1.4 -0.8l0.9 -1l0.5 -1.2l-1.5 -0.1l-1.2 -0.9l0.2 -1.5l0 -1.5l-1.4 -0.1l-0.2 -1.4l-1.4 0.7l-0.5 -1.5l0 -1.9l-1.4 -0.9l-0.9 -2l-1.6 -1.5l-0.5 -1.3l-1.6 -1.3l-0.9 -1.2l-0.2 -1.3l-1.1 -0.9l-1 0.5l0.1 1l1 0.4l-1.1 1.1l-0.8 1.3l-1.1 1l0.2 1.2l-0.2 1l0.4 1l-0.4 1.3z"/><path data-zip="96719" d="m806.5 401.3l0.6 1.1l1.6 2l1.1 0.4l0.9 1.1l0.6 1.2l-0.3 1.3l0 1.1l-0.2 1.4l-0.6 2.4l-0.3 1l0 1.4l1.7 -0.1l1.7 -0.8l2 -0.7l1.4 -0.8l1.3 -0.1l0.2 1.2l1.2 0.3l0.2 -1.3l1.1 -0.6l1.9 -0.3l1.2 -0.2l-0.9 -1.3l-1 -0.9l-0.5 -1.1l-1.2 0l-1.1 -0.8l-1.3 -0.3l-1 0l-1.5 -1.5l-1.3 -0.8l-0.7 -1.1l0.1 -1.1l0.2 -1.4l0.6 -1.1l0.1 -1.3l0.4 -1l0.2 -1l-1.8 -0.3l0.2 -1.1l0.1 -1.2l0.5 -1.5l0.4 -1.6l1.2 -1l0.2 -1.3l-1.2 -0.3l-1.1 -0.2l-1.2 -0.7l-1.2 -0.9l-1 0.2l-1.1 0.2l-1.3 -0.5l-0.1 1l0 1.7l0.8 1.8l0.1 1.2l1.8 0.1l0.2 1.5l-0.2 1.3l0.6 1.6l-1.3 0l-1 0.4l1 0.7l0.3 1.1l-0.1 1.2l-1 -0.1l-2.3 0.4z"/><path data-zip="96720" d="m891.5 500.4l1.2 1.2l2.1 5.8l2.4 7.2l1.7 5l1.4 3.7l1.3 2.5l7.7 8l7.6 -4.7l1.5 -0.7l5.3 -2.8l2.5 -0.4l5.8 -2.9l2.5 -1.1l1.7 -0.9l2.1 -1.2l2.5 1.2l5.2 -4l2.7 -2.3l1.3 -0.9l2.2 -1.8l2.4 -1.8l1 -0.8l6.3 -8l2.1 -3.8l1.6 -0.9l-0.3 -1.6l-0.8 -1l-0.7 -1.2l-2.4 -0.7l-1.2 1l-1.4 -0.5l-1.2 -0.6l-1.1 0l-0.9 1.2l-1 0l-1.1 0.6l-1 0.5l-1.5 0.1l-1.6 0.6l-1.4 -0.7l-0.5 -1.2l-0.1 -1.5l-0.1 -2.3l0.3 -2.5l0.2 -1.5l-1.2 -0.4l-1.1 0.7l-1.1 0.5l-1.6 0l-1.7 -0.4l1 0.6l-1.8 0.5l-1.5 0.2l-1.1 0.6l-1 0.1l-1.3 -0.9l-1.1 -0.2l-1.4 0l-1.4 -0.2l-1.2 -0.1l-1 0l-1.1 0l-1.4 0.3l-1.1 -0.3l-1.2 -0.4l-1.3 -0.2l-1.2 0.1l-1.2 -0.4l-1 0.1l-1.5 -1.2l-1.1 -0.9l-1.4 -0.5l-1 0l-1.2 -0.8l-1.3 -0.4l-1.3 -0.3l-1.4 -0.2l-1.2 -0.3l-1.1 -0.2l-1.1 -0.6l-3.9 0.1l-0.8 2.6l0.7 1l-1.6 0l-0.7 1.6l-4.2 4.8l-0.6 1l-2.9 3.2l-1.4 7z"/><path data-zip="96722" d="m137.2 2.7l1.6 1l-0.2 1l0.5 1l1.3 -0.9l1.3 -0.4l0.5 1.3l1.1 0.7l0.4 1.3l-0.2 1l0.3 1.6l-0.2 1l-0.2 1l1.4 0.9l1 -1.2l0.2 -1.4l0.4 -1l0.8 -1.1l-0.4 -1.1l-0.1 -1.1l-0.4 -1.1l-1.1 -0.3l-0.6 -1.4l-0.8 -1.1l-0.6 -1.3l-1.5 -0.6l-1.6 0l-1.2 0.7l-1.2 0.5z"/><path data-zip="96725" d="m783.3 509.7l1.5 0.4l1.1 -0.4l1.1 -0.7l1.1 -0.1l1 0.2l-1.3 0.4l0.8 1.8l1.3 0.2l-1.1 0.1l0.1 1.1l1 -0.1l0.1 1.6l-0.1 1.3l-1 0.9l1.1 0.6l0 1.8l0.2 2.6l0.4 1.6l0.4 1.2l0.5 1.5l0.8 1.9l1 1.2l2.3 -0.3l0.3 1.1l1.3 -0.7l1.3 -0.6l2.4 0.2l1.3 -0.2l1.1 -0.3l1.5 -0.7l1.1 -0.1l1.4 0.1l-1.1 -4.6l-0.5 -2.9l5.1 -4.2l0.6 -1.3l0.7 -1.3l-0.3 -1.2l-0.3 -1.8l-0.2 -1.4l0 -1.1l0.1 -1.7l-0.9 -2l-0.1 -1.4l-0.9 -1l0.3 -1.4l-0.5 -1.2l-1.2 0.2l-1.4 -0.3l-1.2 0.2l-1 -0.3l-1.6 0.3l-0.7 1l-1 -0.9l-1.2 -0.3l-1.1 -0.8l-1.2 -0.2l-1.5 -0.3l-1.1 -0.5l-1.1 0l-1.3 0.7l-1.1 0.9l-1.6 1.4l-1.3 0.3l-1 -0.1l-1 0.4l-1 0.1l-1.1 0.3l1 0.8l0.2 1.1l0.4 1.1l0.6 1.1l-1.8 1.3l0.7 1.3l-0.9 1.2l-1 0.3l-1 0.5z"/><g data-zip="96726"><path d="m802.9 546.5l1.1 0.6l-1.2 -0.7z"/><path d="m802.5 552.9l0.1 1.9l1.3 -0.3l1.6 -0.1l1.2 -0.1l1.8 2.1l0.4 1l2.2 -0.2l2.4 0.1l1.4 0.4l1.4 -0.4l1.2 0.4l1.6 -0.2l1 0.4l1.2 0.6l1.2 -0.2l0.3 -1.1l0.2 -1.3l1.3 -0.2l1.1 0.1l1.1 0l-3.5 -7.8l-0.2 -1.1l-2.6 -4.4l-0.2 1.3l-16.7 4.4l-5.55112e-17 1.2l-0.3 1.3l0.3 1.5z"/><path d="m797.2 552.6l0.8 1.7l1.1 0.6l1.1 -0.8l1.7 0.3l-0.5 -1.4l-0.2 -2.2l-1 0.7l-1.7 0.6l-1.1 0.5z"/></g><path data-zip="96727" d="m833.2 416.1l0.8 1.4l3.9 1.7l4.2 1.2l-1.2 0.5l-0.3 1l-1 1.4l1.4 0.9l-0.2 1.4l0.8 1.5l1 0.3l1.8 -0.1l1.2 -0.5l0.2 1.1l0.1 1.1l1 -0.1l0.8 -1l0.7 -1.1l1.8 -0.5l1.4 2.5l0.3 -1.2l0.8 -1.7l0.5 -1l0.1 -1.2l0.7 -1.4l0.6 -1.1l1.3 0.2l1.2 -0.3l0.8 -1l1 0.3l1.8 0.7l-0.5 1.6l0.8 1l1.9 -0.6l0.2 -1.1l1.2 0.4l-0.4 1.5l1.7 0.1l1.2 0.3l-0.6 1.5l1.7 0.2l-0.1 1.1l1.7 0.5l-0.3 1l-0.1 1.3l-0.6 1.1l-0.4 1.5l1 -0.8l1 0.1l-0.7 2.7l1 0.6l-0.2 1.2l0 1.2l-1.2 0l0 2.4l-0.4 2.2l-1.5 0l-1.1 -0.2l-1.2 -0.4l-2 1.3l0.4 2.2l1.8 1.5l0.4 1.3l-0.4 1.2l0.8 1l1.7 0.8l1.6 1.3l1.2 0.7l0.9 1l0.5 1.1l0 2l0.6 1.1l1.5 1l1 0.5l1.1 0.4l1.2 0.3l1 -0.3l1.1 -0.5l1.2 -0.5l1.1 -0.3l1 -0.1l-0.1 -1.3l-0.4 -1.1l-0.6 -1l-0.1 -1l-0.7 -1.5l0 -1.3l-0.5 -1.4l-0.5 -1.2l0 -1l0 -1.3l0.2 -1.4l1 -1.1l0.1 -1.2l0.4 -1l0.2 -1.3l0.1 -1.6l0.8 -2l0.3 -1.2l0.8 -1l0.2 -1.2l0.7 -1l1 -1.4l1.3 -0.7l0.8 -1.2l0.7 -1.4l0.6 -1.3l0.4 -1.1l-0.3 -1l1 0.1l-1.5 -0.9l-4.6 -2.2l-5 -1.6l-2.9 -1.1l-3 -1.1l-3.7 -0.6l-2.7 -1.1l-4.5 -1.7l-1.9 0.4l-2 1.3l-2.1 0.3l-1.6 -1l-0.8 -1.1l-1 -1.6l-1 0.1l-1.4 -1l-1.3 -0.2l-1.2 -0.1l-1.1 -2.2l-2.1 -1.9l-2.4 -1.1l-3.8 -1.6l-2.5 -1.5l-0.7 1.5l-0.7 1.5l-0.2 1l-0.1 1.2l-0.4 1l-0.2 1.2l0 1.3l0.1 1.9l-0.4 1.6z"/><path data-zip="96728" d="m935.4 469.6l0.5 1.3l1.2 -0.4l1.1 0.3l1 -0.4l1 0.2l0.6 -1.1l1.1 -0.5l1 -0.6l1.6 -1.3l0.6 -1.1l-0.3 -1.1l-1.4 -1.1l-1.4 0.8l-0.7 1.2l-1.1 0.6l-1.5 0.9l-1.2 0.6l-1 0.7l-1 1.1z"/><path data-zip="96729" d="m550.2 199.5l1.1 1.1l1.3 0.9l1 0.4l1 -0.7l1.3 0.7l1.6 1.5l0.9 1.1l0.4 1.2l1.3 0.8l1.1 0.5l1.8 1.8l1.2 1.2l0.2 1.6l0.6 1.3l1.7 1.9l1.8 -0.1l1.3 0.1l1.3 0.2l1.6 0.2l1.3 1l1.2 0.3l1.5 1.7l1 1.2l0.2 1.7l1.1 -0.2l1.5 0.6l1.3 0.3l1.1 -0.3l1.4 -1.1l1.4 -0.6l1.1 -0.3l0 -1.4l0.7 -1l1.5 -2.2l0.8 -1.1l-0.8 -1.1l0.1 -1l1 -0.6l0.1 -1.1l1.3 -0.7l0.3 -1.1l1 -0.3l1.3 -0.1l-2 -0.6l-1.7 -0.3l-1.5 -0.2l-1.2 0.5l-1.9 0l-2.5 -0.6l-1.5 -0.4l-2 -0.8l-1.6 -0.3l-1 0.2l-1 0l-1.1 -0.4l-2.1 -0.4l-1.2 0.1l-1.2 0l-1.5 0.2l-1.8 -0.8l-1.8 0.1l-1.4 -0.4l-1.5 0l-1 -0.8l-0.7 -1.3l-1.2 -0.2l-1.7 -1.3l-1.6 0.8l-2 -0.1l-1.2 0.1l-1 -0.4l-1.9 -0.9z"/><path data-zip="96730" d="m438.1 133.2l0.2 1.4l1.1 0.5l0.3 1.1l-0.5 1.4l1 0.6l1.4 0l0.4 -1.3l-0.8 -1.6l-0.7 -1l-2 -1z"/><path data-zip="96731" d="m409 106.9l1.1 0.6l0.4 1.2l0.5 1.2l0.3 1.2l0.4 1.4l0.5 1.3l1.2 1.3l0.1 1.2l0.2 1.5l0.4 1l1.5 0.8l1.2 0.3l0.5 1l0.8 1.1l1 0.8l-0.1 -1.1l0.5 -1.3l0.4 -1.2l0.2 -1.1l0.3 -2l0.4 -1l1.2 -1.1l2 -1.8l0.9 1.2l0.4 1.2l1.1 0.2l0.2 -1.1l-1 -0.5l-0.7 -1.6l-0.4 -1.1l-1.7 -2.5l-2 -2.5l-1 -0.7l-2.2 -0.9l-1.4 -2.77556e-17l-1 1l-1.5 0.1l-1.3 1l-1 0.1l-2.3 1.4z"/><path data-zip="96732" d="m689.9 267l0.2 1.9l0.6 1.5l0.5 1l0.5 1.7l1.1 0.6l0.1 -1.4l2.6 -1.2l0.5 -1.2l1.1 0.3l1.2 -0.9l1.4 -0.4l1.2 -0.9l0.9 -1.3l0.2 -1.6l1.1 -0.6l-0.3 -1l1.4 -0.7l-1.7 -0.9l-1.3 0.3l-1.1 1.2l-1.3 0.6l-2.3 -0.2l-1.8 -0.2l-1.1 -0.3l-1 0.5l-1.2 -0.1l-0.1 1.1l-0.1 1l-1 1.2z"/><path data-zip="96734" d="m451 171.5l0.9 1.3l0 1.3l0.2 2l1.4 1.3l1 0.1l1.3 0.7l1.7 0.1l0.7 -1.5l1.5 -2.1l0.3 -1.1l1.4 -0.3l1.1 -0.1l1.7 -0.4l-1.1 -0.5l-0.3 -1l1.4 -0.1l0.7 -1l0.1 -1.1l1.4 -0.2l1.1 -0.1l-1.1 -1.7l-1.7 -1.4l-1.1 -0.6l-1.2 -0.4l-1 -1l-0.7 -1.6l-0.1 -1.7l1 -0.9l0.4 -1l0 -1.3l0.1 -1.3l1.1 -0.3l0.8 -1l0.4 -1.5l-1.3 -0.2l-1.7 0.8l-1.2 0.6l-1.4 -0.5l-1.8 -0.7l-0.5 1.2l0.8 1.3l-0.3 1.4l1 1.1l-0.5 1.6l-0.3 1.2l-0.2 1.5l-0.4 1.1l-1.2 1.7l-0.3 1.2l-1.3 1.4l-1.5 0.3l1.4 2l-0.3 1.1l0.3 1l-1 -1l-1.6 0.7z"/><path data-zip="96737" d="m797.7 618.9l1.9 2.2l1.3 2.1l1.2 1.6l0.3 1.1l0 1.9l2.7 1.3l1.1 1l1.2 0.3l1.9 0.7l1.6 0.2l1.4 0.4l3.7 1.1l1.2 0l2.1 2.1l2.6 1.8l2.3 1.3l0.7 1.1l3.3 1.4l1.2 0l1.1 0.5l1 0.2l0.8 1.1l2.1 1.2l0.2 -1.3l0.6 -1.3l1.4 -0.1l-0.2 -1.8l-0.1 -1.4l-0.1 -1.4l0.7 -1.3l0.3 -1.9l-0.5 -1.2l0.2 -1l0.1 -1.3l0.2 -1l-0.1 -1.5l-0.7 -1.3l0.1 -1.1l0 -1.2l1.4 -0.3l2.3 0.2l-0.2 -1l-0.2 -1.4l-0.2 -1l-0.8 -2.5l-0.2 -1.2l-0.8 -1.3l-1.2 -1.1l0.2 -1.3l-0.1 -1.1l-0.1 -1.2l-0.6 -1.5l0.2 -1l-1.4 0l-1.5 -0.5l-1.1 -0.9l-1.3 -0.7l-1.4 -0.5l-1 -0.6l-1.7 -2.2l-1.1 -0.9l-1 -1l-0.6 -1.1l-14.5 11.1l-8.9 6.8l-1.5 0.6l-1.2 0.6z"/><g data-zip="96738"><path d="m806.8 450.7z"/><path d="m797.8 460.2l1.2 0.5l1 0.3l1.2 -0.7l1 0.3l0.8 1.2l1.1 0.7l1.3 0.4l0.5 1l1.2 0.2l1.2 1.5l-0.2 -1.1l1.3 1.6l0.3 1l1.1 0.6l0.2 1.1l0.9 1.2l0.4 1.1l0.3 1.2l1.3 1.1l1.5 -0.4l1.1 0l1.4 -0.5l1.3 0l2 -0.8l1.4 0l1.2 -0.5l4 -1.1l3.6 -5.7l1.3 -1.1l0.5 -1.1l0.8 -1.6l0.4 -1.2l0.4 -1.4l0.6 -1.3l1.3 -1.6l0.8 -1.5l0.5 -1.2l0.7 -1l0.5 -1.4l0.1 -3l0.5 -1.8l0.2 -2.8l0.1 -1.2l-1.2 -0.2l-1.1 0.1l-1.1 0.6l-1.4 0.7l-1 0l0.5 1.4l0.4 1.6l0 1l0.7 2.1l0.5 1l-1.1 0.2l-1.1 -0.4l-1.2 2.77556e-17l-1.3 0.2l-1 0.3l-1.7 0l-1.2 -2.77556e-17l-1.1 0.2l-1.1 0l-1.2 -0.4l-1.1 -0.5l-0.1 -4l0 -1.4l-1.9 0.4l-1.4 0.4l-1.5 0.3l-1 0.1l-1.3 0.3l-1.1 0.2l-1 1.3l-0.3 1.1l-2 3.3l-1.1 1.4l-1.1 0.4l-1.3 0.1l-1 -0.9l-1 0.9l-1.2 -0.1l-1 0.5l-1 -0.1l-1.7 1.1l0.1 1.9l0 1.2l-1.4 0.4l-0.7 1.2l-0.5 1z"/></g><path data-zip="96740" d="m769.5 492.6l1.6 2.3l0.7 2.7l0.2 1.1l0.7 1.2l1 0.1l0.9 1l0.3 1.5l1 0.7l-0.2 1.5l-0.6 1.6l0.4 2l2.2 0.5l2.6 1.9l1.1 -0.1l1 0.5l0.1 1.1l0.7 1.3l0 1.2l1.5 1.9l0.4 1.6l0.6 1.8l0.4 1l0.4 3.2l0.5 1.3l-0.1 1.6l1.1 1.6l0.6 2.4l0.1 1l1 -0.6l1.1 0l-0.1 -1.1l0 -1.1l1.8 -1.2l-0.6 -1.9l-0.5 -1.5l-0.1 -1.1l-0.7 -1.7l-0.5 -2.3l0.2 -1.3l-1 -1.4l1 -0.9l0.1 -1.3l0 -1.5l-1.1 -2.77556e-17l-0.1 -1.1l1.1 0.1l-1.3 -0.4l-0.8 -1.8l1.3 -0.4l-1 -0.2l-1.1 0.1l-1.1 0.7l-1.1 0.4l-1.5 -0.4l1 -0.5l1 -0.3l1.2 -0.5l-0.7 -1.1l1.9 -1.7l-1 -1.6l-0.4 -1.1l-0.2 -1.1l-1 -0.8l1.1 -0.3l1 -0.1l1 -0.4l1 0.1l1.3 -0.3l1.1 -1.1l1.1 -0.8l1 -0.7l1.4 -0.6l1.1 0.6l1.4 -0.2l1 0.8l1.4 0.4l1 0.6l1.6 0.8l1.5 -1.1l1.2 0.3l1 0.1l1.9 0.1l1.6 -0.3l0.5 1.2l-0.2 1.2l0.8 1.2l0.1 1.1l0.6 1.4l0.5 1.7l-0.1 1.7l-0.3 1.3l0.3 1.5l2.2 -0.1l9 -2l1 -1l1 -1l1.8 -1l1.2 -1l1 -0.6l1.1 -0.9l-0.2 -1.1l-0.7 -1.3l-0.3 -1l-0.1 -1.4l0 -1.5l0.2 -1.3l0.3 -1.2l0 -1.2l-0.9 -1.2l-1.1 -1l-1.2 -0.8l-1 -0.2l-0.9 -1.1l-0.1 -1.3l0.3 -1.3l-1.1 -1.1l-2.3 -1.8l-0.6 -1.3l-0.7 -1.2l-1 -0.8l-0.5 -1l-0.3 -1.1l-0.3 -1l-0.8 -1l-1 -1.1l-0.2 -1l-1 -0.5l-1 -1l-0.8 -1.1l-0.8 -1.2l-0.2 -1.2l-0.7 -1.3l-0.9 -1.2l-1.5 -1.8l-1.3 -0.7l-1 -0.6l-0.9 -1l-1.1 -0.5l-1.3 -0.6l-0.8 -1.2l-1 -0.3l-1.2 0.7l-1 -0.3l-1.2 0l0 1.1l-1 0.5l-0.5 1.3l-1.4 1.6l-0.1 1l0.4 1.6l-2.8 1.5l-1 -0.1l-1.3 -0.5l-2.2 0.1l-2.1 0.8l-1.2 0.9l-1.2 1.6l-1.7 1.1l-0.7 1.8l-1.3 1l-1.4 1.6l-1.6 1.7l-1.1 1l-1 0.3l-0.6 1.4l-1.6 0l-0.1 1.1l-0.7 1l-0.1 2.1l0 2.2l-0.4 2.7l-1.5 1.2z"/><path data-zip="96741" d="m124.7 61.9l2.2 -0.3l1.4 -0.1l1.3 -0.4l1.5 -0.3l-0.5 1.1l-1.7 1.9l1.1 0.2l0 1.2l0.1 1.4l1 -0.4l1 0.4l1.1 0.7l2.8 -0.1l0.8 -1.1l-0.8 -1l-0.3 -1.2l0.6 -1.3l-0.6 -1.1l1.2 0.4l-0.7 -1.1l0.7 -1l0.7 -1.1l1 1.4l1.1 -0.9l0.5 -1.7l1.5 -0.5l0.3 -1.9l0.4 -1l2 0.1l1.1 -0.9l-1 0.3l-1.2 0.4l-0.9 -1.3l-0.3 -1.1l-0.4 -1.1l-1.1 -0.7l-1.5 -0.1l-1.2 -0.4l-0.1 -1.3l-0.3 -1.1l-0.8 -1.7l-0.1 -1.5l-0.9 -1.8l0.6 -1.1l0.5 -1l-0.3 -1.3l0.3 -1l0.2 -1.3l-0.4 1.1l-1.3 0.9l-0.2 1l-0.6 1.2l-0.9 1.2l-1 0.4l-0.5 1.1l-0.1 1.2l-0.1 1l-0.3 1.4l0.6 1.6l-0.5 1.2l-1.2 0.3l-1 1.5l-0.3 1.3l-0.4 1.1l-1 1.1l-0.3 1.2l-0.4 1.2l-0.2 1.1l-0.4 1.3l-0.5 1.2l-1 0.2z"/><g data-zip="96743"><path d="m863.6 487.9l1.8 1.4l-0.2 1.4l1.2 0.1l0.2 1.3l1 0.8l1.3 0.1l1.4 1.1l1.1 0.7l1 1.5l1.2 -0.5l-0.1 -1.9l-1.2 -1.3l-1.7 -1.8l-1.4 -1.1l-1.2 -1.6l-1.2 -1.2l-1.3 0.7l-1.4 -0.6z"/><path d="m856.8 533.1l5.1 3.3l2 -7.3l0.3 -1.2l-1.2 0.5l-4.8 2.1l-1.1 0.6l-0.4 1l0 1.1z"/><path d="m798.4 403.3l0.2 1.4l0.5 1.2l0.1 1.4l0.1 1.4l0.3 1.3l0.3 1l0.1 1.3l0.4 1.1l0.1 1.1l1.3 2.5l0.5 1.1l-0.3 1l1.2 1.2l0.6 1.6l1 1.3l0.8 1.1l1.1 0.9l0.6 1.1l1 1.1l1 0.9l2.9 4.4l-0.2 1.2l1.1 0.3l0 1.7l-0.6 1.4l-0.5 2.1l0.3 1.9l-1 1.5l-0.1 1.7l-1.8 0.2l-1 0.8l-1 0.1l-1.1 1.1l-0.8 2.1l-1.5 1l-1.3 1l0.1 1.4l-1 -0.1l1.1 0.3l1 -0.5l1.4 0l1 -0.9l1 0.9l1.1 -0.1l1.3 -0.4l1.1 -1.4l1.5 -2.4l0.8 -2l0.1 -1.2l1.4 -0.1l1.9 -0.5l1 -0.1l1.5 -0.3l1.4 -0.4l1.9 -0.5l0 1.5l0.1 4l1.1 0.5l1.2 0.4l1.1 0l1.1 -0.2l1.2 5.55112e-17l1.1 0l1.3 -0.2l1.2 -0.5l1.2 0.3l1.2 0.1l1.3 0.7l-0.4 -1.7l-0.5 -1.7l-0.3 -1l-0.3 -2l-0.5 -1.3l1 -0.1l1 -0.4l1.5 -0.9l1.1 -0.1l1.2 -0.1l-0.1 1.5l-0.1 2.6l-0.3 1.1l-0.5 3.3l0.1 1.3l-1 1.1l-0.6 1.5l-0.9 1.8l-1.3 1.6l-0.6 1.3l-0.1 1.1l-0.6 1l-0.6 1.2l-0.5 1.5l-0.7 1.4l-4 5.5l-4.5 1.5l-1.2 0.5l-1.1 -0.1l-1.5 0.5l-1.8 0.4l-1.3 0.5l0.7 1.1l0.1 1.5l0.4 1l1 0.8l1.1 1.1l1.7 1.3l1.2 0.8l1.2 0l1.2 0.2l1 -0.2l1.2 0.7l1 0.3l1.2 0.3l1.3 0.7l1.3 0.5l1.1 0l1.1 0.3l0.9 1.2l5.8 -2.5l2.6 1.7l1.7 -2.2l1.4 -1.2l1 -1.2l0 -2.4l0.6 -1l1 -0.6l0.1 -1l1.1 -0.9l0.8 -1.1l1.2 -0.7l1.3 0.4l1.1 0.1l1.5 -0.5l1.1 -0.3l0.5 -1.1l1 -0.9l1.3 -1l1.2 -1.3l1.3 -0.6l1.3 -1.2l1.1 -0.4l1.2 -0.7l1.5 -0.7l1 -0.5l1 -1l1 -0.9l1 -0.7l1.6 -0.5l-1.11022e-16 -1.1l-1.1 -1.3l-0.4 -1.7l0.2 -1.4l-1 -1.2l-1.4 -0.9l-1.1 -1.1l-2.1 -1.1l-1.1 -1l0.4 -1.2l-0.4 -1.3l-1.1 -0.8l-1 -2l1.1 -2l1.1 -0.2l2 0.6l1.5 0l0 -2.2l0.4 -2.4l1.2 0l0 -1.2l0.2 -1.2l-1 -0.6l0.7 -2.7l-1 -0.1l-1 0.8l0.4 -1.5l0 -1.3l0.7 -1.1l0.3 -1l-1.7 -0.5l0.1 -1.1l-1.7 -0.2l0.6 -1.5l-1.2 -0.3l-1.7 -0.1l0.4 -1.5l-1.2 -0.4l-0.2 1.1l-1 0l-1.7 -0.4l0.3 -1.3l-1.1 -0.9l-1.3 -0.5l-0.6 1.1l-1 0.1l-1.4 0.3l-1.1 0.8l-0.7 1.4l-0.2 1.1l-0.4 1.1l-0.2 1l-0.7 1.3l-1.6 -1.9l-0.9 1.3l-0.6 -1.2l-0.6 1.1l-0.8 1.1l-1.1 0.7l-0.3 -1l0.5 -1.7l-1.2 0.5l-1.9 0.2l-1.7 -0.2l-0.8 -1.5l0.3 -1.1l-0.9 -1.1l-1.11022e-16 -1l0.7 -1.2l1.2 -0.8l-3.6 -1.1l-3.9 -0.9l-2.5 -0.9l-1.1 0.5l-1 -0.2l-1.6 -0.6l-1.1 0.1l-0.9 -1.1l0.6 -1l0.3 -1.3l-1.1 -0.9l-1.1 -0.3l-1.2 -0.5l-1.1 0.4l-1.5 0.2l-1.3 0.5l-0.3 1.1l-1 0l-0.9 -1.1l-1.3 0.1l-1.4 0.8l-1.1 0.5l-1.9 0.6l-1.6 0.5l-0.8 -1.4l0.3 -1l0.5 -1.9l0.1 -1.1l0.2 -1.9l0.2 -1.1l0 -1l-1.4 -1.5l-1.1 -0.4l-1.2 -1.3l-1 -1.8l-1.2 -2l-2.1 -3.8l-1.4 2.1l-1 2.3l-1.1 -0.1l-0.6 1.2l-0.6 1.4z"/><path d="m798.1 459.5l0.6 -1.2l-0.6 1.1z"/><path d="m797.8 460.3z"/></g><g data-zip="96744"><path d="m451.5 158z"/><path d="m432.2 144.8l0.4 1.1l0.4 1.2l0.4 1.1l0 1l-0.1 1.3l0.6 1l1 1.2l1.1 0l0.6 1.2l-0.2 1.4l0.4 1.6l1 0.6l1.2 1.3l1.2 0.7l1.1 0.6l1.8 1.2l0.3 1.1l-0.3 1.8l1.7 0.9l1.1 0.6l-0.1 1l0.2 1l1.9 1.3l0.6 1.6l2.3 0.6l1.4 -0.2l1.1 -0.2l0.8 -1.2l-1.8 -1.9l1 -0.1l1.8 -0.9l0.5 -1.5l1.4 -2.2l0.4 -1.1l0.2 -1.5l0.3 -1.2l0.1 -1.2l-0.6 -1l0.2 -1l-0.6 -1l-0.2 -1.1l0.3 -1.6l-1 1.1l-1.1 0.5l-0.8 1.4l1.1 0.7l1.5 0.8l-0.3 1.1l-0.5 1.1l-0.7 1.5l-1 1.5l-1 0l-0.8 -1.1l0 -1l-0.7 -1l-1.7 0.3l-0.7 -1.4l-0.5 -1.5l-1.2 -1.8l-1.5 -0.4l-1.5 -1.2l-1.4 0.2l-0.8 -1.2l-0.3 -1.4l0.4 -1.1l0.1 -1l-1 -0.9l-5.55112e-17 -1.4l-1 -1.6l0.3 -1l1.1 -0.4l1.9 -0.4l-0.2 -1.6l0.1 -1.4l-0.3 -1.6l-1 0.6l-1 1.1l-1.5 1.1l-1 0.3l-1.1 0l-0.9 1.1l-1.1 -0.7l-1.1 0.2l-1.2 1.5l-1 0.7z"/></g><g data-zip="96746"><path d="m174.1 22.5l-0.3 2l1.1 0.4l-0.1 -1.5l0.4 -1l0.4 -1.2l-0.1 -2.4l-0.1 -1l-0.6 -1.2l0.3 1l-0.2 1.8l-0.7 1.2l1.2 0.8l-1.4 -0.1l0.2 1.4z"/><path d="m137.4 31.4l1.3 2.9l0.4 -1.3l1.2 0.1l1.1 -0.1l1.3 0.2l1.4 0.7l1 0.1l1.2 -0.2l1 -0.4l1.2 -0.5l1.4 0.4l1 -0.1l1.4 0.3l1 -0.5l0.6 1.1l1.1 1.1l1.7 -0.5l1.3 0.8l1.1 0.1l1 0.1l1.1 0.6l1.5 0.9l1.1 0.1l1.3 -0.5l1.8 0.1l0.4 1.7l0.2 -1.2l0.6 -1.1l2.1 -1l0.6 -1.1l0.3 -1.4l0 -1.4l1 -1.7l1.1 -1.2l0.2 -1.7l-0.6 -1.4l0.6 -1l-1.1 -0.4l-1.1 -0.8l-1.8 -1l5.55112e-17 -1l-0.4 -1l-1.1 0l1.1 -0.6l1.3 0.3l1 -0.2l0.5 -1l-0.4 -1.3l0.1 -1.6l-1.5 0.5l0.3 1.2l-0.1 1l-1.5 0.3l-1.4 -0.8l-1.4 -0.5l-1 -0.2l-1 0l-1.2 0.3l-0.7 1.3l-1.1 0.5l-0.1 1l-1.1 0.3l-1.4 0l-1.2 -0.4l-1 0.2l-1.2 0.5l-1.3 -1l-0.6 1.4l-1 1.5l-1 0.8l-1.1 -0.1l-1 -0.5l-1.1 0.9l-0.4 1.1l-1 0.7l-1.1 1.1l-1.2 1.3l-1 0.3l-1.1 1.2l-1.1 0.8l-0.8 1l-1.1 -0.2l-1.4 0.2z"/></g><path data-zip="96747" d="m110.7 60.1l1.3 1.5l0.4 1.2l1.1 1l0.9 -1.1l1 0.6l1.2 -0.8l1.7 -0.9l-0.7 -1l-0.5 -1.3l-1.1 -0.5l-1.1 0.5l-1 0.5l-1 -0.5l-1.4 0.3z"/><path data-zip="96748" d="m581.4 221.9l-1.4 1.7l2.1 0l1.8 0.6l2.1 -0.1l2.1 0.7l1.4 0l1.3 0.3l0.8 1.3l1.1 0.4l2.9 0.9l1.3 0.9l1.5 -0.3l1.8 0.9l1.9 0.5l1.2 0.5l2.2 0.4l1 0.5l1.1 0.1l1.4 0.4l2.6 0.3l1.2 0.5l2.5 0.4l1 -0.3l0.5 1.2l1.1 0.1l2.2 0.6l1 -0.8l1.7 -0.5l1.7 -1l0.4 1.2l1 -0.6l1.4 0.1l1.7 -1.4l1.8 -0.9l1 -0.1l1.7 -0.2l2 -1l0.7 -1.3l1 -0.6l1.2 0l1.8 -1.9l1.4 -0.9l2.4 -2l1.5 -1.4l1.1 -2l1.3 -1l1.3 -2.4l0.9 -2.3l0.4 -1.1l-1.5 -0.4l-2.1 0.6l-1.3 -0.4l0.1 -1.8l-4.4 -1.1l-2 -0.3l-1.2 0.3l-1.4 0.1l-1.1 1.1l-1 -0.1l-1.4 -1.3l-1.2 0.4l-1.6 0.3l-1.4 0.6l-1.9 0.7l-1.9 -0.3l-1.4 0.5l-1.8 0.4l-2 -0.9l-0.5 1l-0.8 -1l-1.5 -0.5l-0.7 1l-1 0.3l-1.3 -0.4l-1 -0.3l-0.3 -1l-1.1 1.6l1.4 0.6l0.8 1.1l1.3 1.1l1 0l-0.9 1.2l-0.3 1.9l-2.4 0.7l-1.4 -0.5l-1 -0.6l-1.1 0.5l-1.8 -0.5l-1.3 -0.7l-1.8 0.6l-1 -0.4l-1.4 0l-1.2 -0.1l-1.6 0.7l-1.2 0.3l-1 0.5l0.5 -1.1l1.6 -1.5l1.5 0.2l-1.5 -1.3l-1.5 -0.4l-1.5 -0.4l-1.5 -0.2l-0.7 1.8l-0.6 1.4l-1.4 0.6l-5 2.3l-1.1 0.3l-1.2 0.3l-0.9 1l-1 0.4l-1.3 0.6z"/><path data-zip="96749" d="m951.2 512.1l0.1 3.9l2.4 1.1l1 0.5l-0.4 1.2l0.2 1.2l-1.2 0.2l0.6 1l0 1.3l1.5 -1.4l0.5 -1.2l3 5.2l1.3 3.7l-1 0.4l-0.4 1l0.6 1.5l1.3 1l1.3 1.8l3.2 -1.9l-1 -1.8l0.7 1l1 0.2l1.4 -1.1l1.6 -1.6l2.2 -1.7l2.6 -2.8l0.8 -1l1.3 -1.8l2.9 2.6l1.7 -2.3l-1 -0.4l-1.1 -1.2l-0.9 -1l-1.9 -1.5l-1.2 -0.9l-0.3 -1l0.5 -1.7l-0.9 -1.3l-1.8 0.3l-2.6 -1.9l-1 -0.9l-0.3 -1.1l-0.1 -1l-0.2 -2l0.1 -2.9l0.7 -1.6l0.2 -1.5l-0.6 -1l-0.6 -2l-1.1 -2.5l-1.4 2l-2.5 3.1l-5.6 7.2l-1.2 1.3l-2 1.6l-2.2 1.5z"/><g data-zip="96750"><path d="m800.7 593.8l0 1.9l1.2 -0.9l1 0.4l-2.1 -1.8z"/><path d="m788 533.6l0 1l1.5 2l0.7 1.8l-0.4 1.7l1.7 0.7l1.3 0.8l-0.9 -1.5l2.7 0.4l1.5 -1l-0.5 -1.7l2.2 -0.7l1.5 -0.3l-0.2 -1.4l1.2 0l1.4 -0.7l1.7 -0.3l1 -0.5l1.6 -0.3l1.2 -0.2l1.5 -0.3l1 -0.5l1.8 0.1l1.6 0l1.2 -0.7l1.1 0.6l1.5 0.4l1.5 0.1l1.6 -0.1l1.5 0.2l3 -0.6l0.5 3.8l-0.5 2.2l-1.4 2l-2.5 0.2l-2.5 -0.6l1.1 1.7l3.4 5.1l0.2 1.1l3.5 7.8l1.3 -0.5l19.3 -8.2l7.1 -13.6l-2.7 -2.1l-1.4 -2.7l-0.7 -1.3l-0.6 -1.5l-0.3 -1.4l-0.2 -1.1l-1 -1l-1.1 -0.5l-1.1 -1l-0.7 -1.6l-1.5 -1.6l-1.3 -0.9l-0.6 -1.4l-0.9 -1.6l-0.7 -1.2l-1 -0.6l-1.1 0l-1.1 -0.1l-0.9 -1l-1.2 -1l-0.4 -1.2l-0.4 -1.1l-0.3 -1.5l-0.8 -1.4l-0.1 -1l-1.2 0.2l-1.2 0.6l-1.1 0.8l-1.7 0.9l-1.1 1.3l-1.6 1.5l-9 2l-2.2 0.1l0.9 1.2l-0.3 1.1l-1.3 2.2l-4.9 4.1l0.3 3l1.6 4.5l-1.2 0.5l-1.8 -0.4l-1.2 0.7l-1.4 0.3l-1.3 0.2l-1.5 -0.1l-1.7 0.4l-1.4 0.4l-2.2 -0.2l-1 -0.4l-0.8 -1l-2.3 0.6l0.2 1.2l0.6 1.5l-1 -0.2l-1.4 1l-0.8 1.8z"/></g><g data-zip="96752"><path d="m93.9 51.1l3.9 1.6l1.4 1.2l1.1 0.2l1.7 0.3l0.1 -1.4l-1 -0.3l-0.3 -1l-1 -0.4l-1.3 -0.4l-1.3 0.1l-1.6 0.1l-1.1 0.4z"/><path d="m85.7 44l1.3 1l1.6 3.8l1.2 1.4l1.7 0.7l1.5 -0.6l-1.1 -0.6l-3.8 -5.7l-1 -0.1l-1 -0.2z"/></g><path data-zip="96753" d="m691 283.7l1.3 0.8l1.3 0.4l1.3 1.2l1 1.1l0.3 1.6l0 1.9l0 1.6l0.6 2.9l0.7 1.3l0.3 1.1l0.9 2.8l-0.2 1.1l0.5 2.8l-0.2 1.1l0.1 1.3l0 2.5l0.5 1.4l0.1 1.4l-0.3 1.1l-0.8 1.4l-1.2 0.5l1.4 1.5l1.3 1.7l0.4 1.4l-0.7 1.9l1 1.2l1.2 0.8l1 -0.2l1.1 -0.2l-1.1 -1.6l0.6 -1.9l0.7 -1.9l-0.2 -2.1l-1.5 -0.6l-0.2 -1l1.6 -0.2l1.1 -1l-0.8 -1l-0.4 -1.1l-0.5 -1.2l0.2 -4.1l0.2 -2.4l1.1 0.2l1.2 0.3l1.4 -0.2l1 -0.4l-0.5 -1.3l-0.4 -1.3l-0.9 -1.2l-1.1 -0.7l1.6 -6.6l-1.1 -0.5l-1.1 -0.7l-1.1 -0.4l-1.1 -0.1l0.8 -2l1.1 -0.2l-1 -1l-1.5 0.1l-1.1 -0.5l0.8 -1.1l-2.1 -0.5l-1.7 0.2l0.3 -1.1l-0.2 -1.7l-1.1 0l0.6 -1.3l0 -1.5l-0.4 -2.3l1.1 -1l0.4 -1.1l0.8 -1.1l-2.4 0.3l-1 0l-0.6 2.9l-0.4 3.5l0.1 1l0.3 1.3l0.6 2.7l-1.4 -0.3l-1.4 -1.3l-1.3 -0.4z"/><path data-zip="96754" d="m139.7 31.3l1.1 -1.1l1.7 -1.6l1.3 -0.5l0.6 -1l1 -0.5l1 -0.8l0.9 -1l0.5 -1.3l1.4 -0.5l1 0.6l1.1 -0.4l0.7 -1.2l1.3 -1.4l-0.1 -1.3l-1.2 -1.4l-0.9 -1.1l-0.2 -1l1.2 -0.1l1 0l1 0.2l1.6 0.2l1.1 -0.8l1.2 -0.6l1.1 -0.3l1.3 -1.9l0.3 -1.2l1.2 -0.2l1 -0.8l1.4 0.2l1.1 0.1l1.6 -0.4l0.3 1l1.1 0.9l1.1 0.4l1.3 -0.9l1 0l0.1 -1l-0.7 -1.4l-1 -0.3l-1.1 -1l-1.7 2.2l-1.1 0.2l2.77556e-17 -1.2l-0.8 -1l1.5 -1.4l-0.2 -1.6l-1.8 -1.3l-1.3 0.3l-2 -0.3l-1.3 -0.5l-1.2 0.2l-0.1 -1.6l-1.3 0.4l-1.1 -0.5l-1.2 -1.4l-0.8 1.3l-1.3 0.4l-1.1 0.1l-1 2.77556e-17l-0.3 1l-1 -0.4l-2.3 -0.8l-1.9 -0.5l-1.2 0.4l-0.6 1l0.8 1.1l-0.2 1.2l1 0.1l1.3 1.5l0.1 1.1l0.2 1l-0.6 1.2l-0.4 1l-0.4 1l-0.8 1.6l-1.9 0l-0.4 1l0 1.2l0.4 1.1l-0.2 1.1l0.2 1l0.6 1.2l-0.6 1.4l0.2 1l1 0.7l0.6 1.2l-0.4 1l-0.5 1.1l-0.1 1.1l-1.3 0.8l-1 1.3l-1 1.3z"/><g data-zip="96755"><path d="m810 400.1l0.3 1.1l1.2 -0.2l1.2 -1.1l0.3 -1.4l-1.1 0.4l-1.2 0.9z"/><path d="m809 428.4l0.4 1l-0.3 -1z"/><path d="m808.3 387.5l1 0.3l1.6 -0.3l1 0.4l0.8 1l1.2 0.2l1.1 0.3l0.4 1.1l-0.7 1.4l-1 1l-0.1 1.2l-0.5 1.8l-0.2 1.1l1.4 -0.1l0.5 1.1l-0.4 1l-0.4 1l-0.3 1.5l-0.3 1.1l-0.2 1.2l0.2 1.1l0.9 1.1l1.6 1.1l1.2 0.6l1.1 0.2l1.9 1.1l1.2 0l0.5 1.1l1 0.9l0.9 1l1.3 0.4l1.3 0.5l1.1 0.9l0 1.1l-0.9 1.2l0.9 1.1l1.1 -0.1l1.4 0.2l1.2 0.6l1.1 -0.5l2.5 0.9l-0.8 -1.4l-0.4 -1.5l0.4 -1.6l0.2 -1.2l-0.1 -1.1l0 -2.1l0.4 -1l0.1 -1.2l0.2 -1l0.4 -1l0.6 -1.2l-0.9 -1.6l-3.5 -2.2l-1.7 -1.8l0.6 -1.8l-1.1 -0.5l-1.3 -1.3l-1.7 -1.4l-1.7 -0.5l-1.7 -1.6l-1.3 0.7l-2.6 -1.5l-1.1 0.1l-3.6 -2.3l-1.8 -0.2l-1.9 -1.3l-1.7 0.4z"/><path d="m802.9 419.7l2.3 4.9l-0.5 -1.1l-1 -1.3l-0.6 -1.3l-0.3 -1.1z"/><path d="m801.9 417.9l0.1 1.2l0.3 -1z"/><path d="m800 412.4l0.5 2.2l-0.1 -1.1l-0.4 -1.1z"/><path d="m798.8 406.4l0 1.4l0.9 3.7l0.2 -1l-0.6 -1.6l-0.1 -1.4z"/><path d="m798.6 404.7l0.2 1.4l0.1 -1.2z"/><path d="m798.2 401.3l0.3 1.9l0.3 -1.9l0.7 -1.2l1.4 -0.1l0.7 -1.7l1.7 -2.7l2.1 3.8l1.2 2l1.8 -0.1l1.5 -0.2l0.1 -1.2l-0.3 -1.1l-1 -0.7l1 -0.4l1.2 0.2l0.2 -1.5l-0.4 -1.1l-0.2 -1.5l-1.9 -0.6l-0.1 -1.2l-0.8 -1.8l0 -1.2l0.2 -1l-2.7 -0.1l-1.8 0.8l-2 2l-0.2 1.7l-1.9 2.6l0.1 1l-0.7 2.3l0.1 1.6l-0.5 1.5z"/></g><path data-zip="96756" d="m135.6 64.2l0.6 1.2l0.7 1.2l0.1 1.6l2.7 0.7l1 0.7l1.3 0l1.2 0.5l1.3 0.6l1.7 0.7l1.5 0.8l1.3 -1.3l1.5 -0.9l1.9 -0.5l0.4 -1.2l1.2 -0.3l1 -0.7l0.2 -1l1.3 -0.9l1.3 0.2l-1.5 -1l-0.6 -1.2l0.2 -1.1l-0.3 -1.3l-1.7 -0.8l-1.3 0.1l-1.2 0l-1.6 -0.8l-1.2 -0.3l-1.9 -0.3l-1.3 -0.6l-0.1 -1.3l1.1 -1l-1.2 -0.4l-0.2 -1l0.9 -1.1l-1 0.7l-1.2 0.3l-1.1 -0.3l0.2 2.4l-1.3 1.5l-1.6 0.4l-0.2 1l-0.5 1.7l1 1.1l1.2 1l1 0.2l0.8 1.2l-1.1 -0.1l-1.2 -1.3l-1.6 -0.7l-0.2 -1.2l-0.7 1.1l-1.1 -0.7l-0.2 1.3l-0.9 1.3z"/><path data-zip="96757" d="m586.9 217.4l0 1.7l4.1 -1.7l2 -1l0.9 -1.6l0.6 -1.5l1.6 -0.5l1 0.4l1.7 0.5l1.1 0.7l-2.4 2.2l-1 1l1 -0.1l1.4 -0.6l1.2 -0.5l1.1 -0.1l2.2 0l1 0.4l1.4 -0.3l1 0.1l1.7 0.9l1.1 0l1.3 -0.7l-0.8 -1.2l-0.9 -1.5l-0.9 -1.2l-1.1 -0.7l-1 1l-1.2 -0.9l-0.1 -1.1l0 -1.1l0 -1.1l-0.7 -1l-2.77556e-17 1l-0.2 1.7l0.7 1.1l-1.7 -0.5l-0.7 -1.7l-1.1 -0.9l-1.4 -0.2l-1.2 0.2l-1.3 0l-1 0l-1.1 -1l-1.7 0.1l-1.1 0.2l-0.5 1l-1.1 0.8l-0.1 1.1l-1 0.6l-0.1 1l0.8 1.1l-0.8 1.1l-1.5 2.2z"/><path data-zip="96760" d="m946.4 519.5l1.2 0.8l1 1.8l0.1 1.6l1.2 -0.7l-0.5 1.3l-0.9 1l-0.3 1.2l1.4 0l2.9 5.1l-1.6 1l2.9 5.1l-0.7 -3l1.6 -1l1.5 2.5l2.2 2l-0.7 -3l2.2 2l1.6 -1l-0.7 -1.3l-0.5 -2.3l-1.3 -1l-0.6 -1.5l0.4 -1l1 -0.4l-2 -3.4l-2.3 -5.5l-0.5 1.2l-1 0.9l-1.2 -0.1l0.6 -1.3l0 -1l1.2 0l-0.4 -1.6l-2.5 -1.6l-0.8 1.1l0.1 1.3l-1.9 0.3l-3 0.5z"/><path data-zip="96761" d="m652.5 260.2l1.1 0.8l0.6 1.2l0.5 3l-0.3 1.4l1 1.5l0.5 1.1l1 1.9l1.1 0.6l2.6 2.8l1.3 1.9l1.1 0.4l1.8 2l0.5 1.6l0.9 1l1.8 -0.2l2.5 0.8l1.5 1.3l1.4 0.8l3.2 0.5l4.2 2.4l0.5 -1.4l-0.1 -1.7l0 -1.2l-0.3 -1.1l-0.6 -1.4l-0.5 -1l-1.2 -0.9l-0.7 -1.6l0.2 -1l0.2 -1.4l-0.3 -1.3l-1.3 -0.9l-0.9 -1.3l-1.1 -0.4l-1.1 -0.6l-1 -0.7l-1 -0.2l0.8 -1l0 -1l0.4 -1.6l1.7 -0.2l-0.8 -1.2l-0.1 -1.2l1 -1.1l0.6 -1l-0.3 -1.1l-0.7 -1l-0.1 -1.5l-0.2 -1l0.3 -1.5l-0.7 -1.4l-0.2 -1.4l0 -1.1l-0.4 -1.2l0 -1.2l-0.5 -1.2l0.4 -1.9l0.3 -1l-0.2 -1.4l-0.1 -2.7l-0.7 -2.2l-2.7 0l-0.9 1.3l-1 0.3l-1 -0.2l-1.5 0.4l-1.5 -0.7l-1.1 0.5l0.2 1.1l-1.2 1.3l-0.6 1.2l-1.1 -0.6l-1.3 0.7l-0.9 1.1l-0.3 1.1l-0.6 1.2l-0.7 1.3l-0.7 1.6l-0.5 1.4l-0.6 2l-0.7 1l-0.6 3.6l-0.6 1.2l-0.3 2z"/><path data-zip="96762" d="m419.5 121.4l2.77556e-17 1.6l0.3 1l0.5 1.2l1.1 1.8l0.2 1l1.6 0.6l0.9 1l0.5 1.1l0.2 -1.2l0.4 -1.4l0.3 -1.3l-0.5 -1.2l1.1 -1l0.9 -1.1l0.6 -1.1l-0.9 -1.1l1.5 -0.1l-0.4 -1.1l0.3 -1.6l0 -1.4l0.3 -1l-1.1 -0.7l-1.3 -0.7l-1.1 -0.9l-0.5 -1.6l-0.5 -1.2l-1.9 2.7l-1.2 1.1l-0.4 1l-0.3 1.1l0.1 1.2l-0.6 1.1l-0.1 1.4z"/><path data-zip="96763" d="m585.8 263l-0.2 2.2l0.5 1.4l0.6 1.2l0.9 1.4l1.4 0.6l1.3 0.8l4.4 1.7l1 1.4l2.6 4l0.7 1.8l0 2l-0.3 1.3l-0.1 1.3l-0.3 1.3l0.1 1.4l1.8 5.2l0.9 1.2l1.9 2.1l1.4 0.6l2.5 -0.5l1.4 -0.1l1.4 0.1l1.6 0.3l1.5 -0.4l1.2 0.3l1 -0.3l1.3 -0.4l1.3 -0.1l0.5 -1l1.5 0.2l1.9 -1.6l1.7 -0.6l1 -0.6l1.7 0l1.1 -0.5l0.8 -1.1l2 -3.4l1.4 -1.7l1.5 -2.9l0.1 -3l-0.7 -1.2l-2.2 -3.7l-1.4 -1.8l-1.5 -1.5l-6 -5.8l-2.4 -2.3l-2 -1.4l-1.3 -0.6l-2.7 -0.9l-1.4 -0.1l-2.6 -0.7l-2.7 0.1l-3 -0.1l-1.7 -0.6l-1.7 -0.5l-1.2 0.2l-1.5 0l-1.1 0.3l-2.6 0.1l-2.5 0.7l-2.3 1.5l-1.5 0.8l-0.7 1.7z"/><path data-zip="96764" d="m901.8 461.2l0.2 1.4l0.2 1.3l0.2 2l16 -3.1l1.3 -1.6l1.8 -2.1l-0.8 -3.3l1.3 -1l1.3 -0.8l1 -0.8l1.1 -0.9l1 -0.4l1.1 -0.8l0.5 -1.1l0.6 -1l-1.6 0.9l-1 -0.7l-1.2 -1.1l-0.7 1l-1 -0.8l-1.1 0.6l-0.7 1.1l-1.2 -0.8l0.3 -1.4l1.5 -1.3l0.8 -1.3l-2.7 -2.9l-1.5 -1l-0.6 -1.1l-1.6 -1.2l-1.3 -0.9l-0.2 1.2l-1.1 0.3l-1 0.9l-0.9 1.6l1 0.5l0.5 -1.7l1 0.4l-0.5 1.2l-0.7 1.2l-0.6 1.4l-0.5 1.4l-0.9 1l-2.9 3.3l-0.3 1.5l-1.8 1l-4.1 3.7l1.1 2.6l-2 1.5z"/><path data-zip="96765" d="m136.3 60l0.5 1.7l1.5 -0.4l0.3 1l1 0.4l1 1.2l1.6 0.6l-0.6 -1.1l-1 -0.2l-1.2 -1l-0.7 -1l-0.4 -1.2l-1 -1.4l-0.7 1.1z"/><path data-zip="96766" d="m135.8 41.9l0.7 1.4l0.1 1.3l0.2 1.7l1.1 1.9l0.1 1.3l1.2 0.4l1.2 -0.3l1.4 0.9l0.4 1.3l0.3 1.1l0.7 1.2l1.4 -0.1l1 -0.9l-0.8 1.2l0 1.5l1.3 0.2l-1.2 1.2l-0.1 1l1.2 1.1l1.5 -0.2l1.2 0.5l1.6 0.3l1.6 0.5l1 0l1.8 0.4l0.8 1.4l-0.2 1.4l0.3 1.2l1.3 0.4l0.6 -1.5l1.6 -1.7l2.2 -0.9l1.1 -1.2l1.3 0l0.2 -1l1.4 0l0.3 -1.1l0.5 -1.1l0.1 -1.1l1.3 -0.3l1 -1l0 -1.3l-0.3 -1.4l-0.5 -2.2l0.8 -1.4l-1 -0.2l0.4 -1.4l-0.6 -2l-0.4 -1.3l-0.1 -1.5l0.3 -1.7l0.4 -2l-0.9 -1.1l-1.4 -0.3l-1.2 0.9l-1.2 0.5l-1 -0.8l-1.3 -1.2l-1.1 -0.4l-1.6 0.2l-1.2 -0.7l-1 -0.3l-2 0.2l-0.3 -1.1l-1.1 -0.7l-1.2 0.1l-1 0.2l-1.2 -0.1l-1 -0.6l-1.6 0.8l-1.4 0.4l-1 -0.1l-1 -0.4l-1.2 -0.4l-1 -0.1l-1 -0.1l-1 0.7l-1.7 -1.7l0.1 1.7l0.1 1.3l-1.1 0.4l0.3 1l0.3 1.3l-0.5 1l0.4 1.2l-0.6 1.4z"/><path data-zip="96768" d="m712.6 267.4l0.5 1.1l1.2 0.8l1.3 0.6l1.2 0.9l0.1 1.1l-0.3 1.2l-1 0.9l0.2 1.5l-0.6 1.2l-1.1 -0.4l1.2 1.3l1.1 0.5l1.7 0.8l0.9 1.1l0.4 1l1.1 0.7l1 0.4l1.2 0.7l1.2 0.3l1 0.7l1.2 0.5l1.1 1l1.4 0.7l1.2 1.3l1.1 0.9l1.1 0.7l1 0.7l1 0.5l1 -0.9l0.7 -1.2l2.7 1.5l-0.4 -1.2l0 -1l-0.4 -1.1l0.2 -1.3l0.1 -1.1l0.5 -1.1l0 -1.4l-0.2 -1.2l0.4 -1.3l1.4 -1.5l-0.7 -1.1l-1.5 -0.3l-1.3 -0.3l-1.1 -0.1l-1.1 0.1l-1 -0.4l-1.3 -0.4l-1.2 -0.6l-0.9 -1.1l-1.1 -0.3l-1.3 -0.5l-0.3 -1.2l-1.1 -0.5l-1.3 -0.8l-1.2 -1.2l-1.3 -0.4l-1 -1l0.1 -1.2l0.1 -1.1l-0.4 -1.2l-0.6 -1.4l-0.5 -1l-0.2 -1.1l-0.7 -1.5l-1 -0.8l-0.7 1l-0.3 1l-0.5 1.6l0 1l-0.9 1.4l0 1.2l-1.1 -0.2l-0.6 1l-1.2 0.4z"/><g data-zip="96769"><path d="m106.7 55.9l1.1 1.5l1.4 0.2l0.5 1.6l0.9 1l1.2 -1.1l1.3 0.1l1.6 0.1l1.1 -0.5l1.1 0.5l1.8 -1.5l0.7 -1l1.5 -1.3l1.6 -2.1l-1 -0.2l-1 -0.1l0.8 -1.4l-1.3 0.3l-0.5 -1l-1.7 0.7l-1.5 0.2l-0.6 1.1l-0.9 1.1l-0.9 1.4l-1 0.1l-1 0.8l-1.5 0.9l-2.3 -1.2l-1.3 -0.7z"/><path d="m26.7 42.5l1.1 0.8l1 -0.6l0.5 -1l-1.1 0.5l-1.1 -0.3l-0.1 -1l-0.2 1.1z"/><path d="m0 79.7l0.1 1.1l-0.1 2l1.1 1l0.9 1.2l0.8 1.2l-0.1 1l1.8 0.2l1 0.9l1.8 0.8l1.2 0l-0.1 -1.3l0.3 -1.1l1.4 -1.8l0.1 -1.4l0.7 -1.3l1.8 -3.3l1 -1.8l1.1 -1.3l0.4 -1.2l1.1 -1.7l1.6 -0.8l1.2 -0.7l2.8 -0.3l1.5 -0.6l1.6 -0.8l2.3 -0.7l1.6 -0.7l1.4 -0.7l1.4 -0.5l0.3 -1.1l-0.4 -1l-0.8 -2l-0.7 -2.5l0.8 -3.6l0.4 -1.7l1 -0.8l0.4 -1.7l1 -1.8l1.6 -0.1l0.7 -1.6l-0.4 -1.5l-1 -0.8l-2.1 -1.4l-1.1 0.9l-1.8 0.2l-0.1 -1l-1.2 0.4l-1.4 1l-2 0.4l0.2 1l-0.8 2.7l-0.9 1.8l-0.4 1.4l-0.7 1l-2.1 1.6l-3.2 1.4l-1.5 0l-0.5 1.1l-1.4 0.7l-2.6 0.9l-0.8 1.3l-2 2.2l-1.5 1.4l-1.4 1.3l-1.4 0.7l-0.7 1l-0.1 1.1l-0.7 2.1l0 1.2l-1.4 2.3l-0.9 2.1l0.2 1.5z"/></g><path data-zip="96770" d="m540.6 222.4l-0.8 1.3l1.2 1.3l1 0.4l2.1 0l1.7 0.4l4.8 0.8l1.8 0l4.8 -0.4l2.5 0l2.9 -0.4l1.5 0.1l1.7 -0.3l2.1 -0.1l1.5 0.2l1.9 -0.5l2.1 -0.8l1.7 -0.2l2.1 -0.6l1.8 -0.4l2.1 -1.4l-1.6 -0.8l-1 -0.3l-1.1 -0.9l-0.2 -1l-2.2 -2.6l-1.2 -0.3l-1.2 -0.2l-1 -0.8l-2 -0.4l-1.3 -0.1l-1.5 0l-1.2 -1.4l-1.4 -1.7l0 -1.2l-0.8 -1.1l-1.8 -1.8l-1.1 -0.8l-1.6 -0.6l-0.3 -1.2l-1.3 -1.5l-0.9 -1l-1.7 -0.9l-1.1 0.3l-1.2 -0.3l-1.3 -0.9l-1.1 -1.1l-1.1 0.9l0.8 1.2l1.1 1l0.5 2.2l-0.4 1l-0.1 1.4l-0.3 1.3l-1 1.3l-2.4 2.1l-1.3 0.4l-1.1 1.1l-1 1.2l-0.4 1.6l-1.1 1.2l-0.3 1l-0.1 1.4l-0.4 1.2l-1 1.3z"/><g data-zip="96771"><path d="m954.2 530.6l0.7 1.3l0.7 1.2l2.5 -1.4l1.4 2.5l-2.1 -5.6l-3.3 1.9z"/><path d="m918.5 528.3l-1.5 0.7l1.5 1.3l1.7 1.7l2.5 -1.4l5.8 7.6l-0.7 1l0.1 1.1l1.5 0.9l0.2 2.2l1.1 1.3l2.3 1.3l1.1 -1.7l2.4 -3.9l2 1.3l-1 0.8l-5 3.9l1.1 2.3l2.3 -1.3l0.6 1l-2.3 1.3l8 -1.4l5 -2.9l12.6 -6.6l1.5 -0.7l1.2 -0.7l-2 0.1l-1.4 -2.5l0.7 3l-2.2 -2l-2.3 -2l-1.6 1l1.5 2.5l-3.7 -4.6l1.6 -1l-2.9 -5.1l-1.4 0l0.3 -1.2l1 -0.4l0.8 -1.2l-1.6 0l-0.7 -1.2l-0.4 -2.2l-1.2 -0.8l2.5 -0.4l2.4 -0.4l-0.1 -1.3l0.8 -1.1l-1.8 -3.5l-1.3 0.9l-1.9 1.7l-6 4.6l-1.6 -1.8l-2.1 1.4l-2.6 1.3l-2.5 1.1l-5.8 2.9l-2.5 0.4l-5.3 2.8z"/></g><path data-zip="96772" d="m823.4 599.1l0.7 1.1l0.4 1.2l1.2 1l2.5 2.6l1 0.6l1.2 0.5l1.5 0.7l1.1 0.9l1.5 0.5l1.1 -0.1l0.1 1.1l0.6 1.5l0.1 1.2l0.1 1.1l-0.6 1l1.1 0.7l0.9 1.1l0.6 1.3l0.6 2.4l0.4 1.9l0.2 1.1l0.5 1.3l-2.6 -0.2l-1.3 0.1l-0.1 1.4l-0.1 1.1l0.7 1.3l0.1 1l-0.2 1.5l-0.1 1.3l-0.2 1l0.5 1.2l0 1.2l-0.5 1.1l-0.5 1.6l0.1 1.4l0.3 2.5l-1 0.2l-0.8 1l-0.4 1.5l1.2 1.4l2.4 1.6l0.8 1l0.2 1.9l-0.2 1.3l0.2 1.5l1 -0.1l1.5 -1l1 -0.2l1.7 -1l1.6 -2.1l1.5 -0.6l1 -1l1 -1.3l0.9 -1.9l0.1 -1l0.4 -1l1.2 -0.2l1.2 -0.1l1.3 0.1l0.4 -1.2l0.6 -4l1.6 -1.7l0.9 -2.7l0.8 -1.1l1.3 -0.5l1.9 -2.2l0.8 -1.6l0.4 -1.2l-0.2 -2.5l-0.1 -1.6l-0.3 -1l1 -1.5l-0.2 -1.3l-0.2 -2.5l-0.9 1.4l-1.1 -0.5l-0.5 -1l0.2 -1.6l0.2 -1.5l1 -0.5l0.1 -1.6l0.5 -1.4l-0.1 -1.6l0.6 1l1.2 -1.3l0.3 -1.2l-1.9 -1.3l1.1 -0.8l-0.7 -1.1l1.2 0.2l1.1 0.1l0.3 1.4l0.7 -1.1l1 -0.8l1 -0.4l1 -1l-0.6 -1.3l-0.9 -1.5l-0.5 -1l-1.3 -0.5l-1 -0.6l-0.3 -1.4l-0.8 -1l-0.3 -1.8l-1.1 -1.1l-0.3 -1.1l-1 -1.2l-1.4 -0.5l-1 -1l-1.8 -1.1l-1.3 -0.5l1.2 -1.6l2 -1.7l2.8 -2.5l2 -2l1.7 -1.8l0.6 -1.2l1.2 -1.4l1.3 -1.7l0.6 -1.1l-0.7 -2.4l0.5 -1.2l0.6 -1.3l0.9 -1.4l1.3 -1.8l-1.4 -1.5l-1.1 -0.4l-1.2 -0.9l-1.6 -1.5l-1 -0.6l-1 -0.6l-0.8 -1.3l-1 -1.3l-1.3 -1.1l-1.1 -0.4l-0.8 -1.1l-1.9 -0.3l-2.4 4.4l-4.6 -2l-4 5.5l-2.9 3.9l-1.1 1.4l-1.1 1.3l-3.4 3.9l-1.7 2.2l-2.4 4l-4.1 6.9l-0.4 1.7l-0.4 2.7l-0.5 8.8l-5.3 4.1z"/><g data-zip="96776"><path d="m909.6 435.2l1 0.5l1.2 0.2l-2.2 -0.7z"/><path d="m880.1 446.5l0.2 1.2l0.1 1.2l0.3 1.5l0.3 1.2l0.2 1.5l0.6 1.1l0.2 1.4l0.6 1l0.4 1.1l0.9 1.1l1.1 0.7l0.7 1.4l1.5 0.1l1.4 0.9l1.1 -0.1l0.3 -1l0.3 -1.5l0.2 -1.5l0.6 -1.6l0.2 -1.1l-0.1 -1.5l1 0.8l0 1.3l0.1 1l0 1l1.2 0l0.5 -1.1l0.8 -1.7l0.5 -1.2l1.1 0.1l1 0.4l0.6 -1.2l-0.1 -1.2l0 -1l0.2 -1.2l0.5 -1l-0.4 -1l0.8 -1.7l0.4 -1l0.4 -1.1l1.1 -0.8l0.3 -1l0 -1.3l0.3 -1l0.2 -1.2l1.4 0.9l0.4 -1.2l1 -0.4l0.6 -1.2l1.6 0.9l1.3 -0.4l0.4 -1.1l0 -1l-4.7 -2.3l-1.9 -1.2l-1.9 -0.9l-3 -1.7l-2.8 -1.2l-1.5 -0.6l-1.5 -0.8l-1 -1.1l-1 -0.1l0.3 1l-0.4 1.1l-0.7 1.3l-0.5 1.2l-0.9 1.4l-1.3 0.7l-1 1.4l-0.7 1l-0.2 1.2l-0.8 1l-0.3 1.2l-0.6 1.1l-0.1 1.6l-0.2 2.1l-0.6 1.1l-0.1 1.2l-1 1.1l-0.3 1z"/></g><path data-zip="96777" d="m856.4 583.3l0 1.4l1.9 0.6l1.4 1.1l1.3 0.6l1 1.2l0.7 1.4l1.1 1.1l0 1.4l1.1 1.4l0.3 1.4l1.1 0.2l0.8 1.3l1.7 0.1l-0.1 1.1l0.5 1.4l5.55112e-17 1.4l-1.7 0.8l-1 0.8l-0.7 1.1l0.3 -1l-1.2 -1.1l-1.2 -0.2l-0.1 1.1l0 1.1l0.9 1.3l-0.1 1.2l-0.7 1.3l-1.1 -0.7l0.3 1.1l-0.6 1.2l0.3 1.6l-1.5 0.5l-0.2 2.2l-0.2 1.6l0.5 1l1.1 0.5l0.9 -1.4l0.3 1.6l0 1.5l1.3 0.5l1.8 -3.3l1.3 -1.7l1.5 -0.3l0.5 -1l0.8 -2l1.6 -1.1l3.2 -0.6l1.2 -0.7l1.4 -0.5l1 0.1l2.5 -1l1.2 -1.7l2.4 -1.8l1.1 -1.7l1.2 -0.8l2 -1.3l1.4 -0.2l0.9 -1.2l1.5 -0.8l2.2 -0.3l3.2 -1.4l1.3 -1l0.7 -1l0.9 -1.6l1 -1.3l2.3 -1.5l1.5 -0.7l2 -2.4l-0.2 -1l-1.3 0.7l-0.9 1.1l-1.4 1l-1.6 0.9l-1.3 -0.5l-1.5 -1.1l-1 -0.7l-0.2 -1.4l-0.7 -1.3l0.1 -1.1l0.3 -1.7l-1.2 0l-1.3 -0.1l-1.1 -0.2l-0.4 -1l-0.2 -1.4l0.1 -1.2l-0.3 -1l1.1 -1.5l0.9 -1.1l0.7 -1.4l0.8 -1.1l1 -1.7l0.1 -1.1l-0.5 -1.1l-1.3 -1l-0.3 -1.7l-1.2 1.2l-1.1 1.2l-1.5 1.9l-1.3 1.8l-1.1 1l-1.2 1.6l-0.4 -2.1l-1.3 -1.1l-1.1 -0.9l-1.5 -0.9l-1.3 -0.8l-2.9 -2.1l-1.9 -1.1l1.2 -0.9l-5.2 -0.2l-2 0.1l-1.2 -0.9l-0.7 1l-1.5 2.2l-0.6 1.3l-0.5 1.2l0.7 2.4l-0.6 1.1l-0.8 1.1l-1.1 1.2l-1.2 2l-0.8 1.2l-2.9 2.6l-2.2 1.7l-2.1 2l-1.2 1.2z"/><g data-zip="96778"><path d="m977.4 519.3z"/><path d="m917.9 556.4l0.4 1.7l0.7 1l2.4 3.2l1.3 0.2l0.9 1l-0.3 1.5l0.5 1.2l0.8 1.1l1.1 1l1.4 1l1.6 1l1.4 0.5l1.2 0.8l1.1 0.9l1.4 0.6l1 -0.3l1.6 0.7l1.8 0.3l1.5 -0.2l1.5 -0.2l-1.3 1l-1.3 0.6l-1.4 0.4l-0.6 1.1l1 1l1.3 0.5l1.4 0.2l2.1 1.3l1.1 0.1l2 -1.3l1.3 -0.8l1.5 -0.7l2 -2.2l1.4 -1.4l1 -0.6l1.5 -0.6l1.4 0.6l1.3 -0.7l1.4 -0.6l1 -0.7l1.1 -1.2l1.2 1.7l2.1 -0.9l2.9 -1.5l3.2 -1.7l1.2 -1.6l3.1 -2.8l2.7 -2.3l1 -2.1l3.6 -2.3l3.7 -1.8l0.6 -1.4l1.1 -0.5l1.1 -1.2l1.6 -0.8l5.5 -5l0.7 -1.3l2 -2.1l1.7 -5.4l-0.1 -1.1l0.9 -1.5l-0.8 -1.5l-2.5 -1.6l-1.4 0l-3.2 -2.2l-3.1 -0.5l-1.4 -1.4l-1.7 -0.2l-0.8 -1l-2.6 -1.2l-1.7 -2.2l-1.8 -0.7l1.7 0.8l-1.7 2.3l-2.9 -2.6l-1.3 1.8l-0.8 1l-2.6 2.8l-1.9 2.2l-1 0.2l-1.8 1.7l-1 -0.6l-1.1 -0.4l0.9 1.9l-3.2 1.9l-0.1 1.8l-0.8 1.6l-1.5 0.7l-11.8 6.4l-5.8 3.1l-7.7 2l-1.1 0.3l-8.7 2.6l-3.5 0.4l-0.4 1.2l-2 0.5z"/></g><g data-zip="96779"><path d="m701.5 262l1 -0.1l1.5 0.6l0.9 2.5l1.4 -0.1l1.1 -0.3l1.1 -0.5l1 -0.3l1.1 1.3l0.9 1.4l1.1 1.2l1 -0.9l1 -0.6l1.2 -0.2l0 -1.2l0.9 -1.4l0 -1l-0.1 -1.3l0.5 -1.1l-1.5 -0.8l-1.5 -1.7l-1.1 0.3l-0.9 1.1l-1.3 0.9l-2.4 0.9l-2.2 0.6l-1.1 0.4l-1.4 0.4l-1.2 -0.3l-1 0.5z"/><path d="m698.5 263.7l1.2 -0.1l1.2 -0.5l-2.5 0.8z"/></g><path data-zip="96781" d="m902.8 478.3l4.1 0.7l1.1 0.6l1.1 0.2l1.2 0.3l1.4 0.2l1.3 0.3l1.3 0.4l1.2 0.8l1 0l1.2 0.5l1.3 0.9l1 0.9l1 0.4l1.1 -0.1l1.2 0l1.1 0.4l1.1 -0.1l2 0.8l1 0l1.1 -0.4l1.4 0.1l1.2 0.1l1.1 0.4l1.3 -0.1l1 0.2l1 0.1l1.5 0.7l1.2 -0.6l1.7 -0.3l1 0.3l1.2 0l-1.3 -1l1.1 -0.2l1.3 0.4l1.2 -0.4l1 -0.6l1.3 -0.2l1 -1.6l-0.6 -1.2l-0.1 -1.1l0.6 -1.8l-1.1 -1.2l1 -1.8l-1.3 -0.3l-0.5 1.2l-1 0.1l-0.9 -1l-1.7 -0.8l-1 -0.2l-1.5 -0.1l-1.1 0.2l-1.1 0.7l-1.1 0.5l-0.5 1.1l-1.4 0.6l-1.3 0.7l-1.4 -0.2l-1 -0.4l-1.3 -0.6l-1 -0.1l-1.4 0.6l-1.4 -0.5l-1.1 0.4l-1.5 -0.3l-1.1 -0.3l-1.1 -0.2l-1.8 -1.6l-1.1 0.2l-1.3 0.7l-1.4 -0.8l-4.3 2.5l-1.1 0.4l-1.6 -0.2l-1.6 -0.3l-1.2 0.5l-2.1 0.8z"/><path data-zip="96782" d="m414.6 165.2l0.5 1.3l0.6 2.4l0.7 1.3l1.2 0.5l1.1 0.3l1.2 -2.6l0.6 1l1 -1.4l-0.1 -1.3l0.4 -1.6l0.2 -1.4l2.1 -0.9l1 -0.2l1 -0.1l1.2 0.8l1.5 0.7l0.7 -1.1l1.2 -1l1.2 -0.5l1.1 -0.7l1.2 -1.1l1.4 -0.3l1.1 -0.6l1.3 -0.3l-0.2 -1.3l-1.5 -0.7l-0.4 -1.6l0.3 -1l-2.4 0l-1 0.3l-1 0.2l-1.4 0.1l-1.6 0.7l-1.2 0l-1 0.4l-1.4 0.6l-1 0.6l-1 0.7l-1.3 -0.1l-1.1 0.2l-1 0.6l-0.8 1.2l-0.8 1.6l-1.4 0.8l-0.7 1.3l-0.5 1.2l-1.3 0.1z"/><path data-zip="96783" d="m919.9 474.7l0.6 1.5l1 0.5l2 0.3l1.5 0.3l1.1 -0.4l1.4 0.5l1.4 -0.6l1 0.1l1.3 0.6l1 0.4l1.4 0.2l1.3 -0.7l1.1 -0.3l0.8 -1.2l1.1 -0.7l1.1 -0.7l1.1 -0.2l1.2 0.3l1.1 -0.2l1 0.5l1.6 0.6l1 0.7l1.2 -0.2l0.1 -1l1.7 -3l-0.4 -1.5l0.2 -1.7l-0.9 -1.5l-1.9 -1.5l-1.3 -0.2l0 1.3l-1.3 0.7l-1 1.1l-1.6 0.5l-1 1.4l-1 -0.2l-1 0.4l-1 -0.5l-1 0.4l-1.3 -0.1l-1.3 -1.2l-1.4 1l-0.9 1l-1.4 1l-1.1 0.6l-1.3 0.2l-1.4 0.2l-1.7 0.4l-1.2 0.1l-1.2 0.4l-1.2 0.6l-1.2 -0.2z"/><path data-zip="96785" d="m846.5 547.2l-1.4 2.7l5.6 3l4.4 2.3l2.6 -4.7l1.4 -0.2l0.9 1.1l1.2 1l1.4 0.7l0.6 1l0.9 1.2l1 0.9l1.3 0.8l1.2 0.8l1 1.3l1.2 0.7l1.3 0.8l2 1.8l2 -0.1l5.2 0.2l-1.2 0.9l1.9 1.1l2.9 2.1l1.3 0.8l1.3 0.5l1.1 1.2l1.5 1.2l0.4 2.1l1 -1.2l0.8 -1l1.8 -2.2l1.5 -1.9l1.1 -1.2l1.2 -1.2l0.6 1.1l0.5 1.3l1.1 1.1l1.3 -1.1l0.8 -1.7l1.4 -0.6l0.6 -1.1l1.3 -1.2l0.8 -1l0.9 -1.1l0.9 -1.1l1.1 -1.4l1.5 -1.2l0.8 1.8l1 0.7l1.1 -0.9l1.3 0.3l1 0l1.2 -0.7l1.1 -0.5l1.2 0l1.5 -0.5l0.7 -1l4.1 -1l8.7 -2.6l1.1 -0.3l2 -1.9l-0.6 -1l-2.3 1.3l-1.3 -2.2l5.2 -4l1 -0.6l-2 -1.5l-2.1 3l-1.4 2.6l-2.1 -1.5l-1.2 -0.6l-0.5 -2.3l-0.5 -1l-1.2 -0.8l1 -1.6l-5.8 -7.6l-2.5 1.4l-1.7 -1.7l-1.5 -1.3l-7.6 4.7l-7.5 -7.5l-0.3 3.6l-0.4 1.7l0.5 1.3l0.8 1.8l0.9 1l0.4 1l1.1 0.9l1.2 0.8l0.5 1.1l1.1 1.3l0.9 1l0.6 1.3l0 1.3l0.2 1.2l-5 1.6l-10.4 -9.7l-9.1 -7.4l-9.6 -2.4l-13.7 8.6l-5.4 -2.9l-2.1 -1.1l-0.7 1.3l-7.1 13.6z"/><path data-zip="96786" d="m392.7 132.2l1.2 0.5l1.9 0.5l0.4 1.4l1.9 0.9l-0.4 1.4l-0.9 1.1l1.1 1l3.4 3.5l0.3 1.2l-1.4 0.1l-0.5 1.1l-1 0.6l-0.7 1.1l-1.1 0.9l1 0.3l2.1 0l1.1 0.4l1.4 0.6l0.1 -1.6l2.77556e-17 -1l1.3 1.1l1.1 0.9l-1.1 1l-0.3 1.1l1.3 1l1.1 0.9l1.3 0.7l-0.2 1.3l1.2 -1l0.3 -1.5l-0.2 -1.3l-1 -0.4l-0.7 1.2l-1.2 -1.2l-1.1 -0.2l1.7 -1.3l1.2 -0.6l0.4 -1l1.1 -0.6l6.6 -2.9l1.3 0.1l1.4 0.3l1.1 -0.5l1.1 0.1l1.4 -0.1l1.4 -0.1l1.2 0.2l1.4 -0.5l1.7 0.1l1 0l1 0.3l-0.5 -1.2l-0.6 -1l-0.8 -1.4l-0.3 -1.5l0 -1.1l0.4 -1l0.1 -1.3l-1 -1l-0.8 -1.3l-1.3 -0.9l-0.7 -1.4l-0.3 -1l-1.5 -0.6l-1 -0.8l-0.5 -2.1l-0.9 -1.2l-0.6 -1.5l-0.8 -1.2l-1.2 -1.2l-0.5 -1l-1 -0.1l-1 -0.4l-1.1 -1l-1.1 -0.2l-1.2 0l-1 0.3l-1.2 0.3l-1.3 -0.4l-1 0.1l-1.1 -0.1l-1.3 -0.2l-1.2 -0.1l0.6 1.1l1.4 1.2l1 0.6l1.1 0.1l0.7 1.1l1 0.8l0 1l-1.3 0.4l-1.9 -0.7l-1.7 -0.5l-1.5 -0.6l-2.7 -1.5l-1.2 0.3l-1.1 0.3l-0.4 1.6l-1.3 2l-0.8 1.6l-1 1.9l1.2 0.2l1.2 0.7l1.3 0.2l1.3 0.3l1.1 -0.2l1.1 0.6l1 0.8l1.2 0.2l1 -0.6l1 0.2l1.3 0.8l-1.7 0.2l-1.3 -0.2l-1.1 0.6l-0.1 1l1 0.6l-2.3 -0.1l-1.4 -1.3l-5.5 -2.2l-1.1 -0.2l-0.7 1.9z"/><path data-zip="96789" d="m404.3 149.4l1.3 0.3l1 1l0.9 -1l1 0.4l0.2 1.3l0.1 1l-0.7 1.4l-0.4 1.2l-0.1 1.3l0.1 1.7l-0.3 1.2l1.1 1l0.3 1.3l0.5 1l1.2 1l-2.77556e-17 -1.1l0.1 -1.2l0.2 -1.4l0.8 -1.8l0.5 -1.3l1 -1l0.6 -1.2l0.5 -1.2l1 -0.3l1.2 -0.6l1 -1l1.4 0.5l1.3 -0.1l1.2 -0.4l1.1 -0.1l1 -0.3l1.2 0l1.1 -0.2l1 0.1l1 -0.5l1.1 -0.1l0.8 -1.1l1.1 0.1l1.3 -0.7l0.1 -1.5l-0.4 -1.2l-0.4 -1.1l-1.1 -0.1l-0.9 -1.2l-1.1 -0.2l-1.4 -0.2l-1 0.1l-1.4 0l-1.3 0.2l-2 0l-1.2 0.2l-1.3 -0.2l-1.1 0.5l-1.4 -0.3l-1.3 -0.1l-6.6 2.9l-1.1 0.6l0.1 1l-1.1 0.3l-1.8 0.8z"/><g data-zip="96790"><path d="m764.6 313.2z"/><path d="m762.2 314.1l1.3 0.2l-1.1 -0.4z"/><path d="m702.2 313.7l0.2 1l1.5 0.6l0.2 2.1l-0.7 1.9l-0.1 1.3l0.2 1.6l1 1.1l0 1.2l0.3 1.2l1.6 0l1.4 0.6l1.7 0.2l1.4 0.2l1 0.6l1.1 -0.2l1.9 -0.6l1.3 -0.4l1.6 -0.5l1 0.4l2.3 -0.8l3.3 0.2l1 0.1l1.6 -0.5l1.4 -1.3l1.1 -0.4l2.3 -1l1.3 -0.3l1.6 -1l1.9 -0.9l2 -0.7l2.6 -1.6l1.5 -0.5l2.6 -0.6l2.3 0.3l1.5 1.2l1.3 -0.2l1.7 -0.9l1.8 0.4l0.8 1l1.1 -0.9l1.1 0.1l0.7 -1.3l2.1 -1l1.5 -1.2l-1.4 0.1l-1 0.2l-1.2 -0.2l-1.1 -1.2l-1 -0.4l-1.1 -1.3l-0.1 -1.3l-0.1 -1.1l-0.1 -1.4l0.7 -1.9l0.4 -1.3l-0.2 -1.4l-0.1 -1.6l-0.1 -1.1l0 -1.5l-1 -1l0 -1.9l-2 -0.7l-1.5 0l-2.3 0l-2.9 -1.8l-5.3 -2.7l-1.8 -1.1l-1.8 -1.1l-1.6 0.8l-0.5 1.2l-1.5 -0.8l-1 -0.7l-1.1 -0.5l-1.1 -1.1l-1.1 -0.9l-1.1 -0.9l-1.1 -0.8l-1.6 -0.9l-1 -0.7l-1.2 -0.3l-1.2 -0.7l-1 -0.4l-1.1 -0.7l-0.4 -1l-0.9 -1.1l-1.7 -0.8l-1.1 -0.5l-1 -0.6l-1 -0.9l-1.2 -0.3l-1.4 0l-1 -0.4l-1.2 -0.4l-1 0.7l-1.1 1l-0.2 1.2l0.1 2.6l0.8 1l-0.2 1.1l-0.4 1l-0.3 1.9l-0.1 1.3l-1.4 0.6l-1.1 0.2l-0.1 1.4l1 1l1.6 0.8l1.1 0.5l-2.5 6.2l1.6 0.9l1.1 0.8l0.6 1.3l0.2 1l-0.2 1.4l-1 0.2l-1.4 0l-1.4 -0.7l-0.5 1.7l-0.3 4.9l0.5 1.2l0.4 1.1l0.8 1l-0.4 1l-2.3 0.2z"/></g><path data-zip="96791" d="m362.1 129.9l0.6 1l1.4 0l1 0.8l2.2 1.2l1 -0.4l1.2 0.6l1.3 0.6l1.2 0.7l0.9 1l1.2 -0.2l1.2 0.4l1.3 0.9l0.9 1.3l1 0.5l1.7 1.2l0.3 1l1.3 1.2l1.4 1.1l1.3 0.7l1.2 0.1l1.5 -0.5l1.3 -0.3l1.7 -0.6l1.6 -0.3l3.6 -1l1.3 0.1l1.1 0.6l0.8 1.4l1.1 0.8l1.1 0l1.2 -0.8l-3.9 -3.6l-1.1 -1.3l0.5 -1.4l0.7 -1.2l-1.4 -1.1l-1.2 -0.5l-1.2 -1.1l-1.1 -0.6l-0.1 -2.1l-2.2 -0.2l-0.1 -1l-0.3 -1.1l-2 0.7l-4.1 0.3l-1.5 -0.1l-1.8 -0.1l-2.1 0.1l-1.5 -0.2l-3.3 0.1l-1.3 0.4l-2.2 0l-1.3 -0.3l-4.5 0.7l-3.3 0.3z"/><path data-zip="96792" d="m364 130.9l2 2.5l1 0.4l3 3.4l0.8 1.2l0.1 1.8l-0.1 1.6l0 2.6l0 1.4l-0.2 2.5l1.1 1.2l1.1 1.2l1.1 1.8l1.8 1l0.8 1l1.2 0.8l0.4 1.4l1.5 2.2l0.7 1.4l0.1 1.1l0.1 1.5l-0.3 1.1l1.1 1.1l2 0.5l2.3 2.1l0.6 1.1l1 1.6l1 0.8l1.4 -1l1.5 -1.3l1.2 -0.5l1.5 -0.8l0.2 -1.5l0.6 -1l0.3 -1.2l0 -1l-0.3 -1l1.1 -1.4l0.7 -1.6l-0.6 -1.3l-0.5 -1.1l0.4 -1.2l0.1 -1.1l-1.1 -0.8l-0.5 -1.5l-0.5 -1.1l-1.1 -0.5l-1.1 -0.3l-0.8 -1.1l-1.2 0.1l-0.9 -1l-1 -1.2l-1.3 -1.2l-0.2 -1.5l-1.3 -0.7l-1.3 -0.7l-1.4 -1.1l-1 -0.3l-0.5 -1.4l-1.1 -1.6l-1.3 -0.2l-0.8 -1.9l-1 0.2l-1.1 -0.9l-1.3 -0.5l-1.3 -0.2l-1.1 -0.8l-1.5 -1l-1.2 -0.6l-1.3 0.4l-1.5 -0.8l-1.3 -1z"/><path data-zip="96793" d="m671.5 268.8l1 0.2l1 0.7l1.1 0.6l1.1 0.4l0.7 1.1l1.2 1l0.5 1.1l-0.1 1.3l-0.2 1l0.5 1.3l0.8 1.2l1 1l0.4 1l0.6 1.9l0 1.2l0.1 1.3l-0.2 1.3l0.8 1.6l2.2 -0.3l1.2 -0.7l0.8 -1.6l1.7 -1.4l1.2 -0.3l1.9 0.2l-1.3 -1l-0.8 -1.2l-0.6 -1.2l0.3 -1.1l1.3 -1.5l0.7 -1.9l1.2 -2.7l-0.3 -2.1l-0.5 -1l-0.6 -1l-0.4 -2l1 -0.8l0.5 -1l0.1 -1.3l1 -0.7l0 -1.1l-0.8 -1.2l-1.2 -0.8l-0.1 -1.4l-0.7 -1.6l-1.4 -0.7l-0.7 -1.1l-0.1 -1.5l-1.4 -0.9l-0.9 -2l-0.9 -2.1l0.1 -1.7l-0.1 -1.2l-1 0.5l-1.3 -0.9l-0.6 -1.3l-0.5 -1.1l-1.1 0.6l-1 -2.1l-1 -1l-1 0.4l-1.4 -1.2l-1 0.2l-1 -0.8l-0.1 2.8l0.3 1.6l-0.3 1l-0.6 1.2l0.1 1l0.6 2.1l0.4 1.2l0 1.1l0.2 1.4l0.6 1l0 1.1l0 1.4l0.2 1.1l0.6 1.8l0.3 1.1l-0.3 1.1l-1 0.7l-0.3 1.3l1.1 0.8l-1.3 0.7l-1 0.9l0.1 1.1l-0.9 1.7z"/><g data-zip="96795"><path d="m475.6 178.9l1 0.5l-0.5 -1.2z"/><path d="m457.5 178l1 1l1 0.4l1.5 0.4l1.1 0.2l1 -0.1l1.1 1l1.2 0.3l1 -0.2l1.1 0.1l1.2 -0.3l1.3 -0.3l1.5 -5.55112e-17l1.8 0.5l0.8 1l1 0.6l1.3 -2.77556e-17l-1.5 -1.3l-2.7 -1.5l-1.9 -0.8l-1 -0.9l-0.7 -1.1l-1.7 -2.9l-0.4 -1.4l0.1 -1.7l0.5 -1.4l-1.1 -0.7l-1.2 -0.2l0 1.1l-0.2 1.1l-1.3 0.2l-1.1 0.7l1 0.6l-0.5 1.4l-1.2 -1.3l-1 0.7l-1.2 1.5l-0.9 1.7l-0.8 1z"/></g><path data-zip="96796" d="m85.9 38.4l1.1 0.6l0.4 -1.2l0.2 -1.1l1.1 -1.2l0.4 1.2l-0.3 1.1l1 0.8l0.5 -2.2l0.3 -4.2l1.4 -3.5l5.3 1l2.6 2.6l2.1 -0.6l0.8 1.5l1.3 2.3l1 -0.4l1.2 -0.5l1.2 1.1l-0.1 1.1l-0.2 1l-0.6 1l-1.1 1.3l-0.2 1.3l-0.2 1l-0.3 1l-0.2 1.3l-0.1 1.2l0.2 1.2l0.7 1l0.1 1.1l0.9 1.2l0.7 1l0 1.3l-1 0.1l-1.1 -0.4l-0.9 1.3l-2.3 0.2l2.1 1l1 0.2l1 0.4l1.1 -0.3l0.5 -1.3l0.7 -1.1l0 -1.1l0.1 -1l-1.1 -0.6l-0.3 -1.2l-1.2 -0.7l0 -1.2l-0.2 -1l0.8 -1.4l0.9 -1.2l0.2 -1l0.9 -1l1.2 -0.3l1 -1l0.8 -1.1l-0.5 -1.1l0.2 -1l0.5 -1.3l-0.4 -1.1l-0.7 -1.2l-0.4 -1l-0.7 -1.2l-0.2 -1.3l-0.5 -1.1l1 -1.6l1 -0.9l0.5 -1.1l0.8 -1l0.6 -1l0.6 -1l-0.7 -1.2l0.5 -1.3l-1.2 -0.3l-1 -0.8l-1.4 -1l-1.4 -0.7l-1.3 -0.7l-1 -0.5l-1.3 -0.3l-1.4 -0.2l-1.1 -0.6l-0.2 -1.1l-1.3 -0.1l-1.3 0.6l-1.4 0.7l-1.7 1.1l-1.1 1.6l-0.9 1.5l-0.1 1.5l-0.9 1.4l0 1.2l-0.5 1.6l-0.6 1.6l-1 0.9l-2.7 2.4l-1 1.3l-1.3 0.9l1.1 -0.6l0.3 1.6l-1 1.3l0 1l-0.3 1.3l-0.1 1.1z"/><path data-zip="96797" d="m402.1 156.6l0.9 2.8l1.4 1.9l1.5 3.4l1.2 3.1l1 1.3l1 1.2l1 -0.1l1.2 1.2l0.6 1.4l2.1 0.6l2.5 1.2l1.2 1.4l1.1 0l-0.2 -1l0.2 -1.8l-0.6 -1.9l-1.5 -1.2l-0.7 -1.3l-0.6 -1.8l-0.2 -1l0.9 -1l0.6 -1.2l0.7 -1.3l1.4 -0.8l0.9 -1.1l0.7 -1.7l1 -0.6l1.1 -0.2l1.3 0.1l1 -0.5l1 -0.8l1.4 -0.6l1.4 -0.5l1.6 -0.2l1.8 -0.6l1.1 0l1.3 -0.4l2 -0.7l-1 -0.8l-1.3 -0.7l-0.7 -1.6l0.1 -1.3l0 -1l-1.1 0.5l-1 0.5l-1.2 0.3l-1.5 0.9l-1 0.1l-1.4 0.2l-1.2 5.55112e-17l-1.1 0.1l-1.5 0.6l-1.4 0.4l-1 0l-1.5 -0.3l-1.2 0.9l-1 0.2l-1 0.6l-0.7 1.3l-0.6 1.2l-1 1l-0.3 1l-0.3 1.2l-0.3 1.4l-0.4 1.2l-0.2 1.1l-1.3 -0.1l-0.5 -1l-0.3 -1l-1.1 -1.3l0.3 -1.2l0.1 -1l0.1 -1.3l-1 -0.4l-1.6 1.1l-1 0.6l-1.3 -0.3l-1 -0.2z"/><path data-zip="96813" d="m437 185.4l1.6 1.1l1.1 -0.6l-0.2 -1l1.1 -1l0.2 -1.1l1 -0.3l0.2 -1l1.4 0.1l0.9 -1l0.5 -1.2l-1 1l1.3 -1.9l1.3 -0.7l1.3 -0.9l1.3 -1.4l-1.3 0.4l-1.5 0.2l-1 0.9l-1.8 1.3l-1.7 0.3l-0.8 1.1l-1.1 0.6l-0.3 1l-1.6 1.1l-1.4 2.8z"/><path data-zip="96814" d="m438.9 186.4l2 1.5l1.5 -1l1 -0.2l-0.4 -1l0.4 -1.5l-1 -0.2l-1.6 -0.6l-0.9 1.2l-1 0.4l0.6 1.3z"/><path data-zip="96815" d="m441.8 187.2l-0.3 1l1.4 0.1l1.5 0.9l1.2 1.1l0 1.3l1.4 1.8l0.3 -1.8l1.1 -0.9l-0.4 -1.6l-2 -1.5l-1.1 0.4l-1.3 -1.2l-1.2 0.2z"/><path data-zip="96816" d="m446.7 186.9l0.6 1.8l2 1.7l-1.3 0.5l-1.1 1.6l1 0.9l2.8 -0.2l1 0l2 -1.7l0.8 -1l2 -0.9l-1.4 -0.4l-1.1 0.7l-1.2 -1l0.3 -1.7l0.2 -1.1l0.1 -1.2l0.7 -1l1.4 -1.1l0.2 -1.1l0.9 -1.3l0.7 -1.2l-1.4 -1l-1.3 -0.7l-1 0.3l-0.7 1l-0.6 1.2l-0.4 1.3l-1 1.7l-1 0.5l-1.4 0.8l-0.6 1.2l0.3 1.1l-1.1 0.3z"/><path data-zip="96817" d="m433.7 181.7l1.5 0.3l1.3 0.9l0.7 1.4l-0.1 1.1l0.7 -2.7l1.5 -0.6l1 -0.8l1.2 -1.4l0.8 -1.1l1.3 -0.4l1.3 -0.7l1.2 -1l2.2 -0.6l1.3 -0.4l1.7 -1.2l1 -0.9l-0.2 -1.4l-1.5 -1l-1.8 -0.1l-2.2 1.1l-1.1 0.5l-1.1 0.5l-1.1 0.8l-1.3 0.3l-1.5 0.9l-2 0.9l-1.1 1.1l-1.3 1.3l-1.2 1.3l0.5 1.1l-1.7 0.9z"/><path data-zip="96818" d="m418 171.5l0.2 1.4l0.5 1.4l-0.1 1.9l-0.3 1.7l0.3 1.1l1 0.5l2.2 1.5l1.1 0.5l1.1 0.1l1.7 0.5l0.8 -1l-0.6 -1.6l-0.1 -1l0.8 -1.2l4 0.6l0.7 -1.2l0.7 -1.3l0.2 -1.3l-0.7 -1.5l-0.9 -1.1l-1 -0.2l-1.4 -0.6l-1.3 -0.3l-0.8 1.8l-1.1 0.1l0.4 -1.7l-1.6 0.6l-2 -0.6l-1.1 -0.7l-0.6 -1l-0.7 1.9l-1.3 1.1z"/><path data-zip="96819" d="m422.5 182.9l3.5 0.9l4.3 0.1l1.4 -0.4l1.1 -0.1l1.2 -0.1l0.5 1.3l1.1 -0.2l1.2 0.5l-0.2 -1.6l-1.5 -1.3l-1.1 -0.2l1.3 -1l-0.5 -1.1l1.2 -1.3l1.3 -1.3l1.2 -0.9l1 -0.7l1.5 -0.8l1.8 -0.8l1.5 -0.8l1.1 -0.5l1.1 -0.5l1.6 -1.1l0 -1.5l-1.5 -1.3l-1.2 -1.3l0.2 -1.3l-1.1 -0.6l-1.1 -0.4l-1.1 -0.2l-1.3 0.5l-1 0.9l-1.2 0.9l-1.2 0.6l-1.7 1.3l-1.4 0.6l-3.1 1.3l-1.2 -0.3l1.2 1.8l0.3 1.1l0.5 1l-1 2l-0.1 1l-4.6 -0.4l-0.6 1.2l-0.2 1l1.2 0.9l-0.9 1l-1.3 0.4l-1.9 -0.3l-0.4 1.1z"/><path data-zip="96821" d="m452.7 188.4l1.1 0.7l1.2 -5.55112e-17l1.4 0.4l1 -0.1l2.8 -0.8l1.6 0l1.5 -0.3l1.4 -0.7l0 -1.4l0 -1.7l0.1 -1.1l-0.4 -1.5l-0.3 -1l-0.4 -1.3l-1.3 0.3l-1.1 -0.2l-1.5 -0.4l-1 -0.4l-1.4 0.2l-0.7 1.2l-0.9 1.3l-0.2 1.1l-1.4 1.1l-0.7 1l-0.1 1.2l-0.2 1.1l-0.1 1.3z"/><path data-zip="96822" d="m441 183.1l1.5 0.9l1 0.2l1.8 1l1.5 0.9l0.9 -1.3l0.8 -1l1.9 -0.8l0.6 -1.2l0.8 -1.5l0.6 -1.5l0.7 -1l-1.2 -1.3l-0.4 -1.8l-1.8 0.7l-1.7 1.2l-1.1 1.2l-1 0.6l-2.1 1.5l0.2 1.2l-1.3 1.4l-1 0.3l-1 0.3z"/><path data-zip="96825" d="m463.9 181l0.3 1l0.3 1l0.1 1.3l-0.1 2l0 1l1.3 1.1l0.7 1.8l-0.3 1.4l0.3 1l1.9 -0.2l1.3 -0.7l-0.8 -1.5l1.2 0.5l0.7 -1.3l1.6 -1l1.3 -0.9l1.9 -1.4l0.9 -1l1.1 -1.4l0 -1.2l-1.1 0.2l-1 0.3l-1.3 -0.9l-0.8 -1l-1.3 -0.5l-1.1 -0.3l-1.9 0.3l-1.5 0.6l-1.1 -0.1l-1 0.2l-1.2 -0.3z"/><path data-zip="96826" d="m442.7 185.4l0.5 1.1l1.8 1.5l1.1 -0.4l1.3 -0.9l-1.1 -1l-1.8 -0.9l-1.3 0z"/><path data-zip="96850" d="m438.1 183.6z"/><g data-zip="96853"><path d="m434.3 175.8z"/><path d="m423.8 177.4l0.6 1z"/></g><path data-zip="96857" d="m402.8 146l0.3 1l-0.3 1.3l1.1 0.7l1.3 -1.1l-1.1 -0.9l-1.3 -1.1z"/><g data-zip="96859"><path d="m433.8 172.4z"/><path d="m432.7 172.2l0.6 1l-0.1 -1.1z"/></g><path data-zip="96863" d="m456.4 155.2z"/></svg>
