<?xml version="1.0" encoding="UTF-8"?><!DOCTYPE svg PUBLIC '-//W3C//DTD SVG 1.1//EN' 'http://www.w3.org/Graphics/SVG/1.1/DTD/svg11.dtd'><svg viewBox="0 0 1000 1513.15" xmlns="http://www.w3.org/2000/svg"><path data-id="23001" d="m144.8 1179.1l1.3 9.5l0.1 1.9l18.8 12.2l1.6 -4.4l7.6 5.6l11.9 -17.1l20.7 21.3l7 7.4l-0.8 1.4l1.6 0.7l19 12.8l6.3 -8.1l2.8 1.8l11.3 -16.5l-3.1 -4.3l-1.1 -0.9l4.9 -4l-0.9 -1.4l-0.6 -3.4l3 -11.3l4.8 -24.8l-1.5 -1.2l-3.8 -0.9l4.1 -12.8l4 -4l-16.1 -3.8l-3.7 -4.9l0.4 -28.4l0 -2.8l-5.9 -7.1l-0.3 -4.6l-7.8 -12.9l2.5 -3.3l5.2 -0.9l-7 -35l-17.4 3.1l-9.1 6.5l-8.6 6.2l-1 8.6l3.3 17.7l-3.9 13.7l-10.6 38.5l-2.1 -0.8l-13.9 19.3l-2.4 3.3l-11.9 16.5l-8.3 11.5z"/><path data-id="23003" d="m257.4 307.9l-0.9 6.6l73.1 -0.2l217.6 0.5l0.5 62.1l30.1 0.1l0 4.5l62.5 0.2l0 90l-0.1 28.5l1.1 2.6l0.1 28.9l1 2.7l0.3 25.6l-0.1 6.1l-0.2 32.4l-1.2 31.9l-0.1 30l0.5 1.1l4.8 1.6l37.1 -8.5l-0.6 -2.3l51.3 -12.2l36.5 -8.8l-1.3 -5.1l6.9 3.7l16.5 -3.8l-3 -4.7l3.6 -0.8l-1.6 -11.5l6.8 -0.7l-2.7 -6.7l-3.2 -1.7l-0.7 -4.2l1.3 -4.9l-0.7 -4.5l1.1 -3.1l5.2 -4.4l0.7 -1.1l1.2 -0.1l1.4 0.3l2.8 -1.8l-1.9 -1.7l-0.6 -1.9l-1 -1.8l-2.1 -1.5l-1.2 -1l-1.6 -1.8l-1.7 -2.9l-1.7 -3.3l-0.3 -1.6l0.2 -3.1l4.4 -4.4l1.5 0.2l2.5 -1l0 -1.4l0.9 -2.7l1.3 0l1 -0.6l0.9 -1.1l0.3 -1l-1.7 -2.8l-3.9 -3.1l-1 0.2l-0.6 -1.4l-0.3 -1.7l-0.1 -7.3l0.2 -14.1l0 -11.8l-0.2 -51.5l-0.2 -32.6l-0.6 -55.4l-0.2 -10.2l-0.8 -46.9l-0.2 -55.9l0 -2.6l-0.1 -10.4l0.1 -27.3l0 -3.1l-0.1 -42.2l0.1 -1.3l-0.1 -4.2l0.1 -3.7l-0.2 -5.2l0 -7.8l-0.1 -1.1l-1.2 -1.5l-2.4 -1.2l-1.5 -1l-1.4 -1.8l-1.1 -0.8l-2.8 -0.7l-1.1 -0.5l-2.9 -2.3l-3.8 -2l-1.4 -0.6l-1.9 -0.5l-1.4 -1.2l-1.1 -2l-0.1 -2.5l-0.2 -2.1l-0.5 -1.4l-2.2 -2.3l-2.2 -4.6l-2.3 -1.1l-1.5 -1.1l-2.4 -3.8l-0.8 -2.3l-0.9 -1.7l-1.5 -2.3l-0.5 -3.5l-0.2 -1.3l-0.8 -1.2l-1.9 -1.2l-1.4 -1.2l-4.2 -1.1l-1 -0.6l-1.9 -2.5l-2 -3.1l-2.4 -2.9l-0.9 -1.3l-3.4 -2l-6.7 -4.5l-3 -1.2l-0.9 -2.4l-0.6 -1.2l-3 -2.4l-6.6 -3.8l-1.4 -1.8l-2.8 -1.4l-2 -2.9l-1.7 -2.1l-0.3 -1.5l0.3 -2.7l-0.7 -1.3l-1.5 -0.8l-3.6 -0.5l-6.4 -3.6l-2.2 0.1l-1.6 -0.6l-1.3 -1.3l-0.3 -1.9l-0.8 -1.1l-1.7 -0.7l-1.3 0.3l-1.9 0.6l-4.1 0l-1.1 -0.4l-2.1 -1.7l-1.4 -0.6l-1.3 0.1l-2.7 1.5l-2.2 -0.1l-3.2 -1.3l-1.6 -0.1l-1.5 0.2l-4.6 1l-1.5 0.5l-1 0.6l-1.1 1l-1 1.3l-1 1.6l-0.4 1l-1 4.7l-0.1 1.7l0.8 4.7l-0.8 1.5l0.1 1.3l1.3 1.5l0.6 1.1l0.1 1.5l-1.7 1.2l-1.6 0l-5.6 -0.7l-3 1.8l-1.8 0.4l-2.6 -0.6l-1.4 0.3l-2.3 -0.7l-0.8 -1.5l-0.5 -1.2l-1.6 -1.6l-1.1 -0.3l-1 0.2l-1.9 0.8l-1 0.2l-1.4 -0.1l-1.8 -0.7l-3.4 0.1l-1.3 0.5l-1.3 0.8l-2.5 2.7l-1.7 0.8l-1.2 0.3l-2.1 -0.5l-2.6 -1.2l-1.8 -0.2l-1.1 0.7l-1.4 1.3l-1 2.5l-1.1 1.1l-0.4 1.4l0.9 1.7l0.2 1.4l-2.6 3.6l-3.6 2.2l-1.3 0.3l-3.4 0.4l-2.2 0.6l-1.4 0.1l-1.1 0.8l-1.3 0.1l-2.9 -2.1l-2.8 -0.6l-1.4 0.4l-2.9 1.8l-1.4 -0.8l-1.7 -0.2l-4.2 1.8l-2.4 1.7l-1.7 1.6l-3 1.5l-1.3 0.3l-2.6 -0.1l-5.6 2l-2.1 0.2l-4.6 3.7l-4.2 2.6l-1.2 1.5l-1 0.9l-1.3 0.5l-2 0.1l-1.6 0.9l-1.1 1.2l-1.9 0.4l-1.3 -0.3l-1.2 1.5l-1 -0.8l-1.1 -1.9l-1.7 -1.1l-0.8 -2l-1.1 -1l-1.3 0.2l-1.4 -1.8l-1.6 -1.5l-1.6 1.3l-0.9 -1.2l-1.4 0.2l-2 -2.5l-1.4 -0.6l-2.2 -1.9l-2.8 -1.7l-2.8 -2l-4.8 -2.9l-1.5 -0.8l-2.4 -1.7l-2.5 -4.1l0 -1.2l0.6 -1.1l0.2 -1.4l-0.2 -2.6l-0.6 -2.2l0.3 -1.5l-0.2 -2.4l-0.6 -1.1l0 -1.4l0.8 -2.9l-1.3 -3.4l0.3 -4.2l-0.1 -18l1.8 -2.2l1.7 -0.4l-1.1 -1.4l0.2 -2.8l0.2 -1.4l0.8 -1l0.5 -1.4l-0.6 -5.1l-0.8 -1.6l-3.1 -2.1l-1.4 -0.3l-1.3 1l-3.4 2.2l-3.8 -1.1l-0.1 -1.2l-2.6 -1.9l-3.4 -2.2l-5.8 -2.5l-2.3 -0.8l-2 0l-3.4 -2l-6.2 1.6l-3.9 -1.8l-1.1 -0.9l-52 74.9l-30.8 44.5l-61 88.7l-13.5 20.2l-16.6 24l-1.7 2.7l-10.7 15.5l-0.7 1.2l-5.5 36.3z"/><path data-id="23005" d="m54.5 1167.4l-1.9 5.1l4.5 10.3l13.4 3.3l18.7 26.2l-7.8 5.3l4.3 5.9l-6.8 7.2l3.4 7.1l-5.2 4.8l-8 2.8l0.8 9.3l2.8 7.1l0.6 3.6l3.4 3.7l7.9 1l9.2 -5.2l6.5 4.2l3.5 1.6l2.3 10.7l-2 7.4l-1.2 10.7l5.8 -0.8l4.6 1.9l0.6 3.8l3.4 -2.5l5 2.5l7.4 -8.7l13.5 14.8l8 8.8l-2.6 3.7l-5.7 8.2l24.5 17.6l9 6.2l5.9 -1.8l1.9 4.5l3 -0.5l0.2 -5.2l7.4 -5.3l1.2 -0.8l2.6 3l4.3 0.6l-0.3 4.1l4.3 0.5l2.7 -6.2l2.6 -0.3l2.2 -2.5l-1 -7.1l-3.2 -1.3l-0.7 -2.1l2.3 -8.9l0.2 -1.9l0.2 -1.5l3.7 -4l3.4 -4.7l1.1 -2.6l1 -2.5l4 -2.2l4.8 -0.2l3.8 -0.2l4.8 3.6l1.8 -3.1l-0.8 -5.6l1.6 -1.5l1.5 -1.5l1.9 -2.3l1.9 -0.7l4.1 -1.5l2.5 2.5l8.5 0.7l2.1 -4.8l2.2 -6.6l2.9 -2.1l3.3 -5.7l1.2 -0.3l1.1 1l5.2 -4.8l2.8 1.7l3 0.9l3.8 -1.6l0 -3.6l3.9 -8.9l-0.8 -12.3l-5.1 -5.1l0.8 -4.7l5.8 -10.3l0.9 -2.8l0.6 -4.1l1.3 -4.4l-4.3 -3l-7.3 9.4l-2.2 1.5l-4.2 3.1l-5.5 -3.7l-5.7 2.7l-10.2 -10.3l-3.4 -10l-11.3 16.5l-2.8 -1.8l-6.3 8.1l-19 -12.8l-1.6 -0.7l0.8 -1.4l-7 -7.4l-20.7 -21.3l-11.9 17.1l-7.6 -5.6l-1.6 4.4l-18.8 -12.2l-0.1 -1.9l-5.4 -3.5l-1.6 0.4l-8.5 12l-4.8 -6.5l-4.2 2.4l-3.5 -4.8l-3.9 -13l1.4 -10.3l4.6 -7.7l-4.9 -10.2l-1.9 -2.4l-2.2 -3.2l-17.3 12.4l-30.5 19.2l-8.9 -6.1z"/><path data-id="23007" d="m61.1 764.4l-0.8 1.5l13.3 88.1l-10.6 1.6l4.6 30.4l2 -0.3l5.4 29.4l1.1 36.7l37.3 -21.6l12.4 28.1l12.9 29.2l-9.5 5.6l49 10.4l16.2 3.6l-6.5 10.8l4.3 -0.8l2.2 11.9l7.3 0.6l2.9 15.1l9.1 -6.5l17.4 -3.1l21.1 0.7l1.6 -7.7l-8.9 -7.2l7.5 -14.2l0.2 -5.9l21 4.8l1.6 -2.6l4.6 -7.4l-0.7 -2.3l-4 -12.6l-5.2 -4.5l2.1 -6.8l-8.7 1.3l-1.6 -10.7l-2.6 -16.6l3.1 -0.5l0 -5l-0.6 -4.9l-3 0.5l-4.3 -26.5l-23.4 4.7l-5.4 -31.1l10.1 -1.9l-2.9 -18l-8.9 -44l-32.5 6.3l-4.5 -18.8l-25.6 7.1l-24.2 -126.7l3.1 -0.6l-11.4 -53.3l-1.3 0.4l-1.3 1.4l-0.3 2.7l-6.4 8.5l-2.4 1.1l-1.2 0.3l-2.7 3.5l-4.4 2.1l-2.3 1.1l-1.4 2.7l-2.1 4.3l-4.6 5.6l-1.7 1.8l-0.5 5.6l-3.1 6.1l-3.8 4.5l-1.2 1.2l-0.4 1.6l0.1 1l1.5 6.9l2.2 2.4l3.9 3.3l2.6 4.4l1.5 2.1l2.9 2l3.2 1.3l3.4 5.2l1 4l-0.8 11.3l-2.7 1.7l-1.3 0.5l-2.1 -0.3l-0.3 -2.8l-4.1 -2.9l-1.3 -0.3l-1 0.6l-1.3 0.2l-4.8 0.7l-2.5 -1.6l-1.8 -1.4l-3.3 -4.3l-0.2 -1.8l0.2 -1.3l-2.4 -2.3l-6.7 -1.2l-3.3 1l-0.9 1.4l-0.9 2.1l-2.6 2.3l-3.1 3.8l0.1 2.5l3.1 3.4l1.1 1.8l1.1 3.9l-1.2 1.1l-1.7 2.4l-1.2 5.2l0.1 2.2l0.6 1.5l1.6 1l0.8 1.9l-0.4 3.7l-0.9 3.3l-0.9 1.3l-3.2 2.6l0 1.2l-0.4 2.5z"/><g data-id="23009"><path d="m654.9 1161.2l2.8 4.1l6.6 0l1.7 -2.1l0.1 -1l-3.9 -5.8l-1.5 0l-1.3 0.9l-1.7 0.3l-2.4 2.6z"/><path d="m656.2 1134.5l-1.8 3l7.6 5l2 -0.8l1.5 -6.8l2.8 -2.3l1.6 0.6l-0.3 -1l-2 -1.9l-2.2 -0.5l-5.3 2.8l-2.2 0.5l-1.6 1.5z"/><path d="m624.8 1145.6l-0.3 2.6l1.3 1.9l2.9 0.1l1.2 -0.4l5.6 0.9l2.3 4l-0.3 2.7l2.4 3.2l2.7 -1l7.5 -7.2l2.8 -4.8l-5.6 -7.2l-2 -3.6l-1.9 -1.3l-7.1 -3.7l-3.3 -7.8l-2 -2.2l-1.8 2.2l-0.6 3.7l-1.1 3.6l-1.2 13.6l-1.3 0.8z"/><path d="m620.5 1161.4l0.4 3.3l3.4 1.2l2.8 -3.4l-0.3 -2.4l-1.6 -2.4l-1.8 -1l-1 0.7l-1.8 4z"/><path d="m618.1 1083.2l-0.4 3.7l3.7 3l6.2 3.8l2.6 -2l-4.8 -17l-0.7 -4.3l-1.5 -1l-1.2 0.1l-1.4 1.3l-0.8 4.5l0.3 3.1l-1.9 4.7z"/><path d="m542.9 1119.8l0.4 3.2l2 3.5l1.6 0.1l1.8 0.8l1.5 0.5l1.9 1.3l2.8 1.6l2.4 0.3l2.7 -3.4l-0.2 -3.2l-5.4 -5.1l-8.1 -1.6l-1.9 0.6l-1.4 1.5z"/><path d="m541 989.9l1.4 3l7.5 12.9l3 1.7l-1.9 4.9l0.9 9.7l1.2 -0.3l2.8 4.7l1.7 7.5l-1.2 5.4l-0.5 3.8l0.6 5.2l-3.9 -0.6l-0.5 4.8l-3.3 2.3l-1.6 6.5l0.7 11.2l0.9 4.7l-0.5 2.2l-1.1 2.1l-1 5.1l-0.7 6.1l0.3 1.5l7.8 1.5l5.7 -4.3l1.3 -2.2l1 -0.9l3.8 -0.5l5 3.2l-1.9 1.9l-2.1 2l-1.6 3.6l5.9 6l5.9 3.6l5.2 2.1l-4.5 6l-3.4 5.2l-5.5 3.6l0.5 6.3l3.3 5.1l-0.2 7.2l8.9 9.2l5.9 3.8l-0.1 2.4l1.7 0l1.3 0.3l2.9 1.4l3 0.7l-0.4 -2.2l3 -1.8l1.3 -3.6l6.4 -3.6l-7.9 -3.1l3.2 -6.5l4.6 -3.6l3.7 -2.2l-0.1 -6.8l2.9 -1.1l5.7 -2.2l0.9 -2l0.4 -2.8l-1.1 -1.8l-0.4 -2.8l2.4 -3.6l0.1 -1.6l-2.2 -3.7l-0.9 -3.5l0.2 -1.4l-1.7 -3.2l-4.3 -0.3l-1.9 -2.4l-0.5 -1.7l-0.2 -1.6l0.9 -5.2l2.3 -4.5l2 -3l-1.1 -5.7l-2.2 -0.9l-1.3 -3.7l-0.4 -3.1l0.3 -1.6l1 -1.3l1.4 -0.3l5 2l1.1 -0.4l3.7 -4.8l2.2 0.6l1.4 -0.9l1.2 -5.3l2.2 -1.6l1.2 0.6l1.8 9.7l-1.9 2.3l-0.6 3.1l1.2 3.4l2.9 0.3l1.2 -0.4l0 -2.4l-0.8 -1.8l0 -2.4l1.3 -4.8l-1.2 -8.3l0.9 -2.3l1.2 -1.4l1.7 -0.7l1.3 0.3l3.2 3.2l-0.7 4.2l-0.3 8.5l1.5 1.6l1.5 0.1l1.3 -0.5l5.8 -6.8l0.4 -3.2l0.8 -1.2l2.1 0.3l1.6 2.2l3.2 7.1l0.2 3.6l-1.3 1.2l-8.3 4.3l-5.9 0.8l-3.2 1.4l-2.7 3.2l-2.5 5.4l1.2 2.7l1.5 3.8l2.4 2.8l1.2 1.4l0 4.7l1.2 1.2l1.2 3.6l0.4 3.3l4.4 7.6l2.8 1.7l2.9 -0.2l2 1.4l1.1 1.8l5.4 2.8l0.9 2.2l5.3 -0.7l4.8 -5.9l5.6 1.8l1.9 1l4.3 -0.5l12.1 -0.4l1.4 -0.8l-3.4 -8.3l-5.4 -1.1l1 -6.5l0.2 -1.4l7.8 -5.6l4.4 -7.3l-0.3 -5.1l-1.9 -4.5l-1.6 -5.7l0.9 -2l0.9 -1.9l7.9 -0.6l2.1 3.4l3.6 -3.5l4.8 -2.9l1 5.4l-0.6 5.2l0.1 2.1l2.1 2.3l4.5 1.2l2.2 4.1l1.6 1.3l2.7 0.4l1.5 -4.4l-0.4 -2.6l0.1 -2.3l1.1 -1l1.3 0.1l4.9 -10.1l-1.3 -2.3l2.1 -3.6l1.1 -0.7l1.3 1l0.8 2.3l2.8 4.4l1.6 0l4.2 -4.1l0 -4.5l1.1 -1l-6 -19.8l2.2 -5l-4.5 -4.8l-4.7 -22.4l-1.6 -6.9l5.7 -1l-1.1 -5.6l-4.4 -23.1l-4.5 0.9l-17 -90.3l3.2 -0.6l26.6 -5.1l-4 -23l-6.3 -41.1l-7.4 -37.6l-60.2 10.7l2 10.7l6 31l-30.6 5.8l5.1 29.4l-30.3 5.7l2.2 12.5l3.4 18.8l1.2 6.3l4.4 23.6l2.3 13.1l-20.2 3.7l-21.3 3.8l-7.4 12.7l-10.6 -6.1l-5.5 6.1l-1.7 1.3l-5.6 13.3l-6.8 -1.3l1.3 -3.8l-7.6 -4.5l-4.4 1.7l-7.7 21.7z"/></g><path data-id="23011" d="m232.6 1070.9l-2.5 3.3l7.8 12.9l0.3 4.6l5.9 7.1l0 2.8l-0.4 28.4l3.7 4.9l16.1 3.8l-4 4l-4.1 12.8l3.8 0.9l1.5 1.2l26 5.7l4.8 -15.4l5.6 -4.9l21.3 4.8l2.1 4.9l22.2 5.2l2.3 -0.5l-2.1 -34.4l3.4 -16l0.3 -1.6l24.9 6.3l4.6 -4.9l1.6 -1.7l3.6 -21.1l14.7 -41l12 2.3l5.7 -29.7l-10.7 -2.2l5.7 -30.3l-16.3 -2.3l4.3 -8.6l-7.9 -1.5l0.9 -5.5l0.3 -8.6l-3.1 -0.7l-29.1 5.3l-5.7 1.2l-1.4 0.8l1.1 9.1l10 12.9l1.8 4.3l-3.2 6.8l0.3 6.1l-3.4 2.1l-14.5 -3.1l-11.3 -2.5l-7.2 -1.6l-0.5 -1.5l-7.7 -1.9l-4 10.5l-6.2 -1.4l-1 -9l-7.4 -4.7l-18.7 3.6l0.7 2.3l-4.6 7.4l-1.6 2.6l-21 -4.8l-0.2 5.9l-7.5 14.2l8.9 7.2l-1.6 7.7l-21.1 -0.7l7 35l-5.2 0.9z"/><g data-id="23013"><path d="m584.1 1173.8l2.1 9.6l-0.2 8.9l1.2 5.9l5.5 -4.6l4.2 2.5l3.7 -0.8l-0.7 -8.9l5 -11l-4.2 -5l-4 -3.7l-0.9 -5.3l-2.4 -0.5l-3.5 -1.6l-1.3 -0.3l-1.7 0l-0.2 3.3l1.8 3l1.2 7.2l-5.6 1.2z"/><path d="m525 1248.8l0 6.8l3.7 3.9l4 0.1l3 -5.6l0 -4.6l-0.4 -6.4l-2.8 -5l-3.2 1.4l-3.4 4.2l-0.8 5.2z"/><path d="m517.5 1161.5l0.4 1l8.3 -0.1l0.3 1.5l-1.4 6.8l2 2.6l1.2 3.5l-2.1 3l-2.3 4.1l6.9 4.5l3.8 2.4l2.7 0.1l8.3 -2.4l2.4 0l2.7 -1.3l4 -6.1l1.2 0.1l1.4 -1.4l2.3 -4l-0.6 -3l-2.2 -2l-2.1 -2.9l-3.9 -7.9l-2.1 0.2l-1 -2.1l-0.2 -2.7l0.2 -1.8l4.2 -0.8l2.4 0.4l2.8 -2.2l-1.5 -0.2l-1.3 -0.7l-3.9 -5.2l-2.5 0.1l-1.1 -4.3l0.2 -1.7l-0.7 -2.6l-5.4 1.1l-7.6 5.5l-2.4 2.4l-6.9 3.8l-4.4 6l-2.2 5.9z"/><path d="m394.9 1093.6l2.6 10l-2.1 7.5l4 12l7.1 2.6l-0.6 2.9l8.2 1.8l8.3 -1.3l3.9 12.3l4.3 13.6l-1.9 12.5l7.1 13.7l-9.2 7.2l-1.9 9.3l-4.3 -4.3l-4.3 2l-2.9 17.2l2.3 -1l0.9 6.2l-3 7.3l-2.3 5.2l0.3 4.5l2.9 -6.3l7.5 -2l0.1 -4.5l3.1 -4l1.4 0.8l1.6 0.9l1.8 -0.9l2.8 3.6l-4.5 5.2l-2 5.3l1.9 6.3l-1.5 5.5l0.1 3.3l9.3 -2.6l2.1 -16.7l7.5 -1.5l5.5 1.3l1.8 -2.2l2.2 -6.9l4.6 -6l2.4 -5.8l7 -1.6l3.6 1.8l8.8 -1.1l4.3 1.9l2.4 -5.7l4.1 -2.7l1.6 -2.6l-0.7 -2.5l-4.7 -8l-1.9 -2.9l-1.5 -3.1l2.9 -4.2l2.9 -0.7l1.3 0.5l0 1.6l4.5 -5.4l-2.8 -4.4l-1.8 -0.9l-1.3 -0.1l-4.9 1.5l-3.1 1.8l-2.9 -2.7l0.1 -3.7l4.4 -3.9l1.7 -4.7l-1 -4.7l-0.3 -4.3l0.3 -1.4l0.5 -1.4l4 -0.2l1.6 -2l0.7 -8.2l2.2 -6.5l-0.2 -3.3l0.8 -2.9l2.6 -5l-3.3 -3.7l-19 1.3l-35.6 -36.9l-18.8 19l-13.5 -11.7l-1.8 5.1l-6.6 1.2l-3.5 3.6z"/></g><g data-id="23015"><path d="m423.7 1277.4l-0.3 3.4l5.7 1.7l2.9 -2.6l1.1 -3.7l-3.4 -2.3l-3.2 0.9l-2.9 2.6z"/><path d="m312.9 1185.2l-5.6 5.5l14.3 3.4l1.9 0.7l11.2 2.4l-4.7 11.9l-0.4 13.4l3.3 1.4l-8.7 11.2l6 14.5l6.4 -2.2l-1.4 10.8l1.3 0.2l1.7 1.3l0 1.4l5 8.5l1.6 4l2.3 -4l-0.5 -4.2l-0.6 -4.5l0.8 -6.4l3.6 -3.2l1.3 0.8l-0.1 2.2l2.2 3.4l1.4 -1.6l0.5 -2l0 -2.5l2.1 -4.4l2.4 -0.3l1.3 2.5l-0.8 6.8l-1.5 1.8l-1.5 -0.1l-0.3 3.7l4.2 -1.2l2.4 -1.7l0.7 -6.3l1.8 -0.8l2.5 1.3l1.3 -0.2l1.8 -6.7l-1.4 -3.8l-0.1 -1.8l1.7 -1.2l4.6 2l1.1 2.4l1.7 8l-0.7 2.5l0.3 2l2.8 -2.1l4.1 -10.5l0.7 -3.7l11 -9.8l2.6 -0.9l1.3 -3.6l0.5 -4.3l-2 -7.2l8.5 0.3l4.1 -1.8l2.9 -17.2l4.3 -2l4.3 4.3l1.9 -9.3l9.2 -6.5l-7.1 -14.4l1.9 -12.5l-4.3 -13.6l-3.9 -12.3l-8.3 1.3l-8.2 -1.8l0.6 -2.9l-7.1 -2.6l-4 -12l2.1 -7.5l-2.6 -10l3.5 -3.6l6.6 -1.2l-23.4 -5l-3.6 21.1l-1.6 1.7l-4.6 4.9l-24.9 -6.3l-0.3 1.6l-3.4 16l2.1 34.4l-2.3 0.5l-22.2 -5.2l-3.9 13.5l-2 2.8l-1.9 16.3z"/></g><path data-id="23017" d="m1.3 755.3l-1.3 0.3l1.7 20.1l1 22.7l0.8 12.7l2.5 47.7l0.3 1.7l1.2 23.7l1.9 29.3l1.7 30.5l0.2 6.5l1.4 27.6l0.5 15l0.6 18l0.9 19.7l0.5 8.9l1.3 32.4l0.6 12.6l0.4 13.2l0.2 5.7l0.4 8.8l0 4.5l1.5 45.5l0.2 5.9l0.7 17.5l1.4 42l0 6.7l0.2 6.3l0.4 12.8l0.2 15.7l7.6 2.5l7.4 -1.7l9.3 -5.6l11.5 -0.9l10.7 1.2l3.4 -2.6l-2.8 -7.1l-0.8 -9.3l8 -2.8l5.2 -4.8l-3.4 -7.1l6.8 -7.2l-4.3 -5.9l7.8 -5.3l-18.7 -26.2l-13.4 -3.3l-4.5 -10.3l1.9 -5.1l8.9 6.1l30.5 -19.2l17.3 -12.4l2.2 3.2l1.9 2.4l4.9 10.2l-4.6 7.7l-1.4 10.3l3.9 13l3.5 4.8l4.2 -2.4l4.8 6.5l8.5 -12l1.6 -0.4l5.4 3.5l-1.3 -9.5l8.3 -11.5l11.9 -16.5l2.4 -3.3l13.9 -19.3l2.1 0.8l10.6 -38.5l3.9 -13.7l-3.3 -17.7l1 -8.6l8.6 -6.2l-2.9 -15.1l-7.3 -0.6l-2.2 -11.9l-4.3 0.8l6.5 -10.8l-16.2 -3.6l-49 -10.4l9.5 -5.6l-12.9 -29.2l-12.4 -28.1l-37.3 21.6l-1.1 -36.7l-5.4 -29.4l-2 0.3l-4.6 -30.4l10.6 -1.6l-13.3 -88.1l-1 2.1l-1 1.2l-1.3 0.8l-0.2 2.4l0.2 4l1.7 2l-0.8 1.5l-3.1 1.8l-5.2 -1.4l-1.6 -0.6l-1.9 -1.5l-1 -1l0 -3.8l-0.5 -1.9l-2.3 -3.7l-1.7 -1.9l-1.5 -1.4l0.3 -2.1l1.5 -2.7l0.4 -1.2l-1.4 -5.4l-3 -2.3l-2.2 -0.6l-1.1 -1.4l-1.3 -2.5l-0.4 -1l-4 0.7l-4.5 0.1l-1.1 -1.4l-2.8 -2.6l-2.1 -1.2l-0.5 1.4l0.4 3l1.5 1.1l0.6 1.1l-1.6 3.2l-1.3 0.8l-1.8 0.8l-2.1 0.6l-1.8 0.3l-1 -0.4l-4.1 -0.2l-1.7 0.8l-1.8 1.3l-1.1 0.5z"/><path data-id="23019" d="m418.1 835.2l6 29.6l11.9 60.5l-1.1 0.6l4.7 29.3l14.9 -2.6l5.2 29.1l29.7 -6.8l11.3 -2.7l28.4 -6.8l7.6 -0.8l6.7 -2.7l0.1 3.3l5.1 2.9l4.4 -1.7l7.6 4.5l-1.3 3.8l6.8 1.3l5.6 -13.3l1.7 -1.3l5.5 -6.1l10.6 6.1l7.4 -12.7l21.3 -3.8l20.2 -3.7l-2.3 -13.1l-4.4 -23.6l-1.2 -6.3l-3.4 -18.8l-2.2 -12.5l30.3 -5.7l-5.1 -29.4l30.6 -5.8l-6 -31l-2 -10.7l60.2 -10.7l27.9 -5.2l-6.6 -28.9l2.2 -0.5l-21.8 -98.9l-51.3 12.2l0.6 2.3l-37.1 8.5l-4.8 -1.6l-0.5 -1.1l0.1 -30l1.2 -31.9l0.2 -32.4l0.1 -6.1l-0.3 -25.6l-1 -2.7l-0.1 -28.9l-1.1 -2.6l0.1 -28.5l0 -90l-62.5 -0.2l0 -4.5l-30.1 -0.1l-1.7 237l-0.1 10.8l-31.9 7.8l2 8.2l-0.2 19.6l-3.1 24l26 -5.2l6.3 29.3l13.3 69.6l-25.4 5.3l5.9 28.2l-30.7 5.8l-60.1 12.2l-29.9 5.7z"/><path data-id="23021" d="m306.4 603.1l-3.7 2.8l9.8 4.6l-2.8 3.3l3.4 1.9l1.2 6.1l7.4 4.6l3.9 0.1l-1.3 9.3l7.5 -1.2l5.2 3.7l-4.9 -1.9l-1.5 3.7l4 4.1l-4.6 8.9l1.8 2.3l-4.4 9.9l-11.7 8.3l19.2 86.3l4.1 27.5l0.2 6l6.8 32.5l8.2 30.5l25.5 -4.8l4.9 -4.3l-1.1 -5.6l34.9 -6.7l29.9 -5.7l60.1 -12.2l30.7 -5.8l-5.9 -28.2l25.4 -5.3l-13.3 -69.6l-6.3 -29.3l-26 5.2l3.1 -24l0.2 -19.6l-2 -8.2l31.9 -7.8l0.1 -10.8l1.7 -237l-0.5 -62.1l-217.6 -0.5l0.5 63.2l-3.2 0l0.9 145.7l10.9 -2.3l8.9 41.9l-5.5 0.8l-3.3 3.4l-4.6 -9.1l1.1 -3l-8.3 2.6l-1.4 -1.7l7.8 10.2l-0.6 6.1l-2.7 0.5l2.6 8l-3.4 9.9l-3.6 0.2l2.9 6.5l-3.7 2.9l-6.7 -2l-4 -8.3l-4.1 -0.3l4.7 5.8l-2.6 2.8l1.2 5.1l-7.1 0z"/><path data-id="23023" d="m249.7 1202.5l1.1 0.9l3.1 4.3l3.4 10l10.2 10.3l5.7 -2.7l5.5 3.7l4.2 -3.1l2.2 -1.5l7.3 -9.4l4.3 3l-1.3 4.4l-0.6 4.1l-0.9 2.8l-5.8 10.3l-0.8 4.7l5.1 5.1l0.8 12.3l-3.9 8.9l0 3.6l4.3 0.5l1.8 5.6l-1.6 5.4l2.4 0.7l0.8 2.6l-0.6 2.9l0.7 6.4l5.2 1.2l1.1 -1.8l-1.5 -4.8l15.6 -5.4l4 -2.2l3.2 -8.5l3.1 -2.4l2 -3.5l0.6 -1.9l-0.2 -2.9l0.7 -3.1l2.2 -4.3l1.9 -0.6l1.4 -10.8l-6.4 2.2l-6 -14.5l8.7 -11.2l-3.3 -1.4l0.4 -13.4l4.7 -11.9l-11.2 -2.4l-1.9 -0.7l-14.3 -3.4l5.6 -5.5l1.9 -16.3l2 -2.8l3.9 -13.5l-1.3 -4.7l-22.1 -5l-5.6 4.9l-4.8 15.4l-26 -5.7l-4.8 24.8l-3 11.3l0.6 3.4l0.9 1.4l-4.9 4z"/><path data-id="23025" d="m128.5 630.5l11.4 53.3l-3.1 0.6l24.2 126.7l25.6 -7.1l4.5 18.8l32.5 -6.3l8.9 44l2.9 18l-10.1 1.9l5.4 31.1l23.4 -4.7l4.3 26.5l3 -0.5l0.6 4.9l0 5l-3.1 0.5l2.6 16.6l1.6 10.7l8.7 -1.3l-2.1 6.8l5.2 4.5l4 12.6l18.7 -3.6l7.4 4.7l1 9l6.2 1.4l4 -10.5l7.7 1.9l0.5 1.5l7.2 1.6l11.3 2.5l14.5 3.1l3.4 -2.1l-0.3 -6.1l3.2 -6.8l-1.8 -4.3l-10 -12.9l-1.1 -9.1l1.4 -0.8l5.7 -1.2l29.1 -5.3l3.1 0.7l-0.3 8.6l13.3 -2.8l0.6 -6l4.8 -4.7l2.2 -7.2l10.2 1.3l3.9 12l14.7 -2.5l-4.7 -29.3l1.1 -0.6l-11.9 -60.5l-6 -29.6l-34.9 6.7l1.1 5.6l-4.9 4.3l-25.5 4.8l-8.2 -30.5l-6.8 -32.5l-0.2 -6l-4.1 -27.5l-19.2 -86.3l11.7 -8.3l4.4 -9.9l-1.8 -2.3l4.6 -8.9l-4 -4.1l1.5 -3.7l4.9 1.9l-5.2 -3.7l-7.5 1.2l1.3 -9.3l-3.9 -0.1l-7.4 -4.6l-1.2 -6.1l-3.4 -1.9l2.8 -3.3l-9.8 -4.6l3.7 -2.8l7.1 0l-1.2 -5.1l2.6 -2.8l-4.7 -5.8l4.1 0.3l4 8.3l6.7 2l3.7 -2.9l-2.9 -6.5l3.6 -0.2l3.4 -9.9l-2.6 -8l2.7 -0.5l0.6 -6.1l-7.8 -10.2l1.4 1.7l8.3 -2.6l-1.1 3l4.6 9.1l3.3 -3.4l5.5 -0.8l-8.9 -41.9l-10.9 2.3l-0.9 -145.7l3.2 0l-0.5 -63.2l-73.1 0.2l-0.8 5.7l-7.2 49.4l-4.8 2.6l-1 -0.4l-2.2 0l-1.7 0.4l-1 1.5l0 2l-2.4 4.6l-2 0.7l-1.7 1l-0.5 3.3l-1.4 1.1l-1.9 2.2l-1.8 1.3l-3.1 -0.7l-2.6 0.6l-4.1 3.3l-4.5 6.6l0.1 4.2l0.6 1l-0.3 5.8l-2.1 1.6l-4.4 3.8l-3.8 6.1l-1.1 2.8l-0.4 1.7l-0.2 2.7l-0.8 3.8l-0.5 1.4l-2.8 7.6l-3.3 4.5l-1.7 1.9l0.4 2l3.1 3.8l1.1 0.9l1.8 1.1l6.3 6.7l0.2 2.5l-1 4.9l-1.9 3.8l-0.9 2.7l0.6 1.3l0 2l-3.4 -0.1l-1.5 -0.5l-2.9 1.3l-1.3 1.5l-5 10.4l0.9 1.1l3.4 0.2l1.3 -0.7l2.1 0.6l0.2 1.2l-0.3 1.7l-3.4 3.6l-5.8 7.8l3.4 6.9l2.6 0.7l1.9 0.6l-0.7 1.3l-2 2l-1.3 0.2l-1.5 1l-1.1 3.8l-1.2 2.7l1 0.7l5.6 -0.5l2.1 -0.7l1.6 0.3l2.2 0.6l3 2.6l3.1 4l0 1l-3 2.7l-2.3 2.8l-0.3 1.8l1.3 0.7l1 4l0 1.2l-1.3 4.2l-0.9 1l-5.2 5.5l-5.3 4.3l-2.7 1.1l-3 0.9l-3.1 0.6l-5.9 6l-3.3 3.6l-1.7 1.9l-2.1 3.7l-0.4 1.5l0.5 1.8l-1.4 1l-1.1 -0.5l-2.6 0.8l0.3 3.1l2.2 8.4l1.2 1.4l1.4 0.6l1.8 2.3l1.2 5.1l-1.7 2.2l-2.4 3l-7.3 4.4l-2 1l-1.9 0.1l-1.1 -0.1l-4.4 1l-6.5 5.1l-3.3 2.7l-2.1 2.4l-1.6 2l-3.8 -0.1l-2.8 -0.4z"/><g data-id="23027"><path d="m512.1 1114.6l1.9 1.5l1 1.2l2 5.8l-1.2 2.7l1.4 -0.7l4.7 -4.1l2.3 -3.3l3.1 -12.5l1.2 -1.3l2.9 -6.5l-2.2 -6.4l0.9 -4.3l1 -1.2l1.4 0l2.8 -2.2l1.8 -3.5l0.9 -3.2l-1.9 -5.8l-2.5 -1.7l-5.9 2.7l-2 4.6l-1.9 10l0 8.6l-5.7 9.7l-2.6 2.9l-2.8 4.4l-0.4 2.5z"/><path d="m396.3 1042.9l-14.7 41l23.4 5l1.8 -5.1l13.5 11.7l18.8 -19l35.6 36.9l19 -1.3l3.5 3.5l2.8 -2.7l2.9 -5.7l0.3 -6.9l2.3 -0.2l3.6 -0.4l4.9 -6.1l1.1 -3.3l1.5 -10.8l-3.1 -6.5l-1.5 -2l-2.8 -1.8l-1.4 -3.6l-1.5 -6.1l-1.8 -3.6l3.9 -0.2l6 -0.7l2.7 -0.3l3.5 -3.2l1.1 -3.2l1.4 -2.9l5 1.6l2.1 2.4l0.3 2.4l1 2.5l1.5 0.9l3.8 -4.2l1.4 -1.5l7.2 -5.9l0.7 -3.2l-2 -4.5l4.9 -4l2.2 -1.6l-0.8 -2.6l0.7 -5.2l0 -9.9l1.9 -4.9l-3 -1.7l-7.5 -12.9l-1.4 -3l7.7 -21.7l-5.1 -2.9l-0.1 -3.3l-6.7 2.7l-7.6 0.8l-28.4 6.8l-11.3 2.7l-29.7 6.8l-5.2 -29.1l-14.9 2.6l-14.7 2.5l-3.9 -12l-10.2 -1.3l-2.2 7.2l-4.8 4.7l-0.6 6l-13.3 2.8l-0.9 5.5l7.9 1.5l-4.3 8.6l16.3 2.3l-5.7 30.3l10.7 2.2l-5.7 29.7l-12 -2.3z"/></g><path data-id="23029" d="m723.8 880.5l-3.2 0.6l17 90.3l4.5 -0.9l4.4 23.1l1.1 5.6l-5.7 1l1.6 6.9l4.7 22.4l4.5 4.8l-2.2 5l6 19.8l2.3 -0.2l2.6 1.6l1.2 -0.2l0.9 -3.2l-0.7 -2.6l1 -1l1.2 -0.4l1.9 1l0.4 3.7l2.9 8.5l1.8 -5.3l1.1 -5.7l0 -2.3l1.6 -0.6l2.9 3.5l3.3 1.8l0.8 -1.6l0 -1.5l5.1 -9.5l-1.8 -2.7l3.1 -6.2l4.6 -1l2.5 3.3l3.3 0.4l-2.7 -6.7l4.1 -6.6l-1.1 -5.7l1.4 -4.1l1.9 -1.7l2 0.6l1.2 1l2.6 5.8l0.7 5.9l-0.8 3.9l2.3 0.4l2.7 -0.8l2.1 1.1l2.6 -3.3l1.1 -3.7l-0.9 -4.1l1.5 -2l2.5 -1.1l6.1 -0.1l1.8 4l1 6.5l3.4 6.7l9.6 8.4l1.8 5l9.8 -5.3l3.8 -3.8l5.4 -7.7l-2.9 -4.4l-11.4 -7.2l1.4 -2.8l-1.8 -5.9l-1.3 -1.3l9 -3.7l1.1 2.4l3.6 3.4l6.4 -0.6l0.2 -6.5l2.2 -1.8l3.2 -3.4l2.5 -2.6l2.2 -0.8l0.3 -1l4.6 -2l1.9 0.4l0.4 1.5l1.7 2.2l1.5 0.9l1.6 -2.9l0.8 -3.5l1.7 -4.6l2.7 2.4l2.2 -1.7l1.2 -2.4l-1 -7l-1.6 -3.6l-1.2 -0.9l-0.5 -1.4l-5.8 -4.1l2.1 -4l5.7 0.6l4 -2.5l2 -0.1l9.5 -2.7l2.3 0.6l-0.2 3l-1.9 1.9l-0.4 10.9l2.7 1.7l1.4 2l-0.3 4.8l-4.1 7.2l-2.8 0.3l-0.1 1l1.9 3.8l3 0.3l2.2 -0.7l7.7 -1.8l-3.3 -6.4l7 -1l2.9 -3.7l5.1 -0.7l5.7 -2.1l-0.7 -3.4l1.3 -2.4l1.2 -0.4l2.9 0.5l3.7 -2l1.5 -5.5l2.1 -3.3l2.5 -0.5l6 -7.5l1.2 -8.1l1.5 -0.5l2.2 1l2.4 -0.7l2.5 -5.5l0.3 -3.9l1.7 -0.6l2.9 2.2l4.2 -1.1l1.5 -1.1l6 -6.7l1.4 -2.6l0.8 -1l1.3 -0.7l1.9 -0.8l2.9 -0.4l2.5 -2.5l0.2 -1l-4 -0.6l-2.1 1.2l-1.8 1.4l-0.9 -3.1l-2.5 -8.2l0.9 -1.5l3.6 -2.7l-0.7 -2l-2.3 -6.7l0.3 -4.8l1.4 -2.3l-0.2 -3.2l-1.6 -1.8l-2.7 -0.3l-7.6 -7.2l-1.2 -1.9l-3.9 -14.1l-3.3 -4.9l-1.1 -2.5l-0.5 -3.7l-1.7 -3.5l-4.3 -5.3l-4.3 -4l2.9 -3.1l3.7 -1l-1 -2.3l-4.3 -12.6l-4 -6.8l-4 -5l-3 -4.9l-2.4 -1.2l-5.6 -0.4l-3.1 -1.9l-4.6 2.6l-1 0l-1.4 -1.7l-1.8 -0.9l-0.8 -2.5l-3.3 -2.4l-3.2 -2l-3 -0.3l-1.5 1.2l-1 3.7l0.5 1.2l0.1 1l-1.1 0.4l-1.6 3.1l0.2 1.5l1.1 0.6l0.5 1.9l-0.8 1l-1.8 0.6l-3.1 1.9l-2.7 2.7l-2.4 2.1l-1.4 -0.2l-1.9 -1.1l-7.3 -7.8l-1.7 -0.6l-3.4 -2l-0.2 -1l0.2 -1.4l-0.6 -4.3l-5.3 -4.7l0 -2l-0.6 -3.8l-1.4 -4.3l-0.7 -1.5l-3.3 -4.8l-1.6 -0.3l-6.6 -12.8l-0.4 -1.3l0.7 -2.7l1 -0.2l3.8 -0.8l0.2 -1.2l1.3 -1.1l1.7 -4.8l0.3 -1.9l-1 -1.5l0.7 -1.5l2.8 -2.2l1.7 -1.9l1.1 -3l0.7 -2.3l-1.4 -2l-0.2 -1.4l0.7 -1.8l1 -1l1.3 -0.1l0.7 -1.1l-2.7 -5.4l-4.4 -5.1l-2.5 -2.8l-3.1 -2.6l-1.4 -2.8l-1.7 -7l-0.1 -1.4l0.6 -1.7l-1.1 -2.5l-1.8 -1.7l-1.3 -1.7l-0.8 -2.5l-0.1 -1.1l1.1 -0.9l2.8 -0.9l2.7 -1.2l1.5 -1l0 -1.5l1.9 -1.6l3.1 1.3l4.9 1.2l1 -0.4l0.3 -1l1.7 1.4l-0.8 -3.2l-2.8 -3.1l-0.7 -3l0.1 -2.5l0.6 -1.8l1 0.2l1.8 -3.3l-0.6 -7.6l-0.4 -2.4l-1 -1.6l-4.8 -6.6l-1.4 -0.6l-5.2 0.2l-3.2 1l0.2 1.5l-0.5 1.9l-2.1 1.5l-4.6 -0.3l-4 -2.6l-2.7 -0.9l-2.5 0.3l-1.2 0.9l-5.3 -2.6l-5.5 -1.4l-6.2 -5.1l-1.9 -1.2l-1.1 0.5l1 2.4l-1.3 0.9l-5 -3.8l-2.2 -2.2l-4.2 -6.7l-1.3 -3.2l-2 -4.8l-1.1 -2l-4.2 -3.1l-1.6 -0.2l0.2 1.6l0.7 2.1l1.8 2.7l1.3 0.8l-0.4 1.7l-2.6 -0.1l-5.8 -1.6l-3.5 -3.4l-8.4 -0.1l-17 3l-6.9 -3.7l1.3 5.1l-36.5 8.8l21.8 98.9l-2.2 0.5l6.6 28.9l-27.9 5.2l7.4 37.6l6.3 41.1l4 23l-26.6 5.1z"/><path data-id="23031" d="m23 1269.2l1 13.1l0.7 12.7l0 1.1l0.1 3.3l1.5 25.7l0.1 3.6l0.6 14.7l1 0.5l1.6 2l1.1 0.5l0.5 2.4l1 1.1l-1.1 3.4l-1.6 0l-0.4 1.4l1.2 1.7l0.3 2.2l0.8 2.1l-0.7 2l0.6 1l-1.1 3.5l-1.9 2.7l-0.7 1.7l0.5 1.1l-1.6 1.7l0.8 1.2l1.2 0.3l1.1 1.1l0.2 1l-0.9 3.3l-0.6 1l-0.2 1.1l0.3 1l1 1.5l0.1 1.6l-1.8 1.1l0.1 1.8l-0.6 1.2l-1.7 1.3l-1.2 0.9l-0.9 1.7l0 3.6l0.9 1.4l0 1.5l-1.1 0.4l-0.1 1.3l0.4 1.7l0 1.4l0.4 1.1l0.6 1l1.3 2.2l0.5 1.4l-0.2 1.6l0.4 1l1.5 3.7l1.7 0.9l0.6 1.1l0.3 1l1.2 0l3.5 -0.9l1.1 0.2l0.2 1.9l1.9 2.1l1.8 1.5l1 0.1l0.1 3.3l0.4 1.1l1.3 0.4l1 1.3l-0.8 1.5l-0.8 1.1l2 2.2l2.1 1l1.6 2.3l0.2 1.4l2.5 1l2.1 1.6l0.9 1.8l0.4 1.2l1.5 -0.1l2.1 0.8l1 1l0.1 2.7l1.2 0l1.4 0.4l1.1 0.4l1.3 0.9l0.4 1l0.2 2l1 0.5l0.4 1l-0.8 2.4l-1.8 5.8l0.2 1l0.2 1.3l-1 0.7l-1 0.8l0.7 3l0.3 1.7l-1.1 1.8l-0.2 3.7l-1.1 3.6l0.2 1.2l0.7 1.6l0.2 2l0.3 1.1l1.9 2.2l2.7 1.8l3.6 3.4l2.4 1.9l1.2 1.6l2.7 0.8l1.1 1.4l1.3 2.8l1.2 0.5l2.6 0.6l1 1.3l1 0.1l3.2 -0.5l2.8 -0.1l1 1.3l0.2 3.7l7.4 -3.5l1.7 -2l2.4 -5.6l0.2 -1.6l4.1 -5.4l1 -2.6l0 -1.8l2.9 -2.3l-0.3 -6.1l3 -5.1l3.6 1.6l1.4 -1l-3.1 -5.1l3.7 -5.9l2.7 -5.9l0.2 -1.4l-2 -2.8l-1.7 -2.5l-0.7 -3.8l1.9 -6.1l4 -5.9l1.8 -8.3l2.2 -3.7l4.1 -4.6l4.6 -2.8l4 1.3l3.9 -2.1l2.3 0.6l2.4 1.4l1.3 -1l4.4 -4.4l3.4 0.6l3 -2.1l-0.5 -3.8l-1.4 -2.4l-0.8 -3.2l1.5 -2.2l3.6 -1.7l1.1 -0.1l2.6 -0.5l1.7 -3.4l-0.2 -2l3.5 -5.1l2.1 -1.6l4.4 -0.3l2.7 -2.1l1.3 -4l-7.3 0.2l-2.4 1.9l-2.3 -3l-0.8 -1l-0.7 -1.8l-0.6 -5.8l0.2 -3l1.4 -3.7l4.3 -7.3l1.9 -2.1l-8.9 -6.1l-24.6 -17.7l5.7 -8.2l2.6 -3.7l-8 -8.8l-13.5 -14.8l-7.4 8.7l-5 -2.5l-3.4 2.5l-0.6 -3.8l-4.6 -1.9l-5.8 0.8l1.2 -10.7l2 -7.4l-2.3 -10.7l-3.5 -1.6l-6.5 -4.2l-9.2 5.2l-7.9 -1l-3.4 -3.7l-0.6 -3.6l-3.4 2.6l-10.7 -1.2l-11.5 0.9l-9.3 5.6l-7.4 1.7l-7.6 -2.4z"/></svg>
