<?xml version="1.0" encoding="UTF-8"?><!DOCTYPE svg PUBLIC '-//W3C//DTD SVG 1.1//EN' 'http://www.w3.org/Graphics/SVG/1.1/DTD/svg11.dtd'><svg viewBox="0 0 1000 1532.41" xmlns="http://www.w3.org/2000/svg"><path data-zip="03901" d="m21.3 1414.9l1.6 1.8l1.1 0.1l0.1 3.3l0.5 1.1l1.3 0.5l1 1.3l-0.8 1.5l-0.9 1.1l1.7 0.7l0.2 1.4l2.2 1.1l1.4 1.7l0.5 2.1l1.5 0.2l1 0.8l0.6 1.2l1.1 0.2l1.2 1l0.4 1.1l0.4 1.2l1.6 -0.1l2.1 0.8l1 1l0 2.4l1.4 0.5l1.4 0.4l1.1 0.4l1.3 0.9l1.1 -1.1l0.8 -1.1l1.9 0.6l14.1 -12.7l-1.8 0.4l-1 1.2l-1.7 1.2l-21.2 -31l-2.2 -3.1l-16.2 15.8z"/><g data-zip="03902"><path d="m96.4 1461.9z"/><path d="m75.2 1447.7l1 0.9l0 1.6l1 1.6l1.3 0l1 0.3l-0.1 1l1 1.8l0.8 1.1l1.1 0.9l1.4 0.9l2.7 1.8l1.7 -2.2l1 -1.5l1.4 -0.1l-0.2 1l-0.4 4.1l0.9 -1l0.4 -1.2l1 -0.6l1.1 -0.4l0.4 4.8l-1.7 1.9l0.6 1.1l1.9 -1.7l1.5 -0.5l0.4 -1.6l-0.2 -1.1l-0.1 -1l1.4 0.4l1.7 1.1l1.3 0.5l0.6 1.2l1.6 -1.6l0.5 -1.1l0.7 -1.1l0.3 -1.4l-0.4 -1.3l0.3 -1.6l2.8 -3l0.2 -1.4l-1.4 -2.5l-2.5 -1.5l-2 -1.1l-12.7 -7.8l-13 10.6z"/></g><path data-zip="03903" d="m43.2 1475.4l0.2 1.2l0.7 1.7l0.2 2l0.3 1.1l2 2.2l2.8 1.9l3.6 3.5l1 0.8l1.5 1.2l1.2 1.7l2.7 0.8l0.7 -1.9l-0.9 -1l-1.6 -1.1l1.6 -0.9l2.4 -5l6.2 -8.7l-2.9 -2l-3.1 -12.8l0.5 -1.5l-8.4 3l-5.2 2l-2.4 0.3l-1.2 0.5l0.3 1.7l-1.1 1.8l-0.2 3.8l-1.2 3.7z"/><path data-zip="03904" d="m58.2 1488.7l1.1 1.9l0.9 1l-0.7 1.9l1.2 1.4l1.3 2.9l3.9 1.2l1 1.2l4.4 -0.3l0.4 -2.9l0 -1l0 -1.4l-0.7 -2.1l-1.2 -1.2l1 0.2l1 0.1l1 -0.4l1.3 -0.3l0.5 -1.6l1.4 -1l2 0.6l1.7 -1.4l1.3 -2.4l-3.5 -3.5l-1.7 -1.4l-1.6 -1.1l-6 -4.1l-6.2 8.7l-2.7 4.7z"/><g data-zip="03905"><path d="m98.7 1531.9z"/><path d="m97.6 1531l1.9 -0.1l-1.9 -1.11022e-16z"/><path d="m96.3 1529.4l1.3 0.4l0.6 -1.2l-0.5 -1l-1.2 -0.1l0.2 1z"/><path d="m70.6 1491.3l-1 -0.2l1.2 1.2l0.7 2.1l0 1.4l0 1l-0.4 2.9l3.4 -0.2l0.7 5.2l4.3 -1.9l1.1 -0.9l1 -0.1l1.3 -0.7l0.5 -1.2l1.1 -0.4l0.3 -1.6l0.1 -1.1l1.3 -0.8l-0.2 -1.5l1.1 -0.9l0.2 -1.6l-1.7 -1l0.1 -1l-1.2 -1.2l-0.8 -1l-0.1 -1.2l-2.2 -1.8l-1.1 2l-1.8 1.5l-1.6 -0.1l-2.1 0.9l-0.3 1.3l-1.7 0.9l-1 0.4l-1 -0.1z"/></g><path data-zip="03906" d="m37.5 1399.1l2.2 3.1l21.2 31l1 -0.6l1.7 -1.8l1.1 -1.1l9.4 -6.9l-0.5 -1.6l-0.5 -1.1l-2.7 -8.2l-2.5 -8.3l-1 -1.9l-0.6 -2l0 -1.5l-1.2 -1.4l-0.7 -1.2l2.2 0.6l0.1 -2.3l-0.6 -1l-0.6 -1.1l-1.4 0.9l-1.8 0.1l-1 -0.5l-0.3 -1l-6.9 -7.1l-5.4 5.1l-8 7.7l-2.7 2.2z"/><path data-zip="03909" d="m62.6 1458.6l-0.5 1.5l3.1 12.8l2.9 2l6 4.1l1.6 1.1l1.7 1.4l3.9 3.1l2.2 1.8l0.1 1.2l0.8 1l1.2 1.2l-0.1 1l1.8 0.6l1.7 -1.6l1.3 -2l1 -1.4l0.2 -1l0.8 -1l0.1 -1.6l0 -1.5l-1.6 0.1l-1 0.4l0.4 -1.3l-1.3 -1l1.4 0.1l1.3 -0.8l1.2 0.2l1.9 0.3l0.4 -1.2l-1.1 -0.4l0.2 -1.4l0.6 -1.6l0 -2.6l0.4 -1.5l1 -0.5l1.9 -1.6l1.9 0.7l1.3 0.7l1.5 -0.1l-0.4 -1.6l-1.8 -1.6l-1.4 0.4l1.1 -3.3l-1 -0.3l0.1 -1.3l-1.6 -1.2l-2 -0.9l0.1 1l-0.2 1l0 1.7l-1.5 0.5l-1 1l-1.5 -0.4l1.7 -1.9l-0.4 -4.8l-1.1 0.4l-1 0.6l-0.4 1.2l-0.9 1l0.4 -4.1l0.2 -1l-1.4 0.1l-1 1.5l-1.2 1.4l-2.7 -1.1l-1 -0.3l-1.2 -1.3l-1.6 -0.6l-0.8 -1.9l-0.4 -1.4l-2 -0.4l-0.6 -1.3l-0.4 -1.9l-1 -0.9l-12.4 10.6z"/><g data-zip="03910"><path d="m101.3 1468.1z"/><path d="m99.4 1466.5z"/><path d="m99 1462.8l1.3 0.5l1.11022e-16 -1.7l-1.2 1.2z"/><path d="m98.7 1467.5z"/><path d="m98.5 1463.3l0.2 -1.1l-0.2 1z"/><path d="m98.3 1464.5z"/><path d="m98.2 1466l0.7 1z"/><path d="m96.1 1467.4z"/><path d="m94.8 1471.7l0.2 1.9l1 -3.2l-0.6 1.2z"/><path d="m93.5 1466.8l-0.7 1l1.2 0.9l1.9 0.3l-0.2 -1.1l-1.3 -1.3l-1 0.1z"/></g><path data-zip="03911" d="m89.1 1479.1l1.2 1.3l-0.5 1.1l1.1 -0.2l1.6 -0.1l0.3 -1.1l1.7 -0.3l0.6 -1.7l0 -1.2l-0.9 -1.7l-0.3 1.8l0.8 1.5l-1.4 0.3l-1.3 0.1l-1.6 -0.4l-1.1 0.1z"/><path data-zip="04005" d="m93 1333.7l11.1 17.1l4.2 6.3l1 0.7l7.1 4.6l3.4 2.2l2.4 1.5l4.5 2.9l21.6 13.8l1.4 5.55112e-17l1.5 -0.7l0.4 1l0.7 1.1l0.1 1l-1.4 1l-0.2 1.2l-0.4 1.3l-0.7 1.1l0.2 1.6l2.6 -2l0.2 -1.4l0.9 -1.1l1.2 -0.7l0 -1l-1.6 -0.5l0.9 -1.5l1.5 -0.6l0.1 -2.4l1.5 -2.2l2.1 -1.7l3 -1l1.4 0.7l1.2 -1.1l0.3 -1.1l1.1 0.1l-0.5 -1.7l1.3 -1.2l0.5 -1.1l-2.5 0.4l-1 -0.1l-4 -0.1l-1.4 1.9l-1 0l-1.2 -1l-1.3 -2.1l-2.1 -0.3l-1.1 -0.3l-0.9 -1l-0.9 -2.1l-1.1 -0.6l-1.2 -0.1l-0.6 -1.6l-1.5 -0.2l-1 -1.1l-1.3 -0.3l-1.1 0l-0.5 -1.4l-0.7 -1l-1.7 -0.7l-1.4 -0.2l-0.5 -1.7l-2.6 -0.3l-1.5 -0.2l-1.6 -1.2l-2 1.2l-1.5 0l-3 0.2l-1.2 -0.5l-1.2 -2.1l-1.2 -0.8l-0.6 -1.8l-1.5 -1.4l-0.9 -1.6l-0.3 -1l0.8 -1.3l1.7 -2.8l1.1 -0.9l0.5 -1.4l-1.8 -0.3l-1.2 -1.9l-1.2 -1.3l-1.4 0.5l-1.5 1.1l-1.8 -0.1l0.7 -1.9l0.3 -1.1l-1.3 -1.2l-0.6 -1.9l-1.5 -0.8l-0.7 -1.2l0.3 -1.2l0.9 -1.7l-0.6 -1.3l-1.2 -0.4l-2 -0.9l-1 -0.3l-1.3 -1l-1.1 0l-0.6 1.5l-1.7 1.4l-0.3 1l-1.9 2.3l-0.8 1.4l-0.5 1.1l-1.7 2.1l-1.3 0.1l-1.1 -0.4l-1.1 -1z"/><g data-zip="04006"><path d="m163.1 1374.3l0.9 1.3l0.9 -1.4l-1.7 0.1z"/><path d="m161.2 1373.9z"/></g><path data-zip="04008" d="m267.1 1176.3l-2.5 11.9l6 1.4l0 1.4l5.4 5.6l0.4 -1.8l0.9 -1.6l0.7 -1.1l-0.2 -1.1l1.4 0.1l1.5 1.1l1.3 1.4l3.4 -1.8l2.9 -1.7l1.7 -1l1.7 -3.5l1 -1.4l0.2 -1.1l-0.1 -1.2l-0.4 -1.3l0.9 -1.8l1 -1.5l0.3 -1l0.3 -1.2l1.3 -1.1l2.7 -1.6l1.1 -1.1l0.6 -1.7l0 -1l0.8 -2.8l-0.1 -2.8l0.6 -1.2l0.1 -1.5l-0.8 -1.7l0.7 -1.9l-0.3 -1.4l-1 -0.8l-1.8 0.6l-0.4 2.3l-25.8 -5.3l-0.6 2.7l-0.6 1.1l-1.9 2.4l-0.6 1.6l1.9 0.4l-1.5 6.8l0.8 1.9l0.1 1.7l0.7 2.3l-0.2 1l0.2 2l0.8 1.9l0.7 2.4l-2.2 -0.7l-0.7 -1.4l-0.9 -1.2l-1.4 -1z"/><path data-zip="04009" d="m35.2 1157.8l1.3 1l0.1 1.9l0.2 1l0.5 1.1l0.1 1.8l2.5 3.8l13.7 3.3l-0.1 1.2l0.1 1.5l0.2 1.2l2.1 -0.6l16.6 23.5l3.3 4.8l3.1 -2.2l6.1 -4.4l-5.1 -7.8l9.3 -6.2l3.5 -1.7l-0.7 -1.4l-1.5 -0.7l0 -1.4l-0.1 -1.3l-0.5 -2.1l-0.6 -1l-1.2 -2.5l-1 -1.1l-0.9 -1l-1.2 -0.2l-0.6 -1.1l-0.9 -1.3l-1.1 -1.3l0.4 -1.3l0.2 -1l-0.8 -3.5l-1.4 0.1l1.1 -0.3l-0.2 -1.4l-0.1 -1.2l-0.6 -2.3l0 -1.9l0.2 -1l0 -1.5l-0.3 -1.3l-1.2 -0.6l-3.3 -4.2l1.4 -0.9l-0.7 -1.7l-0.3 -1.2l-0.5 -1.7l-8.7 5.9l-21.4 15.4l-9.1 -6.2l0.2 1.1l0 1.3l-1.3 0.6l-0.4 1.5z"/><path data-zip="04011" d="m227.5 1212.4l9.7 12.7l1.7 2.7l-0.9 1.4l2 1.1l-0.7 1.2l3.9 2.9l3.1 -0.7l1.2 -0.8l1 -1.3l1.6 -0.9l1.5 0.2l0.2 1.2l-1.4 2.3l-0.5 1.3l-1.8 1.3l-1 1.4l-0.3 1.1l-3.7 3.5l-1 2.2l2.4 -1l0.8 -1.2l1.6 -1.3l0.5 -1.2l2.2 -1.2l1 -2.4l1.4 -0.8l1.1 0l1.7 -0.2l2 -0.1l1.7 -1.2l0.5 -1.3l1.1 -0.4l0.7 -1.1l1 1.1l0.1 1.4l0.3 1.2l1.5 -0.3l0.6 1.4l-1 2.2l0.7 1.1l1 -0.8l1.2 0.7l0.8 -2.5l1 -1.3l0.2 -1.1l0.9 -1.5l1.4 0l1.3 -0.3l2.5 -2.5l0.7 -4.2l0.9 -2.2l1.3 -1l0.9 -1.9l0.8 -1.9l1 -2.1l1.1 -1.9l0.8 -2.4l0.7 -4.7l0.5 -1.1l0.3 -1.1l0.6 -2.4l-4.3 -3l-1.4 2.3l-1.4 0.8l-1.2 2.3l-1.1 1.2l-1.2 0.9l-0.7 1.5l-2.1 1.8l-1 0.4l-1.5 0.2l-1.5 2.1l-1 0.7l-2 -1.1l-1 -0.9l-2.2 -1.6l-1.3 -0.4l-1.7 1.2l-1.9 0.8l-1 1l-1.4 -1.3l-0.8 -1.7l-1.2 -1.9l-1.6 -1.2l-1.1 -0.2l-0.9 -1.7l-0.6 -1.1l-1.2 -0.8l-1.5 -0.4l-0.6 -1.4l-0.5 -1l-0.3 -1.4l-0.7 -2.4l-1 -1.9l-0.3 -1.8l-11.9 16.1l-1.3 1.9z"/><path data-zip="04015" d="m107.3 1211.3l-0.7 1.6l0.3 1.2l0.6 1.6l1.2 0.3l1 0.7l1.7 0.3l-0.2 -1.6l1 -2.77556e-17l0.4 -1.2l1 0.7l1.5 -1.7l-1.2 0.1l1.1 -1.2l-0.3 -1.2l0.7 -1l0.1 1.1l-0.1 1.9l0.5 1.1l1.3 0.7l0.1 1.3l1.5 0.1l1.3 0.5l1.1 0.9l1.1 -1l1 -1l-2.1 -0.8l-0.1 -1l1 0.6l1 -0.7l0.1 1.8l0.6 -1.2l-0.2 -1.4l0.8 -2.1l1.1 -2.7l1.4 -2.6l4.6 -7.3l-1.6 -1.2l2.3 -2.6l0.3 -1.3l1.4 -2.7l1 -1.2l1.9 -1.6l1 -2.1l-0.8 -1.7l1.1 -1.5l-7.7 -5.8l-0.4 -1l0.3 -1l-5.5 -3.6l-0.7 1l-9.5 11.7l-1.2 1.7l-4.3 0.4l-1.4 0.4l0.6 1.1l-0.3 1l0.7 1.6l-1.3 0.7l0.4 1.1l1.1 0l0.8 1.3l-0.2 1.2l-1 0.2l0 1.4l0.2 1.2l-0.2 1.4l0.5 1.5l0.6 1l0.9 1l-0.6 1.3l0.6 1.1l0.4 1.2l-1.1 0.5l-1.2 0.3l-0.2 1.1l-1.1 0l-0.4 1.2l0.5 1.5l-0.7 1.1z"/><g data-zip="04019"><path d="m223.7 1296.1l1.3 1.1l1.9 -3.1l0.1 -1.1l-1.3 -0.8l-2 4z"/><path d="m219.5 1292.4l0 1l3.4 -3.9l1.2 -0.3l1.5 1.2l1.5 -2.8l-1.1 0.6l-1.3 -1l1.2 -2.9l-2 1.1l-0.7 1.7l-3.1 4l-0.5 1z"/></g><path data-zip="04021" d="m168.7 1246.9l-3.1 4.3l17.8 12.3l11.2 7.7l1.6 -2.2l2.3 -4.8l0.6 -1.1l1.4 -3l-1.6 -2.2l-1.8 1.6l1.2 -2.4l-2.5 -3.1l-1.9 1.5l-1.2 -1.5l1.2 -1.1l-1.2 -1.6l-1 0.8l-0.1 1.2l-1.2 -0.8l0.1 -1.4l-0.9 -1.1l-1.3 1l-1.7 -1.1l0.7 -1.1l-1.5 -1l0.7 -1l-3.5 -2.3l-1.2 -2.4l0.8 -1l-1.8 0.9l-1 0.1l-1.2 -0.8l-0.7 -1l1.1 -1.1l-1.7 -1.4l-1.4 -1.1l-6.9 9.9z"/><g data-zip="04032"><path d="m230.4 1258.8l-0.1 1.8l1.2 -1.3l1.5 -1.3l-2.1 0z"/><path d="m229.2 1254.8l1.2 0.4l1.7 -1.3l0 -1.6l-1.1 0.4l-1.9 2.2z"/><path d="m207.8 1237.9l-1.4 1.9l4.7 6.1l0 1.6l0.3 1.1l-0.1 1.5l-0.7 2.2l0.4 1.2l1 1.1l1 0l2.3 1l1.1 0.1l1.9 -0.9l1.6 0l1.2 -1.5l0.5 -1l0.8 -1.2l2 -0.7l1.2 -2l3.3 -1.6l-0.1 -1.3l0.4 -1.1l1.2 -0.4l-0.2 1.1l2.8 -0.9l-0.4 2.6l-0.3 2l-0.7 1.8l3.2 -2.9l0.9 -2l-1.1 -0.2l1.2 -2.2l1.3 -0.8l0.8 1.2l1.1 -0.8l-0.8 -1.3l1.1 -1.3l1.9 -3.7l2.3 -2.1l-3.9 -2.9l0.7 -1.2l-2 -1.1l0.9 -1.4l-2.1 -2l-9.8 -12.8l1.8 -2.5l-2.8 -1.9l-5.8 8.6l-3.9 4.2l-2.5 4.8l-2.6 4.5l-1.3 2.1l-1.4 2.3l-1.2 2.4z"/></g><path data-zip="04037" d="m0 1093l0.1 3.4l0 4.6l1.8 52.3l0.7 17.9l0.9 27.8l18.7 -6.7l6.9 -9.4l-1.1 -0.9l2.5 -3.4l1.1 0.8l8 -11l-2.6 -3.5l-0.2 -1.6l-0.3 -1.6l-0.2 -1l-0.1 -1.9l-1 -0.4l0.2 -1.2l0.4 -1.5l1.1 -0.1l0.2 -1.8l-0.2 -1.1l-7 -4.8l-14.4 -9.8l2 -6.6l-0.1 -1.7l0 -1.4l-0.7 -1.9l-0.9 -4.8l-1 -0.6l-3 -4.8l-1.1 -3.5l-1.6 -1.1l3.7 -2.2l-4.6 -12.7l-1.5 -7.4l-5.9 1.7l-0.5 1l-0.4 1.3z"/><path data-zip="04038" d="m114 1283.3l1.4 1.5l1.6 1.6l2 2.2l0.9 1.1l16.1 17.7l-2.6 3.8l1.4 0.9l1.8 1.4l5 3.5l1.9 -2.2l7.9 -10.9l0.7 -1l1.5 -6.3l0.4 -1l0.5 -2.3l1.1 -4.6l-1.1 -0.5l-1.2 -0.3l-1.6 -0.9l-0.8 -1.2l-1.3 0.1l-5.55112e-17 -1.4l-0.6 -1.2l-1.6 -1.4l-0.4 -1.1l-1.3 -1.9l-1.2 -2.5l-0.9 -1.4l-1.2 -1.3l-1.2 0.7l-0.6 -2.1l0.3 -1l-1.4 -0.1l-1 -1.4l0.3 -2.1l-0.5 -1.3l0.4 -1.3l0.9 -1.9l-0.8 -1.2l-1.3 -0.7l-0.7 -1.7l0 -1.3l0.3 -1.9l0.9 -1.2l0.6 -1.6l-0.7 -1l-0.2 -2l0.6 -2.2l-6.7 9.3l-1.1 0.4l-4.6 8l-5 7.2l-1.4 1.9l-5.5 7.9z"/><path data-zip="04039" d="m147.7 1231.6l-3.5 -2.2l3.8 2.7l20.6 14.7l6.9 -9.9l10.6 -15.2l-29.9 -21.1l-9.1 12.9l0.3 1.4l0.5 1l0.7 1l0.5 1.2l1 -0.1l0 1.1l0 1.4l-0.3 1.1l0.3 1.3l-0.8 2.6l-0.7 1.3l-1.1 0.6l0.9 1.4l-0.6 1.4l-0.3 1.3z"/><path data-zip="04043" d="m83.6 1392.7l2.4 1.4l0.9 1.6l1.2 -0.4l3.1 -1.3l1 0.1l1.3 -0.1l1 0.3l1.1 0.2l1.4 0.3l1.2 -0.4l1.2 0.2l1.3 0.6l1.9 0.1l1.2 0.6l1.2 1.1l1.4 1l0.7 1.1l1.6 1.2l1.2 1.6l1 0.5l1.5 2l1.1 1.2l0.2 1.2l1.2 1.3l-0.6 1l0.8 1.8l-0.1 -1.2l1 1.2l1 0.3l4.3 -2.5l1.1 0.4l2.9 1l0.4 -1l1.1 -0.3l1.2 -0.5l1.1 0.4l0.4 -1l1.9 0.1l0.3 -1.6l0.2 -1l-0.8 -1.4l-0.6 -1.4l-0.1 -1.6l0.2 -1l-1.2 -1l-1.4 -0.3l-1 0.6l-2.5 -1.5l-0.6 -1.2l-1 -0.5l-1.2 -0.1l0 -1.1l-1.5 -1.7l-0.7 -1.3l0.4 -1.8l-0.4 -1l-1.1 -0.8l-1.3 -1.2l-0.2 -1.5l0.1 -1.4l-1.1 -1.3l-1.1 -0.8l0.4 -1.1l-0.1 -1.1l-1.4 -0.3l-1 -0.4l-0.8 -1.2l0.3 -1l-0.4 -1.4l-0.4 -1.3l-1.1 -0.9l-1.1 -0.2l-1.6 0.5l-1.2 -0.1l-1.1 -1.4l-1.1 -0.1l-1.1 -1.3l-1.3 0l-1.4 -0.6l-1 0.2l-1.7 -0.4l-1.7 -1.3l-0.4 1.3l1.3 1l1.5 0.9l-7.7 11.1l-6.8 9.9z"/><path data-zip="04046" d="m99 1370.3l1 -0.2l1.4 0.9l1.3 -0.3l0.3 1.4l1.5 -0.2l1.1 0.8l0.8 1.3l1.8 -0.8l2 -0.1l0.8 1.1l-2.77556e-17 1.2l0 1.2l1.1 0.6l-0.5 1.2l1.4 0.8l1.3 0.8l0.9 1.2l-0.1 1.4l1.2 0.8l-0.2 1.2l0.4 1.5l0.6 1.6l1.7 1l0 1l1 1.4l-0.5 1.3l1.2 1.5l0.8 1.2l1.2 0.9l1 0.5l0.6 1.2l1.9 0.8l1.6 0.1l1.4 0.3l1.1 0.8l-0.1 1.2l0.1 1.6l0.6 1.4l0.7 1l-0.1 1.4l-0.2 1.6l0.7 1.1l1.5 0.9l1.8 -0.4l0.4 -1.4l1.6 -0.4l0.3 -1.4l1.1 -1l1.3 -0.3l2.9 0l1.1 -1l1.9 -1.1l-0.5 -3.9l-1.5 -2.4l-0.2 -2.3l1 -3.1l1.2 -0.7l1.5 -0.1l1 -1l1.2 -0.1l1.1 -2l0.2 -1.2l1.4 -1l-0.1 -1l-0.7 -1.1l-1.9 -0.3l-1 0.3l-21.4 -13.7l-5.1 -3.3l-2.4 -1.5l-3.4 -2.2l-7.1 -4.6l-1 -0.7l-9.3 13.2z"/><path data-zip="04048" d="m41.9 1284.7l0.3 11.5l0 1.4l-0.1 5.8l0 1l0.8 1l1 0.6l1.3 0.9l2 0.2l1.6 0.3l1.4 0.5l1.1 0.7l1.2 0.1l0.5 -1.2l0.6 -1.1l-0.1 -1.2l-0.6 -1.4l1.1 -0.4l1.2 -0.2l0.5 -1l2 0.4l2.1 1.2l1.2 -0.1l1.5 1.5l1 0.8l1.1 0.2l0.9 1.4l0 -1l1 -0.2l0.6 -1l1.2 0.1l-0.4 -1.7l-0.8 -1.2l-1.3 -0.3l-1.2 -0.9l-0.2 -1.4l1 -1.5l1.2 -0.3l1.7 1.2l1.4 0.4l1.8 -0.4l-2.1 -3.6l1 -0.1l2.3 2.3l2.5 -0.4l2.1 -1.1l0.1 -1.5l-0.2 -1l-0.6 -1l-1.3 0.6l-1.5 -0.5l-1.1 -0.8l-1.6 -0.6l-1.1 -0.4l-3 0.5l-1.5 -2.6l-0.8 -5.3l-1.9 0.3l-1.1 -1l-0.5 -1l-0.5 -3.1l1.2 -0.2l1.7 -0.7l-1.2 -8l-5.2 2l-1.3 3.4l-14.3 9z"/><g data-zip="04050"><path d="m210.1 1284.2l1.1 0.1l1.4 0.7l0.4 -1.4l-1.3 -0.8l-1.4 0.8z"/><path d="m205.9 1293.3l0.1 1.2l1.1 0.5l-0.3 1.1l1.7 -1.1l2.2 -0.8l0.2 -1.8l2.1 -1.4l1.3 -1.9l0.3 -1.2l1.4 -1.1l-1 -1.2l-2.1 1.4l-2.6 2.4l-1.7 0.8l-1.8 1.7l-0.5 1.3z"/><path d="m201.5 1291l1 1.7l1.1 -2.2l0.1 -1.1l-2.2 1.5z"/></g><path data-zip="04055" d="m78.8 1201l0.7 1.4l1.1 0.6l1.3 1.5l1 0.3l0.7 1l-0.2 1.3l3.2 5l4.6 -3.3l3.7 5.5l2.7 -1.6l2.5 2.2l1.5 -0.7l1.4 0.4l1.2 0.6l1.4 0.5l1.1 -1.2l0.5 -1.2l-0.1 -2l0.5 -1l-0.3 -1.4l-0.5 -1l1.6 -0.7l-0.3 -1l1 0.4l1.1 -1.3l1 -0.4l-1.1 -0.2l-0.1 -1.3l0.4 -1l-0.8 -1.7l-0.6 -1l-0.5 -1.5l-0.1 -1.6l0.1 -1l0 -1.4l1 -0.2l0.2 -1.2l-0.8 -1.3l-1.1 0l-0.4 -1.1l1.3 -0.7l-0.3 -1.1l0.2 -1l-0.9 -1.6l1.4 -0.4l4.3 -0.4l1.2 -1.7l-2.6 -4l-2.3 -2.6l-2.1 3l-1.6 -0.2l-1 -0.6l0.3 -1.2l-1.7 -1.1l-0.7 -1.6l-1.2 -0.6l-7.1 4.9l-2.2 1.7l-3.5 1.7l-9.3 6.2l5.1 7.8l-6.1 4.4z"/><path data-zip="04057" d="m75.9 1149.8l0.3 1l0.2 -1.3z"/><path data-zip="04061" d="m48.7 1307.5l0.1 4.9l0.8 4.3l1.1 0l0.1 -1.4l1 -1.9l1.3 -0.3l0.5 1.6l0.6 1.3l3.2 3l2 1.4l1.2 1.7l2.6 -0.4l1 0.3l1.4 0.8l2.4 0.3l1.9 0.4l2 -1.7l0.1 -1.4l1.4 -0.6l1.2 -0.1l0.5 -1.9l-1.7 -0.6l-1.2 1.5l-0.8 -1.5l-1.3 -1l0.3 -1.9l0.3 -1.3l1.6 1l1 1.3l1.5 0.2l-1 0.4l1.1 0.6l1.3 0.4l1.2 0.2l0.6 1l-0.7 -1.7l-1 0.1l-1.6 -0.4l0.5 -1.7l-1.1 -0.4l4.3 -3.7l0.2 -1l-0.1 -1l1.1 0.1l1.1 -0.5l0.9 -1.2l-1.4 -4.3l-2.2 -6.3l-1 0.4l-0.9 1l-2.8 1.6l-1 -0.1l-1 0.1l-1.8 0.4l-1.4 -0.4l-1.2 -0.6l-1 -0.7l-1.7 1.9l0.2 1.4l1.2 0.9l1.3 0.3l0.8 1.2l-0.2 1l-1.2 1.6l-1 0.2l0 1l-0.9 -1.4l-1.1 -0.2l-1 -0.5l-0.8 -1.5l-1.5 0.1l-1.9 -0.9l-1.9 -1l-1.2 1l-1.2 0.2l-1.1 0.4l0.6 1.4l0.1 1.2l-0.6 1.1l-0.5 1.2l-1.2 -0.1l-1.1 -0.7l-1.4 -0.5z"/><path data-zip="04062" d="m132.5 1234l0.9 1.6l0.3 2.2l1.9 3.5l-0.6 1.4l1.6 0.6l1 -0.3l1.2 1.1l-0.5 2.6l0.1 1.3l-0.5 2.3l0.1 2.6l0.7 1l-0.2 1l-0.5 1l-1.1 2.7l0 1.3l0.7 1.7l1.2 0.4l0.5 1.2l-0.2 1.3l-0.5 1.4l0.3 1.7l-0.4 1.8l0.5 1.6l2 0.6l-0.3 1l0.3 1.4l1.5 -5.55112e-17l1.2 1.3l0 1l1.2 2l1.6 2.2l0.7 1.2l1.6 1.1l0.3 1.3l0.6 1.3l1.3 0.7l0.8 1.2l1.6 0.9l1.2 0.3l1.1 0.5l0.4 -1.7l2.6 -11.5l0.6 -2.8l0.6 -3l1.5 1l-0.1 -1.4l-0.5 -1.7l1.1 -6.6l0.4 -1.8l0.3 -1.4l1.7 -7.6l1.6 1.1l3.1 -4.3l-20.5 -14.6l-3.9 -2.8l-1.3 -0.9l1.1 -2.1l-4.5 -1.5l-2.9 -0.8l-1.7 2.2l-0.6 1.2l-1 0.8l0.3 1.4l-0.6 3l-0.5 1.2z"/><path data-zip="04063" d="m146.6 1354.9l1.3 1.3l1 0.3l1.2 -0.1l1.1 0.5l1 0.2l1.5 -0.2l0.5 -1.5l-0.4 -1.2l-1.4 0.1l-1.6 -0.4l-1.2 0.3l-3.5 0.6z"/><path data-zip="04064" d="m143.9 1349.8l1.6 -0.2l0.3 1.2l0.1 1.5l0.6 1.6l3.5 0.3l1.4 0.3l1.8 -1l0.4 1.4l1 -0.4l0.8 -1.2l1.6 -2.6l2.8 -4.8l1.8 -2l-8.9 -6.3l-2.9 4.2l-5.8 8.1z"/><path data-zip="04072" d="m113.7 1338.8l1.8 0.1l1 -0.6l1.6 -1.1l1.5 1.4l0.9 1.7l1.2 0.1l0.4 1.8l-1.1 0.9l-1.1 2.3l-1.2 1.3l0.1 1.5l0.4 1l1.3 1.2l1.3 2.6l1.2 0.8l1.2 2.1l1.2 0.5l3 -0.2l1.5 0l1.4 -1.1l1.3 0.6l2.4 0.7l1.8 -0.4l0.4 1.5l1.6 1.1l2.4 0.7l0.7 1l0 1l1.6 0.4l1.3 0.3l1 1.1l1.5 0.2l0.6 1.6l1.2 0.1l1.1 0.6l0.9 2.1l0.9 1l1.1 0.3l2.1 0.3l-0.6 -1l-0.7 -1.8l-0.5 -4.9l-0.1 -1l0.2 -2.8l-1.4 -0.2l-1 -0.2l-1.1 -0.5l-1 -0.3l-1.2 0.1l-1.3 -1.3l-0.2 -1.9l-0.3 -1.5l0.4 -1.9l-1.6 0l4.4 -7.1l3.4 -4.9l-15.6 -10.9l-9.5 -7.1l-1.8 2.6l-11.8 16.7z"/><path data-zip="04073" d="m42.9 1377.5l-3.1 2.9l8.4 8.8l5.4 -5.1l6.9 7.1l0.3 1l1 0.5l1.8 -0.1l1 -0.5l1 0.7l0.6 1l-0.1 2.3l-2.2 -0.6l0.4 1.3l1.2 0.6l0.5 1.9l-0.2 1.6l1.1 2.3l3 8.6l13.3 -19.1l6.8 -9.9l-1.5 0.2l-1.7 0.9l-1.1 -0.6l-1.6 -1.4l-1.7 -0.4l-2.1 -1.2l-1 -1l-1.5 -1.2l-1.2 -0.3l-0.9 -1.1l-1.1 -2l-1.3 -1l0.1 -1.1l-1.1 -0.1l-1.3 1.3l-1.3 0.5l-1 0.9l-1.2 -1l-0.7 -1l-0.3 -1.5l-0.7 -1l-1.3 -0.8l-1.6 -0.2l-1.1 -0.1l-1 -1.9l-0.9 -1l-0.7 -1l-1.1 -0.8l-0.3 1.2l-1.3 3.6l-0.5 1l0.3 1.6l-1.3 -0.1l-1.3 -0.5l-0.2 1l-0.9 1.8l-0.5 1l-3.7 -1.3l-1.1 -1.5l-4.4 -1.5l-1.2 1.7l-0.7 1.9l1.4 2.9z"/><path data-zip="04074" d="m131.7 1313.3l-4.2 6.2l9.9 6.5l15.2 11.5l8 5.5l1 0.7l2.8 -1.7l3.2 -0.1l1.7 0.6l0.9 1.4l-1.3 1.9l2.5 0.8l1.4 -0.7l-1.7 -2.1l0.8 -1.4l0.8 -1.6l2.1 -2.1l3.3 -2.1l2.1 -1.3l1.1 -0.7l0 -1l-0.4 -1.1l0.8 -2.1l1.6 -0.9l1 -0.8l1.2 -1.4l-1 -1l-1 -0.4l-1.1 -1l-1.3 0.4l-0.4 -1.2l-1.9 -1.3l-3.3 -2.3l-12.7 -8.8l-6 -4.1l-1.7 -1.3l-3.1 -2.9l-1.2 0.6l-7.9 10.9l-1.9 2.2l-5 -3.5l-1.8 -1.4l-1.4 -0.9l-1.6 2.1z"/><path data-zip="04083" d="m36.1 1365.9l-2.3 0.4l3.8 4.3l3 4.5l1.3 -1.6l1.5 -2.6l4.4 1.5l1.1 1.5l3.7 1.3l0.5 -1l0.9 -1.8l0.2 -1l1.3 0.5l1.3 0.1l-0.3 -1.6l-0.4 -1.5l2.7 -2.2l-0.2 -1.4l-1.3 -1.6l0.7 -1l-1.4 -1.2l1.3 -1.7l-2.1 -1.3l-12 1.6l0.6 4.3l-8.4 1.4z"/><path data-zip="04084" d="m86.1 1284.1l0.2 1.2l-0.1 1.1l0.5 1l1.3 0.7l1.3 -0.5l1 -0.7l1 0.1l1.2 -0.4l1.4 -0.1l1 0.8l1.6 0.9l1.1 1.5l0.2 1.6l-0.1 1l1.6 -0.2l2.5 -3.2l4.4 3.4l6.8 -9.7l6.3 -7l0.7 -1.2l5.7 -7.9l5.2 -7.7l-0.1 -1.1l7.3 -9.6l0.1 -1.1l0.3 -2.1l-0.4 -1l-1.2 -0.2l-2.2 -0.4l0.6 -1.5l-1.4 -3.6l-1.6 0.7l-1.9 -0.7l-0.7 1.2l-0.6 1.5l-1.1 3.2l-0.3 1.3l0.1 2.2l-0.3 2.5l0 1.5l-0.6 1l-0.5 1.3l-1 0.5l-0.8 1.6l0.1 1l-0.5 1.1l-1.1 1l0.7 1.6l0.5 1.4l-1.1 1.3l-1.7 1.1l-0.3 1.1l-1.5 0.3l-1.2 -0.6l-1.1 -0.7l0.1 -1.8l-0.8 -3l1.5 0.1l0 -1.7l-1.7 -1.4l-2 0.6l-0.1 -1.4l-1.2 -0.9l0.1 -1.3l0.5 -1.1l-0.6 -2l1 -0.8l-1.7 -0.2l-0.6 -1.5l-1.3 -1.1l0 -1.3l-1 -0.4l-2.9 0.4l-2.7 -0.5l-1.1 -0.9l-1.4 -0.9l-1.1 0.2l-0.1 -1.2l-1.5 0l-1 -1.3l-1.6 -1l-2.5 2.1l-2.6 3.7l0.2 1.4l1.2 1.4l0 2.5l-1 -0.4l-1.5 1.2l-0.6 1.4l-1.7 1.3l-0.7 1.3l15.9 -2.1l2.7 0.4l-1.4 0.5l-0.3 1l-0.9 1.4l-0.2 1.4l-0.7 1.3l0 1.5l-0.1 1.9l-0.1 1.8l0.1 1.6l-0.6 1.6l0.7 1.1l-1.6 -0.1l-1 -0.4l-1.3 1.1l-1.7 0.1l-1 0l-1.6 0.1l2.77556e-17 1l-0.2 1.2l-1.4 0.7l-0.1 1.5l1.3 3.2l-0.9 1.3l-1.2 -2.3l-1.5 1.3l-0.4 1.6l-1.3 2.4l-0.3 -1.2l0.5 -1l-0.6 -2.4l-1.2 2.7l-0.3 1.8l-0.6 1.2l-0.2 1z"/><path data-zip="04085" d="m84.2 1256l1.2 0.7l1.5 0.9l1 0.7l-0.6 1.1l-0.1 1.1l0.7 1.4l0.1 1l0.6 1.5l-1.1 0.7l0.4 1.6l0.4 1.2l1 0.2l1 2l-0.2 1.1l-0.5 1.4l0.1 1.1l-0.8 1.2l-0.8 1.6l0.9 2.4l-0.4 1.9l0.3 1.2l1.3 -2.4l0.4 -1.6l1.5 -1.3l0.9 2.6l1.2 -1.6l-0.8 -2.6l0.2 -1.6l0.2 -1.2l1.2 -0.7l-0.3 -1.1l1.5 -0.5l1 0l1.1 0.8l1.2 -1.5l1.7 -0.1l1.6 0.1l-0.7 -1.1l0.9 -1l-0.4 -2.2l0.2 -1.3l0 -2.4l-0.2 -1l1 -1.1l0.1 -2.1l0.9 -1.4l0.3 -1l1.4 -0.5l-2.2 -0.4l-15.7 2.3l0 -1.5l1.1 -0.7l1.2 -2l1.5 -1.2l1 0.4l0.7 -1.8l-1.1 -1.6l-0.4 -1.1l-8 9.4z"/><path data-zip="04086" d="m236.1 1187.8l0.7 1.2l0.4 1.2l2.3 2.1l0.7 1.3l0.6 1.6l0.8 2.1l0.6 2.4l0.8 1.6l0.4 1.5l0.2 1.1l1.9 0.7l1.2 0.8l0.6 1.1l0.9 1.7l1.1 0.2l1.6 1.2l1.2 1.9l0.8 1.7l1.4 1.3l1 -1l1.3 -1.1l1.4 -0.6l1.7 -0.2l2.7 1.9l1 0.9l1.4 0.9l1.6 -0.5l0.8 -1.3l2.2 -1l1 -0.4l1.6 -1.2l0.8 -1.5l1.6 -1.5l1.1 -1.2l0.9 -2l1.2 -0.7l1.3 -2l2.1 -2.9l0.5 -1.4l0.4 -1.9l0 -1.2l-1.2 -2.1l-1.5 -1.1l-1.2 -0.6l0 1.6l-0.7 1.1l-0.9 1.6l0 1.2l-5.8 -5l0 -1.1l-6 -1.7l-4.3 -0.9l-20.4 -4.5l1 1.5l-1.4 1.1l-0.2 -1l-1 0l-0.3 1.6l-1.7 1.4z"/><path data-zip="04092" d="m152.1 1302.9l-0.7 1l1.2 -0.6l3.1 2.9l1.7 1.3l3.9 -0.7l1.8 -0.3l1.6 -2.4l-1.1 -0.8l1.9 -2.5l1.1 -1.8l0.8 -3.3l-0.2 -1.9l-0.7 -1l-0.7 -1.5l1 -0.8l0.7 -1.2l0.2 -1.4l0.9 -1.3l0.5 -1.1l0 -1.4l1.4 -1.5l0.8 -1.2l-0.9 -3.1l-1.4 -0.3l-1 -1.4l0 -1.1l-1.4 -1l-1.1 -0.8l0.6 -1.1l0.1 -1.8l-0.9 -1l-1.4 0.6l-1 0.2l-1.2 -0.6l-2 -0.7l-0.6 3.2l-0.6 2.8l-2.5 11l-0.4 1.8l-1.2 5l-0.5 2.3l-0.4 1l-1.5 6.3z"/><g data-zip="04096"><path d="m220.4 1260.3l2.2 -0.5l-0.2 1.2l1.1 0.6l3 -2.9l-1.6 -1.1l-1.5 1.5l-3.1 1.1z"/><path d="m216.2 1255.8l0.1 1.3l1.3 0.1l1 -1.1l1 -1.1l-1.2 -0.1l-2.3 1z"/><path d="m209.2 1270.8l1.6 -0.1l0.1 1l1.5 -0.8l1.3 0.1l0.8 -1.7l2.4 -0.1l1.2 -0.9l0.4 -1.1l1.6 -1.3l-1.2 -0.2l-1.6 0.1l-1.8 0.3l0.2 -1.2l0.5 -1.1l1.4 0.1l1.2 -0.7l-1.7 -0.2l0.7 -1.4l-1.8 0.8l-1.6 0l-1.8 -0.3l-0.4 3.1l0.2 1l-3.4 4.8z"/><path d="m193.7 1252.9l-1.2 1.1l1.2 1.5l1.2 -1l3.2 2.6l-1.9 1.5l2.5 -0.7l1.7 2.1l2.8 0.8l1.4 1l0.7 1.1l-1.2 3.9l1.1 0.3l1.8 -1.8l1.5 -1.5l1.4 -0.9l1.5 -1.9l0.6 -1.3l1.8 -2l-1 -1.4l-0.2 -1.4l-1 0l-1 -1.1l-0.4 -1.2l0.7 -1.3l-0.4 -1.8l-0.1 -1.3l0 -1.4l-4.4 -6.7l-1.9 0.2l-1.8 -0.9l0.9 1.6l-0.6 1l-1.2 -1.6l0.4 2.4l-1.8 1.4l-1.1 0.8l-2.2 1.6l-2.6 2.2l0.4 1l-0.2 1.1l0.3 1l-1 1.2z"/></g><path data-zip="04101" d="m178.6 1297.7l2.4 2l-0.6 1.3l0.7 1.1l0.3 1.3l1.4 0.4l0.9 1.1l1 1l5.1 -3.7l-0.8 -1.6l1 -1.1l-0.6 -1.6l-1.7 -0.5l-1.5 -1.1l-1.7 -0.2l-2.8 1.7l-1.6 0.3l-1.7 -0.3z"/><path data-zip="04102" d="m164.7 1304l-1.6 2.4l3.9 -0.7l4.4 -0.8l-0.9 1.2l1 0.1l2.6 -0.3l1.3 -0.2l1.3 0.5l1.3 0l1 1.8l1.8 -0.3l1 -0.3l2.1 0l1.2 -1.2l-0.5 -1.4l-1.8 -1.4l-1.4 -0.4l-0.3 -1.3l-0.9 -1l-4.8 -2.1l-1.9 -1l0.7 -1.2l-0.7 -1l-1.8 -1.7l-0.3 -1.3l-2.5 0.2l-0.9 2.7l-1.4 3.1l-0.4 1.9l-2.6 2.4l1.1 0.8z"/><path data-zip="04103" d="m166.5 1290.9l0.1 1.6l0.6 1.3l0.4 1.1l0.4 1l0.9 -2.7l2.3 -0.6l-0.1 1.1l2.4 2.3l0.7 1l-0.7 1.2l1 0.5l1 0.3l4.9 2.2l0.4 -1.1l-1.7 -1.8l1.2 -0.5l1.3 -0.1l3.1 -1.5l1.7 0.1l0.5 -2.1l-0.1 -1.3l1.2 -0.6l0.4 -1l-0.9 -1.8l-0.5 -1.9l-1 -0.2l-2.8 -0.6l-1 0.7l-0.8 -1l-0.8 -3.5l-1.4 -0.9l1.2 -1.9l-1.9 -1.5l-1.7 0.3l-1 1.3l-1.9 -0.4l-1.4 0.2l-1.2 1.5l-0.8 1.2l-1.4 1.5l-0.6 1l0.5 1l-0.8 1.4l-0.8 1.2l0 1.5z"/><g data-zip="04105"><path d="m200.2 1282.6l-0.1 1.3l1.1 -0.8l0.8 -1.1l0.9 -1.5l-1.1 -0.4l-0.9 1.6z"/><path d="m160.5 1267.5l-0.3 1.3l0.5 1.1l0.9 1l1.3 0.2l1.9 -0.5l1.1 -0.5l0.9 2.8l-1.4 0.9l1.1 0.8l1.4 1l0 1.1l1 1.4l1.2 0.4l1.9 2.4l0.9 -1.4l2 1.4l1.8 -2l1.6 -0.7l1.3 1.8l-0.5 2l1.4 0.9l-0.1 2.8l1.7 1.7l1 -0.7l2.8 0.6l1 0.2l0.5 1.9l0.7 1.4l2.1 0.8l1.4 0.8l1.4 -1l-0.5 -1.1l-1.1 -0.3l-0.6 -1.8l0.6 -1.8l1.2 0.5l1.3 0.2l1 1.1l1 0.3l0.3 -1.3l-0.8 -1.2l0.3 -1l0.5 -1.7l-0.7 -1.3l-0.3 -1.1l2 -2.5l0.8 -1l1.1 -1.3l1 -1.3l-4.2 -2.9l-1.1 -0.8l-10.6 -7.3l-18.4 -12.7l-1.6 -1.1l-1.7 7.6l-0.3 1.4l-0.4 1.8l-1.2 6z"/></g><g data-zip="04106"><path d="m170.6 1317z"/><path d="m161.2 1306.7l-3.9 0.7l5.4 3.7l13.3 9.2l3.3 2.3l1.3 -1.9l1 -2.3l2.5 -1.4l0.8 -1.1l0.6 -1l1.6 -0.7l1.7 -1.7l1.7 -1.7l1.5 -0.5l1.7 -0.2l-0.2 -1.1l-0.3 -1.4l-0.4 -2.6l-1.5 -0.7l-0.8 -1.6l-1 -0.8l-4.7 4.4l-0.8 1l-2.5 0.2l-1 0.3l-1.4 0.7l-0.8 -1.3l-1.9 -0.9l-1.3 -0.5l-1.3 0.2l-2.6 0.3l-1 -0.1l0.9 -1.2l-4.4 0.8l-3.9 0.7l-1.8 0.3z"/></g><g data-zip="04107"><path d="m190 1339.7l-1.8 2.6l2.7 0.8l1.2 -0.2l0.9 -1.4l0.5 -1.7l-3.4 0z"/><path d="m180.7 1320.8l-1.3 1.9l1.9 1.3l0 1l1.1 -0.2l1.7 1l1.3 0.1l0.2 1.1l-0.7 1.6l-2.6 1.7l-0.8 2.1l0.4 1.1l0.3 1.2l0.3 1.5l1.4 1.5l1.6 -0.2l1.6 0.2l1.7 0.4l3 -3.2l1 -0.8l1.1 -0.2l1.1 1l0.5 1.1l2.7 0l1.2 -1.1l1.1 -1.5l-0.8 -1.4l-0.4 -1.8l-1.4 -1.3l1 -1.4l0.7 -1.4l-0.8 -1l-2 -0.3l-0.5 -1.8l-0.2 -1.7l0.3 -1.5l0.1 -1.4l0.9 -1.3l0.5 -3l-0.8 -1.3l-1.9 -1.1l-0.2 -1.1l-1.5 -0.8l-1.5 0.4l-2.2 1.4l-1 1.5l-0.8 1.3l-1.7 0.2l-0.6 1l-0.8 1.1l-1.6 1.9l-2 1z"/></g><path data-zip="04108" d="m199.1 1304.1l1.6 0.7l1.2 -0.6l1.5 0.2l1.1 -1.5l0.7 -1.5l-0.1 -1.3l-1.2 -0.8l0.1 -1.5l0 -1.2l-1.3 -0.2l-0.6 1.1l-1 0.9l-1 1.7l-0.4 3z"/><g data-zip="04109"><path d="m197 1307.7l1 0.9l-0.3 1.1l2.3 -1.1l1.7 -2.3l-1.1 0.2l-1.2 -0.2l-1.8 0.6l-0.3 1z"/><path d="m195.9 1299.3l0.2 1.1l2.4 -1.3l0.8 -1.3l1.8 -1l0.9 -1.9l0.4 -1.6l-0.8 -2.3l-1.4 0.5l-1.3 1.1l-0.8 1.2l-0.3 3.5l-1.9 1.9z"/></g><path data-zip="04210" d="m170.7 1152.2l0.5 1.4l-0.2 1.2l0.4 1.1l0.6 1.3l1.1 0.7l1 0.4l1 0.9l1 1.7l0.2 1.7l1.1 0.4l-6.3 9.4l5.4 5.5l15.7 16.2l1.1 -1.5l1.2 1l2 -1.2l10.1 -14.3l-1.8 -1l-0.7 -1.1l-0.3 -1.2l-0.8 -2l-0.3 -2.2l-0.5 -1.1l-1.1 -1l-1.6 -2.6l-0.4 -1.4l-1 -0.9l-0.6 -2.1l0.1 -1.4l0.2 -1.1l-0.5 -1.2l-0.7 -1l-1 -1.1l-1.3 -1l-0.7 -1.4l0.4 -1.3l0.1 -1.4l-0.1 -1.6l1.4 -1.8l0 -1.2l1.1 -1.4l0.7 -1.1l0.5 -1.8l1.1 -1.6l0.5 -2.4l-1.2 -2.1l-1 -1.2l-0.1 -1l0.9 -1.7l1 -2l0.7 -1.7l-1.8 -2.6l-1.3 -1.1l-17.8 -6.5l-1.5 0l-0.6 1.3l-0.1 2l-0.1 1.6l-0.5 1.4l-0.6 1.7l-0.2 2l0.9 1l1 1.4l1.2 0.6l-1 0.4l-0.4 1.7l-0.8 1.2l-1.3 2.6l0.4 2l0 1.4l0.6 1.5l-0.9 1.9l0.3 1.2l-0.6 2.1l-0.6 1.6l-0.6 1.6l-0.4 1.8l-1.6 -0.8l-0.4 1.4z"/><path data-zip="04224" d="m122.9 969.4l-9.7 5.7l19.3 4.2l0 1.2l0.2 1.4l1.2 1.4l0.4 1.8l0.6 2l1 1.2l-0.2 1.5l-0.1 1.2l-0.4 1.4l-0.6 1.5l1.1 0.9l0.4 1.3l0.1 2l-1.1 1l0.3 1.7l-0.1 1.3l0.2 1l0.9 1.3l1.1 0.4l1.2 0.2l1.3 0.5l2.2 0.9l1.7 0.6l2 0.8l1.7 0.9l0.9 1.1l0.6 1.5l1.6 1.5l0.8 1l2 0.1l2.9 2.3l1.1 0.6l3.1 0.8l1.5 0.9l9.4 -15.5l0 -1.5l2 -3.4l0.7 -1.2l0.6 -1.3l3.6 -3.7l-0.4 -1.1l-1.2 -0.1l-1.1 -0.2l-0.2 -1.3l-1.6 -0.6l-5.8 -1.6l-3.3 -2.7l2.4 -8.3l-3.3 -9.3l-6.3 3.7l-1.1 -1.2l-5.6 -15.6l-27.7 16.2z"/><path data-zip="04239" d="m175.5 995.9l-2.6 4.3l4.4 -0.8l2.2 12.1l2.5 -0.4l0.3 1.7l4.6 -0.8l2.5 12.8l0.4 2.6l9.3 -6.6l4.3 -0.9l7.8 -1.4l5.6 -1l-2.5 -17.6l-3.2 -17.7l-30.9 5.6l-0.7 1.2l-1.4 2.2l-2.7 4.4z"/><path data-zip="04240" d="m193.5 1152.5l0 1.2l1.9 1.9l1 1.1l0.7 1l0.5 1.2l-0.2 1.1l-0.1 1.4l0.2 1.7l1.2 0.8l0.6 1.9l1.6 2.6l1.1 1l0.5 1.1l0.3 2.2l0.3 1.1l0.8 2.1l0.7 1.1l1.8 1l1 1.1l0 2.3l1.9 1.9l3.8 -5.7l0.6 -3l2 -6.9l1.4 -5l0.5 -2.7l0.2 -2.2l1.9 -9.6l-0.6 -2.6l0.7 -3.3l-11.8 -8.3l-8.8 -6.3l-0.7 1.7l-1 2l-0.9 1.7l0.1 1l1 1.2l0.9 1.8l-0.1 2.4l-0.9 1.3l-0.5 1.5l-1 2l-1.1 1.4l0 1.2l-1.1 1.2l-0.4 1.3l0.1 2.3z"/><path data-zip="04252" d="m225.9 1178l1.1 1.1l0.6 1l-0.2 1.2l0 1l0.6 1l0.5 1.9l1.1 1l1 0.2l1.3 0l1.4 0.8l1.7 0.5l1.1 -0.1l1.2 -1l0.7 -2.4l1.2 -0.1l0.2 1l1.1 -0.5l-0.4 -1.5l0.2 -1.2l-0.5 -1.5l-0.2 -1.2l-0.1 -1.1l1 -0.6l-0.8 -1.1l0.4 -1.3l1.3 -0.7l1.1 -2.1l-0.5 -1.7l0.5 -3.3l-15 -3l0.5 6.1l-1.3 0.9l1.1 1.1l0.6 2.6l-1.9 -0.4l-0.7 3.1z"/><path data-zip="04254" d="m199.8 1020.8l1.1 1.5l1.1 1.3l0.9 1l0.2 1.9l1.4 1.3l1.3 2.7l-0.2 1.4l0.1 1.2l0.2 1.5l-0.4 1.9l0.1 2.5l1.6 1.7l1.6 0.6l1.5 0.8l0.6 2l-0.1 1.2l-0.3 1.4l0 1l0.2 1.5l0.4 1.3l-0.3 2.4l-0.1 3l0.3 1.8l4.8 0l3.1 -0.5l-0.5 -2.9l5.3 -0.9l-2.9 -14.4l-0.4 -1l-0.8 -1.8l0.1 -1.7l-2.1 -11.4l-1 -5.3l-5.6 1l-7.8 1.4l-3.6 0.7z"/><g data-zip="04256"><path d="m137.5 1152.9l0.4 1.1l0.8 1.3l1.2 1.2l0.9 1.5l3.4 0.9l1.1 0.4l1.3 -0.7l1.6 -1.2l1.5 -0.2l1.1 -0.8l5 -0.7l4.4 -6.1l-1.4 -0.8l-0.6 -1.2l-1.1 0.1l-1.2 -0.5l-1 -1l-0.3 -1.7l-1.1 -1.2l-1 -1.7l-0.9 -2.1l-1.4 -1.5l-0.4 -1.5l-4.5 5.5l-7.7 10.8z"/><path d="m135.4 1155.7l-1.7 2.5l4.1 3.3l1.2 -1.8l-2.4 -0.9l-0.6 -1.8l-0.6 -1.3z"/></g><path data-zip="04257" d="m102.7 973.2l6.8 12.7l1.7 3.3l1.4 2.7l1.2 2.1l1.4 0.3l1.8 1.9l1.8 2.5l1.1 0.7l1.4 1.2l1.6 1.3l1.3 1.1l1.7 0l1.2 0l1 -0.2l1.3 0.2l1.7 -0.5l1.1 -0.2l1.6 0.6l1.1 0.2l0 -1.5l0.1 -1.3l-0.3 -1.2l1.1 -1.5l-0.3 -1.4l0.1 -1.5l-1.4 -1.3l0.6 -1.5l0.4 -1.4l0.1 -1.2l0.3 -1l-1.1 -1.7l0.1 -1.2l-1.7 -1.8l1.1 -0.6l-1.4 -1l-0.9 -1.5l0.4 -1.7l-19.3 -4.2l-10.4 -1.8z"/><path data-zip="04258" d="m149.7 1136l1 1.2l5.55112e-17 1.6l1.8 2.9l0.6 1.1l0.7 1.2l0.5 1.6l0.9 1.3l1.3 0.4l1.2 0.3l1.1 1.3l1.4 0.8l1.5 1.1l1.3 -0.3l1.2 0.9l0.5 1.8l-0.4 1.3l2 -0.9l-0.1 1l1.2 1l1.2 0.1l1.4 1.1l1.3 0.1l1.3 1.1l-0.7 -1.6l-0.3 -1.1l-0.6 -1.5l-0.1 -1l0.3 -2l1.6 0.8l0.8 -1.1l0.5 -2l0.5 -1.6l0.4 -2.4l-0.5 -1.4l1 -0.8l-0.1 -2.2l-1 0l1.1 -0.9l-0.9 -2.7l1.3 -1.9l0.8 -1.9l0 -1.1l1.4 -1l-1.2 -0.6l-1 -1.4l-0.9 -1l-0.1 -1.4l0.5 -1.5l0.9 -2.2l0.1 -1.6l0.5 -1.8l0.2 -1.5l1.5 0l-10 -3.7l-2.2 -0.8l-7.7 10.5l-6.5 9.1l-2.5 3.4z"/><path data-zip="04268" d="m79.7 1089l-5.7 4.3l22.2 32.4l-1.3 1l4 5.8l3.6 -2.5l1.2 1.7l1.6 -1.4l1 -0.7l2.6 -2.1l7 -7.2l2.5 -2.6l1.1 -1.1l-0.3 -1l1.3 -1.1l-1.8 -0.8l-0.3 -1.4l0.3 -2l-0.9 -1.1l-1.4 0.8l-7.2 -17.6l-3.6 -8.2l-2.5 1.1l-1.2 -1.4l-1.9 0.7l-1.1 0.1l-0.8 1.2l-1.2 1l-1.6 0l-1.3 0.4l0.8 1.6l-3.8 1.6l-1.4 -1.2l-6.5 4.7l-3.3 -4.7z"/><path data-zip="04270" d="m97.4 1163.7l1.2 1.6l-0.1 1.1l0.4 1.2l1.1 0.6l0 1.3l0.4 1l1.1 1.4l0.5 1.2l-0.1 1.2l1.2 0.6l0.4 1.2l1.5 1.3l0.2 1.4l1 0.6l1.1 0.4l2.6 -3.2l2 3l2.9 3.6l8.6 -12.3l1.6 -0.4l5.5 3.6l0.4 -1.1l-0.4 -1l-0.3 -1.9l0.3 -1.7l0.3 -1.9l-1.1 -1.7l4.2 -6.9l1.7 -2.5l2.1 -2.8l7.5 -10.5l4.6 -6.4l2.5 -3.4l-1.1 -0.4l-0.2 -1.4l-0.5 -1.3l-0.1 -1l-1.1 -1.8l-1.8 -0.7l-0.9 -1.8l-1.1 -0.8l-1.2 -0.7l-0.9 -1.3l1 -1.6l-1 -1.1l-1.1 -1.1l-1.2 -0.8l-16.2 8.4l-1 -2.1l-1.3 0.7l-1.2 -3.2l-1.6 -4l-1.1 1.1l-2.5 2.6l-7 7.2l-2.6 2.1l-1 0.7l-1.6 1.4l-1.2 -1.7l-3.5 2.4l1.4 0.7l0.4 1.1l0.8 1.4l-0.3 1l0.9 1.1l0.2 1.4l1 0.7l-0.1 1.2l0.6 1.9l-0.6 1l-0.8 1.3l-1.2 1.7l-0.8 1.5l-0.1 1l-0.9 1.1l0.5 1.1l-0.6 1l0.5 1.3l0.4 1.1l-0.6 1.6l-0.2 1.1l-0.6 1.4l-0.7 2.1l0.7 1l-1.2 0.5l0.2 1.3z"/><path data-zip="04276" d="m74.9 988.6l-6.7 3.7l7 13.3l4.4 8.4l1.4 2.7l1.1 2.4l1.8 4.7l2 4.3l25.9 -14.4l1.1 1.8l-1.9 1.1l2.2 3.9l11.4 -6.1l-1.1 -2.4l6.3 -9l-1.3 -0.2l-1 0.2l-1.2 0l-1 0.1l-1.2 -0.4l-2.4 -2.1l-1.4 -1.2l-1.1 -0.7l-1.8 -2.5l-1.4 -1.6l-1.1 -0.1l-1.9 -2.6l-1.4 -2.7l-1.5 -2.9l-7 -13.1l-15.5 8.7l-12.3 6.7z"/><path data-zip="04281" d="m109.2 1092.3l7.2 17.5l1.4 -0.7l0.9 1.1l-0.3 2l0.3 1.4l1.8 0.8l-1.6 0.7l0.6 1.4l1.6 4l1.2 3.2l1.3 -0.7l1 2.1l15.4 -8.6l2.4 -1.5l-0.8 -1.9l3 -1.7l-0.5 -1.4l2.4 -1.4l-4.2 -9.5l-6.2 -14.4l2.4 -1.1l-2.3 -5.4l-2.9 -0.1l-14.2 8.5l-9.8 5.7z"/><path data-zip="04287" d="m239.6 1178.6l0.1 1.1l0.2 1.2l0.5 1.5l19.1 4.8l5.1 1.2l2.5 -11.9l1.4 1l0.9 1.2l0.7 1.4l1.4 1.4l0.6 -2.4l-1.3 -2.6l-0.2 -2l0.2 -1l-0.7 -2.3l-0.2 -1l-0.1 -2.6l0.9 -6.8l-1.9 -0.4l0.6 -1.6l1 -1.5l1.5 -2l0.6 -2.7l0.5 -2.4l0.9 -1.6l-26.5 -5.8l-4.9 25.2l-0.5 2.6l0.1 1.5l-0.1 2.1l-1.8 1.1l-0.6 1l0.9 1.9l-1 0.6z"/><path data-zip="04294" d="m156.2 967.3l0 1.5l0.6 1.5l6.8 -4l3.3 9.3l-3 7.9l3.2 2.4l6.6 2l5.9 1.3l0.7 -1.2l30.9 -5.6l1.6 -0.7l1.3 -1.1l1.4 -0.3l-5.6 -5.9l-9.8 -14.5l-2.5 -6.1l-8.4 3.7l-0.3 2l-1 -0.4l-1.2 -0.5l-10.3 4.5l-1.2 -2.2l-0.4 -1.6l-0.3 -1l-0.7 -1l1.2 -0.6l1.5 -0.4l0 -2l0 -1.1l0.4 -1.3l0.6 -1.3l1.8 -1.9l1.6 0.6l-0.1 -1.2l0.6 -1.1l-1.4 -1l-1.7 -0.3l-2.9 0.1l-0.4 -1l0.4 -1.2l-1 -1l-1.8 -1.2l-1.4 -0.2l-1.5 0.1l-1.4 0.2l-1 -0.9l-1.1 0.7l-2.8 0.1l-1.5 -0.5l2.3 6.7l-1 1.8l-0.9 1l-1.6 0.4l-1.3 -0.6l-0.9 1.2l-0.5 1.4l1.1 0.5l2.1 0.6l1.1 -0.1l0.6 4l-1.7 -0.5l-1.7 1.9l-1 0.4l0.3 1l-0.8 3.1l-0.6 2.3l-1.3 1.3z"/><path data-zip="04330" d="m289.5 1065.7l1.2 0.3l-1 5.2l2.3 1.3l-0.4 1.3l-1 0.6l-0.4 1.4l1.5 0.4l-0.2 1.2l1 0.3l1 0.6l2.4 0.5l-0.4 1.9l2.4 0.6l-0.3 1.2l3.6 0.8l1.4 0.3l-0.6 1.9l-1 0.9l-0.3 1.4l-0.1 1.3l0.8 2.7l0.7 1l1.3 1l0.7 1l1.9 3.6l-0.2 1.4l4.1 1.7l1.5 0.3l2.8 1.5l2.8 0.6l8.4 1.9l0.3 -1.3l1.7 0.3l1.9 0.9l2.1 1.3l3.8 -17.9l6 -28.3l-25.5 -5.5l0.1 -2l-0.3 -1.5l0.2 -2.2l0.3 -1.2l0.5 -1.2l0.7 -1.4l2.2 -1.9l2.1 -3.8l1.2 -2l0.4 -1.5l0.6 -1.7l0.3 -1.9l1.3 -2.9l0.9 -2.4l0.3 -1.5l0.2 -2l0.4 -3.1l-0.2 -1.2l0.5 -2.6l0.6 -1.5l0.3 -1.8l0.4 -1.1l-11.7 -2.7l-6.7 -1.6l-0.1 -1l-1.1 0.7l-1.1 -0.2l-0.5 1.5l-0.9 1.3l-1.3 0.9l-1.1 1.1l-1.2 2.3l-0.5 1.2l-2 1.9l-10 31.4l1.2 0.3l-0.6 2.5l1.4 -0.5l1.1 -1.2l-0.7 3.6l-3 11.2z"/><path data-zip="04344" d="m279.1 1096.8l3.4 1.4l1.2 0.2l2.4 0.6l-1.9 1.7l2.4 1.1l-0.4 1.6l11.6 -1.3l-0.4 1.7l2.1 -0.1l1.9 0.5l3.4 0.2l1 -2.4l-0.2 -1.4l0.2 -1.8l-1.4 -3.4l-1.3 -1.6l-1 -0.3l-1.4 0.1l-1.6 1.7l0.4 -1.8l-6.7 -2.4l0.6 -2.5l-7.2 -1.7l-1.9 1.8l-1.8 0.5l-0.6 1l-0.4 1.5l-0.5 1.3l-1.8 3.4z"/><g data-zip="04345"><path d="m307.8 1125.8l0.8 -1.7l-0.7 1.2z"/><path d="m264.1 1093.4l-2.4 10.1l8.4 1.9l-0.5 1.6l-1.3 0.4l-0.2 1.4l0.8 1l1.1 1.4l0.3 1.5l1.8 0.9l1.1 0.6l0.2 1.1l0.7 1.8l0.4 1.3l-1.1 3l0.2 2.1l0.5 1.3l2.4 -0.8l1.3 0.2l1.4 -1.1l1 0.2l1.1 -0.2l1.7 1l1.2 -0.1l0.9 1l0.2 1l0.8 1l-1.3 0.6l0.4 1.1l1 -0.4l20.1 4.5l0.1 -1.5l0.2 -1.9l0.2 -1.7l-1.2 0.6l1.5 -6.8l1.5 -1.2l-0.6 -1.4l-0.1 -1.2l1.5 1.4l0.6 3.2l-0.4 1.6l0 1l-0.2 1.2l-0.6 1.4l-1 0.6l-0.6 1l-0.2 1.1l0 2l0.9 2.5l0.3 1.1l0.1 1.8l22.6 5.3l2.4 0.6l0 -1.1l-2.1 -35.1l-2.3 -0.5l-1.4 -1.1l-2 -0.9l-0.3 1.3l-8.4 -1.9l-0.2 1.3l-1.7 1.4l-1.2 0.6l-1.1 0.1l-1.4 0.2l-1.3 -0.2l-2 1l-1.5 -1l-0.8 -1.1l-0.3 -1.5l-3.6 -1.3l-2.1 0.3l-1.3 0.3l-0.6 -1.1l-11.4 0.5l0.4 -1.6l-2.4 -1.1l1.4 -1.2l-1.9 -1.1l-1 -0.4l-3.9 -0.6l-3.2 -1.4l0.4 -1.2l-3.3 -0.7l-1.1 -0.8l-1 -0.2l-3.1 -0.7l-3.5 1.1z"/></g><path data-zip="04346" d="m305.2 1103.7l0 1l0.2 1.2l0.9 1.4l0.7 1.1l2 -1.4l2.1 0.5l1.4 -0.2l1.1 -0.1l1.2 -0.6l1.4 -0.7l0.3 -1.8l-2.6 -0.8l-2.9 -0.7l-1.4 -1.1l-4 -0.9l0.2 1.4l-0.6 1.7z"/><path data-zip="04347" d="m285.4 1084.5l-0.3 1.5l1.1 1.2l7.2 1.7l-0.6 2.5l6.9 1.7l-0.6 2.5l1.6 -1.7l1.4 -0.1l1 0.3l-1.3 -1l-0.7 -1l-0.6 -1.8l-0.1 -2.2l0.3 -1.4l1 -0.9l1 -1.8l-1.8 -0.4l-3.6 -0.8l0.3 -1.2l-1.7 -0.4l-0.3 -2.1l-2.4 -0.5l-1 -0.6l-1 -0.3l-1 -0.3l-0.4 1.5l-0.3 1.4l-1.5 2.9l0 1l-2.1 -0.6l-0.6 1.1z"/><path data-zip="04357" d="m272.9 1149.9l-0.5 2.4l25.6 6.1l0.2 -2.5l1.7 -1.2l1.7 0.2l1.1 -1.1l1.1 -1.8l1 -1.5l0.5 -1.6l0.6 -1.3l0.4 -1.3l0 -1l0.3 -1.1l1 -1.8l0 -1.3l0.5 -2.5l0.3 -1.9l-0.4 -1.9l-0.8 -1.8l-20.8 -4.7l-1.1 0.4l-1 -0.6l-2.5 1.8l-1 1.5l-1.2 0.8l-1.6 2.3l-1.6 4l-1.5 4.6l0.2 1.6l-0.6 1.9l-0.3 1.8l-0.9 1.6z"/><path data-zip="04359" d="m305 1128.1l1.4 -0.7l0 1.9l-0.3 1.1l0 2.3l0.8 -1.6l0.1 -2l0.6 -1l1 -0.6l0.6 -1.4l0.2 -1.2l0 -1l0.4 -1.6l-0.3 -2.3l-1.4 -2.5l-0.3 1.4l0.6 1.4l-1 0.3l-2.4 7.6z"/><path data-zip="04364" d="m237.4 1083.8l0 1.1l0.3 1.5l1.1 0.7l3.1 1.5l5.8 1.1l-0.4 3.1l3.5 0.8l0.6 -1.5l1.4 -0.8l0.7 -1.8l2.5 -2l-0.2 1.2l-1 0.5l1 -0.5l-0.6 1l1.2 0.1l-0.1 1.8l6.2 1.5l1.7 0.3l3.5 -1.1l3.1 0.7l7.5 -18.1l0.9 -3.9l-1.1 -2.4l-13.3 -3.4l-1.9 0.1l-1.7 0.8l-1.2 1.7l-0.1 -1.2l0.6 -1.2l-11.5 -2.3l-4.3 -1.2l-3.1 17.5l-3.4 -0.6l-0.3 1.4l-0.2 1.5l0.1 1.3z"/><path data-zip="04401" d="m499.1 892.7l6 30.1l3 -1.3l0.1 -1.5l1.2 -1l-0.3 -1l0.2 -1.1l2.2 0.5l0.5 1l1.8 0.7l0.7 1.9l12.8 -2.4l3.2 -0.6l4.7 -1l4.2 -0.8l1.4 -0.5l1.4 0.2l1.8 -0.3l2.2 -0.4l2.6 1.8l1.2 -1.4l0.9 -2.8l1.1 -2.1l1.1 -0.9l1.9 -1.2l1.5 -1.3l1.4 -1.2l2.6 -1.5l2.4 -1.8l1.3 -0.4l2.9 -0.2l2.1 -0.2l0.7 -1l-0.3 -1.1l-0.9 -1.3l0.2 -2.7l0.8 -1.9l-0.5 -1l-10.4 -11l-13.2 1.9l-1.8 -9.3l1.5 -0.4l1.2 0.4l1 1l0 -1.2l6.5 -1.4l-0.6 -1.5l-0.9 -2.9l-0.6 -1l-1.5 -0.5l-1.6 -0.8l-1.6 -0.6l-0.3 -1.3l0 -1.4l0.3 -1.4l-0.6 -1l-1.5 -1.4l-1.2 -2.3l-0.6 1.5l-0.6 -1.1l-1 -0.3l-1 -0.9l0.7 -1.6l-5.1 0.2l-15.3 2.9l3.7 19.7l-10.3 3l1.7 9.3l-17.2 3.2z"/><path data-zip="04412" d="m547.5 920.4l1.3 1.4l1.7 1.2l2.6 1.8l1.4 2.2l5.7 3.3l1.8 -3.5l0.6 -1l10 -16.6l-1.4 -0.9l-1.9 -6l-2.3 -0.1l-2.2 0.1l-2 0.5l-1.5 1l-2.9 2.3l-1.1 0.3l-2.4 2.2l-1.9 1.2l-1.1 0.9l-0.8 1.4l-0.9 2.9l-1.5 2l-0.9 1l-0.5 2.4z"/><path data-zip="04416" d="m532.5 971.3l0.1 1.2l0.4 1.1l0.9 1.3l1.8 1.4l1.1 1.2l1.6 2.6l0.7 1.6l0.5 1.3l0.9 3.4l0.6 1.1l1.2 1.3l1.6 0.4l0.7 1.5l-1.4 2.8l-0.5 1.4l0 1l0.6 1.9l0 5.6l0.3 1.4l1.2 -0.3l0.8 2l2.1 2.8l1.1 3.2l0.3 1.1l1.1 -0.4l1.2 -0.7l1.6 -1.5l0.9 -1.3l0.4 -2.8l0.9 -2l0.3 -1.9l-0.3 -1l-1.7 -0.8l-0.7 -1.9l-0.2 -1.8l-0.4 -2l-0.2 -2l-0.7 -1.9l6.2 -6.4l1 -0.1l0.9 -1.3l0.3 -1.4l1.3 -0.5l1 -1l18.7 -21.3l3.3 -3.7l-13.1 -19.1l-5.7 6.3l-1.7 1.4l-1.5 1.2l-4.2 12.3l-3.4 -0.7l-3.5 -0.6l1.4 -3.9l-3.6 -0.9l-1 0l-0.2 -2.8l-1.7 0.4l-1 -0.5l-4.6 1.2l0.1 1.3l0.4 1.4l0.4 1l-0.3 1.6l-1.8 1.1l-1 1.9l-1.6 2.8l-0.3 1l-0.2 1.5l-1.4 3.3l-1.6 2.5l-0.5 2.2z"/><g data-zip="04421"><path d="m540.6 1060.9l-0.5 2.3l1.7 -0.9l1.5 -1.5l1 -1l-0.3 -1.5l-2.3 -1l-0.4 1l-1 1.2l0.3 1.4z"/><path d="m538.9 1044.8l0.9 2.4l1.1 -0.1l0.5 1l-0.3 1.2l-1.2 -0.1l-0.7 4.2l1.5 0.7l1.1 0.2l4.1 -0.7l1 -0.6l1.2 -2.2l0.8 -1.2l1.3 -1.4l1.2 -0.7l0.8 -1.2l0.1 -3.3l0.1 -1.1l0.4 -1l0.7 -1.4l-2.3 -2l-1.1 -1.8l0.1 -1l-0.2 -1.6l-0.9 -1.8l-2.7 -1.7l-1.5 0.8l-0.7 2.1l0 2.2l-0.3 1.3l-2.6 1.5l-1.2 1.7l0.1 1.9l-1.3 3.7z"/></g><path data-zip="04426" d="m410.9 717.6l0.6 3.1l0.4 2.3l0.5 1.1l0.5 1.1l-0.5 1.4l1.6 1.2l0.1 1.3l0.4 1l0.6 1.1l1 -0.2l0.5 1.6l1.1 -0.3l0.5 2.5l1 1.1l1.4 11l1.1 0.4l1.2 -0.1l0.9 1l-2.9 0.6l5.6 29l1.5 -0.2l1.8 0l1.5 -0.2l6.2 31.1l26.4 -5.2l3.8 -0.7l31 -6.5l2.5 -0.5l-0.5 -2.7l-2.5 0.5l-5.4 -27.9l-6.2 1.3l-0.9 1.1l-1.4 -0.4l-0.7 1.6l-1.7 -0.1l-1.6 -0.1l-1 -0.6l-1.9 1.3l-1.4 -0.3l-1 -0.5l-0.3 -1.2l-0.8 -2l-1.9 0.4l-1 -0.1l-0.2 -1l-1.7 -0.5l-1.3 -1.4l-1.2 -2.1l-1.2 0.3l-2.3 0.7l-3.8 1.6l1.6 1.2l1 0.6l1.3 1l1.6 -0.6l0.1 1.1l2.2 1.3l-1.1 1.4l0.4 1.4l-1.3 0.4l0 1.4l-1 0.7l-1.2 -2l-8.1 1.2l-2.1 -11.2l3.9 -1.5l1 -1.5l-1.4 -0.9l-0.7 -2.6l-0.3 -1.2l-1 -1.3l0.3 -1.7l1.2 -1.4l-1 -0.5l-1.7 0.2l-0.8 -1.3l-1.7 -1.2l1.4 0.4l1.8 -0.3l1.5 -0.7l2.8 0.9l1.8 -0.7l-1.7 -0.6l-0.9 -1.6l-1 -1l-1.2 -0.1l-5.9 0.6l-5.8 -31.4l-1.4 -7.4l-23.6 4.8l-0.6 1l-1.5 1.9l-1.3 0.4l-1.2 1.3l0.2 1.1l-1.3 1.3l-2.1 1.4z"/><path data-zip="04430" d="m589.8 605l0.2 10.9l0.7 1.4l1.1 1.1l2.9 2.4l2.6 2.2l1.2 0.1l0.8 1l1.1 1l-1.8 0.5l-1.3 1l-1 -0.3l-2.2 -0.2l-1.6 -0.3l-0.2 1.6l0.2 1.3l0.2 1.1l1 -0.8l1 -0.5l1.1 0.6l1.4 0.4l1 0.7l1 0.8l1 -0.3l2.1 -0.4l0.7 -24.8l-1.6 0l-11.6 -0.3z"/><g data-zip="04441"><path d="m421.9 521.5z"/><path d="m420.1 534.6l-0.1 1.8l0.3 1.3l0.7 1.5l0.7 2l0.9 1.7l1.7 2.5l1 2.4l1 1.6l1.1 1.5l1.2 1.5l-0.6 1.1l1 0.4l2 -1.2l1.4 -0.1l1 -2.2l0.6 -1.4l1.7 -1.8l1.8 -1.8l0.7 -1.5l0.9 -3.4l1.7 -0.2l1.1 -2.7l-0.2 -1l0.5 -3.2l-1.2 -1.2l-1 -1.2l-2 -0.7l-0.5 1.5l0.4 2.2l0.4 1.1l0.9 1.8l1.1 1.1l0.8 1.1l-1.7 -0.1l-1 -0.5l-2 0.5l-0.7 1.4l-1.4 0.4l-1.3 0.2l0.1 -1.2l-0.9 -1.5l-1.5 0l-0.3 -1.5l0.3 -1.1l0 -1.3l0.4 -1l0.2 -1.4l-0.5 -1.3l0.3 -1.7l-1.1 -1.6l-0.3 -1l-0.9 -1.2l-1.3 -1l-2.2 -0.4l-1 -0.4l-1.2 -0.8l-1.7 0.2l-0.2 2.6l-0.7 1.8l-0.3 1.7l0.5 1.6l-0.5 2.1l0.1 1.2l-0.4 1.2z"/><path d="m368 634.5l0.2 1l-0.2 -2z"/><path d="m367.5 632.1l0.2 1l-0.1 -1.1z"/><path d="m367.5 634.2z"/><path d="m366.5 632.1z"/><path d="m365.8 632.3l0.4 1.2l-0.3 -1.2z"/><path d="m364.6 635.7l0.4 1.4l0 -1.2z"/><path d="m363.7 635.8z"/><path d="m360.7 635l1.4 -0.5l-1.3 0.5z"/><path d="m353.6 601.6z"/><path d="m348.9 648z"/><path d="m344.8 602z"/><path d="m344.8 605.4l0 1.3l0.4 -1.1z"/><path d="m336.1 664.6l-1.2 0.2l1.7 -0.1l2.1 0.6l1.8 1.2l0.3 1l0.2 -1.2l1.2 -0.7l1.7 0.4l0.7 1.3l0.1 -1.5l-2.2 -0.5l0 -1.3l-1.9 -0.3l-0.5 1.4l-1.3 0.2l-1.1 -0.4l-1.5 -0.6z"/><path d="m327.2 593.1z"/><path d="m324.8 541.1l0.2 1.3l-0.2 -1.3z"/><path d="m314.6 348.2l0 4.1l0 2.1l0.9 1.3l2.7 0.4l1.4 1.1l-0.7 1l0.5 2.4l1.1 -1.3l1 -1.4l0 -1.8l-1.3 -0.6l2.1 -1.3l1.6 -0.4l1.2 -0.4l1.2 0.4l1.4 -0.2l1.3 -1l2.9 0.2l1.5 0.6l1.1 0.2l1.3 0.7l1.5 0.7l1.2 -0.3l1 0.3l0.9 1l0.7 1.1l0.7 1.3l0.5 1.1l1.2 -0.1l1.5 -0.3l1.7 0.3l2.4 -0.8l-0.7 -1.4l0.5 -1.2l1.6 -0.6l1.2 -0.4l1.5 -0.9l-1.6 -1.3l-1.4 -0.6l-1.4 -0.3l-0.2 -2.5l-1.1 -1.2l-0.4 -1.2l-1.4 -2.2l-0.6 -1.6l0 -1.2l-0.6 -1.5l-1.1 -2.1l-0.2 -3.6l0.1 -1.9l0.2 -1.1l-0.7 -1.4l1.8 -0.1l2.1 -0.4l1.3 -0.5l0.5 -1l2.6 0.5l0 1.3l0.7 1l1.1 0.8l0.8 1.2l1 1.6l0.9 1l1.8 0.2l2 0.9l1.4 0.8l0.1 -1.3l0.1 -1.9l0.6 -1.3l0 -1.1l1.1 0.6l1.3 -0.4l0.9 1.1l0.1 2l1.1 0.1l1.8 0.8l1.3 0.5l-0.5 1.5l0.3 1.1l1.8 0.4l5.7 -0.5l0.6 -1.4l-0.4 -1.2l-1 -0.9l0.5 -1l1.7 0.8l-0.1 -2.2l-1.2 -1.8l-1.4 -0.3l-1.2 -0.7l0.8 -1.2l1 0.1l1 0.6l1.3 -0.1l1.1 -0.5l1.3 0.2l1.1 0.6l1.2 0.1l0.9 1l1.6 0.4l1.1 0.3l-0.8 -10.2l1.6 -1.4l2.6 0.6l1.1 -0.9l-1.4 -0.4l-1.9 -1.4l-2.8 -2l6.5 3.4l2.3 -1.8l-1 -1.4l-0.3 -3l-0.6 -1.4l0.3 -2.8l-0.4 -1.8l-0.8 -1.7l-0.4 -1.4l-0.3 -1.8l-4 -12.9l-1 -1.7l-1.2 -0.6l-2.9 -0.7l-1.1 -0.2l-2.8 0.6l-1.5 0.2l-2.7 0.1l-1.2 -0.4l-1.1 -0.6l-2.4 -1.6l-1.7 -0.8l-1 -0.1l-1.6 0.8l-1.1 1.7l-0.5 2l-1 0.8l-1.9 0.7l-2.9 0.6l-1.4 0.2l-2.7 -0.2l-1.1 -0.2l-1.2 -0.4l-5.3 -2.9l-1.2 -0.9l-1.3 -1.3l-1.3 -1.9l-23.2 0l0.5 64.4l-3.2 0z"/><path d="m309.3 590.2l-0.1 1.5l1.1 3.8l0.7 1.2l1.7 0.9l1.6 0.5l0.7 1.2l0.2 -1.3l0.3 -1.2l1.1 1.3l1.2 -1l-0.1 -1.8l1 1.2l1.3 0.7l0.2 1l1.2 0.5l0.8 -1.8l1.7 1.6l1.2 1.3l0.6 1.3l1.1 -0.2l0.1 -1l0.4 -1l-0.3 -1l-0.6 -1.6l0.1 -1.4l-0.1 -1l1.1 -1.3l1.1 0.6l1.1 0.7l-0.1 1.3l-0.4 1.1l-0.1 1l0.1 2l-0.4 2.5l-0.4 1.2l0 2.7l0 1.6l1.4 0.4l2.3 -0.9l1.2 -0.9l1.2 0l1.9 -2.2l1.5 -1.5l1.2 0.5l1.1 1.2l1.4 1.1l1.2 0.7l1.4 0.3l0.1 -1l-0.4 -1.1l1.1 -1.7l1.6 -1.3l1.2 -3l-0.9 -1.9l1.4 0.6l1.8 1.5l0.8 -1.3l0 -1.1l-0.6 -1.7l0.8 -2.4l-0.2 -1l0.8 1.4l1.6 0l1.1 -0.4l0.2 -1.9l0 -1.1l0.6 -1.3l1.1 0.6l1 -0.7l-0.2 1.6l1 1.7l1.6 3.2l1.3 1.6l1.7 0.1l-1.2 0.3l-1.6 -0.2l-1.6 1.4l0 1.1l2.1 2.6l-1.4 0.3l-1.1 0.3l-1 1.1l-1.4 0.5l-0.5 1l0.2 1.1l-0.7 1.7l-0.3 1.1l-1.5 1.1l-1.3 0.7l-0.6 1l-1.4 0.1l-1.5 -0.8l0.1 2.3l0.8 1.4l-1.7 0.4l-1.5 0.6l-1 0.7l-0.3 1.1l-0.6 1l0.5 1.7l1 1.4l1.5 1.4l1.3 0.2l1.5 -0.2l-0.4 1.7l0.3 1.1l1.1 -0.3l0.4 -1l-1.3 -0.1l0.9 -1.2l1 0.3l0 -1l2.5 2l1.4 0.4l1.2 1.1l2.8 1.1l2.3 0.1l1.1 1.9l1.7 1.2l0.6 -1.2l1 -0.5l0.8 1.5l1.6 0.4l1.1 0.2l-0.5 1l-1 0.4l0.9 1.2l0.8 1.7l-0.4 1.7l-1.2 0.1l-0.1 -1.3l-0.8 1.6l-0.6 -1.3l-0.6 -1.2l-0.8 1l0.8 1.3l0.3 1.3l-1 0.7l-1.4 0.3l-1.1 0l-1.5 -0.8l-0.5 -1.3l-1.6 2.77556e-17l0.4 1l-0.2 1.1l-0.6 1.2l-0.6 -1l-1.8 2.77556e-17l-0.8 1l0.5 1.5l-0.9 1.2l-1.2 -0.2l-0.5 1.4l1.4 -0.1l1 0.1l1.1 2l1.4 2.5l0.8 1.3l1.3 1l-0.6 1.9l0.8 1.2l-1.1 -0.4l-1.5 0.4l-1.1 -0.8l-2.1 -1.4l-1.1 -0.8l-0.5 -1.4l0.1 -1.4l-1.8 0.2l-1.3 0.8l-1 0.3l-1.4 0.4l-1.1 0.4l-1.3 0.6l-1.1 0.5l0.7 1l-1.5 1l0.7 2.4l1.3 1.9l2.2 1l-0.1 -1.1l1.9 0.2l1.1 2l1.3 0.7l1.3 -0.7l0.9 1l1.2 0.4l-1 0.2l-0.6 1.4l-0.2 1l-1 1l-1.3 0.1l-0.2 1.1l-0.6 1.3l-0.3 1l-1.3 1.3l-0.3 1.2l0.4 1.1l0.1 1.3l0.3 1.1l-2.6 0.9l-1 -1.11022e-16l-2.7 0.8l-0.2 -2l-1 -0.3l-0.3 2.5l0.2 1.5l0.9 1.3l4.9 21.4l16.1 -3.3l11.9 -2.6l3.8 -0.8l-0.7 -3.4l-7.7 -37.2l1 -0.2l-2.2 -2l0.6 -1.1l1.2 -1.5l0.5 -1.3l-0.2 -1.2l1.1 -1.5l1.4 -1.1l0.7 -1.5l1.9 -0.3l-1.3 -0.6l-2.3 -1.6l0.7 -1.2l-0.1 -1.1l34.6 -0.7l0.7 1.3l1.1 1.5l-1 0.2l1.2 1.2l0.7 2l1.5 -1.6l2.2 -2.4l1 -0.9l1.6 0.7l1.3 0.6l1.3 1.2l2 0.2l1.3 -1.6l1 -0.7l0.4 -1.3l-0.1 -1.6l1.3 -0.9l1 0.4l1.5 -0.2l1.6 1.4l1.4 1l2.2 -0.3l1.1 0.6l1 -0.3l1.9 1.3l1.2 0.1l1.8 1.2l1.5 0.8l1.4 0.4l1.1 0.1l1 -1l0.6 -1.6l1.9 0l1.1 0.4l1.5 1.1l2.9 -3.9l3.4 0.2l1.4 -0.7l3.4 1.3l2.4 0.5l2.2 1.7l2.7 0.9l1.3 -0.1l4 -0.9l3.1 -0.2l-1.1 -0.1l-1.2 -0.4l-1.3 -0.4l-1.1 0l-1.2 -1.1l-1.2 -0.2l-1.1 -0.2l-1.5 0.1l-0.9 -1.3l-1.3 -0.4l-1.6 -1.1l1 -1l0 -2.7l1 -0.3l0.2 -1.2l-0.6 -1.3l11.8 2.1l0.6 1l0.3 1.1l0.7 1.1l3.1 1.6l1.3 1.1l1.6 1.1l1.7 1.1l3.1 -1.3l2.5 -0.6l2 0.2l4.3 0.6l-1.2 -1.3l-2 -3.4l-0.3 -1l-0.6 -1.4l-0.2 -1l-0.5 -1.1l-0.9 -2.5l-0.4 -2.1l0.1 -1.3l-1.5 -4.3l-1.4 -1.6l-1.5 -1.6l-0.4 -1.4l-1.4 -1.8l-1.2 -0.6l-3.9 -0.6l-1.2 -0.3l-1 -0.5l-1 -0.9l-1 -1.2l-1.5 -1.6l-1.4 -1l-1.2 -0.4l-1.6 -1.4l-1.6 -1.6l-1.2 0l-1.5 -0.3l-1 0.7l-1.6 -0.5l-2.2 0.9l-1 -0.2l-1.9 0.6l-1.2 -0.2l-1.2 0.2l-1.1 0.2l-1.6 -0.6l0.1 -1.6l-0.8 -1.1l-1 -1.2l-1.2 -0.4l-1.2 0.2l-1.1 0.5l-1.1 0.1l-1.1 0.5l-1.6 1l-1.8 1.1l-1.8 0l-1.5 1.1l-2.2 0.2l-1.6 0.1l-1.8 1l-1.7 0.5l-1.6 -1.8l-2.2 -0.1l0 -1.3l0.4 -2.6l-1 -0.6l-1.8 1.2l-2.3 -0.8l-1.5 0.7l-2.3 0.4l-1.6 -0.7l-1.7 -0.6l-1.2 0l-1.7 1.1l-0.2 1.8l-1.4 2.3l-1.5 -1l-1 -0.8l-2.6 -1.4l-1.2 -0.6l-1.7 -0.2l-2.3 0l-1.8 0.3l-1.6 -0.6l-1.3 0l-1.4 -0.5l-1.3 0.3l-1.2 0.2l-1.8 -0.3l-1.2 0l0.6 -2.2l-1.8 0.4l-1.9 0.8l-1.6 -1l-0.4 -1.4l-2.3 -1.1l-1.1 -1.5l0.1 1.4l-0.2 1.3l-1.9 0.5l-1.2 -1l-1.4 -0.9l-0.8 -1.9l-0.4 -1.3l-1 -1.4l-1.1 -0.7l1.1 -0.9l1.1 -0.7l1.2 -0.9l1.2 -1.1l1.4 -0.1l1.6 1.2l1.6 -0.2l3 0.1l1.4 -0.7l0.1 -2.7l-0.3 -1.7l-0.4 -1.2l1.7 0.2l1.2 0l1.8 0.8l4.9 2.4l1.5 0l1.6 0.2l2 -0.2l0.4 -1l-1.3 -1.8l0.8 -1.1l0 -1.1l0.7 -1.1l1.7 -1.3l0.4 -1.7l0.5 -1.1l0.6 -1.6l-2.5 -3.8l-2.2 -2.8l-0.4 -1.3l-1 -1.6l-2.1 -0.2l-2.2 1.3l-1.4 0.5l-1.8 0.4l-1.2 -1.1l-1.5 -1.3l-0.9 -1.6l0 -1.3l-1.2 0.7l-1.6 0.1l-1.8 -0.9l-1.3 -0.1l-1.6 0.1l-1.5 -0.8l-1.9 -0.7l-0.7 -1.5l-0.8 -1l-1.7 -1.3l-1.5 0.6l-1.3 -0.8l0.1 1l-1.1 -1.2l-0.3 -1.3l-0.1 -2.1l-0.4 -1.5l-0.2 -1.3l-1.2 0.2l-1.2 0.5l-1.2 0.5l-0.9 -1.6l-2.1 -1.9l0.1 -1.4l-1.1 -0.1l-1 -0.4l1.2 -1.4l0.2 -1.2l-1 0l-1.5 1.2l-1.6 -0.6l-1.2 -1.8l-0.4 -2.1l-1 -1.2l0 -1.1l0.9 -1.3l0 -2.7l0 -2.1l11.4 -3l1.1 -1.4l2 -0.6l2.4 -0.3l1.2 -0.8l1.6 -1.4l1.1 -0.4l2 -1.6l2.3 -2.2l1.6 -1.1l1.5 -0.1l2.1 -0.8l1 -0.6l1.6 -0.6l1.2 -0.3l1.7 -0.7l1.6 0.4l1.2 -0.4l0.6 -1.1l1.8 -1.4l-1.1 -0.9l-1 0l-0.4 -1l-1.1 -0.5l0.1 -1.5l-0.5 -1.4l-1.1 0.1l-0.1 -1.1l-0.1 -2.1l0.2 -1.8l-0.6 -1.7l-0.1 -1.4l-0.3 -1l8.3 -11.5l0.2 -1l0.1 -1.2l-1.3 -3.7l-1.1 -2.6l0 -1.5l-0.6 -1l-0.6 -1.4l-1 -1.5l-1.2 -1.8l0.2 -1l-1.7 -0.7l-1.1 -0.4l-1.3 -0.3l-0.9 1.1l0.3 2.2l0 1.5l-1.4 1.2l-0.1 1.7l-2.1 1.4l0.3 1l-1 0.7l0.5 1.7l0.2 1.1l0.2 1l-1.1 -1.6l-0.2 -1.4l0.6 -2l-1.5 -0.9l-1.2 -0.6l-1 -1.8l-2.4 -1.1l-1.2 1.2l-0.8 1.5l0 1.8l0.3 1.1l-0.1 1.5l0.3 1l-0.5 1l0 1.5l-1.2 -0.1l-1.3 0.2l-1.4 0.8l-0.8 1.1l0.4 1.6l0.1 1l-0.6 1.7l-0.5 1.7l-0.7 1l-1.2 0.8l-1.9 -0.1l-1.5 0.7l-0.7 1l0 1.6l-0.1 1.9l0.5 1.8l0.4 2.6l-0.9 1.8l-1.2 -0.2l-1.4 0.1l-2 1.6l-1.3 1.3l0.2 1.3l-0.2 1l-0.8 1.4l-0.3 1.8l0 2.2l0.1 1l0.7 2.4l0.5 2.7l-1 0.7l-0.2 1.1l-1.3 0.8l-1 1.6l-0.8 1.3l-0.4 1.1l0.1 1l-1 0.7l-2.5 0l-1.1 0.4l-1.6 0.5l-1.2 -1l-2.9 -0.9l-1.8 -1l-0.8 -2l-0.4 -1l-1.2 -0.9l0.8 -1.3l-1.8 -0.8l-1.5 -0.9l-1.2 -0.8l-1.8 -0.1l-2.2 -0.7l-1.2 -0.4l3.7 20.6l1.1 -1.3l0.5 -1l0 -1.2l1.2 0.5l1.1 1.4l1.4 1.4l1.4 1.6l0.6 1.2l-0.2 1.7l-0.6 1.1l-0.8 2.1l0 1.2l-4 1.7l-0.4 2.4l0.4 2.3l0.3 1l0.3 2l0.2 1.9l-0.3 1.7l0.5 1l0 1.3l0.1 1.6l0.4 1.2l-1.9 -1.5l-2.1 0.3l-0.2 2.3l0.2 1.4l1.3 1.5l-0.1 1l1.6 0.2l-0.3 1.5l-1.9 -0.4l-1.3 0.2l-1 -0.6l-0.8 -1l-1.6 -0.5l-1.2 -0.1l-1.4 0.8l-0.8 1l-0.6 1.4l-1.4 0.2l-1.3 1.1l-0.5 1l-2 1.9l-0.8 1.1l-0.3 1.3l-1.1 1.9l-1.5 1.3l-0.9 1.5l-0.1 2.1l0.6 2.2l0.8 1.3l1 1.8l0.3 1.2l-0.8 1.2l-0.7 2l-2 1.1l-0.9 -1.5l0.2 -1.4l-1.8 -1.8l-1.4 -0.7l-1.2 0.3l-1.7 0z"/><path d="m303.4 579.7l0 1.2l0.5 2l-0.1 1.6l-0.2 2.4l1.4 1.7l1.5 0.9l2.1 -3.7l-0.3 -1.1l-0.8 -2.2l-2.4 -2.7l-1.2 -0.8z"/><path d="m301.9 570z"/></g><path data-zip="04443" d="m363.8 821.3l0 1.4l1.3 0.7l1 0.7l1.1 1.1l0.4 1.2l0.5 1.2l4.9 -0.9l-1.2 -5.7l30.3 -5.9l5.2 -1l-4.2 -21.4l-1.3 -1.7l0.2 -1.1l0.3 -1.3l-1.2 -6l2 -0.3l0 -1.1l2.1 -0.3l1 -0.2l1.2 -0.8l1.6 -0.2l1.4 0.4l2.6 -0.4l1.4 -0.5l1.5 -0.1l1.7 -0.4l1.9 0.8l1.3 0.3l1.1 -0.5l0.5 -1.1l2.2 -0.8l2.2 0.4l-5.6 -29l2.9 -0.6l-0.9 -1l-1.2 0.1l-1.1 -0.4l-2.2 -10.8l-0.2 -1.3l-0.5 -2.5l-1.1 0.3l-0.2 -1.1l-1.3 -0.3l-0.6 -1.1l5.55112e-17 -1.3l-0.5 -1l-0.8 -1.1l-0.4 -1l-0.1 -1.4l-0.8 -1.3l-0.4 -2.3l-0.8 -2.6l2.3 -1.9l1.3 -1.3l-0.2 -1.1l1.2 -1.3l1.3 -0.4l1.5 -1.9l0.6 -1l-11.9 2.4l-0.4 -1.5l0.3 -1.7l1 -1.2l0.2 -1.1l-1.6 -0.8l-1 -1.5l-1.4 0.3l-1.9 -0.6l-3.1 -3.6l-1.3 -0.9l-1.6 -0.6l-1.8 -0.3l-1 0.1l-1.2 0.3l-1.2 1.5l-1.1 -1.9l-0.5 -1.5l-0.7 -2l0.1 -1.1l-1.4 -1.5l-2.3 -1.8l-1.3 -1.1l-1.1 0.1l-1 0.9l-1 0.4l-0.3 1.5l-1.5 1.1l-0.7 -1.3l-0.7 -2l0.7 3.4l-3.8 0.8l0.6 1l0.3 1l0.8 1l1.1 0.3l0.2 1l1.1 0.7l0.2 1.3l1.1 1.1l0.2 1l0.9 1l1.1 0.9l1.3 0.8l1.3 -0.2l1.1 1.4l0.5 2l1 0.7l-0.2 1.1l0 1.6l0.5 1.2l-0.1 2.4l-1.7 1.1l-1.9 -0.8l-1.4 0.5l7.5 37.2l0.7 1.8l5.1 28.9l-30.7 5.6l3.5 17l-2.2 0.4l1.5 1.8l1.3 2.9l1.1 2.7l-1.8 0.5l-1.6 1.3l-0.7 1.7l-0.7 1l-1.9 1.9z"/><path data-zip="04444" d="m474.9 928.3l5 28.4l11.5 -2.7l3.2 -0.7l25.8 -6.2l7.7 -0.8l-0.2 -1l7 -1.8l-0.8 -1.9l0.2 -1.4l0.6 -1.1l0.9 -1.1l0.5 -1l0.2 -4.9l0.3 -1.8l1.3 -2l1.1 -0.7l1.3 -0.7l0.8 -1.7l1.9 -1.5l1.3 -0.9l1.8 -1l1 -0.8l0.3 -2.1l1.3 -1.7l-2.6 -1.8l-1.8 0.3l-2.2 0.4l-1.4 -0.2l-1 0.4l-4.6 0.9l-4.7 1l-3.2 0.6l-12.8 2.4l-0.2 -1l-1.8 -1l-1 -1.6l-1.3 -0.7l-1.4 0.6l0.6 1.7l-1.2 1l-0.1 1.5l-2.1 1.2l-2.1 0.4l-8.8 1.6l-20.2 3.6z"/><path data-zip="04448" d="m544 724.9l3.7 19.1l1.4 0.4l1 -0.1l1.3 -0.4l1.8 -1.8l2 -2l1.1 -0.5l1.6 0.9l0.6 1.7l2 0.1l-3.9 9.3l-1.3 3.2l-1.8 0.4l0.6 -1.3l0.4 -1.5l-0.8 -4.9l-0.8 -3.7l-1.4 0.8l-2.4 0.5l-1 -0.1l2.1 10.8l2.8 13.4l3.8 -0.7l18 -3.6l-3.6 7.1l-0.6 1.6l-0.4 4.5l-0.2 1.1l-0.7 2.1l-0.7 2.3l1.9 -0.6l-0.2 1.1l1 0.1l1.2 0.9l1.2 1.7l1.6 0.4l1.3 -0.9l1.1 -0.5l0.8 -1.4l-0.1 -1.5l-0.3 -1.7l0.1 -1.9l-0.5 -1.8l-0.1 -1.1l1 1.1l1 2.3l0.8 1l1.3 -0.9l2.2 -0.6l0.1 1.3l-1 0.9l0.2 1l0.5 1.3l0.3 1.1l0.8 1.3l1.4 1.4l0.9 2.3l-1.2 2.5l-1.5 1.6l1.3 -0.3l0.9 -1.6l0.5 -1.7l-0.3 -2l-0.4 -1l-1.6 -1.5l-1.3 -2.6l-0.9 -1.6l1.4 -0.9l0.4 -1l1.1 -1.3l0.4 -1.5l0.8 -1l0.5 -2.1l-0.2 -1.9l-0.4 -1.4l-0.6 -1.5l-1.3 -1.6l-1.6 -1.1l-1.3 -2.3l-0.6 -1.5l-1.2 -1.5l0.1 -1.6l-0.2 -1.8l-0.5 -1l-0.1 -1.2l0.2 -2l1 -1.1l0.2 -1.2l0.8 -1.3l0.1 -1.7l-0.3 -1.4l0 -1.2l0.6 -2.3l0.5 -1.5l0 -1.6l-0.1 -1.3l0.1 -2l1.4 0.3l1.2 -0.4l0.7 -1.6l-0.9 -1.4l-1 -0.5l-1 1.3l-0.8 2.3l-1 1.1l-3.3 0.8l-4 6.5l-0.2 1.4l-0.5 -1l0.4 -1l2 -3.7l1 -2.6l1.5 -6.6l-7.6 -3l0.3 -2l-1.1 -2.4l-0.3 -1.5l0.7 -1l0 -1l5.4 -2.2l3.9 -0.9l2.1 -0.5l-1.3 -7.2l-2 1.6l-1.1 0.7l-1.2 0.5l-1.5 0.4l2 -0.7l1 -0.5l1.4 -0.9l6.4 -4.9l1.9 -1.1l0 -1.6l-1.1 -1.1l-0.4 -1.4l0.1 -1.1l-0.6 -1.2l1.6 0.7l-0.6 -1.9l0.5 -1.7l-1 -0.5l-0.1 -1.2l-0.3 -1l0.7 -1.2l1 -1.3l0.3 -1l-0.3 -1.1l-1.2 -0.9l-0.3 -1.9l1.4 -1.8l-0.7 -1l-1.3 -0.6l0.3 -1l-17.4 4.3l-19.8 4.8l1.7 0l0.4 1.9l-0.5 1.6l-0.7 1.6l0 1.6l0.7 1.3l0.1 1l-1.4 -0.3l-1.3 0.2l-0.3 1l-1.3 -1.5l-1.3 0.4l-0.4 1.6l0.2 2.6l0.4 1.1l0.4 1.5l-0.4 1.1l-0.3 1.5l0.2 1.8l0.4 1.3l-0.2 1l-0.6 1.7l0.3 1.7l1 1.4l1.1 2.5l1 1.9l1.5 1.6l-5.2 1.7z"/><g data-zip="04457"><path d="m594.6 724.4l-1.2 1l21.3 13.7l6.1 -1.4l9.5 -2.2l1.1 1.1l0.4 -1.4l22 -5.4l3.4 -0.8l-6.8 -30.9l-1.2 -0.7l-17 -10.6l-1.4 0.1l-1.4 1.3l-2.2 1.6l-0.8 1.5l-1 0.6l-1.6 1.9l-1.5 0.1l-1.4 1.6l-1.3 2.2l-0.4 1.6l-0.3 1.3l0.3 1.4l-0.4 1.2l-1.1 2l-0.3 1.3l-0.9 1.6l-1.4 0.4l-1.1 0.5l-1 0.2l-1.3 0.8l-1.2 -0.2l-1.1 0.5l-1.4 1.9l-1.9 1.7l-0.8 1.1l-1.4 0.8l-1.4 1.6l-0.8 1.6l-1.2 1.5l-1.1 0.3l-1.1 0.2l-1.1 0.1l-0.7 1l-0.5 1l-1.1 0.8z"/><path d="m573.9 745.6l0.5 1l0.2 -1.4l3.3 -5.9l4 -1.4l1 -1.1l0.8 -2.3l0.7 -2l0.3 -1l0.5 -1l1.2 -1.5l1.2 -0.7l1.6 0l1.4 -0.9l1.2 -1.1l1.2 -1.8l1 -0.8l1.7 -1.3l0.5 -1l1.3 -1.1l0.9 -1.2l0.7 -1.2l2.4 -0.8l1.5 -1.6l1.2 -1.2l1.5 -1.2l0.5 -1l0.6 -1l0.9 -1.3l1.3 -1.2l1.2 -0.7l0.8 -1l2.7 -1.2l0.3 -1.1l-0.4 -1.1l0.6 1l0.6 1.2l1.8 -0.4l1.1 -1.1l0.7 -1.1l0.2 -1.2l-0.3 -1.4l0.5 -1.1l0.2 -1l0.5 -1.7l0.6 -1.1l0.7 -1.4l1.3 -0.9l1.5 -1.2l1.1 -1.2l1.2 -1l1 -0.5l1.3 -0.8l1 -0.9l1 -1l1 -0.3l1.1 -0.9l0.7 -1l0.8 -1.2l1.1 -0.8l1.1 -1.1l1.5 -1.5l1.4 -0.9l1 -0.6l1.4 -1.3l1.1 -0.6l0.5 -1l0.7 -1.2l0.3 -1l1.4 -1.2l0.8 -1.2l1.8 -1.7l1.3 -0.4l0.3 -1.4l0.8 -1.4l1 -1.1l0.9 -1l-0.3 -1.1l0.3 -1.3l-0.6 -2l-0.2 -1.2l-0.2 -1.3l-0.5 -1l-0.4 -1.1l-0.1 -1l-0.5 -1.2l-1.1 -2l-0.6 -1l-1.1 -1.1l-1 -1.6l-1.1 -1.2l-0.9 -1.1l-1.3 -0.9l-1 -0.9l-1 -1.6l-1 -0.5l-2 -1l-1.4 -0.6l-1.2 -0.4l-25.8 5.6l6.9 30.7l-1.6 0.4l-14.5 2.3l-4 1.6l-0.6 1.9l-0.1 1l0.1 1.9l0.5 5.8l-0.1 1.2l-0.3 1.7l-1.6 5.6l-1.1 3.6l-1.1 3.1l-0.3 9.3l-0.1 1l-0.4 1.3l-0.8 1.2l-10.6 11.4l-1.1 1.8l-1.7 7.4l-0.6 1.7l-2.4 4.6l-0.4 1z"/></g><path data-zip="04461" d="m581.4 858.5l0.8 1.6l1.5 1.9l0.7 1.1l-1.1 1.3l1.2 1.8l2 -0.4l15.4 -3.1l0.6 1.7l0.8 1.2l1.4 1.2l1.5 1.5l0.2 1.1l0.4 1.5l0.9 1.8l1 -0.6l-0.8 -1.2l-1.5 -2.6l-0.1 -1.2l-0.7 -1l-1 -1.1l-0.3 -1.6l-0.6 -1.2l4.8 -0.9l1.5 1l1.3 1.5l-0.5 1.4l0.1 1l-1 0.9l1.4 1.2l0.5 1.4l0.8 1l0.8 2.1l2.1 -0.1l1.3 1.1l1.8 1.9l1.1 1.9l1.3 0.3l1.1 0.9l0.8 1.3l1.2 0.5l-2.9 -16l-3.3 -18.4l-0.5 -3.7l-0.6 1l-1.4 0.7l-0.8 1l-0.5 -1.2l-1.2 -0.8l-0.3 -1.1l-1.7 -1.8l-1 0l-1.8 -0.1l-1.3 0.8l-1 -0.2l-0.6 -1.5l-1.4 -1.2l-0.7 -1.7l-0.7 -1l-0.1 -1l-0.5 -1.2l-0.1 -1.7l-1.1 0.2l-1.8 0.7l-2.5 1.2l-1.3 -3.8l-7.2 1.4l-5.3 1.1l0.8 1.4l0.3 1.4l0 1.1l-0.2 1l0.1 1.7l0 1.3l-0.2 1.5l0.9 2.7l0.6 1.7l-0.1 1.2l0.3 1.2l-1.4 1.7l-0.4 1.1l-1.1 1.6l0.3 1.3l0 1.1l0.1 2l-1 1z"/><g data-zip="04462"><path d="m405.5 349.6l-0.1 1.8l0.4 1.2l1.2 1.3l1.2 0.7l1.2 0.4l1 0.7l2.5 0.6l1.7 1.2l1.5 1.3l1.1 1.5l1 -0.2l1.1 0.6l0.3 1.3l0.1 1.3l-0.2 1.6l1.6 -0.6l1.3 -1.2l1.5 0.3l2.8 4.9l0.8 1.6l1.4 1.6l1.5 2l2.5 2.3l1.1 0.6l2.2 1l3.4 1.5l2.3 1l0.3 -1.3l1.7 -1.7l0.5 -2.9l0.7 -1l0.3 -1.7l1 -0.8l-0.2 -1.3l1.4 -0.3l1.3 -1.5l0.8 -1.6l-0.2 -1.3l1.8 -0.6l1.2 -0.6l0.6 -1.7l0.7 -1.3l0 -1.2l0.3 -1.2l0.8 -2.1l1.4 -1.4l0.3 -1.6l1.8 -0.8l0.6 -2.2l1.1 -1.4l0.6 -1.6l1.3 -2l-0.2 -1.8l-0.3 -1.1l0.4 -1.3l1.6 -0.9l0.8 -1.6l1.7 -0.9l1.7 -1.2l1.2 -0.5l1.6 -1.2l1.6 -0.4l-0.2 -1.2l-1.1 -0.4l0.1 -1l0.6 -1.7l-1.1 -1.3l-2.8 0.3l-1.5 1.1l-1.1 -0.1l-1.2 0.8l-1.3 -0.5l-1.2 -1.4l-1.1 -1.1l0.5 -1l0.2 -1.2l-0.6 -2l-0.8 -1.5l-0.6 -1.2l-0.8 -1.3l-0.1 -1.2l-1 -0.6l-1 1.4l-1.4 0.7l1.2 0.4l-0.7 2l-0.8 1.4l-1.4 0.7l-1.1 -0.3l-0.7 -1.1l-1.1 -0.7l-1.7 0.4l-1.1 -1.4l-2.4 0l-1.8 -1.5l-1.9 -0.9l-1.4 -0.1l-1.2 0.2l-0.6 -1.2l-0.9 -1.1l-2.4 0.4l-6.6 -0.2l-2.3 -1.2l-0.5 -1.7l-1.5 -0.2l-1.1 0.1l-1 1.1l-0.4 1.1l0.3 1.2l0.2 2.2l-0.2 1.1l-0.2 1.1l-1.3 1.9l0 1.2l0 1.2l-0.9 1.7l-1.3 0.7l-0.3 1.3l-0.3 1.2l-2 -0.8l-1.6 0.9l-1.3 1.4l0.1 1l1.2 0.4l0.4 1l-1.3 2.5l0.1 1.2l-0.3 1.2l-0.8 1.2l-0.2 1l-1.1 1.1l-0.5 1.6l-0.7 1.4l-1.6 1.1l-0.6 1.6l-0.6 1.3z"/><path d="m389.9 597l1.8 0.1l1.8 0.3l1.2 -0.2l1.3 -0.3l1.4 0.5l1.3 0l1.1 0.5l1.4 0l3.2 -0.2l1.2 0.1l1.7 0.7l2.6 1.4l1 0.8l1.5 1l1.4 -1.8l0.2 -1.4l0.8 -1.7l2.1 -0.3l1.7 0.6l1.6 0.7l1.6 -0.5l1.9 -0.5l1.8 0.2l1.8 0l2.1 -1.3l2.1 -0.3l1.5 -0.9l1 0.2l-0.3 -1.9l0.4 -1.1l1.1 -0.8l0.5 -1.4l0.3 -1.6l-0.1 -1.1l-0.2 -1.7l1.1 -0.9l0.7 -1.2l1.2 -0.4l1.5 -0.2l0.2 -1.5l0.6 -1.2l0.9 -1.8l-1 0.1l-1.8 0l-0.1 -1.1l2.9 0l0.1 1.1l1.5 0.7l1.4 -0.4l1.2 -0.8l1.4 -0.8l1.5 0.3l1.1 1.5l-0.1 1l1.1 2.1l0.4 1l0.4 1.2l0.7 1.2l0.3 1.5l1 1.6l0.9 1l0.4 1.3l0.8 1.2l0.8 1.3l-0.3 1.1l1.9 0l1.9 0.2l1.2 0.2l3.2 1.4l1.5 -0.1l1.7 0.2l1.1 0.6l1.8 1.3l-1 2l1.1 0.4l0.8 -1.3l0.6 1.1l1.7 1.9l1.3 0.6l1 0.4l1 0.8l1.4 0.9l1 0.6l1.8 0.3l1.4 0.2l1.2 -1l1.8 0.1l1.8 -0.8l1.5 0.6l-0.9 -2.4l-0.1 -1.9l0.8 -1.6l2 -0.7l2.5 0.1l1.2 -0.1l1.9 0.1l1 0.2l1.5 0.8l1.2 -0.7l0.7 -1.3l-2.7 -3.6l-2.6 -2l0.5 -1.3l3.1 2l1.2 1.1l0.4 1.1l1.6 0.5l1.3 -0.4l0.5 1l1.5 -0.5l-0.2 1l0.7 1l1.3 1.1l0.8 1.1l1 -0.7l-0.4 -1.6l1.5 0.2l1.1 0.1l1.9 0.9l1 0.8l0.7 1.3l1.2 -0.5l0.7 1.2l1 1l0.3 1l-13.1 4.2l2 8.4l0 4.1l-0.2 15.8l-3.2 24.4l22.2 -4.3l4.2 -1l6.4 29.8l1.4 7.7l10.7 -2.5l19.8 -4.6l-3.9 0.8l-3.8 -22l-5.7 0.9l-1.4 -9.9l10.7 -1.9l0.1 -2.7l0.8 -1l1.2 -1.2l1.2 -0.5l0.1 -1.1l0 -1.2l-0.6 -1l0 -1.1l0.5 -1l0.4 -1.1l0.5 -1l1.2 -0.9l1.2 -2.2l0.5 -1.4l1.6 -0.4l1.4 -0.4l2.4 -0.4l0 -1.5l-0.6 -1.8l-1.3 -2.1l-0.3 -1.2l-0.3 -1l0.2 -1.6l-0.5 -1.1l-1.4 1l-1.5 0.1l-1.1 -1l-1.4 1.1l-1.1 -1.3l-1.6 -0.7l-0.3 -1.4l-0.5 -1l-1.1 -1.3l0 -1l-1.2 -2.5l-1.1 -0.5l1.6 -0.3l1 0.3l0.6 -1.1l0.9 -1.7l2.4 1.7l0.4 -1.2l1.5 1.1l0.6 1.5l1.3 1.4l0.7 1.3l1.2 0.7l1.7 -1l4.9 -1.1l6.6 0.4l1.8 0.3l1.3 -0.4l1.2 0.6l-0.9 -1.4l-0.7 -1.4l-0.2 -10.9l11.6 0.3l-0.7 -1l-0.4 -1.1l-1.5 -2.5l-0.2 -1.1l-1 -0.9l-1.1 -0.9l-0.2 -1.6l-0.9 -1.3l-1 -0.9l-1.1 -1l-0.8 -1.3l-1 -0.2l-2.4 4l-3.6 3.5l-1.8 1.8l-2.2 -1.8l-4.3 -2.5l-0.3 -1.5l0.1 -1.2l0.3 -1.3l0.5 -1.5l-0.5 -1.1l0.3 -2.3l0.5 -1.1l0.7 -1.8l0.4 -1.2l0.1 -1.9l0 -4.5l0.1 -1.7l0.6 -2.1l0.5 -2l0.7 -2l0.4 -1.6l-0.3 -2.8l-0.2 -1.1l0 -1.5l-0.3 -1.2l-0.1 -1.4l0.2 -1.8l-0.1 -2.7l-0.4 -1.1l-0.1 -6.8l-0.1 -1l0.6 -1.4l0.9 -1l1 -0.7l1 -1.4l0.1 -1l0.1 -1.4l1 -2.2l1.6 -0.1l0.7 -1.4l-0.2 -1.1l0 -2l0 1.2l-0.2 1.3l-0.7 -2.7l-0.1 -1.7l-0.7 -2l0.3 -2.2l-0.3 -1.1l-0.7 -1.6l0 -1l-1.4 0l-1 0.3l-1 1.3l-1.1 0.7l-2.1 0.5l-1.9 -0.6l-0.2 -1l-1.8 -2.3l-1 -1.3l-1.7 -1.1l-0.4 -2l-1.1 -0.8l-1.7 -0.9l-1.5 -2l-0.4 -1l-1.1 -1.6l-2.9 -1.8l-2.4 -1.3l-0.9 -1.2l-1.1 -0.4l-3.2 -1.1l-1.8 -1.5l-0.6 -1l-1.5 -1.3l-0.9 -1.2l-1 -0.5l-1 -1.3l-1.1 -0.8l-1.3 0.8l-1.9 1l-1 0.5l-1 1l-1.5 0.7l-1 0.6l-0.2 -121.3l-1.4 0l-1.5 -1l-1.7 -0.2l-1.3 -0.2l-0.2 -1.7l0.2 -1.2l-1.1 0.1l-1.2 0.4l-1.7 0.1l-1.1 0.8l-2 0.9l-2.3 0.2l-1.2 0.4l-1.3 0.5l-0.5 -1.2l-1.4 -0.2l-1.6 -0.3l1.1 0l1.3 0.8l0 1.3l-0.7 1l-1.7 0.6l-1.3 -0.1l-2.4 1.3l-1.3 -0.1l-1.7 -1l-1.7 -0.9l-1.7 -0.7l-1.1 -1l-1.5 -0.4l-1.3 0.3l-1.5 -0.2l-2 0.1l-0.1 -1.1l-1.5 -1.8l-1.9 -0.7l-0.3 -1.2l-1.2 -0.6l-1.6 -0.2l-2.3 1.1l-1.6 0.9l-1.2 0l-1.5 0l-1.8 0.6l-2.6 1.3l-1.7 1l-2.1 0.6l-1 0.2l-2 1.1l-1.5 0.3l-1.3 -2.77556e-17l-1 0.2l-1.7 0.5l-1.7 0.2l-1.5 -0.6l-0.4 -1.4l-1.2 -0.1l-1.3 0.8l-1.7 0.1l-2.3 0.6l-2.2 0l-1.2 1.2l-2.4 0.5l-1.3 0l-1.7 -0.1l-2.5 0.3l-1.5 0.5l-0.5 1.1l-0.6 1.1l-1.8 0.8l-1 0l0.3 1.5l-2.1 -0.2l-2.4 0.7l-1.3 -0.5l-1 1l-1.3 -0.6l-2.4 0.2l-0.6 1.2l0.9 1.4l0.7 1.4l-0.2 1.2l-1.1 1l-0.3 1.3l-1.3 1.8l-1.9 1l-0.9 1l-0.3 1.1l2.1 -0.4l-0.5 1.6l-0.6 1.3l0.4 1l0.2 1.3l-1 1.5l1.3 1.8l2.2 1.4l1.3 0.5l0.9 1.6l2.3 1.8l1.1 0.3l1.2 0.5l2.3 -0.2l2 -0.4l1.6 0l1.7 -0.9l1.2 -0.4l2.4 -1.7l2.3 -1.2l1.2 0.2l2.1 -0.1l2.2 0.3l-0.8 1.4l-1.9 1.2l-1.1 0.2l-1.9 1.3l-1.1 1.2l-0.7 1l-0.9 2l-2.3 -1.7l-1.3 1.1l-0.8 1.3l-1.7 0l0 1.3l-0.1 1.3l2.8 0.4l1.1 -0.2l-0.8 1.5l-2.7 2.9l1.2 1.2l1.4 0.2l1.4 -0.2l1.3 -0.1l0.1 1.1l-0.3 1l-0.5 1.3l-1.1 0.7l-1 1.5l1.8 1.3l2.8 0.3l-0.2 1.6l0.6 2.4l1.3 0.4l1.9 -0.4l1.3 0.3l1.3 -0.4l1.5 0.4l-1 1.1l1.3 0.2l0.9 -1.6l0.8 -1.2l1.3 -1.3l1.2 -1.1l-0.6 1.9l-1 2l-1.7 1.7l-1 1.2l-1.7 0.7l-2.2 -0.4l-1.6 -0.2l-2.5 0.5l-1.3 -0.4l-1.1 -0.4l-2.4 -0.3l1.8 -0.9l0.6 -1.6l-1.3 -1l-0.4 -1.1l0 -1.4l-1.5 -1.5l-0.4 -1.2l-0.1 -1l-0.7 -1.6l-0.6 -1.6l-0.3 -2l-1.9 -1.3l0.5 -1.7l-1.7 -1.5l-1.8 -1.3l-1.2 -0.7l-1.9 -1.3l-1.7 -1.6l-1.2 0l-1.9 -1.6l-2.1 -1.1l-0.5 -1l-1.7 -0.7l-1.5 -0.5l-1.9 -0.1l-1.1 0.3l-1 0.2l-0.4 1.6l1.2 0.2l0.2 1.1l0.3 1l-0.9 1l-1.1 0.4l-0.4 -1.2l-1 -0.6l-0.8 -1.3l0.2 1.6l0.4 1.8l-1.1 0.7l-1 0.3l0.7 1l1.4 0.8l1.3 0l1.1 1l0.1 1l0.6 1l-0.3 1.7l0.3 1.5l-1 1l-1 1.1l-0.7 1l-1.1 0.9l1.4 -0.4l2.4 -0.5l1.6 -0.4l3.8 -0.8l3.6 -0.6l2.5 -0.7l2.1 -0.7l1.7 -1.4l1.1 -0.5l1.5 0.6l2 0.8l1 0.2l0.2 2.5l1.2 1.3l0.4 1.1l0.2 1.7l1.8 2.2l-0.3 1.8l1.4 1.6l-1 1.5l-2.8 1.2l1.7 1.6l1.9 1.3l1.7 0.5l-2 4.3l2.1 2.1l0.6 4.4l1.1 0.1l1.3 -1.1l2.6 -2.2l2.1 0.1l0 1.4l1.5 1.3l1.6 1.2l-0.4 1l-1.7 0.9l-0.5 1.1l3.1 -0.3l1.1 -0.3l2 -0.1l1.6 1.1l0.4 1.4l1.7 0.8l-8.9 3.3l-1.3 0l-1.9 0.4l-4.7 2.2l0.8 5.2l0 2.3l1.3 -0.2l1 -1l1.1 -1.2l1.2 -0.8l1.3 -1.2l2.2 0.3l2.6 0.4l-0.4 2.1l-1.1 0.4l-0.9 1.8l-0.7 1l-3.1 0.3l-0.7 1.1l-1.3 3.9l4.5 0.1l0.2 1.7l-0.7 1l-0.5 1.3l-0.1 2.5l0.1 2.2l-0.1 3.1l-0.1 1.5l-0.2 1.4l-0.1 2.1l0.3 1.5l-0.3 1.7l-2 0.2l-1.3 1.1l-1.2 -0.3l-1.6 0.8l-1.2 -1l1 -2.2l0.4 -2.1l-0.1 -1.7l-0.1 -1.5l-0.7 -1.1l0.3 -1.6l-0.3 -1.7l-0.9 -1l0.8 -1.2l1.1 -0.3l-0.2 -1.6l0.6 -1.5l-0.1 -2.9l-0.4 -2.3l0.1 -1.2l-0.2 -1.8l0 -1l-0.6 -2.1l-1.7 -0.6l-3.8 -0.1l-3.5 0.9l-0.8 7.4l-1.2 0l0 2.2l0 1.5l-0.1 2.4l-0.3 1.8l0.2 1.9l0.3 1l0.8 1l-0.1 7.9l1.3 1.9l-4 -0.2l-2.2 6.2l0.9 1.6l0.4 1l1.2 0.8l-1.1 1.7l0.6 1.5l1.5 1.2l0.6 1.1l-0.7 1.6l0.3 1.6l1.9 1.4l1.6 1.1l1 0l1.1 -0.3l1.4 1.4l1 1l1.8 0.5l0.5 1.1l1.6 0.6l-0.4 1.2l-1.5 0.4l-4.7 -1.8l-1.4 -0.1l-1.8 -0.4l-1.5 0.4l-1.8 -0.6l-0.3 1l2 0.7l1 1.2l1.2 1.2l-0.5 2.5l0.2 1.7l-0.5 2.2l-1.5 0.1l-1.7 4l-0.7 1.5l-1.8 1.8l-1.1 0.9l-1.2 2.3l-0.7 1.9l-1.7 0.4l-1.7 1.3l-1.3 0.6l-1.4 -1.3l-2.8 -2.2l-1.6 -1.4l-2 -0.4l0.4 1.5l0.8 1.4l-1.2 1.1l-0.6 1l0.1 1.3l-1 2.1l0 1.6l-1 0.6l-0.2 1.2l-0.7 1.1l-0.3 1.1l-1.5 0.3l-1.5 1.8l-1.7 1.1l-0.4 1.5l-0.7 1.5l-1 1.6l-0.4 2.1l-0.4 2l-1.8 1.3l1.4 0.9l0.7 1.1l1.3 -0.2l0.6 1.2l0.9 1l1.2 1l0.6 1.6l-0.1 2.5l-1.4 -0.3l-1.4 0.2l-1.7 -0.9l-1.9 -0.6l-1.1 -0.5l-1 0.7l-1 0.2l-0.2 1.4l-1.2 0.2l-2.7 0.4l-1.3 0.5l-1.2 1.2l-1.2 1.2l-0.9 1l-1 0.7l-2.3 1l-0.6 2.1l-0.6 1.2l-0.5 1.3z"/></g><path data-zip="04463" d="m474.2 765.3l0.8 2l0.3 1.2l1 0.5l1.4 0.3l1.4 -0.4l1.5 -0.3l1.6 0.1l1.7 0.1l-0.1 -1.1l1.7 -0.1l1 -0.4l6.6 -2l5.4 27.9l2.5 -0.5l0.5 2.7l28.8 -5.4l-6 -28.7l25.8 -5.4l-2.1 -10.8l-0.2 -1.2l-3.7 -19.1l-6 -32.1l-1.4 -7.7l-10.7 2.2l-4.7 0.9l-10.3 2.2l1 1.4l1.7 3.7l1.9 2.5l0.5 2.4l-0.2 1l0.1 1.4l-0.2 2.6l-0.3 1.4l-0.7 1.6l-0.3 1.2l-0.6 1.4l-0.1 1.2l-0.5 2.2l0.2 1.2l0.7 1.2l0.5 3.1l-1.4 -1.1l-1.6 -0.3l-1 0.6l-1.1 1.4l0.8 10.2l-20.5 4.3l1.5 1.4l1.4 2.3l0.8 1.2l6 4.2l1.3 1.4l1.8 1l-1.2 -0.4l-2.1 -2l-1.6 -1l-1.6 -0.4l-2.1 -1.7l-1.7 -1.6l-1.4 -1.9l-0.9 -1.7l-1.1 -0.6l3.9 6.8l1.4 1.8l-2.1 -0.5l-1.7 0l-1.7 -0.5l-1.4 -1.2l-1.4 0l-1.5 0l-1.5 -0.7l4.4 23.1l-1.8 0.3l-1.5 -0.3l-2.2 0.4l-1.3 0.7l-1.3 1.1l-1.7 -0.7l-1.2 -0.3l-2.3 0z"/><path data-zip="04468" d="m533.8 806.8l3 15.6l3 17.6l1.9 10.1l-1.4 0.5l-1.2 0.1l-0.8 1.2l-1.6 1.9l4.4 0l-0.1 1.5l0.9 1.2l1 0.7l0.4 1l-0.1 -1.6l1.6 1.7l1.6 1.7l0.7 1.4l0 1.5l0 1.4l0.3 1.3l1.2 0l1.4 0.8l1.6 0.7l1.1 1.4l0.9 2.9l0.3 1.4l12.1 -2.5l4.6 1.8l0.6 -2.9l1.5 2.2l0.2 1.4l1 0.4l0.7 -1.7l4.5 -0.9l0.3 2.2l0.2 1l4.8 -0.2l0.2 -1l0 -1.1l1.5 -1.9l0.2 -1.5l-1.2 -1.4l-1.2 -1.8l1.1 -1.3l-0.7 -1.1l-1 -1l-1.2 -1.7l0.7 -1.5l0.3 -1.4l-0.2 -2l-0.3 -1.3l1.1 -1.6l-0.1 -1.3l0.7 -1.5l-0.5 -1.4l-0.2 -2l-0.4 -1.5l-0.9 -2.2l-0.2 -1.2l-0.5 -1.6l0.2 -2.1l0 -1.3l-0.3 -1.5l-0.8 -2.6l-0.6 -1.1l-0.8 -1l-1.5 -2.1l-0.4 -1.2l-0.2 -1l0.1 -2.4l0.5 -2.3l-0.1 -1.1l-0.4 -1.6l-0.6 -1.3l0.2 -1.5l0.4 -1.4l0 -2l0 -1.3l0.7 -1.6l0.5 -1.8l-0.4 -1.4l0.4 -1l1.8 -1.3l1.9 0.2l1.1 -2.2l-0.6 -2.2l0.1 -1.1l0.6 -1.2l1.3 -0.3l1.4 -1.6l0.6 -2l1.1 -1.7l-0.2 -2.2l-2 -2.3l-0.8 -1.3l-0.3 -1.1l-0.5 -1.3l-0.2 -1l1 -0.9l0.8 -1.4l-2.2 -2.77556e-17l-1.4 1.2l-1.1 -0.6l-1.6 -1.9l-0.4 -1.7l-0.4 1.3l0.5 1.8l-0.1 1.9l0.3 1.7l0.1 1.5l-0.3 1l-1.9 0.3l-0.3 1.4l-2.3 -0.3l-0.5 -1.1l-1.1 -0.7l-0.9 -1.2l-1 -0.2l-1.6 0l-0.6 1.8l-0.1 1l0.1 1.1l2.2 9l0.2 1.1l-13.7 3.4l-13 3.4l-9.9 2.1z"/><path data-zip="04469" d="m575.6 872.9l0 1.8l-0.3 1.4l1.7 -0.6l1.1 -0.5l0.1 -1.9l-1.2 0.2l-1.4 0.3z"/><path data-zip="04473" d="m543.6 874.5l1.7 8.9l12.6 -1.8l11.1 11.4l1.4 0l1.2 -1l1.2 -1.2l1.7 -1.1l0.8 -1l0.3 -2.3l1.4 -2.9l1.1 -2.1l1.5 -2l1.4 -0.9l1.8 -2.1l1 -1.8l0.2 -1.3l-4.8 1l-0.6 -1.7l-0.3 -2.2l-4.5 0.9l-0.7 1.7l-1.8 -0.6l-1.4 -0.4l-4.7 -1.6l-11.7 2.3l-6.5 1.4l0.3 1l-1.2 0.1l-0.7 -1.7l-1.5 0.6z"/><path data-zip="04489" d="m570.1 871.6l1.5 0.9l0.6 -1.2l-0.7 -1.7l-1.5 2z"/><path data-zip="04496" d="m494.6 953.2l-3.2 0.7l3.6 17.8l1.9 -1.7l2.8 1.7l3.4 1.4l0.2 -1.4l1.2 0.1l-0.2 1.1l1.2 -1l1.2 0.3l0.6 -1.1l1.5 -1l1.1 -0.7l1.3 -0.8l1.6 -1.5l1.1 0.7l1.1 -1l1.6 -0.9l1.6 0l1.7 0.1l1.9 0.1l1.5 -0.7l1.2 0.9l0.9 1.4l0.7 1.3l1.3 1.5l1 1.4l4.3 2l-0.4 -1.1l-0.1 -1.2l0.1 -1.3l2 -3.4l1.2 -2.6l0.4 -2.2l0.3 -1l1.6 -2.8l0.6 -1.5l2.2 -1.5l0.3 -1.6l-0.4 -1l-0.4 -1.4l-0.1 -1.3l-0.9 -1.3l-3.8 -1.2l-0.7 -1l0.4 -1.3l-0.3 -1.6l-7 1.8l0.2 1l-7.5 1.7l-25.5 5.1z"/><g data-zip="04530"><path d="m292.2 1199.9z"/><path d="m274.3 1230.5l0.3 1.2l1.6 2.1l1.2 1.2l2 0.9l0 2.4l-0.1 1.1l0.1 1.4l0.2 1.3l0.5 2.4l0.8 2.9l-0.3 1.2l1.5 -1.6l2.4 -3l1.3 -1.3l0.7 -1.6l1.1 -1.3l0.6 -1.3l0.6 -1.3l0.6 -1.9l0.1 -1l0.5 -1.2l-0.3 -1.1l0.3 -1l1.2 -0.3l1.3 -0.9l-0.3 -1.4l0.6 -1.3l1.8 -0.8l1 -1l1.1 0.6l1.7 0.1l1 1.9l-0.4 1l0.5 1.6l-0.1 1.7l-0.4 2.3l0.5 2.4l0.1 1.3l-0.7 2.1l-0.1 1.3l-1.1 2.2l-0.6 1.9l-0.3 1.1l0 1.4l1.2 1.1l1.1 1l1.1 2.1l0.7 1.3l1.3 -2.1l0.7 -1.5l0.2 -1.3l0.2 -2.2l0.4 -1.2l0.7 -1.1l0.6 -1.9l1.5 -2.5l-0.3 -1.3l-1.3 -1.1l0.2 -1.9l0.7 -1.8l1.1 -1.1l1.2 -0.3l0.1 -1l0 -1.3l-1.1 -0.6l0.1 -1.2l0.9 -1.8l1 -2.1l-1.7 -0.9l-0.5 -1.1l-1.2 -0.7l-1.1 -1.4l-1.4 -1.2l-1 -0.7l-1 -1l-1.2 -1.3l-1.3 -0.3l-1 0.6l-1.5 0.7l0.2 -1l-0.2 -3l0.2 -2.5l-0.4 -1.9l0 -4.7l-1.3 -1.6l-0.7 -1l-1.1 -0.4l-1.2 -0.3l-0.7 -1l1.2 -3.6l-0.4 -1.4l0.1 -1.6l-1.4 -1.4l-1.1 -0.7l-3.7 0.9l-2.9 1.2l-0.6 1.3l0 1.2l-0.2 1.3l-0.7 2l-1.5 2.2l4.3 3l-0.6 2.4l-0.3 1.1l-0.5 1.1l-0.6 4.2l-0.8 2l-0.5 2l-1.2 2.2l-0.9 1.9l-0.7 1.8l-1.9 1.8l-0.7 1.6l-0.9 4.3z"/></g><path data-zip="04538" d="m331.3 1231.3l0.2 2.2l0.4 1.3l0.6 1l1.5 -0.6l0.9 1.3l0.1 1.5l1.2 -0.1l1.3 -1.1l0.6 -1.2l0.2 1.6l2.3 -0.4l-0.6 1.8l-0.3 1.1l0.2 1.1l0.3 1.3l1.1 0.8l0.3 1.2l1.7 -0.5l0.9 -2.9l-0.3 -1.4l-0.8 -1.2l1.2 -0.2l1.4 -0.6l0.6 -3.5l1 -0.1l-0.4 -3.4l-6.9 -1.4l-2.2 -0.3l-6.1 2.6z"/><path data-zip="04543" d="m360.8 1180.1l0.1 1.3l0.9 2.4l10.2 -1.5l3.7 0.7l2.1 -0.1l0.6 -1.1l0.9 -1.9l1.5 -0.9l1.7 -1.4l1.1 -0.6l0.3 -1.7l0.7 -2.1l0.9 -2.1l0.3 -2.6l-0.6 -2.2l-1 -1l-2.1 -1.9l-3.4 0.4l-6.7 -1l-1.4 0.9l-0.2 1l-1.7 1.5l-1.7 -0.8l-0.2 1l-0.9 1.7l0.3 1l1 0.5l1.2 0.3l-0.2 1.3l-1.1 0.7l-1.7 0.7l-1.6 1l-0.7 1.6l-0.5 1l-1.3 2.2l-0.4 1.8z"/><path data-zip="04553" d="m338.4 1179.6l2.3 2.3l15.6 10.4l1.6 -1.6l0.9 -1.1l0.5 -1.7l0.8 -1l1.1 -1l0.4 -2l0 -1.5l-1.1 -1.5l0.5 -2.5l0.5 -1.3l1.3 -1.9l0.3 -1l2 -1.6l1.7 -0.7l1.1 -0.7l0.2 -1.3l-1.2 -0.3l-1 -0.5l-0.3 -1l0.9 -1.7l0.2 -1l-1.4 -0.6l-1.6 -1.6l0.4 -1.8l0.3 -1l0.7 -1.7l0.8 -1.4l0 -1.2l-0.5 -1.2l-0.2 -1.3l0.4 -1l1.1 -0.9l-8.8 -1.7l-6.1 -4l-4.9 7.3l-1.5 1.3l-0.3 1.8l0.6 1.5l0.5 1.6l0.6 1.3l-0.9 1.5l-1.6 2.4l0.1 1.1l-0.6 1.9l-0.5 1.5l-1.6 1.7l-0.7 2.7l-0.2 2.2l-0.6 1.8l-1 1.6l-1.4 0.7z"/><path data-zip="04572" d="m384.2 1164.5l0.3 1.2l2.7 -2.2l7.8 5.4l-0.6 2.7l0.5 1.1l0.4 3.1l1.4 0.5l1.4 1.9l1 1.2l0.3 1.3l1.2 1.3l1 0l1.6 -1.3l1.4 -0.1l1.3 0.9l1 0.1l0.7 -1.2l1.4 -1.2l1.3 0.3l0.2 1.1l1.2 0.8l0.3 1.3l0.4 1l1.2 -0.7l0.5 -1.9l0.2 -1.8l0.5 -1.4l0.7 -1.2l0.8 -2.2l-0.1 -1.4l0.4 -1.1l1.4 -1.1l0.5 -1.1l1.1 0.1l1.5 -0.4l0 -1.3l0.5 -1l-0.6 -1.5l4.3 1.7l0 -4l-5.4 -11l-1.8 0.3l1.9 -12.8l-4.4 -13.8l-4 -12.5l-8.5 1.4l-8.3 -1.8l-2.5 -0.5l-4 18.7l-2.8 13.1l1.5 5.4l0.5 2.9l-1.4 1.7l-0.3 2.1l-0.8 1.2l0 1.1l-0.6 2.2l0.5 1.1l-0.1 1.4l-0.7 1.4z"/><path data-zip="04578" d="m318.6 1168.7l-7.5 11.9l11.4 2.5l-0.5 1.1l-0.3 1.1l-1.2 1.6l-0.4 1.7l-0.6 1.4l-0.9 2.4l-0.6 2.2l-0.7 3.1l-0.4 2.1l-0.1 1.3l0 1.4l0 1.6l-0.1 1.4l-0.5 2.5l0.9 1.1l3.4 1.5l-1.3 2.5l-1.4 1.8l-2 1.2l-1.2 1.3l-0.8 1.8l-2.1 2.9l1.7 2.4l0.4 1.2l0.5 1.2l0.9 1l-0.1 1.5l-0.1 1.2l0.4 1.4l1 1.6l0.2 1.3l0.3 1l2.1 0.9l2.8 -1.4l-0.5 -2.8l0 -2.2l1.4 -2.4l0.2 -1.8l0.5 -2.2l0.1 -2.6l0.8 -1.8l0.1 -2.8l0.2 -3.1l0.6 -1.2l1.1 -1.1l1.1 0.2l0.8 -1.2l0.6 -4l0.1 -1.1l0.9 -2.4l0.5 -1.5l0.4 -2.5l-0.3 -1.2l1.3 -3.1l0.6 -2l1.6 -3.9l-2.5 -0.7l0.3 -1l1.2 -2.2l1.3 -1.3l2.2 -1.5l1.2 -2.4l1.5 -0.2l1.7 -2.2l0.6 -1.8l-3.4 -2.7l-3 -2.1l0.8 -1.4l-1.6 -0.4l-4.3 -0.8l0.6 -2.2l0 -3.3l0.5 -1.1l-2.6 -0.8l0.7 -1.2l1.4 0.5l0.2 -1.1l-2.7 -0.7l1.3 -2.9l-2.8 -0.4l-1.8 3.7l-0.8 -1.1l-0.6 1.6l-4.6 9.3z"/><g data-zip="04605"><path d="m644.2 1044.5l0.2 1.3l1.4 0.6l0.4 -2l-0.8 -1.2l-1.2 1.2z"/><path d="m587.5 965.4l-3.8 0.7l15 19.1l-4.2 8.5l1.3 1.2l1.4 0.5l1.2 0.1l1.5 0.1l1 1.3l0.6 1l2.6 -0.3l1.3 0.1l1.6 0.8l1.4 1.4l2.3 1.6l2.8 1.4l11.3 5.7l4.1 3.4l3.5 0.4l2.1 0.2l0.9 1.4l1 -0.1l0.2 4.7l-0.2 2l0.9 2.7l-1.5 0.2l-0.4 2l-0.2 2.6l0.8 5.3l-0.3 1.5l-0.8 1.9l-0.3 1.7l-0.3 4.4l1 1.6l-0.6 1.6l-0.5 1.1l0.8 1.6l2.2 0.2l1.3 -0.5l1.8 -2.9l1.3 -0.7l2.8 -3.3l0.4 -3.2l-0.5 -2.8l2.4 0.8l1 1l0.8 2l1.3 0.6l2.4 0.6l1.6 -1.2l-0.6 -1l-1.7 -0.2l-0.9 -1.3l0.4 -1.5l0.9 -1l1.9 -2l0.2 -3.5l-0.3 -1.4l1.1 0.2l0.9 1.1l4.4 1.5l0.1 -1.5l0.8 -1.6l0.6 -1.3l2.2 1.5l1.2 0.2l1.9 1.4l0.9 1.2l2.3 -0.2l2 -0.5l1 -1.5l1.6 -0.6l0.5 -1.3l-0.6 -1.2l-0.2 1.1l-1.1 0.5l-1.3 -0.6l-0.1 1l-1.7 -1.7l-0.8 -1.6l-0.6 -1l0.4 -1l1.9 0.3l0.8 1l1.7 -0.6l1.6 0.4l1.3 -2.8l-0.4 -2.6l-0.3 -1.6l-0.2 -1.2l-1.4 -1.6l-0.6 -1.5l-4 -1.7l-2.2 -1.5l-0.9 -4.9l-5.8 1l-0.8 -1.2l0.5 -1l-0.5 -1.2l0.5 -1.5l-6.3 1.1l-1.6 0.3l-0.1 1.7l-0.9 1.5l-0.4 -1.8l-1.2 -0.1l-2.6 0.7l-1.1 0.2l0.3 -1.4l-2.9 -16.2l20.5 -4l5.4 -1.1l-3.2 -15l-4.3 0.8l-1.2 -2.4l-0.6 -1.4l-0.9 -1.8l1.5 -1.3l1 -0.1l-2 -3l-1.1 -1.7l-0.6 -1.2l0.1 -1.2l-1.2 -1.8l0.1 -1.7l0.7 -1.4l1.1 -0.4l0.9 1.4l0.4 1.2l1 0.2l0.5 -1.2l1.4 -0.4l1 0.6l1.1 0.3l1.3 1.4l-0.5 -1.1l1.1 -0.4l1.7 1.6l-4.1 -27.5l1.3 -0.2l-0.2 -1.4l-0.3 -1.5l1.2 -0.3l1.2 -0.6l0.5 -1l-0.4 -1.4l0.4 -1l1.1 -0.9l1.2 -1.5l0.4 -1.4l-0.8 -1.5l-0.1 -2l-0.5 -1.3l0.6 -1.4l-0.6 -1l-0.6 -1.2l-1 -1.2l-4.7 0.4l-0.7 -1.2l-0.5 -1.7l-1.6 -0.6l-5.4 -26.8l-4.7 -23.2l-1 1.5l-1.2 -0.4l-0.7 -1.6l0.2 -1.5l2.1 -1.6l-1.1 -5.1l-14.6 2.7l0.9 1.8l0.1 1.6l0.3 1l0.1 1.8l1 1.2l1 1l1 1.1l0.2 1l1.2 0.7l1.3 0.9l1.5 1.6l1 0.4l1.1 1.3l-0.3 1.5l1.3 1.5l0.6 1.5l0.2 1.2l-1.8 1.4l-1.1 1.5l-1.3 0.9l-1.3 0.8l-1.7 0.8l0.4 1.3l0.3 1l-3.2 -0.6l-2.3 -1.4l-0.6 -1.5l-1.3 -0.9l-1.3 -0.3l-2.3 0.8l-1 0.5l-1.4 0.6l-0.7 -1l-2 -1.9l-2.1 -1.5l2.3 15.8l0.7 3.8l6.8 37.4l-20.5 3.8l3.4 18.1l0.8 1l0.6 1.1l1.2 0.8l1.4 1l0.5 1.5l-0.3 2.1l0.6 1.3l-0.8 1.1l-1.4 2.7l0.5 2.7l-9.1 1.6l-1 -1l-0.8 -2.4l-0.8 -1.7l-0.6 -1.1l-0.3 -1.1l-1.4 1.2l-1.4 1.7l-0.4 2.4l0.5 2l-1.1 0.2l0.2 1.1l-14 2.6z"/></g><g data-zip="04609"><path d="m656.3 1035.3l0.4 1.9l1.1 0.3l1 -0.6l-0.4 -1.4l-1 -0.2l-1 0z"/><path d="m643.3 1056.1l16.4 -0.5l1.4 0.9l30.4 18l0.3 1.1l-0.1 1l0.7 1.6l1.1 0.8l0 1l1.1 -0.1l0.1 -1.5l-0.2 -2.1l1.1 -2.5l0.6 -1.2l1.3 1.1l0.9 -1l-0.5 -1.3l0.4 -1.9l-0.6 -1.4l0.5 -1.2l-1.2 -1.5l-0.8 -2.6l0.2 -1.9l-0.6 -2.3l-1.1 -1.6l-0.7 -2l-0.9 -1.3l-0.3 -1.1l-1.6 -2.1l-1.4 0l-1.6 0.7l-0.4 -1.1l-1.1 -1.1l-1 -0.5l-1.1 -1.1l-1.6 -1.7l-3.4 -2.8l0 -1.1l1.7 -0.8l0 -1.2l-0.4 -2.2l-0.7 -1.2l-5.2 -2.2l-1.5 0.5l-2.3 1.6l-1.7 0.2l-2.1 -1.7l-1.5 -0.8l-1.7 -1.3l-1.7 0l-1.8 2l-1.5 1.2l-0.2 1.4l0.1 1.5l-1.1 0.2l-0.2 1.5l-2.4 -0.1l-0.1 -1l-0.5 -1.1l-1.8 0.4l0.6 1l-1.6 1.2l-2.1 -0.9l0.4 1.9l0.7 1.2l0.1 1.5l0.6 1.6l1.5 0.5l0.4 1.2l-0.1 1.2l-0.5 1.7l-1 0.9l-1.7 -0.3l-0.2 -1l-1.2 0.2l-1 0.8l0.1 2.1l-1.2 1.4l-1.2 -1.4l-0.7 1.5l-2.2 1.5z"/></g><g data-zip="04614"><path d="m610.7 1070.7l-0.8 1.2l2.1 2.1l1.7 0.2l2.9 -0.4l1.5 0.4l1.2 2.5l0.9 1.4l1.9 -1.2l1.2 -1.5l0 -1.9l-1.5 -1.1l-0.8 -1.5l0.5 -2.8l-1.3 -5.3l-1.8 -4.8l-0.7 -4.3l-1.6 -1l-1.2 0.1l-1.4 1.3l-0.8 4.6l0.3 3.2l-2 4.7l-0.4 3.8z"/><path d="m569.7 1045.7l1.2 -0.9l1.2 0.4l1.8 -2.4l24.9 24l3.9 3.7l1.8 -2.5l0.2 -1.8l1.1 -1.2l1 -1.8l-0.3 -2.5l-0.8 -3.3l-2.3 -0.9l0.2 -1.8l-1.6 -2l-0.2 -1.5l-0.2 -1.7l0.3 -1.6l1 -1.3l1.4 -0.3l5.1 2l1.7 -0.2l1.2 -1.8l0.5 -1.5l1.1 -1.6l2.7 0.3l-1.3 -0.4l-1.2 -1l-2 -0.7l1.6 -0.5l2.3 -3.7l0.6 -1.5l1.5 1.7l0.9 1.8l0.2 -1.9l1.4 -0.9l0.6 -2.7l-0.1 -1.7l-27.7 -16.6l-6.2 -3.4l-1.5 -0.8l-16.3 34.2z"/></g><path data-zip="04619" d="m912.4 789.4l4.3 7l3.4 5.4l7.9 13l24.5 -15.3l5 -3.1l-1.5 -2.6l-4.1 -5.1l-3 -5l-2.5 -1.2l-5.7 -0.4l-3.1 -1.9l-3.5 1.7l-1.2 0.9l-1 0l-1.4 -1.8l-1.9 -0.9l-0.8 -2.5l-2.4 -1.5l-1 -1l-3.2 -2.1l-3.1 -0.3l-1.5 1.2l-0.4 1.5l-0.6 2.1l0.5 1.2l0.1 1.1l-1.1 0.4l-1.6 3.2l0.2 1.5l1.2 0.6l0.5 1.9l-0.8 1l-1.8 0.6z"/><path data-zip="04631" d="m975.3 861.7l-0.5 9.2l1.1 0.1l1.4 0.5l1.5 0.9l1.7 0.9l1.2 1.9l1 1.4l1.7 1.1l1.8 1l2 0.2l-0.1 4.6l0.5 1.2l2.8 0.1l-0.5 -3.4l-1.8 -4l1.3 -1.7l1.3 -0.6l0.1 -1.8l0.1 -1.5l-0.3 -1.7l-0.8 -1.2l-3.1 -1.3l-1 -1.2l-2.4 -0.9l0.1 -1.5l0.8 -1l-0.8 -1.4l-1.8 -0.1l-1.4 -0.7l-1.5 -0.2l0.2 -1.5l-1.4 -0.4l-1.7 -0.3l-0.9 2.7z"/><path data-zip="04652" d="m944.8 912.3l0 1l2.2 -0.5l5.3 13.4l6.1 15.7l0.2 -1.9l1.3 0.2l1.1 -1.7l1.1 -1.1l-0.2 -1.1l0.6 -1.9l0.7 -2l-1.3 -1.2l0 -1l1.3 -0.5l1.6 -0.5l2.2 1l2.5 -0.7l0.5 -1.4l0.2 -1.9l1.5 -0.2l0.3 -2.2l0.4 -2.5l-1.7 -1.3l1.1 -0.7l2 -0.2l0.6 -1.3l0.8 1.9l0.4 1.9l0.3 1.1l1 -0.6l2.6 -1.6l1.8 -0.2l1.6 -0.5l-1 -0.4l1 -1.4l1.8 -1.1l0.5 -1.4l0.2 -1.7l1 -0.3l2 -0.2l2 -2.8l1.8 -2.2l0.6 -1.4l2.3 0.6l2.2 -0.5l2.6 -2.5l0.2 -1l-4 -0.6l-2.1 1.2l-1.8 1.4l-1 -3.2l-0.6 -1.5l-0.3 -2.1l0.4 -2.2l-1.7 -1.9l0.7 -2.3l2.2 -1.4l1 -1l-0.8 -2.4l-0.4 -2.7l-2.8 -0.1l0 -1.2l-0.4 -4.6l-1.6 -0.1l-2.2 -1.1l-1.7 -1.1l-1 -1.4l-0.5 -1l-1.7 -1.5l-2.2 -1.2l-1.4 -0.5l-1.1 -0.1l-1.7 0.3l-1.1 0.1l-3.7 0.7l-1.8 -0.1l-1.7 0.9l-1.5 1.2l-0.9 1.4l-1.1 1l-0.8 1.4l-1.1 0.4l-1.7 0.2l-0.9 1.7l-0.3 1.2l0.5 1.7l-1.2 0l-1.2 -0.4l-1.1 0.9l-3.9 -0.1l-2 0l1.2 0l0.1 1.1l0.5 1.3l0.6 1.6l0.6 1.6l0.5 1l0.3 1.3l-0.5 1l0.1 1.2l-1 -0.9l0.1 1.2l-0.4 1.5l1.1 -0.6l0.7 1.1l-0.5 1.1l-1.5 -1l-1.1 -1.4l-0.5 -1l0.1 1.1l0.9 1.3l0.1 1.3l0.6 1.1l1.3 -0.8l0.2 1.3l-0.2 1.6l-0.6 1l-0.8 1.8l-0.8 -1l-0.4 1.7l-0.9 2.5l-0.5 1.7l-1.2 1.1l-0.3 1.2l-0.6 1.8z"/><g data-zip="04654"><path d="m881.9 979.7z"/><path d="m866.6 977.5l0.6 1.2l-0.4 -1.4z"/><path d="m862.7 970.9l0.9 2l0.8 -1l-0.9 -1z"/><path d="m824.1 895.9l0.8 1.7l1.6 0l1.2 -0.1l0.8 1l1.4 1.5l1.1 -1.2l1.7 -0.3l-1 0.8l0.3 1.6l1.7 0.8l0.4 1.7l1.4 1.1l0.4 1l0.1 1l1 0.7l1.3 0.5l1.3 0.7l-0.3 1l-0.5 1.6l0.9 2l0.2 2.2l0.7 1.1l1.3 0.7l1.1 0.3l1 -0.4l0.9 2.1l0.9 1.9l1 0.6l0.4 1l-1 0.3l0 1.5l0.4 1.6l0.9 1.8l1.5 0.9l1.7 2l1.7 1.9l0.6 1.1l2.2 0.7l1.4 2.9l2.2 5.3l-1.2 2.5l-1.4 1.3l-1.6 2.6l-0.7 1l-0.8 2.3l4.1 0l1.8 -0.8l3.3 -0.1l2.4 5.3l-5.7 2.4l-0.2 1.2l-0.6 1l-0.3 -1.1l-0.5 2.2l-1.4 1.7l-1.3 0.6l-0.8 1.3l0.3 1.6l0.1 1.8l1.8 1.3l0.2 1.4l-0.4 1.3l1.3 -0.9l-0.2 -1.6l1.7 -1.6l0.3 -2.3l4.2 -1.3l2 1.3l1 1.4l0.3 1.6l0 2.2l-1.2 1l1.5 2.6l1.1 -0.9l1.4 -0.4l1.5 1.3l1.3 -0.3l1 0.5l-0.3 1.2l0.9 1.3l1.2 1l-0.4 -1.5l1.1 -0.1l1.8 0.3l-0.2 -1.2l1 -0.7l2.1 0.4l1.1 -0.7l0.7 -2.2l-1.9 -2.2l-0.1 -2.2l-2.2 -0.5l-0.7 -1.4l0.1 -1.4l1.1 -1.1l0.2 -1.4l0.8 -1.8l0.6 -1.2l-0.7 -1.4l0 -1.1l1 -1.1l0.7 -1.6l-1.4 -7.2l5.2 -1.1l-0.4 -1.6l1.2 -0.3l-1.5 -6.6l-2.1 0.1l-1.1 -9.8l-1.1 0l-1.5 0.1l-0.1 -1.5l-1.7 -0.9l-0.4 -3.9l-2.5 0.1l0 -1.2l-0.4 -1.2l-0.9 -1.4l2.77556e-17 -2.3l-1 -0.7l-0.9 -1.6l-1.1 0l-1.2 -0.7l-3.2 -3.2l-4.6 -4.6l-10.6 -26.3l-13.2 5.2l-4.3 2.2l-1.4 1l-1.4 0.6l-1 1l-2.1 0.5l-1 1.7l-0.2 1.2l-0.5 1.1l-0.2 1.5z"/><path d="m789.6 857.2l0.2 1.7l0.9 1.5l1.1 0.9l1.4 0.7l1.2 0.6l1.1 1.1l1.1 1.6l1.3 2l-1.5 0.8l-1.9 0.5l-1.2 0.6l-2 1.7l0.5 1.2l1 -0.1l1.5 0.7l2 -1.4l1.1 -0.1l0.7 1.4l1 0.9l1.3 3.3l-0.5 1.5l1.5 1.1l1.4 0.1l0.3 1.5l0.5 1.3l2.1 1.6l1.5 1.5l1.2 -0.4l1.8 0.1l2.1 0.2l1.2 -0.2l1.7 -0.1l-3.8 -18.7l-0.9 -1.6l-0.6 -1l-0.2 -1.1l0.8 -1.2l-1.6 -0.7l-2.1 1l-1.2 1.1l-1.3 0.4l-1.2 -0.7l-1 -1.3l-1 -0.7l-2.4 -1.6l0.1 1.1l-0.3 1.3l-1.2 -0.3l-0.2 -1.4l-0.7 -2.8l0.4 -1.2l-0.9 -1.1l-1.4 0.1l-1.1 0.5l-1 0.8l-1.1 0.5l-1.1 0.4z"/></g><path data-zip="04671" d="m927.9 814.8l12.9 22.4l1.1 -0.7l20.6 -12.9l-3.8 -3.5l2.2 -1l0.7 -2.2l3.7 -1l-1 -2.3l-4.4 -12.9l-2.6 -4.3l-4.5 2.8l-25 15.6z"/><g data-zip="04679"><path d="m666.4 1087.9l0 1l0.3 1.3l1.8 -0.2l1.1 0.5l-2.5 -2.5z"/><path d="m646.7 1076.9l5.3 10.9l2 4.2l1 1l1 0.8l-0.1 1.4l0.7 1.1l0.6 1.7l0.6 1.4l3.1 6.5l1 1.3l1.2 0.8l1.7 -1.1l0.6 -1.2l0.1 -1.5l1.6 -0.2l0.8 -2.1l1.6 -1.2l0.3 -1.6l-1.4 -3.7l-0.8 -1.7l-1.1 -1l-1.3 0.2l-1.4 -0.5l0.5 -1.3l0.6 -1.2l-1.1 -1.7l-1 -1.4l0.1 -2.6l1 0.6l-0.1 -1.2l1.1 -0.4l0.8 -1.7l-0.6 -2l-0.7 -1.2l-1.7 1.1l-3.8 -2l0.1 -2l0.3 -1.4l-2 -1l0.6 1.5l-1.3 0.3l-1.1 0.6l-2.1 -0.7l-1.1 1.2l-5.8 1z"/></g><g data-zip="04693"><path d="m732.6 1071l0.2 1.7l1.1 -0.3l-0.1 -1.2l0.3 -1.3l-1.1 0.7z"/><path d="m715.8 1060.1l0.2 2.1l1.1 1.4l1 0.9l0.2 -1.6l-0.8 -2l-0.8 -1.2z"/><path d="m713.4 1044.7l0.3 2.6l0.9 1.2l1.9 1l0.4 1.1l-1 1.3l0.1 1.1l0.6 1.9l2.1 3l1.2 -0.3l0.1 -1.7l-1.6 -3.6l0.2 -1l2.2 1.3l1.6 -0.8l0.7 4.3l-0.8 1l0.4 8.7l1.3 2l1 2.2l1.6 1.3l0.8 -1.4l1.5 1.4l1.6 -0.9l0.3 -1.2l0.1 -1.9l-0.7 -2l-0.1 -2l0.7 -1.5l1.7 -1l-1 -0.7l-0.8 -2.9l-0.8 -3l-0.9 -1.5l-0.2 -1.4l1.5 -0.3l-1.8 -11.4l-13.5 2.6l-1.5 2.5z"/><path d="m707.3 1041.9l1.5 0.9l0.6 1l0.4 1.8l1.7 0.1l0.8 -1.1l-0.7 -1.7l-1.3 -1.4l-1.5 -0.1l-1.5 0.5z"/><path d="m704.6 1052.4l0.2 1l1 0.4l0.9 2.2l1.6 -0.9l2 -2.7l0.1 -2.3l-0.2 -1.6l-0.8 -2.1l-1.5 0.6l-1 1.2l-1 2.1l-1 0.4l-0.3 1.9z"/></g><path data-zip="04694" d="m825.2 819.4l8.6 21.2l1.4 -0.9l3.4 0.3l1.1 -0.1l2.1 0.2l1.4 0l1.5 -0.6l2.1 0.2l1.3 0.8l2.8 -0.8l0.7 2.6l14 -5.7l-1.9 -4.7l1 -0.4l9.4 -3.8l34 -13.9l5.4 8.7l1 -1.2l-1.1 -1.1l0.2 -1.9l-0.6 -1.6l1.9 0.2l1.4 0.5l3.5 -0.2l0.5 -2.3l-0.2 -1.5l-0.1 -1.6l-0.2 -3.9l0.1 -1.4l-0.5 -2.5l0.7 -2.2l-3.4 -5.4l-4.3 -7l-3.5 0.8l0.6 1.5l-1 2.4l-2 -0.1l-2.5 2.1l-1.4 -0.2l-0.8 -1.1l-1.3 -0.1l-0.6 -1.2l-3.7 -3.4l-2.1 -3.1l-2.5 -0.8l-3.5 -2l-0.2 -1l0.2 -1.4l1.4 -0.7l0.2 -1.6l-0.5 -1.4l-1.7 -0.7l-1.4 -1.7l-1.3 -2l-1.8 -0.4l-0.8 -2.7l-0.6 -3.8l-1.4 -3.4l0 -1l-0.7 -1.5l-1.7 -2l-1.6 -2.9l-1.7 -0.3l-3.2 -5.9l-0.5 -1.6l-0.4 -1.9l0 -2.1l-1.4 -0.4l-0.4 -1.2l-0.9 1.2l-1.5 0.1l-0.7 1.2l-1 0.2l-0.8 1.2l0.3 1l-0.4 1.3l-1.1 1.1l-3 1.8l-1.1 0.7l-0.8 1.7l-1.7 0.4l20.2 33.4l-14.9 6.8l-14.5 5.3l-1.9 -5l-1.1 -0.1l-1.1 0.6l-1 -0.2l-0.1 1.2l-0.4 1.7l-1.2 -1l-0.7 -1.6l-2.1 0.7l-0.5 1.9l-0.1 2.6l0.6 1.5l0.3 1.1l0.4 1.4l-0.4 1l1.5 1.2l0.4 1l0.9 1l0.6 1.2l1.3 0.7l0.7 1.9l-17.2 6.6z"/><path data-zip="04730" d="m716.7 414.9l0.4 1.2l0.5 1.4l0 1l1.8 -0.5l2.3 -0.4l1.6 0l2.9 9.3l-0.5 1.2l0.5 1l2.9 -0.9l2 0.9l0 5l0 2.8l0 2.2l9.7 -0.2l23.9 -0.5l0 1.6l-0.7 14.7l-1.6 0l-8.1 -0.2l-15.9 -0.4l-1 0.2l-6.3 -0.5l-0.1 20.9l0 17l2.5 0l0.3 3.8l1.3 0.6l1.5 0.1l1.5 0.2l0.8 1.5l1.8 0.4l0.2 -1.2l0.4 1.1l1 0.9l1.2 5.1l-2 0.1l-2.9 -0.3l-2 -0.4l-1 -0.5l-1.8 -1.1l-2.3 -1.6l-2.3 -1.4l-1.9 -0.8l-1.3 -0.1l-1.3 -1l-1.2 0.5l-0.1 1.7l-0.6 1.8l-0.7 1l-1 0.4l-0.8 1l0.7 1.1l1.8 2.1l1.8 3l2.1 2l1 0.1l1.3 -0.1l0.3 -1l0.1 -3.3l1.7 -1l1.1 -0.1l1.5 -0.6l1.5 0.3l1.1 -0.3l1.6 1l2.3 0.9l1.3 -0.6l1 -0.3l2.1 -4.8l0.2 -1.4l0.6 -1.3l1.1 -0.8l2.5 -0.7l4.2 -1l2.4 -0.8l1.3 -0.1l-0.5 -1.2l-1 -0.5l-1 -1.2l-0.7 -1.2l8.6 -0.3l0 -3.2l13.9 0.3l1.1 0.1l17.2 0.1l0 -1.3l-0.3 -97.7l-30.8 0l0 1.1l-8.5 0l-8 0l-16.3 -0.1l-0.1 13.4l0 11.3l-12.4 0.1l-2.3 0z"/><g data-zip="04732"><path d="m603.1 245.9l0.1 38.9l1.5 0.2l1.1 -1.1l1.6 -2.1l1.1 0l1.4 -1.6l2.7 0.8l1.1 1.3l-0.5 1l-1.1 2.3l-0.2 1.1l0.2 1.6l21.6 0l0.1 32.6l1.4 0.2l0.5 1.4l0.6 1.3l1.4 0.5l0.7 1l0.1 1.5l-0.5 1.3l2.2 1.7l1.2 1.6l0.1 1l-1.5 0.3l-1.1 -0.9l-1.4 0.2l-0.8 1l-1.2 0.5l-1.2 0.4l-0.5 1.1l0.9 1.1l-0.9 1l1.2 2.5l0.9 1.2l-0.5 1.3l-1.1 0.9l-0.5 9.2l0 6.6l1.1 1.2l1.2 0.6l-0.2 1.1l0.9 1.1l0.8 1.3l1 -1.3l0.7 -1.5l1.6 -0.2l1.1 0.4l1.9 0.3l1.6 -0.8l1 -0.6l1.4 -0.6l1.1 0.2l1.4 0.1l1.3 0.4l1.6 0.5l1.3 0.9l0.4 -4.3l-0.1 -1.4l0.1 -1.4l-0.2 -1.6l0.2 -1l0.7 -1.5l0 -1.8l-0.7 -1.4l-1.8 -1.8l-3.3 -4.5l-2.2 -8l-0.8 -1.4l-0.3 -1.1l-0.1 -1.4l0.2 -2.6l-1 -5l11.1 -0.7l9.6 0.1l0 -34.6l0.3 -21.2l0.2 -11.7l0.6 -31.4l-34.4 0.1l-3.2 0l-0.7 1.5l-0.6 1.9l-0.7 1.5l-1.2 2.2l-2.1 0.4l-0.1 2.4l0.3 1.2l-0.9 1.6l-0.5 1.4l-0.3 1.5l0.1 1.1l-0.9 -2.4l-1.5 0.4l0.8 1.9l2 2.3l0.3 1l-1.4 1.6l-1.1 1l0.6 1.3l1.5 0.4l-0.5 1.1l-0.2 1.4l-1.4 0.2l-0.5 1.3l-1.2 -0.2l-1.7 -0.7l-1.1 -0.7l-1.2 -0.9l-1.5 -0.3l-2 -0.3l-1.3 1.5l-1 1.8l-1.3 -0.9l-1 -0.5l-2.5 -1.7l-0.4 -1.1l-1.5 -0.5z"/><path d="m499.6 277.3l0.5 1.1l0 1l1.7 0.9l-1 0.6l1.8 1.6l1.3 -0.4l1.6 0.4l1.1 -0.5l1 -0.1l2.2 1.3l1.3 -0.6l1.7 0.4l1.5 -0.9l1.2 0.6l1 1l1.5 -0.3l1.5 0.7l1.9 -0.7l1.6 0.1l3 -1.9l1.9 -0.7l0.8 -1.2l0.9 -1.3l-0.5 -1.6l-0.8 -2.9l-1.2 -1.7l-0.6 -3.3l1.2 -0.1l3 -2.4l1.1 -0.6l2 -0.1l2.2 -1.4l2.6 -1.1l0.6 -1.1l1.7 -1l1.4 -0.9l2.6 -1.1l1.5 1.1l2.8 1.1l1.3 1.8l0 1l3 3.8l2 4l1.6 0.5l2.1 -0.1l2.1 0.3l2.2 0.5l0 -1.4l0.6 -1.1l-0.4 -3.9l0.3 -2.5l0.2 -1l-1.1 -0.7l-0.8 -2.8l0.1 -1.2l-0.3 -1l0.1 -1.1l-1.3 -1.7l0.2 -1.2l-0.8 -1.3l-0.1 -1.4l-1.2 -1.1l0.1 -1.3l-0.3 -1l-1.8 -1.1l-1.2 -0.2l-1.3 -0.8l-1.3 0.5l-3.2 -1.4l-0.7 -1l-1.1 -0.5l-1.5 0.4l-2 0.7l-0.3 -1.2l1.8 -0.1l1.1 0.1l-1.6 -1.5l-1.6 -1l-0.9 1.4l-1.6 0.2l-0.6 -1.1l-1.1 -1.2l-1.1 0.3l-1.9 -0.7l-1.4 -0.7l0 -1l-1.2 -1l0.3 1.3l1.9 1.8l1 0.5l1.6 0.4l2.3 2.2l-0.6 1.6l0.3 1.9l-1.7 2.3l-1 1.3l-1.9 0.8l-1.3 1.3l-1.5 1l-1.2 1l-1.9 0.1l-3.6 0.3l-1.2 -0.2l-1 2l-0.2 1l-0.8 1l-1.8 1.5l-1.9 0.3l-2.7 2l-0.7 1l-1.8 1.3l1.6 0.2l-1 0.5l-1.2 -0.4l-1.4 0.4l-0.9 1.6l-0.3 1.2l-1.8 1l-1.8 0.7l-1.7 0.9l-1.5 -0.1l-0.6 1.2l-1.3 0l-0.8 1.1l-1.9 3.6l-0.5 1.1z"/><path d="m445.5 372.2l1.4 0.4l1 -0.4l1 -0.3l1.4 -0.8l1.5 -0.6l1.4 -1.1l1.1 -0.8l1.4 1.3l0.9 1.9l0.3 1.7l-0.4 1.3l-0.3 1.1l-1.1 1.5l-0.1 1.6l2.4 0.6l1.3 0.5l0.5 1l2.5 -0.8l1.6 0l2.1 -0.7l1.2 0.1l0.4 1.4l1.1 0.8l2.1 -0.4l1 -0.1l1.3 -0.3l1.1 -0.2l2.1 -0.4l1.2 -1.4l1.3 -0.1l2.2 -0.4l1.5 -0.3l2.3 -1.7l2.3 -0.6l1.9 -0.3l1.2 0l1.6 -0.9l1.6 -0.3l2.3 -0.6l1.2 0.6l0.3 1.2l1.8 0l1.1 2.1l0.6 1.5l1.2 0.3l1.5 0.2l1.6 -0.4l1.7 0.2l1.3 0.5l1.2 0.5l1.4 0.9l1.8 0.7l2.1 1l1.8 -0.8l1.9 -0.4l1.7 -0.6l0.7 -1l0 -1.3l-1.2 -0.5l-1.2 -0.3l1.5 -0.5l1.5 1l0.5 1.2l1.3 -0.5l1.2 -0.4l2.3 -0.2l1.1 -0.4l1.3 -1.4l2.4 0l1.2 -0.4l1.1 -0.1l-0.2 1.2l0.2 1.7l1.3 0.2l1.3 -0.2l1.1 0.8l1.7 0.6l0.7 -27.5l0 -5.7l-0.6 -25.4l-1 -1.2l-1.6 -1.3l-2 0.1l-0.5 -1.5l-1 -1.2l-1.1 0l-1.8 -1.6l-0.6 -1.4l-1.4 -1.2l-1.1 -1.1l-1.2 -1.4l-1.3 -1.1l-1.4 -0.6l-0.2 -1.1l-1.1 0l-1.1 0.6l-1.5 0.2l-1 -0.6l-1 -0.3l-1 -1.2l-2.5 -0.7l-0.8 1.8l-1.5 0l-2.8 0.6l-1.2 1l-1.8 0.5l-1.1 0.5l-2.4 0.7l-1.5 0.9l-1.2 0.5l-1.4 -0.2l-1.2 0.5l-2.5 1.8l-0.7 1l-1.7 0.8l-1.2 -0.9l0.1 -1.4l-1.2 -2.6l-0.6 -2.8l0.7 -1.1l-0.1 -1.1l-2.2 -1.7l-1.2 -0.4l-2.6 -0.3l-2.7 -1.4l-2.7 -0.5l-3.3 3.2l-1.4 1.7l-1.8 0.7l-2.3 0.8l-2.2 1.3l-1.7 1.4l-1.4 1l-1.4 0.9l-1.1 0.7l-1.3 0.5l-1.1 1.5l-1.7 1.5l1 0.6l0.1 1.2l0.8 1.3l0.6 1.2l0.2 1l0.7 1.8l0.3 1.9l-0.5 1l1.1 1.1l1.2 1.4l1.3 0.5l1.2 -0.8l1.1 0.1l1.5 -1.1l2.8 -0.3l1.1 1.3l-0.6 1.7l-0.1 1l1.1 0.4l0.2 1.2l-1.6 0.4l-1.6 1.2l-1.2 0.5l-1.7 1.2l-1.7 0.9l-0.8 1.6l-1.6 0.9l-0.4 1.3l0.3 1.1l0.2 1.8l-0.7 1.3l-1.2 2.3l-1.1 1.4l-0.2 1.6l-2 1.1l-0.5 1.9l-0.6 1.1l-1.2 1.5l-0.7 2.1l0 1.2l-0.7 1.3l-0.6 1.7l-1.2 0.6l-1.2 0.5l-0.4 1.4l-0.8 1.6l-1.3 1.5l-1.4 -0.4l0.3 1.3l-0.8 1.1l-0.3 1.5z"/><path d="m445.6 258l-0.4 1.1l1.5 -0.1l1.1 -0.4l1.8 -1.1l1.6 -2.3l0 -1.1l-0.6 -1.1l-1.1 -1l0.3 -1.1l-0.5 -1.8l-1.5 -0.9l-1.1 -3.1l0.4 -3.3l1.1 -2.3l0.9 -1l0.1 -1.4l-0.2 -1.1l-0.2 1.6l-0.1 1l-1.3 1.8l-0.7 1.8l-0.7 3.2l-0.1 1.9l0.6 1.2l1.8 0.5l0.6 2.8l1.4 1.9l0.1 2.3l-1.3 1.5l-1.9 -0.6l-1.6 1.3z"/><path d="m243.8 277.3l-0.9 6.7l32.1 0l1.4 -1.6l-0.5 -1.1l-1.5 -0.4l-1.1 0l-1.3 -0.2l-2.1 -0.6l-1.4 -0.1l-1.2 0.2l-2 -1.7l-1.4 0.3l-1.5 -0.2l-1.5 -1.2l-1.5 -1.3l-2.1 -0.1l-1.2 -0.7l-2.1 -0.5l-1 -0.7l-0.6 -1.6l-1 -1l-1 -0.9l-0.9 -1.6l-1 -2.1l1.2 -0.5l1.4 -1.9l1.2 -1.5l1.2 -1.5l0.4 -1.9l-0.2 -1.2l0.5 -1.1l0 -1.6l-0.2 -1l-0.7 -1.2l0.8 -2l-0.2 -1.2l-1.2 -0.3l-1.3 -2.9l-1.4 -1.5l0.2 -1.1l0 -1.6l-0.8 -1l-5.4 35.6z"/></g><path data-zip="04734" d="m729.2 329l2 1.1l0.8 2.7l-0.7 1.4l1.1 -1l1.5 -0.5l1.4 0.4l1.1 0.2l2.1 -0.6l1.2 -0.7l1.2 0.5l1.3 -0.6l1.2 0.4l2.2 0.3l1.2 -0.3l0.9 -1.2l2.1 -1.4l5.6 0.8l1.7 0.6l2.2 0.6l2.4 1l1.1 0.8l0.1 -10.6l31.4 -0.7l-0.3 -15.9l-29.5 0.8l-29.4 0.8l0.1 1.5l0.5 1.2l0 1.2l0.2 1.4l0.4 1.3l1 1.6l-0.2 1.6l-1.1 0.8l-1.4 0.3l-1.6 -0.3l-1.2 1.4l0.1 2.3l0.4 3.1l-0.5 1.1l-0.2 1.3l-0.5 1l-1 0.3z"/><path data-zip="04736" d="m697.3 156.2l0.1 5.5l0 13.7l0.2 13.9l29 -0.8l0.7 22.9l2.6 -0.1l29.6 -1l1.7 -0.1l0 -31.3l-1.9 0.1l-0.6 -33.2l5.3 -0.1l0.2 -1.4l1.5 -0.5l-1 -2.1l0.8 -2.3l-4.1 0l0.2 -5.5l2.4 0l0 -4.6l0.2 -1.5l-0.7 -1.3l-1.8 0.5l-2.6 0.3l-0.9 -14.2l-12 0.2l0.5 -1.3l-1.4 -0.9l-1.8 -2.7l-2.1 -0.7l-1.4 -0.6l-1.7 -0.7l-0.3 -1.4l-0.7 -2.2l-2.2 0.4l-0.6 -1.6l-1.7 -0.1l-1.4 0.8l-1.7 1.1l-1.6 -0.7l-0.3 -1.4l-1 -0.8l-3.1 -0.4l-1.4 0.4l-1.2 2.1l0.5 1.3l-0.4 1.4l-0.5 2.5l0.2 1.2l0.5 1.6l0.2 1.2l0 1.2l0 2.1l0.2 2.4l0.4 1.5l1 0.5l2.1 1.1l0 1.8l0.2 33l-28.7 0.9z"/><g data-zip="04739"><path d="m550.8 190.8l0.4 1.9l1.6 2.8l0.9 1l1 0.6l1.8 0.8l0.8 1.5l1.7 0.9l1.3 0.6l1.1 0.9l1.5 0.3l1.9 -1.1l1.1 -0.5l1.4 -1.1l3 -0.1l-0.3 -1.2l0 -2.6l-1.1 -0.9l-1.3 -0.9l-0.7 -1.3l-0.2 -1.3l-0.1 -1.4l-1.2 -0.6l-1.2 -0.5l-2.1 -1.7l-0.9 -1.5l-1.5 -0.9l-1.4 -1.4l-1.6 -0.2l-2.3 1.1l-0.6 2.7l-1 2l-0.6 1l-1.4 1.2z"/><path d="m509 132.8l1.3 3l-0.3 5.8l0.2 2.9l0.9 1l-0.2 1.6l0.7 1.2l2.5 1.8l2.3 1.2l1.5 0.6l2.6 0.7l1.7 1l1.3 0.4l3.1 -0.7l4.2 -1.7l1 -0.9l1.6 -1.7l1.9 -2.1l2 0.3l1.1 -0.1l1.3 -0.5l-1.7 -0.3l0.2 -1.2l-0.3 -1.1l-0.6 -1.3l1.5 -1l0.7 -3.2l-0.1 -1.3l-0.4 -2.3l1.4 0.6l1.8 -0.1l1.4 -0.4l1.1 0.1l1.1 -0.3l1.7 0.5l2 0.1l2.3 1.2l1.3 0.3l2.8 0.2l1.8 0.4l1.2 0.8l2.3 -1.3l1.4 0.3l1 1l0.8 1.6l0.1 2.1l1.3 2.1l1.1 1l0.5 1.1l1.6 1.4l1 0.8l0.1 10.4l17.5 -0.3l1.1 1.1l1.4 3.6l1 2.6l0 1.3l1.3 1.3l1.6 1.2l2 2.3l0.8 1.1l0.9 1.5l1 0.5l1.8 0.4l1.6 -0.4l1.1 0l2.3 0.2l1.8 0.3l1.6 1l0.5 1.5l1.3 -0.4l2 -1.2l-0.1 -1.2l2 -1.1l-1.7 -0.1l-0.2 -2.8l1.6 -0.3l0.4 -1.6l0.1 -1l2.2 -0.7l1 -0.8l0.6 -1.4l-0.2 -3.4l1.7 -0.7l0.2 -1l0 -2.3l-0.3 -1.2l-1 -0.4l-1.3 -0.7l-1.5 -0.3l-1.2 -0.1l-1 -0.7l-2.7 -1.2l0.3 -1.1l-0.2 -1.1l-0.5 -1l0.3 -1.8l-1.6 -2.3l-1.8 -1.4l2 -1.1l1 -0.9l0.1 -3.2l-0.2 -1.6l-0.5 -1.5l-1.5 -1l-0.3 -1.4l0.9 -1.7l-1.4 -2.6l-1.8 -0.8l-0.3 -1l-1.7 -1.5l-1 -0.2l-0.5 -12.8l1.1 0.7l1.4 1.4l2.8 -0.4l1.2 -0.8l1.1 -0.2l1.6 -0.4l1.5 -0.6l1.9 -0.2l1.7 0.1l1.1 -0.3l1.5 -0.2l2.1 -1.7l1.4 0.2l1.5 -0.9l1.5 -0.9l2.8 -1.3l1.5 -0.7l1.2 -0.4l0.7 -1.1l1.5 -0.4l1.6 -1.3l2.7 -1.2l1.6 -0.7l0.1 -1.2l-1.3 -1.1l-1.4 -1.5l-2.2 -0.4l-1.3 0.6l-1.4 -0.3l-0.5 -1.1l0.9 -1.4l0 -1.8l-0.9 -1.4l-62.1 1.4l-29.8 0.2l-14 0l-1.5 1.3l-1 0.1l-2 -0.1l-1.5 -0.6l-2 0l-2 0.4l-1.2 0.8l-1 0.3l1.2 1.6l1 0.8l0.5 1.7l0.9 2.8l1.6 3.1l-0.2 1.8l0.6 1.5l1.3 1.1l4.1 -0.2l0 2.8l1.6 2.3l1 0.8l-2.5 -0.7l-1.5 -0.2l-2.5 -0.2l-1.6 1.8l-1.3 1.7l-2.1 2l-0.9 1.3l-1.2 1l-0.7 1.3l-1.3 1.4l1 0.9l1 1.1l1.6 0.9l1.3 0.8l1.4 0.9l2 1.2l0.6 2.6l-1.1 0.5l-1.5 -0.7l-2.8 0.3l-1.2 0.1l-1.8 -0.1l-1.9 -0.9z"/></g><path data-zip="04742" d="m759.5 210.3l1.1 33.2l32.7 -1.1l-0.1 -24.7l-0.1 -13.2l0.1 -27.8l-27.7 2.1l-4.3 0.1l0 31.3l-1.7 0.1z"/><path data-zip="04743" d="m537.7 55.7l0.2 29.7l0.1 1l-0.1 3.8l1.2 0.4l1.2 0.2l-0.6 1.2l1 0.9l-1.2 0.9l29.8 -0.2l0 -8.1l-0.2 -25.9l32.8 -0.7l0.1 18.5l1.9 1l1.2 0.5l1.6 0.2l2.9 4.5l2.6 1.6l13.5 0.8l1.3 -0.6l2.6 0l1.8 -1.3l-0.2 -24.9l7.1 -0.7l1.9 -6.5l0.3 -3.6l-1.1 -0.5l-3.4 0.9l-0.5 -1.4l-0.3 -1.1l-1.5 -1.2l-2.4 0.4l0.1 -1.4l0 -2.4l0.3 -1.6l-0.4 -2.6l-1.7 -0.9l-2.9 0.4l-1.3 0.5l-1 0.2l-1.4 -0.1l-0.5 -7.1l3.1 -2.4l1.9 -1.9l-0.5 -1.2l-1.6 -1.6l-1.1 -0.3l-1.2 0.6l-1.8 0.5l-2.5 0.2l-1.7 -0.8l-3.4 0.1l-1.4 0.5l-1.4 0.8l-2.6 2.7l-1.7 0.8l-1.3 0.3l-2.1 -0.5l-2.6 -1.2l-1.8 -0.2l-1.1 0.7l-1.4 1.4l-1 2.5l-0.7 1l-0.8 1.4l0.9 1.7l0.4 1.3l-1.1 1.7l-1.7 1.9l-1.9 1.7l-1.8 0.6l-1.3 0.3l-2.5 0l-1 0.3l-2.2 0.6l-1.4 0.1l-1.1 0.8l-1.4 0.1l-2.9 -2.1l-2.1 -0.1l-1.5 -0.4l-2.8 1.9l-1.7 0l-1.3 -0.8l-1 0l-2.6 1.7l-1.5 0.3l-2.4 1.8l-1.9 1.4l-3 1.7l-1.3 0.3l-2.9 0.1l-5.5 2l-2.1 0l-1.4 1.7l-1.2 0.7z"/><path data-zip="04750" d="m758.3 113.1l0.2 14l2.5 -0.2l1.7 -0.3l1.4 0.5l-0.1 1.4l0.1 5.4l-2.4 0l-0.2 5.5l4.1 0l-0.8 2.3l0.6 1.2l-0.6 1.1l-0.7 1.7l-5.3 0.1l0.6 33.2l1.9 -0.1l4.3 -0.1l27.7 -2.1l0 -3.2l-0.1 -43l-0.1 -14.6l0 -3.5l-34.7 0.6z"/><path data-zip="04756" d="m654.2 1.1l-1.9 8.7l14.1 16l3.3 0.2l0.1 5.4l1.5 0l4.8 -0.7l0.8 -1.1l1.2 0.6l0.9 -1.2l0.6 -1l-1.1 -1.2l-1.8 -2.5l2.5 -4.3l-1.9 -0.6l-1.9 -0.3l-1.9 -0.9l1.4 -2.3l0.8 -1.6l0.7 -1l-1 -1.8l-0.2 -2.2l0.2 -1.6l1.4 -0.9l0.1 -1.8l-2.1 -1l-1.6 0.1l-4.5 -1.5l-0.4 -1.4l-1.2 0.1l-2.3 -0.1l-2.8 -0.9l-2.1 -0.6l-1.6 0.2l-1.7 0.6l-2.6 0.4z"/><path data-zip="04757" d="m666.5 265.5l-0.3 21.2l1.8 -0.1l1.2 0.9l1.4 1.3l1.3 0.2l1 -0.4l3.7 1.1l1.2 -0.3l0.3 -1l-0.6 -2.3l-1.1 -2.2l2.5 -1.7l1 -0.7l0.5 1.8l-0.2 -1.7l0.7 -4l-0.5 -1.2l0.3 -1.2l0.2 -1.2l0.6 -1.6l0.6 -1.1l0.3 -1.3l1.1 -0.1l3.8 0.3l0.6 -1l1.4 -0.9l0 -1.4l-1 -1.2l-0.2 -4.8l-0.5 -1.1l-5.1 -2.9l-0.1 -1.5l0.1 -1.8l16.5 -1.1l-0.1 12.8l-0.2 21.5l31.2 -1.1l-0.3 -9.4l-0.9 -29.7l-0.1 -4.6l-0.2 -5.1l-0.5 -16.4l-60.4 1.6l0 31.4l-0.8 11.7z"/><path data-zip="04758" d="m763.7 275.5l0.5 21l0 1.5l0.3 9.2l29.5 -0.8l-0.5 -31.8l-29.7 1z"/><path data-zip="04769" d="m727.4 211.4l0.3 9.3l0.5 16.4l0.2 5.1l0.1 4.6l0.9 29.7l31.5 -0.9l-0.3 -32.2l-1.1 -33.2l-29.4 1.1l-2.8 0z"/><path data-zip="04785" d="m697.3 57.9l-0.2 7.3l1.9 2.1l2 1.4l0.6 1l1.3 0.9l0.1 1.7l-0.4 1.6l-1 0.3l0.5 1.3l1 1.3l1.4 1.1l0.3 1.3l2.4 -1.1l4.3 -0.1l0.8 -1.9l-0.3 -2l1.9 0.1l0.5 -2.2l0.7 -1.6l1.7 -2.4l0.8 -1.5l0.3 -1l1.8 0l1.1 -2l1.9 0.2l1.1 0.8l0.9 1l1.1 0.3l0.5 24.3l-4.6 0l0 8l0.4 1.7l1.8 0.1l2.2 -0.3l1.4 0.9l0.5 1.4l1.2 1.2l1.8 -0.5l1.3 -1.6l2.4 0.4l0.2 1.2l2.6 0l0.7 2.2l0.3 1.4l1.7 0.7l1.4 0.6l1.2 0.7l2.3 1.8l1.3 1.3l0.3 1l11.7 0.6l34.7 -0.6l-0.1 -6.5l-1.1 -0.6l-2.3 -1.4l-1.5 -1l-1.4 -1.8l-1.1 -0.8l-2.8 -0.7l-1.1 -0.5l-3 -2.3l-3.8 -2.1l-1.4 -0.6l-1.7 -0.3l-1 -0.8l-1 -1.2l-0.8 -1l-0.1 -1.2l0 -1.9l-0.2 -2.1l-0.5 -1.4l-2.2 -2.4l-2.2 -4.7l-2.3 -1.1l-1.9 -1.3l-2.1 -3.6l-0.8 -2.4l-1 -1.7l-1.6 -2.3l-0.4 -3.6l-0.2 -1.3l-1.1 -1.1l-1.6 -1.3l-1.6 -0.9l-1 -0.6l-3 -0.9l-1.4 -1l-1.6 -2.1l-2 -3.1l-2.4 -2.9l-1.5 -1.4l-2.8 -2l-6.7 -4.5l0 1.4l1.6 0.9l5.9 5.1l-3.2 4.7l-1 0.9l-1.6 2.4l-1.3 0.7l0 3.6l-29.1 0.3z"/><path data-zip="04786" d="m667.4 190.2l-0.1 32.1l60.4 -1.6l-0.3 -9.3l-0.7 -22.9l-29 0.8l-30.3 0.9z"/><path data-zip="04841" d="m455.4 1126.1l-6.1 15.4l8.3 3l-1.3 1.7l3.9 1.6l-0.6 1.2l-1 1.2l1 0.5l2.2 0.3l0.6 1.3l-0.4 1.5l0.8 2.1l-0.8 1.1l5.9 -2.6l1.2 -0.6l1 -1.6l-1 -0.9l0.2 -1.2l-5.55112e-17 -1.8l-0.1 -1l0.8 -2.1l2 -0.5l1.3 1.2l1.3 -0.3l-1.1 -1.1l-1.1 -1.1l-1.7 -1.6l-1.5 -1.5l-1.4 -1.5l-2.1 -2.6l-10.5 -10.2z"/><g data-zip="04843"><path d="m503.7 1118.5l0.8 1.7l0.4 -1.6l0.3 -1.3l1 -1.6l-1.4 0.5l-1 2.4z"/><path d="m499 1125.2l-0.1 1l1 -0.2l0.1 -1l-1 0.1z"/><path d="m454.5 1108.7l3.4 3.7l17.1 4l1.4 0.3l1.1 1.1l0.4 -1.2l1.3 1.3l2.2 2.5l0.8 -1.5l-0.6 -3.4l-1.1 -1.6l1.1 -1.2l1.2 0l1.1 0.8l-0.2 -1l0.9 -1.1l-0.2 -3.4l0.8 -3l1 -1.4l1.1 -1.7l0.8 -2.2l-3.6 -3.7l-19.3 1.3l-2.5 2.4l-8 8.7z"/></g><path data-zip="04861" d="m441 1158.2l1.4 1.6l0.6 1.9l1.3 1l1.7 0.4l1 0.6l1.2 -0.2l1.3 0.3l0.8 -1l1.6 -0.9l1.2 -0.8l-0.5 -1.3l7.2 -1.4l1.1 0.1l1.3 -1.4l1.2 -1.3l-1.2 -1.4l-0.1 -1.3l0.5 -1.3l-2 -1.9l-1.8 0.4l1 -1.2l0.6 -1.2l-3.9 -1.6l0.7 -1l-7.7 -3.7l-2 4.9l-0.5 1.8l-0.5 1.2l-0.6 1.3l-1.3 1.1l-0.7 1l-0.7 1.3l0.4 1.2l-0.1 1.2l-1.3 0l0.1 1.1l-1.2 0.7z"/><path data-zip="04901" d="m325 999.8l-8.4 10.7l11.7 2.7l11.4 2.5l15.9 3.6l5.6 0.7l1.2 -6l6.1 1.2l5 -22.9l2.9 0.6l0.5 -2.4l9 1.7l-0.9 -5.2l0.5 -2.7l2 -10.2l-5.1 -1l-32 -6.1l1.4 1.3l0.6 1.1l-0.2 1.9l-0.4 1l-2.1 3.6l-0.5 1.1l-0.2 1.2l0.1 1.2l0.6 1.7l0.2 1.3l-0.6 2l-1.7 0.8l-1.5 0.8l-2.9 -0.1l-11.9 -2.5l-1 0.2l-0.3 1.2l0.5 1.3l-1 4.1l1 0.2l-0.3 1.5l-0.3 1.3l-0.9 1.3l-1 1.3l-1.8 2.3l-1.1 1.4z"/><g data-zip="04911"><path d="m274.4 901.4l0.3 1.9l0.5 1.4l2 -1.3l1.2 -0.4l0.9 -2l-0.2 -2.1l-1 -2l-1.6 -1.7l-0.9 1.6l-1.1 4.5z"/><path d="m240.7 899.1l0.5 2.7l0.8 4.5l1.6 -0.2l1.3 7.9l3.1 -0.5l0.6 5l-1.1 0.1l0.4 5.1l-2.5 0.3l2.6 16.9l1.7 10.9l8.9 -1.3l-0.8 -1.3l0.9 -1.3l0.5 -1.5l0.2 -1.9l-0.3 -1.3l1.2 -0.2l1.2 -0.7l0.8 -1.1l1.6 0.2l1.8 0.8l1.1 0.6l1.5 -0.8l0.3 -1l1.2 -0.9l2.1 0.4l1.7 -1.1l1 -1.5l1.7 -1.1l0.6 -1l-0.2 -1.4l0.6 -1.1l-1.6 -0.5l-1.7 0.5l0.1 -1.6l1.2 -2.8l-0.7 -1.6l-1.6 -0.8l-0.2 -1l0.8 -1l1.2 0.7l0 -1.1l-1.8 -0.5l0.2 -1.4l1 0.2l1.3 -0.1l1 -2l0.5 -1.6l0 -1.7l-0.4 -1.6l-0.1 -1.5l-0.1 -1.1l1 -0.9l-0.6 -1.1l-0.3 -1l0.5 -1.2l-1.4 -3l-0.4 -1.1l-1.1 -0.4l0.7 -2.8l-1.3 -1.4l-1.3 -1.2l-0.5 -1.1l0.8 -1.3l-0.6 -2.9l-0.4 -1.5l-1.4 1.9l-0.7 1l-4.9 -5l-1.5 1l-0.9 -1l-1.3 -1.8l-1.2 -1l-1.9 2l-0.6 1.8l-2.4 0.8l-2.1 0.2l-4.3 2.2l-1.7 0.3l-0.4 -2l-1.1 -1.6l-1.1 -1.2l-2.9 0.5l1.5 9.1l-1.7 0.3z"/></g><path data-zip="04915" d="m459 1023.2l-3.4 0.6l8.8 11.7l14.5 21.7l1.3 1.9l13.3 -8l1.8 -1.9l0.6 1l1.6 -0.7l1.3 -0.4l-1.4 -6.4l-0.9 -2.6l-1 -1.2l1.5 -1.1l1.3 1.1l1.2 0l2.5 0l1.4 -0.8l1.2 -0.2l-0.5 -6.7l-0.6 -3.4l-1.3 -3.1l-1.3 -2.9l-1.2 -4.2l0.1 -1.6l3.9 -2.5l-1 -5.2l-0.2 -1.4l-0.4 -1.6l-2.5 -12.4l2.6 -0.5l-3.9 -6.5l-11.5 10.5l-3.3 -0.2l-0.8 1.5l-1.6 0.5l1.7 2.6l-11.7 12.5l-1.2 1.3l-2.7 2.3l-8.1 6.2z"/><path data-zip="04920" d="m232.7 794.2l1 1.2l0.2 1.7l-0.1 1l0 2.1l-0.6 2.1l1.1 2.3l0.7 1.1l-0.4 1.2l0.2 2.8l1.1 1.4l1.1 0.4l0.2 2.3l0.2 1l-0.3 1.4l-0.1 1.5l0 2.1l0.5 1.5l0.2 1.7l20.8 -3.9l0.1 1.5l-0.6 1.6l-0.9 1.1l0 1.2l-0.2 1l0.3 1.3l-1 1.8l1.5 2.8l0.3 1.7l0.6 1.4l0.7 1.3l0.4 1l0 2l0.2 2.2l0 1.1l0.1 1.7l-0.7 1.1l-0.5 1l-0.4 1.8l0.7 1l0.3 1l0.7 1.6l19.5 -3.4l14.2 -2.7l0.8 -1.2l1 -0.6l0 -1l1 -1.4l1 -0.4l2 -1.3l0.6 -2.1l0.9 -1.8l0.5 -1.2l2.9 2.4l0.9 1.3l0.5 2.9l-1.8 0.4l-1.2 0l-2.8 0.5l-1.3 1.3l-1.5 0.8l-0.8 1.1l13.7 -2.5l-1.1 -7.4l-0.4 -1.6l-4.1 -22l18.2 -3.8l0.6 -1.4l0.8 -1.2l2.3 -1.4l2.3 -2.2l1.5 -0.7l-0.7 -2.2l-1.6 -1.3l-1.1 -1l1.3 -1.9l0.6 -1l1.6 -1.5l-3.4 -19.5l-1 -4.7l0.8 -1.5l-3 -12.7l-2.1 -8.6l-1 -6.4l1.9 -0.4l-5.1 -21.8l-1 -0.3l-1.1 -0.8l-1.8 0l-2 -0.8l-1.7 0.4l-2 0.4l-0.7 1l-1.2 1l0.1 2.9l0 1.3l1 1.6l0 1.1l0.2 1l-1.5 1.1l0.7 1.7l-0.7 1.7l-0.4 1.5l-1.4 0.3l-0.6 1.1l-1.3 0.6l-1.1 0.5l-0.4 1.4l-1 0.2l-1 -0.2l-1.2 0.8l-1.5 1.2l-1.9 1.2l-1.1 0.1l-1.3 0.2l-0.9 -1l0.2 -1.2l-0.6 1l1.1 2.9l0.6 2.2l0.3 1.3l-1.8 0.3l0 1.1l0.1 1l0.3 1.2l0.7 1.6l0.3 1.8l-0.6 1l-0.4 1.3l0.6 2.4l1.1 0.9l0.5 2.3l0.3 1.3l0 1.4l0.4 1.1l1.1 1.7l1.2 3.1l-0.2 2.1l-1.1 4.6l-0.2 2.5l0.4 1.6l-37.6 7l-1.7 -0.6l-1.3 -1l-1.1 -1.1l-0.6 -1.2l-0.3 -1.7l0.1 -1.7l0.2 -1.5l0.3 -1.2l0 -2.2l-0.5 -1.7l0 -1.4l-0.2 -1.4l-0.7 -1.6l-0.1 -1.2l-0.5 -1.7l-0.2 -1.8l-0.2 -1l-1 -2.1l-0.3 -1l0.4 -1.3l1.9 -2.5l0.4 -1.2l-0.2 -1.1l-0.4 -1.1l-0.6 -2.4l-0.6 -1.6l0.1 -2.4l0.2 -1l0.4 -1l0.2 -1.1l0.3 -1.4l-0.4 -1l0.2 -1.6l0.5 -2l1.1 -1l1.1 -1.5l0.2 -1.4l-0.6 -1.5l0.2 -1.5l-1.9 -0.5l-1 -0.4l-1.1 -1.1l-1.4 -0.6l-1 1.3l-0.5 1.1l-0.4 1.9l-0.5 1.4l-1.3 0.2l-0.6 -1.1l-1.9 -1.4l-1 0.6l-0.5 1.3l0.1 1.1l0.7 1l0 1l0.2 1.5l1.1 0.3l-1.4 1.4l-0.6 1.1l0.7 1.8l0.3 1.6l0 1.5l-0.3 1.1l-0.6 2.4l-0.9 1.2l-1.6 0.8l-0.3 1.4l0 3.7l0.5 2.2l1.2 0l1.4 0.2l1 0.2l0.8 1.3l1 1.5l-0.1 1.1l0.2 1.5l0.6 1.5l-2.1 1.8l0.4 2.2l0.4 1.1l0.1 1.8l0.5 1l0.5 1.3l0.2 1.3l0.7 1.4l0.4 1.3l1.2 0.7l2.4 2.8l1.1 1.3l1.1 0.5l1.2 0.6l1 -0.1l1.1 1l1.5 1l-5.7 1.8l-8.2 1.7l0.4 2.7l-1.5 0l-0.7 1.5l-2.7 0.2l-1 0.4l-2.3 0.8l-1.1 0.1z"/><path data-zip="04927" d="m339 944l0.1 1.8l-0.1 1.4l0.7 2.4l0.1 2.7l0.3 1.6l1.5 2.2l0.9 2.4l0.6 1.2l2.2 1.2l2 2.6l1.7 1.7l1.2 1.9l32 6.1l-1.7 -9.2l1.3 -1l-0.2 -1.8l-0.2 -1.5l0.9 -1.2l0.6 -1.3l1.4 0.3l1 -2.1l0.6 -1.5l-8 -1.5l-0.4 -5.3l1.4 -0.3l1 -5.2l-1.4 -0.3l0.7 -3.3l-3.2 -0.7l-29.6 5.4l-7.3 1.5z"/><path data-zip="04930" d="m388.2 840.5l0.1 2.1l0.4 1.6l2 0.7l7.7 0.5l0.4 1.9l3.2 -0.6l11.5 -2.2l3.3 -0.8l26.9 -5.4l-0.8 -4l-4.9 -25.9l-30.5 5.8l-5.2 1l0.5 1.4l0.2 1.2l0.8 1.1l0.5 1.6l-1.1 0.1l-1.6 0.5l-1.3 -0.4l-1.1 1.8l-0.3 1.3l-0.5 1l1 0.5l-1.1 0.4l-1 0.6l-0.8 1.6l-1.1 1.1l-0.1 1.1l-1.1 1.1l-1.4 0.3l-1.5 1.7l-1.6 1.5l-1 1.7l-0.6 1.1l-0.2 1.2l0.3 1.5z"/><path data-zip="04937" d="m302.8 952.1l8.9 25.8l0.5 1.5l18.9 4.1l12.3 2.6l2.2 0.5l2.2 -1.2l1.1 -0.3l1.2 -2.5l-0.2 -1.3l-0.6 -1.7l-0.1 -1.2l0.2 -1.2l0.5 -1.1l2.1 -3.6l0.4 -1l0.3 -1.2l-0.7 -1.8l-1 -0.7l-1.6 -2.5l-1.2 -1.1l-2.1 -2.9l-1.9 -0.9l-1.3 -1.8l-0.5 -1.6l-1.6 -2.4l-0.6 -2.2l-0.1 -2.7l-0.6 -1.5l0 -2.3l-0.1 -1.2l-0.6 3.2l0.6 1.7l0.5 4.4l-1 -0.2l-1.1 0.5l-1.1 -1.7l-0.8 -1.1l-0.7 -1.7l-0.6 -1.2l-0.5 -1.1l-1.9 -1.5l-16.6 2.8l-0.5 -2.5l-0.1 2.7l-1.5 5.3l-10.3 -2z"/><path data-zip="04938" d="m192.1 934.4l2 11.2l3.4 8.2l2.5 6.1l9.8 14.5l5.6 5.9l-1.4 0.3l-1.3 1.1l-1.6 0.7l3.2 17.7l2.5 17.6l21.4 0.7l-0.1 -1.4l-0.6 -1.9l1.5 -1.7l0.4 -1.5l0.4 -1.4l-1.1 -1.8l-8 -5.6l0.1 -1l1.1 -2.2l1 -1.5l0.8 -1.2l0.2 -1.2l1.2 -1.1l0.1 -1.1l1 -1.1l0.7 -1.9l1.3 -2.1l0.4 -1.3l0.3 -1.3l0.2 -1.1l-0.4 -2.4l-0.5 -2.5l-0.3 -1.1l-0.6 -1.1l-0.2 -1.2l-0.7 -1.3l-1.1 -1.2l0.2 -1l0 -1.1l-1.1 -0.3l-2 0l-1.2 -0.1l-1 0.2l-1.4 1.5l0.3 -1.2l0.1 -1.2l-1.6 1.8l-1 -0.1l1 -2.8l-1 -1.1l-1.5 -1.9l1.1 5.55112e-17l1 0.8l1.3 2l2.1 1.6l1.7 0.2l-0.9 -4.7l-0.2 -1l-2.6 -14.4l1.8 -0.3l2 -1.7l-2.3 -1.6l1.5 -2.1l-0.6 -1.2l1 -1.1l0.6 -2l3.8 2.7l5.5 -0.9l1 -0.6l3.5 -0.1l-0.2 -1.1l1.6 -0.2l-2.6 -16.9l2.5 -0.3l-0.4 -5.1l1.1 -0.1l-0.6 -5l-3.1 0.5l-1.3 -7.9l-1.6 0.2l-0.8 -4.5l-14.2 2.5l3.1 17.7l-12.1 1.6l-2.7 0.3l1.2 6.7l-10 1.5l-5.2 0.3l-9.2 2z"/><path data-zip="04943" d="m344.4 881.6l0.9 9.6l18.5 -2.2l2.5 11.6l0.2 4.8l3 -0.6l7.5 -1.5l-1.4 -7.3l2.6 -0.5l0.8 -1l7.8 -0.7l-2.4 -11.1l1 -0.2l0.8 1.2l-0.5 -1.3l-0.2 -5.1l-4.5 0.8l-0.7 -1.9l-1 -0.6l-0.5 -1.1l0 -1.5l0.1 -1.4l-0.2 -2.2l0 -2l0.4 -2l-0.2 -1l0.5 -1.6l0.4 -1.5l-20.3 4.1l-0.1 1.3l-0.8 1.3l-1.7 0.1l-1 -0.1l1.2 1.7l-1.2 -1l-1.3 -0.6l0 1.6l-0.5 1.1l-1.3 0.7l-1.2 0.1l-1.2 -0.2l-1.7 0.6l-0.5 1.1l-0.9 1.5l-0.6 1.1l-0.6 1l-0.5 1.4l0.5 1.6l-1 0.9l-0.3 1.2z"/><path data-zip="04950" d="m275.4 905.1l1.3 3.5l-0.5 1.2l0.3 1l0.6 1.1l-1 0.9l0.1 1.1l0.1 1.5l0.4 1.6l0 1.7l-0.5 1.6l2.6 -2l1.3 -1.2l1 0.6l-0.3 1.9l27 -4.9l5.7 -0.9l1.6 -0.3l2.5 -0.4l-0.5 -3.9l-7.1 -34.8l-26.7 4.8l-1 1.9l-0.2 1.1l0.3 1.2l-0.1 1l0.1 1.4l-0.2 1.3l-0.2 1.5l0.4 1.8l-1.3 0l-0.8 1.7l-1.2 0.4l-0.4 2l0.6 1.1l1.1 0.8l0.7 -1l1.2 1.8l-0.1 1l-1.1 -0.6l-1.2 1.4l0.4 1.7l0.4 1l-0.5 1.5l-1.6 0.3l-2.1 0.9z"/><g data-zip="04953"><path d="m439.2 903.9l-1.6 0.3l1.8 0.3z"/><path d="m419.7 876.1l0.7 4l0.8 3.3l4.5 23l11.9 -2.2l-0.3 -1.5l1 0.9l1.3 -1.4l-0.2 1.1l7.6 -1l1 0l7.3 -1.6l-5.6 -29.8l-30.1 5.1z"/></g><path data-zip="04957" d="m256.5 957.1l0.1 1.4l5.1 3.6l4.1 12.9l13.8 -2.6l5.3 -1.1l0.2 -1.3l-3.1 -6.7l0 -1l-0.6 -1.3l-0.4 -1l0.2 -1.7l1 0.7l1.1 0.7l1.4 1.2l1.7 1.2l0.6 1l1.4 2.2l1.1 1.4l1.4 0.7l1 -2l4 -11.4l-0.9 -1.3l1.6 -0.4l1.2 -0.6l2.3 -0.4l2.6 0.6l10.3 2l1 -5.2l0.6 -2.8l-3.8 -19.1l2.1 -1.8l-1.6 -1.6l-1.9 -2.2l-1 -2.1l1.8 -1.9l-2.4 -2.9l-27 4.9l1.2 -1.1l-1.9 -1.4l-1.3 1.2l-1.8 1.9l-1 1.5l-1.2 0.7l-1.9 -0.2l-0.3 1.2l1.3 0.3l1.1 1.5l-1.7 -0.7l-0.8 1l0.2 1l1.1 0.5l1.1 1.2l-1.1 2.7l-0.3 2l1 0.7l2.3 -0.9l-0.3 1.2l0.1 1.1l-0.2 1.3l-2.1 1.6l-0.2 1.1l-2.5 1.5l-1.2 -0.1l-1.5 -0.3l-0.9 1.9l-1 0.8l-1 0.2l-1.7 -1.6l-1.7 -0.5l-1.4 1.4l-1.2 0.7l-1.1 0l0.2 1.5l-0.2 1.1l0.3 1.6l-1.6 1.4l0.7 1.9l-0.2 1.1l-1.1 1.1l1.6 1.5l0 1.5l0 1.1l-1.1 0.7l-1.1 -0.7z"/><path data-zip="04958" d="m240.4 887l0.4 2.6l2.9 -0.5l1.1 1.2l1.1 1.6l0.4 2l1.7 -0.3l4.3 -2.2l1.2 -0.3l3.2 0.1l0.7 -2.6l1.1 -1.8l1.8 0.1l1.4 2.1l1 1.4l1.5 -1l4.9 5l0.7 -1l1.4 -1.9l0.4 1.5l0.6 2.9l-0.8 1.3l0.5 1.1l1.3 1.2l1.3 1.4l-0.7 2.8l1.1 0.4l0 1.3l1.4 -1.5l1.3 -0.7l1.9 -0.2l1 -1.3l-0.4 -1.5l-0.4 -1.7l0.3 -1.1l1.7 0.4l0.4 -1.1l-0.4 -1.6l-1.1 0.5l-1.5 -0.5l-0.6 -1.1l-0.1 -1.1l1.2 -0.9l1.3 -2.1l1.3 0l-0.4 -1.8l0.2 -1.5l0.2 -1.3l-0.1 -1.4l0.1 -1l-0.3 -1.2l0.2 -1.1l1 -1.9l1.4 -0.9l0.4 -1l-0.6 -1.4l-0.5 -1.3l-0.1 -1.9l0.1 -1l-0.1 -1.1l0.7 -1.4l0.1 -1.2l-0.9 -1.5l0 -1l-0.9 -2.7l-1.3 -0.3l-0.5 -1.8l0.3 -1.9l0.1 -1.6l-1.2 -2.2l0.6 -1.6l0.4 -1.3l-0.3 -2.6l-1.1 -1.2l-19.6 2.9l-15.1 2.7l3.2 21.6l1.2 0.7l1 2l0.4 1.5l0.6 1.9l-1.7 0.4l0.3 3.3l-9.9 1.8z"/><g data-zip="04963"><path d="m301 980.8l-1.4 5.8l2.6 0.5l-0.3 1.8l1 0.8l0.4 1.8l3 1.5l-1 3.9l-0.1 1.4l-0.5 1.8l-1.5 0.9l-0.5 1l-0.2 1.9l-0.7 1.6l-0.9 1.6l6.8 1.5l1.1 0.2l1.1 -0.7l0.1 1l6.7 1.6l8.4 -10.7l1.3 -1.7l1.6 -2l1.2 -1.6l0.9 -1.3l0.3 -1.3l0.3 -1.5l-1 -0.2l1 -4.1l-0.5 -1.3l0.3 -1.2l-18.3 -4.4l-0.5 -1.5l-7.9 -1.9l-2.7 4.9z"/><path d="m262.1 1004.5l-0.5 2.6l4.3 1.1l2.1 0.4l2.2 0.5l2 -1.5l0.5 -1.6l1.1 -0.2l2.3 -2.8l1.2 0.9l1.2 0.8l1.2 -1l0.5 -1.2l0.1 -1.1l-0.1 -1.5l-0.4 -1.6l-0.8 -1.7l-0.2 -1.3l0 -1.1l0.2 -1.3l0.3 -1.3l1.1 -0.9l1.2 0.3l0.7 1.1l0.4 1.4l0.5 1.3l0.8 1.1l1.8 1l1.7 0.2l1.1 -0.8l0.9 -3l1.2 -1.9l0.7 -1.3l1 -1.3l1.5 -0.9l-0.3 -1.3l-0.3 -1.1l0.8 -1l-0.5 -1.2l-0.1 -1l0 -1.3l0.4 -1.2l-1.2 -1l0.3 -1.1l-0.4 -1.2l-1.3 -0.1l-6.3 -4.7l-4.4 0.9l-14.7 2.8l0.7 2.3l-4.7 7.5l3.5 0.8l-2 4.1l1.2 0.2l-2 10.3l-0.8 4.1z"/></g><path data-zip="04967" d="m366.5 905.3l1.6 8.4l3.9 6.6l1.5 7.2l4.1 1.5l-1.7 8.1l3.2 0.7l-0.7 3.3l1.4 0.3l-1 5.2l13.5 -2.8l-0.1 -2.4l0.4 -1.1l0.1 -1l0.2 -1.5l1.6 -1.8l0.9 -1.4l1.3 -0.8l1.1 -0.8l-0.1 -1.2l-0.6 -1.7l-0.2 -1.4l1 -1.2l1 0.3l0.3 -1.6l1.5 -0.9l1.7 0l1 -0.2l1.1 0.4l1.2 0.7l2.1 0.4l1.3 0.3l1.2 -0.2l0.4 -1.7l0.6 -1.1l1 -1.7l-1.6 -1.7l0.7 -2.2l-2.1 0.2l-2.2 -0.4l-0.7 -2l-1.3 -3.9l1.9 -2.4l-2.5 0.5l-1.3 -4.1l-1.2 0.2l-12 2.2l-3.5 -15.2l-7.6 1.5l-1.1 -0.3l-2.5 1l1.4 7.3l-6.6 1.4l-3.9 0.7z"/><path data-zip="04974" d="m498.9 1016.6l1.4 0.6l0.1 4.8l0.9 2.9l1.3 3.1l1.3 3.3l1.4 6.6l1.9 -0.7l1.6 0.8l1.2 -2l1.7 -1.5l1 -2.3l0.3 -2l1.3 -1.8l1.3 1l1.1 -0.2l1 1.2l1.7 -0.4l2.1 2.4l0.3 2.5l1.1 2.5l1.5 0.9l1.3 -0.6l1 -1.6l1.5 -1.9l-0.4 -2.4l-0.5 -4.3l-0.1 -1.2l0.4 -1.6l1.1 -1.7l0.5 -1.1l-0.3 -1.5l-1.2 -2l-3.2 -2.1l-1.1 -2.2l-1.7 -1l0.8 -1.2l-7.2 1.3l-3.9 -17.9l-1.5 -1.1l-0.4 -1.4l0.4 -1.2l-8.2 1.3l-2.6 0.5l2.5 12.4l0.4 1.6l0.2 1.4l1 4.9l-3.3 2.5l-1.3 0.8z"/><path data-zip="04976" d="m307.8 914.7l2.4 2.9l-1.8 1.9l1.5 1.6l1.4 2.7l1.6 1.6l-2.1 1.8l3.8 19.1l0.5 2.5l16.4 -3.4l5.6 -1.1l1.1 0.2l8.1 -1.9l-0.1 -1.2l1.2 -0.8l0.6 -1.3l1 0l1.4 2.77556e-17l1.4 -0.4l-0.3 -1.1l0.4 -1.2l-0.6 -1.4l-0.1 -1l-0.7 -1l0.2 -1.2l0.9 -1l-1 -1.1l-1.2 -0.3l0.4 -2.7l-0.2 -2.8l-1.8 -15.3l-2.7 -17.6l-1.8 -9.4l-2.6 -13.1l-19.5 3.6l-11.4 2.1l7.1 34.8l0.8 3.9l-2.8 0.4l-1.2 0.2l-6.1 1z"/><path data-zip="04988" d="m381.5 963.6l0.8 9.4l5.1 1l-2 10.2l8.7 1.9l-1.8 9.6l10.9 2.2l19.9 3.7l2 -7.2l0.2 -5.9l-0.2 -3.2l-0.7 -1.7l0.3 -7.6l-0.1 -6.6l-3.2 -7.9l-6.6 -1.4l-4.2 6.6l-12.4 -1.9l-16.6 -2.3l0 1.2z"/><g data-zip="04992"><path d="m210.5 957.1z"/><path d="m209.7 956.6z"/><path d="m208 956.3l-0.3 1.1l1.3 -0.5z"/></g></svg>
