<?xml version="1.0" encoding="UTF-8"?><!DOCTYPE svg PUBLIC '-//W3C//DTD SVG 1.1//EN' 'http://www.w3.org/Graphics/SVG/1.1/DTD/svg11.dtd'><svg viewBox="0 0 1000 913.048" xmlns="http://www.w3.org/2000/svg"><path data-id="22001" d="m270 608.3l1.3 2.9l-0.6 3.6l1.1 9.6l-0.8 2.5l2.3 3.4l6.1 3.1l-1.5 -0.1l0 4.3l-5.3 1.7l2.1 3.6l-2.6 2.3l-1.3 3.1l2 6.5l-1.4 2.6l1.9 0.8l2 -2.1l3.3 0.5l5.8 -4.4l4.3 1.8l5.5 6.3l6.9 3.8l8.9 2.8l9 -3.8l8.4 -7.7l1.8 -3.5l4.8 -4.3l1.7 -2.8l2.6 0.7l5.5 -8.7l-0.8 -3.9l3.2 -3.7l4.6 -1.5l-0.1 -3.3l6.5 0.1l0 -6.4l3.3 0l-0.1 -3.3l3.3 0l0 -3.2l0.1 -4.9l-3.2 0l0 -4.8l-3.3 -1.6l-0.1 -11.3l-0.1 -4.9l0 -3.1l-13 0l-0.1 -9.7l-3.8 0l-28.5 0l-15.2 -0.1l-25.6 0l5.1 9.6l1.2 3.8l-1.8 4.5l-0.8 3.1l-4.1 1.5l1.9 8.6l-2.4 5.7z"/><path data-id="22003" d="m174.6 546.3l-0.1 37.7l12.5 -0.2l0 -3.2l55.5 0.2l0.3 -11.2l27.5 0.1l3 -4.3l-1.7 -2.3l3.5 -2.5l4.3 -8.4l-2.8 -3.7l-0.1 -69.5l-23.2 -0.5l-20 1.9l0.1 3.2l-29.6 -0.6l0.1 9.1l0.2 1l-0.5 52.1l-28.9 0.1l-0.1 1z"/><path data-id="22005" d="m561.9 653.9l0.1 10.1l3.2 0l0 -3.1l2.8 -1.1l3.5 2.5l9.6 -1.9l4.1 3.1l3.9 -0.3l5.4 -4.3l4 -5.1l-0.2 -1l8.9 -1.9l30.9 -7l12.6 -2.9l1.8 -12.2l-3.2 -2.4l-2.1 1.5l-0.2 2.6l-3.3 1.6l1.1 1.9l-4.1 5.1l-1.7 -2.4l-3.1 -0.9l-0.6 -3.7l-2.3 -1.2l0.6 -2.1l-3.4 -4.5l-3.6 0.3l-1.3 -2.2l-3.1 -3.8l1.2 -3l-5 1l-2.5 -3.8l-1.3 -5.7l-3.9 -2.7l-1.4 -2.9l-6.4 -0.3l-3.7 1.3l-2.4 -1l-12.2 -0.3l-1 0.6l-4.1 1.8l-0.6 1.9l-0.7 1.1l-4.6 15.5l-2.8 8.6l-2.7 11.6l-3.2 4.3l0.1 7.2l-3.2 0.1z"/><path data-id="22007" d="m532.7 677.8l0.8 6.3l0.7 3.1l3.8 4.8l-0.1 3.9l3.4 2.3l2.6 10.1l2.5 2.9l7.1 2.6l3.3 -0.1l4.5 2.9l3.2 4.9l-1.4 3.6l1.1 4.5l-0.2 6.1l-2.1 0.8l1.3 7.5l-1 12.4l3.7 1.8l0.7 1.9l14.5 -19.5l11.3 -17.1l4.4 -8.4l2.8 -10.3l4.6 -0.1l0 -6.1l-0.1 -4.1l-0.1 -2.6l-7.6 0.2l0 -9.6l-6.5 0.1l0.1 -12.7l-0.8 -6.8l-3.9 0.3l-4.1 -3.1l-9.6 1.9l-3.5 -2.5l-2.8 1.1l0 3.1l-3.2 0l-22.7 8.2l-2.2 5.3l-4.5 0.2z"/><path data-id="22009" d="m337.2 463.5l0 6.5l8.1 9.8l0.1 9.8l4.8 -0.1l16.8 -0.3l18.4 0.1l40.9 0.3l-1.5 -1.8l3.6 -1.6l0.8 -13.6l-1.1 -10.7l1.8 -2.3l3.1 -0.9l1.2 -3.6l4.6 -3.6l0.5 -1l4.5 -4.7l2.6 -7.6l-1.1 -3.4l2.5 -2.8l-3 -6.5l1.8 -4.3l1.3 -1.8l3 0l1.9 -5.8l-2.6 -3.1l-3.3 -1.6l-2.6 2.1l-3.2 -1l-3.8 -4.1l-3.7 0l-6.4 -3.4l-0.6 -3.1l-3.8 -3.4l-3.9 0.5l-2.8 -3.7l-7.5 -3.6l-4.9 1.6l-2.3 4l2.1 7.5l2.9 1.5l-3.9 2.3l-1.1 -4.1l-3.1 -0.6l-2.1 3.8l-3.5 -0.2l0 -2.9l-2.3 -1l3.1 -1.2l-2.9 -2.2l-1.3 -5.3l-1.9 0.5l0.6 -4.9l1.1 2.2l2.8 -1.6l-2 -1.6l1 -2.5l-1.2 -1.8l-3.4 -3.9l-10.6 4.2l-1 -2.5l-1.7 2.5l-5.8 4.1l-6.9 0.6l-2.7 -1.7l-0.3 -2.7l-3 -2.4l-3.3 1.5l-2.1 -1l-2.2 2.3l-0.1 38.1l1.7 2.2l-1.8 2.3l0.4 3.4l1 9.3l2.1 18.7l1.5 6.4l-13.9 -0.6z"/><path data-id="22011" d="m58 558.3l1.4 2.1l1 1l2.6 1.6l0.8 2.7l-1.3 2.8l2.1 8l1.5 3.1l-0.9 3.1l-3.8 2l-3.4 4.1l48.6 -0.1l0 -4.2l0 -12l0 -3.3l19.5 0.1l0 6.5l-0.1 12.9l48.6 -0.1l0 -4.6l0.1 -37.7l0.1 -1l28.9 -0.1l0.5 -52.1l-0.2 -1l-0.1 -9.1l-29.7 0l-4.1 -1l-9.5 -0.1l-13.6 0l-21.2 0l-9.3 0.3l-4.4 3.4l-3.8 1.6l-4.2 -1.3l-4.3 -3.2l-6.1 0.5l-0.8 1.9l0.1 6.4l0.9 1.1l-0.1 2.3l-1.5 3.8l-1.5 1l-1.7 0.2l-1.1 1.2l-1 2.2l-0.1 2l-0.6 3.1l-2.9 1.4l-2.2 3.5l1.8 2.9l0 1.3l-0.3 1.1l-1 0.9l-0.9 2.2l-0.1 2l-1.7 3.4l-1.6 1.5l-3.2 0.6l-2.9 2.7l-2.4 3.8l-0.4 3.5l0.3 3.8l0.5 1.1l-0.1 1.5l-1.2 1l-1 -0.7l-3.7 1.3l-2.9 3.2l0 1.7l0.4 2.1l-0.6 2.7l-2.1 1.2z"/><path data-id="22013" d="m121.5 174.7l-3.8 3.3l41.1 0l0.4 9.8l3.7 3.1l0.9 6.8l47.5 0.1l23.8 0.2l-1.4 -3.5l1 0.2l3.5 -4.4l-0.4 -6.6l2.6 -1l2.7 -4.8l-0.3 -18.5l-0.5 -30.7l-19.5 -0.2l-0.2 -23.5l-0.1 -6.3l-11.1 0.2l-12.3 0.1l-33.7 -0.2l2 8l-0.6 5.3l4.8 12.8l-0.1 3.4l-17.1 0.2l0 10l-26 0l-3 3.1l-4.6 -1l-2.1 0.7l-0.2 4.6l4.1 1.9l-4.5 13.5l1.8 5.8l2 -0.2l-0.2 7.7z"/><path data-id="22015" d="m41.4 12l-3.6 3.7l4.1 0.9l4.1 3.3l-3.6 6.8l0.1 4l3.7 3l-0.3 2.5l-2.3 2l2.9 1.1l2.8 -2.4l-0.8 8l-1.7 3.3l-3.5 1.5l-1.4 2l1.4 2.3l2.6 -3.4l3.1 0.6l0.8 2.3l-1.5 5.7l-5.4 5.3l-1.4 4.4l1.4 1.3l3.2 -3.5l3 0.3l1 2.8l-0.9 9.9l2.3 -1.2l1.7 4.9l-2.9 0.9l-0.1 2.2l3.9 -0.6l1.9 4.8l-1.6 3.4l3.1 0.7l-4.9 1.6l2.3 1.8l3.3 -0.7l0.5 2.5l-3.4 3.4l0.2 2l2.2 -0.1l-2.8 4.4l-2.2 -1l5.6 6.6l6.4 3.5l-2.6 2l4 -1.3l-0.8 2.8l3.4 5.2l-1.5 2.2l3.4 1.9l2.4 3l-2.3 1.5l-1.3 -2.9l-2.2 2.4l1.6 1.2l4.4 0.2l-5 2.1l0.2 2.6l4.3 1.7l-0.9 -3.7l3.8 0.3l2.4 1.5l-2.9 4l4.2 -4.9l0.6 8.6l3.3 -1.9l-2.7 3.7l1.4 1.3l5.1 -0.1l1.2 4.6l3.7 -1l3.5 1.2l-1.5 1.6l1.5 3.2l1.2 -2.7l2 1.2l-2 4.1l4.6 -0.5l-2 5.2l6.2 1.9l0.4 5l1.9 0.3l-1.1 -3.4l4.6 1.7l-1.8 2.8l8.2 0.3l3.8 -3.3l0.2 -7.7l-2 0.2l-1.8 -5.8l4.5 -13.5l-4.1 -1.9l0.2 -4.6l2.1 -0.7l4.6 1l3 -3.1l-13.1 -0.1l0 -3.9l0 -15.9l-1 0l0.2 -33.2l0.1 -26.6l-4.8 -0.1l0.9 -2.3l-1.7 -2.6l2.7 -5.2l-1.4 -0.7l2.5 -2.8l-0.5 -3.1l-2.1 -3l2.4 -0.7l1.3 -3.6l-3 -0.4l-0.3 -2.5l-2.9 -2.7l-0.3 -2.5l2.4 -0.6l0 -3l-2.2 -2.2l-2.4 1.3l-3 -3.3l-2 -6.7l-2.1 -2.4l2.7 -6.1l-0.9 -3.7l-2.1 0l-36.7 -0.2l-15.6 0l-1.8 0l-2.1 1.7l1.5 8.3l-0.9 2l3.3 -1.5l0.8 1.9l-4.9 -0.3z"/><path data-id="22017" d="m0 74.4l0 8.6l0 2.7l0 4.9l0 2.7l0 10.4l0 1.1l0 9.8l0 2.5l0 2.8l0 1.4l0 1.4l0 1.7l0 7.5l0 1l0 7.9l0 1.9l0 4.3l0 2.2l0 21.3l0 11.6l0 5l10.1 0.1l7.4 0l5.9 -4.7l4.4 -2.4l7.1 -6.1l0.7 -6.2l1.7 -2.6l7.6 -4.8l0.1 -3.2l3 -2.8l6.8 -0.8l7.9 6.3l5.3 -0.1l3.9 -0.2l3 2.5l7 8.3l-0.1 7.3l27.4 0.1l1.8 -2.8l-4.6 -1.7l1.1 3.4l-1.9 -0.3l-0.4 -5l-6.2 -1.9l2 -5.2l-4.6 0.5l2 -4.1l-2 -1.2l-1.2 2.7l-1.5 -3.2l1.5 -1.6l-3.5 -1.2l-3.7 1l-1.2 -4.6l-5.1 0.1l-1.4 -1.3l2.7 -3.7l-3.3 1.9l-0.6 -8.6l-4.2 4.9l2.9 -4l-2.4 -1.5l-3.8 -0.3l0.9 3.7l-4.3 -1.7l-0.2 -2.6l5 -2.1l-4.4 -0.2l-1.6 -1.2l2.2 -2.4l1.3 2.9l2.3 -1.5l-2.4 -3l-3.4 -1.9l1.5 -2.2l-3.4 -5.2l0.8 -2.8l-4 1.3l2.6 -2l-6.4 -3.5l-5.6 -6.6l2.2 1l2.8 -4.4l-2.2 0.1l-0.2 -2l3.4 -3.4l-0.5 -2.5l-3.3 0.7l-2.3 -1.8l4.9 -1.6l-3.1 -0.7l1.6 -3.4l-1.9 -4.8l-3.9 0.6l0.1 -2.2l2.9 -0.9l-1.7 -4.9l-2.3 1.2l0.9 -9.9l-1 -2.8l-3 -0.3l-3.2 3.5l-1.4 -1.3l1.4 -4.4l5.4 -5.3l1.5 -5.7l-0.8 -2.3l-3.1 -0.6l-2.6 3.4l-1.4 -2.3l1.4 -2l3.5 -1.5l1.7 -3.3l0.8 -8l-2.8 2.4l-2.9 -1.1l2.3 -2l0.3 -2.5l-3.7 -3l-0.1 -4l3.6 -6.8l-4.1 -3.3l-4.1 -0.9l3.6 -3.7l4.9 0.3l-0.8 -1.9l-3.3 1.5l0.9 -2l-1.5 -8.3l2.1 -1.7l-40.2 0l-2.2 0l-1.1 0l-0.3 14.5l0 4l0 6.4l0 2.5l0 1.4l0 2.7l0 2.1l0 16.9l0.1 2.4l0 1.5l0 2.8l0 17.1z"/><path data-id="22019" d="m53.1 604.1l1.1 0.8l4.1 5.8l2.8 1.9l1.1 0l1.4 0.8l0.9 2.3l-0.1 1.3l0 5.6l0.3 1.3l-1.5 4.2l-1.1 1.5l-0.3 1.9l0.7 3.6l1.3 2.8l1.3 1.5l0.4 1.7l0.7 2.9l1.8 2.6l-0.9 1.4l-1 -0.8l-0.8 5.8l-4.1 4.1l-1.7 1.2l0.2 1.7l2.9 2.7l2.7 0.8l0.5 1.4l-0.9 1.1l-3.2 0.3l36.4 0.3l36.1 -0.1l5.6 0l25.5 0l2.1 0.1l7.6 -0.2l0 3.1l25.3 0l0 -9.7l20.9 -0.2l-0.8 -2.9l-3.1 -3.6l0.2 -4l3.4 -2.8l-0.8 -2.9l-19.7 -0.1l-0.1 -23l-6.5 0l-0.1 -26.3l-10.8 -0.1l-8.4 -0.1l0 -1.1l0 -4l-48.6 0.1l0.1 -12.9l0 -6.5l-19.5 -0.1l0 3.3l0 12l0 4.2l-48.6 0.1l-1 1.2l-1.2 0.2l-1.2 1.3l0.3 4.3l-0.1 3.2l-1.8 5.1z"/><path data-id="22021" d="m331.2 198.3l-0.1 49.4l58.8 0l19.3 -0.1l-0.1 -9.9l2.9 0l-2.4 -5.5l1.5 -3.3l-1.6 -3.4l0.8 -3.3l-2 -1.4l-2.5 -4.5l-2.1 -0.1l4.2 -4.1l2.1 2l0.4 -2.1l5.7 -1.4l-1.2 -2.8l1 -2.6l-1.2 -2.7l-3.5 -2.4l-0.1 -3.1l-1.1 -0.3l1.1 -2.5l-3 -1.2l-4.2 0.9l-4.2 -1.9l-4.8 1.7l0.8 -2.5l-1.2 -3.6l1.4 -2.5l-4.8 3.1l-1.2 -2.5l5.4 -3.3l-1.3 -1.6l-2.6 2.6l1.1 -3.5l-2.5 -0.4l2.5 -7.9l-0.2 -3l-7.9 -0.1l-13.8 0.1l0.1 4.1l-8.9 0l-2.3 -4.1l-28.1 -0.2l-0.1 29.7z"/><path data-id="22023" d="m21.8 721.3l0.1 1.3l0.4 1.7l0.8 1l4.6 3l1.5 2.1l-0.6 1.9l0.4 1.9l3.3 1.5l2.1 3l4.8 7.4l3.6 -3l3.8 -2.5l6.4 -3.1l4.6 -1.5l11.2 -2.4l9.2 -1.2l8.5 -0.6l10 -1.7l12.1 -1.3l6.9 0.1l11.2 0.7l6.5 0.7l9.7 -2.7l5.4 -0.7l7.8 0.1l9.6 1.6l17 4.7l10.9 2.8l7.3 2.8l8.7 3.3l12.9 6.3l17.9 8.6l8.6 4.2l16.5 5.7l7.2 2.2l0.6 -41.4l-0.3 -58.3l-23.5 0.2l-3.4 -0.4l-45.9 0.2l-25.3 0l0 -3.1l-7.6 0.2l-2.1 -0.1l-25.5 0l-5.6 0l-36.1 0.1l-36.4 -0.1l-3.2 3.3l-0.3 1l-0.1 1.9l-9.1 7.3l-4 7.9l-1.1 4.3l-0.5 3.2l-0.5 1.3l-2.2 4.5l-1.5 2.5l-3.1 3.9l-1.8 1.7l-1.7 1.2l-3.5 1.9l-1.9 1.4l-3 2.6l-1.2 1.4l-1 2l-0.2 1.5z"/><path data-id="22025" d="m387.8 388.1l-0.6 4.9l1.9 -0.5l1.3 5.3l2.9 2.2l-3.1 1.2l2.3 1l0 2.9l3.5 0.2l2.1 -3.8l3.1 0.6l1.1 4.1l3.9 -2.3l-2.9 -1.5l-2.1 -7.5l2.3 -4l4.9 -1.6l7.5 3.6l2.8 3.7l3.9 -0.5l2 -2.5l0 -3.5l-3.3 0.2l-4 -2.2l-1 -3.1l0.8 -8.6l3.5 -4.8l2.6 -0.7l4.5 1.9l3.6 -0.9l2.4 -2.4l-1.7 -2.2l-6 -0.1l-5.5 -3.1l-2 -3.2l-1.6 -9.5l1.6 -3.1l0 -3.5l1.5 -1.3l2.7 0.2l1.9 2.3l3.3 11.6l4.3 -0.6l3.5 1.8l5.4 0.4l2.7 -1.6l0.6 -2.4l-1.3 -3.2l-2 -0.9l-7.8 -0.2l-3.8 -1.2l-0.6 -4l3.4 -2.5l1.4 -2.9l-0.5 -3.5l-6.4 -5.4l-2.6 -4l0.3 -5.7l0.8 -1.9l1 -2.7l1.7 -2.8l6.1 -4.1l3.6 5.9l3.6 1.9l1.8 -1.7l4.2 -4.8l-1.6 -7.4l2.4 -6.1l1 -6.5l2 -2.3l1.4 -0.2l3.1 3.1l5.1 0.1l4.2 -3.7l2.4 -3.7l3.4 1.4l2.5 4.7l4.4 2.8l2 -2.1l0.3 -2.5l-1.6 -2l-6.3 -9.9l1.7 -7l-1.3 -12.5l-4.1 0l0 -19.6l-9.7 -0.2l-1.4 4.6l-2.9 5.6l-2.3 0.4l-2.8 4.5l-4.9 2.3l-1.3 2.4l-5.3 -0.5l-4.4 2.9l0.2 -3.6l-5 -1.2l1.9 -2.2l-1.9 -3.5l-3.6 0.1l-5.1 -6.1l1.1 -1.9l-8.6 -4.1l-2.9 0l0.1 9.9l-19.3 0.1l-0.5 29.5l-0.1 34.5l0 6.1l0.1 65l1.2 1.8l-1 2.5l2 1.6l-2.8 1.6l-1.1 -2.2z"/><path data-id="22027" d="m153.9 0.3l0.2 68.7l9.7 -0.1l0.1 10l2.4 9l-0.8 2.4l-0.2 8.6l33.7 0.2l12.3 -0.1l11.1 -0.2l2.7 -5l1.2 -7.7l-1.6 -8.3l3.2 -4.2l2.4 -3l2.2 -1.1l-0.1 -10.1l19.7 -0.2l0 -10l-1.7 0l0 -3.3l1.7 0l0.1 -44.8l-1.6 0l-12.1 -0.1l-6.6 -0.2l-2.5 -0.1l-1.9 0l-2.6 0l-15.1 -0.2l-4.7 -0.1l-3.4 0l-15.7 -0.1l-2.1 0l-3.7 0l-3.6 0l-6.6 0l-8.2 0l-3.5 -0.1l-4.4 0.1z"/><path data-id="22029" d="m417.1 376.5l-0.8 8.6l1 3.1l4 2.2l3.3 -0.2l0 3.5l-2 2.5l3.8 3.4l0.6 3.1l6.4 3.4l3.7 0l3.8 4.1l3.2 1l2.6 -2.1l3.3 1.6l2.6 3.1l-1.9 5.8l-3 0l-1.3 1.8l-1.8 4.3l3 6.5l-2.5 2.8l1.1 3.4l-2.6 7.6l5.2 1.1l7 -1.1l2 1.5l1 3.3l-2.7 6.3l-0.9 2.2l0.1 3.1l2.6 -2.9l2.3 -3.6l2.3 -1.3l3.6 -1.3l3.1 -1.4l2.3 -1.5l1.3 -1.3l1.4 -2.1l0.6 -1.6l0.3 -1.7l-0.3 -1.5l-0.5 -1.3l-5.9 -5.4l-2.8 -2.3l-1 -0.6l-1.3 -1.4l-0.9 -1.5l0 -2.7l0.3 -1.1l3.8 -4.7l0.9 -1.1l1.6 -3.1l0.5 -1.2l0.1 -2.3l-0.2 -1.1l-1 -1.9l-1.3 -1.5l-4.5 -3.9l-3.7 -1.9l-1.5 -1.9l-0.6 -1.7l0.2 -1.3l1 -1.4l1.4 -1l3.8 -0.2l2.8 0.4l3.6 0.7l2.5 0.3l2 -0.1l2 -0.3l3.1 -1l3.7 -1.8l1.3 -2l0.6 -1.7l0.2 -4.7l-2 -2.4l-2.5 -1.9l-0.8 -1.4l-1.8 -1.2l-0.6 -2.3l-0.4 -1.5l0.2 -3.5l0.6 -1.1l-1.1 -1l-1.5 0.2l-1.6 1.6l-0.4 -1.6l-0.5 -1.4l-0.8 -1.8l0 -1.1l0.4 -1.5l1.2 -2l2.9 -2l1.2 -0.9l1.3 0.2l0.9 1.7l-0.5 1.4l1.4 6.2l1 2.1l1 1.3l1.1 1.1l1.5 0.9l5.5 0.3l1.2 -1.4l0.3 -1.3l-0.2 -1.2l0 -2.1l0 -1l-1.5 -1.9l-1.9 -1.9l-1.9 -1.7l-1.2 -2.5l-0.8 -1.7l-0.6 -1.2l-0.3 -1.1l-0.4 -2.5l-0.2 -5.1l0.2 -3.3l0.4 -1.1l0 -1.5l-1.1 -0.7l-0.4 -1l0.1 -1l1.3 -2l1.8 -0.5l1.3 0.1l2 -0.4l1.1 0.4l6.5 -1.6l1.2 -0.6l1.2 -0.8l2.1 -1.9l2.2 -1.7l1.3 -1.6l0.4 -1.6l0.3 -3l-1.7 -1.3l-1.9 -0.4l-1.5 0.1l-1.1 0.3l-4.1 1.7l-1.7 0.3l-2.5 0.1l-1.1 -0.2l-1.8 -0.9l-1.7 -1.2l-2 -2.5l-0.6 -1.1l-0.2 -1.6l0.2 -2l0.8 -1.7l1 -1l1.5 -1.3l1.2 0.1l1 1.6l0.9 1.2l1.6 1.4l2 1.1l5.2 1.7l1.4 0.3l1.6 0l3.9 -2l0.5 -1.3l0.4 -2.9l0.1 -1.1l-0.4 -4.2l-0.4 -5.7l0 -2.2l0.4 -2.6l3.3 -5.1l0.6 -3.4l-3.9 -1.3l-16.6 0.5l-11.4 -0.2l1.6 2l-0.3 2.5l-2 2.1l-4.4 -2.8l-2.5 -4.7l-3.4 -1.4l-2.4 3.7l-4.2 3.7l-5.1 -0.1l-3.1 -3.1l-1.4 0.2l-2 2.3l-1 6.5l-2.4 6.1l1.6 7.4l-4.2 4.8l-1.8 1.7l-3.6 -1.9l-3.6 -5.9l-6.1 4.1l-1.7 2.8l-1 2.7l-0.7 1.5l-0.4 6.1l2.6 4l6.4 5.4l0.5 3.5l-1.4 2.9l-3.4 2.5l0.6 4l3.8 1.2l7.8 0.2l2 0.9l1.3 3.2l-0.6 2.4l-2.7 1.6l-5.4 -0.4l-3.5 -1.8l-4.3 0.6l-3.3 -11.6l-1.9 -2.3l-2.7 -0.2l-1.5 1.3l0 3.5l-1.6 3.1l1.6 9.5l2 3.2l5.5 3.1l6 0.1l1.7 2.2l-2.4 2.4l-3.6 0.9l-4.5 -1.9l-2.6 0.7l-3.5 4.8z"/><path data-id="22031" d="m0.1 200.2l0 2.9l0.1 1.2l-0.1 14.4l0 12.8l0.2 1.5l2.4 -0.8l2 1.1l1.1 2.1l6.8 12.5l1.1 1.4l3.5 2.2l1.9 0.5l1.1 0.4l1.1 2.6l1.6 1.3l1.5 -0.7l1.2 -0.1l1.6 1.6l-0.1 1.3l0.9 1.5l1.5 1.3l0.2 2.4l0.8 2.1l71.5 0.5l13.3 0l0.1 -15.4l4 -4.6l2.3 3.4l5.7 -3.1l4.3 0.1l-2 -0.8l-1.3 -5.8l-6.5 -5.9l-6.7 -0.3l-3.6 -7l-4 -2.7l0.2 -5.6l-4.1 -1.3l-1.8 -3.5l-5.9 -6.2l3.6 -4.5l2.5 -1.5l-2.1 -2.8l-1.1 -8.5l-1.8 -2.5l-4 0.2l-6.9 -3l-0.8 -2.9l-3.4 -4.4l0.1 -7.3l-7 -8.3l-3 -2.5l-3.9 0.2l-5.3 0.1l-7.1 -5.4l-7.6 -0.1l-3 2.8l-0.1 3.2l-7.6 4.8l-1.7 2.6l-0.7 6.2l-7.1 6.1l-4.4 2.4l-5.9 4.7l-7.4 0l-10.1 -0.1l0 6.6l0 2l0 4.6z"/><path data-id="22033" d="m522 546.1l0.2 3.4l1.6 1.3l7.4 0.1l4.6 4.3l-0.6 3.8l-7.3 4.6l0.6 2l3.6 0.2l5.1 -1.9l5.1 -2l1.6 1.2l0.7 2.4l0.2 10.9l0 1.1l0 2.9l-0.6 3.8l-1.7 4.1l-4.9 6.3l-1.5 3.9l1.1 2.9l11.7 0.1l4.5 1.5l1.7 3.1l0.8 1.4l7.5 -0.5l13.4 0.8l1.5 -1.3l0.7 -1.1l0.6 -1.9l4.1 -1.8l1 -0.6l12.2 0.3l2.4 1l3.7 -1.3l-1.1 -0.6l-1.7 -2.9l-5.9 -1.2l-2.3 -6.2l-4.4 -0.7l1.3 -3.8l-3.2 -1.9l1.7 -3.2l-3.5 -5.4l2.9 -1.2l1.7 -8.2l-2.7 -3.9l0.2 -3l1.5 -1.2l0.3 -4.8l-2.7 -4.9l2.6 -2.7l7.2 -3.5l-1.2 -1.6l5.7 -6.6l7.6 -9.8l5.1 -3.3l-0.9 -2.5l-39.1 1.6l-38.5 1.5l-2 1.5l-1 3.9l-3.5 0.7l-1.7 6.3l0.7 1.8l0.3 2.2l-1.7 4.9l-2.6 3.4z"/><path data-id="22035" d="m499.8 104.5l-5.1 5.1l28.9 0l20.4 0l12.7 -0.1l4.8 -5.6l7.4 0l3.9 -2.5l1.1 -0.6l1.4 -0.7l1 -0.9l1.5 -1.9l1.3 -1.2l1.2 -1.1l1.1 -1.8l0.3 -1.1l0 -1.8l-0.7 -2l-1.4 -2.1l-2.2 -1.4l-2.4 2.3l-0.6 2.6l-0.3 1l-1.1 1.6l-0.2 1.4l-2.2 0.4l-3.5 1.1l-1.6 0.8l-3.4 1.4l-1.4 0.2l-1.1 1.1l-1.2 0l-1.9 -1.5l-1.1 -1.3l-1 -1.6l-1 -2.7l-0.4 -2.3l-0.1 -1.2l0.2 -2.2l1.5 -1.7l1 -0.4l1.5 -2.1l0.6 -1.5l1.8 -2l2.6 -1.9l1.1 -0.6l3.4 -1.3l1 -0.6l2.3 -2.1l1.3 -2.2l0.4 -1.5l-0.4 -1.5l-3.8 -1.5l-2.6 -0.8l-4.4 -0.9l-1.8 -0.6l-1.6 -0.1l-3.6 0.3l-1.6 -0.4l-1.3 -1.8l-0.1 -1.5l1.6 -4.1l0.1 -1l-1.4 -1.3l0.6 -3.2l0 -2.8l0.6 -2.2l1.2 -0.9l0.5 -1l0.9 -2.7l1.4 -1.4l1.9 -1.4l2.3 -0.2l2 -0.6l3.6 -3.4l3.1 -3.5l1.2 -2.8l0.1 -1.3l-0.2 -2.3l0.2 -1.4l-1.3 -3.1l-1.9 -1.6l-0.5 -1.1l0.5 -3.4l-1.2 -3.1l-0.8 -1.1l-1.1 -1.2l-1.8 -0.6l-1 0.1l-2.6 0.8l-1.8 0.9l-0.8 2.1l1.1 1.1l0.4 1l-1.1 1.1l-0.2 1.1l0.5 1.5l0.8 3.7l-0.2 1.6l-0.4 1.2l-2.1 2.8l-1.3 0.8l-1.6 0.5l-2 0.1l-1 -0.1l-1.2 -0.3l-2.9 -1.2l-2.2 -2l-0.6 -1l-0.4 -1.8l0.2 -2l1 -1.9l1.5 -1.8l-0.5 -1.1l0.4 -1.4l2.4 -2.9l2.6 -2.3l0.8 -1.4l0.5 -2.3l-18.9 -0.6l-0.5 6.8l-2.4 5.5l-5.5 3.4l-0.2 10.4l-2.1 6l-1.1 -1.9l-2.4 2.4l0 9.2l-0.6 16.2l-2.4 2.2l-4.1 7.8l0.4 3.7l-4.5 -0.7l-0.7 5.4l1.1 6.4l-1.8 3.2l1.5 4l-5.7 2.2l-3.6 4.1l2.8 4.9z"/><path data-id="22037" d="m520.9 522.7l3 5.8l-0.9 4.3l2.4 1l1.7 -6.3l3.5 -0.7l1 -3.9l2 -1.5l38.5 -1.5l39.1 -1.6l1.9 -1.2l-2.1 -6.6l1.6 -2.5l-0.5 -6.1l1.9 -4.5l-2.6 -5.9l1.4 -1.7l-3.3 -2.6l0.1 -3.2l2.4 -3.4l-3.3 -12.4l3.3 -4.1l0.2 -4.5l3.5 -3.7l-13.1 -0.1l-28.2 0.1l-3.5 0l-1.5 0l-2.4 0l-5.2 0l-13 -0.1l-1.1 5.5l-2.5 2.6l0.1 3.9l1.5 2l-4.2 4.8l0.3 5.1l-1.9 -0.2l-1 2.7l0.5 3.6l-1.8 2.5l0.9 1.4l-1.5 4.3l0.4 3.9l-2.3 1.3l1.2 2.1l-2.4 1.9l-3.6 6.5l-1.8 -0.2l-1.8 2.6l0 2.7l-2 2l0.7 2.2l-5.3 3.6z"/><path data-id="22039" d="m270.3 569.8l-0.3 1.5l26.5 0.1l5.5 -3.3l1 -7.2l1.8 -1.4l6.5 -1l10.6 0l18.6 0l0.1 -6.5l9.7 0l0 -10l3.4 -10.3l4.1 -3.2l0 -20.9l-6.6 -3.7l-0.8 -1.9l-0.3 -12.4l-4.8 0.1l-0.1 -9.8l-8.1 -9.8l0 -6.5l-9.6 0.4l-2.1 -4.1l-7.4 -4.2l-5.6 1.8l-1.8 3.9l-3.9 1.2l-4 3.1l-4 0.8l0 7.6l-5.5 5l-3.3 0.5l-4.8 -2.1l-1.8 1.1l-7 0.4l0.1 69.5l2.8 3.7l-4.3 8.4l-3.5 2.5l1.7 2.3l-3 4.3z"/><path data-id="22041" d="m403.7 216.2l2.1 0.1l2.5 4.5l2 1.4l-0.8 3.3l1.6 3.4l-1.5 3.3l2.4 5.5l8.6 4.1l-1.1 1.9l5.1 6.1l3.6 -0.1l1.9 3.5l-1.9 2.2l5 1.2l-0.2 3.6l4.4 -2.9l5.3 0.5l1.3 -2.4l4.9 -2.3l2.8 -4.5l2.3 -0.4l2.9 -5.6l1.4 -4.6l9.7 0.2l0 19.6l4.1 0l1.2 -2.5l5 -4.6l3.5 -0.4l2.6 -3.3l-0.3 -5.4l-2.9 -1.2l3.1 -3.6l-0.5 -2.3l3.1 -1.2l0.2 -4.5l-2.4 -2.3l1.6 -5.7l0 -4.6l1.8 -0.8l0.5 -4.4l-3.7 -1.9l1.6 -1.8l-0.9 -9l2.5 -2.4l-0.1 -10.6l-8.2 -0.1l-2.1 -1.4l4 -2.4l3.1 -5.3l-3 2.2l-6.1 -3.5l2.7 -2.1l3.7 1.3l-0.6 -10.8l4.5 1.2l-0.2 -4.1l6.1 -0.7l-1.1 -6l-3.1 1l-1.2 -2.1l3 -4.3l0.9 2.6l2.8 0.9l2.9 -2.4l-0.2 -1.5l-4.6 -3.8l-0.2 -4.7l-30.3 0.1l-4.5 4.3l-4.2 0.6l0 2.4l-3.5 0.8l-0.5 5.6l-4.1 2.5l-7.3 -0.3l-0.1 8.3l-2.3 4.8l0.9 4.6l-1.1 3.1l-4.2 4.1l-4.3 2.6l-2.1 7.4l-1.3 1.1l-6.8 1l-4.2 4.6l0.1 3.1l3.5 2.4l1.2 2.7l-1 2.6l1.2 2.8l-5.7 1.4l-0.4 2.1l-2.1 -2l-4.2 4.1z"/><path data-id="22043" d="m204.7 296.9l2.6 1.7l-0.8 4.8l6.6 0.5l0.9 2.7l4.2 1.4l-0.7 8.1l6.7 1.3l5.8 3.7l7.6 0.9l2.7 4.1l5.8 4.5l-0.8 2.6l8.5 5.7l-0.4 1l3.3 5.2l2.7 -1.5l0.7 1.8l-2.8 0.2l1.1 4.6l-2.6 0.2l0.1 4.4l5 1.5l-2.7 3.6l3.2 3l-3.2 3.1l2.9 1.1l1.8 -1.8l2.1 3.6l5.1 -0.5l34.8 -8.5l28.1 -6.7l11.7 -2.3l8.8 -2l-3.2 -0.8l-0.2 -2.2l-6.6 1.6l1.7 -3.8l-1.8 -1.1l-3.3 2.9l-2.2 -0.8l0.5 -8.9l-2.3 -0.1l-3.4 -3.7l1.1 -2.3l-2.2 -2.2l-1.9 0.3l2.5 -4l-6.9 -1.4l-7.9 -5.5l3.2 -1.2l4 -0.6l-2.6 -3.2l-1 -6.6l3 -1.9l0.5 -3.6l-4.7 -1.1l0.8 -4.8l1.5 0.4l1.9 -3.8l-1.4 -0.9l2.6 -2.7l-1.5 -5.7l-1.6 -0.2l-0.3 -3.4l-41.5 -0.1l-7.6 0l-0.1 19.1l-9.1 0.7l-42.9 0.1l-15.6 0z"/><g data-id="22045"><path d="m394.4 679.9l-2.2 1.4l4.1 33.3l6.6 3.7l4.3 -0.6l2.7 -3.1l2.3 -0.6l5.7 2.2l5.5 -0.7l1.1 4.6l0 4.2l-0.8 2.5l-2.7 -0.3l-1.6 -2.8l-1.8 4.1l-3.4 3.7l1.2 1.9l2.9 0.8l-0.1 1.8l3.4 -3.1l24.8 -21.1l7.5 -9.9l9 -12l29.2 -2.4l41.5 -3.4l-0.8 -6.3l4.5 -0.2l2.2 -5.3l0.2 -3.4l-2.9 2.3l-3.3 -2l-2.5 -4.3l-19.1 0.1l-22.7 0.2l-1.6 3.7l-2.4 1.8l-17.7 0l-1.1 -5.4l-1.2 -2.3l-1.6 -0.4l-4.2 -3.1l-3.7 -5.9l-3.4 1.1l-4.6 -3.5l-4.5 -0.3l-7.4 3.1l0.9 3.9l-7.8 4.6l-2.4 4.4l-1 1.3l-6.1 -2.9l-4.8 -2.3l-1.4 0.9l-2.4 1.5l-2.1 -3.4l-8.4 -0.2l-2.1 6.6l-0.5 1.5l-3.4 10.2z"/><path d="m387.5 768l-2.4 4l2.9 2.5l8.3 3.9l1.6 1.6l2.7 -0.1l6.5 3.9l2.8 1l3.2 2.7l2.6 -0.5l2.5 0.8l2.1 4.6l4.8 1.2l1.3 -1.8l2.1 -1.3l3.3 1l3.4 -1.6l-1.1 -3.2l1.7 -4.4l5.8 -3.4l4.2 -3.4l0.4 -3l-3.9 1.5l-0.3 -4l-2.5 1.4l-3.6 -0.2l-2.2 -1.9l-1.5 -2.3l-3.5 1.2l-0.7 -2.5l-4.7 -2.5l-3.3 -3.4l-3.5 -0.6l-3.8 0.3l-2.7 -1.3l-5.2 0.4l-2.3 4.9l-4 0.3l-4.2 -1.2l-4.3 2.5l-2.3 2.6z"/></g><path data-id="22047" d="m448.2 567.6l3 4.7l2.1 0.4l6.6 7l0.1 3l2.2 3.4l0.7 4.3l-0.8 3.6l-3.6 2.8l4.3 2.5l-0.4 5.3l1.2 4.5l6.4 8.1l-0.1 3.6l4.8 3.4l10.4 0.4l6.3 2.5l-2.6 6.6l3.3 2.9l0.7 8.3l1.3 3.9l-1.7 4.9l1.2 1.5l14.3 0l2.1 1.6l1.8 8l19.1 -0.1l2.5 4.3l3.3 2l2.9 -2.3l-0.2 3.4l22.7 -8.2l-0.1 -10.1l3.2 -0.1l-0.1 -7.2l3.2 -4.3l2.7 -11.6l2.8 -8.6l4.9 -14.8l-1.8 0.6l-13.4 -0.8l-7.5 0.5l-0.8 -1.4l-21.2 0.1l-11.2 0.1l-1.6 -4.7l-1.1 -0.6l-2.2 -1.3l-4.9 -6.7l-6.2 -2.8l0 -3l-7.4 -9.9l-5.1 -3.8l-4.8 -5.9l-7.9 0l-5.8 3.2l-5.2 0.1l0.1 -3.2l-22.5 -0.1z"/><path data-id="22049" d="m234.6 194.8l-1 -0.2l1.4 3.5l4.4 0.1l17.6 -0.1l10.3 0l63.9 0.2l0.1 -29.7l0 -9.8l-2 -2l-17.8 -17.7l0 -14.4l0 -5.5l-32.5 -0.2l-7.1 0l0.1 9.8l-24 -0.1l-5.7 0l0.5 30.7l0.3 18.5l-2.7 4.8l-2.6 1l0.4 6.6l-3.5 4.4z"/><path data-id="22051" d="m720 683.9l0.1 1l2.2 13.9l4.7 5.3l0.6 4.1l12.8 7.6l1.1 2l-6.7 14.9l-4.9 12.9l6.3 0.3l2.2 2.2l2.5 -0.6l2.8 1.3l0.1 4.4l-1.1 2.5l0.7 8.1l1.1 4.7l-2.4 2.2l1.2 1.7l-5.3 1.5l-1.1 2.3l3.4 2.2l1.5 3.6l3.9 5.8l1.6 5.1l4.5 2.5l3.6 0.9l2.8 -1l3.6 1.5l2.4 -0.5l2.2 3l0 2.5l3.2 1.7l-2.4 7.7l0.7 3.6l-1.2 1.9l1 7.9l5.1 4.8l0.8 2.6l-3.2 5.3l-2.6 1l-5.1 8.5l-1.5 5.1l-5.1 5.8l0.1 3.7l2 -1.3l4 -3l7 -7.1l12.5 -8.3l1.1 -1.5l0.7 -1.3l0.6 -1.1l7.6 -5.1l-5 -8.9l-3 -8.7l-2.8 -12.2l-3.2 -4.1l-0.4 -8l0.1 -10.6l-1.9 -3.4l1.5 -6.9l-0.7 -8.2l-3.4 -1.3l-2.6 -11.2l-2.6 -2.8l-2.1 -4.6l-5.1 -6.8l0.3 -3.2l-1.9 -4.1l1.6 -1.5l1.4 -1.4l-2.2 -5.1l0.6 -4.6l2 -1.8l3.2 -1.8l2.6 -1.7l1.9 -5.7l1.9 -3.8l-1.2 -1.6l-1.6 -1.8l-5.3 -5.8l-1.5 -1.8l0.1 1.3l-0.2 1.9l-1.8 2.1l-2.9 1.3l-4.5 1.4l-2.8 -0.3l-1 -0.3l-2.1 -1.8l-0.1 -1.3l0.1 -3l1.6 -1.8l-1.4 -1.1l1.4 -2.8l0.6 -1l0.6 -1.7l0.3 -5.4l0.4 -5.2l0.5 -1.4l-0.2 -1.5l2.2 -28.4l-7 -3.3l-2.2 -2.1l-12.3 3.1l-7.6 2.7l-2.4 12.3l-1.3 13l-0.1 5.6l0 3.7l-0.2 7.6z"/><path data-id="22053" d="m174.5 584l0 4.6l0 4l0 1.1l8.4 0.1l10.8 0.1l0.1 26.3l6.5 0l0.1 23l19.7 0.1l0.8 2.9l-3.4 2.8l-0.2 4l3.1 3.6l0.8 2.9l-20.9 0.2l0 9.7l45.9 -0.2l3.4 0.4l2.8 -2.5l7.5 -2.4l5.8 -4.3l3.1 1.5l2.4 -4.5l1.4 -2.6l-2 -6.5l1.3 -3.1l2.6 -2.3l-2.1 -3.6l5.3 -1.7l0 -4.3l1.5 0.1l-6.1 -3.1l-2.3 -3.4l0.8 -2.5l-1.1 -9.6l0.6 -3.6l-1.3 -2.9l2.4 -5.7l-1.9 -8.6l4.1 -1.5l0.8 -3.1l1.8 -4.5l-1.2 -3.8l-6 -9.7l0.3 -1.5l-27.5 -0.1l-0.3 11.2l-55.5 -0.2l0 3.2l-12.5 0.2z"/><path data-id="22055" d="m336.5 645.2l1 1.3l10.1 1l4.7 -1.3l6.2 2.7l8.1 3.3l1.5 -1.3l6 -1.4l3 10.5l1.3 1.5l8.1 3.4l11.4 4.8l0.5 -1.5l2.1 -6.6l1.8 -5.9l1.4 -4.4l1.5 -2.1l4 -5.6l-2.9 -7.4l-6.5 0.2l-2.1 2.3l-2.7 -1.1l0.5 -6.4l3.6 -0.2l0.5 -1.6l2.3 -1.6l0.2 -2.3l-3.1 -0.1l-3.4 -5.2l5.3 -3.6l-0.6 -3.5l-0.5 -3.5l-2.1 -3.9l1.9 -1.8l0.4 -5.7l-6.7 -2l-5.2 -0.6l-3.1 2.3l-2.1 -3.4l-1.3 -1.1l-2.3 1.8l-4.2 2.8l-1.2 6.7l-10.1 6.9l0 3.2l-3.3 0l0.1 3.3l-3.3 0l0 6.4l-6.5 -0.1l0.1 3.3l-4.6 1.5l-3.2 3.7l0.8 3.9l-5.5 8.7l-1.8 -0.3z"/><g data-id="22057"><path d="m701.7 873.9l2.8 1.2l5.1 8.6l3.3 -0.8l2.6 -1.8l-7.5 -11.6l-1.6 -0.6l-1.6 1.3l-3.1 3.6z"/><path d="m697.1 840.4l-0.7 6.1l4.2 -4.9l-0.5 -1.2l-3 0.1z"/><path d="m592.3 723.7l-11.3 17.1l24.2 -0.4l-0.4 -6.4l7.9 -0.1l-0.7 -2.1l3.2 -1.9l0 -2.5l3.3 -0.1l1.1 5.9l3.2 0.4l2 6l2.1 5.5l5.3 4.4l2.3 0l3.7 2.2l1.1 0.9l2.8 3.5l5.7 8.4l7.3 2l3.3 5.6l5.3 3.1l1.2 5.2l3.4 0.9l8.5 11.8l7.6 5.6l1.8 4.9l7.4 8.7l2.9 1.3l3.6 4.1l0.9 3.7l-1.3 5.3l1.9 4.8l-1.3 4.6l1.4 -0.3l-0.2 -1.2l3.9 -2.6l1.4 -0.9l0.9 3.3l4.3 3.6l3.4 1.5l6 14.7l2.6 -0.1l-0.8 4.2l-4.2 0.6l1.4 7.7l5.6 1l2.7 2.1l0.2 4l-3.2 0.6l0.8 3.2l2.7 1.2l1.6 0.6l10.1 -6.6l9.2 -6.4l6.3 -4.3l-0.1 -3.7l5.1 -5.8l1.5 -5.1l5.1 -8.5l2.6 -1l3.2 -5.3l-0.8 -2.6l-5.1 -4.8l-1 -7.9l1.2 -1.9l-0.7 -3.6l2.4 -7.7l-3.2 -1.7l0 -2.5l-2.2 -3l-2.4 0.5l-3.6 -1.5l-2.8 1l-3.6 -0.9l-4.5 -2.5l-1.6 -5.1l-3.9 -5.8l-1.5 -3.6l-3.4 -2.2l1.1 -2.3l5.3 -1.5l-1.2 -1.7l2.4 -2.2l-1.1 -4.7l-0.7 -8.1l1.1 -2.5l-0.1 -4.4l-2.8 -1.3l-2.5 0.6l-2.2 -2.2l-6.3 -0.3l-22.6 -0.3l-1.1 -0.5l-1.8 -2.6l0.1 -6.5l-1.9 -2l-0.2 -2.9l-6.4 -3.3l-4.7 -0.5l-7.3 -6l-1.5 -2.1l-0.1 -2.6l-0.7 -5l-3.6 -3.9l-3.2 0.1l-2.7 -4.5l-1.3 -1.4l-10.9 -0.3l-3 2.2l-3.4 -2.6l-4.7 0.8l-5.6 -0.2l-1.8 -2.7l-5.1 1.8l-2.2 -3.1l-3.6 -0.3l-5.7 -2.2l-1.6 0.1l0.1 3.1l-19.2 0.5l0 6.1l-4.6 0.1l-2.9 10.3l-4.3 8.4z"/></g><path data-id="22059" d="m320.6 315.6l-3.2 1.2l7.9 5.5l6.9 1.4l-2.5 4l1.9 -0.3l2.2 2.2l-1.1 2.3l3.4 3.7l2.3 0.1l-0.5 8.9l2.2 0.8l3.3 -2.9l1.8 1.1l-1.7 3.8l6.6 -1.6l0.2 2.2l3.2 0.8l6.8 2.4l-1.3 2.6l2.5 1.8l-1.4 2.9l2.5 6.6l7.6 7.2l1.3 -1l3.7 2.8l2.1 4.9l-2.7 1.7l1 2.5l10.6 -4.2l3.4 3.9l-0.1 -65l0 -6.1l0.1 -34.5l0.5 -29.5l-58.8 0l0 7l-2.3 2.2l0.6 4.8l-3 3l1.5 0.5l-2.3 5l1 0.9l-2.4 3.1l-2.5 0.2l0.6 2.4l-0.4 3.6l1.6 0.2l1.5 5.7l-2.6 2.7l1.4 0.9l-1.9 3.8l-1.5 -0.4l-0.8 4.8l4.7 1.1l-0.5 3.6l-3 1.9l1 6.6l2.6 3.2l-4 0.6z"/><path data-id="22061" d="m222.4 98.8l0.1 6.3l0.2 23.5l19.5 0.2l5.7 0l24 0.1l-0.1 -9.8l7.1 0l32.5 0.2l0.1 -18.2l0 -1.7l0 -19.8l-19.8 -0.2l-0.1 -11.4l-5.1 0.6l-4.9 -6.9l-3.8 -1.4l-4.3 0.5l-4.4 -1.6l-17 0l-19.7 0.2l0.1 10.1l-2.2 1.1l-2.4 3l-3.2 4.2l1.6 8.3l-1.2 7.7l-2.7 5z"/><path data-id="22063" d="m586.8 574.3l-2.9 1.2l3.5 5.4l-1.7 3.2l3.2 1.9l-1.3 3.8l4.4 0.7l2.3 6.2l5.9 1.2l1.7 2.9l1.1 0.6l6.4 0.3l1.4 2.9l3.9 2.7l1.3 5.7l2.5 3.8l5 -1l-1.2 3l3.1 3.8l1.3 2.2l3.6 -0.3l3.4 4.5l-0.6 2.1l2.3 1.2l0.6 3.7l3.1 0.9l1.7 2.4l4.1 -5.1l-1.1 -1.9l3.3 -1.6l0.2 -2.6l2.1 -1.5l3.2 2.4l6.4 1l1.4 1.9l2.7 2.5l4.5 0.3l8.6 -7.6l4.4 -10.4l0.1 -9.9l2.2 -5.2l-2.8 -2.3l-6 -13l-5 -3.5l-1.3 -7.3l0.5 -1.1l-1.6 -2.5l-1.7 -1.8l0 -8.7l0 -4l0 -7.3l-0.1 -14.7l0 -1.5l-12.9 0l-41.7 0.1l-11.1 0l-5.7 6.6l1.2 1.6l-7.2 3.5l-2.6 2.7l2.7 4.9l-0.3 4.8l-1.5 1.2l-0.2 3l2.7 3.9l-1.7 8.2z"/><g data-id="22065"><path d="m571.3 191.3l-0.2 1.4l0.6 1.7l1.1 1.4l0.2 1.6l-0.3 1.1l-0.6 4.7l1.5 0.6l1.2 0.3l1.6 0l2 -0.7l1.6 -1.8l1 -2l0.5 -1.4l-0.4 -2.4l-2 -0.9l-1.6 -0.4l-1.3 -1.2l-1.9 -1.5l-1.6 -0.9l-1.4 0.2z"/><path d="m478.4 172.8l-2.7 2.1l6.1 3.5l3 -2.2l-3.1 5.3l-4 2.4l2.1 1.4l8.2 0.1l32.9 0.2l0.7 -1.2l8.6 -5.3l7.2 4.7l3.7 -5.2l6.1 -2.8l9.5 -0.9l2.3 2.1l0.1 5.8l0.8 1.7l1.7 -0.4l1.5 -2.2l1.6 -1.4l1.6 -0.6l1.6 -0.1l2.7 1.9l1.2 -1.4l0.6 -2.2l1 -1.5l1.4 -0.3l2.4 0.8l1 0.6l2.3 2.3l1.3 0.7l-0.4 2.3l0.3 2.7l1.2 0.8l1.1 -0.5l1.5 -2.8l0 -3.3l0 -1.2l0.5 -2.8l0.8 -1l1.2 -0.8l-0.3 -1.4l-1.6 -1.7l-0.7 -1.1l-0.2 -2.2l0.6 -2.6l0.8 -1.1l2.3 -0.2l1.7 2.4l1.5 0.6l2.6 -1.6l2.3 -1.9l1.2 -1.1l2.1 -2.7l2.2 -2.8l3.4 -6.7l0.1 -3.3l-2.5 -0.2l-1.7 4.3l-1.9 2.4l-2.6 0.3l-2.6 -0.7l-1.5 -0.2l-2.2 0l-6.1 -1.3l-1.3 -0.5l-1.2 -0.8l-0.7 -1l-0.2 -1.4l0.7 -3.1l0.8 -1.5l0.3 -1l0.2 -1l-0.1 -1.6l2.6 -1l1.2 -0.9l1.2 -1.4l0.4 -1.5l-0.1 -2.1l-0.4 -1l-1.9 -2l-2.9 -0.9l-1 0.2l-1.1 1l-2.2 1.2l-1.9 1.3l-5.1 -0.9l-3.3 -1.5l-2.2 -1.2l-2.6 -1.9l-2.6 -3l-1.3 -2.5l-0.2 -2.7l0.1 -1.2l1.9 -3.4l1.1 -2.4l0.7 -4.3l5.8 4.9l3.2 5.2l1 1l1.5 1.2l2.7 1.2l3.8 0.7l1.5 -0.4l1.1 -0.9l0.7 -1.8l-0.3 -1l-1.2 -1.9l-2.3 -1.8l-4.7 -2l-4.9 -3l-2.6 -2.3l-1.1 -2.3l1.3 -0.9l-7.4 0l-4.8 5.6l-12.7 0.1l-20.4 0l-28.9 0l-5.3 7.9l0.1 7.1l2.5 8.6l-2.8 -0.2l1.9 6.6l0.2 4.7l4.6 3.8l0.2 1.5l-2.9 2.4l-2.8 -0.9l-0.9 -2.6l-3 4.3l1.2 2.1l3.1 -1l1.1 6l-6.1 0.7l0.2 4.1l-4.5 -1.2l0.6 10.8l-3.7 -1.3z"/></g><path data-id="22067" d="m374.6 12.4l1.7 7.1l-0.1 9.3l-1.3 2.5l1.1 3.9l4.3 6.2l-2.1 0.8l0.2 2.8l2.5 6.1l-2 7.4l2 5.7l-3.2 0.8l0.9 2.4l2.5 1.8l-0.7 3.9l2.5 -0.3l-1.4 2.9l3.5 -3.2l-2.4 -1.4l2.1 -1.3l3.3 2.7l7.8 -2.4l1.5 5.7l5.9 6.2l4.8 -0.5l-2.5 3.6l0 6.1l-3.6 7.1l3.4 3l4 10.3l0.1 3l-1.7 2.1l1.9 -0.9l1.1 -5.9l1.7 -1.8l4.3 4.7l5.1 0.9l0.4 -5.7l3.7 -2.3l0.4 -3l2.3 -0.9l6.6 3.8l1.9 -1.2l2.3 0.5l2.4 -3.2l0.1 -3.7l5.5 -5.8l6.5 0.5l4.8 -6.5l1.8 -6.2l3 -2.9l-0.4 -3.6l-2.8 -1.5l2 -3.8l2.1 -0.4l3.9 -6.4l0.3 -3.9l-1.4 -4.8l2.6 -2.3l-0.3 -2.4l2.5 -5l2.2 -5.8l6.1 -5l4.4 -0.4l3.2 -2.7l-0.7 -2.5l4.3 -6.4l-0.8 -1.3l4.5 -6.9l3.6 -3.4l-2.3 -0.7l2.6 -5.1l-3.4 0.1l-1.3 0l-5.5 -0.1l-2.1 -0.1l-11.4 0l-2.5 0l-1.4 0.1l-5.6 0l-1.6 0l-1.7 0l-20.8 -0.2l-3.7 0.1l-23 -0.2l-14.3 0l-22.8 -0.2l-0.4 4.5l-2 1.5l1.1 2.8l-1.8 1z"/><path data-id="22069" d="m115.2 285l-0.1 10.6l19.7 0.1l0.3 39.6l19.3 -0.1l0.1 39l39 0.9l7.7 0l2 3.1l6.6 0l0 -4.7l6.6 -0.1l-0.1 -4.7l4.8 -0.1l0 -3.2l3.3 0l0 -3.3l4.7 0l0 -3.3l6.4 -1.7l-0.1 -3.1l3.4 -0.1l3.2 -4.8l3.3 0.1l0 -2.2l8.1 -7l0.4 -1l-8.5 -5.7l0.8 -2.6l-5.8 -4.5l-2.7 -4.1l-7.6 -0.9l-5.8 -3.7l-6.7 -1.3l0.7 -8.1l-4.2 -1.4l-0.9 -2.7l-6.6 -0.5l0.8 -4.8l-2.6 -1.7l0.9 -5l0.3 -11.3l2.7 -0.5l2 -7l-1.3 -0.9l1.9 -2.4l-2.2 -6l8 1.2l1.9 -2l-1.5 -2.2l1 -5.5l1.6 -1.7l-0.4 -3.5l1.9 -5l2.4 -1.5l-2.5 -2.4l0.3 -5.5l-3.3 -1.5l2.5 -4.7l-0.1 -5.1l-2 -3.1l0.5 -2.3l-3 -5l1.3 -1l-1.5 -5l-3.5 -4.3l-1.5 -5.8l-47.5 -0.1l6.7 9.9l-2.3 2.5l5.2 8.4l-3.7 7.1l-0.3 3.5l4.2 5.9l2.9 2.4l-22.4 0l-0.2 15.6l-1.1 -1.6l-7.1 5.3l-4.1 -2.3l-2.2 1.7l-6.8 -2l-1 -7.5l-4.3 -0.1l-5.7 3.1l-2.3 -3.4l-4 4.6l-0.1 15.4l0.1 13.1l-0.1 5.7z"/><path data-id="22071" d="m747 691.4l-0.1 3l0.1 1.3l2.1 1.8l1 0.3l2.8 0.3l4.5 -1.4l2.9 -1.3l1.8 -2.1l0.2 -1.9l-0.1 -1.3l0.8 1l6 6.6l1.6 1.8l1.2 1.6l3.6 1.4l0.4 -3.4l9.9 2.7l3.4 5.8l1.3 -0.3l1.5 -2.3l-1 -4.2l-3.7 -5.2l-8.2 -0.9l-8.1 -4.7l4.3 -9.6l3 -1.1l4.1 3l1.5 -0.3l6 -3.7l3.8 -0.7l2.8 3.7l3.9 -3.8l0.6 1.3l-0.3 -1.6l3.4 -4.4l4.1 -4.2l6.9 -0.5l3.7 0.7l3.2 2.1l2.5 2.3l1.7 -0.1l1.6 -0.8l-2.9 -5.2l0.1 -1.7l0.7 -1.1l2.8 -1.4l2.8 -0.3l2.8 -1.2l0.3 -3.4l0.8 -3.7l1.7 -0.6l2.3 -1.7l3.1 -4.5l2.7 -2.4l-5.5 -2.1l-5.7 -3.6l-5.5 3.1l-6 -3.6l-1.9 1.7l-3.9 2.3l-4.1 -0.3l-4.5 -4.3l-5.3 -2.2l-10.5 -1.9l-13.6 5l-5.5 2.9l-7.1 1.7l-8.1 -0.5l-4.9 -1.7l-2.2 28.4l0.2 1.5l-0.5 1.4l-0.4 5.2l-0.3 4.6l-0.2 1.6l-1 1.9l-1.1 2.2l1.1 1.7l-1.6 1.8z"/><path data-id="22073" d="m311.5 124.7l0 14.4l17.8 17.7l2 2l0 9.8l28.1 0.2l2.3 4.1l8.9 0l-0.1 -4.1l13.8 -0.1l2.7 -4.5l0.5 -2.7l2.2 -10.3l-1 -2l3.4 -7.9l1.9 -3.6l7.5 -8l2.1 -9.5l2.6 -1.5l1.3 -1.9l1.7 -2.1l-0.1 -3l-4.3 -9.4l-3.1 -3.9l3.6 -7.1l0 -6.1l2.5 -3.6l-4.8 0.5l-5.9 -6.2l-1.5 -5.7l-7.8 2.4l-3.3 -2.7l-2.1 1.3l2.4 1.4l-3.5 3.2l1.4 -2.9l-2.5 0.3l0.7 -3.9l-2.5 -1.8l-4.8 8l-5.9 3.2l-3.5 -0.4l0.2 3.3l-8.7 6.3l-7.3 5.2l-0.5 4.6l-9.2 2.1l-7.8 -0.4l-19.6 0l0 1.7l-0.1 18.2l0 5.5z"/><g data-id="22075"><path d="m845.1 780.3l1.7 3.2l3.5 2.8l1.8 -2.5l2.3 -3l2.6 -2.5l-2 -1.3l-2.6 0.5l-4.2 2.4l-3 0.3z"/><path d="m760.7 726.7l-1.6 1.5l1.9 4.1l-0.3 3.2l5.1 6.8l2.1 4.6l2.6 2.8l2.6 11.2l3.4 1.3l0.7 8.2l-1.5 6.9l1.9 3.4l-0.1 10.6l0.4 8l3.2 4.1l2.8 12.2l3 8.7l5 8.9l4 -2.7l7.8 -2.6l6.5 1.1l5 0.6l10.7 1.6l5.5 1.6l4.9 1.7l6.1 -0.3l3 4.7l3 1.1l0.3 2.7l13.4 3.5l10.3 4.6l2 1.6l3.2 3.6l1.6 2.7l2.8 6.5l0.8 1l2.2 1.3l1.6 2.4l3.6 0.9l7.6 -1.3l3.6 -4.2l1.2 -6.2l-0.5 -3l1.9 -2.4l4.5 0.6l2.4 3.8l0.1 4.7l0.5 4.9l-3.3 0.9l-0.1 1.6l-3.1 2l1.9 4.3l-2 2.3l0.5 3.6l-3.8 3.3l-2.7 0.7l-3.5 8.9l-5.9 5.5l-5.1 12.5l2.4 -0.6l1.3 -0.3l7 -6.8l13.6 -16.8l6.5 -3.7l1.5 -5.4l4.9 3l1.6 3l-0.2 7.3l14.5 6.8l1 -6l-2.1 -2.4l0.4 -4.8l3.1 -4.2l2.7 -0.7l1.1 -1.5l0.9 -6.6l1.5 -1.4l2.5 1.3l3.7 4.6l5.2 -9.8l-11 -0.7l-2.5 -3l4 -3l7.3 -0.9l3.6 -2.2l3.5 3l2 -2.8l-4.2 -7.7l-6 1l-1.8 2.9l-4.8 1.4l-4.1 -2.5l-0.8 -3.8l0.3 -7.3l-2.8 -2.8l-1.4 -2.1l-0.6 -3.5l-3.3 -1.2l-1.4 -1.4l-2.5 -5.3l0.2 -1.8l-0.4 -1l-1.9 -1.2l-2.2 -0.6l-0.8 2l-2.9 3.1l-0.7 1.4l-3.3 1.7l-2.4 -2.8l-0.8 -3.1l-1.4 -1.9l-1.4 -1.3l-7.6 -8.1l-1.5 5.6l-3.6 1.6l-1.7 -2.1l2.1 -2.9l-3.6 -0.7l-3.4 -1.2l-1.3 -1l-8.1 0.3l-6.7 -0.6l-2.5 -1.8l-1.3 -2.1l-1 1.1l-0.4 1.9l-4 2.5l-2.6 -3.1l-2.6 -5.6l0 -2l0.7 -4.4l-4.3 -1.9l-4 -2.6l0.5 -4.1l-7.4 0.8l-6.1 -2.9l-3.3 -6.3l-4.6 -0.5l-0.6 -3.6l0 -2.7l4 -0.3l4.2 -2.5l-1.6 -2.5l-4 -0.3l-2.6 -3.2l-0.7 -2.7l0.7 -2.1l1.9 -0.4l4.9 3l2.2 3.6l6.7 3.2l0.1 -6.2l-12.2 -7.2l4.7 -1.1l5.8 2.1l5.3 -3.1l9.2 0.9l2 1.7l1.2 -1.8l-10 -3.5l-11 -3.4l-6.1 -6.2l-4.5 -1.6l-1.6 -4.9l-2.5 -3.2l-3.1 -1.1l-7.1 -0.2l-1.9 0.7l-4.4 -1.2l0.9 -2.7l-3.2 -4.3l-2.6 -1.9l-2.7 0l-5.6 1.8l-1.9 -0.5l-1.7 -4.4l-3.3 -4l-2.8 -7.6l-1.3 0.3l-3.4 -5.8l-9.9 -2.7l-0.4 3.4l-3.6 -1.4l-1.9 3.8l-1.9 5.7l-2.6 1.7l-3.2 1.8l-2 1.8l-0.6 4.6l2.2 5.1l-1.4 1.4z"/></g><path data-id="22077" d="m424.8 487.8l1.5 1.8l3.2 4.3l-1.7 4l7.4 5.7l2.4 5.6l-0.3 4.3l4.6 8.4l-0.2 8.2l-2.2 1.8l1 5.8l-2 6.4l-1.1 9.1l4.7 11.7l-4.5 2.7l10.6 0.1l22.5 0.1l-0.1 3.2l5.2 -0.1l5.8 -3.2l7.9 0l0.6 -3l12.8 -0.2l1.4 -6.4l1.9 -6.3l6.2 0l0 -4.2l8.6 -10l2 -3.8l-4.1 -1.9l-1.9 -2.6l-2.4 -11.5l-4.2 -7.7l-3.8 -0.3l-10.6 4.8l-7 -1.2l-4.4 0.2l-8.2 2.1l-3.5 -1l-4.5 -3.3l0.3 -3.5l1.6 -1.5l5.2 -1.2l3.4 -2.9l4.1 -13.4l0.5 -4.7l-1.1 -3.9l-5.3 -5.8l-3.6 -0.6l-8.9 0.3l1 4.3l6.4 1.1l2.4 2.2l1.4 7.7l-2.1 2.6l-2.1 -2.1l-4.7 0.1l-3.9 1.2l-4.5 -1l-2.8 -2.7l0.1 -8.5l3.1 -7.6l-3.4 -9.2l-0.1 -3.1l0.9 -2.2l-5.5 -5.3l-5.1 2.5l-6.9 -2.7l-4.6 3.6l-1.2 3.6l-3.1 0.9l-1.8 2.3l1.1 10.7l-0.8 13.6l-3.6 1.6z"/><path data-id="22079" d="m203.1 378.2l0 1.6l3.2 0l0 1.6l6.5 0l0 1.7l6.4 0l3.2 1.6l0 6.4l3.3 0l0 3.2l3.1 0l0 4.7l3.2 0.2l0.4 53.9l0.7 27l20 -1.9l23.3 -0.1l6.9 0.2l1.8 -1.1l4.8 2.1l3.3 -0.5l5.5 -5l0 -7.6l4 -0.8l4 -3.1l3.9 -1.2l1.8 -3.9l5.6 -1.8l7.4 4.2l2.1 4.1l9.6 -0.4l13.9 0.6l-1.5 -6.4l-2.1 -18.7l-1 -9.3l-0.4 -3.4l1.8 -2.3l-1.7 -2.2l0.1 -38.1l2.2 -2.3l2.1 1l3.3 -1.5l3 2.4l0.3 2.7l2.7 1.7l6.9 -0.6l5.8 -4.1l1.7 -2.5l2.7 -1.7l-2.1 -4.9l-3.7 -2.8l-1.3 1l-7.6 -7.2l-2.5 -6.6l1.4 -2.9l-2.5 -1.8l1.3 -2.6l-6.8 -2.4l-8.8 2l-11.7 2.3l-27.6 6.6l-35.3 8.6l-5.1 0.5l-2.1 -3.6l-1.8 1.8l-2.9 -1.1l3.2 -3.1l-3.2 -3l2.7 -3.6l-5 -1.5l-0.1 -4.4l2.6 -0.2l-1.1 -4.6l2.8 -0.2l-0.7 -1.8l-2.7 1.5l-3.3 -5.2l-8.1 7l0 2.2l-3.3 -0.1l-3.2 4.8l-3.4 0.1l0.1 3.1l-6.4 1.7l0 3.3l-4.7 0l0 3.3l-3.3 0l0 3.2l-4.8 0.1l0.1 4.7l-6.6 0.1l0 4.7l-6.6 0z"/><path data-id="22081" d="m82 177.7l3.4 4.4l0.8 2.9l6.9 3l4 -0.2l1.8 2.5l1.1 8.5l2.1 2.8l-2.5 1.5l-3.6 4.5l5.9 6.2l1.8 3.5l4.1 1.3l-0.2 5.6l4 2.7l3.6 7l6.7 0.3l6.5 5.9l1.3 5.8l2 0.8l1 7.5l6.8 2l2.2 -1.7l4.1 2.3l7.1 -5.3l1.1 1.6l0.2 -15.6l22.4 0l-2.9 -2.4l-4.2 -5.9l0.3 -3.5l3.7 -7.1l-5.2 -8.4l2.3 -2.5l-6.7 -9.9l-0.9 -6.8l-3.7 -3.1l-0.4 -9.8l-41.1 0l-8.2 -0.3l-27.4 -0.1z"/><path data-id="22083" d="m387.1 164.2l-2.7 4.5l7.9 0.1l0.2 3l-2.5 7.9l2.5 0.4l-1.1 3.5l2.6 -2.6l1.3 1.6l-5.4 3.3l1.2 2.5l4.8 -3.1l-1.4 2.5l1.2 3.6l-0.8 2.5l4.8 -1.7l4.2 1.9l4.2 -0.9l3 1.2l-1.1 2.5l1.1 0.3l4.2 -4.6l6.8 -1l1.3 -1.1l2.1 -7.4l4.3 -2.6l4.2 -4.1l1.1 -3.1l-0.9 -4.6l2.3 -4.8l0.1 -8.3l7.3 0.3l4.1 -2.5l0.5 -5.6l3.5 -0.8l0 -2.4l4.2 -0.6l4.5 -4.3l30.3 -0.1l-1.9 -6.6l2.8 0.2l-2.5 -8.6l-0.1 -7.1l5.3 -7.9l5.1 -5.1l-2.8 -4.9l-28.8 -0.1l-0.2 -19.3l-7.8 0l-1.8 6.2l-4.8 6.5l-6.5 -0.5l-5.5 5.8l-0.1 3.7l-2.4 3.2l-2.3 -0.5l-1.9 1.2l-6.6 -3.8l-2.3 0.9l-0.4 3l-3.7 2.3l-0.4 5.7l-5.1 -0.9l-4.3 -4.7l-1.7 1.8l-1.1 5.9l-1.9 0.9l-1.3 1.9l-2.6 1.5l-2.1 9.5l-7.5 8l-1.9 3.6l-3.4 7.9l1 2l-2.2 10.3l-0.5 2.7z"/><path data-id="22085" d="m31.4 266.5l0.9 5.1l0.7 1.1l3.4 2.6l1.4 0.8l1.2 0.8l0.6 1l0 1.2l0.4 1.2l1.4 1.3l1 0.9l-0.9 3.2l-0.5 1.1l-0.1 2l1.2 2.6l1.1 1.2l0.6 2.2l0 1.6l0.2 1l1.4 0.7l0.8 1.5l0 1l-0.4 1.7l-2.5 3l-1.7 1.2l0.2 1.3l1.5 3l0.2 5.7l-0.4 1.8l-1 0.1l-2.7 1.7l-0.3 1.7l0.9 2.9l2.3 4.1l0.4 2.2l4.3 5.5l2 1.5l1.3 0.4l4 0.3l1.2 -0.3l1.4 -0.2l1 0.8l0.2 1.3l1.3 0.9l1.3 0.4l0.2 1.7l-0.5 1.6l-0.4 1l-1.2 1.7l-1.6 0.6l-0.8 1.5l0.1 1.5l7.7 5.8l1.6 1.2l0.6 2.1l-1.4 2.1l0 1.8l1.7 0.3l4.2 2.6l0.5 1l0.3 1.4l0.3 1.8l0.1 1l-0.2 1.9l0.9 1l-0.4 1.5l-2.2 5.5l-2 4.6l0.2 1l2.1 1l1.2 0.7l2.3 3.6l2.8 2.7l4.2 -0.3l1.2 2.6l-0.1 1.7l-0.4 1.6l0.1 2.4l1.2 1l0.9 1.2l0.2 2l-0.6 2.2l0.9 5.1l0.4 1.4l2.3 2.3l1.8 -0.4l1.8 -2.3l1.6 -1.1l1.6 -0.7l1.6 -3.8l-1.3 -2.8l1.9 -2.6l-2 -2.5l3.1 -3.3l0.1 -5.3l17.8 -0.1l10 -19.6l29.5 -0.1l-0.1 -39l-19.3 0.1l-0.3 -39.6l-19.7 -0.1l0.1 -10.6l0.1 -5.7l-0.1 -13.1l-13.3 0l-70.6 0.3z"/><g data-id="22087"><path d="m987.7 666.1l0.7 2.7l1.9 3.4l2.6 3.1l1 3.9l2 7.1l0.3 3.9l0.4 4.9l-0.3 8l-1.2 4.9l-0.7 6l-1.3 3.4l-1.5 3.4l-1.3 3.2l-1.1 3.5l-0.3 3.4l2.3 0.6l3.6 -8.5l2.2 -6.3l1.2 -5.1l1.6 -9.3l0.2 -10l-1.4 -8l-1.8 -6.3l-1.4 -3.1l-2.7 -4.8l-2.8 -3.3l-2.1 -0.9z"/><path d="m899.5 664.7l1 4.2l1.6 0.4l3.9 -0.3l5.2 1.5l1 0.3l3.1 -3.9l3.9 1.9l2.3 4.3l-0.4 4.6l2.6 1.5l2.7 -1.7l-2.1 -4l1.8 -3.3l3.6 0.4l2 -2.3l-2.4 -4.5l-6.7 -1.7l-1.2 -5.2l2.7 -4.5l5.7 -7.5l-1.4 -2.7l-8.2 5.9l-13.4 9.6l-2.6 4.9l-4.9 2.2z"/><path d="m880.4 645.9l-2.1 1.2l2.7 2.6l1.9 -0.2l2.2 -3.3l-1.3 -2.2l-3.4 2z"/><path d="m775.6 680.1l-4.3 9.6l8.1 4.7l8.2 0.9l3.7 5.2l1 4.2l-1.5 2.3l2.8 7.6l3.3 4l1.7 4.4l1.9 0.5l5.6 -1.8l2.7 0l2.6 1.9l3.2 4.3l-0.9 2.7l4.4 1.2l1.9 -0.7l7.1 0.2l3.1 1.1l2.5 3.2l1.6 4.9l4.5 1.6l6.1 6.2l11 3.4l10 3.5l-1.2 1.8l3.8 2l3.4 2.4l-0.2 -2.1l-4.4 -6l-4.4 -2.8l2.7 -4.8l-1 -7.6l7.3 0.1l3.7 5.9l-0.7 5.7l1.1 4.7l6.1 -1l1.4 -4.9l0.5 -4.2l3.9 3.5l3.1 0.4l-1.6 -3.5l-6.5 -3.7l0.4 -6.4l2.6 -2.4l2.9 -4l0.9 -3.1l1.6 -0.9l3.6 3l2.5 -1.4l3.2 0.5l2.4 1.5l1.7 2.5l2.1 0.9l6.5 0.1l0.3 -1l-2.9 -2l0.1 -5.7l1.3 -0.9l0 -1.8l-3.1 1l-4.8 3.1l-2.6 -0.4l-2.1 -1.8l-0.5 -4.8l-5.2 -1.1l-2 -1.1l-0.1 -1.9l3.9 -1.5l8.7 -1.1l4.4 -1.4l4.8 -0.6l2.9 -1l3.5 -2.8l0 -2.1l-1 -0.6l-5.9 0.6l-3.3 1.4l-4.2 -0.3l-2.1 -1.3l0.8 -2.4l7.3 -5.9l3.3 -1l3.5 -0.1l2.6 1l1.4 -8l1.1 -2.4l-6.1 -0.6l1.2 -4.8l-1.3 -1.1l-4.4 1.9l-2 4.5l-6.1 11.1l-3.1 1.6l-6.9 1l-2 -1.8l-0.1 -9.8l-2.7 -0.6l-2.3 0.1l-5.2 -2.9l-0.1 -2.8l0.1 -3.7l1.9 -1.7l1.3 -1.1l4.3 -2.1l2.4 -0.1l1.7 -1.4l0.7 -2.3l-0.7 -1.7l-8.8 1.1l-2 -0.6l-3 -1.9l-2.7 -0.6l-4.4 -3.5l-2.2 1.5l-1.1 2.9l0.9 1.8l0.1 2.2l-1.4 1.5l-9.5 6.3l-3.9 1.3l-1.9 1.1l1.3 2.4l-0.1 5.4l-1.6 3.1l0 3.1l-1.8 3.2l0.2 4.5l-1.3 3.4l-2.9 2l-4.8 1.8l-4.3 0.3l-2.1 -1l-3.9 -0.3l-3.7 -2.3l-6 -6.4l-0.7 -4.4l0.7 -1.7l1.2 -0.1l4.5 -2.2l-1.2 -1.6l-1.7 -1.1l-3.9 2.9l-5.2 1.9l-5.5 1.1l-2.6 -0.3l-2.1 -1.1l-1.8 -1.5l-1.1 -2.2l-1.6 -4.9l-0.4 -2.6l-0.3 -1.7l-0.6 -1.3l-3.9 3.8l-2.8 -3.7l-3.8 0.7l-6 3.7l-1.5 0.3l-4.1 -3l-3 1.1z"/></g><path data-id="22089" d="m668.4 677.3l0.1 7.6l3.3 0l0.5 18.3l2.7 4.5l3.2 -0.1l3.6 3.9l0.7 5l0.1 2.6l1.5 2.1l7.3 6l4.7 0.5l6.4 3.3l0.2 2.9l1.9 2l-0.1 6.5l1.8 2.6l1.1 0.5l22.6 0.3l4.9 -12.9l6.7 -14.9l-1.1 -2l-12.8 -7.6l-0.6 -4.1l-4.7 -5.3l-2.2 -13.9l-0.1 -1l0.2 -7.6l0 -3.7l0.1 -5.5l1.3 -13.1l2.4 -12.3l-12.8 2.9l-4.4 6.6l-11 8.2l-8.3 11.1l-3.4 0.3l-1.5 -0.9l-12 5l-2.2 2.4z"/><path data-id="22091" d="m607 524.1l-7.6 9.8l11.1 0l41.7 -0.1l12.9 0l0.3 -3.1l-0.2 -18.7l-0.1 -1.4l0.1 -15.7l0 -39l-3.1 0l-1 0l-11.5 0l-16.4 0.1l-4.6 -0.1l-2 0l-1.3 0l-1.4 0l-8.1 0l-3.5 3.7l-0.2 4.5l-3.3 4.1l3.3 12.4l-2.2 3.6l-0.3 3l3.3 2.6l-1.4 1.7l2.6 5.9l-1.9 4.5l0.5 6.1l-1.6 2.5l2.1 6.6l-1.9 1.2l0.9 2.5l-5.1 3.3z"/><path data-id="22093" d="m589.2 663.1l0.8 6.8l-0.1 12.7l6.5 -0.1l0 9.6l7.6 -0.2l0.1 2.6l0.1 4.1l19.2 -0.5l-0.1 -3.1l1.6 -0.1l5.7 2.2l3.6 0.3l2.2 3.1l5.1 -1.8l1.8 2.7l4.7 0.7l-1.7 -4l-0.2 -9.7l-1.7 -3.2l1.5 -3.3l-1.6 -1.4l0.8 -1.2l-3.4 -9.6l3.1 -2.2l2.2 -1l-1.8 -9.6l3.3 -0.5l2.2 -15.5l-12.6 2.9l-30.9 7l-8.9 1.9l0.2 1l-4 5.1l-5.4 4.3z"/><path data-id="22095" d="m644.9 667.6l-3.1 2.2l3.4 9.6l-0.8 1.2l1.6 1.4l-1.5 3.3l1.7 3.2l0.2 9.7l1.7 4l5.6 -1.3l3.4 2.6l3 -2.2l10.9 0.3l1.3 1.4l-0.5 -18.3l-3.3 0l-0.1 -7.6l2.2 -2.4l12 -5l1.5 0.9l3.4 -0.3l8.3 -11.1l11 -8.2l4.4 -6.6l12.8 -2.9l7.6 -2.7l12.3 -3.1l0.4 -3.1l-1.3 -6.8l-15.8 -7.9l-11 -5.5l-3.7 -1l-5.7 0.5l-4.2 2.9l-5.2 -0.5l-4.1 1.4l-12.5 0.6l-4.4 10.4l-8.6 7.6l-4.5 -0.3l-2.7 -2.5l-1.4 -1.9l-6.4 -1l-1.8 12.2l-2.2 15.5l-3.3 0.5l1.8 9.6l-2.2 1z"/><path data-id="22097" d="m302.1 568.1l-5.5 3.3l15.2 0.1l28.5 0l3.8 0l0.1 9.7l13 0l0 3.1l0.1 4.9l0.1 11.3l3.3 1.6l0 4.8l3.2 0l-0.1 4.9l10.1 -6.9l1.2 -6.7l4.2 -2.8l2.3 -1.8l1.3 1.1l2.1 3.4l3.1 -2.3l5.2 0.6l1.4 -2.9l0.6 -5.7l2.4 -0.7l5.3 3.4l1 -0.4l1.4 -0.3l10.8 -4.2l10.8 5.1l9.2 0l16.4 -0.1l-2.9 -1.6l-5.4 -11.2l-2.7 0.2l-3.8 -10.3l4.5 -2.7l-4.7 -11.7l1.1 -9.1l2 -6.4l-1 -5.8l2.2 -1.8l0.2 -8.2l-4.6 -8.4l0.3 -4.3l-2.4 -5.6l-7.4 -5.7l1.7 -4l-3.2 -4.3l-40.9 -0.3l-18.4 -0.1l-16.8 0.3l0.3 12.4l0.8 1.9l6.6 3.7l0 20.9l-4.1 3.2l-3.4 10.3l0 10l-9.7 0l-0.1 6.5l-18.6 0l-10.6 0l-6.5 1l-1.8 1.4l-1 7.2z"/><g data-id="22099"><path d="m492 687.5l0 1.8l11.2 9.5l2.4 6.9l5.3 8.6l-2.5 11.2l6.6 3.8l10.2 0.3l13.2 3.5l2.7 -0.5l6.6 5l9 1l6.5 5.4l-1.3 -7.5l2.1 -0.8l0.2 -6.1l-1.1 -4.5l1.4 -3.6l-3.2 -4.9l-4.5 -2.9l-3.3 0.1l-7.1 -2.6l-2.5 -2.9l-2.6 -10.1l-3.4 -2.3l0.1 -3.9l-3.8 -4.8l-0.7 -3.1l-41.5 3.4z"/><path d="m394.5 593.3l-1.4 2.9l6.7 2l-0.4 5.7l-1.9 1.8l2.1 3.9l0.5 3.5l0.6 3.5l-5.3 3.6l3.4 5.2l3.1 0.1l-0.2 2.3l-2.3 1.6l-0.5 1.6l-3.6 0.2l-0.5 6.4l2.7 1.1l2.1 -2.3l6.5 -0.2l2.9 7.4l-4 5.6l-1.5 2.1l-1.4 4.4l-1.8 5.9l8.4 0.2l2.1 3.4l2.4 -1.5l1.4 -0.9l4.8 2.3l6.1 2.9l1 -1.3l2.4 -4.4l7.8 -4.6l-0.9 -3.9l7.4 -3.1l4.5 0.3l4.6 3.5l3.4 -1.1l3.7 5.9l4.2 3.1l1.6 0.4l1.2 2.3l1.1 5.4l17.7 0l2.4 -1.8l1.6 -3.7l22.7 -0.2l-1.8 -8l-2.1 -1.6l-14.3 0l-1.2 -1.5l1.7 -4.9l-1.3 -3.9l-0.7 -8.3l-3.3 -2.9l2.6 -6.6l-6.3 -2.5l-10.4 -0.4l-4.8 -3.4l0.1 -3.6l-6.4 -8.1l-1.2 -4.5l0.4 -5.3l-4.3 -2.5l3.6 -2.8l0.8 -3.6l-0.7 -4.3l-2.2 -3.4l-0.1 -3l-6.6 -7l-2.1 -0.4l-3 -4.7l-10.6 -0.1l3.8 10.3l2.7 -0.2l5.4 11.2l2.9 1.6l-16.4 0.1l-9.2 0l-10.8 -5.1l-10.8 4.2l-1 0.4l-1.1 0.3l-5.6 -3.4l-2.4 0.7l-0.6 5.7z"/></g><path data-id="22101" d="m417.9 737.9l-4.2 3.2l5.2 1.3l4.5 -2.5l9 -4.8l6 -1.7l2.9 -0.2l5 2.3l8.4 -1.5l6.6 0.7l2.2 1.6l0.7 3.2l-0.1 2.2l-1 2.6l-0.6 3.2l0.3 2.9l-0.4 2.1l-1.9 3.3l-1.1 1.5l-1 0.8l0.9 1.4l3.6 1l4.8 -1.1l3.5 -1.3l2.2 -0.3l1.9 0.2l1.4 1l2.2 8.5l0.9 6.3l1.6 1.6l0.7 1.5l-0.1 1.3l-1.1 2.3l2.7 1.2l4 -2l1.9 3.8l0.2 5l4.7 6.4l5 -2.7l3.4 -0.6l4.4 -2.6l2.9 -3.4l4.2 -0.1l3.3 5.4l3.8 2.2l-2.4 3.4l-3.8 1.8l1.1 2.3l-3.2 2l0.1 3.2l6.6 -1.3l-0.8 7.7l4.6 -2l1.5 -2.8l2.8 2.2l2.2 -1.4l3.6 -6.3l3.6 0l-3.8 -1.4l-1.4 -6.2l-1.5 -1.5l1.5 -7.7l-1 -4.9l1.2 -1.5l4.7 -1.1l3.2 -3.2l-0.4 -2.9l2.7 -3.2l6.3 -4.2l2.7 3.7l4.6 -3.6l3.2 0.3l1.1 -2.2l6.6 -1.9l-0.7 -1.9l-3.7 -1.8l1.9 -11.7l-7.4 -6.1l-9 -1l-6.6 -5l-2.7 0.5l-13.2 -3.5l-10.2 -0.3l-6.6 -3.8l2.5 -11.2l-5.3 -8.6l-2.4 -6.9l-11.2 -9.5l0 -1.8l-29.2 2.4l-9 12l-7.5 9.9l-24.8 21.1l-3.4 3.1l-0.1 1.8z"/><path data-id="22103" d="m724.7 520l1 3.7l-0.6 6.9l1.8 3.9l-1 6.9l1.1 4.5l-0.3 3.5l0.1 17l0.1 31l9.9 11.8l1.3 5l4.8 11.9l1.3 6.8l-0.4 3.1l2.2 2.1l7 3.3l4.9 1.7l8.1 0.5l7.1 -1.7l5.5 -2.9l13.6 -5l10.5 1.9l5.3 2.2l4.5 4.3l4.1 0.3l3.9 -2.3l1.9 -1.7l6 3.6l5.5 -3.1l5.7 3.6l6.2 1.5l1 -0.9l3.7 0.9l2.1 0.4l2.9 -2.1l1.7 -1.8l1.5 -0.5l3.4 -0.2l1.2 -1.2l1.3 -0.8l-0.7 -1.8l-1.1 -1.4l-1 -0.2l-1.6 0.6l-1.4 1.6l-1.5 0.8l-1.5 0.5l-2 -1.3l-1 -1.3l-0.6 -1.8l-1.5 -2.5l-0.9 -1l-1.2 -0.2l-1 -0.5l-0.8 -1.3l0.2 -2.1l0.3 -1.4l-0.4 -1.3l-1.5 -0.6l-1.5 -1.5l0.1 -1l0.3 -1.2l-0.1 -2.1l-1.4 -1.9l-1.1 -0.6l0.3 -3.6l1.4 -1l1.5 -1.3l-0.7 -1.5l-0.1 -2.6l0.1 -1.4l-1.3 -1l-1.7 -0.9l-0.3 -1l-1.1 -0.7l-1.5 -1.7l-0.4 -1.7l-1.5 -2.5l-0.5 -1.5l-1.2 -2.4l-0.9 -1.3l-0.1 -1.5l1 -0.4l-0.4 -3.3l-0.3 -1.1l-0.5 -1.2l0.4 -1.4l-0.1 -1.3l-1.2 -1.7l-1.2 -0.9l-1.1 -0.4l-0.7 -1.6l-0.8 -1.2l-1.1 0l-0.7 -1.2l-0.3 -1.2l-1 -0.8l-1.6 -0.5l-1.5 -0.6l-0.8 -1.2l-1.2 0l-1 -0.6l-0.2 -1.7l-1.7 -0.4l-0.4 -1.5l-0.1 -1.3l-0.9 -2.4l-0.8 -1.2l-1.7 -0.1l-1 -0.3l0.4 -1.2l-0.5 -1.1l-1.6 -0.3l0 -1.1l1.2 0.2l1.3 -0.8l-0.8 -1l-1 0.1l-1.2 0.4l-0.1 -1l-0.6 -2.8l-0.5 -1.4l-1.2 -0.2l0.2 -1.8l0.5 -1.2l-1.3 -0.2l-0.2 -1.6l0.2 -1.1l0.6 -3.2l-0.7 -2.2l-0.6 -1.2l-1.6 -1.8l-1.4 -0.3l-2.1 -0.6l0.6 -1.1l-27.2 0.1l-2.1 -0.3l-48.6 -10z"/><path data-id="22105" d="m665.1 494.8l-0.1 15.7l0.1 1.4l0.2 18.7l-0.3 3.1l0 1.5l0.1 14.7l0 7.3l0 4l0 8.7l1.7 1.8l1.6 2.5l-0.5 1.1l1.3 7.3l5 3.5l6 13l2.8 2.3l-2.2 5.2l-0.1 9.9l12.5 -0.6l4.1 -1.4l5.2 0.5l4.2 -2.9l5.7 -0.5l3.7 1l11 5.5l15.8 7.9l-4.8 -11.9l-1.3 -5l-9.6 -10.9l-0.4 -31.9l-0.1 -17l0.3 -3.5l-1.1 -4.5l1 -6.9l-1.8 -3.9l0.6 -6.9l-1.4 -3.3l0.8 -5.7l-2.1 -4.8l0.4 -1.9l-2.9 -3.2l-0.4 -3.4l-2.6 -2.6l0.6 -3l-2.1 -6.9l-3.2 -5.1l0.2 -3.9l-2.5 0l-0.8 -3.3l-2.4 0l-0.1 -21.2l-4.2 0l-2.1 0.1l-8 0l-2.9 0l-3.6 0l-3.3 0l-2.3 0l-11.8 0l-3.7 0l0 39z"/><path data-id="22107" d="m473.5 270.3l-1.7 7l6.3 9.9l11.4 0.2l16.6 -0.5l3.9 1.3l-0.4 3.3l4.8 -2l3.9 -0.6l3.1 -0.3l5.2 0l3.1 -0.1l2.3 -2l0.7 -1.5l-0.7 -1.3l-2.1 -0.9l-2.3 -0.2l-2.9 1.2l-2.8 -0.2l-1.2 -0.1l-5 0.4l-3.1 -1l0.2 -2.3l0.8 -4.3l2.6 -9.8l1.4 -1.9l2.2 -0.9l6.2 -1.2l1 3.1l-0.2 3l0.1 1.1l0.3 1l0.6 1.3l0.9 1.2l2.1 0.9l1.4 0l1.2 -0.7l1.1 -1.1l0.5 -1l0.4 -2.1l-3.1 -3.3l-1 -1.1l-0.4 -1.7l0.4 -1.3l3.5 -1.3l2.5 -1.6l1.5 -1.9l3.5 -3.5l1.1 -1.7l1 -0.2l1.2 -0.9l1.4 -0.7l-0.3 -1.7l0.2 -2.1l-1.4 -0.2l0.3 -2.8l0.1 -1.5l-0.1 -1l0.9 -1.8l1.4 -1.7l1.4 -1.3l1.1 -0.8l9 -1l2.5 -0.7l1.5 -1l1.1 -1.2l2.7 -3.8l-1 -1.5l-0.3 -1.2l-1 -1.3l-1.4 -0.7l-5.7 -1.2l-3.8 -0.8l-1.2 -0.6l-1.4 -1.5l-0.5 -1.5l0.1 -1.2l1.1 -1.8l1.3 -1l1.8 -0.4l2 1.2l0.9 1.1l1.9 3.1l2 1.8l1 0.4l3.1 0.2l0.1 -6.4l2.9 -2.2l5.4 -2.9l1.5 -2.2l0 -1.4l0 -1.4l-1.6 0l-1.2 -0.3l-1.3 -0.5l-1.8 -0.7l-1.4 -1l-1.5 -0.5l-2.8 0l-1.8 0.6l-2 1.4l-3.9 -0.3l-1 -0.3l-1.5 -0.7l-2 -0.4l-1.5 -0.1l-1.7 -2.7l-0.3 -1.1l-0.2 -1.3l0.2 -2.1l0.5 -2.8l0.6 -2.3l0.7 -2.3l1.2 -1.2l4.7 -2.6l1.8 0.5l0.4 -6.5l-2.3 -2.1l-9.5 0.9l-6.1 2.8l-3.7 5.2l-7.2 -4.7l-8.6 5.3l-0.7 1.2l-32.9 -0.2l0.1 10.6l-2.5 2.4l0.9 9l-1.6 1.8l3.7 1.9l-0.5 4.4l-1.8 0.8l0 4.6l-1.6 5.7l2.4 2.3l-0.2 4.5l-3.1 1.2l0.5 2.3l-3.1 3.6l2.9 1.2l0.3 5.4l-2.6 3.3l-3.5 0.4l-5 4.6l-1.2 2.5l1.3 12.5z"/><g data-id="22109"><path d="m666.8 877.1l4.1 4.3l9.3 3.4l8.7 0.6l4.5 -2l-3.6 -1.6l-7.5 -0.7l-8.9 -3.4l-6.6 -0.7z"/><path d="m630 885.5l-2.7 2.3l3.2 1.1l12.5 -2.3l5.9 -1.6l-1.8 -3.2l-7 0.5l-5.5 1.6l-4.5 1.6z"/><path d="m518.6 830.7l-0.4 1.5l6.2 7.2l4.6 4l11.4 4.8l3.7 1l13.5 1.2l2.8 1.7l4 4.4l6.8 1.3l5.1 -0.1l1.5 1.6l4.6 1.2l3.6 -0.4l3.9 -2.1l2.5 1.5l1.2 2.6l3.1 2l5.3 4.8l2.5 3.1l1.5 2.7l3.4 2.2l1.6 4.5l-1.5 1.9l-1.6 2.1l5.2 2.1l5.4 0.9l0.8 -3.1l0.5 -1.8l1.4 -6.9l2 -2.5l3 1l1.1 -2.3l4.2 -0.9l1.7 -3.7l2.4 -0.3l2.3 4.3l3.3 -1.9l2.5 -6.8l-0.7 -2.1l1.8 -1.9l5.6 1.2l0.7 -5.3l2 -4.8l4 -0.1l1.1 -2.1l-1.2 -1.8l1.4 -1.2l5.8 2.4l2.5 -1.7l-5.3 -4l0.3 -4l-2.3 -3.8l0.5 -3.2l3.4 -1.8l2.6 1.7l2.3 4.1l5.2 -4.1l2.7 0.4l3.2 1.4l3.3 0.7l1.8 -1.3l3.4 -5.1l-1.3 -3.1l2.1 -2.6l2.9 0.2l2.4 5l3.3 2.6l1.6 2.9l-0.6 3.8l-0.5 4.4l3 -0.1l0.5 1.2l1.6 -1.9l-0.6 -4.1l-1.4 0.3l1.3 -4.6l-1.9 -4.8l1.3 -5.3l-0.9 -3.7l-3.6 -4.1l-2.9 -1.3l-7.4 -8.7l-1.8 -4.9l-7.6 -5.6l-8.5 -11.8l-3.4 -0.9l-1.2 -5.2l-5.3 -3.1l-3.3 -5.6l-7.3 -2l-5.7 -8.4l-2.8 -3.5l-1.1 -0.9l-3.7 -2.2l-2.3 0l-5.3 -4.4l-2.1 -5.5l-2 -6l-3.2 -0.4l-1.1 -5.9l-3.3 0.1l0 2.5l-3.2 1.9l0.7 2.1l-7.9 0.1l0.4 6.4l-24.2 0.4l-14.5 19.5l-6.6 1.9l-1.1 2.2l-3.2 -0.3l-4.6 3.6l-2.7 -3.7l-6.3 4.2l-2.7 3.2l0.4 2.9l-3.2 3.2l-4.7 1.1l-1.2 1.5l1 4.9l-1.5 7.7l1.5 1.5l1.4 6.2l3.8 1.4l4 1.2l1 2.6l-0.5 1.1l-1.1 2.4l0.5 1.8l3.4 1.5l1.4 4l8.3 3.9l-0.2 1.9l3.3 0.8l1.8 4.6l0.7 4.3l-2.3 3.2l0.8 2.7l1.7 1.5l-0.4 3.3l-2.8 0.3l-3.5 -1l-3.4 -2.5l0.8 -4.8l-0.3 -3.4l1.4 -3.1l-1.8 -1.5l-4.6 4.3l-5 -4.5l-3.1 -5.4l0.2 -4.5l-5.4 2.3l-1.7 3.5l-0.4 3.3l-2.9 4.1l-3.3 1.2l-4.5 0z"/></g><path data-id="22111" d="m250.5 45.9l0 3.3l1.7 0l0 10l17 0l4.4 1.6l4.3 -0.5l3.8 1.4l4.9 6.9l5.1 -0.6l0.1 11.4l19.8 0.2l0 19.8l19.6 0l7.8 0.4l9.2 -2.1l0.5 -4.6l7.3 -5.2l8.7 -6.3l-0.2 -3.3l3.5 0.4l5.9 -3.2l4.8 -8l-0.9 -2.4l3.2 -0.8l-2 -5.7l2 -7.4l-2.5 -6.1l-0.2 -2.8l2.1 -0.8l-4.3 -6.2l-1.1 -3.9l1.3 -2.5l0.1 -9.3l-1.7 -7.1l1.8 -1l-1.1 -2.8l2 -1.5l0.4 -4.5l-29.4 -0.2l-13.4 -0.2l-8.3 -0.1l-5.2 -0.1l-1.4 0l-19 -0.3l-6.1 0l-5.5 -0.1l-34.7 -0.4l-2.4 0l-0.3 44.8l-1.7 0z"/><path data-id="22113" d="m252.4 667.1l-2.8 2.5l23.5 -0.2l0.3 58.3l-0.6 41.4l9.4 1.9l6 0.8l12.1 2.8l12.2 3l8.6 1.8l7.9 1.8l8.2 -0.4l5.5 -1.3l7.5 -5.1l10.3 -4.2l10.1 -1l7.9 0.1l4.3 -0.2l-1.2 -1.3l-3.3 -2.5l3.2 -2.3l6.1 -0.3l-3.4 -3.5l-4.7 2l-6.2 0.6l-3.2 1.4l-3.5 -6.5l-2 -5.4l6.4 -5.6l-2.8 -1.2l-5.9 0.7l-3.9 -1.1l-5.9 -5.6l-1.5 -4.1l1.6 -2l5.5 3l-0.7 -4.3l4.8 -0.8l2.5 -0.9l2.5 3.1l1.5 3.1l10.1 -6.5l11 -4.8l5.2 -2l-0.7 -2.7l-0.1 -3l2 -1.8l-4.1 -33.3l2.2 -1.4l3.4 -10.2l-11.4 -4.8l-8.1 -3.4l-1.3 -1.5l-3 -10.5l-6 1.4l-1.5 1.3l-8.1 -3.3l-6.2 -2.7l-4.7 1.3l-10.1 -1l-1 -1.3l-2.5 2.4l-4.8 4.3l-1.8 3.5l-8.4 7.7l-9 3.8l-8.9 -2.8l-6.9 -3.8l-5.5 -6.3l-4.3 -1.8l-5.8 4.4l-3.3 -0.5l-2 2.1l-1.9 -0.8l-2.4 4.5l-3.1 -1.5l-5.8 4.3l-7.5 2.4z"/><path data-id="22115" d="m90.6 456.5l-0.4 2l0.8 2.1l1.4 1.5l2 0.9l3.3 3.7l1.2 2.5l0 2.1l-0.9 1.2l-2.2 1l-1.4 -0.3l-1.2 2.2l-0.2 2.2l-1.5 1.4l-0.7 1.5l0.1 2.2l1.7 2l0.8 -1.8l6.1 -0.5l4.3 3.2l4.2 1.3l3.8 -1.6l4.4 -3.4l9.3 -0.3l20.4 0.1l14.4 -0.1l9.5 0.1l4.1 1l29.7 0l29.6 0.6l-0.1 -3.2l-0.7 -27l-0.4 -53.9l-3.2 -0.2l0 -4.7l-3.1 0l0 -3.2l-3.3 0l0 -6.4l-3.2 -1.6l-6.4 0l0 -1.7l-6.5 0l0 -1.6l-3.2 0l0 -1.6l-2 -3.1l-7.7 0l-39 -0.9l-29.5 0.1l-10 19.6l-17.8 0.1l-0.1 5.3l-3.1 3.3l2 2.5l-1.9 2.6l1.3 2.8l-1.6 3.8l3.3 0l0.6 1.1l-1 5l-1.4 1.3l-0.2 2.2l0 1.6l0.8 1.6l0.1 1.6l-0.3 1.9l-1.6 1.9l-0.4 1.8l0.1 1.4l0.8 1.8l1.2 1.1l1.7 0.7l1 0.9l0.6 1.2l-0.4 1l-1.3 1.2l1.7 3.9l1.2 1.2l0 2l-4.3 3.4l-3.1 1l-1.3 -0.5l-1 1l-0.3 1.1z"/><path data-id="22117" d="m707.2 455.7l0.1 21.2l2.4 0l0.8 3.3l2.5 0l-0.2 3.9l3.2 5.1l2.1 6.9l-0.6 3l2.6 2.6l0.4 3.4l2.9 3.2l-0.4 1.9l2.1 4.8l-0.4 5.3l48.6 10l2.1 0.3l27.2 -0.1l0.7 -1.9l1.6 -3.5l0.2 -2l-0.4 -1l-1.1 0.3l-0.4 -1.1l1.8 -2l1.2 0l0.4 -1.9l-1 -0.4l-0.7 -1.7l2.1 -0.5l1.7 -0.2l-1.1 -0.8l-0.4 -1.4l-0.4 -2.5l-0.7 -2l1.4 -2.7l0.6 -2l0.4 -1.5l1 0.3l0.4 1.2l1 -0.1l-0.4 -1.2l-0.2 -1l1.1 -0.6l0.8 -1.8l0.1 -1.1l0.2 -1.3l1.3 0.2l1.1 1l0.4 -2.5l-1 -0.7l-0.2 -1.7l0.5 -1.4l1.3 -0.4l-0.5 -1.5l1 -0.8l1.2 0.5l0.9 -2.2l-2 -2.2l-0.1 -1.2l1.6 -0.8l-0.4 -1.8l-0.3 -1.5l1.6 0l1.2 -0.1l-0.2 -2l-0.9 -1l0.9 -1.1l1 0.5l1.4 -0.6l0.5 -1.1l-1.1 -2l0 -1.3l-1.1 -0.8l0.9 -2.6l1.5 -1.6l1.5 -1.8l1.2 0.1l0.2 -1.1l-1.5 -0.7l1.1 -1.2l0.5 -3l-1.3 -0.5l1.2 -1.2l-2.7 -0.5l-1 0.8l-1 -0.4l-12.2 -0.1l-1.6 0l-2.1 0l-4.1 0l-6.9 0.1l-5.8 0.1l-9.5 0l-6.2 0l-3.2 0l-1.4 0l-4 0l-14.9 0l-6.9 0l-5.8 0l-12.5 0l-16.5 0.1z"/><path data-id="22119" d="m98.1 10l2.1 2.4l2 6.7l3 3.3l2.4 -1.3l2.2 2.2l0 3l-2.4 0.6l0.3 2.5l2.9 2.7l0.3 2.5l3 0.4l-1.3 3.6l-2.4 0.7l2.1 3l0.5 3.1l-2.5 2.8l1.4 0.7l-2.7 5.2l1.7 2.6l-0.9 2.3l4.8 0.1l-0.1 26.6l-0.2 33.2l1 0l0 15.9l0 3.9l13.1 0.1l26 0l0 -10l17.1 -0.2l0.1 -3.4l-4.8 -12.8l0.6 -5.3l-2 -8l0.2 -8.6l0.8 -2.4l-2.4 -9l-0.1 -10l-9.7 0.1l-0.2 -68.7l-13.3 0l-6.1 0l-7 0l-17.2 -0.1l-4.3 0l-6.1 0l0.9 3.7l-2.7 6.1z"/><path data-id="22121" d="m490.1 564.7l-0.6 3l4.8 5.9l5.1 3.8l7.4 9.9l0 3l6.2 2.8l4.9 6.7l2.2 1.3l1.1 0.6l1.6 4.7l11.2 -0.1l21.2 -0.1l-1.7 -3.1l-4.5 -1.5l-11.7 -0.1l-1.1 -2.9l1.5 -3.9l4.9 -6.3l1.7 -4.1l0.6 -3.8l0 -2.9l0 -1.1l-0.2 -10.9l-0.7 -2.4l-1.6 -1.2l-5.1 2l-5.1 1.9l-3.6 -0.2l-0.6 -2l7.3 -4.6l0.6 -3.8l-4.6 -4.3l-7.4 -0.1l-1.6 -1.3l-0.2 -3.4l2.6 -3.4l1.7 -4.9l-0.3 -2.2l-0.7 -1.8l-2.4 -1l-2.3 -0.5l-1.6 -0.6l4.1 1.9l-2 3.8l-8.6 10l0 4.2l-6.2 0l-1.9 6.3l-1.4 6.4l-12.8 0.2z"/><path data-id="22123" d="m462 68.4l-2 3.8l2.8 1.5l0.4 3.6l-3 2.9l7.8 0l0.2 19.3l28.8 0.1l3.6 -4.1l5.7 -2.2l-1.5 -4l1.8 -3.2l-1.1 -6.4l0.7 -5.4l4.5 0.7l-0.4 -3.7l4.1 -7.8l2.4 -2.2l0.6 -16.2l0 -9.2l2.4 -2.4l1.1 1.9l2.1 -6l0.2 -10.4l5.5 -3.4l2.4 -5.5l0.5 -6.8l-3.7 0l-5.3 -0.1l-2 0l-1.4 0l-8.8 -0.1l-9.5 -0.1l-2 0l-2.6 5.1l2.3 0.7l-3.6 3.4l-4.5 6.9l0.8 1.3l-4.3 6.4l0.7 2.5l-3.2 2.7l-4.4 0.4l-6.1 5l-2.2 5.8l-2.5 5l0.3 2.4l-2.6 2.3l1.4 4.8l-0.3 3.9l-3.9 6.4l-2.1 0.4z"/><g data-id="22125"><path d="m458.2 459.5l-2.6 2.9l3.4 9.2l-3.1 7.6l-0.1 8.5l2.8 2.7l4.5 1l3.9 -1.2l4.7 -0.1l2.1 2.1l2.1 -2.6l-1.4 -7.7l-2.4 -2.2l-6.4 -1.1l-1 -4.3l8.9 -0.3l3.6 0.6l5.3 5.8l1.1 3.9l-0.5 4.7l-4.1 13.4l-3.4 2.9l-5.2 1.2l-1.6 1.5l-0.3 3.5l4.5 3.3l3.5 1l8.2 -2.1l4.4 -0.2l7 1.2l10.6 -4.8l3.8 0.3l4.2 7.7l2.4 11.5l1.9 2.6l1.6 0.6l2.3 0.5l0.9 -4.3l-3 -5.8l5.3 -3.6l-0.7 -2.2l2 -2l0 -2.7l1.8 -2.6l1.8 0.2l3.6 -6.5l2.4 -1.9l-1.2 -2.1l2.3 -1.3l-0.8 -3.2l1.9 -5l-0.9 -1.4l1.8 -2.5l-0.5 -3.6l1 -2.7l1.9 0.2l-0.3 -5.1l4.2 -4.8l-1.5 -2l-0.1 -3.9l2.5 -2.6l1.1 -5.5l-9.2 0l-4.2 -0.1l-28.7 0.1l-5.2 0l-14.1 0l-7.9 -0.1l-16.5 0l-2.3 -0.1l-2.3 3.6z"/><path d="m439.3 450.6l-0.5 1l6.9 2.7l5.1 -2.5l5.5 5.3l2.7 -6.3l-1 -3.3l-2 -1.5l-7 1.1l-5.2 -1.1l-4.5 4.7z"/></g><path data-id="22127" d="m204.2 296l16.1 0.9l42.9 -0.1l9.1 0l0.1 -19.8l7.6 0l41.5 0.1l0.1 -2.6l2.5 -0.2l2.4 -3.1l-1 -0.9l2.3 -5l-1.5 -0.5l3 -3l-0.6 -4.8l2.3 -2.2l0 -7l0.1 -49.4l-63.9 -0.2l-10.3 0l-17.6 0.1l-4.4 -0.1l-23.8 -0.2l1.5 5.8l3.5 4.3l1.5 5l-1.3 1l3 5l-0.5 2.3l2 3.1l0.1 5.1l-2.5 4.7l3.3 1.5l-0.3 5.5l2.5 2.4l-2.4 1.5l-1.9 5l0.4 3.5l-1.6 1.7l-1 5.5l1.5 2.2l-1.9 2l-8 -1.2l2.2 6l-1.9 2.4l1.3 0.9l-2 7l-2.7 0.5l-0.3 11.3l-1.4 4.1z"/></svg>
