<?xml version="1.0" encoding="UTF-8"?><!DOCTYPE svg PUBLIC '-//W3C//DTD SVG 1.1//EN' 'http://www.w3.org/Graphics/SVG/1.1/DTD/svg11.dtd'><svg viewBox="0 0 1000 913.048" xmlns="http://www.w3.org/2000/svg"><path id="22001" d="m270 608l1 3v4l1 9l-1 3l2 3l6 3h-1v4l-5 2l2 4l-3 2l-1 3l2 7l-2 2l2 1l2-2l4 1l5-5l5 2l5 6l7 4l9 3l9-4l8-8l2-3l5-4l2-3l2 1l6-9l-1-4l3-4l5-1v-4h6v-6h3v-3h4v-3v-5h-3v-5l-4-2v-11v-5v-3h-13v-10h-4h-28h-15h-26h-1l6 10l1 4l-2 4v3l-5 2l2 9z"/><path id="22003" d="m175 546v38h12v-3h56v-11h27l3-5l-1-2l3-2l4-9l-2-4v-69v-1h-24l-20 2v3h-29v9v1v52h-29z"/><path id="22005" d="m562 654v10h3v-3l3-1l4 2l9-2l4 3h4l6-4l4-5l-1-1l9-2l31-7l13-3l2-12l-4-3l-2 2v3l-3 1l1 2l-4 5l-2-2l-3-1l-1-4l-2-1l1-2l-4-5l-3 1l-2-2l-3-4l1-3l-5 1l-2-4l-1-6l-4-2l-2-3l-6-1l-4 2l-2-1l-12-1l-1 1l-4 2l-1 2l-1 1h1l-5 15l-3 9l-3 11l-3 5v7z"/><path id="22007" d="m533 678v6l1 3l4 5v4l3 2l3 10l2 3l8 3h3l4 3l4 5l-2 3l1 5v6l-2 1l1 7l1 1l-2 12l4 1v2l15-19l11-17l5-9l3-10h4v-6v-4v-3h-8v-9h-6v-13l-1-7h-4l-4-3l-9 2l-4-2l-3 1v3h-3l-23 8l-2 6z"/><path id="22009" d="m337 464v6l8 10v10h5l17-1h18l41 1l-1-2l3-2l1-13l-1-11l2-2l3-1l1-4l5-3v-1l5-5l2-8l-1-3l3-3l-3-6l2-5l1-1h3l2-6l-3-3l-3-2l-3 2l-3-1l-4-4h-3l-7-3v-3l-4-4l-4 1l-3-4l-8-4l-4 2l-3 4l2 7l3 2l-4 2l-1-4h-3l-2 3h-4v-3l-2-1l3-1l-3-2l-1-5h-2l1-5l1 2l3-1l-2-2l1-2l-2-2l-3-4l-11 4l-1-2l-1 2l-6 4l-7 1l-3-2v-3l-3-2l-3 2l-2-1l-3 2v38l2 2l-2 2l1 4v9l3 19l1 6z"/><path id="22011" d="m58 558l1 2l1 1l3 2l1 3l-2 2l3 8l1 4l-1 3l-4 2l-3 4h49v-4v-12v-4h19v7v13h49v-5v-38v-1h29v-52v-1v-9h-30l-4-1h-10h-13h-1h-20h-10l-4 4l-4 1l-4-1l-4-3h-7v2v6l1 2v2l-2 4l-1 1h-2l-1 1l-1 2v2l-1 3l-3 2l-2 3v1l2 2v1v2h-1l-1 3v2l-2 3l-2 2h-3l-3 3l-2 4v3v4v1l1 1l-1 1l-1 1v-1h-1l-4 1l-3 4v1l1 2l-1 3z"/><path id="22013" d="m122 175l-4 3h41v10l4 3l1 7h47h24l-1-3h1l3-5v-6l2-1l3-5v-19l-1-30h-19v-24l-1-6h-11h-12h-34l2 8v5l5 13l-1 3l-17 1v10h-26l-3 3l-4-1h-2l-1 5l5 2l-5 13l2 6h2z"/><path id="22015" d="m41 12l-3 4l4 1l4 3l-3 7v4l3 3v2l-2 2l3 1l2-2v8l-2 3l-4 2l-1 2l1 2l3-3h3l1 3l-2 5l-5 6l-2 4l2 1l3-3h3l1 3l-1 10l2-1l2 5h-3v3l4-1l2 5l-2 3l3 1l-5 1l3 2h3l1 2l-4 3v2h3l-3 5l-2-1l5 6l7 4l-3 2l4-1l-1 2l4 6l-2 2l4 2l2 3l-2 1l-2-3l-2 3l2 1h4l-5 2v3l5 2l-1-4h4l2 2l-3 4l4-5l1 9l3-2l-2 3l1 2l5-1l1 5l4-1l3 1l-1 2l1 3l1-3l3 2l-2 4l4-1l-2 5l6 2l1 5l2 1l-1-4l4 2l-2 3h9l4-3v-8h-2l-2-6l5-13l-5-2l1-5h2l4 1l3-3h-13v-4v-16h-1v-34l1-26h-5l1-3l-2-2l3-5l-2-1l3-3l-1-3l-2-3l3-1l1-3l-3-1v-2l-3-3l-1-2l3-1v-3l-2-2l-3 1l-3-3l-2-7l-2-2l3-6l-1-4h-1h-1h-37h-15h-2l-2 2l1 8l-1 2l4-2v2z"/><path id="22017" d="m0 74v9v3v4v1v2v11v1v9v1v2v3v1v1v1v1v1v7v1v8v2v4v2v21v12v5h10h8l6-5l4-2l7-6l1-6l1-3l8-5v-3l3-3h7l1 1l7 5h5h4l3 2l7 8v8h27l2-3l-4-2l1 4l-2-1l-1-5l-6-2l2-5l-4 1l2-4l-3-2l-1 3l-1-3l1-2l-3-1l-4 1l-1-5l-5 1l-1-2l2-3l-3 2l-1-9l-4 5l3-4l-2-2h-4l1 4l-5-2v-3l5-2h-4l-2-1l2-3l2 3l2-1l-2-3l-4-2l2-2l-4-6l1-2l-4 1l3-2l-7-4l-5-6l2 1l3-5h-3v-2l4-3l-1-2h-3l-3-2l5-1l-3-1l2-3l-2-5l-4 1v-3h3l-2-5l-2 1l1-10l-1-3h-3l-3 3l-2-1l2-4l5-6l2-5l-1-3h-3l-3 3l-1-2l1-2l4-2l2-3v-8l-2 2l-3-1l2-2v-2l-3-3v-4l3-7l-4-3l-4-1l3-4h5v-2l-4 2l1-2l-1-8l2-2h-40h-1h-2h-1v15v4v6v2v2v3v2v17v2v1v1v2z"/><path id="22019" d="m53 604v1h1l4 6l3 2h1h1h1v1v2v1v1v5l1 1l-2 4l-1 1v2v4l2 3l1 1v2l1 3l2 3l-1 1l-1-1h-1v6l-4 4l-2 1v1l1 1l3 3h2l1 1v1l-1 1h-3l-1 1l1-1h36h36h6h25h2h8v3h25v-9l21-1l-1-3l-3-3v-4l4-3l-1-3h-20v-23h-6v-26h-11h-8v-1v-4h-49v-13v-7h-19v4v12v4h-49l-1 1h-1l-1 1l-1 1l1 4v3z"/><path id="22021" d="m331 198v50h59h19v-10h3l-2-6l1-3l-1-3v-4l-2-1l-2-5h-2l4-4l2 2v-2l6-1l-1-3l1-3l-1-2l-4-3v-3h-1l1-3l-3-1l-4 1l-4-2l-5 2l1-3l-2-3l2-3l-5 3l-1-2l5-4l-1-1l-3 3l1-4h-2l2-8v-3h-8h-13v4h-9l-3-4h-28z"/><path id="22023" d="m22 721v2v1l1 1l5 3l1 1v1v2v2l1 1l2 1h1l1 3l5 7l4-3l4-2l6-3l5-2l11-2l9-2h9l10-2l12-1h7l11 1h6l10-3h5h8l10 1l17 5l11 3l7 3l9 3l13 6l17 9l9 4l17 6l7 2v-41v-59l-23 1l-4-1h-46h-25v-3h-8h-2h-25h-6h-36h-36l-1 1l-3 3v1v2l-9 7v1l-4 7l-1 4l-1 3v2l-2 4l-2 3l-3 4l-2 1l-1 2l-4 1l-2 2l-3 2l-1 2l-1 2z"/><path id="22025" d="m388 388l-1 5h2l1 5l3 2l-3 1l2 1v3h4l2-3h3l1 4l4-2l-3-2l-2-7l3-4l4-2l8 4l3 4l4-1l2-2v-4h-4l-4-2l-1-3l1-9l4-4l2-1l5 2l3-1l3-2l-2-3h-6l-5-3l-2-3l-2-10l2-3v-3l1-2l3 1l2 2l3 12l4-1l4 2h5l3-1v-3l-1-3l-2-1h-8l-4-1v-4l3-3l2-3l-1-3l-6-5l-3-4v-6l1-1v-1l1-3l2-3l6-4l4 6l3 2l2-1l4-5l-1-8l2-6l1-6l2-3h1l4 3h5l4-3l2-4l4 1l2 5l4 3l2-2l1-3l-2-2l-6-10l1-7l-1-12h-4v-20h-10l-1 5l-3 5l-2 1l-3 4l-5 2l-1 3l-5-1l-5 3v-3l-5-2l2-2l-2-3h-3l-5-6l1-2l-9-4h-3v10h-19l-1 29v35v6v65l2 2l-1 2l2 2l-3 1z"/><path id="22027" d="m154 0v69h10v10l2 9v2l-1 9h34h12h11l3-5l1-8l-1-8l3-4l2-3l3-2l-1-10h20v-10h-2v-3h2v-45h-1h-12h-7h-3h-1h-3h-15h-5l-3-1h-16h-2h-4h-3h-7h-8h-4z"/><path id="22029" d="m417 376l-1 9l1 3l4 2h4v4l-2 2l4 4v3l7 3h3l4 4l3 1l3-2l3 2l3 3l-2 6h-3l-1 1l-2 5l3 6l-3 3l1 3l-2 8l5 1l7-1l2 1l1 4l-3 6l-1 2l1 3l2-2l2-4l3-1l3-2l3-1l3-2l1-1l1-2l1-2v-1v-2l-1-1v-1l-5-5l-3-2l-1-1h-1l-1-1v-1l-1-1l1-2v-1v-1l4-4l1-1v-1l1-2l1-1v-1v-1v-1l-1-1l-1-1l-1-2l-4-4l-4-2l-1-2l-1-1v-1l1-1v-1l2-1h3h3l4 1h2h2h2l3-1l4-2h1v-2l1-1v-1v-4v-1l-2-2l-2-1l-1-1v-1l-2-1l-1-1v-1v-2v-1v-2l1-2l-1-1h-1l-1 1l-2 1v-1l-1-2v-2v-1v-1l1-2l1-1l2-1l1-1h1h1l1 2l-1 1v1l1 5l1 3l1 1l2 1l1 1h1h5l1-1v-2v-1v-2v-1h-1l-1-2l-1-2l-2-1l-2-3v-1l-1-2v-1l-1-2v-5v-4l1-1v-1l-1-1l-1-1v-1l1-1l1-1l1-1l2 1l2-1l1 1h1l5-2l1-1l2-1l2-1l2-2l1-2l1-1v-3l-2-2h-1h-1h-1l-1 1l-4 1l-2 1h-2l-2-1h-1l-2-2l-2-2v-1h-1v-1v-1v-2h1v-1l1-1l2-2h1l1 1v1l1 1v1l2 1l2 1l5 2h1h2l1-1l3-1v-2v-2l1-2l-1-4v-5v-3v-2v-1l3-4h1v-4l-4-1h-17h-11l2 2l-1 3l-2 2l-4-3l-2-5l-4-1l-2 4l-4 3h-5l-4-3h-1l-2 3l-1 6l-2 6l1 8l-4 5l-2 1l-3-2l-4-6l-6 4l-2 3l-1 3v1l-1 1v6l3 4l6 5l1 3l-2 3l-3 3v4l4 1h8l2 1l1 3v3l-3 1h-5l-4-2l-4 1l-3-12l-2-2l-3-1l-1 2v3l-2 3l2 10l2 3l5 3h6l2 3l-3 2l-3 1l-5-2l-2 1z"/><path id="22031" d="m0 200v3v1v15v12v2h1l2-1l2 1l1 2l7 13l1 1l3 2l2 1h1l1 1v2l1 1h1h1v-1h2v1l1 1v1l1 2l1 1l1 3v2h1h71h13v-15l4-5l3 4l5-4l5 1l-2-1l-2-6l-6-6h-7l-3-7l-4-3v-6l-4-1l-2-3l-6-7l4-4l2-2l-2-2l-1-9l-2-2h-4l-7-3l-1-3l-3-4v-8l-7-8l-3-2h-4h-5l-7-5l-1-1h-7l-3 3v3l-8 5l-1 3l-1 6l-7 6l-4 2l-6 5h-8h-10v7v2z"/><path id="22033" d="m522 546v4l2 1h7l5 4l-1 4l-7 5v2h4l5-2l5-2l2 1l1 3v10v2v2l-1 4l-2 4l-4 7l-2 4l1 3h12l4 1l2 3l1 2l7-1l14 1l1-1l1-1l1-2l4-2l1-1l12 1l2 1l4-2h-1l-2-3l-6-1l-2-7h-4l1-4l-3-2l1-3l-3-5l3-2l1-8l-2-4v-3l1-1l1-5l-3-5l3-2l7-4l-1-2l5-6l8-10l5-3l-1-3l-39 2l-38 1l-2 2l-1 4l-4 1l-2 6l1 2v2l-1 5z"/><path id="22035" d="m500 104l-5 6h29h20h13l5-6h7l4-3h1l1-1l1-1l2-2l1-1h1v-1l1-2l1-1v-2l-1-2l-1-2h-1l-2-1l-2 2v1l-1 2v1l-1 1v2h-2l-4 1l-2 1l-3 2h-1l-1 1h-1h-1l-2-2l-1-1v-1h-1l-1-3v-2v-2v-1v-1l1-1h1v-1h1l1-2l1-1l2-2l2-2l1-1l4-1l1-1l2-2l1-2l1-2l-1-1l-3-2h-3l-4-1l-2-1h-2h-3h-1h-1l-1-1v-1v-1v-1l1-4v-1l-1-1v-3v-3l1-2l1-1l1-1l1-3l1-1l2-2v1l2-1h2l4-4l3-3v-1l1-2v-1v-3v-1v-1l-1-2l-2-2l-1-1h1v-1v-2l-1-3l-1-1l-1-1l-2-1h-1l-3 1l-1 1h-1v2l1 1v1v1h-1v1v2l1 3v1v1v1l-2 3l-2 1h-1h-2h-1h-1l-3-1l-1-1l-2-1v-1v-1l-1-1v-1l1-1v-1l1-1l1-2v-1v-1l1-1l2-2v-1l2-1l1-2v-2h1l-19-1l-1 7l-2 6l-6 3v10l-2 6l-1-1l-3 2v9v16l-3 2l-4 8l1 4l-5-1l-1 6l2 6l-2 3l1 4l-5 3l-4 4z"/><path id="22037" d="m521 523l3 6l-1 4l2 1l2-6l4-1l1-4l2-2l38-1l39-2l2-1l-2-6l2-3l-1-6l2-5l-3-5l2-2l-4-3v-3h1l2-3l-3-13l3-4v-4l4-4h-14h-28h-3h-2h-2h-5h-13l-2 5l-2 3v4l2 2l-5 5l1 5h-2l-1 2v4l-2 2l1 2l-1 4l-1 1l1 3l-2 1l1 2l-2 2l-4 7h-2l-1 2v3l-2 2v2z"/><path id="22039" d="m270 570v1h1h26l5-3l1-7l2-2l6-1h11h19v-6h9v-10l4-10l4-4v-21l-7-3v-2l-1-12h-5v-10l-8-10v-6h-9l-2-4l-8-4l-5 1l-2 4l-4 1l-4 4h-4v8l-5 5h-4l-5-2l-1 1l-7 1v69l2 4l-4 9l-3 2l1 2z"/><path id="22041" d="m404 216h2l2 5l2 1v4l1 3l-1 3l2 6l9 4l-1 2l5 6h3l2 3l-2 2l5 2v3l5-3l5 1l1-3l5-2l3-4l2-1l3-5l1-5h10v20h4l1-3l5-4l4-1l2-3v-5l-3-2l3-3v-2l3-2v-4l-2-2l1-6v-5h2l1-5l-4-2l1-2v-9l2-2v-11h-8l-2-1l4-3l3-5l-3 2l-6-3l2-2l4 1v-11l4 2v-5h6l-1-6l-3 1l-1-2l2-5l1 3l3 1l3-2v-2l-5-4v-4h-30l-5 4l-4 1v2l-3 1l-1 5l-4 3h-7v8l-3 5l1 4l-1 3l-4 4l-5 3l-2 7l-1 2l-7 1l-4 4v3l4 3l1 2l-1 3l1 3l-6 1v2l-2-2z"/><path id="22043" d="m205 297l2 2v4l6 1l1 3l4 1v8l6 1l6 4l8 1l2 4l6 5l-1 2l9 6l-1 1l4 5l2-1l1 1l-3 1l1 4h-2v5l5 1l-3 4l3 3l-3 3l3 1l2-2l2 4l5-1l35-8l28-7l12-2l8-2l-3-1v-2l-7 1l2-3l-2-1l-3 2h-2v-9h-2l-3-4l1-2l-2-3l-2 1l2-4l-7-2l-8-5l4-1l4-1l-3-3l-1-7l3-2v-3l-4-1v-5h2l2-4l-2-1l3-2l-2-6h-1v-4h-42h-8v19v1h-9h-43z"/><path id="22045" d="m394 680l-2 1l4 34l1-1l6 4h4l3-3l2-1l6 2h5l1 4v4v3h-3l-2-3l-1 4l-4 4l1 1l3 1v2l3-3l25-21l8-10l9-12l29-2l41-4v-6h4l2-6l1-3l-3 2l-4-2l-2-4h-19h-23l-2 4l-2 1h-18l-1-5l-1-2l-1-1l-5-3l-3-5l-4 1l-4-4h-5l-7 3l1 4l-8 4l-2 5l-1 1l-7-3l-4-2l-2 1l-2 1l-2-3h-9l-2 6v2zm-6 88l-3 4l3 3l8 3l2 2h3l6 4l3 1l3 3l3-1l2 1l2 5l5 1l1-2l3-1l3 1l3-2l-1-3l2-4l6-4l4-3v-3l-4 1v-4l-3 2h-3l-2-2l-2-3l-3 2l-1-3l-5-3l-3-3l-3-1l-4 1l-3-2l-5 1l-3 5h-4l-4-1l-4 2l-1 1z"/><path id="22047" d="m448 568l3 4l2 1l7 7v3l2 3l1 5l-1 3l-4 3l5 2l-1 6l1 4l7 8v4l5 3l10 1l6 2l-2 7l3 3l1 8l1 4l-2 5l2 1h14l2 2l2 8h19l2 4l4 2l3-2l-1 3l23-8v-10h3v-7l3-5l3-11l3-9l5-15h-1l-1 1l-14-1l-7 1l-1-2h-21h-11l-2-4l-1-1l-2-1l-5-7l-6-3v-3l-8-10l-5-3l-5-6h-7l-6 3h-5v-3z"/><path id="22049" d="m235 195h-1l1 3h4h18h10h64v-29v-10l-2-2l-18-18v-14v-6h-32h-7v10h-24h-6l1 30v19l-3 5l-2 1v6z"/><path id="22051" d="m720 684v1l2 14l5 5l1 4l12 8l2 2l-7 15l-5 13h6l3 2h2l3 1v4l-1 3v8l2 5l-3 2l1 2l-5 1l-1 2l3 3l2 3l4 6l1 5l5 3l3 1l3-1l4 1l2-1l2 3v3l4 2l-3 7l1 4l-1 2l1 8l5 5l1 2l-3 6l-3 1l-5 8l-2 5l-5 6v4l2-2l4-3l7-7l13-8l1-1l1-2v-1l8-5l-5-9l-3-9l-3-12l-3-4v-8v-10l-2-4l1-7v-8l-4-1l-2-11l-3-3l-2-5l-5-7v-3l-2-4l2-1l1-2l-2-5l1-4l2-2l3-2l2-2l2-5l2-4l-1-2l-1-1l-1-1l-5-5l-1-1l-1-1l1 1l-1 2l-2 2l-2 2l-5 1h-3h-1l-2-2v-2v-3h1l1-1l-2-1l1-1l1-2v-1l1-1v-1v-1v-4v-5l1-2v-1l2-29l-7-3l-2-2l-13 3l-7 3l-3 12l-1 13v6v3z"/><path id="22053" d="m175 584v5v4v1h8h11v26h6v23h20l1 3l-4 3v4l3 3l1 3l-21 1v9h46l4 1l2-3l8-2l6-5l3 2l2-5l2-2l-2-7l1-3l3-2l-2-4l5-2v-4h1l-6-3l-2-3l1-3l-1-9v-4l-1-3l2-5l-2-9l5-2v-3l2-4l-1-4l-6-10v-1h-27v11h-56v3z"/><path id="22055" d="m336 645l1 2l11 1l4-2l6 3l8 3l2-1l6-2l3 11l1 1l8 4l12 5v-2l2-6l2-6l2-5l1-2l4-5l-3-8h-6l-2 3l-3-1v-7h4v-2l3-1v-3h-3l-4-5l6-3l-1-4v-3l-3-4l2-2l1-6l-7-2h-5l-3 2l-2-4l-2-1l-2 2l-4 3l-1 7l-10 7v3h-4v3h-3v6h-6v4l-5 1l-3 4l1 4l-6 9z"/><path id="22057" d="m702 874l2 1l6 9l3-1l2-2l-7-11l-2-1l-1 1zm-5-34l-1 6l5-4l-1-2zm-105-116l-11 17l24-1v-6h8l-1-2l3-2v-3h4l1 6l3 1l2 6l2 5l5 4h2l4 3l1 1l3 3l6 8l7 2l3 6l6 3l1 5l3 1l9 12l7 6l2 4l8 9l2 1l4 5l1 3l-1 6l2 4l-2 5h2v-2l3-2l2-1l1 3l4 4l3 1l6 15h3l-1 4l-4 1l1 7l6 1l3 2v4l-3 1l1 3l2 1l2 1l10-7l9-6l6-4v-4l5-6l2-5l5-8l3-1l3-6l-1-2l-5-5l-1-8l1-2l-1-4l3-7l-4-2v-3l-2-3l-2 1l-4-1l-3 1l-3-1l-5-3l-1-5l-4-6l-2-3l-3-3l1-2l5-1l-1-2l3-2l-2-5v-8l1-3v-4l-3-1h-2l-3-2h-6l-23-1h-1l-2-3l1-6l-2-2l-1-3l-6-3l-5-1l-7-6l-1-2v-3l-1-4l-4-4h-3l-3-5l-1-1l-11-1l-3 3l-3-3l-5 1h-1h-5l-1-3l-6 2l-2-3l-3-1l-6-2h-2v3l-19 1v6h-4l-3 10z"/><path id="22059" d="m321 316l-4 1l8 5l7 2l-2 4l2-1l2 3l-1 2l3 4h2v9h2l3-2l2 1l-2 3l7-1v2l3 1l7 2l-1 3l2 2l-1 3l2 6l8 7l1-1l4 3l2 5l-3 2l1 2l11-4l3 4v-65v-6v-35l1-29h-59v7l-2 2v5l-3 3h2l-2 5l1 1l-3 3l-2 1v2v4h1l2 6l-3 2l2 1l-2 4h-2v5l4 1v3l-3 2l1 7l3 3z"/><path id="22061" d="m222 99l1 6v24h19h6h24v-10h7h32l1-18v-2v-19l-20-1v-11l-5 1l-5-7l-4-2l-4 1l-5-2h-17h-20l1 10l-3 2l-2 3l-3 4l1 8l-1 8z"/><path id="22063" d="m587 574l-3 2l3 5l-1 3l3 2l-1 4h4l2 7l6 1l2 3h1l6 1l2 3l4 2l1 6l2 4l5-1l-1 3l3 4l2 2l3-1l4 5l-1 2l2 1l1 4l3 1l2 2l4-5l-1-2l3-1v-3l2-2l4 3l6 1l1 2l3 2l5 1l8-8l5-10v-10l2-6l-3-2l-6-13l-5-3l-1-8v-1l-1-2l-2-2v-9v-4v-7v-15v-1h-13h-42h-11l-5 6l1 2l-7 4l-3 2l3 5l-1 5l-1 1v3l2 4z"/><path id="22065" d="m571 191v2l1 1l1 2v1v2h-1v4l2 1h1h1h1l1-1h1l1-1l1-2v-1l1-1l-1-2l-2-1h-1l-2-2l-2-1l-1-1zm-93-18l-2 2l6 3l3-2l-3 5l-4 3l2 1h8l33 1l1-2l8-5l7 5l4-5l6-3l10-1l2 2v6v1l1 1h1l1-1l1-2l2-1l1-1h2h1l2 2l1-1v-1v-2h1v-1h2h1h1l1 1l2 2l1 1h1l-1 2l1 3v1h1l1-1l1-3v-3l1-1v-3l1-1l1-1v-1l-2-2v-1l-1-2l1-3l1-1h1h1l1 1l1 2h1l3-1l2-2l1-1l2-3l1-1l2-2l3-7v-3h-2l-1 1l-1 3l-2 3l-1 1l-2-1l-2-1h-2h-2l-6-1l-1-1l-2-1v-1h-1v-1l1-3l1-1v-1v-1v-2l3-1l1-1h1v-1l1-1v-1v-2l-1-1l-2-2h-1l-2-1h-1l-1 2l-2 1l-2 1l-5-1l-3-1l-2-2l-3-1l-3-3v-1l-1-2v-3v-1l2-3l1-3l1-4l5 5l4 5l1 1l1 1l3 2h3h2l1-1l1-2l-1-1l-1-2l-2-2l-5-1l-5-3l-2-3l-1-2l1-1h-7l-5 6h-13h-20h-29l-6 8l1 7l2 8h-3l2 7v4l5 4v2l-3 2l-3-1l-1-3l-2 5l1 2l3-1l1 6h-6v5l-4-2v11z"/><path id="22067" d="m375 12l1 8v9l-1 2l1 4l4 6l-2 1v3l3 6l-2 8l2 5l-3 1v3l3 1l-1 4h3l-2 3l4-3l-3-2l3-1l3 3l8-3l1 6l6 6h5l-3 3v6l-3 7l3 3v1l4 10v3l-1 2l1-1l1-6l2-2l5 5l5 1v-6l4-2v-3l2-1l7 4l2-1h2l3-3v-4l5-5h7l4-7l2-6l3-3v-3l-3-2l2-4h2l4-6v-4l-1-5l3-2l-1-3l3-5l2-6l6-5h4l4-3l-1-2l4-7l-1-1l5-7l4-3l-3-1l3-5h-3h-2h-5h-2h-12h-2h-2h-5h-2h-2h-20h-4h-23h-14h-1h-22l-1 4l-2 2l1 2z"/><path id="22069" d="m115 285v11h20v39h19v39l39 1h8l2 3h7v-5h6v-4h5v-4h3v-3h5v-3l6-2v-3h4l3-5h3v-2l8-7l1-1l-9-6l1-2l-6-5l-2-4l-8-1l-6-4l-6-1v-8l-4-1l-1-3l-6-1v-4l-2-2l-1-1l2-4v-11l3-1l2-7l-2-1l2-2l-2-6l8 1l2-2l-1-2l1-6l1-1v-4l2-5l2-1l-2-3v-5l-3-2l2-5v-5l-2-3l1-2l-4-5l2-1l-2-5l-3-4l-2-6h-47l6 10l-2 2l5 9l-3 7l-1 3l5 6l2 3l-22-1v16l-1-2l-7 6l-5-3l-2 2l-6-2l-1-7l-5-1l-5 4l-3-4l-4 5v15v13z"/><path id="22071" d="m747 691v3v2l2 2h1h3l5-1l2-2l2-2l1-2l-1-1l1 1l1 1l5 5l1 1l1 1l1 2l4 1v-3l10 2l3 6h2l1-2l-1-4l-3-6l-9-1l-8-4l5-10l3-1l4 3h1l6-4l4-1l3 4l4-4v1v-1l3-5l4-4h7l4 1l3 2l3 2h1l2-1l-3-5v-2l1-1l3-1l2-1l3-1v-3l1-4l1-1h1l2-1l3-5l3-2l1-1l-6-1l-6-4l-6 3l-6-3l-2 1l-3 3l-5-1l-4-4l-5-2l-11-2l-13 5l-6 3l-7 2l-8-1l-5-2l-2 29v1l-1 2v5v4v1v1l-1 1v1l-1 2l-1 1l2 1l-1 1z"/><path id="22073" d="m311 125v14l18 18l2 2v10h28l3 4h9v-4h13l3-5l1-2l2-11l-1-2l3-8l2-3l8-8l2-10l2-1l2-2l1-2v-3l-4-10v-1l-3-3l3-7v-6l3-3h-5l-6-6l-1-6l-8 3l-3-3l-3 1l3 2l-4 3l2-3h-3l1-4l-3-1l-4 8l-6 3l-4-1l1 4l-9 6l-7 5l-1 5l-9 2l-8-1h-19v2l-1 18z"/><path id="22075" d="m845 780l2 4l3 2l2-2l2-3l3-3l-2-1l-3 1l-4 2zm-84-53l-2 1l2 4v3l5 7l2 5l3 3l2 11l4 1v8l-1 7l2 4v10v8l3 4l3 12l3 9l5 9l4-3l8-2l6 1l5 1l11 1l6 2l4 1h7l3 5l3 1v2l13 4l11 5l2 1l3 4l1 3l3 6l1 1l2 1l2 3l3 1l8-2l3-4l2-6l-1-3l2-2h5l2 4v5l1 5h-4v2l-3 2l2 4l-2 3l1 3l-4 3l-3 1l-3 9l-6 6l-5 12l2-1h1l7-7l14-16l6-4l2-6l5 3l1 3v8l15 7l1-6l-2-3v-5l3-4l3-1l1-1l1-7l1-1l3 1l3 5l5-10l-11-1l-2-3l4-3l7-1l4-2l3 3l2-3l-4-7l-6 1l-2 2l-4 2l-5-3v-3v-8l-3-3l-1-2v-1l-1-2l-3-1l-2-2l-2-5v-2v-1l-2-1l-2-1v1l-1 1l-3 4l-1 1v1l-3 1l-3-3v-3l-2-2l-1-1l-8-8l-1 5l-4 2l-2-2l3-3l-1-1h-3l-3-1l-2-1h-8l-7-1l-2-1l-1-2l-1 1l-1 2l-4 2l-2-3l-3-6v-2l1-4l-4-2l-4-3v-4l-7 1l-7-3l-3-6l-4-1l-1-3v-3h4l4-3l-1-2h-4l-3-4l-1-2l1-2l2-1l5 3l2 4l7 3v-6l-12-7l4-2l6 3l5-4l10 1l2 2l1-2l-10-3l-11-4l-6-6l-5-2l-1-4l-3-4l-3-1h-7l-2 1l-4-1l1-3l-4-4l-2-2h-3l-6 2l-1-1l-2-4l-3-4l-3-8h-2l-3-6l-10-2v3l-4-1l-2 4l-2 5l-2 2l-3 2l-2 2l-1 4l2 5z"/><path id="22077" d="m425 488l1 2l4 4l-2 4l7 6l3 5l-1 4l5 9v8l-3 2l2 6l-2 6l-2 9l5 12l-4 3h10h23v3h5l6-3h7l1-3h13l1-7l2-6h6v-4l9-10l2-4l-4-2l-2-3l-2-11l-4-8h-4l-11 5l-7-2l-4 1l-9 2l-3-1l-4-4v-3l1-2l6-1l3-3l4-13l1-5l-1-4l-6-6h-3h-9l1 4l6 2l2 2l2 8l-2 2l-2-2h-5l-4 1l-4-1l-3-2v-9l3-7l-3-10l-1-3l1-2l-5-5l-5 2l-7-2l-5 3l-1 4l-3 1l-2 2l1 11l-1 13z"/><path id="22079" d="m203 378v2h3v1h7v2h6l4 2v6h3v3h3v5h3l1 54v27l20-2h24v1l7-1l1-1l5 2h4l5-5v-8h4l4-4l4-1l2-4l5-1l8 4l2 4h9h14l-1-6l-3-19v-9l-1-4l2-2l-2-2v-38l3-2l2 1l3-2l3 2v3l3 2l7-1l6-4l1-2l3-2l-2-5l-4-3l-1 1l-8-7l-2-6l1-3l-2-2l1-3l-7-2l-8 2l-12 2l-28 7l-35 8l-5 1l-2-4l-2 2l-3-1l3-3l-3-3l3-4l-5-1v-5h2l-1-4l3-1l-1-1l-2 1l-4-5l-8 7v2h-3l-3 5h-4v3l-6 2v3h-5v3h-3v4h-5v4h-6v5z"/><path id="22081" d="m82 178l3 4l1 3l7 3h4l2 2l1 9l2 2l-2 2l-4 4l6 7l2 3l4 1v6l4 3l3 7h7l6 6l2 6l2 1l1 7l6 2l2-2l5 3l7-6l1 2v-16l22 1l-2-3l-5-6l1-3l3-7l-5-9l2-2l-6-10l-1-7l-4-3v-10h-41h-9z"/><path id="22083" d="m387 164l-3 5h8v3l-2 8h2l-1 4l3-3l1 1l-5 4l1 2l5-3l-2 3l2 3l-1 3l5-2l4 2l4-1l3 1l-1 3h1l4-4l7-1l1-2l2-7l5-3l4-4l1-3l-1-4l3-5v-8h7l4-3l1-5l3-1v-2l4-1l5-4h30l-2-7h3l-2-8l-1-7l6-8l5-6l-3-4h-29v-20h-8l-2 6l-4 7h-7l-5 5v4l-3 3h-2l-2 1l-7-4l-2 1v3l-4 2v6l-5-1l-5-5l-2 2l-1 6l-1 1l-2 2l-2 1l-2 10l-8 8l-2 3l-3 8l1 2l-2 11z"/><path id="22085" d="m31 266l1 1v5l1 1l3 2l2 1l1 1v1v1l1 1l1 1l1 1l-1 4v1v2l1 2l1 1l1 3l-1 1l1 1l1 1l1 1v1v2l-3 3h-1l-1 1l1 2l1 3v5v2h-1h-1l-2 2v2l1 2l2 5l1 2v1l4 4l2 2h1h4h1h1h1l1 1v1l1 1h2v2l-1 2v1l-1 1l-1 1h-1l-1 1v2l8 6l1 1l1 2l-1 2v2h1l5 3v1v1l1 2v1l-1 1l1 1l1 1l-1 1v1l-2 5l-2 4v2h1h1l2 1l2 4l3 2h4l1 3v1v2v2l1 1v1l1 1v2l-1 2l1 5l1 1v1l2 2l2-1l2-2l1-1l2-1l1-4l-1-2l2-3l-2-2l3-4v-5h18l10-20h29v-39h-19v-39h-20v-11v-6v-13h-13z"/><path id="22087" d="m988 666v3l2 3l3 3l1 4l2 7v4l1 5l-1 8l-1 5l-1 6l-1 3l-1 4l-2 3l-1 3v4h2l4-8l2-6l1-5l2-10v-10l-1-8l-2-6l-2-3l-2-5l-3-3zm-88-1l1 4h1h4l5 2h1l3-4l4 2l3 4l-1 5l3 1l2-1l-2-5l2-3l4 1l2-3l-3-4l-6-2l-1-5l2-5l6-7l-1-3l-9 6l-13 10l-3 5zm-20-19l-2 1l3 3l2-1l2-3l-1-2zm-104 34l-5 10l8 4l9 1l3 6l1 4l-1 2l3 8l3 4l2 4l1 1l6-2h3l2 2l4 4l-1 3l4 1l2-1h7l3 1l3 4l1 4l5 2l6 6l11 4l10 3l-1 2l3 2l4 3v-1v-2l-5-6l-4-2l3-5l-1-8h7l4 6l-1 6l1 5l6-1l1-5l1-4l4 3h3l-2-3l-6-4v-6l3-3l3-4v-3l2-1l4 3l2-1l3 1l3 1l2 3h2l6 1v-1l-2-2v-6l1-1v-2l-3 1l-5 3h-3l-2-2v-4l-5-2l-2-1v-2l3-1l9-1l5-2h4l3-1l4-3v-2l-1-1l-6 1l-3 1h-5l-2-1l1-3l7-6l4-1h3l3 1l1-8l1-2l-6-1l1-5l-1-1l-4 2l-2 5l-6 11l-4 1l-6 1l-2-1l-1-10l-2-1h-3l-5-2v-3v-4l2-2l1-1l5-2h2l2-1v-3v-1l-9 1l-2-1l-3-2h-3l-4-4l-2 2l-2 3l1 2v2l-1 1l-10 7l-3 1l-2 1l1 2v6l-2 3v3l-1 3v5l-1 3l-3 2l-5 2h-4l-3-1h-3l-4-3l-6-6l-1-4l1-2h1l5-2l-2-2l-1-1l-4 3l-5 2l-6 1l-3-1l-2-1l-1-1l-2-2l-1-5l-1-3v-2v-1l-4 4l-3-4l-4 1l-6 4h-1l-4-3z"/><path id="22089" d="m668 677l1 8h3v18l3 5h3l4 4l1 4v3l1 2l7 6l5 1l6 3l1 3l2 2l-1 6l2 3h1l23 1l5-13l7-15l-2-2l-12-8l-1-4l-5-5l-2-14v-1v-8v-3v-6l1-13l3-12l-13 3l-4 6l-11 8l-9 12h-3l-1-1l-12 5z"/><path id="22091" d="m607 524l-8 10h11h42h13v-3v-19v-1v-16v-39h-3h-1h-11h-1h-16h-5h-2h-1h-1h-8l-4 4v4l-3 4l3 13l-2 3h-1v3l4 3l-2 2l3 5l-2 5l1 6l-2 3l2 6l-2 1l1 3z"/><path id="22093" d="m589 663l1 7v13h6v9h8v3v4l19-1v-3h2l6 2l3 1l2 3l6-2l1 3h5l-2-4v-9l-1-4l1-3l-2-1l1-2l-3-9l3-2l2-1l-2-10h4l2-16l-13 3l-31 7l-9 2l1 1l-4 5z"/><path id="22095" d="m645 668l-3 2l3 9l-1 2l2 1l-1 3l1 4v9l2 4h1l5-1l3 3l3-3l11 1l1 1v-18h-3l-1-8l3-2l12-5l1 1h3l9-12l11-8l4-6l13-3l7-3l13-3v-3l-1-7l-16-8l-11-5l-4-1h-5l-5 3h-5l-4 1l-12 1l-5 10l-8 8l-5-1l-3-2l-1-2l-6-1l-2 12l-2 16h-4l2 10z"/><path id="22097" d="m302 568l-5 3h15h28h4v10h13v3v5v11l4 2v5h3v5l10-7l1-7l4-3l2-2l2 1l2 4l3-2h5l1-3l1-5l3-1l5 3h1h1l11-5l11 6h9l16-1l-3-1l-5-11h-3l-3-10l4-3l-5-12l2-9l2-6l-2-6l3-2v-8l-5-9l1-4l-3-5l-7-6l2-4l-4-4l-41-1h-18l-17 1l1 12v2l7 3v21l-4 4l-4 10v10h-9v6h-19h-11l-6 1l-2 2z"/><path id="22099" d="m492 688v1l11 10l3 7l5 8l-3 12l7 3l10 1l13 3h3l7 5l9 1l6 5l-1-7l2-1v-6l-1-5l2-3l-4-5l-4-3h-3l-8-3l-2-3l-3-10l-3-2v-4l-4-5l-1-3zm-98-95l-1 3l7 2l-1 6l-2 2l3 4v3l1 4l-6 3l4 5h3v3l-3 1v2h-4v7l3 1l2-3h6l3 8l-4 5l-1 2l-2 5l-2 6h9l2 3l2-1l2-1l4 2l7 3l1-1l2-5l8-4l-1-4l7-3h5l4 4l4-1l3 5l5 3l1 1l1 2l1 5h18l2-1l2-4h23l-2-8l-2-2h-14l-2-1l2-5l-1-4l-1-8l-3-3l2-7l-6-2l-10-1l-5-3v-4l-7-8l-1-4l1-6l-5-2l4-3l1-3l-1-5l-2-3v-3l-7-7l-2-1l-3-4h-10l3 10h3l5 11l3 1l-16 1h-9l-11-6l-11 5h-1h-1l-5-3l-3 1z"/><path id="22101" d="m418 738l-4 3l5 1l4-2l9-5l6-2h3l5 2l9-1l6 1l2 1l1 3v3l-1 2l-1 3l1 3l-1 2l-2 4l-1 1l-1 1v1h1l4 1l4-1l4-1h2h2l1 1l3 8v7l2 1l1 2v1l-1 2v1h2l4-2l2 4v5l5 7l5-3l3-1l5-2l3-4h4l3 6l4 2l-2 3l-4 2l1 2l-3 2v3l6-1l-1 8l5-2l2-3l2 2l2-1l4-6h4l-4-2l-2-6l-1-1l1-8v-5l1-2l4-1l4-3l-1-3l3-3l6-4l3 4l5-4h3l1-2l6-2v-2l-4-1l2-12l-1-1l-6-5l-9-1l-7-5h-3l-13-3l-10-1l-7-3l3-12l-5-8l-3-7l-11-10v-1l-29 2l-9 12l-8 10l-25 21l-3 3z"/><path id="22103" d="m725 520h-1l2 4l-1 7l2 3l-1 7l1 5v3v17v31v1l10 11l1 5l5 12l1 7v3l2 2l7 3l5 2l8 1l7-2l6-3l13-5l11 2l5 2l4 4l5 1l3-3l2-1l6 3l6-3l6 4l6 1l1-1l4 1v1h2l3-3l1-1l2-1h3l1-1l2-1l-1-2l-1-1h-1h-1h-1v1l-1 1h-2l-1 1h-1l-1-1l-1-2l-1-1l-1-3l-1-1h-1h-1v-1l-1-1v-2v-2v-1h-1l-1-1l-1-1v-1v-1v-2v-1l-1-1l-1-1v-3v-1h1h1v-1l1-1l-1-1v-3v-1l-1-1l-1-1l-1-1l-1-1h-1v-2l-1-1l-1-3l-1-1l-1-3l-1-1v-2l1 1v-1v-3l-1-1v-2v-1v-1l-1-2l-1-1h-1l-1-2l-1-1h-1l-1-1v-1l-1-1l-2-1h-1v-1l-1-1l-1 1l-1-1v-2h-1h-1v-2v-1l-1-1v-2l-1-1h-1h-1h-1v-1h1l-1-1l-2-1v-1h1h1h1v-1h-1h-1h-1h-1l1-1l-1-3h1l-1-1h-1l-1-1l1-1v-2h-1h-1l1-1v-1v-1h-1l1-3v-2l-1-1l-1-2h-1h-1l-2-1v-1h1h-28h-2z"/><path id="22105" d="m665 495v16v1v19v3v1v15v7v4v9l2 2l1 2v1l1 8l5 3l6 13l3 2l-2 6v10l12-1l4-1h5l5-3h5l4 1l11 5l16 8l-5-12l-1-5l-10-11v-1v-31v-17v-3l-1-5l1-7l-2-3l1-7l-2-4h1v-5l-2-5v-2l-2-3l-1-4l-2-2v-3l-2-7l-3-5v-4h-2l-1-3h-3v-21h-4h-2h-8h-1h-2h-1h-3h-3h-1h-1h-12h-4z"/><path id="22107" d="m473 270l-1 7l6 10h11h17l4 1v4l4-2l4-1h3h1h4h4l2-2l1-2l-1-1l-2-1h-2l-3 1h-3h-1h-5l-3-1v-2l1-4l2-10l1-1l1-1v-1h2l6-1l1 3v3v1v1l1 1v1h1v1h2h1h1l1-2l1-1v-2l-3-3l-1-1v-1v-1v-1h1l3-1l2-2l2-2l3-3l1-1v-1h1h1l1-1l1-1h1v-1h-1v-3h-1h-1l1-3v-1v-1v-1l1-1l1-2l2-1l1-1l9-1l2-1l2-1l1-1l3-3l-1-1v-1l-1-1v-1h-1l-1-1l-6-1l-3-1l-2-1l-1-1l-1-1v-1v-1l1-1v-1l2-1h1h1l2 1l1 1l1 3l2 2h1l4 1v-1v-6v-1l3-1l5-3h1v-2v-1v-2h-1h-1l-2-1h-1l-2-1l-1-1h-1h-2l-2 1h-1l-1 1h-4h-1l-1-1l-2-1h-2l-2-2v-1v-2v-2l1-3v-2l1-2v-1h1l5-3h1l1 1v-1v-6l-2-2l-10 1l-6 3l-4 5l-7-5l-8 5l-1 2l-33-1v11l-2 2v9l-1 2l4 2l-1 5h-2v5l-1 6l2 2v4l-3 2v2l-3 3l3 2v5l-2 3l-4 1l-5 4l-1 3z"/><path id="22109" d="m667 877l4 4l9 4h9l4-2l-3-1l-8-1l-9-3zm-37 8l-3 3l3 1l13-2l6-2l-2-3h-7l-5 2zm-111-54l-1 1l6 7l5 4l11 5l4 1l14 1l2 2l4 5l7 1h5l2 1l4 2l4-1l4-2l2 2l1 2l3 2l6 5l2 3l2 3l3 2l2 4l-2 2l-1 2l5 3h5l1-3v-1l2-7l2-3l3 1l1-2l4-1l2-4h2l3 4l3-2l2-6v-3l1-1l6 1l1-6l2-4h4l1-2l-2-2l2-2l6 3l2-2l-5-4v-4l-2-4v-3l4-2l2 2l3 4l5-4l2 1l4 1l3 1l2-2l3-5l-1-3l2-3l3 1l2 5l4 2l1 3v4l-1 4h3l1 2l1-2v-4h-2l2-5l-2-4l1-6l-1-3l-4-5l-2-1l-8-9l-2-4l-7-6l-9-12l-3-1l-1-5l-6-3l-3-6l-7-2l-6-8l-3-3l-1-1l-4-3h-2l-5-4l-2-5l-2-6l-3-1l-1-6h-4v3l-3 2l1 2h-8v6l-24 1l-15 19l-6 2l-1 2h-3l-5 4l-3-4l-6 4l-3 3l1 3l-4 3l-4 1l-1 2v5l-1 8l1 1l2 6l4 2l4 1l1 2l-1 2l-1 2l1 2l3 1l1 4l9 4l-1 2l4 1l2 5v4l-2 3l1 3l1 1v4h-3l-3-1l-4-3l1-4v-4l1-3l-2-2l-4 5l-5-5l-3-5v-5l-5 3l-2 3l-1 3l-3 4l-3 2z"/><path id="22111" d="m250 46v3h2v10h17l5 2l4-1l4 2l5 7l5-1v11l20 1v19h19l8 1l9-2l1-5l7-5l9-6l-1-4l4 1l6-3l4-8v-3l3-1l-2-5l2-8l-3-6v-3l2-1l-4-6l-1-4l1-2v-9l-1-8l1-1l-1-2l2-2l1-4l-30-1h-13h-8h-5h-2h-19h-6h-5l-35-1h-1h-2v45z"/><path id="22113" d="m252 667l-2 3l23-1v59v41l9 2l6 1l12 3l13 3l8 1l8 2h8l6-2l7-5l11-4l10-1h8h4l-1-1l-4-3l4-2h6l-4-4l-4 2l-7 1l-3 1l-3-6l-2-6l6-5l-3-2l-5 1l-4-1l-6-6l-2-4l2-2l5 3l-1-4l5-1l3-1l2 3l2 3l10-6l11-5l5-2l-1-3v-3l2-1l-4-34l2-1l4-10l-12-5l-8-4l-1-1l-3-11l-6 2l-2 1l-8-3l-6-3l-4 2l-11-1l-1-2l-2 3l-5 4l-2 3l-8 8l-9 4l-9-3l-7-4l-5-6l-5-2l-5 5l-4-1l-2 2l-2-1l-2 5l-3-2l-6 5z"/><path id="22115" d="m91 456l-1 3l1 2l1 1l2 1l4 4l1 2v2l-1 2l-2 1l-1-1l-1 1l-1 2v2l-1 1l-1 2v2v1l2 1v-2h7l4 3l4 1l4-1l4-4h10h20h1h13h10l4 1h30h29v-3v-27l-1-54h-3v-5h-3v-3h-3v-6l-4-2h-6v-2h-7v-1h-3v-2l-2-3h-8l-39-1h-29l-10 20h-18v5l-3 4l2 2l-2 3l1 2l-1 4h1h2l1 1l-1 5l-1 1v1h-1v2v1l1 2v2v1l-2 2v2v1l1 2l1 1l2 1l1 1l1 1l-1 1l-1 1v1l1 3l2 1v1v1l-5 4l-3 1l-1-1l-1 1z"/><path id="22117" d="m707 456v21h3l1 3h2v4l3 5l2 7v3l2 2l1 4l2 3v2l2 5v5l48 10h2h28v-1v-1l2-3v-2v-1h-1h-1v-1l2-2h1l1-2h-1h-1v-1v-1v-1h2h1h1h-1l-1-1v-1v-2l-1-2l1-3l1-2v-1v-1h1v1v1h1h1v-1l-1-1v-1h1l1-2v-1v-1h1l2 1v-1h1l-1-2h-1v-1v-1v-1l1-1h1l-1-1v-1h1h1l1-2l-2-2v-1v-1h1h1l-1-2v-1v-1h1l1 1h1v-1v-1h-1v-1v-1h1h1h1v-1l1-1h-1l-1-2h1v-1h-1l-1-1v-1l1-1l2-2l1-2h1h1v-1l-2-1h1v-1l1-3h-1h-1v-1h1h1v-1h-1h-2h-1v1h-1v-1h-12h-2h-2h-4h-7h-1h-5h-9h-1h-5h-4h-1h-4l-15 1h-1h-6h-6h-12h-17z"/><path id="22119" d="m98 10l2 2l2 7l3 3l3-1l2 2v3l-3 1l1 2l3 3v2l3 1l-1 3l-3 1l2 3l1 3l-3 3l2 1l-3 5l2 2l-1 3h5l-1 26v34h1v16v4h13h26v-10l17-1l1-3l-5-13v-5l-2-8l1-9v-2l-2-9v-10h-10v-69h-13h-7h-7h-17h-4h-6l1 4z"/><path id="22121" d="m490 565l-1 3l5 6l5 3l8 10v3l6 3l5 7l2 1l1 1l2 4h11h21l-2-3l-4-1h-12l-1-3l2-4l4-7l2-4l1-4v-2v-2v-10l-1-3l-2-1l-5 2l-5 2h-4v-2l7-5l1-4l-5-4h-7l-2-1v-4l3-3l1-5v-2l-1-2l-2-1l-2-1h-2l4 2l-2 4l-9 10v4h-6l-2 6l-1 7z"/><path id="22123" d="m462 68l-2 4l3 2v3l-3 3h8v20h29l4-4l5-3l-1-4l2-3l-2-6l1-6l5 1l-1-4l4-8l3-2v-16v-9l3-2l1 1l2-6v-10l6-3l2-6l1-7h-4h-5h-2h-1h-1h-9h-9h-2l-3 5l3 1l-4 3l-5 7l1 1l-4 7l1 2l-4 3h-4l-6 5l-2 6l-3 5l1 3l-3 2l1 5v4l-4 6z"/><path id="22125" d="m458 460l-2 2l3 10l-3 7v9l3 2l4 1l4-1h5l2 2l2-2l-2-8l-2-2l-6-2l-1-4h9h3l6 6l1 4l-1 5l-4 13l-3 3l-6 1l-1 2v3l4 4l3 1l9-2l4-1l7 2l11-5h4l4 8l2 11l2 3h2l2 1l1-4l-3-6l5-4v-2l2-2v-3l1-2h2l4-7l2-2l-1-2l2-1l-1-3l1-1l1-4l-1-2l2-2v-4l1-2h2l-1-5l5-5l-2-2v-4l2-3l2-5h-10h-4h-29h-5h-14h-8h-16h-3zm-19-9v1l7 2l5-2l5 5l3-6l-1-4l-2-1l-7 1l-5-1z"/><path id="22127" d="m204 296l1 1h15h43h9v-1v-19h8h42v-2l2-1l3-3l-1-1l2-5h-2l3-3v-5l2-2v-7v-50h-64h-10h-18h-4h-24l2 6l3 4l2 5l-2 1l4 5l-1 2l2 3v5l-2 5l3 2v5l2 3l-2 1l-2 5v4l-1 1l-1 6l1 2l-2 2l-8-1l2 6l-2 2l2 1l-2 7l-3 1v11z"/></svg>
