<?xml version="1.0" encoding="UTF-8"?>
<!DOCTYPE svg PUBLIC '-//W3C//DTD SVG 1.1//EN' 'http://www.w3.org/Graphics/SVG/1.1/DTD/svg11.dtd'>
<svg viewBox="0 0 1000 484.178" xmlns="http://www.w3.org/2000/svg">
  <g data-id="001">
    <path d="m956.119 159.74l0.004 37.72l39.043 0.007l-1.743 -12.581l-0.624 -4.747l-0.188 -1.314l-0.525 -3.618l-0.173 -1.321l-0.29 -2.095l-0.166 -1.318l-0.14 -1.045l-0.232 -1.766l-1.16 -8.058l-0.593 -4.665l-0.196 -1.412l-0.446 -3.116l-0.456 -3.199l-0.184 -1.291l-0.243 -1.587l-1.399 -10.023l-0.521 -3.604l-1.048 -7.204l-0.191 -1.393l-27.356 0.052l0.002 26.756l0.007 10.822l-1.182 -0.001z" />
  </g>
  <g data-id="003">
    <path d="m520.094 0.469l0.516 8.29l0.798 50.685l-0.025 19.018l50.073 0.018l0.016 -18.943l-0.617 -50.75l-0.281 -8.191l-4.138 -0.004l-3.517 0.022l-3.573 0.002l-1.316 0.025l-2.125 -0.022l-12.656 0.001l-7.327 -0.081l-1.082 -0.004l-14.745 -0.067z" />
  </g>
  <g data-id="005">
    <path d="m769.451 371.315l-0.036 36.866l18.541 0.012l17.054 0.017l12.946 0.043l8.466 0.025l16.291 -0.01l0.044 -48.514l12.519 -0.948l-0.032 -12.331l-24.502 0.046l-0.014 -12.329l-24.493 -0.011l0.006 23.603l-0.074 1.112l-6.15 0.009l0.029 12.371l-30.594 0.04z" />
  </g>
  <g data-id="007">
    <path d="m239.028 22.452l-0.044 50.733l2.111 0l2.047 -0.003l4.006 -0.009l2.86 -0.001l1.029 -0.002l3.104 0.012l2.105 -0.008l5.178 0.008l4.369 0.006l1.836 0.004l5.934 0.011l1.099 -0.001l6.502 0.004l1.059 -0.002l4.363 0.02l1.742 0l1.048 0.007l9.469 -0.029l2.303 0.006l4.981 -0.011l3.125 0.004l2.028 0.01l1.204 -0.038l1.506 0.007l15.169 0l10.64 0l10.064 -0.009l0.07 -13.586l0.07 -59.511l-10.141 -0.056l-3.061 -0.017l-8.38 0.018l-1.648 0.001l-40.825 0.213l-4.636 0.035l-4.485 0.052l-5.341 0.049l-6.879 0.092l-2.611 -0.044l-1.002 0.026l-4.74 0.013l-5.777 0.068l-4.203 0.003l-1.472 -0.021l-4.806 0.087l-0.01 21.817z" />
  </g>
  <g data-id="009">
    <path d="m350.257 228.459l0 34.261l0 21.722l13.045 0.018l12.323 0.022l0.026 -12.355l39.909 0.035l0.077 1.06l3.583 -0.771l5.724 -0.318l0.001 -12.519l-0.474 -31.004l0.008 -6.303l0.009 -6.228l-10.321 -0.017l-14.349 0.007l-0.026 12.492l-49.533 -0.102z" />
  </g>
  <g data-id="011">
    <path d="m509.332 121.657l0.56 38.39l0.013 12.435l0.018 9.736l-0.041 25.654l0.013 2.067l1.041 0.003l27.645 0.022l8.51 -0.011l0.006 -22.851l-0.02 -2.082l12.398 0.009l0.021 -16.666l0.01 -8.29l-0.432 -38.417l-45.582 -0.127l-4.16 0.127z" />
  </g>
  <g data-id="013">
    <path d="m743.502 451.309l0.769 1.318l2.555 1.005l1.656 0.887l1.649 1.251l2.534 -0.005l2.142 -0.544l1.051 0.687l0.849 2.098l0.078 2.158l1.589 2.012l1.893 0.063l3.139 -0.312l1.008 -0.752l1.64 0.076l1.611 0.563l0.758 1.395l0.319 1.177l1.155 1.603l2.262 2.265l1.695 1.87l0.74 2.211l0.123 1.294l1.62 0.763l3.174 -1.223l1.299 -2.159l0.342 -1.332l-0.042 -2.107l0.511 -2.227l0.95 -1.95l2.053 -0.696l3.387 1.509l2.241 1.539l3.398 -0.574l1.557 -0.598l1.391 -1.027l1.385 -3.519l0.074 -1.035l-1.272 -0.62l-0.693 -1.403l1.721 -0.905l1.569 0.002l-0.101 -2.1l1.484 -1.013l1.861 -0.113l1.512 1.063l1.24 0.271l0.201 -1.049l-0.433 -1.093l1.952 -0.131l2.415 0.721l1.76 0.71l1.358 -0.671l0.691 -1.336l1.055 -0.023l0.019 1.085l1.957 -0.324l0.92 -1.408l0.077 -1.247l1.457 0l1.412 1.128l2.397 -0.091l1.207 -0.647l0.541 -1.264l0.154 -1.139l-0.096 -1.138l1.566 0.431l2.027 1.143l1.404 1.049l1.401 1.059l2.546 1.148l1.121 1.054l1.149 1.189l1.373 0.061l1.037 -0.946l-0.153 -1.12l0.01 -1.083l1.802 -0.399l1.782 0.508l1.589 1.762l1.474 -0.395l1.086 -0.849l-0.367 -1.962l-5.557 -0.303l-4.107 -0.57l-2.423 -1.853l-0.818 -2.611l-1.226 -1.382l-4.699 -1.307l-1.918 -2.299l-0.332 -25.861l-1.357 -0.572l-0.427 -2.703l-4.449 -1.194l-12.946 -0.043l-17.054 -0.017l-18.541 -0.012l-5.397 -0.004l0.007 6.053l-15.344 -0.007l2.291 3.49l0.627 2.29l1.497 1.28l-3.148 3.714l0.099 2.391l-1.085 1.986l-1.222 -1.387l-1.268 1.247l-2.409 -0.138l1.085 2.55l2.486 2.684l1.054 -0.406l0.967 1.426l-2.195 2.863l1.551 5.027l-0.699 1.886l0.12 1.494l-1.149 1.286l-1.706 0.855l-1.567 1.753z" />
  </g>
  <g data-id="015">
    <path d="m510.915 222.465l-0.03 37.193l0.296 15.24l0.025 2.468l0.119 32.045l8.688 -0.021l18.451 -0.009l34.365 0.035l-0.058 -4.126l0.01 -14.415l0.03 -14.735l0.171 -16.421l-0.545 -24.874l-23.89 0.073l-0.643 -19.919l-0.234 -5.015l-9.088 -0.019l-27.645 -0.022l-0.012 2.199l-0.009 10.323z" />
  </g>
  <g data-id="017">
    <path d="m547.078 185.02l0.02 2.082l-0.006 22.851l0.812 5.045l-0.004 19.92l24.537 -0.074l9.166 -0.023l1.29 2.508l5.982 2.05l0.966 -1.482l-0.032 -2.647l1.734 0.219l1.332 2.842l2.248 0.011l-0.177 1.15l2.215 -0.516l2.484 -1.834l0.698 2.42l2.7 1.365l3.091 -0.785l1.769 1.165l2.654 -1.852l3.73 3.13l3.634 -0.175l4.033 -1.565l0.027 -5.896l-0.002 -4.165l-0.003 -4.182l-0.001 -3.542l0.011 -1.291l-0.015 -2.415l0.027 -3.064l0 -1.07l0 -2.177l0 -1.017l-0.328 -2.005l0 -6.259l0.004 -4.182l-0.003 -14.65l-12.429 0.036l-20.817 -0.049l-4.175 0.081l-8.299 0.014l-16.473 0.037l-12.398 -0.009z" />
  </g>
  <g data-id="019">
    <path d="m634.667 405.98l0 12.685l0.216 1.667l68.967 0.01l0.141 -14.318l4.054 0.009l0.025 -22.599l-11.112 0.003l-1.393 -0.828l0.612 -1.315l0.194 -3.548l-1.796 -0.372l-35.353 -0.096l0.006 -18.47l-24.525 -0.035l-0.009 12.415l-0.021 18.388l-0.005 16.406z" />
  </g>
  <g data-id="021">
    <path d="m900.896 157.145l-0.105 2.14l2.784 3.857l2.941 0.654l0.583 1.524l-0.462 1.579l-2.532 2.481l-1.46 2.977l16.16 0.074l0.005 2.057l-0.04 22.929l13.384 0.071l11.133 -0.032l12.836 0.002l-0.004 -37.72l1.182 0.001l-0.007 -10.822l-0.002 -26.756l-24.97 -0.061l-12.506 0.027l0.014 12.577l-1.841 -0.003l-8.609 -0.02l-0.051 5.027l-1.979 0.005l-0.015 4.42l-1.513 3.057l-1.604 0.022l-3.093 3.423l1.026 2.403l0.073 2.598l-1.329 1.508z" />
  </g>
  <g data-id="023">
    <path d="m817.956 408.253l4.449 1.194l0.427 2.703l1.357 0.572l0.024 24.911l2.226 3.249l4.699 1.307l1.226 1.382l0.818 2.611l2.423 1.853l4.107 0.57l5.046 -0.398l-0.009 -1.469l0.417 -1.013l1.285 -0.723l1.146 -0.03l1.057 0.318l1.739 1.206l1.935 -0.014l1.415 -0.705l1.732 -2.195l1.185 -0.457l1.464 0.438l1.201 -0.09l3.887 -2.894l2.066 -1.025l2.627 0.322l1.433 2.478l0.195 1.863l-0.304 1.812l0.804 1.142l1.39 -0.122l1.534 -1.148l1.175 -0.113l0.417 1.622l1.688 0.53l1.57 -0.629l1.005 -0.956l0.672 1.789l1.965 0.636l4.617 0.357l3.799 -0.272l2.671 0.064l1.542 -0.152l0.498 -1.118l0.039 -1.259l1.044 0.012l1.88 0.759l1.711 0.691l1.324 -0.331l0.223 -1.388l0.138 -1.284l1.926 -0.352l1.255 -0.87l0.258 -1.077l-0.052 -1.553l-0.184 -1.335l2.615 -3.814l1.299 -0.113l4.116 1.577l1.788 1.23l1.5 0.644l-0.074 -30.968l-66.876 0.035l-5.791 0.002l-16.291 0.01l-8.466 -0.025z" />
  </g>
  <g data-id="025">
    <path d="m0 69.266l0.015 3.802l87.732 0.004l10.265 0.006l4.318 0l10.863 -0.041l0.019 -50.705l0.463 -21.006l-1.637 0.006l-1.431 -0.004l-15.14 -0.071l-2.805 -0.02l-6.122 -0.096l-11.025 -0.017l-40 -0.094l-5.124 -0.371l-2.079 -0.123l-2.18 -0.104l-2.477 -0.036l-2.023 -0.041l-2.899 0.025l-16.056 0.153l-2.635 -0.227l-0.006 12.923l0.006 28.004l-0.037 6.437l0.031 8.435l0.007 2.102l-0.044 11.058z" />
  </g>
  <g data-id="027">
    <path d="m621.979 234.931l-0.019 5.671l2.216 0.59l4.053 4.028l2.192 0.266l2.334 0.219l2.301 1.592l0.525 4.103l-1.365 2.078l0.497 1.829l2.422 2.923l3.206 1.734l8.189 5.91l0.645 1.937l3.637 1.269l0.513 2.996l0.071 4.388l3.938 0.161l1.648 1.224l0.432 3.644l-0.877 2.476l1.88 6.191l0.045 3.738l3.943 1.426l0.942 -1.513l3.008 0.23l1.43 2.499l3.372 0.504l0.558 1.389l1.167 -1.728l2.273 0.631l0.261 1.65l4.855 -0.446l1.424 0.457l0.031 -12.336l0.007 -12.386l-0.005 -6.204l-0.014 -6.69l0.018 -20.165l-0.01 -6.244l-18.441 -0.066l-2.06 0.005l-12.336 -0.004l-2.06 0.006l-2.101 -0.009l-2.072 0.003l-3.095 0.011l-2.07 0.009l-2.698 0.007l-2.471 0.005l-1.102 -0.003l-11.242 -0.004z" />
  </g>
  <g data-id="029">
    <path d="m757.022 359.005l0.009 12.144l4.907 0.001l2.179 0.167l5.334 -0.001l30.594 -0.04l-0.029 -12.371l6.15 -0.009l0.074 -1.112l-0.006 -23.603l0.005 -12.339l-36.69 -0.016l0.015 12.43l-12.345 -0.006l0.008 24.731z" />
  </g>
  <g data-id="031">
    <path d="m487.256 309.338l0.014 37.056l-0.007 12.33l16.397 -0.014l2.747 0.001l0.003 14.363l6.116 -0.028l-0.003 -2.048l12.2 0.024l0.004 -4.097l24.387 0.052l0.005 -2.05l6.034 -0.027l0.006 -6.143l11.897 0.018l0.041 -24.683l6.149 0.006l0.007 -22.665l-0.421 -2.019l-34.365 -0.035l-18.451 0.009l-8.688 0.021l-24.069 -0.073z" />
  </g>
  <g data-id="033">
    <path d="m506.409 373.075l-0.006 10.25l6.107 -0.041l-0.058 24.928l1.21 -0.49l2.643 1.637l1.977 2.222l1.082 1.954l1.71 1.69l0.659 1.057l3.083 3.87l2.083 1.376l1.314 -0.236l3.037 -1.295l0.619 -1.224l1.353 -0.489l1.051 0.292l1.014 -0.215l1.709 -2.099l0.189 -3.019l1.608 -3.514l1.97 -1.392l4.906 0.729l2.944 2.318l2.32 0.54l2.783 0.179l1.803 -0.51l1.835 0.826l1.029 0.764l1.488 0.584l1.43 0.271l2.606 0.223l1.366 -0.887l1.71 -2.239l0.411 -21.644l0.007 -14.346l-0.008 -16.054l-12.237 -0.332l-0.006 6.143l-6.034 0.027l-0.005 2.05l-24.387 -0.052l-0.004 4.097l-12.2 -0.024l0.003 2.048l-6.116 0.028z" />
  </g>
  <g data-id="035">
    <path d="m883.272 8.679l0.019 50.282l12.04 -0.013l0.023 12.692l16.725 -0.01l20.894 0.061l0.005 -12.747l0.733 -10.609l0.029 -39.723l-2.692 -2.564l-0.989 -1.699l-0.399 -3.183l3.092 -0.773l-2.649 0l-2.237 -0.009l-2.801 0.01l-5.674 -0.003l-3.856 -0.002l-2.581 0.002l-2.101 -0.007l-14.847 0.03l-1.008 -0.003l-8.909 0.02l-0.032 8.255l-2.787 -0.01z" />
  </g>
  <g data-id="037">
    <path d="m744.471 122.374l0.01 28.965l0.03 2.552l0.052 43.51l49.944 -0.012l0.021 -31.332l5.929 -0.031l6.467 0.009l6.185 0.054l-0.013 -2.108l0.427 -4.268l0.01 -6.284l-0.007 -6.294l0.003 -6.285l-0.005 -2.086l-0.003 -4.176l-5.194 -0.029l-3.147 -0.001l-8.771 -0.015l-14.179 -0.015l-0.012 -12.493l-12.009 -0.136l-25.483 -0.047z" />
  </g>
  <g data-id="039">
    <path d="m423.124 172.513l-0.144 37.409l1.508 0.003l-0.001 6.154l-0.009 6.228l37.096 0.022l49.341 0.136l0.009 -10.323l0.012 -2.199l-1.041 -0.003l-0.013 -2.067l0.041 -25.654l-0.018 -9.736l-8.246 -0.016l-78.535 0.047z" />
  </g>
  <g data-id="041">
    <path d="m932.319 113.747l0.003 8.355l24.97 0.061l27.353 -0.073l-0.33 -2.391l-0.653 -4.693l-0.367 -2.762l-0.188 -1.457l-0.221 -1.371l-0.797 -6.021l-0.171 -1.276l-0.597 -4.713l-0.243 -1.915l-0.738 -6.063l-0.264 -2.106l-0.4 -2.874l-0.723 -5.74l-0.259 -2.136l-0.173 -1.269l-0.304 -2.093l0.005 -2.262l-0.014 -2.799l0.02 -5.001l0.002 -1.311l-0.005 -3.108l-0.001 -1.124l-0.018 -8.879l-18.308 0.017l-7.683 -0.401l-18.504 -0.011l-0.733 10.609l-0.005 12.747l-0.019 33.567l-0.004 4.16l-0.619 2.196l-0.011 2.135z" />
  </g>
  <g data-id="043">
    <path d="m422.394 121.743l0.123 21.854l-0.007 16.444l0.614 12.472l77.786 0.039l8.995 -0.07l-0.013 -12.435l-0.56 -38.39l-37.211 0.479l-49.727 -0.394z" />
  </g>
  <g data-id="045">
    <path d="m349.934 59.584l-0.07 13.586l0.393 64.26l0 25.187l3.3 -1.127l1.456 -1.622l4.023 -1.963l2.28 -3.323l-0.809 -2.631l0.497 -1.679l2.329 -3.058l1.507 0.007l2.378 -2.291l1.991 -0.448l3.325 0.973l0.835 4.101l-0.657 1.623l-0.268 4.53l1.03 2.631l2.6 2.053l0.356 1.19l1.746 1.064l1.71 -0.175l3.422 3.195l4.582 1.261l2.875 0.127l3.893 1.156l2.102 -1.989l5.053 -1.452l1.033 -4.929l4.005 -3.684l2.274 -7.629l2.137 -1.009l2.879 -2.813l3.577 -0.964l4.798 -0.144l-0.123 -21.854l-24.967 0.035l0.03 -11.949l-1.045 0.01l-0.07 -46.214l-0.02 -3.969l-46.387 -0.072z" />
  </g>
  <g data-id="047">
    <path d="m571.471 59.536l-0.016 18.943l0.061 43.18l29.186 0.036l20.781 -0.005l25.063 0.029l-0.095 -62.192l-54.194 0.009l-20.787 0z" />
  </g>
  <g data-id="049">
    <path d="m622.36 309.381l-0.038 24.687l12.328 0.028l-0.012 16.441l-0.03 7.711l24.618 0.559l24.285 0.036l-1.066 -1.453l1.009 -0.385l-2.39 -1.585l0.862 -2.872l-2.164 -2.898l1.054 -2.374l-2.6 -1.11l-1.251 -3.792l6.732 0.024l-0.035 -2.06l24.54 0.045l-0.013 -24.766l-0.004 -6.137l-41.293 -0.101l-21.905 -0.02l-22.626 0.02z" />
  </g>
  <g data-id="051">
    <path d="m572.436 234.844l0.545 24.874l-0.171 16.421l-0.03 14.735l-0.01 14.415l0.058 4.126l0.421 2.019l-0.007 22.665l1.986 -0.025l4.089 -0.032l17.42 -0.006l25.584 0.031l0.038 -24.687l-0.288 -10.339l0.012 -33.129l-0.043 -18.663l-0.013 -5.988l-4.109 1.13l-3.634 0.175l-2.823 -2.372l-3.561 1.094l-1.769 -1.165l-2.511 0.928l-3.28 -1.508l-0.698 -2.42l-2.484 1.834l-2.215 0.516l0.177 -1.15l-2.248 -0.011l-1.332 -2.842l-1.734 -0.219l0.032 2.647l-0.966 1.482l-5.202 -2.393l-2.07 -2.165l-9.166 0.023z" />
  </g>
  <g data-id="053">
    <path d="m570.573 0.595l0.059 8.191l0.839 50.75l20.787 0l54.094 -0.008l0.028 -25.267l-0.015 -33.748l-1.227 -0.005l-6.35 -0.004l-2.171 0.006l-2.174 -0.001l-4.902 0.004l-3.569 -0.06l-1.555 0.013l-5.441 0.026l-8.353 0.011l-1.718 -0.031l-2.201 0.037l-27.027 0.051l-1.328 0.005l-7.775 0.028z" />
  </g>
  <g data-id="055">
    <path d="m363.303 284.46l0.017 12.292l18.356 -0.016l0.919 12.387l0.367 12.58l4.11 0.01l0.015 2.078l2.05 0l0.035 4.144l28.426 -0.066l-2.264 -0.74l0.618 -5.524l3.687 0.015l-0.013 -6.253l18.137 0.043l0.455 -1.333l-1.164 -2.058l-2.508 -0.395l-0.502 -1.364l-2.797 -1.231l-1.29 -1.97l0.165 -2.011l2.866 -0.086l0.207 -2.293l-1.035 -3.089l-3.783 -2.945l-0.41 -3.987l-1.606 -1.497l1.521 -0.736l-0.157 -1.306l0.373 -1.373l0.741 -1.187l-0.107 -3.72l-2.615 -0.286l-1.756 -2.345l-0.363 -3.95l-3.524 -0.987l-1.251 -2.812l-3.583 0.771l-0.077 -1.06l-39.909 -0.035l-0.026 12.355l-12.323 -0.022z" />
  </g>
  <g data-id="057">
    <path d="m350.258 284.442l0 40.383l0 26.373l1.697 0.061l1.292 -0.176l1.068 -0.641l0.94 -1.18l1.381 -0.724l1.912 0.363l1.583 1.521l1.963 1.441l1.377 0.958l1.487 1.693l0.636 1.343l1.854 2.269l21.765 0.633l-0.039 -30.824l-0.035 -4.144l-2.05 0l-0.015 -2.078l-4.11 -0.01l0.008 -12.588l-1.294 -12.379l-18.356 0.016l-0.017 -12.292l-13.045 -0.018z" />
  </g>
  <g data-id="059">
    <path d="m350.003 0.073l-0.07 59.511l46.387 0.072l4.23 -0.027l31.973 -0.318l0.008 -32.662l-2.594 -3.318l0.365 -2.021l-6.992 -3.413l-2.785 -6.119l-2.617 -2.86l-2.671 -7.937l-1.492 -0.581l-3.282 -0.023l-1.874 0.007l-4.752 0.001l-1.978 0.007l-7.855 -0.021l-2.713 0.01l-1.051 -0.087l-13.603 -0.093l-1.372 -0.014l-10.429 -0.106l-13.976 0.004z" />
  </g>
  <g data-id="061">
    <path d="m881.052 259.852l-0.49 6.027l7.149 0.055l5.173 -0.014l0.009 4.886l0.004 9.63l49.16 0.033l-0.009 -20.589l13.26 0.04l0.076 -17.291l-1.614 -2.012l-0.176 -3.452l-1.891 -1.322l-2.416 2.03l-4.21 1.415l-1.709 -0.289l0.153 -1.419l2.4 -2.066l0.285 -1.611l-1.112 -1.946l-2.79 0.729l-2.201 -1.376l-6.97 -1.577l-2.32 -2.566l-0.082 -3.108l-2.917 -0.831l-2.205 1.432l-1.295 2.277l-0.712 3.88l-1.843 1.188l-2.502 3.616l-1.862 -1.098l-2.512 1.522l2.272 1.973l-1.073 1.387l-2.854 -0.67l-0.886 1.959l1.41 3.825l-0.701 1.253l-2.65 -0.321l-0.723 2.026l-2.009 2.529l-2.113 1.345l-2.5 -0.955l-3.056 -3.745l-2.73 -1.072l-3.839 1.372l-5.32 -4.918l-2.438 0.586l-1.855 2.559l-2.823 1.355l0.058 13.318z" />
  </g>
  <g data-id="063">
    <path d="m759.756 272.258l-0.041 29.241l3.593 -0.833l4.117 1.814l1.874 -3.84l0.287 3.174l0.001 1.46l-0.036 18.551l36.69 0.016l0.014 -12.371l0.352 -27.788l2.289 -0.973l0.762 -4.488l2.741 -2.791l1.078 -1.81l2.288 0.413l-0.382 -3.473l3.492 -1.394l0.272 -19.757l-6.199 0.015l-47.468 -0.047l-0.004 24.894l-5.721 -0.012z" />
  </g>
  <g data-id="065">
    <path d="m368.426 358.807l1.371 0.951l1.717 1.731l0.451 1.647l2.407 3.157l1.248 1.348l2.028 0.973l1.323 2.291l1.556 0.923l1.232 0.498l1.177 0.699l0.703 1.198l0.739 1.453l1.335 0.919l2.121 0.175l1.434 0.794l1.376 -0.33l2.717 0.072l3.603 0.186l1.45 -1.58l0.267 -1.733l0.096 -1.351l0.516 -1.27l1.209 -0.249l1.599 0.534l3.057 0.451l1.419 -0.431l2.071 0.691l1.102 1.402l1.502 0.472l2.905 1.146l0.89 1.182l1.636 0.915l1.232 -0.997l1.351 1.087l1.079 -0.326l0.946 -4.32l-0.283 -1.364l-0.361 -1.235l0.24 -2.56l1.627 -2.099l1.33 -0.249l1.262 0.401l0.236 1.319l0.742 1.338l1.058 0.852l1.478 1.228l0.519 1.121l1.861 0.628l1.071 -0.596l1.07 -0.071l3.005 1.355l0.605 1.966l-1.748 0.521l1.78 2.111l1.136 -0.474l1.369 1.875l0.348 1.308l0.114 1.322l1.318 0.576l1.031 -0.049l1.733 0.105l0.646 -2.153l-1.737 -2.739l-1.412 -0.009l1.234 -2.024l-2.227 0.201l0.189 -1.992l-1.333 -3.355l1.171 0.771l0.59 -1.879l-0.591 -2.686l1.71 -0.613l-0.907 -1.134l0.053 -4.288l1.237 -1.016l1.552 -5.767l2.196 0.324l-0.762 -3.147l2.472 -3.644l3.629 -0.573l1.215 0.594l2.582 -0.884l1.959 0.464l-0.651 -3.458l1.073 -0.529l-2.787 -2.689l0.913 -4.391l5.987 -1.141l0.79 -1.381l-1.782 -2.11l-5.374 0.898l-5.896 -1.011l-1.122 -1.132l0.473 -1.944l-2.142 -4.44l2.451 -0.731l-1.58 -1.881l0.347 -2.759l1.587 -0.725l-0.546 -4.186l1.076 -0.25l-0.015 -2.859l-1.701 0.256l-2.656 -1.68l-3.633 4.747l-3.898 0.575l-0.455 1.333l-18.137 -0.043l0.013 6.253l-3.687 -0.015l0.032 4.639l1.614 1.625l-28.426 0.066l0.039 30.824l-20.784 0.047z" />
  </g>
  <g data-id="067">
    <path d="m567.395 389.491l0.029 20.876l0.953 -1.23l1.903 -0.591l1.466 1.114l1.367 2.347l-0.051 1.156l-0.52 1.521l-1.072 1.831l-1.763 1.934l-0.092 1.739l0.656 1.387l1.807 1.921l0.298 1.079l-1.042 1.003l2.016 3.996l3.85 1.357l1.643 0.336l1.569 0.014l2.567 -0.367l2.133 -0.543l1.067 -0.783l1.156 0.683l1.169 1.363l1.255 -0.029l-1.09 4.58l-1.029 1.563l-0.788 1.334l1.058 0.235l1.045 -0.216l0.209 1.166l-0.523 2.113l-1.484 1.189l-1.043 -0.921l-0.554 1.201l0.665 1.979l1.176 1.053l1.09 0.457l1.397 0.041l1.134 -0.044l3.649 2.202l1.018 0.779l2.258 1.089l1.356 0.118l3.667 -1.163l3.373 -2.739l0.449 -1.12l1.974 -0.772l0.58 -1.21l-0.471 -1.591l1.289 -0.537l1.039 0.019l0.459 -1.542l-0.342 -1.291l1.145 -0.373l1.689 -0.052l1.538 -0.509l1.821 -1.962l0.645 -1.173l0.728 -1.969l1.154 -1.305l1.896 -0.67l1.2 0.078l3.233 1.345l2.88 1.852l2.274 2.045l-0.223 3.565l-0.638 1.121l0.901 2.292l3.276 0.898l0.029 -12.154l2.813 0.012l-2.806 -2.688l0.013 -9.589l-0.216 -1.667l0 -12.685l0.005 -16.406l-48.953 0.011l-18.324 -0.095z" />
  </g>
  <g data-id="069">
    <path d="m708.069 383.433l-0.025 22.599l30.766 0.042l1.894 1.53l1.38 -0.965l2.58 0.994l1.512 3.005l2.867 2.05l-0.362 1.532l15.344 0.007l-0.007 -6.053l5.397 0.004l0.036 -36.866l-5.334 0.001l-2.179 -0.167l-4.907 -0.001l-0.009 -12.144l-36.566 -0.085l-6.245 -0.009l-0.022 24.478l-6.119 0.045z" />
  </g>
  <g data-id="071">
    <path d="m646.38 34.263l-0.028 25.267l37.687 -0.058l9.568 0.055l1.485 -1.319l-0.971 -5.991l-1.048 -0.989l-0.247 -4.869l3.9 -2.529l0.757 1.191l2.468 -0.007l1.283 0.852l2.794 -0.146l2.09 0.722l2.127 -0.358l1.287 -4.512l1.572 -2.728l2.095 -2.24l2.695 -0.249l3.765 1.384l1.45 -0.961l-0.106 -2.552l3.955 -0.006l0.003 -2.097l4.233 -0.015l0.274 -23.22l0.022 -8.42l-4.926 -0.028l-3.585 0l-5.218 -0.005l-1.024 -0.002l-3.009 0.011l-1.751 -0.004l-2.048 0.017l-3.818 0l-7.317 0.02l-1.132 -0.01l-7.101 0l-2.291 -0.002l-3.201 -0.014l-17.858 0.025l-8.357 0.012l-1.459 0.003l-9.025 0.023l0.007 33.748z" />
  </g>
  <g data-id="073">
    <path d="m559.074 121.657l0.432 38.417l-0.01 8.29l-0.021 16.666l16.473 -0.037l8.299 -0.014l4.175 -0.081l20.817 0.049l12.429 -0.036l-0.041 -19.425l-0.145 -43.795l-20.781 0.005l-29.186 -0.036l-12.441 -0.002z" />
  </g>
  <g data-id="075">
    <path d="m419.33 272.168l1.14 3.095l3.524 0.987l0.363 3.95l1.756 2.345l2.615 0.286l-0.045 2.882l-0.074 1.374l-0.776 1.678l0.119 1.253l-1.595 1.135l1.606 1.497l0.41 3.987l3.783 2.945l1.035 3.089l-0.207 2.293l-2.866 0.086l-0.165 2.011l1.29 1.97l2.797 1.231l0.502 1.364l2.508 0.395l1.164 2.058l3.898 -0.575l3.633 -4.747l2.656 1.68l1.701 -0.256l0.015 2.859l-1.076 0.25l0.546 4.186l-1.587 0.725l-0.347 2.759l1.58 1.881l-2.451 0.731l2.142 4.44l-0.473 1.944l1.122 1.132l5.896 1.011l5.374 -0.898l1.782 2.11l-0.79 1.381l-5.987 1.141l-0.913 4.391l11.915 0.011l-0.01 6.168l20.428 -0.007l-0.014 -37.056l24.069 0.073l-0.119 -32.045l-0.025 -2.468l-1.041 -2.714l-1.157 -0.922l-1.23 1.143l-0.058 -1.297l-2.485 0.702l-0.322 1.434l-2.488 -0.421l-1.883 1.019l-0.504 -1.225l-1.6 0.167l-0.49 1.473l-1.826 -2.067l-36.204 -0.037l-34.95 -0.019l-5.613 0.035z" />
  </g>
  <g data-id="077">
    <path d="m874.43 309.413l-0.816 24.683l53.072 0.058l-0.039 -8.259l0.051 -16.494l7.199 -0.008l-0.036 -12.387l8.219 -0.008l-0.004 -10.147l-0.018 -6.384l-49.16 -0.033l-0.024 4.163l-18.459 0.015l0.016 24.801z" />
  </g>
  <g data-id="079">
    <path d="m926.647 325.895l0.039 8.259l14.218 -0.02l0.017 24.667l55.587 -0.088l0.127 -5.354l0.299 -12.709l-0.004 -1.137l0.202 -7.167l0.142 -5.035l0.395 -14.009l0.111 -3.955l0.071 -2.821l0.067 -2.176l0.137 -6.172l0.185 -6.304l0.352 -12.007l0.239 -8.157l0.056 -1.295l0.121 -4.942l0.025 -1.193l0.076 -2.195l-0.026 -1.444l0.072 -1.612l0.104 -3.191l-0.023 -1.191l0.138 -1.546l0.091 -3.03l0.062 -2.313l0.136 -2.717l0.268 -8.066l-0.187 -1.918l-0.038 -1.456l-1.431 0.911l-3.068 0.59l-1.678 1.588l0.719 1.801l-1.663 1.391l-0.003 1.824l1.593 2.903l-1.487 1.184l-2.691 -1.186l-1.933 0.741l-2.462 -0.842l-1.694 -2.205l-2.993 -0.334l-2.459 3.412l-3.744 1.841l-2.43 -0.543l-1.114 -1.397l-0.064 -1.946l-1.397 -1.639l-4.064 -2.837l-3.584 -1.016l-2.57 0.846l-1.859 3.405l-2.246 0.535l-0.076 17.291l-13.26 -0.04l0.009 20.589l0.018 6.384l0.004 10.147l-8.219 0.008l0.036 12.387l-7.199 0.008l-0.051 16.494z" />
  </g>
  <g data-id="081">
    <path d="m683.847 185.13l-0.049 37.37l20.572 0.061l39.701 0.121l0.492 -25.281l-0.052 -43.51l-60.607 -0.068l0.001 2.086l-0.058 29.221z" />
  </g>
  <g data-id="083">
    <path d="m621.483 121.69l0.145 43.795l0.041 19.425l4.148 0.009l12.438 0.037l2.078 0.013l6.246 0.032l10.376 0.007l14.518 0.071l12.375 0.052l0.058 -29.221l-0.001 -2.086l-0.269 -1.762l-3.44 1.904l-3.642 -0.546l-2.053 -2.851l-2.565 -1.097l-3.751 -0.139l-1.232 -1.059l-1.017 -3.615l-3.386 -0.767l-3.457 3.683l-0.103 -25.078l-12.443 -0.779l-25.063 -0.029z" />
  </g>
  <g data-id="085">
    <path d="m634.863 432.596l-0.029 12.154l1.124 -0.057l2.196 -1.213l1.581 -0.992l2.125 -0.844l1.687 0.372l3.049 1.834l1.099 1.764l-0.06 2.876l-0.717 2.22l-0.611 1.876l0.442 1.01l1.735 1.518l2.065 0.614l1.879 0.078l4.369 -0.086l1.684 -1.483l1.187 -1.946l0.868 -2.298l0.176 -1.039l1.192 -0.957l0.586 1.183l1.137 -0.137l0.808 -1.576l1.547 0.252l0.962 1.108l1.241 0.745l2.184 -0.009l0.864 -1.66l0.353 -3.548l2.294 -2.01l1.82 -0.2l2.971 2.16l0.682 1.188l1.514 6.314l-0.583 1.682l-1.137 0.556l-1.438 0.01l-1.146 1.332l-0.25 1.685l0.026 1.17l1.242 2.266l0.816 2.195l0.694 1.941l1.126 2.571l1.055 1.154l1.605 1.032l1.384 0.463l1.333 0.242l1.497 -0.262l1.02 -0.534l1.218 -1.177l0.921 -1.815l0.175 -1.293l-0.062 -1.736l-0.307 -1.205l-0.708 -2.099l-0.1 -1.331l0.79 -1.434l1.098 -0.563l1.238 -0.242l2.314 -0.418l-0.086 -1.089l-1.043 -1.308l-2.99 -0.834l-0.443 -1.825l2.237 -0.986l1.427 0.664l0.57 1.289l1.132 1.237l2.023 -0.907l4.472 -5.945l0.073 -2.579l-0.444 -1.912l-0.613 -1.478l-0.255 -1.793l0.221 -1.052l1.511 -1.009l0.036 1.014l0.142 1.065l3.209 -0.422l2.045 -1.375l0 -8.243l-4.075 -0.009l0.011 -8.168l-68.967 -0.01l-0.013 9.589l2.806 2.688l-2.813 -0.012z" />
  </g>
  <g data-id="087">
    <path d="m621.96 240.602l0.081 6.648l0.043 18.663l-0.012 33.129l-0.011 9.97l22.925 0.349l21.905 0.02l41.293 0.101l0.22 -15.637l-3.086 1.905l-1.228 2.339l-3.309 2.79l-2.334 1.08l-4.264 -1.978l-2.253 0.198l-0.925 -1.289l-6.201 -0.814l-1.106 0.92l-1.424 -0.457l-4.855 0.446l-0.261 -1.65l-2.273 -0.631l-1.167 1.728l-0.558 -1.389l-3.372 -0.504l-1.43 -2.499l-3.008 -0.23l-0.942 1.513l-3.943 -1.426l-0.777 -3.052l-1.148 -6.877l0.877 -2.476l-0.432 -3.644l-1.648 -1.224l-3.938 -0.161l-0.071 -4.388l-0.513 -2.996l-3.637 -1.269l-0.645 -1.937l-8.189 -5.91l-3.206 -1.734l-2.422 -2.923l-0.497 -1.829l1.365 -2.078l-0.525 -4.103l-2.301 -1.592l-2.334 -0.219l-2.192 -0.266l-4.053 -4.028l-2.216 -0.59z" />
  </g>
  <g data-id="089">
    <path d="m915.38 408.23l0.074 30.968l2.897 0.015l1.152 0.79l-0.154 1.348l1.346 1.226l1.189 0.114l0.673 1.038l0.125 1.244l1.158 0.377l1.487 -1.169l1.189 0.886l0.26 1.192l1.144 3.193l1.379 0.539l1.736 0.061l1.628 -0.882l1.499 1.216l1.426 0.854l0.828 -1.194l1.204 1.605l0.173 1.601l1.735 1.589l0.095 1.079l1.068 1.056l1.298 -0.299l1.049 0.345l0.286 1.217l-0.305 1.033l0 1.102l0.955 1.112l1.068 0.294l1.623 1.27l1.067 0.326l0.435 1.323l0.722 1.349l2.334 0.882l2.158 -0.067l0.706 -1.296l1.486 -0.357l1.56 1.028l1.04 -0.224l1.709 -1.251l1.003 0.581l-0.186 1.162l0.594 1.519l1.152 0.313l1.226 0.357l0.595 1.519l-0.016 1.427l1.093 0.896l0.743 -1.072l1.263 0.223l0.037 1.34l0.074 1.116l2.951 0.533l2.99 -1.092l1.113 0.574l0.205 1.068l0.205 1.561l1.265 -0.082l0.889 -1.109l1.265 -0.247l1.093 1.027l1.231 0.123l1.196 -1.068l1.128 0.781l0.889 1.397l-0.171 1.191l1.607 -0.246l0.67 1.701l0.253 1.215l1.196 -0.287l1.127 0.493l0.035 1.765l2.837 0.161l1.53 -0.621l0.656 -1.787l0.035 -2.164l0.006 -1.413l0.118 -3.438l0.08 -3.284l0.113 -5.504l0.12 -5.396l0.056 -1.915l0.092 -3.864l0.072 -2.973l0.112 -4.196l0.188 -7.951l0.041 -2.261l0.25 -9.261l0.537 -23.982l0.519 -22.9l0.049 -1.056l0.146 -6.102l0.042 -1.662l0.311 -13.158l-55.015 0.14l-13.305 -0.108l0.019 37.255l-12.209 -0.033l-0.617 12.264z" />
  </g>
  <g data-id="091">
    <path d="m819.146 247.409l-0.272 19.757l2.477 -0.12l3.969 1.256l2.391 0.014l2.286 -1.741l2.066 -4.323l3.616 0.227l5.414 -1.842l2.893 2.612l1.458 0.257l1.596 -2.186l3.048 0.451l1.05 -1.849l3.817 -0.88l-0.972 -1.133l1.248 -1.557l5.134 -2.785l2.205 -0.357l0.28 2.028l-1.832 1.485l1.672 0.613l1.392 -0.433l2.746 -2.98l6.965 -3.114l-0.711 -1.915l2.18 -3.058l5.73 0.697l2.823 -1.355l1.855 -2.559l2.438 -0.586l5.32 4.918l-0.022 -25.016l-0.023 -12.016l-1.024 -0.059l-25.348 0.066l-6.23 -0.001l-4.378 -0.001l-5.946 -0.011l-12.764 0.016l-0.121 12.573l-6.087 0.049l-0.006 12.446l-9.935 -0.017l-2.394 -0.003l-0.008 12.432z" />
  </g>
  <g data-id="093">
    <path d="m471.598 72.122l-0.064 37.696l0.575 2.296l0.013 10.022l37.211 -0.479l4.16 -0.127l45.582 0.127l12.441 0.002l-0.061 -43.18l-50.073 -0.018l0.008 9.518l-2.216 -0.685l-4.772 1.491l-3.723 -0.082l-8.649 -3.395l-1.135 -0.862l-2.052 -3.389l-5.938 -0.451l-3.513 -1.784l-1.358 -1.487l-2.822 -5.116l-13.614 -0.097z" />
  </g>
  <g data-id="095">
    <path d="m703.849 420.341l-0.011 8.168l4.075 0.009l0 8.243l1.227 -0.675l1.508 0.732l1.039 1.679l0.349 1.166l0.347 2.87l-0.085 1.457l1.655 4.909l0.902 1.056l1.032 1.033l1.207 0.795l1.189 -0.209l0.592 -2.061l0.397 -1.083l2.874 -0.182l2.159 0.528l1.259 0.752l0.732 2.16l0.762 2.604l1.06 0.733l1.814 -0.181l3.922 -0.833l1.499 -1.041l1.034 -1.533l0.698 -1.819l0.294 -1.542l-0.147 -1.453l0.294 -1.685l0.658 -1.815l0.947 -1.101l2.7 1.543l1.626 1.482l2.632 0.097l1.705 -0.124l1.216 -1.783l-1.551 -5.027l2.195 -2.863l-0.967 -1.426l-1.054 0.406l-2.486 -2.684l-1.085 -2.55l2.409 0.138l1.268 -1.247l1.222 1.387l1.085 -1.986l-0.099 -2.391l3.148 -3.714l-1.497 -1.28l-0.627 -2.29l-2.291 -3.49l0.362 -1.532l-2.867 -2.05l-1.512 -3.005l-2.58 -0.994l-1.38 0.965l-1.894 -1.53l-30.766 -0.042l-4.054 -0.009l-0.141 14.318z" />
  </g>
  <g data-id="097">
    <path d="m882.311 109.765l-0.001 8.058l0.001 16.788l8.807 -0.013l18.263 0.084l8.609 0.02l1.841 0.003l-0.014 -12.577l12.506 -0.027l-0.003 -8.355l0.011 -2.135l0.619 -2.196l0.004 -4.16l0.019 -33.567l-20.894 -0.061l-16.725 0.01l-12.535 0.012l0.004 12.617l0.015 10.313l-0.008 14.868z" />
  </g>
  <g data-id="099">
    <path d="m659.226 358.807l-0.006 18.47l35.353 0.096l1.796 0.372l-0.194 3.548l-0.612 1.315l1.155 0.512l11.35 0.313l6.119 -0.045l0.022 -24.478l6.245 0.009l0 -12.356l-12.266 -0.006l0.011 -6.174l-24.54 -0.045l0.035 2.06l-6.732 -0.024l1.251 3.792l2.6 1.11l-1.054 2.374l2.164 2.898l-0.862 2.872l2.457 1.329l-1.076 0.641l1.066 1.453l-24.285 -0.036z" />
  </g>
  <g data-id="101">
    <path d="m844.254 166.15l-0.012 18.792l6.205 -0.008l0.014 24.979l5.946 0.011l4.378 0.001l6.23 0.001l25.348 -0.066l1.024 0.059l0.023 12.016l0.022 25.016l3.839 -1.372l2.73 1.072l3.056 3.745l2.5 0.955l2.113 -1.345l2.009 -2.529l0.723 -2.026l2.65 0.321l0.701 -1.253l-1.41 -3.825l0.886 -1.959l2.854 0.67l1.073 -1.387l-2.272 -1.973l2.512 -1.522l1.862 1.098l2.502 -3.616l1.843 -1.188l0.712 -3.88l1.295 -2.277l2.205 -1.432l-3.979 -0.215l-1.544 -3.786l-2.75 -2.704l-1.353 -2.938l0.606 -9.989l-0.026 -6.178l0.032 -22.575l0.003 -2.411l-16.16 -0.074l-2.519 0.015l-4.286 -0.033l-4.47 -1.321l-6.759 3.305l-6.686 -0.662l-4.739 1.645l-4.421 0.585l-2.778 2.726l-1.199 0.62l-1.377 -1.82l-2.283 0.064l-1.959 -1.432l-0.25 -6.812l-1.163 -3.139l-13.504 0.051z" />
  </g>
  <g data-id="103">
    <path d="m646.451 59.528l0.095 62.192l12.465 0.023l24.882 0.733l-0.035 -12.608l25.188 -0.006l0.016 -12.574l-12.503 -0.001l0 -10.365l-0.001 -14.805l2.606 0.003l1.586 -3.2l2.009 -0.905l2.386 0.131l3.945 -2.65l2.575 0.17l1.706 -3.413l-2.886 -3.496l-4.186 1.301l-6.327 1.08l-3.851 -0.53l-2.514 -1.08l-9.568 -0.055l-37.587 0.057z" />
  </g>
  <g data-id="105">
    <path d="m839.161 8.802l0.016 26.968l0.008 23.2l44.106 -0.009l-0.019 -50.282l2.787 0.01l0.032 -8.255l-12.134 0.001l-1.264 -0.007l-1.398 -0.007l-4.573 0.003l-4.497 -0.002l-1.425 -0.005l-4.661 0.006l-1.136 -0.002l-1.448 -0.002l-1.191 0.02l-1.601 -0.023l-3.678 0.019l-2.099 -0.004l-1.028 0.01l-2.105 -0.015l0.012 8.378l-2.702 0.001z" />
  </g>
  <g data-id="107">
    <path d="m744.072 222.682l0.136 8.875l2.798 0.539l1.626 -2.084l1.062 1.371l2.536 0.035l2.242 1.524l-0.169 -2.848l-2.76 -1.682l0.578 -1.72l-1.471 -0.496l1.731 -2.312l3.744 2.265l0.341 1.044l2.571 0.331l1.584 -1.567l-0.551 -1.334l1.708 -2.12l3.21 0.743l0.499 -1.279l0.006 11.522l-0.014 13.888l47.468 0.047l6.199 -0.015l0.008 -12.432l-12.393 -0.007l-0.031 -25.102l-12.256 0.031l0.033 -12.509l-49.944 0.012l-0.492 25.281z" />
  </g>
  <g data-id="109">
    <path d="m621.667 203.742l0 6.259l0.328 2.005l0 1.017l0 2.177l0 1.07l-0.027 3.064l0.01 2.109l-0.006 1.597l0.001 3.542l0.003 4.182l0.002 4.165l11.242 0.004l1.102 0.003l2.471 -0.005l2.698 -0.007l2.07 -0.009l3.095 -0.011l2.072 -0.003l2.101 0.009l2.06 -0.006l12.336 0.004l2.06 -0.005l18.441 0.066l0.052 -8.309l0.021 -4.163l0.049 -37.37l-12.374 -0.061l-14.519 -0.062l-10.376 -0.007l-6.246 -0.032l-2.078 -0.013l-12.438 -0.037l-4.148 -0.009l0.003 14.65l-0.004 4.182z" />
  </g>
  <g data-id="111">
    <path d="m794.508 197.39l-0.033 12.509l12.256 -0.031l0.031 25.102l12.393 0.007l2.394 0.003l9.935 0.017l0.006 -12.446l6.087 -0.049l0.121 -12.573l12.764 -0.016l-0.014 -24.979l-6.205 0.008l0.012 -18.792l-4.605 -0.025l-1.671 0.097l-10.314 -0.072l-14.554 -0.061l-6.185 -0.054l-6.467 -0.009l-5.929 0.031l-0.021 31.332z" />
  </g>
  <g data-id="113">
    <path d="m692.826 46.359l0.247 4.869l1.048 0.989l0.971 5.991l-1.485 1.319l2.514 1.08l3.851 0.53l6.327 -1.08l3.283 -1.55l3.789 3.745l-1.706 3.413l-2.575 -0.17l-3.945 2.65l-2.386 -0.131l-2.009 0.905l-1.586 3.2l0.503 3.034l4.326 3.719l3.285 0.706l3.239 -1.787l4.335 -0.446l2.758 -2.952l1.606 -2.974l0.023 -1.309l1.946 -2.614l2.67 -2.147l3.346 -1.721l1.857 0.408l1.903 1.817l1.087 2.837l0.359 3.969l1.772 1.745l0.405 1.976l-1.347 3.228l0.227 1.771l3.064 2.792l1.752 0.497l4.525 -0.795l1.822 2.338l1.594 0.944l0.533 3.045l3.055 1.146l4.08 -3.776l1.648 0.896l0.93 2.778l-1.814 2.767l-2.899 1.074l-1.617 2.417l-0.07 2.338l3.086 2.546l3.71 -0.03l1.611 -1.307l1.71 -3.257l3.493 -0.336l1.291 1.579l1.394 5.122l5.486 2.714l5.46 5.369l9.707 0.621l1.633 3.344l-3.078 4.18l0.105 1.691l13.312 0.144l1.48 0.001l5.915 -0.015l5.489 -0.006l2.788 -0.018l2.193 -0.006l-0.048 -8.386l0.008 -3.302l0.014 -1.139l-0.022 -8.312l0.034 -16.841l0.003 -2.331l0.022 -43.077l0.035 -4.958l-0.018 -33.342l-16.38 -0.017l-1.303 -0.013l-3.772 -0.023l-1.786 0.027l-2.047 -0.006l-6.86 -0.029l-13.755 0.007l-2.466 0.016l-9.902 0.069l-2.95 -0.01l-20.983 -0.072l-3.635 -0.012l-1.546 0.044l-0.022 8.42l-0.274 23.22l-4.233 0.015l-0.003 2.097l-3.955 0.006l0.106 2.552l-1.45 0.961l-3.765 -1.384l-2.695 0.249l-2.095 2.24l-1.572 2.728l-1.287 4.512l-2.127 0.358l-2.09 -0.722l-2.794 0.146l-1.283 -0.852l-2.468 0.007l-0.757 -1.191l-3.9 2.529z" />
  </g>
  <g data-id="115">
    <path d="m929.66 1.166l0.399 3.183l0.989 1.699l3.365 1.585l-0.702 40.702l18.504 0.011l6.832 -0.009l19.159 0.393l-0.013 -4.873l-0.021 -9.482l-0.009 -11.768l-0.032 -4.775l0.048 -2.474l-0.005 -2.108l0.009 -2.139l0.005 -1.671l0.007 -1.311l0.009 -7.03l-9.532 -0.599l-1.521 0.002l-2.848 0.019l-4.676 -0.014l-6.303 -0.007l-1.125 -0.003l-1.035 -0.006l-16.974 -0.096l-1.438 0.002l-3.092 0.773z" />
  </g>
  <g data-id="117">
    <path d="m696.559 72.116l0.001 14.805l0 10.365l12.503 0.001l-0.016 12.574l12.379 -0.001l-0.004 12.664l22.472 -0.184l26.317 -0.442l12.009 0.136l3.453 0.043l-0.105 -1.691l3.078 -4.18l-1.633 -3.344l-9.707 -0.621l-5.46 -5.369l-5.486 -2.714l-1.394 -5.122l-1.291 -1.579l-3.493 0.336l-1.71 3.257l-1.611 1.307l-3.71 0.03l-3.086 -2.546l0.07 -2.338l1.617 -2.417l2.899 -1.074l1.814 -2.767l-0.93 -2.778l-1.648 -0.896l-4.08 3.776l-3.055 -1.146l-0.533 -3.045l-1.594 -0.944l-1.822 -2.338l-4.525 0.795l-1.752 -0.497l-3.064 -2.792l-0.227 -1.771l1.347 -3.228l-0.405 -1.976l-1.772 -1.745l-0.359 -3.969l-1.087 -2.837l-1.903 -1.817l-1.857 -0.408l-3.346 1.721l-2.67 2.147l-1.946 2.614l-0.023 1.309l-1.606 2.974l-2.758 2.952l-4.335 0.446l-3.239 1.787l-3.285 -0.706l-4.326 -3.719l-0.503 -3.034l-2.606 -0.003z" />
  </g>
  <g data-id="119">
    <path d="m658.99 122.498l0.031 24.49l3.529 -3.095l3.386 0.767l1.017 3.615l1.232 1.059l3.751 0.139l2.565 1.097l2.053 2.851l3.642 0.546l3.44 -1.904l0.269 1.762l60.607 0.068l-0.03 -2.552l-0.01 -28.965l-23.05 0.15l0.004 -12.664l-12.379 0.001l-25.188 0.006l0.035 12.608l-24.904 0.023z" />
  </g>
  <g data-id="121">
    <path d="m806.24 321.841l-0.005 12.339l24.493 0.011l0.014 12.329l24.502 -0.046l18.394 -0.043l-0.023 -12.335l0.816 -24.683l-0.016 -24.801l18.459 -0.015l0.024 -4.163l-0.004 -9.63l-0.009 -4.886l-5.173 0.014l-7.149 -0.055l0.49 -6.027l-0.058 -13.318l-5.73 -0.697l-2.18 3.058l0.711 1.915l-6.965 3.114l-2.746 2.98l-1.392 0.433l-1.672 -0.613l1.832 -1.485l-0.28 -2.028l-2.205 0.357l-5.134 2.785l-1.248 1.557l0.972 1.133l-3.817 0.88l-1.05 1.849l-3.048 -0.451l-1.596 2.186l-1.458 -0.257l-2.893 -2.612l-5.414 1.842l-3.616 -0.227l-2.066 4.323l-2.286 1.741l-2.391 -0.014l-3.969 -1.256l-2.477 0.12l-3.492 1.394l0.382 3.473l-2.288 -0.413l-1.078 1.81l-2.741 2.791l-0.762 4.488l-2.289 0.973l-0.352 27.788l-0.014 12.371z" />
  </g>
  <g data-id="123">
    <path d="m708.184 309.482l0.004 6.137l0.013 24.766l-0.011 6.174l12.266 0.006l0 12.356l36.566 0.085l0.198 -24.755l12.345 0.006l-0.015 -12.43l0.036 -18.551l-0.001 -1.46l-0.287 -3.174l-1.874 3.84l-4.117 -1.814l-3.593 0.833l-2.545 4.995l-1.865 0.836l-1.77 -1.495l-1.415 -2.558l-0.117 -2.29l-2.357 -0.341l-2.182 1.508l-3.045 0.996l-2.928 -0.455l-2.415 -3.898l-3.71 -0.098l-1.335 2.641l1.779 1.152l1.076 2.906l-0.9 2.089l-3.898 1.609l-1.692 -1.735l-1.566 -4.327l-2.352 -0.021l-2.672 -0.851l0.044 -3.422l-1.778 -2.086l-4.541 2.26l-3.853 0.358l-2.941 -4.612l-2.247 -0.918l-0.113 15.301z" />
  </g>
  <g data-id="125">
    <path d="m683.729 286.66l-0.031 12.336l1.106 -0.92l6.201 0.814l0.925 1.289l2.253 -0.198l4.264 1.978l2.334 -1.08l3.309 -2.79l1.228 -2.339l3.086 -1.905l2.33 0.812l2.941 4.612l3.853 -0.358l4.541 -2.26l1.778 2.086l-0.044 3.422l2.672 0.851l-0.026 -34.859l-0.118 -4.135l-0.013 -16.622l0.039 -16.51l3.783 -0.168l2.271 -2.637l0.699 1.867l1.915 -0.584l5.676 3.426l3.506 -1.232l-0.136 -8.875l-39.701 -0.121l-20.572 -0.061l-0.021 4.163l-0.052 8.309l0.01 6.244l-0.018 20.165l0.014 6.69l0.005 6.204l-0.007 12.386z" />
  </g>
  <g data-id="127">
    <path d="m842.707 358.839l0.005 49.428l5.76 0.035l66.907 -0.072l0.617 -12.264l12.209 0.033l-0.019 -37.255l12.733 0.056l-0.017 -24.667l-14.218 0.02l-53.072 -0.058l0.023 12.335l-18.394 0.043l0.032 12.331l-12.568 0.034z" />
  </g>
  <g data-id="129">
    <path d="m350.256 162.617l0 37.64l0 28.203l49.533 0.102l0.026 -12.492l14.349 -0.007l10.321 0.017l0.001 -6.154l-1.508 -0.003l0.144 -37.409l-0.614 -12.472l0.007 -16.444l-4.798 0.144l-3.577 0.964l-2.879 2.813l-2.137 1.009l-2.274 7.629l-4.005 3.684l-1.033 4.929l-5.053 1.452l-2.102 1.989l-3.893 -1.156l-2.875 -0.127l-4.582 -1.261l-3.422 -3.195l-1.71 0.175l-1.746 -1.064l-0.356 -1.19l-2.6 -2.053l-1.03 -2.631l0.268 -4.53l0.657 -1.623l-0.835 -4.101l-3.325 -0.973l-1.991 0.448l-2.378 2.291l-1.507 -0.007l-2.329 3.058l-0.497 1.679l0.809 2.631l-2.28 3.323l-4.023 1.963l-1.456 1.622l-3.3 1.127z" />
  </g>
  <g data-id="131">
    <path d="m838.521 118.361l-0.011 3.623l2.448 0.001l1.731 0.001l2.092 -0.02l4.112 0.037l6.268 0.023l6.241 -0.028l1.691 4.2l4.299 0.59l-0.054 3.174l1.834 2.298l-2.209 2.339l15.348 0.012l-0.001 -16.788l0.001 -8.058l0.531 -14.382l-0.018 -11.114l-0.004 -12.617l12.535 -0.012l-0.023 -12.692l-12.04 0.013l-44.106 0.009l-0.357 25.245l2.136 -0.003l0.014 4.217l-2.093 0.022l-0.002 6.278l0.001 4.194l0.002 8.401l-0.369 2.095l0.008 3.628l-0.005 5.314z" />
  </g>
  <g data-id="133">
    <path d="m726.32 247.395l0.013 16.622l0.118 4.135l0.026 34.859l2.352 0.021l1.566 4.327l1.692 1.735l3.898 -1.609l0.9 -2.089l-1.076 -2.906l-1.779 -1.152l1.335 -2.641l3.71 0.098l2.415 3.898l2.928 0.455l3.045 -0.996l2.182 -1.508l2.357 0.341l0.117 2.29l1.415 2.558l1.77 1.495l1.865 -0.836l2.545 -4.995l0.041 -29.241l5.721 0.012l0.004 -24.894l0.014 -13.888l-0.006 -11.522l-0.499 1.279l-2.334 0.095l-2.584 1.282l0.551 1.334l-1.584 1.567l-2.571 -0.331l-0.341 -1.044l-3.744 -2.265l-1.731 2.312l1.471 0.496l-0.578 1.72l2.76 1.682l0.169 2.848l-2.242 -1.524l-2.536 -0.035l-1.062 -1.371l-1.626 2.084l-2.798 -0.539l-3.506 1.232l-5.676 -3.426l-1.915 0.584l-0.699 -1.867l-2.271 2.637l-3.783 0.168l-0.039 16.51z" />
  </g>
  <g data-id="135">
    <path d="m918.796 203.596l-0.606 9.989l1.353 2.938l2.75 2.704l1.544 3.786l3.979 0.215l2.917 0.831l0.082 3.108l2.32 2.566l6.97 1.577l2.201 1.376l2.79 -0.729l1.112 1.946l-0.285 1.611l-2.4 2.066l-0.153 1.419l1.709 0.289l4.21 -1.415l2.416 -2.03l1.891 1.322l0.176 3.452l1.614 2.012l2.246 -0.535l1.859 -3.405l2.57 -0.846l3.584 1.016l4.064 2.837l1.397 1.639l0.064 1.946l1.114 1.397l2.43 0.543l3.744 -1.841l2.459 -3.412l2.993 0.334l1.694 2.205l2.462 0.842l1.933 -0.741l2.691 1.186l1.487 -1.184l-1.593 -2.903l0.003 -1.824l1.663 -1.391l-0.719 -1.801l1.678 -1.588l3.068 -0.59l1.431 -0.911l0.275 -1.059l-0.693 -4.906l-1.435 -9.763l-0.816 -6.319l-0.782 -6.064l-0.228 -1.633l-0.86 -6.389l-39.043 -0.007l-12.836 -0.002l-11.133 0.032l-13.384 -0.071l0.026 6.178z" />
  </g>
  <g data-id="137">
    <path d="m567.095 334.094l-0.041 24.683l0.348 16.368l-0.007 14.346l18.324 0.095l48.953 -0.011l0.021 -18.388l0.009 -12.415l-0.063 -8.235l0.012 -15.939l-12.328 -0.53l-25.584 -0.031l-17.42 0.006l-4.089 0.032l-1.986 0.025l-6.149 -0.006z" />
  </g>
  <g data-id="139">
    <path d="m113.213 22.333l-0.019 50.705l11.911 0.012l12.096 0.127l4.487 -0.004l1.012 -0.007l8.181 0.002l1.24 0.031l5.247 -0.009l3.476 0.007l62.856 0.041l3.819 -0.046l8.789 -0.005l2.676 -0.001l0.044 -50.733l0.969 -21.859l-5.954 0.016l-1.883 -0.019l-4.777 0.031l-1.501 0.007l-16.921 0.116l-17.07 0.125l-2.378 0.016l-4.164 0.023l-8.337 0.058l-3.936 0.009l-4.22 0.019l-5.268 0.038l-35.239 0.211l-11.434 0.066l-3.239 0.018l-0.005 20.442z" />
  </g>
  <g data-id="141">
    <path d="m439.196 370.379l0.34 3.385l0.804 1.962l1.679 -1.066l-0.686 2.889l1.412 0.009l1.737 2.739l-0.646 2.153l-1.451 0.469l0.116 1.606l-0.219 1.549l-0.006 3.07l0.476 1.232l1.319 0.288l0.197 1.276l-0.275 1.623l-0.026 2.347l0.702 1.687l-0.109 1.432l0.3 1.112l3.558 0.766l1.754 -0.83l1.561 -0.655l0.061 1.019l0.034 1.099l1.235 0.374l1.219 -0.233l1.933 -0.834l1.477 -0.311l1.525 0.439l0.894 1.008l1.168 0.43l1.142 -0.912l3.024 0.204l1.185 -0.784l0.252 -1.25l1.156 -0.563l1.107 0.572l0.313 1.037l1.129 1.26l0.781 -1.412l1.143 -0.188l1.434 1.265l1.409 1.551l0.868 1.305l1.325 0.837l4.25 1.539l-0.237 1.347l0.798 1.043l1.131 -0.436l0.128 -1.179l3.058 -0.149l2.119 0.523l2.443 2.074l3.085 1.037l0.71 1.056l1.19 0.655l1.147 -0.445l0.465 -1.102l2.092 -0.176l2.452 0.413l4.767 -3.487l1.451 -0.885l2.515 1.035l1.148 0.09l0.253 -25.004l-6.107 0.041l0.006 -10.25l-0.003 -14.363l-2.747 -0.001l-16.397 0.014l0.007 -12.33l-20.428 0.007l0.01 -6.168l-11.915 -0.011l2.787 2.689l-1.073 0.529l0.651 3.458l-1.959 -0.464l-2.582 0.884l-1.215 -0.594l-3.629 0.573l-2.472 3.644l0.762 3.147l-2.196 -0.324l-1.552 5.767l-1.237 1.016l-0.053 4.288l0.907 1.134l-1.71 0.613l0.591 2.686l-0.59 1.879l-1.171 -0.771z" />
  </g>
  <g data-id="143">
    <path d="m782.219 122.035l0.012 12.493l14.179 0.015l8.771 0.015l3.147 0.001l5.194 0.029l0.003 4.176l0.005 2.086l-0.003 6.285l0.007 6.294l-0.01 6.284l-0.427 4.268l0.013 2.108l14.554 0.061l10.314 0.072l0.059 -6.508l6.74 0.041l0.014 -1.209l-0.011 -11.411l0.001 -4.19l0.002 -2.089l0 -2.094l-0.003 -6.33l-0.001 -2.045l0.003 -2.098l-0.003 -2.093l0.002 -4.23l-2.092 0.02l-1.731 -0.001l-2.448 -0.001l0.011 -3.623l0.005 -5.314l-0.008 -3.628l0.369 -2.095l-0.002 -8.401l-0.001 -4.194l0.002 -6.278l2.093 -0.022l-0.014 -4.217l-2.136 0.003l-8.343 -0.023l-4.215 0.003l-9.432 0.002l-0.034 16.841l0.022 8.312l-0.014 1.139l-0.008 3.302l0.048 8.386l-2.193 0.006l-2.788 0.018l-5.489 0.006l-5.915 0.015l-1.48 -0.001l-13.312 -0.144l-3.453 -0.043z" />
  </g>
  <g data-id="145">
    <path d="m838.037 159.715l-0.059 6.508l1.671 -0.097l4.605 0.025l13.504 -0.051l1.163 3.139l0.25 6.812l1.959 1.432l2.283 -0.064l1.377 1.82l1.199 -0.62l1.958 -2.612l5.241 -0.699l4.739 -1.645l6.686 0.662l6.759 -3.305l4.47 1.321l4.286 0.033l2.519 -0.015l1.46 -2.977l2.532 -2.481l0.462 -1.579l-0.583 -1.524l-2.941 -0.654l-2.784 -3.857l0.105 -2.14l1.329 -1.508l-0.073 -2.598l-1.026 -2.403l3.093 -3.423l1.604 -0.022l1.513 -3.057l0.015 -4.42l1.979 -0.005l0.051 -5.027l-18.263 -0.084l-8.807 0.013l-15.348 -0.012l2.209 -2.339l-1.834 -2.298l0.054 -3.174l-4.299 -0.59l-1.691 -4.2l-6.241 0.028l-5.475 0.05l-4.905 -0.11l-0.002 4.23l0.003 2.093l-0.003 2.098l0.001 2.045l0.003 6.33l0 2.094l-0.002 2.089l0.002 3.465l0.008 12.136l-0.014 1.209l-6.74 -0.041z" />
  </g>
  <g data-id="147">
    <path d="m816.84 81.865l-0.003 2.331l9.432 -0.002l4.215 -0.003l8.343 0.023l0.027 -25.251l0.322 -23.194l-0.016 -26.968l2.702 -0.001l-0.012 -8.378l-2.475 0.027l-6.874 -0.02l-1.196 -0.006l-3.853 -0.005l-2.093 0.013l-1.035 -0.003l-3.182 0.025l-4.263 0.034l0.018 33.342l-0.035 4.958l-0.022 43.077z" />
  </g>
  <g data-id="149">
    <path d="m424.478 222.307l-0.008 6.303l0.474 31.004l-0.001 12.519l34.95 0.019l36.204 0.037l1.826 2.067l0.49 -1.473l1.6 -0.167l0.504 1.225l1.883 -1.019l2.488 0.421l0.322 -1.434l2.485 -0.702l0.058 1.297l1.23 -1.143l1.157 0.922l1.041 2.714l0.354 -15.237l-0.62 -37.196l-49.341 -0.136l-37.096 -0.022z" />
  </g>
  <g data-id="151">
    <path d="m413.746 0.4l1.492 0.581l2.671 7.937l2.617 2.86l2.785 6.119l6.992 3.413l-0.365 2.021l2.594 3.318l0.108 1.986l2.805 2.362l2.314 0.686l4.646 -0.827l2.505 0.485l2.617 -0.472l3.127 1.102l1.551 2.982l3.396 2.986l1.512 2.981l2.68 0.892l2.003 2.983l-0.438 1.234l1.622 2.784l1.248 0.902l0.113 2.719l1.118 0.319l4.839 5.803l1.343 0.193l-0.042 13.373l13.614 0.097l2.822 5.116l1.358 1.487l3.513 1.784l5.938 0.451l2.052 3.389l1.135 0.862l8.649 3.395l3.723 0.082l4.772 -1.491l2.216 0.685l-0.008 -9.518l0.025 -19.018l-0.798 -50.685l-0.516 -8.29l-19.817 -0.009l-5.493 -0.054l-3.54 0.025l-9.043 -0.004l-1.232 0.003l-13.343 -0.034l-4.079 -0.015l-2.375 0.055l-8.772 -0.029l-14.378 -0.021l-3.428 -0.002l-11.42 -0.087l-3.69 0.087l-5.739 0.016z" />
  </g>
  <g data-id="153">
    <path d="m396.32 59.656l0.02 3.969l0.07 46.214l1.045 -0.01l-0.03 11.949l24.967 -0.035l49.727 0.394l-0.013 -10.022l-0.575 -2.296l0.064 -37.696l0.042 -13.373l-1.343 -0.193l-4.839 -5.803l-1.118 -0.319l-0.113 -2.719l-1.248 -0.902l-1.622 -2.784l0.438 -1.234l-2.003 -2.983l-2.68 -0.892l-1.512 -2.981l-3.396 -2.986l-1.551 -2.982l-3.127 -1.102l-2.617 0.472l-2.505 -0.485l-4.646 0.827l-2.314 -0.686l-2.805 -2.362l-0.108 -1.986l-0.008 32.662l-31.973 0.318l-4.23 0.027z" />
  </g>
</svg>
