<?xml version="1.0" encoding="UTF-8"?><!DOCTYPE svg PUBLIC '-//W3C//DTD SVG 1.1//EN' 'http://www.w3.org/Graphics/SVG/1.1/DTD/svg11.dtd'><svg viewBox="0 0 1000 484.178" xmlns="http://www.w3.org/2000/svg"><path data-id="40001" d="m956.1 159.7l0 37.7l39 0l-1.7 -12.6l-0.7 -4.7l-0.2 -1.3l-0.5 -3.6l-0.2 -1.3l-0.2 -2.2l-0.2 -1.3l-0.1 -1l-0.2 -1.8l-1.2 -8.1l-0.6 -4.7l-0.2 -1.4l-0.4 -3.1l-0.4 -3.2l-0.2 -1.3l-0.2 -1.5l-1.4 -10l-0.5 -3.6l-1 -7.2l-0.2 -1.4l-27.4 0.1l0 26.8l0 10.8l-1.2 0z"/><path data-id="40003" d="m520.1 0.5l0.5 8.3l0.8 50.7l0 19l50.1 0l0 -18.9l-0.6 -50.7l-0.3 -8.2l-4.1 0l-3.5 0l-3.6 0l-1.3 0l-2.1 0l-12.7 0l-7.3 -0.1l-1.1 0l-14.7 -0.1z"/><path data-id="40005" d="m769.5 371.3l0 36.9l18.5 0l17.1 0l12.9 0l8.5 0l16.3 0l0 -48.5l12.6 -0.9l0 -12.3l-24.5 0l0 -12.3l-24.5 0l0 23.6l-0.1 1.1l-6.2 0l0 12.4l-30.6 0z"/><path data-id="40007" d="m239 22.5l0 50.7l2.1 0l2 0l4 0l2.8 0l1 0l3.1 0l2.1 0l5.2 0l4.4 0l1.8 0l5.9 0l1.1 0l6.5 0l1.1 0l4.3 0l1.7 0l1 0l9.5 0l2.3 0l5 0l3.1 0l2 0l1.2 0l1.5 0l15.1 0l10.6 0l10.1 0l0.1 -13.6l0.1 -59.5l-10.2 -0.1l-3.1 0l-8.4 0l-1.7 0l-40.8 0.2l-4.6 0.1l-4.5 0.1l-5.3 0l-6.9 0.1l-2.6 0l-1 0l-4.7 0l-1 0l-4.8 0.1l-4.2 0l-1.5 0l-4.8 0.1l0 21.8l-1 0z"/><path data-id="40009" d="m350.3 228.5l0 34.3l0 21.7l13 0l12.3 0l0 -12.4l39.9 0l0.1 1.1l3.6 -0.8l5.7 -0.3l0 -12.5l-0.5 -31l0 -6.3l0 -6.2l-10.3 0l-14.3 0l0 12.5l-49.5 -0.1z"/><path data-id="40011" d="m509.3 121.7l0.6 38.4l0 12.4l0 9.7l0 25.7l0 2.1l1 0l27.6 0l8.5 0l0 -22.9l0 -2.1l12.4 0l0 -16.7l0 -8.3l-0.4 -38.4l-45.6 -0.1l-4.2 0.1z"/><path data-id="40013" d="m743.5 451.3l0.8 1.4l2.6 1l1 0.5l2.3 1.7l2.6 0l2.1 -0.5l1 0.7l0.5 1l0.4 1.1l0.1 2.2l1.6 2l1.9 0l3.1 -0.3l1 -0.7l1.7 0l1.6 0.6l0.6 1l0.5 1.6l1.2 1.6l2.3 2.3l1.6 1.9l0.7 2.2l0 1l0.8 1l1.6 0l2.5 -1.1l1.3 -2.1l0.3 -1.3l0.1 -1l-0.1 -1.2l0.6 -2.2l1 -1.9l2.1 -0.7l3.4 1.5l2.2 1.5l1 0.1l2.4 -0.7l1.5 -0.6l1 -0.6l1 -1.3l0.8 -2.6l0.1 -1l-1.2 -0.6l-0.7 -1.4l1.7 -0.9l1.6 0l-0.1 -2.1l1.5 -1l1.9 -0.1l1.6 1.1l1.3 0.2l0.2 -1l-0.5 -1.1l2 -0.1l2.4 0.7l1 0.5l2.2 -0.4l0.7 -1.3l1 0l0 1.1l2 -0.3l0.9 -1l0 -1.3l1 -0.9l0.9 1l1 0.4l2.4 -0.1l1.3 -0.7l0.5 -1.3l0.2 -1.1l0 -1.1l1.6 0.5l2 1.2l1.4 1l1.4 1.1l2.5 1.1l1.1 1.1l1.1 1.2l1.3 0.1l1 -1l-0.2 -1.1l0 -1.2l1.8 -0.4l1.8 0.5l1.6 1.8l1.4 -0.4l1.1 -0.8l-0.4 -1.9l-5.5 -0.3l-4.1 -0.6l-2.4 -1.9l-0.8 -2.6l-1.2 -1.4l-4.7 -1.3l-1.9 -2.3l-0.3 -1l0 -24.9l-1.4 -0.6l-0.4 -2.7l-4.4 -1.2l-12.9 0l-17.1 0l-18.5 0l-5.4 0l0 6.1l-15.3 0l2.3 3.5l0.6 2.3l1.5 1.3l-3.1 3.7l0.1 2.4l-1.1 2l-1.2 -1.4l-1.3 1.2l-2.4 -0.1l1.1 2.6l2.5 2.7l1.1 -0.4l1 1.4l-2.2 2.9l1.6 5l-0.7 1.9l0.2 1.5l-1.1 1.3l-1.7 0.8l-1.6 1.8z"/><path data-id="40015" d="m510.9 222.5l0 37.2l0.3 15.2l0 2.5l0.1 32l8.7 0l18.5 0l34.4 0l-0.1 -4.1l0 -14.4l0 -14.7l0.2 -16.4l-0.5 -24.9l-23.9 0.1l-0.6 -19.9l-0.2 -5l-9.1 0l-27.6 0l0 2.2l0 10.3z"/><path data-id="40017" d="m547.1 185l0 2.1l0 22.9l0.8 5l0 19.9l24.5 -0.1l9.2 0l1.3 2.5l6 2.1l1 -1.5l0 -2.6l1.7 0.2l1.3 2.8l2.2 0l-0.2 1.1l2.2 -0.5l2.5 -1.8l0.7 2.4l2.7 1.4l3.1 -0.8l1.8 1.2l2.7 -1.9l3.7 3.2l3.6 -0.2l4 -1.6l0 -5.9l0 -4.2l0 -4.2l0 -3.5l0 -1.3l0 -2.4l0 -3.1l0 -1.1l0 -2.2l0 -1l-0.3 -2l0 -6.3l0 -4.2l0 -14.7l-12.4 0l-20.8 0l-4.2 0.1l-8.3 0l-16.5 0l-12.4 0z"/><path data-id="40019" d="m634.7 406l0 12.7l0.2 1.7l69 0l0.1 -14.3l4.1 0l0 -22.6l-11.1 0l-1.4 -0.8l0.6 -1.4l0.2 -3.5l-1.8 -0.4l-35.4 -0.1l0 -18.5l-24.5 0l0 12.4l0 18.4l0 16.4z"/><path data-id="40021" d="m900.9 157.1l-0.1 2.1l2.8 3.9l2.9 0.7l0.6 1.5l-0.5 1.6l-2.5 2.5l-1.5 3l16.2 0.1l0 2.1l0 23l13.4 0.1l11.1 0l12.8 0l0 -37.7l1.2 0l0 -10.8l0 -26.8l-25 -0.1l-12.5 0l0 12.6l-1.8 0l-8.6 0l-0.1 5l-2 0l0 4.4l-1.5 3.1l-1.6 0l-3.1 3.4l1 2.4l0.1 2.6l-1.3 1.5z"/><path data-id="40023" d="m818 408.3l4.4 1.2l0.4 2.7l1.4 0.6l0 24.9l0.3 1l1.9 2.3l4.7 1.3l1.2 1.4l0.8 2.6l2.4 1.9l4.1 0.6l5 -0.4l0 -1.5l0.4 -1l1.3 -0.7l1.1 0l1.1 0.3l1.7 1.2l1.9 0l1.4 -0.7l0.9 -1l0.8 -1.2l1.1 -0.4l1.5 0.4l1.2 -0.1l3.9 -2.9l0.5 -1l1.6 0l2.6 0.3l1.5 2.5l0.2 1.8l-0.3 1l0.4 1.6l1 0.4l1.7 -0.8l1.2 -0.8l1 0.6l0 1.1l1.6 0.5l1.6 -0.6l1 -1l1 0.3l-0.3 1.4l2 0.6l4.6 0.4l3.8 -0.3l2.7 0.1l1.5 -0.2l0.5 -1.1l0 -1.3l1 0l1.9 0.8l1.7 0.7l1.3 -0.3l0.2 -1.4l0.1 -1.3l1.9 -0.2l1.2 -0.9l0.3 -1.1l-0.1 -1.6l-0.2 -1.3l2.6 -3.8l1.3 -0.1l4.1 1.6l1.8 1.2l1.5 0.7l-0.1 -31l-66.9 0l-5.8 0l-16.3 0l-8.5 0z"/><path data-id="40025" d="m0 69.3l0 3.8l87.7 0l10.2 0.1l4.3 0l10.9 -0.1l0 -50.7l0.5 -21l-1.6 0l-1.4 0l-15.1 -0.1l-2.8 0l-6.1 -0.1l-11 0l-40 -0.1l-5.1 -0.4l-2.1 -0.1l-2.2 -0.1l-2.5 0l-2 0l-2.9 0l-16.1 0.2l-2.6 -0.2l0 12.9l0 28l0 6.4l0 8.4l0 2.1l0 11.1z"/><path data-id="40027" d="m622 234.9l0 5.7l2.2 0.6l4.1 4l2.2 0.3l2.3 0.2l2.3 1.6l0.5 4.1l-1.4 2.1l0.5 1.8l2.4 2.9l3.2 1.7l8.2 5.9l0.6 1.9l3.6 1.3l0.5 3l0.1 4.4l3.9 0.2l1.6 1.2l0.4 3.6l-0.9 2.5l1.9 6.2l0.1 3.8l3.9 1.4l0.9 -1.5l3 0.2l1.4 2.5l3.4 0.5l0.6 1.4l1.2 -1.7l2.3 0.6l0.3 1.6l4.9 -0.4l1.4 0.5l0 -12.3l0 -12.4l0 -6.2l0 -6.7l0 -20.2l0 -6.2l-18.4 -0.1l-2.1 0l-12.3 0l-2.1 0l-2.1 0l-2.1 0l-3.1 0l-2.1 0l-2.7 0l-2.5 0l-1.1 0l-11.2 0z"/><path data-id="40029" d="m757 359l0 12.1l4.9 0l2.2 0.2l5.3 0l30.6 0l0 -12.4l6.2 0l0.1 -1.1l0 -23.6l0 -12.3l-36.7 0l0 12.4l-12.3 0l0 24.7z"/><path data-id="40031" d="m487.3 309.3l0 37.1l0 12.3l16.4 0l2.7 0l0 14.4l6.1 0l0 -2l12.2 0l0 -4.1l24.4 0.1l0 -2.1l6 0l0 -6.1l11.9 0l0 -24.7l6.1 0l0 -22.7l-0.4 -2l-34.4 0l-18.5 0l-8.7 0l-24.1 -0.1z"/><path data-id="40033" d="m506.4 373.1l0 10.2l6.1 0l-0.1 24.9l1.3 -0.5l2.6 1.6l1.9 2.2l1.1 2l1.7 1.7l0.7 1.1l3.1 3.9l2.1 1.4l1.3 -0.3l3 -1.3l0.6 -1.2l1.3 -0.5l1 0.3l1.1 -0.2l1.7 -2.1l0.2 -3l-0.1 -1.1l1.6 -2.5l2 -1.3l4.9 0.8l2.9 2.4l2.3 0.5l2.8 0.2l1 -0.2l2.6 0.5l1 0.8l1.5 0.6l1.4 0.2l2.6 0.2l1.4 -0.9l1.8 -2.2l0.4 -21.7l0 -14.3l0 -16.1l-12.2 -0.3l0 6.1l-6 0l0 2.1l-24.4 -0.1l0 4.1l-12.2 0l0 2l-6.1 0z"/><path data-id="40035" d="m883.3 8.7l0 50.3l12 0l0 12.7l16.7 0l20.9 0.1l0 -12.7l0.7 -10.6l0 -39.7l0.7 -1l-3.4 -1.6l-1 -1.7l-0.4 -3.2l3.1 -0.8l-2.6 0l-2.3 0l-2.8 0l-5.7 0l-3.9 0l-2.5 0l-2.1 0l-14.8 0l-9.8 0l0 8.3l-2.8 0z"/><path data-id="40037" d="m744.5 122.4l0 29l0 2.6l0.1 43.5l49.9 0l0 -31.3l5.9 0l6.5 0l6.2 0.1l0 -2.1l0.4 -4.3l0 -6.3l0 -6.3l0 -6.3l0 -2.1l0 -4.2l-5.2 0l-3.1 0l-8.8 0l-14.2 0l0 -12.5l-12 -0.1l-25.5 0z"/><path data-id="40039" d="m423.1 172.5l-0.1 37.4l1.5 0l0 6.2l0 6.2l37.1 0l49.3 0.1l0 -10.3l0 -2.2l-1 0l0 -2.1l0 -25.7l0 -9.7l-8.2 0l-78.5 0.1z"/><path data-id="40041" d="m932.3 113.7l0 8.4l25 0.1l27.4 -0.1l-0.3 -2.4l-0.6 -4.7l-0.4 -2.7l-0.2 -1.4l-0.2 -1.4l-0.8 -6l-0.2 -1.3l-0.6 -4.7l-0.2 -1.9l-0.7 -6.1l-0.3 -2.1l-0.4 -2.9l-0.7 -5.7l-0.3 -2.1l-0.2 -1.3l-0.3 -2.1l0 -2.3l0 -2.8l0 -5l0 -1.3l0 -3.1l0 -1.1l0 -8.8l-18.3 0l-7.7 -0.4l-18.5 0l-0.7 10.6l0 12.7l0 33.6l0 4.2l-0.6 2.2l0 2.1z"/><path data-id="40043" d="m422.4 121.7l0.1 21.9l0 16.4l0.6 12.5l77.8 0l8.9 -0.1l0 -12.4l-0.6 -38.4l-37.2 0.5l-49.7 -0.4z"/><path data-id="40045" d="m349.9 59.6l-0.1 13.6l0.4 64.3l0 25.2l3.3 -1.1l1.5 -1.6l4 -2l2.3 -3.3l-0.8 -2.6l0.5 -1.7l2.3 -3.1l1.5 0l2.4 -2.3l2 -0.4l3.3 1l0.8 4.1l-0.7 1.6l-0.3 4.5l1 2.6l2.6 2.1l0.4 1.2l1.7 1.1l1.7 -0.2l3.4 3.2l4.6 1.3l2.9 0.1l3.9 1.2l2.1 -2l5.1 -1.5l1 -4.9l4 -3.7l2.3 -7.6l2.1 -1l2.9 -2.8l3.6 -1l4.8 -0.1l-0.1 -21.9l-25 0l0 -11.9l-1 0l-0.1 -46.2l0 -4l-46.4 -0.1z"/><path data-id="40047" d="m571.5 59.5l0 18.9l0.1 43.2l29.2 0l20.8 0l25.1 0l-0.1 -62.2l-54.2 0l-20.8 0z"/><path data-id="40049" d="m622.4 309.4l0 24.7l12.3 0l0 16.4l0 7.7l24.6 0.5l24.3 0l-0.8 -1l0.7 -1.2l-2.5 -1.3l0.9 -2.9l-2.2 -2.9l1.1 -2.4l-2.6 -1.1l-1.3 -3.8l6.7 0l0 -2.1l24.5 0l0 -24.8l0 -6.1l-41.3 -0.1l-21.9 0l-22.6 0z"/><path data-id="40051" d="m572.4 234.8l0.5 24.9l-0.2 16.4l0 14.7l0 14.4l0.1 4.1l0.4 2l0 22.7l2 0l4.1 0l17.4 0l25.6 0l0 -24.7l-0.3 -10.4l0 -33.1l0 -18.7l0 -6l-4.1 1.2l-3.6 0.2l-2.8 -2.4l-3.6 1.1l-1.8 -1.2l-2.5 0.9l-3.3 -1.5l-0.7 -2.4l-2.5 1.8l-2.2 0.5l0.2 -1.1l-2.2 0l-1.3 -2.8l-1.7 -0.2l0 2.6l-1 1.5l-5.2 -2.4l-2.1 -2.2l-9.2 0z"/><path data-id="40053" d="m570.6 0.6l0.1 8.2l0.8 50.7l20.8 0l54.1 0l0 -25.3l0 -33.7l-1.2 0l-6.4 0l-2.2 0l-2.2 0l-4.9 0l-3.6 -0.1l-1.6 0l-5.4 0l-8.4 0l-1.7 0l-2.2 0l-27 0.1l-1.3 0l-7.8 0z"/><path data-id="40055" d="m363.3 284.5l0 12.3l18.4 0l0.9 12.4l0.4 12.6l4.1 0l0 2.1l2 0l0 4.1l28.4 -0.1l-2.3 -0.7l0.6 -5.5l3.7 0l0 -6.3l18.1 0l0.5 -1.3l-1.2 -2.1l-2.5 -0.4l-0.5 -1.4l-2.8 -1.2l-1.3 -2l0.2 -2l2.9 -0.1l0.2 -2.3l-1 -3.1l-3.8 -2.9l-0.4 -4l-1.6 -1.5l1.5 -0.7l-0.2 -1.3l0.4 -1.3l0.7 -1.1l-0.2 -3.8l-2.6 -0.3l-1.8 -2.3l-0.4 -4l-3.5 -1l-1.3 -2.8l-3.6 0.8l-0.1 -1.1l-39.9 0l0 12.4l-12.3 0z"/><path data-id="40057" d="m350.3 284.4l0 40.4l0 26.4l1.7 0l1.3 -0.2l1.1 -0.6l1 -1l1.4 -0.9l1.9 0.4l1.6 1.5l2 1.4l1.4 0.9l1.5 1.7l0.6 1.3l1.9 2.3l1 0.7l20.8 0l0 -30.8l0 -4.1l-2 0l0 -2.1l-4.1 0l0 -12.6l-1.3 -12.4l-18.4 0l0 -12.3l-13 0z"/><path data-id="40059" d="m350 0.1l-0.1 59.5l46.4 0.1l4.2 0l32 -0.3l0 -32.7l-2.6 -3.3l0.4 -2l-7 -3.4l-2.8 -6.1l-2.6 -2.9l-2.7 -7.9l-1.5 -0.6l-3.3 0l-1.9 0l-1 0l-3.8 0l-2 0l-7.9 0l-2.7 0l-1.1 -0.1l-13.6 -0.1l-1.4 0l-10.4 -0.1l-14 0z"/><path data-id="40061" d="m881.1 259.9l-0.5 6l7.1 0.1l5.2 0l0 4.9l0 9.6l49.2 0l0 -20.6l13.3 0l0.1 -17.3l-1.6 -2l-0.2 -3.5l-1.9 -1.3l-2.4 2l-4.2 1.4l-1.7 -0.3l0.2 -1.4l2.4 -2.1l0.3 -1.6l-1.1 -1.9l-2.8 0.7l-2.2 -1.4l-7 -1.6l-2.3 -2.6l-0.1 -3.1l-2.9 -0.8l-2.2 1.4l-1.3 2.3l-0.7 3.9l-1.8 1.2l-2.5 3.6l-1.9 -1.1l-2.5 1.5l2.3 2l-1.1 1.4l-2.9 -0.7l-0.9 2l1.4 3.8l-0.7 1.3l-2.7 -0.3l-0.7 2l-2 2.5l-2.1 1.3l-2.5 -1l-3.1 -3.7l-2.7 -1.1l-3.8 1.4l-5.3 -4.9l-2.4 0.6l-1.9 2.6l-2.8 1.4l0.1 13.3z"/><path data-id="40063" d="m759.8 272.3l0 29.2l3.6 -0.8l4.1 1.8l1.9 -3.8l0.3 3.2l0 1.5l0 18.6l36.7 0l0 -12.4l0.4 -27.8l2.3 -1l0.8 -4.5l2.7 -2.8l1.1 -1.8l2.3 0.4l-0.4 -3.5l3.5 -1.4l0.3 -19.8l-6.2 0l-47.5 0l0 24.9l-5.7 0z"/><path data-id="40065" d="m368.4 358.8l1.4 1l1.7 1.7l0.4 1.6l2.4 3.2l1.2 1.3l2 1l-0.2 1l1.5 1.3l1.6 0.9l1.2 0.5l1.2 0.7l0.7 1.2l0.2 1l1.9 1.4l2.1 0.2l1.4 0.8l1.4 -0.3l2.7 0l3.6 0.1l1.4 -1.5l0.3 -1.7l0.1 -1.4l0.5 -1.3l1.2 -0.2l1.6 0.6l3.1 0.5l1.4 -0.4l2.1 0.7l1 1.4l1.5 0.4l2.9 1.2l0.9 1.2l1.6 0.9l1.2 -1l1.4 1.1l1.1 -0.3l1 -4.3l-0.3 -1.4l-0.3 -1.3l0.2 -2.6l1.6 -2.1l1.4 -0.3l1.3 0.4l0.3 1.3l0.7 1.3l1.1 0.9l1.5 1.2l0.5 1.1l1.7 0.6l1.1 -0.6l1.1 -0.1l3 1.4l0.6 1.9l-1.8 0.5l1.7 2.1l1.2 -0.5l1.4 1.9l0.3 1.3l0.1 1.3l1.3 0.6l1.1 0l1.8 0.1l0.6 -2.2l-1.7 -2.7l-1.4 0l1.2 -2l-2.2 0.2l0.2 -2l-1 0l-0.3 -3.4l1.2 0.8l0.6 -1.9l-0.6 -2.7l1.7 -0.6l-0.9 -1.1l0.1 -4.3l1.2 -1l1.6 -5.8l2.2 0.3l-0.8 -3.1l2.5 -3.6l3.6 -0.6l1.2 0.6l2.6 -0.9l2 0.5l-0.7 -3.5l1.1 -0.5l-2.8 -2.7l0.9 -4.4l6 -1.1l0.8 -1.4l-1.8 -2.1l-5.4 0.9l-5.9 -1l-1.1 -1.1l0.5 -1.9l-2.1 -4.4l2.5 -0.7l-1.6 -1.9l0.3 -2.8l1.6 -0.7l-0.5 -4.2l1.1 -0.3l0 -2.9l-1.7 0.3l-2.7 -1.7l-3.6 4.7l-3.9 0.6l-0.5 1.3l-18.1 0l0 6.3l-3.7 0l0 4.6l1.7 1.6l-28.4 0.1l0 30.8l-20.8 0z"/><path data-id="40067" d="m567.4 389.5l0 20.9l1 -1.2l1.9 -0.6l1.5 1.1l1.4 2.3l0 1.2l-0.5 1.5l-0.5 1l-2.4 2.8l-0.1 1.8l0.7 1.4l1.8 1.9l0.3 1.1l-1.1 1l2 4l3.8 1.3l1.6 0.3l1.6 0l1 -0.1l1.6 -0.3l2.1 -0.5l1 -0.8l1.2 0.7l1.1 1.4l1.3 0l-1.1 4.5l-1 1.5l-1 0.6l1 0.9l1.2 -0.3l0.3 1.3l-0.5 2.1l-0.8 1l-1 -0.1l-1.1 0.6l0 1l0.7 1l1.1 1.1l1.1 0.5l1.4 0l1.1 0l3.6 2.2l1 0.8l2.3 1.1l1.4 0.1l3.7 -1.2l3.4 -2.7l0.4 -1.1l2 -0.8l0.6 -1.2l-0.5 -1.6l1.3 -0.5l1 0l0.4 -1.5l-0.3 -1.3l1.1 -0.4l1.7 -0.1l1.5 -0.5l1 -0.9l0.8 -1l0.6 -1.2l0.7 -2l1.2 -1.3l1.9 -0.7l1.2 0.1l3.2 1.4l2.9 1.9l2.3 2l-0.2 3.5l-0.6 1.1l0.9 2.3l3.2 0.9l0 -12.2l2.8 0l-2.8 -2.7l0 -9.6l-0.2 -1.7l0 -12.7l0 -16.4l-49 0l-18.3 -0.1z"/><path data-id="40069" d="m708.1 383.4l0 22.6l30.8 0l1.9 1.5l1.4 -1l2.6 1l1.5 3l2.9 2.1l-0.4 1.5l15.3 0l0 -6.1l5.4 0l0 -36.9l-5.3 0l-2.2 -0.2l-4.9 0l0 -12.1l-36.6 -0.1l-6.2 0l0 24.5l-6.1 0z"/><path data-id="40071" d="m646.4 34.3l0 25.3l37.7 -0.1l9.6 0.1l1.5 -1.3l-1 -6l-1 -1l-0.2 -4.9l3.9 -2.5l0.8 1.2l2.5 0l1.3 0.9l2.8 -0.1l2.1 0.7l2.1 -0.4l1.3 -4.5l1.6 -2.7l2.1 -2.2l2.7 -0.2l3.8 1.4l1.4 -1l-0.1 -2.6l4 0l0 -2.1l4.2 0l0.3 -23.2l0 -8.4l-4.9 0l-3.6 0l-5.2 0l-1 0l-3 0l-1.8 0l-1 0l-1.1 0l-3.8 0l-1 0l-6.4 0l-1.1 0l-7.1 0l-2.3 0l-3.2 0l-17.9 0l-8.4 0l-1.5 0l-9 0l0 33.7z"/><path data-id="40073" d="m559.1 121.7l0.4 38.4l0 8.3l0 16.7l16.5 0l8.3 0l4.2 -0.1l20.8 0l12.4 0l0 -19.4l-0.1 -43.8l-20.8 0l-29.2 0l-12.4 0z"/><path data-id="40075" d="m419.3 272.2l1.2 3.1l3.5 1l0.4 4l1.8 2.3l2.6 0.3l0 2.9l0 1.4l-0.8 1.6l0.2 1.2l-1.6 1.1l1.6 1.5l0.4 4l3.8 2.9l1 3.1l-0.2 2.3l-2.9 0.1l-0.2 2l1.3 2l2.8 1.2l0.5 1.4l2.5 0.4l1.2 2.1l3.9 -0.6l3.6 -4.7l2.7 1.7l1.7 -0.3l0 2.9l-1.1 0.3l0.5 4.2l-1.6 0.7l-0.3 2.8l1.6 1.9l-2.5 0.7l2.1 4.4l-0.5 1.9l1.1 1.1l5.9 1l5.4 -0.9l1.8 2.1l-0.8 1.4l-6 1.1l-0.9 4.4l11.9 0l0 6.2l20.4 0l0 -37.1l24.1 0.1l-0.1 -32l0 -2.5l-1 -2.7l-1.2 -0.9l-1.2 1.1l-0.1 -1.3l-2.5 0.7l-0.3 1.4l-2.5 -0.4l-1.9 1l-0.5 -1.2l-1.6 0.2l-0.5 1.5l-1.8 -2.1l-36.2 0l-34.9 0l-5.6 0z"/><path data-id="40077" d="m874.4 309.4l-0.8 24.7l53.1 0.1l0 -8.3l0.1 -16.5l7.2 0l0 -12.4l8.2 0l0 -10.1l0 -6.4l-49.2 0l0 4.2l-18.5 0l0 24.8z"/><path data-id="40079" d="m926.6 325.9l0 8.3l14.2 0l0 24.7l55.6 0l0.1 -5.4l0.3 -12.7l0 -1.1l0.2 -7.2l0.1 -5l0.4 -14l0.1 -4l0.1 -2.9l0.1 -2.2l0.2 -6.1l0.2 -6.3l0.4 -12l0.2 -8.2l0.1 -1.3l0.1 -4.9l0 -1.2l0.1 -2.2l0 -1.4l0.1 -1.6l0.1 -3.1l0 -1.2l0.1 -1.5l0.1 -3l0 -2.3l0.1 -2.7l0.3 -8.1l-0.1 -1.9l0 -1.4l-1.4 0.9l-3.1 0.6l-1.7 1.6l0.7 1.8l-1.7 1.4l0 1.8l1.6 2.9l-1.5 1.2l-2.7 -1.2l-1.9 0.7l-2.5 -0.8l-1.7 -2.2l-3 -0.3l-2.5 3.4l-3.7 1.8l-2.4 -0.5l-1.1 -1.4l-0.1 -1.9l-1.4 -1.6l-4.1 -2.8l-3.6 -1l-2.6 0.8l-1.9 3.4l-2.2 0.5l-0.1 17.3l-13.3 0l0 20.6l0 6.4l0 10.1l-8.2 0l0 12.4l-7.2 0l-0.1 16.5z"/><path data-id="40081" d="m683.8 185.1l0 37.4l20.6 0.1l39.7 0.1l0.5 -25.3l-0.1 -43.5l-60.6 -0.1l0 2.1l-0.1 29.2z"/><path data-id="40083" d="m621.5 121.7l0.1 43.8l0 19.4l4.1 0l12.4 0l2.1 0l6.2 0l10.4 0l14.5 0.1l12.4 0.1l0.1 -29.2l0 -2.1l-0.3 -1.8l-3.4 1.9l-3.6 -0.5l-2.1 -2.9l-2.6 -1.1l-3.8 -0.1l-1.2 -1.1l-1 -3.6l-3.4 -0.8l-3.5 3.7l-0.1 -25.1l-12.5 -0.8l-25.1 0z"/><path data-id="40085" d="m634.9 432.6l0 12.2l1.1 0l1 -0.5l1.2 -0.7l1.6 -1l2.1 -0.8l1.7 0.4l3.1 1.9l1.1 1.7l-0.1 2.9l-0.7 2.2l-0.6 1.9l0.4 1l1.7 1.5l2.1 0.6l1.9 0.1l4.4 -0.1l1.7 -1.5l1.2 -1.9l0.9 -2.3l0.2 -1l1.1 -0.9l0.6 1.2l1 0.1l1 -1.8l1 -0.3l1.6 1.6l1.2 0.8l2.1 0l0.9 -1.7l0.4 -3.5l2.2 -2l1.8 -0.2l3 2.2l0.6 1.2l1.5 6.3l0 1l-1.7 1.3l-1.5 0l-1.1 1.3l-0.3 1.7l0 1.2l1.3 2.3l0.8 2.2l0.7 1.9l1.1 2.6l1.1 1.2l1.6 1l1.4 0.5l1.3 0.2l1.5 -0.2l1 -0.5l1.3 -1.1l1 -1.8l0.2 -1.3l0 -1l-0.4 -2l-0.7 -2.1l-0.1 -1.3l0.8 -1.5l1.1 -0.6l1.2 -0.2l2.3 -0.4l-0.1 -1.1l-1 -1.3l-3 -0.8l-0.4 -1.8l2.2 -1l1.4 0.7l0.6 1.3l1.1 1.2l2 -0.9l4.5 -5.9l0.1 -2.6l-0.4 -1.9l-0.6 -1.5l-0.2 -1.8l0.2 -1.1l1.5 -1l0 1l0.1 1.1l3.2 -0.4l2 -1.4l0 -8.2l-4.1 0l0 -8.2l-69 0l0 9.6l2.8 2.7l-2.8 0z"/><path data-id="40087" d="m622 240.6l0.1 6.6l0 18.7l0 33.1l0 10l22.9 0.4l21.9 0l41.3 0.1l0.2 -15.6l-3.1 1.9l-1.2 2.3l-3.3 2.8l-2.3 1.1l-4.3 -2l-2.3 0.2l-0.9 -1.3l-6.2 -0.8l-1.1 0.9l-1.4 -0.5l-4.9 0.4l-0.3 -1.6l-2.3 -0.6l-1.2 1.7l-0.6 -1.4l-3.4 -0.5l-1.4 -2.5l-3 -0.2l-0.9 1.5l-3.9 -1.4l-0.8 -3.1l-1.2 -6.9l0.9 -2.5l-0.4 -3.6l-1.6 -1.2l-3.9 -0.2l-0.1 -4.4l-0.5 -3l-3.6 -1.3l-0.6 -1.9l-8.2 -5.9l-3.2 -1.7l-2.4 -2.9l-0.5 -1.8l1.4 -2.1l-0.5 -4.1l-2.3 -1.6l-2.3 -0.2l-2.2 -0.3l-4.1 -4l-2.2 -0.6z"/><path data-id="40089" d="m915.4 408.2l0.1 31l2.8 0l1.1 0.8l-0.2 1.3l1.3 1.2l1.2 0.1l0.7 1l0.2 1.3l1.2 0.4l1.5 -1.2l1.2 0.9l0.3 1.2l1.1 3.2l1.4 0.5l1.7 0.1l1.6 -0.9l1 0.5l0.8 1.4l1.1 0.2l0.8 -1.2l1.2 1.6l0.2 1.6l1.8 1.6l0.1 1.1l1.1 1l1.3 -0.3l1.1 0.3l0.3 1.2l-0.3 1l0 1.1l1 1.1l1.1 0.3l1.6 1.3l1.1 0.4l0.5 1.3l0.7 1.4l2.3 0.9l2.2 -0.1l0.6 -1.4l1.4 -0.4l1.5 1.1l1 -0.2l1.7 -1.3l1 0.6l-0.2 1.2l0.6 1.5l1.1 0.3l1.2 0.4l0.6 1.5l0 1.4l1.2 0.9l0.8 -1l1.2 0.2l0.1 1.3l0.1 1.1l3 0.6l3 -1.1l1.1 0.6l0.2 1.1l-0.1 1l1.6 0.5l0.8 -1.1l1.3 -0.3l1.1 1.1l1.2 0.1l1.2 -1.1l1.1 0.8l0.8 1l-0.2 1.3l1.8 -2.77556e-17l0.7 1l-0.3 1.2l1.1 0.8l1.2 -0.3l0.6 1.2l-0.1 1.1l2.8 0.2l1.5 -0.6l0.7 -1.8l0 -2.2l0 -1.4l0.1 -3.4l0.1 -3.3l0.1 -5.5l0.1 -5.4l0 -1.9l0.1 -3.8l0.1 -3l0.1 -4.2l0.2 -7.9l0 -2.2l0.2 -9.3l0.5 -24l0.5 -22.9l0 -1.1l0.1 -6.1l0 -1.7l0.3 -13.1l-55 0.1l-13.3 -0.2l0 37.3l-12.2 0l-0.6 12.3z"/><path data-id="40091" d="m819.1 247.4l-0.3 19.8l2.5 -0.1l4 1.3l2.4 0l2.3 -1.7l2.1 -4.3l3.6 0.2l5.4 -1.8l2.9 2.6l1.5 0.3l1.6 -2.2l3 0.5l1.1 -1.8l3.8 -0.9l-1 -1.1l1.2 -1.6l5.1 -2.8l2.2 -0.4l0.3 2l-1.8 1.5l1.7 0.6l1.4 -0.4l2.7 -3l7 -3.1l-0.7 -1.9l2.2 -3.1l5.7 0.7l2.8 -1.4l1.9 -2.6l2.4 -0.6l5.3 4.9l0 -25l0 -12l-1 -0.1l-25.3 0.1l-6.2 0l-4.4 0l-5.9 0l-12.8 0l-0.1 12.6l-6.1 0l0 12.4l-9.9 0l-2.4 0l0 12.4z"/><path data-id="40093" d="m471.6 72.1l-0.1 37.7l0.6 2.3l0 10l37.2 -0.5l4.2 -0.1l45.6 0.1l12.4 0l-0.1 -43.2l-50.1 0l0 9.5l-2.2 -0.7l-4.8 1.5l-3.7 -0.1l-8.6 -3.4l-1.1 -0.9l-2.1 -3.4l-5.9 -0.5l-3.5 -1.8l-1.4 -1.5l-2.8 -5.1l-13.6 -0.1z"/><path data-id="40095" d="m703.8 420.3l0 8.2l4.1 0l0 8.2l1.2 -0.7l1 0.2l1.1 1.1l0.5 1.1l0.3 1.2l0.3 2.9l-0.1 1.5l1.7 4.9l0.9 1.1l1 1l1.2 0.8l1.1 -0.2l0.6 -2.1l0.4 -1.1l2.9 -0.2l2.2 0.5l1.3 0.8l0.7 2.2l0.8 2.6l1.1 0.7l1.8 -0.1l3.9 -0.8l1.5 -1.1l1 -1.5l0.7 -1.9l0.3 -1.5l-0.2 -1.5l0.3 -1.7l0.7 -1.8l0.9 -1.1l2.6 1.6l1.6 1.5l2.6 0.1l1.7 -0.1l1.2 -1.8l-1.6 -5l2.2 -2.9l-1 -1.4l-1.1 0.4l-2.5 -2.7l-1.1 -2.6l2.4 0.1l1.3 -1.2l1.2 1.4l1.1 -2l-0.1 -2.4l3.1 -3.7l-1.5 -1.3l-0.6 -2.3l-2.3 -3.5l0.4 -1.5l-2.9 -2.1l-1.5 -3l-2.6 -1l-1.4 1l-1.9 -1.5l-30.8 0l-4.1 0l-0.1 14.3z"/><path data-id="40097" d="m882.3 109.8l0 8.1l0 16.8l8.8 0l18.3 0.1l8.6 0l1.8 0l0 -12.6l12.5 0l0 -8.4l0 -2.1l0.6 -2.2l0 -4.2l0 -33.6l-20.9 -0.1l-16.7 0l-12.5 0l0 12.6l0 10.3l0 14.9z"/><path data-id="40099" d="m659.2 358.8l0 18.5l35.4 0.1l1.8 0.4l-0.2 3.5l-0.6 1.4l1.2 0.5l11.3 0.3l6.1 0l0 -24.5l6.2 0l0 -12.4l-12.3 0l0 -6.2l-24.5 0l0 2.1l-6.7 0l1.3 3.8l2.6 1.1l-1.1 2.4l2.2 2.9l-0.9 2.9l2.5 1.3l-1 0.7l1.1 1.5l-24.3 0z"/><path data-id="40101" d="m844.3 166.2l0 18.8l6.2 0l0 25l5.9 0l4.4 0l6.2 0l25.3 -0.1l1 0.1l0 12l0 25l3.8 -1.4l2.7 1.1l3.1 3.7l2.5 1l2.1 -1.3l2 -2.5l0.7 -2l2.7 0.3l0.7 -1.3l-1.4 -3.8l0.9 -2l2.9 0.7l1.1 -1.4l-2.3 -2l2.5 -1.5l1.9 1.1l2.5 -3.6l1.8 -1.2l0.7 -3.9l1.3 -2.3l2.2 -1.4l-4 -0.2l-1.5 -3.8l-2.7 -2.7l-1.4 -2.9l0.6 -10l0 -6.2l0 -22.6l0 -2.5l-16.2 -0.1l-2.5 0l-4.3 0l-4.5 -1.3l-6.8 3.3l-6.7 -0.7l-4.7 1.6l-4.4 0.6l-2.8 2.7l-1.2 0.6l-1.4 -1.8l-2.3 0.1l-2 -1.4l-0.2 -6.8l-1.2 -3.1l-13.5 0.1z"/><path data-id="40103" d="m646.5 59.5l0.1 62.2l12.5 0l24.9 0.8l0 -12.6l25.2 0l0 -12.6l-12.5 0l0 -10.4l0 -14.8l2.6 0l1.6 -3.2l2 -0.9l2.4 0.1l3.9 -2.7l2.6 0.2l1.7 -3.4l-2.9 -3.5l-4.2 1.3l-6.3 1.1l-3.9 -0.5l-2.5 -1.1l-9.6 -0.1l-37.6 0.1z"/><path data-id="40105" d="m839.2 8.8l0 27l0 23.2l44.1 0l0 -50.3l2.8 0l0 -8.3l-12.1 0l-1.3 0l-1.4 0l-4.6 0l-4.5 0l-1.4 0l-4.7 0l-1.1 0l-1.4 0l-1.2 0l-1.6 0l-3.7 0l-2.1 0l-1 0l-2.1 0l0 8.4l-2.7 0z"/><path data-id="40107" d="m744.1 222.7l0.1 8.9l2.8 0.5l1.6 -2.1l1.1 1.4l2.5 0l2.2 1.5l-0.2 -2.8l-2.8 -1.7l0.6 -1.7l-1.5 -0.5l1.7 -2.3l3.7 2.3l0.3 1l2.6 0.3l1.6 -1.6l-0.6 -1.3l1.7 -2.1l3.2 0.7l0.5 -1.3l0 11.5l0 13.9l47.5 0l6.2 0l0 -12.4l-12.4 0l0 -25.1l-12.3 0l0 -12.5l-49.9 0l-0.5 25.3z"/><path data-id="40109" d="m621.7 203.7l0 6.3l0.3 2l0 1l0 2.2l0 1.1l0 3.1l0 2.1l0 1.6l0 3.5l0 4.2l0 4.2l11.2 0l1.1 0l2.5 0l2.7 0l2.1 0l3.1 0l2.1 0l2.1 0l2.1 0l12.3 0l2.1 0l18.4 0.1l0.1 -8.3l0 -4.2l0 -37.4l-12.4 -0.1l-14.5 -0.1l-10.4 0l-6.2 0l-2.1 0l-12.4 0l-4.1 0l0 14.7l0 4.2z"/><path data-id="40111" d="m794.5 197.4l0 12.5l12.3 0l0 25.1l12.4 0l2.4 0l9.9 0l0 -12.4l6.1 0l0.1 -12.6l12.8 0l0 -25l-6.2 0l0 -18.8l-4.6 0l-1.7 0.1l-10.3 -0.1l-14.6 -0.1l-6.2 -0.1l-6.5 0l-5.9 0l0 31.3z"/><path data-id="40113" d="m692.8 46.4l0.2 4.9l1 1l1 6l-1.5 1.3l2.5 1.1l3.9 0.5l6.3 -1.1l3.3 -1.5l3.8 3.7l-1.7 3.4l-2.6 -0.2l-3.9 2.7l-2.4 -0.1l-2 0.9l-1.6 3.2l0.5 3l4.3 3.7l3.3 0.7l3.2 -1.8l4.3 -0.4l2.8 -3l1.6 -3l0 -1.3l1.9 -2.6l2.7 -2.1l3.3 -1.7l1.9 0.4l1.9 1.8l1.1 2.8l0.4 4l1.8 1.7l0.4 2l-1.3 3.2l0.2 1.8l3.1 2.8l1.8 0.5l4.5 -0.8l1.8 2.3l1.6 0.9l0.5 3l3.1 1.1l4.1 -3.8l1.6 0.9l0.9 2.8l-1.8 2.8l-2.9 1.1l-1.6 2.4l-0.1 2.3l3.1 2.5l3.7 0l1.6 -1.3l1.7 -3.3l3.5 -0.3l1.3 1.6l1.4 5.1l5.5 2.7l5.5 5.4l9.7 0.6l1.6 3.3l-3.1 4.2l0.1 1.7l13.3 0.1l1.5 0l5.9 0l5.5 0l2.8 0l2.2 0l0 -8.4l0 -3.3l0 -1.1l0 -8.3l0 -16.8l0 -2.3l0 -43.1l0 -5l0 -33.3l-16.4 0l-1 0l-4.1 0l-1.8 0l-2 0l-6.9 0l-13.7 0l-2.5 0l-9.9 0.1l-3 0l-21 -0.1l-3.6 0l-1.5 0l0 8.4l-0.3 23.2l-4.2 0l0 2.1l-4 0l0.1 2.6l-1.4 1l-3.8 -1.4l-2.7 0.2l-2.1 2.2l-1.6 2.7l-1.3 4.5l-2.1 0.4l-2.1 -0.7l-2.8 0.1l-1.3 -0.9l-2.5 0l-0.8 -1.2l-3.9 2.5z"/><path data-id="40115" d="m929.7 1.2l0.4 3.2l1 1.7l3.4 1.6l-0.7 1l0 39.7l18.5 0l6.8 0l19.2 0.4l0 -4.9l0 -9.5l0 -11.8l0 -4.8l0 -2.5l0 -2.1l0 -2.1l0 -1.7l0 -1.3l0 -7l-9.5 -0.6l-1.5 0l-2.8 0l-4.6 0l-6.3 0l-1.1 0l-1 0l-17 -0.1l-1.4 0l-3.1 0.8z"/><path data-id="40117" d="m696.6 72.1l0 14.8l0 10.4l12.5 0l0 12.6l12.4 0l0 12.7l22.5 -0.2l26.4 -0.5l12 0.1l3.5 0l-0.1 -1.7l3.1 -4.2l-1.6 -3.3l-9.7 -0.6l-5.5 -5.4l-5.5 -2.7l-1.4 -5.1l-1.3 -1.6l-3.5 0.3l-1.7 3.3l-1.6 1.3l-3.7 0l-3.1 -2.5l0.1 -2.3l1.6 -2.4l2.9 -1.1l1.8 -2.8l-0.9 -2.8l-1.6 -0.9l-4.1 3.8l-3.1 -1.1l-0.5 -3l-1.6 -0.9l-1.8 -2.3l-4.5 0.8l-1.8 -0.5l-3.1 -2.8l-0.2 -1.8l1.3 -3.2l-0.4 -2l-1.8 -1.7l-0.4 -4l-1.1 -2.8l-1.9 -1.8l-1.9 -0.4l-3.3 1.7l-2.7 2.1l-1.9 2.6l0 1.3l-1.6 3l-2.8 3l-4.3 0.4l-3.2 1.8l-3.3 -0.7l-4.3 -3.7l-0.5 -3l-2.6 0z"/><path data-id="40119" d="m659 122.5l0 24.5l3.6 -3.1l3.4 0.8l1 3.6l1.2 1.1l3.8 0.1l2.6 1.1l2.1 2.9l3.6 0.5l3.4 -1.9l0.3 1.8l60.6 0.1l0 -2.6l0 -29l-23.1 0.2l0 -12.7l-12.4 0l-25.2 0l0 12.6l-24.9 0z"/><path data-id="40121" d="m806.2 321.8l0 12.3l24.5 0l0 12.3l24.5 0l18.4 0l0 -12.3l0.8 -24.7l0 -24.8l18.5 0l0 -4.2l0 -9.6l0 -4.9l-5.2 0l-7.1 -0.1l0.5 -6l-0.1 -13.3l-5.7 -0.7l-2.2 3.1l0.7 1.9l-7 3.1l-2.7 3l-1.4 0.4l-1.7 -0.6l1.8 -1.5l-0.3 -2l-2.2 0.4l-5.1 2.8l-1.2 1.6l1 1.1l-3.8 0.9l-1.1 1.8l-3 -0.5l-1.6 2.2l-1.5 -0.3l-2.9 -2.6l-5.4 1.8l-3.6 -0.2l-2.1 4.3l-2.3 1.7l-2.4 0l-4 -1.3l-2.5 0.1l-3.5 1.4l0.4 3.5l-2.3 -0.4l-1.1 1.8l-2.7 2.8l-0.8 4.5l-2.3 1l-0.4 27.8l0 12.4z"/><path data-id="40123" d="m708.2 309.5l0 6.1l0 24.8l0 6.2l12.3 0l0 12.4l36.6 0.1l0.2 -24.7l12.3 0l0 -12.4l0 -18.6l0 -1.5l-0.3 -3.2l-1.9 3.8l-4.1 -1.8l-3.6 0.8l-2.5 5l-1.9 0.8l-1.8 -1.5l-1.4 -2.6l-0.1 -2.3l-2.4 -0.3l-2.2 1.5l-3 1l-2.9 -0.5l-2.4 -3.9l-3.7 -0.1l-1.3 2.6l1.8 1.2l1.1 2.9l-0.9 2.1l-3.9 1.6l-1.7 -1.7l-1.6 -4.3l-2.4 0l-2.7 -0.9l0 -3.4l-1.8 -2.1l-4.5 2.3l-3.9 0.4l-2.9 -4.6l-2.2 -0.9l-0.1 15.3z"/><path data-id="40125" d="m683.7 286.7l0 12.3l1.1 -0.9l6.2 0.8l0.9 1.3l2.3 -0.2l4.3 2l2.3 -1.1l3.3 -2.8l1.2 -2.3l3.1 -1.9l2.3 0.8l2.9 4.6l3.9 -0.4l4.5 -2.3l1.8 2.1l0 3.4l2.7 0.9l0 -34.9l-0.1 -4.1l0 -16.6l0 -16.5l3.8 -0.2l2.3 -2.6l0.7 1.9l1.9 -0.6l5.7 3.4l3.5 -1.2l-0.1 -8.9l-39.7 -0.1l-20.6 -0.1l0 4.2l-0.1 8.3l0 6.2l0 20.2l0 6.7l0 6.2l0 12.4z"/><path data-id="40127" d="m842.7 358.8l0 49.4l5.8 0l66.9 0l0.6 -12.3l12.2 0l0 -37.3l12.7 0.1l0 -24.7l-14.2 0l-53.1 -0.1l0 12.3l-18.4 0l0 12.3l-12.6 0z"/><path data-id="40129" d="m350.3 162.6l0 37.6l0 28.2l49.5 0.1l0 -12.5l14.3 0l10.3 0l0 -6.2l-1.5 0l0.1 -37.4l-0.6 -12.5l0 -16.4l-4.8 0.1l-3.6 1l-2.9 2.8l-2.1 1l-2.3 7.6l-4 3.7l-1 4.9l-5.1 1.5l-2.1 2l-3.9 -1.2l-2.9 -0.1l-4.6 -1.3l-3.4 -3.2l-1.7 0.2l-1.7 -1.1l-0.4 -1.2l-2.6 -2.1l-1 -2.6l0.3 -4.5l0.7 -1.6l-0.8 -4.1l-3.3 -1l-2 0.4l-2.4 2.3l-1.5 0l-2.3 3.1l-0.5 1.7l0.8 2.6l-2.3 3.3l-4 2l-1.5 1.6l-3.3 1.1z"/><path data-id="40131" d="m838.5 118.4l0 3.6l2.4 0l1.7 0l2.1 0l4.1 0l6.3 0.1l6.2 0l1.7 4.2l4.3 0.6l-0.1 3.2l1.8 2.3l-2.2 2.3l15.3 0l0 -16.8l0 -8.1l0.5 -14.4l0 -11.1l0 -12.6l12.5 0l0 -12.7l-12 0l-44.1 0l-0.3 25.3l2.1 0l0 4.2l-2.1 0l0 6.3l0 4.2l0 8.4l-0.4 2.1l0 3.6l0 5.3z"/><path data-id="40133" d="m726.3 247.4l0 16.6l0.1 4.1l0 34.9l2.4 0l1.6 4.3l1.7 1.7l3.9 -1.6l0.9 -2.1l-1.1 -2.9l-1.8 -1.2l1.3 -2.6l3.7 0.1l2.4 3.9l2.9 0.5l3 -1l2.2 -1.5l2.4 0.3l0.1 2.3l1.4 2.6l1.8 1.5l1.9 -0.8l2.5 -5l0 -29.2l5.7 0l0 -24.9l0 -13.9l0 -11.5l-0.5 1.3l-2.3 0.1l-2.6 1.3l0.6 1.3l-1.6 1.6l-2.6 -0.3l-0.3 -1l-3.7 -2.3l-1.7 2.3l1.5 0.5l-0.6 1.7l2.8 1.7l0.2 2.8l-2.2 -1.5l-2.5 0l-1.1 -1.4l-1.6 2.1l-2.8 -0.5l-3.5 1.2l-5.7 -3.4l-1.9 0.6l-0.7 -1.9l-2.3 2.6l-3.8 0.2l0 16.5z"/><path data-id="40135" d="m918.8 203.6l-0.6 10l1.4 2.9l2.7 2.7l1.5 3.8l4 0.2l2.9 0.8l0.1 3.1l2.3 2.6l7 1.6l2.2 1.4l2.8 -0.7l1.1 1.9l-0.3 1.6l-2.4 2.1l-0.2 1.4l1.7 0.3l4.2 -1.4l2.4 -2l1.9 1.3l0.2 3.5l1.6 2l2.2 -0.5l1.9 -3.4l2.6 -0.8l3.6 1l4.1 2.8l1.4 1.6l0.1 1.9l1.1 1.4l2.4 0.5l3.7 -1.8l2.5 -3.4l3 0.3l1.7 2.2l2.5 0.8l1.9 -0.7l2.7 1.2l1.5 -1.2l-1.6 -2.9l0 -1.8l1.7 -1.4l-0.7 -1.8l1.7 -1.6l3.1 -0.6l1.4 -0.9l0.3 -1l-0.7 -4.9l-1.4 -9.8l-0.8 -6.4l-0.8 -6.1l-0.2 -1.6l-0.9 -6.4l-39 0l-12.8 0l-11.1 0l-13.4 -0.1l0 6.2z"/><path data-id="40137" d="m567.1 334.1l0 24.7l0.3 16.4l0 14.3l18.3 0.1l49 0l0 -18.4l0 -12.4l-0.1 -8.2l0 -15.9l-12.3 -0.5l-25.6 0l-17.4 0l-4.1 0l-2 0l-6.1 0z"/><path data-id="40139" d="m113.2 22.3l0 50.7l11.9 0l12.1 0.1l4.5 0l1 0l8.3 0l1.2 0l5.2 0l3.4 0l62.9 0l3.8 0l8.8 0l2.7 0l0 -50.7l1 0l0 -21.8l-5.9 0l-1.9 0l-4.8 0l-1.5 0l-16.9 0.1l-17.1 0.1l-2.4 0l-4.2 0l-8.3 0.1l-3.9 0l-4.2 0l-5.3 0l-35.2 0.2l-11.4 0.1l-3.2 0l0 20.4z"/><path data-id="40141" d="m439.2 370.4l0.3 3.4l1 0l-0.2 2l1.7 -1.1l-0.7 2.9l1.4 0l1.7 2.7l-0.6 2.2l-1.5 0.5l0.1 1.6l-0.2 1.5l0 3.1l0.5 1.2l1.4 0.3l0.2 1.3l-0.3 1.6l0 2.3l0.7 1.7l-0.1 1.4l0.3 1.1l3.6 0.8l1.8 -0.8l1.6 -0.6l5.55112e-17 1l0 1.1l1.3 0.4l1.2 -0.2l1.9 -0.8l1.5 -0.3l1.5 0.4l0.8 1l1.2 0.4l1.1 -0.9l3 0.1l1.1 -0.8l0.2 -1.2l1.2 -0.6l1.1 0.6l0.3 1l0.5 1l1.3 -0.2l0.2 -1.1l1 0.1l1.4 1.2l1.4 1.6l0.9 1.3l1.3 0.8l4.2 1.5l-0.2 1.4l0.8 1.1l1.1 -0.4l0.1 -1l3.2 -0.4l2.1 0.5l2.4 2.1l3.1 1l0.6 1.1l1.2 0.7l1.2 -0.5l0.5 -1.1l2.1 -0.2l2.5 0.4l4.8 -3.4l1.5 -0.9l2.5 1l1.2 0.1l0.3 -25l-6.1 0l0 -10.2l0 -14.4l-2.7 0l-16.4 0l0 -12.3l-20.4 0l0 -6.2l-11.9 0l2.8 2.7l-1.1 0.5l0.7 3.5l-2 -0.5l-2.6 0.9l-1.2 -0.6l-3.6 0.6l-2.5 3.6l0.8 3.1l-2.2 -0.3l-1.6 5.8l-1.2 1l-0.1 4.3l0.9 1.1l-1.7 0.6l0.6 2.7l-0.6 1.9l-1.2 -0.8z"/><path data-id="40143" d="m782.2 122l0 12.5l14.2 0l8.8 0l3.1 0l5.2 0l0 4.2l0 2.1l0 6.3l0 6.3l0 6.3l-0.4 4.3l0 2.1l14.6 0.1l10.3 0.1l0.1 -6.5l6.7 0l0 -1.2l0 -11.4l0 -4.2l0 -2.1l0 -2.1l0 -6.3l0 -2l0 -2.1l0 -2.1l0 -4.2l-2.1 0l-1.7 0l-2.4 0l0 -3.6l0 -5.3l0 -3.6l0.4 -2.1l0 -8.4l0 -4.2l0 -6.3l2.1 0l0 -4.2l-2.1 0l-8.3 0l-4.2 0l-9.4 0l0 16.8l0 8.3l0 1.1l0 3.3l0 8.4l-2.2 0l-2.8 0l-5.5 0l-5.9 0l-1.5 0l-13.3 -0.1l-3.5 0z"/><path data-id="40145" d="m838 159.7l-0.1 6.5l1.7 -0.1l4.6 0l13.5 -0.1l1.2 3.1l0.2 6.8l2 1.4l2.3 -0.1l1.4 1.8l1.2 -0.6l2 -2.6l5.2 -0.7l4.7 -1.6l6.7 0.7l6.8 -3.3l4.5 1.3l4.3 0l2.5 0l1.5 -3l2.5 -2.5l0.5 -1.6l-0.6 -1.5l-2.9 -0.7l-2.8 -3.9l0.1 -2.1l1.3 -1.5l-0.1 -2.6l-1 -2.4l3.1 -3.4l1.6 0l1.5 -3.1l0 -4.4l2 0l0.1 -5l-18.3 -0.1l-8.8 0l-15.3 0l2.2 -2.3l-1.8 -2.3l0.1 -3.2l-4.3 -0.6l-1.7 -4.2l-6.2 0l-5.5 0l-4.9 -0.1l0 4.2l0 2.1l0 2.1l0 2l0 6.3l0 2.1l0 2.1l0 3.5l0 12.1l0 1.2l-6.7 0z"/><path data-id="40147" d="m816.8 81.9l0 2.3l9.4 0l4.2 0l8.3 0l0 -25.3l0.3 -23.2l0 -27l2.7 0l0 -8.4l-2.5 0l-6.9 0l-1 0l-4.1 0l-2.1 0l-1 0l-3.2 0l-4.3 0l0 33.3l0 5l0 43.1z"/><path data-id="40149" d="m424.5 222.3l0 6.3l0.5 31l0 12.5l34.9 0l36.2 0l1.8 2.1l0.5 -1.5l1.6 -0.2l0.5 1.2l1.9 -1l2.5 0.4l0.3 -1.4l2.5 -0.7l0.1 1.3l1.2 -1.1l1.2 0.9l1 2.7l0.4 -15.2l-0.7 -37.2l-49.3 -0.1l-37.1 0z"/><path data-id="40151" d="m413.7 0.4l1.5 0.6l2.7 7.9l2.6 2.9l2.8 6.1l7 3.4l-0.4 2l2.6 3.3l0.1 2l2.8 2.4l2.3 0.7l4.6 -0.8l2.5 0.5l2.6 -0.5l3.1 1.1l1.6 3l3.4 3l1.5 3l2.7 0.9l2 3l-0.4 1.2l1.6 2.8l1.2 0.9l0.1 2.7l1.1 0.3l4.8 5.8l1.3 0.2l0 13.4l13.6 0.1l2.8 5.1l1.4 1.5l3.5 1.8l5.9 0.5l2.1 3.4l1.1 0.9l8.6 3.4l3.7 0.1l4.8 -1.5l2.2 0.7l0 -9.5l0 -19l-0.8 -50.7l-0.5 -8.3l-19.8 0l-5.5 0l-3.5 0l-9 0l-1.2 0l-13.4 0l-4.1 0l-2.4 0.1l-8.8 0l-14.3 0l-3.4 0l-11.4 -0.1l-3.7 0.1l-5.7 0z"/><path data-id="40153" d="m396.3 59.7l0 4l0.1 46.2l1 0l0 11.9l25 0l49.7 0.4l0 -10l-0.6 -2.3l0.1 -37.7l0 -13.4l-1.3 -0.2l-4.8 -5.8l-1.1 -0.3l-0.1 -2.7l-1.2 -0.9l-1.6 -2.8l0.4 -1.2l-2 -3l-2.7 -0.9l-1.5 -3l-3.4 -3l-1.6 -3l-3.1 -1.1l-2.6 0.5l-2.5 -0.5l-4.6 0.8l-2.3 -0.7l-2.8 -2.4l-0.1 -2l0 32.7l-32 0.3l-4.2 0z"/></svg>
