<?xml version="1.0" encoding="UTF-8"?>
<!DOCTYPE svg PUBLIC '-//W3C//DTD SVG 1.1//EN' 'http://www.w3.org/Graphics/SVG/1.1/DTD/svg11.dtd'>
<svg viewBox="0 0 10000 4841.78" xmlns="http://www.w3.org/2000/svg">
  <g data-id="001">
    <path d="m9561.2 1597.4l0 0l0 377.2l390.4 0.1l-17.4 -125.8l-0.7 -4.4l-5.5 -43l-0.5 -3.9l-1.4 -9.2l-5.2 -36.2l-0.7 -5l-1 -8.2l-0.3 -1.7l-0.5 -3.8l-2.2 -15.5l-1.7 -13.2l-1.4 -10.4l-2.3 -17.7l-11.6 -80.6l-5.9 -46.7l0 -0.8l0 -0.1l-0.3 -1.8l-1.7 -11.4l-0.3 -2.4l-4.1 -28.7l-0.2 -0.6l-4.4 -31.4l-1.8 -12.9l-1.4 -8.5l-1 -7.4l-14 -100.2l-0.2 -1.5l-5 -34.6l-10.5 -72l-1.9 -13.9l-0 -0.2l-273.5 0.7l0 267.6l0.1 108.2l-11.8 -0z" />
  </g>
  <g data-id="003">
    <path d="m5200.9 4.7l0 0l5.2 82.9l8 506.8l-0.3 190.2l500.7 0.2l0.2 -189.4l-6.2 -507.5l-2.2 -0l-0.6 -81.9l-41.4 -0l-35.2 0.2l-35.7 0l-13.2 0.3l-21.2 -0.2l-126.6 0l-1.1 0l-8.1 0l-64.1 -0.8l-10.8 -0l-2.3 0l-145.2 -0.7z" />
  </g>
  <g data-id="005">
    <path d="m7694.5 3713.1l0 0l-0.4 368.7l185.4 0.1l170.5 0.2l129.5 0.4l84.7 0.3l162.9 -0.1l0.4 -485.1l-0.5 -9.1l125.7 -0.3l-0.3 -123.3l-245 0.5l-0.1 -123.3l-244.9 -0.1l0.1 236l-0.7 11.1l-61.5 0.1l0.3 123.7l-305.9 0.4z" />
  </g>
  <g data-id="007">
    <path d="m2390.3 224.5l0 0l-0.4 507.3l21.1 -0l20.5 -0l40.1 -0.1l0.1 0l28.5 -0l10.3 -0l31 0.1l0 0l21 -0.1l0 0.1l3.8 0l0 0l47.9 0l0 0.1l43.7 0l0 0l18.4 0l-0 0l59.3 0.1l0 -0l11 0l-0 0l65 -0l0.1 0l0 0.1l10.5 -0.1l0.2 0.1l6.1 -0l0 0l37.3 0.1l17.4 0l0 0.1l0.9 0.1l0.2 -0.2l9.4 0.1l94.7 -0.3l0 0l8.3 0l14.7 0l0 -0.1l8.9 0.1l0.1 -0l40.7 -0.1l0 0.1l31.2 -0.1l0 0l20.3 0.1l0 -0l12 -0.3l15.1 0.1l0.3 -0.1l0.4 0.1l151 0l106.4 -0l100.6 -0.1l0.7 -135.9l0.7 -595.1l-3.7 -0l-97.7 -0.5l-30.6 -0.2l-83.8 0.2l-5.6 0.1l-1.6 -0.1l-9.2 0.1l-408.2 2.1l-1.3 -0.2l-45.1 0.5l-0.1 -0l-44.8 0.5l-4.1 0.1l-49.3 0.4l-68.8 0.9l-26.1 -0.4l-10 0.3l-47.4 0.1l-9.5 0l-48.3 0.7l-42 0l-14.7 -0.2l-0.4 0.3l-47.7 0.6l-0.1 218.2l-9.6 0.4z" />
  </g>
  <g data-id="009">
    <path d="m3502.6 2284.6l0 0l0 342.6l0 217.2l130.4 0.2l123.2 0.2l0.3 -123.5l399.1 0.3l0.8 10.6l35.8 -7.7l1.1 -2.8l56.1 -0.4l0 -125.2l-4.7 -310l0.1 -63l0.1 -62.3l-103.2 -0.2l-143.5 0.1l-0.3 124.9l-495.3 -1z" />
  </g>
  <g data-id="011">
    <path d="m5093.3 1216.6l0 0l5.6 383.9l0.1 124.4l0.2 97.4l-0.4 256.5l0.1 20.7l10.4 0l276.4 0.2l85.1 -0.1l0.1 -228.5l-0.2 -20.8l124 0.1l0.2 -166.7l0.1 -82.9l-4.3 -384.2l-455.8 -1.3l-41.6 1.3z" />
  </g>
  <g data-id="013">
    <path d="m7435 4513.1l0 0l-0.3 4.7l0.9 2.9l7.2 5.6l25.5 10.1l9.7 4.8l6.8 4.1l16.5 12.5l7.7 0.8l17.6 -0.9l21.4 -5.4l4.2 1.2l3 1.7l3.3 3.9l4.6 9.5l3.9 11.5l0.7 5.9l0.1 15.6l4.7 8.9l11.2 11.3l2.4 1.2l16.6 -0.6l31.4 -3.1l3.4 -1.1l6.7 -6.4l2.9 -0.6l13.5 1.4l7.3 2l8.8 3.7l3.1 4.2l2.8 5.6l1.7 4.1l3.2 11.8l5.8 9.2l5.8 6.9l22.6 22.7l5.5 6.1l11.4 12.6l3.1 7.8l4.3 14.3l0.1 9.6l1.1 3.4l7.3 6.5l8.9 1.1l6.6 -0.8l25.2 -11.4l2.7 -2.3l2.1 -3.1l8.1 -16.1l3.4 -13.3l0.5 -9.5l-0.9 -11.5l1.5 -8.4l3.6 -13.9l1.5 -4l8 -15.5l2.8 -2.3l17.7 -4.7l8.6 1.9l25.3 13.2l22.4 15.4l9.9 0.9l24.1 -6.6l4.1 -1.6l11.5 -4.4l9.9 -5.8l4 -4.5l6 -9l7.8 -26.2l0.7 -10.3l-5.5 -2.5l-4.1 -2.1l-3.1 -1.7l-2.5 -2l-2.6 -4.4l-1.9 -7.6l2.4 -4.7l1.2 -1l13.6 -3.3l15.7 0l2.3 -3.1l-3.3 -17.9l1.7 -5.5l2.4 -2.7l10.7 -1.9l18.6 -1.1l5.6 2.9l9.5 7.7l6.9 2.3l5.5 0.4l2.2 -3.2l-0.2 -7.3l-1.8 -6.3l-1.9 -2.6l-0.7 -2.1l-0.1 -1.4l1.6 -1.8l18 1.8l24.2 7.2l10 4.6l7.6 2.5l13.6 -6.7l6.9 -13.4l2.1 -2.3l5 0.5l3.5 1.6l0.4 2.5l-0.7 4.2l0.5 4.1l0.8 1.8l2.1 1.8l16.7 -6.9l8.1 -7.8l0.7 -1.6l0.4 -4.7l-0.4 -7.6l1.2 -4.9l3.6 -2.5l2.5 -0.9l3.1 0l5.4 3.5l3.8 7.2l10.3 4.1l24 -0.9l8.5 -3.9l3.5 -2.5l5.4 -12.6l1.5 -6.3l0 -5.1l-0.4 -2.3l-1.4 -2.8l-0.4 -3.2l1.2 -3.1l1.1 -0.4l14.6 4.7l7.9 3.7l12.4 7.8l14 10.5l6.8 6l7.2 4.5l25.5 11.5l11.2 10.5l4.9 5.9l2.2 2.6l4.4 3.5l2.9 1.2l6.5 0.7l4.3 -1.3l6.4 -3.8l2.3 -2.5l1.7 -3.1l0.4 -2.3l-0.6 -5.6l-1.3 -3.2l-1.2 -6.6l0 -1.7l1.2 -2.6l18 -4l5 0.1l12.8 5l2.3 1.9l13.6 15.7l3.5 1.8l1.4 0l9.9 -5.8l6.5 -3l4.3 -5.5l0.9 -3.5l-4.6 -16.1l-3.9 -4.2l-1.2 -2.9l-50.5 4l-41.1 -5.7l-24.2 -18.5l-8.2 -26.1l-12.3 -13.8l-47 -13.1l-19.2 -23l-3.1 -9.5l-0.2 -249.1l-13.6 -5.7l-4.3 -27l-44.5 -11.9l-129.5 -0.4l-170.5 -0.2l-185.4 -0.1l-54 -0l0.1 60.5l-153.4 -0.1l22.9 34.9l6.3 22.9l15 12.8l-31.5 37.1l1 23.9l-10.9 19.9l-12.2 -13.9l-12.7 12.5l-24.1 -1.4l10.9 25.5l24.9 26.8l10.5 -4.1l9.7 14.3l-21.9 28.6l15.5 50.3l-7 18.9l0.7 0.1l2.9 4.9l0.1 3.3l-2.5 6.6l-3.1 5l-8.4 7.8l-5.1 3.2l-12 5.3l-15.7 17.5l-4.2 5.8l-0.9 2.2z" />
  </g>
  <g data-id="015">
    <path d="m5109.1 2224.6l0 0l-0.3 371.9l6.5 0l-3.5 152.4l0.3 24.7l1.2 320.5l86.9 -0.2l184.5 -0.1l343.7 0.3l-0.6 -41.3l0.1 -144.2l0.3 -147.3l1.7 -164.2l-5.5 -248.7l-238.9 0.7l-6.5 0l0 -199.2l-2.3 -50.1l-5.8 -0.3l-85.1 0.1l-276.4 -0.2l-0.1 22l-0.1 103.2z" />
  </g>
  <g data-id="017">
    <path d="m5470.8 1850.2l0 0l0.2 20.8l-0.1 228.5l5.8 0.3l2.3 50.1l-0 199.2l6.5 -0l238.9 -0.7l91.7 -0.2l12.9 25.1l7.8 -3.4l52 23.9l9.7 -14.8l-0.3 -26.5l17.3 2.2l13.3 28.4l22.5 0.1l-1.8 11.5l22.2 -5.2l24.8 -18.3l7 24.2l27 13.7l5.8 1.4l25.1 -9.3l17.7 11.6l26.5 -18.5l9.1 7.6l28.2 23.7l36.3 -1.8l40.3 -15.7l0.1 -2.3l0.2 -56.7l-0 -41.7l-0 -41.8l-0 -35.4l0.1 -12.9l-0 -3.1l-0.1 -21.1l0.3 -30.6l0 -10.7l0 -21.8l0 -10.2l-3.3 -20.1l-0 -62.6l0 -41.8l-0 -146.5l-124.3 0.4l-208.2 -0.5l-41.7 0.8l-83 0.1l-164.7 0.4l-124 -0.1z" />
  </g>
  <g data-id="019">
    <path d="m6346.7 4059.8l0 0l0 126.8l2.2 16.7l689.7 0.1l1.4 -143.2l40.5 0.1l0.2 -226l-111.1 0l-2.4 -3.2l-11.6 -5.1l-2.3 -4.6l8.4 -8.5l1.9 -35.5l-18 -3.7l-353.5 -1l0.1 -184.7l-245.3 -0.4l-0.1 124.1l-0.2 183.9l-0 164.1z" />
  </g>
  <g data-id="021">
    <path d="m9009 1571.5l0 0l-1 21.4l27.8 38.6l29.4 6.5l5.8 15.2l-4.6 15.8l-25.3 24.8l-14.6 29.8l161.6 0.7l0.1 20.6l-0.1 3.5l-0.3 225.7l133.8 0.7l111.3 -0.3l128.4 0l-0 -377.2l11.8 0l-0.1 -108.2l-0 -267.6l-249.7 -0.6l-125.1 0.3l0.1 125.8l-18.4 -0l-86.1 -0.2l-0.5 50.3l-19.8 0l-0.1 44.2l-15.1 30.6l-16 0.2l-30.9 34.2l10.3 24l0.7 26l-13.3 15.1z" />
  </g>
  <g data-id="023">
    <path d="m8179.6 4082.5l0 0l44.5 11.9l4.3 27l13.6 5.7l0.2 249.1l3.1 9.5l19.2 23l47 13.1l12.3 13.8l8.2 26.1l24.2 18.5l41.1 5.7l50.5 -4l-0.8 -2l0.8 -12.7l4.2 -10.1l2.3 -2.8l10.5 -4.4l11.5 -0.3l10.6 3.2l17.4 12.1l3.1 0.8l16.2 -0.9l14.2 -7l9.2 -9.8l8.1 -12.1l5.4 -3.2l6.4 -1.3l14.6 4.4l12 -0.9l38.9 -28.9l4.6 -9.9l16 -0.3l26.3 3.2l2.8 0.9l1.9 1.9l2.9 4.4l6.7 17.5l2.3 9.3l-0.4 9.3l-3.3 9.7l0.3 8.4l4.4 8l3.6 3.4l6.3 0.5l7.6 -1.8l9.3 -6.1l6 -5.4l5.6 -2.5l6.1 1.4l4.5 5.4l-0.3 10.8l0.5 3.1l4.4 2.3l12 -0.1l15.7 -6.3l10 -9.6l5.9 -0.8l2.4 1.1l1.6 3.1l-3.2 14.5l1 1.5l18.6 4.9l46.2 3.6l38 -2.7l26.7 0.6l15.4 -1.5l5 -11.2l0.4 -12.6l1.2 -0.7l9.2 0.8l18.8 7.6l17.1 6.9l8.1 0.6l5.2 -3.9l2.1 -7.2l0.2 -6.6l1.4 -12.8l0.7 -3.3l2.2 -2.5l2.9 -1.2l3.3 -0.4l10.1 3.9l3.3 -1l6.2 -4.1l3.1 -3.5l2.6 -10.8l0.2 -5.6l-0.7 -9.9l-2 -4.3l-0.7 -3.5l0.8 -5.5l26.2 -38.1l4.8 -1.7l8.2 0.5l41.2 15.8l17.9 12.3l2.4 2.6l6.5 3l6.1 0.8l-0.7 -309.7l-668.8 0.4l-0.3 0.4l-57.6 -0.3l-162.9 0.1l-84.7 -0.3z" />
  </g>
  <g data-id="025">
    <path d="m0 692.7l0 0l0.2 38l877.3 0l6.4 -0.5l96.3 0.5l43.2 0l3.9 -0.5l104.7 0.1l0.2 -507l4.6 -5.6l0 -204.4l-16.4 0.1l-14.3 -0l-151.4 -0.7l-28.1 -0.2l-61.2 -1l-110.2 -0.2l-0.1 -0.1l-399.9 -0.8l-51.2 -3.7l-20.8 -1.2l-21.8 -1l-24.8 -0.4l-20.2 -0.4l-29 0.2l-160.6 1.5l-7.2 -0l-1.4 0.1l-17.8 -2.3l-0.1 129.2l0.3 2.9l-0.3 277.1l-0.4 64.4l0.3 84.3l0.1 21l-0.4 110.6z" />
  </g>
  <g data-id="027">
    <path d="m6219.8 2349.3l0 0l-0.2 56.7l22.2 5.9l40.5 40.3l21.9 2.7l23.3 2.2l23 15.9l5.3 41l-13.7 20.8l5 18.3l24.2 29.2l32.1 17.3l81.9 59.1l6.5 19.4l36.4 12.7l5.1 30l0.7 43.9l39.4 1.6l16.5 12.2l4.3 36.4l-8.8 24.8l18.8 61.9l-7.3 6.9l7.8 30.5l39.4 14.3l9.4 -15.1l30.1 2.3l14.3 25l33.7 5l5.6 13.9l11.7 -17.3l22.7 6.3l2.6 16.5l48.6 -4.5l14.2 4.6l0.3 -123.4l0.1 -123.9l-0 -62l-0.1 -66.9l0.2 -201.6l-0.1 -62.4l-184.4 -0.7l-20.6 0.1l-123.4 -0l-20.6 0.1l-21 -0.1l-20.7 0l-31 0.1l-20.7 0.1l-27 0.1l-24.7 0l-11 -0l-112.4 -0z" />
  </g>
  <g data-id="029">
    <path d="m7570.2 3590l0 0l0.1 121.4l49.1 0l21.8 1.7l53.3 -0l305.9 -0.4l-0.3 -123.7l61.5 -0.1l0.7 -11.1l-0.1 -236l0 -123.4l-366.9 -0.2l0.1 124.3l-123.5 -0.1l0.1 247.3l-2.1 0.2z" />
  </g>
  <g data-id="031">
    <path d="m4872.6 3093.4l0 0l0.1 370.6l-0.1 123.3l164 -0.1l27.5 0l0 143.6l61.2 -0.3l-0 -20.5l122 0.2l0 -41l243.9 0.5l0 -20.5l60.3 -0.3l0.1 -61.4l119 0.2l0.4 -246.8l61.5 0.1l0.1 -226.6l-4.2 -20.2l-343.7 -0.3l-184.5 0.1l-86.9 0.2l-240.7 -0.7z" />
  </g>
  <g data-id="033">
    <path d="m5064.1 3730.7l0 0l-0.1 102.5l61.1 -0.4l-0.6 249.3l1.5 -0.6l5.7 -3.8l4.9 -0.5l26.4 16.4l5.5 5.5l14.3 16.8l1.9 7l9 12.6l17.1 16.9l6.6 10.6l2.8 6.9l28 31.8l20.8 13.8l5 0.5l8.1 -2.8l30.4 -12.9l3.1 -2.8l0.7 -2l0.2 -3.5l2.2 -4l1.1 -1.4l3.2 -1.6l9.3 -1.8l4.3 0.1l3.8 1l2.5 1.8l1 0.7l2.6 0.8l2.5 -0.8l4 -2.9l17.1 -21l1.6 -6.5l0.3 -23.7l-2.7 -0.5l-0.6 -0.6l2.9 -8.8l16.4 -25.2l3.7 -4.4l16 -9.5l4 -1.3l45 8.6l3.3 1.8l4.5 4.7l21.6 16.7l7.4 2.2l15.8 3.2l27.8 1.8l9.9 -1.7l8.1 -3.4l18.4 8.3l2 3l8.3 4.6l14.9 5.8l4.2 1.3l10.1 1.5l26.1 2.2l13.7 -8.9l3.6 -3.2l13.5 -19.2l4.4 -7.7l-0.3 -208.8l0.1 -143.5l-0.1 -160.5l-3.4 -3.1l-119 -0.2l-0.1 61.4l-60.3 0.3l-0 20.5l-243.9 -0.5l-0 41l-122 -0.2l0 20.5l-61.2 0.3z" />
  </g>
  <g data-id="035">
    <path d="m8832.7 86.8l0 0l0.2 502.8l120.4 -0.1l0.2 126.9l167.2 -0.1l208.9 0.6l0 -127.5l7.3 -106.1l0.3 -397.2l6.7 -9.8l-33.7 -15.9l-9.9 -17l-4 -31.8l30.9 -7.7l-4.4 -0l-22 0l-8.8 0l-13.6 -0.1l-28 0.1l-56.7 -0l-38.6 -0l-0.2 -0l-4.2 0l-21.4 0l-21 -0.1l-148.5 0.3l-6.4 -0l-0.3 -0l-3.4 -0l-89.1 0.2l-0.3 82.6l-27.9 -0.1z" />
  </g>
  <g data-id="037">
    <path d="m7444.7 1223.7l0 0l0.1 289.6l0.3 25.5l0.5 435.1l499.4 -0.1l0.2 -313.3l59.3 -0.3l64.7 0.1l61.8 0.5l-0.1 -21.1l4.3 -42.7l0.1 -62.8l-0.1 -62.9l0 -62.9l-0 -20.9l-0 -41.8l-51.9 -0.3l-31.5 -0l-87.7 -0.2l-141.8 -0.1l-0.1 -124.9l-120.1 -1.4l-254.8 -0.5l-2.6 5.2z" />
  </g>
  <g data-id="039">
    <path d="m4231.2 1725.1l0 0l-1.4 374.1l15.1 0l-0 61.5l-0.1 62.3l371 0.2l493.4 1.4l0.1 -103.2l0.1 -22l-10.4 -0l-0.1 -20.7l0.4 -256.5l-0.2 -97.4l-82.5 -0.2l-7.5 0.9l-777.9 -0.4z" />
  </g>
  <g data-id="041">
    <path d="m9323.2 1137.5l0 0l0 83.5l249.7 0.6l273.5 -0.7l-3.3 -23.9l-1.1 -7.7l-5.4 -39.2l-0 -0.1l-0.6 -4l-3 -23.5l-0.6 -4l-0.2 -1.4l-1.1 -9.2l-2.2 -13.7l0 -0.8l-8 -59.4l-1.7 -12.8l-6 -47.1l-2.4 -19.2l-7.4 -60.6l-2.6 -21.1l-0.7 -4.6l-3.2 -24.2l-7.2 -57.4l-2.6 -21.4l-1.7 -12.7l-3 -20.9l0 -22.6l-0 -4.1l-0.1 -23.9l0.2 -2.6l-0 -1.3l0.1 -46.1l0 -13.1l-0 -31.1l-0 -11.2l0.1 -8.4l-0.2 -80.4l-183.1 0.2l-8.5 -4.1l-68.3 0.1l-185 -0.1l-7.3 106.1l-0 127.5l-0.2 335.7l-0 41.6l-6.2 22l-0.1 21.3z" />
  </g>
  <g data-id="043">
    <path d="m4223.9 1217.4l0 0l1.2 218.5l-0.1 164.4l6.1 124.7l777.9 0.4l7.5 -0.9l82.5 0.2l-0.1 -124.4l-5.6 -383.9l-372.1 4.8l-497.3 -3.9z" />
  </g>
  <g data-id="045">
    <path d="m3499.3 595.8l0 0l-0.7 135.9l3.9 -0l0 642.6l0 251.9l33 -11.3l14.6 -16.2l40.2 -19.6l22.8 -33.2l-8.1 -26.3l5 -16.8l23.3 -30.6l15.1 0.1l23.8 -22.9l19.9 -4.5l33.3 9.7l8.3 41l-6.6 16.2l-2.7 45.3l10.3 26.3l26 20.5l3.6 11.9l17.5 10.6l17.1 -1.8l34.2 32l45.8 12.6l28.7 1.3l38.9 11.6l21 -19.9l50.5 -14.5l10.3 -49.3l40 -36.8l22.7 -76.3l21.4 -10.1l28.8 -28.1l35.8 -9.6l48 -1.4l-1.2 -218.5l-249.7 0.3l0.3 -119.5l-10.5 0.1l-0.7 -462.1l-0.2 -39.7l-463.9 -0.7z" />
  </g>
  <g data-id="047">
    <path d="m5714.7 595.4l0 0l-0.2 189.4l0.6 431.8l291.9 0.4l207.8 -0l250.6 0.3l-0.9 -621.9l-1 0l-540.9 0.1l-207.9 -0z" />
  </g>
  <g data-id="049">
    <path d="m6223.6 3093.8l0 0l-0.4 246.9l123.3 0.3l0 5l-0.1 159.4l-0.3 77.1l0.9 5.2l245.3 0.4l242.8 0.4l-5.6 -8l-1.8 -1.6l-3.2 -5l1.4 -1.4l4.4 -0.7l4.2 -1.7l0.7 -2.6l-24.6 -13.3l8.6 -28.7l-21.6 -29l10.5 -23.7l-26 -11.1l-12.5 -37.9l67.3 0.2l-0.4 -20.6l245.4 0.4l-0.1 -247.7l-0 -61.4l-412.9 -1l-219.1 -0.2l-226.3 0.2z" />
  </g>
  <g data-id="051">
    <path d="m5724.4 2348.4l0 0l5.5 248.7l-1.7 164.2l-0.3 147.3l-0.1 144.2l0.6 41.3l4.2 20.2l-0.1 226.6l19.9 -0.3l40.9 -0.3l174.2 -0.1l255.8 0.3l0.4 -246.9l-3 -3.7l0.1 -99.7l0.1 -331.3l-0.4 -186.6l-0.1 -59.9l-0.8 -4.3l-40.3 15.7l-36.3 1.8l-28.2 -23.7l-9.1 -7.6l-26.5 18.5l-17.7 -11.6l-25.1 9.3l-5.8 -1.4l-27 -13.7l-7 -24.2l-24.8 18.3l-22.2 5.2l1.8 -11.5l-22.5 -0.1l-13.3 -28.4l-17.3 -2.2l0.3 26.5l-9.7 14.8l-52 -23.9l-7.8 3.4l-12.9 -25.1l-91.7 0.2z" />
  </g>
  <g data-id="053">
    <path d="m5705.7 6l0 0l0.6 81.9l2.2 0l6.2 507.5l207.9 0l540.9 -0.1l0.3 -252.7l-0.1 -337.5l-12.3 -0.1l-63.5 -0l-21.7 0.1l-0.7 -0.1l-21 0.1l-49 0l-35.7 -0.6l-15.6 0.1l-54.4 0.3l-83.5 0.1l-17.2 -0.3l-0.1 0.2l-21.9 0.2l-0 0l-270.3 0.5l-6.9 0l-6.4 0l-77.8 0.3z" />
  </g>
  <g data-id="055">
    <path d="m3633 2844.6l0 0l0.2 122.9l183.6 -0.2l9.2 123.9l3.8 -0.1l-0.1 125.9l41.1 0.1l0.1 20.8l20.5 0l0.3 41.4l284.3 -0.7l-22.6 -7.4l6.5 -8.8l-0.3 -46.4l36.9 0.2l-0.1 -62.5l181.4 0.4l4.5 -13.3l-11.6 -20.6l-25.1 -4l-5 -13.6l-28 -12.3l-12.9 -19.7l1.7 -20.1l28.7 -0.9l2.1 -22.9l-10.3 -30.9l-37.8 -29.4l-4.1 -39.9l-16.1 -15l15.2 -7.4l0.7 -4l-0.5 -3.9l-1.8 -5.2l1.1 -3.5l2.6 -10.3l0.8 -4.3l4.3 -2.2l2.3 -5.4l0.1 -4.7l-1.7 -3.6l0.4 -28.8l-26.1 -2.9l-17.6 -23.4l-3.6 -39.5l-35.2 -9.9l-12.5 -28.1l-35.8 7.7l-0.8 -10.6l-399.1 -0.3l-0.3 123.5l-123.2 -0.2z" />
  </g>
  <g data-id="057">
    <path d="m3502.6 2844.4l0 0l0 403.8l0 0.1l0 263.6l3.4 0.1l13.6 0.5l12.9 -1.8l3.7 -1.2l6.9 -5.2l7.8 -7.7l1.6 -2l-0 -2.1l1 -3.3l2.5 -2.4l10.3 -1.5l19.1 3.6l7.1 3.1l1.6 6.1l7 6.1l19.6 14.4l3.4 0.4l2.6 1.9l7.7 7.3l14.9 16.9l1.3 2.5l1 4.6l4 6.3l18.5 22.7l9.8 6.8l207.8 -0.5l-0.4 -308.2l-0.3 -41.4l-20.5 -0l-0.1 -20.8l-41.1 -0.1l0.1 -125.9l-3.8 0.1l-9.2 -123.9l-183.6 0.2l-0.2 -122.9l-130.4 -0.2z" />
  </g>
  <g data-id="059">
    <path d="m3500 0.7l0 0l-0.7 595.1l463.9 0.7l42.3 -0.3l319.7 -3.2l0.1 -326.6l-25.9 -33.2l3.7 -20.2l-69.9 -34.1l-27.9 -61.2l-26.2 -28.6l-26.7 -79.4l-14.9 -5.8l-32.8 -0.2l-18.7 0.1l0 -0.1l-2.6 -0l-1.7 -0l-5.2 -0l-38 0.1l-19.8 0.1l-78.6 -0.2l-27.1 0.1l-10.5 -0.9l-136 -0.9l-0.7 -0l-13.1 -0.1l-104.3 -1.1l-139.8 0l-7.1 -0.1l-1.5 -0z" />
  </g>
  <g data-id="061">
    <path d="m8810.5 2598.5l0 0l-4.9 60.3l71.5 0.5l51.7 -0.1l0.1 48.9l0 96.3l491.6 0.3l-0.1 -205.9l132.6 0.4l0.8 -172.9l-16.1 -20.1l-1.8 -34.5l-18.9 -13.2l-24.2 20.3l-42.1 14.1l-17.1 -2.9l1.5 -14.2l24 -20.7l2.8 -16.1l-11.1 -19.5l-27.9 7.3l-22 -13.8l-69.7 -15.8l-23.2 -25.7l-0.8 -31.1l-29.2 -8.3l-22.1 14.3l-13 22.8l-7.1 38.8l-18.4 11.9l-25 36.2l-18.6 -11l-25.1 15.2l22.7 19.7l-10.7 13.9l-28.5 -6.7l-8.9 19.6l14.1 38.3l-7 12.5l-26.5 -3.2l-7.2 20.3l-20.1 25.3l-21.1 13.4l-25 -9.6l-30.6 -37.4l-27.3 -10.7l-38.4 13.7l-53.2 -49.2l-24.4 5.9l-18.6 25.6l-28.2 13.5l0.6 133.2z" />
  </g>
  <g data-id="063">
    <path d="m7597.6 2722.6l0 0l-0.4 292.4l35.9 -8.3l41.2 18.1l18.7 -38.4l2.9 31.7l0 14.6l-0.4 185.5l366.9 0.2l0.1 -123.7l3.5 -277.9l22.9 -9.7l7.6 -44.9l27.4 -27.9l10.8 -18.1l22.9 4.1l-3.8 -34.7l34.9 -13.9l2.7 -197.6l-62 0.1l-474.7 -0.5l-0 248.9l-57.2 -0.1z" />
  </g>
  <g data-id="065">
    <path d="m3684.3 3588.1l0 0l13.7 9.5l8.8 3.5l8.3 13.8l-0.6 4.1l5.2 12.4l24.1 31.6l12.5 13.5l8.5 0.2l11.8 9.5l0.9 1.5l-0.1 1.7l-3.2 4.8l0.5 1.9l15.2 13l15.6 9.2l12.3 5l11.8 7l4.5 4.9l1.5 2.9l1 4.1l-0.7 4.7l2.5 5.1l5.6 4.8l13.3 9.2l21.2 1.7l8.1 2.9l6.3 5l3.8 0.7l3.9 -1l6 -3l5.3 -4.8l21.9 5.5l7.8 3.4l28.2 -1.6l4.3 -3.5l10.2 -12.3l2.5 -4.3l1.1 -3.2l-0.9 -9.8l1 -13.5l5.2 -12.7l6.6 -2.3l5.4 -0.2l8.7 1.6l7.3 3.8l7.9 2.7l22.7 1.8l7.2 -1.1l7 -3.2l3.9 0.6l16.8 6.3l3.2 2.7l3.5 4.2l4.3 7.2l3.7 2.5l11.3 2.3l2.8 -0.1l4.8 -0.1l21.4 11.6l8.9 11.8l5 8.2l11.4 1l12.3 -10l13.5 10.9l2 0.2l4.9 -1.2l3.9 -2.3l2.7 -3.9l6.7 -39.2l-2.8 -13.6l-3 -2.9l-0.5 -2l-0.1 -7.5l2.4 -25.6l16.3 -21l6.6 -2.7l6.7 0.2l12.6 4l4.8 5.7l-0.2 3.1l-2.3 4.4l-0.4 2.3l0.5 3.9l7.4 7.2l10.6 8.5l8.5 5l6.3 7.3l5.2 11.2l5.4 7.9l1.5 0.8l2.3 0.1l9.4 -2.6l10.7 -6l5.2 -1.6l5.5 0.9l30 13.6l3.3 2.3l2.7 17.3l-2.6 2.4l-3.9 2.1l-11 0.7l-1.6 1.4l0.5 2.4l4.3 4.7l14.7 12.7l4.6 0.3l3.9 -3.8l2.8 -1.3l7 4.7l6.7 14.1l3.5 13.1l1.1 13.2l0.8 2.4l3 2.6l4.5 1.1l4.9 -0.4l2.6 -1.9l2.8 -0.2l4.9 1.6l2.8 5.7l14.5 -4.7l6.5 -21.5l-17.4 -27.4l-14.1 -0.1l12.3 -20.2l-5.5 -8.6l-16.8 10.7l1.9 -19.9l-9.9 0.3l-3.4 -33.9l11.7 7.7l5.9 -18.8l-5.9 -26.9l17.1 -6.1l-9.1 -11.3l0.5 -42.9l12.4 -10.2l15.5 -57.7l22 3.2l-7.6 -31.5l24.7 -36.4l36.3 -5.7l12.2 5.9l25.8 -8.8l19.6 4.6l-6.5 -34.6l10.7 -5.3l-27.9 -26.9l9.1 -43.9l59.9 -11.4l7.9 -13.8l-17.8 -21.1l-53.7 9l-59 -10.1l-11.2 -11.3l4.7 -19.4l-21.4 -44.4l24.5 -7.3l-15.8 -18.8l3.5 -27.6l15.9 -7.3l-5.5 -41.9l10.8 -2.5l-0.1 -28.6l-17 2.6l-26.6 -16.8l-36.3 47.5l-39 5.8l-4.5 13.3l-181.4 -0.4l0.1 62.5l-36.9 -0.2l0.3 46.4l-6.5 8.8l22.6 7.4l-284.3 0.7l0.4 308.2l-207.8 0.5z" />
  </g>
  <g data-id="067">
    <path d="m5673.9 3894.9l0 0l0.3 208.8l2.6 -4.5l6.9 -7.8l8.7 -5.7l10.3 -0.3l5.9 0.9l2.8 2.2l6 8l13.7 23.5l0.5 2.8l-1.1 8.8l-2.1 7.1l-3.1 8.1l-4.9 9.7l-5.8 8.6l-17.6 19.3l-1.9 4.5l1 12.9l2.5 7.1l4 6.7l18.1 19.2l3.4 5.7l-0.4 5.1l-0.9 2.8l-0.9 1l-4.7 1.3l-2.3 1.5l-1.7 3.3l0 3.6l2.2 3l18 33.4l3.4 3.1l2.8 1.2l32.2 9.2l16.4 3.4l15.7 0.1l9.6 -0.6l16.1 -3l21.3 -5.4l5.3 -3l5.3 -4.8l4.7 -1.9l2.9 1.8l3.9 6.9l6.2 8.9l5.5 4.8l2.9 1l3.7 0l6 -1.3l1.3 0.5l0.9 1.3l-0.3 2l-12.8 42.1l-4 9.2l-6.3 6.4l-8.1 4l-1.8 2.4l0.1 3.6l1.8 3.3l1.5 1.1l6.1 1.3l2.9 -0.1l9.2 -2.7l1.2 0.6l1.3 1.9l0.8 9.8l-1.2 7.2l-4 13.9l-4 5.8l-4.5 4.2l-6.3 2l-3.8 -2.8l-4.5 -6.4l-2.1 0l-1.4 1.6l-4.2 10.4l-1.2 4.6l-0 2.3l0.9 2.6l6.9 10.2l0.1 0.1l4.2 4.6l7.5 5.9l10.9 4.6l8.4 1.1l5.5 -0.6l4.4 -1.4l4.6 -0.1l2.4 1l36.5 22l10.2 7.8l22.6 10.9l6.9 1.7l6.6 -0.6l36.7 -11.6l33.7 -27.4l2.3 -4.2l2.2 -7l19.7 -7.7l4.7 -6.9l1.1 -5.2l-0.8 -7.9l-3.9 -8.1l12.9 -5.4l8.4 1.2l2 -1l4.1 -4.2l1 -2.3l-0.5 -9l-3.3 -7.9l-0.1 -5l11.4 -3.7l16.9 -0.5l2.2 1.2l3.3 0.3l1.7 -0.4l8.1 -6.1l9.9 -9.3l8.3 -10.3l6.4 -11.7l7.3 -19.7l5.6 -9l5.9 -4.1l19 -6.7l12 0.8l6.2 1.9l26.2 11.6l28.8 18.5l22.7 20.5l0.9 2.4l-3.1 33.3l-4.2 7.4l-1.2 1.2l-1 2.6l-0.2 3.3l1 5.8l8.2 13.8l2.1 2l5.5 2.4l25.2 4.6l0.3 -121.5l28.1 0.1l-28.1 -26.9l0.1 -95.9l-2.2 -16.7l0 -126.8l0 -164.1l-489.5 0.1l-183.2 -0.9z" />
  </g>
  <g data-id="069">
    <path d="m7080.7 3834.3l0 0l-0.2 226l307.7 0.4l18.9 15.3l13.8 -9.6l25.8 9.9l15.1 30.1l28.7 20.5l-3.6 15.3l153.4 0.1l-0.1 -60.5l54 0l0.4 -368.7l-53.3 0l-21.8 -1.7l-49.1 -0l-0.1 -121.4l-365.7 -0.8l-62.4 -0.1l-0.2 244.8l-61.2 0.4z" />
  </g>
  <g data-id="071">
    <path d="m6463.8 342.6l0 0l-0.3 252.7l1 -0l375.9 -0.6l95.7 0.6l14.9 -13.2l-9.7 -59.9l-10.5 -9.9l-2.5 -48.7l39 -25.3l7.6 11.9l24.7 -0.1l12.8 8.5l27.9 -1.5l20.9 7.2l21.3 -3.6l12.9 -45.1l15.7 -27.3l21 -22.4l27 -2.5l37.6 13.8l14.5 -9.6l-1.1 -25.5l39.5 -0.1l0 -21l42.3 -0.1l2.7 -232.2l0.2 -84.2l-49.3 -0.3l-3.7 0.5l-32.2 -0.5l-52.2 -0.1l-10.2 -0l-30.1 0.1l-1.7 0l-15.8 -0.1l-5.6 0l-3.9 0l-10.9 0.1l-38.2 0l-9.6 0.1l-63.6 0.1l-11.3 -0.1l-71 0l-4.2 -0l-18.7 0l-2.7 -0l-29.3 -0.1l-178.6 0.2l-83.6 0.1l-14.6 0l-90.2 0.2l-0.1 -0l0.1 337.5z" />
  </g>
  <g data-id="073">
    <path d="m5590.7 1216.6l0 0l4.3 384.2l-0.1 82.9l-0.2 166.7l164.7 -0.4l83 -0.1l41.7 -0.8l208.2 0.5l124.3 -0.4l-0.4 -194.3l-1.4 -438l-207.8 0l-291.9 -0.4l-124.4 -0z" />
  </g>
  <g data-id="075">
    <path d="m4193.3 2721.7l0 0l-1.1 2.8l12.5 28.1l35.2 9.9l3.6 39.5l17.6 23.4l26.1 2.9l-0.4 28.8l1.7 3.6l-0.1 4.7l-2.3 5.4l-4.3 2.2l-0.8 4.3l-2.6 10.3l-1.1 3.5l1.8 5.2l0.5 3.9l-0.7 4l-15.2 7.4l16.1 15l4.1 39.9l37.8 29.4l10.3 30.9l-2.1 22.9l-28.7 0.9l-1.7 20.1l12.9 19.7l28 12.3l5 13.6l25.1 4l11.6 20.6l39 -5.8l36.3 -47.5l26.6 16.8l17 -2.6l0.1 28.6l-10.8 2.5l5.5 41.9l-15.9 7.3l-3.5 27.6l15.8 18.8l-24.5 7.3l21.4 44.4l-4.7 19.4l11.2 11.3l59 10.1l53.7 -9l17.8 21.1l-7.9 13.8l-59.9 11.4l-9.1 43.9l119.1 0.1l-0.1 61.7l204.3 -0.1l-0.1 -370.6l240.7 0.7l-1.2 -320.5l-0.3 -24.7l-10.4 -27.1l-11.6 -9.2l-12.3 11.4l-0.6 -13l-24.9 7l-3.2 14.3l-24.9 -4.2l-18.8 10.2l-5 -12.2l-16 1.7l-4.9 14.7l-18.3 -20.7l-362 -0.4l-349.5 -0.2l-56.1 0.4z" />
  </g>
  <g data-id="077">
    <path d="m8744.3 3094.1l0 0l-8.2 246.8l530.7 0.6l-0.4 -82.6l0.5 -164.9l72 -0.1l-0.4 -123.9l82.2 -0.1l-0 -101.5l-0.2 -63.8l-491.6 -0.3l-0.2 41.6l-184.6 0.1l0.2 248z" />
  </g>
  <g data-id="079">
    <path d="m9266.5 3259l0 0l0.4 82.6l142.2 -0.2l0.2 246.7l5.7 0.5l550.2 -1.4l1.3 -53.5l0 -3.7l3 -123.4l-0 -11.4l2 -71.7l1.4 -50.4l4 -140.1l1.1 -39.6l0.1 -4.7l0.1 -3.8l0.5 -19.8l0.7 -21.8l-0 -5.1l-0.2 -2.4l1.6 -54.2l1.9 -63l3.5 -120.1l2.4 -81.6l0.6 -13l1.2 -49.4l0.2 -8l0 -4l0.8 -21.9l-0.2 -9.1l-0 -5.3l0.7 -16.1l0.3 -3.4l0.8 -28.5l-0.2 -11.9l0.2 -4.2l1.1 -11.3l0.9 -30.3l0 -0.8l0.1 -3.5l0.5 -2.3l0 -16.6l0.1 -5.7l1.2 -21.4l2.7 -80.7l-0.2 -6.4l0.6 -3.1l-2.2 -9.6l0.9 -6.5l-1.2 -8.1l-14.3 9.1l-30.7 5.9l-16.8 15.9l7.2 18l-16.6 13.9l-0 18.2l15.9 29l-14.9 11.8l-26.9 -11.9l-19.3 7.4l-24.6 -8.4l-16.9 -22.1l-29.9 -3.3l-24.6 34.1l-37.4 18.4l-24.3 -5.4l-11.1 -14l-0.6 -19.5l-14 -16.4l-40.6 -28.4l-35.8 -10.2l-25.7 8.5l-18.6 34.1l-22.5 5.4l-0.8 172.9l-132.6 -0.4l0.1 205.9l0.2 63.8l0 101.5l-82.2 0.1l0.4 123.9l-72 0.1l-0.5 164.9z" />
  </g>
  <g data-id="081">
    <path d="m6838.5 1851.3l0 0l-0.5 373.7l205.7 0.6l397 1.2l4.9 -252.8l-0.5 -435.1l-606.1 -0.7l0 20.9l-0.6 292.2z" />
  </g>
  <g data-id="083">
    <path d="m6214.8 1216.9l0 0l1.4 438l0.4 194.3l41.5 0.1l124.4 0.4l20.8 0.1l62.5 0.3l103.8 0.1l145.2 0.7l0 -0.1l123.7 0.6l0.6 -292.2l-0 -20.9l-2.7 -17.6l-34.4 19l-36.4 -5.5l-20.5 -28.5l-25.6 -11l-37.5 -1.4l-12.3 -10.6l-10.2 -36.1l-33.9 -7.7l-34.6 36.8l-0.7 -5.9l-0.3 -244.9l0.2 -7.6l-124.7 -0.2l-250.6 -0.3z" />
  </g>
  <g data-id="085">
    <path d="m6348.6 4326l0 0l-0.3 121.5l3.4 0.6l3.8 -0.3l4 -0.9l9.7 -4.7l12.3 -7.4l8.7 -7.3l7.1 -2.7l21.2 -8.4l7.1 0.5l9.7 3.2l2.9 1.7l27.6 16.6l2.7 3.3l8.3 14.4l-0.6 28.8l-7.2 22.2l-2.3 2.5l-2.2 5.3l-1.6 10.9l4.4 10.1l7 8.5l10.3 6.7l20.7 6.1l18.8 0.8l43.7 -0.9l4.9 -2.8l3.8 -3.2l8.2 -8.8l11.9 -19.5l8.7 -23l1.8 -10.4l3.3 -7.3l4.2 -2.3l4.4 0l1.9 0.8l1.3 1.8l2.7 9.3l2.1 1.5l4.8 -0.3l2.7 -1l1.8 -1.6l8.1 -15.8l5.9 -2.8l3.8 0l5.9 5.3l9.6 11.1l8 5.6l4.4 1.9l4.5 0.9l17.4 -1l1.2 -0.6l1.6 -2.3l5.9 -13.7l3.5 -35.5l1.4 -3.9l3.3 -4.5l18.2 -11.8l18.2 -2l5.6 2.5l24.1 19.1l5.4 7.7l1.4 4.2l15.1 63.1l-0.2 9.7l-5.6 7.1l-11.4 5.6l-5.7 0.7l-8.7 -0.6l-2.5 0.7l-1.9 1.4l-2.6 3.5l-4.4 7.7l-1.7 4.1l-0.8 12.7l0.3 11.7l2.6 5.8l9.9 16.8l5.1 5.9l3 16.1l6.9 19.4l11.3 25.7l10.6 11.5l9.4 6.8l6.6 3.5l13.8 4.6l13.3 2.4l5.8 -0.3l9.1 -2.3l5.1 -2.1l5.1 -3.2l8.6 -7.3l3.6 -4.5l3.5 -5.8l5.7 -12.4l1.8 -12.9l0.1 -9.6l-0.7 -7.7l-3.1 -12.1l-7.1 -21l-1.5 -7.1l0.5 -6.2l3.1 -7.8l4.8 -6.5l11 -5.6l12.4 -2.4l23.1 -4.2l-0.9 -10.9l-10.4 -13.1l-29.9 -8.3l-8.2 -6.2l3.8 -12.1l22.4 -9.9l14.3 6.6l5.7 12.9l11.3 12.4l2.8 -0.7l17.5 -8.4l7 -8.3l37.7 -51.1l1.9 -7.8l-1.1 -18l-4.4 -19.1l-6.1 -14.8l-1.2 -4.3l-1.4 -13.6l1 -7.8l1.3 -2.7l4 -4.9l3.4 -2.8l7.6 -2.4l2.2 0.3l0.1 1.5l-1.6 4.7l-0.4 3.7l1.4 10.6l3.3 5.8l3.7 2.5l1.5 -0.1l23.6 -12.4l9 -6.5l11.5 -7.2l-0 -82.4l-40.8 -0.1l0.1 -81.7l-689.7 -0.1l-0.1 95.9l28.1 26.9l-28.1 -0.1z" />
  </g>
  <g data-id="087">
    <path d="m6219.6 2406l0 0l-0.1 2.3l0.8 4.3l0.1 59.9l0.4 186.6l-0.1 331.3l-0.1 99.7l3 3.7l226.3 -0.2l219.1 0.2l412.9 1l1.9 -4.4l0.3 -151.9l-30.9 19.1l-12.3 23.4l-33.1 27.9l-23.3 10.8l-42.6 -19.8l-22.5 2l-9.3 -12.9l-62 -8.1l-11.1 9.2l-14.2 -4.6l-48.6 4.5l-2.6 -16.5l-22.7 -6.3l-11.7 17.3l-5.6 -13.9l-33.7 -5l-14.3 -25l-30.1 -2.3l-9.4 15.1l-39.4 -14.3l-7.8 -30.5l7.3 -6.9l-18.8 -61.9l8.8 -24.8l-4.3 -36.4l-16.5 -12.2l-39.4 -1.6l-0.7 -43.9l-5.1 -30l-36.4 -12.7l-6.5 -19.4l-81.9 -59.1l-32.1 -17.3l-24.2 -29.2l-5 -18.3l13.7 -20.8l-5.3 -41l-23 -15.9l-23.3 -2.2l-21.9 -2.7l-40.5 -40.3l-22.2 -5.9z" />
  </g>
  <g data-id="089">
    <path d="m9153.8 4082.3l0 0l0.7 309.7l7.5 1l21.5 -0.8l7.4 3.2l4.1 4.7l-1.5 13.5l0.2 4.3l2.8 4l10.5 4l8.9 -0.9l3 2.1l2.7 3.2l4.1 7.2l-0.3 7.7l1.6 4.7l4.1 3.8l7.5 0l5.9 -7.2l8.9 -4.5l6.7 2.8l5.2 6l2.6 11.9l11.4 31.9l2.9 2.1l10.9 3.3l17.4 0.6l6.9 -2.2l9.4 -6.6l9.5 5l5.5 7.1l3.3 7l4.9 2l6 -0.5l1.9 -1.3l6.3 -10.6l3.3 -2.6l2.3 -0.6l3 1.7l3.5 17.6l1.7 16l7.8 2.8l9.5 13.1l1 10.8l5.1 8.3l5.5 2.3l4.4 0.2l4 -0.9l4.6 -2.3l4.6 -0.2l3.1 1.4l2.9 2.3l1.9 2.1l1.1 5.7l-0.2 4.4l-3.1 10.3l-0.6 6.4l0.6 4.6l9.6 11.1l6 0.3l4.6 2.7l16.2 12.7l2.5 3.7l5.6 -1.3l2.6 0.9l3.7 5.8l0.6 7.4l-1.8 4.6l2.8 4.3l6.3 4.6l23.3 8.8l8.9 0.2l12.6 -0.9l3.3 -1.8l2.2 -3.6l1.5 -7.6l3.3 -2.2l5.2 -1.8l6.3 0.4l3.3 3.6l12.3 6.7l10.4 -2.2l17.1 -12.5l4.8 0.9l3.3 1.3l1.9 3.6l0.4 4l-2.2 7.6l0.4 7.1l5.6 8l4.5 3.1l7.1 0l12.3 3.6l3.7 6.3l2.2 8.9l-1.9 8.5l1.7 5.8l0.5 1.8l5.6 6.3l4.8 0.9l3 -4l1.9 -4.5l2.6 -2.2l3.3 -1.3l4.8 1.3l4.5 2.2l1.9 8.5l-1.5 4.9l0 6.3l0.7 4.9l2.6 1.8l26.9 3.5l29.9 -10.9l8.1 1.6l3.1 4.1l1.4 4.9l0.7 5.8l-0.7 9.9l2.7 5.7l3.8 1.2l8.9 -2.1l5.5 -4.9l3.4 -6.2l7.5 -4.5l5.1 2.1l6.2 6.6l4.8 3.7l5.1 1.2l7.2 0l3.8 -3.7l3.8 -4.9l4.4 -2.1l8.2 1.9l3.1 5.9l4.8 4.9l3.4 4.9l0.7 4.1l-3.1 5.3l-0.3 3.7l1.7 2.9l2.4 0.4l4.8 -1.6l8.9 -1.2l5.8 4.5l1 4.5l-0.1 8l-2.6 3.5l1 5.3l4.1 3.3l6.2 0l5.8 -2.9l6.5 0.4l4.8 4.5l1 6.6l-1.7 3.3l1 7.8l3.1 3.7l6.5 3.7l18.8 -5.8l15.3 -6.2l4.7 -5.4l1.9 -12.5l0.3 -21.6l0.1 -14.1l1.2 -34.4l-0.1 -5.2l0.9 -27.7l-0 -7.6l1.2 -47.5l0 -0.3l0.1 -4l0.1 -3.7l1 -45.9l0.3 -9.4l0.2 -9.7l0 -0.3l0.9 -38.3l0.7 -29.7l1.1 -42l0.2 -0.4l1.7 -79.1l0.1 -4.5l0.3 -18.2l0.1 -5l2.4 -87.6l-0 -2.9l-0 -0.2l0 -0.1l5.4 -236.7l5.2 -229l0.5 -10.6l1.5 -61l0.4 -16.6l0.2 -7.2l2.9 -124.3l-550.2 1.4l-5.7 -0.5l-127.3 -0.6l0.2 372.6l-122.1 -0.3l-6.2 122.6z" />
  </g>
  <g data-id="091">
    <path d="m8191.5 2474.1l0 0l-2.7 197.6l24.8 -1.2l39.7 12.6l23.9 0.1l22.9 -17.4l20.7 -43.2l36.2 2.3l54.1 -18.4l28.9 26.1l14.6 2.6l16 -21.9l30.5 4.5l10.5 -18.5l38.2 -8.8l-9.7 -11.3l12.5 -15.6l51.3 -27.9l22.1 -3.6l2.8 20.3l-18.3 14.9l16.7 6.1l13.9 -4.3l27.5 -29.8l69.7 -31.1l-7.1 -19.1l21.8 -30.6l57.3 7l28.2 -13.5l18.6 -25.6l24.4 -5.9l53.2 49.2l-0.2 -250.2l-0.2 -120.2l-10.2 -0.6l-253.5 0.7l-62.3 -0l-43.8 -0l-59.5 -0.1l-127.6 0.2l-1.2 125.7l-60.9 0.5l-0.1 124.5l-99.4 -0.2l-23.9 -0l-0.1 124.3z" />
  </g>
  <g data-id="093">
    <path d="m4716 721.2l0 0l-0.6 377l5.7 23l0.1 100.2l372.1 -4.8l41.6 -1.3l455.8 1.3l124.4 0l-0.6 -431.8l-500.7 -0.2l0.1 95.2l-22.2 -6.9l-47.7 14.9l-37.2 -0.8l-86.5 -33.9l-11.4 -8.6l-20.5 -33.9l-59.4 -4.5l-35.1 -17.8l-13.6 -14.9l-28.2 -51.2l-136.1 -1z" />
  </g>
  <g data-id="095">
    <path d="m7038.5 4203.4l0 0l-0.1 81.7l40.8 0.1l0 82.4l3 -1.9l9.3 -4.9l2.5 -0.6l4.1 0.9l2.7 1.6l5.8 5.4l4.6 5.5l2.5 3.9l3.3 7.3l3.5 11.7l3.5 28.7l-0.8 14.6l1.7 9.2l14.8 39.9l9 10.6l10.3 10.3l12.1 7.9l6.4 0.4l5.5 -2.5l5 -5.5l0.9 -15.1l1.2 -6.7l2.8 -4.1l6.1 -4.9l22.6 3.1l21.6 5.3l12.6 7.5l3.4 4.8l1.1 3l2.8 13.7l0.5 8.7l7.1 17.4l1.5 3l3.7 2.8l5.4 1.5l8.8 -0.4l9.3 -1.5l39.2 -8.3l5 -2l4.3 -2.8l5.7 -5.7l10.3 -15.3l2.9 -6.5l4 -11.6l2.9 -15.4l0.1 -3.9l-1.6 -10.6l2.9 -16.8l6.6 -18.1l2.2 -4.4l3.3 -3.7l4 -2.8l3.2 -0.5l5.3 0.8l18.5 15l16.3 14.8l2.1 1.3l24.2 -0.4l17 -1.2l5.2 1l7 -18.9l-15.5 -50.3l21.9 -28.6l-9.7 -14.3l-10.5 4.1l-24.9 -26.8l-10.9 -25.5l24.1 1.4l12.7 -12.5l12.2 13.9l10.9 -19.9l-1 -23.9l31.5 -37.1l-15 -12.8l-6.3 -22.9l-22.9 -34.9l3.6 -15.3l-28.7 -20.5l-15.1 -30.1l-25.8 -9.9l-13.8 9.6l-18.9 -15.3l-307.7 -0.4l-40.5 -0.1l-1.4 143.2z" />
  </g>
  <g data-id="097">
    <path d="m8823.1 1097.7l0 0l-0 80.6l0 167.9l88.1 -0.1l182.6 0.8l86.1 0.2l18.4 0l-0.1 -125.8l125.1 -0.3l-0 -83.5l0.1 -21.3l6.2 -22l0 -41.6l0.2 -335.7l-208.9 -0.6l-167.2 0.1l-125.3 0.1l0 126.2l0.1 103.1l0 8l-0.1 140.7l-5.2 3.2z" />
  </g>
  <g data-id="099">
    <path d="m6592.3 3588.1l0 0l-0.1 184.7l353.5 1l18 3.7l-1.9 35.5l-8.4 8.5l2.3 4.6l11.6 5.1l2.4 3.2l111.1 -0l61.2 -0.4l0.2 -244.8l62.4 0.1l-0 -123.6l-122.7 -0.1l0.1 -61.7l-245.4 -0.4l0.4 20.6l-67.3 -0.2l12.5 37.9l26 11.1l-10.5 23.7l21.6 29l-8.6 28.7l24.6 13.3l-0.7 2.6l-4.2 1.7l-4.4 0.7l-1.4 1.4l3.2 5l1.8 1.6l5.6 8l-242.8 -0.4z" />
  </g>
  <g data-id="101">
    <path d="m8442.5 1661.5l0 0l-0.1 187.9l62 -0.1l0.1 249.8l59.5 0.1l43.8 0l62.3 0l253.5 -0.7l10.2 0.6l0.2 120.2l0.2 250.2l38.4 -13.7l27.3 10.7l30.6 37.4l25 9.6l21.1 -13.4l20.1 -25.3l7.2 -20.3l26.5 3.2l7 -12.5l-14.1 -38.3l8.9 -19.6l28.5 6.7l10.7 -13.9l-22.7 -19.7l25.1 -15.2l18.6 11l25 -36.2l18.4 -11.9l7.1 -38.8l13 -22.8l22.1 -14.3l-39.8 -2.2l-15.4 -37.9l-27.5 -27l-13.5 -29.4l6.1 -99.9l-0.3 -61.8l0.3 -225.7l0.1 -3.5l-0.1 -20.6l-161.6 -0.7l-25.2 0.1l-42.9 -0.3l-44.7 -13.2l-67.6 33.1l-66.9 -6.6l-47.4 16.4l-44.2 5.8l-8.2 1.1l-19.6 26.1l-12 6.2l-13.8 -18.2l-22.8 0.6l-19.6 -14.3l-2.5 -68.1l-11.6 -31.4l-135 0.5z" />
  </g>
  <g data-id="103">
    <path d="m6464.5 595.3l0 0l0.9 621.9l124.7 0.2l-0.2 7.6l249 -0.2l-0.4 -126.1l251.9 -0.1l0.2 -125.7l-125 -0l-0 -103.7l-0 -148l26.1 0l15.9 -32l20.1 -9l23.9 1.3l39.4 -26.5l25.7 1.7l17.1 -34.1l-28.9 -35l-9 -2.5l-32.8 15.5l-63.3 10.8l-38.5 -5.3l-25.1 -10.8l-95.7 -0.6l-375.9 0.6z" />
  </g>
  <g data-id="105">
    <path d="m8391.6 88l0 0l0.2 269.7l0.1 232l441.1 -0.1l-0.2 -502.8l27.9 0.1l0.3 -82.6l-0.1 0l-121.2 0l-12.6 -0.1l-14 -0.1l-45.7 0l-45 -0l-4.4 -0.1l-9.8 0l-6.7 0.1l-39.9 -0l-11.4 -0l-14.5 -0l-11.9 0.2l-16 -0.2l-5.3 0.1l-3.7 0l-27.8 0l-5.3 -0l-15.7 -0l-10.3 0.1l-21.1 -0.2l0.1 83.8l-27 0z" />
  </g>
  <g data-id="107">
    <path d="m7440.7 2226.8l0 0l1.4 88.8l28 5.4l16.3 -20.8l10.6 13.7l25.4 0.3l22.4 15.2l-1.7 -28.5l-27.6 -16.8l5.8 -17.2l-14.7 -5l17.3 -23.1l37.4 22.7l3.4 10.4l25.7 3.3l15.8 -15.7l-5.5 -13.3l17.1 -21.2l8.8 8.4l23.3 -0.9l5 -12.8l0.1 115.2l-0.1 138.9l474.7 0.5l62 -0.1l0.1 -124.3l-123.9 -0.1l-0.3 -251l-122.6 0.3l0.3 -125.1l-499.4 0.1l-4.9 252.8z" />
  </g>
  <g data-id="109">
    <path d="m6216.7 2037.4l0 0l0 62.6l3.3 20.1l0 10.2l0 21.8l0 10.7l-0.3 30.6l0.1 21.1l0 3.1l-0.1 12.9l0 35.4l0 41.8l0 41.7l112.4 0l11 0l24.7 -0l27 -0.1l20.7 -0.1l31 -0.1l20.7 -0l21 0.1l20.6 -0.1l123.4 0l20.6 -0.1l184.4 0.7l0.5 -83.1l0.2 -41.6l0.5 -373.7l-123.7 -0.6l-0 0.1l-145.2 -0.7l-103.8 -0.1l-62.5 -0.3l-20.8 -0.1l-124.4 -0.4l-41.5 -0.1l0 146.5l-0 41.8z" />
  </g>
  <g data-id="111">
    <path d="m7945.1 1973.9l0 0l-0.3 125.1l122.6 -0.3l0.3 251l123.9 0.1l23.9 0l99.4 0.2l0.1 -124.5l60.9 -0.5l1.2 -125.7l127.6 -0.2l-0.1 -249.8l-62 0.1l0.1 -187.9l-46 -0.3l-16.7 1l-103.1 -0.7l-145.5 -0.6l-61.8 -0.5l-64.7 -0.1l-59.3 0.3l-0.2 313.3z" />
  </g>
  <g data-id="113">
    <path d="m6928.3 463.6l0 0l2.5 48.7l10.5 9.9l9.7 59.9l-14.9 13.2l25.1 10.8l38.5 5.3l63.3 -10.8l32.8 -15.5l9 2.5l28.9 35l-17.1 34.1l-25.7 -1.7l-39.4 26.5l-23.9 -1.3l-20.1 9l-15.9 32l5 30.3l43.3 37.2l32.9 7.1l32.4 -17.9l43.3 -4.5l27.6 -29.5l16.1 -29.7l0.2 -13.1l19.5 -26.1l26.7 -21.5l33.5 -17.2l18.6 4.1l19 18.2l10.9 28.4l3.6 39.7l17.7 17.5l4 19.8l-13.5 32.3l2.3 17.7l30.6 27.9l17.5 5l45.3 -8l18.2 23.4l15.9 9.4l5.3 30.5l30.5 11.5l40.8 -37.8l16.5 9l9.3 27.8l-18.1 27.7l-29 10.7l-16.2 24.2l-0.7 23.4l30.9 25.5l37.1 -0.3l16.1 -13.1l17.1 -32.6l34.9 -3.4l12.9 15.8l13.9 51.2l54.9 27.1l54.6 53.7l97.1 6.2l16.3 33.4l-30.8 41.8l1 16.9l133.1 1.4l14.8 0l59.2 -0.1l54.9 -0.1l27.9 -0.2l21.9 -0.1l-0.5 -83.9l0.1 -33l-0 -3.3l0.2 -8.1l-0.2 -83.1l0.3 -168.4l0 -23.3l0.2 -430.8l0.3 -49.6l-0.2 -333.4l-163.8 -0.2l-2.3 -0.2l-4.6 0.2l-3 -0l-3.1 -0l-1.9 -0.2l-35.8 -0.1l-0.1 -0l-17.8 0.3l-20.5 -0.1l-68.6 -0.3l-3.2 -0l-134.4 0.1l-24.7 0.2l-99 0.7l-29.5 -0.1l-209.8 -0.7l-5.9 -0.1l-30.5 -0l-5.5 0.1l-10 0.4l-0.2 84.2l-2.7 232.2l-42.3 0.1l-0 21l-39.5 0.1l1.1 25.5l-14.5 9.6l-37.6 -13.8l-27 2.5l-21 22.4l-15.7 27.3l-12.9 45.1l-21.3 3.6l-20.9 -7.2l-27.9 1.5l-12.8 -8.5l-24.7 0.1l-7.6 -11.9l-39 25.3z" />
  </g>
  <g data-id="115">
    <path d="m9296.6 11.7l0 0l4 31.8l9.9 17l33.7 15.9l-6.7 9.8l-0.3 397.2l185 0.1l68.3 -0.1l8.5 4.1l183.1 -0.2l-0 -2.2l-0.1 -46.5l-0.2 -94.8l-0.1 -117.7l-0.3 -47.7l0.5 -24.7l-0 -21.1l0.1 -21.4l0 -0.2l-0.1 -5l0.2 -11.6l0.1 -13.1l0.1 -5.2l-0 -65.1l-0 -2.2l0.1 -3.9l-8.5 0.3l-86.9 -0.2l-2.4 -0l-12.8 0l-28.5 0.2l-2.5 -0l-44.3 -0.1l-63 -0.1l-11.3 -0l-10.4 -0.1l-4 0l-165.8 -1l-14.4 0l-30.9 7.7z" />
  </g>
  <g data-id="117">
    <path d="m6965.6 721.2l0 0l0 148l0 103.7l125 0l-0.2 125.7l123.8 -0l-0 126.6l224.7 -1.8l5.8 0.3l2.6 -5.2l254.8 0.5l120.1 1.4l34.5 0.4l-1 -16.9l30.8 -41.8l-16.3 -33.4l-97.1 -6.2l-54.6 -53.7l-54.9 -27.1l-13.9 -51.2l-12.9 -15.8l-34.9 3.4l-17.1 32.6l-16.1 13.1l-37.1 0.3l-30.9 -25.5l0.7 -23.4l16.2 -24.2l29 -10.7l18.1 -27.7l-9.3 -27.8l-16.5 -9l-40.8 37.8l-30.5 -11.5l-5.3 -30.5l-15.9 -9.4l-18.2 -23.4l-45.3 8l-17.5 -5l-30.6 -27.9l-2.3 -17.7l13.5 -32.3l-4 -19.8l-17.7 -17.5l-3.6 -39.7l-10.9 -28.4l-19 -18.2l-18.6 -4.1l-33.5 17.2l-26.7 21.5l-19.5 26.1l-0.2 13.1l-16.1 29.7l-27.6 29.5l-43.3 4.5l-32.4 17.9l-32.9 -7.1l-43.3 -37.2l-5 -30.3l-26.1 -0z" />
  </g>
  <g data-id="119">
    <path d="m6589.9 1225l0 0l0.3 244.9l0.7 5.9l34.6 -36.8l33.9 7.7l10.2 36.1l12.3 10.6l37.5 1.4l25.6 11l20.5 28.5l36.4 5.5l34.4 -19l2.7 17.6l606.1 0.7l-0.3 -25.5l-0.1 -289.6l-5.8 -0.3l-224.7 1.8l0 -126.6l-123.8 0l-251.9 0.1l0.4 126.1l-249 0.2z" />
  </g>
  <g data-id="121">
    <path d="m8062.4 3218.4l0 0l-0 123.4l244.9 0.1l0.1 123.3l245 -0.5l183.9 -0.4l-0.2 -123.4l8.2 -246.8l-0.2 -248l184.6 -0.1l0.2 -41.6l-0 -96.3l-0.1 -48.9l-51.7 0.1l-71.5 -0.5l4.9 -60.3l-0.6 -133.2l-57.3 -7l-21.8 30.6l7.1 19.1l-69.7 31.1l-27.5 29.8l-13.9 4.3l-16.7 -6.1l18.3 -14.9l-2.8 -20.3l-22.1 3.6l-51.3 27.9l-12.5 15.6l9.7 11.3l-38.2 8.8l-10.5 18.5l-30.5 -4.5l-16 21.9l-14.6 -2.6l-28.9 -26.1l-54.1 18.4l-36.2 -2.3l-20.7 43.2l-22.9 17.4l-23.9 -0.1l-39.7 -12.6l-24.8 1.2l-34.9 13.9l3.8 34.7l-22.9 -4.1l-10.8 18.1l-27.4 27.9l-7.6 44.9l-22.9 9.7l-3.5 277.9l-0.1 123.7z" />
  </g>
  <g data-id="123">
    <path d="m7081.8 3094.8l0 0l0 61.4l0.1 247.7l-0.1 61.7l122.7 0.1l0 123.6l365.7 0.8l2.1 -0.2l-0.1 -247.3l123.5 0.1l-0.1 -124.3l0.4 -185.5l-0 -14.6l-2.9 -31.7l-18.7 38.4l-41.2 -18.1l-35.9 8.3l-25.4 50l-18.7 8.4l-17.7 -14.9l-14.1 -25.6l-1.2 -22.9l-23.6 -3.4l-21.8 15.1l-30.5 10l-29.3 -4.6l-24.2 -39l-37.1 -1l-13.4 26.4l17.8 11.5l10.8 29.1l-9 20.9l-39 16.1l-16.9 -17.3l-15.7 -43.3l-23.5 -0.2l-26.7 -8.5l0.4 -34.2l-17.8 -20.9l-45.4 22.6l-38.5 3.6l-29.4 -46.1l-22.5 -9.2l-0.8 1.1l-0.3 151.9l-1.9 4.4z" />
  </g>
  <g data-id="125">
    <path d="m6837.3 2866.6l0 0l-0.3 123.4l11.1 -9.2l62 8.1l9.3 12.9l22.5 -2l42.6 19.8l23.3 -10.8l33.1 -27.9l12.3 -23.4l30.9 -19.1l0.8 -1.1l22.5 9.2l29.4 46.1l38.5 -3.6l45.4 -22.6l17.8 20.9l-0.4 34.2l26.7 8.5l-0.3 -348.6l-1.2 -41.3l-0.1 -166.2l0.4 -165.1l37.8 -1.7l22.7 -26.4l7 18.7l19.1 -5.8l56.8 34.3l35.1 -12.3l-1.4 -88.8l-397 -1.2l-205.7 -0.6l-0.2 41.6l-0.5 83.1l0.1 62.4l-0.2 201.6l0.1 66.9l0 62l-0.1 123.9z" />
  </g>
  <g data-id="127">
    <path d="m8427.1 3588.4l0 0l0.5 9.1l-0.4 485.1l57.6 0.3l0.3 -0.4l668.8 -0.4l6.2 -122.6l122.1 0.3l-0.2 -372.6l127.3 0.6l-0.2 -246.7l-142.2 0.2l-530.7 -0.6l0.2 123.4l-183.9 0.4l0.3 123.3l-125.7 0.3z" />
  </g>
  <g data-id="129">
    <path d="m3502.6 1626.2l0 0l0 376.4l0 282l495.3 1l0.3 -124.9l143.5 -0.1l103.2 0.2l0 -61.5l-15.1 -0l1.4 -374.1l-6.1 -124.7l0.1 -164.4l-48 1.4l-35.8 9.6l-28.8 28.1l-21.4 10.1l-22.7 76.3l-40 36.8l-10.3 49.3l-50.5 14.5l-21 19.9l-38.9 -11.6l-28.7 -1.3l-45.8 -12.6l-34.2 -32l-17.1 1.8l-17.5 -10.6l-3.6 -11.9l-26 -20.5l-10.3 -26.3l2.7 -45.3l6.6 -16.2l-8.3 -41l-33.3 -9.7l-19.9 4.5l-23.8 22.9l-15.1 -0.1l-23.3 30.6l-5 16.8l8.1 26.3l-22.8 33.2l-40.2 19.6l-14.6 16.2l-33 11.3z" />
  </g>
  <g data-id="131">
    <path d="m8385.2 1183.6l0 0l-0.1 36.2l24.5 0l17.3 0l20.9 -0.2l41.1 0.4l7.9 0.7l54.7 -0.5l62.4 -0.3l16.9 42l43 5.9l-0.5 31.7l18.3 23l-22.1 23.4l153.5 0.1l-0 -167.9l0 -80.6l5.2 -3.2l0.1 -140.7l-0 -8l-0.1 -103.1l-0 -126.2l125.3 -0.1l-0.2 -126.9l-120.4 0.1l-441.1 0.1l-3.3 -0.1l-0.3 252.5l21.4 -0l0.1 42.2l-20.9 0.2l-0 62.8l0 41.9l0 84l-3.7 20.9l0.1 36.3l-0 53.1z" />
  </g>
  <g data-id="133">
    <path d="m7263.2 2474l0 0l0.1 166.2l1.2 41.3l0.3 348.6l23.5 0.2l15.7 43.3l16.9 17.3l39 -16.1l9 -20.9l-10.8 -29.1l-17.8 -11.5l13.4 -26.4l37.1 1l24.2 39l29.3 4.6l30.5 -10l21.8 -15.1l23.6 3.4l1.2 22.9l14.1 25.6l17.7 14.9l18.7 -8.4l25.4 -50l0.4 -292.4l57.2 0.1l0 -248.9l0.1 -138.9l-0.1 -115.2l-5 12.8l-23.3 0.9l-8.8 -8.4l-17.1 21.2l5.5 13.3l-15.8 15.7l-25.7 -3.3l-3.4 -10.4l-37.4 -22.7l-17.3 23.1l14.7 5l-5.8 17.2l27.6 16.8l1.7 28.5l-22.4 -15.2l-25.4 -0.3l-10.6 -13.7l-16.3 20.8l-28 -5.4l-35.1 12.3l-56.8 -34.3l-19.1 5.8l-7 -18.7l-22.7 26.4l-37.8 1.7l-0.4 165.1z" />
  </g>
  <g data-id="135">
    <path d="m9188 2036l0 0l-6.1 99.9l13.5 29.4l27.5 27l15.4 37.9l39.8 2.2l29.2 8.3l0.8 31.1l23.2 25.7l69.7 15.8l22 13.8l27.9 -7.3l11.1 19.5l-2.8 16.1l-24 20.7l-1.5 14.2l17.1 2.9l42.1 -14.1l24.2 -20.3l18.9 13.2l1.8 34.5l16.1 20.1l22.5 -5.4l18.6 -34.1l25.7 -8.5l35.8 10.2l40.6 28.4l14 16.4l0.6 19.5l11.1 14l24.3 5.4l37.4 -18.4l24.6 -34.1l29.9 3.3l16.9 22.1l24.6 8.4l19.3 -7.4l26.9 11.9l14.9 -11.8l-15.9 -29l0 -18.2l16.6 -13.9l-7.2 -18l16.8 -15.9l30.7 -5.9l14.3 -9.1l-0.2 -1.3l2 -6.3l0.9 -2.9l0.2 -0.6l-7.1 -48.4l-14.3 -97.6l-0.1 -0.6l-8.1 -62.6l-7.8 -60.6l-0.9 -6.6l-0.4 -2.4l-1 -7.4l-8.6 -63.9l-390.4 -0.1l-128.4 -0l-111.3 0.3l-133.8 -0.7l0.3 61.8z" />
  </g>
  <g data-id="137">
    <path d="m5670.9 3340.9l0 0l-0.4 246.8l3.4 3.1l0.1 160.5l-0.1 143.5l183.2 0.9l489.5 -0.1l0.2 -183.9l0.1 -124.1l-0.9 -5.2l0.3 -77.1l0.1 -159.4l0 -5l-123.3 -0.3l-255.8 -0.3l-174.2 0.1l-40.9 0.3l-19.9 0.3l-61.5 -0.1z" />
  </g>
  <g data-id="139">
    <path d="m1132.1 223.3l0 0l-0.2 507l119.1 0.1l121 1.3l0.1 0.2l44.8 -0.2l5.5 -0l1.6 -0l1.6 -0l1.4 -0l81.8 0l12.4 0.3l52.5 -0.1l4.4 0l30.4 0.1l628.6 0.4l38.2 -0.5l8.3 0l79.6 -0.1l26.8 -0l0.4 -507.3l9.6 -0.4l0.1 -218.2l-0.1 0l-59.4 0.2l-18.8 -0.2l-47.8 0.3l-15 0.1l-0.3 0l-168.9 1.2l-1.7 0.1l-169 1.1l-2.2 0.1l-21.6 0.1l-41.6 0.2l-1.3 0.1l-82 0.5l-39.4 0.1l-42.2 0.2l-0 0l-52.7 0.4l-1.4 0.1l-351 2l-114.3 0.7l0 -0l-32.4 0.2l-0 204.4l-4.6 5.6z" />
  </g>
  <g data-id="141">
    <path d="m4392 3703.8l0 0l3.4 33.9l9.9 -0.3l-1.9 19.9l16.8 -10.7l5.5 8.6l-12.3 20.2l14.1 0.1l17.4 27.4l-6.5 21.5l-14.5 4.7l1.2 16.1l-2.2 15.5l-2.2 4.7l2.1 26l2.2 8.3l2.5 4l4.5 2.2l4 1.1l4.6 -0.4l0.8 0.9l1.2 11.9l-2.7 16.2l-0.3 23.5l1.9 6l5.1 10.9l1.2 3.8l0.1 3.5l-2.4 7l-0.7 4.8l0.7 3l3 3.4l35.6 7.7l17.5 -8.3l6.7 -6.2l8.9 -0.4l2.4 0.9l1.1 1.1l1.1 3.7l-1.1 2.2l-3 2.2l-1.7 4l-0.4 2.8l2.4 4.2l3.8 2l8.6 1.8l12.2 -2.3l19.3 -8.3l14.8 -3.1l4.1 0.4l11.1 4l7.1 5.1l1.4 2.6l0.4 2.4l0.8 1l10.8 3.3l6.2 0l2.9 -3.7l2.3 -5.4l1.8 -2.5l1.4 -0.6l27.1 5.2l8.5 -4.8l3.4 -3l-0.6 -8l3.1 -4.5l11.6 -5.6l4.2 0.6l6.9 5.1l3.1 10.4l2.4 5.6l2.9 3.8l6 3.2l3.2 -0l4.5 -4.7l0.4 -2.4l-0.3 -6.9l1.8 -2.4l2.7 -1.2l7 1.7l0.2 0.1l2.3 1.3l11.9 11.3l14.1 15.5l0.8 2.2l5 7.3l2.8 3.6l2.8 2.3l10.5 6.1l42.5 15.4l1.6 2.2l0.4 2.8l-1.2 3.6l-3.2 4.8l0.1 1.9l1.9 2.9l6 5.6l6.5 0.7l2.8 -1.1l2 -4l0.6 -9.7l0.7 -2.1l2 -0.7l28.5 -0.8l21.2 5.2l7.2 3.6l17.3 17.1l30.9 10.4l4.4 3.7l1.4 2l1.3 4.9l-0.2 2.8l3.1 3.2l9 0.6l8.5 -1.8l2.9 -2.6l2.6 -5.1l0.5 -3.4l1.6 -2.6l1.4 -0.8l19.5 -1l1.7 0.7l22.9 3.4l7.5 0.5l40.2 -35.4l5.9 -6.8l2.9 -1.9l5.7 -0.1l8.7 4.1l16.4 6.2l5.8 1.1l5.7 -0.2l1.9 -0.8l0.6 -249.3l-61.1 0.4l0.1 -102.5l-0 -143.6l-27.5 -0l-164 0.1l0.1 -123.3l-204.3 0.1l0.1 -61.7l-119.1 -0.1l27.9 26.9l-10.7 5.3l6.5 34.6l-19.6 -4.6l-25.8 8.8l-12.2 -5.9l-36.3 5.7l-24.7 36.4l7.6 31.5l-22 -3.2l-15.5 57.7l-12.4 10.2l-0.5 42.9l9.1 11.3l-17.1 6.1l5.9 26.9l-5.9 18.8l-11.7 -7.7z" />
  </g>
  <g data-id="143">
    <path d="m7822.2 1220.3l0 0l0.1 124.9l141.8 0.1l87.7 0.2l31.5 0l51.9 0.3l0 41.8l0 20.9l-0 62.9l0.1 62.9l-0.1 62.8l-4.3 42.7l0.1 21.1l145.5 0.6l103.1 0.7l0.6 -65.1l67.4 0.4l0.1 -12.1l-0.1 -114.1l0 -7.2l-0 -34.7l0 -20.9l-0 -20.9l-0 -63.3l-0 -20.4l0 -21l-0 -20.9l0 -42.3l-20.9 0.2l-17.3 -0l-24.5 -0l0.1 -36.2l0 -53.1l-0.1 -36.3l3.7 -20.9l-0 -84l-0 -41.9l0 -62.8l20.9 -0.2l-0.1 -42.2l-21.4 0l-83.4 -0.2l-42.2 0l-94.3 0l-0.3 168.4l0.2 83.1l-0.2 8.1l0 3.3l-0.1 33l0.5 83.9l-21.9 0.1l-27.9 0.2l-54.9 0.1l-59.2 0.1l-14.8 -0l-133.1 -1.4l-34.5 -0.4z" />
  </g>
  <g data-id="145">
    <path d="m8380.4 1597.2l0 0l-0.6 65.1l16.7 -1l46 0.3l135 -0.5l11.6 31.4l2.5 68.1l19.6 14.3l22.8 -0.6l13.8 18.2l12 -6.2l19.6 -26.1l8.2 -1.1l44.2 -5.8l47.4 -16.4l66.9 6.6l67.6 -33.1l44.7 13.2l42.9 0.3l25.2 -0.1l14.6 -29.8l25.3 -24.8l4.6 -15.8l-5.8 -15.2l-29.4 -6.5l-27.8 -38.6l1 -21.4l13.3 -15.1l-0.7 -26l-10.3 -24l30.9 -34.2l16 -0.2l15.1 -30.6l0.1 -44.2l19.8 -0l0.5 -50.3l-182.6 -0.8l-88.1 0.1l-153.5 -0.1l22.1 -23.4l-18.3 -23l0.5 -31.7l-43 -5.9l-16.9 -42l-62.4 0.3l-54.7 0.5l-7.9 -0.7l-41.1 -0.4l-0 42.3l0 20.9l-0 21l0 20.4l0 63.3l0 20.9l-0 20.9l0 34.7l-0 7.2l0.1 114.1l-0.1 12.1l-67.4 -0.4z" />
  </g>
  <g data-id="147">
    <path d="m8168.4 818.7l0 0l-0 23.3l94.3 -0l42.2 -0l83.4 0.2l0.3 -252.5l3.3 0.1l-0.1 -232l-0.2 -269.7l27 -0l-0.1 -83.8l-24.8 0.3l-68.7 -0.2l-8.2 -0.1l-1.5 -0l-2.2 -0l-38.5 -0l-20.9 0.1l-10.3 -0l-31.8 0.3l-42.6 0.3l0.2 333.4l-0.3 49.6l-0.2 430.8z" />
  </g>
  <g data-id="149">
    <path d="m4244.8 2223.1l0 0l-0.1 63l4.7 310l-0 125.2l349.5 0.2l362 0.4l18.3 20.7l4.9 -14.7l16 -1.7l5 12.2l18.8 -10.2l24.9 4.2l3.2 -14.3l24.9 -7l0.6 13l12.3 -11.4l11.6 9.2l10.4 27.1l3.5 -152.4l-6.5 -0l0.3 -371.9l-493.4 -1.4l-371 -0.2z" />
  </g>
  <g data-id="151">
    <path d="m4137.5 4l0 0l14.9 5.8l26.7 79.4l26.2 28.6l27.9 61.2l69.9 34.1l-3.7 20.2l25.9 33.2l1.1 19.9l28 23.6l23.1 6.9l46.5 -8.3l25.1 4.8l26.2 -4.7l31.3 11l15.5 29.8l34 29.9l15.1 29.8l26.8 8.9l20 29.8l-4.4 12.3l16.2 27.8l12.5 9l1.1 27.2l11.2 3.2l48.4 58l13.4 1.9l-0.4 133.7l136.1 1l28.2 51.2l13.6 14.9l35.1 17.8l59.4 4.5l20.5 33.9l11.4 8.6l86.5 33.9l37.2 0.8l47.7 -14.9l22.2 6.9l-0.1 -95.2l0.3 -190.2l-8 -506.8l-5.2 -82.9l-0.2 -0l-197.9 -0.1l-4.6 -0.2l-50.3 -0.4l-35.4 0.2l-2.1 0l-4.4 -0l-84 -0.1l-12.3 0l-0.7 -0.1l-132.8 -0.3l-6.9 -0l-33.9 -0.1l-23.8 0.5l-87.7 -0.3l-5.3 -0l-138.5 -0.2l-34.3 -0l-114.2 -0.9l-36.9 0.9l-57.4 0.2z" />
  </g>
  <g data-id="153">
    <path d="m3963.2 596.6l0 0l0.2 39.7l0.7 462.1l10.5 -0.1l-0.3 119.5l249.7 -0.3l497.3 3.9l-0.1 -100.2l-5.7 -23l0.6 -377l0.4 -133.7l-13.4 -1.9l-48.4 -58l-11.2 -3.2l-1.1 -27.2l-12.5 -9l-16.2 -27.8l4.4 -12.3l-20 -29.8l-26.8 -8.9l-15.1 -29.8l-34 -29.9l-15.5 -29.8l-31.3 -11l-26.2 4.7l-25.1 -4.8l-46.5 8.3l-23.1 -6.9l-28 -23.6l-1.1 -19.9l-0.1 326.6l-319.7 3.2l-42.3 0.3z" />
  </g>
</svg>
