<?xml version="1.0" encoding="UTF-8"?><!DOCTYPE svg PUBLIC '-//W3C//DTD SVG 1.1//EN' 'http://www.w3.org/Graphics/SVG/1.1/DTD/svg11.dtd'><svg viewBox="0 0 1000 484.178" xmlns="http://www.w3.org/2000/svg"><path id="40001" d="m956 160v37h39l-2-12v-1v-4v-1l-1-4v-1v-1v-1l-1-2v-1v-1l-1-8l-1-5v-1v-1v-3l-1-3v-1v-1v-1l-2-10v-3l-1-7v-2h-28v27v11z"/><path id="40003" d="m520 0l1 9v50v19h50v-18v-51v-8h-5h-3h-4h-1h-2h-13h-1h-6h-1z"/><path id="40005" d="m769 371v37h19h17h13h8h17v-48v-1h12v-13l-24 1v-13h-25v24v1h-6v12z"/><path id="40007" d="m239 22v51h2h2h4h3h1h3h2h1h4h5h2h6h1h6h1h1h4h1h1h10h1h1h1h4h3h2h1h2h15h11h10v-13v-60h-10h-3h-9h-1h-41h-5h-4h-1h-5h-6h-3h-1h-5h-1l-5 1h-4h-1h-5v21z"/><path id="40009" d="m350 228v35v21h13h13v-12h40v1l3-1h6v-12l-1-31v-7v-6h-10h-14v13z"/><path id="40011" d="m509 122l1 38v12v10v26v2h1h28h8v-23v-2h12v-17l1-8l-1-38h-46z"/><path id="40013" d="m744 451l-1 1h1v1l3 1h1v1l2 1h1h2l2-1l1 1v1l1 1v1v1v1l1 1h1h1h3h1v-1h1h1h1l1 1v1l1 1v1l1 1l2 2l1 1l1 1v1l1 1v1v1h1h1l3-1l1-2v-1v-1v-1v-1l1-2l1-2h2l3 1l2 2h1l3-1h1l1-1h1v-1l1-3v-1h-1v-1h-1v-1v-1h2h1h1l-1-2v-1h1h1h2l1 1h1h1v-1l-1-1h2l3 1h1h2v-2h1v1v1h1l1-1l1-1v-1v-1h1h1v1l1 1l3-1h1v-1l1-1v-1h-1v-1h1l1 1h1l1 1l1 1h1l1 1l2 1l1 1l1 1h1l1 1v-1h1v-1v-1v-1h2h1l1 1l1 1h1h1v-1h1l-1-2v-1l-5 1l-4-1l-3-2l-1-2l-1-2l-5-1l-1-2l-1-1v-25l-1-1l-1-3l-4-1h-13h-17h-19h-5v6h-15l2 4l1 2l1 1l-3 4v2l-1 2l-1-1l-2 1h-2l1 3l3 2h1l1 1l-3 3l2 5l-1 2l1 1l-1 1l-1 1l-1 1l-2 2z"/><path id="40015" d="m511 222v38h1l-1 15v2v32h9h18h35v-4v-14v-15v-16l-1-25h-23h-1v-20v-5h-1h-8h-28v2z"/><path id="40017" d="m547 185v2v23h1v5v20h1h23h10l1 2h1l5 2l1-1v-3h2l1 3h2v1h2l3-2v3l3 1h1l2-1l2 1l3-2v1l3 3l4-1l4-1v-6v-4v-4v-4v-1v-1v-2v-3v-1v-2v-1v-2v-6v-4v-15h-13h-21h-4h-8h-17z"/><path id="40019" d="m635 406v13v1h69v-14h4v-23h-11h-1l-1-1l1-1v-3l-1-1h-36v-18h-24v12v19z"/><path id="40021" d="m901 157v2l3 4l3 1v1v2l-3 2l-1 3h16v2v1v22h13h11h13v-37h1v-11v-27h-25h-12v13h-2h-9v5h-2v4l-1 3h-2l-3 4l1 2v3z"/><path id="40023" d="m818 408l4 1l1 3l1 1v25l1 1l1 2l5 1l1 2l1 2l3 2l4 1l5-1v-1v-1v-1h1h2h1l1 1l1 1l1-1h2l1-1v-1l1-1h1l1 1l1-1l4-2l1-1h1h3l1 1v1l1 1v1l-1 1v1l1 1h1l1-1h1h1h1v1v1h1l2-1l1-1h1v1l-1 1h1l1 1h5h4h3h1l1-1v-2h1l2 1l1 1h1h1v-1v-1v-1v-1h1l1 1v-1h1v-1v-1v-1v-1l3-4h1l4 1l2 2h1v-31h-66h-1h-5h-17z"/><path id="40025" d="m0 69v4h88h10h4h1h10v-51h1v-21h-2h-1h-16h-2h-6h-11h-40h-6h-2l-2-1h-2h-2h-3l-16 1h-1l-2-1v13v1v27v7v8v2z"/><path id="40027" d="m622 235v6h2l4 4h2l3 1l2 1l1 4l-2 2l1 2l2 3l3 2l9 6v2l4 1v3v4l4 1l2 1v3v3l1 6v1v3l4 1l1-1h3l2 3h3l1 1l1-1h2v2h5h2v-12v-13v-6v-7v-20v-6h-19h-2h-12h-2h-2h-2h-3h-3h-2h-3h-1z"/><path id="40029" d="m757 359v12h5h2h5h31v-12h6v-1v-24v-12h-36v12h-13v25z"/><path id="40031" d="m487 309v37v13h17h2v14h7v-2h12v-4h24v-2h6v-6h12v-25h6v-23v-2h-35h-18h-9z"/><path id="40033" d="m506 373v10h7l-1 25h1h1l2 1l1 1l1 2l1 2l2 1l1 1v1l3 3l2 2l1-1l3-1h1v-1v-1h1h1v1h1v-1l2-2v-3v-1l2-2v-1l2-1l5 1v1l3 1v1h2h3h1h1h1l1 1l2 1h1h3l1-1h1l1-2v-1v-21v-14v-16h-12v6h-6v2h-24v4h-12v2z"/><path id="40035" d="m883 9v50h12v13h17h21v-13l1-11v-39v-1l-3-2l-1-2v-3l3-1h-1h-2h-1h-1h-3h-6h-3h-1h-2h-2h-15h-1h-9v9z"/><path id="40037" d="m744 122v29l1 3v43h50v-31h5h7h6v-2l1-4v-7v-6v-6v-2v-4h-6h-3h-9h-14v-13h-12h-25z"/><path id="40039" d="m423 173v37h1v6v6h38h49v-10v-2h-1v-2v-26v-10h-8l-1 1z"/><path id="40041" d="m932 114v8h25h28l-1-2v-1v-4l-1-3v-1v-2l-1-6v-1l-1-5v-2l-1-6v-2v-3l-1-5v-2v-2l-1-2v-2v-3v-5v-1v-3v-1v-1v-8h-18l-1-1h-7h-18l-1 11v13v33v4l-1 3z"/><path id="40043" d="m422 122l1 22v16v13h78l1-1h8v-12l-1-38h-37z"/><path id="40045" d="m350 60v13v64v26l4-2l1-1l4-2l2-3v-3v-2l2-3h2l2-2l2-1l4 1v5v1l-1 5l1 2l3 2v2l2 1l2-1l3 4l5 1h3l4 1l2-2l5-1l1-5l4-4l2-7l2-1l3-3l4-1h5l-1-22h-25v-12h-1v-46v-4z"/><path id="40047" d="m571 60v18l1 44h29h20h26l-1-62h-54z"/><path id="40049" d="m622 309v25h13v1v16v7v1h24h25l-1-1l-1-1h1h1l-3-2l1-2l-2-3l1-3l-3-1l-1-4h7v-2h24v-24v-7h-41h-22z"/><path id="40051" d="m572 235l1 25v16v15v14v4v2v23h2h4h18h25v-25v-10v-33v-19v-6l-4 1l-4 1l-3-3v-1l-3 2l-2-1l-2 1h-1l-3-1v-3l-3 2h-2v-1h-2l-1-3h-2v3l-1 1l-5-2h-1l-1-2z"/><path id="40053" d="m571 1v8v51h21h54v-26v-33h-1h-6h-2h-3h-4l-4-1h-2h-5l-8 1l-2-1l-2 1h-27h-1h-1z"/><path id="40055" d="m363 284v13h19l1 12v13h4v2h2v4h29l-3-1l1-1v-4h4v-7h18v-1l-1-2h-2l-1-2l-3-1l-1-2v-2h3v-2l-1-3l-4-3v-4l-2-2l2-1v-1v-1v-1h1v-1v-3h-3l-2-3v-4l-4-1l-1-3l-3 1v-1h-40v12z"/><path id="40057" d="m350 284v41v26h1h1h1h1v-1h1v-1h1h1h2v1h1l2 2h1v1l2 2l1 1l1 2l1 1h21v-31v-4h-2v-2h-4v-13l-1-12h-19v-13z"/><path id="40059" d="m350 0v60h46h5l32-1v-32l-3-4v-2l-7-3l-2-6l-3-3l-3-8l-1-1h-4h-1h-1h-4h-2h-8h-3h-1h-13h-2h-10h-14h-1z"/><path id="40061" d="m881 260v6h7h5v5v9h49v-20h13v-17l-1-2v-4l-2-1l-3 2l-4 1h-2l1-1l2-2v-2l-1-2l-3 1l-2-2l-7-1l-2-3v-3l-3-1l-2 2l-2 2v4l-2 1l-3 4l-2-1l-2 1l2 2l-1 1h-3l-1 2l2 4l-1 1l-3-1v2l-2 3l-2 1l-3-1l-3-3l-3-1l-4 1l-5-5l-2 1l-2 2l-3 2z"/><path id="40063" d="m760 272v29h3l4 1l2-3l1 3v1v19h36v-13l1-27l2-1l1-5l2-3l1-1h3l-1-3l4-2v-20h-6h-48v25z"/><path id="40065" d="m368 359l2 1h1l1 1l-1 1l1 1l2 3l2 2l2 1h-1v1l2 1l2 1h1l1 1v1h1v1v1l2 1h2h1v1h1l1-1h2l1 1l3-1l1-1l1-1v-1v-1v-1l1-1h1l1 1h1h2h1h1l2 1l1 1h1h1l2 2l1 1l1 1h1l1-1l1 1h1v-1h1v-4v-1v-1v-3l2-2h1h1l1 1h-1v1l1 1l1 1h1l1 1v1l1 1l1-1h1h1l3 1l1 2h-1v1h-1v1l2 1l1-1l1 1v1l1 1v2h1h1v1l2-1v-2l-1-2h-2l2-2l-1-1l-2 1l1-2h-1l-1-4l1 1l1-2l-1-2l2-1l-1-1v-4l1-1l2-6h2l-1-3l3-4h4h1l2-1l2 1v-4h1l-3-3l1-4l6-1l1-2l-2-2l-6 1l-5-1l-2-1l1-2l-2-4l2-1l-1-2v-3l2-1l-1-4h1v-3h-2l-2-1l-4 5h-4v1h-18v7h-4v4l-1 1l3 1h-29v31z"/><path id="40067" d="m567 389v21h1v-1h1h1h1l1 1l1 2v1v1v1l-1 1l-1 1l-1 1v1v1v1v1l2 1v1v1l-1 1h1l1 4h1l3 1h2h1h1h2l2-1h1l1-1v1l1 1l1 1h1l-1 4l-1 1v1h-1v1h1h1v1v1v1l-1 1l-1 1v-1h-1v1h-1v1h1v1h1v1h1h1h1h1l4 3h1l2 1l1 1l4-2l3-2l1-1v-1h2v-1v-1v-1l1-1l1 1v-1h1v-1l-1-1l1-1h2h1h1l1-1l1-1v-2l1-1v-1l1-1h2h1h1l2 1l3 2l3 2l-1 3v1v1l1 2l3 1v-12h3l-3-3v-10v-1v-13v-16h-49z"/><path id="40069" d="m708 383v23h31l2 2l1-1l3 1l1 3l3 2v1h15v-6h5v-37h-5h-2h-5v-12h-37h-6v24z"/><path id="40071" d="m646 34v26l38-1l10 1l1-2l-1-6l-1-1v-5l4-2v1h3l1 1h3h2h2l2-4l1-3l2-2l3-1l4 2l1-1v-3h4v-2h4v-23v-9h-4h-1h-3h-5h-1h-3h-2h-1h-1h-4h-1h-6h-1h-7h-1h-2h-3h-18h-8h-2l-9 1z"/><path id="40073" d="m559 122l1 38l-1 8v17h17h8h4h21h13v-20l-1-43h-20h-29z"/><path id="40075" d="m419 272l1 3l4 1v4l2 3h3v3v1h-1v1v1v1l-2 1l2 2v4l4 3l1 3v2h-3v2l1 2l3 1l1 2h2l1 2h4l4-5l2 1h2v3h-1l1 4l-2 1v3l1 2l-2 1l2 4l-1 2l2 1l5 1l6-1l2 2l-1 2l-6 1l-1 4h12v6h20v-37h24v-32v-2l-1-3l-1-1l-1 1v-1l-3 1v1h-3l-1 1l-1-1h-2v1l-2-2h-36h-35z"/><path id="40077" d="m874 309v25h53v-8v-17h7v-12h8v-10v-7h-49v5h-19z"/><path id="40079" d="m927 326v8h14v25h56v-6v-12v-1v-8v-5l1-14v-4v-2v-3v-6v-6l1-12v-8v-2v-5v-1v-2v-1v-2v-3v-1v-1v-1v-3l1-1v-1v-1v-2v-8v-1v-1v-1l-2 1h-3l-1 2v1l-1 2v2l1 3l-1 1l-3-1h-2h-2l-2-3h-3l-3 3l-3 2h-3l-1-2v-2l-1-1l-4-3l-4-1l-3 1l-1 3l-3 1v17h-13v20v7v10h-8v12h-7z"/><path id="40081" d="m684 185v38h20h40l1-26v-43h-61v2z"/><path id="40083" d="m621 122l1 43v20h4h12h2h7h10h14h13v-29v-2v-2l-4 2l-3-1l-3-2l-2-2h-4l-1-1l-1-3l-3-1l-4 4v-1v-25h-12z"/><path id="40085" d="m635 433v12h1l1-1l1-1h1l1-1h2h1h1l3 2l1 2v2l-1 3h-1v2l1 1l1 1l3 1h1h5v-1h1v-1l2-2l1-2v-1v-1h1v1h1h1v-2h1l1 1l1 1h1v1h1h1l1-1v-1l1-4l2-2h2l3 2v1l2 7v1h-1l-1 1h-1h-1v1l-1 1v1v1l1 1l1 2v2l1 2l1 2l1 1l1 1h1l1 1h2h1h1v-1h1v-1h1v-2v-1v-1v-1v-1l-1-2v-1l1-1v-1h1l1-1h3v-1l-1-1l-3-1l-1-1v-1l2-1l2 1v1l1 1h1l2-1v-1l4-5v-2v-2l-1-2v-1v-1v-1h1v-1l1 1v2h1l2-1l1-1h1v-8h-4v-9h-69v10l3 3z"/><path id="40087" d="m622 241v6v19v33v10h23h22h41v-15l-3 2l-1 2l-3 3l-3 1l-4-2h-2l-1-1l-6-1l-1 1h-2h-5v-2h-2l-1 1l-1-1h-3l-2-3h-3l-1 1l-4-1v-3v-1l-1-6v-3v-3l-2-1l-4-1v-4v-3l-4-1v-2l-9-6l-3-2l-2-3l-1-2l2-2l-1-4l-2-1l-3-1h-2l-4-4z"/><path id="40089" d="m915 408v31h1h2l1 1h1l-1 1v1h1l1 1l1-1v1l1 1v1h1l1-1h1l1 1v1l1 3v1h1h2h1l1-1l1 1v1h1h1v-1h1l1 2v1l1 1l1 1v1v1h1h1h1v1v1v1l1 1l1 1l2 1h1v1v1v1h1l2 1h1h1h1v-1v-1h1h1v1h1h1l2-1h1v1v1v1h1l2 1v1v1v1h1v1l1-1v-1h1v1l1 1h-1v1h1l2 1l3-1h1h1v1v1v1h1l1-1l1-1l1 1l1 1h1v-1l1-1l1 1v1h1v1v1h1h1v1v1h1h1l1 1l-1 1h1v1h1h1l2-1v-1l1-1v-2v-1v-4v-3v-1v-5v-5v-1v-1v-4v-3v-4l1-8v-2v-1v-8v-1v-23l1-23v-1v-6v-2v-1l1-12h-56h-13v37h-12z"/><path id="40091" d="m819 247v20h2l4 1h3l2-1l2-5h4l5-1l3 2l1 1l2-3l3 1l1-2l4-1l-1-1l1-2l5-2l3-1v2l-2 2h2h1l3-3l7-3l-1-2l2-3l6 1l3-2l2-2l2-1l5 5v-25v-12h-1h-25h-6h-5h-6h-12v13h-7v12h-9h-3z"/><path id="40093" d="m472 72v38v2v10h37h4h46h13l-1-44h-50v10l-2-1l-5 2h-3l-9-4l-1-1l-2-3h-6l-4-2l-1-2l-3-5z"/><path id="40095" d="m704 420v9h4v8l1-1h1l1 1v1h1v2v3v1v1l2 4l1 1l1 1l1 1h1l1-1v-1v-1v-1h1h2l2 1l2 1v2v1l1 1v1h1h1h1l4-1h1v-1l1-2h1v-1v-2v-1l1-2v-2l1-1h1l2 2l1 1h1h2h2l1-2l-2-5l3-3l-1-1h-1l-3-2l-1-3h2l2-1l1 1l1-2v-2l3-4l-1-1l-1-2l-2-4v-1l-3-2l-1-3l-3-1l-1 1l-2-2h-31h-4z"/><path id="40097" d="m882 110v8v17h9h18h9h2v-13h12v-8v-2l1-3v-4v-33h-21h-17h-12v12v11v14z"/><path id="40099" d="m659 359v18h36l1 1v3l-1 1l1 1h1h11h6v-24h6v-12h-12v-7h-24v2h-7l1 4l3 1l-1 3l2 3l-1 2l3 2h-1h-1l1 1l1 1z"/><path id="40101" d="m844 166v19h6v25h6h5h6h25h1v12v25l4-1l3 1l3 3l3 1l2-1l2-3v-2l3 1l1-1l-2-4l1-2h3l1-1l-2-2l2-1l2 1l3-4l2-1v-4l2-2l2-2h-4l-2-4l-2-2l-2-3l1-10v-7v-22v-1v-2h-16h-3h-4l-5-1l-6 3h-7l-5 1l-4 1h-1l-2 3h-1l-2-2h-2l-2-1v-7l-1-3z"/><path id="40103" d="m646 60l1 62h12h25v-12h25v-13h-12v-10v-15h2l2-3l2-1h2l4-3l3 1l1-4l-3-3l-4 1l-6 1h-4l-2-1l-10-1z"/><path id="40105" d="m839 9v27v23h44v-50h3v-9h-12h-1h-2h-4h-5h-1h-1h-4h-1h-1h-2h-1h-1h-3h-2h-1h-2v9z"/><path id="40107" d="m744 223v9h3l2-2l1 1h2l2 2v-3l-2-2v-1l-1-1l1-2l4 2v1l3 1l2-2l-1-1l2-2h1h2v-1v11v14h48h6v-12h-12v-25h-13l1-13h-50z"/><path id="40109" d="m622 204v6v2v1v2v1v3v2v1v1v4v4v4h11h1h3h2h3h3h2h2h2h12h2h19v-8v-4v-38h-13h-14h-10h-7h-2h-12h-4v15z"/><path id="40111" d="m795 197l-1 13h13v25h12h3h9v-12h7v-13h12v-25h-6v-19h-4h-2h-10h-15h-6h-7h-5z"/><path id="40113" d="m693 46v5l1 1l1 6l-1 2l2 1h4l6-1l4-1l3 3l-1 4l-3-1l-4 3h-2l-2 1l-2 3l1 3l4 4l3 1l4-2l4-1l3-3l1-3v-1l2-3l3-2l3-1h2l2 2l1 3v4l2 1l1 2l-2 4v1l4 3l1 1l5-1l2 2l1 1l1 3l3 1l4-3h2v3l-1 3l-3 1l-2 3v2l3 2h4l1-1l2-3l4-1l1 2l1 5l6 3l5 5l10 1l2 3l-3 4v2h13h1h6h6h3h2v-8v-4v-1v-8v-17v-2v-43v-5v-34h-17h-1h-4h-1h-2h-7h-1h-13h-2l-10 1h-3l-21-1h-1h-3h-1h-1v9v23h-4v2h-4v3l-1 1l-4-2l-3 1l-2 2l-1 3l-2 4h-2h-2h-3l-1-1h-3v-1z"/><path id="40115" d="m930 1v3l1 2l3 2v1v39h18h7l1 1h18v-5v-10v-11v-5v-3v-2v-2v-2v-1v-7v-1l-1 1l-8-1h-1h-1l-3 1h-4l-7-1h-1h-1h-17h-1z"/><path id="40117" d="m697 72v15v10h12v13h12v13l23-1h1h25h12h4v-2l3-4l-2-3l-10-1l-5-5l-6-3l-1-5l-1-2l-4 1l-2 3l-1 1h-4l-3-2v-2l2-3l3-1l1-3v-3h-2l-4 3l-3-1l-1-3l-1-1l-2-2l-5 1l-1-1l-4-3v-1l2-4l-1-2l-2-1v-4l-1-3l-2-2h-2l-3 1l-3 2l-2 3v1l-1 3l-3 3l-4 1l-4 2l-3-1l-4-4l-1-3z"/><path id="40119" d="m659 122v25v1l4-4l3 1l1 3l1 1h4l2 2l3 2l3 1l4-2v2h61l-1-3v-29l-23 1v-13h-12h-25v12z"/><path id="40121" d="m806 322v12h25v13l24-1h19v-12v-25v-24h19v-5v-9v-5h-5h-7v-6v-13l-6-1l-2 3l1 2l-7 3l-3 3h-1h-2l2-2v-2l-3 1l-5 2l-1 2l1 1l-4 1l-1 2l-3-1l-2 3l-1-1l-3-2l-5 1h-4l-2 5l-2 1h-3l-4-1h-2l-4 2l1 3h-3l-1 1l-2 3l-1 5l-2 1l-1 27z"/><path id="40123" d="m708 309v7v24v7h12v12h37v-25h13v-12v-19v-1l-1-3l-2 3l-4-1h-3l-3 5l-2 1l-1-1l-2-3v-2h-2l-3 1l-3 1h-3l-2-4h-4l-1 2l2 1l1 3l-1 2l-4 2l-2-2l-1-4h-3l-2-1v-3l-2-2l-4 2h-4l-3-4l-3-1v15z"/><path id="40125" d="m684 287v12l1-1l6 1l1 1h2l4 2l3-1l3-3l1-2l3-2l3 1l3 4h4l4-2l2 2v3l2 1v-35v-4v-17v-16h4l2-3l1 2l2-1l6 4l3-1v-9h-40h-20v4v8v6v20v7v6z"/><path id="40127" d="m843 359v1v48h5h1h66l1-12h12v-37h13v-25h-14h-53v12h-19v13z"/><path id="40129" d="m350 163v37v28l50 1v-13h14h10v-6h-1v-37v-13v-16h-5l-4 1l-3 3l-2 1l-2 7l-4 4l-1 5l-5 1l-2 2l-4-1h-3l-5-1l-3-4l-2 1l-2-1v-2l-3-2l-1-2l1-5v-1v-5l-4-1l-2 1l-2 2h-2l-2 3v2v3l-2 3l-4 2l-1 1z"/><path id="40131" d="m839 118v4h2h2h2h4h1h5h6l2 4l4 1v3l2 2l-2 3h15v-17v-8l1-1v-14v-11v-12h12v-13h-12h-44v25h2v4h-2v7v4v8v2v4z"/><path id="40133" d="m726 247v17v4v35h3l1 4l2 2l4-2l1-2l-1-3l-2-1l1-2h4l2 4h3l3-1l3-1h2v2l2 3l1 1l2-1l3-5v-29h5v-25v-14v-11v1h-2h-1l-2 2l1 1l-2 2l-3-1v-1l-4-2l-1 2l1 1v1l2 2v3l-2-2h-2l-1-1l-2 2h-3l-3 1l-6-4l-2 1l-1-2l-2 3h-4z"/><path id="40135" d="m919 204l-1 10l2 3l2 2l2 4h4l3 1v3l2 3l7 1l2 2l3-1l1 2v2l-2 2l-1 1h2l4-1l3-2l2 1v4l1 2l3-1l1-3l3-1l4 1l4 3l1 1v2l1 2h3l3-2l3-3h3l2 3h2h2l3 1l1-1l-1-3v-2l1-2v-1l1-2h3l2-1v-1v-1l-1-4l-1-10l-1-6l-1-7v-1l-1-7h-39h-13h-11h-13z"/><path id="40137" d="m567 334v25v16v14l19 1h49v-19v-12v-1v-7v-16v-1h-13h-25h-18h-4h-2z"/><path id="40139" d="m113 22v51h12h12h5h1h8h1h5h1h3h63h4h8h3v-51h1v-21h-6h-2h-5h-1h-17h-17h-2h-5h-8h-4h-4h-5h-1h-35h-11h-3v21z"/><path id="40141" d="m439 370l1 4h1l-1 2l2-1l1 1l-2 2h2l1 2v2l-2 1l1 2l-1 1v1v2l1 1v1h1v1v2v2v1l1 1v1l-1 1h1l3 1l2-1l1-1h1v1v1v1h1h1l2-1h2h1h1v1h1h1l1-1l2 1l1-1h1v-1l1-1l1 1v1h1v1h1v-1l1-1h1v1l1 1l1 1l1 1v1h2l4 2v1v1h1l1-1l3-1l2 1h1l1 2l3 1h1v1v1h1h1v-1h1v-1h2l2 1h1l4-4l1-1h1v1h2h1l1-25h-7v-10v-14h-2h-17v-13h-20v-6h-12l3 3h-1v4l-2-1l-2 1h-1h-4l-3 4l1 3h-2l-2 6l-1 1v4l1 1l-2 1l1 2l-1 2z"/><path id="40143" d="m782 122v13h14h9h3h6v4v2v6v6v7l-1 4v2h15h10v-6h7v-1v-12v-1v-3v-2v-2v-7v-2v-2v-2v-4h-2h-2h-2v-4v-5v-4v-2v-8v-4v-7h2v-4h-2h-9h-4h-9v17v8v1v4v8h-2h-3h-6h-6h-1h-13z"/><path id="40145" d="m838 160v6h2h4h14l1 3v7l2 1h2l2 2h1l2-3h1l4-1l5-1h7l6-3l5 1h4h3l1-3l3-2v-2v-1l-3-1l-3-4v-2l1-1v-3l-1-2l3-4h2l1-3v-4h2v-5h-18h-9h-15l2-3l-2-2v-3l-4-1l-2-4h-6h-5h-1h-4v4v2v2v2v7v2v2v3v1v12v1z"/><path id="40147" d="m817 82v2h9h4h9v-25v-23v-27h3v-9h-3h-6h-1h-1h-4h-2h-1h-3h-4v34v5z"/><path id="40149" d="m424 222v7l1 31v12h35h36l2 2v-1h2l1 1l1-1h3v-1l3-1v1l1-1l1 1l1 3l1-15h-1v-38h-49z"/><path id="40151" d="m414 0l1 1l3 8l3 3l2 6l7 3v2l3 4v2l2 2l3 1l4-1h3h3l3 1l1 3l4 3l1 3l3 1l2 3l-1 1l2 3l1 1v2l1 1l5 6h2v13h13l3 5l1 2l4 2h6l2 3l1 1l9 4h3l5-2l2 1v-10v-19v-50l-1-9h-20h-5h-4h-9h-1h-13h-1h-3h-3h-9h-14h-3h-12h-4z"/><path id="40153" d="m396 60v4v46h1v12h25h50v-10v-2v-38v-13h-2l-5-6l-1-1v-2l-1-1l-2-3l1-1l-2-3l-3-1l-1-3l-4-3l-1-3l-3-1h-3h-3l-4 1l-3-1l-2-2v-2v32l-32 1z"/></svg>
