<?xml version="1.0" encoding="UTF-8"?>
<!DOCTYPE svg PUBLIC '-//W3C//DTD SVG 1.1//EN' 'http://www.w3.org/Graphics/SVG/1.1/DTD/svg11.dtd'>
<svg viewBox="0 0 1000 1218.79" xmlns="http://www.w3.org/2000/svg">
  <g data-id="010">
    <path d="m118.486 1126.06l-1.11 0.494l3.867 3.003l2.831 3.384l6.445 8.305l1.584 -1.315l1.653 -6.081l5.964 -4.259l4.873 -2.323l7.832 -1.587l4.026 -2.397l8.814 1.549l8.196 -3.317l1.978 -1.119l3.58 5.001l1.306 0.947l2.8 0.124l1.191 -2.161l-2.024 -1.407l-3.331 -6.914l-0.134 -4.714l-5.238 0.335l-2.3 1.636l-9.532 0.311l-3.631 -1.078l-5.869 -0.475l-6.581 -0.365l-3.892 -5.874l-6.346 6.527l-3.883 2.033l-3.631 2.748l-3.146 3.695l-6.291 5.295z" />
  </g>
  <g data-id="020">
    <path d="m532.272 1102.88l2.609 6.637l4.802 8.04l2.206 2.879l2.161 0.231l2.98 -3.801l3.756 -3.338l3.545 -1.064l5.43 2.224l3.631 0.765l1.537 -0.59l0.714 -6.862l0.79 -6.139l-2.884 -2.385l-9.04 0.048l-9.18 1.226l-9.124 -0.856l-3.93 2.982z" />
    <path d="m475.428 1082.94l0.967 2.804l4.931 4.657l3.158 -0.999l3.375 -2.89l4.386 -0.199l3.969 0.617l1.659 2.436l2.838 3.727l2.183 -4.678l-1.247 -3.502l0.286 -4.387l-1.633 -0.945l-2.264 2.705l-4.441 0.676l-4.74 -0.038l-7.641 -1.125l-3.416 -0.757l-2.369 1.901z" />
  </g>
  <g data-id="030">
    <path d="m991.931 1213.14l0.848 4.548l3.212 1.105l2.698 -0.051l1.31 -1.002l-1.182 -4.188l-2.133 -2.184l-3.366 -0.154l-1.388 1.927z" />
  </g>
  <g data-id="040">
    <path d="m0.09 1.507l0.801 2.906l2.148 1.689l1.404 -0.311l2.072 -1.515l1.538 -1.258l-0.102 -1.437l-2.461 -1.582l-3.632 0.527l-1.113 0.41z" />
  </g>
  <g data-id="050">
    <path d="m82.312 1137.42l5.991 3.602l3.73 0.696l6.578 0.383l4.556 8.339l8.714 5.756l6.556 -3.121l6.442 -7.152l5.639 -4.679l-6.445 -8.305l-2.831 -3.384l-3.867 -3.003l-1.687 0.752l-4.748 -1.216l-7.611 -0.017l-4.53 0.618l-4.351 1.974l-3.265 1.758l-1.407 1.228l-2.795 2.602l-4.67 3.169z" />
  </g>
</svg>
