<?xml version="1.0" encoding="UTF-8"?><!DOCTYPE svg PUBLIC '-//W3C//DTD SVG 1.1//EN' 'http://www.w3.org/Graphics/SVG/1.1/DTD/svg11.dtd'><svg viewBox="0 0 1000 1218.79" xmlns="http://www.w3.org/2000/svg"><path id="60010" d="m118 1126l-1 1l4 3l3 3l7 8l1-1l2-6l6-4l5-3l7-1l4-3l9 2l8-3l2-2l4 5l1 1h3l1-2l-2-1l-3-7v-5l-5 1l-3 1l-9 1l-4-2h-6h-6l-4-6l-7 6l-3 2l-4 3l-3 4z"/><path id="60020" d="m532 1103l3 7l5 8l2 2l2 1l3-4l4-3l3-2l6 3h3h2l1-7v-6l-2-3l-9 1l-10 1l-9-1zm-57-20l1 3l5 4l3-1l4-2l4-1l4 1l2 2l3 4l2-5l-1-3v-4l-2-1h-1l-1 2l-4 1h-5l-8-1l-3-1z"/><path id="60030" d="m992 1213l1 5l3 1h3l1-1l-1-4l-2-3h-4z"/><path id="60040" d="m0 2l1 2l2 2h1l3-2l1-1v-1l-1-1l-2-1l-3 1h-1z"/><path id="60050" d="m82 1137v1l6 3l4 1h7l4 8l9 6l6-3l7-7l6-5l-7-8l-3-3l-4-3h-1l-5-1h-8l-4 1l-5 2l-3 1l-1 2l-3 2z"/></svg>
