<?xml version="1.0" encoding="UTF-8"?><!DOCTYPE svg PUBLIC '-//W3C//DTD SVG 1.1//EN' 'http://www.w3.org/Graphics/SVG/1.1/DTD/svg11.dtd'><svg viewBox="0 0 1000 1088.2" xmlns="http://www.w3.org/2000/svg"><path data-id="39001" d="m259.2 1017.9l4.6 2.3l1.4 0.6l2.6 0.6l1 0l1.1 -0.2l1.5 -0.6l1.6 -1.9l0.7 -1.9l0.7 -2.7l0.1 -2l0.5 -2.6l0.8 -1.6l1.6 -1.8l2.6 -1.4l9.5 -2.5l1.3 0l1.7 -0.8l2.9 -1l3.7 -1l2.9 -0.3l1.9 0.4l1.9 0.7l2.6 1.5l1.6 1.2l2.3 2.3l1 1.2l1 0.8l1.9 0.6l2.9 1l1.5 0.2l4.7 0.3l1.9 0.6l6.3 1l2 0.5l2.2 0.9l2.4 1.3l3.8 2.5l2.9 2.4l1.2 2l0.4 2.4l0.1 2l0.2 1.1l1.8 2.7l2.2 1.5l1.8 0.5l1.2 -0.4l4.8 -5.1l0 -2.9l-0.6 -116.6l-9.2 -8l-1 -2.9l-16.5 -0.9l-52.5 10.9l-14.3 -0.5l-7.5 113.6z"/><path data-id="39003" d="m98.3 360l0.1 40.2l40.4 -0.3l0 8.9l26.7 -0.3l0 4.6l52.9 -0.5l0 -53.8l-0.1 -30.9l-26.7 0.2l0 4.5l-26.6 0.1l0 13.4l-53.7 0.6l0.1 13.2l-13.3 0.1z"/><path data-id="39005" d="m554.1 283.2l0.9 22.3l3.5 0l0.3 50.2l-1 1.9l3 4.7l4.5 0l-0.3 3.7l2.5 2.7l0.1 18.4l9.1 0.1l0.2 27l0.4 25.6l27.2 -4l-0.1 -8.1l-0.1 -22.3l22 -0.2l0.3 -66.9l-0.7 -4.5l-0.3 -28l-10.2 -0.1l0.4 -22l-38.4 -0.7l-23.3 0.1z"/><path data-id="39007" d="m887 78.4l0.3 3.5l0.2 44.7l-0.1 21.6l112.5 0.5l0 -9l0 -3.3l0 -32.6l0 -7.9l0 -9.9l0 -11.8l0 -4.1l0 -3.9l0 -26.3l0 -24.9l0 -4.6l0 -10.1l-8 2.6l-6.5 3.2l-32.3 11.8l-8.6 2l-5.6 2.1l-0.6 -1.5l-3.7 0.6l-1.8 2.5l-1.5 1.2l-19.9 9l-8.3 2l-8.7 1.3l-4.2 0.6l-2.4 0.4l-0.6 40.1z"/><path data-id="39009" d="m588.3 795.2l-2 26.8l8.9 0.6l-1.9 26.8l71.5 4.5l47.7 2.5l0.7 -1.2l2.6 -1.4l1 -1.3l0.9 -3.6l0.8 -1.8l0.7 -1l1.2 -16.3l-22.4 -0.9l0.4 -8.9l-4.4 -0.2l0.2 -4.4l-4.4 -0.2l2 -39.7l-49 -3l1.9 -27.4l-26 -1.7l-1.9 27.2l-26.3 -2l-2.2 26.7z"/><path data-id="39011" d="m84.6 400.2l0.1 35.8l0 4.5l0.1 31.2l-0.1 28.3l4.9 1.2l0.1 -7.2l22.1 -0.2l-0.1 -31.3l78.3 -0.6l2 -15.9l19.8 -0.1l6.6 -1l-0.1 -32.4l-52.9 0.5l0 -4.6l-26.7 0.3l0 -8.9l-40.4 0.3l-13.8 0z"/><path data-id="39013" d="m833.7 623.9l-0.8 25.3l51.2 2.4l45.5 3l1.1 -0.9l3.8 -1.8l1.6 -1.5l0.6 -1.1l0.1 -1.5l-0.9 -3.2l-1.9 -2.6l-0.9 -1.7l-0.7 -1.8l-0.1 -2.2l0.4 -1.4l1 -1.2l1.8 -0.3l3 0.8l2.4 1.8l1 0.5l1.3 0.2l1 -0.5l0.4 -1.1l-0.1 -2l-1.1 -2.6l-0.7 -5.3l0 -1.1l0.3 -1l1.1 -1.7l2.9 -2.1l1.4 -1.4l0.3 -4.3l-0.3 -2.7l-0.4 -3.6l0.3 -2.9l0.6 -1.7l0.1 -2.1l1 -1.7l0.4 -1.2l0.1 -2.8l-0.5 -3.7l-1 -1.9l-0.3 -2l0 -1.3l0.4 -1.3l1.4 -1.9l4.1 -3.2l1 -1.4l0.3 -1.2l0.2 -1.7l-0.4 -1.9l-0.6 -2.5l0.1 -4l0.6 -2l0.3 -2l0.3 -1l-14.3 0l-27.1 -1.3l-52.8 -2.5l-25.7 -1.4l-1.3 0.8l-1.9 66.5z"/><path data-id="39015" d="m178.4 978.7l1.9 0.2l5 -1.3l4 -1.5l2.5 -0.5l3.9 -1.5l3.9 -0.1l2 0.4l2.2 0.8l3.6 2.7l2.7 1.5l1 0l2.1 0.5l3.9 0.8l3.2 0.9l1.5 0.7l1.7 1l1.6 1.6l0.8 1.3l0.6 1.5l0.4 1.4l0.5 2.1l0.1 1l0.5 1.5l0.9 1.2l3.4 2.5l1.9 0.6l1.8 0.2l1.8 0.6l1.8 0.9l1.6 1.8l0.9 3.2l0.7 4.1l0.3 1.3l0.8 2.6l1.7 1.6l3.5 0.9l2.7 0.5l4.1 0.4l1.7 1.5l1.2 0.5l8.2 -113.6l-7.5 -0.3l-25.9 0.4l-12.9 -0.3l0.6 -10.2l0.9 -57.5l-29.6 -2.1l-1.1 19l-12.8 125.5z"/><path data-id="39017" d="m0.2 817.6l0 1.3l27 0.1l14.3 -0.1l2.7 -2.1l15.7 1.2l13.4 0.6l5 1.3l4.1 -0.4l26.1 3.2l2.7 -36.1l1 -13.2l-0.4 -5.2l0.2 -2.7l0.2 -4.3l1.1 -15.6l-7.6 1.4l-0.1 -13.8l-25.3 -0.2l-1.2 -0.3l0.1 6.7l-78.1 0.3l0 5.9l0 7.9l0 3.3l0 10.1l-0.4 25.8l-0.4 24.7z"/><path data-id="39019" d="m814.2 410.4l-0.9 26l13.2 0.5l-0.9 27l-0.4 13.2l12.2 0.5l27.3 0.3l36.8 1.8l0.4 -13.3l3.6 0.1l0.8 -27l13.3 0.3l0.4 -13.5l0.3 -13.2l-13.3 -0.3l0.2 -25.6l-39.5 -0.3l-25.9 -0.4l-9 1.7l-0.9 22.4l-17.8 -0.3z"/><path data-id="39021" d="m185.3 553.2l-3.1 43.7l53.2 3.9l67.7 5.2l2.9 -30.8l2.1 -34.7l-13.2 -1.2l-54.4 -4.8l0.3 -4.5l-53.6 -4.1l-1.9 27.3z"/><path data-id="39023" d="m178.8 645.6l-0.6 8.9l26.5 2l-0.4 4.5l26.5 1.9l-0.5 7.5l14.6 2l6.5 3l21.5 1.6l13.6 2.2l5.4 -24l12.3 -47.2l-1 -1.9l-67.7 -5.2l-53.2 -3.9l-3.5 48.6z"/><path data-id="39025" d="m116.3 843.5l2.5 4.4l5.8 -1.3l1.8 2.8l-2.8 5.2l-2.6 3.6l-3.7 35.1l-1.1 10.6l1.5 1.5l2.1 3.1l1.2 3.1l0.5 1.9l0.2 1.3l0.3 5.1l1.6 3.7l1.9 3.2l1.2 1.1l3.3 4.5l0.9 1l2.6 4.8l0.7 1.1l1.9 3l0.5 2.7l0 1.1l0.1 1.7l-0.4 6.4l0.1 3.3l0.5 3.6l0.3 1.2l1.1 2.7l0.8 1.2l2.1 2.4l1.7 0.9l1.7 0.5l9.9 1.8l4.8 1.6l4.5 2l1.6 1l3.4 1.2l5.3 1.4l1.9 -0.2l2.5 -0.1l12.8 -125.5l1.1 -19l-3.2 -0.3l-58.7 -4.7l-0.5 1.8l-4.8 3.7l-8.8 8.7z"/><path data-id="39027" d="m189.1 834l3.2 0.3l29.6 2.1l7.3 0.5l-0.3 6.7l5.1 0.1l2.9 -2.6l3.8 -9.4l45.1 -34.8l3.4 -49.9l-2.1 -0.2l-19.7 -1.6l-71.3 -5.7l-6.9 94.5z"/><path data-id="39029" d="m868 334.5l-0.1 52.5l39.5 0.3l-0.2 25.6l13.3 0.3l-0.3 13.2l26.7 0.7l0 4.2l18.5 0.3l0.5 -1.6l0.8 -1.2l1.7 -1.5l2.4 -2.2l1.3 -2.3l1.2 -1.5l1.7 -1.2l2.6 -0.5l2.8 -1l1.2 -0.1l1.1 0.5l2.5 2.5l1.6 0.4l1.1 -0.4l1 -0.6l1.7 -1.9l2.2 -1.6l1.2 -0.3l1.5 -0.7l1.6 -1.1l1.6 -0.1l1.6 -0.9l0 -47.1l0 -2.7l0 -14.7l0 -8.8l-0.2 -6.9l-70.2 -0.3l0.1 -8.9l-17.2 -0.1l-0.1 9l-44.3 -0.2z"/><path data-id="39031" d="m612.7 471.3l-2.7 65.2l3 0.1l-1 21.8l108.1 4.2l1.3 0.2l10.5 0.4l0.8 -21.8l10.4 0.4l1.5 -44.7l-22.4 -0.8l0.7 -22.6l-42.6 -1l-1.4 -0.2l-66.5 -2.3l0 1.1z"/><path data-id="39033" d="m396.9 305.4l0.3 89.3l4.8 0.1l54 -0.8l0 -2.3l30.5 0.4l0.6 -87.4l-24.3 -0.3l-5.5 0.9l-60.3 0.1z"/><path data-id="39035" d="m662.5 183.9l-0.2 11l21.9 0.2l-0.3 23.4l9.1 -0.2l7.3 -0.2l23.9 -0.4l4.7 0l3.4 0l18.6 -0.1l5.9 -0.1l-1.8 -7.7l-2.9 -1.9l-0.6 -10.5l-2.3 -2.6l14.3 0.2l4.4 0.1l15.7 0.3l13.6 0.3l0 -23.5l4 0l-0.1 -6.5l-3.8 0l0.1 -38.6l-22.5 -0.1l0 -5.7l-0.1 -13.4l-2.7 2.5l-6.8 2.8l-4.7 5.1l-3 3.3l-8.6 8.4l-7.9 6.3l-3.8 1.5l-3.5 1.3l-9.8 7.9l-0.8 1.1l-6.7 4.3l-1.4 0.4l-5.5 -1.4l-3.2 -1.4l-2.8 -0.2l-3.9 0.3l-6 1.9l-4.9 1.6l-4.6 0.3l-14.1 -2.5l-4.8 -2.2l-1 -0.8l-0.5 -1.3l-1 8.5l-0.2 28.3z"/><path data-id="39037" d="m1.8 632.9l0 1.5l76 -0.5l13.8 -0.3l-1.5 -79.3l0 -4.9l-0.5 -47.9l-38.3 0.3l-47.5 0.1l0 13l0 2.3l-0.4 24l-0.1 7.8l0 1.7l-0.1 3.7l-0.4 15.5l-0.1 6.6l-0.1 4.4l-0.2 13.3l-0.1 4.5l-0.2 8.8l-0.1 3l-0.2 20.6l0 1.7z"/><path data-id="39039" d="m3.7 177.2l0 12.5l0.1 29.9l0 5.8l80.5 -0.3l0 13.6l26.8 0.1l0 13.4l26.4 -0.1l-0.1 -81.1l-26.3 0.1l-107.5 0.5l0 4.5l0 1z"/><path data-id="39041" d="m365.4 473.9l0 60.9l17.7 0.1l0.5 30.8l35.6 1.9l1.3 0.1l1.4 0l7.9 0.4l48.7 2.8l2.6 -46l1.4 -22.1l-42.9 -2.6l1.1 -17.4l-22.6 -1.2l0.3 -4.6l-33.6 -1.6l-19.4 -1.5z"/><g data-id="39043"><path d="m484.6 116.7l2.3 2.5l5.5 3l3.1 -0.1l1.8 -2.7l0.7 -7.3l-3.2 2.1l-2.1 -0.3l-0.8 -1.7l-3.6 -0.6l-3.9 5.1z"/><path d="m434.3 161.7l-0.2 8.7l11.6 -0.1l12.9 0l0.7 21.1l0.7 22.4l116 2l-0.6 -21.6l0 -1.2l-0.7 -22l-3.2 0.6l-8.4 3.9l-7.7 5.3l-6.8 3.3l-4.8 1.5l-4.2 -0.1l-3.4 -0.8l-10.3 -4.9l-10.2 -6.6l-3.5 -2.2l-0.2 -1.1l-9.4 -9.3l-6.2 -8.5l-0.7 -1l-1.6 -0.6l-5.7 3.6l-4.6 1.4l-18.7 -2.2l-3.4 1.6l-18.6 6.5l-8.8 0.2z"/></g><path data-id="39045" d="m461 713.7l-1.3 28.1l25.9 2.1l0.3 -4.4l25.6 1.5l0.6 -13.5l28.2 1.7l1.3 -17.8l26.9 2l2 -26.5l-8.9 -0.6l1.8 -26.8l-17.6 -1.3l2.2 -28.2l-2.5 1.6l-69.6 -4.3l-2.2 -0.1l-6.6 -0.5l-0.5 8.9l4.4 0.3l-1.1 15.5l-0.8 11.1l-4.4 -0.4l-0.6 8.9l-3 42.4z"/><path data-id="39047" d="m271.3 694.9l-3.9 50.3l19.7 1.6l2.1 0.2l-3.4 49.9l50.7 0.4l24.6 -41.8l3.3 -54.1l-93.2 -6.5z"/><path data-id="39049" d="m363.8 594.5l-1.1 13.4l3.2 5.2l-1 5.1l5.7 11.5l-6.1 4.5l1.9 31.8l28.7 1.4l24.9 1l43.9 2.8l0.6 -8.9l4.4 0.4l0.8 -11.1l1.1 -15.5l-4.4 -0.3l0.5 -8.9l6.6 0.5l2 -11.1l1.5 -22.7l1.3 -22.7l-48.7 -2.8l-7.9 -0.4l-1.4 0l-1.3 -0.1l-35.6 -1.9l-0.1 11l-8.4 -0.2l-1 12.9l-0.4 5.2l-10 -0.1z"/><path data-id="39051" d="m97.8 84.8l0.3 27.7l4 0.1l0.1 31.9l9 -0.1l0 8.9l52.8 -0.2l53.9 -0.4l0.1 -34.9l1.2 -5.5l-0.7 -31.9l-4.5 0l-23 1l-4.8 0l-26.7 1.2l-52.5 2l-8.4 0.2z"/><path data-id="39053" d="m521.8 956.9l-1.7 19.5l23 2l-0.7 8.7l4.6 0.4l-1.3 17.6l27.4 1.8l-1.7 27l17.3 0.8l3 -3.3l2.9 -1.3l2.2 -0.2l1.5 0.1l5.5 2.1l3.9 -0.1l2.6 -0.4l1.2 -0.6l1.6 -1.3l1.1 -1.3l0.5 -1.4l0.7 -3.2l0 -2l-0.1 -1.1l-0.4 -1l-0.6 -2.9l-0.5 -1.8l-1.5 -3.2l-0.1 -2.1l-0.4 -1.8l-0.7 -2.3l0.2 -2.1l1.2 -3.5l0.5 -1.9l0.1 -1l-0.5 -2.1l-0.5 -2l-0.4 -3.5l-0.3 -1l-0.8 -1.1l-0.5 -3.4l-0.8 -1.6l-1.9 -1.9l-2.2 -1.3l-0.9 -1.6l-0.2 -1.8l0 -2.2l1 -2.5l1.8 -2.1l2.3 -1.8l1.9 -1.9l2.7 -0.7l3.2 -1.5l1 -0.7l3.2 -3.7l0.7 -1l0.8 -3.3l0.6 -4.1l-0.2 -1.6l-0.3 -1l-0.3 -1l-0.7 -1.9l0.2 -2.4l0.3 -1.9l2 -2.2l1.4 -1.3l1.8 -3.3l2.2 -3.4l0.2 -2.3l0.4 -1.6l2 -3l1.2 -14.1l-53.1 -3.1l0.2 -4.3l-26.1 -2.2l-4.6 56.9l-27.7 -2.7l-0.3 2.7z"/><path data-id="39055" d="m797 172.3l0 23.5l90.3 0.1l0 -47.7l0.1 -21.6l-0.2 -44.7l-22.9 0.3l0.2 22.7l-20.8 0l-24.1 0.1l-0.3 22.1l-22.1 0.1l-0.1 38.6l3.8 0l0.1 6.5l-4 0z"/><path data-id="39057" d="m165 724.6l-0.8 12.2l13.3 1.1l18.6 1.6l71.3 5.7l3.9 -50.3l1 -14.8l0.4 -2.2l-21.4 -2.5l-6.5 -3l-14.6 -2l0.5 -7.5l-26.5 -1.9l0.4 -4.5l-26.5 -2l-0.3 4.3l-8.8 -0.6l-0.9 13.5l-3.5 50.6l0.3 2.4z"/><path data-id="39059" d="m721.6 562.9l-2.9 66.9l8.7 0.3l-0.7 26.7l26.5 1.1l0.4 -17.7l26.6 0.9l0.3 -8.8l17.5 0.6l0.3 -8.9l8.9 0.2l26.5 -0.4l1.9 -66.5l-26.4 -0.6l0.4 -12.9l-66.2 -2.1l-10.4 -0.4l-0.8 21.8l-10.5 -0.4z"/><path data-id="39061" d="m0 842.3l0 2.6l0.1 18.3l0 2.6l0 13.1l1.5 -0.3l4.6 -1.9l1.4 -0.7l4.9 -6.9l2.9 -2.4l2.4 -0.2l2.8 0.9l1.4 0.7l1.8 1.5l1 1.3l2.8 4.1l2.2 3.4l0.6 1l1.1 1.1l1.8 0.7l2.6 0.1l2.1 0.7l1.6 1.1l4.2 4.5l2.1 0.7l3.6 0.4l1.5 -0.3l2.2 -1.2l4.7 -1.2l1.9 -1.6l1.5 -2.2l1.5 -1.3l1.7 -0.1l4.4 2.2l1.2 0l2.3 -0.5l1.8 -0.9l1.3 -1.1l2.1 -3.2l1.6 -1.8l1.1 -0.7l1.2 -0.6l2.2 -0.2l1.6 0.4l1.3 0.8l1.1 1l1.1 1.4l1.2 2.2l0.6 2.4l-0.5 2.2l0.5 2.6l-0.1 1.6l0.2 1.6l0.6 2.8l0.4 1l1.5 1.2l3.4 1.6l1 0l2 0.1l1.7 0l6.1 1.1l3.3 1.3l2.3 1.2l1.6 1.1l2.2 2.1l1.1 -10.6l3.7 -35.1l2.6 -3.6l2.8 -5.2l-1.8 -2.8l-5.8 1.3l-2.5 -4.4l8.8 -8.7l4.8 -3.7l0.5 -1.8l0.7 -1.7l-1.5 -3.6l-16.6 -1.5l-4.4 0.3l-26.1 -3.2l-4.1 0.4l-5 -1.3l-13.4 -0.6l-15.7 -1.2l-2.7 2.1l-14.3 0.1l-27 -0.1l0 10.1l0 2.9l-0.1 3.3l0 1l0 1l-0.1 5.1z"/><path data-id="39063" d="m218.3 251.6l0.2 76.3l0.1 30.9l84.7 0.5l0.3 -26.7l8.8 0l0 -13.4l4.4 0l0 -13.3l8.7 -0.1l-0.2 -42.7l0 -11.3l-107 -0.3z"/><path data-id="39065" d="m218.6 358.8l0 53.8l0.1 32.4l0 2.1l5.6 0.4l78.1 6.5l0 1.6l23.7 -0.4l0.7 -3.1l-1.1 -26.8l0.1 -12.4l0 -13.3l-4.8 -0.2l0 -4.5l-12.9 0.2l-0.1 -35.7l-4.6 -0.1l-84.7 -0.5z"/><path data-id="39067" d="m809.5 544l-0.4 12.9l26.4 0.6l1.3 -0.8l25.7 1.4l52.8 2.5l2.6 -67l1.4 -13.3l-17.8 -0.5l-36.8 -1.8l-27.3 -0.3l-12.2 -0.5l-1.2 39.7l-13.8 -0.3l-0.8 27.4z"/><path data-id="39069" d="m111.2 153.3l0.1 18l26.3 -0.1l0.1 81.1l80.7 -0.6l-0.5 -76.3l0.1 -22.7l-53.9 0.4l-52.8 0.2z"/><path data-id="39071" d="m220.9 893.8l-0.6 10.2l12.9 0.3l25.9 -0.4l7.5 0.3l14.3 0.5l52.5 -10.9l7.5 -42.7l2.3 -10.7l-0.3 -5.2l-4 3l-4.4 -2.7l-2.9 -5.5l4 -6.9l-2.2 -8.6l2.6 -8.5l0.5 -8.9l-50.7 -0.4l-45.1 34.8l-3.8 9.4l-2.9 2.6l-5.1 -0.1l0.3 -6.7l-7.3 -0.5l-0.9 57.5z"/><path data-id="39073" d="m483.4 769.8l-1.8 30.1l26.2 2l0.3 -4.3l27.2 2l0.7 -7.9l26.1 1.7l26.2 1.8l2.2 -26.7l26.3 2l1.9 -27.2l-24.3 -1.7l0.4 -8.6l-27.4 -1.9l1.2 -17.6l-26.9 -2l-1.3 17.8l-28.2 -1.7l-0.6 13.5l-25.6 -1.5l-0.3 4.4l-2.1 25.9z"/><path data-id="39075" d="m604.3 405.5l0.1 22.3l0.1 8.1l9.5 -1.5l-1.3 35.7l66.5 2.3l1.4 0.2l42.6 1l9.2 0.3l0.2 -57.8l4.6 -0.7l-0.2 -10.1l-52.7 0.3l-58 -0.3l-22 0.2z"/><path data-id="39077" d="m460 213.8l0.3 10.7l0.4 11.9l2.1 68l24.3 0.3l67.9 0.8l-0.9 -22.3l23.3 -0.1l-1 -22.3l-0.2 -15.5l-0.7 -4.4l0 -2.8l0.4 -22.4l-116 -2z"/><path data-id="39079" d="m472.9 859.9l-4.9 66.1l12.5 0.8l-1.7 27l25.7 1.7l17.3 1.4l0.3 -2.7l27.7 2.7l4.6 -56.9l2.5 -30.8l-26.9 -1.9l0.9 -10.9l-26.8 -2.6l0.3 -3.8l-26.2 -1.7l-0.9 12.1l-4.5 -0.3z"/><path data-id="39081" d="m902 466.5l-0.4 13.3l17.8 0.5l-1.4 13.3l-2.6 67l27.1 1.3l14.7 -0.7l3.9 -7.4l1 -1.2l2.1 -2l1 -2.2l0.4 -2l0.5 -3.9l0.6 -3.2l2.2 -4.6l1.7 -1.9l1.7 -1.2l3.4 -2.1l0.7 -1l0.7 -2.2l-0.1 -4l0.4 -2l1.9 -3.6l0.9 -1l0.7 -3.2l-0.1 -1.1l-0.6 -2l-1.8 -4l-0.5 -2l0.2 -2.3l0.7 -2.1l0.3 -2.3l-0.5 -1.6l-1.1 -1.2l-1.1 -0.9l-2.7 -1l-0.7 -1.7l0.3 -1l1 -0.7l3 -1.2l0.8 -1.3l-0.2 -1.2l0.1 -3.3l-0.2 -3.3l0.2 -1.7l1.8 -3.6l1.5 -3.5l0.5 -1.5l0.3 -2.4l-0.2 -1.2l-0.9 -2.2l-2.3 -2.1l-2.1 -3.8l-0.7 -3.1l-0.3 -2.5l-1.2 -4.7l-1.3 -0.9l-1.9 -3l-2.6 -4.3l-2.4 -2.3l-1 -1.1l-0.2 -1.4l0 -1.3l-18.5 -0.3l0 -4.2l-26.7 -0.7l-0.4 13.5l-13.3 -0.3l-0.8 27l-3.6 -0.1z"/><path data-id="39083" d="m482.4 502.8l-1.4 22.1l63.8 3.7l-0.3 5.8l30.4 1.7l15.2 0.3l2.5 -0.3l17.3 0.3l2.7 -65.2l0 -1.1l1.3 -35.7l-9.5 1.5l-27.2 4l-8.8 1.3l-57.8 0.3l-4.5 0l0 8.5l-0.9 54.1l-22.9 -1.4z"/><path data-id="39085" d="m774.5 108l0.1 13.4l0 5.7l22.5 0.1l22.1 -0.1l0.3 -22.1l24.1 -0.1l20.8 0l-0.2 -22.7l22.9 -0.3l-0.3 -3.5l0.6 -40.1l-1.9 0.3l-3.3 2.3l-6.4 2.2l-9.5 5.2l-4.7 1.6l-16.6 9.6l-14.9 7.9l-3.5 1l-3.8 -0.6l-1.6 -0.1l-3.4 3l-12 7.1l-8.2 6.4l-12.6 10.6l-5.4 7.5l-5.3 5.5z"/><path data-id="39087" d="m465.9 1038.4l3.7 2.2l2.4 1l2.4 0.3l3.7 -0.4l5.6 0.4l2 -0.1l1.4 0.5l1.2 1.2l1.3 0.9l3.3 1.8l2.3 2.5l3.3 6.1l2.4 2.9l2 2.7l2 1.9l2.5 1.8l1.9 0.8l1.3 0.6l1.3 0.8l1.1 0.8l1.3 1.9l1 2.4l0.8 6.7l0.9 3.2l0.8 1.5l1.3 1.9l1.9 1.6l2.5 1.1l2 0.6l1.7 0.2l3.1 0l2.5 -0.4l5.1 -1.6l4.9 -2.2l6.3 -2l2.9 -0.7l2.6 -0.8l7.3 -2.8l3.5 1.5l1.9 -0.1l5 -1.1l4.5 -0.7l2.4 -1.1l1.5 -1.4l1.4 -2.6l1 -3l0.3 -2.4l0.4 -2.1l1 -2.2l0.5 -1.7l0.3 -2.4l-0.2 -4l0.3 -1.6l0.6 -1.8l0.6 -1.2l0.5 -1.5l0.6 -6.5l-0.1 -3.7l0.6 -1.9l1 -1.1l-17.3 -0.8l1.7 -27l-27.4 -1.8l1.3 -17.6l-4.6 -0.4l0.7 -8.7l-23 -2l1.7 -19.5l-17.3 -1.4l-2.1 25.8l-0.9 4.4l-7.6 -0.6l-1.4 17.6l-1.1 4l-13.4 -0.7l-0.5 10.5l6 14.1l-4.2 1.9l-13.4 6z"/><path data-id="39089" d="m475.7 616.4l-2 11.1l2.2 0.1l69.6 4.3l2.5 -1.6l10.3 2.4l42.9 2.8l0.5 -11.5l7.7 0.3l0.9 -21.4l1.8 -44.4l1 -21.8l-3 -0.1l-17.3 -0.3l-2.5 0.3l-15.2 -0.3l-30.4 -1.7l0.3 -5.8l-63.8 -3.7l-2.6 46l-1.3 22.7l-1.5 22.7z"/><path data-id="39091" d="m188.3 512.6l-1 13.3l53.6 4.1l-0.3 4.5l54.4 4.8l4.3 -51l2.9 -32.8l0 -1.6l-78.1 -6.5l-5.6 -0.4l0 -2.1l-6.6 1l-19.8 0.1l-2 15.9l0.1 27.3l-0.7 1l0.3 23.6l-1.5 -1.3z"/><path data-id="39093" d="m574.7 171l0.7 22l0 1.2l0.6 21.6l-0.4 22.4l0 2.8l0.7 4.4l0.2 15.5l1 22.3l38.4 0.7l0.4 -22.7l22.2 0.2l0.4 -19.6l22.9 0l0.3 -23.2l22 -0.1l0.3 -23.4l-21.9 -0.2l0.2 -11l0.2 -28.3l0.3 -8.8l-4.7 -1.9l-1.4 -0.6l-4 -0.4l-11.6 3.9l-7.5 2.5l-16.6 6.4l-3.8 0.9l-1 -0.5l-0.6 1.7l-1.1 1.1l-14.3 9.3l-3.2 1.1l-5.4 0.7l-9.9 -0.6l-3.2 0.6z"/><path data-id="39095" d="m217.9 152.6l-0.1 22.7l6.7 0l2 -3.3l14.9 -7.5l2 -4.4l6.1 -0.8l3.4 -5.7l4.7 -2.5l2.1 -11.2l18 -12.7l3 -0.2l5.7 -9.4l4.2 -5l35.8 -0.6l41.3 -1.3l13 0l3.9 0l-6.7 -2.4l-4.9 -2.3l-3.7 -1.8l-1.5 -2.2l-9.4 -6.5l-2.8 -1.5l-0.8 -1.3l-7.6 -6.4l-2.6 -0.6l0 1.5l-0.9 1.6l-3.5 1.8l-4.3 0.3l-3.9 -1.6l-3.9 0.2l-7.7 -4.4l-1.5 -1.7l-1.5 -5.2l0.4 -1.6l-10.2 0.2l-1.4 0.1l-19 0.7l-2 0.1l-9.9 0.4l-3 0.1l-3.8 0.2l-4.5 0.2l-5.5 0.4l-12.6 0.5l-22.4 0.7l-4.8 0.4l0.7 31.9l-1.2 5.5l-0.1 34.9z"/><path data-id="39097" d="m272.3 680.1l-1 14.8l93.2 6.5l2 -35.4l-1.9 -31.8l6.1 -4.5l-5.7 -11.5l1 -5.1l-3.2 -5.2l1.1 -13.4l10 0.1l0.4 -5.2l1 -12.9l-69.1 -1.1l-2.9 30.8l1 1.9l-12.3 47.2l-5.4 24l-13.7 -1.3l-0.4 2.2z"/><path data-id="39099" d="m868 307.1l-0.1 26.6l44.3 0.2l0.1 -9l17.2 0.1l-0.1 8.9l70.2 0.2l0 -1.9l0.2 -4.4l0 -20.4l0 -2.5l0 -6.1l0 -14.2l0 -2.9l0 -1.3l0 -2.2l0 -2.6l0 -3.1l0 -1.4l0 -3.3l0 -2.8l0 -2.5l-62.8 -0.2l-49.5 0l0 22.2l0.2 22.9l-19.7 -0.1z"/><path data-id="39101" d="m325.5 412.9l-0.1 12.4l1.1 26.8l-0.7 3.1l39.6 -0.6l0 1.8l-0.1 17.4l19.4 1.5l33.6 1.6l0.9 -15.5l13.6 -1.9l0.1 -20.6l0.1 -23.8l22.8 -3.3l0.3 -18l-54 0.8l-4.8 -0.1l-44.9 0.3l0 4.6l-25.4 0l-1.4 0.1l0 13.3z"/><path data-id="39103" d="m615.8 283.8l-0.4 22l10.2 0.1l11.8 0.2l23.5 0.4l67.2 0.4l0.3 -45.4l0.5 -43.6l-4.7 0l-23.9 0.4l-7.3 0.2l-9.1 0.2l-22 0.1l-0.3 23.2l-22.9 0l-0.4 19.6l-22.2 -0.2l-0.4 22.7z"/><path data-id="39105" d="m580.6 902.1l-0.2 4.3l53.1 3.1l-0.8 13.3l0.9 -1.9l0.4 -1.9l1 -1.5l2.3 -1.5l2.4 -1.1l2.3 -1.6l1.7 -1.3l1.4 -2.8l1 -4.2l0.7 -1.4l2.7 -1.7l2.3 -0.5l2.4 0.1l1.1 0.5l1.7 1.6l0.8 1.2l1 1.9l0.8 1.9l0.2 1l0.2 1.9l1 0.9l2.2 -0.1l1.6 -0.4l2.2 -0.5l2.2 0.8l1.2 0.9l2.3 3.8l1.9 3.3l1.3 3.7l1.4 2.7l1.4 2.3l0.5 2.4l-0.3 1.3l-1.9 2.4l-2.2 2l-2.1 2.8l-0.4 1.8l0.3 1.2l2.6 2.2l1.3 1.5l2.7 1.4l1.3 0.2l4.1 -2.2l3.7 -2.7l2.4 -3.4l0.8 -2.6l0.2 -5.5l1.5 -2.5l1.5 -2l1 -0.7l1.7 -0.3l1.3 0.3l1.9 1.2l2.3 2.9l2.5 1.9l1 0.4l1.7 0.5l1 0.1l1.6 -0.5l0.9 -1.1l0.6 -1.7l-0.2 -1.1l-3 -3.5l-1 -0.9l-1.1 -1.3l-0.6 -2.3l0.4 -2.7l1 -2.4l-0.3 -1.3l0.3 -1.5l0.3 -1.1l1.6 -1.9l0.7 -1.9l0 -2.6l-0.7 -1.4l-1.3 -1.9l-3.2 -3.1l-1.6 -1.1l-1.6 -1.4l-2 -3l-0.6 -1.3l-0.4 -1.9l-0.2 -2.3l0.1 -1.7l0.7 -1.2l1.8 -0.2l1.1 0.3l1.7 0.9l1.2 0.4l1 0.1l1.4 -0.1l2.5 -1.1l1 -0.6l2 -1.7l1.2 -1.6l0.8 -2.1l0.2 -1.3l0.2 -3.1l-0.6 -3l-0.1 -1.2l0.1 -2.4l0 -2.8l-2.2 -6.9l-0.5 -1.7l0.1 -1l-47.7 -2.5l-71.5 -4.5l-8.9 -0.5l-3.8 53.3z"/><path data-id="39107" d="m3.6 483.8l0.1 17.9l47.5 -0.1l38.3 -0.3l-4.8 -1.3l0.1 -28.3l-0.1 -31.2l0 -4.5l-0.1 -35.8l0 -13.3l-80.4 0l0 2.9l0 4.9l0 3.4l0 5.1l0 4.4l0 4.7l0 22.2l-0.1 13.5l0 8l-0.3 11.1l-0.1 16.5z"/><path data-id="39109" d="m90.1 549.2l-0.9 4.9l2.4 79.3l62.4 -1l-2.2 3.3l2.3 7.9l24.7 1.9l3.5 -48.6l3.1 -43.7l-45.6 -3.5l0.1 -1.4l-18.6 0.5l-31.1 0.4z"/><path data-id="39111" d="m815.2 648.7l-1.3 49l9 0.1l-0.6 30.6l4.4 0.1l-0.3 8.6l4.3 -0.7l48.8 2.1l-0.4 9.7l2 -1.6l0.8 -1l0.6 -1.1l3.5 -3.1l2.8 -1.9l2.1 -2.4l2.1 -1.9l1.9 -2l6.2 -5.1l1.6 -1.7l2.5 -1.5l1.9 -0.4l2.6 0.1l2.3 0.5l1 0l2.8 -1.2l1 -1.9l1.2 -3.6l0 -1.1l0.2 -1.2l0.7 -1.7l0.2 -3.1l-0.3 -4.8l0.1 -1.4l0.1 -1l0.5 -1.6l2.2 -1.8l2.3 -0.6l1.3 -0.5l1.2 -0.7l1 -2.6l-0.4 -2.3l-1.2 -1.3l-2.2 -4.2l-1.5 -1l-3 -3.7l-0.5 -1.2l-0.5 -1.9l0.8 -2.4l0.8 -1l6.4 -4.7l2.1 -2.4l0.9 -4l-0.1 -4l-0.8 -3.3l-0.2 -1.8l0.6 -1.7l-44.8 -3.4l-51.2 -2.9l-17.7 -0.5z"/><path data-id="39113" d="m77.8 633.8l0.4 26.7l0.8 52.4l0.2 19.9l1.2 0.3l25.3 0.2l18.6 0.1l39.8 3.4l0.8 -12.2l-0.3 -2.4l3.5 -50.6l0.9 -13.5l8.8 0.6l0.3 -4.3l0.6 -8.9l-24.7 -1.9l-2.3 -7.9l2.2 -3.3l-62.4 1l-13.8 0.3z"/><path data-id="39115" d="m637.8 678.5l-0.8 13.1l13 0.9l-3.6 52.7l-1.8 -0.2l-1.9 27.4l49 3l4.4 0.3l0.6 -13.5l14.5 1.7l12.2 2.4l0.1 -2.6l0.7 -12.6l-4 -0.2l1.6 -15.6l6.2 -2.1l23.4 1.1l0.5 -23.2l-13.3 -0.5l0.8 -26.5l-13.4 -0.7l-75.1 -4.1l-1.3 0.2l-11.7 -0.8z"/><path data-id="39117" d="m418.3 477.1l-0.3 4.6l22.6 1.2l-1.1 17.4l42.9 2.6l22.9 1.4l0.9 -54.1l0 -8.5l4.5 0l-0.3 -26.8l-4.5 0l-0.2 -8.9l4.4 0.1l-0.2 -13.3l-14.4 -0.5l-8.8 -0.1l-30.5 -0.4l0 2.3l-0.3 18l-22.8 3.3l-0.1 23.8l-0.1 20.6l-13.6 1.9l-0.9 15.5z"/><path data-id="39119" d="m601.8 624l-0.5 11.5l16.6 1.2l-1.8 26.8l22.6 1.4l-0.9 13.7l11.7 0.8l1.3 -0.2l75.1 4.1l0.8 -26.3l0.7 -26.7l-8.7 -0.3l2.9 -66.9l-1.3 -0.2l-108.1 -4.2l-1.8 44.4l-0.9 21.4l-7.7 -0.3z"/><path data-id="39121" d="m726.7 656.8l-0.8 26.3l13.4 0.7l-0.8 26.5l13.3 0.5l-0.5 23.2l26.7 1.1l0.1 -18.9l4.9 0.2l-0.2 4.3l9.1 0.2l0 4.4l4.4 0.1l0 4.3l9 0.2l16.9 2.7l0.1 -4.2l0.6 -30.6l-9 -0.1l1.3 -49l17.7 0.5l0.8 -25.3l-26.5 0.4l-8.9 -0.2l-0.3 8.9l-17.5 -0.6l-0.3 8.8l-26.6 -0.9l-0.4 17.7l-26.5 -1.1z"/><g data-id="39123"><path d="m459.5 103l0.3 5.9l3.5 -1.7l3.2 -3.9l4.7 -5.8l2.4 -9.1l-0.8 -1l-5.7 -7.2l-2.3 -1.2l-1.2 0.5l-2.2 4.3l-2 19.2z"/><path d="m326.5 111.8l0.3 36.9l17.6 -0.3l0.2 13.6l62.9 0.1l6.7 -0.1l20.1 -0.2l8.8 -0.2l18.6 -6.5l3.4 -1.6l18.7 2.2l4.6 -1.4l5.7 -3.6l-3.6 -1.1l-0.9 -1.3l-1.4 -2.7l-0.3 -1.4l2.2 -3.9l0.2 -2.9l-1.6 -1.6l-7.4 -1.4l-5.1 1.8l-2.9 0l-2.4 -1.8l-6 -7.5l-3.2 -5.3l-3.2 0.6l-1.2 0.7l-1.5 2.2l1 3.8l-0.4 4.9l-2.9 4.4l-1.4 1.3l-3 2.2l-2.2 1l-8.5 1.5l-8.2 -3.1l-7 -4.4l-6.5 -5.3l-3.5 -3.8l-5.5 -8.5l-4.5 -3.5l-4.2 -2.1l-9.8 -1.4l-4.6 -1.7l-3.9 0l-13 0l-41.3 1.3z"/></g><path data-id="39125" d="m3.9 252.6l-0.1 7.4l0.1 5.9l0 9.9l0 24.6l0 6.2l93.9 -0.3l13.4 -0.1l0.1 -53.9l0 -13.4l-26.8 -0.1l0 -13.6l-80.5 0.3l0 24.3l0 2.8z"/><path data-id="39127" d="m548 630.2l-2.2 28.2l17.6 1.3l-1.8 26.8l8.9 0.6l-2 26.5l-1.2 17.6l27.4 1.9l-0.4 8.6l24.3 1.7l26 1.7l1.8 0.2l3.6 -52.7l-13 -0.9l0.8 -13.1l0.9 -13.7l-22.6 -1.4l1.8 -26.8l-16.6 -1.2l-42.9 -2.8l-10.3 -2.4z"/><path data-id="39129" d="m364.5 701.3l-3.3 54.1l63.7 3l3.2 1.7l-0.5 3.3l-4.1 3l59.9 3.5l2.1 -25.9l-25.9 -2.1l1.3 -28.1l3 -42.4l-43.9 -2.8l-24.9 -1l-28.7 -1.4l-2 35.4z"/><path data-id="39131" d="m341 851.2l-7.5 42.7l16.5 0.9l1 2.9l9.2 8l7.7 1.9l0.8 3.2l4.4 2.1l-0.5 6l1.2 3.5l39.2 1l10.2 0.2l44.8 2.5l4.9 -66.1l-12.7 -1l-70.8 -4.7l-48.5 -3z"/><path data-id="39133" d="m796.7 295.5l0 11.4l8.3 -0.1l35.9 0.2l1.7 -0.1l2.8 0l22.6 0.1l19.7 0.1l-0.2 -22.9l0 -22.2l-0.1 -20.6l-0.1 -21.9l-0.1 -23.5l-90.3 -0.1l0 22.2l-0.1 43.5l-0.1 10.9l-0.1 10.6l-0.1 7.9l0 4.7z"/><path data-id="39135" d="m1.2 739.7l78.1 -0.1l-0.1 -6.7l-0.2 -19.9l-0.8 -52.4l-0.4 -26.7l-76 0.5l-0.1 7.7l-0.1 5.6l-0.1 6l0 3.1l0 4.9l-0.1 3.9l0 4.4l0 3.9l0 18.2l-0.1 13.9l0 3.4l0.1 4l-0.1 8.1l-0.1 18.3z"/><path data-id="39137" d="m97.8 306.4l0.3 26.8l13.4 -0.1l0.1 13.7l53.7 -0.6l0 -13.4l26.6 -0.1l0 -4.5l26.7 -0.2l-0.2 -76.3l-80.7 0.6l-26.4 0.1l-0.1 53.9l-13.4 0.1z"/><path data-id="39139" d="m487.1 304.7l-0.6 87.4l8.8 0.1l14.4 0.5l0.2 13.3l-4.4 -0.1l0.2 8.9l4.5 0l0.3 26.8l57.8 -0.3l8.8 -1.3l-0.4 -25.6l-0.2 -27l-9.1 -0.1l-0.1 -18.4l-2.5 -2.7l0.3 -3.7l-4.5 0l-3 -4.7l1 -1.9l-0.3 -50.2l-3.5 0l-67.9 -0.8z"/><path data-id="39141" d="m331.6 830.1l2.9 5.5l4.4 2.7l4 -3l0.3 5.2l-2.3 10.7l48.5 3l70.8 4.7l12.7 1l4.5 0.3l0.9 -12.1l0.6 -8.9l2.7 -39.2l1.8 -30.1l-59.9 -3.5l4.1 -3l0.5 -3.3l-3.2 -1.7l-63.7 -3l-24.6 41.8l-0.5 8.9l-2.6 8.5l2.2 8.6l-4 6.9z"/><path data-id="39143" d="m326.8 148.7l-1.2 76.3l22.5 -0.3l17.1 0.6l27.4 -1l67.8 0.3l-0.3 -10.7l-0.7 -22.4l-0.7 -21.1l-12.9 0l-11.6 0.1l0.2 -8.7l-19.8 0.2l-7 0.1l-62.9 -0.1l-0.2 -13.6l-17.6 0.3z"/><path data-id="39145" d="m360.2 905.7l0.6 116.6l0.2 2l1.5 -1.3l1.5 -0.2l2.1 -1.3l1.4 -0.2l1.7 0.3l2.2 1l2.8 1.7l2 0.5l2.6 -0.2l4.4 -0.8l1.8 0.1l1.8 -0.1l3.3 -1.3l1 -1l0.8 -1l1.4 -2.5l0.6 -1.5l0.9 -4.2l1.1 -2l1.3 -1.7l1.1 -1.1l1.1 -0.6l4.3 -1.1l4.6 -2.3l2.6 -2l1.9 -2.9l1.5 -3.2l0.6 -1.1l0.7 -1.1l1.1 -0.9l1.4 -0.5l2.3 -0.4l2.9 0.2l1.2 0.2l1.8 0.7l1.6 0.1l2.5 -0.8l2.3 -1.8l3.7 -2.5l4.5 -2l6.9 -1.9l1.2 0.1l2.3 1.4l0.9 1.3l0.7 1.4l0.3 1l0.3 3.3l-0.1 1.8l-0.2 1.1l-1 4l-0.4 2.3l-0.2 2.1l0.6 2.2l1.2 1.4l1.5 2.7l0.9 2.6l0.7 4.3l-0.1 3.9l0.2 3.6l0.3 2.2l0.7 2.7l1 2.7l0.7 1.3l1.1 1.4l4.5 4l1 0.6l13.4 -6l4.2 -1.9l-6 -14.1l0.5 -10.5l13.4 0.7l1.1 -4l1.4 -17.6l7.6 0.6l0.9 -4.4l2.1 -25.8l-25.7 -1.7l1.7 -27l-12.5 -0.8l-44.8 -2.5l-10.2 -0.2l-39.2 -1l-1.2 -3.5l0.5 -6l-4.4 -2.1l-0.8 -3.2l-7.7 -1.9z"/><path data-id="39147" d="m325.3 251.9l0 11.3l0.2 42.7l26.8 -0.3l44.7 -0.2l60.3 -0.1l5.5 -0.9l-2.1 -68l-0.4 -11.9l-67.8 -0.3l-27.4 1l-17.1 -0.6l-22.5 0.3l-0.3 27z"/><path data-id="39149" d="m89.7 501.2l0.4 48l31.1 -0.4l18.6 -0.5l-0.1 1.4l45.6 3.5l1.9 -27.3l1 -13.3l1.5 1.3l-0.3 -23.6l0.7 -1l-0.1 -27.3l-78.3 0.6l0.1 31.3l-22.1 0.2l-0.1 7.2z"/><path data-id="39151" d="m737 405.4l0.2 10.1l22.1 -3.1l20.1 -3.3l1.9 -3.3l4.9 1.2l-2.1 2.9l30.1 0.6l17.8 0.3l0.9 -22.4l9 -1.7l25.9 0.4l0.1 -52.5l0.1 -27.4l-22.6 -0.1l-2.8 0l-1.7 0.1l-35.9 -0.2l-8.3 0.1l-5.4 0l-0.9 25.2l-27 -1.2l-25.9 -1.1l-0.1 27.1l-0.5 48.4z"/><path data-id="39153" d="m728.4 261.5l-0.3 45.4l9.5 0l0 22.9l25.9 1.1l27 1.2l0.9 -25.2l5.4 0l0 -11.4l0 -4.7l0.1 -7.9l0.1 -10.6l0.1 -10.9l0.1 -43.5l0 -22.2l-13.6 -0.3l-15.7 -0.3l-4.4 -0.1l-14.3 -0.2l2.3 2.6l0.6 10.5l2.9 1.9l1.8 7.7l-5.9 0.1l-18.6 0.1l-3.4 0l-0.5 43.6z"/><path data-id="39155" d="m887.3 195.9l0.1 23.5l0.1 21.4l0.1 21.1l49.5 0l62.8 0.2l0 -3.7l0 -7.9l0.1 -11.7l0 -3.1l0 -4.1l0 -5l0 -5l0 -12.4l-0.1 -2.1l0 -6.5l0 -1.2l0 -1l0 -6.5l0 -3.4l0 -2.1l0.1 -11.6l0 -2.3l0 -3.6l0 -1.6l0 -6.8l0 -8.2l0 -3.4l-112.5 -0.5l0 47.7z"/><path data-id="39157" d="m723.2 473.7l-0.7 22.6l22.4 0.8l-1.5 44.7l66.2 2.1l0.8 -27.4l13.8 0.3l1.2 -39.7l0.4 -13.2l0.9 -27l-13.2 -0.5l0.9 -26l-30.1 -0.6l2.1 -2.9l-4.9 -1.2l-1.9 3.3l-20.1 3.3l-22.1 3.1l-4.6 0.7l-0.2 57.8l-9.2 -0.3z"/><path data-id="39159" d="m299.3 488.3l-4.3 51l13.2 1.2l-2.1 34.7l69.1 1.1l8.4 0.2l0.1 -11l-0.5 -30.8l-17.7 -0.1l0 -60.9l0.1 -17.4l0 -1.8l-39.6 0.6l-23.7 0.4l-2.9 32.8z"/><path data-id="39161" d="m3.9 306.7l0.1 20.6l0.2 37.5l-0.1 10.8l0.1 7.1l0 4.3l80.4 0l0 13.3l13.8 0l-0.1 -40.2l13.3 -0.1l-0.1 -13.2l-0.1 -13.7l-13.4 0.1l-0.3 -26.8l-93.9 0.3z"/><path data-id="39163" d="m478.9 839.2l-0.6 8.9l26.2 1.7l-0.3 3.8l26.8 2.6l-0.9 10.9l26.9 1.9l-2.5 30.8l26.1 2.2l3.8 -53.3l8.9 0.5l1.9 -26.8l-8.9 -0.6l2 -26.8l-26.2 -1.8l-26.1 -1.7l-0.7 7.9l-27.2 -2l-0.3 4.3l-26.2 -2l-2.7 39.2z"/><path data-id="39165" d="m105.8 733.3l0.1 13.8l7.6 -1.4l-1.1 15.6l-0.2 4.3l-0.2 2.7l0.4 5.2l-1 13.2l-2.7 36.1l4.4 -0.3l16.6 1.5l1.5 3.6l-0.7 1.7l58.7 4.7l6.9 -94.5l-18.6 -1.6l-13.3 -1.1l-39.8 -3.4l-18.6 -0.1z"/><path data-id="39167" d="m691.7 775.3l-2 39.7l4.4 0.2l-0.2 4.4l4.4 0.2l-0.4 8.9l22.4 0.9l-0.9 16.1l1.5 -0.5l1.7 -0.5l2.5 -0.5l1.5 -1l0.7 -1.2l-0.2 -2.5l-0.8 -2l-0.2 -1l0 -3.3l1 -1.9l2 -2.3l1.2 -0.8l1.9 -0.7l3.3 -0.4l3 0l5.1 1.1l1.7 -0.5l1.3 -0.2l1.2 0.2l1.9 0.6l1.5 1.1l4.3 0.6l1.2 -2.6l0 -5.3l1.1 -7.2l0.1 -3.9l0.5 -2.4l3.5 -4.2l1.8 -1.6l2.4 -1l2.5 -1.6l2.4 -1.9l3.3 -3.3l1.4 -1.7l2.3 -3.2l1.3 -1.1l2.7 -1.7l2.2 -0.3l2.5 0.6l1.6 0.9l1.9 1.5l1.8 1.8l1.4 2l0.9 3.4l0.5 2.3l1.1 4.1l0.5 1.2l2.2 2.5l1.1 0.4l2 0l3.3 -0.3l2.2 -0.8l1.1 -0.7l1.6 -1.4l2.2 -1.6l1.5 -0.9l3.4 -2.8l1.7 -1.2l3.7 -1.5l1.3 -1.4l1.2 -0.6l2.5 -0.2l2.5 -1l1.7 -0.1l4.2 1.3l1.4 -0.4l1 -0.9l0.5 -1.9l-0.1 -1.5l0.7 -1.6l0.7 -1.1l1.1 -1.4l2.3 -2.5l1.1 -2.2l1.4 -1.3l2.2 -1.2l1.7 -0.6l2.6 -0.6l3.3 -0.2l1.3 -0.8l1.8 -2.1l0.8 -1.3l1.5 -2.6l3.4 -6.3l2.2 -3l3.6 -3.8l1.2 -1.9l2.4 -2l2 -2l1.7 -2.1l1.4 -1.1l0.4 -9.7l-48.8 -2.1l-4.3 0.7l0.3 -8.6l-4.4 -0.1l-0.1 4.2l-16.9 -2.7l-9 -0.2l0 -4.3l-4.4 -0.1l0 -4.4l-9.1 -0.2l0.2 -4.3l-4.9 -0.2l-0.1 18.9l-26.7 -1.1l-23.4 -1.1l-6.2 2.1l-1.6 15.6l4 0.2l-0.7 12.6l-0.1 2.6l-12.2 -2.4l-14.5 -1.7l-0.6 13.5l-4.4 -0.3z"/><path data-id="39169" d="m625.6 305.9l0.3 28l0.7 4.5l-0.3 66.9l58 0.3l52.7 -0.3l0.5 -48.4l0.1 -27.1l0 -22.9l-9.5 0l-67.2 -0.4l-23.5 -0.4l-11.8 -0.2z"/><path data-id="39171" d="m3.3 87.8l0 6.7l0.1 13.1l0 5l0 1.1l0.3 25.7l0 9.2l0 3.8l0.1 16.3l0 2.9l107.5 -0.5l-0.1 -18l0 -8.9l-9 0.1l-0.1 -31.9l-4 -0.1l-0.3 -27.7l-9 0.3l-72.5 2.1l-13 0.7z"/><path data-id="39173" d="m217.8 175.3l0.5 76.3l107 0.3l0.3 -27l1.2 -76.3l-0.3 -36.9l-35.8 0.6l-4.2 5l-5.7 9.4l-3 0.2l-18 12.7l-2.1 11.2l-4.7 2.5l-3.4 5.7l-6.1 0.8l-2 4.4l-14.9 7.5l-2 3.3l-6.7 0z"/><path data-id="39175" d="m303.5 332.6l-0.3 26.7l4.6 0.1l0.1 35.7l12.9 -0.2l0 4.5l4.8 0.2l1.4 -0.1l25.4 0l0 -4.6l44.9 -0.3l-0.3 -89.3l-44.7 0.2l-26.8 0.3l-8.7 0.1l0 13.3l-4.4 0l0 13.4l-8.8 0z"/></svg>
