<?xml version="1.0" encoding="UTF-8"?><!DOCTYPE svg PUBLIC '-//W3C//DTD SVG 1.1//EN' 'http://www.w3.org/Graphics/SVG/1.1/DTD/svg11.dtd'><svg viewBox="0 0 1000 1158.27" xmlns="http://www.w3.org/2000/svg"><path data-id="13001" d="m641.1 817.4l0 3.2l6.3 0l-0.2 6.3l5.4 0.1l4.9 7.5l5.4 5.1l3.2 0.3l5.1 4.7l3.9 0.3l8.5 4.2l6.4 6.5l10.1 5.5l6.3 4.2l2.7 5.9l1.6 3l13.4 11.7l4.7 0l0 -21.2l-3.2 0.1l0 -2.9l3.1 0l0 -46.6l0 -3.8l9.1 0l0 -3.1l-3.7 0l0.1 -3.4l4 0.1l0 -5.3l2.7 -2l5.4 0.5l-12.3 -9.1l-1 -9.1l-1 3.3l-3.8 -0.9l0.4 -4.1l-2.1 2l-4.8 -1.1l-5.1 0.8l-0.4 -1.5l-6.9 -1.6l-1.7 -1.5l-2.9 1l-2.7 -4.3l-6.7 -2.5l-4.8 2.9l-1.8 -0.9l-11.6 -2.6l1.4 -2.2l-6.3 -1.6l-1.1 2.7l-0.2 -1.5l-4.9 -2.6l0 31.7l-18.4 -0.1l-0.3 22l-6.4 0z"/><path data-id="13003" d="m517.3 898.4l-0.2 4.1l5.5 4.4l0.9 4.5l6.1 4.5l4.6 4.9l0.2 6.4l5.3 7.1l-3.6 10.5l0.8 11.9l15.9 -0.1l62.9 0.1l-4 -9.7l-2.1 0l0.4 -13.5l7.5 -2.4l7.1 3.2l0.1 -21.9l-39.6 -0.1l-2.5 -3.2l-2.1 -5.9l-24.9 -0.3l-0.1 -3.5l-38.2 -0.8z"/><path data-id="13005" d="m625 836.3l-0.2 28.2l6.7 0.1l-0.3 21.8l21.6 0.1l0.2 6.3l2.6 0l0 6.3l13.5 0.1l3.2 0l0.1 -3.2l11.9 0l0 -2.9l3 -0.1l0.1 -3.7l3.1 0l0 -2.7l3 0l0 -6.2l6.5 0.1l0 -3.2l2.9 0.1l0 -3l3.6 -0.1l-0.1 -3.2l2.7 0l-2.7 -5.9l-6.3 -4.2l-10.1 -5.5l-6.4 -6.5l-8.5 -4.2l-3.9 -0.3l-5.1 -4.7l-3.2 -0.3l-5.4 -5.1l-4.9 -7.5l-5.4 -0.1l0 9.4l-22.2 0z"/><path data-id="13007" d="m203 920.1l-0.8 18l21.9 0.7l-1.2 43.4l7.3 0.2l0.3 -11l9.7 -10.5l8.5 -7.7l1.7 1.8l1.6 -2.2l-1 -2.7l3.2 -4.8l5.7 -2.5l1.4 -4.7l4 -4.8l1.1 -3.2l-1.1 -3.3l5.8 -4.2l9 -2.6l0.6 -2.2l2.6 1.4l4.6 -1.4l1.7 -3.6l5.1 0.1l1.4 -9.1l3.9 -1.3l-0.3 -3.1l5 -0.8l2.5 -6.5l-14.8 1.1l-45.8 -0.2l-3.8 0l2.5 -1.2l-2.5 -3.2l-4.4 1.6l0 2.3l-4.7 0.8l0 1.9l-11.7 -1l-19.1 -0.5l-0.1 22.7l2.2 2.4l-2.2 0z"/><path data-id="13009" d="m458.9 462.1l-2.2 -2l3.4 20.1l4 15.5l2.9 11.3l4.8 18l14.7 -6.4l2.4 2.5l1.6 -4.2l13.1 -6.2l9.2 3.5l-3.6 -4.5l6.7 -5.3l2.8 0.4l2.1 1.4l2 7.2l8.5 6.6l1.1 -7l4 -2.8l-0.5 -4.4l-3.4 -6.1l4.8 -8.3l-1.5 -5l-4.5 4.2l-2.1 0.1l-3.6 3.5l-3.8 -9.3l1.2 -2.8l0.8 -7.9l2.2 -0.8l0.3 -4.7l-20.5 -6.2l-14.3 -3.2l-2.2 0.5l-3.5 -0.8l-5.9 1.8l-2.6 3.9l-6.7 -3.2l-0.1 2.8l-5.9 -3.6l-5.7 1.5z"/><path data-id="13011" d="m409.2 153.4l-3 8.6l3.8 5.7l0.5 5.6l6.1 6.7l12.3 10.8l6.2 -0.9l8.8 -0.1l2 -1.3l16.4 16.4l6.1 -2.2l3.8 -4.5l3.6 -9.4l-11.8 -16.2l2.3 -17.3l0 -9.2l-3.3 -8.1l-3.2 -1.8l-9.7 -3.3l-2.1 -0.7l-10.2 -1.4l-4 -0.6l-3.1 1.5l-6.9 8.4l-6.3 5.4l-8.5 8.1z"/><path data-id="13013" d="m365.3 251.4l-0.9 2.3l6.7 5.6l2.7 4.5l2.4 2.8l2.9 5.9l7.9 8.8l3.6 -2.7l4.4 1.4l9.8 -4.4l6.2 2.9l16 -10.6l7.1 -4.6l-5.4 -16.7l-3 -2l-4.9 1.1l-3 -3l-10.2 -1.3l-3.4 1.2l-4.5 -1.7l-2.2 2.1l-2.6 -4.4l-2.1 -1l-6.5 0.6l-5.6 -5.7l-0.2 -3.2l-4.1 -3.2l-1.2 -3.7l-3.2 9.4l-6.7 19.5z"/><path data-id="13015" d="m117.2 230.4l0 3.4l26.1 0.1l5.4 0l7.9 0l24.8 0.1l8.1 1l9 0.1l0.3 -31.6l0.8 -6.3l-0.1 -30.3l2 -2.1l-2 0l0.2 -14.6l-16.9 -0.1l-0.1 4.2l-13.6 -0.2l-8 -0.1l-5.4 0.3l-18.8 -0.6l-0.3 3.8l-5.4 -3.4l-0.1 3.3l-2.6 -2l-2.8 0.1l0.1 11.5l-3.7 0l0 7.7l-0.1 14.9l1.7 1.8l-1.8 0l0 9.6l-4.4 -0.1l-0.1 11.7l-0.3 18z"/><path data-id="13017" d="m446 793.2l-0.9 2.9l5.3 10.2l1.2 9l17.5 0.2l0.1 -3.1l6.3 0l0 3.2l3.1 0l-0.1 18.7l12.6 0.2l-0.2 6.3l18.7 0.6l0.2 -6.6l37.4 1.3l0.6 -26.6l-2.1 1.6l-4.7 -0.9l-2.3 -3l-2.9 0.3l-6.8 -5.5l-3 0.8l-8.3 -1.5l0.9 -2.4l-3.6 -0.2l-0.1 -1.7l-5.3 -4l-1.2 -1l-5.6 1.8l-49.2 -0.6l-7.6 -0.1z"/><path data-id="13019" d="m456 919.9l-1.3 4l2.1 5.7l4.1 1.6l5 7l4.1 2.3l4 -0.8l2.3 1.9l0.8 7l-0.4 6l6 6l0.2 4.7l-3.7 7.3l0.2 5.2l3.1 1.1l2.1 5.1l3.5 2.1l-3.2 8.8l20.4 0.5l0 -9l6.4 -0.1l0.5 -20.8l26.6 0.1l-0.4 -5.2l-2.1 -3.8l-0.1 -11.9l3.6 -10.5l-5.3 -7.1l-0.2 -6.4l-4.6 -4.9l-6.1 -4.5l-0.9 -4.5l-5.5 -4.4l0.2 -4.1l-2.2 -10.1l1.2 -2.6l-40.5 -0.9l-6.5 2.7l-0.3 15.7l-6.1 6.1l-5.5 3.1l-0.9 3.2l-0.5 4.4z"/><path data-id="13021" d="m359.6 544.5l0 7.3l2 0.2l1.2 2.9l4.2 3.3l0.7 2.9l9.1 13l7 2.8l8.5 6.3l7.4 0.4l2.3 1.3l5 3.1l4.9 0.8l3.5 0.5l1.5 1.4l3.1 0.8l1.5 -0.9l-2.8 -6l2.9 -5.9l-1.1 -7.3l5 0.8l16 -15.7l2 -1l0.7 -4.7l-5.1 -5.2l-2.1 0.9l-8.7 -9l-2.8 3l-4.4 -5.7l-12.4 0l-1 -2.7l-2.4 -1.1l-4.5 -3.5l-1 -6.8l-2.1 -2.2l-4.9 0.1l1.7 1.9l-29 20.1l-1.9 1.3l-4 2.8z"/><path data-id="13023" d="m445.2 654.8l-2.9 1l27.3 28l4.5 4.1l0.1 -2.8l2.9 -0.1l10.1 -10l-4.4 -4.4l27.6 -27.5l7.2 7.3l-8.5 -18.6l-9.9 -21.5l-36.4 20.9l-2.5 -0.5l0.7 1.6l-18.7 10.8l3.2 6.9l-0.3 4.7z"/><path data-id="13025" d="m696.9 946.5l0.1 7.9l6.8 2.3l3.7 3l5.3 -0.1l0.1 21.1l9.4 8.9l6.7 9.3l9.3 0.1l1.3 -0.2l4.2 -15.9l26.2 6.8l-0.2 -3.1l2.3 -0.2l-0.3 -4.2l2.4 -4l5.5 -1.4l10.3 0.8l4.5 -9.5l3.7 -3.6l2.8 -0.2l4.6 -4.3l-3.1 1.1l3 -8.9l1.9 -9.9l2.2 -9.7l3 -4.9l0.2 -7.1l-6.9 -4.4l-7.7 -3.8l-9.3 2.2l-16.4 2.2l-22.6 -5l-2.1 -1.8l0.1 2.7l4.3 8.7l3.2 4l2.7 0.7l-1.1 4.7l-2 2.9l-3.2 -0.4l-6.2 1.9l-3.8 -1.3l-6.3 -0.1l-6.9 5.3l-2.7 0.7l-0.2 6.3l-3.4 2.6l-2 -0.3l-4.4 3.8l-6.9 -4.5l-8.9 0.9l-3.3 -1.8z"/><path data-id="13027" d="m391 1064.6l-0.3 20.4l14 0.9l13.7 0.9l23.5 1.4l10.7 0.8l1.9 0.1l2.2 0.1l8.3 0.5l2.2 0.2l4.6 0.3l-1.1 -5.2l-6.6 -4l-3.8 0.3l-1.1 -2.9l-4.6 -0.7l-6.1 -7.3l0.2 -3.2l-3.6 -5.1l5.9 -3.3l-0.5 -3.1l2.7 -6.4l-0.6 -3.2l5 0.6l2.5 -3.3l3.7 0.8l6.5 -2.9l2.9 -1.1l0.9 -2.7l-1.9 -4.7l-2.8 -2.9l-6.4 0l-3.8 -1.3l-4.7 -3.7l0.5 -8.4l1.7 -2.5l-2.9 -8.9l-4.3 -5.1l-1 -5.5l-1.5 -0.9l-6.8 -4l-9.1 -1.5l-4.9 -5.8l0.2 10.8l-34 -0.9l-1 53.7l-0.3 18.6z"/><path data-id="13029" d="m802.6 717.5l0.7 5.2l2.9 3.5l1.5 3.2l3.2 0l4.7 3.8l5.4 0.3l3.4 3.4l0.8 2.6l4.5 1.4l10 12.3l2 4.1l0.2 5.1l3.1 -0.3l3 3.2l8.8 0.1l2.5 -2.5l5.7 0.6l1.5 -1.9l2.5 6l7.8 2.8l4 -1.4l0.6 1.8l5.6 21.8l4.8 4.7l2.1 1.4l2.4 -4.1l1.1 4.3l2.5 1.2l-0.8 2.3l1.9 4.7l7.1 -1.2l1.9 2.5l-0.5 4.4l2.3 3.3l8.2 2.5l4.7 4.3l1.2 -1.8l6.7 1.3l1.3 0.5l-1 -4.9l-2.9 -4.4l2.4 -3.8l-0.3 -2.1l-3.4 -0.9l0.6 -6.1l3.6 -1.9l0.4 -2.7l4.1 -5.1l-3 -1.7l-1.8 -6.3l-4 -3.2l-5.9 3l-1.8 -2.3l4.9 -2.8l0.5 -2.6l-2.6 -0.7l-7.4 8.7l-0.9 -1.2l2 -4l-1.6 -1l-3.8 1.6l0.3 -5.1l-3.2 0.2l0.1 -3.4l-2.8 -1l-1 -8.9l-4 -1.5l1.1 -3.6l-6.4 -7.1l-6.8 -5l-3.7 -7.8l-0.5 -2.7l-1 -1.4l-3.2 -1.5l1 -12l-1.3 -0.4l-2.2 -11.1l0.6 -3.8l-2.7 -1l-1.6 -6.3l-39.7 12.8l-32.8 9.1z"/><path data-id="13031" d="m751 617.6l-0.7 4.1l12.4 6.4l-1.2 3.8l0.1 5.1l3 6.2l4.7 4.4l0 2.3l4.4 2.6l-2.8 10.3l-5.2 21.8l-2.5 4.3l3.3 0.5l7.3 -1.9l5.4 -0.1l7.4 4.3l3.3 4.1l5.3 0.9l2.2 4.2l0.8 5.9l2 0.9l3 7.7l-0.5 2.3l32.8 -9.1l39.7 -12.8l-0.8 -8.3l-2.1 -2.1l0 -3.3l-4.5 -8.2l-3.6 -1.1l-0.6 -4.4l-3.5 -1.5l-0.4 -3.4l-2.3 -1.3l-0.6 -4l-2.4 -0.2l0.3 -3.3l-1.9 -2.6l1.6 -1.2l-0.8 -3.1l2.8 -3.7l-1.2 -4l-2.3 0l1.4 -3.7l-2.5 -2.1l-6.4 -5.8l-1.6 0.1l-1.9 0.9l-7.1 -4l-2.2 -2.1l-1.9 1.2l-1.7 -3.1l-5.5 -2.3l-1.4 0.7l-4.1 -4.9l-5 -2.6l-4.5 -6.4l-4 -1.2l-4.3 -5.4l-1.4 -3.2l-7 -3l-1.5 1.1l-21.6 6.8l-12.1 3.8l-5.4 12.9z"/><path data-id="13033" d="m690.2 547.6l3.3 2.3l9.3 0.7l8.9 5l11.8 -3l2.7 0.8l-0.6 -1.8l5.1 -16l8.9 -8.3l26.2 -1.7l20.8 -7.5l15.4 6.3l3.4 4.7l47.2 -34l-2 0.1l-1.1 0l-0.6 -1l0.1 -1l-1.1 -0.7l-1.2 0.5l-1.9 -1.4l-1.2 -2l-1 -1l-1.3 0.2l-1 -0.5l0 -1.2l0.2 -1.1l-1.1 -0.9l-1.2 0.7l-0.1 -1.3l-0.3 -1.4l-1.5 -0.7l-3 0.3l-1 0.3l-1.1 -0.1l-3.4 -2.6l-5.3 -2.4l-2.8 -1l-1.3 0.1l-2.9 -2l-1.5 -1.4l-4.1 -3l-2.4 -2.5l-1.7 -2l-0.3 -1.5l-0.5 -1.3l-1.2 -2.4l1.4 -1.9l1.1 -0.4l0.8 -2.2l-0.9 -1l-1.3 -3.5l-1.4 -1.3l-1.3 0l0.6 1.5l-0.3 1.3l-1.2 0.4l-1.2 -0.1l-3.1 -0.8l-0.5 -2l-0.7 -1.1l-1.7 -0.7l-1.7 -0.5l-0.8 -1.2l-1.1 -1.1l-2 -1l-1.1 -1.4l-7.1 -3.6l-10.2 2.2l-9.4 6.5l-13.8 -2.3l-3.1 -1.6l-5.9 3.1l-2.7 -0.4l-5.1 -4.5l-1.8 -6.6l-2.4 -1.6l-3.2 -1.7l-1 -1.8l-1.9 -0.2l-19.6 7.4l3.8 3.5l2.3 5.4l1.3 0.2l-7.2 19.5l-3 10.8l-2.1 11.9l4 31.3l-4 12.3l-5.3 13.2z"/><path data-id="13035" d="m311.2 443.2l-0.2 12.5l17.3 0l38.3 0.5l3.5 0.9l4.3 4.1l3.1 -3.1l-3.9 -4.5l2.4 -8l-3.9 -7.7l1.1 -4.8l-1.8 -3.6l-0.9 -5.7l-4.8 -3.4l0.1 -6.5l-0.2 -2.1l-6.5 -5l-3.6 -5.3l-2.4 -6.7l-1.9 0.6l-2.3 4.2l-6.2 4.5l1.8 8.1l-14.2 3.4l-0.2 4.7l-2 0.4l-3.9 7.9l-4 1.9l-3.6 0l-1.1 1l2.9 3.1l-2.9 3.4l-4.2 4.9z"/><path data-id="13037" d="m164.8 878.5l0 2.4l2.7 0l2.2 -2.4l-0.1 6.8l-2.2 0.1l3.8 5.3l0.1 3.7l31.8 0.6l19.1 0.5l11.7 1l0 -1.9l4.7 -0.8l0 -2.3l4.4 -1.6l2.5 3.2l-2.5 1.2l3.8 0l3.6 -5l-4.2 -12.4l-3.1 -9l-1.6 -1l-0.4 -9.4l2.1 -4.4l-0.7 -4.3l-1 0.2l-19.2 0l-4.6 -1.8l-1.9 1.9l0 -4l-1.8 4l-2.3 0l0.1 -4l-2.1 2.3l-3.3 -0.1l0.1 -2.3l-5.7 -1.4l-1.5 5.8l-33.9 0.1l-0.1 13.3l4 0.1l-4.2 4.3l2.3 8.3l-2.5 3.2z"/><path data-id="13039" d="m769.9 986.7l0.2 3.1l6.3 2l-0.5 11.1l-1.7 3.7l5.1 4.6l-1.5 3.6l-3.3 8.2l4.8 0.6l-2.7 19.9l0.5 1.8l1.4 -0.1l0.9 1.2l1.8 2.6l1.2 1.4l1.7 1.7l3.4 -0.4l1.3 1l1.3 1l2.8 -0.6l3.9 -0.3l3.3 1.4l1.8 2.6l1.1 1.4l1.4 -0.4l0.9 -1.1l1 0l1.7 1.3l1.6 0.5l1 1l2.4 3.1l1.1 0.7l1.5 0.6l5.3 -0.9l0.6 1.1l4 1.2l1 -1.4l1.3 -0.4l1.2 0.3l1 1.2l-0.1 1.1l0.4 1.4l3.6 0l1.7 -0.8l1.2 1.9l2.1 1l0.8 -1.1l1 -0.7l1.6 0.7l1.4 0.4l2.7 0.3l1.6 1.1l2.8 0.2l1.2 0.6l1.3 0.3l1 -0.7l0.6 -1.3l1 -0.4l1.4 0.2l1.1 0.1l1.9 -0.2l3.7 -0.8l1.2 0.5l1.7 2.2l2.4 1l3.3 0.4l1 -0.1l-1.1 -1.4l-2.1 -6.4l-0.3 -2.9l0.2 -4l1 -5.1l1.8 -4.8l1.4 -2.7l2 -2.4l0.5 -1.3l4.9 -17.6l0.4 -12.2l-1.1 -4.8l-1.5 0.1l-2.3 5.1l-4.3 0l-1.3 -2.2l-2.8 -1.3l-1.2 0.2l-0.7 1l-2.3 -0.9l-1.4 -1.9l0.6 -1.8l4.5 -2.7l2.1 -2.4l0.3 -1.1l1.3 -1.3l1.7 -0.3l-0.4 -3l-2.5 -2l-6.2 0.6l-1.3 -4.9l-7.2 -2.1l-2.8 -5l-3.6 0.7l-3.4 -4l3.1 -5.7l-0.9 -2.4l-3.1 3.2l-7.2 1l-2.4 -0.8l-1.8 2l-6.4 -4.3l-5.1 0.8l-5.7 -4l-1.9 -2.5l-8.6 -1.3l-0.6 -3.8l-4.6 4.3l-2.8 0.2l-3.7 3.6l-4.5 9.5l-10.3 -0.8l-5.5 1.4l-2.4 4l0.3 4.2l-2.3 0.2z"/><path data-id="13043" d="m703.2 668.2l2.6 1.1l1.9 7l43.5 9.9l5.4 0.7l6.5 1.8l2.5 -4.3l5.2 -21.8l2.8 -10.3l-4.4 -2.6l0 -2.3l-4.7 -4.4l-3 -6.2l-0.1 -5.1l1.2 -3.8l-12.4 -6.4l-10.4 -5.3l-14.4 9.9l-6.9 11.5l-0.5 3.5l-0.9 6.6l-14 20.4z"/><path data-id="13045" d="m56 342.5l3 18.3l0.3 1.6l1.6 9.6l0.2 1.4l2 11.9l2.2 13.8l40.9 0.4l17.6 0.3l6 -4l0.4 -4l2.3 1.1l7.7 4l3.3 -2.1l2.7 -6.1l6.3 -5.4l4.3 -0.8l1.6 -4.4l7.3 -2.2l-3.5 -6.3l4.9 -7.3l-2.6 0.1l-1.8 0l-11.9 0.1l-4 0l0.5 -16.5l0.2 -2.8l0.2 -18.2l-1.9 -2.3l1.8 0.1l0.1 -12.6l-7.1 -2.5l-21.5 -5.4l-2.3 -0.1l-0.1 8.2l-0.3 16.5l-11.7 5.1l-4.8 0.8l-2 -2.2l-31.6 12.1l-10.2 -0.3z"/><path data-id="13047" d="m71.4 4l0.1 14.8l0 6.8l-0.1 12l13.1 0l0.1 20.3l8.8 0l3.2 1.9l2.7 -13.3l1.9 1.9l3.7 -1.8l9.2 -0.1l0 -11.3l6.1 0l2 -1.9l0.7 -7.6l1.3 -0.2l3.4 -9.9l0.1 -8.3l3.7 -0.1l0 -3.8l-13.7 0.2l-28.4 0.2l-1.1 0l-6.4 0.1l-1.2 0l-1.8 0l-1.1 0l-4.1 0.1l-2.1 0z"/><path data-id="13049" d="m669.5 1014.6l-1.1 37.1l50.9 1l4.1 1.1l1.8 0.5l-13.6 52.7l-0.8 1l-1.8 0.8l-1 1.2l-0.8 2.8l0 1.9l0.2 1l0.9 1.5l0.3 1.4l0.5 2.5l1.8 1.5l1.2 1.3l1.3 1.7l1.1 1.6l0.1 2.6l-0.8 1.4l-0.6 2l0.3 1.2l0.5 2.7l-0.5 1.8l-0.7 1l-0.1 2l1.3 5.7l2.4 5.5l1.9 1.2l0.8 1.2l1.8 2.1l1.3 0.4l1.5 -0.5l3.1 -0.8l5.6 -1l2.4 -0.2l2.1 1.8l2.9 0.5l2.6 -0.1l1.8 -0.3l2.1 -0.5l1.9 -1.9l0.8 -1.9l0.2 -1.8l-1.1 -2.8l-0.2 -1.6l0.2 -1.6l0.3 -1l1.3 -2l-0.1 -1.4l-0.6 -1.6l0.2 -1l1.3 -1.6l1 -3.1l0.4 -2.3l1.2 -1.9l0.1 -3.1l-0.2 -1.1l0.7 -5.1l-0.2 -1.3l-0.6 -1.4l0.1 -1.8l1.1 -4.6l1.6 -3.3l-0.5 -3.3l-0.8 -4.1l-0.8 -1.9l-2.4 -1.1l0.1 -1.7l-0.4 -2.1l-1.1 -1.9l-1.3 -1.8l0.2 -1l-0.7 -2l-1.5 -1.5l-0.2 -5.1l1.8 -3.9l1.1 -3.5l-0.2 -2.9l-0.3 -1.1l-1 -1.6l0.6 -1.1l0.3 -3.3l1.4 -0.7l3.1 -1.1l1.1 -1.5l-1.1 -3.5l-1.3 -1.8l0.2 -1.2l1.2 -0.9l1.9 -0.3l2.7 1.7l0.9 1.1l2 1.2l1.6 -0.4l2.4 -4.4l0.1 -1l-0.1 -2l-0.1 -1.3l0.1 -1.1l2.6 -2.3l1.4 0l1 0.4l0.6 1.1l2.3 0.9l2.8 0.4l1 -0.3l0.3 -2.7l2.7 -19.9l-4.8 -0.6l3.3 -8.2l1.5 -3.6l-5.1 -4.6l1.7 -3.7l0.5 -11.1l-6.3 -2l-26.2 -6.8l-4.2 15.9l-1.3 0.2l-9.3 -0.1l-44.2 -0.7l-15.4 0l0.1 16.3z"/><path data-id="13051" d="m884.3 731.7l1 1.4l0.5 2.7l3.7 7.8l6.8 5l6.4 7.1l-1.1 3.6l4 1.5l1 8.9l2.8 1l-0.1 3.4l3.2 -0.2l-0.3 5.1l3.8 -1.6l1.6 1l-2 4l0.9 1.2l7.4 -8.7l2.6 0.7l-0.5 2.6l-4.9 2.8l1.8 2.3l5.9 -3l4 3.2l1.8 6.3l3 1.7l-4.1 5.1l-0.4 2.7l-3.6 1.9l-0.6 6.1l3.4 0.9l0.3 2.1l-2.4 3.8l2.9 4.4l1 4.9l3.4 1.3l1.6 -0.4l7 -7.5l4.3 -2l1.9 -1.8l4.4 -8.4l2.2 -2.4l0 -1.7l-2.3 -1.4l-1.9 0.5l-3.9 -1.6l-0.1 -1.8l2.8 -2.1l0.8 -1.3l0.1 -1.9l-1.4 -4.8l5 0.2l5.7 2.2l3 2.7l1.6 -0.2l4.5 -5l5.1 -4.5l2.7 -3.2l-1.4 -0.9l-2.8 0.3l-2.9 -1l-1.5 -1.9l0.7 -4.4l5 -3.9l3.8 0.1l0.2 2.9l3.8 0.3l2.8 -1.3l3.1 -2.5l4.2 -2.5l3 -4.7l1.4 -3.6l0.3 -2.1l-0.5 -3.2l-1.9 -0.6l-1.4 0.7l-5.5 -2.7l-1.6 -0.1l-3.7 -0.4l-1.5 -0.2l-1 -0.4l-2.2 -2.1l-2 -2.5l-2.4 -2.7l-1 -0.7l-4.1 -1.5l-1.9 -1.7l-0.8 -1.7l-1.7 -1.9l-1.4 -0.6l-1.1 0.2l-1.7 1.9l-2.6 1.7l-1.2 0.2l-2.5 -0.2l-2.1 -0.5l-1.4 -0.7l-3.5 -2.6l-1.5 -1.6l-0.5 -1l-1.5 0l-2.2 -0.2l-1.3 -1.4l-0.6 -4.1l0.2 -1.9l-0.2 -2.8l-0.5 -2.1l-1.3 -0.7l0 -1.1l1.5 -1.4l0.3 -1.5l0.4 -1l-0.1 -1l-1 -3l-1.1 -1.8l-1.6 -1l-1.5 -2.2l-0.7 -1.3l-10.3 -2.6l-21 18l-20.2 17.2z"/><path data-id="13053" d="m125.3 671.9l1.3 3.6l9.6 3.9l4.7 2l9.3 9l-5.2 3.3l-1.6 4.4l22.6 0l0 2.4l2.4 0l0 -2.5l30.1 -0.5l0.3 -65.1l4 0l0.2 -10l-8.7 4l-3.3 0l-6.2 2.7l-9.3 21.7l-2.1 -1.1l-3 2.8l-2.7 -1.4l-2.7 1.7l-1.6 0l-1.7 -0.2l-2.1 0.1l-7.8 0.7l-2.3 2.4l-9.1 5.4l-5.6 1.3l-3.8 -1.9l-0.5 4.6l-5.2 6.6z"/><path data-id="13055" d="m16.3 105.3l2.1 11.7l0.7 4.4l0.3 1.8l0.8 4.3l1.2 6.8l3.7 20.7l2.2 12.3l0.7 4.1l1.8 10.6l15.7 0.1l1 -4.4l4.1 -9.1l5.9 -7.8l11.5 -5l8.1 -4.8l0 -1.8l4 0l1.5 -3.6l7.3 -1.7l3.7 -9.2l3.2 -10.9l5.1 -9.7l3.3 -8.7l-3.6 -0.2l-41.5 -0.3l-6.4 0l0.2 1.8l-4 -1.9l-32.6 0.2z"/><path data-id="13057" d="m198.9 203.5l-0.3 31.6l6.8 0.2l0.7 -1l7.3 1.3l3.5 0.1l6.9 0.2l3.5 0.1l1.4 -0.8l6.4 1l13.8 0.4l0.1 -5.3l0 -3.7l1.5 0.3l6.7 -2.7l3.5 -1.2l0.3 -3.4l1.9 -10.1l5 -2.4l9.7 0l4.9 0.1l0 -5.4l0 -7.6l0 -13l0.1 -11.9l0.1 -11.7l-28.2 0.1l-1.8 1.9l-2.3 -1.9l-2.6 -1.7l-3.7 -0.3l0 2l-29.4 -0.3l0 -7.8l-14.8 -0.1l-0.2 14.6l2 0l-2 2.1l0.1 30.3l-0.8 6.3z"/><path data-id="13059" d="m434 263.5l6.1 8.8l3.5 -0.3l11.8 2.5l2.8 -1.1l3.5 3.5l4.8 3.8l1 1.9l3.5 3.6l7 1.9l0.4 3.5l10.4 1.8l6.9 -13.3l0.5 -1l-7.3 -9.6l-0.7 -2.4l2.6 -4.7l-0.6 -7.7l2.2 0.4l-1.1 -1.8l-6.5 -0.4l-5.4 -4.5l-8.4 -3.7l-5.2 0.7l0 2l-14.5 6.3l-6.3 3l-4 -1.7l1 3l-8.2 5.5z"/><path data-id="13061" d="m98.9 809.7l1.1 4.1l2 7.7l-1.4 9.3l9 11.1l4.3 6.6l0.9 12.8l3.4 6.4l-0.7 6.5l3.3 -0.1l0 8l9 -0.7l3.2 -2.1l7.4 -1.3l24.4 0.3l2.5 -3.2l-2.3 -8.3l4.2 -4.3l-4 -0.1l0.1 -13.3l-26.1 0.3l0 -9.1l2.3 0l0.1 -4.2l-3.9 -1.9l0.1 -8.3l-2.1 0l0.1 -15.9l-14.2 -0.2l-10 1.8l-12.6 -2.2z"/><path data-id="13063" d="m240.7 357.3l0 11l4 0.1l1.2 6.6l1.3 1.9l1.5 5.8l4.8 2.1l3.3 5.7l-0.7 1.1l-0.8 2.7l1 0.9l-3.9 2l0 2.8l3.8 5.7l-2.3 2l-0.3 5.3l1.7 5.2l7.1 0l0.1 -11.3l0 -5.8l0 -3.9l12.4 0.1l0.1 -2.9l0 -9.3l2.1 0l0.2 -6.8l0.1 -5.4l-2.1 0l1.8 -4.1l4.2 0l0.1 -5.1l0 -1.4l4.1 -3.9l-4 -4.2l0.1 -6.1l-3.9 -4.1l-11.6 0l-2.9 -0.1l-10.3 -0.1l-4.2 -0.1l-7.1 1.9l-1 -1.8l-0.1 4.8l-0.1 2.6l0 6.1z"/><path data-id="13065" d="m552.8 956.5l0 77.1l26.2 8.4l0.1 1.9l3.2 4.5l-0.9 2.3l0.9 4.4l3.1 1.3l2.2 6.4l2.1 1.9l6.1 2.4l4.7 -0.3l7.1 1l3.4 -1.2l4 2.2l7.9 2l7 0.8l4.8 4.3l-1.1 5.2l0.8 4.1l-0.3 16.2l3.1 0.2l3.4 0.3l1.7 0.1l1.9 0.1l2.4 0.2l13.7 1l8.5 0.6l0 -7.7l-2.5 0.1l0.4 -18.9l-1.3 -6.4l3.2 0l0 -3.1l-3.2 0l-0.1 -22.2l-12.5 0.1l0.7 -3.2l0.3 -31.9l-6.2 0l-6.3 -9.1l-8.8 -4.4l-15.6 -37.9l-1.1 -2.7l-62.9 -0.1z"/><path data-id="13067" d="m181.8 247.3l-0.1 20.8l3.4 0.1l-0.2 11.1l-0.1 19.2l0 1.9l0.2 3.5l6.3 0.1l7.2 0.1l7.8 0.1l8.8 13.9l0.6 1.6l8.4 -7l1.9 -3.1l2.9 -1.8l4.2 -4.6l3.2 -2.3l2.5 -2.5l2.2 0.7l-0.4 -7.3l1.1 -1.4l-0.3 -1.5l1.8 -2.5l0.9 -1.1l0.4 -2.8l-0.3 -2.9l-1 -2.1l8.9 -8.5l1.5 -1.9l2 -1.7l1.2 -2.2l1.7 -5l-1.8 -1.6l-3.8 -5.5l-0.5 -5.6l-1 -0.4l-0.6 -2.9l-1.7 -3l0 -3l-13.8 -0.4l-6.4 -1l-1.4 0.8l-3.5 -0.1l-6.9 -0.2l-3.5 -0.1l-7.3 -1.3l-0.7 1l-6.8 -0.2l-9 -0.1l-7.5 -0.2l-0.1 5.6l-0.1 6.9z"/><path data-id="13069" d="m516.2 885.6l-1.2 2.6l2.2 10.1l38.2 0.8l0.1 3.5l24.9 0.3l2.1 5.9l2.5 3.2l39.6 0.1l0.2 -25.9l6.4 0l0.3 -21.8l-6.7 -0.1l0.2 -28.2l-39.2 0.3l-4.7 0l0 -22.3l0.1 -13.4l-6.7 8.3l-4 0.7l-4.3 -1.3l-8.2 -0.7l-1.8 1.2l-4.8 -2.5l-3.6 3l-0.6 26.6l-0.1 3.1l-3.1 -0.1l-0.2 6.2l-3.2 -0.1l-0.2 3.1l-3 -0.1l-0.1 3.3l-2.9 -0.1l-0.3 11.3l-4.9 12.1l-2.8 2.4l-3.1 6.9l-1.7 1.1l-5.4 0.3z"/><path data-id="13071" d="m334 976.5l2.2 0l-0.1 6.1l-0.1 8.7l17.9 0.3l25.7 0.4l0.1 3.1l3 -3.1l9.4 0.2l34 0.9l-0.2 -10.8l1.5 -5.5l2.1 -2.4l0.4 -8.4l2.5 -0.8l0.6 -7.6l6.5 -6.6l-0.7 -5.6l1.5 -12.5l-1.9 -5.5l0.6 -6.2l-29.7 -0.8l-12.5 -0.2l-0.1 3.3l-9.4 -0.1l0 -3.3l-3.5 0l-46.9 -0.7l-0.7 54.7l-2.3 2.3z"/><path data-id="13073" d="m664 346.2l1.8 7.6l4.3 2.7l-0.2 2.5l-4 4.8l-0.8 4.8l10.9 5l-3.7 3.4l0.8 6.2l3.3 3.6l-0.3 2.6l4.3 4.2l5.9 7.8l-0.9 3.6l9.7 12.8l2.4 -2l32.3 -28l4.3 -3.7l7.9 -6.9l3.6 -2.9l5.3 -4.3l-1 -0.4l-0.9 -2.1l-1.9 -2.3l-1.9 -0.4l-3 -2.6l-3.9 -1.3l-1.4 -0.5l-1 -0.9l-1.6 -2.3l-1.9 -0.2l-1.1 0.4l-1.1 1l-1.6 0l-2 -0.9l-1.3 -1l-1 -2.1l-1 -0.9l-1.3 -0.3l-2.1 -0.5l-1.2 -0.7l-1.3 -1.2l-2.2 -2.4l-1 -4.1l0.3 -2.7l0 -1l-1.8 -2l-0.8 -1.9l-1 -1.8l-5 -2.3l-7.4 2.2l-6.4 -4.1l-6.8 1.9l-2.7 2.6l-12.8 4.2l-2.7 4l-3.4 3.1z"/><path data-id="13075" d="m427.7 976.9l-1.5 5.5l4.9 5.8l9.1 1.5l6.8 4l18.9 0.6l19 0.5l3.2 -8.8l-3.5 -2.1l-2.1 -5.1l-3.1 -1.1l-0.2 -5.2l3.7 -7.3l-0.2 -4.7l-6 -6l0.4 -6l-0.8 -7l-2.3 -1.9l-4 0.8l-4.1 -2.3l-5 -7l-4.1 -1.6l-2.1 -5.7l1.3 -4l-0.4 -4.3l-5.5 5.9l-10.9 -0.3l-0.6 6.2l1.9 5.5l-1.5 12.5l0.7 5.6l-6.5 6.6l-0.6 7.6l-2.5 0.8l-0.4 8.4l-2.1 2.4z"/><path data-id="13077" d="m129.8 395.8l-6 4l11.9 37.3l0.4 -1.3l1.7 0l-1.2 4.2l3.3 10.3l1.4 0l14.7 0.2l-2.1 4.1l2 4.1l2.1 -8.1l12 0.1l25.3 0.2l4.9 -1.7l6.2 1.8l25.1 0.3l-1.2 -6.9l2.2 -2.2l-4.2 -8.9l-0.2 -6.4l-3.4 -4.3l-6.4 -2.3l-4.4 -3.3l-1.4 -5.4l-3.6 -4.4l-0.9 -1.5l-2.6 -9.1l0.1 -9.5l2.5 -3.9l0.8 -2.5l-2.4 -2.1l-21 0l-2 0l-25.2 -0.2l-1.6 4.4l-4.3 0.8l-6.3 5.4l-2.7 6.1l-3.3 2.1l-7.7 -4l-2.3 -1.1l-0.4 4z"/><path data-id="13079" d="m294.4 584l6 3.1l6 -1.9l3.8 2.7l4.5 -2.6l0.2 2.9l5.6 6.5l1 2.9l3.5 -0.2l-3.2 4.5l0.2 5.1l3.9 7.8l3.6 2.1l6.7 7.1l10.2 -8.2l2 2.6l0 -4.2l13.2 -10.8l24.4 -19.8l13.8 0.3l-7.4 -0.5l-8.5 -6.3l-7 -2.8l-9.1 -13l-0.7 -2.9l-4.2 -3.3l-1.2 -2.9l-2 -0.2l0 -7.3l-9 -0.1l-7 -0.1l0 -2.1l-2.1 2l-30.6 -0.2l0 12.1l-5.2 -0.1l-11.2 27.7z"/><path data-id="13081" d="m345 747.8l2.3 3.8l0 4.5l5.4 12.2l1.2 6.1l-0.7 3.3l-2.4 7l1.6 4.5l-2.7 3.8l3.2 -0.1l16.6 4.3l4 5.3l4.9 1.5l39.9 -0.1l0.1 -12.3l0.5 -43l-73.8 -0.7z"/><path data-id="13083" d="m0 4.1l1.2 8.4l0.1 1.8l0.8 5.3l2.5 16.3l4.6 28.2l1.9 10.7l2.3 13.1l1.5 8.1l9.1 -11.3l0.1 -7.6l6 -8.3l0.5 -5.1l1.9 -1.9l0 -18.5l3.5 -11.1l3.2 -6.3l9.2 -15.9l2.2 -5.5l-4.4 0.1l-17.2 0l-1.6 0l-16.5 -0.2l-11 -0.2z"/><path data-id="13085" d="m264.4 111.9l0 3.7l5.5 20.5l13.2 0.6l-0.1 21.5l-0.1 11.7l23 0.1l27.3 0.1l12.9 0.1l-5.1 -6.1l-0.6 -6.4l2.6 -5.6l-1.8 -3.4l-26.5 -12.1l1.2 -1.4l-3 -0.5l-11 -12.1l-4.7 -4.5l-0.1 -1l0.5 -15.3l-1.7 -3.9l-5.7 5.3l-6.5 -0.1l-0.1 7.4l-8.4 -0.5l-2.5 -2.8l-6.2 0.6l-1.9 4.1z"/><path data-id="13087" d="m153.1 1068.2l1.2 1.4l1.1 2.5l6 0.2l40.2 2.1l8.1 0.5l14 0.8l13.6 1l19.7 0.7l1 -76.9l-0.1 -18.2l-27.6 0.1l-7.3 -0.2l-21.4 -0.1l-0.2 2.8l-17.9 -0.3l-0.2 4.7l-4.5 2.2l-0.6 35.8l-2.9 4.5l0.1 9.6l-3.4 3.3l-0.3 5.4l-3 0l-2.7 4.9l-7.6 2.2l-3.8 6.2l-1.6 4.7z"/><path data-id="13089" d="m263.6 335.6l-0.2 8.2l2.9 0.1l11.6 0l3 0.1l2.7 0l1.8 4.1l4.5 0l0.1 -4l7.7 0.1l3.7 1.7l4.1 0.2l4.5 1.8l2.8 4.2l2.4 -5.4l6.3 -14.3l2.4 -5.4l1.4 -3.1l6.9 -6.6l-3.5 -1.2l-1.3 -1.8l-6.2 -3.2l-3.7 -4.4l-4.2 -3.1l-2 -2.8l-2.4 -4l-3 -2l-2 -2.7l-3.2 -1.2l-6.4 -3.8l-0.9 -1.2l-1.2 -1.2l-4 -4.8l-1 -0.6l-3.2 -1.8l-1.2 -1.6l-2.8 -9.6l-1.2 -0.4l-13 -3.1l-1.9 2.2l0 5.8l0 5.8l-0.1 6.1l0 2.2l0 6.2l0 1.3l0.1 1.8l-0.1 4.8l0 2.3l-0.1 8.7l-0.1 2.3l-0.1 8.8l0 14.8z"/><path data-id="13091" d="m474 687.9l-5.8 5.6l17.4 17.6l-7.1 7.1l4.2 4.3l-0.9 1.9l-6 4.9l4.1 5l1.1 -1.6l3.7 3.3l-2.6 7l3.7 5.8l-1.4 4l3.7 3.6l-2.7 3l6.4 8l7.4 4l4.3 8.8l55.3 -55.4l-2.8 -2.8l4.4 -4.5l1.4 4.5l11.8 -11.8l-2.7 -3.3l-22.3 12.1l-25.3 -55.8l-5.8 -12.7l-7.2 -7.3l-27.6 27.5l4.4 4.4l-10.1 10l-2.9 0.1l-0.1 2.8z"/><path data-id="13093" d="m331.1 713l-1.2 4.5l5.2 5.9l-0.7 2.4l3 4.7l4.8 2l-2.5 5.3l1.3 6.4l2.4 1.6l1.7 2l73.8 0.7l0.2 -22.4l0.5 -42.2l-1.9 0l-17.8 1.5l-3.8 -1.9l-27.3 -0.2l-9.7 -0.3l-0.6 2.8l-14.2 8.2l-5.1 7.7l-4.8 3.9l-3.9 5.6l0.7 1.9z"/><path data-id="13095" d="m241 857.5l0.4 9.4l1.6 1l3.1 9l4.2 12.4l-3.6 5l45.8 0.2l14.8 -1.1l5.3 -0.6l24.8 -0.3l0 -4.7l3.2 0l-3.1 -3.3l0.1 -7.8l0.2 -29l-3.4 -2.1l4 -4l-5.3 -0.1l-2.2 0.5l-3 6.1l-45.7 0.3l-7.7 0.1l-32 0l0.7 4.3l-2.1 4.4z"/><path data-id="13097" d="m147.5 322.9l-1.8 -0.1l1.9 2.3l-0.2 18.2l-0.2 2.8l-0.5 16.5l4 0l11.9 -0.1l1.8 0l2.6 -0.1l0.7 -3.1l4.7 -4.3l4.2 -2.7l2.2 -4l2.3 1.6l1.3 -0.2l1.2 -3l11.1 -4.8l3.3 -0.4l1.4 -1.5l0.4 -5.2l4.7 -2.4l-0.5 -1.6l5.8 -4.5l4.1 -3.4l1.5 -3.3l-0.6 -1.6l-8.2 -13.1l-8.4 -0.9l-7.2 -0.1l-6.3 -0.1l0 4.4l-1.4 0l-2.2 0.2l-5.5 0.2l-5.5 0.9l-1.3 0.8l-5.4 0.3l-1.5 0.7l-9.7 0.3l-4.7 -1.5l-0.1 12.6z"/><path data-id="13099" d="m103 933.8l3.3 10.7l-0.2 5.6l-1.6 5.7l3 5.9l3.5 1.3l5 9.2l3.6 2.8l1.9 6.7l0.6 1.3l21.2 0.7l1 -45l46.8 1.1l2.3 -1.4l7.3 0.1l1.4 -0.6l0.8 -18l2.2 0l-2.2 -2.4l0.1 -22.7l-31.8 -0.6l-0.1 -3.7l-3.8 -5.3l2.2 -0.1l0.1 -6.8l-2.2 2.4l-2.7 0l0 -2.4l-24.4 -0.3l-7.4 1.3l-3.2 2.1l-9 0.7l0 -8l-3.4 0.4l-5.5 12l1.2 9.1l-2.9 5.1l0.5 3l-3.1 8.7l1.2 5.6l-0.5 7.7l-0.2 3.3l-5.2 4.6z"/><path data-id="13101" d="m518.9 1053l-0.8 40.4l1.1 0.1l53 3.5l37.7 2.6l2 0.1l22.1 1.4l0.3 -16.2l-0.8 -4.1l1.1 -5.2l-4.8 -4.3l-7 -0.8l-7.9 -2l-4 -2.2l-3.4 1.2l-7.1 -1l-4.7 0.3l-6.1 -2.4l-2.1 -1.9l-2.2 -6.4l-3.1 -1.3l-0.9 -4.4l0.9 -2.3l-3.2 -4.5l-0.1 -1.9l-26.2 -8.4l-7.4 2.4l-1.5 3.6l-1.1 -1.2l-14.4 0.2l0 4.3l-3.2 0.4l-0.2 6.3l-4.5 0.1l-1.5 3.3z"/><path data-id="13103" d="m853.5 629.1l-2 4.9l2.5 2.1l-1.4 3.7l2.3 0l1.2 4l-2.8 3.7l0.8 3.1l-1.6 1.2l1.9 2.6l-0.3 3.3l2.4 0.2l0.6 4l2.3 1.3l0.4 3.4l3.5 1.5l0.6 4.4l3.6 1.1l4.5 8.2l0.7 3l1.4 2.4l0.8 8.3l1.6 6.3l2.7 1l-0.6 3.8l2.2 11.1l1.3 0.4l-1 12l3.2 1.5l20.2 -17.2l21 -18l10.3 2.6l-1.5 -2.7l-0.6 -1.5l1.7 -2.8l0.5 -2.1l2 -2.3l1.2 -0.5l2 -2.4l0.4 -1.3l-0.5 -3.9l-2.8 -4.7l-0.3 -1.3l0.8 -1.2l-0.1 -1.6l-1.5 -2l-1.4 0l-1.1 0.9l-0.4 -1l-1.4 -1.5l-1.8 -1.3l0.2 -1l0 -1l-2.3 -2.5l0.4 -1.2l0.2 -1.8l-0.8 -1.2l-1.8 -2.7l-1.1 -1l-2.1 -3.1l-0.7 -3l1.2 -1l0.3 -1.1l-0.4 -1.2l1.1 -0.8l1 -1l1.1 -1.6l-1.1 -0.4l-1.6 -0.8l-2.6 -2.7l-3.2 -3.8l-1.3 -1.1l-1 -1.9l0 -1l1 -0.9l-2.3 -1.1l-1 0.2l-5.7 -4.5l0.5 -1.4l-0.1 -1.1l-0.8 -2.3l-3.6 -2l-2.7 0.4l-2.4 0.4l-1.7 -0.4l-8 -3.9l-0.3 -1.8l-0.1 -1.4l-1.5 0.2l-1 -0.2l-1.7 -1.4l-31.3 21.5z"/><path data-id="13105" d="m526.7 203.5l-1.5 7.5l1.7 2.9l5.7 1.7l4.1 8.5l3.5 2l-1.1 3.6l9.4 8.6l3.2 5.5l6.9 3.9l0.3 3.3l12.8 3.8l3.5 4.2l4.6 -0.1l1.1 -2.2l2.6 2.1l9.5 3.4l5.4 -0.3l7.3 -3.2l3.6 0.9l9.8 -2.5l2 1.8l1.2 2.8l3.1 -2.4l4.6 0.6l8 6.1l-0.3 -2l-0.4 -1.2l-1.3 -1.4l-1 -1.4l-0.2 -1.4l0.9 -1.2l-0.2 -1.1l-1.2 -0.4l-1.2 -1.3l-0.5 -2.3l-0.6 -1.2l-0.2 -1.2l0.4 -1.9l-0.4 -1.2l-1.4 -1.1l-1.4 -1.3l-0.8 -1.7l-1.2 -1.1l-0.5 -1.4l-1.2 -1.7l-1.3 -0.3l-1.5 -0.7l-0.7 -1.2l-0.4 -1l0.6 -1.4l0.5 -1.3l-0.2 -1.1l-1.2 -1.7l-1 -0.5l-1.4 -0.9l-0.7 -1.1l-1.1 -1.5l-0.3 -1.7l-1.5 -2.4l-2.3 -1.2l-0.9 -1l-1.1 -0.2l-1.8 -0.5l-2.4 -1.8l-1.6 -4.5l-0.4 -1l-1.1 -1.6l-0.3 -1.2l0.1 -3.2l-2.1 -4.3l0 -1l0.4 -1.2l-0.8 -1.6l0.5 -1.3l-0.6 -3.2l0.2 -2.4l-1 -2.8l-0.3 -1.9l-1.1 -1.3l-1.5 -1.4l-1.9 -1l-11.2 3.8l-19.2 5.8l-9.1 7.4l-4.5 2.2l-3.4 -2.3l1.7 -1.4l-6.4 -2.4l-12.4 2.7l-3.7 5.4z"/><path data-id="13107" d="m625.9 625.9l-5.2 2.3l6.1 1.9l11.7 -0.2l6 2.1l3.6 -0.6l5.7 0.8l0.3 1l13.5 7.4l5.7 2.6l3.4 2.8l-2.6 7.2l-0.5 6.1l-3.1 5.4l0.4 2.8l3.7 4.6l2.7 -0.4l4.7 5.8l0.4 5.2l15.7 -0.4l9.9 -6.1l-1.9 -7l-2.6 -1.1l14 -20.4l0.9 -6.6l0.5 -3.5l6.9 -11.5l14.4 -9.9l10.4 5.3l0.7 -4.1l5.4 -12.9l-17.1 -14.1l-13 -37.3l-2.7 -0.8l-11.8 3l-8.9 -5l-9.3 -0.7l-3.3 -2.3l-0.8 -1.1l-7.2 3.2l-1.4 2.7l-12 1.3l4.2 8.5l-7.5 3.8l-3.9 8.4l0 2.3l-3.8 2.2l-5.8 6.5l1.7 5.6l5.6 3.7l-6.1 3.3l-1.3 -2.2l-3.9 2.3l1.2 2.1l-4.6 3.1l-12.7 8.4l1 5.7l5.3 5.9l-4.4 1.8l-2.6 -1.9l-1 5.8l-0.1 -3l-4.2 0z"/><path data-id="13109" d="m756.7 686.9l-5.4 -0.7l9.6 49l19 7.7l26.7 0.6l9 -10.3l-4.7 -3.8l-3.2 0l-1.5 -3.2l-2.9 -3.5l-0.7 -5.2l0.5 -2.3l-3 -7.7l-2 -0.9l-0.8 -5.9l-2.2 -4.2l-5.3 -0.9l-3.3 -4.1l-7.4 -4.3l-5.4 0.1l-7.3 1.9l-3.3 -0.5l-6.5 -1.8z"/><path data-id="13111" d="m206.5 3.2l-0.3 33.6l42 0.6l6.7 5.2l9.9 2.4l3.3 4.7l2.8 -0.2l13.1 22.8l0 13.7l2 -1.6l3.4 4.3l5.1 3.1l1.1 6.1l1.7 3.9l6.4 -11.6l11.4 -20.3l2.2 0l0 -18.8l-6.5 1.4l-3.4 -2.8l-1.6 -9.7l1.1 -2.4l6 -4.2l1.3 -4.2l-5.5 -7.6l-3.3 -0.8l-4.7 -4.7l-1.5 -3.6l10.4 -9.1l-40.4 -0.2l-15.1 0.1l-24.2 0l-23.6 -0.1z"/><path data-id="13113" d="m205.6 386.9l-0.1 9.5l2.6 9.1l0.9 1.5l3.6 4.4l1.4 5.4l4.4 3.3l6.4 2.3l3.4 4.3l0.2 6.4l4.2 8.9l13.6 0.2l3 -9.3l5.4 -3.8l2.1 -7.9l-1.1 -3.1l-1.7 -5.2l0.3 -5.3l2.3 -2l-3.8 -5.7l0 -2.8l3.9 -2l-1 -0.9l0.8 -2.7l0.7 -1.1l-3.3 -5.7l-4.8 -2.1l-1.5 -5.8l-1.3 -1.9l-1.2 -6.6l-4 -0.1l-3.3 0.8l-2 0.5l-15.4 4.4l-2.8 0.9l-7.4 3.5l-0.8 2.2l-0.8 2.5l-2.5 3.9z"/><path data-id="13115" d="m30 182.2l0.7 4.3l0.7 4.2l5.5 32.4l0.3 2.7l1.3 8.5l29.1 0.4l5.3 0.1l0.1 -5.5l10 0.8l11.1 0.1l0 3.5l7.4 0.1l0.1 -3.4l15.8 0.1l0.3 -18l0.1 -11.7l4.4 0.1l0 -9.6l1.8 0l-1.7 -1.8l0.1 -14.9l0 -7.7l3.7 0l-0.1 -11.5l-4.5 -0.4l-1 -1.9l-11.6 0l-3.8 -0.9l-0.5 -2.7l3.9 -2.5l-5 -9.4l4.7 -0.4l0 -20l5.6 -0.2l-0.1 -8.2l-1 -3.1l-8.1 -0.1l-3.3 8.7l-5.1 9.7l-3.2 10.9l-3.7 9.2l-7.3 1.7l-1.5 3.6l-4 0l0 1.8l-8.1 4.8l-11.5 5l-5.9 7.8l-4.1 9.1l-1 4.4l-15.7 -0.1z"/><path data-id="13117" d="m282.6 207.7l0 19.4l6.6 3.1l2.4 -0.7l2.1 2.3l3.2 1.1l2.5 4l7.3 3.8l9.6 1.2l-4.3 -3.9l1 -3.1l-0.1 -1.9l3.4 -9.4l4.8 -10.3l2.5 -1.1l1.1 -3.9l5.7 -3.1l8.7 -0.1l3.6 -8.2l4.6 -3l-0.1 -5.6l-0.8 -1.5l6 -4.8l-1.4 0.4l-3.7 -7l0.9 -4.3l-2.4 -1.2l-12.9 -0.1l-27.3 -0.1l-23 -0.1l-0.1 11.9l0 13l0 7.6l0 5.4z"/><path data-id="13119" d="m463.2 137.8l3.3 8.1l0 9.2l-2.3 17.3l11.8 16.2l-3.6 9.4l8.8 -9l3.4 -1.4l5.1 4l7.1 0.7l7.6 -0.5l6.3 2.5l12.5 -8.9l1.6 -1.4l2.4 -17.3l-2.6 0.6l2.7 -18.1l8.9 -19.8l-0.5 -2.3l-2.3 0.5l-4.5 -3.8l2 -2l-1.4 -1.9l-1.6 -0.5l-2 0.1l-0.3 -1.1l-15.6 15.2l-41 1.7l-5.3 2.4z"/><path data-id="13121" d="m165.7 376l-7.3 2.2l25.2 0.2l2 0l21 0l2.4 2.1l0.8 -2.2l7.4 -3.5l2.8 -0.9l15.4 -4.4l2 -0.5l3.3 -0.8l0 -11l0 -6.1l0.1 -2.6l0.1 -4.8l1 1.8l7.1 -1.9l4.2 0.1l10.3 0.1l0.2 -8.2l0 -14.8l0.1 -8.8l0.1 -2l0.1 -9l0 -2l0.1 -5.1l-0.1 -1.8l0 -1.3l0 -6.2l0 -2.2l0.1 -6.1l0 -5.8l0 -5.8l1.9 -2.2l12.3 3.5l4.6 -3.1l-0.9 -1.3l0 -3.3l1.8 0.1l4.5 -3.9l4.4 -0.5l1.9 3.6l4.7 -2.3l2.5 -7.4l9.6 -1.3l5.4 -4.4l-9.6 -1.2l-7.3 -3.8l-2.5 -4l-3.2 -1.1l-2.1 -2.3l-2.4 0.7l-6.6 -3.1l0 -19.4l-4.9 -0.1l-9.7 0l-5 2.4l-1.9 10.1l-0.3 3.4l-3.5 1.2l-6.7 2.7l-1.5 -0.3l0 3.7l-0.1 5.3l0 3l1.7 3l0.6 2.9l1 0.4l0.5 5.6l3.8 5.5l1.8 1.6l-1.7 5l-1.2 2.2l-2 1.7l-1.5 1.9l-8.9 8.5l1 2.1l0.3 2.9l-0.4 2.8l-0.9 1.1l-1.8 2.5l0.3 1.5l-1.1 1.4l0.9 6.7l-2.7 -0.1l-2.5 2.5l-3.2 2.3l-4.2 4.6l-2.9 1.8l-1.9 3.1l-8.4 7l-1.5 3.3l-4.1 3.4l-5.8 4.5l0.5 1.6l-4.7 2.4l-0.4 5.2l-1.4 1.5l-3.3 0.4l-11.1 4.8l-1.2 3l-1.3 0.2l-2.3 -1.6l-2.2 4l-4.2 2.7l-4.7 4.3l-0.7 3.1l-4.9 7.3l3.5 6.3z"/><path data-id="13123" d="m199 69.5l0.5 37.2l0 8.7l27.9 -0.4l3.9 -3.4l0 3.4l5.5 0.1l-1.9 -3.3l3.7 -0.1l0 3.4l6.4 0.2l13.8 0.2l0 -3.7l5.4 0l1.9 -4.1l6.2 -0.6l2.5 2.8l8.4 0.5l0.1 -7.4l6.5 0.1l5.7 -5.3l-1.1 -6.1l-5.1 -3.1l-3.4 -4.3l-2 1.6l0 -13.7l-13.1 -22.8l-2.8 0.2l-3.3 -4.7l-9.9 -2.4l-6.7 -5.9l-41.1 0.5l7.6 7.7l-5.8 8.7l-3.7 1.6l-3 1.9l1.2 1.3l-4.5 11.1z"/><path data-id="13125" d="m598 443l2 1.8l-0.4 1.9l3.1 7.6l-1.3 8.5l4.3 1.1l2.2 4.5l9.8 6.4l15.3 0.7l2.2 0.9l1 -8l-2.3 -4.9l23.9 -19.7l8.2 -6.2l-13.6 -7.1l-13.2 -6.1l-6.7 1.6l-5 3.6l-6.3 1.3l-7 6.9l-4.9 0.3l-6.3 4.1l-4.8 0.8z"/><path data-id="13127" d="m805.6 952.2l-3 8.9l3.1 -1.1l0.6 3.8l8.6 1.3l1.9 2.5l5.7 4l5.1 -0.8l6.4 4.3l1.8 -2l2.4 0.8l7.2 -1l3.1 -3.2l0.9 2.4l-3.1 5.7l3.4 4l3.6 -0.7l2.8 5l7.2 2.1l1.3 4.9l6.2 -0.6l2.5 2l0.4 3l1.7 -0.3l0.5 1.2l1.6 -0.2l2 -3.2l2.9 -11.3l0 -3.3l-0.5 -5.1l0.3 -4.5l0.5 -2.1l2.7 0.2l3.9 -0.8l1.9 -3.1l-0.3 -1.7l1.2 -2.8l3.3 -4.8l5.2 -5.2l1.9 0.4l2.4 0l1 -1.2l-0.2 -3.5l1.3 -4.6l1.3 -2.6l0.5 -8.5l1 -1.2l-5.9 0.5l-4.4 -4.1l-10.4 -2.3l-3 0.4l-3.9 5.4l-2.3 0.1l1.9 -3.2l-6.8 -1.4l-0.6 -4.6l-3.2 1.4l-3.5 -3.3l-4.7 -0.9l-2.6 -3l-6 -3l-0.3 -2.1l-3.1 0.2l1 -2.3l-6.7 -3.6l-6.9 -8.6l0.7 -1.4l-3.6 -3.2l-8.5 13.1l-5.7 -0.2l-2.7 6.3l1.4 1.7l-5.7 10l-1.4 -0.7l-0.2 7.1l-3 4.9l-2.2 9.7l-1.9 9.9z"/><path data-id="13129" d="m108.1 137.2l-4.7 0.4l5 9.4l-3.9 2.5l0.5 2.7l3.8 0.9l11.6 0l1 1.9l4.5 0.4l2.8 -0.1l2.6 2l0.1 -3.3l5.4 3.4l0.3 -3.8l18.8 0.6l5.4 -0.3l8 0.1l13.6 0.2l0.1 -4.2l16.9 0.1l-0.1 -11l2 0l-1.9 -1.9l-0.2 -21.8l0 -8.7l-5.8 0l-4.9 -3.9l-5.4 0l0 -3.6l3.5 1.9l-0.3 -4.5l-6.3 0.2l-0.1 2.8l-4.3 -1.2l-2.7 1.8l-4.7 0l-13 -1.9l-9.3 0l-1.1 -4.7l-2.7 4.6l-26.1 0l0 -1.7l-1 0l-1.1 9l-1.8 0l1 3.1l0.1 8.2l-5.6 0.2l0 20z"/><path data-id="13131" d="m258 1000.5l-1 76.9l1.2 0l19.4 1.1l6.9 0.3l26.2 1.5l3.6 0.3l5 0.2l0.7 -41.3l-0.5 -2.2l2 -2.8l-1.4 -3.9l0.7 -6.1l-8.9 -15.6l0.4 -26.5l-54.6 -0.2l0.1 18.2z"/><path data-id="13133" d="m461.5 331.1l2.4 2l2.3 6l2.8 2.7l2.3 8.5l2.7 5.5l4.3 4.1l3.3 5.3l5.1 5.1l3.6 2.4l-1.8 1.4l-1.3 5.4l1.5 3l-0.7 2.7l1.1 4.9l3.6 1.9l-1.1 3.3l4.9 6.4l-0.9 4.8l3.6 -1.3l3 1l-2.5 5l5.6 -3.7l5.9 6.2l1.2 3.9l31.8 -28.7l5.7 -5.2l-0.1 -7.7l-5.9 -15.1l5.1 -5.8l-2.5 -4.3l2.9 -2.2l1.6 3.6l2 -6.8l4.1 -4.9l-2.6 -3.9l-3.1 -0.8l-3.6 -3.5l-4.1 0.6l-7.1 -6.2l-14.6 4.2l-33.9 -15.9l-3.6 5.7l1.2 1.2l-24.1 9.1z"/><path data-id="13135" d="m278.7 265.6l1.2 0.4l2.6 9.4l1.4 1.8l3.1 1.7l1.1 0.7l4 4.8l1.2 1.2l0.9 1.2l6.4 3.8l3.2 1.2l2 2.7l3 2l2.4 4l2 2.8l3.4 2.3l4.5 5.2l6.2 3.2l1.3 1.8l3.5 1.2l1 -1l7.7 -7.4l15.4 -14.3l3.3 -3.1l5 -4.8l2.9 -2.8l11.7 -11.3l-3 -5l-2.3 -3.7l-2.7 -4.5l-6.7 -5.6l0.9 -2.3l6.7 -19.5l3.2 -9.4l-10.6 7.4l-4.6 -2l-5.1 -2.3l-12.4 -5.4l-18.7 -8l-2.5 1.1l-4.8 10.3l-3.4 9.4l0.1 1.9l-1 3.1l4.3 3.9l-5.4 4.4l-9.6 1.3l-2.5 7.4l-4.7 2.3l-1.9 -3.6l-4.4 0.5l-4.5 3.9l-1.8 -0.1l0 3.3l0.9 1.3l-3.9 2.7z"/><path data-id="13137" d="m406.9 49.5l-3.2 1.6l7.5 7.4l2.6 0.3l0.2 4.3l2 5.6l-3.4 5.5l0.6 2.8l-1.8 7.7l-3.7 2.5l5.2 9.5l-1.7 2.6l1.6 8.2l4.9 6.9l-0.2 2.9l-3.5 3.8l-6.2 3.4l-0.8 2.5l10.7 18.3l6.3 -5.4l6.9 -8.4l3.1 -1.5l4 0.6l10.2 1.4l2.1 0.7l19.9 -49.5l5.4 -2.9l-0.6 -1.2l-1.2 -1.3l-0.3 -1.3l0.4 -1.2l-0.6 -2l-7.6 -6.1l-3.4 2.2l-5.8 -4.7l-5.1 3.8l-4.9 2.2l-5.2 -2.6l-2 0.7l-7.6 -4.5l-2.8 -8.1l1.2 -1l-4.1 -2.7l-2.2 -6.3l-3.1 -1.7l-2.4 1.2l-8.2 -0.3l-3 4.1z"/><path data-id="13139" d="m324.8 208.4l-1.1 3.9l18.7 8l12.4 5.4l5.1 2.3l4.6 2l10.6 -7.4l9.3 -9.5l3.7 -3.8l12.4 -12.8l7.7 -7.9l8.3 -8.5l-6.1 -6.7l-0.5 -5.6l-3.8 -5.7l3 -8.6l8.5 -8.1l-10.7 -18.3l-19 -0.2l-4.4 -2.4l-2.3 2.3l-11.5 -0.2l-14 11.6l-4.6 -2.4l2.4 2.3l-12.6 10.6l1.8 3.4l-2.6 5.6l0.6 6.4l5.1 6.1l2.4 1.2l-0.9 4.3l3.7 7l1.4 -0.4l-6 4.8l0.8 1.5l0.1 5.6l-4.6 3l-3.6 8.2l-8.7 0.1l-5.7 3.1z"/><path data-id="13141" d="m489.2 459.6l2.2 -0.5l14.3 3.2l20.5 6.2l-0.3 4.7l-2.2 0.8l-0.8 7.9l-1.2 2.8l3.8 9.3l3.6 -3.5l2.1 -0.1l4.5 -4.2l9.1 0l3.7 -2.5l4.4 -4.7l4.1 0.4l5 -2.2l2.6 -2.6l2.8 -0.4l2.5 -2.5l4.4 -10l2.7 -4.5l4.8 -1.4l1.3 -2.1l5.7 -2.8l4.4 -4.2l6.2 0l0.4 -1.9l-2 -1.8l-6.2 -3.8l0.8 -9l-2.3 -1.2l-2.2 -14l-3.9 -2.3l-0.9 -4.1l0.4 -9.4l-3.3 -0.8l-2.6 -3.2l-4.3 -0.7l-6.1 1.9l-7.9 -1l-2.4 -2.3l-6.8 1l-6.1 -5.4l-31.8 28.7l4.2 3.8l-0.4 7.5l-6.8 4.5l-10.8 4l0.3 4.8l-5.2 -0.6l-0.2 4l0.4 1.4l-4.6 12.7z"/><path data-id="13143" d="m45.9 279.7l1.9 11.5l0.2 1.4l3.1 19.4l0.3 1.5l0.6 4.5l4 24.5l10.2 0.3l31.6 -12.1l2 2.2l4.8 -0.8l11.7 -5.1l0.3 -16.5l0.1 -8.2l2.3 0.1l0.1 -4.3l0.2 -19l-2.9 0l-34.1 -0.5l0 1.8l-36.5 -0.6z"/><path data-id="13145" d="m88 539l0.3 2.2l6.5 4.6l-3 7.8l7.3 7.4l2.3 2.2l-3.5 3.3l1.8 2.1l2.4 2.7l0.9 2.6l-1.8 3.7l1.7 7.5l4.4 4l1.1 2.9l-3.5 3.3l3.3 3.3l2.1 5.9l20.5 0.1l9.5 0l5 0l1.1 0l0 6l1.5 0l6.9 0l26.8 0l9.6 -0.1l0.1 -25.4l-1.9 0l0 -3.6l2.1 -1.8l0 -3.6l2.2 -1.9l-2.1 -2.1l0.1 -22.6l-1.7 -3.8l-7.6 -3.3l-3 -2.8l-20.2 0.2l-3 -1l0 1l-49.9 -0.4l-1.9 0.9l-16.2 -0.9z"/><path data-id="13147" d="m523 185.5l-0.5 2.9l7.9 9.8l12.4 -2.7l6.4 2.4l-1.7 1.4l3.4 2.3l4.5 -2.2l9.1 -7.4l19.2 -5.8l10.6 -4.6l-1.4 -2l-0.3 -1.6l-1.1 -1.9l-0.9 -3.3l-0.1 -1l-0.5 -3.1l-3.3 -2.6l-1.2 -1l-1.6 -1.3l-2.2 -1.4l-0.4 -1.3l0 -1.2l-0.3 -2.2l-1 -1.9l0 -1.8l-1.1 -3.2l-0.3 -2.7l-0.8 -1.6l-0.6 -1.4l-0.3 -3l-0.9 -1.5l-0.2 -1.9l-1 -0.7l-2.1 -0.8l-0.1 -1.2l-0.2 -1.9l-1.3 -0.9l-4.2 -1.8l-1.2 0.1l-3 1l-1.2 -0.7l-2.6 -0.5l-1.4 1.7l-1.5 0.6l-1.3 -1.2l-4 -0.2l-2.7 0.9l-0.6 1.7l-1.6 0.1l-5.5 -3.1l-1.2 0.2l-1.9 -1.4l-0.9 -1.1l-9.6 19.6l-2.7 18.1l2.6 -0.6l-2.4 17.3l-1.6 1.4z"/><path data-id="13149" d="m65.3 399.2l12 74.9l25 -8.5l0 -3.7l2 0l0 -4.2l4.3 2.1l-0.1 3.7l9 -2.5l0.9 -1.7l21.4 -9.1l-3.3 -10.3l1.2 -4.2l-1.7 0l-0.4 1.3l-11.9 -37.3l-17.6 -0.3l-40.9 -0.4z"/><path data-id="13151" d="m262.6 406.9l-0.1 11.3l22.1 0l0.4 4.2l6.5 0l13.8 0l-0.1 5.7l10.1 3.7l1.1 -1l3.6 0l4 -1.9l3.9 -7.9l2 -0.4l0.2 -4.7l14.2 -3.4l-1.8 -8.1l6.2 -4.5l2.3 -4.2l1.9 -0.6l0.3 -1.6l-5 -7.8l-5.9 -0.5l-4.8 -2.6l-7.2 -1l-2.2 -5.2l-2.6 0.9l2.1 -2.7l-1.1 -3.9l-6.5 -3.4l-3.5 -1.4l-5.7 -0.3l-9.8 -14.8l-2.1 -2.3l-0.5 -4.3l-8.4 -0.1l-0.1 4l-4.5 0l-1.8 -4.1l-2.7 0l-3 -0.1l3.9 4.1l-0.1 6.1l4 4.2l-4.1 3.9l0 1.4l-0.1 5.1l-4.2 0l-1.8 4.1l2.1 0l-0.1 5.4l-0.2 6.8l-2.1 0l0 9.3l-0.1 2.9l-12.4 -0.1l0 3.9l0 5.8z"/><path data-id="13153" d="m367 660.6l0 6.1l2 0l-0.3 16.6l27.3 0.2l3.8 1.9l17.8 -1.5l7.6 -11.9l11.7 -16.4l4.3 3.3l1.1 -3.1l2.9 -1l0.3 -4.7l-3.2 -6.9l2 -8.2l-6.2 -3.4l-4.6 -6.4l0.9 -1.1l-2.6 -10.7l2.7 -3.6l-1.7 -9.8l-2.7 -6.7l-8.8 -2.9l-1.5 0.9l-3.1 -0.8l-1.5 -1.4l-3.5 -0.5l-4.9 -0.8l-5 -3.1l-2.3 -1.3l-1.6 4.2l0 5.9l-3.9 0l1.9 4.1l-0.1 9.8l-0.1 16l-0.7 2.6l-5.4 -3.2l-0.1 7.2l-6.1 -0.1l-1.9 -1.8l-2.2 4.1l0 12.3l-4.1 1.8l-6.2 -7.1l0.1 7.2l2 0l-0.1 11.3l0 2.9l-4.1 -0.1z"/><path data-id="13155" d="m441.7 855.7l-0.1 5.9l6.3 0.2l0 3.3l10.5 0.6l4.9 5.4l4.3 12.2l6.6 1.5l1.4 0.1l40.5 0.9l5.4 -0.3l1.7 -1.1l3.1 -6.9l2.8 -2.4l4.9 -12.1l0.3 -11.3l2.9 0.1l0.1 -3.3l3 0.1l0.2 -3.1l3.2 0.1l0.2 -6.2l3.1 0.1l0.1 -3.1l-37.4 -1.3l-0.2 6.6l-18.7 -0.6l0.2 -6.3l-12.6 -0.2l0.1 -18.7l-3.1 0l0 -3.2l-6.3 0l-0.1 3.1l-17.5 -0.2l-2.7 4l2.9 8.3l-1.6 3.2l-6.3 -0.2l-0.2 18.9l-1.9 6.3z"/><path data-id="13157" d="m375.2 222.5l1.2 3.7l4.1 3.2l0.2 3.2l5.6 5.7l6.5 -0.6l2.1 1l2.6 4.4l2.2 -2.1l4.5 1.7l3.4 -1.2l10.2 1.3l3 3l4.9 -1.1l3 2l5.4 16.7l8.2 -5.5l-1 -3l4 1.7l6.3 -3l14.5 -6.3l0 -2l5.2 -0.7l-5.6 -2.4l1.5 -7.4l4.8 -9.3l-0.8 -8.2l-0.6 -4l-3.3 -1.8l-4.8 -6.6l-16.4 -16.4l-2 1.3l-8.8 0.1l-6.2 0.9l-12.3 -10.8l-8.3 8.5l-7.7 7.9l-12.4 12.8l-3.7 3.8l-9.3 9.5z"/><path data-id="13159" d="m365.6 414.2l-0.1 6.5l4.8 3.4l0.9 5.7l1.8 3.6l-1.1 4.8l3.9 7.7l-2.4 8l3.9 4.5l-3.1 3.1l-0.1 5.6l1.9 2.6l-0.4 4l56.7 -10.1l1.7 -55.7l0.9 -10.2l-11.1 -7.8l-20 -15.3l-1.2 3.9l2.8 5.9l-2.7 1l-3.7 -4.5l0.1 3.1l-6.7 1.9l-7.3 7.1l-11.3 3.8l-1.2 4.5l-3 1.1l1.1 3.8l1.9 1.6l-6.7 6.3z"/><path data-id="13161" d="m581 814.3l0 22.3l4.7 0l39.2 -0.3l22.2 0l0 -9.4l0.2 -6.3l-6.3 0l0 -3.2l6.4 0l0.3 -22l18.4 0.1l0 -31.7l-5.6 0.6l-4.5 -1.9l-4.1 2.8l4 1.4l-2.4 1.6l-5.4 -2.3l-3.4 -0.9l-2.2 0.6l-4.5 0.4l-6.6 6.2l-10.3 3.2l-2.6 -1.2l-4.9 0.7l1.2 1.9l-3.7 3.7l-1.2 -1.3l-3.7 4.4l-7 4.1l-1.3 3l-3.3 -1.1l-4 3.7l-0.8 2.9l-4.1 4.1l-4.4 0.6l-0.1 13.4z"/><path data-id="13163" d="m617.7 474.9l3.4 6.3l1.6 0.1l-0.7 4.1l6 6.7l-1.1 1.7l2.8 1.4l1.3 3.4l8.8 4.5l1.2 -1.3l1.5 10.8l0.8 7.1l6 7.5l-3.2 21l1 2.8l4 5.4l9.2 8.2l5.1 1.5l7.5 -3.8l-4.2 -8.5l12 -1.3l1.4 -2.7l7.2 -3.2l0.8 1.1l5.3 -13.2l4 -12.3l-4 -31.3l2.1 -11.9l3 -10.8l7.2 -19.5l-1.3 -0.2l-2.3 -5.4l-3.8 -3.5l-6 -2.3l-1.1 -2.9l-8.4 -5.9l-2.5 -0.1l-3.9 0.4l-2.5 -0.3l-10.1 9.4l-8.2 6.2l-23.9 19.7l2.3 4.9l-1 8l-2.2 -0.9l-15.3 -0.7z"/><path data-id="13165" d="m725.6 551.6l0.6 1.8l13 37.3l17.1 14.1l12.1 -3.8l21.6 -6.8l-5.2 -3.5l-0.6 -2.5l0.2 -2l21.1 -57l-3.4 -4.7l-15.4 -6.3l-20.8 7.5l-26.2 1.7l-8.9 8.3l-5.1 16z"/><path data-id="13167" d="m558.3 568.7l-2.5 10.8l19.8 -1.9l16.2 7.2l-1.8 6.6l26.4 12l-1.2 22l5.6 2.8l5.2 -2.3l4.2 0l0.1 3l1 -5.8l2.6 1.9l4.4 -1.8l-5.3 -5.9l-1 -5.7l12.7 -8.4l4.6 -3.1l-1.2 -2.1l3.9 -2.3l1.3 2.2l6.1 -3.3l-5.6 -3.7l-1.7 -5.6l5.8 -6.5l3.8 -2.2l0 -2.3l3.9 -8.4l-5.1 -1.5l-9.2 -8.2l-4 -5.4l-8.3 0.6l-10.3 5.6l-12 3.7l-2.9 -3.4l-6.4 3.2l-4.5 0.7l-7.5 3l-1.1 -5.9l-5.2 -2.5l-0.9 -1.7l-30.3 12.6l0.4 2z"/><path data-id="13169" d="m375.5 473.5l-0.2 1.3l3.7 2.5l0.9 3.1l4.4 6.2l5.6 4l2 4.9l2.5 2.8l0.9 2.3l-1.8 2.5l1.5 9.5l3 2.3l-0.6 3.5l2.1 2.2l1 6.8l4.5 3.5l2.4 1.1l1 2.7l12.4 0l4.4 5.7l2.8 -3l8.7 9l2.1 -0.9l22.4 -13.3l10.3 -7l-4.8 -18l-2.9 -11.3l-4 -15.5l-3.4 -20.1l-1.8 -0.1l-22.7 3.5l-56.7 10.1z"/><path data-id="13171" d="m280.4 498.7l-0.2 10.1l31 0.4l-0.2 14.4l14.5 0.2l2.1 -4.1l0.3 -20.2l0.3 -25.3l0 -18.3l-17.3 0l0 6.1l-21.1 -0.2l-5 -2.4l0 28.5l-0.1 9.1l-4.3 2z"/><path data-id="13173" d="m505.2 986.3l0 9l3.6 0l0 2.1l0.2 16.3l28.7 0.7l3.3 8l1.3 8.1l-1 4.2l1.4 3.7l1.1 1.2l1.5 -3.6l7.4 -2.4l0 -77.1l-15.9 0.1l1.4 3.8l0.4 5.2l-26.6 -0.1l-0.5 20.8l-6.4 0.1z"/><path data-id="13175" d="m499.2 610.4l9.9 21.5l8.5 18.6l5.8 12.7l25.3 55.8l21.8 -12.6l6.1 0.9l8.9 -8.9l9.9 -9.8l2.8 0l-1.4 -1.5l8.4 -8.4l-5.6 -4.9l3.8 -8.1l3.8 -7.4l2 -1.6l1.2 -4.9l-1 -3.5l2.4 -2.9l1.1 -4.3l4.7 0.1l3.4 -2.2l2.4 -6.8l-4.5 -2.8l2 -1.3l-5.6 -2.8l1.2 -22l-26.4 -12l1.8 -6.6l-16.2 -7.2l-19.8 1.9l-17.6 8.7l-39 22.2z"/><path data-id="13177" d="m265.9 776.1l0 10.5l9.5 2.2l3.5 3.6l-0.2 2.1l3.8 3.4l-1 3.8l0.8 5.3l-5.4 -0.1l-1.5 10.2l-0.4 12.8l-2 0l1.9 1.8l-0.5 17l7.7 -0.1l45.7 -0.3l3 -6.1l2.2 -0.5l1.3 -3.1l-2 -5.6l0.5 -1.7l-2.7 -6l5.2 -4.6l0.9 -4.7l3.6 -2.7l-1.1 -4.5l-3.5 -2.1l-0.1 -2.3l3.8 -1.2l2.9 0.8l0 -3.9l2 -3.8l5.9 -3.3l2.7 -3.8l-1.6 -4.5l2.4 -7l-2.8 -0.5l-53.6 -0.8l-30.9 -0.3z"/><path data-id="13179" d="m795.8 751.4l-2.3 0.3l6.4 9.2l3.1 -0.8l6.8 2.9l0.3 8.2l-4.3 12l0.1 3.3l6.2 5.1l10 10.9l5.8 2.1l3.6 3.7l0.3 5l3.1 1.5l26.8 14.7l1.6 0.1l5.5 1.3l-0.5 3.7l2.6 4.7l4.5 4.6l3.5 -2.7l5.5 2.1l6 -2.7l4.8 1.8l5.4 -3l2.5 2.1l8.5 0.1l8.3 4.9l1.2 2.7l4.1 2.7l1.5 2.5l-0.9 7.4l1.7 0l0.6 2l0.9 1.1l1.2 -0.1l2.7 -3.6l2.2 -5.7l3.5 -7.4l0.4 -7.7l-1 -5l0.2 -2.1l0.9 -3l-1.7 -1l-2.1 0.2l-1.1 1.3l-1.4 0.6l-5.3 -2.5l-3.6 -4.4l1.1 -1.6l-4.7 -4.3l-8.2 -2.5l-2.3 -3.3l0.5 -4.4l-1.9 -2.5l-7.1 1.2l-1.9 -4.7l0.8 -2.3l-2.5 -1.2l-1.1 -4.3l-2.4 4.1l-2.1 -1.4l-4.8 -4.7l-5.6 -21.8l-0.6 -1.8l-4 1.4l-7.8 -2.8l-2.5 -6l-1.5 1.9l-5.7 -0.6l-2.5 2.5l-8.8 -0.1l-3 -3.2l-3.1 0.3l-0.2 -5.1l-2 -4.1l-10 -12.3l-4.5 -1.4l-0.8 -2.6l-3.4 -3.4l-5.4 -0.3l-9 10.3l-10.8 7.8z"/><path data-id="13181" d="m621.2 258.8l6 23.1l2.4 8.4l6 -3.5l0.8 4.6l-4.7 6.8l4.6 10.8l19.8 37l4.5 0.5l5.7 -4.4l1.2 1.1l2.7 -4l12.8 -4.2l2.7 -2.6l6.8 -1.9l6.4 4.1l7.4 -2.2l4.6 1.8l-3.4 -3.5l-0.5 -1.9l0.3 -1.6l-0.7 -4.2l-0.3 -1l-1.2 -2.9l-0.3 -1.6l-1.6 -1.8l-1.7 -0.6l-0.3 -1l-1.1 -0.6l-1.5 -1l-0.7 -1l-1 -1l-1.4 -0.6l-1.2 -0.3l-0.1 -3.2l-0.3 -1.2l-1.9 -1.4l-1.2 -1.4l-2 -2.2l-2.8 -1.8l-1.9 -1.8l-1 -0.5l-3.6 -1.5l-1.1 -0.8l-1.1 -1.4l-1.1 -0.8l-1.2 -0.7l-1.1 -0.5l-1 -1.1l-1.6 -0.7l-1.2 0.2l-1.8 0.4l-1.3 -0.5l-2 -2l-2 -0.9l-1.5 -1l-0.9 -1.2l-2.2 -1.6l-2.1 -2.3l-2.7 -2l-2.3 -4.1l-0.9 -1.4l-1.1 -1.4l-2.4 -1.6l-2 -0.1l-1.2 0.5l-3.1 -0.5l-2.1 -3l-8 -6.1l-4.6 -0.6l-3.1 2.4l-1.2 -2.8z"/><path data-id="13183" d="m760.8 803.8l-0.2 3.2l2.5 0.5l3.7 0.9l1.5 6.1l2.2 -0.3l1.7 2.6l1 -2l2.4 2.4l-0.8 2.6l1.7 3.8l6 2.8l2.3 5.9l3.5 2.7l-0.4 2.7l4.6 0.9l0.9 2.9l2.2 -0.1l0.1 -3l5.5 5.3l-0.6 2.3l4 1.4l0.7 3.4l2.6 -0.3l6.5 3.9l1.5 2.6l4.4 2.8l0 5.9l5.7 1.7l1.3 2l8.6 -3.1l11.8 -6.2l15.6 -30.3l-1.6 -0.1l-26.8 -14.7l-3.1 -1.5l-0.3 -5l-3.6 -3.7l-5.8 -2.1l-10 -10.9l-6.2 -5.1l-0.1 -3.3l4.3 -12l-0.3 -8.2l-6.8 -2.9l-3.1 0.8l-6.4 -9.2l-6.3 6.6l-1.8 3.8l-2.8 1.2l-2.7 5.2l1.5 7.1l-2.2 5.7l-4.2 2.1l-2 8.5l-3.9 3.1l-3.1 7.4l-5.2 1.4z"/><path data-id="13185" d="m445 1062.1l3.6 5.1l-0.2 3.2l6.1 7.3l4.6 0.7l1.1 2.9l3.8 -0.3l6.6 4l1.1 5.2l3.5 0.2l6.2 0.4l8.3 0.5l17.8 1.2l2.7 0.2l2.3 0.1l1.5 0.1l4.1 0.4l0.8 -40.4l1.5 -3.3l4.5 -0.1l0.2 -6.3l3.2 -0.4l0 -4.3l14.4 -0.2l-1.4 -3.7l1 -4.2l-1.3 -8.1l-3.3 -8l-28.7 -0.7l-0.2 -16.3l0 -2.1l-3.6 0l-20.4 -0.5l-19 -0.5l-18.9 -0.6l1.5 0.9l1 5.5l4.3 5.1l2.9 8.9l-1.7 2.5l-0.5 8.4l4.7 3.7l3.8 1.3l6.4 0l2.8 2.9l1.9 4.7l-0.9 2.7l-2.9 1.1l-6.5 2.9l-3.7 -0.8l-2.5 3.3l-5 -0.6l0.6 3.2l-2.7 6.4l0.5 3.1l-5.9 3.3z"/><path data-id="13187" d="m296.8 117.1l0.1 1l4.7 4.5l11 12.1l3 0.5l-1.2 1.4l26.5 12.1l12.6 -10.6l-2.4 -2.3l4.6 2.4l14 -11.6l2.2 -6.8l-2.3 0l0 -2.3l-2 0l-2.4 -2.3l0 -2.6l0 -14l-2.7 -3.6l0.6 -11.6l2.3 -3.5l1.5 -8.6l-4.4 -0.3l-4.8 -2.3l-8.2 -2.2l-9.1 6.4l-2.5 9.6l-6.2 1.9l-2.6 7.4l-3.9 -0.2l-3.3 -3.4l-5.9 0.8l-5.5 -2.9l-2.8 1.2l-1.7 3.4l-2.5 -0.4l-6.4 11.6l-0.5 15.3z"/><path data-id="13189" d="m621.6 351.3l-1.3 2.3l8.9 25.9l4.8 14.2l6.5 8.5l0.4 1.9l1.6 8.5l-0.8 5.5l2.6 -1.2l5.3 3.9l12.7 0.4l8.2 5.2l5.7 2l2.5 0.3l3.9 -0.4l12.4 -10.6l-9.7 -12.8l0.9 -3.6l-5.9 -7.8l-4.3 -4.2l0.3 -2.6l-3.3 -3.6l-0.8 -6.2l3.7 -3.4l-10.9 -5l0.8 -4.8l4 -4.8l0.2 -2.5l-4.3 -2.7l-1.8 -7.6l3.4 -3.1l-1.2 -1.1l-5.7 4.4l-4.5 -0.5l-5.8 -5.2l-3.8 3.9l-2.5 -1.1l-1.5 2.7l-4.5 -1.9l-1.7 1.6l-2.1 -2.8l-0.6 2.5l-6.5 2.1l-1.2 3.2l1.4 1.8l-3.5 0.3l-2.1 -1.7z"/><path data-id="13191" d="m827.3 869.3l2.3 2.5l-1.2 4.5l9.7 10l-2.6 4l3.6 3.2l-0.7 1.4l6.9 8.6l6.7 3.6l-1 2.3l3.1 -0.2l0.3 2.1l6 3l2.6 3l4.7 0.9l3.5 3.3l3.2 -1.4l0.6 4.6l6.8 1.4l-1.9 3.2l2.3 -0.1l3.9 -5.4l3 -0.4l10.4 2.3l4.4 4.1l5.9 -0.5l1.9 -2.3l1.3 -2.8l-2.8 -2.2l-1.4 -0.5l-1.8 -0.1l0.8 -6.1l0.1 -4l4.2 -9.1l2.5 -4.5l8.8 -12.4l3.2 -7.5l2.6 -3.3l-0.2 -1.3l-0.7 -1.3l-2.4 -2l-1.4 -0.4l-2.9 2.3l-9.5 -0.2l-1 -0.5l0.7 -4.3l1.2 -1.9l2.8 0.9l5.5 -1.3l2.1 -2.6l2.1 0l0.9 -7.4l-1.5 -2.5l-4.1 -2.7l-1.2 -2.7l-8.3 -4.9l-8.5 -0.1l-2.5 -2.1l-5.4 3l-4.8 -1.8l-6 2.7l-5.5 -2.1l-3.5 2.7l-4.5 -4.6l-2.6 -4.7l0.5 -3.7l-5.5 -1.3l-15.6 30.3l-11.8 6.2l-8.6 3.1z"/><g data-id="13193"><path d="m325.8 623.7l-0.1 2.1l9.4 0.1l1.1 -2l-10.4 -0.2z"/><path d="m283.5 663.1l-0.3 18.9l7.7 0.3l-0.2 15.9l8.1 0.4l10 0.4l-0.1 10.6l10.5 -1.5l7.5 1.5l4.5 3.4l-0.7 -1.9l3.9 -5.6l4.8 -3.9l5.1 -7.7l14.2 -8.2l0.6 -2.8l9.7 0.3l0.3 -16.6l-2 0l0 -6.1l4.1 0.1l0 -2.9l0.1 -11.3l-2 0l-0.1 -7.2l-5.3 -2.6l-1 -2.5l-4.9 -2l-4.7 -0.1l-1.7 3.4l1.6 -6.9l-1.9 1.4l-18 -0.2l0.1 2.4l-3.4 -0.1l0 -4l-4 -2.1l-4 0l0 1.9l-8.2 0l-2.3 2l-15.9 26.1l-9.4 0l-2.4 1.4l-0.1 5.8z"/></g><path data-id="13195" d="m462.3 204.8l4.8 6.6l3.3 1.8l0.6 4l0.8 8.2l-4.8 9.3l-1.5 7.4l5.6 2.4l8.4 3.7l5.4 4.5l6.5 0.4l1.1 1.8l4.5 -3.7l3.4 3.3l5.8 -2.5l6.1 -6.1l8.5 -3.3l4.8 5.8l2.2 -2l8.8 4.3l4.2 -3.8l5.7 0l5.3 -3.1l-3.2 -5.5l-9.4 -8.6l1.1 -3.6l-3.5 -2l-4.1 -8.5l-5.7 -1.7l-1.7 -2.9l1.5 -7.5l3.7 -5.4l-7.9 -9.8l0.5 -2.9l-12.5 8.9l-6.3 -2.5l-7.6 0.5l-7.1 -0.7l-5.1 -4l-3.4 1.4l-8.8 9l-3.8 4.5l-6.1 2.2z"/><path data-id="13197" d="m198.9 632.6l-0.3 65.1l2 0l6 0l4.2 5.7l0.1 4.8l7.5 0.3l-0.1 3.6l4 0l-0.1 4l3.9 2l0.1 4.1l20.1 0.1l0.2 -8l2 -2l0.1 -4.3l-2 -0.6l0.1 -9.4l4 0.1l0.1 -14.3l-0.7 -2l4.9 0.1l-0.5 -29l0 -5.3l-3.5 -2.1l0.2 -10.3l-5.4 -2l0 -6.3l-4.1 -3.9l1.8 -6.9l-10 0l0.1 3.4l-2.7 1.6l-9.7 -0.2l-0.6 -1.5l-2.6 2.2l1 3l-4.9 1.3l-4.2 -3l-3.5 1.3l-3.3 -1.3l-0.2 10l-4 0z"/><path data-id="13199" d="m155.5 507.6l-0.1 6.4l0.6 2.3l0 22.1l3 1l20.2 -0.2l3 2.8l7.6 3.3l27.3 -0.1l13.4 -9.1l-0.3 -5.4l-3.9 -2.5l1.7 -8.7l-2.9 -5.2l1.2 -0.4l0 -7.3l-2 -2.4l0 -6.9l2 -1.9l0.5 -8.6l2.9 -1.9l-1.4 -9.1l1.4 -0.9l-0.8 -5.5l1.7 -6.9l2.2 -2.2l1.3 -3.4l-2.5 -5.9l-25.1 -0.3l-6.2 -1.8l-4.9 1.7l-25.3 -0.2l-12 -0.1l-2.1 8.1l-0.4 49z"/><path data-id="13201" d="m144.3 938.8l-1 45l40.2 0.8l17.9 0.3l0.2 -2.8l21.4 0.1l1.2 -43.4l-21.9 -0.7l-1.4 0.6l-7.3 -0.1l-2.3 1.4l-46.8 -1.1z"/><path data-id="13205" d="m230.5 971.4l-0.3 11l27.6 -0.1l54.6 0.2l22.7 0.2l1.1 0l0.1 -6.1l-2.2 0l2.3 -2.3l0.7 -54.7l0.3 -26.7l-24.8 0.3l-4.6 0l-3.2 7.1l-5 0.8l0.3 3.1l-3.9 1.3l-1.4 9.1l-5.1 -0.1l-1.7 3.6l-4.6 1.4l-2.6 -1.4l-0.6 2.2l-9 2.6l-5.8 4.2l1.1 3.3l-1.1 3.2l-4 4.8l-1.4 4.7l-5.7 2.5l-3.2 4.8l1 2.7l-1.6 2.2l-1.7 -1.8l-8.5 7.7l-9.7 10.5z"/><path data-id="13207" d="m311 523.5l-0.2 20.7l30.6 0.2l2.1 -2l0 2.1l7 0.1l9 0.1l4 -2.8l1.9 -1.3l29 -20.1l-1.7 -1.9l4.9 -0.1l0.6 -3.5l-3 -2.3l-1.5 -9.5l1.8 -2.5l-0.9 -2.3l-2.5 -2.8l-2 -4.9l-5.6 -4l-4.4 -6.2l-0.9 -3.1l-3.7 -2.5l0.2 -1.3l0.4 -4l-1.9 -2.6l0.1 -5.6l-4.3 -4.1l-3.5 -0.9l-38.3 -0.5l0 18.3l-0.3 25.3l-0.3 20.2l-2.1 4.1l-14.5 -0.2z"/><path data-id="13209" d="m620.4 678.3l-1.3 3.4l2.2 0.4l-1.3 2.3l3.1 4.4l-2.5 6.1l2.9 2.7l-0.2 3.3l2.2 3.6l-1.5 2.6l1.2 6.4l2.9 2.1l-0.2 2.9l-2.6 4.3l0.5 4.7l2.6 6.1l-2.3 1.9l2.9 2l-1.1 3.1l2.5 3.5l-1.1 3.6l2 0.4l0.1 4.1l10.5 8l1.8 3.7l-0.9 1.9l2.2 -0.6l3.4 0.9l5.4 2.3l2.4 -1.6l-4 -1.4l3.4 -2.1l8.8 -61.7l0.4 -18.7l6.3 -15l-50.4 10.6z"/><path data-id="13211" d="m403.9 356.6l-1.4 2.1l2 4.4l-1 11.3l20 15.3l11.1 7.8l53.3 -12.3l0.7 -2.7l-1.5 -3l1.3 -5.4l1.8 -1.4l-3.6 -2.4l-5.1 -5.1l-3.3 -5.3l-4.3 -4.1l-2.7 -5.5l-2.3 -8.5l-2.8 -2.7l-2.3 -6l-2.4 -2l-4 -4.5l-4.2 -1.7l-3.5 -13l-4.5 -7.9l-4.8 -3.1l-4.3 5.5l-1.7 3.7l-17.7 26.9l-13 19.7z"/><path data-id="13213" d="m141.8 83l-3.1 -0.9l3.7 3.5l2.8 8l1.1 4.7l9.3 0l13 1.9l4.7 0l2.7 -1.8l4.3 1.2l0.1 -2.8l6.3 -0.2l0.3 4.5l-3.5 -1.9l0 3.6l5.4 0l4.9 3.9l5.8 0l-0.5 -37.2l4.5 -11.1l-1.2 -1.3l3 -1.9l3.7 -1.6l5.8 -8.7l-7.6 -7.7l-0.6 -34l-22.2 0.1l-10.2 0.1l-6.8 0.1l-1.2 4l-4.5 7.4l-1.6 6.3l3.9 4.3l-1.9 1.1l3.1 5.2l-1.4 3.9l-3.6 0.3l-1.3 7.4l-2.9 4.5l0.7 1.8l4.5 1.6l-5.2 4.2l-2.4 -1.2l1.3 7.5l2.9 2.8l-0.7 3.1l-3.1 1.2l3.4 1.9l-1.8 4.4l-3.8 -1.9l-1.6 2.4l-7.2 -2.8l-1.8 2.3l9.6 7.3l0 2.5l-2.8 0.8l-1.8 -4l-4.1 1.4z"/><path data-id="13215" d="m110.3 604.4l2.5 7l7 6.8l2.5 2.4l3.2 4.7l0.7 3.4l0.2 1.1l1.5 7.1l0.1 6l4.9 2.6l1.8 5l-2.5 1.9l-0.4 6l-0.9 2.2l3.8 1.9l5.6 -1.3l9.1 -5.4l2.3 -2.4l7 -1l2.2 0.3l2.4 0.1l1.6 0l2.7 -1.7l2.7 1.4l3 -2.8l2.1 1.1l9.3 -21.7l6.2 -2.7l3.1 -3.2l0.1 -1.1l2.5 -7l-5.7 0.1l0 -5l-9.6 0.1l-26.8 0l-6.9 0l-1.5 0l0 -6l-1.1 0l-5 0l-9.5 0l-20.5 -0.1z"/><path data-id="13217" d="m327.6 374.6l-2.1 2.7l2.6 -0.9l2.2 5.2l7.2 1l4.8 2.6l5.9 0.5l5 7.8l-0.3 1.6l2.4 6.7l3.6 5.3l6.5 5l0.2 2.1l6.7 -6.3l-1.9 -1.6l-1.1 -3.8l3 -1.1l1.2 -4.5l11.3 -3.8l7.3 -7.1l6.7 -1.9l-0.1 -3.1l3.7 4.5l2.7 -1l-2.8 -5.9l1.2 -3.9l1 -11.3l-2 -4.4l1.4 -2.1l-3.9 -3.2l1.7 -1.9l-9 -7.2l-5 -0.2l-6.8 -5.1l-20.4 -15.4l-5.6 -4.2l0.3 8.1l-2.4 0.4l0.9 4.7l-2.2 10.2l-4.3 5.7l-4.9 6.5l-2.9 3.8l-4.6 6.1l-0.9 1.1l-3.7 4.9l-2.6 3.4z"/><path data-id="13219" d="m411 278.6l1.7 -0.5l1.7 5.4l9.8 0.8l-0.7 4.1l2.7 4.7l8.8 5.9l5.6 2l4.8 3.1l4.5 7.9l3.5 13l4.2 1.7l4 4.5l24.1 -9.1l-1.2 -1.2l3.6 -5.7l-0.1 -5.5l-5.4 -7.1l6.4 -9.2l-10.4 -1.8l-0.4 -3.5l-7 -1.9l-3.3 -3.5l-1.2 -2l-4.8 -3.8l-3.5 -3.5l-2.8 1.1l-11.8 -2.5l-3.5 0.3l-6.1 -8.8l-6.2 4l-16.9 11.2z"/><path data-id="13221" d="m482.4 302.5l5.4 7.1l0.1 5.5l33.9 15.9l14.6 -4.2l7.1 6.2l4.1 -0.6l0.5 -2l9.3 -8l-2.3 -4.6l-5.8 -7.3l0.2 -1.2l2.1 -4.3l3.1 -2.2l4 -9.5l4.3 -2l2.1 -5.2l4.7 -4.9l3.3 -6.4l4 -1.4l1.9 -3.3l4.5 -0.1l6.7 -2.3l2.9 -5.4l-9.5 -3.4l-2.6 -2.1l-1.1 2.2l-4.6 0.1l-3.5 -4.2l-12.8 -3.8l-0.3 -3.3l-6.9 -3.9l-5.3 3.1l-5.7 0l-4.2 3.8l-8.8 -4.3l-2.2 2l-4.8 -5.8l-8.5 3.3l-6.1 6.1l-5.8 2.5l-3.4 -3.3l-4.5 3.7l-2.2 -0.4l0.6 7.7l-2.6 4.7l0.7 2.4l7.3 9.6l-0.5 1l-6.9 13.3l-6.4 9.2z"/><path data-id="13223" d="m116.6 266.8l-0.1 12.2l2.9 0l-0.2 19l-0.1 4.3l21.5 5.4l7.1 2.5l4.7 1.5l9.7 -0.3l1.5 -0.7l5.4 -0.3l1.3 -0.8l5.5 -0.9l5.5 -0.2l2.2 -0.2l1.4 0l0 -4.4l-0.2 -3.5l0 -1.9l0.1 -19.2l0.2 -11.1l-3.4 -0.1l0.1 -20.8l0.1 -6.9l0.1 -5.6l-25.4 -0.9l-7.9 0l-5.4 0l-1.3 2.7l-10.5 30.5l-14.9 -0.3z"/><path data-id="13225" d="m333.4 628.4l-0.3 1.3l18 0.2l1.9 -1.4l-1.6 6.9l1.7 -3.4l4.7 0.1l4.9 2l1 2.5l5.3 2.6l6.2 7.1l4.1 -1.8l0 -12.3l2.2 -4.1l1.9 1.8l6.1 0.1l0.1 -7.2l5.4 3.2l0.7 -2.6l0.1 -16l0.1 -9.8l-1.9 -4.1l3.9 0l0 -5.9l1.6 -4.1l-13.8 -0.3l-24.4 19.8l-13.2 10.8l0 4.2l-2 -2.6l-10.2 8.2l-1.1 2l-1.7 2.5z"/><path data-id="13227" d="m199.6 115.4l0.2 21.8l1.9 1.9l-2 0l0.1 11l14.8 0.1l0 7.8l29.4 0.3l0 -2l3.7 0.3l2.6 1.7l2.3 1.9l1.8 -1.9l28.2 -0.1l0.1 -21.5l-13.2 -0.6l-5.5 -20.5l0 -3.7l-5.4 0l0 3.7l-13.8 -0.2l-6.4 -0.2l0 -3.4l-3.7 0.1l1.9 3.3l-5.5 -0.1l0 -3.4l-3.9 3.4l-27.9 0.4z"/><path data-id="13229" d="m669.1 899.2l0 3l3.1 0l0 3.4l-3 0l0 3l3 0l0 3.4l2.8 0l-0.2 13.3l1.4 4.8l1.9 0.2l3.5 6.5l7.5 6.2l1.6 3l6.4 0.4l3.3 1.8l8.9 -0.9l6.9 4.5l4.4 -3.8l2 0.3l3.4 -2.6l0.2 -6.3l2.7 -0.7l6.9 -5.3l6.3 0.1l3.8 1.3l6.2 -1.9l3.2 0.4l2 -2.9l1.1 -4.7l-2.7 -0.7l-3.2 -4l-4.3 -8.7l-0.1 -2.7l-3.4 -8.7l1 -11.2l-2.2 -2.9l-5.7 -3.4l-8.9 2.2l-4.7 0l-13.4 -11.7l-1.6 -3l-2.7 0l0.1 3.2l-3.6 0.1l0 3l-2.9 -0.1l0 3.2l-6.5 -0.1l0 6.2l-3 0l0 2.7l-3.1 0l-0.1 3.7l-3 0.1l0 2.9l-11.9 0l-0.1 3.2l-3.2 0z"/><path data-id="13231" d="m224.2 497.3l0 6.9l2 2.4l0 7.3l4.5 -0.5l3.3 -5.2l46.1 0.6l0.2 -10.1l4.3 -2l0.1 -9.1l0 -28.5l-4.2 -0.1l-22.1 -0.1l0.1 -2.7l-4.3 0l0 -2l-12.1 -0.1l-0.8 1.6l-4.2 0.5l-1.2 3.1l-3.2 1.2l-2.2 2.2l-1.7 6.9l0.8 5.5l-1.4 0.9l1.4 9.1l-2.9 1.9l-0.5 8.6l-2 1.9z"/><path data-id="13233" d="m38.5 234.4l0.3 2.2l2.8 17.7l1.7 9.7l2.6 15.8l36.5 0.6l0 -1.8l34.1 0.5l0.1 -12.2l14.9 0.3l10.5 -30.5l1.3 -2.7l-26.1 -0.1l0 -3.4l-15.8 -0.1l-0.1 3.4l-7.4 -0.1l0 -3.5l-11.1 -0.1l-10 -0.8l-0.1 5.5l-5.3 -0.1l-29.1 -0.4z"/><path data-id="13235" d="m417.6 683.9l1.9 0l-0.5 42.2l36.3 0.3l0 -2l4 0.1l0 -2l4.1 0.1l7.5 2.1l2.2 2.8l-1.9 1.6l4.6 0.1l6 -4.9l0.9 -1.9l-4.2 -4.3l7.1 -7.1l-17.4 -17.6l5.8 -5.6l-4.5 -4.1l-27.3 -28l-1.1 3.1l-4.3 -3.3l-11.7 16.4l-7.6 11.9z"/><path data-id="13237" d="m433.9 407.8l-1.7 55.7l22.7 -3.5l1.8 0.1l2.2 2l5.7 -1.5l5.9 3.6l0.1 -2.8l6.7 3.2l2.6 -3.9l5.9 -1.8l3.5 0.8l4.6 -12.7l-0.4 -1.4l0.2 -4l5.2 0.6l-0.3 -4.8l10.8 -4l6.8 -4.5l0.4 -7.5l-4.2 -3.8l-1.2 -3.9l-5.9 -6.2l-5.6 3.7l2.5 -5l-3 -1l-3.6 1.3l0.9 -4.8l-4.9 -6.4l1.1 -3.3l-3.6 -1.9l-1.1 -4.9l-53.3 12.3l-0.9 10.2z"/><path data-id="13239" d="m97.2 795.1l2.2 5.9l-1.1 6.5l0.6 2.1l12.6 2.2l10 -1.8l14.2 0.2l10.1 0.3l0.7 -36.5l-2.1 -2.1l-4 -0.2l0.1 -2l-4.1 -0.1l-3.9 -2l0.1 -2.2l4.1 -1.8l-18.5 -2.2l0 -2.3l-4.5 -1.8l-2.5 6.9l-1.4 4.7l-7.9 12.7l-2.1 2.4l-2.5 10.9z"/><path data-id="13241" d="m409 31.2l-1.1 7.8l2 6.4l8.2 0.3l2.4 -1.2l3.1 1.7l2.2 6.3l4.1 2.7l-1.2 1l2.8 8.1l7.6 4.5l2 -0.7l5.2 2.6l4.9 -2.2l5.1 -3.8l5.8 4.7l3.4 -2.2l7.3 5.4l-0.2 -3.2l0.9 -2.2l2.1 -1.3l3.9 -4.4l-0.2 -1.5l0.2 -2.1l-0.8 -4.1l2.1 -2.6l2.1 -0.6l0.4 -1.6l-0.2 -1.2l1.1 -0.2l1.2 -1.2l0.3 -1.4l1.1 0.4l1.9 1.5l1.5 -1.2l0.2 -2.9l-0.6 -1.1l0.5 -2.1l1.2 -0.3l1.4 0.2l0.6 -2l1.1 -1.2l0 -1.2l1.3 -0.9l0.5 -1.6l0.2 -1.1l1.1 -0.3l2.6 0l1.4 -1.2l1.7 0.6l0.9 -1.2l-0.7 -1.4l1.5 -1.2l1.5 -0.7l2 -1.7l1.4 -1.6l1.2 -1.7l1.6 -0.1l1 -1.6l1.3 -0.7l1.4 0.6l2.7 -1.5l0 -1.1l1.1 -0.5l0.9 -1.1l-1.3 -2l-0.1 -1.3l1.3 -1.4l-0.1 -1.2l0.3 -1.2l1.8 -1.9l0.4 -1.2l1.1 -2.2l-0.2 -1.8l-0.6 -1.1l-17.2 0.3l-27.8 0.9l-33.6 0.6l-13.9 0.3l0.5 11.8l-11.5 2.1l0.5 6.5l-5.9 0.7l-0.8 3.9l-3.1 0.8l-2.3 3.2z"/><path data-id="13243" d="m135.7 810.3l-0.1 15.9l2.1 0l-0.1 8.3l3.9 1.9l-0.1 4.2l-2.3 0l0 9.1l26.1 -0.3l33.9 -0.1l1.5 -5.8l5.7 1.4l-0.1 2.3l3.3 0.1l2.1 -2.3l-0.1 4l2.3 0l1.8 -4l0 4l1.9 -1.9l4.6 1.8l2.2 -6.3l0.2 -7.3l-2.4 -8.9l-2.9 -5l-2 -6.9l1.4 -2.4l-8.3 -0.4l0.7 -36.6l-11.8 0l-4.2 -0.1l0 -2l-2 2.1l-46.5 -1l-0.7 36.5l-10.1 -0.3z"/><path data-id="13245" d="m682.5 428.2l2.5 0.1l8.4 5.9l1.1 2.9l6 2.3l19.6 -7.4l1.9 0.2l1 1.8l3.2 1.7l2.4 1.6l1.8 6.6l5.1 4.5l2.7 0.4l5.9 -3.1l3.1 1.6l13.8 2.3l9.4 -6.5l10.2 -2.2l7.1 3.6l1 -4.7l1 -0.1l0.9 -1.6l-1.2 -1.4l-1.6 -1.2l-2 -0.7l0 -3l1.8 -0.4l1.4 -1.1l-1.5 -1.6l-3 -0.9l-1.6 1.7l-1.7 -0.8l-0.5 -1.6l-2.2 -1.4l0.1 -1.3l-1.2 -0.7l-0.8 1.5l-1 -0.9l-1.5 -1.3l0 -2.2l-1.4 -0.9l-1.7 0.5l-1.4 -0.3l0.4 -1.2l0.7 -1.6l-2.1 -2l-0.3 -1.6l1.4 -0.5l1 0.9l1.8 -0.5l-1.1 -2.3l-1 -4.5l-0.3 -1.6l1.3 -0.7l1.6 -0.4l0.8 -1.2l-0.4 -1.1l-1.3 -1.4l0.5 -1.6l1.8 -0.9l0.6 -1.1l0 -1l-1.5 -2.7l-1.1 -2.5l-1.8 -1.5l-1.6 -0.4l-1 -0.4l-1.9 -1l-2.5 -1.3l-1.4 -0.5l-1.5 -0.4l-1.1 -0.6l-1 -2l0.1 -1.6l-2.3 -4.9l-1.2 -0.7l-0.6 -1.9l-2 -1.1l-0.8 -1.4l-1 -1.1l-5.3 4.3l-3.6 2.9l-7.9 6.9l-4.3 3.7l-32.3 28l-2.4 2l-12.4 10.6z"/><path data-id="13247" d="m298.2 344.2l0.5 4.3l2.1 2.3l9.8 14.8l5.7 0.3l3.5 1.4l6.5 3.4l1.1 3.9l2.6 -3.4l3.7 -4.9l0.9 -1.1l4.6 -6.1l2.9 -3.8l4.9 -6.5l4.2 -5.6l2.3 -10.3l-0.9 -4.7l2.4 -0.4l-0.3 -8.1l-14.1 -10.5l-7.7 7.4l-1 1l-6.9 6.6l-1.4 3.1l-2.4 5.4l-6.3 14.3l-2.4 5.4l-2.8 -4.2l-4.5 -1.8l-4.1 -0.2l-3 -1.7z"/><path data-id="13249" d="m248.6 712.2l-2 2l31.5 0.6l4.1 -0.6l8.7 1.7l7.4 0.2l0.4 -17.7l-8.1 -0.4l0.2 -15.9l-7.7 -0.3l0.3 -18.9l-14.5 -0.1l0.1 -6.3l-8.4 0l0.2 -7.6l-4.1 0l-2.2 3.5l0.5 29l-4.9 -0.1l0.7 2l-0.1 14.3l-4 -0.1l-0.1 9.4l2 0.6l-0.1 4.3z"/><path data-id="13251" d="m784.4 586.2l-0.2 2l0.6 2.5l5.2 3.5l1.5 -1.1l7 3l1.4 3.2l4.3 5.4l4 1.2l4.5 6.4l5 2.6l4.1 4.9l1.4 -0.7l5.5 2.3l1.7 3.1l1.9 -1.2l2.2 2.1l7.5 4.4l1.5 -1.3l1.6 -0.1l6.4 5.8l2 -4.9l31.3 -21.5l-1 -1.7l-2.3 -2.2l-1.5 -1.8l-1.4 -2.7l0 -1.3l1.1 -0.7l0.4 1.1l1.8 -0.8l-0.5 -1.6l2.2 -1.7l0.1 -1l-2.4 -0.8l-0.4 -1l0.6 -1.8l0.7 -2.4l-1.5 -4.4l-1 0.5l-2.9 -2l1.1 -2.8l0.1 -2.1l0.4 -3.1l1.2 -1.6l0.4 -1.1l-0.2 -1.1l-1 -0.8l0 -1.1l0 -1.4l-0.7 -1.3l-1.1 -0.7l-0.1 -1l0.9 -1.1l-0.6 -1l-1 -1.3l0.8 -1.2l0 -1l0.1 -1.9l0.2 -2.2l1.1 -1.3l-0.5 -3.9l-0.2 -1l-1 -1.4l-3.4 -2.3l-1.5 0.3l-1 -0.2l-0.4 -1.1l0.6 -1.4l0.3 -2.2l-0.3 -1.1l-3.2 -0.9l-1.7 -0.2l-0.2 -2.5l1.1 -0.7l1.5 -1.4l-0.3 -1l-2.7 -1.4l-0.2 -2l-0.7 -2.1l-2.5 -2.4l-1 -0.3l-0.6 -1.5l0.7 -1.3l-1 -1.1l-0.8 -1.5l-0.1 -1l0.4 -1l1.1 -0.1l1.4 -4l0.7 -4.1l0.1 -3.2l-2.3 -1.7l-1.9 -3.2l-1.7 -0.4l-4 -2.5l-0.7 -1.5l-47.3 33.9l-21.1 57z"/><path data-id="13253" d="m122.1 983.1l2.6 5.4l2.1 11.9l-0.2 1.1l-0.1 3.4l-0.7 1.7l0.2 1.3l1.1 0.9l2.5 0.6l1.2 0.8l0.5 1.1l0.1 1.7l-0.5 1.9l-0.2 1.1l-0.1 1.4l0.6 1l1.1 0.5l1.2 2.1l0.6 1.1l2.2 2.4l0.8 1.3l0.6 1.2l1.5 2.2l1 0.7l0.6 1.6l-0.6 1.4l0.5 1.3l0.3 1l-0.3 1.2l0 1l1.1 1.4l0.4 1.1l-0.7 1.6l-0.7 1.6l-0.1 1.5l-0.1 1l1 2.4l0.5 1.3l-0.1 1.9l0.1 1l2.1 3.7l0 1.4l-0.4 1.5l1.1 1.2l0.1 1.9l1.7 0.7l1.3 -0.3l2.6 2.4l0.5 1.7l2.1 1.8l1.6 -4.7l3.8 -6.2l7.6 -2.2l2.7 -4.9l3 0l0.3 -5.4l3.4 -3.3l-0.1 -9.6l2.9 -4.5l0.6 -35.8l4.5 -2.2l0.2 -4.7l-40.2 -0.8l-21.2 -0.7z"/><path data-id="13255" d="m230.3 444.2l1.2 6.9l2.5 5.9l-1.3 3.4l3.2 -1.2l1.2 -3.1l4.2 -0.5l0.8 -1.6l12.1 0.1l0 2l4.3 0l-0.1 2.7l22.1 0.1l4.2 0.1l5 2.4l21.1 0.2l0 -6.1l0.2 -12.5l4.2 -4.9l2.9 -3.4l-2.9 -3.1l-10.1 -3.7l0.1 -5.7l-13.8 0l-6.5 0l-0.4 -4.2l-22.1 0l-7.1 0l1.1 3.1l-2.1 7.9l-5.4 3.8l-3 9.3l-13.6 -0.2l-2.2 2.2z"/><path data-id="13257" d="m450.3 132.7l9.7 3.3l3.2 1.8l5.3 -2.4l41 -1.7l15.6 -15.2l-4.1 -6l-1.4 -0.4l-2.1 -1.6l-2.7 -2.6l-0.4 -2.5l-2.9 -0.7l-0.5 -2l0.3 -1.3l-2.1 -1l-3.7 0.5l-3.1 -1.2l-2.1 0.2l-2.2 -0.3l-2.4 -1.7l0.6 -1.6l-1.6 -2l-1.5 -1.5l-1.5 -0.7l-2 -0.4l-1.3 -0.8l-1.8 -1.5l-1.3 -0.8l-1.7 -2.1l-0.1 -1l-1.6 -1l-1.1 0.3l-0.8 -1.5l-1.4 -1.2l-1 -0.5l-1.2 0.2l-0.7 -1.6l-5.4 2.9l-19.9 49.5z"/><path data-id="13259" d="m115.7 752.1l-2 5.4l4.5 1.8l0 2.3l18.5 2.2l-4.1 1.8l-0.1 2.2l3.9 2l4.1 0.1l-0.1 2l4 0.2l2.1 2.1l46.5 1l2 -2.1l0 2l4.2 0.1l0.2 -10.2l2 0l0.1 -5.6l-2.2 0l0.2 -10.9l2 -0.1l0.4 -32.5l2.4 -5.9l-1.9 -10.2l-1.9 0l0 -1.9l-2 0l-30.1 0.5l0 2.5l-2.4 0l0 -2.4l-22.6 0l-0.8 2.2l-8.9 0.7l-2.5 3l3.1 0.9l0.6 1.2l-10.4 4.5l-10 11l2.5 12l-0.5 6.2l-0.9 12.1z"/><path data-id="13261" d="m243.7 763.1l0.7 2.3l12 10.6l5.4 7.9l4.1 2.9l0 -10.5l30.9 0.3l53.6 0.8l2.8 0.5l0.7 -3.3l-1.2 -6.1l-5.4 -12.2l0 -4.5l-2.3 -3.8l-1.7 -2l-2.4 -1.6l-1.3 -6.4l2.5 -5.3l-4.8 -2l-3 -4.7l0.7 -2.4l-5.2 -5.9l1.2 -4.5l-4.5 -3.4l-7.5 -1.5l-10.5 1.5l0.1 -10.6l-10 -0.4l-0.4 17.7l-7.4 -0.2l-8.7 -1.7l-4.1 0.6l-31.5 -0.6l-0.2 8l-0.4 22.8l-2.3 18.1z"/><path data-id="13263" d="m189.3 581.3l0 3.6l1.9 0l-0.1 25.4l0 5l5.7 -0.1l-2.5 7l-0.1 1.1l-3.1 3.2l3.3 0l8.7 -4l3.3 1.3l3.5 -1.3l4.2 3l4.9 -1.3l-1 -3l2.6 -2.2l0.6 1.5l9.7 0.2l2.7 -1.6l-0.1 -3.4l10 0l7.4 0l0.1 -12.1l6.3 -5.3l3 -11.9l5.3 0.1l0.2 -10.4l3.3 -0.1l3.8 -3.1l3.2 -0.6l0.5 -2.9l-3.5 -3.4l-2.8 1.5l-4.8 -1.5l-2.2 -5l-1.6 2l-4.9 -1.4l-2.2 -1.9l-2.3 -7.3l-3.9 -5.6l-2.9 0.1l-1.8 3.2l-3.1 -1.2l-2.1 -5.8l-2.8 0.2l-1.7 -2.6l2.9 -3.5l-6.6 -1.4l-13.4 9.1l-27.3 0.1l1.7 3.8l-0.1 22.6l2.1 2.1l-2.2 1.9l0 3.6l-2.1 1.8z"/><path data-id="13265" d="m548.9 355l-5.1 5.8l5.9 15.1l0.1 7.7l-5.7 5.2l6.1 5.4l6.8 -1l2.4 2.3l7.9 1l6.1 -1.9l4.3 0.7l-3.1 -5.8l9.1 -9.4l1.6 -4.3l5.8 2.6l8.5 -0.3l1.5 -4.3l3.7 -2.6l0.7 -6.3l3 -5.9l5.2 -3.1l-2.5 -5l-10.9 2.1l-7.6 -5.3l-6.9 -5.9l-4.1 1.2l-3.7 2.9l-4 -0.7l-2.2 5.5l-2.3 -3.1l-12.3 -25.3l-9.3 8l-0.5 2l3.6 3.5l3.1 0.8l2.6 3.9l-4.1 4.9l-2 6.8l-1.6 -3.6l-2.9 2.2l2.5 4.3z"/><path data-id="13267" d="m707.8 676.4l1.1 10.2l1.3 1.7l2.4 7.9l-0.8 2.5l1.8 4.8l2.1 2.1l2.3 7.9l-2.3 8.9l-2.1 14.1l-0.9 9l-3.5 31.6l6.9 1.6l0.4 1.5l5.1 -0.8l4.8 1.1l2.1 -2l-0.4 4.1l3.8 0.9l1 -3.3l1 9.1l12.3 9.1l4.2 2.9l2.9 -1.6l1.7 5.4l6.6 4.3l1.4 -1.6l-2.5 -0.5l0.2 -3.2l5.2 -1.4l3.1 -7.4l3.9 -3.1l2 -8.5l4.2 -2.1l2.2 -5.7l-1.5 -7.1l2.7 -5.2l2.8 -1.2l1.8 -3.8l6.3 -6.6l2.3 -0.3l10.8 -7.8l-26.7 -0.6l-19 -7.7l-9.6 -49l-43.5 -9.9z"/><g data-id="13269"><path d="m325.7 625.8l4 2.1l0 4l3.4 0.1l-0.1 -2.4l0.3 -1.3l1.7 -2.5l-9.4 -0.1z"/><path d="m243.6 615.9l-1.8 6.9l4.1 3.9l0 6.3l5.4 2l-0.2 10.3l3.5 2.1l0 5.3l2.2 -3.5l4.1 0l-0.2 7.6l8.4 0l-0.1 6.3l14.5 0.1l0.1 -5.8l2.4 -1.4l9.4 0l15.9 -26.1l2.3 -2l8.2 0l0 -1.9l4 0l0.1 -2.1l10.4 0.2l-6.7 -7.1l-3.6 -2.1l-3.9 -7.8l-0.2 -5.1l3.2 -4.5l-3.5 0.2l-1 -2.9l-5.6 -6.5l-0.2 -2.9l-4.5 2.6l-3.8 -2.7l-6 1.9l-6 -3.1l-3.7 -7.7l-3.4 -0.2l0.1 -4.1l-4.3 3.9l-1.3 -4.1l-4.9 -2.1l-0.5 2.9l-3.2 0.6l-3.8 3.1l-3.3 0.1l-0.2 10.4l-5.3 -0.1l-3 11.9l-6.3 5.3l-0.1 12.1l-7.4 0z"/></g><path data-id="13271" d="m503.6 780.1l0.3 3.9l4.7 1.2l0.9 7.9l5.3 4l0.1 1.7l3.6 0.2l-0.9 2.4l8.3 1.5l3 -0.8l6.8 5.5l2.9 -0.3l2.3 3l4.7 0.9l2.1 -1.6l3.6 -3l4.8 2.5l1.8 -1.2l8.2 0.7l4.3 1.3l4 -0.7l6.7 -8.3l4.4 -0.6l4.1 -4.1l0.8 -2.9l4 -3.7l3.3 1.1l1.3 -3l7 -4.1l3.7 -4.4l1.2 1.3l3.7 -3.7l-1.2 -1.9l4.9 -0.7l2.6 1.2l-1.5 -2.5l-3.6 -1.3l-5.3 -5.6l-7.1 -12.3l-4.2 -0.2l-8 -3.7l-3.1 -5.5l-7.5 -3.9l-3.1 0l-3.7 -3.4l-3.7 -1.4l-2.9 -4.4l-0.1 -3.1l-2.8 -3.3l-5.2 -0.4l2.5 -2.5l-1.4 -4.5l-4.4 4.5l2.8 2.8l-55.3 55.4z"/><path data-id="13273" d="m211 775.1l-0.7 36.6l8.3 0.4l-1.4 2.4l2 6.9l2.9 5l2.4 8.9l-0.2 7.3l-2.2 6.3l19.2 0l1 -0.2l32 0l0.5 -17l-1.9 -1.8l2 0l0.4 -12.8l1.5 -10.2l5.4 0.1l-0.8 -5.3l1 -3.8l-3.8 -3.4l0.2 -2.1l-3.5 -3.6l-9.5 -2.2l-4.1 -2.9l-5.4 -7.9l-12 -10.6l-0.7 -1.9l-0.3 10.2l-1.7 1.7l-30.7 -0.2z"/><path data-id="13275" d="m312.4 982.5l-0.4 26.5l8.9 15.6l-0.7 6.1l1.4 3.9l-2 2.8l0.5 2.2l-0.7 41.3l5.5 0.3l2.2 0.1l1 0.1l7.2 0.4l26.7 1.5l5.2 0.3l7.2 0.4l2.2 0.2l14 0.9l0.3 -20.4l0.3 -18.6l1 -53.7l-9.4 -0.2l-3 3.1l-0.1 -3.1l-25.7 -0.4l-17.9 -0.3l0.1 -8.7l-1.1 0l-22.7 -0.2z"/><path data-id="13277" d="m407 882.5l-0.2 12.5l3.1 0.3l-0.5 25.2l29.7 0.8l10.9 0.3l5.5 -5.9l1.8 -3.3l5.5 -3.1l6.1 -6.1l0.3 -15.7l6.5 -2.7l-1.4 -0.1l-6.6 -1.5l-4.3 -12.2l-4.9 -5.4l-10.5 -0.6l0 -3.3l-6.3 -0.2l0.1 -5.9l-21.9 -1l-9.2 0.4l-0.1 7l-0.3 20.5l-3.2 -0.1z"/><path data-id="13279" d="m655.3 763.1l5.2 1.2l5.6 -0.6l4.9 2.6l0.2 1.5l1.1 -2.7l6.3 1.6l-1.4 2.2l11.6 2.6l1.8 0.9l4.8 -2.9l6.7 2.5l2.7 4.3l2.9 -1l1.7 1.5l3.5 -31.6l0.9 -9l2.1 -14.1l2.7 -8l-2.7 -8.8l-2.1 -2.1l-1.8 -4.8l0.8 -2.5l-2.4 -7.9l-1.3 -1.7l-1.1 -10.2l-9.9 6.1l-15.7 0.4l-0.4 -5.2l-4.7 -5.8l-2.7 0.4l-3.7 -4.6l-6.3 15l-0.4 18.7l-8.8 61.7z"/><path data-id="13281" d="m350.2 3.4l-2 4.2l4.1 3.9l2.5 7.3l10.3 3.1l2 4.1l4.9 -0.2l-1.5 -2.6l4.4 -1l2.2 2.4l0.7 3.4l-1.3 4.6l0.5 3.3l3.8 4.3l-1.1 3.9l3.3 2.5l0.1 6.5l7.9 -2.2l6.3 2.7l3.4 -0.6l1.1 -1.5l2 -0.4l3.2 -1.6l3 -4.1l-2 -6.4l1.1 -7.8l2.3 -3.2l3.1 -0.8l0.8 -3.9l5.9 -0.7l-0.5 -6.5l11.5 -2.1l-0.5 -11.8l-14.9 0.1l0 1.4l-27.3 -0.3l-17 0.1l-22.1 -0.1z"/><path data-id="13283" d="m603.3 665.7l-3.8 8.1l5.6 4.9l5.9 3.6l4.3 0.3l3.8 -1l1.3 -3.4l50.4 -10.6l-0.4 -2.8l3.1 -5.4l0.5 -6.1l2.6 -7.2l-3.4 -2.8l-5.7 -2.6l-13.5 -7.4l-0.3 -1l-5.7 -0.8l-3.6 0.6l-6 -2.1l-11.7 0.2l-6.1 -1.9l-2 1.3l4.5 2.8l-2.4 6.8l-3.4 2.2l-4.7 -0.1l-1.1 4.3l-2.4 2.9l1 3.5l-1.2 4.9l-2 1.6l-3.8 7.4z"/><path data-id="13285" d="m77.4 474.1l0.9 5.4l1.9 11.4l0.3 1.8l3.1 18.3l1 5.9l2.9 17.3l0.6 4.9l16 0l2.1 0l49.9 0.4l0 -1l0 -22.1l-0.6 -2.3l0.1 -6.4l0.4 -49l-2 -4.1l2.1 -4.1l-14.7 -0.2l-1.4 0l-21.4 9.1l-0.9 1.7l-9 2.5l0.1 -3.7l-4.3 -2.1l0 4.2l-2 0l0 3.7l-25 8.5z"/><path data-id="13287" d="m378.3 804l1.2 44.5l16.4 0.2l2.5 0.7l1.1 3.2l3.6 2.3l1.4 -1l2.1 3.7l-0.8 3.5l4.6 1l0.1 -7l9.2 -0.4l21.9 1l1.9 -6.3l0.2 -18.9l6.3 0.2l1.6 -3.2l-2.9 -8.3l2.7 -4l-1.2 -9l-5.3 -10.2l0.9 -2.9l-14.1 -0.2l1.2 -1.3l-14.8 -0.2l-0.1 12.3l-39.9 0.1z"/><path data-id="13289" d="m418.5 584.3l2.8 6l8.8 2.9l2.7 6.7l1.7 9.8l-2.7 3.6l2.6 10.7l-0.9 1.1l4.6 6.4l6.2 3.4l-2 8.2l18.7 -10.8l-0.7 -1.6l2.5 0.5l36.4 -20.9l-3.4 -6.1l-34.4 -72.2l-22.4 13.3l5.1 5.2l-0.7 4.7l-2 1l-16 15.7l-5 -0.8l1.1 7.3l-2.9 5.9z"/><path data-id="13291" d="m299.4 12.4l1.5 3.6l4.7 4.7l3.3 0.8l5.5 7.6l-1.3 4.2l-6 4.2l-1.1 2.4l1.6 9.7l3.4 2.8l6.5 -1.4l0 18.8l-2.2 0l-11.4 20.3l2.5 0.4l1.7 -3.4l2.8 -1.2l5.5 2.9l5.9 -0.8l3.3 3.4l3.9 0.2l2.6 -7.4l6.2 -1.9l2.5 -9.6l9.1 -6.4l8.2 2.2l4.8 2.3l4.4 0.3l5.5 -2l1 -12.5l9.5 -3.6l-0.1 -6.5l-3.3 -2.5l1.1 -3.9l-3.8 -4.3l-0.5 -3.3l1.3 -4.6l-0.7 -3.4l-2.2 -2.4l-4.4 1l1.5 2.6l-4.9 0.2l-2 -4.1l-10.3 -3.1l-2.5 -7.3l-4.1 -3.9l2 -4.2l-14.4 0l-3.4 0l-1.8 0l-20.9 0l-10.4 9.1z"/><path data-id="13293" d="m226.3 513.9l-1.2 0.4l2.9 5.2l-1.7 8.7l3.9 2.5l0.3 5.4l6.6 1.4l-2.9 3.5l1.7 2.6l2.8 -0.2l2.1 5.8l3.1 1.2l1.8 -3.2l2.9 -0.1l3.9 5.6l2.3 7.3l2.2 1.9l4.9 1.4l1.6 -2l2.2 5l4.8 1.5l2.8 -1.5l3.5 3.4l4.9 2.1l1.3 4.1l4.3 -3.9l-0.1 4.1l3.4 0.2l3.7 7.7l11.2 -27.7l5.2 0.1l0 -12.1l0.2 -20.7l0.2 -14.4l-31 -0.4l-46.1 -0.6l-3.3 5.2l-4.5 0.5z"/><path data-id="13295" d="m14.9 96.3l1.4 9l32.6 -0.2l4 1.9l-0.2 -1.8l6.4 0l41.5 0.3l3.6 0.2l8.1 0.1l1.8 0l1.1 -9l1 0l-0.1 -24.9l-8.2 0l-16.5 0l5.1 -12.1l-3.2 -1.9l-8.8 0l-0.1 -20.3l-13.1 0l0.1 -12l0 -6.8l-0.1 -14.8l-2.3 0l-4 0.1l-1.5 0l-1.4 0l-4 0.1l-7.7 0.2l-2.2 5.5l-9.2 15.9l-3.2 6.3l-3.5 11.1l0 18.5l-1.9 1.9l-0.5 5.1l-6 8.3l-0.1 7.6l-9.1 11.6z"/><path data-id="13297" d="m340.7 308.9l13.9 10.4l5.8 4.3l20.4 15.4l6.8 5.1l5 0.2l9 7.2l-1.7 1.9l3.9 3.2l13 -19.7l17.7 -26.9l1.7 -3.7l4.3 -5.5l-5.6 -2l-8.8 -5.9l-2.7 -4.7l0.7 -4.1l-9.8 -0.8l-1.7 -5.4l-1.7 0.5l-6.2 -2.9l-9.8 4.4l-4.4 -1.4l-2.8 2.2l-8.7 -8.3l-11.7 11.3l-2.9 2.8l-5 4.8l-3.3 3.1l-15.4 14.3z"/><path data-id="13299" d="m609.9 933.4l-0.4 13.5l2.1 0l4 9.7l1.1 2.7l15.6 37.9l8.8 4.4l6.3 9.1l6.2 0l-0.3 31.9l-0.7 3.2l12.5 -0.1l0.1 22.2l3.2 0l0 3.1l-3.2 0l1.3 6.4l-0.4 18.9l2.5 -0.1l0 7.7l9.2 0.7l18.4 1.4l6.1 0.5l1.7 0.2l7.3 0.6l13.6 -52.7l-1.8 -0.5l-4.1 -1.1l-50.9 -1l1.1 -37.1l-0.1 -16.3l15.4 0l44.2 0.7l-6.7 -9.3l-9.4 -8.9l-0.1 -21.1l-5.3 0.1l-3.7 -3l-6.8 -2.3l-0.1 -7.9l-6.4 -0.4l-1.6 -3l-7.5 -6.2l-3.5 -6.5l-1.9 -0.2l-1.4 -4.8l0.2 -13.3l-2.8 0l0 -3.4l-3 0l0 -3l3 0l0 -3.4l-3.1 0l0 -3l-13.5 -0.1l0 -6.3l-2.6 0l-0.2 -6.3l-21.6 -0.1l-6.4 0l-0.2 25.9l-0.1 21.9l-7.1 -3.2l-7.5 2.4z"/><path data-id="13301" d="m574.8 389.5l3.1 5.8l2.6 3.2l3.3 0.8l-0.4 9.4l0.9 4.1l3.9 2.3l2.2 14l2.3 1.2l-0.8 9l6.2 3.8l4.8 -0.8l6.3 -4.1l4.9 -0.3l7 -6.9l6.3 -1.3l5 -3.6l6.7 -1.6l13.2 6.1l13.6 7.1l10.1 -9.4l-5.7 -2l-8.2 -5.2l-12.7 -0.4l-5.3 -3.9l-2.6 1.2l0.8 -5.5l-1.6 -8.5l-0.4 -1.9l-6.5 -8.5l-4.8 -14.2l-8.9 -25.9l-0.6 3.2l-5.8 -0.9l-5.2 3.1l-3 5.9l-0.7 6.3l-3.7 2.6l-1.5 4.3l-8.5 0.3l-5.8 -2.6l-1.6 4.3l-9.1 9.4z"/><path data-id="13303" d="m532.5 513l-1.1 7l2.5 2.9l2.8 6.2l-0.5 4l2.8 3.5l2.2 5.9l6 0.2l6 5.3l3.3 8.1l-1.3 6.8l1.1 4.5l1.8 -0.7l30.3 -12.6l0.9 1.7l5.2 2.5l1.1 5.9l7.5 -3l4.5 -0.7l6.4 -3.2l2.9 3.4l12 -3.7l10.3 -5.6l8.3 -0.6l-1 -2.8l3.2 -21l-6 -7.5l-0.8 -7.1l-1.5 -10.8l-1.2 1.3l-8.8 -4.5l-1.3 -3.4l-2.8 -1.4l1.1 -1.7l-6 -6.7l0.7 -4.1l-1.6 -0.1l-3.4 -6.3l-9.8 -6.4l-2.2 -4.5l-4.3 -1.1l1.3 -8.5l-3.1 -7.6l-6.2 0l-4.4 4.2l-5.7 2.8l-1.3 2.1l-4.8 1.4l-2.7 4.5l-4.4 10l-2.5 2.5l-2.8 0.4l-2.6 2.6l-5 2.2l-4.1 -0.4l-4.4 4.7l-3.7 2.5l-9.1 0l1.5 5l-4.8 8.3l3.4 6.1l0.5 4.4l-4 2.8z"/><path data-id="13305" d="m725.6 861.8l0 2.9l3.2 -0.1l0 21.2l8.9 -2.2l5.7 3.4l2.2 2.9l-1 11.2l3.4 8.7l2.1 1.8l22.6 5l16.4 -2.2l9.3 -2.2l7.7 3.8l6.9 4.4l1.4 0.7l5.7 -10l-1.4 -1.7l2.7 -6.3l5.7 0.2l8.5 -13.1l2.6 -4l-9.7 -10l1.2 -4.5l-2.3 -2.5l-1.3 -2l-5.7 -1.7l0 -5.9l-4.4 -2.8l-1.5 -2.6l-6.5 -3.9l-2.6 0.3l-0.7 -3.4l-4 -1.4l0.6 -2.3l-5.5 -5.3l-0.1 3l-2.2 0.1l-0.9 -2.9l-4.6 -0.9l0.4 -2.7l-3.5 -2.7l-2.3 -5.9l-6 -2.8l-1.7 -3.8l0.8 -2.6l-2.4 -2.4l-1 2l-1.7 -2.6l-2.2 0.3l-1.5 -6.1l-3.7 -0.9l-1.4 1.6l-6.6 -4.3l-1.7 -5.4l-2.9 1.6l-4.2 -2.9l-5.4 -0.5l-2.7 2l0 5.3l-4 -0.1l-0.1 3.4l3.7 0l0 3.1l-9.1 0l0 3.8l0 46.6l-3.1 0z"/><path data-id="13307" d="m199.4 764.9l-0.2 10.2l11.8 0l30.7 0.2l1.7 -1.7l0.3 -10.2l2.3 -18.5l0.4 -22.8l-20.1 -0.1l-0.1 -4.1l-3.9 -2l0.1 -4l-4 0l0.1 -3.6l-7.5 -0.3l-0.1 -4.8l-4.2 -5.7l-6 0l0 1.9l1.9 0l1.9 10.2l-2.4 5.9l-0.4 32.5l-2 0.1l-0.2 10.9l2.2 0l-0.1 5.6l-2 0z"/><path data-id="13309" d="m561.9 721.9l-2.5 2.5l5.2 0.4l2.8 3.3l0.1 3.1l2.9 4.4l3.7 1.4l3.7 3.4l3.1 0l7.5 3.9l3.1 5.5l8 3.7l4.2 0.2l7.1 12.3l5.3 5.6l3.6 1.3l1.5 2.5l10.3 -3.2l6.6 -6.2l4.3 0.3l1.1 -2.6l-1.8 -3.7l-10.5 -8l-0.1 -4.1l-2 -0.4l1.1 -3.6l-2.5 -3.5l1.1 -3.1l-2.9 -2l2.3 -1.9l-2.6 -6.1l-0.5 -4.7l2.6 -4.3l0.2 -2.9l-2.9 -2.1l-1.2 -6.4l1.5 -2.6l-2.2 -3.6l0.2 -3.3l-2.9 -2.7l2.5 -6.1l-3.1 -4.4l1.3 -2.3l-2.2 -0.4l-3.8 1l-4.3 -0.3l-5.9 -3.6l-8.4 8.4l1.4 1.5l-2.8 0l-9.9 9.8l-8.9 8.9l-5.6 -0.4l2.7 3.3l-11.8 11.8z"/><path data-id="13311" d="m363.3 83.3l-0.6 11.6l2.7 3.6l0 14l0 2.6l2.3 2.2l2.1 0.1l0 2.3l2.3 0l-2.2 6.8l11.5 0.2l2.3 -2.3l4.4 2.4l19 0.2l0.8 -2.5l6.2 -3.4l3.5 -3.8l0.2 -2.9l-4.9 -6.9l-1.6 -8.2l1.7 -2.6l-5.2 -9.5l3.7 -2.5l1.8 -7.7l-0.6 -2.8l3.4 -5.5l-2 -5.6l-0.2 -4.3l-2.6 -0.3l-7.5 -7.4l-2 0.4l-1.1 1.5l-3.4 0.6l-6.3 -2.7l-7.9 2.2l-9.5 3.6l-1 12.5l-5.5 2l-1.5 8.6l-2.3 3.5z"/><path data-id="13313" d="m96.6 59.6l-5.1 12.1l16.5 0l8.2 0l0.1 24.9l0 1.7l26.1 0l2.7 -4.6l-2.8 -8l-3.7 -3.5l3.1 0.9l4.1 -1.4l1.8 4l2.8 -0.8l0 -2.5l-9.6 -7.3l1.8 -2.3l7.2 2.8l1.6 -2.4l3.8 1.9l1.8 -4.4l-3.4 -1.9l3.1 -1.2l0.7 -3.1l-2.9 -2.8l-1.3 -7.5l2.4 1.2l5.2 -4.2l-4.5 -1.6l-0.7 -1.8l2.9 -4.5l1.3 -7.4l3.6 -0.3l1.4 -3.9l-3.1 -5.2l1.9 -1.1l-3.9 -4.3l1.6 -6.3l4.5 -7.4l0.7 -4l-1.5 0l-1.4 0.1l-1.6 -0.1l-5.5 0.1l-17.1 0l-1.1 0l-2.4 0l-4.5 0l-0.6 3.8l-3.7 0.1l-0.1 8.3l-3.4 9.9l-1.3 0.2l-0.7 7.6l-2 1.9l-6.1 0l0 11.3l-9.2 0.1l-3.7 1.8l-1.9 -1.9l-2.7 13.3z"/><path data-id="13315" d="m418.8 748.5l-0.5 43l14.8 0.2l-1.2 1.3l14.1 0.2l7.6 0.1l49.2 0.6l5.6 -1.8l1.2 1l-0.9 -7.9l-4.7 -1.2l-0.3 -3.9l-4.3 -8.8l-7.4 -4l-6.4 -8l2.7 -3l-3.7 -3.6l1.4 -4l-3.7 -5.8l2.6 -7l-3.7 -3.3l-1.1 1.6l-4.1 -5l-4.6 -0.1l1.9 -1.6l-2.2 -2.8l-7.5 -2.1l-4.1 -0.1l0 2l-4 -0.1l0 2l-36.3 -0.3l-0.2 22.4z"/><path data-id="13317" d="m549.6 309.1l-0.2 1.2l5.8 7.3l2.3 4.6l12.3 25.3l2.3 3.1l2.2 -5.5l4 0.7l3.7 -2.9l4.1 -1.2l6.9 5.9l7.6 5.3l10.9 -2.1l2.5 5l5.8 0.9l0.6 -3.2l1.3 -2.3l2.1 1.7l3.5 -0.3l-1.4 -1.8l1.2 -3.2l6.5 -2.1l0.6 -2.5l2.1 2.8l1.7 -1.6l4.5 1.9l1.5 -2.7l2.5 1.1l3.8 -3.9l5.8 5.2l-19.8 -37l-4.6 -10.8l4.7 -6.8l-0.8 -4.6l-6 3.5l-2.4 -8.4l-5.9 -22.3l-2.1 -2.6l-9.8 2.5l-3.6 -0.9l-7.3 3.2l-5.4 0.3l-2.9 5.4l-6.7 2.3l-4.5 0.1l-1.9 3.3l-4 1.4l-3.3 6.4l-4.7 4.9l-2.1 5.2l-4.3 2l-4 9.5l-3.1 2.2l-2.1 4.3z"/><path data-id="13319" d="m471.7 525l-10.3 7l34.4 72.2l3.4 6.1l39 -22.2l17.6 -8.7l2.5 -10.8l-0.4 -2l-1.8 0.7l-1.1 -4.5l1.3 -6.8l-3.3 -8.1l-6 -5.3l-6 -0.2l-2.2 -5.9l-2.8 -3.5l0.5 -4l-2.8 -6.2l-2.5 -2.9l-8.5 -6.6l-2 -7.2l-2.1 -1.4l-2.8 -0.4l-6.7 5.3l3.6 4.5l-9.2 -3.5l-13.1 6.2l-1.6 4.2l-2.4 -2.5l-14.7 6.4z"/><path data-id="13321" d="m330.1 825.4l2.7 6l-0.5 1.7l2 5.6l-1.3 3.1l5.3 0.1l-4 4l3.4 2.1l-0.2 29l-0.1 7.8l3.1 3.3l-3.2 0l0 4.7l-0.3 26.7l46.9 0.7l3.5 0l0 3.3l9.4 0.1l0.1 -3.3l12.5 0.2l0.5 -25.2l-3.1 -0.3l0.2 -12.5l3.2 0.1l0.3 -20.5l-4.6 -1l0.8 -3.5l-2.1 -3.7l-1.4 1l-3.6 -2.3l-1.1 -3.2l-2.5 -0.7l-16.4 -0.2l-0.4 -43.9l-5.7 -2.1l-4 -5.3l-16.6 -4.3l-3.2 0.1l-5.9 3.3l-2 3.8l0 3.9l-2.9 -0.8l-3.8 1.2l0.1 2.3l3.5 2.1l1.1 4.5l-3.6 2.7l-0.9 4.7l-5.2 4.6z"/></svg>
