<?xml version="1.0" encoding="UTF-8"?>
<!DOCTYPE svg PUBLIC '-//W3C//DTD SVG 1.1//EN' 'http://www.w3.org/Graphics/SVG/1.1/DTD/svg11.dtd'>
<svg viewBox="0 0 10000 11582.7" xmlns="http://www.w3.org/2000/svg">
  <g data-id="001">
    <path d="m6410.7 8174.1l0 0l-0 31.5l63.3 0.3l-1.8 62.7l53.6 0.5l48.6 75.1l53.7 51.4l32.1 2.9l51.1 46.7l38.5 3.4l85.3 42.3l63.9 65l101.5 55.2l63.2 42.3l27.4 59.2l15.8 29.5l134.3 117.1l46.8 -0.4l-0.2 -212.3l-31.6 0.5l-0 -29.1l31.5 -0.5l-0 -465.6l-0.1 -37.7l91.5 -0.1l0.2 -30.8l-37.1 -0.5l1 -33.8l40.5 0.7l0 -53.1l27.3 -20.5l53.9 5.5l-123.1 -90.7l-9.6 -90.7l-9.9 32.8l-38.4 -9.4l4 -40.5l-20.8 20l-48.3 -10.6l-51.2 7.7l-3.8 -14.8l-69.3 -16.3l-17 -15.1l-28.7 10.1l-27.1 -42.8l-66.9 -24.7l-48.1 28.7l-18.5 -9.2l-116.4 -26.2l14 -22l-63.3 -15.6l-10.5 26.7l-1.7 -15.3l-49.3 -26l0.4 316.9l-183.7 -1l-2.7 220.3l-64.1 0.2z" />
  </g>
  <g data-id="003">
    <path d="m5172.9 8984l0 0l-2.2 40.6l55.1 43.8l9.1 44.5l61.5 44.6l46.3 49l1.8 63.7l53 70.9l-36.2 105.5l8 118.8l158.7 -0.8l628.8 0.6l-40.2 -97.2l-21.4 0.4l3.9 -134.7l74.8 -24.1l71.3 32.4l1.4 -219.2l-395.8 -1.4l-25 -32l-20.7 -59.5l-249.2 -3.2l-1 -35.1l-381.9 -7.7z" />
  </g>
  <g data-id="005">
    <path d="m6249.9 8362.7l0 0l-2 281.8l67.1 1.1l-2.6 218.1l215.7 1.5l2.2 63.5l25.6 -0.5l-0 62.8l134.8 1l32.4 -0.4l0.6 -32l118.9 0.4l-0.3 -28.6l30.4 -0.7l1 -37l31.3 -0.1l0.2 -26.6l30.2 0.3l0.4 -62.4l64.6 1.3l0.2 -32.1l28.9 0.7l-0.2 -29.5l35.9 -0.6l-0.9 -31.8l26.6 -0.3l-27.4 -59.2l-63.2 -42.3l-101.5 -55.2l-63.9 -65l-85.3 -42.3l-38.5 -3.4l-51.1 -46.7l-32.1 -2.9l-53.7 -51.4l-48.6 -75.1l-53.6 -0.5l0.1 94.4l-222.4 -0.4z" />
  </g>
  <g data-id="007">
    <path d="m2029.7 9201.1l0 0l-7.5 179.6l219.5 7.5l-11.7 433.9l72.6 1.5l2.7 -109.9l97.1 -105.2l84.7 -77.1l16.8 18.3l16.4 -22.1l-9.9 -26.8l31.7 -48.2l57.4 -24.7l14.4 -47.2l40 -48.4l10.9 -31.6l-11.1 -33.3l58 -42.2l90.2 -25.7l5.7 -21.7l26.1 14.4l45.6 -14l17.1 -35.9l50.6 1.2l13.6 -91l39.2 -13.4l-2.6 -31.1l50.1 -7.5l25.5 -65.1l-147.9 10.6l-458.1 -2l-38.3 0.1l25.4 -12.2l-24.8 -32.4l-43.7 16.2l0.1 23.1l-46.6 8.3l0.1 18.6l-117.2 -9.9l-190.9 -5l-1.4 226.8l22.4 23.5l-22 0.1z" />
  </g>
  <g data-id="009">
    <path d="m4589.3 4620.9l0 0l-22.1 -19.8l33.9 200.9l39.7 155.3l28.6 113l47.6 179.9l146.8 -64.4l24.5 24.6l15.5 -41.6l131.2 -62.3l92.1 35l-36.1 -44.5l67.3 -53.2l28.5 3.5l20.7 13.8l20.2 72l85.4 66.1l11.4 -69.5l40.2 -28.1l-4.7 -43.7l-34.4 -60.8l48 -83.3l-15.4 -50.2l-44.6 41.5l-21.1 0.5l-36.3 35.2l-37.7 -93l12.4 -27.9l7.9 -79.5l21.6 -7.9l2.5 -46.5l-205.1 -62.2l-143.3 -32l-21.9 4.7l-34.6 -7.9l-59.3 18.2l-26 39l-66.9 -31.6l-1 28l-58.6 -36.4l-56.8 15.2z" />
  </g>
  <g data-id="011">
    <path d="m4091.8 1534.1l0 0l-29.6 85.6l38.3 56.9l4.5 56.5l61.2 66.6l123 108.1l62.3 -9.4l88.4 -1.5l19.6 -12.8l163.6 163.8l61.1 -21.6l37.9 -45.1l36.4 -94.1l-117.5 -162.4l23.3 -172.7l0.5 -92.1l-33.2 -81.3l-31.9 -18.2l-96.9 -33.4l-21.3 -7.4l-101.7 -13.6l-40 -5.9l-31.5 15l-69.1 83.5l-62.7 54.2l-84.6 81.4z" />
  </g>
  <g data-id="013">
    <path d="m3652.5 2514.3l0 0l-8.9 23.2l66.9 56.3l27.2 45.3l23.6 27.9l-1 9.3l30.1 49.7l79 87.8l8.2 -5.1l28.1 -21.5l44 14l98.3 -44.1l61.6 28.9l160 -105.6l8.6 -5.6l61.5 -39.9l-54.2 -166.7l-29.8 -19.8l-48.6 10.8l-29.6 -30l-102 -12.9l-34 12.3l-44.9 -17.5l-22 21.1l-26 -44.2l-20.9 -9.9l-64.6 6.1l-56 -57.2l-2.1 -32.4l-41 -31.8l-12.4 -37.1l-32.2 94l-66.9 194.9z" />
  </g>
  <g data-id="015">
    <path d="m1171.8 2304.2l0 0l-0.4 34.3l260.9 1l54.4 -0l79.3 -0.2l248.4 0.5l6.1 7.5l74.6 1.5l90.4 1.4l3.2 -315.5l8.3 -63.1l-0.5 -303.3l20.4 -20.9l-20.5 -0l1.7 -146l-169.3 -1l-0.5 41.9l-136.1 -2.2l-79.9 -1l-54.2 2.8l-188.2 -6l-2.5 37.6l-54.3 -34.2l-0.9 32.7l-26.1 -20.1l-27.8 0.5l1.1 115.4l-37.5 -0.1l-0.4 76.7l-1.3 149l17.4 18.2l-17.5 -0.2l0.3 96l-43.7 -0.6l-1.3 117.1l-3.3 180.2z" />
  </g>
  <g data-id="017">
    <path d="m4459.9 7931.6l0 0l-9.1 29.1l53.2 101.8l11.7 90l175 2l1.3 -31.1l62.9 0.2l-0.4 32l30.6 0l-0.7 187.5l125.9 1.8l-1.5 63.3l187.1 6.2l1.8 -65.8l373.6 12.9l5.6 -266l-21.2 15.7l-46.5 -9l-23.3 -30.3l-28.9 3.3l-67.6 -54.9l-29.9 7.8l-82.7 -15.2l8.5 -23.9l-36.4 -1.9l-0.7 -16.7l-52.8 -40l-11.7 -10.2l-55.9 18.1l-491.8 -5.8l-76 -0.8z" />
  </g>
  <g data-id="019">
    <path d="m4560 9199.3l0 0l-13.3 40.3l21 56.8l40.7 15.9l49.8 69.6l41 23.1l40.1 -7.5l23.3 18.5l7.9 70.3l-4.4 59.7l60.2 59.7l1.7 47.3l-37.1 72.8l2.2 52.1l31.5 10.6l20.6 50.9l35.4 21l-32.1 88.4l203.8 4.6l0.2 -90.2l64.2 -0.6l4.6 -207.7l266.2 1.2l-3.7 -52l-21.1 -38.5l6.7 -0.3l-8 -118.8l36.2 -105.5l-53 -70.9l-1.8 -63.7l-46.3 -49l-61.5 -44.6l-9.1 -44.5l-55.1 -43.8l2.2 -40.6l-22.3 -101.2l11.5 -26.4l-405.4 -9.1l-64.6 26.9l-2.9 157.2l-60.9 60.8l-54.6 31.2l-9 32.1l-8.9 0.7l4.2 43.1z" />
  </g>
  <g data-id="021">
    <path d="m3595.8 5444.6l0 0l0.2 73.1l19.7 1.7l11.6 28.6l42 33l7.3 29.3l90.9 130l69.8 27.8l85.2 62.8l73.8 3.7l0.3 0l22.8 12.9l50.5 31.1l48.6 7.5l34.5 4.9l15.1 13.8l30.6 8.5l14.8 -9.2l-28.1 -60.4l29.2 -58.6l-10.9 -72.9l49.6 7.9l159.7 -157.3l20.3 -10.1l7.4 -47.2l-50.5 -52l-20.8 8.9l-87.4 -89.6l-28.5 30l-43.7 -56.7l-124.1 0l-9.9 -27.2l-23.5 -10.5l-45.2 -34.8l-9.5 -67.8l-21.3 -22l-49.2 1l17.3 18.7l-289.6 200.5l-18.7 13l-40.2 27.8z" />
  </g>
  <g data-id="023">
    <path d="m4451.6 6547.5l0 0l-29.2 10.1l273.4 280.2l44.6 40.8l0.9 -28.1l29.1 -0.5l101.3 -100l-43.6 -43.8l276 -274.9l71.9 73.3l-85.1 -186.1l-98.7 -214.9l-364.2 209.2l-25.2 -4.8l6.7 15.9l-187 108.3l32.1 68.8l-3.1 46.7z" />
  </g>
  <g data-id="025">
    <path d="m6969.3 9465.4l0 0l0.6 79.1l68.2 23.2l37.1 30.3l53.2 -1.4l1 211.3l93.8 88.7l66.9 92.7l93.1 0.7l13.1 -1.5l42.4 -158.6l262.1 68.2l-1.6 -31.3l22.6 -2l-2.9 -42.3l24.1 -40.2l55.2 -13.5l102.6 7.7l45.3 -95.2l36.6 -36.2l28.1 -2.2l46 -42.7l-30.7 10.6l29.6 -88.8l18.8 -99.3l22.5 -97.1l30.5 -48.8l2 -70.5l-68.7 -44.3l-76.9 -38.5l-92.6 22.1l-163.8 21.8l-226.4 -50l-21 -18.4l0.6 26.7l43.3 87l32.2 40.4l26.8 7.4l-10.6 47.4l-20.2 28.5l-32.3 -4.4l-62.4 18.9l-38.1 -12.6l-62.9 -1l-68.7 53l-26.7 6.7l-1.9 62.6l-34.1 26.1l-20 -3.3l-44.1 38l-69.4 -45.1l-88.8 8.7l-33.5 -18.4z" />
  </g>
  <g data-id="027">
    <path d="m3909.9 10646.4l0 0l-3.1 204.2l140.4 8.5l5.7 0.4l131 8.5l0.1 0l234.6 13.6l107 8l18.6 0.9l21.9 1.3l0.2 -0.1l82.7 5.3l22.3 1.6l45.8 3.2l-10.6 -51.8l-66.4 -39.9l-38 2.6l-11.1 -29.1l-45.9 -6.7l-61.3 -72.8l2.3 -31.8l-35.7 -51.1l58.8 -32.7l-5.2 -31.3l27 -64.1l-6.1 -32l50 5.9l25 -32.6l37.5 8.4l65.3 -29.2l28.7 -10.7l8.9 -27l-19.3 -47.3l-28 -28.8l-63.5 0.1l-38.1 -13.4l-46.9 -37l5.3 -83.5l17.2 -24.7l-29 -88.8l-43.3 -51.3l-9.7 -55.2l-15.4 -8.5l-68.4 -40l-91.2 -14.8l-48.8 -58.3l1.9 108.4l-340.4 -9.3l-9.8 537.1l-3 185.9z" />
  </g>
  <g data-id="029">
    <path d="m8026.5 7175.3l0 0l7.5 51.9l29.3 35.5l14.7 32.3l32.1 0.2l47 37.5l54.5 2.6l34.2 34.3l7.6 26.3l45.3 13.7l99.8 123.5l19.8 41.3l1.7 50.5l30.9 -2.7l30.4 32.1l88 1.3l25.3 -24.9l57.3 6.4l15.1 -19.4l25 60l77.6 28l40.2 -13.9l5.9 18.4l56.3 218l48.5 46.8l21.5 14.3l24 -40.8l10.7 43.1l25.1 12.2l-7.9 22.7l18.9 46.9l70.5 -11.6l18.9 24.7l-4.9 43.6l22.8 32.5l81.9 25l47.2 43.4l11.8 -17.7l67.4 12.6l12.6 4.8l-10.2 -48.9l-28.5 -44.2l23.5 -37.7l-3 -21l-34.4 -8.9l5.7 -61.2l36.3 -18.5l4 -26.9l40.9 -51.2l-30 -17.3l-18 -62.7l-40.4 -32.5l-59.2 30.2l-17.9 -22.8l49.4 -27.6l5 -26l-25.8 -7l-73.8 86.9l-8.6 -11.5l20.3 -40l-16.3 -9.9l-37.9 16.3l2.7 -50.8l-32.1 2.2l1.4 -34l-27.5 -10.5l-10.2 -88.6l-40 -14.6l10.8 -35.8l-63.7 -70.6l-67.9 -49.9l-37.2 -78.4l-5.1 -26.5l-9.6 -14l-31.6 -15l10.2 -119.6l-12.7 -4.2l-22.2 -110.9l5.9 -37.8l-26.5 -10.1l-15.6 -63l-396.6 128l-327.5 91.2z" />
  </g>
  <g data-id="031">
    <path d="m7510.2 6175.8l0 0l-7.1 40.8l124.3 63.6l-12.5 38.4l1.4 51.1l29.8 61.6l46.9 43.7l0.3 22.6l43.9 25.9l-27.9 103.1l-52.4 217.8l-25.5 43.3l33.3 4.8l72.7 -19.1l54.3 -0.7l74.2 43.2l33 40.9l53.2 8.6l22.5 41.8l7.6 58.9l19.6 8.7l29.6 77l-5 23.3l327.5 -91.2l396.6 -128l-8.4 -83.5l-20.8 -21.4l7.1 -2.9l-6.6 -29.8l-44.7 -81.5l-35.8 -10.8l-6.4 -44.2l-35 -15.1l-3.9 -34l-23.3 -13.3l-5.9 -40.1l-24.3 -1.6l2.9 -33.5l-19.3 -25.9l15.7 -12.4l-8 -31.4l28 -36.7l-11.8 -40.1l-23.2 -0.4l13.7 -36.6l-25.5 -21.1l-64.4 -57.9l-16.1 1.2l-19.2 9.4l4.4 4.2l-74.9 -43.8l-21.5 -20.7l-19.3 12l-17.3 -30.6l-55.4 -23l-13.5 7.3l-40.6 -49.4l-49.7 -25.8l-45.3 -63.5l-39.6 -11.8l-43.5 -54.3l-14 -32.4l-70 -29.6l-15 10.7l-215.5 67.6l-120.8 37.5l-53.7 128.9z" />
  </g>
  <g data-id="033">
    <path d="m6902.2 5476l0 0l32.9 22.5l93.5 6.9l89.3 50.3l117.8 -30.4l26.6 8.2l-6.2 -17.5l50.8 -159.6l89 -82.8l262.1 -17.4l208 -74.9l154.3 63.4l34.2 47.3l472.3 -339.9l-3.7 -4.1l-5.3 -0.6l-10.6 6l-3.8 1.5l-7.1 -2.4l-2.8 -2.7l-1.8 -3l-1 -4.2l1 -6.7l0.5 -2.9l-0.5 -3l-2.8 -2.7l-1.8 -0.9l-1.5 0l-1 0l-1.5 0l-3 2.1l-4.3 2.4l-4.5 0.6l-8.3 -1.6l-11.4 -11.9l-5.6 -9.4l-5.9 -10.8l-9.9 -9.6l-4.5 -0.9l-4.1 3.3l-4 0.1l-9.8 -4.8l-1.8 -4.2l-0.3 -4.2l1.8 -4.2l2.3 -5.7l0.3 -4.8l-4.3 -7.2l-3 -1.8l-4.1 0.3l-6.8 7.2l-4.5 -0.2l-1.8 -0.9l-0.5 -1.8l0.5 -5.1l0.6 -4.9l0.1 -7.5l-2.8 -6.9l-4 -3.3l-3.3 -1.8l-1.7 -0.9l-5.6 -0.6l-30.3 3.3l-10.5 2.5l-10.7 -0.5l-8.6 -3.5l-25.2 -21.5l-52.7 -23.8l-28.1 -9.8l-6.1 -0.5l-6.9 1.5l-3.1 -0.8l-26.2 -19l-15.1 -13.5l-40.9 -30.1l-23.7 -25.3l-16.8 -19.8l-2.7 -15.3l-4.8 -13l-12 -24.3l0 -2l14.1 -16.8l6.1 -0.8l4.6 -2.5l7.8 -21.6l-0.3 -0.7l-2.4 -5.3l-7.1 -3.8l-4 -4.8l-8.6 -30.4l-2.7 -4.3l-10.7 -9.3l-9.2 -1.8l-3.6 1.8l-1.9 3.3l7.8 12.3l-0.4 9l-2.9 3.8l-11.8 4.3l-12 -0.8l-31.5 -7.5l-4.4 -3l-1.3 -2.8l-0.4 -14.3l-3.1 -8l-4.4 -3l-16.6 -7l-17.4 -5.3l-7.6 -11.5l-0.4 -0.5l-11.1 -10.3l-20 -10.3l-11.4 -14.1l-71.5 -36.3l-101.8 22.3l-93.7 64.7l-138.3 -23.1l-31.4 -15.5l-59 30.9l-27.2 -4l-50.8 -44.7l-17.7 -65.8l-23.7 -15.5l-32.1 -17.3l-9.9 -17.7l-19.2 -1.9l-195.9 73.7l37.8 35.5l22.7 53.6l13 1.7l-71.7 195.1l-30.1 107.9l-21.3 119.1l39.5 312.9l-40.1 123.4l-52.6 131.6z" />
  </g>
  <g data-id="035">
    <path d="m3111.6 4432.2l0 0l-2.4 125.1l172.7 0.5l382.5 5.4l34.9 9.3l42.7 41.5l31.4 -30.6l-38.7 -44.8l24.4 -79.9l-38.5 -76.9l10.6 -48.2l-17.8 -36l-9.5 -56.7l-48.2 -33.7l0.6 -65.2l-2.3 -21.2l-64.9 -50.3l-36.1 -52.7l-24.4 -66.7l-18.5 5.9l-22.6 41.7l-62.1 44.6l18.4 81.5l-142 34l-2.3 47.4l-19.7 4.2l-39.3 79.2l-39.8 19.4l-35.8 -0.4l-11.1 9.6l28.5 31.5l-28.5 33.5l-42.1 49.3z" />
  </g>
  <g data-id="037">
    <path d="m1648.3 8785.2l0 0l0.1 23.7l27 -0.4l21.6 -23.5l-1 68.2l-22 1.1l37.6 53.5l1.3 36.7l317.8 6.2l190.9 5l117.2 9.9l-0.1 -18.6l46.6 -8.3l-0.1 -23.1l43.7 -16.2l24.8 32.4l-25.4 12.2l38.3 -0.1l36.4 -49.9l-42.4 -124.3l-30.7 -90.5l-15.9 -10.2l-4.1 -94.1l20.5 -44.2l-6.9 -42.9l-10.1 1.6l-192.3 0.1l-46.1 -18.3l-19.3 18.6l0.1 -39.8l-17.9 39.7l-22.9 -0.5l0.5 -40.1l-20.5 23.1l-32.7 -0.5l0.6 -23.1l-56.8 -14.4l-15.2 58.4l-338.6 0.5l-1.2 133.2l40.4 1.2l-41.6 42.7l23 82.5l-24.9 32.5z" />
  </g>
  <g data-id="039">
    <path d="m7699.3 9866.7l0 0l1.6 31.3l62.9 20.3l-4.7 110.9l-16.5 36.9l50.6 46.2l-15 36.4l-33.5 81.8l48.2 5.6l-26.7 199.4l5.2 18.4l6.2 -2.1l7.7 1.4l5.9 4.5l3.4 8.1l18 26.4l12.3 13.7l17.4 16.5l33.5 -4.1l13.3 9.5l8.9 8.4l3.5 1.8l28 -6.2l38.8 -2.6l3.9 0.8l29.1 12.8l17.7 26.5l3.6 8.9l7.3 4.6l8.7 -0.7l5.1 -2.9l4.5 -7.2l4.8 -3.6l10.1 0.3l8.5 6l8.9 7.5l8 3l7.8 1.5l2.6 1.4l2.7 2.1l1.8 2.9l1.6 3.9l0.7 5.8l0.8 1.7l22.1 23.4l10.7 6.6l15.1 5.6l52.8 -9.2l4.1 3.2l2.1 7.6l1.7 2.8l4.3 3.4l33.8 6.1l5.7 -3.2l1.7 -2.7l2.2 -8.1l2 -2.5l5.7 -2.3l5.1 0.2l11.8 3.4l4.2 3l5.1 3.6l0.8 5.4l-0.9 11.2l0.8 8.2l2.8 6.3l2.6 2.5l6.4 2.7l27 -4.9l7.7 -6.8l9.5 -1.5l6.7 4.5l2.3 4l2.5 11.4l4.1 6.8l17.1 3.3l3.8 -3l4.1 -8.3l3.6 -4.8l5.9 -2.1l15.9 6.5l14.3 4.2l27.5 3.4l4.8 1.7l10.9 9.3l9.5 5.5l19.2 -3.4l7.1 2.4l4.7 4l4.7 0.9l4.2 0.9l3.7 0.6l3.4 -0.3l3.4 -2.1l4.5 -4.9l2.1 -3.9l1 -4.7l2.6 -4.3l4.7 -3.1l4.7 -1.2l14.4 2l11.1 0.7l18.7 -1.7l37.1 -7.7l4.6 0l7.4 5.3l16.9 22.3l6.6 3.5l17.1 5.5l9.4 1.5l23.6 2.6l9.6 -0.9l-11 -14.4l-21.2 -64.4l-3.3 -28.6l2.1 -39.6l10 -51.3l17.5 -47.5l14.3 -26.8l19.5 -23.9l4.7 -12.7l49.2 -175.7l3.7 -121.6l-10.7 -48.5l-15.4 1.3l-9 7.6l-14.3 42.7l-42.9 -0.3l-13 -21.6l-27.8 -13.1l-11.6 2.5l-7.3 9.6l-23.5 -8.9l-14 -19.4l6.4 -18.2l44.7 -27.1l21.1 -23.7l3 -11.2l13.3 -12.9l17.4 -2.8l-3.7 -30.2l-25.1 -20.1l-61.7 6.4l-12.9 -48.7l-71.6 -21.4l-27.7 -50.4l-35.6 7.3l-33.5 -40.3l30.6 -57.4l-9.4 -23.5l-30.9 32l-72.2 9.9l-23.7 -7.7l-18.1 20.1l-63.9 -42.7l-50.7 7.7l-56.7 -39.9l-19 -24.6l-86.4 -13.2l-6.1 -38l-46 42.7l-28.1 2.2l-36.6 36.2l-45.3 95.2l-102.6 -7.7l-55.2 13.5l-24.1 40.2l2.9 42.3l-22.6 2z" />
  </g>
  <g data-id="043">
    <path d="m7032.3 6682.4l0 0l26.3 10.7l19.3 70.5l435.4 99.2l53.5 6.7l64.6 18.4l25.5 -43.3l52.4 -217.8l27.9 -103.1l-43.9 -25.9l-0.3 -22.6l-46.9 -43.7l-29.8 -61.6l-1.4 -51.1l12.5 -38.4l-124.3 -63.6l-104.1 -53l-143.8 98.7l-68.9 115.4l-4.9 34.6l-9.3 66.1l-139.7 204z" />
  </g>
  <g data-id="045">
    <path d="m560.2 3424.9l0 0l30.2 183.4l2.6 15.6l15.9 96.3l1.9 14.3l0.2 1l20.1 118.1l22.1 137.9l408.9 3.6l175.8 2.8l60.5 -39.7l3.7 -40l22.8 11.3l76.6 40.1l32.9 -20.8l27.2 -60.8l62.8 -53.8l43.1 -8.3l16 -44.2l73.1 -22.1l-34.6 -63l49.1 -72.6l-26.2 1.2l-18.1 -0.4l-119.2 0.9l-39.7 0.1l4.6 -164.9l1.8 -28.2l2.5 -181.6l-19.5 -22.7l17.9 1l1.3 -126.5l-70.8 -24.9l-215.1 -54l-23.3 -1l-1.2 81.7l-2.7 164.9l-117.3 50.5l-48.1 8l-19.6 -21.7l-316.3 120.9l-101.8 -2.6z" />
  </g>
  <g data-id="047">
    <path d="m713.8 39.9l0 0l0.9 147.6l0.3 67.6l-0.6 119.5l131.3 -0.4l0.7 202.9l88.2 -0.3l31.5 19.3l27.4 -133l18.9 19.4l36.5 -18.2l91.7 -0.8l0 -112.8l60.7 -0.4l19.8 -18.9l7.2 -75.9l12.6 -1.9l33.6 -99l0.9 -82.5l37.3 -0.8l-0.4 -38.1l-136.8 2l-0.3 -0.1l-284.1 2.1l-11.2 0.2l-64.3 0.8l-2.7 0l-5.7 0.3l-2.7 0.3l-17.8 0l-10.9 0l-40.7 0.8l-21.2 0.3z" />
  </g>
  <g data-id="049">
    <path d="m6694.8 10145.8l0 0l-10.7 370.6l508.5 10.4l41.5 11.3l17.9 4.9l-136.4 526.7l0.9 3.8l-8.8 6.2l-9.3 2.9l-8.9 5.3l-9.8 11.6l-7.7 27.7l-0.5 18.8l1.8 10l8.8 15.4l2.8 14.5l-2.1 8.5l7.2 17.2l4 6l13.7 8.9l11.9 13.2l13.4 16.7l10.6 16.3l1 26.1l-7.7 13.6l-6.5 20.4l0.4 8.7l3.1 3.5l2.6 8.9l1.8 17.9l-5.3 18.1l-7.1 10.4l-0.9 20l12.9 56.6l23.5 54.9l6.5 6.9l12.7 5.4l7.9 12.4l17.9 21.3l3.1 2.3l10.2 2.2l7.2 0.4l7.7 -5l31.1 -8.5l56.5 -9.6l24.2 -2.4l4.9 1.2l2.3 3.1l-0.8 3l14.9 11.1l28.5 4.8l26.4 -0.9l17.8 -2.8l20.9 -4.9l0.3 -0.1l4.3 -2.1l15.1 -16.8l8.2 -18.8l2 -18l-11.1 -28.1l-1.7 -15.6l1.7 -16.3l2.5 -10.5l12.5 -19.7l-1 -13.9l-5.8 -15.7l2.1 -9.6l12.9 -15.6l3.9 -6.2l5.8 -25.2l3.6 -23.2l12.5 -19l1.7 -9l-0.7 -21.6l-1.9 -10.8l4.9 -8.3l2.4 -42.7l-2.2 -12.6l-2.4 -2.9l-3.9 -10.9l1.1 -17.9l10.8 -46.1l16.2 -32.7l-5.5 -33l-8.4 -40.9l-7.6 -19.3l-1.7 -1.9l-21.9 -8.9l-0.8 -1.4l1.7 -16l-4.1 -20.8l-11.4 -19l-7.7 -8.9l-4.9 -9.4l1.8 -9.7l-1.1 -5.3l-5.6 -15l-8.1 -5.6l-7.1 -9.2l-1.9 -50.6l18.1 -39.3l11.3 -34.7l-2.4 -29.4l-3.3 -11.1l-3.9 -4.6l-5.8 -11.1l5.5 -11.2l2.4 -8.1l0.8 -24.9l1.4 -3.7l6.3 -4.2l7 0.8l8.9 -0.7l22 -10.5l11 -14.7l2.2 -4.5l-13.2 -31.1l-12.9 -17.9l0.4 -8.6l2.1 -3.2l12.2 -9l19.3 -3.1l6.1 2.9l21 13.9l8.6 10.9l4.7 3.8l15.4 8l4.6 0.9l0.2 -0.1l10.7 -5l23.8 -44.1l1.1 -9.6l-0.9 -19.5l-0.6 -12.7l1.2 -10.7l5.1 -7.7l20.9 -15.5l13.9 0.1l10 4.1l6.2 11.3l1.7 1.7l21.4 7l28.4 4.1l9.8 -2.8l5.3 -4.8l3 -4.5l-5.2 -18.4l26.7 -199.4l-48.2 -5.6l33.5 -81.8l15 -36.4l-50.6 -46.2l16.5 -36.9l4.7 -110.9l-62.9 -20.3l-262.1 -68.2l-42.4 158.6l-13.1 1.5l-93.1 -0.7l-442.4 -6.6l-153.5 -0.4l0.6 163.5z" />
  </g>
  <g data-id="051">
    <path d="m8843.2 7316.6l0 0l9.6 14l5.1 26.5l37.2 78.4l67.9 49.9l63.7 70.6l-10.8 35.8l40 14.6l10.2 88.6l27.5 10.5l-1.4 34l32.1 -2.2l-2.7 50.8l37.9 -16.3l16.3 9.9l-20.3 40l8.6 11.5l73.8 -86.9l25.8 7l-5 26l-49.4 27.6l17.9 22.8l59.2 -30.2l40.4 32.5l18 62.7l30 17.3l-40.9 51.2l-4 26.9l-36.3 18.5l-5.7 61.2l34.4 8.9l3 21l-23.5 37.7l28.5 44.2l10.2 48.9l34.1 13l16.4 -4.3l69.7 -75.1l42.7 -20.1l18.8 -18.5l43.6 -84.3l22 -24.3l-0.2 -16.9l-6 -8.5l-17.1 -4.6l-6.3 6.2l-13.1 -0.8l-39.1 -15.7l-0.8 -17.5l28.1 -21.3l7.8 -13.3l1 -19l-14 -47.7l49.8 2.2l56.8 21.6l29.7 26.5l16 -2.2l44.6 -50.2l50.7 -45.2l26.8 -32.1l-14.4 -9.4l-27.5 3l-29.4 -10l-15.2 -19.2l7 -43.7l50.2 -39.5l38.2 1.3l2.5 29l37.6 3l28.4 -13.1l31.2 -24.8l42 -25.4l30.2 -46.8l13.7 -35.5l2.9 -21.4l-5.4 -32l-19.2 -6.1l-14.3 7.4l-55.4 -27l-15.7 -0.9l-37.1 -4.4l-15.1 -2.1l-10.4 -3.9l-8.3 -6.2l-14.3 -14.6l-20.3 -25.4l-23.6 -26.7l-10.3 -6.5l-40.8 -15l-9 -5.7l-9.7 -11.4l-8.4 -17.3l-5.5 -8.4l-11.5 -10.9l-5.2 -2.6l-9.3 -2.7l-10.9 2.4l-8.5 6.8l-8.6 11.8l-3.2 4.4l-23.2 13.5l-11.7 2.4l-25.1 -2.1l-21.4 -5.4l-13.6 -7.1l-34.9 -25.8l-8.4 -6.7l-1.4 -1.1l-5.5 -7.5l-1.3 -9.4l-4 -1.1l-14.8 0.1l-22.4 -2l-4.6 -3l-8.2 -10.9l-5.8 -41.3l1.8 -19.4l1.7 -5.7l-3.6 -22.1l-0.7 -3.4l-3.5 -17.7l-2.3 -2.7l-11.1 -3.7l-2.5 -3l0.5 -3.3l2.7 -5.4l7.6 -7.5l7 -6.9l3.6 -1.2l0.2 -4.3l-2.3 -3.9l1.3 -6.2l4 -10.2l-0.6 -9.7l-10.3 -30.1l-10.8 -18.1l-16.2 -10.5l-1.5 -2l-13.5 -20l-7.1 -12.9l-102.7 -26.4l-210 179.5l-201.9 171.8z" />
  </g>
  <g data-id="053">
    <path d="m1253.1 6719.2l0 0l13.1 36.4l95.5 39.4l47.3 19.5l93.1 90.2l-51.6 32.7l-15.5 44.4l225.6 -0l-0.2 24.3l24.1 0.2l0 -24.6l301.4 -5l3.3 -651.2l40.1 0.2l1.9 -99.6l-86.6 39.8l-33.5 0.3l-62.4 27.3l-92.6 216.8l-21.5 -10.9l-30 27.7l-27.4 -14.3l-27.1 16.9l-8 -3l-7.5 3.1l-16.8 -2.4l-1.8 5.3l-5.5 -4.1l-14.4 0l-8.4 -3.4l-70.4 10.4l-22.7 24l-91 53.6l-55.6 12.8l-38.4 -19.3l-1.6 4.2l-3.3 42.3l-51.7 65.9z" />
  </g>
  <g data-id="055">
    <path d="m163.5 1052.9l0 0l21.4 117.5l6.6 44.3l0.5 2.6l0 0.1l3.4 15.1l7.8 43.4l12.4 68l0.3 1.5l37.2 206.3l22.2 122.9l7.5 41.4l17.6 106.3l156.9 0.7l9.5 -43.7l41.2 -90.8l59.4 -78.1l114.7 -50.3l81.4 -48l0.2 -18.1l39.7 -0l15.4 -35.8l72.9 -17.1l36.7 -91.6l31.9 -108.6l50.6 -97.3l33.2 -87.4l-36.1 -1.7l-415.2 -2.6l-64.5 -0.3l1.8 17.7l-40.1 -18.5l-326.5 2.3z" />
  </g>
  <g data-id="057">
    <path d="m1988.5 2034.7l0 0l-3.2 315.5l68 1.9l5.5 -3.3l1.8 -7.5l73.1 13.1l35 0.8l0.4 0l69.4 1.5l34.9 0.7l13.8 -8.4l64.3 10.1l138.2 3.6l0.8 -53.1l0.2 -37.5l14.6 2.7l67.5 -27.3l34.9 -12.1l2.8 -34.2l19 -100.7l50.5 -23.9l96.6 -0l49.3 0.6l-0.4 -54.3l0.5 -75.6l0.2 -129.8l1.1 -119.3l1 -116.5l-282.4 0.8l-18.2 18.9l-23.5 -18.5l-26.4 -16.6l-36.9 -2.9l-0.4 19.8l-294.5 -2.8l-0.4 -78.1l-147.8 -1l-1.7 146l20.5 0l-20.4 20.9l0.5 303.3l-8.3 63.1z" />
  </g>
  <g data-id="059">
    <path d="m4339.9 2634.7l0 0l61 87.8l34.9 -3.2l118.1 24.6l28.3 -10.9l35.2 34.5l47.6 38l10 19.3l2.1 0.8l33 35.1l70.2 19.3l4.3 35l104 17.9l68.6 -132.9l5 -9.9l-72.5 -95.5l-6.8 -24.1l26.1 -47l-5.8 -76.7l22.2 3.8l-10.6 -18.3l-64.8 -4.4l-54.4 -45.4l-83.5 -36.8l-52.1 7l0 20.4l-145.2 63.1l-63.3 30.5l-39.6 -17.3l10.1 30.5l-82.2 54.7z" />
  </g>
  <g data-id="061">
    <path d="m989.2 8097l0 0l10.8 40.7l20.5 77l-13.9 93l89.8 111.5l43.2 66.2l8.8 128.3l33.7 64.4l-6.5 65.1l-1.2 2.6l33.9 -3.7l0.3 80.2l90 -6.9l32.1 -20.8l73.8 -13l243.6 3.5l24.9 -32.5l-23 -82.5l41.6 -42.7l-40.4 -1.2l1.2 -133.2l-261.3 2.7l-0.3 -90.9l23.4 0.3l0.7 -41.6l-39.4 -18.8l0.8 -82.6l-20.9 0.1l1.4 -159.1l-142.5 -2.5l-99.5 18.3l-125.7 -22z" />
  </g>
  <g data-id="063">
    <path d="m2406.5 3572.8l0 0l-0.2 109.6l40.3 0.5l12.3 66.2l13 18.9l14.6 57.8l48.2 20.8l33.2 57.1l-6.6 10.9l-8.3 27.1l10.5 8.9l-38.7 20.2l0.1 27.9l37.9 57.3l-22.5 20.4l-3.2 53.1l17.2 52.3l70.8 -0.1l1.2 -112.5l0.2 -58.4l0.3 -39.3l123.6 1.1l0.6 -29.3l0.5 -93l21.5 -0l1.6 -68.2l1.4 -54l-21.1 -0.3l18.2 -40.5l42.3 0.4l0.6 -51.4l0.2 -14l40.7 -38.8l-40 -42l0.8 -60.6l-39.3 -41.4l-115.6 -0.2l-29.1 -1l-103.3 -1l-41.7 -0.8l-70.7 18.7l-9.9 -18.3l-0.7 48.5l-0.8 26.4l-0.3 61.3z" />
  </g>
  <g data-id="065">
    <path d="m5528.1 9564.7l0 0l-0.2 770.5l262.3 84.1l0.9 19l32.4 45l-9.1 22.8l9 44.2l30.6 12.9l22.4 64.2l20.8 18.9l61.3 23.7l46.6 -2.7l71.3 10.5l34.1 -12.1l39.7 21.7l78.6 20l70 8.4l47.9 42.6l-11 51.7l7.7 41.4l-2.6 161.7l30.9 2l7.9 0.8l25.9 1.7l17 1.4l18.5 1.2l23.8 1.7l136.7 9.5l0.4 0l85.3 6.2l0.3 -76.6l-25.3 0.7l4.1 -189l-13 -64.1l31.7 -0.2l-0.3 -30.7l-31.7 0.1l-1.3 -222.1l-125.1 1.3l6.9 -31.8l3.5 -319.4l-62.1 0.1l-63.4 -91.2l-87.6 -44.3l-156.2 -378.5l-10.9 -26.5l-628.8 -0.6z" />
  </g>
  <g data-id="067">
    <path d="m1818.1 2472.6l0 0l-1.5 208.5l34.4 0.6l-2.1 110.7l-1.5 192.2l-0.2 18.9l1.9 35.1l63.3 1.2l71.8 0.8l77.8 1.4l5.7 8.3l81.5 130.7l6.3 15.8l84.2 -69.7l18.7 -30.8l28.8 -17.7l42.1 -45.6l31.9 -22.5l24.6 -25.5l22.1 7.1l4.2 -3l0.8 -2.6l-9.1 -66.7l11.5 -14.1l-3.3 -15l18.4 -25.4l8.6 -11.3l3.5 -27.6l-2.7 -28.8l-9.8 -21.2l88.6 -85.5l15 -18.9l19.7 -17.3l11.7 -22.5l17.4 -49.9l-18 -15.6l-37.6 -54.7l-5 -55.9l-10 -3.8l-5.5 -29l-16.8 -30.2l0.2 -30.2l-138.2 -3.6l-64.3 -10.1l-13.8 8.4l-34.9 -0.7l-69.4 -1.5l-0.4 0l-35 -0.8l-73.1 -13.1l-1.8 7.5l-5.5 3.3l-68 -1.9l-90.4 -1.4l-74.6 -1.5l-1.3 55.7l-1 69.5z" />
  </g>
  <g data-id="069">
    <path d="m5162.2 8856.3l0 0l-11.5 26.4l22.3 101.2l381.9 7.7l1 35.1l249.2 3.2l20.7 59.5l25 32l395.8 1.4l1.7 -259.3l64.4 0.1l2.6 -218.1l-67.1 -1.1l2 -281.8l-391.8 3.1l-47.4 0.1l-0.2 -223.1l0.7 -134.1l-66.6 83.5l-39.6 6.8l-43.2 -13l-81.7 -7.2l-18.4 11.7l-48.4 -25.2l-36.5 30.2l-5.6 266l-0.9 31.3l-30.7 -0.8l-1.6 61.8l-31.9 -1.2l-1.7 30.8l-29.9 -1.2l-0.9 32.9l-29.3 -1l-2.8 113.3l-49.1 120.9l-27.7 24.4l-31.3 68.8l-17.1 11.2l-54.1 3.4z" />
  </g>
  <g data-id="071">
    <path d="m3339.9 9764.6l0 0l22.4 0.2l-0.9 61.4l-0.5 87.5l179.4 2.6l257.5 4.3l1 31.2l30.2 -30.7l93.8 2l340.4 9.3l-1.9 -108.4l15.4 -55.4l21.3 -23.9l3.9 -84l25.1 -7.9l5.9 -76l64.5 -66.2l-7.5 -55.8l15 -125.4l-18.7 -55.5l5.6 -61.6l-296.9 -8l-125.5 -2.4l-0.6 32.6l-94 -1.4l-0.3 -32.6l-35 -0.2l-469.4 -6.5l-7.4 547.5l-22.8 23.2z" />
  </g>
  <g data-id="073">
    <path d="m6639.6 3462.1l0 0l18.2 76.1l42.6 26.6l-1.7 24.7l-40.4 47.7l-8.5 48.3l108.9 49.6l-36.6 33.9l7.7 61.9l32.5 35.9l-3.3 26.1l43.2 41.8l58.9 77.8l-9.1 36l97.1 127.7l23.8 -20.3l323.4 -279.7l42.6 -36.6l79.3 -69.5l35.6 -29.2l53.5 -43.4l-10 -3.8l-3.9 -6.8l-5.2 -13.9l-18.8 -23.1l-5.5 -2.6l-12.6 -1.3l-1.3 -0.8l-4.5 -2.7l-23.7 -21.7l-8.5 -5.4l-30.2 -7.8l-13.9 -5.4l-4.7 -3.3l-5.2 -5.8l-15.6 -23.4l-6.6 -2.4l-12.5 0.2l-2.6 0l-8.1 4l-11.5 10.4l-6.7 2.1l-9.3 -1.5l-19.6 -9.4l-4.6 -3.5l-7.9 -6.1l-4.7 -7.2l-4.8 -13.5l-6.2 -5.8l-4.3 -2.7l-7.5 -2.4l-4.7 -1.1l-21.4 -5.1l-11.5 -7.1l-13.2 -12.4l-21.9 -24.5l-9.7 -41.1l3 -27l-0.2 -9.4l-0 -1.1l-1.8 -7.3l-16.1 -13.2l-2.7 -4.8l-5 -14l-10.1 -17.9l-3.7 -4.8l-46.2 -17.7l-74.4 22.1l-63.6 -40.6l-67.6 19.2l-27 25.7l-128.1 41.6l-26.9 39.6l-34.3 31z" />
  </g>
  <g data-id="075">
    <path d="m4276.7 9768.8l0 0l-15.4 55.4l48.8 58.3l91.2 14.8l68.4 40l188.8 6.3l190.1 5.2l32.1 -88.4l-35.4 -21l-20.6 -50.9l-31.5 -10.6l-2.2 -52.1l37.1 -72.8l-1.7 -47.3l-60.2 -59.7l4.4 -59.7l-7.9 -70.3l-23.3 -18.5l-40.1 7.5l-41 -23.1l-49.8 -69.6l-40.7 -15.9l-21 -56.8l13.3 -40.3l-4.2 -43.1l-54.9 59.2l-109.1 -2.8l-5.6 61.6l18.7 55.5l-15 125.4l7.5 55.8l-64.5 66.2l-5.9 76l-25.1 7.9l-3.9 84l-21.3 23.9z" />
  </g>
  <g data-id="077">
    <path d="m1298.4 3958.3l0 0l-60.5 39.7l119 373l3.7 -13.3l17 0.2l-12.1 41.8l32.7 102.7l14.2 0.2l147.2 1.9l-20.6 41.2l20.1 40.8l21 -81.3l119.8 0.6l253.3 1.5l48.6 -16.9l62.3 18.4l250.6 2.7l-11.8 -69.2l21.9 -22.1l-41.7 -89.4l-1.7 -63.5l-33.8 -42.9l-64.1 -23.2l-44.4 -33.3l-14.1 -54.3l-35.5 -44.2l-8.9 -14.7l-25.6 -90.7l1.1 -95l25.4 -39.4l8.3 -25.3l-24.1 -20.6l-209.8 -0.5l-20 0.3l-252.2 -1.7l-16 44.2l-43.1 8.3l-62.8 53.8l-27.2 60.8l-32.9 20.8l-76.6 -40.1l-22.8 -11.3l-3.7 40z" />
  </g>
  <g data-id="079">
    <path d="m2943.7 5839.8l0 0l59.6 30.8l59.8 -18.9l38.1 26.7l45.5 -26.2l2 29.1l56.3 65.2l10.3 29.1l34.6 -2.3l-32.3 44.6l1.9 50.7l39.3 78.3l36 20.8l67.2 71.1l102.1 -82.5l19.9 25.9l-0.3 -42.2l131.6 -108.3l243.5 -198.2l137.5 2.6l-0.1 -1.4l-73.8 -3.7l-85.2 -62.8l-69.8 -27.8l-90.9 -130l-7.3 -29.3l-42 -33l-11.6 -28.6l-19.7 -1.7l-0.2 -73.1l-90.3 -0.6l-70.2 -0.7l0.2 -20.7l-21.2 20.5l-306.1 -1.6l-0.1 121.5l-52.5 -0.7l-111.9 277.5z" />
  </g>
  <g data-id="081">
    <path d="m3450.2 7478.3l0 0l23 37.7l-0.2 45l53.5 122.4l12.1 60.9l-7.1 33.2l-24.3 69.9l15.8 44.7l-27.1 38l31.8 -1.1l165.7 42.5l40.1 52.9l49.3 15.3l398.9 -1.4l0.8 -123.4l5.4 -430l-738 -6.6z" />
  </g>
  <g data-id="083">
    <path d="m0 40.9l0 0l12.1 84.3l1.3 17.5l7.5 52.7l0.1 0.4l25.2 163.3l45.6 281.9l18.7 106.6l0.1 0.5l23.5 131.1l0 0.2l14.6 80.7l0.5 3.1l90.9 -116.3l0.6 -75.7l60 -83.4l5.5 -50.7l18.8 -19.4l-0.3 -185.1l35.4 -111l32.1 -63.3l91.9 -159.1l22.4 -54.8l-44.2 1l-171.6 0l-15.5 -0.2l-164.7 -2.5l-110.3 -1.7z" />
  </g>
  <g data-id="085">
    <path d="m2643.7 1119.1l0 0l-0.2 36.5l54.5 205.2l131.8 5.6l-1.5 215.4l-1 116.5l230 1l272.7 1.1l129 0.8l-51.1 -60.5l-6.1 -63.9l26.2 -56.3l-18.5 -33.8l-264.5 -120.8l11.6 -13.8l-29.9 -5.1l-109.9 -121.1l-47.2 -45.1l-1.5 -10.1l5 -153.4l-17.2 -38.8l-57 53.4l-64.6 -1.3l-0.9 74.3l-83.8 -5.5l-25.2 -27.8l-62.1 6.3l-18.7 41.3z" />
  </g>
  <g data-id="087">
    <path d="m1531.3 10681.9l0 0l11.9 13.7l10.9 25.3l2.6 0.1l56.7 2l402 21.3l80.7 5.2l0.3 -0l140.4 7.6l9.1 0.6l127.3 9.1l196.9 6.9l10 -768.7l-1.4 -182.5l-275.9 1.2l-72.6 -1.5l-214.1 -1.2l-2.3 28.2l-178.5 -2.9l-1.6 46.8l-44.8 21.7l-5.9 358.1l-28.9 45.3l1.3 96.1l-34.4 33l-3.1 54l-29.8 0.2l-27.1 48.9l-75.6 22.5l-37.8 62l-16 47.2z" />
  </g>
  <g data-id="089">
    <path d="m2635.6 3356.2l0 0l-1.7 81.8l29.1 1l115.6 0.2l30.2 0.6l26.7 0.3l18.3 41.1l44.5 0.2l0.6 -40.1l76.6 1l6.9 0l29.7 17.3l40.7 1.8l44.8 18.2l28.2 42.1l24 -53.8l62.7 -142.7l0.1 -0.3l23.7 -53.9l13.6 -31.5l69.1 -66.1l-34.8 -12.4l-12.9 -17.6l-61.8 -32.4l-36.5 -44.4l-8.2 -8.2l-34 -23.1l-20.2 -27.9l-23.6 -40.3l-29.6 -20.5l-19.9 -26.9l-32.1 -12.4l-63.8 -37.6l-8.8 -12.5l-11.9 -12.4l-39.6 -48.4l-10.3 -6.2l-1.3 -1l-30.8 -17l-12.3 -15.9l-1.5 -2.4l-26.1 -93.8l-11.8 -4.4l-7.1 4l-122.6 -34.6l-18.5 21.8l-0.2 58.4l-0.2 58.2l-0.8 60.9l0.5 22.3l-0.4 62.2l-0 8.9l-0.2 3.5l0.6 18.3l-0.8 47.9l-0.1 3.1l0.2 19.5l-0.5 87l-0.1 2.8l-0.6 20.2l-0.6 87.7l-0.3 148.3z" />
  </g>
  <g data-id="091">
    <path d="m4740.4 6878.6l0 0l-57.5 56.5l173.8 175.9l-70.7 70.6l42.2 42.6l-8.9 18.6l-59.6 49.1l40.5 49.5l10.5 -16.3l37.3 32.9l-26.3 70l37 58.1l-14.3 40.1l37.2 35.9l-27 30.2l64.1 80.2l73.7 39.9l43.4 88l553.4 -553.8l-28.1 -27.8l43.9 -44.6l14.1 44.6l117.7 -117.7l-27.3 -33.1l-4.5 -4.7l-218.3 125.7l-252.8 -557.9l-57.8 -126.8l-71.9 -73.3l-276 274.9l43.6 43.8l-101.3 100l-29.1 0.5l-0.9 28.1z" />
  </g>
  <g data-id="093">
    <path d="m3311 7130l0 0l-12.4 44.8l52.4 58.6l-7.2 24.5l29.7 47.3l48.2 20.5l-25 53.3l13.3 63.8l23.5 15.7l16.6 19.7l738 6.6l2.3 -224.1l4.5 -421.7l-19.3 -0.3l-177.9 14.8l-38 -18.8l-272.7 -2l-97.4 -3l-5.7 27.8l-142 81.8l-51.3 77.2l-48.5 38.5l-38.7 55.8l7.3 19.1z" />
  </g>
  <g data-id="095">
    <path d="m2410 8575l0 0l4.1 94.1l15.9 10.2l30.7 90.5l42.4 124.3l-36.4 49.9l458.1 2l147.9 -10.6l7 -6.1l45.9 0l247.9 -2.6l0.2 -46.8l31.7 0.2l-31.2 -32.8l0.8 -77.7l1.8 -289.7l-34.1 -20.8l40.2 -40.5l-52.5 -0.6l-22.1 4.7l-30 61.1l-457.2 2.9l-77.1 1.1l-320.3 0.2l6.9 42.9l-20.5 44.2z" />
  </g>
  <g data-id="097">
    <path d="m1475.1 3229.4l0 0l-17.9 -1l19.5 22.7l-2.5 181.6l-1.8 28.2l-4.6 164.9l39.7 -0.1l119.2 -0.9l18.1 0.4l26.2 -1.2l6.9 -31.1l46.9 -43.2l42.4 -26.8l21.7 -40.3l23 16.3l12.7 -2.1l11.9 -30l111 -47.6l33 -4l14.3 -14.7l3.9 -52.3l47.5 -24l-5.3 -15.6l57.6 -44.9l41.5 -33.8l15.3 -32.8l-6.3 -15.8l-81.5 -130.7l-5.7 -8.3l-77.8 -1.4l-71.8 -0.8l-63.3 -1.2l0 44.4l-14.4 0.1l-22 2.1l-54.7 2.1l-54.8 9.2l-13.1 8.4l-54 2.7l-14.9 7.1l-97.5 3.2l-47.3 -15l-1.3 126.5z" />
  </g>
  <g data-id="099">
    <path d="m1029.7 9338.1l0 0l33 107.5l-1.9 55.9l-16.3 57.2l29.6 59.2l35.2 13.2l49.9 91.8l36.2 27.7l18.9 66.7l6.4 13.4l212.3 7.1l10.5 -449.8l468.4 10.6l23.1 -13.5l72.9 1.3l14.3 -5.7l7.5 -179.6l22 -0.1l-22.4 -23.5l1.4 -226.8l-317.8 -6.2l-1.3 -36.7l-37.6 -53.5l22 -1.1l1 -68.2l-21.6 23.5l-27 0.4l-0.1 -23.7l-243.6 -3.5l-73.8 13l-32.1 20.8l-90 6.9l-0.3 -80.2l-33.9 3.7l-54.7 120.1l11.8 91.1l-29.3 51.4l5 30.4l-31.3 86.6l12.2 56.2l-4.6 77l-2 33.5l-52 46z" />
  </g>
  <g data-id="101">
    <path d="m5188.6 10530.1l0 0l-7.6 404.4l10.9 1l530.2 35.4l3.2 0.1l374.4 26.2l0.6 0.1l19.2 1.2l0.5 0l221 14.4l2.6 -161.7l-7.7 -41.4l11 -51.7l-47.9 -42.6l-70 -8.4l-78.6 -20l-39.7 -21.7l-34.1 12.1l-71.3 -10.5l-46.6 2.7l-61.3 -23.7l-20.8 -18.9l-22.4 -64.2l-30.6 -12.9l-9 -44.2l9.1 -22.8l-32.4 -45l-0.9 -19l-262.3 -84.1l-74 24.3l-15.5 36.1l-11.5 -11.6l-144.1 1.9l-0 42.7l-31.7 3.9l-2.4 63.2l-45 1l-15.1 33.4z" />
  </g>
  <g data-id="103">
    <path d="m8535 6290.6l0 0l-19.8 49.2l25.5 21.1l-13.7 36.6l23.2 0.4l11.8 40.1l-28 36.7l8 31.4l-15.7 12.4l19.3 25.9l-2.9 33.5l24.3 1.6l5.9 40.1l23.3 13.3l3.9 34l35 15.1l6.4 44.2l35.8 10.8l44.7 81.5l6.6 29.8l-7.1 2.9l20.8 21.4l8.4 83.5l15.6 63l26.5 10.1l-5.9 37.8l22.2 110.9l12.7 4.2l-10.2 119.6l31.6 15l201.9 -171.8l210 -179.5l102.7 26.4l-14.7 -26.7l-5.2 -9.4l-1.2 -6l2.1 -5.2l15.2 -22.5l5.2 -20.6l19.5 -23.1l12 -4.7l5.9 -4.2l13.9 -20.4l3.8 -7.7l-0 -0.2l-0.4 -4.8l-5.2 -39.2l-1.3 -4.7l-2.1 -3.5l-3.1 -1.5l-21.6 -38l-4 -8.9l1.3 -4.5l8.4 -11.9l-1.3 -16.1l-15.3 -20.1l-3.4 -3.7l-3.1 -0.5l-7.6 4.2l-1.8 4.6l-1.3 2.2l-3.2 2l-3.2 0.1l-2.5 0l-1.5 -0.3l-0.9 -0.4l-0.8 -0.8l-0.7 -1.9l0.3 -4l-0.1 -3.2l-14.1 -14.9l-17.6 -13l-1.5 -3.5l0.6 -2.7l2.6 -4.4l1.3 -4.9l-1.3 -4.7l-8.6 -7.8l-14.3 -17.3l-1.7 -2.1l6.2 -10.4l1.9 -17.6l-7.8 -11.9l-18.5 -26.8l-10.9 -10.4l-21.4 -30.6l-6.9 -30.3l2.5 -3.9l5.7 -2.8l4.1 -2.8l2.1 -3.8l1 -4l0 -2.7l-2.2 -3.6l-1.8 -4.2l0 -4.2l1.4 -4l3 -2.8l7.1 -1.2l10.3 -10.4l11.1 -16.4l1 -3l-2.7 -3.2l-2.3 -0.5l-6.7 2l-5 -0.7l-10.9 -7.2l-26 -26.6l-31.7 -37.8l-12.7 -11.5l-9.9 -18.7l-0.9 -7.2l0.7 -3.2l3.6 -3l3.9 -2.2l1.7 -3.8l-1.3 -6.2l-5.1 -2.6l-16.6 -2.5l-6 0.2l-4.1 1.7l-6.4 -2l-50.9 -42.5l1.9 -7.8l3 -6.4l-0.3 -7.5l-0.6 -2.6l-8.4 -23.4l-4.3 -4.6l-0.1 -0.1l-32.4 -15.4l-2.5 -0.9l-5.5 0.5l-17.7 4.7l-24.3 3.6l-17.1 -4.2l-80.2 -39.4l-3 -17.8l-1.3 -14.5l-1.6 -3l-3.8 -2l-3.4 -0.2l-6.4 7.2l-6.3 0.5l-3.7 -1.6l-17.3 -14.3l-313.3 214.9z" />
  </g>
  <g data-id="105">
    <path d="m5267.3 2035.2l0 0l-14.7 74.7l16.7 28.9l56.7 17.4l41.2 85.5l35.5 19.7l-10.7 35.9l93.7 86.4l31.8 55.3l68.8 38.9l2.6 32.6l128.4 37.5l35.2 41.7l46.4 -1l10.8 -21.6l26.2 20.8l94.6 33.6l54.4 -2.9l73.1 -31.7l35.8 8.7l98.2 -25.1l19.8 17.9l12 28.3l31 -23.5l46.5 6.4l80.4 60.8l-0.1 -0.2l-2.3 -7.3l-0.9 -13.2l-4.5 -12.3l-3.3 -4.8l-10.2 -8.7l-5.9 -7.4l-4.3 -6.9l-2 -6.8l-0 -6.8l1.2 -4.7l3.7 -4.2l4 -2.6l2.1 -3.1l-0.4 -2.9l-1.4 -2.7l-3.2 -1.6l-11.9 -3.9l-6 -4.7l-6.3 -7.5l-5.5 -22.5l-5.5 -12.5l-2.4 -5.5l-0.4 -6.1l3.8 -18.7l-1 -7.1l-3.4 -4.6l-14.5 -10.9l-13.9 -12.9l-7.8 -17.5l-12.2 -11.4l-3.8 -7.9l-0.6 -6.3l-1.9 -4.1l-10.1 -12.5l-8.4 -5.2l-5.4 1.8l-5.1 -0.3l-9.6 -6.7l-7.2 -11.8l-3.5 -9.7l0.9 -7.6l5.1 -5.7l5.1 -12.7l0.4 -3.3l-1.2 -1.9l-1.2 -1.5l0.5 -4.9l-1.1 -3.4l-11.5 -14.2l-2.4 -2.1l-8.4 -2.7l-3.9 -1.6l-9.5 -7l-1.1 -1.1l-2.6 -8.5l-3.2 -2.2l-10.6 -14.8l-2.6 -16.7l-14.9 -24.4l-4.4 -4.8l-18.8 -7.1l-8.6 -9.7l-3.7 -1.8l-7.1 0.4l-8.9 -1.3l-9.2 -4.3l-23.6 -18.2l-4.5 -5.9l-12.2 -39l-4.4 -9.8l-11.4 -15.6l-2.2 -6.2l-1 -5.6l0.8 -31.9l-1.6 -5.5l-19.2 -37.4l-0.5 -4.7l-0.5 -4.7l3.9 -11.7l0.2 -3.3l-8.3 -13.3l2 -6.2l3.1 -7.2l-6 -32.4l-0.3 -4.8l1.9 -19.2l-9.9 -27.9l0.2 -1.8l4.2 -5.8l-6.7 -11.3l-10.9 -13.2l-14.6 -13.8l-2 -1.3l-4.9 1.1l-11.9 -9.8l-5.8 -8.5l-105.6 46.2l-192.1 58l-90.8 74l-44.5 21.5l-34.3 -23l16.8 -13.5l-63.8 -24.5l-124.3 26.6l-36.7 53.6z" />
  </g>
  <g data-id="107">
    <path d="m6258.9 6259.5l0 0l-51.8 22.5l61 18.8l116.7 -1.8l59.9 21.3l35.8 -6.1l56.6 8.3l2.6 10.5l134.6 74.1l56.9 25.9l33.8 28.1l-26 72.3l-4.7 61l-30.7 54l4.4 28.4l36.6 46.1l26.7 -4l47.3 58.1l3.7 52.2l156.9 -4.2l98.8 -61.2l-19.3 -70.5l-26.3 -10.7l139.7 -204l9.3 -66.1l4.9 -34.6l68.9 -115.4l143.8 -98.7l104.1 53l7.1 -40.8l53.7 -128.9l-171.3 -140.6l-130.3 -372.8l-26.6 -8.2l-117.8 30.4l-89.3 -50.3l-93.5 -6.9l-32.9 -22.5l-8.2 -10.6l-72.2 31.9l-14.3 27.2l-119.5 12.7l42.5 84.6l-75.2 37.9l-39 83.8l0 23.4l-37.8 21.6l-58.3 64.9l17.3 56.2l55.5 36.9l-61 32.9l-12.6 -21.7l-39.4 22.6l12 21.2l-46 30.6l-127.1 84l9.8 57.3l53.3 58.9l-44 18.1l-26.3 -19l-9.9 58.2l-0.8 -29.9l-42.2 -0.2z" />
  </g>
  <g data-id="109">
    <path d="m7566.9 6869.4l0 0l-53.5 -6.7l95.6 489.7l190.3 76.7l267.4 6.3l90.4 -102.7l-47 -37.5l-32.1 -0.2l-14.7 -32.3l-29.3 -35.5l-7.5 -51.9l5 -23.3l-29.6 -77l-19.6 -8.7l-7.6 -58.9l-22.5 -41.8l-53.2 -8.6l-33 -40.9l-74.2 -43.2l-54.3 0.7l-72.7 19.1l-33.3 -4.8l-64.6 -18.4z" />
  </g>
  <g data-id="111">
    <path d="m2064.6 31.6l0 0l-2.7 335.8l8.6 4.4l411.1 1.5l0.3 -6.8l66.6 59.1l99.1 24.5l32.7 47l28.1 -2.4l131.1 227.8l-0.3 136.7l20.3 -16.1l33.9 43.5l50.9 30.6l11.4 61.1l17.2 38.8l64.1 -116.2l114.2 -203.2l22 0.1l-0 -188.1l-64.6 13.7l-33.7 -27.7l-15.6 -96.5l10.6 -24l60.3 -41.8l13.3 -42.3l-54.8 -75.7l-32.7 -8l-47.4 -46.8l-15 -36.3l103.6 -90.7l-0.2 -0l-403.6 -2.3l-151.3 0.9l-2 0.1l-239.6 -0l-1.8 0.1l-234.2 -0.8z" />
  </g>
  <g data-id="113">
    <path d="m2055.9 3869l0 0l-1.1 95l25.6 90.7l8.9 14.7l35.5 44.2l14.1 54.3l44.4 33.3l64.1 23.2l33.8 42.9l1.7 63.5l41.7 89.4l135.6 2.3l29.6 -93.3l54.2 -38.2l20.8 -78.7l-10.7 -30.8l-17.2 -52.3l3.2 -53.1l22.5 -20.4l-37.9 -57.3l-0.1 -27.9l38.7 -20.2l-10.5 -8.9l8.3 -27.1l6.6 -10.9l-33.2 -57.1l-48.2 -20.8l-14.6 -57.8l-13 -18.9l-12.3 -66.2l-40.3 -0.5l-32.9 8l-19.5 5.1l-153.6 43.6l-28.2 8.8l-74.3 34.9l-8.1 21.5l-8.3 25.3l-25.4 39.4z" />
  </g>
  <g data-id="115">
    <path d="m300.3 1822.2l0 0l7.1 43.1l1.3 9.4l5.7 32.7l0.7 5.5l53.7 318.7l2.6 27.1l13.4 85.1l290.8 3.6l53 0.7l0.9 -54.6l99.9 7.7l110.6 0.9l-0.3 35l73.6 0.8l1.1 -34.5l157.6 0.9l3.3 -180.2l1.3 -117.1l43.7 0.6l-0.3 -96l17.5 0.2l-17.4 -18.2l1.3 -149l0.4 -76.7l37.5 0.1l-1.1 -115.4l-44.6 -3.9l-9.8 -18.7l-115.5 0.2l-37.9 -8.5l-5.4 -26.7l39.2 -25.2l-49.6 -93.9l46.7 -4.1l0.1 -199.6l55.6 -1.6l-1.4 -82.4l-10.5 -31.4l-81 -0.8l-33.2 87.4l-50.6 97.3l-31.9 108.6l-36.7 91.6l-72.9 17.1l-15.4 35.8l-39.7 0l-0.2 18.1l-81.4 48l-114.7 50.3l-59.4 78.1l-41.2 90.8l-9.5 43.7l-156.9 -0.7z" />
  </g>
  <g data-id="117">
    <path d="m2825.9 2077.3l0 0l-0.4 193.7l66 31.4l23.7 -6.8l21.4 23.2l0.3 0.2l32.3 10.9l25.4 40.3l73.3 38.2l96 11.7l-42.6 -38.6l9.8 -31.3l-0.8 -19l34 -94.1l48 -103.4l24.7 -10.6l10.9 -39.1l56.5 -30.5l87.4 -1.1l35.8 -81.7l45.9 -29.5l-0.8 -56l-7.5 -15l59.9 -48l-14.4 3.8l-36.5 -69.6l9.2 -43l-24.4 -12.1l-129 -0.8l-272.7 -1.1l-230 -1l-1.1 119.3l-0.2 129.8l-0.5 75.6l0.4 54.3z" />
  </g>
  <g data-id="119">
    <path d="m4631.6 1378.5l0 0l33.2 81.3l-0.5 92.1l-23.3 172.7l117.5 162.4l-36.4 94.1l87.8 -90l33.8 -13.6l50.9 39.8l71.5 6.8l76 -5.4l63.1 24.9l124.6 -88.9l15.6 -13.7l23.6 -173.1l-25.9 6l26.9 -181.1l89.1 -198.1l4.9 -3.5l-10.5 -19.9l-7.1 -2.1l-16.1 6.6l-8.3 -2.6l-37.2 -35.2l0.7 -4.7l18.6 -15.2l-0.2 -2.8l-14.2 -15.6l-6.2 -2.8l-10 -2.2l-0.6 0.2l-8.4 3.4l-11.2 -1.7l-2.1 -3.1l-0.8 -8.2l-155.9 151.8l-409.7 17.3l-53.2 23.8z" />
  </g>
  <g data-id="121">
    <path d="m1656.6 3759.6l0 0l-73.1 22.1l252.2 1.7l20 -0.3l209.8 0.5l24.1 20.6l8.1 -21.5l74.3 -34.9l28.2 -8.8l153.6 -43.6l19.5 -5.1l32.9 -8l0.2 -109.6l0.3 -61.3l0.8 -26.4l0.7 -48.5l9.9 18.3l70.7 -18.7l41.7 0.8l103.3 1l1.7 -81.8l0.3 -148.3l0.6 -87.7l0.6 -20.2l0.1 -2.8l0.5 -87l-0.2 -19.5l0.1 -3.1l0.8 -47.9l-0.6 -18.3l0.2 -3.5l0 -8.9l0.4 -62.2l-0.5 -22.3l0.8 -60.9l0.2 -58.2l0.2 -58.4l18.5 -21.8l122.6 34.6l7.1 -4l39.1 -27.4l-9.2 -13.3l-0.5 -32.7l17.7 1.2l44.7 -39.4l0.1 -0l43.7 -5.4l19.2 35.7l46.9 -23.3l24.9 -74.5l95.9 -13l54.1 -43.6l-96 -11.7l-73.3 -38.2l-25.4 -40.3l-32.3 -10.9l-0.3 -0.2l-21.4 -23.2l-23.7 6.8l-66 -31.4l0.4 -193.7l-49.3 -0.6l-96.6 0l-50.5 23.9l-19 100.7l-2.8 34.2l-34.9 12.1l-67.5 27.3l-14.6 -2.7l-0.2 37.5l-0.8 53.1l-0.2 30.2l16.8 30.2l5.5 29l10 3.8l5 55.9l37.6 54.7l18 15.6l-17.4 49.9l-11.7 22.5l-19.7 17.3l-15 18.9l-88.6 85.5l9.8 21.2l2.7 28.8l-3.5 27.6l-8.6 11.3l-18.4 25.4l3.3 15l-11.5 14.1l9.1 66.7l-0.8 2.6l-4.2 3l-22.1 -7.1l-24.6 25.5l-31.9 22.5l-42.1 45.6l-28.8 17.7l-18.7 30.8l-84.2 69.7l-15.3 32.8l-41.5 33.8l-57.6 44.9l5.3 15.6l-47.5 24l-3.9 52.3l-14.3 14.7l-33 4l-111 47.6l-11.9 30l-12.7 2.1l-23 -16.3l-21.7 40.3l-42.4 26.8l-46.9 43.2l-6.9 31.1l-49.1 72.6l34.6 63z" />
  </g>
  <g data-id="123">
    <path d="m1989.8 695.1l0 0l5.4 371.8l0.3 87.3l279.1 -3.9l39.4 -33.7l-0.4 33.7l54.7 0.9l-19 -33.5l37.4 -0.6l0.3 34.5l64.3 1.6l138.3 2.2l-0.3 -36.7l54.4 0.5l18.7 -41.3l62.1 -6.3l25.2 27.8l83.8 5.5l0.9 -74.3l64.6 1.3l57 -53.4l-11.4 -61.1l-50.9 -30.6l-33.9 -43.5l-20.3 16.1l0.3 -136.7l-131.1 -227.8l-28.1 2.4l-32.7 -47l-99.1 -24.5l-66.6 -59.1l-0.3 6.8l-411.1 -1.5l76.3 77.4l-57.6 87.4l-36.9 15.9l-29.6 18.7l12.2 13.3l-45 110.6z" />
  </g>
  <g data-id="125">
    <path d="m5980.2 4430.3l0 0l20.3 18.4l-4.4 19.5l31.2 75.8l-12.7 84.7l42.9 10.8l21.7 45.2l98.2 64.4l152.8 7l21.6 9.3l9.8 -80.1l-22.7 -49.3l239.4 -197.4l81.7 -62l-136.2 -70.7l-132 -61l-67 15.8l-50.2 35.6l-62.9 13.5l-70.4 69.1l-49.1 2.6l-63.3 41.2l-48.5 7.7z" />
  </g>
  <g data-id="127">
    <path d="m8055.8 9521.7l0 0l-29.6 88.8l30.7 -10.6l6.1 38l86.4 13.2l19 24.6l56.7 39.9l50.7 -7.7l63.9 42.7l18.1 -20.1l23.7 7.7l72.2 -9.9l30.9 -32l9.4 23.5l-30.6 57.4l33.5 40.3l35.6 -7.3l27.7 50.4l71.6 21.4l12.9 48.7l61.7 -6.4l25.1 20.1l3.7 30.2l17.3 -2.8l0.4 7.7l4.7 4l16.3 -1.7l8.9 -7.4l11.2 -24.5l29.1 -112.8l0.1 -32.7l-5.3 -51.4l3.4 -44.8l5.1 -21.4l27 2.2l39 -8.1l18.7 -31l-3 -16.5l12.4 -27.7l33.3 -48.4l52.1 -51.6l19.4 4.3l24.3 -0.4l10.4 -11.6l-1.5 -35.4l13.2 -46.3l12.6 -25.5l4.6 -85.3l10 -12.4l-59.5 5l-43.8 -41.1l-104.3 -23.4l-29.8 3.9l-38.9 53.9l-22.6 1.1l18.6 -31.8l-68 -13.7l-6.3 -46.4l-31.9 14.1l-34.8 -32.6l-47 -9.3l-26.2 -29.9l-60.3 -30l-3.5 -21.1l-30.7 2l10.2 -22.8l-67 -35.9l-69.2 -85.8l7 -14.2l-35.9 -31.7l-85.1 131l-57 -1.9l-26.8 62.9l14.1 17.5l-56.6 100l-14 -7.2l-2 70.5l-30.5 48.8l-22.5 97.1l-18.8 99.3z" />
  </g>
  <g data-id="129">
    <path d="m1081.1 1371.8l0 0l-46.7 4.1l49.6 93.9l-39.2 25.2l5.4 26.7l37.9 8.5l115.5 -0.2l9.8 18.7l44.6 3.9l27.8 -0.5l26.1 20.1l0.9 -32.7l54.3 34.2l2.5 -37.6l188.2 6l54.2 -2.8l79.9 1l136.1 2.2l0.5 -41.9l169.3 1l-1.1 -109.9l19.5 0l-18.6 -18.9l-2.3 -218.4l-0.3 -87.3l-57.6 -0.4l-49.5 -38.6l-53.9 -0.4l-0.1 -36l35.5 19.5l-2.5 -45.3l-63.2 2.1l-0.9 28.4l-42.9 -11.7l-27.4 18.2l-47.3 -0.2l-129.5 -18.8l-93.1 -0.1l-10.9 -46.8l-26.6 45.8l-260.9 0.5l0 -16.6l-10 0.3l-11.1 89.8l-18.2 0l10.5 31.4l1.4 82.4l-55.6 1.6l-0.1 199.6z" />
  </g>
  <g data-id="131">
    <path d="m2579.9 10004.8l0 0l-10 768.7l12 0.4l194 10.9l2.6 0.1l65.7 2.7l262.4 14.9l36.1 3l50.5 2.5l7.3 -412.8l-4.7 -22l20.2 -27.7l-13.9 -38.8l6.6 -61l-88.8 -156.4l4.2 -264.8l-545.6 -2.2l1.4 182.5z" />
  </g>
  <g data-id="133">
    <path d="m4615.2 3310.9l0 0l23.7 19.7l22.9 60.4l28.3 26.9l23 84.7l26.6 55l43.1 41.1l32.5 53.5l50.9 51.1l36.5 23.8l-17.6 14.1l-13.3 53.9l14.9 30.3l-6.6 27.1l10.6 48.6l36.1 18.7l-11 32.7l48.7 63.7l-9.4 48.1l36 -13.2l30.2 10.3l-25 50.2l56 -37.4l58.6 62l12.1 39.3l317.7 -287l57.2 -52l-0.9 -76.8l-58.8 -151.2l50.7 -57.7l-24.6 -42.8l29.1 -21.9l16 35.9l20.1 -68.1l40.6 -49.3l-26.3 -39.1l-30.6 -7.9l-36.4 -34.5l-41.3 6.2l-71.1 -61.7l-146.1 42.2l-339.2 -158.9l-35.8 57.3l12.5 12l-240.8 90.9z" />
  </g>
  <g data-id="135">
    <path d="m2787.4 2655.7l0 0l11.8 4.4l26.1 93.8l1.5 2.4l12.3 15.9l30.8 17l1.3 1l10.3 6.2l39.6 48.4l11.9 12.4l8.8 12.5l63.8 37.6l32.1 12.4l19.9 26.9l29.6 20.5l23.6 40.3l20.2 27.9l34 23.1l8.2 8.2l36.5 44.4l61.8 32.4l12.9 17.6l34.8 12.4l10.3 -9.6l77.1 -74.3l154.4 -143.5l33.3 -31.4l49.5 -47.7l29.3 -28.2l117.5 -112.6l-30.1 -49.7l1 -9.3l-23.6 -27.9l-27.2 -45.3l-66.9 -56.3l8.9 -23.2l66.9 -194.9l32.2 -94l-105.7 74.1l-46.3 -20l-51.3 -22.5l-124.3 -53.6l-187 -80.3l-24.7 10.6l-48 103.4l-34 94.1l0.8 19l-9.8 31.3l42.6 38.6l-54.1 43.6l-95.9 13l-24.9 74.5l-46.9 23.3l-19.2 -35.7l-43.7 5.4l-0.1 0l-44.7 39.4l-17.7 -1.2l0.5 32.7l9.2 13.3l-39.1 27.4z" />
  </g>
  <g data-id="137">
    <path d="m4069.2 495.5l0 0l-32 15.8l74.5 74.3l26.2 2.8l1.9 42.7l19.7 55.7l-34 55.4l6.3 27.8l-18.4 76.5l-36.9 25.1l51.6 95.5l-17.4 25.9l16.1 82l48.9 69.2l-2.3 28.6l-34.6 37.6l-62.3 34l-7.6 25.3l107.4 182.9l62.7 -54.2l69.1 -83.5l31.5 -15l40 5.9l101.7 13.6l21.3 7.4l198.8 -494.9l54 -29l-0.1 -0.8l-2.1 -5.2l-4.3 -5.8l-4.7 -5.8l-6.6 -6.6l-3.3 -3.7l-1.2 -4l0.7 -4.6l3.8 -6.9l0.2 -4.6l-4.3 -7.1l-2.5 -12.7l-0.9 -3.1l-2.3 -3.9l-0 -0.3l-73.2 -54.3l-34.2 21.6l-57.8 -47.1l-50.5 37.6l-49 22.2l-52.2 -26.4l-19.5 6.7l-76 -45.4l-27.8 -80.9l11.7 -10.1l-41.2 -26.7l-22.4 -62.6l-30.8 -16.9l-24.2 11.8l-82.1 -2.5l-29.7 40.8z" />
  </g>
  <g data-id="139">
    <path d="m3248 2084l0 0l-10.9 39.1l187 80.3l124.3 53.6l51.3 22.5l46.3 20l105.7 -74.1l92.8 -95.3l37.4 -38.3l124.5 -128l77.4 -79.3l82.6 -84.8l-61.2 -66.6l-4.5 -56.5l-38.3 -56.9l29.6 -85.6l84.6 -81.4l-107.4 -182.9l-189.6 -2.2l-43.7 -23.5l-22.8 22.8l-115.3 -1.9l-139.7 116.3l-46 -24.3l23.6 23.5l-125.9 106.2l18.5 33.8l-26.2 56.3l6.1 63.9l51.1 60.5l24.4 12.1l-9.2 43l36.5 69.6l14.4 -3.8l-59.9 48l7.5 15l0.8 56l-45.9 29.5l-35.8 81.7l-87.4 1.1l-56.5 30.5z" />
  </g>
  <g data-id="141">
    <path d="m4892.4 4596.3l0 0l21.9 -4.7l143.3 32l205.1 62.2l-2.5 46.5l-21.6 7.9l-7.9 79.5l-12.4 27.9l37.7 93l36.3 -35.2l21.1 -0.5l44.6 -41.5l91.2 -0.4l37.4 -24.6l43.7 -46.6l41 4.3l50.2 -21.8l25.5 -26.4l28.4 -4.4l25.5 -25.2l44.4 -99.8l26.6 -45.2l48.3 -14l12.8 -21.3l56.8 -28.1l43.8 -42l62.3 0.2l4.4 -19.5l-20.3 -18.4l-62.4 -38.4l8.4 -89.7l-22.8 -12.4l-22 -139.7l-39.4 -23.2l-8.6 -40.6l3.6 -93.5l-32.7 -8.3l-25.8 -31.7l-43.3 -7.2l-61.3 19.2l-79.5 -9.8l-24.3 -22.9l-68.1 10.3l-61.3 -54.1l-317.7 287l42.2 38.1l-3.6 74.9l-68.4 45.2l-108.3 40.2l2.8 48.4l-52 -6.3l-1.9 39.5l4.1 13.8l-45.6 127.5z" />
  </g>
  <g data-id="143">
    <path d="m458.9 2797.1l0 0l19 115.5l2.1 13.6l30.5 193.7l2.8 15.1l6.5 45.1l40.3 244.7l101.8 2.6l316.3 -120.9l19.6 21.7l48.1 -8l117.3 -50.5l2.7 -164.9l1.2 -81.7l23.3 1l0.5 -43.2l2.1 -190.3l-28.6 -0.4l-341 -4.6l-0 17.9l-364.6 -6.3z" />
  </g>
  <g data-id="145">
    <path d="m880.2 5389.8l0 0l2.9 22.1l0 0.2l64.9 46.3l-30.3 77.8l72.7 73.7l23.4 21.8l-35 33.2l18.4 20.7l24.2 27.3l9 25.9l-17.8 36.7l16.8 75.1l44.5 39.6l10.5 29.4l-35.3 32.7l32.7 33l21.1 58.6l205.5 1.1l95 -0l49.8 0.2l10.7 0.1l-0.4 60.2l15 0.1l68.6 0.3l267.8 -0.2l96.2 -1.4l1.5 -254.5l-19.4 -0.4l-0.1 -36.2l20.5 -18.4l0.4 -36.3l21.8 -19.2l-21.4 -21.1l1.3 -226.1l-17 -38.1l-76.3 -33.1l-30.3 -28.3l-202 2.1l-29.8 -10.3l-0.2 9.7l-498.7 -3.8l-19.3 8.7l-1.7 -9l-160.1 -0.1z" />
  </g>
  <g data-id="147">
    <path d="m5229.8 1854.9l0 0l-5.2 29l79.4 97.8l124.3 -26.6l63.8 24.5l-16.8 13.5l34.3 23l44.5 -21.5l90.8 -74l192.1 -58l105.6 -46.2l-13.9 -20.2l-3 -15.8l-10.7 -19l-8.7 -33.5l-1.3 -9.9l0.8 -9.2l-5.9 -22.2l-2.5 -3l-6.2 -0.9l-24.7 -22.1l-12.1 -9.7l-16.2 -12.9l-21.6 -13.7l-2.7 -4.6l-0.9 -7.9l0.4 -12l-3 -22.3l-10.3 -19l-1 -6l1.4 -12.3l-1.4 -6.2l-9.7 -26.4l-1.8 -4.9l-0.7 -21.7l-1.8 -8.3l-5.7 -7.6l-6.4 -13.9l-2.8 -29.8l-9.2 -14.6l-1.6 -4.5l0.4 -15.2l-3 -3.4l-6.7 -4l-21.2 -8.1l-2.1 -5.9l1.3 -5.6l2.1 -2.3l2.2 -6.7l-6.4 -9.7l-12.6 -9.4l-41.6 -17.6l-12 1.3l-30.4 10.2l-6.1 -1l-5.7 -6.1l-26 -4.8l-13.6 16.6l-15.3 5.9l-12.6 -12l-39.7 -1.8l-26.5 8.9l-1 0.3l-5.5 8.7l0.4 8.1l-16.4 0.9l-55.4 -30.6l-6.7 2.8l-4.6 -1.2l-19 -13.5l-9.5 -11.3l-2.5 -4.7l-4.9 3.5l-89.1 198.1l-26.9 181.1l25.9 -6l-23.6 173.1l-15.6 13.7z" />
  </g>
  <g data-id="149">
    <path d="m653.2 3991.5l0 0l120.4 749.4l250.1 -85.5l-0.3 -37.2l20.3 0.1l-0.3 -41.7l42.5 21.3l-0.7 37.3l89.8 -24.9l9.3 -16.7l213.7 -91.3l-32.7 -102.7l12.1 -41.8l-17 -0.2l-3.7 13.3l-119 -373l-175.8 -2.8l-408.9 -3.6z" />
  </g>
  <g data-id="151">
    <path d="m2626.3 4068.9l0 0l-1.2 112.5l220.9 -0.1l3.9 41.6l65 0.4l138 0.5l-0.7 56.9l101.4 37.1l11.1 -9.6l35.8 0.4l39.8 -19.4l39.3 -79.2l19.7 -4.2l2.3 -47.4l142 -34l-18.4 -81.5l62.1 -44.6l22.6 -41.7l18.5 -5.9l2.9 -16.1l-50.3 -78.4l-58.6 -4.8l-48.2 -26.3l-71.6 -9.6l-21.8 -52l-26.2 9.2l20.8 -27.4l-11 -38.5l-64.8 -33.9l-35.4 -13.8l-56.9 -2.8l-98.5 -148.2l-21.2 -23.2l-5.4 -42.8l-6.9 -0l-76.6 -1l-0.6 40.1l-44.5 -0.2l-18.3 -41.1l-26.7 -0.3l-30.2 -0.6l39.3 41.4l-0.8 60.6l40 42l-40.7 38.8l-0.2 14l-0.6 51.4l-42.3 -0.4l-18.2 40.5l21.1 0.3l-1.4 54l-1.6 68.2l-21.5 0l-0.5 93l-0.6 29.3l-123.6 -1.1l-0.3 39.3l-0.2 58.4z" />
  </g>
  <g data-id="153">
    <path d="m3670 6605.6l0 0l-0.1 61.2l20.5 0.1l-3.2 165.8l272.7 2l38 18.8l177.9 -14.8l75.9 -118.6l117.4 -164l42.8 32.6l10.6 -31.2l29.2 -10.1l3.1 -46.7l-32.1 -68.8l19.9 -81.9l-61.9 -34.3l-46.1 -63.7l8.8 -11.3l-26.1 -106.7l27.5 -36.5l-16.6 -97.7l-26.9 -66.6l-87.9 -29.5l-14.8 9.2l-30.6 -8.5l-15.1 -13.8l-34.5 -4.9l-48.6 -7.5l-50.5 -31.1l-22.8 -12.9l-0.3 -0l0.1 1.4l-16.4 41.5l-0.5 59l-39.1 -0.3l19.2 41l-1.2 97.6l-1.4 159.5l-6.9 26.5l-53.6 -32.4l-0.7 72l-60.9 -0.7l-19.3 -18.2l-22.1 40.5l-0 123.3l-40.7 17.7l-62 -71.2l1 72.5l20 0.2l-0.6 112.8l-0.2 29.2l-40.9 -0.5z" />
  </g>
  <g data-id="155">
    <path d="m4416.9 8556.6l0 0l-0.5 58.8l63.2 1.8l-0.2 33.1l105.4 5.9l49.2 54l43 121.5l66.1 14.6l13.7 0.8l405.4 9.1l54.1 -3.4l17.1 -11.2l31.3 -68.8l27.7 -24.4l49.1 -120.9l2.8 -113.3l29.3 1l0.9 -32.9l29.9 1.2l1.7 -30.8l31.9 1.2l1.6 -61.8l30.7 0.8l0.9 -31.3l-373.6 -12.9l-1.8 65.8l-187.1 -6.2l1.5 -63.3l-125.9 -1.8l0.7 -187.5l-30.6 -0l0.4 -32l-62.9 -0.2l-1.3 31.1l-175 -2l-27.3 39.6l28.7 82.9l-16.1 31.6l-63 -1.7l-2 189.1l-19 62.6z" />
  </g>
  <g data-id="157">
    <path d="m3751.6 2225.4l0 0l12.4 37.1l41 31.8l2.1 32.4l56 57.2l64.6 -6.1l20.9 9.9l26 44.2l22 -21.1l44.9 17.5l34 -12.3l102 12.9l29.6 30l48.6 -10.8l29.8 19.8l54.2 166.7l82.2 -54.7l-10.1 -30.5l39.6 17.3l63.3 -30.5l145.2 -63.1l-0 -20.4l52.1 -7l-56.1 -24.5l14.7 -74.2l47.6 -93l-8.3 -81.5l-5.9 -39.8l-32.8 -18.4l-48.2 -66.5l-163.6 -163.8l-19.6 12.8l-88.4 1.5l-62.3 9.4l-123 -108.1l-82.6 84.8l-77.4 79.3l-124.5 128l-37.4 38.3l-92.8 95.3z" />
  </g>
  <g data-id="159">
    <path d="m3656.3 4141.8l0 0l-0.6 65.2l48.2 33.7l9.5 56.7l17.8 36l-10.6 48.2l38.5 76.9l-24.4 79.9l38.7 44.8l-31.4 30.6l-1.4 56.1l18.9 25.6l-4.5 39.6l567 -100.6l16.9 -557l8.6 -102.3l-111.4 -78.2l-200.2 -152.6l-12.5 38.9l28.3 59.2l-27.2 10.3l-36.9 -44.5l1 30.9l-67 19.3l-72.6 71.4l-112.6 38.3l-12.3 45.5l-30.3 11.2l10.5 37.6l19.2 15.8l-67.2 63.3z" />
  </g>
  <g data-id="161">
    <path d="m5810.4 8142.7l0 0l0.2 223.1l47.4 -0.1l391.8 -3.1l222.4 0.4l-0.1 -94.4l1.8 -62.7l-63.3 -0.3l0 -31.5l64.1 -0.2l2.7 -220.3l183.7 1l-0.4 -316.9l-55.9 5.7l-45 -19.2l-7.4 6.7l-34.3 20.8l40.4 13.9l-23.6 15.5l-53.7 -22.8l-33.6 -8.5l-22.2 6l-1.7 7.5l-43 -3l-66.1 62.1l-103.3 32.4l-26.4 -11.6l-49.3 7l11.5 18.7l-37.2 36.8l-12.4 -13.1l-37.2 44l-70.3 40.9l-12.8 30.1l-32.7 -11.5l-40.2 36.9l-8.1 28.7l-40.9 41.2l-44.2 5.6l-0.7 134.1z" />
  </g>
  <g data-id="163">
    <path d="m6177.3 4749l0 0l33.7 63.1l16.2 1.1l-7.3 40.9l60.2 66.7l-10.5 16.6l28.4 14l13.3 33.9l88.3 44.8l12 -13.1l15 107.9l7.8 71.3l59.8 75l-31.7 210.4l10.3 28l39.5 53.5l92.3 81.6l50.6 14.9l75.2 -37.9l-42.5 -84.6l119.5 -12.7l14.3 -27.2l72.2 -31.9l8.2 10.6l52.6 -131.6l40.1 -123.4l-39.5 -312.9l21.3 -119.1l30.1 -107.9l71.7 -195.1l-13 -1.7l-22.7 -53.6l-37.8 -35.5l-59.5 -23l-11.2 -29.5l-84.3 -58.9l-25.3 -1.5l-38.8 3.6l-24.9 -3.1l-101 93.6l-81.7 62l-239.4 197.4l22.7 49.3l-9.8 80.1l-21.6 -9.3l-152.8 -7z" />
  </g>
  <g data-id="165">
    <path d="m7256 5516l0 0l6.2 17.5l130.3 372.8l171.3 140.6l120.8 -37.5l215.5 -67.6l-52.4 -34.6l-5.6 -25.3l1.5 -20l210.7 -569.9l-34.2 -47.3l-154.3 -63.4l-208 74.9l-262.1 17.4l-89 82.8l-50.8 159.6z" />
  </g>
  <g data-id="167">
    <path d="m5582.9 5686.6l0 0l-25.1 107.6l197.9 -18.6l161.6 72.5l-18.4 66l264.4 119.8l-12.4 219.9l56.1 28.3l51.8 -22.5l42.2 0.2l0.8 29.9l9.9 -58.2l26.3 19l44 -18.1l-53.3 -58.9l-9.8 -57.3l127.1 -84l46 -30.6l-12 -21.2l39.4 -22.6l12.6 21.7l61 -32.9l-55.5 -36.9l-17.3 -56.2l58.3 -64.9l37.8 -21.6l0 -23.4l39 -83.8l-50.6 -14.9l-92.3 -81.6l-39.5 -53.5l-82.9 5.7l-103.3 55.5l-120.2 37.1l-28.8 -34.5l-64.2 32l-44.7 6.7l-74.9 30.3l-11.2 -59.2l-51.5 -24.9l-8.8 -17.4l-303.3 125.8l3.9 19.8z" />
  </g>
  <g data-id="169">
    <path d="m3755 4735.3l0 0l-1.7 13.4l37.4 24.8l9 31.3l43.6 61.9l56.5 40l20.3 48.8l25.1 28l8.7 23.3l-17.7 24.5l15.1 94.8l30.2 22.7l-5.5 34.6l21.3 22l9.5 67.8l45.2 34.8l23.5 10.5l9.9 27.2l124.1 -0l43.7 56.7l28.5 -30l87.4 89.6l20.8 -8.9l223.6 -133.3l103.5 -69.8l-47.6 -179.9l-28.6 -113l-39.7 -155.3l-33.9 -200.9l-17.8 -1l-227.3 34.7l-567 100.6z" />
  </g>
  <g data-id="171">
    <path d="m2804 4986.7l0 0l-2 101.2l310.2 3.6l-2.1 143.6l145.2 1.7l21.1 -41l2.6 -202.3l3.2 -252.7l-0.3 -183.1l-172.7 -0.5l-0.4 60.7l-210.5 -1.9l-50.2 -24.2l0.1 284.5l-1.1 90.5l-43 19.8z" />
  </g>
  <g data-id="173">
    <path d="m5052.4 9863.2l0 0l-0.2 90.2l36.4 -0.2l0.3 21.5l2.1 163l286.6 6.9l32.9 79.6l13 80.7l-10.4 41.8l13.8 37.2l11.5 11.6l15.5 -36.1l74 -24.3l0.2 -770.5l-158.7 0.8l-6.7 0.3l21.1 38.5l3.7 52l-266.2 -1.2l-4.6 207.7l-64.2 0.6z" />
  </g>
  <g data-id="175">
    <path d="m4992.3 6103.5l0 0l98.7 214.9l85.1 186.1l57.8 126.8l252.8 557.9l218.3 -125.7l4.5 4.7l55.6 4.2l88.9 -88.6l99.5 -98.5l28.1 0.2l-14.3 -14.6l83.9 -83.7l-56.2 -49.3l38.1 -81l38.1 -73.5l20 -16.2l12 -48.8l-10.5 -35.1l23.8 -28.7l10.9 -43.1l47.1 1.1l34.1 -22l23.9 -67.5l-45.1 -27.6l19.6 -13.3l-56.1 -28.3l12.4 -219.9l-264.4 -119.8l18.4 -66l-161.6 -72.5l-197.9 18.6l-175.7 87.2l-389.8 222.1z" />
  </g>
  <g data-id="177">
    <path d="m2659.2 7761.3l0 0l-0.2 105.3l94.7 21.5l34.5 35.8l-1.7 21.4l37.6 34.3l-10.2 38.2l8.4 53.1l-54.5 -0.7l-15.1 102.2l-3.7 127.6l-20 -0.3l19.5 17.9l-4.5 170.2l77.1 -1.1l457.2 -2.9l30 -61.1l22.1 -4.7l12.6 -31.5l-20.3 -55.7l5.1 -16.9l-26.7 -59.9l51.9 -46.3l8.7 -47.1l35.9 -26.7l-10.8 -45.3l-34.6 -21.1l-0.9 -23l37.7 -11.7l28.6 7.5l-0.3 -38.9l20.3 -38.1l58.6 -33.2l27.1 -38l-15.8 -44.7l24.3 -69.9l-27.7 -5.4l-536.2 -7.6l-308.5 -3.2z" />
  </g>
  <g data-id="179">
    <path d="m7958.2 7513.8l0 0l-23.1 3.3l64 91.8l30.7 -7.9l67.9 28.9l3.2 81.8l-42.7 119.7l0.9 32.9l62.4 51.5l99.7 109.5l58.3 21.2l35.7 36.8l3.3 50.5l30.7 14.8l267.7 146.8l16.4 1l54.8 13.4l-4.8 37.3l25.8 47.5l45.1 46.2l34.8 -27.1l54.6 21l60.1 -27.1l47.8 17.7l53.8 -29.7l25.5 21.4l85.1 1.4l83.2 48.6l11.8 27.3l40.6 27.1l14.9 25.2l-8.9 73.9l17.3 0.2l6 19.6l9.3 11.2l12.1 -0.9l26.7 -35.8l21.8 -56.8l34.6 -73.6l3.7 -76.8l-9.8 -50.2l1.7 -21.4l9.4 -30.3l-17.3 -10.2l-20.9 1.5l-5.3 2.2l-5.7 11.2l-13.6 6.1l-52.9 -24.9l-36.2 -44.3l10.9 -16.3l-47.2 -43.4l-81.9 -25l-22.8 -32.5l4.9 -43.6l-18.9 -24.7l-70.5 11.6l-18.9 -46.9l7.9 -22.7l-25.1 -12.2l-10.7 -43.1l-24 40.8l-21.5 -14.3l-48.5 -46.8l-56.3 -218l-5.9 -18.4l-40.2 13.9l-77.6 -28l-25 -60l-15.1 19.4l-57.3 -6.4l-25.3 24.9l-88 -1.3l-30.4 -32.1l-30.9 2.7l-1.7 -50.5l-19.8 -41.3l-99.8 -123.5l-45.3 -13.7l-7.6 -26.3l-34.2 -34.3l-54.5 -2.6l-90.4 102.7l-108.4 78.4z" />
  </g>
  <g data-id="181">
    <path d="m6211.9 2588.5l0 0l0.9 8l58.6 222.8l24 83.5l60.4 -35.5l7.6 46.2l-46.8 67.7l46.1 108.1l197.6 369.8l44.7 5.2l57.3 -44.4l11.7 11.2l26.9 -39.6l128.1 -41.6l27 -25.7l67.6 -19.2l63.6 40.6l74.4 -22.1l46.2 17.7l-8.5 -7.1l-24.9 -28l-5.5 -19.3l3 -16.4l-7 -41.6l-2.7 -10.2l-12.1 -28.9l-2.8 -15.8l-16.4 -17.9l-5.8 -1.9l-3 0.5l-7.8 -4.3l-2.5 -3.8l-1.3 -5.7l-2.3 -2.5l-3.3 -2.3l-5.7 -0.7l-15.2 -10.4l-7.1 -10.2l-10 -10.1l-8.3 -5l-5.7 -0.9l-5.3 1.4l-6.9 -4.2l-2.3 -3.8l-0.4 -3.7l1.4 -23.6l-0.7 -7.8l-2 -4.3l-5.6 -5.8l-12.8 -7.5l-9.1 -8.4l-3 -5.8l-20.4 -21.6l-28 -18l-19.1 -18l-10.4 -5.4l-36.2 -15l-5.6 -3.6l-5.3 -4.5l-11.5 -13.9l-11 -8.4l-11.7 -6.9l-10.9 -4.9l-10 -10.8l-7.1 -5.4l-9.4 -2.1l-12.4 2.5l-7.6 2.8l-10.4 1.2l-13.4 -5.3l-4.2 -3.1l-15.7 -17.4l-3.9 -3l-16 -6.1l-14.7 -10.4l-9 -12l-22.1 -16.3l-21.4 -22.9l-26.9 -19.9l-6.7 -9.4l-15.7 -31.8l-8.5 -13.7l-11.1 -13.9l-24.3 -16.2l-4.7 -1l-15.5 0.3l-11.9 5.3l-7 1.5l-23.9 -7.3l-4.9 -3.9l-16.2 -26.3l-80.4 -60.8l-46.5 -6.4l-31 23.5l-12 -28.3z" />
  </g>
  <g data-id="183">
    <path d="m7608.4 8038.2l0 0l-2.1 31.6l25.1 5l36.9 8.6l14.6 61l22.4 -3.1l17 26.1l10.4 -20l23.9 23.7l-8 26.1l17.4 38.1l59.8 27.5l23.4 58.9l34.6 26.6l-3.8 26.7l45.6 9.2l9.5 29.3l21.6 -0.6l1 -30l54.9 52.5l-6.5 22.8l40.1 14.4l7.2 34.3l25.6 -3.3l65.2 39.5l14.8 25.6l43.6 27.6l0.4 58.8l57.3 17.3l13.2 20.4l86 -31.1l118 -62l155.8 -303.5l-16.4 -1l-267.7 -146.8l-30.7 -14.8l-3.3 -50.5l-35.7 -36.8l-58.3 -21.2l-99.7 -109.5l-62.4 -51.5l-0.9 -32.9l42.7 -119.7l-3.2 -81.8l-67.9 -28.9l-30.7 7.9l-64 -91.8l-63.3 65.7l-17.9 38l-27.5 12.1l-27.1 51.9l15.1 71.1l-22 57.1l-42.1 20.8l-19.7 85.4l-38.8 30.7l-30.9 74.2l-52.3 14z" />
  </g>
  <g data-id="185">
    <path d="m4450.3 10621.1l0 0l35.7 51.1l-2.3 31.8l61.3 72.8l45.9 6.7l11.1 29.1l38 -2.6l66.4 39.9l10.6 51.8l34.9 2.5l61.6 4.3l4.6 0.4l0.6 0l77.5 5.3l178.2 12.2l27.2 1.9l23.3 1.3l15 1l41.2 3.7l7.6 -404.4l15.1 -33.4l45 -1l2.4 -63.2l31.7 -3.9l0 -42.7l144.1 -1.9l-13.8 -37.2l10.4 -41.8l-13 -80.7l-32.9 -79.6l-286.6 -6.9l-2.1 -163l-0.3 -21.5l-36.4 0.2l-203.8 -4.6l-190.1 -5.2l-188.8 -6.3l15.4 8.5l9.7 55.2l43.3 51.3l29 88.8l-17.2 24.7l-5.3 83.5l46.9 37l38.1 13.4l63.5 -0.1l28 28.8l19.3 47.3l-8.9 27l-28.7 10.7l-65.3 29.2l-37.5 -8.4l-25 32.6l-50 -5.9l6.1 32l-27 64.1l5.2 31.3l-58.8 32.7z" />
  </g>
  <g data-id="187">
    <path d="m2968.2 1170.6l0 0l1.5 10.1l47.2 45.1l109.9 121.1l29.9 5.1l-11.6 13.8l264.5 120.8l125.9 -106.2l-23.6 -23.5l46 24.3l139.7 -116.3l22.2 -68.3l-23 -0.2l0.1 -23l-19.9 -0.1l-1 -1.4l-22.5 -21.9l0.2 -25.7l-0.2 -140l-26.9 -35.7l6 -115.6l22.7 -35l14.9 -85.8l-43.9 -2.8l-47.6 -22.7l-82.5 -22l-90.7 63.6l-25.4 96.2l-61.7 19l-26 73.5l-38.7 -2.4l-33.2 -34.4l-58.6 8l-55 -28.6l-27.7 11.7l-17.2 33.8l-24.6 -4.2l-64.1 116.2l-5 153.4z" />
  </g>
  <g data-id="189">
    <path d="m6215.9 3513.3l0 0l-13 23.4l88.7 259l48 141.6l65 85.1l3.6 18.5l15.9 84.7l-7.9 55.1l25.8 -11.8l52.6 38.7l127.5 3.9l81.6 51.7l57.2 19.6l24.9 3.1l38.8 -3.6l124.5 -106.3l-97.1 -127.7l9.1 -36l-58.9 -77.8l-43.2 -41.8l3.3 -26.1l-32.5 -35.9l-7.7 -61.9l36.6 -33.9l-108.9 -49.6l8.5 -48.3l40.4 -47.7l1.7 -24.7l-42.6 -26.6l-18.2 -76.1l34.3 -31l-11.7 -11.2l-57.3 44.4l-44.7 -5.2l-58.1 -51.6l-37.7 38.6l-25.2 -11.2l-14.8 26.7l-44.7 -18.5l-16.6 16.2l-21.2 -27.7l-6.5 25.2l-65.4 20.9l-12.4 32.3l14.1 18.2l-34.5 2.6l-21 -17.4z" />
  </g>
  <g data-id="191">
    <path d="m8273.4 8692.9l0 0l23 24.9l-12.4 45.3l96.8 100.3l-25.7 40.4l35.9 31.7l-7 14.2l69.2 85.8l67 35.9l-10.2 22.8l30.7 -2l3.5 21.1l60.3 30l26.2 29.9l47 9.3l34.8 32.6l31.9 -14.1l6.3 46.4l68 13.7l-18.6 31.8l22.6 -1.1l38.9 -53.9l29.8 -3.9l104.3 23.4l43.8 41.1l59.5 -5l18.8 -23.1l12.9 -28.4l-27.7 -21.5l-13.6 -5l-17.7 -0.6l7.5 -60.5l1.1 -39.5l42.4 -91.5l24.6 -45.1l88.2 -123.8l32 -75l26 -33.2l-2.2 -13.1l-6.9 -13l-24 -20l-13.6 -4.3l-29.4 23.3l-9.3 2.1l-85.8 -4.4l-9.7 -4.6l-1 -4.1l8 -38.7l12.3 -18.9l28.4 8.9l54.9 -13l21.5 -26.1l20.9 0.2l8.9 -73.9l-14.9 -25.2l-40.6 -27.1l-11.8 -27.3l-83.2 -48.6l-85.1 -1.4l-25.5 -21.4l-53.8 29.7l-47.8 -17.7l-60.1 27.1l-54.6 -21l-34.8 27.1l-45.1 -46.2l-25.8 -47.5l4.8 -37.3l-54.8 -13.4l-155.8 303.5l-118 62l-86 31.1z" />
  </g>
  <g data-id="193">
    <path d="m3257.8 6237l0 0l-0.8 21.4l94.1 0.6l10.8 -20.3l-104.1 -1.7z" />
    <path d="m2834.5 6631.3l0 0l-2.7 188.5l77 2.7l-2 158.6l80.8 3.6l99.8 4.3l-1.3 105.6l104.8 -14.6l74.7 15.4l45.3 34.5l-7.3 -19.1l38.7 -55.8l48.5 -38.5l51.3 -77.2l142 -81.8l5.7 -27.8l97.4 3l3.2 -165.8l-20.5 -0.1l0.1 -61.2l40.9 0.5l0.2 -29.2l0.6 -112.8l-20 -0.2l-1 -72.5l-53.3 -26.1l-10.4 -24.9l-49.2 -19.8l-46.9 -1.1l-17.4 34l16.3 -68.7l-19.1 14.1l-179.8 -1.8l0.7 23.5l-34.2 -1.2l-0.5 -39.9l-39.8 -21.3l-39.6 0.3l-0.3 19.2l-81.7 0.1l-23.3 20.4l-158.6 261.3l-94.3 -0.5l-24.1 13.6l-0.6 58.5z" />
  </g>
  <g data-id="195">
    <path d="m4623.1 2047.9l0 0l48.2 66.5l32.8 18.4l5.9 39.8l8.3 81.5l-47.6 93l-14.7 74.2l56.1 24.5l83.5 36.8l54.4 45.4l64.8 4.4l10.6 18.3l44.9 -36.6l34.2 33.1l57.9 -25.2l60.6 -60.9l84.8 -33l48.1 57.7l21.8 -19.8l87.5 42.6l42 -38.4l57.3 0.2l53.1 -31.2l-31.8 -55.3l-93.7 -86.4l10.7 -35.9l-35.5 -19.7l-41.2 -85.5l-56.7 -17.4l-16.7 -28.9l14.7 -74.7l36.7 -53.6l-79.4 -97.8l5.2 -29l-124.6 88.9l-63.1 -24.9l-76 5.4l-71.5 -6.8l-50.9 -39.8l-33.8 13.6l-87.8 90l-37.9 45.1l-61.1 21.6z" />
  </g>
  <g data-id="197">
    <path d="m1989.3 6325.8l0 0l-3.3 651.2l20.2 -0.3l60.2 -0.3l41.8 56.6l0.9 47.8l75.5 2.8l-0.8 36.5l39.9 -0.2l-0.9 40.1l39.2 19.6l0.6 41.1l201.3 1.2l2.1 -79.8l20.4 -20.1l0.9 -43l-20.5 -6.1l0.8 -94.3l40 0.7l0.7 -143l-6.7 -20.1l49.1 0.7l-5 -290.2l0.4 -53l-34.5 -21.4l1.6 -102.8l-54.2 -19.8l0.2 -63.3l-41.2 -38.9l18.5 -69.1l-100.1 0.3l0.6 34l-27.4 16.2l-96.8 -2.2l-6 -15l-25.6 21.6l9.7 29.9l-49.2 12.7l-42.1 -30l-34.8 13l-33.2 -12.6l-1.9 99.6l-40.1 -0.2z" />
  </g>
  <g data-id="199">
    <path d="m1555.3 5076.4l0 0l-0.8 63.7l6.2 23.3l-0.5 220.8l29.8 10.3l202 -2.1l30.3 28.3l76.3 33.1l272.6 -1.3l133.9 -91.5l-2.7 -53.9l-38.7 -25.3l16.5 -87.1l-29 -51.7l11.6 -3.9l-0.3 -73.2l-20.3 -24l-0.3 -68.5l19.7 -18.6l5.1 -85.9l28.7 -18.9l-14.1 -90.5l14.4 -9.4l-8.5 -55.1l16.7 -68.7l22.3 -21.6l13.1 -34.4l-24.8 -58.9l-250.6 -2.7l-62.3 -18.4l-48.6 16.9l-253.3 -1.5l-119.8 -0.6l-21 81.3l-3.7 489.9z" />
  </g>
  <g data-id="201">
    <path d="m1443.4 9387.9l0 0l-10.5 449.8l402.1 8.3l178.5 2.9l2.3 -28.2l214.1 1.2l11.7 -433.9l-219.5 -7.5l-14.3 5.7l-72.9 -1.3l-23.1 13.5l-468.4 -10.6z" />
  </g>
  <g data-id="205">
    <path d="m2305.3 9713.6l0 0l-2.7 109.9l275.9 -1.2l545.6 2.2l226.6 2l10.6 -0.3l0.9 -61.4l-22.4 -0.2l22.8 -23.2l7.4 -547.5l3.4 -267.5l-247.9 2.6l-45.9 0l-7 6.1l-25.5 65.1l-50.1 7.5l2.6 31.1l-39.2 13.4l-13.6 91l-50.6 -1.2l-17.1 35.9l-45.6 14l-26.1 -14.4l-5.7 21.7l-90.2 25.7l-58 42.2l11.1 33.3l-10.9 31.6l-40 48.4l-14.4 47.2l-57.4 24.7l-31.7 48.2l9.9 26.8l-16.4 22.1l-16.8 -18.3l-84.7 77.1l-97.1 105.2z" />
  </g>
  <g data-id="207">
    <path d="m3110.1 5235.1l0 0l-2 206.5l306.1 1.6l21.2 -20.5l-0.2 20.7l70.2 0.7l90.3 0.6l40.2 -27.8l18.7 -13l289.6 -200.5l-17.3 -18.7l49.2 -1l5.5 -34.6l-30.2 -22.7l-15.1 -94.8l17.7 -24.5l-8.7 -23.3l-25.1 -28l-20.3 -48.8l-56.5 -40l-43.6 -61.9l-9 -31.3l-37.4 -24.8l1.7 -13.4l4.5 -39.6l-18.9 -25.6l1.4 -56.1l-42.7 -41.5l-34.9 -9.3l-382.5 -5.4l0.3 183.1l-3.2 252.7l-2.6 202.3l-21.1 41l-145.2 -1.7z" />
  </g>
  <g data-id="209">
    <path d="m6203.8 6782.7l0 0l-13 33.7l21.5 4.4l-13.2 22.6l31.3 43.6l-25 61.2l29.3 26.6l-2.4 32.9l21.8 36l-14.7 25.7l12.1 63.7l28.7 20.9l-1.5 28.8l-26.4 42.7l5.4 47.1l25.7 61l-22.9 19.1l28.7 20.2l-10.8 31.3l24.6 34.9l-11.4 35.9l19.9 4l0.8 40.6l105.2 80.2l17.6 37.1l-9.4 19l22.2 -6l33.6 8.5l53.7 22.8l23.6 -15.5l-40.4 -13.9l34.3 -20.8l88.2 -617l4.5 -186.6l62.7 -150.4l-504.1 105.8z" />
  </g>
  <g data-id="211">
    <path d="m4038.7 3566.5l0 0l-13.6 21.1l20.4 43.8l-9.5 113.2l200.2 152.6l111.4 78.2l532.7 -123.2l6.6 -27.1l-14.9 -30.3l13.3 -53.9l17.6 -14.1l-36.5 -23.8l-50.9 -51.1l-32.5 -53.5l-43.1 -41.1l-26.6 -55l-23 -84.7l-28.3 -26.9l-22.9 -60.4l-23.7 -19.7l-40.1 -44.7l-42 -16.6l-34.7 -130.1l-44.7 -79.4l-47.7 -30.8l-42.9 54.7l-17.4 36.8l-176.7 269l-130.2 196.7z" />
  </g>
  <g data-id="213">
    <path d="m1417.7 830.4l0 0l-31.1 -9l36.8 35.2l28.4 80.5l10.9 46.8l93.1 0.1l129.5 18.8l47.3 0.2l27.4 -18.2l42.9 11.7l0.9 -28.4l63.2 -2.1l2.5 45.3l-35.5 -19.5l0.1 36l53.9 0.4l49.5 38.6l57.6 0.4l-5.4 -371.8l45 -110.6l-12.2 -13.3l29.6 -18.7l36.9 -15.9l57.6 -87.4l-76.3 -77.4l-8.6 -4.4l2.7 -335.8l-7.2 0.9l-215.1 -0.1l-7.5 -0.2l-94.1 0.7l-67.7 0.5l-2.2 0.1l-2.7 -0.1l-6.9 40.3l-45 74.4l-15.7 63.2l39.1 42.6l-19.4 10.7l30.7 52.1l-14.3 38.9l-36 3.1l-13.2 73.6l-29.4 45.1l7.4 17.8l44.7 16l-51.8 42.3l-24 -12.1l13.2 75.2l29 27.7l-7.1 31.1l-30.8 12.1l33.7 18.8l-18.5 43.8l-37.7 -18.8l-15.9 24.4l-72.3 -27.5l-18.5 23.4l95.6 72.5l-0.3 24.7l-28.3 7.9l-18 -40.1l-40.6 13.9z" />
  </g>
  <g data-id="215">
    <path d="m1102.9 6044l0 0l25.2 70l69.7 67.9l25.1 24.5l32.3 47.4l7.1 34.3l1.9 9.2l0.3 1.5l14.6 70.7l1.1 5.3l-0.2 54.7l49.3 25.9l17.6 50.5l-24.6 18.9l-4 60l-8.5 22.2l38.4 19.3l55.6 -12.8l91 -53.6l22.7 -24l70.4 -10.4l8.4 3.4l14.4 0l5.5 4.1l1.8 -5.3l16.8 2.4l7.5 -3.1l8 3l27.1 -16.9l27.4 14.3l30 -27.7l21.5 10.9l92.6 -216.8l62.4 -27.3l30.5 -31.9l1.1 -10.6l25.2 -70.1l-57.1 0.6l0.1 -50.4l-96.2 1.4l-267.8 0.2l-68.6 -0.3l-15 -0.1l0.4 -60.2l-10.7 -0.1l-49.8 -0.2l-95 0l-205.5 -1.1z" />
  </g>
  <g data-id="217">
    <path d="m3275.5 3745.7l0 0l-20.8 27.4l26.2 -9.2l21.8 52l71.6 9.6l48.2 26.3l58.6 4.8l50.3 78.4l-2.9 16.1l24.4 66.7l36.1 52.7l64.9 50.3l2.3 21.2l67.2 -63.3l-19.2 -15.8l-10.5 -37.6l30.3 -11.2l12.3 -45.5l112.6 -38.3l72.6 -71.4l67 -19.3l-1 -30.9l36.9 44.5l27.2 -10.3l-28.3 -59.2l12.5 -38.9l9.5 -113.2l-20.4 -43.8l13.6 -21.1l-38.9 -31.6l16.5 -19l-89.8 -72.2l-50.2 -1.8l-68 -51.2l-204.5 -153.8l-56 -41.9l2.8 80.7l-24.3 4.3l9.5 47l-22.5 102.5l-0.7 1l-42.1 55.7l-48.9 65l-28.8 38.4l-45.8 60.9l-8.7 11.4l-36.7 49.4l-26 34.3z" />
  </g>
  <g data-id="219">
    <path d="m4109.7 2785.8l0 0l17.2 -5.3l17.3 54.2l98.3 7.7l-7.5 41l26.6 47.1l87.9 59.2l56.3 19.8l47.7 30.8l44.7 79.4l34.7 130.1l42 16.6l40.1 44.7l240.8 -90.9l-12.5 -12l35.8 -57.3l-1.2 -54.7l-53.9 -70.8l64.4 -92.3l-104 -17.9l-4.3 -35l-70.2 -19.3l-33 -35.1l-2.1 -0.8l-10 -19.3l-47.6 -38l-35.2 -34.5l-28.3 10.9l-118.1 -24.6l-34.9 3.2l-61 -87.8l-61.5 39.9l-8.6 5.6l-160 105.6z" />
  </g>
  <g data-id="221">
    <path d="m4824.2 3025.3l0 0l53.9 70.8l1.2 54.7l339.2 158.9l146.1 -42.2l71.1 61.7l41.3 -6.2l5.2 -20l92.5 -80.3l-22.7 -46.2l-57.5 -73.4l2 -11.9l21 -42.8l30.9 -21.9l40 -95.4l43 -20.2l20.6 -51.8l46.6 -48.7l32.5 -63.9l39.5 -14.4l19 -33.4l44.9 -0.7l66.9 -22.6l29.3 -53.9l-94.6 -33.6l-26.2 -20.8l-10.8 21.6l-46.4 1l-35.2 -41.7l-128.4 -37.5l-2.6 -32.6l-68.8 -38.9l-53.1 31.2l-57.3 -0.2l-42 38.4l-87.5 -42.6l-21.8 19.8l-48.1 -57.7l-84.8 33l-60.6 60.9l-57.9 25.2l-34.2 -33.1l-44.9 36.6l-22.2 -3.8l5.8 76.7l-26.1 47l6.8 24.1l72.5 95.5l-5 9.9l-68.6 132.9l-64.4 92.3z" />
  </g>
  <g data-id="223">
    <path d="m1165.5 2668.3l0 0l-1 121.8l28.6 0.4l-2.1 190.3l-0.5 43.2l215.1 54l70.8 24.9l47.3 15l97.5 -3.2l14.9 -7.1l54 -2.7l13.1 -8.4l54.8 -9.2l54.7 -2.1l22 -2.1l14.4 -0.1l-0 -44.4l-1.9 -35.1l0.2 -18.9l1.5 -192.2l2.1 -110.7l-34.4 -0.6l1.5 -208.5l1 -69.5l1.3 -55.7l-6.1 -7.5l-248.4 -0.5l-79.3 0.2l-54.4 0l-12.6 27.4l-104.8 304.6l-149.3 -3.1z" />
  </g>
  <g data-id="225">
    <path d="m3334.1 6283.9l0 0l-3.2 13.3l179.8 1.8l19.1 -14.1l-16.3 68.7l17.4 -34l46.9 1.1l49.2 19.8l10.4 24.9l53.3 26.1l62 71.2l40.7 -17.7l0 -123.3l22.1 -40.5l19.3 18.2l60.9 0.7l0.7 -72l53.6 32.4l6.9 -26.5l1.4 -159.5l1.2 -97.6l-19.2 -41l39.1 0.3l0.5 -59l16.4 -41.5l-137.5 -2.6l-243.5 198.2l-131.6 108.3l0.3 42.2l-19.9 -25.9l-102.1 82.5l-10.8 20.3l-17 25z" />
  </g>
  <g data-id="227">
    <path d="m1995.5 1154.2l0 0l2.3 218.4l18.6 18.9l-19.5 0l1.1 109.9l147.8 1l0.4 78.1l294.5 2.8l0.4 -19.8l36.9 2.9l26.4 16.6l23.5 18.5l18.2 -18.9l282.4 -0.8l1.5 -215.4l-131.8 -5.6l-54.5 -205.2l0.2 -36.5l-54.4 -0.5l0.3 36.7l-138.3 -2.2l-64.3 -1.6l-0.3 -34.5l-37.4 0.6l19 33.5l-54.7 -0.9l0.4 -33.7l-39.4 33.7l-279.1 3.9z" />
  </g>
  <g data-id="229">
    <path d="m6690.8 8992l0 0l-0.3 29.8l31.2 0.4l0 34.3l-30.3 0l-0 29.5l30.1 0.2l-0 33.9l27.7 0.2l-1.6 133.1l13.7 48.1l19.1 2.4l34.8 65.4l74.6 62.1l15.6 30.2l64 3.7l33.5 18.4l88.8 -8.7l69.4 45.1l44.1 -38l20 3.3l34.1 -26.1l1.9 -62.6l26.7 -6.7l68.7 -53l62.9 1l38.1 12.6l62.4 -18.9l32.3 4.4l20.2 -28.5l10.6 -47.4l-26.8 -7.4l-32.2 -40.4l-43.3 -87l-0.6 -26.7l-34.4 -87l10 -111.8l-22.3 -29l-56.9 -33.6l-88.7 21.5l-46.8 0.4l-134.3 -117.1l-15.8 -29.5l-26.6 0.3l0.9 31.8l-35.9 0.6l0.2 29.5l-28.9 -0.7l-0.2 32.1l-64.6 -1.3l-0.4 62.4l-30.2 -0.3l-0.2 26.6l-31.3 0.1l-1 37l-30.4 0.7l0.3 28.6l-118.9 -0.4l-0.6 32l-32.4 0.4z" />
  </g>
  <g data-id="231">
    <path d="m2241.9 4973.5l0 0l0.3 68.5l20.3 24l0.3 73.2l44.7 -5l33 -52.4l461.5 6.2l2 -101.2l43 -19.8l1.1 -90.5l-0.1 -284.5l-42.3 -0.5l-221.1 -1l1.1 -26.9l-43 0.2l0.3 -20.2l-121.5 -1.4l-8.3 15.7l-42.3 5l-12.3 30.5l-32.5 11.5l-22.3 21.6l-16.7 68.7l8.5 55.1l-14.4 9.4l14.1 90.5l-28.7 18.9l-5.1 85.9l-19.7 18.6z" />
  </g>
  <g data-id="233">
    <path d="m384.7 2343.8l0 0l3.4 21.6l28.3 177.2l1.7 5.6l14.9 91l25.9 157.9l364.6 6.3l0 -17.9l341 4.6l1 -121.8l149.3 3.1l104.8 -304.6l12.6 -27.4l-260.9 -1l0.4 -34.3l-157.6 -0.9l-1.1 34.5l-73.6 -0.8l0.3 -35l-110.6 -0.9l-99.9 -7.7l-0.9 54.6l-53 -0.7l-290.8 -3.6z" />
  </g>
  <g data-id="235">
    <path d="m4175.8 6838.7l0 0l19.3 0.3l-4.5 421.7l362.9 2.9l0.1 -20.3l40 0.6l0.2 -19.6l40.8 1.2l75.3 21l22.4 28.4l-18.7 16.1l46.3 0.6l59.6 -49.1l8.9 -18.6l-42.2 -42.6l70.7 -70.6l-173.8 -175.9l57.5 -56.5l-44.6 -40.8l-273.4 -280.2l-10.6 31.2l-42.8 -32.6l-117.4 164l-75.9 118.6z" />
  </g>
  <g data-id="237">
    <path d="m4339 4077.7l0 0l-16.9 557l227.3 -34.7l17.8 1l22.1 19.8l56.8 -15.2l58.6 36.4l1 -28l66.9 31.6l26 -39l59.3 -18.2l34.6 7.9l45.6 -127.5l-4.1 -13.8l1.9 -39.5l52 6.3l-2.8 -48.4l108.3 -40.2l68.4 -45.2l3.6 -74.9l-42.2 -38.1l-12.1 -39.3l-58.6 -62l-56 37.4l25 -50.2l-30.2 -10.3l-36 13.2l9.4 -48.1l-48.7 -63.7l11 -32.7l-36.1 -18.7l-10.6 -48.6l-532.7 123.2l-8.6 102.3z" />
  </g>
  <g data-id="239">
    <path d="m972.4 7951.5l0 0l22.2 59.3l-11.1 64.9l5.7 21.3l125.7 22l99.5 -18.3l142.5 2.5l101.4 2.5l7 -364.8l-21.4 -21.3l-39.7 -1.7l0.8 -20l-40.9 -1l-39.5 -19.7l0.8 -22.5l41.3 -18.5l-184.7 -22l0.2 -22.5l-44.6 -17.6l-25.5 69.3l-14.3 47.5l-79.3 127.1l-20.8 24.1l-25.2 109.4z" />
  </g>
  <g data-id="241">
    <path d="m4090 312l0 0l-11 78.3l19.9 64.3l82.1 2.5l24.2 -11.8l30.8 16.9l22.4 62.6l41.2 26.7l-11.7 10.1l27.8 80.9l76 45.4l19.5 -6.7l52.2 26.4l49 -22.2l50.5 -37.6l57.8 47.1l34.2 -21.6l73.2 54.3l-1.6 -32l9.3 -21.8l21.3 -13l39 -44.2l-2 -14.7l2.2 -21.3l-8.2 -40.9l21.2 -26.1l21.3 -6.4l5.2 -4.1l-0.6 -11.9l-3.1 -6.1l0 -2.9l1.2 -2.6l2.2 -2.3l4.1 -0.3l4.6 0l6.2 -1.2l6.2 -10.5l0.4 -9.4l2.5 -5l10.7 3.7l3.5 4.4l15.7 11.4l9.3 -4l6.4 -7.5l1.8 -29l-5.6 -11.4l4.9 -20.7l6.6 -2.8l4.9 0l4.9 2l3.6 1.6l5.1 -1.6l2.3 -2.1l1.8 -4.2l2.5 -13.9l5.3 -6.5l5.9 -6.2l0.4 -11.9l3 -6.2l10 -3.1l5.1 -7.8l-0.3 -7.9l-1.1 -7.1l3.3 -3.6l10.8 -2.5l6.6 -4.7l19.2 4.6l14.2 -12l7.6 6.4l8.5 0.4l9.3 -11.5l-7.1 -14.4l2.6 -8.8l12 -3.4l6 -7.2l9.2 -0.2l8.1 -4.1l11.9 -13.2l4.1 -9.1l10.3 -6.8l6.9 -8.5l4.7 -9.3l7.4 -2.5l8.6 1.5l6.1 -4.7l4.5 -10.7l5.5 -5.2l6.9 -2.2l14 6.3l5.5 -0.4l21.1 -15.4l1.4 -3.6l-1 -7.2l1.8 -5.7l3 -1.8l6.1 2.7l5.4 -2.6l3.1 -2.7l1.3 -5.5l-1.5 -3.6l-3.6 -4.7l-8 -10.8l-0.6 -12.9l5.6 -3.7l6.8 -9.5l-1.4 -11.9l3 -12.3l17.6 -19.2l4.2 -12.1l6.4 -5.3l5.2 -16.9l-0.2 -8.8l-2 -9.1l-6.5 -11.1l-0 0l-171.7 3.1l-277.8 9.2l-336.2 6.1l-139.4 2.5l5.2 117.8l-114.8 20.9l5.4 65.5l-58.5 7.4l-7.8 39.4l-30.7 7.9l-23.5 32.3z" />
  </g>
  <g data-id="243">
    <path d="m1356.9 8103.1l0 0l-1.4 159.1l20.9 -0.1l-0.8 82.6l39.4 18.8l-0.7 41.6l-23.4 -0.3l0.3 90.9l261.3 -2.7l338.6 -0.5l15.2 -58.4l56.8 14.4l-0.6 23.1l32.7 0.5l20.5 -23.1l-0.5 40.1l22.9 0.5l17.9 -39.7l-0.1 39.8l19.3 -18.6l46.1 18.3l22.5 -63.4l1.5 -72.9l-24 -88.6l-29.5 -50.2l-19.8 -68.9l14.4 -24.1l-83.2 -3.9l6.9 -366.1l-117.6 -0.3l-42 -0.6l0.1 -20.2l-20.4 20.7l-464.9 -10.3l-7 364.8l-101.4 -2.5z" />
  </g>
  <g data-id="245">
    <path d="m6824.6 4282.4l0 0l25.3 1.5l84.3 58.9l11.2 29.5l59.5 23l195.9 -73.7l19.2 1.9l9.9 17.7l32.1 17.3l23.7 15.5l17.7 65.8l50.8 44.7l27.2 4l59 -30.9l31.4 15.5l138.3 23.1l93.7 -64.7l101.8 -22.3l71.5 36.3l-0.3 -0.4l-2.1 -8l12.2 -39.2l10.1 -0.6l5.1 -1.1l3.7 -5.2l0.2 -9.7l-12.1 -14.2l-16.4 -12.3l-19.9 -6.8l-4 -6.5l3.6 -22.8l8.8 -4l9.2 -0.3l2.7 2.8l4.2 -2.5l7.3 -10.8l-2.4 -7.4l-13.3 -8.9l-30 -9.3l-5.2 2.8l-11.3 13.8l-17.4 -7.5l-5.2 -16.3l-22.4 -13.5l0.6 -5.3l0.3 -8l-2.6 -5.1l-4.4 -3.6l-4.9 2.2l-3.2 7.5l-4.9 7.8l-6 0l-2.2 -3l-1.9 -5.6l-4.3 -4.8l-10.5 -8.3l-1.7 -4l2.4 -18l-14.2 -9.4l-16.8 4.5l-9.4 -0.3l-5.2 -3.3l-0.2 -7l4 -4.9l4.8 -5.9l1.7 -10.1l-20.8 -20.1l-4.2 -8.3l0.8 -8.3l5.5 -4.3l8.6 -0.5l10.5 9l8.4 1.9l10.3 -7.5l1.9 -7.5l-12.6 -14.9l-9.6 -44.7l-3.9 -8.6l0.7 -7.4l4.3 -4.5l9.3 -2l15.7 -3.7l6.2 -6.3l1.9 -6l-0.2 -6.3l-3.6 -4.5l-8 -4.7l-4.9 -8.9l0.9 -9.4l3.8 -6.8l9 -4.3l9.4 -5.4l6 -10.8l-0.2 -5.6l-0.2 -4.1l-15.3 -27.1l-10.7 -25.5l-0.8 -1.9l-6.5 -7.3l-9.9 -6.3l-16 -4.3l-9.9 -4.3l-18.7 -9.7l-24.5 -12.7l-13.6 -5l-14.9 -3.5l-11.1 -6.3l-7.1 -8.8l-3.4 -10.6l1.2 -16.4l-3.3 -9.3l-19.7 -39.5l-6.3 -4.5l-5.9 -2.3l-1 -1.3l-5 -17.9l-3.1 -3.3l-1 -0.5l-16.5 -7.9l-7.6 -7.3l0 -7l-10.1 -10.6l-53.5 43.4l-35.6 29.2l-79.3 69.5l-42.6 36.6l-323.4 279.7l-23.8 20.3l-124.5 106.3z" />
  </g>
  <g data-id="247">
    <path d="m2982.4 3442.4l0 0l5.4 42.8l21.2 23.2l98.5 148.2l56.9 2.8l35.4 13.8l64.8 33.9l11 38.5l26 -34.3l36.7 -49.4l8.7 -11.4l45.8 -60.9l28.8 -38.4l48.9 -65l42.1 -55.7l0.7 -1l22.5 -102.5l-9.5 -47l24.3 -4.3l-2.8 -80.7l-1.7 -1.3l-139.4 -104.4l-77.1 74.3l-10.3 9.6l-69.1 66.1l-13.6 31.5l-23.7 53.9l-0.1 0.3l-62.7 142.7l-24 53.8l-28.2 -42.1l-44.8 -18.2l-40.7 -1.8l-29.7 -17.3z" />
  </g>
  <g data-id="249">
    <path d="m2486.3 7122.1l0 0l-20.4 20.1l315.5 6.2l40.9 -5.7l87 16.8l74.3 2l4 -176.6l-80.8 -3.6l2 -158.6l-77 -2.7l2.7 -188.5l-145.2 -1l1 -63.1l-83.7 0.5l1.7 -75.6l-40.7 0l-22 34.8l5 290.2l-49.1 -0.7l6.7 20.1l-0.7 143l-40 -0.7l-0.8 94.3l20.5 6.1l-0.9 43z" />
  </g>
  <g data-id="251">
    <path d="m7843.7 5861.9l0 0l-1.5 20l5.6 25.3l52.4 34.6l15 -10.7l70 29.6l14 32.4l43.5 54.3l39.6 11.8l45.3 63.5l49.7 25.8l40.6 49.4l13.5 -7.3l55.4 23l17.3 30.6l19.3 -12l21.5 20.7l74.9 43.8l-4.4 -4.2l19.2 -9.4l16.1 -1.2l64.4 57.9l19.8 -49.2l313.3 -214.9l-0.2 -0.1l-9.5 -17.2l-6.8 -8.1l-16 -14l-15.1 -17.9l-14.2 -27.4l0.5 -13.2l3 -3.6l4.7 -3.2l2.8 0.2l4 11.1l2.7 3.8l2 0.7l4.3 -1.6l9.3 -11.1l0.2 -2l-3.2 -3.1l-1.8 -11l3.2 -1.8l18.9 -15.4l3.3 -4.9l-1.6 -4.9l-9.4 -7l-14.6 -0.5l-4 -10l-0.2 -2.6l1.4 -2.4l5 -13.2l6.8 -24.2l-0.5 -6.6l-14.8 -36.8l-2.2 -0.9l-1.3 0.2l-1.6 1l-0.9 2l-0.9 2l-3.1 1.2l-28.6 -20.5l-1.6 -2.6l13.3 -25.1l1.4 -20.6l4.1 -30.8l12.3 -16.2l2.4 -2.6l1.5 -3.9l0.6 -3.9l0.6 -3.5l-0.6 -3.2l-1.8 -3.5l-3 -2.1l-5.3 -1.8l-1.8 -3.9l-1.2 -4.6l0.6 -6l2.7 -7.7l-2.7 -6.3l-2.4 -6l-5.3 -7l-4.7 -3.9l-5.5 -2.5l-2.5 -0.7l-0.6 -1.8l0 -3.2l0.9 -2.1l0.9 -1.8l1.9 -2l4.3 -1.5l3 -3.5l0.3 -3.2l0.3 -2.5l-0.3 -2.8l-2.1 -3.2l-4.4 -2.1l-4.7 -3.2l-3.8 -4.2l-1.5 -6l2.1 -5.3l6.4 -6.8l-0.5 -9.6l0.8 -19.2l2.3 -21.6l8.4 -8l2.6 -4.8l1.1 -6.3l-5.5 -32.5l-2.1 -9.9l-10.2 -14l-34 -23.3l-1.9 -1.3l-2.7 -0.8l-9.5 4.6l-3.8 3l-2.9 -0.1l-2.9 -4.5l-4.3 -10.9l6.2 -13.8l3.5 -22.4l-3.2 -10.9l-2.2 -2.8l-29.6 -6.5l-4.9 1l-11.6 -3.4l-7.4 -8.6l4.9 -16l11.3 -7.4l1.8 -0.2l13 -13.7l1.2 -4.5l-3.9 -5.2l-6.4 -3l-21.4 -11.4l-1.7 -19.5l-6.7 -20.9l-25 -24.5l-9.9 -2.5l-5.5 -6.8l-0.6 -8.3l6.6 -12.6l0.3 -3.2l-9.6 -7.8l-6.4 -7.8l-2.3 -7l-0.6 -4.5l-0.2 -3.5l0.2 -3l1.5 -2.2l0.6 -2.5l0.6 -2.7l1.5 -2.7l2.5 -1.5l4 0.2l4.1 0.1l3.2 -2.3l0.8 -2.4l9.9 -35.6l6.9 -41.1l0.5 -6l-0.5 -25.7l-1.8 -3.2l-20.5 -14.4l-19.3 -31.7l-4.2 -1.9l-13.4 -1.6l-40.2 -25l-2.7 -3.6l-4.2 -10.6l-0.9 -1l-472.3 339.9l-210.7 569.9z" />
  </g>
  <g data-id="253">
    <path d="m1220.6 9830.6l0 0l25.6 53.8l20.8 118.8l-2.1 10.7l1.3 0l0.1 8.8l-1.7 24.9l-7.1 17.4l0 6.8l1.7 5.7l2.3 3l8.6 5.6l0.2 -0.7l4.6 0.7l20.2 5.9l6.7 3.2l4.8 4.7l5 10.5l1 5.6l0 10.5l-5.5 19.1l-1.7 10.5l-1.3 13.7l1 5.4l5.2 5.1l11.3 4.6l8.8 6.4l3.4 15.2l5.7 11.5l22.2 23.7l8 13l5.7 12l14.9 21.8l2.5 2l2.8 2.3l4 2.7l2.6 2.3l3 5.4l-0.3 9.2l-4.3 6.9l-1.6 6.9l1.3 6.2l4.3 7.3l2.3 5l1.3 5.4l-1.3 6.5l-1.6 5.4l0.3 10l4.3 6.9l6.6 6.5l2.6 5l1 6.2l0 4.2l-2.3 5.4l-5.3 6.9l-4.6 8.5l-2.3 7.7l-0.7 15.4l-1 9.6l1.3 8.5l9.4 16.4l5.5 13.2l0.8 5.6l-2.3 13.4l1.5 10.3l3.4 7.1l18.3 29.6l1.3 5.4l-1.3 9.3l-4.4 14.9l10.7 11.7l1.5 18.6l1.7 3.2l5 2.7l10.1 1.5l6.7 -2.9l6.1 -0.2l5.5 1.2l3.1 2l18 21.5l4.8 16.6l2.9 5.9l17.6 12.5l16 -47.2l37.8 -62l75.6 -22.5l27.1 -48.9l29.8 -0.2l3.1 -54l34.4 -33l-1.3 -96.1l28.9 -45.3l5.9 -358.1l44.8 -21.7l1.6 -46.8l-402.1 -8.3l-212.3 -7.1z" />
  </g>
  <g data-id="255">
    <path d="m2302.8 4442.4l0 0l11.8 69.2l24.8 58.9l-13.1 34.4l32.5 -11.5l12.3 -30.5l42.3 -5l8.3 -15.7l121.5 1.4l-0.3 20.2l43 -0.2l-1.1 26.9l221.1 1l42.3 0.5l50.2 24.2l210.5 1.9l0.4 -60.7l2.4 -125.1l42.1 -49.3l28.5 -33.5l-28.5 -31.5l-101.4 -37.1l0.7 -56.9l-138 -0.5l-65 -0.4l-3.9 -41.6l-220.9 0.1l-70.8 0.1l10.7 30.8l-20.8 78.7l-54.2 38.2l-29.6 93.3l-135.6 -2.3l-21.9 22.1z" />
  </g>
  <g data-id="257">
    <path d="m4502.8 1326.9l0 0l96.9 33.4l31.9 18.2l53.2 -23.8l409.7 -17.3l155.9 -151.8l-0.9 -9l-39.7 -50.9l-9 -4.8l-5.2 0.8l-21.4 -16.1l-26.7 -26.3l-4.2 -25.2l-28.8 -7.1l-4.2 -3.6l-1.5 -16.3l2.1 -8.2l0.9 -4.7l-0.9 -4l-7.2 -4.4l-12.6 -2.2l-36.8 5.2l-5.9 -6.1l-24.8 -6.4l-20.6 2.4l-21.8 -3.4l-24.3 -17.1l5.7 -16.1l0 -0.5l-8.2 -4.6l-7.8 -13.8l-14.7 -15.3l-14.7 -6.6l-20.4 -4.1l-12.5 -7.5l-18.1 -15.4l-13.2 -8.4l-16.7 -21.1l-1.3 -10.5l-6.6 -7.6l-9 -1.8l-11.5 3.4l-4.2 -0.9l-4.5 -13.9l-1.9 -3.1l-4.2 -4l-8.1 -5l-10.4 -4.7l-12.4 2.1l-5.2 -3.7l-0.7 -4.6l-0.6 -7.3l-54 29l-198.8 494.9z" />
  </g>
  <g data-id="259">
    <path d="m1157.2 7520.6l0 0l-19.7 53.6l44.6 17.6l-0.2 22.5l184.7 22l-41.3 18.5l-0.8 22.5l39.5 19.7l40.9 1l-0.8 20l39.7 1.7l21.4 21.3l464.9 10.3l20.4 -20.7l-0.1 20.2l42 0.6l1.7 -102l20.3 0.1l1.2 -56.5l-21.8 -0.1l2.2 -109.2l20.4 -1l4.2 -325.3l23.7 -59.3l-19.3 -102.2l-18.9 0.2l0 -19.4l-20.2 0.3l-301.4 5l-0 24.6l-24.1 -0.2l0.2 -24.3l-225.6 0l-7.6 21.6l-89 6.9l-25 30l30.9 9.2l6.1 12.2l-104 45l-99.7 110.3l24.5 120.5l-4.8 61.8l-9.4 121.2z" />
  </g>
  <g data-id="261">
    <path d="m2437.5 7630.8l0 0l-0 3.8l7.2 19.4l119.6 105.6l54 78.6l40.7 28.6l0.2 -105.3l308.5 3.2l536.2 7.6l27.7 5.4l7.1 -33.2l-12.1 -60.9l-53.5 -122.4l0.2 -45l-23 -37.7l-16.6 -19.7l-23.5 -15.7l-13.3 -63.8l25 -53.3l-48.2 -20.5l-29.7 -47.3l7.2 -24.5l-52.4 -58.6l12.4 -44.8l-45.3 -34.5l-74.7 -15.4l-104.8 14.6l1.3 -105.6l-99.8 -4.3l-4 176.6l-74.3 -2l-87 -16.8l-40.9 5.7l-315.5 -6.2l-2.1 79.8l-3.8 228.1l-22.6 180.6z" />
  </g>
  <g data-id="263">
    <path d="m1893.1 5813.1l0 0l0.1 36.2l19.4 0.4l-1.5 254.5l-0.1 50.4l57.1 -0.6l-25.2 70.1l-1.1 10.6l-30.5 31.9l33.5 -0.3l86.6 -39.8l33.2 12.6l34.8 -13l42.1 30l49.2 -12.7l-9.7 -29.9l25.6 -21.6l6 15l96.8 2.2l27.4 -16.2l-0.6 -34l100.1 -0.3l74.5 0.4l1 -121l62.9 -53.1l29.8 -118.6l53.2 0.8l2 -103.8l32.9 -1.3l38.1 -31.3l32.3 -6.1l5.2 -28.6l-34.8 -34.5l-28.3 14.6l-47.9 -15.4l-21.7 -50l-16.4 20.2l-48.5 -13.7l-22.3 -19.4l-22.5 -72.6l-39.4 -55.9l-28.6 0.9l-17.9 32.1l-30.6 -11.7l-21 -57.8l-28.5 2.3l-17.4 -25.5l28.7 -35l-65.9 -13.7l-133.9 91.5l-272.6 1.3l17 38.1l-1.3 226.1l21.4 21.1l-21.8 19.2l-0.4 36.3l-20.5 18.4z" />
  </g>
  <g data-id="265">
    <path d="m5488.9 3550.5l0 0l-50.7 57.7l58.8 151.2l0.9 76.8l-57.2 52l61.3 54.1l68.1 -10.3l24.3 22.9l79.5 9.8l61.3 -19.2l43.3 7.2l-30.7 -58l91.2 -94.3l16.4 -42.9l58.2 26.3l84.5 -2.5l15.1 -42.6l37.2 -25.7l6.6 -63.3l29.9 -59.3l52.5 -30.9l-25.3 -50.3l-108.7 20.9l-75.7 -53.3l-69.4 -58.6l-41.2 12.3l-37.2 28.8l-39.9 -7.2l-21.8 54.6l-22.8 -30.6l-122.7 -253.4l-92.5 80.3l-5.2 20l36.4 34.5l30.6 7.9l26.3 39.1l-40.6 49.3l-20.1 68.1l-16 -35.9l-29.1 21.9l24.6 42.8z" />
  </g>
  <g data-id="267">
    <path d="m7078 6763.5l0 0l11.3 101.9l12.6 16.8l24.2 78.8l-8.1 24.9l18.3 48.3l21.5 20.6l23 79l3.9 9.1l-26.7 79.9l-20.5 141.1l-8.7 89.6l-34.6 315.5l69.3 16.3l3.8 14.8l51.2 -7.7l48.3 10.6l20.8 -20l-4 40.5l38.4 9.4l9.9 -32.8l9.6 90.7l123.1 90.7l42.5 28.6l28.8 -15.5l16.5 53.7l65.6 42.8l13.6 -16.3l-25.1 -5l2.1 -31.6l52.3 -14l30.9 -74.2l38.8 -30.7l19.7 -85.4l42.1 -20.8l22 -57.1l-15.1 -71.1l27.1 -51.9l27.5 -12.1l17.9 -38l63.3 -65.7l23.1 -3.3l108.4 -78.4l-267.4 -6.3l-190.3 -76.7l-95.6 -489.7l-435.4 -99.2z" />
  </g>
  <g data-id="269">
    <path d="m3257 6258.4l0 0l39.8 21.3l0.5 39.9l34.2 1.2l-0.7 -23.5l3.2 -13.3l17 -25l-94.1 -0.6z" />
    <path d="m2436.3 6158.6l0 0l-18.5 69.1l41.2 38.9l-0.2 63.3l54.2 19.8l-1.6 102.8l34.5 21.4l-0.4 53l22 -34.8l40.7 0l-1.7 75.6l83.7 -0.5l-1 63.1l145.2 1l0.6 -58.5l24.1 -13.6l94.3 0.5l158.6 -261.3l23.3 -20.4l81.7 -0.1l0.3 -19.2l39.6 -0.3l0.8 -21.4l104.1 1.7l-67.2 -71.1l-36 -20.8l-39.3 -78.3l-1.9 -50.7l32.3 -44.6l-34.6 2.3l-10.3 -29.1l-56.3 -65.2l-2 -29.1l-45.5 26.2l-38.1 -26.7l-59.8 18.9l-59.6 -30.8l-37.2 -76.9l-33.9 -2.3l1.4 -41.2l-43.3 38.8l-13.2 -41.4l-49.4 -20.8l-5.2 28.6l-32.3 6.1l-38.1 31.3l-32.9 1.3l-2 103.8l-53.2 -0.8l-29.8 118.6l-62.9 53.1l-1 121l-74.5 -0.4z" />
  </g>
  <g data-id="271">
    <path d="m5035.9 7800.5l0 0l3.2 38.7l47.4 12.3l8.8 78.7l52.8 40l0.7 16.7l36.4 1.9l-8.5 23.9l82.7 15.2l29.9 -7.8l67.6 54.9l28.9 -3.3l23.3 30.3l46.5 9l21.2 -15.7l36.5 -30.2l48.4 25.2l18.4 -11.7l81.7 7.2l43.2 13l39.6 -6.8l66.6 -83.5l44.2 -5.6l40.9 -41.2l8.1 -28.7l40.2 -36.9l32.7 11.5l12.8 -30.1l70.3 -40.9l37.2 -44l12.4 13.1l37.2 -36.8l-11.5 -18.7l49.3 -7l26.4 11.6l-14.9 -24.8l-36.1 -13.4l-52.9 -55.7l-70.8 -123.5l-41.6 -1.5l-80.2 -37.5l-31 -55.4l-75.1 -39.2l-31.2 0.3l-36.7 -33.8l-37.4 -13.9l-29.2 -43.9l-0.8 -31.5l-28 -33l-51.8 -3.9l25.4 -25l-14.1 -44.6l-43.9 44.6l28.1 27.8l-553.4 553.8z" />
  </g>
  <g data-id="273">
    <path d="m2110.1 7751.5l0 0l-6.9 366.1l83.2 3.9l-14.4 24.1l19.8 68.9l29.5 50.2l24 88.6l-1.5 72.9l-22.5 63.4l192.3 -0.1l10.1 -1.6l320.3 -0.2l4.5 -170.2l-19.5 -17.9l20 0.3l3.7 -127.6l15.1 -102.2l54.5 0.7l-8.4 -53.1l10.2 -38.2l-37.6 -34.3l1.7 -21.4l-34.5 -35.8l-94.7 -21.5l-40.7 -28.6l-54 -78.6l-119.6 -105.6l-7.2 -19.4l-3 102.2l-16.9 17.1l-307.4 -2.3z" />
  </g>
  <g data-id="275">
    <path d="m3124.1 9824.6l0 0l-4.2 264.8l88.8 156.4l-6.6 61l13.9 38.8l-20.2 27.7l4.7 22l-7.3 412.8l55.5 2.7l22.3 1.2l10.1 0.8l4.4 0.1l67.8 4.2l0.1 0l266.6 15.3l0.2 -0.1l1.4 0.1l51.1 3.4l72.1 4.4l21.7 1.8l140.4 8.5l3.1 -204.2l3 -185.9l9.8 -537.1l-93.8 -2l-30.2 30.7l-1 -31.2l-257.5 -4.3l-179.4 -2.6l0.5 -87.5l-10.6 0.3l-226.6 -2z" />
  </g>
  <g data-id="277">
    <path d="m4070.4 8824.7l0 0l-1.9 125.4l31.2 2.7l-4.8 251.8l296.9 8l109.1 2.8l54.9 -59.2l8.9 -0.7l9 -32.1l54.6 -31.2l60.9 -60.8l2.9 -157.2l64.6 -26.9l-13.7 -0.8l-66.1 -14.6l-43 -121.5l-49.2 -54l-105.4 -5.9l0.2 -33.1l-63.2 -1.8l0.5 -58.8l-219.2 -9.7l-92 3.6l-0.9 70.2l-2.6 205l-31.8 -1z" />
  </g>
  <g data-id="279">
    <path d="m6552.5 7630.8l0 0l7.4 -6.7l45 19.2l55.9 -5.7l49.3 26l1.7 15.3l10.5 -26.7l63.3 15.6l-14 22l116.4 26.2l18.5 9.2l48.1 -28.7l66.9 24.7l27.1 42.8l28.7 -10.1l17 15.1l34.6 -315.5l8.7 -89.6l20.5 -141.1l26.7 -79.9l-3.9 -9.1l-23 -79l-21.5 -20.6l-18.3 -48.3l8.1 -24.9l-24.2 -78.8l-12.6 -16.8l-11.3 -101.9l-98.8 61.2l-156.9 4.2l-3.7 -52.2l-47.3 -58.1l-26.7 4l-36.6 -46.1l-0 0.2l-62.7 150.4l-4.5 186.6l-88.2 617z" />
  </g>
  <g data-id="281">
    <path d="m3502.4 33.8l0 0l-20.5 42.4l40.6 39.1l25.1 73.4l103.1 31.4l19.6 40.5l49.3 -1.9l-14.9 -25.5l44.2 -10.4l21.7 23.5l6.8 33.9l-13.4 45.8l5.4 33l38 43.5l-10.8 38.5l33 25.3l0.5 65.1l79.2 -21.8l63.1 26.5l33.8 -6l11.4 -15l19.8 -4.1l32 -15.8l29.7 -40.8l-19.9 -64.3l11 -78.3l23.5 -32.3l30.7 -7.9l7.8 -39.4l58.5 -7.4l-5.4 -65.5l114.8 -20.9l-5.2 -117.8l-148.6 1l0.4 14.1l-272.7 -2.8l-170.4 1l-221.1 -0.5z" />
  </g>
  <g data-id="283">
    <path d="m6033.2 6656.9l0 0l-38.1 81l56.2 49.3l58.6 36.3l42.6 2.6l38.4 -9.8l13 -33.7l504.1 -105.8l0 -0.2l-4.4 -28.4l30.7 -54l4.7 -61l26 -72.3l-33.8 -28.1l-56.9 -25.9l-134.6 -74.1l-2.6 -10.5l-56.6 -8.3l-35.8 6.1l-59.9 -21.3l-116.7 1.8l-61 -18.8l-19.6 13.3l45.1 27.6l-23.9 67.5l-34.1 22l-47.1 -1.1l-10.9 43.1l-23.8 28.7l10.5 35.1l-12 48.8l-20 16.2l-38.1 73.5z" />
  </g>
  <g data-id="285">
    <path d="m773.6 4741l0 0l8.7 53.8l19.1 114l2.9 17.6l30.6 182.6l9.9 59.4l29 172.8l6.3 48.6l160.1 0.1l1.7 9l19.3 -8.7l498.7 3.8l0.2 -9.7l0.5 -220.8l-6.2 -23.3l0.8 -63.7l3.7 -489.9l-20.1 -40.8l20.6 -41.2l-147.2 -1.9l-14.2 -0.2l-213.7 91.3l-9.3 16.7l-89.8 24.9l0.7 -37.3l-42.5 -21.3l0.3 41.7l-20.3 -0.1l0.3 37.2l-250.1 85.5z" />
  </g>
  <g data-id="287">
    <path d="m3783 8039.6l0 0l8.5 6.3l3.8 439.3l163.9 2.2l25.4 7l10.9 32.2l36 22.9l14.1 -9.9l20.9 37l-7.8 34.6l46.2 9.5l0.9 -70.2l92 -3.6l219.2 9.7l19 -62.6l2 -189.1l63 1.7l16.1 -31.6l-28.7 -82.9l27.3 -39.6l-11.7 -90l-53.2 -101.8l9.1 -29.1l-141.4 -1.6l12.3 -12.7l-148.2 -2.4l-0.8 123.4l-398.9 1.4z" />
  </g>
  <g data-id="289">
    <path d="m4185.2 5843.5l0 0l28.1 60.4l87.9 29.5l26.9 66.6l16.6 97.7l-27.5 36.5l26.1 106.7l-8.8 11.3l46.1 63.7l61.9 34.3l-19.9 81.9l187 -108.3l-6.7 -15.9l25.2 4.8l364.2 -209.2l-34.2 -61.2l-344.5 -722.4l-223.6 133.3l50.5 52l-7.4 47.2l-20.3 10.1l-159.7 157.3l-49.6 -7.9l10.9 72.9l-29.2 58.6z" />
  </g>
  <g data-id="291">
    <path d="m2993.6 124.4l0 0l15 36.3l47.4 46.8l32.7 8l54.8 75.7l-13.3 42.3l-60.3 41.8l-10.6 24l15.6 96.5l33.7 27.7l64.6 -13.7l0 188.1l-22 -0.1l-114.2 203.2l24.6 4.2l17.2 -33.8l27.7 -11.7l55 28.6l58.6 -8l33.2 34.4l38.7 2.4l26 -73.5l61.7 -19l25.4 -96.2l90.7 -63.6l82.5 22l47.6 22.7l43.9 2.8l54.8 -20.2l10.4 -124.9l94.7 -35.6l-0.5 -65.1l-33 -25.3l10.8 -38.5l-38 -43.5l-5.4 -33l13.4 -45.8l-6.8 -33.9l-21.7 -23.5l-44.2 10.4l14.9 25.5l-49.3 1.9l-19.6 -40.5l-103.1 -31.4l-25.1 -73.4l-40.6 -39.1l20.5 -42.4l-0.5 -0l-144 0.1l-33.8 0l-18 0.3l-208.8 -0.5l-103.6 90.7z" />
  </g>
  <g data-id="293">
    <path d="m2262.8 5139.1l0 0l-11.6 3.9l29 51.7l-16.5 87.1l38.7 25.3l2.7 53.9l65.9 13.7l-28.7 35l17.4 25.5l28.5 -2.3l21 57.8l30.6 11.7l17.9 -32.1l28.6 -0.9l39.4 55.9l22.5 72.6l22.3 19.4l48.5 13.7l16.4 -20.2l21.7 50l47.9 15.4l28.3 -14.6l34.8 34.5l49.4 20.8l13.2 41.4l43.3 -38.8l-1.4 41.2l33.9 2.3l37.2 76.9l111.9 -277.5l52.5 0.7l0.1 -121.5l2 -206.5l2.1 -143.6l-310.2 -3.6l-461.5 -6.2l-33 52.4l-44.7 5z" />
  </g>
  <g data-id="295">
    <path d="m149.1 963.2l0 0l14.3 89.7l326.5 -2.3l40.1 18.5l-1.8 -17.7l64.5 0.3l415.2 2.6l36.1 1.7l81 0.8l18.2 0l11.1 -89.8l10 -0.3l-0.8 -248.8l-82.2 -0.3l-165.5 -0.4l50.5 -121l-31.5 -19.3l-88.2 0.3l-0.7 -202.9l-131.3 0.4l0.6 -119.5l-0.3 -67.6l-0.9 -147.6l-22.7 0.3l-3.6 0l-35.6 0.8l-14.7 0.5l-8.3 0l-0 0l-5.9 0.3l-40.2 0.9l-76.6 1.7l-22.4 54.8l-91.9 159.1l-32.1 63.3l-35.4 111l0.3 185.1l-18.8 19.4l-5.5 50.7l-60 83.4l-0.6 75.7l-90.9 116.3z" />
  </g>
  <g data-id="297">
    <path d="m3406.6 3089.4l0 0l139.4 104.4l1.7 1.3l56 41.9l204.5 153.8l68 51.2l50.2 1.8l89.8 72.2l-16.5 19l38.9 31.6l130.2 -196.7l176.7 -269l17.4 -36.8l42.9 -54.7l-56.3 -19.8l-87.9 -59.2l-26.6 -47.1l7.5 -41l-98.3 -7.7l-17.3 -54.2l-17.2 5.3l-61.6 -28.9l-98.3 44.1l-44 -14l-28.1 21.5l-8.2 5.1l-79 -87.8l-117.5 112.6l-29.3 28.2l-49.5 47.7l-33.3 31.4l-154.4 143.5z" />
  </g>
  <g data-id="299">
    <path d="m6099 9333.6l0 0l-3.9 134.7l21.4 -0.4l40.2 97.2l10.9 26.5l156.2 378.5l87.6 44.3l63.4 91.2l62.1 -0.1l-3.5 319.4l-6.9 31.8l125.1 -1.3l1.3 222.1l31.7 -0.1l0.3 30.7l-31.7 0.2l13 64.1l-4.1 189l25.3 -0.7l-0.3 76.6l92.4 6.7l183.7 13.5l61.4 4.6l17.3 1.7l73.5 5.5l0 0.2l136.4 -526.7l-17.9 -4.9l-41.5 -11.3l-508.5 -10.4l10.7 -370.6l-0.6 -163.5l153.5 0.4l442.4 6.6l-66.9 -92.7l-93.8 -88.7l-1 -211.3l-53.2 1.4l-37.1 -30.3l-68.2 -23.2l-0.6 -79.1l-64 -3.7l-15.6 -30.2l-74.6 -62.1l-34.8 -65.4l-19.1 -2.4l-13.7 -48.1l1.6 -133.1l-27.7 -0.2l0 -33.9l-30.1 -0.2l0 -29.5l30.3 -0l-0 -34.3l-31.2 -0.4l0.3 -29.8l-134.8 -1l0 -62.8l-25.6 0.5l-2.2 -63.5l-215.7 -1.5l-64.4 -0.1l-1.7 259.3l-1.4 219.2l-71.3 -32.4l-74.8 24.1z" />
  </g>
  <g data-id="301">
    <path d="m5747.7 3894.6l0 0l30.7 58l25.8 31.7l32.7 8.3l-3.6 93.5l8.6 40.6l39.4 23.2l22 139.7l22.8 12.4l-8.4 89.7l62.4 38.4l48.5 -7.7l63.3 -41.2l49.1 -2.6l70.4 -69.1l62.9 -13.5l50.2 -35.6l67 -15.8l132 61l136.2 70.7l101 -93.6l-57.2 -19.6l-81.6 -51.7l-127.5 -3.9l-52.6 -38.7l-25.8 11.8l7.9 -55.1l-15.9 -84.7l-3.6 -18.5l-65 -85.1l-48 -141.6l-88.7 -259l-5.8 31.9l-57.8 -9.3l-52.5 30.9l-29.9 59.3l-6.6 63.3l-37.2 25.7l-15.1 42.6l-84.5 2.5l-58.2 -26.3l-16.4 42.9l-91.2 94.3z" />
  </g>
  <g data-id="303">
    <path d="m5324.5 5129.6l0 0l-11.4 69.5l25.3 29.4l27.8 61.8l-5 40.4l28 35.3l21.7 59l60.2 1.7l59.6 53.2l32.8 80.9l-13.4 67.7l11.3 45.4l17.6 -7.2l303.3 -125.8l8.8 17.4l51.5 24.9l11.2 59.2l74.9 -30.3l44.7 -6.7l64.2 -32l28.8 34.5l120.2 -37.1l103.3 -55.5l82.9 -5.7l-10.3 -28l31.7 -210.4l-59.8 -75l-7.8 -71.3l-15 -107.9l-12 13.1l-88.3 -44.8l-13.3 -33.9l-28.4 -14l10.5 -16.6l-60.2 -66.7l7.3 -40.9l-16.2 -1.1l-33.7 -63.1l-98.2 -64.4l-21.7 -45.2l-42.9 -10.8l12.7 -84.7l-31.2 -75.8l-62.3 -0.2l-43.8 42l-56.8 28.1l-12.8 21.3l-48.3 14l-26.6 45.2l-44.4 99.8l-25.5 25.2l-28.4 4.4l-25.5 26.4l-50.2 21.8l-41 -4.3l-43.7 46.6l-37.4 24.6l-91.2 0.4l15.4 50.2l-48 83.3l34.4 60.8l4.7 43.7l-40.2 28.1z" />
  </g>
  <g data-id="305">
    <path d="m7256 8617.9l0 0l0 29.1l31.6 -0.5l0.2 212.3l88.7 -21.5l56.9 33.6l22.3 29l-10 111.8l34.4 87l21 18.4l226.4 50l163.8 -21.8l92.6 -22.1l76.9 38.5l68.7 44.3l14 7.2l56.6 -100l-14.1 -17.5l26.8 -62.9l57 1.9l85.1 -131l25.7 -40.4l-96.8 -100.3l12.4 -45.3l-23 -24.9l-13.2 -20.4l-57.3 -17.3l-0.4 -58.8l-43.6 -27.6l-14.8 -25.6l-65.2 -39.5l-25.6 3.3l-7.2 -34.3l-40.1 -14.4l6.5 -22.8l-54.9 -52.5l-1 30l-21.6 0.6l-9.5 -29.3l-45.6 -9.2l3.8 -26.7l-34.6 -26.6l-23.4 -58.9l-59.8 -27.5l-17.4 -38.1l8 -26.1l-23.9 -23.7l-10.4 20l-17 -26.1l-22.4 3.1l-14.6 -61l-36.9 -8.6l-13.6 16.3l-65.6 -42.8l-16.5 -53.7l-28.8 15.5l-42.5 -28.6l-53.9 -5.5l-27.3 20.5l-0 53.1l-40.5 -0.7l-1 33.8l37.1 0.5l-0.2 30.8l-91.5 0.1l0.1 37.7l0 465.6l-31.5 0.5z" />
  </g>
  <g data-id="307">
    <path d="m1994.2 7649.2l0 0l-1.7 102l117.6 0.3l307.4 2.3l16.9 -17.1l3 -102.2l0 -3.8l22.6 -180.6l3.8 -228.1l-201.3 -1.2l-0.6 -41.1l-39.2 -19.6l0.9 -40.1l-39.9 0.2l0.8 -36.5l-75.5 -2.8l-0.9 -47.8l-41.8 -56.6l-60.2 0.3l-0 19.4l18.9 -0.2l19.3 102.2l-23.7 59.3l-4.2 325.3l-20.4 1l-2.2 109.2l21.8 0.1l-1.2 56.5l-20.3 -0.1z" />
  </g>
  <g data-id="309">
    <path d="m5619.1 7219l0 0l-25.4 25l51.8 3.9l28 33l0.8 31.5l29.2 43.9l37.4 13.9l36.7 33.8l31.2 -0.3l75.1 39.2l31 55.4l80.2 37.5l41.6 1.5l70.8 123.5l52.9 55.7l36.1 13.4l14.9 24.8l103.3 -32.4l66.1 -62.1l43 3l1.7 -7.5l9.4 -19l-17.6 -37.1l-105.2 -80.2l-0.8 -40.6l-19.9 -4l11.4 -35.9l-24.6 -34.9l10.8 -31.3l-28.7 -20.2l22.9 -19.1l-25.7 -61l-5.4 -47.1l26.4 -42.7l1.5 -28.8l-28.7 -20.9l-12.1 -63.7l14.7 -25.7l-21.8 -36l2.4 -32.9l-29.3 -26.6l25 -61.2l-31.3 -43.6l13.2 -22.6l-21.5 -4.4l-38.4 9.8l-42.6 -2.6l-58.6 -36.3l-83.9 83.7l14.3 14.6l-28.1 -0.2l-99.5 98.5l-88.9 88.6l-55.6 -4.2l27.3 33.1l-117.7 117.7z" />
  </g>
  <g data-id="311">
    <path d="m3632.5 833l0 0l-6 115.6l26.9 35.7l0.2 140l-0.2 25.7l22.5 21.9l1 1.4l19.9 0.1l-0.1 23l23 0.2l-22.2 68.3l115.3 1.9l22.8 -22.8l43.7 23.5l189.6 2.2l7.6 -25.3l62.3 -34l34.6 -37.6l2.3 -28.6l-48.9 -69.2l-16.1 -82l17.4 -25.9l-51.6 -95.5l36.9 -25.1l18.4 -76.5l-6.3 -27.8l34 -55.4l-19.7 -55.7l-1.9 -42.7l-26.2 -2.8l-74.5 -74.3l-19.8 4.1l-11.4 15l-33.8 6l-63.1 -26.5l-79.2 21.8l-94.7 35.6l-10.4 124.9l-54.8 20.2l-14.9 85.8l-22.7 35z" />
  </g>
  <g data-id="313">
    <path d="m966.2 596.2l0 0l-50.5 121l165.5 0.4l82.2 0.3l0.8 248.8l-0 16.6l260.9 -0.5l26.6 -45.8l-28.4 -80.5l-36.8 -35.2l31.1 9l40.6 -13.9l18 40.1l28.3 -7.9l0.3 -24.7l-95.6 -72.5l18.5 -23.4l72.3 27.5l15.9 -24.4l37.7 18.8l18.5 -43.8l-33.7 -18.8l30.8 -12.1l7.1 -31.1l-29 -27.7l-13.2 -75.2l24 12.1l51.8 -42.3l-44.7 -16l-7.4 -17.8l29.4 -45.1l13.2 -73.6l36 -3.1l14.3 -38.9l-30.7 -52.1l19.4 -10.7l-39.1 -42.6l15.7 -63.2l45 -74.4l6.9 -40.3l-0.6 -0l-13.7 -0.4l-6.7 -0.4l-7.4 0.5l-16.3 -0.8l-55.1 0.7l-6.9 -0.1l-163.7 -0.3l-10.7 0.1l-23.5 0.1l-44.8 0.4l-6.1 0.1l0.4 38.1l-37.3 0.8l-0.9 82.5l-33.6 99l-12.6 1.9l-7.2 75.9l-19.8 18.9l-60.7 0.4l-0 112.8l-91.7 0.8l-36.5 18.2l-18.9 -19.4l-27.4 133z" />
  </g>
  <g data-id="315">
    <path d="m4188.2 7484.8l0 0l-5.4 430l148.2 2.4l-12.3 12.7l141.4 1.6l76 0.8l491.8 5.8l55.9 -18.1l11.7 10.2l-8.8 -78.7l-47.4 -12.3l-3.2 -38.7l-43.4 -88l-73.7 -39.9l-64.1 -80.2l27 -30.2l-37.2 -35.9l14.3 -40.1l-37 -58.1l26.3 -70l-37.3 -32.9l-10.5 16.3l-40.5 -49.5l-46.3 -0.6l18.7 -16.1l-22.4 -28.4l-75.3 -21l-40.8 -1.2l-0.2 19.6l-40 -0.6l-0.1 20.3l-362.9 -2.9l-2.3 224.1z" />
  </g>
  <g data-id="317">
    <path d="m5496.4 3091l0 0l-2 11.9l57.5 73.4l22.7 46.2l122.7 253.4l22.8 30.6l21.8 -54.6l39.9 7.2l37.2 -28.8l41.2 -12.3l69.4 58.6l75.7 53.3l108.7 -20.9l25.3 50.3l57.8 9.3l5.8 -31.9l13 -23.4l21 17.4l34.5 -2.6l-14.1 -18.2l12.4 -32.3l65.4 -20.9l6.5 -25.2l21.2 27.7l16.6 -16.2l44.7 18.5l14.8 -26.7l25.2 11.2l37.7 -38.6l58.1 51.6l-197.6 -369.8l-46.1 -108.1l46.8 -67.7l-7.6 -46.2l-60.4 35.5l-24 -83.5l-58.6 -222.8l-0.9 -8l-19.8 -17.9l-98.2 25.1l-35.8 -8.7l-73.1 31.7l-54.4 2.9l-29.3 53.9l-66.9 22.6l-44.9 0.7l-19 33.4l-39.5 14.4l-32.5 63.9l-46.6 48.7l-20.6 51.8l-43 20.2l-40 95.4l-30.9 21.9l-21 42.8z" />
  </g>
  <g data-id="319">
    <path d="m4717 5250.2l0 0l-103.5 69.8l344.5 722.4l34.2 61.2l389.8 -222.1l175.7 -87.2l25.1 -107.6l-3.9 -19.8l-17.6 7.2l-11.3 -45.4l13.4 -67.7l-32.8 -80.9l-59.6 -53.2l-60.2 -1.7l-21.7 -59l-28 -35.3l5 -40.4l-27.8 -61.8l-25.3 -29.4l-85.4 -66.1l-20.2 -72l-20.7 -13.8l-28.5 -3.5l-67.3 53.2l36.1 44.5l-92.1 -35l-131.2 62.3l-15.5 41.6l-24.5 -24.6l-146.8 64.4z" />
  </g>
  <g data-id="321">
    <path d="m3301 8253.9l0 0l26.7 59.9l-5.1 16.9l20.3 55.7l-12.6 31.5l52.5 0.6l-40.2 40.5l34.1 20.8l-1.8 289.7l-0.8 77.7l31.2 32.8l-31.7 -0.2l-0.2 46.8l-3.4 267.5l469.4 6.5l35 0.2l0.3 32.6l94 1.4l0.6 -32.6l125.5 2.4l4.8 -251.8l-31.2 -2.7l1.9 -125.4l31.8 1l2.6 -205l-46.2 -9.5l7.8 -34.6l-20.9 -37l-14.1 9.9l-36 -22.9l-10.9 -32.2l-25.4 -7l-163.9 -2.2l-3.8 -439.3l-8.5 -6.3l-49.3 -15.3l-40.1 -52.9l-165.7 -42.5l-31.8 1.1l-58.6 33.2l-20.3 38.1l0.3 38.9l-28.6 -7.5l-37.7 11.7l0.9 23l34.6 21.1l10.8 45.3l-35.9 26.7l-8.7 47.1l-51.9 46.3z" />
  </g>
</svg>
