<?xml version="1.0" encoding="UTF-8"?>
<!DOCTYPE svg PUBLIC '-//W3C//DTD SVG 1.1//EN' 'http://www.w3.org/Graphics/SVG/1.1/DTD/svg11.dtd'>
<svg viewBox="0 0 1000 646.144" xmlns="http://www.w3.org/2000/svg">
  <g data-id="001">
    <path d="m298.336 416.817l0.082 35.515l-0.076 35.391l35.384 0.106l35.227 0.088l0.007 -71.004l-70.625 -0.096z" />
  </g>
  <g data-id="003">
    <path d="m263.347 522.8l-0.064 17.427l70.416 0.234l0.027 -52.632l-35.384 -0.106l-34.925 -0.087l-0.07 35.163z" />
  </g>
  <g data-id="005">
    <path d="m773.715 0.141l1.052 33.571l-0.202 54.969l65.863 0.296l0.312 -4.956l-0.39 -3.153l-0.08 -1.317l0.192 -1.447l1.02 -1.167l1.527 -0.673l2.193 -2.495l0.745 -2.348l0.416 -1.362l2.187 -3.774l0.082 -1.192l0.736 -1.442l1.721 -1.312l3.15 -3.233l1.258 -1.345l1.142 -1.458l1.43 -1.69l0.443 -1.141l0.273 -1.141l-0.283 -1.079l-1.567 -0.253l-0.251 -1.674l-0.329 -1.385l-0.949 -1.696l-0.889 -1.923l-3.321 -4.604l-1.604 -1.203l-1.763 -1.484l-1.265 -0.72l-2.687 -1.072l-2.5 -1.299l-1.548 -1.049l-1.061 -0.355l-2.128 -0.318l-1.989 -3.548l1.139 -1.648l0.39 -1.107l0.635 -1.491l0.466 -1.991l-0.267 -1.63l-0.172 -1.155l-0.107 -1.571l-0.665 -1.493l-3.569 -4.786l-0.542 -1.148l-0.14 -1.448l0.567 -1.023l1.401 -1.845l0.671 -2.085l-0.243 -2.092l-0.101 -1.319l-4.376 -0.692l-2.318 -0.107l-16.546 0.035l-1.173 0.073l-3.134 -0.086l-6.841 0.095l-3.018 -0.043l-4.56 -0.01l-6.579 0.028l-1.141 0.01l-1.508 -0.005l-6.162 0.001l-3.04 0.001z" />
  </g>
  <g data-id="007">
    <path d="m544.97 540.675l0.046 63.851l1.812 -0.079l19.658 -0.613l2.485 -0.063l5.854 -0.024l2.115 -0.036l1.634 -0.061l2.484 0.034l4.302 -0.062l1.09 -0.006l10.859 -0.08l2.335 -0.061l4.252 -0.072l3.807 -0.065l7.789 -0.191l0.02 -62.56l-70.543 0.089z" />
  </g>
  <g data-id="009">
    <path d="m237.989 342.812l0.052 53.876l7.965 -0.02l-0.003 20.038l17.599 0.034l34.733 0.077l-0.018 -20.156l-6.686 0l-0.103 -53.647l-53.539 -0.202z" />
  </g>
  <g data-id="011">
    <path d="m667.869 252.814l0.097 90.121l53.916 0.191l17.901 0.001l-0.294 -18.093l-0.304 -18.13l0.642 -54.409l-18.004 0.327l-17.949 0.048l-36.006 -0.056z" />
  </g>
  <g data-id="013">
    <path d="m628.529 180.899l0.03 18.071l-0.005 18.003l3.126 0.002l0.078 35.949l17.933 -0.059l18.179 -0.051l36.006 0.056l0.089 -35.609l-2.655 0.006l-0.033 -36.314l-72.747 -0.054z" />
  </g>
  <g data-id="015">
    <path d="m380.79 271.025l0.087 71.815l17.864 0.024l35.742 -0.06l18.107 0.01l-0.006 -4.139l0 -13.868l-0.098 -17.406l0.05 -36.254l-35.877 -0.118l-7.416 0.013l-28.451 -0.015z" />
  </g>
  <g data-id="017">
    <path d="m628.528 162.519l0 18.38l72.747 0.054l0.014 -55.536l-72.718 -0.021l-0.044 37.123z" />
  </g>
  <g data-id="019">
    <path d="m701.276 180.953l0.033 36.314l2.655 -0.006l-0.086 35.223l17.946 0.338l18.004 -0.327l36.019 0.552l-0.064 -36l-1.709 -0.007l0.223 -36.489l-73.02 0.401z" />
  </g>
  <g data-id="021">
    <path d="m192.552 124.811l0.026 72.929l72.854 0.299l0.092 -73.187l-72.972 -0.041z" />
  </g>
  <g data-id="023">
    <path d="m556.117 125.304l-0.286 73.466l18.316 0.128l54.411 0.072l-0.03 -18.071l0 -18.38l0.044 -37.123l-72.455 -0.092z" />
  </g>
  <g data-id="025">
    <path d="m265.433 198.039l0 17.976l8.892 0.04l-0.265 55.016l35.326 0.061l35.583 0.049l-0.022 -54.981l-6.979 -0.016l0.001 -17.839l-72.536 -0.306z" />
  </g>
  <g data-id="027">
    <path d="m238.298 270.924l-0.309 71.888l53.539 0.202l17.871 -0.076l-0.013 -71.805l-35.326 -0.061l-35.762 -0.148z" />
  </g>
  <g data-id="029">
    <path d="m228.383 417.662l-0.086 69.826l35.119 0.149l34.249 0.124l0.752 -35.428l-0.082 -35.515l-34.733 -0.077l-17.599 -0.034l-17.532 -0.107l-0.088 1.063z" />
  </g>
  <g data-id="031">
    <path d="m811.35 343.495l-0.035 53.951l50.498 0.199l5.068 0.004l16.222 0.052l0.228 -35.9l-0.017 -36.12l-71.911 -0.241l-0.053 18.055z" />
  </g>
  <g data-id="033">
    <path d="m483.422 52.015l-0.151 73.087l36.418 0.165l18.269 0.021l18.159 0.017l0.162 -64.281l-0.008 -9.023l-18.066 0.091l-18.279 -0.017l-36.504 -0.06z" />
  </g>
  <g data-id="035">
    <path d="m120.057 124.979l-0.088 72.995l18.207 -0.139l54.403 -0.095l-0.026 -72.929l-72.496 0.168z" />
  </g>
  <g data-id="037">
    <path d="m628.546 61.023l0.026 64.373l72.718 0.021l0.065 -36.976l0.026 -27.446l-72.836 0.028z" />
  </g>
  <g data-id="039">
    <path d="m403.948 487.993l-0.094 52.97l16.899 0.073l18.554 -0.549l35.053 0.219l-0.156 -53.634l-35.639 -0.156l-16.865 1.109l-17.751 -0.031z" />
  </g>
  <g data-id="041">
    <path d="m192.568 52.067l-0.016 72.744l72.972 0.041l0.026 -72.75l-72.982 -0.035z" />
  </g>
  <g data-id="043">
    <path d="m774.086 145.196l0.21 35.356l72.972 -0.391l36.21 0.027l0.08 -6.182l-2.538 -1.609l-1.193 -0.514l-1.342 0.267l-1.102 0.153l-1.872 -0.455l-2.437 -1.603l-1.414 -0.422l-2.236 -2.821l-1.04 -1.043l-2.161 -1.344l-1.179 0.116l-1.469 -0.976l-0.605 -1.142l-0.199 -1.005l-1.134 -0.836l-1.106 0.274l-1.101 -0.224l-0.165 -1.351l-0.825 -1.214l-0.819 -1.383l0.345 -1.439l-0.969 -1.191l-0.18 -1.231l-0.065 -1.573l-0.668 -2.613l-0.402 -2.319l-0.187 -2.891l0.1 -1.546l-1.765 -0.327l-0.766 -1.202l0.571 -3.125l-0.604 -1.145l-0.537 -1.91l0.09 -2.388l-0.358 -1.528l-1.783 -1.694l-3.976 -2.652l-1.032 -0.461l-0.227 -1.339l0.354 -1.745l-0.067 -1.25l-0.841 -2.869l0.107 -1.327l0.546 -2.093l-0.155 -1.437l-0.67 -1.508l-0.71 -1.106l-0.188 -2.536l-1.776 -6.647l-0.986 -4.059l-0.522 -4.912l-0.21 -1.133l0.337 -1.171l0.006 -1.53l-65.863 -0.296l-0.066 18.612l-0.245 36.191l-0.168 1.712z" />
  </g>
  <g data-id="045">
    <path d="m883.33 307.609l-0.017 18.072l0.017 36.12l17.256 0.005l3.743 1.764l1.361 2.85l3.194 2.395l2.827 0.579l3.207 -1.729l1.181 -2.937l4.3 -1.419l0.92 1.788l3.196 -2.05l2.204 1.833l3.682 -2.924l2.045 2.374l5.587 -1.401l0.842 -2.169l6.394 2.176l3.411 -1.563l2.332 3.136l1.09 -1.278l4.181 2.867l-0.094 2.979l2.02 -0.933l0.577 2.338l2.814 -1.578l3.918 1.885l4.662 -2.392l2.695 2.169l0.175 -1.109l0.694 -1.639l1.219 -1.612l3.715 -3.574l2.361 -0.981l2.255 -1.587l4.057 -2.75l5.276 -2.07l1.08 -1.277l-0.118 -2.734l-0.347 -2.162l0.319 -2.096l1.054 -2.151l0.352 -2.586l0.419 -2.126l0.766 -1.516l1.238 -2.944l0.528 -1.777l0.034 -1.856l0.234 -2.755l-0.779 -1.916l-1.068 -1.397l-0.044 -2.326l0.307 -1.058l1.278 -2.653l1.17 -1.492l0.03 -1.41l0.834 -1.627l0.085 -1.502l-0.17 -1.176l-0.401 -1.232l-0.665 -1.063l-0.252 -1.357l-0.69 -1.348l-60.686 0.049l-53.805 -0.147z" />
  </g>
  <g data-id="047">
    <path d="m149.067 270.716l-0.3 72.144l17.769 -0.062l35.762 -0.139l35.691 0.154l0.309 -71.888l-35.794 -0.109l-53.438 -0.099z" />
  </g>
  <g data-id="049">
    <path d="m362.999 342.89l0.044 53.951l5.954 0.07l-0.036 20.002l53.047 0.119l16.339 -1.812l0.014 -4.412l-0.004 -10.489l-0.013 -3.297l-3.639 -0.006l-0.002 -2.966l-0.004 -3.728l-0.109 -35.248l-0.106 -12.273l-35.742 0.06l-17.864 -0.024l-17.878 0.051z" />
  </g>
  <g data-id="051">
    <path d="m615.513 540.586l0.184 62.554l8.865 -0.263l14.722 -0.562l3.536 -0.088l1.21 0.014l11.394 -0.247l4.444 -0.155l2.979 -0.089l5.03 -0.153l9.581 -0.215l2.905 -0.061l2.452 -0.03l3.367 -0.111l0.109 -60.763l-53.186 0.123l-17.59 0.047z" />
  </g>
  <g data-id="053">
    <path d="m403.853 540.964l-0.106 65.608l5.958 -0.146l1.985 -0.024l3.693 -0.089l3.984 -0.097l2.013 -0.041l7.265 -0.149l1.958 -0.037l3.416 -0.06l6.828 -0.101l3.711 -0.027l1.148 0.041l2.216 -0.006l5.85 -0.066l2.036 -0.051l1.27 -0.023l1.067 -0.023l9.933 -0.231l4.795 -0.126l1.115 -0.015l0.369 -64.594l-35.053 -0.219l-18.554 0.549l-16.899 -0.073z" />
  </g>
  <g data-id="055">
    <path d="m774.296 180.552l-0.223 36.489l1.709 0.007l0.064 36l35.959 -0.008l35.876 0.142l-0.064 -18.083l-0.061 -18.472l-0.289 -36.466l-72.972 0.391z" />
  </g>
  <g data-id="057">
    <path d="m810.446 558.132l-5.748 -0.056l7.013 4.52l10.844 3.675l1.973 3.923l3.468 0.253l6.294 4.007l1.164 3.714l4.154 1.196l0.928 -2.637l5.084 3.288l4.775 1.748l0.232 -1.417l-0.026 -1.019l-0.429 -2.284l-0.285 -1.144l0.817 -4.134l0.342 -1.098l0.879 -1.247l0.674 -1.251l0.985 -3.347l0.07 -1.426l-0.155 -1.257l-0.735 -1.943l0.029 -1.859l0.593 -1.924l2.38 -2.507l1.594 -1.747l1.294 -0.877l1.309 -2.483l0.446 -1.249l1.269 -1.813l1.786 -1.141l2.192 -3.552l1.493 -1.736l2.781 -1.424l2.534 -1.422l0.936 -1.187l0.378 -2.321l1.266 -3.603l-0.074 -1.638l-0.369 -1.583l-0.458 -1.383l0.444 -2.071l0.857 -1.721l0.567 -2.293l0.138 -1.105l-0.042 -1.501l0.472 -3.145l-0.215 -2.843l-0.292 -2.671l-0.529 -1.739l-64.883 -0.789l-0.213 53.26z" />
  </g>
  <g data-id="059">
    <path d="m192.644 33.672l-0.075 18.395l72.982 0.035l-0.04 -18.266l-0.1 -33.679l-3.076 -0.008l-3.054 0.005l-3.059 -0.009l-3.093 -0.003l-3.044 -0.074l-3.039 0.013l-3.001 0.009l-9.442 0.022l-1.194 -0.019l-4.97 0.065l-1.901 -0.068l-2.02 0l-5.31 -0.024l-4.601 -0.066l-19.985 0.188l-2.008 0.015l0.03 33.469z" />
  </g>
  <g data-id="061">
    <path d="m847.268 180.16l0.289 36.466l0.061 18.472l0.064 18.083l35.703 0.109l35.766 0.112l0.08 -18.203l29.42 0.145l-1.663 -0.639l-1.715 -1.641l-1.702 -1.331l-1.644 -0.881l-4.701 -2.104l-1.069 -0.63l-0.485 -1.01l-0.097 -1.57l-0.992 -2.131l-2.597 -1.187l-1.275 -0.637l-2.448 -0.837l-2.769 -1.543l-2.55 -2.006l-2.019 -2.082l-0.354 -1.064l-0.031 -1.168l1.215 -1.857l0.89 -2.166l0.941 -2.133l-0.6 -1.879l-0.508 -2.652l-1.57 -1.983l-0.769 -1.671l-0.369 -2.11l-1.723 -1.797l-1.023 -1.025l-0.94 -1.695l-0.352 -1.043l-0.654 -3.294l-1.241 -2.529l-0.396 -1.734l-1.005 -1.113l-1.693 -0.979l-1.681 -0.56l-1.93 -0.444l-2.571 -0.747l-1.401 -0.484l-1.424 -0.318l-1.458 -0.193l-1.353 -0.394l-5.49 -1.232l-1.724 -0.295l-1.321 -0.366l-2.251 -0.817l-3.124 -0.783l-1.457 -0.584l-0.08 6.182l-36.21 -0.027z" />
  </g>
  <g data-id="063">
    <path d="m265.427 0.158l0.083 33.679l0.04 18.266l72.402 0.008l0.044 -51.981l-4.242 0.051l-13.911 -0.008l-8.474 -0.035l-36.716 -0.015l-2.796 0.011l-2.241 0.013l-4.19 0.011z" />
  </g>
  <g data-id="065">
    <path d="m701.29 125.417l-0.014 55.536l73.02 -0.401l-0.21 -35.356l0.281 -1.21l0.132 -36.693l0.066 -18.612l-73.21 -0.24l-0.065 36.976z" />
  </g>
  <g data-id="067">
    <path d="m556.279 61.023l-0.162 64.281l72.455 0.092l-0.026 -64.373l-72.267 0z" />
  </g>
  <g data-id="069">
    <path d="m483.271 125.102l-0.134 73.482l72.694 0.186l0.286 -73.466l-18.159 -0.017l-18.269 -0.021l-36.418 -0.165z" />
  </g>
  <g data-id="071">
    <path d="m115.546 573.641l0.515 3.086l1.282 1.381l1.005 0.367l1.708 0.898l1.041 1.176l0.721 1.637l0.292 2.352l0.498 1.036l1.635 1.277l1.425 0.803l1.348 0.339l1.514 0.139l1.357 0.507l1.373 1.041l1.588 1.985l0.526 1.007l0.368 1.462l0.055 2.202l0.502 1.144l1.351 1.018l1.042 0.953l0.407 1.156l-0.22 1.277l-1.36 1.636l-1.039 0.763l2.954 0.055l9.069 0.112l7.025 0.03l4.734 0.15l5.696 0.108l2.937 0.068l3.35 0.077l1 0.023l8.825 0.12l8.295 0.107l6.382 0.104l0.006 -15.207l0.502 -14.755l-2.252 -0.028l0.045 -35.204l-49.131 0.103l-16.795 -0.132l0.567 1.272l-0.144 1.784l-0.803 1.391l-1.394 0.986l-2.115 0.572l-1.262 1.312l-0.239 1.452l1.105 2.645l0.634 2.086l-0.218 1.865l-0.819 1.726l-0.218 1.294l0.246 1.533l1.22 2.673l0.246 1.392l-0.414 1.484l-0.911 1.094l-1.531 1.11l-1.372 0.561l-1.275 0.655l-1.392 1.333l-0.71 1.066l-0.469 1.164l-0.309 1.18z" />
  </g>
  <g data-id="073">
    <path d="m309.386 271.133l0.013 71.805l53.6 -0.049l17.878 -0.051l-0.087 -71.815l-35.821 0.158l-35.583 -0.049z" />
  </g>
  <g data-id="075">
    <path d="m555.831 198.77l-0.003 17.962l3.711 0.025l0.082 18.173l0.107 36.231l36.034 -0.181l-0.096 -17.988l36.091 -0.067l-0.078 -35.949l-3.126 -0.002l0.005 -18.003l-54.411 -0.072l-18.316 -0.128z" />
  </g>
  <g data-id="077">
    <path d="m291.528 343.015l0.103 53.647l6.686 0l0.018 20.156l70.625 0.096l0.036 -20.002l-5.954 -0.07l-0.044 -53.951l-53.6 0.049l-17.871 0.076z" />
  </g>
  <g data-id="079">
    <path d="m410.503 198.493l-0.002 17.963l6.141 0.015l0.016 54.557l35.877 0.118l17.96 0.032l18.249 -0.025l0.023 -36.273l0.04 -18.158l-5.61 -0.036l-0.06 -18.102l-72.634 -0.092z" />
  </g>
  <g data-id="081">
    <path d="m410.682 52.038l-0.127 73.221l72.715 -0.158l0.151 -73.087l-72.739 0.023z" />
  </g>
  <g data-id="083">
    <path d="m483.137 198.584l0.06 18.102l5.61 0.036l-0.04 18.158l-0.023 36.273l35.59 0.086l17.515 0.032l17.879 -0.111l-0.107 -36.231l-0.082 -18.173l-3.711 -0.025l0.003 -17.962l-72.694 -0.186z" />
  </g>
  <g data-id="085">
    <path d="m77.034 342.208l1.291 1.135l1.139 0.46l1.079 0.767l0.917 1.243l0.359 1.758l-0.461 1.966l0.24 1.462l0.861 1.36l1.525 0.901l1.971 0.545l1.749 1.37l0.736 1.503l-0.236 1.51l-1.044 1.218l-0.669 1.07l-0.215 1.335l0.098 2.012l-0.98 1.709l-1.079 0.597l-1.705 0.841l-0.562 1.742l0.129 1.287l2.766 1.952l1.218 0.869l0.97 1.502l0.049 1.168l-1.441 1.411l-1.254 0.151l-2.237 -0.513l-1.054 0.442l-1.26 1.365l-0.239 1.681l0.112 1.056l0.923 1.368l2.33 2.098l0.68 1.708l0.057 1.106l-0.413 1.592l-2.526 3.223l-0.585 1.362l0.06 1.514l0.573 1.589l0.684 1.112l1.214 1.089l1.971 0.835l1.052 1.463l0.102 1.261l-0.555 1.325l-1.082 1.387l-0.62 2.099l0.27 2.387l0.673 1.539l1.419 0.735l1.142 0.647l1.451 1.827l1.53 1.501l1.998 0.366l0.984 -1.187l0.571 -2.967l0.331 -2.533l1.347 -1.259l1.486 0.043l1.364 0.901l1.118 3.645l0.188 1.258l-0.025 1.086l-0.514 1.036l26.635 0.081l50.012 0.101l0.031 -19.791l-9.285 -0.01l0.133 -53.824l-17.769 0.062l-71.733 -0.652z" />
  </g>
  <g data-id="087">
    <path d="m757.199 540.138l-0.093 17.808l47.592 0.13l5.748 0.056l0.213 -53.26l0.063 -17.795l-17.758 -0.237l-35.437 -0.082l-0.329 53.38z" />
  </g>
  <g data-id="089">
    <path d="m628.739 0.19l-0.193 60.833l72.836 -0.028l0.003 -9.011l0.177 -51.867l-1.564 -0.008l-2.141 -0.011l-11.536 0.005l-3.066 0.039l-12.099 0.013l-14.075 0.002l-2.983 -0.006l-2.744 0.001l-6.588 0.012l-2.394 0.016l-13.635 0.01z" />
  </g>
  <g data-id="091">
    <path d="m337.98 125.194l-0.02 55.108l72.522 0.096l0.073 -55.139l-72.576 -0.065z" />
  </g>
  <g data-id="093">
    <path d="m138.176 197.835l-0.032 18.039l11.163 0.046l-0.24 54.795l53.438 0.099l0.175 -54.913l-10.014 -0.012l-0.087 -18.149l-54.403 0.095z" />
  </g>
  <g data-id="095">
    <path d="m667.966 342.935l-0.158 17.896l0.261 54.827l54.072 -0.197l17.972 -0.145l0.334 -18.298l-0.664 -53.891l-17.901 -0.001l-53.916 -0.191z" />
  </g>
  <g data-id="097">
    <path d="m883.385 253.291l-0.054 54.318l53.805 0.147l60.686 -0.049l-1.419 -1.519l-0.284 -2.189l-0.04 -2.417l-0.431 -2.724l0.762 -2.453l0.292 -2.343l0.053 -1.547l-0.112 -1.536l-0.87 -1.803l-3.068 -0.612l-1.518 -0.569l-1.234 -2.264l-0.155 -1.332l-0.479 -1.49l-1.02 -0.841l-1.252 -0.684l-1.642 -1.121l-2.34 -1.253l-2.916 -0.629l-2.014 -0.902l-2.503 -1.813l-2.974 -1.29l-1.616 -1.507l-1.523 -0.472l-2.892 -0.441l-1.258 -1.055l-1.537 -0.89l-2.458 -2.215l-0.734 -1.592l-0.734 -1.28l-1.511 -1.757l-1.362 -1.397l-0.439 -1.129l-0.295 -1.344l-1.044 -2.467l0.023 -1.244l0.589 -1.353l0.993 -3.048l0.024 -1.314l0.035 -1.246l0.636 -1.044l-0.475 -1.209l-1.771 -1.739l-2.051 -3.822l-1.361 -0.851l-1.522 -1.655l-1.178 -2.312l-29.965 -0.791l-0.08 18.203l-35.766 -0.112z" />
  </g>
  <g data-id="099">
    <path d="m506.454 342.868l-0.115 54.037l3.077 -0.031l0.01 19.187l23.127 -0.052l29.539 -0.038l17.675 -0.054l17.68 -0.056l-0.086 -19.042l-1.491 0.012l0.117 -53.813l-71.675 -0.07l-17.859 -0.081z" />
  </g>
  <g data-id="101">
    <path d="m686.15 486.788l0.139 53.629l53.274 -0.294l17.637 0.015l0.329 -53.38l-17.585 0.26l-17.73 -0.417l-36.064 0.187z" />
  </g>
  <g data-id="103">
    <path d="m739.783 343.127l0.664 53.891l-0.334 18.298l47.603 0.092l0.192 2.822l1.859 -0.714l0.676 4.786l-2.14 1.696l2.519 1.934l-0.163 2.687l2.57 4.685l17.766 0.137l0.319 -35.996l0.035 -53.951l-17.803 0.063l-17.841 -0.199l-35.923 -0.232z" />
  </g>
  <g data-id="105">
    <path d="m811.566 289.294l-0.163 36.146l71.911 0.241l0.017 -18.072l0.054 -54.318l-35.703 -0.109l-35.876 -0.142l-0.239 36.255z" />
  </g>
  <g data-id="107">
    <path d="m650.452 415.708l0.271 71.227l17.586 -0.074l17.841 -0.073l36.064 -0.187l-0.073 -71.139l-54.072 0.197l-17.617 0.05z" />
  </g>
  <g data-id="109">
    <path d="m337.996 0.13l-0.044 51.981l0.059 18.182l-0.031 54.901l72.576 0.065l0.127 -73.221l-0.043 -18.368l-0.01 -33.333l-18.791 -0.148l-2.334 0l-21.524 -0.007l-19.924 -0.01l-2.02 -0.019l-8.037 -0.024z" />
  </g>
  <g data-id="111">
    <path d="m757.106 557.946l0.089 35.517l0.222 8.122l3.14 2.104l1.16 0.96l0.476 1.342l-0.898 2.414l0.116 1.008l1.399 1.389l1.649 0.425l2.561 0.354l2.502 0.739l1.988 0.413l1.097 1.918l-0.118 1.568l-0.524 1.871l0.129 1.41l0.677 1.068l1.323 0.962l2.108 1.02l1.194 1.57l0.549 1.642l0.275 1.263l1.043 1.458l1.077 0.682l2.316 0.712l1.37 0.125l2.336 -0.172l0.851 1.364l-0.467 1.136l-1.145 1.178l0.679 1.32l1.415 0.121l-0.224 1.452l-0.795 1.337l0.02 1.307l1.236 0.954l1.436 0.385l1.689 0.979l1.273 -0.483l0.816 4.124l2.983 -0.274l3.673 -0.202l2.397 0.76l1.533 0.223l2.877 -0.353l1.329 -0.364l1.529 -0.958l0.847 -1.906l0.072 -2.499l-0.196 -1.297l-0.601 -1.707l-0.514 -1.831l-0.124 -1.447l0.286 -1.932l1.82 -4.556l0.486 -1.927l0.155 -1.204l-0.046 -2.007l-0.564 -2.112l-2.151 -3.596l-1.941 -1.274l-1.485 -0.928l-0.42 -1.707l0.248 -1.434l3.921 -4.011l0.846 -1.649l2.212 -3.893l1.714 -1.599l1.387 -0.769l5.107 -2.583l4.669 -1.218l1.727 -0.335l1.031 -0.563l1.6 -0.349l4.525 -0.01l3.159 0.472l1.681 -0.241l5.029 -3.305l2.498 -1.48l2.174 -1.675l0.661 -1.367l0.65 -3.233l-3.602 -1.802l-5.8 -4.138l-0.928 2.637l-4.154 -1.196l-1.164 -3.714l-6.294 -4.007l-3.468 -0.253l-1.973 -3.923l-10.844 -3.675l-7.013 -4.52l-47.592 -0.13z" />
  </g>
  <g data-id="113">
    <path d="m739.186 306.904l0.304 18.13l0.294 18.093l35.923 0.232l17.841 0.199l17.803 -0.063l0.053 -18.055l0.163 -36.146l0.239 -36.255l-35.959 0.008l-36.019 -0.552l-0.642 54.409z" />
  </g>
  <g data-id="115">
    <path d="m793.018 468.999l-0.053 17.841l17.758 0.237l-0.063 17.795l64.823 0.286l0.181 -2.388l0.3 -2.107l-1.691 -3.338l-1.332 -1.731l-0.761 -2.154l-1.609 -2.564l-1.285 -2.668l-0.815 -1.003l-1.942 -1.136l-3.02 0.574l-2.203 -0.565l-2.082 -4.012l-1.666 -2.812l-1.089 -1.561l-1.302 -1.488l-1.781 -1.678l-1.202 -1.615l-1.344 -1.235l-0.711 -2.754l0.597 -1.24l0.899 -1.231l0.511 -1.037l1.401 -4.042l0.793 -1.528l1.442 -1.527l0.657 -2.378l0.197 -4.081l-12.283 -0.223l-33.47 -0.331l0.125 -17.862l-17.766 -0.137l-0.212 35.696z" />
  </g>
  <g data-id="117">
    <path d="m474.203 487.072l0.156 53.634l35.252 0.084l35.359 -0.115l-0.25 -53.52l-35.182 0.043l-17.521 0.025l-17.815 -0.15z" />
  </g>
  <g data-id="119">
    <path d="m5.669 10.662l1.324 3.551l1.892 0.411l1.042 0.097l0.677 1.695l0.353 1.385l1.679 2.208l3.149 2.483l1.076 -0.285l1.316 2.279l0.042 2.052l-0.795 1.616l-0.116 1.281l0.09 2.206l-0.811 2.78l-0.184 2.137l0.659 2.543l0.432 1.388l-0.675 2.107l-1.638 0.947l-1.854 0.57l-1.605 -0.411l-1.106 -0.401l-1.483 -0.318l0.234 1.503l0.19 2.599l-1.342 0.948l0.169 1.15l1.295 0.12l1.266 1.193l1.305 0.715l71.085 0.397l9.063 -0.315l27.27 0.28l0.149 -51.311l-29.574 -0.045l-22.358 -0.034l-1.589 -0.012l-18.962 -0.005l-2.923 0.017l-15.724 -0.012l-21.225 -0.026l-1.187 0.012l0.082 1.142l1.034 0.15l1.019 0.95l0.623 1.803l-0.637 2.171l-0.43 1.328l-1.863 1.653l-0.434 1.308z" />
  </g>
  <g data-id="121">
    <path d="m368.96 416.914l-0.007 71.004l34.994 0.076l17.751 0.031l16.865 -1.109l-0.144 -35.852l-0.067 -18.033l-0.007 -11.161l-0.001 -6.649l-16.339 1.812l-53.047 -0.119z" />
  </g>
  <g data-id="123">
    <path d="m579.768 415.919l0.092 42.907l0.162 28.288l35.296 -0.047l35.406 -0.132l-0.271 -71.227l-35.426 0.083l-17.579 0.072l-17.68 0.056z" />
  </g>
  <g data-id="125">
    <path d="m509.426 416.062l0.032 3.472l0.08 67.663l35.182 -0.043l35.301 -0.041l-0.162 -28.288l-0.092 -42.907l-17.675 0.054l-29.539 0.038l-23.127 0.052z" />
  </g>
  <g data-id="127">
    <path d="m524.334 271.239l-0.021 71.71l71.675 0.07l-0.047 -35.72l-0.178 -36.321l-36.034 0.181l-17.879 0.111l-17.515 -0.032z" />
  </g>
  <g data-id="129">
    <path d="m116.347 488.374l0.215 2.227l0.492 1.205l1.569 2.737l0.431 1.389l0.067 3.396l0.336 1.531l0.105 1.095l-0.443 1.64l-0.795 1.048l-1.15 1.152l-0.663 1.873l0.45 1.451l1.489 1.652l1.235 1.177l0.412 1.596l-0.126 1.264l-0.917 1.631l-0.555 1.632l0.338 1.59l1.103 1.296l1.165 0.714l1.261 0.451l1.663 1.399l0.686 1.421l-0.116 2.411l-1.25 2.697l-0.358 2.175l0.082 1.459l0.303 1.643l0.729 1.521l2.205 2.123l0.808 1.043l16.795 0.132l49.131 -0.103l0.034 -17.496l0.061 -35.218l-76.058 0.037l-0.737 1.008z" />
  </g>
  <g data-id="131">
    <path d="m556.239 0.344l0.031 51.656l0.008 9.023l72.267 0l0.193 -60.833l-14.78 0.053l-3.598 -0.001l-2.531 -0.001l-2.812 -0.001l-6.889 -0.003l-5.882 0.11l-12.302 0.004l-21.169 -0.012l-2.535 0.007z" />
  </g>
  <g data-id="133">
    <path d="m43.054 270.895l1.285 2.089l0.53 1.191l0.127 1.667l-0.474 1.927l0.098 1.12l0.298 1.087l0.824 1.311l2.542 1.869l0.976 1.004l0.878 2.139l1.22 1.352l3.11 0.873l1.641 1.004l0.939 1.491l0.354 2.142l-0.16 1.469l-0.637 1.551l-0.767 1.51l-0.357 1.532l0.098 2.824l0.446 1.745l0.634 1.448l1.16 1.063l1.2 0.368l1.424 -0.733l1.299 0.109l1.959 1.217l0.578 1.173l-0.263 1.43l-2.346 2.141l-0.473 1.108l-0.016 1.254l1.891 1.346l1.219 -0.615l0.642 -1.342l1.778 -1.119l1.773 0.125l1.525 1.248l0.13 1.009l-0.879 1.748l-0.404 1.005l0.904 1.458l1.394 0.226l1.405 -0.553l1.137 -0.231l2.993 0.424l1.337 0.712l0.559 1.014l-0.68 2.896l-1.427 2.032l-0.138 1.763l1.059 2.114l-0.02 1.311l-0.85 1.127l-1.852 0.612l-1.183 1.42l0.582 1.733l0.927 1.052l0.743 1.503l0.091 1.503l0.35 1.175l0.842 1.148l71.733 0.652l0.3 -72.144l-89.331 -0.672l-16.188 -0.102z" />
  </g>
  <g data-id="135">
    <path d="m544.72 487.154l0.25 53.52l70.543 -0.089l-0.195 -53.52l-35.296 0.047l-35.301 0.041z" />
  </g>
  <g data-id="137">
    <path d="m193.081 522.547l-0.034 17.496l70.235 0.183l0.064 -17.427l0.07 -35.163l-35.119 -0.149l-35.155 -0.158l-0.061 35.218z" />
  </g>
  <g data-id="139">
    <path d="m810.996 433.441l-0.125 17.862l33.47 0.331l12.285 0.175l0.06 -1.241l0.774 -5.246l2.299 -4.108l0.193 -3.028l0.386 -2.226l0.59 -1.025l1.055 -0.846l1.438 -0.736l2.432 -0.292l4.167 -1.815l1.497 -0.024l1.309 0.807l2.071 1.021l3.566 0.753l1.641 -0.859l2.905 -1.142l1.49 -0.878l1.694 -1.156l1.923 -1.468l1.497 -0.931l1.692 -0.491l1.407 -0.099l1.951 0.237l2.685 0l3.231 0.324l0.044 -2.641l0.336 -26.879l-17.853 -0.124l-16.222 -0.052l-5.068 -0.004l-50.498 -0.199l-0.319 35.996z" />
  </g>
  <g data-id="141">
    <path d="m119.667 51.572l0.302 55.001l0.088 18.407l72.496 -0.168l0.016 -72.744l-36.715 -0.682l-36.187 0.187z" />
  </g>
  <g data-id="143">
    <path d="m119.816 0.261l-0.149 51.311l36.187 -0.187l36.715 0.682l0.075 -18.395l-0.03 -33.469l-7.141 -0.016l-3.113 -0.07l-3.174 0.065l-1.796 0.013l-4.313 0.087l-34.777 -0.006l-12.379 -0.015l-2.022 0l-4.081 0z" />
  </g>
  <g data-id="145">
    <path d="m193.048 540.044l-0.045 35.204l2.252 0.028l-0.502 14.755l-0.006 15.207l2.481 0.081l3.418 0.046l17.549 0.211l1.261 0.027l1.702 0.033l5.878 0.103l1.471 0.032l5.18 0.091l1.324 0.037l2.248 0.011l2.749 0.033l1.665 0.026l11.887 0.241l3.873 -0.03l1.747 0.034l6.191 0.122l0.273 -30.868l-2.37 -0.023l0.011 -35.22l-70.235 -0.183z" />
  </g>
  <g data-id="147">
    <path d="m265.55 52.103l-0.026 72.75l72.456 0.342l0.031 -54.901l-0.059 -18.182l-72.402 -0.008z" />
  </g>
  <g data-id="149">
    <path d="m0 161.065l1.196 2.51l1.112 -0.086l0.04 2.346l-0.82 1.139l1.576 1.814l1.441 1.177l2.118 1.267l1.659 0.301l1.588 0.923l1.111 1.344l1.158 1.474l2.111 1.613l1.377 1.268l-0.091 1.535l1.8 1.445l1.604 2.248l0.065 1.137l0.992 2.564l0.741 1.616l0.688 2.277l-0.131 1.015l0.979 1.091l0.504 1.464l0.7 1.009l-1.868 2.374l15.057 -0.243l25.771 0.12l3.007 -0.105l36.294 0.175l18.191 0.097l0.088 -72.995l-18.154 -0.142l-86.156 0.206l0.208 1.658l1.096 0.62l0.389 1.281l-1.237 0.25l-0.532 2.558l-1.314 0.842l-0.628 2.251l0.602 1.358l0.344 1.257l-1.004 0.762l-0.205 1.213l-1.291 0.523l-1.659 0.465l-1.295 -0.197l0.302 1.967l-1.027 2.043l-1.008 0.758l-0.712 1.037l0.488 1.952l-0.429 1.707l-1.122 1.093l-2 0.581l-0.969 1.204l-0.697 1.203l-1.041 1.089l0.147 1.428l0.266 2.333l-0.831 1.964z" />
  </g>
  <g data-id="151">
    <path d="m265.524 124.853l-0.092 73.187l72.536 0.306l-0.009 -18.043l0.02 -55.108l-72.456 -0.342z" />
  </g>
  <g data-id="153">
    <path d="m434.483 342.803l0.106 12.273l0.109 35.248l0.004 3.728l0.002 2.966l3.639 0.006l0.013 3.297l0.004 10.489l-0.014 4.412l9.024 -0.035l5.209 0.022l5.964 -0.017l2.218 -0.006l10.399 0.092l5.109 0.1l15.824 0.734l2.836 -0.792l1.63 1.211l-0.308 2.709l2.485 -1.947l0.208 3.122l2.263 -1.853l1.736 1.913l2.805 -2.166l1.807 3.058l1.905 -1.833l-0.032 -3.472l-0.01 -19.187l-3.077 0.031l0.115 -54.037l-35.84 -0.024l-16.487 -0.032l-1.538 0l-18.107 -0.01z" />
  </g>
  <g data-id="155">
    <path d="m95.372 420.128l0.527 1.329l0.713 1.097l1.085 0.794l2.106 0.404l1.239 0.122l1.464 0.505l1.226 0.782l1.302 0.143l1.623 -0.688l1.487 0.2l1.706 1.193l0.836 1.604l-0.046 1.491l-1.558 2.136l-0.245 2.415l0.37 1.43l-0.137 1.841l-0.94 2.008l-0.006 1.109l0.268 1.35l0.908 1.948l-0.261 2.091l-1.538 1.475l-1.723 0.82l-0.692 1.639l0.554 1.148l0.954 1.188l1.169 1.065l2.093 1.373l1.831 0.409l2.231 -0.205l1.631 0.43l1.616 1.352l0.538 1.106l0.492 2.314l-0.196 1.175l-0.635 1.016l-2.04 1.39l-1.372 -1.137l-0.803 -1.973l0 -1.249l-2.462 -0.307l-1.108 0.553l-0.323 1.249l0 1.474l0.71 2.154l0.475 2.042l0.092 1.249l0.647 1.781l0.876 2.413l0.077 1.268l-0.647 1.8l-1.508 2.414l-0.4 1.841l0.231 1.329l1.184 1.84l1.323 0.47l6.908 -0.797l1.231 0.245l1.015 0.47l1.37 2.004l-0.754 1.696l-1.015 0.266l-1.89 -0.491l-1.053 -0.065l-1.388 1.605l76.403 0.053l35.155 0.158l0.086 -69.826l0.088 -1.063l-17.637 -0.095l-35.177 -0.083l-50.012 -0.101l-26.635 -0.081l-1.717 1.916l-1.331 1.021z" />
  </g>
  <g data-id="157">
    <path d="m595.987 343.019l-0.117 53.813l1.491 -0.012l0.086 19.042l17.579 -0.072l35.426 -0.083l17.617 -0.05l-0.261 -54.827l0.158 -17.896l-71.979 0.084z" />
  </g>
  <g data-id="159">
    <path d="m333.699 540.461l-0.067 66.737l1.712 -0.025l4.671 -0.019l10.988 -0.065l3.323 -0.018l1.837 -0.005l2.16 -0.01l2.448 0.037l1.148 -0.036l8.479 -0.078l21.717 -0.2l1.634 -0.001l7.128 -0.139l2.868 -0.067l0.106 -65.608l-70.154 -0.503z" />
  </g>
  <g data-id="161">
    <path d="m192.579 197.74l0.087 18.149l10.014 0.012l-0.175 54.913l35.794 0.109l35.762 0.148l0.265 -55.016l-8.892 -0.04l0 -17.976l-72.854 -0.299z" />
  </g>
  <g data-id="163">
    <path d="m883.33 361.801l-0.228 35.9l17.853 0.124l-0.336 26.879l-0.044 2.641l1.338 0.334l4.221 0.335l1.939 -0.102l2.153 -0.435l3.444 -0.512l1.571 -0.39l2.233 -0.86l1.569 0.041l1.6 -0.308l2.401 -2.299l1.185 -1.109l2.154 -1.294l1.939 -1.89l0.585 -2.424l1.062 -1.027l2.031 -0.843l1.677 -0.247l2.293 -1.624l1.649 -0.274l1.92 0.13l3.062 1.11l1.923 0.308l1.646 -0.041l2.4 -0.308l1.985 -0.781l2.493 -2.59l1.046 -1.644l0.877 -1.11l1.164 -0.64l1.437 -2.115l1.554 -1.17l1.2 -0.743l2.554 -0.905l2.646 -0.617l3.216 -1.687l0.57 -2.222l-0.585 -8.69l-0.019 -1.257l1.034 -3.619l0.339 -3.095l2.246 -2.093l0.805 -1.053l0.295 -1.565l-0.019 -1.051l-0.697 -2.227l0.164 -2.175l-2.695 -2.169l-4.662 2.392l-3.918 -1.885l-2.814 1.578l-0.577 -2.338l-2.02 0.933l0.094 -2.979l-4.181 -2.867l-1.09 1.278l-2.332 -3.136l-3.411 1.563l-6.394 -2.176l-0.842 2.169l-5.587 1.401l-2.045 -2.374l-3.682 2.924l-2.204 -1.833l-3.196 2.05l-0.92 -1.788l-4.3 1.419l-1.181 2.937l-3.207 1.729l-2.827 -0.579l-3.194 -2.395l-1.361 -2.85l-3.122 -1.071l-17.877 -0.698z" />
  </g>
  <g data-id="165">
    <path d="m166.536 342.797l-0.133 53.824l9.285 0.01l-0.031 19.791l35.177 0.083l17.637 0.095l17.532 0.107l0.003 -20.038l-7.965 0.02l-0.052 -53.876l-35.691 -0.154l-35.762 0.139z" />
  </g>
  <g data-id="167">
    <path d="m10.541 55.502l0.414 1.564l1.241 1.549l1.885 -0.569l1.246 0.257l2.035 0.344l0.909 1.231l1.309 -0.067l1.8 -0.467l2.384 -0.721l1.318 0.458l0.698 2.635l-0.249 2.273l-0.009 1.891l0.774 1.114l0.232 4.317l0.116 2.907l1.009 1.426l1.479 0.27l1.066 1.774l0.111 1.051l0.294 1.204l0.226 1.942l-1.354 1.994l-1.905 2.004l-0.326 1.122l1.123 0.313l0.177 1.001l-0.157 1.754l-0.46 1.579l-1.54 1.2l-1.338 -0.11l-1.51 1.45l-2.311 1.445l-1.103 -0.285l-1.464 1.666l1.05 0.45l0.123 1.69l-0.154 1.284l1.322 1.261l1.353 1.106l0.422 1.019l-0.411 1.66l-1.29 1.001l-1.117 0.408l-0.341 1.327l-0.695 1.548l0.123 1.803l1.504 0.323l0.898 2.514l-1.194 2.283l-1.049 1.022l-1.639 1.714l-2.394 2.315l0.133 1.225l0.368 1.672l86.23 0.197l18.154 0.142l-0.088 -18.407l-0.302 -55.001l-27.27 -0.28l-9.063 0.315l-70.296 -0.549l0.451 1.876l-1.101 1.259l-1.847 1.308z" />
  </g>
  <g data-id="169">
    <path d="m452.535 271.145l-0.05 36.254l0.098 17.406l0 13.868l0.006 4.139l1.538 0l16.487 0.032l35.84 0.024l17.859 0.081l0.021 -71.71l-35.59 -0.086l-18.249 0.025l-17.96 -0.032z" />
  </g>
  <g data-id="171">
    <path d="m595.666 252.991l0.096 17.988l0.178 36.321l0.047 35.72l71.979 -0.084l-0.097 -90.121l-18.179 0.051l-17.933 0.059l-36.091 0.067z" />
  </g>
  <g data-id="173">
    <path d="m263.283 540.226l-0.011 35.22l2.37 0.023l-0.273 30.868l2.069 0.039l11.953 0.189l1.934 0.083l5.723 0.112l8.819 0.157l5.241 0.084l7.78 0.122l5.851 0.045l7.977 0.032l1.273 0.014l6.862 0.006l2.78 -0.024l0.067 -66.737l-70.416 -0.234z" />
  </g>
  <g data-id="175">
    <path d="m333.726 487.829l-0.027 52.632l70.154 0.503l0.094 -52.97l-34.994 -0.076l-35.227 -0.088z" />
  </g>
  <g data-id="177">
    <path d="m686.289 540.416l-0.109 60.763l12.83 -0.264l2.029 -0.084l2.104 -0.107l6.135 -0.191l4.764 -0.146l4.261 -0.138l3.582 -0.073l1.295 -0.137l10.907 -0.387l5.526 -0.352l1.178 -0.08l1.671 -0.068l2.129 -0.087l2.187 -0.108l8.739 -0.436l1.393 2.455l0.284 -7.515l-0.089 -35.517l0.093 -17.808l-17.637 -0.015l-53.274 0.294z" />
  </g>
  <g data-id="179">
    <path d="m615.317 487.066l0.195 53.52l17.59 -0.047l53.186 -0.123l-0.139 -53.629l-17.841 0.073l-17.586 0.074l-35.406 0.132z" />
  </g>
  <g data-id="181">
    <path d="m438.346 415.221l0.001 6.649l0.007 11.161l0.067 18.033l0.144 35.852l35.639 0.156l17.815 0.15l17.521 -0.025l-0.08 -67.663l-1.905 1.833l-1.807 -3.058l-2.805 2.166l-1.736 -1.913l-2.263 1.853l-0.208 -3.122l-2.485 1.947l0.308 -2.709l-1.63 -1.211l-2.836 0.792l-15.824 -0.734l-5.109 -0.1l-10.399 -0.092l-2.218 0.006l-5.964 0.017l-5.209 -0.022l-9.024 0.035z" />
  </g>
  <g data-id="183">
    <path d="m722.141 415.461l0.073 71.139l17.73 0.417l17.585 -0.26l35.437 0.082l0.053 -17.841l0.212 -35.696l-2.57 -4.685l0.163 -2.687l-2.519 -1.934l2.14 -1.696l-0.676 -4.786l-1.859 0.714l-0.192 -2.822l-47.603 -0.092l-17.972 0.145z" />
  </g>
  <g data-id="185">
    <path d="m474.359 540.706l-0.055 64.585l1.325 -0.037l3.094 0.01l9.43 0.06l3.865 0.031l10.367 -0.085l4.453 -0.036l4.283 -0.032l8.769 -0.026l19.203 -0.417l5.738 -0.227l0.14 -63.859l-35.359 0.115l-35.252 -0.084z" />
  </g>
  <g data-id="187">
    <path d="m337.96 180.303l0.009 18.043l-0.001 17.839l6.979 0.016l0.022 54.981l35.821 -0.158l28.451 0.015l7.416 -0.013l-0.016 -54.557l-6.141 -0.015l0.002 -17.963l-0.02 -18.094l-72.522 -0.096z" />
  </g>
  <g data-id="189">
    <path d="m410.629 0.337l0.01 33.333l0.043 18.368l72.739 -0.023l0.044 -51.646l-4.789 -0.003l-4.639 -0.01l-2.784 0l-6.216 -0.006l-4.831 -0.002l-7.818 -0.004l-1.45 0.003l-1.146 0l-8.044 0.003l-3.967 0.001l-27.151 -0.013z" />
  </g>
  <g data-id="191">
    <path d="m701.381 60.995l-0.026 27.446l73.21 0.24l0.202 -54.969l-1.052 -33.571l-1.012 -0.033l-1.263 -0.009l-1.328 0.053l-1.644 -0.011l-2.074 -0.001l-1.919 0.004l-4.597 -0.014l-4.534 -0.021l-1.266 0.033l-3.534 -0.024l-2.504 -0.016l-4.19 -0.002l-3.065 0.006l-4.014 0.006l-13.985 0.021l-1.237 0.015l-19.989 -0.034l-0.177 51.867l-0.003 9.011z" />
  </g>
  <g data-id="193">
    <path d="m21.648 197.93l3.391 0.993l-0.002 2.014l-0.115 2.263l-0.323 1.253l-0.015 1.127l-1.676 0.807l0.109 1.646l1 0.437l1.577 1.42l2.614 2.308l1.668 0.386l3.326 0.344l1.599 0.207l2.663 0.808l1.567 2.007l0.723 2.67l0.185 2.127l-0.092 1.063l-0.554 1.897l-0.508 1.001l-3.723 4.502l-0.569 2.209l0.081 1.428l0.897 2.489l0.11 1.124l-0.855 2.116l-0.604 1.506l0.021 1.509l0.599 1.677l0.907 1.246l1.805 1.364l1.862 1.037l1.363 1.568l0.821 1.552l0.224 1.509l0.008 2.449l0.41 1.242l0.768 1.249l2.977 2.236l1.557 2.014l0.557 1.962l-0.192 1.685l0.937 1.714l-1.412 2.504l-1.083 0.726l-2.693 0.603l16.178 0.111l89.331 0.672l0.24 -54.795l-11.163 -0.046l0.032 -18.039l-18.207 0.139l-18.191 -0.097l-36.294 -0.175l-3.007 0.105l-25.771 -0.12l-15.057 0.243z" />
  </g>
  <g data-id="195">
    <path d="m483.466 0.369l-0.044 51.646l36.504 0.06l18.279 0.017l18.066 -0.091l-0.031 -51.656l-3.823 0l-18.46 0.001l-9.183 0l-6.606 0.045l-19.576 -0.027l-4.535 0.001l-6.162 0.001l-2.068 -0.002l-2.36 0.006z" />
  </g>
  <g data-id="197">
    <path d="m410.483 180.398l0.02 18.094l72.634 0.092l0.134 -73.482l-72.715 0.158l-0.073 55.139z" />
  </g>
</svg>
