<?xml version="1.0" encoding="UTF-8"?>
<!DOCTYPE svg PUBLIC '-//W3C//DTD SVG 1.1//EN' 'http://www.w3.org/Graphics/SVG/1.1/DTD/svg11.dtd'>
<svg viewBox="0 0 10000 6461.44" xmlns="http://www.w3.org/2000/svg">
  <g data-id="001">
    <path d="m2983.4 4168.2l0 0l0.8 355.1l-0.8 353.9l353.8 1.1l352.3 0.9l0.1 -710l-706.2 -1z" />
  </g>
  <g data-id="003">
    <path d="m2633.5 5228l0 0l-0.6 174.3l704.2 2.3l0.3 -526.3l-353.8 -1.1l-6.8 0.4l-342.5 -1.2l-0.7 351.6z" />
  </g>
  <g data-id="005">
    <path d="m7737.2 1.4l0 0l10.5 335.7l-2 549.7l658.6 3l3.1 -49.6l-3.9 -31.5l-0.8 -13.2l0.5 -8.2l1.4 -6.3l2.7 -5.9l7.5 -5.7l15.3 -6.7l6.5 -5l15.4 -19.9l4.5 -8.5l3 -15l4.2 -13.6l4.2 -7.2l2.7 -2.1l15 -28.4l0.8 -11.9l2.7 -7.8l4.7 -6.6l8.3 -5.4l9 -7.7l31.5 -32.3l12.6 -13.4l11.4 -14.6l8.4 -8.7l5.9 -8.2l4.4 -11.4l2.7 -11.4l-0 -3l-1.1 -4.9l-1.7 -2.9l-3.2 -1.9l-12.5 -0.7l-2.7 -1.6l-1.5 -2.4l-0.2 -4.7l1.9 -8.1l-0.2 -6.8l-3.1 -7.1l-9.5 -17l-8.9 -19.2l-33.2 -46l-16 -12l-17.6 -14.8l-5.7 -3.6l-7 -3.7l-26.9 -10.7l-25 -13l-15.5 -10.5l-10.6 -3.5l-21.3 -3.2l-3.3 -1.6l-4.1 -5.7l-12.5 -28.3l-0.3 -4.5l2.5 -4.4l9.2 -7.5l2 -2.8l1.9 -8.3l6.4 -14.9l2.7 -8.3l2 -11.6l-0.6 -8.2l-2.1 -8.1l-1.7 -11.6l0.3 -8.9l-1.3 -6.8l-3 -8.3l-3.7 -6.7l-2.5 -4.4l-33.2 -43.4l-5.4 -11.5l-1.7 -8.9l0.3 -5.5l1.5 -4.7l4.2 -5.5l7.6 -6.2l6.4 -12.3l6.7 -20.9l1.2 -7.8l-3.6 -13.2l-1 -13.2l0.9 -7l-44.6 0.1l-23.2 -1.1l-165.5 0.4l-3.5 -0.3l-8.2 1l-31.3 -0.9l-68.4 1l-6.4 -0.3l-23.8 -0.1l-5.6 0.1l-40 -0.2l-65.8 0.3l-11.4 0.1l-15.1 -0.1l-61.6 0l-30.4 0z" />
  </g>
  <g data-id="007">
    <path d="m5449.7 5406.7l0 0l0.5 638.5l18.1 -0.8l196.6 -6.1l24.9 -0.6l58.5 -0.2l21.2 -0.4l16.3 -0.6l24.8 0.3l8.7 -0.4l34.3 -0.3l10.9 -0.1l-0.1 -0.2l108.7 -0.6l23.3 -0.6l42.5 -0.7l38.1 -0.6l4.9 0.2l73 -2.1l2 -0.1l-1.8 -625.5l-705.4 0.9z" />
  </g>
  <g data-id="009">
    <path d="m2379.9 3428.1l0 0l0.5 538.8l79.7 -0.2l-0 200.4l176 0.3l347.3 0.8l-0.2 -201.6l-66.9 -0l-1 -536.5l-535.4 -2z" />
  </g>
  <g data-id="011">
    <path d="m6678.7 2528.1l0 0l1 901.2l539.2 1.9l179 0l-2.9 -180.9l-3 -181.3l6.4 -544.1l-180 3.3l-179.5 0.5l-360.1 -0.6z" />
  </g>
  <g data-id="013">
    <path d="m6285.3 1809l0 0l0.3 180.7l-0 180l31.3 0l0.8 359.5l179.3 -0.6l181.8 -0.5l360.1 0.6l0 -3.9l0.9 -352.2l-26.6 0.1l-0.3 -363.1l-727.5 -0.5z" />
  </g>
  <g data-id="015">
    <path d="m3807.9 2710.2l0 0l0.9 718.1l178.6 0.2l357.4 -0.6l181.1 0.1l-0.1 -41.4l-0 -138.7l-1 -174.1l0.5 -362.5l-358.8 -1.2l-74.2 0.1l-284.5 -0.2z" />
  </g>
  <g data-id="017">
    <path d="m6285.3 1625.2l0 0l0 183.8l727.5 0.5l0.1 -555.4l-727.2 -0.2l-0.4 371.2z" />
  </g>
  <g data-id="019">
    <path d="m7012.8 1809.5l0 0l0.3 363.1l26.6 -0.1l-0.9 352.2l-0 3.9l179.5 -0.5l180 -3.3l360.2 5.5l-0.6 -360l-17.1 -0.1l2.2 -364.9l-730.2 4z" />
  </g>
  <g data-id="021">
    <path d="m1925.5 1248.1l0 0l0.3 729.3l728.5 3l0.9 -731.9l-729.7 -0.4z" />
  </g>
  <g data-id="023">
    <path d="m5561.2 1253l0 0l-2.9 734.7l183.2 1.3l544.1 0.7l-0.3 -180.7l-0 -183.8l0.4 -371.2l-724.6 -0.9z" />
  </g>
  <g data-id="025">
    <path d="m2654.3 1980.4l0 0l-0 179.8l88.9 0.4l-2.7 550.2l353.3 0.6l355.8 0.5l-0.2 -549.8l-69.8 -0.2l0 -178.4l-725.4 -3.1z" />
  </g>
  <g data-id="027">
    <path d="m2383 2709.2l0 0l-3.1 718.9l535.4 2l178.7 -0.8l-0.1 -718.1l-353.3 -0.6l-357.6 -1.5z" />
  </g>
  <g data-id="029">
    <path d="m2283.8 4176.6l0 0l-0.9 698.3l351.2 1.5l342.5 1.2l6.8 -0.4l0.8 -353.9l-0.8 -355.1l-347.3 -0.8l-176 -0.3l-175.3 -1.1l-0.9 10.6z" />
  </g>
  <g data-id="031">
    <path d="m8113.5 3435l0 0l-0.3 539.5l505 2l50.7 0l162.2 0.5l2.3 -359l-0.2 -361.2l-719.1 -2.4l-0.5 180.6z" />
  </g>
  <g data-id="033">
    <path d="m4834.2 520.2l0 0l-1.5 730.9l364.2 1.6l182.7 0.2l181.6 0.2l1.6 -642.8l-0.1 -90.2l-180.7 0.9l-182.8 -0.2l-365 -0.6z" />
  </g>
  <g data-id="035">
    <path d="m1200.6 1249.8l0 0l-0.9 730l182.1 -1.4l544 -1l-0.3 -729.3l-725 1.7z" />
  </g>
  <g data-id="037">
    <path d="m6285.5 610.2l0 0l0.3 643.7l727.2 0.2l0.6 -369.8l0.3 -274.5l-728.4 0.3z" />
  </g>
  <g data-id="039">
    <path d="m4039.5 4879.9l0 0l-0.9 529.7l169 0.7l185.5 -5.5l350.5 2.2l-1.6 -536.3l-356.4 -1.6l-168.7 11.1l-177.5 -0.3z" />
  </g>
  <g data-id="041">
    <path d="m1925.7 520.7l0 0l-0.2 727.4l729.7 0.4l0.3 -727.5l-729.8 -0.4z" />
  </g>
  <g data-id="043">
    <path d="m7740.9 1452l0 0l2.1 353.6l729.7 -3.9l362.1 0.3l0.8 -61.8l-5.2 -2.1l-20.2 -14l-11.9 -5.1l-3.8 -0.2l-9.6 2.9l-11 1.5l-7 -0.9l-11.8 -3.6l-4.9 -2.5l-19.4 -13.5l-14.1 -4.2l-5.4 -3.3l-4.4 -4.4l-12.6 -20.5l-10.4 -10.4l-7.1 -5.2l-14.5 -8.2l-9.4 1.9l-2.4 -0.7l-14.7 -9.8l-4.5 -5.3l-1.6 -6.1l-0.4 -6l-1.6 -4.1l-5.2 -6l-6.1 -2.4l-7.3 -0.3l-3.7 3l-5.2 0.5l-2 -0.2l-3.8 -2.6l-1.6 -4.8l-0 -8.7l-2.3 -5.6l-2.8 -4l-3.2 -2.6l-6.9 -0.9l-1.7 -5.2l0.4 -7.7l3.6 -0.4l2.6 -1.5l2 -4.2l-0.2 -3.9l-4.6 -4.4l-9.7 -11.9l-1.8 -12.3l-0.6 -15.7l-2 -9.9l-4.7 -16.2l-4 -23.2l-1.9 -28.9l1 -15.5l-6.3 -4.8l-11.3 1.6l-6 -3.3l-1.6 -8.7l5.7 -31.3l-0.7 -2.9l-5.4 -8.6l-3.6 -9.6l-1.8 -9.6l0.9 -23.9l-3.6 -15.3l-5.4 -6.1l-12.5 -10.9l-5.2 -7.4l-2.9 -2.4l-31.7 -16.7l-8.3 -1.9l-2 -2.7l-1.3 -4.2l-0.9 -3.9l-0 -5.2l0.5 -5.5l3.1 -11.9l0.1 -4.7l-0.8 -7.8l-1.8 -8l-6.6 -20.7l-0.1 -3.6l1.2 -9.7l5.5 -20.9l0.2 -3.6l-1.7 -10.8l-2.2 -5.9l-4.5 -9.2l-7.1 -11.1l-1.6 -5.2l-0.3 -20.2l-0.1 -0.7l-1 -7l-16.6 -58.8l-9.9 -40.6l-5.2 -49.1l0.3 -4.6l-2.4 -6.8l1.1 -6.6l2.3 -5.1l0.1 -15.3l-658.6 -3l-0.7 186.1l-2.5 361.9l1.1 5l-2.8 12.1z" />
  </g>
  <g data-id="045">
    <path d="m8833.3 3076.1l0 0l-0.2 180.7l0.2 361.2l172.6 0l6.2 6.9l31.2 10.7l13.6 28.5l31.9 23.9l28.3 5.8l32.1 -17.3l11.8 -29.4l43 -14.2l9.2 17.9l32 -20.5l22 18.3l36.8 -29.2l20.4 23.7l55.9 -14l8.4 -21.7l63.9 21.8l34.1 -15.6l23.3 31.4l10.9 -12.8l41.8 28.7l-0.9 29.8l20.2 -9.3l5.8 23.4l28.1 -15.8l39.2 18.9l46.6 -23.9l26.9 21.7l1.8 -11.1l6.9 -16.4l12.2 -16.1l37.2 -35.7l23.6 -9.8l7.2 -6.6l15.4 -9.3l9.6 -6.5l0 -0l31 -21l8.3 -4.5l44.5 -16.2l9.2 -8.1l1.6 -4.7l0.5 -5.4l-1.7 -21.9l-3.5 -21.6l0.3 -6.5l2.9 -14.4l0.8 -3l9.8 -18.6l3.1 -7.8l0.4 -18.1l4.2 -21.3l7.7 -15.2l12.4 -29.4l5.3 -17.8l0.3 -18.6l2.3 -27.6l0.4 -4.3l-1.6 -4.3l-6.5 -10.6l-5.8 -5.5l-4.9 -8.5l-1.7 -8.1l1.2 -15.1l3.1 -10.6l12.8 -26.5l8.1 -8.6l3.7 -6.3l0.3 -14.1l8.3 -16.3l0.8 -15l-1.7 -11.8l-4 -12.3l-6.6 -10.6l-1.6 -5.5l-1 -8l-1.8 -6l-1 -2.5l-4.1 -5.1l-606.9 0.5l-538.1 -1.5z" />
  </g>
  <g data-id="047">
    <path d="m1490.7 2707.2l0 0l-3 721.4l177.7 -0.6l357.6 -1.4l356.9 1.5l3.1 -718.9l-357.9 -1.1l-534.4 -1z" />
  </g>
  <g data-id="049">
    <path d="m3630 3428.9l0 0l0.4 539.5l59.5 0.7l-0.4 200l530.5 1.2l163.4 -18.1l0.1 -44.1l-0 -104.9l-0.1 -33l-36.4 -0.1l-0 -29.7l-0 -37.3l-1.1 -352.5l-1.1 -122.7l-357.4 0.6l-178.6 -0.2l-178.8 0.5z" />
  </g>
  <g data-id="051">
    <path d="m6155.1 5405.9l0 0l1.8 625.5l88.7 -2.6l147.2 -5.6l3.4 0.1l1.1 -0.1l30.9 -0.8l12.1 0.1l113.9 -2.5l44.4 -1.5l0 -0l29.7 -0.9l0.4 -0.2l49.9 -1.3l95.8 -2.2l29 -0.6l24.5 -0.3l8.5 -0.2l25.2 -0.9l1.1 -607.6l-531.9 1.2l-175.9 0.5z" />
  </g>
  <g data-id="053">
    <path d="m4038.5 5409.6l0 0l-1.1 656.1l59.6 -1.5l19.9 -0.2l36.9 -0.9l1.9 -0.2l2.4 -0.3l1.2 0.3l1 -0.1l33.4 -0.7l20.1 -0.4l2.4 -0.1l1.5 -0.1l68.7 -1.2l19.6 -0.4l34.2 -0.6l5 -0.4l63.3 -0.6l6.3 -0.1l30.8 -0.2l11.5 0.4l8.5 -0l13.7 -0l9.1 -0.2l49.4 -0.5l20.4 -0.5l12.7 -0.2l10.7 -0.2l4.1 0l4.7 -0l90.6 -2.3l47.9 -1.3l0.6 0.1l0.9 -0.1l6.8 -0.3l2.9 0.2l3.1 -0.1l0.6 -645.8l-350.5 -2.2l-185.5 5.5l-169 -0.7z" />
  </g>
  <g data-id="055">
    <path d="m7743 1805.5l0 0l-2.2 364.9l17.1 0.1l0.6 360l359.6 -0.1l358.8 1.4l-0.6 -180.8l-0.6 -184.7l-2.9 -364.7l-729.7 3.9z" />
  </g>
  <g data-id="057">
    <path d="m8104.5 5581.3l0 0l-57.5 -0.6l70.1 45.2l108.4 36.8l19.7 39.2l34.7 2.5l62.9 40.1l11.6 37.1l41.5 12l9.3 -26.4l50.8 32.9l7.2 8.5l40.6 9l0.8 -1.5l1.6 -12.7l-0.3 -10.2l-4.3 -22.8l-2 -4.8l-0.9 -6.6l8.2 -41.3l3.4 -11l8.8 -12.5l6.7 -12.5l3 -7.9l6.8 -25.5l0.7 -14.3l-1.6 -12.6l-7.3 -19.4l-1 -6.3l1.2 -12.3l5.9 -19.2l4.5 -7.2l19.3 -17.8l15.9 -17.5l12.9 -8.8l3.6 -4.2l9.5 -20.6l4.5 -12.5l4.1 -7.5l8.5 -10.6l3.6 -3l14.3 -8.4l9.1 -9.9l12.8 -25.6l2.2 -3.1l3.5 -4.9l9.2 -9.3l7.7 -6.1l20.1 -8.2l9.6 -6.9l15.7 -7.3l5.6 -5.1l3.7 -6.8l3.8 -23.2l12.7 -36l0.4 -8.5l-1.2 -7.8l-3.7 -15.8l-4.6 -13.8l-0.1 -6.4l4.5 -14.3l8.6 -17.2l5.7 -22.9l1.4 -11.1l-0.4 -15l4.7 -31.5l-0.1 -7.7l-2 -20.7l-1.4 -7.4l-1.5 -19.3l-5.3 -17.4l-0.2 -0.7l-0.4 -4.3l-648.2 -2.9l-2.1 532.6z" />
  </g>
  <g data-id="059">
    <path d="m1926.4 336.7l0 0l-0.8 184l729.8 0.4l-0.4 -182.7l-1 -336.8l-0.4 0l-0.1 0l-30.3 -0.1l-30.5 0l-30.6 -0.1l-30.9 -0l-30.4 -0.7l-30.4 0.1l-30 0.1l-1.2 -0.2l-93.2 0.4l-11.9 -0.2l-49.7 0.6l-19 -0.7l-0.9 -0.2l-19.3 0.2l-53.1 -0.2l-46 -0.7l-9.1 1.7l-0.3 -0.1l-190.4 0.3l-0.8 -0l-19.3 0.2l0.3 334.7z" />
  </g>
  <g data-id="061">
    <path d="m8472.7 1801.6l0 0l2.9 364.7l0.6 184.7l0.6 180.8l357 1.1l357.7 1.1l0.8 -182l294.2 1.5l-0.5 -0.6l-4.9 -4.3l-4.4 -1.7l-6.9 0.2l-3.9 -1.3l-4.9 -4.1l-8.4 -11.1l-6.7 -6.5l-10.3 -6.8l-16.4 -8.8l-47 -21l-10.7 -6.3l-3.9 -6.5l-1 -3.6l-1 -15.7l-2.5 -9.1l-7.4 -12.2l-4.2 -3.4l-4.3 -2.7l-17.5 -5.7l-12.8 -6.4l-24.5 -8.4l-27.7 -15.4l-25.5 -20.1l-9 -7.1l-11.2 -13.8l-3.5 -10.6l-0.3 -11.7l0.9 -5.2l0 -0.1l11.2 -13.4l8.9 -21.7l9.1 -9.9l0.3 -11.5l-6 -18.8l-5.1 -26.5l-2.6 -7.7l-13.1 -12.1l-7.7 -16.7l-3.7 -21.1l-17.2 -18l-6.7 -5.5l-3.6 -4.8l-9.4 -16.9l-2.3 -4.5l-1.2 -5.9l-0.3 -9.6l-6.2 -23.3l-3 -8.7l-9.4 -16.6l-1.2 -8.3l-2.8 -9l-5.6 -7.1l-4.5 -4l-16.9 -9.8l-16.8 -5.6l-19.3 -4.4l-25.7 -7.5l-14 -4.8l-14.2 -3.2l-14.6 -1.9l-13.5 -3.9l-54.9 -12.3l-17.2 -2.9l-13.2 -3.7l-22.5 -8.2l-31.2 -7.8l-14.6 -5.8l-0.8 61.8l-362.1 -0.3z" />
  </g>
  <g data-id="063">
    <path d="m2654.3 1.6l0 0l-0.2 0l1 336.8l0.4 182.7l724 0.1l0.4 -519.8l-6.5 -0.1l-36 0.6l-139.1 -0.1l-7.4 0.1l-77.3 -0.5l-367.2 -0.1l-5.1 -0l-3.6 0.1l-19.3 -0l-2.3 0l-20.1 0.1l-41.9 0.1z" />
  </g>
  <g data-id="065">
    <path d="m7012.9 1254.2l0 0l-0.1 555.4l730.2 -4l-2.1 -353.6l2.8 -12.1l-1.1 -5l2.5 -361.9l0.7 -186.1l-732.1 -2.4l-0.6 369.8z" />
  </g>
  <g data-id="067">
    <path d="m5562.8 610.2l0 0l-1.6 642.8l724.6 0.9l-0.3 -643.7l-722.7 0z" />
  </g>
  <g data-id="069">
    <path d="m4832.7 1251l0 0l-1.3 734.8l726.9 1.9l2.9 -734.7l-181.6 -0.2l-182.7 -0.2l-364.2 -1.6z" />
  </g>
  <g data-id="071">
    <path d="m1155.5 5736.4l0 0l-0.3 9l5.5 21.8l3.3 7.1l9.5 6.7l2.7 0.3l7.4 3.3l17.1 9l10.4 11.8l4.3 8.4l2.9 8l2.9 23.5l1.9 5.6l3.1 4.8l16.3 12.8l2.1 1.2l12.2 6.9l13.5 3.4l15.1 1.4l13.6 5.1l9.2 6.1l4.5 4.3l7.2 8.1l8.7 11.8l5.3 10.1l2.3 6.3l1.4 8.3l0.6 22l1.8 6.4l3.2 5l3.7 3.4l9.8 6.8l10.4 9.5l2.4 4.5l1.6 7.1l-0.4 6.9l-1.8 5.9l-4.8 8.5l-8.8 7.8l-10.4 7.6l29.5 0.6l90.7 1.1l0.1 0l70.2 0.3l47.3 1.5l57 1.1l29.4 0.7l33.5 0.8l10 0.2l2 0.1l86.3 1.1l82.9 1.1l63.8 1l0.1 -152.1l5 -147.5l-22.5 -0.3l0.4 -352l-491.3 1l-167.9 -1.3l4 7.7l1.7 5l0.5 8.6l-1.9 9.3l-2.1 5l-5.9 8.9l-5.6 4.9l-8.3 5l-21.1 5.7l-5.8 3.9l-2.4 2.1l-4.4 7.1l-1.3 2.9l-1.2 6.6l0.2 5l2.2 9l8.9 17.4l6.3 20.9l-0.2 8.5l-2 10.1l-8.2 17.3l-1.4 4.8l-0.8 8.1l2.5 15.3l12.2 26.7l2 5.8l0.5 8.1l0.1 1.6l-1.7 7.9l-2.6 5.4l-3 3.9l-6.1 7l-5.8 5l-9.5 6.1l-13.7 5.6l-12.7 6.6l-5.2 4.1l-8.8 9.2l-7.1 10.7l-4.7 11.6l-3.1 11.8z" />
  </g>
  <g data-id="073">
    <path d="m3093.9 2711.3l0 0l0.1 718.1l536 -0.5l178.8 -0.5l-0.9 -718.1l-358.2 1.6l-355.8 -0.5z" />
  </g>
  <g data-id="075">
    <path d="m5558.3 1987.7l0 0l-0 179.6l37.1 0.2l0.8 181.7l1.1 362.3l360.3 -1.8l-1 -179.9l360.9 -0.7l-0.8 -359.5l-31.3 -0l0 -180l-544.1 -0.7l-183.2 -1.3z" />
  </g>
  <g data-id="077">
    <path d="m2915.3 3430.1l0 0l1 536.5l66.9 0l0.2 201.6l706.2 1l0.4 -200l-59.5 -0.7l-0.4 -539.5l-536 0.5l-178.7 0.8z" />
  </g>
  <g data-id="079">
    <path d="m4105 1984.9l0 0l-0 179.6l61.4 0.1l0.2 545.6l358.8 1.2l179.6 0.3l182.5 -0.2l0.2 -362.7l0.4 -181.6l-56.1 -0.4l-0.6 -181l-726.3 -0.9z" />
  </g>
  <g data-id="081">
    <path d="m4106.8 520.4l0 0l-1.3 732.2l727.1 -1.6l1.5 -730.9l-727.4 0.2z" />
  </g>
  <g data-id="083">
    <path d="m4831.4 1985.8l0 0l0.6 181l56.1 0.4l-0.4 181.6l-0.2 362.7l355.9 0.9l175.2 0.3l178.8 -1.1l-1.1 -362.3l-0.8 -181.7l-37.1 -0.2l0 -179.6l-726.9 -1.9z" />
  </g>
  <g data-id="085">
    <path d="m770.3 3422.1l0 0l5.8 6.6l7.1 4.8l11.4 4.6l10.8 7.7l3.4 3.6l5.7 8.8l3.4 9.2l0.2 8.4l-4.6 19.7l0.1 5.5l2.3 9.2l2.7 6.3l5.9 7.3l8.4 6.1l6.8 2.9l19.7 5.5l8.4 4.8l9.1 8.9l3.6 5.9l3.8 9.1l0.5 6.7l-2.9 8.4l-10.4 12.2l-6.7 10.7l-2.1 13.3l1 20.1l-2.5 7.6l-7.3 9.4l-10.8 6l-9 2.8l-8.1 5.6l-2.8 4.4l-2.8 13l0.2 6.8l1.1 6.1l4.6 7.5l23.1 12l12.2 8.7l7 9.7l2.7 5.3l1.4 3.9l0.3 4l-1.1 3.8l-4.4 6.9l-10 7.2l-12.5 1.5l-22.4 -5.1l-10.5 4.4l-8.9 7.3l-3.7 6.3l-1.9 5.4l-0.5 11.4l-0 0.5l1.1 10.1l4.4 7.1l4.8 6.5l5.4 5.5l17.9 15.5l2.9 4.8l3.9 12.2l0.6 11.1l-4.1 15.9l-4.6 8.5l-20.7 23.7l-3.2 4.9l-2.6 8.7l-0.2 7.9l0.8 7.2l2.7 8.7l3.1 7.2l6.8 11.1l7.6 7.6l4.6 3.3l19.7 8.4l4.5 3.6l3.6 5l2.4 6l1.1 6.4l-0 6.2l-1.9 6.3l-3.7 7l-10.8 13.9l-2.8 5.8l-3.4 15.2l-0.5 7.6l3.2 16.3l6.7 15.4l2.3 2.4l11.9 4.9l11.4 6.5l8.5 9.7l6 8.6l8.8 9.6l6.5 5.4l8.6 3.3l11.4 0.4l4 -1.9l2.3 -2.2l3.5 -7.8l5.7 -29.7l3.3 -25.3l1.8 -3l6.3 -6.7l5.4 -2.8l4.9 -0.7l9.9 1.1l7.6 3.1l6 5.9l2.5 5.1l8.7 31.4l1.9 12.6l0.1 6.4l-0.4 4.5l-1.7 4.6l-3.4 5.8l266.4 0.8l500.1 1l0.3 -197.9l-92.9 -0.1l1.3 -538.2l-177.7 0.6l-717.3 -6.5z" />
  </g>
  <g data-id="087">
    <path d="m7572 5401.4l0 0l-0.9 178.1l475.9 1.3l57.5 0.6l2.1 -532.6l0.6 -178l-177.6 -2.4l-354.4 -0.8l-3.3 533.8z" />
  </g>
  <g data-id="089">
    <path d="m6287.4 1.9l0 0l-1.9 608.3l728.4 -0.3l0 -90.1l1.8 -518.7l-0.2 -0l-15.4 -0.1l-21.4 -0.1l-115.4 0l-30.7 0.4l-121 0.1l-2.6 0.1l-138.2 -0l-29.8 -0.1l-27.4 0l-4.2 -0.3l-61.7 0.4l-23.9 0.2l-136.4 0.1z" />
  </g>
  <g data-id="091">
    <path d="m3379.8 1251.9l0 0l-0.2 551.1l725.2 1l0.7 -551.4l-725.8 -0.7z" />
  </g>
  <g data-id="093">
    <path d="m1381.8 1978.4l0 0l-0.3 180.4l111.6 0.5l-2.4 547.9l534.4 1l1.8 -549.1l-100.1 -0.1l-0.9 -181.5l-544 1z" />
  </g>
  <g data-id="095">
    <path d="m6679.7 3429.4l0 0l-1.6 179l2.6 548.3l540.7 -2l179.7 -1.5l3.3 -183l-6.6 -538.9l-179 -0l-539.2 -1.9z" />
  </g>
  <g data-id="097">
    <path d="m8833.8 2532.9l0 0l-0.5 543.2l538.1 1.5l606.9 -0.5l-7.1 -9.7l-7.1 -5.5l-1.6 -3.5l-1.2 -18.4l-0.4 -24.2l-4.3 -27.2l7.6 -24.5l2.9 -23.4l0.5 -15.5l-1.1 -15.4l-1.6 -6.1l-7.1 -11.9l-5.3 -5.6l-25.4 -0.5l-4.6 -0.7l-10.6 -4.9l-6.2 -5.8l-6.1 -16.9l-1.6 -13.3l-1.6 -7.5l-3.2 -7.4l-10.2 -8.4l-12.5 -6.8l-16.4 -11.2l-23.4 -12.5l-8.2 -0.7l-21 -5.6l-20.1 -9l-25 -18.1l-29.7 -12.9l-0.3 -0.2l-15.9 -14.8l-15.2 -4.7l-28.9 -4.4l-12.6 -10.6l-15.4 -8.9l-24.6 -22.2l-5.6 -7.5l-1.7 -8.5l-7.3 -12.8l-15.1 -17.6l-9 -8.2l-4.6 -5.8l-4.4 -11.3l-2.9 -13.4l-10.4 -24.7l0.2 -12.4l5.9 -13.5l4 -5.4l6 -25.1l0.2 -13.1l-1.1 -9.2l1.5 -3.3l4.5 -4.7l1.4 -2.9l0.4 -2.9l-0.9 -5l-3.8 -7.1l-3.6 -4.1l-6.2 -4.5l-8 -8.8l-20.5 -38.2l-3.8 -3.8l-9.9 -4.7l-15.2 -16.6l-3.3 -4.6l-8.4 -18.5l-5.4 -6.5l-294.2 -1.5l-0.8 182l-357.7 -1.1z" />
  </g>
  <g data-id="099">
    <path d="m5064.5 3428.7l0 0l-1.2 540.4l30.8 -0.3l0.1 191.9l231.3 -0.5l295.4 -0.4l176.8 -0.5l176.8 -0.6l-0.9 -190.4l-14.9 0.1l1.2 -538.1l-716.7 -0.7l-178.6 -0.8z" />
  </g>
  <g data-id="101">
    <path d="m6861.5 4867.9l0 0l1.4 536.3l532.7 -2.9l176.4 0.2l3.3 -533.8l-175.8 2.6l-177.3 -4.2l-360.6 1.9z" />
  </g>
  <g data-id="103">
    <path d="m7397.8 3431.3l0 0l6.6 538.9l-3.3 183l476 0.9l1.9 28.2l18.6 -7.1l6.8 47.9l-21.4 17l25.2 19.3l-1.6 26.9l25.7 46.8l177.7 1.4l3.2 -360l0.3 -539.5l-178 0.6l-178.4 -2l-359.2 -2.3z" />
  </g>
  <g data-id="105">
    <path d="m8115.7 2892.9l0 0l-1.6 361.5l719.1 2.4l0.2 -180.7l0.5 -543.2l-357 -1.1l-358.8 -1.4l-2.4 362.5z" />
  </g>
  <g data-id="107">
    <path d="m6504.5 4157.1l0 0l2.7 712.3l175.9 -0.7l178.4 -0.7l360.6 -1.9l-0.7 -711.4l-540.7 2l-176.2 0.5z" />
  </g>
  <g data-id="109">
    <path d="m3380 1.3l0 0l-0.4 519.8l0.6 181.8l-0.3 549l725.8 0.7l1.3 -732.2l-0.4 -183.7l-0.1 -333.3l-187.9 -1.5l-2.2 0l-21.1 0l-2.8 0l-212.5 -0.1l-199.2 -0.1l-20.2 -0.2l-80.4 -0.2l-0 -0z" />
  </g>
  <g data-id="111">
    <path d="m7571.1 5579.5l0 0l0.9 355.2l2.2 81.2l7.3 7.1l24.1 14l11.6 9.6l3.8 5.1l1.5 4l-0.5 4.3l-9 24.1l-0.1 5.4l1.2 4.7l3.2 5.1l10.7 8.8l16.5 4.2l25.6 3.5l25 7.4l19.9 4.1l5 2.4l2.8 3l1.6 3.5l1.5 10.2l-1.2 15.7l-5.2 18.7l-0.3 5.4l1.6 8.7l2.9 5.9l3.9 4.7l6.3 4.9l6.9 4.7l21.1 10.2l5.9 5.5l6.1 10.2l5.5 16.4l1.4 8.9l1.4 3.7l1.8 3.8l8.6 10.8l10.8 6.8l6 2.6l17.2 4.5l13.7 1.3l23.4 -1.7l3.8 0.8l1.6 1.6l1.9 3.1l1.2 8.2l-0.3 4.4l-1.2 3.3l-3.2 3.6l-8.9 7.9l-2.5 3.9l-0.1 5l1.3 3.1l5.7 5.1l6.4 1.6l7.8 -0.4l1.2 1.7l0.2 3.1l-3.7 9.7l-7.9 13.4l-0.8 6.4l1 6.6l2.8 5.3l3.5 2.3l6.1 2l6.8 0.3l7.6 3.6l2.5 2.5l1 2.4l2.3 1.7l11 3.2l6.8 -1l5.9 -3.8l2.1 0l1 0.9l-0.2 2.8l-1 5l6.3 32.5l29.8 -2.7l36.7 -2l24 7.6l5.1 3.1l4.5 5.4l5.7 -6.3l4.1 -1.8l24.6 -1.7l13.3 -3.6l9.8 -5.5l5.4 -4.1l4.1 -4.5l4.3 -14.6l0.6 -4.2l0.2 -20.8l-2 -13l-6 -17.1l-5.1 -18.3l-1.2 -14.5l0.5 -7l2.4 -12.3l2.7 -8.7l15.5 -36.9l4.9 -19.3l1.5 -12l0.3 -8.3l-0.8 -11.8l-5.6 -21.1l-1.8 -4.2l-19.7 -31.8l-4.1 -5.5l-5.4 -4.3l-9.9 -3l-9.6 -4.5l-5.2 -4.7l-3.2 -7.2l-1 -9.8l0.7 -8.7l1.7 -5.7l5.8 -9.8l33.4 -30.4l8.5 -16.5l22.1 -38.9l9.1 -9.6l8.1 -6.4l13.9 -7.7l51.1 -25.8l46.7 -12.2l17.3 -3.4l10.3 -5.6l8 -2.6l8 -0.9l45.3 -0.1l31.6 4.7l16.8 -2.4l2.4 -1.6l47.9 -31.5l25 -14.8l21.7 -16.8l2.3 -3.1l2.5 -4.3l1.8 -6.3l6.5 -32.3l4.6 -9l-40.6 -9l-7.2 -8.5l-50.8 -32.9l-9.3 26.4l-41.5 -12l-11.6 -37.1l-62.9 -40.1l-34.7 -2.5l-19.7 -39.2l-108.4 -36.8l-70.1 -45.2l-475.9 -1.3z" />
  </g>
  <g data-id="113">
    <path d="m7391.9 3069l0 0l3 181.3l2.9 180.9l359.2 2.3l178.4 2l178 -0.6l0.5 -180.6l1.6 -361.5l2.4 -362.5l-359.6 0.1l-360.2 -5.5l-6.4 544.1z" />
  </g>
  <g data-id="115">
    <path d="m7930.2 4690l0 0l-0.5 178.4l177.6 2.4l-0.6 178l648.2 2.9l1.8 -23.9l3 -21.1l-0.6 -3.9l-16.3 -29.5l-13.3 -17.3l-7.6 -21.5l-16.1 -25.6l-12.8 -26.7l-8.1 -10l-4.5 -4l-14.9 -7.4l-7.6 0.5l-22.6 5.2l-4.3 -0.3l-17.7 -5.3l-20.8 -40.1l-16.7 -28.1l-10.9 -15.6l-13 -14.9l-17.8 -16.8l-12 -16.2l-13.4 -12.3l-4.3 -5l-2 -4.9l-0.8 -17.7l6 -12.4l9 -12.3l5.1 -10.4l14 -40.4l7.9 -15.3l14.4 -15.3l4.1 -7.7l2.5 -16.1l2 -40.8l0 -0.5l-122.8 -1.8l-334.7 -3.3l1.2 -178.6l-177.7 -1.4l-2.1 357z" />
  </g>
  <g data-id="117">
    <path d="m4742 4870.7l0 0l1.6 536.3l352.5 0.8l353.6 -1.2l-2.5 -535.2l-351.8 0.4l-175.2 0.2l-178.2 -1.5z" />
  </g>
  <g data-id="119">
    <path d="m56.7 106.6l0 0l0.4 2.7l12.9 32.8l2.1 2.1l5.1 2.1l2.7 1.1l9.1 -1.1l10.4 1l7.6 6.7l0.9 2.3l-1.8 8l-4.3 9.6l7.8 4.3l8.9 9.4l7.9 12.7l7 5.7l24.5 19.2l9.2 -1.2l1.6 -1.7l0 -2.4l1.5 -0.4l5.7 3l2.2 3.3l3.8 19.3l0.4 20.5l-0 2.8l-1.4 5.6l-6.6 7.7l-1.4 0.4l0.2 12.4l0.9 22.1l1.7 7.4l1.6 0.4l0.3 2l-11.7 18l-4.6 4.7l2.8 16.7l6.6 25.4l5 8.7l-0.7 5.2l-6.8 21.1l-16.4 9.5l-18.5 5.7l-3.3 -4.1l-12.7 -0l-1.2 0l-7.4 -1.5l-2.5 -2.5l-1.4 -3.1l-2.9 -2.1l-10.4 2l-1.1 2.3l1 2.7l1.4 1.6l0.6 2.8l0.4 5.7l1.9 26l-5.1 8.5l-3 0.4l-0.1 -4.1l-0.9 -0.7l-4.3 5.4l1.7 11.5l3.6 2.5l9.4 -1.3l12.7 11.9l6.8 5.1l6.3 2l4.8 0.4l3.1 -1.9l703 5.5l90.6 -3.2l272.7 2.8l1.5 -513.1l-0.3 0l-295.4 -0.4l-223.6 -0.3l-0.4 0l-15.5 -0.2l-189.6 -0.1l-29.2 0.2l-157.2 -0.1l-212.2 -0.3l-11.9 0.1l-0 0l-0.4 9.4l1.2 2l5.7 3.7l4.7 -2.2l1.9 0.1l6.4 6.8l1.9 2.6l6.2 18l-8.3 6.6l1.9 15.1l0.8 3.2l-5.1 10l-18.6 16.5l-4.3 13.1z" />
  </g>
  <g data-id="121">
    <path d="m3689.6 4169.1l0 0l-0.1 710l349.9 0.8l177.5 0.3l168.7 -11.1l-1.4 -358.5l-0.7 -180.3l-0.1 -111.6l-0 -66.5l-163.4 18.1l-530.5 -1.2z" />
  </g>
  <g data-id="123">
    <path d="m5797.7 4159.2l0 0l0.9 429.1l1.6 282.9l353 -0.5l354.1 -1.3l-2.7 -712.3l-354.3 0.8l-175.8 0.7l-176.8 0.6z" />
  </g>
  <g data-id="125">
    <path d="m5094.3 4160.6l0 0l0.3 34.7l0.8 676.6l351.8 -0.4l353 -0.4l-1.6 -282.9l-0.9 -429.1l-176.8 0.5l-295.4 0.4l-231.3 0.5z" />
  </g>
  <g data-id="127">
    <path d="m5243.3 2712.4l0 0l-0.2 717.1l716.7 0.7l-0.5 -357.2l-1.8 -363.2l-360.3 1.8l-178.8 1.1l-175.2 -0.3z" />
  </g>
  <g data-id="129">
    <path d="m1163.5 4883.7l0 0l0.2 8.2l2 14.1l4.9 12.1l15.7 27.4l4.3 13.9l0.7 34l3.4 15.3l1 11l-1.9 10l-2.5 6.4l-8 10.5l-11.5 11.5l-5 8.9l-1.6 9.8l0.9 6.5l3.6 8l14.9 16.5l12.3 11.8l2 3.1l1.2 4.5l0.8 8.4l-1.3 12.6l-9.2 16.3l-3.8 9.6l-1.7 6.7l0.4 7l2.9 8.9l5.8 8.7l5.2 4.3l11.6 7.1l12.6 4.5l8.4 6.2l8.3 7.8l5 8.8l1.9 5.4l1.1 6.7l-2.3 17.4l-12.5 27l-3.6 21.7l0.8 14.6l3 16.4l2.1 6.3l5.2 9l3.6 4.6l18.4 16.7l6.8 7.9l1.3 2.5l167.9 1.3l491.3 -1l0.3 -175l0.6 -352.2l-760.6 0.4l-3.4 -0.9l-0.5 0.8l-3.4 10.2z" />
  </g>
  <g data-id="131">
    <path d="m5562.4 3.4l0 0l0.3 516.6l0.1 90.2l722.7 -0l1.9 -608.3l-0.1 0l-147.8 0.5l-6.3 -0l-29.6 -0l-25.3 -0l-5.8 -0l-22.3 -0l-68.9 -0l-58.8 1.1l-123 0l-211.7 -0.1l-25.4 0.1z" />
  </g>
  <g data-id="133">
    <path d="m430.5 2708.9l0 0l1.2 5.7l11.6 15.2l3.6 6.7l1.7 5.2l1.3 16.7l-4.7 19.3l1 11.2l3 10.9l8.2 13.1l6.8 6.8l18.6 11.9l9.8 10l3.9 7.2l4.9 14.2l5.7 7.9l6.5 5.6l7.5 3.7l23.6 5l9.9 4.4l6.5 5.6l4.2 4.9l5.2 10l2.4 6.9l1.1 14.5l-1.6 14.7l-6.4 15.5l-3.6 5.7l-4 9.4l-3.6 15.3l-0.4 7.8l1.4 20.5l4.5 17.5l4.1 9.7l0 0.1l2.2 4.7l4.3 5.5l7.3 5.1l4.2 1.8l7.8 1.9l2.4 -2.8l11.9 -4.5l13 1.1l9.6 4l10 8.1l2.8 3.9l3 7.8l0.3 6.9l-2.9 7.4l-6.5 8.3l-16.9 13.1l-4.7 11.1l-0.7 8.4l0.5 4.1l2 3.2l6.5 6.1l10.4 4.2l6.6 -0.7l2.4 -1.5l3.2 -4l6.4 -13.4l3.7 -5.9l14.1 -5.3l17.7 1.3l10 4.8l5.3 7.6l1.7 5.5l-0.4 4.6l-1.5 4.8l-7.3 12.7l-4 10l0.9 5l1.5 2.7l6.7 6.8l3.1 1.5l10.8 0.8l4.7 -1.1l9.4 -4.4l11.4 -2.3l6.4 -0l23.6 4.3l13.4 7.1l4.7 6.1l0.9 4l-0.4 9.5l-6.4 19.5l-3.2 7.3l-11.1 13.1l-1.5 2.9l-1.5 6.1l1.7 8.6l10.6 21.1l0.7 7.5l-0.9 5.6l-4.5 8.2l-4 3l-18.5 6.1l-7.4 4.9l-2.6 4.2l-1.9 5.1l0.4 7.7l5.5 9.6l9.3 10.5l5.2 8.2l2.3 6.9l0.9 15l1 5.3l2.5 6.5l3.8 6.2l4.7 5.3l717.3 6.5l3 -721.4l-893.3 -6.7l-161.9 -1l-2.3 2.2l-2.7 7.4z" />
  </g>
  <g data-id="135">
    <path d="m5447.2 4871.5l0 0l2.5 535.2l705.4 -0.9l-2 -535.2l-353 0.5l-353 0.4z" />
  </g>
  <g data-id="137">
    <path d="m1930.8 5225.5l0 0l-0.3 175l702.4 1.8l0.6 -174.3l0.7 -351.6l-351.2 -1.5l-351.6 -1.6l-0.6 352.2z" />
  </g>
  <g data-id="139">
    <path d="m8110 4334.4l0 0l-1.2 178.6l334.7 3.3l122.8 1.8l0.6 -12.4l7.7 -52.5l2.2 -7.9l20.7 -33.2l0.9 -4.7l1 -25.6l3.9 -22.3l3 -6.5l2.9 -3.7l6.3 -5.4l4.2 -3.1l14.4 -7.4l24.3 -2.9l9.4 -2.3l32.2 -15.9l7.8 -0.9l7.1 0.7l13.1 8.1l20.7 10.2l5.2 1.9l30.4 5.7l8.7 -3l7.7 -5.6l29 -11.4l14.9 -8.8l16.9 -11.6l19.2 -14.7l15 -9.3l6.1 -2.4l10.8 -2.5l14.1 -1l19.5 2.4l26.9 0l32.3 3.2l0.4 -26.4l3.4 -268.8l-178.5 -1.2l-162.2 -0.5l-50.7 -0l-505 -2l-3.2 360z" />
  </g>
  <g data-id="141">
    <path d="m1196.7 515.7l0 0l3 550l0.9 184.1l725 -1.7l0.2 -727.4l-367.2 -6.8l-361.9 1.9z" />
  </g>
  <g data-id="143">
    <path d="m1198.2 2.6l0 0l-1.5 513.1l361.9 -1.9l367.2 6.8l0.8 -184l-0.3 -334.7l-0 0l-0.1 0l-71.3 -0.2l-0.1 -0.1l-31 -0.6l-0.4 -0l0 0.2l-31.3 0.5l-18 0.1l-0.1 0.1l-43 0.8l-347.8 -0.1l-1.2 0l-122.6 -0.2l-20.2 -0l-40.8 0z" />
  </g>
  <g data-id="145">
    <path d="m1930.5 5400.4l0 0l-0.4 352l22.5 0.3l-5 147.5l-0.1 152.1l0 0l24.8 0.8l34.2 0.5l175.5 2.1l4.2 0.1l2 0l6.4 0.1l0.9 0l1.7 0.1l0.3 0l14.1 0.2l58.8 1l14.7 0.3l51.8 0.9l13.2 0.4l2.4 0l0.6 0.1l4.8 0.1l14.8 -0.1l27.5 0.3l16.6 0.3l118.9 2.4l38.7 -0.3l17.5 0.3l61.9 1.2l2.7 -308.7l-23.7 -0.2l0.1 -352.2l-702.4 -1.8z" />
  </g>
  <g data-id="147">
    <path d="m2655.5 521l0 0l-0.3 727.5l724.6 3.4l0.3 -549l-0.6 -181.8l-724 -0.1z" />
  </g>
  <g data-id="149">
    <path d="m0 1610.6l0 0l1.7 4.5l10.3 20.6l8.6 -1.8l2.5 1l0.4 23.5l-4.3 9.1l-3.9 2.3l-1.3 6.2l1.5 1.6l15.5 10.3l14.4 11.8l21.2 12.7l7.4 0.9l9.2 2.1l15.9 9.2l11.1 13.4l2.1 0.6l9.4 14.1l21.1 16.1l4.8 0.2l2 1.3l6.9 11.1l0.4 6.8l-1.3 8.5l0.9 3.4l6.4 6.1l10.7 4.9l16 22.5l1.5 5.8l-0.9 5.5l9.9 25.6l7.4 16.2l6.9 22.8l-0.1 2.9l-1.8 4.4l0.6 2.8l1.8 1.5l4.8 1.8l3.1 4l0.2 3.6l-1.4 2.7l-0.8 3.9l0.9 2.9l6.2 5.1l7.4 2l1.2 2.2l-0.2 3.1l-1.4 2.8l-3.8 2.9l-14.9 20.8l150.6 -2.4l257.7 1.2l30.1 -1.1l362.9 1.8l181.9 1l0.9 -730l-181.5 -1.4l-861.6 2.1l1.2 6.6l0.9 10l11 6.2l3.6 8.8l0.3 4l-2.1 2.7l-10.2 -0.1l-8.8 2.1l-0.4 1.7l3 5.8l0.9 16l-9.3 8.1l-3.8 0.3l-1.4 1.6l-3.6 7.2l-1.2 13.7l0 1.2l6 12.4l3.4 12.6l-1.8 2.8l-8.2 4.8l-4.5 0.3l-1.4 2.9l0.8 5.2l3.1 3.7l-9.8 5l-3.1 0.2l-3.5 6.4l-13.1 -1.8l-13 -2l-2.8 1.2l-1.2 8.1l7 10.4l-0.2 2.3l-10.1 18.2l-1.9 2l-8.2 5.6l-6.1 -1l-1.6 1.7l0.5 9.7l5.4 1.1l1.9 2l0.2 1.5l-2.7 15l-4.3 17.1l-11.2 10.9l-1.9 8.5l-1.2 1.4l-17 -4.1l-6 2l-3.7 10l-7 12l-6 5.5l-2.8 0l-1.6 5.3l1.5 14.3l5.3 8.3l-2.7 15l-2.8 9.9l-5.5 9.7l-5.9 8.2z" />
  </g>
  <g data-id="151">
    <path d="m2655.2 1248.5l0 0l-0.9 731.9l725.4 3.1l-0.1 -180.4l0.2 -551.1l-724.6 -3.4z" />
  </g>
  <g data-id="153">
    <path d="m4344.8 3428l0 0l1.1 122.7l1.1 352.5l0 37.3l0 29.7l36.4 0.1l0.1 33l0 104.9l-0.1 44.1l90.2 -0.4l52.1 0.2l59.6 -0.2l22.2 -0.1l104 0.9l51.1 1l158.2 7.3l28.4 -7.9l16.3 12.1l-3.1 27.1l24.8 -19.5l2.1 31.2l22.6 -18.5l17.4 19.1l28.1 -21.7l18.1 30.6l19 -18.3l-0.3 -34.7l-0.1 -191.9l-30.8 0.3l1.2 -540.4l-358.4 -0.2l-164.9 -0.3l-15.4 0l-181.1 -0.1z" />
  </g>
  <g data-id="155">
    <path d="m953.7 4201.3l0 0l0.4 2.9l4.9 10.4l7.1 11l4.5 4.5l6.3 3.5l21.1 4l12.4 1.2l14.6 5.1l12.3 7.8l4.8 1.4l8.2 -0l16.2 -6.9l6.9 -0.2l8 2.2l6 2.9l11.1 9.1l4.9 7.4l3.5 8.6l0.6 7.5l-1.1 7.4l-1.9 4.6l-3.2 4.8l-10.5 12l-2.3 4.1l-1.5 5.1l1.3 15l3.7 14.3l0.3 7.8l-1.6 10.6l-9.4 20.1l-0.9 6.8l0.9 4.3l2.7 13.5l9.1 19.5l0.8 9.8l-3.4 11.1l-6.9 8.4l-8.5 6.4l-17.2 8.2l-4.2 3.5l-2.9 5.3l0.2 7.6l5.5 11.5l9.5 11.9l11.7 10.7l20.9 13.7l5.5 2.3l12.8 1.8l22.3 -2l16.3 4.3l8.6 4.9l7.5 8.6l5.4 11.1l4.9 23.1l-2 11.8l-0.2 1.1l-6.2 9l-8.5 7.6l-11.9 6.3l-13.7 -11.4l-8 -19.7l0 -12.5l-2.5 -2.7l-22.2 -0.4l-11.1 5.5l-3.2 12.5l0 3.8l0 11l1.4 7.6l5.7 14l0.8 3.3l4 17.1l0.9 12.5l6.5 17.8l8.8 24.1l0.8 8.2l0 4.5l-2.6 9.8l-3.8 8.2l-15.1 24.1l-4 18.4l2.3 13.3l4.3 9.5l0 0.1l7.5 8.8l5.7 3.3l7.5 1.4l69.1 -8l12.3 2.5l10.2 4.7l9.4 8.6l4.3 11.4l-0 0.2l-0.9 7.8l-6.6 9l-10.2 2.7l-18.9 -4.9l-3.5 -1.9l-3.5 -0.2l-3.5 1.4l-6.7 6.1l-7.1 10l3.4 0.9l760.6 -0.4l351.6 1.6l0.9 -698.3l0.9 -10.6l-176.4 -0.9l-351.8 -0.8l-500.1 -1l-266.4 -0.8l-2.7 4.5l-14.5 14.7l-13.3 10.2l-5 6.9l-0.9 2.6z" />
  </g>
  <g data-id="157">
    <path d="m5959.9 3430.2l0 0l-1.2 538.1l14.9 -0.1l0.9 190.4l175.8 -0.7l354.3 -0.8l176.2 -0.5l-2.6 -548.3l1.6 -179l-719.8 0.8z" />
  </g>
  <g data-id="159">
    <path d="m3337 5404.6l0 0l-0.7 667.4l0.9 -0l16.2 -0.2l46.7 -0.2l109.9 -0.7l33.2 -0.2l0.2 -0l18.1 -0l21.6 -0.1l24.5 0.4l11.5 -0.4l84.8 -0.8l217.2 -2l2.9 0.2l13.4 -0.2l0.4 0l70.9 -1.4l28.7 -0.7l1.1 -656.1l-701.5 -5z" />
  </g>
  <g data-id="161">
    <path d="m1925.8 1977.4l0 0l0.9 181.5l100.1 0.1l-1.8 549.1l357.9 1.1l357.6 1.5l2.7 -550.2l-88.9 -0.4l0 -179.8l-728.5 -3z" />
  </g>
  <g data-id="163">
    <path d="m8833.3 3618l0 0l-2.3 359l178.5 1.2l-3.4 268.8l-0.4 26.4l13.4 3.3l9.1 1l33.1 2.3l19.4 -1l21.5 -4.4l34.4 -5.1l15.7 -3.9l22.3 -8.6l15.7 0.4l16 -3.1l8.6 -6l15.4 -17l11.8 -11.1l21.5 -12.9l19.4 -18.9l2.6 -5.8l3.2 -18.5l10.6 -10.3l6.5 -3.7l13.8 -4.7l16.8 -2.5l6 -2.5l16.9 -13.8l16.5 -2.7l7 -1.2l12.2 2.5l30.6 11.1l19.2 3.1l1.2 -0l15.3 -0.4l24 -3.1l19.8 -7.8l24.9 -25.9l10.5 -16.4l8.8 -11.1l8.5 -4.1l3.2 -2.3l4.5 -3.3l9.8 -17.9l4.6 -4.9l10.9 -6.8l12 -7.4l25.5 -9l26.5 -6.2l32.2 -16.9l2.6 -5.8l3.1 -16.5l-5.8 -86.9l-0.2 -12.6l10.3 -36.2l3.4 -31l3.1 -5.3l3.5 -3.7l15.8 -11.9l4 -4l4 -6.5l1.9 -6.7l1 -9l-0.2 -10.5l-0.7 -4.1l-6.3 -18.2l-0.4 -9l2 -12.8l-26.9 -21.7l-46.6 23.9l-39.2 -18.9l-28.1 15.8l-5.8 -23.4l-20.2 9.3l0.9 -29.8l-41.8 -28.7l-10.9 12.8l-23.3 -31.4l-34.1 15.6l-63.9 -21.8l-8.4 21.7l-55.9 14l-20.4 -23.7l-36.8 29.2l-22 -18.3l-32 20.5l-9.2 -17.9l-43 14.2l-11.8 29.4l-32.1 17.3l-28.3 -5.8l-31.9 -23.9l-13.6 -28.5l-31.2 -10.7l-6.2 -6.9l-172.6 -0z" />
  </g>
  <g data-id="165">
    <path d="m1665.4 3428l0 0l-1.3 538.2l92.9 0.1l-0.3 197.9l351.8 0.8l176.4 0.9l175.3 1.1l0 -200.4l-79.7 0.2l-0.5 -538.8l-356.9 -1.5l-357.6 1.4z" />
  </g>
  <g data-id="167">
    <path d="m105.4 555l0 0l4.1 15.6l12.4 15.5l2.2 0.2l2.6 -1.4l1.5 -2.9l2.1 -1.4l10.4 -0.3l5 2.1l7.4 0.5l6.7 -4.1l13.7 7.5l7.4 6.6l1.7 5.7l2.6 1.2l10.5 -1.8l18 -4.7l6.6 -6.1l17.2 -1.1l13.2 4.6l1.7 2l1 7.8l4.2 16.5l2.4 4.9l-0.2 4.5l-4.6 13.4l-0.1 18.9l2.2 8.8l5.5 2.4l2.5 0l3.1 3.2l0.4 2l-3.7 37.9l-0.1 9.4l1.3 19.7l2.2 5.8l7.9 8.4l1.7 0.3l5.1 -1.7l8 4l10.7 17.7l1.1 10.5l1.6 8.8l1.3 3.3l1.8 2.5l4.7 2.4l-4.2 14.6l-13.5 19.9l-5.8 8.4l-13.3 11.7l-3.6 7.4l0.3 3.8l11.2 3.1l1.2 2.7l0.7 5.5l-0.2 1.7l-1.6 17.5l-4.6 15.8l-4.1 7.4l-3.5 2.2l-7.9 2.4l-2.7 -0.5l-4.9 -3.1l-5.8 2.5l-15.1 14.5l-2.2 3.1l-1.1 5.3l-2.3 1.4l-17.5 4.5l-5.4 -0.2l-5.7 -2.7l-2.1 0.1l-12.6 16.5l1.7 3.8l2.4 1.8l2.9 -0.9l3.5 -0.2l3.8 5.5l-0 1.3l-2.5 10.1l-3.3 4.1l-0.3 3.2l2 5.6l1.2 2.3l12 10.3l6.2 1.2l7.3 9.8l4.2 10.2l-1.6 9.7l-2.5 6.9l-3.6 6.3l-1.7 1.4l-7.6 2.3l-7.1 1.2l-4.1 2.9l-4.5 7.8l1.1 5.5l-0.1 6.1l-6.9 9.4l-6.2 2.3l0.8 5.8l6.7 10l8 3.4l7 -0.2l1.7 1.1l2.9 5.6l4.3 18.5l-7 9.9l-4.9 12.9l-2.2 7.1l-2 1.6l-6.4 1.5l-7.9 8.2l-8.5 8.9l-23.9 23.1l-0.9 4l0.1 4l2.2 4.2l3.7 16.7l0.7 4l861.6 -2.1l181.5 1.4l-0.9 -184.1l-3 -550l-272.7 -2.8l-90.6 3.2l-703 -5.5l2.7 1.8l1 2.9l0.9 14.1l-1.4 8.1l-9.6 4.5l-9.3 1.9l-9.1 11.2z" />
  </g>
  <g data-id="169">
    <path d="m4525.3 2711.5l0 0l-0.5 362.5l1 174.1l0 138.7l0.1 41.4l15.4 -0l164.9 0.3l358.4 0.2l178.6 0.8l0.2 -717.1l-355.9 -0.9l-182.5 0.2l-179.6 -0.3z" />
  </g>
  <g data-id="171">
    <path d="m5956.7 2529.9l0 0l1 179.9l1.8 363.2l0.5 357.2l719.8 -0.8l-1 -901.2l-181.8 0.5l-179.3 0.6l-360.9 0.7z" />
  </g>
  <g data-id="173">
    <path d="m2632.8 5402.3l0 0l-0.1 352.2l23.7 0.2l-2.7 308.7l20.7 0.4l7.2 0.3l112.4 1.6l5.8 0.5l13.5 0.4l57.2 1.1l88.2 1.6l2.7 0l49.7 0.8l77.8 1.2l58.5 0.4l79.8 0.3l0.5 0l5.4 0.1l1.9 0l4.9 0l68.6 0.1l27.8 -0.2l0.7 -667.4l-704.2 -2.3z" />
  </g>
  <g data-id="175">
    <path d="m3337.3 4878.3l0 0l-0.3 526.3l701.5 5l0.9 -529.7l-349.9 -0.8l-352.3 -0.9z" />
  </g>
  <g data-id="177">
    <path d="m6862.9 5404.2l0 0l-1.1 607.6l128.3 -2.6l5.4 -0.5l14.9 -0.3l1.3 0.1l19.7 -1.2l2.5 0.3l58.9 -2.2l47.6 -1.5l42.6 -1.4l35.8 -0.7l7.1 -0.8l5.9 -0.6l109.1 -3.9l55.3 -3.5l11.8 -0.8l16.7 -0.7l21.3 -0.9l7.3 -0.3l14.6 -0.8l87.4 -4.4l13.9 24.5l5.1 6.1l-2.2 -81.2l-0.9 -355.2l0.9 -178.1l-176.4 -0.2l-532.7 2.9z" />
  </g>
  <g data-id="179">
    <path d="m6153.2 4870.7l0 0l2 535.2l175.9 -0.5l531.9 -1.2l-1.4 -536.3l-178.4 0.7l-175.9 0.7l-354.1 1.3z" />
  </g>
  <g data-id="181">
    <path d="m4383.5 4152.2l0 0l0 66.5l0.1 111.6l0.7 180.3l1.4 358.5l356.4 1.6l178.2 1.5l175.2 -0.2l-0.8 -676.6l-19 18.3l-18.1 -30.6l-28.1 21.7l-17.4 -19.1l-22.6 18.5l-2.1 -31.2l-24.8 19.5l3.1 -27.1l-16.3 -12.1l-28.4 7.9l-158.2 -7.3l-51.1 -1l-104 -0.9l-22.2 0.1l-59.6 0.2l-52.1 -0.2l-90.2 0.4z" />
  </g>
  <g data-id="183">
    <path d="m7221.4 4154.6l0 0l0.7 711.4l177.3 4.2l175.8 -2.6l354.4 0.8l0.5 -178.4l2.1 -357l-25.7 -46.8l1.6 -26.9l-25.2 -19.3l21.4 -17l-6.8 -47.9l-18.6 7.1l-1.9 -28.2l-476 -0.9l-179.7 1.5z" />
  </g>
  <g data-id="185">
    <path d="m4743.6 5407.1l0 0l-0.6 645.8l4.5 -0.1l8.8 -0.2l30.9 0.1l0.9 -0.1l5.4 -0.1l88.1 0.8l2.4 -0.2l36.2 0.5l103.7 -0.8l44.5 -0.4l42.8 -0.3l87.7 -0.3l192 -4.2l57.4 -2.3l1.9 -0.1l-0.5 -638.5l-353.6 1.2l-352.5 -0.8z" />
  </g>
  <g data-id="187">
    <path d="m3379.6 1803l0 0l0.1 180.4l-0 178.4l69.8 0.2l0.2 549.8l358.2 -1.6l284.5 0.2l74.2 -0.1l-0.2 -545.6l-61.4 -0.1l0 -179.6l-0.2 -180.9l-725.2 -1z" />
  </g>
  <g data-id="189">
    <path d="m4106.3 3.4l0 0l0.1 333.3l0.4 183.7l727.4 -0.2l0.4 -516.5l-0.1 -0l-47.8 -0l-5.7 -0l-40.7 -0.1l-27.8 0l-62.2 -0.1l-48.3 -0l-78.2 -0l-8.6 0l-5.9 0l-11.5 0l-80.4 0l-39.7 0l-2.3 0l-269.2 -0.2z" />
  </g>
  <g data-id="191">
    <path d="m7013.8 609.9l0 0l-0.3 274.5l732.1 2.4l2 -549.7l-10.5 -335.7l-0.1 0l-6.8 -0l-2.5 -0.2l-0.8 -0.1l-5.2 0l-7.4 -0.1l-13.3 0.5l-0.4 0.1l-1.7 -0.1l-6.4 -0.2l-7.9 0.1l-10 0.2l-10.8 -0.2l-19.2 0l-46 -0.1l-45.3 -0.2l-0.2 -0l-4.6 0.1l-5 0.1l-2.9 0.1l-35.3 -0.2l-25 -0.2l-2.5 -0.2l-39.4 0.2l-3.4 0.1l-27.2 -0.1l-40.1 0.1l-139.8 0.2l-12.4 0.1l-199.9 -0.3l-1.8 518.7l-0 90.1z" />
  </g>
  <g data-id="193">
    <path d="m216.5 1979.3l0 0l6.6 8.5l27.3 1.4l-0 20.1l-1.1 22.6l-3.2 12.5l1.2 6.7l-1.4 4.6l-16.8 8.1l-3.3 6.4l4.4 10.1l10 4.4l6.5 -1.7l3 3.2l6.3 12.6l26.1 23.1l16.7 3.9l33.3 3.4l16 2.1l6.3 0.8l20.3 7.3l0.1 0l15.5 20l0.9 2.9l6.3 23.8l1.8 21.3l-0.9 10.6l-5.5 19l-5.1 10l-37.2 45l-2.8 6.3l-2.9 15.8l0.8 14.3l9 24.9l1.1 11.2l-8.6 21.2l-4.8 9.3l-1.3 5.7l-0.4 8.4l0.6 6.7l6 16.8l9.1 12.5l7.8 6.8l10.3 6.9l18.6 10.4l13.6 15.7l5.4 8.7l2.8 6.9l1.2 5.3l1.1 9.8l0.1 24.5l4.1 12.4l7.7 12.5l6.8 7l0 0l23 15.3l8.4 9l7.2 11.2l3.7 9.8l1.8 9.9l-1.9 16.8l-1.6 3.5l11 13.7l0.1 4.5l-1.4 3.3l-12.8 17.2l-6.6 5.5l-4.3 1.7l-9.2 1.2l-17.7 4.8l-0.1 0.1l161.9 1l893.3 6.7l2.4 -547.9l-111.6 -0.5l0.3 -180.4l-182.1 1.4l-181.9 -1l-362.9 -1.8l-30.1 1.1l-257.7 -1.2l-150.6 2.4z" />
  </g>
  <g data-id="195">
    <path d="m4834.7 3.7l0 0l-0.4 516.5l365 0.6l182.8 0.2l180.7 -0.9l-0.3 -516.6l-0.1 0l-38.1 0l-184.6 0l-91.8 0l-66.1 0.4l-195.8 -0.3l-45.3 0l-61.6 0l-6.5 0.2l-14.2 -0.2l-9.6 0.1l-14 -0.1z" />
  </g>
  <g data-id="197">
    <path d="m4104.8 1804l0 0l0.2 180.9l726.3 0.9l1.3 -734.8l-727.1 1.6l-0.7 551.4z" />
  </g>
</svg>
