<?xml version="1.0" encoding="UTF-8"?>
<!DOCTYPE svg PUBLIC '-//W3C//DTD SVG 1.1//EN' 'http://www.w3.org/Graphics/SVG/1.1/DTD/svg11.dtd'>
<svg viewBox="0 0 10000 8973.3" xmlns="http://www.w3.org/2000/svg">
  <g data-id="001">
    <path d="m4913.6 3885.2l0 0l-5 152.3l35.9 40.4l20 -3.1l64.6 28.7l32.6 41.7l47.9 88.4l124 -0.6l25.4 6.6l-9.2 35.3l29.3 30.9l-20.8 12.6l4.6 78.8l-42 26.7l19.3 8.5l-43.1 37.8l383.7 -68.3l17.9 -77.8l29.4 -81.5l19.5 -100.1l28.2 -58.6l26.6 -2.9l22.5 -51.3l-26.4 -39.8l21.5 -77l1.6 -88.3l34.4 -95.5l-18.6 -26.1l-63.8 -15.9l-23.2 -101.1l-54.7 -46.6l-14 8.6l-62 28.5l-22.3 -22.5l-48.9 74.8l-126.5 54.8l-257.1 25.3l-33.2 -10.6l-118.4 186.8z" />
  </g>
  <g data-id="003">
    <path d="m8969 3297.6l0 0l-3 9.9l47.4 42.4l36.6 29.2l59.2 54.1l35.1 25.3l65.3 55.9l55 45l3.4 2.8l95.1 77.8l-4.6 -35.7l78.6 -87.6l60.5 -145.8l40.4 -35l32.9 -1.8l92.6 -94l77.4 -77.9l44 -124.2l-27.8 -7.1l-15.3 -8.2l-1.5 -4.9l-0.7 -2.3l5.5 -9.3l32.6 -22.6l7.9 -9.1l3.2 -16.3l-0.4 -4.8l-3.2 -8.6l-3.7 -3.4l-12.8 -5.7l-7 1.2l-4.3 2.8l-3 5.1l-1.2 25.4l-16.9 10.4l-21.8 3.3l-7.1 -1.9l-2.6 -3.6l-2.4 -3.4l-0 -18.6l2.2 -9.2l1.5 -17.3l-0.2 -4.4l-1.9 -5l-12.5 -15.5l-30.3 -20.2l-5.1 -10.5l0.6 -5.5l1.4 -3l3.7 -3.2l15.6 -8.1l11.6 -1.1l14.2 0.9l20.1 -2.8l27.8 0.7l11.9 -5.4l3.2 -6.3l3.1 -6l5 -26.8l2 -16.1l0.1 -9.9l-4.2 -26.5l-3.6 -4.8l-9 -8.4l-9.7 -3l-21.6 0.4l-8.9 -2l-22.1 -8.6l-12.3 -8.3l-21.1 -3.9l-3.8 3.3l0.1 3.1l10.2 13.7l1.7 5l-0.9 16.1l-5 4.8l-12.9 1.9l-3.3 -1l-23.3 -7.4l-22.8 -5.5l-16.7 -5.5l-6.4 -7.3l-5.6 -16.5l-8.4 -9.9l-9.4 -3.9l-9 0.9l-5 4.3l-0.5 5l18.6 17.8l-1.8 36.8l-5.4 19.4l-14.5 6.1l-10.4 -14.7l1 -37.4l-8.6 -9.1l-14.3 -1.6l-12.5 5.7l-10 13.8l-6.5 3.8l-30.6 -0.9l-22.1 -0.8l-8.9 -2.2l-6.6 -4.1l-2.8 -3.1l-22.5 -40.9l-75 56.2l-41.9 -3.8l-31.2 46.3l-58.4 -30.7l-30.2 0l-31.1 79.2l-39.9 111.6l-50.4 198.9l-58 133.4z" />
  </g>
  <g data-id="005">
    <path d="m1349.2 6961.7l0 0l60.1 37.6l80 -7l19.1 34.8l82.6 33l93 2.8l28.8 28.1l40 4.6l34.5 75.2l10.7 49.9l-46.9 48.1l15.4 33.9l58.7 26.2l2 37.8l27 10.5l16.9 39.6l45.3 -33.2l75.6 -26.8l29.6 5.2l35.6 62.7l-0.6 8.8l49.3 37l62.9 65.2l21.8 -11.1l71.8 -56.7l32.9 -3.9l-5.1 -69.9l-24.4 -9.2l-47.9 -7l-17.3 -42.9l-5.2 -108l19.5 -28.1l-21.1 -21.6l4.7 -42.5l-19.5 -21.9l33.7 -47.4l-1.8 -21.1l34.9 -43l25.2 -0.8l38.6 -44l36.8 19.1l66 -16.2l-19.7 -54.9l13.1 -47.5l-61.3 -103.9l-30.8 17.2l-65.4 -39.7l6.9 -53.6l37 -40l-36.9 -23.2l-44.1 -52.1l-27.9 11l-42.5 -43.6l-24.1 -52l-65.5 -8.3l-28.4 -19.4l-8.1 -46.7l17.6 -45.6l-32.3 -7.1l-55.3 13.8l-22.4 -26.1l-55.7 17.6l9.2 17.6l-32.5 42.5l-35.7 -17.5l-20.3 -58.2l-39.5 -7.8l-2.8 42l-50.8 15.3l-7.6 25l25.8 50.5l-39.3 -19.6l-25.6 -59.1l-37.1 64l1.2 30.3l-42.2 -9.7l-0.3 34l-29.1 -11.1l-3.2 43.2l18.9 36.3l-50.8 -11.5l-48.3 -28l-33.1 38.7l-19.1 48.1l15.2 25.9l-37.1 49.5l-16.3 101.5l35.6 27.9l100.3 25l-55.5 11.3l-96.9 100.1z" />
  </g>
  <g data-id="007">
    <path d="m3370 5068l0 0l-94.9 130.2l113.1 111.1l11.5 82.2l30.7 3.2l58.5 33.4l26.8 41l-9.4 48.7l53.3 20.5l20.8 77.5l195 -131.3l50.5 41.9l18.7 40.9l70.5 -28.8l133.1 26.7l288.6 -309l104.2 -243.5l12.6 -26l10.2 -73.9l-23.7 5.3l-11.6 -53.5l-44.6 -11.1l23.2 -86.3l-98.3 -75.5l-43.5 22.2l-28.4 -36l-51.8 22.8l-19.9 -30.1l4.7 -34.6l-30.1 -53.4l-71.5 50.5l-58.8 -20.5l-176.9 119.6l-148.1 110.8l-314.6 225z" />
  </g>
  <g data-id="009">
    <path d="m3990 1206.5l0 0l-4.5 2.1l36.7 -0.9l-0.3 8.6l3.4 0.9l-2.5 7.6l-1.1 1.3l79.1 4.6l60.2 0.6l85.4 25.4l69.6 20.6l0.1 -34.7l0 -0.1l0 -420.3l0 -30.2l2.1 -68.9l0 -82.4l0 -2.1l-113.3 -0.3l-113.5 12.7l-5.1 3.6l-2.8 8.5l4.1 13.3l1.7 1.5l23.4 8.3l9.7 8l9.5 10.1l4.3 14.4l-2.2 20.3l-6.3 18.1l-2 20l0.1 0.3l4 17.8l16 34.6l4.9 17.8l1.2 9.3l-6.1 28.2l-7.5 8.5l-16.9 31.7l-3.9 17.8l1.2 34.6l-6.3 18.9l-6.5 9l-29.6 20l-0.2 -2.1l-15 10.1l-15.2 16.8l-19.2 40.4l-5.6 28.3l-4.1 34.3l-3.7 17.5l-9.1 19.4l-14.2 15.9z" />
  </g>
  <g data-id="011">
    <path d="m278.3 5865.5l0 0l35.1 29.5l72.8 60.1l222.9 182.7l4.1 -3.5l29 -20.4l-4.1 -23l32.6 -19.7l32.5 8l45 63.1l-28.7 -0.6l-30.9 22.9l6.2 19.4l-21.7 50l27.9 72.6l48.2 31.1l22.2 -2.4l47.8 -108.8l68.5 -45l-18.7 -53.5l-7.7 -3.7l46.9 0.3l42.1 -74.8l24.6 8l95.5 -19.9l41.5 -60.3l65.9 -24l35.7 6l-9.9 -134.9l-6.3 -124.5l-332.7 -304l-6.5 0.8l-48.3 -18.4l-13.2 -0.8l-19.5 1.6l-19.1 7.3l-5.7 4.4l-26.1 28.8l-8.5 9.4l-4.5 9.3l-0.8 7l1.2 32.2l-4.9 56.6l-4.3 13.5l-5.1 10.1l-5.3 16.1l-2.2 14.3l1.8 34.5l-2.3 21l-4.3 14.6l-8.7 19.5l-3.8 18.3l-2.9 20.8l-8.5 26.5l-12 22.3l-12.9 12.4l-20.9 9.2l-39.6 6.1l-43.9 9.9l-16.2 1.1l-30.7 -12.9l-59.9 24l-3.3 1l-22.5 7l-25.6 6l-54.6 17.1l-42.8 18.9z" />
  </g>
  <g data-id="013">
    <path d="m2785.8 4498.7l0 0l-11.6 56l31.5 10l27 39.5l-20.1 5.9l43.1 33.3l-16.5 72.3l52 24.8l11.3 49.9l-19.1 -2.8l13.7 70.8l-19.5 13.5l64.1 67.1l48.8 72l-0.7 84.2l11.1 32.2l-10.3 49.8l26.8 82.9l54.8 15l15.8 19l44.1 -20.8l37.3 70.2l105.6 -145.2l94.9 -130.2l-29.4 -84.8l-46.7 -37.3l-18 12.9l-41.8 -52.4l-9.8 -34.7l48.5 -28.2l42.1 -46.9l-0.1 -48.4l19.5 -14.9l-10.5 -140.6l-12.1 -58.9l22.4 -24.8l-17.2 -65.4l15.4 -9.2l-66.5 -83.5l5.3 -43.4l-53 4.4l-86.9 -35.5l-32.7 -55.2l-35.4 -6.8l-53.5 38.1l-223.8 246.2z" />
  </g>
  <g data-id="015">
    <path d="m2766.6 5703.8l0 0l-1.6 11.8l58.4 248.9l25.2 151.5l20.9 130.2l269.3 -161.2l115.3 -69.1l265.3 -160.8l190.7 -165.3l-16 -41l-79.8 -14.9l-33.8 -18l-20.8 -77.5l-53.3 -20.5l9.4 -48.7l-26.8 -41l-58.5 -33.4l-30.7 -3.2l-11.5 -82.2l-113.1 -111.1l-105.6 145.2l-95.6 119.6l-128.6 99.5l-178.7 141.3z" />
  </g>
  <g data-id="017">
    <path d="m3565.3 3562l0 0l-51 56l204.8 428.4l171.9 35.9l55.4 14.1l39.8 -81.7l49.8 -51.3l55.5 4.9l68 -72.9l8.9 -40.9l33.7 19.4l94.3 -53.5l6.2 -36l-81.8 -29.6l38.4 -36.9l-73.8 -58.2l11.5 -66l-53.9 -10.2l45.4 -80l35.6 -11.7l14.4 -42.3l51.8 -60.4l-24.9 -16.7l5.8 -55.3l-13.2 -42.5l17.6 -17.3l-11.1 -49.5l-78.3 -58.6l-29.9 25.3l-42.2 -22.5l-60.6 19.3l-20.8 26.3l-110.9 7.3l-41.8 92.2l-194 136.4l-120.4 128.4z" />
  </g>
  <g data-id="019">
    <path d="m2566.2 7006.5l0 0l68 -19.6l51 63.1l52 21.1l-9.9 27.3l12.9 113.3l450.6 34.7l1.2 38.8l-56.9 3.6l16.3 22.1l84.3 -19.3l-12.5 58.5l59.7 15.5l101.1 -9.3l67 36.1l281.8 -128l116.9 9.8l-126.1 -216.3l83.2 -93l-33 -11.7l-0.3 -36.1l-22.6 -55l-62.7 -16.9l-2.8 -30.2l34.8 -9.5l25.4 -41.2l-39.6 -4.9l-30.8 28.6l-64.1 -11.5l-56.3 -54.9l18.3 -7.4l5.4 -54.2l-0.6 -77.7l-38 28.5l-98.6 -117.5l11.6 -66.4l-50.3 -55l-29.7 -19.6l-49.1 3l0.3 40.6l-55.2 -38.6l-7.4 -20.5l-39.1 14.6l13.9 24.7l-40.1 8.2l-9.3 36.1l-19 -20.6l-52.8 -22.8l-46.8 -57.6l-38.8 22.8l-67.3 -26.9l-13.4 -32.5l-24.3 1.3l-55.6 -37.8l-169.2 214.5l-29 -4.6l0.4 13.9l4.6 6.4l-6.7 12.8l-6.5 21.2l-96.6 495.6z" />
  </g>
  <g data-id="021">
    <path d="m3224.3 4871.7l0 0l9.8 34.7l41.8 52.4l18 -12.9l46.7 37.3l29.4 84.8l314.6 -225l148.1 -110.8l176.9 -119.6l58.8 20.5l71.5 -50.5l-177.8 -214.4l-47.7 -57.8l-23.4 -228.1l-171.9 -35.9l4.5 26l-49.2 44.7l-39.7 -4l-8.4 26.1l-40.1 2.8l-67.3 69.7l-109.8 28.6l-75 67.2l-62.9 0l-5.3 43.4l66.5 83.5l-15.4 9.2l17.2 65.4l-22.4 24.8l12.1 58.9l10.5 140.6l-19.5 14.9l0.1 48.4l-42.1 46.9l-48.5 28.2z" />
  </g>
  <g data-id="023">
    <path d="m6411.6 3793.6l0 0l-0.6 29l40 42.2l50.6 -19.6l100.9 -17.3l21.3 -28.3l35.1 11.3l40.6 -37.7l76.6 10.5l36.7 52.7l-39.2 20.2l-47.1 89.6l0.9 75.8l-31.1 29l-17.9 55.6l43.4 10.1l39.4 32.4l33.6 -7.7l-24.5 112.2l-61.8 158.5l-34.5 13.3l15.8 18.3l349.4 299.4l88.3 76.7l44.1 -56.5l64.6 -109.5l-10.8 -44.1l24.4 -13.3l56.9 -76.7l-72.5 -187.2l8.1 -56.7l-24.2 -42.9l66.6 -139.8l57 -131.1l-14.8 -21.6l70.1 -118.4l44 -111.2l-313.8 -196.4l-210.1 -25.2l-69.7 -18l-19.8 15.5l-3.4 35.2l-13.2 27.1l-5 1.6l-19.5 -2.2l-25.3 -12.7l-35.8 11.7l-24.3 16.8l-2.5 10l4 6.8l-0.4 2.8l-20.2 21.1l-15.4 8.2l-30.1 4.6l-22.1 20l-50.8 65.5l-16.9 4.4l-9.6 13.6l1.3 14.5l-31.3 29.1l-26.1 14l-33.4 11.6l-14 9.4l-22 -5.9z" />
  </g>
  <g data-id="025">
    <path d="m3573.2 6714.3l0 0l-18.3 7.4l56.3 54.9l64.1 11.5l30.8 -28.6l39.6 4.9l-25.4 41.2l-34.8 9.5l2.8 30.2l62.7 16.9l22.6 55l0.3 36.1l33 11.7l-83.2 93l126.1 216.3l-116.9 -9.8l111.5 85l143.8 160.6l25.1 26.7l9.9 80.3l17.3 11.2l300.7 92.8l88.1 -5.4l25.7 24.1l113.9 -84.8l2.5 37.8l25.6 -13.2l-9.2 37.3l47.9 8l18.2 -46.8l25.4 8.3l-15.2 28.4l23.1 15.5l36.6 4.4l45 -15.3l4.1 -5.3l14.2 -6.5l24.6 -29.4l6.1 -9.5l15.4 -18.6l12.7 -4.7l10.3 -13.6l1.7 -3.5l0.4 -6.6l-16.8 -9.5l-5 -12.4l10.9 -45.6l2 -0.7l9.7 1.3l3.7 -3.2l-1.3 -10.8l-1.8 -4.3l9 -13.7l11.2 -2.9l19 -15.9l3.2 -6.9l6 -1.5l11.5 1.5l8.5 3.9l1.5 1.8l0.8 -1l1.7 -2.7l-0.5 -11.6l-5.5 -3.3l-3 0.3l-16 -22l-3.1 -1.6l0.5 -6l4.3 -10.9l17.2 -28l3.4 0.7l1.4 -0.8l10.7 -7.1l9.1 -8.7l1.3 -7.6l6.1 -13.7l6.5 -8.4l10.1 -10.9l16.8 -15.4l9.4 -1.5l4.8 -3.6l-8.5 -18.1l1 -9.9l2.5 -5.3l10.4 -3.4l9.4 -15.5l0.1 -5.3l6.2 -12.8l13.7 -20.6l17 -17.2l9.9 -13l3.3 2.5l2.4 3.8l8.5 4.7l20.3 -17.7l1.8 -3.1l1.2 -6.4l1.8 -2.4l12.1 -9.8l1.2 -0.3l4.9 3.4l5.8 -2.5l0.5 -7.4l-3.3 -3.7l0.3 -4.1l4.2 -6.9l20.4 -21.6l7.9 -10.8l12.9 2.1l19.5 -29.4l12.4 -15.4l10.9 -10.6l1.9 -6.7l16.1 -12.7l5.9 -2.1l13.9 -10l1 -1.1l10.7 -11.8l5.3 -1.6l24.7 -26.9l24.5 -23.1l22.4 -18.9l1.2 -4.5l-0.7 -3.7l1.4 -3.1l6.7 -5.7l13 -5l6.3 -7.9l6.6 -13.3l1.5 -6l-1 -6.4l1.9 -5.3l9.9 -13.9l8.1 -2.4l2.6 -6.3l-1.9 -3.8l0.4 -2.8l10.8 -21.7l3.8 -3.8l3.4 -0.5l3 -2.1l3.2 -6.4l3.1 -9.1l-3.3 -6.8l-0.2 -3.2l5.4 -11.1l6.2 -8.7l16.9 -41.2l-298.6 20.2l-126.4 50.9l-58.1 -17.6l-36.9 2.5l-98.9 -11.9l-200.3 -174.7l6.6 -288l-155.3 -107.3l-195.2 177.7l-108.7 93l-89.7 76.9l-165.7 138.5l-76.9 -18.5l-268.8 -44.2l-5.4 54.2z" />
  </g>
  <g data-id="027">
    <path d="m7482.9 3650.3l0 0l-42 60.4l162.8 100.9l116.7 38.9l221.8 90l69.8 4.8l84.7 58.6l67.7 18.7l43.1 -57.2l83.3 23.4l107.9 112l7.6 -7.2l17.1 -19.8l1.7 -5.3l22.1 -16.7l11.9 -6.5l2.2 1.2l3.9 5l4.4 -1.8l6 -5l1.5 -3l5.8 -4.3l13.8 -1.3l41.5 -49.2l3.4 -8.6l2.3 -16.4l19 -28.9l27.1 -14.9l2.7 -4.2l18.1 -19.4l-6.6 -9l-10.2 -4.8l-29.1 -26.3l-4.8 -11.7l8.9 -12.9l-1.2 -3l-12.1 -7.7l-11.8 -1.1l-4 -3.6l3.2 -4.5l10 -13l2 -2.7l2.8 -3.3l3.8 -4.2l8 -9l12.3 -14.3l25 -35.8l1.2 -17.9l1.6 -8.4l9.2 -7l-0.2 -0.7l-18.9 -22.1l-11.2 -8.3l-3 0.8l-5 -1.7l-1.7 -3.7l10.6 -16.9l23.2 -30.3l2 -3.4l-0.9 -1.3l7.3 -10.7l10.8 -4.3l9.3 -14.6l3.2 -7.5l-0.1 -5.2l2.7 -3.8l22.7 -26.9l6.3 -6.7l8.9 -6.4l5.2 -18.8l6.3 -1.9l3.1 0.7l2.2 -4.5l25.7 -51.5l1.7 -5l-4.4 -4.5l0.5 -1.8l7.6 -8.7l2.4 -0.1l2.4 3.2l4.1 -8l0.7 -3.4l-3.1 -9.5l-16.7 -3.3l-27.6 -8l-9.3 -4l8.6 -9.4l15.8 -22.9l23.6 -45.2l-13.8 -10.7l1.2 -11.5l-17.3 -18.2l-4 -12.7l1.1 -9.2l5.5 -8.9l10.9 -12.3l5.9 -10.1l3.3 -8.4l-2.5 -8.6l-10.7 -15.5l11.1 -10l2.5 -5.3l1 -7.9l-2.6 -5.4l0.8 -7.9l2.3 -7.4l1.4 -15.7l-8.8 -7.2l4.9 -10l-183.9 -89.6l-62.9 -44l-5.1 1.8l-6.1 -0.4l-13.2 -7.2l-6.8 -1.4l-3.4 0.3l-8.2 4.2l-18.8 -2.9l-8.5 0.7l-21.2 -10.2l-15.8 -5.9l-13.2 0.4l-38 9.6l-7.2 0.8l-5.3 -1.8l-8.9 -0.4l-17.9 5.5l-2 -0.6l-2.1 -0.6l-9.7 -6.5l-12.7 -11.4l-16.5 -3.5l-0.5 -0.4l-6.7 -5.3l-3 -4.3l-2 -6.8l-1.5 -2l-3.5 -0.9l-4.2 1.1l-5.8 4.3l-10.9 -2.3l-2 -2l-15.5 -6.6l-17.3 -5l-11.2 0.8l-0.4 3.5l-4.3 2l-51 6.4l-2.9 -1l-93.7 98.8l-53.3 90.3l-76.3 42l-44.3 59l-4.4 32l-39.1 94.5l-84.1 121.9l-63.1 5.4l-79.5 92.3l-8.7 36.9l-66.2 47.8z" />
  </g>
  <g data-id="029">
    <path d="m4013.6 150.6l0 0l0.4 11.8l1.8 11.8l8.5 9.3l15 13.3l5.8 7.1l22.4 37.8l16.8 25.9l5.3 2.1l6 5.7l10.8 40.9l2.7 22l5.8 27.3l18.2 33.5l13.4 14.1l6.6 4.4l7.5 19.5l1.4 10.4l-2.6 21.4l-4.5 13.3l-12.4 22.9l-1 8.3l-12.8 23.7l-2.2 7.7l-1.4 14.7l1.4 28.8l-0.8 29.1l1.8 10.1l-0.8 3.2l-6.1 7.5l-26.2 10.7l-3.3 2.3l113.5 -12.7l113.3 0.3l0.6 -167.6l-2.6 -29.9l-0 -9.9l-0.1 -108.3l-0 0l0 -111.4l0 -81.7l-0.1 0l0 -70.1l0.1 -0l0.1 -60l-5.9 4.8l-7.6 2.5l-9 -0.5l-5.4 1.8l-13.8 9.3l-12.9 6.5l-10.6 2.3l-19.5 13.8l-14.5 16.4l-8.3 5.6l-9.7 3.3l-6.3 -0.2l-7.7 -3.3l-17.1 -18.7l-4.1 -3.1l-9.5 -4.3l-10.4 0.5l-24.6 9l-22.7 4.7l-14.6 10.3l-10.2 12.9l-11.3 20.4l-13.7 15.8l-4.6 3.4l-2.5 -0.2l-15 13.2l-6.8 10.4l-4.2 14z" />
  </g>
  <g data-id="031">
    <path d="m7171.6 4763l0 0l-44.1 56.5l156.4 135.3l1 -13.3l2.2 -11.5l3.9 -3.6l4.5 -0.8l0.6 -3.4l-0.8 -10.7l-1.6 -3.1l-3.9 -3.6l-2.6 -6.3l1.4 -7l12.2 -13l4.9 -3.6l27.2 2.9l7.9 0l4.1 -2.9l8.5 -16.9l-0.8 -10.4l-2 -2.9l0.8 -14.3l9.1 -22.7l5.7 -5.5l9.7 -1l8.1 -5l2.8 -3.6l0.8 -2.1l-0.4 -4.2l2.4 -9.9l5.7 -17.2l6.8 -9.3l0.3 -2.3l-2.8 -11.6l4.2 -5.1l8.5 -7.2l253.2 227l6.8 -10.5l4.5 -12.4l31.5 -60.4l26.4 -43l5.9 -7.5l10.2 -18.8l12.4 -24.4l12.3 -27.7l8.5 -20.9l5.6 -17.1l24.3 -48.1l9.3 -7.8l3.1 -6.5l4.2 -13.2l4.1 -5.4l13.9 -13.3l13 -3.8l27.8 -17.7l3.7 -7l5.6 -6.6l-0.3 -4.8l8.4 -22l23.5 -29.4l25.8 -9.5l4.4 0.2l3.3 -1.5l8.1 -7.5l2.9 -4.6l-5.2 24.8l-1 6.9l0.6 3.2l0.1 1.3l0.6 4.9l-2.9 27.2l2.2 10.3l2.4 3.5l3 0.7l2.1 -1.4l7.2 -10l16.9 -17.1l14.1 -1l12 -17.2l6.5 -6.7l13.5 -2.8l2.4 1.4l19.9 -22.2l8.3 -14.1l1.4 -6.2l7.7 -10.8l6.2 -4.4l8.1 -16.7l5.5 -18l11.7 -19.5l16.6 3.4l12.1 -20.7l0 -5.9l3.3 -6.8l2.6 -3.3l7.9 -4.5l10.6 -0.1l1.1 3.4l-0.1 10.3l2.7 8.5l8.9 -4.6l6.4 -0.7l5.7 16.7l13.6 13.4l0.5 -5l5.1 -7.9l5.8 -1.7l5.6 -4.5l9.3 -17.4l11.7 -17.9l1.9 -7.8l3.1 -5.7l20.3 -28.7l17.8 -19.5l4.7 -7.5l9.1 -8.5l5.3 -3.3l3.8 -4.4l-14 -8.7l-4.6 -8l-7.4 -4.9l-3.6 1l-1.6 -1l-12.3 -14.9l24.2 -25l6.6 -7.7l5 -9.2l13.3 -15.7l4.2 -2.6l3 -4l8.1 -10.6l17.3 -15.4l10.5 -4.5l7.8 -7.4l12 -17l1.7 -6.5l-1.1 -4.6l8.9 -8l8.1 -9.8l-107.9 -112l-83.3 -23.4l-43.1 57.2l-67.7 -18.7l-84.7 -58.6l-69.8 -4.8l-221.8 -90l-116.7 -38.9l-162.8 -100.9l-44 111.2l-70.1 118.4l14.8 21.6l-57 131.1l-66.6 139.8l24.2 42.9l-8.1 56.7l72.5 187.2l-56.9 76.7l-24.4 13.3l10.8 44.1l-64.6 109.5z" />
  </g>
  <g data-id="033">
    <path d="m4188.2 3503.6l0 0l-45.4 80l53.9 10.2l-11.5 66l73.8 58.2l-38.4 36.9l81.8 29.6l-6.2 36l-94.3 53.5l-33.7 -19.4l-8.9 40.9l22.1 -3.7l73.7 25.5l5.8 19.6l57 13.8l21.5 -9.1l81.2 9.9l32.7 18.9l306.7 90.6l104.4 8l43.9 -31.4l5 -152.3l118.4 -186.8l-43.2 -65.2l-24.1 -9.3l-5.6 -151.7l-5.6 -139.5l15.7 -30.3l-173.6 -112l-61.9 -4.8l-367.1 -84.1l-37.7 28.9l-12.1 62.1l-52.6 15.4l11.1 49.5l-17.6 17.3l13.2 42.5l-5.8 55.3l24.9 16.7l-51.8 60.4l-14.4 42.3l-35.6 11.7z" />
  </g>
  <g data-id="035">
    <path d="m1494.5 4649.7l0 0l-3.1 8.8l14.8 30.7l145.7 218l80.9 121.2l-45.1 47.7l82.5 88.2l46.7 -7.7l5.7 1.1l102.9 148.1l129 187.2l110.9 -58.9l113.8 -92.7l-49.7 -155l25.7 -143l25.2 -254l-11.7 -200.2l50.1 -42.4l-71.8 -68.6l-23.4 -60.1l40.5 -27l-5.4 -72.8l-100 -54.2l-336.6 -180.9l-0 0l-10.4 14.4l-17.1 15.2l-8.3 5.5l-21.7 9.4l-12 0.8l-8.3 -1.3l-10.6 -3.1l-15 -8.1l-9.9 -2.6l-9.7 -0.3l-5.7 1.8l-3.5 3.1l-3 7.3l-0.6 15.2l1.6 19.9l3.5 16.5l5.5 11.5l11.4 19.6l6.1 7.1l14.3 12.1l13.7 9.9l27.8 27.2l11.4 16.2l6.1 12.3l0 22.7l-1.8 10.5l-4.1 6.4l-9.7 8.5l-4.2 8.3l-3 9.3l-2.4 13l0.5 8.1l1.5 3.4l-8.4 20.8l-3.9 20.5l0.5 3.5l1.7 12.1l3.8 8l9.9 11.1l8.6 7.7l25.8 30.2l1.7 9.4l-4.8 14.6l-3 5.5l-5.4 4.5l-7.2 3.1l-7.2 0.6l-8.8 -0.6l-14.5 -4.8l-8.9 -3.6l-15.7 -10.5l-6.1 -6l-19.8 -25.1l-16.4 -10.6l-11.1 -2.2l-10.8 1.1l-4.7 1.8l-8.5 5.7l-13.3 17.1l-13 21.9l-3.2 40.6l1.5 8.1l-6.8 22.6l-14.9 22.6l-6 6.6l-32.4 23.5l-29.2 18l-7.3 1.1l-11.6 -1.9l-20.5 -10.1z" />
  </g>
  <g data-id="037">
    <path d="m9358.5 3604.2l0 0l4.6 35.7l0 0l0.7 0.6l415.3 345.8l0.3 0.2l12.1 -20l-0.1 -7.2l-1.5 -7.1l0.2 -6l3 -12.2l6 -7.5l10.6 -25.5l3.9 -6.7l4.4 -2.6l6.4 -10.1l1.8 -4.7l1.4 -10l-0.6 -3.6l13.7 -35.1l0.5 -3.7l-1.6 -14l0.6 -2.8l7.3 -14.8l2 -10l9.9 -13.4l10.4 -23.2l4.8 -7.4l6.5 -6.3l13.5 -19.6l1 -3.8l7.4 -29.3l-6.7 -0l-0.6 -1l0.4 -14.4l0.8 -1.9l2.6 -1.2l2 -3.3l3 0.8l7.5 -2.9l2.2 -12l1.1 -1.8l5 -11.5l0.7 -2.8l5.5 -14.1l1 -1.6l4.2 -5.6l0.1 -1.7l-0.6 -6.2l1.3 -8l5 -15.5l6.1 -15l25.2 -45.7l9.9 -8.5l17.1 -7.4l3.4 -3.1l0.9 -4.3l-13.3 -0.9l-14.5 -12.3l-40.4 -18.4l-9.2 -5.3l-5.3 -8.5l-1.7 -10.3l4.9 -7.8l16.8 -10.4l9 -9.9l4.2 -17.7l-0.5 -13.6l-18.5 -34.6l-1.1 -3.4l0.8 -6.5l2.4 -3.2l5.1 -2.2l18.2 -3.3l5.4 -2.1l3.6 -4l0.8 -5l-1 -7.9l-7.3 -23.7l-15.2 -24.3l-10.6 -24.3l-0.8 -8.1l-3.2 -3.7l-8.2 -5.7l-9.3 -4.3l-23.4 1.6l-26.2 -3.4l-15.8 -10.1l-8.7 -10.3l4.7 -9.4l9.2 -4.2l7.5 -8.3l-0.5 -11.5l-13.5 -11.9l-5.6 -10.1l4.9 -9.5l18.2 1l7.4 -0.8l3 -4.9l-0.9 -5.4l-13.7 -6.4l-12.2 -9l-5.2 -11.7l6.2 -13.9l27.9 -14l19.7 -7.7l9.4 -5.6l3.1 -4.5l-0.9 -7.1l-10.1 -8.8l-7 -1.1l-14.7 1.1l-5.8 2.6l-8.6 7l-11.6 11.6l-27.3 2l-34.5 -8.9l-1.4 -0.4l-44 124.2l-77.4 77.9l-92.6 94l-32.9 1.8l-40.4 35l-60.5 145.8l-78.6 87.6z" />
  </g>
  <g data-id="039">
    <path d="m1504.9 5937.6l0 0l-23.7 148.5l59.7 28.1l78.5 3.6l33.4 -23.7l27.9 17.5l21.1 57l8 76.1l-16.2 18.9l2.8 95.4l-48.7 -7.2l-0.7 34.4l25.6 59.1l39.3 19.6l-25.8 -50.5l7.6 -25l50.8 -15.3l2.8 -42l39.5 7.8l20.3 58.2l35.7 17.5l32.5 -42.5l-9.2 -17.6l55.7 -17.6l22.4 26.1l55.3 -13.8l32.3 7.1l-17.6 45.6l8.1 46.7l28.4 19.4l65.5 8.3l24.1 52l42.5 43.6l27.9 -11l44.1 52.1l36.9 23.2l-37 40l-6.9 53.6l65.4 39.7l30.8 -17.2l61.3 103.9l-13.1 47.5l19.7 54.9l-5.1 21.1l46.7 28.3l44.3 -13.9l68 11.3l96.6 -495.6l6.5 -21.2l6.7 -12.8l-4.6 -6.4l-0.4 -13.9l29 4.6l169.2 -214.5l0.4 -0.5l-20.9 -130.2l-25.2 -151.5l-58.4 -248.9l1.6 -11.8l178.7 -141.3l-53.7 -10.9l-109 26l-59.4 -33.7l-93.1 -16.9l-235.6 -22.3l-12.8 9.2l-28.4 -36.5l-44.5 -57.9l-29.7 -78l-113.8 92.7l-110.9 58.9l-129 -187.2l-65.8 78.5l-20.7 -8.1l-34.4 47.7l17.7 71.1l-14 76.9l24 16.8l32.2 108.8l-1.7 24.5l-193.1 92.8l-6.7 -0.6l-30.2 11.5l-20.9 10.8l-59.8 35.5l-38.8 23.7l-8.5 41.8z" />
  </g>
  <g data-id="041">
    <path d="m3891 4082.3l0 0l23.4 228.1l47.7 57.8l177.8 214.4l30.1 53.4l-4.7 34.6l19.9 30.1l51.8 -22.8l28.4 36l43.5 -22.2l98.3 75.5l-23.2 86.3l44.6 11.1l11.6 53.5l23.7 -5.3l-10.2 73.9l-12.6 26l24.5 32.1l106 -1.9l-33.5 -106.1l19.5 -118.5l26.3 -159l39 -30.8l11.1 -52.6l48.4 -78.5l-20.1 -8l55 -41.3l2.8 -36l-11.8 -12.4l-17.8 -58.3l33.5 -44l14.3 -69.9l11.9 -55.6l9.8 -110.9l-306.7 -90.6l-32.7 -18.9l-81.2 -9.9l-21.5 9.1l-57 -13.8l-5.8 -19.6l-73.7 -25.5l-22.1 3.7l-68 72.9l-55.5 -4.9l-49.8 51.3l-39.8 81.7l-55.4 -14.1z" />
  </g>
  <g data-id="043">
    <path d="m687 7072.1l0 0l1.2 -0.4l233.7 -79.8l128.2 -44.8l168.4 -58.2l34.7 1l8.5 -9.7l70.1 -17.4l91.9 9.7l22.4 -11l55.5 -11.3l-100.3 -25l-35.6 -27.9l16.3 -101.5l37.1 -49.5l-15.2 -25.9l19.1 -48.1l33.1 -38.7l48.3 28l50.8 11.5l-18.9 -36.3l3.2 -43.2l29.1 11.1l0.3 -34l42.2 9.7l-1.2 -30.3l37.1 -64l0.7 -34.4l48.7 7.2l-2.8 -95.4l16.2 -18.9l-8 -76.1l-21.1 -57l-27.9 -17.5l-33.4 23.7l-78.5 -3.6l-59.7 -28.1l-135.8 126.5l-18.4 2.4l-12.7 23.7l-104.5 -61.4l11.7 -121.5l-8.2 -96.2l-35.7 -6l-65.9 24l-41.5 60.3l-95.5 19.9l-24.6 -8l-42.1 74.8l-46.9 -0.3l7.7 3.7l18.7 53.5l-68.5 45l-47.8 108.8l-3.2 48l-23.2 12.8l12.5 93.6l-28.5 63.3l56.3 28.8l-17.4 36.9l9.3 30.8l42.8 26.6l11.2 54.3l53.7 20.4l7.6 48.6l26.2 8l-23.5 58.5l-27.7 9.2l-115.7 121.8l-33.3 45.3l-31.4 29.7z" />
  </g>
  <g data-id="045">
    <path d="m922 6991.9l0 0l-13.2 31.1l32.4 32l35.6 97.6l77.7 33.4l-6.9 55.4l33.7 47.4l-4 18.1l-64.4 33.5l24.9 33.7l2.9 42.5l61.2 30.4l-8.9 25.4l12.4 54l-20.9 0.8l-13 48.9l21.2 -7.3l37 46.4l0.9 0.2l10.7 78.9l84 -0.1l37.8 85.8l47.9 46.8l11.4 23.9l3.1 -16.7l25.4 -53.8l70.3 -8l29 -27.4l33.5 3.8l23.8 49.2l55.8 -22.8l19.9 -22.6l29.9 37.3l24.9 -19.8l47.9 43.1l23.4 -13.3l20.1 -26.7l164 -72.3l21.3 -6l-35.5 -36.2l-92 -93l44.3 -32.1l71.7 1.8l27.6 -27.2l38 3.6l36.5 -18.2l38.8 5.7l61.9 -28.5l-49.3 -37l0.6 -8.8l-35.6 -62.7l-29.6 -5.2l-75.6 26.8l-45.3 33.2l-16.9 -39.6l-27 -10.5l-2 -37.8l-58.7 -26.2l-15.4 -33.9l46.9 -48.1l-10.7 -49.9l-34.5 -75.2l-40 -4.6l-28.8 -28.1l-93 -2.8l-82.6 -33l-19.1 -34.8l-80 7l-60.1 -37.6l96.9 -100.1l-22.4 11l-91.9 -9.7l-70.1 17.4l-8.5 9.7l-34.7 -1l-168.4 58.2l-128.2 44.8z" />
  </g>
  <g data-id="047">
    <path d="m1316 8270.5l0 0l1.9 17.6l6.9 22.8l10.7 15.4l4.3 1.4l9.9 -7.4l7.8 0.1l15 14.6l-1.1 3l7.6 8.7l14 -2.9l18.9 6l7.3 14l5.9 0.7l3.4 -1.4l4.7 0.1l6.5 5.3l0.6 5.1l-5.1 10.9l-5.5 7.8l7.3 23.4l9.1 12l18.2 9.8l-2.1 9.6l-2.6 1.9l-3.2 0.1l-5.5 4l-1.5 9.3l5.1 9.2l-1 10.8l-9.8 11.8l-6.4 21.7l1.8 5.6l4 1.9l2.3 9.1l-2.3 3.8l7.5 15.4l0.6 0.4l6.5 5l-3.7 10.1l3.9 4.4l1.9 4.2l8.3 2.3l1.7 2.6l0.9 5.1l7.3 10.4l9.6 0l0.9 1.3l1.2 0.3l6.1 12.6l1.2 1.7l1.9 0.9l0.9 -0l4.4 -0.7l1.6 1.8l7.1 3.2l0.1 2.1l7 21.2l1 -0.1l1.4 0l0.1 1.6l2 3.3l1.8 -0.1l10.5 -2.6l1.6 1.1l3.8 0.2l8.5 -1.2l2.6 -2.4l1.8 0.8l0.8 7.4l10.4 9.6l1.1 4.5l5 6.8l5.6 -0.4l14.5 13.1l0.7 4.5l-7.7 4.4l-3.5 5.4l-0.5 1.6l0.9 1.6l0.9 1.1l5.5 7l4.9 2.3l7.3 -5l3.2 0.4l1.7 14.8l-0.7 0.9l-1 1.2l2 13.2l-1.2 8.7l1 9.3l7.3 6.3l6.4 1.5l7.4 -2.4l1.7 0.1l7.2 -2l8.8 2.4l2.1 2.2l-2 3.7l-0.2 3.4l19.1 5.7l11 0.3l5.9 -1.2l7.1 -3.1l5.4 -4.8l2.8 -0.1l4 -0.4l3.8 -6.2l4.3 -0.8l19.7 2.8l1 3.3l-1.1 3.4l0.4 1.3l6.8 -5.7l1.6 -1.3l12.5 4.7l7.6 6.6l0 6.6l4.1 3.9l5.2 2.6l0.1 0.1l13.9 1.5l5.4 -2.3l2.8 -0.3l2.2 -0.4l2.1 -0.8l3.1 1.2l5.3 3.2l-0.2 5.3l0 2.1l0.4 2.8l5.1 5.8l4.3 2.8l1.6 2.7l1.7 1.1l7.4 2l3.1 1.9l1.2 5.8l0.1 8.2l4.9 7.6l2.7 0.9l1.4 1.9l-5.1 16.5l0.2 4.4l-1.8 4.3l0.6 4.2l9.6 9.4l1.5 1.5l10.6 0.3l10.4 -4.3l4.1 -1.8l6.3 0.1l7.1 6.9l6.7 8.8l1.1 14.2l34.1 27l7.8 11.8l17 1.2l6.4 4.2l-1 0.9l1.5 13.9l3.8 5.1l5.6 3l0.8 2.5l238.7 -13.2l4.6 -3.8l2.1 1.1l0.9 1.1l1.6 -0.4l5.1 -2.6l8.8 -13.5l8.2 -16.4l1.6 -1.5l23.1 -6.8l11.4 -6.1l13.7 -2.8l24.2 -14.4l3 -3.2l2.2 -14l-0.3 -13.3l3.1 -8.2l1.4 -6.2l2 -6.3l8.8 -13.9l2.2 0.3l0 1.8l-1.4 1.6l0.8 4.9l4.7 5.8l7 3.7l17.7 0.9l6.9 -1.3l7.5 -10.2l29.1 -12.2l4.3 -6.8l0.3 -3.5l-1.4 -4.1l3.4 -2.4l9.5 -1.4l10.4 -6.6l1.6 -2.5l31.3 -5.4l10 4.3l22.9 -5.6l10.3 -18.2l4.1 -9.4l-0.3 -2.1l1.1 -3.1l11 -26.9l-2.6 -5.6l5.8 -7.3l8.1 -3.3l2.8 -3.9l-1.1 -4.7l-2.7 -3.7l0.3 -7.2l8.7 -14.7l12.5 -8.9l2.9 -1.5l1.9 1l1.8 3.2l1.6 0.6l8.1 1.9l5.7 -1.6l5.9 -0.4l3.7 -4l2.6 -10l7.5 -8.8l-0.9 -4.8l-2.5 -2.9l-0.2 -3.2l2.6 -1.5l2.1 -5.3l1.5 -3.6l8.4 -4.5l103.5 -221.8l-128.5 -48.2l-48.3 -54l-68.1 40.6l-12.8 -14.4l-36.5 -39.3l11.9 -16.8l-21.1 -18.4l-60.2 5.8l-13.2 18.3l-43.3 -10.5l-19.4 5.9l-52.5 -41l-14.2 5.6l-84.5 -8.9l-45.8 -64.4l-19 21.1l-53.8 -29.4l-56.6 18.9l-4.1 26.5l-35.5 21.7l-132.9 -25.1l-90.7 -3.8l-17.3 -73.7l-59.9 -34.6l-108.5 56l-27.4 38.8l-10 -0.9l-0.2 0.2l-9 0.4l-18 6.3l-3.8 2.2l-2.3 4.2l0.6 10.4l-4.2 2.6l-6.6 -1.2l-5.4 0.8l-2.7 1.9l-1.9 3.8l-0.6 9.6l0.4 2l2.9 2.9l0.1 4.8l-1.2 1.3l-8 0.7l-15.8 -5.1l-11.7 9.2l-13.9 13.6l-3.2 -0l-2.4 -2.2l-10.9 -0.6l-8.4 2.1l-6.2 4.9l-7.4 16z" />
  </g>
  <g data-id="049">
    <path d="m4358.3 2854.8l0 0l35.1 128.3l27.3 29.9l-8.9 44.5l-36.8 10.1l-8.5 34l367.1 84.1l61.9 4.8l173.6 112l10.2 0.1l142.6 -21.4l70.5 39.6l126.6 -40l28 -41.8l146.9 -92.3l-59 -27.6l-52.2 -56.8l-35.3 -6.8l-9 -37.8l-2.1 -2.7l-4.2 -2.5l-4.2 0.4l-1.5 -1.6l-3.4 0.8l-4.1 -2.8l-4.8 -0.3l-0.6 -2.3l-1.7 -0.9l-7 1.3l-22.7 -45.9l-172.7 -156.8l-51.3 -73.6l-36.4 -0.3l-287.2 -3.3l-70.6 -0.2l-40.7 -57.2l-57.1 -10l-75.2 -5.1l-21.4 25.7l19.4 24.4l-31.6 19.9l-3.2 44.9l-56.4 -4.4l-3.1 36.7l-36.3 52.9z" />
  </g>
  <g data-id="051">
    <path d="m3605.2 2319.3l0 0l-1.7 7.4l4.7 17l4.6 10.2l21.6 28.1l4 4.1l13.5 8.5l19.3 36.7l4.1 6.2l2.2 2l637.8 -1.6l-0.1 -155.4l-0.1 -68.5l1.1 -224.2l-0.7 -121.8l0.3 -5.9l-0.1 -46.2l-0.1 -7.3l-0 -7.4l-0 -0.6l0 -2.5l0.2 -140.5l-269.7 -29l-35.1 -3.4l-50.9 -5.2l-79 -7.4l-0.1 0.2l-6.1 8.9l-2.2 6.2l0.1 12.3l-0.9 5.9l-5.5 14.7l-2.8 19.3l-0.3 6.1l1.9 23.3l2.1 7.8l2.7 23.4l-2.9 37.9l-6.2 4.5l-6.3 7.6l-18 12.4l-6.9 6.1l-9.8 15.2l-2.2 8.6l-0.1 9.7l6.5 46.4l9.2 22.5l1.7 10.7l-1 6.9l-3.8 9.3l-2 2.5l-2.8 1.5l-3.9 0l-11.5 -1.9l-8.9 -4.4l-20.7 -15.5l-26.1 -6.7l-9.8 0.7l-5.8 1.8l-5.3 4.3l-3.2 5.8l-3.4 12.2l-0.8 11.1l1.4 7.6l5.7 15.7l7.8 15.1l12.5 16.1l4.4 7.3l7.8 27.9l-1.2 13.2l-4.8 9.3l-13.7 12.8l-33.6 15.6l-9.8 8.1l-6.1 7.5l-3.8 7.7l-1.7 6.8l1.5 15.5l6.5 22l1.1 6.6l0.6 35.1l-5.7 28.1l-2.3 6.6l-18.7 20.9l-56.3 40.9l-6.7 9.1l-5.6 14.2z" />
  </g>
  <g data-id="053">
    <path d="m859.2 4887.6l0 0l0.1 19.2l2.2 15.8l7.8 14l19.2 11.5l11.4 9.3l5.4 6.9l6.7 13.8l4.7 29.3l7.3 9.9l2.8 8.6l3.5 30.2l4.1 17.2l4.3 18.5l-0.8 8.6l-4.5 16.4l-10.4 30.7l-1.4 18.2l6.5 20l3.2 15.3l1 18.7l13.2 27.8l4.7 15.9l5.1 25l3.2 9.1l1.2 9.6l0 17.4l-6.3 28.1l-4.3 12.2l-9.5 11.4l-13.8 11.4l-10.3 4.9l-23 3.6l-28 0.1l332.7 304l-19.2 -346.4l217.7 -126.5l12 -3.3l362.6 -59.7l-82.5 -88.2l45.1 -47.7l-80.9 -121.2l-145.7 -218l-14.8 -30.7l3.1 -8.8l-3.4 -2.2l-11.3 -13l-22.5 -19.1l-2.1 -4.9l-0.7 -4.9l3.4 -15.5l15.4 -19.1l2.7 -5.2l11.8 -12.9l7.3 -4.8l15.1 -18.1l1.9 -2.8l3 -11l-4.3 -21.1l-12.2 -19.8l-11.9 -23.7l-11.7 -32l-16.9 -28.5l-13.5 -26.5l-7.4 -7.2l-10.2 -7.5l-19.5 -7.2l-15.9 2.1l-3.2 2.5l-14.1 3.4l-12.4 1.4l-7.3 -0.7l-3.9 -1.3l-3.6 -3l-1.8 -3.5l-1.5 -16.4l-2 -9.1l-6.7 -17l-8.7 -16.7l-7.3 -10.7l-14.8 -14.1l-9.7 -4.4l-21.3 -1.3l-19.7 4.4l-17.7 7.6l-5.7 7.3l-5.7 12.5l-8.3 36.8l-7.1 17l-4.9 7.6l-14.6 11.2l-20.5 13.6l-21.3 9.9l-19.7 13.3l-5.1 5.7l-3.2 7.3l-3.5 16.7l-8.1 16.3l-3.4 6.9l-17.3 26.4l-3.7 13.6l0.6 13.3l-2.2 7l-18.9 30l-16 29l-12 11.5l-17.1 19.6l-2.8 16.7l-1.4 21.4l6.3 16.7l2.2 8.8l2.2 8.7l1.6 13.9l-4.9 35.5l-6.6 28.5l-5.7 9.1l-28.2 32.2l-8.8 5.7l-27.6 13.2l-23.7 5.8l-16.5 16.8l-20.3 15.7l-10.6 10.4l-5.6 7.8l-8.7 22.1z" />
  </g>
  <g data-id="055">
    <path d="m2604.1 8625.8l0 0l85.4 97.9l92.6 79l100.3 85.5l41.3 -20.8l54.1 -38.2l22.6 -12.5l16.4 -6.4l33.6 -9.7l60.5 -23.8l36.1 -10.6l21.9 -4.5l95.1 -14.9l31 -9.9l27.4 -4.9l16 -4.6l9.3 -4.3l33.3 -7l1 4.3l-6.2 11.6l1.7 6.5l2.4 1.8l12.7 3.3l14.9 -1.8l37.9 -9.5l19.8 -11.2l14.2 -6.6l8.3 -2.1l15.8 -6.3l38 -22.6l41.5 -35.5l22.6 -24.7l7.4 -5l32.2 -16.3l-68.6 -94.6l41.6 -71.3l-3.4 -6l-1.5 -7.2l0.1 -7.5l4.1 -12.1l7.3 -12.6l-477.3 -407.2l-27.4 -13.5l-37.5 4.6l-17.9 -14.9l-128.8 57.3l-2.2 84.9l-28 84.4l-17 -2.6l-37.2 10.2l-12.2 11.5l-35.1 17.9l-30.1 58.2l-58.6 32.5l50.3 101.5l-21 16.9l-37.1 -29l-103.5 221.8z" />
  </g>
  <g data-id="057">
    <path d="m6853.2 3466.4l0 0l-5.9 4.6l69.7 18l210.1 25.2l313.8 196.4l42 -60.4l66.2 -47.8l8.7 -36.9l79.5 -92.3l63.1 -5.4l84.1 -121.9l39.1 -94.5l4.4 -32l44.3 -59l76.3 -42l53.3 -90.3l93.7 -98.8l-13.3 -4.5l-9.7 -8.9l-14 -0.5l-13.8 -9.2l-14.3 -5.1l-4.1 -4.9l-1 -8.3l-1.7 -3.1l-3.7 -3.4l-25.3 -6.9l-3.2 -2.5l-9.5 -13.8l-2.9 -1.4l-19.9 -3.6l-0.9 -0.2l-2.7 -9.5l-11.5 -20.5l-2.3 -21.9l-1.7 -7.7l-9.2 0.8l-3.5 1.7l-6.2 13l-6.3 3.1l-21 -3l-7 -3.9l-14.8 -14l-1.7 -5l-0.3 -5.8l-4.1 -9l-3.3 -4l-4.4 -2.2l-7.8 -10.6l0.1 -1.9l2.5 -5.1l17.8 -12.3l15.5 -3.4l18.2 0.1l4.4 3.6l0.3 5.4l4.4 2.2l16.3 -10.6l10.7 -11.2l0.4 -4.2l-5.4 -16.3l-13.6 -8.9l-11.4 -3.1l-16.6 8.7l-13.2 10.7l-13 -1.4l-16.1 -6l-2 -2.5l0 -4.6l11.9 -32.9l3 -4l6.1 -2.4l5.7 -12.4l0.6 -5.5l-1.6 -6.3l-19.1 7.4l-31.9 19.5l-7.4 1.9l-2.7 0.7l-11.8 25.8l11.7 35l1.2 9.2l-1 10l-4 5.4l-5.3 -0.9l-2.8 -4.2l-15.3 -3.3l-5.7 19.8l-0.1 7.4l-13.6 19.4l-12 0.4l-2.5 3.7l-0.7 30.3l12.7 2.8l10.1 13l3.3 9.6l-6.6 15.9l-9.4 2.8l-10.2 -5.2l-7.9 -7.3l-16.8 -5.1l-3.1 2.3l-22.6 17.1l0.4 15.5l-1.9 5.8l-34.5 51l-0.1 3l-11.7 23l-4.2 3.6l-4.6 0.1l-14 -3.6l-10.6 9.7l-8.3 17.9l-27.2 40.5l-15.8 26.7l-3.4 1.8l-18 -3l-13.4 2.2l-10.4 6.4l-7.2 7.2l-0.7 3.6l2.2 7.2l4.8 4.2l0.6 3.1l-6.3 10.9l-9.4 10l-13.7 6.6l-4.4 56.2l-2.6 5.3l-2.5 0.7l-15.3 4.1l-4 -3.5l-5.4 -9.3l-17.7 -14.1l-36.8 -16.5l-26.7 -16l-14.3 -15.6l-6.9 -0.1l-15.5 5.1l-4.4 -0.9l-7.2 -6.2l-3.7 -9.4l0.2 -5.3l-2.6 -9.1l-19 -18.4l-8.6 1.3l-3.9 2.6l-2.9 5.8l-1.1 9.1l-1.1 9.3l-3.2 5.5l-24.5 -9.2l-29.7 8.2l-16.4 -2.7l-6.8 -2.2l-3.7 1.2l-3.1 1.9l-1.7 1.7l-0.4 3.1l1.7 4.8l4.2 7.6l1.5 7.9l-17.8 37.3l-7.5 6.9l-12.5 6.4l-4.7 7.5l-0.4 6.4l-0.7 6l-2 3.6l-3 3.3l-4.3 1l-5 -1.1l-10.2 9.6l-0.7 7.6l0.9 8.8l-1.8 8.9l-4.8 4.3l-9.1 1.6l-8.1 2.6l-2.5 6.2l-1.5 9.9l-2.3 5.3l-3.3 2l-4.1 0l-4.3 0l-4.1 -2.6l-4.1 -8.5l-7.4 -2.6l-4.1 0l-4.3 3l-10.5 28.9l1.8 9.9l-3.3 10.2l-6.6 3.2l-8.3 -1.9l-4.8 1.6l-4.8 10l-20.6 4.8l-7.9 -3.9l-4.5 0.5l-4.9 4.4l-10.2 21.7l-22.4 33l-13 5.7l-18 -1.3l-13.5 13.1l-33.3 5.3l-3.4 6.8l0.1 44.3l-2.9 3.5l-28.5 13.5z" />
  </g>
  <g data-id="059">
    <path d="m453.5 7301l0 0l1.8 18.5l0 1.8l6.3 2.9l8.6 0.8l2 1.4l6.6 21l2.2 2.9l16.6 14.3l24.2 30.1l2.4 0l2.7 2.1l11.5 16.7l2.2 6.6l2.3 13.6l5.1 2.2l9.9 1.1l4.5 2.9l4.5 5.9l1.2 3.9l2.4 3.5l5.3 2.6l10.3 1.5l3.8 1.9l11 15.2l17 2.9l1.5 1.4l2.7 13.1l-1.5 5.5l0.4 3.6l2.6 3.8l3.3 2.2l4.2 21l0.2 2.4l5.4 5.8l3.5 1.9l4.3 0.4l12.9 17.5l-0.8 10.7l-13.8 7.2l-10.9 13.3l0.5 5.3l0.6 0.6l12.6 12.1l14.5 4.8l1.6 1.6l1.2 1.8l0.9 13.7l3.4 15.9l9.1 7.1l1.2 3.7l0.9 10.3l7 14.5l3.2 2.5l9.6 1.5l5.8 5.1l2.9 4.5l-1.4 6.6l-9.4 9.2l-1.9 6.5l2.8 7.5l7.5 7.8l3.1 1.8l0.3 2.3l2.8 20.3l0.7 0.8l0.5 11.7l-1.2 2.9l0.6 4.6l5.3 3.3l7.3 2.3l3.5 -4.9l17.4 0.3l11.9 15.9l8.2 3.5l22 14.5l9.8 -0.4l17 -10.4l6.4 -2.1l2.8 0.8l27 21.5l1.2 2.9l1.2 12.7l2.7 6.3l8.7 4.2l5.4 4.1l0 3.5l-4.8 10.4l-2.4 2.9l0.1 2.2l10.9 16.3l-1.7 3.4l4.4 2.1l7.7 0.8l10.9 -1.8l1.9 -0.8l1.9 -3.5l2.6 -1.1l17.9 5.9l10.3 -3.4l1.2 -1.6l1.6 0.3l9.1 1.7l-2.1 7.2l2 5.5l9.6 9.3l15.2 13.3l0.3 8.1l1.9 3.5l7.5 1.2l13.9 28.8l1.8 10.2l16.8 4.8l4.1 -4.5l9.9 -6.4l19.4 4.2l3.7 5.1l5.8 12.5l3.5 19.6l2.6 3.1l-0.1 3.6l15.8 43.1l27.3 -1.3l1.8 1.6l0.6 3.5l25.9 5.4l9.3 1.5l19.4 -1.1l3.6 2.1l17.9 26.9l1.5 6.6l-2.3 7.4l0.8 5.5l2.2 1.7l4.2 0.5l7.7 -2.3l5.4 0.4l20.3 -13l-0.7 -6.9l0.8 -5.6l4 -4.2l7.8 1.1l1.9 2.6l2.2 10.7l16.5 13l7.2 -1.5l8.6 -5.8l4.3 -0.1l4 5.2l2 10.8l4 1.9l9.7 0.8l3.6 -1.1l27.2 -10.1l2.9 -1.8l7.1 -10.7l3.2 -0.8l10.2 2.6l3.3 -1.4l9 -7.9l12.7 -2.8l10.5 8.9l-0.9 4.8l-5.9 8.6l-2 8.9l3.4 3.9l16.7 -6.2l4 0.1l0.9 2.4l-1 2.7l-0.5 8.6l2.2 3.5l6.3 1.1l15.2 -9.4l4.1 2l0.1 1.7l-7.2 7.1l-0.2 6.3l1.2 3l6.9 6.9l21.5 5.7l13.6 12.2l-0.7 3l-2.1 2.1l10 0.9l27.4 -38.8l108.5 -56l0.2 -33l43.7 -19l12.4 -73.7l54.2 -44.4l12.2 -41.5l-15 -74.4l-23.4 13.3l-47.9 -43.1l-24.9 19.8l-29.9 -37.3l-19.9 22.6l-55.8 22.8l-23.8 -49.2l-33.5 -3.8l-29 27.4l-70.3 8l-25.4 53.8l-3.1 16.7l-11.4 -23.9l-47.9 -46.8l-37.8 -85.8l-84 0.1l-10.7 -78.9l-0.9 -0.2l-37 -46.4l-21.2 7.3l13 -48.9l20.9 -0.8l-12.4 -54l8.9 -25.4l-61.2 -30.4l-2.9 -42.5l-24.9 -33.7l64.4 -33.5l4 -18.1l-33.7 -47.4l6.9 -55.4l-77.7 -33.4l-35.6 -97.6l-32.4 -32l13.2 -31.1l-233.7 79.8l-1.2 0.4l-197.7 207.8l18.9 52.6l-54.7 -31.5z" />
  </g>
  <g data-id="061">
    <path d="m4514.2 2438.6l0 0l28.4 9.1l24.7 98.3l-1.1 113.8l57.1 10l40.7 57.2l70.6 0.2l287.2 3.3l36.4 0.3l51.3 73.6l172.7 156.8l22.7 45.9l7 -1.3l1.7 0.9l0.6 2.3l4.8 0.3l4.1 2.8l3.4 -0.8l1.5 1.6l4.2 -0.4l4.2 2.5l2.1 2.7l9 37.8l35.3 6.8l52.2 56.8l59 27.6l89.7 44.4l-10.3 -121.9l36.6 -60.2l65 -108.4l76.3 -127.4l46.4 -77.6l7.9 -88.3l43.8 -104.4l-0 -63.1l-90 0.1l-91 0.1l-0.5 0l-128 -0.5l-324.4 -1.2l-335.7 0.1l-136.7 0.1l-1.6 0.1l-227.3 0.2z" />
  </g>
  <g data-id="063">
    <path d="m3626.8 8394.3l0 0l0.2 0.3l2.8 2.9l7.8 0.4l5.1 2.1l8.8 6.8l4.3 -0.4l5.2 -6.2l8.1 0.8l2.5 3.3l50.4 43.1l5.8 3.2l4.9 5.5l-1.6 7.1l2 8.4l11.5 6l3.2 -0.2l17.4 0.4l12.4 2.8l1.8 4.6l-0.1 5.5l2.2 4.2l11.2 12.5l0.2 1.2l13.3 28.9l20.7 -6.4l22.7 -13.2l6.5 -0.2l15.2 -6.2l13.1 -5.5l16.2 -9.1l16.5 -6.3l20.9 -10l27.4 -18.2l14.5 -7.4l39.8 -24.5l1.7 -0l15.1 -8.6l6.3 -4.9l15.6 -6.7l18.2 -13.6l-1.2 -2.8l0.4 -2.1l6.1 -4.7l4.1 -2.3l12.2 -3.1l7.5 0.1l1.1 -6.8l10.8 -8.9l33.7 -17.2l17.9 -13.5l2.3 -4.7l8.9 -8.6l39.7 -25.4l9.9 -8.2l19.1 -9.7l14.6 -2.9l10.3 0.4l12.9 -4.8l2.2 -1.8l8.2 -0.6l9.9 1.2l16.9 -4.2l3.5 -2.3l4.1 -5.7l37.4 61.2l-8.7 33.2l4.9 24.8l39.1 31l5.7 -2.1l16.2 -6l15.2 -15.7l12.1 -4.5l16.9 -10.5l35.3 -30l46.4 -26.7l6 -5.1l35.2 -20.6l8.6 -2.6l12.9 -6.9l5.1 -6.5l12.7 -8.7l-7.4 -12.5l46.8 -18.6l23.9 -4.1l10 -4.2l13.1 -9l11.8 -5.3l11.1 -5l-1 -2.4l20.4 -11.4l35.3 -64.6l-18.8 -7.7l-35.9 23.4l-42.6 -22.7l5.7 -9.7l6.3 -2.6l6.4 -0.9l13.8 -6.9l4.2 -5.4l-32.7 -46.3l68.3 -37l25.3 -17.2l24.6 -14.5l13.8 -5.7l9.4 -5.4l18.6 -17l19.3 -12.4l28.9 -33.6l5.3 -8l4.9 -11.7l-37.2 -25.4l-30.7 -12l-0.1 0l-17.9 -7l-0 -0l-3.1 -1.1l-0.1 0l-4.8 -1.3l-0.5 -0.2l-5.9 -7.2l0.1 -0.1l-18.4 -20.8l-26.2 -68.4l-0.2 -0.6l-7.7 -20l-45 15.3l-36.6 -4.4l-23.1 -15.5l15.2 -28.4l-25.4 -8.3l-18.2 46.8l-47.9 -8l9.2 -37.3l-25.6 13.2l-2.5 -37.8l-113.9 84.8l-25.7 -24.1l-88.1 5.4l-300.7 -92.8l-17.3 -11.2l5.9 44l-74.7 138.7l-8 14l-95.4 172.9l-102.1 167.7l-121.9 240z" />
  </g>
  <g data-id="065">
    <path d="m8490.7 2966.7l0 0l-11.7 10.7l62.9 44l183.9 89.6l0.1 0.1l119.9 97.9l51.2 37.9l69.1 60.7l3 -9.9l58 -133.4l50.4 -198.9l39.9 -111.6l31.1 -79.2l30.2 -0l58.4 30.7l31.2 -46.3l41.9 3.8l75 -56.2l-3 -5.5l-12.7 -15.2l-11.9 -21.8l-5.8 -6.3l-13.9 -10.2l-4 -3l-4.6 -5.9l-4 -7.5l-33.2 -33.9l-1.4 -1.6l-11.4 -13.2l-5.9 -5.8l-9.6 -6l-12.9 -0.1l-2.5 -1.2l-14.8 -17.1l-9.4 -5.6l-12.4 -4.9l-8.1 -1.2l-24.6 -8.1l-17.8 -3.5l-5.1 -3.5l-16.8 -5.6l-21.7 -0.3l-16.2 -8.2l-18.8 -5.2l-10.7 -0.9l-12.5 2.3l-16.9 12.8l-2.7 3l-8.7 18.6l-8.9 11.1l-3.8 3.2l-7.8 1.7l-41.8 -0.3l-8.6 4.6l-3.2 4l0.3 6.3l18.6 20.7l0.5 4l-3 5.9l-5.3 5.5l-21.1 12.4l-17.6 19.3l-14.9 12.3l-16.5 25.4l-2.3 10.7l-0.1 12.5l-3.5 6.3l-3.5 1.2l-8.7 -2.2l-24.2 -2.2l-51 -24.1l-9.9 -3.7l-38.4 -13.3l-4 -1.1l-36.6 -10.5l-6.7 -0.2l-6.2 2.4l-2.5 4.2l1.6 6.6l6.4 5.6l3.8 7.1l0.4 4.9l-0.8 3.1l-3.8 3.9l-5.2 1.8l-8.4 -1.2l-7.6 -3.9l-3.5 -3.7l-10.6 -4l-14.9 2.9l-4 3l-1.9 8.2l-0 4.7l1 2.8l7.8 10.9l13.6 15.4l0.3 2.9l-1.9 4.4l-3.1 2.4l-7 1.2l-11 -1.9l-14.6 -8.4l-10.3 -10.4l-34.6 -13.2l-15.6 -7.7l-10.9 -1.4l-8.8 3.3l-6.2 7.2l-0.7 6.1l1.3 4.6l3 5.4l12.1 18.1l10 11.6l15.8 12.8l20.6 12.4l10.6 8.9l4.1 7.5l0.3 8.3l-4.3 6l-7.1 4.6l-14.4 4.3l-21.6 -6.6l-2.8 -1.6l-5.9 -6.3l-10.7 -6.9l-30.3 -11.7l-5.7 -0.2l-10.6 2.7l-6.8 3.3l-5.4 4.2l-1.8 5.6l-0.6 12.7l8 16.1l8.5 9l24.4 19.4l23.6 11.5l6.6 7.5l6.6 12l2.5 7.4l-1.3 4.1l-3.5 1.6l-6 1.2l-5.9 -0.7l-7 -7.4l-6.9 1.2l-1.9 5.7l0 7.4l-0.7 6.1l-2.6 6.2l-4 1.4l-7.3 -6.5l-6.8 -5.6l-3.8 0l-4.7 2.9l-0.9 3.3l0.6 3.7l0.3 4.1l-3.1 3.7l-16.7 2l-4.1 3.3l-1.3 4.5l1.7 9.7l0.2 8.7l-4 13.5z" />
  </g>
  <g data-id="067">
    <path d="m2869.5 6246.2l0 0l-0.4 0.5l55.6 37.8l24.3 -1.3l13.4 32.5l67.3 26.9l38.8 -22.8l46.8 57.6l52.8 22.8l19 20.6l9.3 -36.1l40.1 -8.2l-13.9 -24.7l39.1 -14.6l7.4 20.5l55.2 38.6l-0.3 -40.6l49.1 -3l29.7 19.6l50.3 55l-11.6 66.4l98.6 117.5l38 -28.5l0.6 77.7l268.8 44.2l76.9 18.5l165.7 -138.5l89.7 -76.9l108.7 -93l195.2 -177.7l-351 -236.2l-6.9 -21.7l-25.9 32.6l-20.1 -55.5l-53.3 -95l42.5 -30.2l-19.8 -54.8l-56.5 -150.9l55.8 -59.9l-133.1 -26.7l-70.5 28.8l-18.7 -40.9l-50.5 -41.9l-195 131.3l33.8 18l79.8 14.9l16 41l-190.7 165.3l-265.3 160.8l-115.3 69.1l-269.3 161.2z" />
  </g>
  <g data-id="069">
    <path d="m3870.2 1500.4l0 0l0.2 11.1l2.8 17.2l5.7 14.1l2.4 2.4l4.5 25.5l0 6.6l-1 20l-0.2 4.4l-3.6 10.9l79 7.4l50.9 5.2l35.1 3.4l269.7 29l0.2 -160.7l0.1 -2.9l-0.1 -47.1l-0.2 -169.5l-69.6 -20.6l-85.4 -25.4l-60.2 -0.6l-79.1 -4.6l1.1 -1.3l2.5 -7.6l-3.4 -0.9l0.3 -8.6l-36.7 0.9l-0.4 0.2l-3.4 3.4l-4.9 6.9l-34.1 64.7l-3.4 6.5l-2.8 8.6l-2.7 17.5l-5.5 17.8l-1 34.6l3.5 19.1l1.4 2.2l2.2 10.6l0.6 6.4l-2 14.6l-2.8 10.4l-2.2 5l-5.7 7.2l-35.9 27.6l-12.4 17l-3.7 11.7z" />
  </g>
  <g data-id="071">
    <path d="m6143 5320.5l0 0l-60.7 76.1l157 73.8l11.2 1.6l21.9 6l26.2 18.2l8.7 3.6l1.5 1.2l1.3 1.1l7.1 12.2l0.4 3.9l2.6 4.9l21.1 23.1l44.1 93.9l47 105l215.9 77.7l117.8 39.8l24.8 -7.8l4.7 -4l4.2 -4.4l7.9 -3.9l2.6 -2.9l4.3 -0.5l3.2 1l2.6 3.4l5.4 3l5.7 -6.9l1 -8.8l-1.2 -3.4l-0.6 -3.5l-3.8 -6.1l-0.4 -4.8l-0.2 -1.6l1.1 -1.1l15.6 -11l5 -2.7l9.4 -2.5l4.2 -8.9l4 -5.2l0.9 -2.1l3.7 -9.1l13.5 -20.4l2.8 0.3l11.6 6.5l9.5 -2.3l1.6 -7.5l-0.3 -18.9l4 -14.3l11.5 -8.2l5.7 -2.7l12.1 -6.3l2.8 -3.1l6.8 -7.6l-0.9 -11l4.7 -6.8l7.8 -4.7l9.4 -9.5l1.1 -3.4l0 -0.1l0.6 -3.3l3.7 -11.8l-0 -0.8l1.9 -8l-8.1 -10.1l10.4 -44.4l8.9 -8.6l9.1 -23.1l7.1 -14.8l9.1 -13l9.9 -10.6l6.5 -21.8l8.5 -14.5l3.6 -2.1l0.7 -0.6l7.2 -4.1l0.6 -2.9l-2 -6.2l1.6 -6.5l5.7 -11.7l1.5 -1.9l7.8 -9.8l9.7 -23.9l0.8 -4.2l-1.4 -1.6l-0.4 -17.4l9.7 -13.8l-2.4 -7l0.4 -5.2l8.3 -24.4l8.7 -13.1l0.5 -0.5l8.3 -22.3l6.1 -7.3l4.3 -2.1l1.1 -6.9l1.3 -4.5l1.7 -3.4l0.2 -0.9l3.9 -5.1l5.1 -18.7l2.6 -4.7l15.2 -12.5l4.1 -1l17.7 1.3l10.6 9.1l27.2 -8.6l0.4 -8.6l3.5 -16.9l6.5 -11.7l7.1 -33l-2.4 -6l-5.1 -3.4l-5.5 -6.2l-3.1 -17.4l-0.6 -2.4l-0.4 -5.6l12.6 -35.6l-1.4 -10.7l3.7 -11.7l7.1 -13.3l4.7 -13l6.3 -11.7l5.5 -7.5l2.2 -6.5l0.4 -7.5l15.6 -18l7.9 -6l6.9 -9.1l0.6 -3.1l-156.4 -135.3l-88.3 -76.7l-349.4 -299.4l-36.8 85.4l-14 10.4l-82.8 -5.7l-56.2 -25.1l-24.6 7l22.3 81.7l-78 32.1l-74.3 -14.9l19.1 42.3l-11.6 32.9l-47.3 56.8l32.3 29.2l-8.2 41.8l39.6 35.6l-4.9 51.6l-34.3 45.8l-17.9 43l-40.2 36.7l-10.9 39.7l-74.6 77.1l4.7 63.4l-56.3 -14.5l-7.5 12l18 15.2l-32.5 58.2l30 39.4z" />
  </g>
  <g data-id="073">
    <path d="m2585.6 3436.6l0 0l14.9 55.8l32.1 -20.9l48.8 32.5l-0.3 46.7l128.1 16.2l44 63.1l36.8 -104l104.1 5.9l99.5 -21.9l81.9 -44.9l41.2 22.3l32.5 -16l15.6 -56.4l58.7 -1.7l-13.4 -138.1l-17.7 -100.7l-5.1 -53.2l-8.6 -14.9l-25.8 -2.3l-37.8 -20.6l14.7 23.6l-6.2 10.8l-44.2 -11.1l-31.3 25.9l-25.4 -15.4l-29.8 15.3l-6.6 11.5l-7.7 10.5l-8.1 8.2l-3.9 3.2l-7.5 3.4l-29.2 1.6l-22.3 5.2l-14.4 5.3l-18.9 10.7l-4.8 4.2l-7.4 7.4l-9.7 18.8l-19.7 21.7l-9.8 11.9l-6.1 9.6l-5.3 9.4l-1.2 4l1.1 12.9l-1.6 10.9l-2.9 6.1l-8.6 8.1l-8.2 3.7l-4.5 0.3l-37.1 -11.1l-14.7 0.7l-21.7 8.7l-22.2 2.1l-10.1 5.6l-11.6 11.9l-32.7 12.8l-14.8 10.1l-30 24.3l-13.4 8.2l-19.1 14.2l-14.3 12.5l-10 6l-19 6.8l-29.2 2.9z" />
  </g>
  <g data-id="075">
    <path d="m4638.8 6344.1l0 0l-6.6 288l200.3 174.7l98.9 11.9l36.9 -2.5l58.1 17.6l126.4 -50.9l298.6 -20.2l-0.5 -12.8l11.6 -30.2l1.7 -2.8l8.9 -7.1l13.7 -19l8.3 -8.1l6.4 -4.6l1.7 -2.9l0.7 -3.9l5.8 -5.8l6.9 -8.8l2.7 -6l-6.8 -5.3l-9.5 -1.3l-7.5 -2.7l-1.8 -2.2l-12 -51.5l4.3 -7.1l18.3 -3l9.6 -11l0.6 -12l0.1 -1.3l6.4 -13.7l0.5 -0.6l4.3 -1.1l9.1 -10.1l7.7 -32.9l-0.4 -1.5l-2 -0.9l-3.8 0.1l-2 -5.3l0.6 -5.8l3.8 -7.3l0.3 -6.4l-8.9 -5.1l-0.3 -1.1l8.4 -8.7l1.8 -1.7l-0.3 -4.9l3.9 -5.5l7 1.3l9.9 -2.8l15.6 -10.5l11.2 -17.6l1.2 -6.5l0.7 -2.5l0.8 -3.3l7.2 -7l3.3 -1.5l4.4 0.2l10.5 -8.1l31.4 -33.4l13.5 -18.4l13.5 -5.8l7.9 -17.3l2.5 -2.8l4.5 -1.3l11.1 0.8l4.8 -1.6l1.9 -2.6l0.3 -5.3l2.2 -6.7l4.2 -5.5l11.4 -2.1l8.7 5.7l2.8 0.1l5 -3.3l4.6 -5.3l-1.7 -5.4l0 -3.7l3.1 -8l4.5 -5.8l11.5 3.1l10.3 -5.9l6 -11.6l4.5 -1.2l12.1 -3.2l2.4 -2.7l2.8 -11.9l-4.6 -20.4l-11.5 -23.4l-4.9 -4.7l-10 -0.1l-1.2 -11.9l-1.4 -5l-7.1 -7.9l-5.2 -8.6l-0.1 -4.3l2.9 -7l9.4 -11.6l9.1 -8.4l3 -5.2l3.3 -11.2l21.5 -19.1l13.6 -1.9l12.6 -10.1l6.5 -16.3l7.1 -23.4l-1.7 -6.5l5.7 -8.1l13.8 -2.7l4.2 0.5l23.3 8.8l7.1 -0.3l12.2 -6.8l5.2 -8.9l5.5 -4.3l4.7 -1l2.2 -2.6l0.8 -1.6l-0.4 -6l-2 -12.2l-1.8 -2.3l-5.7 -1.3l-2.4 -3l3.7 -18.1l7.2 -17.4l7.5 -6.3l10.7 -31.2l9.1 -9l8 -11.7l-0.4 -6.5l5.1 -9.5l34.4 -40.7l-0.5 -3.7l-2.1 -2.9l-1.5 -6.3l0.6 -8.1l3.7 -7.7l-3.9 -9.8l5.1 -8.4l1.5 -2.4l-0.3 -16.6l-1 -4.8l-4.5 -13l-9.1 -13.8l-6.8 -2.1l-1.4 -10.6l1.3 -3.1l7 -7l2.8 -1.2l1.5 -7l-4.1 -1.1l-3 -8.1l-1.2 -6.9l6.2 -18.2l4.5 -5.8l2 -0.8l6 1.5l10.9 -13.3l2.8 -8.3l0.1 -9.6l2.4 -6.2l12.8 0.5l7.3 7l2.7 -8.2l0 -0.2l0.7 -2.7l2.4 -2.3l3.9 -2.3l4.5 -0.8l2.8 -3.6l-1.8 -8.3l-7.7 -14.5l-6.1 -6.7l-3.7 -1.6l-2.8 -3.1l8.5 -14.3l3.9 -10.6l-5.7 -13.2l0.8 -15.8l8.5 -29.6l5.1 1l6.7 -4.9l-2.8 -9.9l-1.8 -2.9l4.5 -13.8l2.4 -1l4.2 -8.3l14.3 -39.8l60.7 -76.1l-30 -39.4l32.5 -58.2l-18 -15.2l-4.9 9.1l-8.5 0.3l-3.7 -8.3l1.2 -8.1l9.9 -12l4.1 -9.1l-1.6 -12l-8.9 -4.9l-16.6 1.8l-14.6 -5.7l-13.7 -10.4l-3.9 -3.9l-10.2 -3.4l-5.3 6l-14.8 7.5l-14.4 10.4l0.8 16.4l-2 16.3l-3.1 9.5l-10 -0.3l-12.6 -1.6l-11.8 -8.3l-2.8 -15l-5.5 -8.2l-3.3 -9.9l-14.4 -12.5l-19.3 4.7l-8.3 12l-8.9 2.1l-15.2 -0.5l-8.5 -8.6l-5.3 -7.8l3.5 -9.4l4.3 -1.8l1.1 -7.9l-0.9 -3.6l3.9 -8.1l0 -14.3l-0.2 -9.9l5.7 -8.8l5.7 -2.6l-0.9 -6.4l-3.1 1.4l-5.2 -4.1l-8.5 -11.4l-12.4 -3.2l-7.4 -4.6l-3.7 -13.5l-4.1 -11.2l-8.5 -7l-13.4 -2.6l-9.1 -5.7l-8.5 -4.9l-11 0.3l-5.9 6l-1 9.6l-6.7 13.3l-7.1 8.3l-8.1 10.4l-0.6 11.4l-13 9.6l-4.7 8.3l1.9 7.8l3.6 2.2l-0.4 11.6l-5.3 8.6l-11.2 13.8l-0.4 15.1l-2.4 12.5l-8.9 9.9l-1.6 5.2l0.3 6.4l-3.9 6.6l-3.5 8.3l-2.8 4.4l-2.9 9.6l-1.8 15.1l-15.8 10.9l-8.6 13.3l2.5 15.3l5.1 9.5l-9.3 17.4l-7.3 5.4l-6.6 -1.2l-3.5 -2.2l-5.6 -1l-1.7 2.3l-0.3 11.7l1.1 13.2l5.1 10.4l2 13.8l-3 12.5l-9.3 17.9l-3.7 14.8l-10.2 21.3l0.4 20.5l-3.7 19.2l-4.3 16.6l-4.1 15.8l-3.7 14.7l-66 48.9l-66.2 46.9l-103.5 73.3l-101.3 70.8l-87.5 -18.8l-87 -18.7l-60.8 48.5l-65.5 55.4l-50.5 42.6l-69 58.3l-18.9 16l-172.1 136.5l-44.5 -24.8l-16 309.1z" />
  </g>
  <g data-id="077">
    <path d="m5573.4 3069l0 0l10.3 121.9l-1.7 357.2l14 -8.6l54.7 46.6l23.2 101.1l63.8 15.9l18.6 26.1l238.2 -102.6l17.3 -1.8l357.9 142l41.4 55.8l0.6 -29l2 -154.5l-0.6 -0.2l-2.2 -0.6l1.1 -33.9l-1.9 -4.7l1.7 -43.1l1.5 -125.8l3.5 0l3.5 -465.5l0.6 -8.7l-0 -18.4l7.1 0l2 -258.4l0.3 -33l1.6 -1.9l0.8 -3.2l-0.2 -202.8l-145.8 0.8l-121.3 -1l-4.9 -0.2l-311 1.2l0 63.1l-43.8 104.4l-7.9 88.3l-46.4 77.6l-76.3 127.4l-65 108.4l-36.6 60.2z" />
  </g>
  <g data-id="079">
    <path d="m1178 5353.8l0 0l19.2 346.4l6.3 124.5l9.9 134.9l8.2 96.2l-11.7 121.5l104.5 61.4l12.7 -23.7l18.4 -2.4l135.8 -126.5l23.7 -148.5l8.5 -41.8l38.8 -23.7l59.8 -35.5l20.9 -10.8l30.2 -11.5l6.7 0.6l193.1 -92.8l1.7 -24.5l-32.2 -108.8l-24 -16.8l14 -76.9l-17.7 -71.1l34.4 -47.7l20.7 8.1l65.8 -78.5l-102.9 -148.1l-5.7 -1.1l-46.7 7.7l-362.6 59.7l-12 3.3l-217.7 126.5z" />
  </g>
  <g data-id="081">
    <path d="m2179 7113.1l0 0l19.5 21.9l-4.7 42.5l21.1 21.6l-19.5 28.1l5.2 108l17.3 42.9l47.9 7l24.4 9.2l5.1 69.9l76.3 26.7l37.8 -8.7l69.2 103.3l55.7 98.3l151.9 276.7l23.1 54.3l-2.5 61.3l101.7 64.5l17 -14l62.9 57.8l17 2.6l28 -84.4l2.2 -84.9l128.8 -57.3l17.9 14.9l37.5 -4.6l27.4 13.5l61.6 -57.4l-2.5 -78.8l77.1 -43l11.9 -28.3l66.5 -41.5l33.1 -33.9l-9.1 -39.8l61.1 -2.4l65.4 31.4l34.9 35.1l-5.4 33.9l42.1 -16.4l3.3 -24.2l-24.4 -24.1l-17.8 -71.4l-50 -33.1l10.9 -25l32.6 -12.3l15.4 -25.8l-17.5 -41.2l-37.5 -27.2l-9.9 -41.9l-38.1 -24.1l-67 -36.1l-101.1 9.3l-59.7 -15.5l12.5 -58.5l-84.3 19.3l-16.3 -22.1l56.9 -3.6l-1.2 -38.8l-450.6 -34.7l-12.9 -113.3l9.9 -27.3l-52 -21.1l-51 -63.1l-68 19.6l-68 -11.3l-44.3 13.9l-46.7 -28.3l5.1 -21.1l-66 16.2l-36.8 -19.1l-38.6 44l-25.2 0.8l-34.9 43l1.8 21.1l-33.7 47.4z" />
  </g>
  <g data-id="083">
    <path d="m4888.9 5000.7l0 0l-87.8 127.2l143.7 324.1l51.5 116.3l-125 355l18.9 -16l69 -58.3l50.5 -42.6l65.5 -55.4l60.8 -48.5l87 18.7l87.5 18.8l101.3 -70.8l103.5 -73.3l66.2 -46.9l66 -48.9l3.7 -14.7l4.1 -15.8l4.3 -16.6l3.7 -19.2l-0.4 -20.5l10.2 -21.3l3.7 -14.8l9.3 -17.9l3 -12.5l-2 -13.8l-5.1 -10.4l-1.1 -13.2l0.3 -11.7l1.7 -2.3l5.6 1l3.5 2.2l6.6 1.2l7.3 -5.4l9.3 -17.4l-5.1 -9.5l-2.5 -15.3l8.6 -13.3l15.8 -10.9l1.8 -15.1l2.9 -9.6l2.8 -4.4l3.5 -8.3l3.9 -6.6l-0.3 -6.4l1.6 -5.2l8.9 -9.9l2.4 -12.5l0.4 -15.1l11.2 -13.8l5.3 -8.6l0.4 -11.6l-3.6 -2.2l-1.9 -7.8l4.7 -8.3l13 -9.6l0.6 -11.4l8.1 -10.4l7.1 -8.3l6.7 -13.3l1 -9.6l5.9 -6l11 -0.3l8.5 4.9l9.1 5.7l13.4 2.6l8.5 7l4.1 11.2l3.7 13.5l7.4 4.6l12.4 3.2l8.5 11.4l5.2 4.1l3.1 -1.4l0.9 6.4l-5.7 2.6l-5.7 8.8l0.2 9.9l0 14.3l-3.9 8.1l0.9 3.6l-1.1 7.9l-4.3 1.8l-3.5 9.4l5.3 7.8l8.5 8.6l15.2 0.5l8.9 -2.1l8.3 -12l19.3 -4.7l14.4 12.5l3.3 9.9l5.5 8.2l2.8 15l11.8 8.3l12.6 1.6l10 0.3l3.1 -9.5l2 -16.3l-0.8 -16.4l14.4 -10.4l14.8 -7.5l5.3 -6l10.2 3.4l3.9 3.9l13.7 10.4l14.6 5.7l16.6 -1.8l8.9 4.9l1.6 12l-4.1 9.1l-9.9 12l-1.2 8.1l3.7 8.3l8.5 -0.3l4.9 -9.1l7.5 -12l56.3 14.5l-4.7 -63.4l74.6 -77.1l10.9 -39.7l40.2 -36.7l17.9 -43l34.3 -45.8l4.9 -51.6l-39.6 -35.6l8.2 -41.8l-32.3 -29.2l47.3 -56.8l11.6 -32.9l-19.1 -42.3l74.3 14.9l78 -32.1l-22.3 -81.7l24.6 -7l56.2 25.1l82.8 5.7l14 -10.4l36.8 -85.4l-15.8 -18.3l-103.5 -24.4l-24.9 5.6l-149.6 -15.2l-18.1 19.6l-10.6 -13.6l-271 -78.5l-291.3 -84.1l17.7 -23.8l3.5 -78.7l-48.9 -82.1l-52.2 -20.4l-22.5 51.3l-26.6 2.9l-28.2 58.6l-19.5 100.1l-29.4 81.5l-17.9 77.8l-383.7 68.3l-24.9 51l16.5 24.6l-40.3 55.9l21.6 146.8l-56.3 246.7l-33.8 0.6l-191 4.8z" />
  </g>
  <g data-id="085">
    <path d="m2708.4 3919.8l0 0l-37.5 17.7l59.8 55.5l24.3 -7.6l24.6 65.5l24.3 1.3l13.3 91.9l-32.6 35.6l39.9 6.7l6.8 54.5l44.7 7.3l7.1 -22.5l91.5 -1.4l34.9 28.3l53.5 -38.1l35.4 6.8l32.7 55.2l86.9 35.5l53 -4.4l62.9 -0l75 -67.2l109.8 -28.6l67.3 -69.7l40.1 -2.8l8.4 -26.1l39.7 4l49.2 -44.7l-4.5 -26l-204.8 -428.4l51 -56l9.7 -35.3l-17.3 -45.7l15.7 -14.5l2 -78.8l-42 -45.7l-12.8 8l-43.5 -36.9l-23.2 40.4l-10.7 62.7l-28.5 27l-50 -20.2l-14.2 16.3l-27 -25.9l-58.7 1.7l-15.6 56.4l-32.5 16l-41.2 -22.3l-81.9 44.9l-99.5 21.9l-104.1 -5.9l-36.8 104l-40.3 3.1l-85.6 168.9l7.1 44.8l-38.2 47.1l12.3 25.6z" />
  </g>
  <g data-id="087">
    <path d="m2255.3 5043.4l0 0l-25.7 143l49.7 155l29.7 78l44.5 57.9l28.4 36.5l12.8 -9.2l235.6 22.3l93.1 16.9l59.4 33.7l109 -26l53.7 10.9l128.6 -99.5l95.6 -119.6l-37.3 -70.2l-44.1 20.8l-15.8 -19l-54.8 -15l-26.8 -82.9l10.3 -49.8l-11.1 -32.2l0.7 -84.2l-48.8 -72l-64.1 -67.1l19.5 -13.5l-13.7 -70.8l19.1 2.8l-11.3 -49.9l-52 -24.8l16.5 -72.3l-43.1 -33.3l20.1 -5.9l-27 -39.5l-31.5 -10l-61.9 17.6l-67.5 30.9l-148.1 -63.8l-67.1 -54.6l-39 36.9l-71.6 25l-50.1 42.4l11.7 200.2l-25.2 254z" />
  </g>
  <g data-id="089">
    <path d="m3208.9 7926.4l0 0l-61.6 57.4l477.3 407.2l0 -0l2.2 3.2l121.9 -240l102.1 -167.7l95.4 -172.9l8 -14l74.7 -138.7l-5.9 -44l-9.9 -80.3l-25.1 -26.7l-143.8 -160.6l-111.5 -85l-281.8 128l38.1 24.1l9.9 41.9l37.5 27.2l17.5 41.2l-15.4 25.8l-32.6 12.3l-10.9 25l50 33.1l17.8 71.4l24.4 24.1l-3.3 24.2l-42.1 16.4l5.4 -33.9l-34.9 -35.1l-65.4 -31.4l-61.1 2.4l9.1 39.8l-33.1 33.9l-66.5 41.5l-11.9 28.3l-77.1 43l2.5 78.8z" />
  </g>
  <g data-id="091">
    <path d="m4953.5 3332.7l0 0l5.6 139.5l5.6 151.7l24.1 9.3l43.2 65.2l33.2 10.6l257.1 -25.3l126.5 -54.8l48.9 -74.8l22.3 22.5l62 -28.5l1.7 -357.2l-89.7 -44.4l-146.9 92.3l-28 41.8l-126.6 40l-70.5 -39.6l-142.6 21.4l-10.2 -0.1l-15.7 30.3z" />
  </g>
  <g data-id="093">
    <path d="m5720 3912.9l0 0l-21.5 77l26.4 39.8l52.2 20.4l48.9 82.1l-3.5 78.7l-17.7 23.8l291.3 84.1l271 78.5l10.6 13.6l18.1 -19.6l149.6 15.2l24.9 -5.6l103.5 24.4l34.5 -13.3l61.8 -158.5l24.5 -112.2l-33.6 7.7l-39.4 -32.4l-43.4 -10.1l17.9 -55.6l31.1 -29l-0.9 -75.8l47.1 -89.6l39.2 -20.2l-36.7 -52.7l-76.6 -10.5l-40.6 37.7l-35.1 -11.3l-21.3 28.3l-100.9 17.3l-50.6 19.6l-40 -42.2l-41.4 -55.8l-357.9 -142l-17.3 1.8l-238.2 102.6l-34.4 95.5l-1.6 88.3z" />
  </g>
  <g data-id="095">
    <path d="m3105.7 3110.3l0 0l-12.9 22.4l29.8 -15.3l25.4 15.4l31.3 -25.9l44.2 11.1l6.2 -10.8l-14.7 -23.6l37.8 20.6l25.8 2.3l8.6 14.9l5.1 53.2l17.7 100.7l13.4 138.1l27 25.9l14.2 -16.3l50 20.2l28.5 -27l10.7 -62.7l23.2 -40.4l43.5 36.9l12.8 -8l42 45.7l-2 78.8l-15.7 14.5l17.3 45.7l-9.7 35.3l120.4 -128.4l194 -136.4l41.8 -92.2l110.9 -7.3l20.8 -26.3l60.6 -19.3l-69.1 -51.8l-37.5 15.4l1.6 -28.8l-31.9 12.2l-50.7 -14.2l-23.8 -40.1l-23.1 -1.1l-13.8 -56l-89 -64.6l3.8 -27.3l-54.7 -37.5l-27.3 19.7l-8.2 -57.6l-33.5 -19.9l-5.4 -45.3l-11.8 -2.5l-68.8 57.3l-117.2 -70.1l-54.1 44.3l-16.7 17.4l-18.4 16.5l-12.1 15.8l-6.3 5.6l-24.1 16.7l-23.1 19.5l-7.8 8.2l-5.6 9.9l-7.1 8.8l-17.3 13.6l-12.6 9.9l-10.3 11.6l-4.1 6.8l-17 17.3l-20.7 17.8l-10.9 16.7l-31.4 33.4l-19.1 25.8l-27.6 55l-1.4 0z" />
  </g>
  <g data-id="097">
    <path d="m4557.8 4818.3l0 0l-19.5 118.5l33.5 106.1l81.1 -7.8l45.8 35.4l25 85l77.5 -27.5l87.8 -127.2l191 -4.8l33.8 -0.6l56.3 -246.7l-21.6 -146.8l40.3 -55.9l-16.5 -24.6l24.9 -51l43.1 -37.8l-19.3 -8.5l42 -26.7l-4.6 -78.8l20.8 -12.6l-29.3 -30.9l9.2 -35.3l-25.4 -6.6l-124 0.6l-47.9 -88.4l-32.6 -41.7l-64.6 -28.7l-20 3.1l-35.9 -40.4l-43.9 31.4l-104.4 -8l-9.8 110.9l-11.9 55.6l-14.3 69.9l-33.5 44l17.8 58.3l11.8 12.4l-2.8 36l-55 41.3l20.1 8l-48.4 78.5l-11.1 52.6l-39 30.8l-26.3 159z" />
  </g>
  <g data-id="099">
    <path d="m3.5 6489.5l0 0l-3.5 10.5l11.8 22.6l1.1 11.8l0.2 22.4l2 11.5l1.7 3.1l4.5 3.1l16.4 4.7l8.2 3.7l1.9 3.7l0 22.6l1.7 4.5l1.8 1.9l6.7 1.4l19.4 -1.6l8.1 6.4l5.1 2.5l4.3 3.8l8.9 13l3.7 2.5l8.1 2.7l4.2 4.8l1.1 23.1l-0.7 9.8l2.9 9.3l20.2 22.1l16.9 3.8l12.5 20.1l16.9 5.3l3.4 5.7l0.4 14.2l4.3 5.1l4.9 6.6l0.1 11l1.8 5.5l5.4 9.5l8 8.4l-0.4 6.5l-3.3 7.5l0.9 6.2l7.4 13.2l9.3 8.9l6.7 3.1l2.5 3l-0 17.6l6.6 17l5.9 11.4l4.2 3.4l0.5 5.4l-0.9 6.8l0.9 3.3l2.8 3.3l5.5 0.7l7 -4.1l5.3 -0.7l14.9 6.1l20.5 0.7l4.2 1.4l3.6 6.8l29.1 22.9l9.4 3.2l3.1 2.1l2.5 3.5l0.4 8l-1.9 8.9l-8.9 9.8l-6.7 31.8l2.1 1.9l-0.3 2.2l-6.7 10.8l-11.9 14.9l-8.4 8l-5.5 1.9l-15.1 -3.4l-2.8 0.5l-1.3 2.3l0 0l0 6.7l-6.3 16.4l-3.2 4.5l0.2 4l7.6 12.6l4.9 3.2l15.1 23l1.5 2.9l26.4 42.9l4.2 2.7l2.6 -0.3l48 -12.9l18.3 10.5l5.7 8.3l7.4 18.3l6.3 4.2l15.3 6.8l3.5 4.7l1.2 4.5l-0.3 18l1.3 7l2.1 4.4l-9 17.2l-4 2.4l-0.4 3.4l1.5 3.6l3.1 2.4l1.2 12.1l54.7 31.5l-18.9 -52.6l197.7 -207.8l31.4 -29.7l33.3 -45.3l115.7 -121.8l27.7 -9.2l23.5 -58.5l-26.2 -8l-7.6 -48.6l-53.7 -20.4l-11.2 -54.3l-42.8 -26.6l-9.3 -30.8l17.4 -36.9l-56.3 -28.8l28.5 -63.3l-12.5 -93.6l23.2 -12.8l3.2 -48l-22.2 2.4l-48.2 -31.1l-27.9 -72.6l21.7 -50l-6.2 -19.4l30.9 -22.9l28.7 0.6l-45 -63.1l-32.5 -8l-32.6 19.7l4.1 23l-29 20.4l-4.1 3.5l-222.9 -182.7l-72.8 -60.1l-35.1 -29.5l-44 14.3l-0.5 0.2l-21.6 3.9l-19.5 1.2l-7.6 -1l-14.5 -1.9l-17.7 -5l-15.9 -6.5l-5.7 -3.5l-16.8 -13.9l-11 -16.4l-5.3 10.7l-1.7 12.4l0.2 7.6l4.1 22.3l-5.7 16l-2.9 5.1l-1 7.3l0.9 4.2l7.9 15.6l-0 0l1 4l3.9 15.8l-1.9 8.4l-5.5 11.7l-1.8 6.5l-1.4 18l0.4 33.6l3 5.3l8.1 3.1l5.7 3.6l3.6 4.3l5.3 11.7l17.1 15l2 5.6l6.7 18.9l1.7 7.8l-0.2 5.6l-1.9 4.2l-11.1 16.9l-6.3 13l-3.2 9.4l0.5 3.5l6.3 9.7l0.5 17.6l1.4 8.2l4.2 11l4.3 7.2l-0.1 28.1l-7.3 23.4l-7.2 16.1l-4.5 5.7l-4.2 2l-18.1 0.4l-18.8 -4.8l-0.8 0l-1.4 0l-3.7 3.4l-10.4 25.6l-0.5 4l4.4 20.1l2.9 8l6.5 6.5l11 5.7l3.9 4l-0.9 42.3l-0.9 9.8l-10 24.8l-14.4 41.6l-4.4 3.4l-12.1 3.1l-12.2 -3.8l-27.6 -1.6l-8 4z" />
  </g>
  <g data-id="101">
    <path d="m4048.5 5565.2l0 0l-55.8 59.9l56.5 150.9l19.8 54.8l-42.5 30.2l53.3 95l20.1 55.5l25.9 -32.6l6.9 21.7l351 236.2l155.3 107.3l16 -309.1l44.5 24.8l172.1 -136.5l125 -355l-51.5 -116.3l-143.7 -324.1l-77.5 27.5l-25 -85l-45.8 -35.4l-81.1 7.8l-106 1.9l-24.5 -32.1l-104.2 243.5l-288.6 309z" />
  </g>
  <g data-id="103">
    <path d="m3467.5 2725l0 0l-14 15l117.2 70.1l68.8 -57.3l11.8 2.5l5.4 45.3l33.5 19.9l8.2 57.6l27.3 -19.7l54.7 37.5l-3.8 27.3l89 64.6l13.8 56l23.1 1.1l23.8 40.1l50.7 14.2l31.9 -12.2l-1.6 28.8l37.5 -15.4l69.1 51.8l42.2 22.5l29.9 -25.3l78.3 58.6l52.6 -15.4l12.1 -62.1l37.7 -28.9l8.5 -34l36.8 -10.1l8.9 -44.5l-27.3 -29.9l-35.1 -128.3l36.3 -52.9l3.1 -36.7l56.4 4.4l3.2 -44.9l31.6 -19.9l-19.4 -24.4l21.4 -25.7l75.2 5.1l1.1 -113.8l-24.7 -98.3l-28.4 -9.1l-198.9 -0.6l-637.8 1.6l3.9 3.5l3.7 14.3l-0.1 5.8l-4.3 16.3l-4.1 5.7l-10.6 6.5l-11.4 4.2l-14.8 2.3l-5.3 2.9l-14.5 10.2l-4 5l-4.3 13.8l-1.1 8.8l-0.7 12.3l2.2 41.5l-2.2 26.7l-6.4 15.1l-2 10.6l0.6 3l-1.1 7.4l-10.1 31.3l-8.8 16.8l-24.1 10.4l-8.7 -0l-19.8 -4.4l-23.1 -0.7l-16.7 3.4l-15.1 6.8l-7.3 5.8z" />
  </g>
  <g data-id="105">
    <path d="m2215.5 4203.7l0 0l-56.6 60.4l100 54.2l5.4 72.8l-40.5 27l23.4 60.1l71.8 68.6l71.6 -25l39 -36.9l67.1 54.6l148.1 63.8l67.5 -30.9l61.9 -17.6l11.6 -56l223.8 -246.2l-34.9 -28.3l-91.5 1.4l-7.1 22.5l-44.7 -7.3l-6.8 -54.5l-39.9 -6.7l32.6 -35.6l-13.3 -91.9l-24.3 -1.3l-24.6 -65.5l-24.3 7.6l-59.8 -55.5l37.5 -17.7l-12.3 -25.6l38.2 -47.1l-210.2 124.6l-47.5 6.1l-261.2 226z" />
  </g>
  <g data-id="107">
    <path d="m1804.8 3860.2l0 0l-0.9 8.5l4.1 15.2l19.6 60.4l2.1 17l-1.9 8.1l-0.6 20.8l0.5 10.7l4.9 26.3l-1.6 26.7l-1.8 11l-3.2 11.3l-3.7 7.1l336.6 180.9l56.6 -60.4l261.2 -226l47.5 -6.1l210.2 -124.6l-7.1 -44.8l85.6 -168.9l40.3 -3.1l-44 -63.1l-128.1 -16.2l0.3 -46.7l-48.8 -32.5l-32.1 20.9l-14.9 -55.8l-9.5 1l-7.5 -1l-9.9 -3.6l-13.6 -14.1l-5.2 -7.6l-4.2 -10.1l-9.9 -35.9l-4.1 -20.2l-8 -29.4l-12.2 -17.2l-9.8 -9.3l-6.2 -5.8l-16.4 -13.1l-14.2 -8.1l-22.1 -5l-19.5 2.9l-23.6 14.5l-11.1 9.5l-19.7 27.6l-12.5 14.7l-28.7 28.5l-20.9 16.3l-22 14.3l-20.6 8.9l-16 14.1l-30.9 37l-4.3 21l-1 33.9l-9.9 63l-0.4 46.4l-4.3 14.4l-5.9 7.9l-31.1 -2.8l-6.1 -2.7l-13.4 -9.4l-16.6 -5.6l-10.3 -1.3l-11.1 1.8l-15 4.4l-44.4 -9.3l-26.3 -0.4l-28.5 3.7l-16.5 5.8l-10.8 7.4l-11.9 12.8l-5.2 7.4l-8.8 16.2l-1.2 21.7l0.7 6.9l1.9 8.6l7.1 17.7l2.3 15.6l-0.6 5.7l-2.1 3.9l-4.5 6.1l-12.8 8.6l-21.8 4.2l-15.1 4.2l-10.7 3l-2.5 1.8l-2.8 2l-6 8.3l-6.9 15.8l-5 25.2l-2.6 6.4l-9 11.1l-16.9 8.1l-5.9 4.7l-6.1 9.7l-0.1 1.2z" />
  </g>
  <g data-id="109">
    <path d="m1601.8 8052.6l0 0l-0.2 33l59.9 34.6l17.3 73.7l90.7 3.8l132.9 25.1l35.5 -21.7l4.1 -26.5l56.6 -18.9l53.8 29.4l19 -21.1l45.8 64.4l84.5 8.9l14.2 -5.6l52.5 41l19.4 -5.9l43.3 10.5l13.2 -18.3l60.2 -5.8l21.1 18.4l-11.9 16.8l36.5 39.3l12.8 14.4l68.1 -40.6l48.3 54l128.5 48.2l37.1 29l21 -16.9l-50.3 -101.5l58.6 -32.5l30.1 -58.2l35.1 -17.9l12.2 -11.5l37.2 -10.2l-62.9 -57.8l-17 14l-101.7 -64.5l2.5 -61.3l-23.1 -54.3l-151.9 -276.7l-55.7 -98.3l-69.2 -103.3l-37.8 8.7l-76.3 -26.7l-32.9 3.9l-71.8 56.7l-21.8 11.1l-62.9 -65.2l-61.9 28.5l-38.8 -5.7l-36.5 18.2l-38 -3.6l-27.6 27.2l-71.7 -1.8l-44.3 32.1l92 93l35.5 36.2l-21.3 6l-164 72.3l-20.1 26.7l15 74.4l-12.2 41.5l-54.2 44.4l-12.4 73.7l-43.7 19z" />
  </g>
</svg>
