<?xml version="1.0" encoding="UTF-8"?>
<!DOCTYPE svg PUBLIC '-//W3C//DTD SVG 1.1//EN' 'http://www.w3.org/Graphics/SVG/1.1/DTD/svg11.dtd'>
<svg viewBox="0 0 1000 897.33" xmlns="http://www.w3.org/2000/svg">
  <g data-id="001">
    <path d="m491.359 388.525l-0.505 15.232l3.595 4.039l1.996 -0.314l6.458 2.871l3.261 4.175l4.786 8.844l12.397 -0.063l2.542 0.656l-0.915 3.529l2.93 3.095l-2.08 1.265l0.465 7.884l-4.202 2.665l1.933 0.848l-4.312 3.779l38.367 -6.833l1.787 -7.784l2.944 -8.153l1.949 -10.014l2.822 -5.859l2.66 -0.288l2.254 -5.128l-2.64 -3.978l2.153 -7.697l0.162 -8.826l3.444 -9.545l-1.858 -2.609l-6.375 -1.587l-2.325 -10.114l-5.468 -4.658l-1.396 0.857l-6.198 2.845l-2.228 -2.253l-4.886 7.484l-12.652 5.481l-25.711 2.528l-3.319 -1.057l-11.837 18.684z" />
  </g>
  <g data-id="003">
    <path d="m896.903 329.76l4.445 5.228l3.661 2.918l5.924 5.408l3.507 2.533l6.533 5.587l5.497 4.498l9.844 8.051l-0.46 -3.567l7.858 -8.765l6.05 -14.579l4.04 -3.499l3.287 -0.18l9.261 -9.398l7.739 -7.785l4.398 -12.417l-2.777 -0.705l-1.525 -0.823l0.318 -1.65l3.26 -2.258l1.115 -2.541l-0.366 -1.343l-1.655 -0.908l-1.128 0.398l-0.417 3.046l-1.689 1.04l-2.184 0.334l-1.206 -0.877l-0.001 -1.86l0.37 -2.655l-1.465 -2.493l-3.026 -2.019l-0.509 -1.054l0.57 -1.18l1.56 -0.806l1.163 -0.106l1.419 0.092l2.007 -0.279l2.776 0.072l1.187 -0.536l0.632 -1.224l0.496 -2.677l0.195 -1.61l-0.406 -3.64l-1.257 -1.322l-3.133 -0.262l-3.095 -1.06l-1.226 -0.832l-2.113 -0.391l0.648 2.019l0.079 2.114l-1.782 0.67l-2.654 -0.842l-2.279 -0.546l-1.667 -0.545l-1.198 -2.377l-1.777 -1.382l-1.402 0.528l1.806 2.286l-0.176 3.681l-0.544 1.942l-1.448 0.613l-1.035 -1.473l0.1 -3.744l-2.295 -1.076l-1.246 0.569l-1.005 1.377l-3.707 0.296l-2.212 -0.077l-1.554 -0.634l-2.521 -4.404l-7.5 5.615l-4.186 -0.376l-3.119 4.629l-5.836 -3.07l-3.02 0.002l-3.114 7.922l-3.99 11.155l-5.036 19.886l-5.8 13.341z" />
  </g>
  <g data-id="005">
    <path d="m134.916 696.17l6.01 3.76l8 -0.695l1.909 3.477l8.264 3.296l9.298 0.278l2.884 2.811l4 0.463l3.452 7.515l1.075 4.99l-4.689 4.812l1.543 3.394l5.868 2.623l0.203 3.779l2.701 1.054l1.685 3.958l4.528 -3.315l7.562 -2.676l2.956 0.516l3.556 6.267l4.87 4.578l6.295 6.524l2.18 -1.113l7.18 -5.669l3.289 -0.386l-0.508 -6.989l-2.438 -0.915l-4.791 -0.704l-1.726 -4.293l-0.525 -10.798l1.946 -2.808l-2.112 -2.161l0.467 -4.246l-1.949 -2.188l3.37 -4.737l-0.183 -2.111l3.492 -4.301l2.518 -0.077l3.858 -4.405l3.675 1.906l6.599 -1.623l-1.969 -5.491l1.306 -4.75l-6.13 -10.395l-3.083 1.721l-6.536 -3.965l0.688 -5.357l3.704 -4.005l-3.691 -2.321l-4.412 -5.212l-2.787 1.099l-4.249 -4.358l-2.414 -5.202l-6.555 -0.833l-2.835 -1.938l-0.814 -4.666l1.762 -4.564l-3.228 -0.705l-5.535 1.382l-2.24 -2.614l-5.573 1.758l0.919 1.763l-3.253 4.253l-3.574 -1.748l-2.034 -5.823l-3.946 -0.785l-0.283 4.203l-5.078 1.531l-0.763 2.497l2.583 5.048l-3.932 -1.963l-2.559 -5.905l-3.715 6.396l0.12 3.032l-4.223 -0.974l-0.029 3.395l-2.914 -1.111l-0.324 4.319l1.885 3.633l-5.08 -1.146l-4.826 -2.802l-3.309 3.869l-1.908 4.808l1.516 2.591l-3.713 4.949l-1.629 10.155l3.561 2.795l10.031 2.496l-5.552 1.134l-9.693 10.012z" />
  </g>
  <g data-id="007">
    <path d="m336.998 506.804l-9.487 13.022l11.312 11.112l1.155 8.224l3.072 0.322l5.848 3.342l2.681 4.096l-0.935 4.869l5.329 2.051l2.085 7.751l19.503 -13.134l5.052 4.189l1.874 4.086l7.048 -2.878l13.312 2.665l28.858 -30.9l10.42 -24.353l1.255 -2.597l1.015 -7.387l-2.371 0.526l-1.163 -5.352l-4.461 -1.111l2.318 -8.625l-9.834 -7.545l-4.354 2.224l-2.836 -3.596l-5.184 2.278l-1.99 -3.011l0.467 -3.459l-3.007 -5.345l-7.151 5.048l-5.877 -2.054l-17.687 11.961l-14.805 11.076l-31.462 22.504z" />
  </g>
  <g data-id="009">
    <path d="m398.995 120.647l3.222 0.126l0.058 1.713l7.793 0.59l6.023 0.056l8.536 2.544l6.955 2.065l0.01 -3.473l0.003 -42.039l0 -3.018l0.213 -6.892l0 -8.236l-11.328 -0.237l-11.353 1.266l-0.791 1.21l0.406 1.333l2.518 0.986l1.929 1.813l0.426 1.439l-0.223 2.025l-0.63 1.812l-0.203 1.998l0.406 1.812l1.604 3.462l0.487 1.784l-0.487 3.754l-2.436 4.02l-0.386 1.783l0.122 3.459l-0.63 1.889l-3.615 2.9l-1.522 0.798l-1.523 1.676l-1.918 4.035l-0.56 2.826l-0.406 3.43l-0.366 1.755l-0.914 1.94l-1.421 1.595z" />
  </g>
  <g data-id="011">
    <path d="m27.828 586.552l3.511 2.945l7.283 6.009l22.286 18.275l3.31 -2.395l-0.413 -2.302l3.263 -1.966l3.252 0.803l4.503 6.313l-2.875 -0.057l-3.093 2.292l0.616 1.944l-2.173 5l2.794 7.26l4.819 3.113l2.22 -0.242l4.778 -10.882l6.849 -4.502l-1.87 -5.346l3.917 -0.344l4.206 -7.482l2.465 0.801l9.546 -1.99l4.148 -6.029l6.593 -2.405l3.575 0.604l-0.991 -13.493l-0.633 -12.453l-33.266 -30.403l-5.482 -1.766l-1.32 -0.078l-1.949 0.156l-1.909 0.727l-3.174 3.324l-1.294 1.871l0.041 3.921l-0.487 5.66l-0.426 1.35l-0.508 1.012l-0.528 1.609l-0.223 1.427l0.183 3.451l-0.234 2.095l-0.432 1.457l-0.871 1.951l-0.38 1.83l-0.289 2.083l-0.848 2.647l-1.195 2.232l-1.286 1.236l-2.092 0.921l-3.96 0.61l-4.391 0.988l-1.619 0.111l-3.073 -1.294l-5.988 2.401l-2.579 0.803l-2.558 0.596l-5.462 1.71l-4.284 1.892z" />
  </g>
  <g data-id="013">
    <path d="m278.576 449.873l-1.162 5.604l3.153 1.001l2.704 3.951l-2.012 0.586l4.306 3.334l-1.65 7.229l5.198 2.485l1.134 4.99l-1.906 -0.279l1.366 7.079l-1.946 1.345l6.412 6.708l4.883 7.196l-0.07 8.422l1.114 3.219l-1.033 4.977l2.676 8.294l5.479 1.502l1.576 1.897l4.414 -2.084l3.733 7.016l10.565 -14.52l9.487 -13.022l-2.94 -8.484l-4.672 -3.728l-1.805 1.287l-4.179 -5.242l-0.976 -3.471l4.853 -2.822l4.212 -4.687l-0.005 -4.835l1.948 -1.49l-1.051 -14.064l-1.208 -5.887l2.236 -2.476l-1.719 -6.544l1.542 -0.924l-6.651 -8.354l0.53 -4.339l-5.299 0.444l-8.69 -3.553l-3.269 -5.516l-3.544 -0.676l-5.354 3.806l-22.382 24.623z" />
  </g>
  <g data-id="015">
    <path d="m276.662 570.379l-0.165 1.182l5.837 24.891l2.525 15.147l2.094 13.022l26.932 -16.121l11.528 -6.906l26.527 -16.078l19.073 -16.531l-1.597 -4.097l-7.983 -1.492l-3.375 -1.801l-2.085 -7.751l-5.329 -2.051l0.935 -4.869l-2.681 -4.096l-5.848 -3.342l-3.072 -0.322l-1.155 -8.224l-11.312 -11.112l-10.565 14.52l-9.556 11.958l-12.86 9.946l-17.868 14.129z" />
  </g>
  <g data-id="017">
    <path d="m356.531 356.2l-5.095 5.601l20.48 42.844l17.186 3.59l5.541 1.413l3.979 -8.17l4.976 -5.134l5.546 0.492l6.801 -7.287l0.885 -4.093l3.368 1.945l9.426 -5.352l0.619 -3.596l-8.175 -2.959l3.838 -3.686l-7.385 -5.817l1.152 -6.603l-5.388 -1.022l4.54 -8.002l3.562 -1.17l1.441 -4.227l5.176 -6.043l-2.495 -1.67l0.576 -5.528l-1.318 -4.247l1.761 -1.734l-1.106 -4.949l-7.831 -5.861l-2.994 2.528l-4.222 -2.255l-6.062 1.933l-2.076 2.632l-11.088 0.726l-4.176 9.225l-19.401 13.636l-12.04 12.841z" />
  </g>
  <g data-id="019">
    <path d="m256.62 700.649l6.802 -1.957l5.096 6.309l5.198 2.111l-0.995 2.729l1.288 11.334l45.061 3.474l0.118 3.883l-5.685 0.355l1.63 2.213l8.427 -1.934l-1.248 5.853l5.967 1.547l10.109 -0.934l6.704 3.606l28.176 -12.803l11.687 0.982l-12.61 -21.627l8.325 -9.305l-3.298 -1.168l-0.027 -3.605l-2.264 -5.5l-6.265 -1.687l-0.277 -3.017l3.48 -0.947l2.539 -4.118l-3.956 -0.493l-3.076 2.863l-6.408 -1.154l-5.627 -5.492l1.833 -0.736l0.541 -5.415l-0.059 -7.767l-3.798 2.849l-9.864 -11.747l1.156 -6.635l-5.026 -5.495l-2.974 -1.956l-4.912 0.304l0.035 4.065l-5.52 -3.857l-0.741 -2.051l-3.907 1.464l1.394 2.47l-4.01 0.818l-0.929 3.609l-1.897 -2.059l-5.28 -2.279l-4.678 -5.763l-3.879 2.28l-6.73 -2.69l-1.342 -3.247l-2.434 0.125l-5.555 -3.783l-16.918 21.447l-2.904 -0.459l0.045 1.385l-0.205 1.92l-0.646 2.125l-9.663 49.559z" />
  </g>
  <g data-id="021">
    <path d="m322.427 487.166l0.976 3.471l4.179 5.242l1.805 -1.287l4.672 3.728l2.94 8.484l31.462 -22.504l14.805 -11.076l17.687 -11.961l5.877 2.054l7.151 -5.048l-17.775 -21.439l-4.765 -5.784l-2.337 -22.811l-17.186 -3.59l0.445 2.598l-4.923 4.472l-3.971 -0.404l-0.838 2.606l-4.009 0.278l-6.733 6.97l-10.977 2.859l-7.502 6.721l-6.294 0l-0.53 4.339l6.651 8.354l-1.542 0.924l1.719 6.544l-2.236 2.476l1.208 5.887l1.051 14.064l-1.948 1.49l0.005 4.835l-4.212 4.687l-4.853 2.822z" />
  </g>
  <g data-id="023">
    <path d="m641.162 379.361l-0.061 2.896l4 4.217l5.056 -1.965l10.091 -1.729l2.132 -2.829l3.513 1.127l4.061 -3.773l7.655 1.049l3.674 5.265l-3.919 2.017l-4.71 8.955l0.094 7.582l-3.112 2.901l-1.794 5.558l4.34 1.008l3.937 3.245l3.358 -0.774l-2.453 11.221l-6.177 15.854l-3.451 1.332l1.583 1.828l34.937 29.936l8.832 7.669l4.414 -5.648l6.457 -10.95l-1.076 -4.408l2.436 -1.33l5.685 -7.671l-7.249 -18.723l0.812 -5.67l-2.416 -4.286l6.661 -13.982l5.701 -13.107l-1.484 -2.158l7.01 -11.838l4.396 -11.117l-31.381 -19.639l-21.008 -2.52l-6.975 -1.801l-1.981 1.553l-0.342 3.519l-1.322 2.707l-2.451 -0.06l-2.529 -1.267l-3.576 1.171l-2.429 1.675l0.146 1.675l-2.056 2.389l-1.542 0.817l-3.007 0.464l-2.207 1.997l-5.082 6.553l-1.685 0.437l-0.956 1.362l0.131 1.446l-3.13 2.908l-2.61 1.403l-3.344 1.158l-1.397 0.936l-2.2 -0.585z" />
  </g>
  <g data-id="025">
    <path d="m357.322 671.432l-1.833 0.736l5.627 5.492l6.408 1.154l3.076 -2.863l3.956 0.493l-2.539 4.118l-3.48 0.947l0.277 3.017l6.265 1.687l2.264 5.5l0.027 3.605l3.298 1.168l-8.325 9.305l12.61 21.627l-11.687 -0.982l11.148 8.503l14.378 16.055l2.51 2.672l0.991 8.029l1.733 1.124l30.073 9.28l8.809 -0.538l2.57 2.411l11.388 -8.484l0.245 3.78l2.556 -1.318l-0.92 3.735l4.792 0.804l1.818 -4.685l2.544 0.827l-1.523 2.839l2.314 1.55l3.656 0.444l4.501 -1.525l1.833 -1.186l2.457 -2.936l2.153 -2.809l1.272 -0.469l1.029 -1.357l0.214 -1.008l-1.683 -0.948l-0.498 -1.237l1.087 -4.557l1.175 0.056l0.243 -1.396l0.716 -1.8l1.119 -0.291l1.904 -1.587l2.067 -0.686l1 0.575l0.204 -1.524l-2.452 -2.498l0.178 -1.843l1.722 -2.8l1.552 -0.724l1.04 -1.625l0.607 -1.367l1.666 -1.933l1.679 -1.538l1.419 -0.517l-0.845 -1.815l0.353 -1.52l1.036 -0.336l0.941 -1.552l0.634 -1.813l1.372 -2.059l1.699 -1.724l0.991 -1.304l1.422 1.101l2.034 -1.771l0.483 -1.192l1.205 -0.98l1.193 0.057l-0.276 -1.106l0.451 -1.1l2.044 -2.163l0.789 -1.084l1.293 0.206l1.951 -2.943l1.245 -1.539l1.093 -1.056l1.801 -1.941l1.975 -1.2l1.177 -1.293l3.007 -2.85l2.45 -2.315l2.238 -1.892l0.194 -1.129l1.967 -1.065l1.294 -2.12l0.047 -1.236l1.175 -1.921l1.07 -0.867l0.924 -2.831l1.019 -0.639l0.63 -1.554l-0.351 -1.006l0.541 -1.114l2.312 -4.995l-29.856 2.025l-12.645 5.088l-5.805 -1.762l-3.691 0.246l-9.891 -1.192l-20.028 -17.466l0.659 -28.799l-15.525 -10.726l-19.521 17.768l-10.869 9.299l-8.968 7.691l-16.568 13.85l-7.685 -1.851l-26.877 -4.425l-0.541 5.415z" />
  </g>
  <g data-id="027">
    <path d="m748.295 365.026l-4.198 6.037l16.284 10.086l11.674 3.893l22.177 8.997l6.985 0.484l8.466 5.864l6.765 1.875l4.309 -5.721l8.335 2.336l10.791 11.203l2.467 -2.708l2.375 -2.195l1.189 -0.647l1.06 0.445l1.329 -1.234l1.379 -0.129l4.15 -4.919l0.563 -2.499l1.901 -2.889l2.711 -1.49l2.08 -2.366l-1.68 -1.384l-2.912 -2.627l-0.484 -1.167l0.894 -1.294l-1.33 -1.067l-1.181 -0.113l0.92 -2.111l0.857 -1.02l2.035 -2.331l2.498 -3.583l0.123 -1.79l1.079 -1.538l-1.919 -2.279l-1.12 -0.831l0.087 -2.144l2.319 -3.032l0.833 -1.538l1.078 -0.434l0.931 -1.465l0.313 -1.274l2.541 -3.072l1.52 -1.315l0.519 -1.88l1.166 -0.57l2.566 -5.151l-0.224 -1.127l1.239 -0.565l0.477 -1.138l-1.978 -1.275l-2.755 -0.798l-0.074 -1.34l1.583 -2.292l2.36 -4.516l-1.381 -1.065l0.117 -1.154l-1.728 -1.824l-0.4 -1.271l0.668 -1.806l1.095 -1.233l0.585 -1.008l0.083 -1.695l-1.073 -1.554l1.107 -0.997l0.347 -1.322l-0.183 -1.332l0.369 -2.316l-0.395 -1.717l-18.393 -8.962l-6.287 -4.397l-1.125 0.145l-1.32 -0.716l-1.02 -0.114l-2.704 0.128l-2.965 -0.958l-1.577 -0.591l-1.319 0.036l-3.796 0.962l-1.254 -0.103l-2.674 0.512l-1.372 -0.771l-1.272 -1.138l-1.649 -0.349l-1.026 -0.999l-1.123 -0.852l-1.667 0.196l-1.758 -0.867l-1.728 -0.505l-1.123 0.085l-5.567 1.184l-9.661 9.78l-5.335 9.031l-7.635 4.199l-4.425 5.904l-0.439 3.205l-3.914 9.448l-8.409 12.195l-6.311 0.543l-7.952 9.234l-0.867 3.687l-6.62 4.779z" />
  </g>
  <g data-id="029">
    <path d="m401.359 15.059l0.036 1.176l0.175 1.185l2.356 2.266l2.83 4.481l1.68 2.595l1.137 0.778l1.079 4.086l0.266 2.201l0.585 2.726l1.816 3.349l1.342 1.41l1.412 2.392l0.142 1.041l-0.264 2.135l-0.447 1.334l-1.239 2.294l-1.381 3.201l-0.365 2.241l0.142 2.88l-0.081 2.907l0.183 1.013l-0.69 1.067l-2.619 1.066l11.027 -1.037l11.329 0.03l0.06 -16.757l-0.264 -2.989l-0.013 -11.816l-0.001 -11.138l0 -8.169l-0.006 -7.01l0.02 -5.997l-1.354 0.731l-1.437 0.128l-1.381 0.928l-1.289 0.647l-1.063 0.229l-1.948 1.382l-1.446 1.639l-1.807 0.891l-1.4 -0.346l-1.709 -1.866l-1.363 -0.74l-1.038 0.053l-2.462 0.901l-2.268 0.471l-1.459 1.027l-1.02 1.288l-1.134 2.041l-1.371 1.579l-2.203 1.643l-0.676 1.035l-0.419 1.399z" />
  </g>
  <g data-id="031">
    <path d="m717.162 476.303l-4.414 5.648l15.643 13.526l0.101 -1.328l0.223 -1.146l0.813 -1.85l-0.812 -1.303l1.36 -2.005l3.208 -0.078l1.198 -0.287l0.853 -1.693l-0.081 -1.042l-0.122 -1.72l0.914 -2.267l1.544 -0.651l1.096 -0.86l0.284 -1.615l0.569 -1.72l0.709 -1.159l-0.282 -1.16l1.27 -1.223l25.323 22.697l0.684 -1.053l0.451 -1.241l3.146 -6.037l2.639 -4.304l1.61 -2.635l1.238 -2.443l1.229 -2.766l0.847 -2.091l0.561 -1.71l2.43 -4.806l1.246 -1.427l0.416 -1.316l1.793 -1.871l1.3 -0.377l2.783 -1.771l0.928 -1.357l0.812 -2.688l2.354 -2.937l2.578 -0.952l1.572 -0.871l-0.232 2.024l-0.037 1.011l-0.222 3.338l0.221 1.027l1.459 -0.72l1.685 -1.713l1.41 -0.097l1.204 -1.721l1.996 -0.952l2.221 -2.077l0.829 -1.41l0.916 -1.697l1.43 -2.106l0.546 -1.804l1.17 -1.948l1.658 0.344l1.208 -2.068l0.33 -1.266l1.051 -0.78l1.06 -0.007l0.095 1.375l1.151 0.388l1.207 1.595l1.363 1.342l0.561 -1.291l1.144 -0.62l0.925 -1.74l1.173 -1.786l0.5 -1.346l2.031 -2.87l1.777 -1.948l1.379 -1.598l-0.501 -1.639l-1.201 -1.289l-1.747 -1.481l2.417 -2.504l1.165 -1.695l1.326 -1.572l1.526 -1.716l1.73 -1.54l1.046 -0.445l1.98 -2.445l0.063 -1.107l1.694 -1.786l-10.791 -11.203l-8.335 -2.336l-4.309 5.721l-6.765 -1.875l-8.466 -5.864l-6.985 -0.484l-22.177 -8.997l-11.674 -3.893l-16.284 -10.086l-4.396 11.117l-7.01 11.838l1.484 2.158l-5.701 13.107l-6.661 13.982l2.416 4.286l-0.812 5.67l7.249 18.723l-5.685 7.671l-2.436 1.33l1.076 4.408l-6.457 10.95z" />
  </g>
  <g data-id="033">
    <path d="m418.824 350.362l-4.54 8.002l5.388 1.022l-1.152 6.603l7.385 5.817l-3.838 3.686l8.175 2.959l-0.619 3.596l-9.426 5.352l-3.368 -1.945l-0.885 4.093l2.215 -0.37l7.371 2.547l0.583 1.963l5.698 1.379l2.153 -0.905l8.123 0.986l3.274 1.886l30.666 9.06l10.444 0.797l4.385 -3.135l0.505 -15.232l11.837 -18.684l-4.317 -6.518l-2.407 -0.93l-0.563 -15.173l-0.56 -13.949l1.574 -3.032l-17.358 -11.198l-6.191 -0.481l-36.712 -8.407l-3.772 2.89l-1.211 6.209l-5.258 1.545l1.106 4.949l-1.761 1.734l1.318 4.247l-0.576 5.528l2.495 1.67l-5.176 6.043l-1.441 4.227l-3.562 1.17z" />
  </g>
  <g data-id="035">
    <path d="m149.454 464.975l1.176 3.947l14.565 21.804l8.091 12.121l-4.515 4.774l8.255 8.824l4.668 -0.775l10.863 14.922l12.895 18.718l11.093 -5.894l11.377 -9.268l-4.967 -15.504l2.572 -14.305l2.518 -25.401l-1.167 -20.016l5.011 -4.242l-7.18 -6.861l-2.338 -6.015l4.054 -2.696l-0.538 -7.283l-10.002 -5.417l-33.665 -18.095l-1.035 1.439l-1.706 1.517l-3.005 1.491l-1.198 0.078l-1.888 -0.445l-1.503 -0.811l-1.97 -0.288l-1.219 1.229l-0.061 1.517l0.162 1.988l0.345 1.647l0.548 1.15l1.137 1.961l2.041 1.915l1.37 0.987l2.782 2.718l1.137 1.62l0.609 1.228l0 2.273l-0.183 1.045l-1.385 1.498l-0.726 1.76l-0.238 1.297l0.201 1.15l-0.842 2.08l-0.393 2.047l0.22 1.556l1.376 1.914l3.448 3.783l-0.311 2.404l-1.567 1.304l-1.599 -0.005l-1.45 -0.48l-2.461 -1.41l-2.592 -3.109l-1.644 -1.059l-1.108 -0.221l-1.083 0.108l-1.318 0.759l-1.33 1.713l-1.303 2.19l-0.322 4.059l-0.524 3.075l-1.486 2.263l-3.835 3.016l-2.919 1.798l-1.89 -0.079l-2.051 -1.011z" />
  </g>
  <g data-id="037">
    <path d="m935.854 360.416l0.46 3.567l41.599 34.635l1.242 -1.98l-0.164 -1.431l0.321 -1.822l1.666 -3.302l1.465 -1.937l0.32 -1.473l1.314 -3.872l-0.109 -1.767l0.788 -1.762l0.196 -1.003l0.988 -1.341l1.04 -2.316l1.132 -1.369l1.351 -1.958l0.84 -3.304l-0.688 -1.542l1.588 -0.834l0.218 -1.203l0.616 -1.333l0.616 -1.694l0.476 -1.511l0.627 -2.349l0.605 -1.5l2.515 -4.568l2.692 -1.597l-2.347 -2.056l-4.035 -1.844l-1.453 -1.382l-0.169 -1.027l2.168 -1.815l1.322 -2.756l-0.055 -1.363l-1.854 -3.462l0.216 -1.316l2.323 -0.546l0.987 -1.119l-0.834 -3.16l-1.516 -2.427l-1.056 -2.429l-0.406 -1.179l-1.754 -0.993l-2.341 0.155l-2.619 -0.343l-1.576 -1.014l-0.872 -1.035l1.39 -1.358l0.699 -1.978l-1.351 -1.185l-0.563 -1.007l2.314 -0.845l1.036 -0.574l-1.46 -1.174l-1.216 -0.903l-0.521 -1.173l0.616 -1.387l2.787 -1.395l1.973 -0.766l1.253 -1.004l-1.096 -1.595l-2.164 0.005l-1.435 0.964l-1.155 1.161l-2.731 0.198l-3.447 -0.892l-4.537 12.382l-7.739 7.785l-9.261 9.398l-3.287 0.18l-4.04 3.499l-6.05 14.579l-7.858 8.765z" />
  </g>
  <g data-id="039">
    <path d="m150.494 593.758l-2.371 14.854l5.974 2.807l7.854 0.362l3.341 -2.374l2.794 1.751l2.105 5.705l0.801 7.606l-1.621 1.886l0.279 9.545l-4.868 -0.719l-0.065 3.438l2.559 5.905l3.932 1.963l-2.583 -5.048l0.763 -2.497l5.078 -1.531l0.283 -4.203l3.946 0.785l2.034 5.823l3.574 1.748l3.253 -4.253l-0.919 -1.763l5.573 -1.758l2.24 2.614l5.535 -1.382l3.228 0.705l-1.762 4.564l0.814 4.666l2.835 1.938l6.555 0.833l2.414 5.202l4.249 4.358l2.787 -1.099l4.412 5.212l3.691 2.321l-3.704 4.005l-0.688 5.357l6.536 3.965l3.083 -1.721l6.13 10.395l-1.306 4.75l1.969 5.491l-0.508 2.112l4.67 2.833l4.426 -1.391l6.802 1.133l9.663 -49.559l0.646 -2.125l0.67 -1.277l-0.51 -2.028l2.904 0.459l16.918 -21.447l-2.053 -13.074l-2.525 -15.147l-5.837 -24.891l0.165 -1.182l17.868 -14.129l-5.37 -1.091l-10.901 2.598l-5.936 -3.366l-9.308 -1.688l-23.56 -2.232l-1.275 0.925l-2.836 -3.652l-4.451 -5.794l-2.968 -7.802l-11.377 9.268l-11.093 5.894l-12.895 -18.718l-6.584 7.849l-2.07 -0.807l-3.438 4.775l1.774 7.11l-1.402 7.685l2.402 1.676l3.22 10.882l-0.173 2.446l-19.313 9.277l-3.683 1.097l-2.093 1.08l-5.982 3.549l-3.878 2.37l-0.845 4.176z" />
  </g>
  <g data-id="041">
    <path d="m389.102 408.234l2.337 22.811l4.765 5.784l17.775 21.439l3.007 5.345l-0.467 3.459l1.99 3.011l5.184 -2.278l2.836 3.596l4.354 -2.224l9.834 7.545l-2.318 8.625l4.461 1.111l1.163 5.352l2.371 -0.526l-1.015 7.387l-1.255 2.597l2.453 3.207l10.595 -0.188l-3.346 -10.61l1.95 -11.85l2.629 -15.9l3.901 -3.079l1.112 -5.26l4.837 -7.848l-2.005 -0.797l5.496 -4.13l0.278 -3.602l-1.176 -1.239l-1.782 -5.831l3.351 -4.404l1.43 -6.99l1.194 -5.564l0.984 -11.088l-30.666 -9.06l-3.274 -1.886l-8.123 -0.986l-2.153 0.905l-5.698 -1.379l-0.583 -1.963l-7.371 -2.547l-2.215 0.37l-6.801 7.287l-5.546 -0.492l-4.976 5.134l-3.979 8.17l-5.541 -1.413z" />
  </g>
  <g data-id="043">
    <path d="m68.697 707.208l23.498 -8.019l12.821 -4.485l16.839 -5.816l3.469 0.099l7.86 -2.71l9.188 0.974l2.237 -1.096l5.552 -1.134l-10.031 -2.496l-3.561 -2.795l1.629 -10.155l3.713 -4.949l-1.516 -2.591l1.908 -4.808l3.309 -3.869l4.826 2.802l5.08 1.146l-1.885 -3.633l0.324 -4.319l2.914 1.111l0.029 -3.395l4.223 0.974l-0.12 -3.032l3.715 -6.396l0.065 -3.438l4.868 0.719l-0.279 -9.545l1.621 -1.886l-0.801 -7.606l-2.105 -5.705l-2.794 -1.751l-3.341 2.374l-7.854 -0.362l-5.974 -2.807l-13.583 12.651l-1.839 0.24l-1.27 2.371l-10.445 -6.139l1.169 -12.146l-0.819 -9.62l-3.575 -0.604l-6.593 2.405l-4.148 6.029l-9.546 1.99l-2.465 -0.801l-4.206 7.482l-4.69 -0.026l2.643 5.716l-6.849 4.502l-4.778 10.882l-0.317 4.802l-2.317 1.279l1.249 9.363l-2.85 6.327l5.632 2.881l-1.744 3.692l0.932 3.082l4.284 2.657l1.12 5.429l5.365 2.035l0.758 4.859l2.615 0.804l-2.345 5.854l-2.771 0.915l-11.571 12.18l-3.331 4.529l-3.142 2.974z" />
  </g>
  <g data-id="045">
    <path d="m92.195 699.189l-1.322 3.112l3.236 3.196l3.563 9.759l7.771 3.338l-0.691 5.544l3.368 4.741l-0.403 1.808l-6.438 3.35l2.492 3.37l0.288 4.253l6.122 3.043l-0.891 2.543l1.238 5.399l-2.086 0.078l-1.3 4.889l2.116 -0.73l3.7 4.639l1.167 7.909l8.404 -0.006l3.778 8.579l4.786 4.677l1.144 2.387l0.306 -1.669l2.537 -5.383l7.029 -0.798l2.9 -2.742l3.35 0.385l2.376 4.925l5.584 -2.283l1.993 -2.258l2.993 3.729l2.486 -1.985l4.792 4.309l2.335 -1.333l2.01 -2.668l16.403 -7.229l2.135 -0.596l-3.551 -3.616l-9.2 -9.296l4.426 -3.21l7.167 0.18l2.762 -2.723l3.797 0.359l3.655 -1.824l3.878 0.565l6.193 -2.852l-4.934 -3.7l-3.492 -7.145l-2.956 -0.516l-7.562 2.676l-4.528 3.315l-1.685 -3.958l-2.701 -1.054l-0.203 -3.779l-5.868 -2.623l-1.543 -3.394l4.689 -4.812l-1.075 -4.99l-3.452 -7.515l-4 -0.463l-2.884 -2.811l-9.298 -0.278l-8.264 -3.296l-1.909 -3.477l-8 0.695l-6.01 -3.76l9.693 -10.012l-2.237 1.096l-9.188 -0.974l-7.013 1.736l-4.316 0.875l-16.839 5.816l-12.821 4.485z" />
  </g>
  <g data-id="047">
    <path d="m131.6 827.046l0.189 1.758l0.686 2.281l1.069 1.544l1.419 -0.596l2.278 1.461l0.652 1.171l1.403 -0.288l1.889 0.603l0.731 1.4l1.405 -0.063l0.716 1.041l-0.512 1.094l0.181 3.117l0.91 1.202l1.825 0.981l-0.463 1.152l-1.02 1.334l0.408 1.996l-0.979 1.183l-0.638 2.169l0.808 1.661l0.521 1.917l0.345 1.555l1.406 1.078l0.994 1.807l1.054 0.13l0.729 1.291l1.706 0.685l0.709 2.333l1.681 0.208l1.388 0.002l1.558 1.553l0.616 1.123l2.012 1.264l-1.048 1.429l0.689 1.142l1.218 -0.28l0.484 1.522l0.031 1.536l-0.013 1.803l1.369 0.778l1.633 -0.432l1.087 0.462l1.694 1.276l1.105 0.032l1.3 -0.429l1.216 -0.532l2.769 -0.424l2.126 0.577l0.765 1.323l2.337 0.811l1.027 -0.299l1.045 0.354l0.02 1.019l1.097 1.133l1.221 0.503l0.135 1.396l0.908 1.039l-0.514 1.645l-0.102 1.294l1.109 1.087l1.06 0.035l1.041 -0.433l1.042 -0.171l1.383 1.574l0.105 1.415l3.406 2.695l0.78 1.181l1.705 0.119l0.7 1.9l1.028 1.062l23.874 -1.32l1.426 -0.454l0.884 -1.348l0.82 -1.64l2.465 -0.828l1.139 -0.613l1.366 -0.28l2.425 -1.441l0.513 -1.71l-0.034 -1.325l0.459 -1.44l1.075 -2.018l0.636 1.437l2.473 0.457l1.447 -1.154l2.908 -1.217l0.454 -1.021l1.152 -0.791l1.042 -0.659l3.293 -0.794l3.287 -0.132l1.029 -1.816l0.378 -1.15l1.211 -3.001l0.319 -1.293l1.092 -0.724l-0.352 -1.567l0.865 -1.475l1.25 -0.892l1.619 0.527l1.159 -0.198l0.638 -1.405l0.666 -1.362l0.199 -1.29l11.34 -22.996l-12.852 -4.823l-4.826 -5.399l-6.809 4.056l-1.278 -1.445l-3.646 -3.932l1.186 -1.681l-2.113 -1.841l-6.021 0.582l-1.315 1.825l-4.329 -1.048l-1.937 0.588l-5.245 -4.097l-1.418 0.558l-8.447 -0.893l-4.577 -6.438l-1.899 2.113l-5.381 -2.944l-5.665 1.895l-0.413 2.647l-3.547 2.166l-13.286 -2.509l-9.069 -0.384l-1.726 -7.372l-5.99 -3.457l-10.849 5.6l-2.736 3.883l-1.02 -0.063l-2.696 0.674l-0.561 1.678l-1.071 0.141l-1.051 1.61l0.224 1.106l-2.38 -0.442l-1.166 0.917l-1.393 1.356l-1.647 -0.276l-1.465 0.694l-0.744 1.603z" />
  </g>
  <g data-id="049">
    <path d="m435.834 285.483l3.512 12.826l2.73 2.991l-0.885 4.446l-3.676 1.008l-0.852 3.397l36.712 8.407l6.191 0.481l17.358 11.198l1.022 0.012l14.256 -2.141l7.046 3.961l12.656 -4.002l2.795 -4.183l14.691 -9.228l-5.905 -2.765l-5.223 -5.68l-3.528 -0.684l-0.904 -3.78l-1.049 -0.481l-1.378 -0.382l-3.201 -4.771l-17.268 -15.676l-5.126 -7.365l-3.639 -0.027l-28.717 -0.328l-7.058 -0.02l-4.07 -5.723l-5.707 -0.998l-7.518 -0.513l-2.142 2.571l1.938 2.444l-3.162 1.993l-0.324 4.492l-5.635 -0.441l-0.306 3.669l-3.631 5.289z" />
  </g>
  <g data-id="051">
    <path d="m360.521 231.93l0.303 2.443l0.458 1.021l2.157 2.815l1.752 1.262l1.928 3.666l64.414 0.665l-0.011 -15.541l-0.005 -6.851l0.108 -22.422l-0.072 -12.178l0.015 -5.212l-0.009 -1.47l0.02 -14.367l-26.971 -2.898l-3.512 -0.34l-5.095 -0.515l-7.902 -0.739l-0.836 1.528l0.01 1.226l-0.643 2.053l-0.283 1.934l0.166 2.934l0.481 3.112l-0.286 3.794l-1.247 1.208l-1.8 1.238l-1.673 2.132l-0.23 1.83l0.65 4.635l0.919 2.254l0.172 1.067l-0.481 1.623l-2.023 0.207l-2.96 -1.99l-2.612 -0.669l-1.559 0.246l-0.858 1.012l-0.338 1.224l-0.081 1.114l0.711 2.329l0.78 1.507l1.254 1.609l1.219 3.513l-0.123 1.315l-1.855 2.214l-3.357 1.555l-1.594 1.554l-0.546 1.455l0.149 1.548l0.649 2.199l0.173 4.17l-0.566 2.806l-2.099 2.749l-5.632 4.093l-1.227 2.334z" />
  </g>
  <g data-id="053">
    <path d="m85.92 488.765l0.01 1.921l0.217 1.581l0.779 1.403l1.923 1.148l1.138 0.93l1.204 2.065l0.475 2.931l1.015 1.848l0.345 3.019l0.406 1.718l0.426 1.847l-0.528 2.498l-1.035 3.07l-0.142 1.82l0.65 2.003l0.325 1.534l0.102 1.872l1.32 2.782l0.467 1.586l0.508 2.495l0.447 1.871l0 1.741l-0.63 2.806l-0.426 1.221l-0.954 1.143l-1.381 1.143l-1.027 0.49l-2.304 0.358l-2.801 0.009l33.266 30.403l-1.916 -34.638l21.77 -12.647l1.203 -0.327l36.256 -5.966l-8.255 -8.824l4.515 -4.774l-8.091 -12.121l-14.565 -21.804l-1.483 -3.066l-0.031 -1.099l-1.134 -1.298l-2.247 -1.913l0.06 -2.533l1.538 -1.906l1.454 -1.813l2.239 -2.29l0.495 -1.374l-0.431 -2.106l-1.219 -1.982l-1.186 -2.371l-1.172 -3.199l-1.695 -2.85l-1.345 -2.651l-1.754 -1.473l-1.953 -0.715l-1.586 0.21l-1.727 0.594l-1.239 0.142l-1.117 -0.203l-0.688 -2.296l-0.873 -2.612l-0.873 -1.672l-0.731 -1.071l-1.482 -1.411l-3.107 -0.575l-1.969 0.444l-1.767 0.758l-1.138 1.986l-0.832 3.684l-0.711 1.698l-1.949 1.881l-2.051 1.358l-2.132 0.993l-1.97 1.332l-0.833 1.306l-0.345 1.672l-0.814 1.634l-2.069 3.327l-0.366 1.357l0.061 1.331l-2.112 3.706l-1.604 2.897l-1.198 1.148l-1.706 1.957l-0.284 1.67l-0.142 2.139l0.629 1.669l0.442 1.756l0.155 1.389l-0.486 3.553l-0.66 2.845l-3.392 4.13l-3.636 1.891l-2.374 0.583l-1.646 1.68l-2.032 1.567l-1.057 1.037l-1.435 2.996z" />
  </g>
  <g data-id="055">
    <path d="m260.411 862.579l8.538 9.794l9.262 7.898l10.026 8.545l4.128 -2.076l5.405 -3.817l2.258 -1.251l1.637 -0.638l3.362 -0.965l6.052 -2.381l3.609 -1.057l2.194 -0.449l9.506 -1.493l3.097 -0.993l2.737 -0.493l1.6 -0.458l4.261 -1.126l-0.525 1.596l1.682 1.169l1.489 -0.182l3.789 -0.948l1.982 -1.125l1.425 -0.662l2.408 -0.84l3.802 -2.256l4.148 -3.55l2.257 -2.469l3.966 -2.129l-6.862 -9.458l4.16 -7.129l-0.49 -1.321l0.412 -1.955l0.727 -1.256l-47.727 -40.722l-2.738 -1.348l-3.751 0.461l-1.792 -1.486l-12.883 5.735l-0.223 8.493l-2.799 8.441l-1.7 -0.26l-3.715 1.024l-1.216 1.145l-3.515 1.792l-3.005 5.824l-5.861 3.246l5.033 10.149l-2.095 1.692l-3.712 -2.897l-10.346 22.184z" />
  </g>
  <g data-id="057">
    <path d="m685.325 346.639l6.383 2.265l21.008 2.52l31.381 19.639l4.198 -6.037l6.62 -4.779l0.867 -3.687l7.952 -9.234l6.311 -0.543l8.409 -12.195l3.914 -9.448l0.439 -3.205l4.425 -5.904l7.635 -4.199l5.335 -9.031l9.37 -9.878l-1.335 -0.45l-2.363 -0.945l-1.379 -0.915l-1.428 -0.506l-0.516 -1.319l-3.066 -1.336l-1.266 -1.626l-2.285 -0.496l-1.502 -3.015l-0.235 -2.193l-1.087 -0.692l-0.978 1.477l-2.727 0.006l-2.181 -1.791l-0.201 -1.079l-0.74 -1.295l-1.221 -1.283l2.036 -1.935l1.547 -0.337l1.824 0.01l0.903 1.122l1.627 -1.056l1.074 -1.116l-0.493 -2.05l-1.359 -0.891l-1.141 -0.309l-1.662 0.868l-1.317 1.074l-1.298 -0.141l-1.614 -0.601l0.99 -4.001l1.483 -1.871l-0.101 -1.187l-1.909 0.738l-3.188 1.951l-1.015 0.264l-1.178 2.583l1.173 3.501l0.022 1.916l-1.206 0.033l-1.534 -0.33l-0.57 1.982l-1.369 2.68l-1.196 0.036l-0.319 3.399l1.27 0.276l1.013 1.3l-0.335 2.544l-1.958 -0.237l-2.466 -1.24l-2.567 1.943l0.037 1.548l-3.633 5.676l-1.185 2.6l-2.284 0.008l-1.056 0.969l-0.834 1.794l-2.723 4.049l-1.577 2.672l-2.134 -0.121l-1.343 0.217l-1.043 0.644l-0.785 1.083l0.702 1.143l-0.569 1.396l-0.941 1.004l-1.366 0.656l-0.437 5.619l-2.03 1.005l-0.94 -1.281l-1.768 -1.407l-3.68 -1.652l-2.669 -1.601l-1.431 -1.559l-2.236 0.504l-1.162 -0.71l-0.353 -1.468l-2.163 -2.751l-1.253 0.391l-0.403 1.496l-0.438 1.476l-2.445 -0.921l-2.973 0.825l-1.636 -0.27l-1.054 -0.104l-0.35 1.145l0.571 1.551l-1.784 3.731l-2 1.324l-0.509 1.383l-0.581 1.288l-1.952 0.952l0.022 1.647l-0.661 1.315l-1.727 0.428l-0.406 1.611l-1.397 0.723l-0.812 -1.118l-1.143 -0.263l-1.479 3.188l-0.146 2.005l-1.499 0.131l-0.962 1.159l-2.057 0.484l-1.234 -0.339l-1.502 2.606l-2.237 3.297l-1.299 0.568l-1.805 -0.133l-1.346 1.306l-3.328 0.532l-0.329 5.104l-3.141 1.704z" />
  </g>
  <g data-id="059">
    <path d="m45.348 730.099l0.184 1.846l1.489 0.554l0.855 2.236l1.881 1.724l2.418 3.013l1.662 1.877l0.444 2.03l1.507 0.324l1.013 1.276l1.798 0.751l1.477 1.717l1.704 0.288l0.422 1.446l0.159 1.3l0.75 2.328l0.903 1.005l1.715 1.787l-0.082 1.07l-1.382 0.716l-1.088 1.334l1.37 1.804l1.451 0.476l0.369 1.716l0.339 1.586l1.036 1.081l0.088 1.034l0.696 1.445l1.275 0.394l0.737 1.622l-1.129 1.574l1.035 1.521l0.619 2.431l0.122 1.257l0.479 1.087l1.082 -0.252l1.74 0.033l1.189 1.594l3.027 1.804l2.68 -1.08l3.614 2.017l0.235 1.562l1.14 1.044l0.053 1.802l0.866 2.136l1.04 0.632l1.087 -0.181l2.425 0.053l1.035 -0.341l1.198 0.035l-0.006 1.271l2.483 2.259l0.216 1.162l2.138 3.004l0.181 1.021l1.682 0.482l1.397 -1.091l1.945 0.417l0.945 1.761l0.349 1.959l1.831 4.978l2.732 -0.13l2.831 1.048l2.872 0.046l2.154 2.896l-0.076 1.407l1.489 0.545l2.569 -1.26l0.006 -1.255l1.179 -0.311l0.414 1.331l1.646 1.296l1.588 -0.732l1.033 1.588l1.366 0.276l3.078 -1.119l1.004 -1.255l1.343 0.181l1.238 -0.927l1.267 -0.276l1.051 0.891l-0.675 1.339l0.145 1.276l1.669 -0.616l0.34 1.378l2.37 -0.487l-0.309 1.078l0.783 1.617l2.153 0.574l1.36 1.219l3.455 -3.285l10.849 -5.6l0.02 -3.304l4.365 -1.895l1.242 -7.374l5.418 -4.439l1.218 -4.153l-1.502 -7.436l-2.335 1.333l-4.792 -4.309l-2.486 1.985l-2.993 -3.729l-1.993 2.258l-5.584 2.283l-2.376 -4.925l-3.35 -0.385l-2.9 2.742l-7.029 0.798l-2.537 5.383l-0.306 1.669l-1.144 -2.387l-4.786 -4.677l-3.778 -8.579l-8.404 0.006l-1.074 -7.891l-3.793 -4.657l-2.116 0.73l1.3 -4.889l2.086 -0.078l-1.238 -5.399l0.891 -2.543l-6.122 -3.043l-0.288 -4.253l-2.492 -3.37l6.438 -3.35l0.403 -1.808l-3.368 -4.741l0.691 -5.544l-7.771 -3.338l-3.563 -9.759l-3.236 -3.196l1.322 -3.112l-23.374 7.977l-19.89 20.819l1.888 5.265l-5.47 -3.151z" />
  </g>
  <g data-id="061">
    <path d="m451.422 243.859l2.838 0.907l2.469 9.829l-0.114 11.382l5.707 0.998l4.07 5.723l7.058 0.02l28.717 0.328l3.639 0.027l5.126 7.365l17.268 15.676l2.274 4.59l1.405 0.209l1.323 0.319l1.53 4.296l3.528 0.684l5.223 5.68l5.905 2.765l8.972 4.437l-1.026 -12.191l3.661 -6.016l6.501 -10.841l7.631 -12.736l4.635 -7.756l0.793 -8.834l4.385 -10.441l0 -6.31l-9.002 0.008l-9.095 0.008l-12.845 -0.048l-32.44 -0.121l-33.574 0.013l-13.673 0.005l-22.89 0.025z" />
  </g>
  <g data-id="063">
    <path d="m362.677 839.425l1.078 0.357l1.389 0.897l1.756 -0.579l5.287 4.64l1.073 0.866l0.046 1.545l1.154 0.597l2.056 0.018l1.244 0.276l0.163 1.006l1.344 1.665l1.357 3.006l2.07 -0.644l2.267 -1.32l2.169 -0.638l1.31 -0.553l1.623 -0.907l1.648 -0.625l2.086 -0.999l2.74 -1.822l1.448 -0.736l3.981 -2.45l1.682 -0.861l2.192 -1.166l1.816 -1.361l0.931 -1.19l1.218 -0.308l1.941 -1.564l3.37 -1.721l1.792 -1.347l1.121 -1.334l3.971 -2.538l2.896 -1.788l1.462 -0.29l1.025 0.043l1.287 -0.481l1.036 -0.246l2.682 -0.307l4.499 5.325l-0.873 3.317l0.49 2.483l3.912 3.099l2.189 -0.816l1.524 -1.566l1.207 -0.453l1.694 -1.045l3.527 -3.005l4.637 -2.672l4.118 -2.57l2.149 -0.947l1.783 -1.517l-0.745 -1.248l4.68 -1.86l2.386 -0.408l1.002 -0.418l1.315 -0.897l1.182 -0.528l1.112 -0.496l1.937 -1.379l3.534 -6.463l-1.88 -0.765l-3.594 2.336l-4.256 -2.269l1.202 -1.231l2.015 -0.786l-2.851 -5.172l6.826 -3.703l2.526 -1.719l2.456 -1.452l1.377 -0.57l2.798 -2.241l1.93 -1.241l2.894 -3.357l1.022 -1.976l-3.716 -2.539l-3.075 -1.2l-1.797 -0.7l-1.435 -0.986l-1.831 -2.09l-2.616 -6.837l-0.788 -2.066l-4.501 1.525l-3.656 -0.444l-2.314 -1.55l1.523 -2.839l-2.544 -0.827l-1.818 4.685l-4.792 -0.804l0.92 -3.735l-2.556 1.318l-0.245 -3.78l-11.388 8.484l-2.57 -2.411l-8.809 0.538l-30.073 -9.28l-1.733 -1.124l0.589 4.398l-7.466 13.875l-0.795 1.396l-9.545 17.287l-10.214 16.775l-12.187 23.998z" />
  </g>
  <g data-id="065">
    <path d="m849.067 296.669l-1.165 1.066l6.287 4.397l18.393 8.962l12 9.796l5.116 3.793l6.907 6.067l6.099 -14.331l5.036 -19.886l3.99 -11.155l3.114 -7.922l3.02 -0.002l5.836 3.07l3.119 -4.629l4.186 0.376l7.5 -5.615l-1.571 -2.073l-1.188 -2.177l-1.968 -1.651l-1.269 -1.642l-3.321 -3.39l-1.28 -1.484l-1.556 -1.182l-1.286 -0.012l-1.731 -1.834l-2.176 -1.049l-3.27 -0.927l-1.78 -0.35l-2.187 -0.906l-2.17 -0.031l-1.617 -0.821l-1.875 -0.52l-1.069 -0.094l-1.245 0.226l-1.695 1.279l-1.135 2.16l-0.889 1.11l-1.153 0.495l-4.176 -0.035l-1.179 0.857l1.883 2.708l-0.774 1.532l-2.108 1.243l-1.759 1.931l-1.493 1.231l-1.647 2.538l-0.235 1.067l-0.005 1.25l-1.574 0.536l-2.42 -0.218l-5.099 -2.408l-4.829 -1.7l-4.055 -1.169l-1.291 0.218l-0.095 1.073l1.028 1.265l-0.426 1.194l-1.363 0.055l-1.112 -0.759l-1.057 -0.403l-1.49 0.29l-0.598 1.125l0.879 1.836l1.363 1.537l-1.173 1.085l-1.098 -0.193l-1.458 -0.845l-1.026 -1.043l-3.458 -1.322l-1.561 -0.772l-1.087 -0.139l-1.502 1.049l0.06 1.067l1.507 2.352l1.002 1.164l1.578 1.284l2.064 1.242l1.062 0.886l0.438 1.586l-1.141 1.054l-1.441 0.427l-2.16 -0.663l-1.944 -1.477l-3.031 -1.169l-1.626 0.253l-1.218 0.741l-0.234 1.831l0.804 1.609l3.288 2.843l2.364 1.151l1.324 1.951l0.126 1.144l-1.535 0.211l-1.396 -0.621l-0.189 1.307l-0.329 1.233l-1.134 -0.505l-1.058 -0.564l-0.473 1.389l-1.985 0.572l-0.365 1.741l-0.372 2.228z" />
  </g>
  <g data-id="067">
    <path d="m286.953 624.621l5.514 3.835l2.434 -0.125l1.342 3.247l6.73 2.69l3.879 -2.28l4.678 5.763l5.28 2.279l1.897 2.059l0.929 -3.609l4.01 -0.818l-1.394 -2.47l3.907 -1.464l0.741 2.051l5.52 3.857l-0.035 -4.065l4.912 -0.304l2.974 1.956l5.026 5.495l-1.156 6.635l9.864 11.747l3.798 -2.849l0.059 7.767l26.877 4.425l7.685 1.851l16.568 -13.85l8.968 -7.691l10.869 -9.299l19.521 -17.768l-35.098 -23.618l-0.686 -2.169l-2.592 3.26l-2.01 -5.551l-5.329 -9.503l4.252 -3.022l-1.979 -5.481l-5.648 -15.087l5.585 -5.994l-13.312 -2.665l-7.048 2.878l-1.874 -4.086l-5.052 -4.189l-19.503 13.134l3.375 1.801l7.983 1.492l1.597 4.097l-19.073 16.531l-26.527 16.078l-11.528 6.906l-26.932 16.121z" />
  </g>
  <g data-id="069">
    <path d="m387.015 150.044l0.02 1.114l0.284 1.725l0.569 1.406l0.691 2.785l-0.1 2.665l-0.38 1.529l7.902 0.739l5.095 0.515l3.512 0.34l26.971 2.898l0.023 -16.07l0.004 -4.998l-0.023 -16.952l-6.955 -2.065l-8.536 -2.544l-6.023 -0.056l-7.906 -0.457l0.055 -1.846l-3.671 0.088l-0.879 1.052l-3.408 6.47l-0.624 1.506l-0.27 1.751l-0.552 1.776l-0.104 3.463l0.354 1.907l0.367 1.279l-0.142 2.097l-0.284 1.035l-0.793 1.221l-3.594 2.76l-1.239 1.698l-0.365 1.168z" />
  </g>
  <g data-id="071">
    <path d="m614.3 532.05l-6.071 7.613l15.696 7.375l1.117 0.156l2.193 0.597l2.619 1.817l1.025 0.488l0.844 1.329l2.417 3.192l4.406 9.393l4.696 10.502l21.59 7.773l11.781 3.983l2.476 -0.78l1.679 -1.228l1.003 -0.241l1.365 -0.054l-0.023 -1.222l-0.488 -1.437l1.652 -1.378l1.444 -0.514l0.82 -1.41l0.461 -1.12l1.355 -2.04l1.44 0.688l1.114 -0.976l-0.035 -1.887l0.399 -1.429l1.147 -0.822l1.774 -0.897l0.956 -1.069l-0.09 -1.102l1.258 -1.147l1.053 -1.289l0.438 -1.528l-0.626 -1.894l1.035 -4.437l1.807 -3.166l0.711 -1.48l0.914 -1.298l0.995 -1.064l0.65 -2.181l0.853 -1.454l1.158 -0.675l0.02 -1.558l0.569 -1.169l0.934 -1.169l0.975 -2.39l-0.102 -2.313l0.975 -1.377l-0.203 -1.223l0.832 -2.441l0.87 -1.305l0.876 -2.281l1.035 -0.936l0.241 -1.14l1.08 -2.813l1.787 -1.716l2.172 0.026l1.056 0.91l2.721 -0.858l0.386 -2.548l0.65 -1.17l0.711 -3.303l-1.3 -1.56l-0.308 -1.741l1.16 -4.374l-0.142 -1.067l0.365 -1.171l0.711 -1.327l0.467 -1.301l0.629 -1.171l0.771 -1.406l1.605 -2.551l1.482 -1.51l-15.582 -13.838l-8.832 -7.669l-34.937 -29.936l-3.675 8.536l-1.401 1.044l-8.284 -0.574l-5.624 -2.506l-2.457 0.705l2.234 8.168l-7.797 3.209l-7.431 -1.487l1.909 4.225l-1.157 3.286l-4.731 5.684l3.229 2.919l-0.816 4.185l3.963 3.555l-0.487 5.157l-3.431 4.583l-1.787 4.296l-4.02 3.67l-1.09 3.972l-7.458 7.71l0.471 6.336l-5.628 -1.446l-0.751 1.196l1.801 1.521l-3.254 5.823l2.997 3.938z" />
  </g>
  <g data-id="073">
    <path d="m258.561 343.664l1.488 5.58l3.212 -2.089l4.884 3.253l-0.031 4.674l12.806 1.618l4.399 6.311l3.683 -10.401l10.409 0.594l9.955 -2.191l8.189 -4.494l4.116 2.233l3.249 -1.601l1.563 -5.644l5.867 -0.17l-1.339 -13.812l-1.772 -10.071l-0.513 -5.323l-0.861 -1.494l-2.578 -0.228l-3.784 -2.057l1.466 2.363l-0.622 1.082l-4.423 -1.111l-3.133 2.595l-2.536 -1.544l-2.976 1.526l-0.662 1.152l-0.772 1.052l-1.198 1.131l-3.675 0.5l-2.231 0.523l-1.444 0.529l-1.888 1.066l-1.221 1.154l-0.968 1.884l-1.969 2.171l-0.977 1.187l-1.139 1.898l-0.008 1.695l-0.159 1.086l-1.149 1.415l-1.273 0.402l-3.707 -1.107l-1.472 0.075l-2.172 0.865l-2.219 0.206l-1.007 0.559l-1.163 1.189l-3.271 1.282l-1.478 1.009l-3.005 2.429l-1.335 0.815l-1.914 1.416l-1.426 1.248l-1.004 0.597l-1.897 0.681l-2.916 0.293z" />
  </g>
  <g data-id="075">
    <path d="m463.876 634.411l-0.659 28.799l20.028 17.466l9.891 1.192l3.691 -0.246l5.805 1.762l12.645 -5.088l29.856 -2.025l-0.051 -1.284l1.162 -3.023l1.068 -0.99l1.37 -1.896l1.474 -1.277l0.826 -1.254l0.955 -1.483l-1.632 -0.662l-2.128 -5.644l2.253 -1.012l0.958 -1.1l0.058 -1.204l0.657 -1.498l1.391 -1.176l0.767 -3.288l-0.76 -1.33l0.407 -1.375l-0.089 -1.485l0.538 -1.209l1.689 -0.15l1.556 -1.045l1.119 -1.763l0.269 -1.235l1.051 -0.853l1.487 -0.791l3.139 -3.341l1.353 -1.843l1.348 -0.583l0.788 -1.725l1.817 -0.329l0.917 -1.622l1.561 -0.759l1.15 0.583l0.793 -1.399l0.308 -1.171l1.598 -0.264l1.027 -0.59l0.605 -1.159l1.657 -0.439l0.526 -1.459l-0.457 -2.035l-1.149 -2.344l-1.488 -0.477l-0.115 -1.192l-0.852 -1.297l-0.53 -1.297l1.231 -1.867l1.205 -1.356l0.327 -1.118l2.148 -1.915l1.36 -0.189l1.255 -1.015l0.646 -1.634l0.711 -2.338l0.4 -1.461l1.382 -0.272l2.745 0.931l1.93 -0.714l1.067 -1.321l0.718 -1.113l-0.2 -1.218l-0.63 -2.465l0.72 -1.74l1.825 -3.754l1.706 -2.071l0.473 -1.601l3.443 -4.071l-0.402 -1.295l0.429 -1.574l0.118 -1.822l0.122 -1.901l-0.553 -1.782l-0.914 -1.378l-0.819 -1.273l0.824 -1.005l-0.284 -1.746l0.499 -2.505l1.25 -0.506l1.091 -1.332l0.284 -1.79l1.523 -0.571l1.004 -0.12l1.149 -0.84l0.101 -1.193l-0.772 -1.453l-1.258 -1.142l0.853 -1.428l0.386 -1.064l-0.569 -1.324l0.081 -1.584l0.853 -2.96l1.178 -0.389l-0.467 -1.273l0.447 -1.376l2.091 -4.909l6.071 -7.613l-2.997 -3.938l3.254 -5.823l-1.801 -1.521l-1.34 0.936l-0.244 -1.638l0.995 -1.196l0.244 -2.106l-2.558 -0.312l-1.462 -0.572l-1.373 -1.042l-1.408 -0.726l-2.01 1.352l-1.442 1.041l0.081 1.638l-0.197 1.626l-1.306 0.922l-1.259 -0.156l-1.178 -0.832l-0.284 -1.495l-0.873 -1.807l-1.442 -1.248l-1.929 0.468l-0.832 1.196l-2.416 0.156l-1.381 -1.638l0.771 -1.118l0.021 -1.144l0.385 -2.238l0.549 -1.873l-0.345 -1.171l-0.853 -1.145l-1.242 -0.316l-1.109 -1.816l-0.41 -1.121l-2.193 -0.963l-1.767 -1.068l-1.096 0.026l-0.691 1.562l-0.67 1.327l-1.523 1.874l-0.061 1.145l-1.299 0.963l-0.275 1.618l0.315 1.374l-1.645 2.237l-0.041 1.509l-0.244 1.248l-1.055 1.508l-0.365 1.3l-0.627 1.274l-0.47 2.47l-1.584 1.092l-0.862 1.331l0.253 1.528l-0.423 2.684l-1.399 0.417l-1.081 -0.086l-0.031 1.17l0.107 1.325l0.513 1.04l0.203 1.377l-0.305 1.247l-0.934 1.793l-0.365 1.48l-1.015 2.13l0.041 2.052l-0.365 1.922l-0.426 1.661l-0.406 1.584l-0.371 1.474l-6.598 4.894l-6.624 4.685l-10.353 7.331l-10.128 7.077l-8.753 -1.884l-8.695 -1.869l-6.084 4.849l-6.549 5.544l-5.045 4.263l-6.9 5.829l-1.892 1.597l-17.207 13.646l-4.447 -2.48l-1.599 30.909z" />
  </g>
  <g data-id="077">
    <path d="m557.335 306.904l1.026 12.191l-0.172 35.719l1.396 -0.857l5.468 4.658l2.325 10.114l6.375 1.587l1.858 2.609l23.822 -10.262l1.732 -0.181l35.794 14.197l4.142 5.581l0.061 -2.896l0.203 -15.451l-0.175 -3.474l-0.016 -4.779l0.15 -12.58l0.695 -46.546l0.058 -2.717l0.909 -25.839l0.025 -3.298l0.224 -20.789l-14.579 0.079l-12.133 -0.099l-31.582 0.1l0 6.31l-4.385 10.441l-0.793 8.834l-4.635 7.756l-7.631 12.736l-6.501 10.841l-3.661 6.016z" />
  </g>
  <g data-id="079">
    <path d="m117.797 535.384l1.916 34.638l0.633 12.453l0.991 13.493l0.819 9.62l-1.169 12.146l10.445 6.139l1.27 -2.371l1.839 -0.24l13.583 -12.651l2.371 -14.854l0.845 -4.176l3.878 -2.37l5.982 -3.549l2.093 -1.08l3.015 -1.154l19.981 -9.22l0.173 -2.446l-3.22 -10.882l-2.402 -1.676l1.402 -7.685l-1.774 -7.11l3.438 -4.775l2.07 0.807l6.584 -7.849l-10.289 -14.81l-5.242 0.663l-36.256 5.966l-1.203 0.327l-21.77 12.647z" />
  </g>
  <g data-id="081">
    <path d="m217.9 711.309l1.949 2.188l-0.467 4.246l2.112 2.161l-1.946 2.808l0.525 10.798l1.726 4.293l4.791 0.704l2.438 0.915l0.508 6.989l7.634 2.672l3.777 -0.873l6.921 10.329l5.566 9.831l15.189 27.67l2.313 5.427l-0.254 6.133l10.173 6.446l1.7 -1.402l6.29 5.775l1.7 0.26l2.799 -8.441l0.223 -8.493l12.883 -5.735l1.792 1.486l3.751 -0.461l2.738 1.348l6.165 -5.74l-0.255 -7.884l7.708 -4.295l1.189 -2.834l6.651 -4.152l3.313 -3.394l-0.908 -3.978l6.108 -0.238l6.544 3.142l3.491 3.514l-0.544 3.393l4.208 -1.637l0.326 -2.423l-2.444 -2.413l-1.776 -7.135l-4.998 -3.308l1.087 -2.502l3.261 -1.232l1.545 -2.578l-1.753 -4.118l-3.754 -2.724l-0.992 -4.194l-3.811 -2.414l-6.704 -3.606l-10.109 0.934l-5.967 -1.547l1.248 -5.853l-8.427 1.934l-1.63 -2.213l5.685 -0.355l-0.118 -3.883l-45.061 -3.474l-1.288 -11.334l0.995 -2.729l-5.198 -2.111l-5.096 -6.309l-6.802 1.957l-6.802 -1.133l-4.426 1.391l-4.67 -2.833l0.508 -2.112l-6.599 1.623l-3.675 -1.906l-3.858 4.405l-2.518 0.077l-3.492 4.301l0.183 2.111l-3.37 4.737z" />
  </g>
  <g data-id="083">
    <path d="m488.893 500.072l-8.777 12.725l14.369 32.41l5.149 11.627l-12.504 35.503l1.892 -1.597l6.9 -5.829l5.045 -4.263l6.549 -5.544l6.084 -4.849l8.695 1.869l8.753 1.884l10.128 -7.077l10.353 -7.331l6.624 -4.685l6.598 -4.894l0.371 -1.474l0.406 -1.584l0.426 -1.661l0.365 -1.922l-0.041 -2.052l1.015 -2.13l0.365 -1.48l0.934 -1.793l0.305 -1.247l-0.203 -1.377l-0.513 -1.04l-0.107 -1.325l0.031 -1.17l1.081 0.086l1.399 -0.417l0.931 -1.737l-0.761 -2.475l0.862 -1.331l1.584 -1.092l0.183 -1.508l0.569 -1.404l0.739 -1.495l0.133 -1.157l1.137 -2.236l0.041 -1.509l1.117 -1.378l0.572 -2.014l-0.551 -1.004l1.766 -1.796l0.061 -1.145l0.812 -1.041l1.381 -2.16l0.691 -1.562l1.096 -0.026l1.767 1.068l1.342 0.26l1.261 1.824l0.37 1.352l1.981 0.78l0.853 1.145l0.345 1.171l-0.549 1.873l0 1.431l-0.299 1.163l-0.878 1.906l1.381 1.638l1.523 0.052l1.725 -1.404l1.929 -0.468l1.442 1.248l0.873 1.807l0.284 1.495l1.178 0.832l1.259 0.156l1.306 -0.922l0.197 -1.626l-0.081 -1.638l1.442 -1.041l1.482 -0.754l1.543 -0.26l1.766 1.43l1.462 0.572l1.665 -0.182l1.055 1.69l-1.401 2.106l0.244 1.638l1.34 -0.936l0.751 -1.196l5.628 1.446l-0.471 -6.336l7.458 -7.71l1.09 -3.972l4.02 -3.67l1.787 -4.296l3.431 -4.583l0.487 -5.157l-3.963 -3.555l0.816 -4.185l-3.229 -2.919l4.731 -5.684l1.157 -3.286l-1.909 -4.225l7.431 1.487l7.797 -3.209l-2.234 -8.168l2.457 -0.705l5.624 2.506l8.284 0.574l1.401 -1.044l3.675 -8.536l-1.583 -1.828l-10.354 -2.435l-2.493 0.563l-14.963 -1.517l-1.808 1.965l-1.061 -1.36l-27.097 -7.847l-29.128 -8.413l1.766 -2.379l0.345 -7.87l-4.893 -8.214l-5.219 -2.041l-2.254 5.128l-2.66 0.288l-2.822 5.859l-1.949 10.014l-2.944 8.153l-1.787 7.784l-38.367 6.833l-2.493 5.098l1.649 2.463l-4.025 5.589l2.164 14.682l-5.628 24.673l-3.381 0.059l-19.1 0.48z" />
  </g>
  <g data-id="085">
    <path d="m270.844 391.976l-3.747 1.772l5.979 5.551l2.43 -0.764l2.459 6.548l2.43 0.129l1.328 9.19l-3.259 3.563l3.989 0.668l0.678 5.451l4.47 0.73l0.711 -2.248l9.153 -0.141l3.492 2.826l5.354 -3.806l3.544 0.676l3.269 5.516l8.69 3.553l5.299 -0.444l6.294 0l7.502 -6.721l10.977 -2.859l6.733 -6.97l4.009 -0.278l0.838 -2.606l3.971 0.404l4.923 -4.472l-0.445 -2.598l-20.48 -42.844l5.095 -5.601l0.973 -3.534l-1.726 -4.57l1.567 -1.448l0.205 -7.884l-4.205 -4.569l-1.275 0.799l-4.349 -3.688l-2.321 4.042l-1.067 6.272l-2.85 2.701l-5.004 -2.02l-1.424 1.628l-2.704 -2.591l-5.867 0.17l-1.563 5.644l-3.249 1.601l-4.116 -2.233l-8.189 4.494l-9.955 2.191l-10.409 -0.594l-3.683 10.401l-4.03 0.314l-8.563 16.895l0.707 4.482l-3.815 4.712l1.226 2.561z" />
  </g>
  <g data-id="087">
    <path d="m225.528 504.339l-2.572 14.305l4.967 15.504l2.968 7.802l4.451 5.794l2.836 3.652l1.275 -0.925l23.56 2.232l9.308 1.688l5.936 3.366l10.901 -2.598l5.37 1.091l12.86 -9.946l9.556 -11.958l-3.733 -7.016l-4.414 2.084l-1.576 -1.897l-5.479 -1.502l-2.676 -8.294l1.033 -4.977l-1.114 -3.219l0.07 -8.422l-4.883 -7.196l-6.412 -6.708l1.946 -1.345l-1.366 -7.079l1.906 0.279l-1.134 -4.99l-5.198 -2.485l1.65 -7.229l-4.306 -3.334l2.012 -0.586l-2.704 -3.951l-3.153 -1.001l-6.189 1.765l-6.752 3.09l-14.809 -6.383l-6.713 -5.46l-3.901 3.691l-7.16 2.5l-5.011 4.242l1.167 20.016l-2.518 25.401z" />
  </g>
  <g data-id="089">
    <path d="m320.893 792.642l-6.165 5.74l47.727 40.722l12.408 -23.676l10.214 -16.775l9.545 -17.287l0.795 -1.396l7.466 -13.875l-0.589 -4.398l-0.991 -8.029l-2.51 -2.672l-14.378 -16.055l-11.148 -8.503l-28.176 12.803l3.811 2.414l0.992 4.194l3.754 2.724l1.753 4.118l-1.545 2.578l-3.261 1.232l-1.087 2.502l4.998 3.308l1.776 7.135l2.444 2.413l-0.326 2.423l-4.208 1.637l0.544 -3.393l-3.491 -3.514l-6.544 -3.142l-6.108 0.238l0.908 3.978l-3.313 3.394l-6.651 4.152l-1.189 2.834l-7.708 4.295l0.255 7.884z" />
  </g>
  <g data-id="091">
    <path d="m495.349 333.27l0.56 13.949l0.563 15.173l2.407 0.93l4.317 6.518l3.319 1.057l25.711 -2.528l12.652 -5.481l4.886 -7.484l2.228 2.253l6.198 -2.845l0.172 -35.719l-8.972 -4.437l-14.691 9.228l-2.795 4.183l-12.656 4.002l-7.046 -3.961l-14.256 2.141l-1.022 -0.012l-1.574 3.032z" />
  </g>
  <g data-id="093">
    <path d="m572.004 391.294l-2.153 7.697l2.64 3.978l5.219 2.041l4.893 8.214l-0.345 7.87l-1.766 2.379l29.128 8.413l27.097 7.847l1.061 1.36l1.808 -1.965l14.963 1.517l2.493 -0.563l10.354 2.435l3.451 -1.332l6.177 -15.854l2.453 -11.221l-3.358 0.774l-3.937 -3.245l-4.34 -1.008l1.794 -5.558l3.112 -2.901l-0.094 -7.582l4.71 -8.955l3.919 -2.017l-3.674 -5.265l-7.655 -1.049l-4.061 3.773l-3.513 -1.127l-2.132 2.829l-10.091 1.729l-5.056 1.965l-4 -4.217l-4.142 -5.581l-35.794 -14.197l-1.732 0.181l-23.822 10.262l-3.444 9.545l-0.162 8.826z" />
  </g>
  <g data-id="095">
    <path d="m310.566 311.025l-1.287 2.24l2.976 -1.526l2.536 1.544l3.133 -2.595l4.423 1.111l0.622 -1.082l-1.466 -2.363l3.784 2.057l2.578 0.228l0.861 1.494l0.513 5.323l1.772 10.071l1.339 13.812l2.704 2.591l1.424 -1.628l5.004 2.02l2.85 -2.701l1.067 -6.272l2.321 -4.042l4.349 3.688l1.275 -0.799l4.205 4.569l-0.205 7.884l-1.567 1.448l1.726 4.57l-0.973 3.534l12.04 -12.841l19.401 -13.636l4.176 -9.225l11.088 -0.726l2.076 -2.632l6.062 -1.933l-6.909 -5.179l-3.746 1.54l0.164 -2.876l-3.187 1.224l-5.071 -1.416l-2.382 -4.01l-2.308 -0.113l-1.376 -5.597l-8.901 -6.455l0.377 -2.727l-5.47 -3.754l-2.727 1.975l-0.817 -5.756l-3.351 -1.993l-0.54 -4.533l-1.175 -0.252l-6.875 5.727l-11.723 -7.013l-5.412 4.427l-1.671 1.741l-1.841 1.648l-1.211 1.583l-3.038 2.227l-2.314 1.946l-1.342 1.808l-2.445 2.237l-1.258 0.987l-1.026 1.16l-2.117 2.408l-2.074 1.777l-1.087 1.666l-3.144 3.338l-1.909 2.578l-2.761 5.498z" />
  </g>
  <g data-id="097">
    <path d="m455.777 481.827l-1.95 11.85l3.346 10.61l8.113 -0.779l4.577 3.54l2.501 8.498l7.753 -2.75l8.777 -12.725l19.1 -0.48l3.381 -0.059l5.628 -24.673l-2.164 -14.682l4.025 -5.589l-1.649 -2.463l2.493 -5.098l4.312 -3.779l-1.933 -0.848l4.202 -2.665l-0.465 -7.884l2.08 -1.265l-2.93 -3.095l0.915 -3.529l-2.542 -0.656l-12.397 0.063l-4.786 -8.844l-3.261 -4.175l-6.458 -2.871l-1.996 0.314l-3.595 -4.039l-4.385 3.135l-10.444 -0.797l-0.984 11.088l-1.194 5.564l-1.43 6.99l-3.351 4.404l1.782 5.831l1.176 1.239l-0.278 3.602l-5.496 4.13l2.005 0.797l-4.837 7.848l-1.112 5.26l-3.901 3.079l-2.629 15.9z" />
  </g>
  <g data-id="099">
    <path d="m0.354 648.953l-0.354 1.052l1.176 2.258l0.111 1.184l0.022 2.237l0.199 1.146l2.259 1.087l1.019 0.733l0.001 2.26l1.019 0.779l1.941 -0.161l1.312 0.891l1.325 1.683l1.183 0.514l0.536 2.793l0.224 1.907l2.023 2.208l1.693 0.378l1.246 2.013l1.693 0.526l0.376 1.996l0.925 1.171l0.014 1.098l0.717 1.5l0.766 1.48l-0.237 1.372l0.744 1.323l1.606 1.202l0.251 2.067l0.658 1.7l0.594 1.142l0.377 1.561l1.624 0.318l2.018 0.539l2.049 0.074l3.685 3.102l1.25 0.527l0.286 1.155l-1.079 1.864l-0.668 3.178l-0.493 1.498l-1.191 1.486l-1.396 0.991l-1.514 -0.341l-1.035 2.598l0.456 2.116l2.002 2.621l2.783 4.587l5.477 -1.044l1.83 1.054l1.314 2.662l2.158 1.095l0.436 2.716l0.336 1.142l-0.903 1.725l0.029 1.172l0.121 1.215l5.47 3.151l-1.888 -5.265l19.766 -20.777l3.142 -2.974l3.331 -4.529l11.571 -12.18l2.771 -0.915l2.345 -5.854l-2.615 -0.804l-0.758 -4.859l-5.365 -2.035l-1.12 -5.429l-4.284 -2.657l-0.932 -3.082l1.744 -3.692l-5.632 -2.881l2.85 -6.327l-1.249 -9.363l2.317 -1.279l0.317 -4.802l-2.22 0.242l-4.819 -3.113l-2.794 -7.26l2.173 -5l-0.616 -1.944l3.093 -2.292l2.875 0.057l-4.503 -6.313l-3.252 -0.803l-3.263 1.966l0.413 2.302l-2.896 2.045l-22.7 -17.925l-7.283 -6.009l-3.511 -2.945l-4.396 1.434l-2.207 0.41l-1.949 0.12l-2.206 -0.294l-1.767 -0.497l-1.585 -0.651l-2.249 -1.741l-1.101 -1.638l-0.53 1.07l-0.169 1.244l0.429 2.993l-0.569 1.6l-0.393 1.239l0.887 1.981l0.479 1.979l-0.741 2.006l-0.312 2.448l0.043 3.36l1.103 0.841l1.457 1.966l1.711 1.498l0.862 2.452l0.147 1.345l-1.297 2.108l-0.631 1.297l-0.277 1.286l0.678 2.729l0.561 1.918l0.419 3.527l-0.731 2.344l-0.719 1.607l-2.675 0.811l-1.88 -0.478l-1.63 2.899l0.384 2.408l0.937 1.454l1.096 0.567l0.302 4.636l-1.094 3.454l-1.44 4.156l-1.641 0.651l-1.224 -0.378l-2.761 -0.161z" />
  </g>
  <g data-id="101">
    <path d="m404.845 556.521l-5.585 5.994l5.648 15.087l1.979 5.481l-4.252 3.022l5.329 9.503l2.01 5.551l2.592 -3.26l0.686 2.169l35.098 23.618l15.525 10.726l1.599 -30.909l4.447 2.48l17.207 -13.646l12.504 -35.503l-5.149 -11.627l-14.369 -32.41l-7.753 2.75l-2.501 -8.498l-4.577 -3.54l-8.113 0.779l-10.595 0.188l-2.453 -3.207l-10.42 24.353l-28.858 30.9z" />
  </g>
  <g data-id="103">
    <path d="m346.753 272.497l-1.396 1.5l11.723 7.013l6.875 -5.727l1.175 0.252l0.54 4.533l3.351 1.993l0.817 5.756l2.727 -1.975l5.47 3.754l-0.377 2.727l8.901 6.455l1.376 5.597l2.308 0.113l2.382 4.01l5.071 1.416l3.187 -1.224l-0.164 2.876l3.746 -1.54l6.909 5.179l4.222 2.255l2.994 -2.528l7.831 5.861l5.258 -1.545l1.211 -6.209l3.772 -2.89l0.852 -3.397l3.676 -1.008l0.885 -4.446l-2.73 -2.991l-3.512 -12.826l3.631 -5.289l0.306 -3.669l5.635 0.441l0.324 -4.492l3.162 -1.993l-1.938 -2.444l2.142 -2.571l7.518 0.513l0.114 -11.382l-2.469 -9.829l-2.838 -0.907l-19.888 -0.056l-63.778 0.156l0.759 1.787l-0.436 2.213l-1.47 1.22l-1.139 0.42l-1.478 0.232l-1.973 1.302l-0.83 1.885l-0.176 2.11l0.222 4.151l-0.218 2.673l-0.641 1.508l-0.197 1.058l-0.05 1.035l-1.012 3.132l-0.885 1.681l-2.406 1.041l-2.85 -0.441l-2.309 -0.072l-1.669 0.344l-1.513 0.681z" />
  </g>
  <g data-id="105">
    <path d="m221.552 420.369l-5.665 6.038l10.002 5.417l0.538 7.283l-4.054 2.696l2.338 6.015l7.18 6.861l7.16 -2.5l3.901 -3.691l6.713 5.46l14.809 6.383l6.752 -3.09l6.189 -1.765l1.162 -5.604l22.382 -24.623l-3.492 -2.826l-9.153 0.141l-0.711 2.248l-4.47 -0.73l-0.678 -5.451l-3.989 -0.668l3.259 -3.563l-1.328 -9.19l-2.43 -0.129l-2.459 -6.548l-2.43 0.764l-5.979 -5.551l3.747 -1.772l-1.226 -2.561l3.815 -4.712l-21.015 12.459l-4.748 0.606l-26.119 22.602z" />
  </g>
  <g data-id="107">
    <path d="m180.484 386.024l0.317 2.37l1.956 6.039l0.214 1.696l-0.259 2.889l0.055 1.068l0.49 2.627l-0.162 2.669l-0.183 1.099l-0.325 1.125l33.3 18.801l5.665 -6.038l26.119 -22.602l4.748 -0.606l21.015 -12.459l-0.707 -4.482l8.563 -16.895l4.03 -0.314l-4.399 -6.311l-12.806 -1.618l0.031 -4.674l-4.884 -3.253l-3.212 2.089l-1.488 -5.58l-1.706 -0.005l-2.35 -1.768l-0.941 -1.769l-0.987 -3.589l-0.411 -2.021l-0.796 -2.936l-1.222 -1.715l-1.598 -1.514l-1.637 -1.313l-1.421 -0.815l-2.213 -0.499l-1.949 0.289l-2.355 1.445l-1.105 0.947l-1.972 2.758l-1.247 1.471l-2.872 2.845l-2.092 1.626l-2.196 1.429l-2.063 0.887l-1.599 1.407l-3.086 3.702l-0.426 2.1l-0.102 3.386l-0.995 6.298l-0.041 4.643l-0.426 1.443l-3.698 0.506l-1.949 -1.217l-1.663 -0.562l-1.027 -0.134l-1.114 0.185l-1.504 0.445l-4.441 -0.932l-2.631 -0.042l-2.852 0.365l-1.654 0.579l-1.075 0.739l-1.189 1.284l-1.4 2.362l-0.123 2.173l0.256 1.544l0.715 1.774l0.231 1.56l-0.717 1.581l-1.28 0.855l-2.177 0.424l-1.513 0.417l-1.074 0.296l-1.133 1.211l-0.692 1.576l-0.497 2.515l-1.163 1.748l-1.689 0.814l-1.198 1.444z" />
  </g>
  <g data-id="109">
    <path d="m160.176 805.26l-0.02 3.304l5.99 3.457l1.726 7.372l9.069 0.384l13.286 2.509l3.547 -2.166l0.413 -2.647l5.665 -1.895l5.381 2.944l1.899 -2.113l4.577 6.438l8.447 0.893l1.418 -0.558l5.245 4.097l1.937 -0.588l4.329 1.048l1.315 -1.825l6.021 -0.582l2.113 1.841l-1.186 1.681l3.646 3.932l1.278 1.445l6.809 -4.056l4.826 5.399l12.852 4.823l3.712 2.897l2.095 -1.692l-5.033 -10.149l5.861 -3.246l3.005 -5.824l3.515 -1.792l1.216 -1.145l3.715 -1.024l-6.29 -5.775l-1.7 1.402l-10.173 -6.446l0.254 -6.133l-2.313 -5.427l-15.189 -27.67l-5.566 -9.831l-6.921 -10.329l-3.777 0.873l-7.634 -2.672l-3.289 0.386l-7.18 5.669l-2.18 1.113l-6.295 -6.524l-6.193 2.852l-3.878 -0.565l-3.655 1.824l-3.797 -0.359l-2.762 2.723l-7.167 -0.18l-4.426 3.21l9.2 9.296l3.551 3.616l-2.135 0.596l-16.403 7.229l-2.01 2.668l1.502 7.436l-1.218 4.153l-5.418 4.439l-1.242 7.374l-4.365 1.895z" />
  </g>
</svg>
