<?xml version="1.0" encoding="UTF-8"?>
<!DOCTYPE svg PUBLIC '-//W3C//DTD SVG 1.1//EN' 'http://www.w3.org/Graphics/SVG/1.1/DTD/svg11.dtd'>
<svg viewBox="0 0 1000 1498.89" xmlns="http://www.w3.org/2000/svg">
  <g data-id="010">
    <path d="m869.364 1252.41l3.437 17.753l20.198 6.635l28.476 -2.055l1.145 -11.453l-29.778 -12.024l-23.479 1.144z" />
    <path d="m345.96 1485.48l9.271 13.41l44.419 -20.532l53.397 -4.331l20.042 14.315l81.908 -28.457l39.494 -1.319l25.77 24.051l8.194 -3.619l33.548 -23.982l47.283 -7.492l46.728 -11.883l53.094 -17.5l50.585 -15.617l56.909 -22.65l9.697 -19.694l35.205 -4.768l16.675 -2.244l20.607 -10.277l1.216 -11.734l-33.32 -9.881l-59.16 0.656l-79.614 -4.329l-45.585 4.101l-28.155 12.362l-56.874 -4.007l-46.109 -51.046l-60.128 -4.84l-52.111 10.88l-58.985 38.368l-66.427 -22.906l-32.069 17.753l-14.888 34.359l16.031 41.471l6.093 27.705l-42.74 63.679z" />
  </g>
  <g data-id="020">
    <path d="m554.143 155.029l-0.037 19.105l11.513 22.359l21.235 12.367l28.922 0.128l16.752 -12.334l45.436 3.594l22.185 13.956l36.614 19.914l6.345 -9.923l-3.518 -13.751l8.446 -22.358l-7.12 -19.659l-7.33 -19.859l24.242 2.416l29.157 14.013l13.33 3.945l5.1 -11.558l8.88 -0.502l3.907 -15.394l-25.786 -13.151l-7.683 3.773l-15.62 -10.239l-3.144 -10.599l-13.184 -6.497l-18.112 1.742l-17.546 -12.671l-11.898 1.206l-3.387 8.304l-23.349 -1.777l-1.687 -14.085l-25.753 -4.978l-9.134 4.192l-5.277 34.019l-23.839 -0.193l-37.578 3.008l-21.083 31.484z" />
    <path d="m465.737 95.301l0.037 33.302l17.904 -3.255l57.205 0l13.539 -24.784l0.761 -15.598l-23.554 -3.363l-49.634 14.3l-16.259 -0.602z" />
  </g>
  <g data-id="030">
    <path d="m347.678 278.332l-1.717 17.178l26.915 -2.862l24.623 2.29l-0.572 -20.043l-26.875 -3.301l-22.374 6.737z" />
    <path d="m323.301 18.228l5.586 18.788l13.643 15.945l16.599 -11.592l-7.637 -13.618l1.791 -15.132l-4.408 -8.885l-12.417 -3.734l-13.157 18.228z" />
    <path d="m146.677 218.775l4.009 18.899l22.334 1.145l5.154 -20.616l-14.89 -15.46l-16.607 16.033z" />
    <path d="m1.621 150.639l-1.621 7.397l15.266 -2.258l95.986 -9.82l10.127 0.522l18.964 -1.903l25.393 -10.48l30.171 24.437l20.846 13.239l15.408 7.882l6.922 22.559l7.673 16.258l9.499 -9.717l22.815 -13.136l14.306 -10.842l20.123 6.207l45.631 19.111l38.921 14.741l10.009 -3.354l52.747 -15.355l32.966 31.107l15.58 -2.67l-2.828 -29.903l-25.069 -30.346l-31.99 -25.891l-7.01 -7.093l4.208 -9.254l19.111 -3.475l-0.037 -33.302l-51.883 -1.921l-44.633 9.537l-36.468 -6.854l-53.771 -34.714l-22.833 14.981l-20.954 -15.688l-10.123 -23.056l-12.28 -12.755l-11.763 12.746l-5.979 20.501l-44.7 35.295l-33.411 11.377l-67.874 -40.36l-8.548 3.804l-21.248 66.944l-17.648 15.498z" />
  </g>
</svg>
