<?xml version="1.0" encoding="UTF-8"?><!DOCTYPE svg PUBLIC '-//W3C//DTD SVG 1.1//EN' 'http://www.w3.org/Graphics/SVG/1.1/DTD/svg11.dtd'><svg viewBox="0 0 1000 1498.89" xmlns="http://www.w3.org/2000/svg"><g data-id="78010"><path d="m869.4 1252.4l3.4 17.8l20.2 6.6l28.5 -2.1l1.1 -11.5l-29.8 -12l-23.5 1.1z"/><path d="m346 1485.5l9.3 13.4l44.4 -20.5l53.4 -4.3l20 14.3l81.9 -28.5l39.5 -1.3l25.8 24.1l8.2 -3.6l33.5 -24l47.3 -7.5l46.7 -11.9l53.1 -17.5l50.6 -15.6l56.9 -22.6l9.7 -19.7l35.2 -4.8l16.7 -2.2l20.6 -10.3l1.2 -11.7l-33.3 -9.9l-59.2 0.7l-79.6 -4.3l-45.6 4.1l-28.2 12.4l-56.9 -4l-46.1 -51l-60.1 -4.8l-52.1 10.9l-59 38.4l-66.4 -22.9l-32.1 17.8l-14.9 34.4l16 41.5l6.1 27.7l-42.7 63.7z"/></g><g data-id="78020"><path d="m554.1 155l0 19.1l11.5 22.4l21.2 12.4l28.9 0.1l16.8 -12.3l45.4 3.6l22.2 14l36.6 19.9l6.3 -9.9l-3.5 -13.8l8.4 -22.4l-7.1 -19.7l-7.3 -19.9l24.2 2.4l29.2 14l13.3 3.9l5.1 -11.6l8.9 -0.5l3.9 -15.4l-25.8 -13.2l-7.7 3.8l-15.6 -10.2l-3.1 -10.6l-13.2 -6.5l-18.1 1.7l-17.5 -12.7l-11.9 1.2l-3.4 8.3l-23.3 -1.8l-1.7 -14.1l-25.8 -5l-9.1 4.2l-5.3 34l-23.8 -0.2l-37.6 3l-21.1 31.5z"/><path d="m465.7 95.3l0 33.3l17.9 -3.3l57.2 0l13.5 -24.8l0.8 -15.6l-23.6 -3.4l-49.6 14.3l-16.3 -0.6z"/></g><g data-id="78030"><path d="m347.7 278.3l-1.7 17.2l26.9 -2.9l24.6 2.3l-0.6 -20l-26.9 -3.3l-22.4 6.7z"/><path d="m323.3 18.2l5.6 18.8l13.6 15.9l16.6 -11.6l-7.6 -13.6l1.8 -15.1l-4.4 -8.9l-12.4 -3.7l-13.2 18.2z"/><path d="m146.7 218.8l4 18.9l22.3 1.1l5.2 -20.6l-14.9 -15.5l-16.6 16z"/><path d="m1.6 150.6l-1.6 7.4l15.3 -2.3l96 -9.8l10.1 0.5l19 -1.9l25.4 -10.5l30.2 24.4l20.8 13.2l15.4 7.9l6.9 22.6l7.7 16.3l9.5 -9.7l22.8 -13.1l14.3 -10.8l20.1 6.2l45.6 19.1l38.9 14.7l10 -3.4l52.7 -15.4l33 31.1l15.6 -2.7l-2.8 -29.9l-25.1 -30.3l-32 -25.9l-7 -7.1l4.2 -9.3l19.1 -3.5l0 -33.3l-51.9 -1.9l-44.6 9.5l-36.5 -6.9l-53.8 -34.7l-22.8 15l-21 -15.7l-10.1 -23.1l-12.3 -12.8l-11.8 12.7l-6 20.5l-44.7 35.3l-33.4 11.4l-67.9 -40.4l-8.5 3.8l-21.2 66.9l-17.6 15.5z"/></g></svg>
