<?xml version="1.0" encoding="UTF-8"?>
<!DOCTYPE svg PUBLIC '-//W3C//DTD SVG 1.1//EN' 'http://www.w3.org/Graphics/SVG/1.1/DTD/svg11.dtd'>
<svg viewBox="0 0 1511.16 2265.06" xmlns="http://www.w3.org/2000/svg">
  <g data-id="010">
    <path d="m1313.7 1892.6l0 0l5.2 26.8l30.5 10l43 -3.1l1.7 -17.3l-45 -18.2l-35.5 1.7z" />
    <path d="m522.8 2244.8l0 0l14 20.3l67.1 -31l80.7 -6.5l30.3 21.6l123.8 -43l59.7 -2l38.9 36.3l12.4 -5.5l50.7 -36.2l71.5 -11.3l70.6 -18l80.2 -26.4l76.4 -23.6l86 -34.2l14.7 -29.8l53.2 -7.2l25.2 -3.4l31.1 -15.5l1.8 -17.7l-50.4 -14.9l-89.4 1l-120.3 -6.5l-68.9 6.2l-42.5 18.7l-85.9 -6.1l-69.7 -77.1l-90.9 -7.3l-78.7 16.4l-89.1 58l-100.4 -34.6l-48.5 26.8l-22.5 51.9l24.2 62.7l9.2 41.9l-64.6 96.2z" />
  </g>
  <g data-id="020">
    <path d="m837.4 234.3l0 0l-0.1 28.9l17.4 33.8l32.1 18.7l43.7 0.2l25.3 -18.6l68.7 5.4l33.5 21.1l55.3 30.1l9.6 -15l-5.3 -20.8l12.8 -33.8l-10.8 -29.7l-11.1 -30l36.6 3.7l44.1 21.2l20.1 6l7.7 -17.5l13.4 -0.8l5.9 -23.3l-39 -19.9l-11.6 5.7l-23.6 -15.5l-4.8 -16l-19.9 -9.8l-27.4 2.6l-26.5 -19.1l-18 1.8l-5.1 12.5l-35.3 -2.7l-2.5 -21.3l-38.9 -7.5l-13.8 6.3l-8 51.4l-36 -0.3l-56.8 4.5l-31.9 47.6z" />
    <path d="m703.8 144l0 0l0.1 50.3l27.1 -4.9l86.4 0l20.5 -37.5l1.2 -23.6l-35.6 -5.1l-75 21.6l-24.6 -0.9z" />
  </g>
  <g data-id="030">
    <path d="m525.4 420.6l0 0l-2.6 26l40.7 -4.3l37.2 3.5l-0.9 -30.3l-40.6 -5l-33.8 10.2z" />
    <path d="m488.6 27.5l0 0l8.4 28.4l20.6 24.1l25.1 -17.5l-11.5 -20.6l2.7 -22.9l-6.7 -13.4l-18.8 -5.6l-19.9 27.5z" />
    <path d="m221.7 330.6l0 0l6.1 28.6l33.7 1.7l7.8 -31.2l-22.5 -23.4l-25.1 24.2z" />
    <path d="m2.4 227.6l0 0l-2.4 11.2l23.1 -3.4l145.1 -14.8l15.3 0.8l28.7 -2.9l38.4 -15.8l45.6 36.9l31.5 20l23.3 11.9l10.5 34.1l11.6 24.6l14.4 -14.7l34.5 -19.9l21.6 -16.4l30.4 9.4l69 28.9l58.8 22.3l15.1 -5.1l79.7 -23.2l49.8 47l23.5 -4l-4.3 -45.2l-37.9 -45.9l-48.3 -39.1l-10.6 -10.7l6.4 -14l28.9 -5.3l-0.1 -50.3l-78.4 -2.9l-67.4 14.4l-55.1 -10.4l-81.3 -52.5l-34.5 22.6l-31.7 -23.7l-15.3 -34.8l-18.6 -19.3l-17.8 19.3l-9 31l-67.5 53.3l-50.5 17.2l-102.6 -61l-12.9 5.7l-32.1 101.2l-26.7 23.4z" />
  </g>
</svg>
