<?xml version="1.0" encoding="UTF-8"?>
<!DOCTYPE svg PUBLIC '-//W3C//DTD SVG 1.1//EN' 'http://www.w3.org/Graphics/SVG/1.1/DTD/svg11.dtd'>
<svg viewBox="0 0 1000 995.872" xmlns="http://www.w3.org/2000/svg">
  <g data-zip="10001">
    <path d="m446.299 392.774l0.58 2.403l2.574 -0.694l10.231 5.72l0.809 -1.474l5.32 3.832l9.693 5.315l1.972 -3.57l5.803 3.221l6.61 -11.972l-10.91 -6.079l0.792 -1.476l-5.104 -2.839l-0.812 1.474l-10.233 -5.701l-5.113 -2.853l2.581 -4.639l-5 -3.051l-4.953 9.018l-2.581 4.993l-2.258 8.371z" />
  </g>
  <g data-zip="10002">
    <path d="m465.707 478.818l2.309 11.614l3.962 -0.722l3.296 -3.343l0.456 3.241l5.837 -1.05l0.34 1.953l13.091 -1.608l6.219 -2.01l3.339 -5.313l4.139 -13.556l-2.449 -2.785l-5.828 -2.115l-18.752 -5.368l-7.134 -2.859l-2.577 9.061l-1.392 4.434l-2.253 5.287l-2.602 5.139z" />
  </g>
  <g data-zip="10003">
    <path d="m466.661 437.612l-4.737 0.87l11.629 7.548l2.437 3.508l-1.459 5.359l7.134 2.859l10.948 -20.029l4.863 -8.59l-12.555 -7.05l-0.841 -2.287l-0.764 1.393l-5.797 -3.223l-4.812 8.718l-6.046 10.924z" />
  </g>
  <g data-zip="10004">
    <path d="m464.566 508.62l2.592 1.539l2.81 -4.996l-1.864 -0.912l-3.537 4.369z" />
    <path d="m460.84 514.119l-1.5 3.115l4.099 1.874l2.275 -6.041l-3.595 -1.606l-0.988 2.052z" />
    <path d="m455.102 526.424l-0.897 2.01l3.865 1.846l0.841 -2.116l-3.809 -1.74z" />
    <path d="m453.43 530.171l-0.763 1.711l7.285 2.662l-2.287 -2.924l-4.235 -1.449z" />
    <path d="m450.356 537.06l-0.873 1.957l3.456 1.219l1.392 -1.698l1.489 -3.556l-3.917 -1.391l-1.548 3.469z" />
    <path d="m429.559 495.993l-1.944 3.598l3.34 8.39l5.41 4.143l2.26 -0.339l2.782 -0.417l-0.32 -1.869l2.951 -1.48l1.315 2.475l3.638 -2.944l-1.928 -2.69l-2.114 -5.231l-4.4 0.658l-1.866 -4.12l-1.344 2.129l-4.866 -1.922l-2.916 -0.38z" />
    <path d="m412.394 547.654l1.939 1.385l1.057 0.755l9.844 -3.852l6.849 -2.997l5.565 -1.71l1.713 -6.85l-5.093 -5.455l-8.177 -0.965l-10.701 12.84l-2.997 6.85z" />
    <path d="m376.709 533.291l-0.708 1.599l1.718 3.066l3.436 1.734l1.819 -2.933l9.803 -22.126l-2.527 -3.466l-1.111 -0.532l-1.516 1.333l-10.914 21.326z" />
  </g>
  <g data-zip="10005">
    <path d="m438.684 496.167l1.866 4.12l4.4 -0.658l2.114 5.231l5.934 -4.744l-1.142 0.38l-6.215 -5.69l-0.866 -4.642l-2.55 0.333l1.284 2.464l-0.67 1.005l-1.886 -1.449l-2.269 3.652z" />
  </g>
  <g data-zip="10006">
    <path d="m434.742 489.011l-2.267 7.363l4.866 1.922l1.344 -2.129l2.269 -3.652l0.724 -1.171l1.546 -2.397l-0.241 -5.415l-6.444 -3.761l-1.796 9.24z" />
  </g>
  <g data-zip="10007">
    <path d="m437.11 478.012l-0.573 1.758l6.444 3.761l0.241 5.415l2.498 -3.768l5.425 -1.849l1.317 -0.672l1.408 1.696l5.736 -3.032l0.785 -3.208l-2.99 -1.887l-1.763 2.854l-4.189 -3.037l1.597 -2.481l-3.09 -1.891l-3.045 5.106l-8.629 -5.197l-1.172 6.43z" />
  </g>
  <g data-zip="10009">
    <path d="m492.613 437.726l-10.948 20.029l18.752 5.368l5.828 2.115l2.449 2.785l4.032 -19.13l0.205 -6.153l-4.265 -7.27l-1.068 -0.537l-10.123 -5.797l-4.863 8.59z" />
  </g>
  <g data-zip="10010">
    <path d="m475.506 407.877l-3.539 6.418l5.552 3.675l5.797 3.223l0.764 -1.393l0.841 2.287l12.555 7.05l10.123 5.797l1.068 0.537l-1.381 -9.778l2.656 1.486l2.478 -17.1l-1.196 -0.609l-1.65 6.903l-4.78 -0.711l3.742 1.728l-2.75 4.521l-17.52 -9.684l0.807 -1.471l-5.794 -3.228l-5.803 -3.221l-1.972 3.57z" />
  </g>
  <g data-zip="10011">
    <path d="m438.953 408.775l5.453 2.303l2.03 1.008l0.899 -1.631l5.122 2.833l-0.909 1.657l5.12 2.833l5.345 14.599l-2.52 4.528l2.431 1.576l4.737 -0.87l6.046 -10.924l4.812 -8.718l-5.552 -3.675l3.539 -6.418l-9.693 -5.315l-5.32 -3.832l-0.809 1.474l-10.231 -5.72l-2.574 0.694l-0.58 -2.403l2.258 -8.371l2.581 -4.993l-4.057 4.995l-3.872 11.559l1.805 1.22l-0.825 6.473l-4.342 0.399l3.977 0.554l1.19 3.19l-6.06 0.975z" />
  </g>
  <g data-zip="10012">
    <path d="m454.494 449.872l-1.522 4.936l16.776 10.233l0.524 -1.806l1.682 0.722l2.577 -9.061l1.459 -5.359l-2.437 -3.508l-11.629 -7.548l-2.431 -1.576l-3.964 9.606l-1.036 3.36z" />
  </g>
  <g data-zip="10013">
    <path d="m431.996 461.695l6.399 0.996l-0.679 4.206l1.358 0.112l-0.791 4.574l8.629 5.197l3.045 -5.106l3.09 1.891l4.355 2.664l2.99 1.887l3.37 2.131l1.945 -1.428l2.602 -5.139l2.253 -5.287l1.392 -4.434l-1.682 -0.722l-0.524 1.806l-16.776 -10.233l1.522 -4.936l-3.269 -2.155l-7.344 -0.951l-2.903 7.821l-1.338 -0.159l-1.012 6.725l-6.631 0.542z" />
  </g>
  <g data-zip="10014">
    <path d="m432.885 451.838l-0.472 1.561l7.226 1.029l1.338 0.159l2.903 -7.821l7.344 0.951l3.269 2.155l1.036 -3.36l3.964 -9.606l2.52 -4.528l-5.345 -14.599l-5.12 -2.833l0.909 -1.657l-5.122 -2.833l-0.899 1.631l-2.03 -1.008l-5.403 -0.109l5.34 0.758l-0.537 3.703l-3.227 -0.183l-0.371 3.789l2.284 0.209l-0.331 5.146l-4.375 2.023l4.229 0.233l-0.753 10.869l-5.632 -0.133l5.475 2.522l-5.237 -0.582l-0.513 4.936l5.369 0.901l-0.348 4.249l-6.574 0.259l6.422 1.02l-0.301 1.958l-7.038 -0.808z" />
  </g>
  <g data-zip="10016">
    <path d="m483.281 407.527l5.794 3.228l-0.807 1.471l17.52 9.684l2.75 -4.521l-3.742 -1.728l4.78 0.711l1.65 -6.903l1.196 0.609l6.077 -10.122l-4.661 -0.694l-19.887 -11.064l-4.059 7.358l-6.61 11.972z" />
  </g>
  <g data-zip="10017">
    <path d="m495.632 385.145l-1.682 3.053l19.887 11.064l4.661 0.694l6.262 -10.617l-2.597 -5.138l-11.175 -6.229l-0.825 1.493l-0.821 1.491l-0.827 1.484l-2.655 0.461l-0.888 1.46l-2.291 -1.279l0.825 -1.486l2.096 -0.782l0.819 -1.486l0.825 -1.493l-5.792 -3.224l-0.83 1.493l-3.28 5.946l2.891 1.624l-0.812 1.472l-2.903 -1.602l-0.888 1.602z" />
  </g>
  <g data-zip="10018">
    <path d="m448.239 371.381l4.045 3.324l-2.14 4.001l5.947 -8.314l5 3.051l-2.581 4.639l5.113 2.853l10.233 5.701l0.812 -1.474l5.104 2.839l-0.792 1.476l10.91 6.079l4.059 -7.358l-5.801 -3.226l0.805 -1.481l-17.617 -9.986l-4.364 1.398l-3.267 -2.254l3.013 -1.522l-7.373 -6.161l-1.225 -0.571l-5.452 7.549l-4.43 -0.564z" />
  </g>
  <g data-zip="10019">
    <path d="m454.427 361.171l3.694 3.224l1.225 0.571l6.233 -8.372l4.479 0.561l2.977 3.6l21.781 12.112l0.819 -1.486l-5.122 -2.822l0.841 -1.515l5.109 2.841l3.559 1.983l3.072 -0.238l0.819 -1.479l-5.806 -3.236l0.821 -1.481l5.81 3.217l4.261 -7.706l0.81 -1.474l-15.157 -8.549l-1.29 0.342l0.097 -1.588l0 -1.177l-9.945 -3.619l-4.285 -4.345l-0.828 1.498l-5.171 -2.899l-1.129 -0.107l-4.454 -0.416l-1.895 2.835l3.805 2.264l-3.209 4.901l-4.56 -1.434l6.075 3.548l-1.131 1.945l-6.006 -3.263l5.034 4.076l-0.83 1.61l-5.968 -3.113l-0.828 1.31l6.179 3.522l-1.122 1.909l-6.131 -2.145l5.626 3.22l-1.284 1.717l-5.351 -3.027l2.732 4.256l-4.358 -1.572z" />
  </g>
  <g data-zip="10021">
    <path d="m534.578 371.348l-0.827 1.477l1.641 0.968l4.499 -5.281l-4.495 1.341l-0.818 1.496z" />
    <path d="m523.979 333.869l-5.931 10.768l23.919 13.314l2.793 3.443l2.343 -2.58l7.807 -11.787l-1.975 2.162l-5.022 -1.993l-3.226 -3.764l-14.095 -7.848l-6.615 -1.715z" />
  </g>
  <g data-zip="10022">
    <path d="m502.272 373.122l-0.818 1.488l5.792 3.224l2.916 1.631l0.825 -1.493l11.175 6.229l2.597 5.138l6.963 -9.546l3.67 -6.001l-1.641 -0.968l0.827 -1.477l-5.722 -5.133l-2.601 0.499l-15.613 -8.715l-0.832 1.472l2.889 1.643l-0.825 1.484l-2.874 -1.653l-4.261 7.706l-0.825 1.5l-0.819 1.479l-0.823 1.491z" />
  </g>
  <g data-zip="10023">
    <path d="m481.429 329.997l-2.197 10.538l4.285 4.345l9.945 3.619l0 1.177l14.455 -24.75l-6.294 -5.004l-6.307 -2.003l-1.913 -3.035l-4.189 -0.392l-2.21 6.848l-1.558 -0.821l-4.016 9.478z" />
  </g>
  <g data-zip="10024">
    <path d="m482.571 318.733l1.498 0.875l1.376 0.911l1.558 0.821l2.21 -6.848l4.189 0.392l1.913 3.035l6.307 2.003l6.294 5.004l12.71 -23.003l-18.158 -10.105l0.535 -3.785l4.573 -5.407l0.937 -4.806l6.237 -8.927l6.763 -13.957l1.113 -1.38l2.658 -4.638l0.729 -1.371l4.72 -9.078l0.22 -3.477l1.061 -2.151l-2.485 -1.399l-3.782 5.495l-15.726 29.522l-27.449 52.273z" />
  </g>
  <g data-zip="10025">
    <path d="m503.003 288.034l-0.535 3.785l18.158 10.105l12.558 -22.747l3.317 -5.983l-2.615 -1.435l2.518 -4.642l0.121 -5.924l2.478 -4.637l3.314 -5.991l-5.118 -2.855l1.291 2.817l-4.926 11.052l-3.93 -0.176l-5.115 -2.85l1.702 -3.086l-3.597 -1.908l-1.113 1.38l-6.763 13.957l-6.237 8.927l-0.937 4.806l-4.573 5.407z" />
  </g>
  <g data-zip="10026">
    <path d="m536.404 267.117l-2.518 4.642l2.615 1.435l16.164 8.667l4.967 -8.933l3.233 -5.865l-15.908 -9.163l-5.954 -1.344l-2.478 4.637l-0.121 5.924z" />
    <path d="m529.634 261.402l-0.841 1.482l3.883 2.127l0.441 -1.699l-3.483 -1.911z" />
  </g>
  <g data-zip="10027">
    <path d="m525.283 248.92l-2.658 4.638l3.597 1.908l-1.702 3.086l5.115 2.85l3.93 0.176l4.926 -11.052l-1.291 -2.817l5.118 2.855l-3.314 5.991l5.954 1.344l15.908 9.163l-2.637 -1.777l3.294 -5.982l4.558 -1.661l2.462 -4.447l-5.392 -3.978l2.873 -5.199l-1.266 0.057l-3.564 -0.809l-7.55 -6.094l4.681 -13.26l-3.611 -2.009l0.956 4.3l-3.93 5.662l-4.573 1.668l-13.929 -7.618l-5.354 4.545l1.644 0.983l2.485 1.399l-1.061 2.151l-0.22 3.477l-4.72 9.078l1.731 0.914l-0.755 1.366l-1.706 -0.909z" />
  </g>
  <g data-zip="10028">
    <path d="m533.393 316.821l-5.959 10.788l11.584 6.445l17.628 9.876l-0.886 1.648l5.7 -7.103l-2.505 -1.222l1.187 -4.728l-12.02 -5.387l-9.832 -5.48l0.89 -1.61l-5.787 -3.228z" />
  </g>
  <g data-zip="10029">
    <path d="m540.854 303.261l8.737 4.871l0.888 -1.603l11.186 6.201l-0.9 1.632l2.015 1.42l6.997 -6.339l7.371 -14.149l8.162 -6.725l-2.82 -3.906l-4.949 -0.647l-19.908 -11.089l-4.967 8.933l-11.811 21.4z" />
  </g>
  <g data-zip="10030">
    <path d="m558.324 223.911l-4.681 13.26l7.55 6.094l3.564 0.809l1.266 -0.057l-1.214 -2.61l2.921 -0.462l6.617 -11.989l1.718 -3.08l-10.248 -5.709l-0.89 1.602l-1.972 -1.104l1.048 -1.504l-3.299 -1.837l-2.381 6.588z" />
  </g>
  <g data-zip="10031">
    <path d="m536.838 220.268l-3.6 5.648l13.929 7.618l4.573 -1.668l3.93 -5.662l-0.956 -4.3l3.611 2.009l2.381 -6.588l3.299 1.837l6.62 -11.986l1.189 -3.382l-2.844 -1.585l-1.641 3.094l-15.553 -8.602l0.67 -3.059l-1.688 -0.819l-6.395 13.506l-4.502 1.664l-5.976 10.177l2.954 2.099z" />
  </g>
  <g data-zip="10032">
    <path d="m550.758 192.822l1.688 0.819l-0.67 3.059l15.553 8.602l1.641 -3.094l-0.255 -3.161l4.274 -6.539l5.145 -11.448l-0.989 -4.79l1.724 -3.997l-7.535 -4.097l-2.496 -3.259l-7.611 0.681l-0.747 1.912l3.053 -11.418l-6.876 -1.676l0.548 6.633l-0.202 2.012l1.376 5.352l-3.011 7.456l-4.607 16.954z" />
  </g>
  <g data-zip="10033">
    <path d="m560.478 167.51l0.747 -1.912l7.611 -0.681l2.496 3.259l7.535 4.097l4.792 -8.613l4.875 1.876l11.323 -21.224l1.542 -2.155l-1.273 -0.631l-0.038 -7.108l-3.339 -6.518l-4.286 8.296l4.376 3.496l-6.23 11.379l-19.561 -10.11l-6.82 11.755l-0.699 3.374l-3.053 11.418z" />
  </g>
  <g data-zip="10034">
    <path d="m563.325 149.582l-6.671 4.833l6.876 1.676l0.699 -3.374l6.82 -11.755l6.874 -9.899l2.507 -6.332l1.914 -0.038l-0.508 7.435l3.078 1.169l3.51 -11.802l7.851 -4.887l1.117 2.312l-4.025 2l3.382 6.98l3.339 6.518l0.038 7.108l1.273 0.631l1.913 -4.667l-1.61 -4.753l4.319 1.745l4.414 -7.625l3.869 -3.563l6.867 -12.386l1.072 -8.876l-1.572 -2.063l-6.132 -2.589l-7.13 -0.679l-3.939 -2.036l2.014 4.19l-1.733 1.801l-2.835 -2.267l0.083 -6.245l-1.327 -1.682l-5.918 -0.788l-5.304 5.447l-5.709 12.966l0.099 5.475l-9.587 18.582l-9.927 17.437z" />
  </g>
  <g data-zip="10035">
    <path d="m577.357 308.051l0.139 6.306l14.979 5.161l7.753 -5.989l1.172 -4.531l6.626 -9.339l5.92 -5.992l2.448 -6.463l-2.458 -5.091l-9.313 -6.255l-2.732 -4.989l-6.691 -1.113l-3.595 9.44l1.145 6.633l-2.35 7.001l3.842 2.258l-8.524 0.611l-8.36 12.353z" />
    <path d="m560.865 267.062l-3.233 5.865l19.908 11.089l4.949 0.647l2.82 3.906l3.31 -4.227l0.584 -11.874l-3.613 -9.227l-4.108 -5.994l-3.062 1.371l-3.253 -3.676l-5.806 -3.231l-0.819 1.485l-2.462 4.447l-4.558 1.661l-3.294 5.982l2.637 1.777z" />
  </g>
  <g data-zip="10036">
    <path d="m465.579 356.594l-6.233 8.372l7.373 6.161l-3.013 1.522l3.267 2.254l4.364 -1.398l17.617 9.986l-0.805 1.481l5.801 3.226l1.682 -3.053l-5.817 -3.236l0.89 -1.602l5.815 3.236l0.825 -1.493l3.28 -5.946l-5.808 -3.236l-21.781 -12.112l-2.977 -3.6l-4.479 -0.561z" />
  </g>
  <g data-zip="10037">
    <path d="m566.023 244.018l-2.873 5.199l5.392 3.978l0.819 -1.485l5.806 3.231l3.253 3.676l3.062 -1.371l-1.893 -4.93l0.791 -11.577l0.014 -12.61l-0.928 1.747l0.133 2.006l-5.253 -2.927l-6.617 11.989l-2.921 0.462l1.214 2.61z" />
  </g>
  <g data-zip="10038">
    <path d="m443.223 488.947l-0.998 1.549l2.55 -0.333l0.866 4.642l6.215 5.69l1.142 -0.38l-5.934 4.744l1.928 2.69l4.923 -3.985l-0.902 -2.816l9.68 -7.564l1.788 -1.095l11.247 -2.483l-0.456 -3.241l-3.296 3.343l-3.962 0.722l-2.309 -11.614l-1.945 1.428l-3.37 -2.131l-0.785 3.208l-5.736 3.032l-1.408 -1.696l-1.317 0.672l-5.425 1.849l-2.498 3.768z" />
  </g>
  <g data-zip="10039">
    <path d="m564.004 219.161l-1.048 1.504l1.972 1.104l0.89 -1.602l10.248 5.709l-1.718 3.08l5.253 2.927l-0.133 -2.006l0.928 -1.747l-2.194 -34.566l0.605 -3.837l0.546 -1.019l9.183 -23.173l-4.875 -1.876l-4.792 8.613l-1.724 3.997l0.989 4.79l-5.145 11.448l-4.274 6.539l-0.067 2.982l3.166 1.764l-1.189 3.382l-6.62 11.986z" />
  </g>
  <g data-zip="10040">
    <path d="m577.924 131.064l-6.874 9.899l19.561 10.11l6.23 -11.379l-4.376 -3.496l4.286 -8.296l-3.382 -6.98l4.025 -2l-1.117 -2.312l-7.851 4.887l-3.51 11.802l-3.078 -1.169l0.508 -7.435l-1.914 0.038l-2.507 6.332z" />
  </g>
  <g data-zip="10044">
    <path d="m530.391 393.842l8.4 -7.46l7.881 -9.867l17.462 -26.596l4.13 -4.335l0.866 -6.281l-3.724 1.719l-21.066 30.157l-3.033 5.022l-5.322 7.872l-3.12 4.515l-2.475 5.254z" />
  </g>
  <g data-zip="10065">
    <path d="m518.049 344.637l-7.406 13.362l15.613 8.715l2.601 -0.499l5.722 5.133l0.818 -1.496l4.495 -1.341l7.213 -9.697l-2.343 2.58l-2.793 -3.443l-23.919 -13.314z" />
  </g>
  <g data-zip="10069">
    <path d="m472.064 338.426l-3.593 -2.1l3.633 2.702l1.129 0.107l5.171 2.899l0.828 -1.498l2.197 -10.538l4.016 -9.478l-1.376 -0.911l-8.002 3.47l5.027 -0.245l-9.03 15.592z" />
  </g>
  <g data-zip="10075">
    <path d="m527.434 327.609l-3.454 6.26l6.615 1.715l14.095 7.848l3.226 3.764l0.828 -1.503l2.633 1.436l0.868 -1.465l2.255 1.287l1.26 -1.372l0.886 -1.648l-17.628 -9.876l-11.584 -6.445z" />
  </g>
  <g data-zip="10128">
    <path d="m570.157 323.93l0.524 1.567l1.063 -1.991l-0.371 -1.563l2.71 -2.202l-1.392 -0.599l-1.311 1.127l-1.223 3.66z" />
    <path d="m533.393 316.821l5.787 3.228l-0.89 1.61l9.832 5.48l12.02 5.387l-1.187 4.728l2.505 1.222l3.564 -6.414l-2.66 -13.2l0.416 -3.08l-2.015 -1.42l0.9 -1.632l-11.186 -6.201l-0.888 1.603l-8.737 -4.871l-7.461 13.56z" />
  </g>
  <g data-zip="10280">
    <path d="m426.118 495.832l1.496 3.759l1.944 -3.598l2.916 0.38l2.267 -7.363l1.796 -9.24l-4.499 -2.611l-1.824 2.906l1.484 1.041l-3.966 2.15l-1.614 12.576z" />
  </g>
  <g data-zip="10282">
    <path d="m430.839 465.649l-0.625 14.416l1.824 -2.906l4.499 2.611l0.573 -1.758l1.172 -6.43l0.791 -4.574l-1.358 -0.112l-6.876 -1.248z" />
  </g>
  <g data-zip="10301">
    <path d="m292.666 719.275l-1.983 1.45l3.047 1.753l3.006 -0.505l-2.473 -2.266l-1.489 -0.728z" />
    <path d="m247.964 693.249l-2.275 4.784l3.123 9.254l5.819 -0.546l1.5 15.258l4.672 2.747l2.449 0.757l-1.335 10.047l-7.588 9.002l3.328 4.749l6.64 -1.798l-3.996 -0.403l-2.059 -4.754l10.098 -2.956l5.615 2.892l2.444 -0.825l1.43 -4.068l7.071 -2.052l2.831 -3.395l1.733 -4.93l-3.616 1.139l-0.519 -3.445l-3.049 -4.546l2.235 -0.883l3.002 -6.712l0.263 3.758l4.992 2.655l1.891 -4.745l-3.292 -4.124l1.259 -3.654l6.847 3.291l2.972 -0.467l0.946 -6.022l-3.229 -1.813l1.342 -1.718l0.319 -6.76l-0.765 -9.273l3.782 -6.004l-2.258 -1.811l4.193 -6.82l2.939 -1.948l3.249 2.644l6.412 -8.067l-2.041 8.677l4.36 -0.745l-0.868 2.777l3.58 1.374l1.421 -5.211l-1.221 -4.198l2.006 -0.657l-0.611 -3.728l4.499 -0.449l-0.9 -8.684l4.811 -0.875l-4.349 -6.382l-1.602 -1.049l-1.174 0.071l-4.101 -4.728l-4.93 -2.786l-12.806 -0.796l-1.476 0.369l-25.511 6.385l-5.879 1.471l-3.266 2.121l2.026 12.681l1.722 4.075l2.401 -0.406l1.093 6.384l-6.222 0.885l1.765 14.599l2.673 10.396l-5.952 4.658l-5.751 2.624l-5.932 -5.586l-6.597 -3.761l-2.583 2.055z" />
  </g>
  <g data-zip="10302">
    <path d="m188.266 708.074l6.521 -9.071l2.385 2.482l2.948 0.152l-0.575 3.977l-2.874 0.017l-0.782 3.483l10.271 1.312l0.475 -7.716l-0.587 -4.397l9.036 0.268l0.483 -4.634l4.292 3.142l3.157 -1.502l0.632 2.662l2.698 -0.278l-0.362 -4.091l-2.601 -0.396l5.466 -12.422l-2.864 -5.75l3.901 -5.584l2.801 -8.394l-0.133 -7.051l-4.17 -2.613l-23.489 3.13l-1.399 0.186l-3.757 12.87l-0.875 7.101l3.784 -0.968l-3.842 2.257l0.427 7.214l-1.228 7.017l-2.783 6.782l-6.957 10.817z" />
  </g>
  <g data-zip="10303">
    <path d="m106.417 673.029l3.658 3.137l3.856 0.028l1.039 5.081l3.22 -0.157l1.882 -4.222l2.183 3.87l5.012 0.847l1.095 2.743l1.869 -1.908l10.999 7.703l2.417 3.061l-0.585 7.175l-3.272 12.283l-3.314 8.043l2.55 -3.281l4.929 -10.031l3.467 -4.152l9.918 -3.946l1.331 0.565l5.911 3.177l1.145 -5.431l22.561 1.706l3.471 -3.775l1.524 -5.484l4.724 0.413l1.228 -7.017l-0.427 -7.214l3.842 -2.257l-3.784 0.968l0.875 -7.101l3.757 -12.87l-10.383 1.383l-1.995 4.105l-4.976 -3.005l-2.878 3.301l-0.305 -4.113l-28.253 -7.17l-6.848 -6.733l-2.634 -0.186l-0.56 3.734l-1.731 -0.546l-2.341 2.295l-1.531 -0.681l0.331 -5.523l-2.703 -0.24l-3.993 1.943l-7.946 3.867l-4.135 2.012l-4.837 5.692l-8.378 10.54l7.09 4.799l-6.32 4.274l-1.752 -1.706z" />
  </g>
  <g data-zip="10304">
    <path d="m244.779 777.569l-5.291 7.38l7.137 8.528l1.549 7.863l1.439 1.034l3.723 -2.075l2.705 -4.446l11.058 -9.123l12.423 -13.817l-2.154 3.41l6.458 3.878l16.648 -16.609l2.73 -4.514l4.052 -12.135l6.914 -11.979l3.989 -6.929l8.792 -18.61l5.832 -6.397l1.776 -3.756l-5.832 -8.464l0.101 -4.952l1.084 -7.392l8.527 3.369l-8.528 -3.969l-0.81 -14.906l2.937 -0.335l-3.343 -2.646l1.806 -0.453l-4.499 0.449l0.611 3.728l-2.006 0.657l1.221 4.198l-1.421 5.211l-3.58 -1.374l0.868 -2.777l-4.36 0.745l2.041 -8.677l-6.412 8.067l-3.249 -2.644l-2.939 1.948l-4.193 6.82l2.258 1.811l-3.782 6.004l0.765 9.273l-0.319 6.76l-1.342 1.718l3.229 1.813l-0.946 6.022l-2.972 0.467l-6.847 -3.291l-1.259 3.654l3.292 4.124l-1.891 4.745l-4.992 -2.655l-0.263 -3.758l-3.002 6.712l-2.235 0.883l3.049 4.546l0.519 3.445l3.616 -1.139l-1.733 4.93l-2.831 3.395l-7.071 2.052l-1.43 4.068l-2.444 0.825l-5.615 -2.892l-10.098 2.956l2.059 4.754l3.996 0.403l-6.64 1.798l3.099 4.571l-0.014 2.73l-3.496 2.263l-1.909 -1.267l-3.901 4.843l-6.658 15.129z" />
  </g>
  <g data-zip="10305">
    <path d="m283.827 780.202l-6.273 5.979l7.669 6.569l2.79 -2.914l7.505 5.108l-2.595 4.366l8.049 4.515l-1.592 2.255l7.305 4.882l-5.338 4.173l-6.882 9.792l3.104 4.374l40.846 -41.973l16.209 -22.293l2.329 -5.15l8.584 -18.987l-6.777 -10.288l-6.226 -9.452l-3.433 -7.399l-3.549 -7.648l-3.572 -0.915l-5.124 -4.681l-8.023 -14.655l-0.101 4.952l5.832 8.464l-1.776 3.756l-5.832 6.397l-8.792 18.61l-3.989 6.929l-6.914 11.979l-4.052 12.135l-2.73 4.514l-16.648 16.609z" />
  </g>
  <g data-zip="10306">
    <path d="m155.341 818.68l0.403 10.517l6.606 -1.321l2.037 3.414l-0.326 9.751l-1.623 2.759l1.716 0.405l2.093 -0.486l12.486 -5.886l3.984 -6.496l5.284 -5.493l15.442 17.422l6.233 4.407l-10.586 11.366l3.31 1.436l5.691 -3.785l3.681 3.323l1.331 -1.041l5.77 6.227l7.382 -7.495l5.688 -6.822l14.228 12.117l2.43 0.415l-0.099 3.261l3.751 3.013l1.875 -0.517l3.88 4.996l6.667 -10.521l4.789 -3.418l2.153 1.378l2.479 -3.086l7.885 -9.817l10.406 -12.955l5.181 -6.451l-3.104 -4.374l6.882 -9.792l5.338 -4.173l-7.305 -4.882l1.592 -2.255l-8.049 -4.515l2.595 -4.366l-7.505 -5.108l-2.79 2.914l-7.669 -6.569l6.273 -5.979l-6.458 -3.878l2.154 -3.41l-12.423 13.817l-11.058 9.123l-2.705 4.446l-3.723 2.075l-1.439 -1.034l-1.549 -7.863l-7.137 -8.528l5.291 -7.38l6.658 -15.129l3.901 -4.843l1.909 1.267l3.496 -2.263l0.014 -2.73l-3.099 -4.571l-3.328 -4.749l-3.553 0.574l0.366 6.72l-5.019 1.665l-0.267 -8.2l-1.837 0.017l-0.317 2.699l-3.37 2.972l-6.559 14.146l-0.18 6.475l-2.586 3.055l0.07 4.715l-2.377 2.746l-0.58 6.201l-2.338 1.501l-5.039 -2.86l-0.756 -4.862l-8.513 -6.453l-12.908 1.081l-0.879 5.915l-11.177 12.931l-4.034 3.237l-27.135 19.853z" />
  </g>
  <g data-zip="10307">
    <path d="m59.204 966.133l0.043 8.371l2.574 6.427l3.557 -0.453l16.256 -15.715l1.424 -2.932l-0.837 -2.987l-4.339 2.473l-18.678 4.816z" />
    <path d="m0 967.923l1.154 5.668l1.547 7.596l7.924 13.263l6.303 1.421l24.22 -12.306l1.378 -0.176l7.798 -0.994l-8.423 -34.452l-2.417 -2.324l-1.183 -5.207l-13.678 -1.917l2.055 2.895l-8.763 1.238l-2.423 2.276l-1.846 1.734l-7.548 7.09l-6.098 14.194z" />
  </g>
  <g data-zip="10308">
    <path d="m166.247 843.72l-2.093 0.486l2.786 16.107l2.338 10.031l1.671 -0.251l0.713 4.309l-2.412 3.465l4.938 -3.356l0.321 4.97l13.338 17.843l3.692 1.021l4.504 3.514l3.717 0.073l5.405 -3.642l1.252 -11.757l3.197 -4.496l7.233 -5.266l-2.383 -1.41l-2.945 -3.572l2.287 -2.614l5.066 -3.975l-5.77 -6.227l-1.331 1.041l-3.681 -3.323l-5.691 3.785l-3.31 -1.436l10.586 -11.366l-6.233 -4.407l-15.442 -17.422l-5.284 5.493l-3.984 6.496l-12.486 5.886z" />
  </g>
  <g data-zip="10309">
    <path d="m14.912 883.828l4.648 12.206l1.856 4.873l4.438 11.651l-0.206 2.436l-1.825 21.535l0.799 1.969l13.678 1.917l1.183 5.207l2.417 2.324l8.423 34.452l3.333 -0.425l8.163 -1.041l-2.574 -6.427l-0.043 -8.371l18.678 -4.816l4.339 -2.473l0.837 2.987l4.774 -3.383l11.026 -2.442l2.463 2.743l10.988 -7.244l0.837 -5.854l-7.692 -15.279l-3.424 -5.021l8.027 -10.814l-1.99 1.244l-2.521 -5.945l-9.736 1.68l-0.366 -1.827l8.126 -4.735l-8.054 -23.215l-5.54 1.742l-8.674 -27.288l-3.996 0.512l3.177 -1.906l11.265 -4.039l-2.246 -1.79l-10.062 1.619l-2.148 -3.017l-5.986 7.622l-0.903 1.149l-21.621 -0.119l-33.869 27.601z" />
  </g>
  <g data-zip="10310">
    <path d="m223.384 693.484l2.601 0.396l7.78 -0.812l3.195 1.917l4.452 -2.741l4.277 5.787l2.275 -4.784l2.583 -2.055l6.597 3.761l5.932 5.586l5.751 -2.624l5.952 -4.658l-2.673 -10.396l-1.765 -14.599l6.222 -0.885l-1.093 -6.384l-2.401 0.406l-1.722 -4.075l-2.026 -12.681l3.266 -2.121l-27.83 6.965l-0.851 2.386l-5.556 2.359l-5.796 0.05l0.133 7.051l-2.801 8.394l-3.901 5.584l2.864 5.75l-5.466 12.422z" />
  </g>
  <g data-zip="10312">
    <path d="m80.483 854.8l-3.177 1.906l3.996 -0.512l8.674 27.288l5.54 -1.742l8.054 23.215l-8.126 4.735l0.366 1.827l9.736 -1.68l2.521 5.945l1.99 -1.244l-8.027 10.814l3.424 5.021l7.692 15.279l-0.837 5.854l20.84 -13.741l7.512 2.443l2.52 -1.391l28.326 -15.637l1.618 -1.348l18.319 -15.258l1.966 -1.638l6.549 -1.354l-0.197 -1.648l-3.717 -0.073l-4.504 -3.514l-3.692 -1.021l-13.338 -17.843l-0.321 -4.97l-4.938 3.356l2.412 -3.465l-0.713 -4.309l-1.671 0.251l-2.338 -10.031l-2.786 -16.107l-1.716 -0.405l1.623 -2.759l0.998 -9.023l-2.709 -4.142l-6.617 1.809l-1.707 -1.434l-8.546 -0.088l-4.146 -9.178l-2.57 -2.257l-8.513 -4.531l-5.599 -8.164l-8.843 2.087l-11.123 -5.3l2.098 6.893l4.859 19.243l1.142 2.831l-11.604 12.66l-4.459 3.556l-7.22 2.968l2.246 1.79l-11.265 4.039z" />
  </g>
  <g data-zip="10314">
    <path d="m77.291 847.573l2.148 3.017l10.062 -1.619l7.22 -2.968l4.459 -3.556l11.604 -12.66l-1.142 -2.831l-4.859 -19.243l-2.098 -6.893l11.123 5.3l8.843 -2.087l5.599 8.164l8.513 4.531l2.57 2.257l4.146 9.178l8.546 0.088l1.718 0.946l-0.403 -10.517l27.135 -19.853l4.034 -3.237l11.177 -12.931l0.879 -5.915l12.908 -1.081l8.513 6.453l0.756 4.862l5.039 2.86l2.338 -1.501l0.58 -6.201l2.377 -2.746l-0.07 -4.715l2.586 -3.055l0.18 -6.475l6.559 -14.146l3.37 -2.972l0.317 -2.699l1.837 -0.017l0.267 8.2l5.019 -1.665l-0.366 -6.72l3.553 -0.574l7.588 -9.002l1.335 -10.047l-2.449 -0.757l-4.672 -2.747l-1.5 -15.258l-5.819 0.546l-3.123 -9.254l-4.277 -5.787l-4.452 2.741l-3.195 -1.917l-7.78 0.812l0.362 4.091l-2.698 0.278l-0.632 -2.662l-3.157 1.502l-4.292 -3.142l-0.483 4.634l-9.036 -0.268l0.587 4.397l-0.475 7.716l-10.271 -1.312l0.782 -3.483l2.874 -0.017l0.575 -3.977l-2.948 -0.152l-2.385 -2.482l-6.521 9.071l6.957 -10.817l2.783 -6.782l-4.724 -0.413l-1.524 5.484l-3.471 3.775l-22.561 -1.706l-1.145 5.431l-5.911 -3.177l-1.331 -0.565l-9.918 3.946l-3.467 4.152l-4.929 10.031l-2.55 3.281l3.314 -8.043l3.272 -12.283l0.585 -7.175l-2.417 -3.061l-10.999 -7.703l-1.869 1.908l-1.095 -2.743l-5.012 -0.847l-2.183 -3.87l-1.882 4.222l-3.22 0.157l-1.039 -5.081l-3.856 -0.028l-3.116 -2.176l1.21 0.745l6.32 -4.274l-7.09 -4.799l-4.309 5.421l-3.121 3.925l-1.649 21.063l-0.569 7.272l1.473 6.171l8.821 1.749l1.241 34.074l-2.545 11.312l-13.028 18.265l-0.513 2.813l-3.475 19.041l-0.26 1.426l-1.895 10.382l-2.23 12.219l-3.932 21.539l-4.115 5.24z" />
  </g>
  <g data-zip="10451">
    <path d="m581.771 207.508l1.318 20.594l-0.133 12.736l-0.304 11.648l1.385 3.284l9.65 -8.64l7.843 -5.292l3.132 -2.137l2.001 -6.166l3.202 1.092l-2.592 -2.87l2.669 -7.877l9.47 3.548l0.484 -1.119l3.191 -0.862l1.118 -4.331l1.419 -3.877l-4.684 -1.861l-0.872 -3.758l0.18 -3.168l-6.523 2.887l-8.798 -3.699l2.264 -5.32l-2.732 -1.381l-3.977 9.666l-10.963 -5.55l-3.962 2.026l-3.787 0.426z" />
  </g>
  <g data-zip="10452">
    <path d="m581.051 195.54l0.72 11.968l3.787 -0.426l3.962 -2.026l10.963 5.55l3.977 -9.666l2.579 -5.177l7.652 -10.538l2.959 -5.468l2.179 -8.22l1.412 -4.276l-7.42 -2.143l-3.411 1.298l-0.475 -2.205l-6.525 -0.419l-2.955 4.647l-3.69 -0.583l-6.168 -1.617l-2.421 7.406l-6.309 15.954l-0.816 5.939z" />
  </g>
  <g data-zip="10453">
    <path d="m590.596 166.241l6.168 1.617l3.69 0.583l2.955 -4.647l6.525 0.419l0.475 2.205l3.411 -1.298l7.42 2.143l6.584 -6.526l12.081 -19.627l1.495 -3.269l-8.859 -3.031l-3.476 -1.622l-1.756 -0.557l-3.651 -1.253l-2.033 -1.222l-2.394 1.088l-1.848 1.36l-5.178 1.986l-1.905 6.596l-3.733 -3.476l-8.31 16.636l-7.663 11.895z" />
  </g>
  <g data-zip="10454">
    <path d="m584.037 255.77l8.196 12.653l7.615 0.316l2.521 2.327l3.172 4.982l11.233 6.107l3.987 0.238l6.502 -6.131l8.135 -12.914l1.416 0.604l1.09 -1.356l-0.724 -2.208l-1.25 -8.159l-8.726 6.191l5.174 -4.209l-9.736 -2.651l-0.589 1.989l-8.077 -3.85l1.268 -2.913l-8.632 -4.94l-1.534 1.982l-3.546 -1.992l-7.843 5.292l-9.65 8.64z" />
  </g>
  <g data-zip="10455">
    <path d="m604.662 239.701l-3.132 2.137l3.546 1.992l1.534 -1.982l8.632 4.94l-1.268 2.913l8.077 3.85l0.589 -1.989l9.736 2.651l-5.174 4.209l8.726 -6.191l10.43 -9.875l3.186 -5.547l-8.276 -6.544l-3.753 0.214l-1.59 -3.622l-4.184 5.002l-9.068 -4.812l-2.777 -0.735l-0.484 1.119l-9.47 -3.548l-2.669 7.877l2.592 2.87l-3.202 -1.092l-2.001 6.166z" />
  </g>
  <g data-zip="10456">
    <path d="m607.039 195.764l-2.579 5.177l2.732 1.381l-2.264 5.32l8.798 3.699l6.523 -2.887l-0.18 3.168l0.872 3.758l4.684 1.861l-2.057 3.603l-0.48 4.605l-3.191 0.862l2.777 0.735l9.068 4.812l4.184 -5.002l0.58 -1.847l1.225 -3.896l2.606 -8.34l1.34 -4.144l1.72 -9.678l4.454 -4.187l-1.075 -1.983l-7.647 -2.749l1.162 -2.604l-9.747 -4.554l0.67 -3.188l-4.274 6.346l-2.662 0.288l-0.764 -3.933l-2.716 2.007l-3.146 -4.637l-2.959 5.468l-7.652 10.538z" />
  </g>
  <g data-zip="10457">
    <path d="m619.83 171.538l-2.179 8.22l3.146 4.637l2.716 -2.007l0.764 3.933l0.987 -3.14l-1.147 -11.115l8.189 1.214l-0.562 4.952l-0.531 1.455l-0.67 3.188l9.747 4.554l7.074 -16.445l0.832 -7.521l5.048 0.614l-3.589 8.347l5.76 4.392l13.268 -19.663l1.769 -5.214l-7.586 1.195l1.444 -3.55l-13.59 -8.196l-2.217 0.795l-7.099 -4.343l-1.495 3.269l-12.081 19.627l-6.584 6.526l-1.412 4.276z" />
  </g>
  <g data-zip="10458">
    <path d="m643.414 133.352l-2.012 4.489l7.099 4.343l2.217 -0.795l13.59 8.196l-1.444 3.55l7.586 -1.195l1.958 -5.122l1.918 0.719l1.938 -8.52l5.716 3.681l-6.239 -5.069l-0.027 -9.004l-5.333 -9.29l7.2 -7.342l-3.411 -9.705l-1.29 0.526l-4.164 -14.984l-4.674 13.567l-0.854 1.434l-6.999 6.216l-4.753 8.202l-4.848 8.414l-3.177 7.689z" />
  </g>
  <g data-zip="10459">
    <path d="m636.505 225.008l-0.58 1.847l1.59 3.622l3.753 -0.214l8.276 6.544l8.962 -11.418l4.47 -3.848l1.009 -0.659l5.401 -1.031l-0.216 -6.371l1.754 -7.833l-0.038 -1.364l6.475 -12.304l-4.032 -1.864l-4.537 7.431l-0.897 4.403l-14.208 -6.977l-1.851 -3.713l-0.063 4.025l-3.923 -0.521l-4.454 4.187l-1.72 9.678l-1.34 4.144l-2.606 8.34l-1.225 3.896z" />
  </g>
  <g data-zip="10460">
    <path d="m646.774 192.782l1.075 1.983l3.923 0.521l0.063 -4.025l1.851 3.713l14.208 6.977l0.897 -4.403l4.537 -7.431l4.032 1.864l1.317 0.609l4.169 -4.078l14.235 1.55l4.011 1.545l6.957 1.281l-1.102 -8.489l-2.401 -4.537l1.711 -0.652l-0.949 -2.483l-1.264 -3.281l-5.136 -5.654l-4.306 -1.343l-2.538 4.619l0.304 -1.845l-5.297 6.473l-6.448 -2.628l5.18 -13.547l0.11 -6.867l2.116 -4.233l-4.544 -1.357l-1.506 -4.365l-5.716 -3.681l-1.938 8.52l-1.918 -0.719l-1.958 5.122l-1.769 5.214l-13.268 19.663l6.264 4.504l0.996 -1.676l2.774 1.388l-1.244 2.723l-6.916 3.378l-5.073 0.678l-5.439 4.97z" />
  </g>
  <g data-zip="10461">
    <path d="m710.124 136.5l-0.232 2.857l16.068 27.357l3.362 2.826l-7.346 2.693l3.377 1.202l0.783 3.328l12.598 11.424l4.814 2.48l5.77 -1.028l0.131 1.814l-7.656 8.479l-0.376 1.761l3.847 -1.59l5.308 -5.444l0.016 -5.27l-0.506 -5.968l0.432 -6.197l1.878 0.545l-0.216 13.128l3.694 -1.673l1.943 4.644l5.531 -3.294l5.416 1.954l1.579 2.773l-5.075 5.199l9.295 -6.953l0.312 -7.232l-0.722 -14.129l1.911 0.7l0.402 -8.106l-3.519 -10.678l1.358 -11.886l-3.989 -12.775l-6.521 10.006l-1.408 -0.493l-0.564 1.922l-4.385 -0.612l-2.334 -2.084l-11.663 -2.412l-10.831 -1.019l-13.199 1.426l-9.28 0.324z" />
  </g>
  <g data-zip="10462">
    <path d="m692.368 169.221l-0.304 1.845l2.538 -4.619l3.831 1.043l5.611 5.954l1.264 3.281l0.949 2.483l-1.711 0.652l2.401 4.537l1.102 8.489l-6.957 -1.281l7.357 4.323l4.297 -0.257l27.159 11.106l2.41 0.038l1.99 -0.452l0.96 -6.26l-3.847 1.59l0.376 -1.761l7.656 -8.479l-0.131 -1.814l-5.77 1.028l-4.814 -2.48l-12.598 -11.424l-0.783 -3.328l-3.377 -1.202l7.346 -2.693l-3.362 -2.826l-16.068 -27.357l0.232 -2.857l-11.872 0.407l-1.7 2.774l-2.1 0.538l-2.287 5.496l1.037 9.845l-0.834 13.661z" />
  </g>
  <g data-zip="10463">
    <path d="m596.332 86.103l4.272 0.869l5.032 5.245l8.299 2.372l8.407 3.608l3.471 5.688l-0.514 8.895l4.461 -12.749l-2.291 10.31l-1.23 4.096l2.91 -3.275l4.917 -3.141l2.012 -2.663l0.346 -6.969l1.828 -5.433l2.673 -1.86l-0.429 5.585l3.636 2.287l1.992 5.468l10.662 -17.918l5.961 -9.257l2.035 0.098l-0.144 -3.678l-15.602 -3.39l-7.438 -1.801l-4.551 -1.708l-0.886 -4.553l-4.78 -2.454l-1.351 6.251l-5.045 -4.615l-6.916 -0.574l-6.195 -3.664l-0.618 10.449l4.879 1.255l-3.708 3.59l-4.906 -1.675l0.117 -3.133l-4.07 -0.96l-7.236 19.4z" />
  </g>
  <g data-zip="10464">
    <path d="m872.452 143.812l-1.534 7.698l2.692 4.248l-1.72 6.813l4.182 5.651l4.358 -0.481l-3.936 -7.826l1.231 -6.745l1.238 -6.781l3.169 -2.303l1.847 -1.342l-6.5 -7.096l-3.035 -4.736l-3.405 1.412l1.414 11.489z" />
    <path d="m834.999 138.836l-0.031 2.885l5.33 10.478l-2.759 11.519l5.084 10.751l5.082 9.598l2.759 2.878l2.323 -1.919l2.469 -3.071l-1.887 -8.256l0.29 -5.373l-0.11 -4.926l-0.036 -1.602l-4.28 -9.726l-5.494 -5.628l-2.134 -11.141l-1.439 -2.23l-5.167 5.761z" />
    <path d="m779.453 100.504l3.654 9.591l8.872 7.076l-0.74 3.706l2.995 -1.667l-0.027 5.208l2.267 -2.317l5.181 3.134l5.849 9.274l0.255 -3.729l1.677 -1.41l1.788 -0.605l1.945 0.095l-0.775 6.298l-0.836 8.194l3.184 7.468l3.559 8.345l2.375 0.629l3.983 -8.957l-0.322 -5.436l7.822 -5.491l0.621 -6.251l3.211 -3.936l2.04 0.041l-4.214 -6.53l3.425 -12.841l9.417 -1.284l4.708 -5.566l-0.741 -4.574l-2.902 4.036l-0.771 -3.78l-3.397 1.52l4.328 -8.663l-2.026 -5.993l-5.077 0.407l-1.493 -4.993l-5.443 4.026l-2.575 4.49l1.959 1.16l-1.054 6.388l-2.165 4.799l-4.994 0.433l-7.795 15.588l-1.347 -3.327l-3.101 0.929l-0.205 -3.949l-3.249 -1.16l-3.787 -5.973l6.021 5.709l4.499 -0.124l0.76 -3.715l2.869 -2.167l3.541 -7.393l1.785 0.426l3.424 -6.464l4.322 -14.016l1.369 -1.224l-37.235 -12.59l-2.788 -0.722l-0.447 5.584l-7.108 2.213l-1.02 8.59l-6.069 21.49z" />
  </g>
  <g data-zip="10465">
    <path d="m744.305 206.363l0.256 1.421l7.244 14.444l-0.148 5.743l-2.692 5.562l0.441 1.975l-0.803 10.751l4.398 13.437l6.276 2.881l4.801 0.181l0.726 -4.499l-0.841 -4.837l4.194 -5.249l5.805 -0.302l10.586 -4.707l6.494 -1.223l12.335 1.387l11.182 10.922l4.222 -0.99l6.511 5.644l3.683 0.883l4.254 4.485l4.639 -0.074l1.172 -1.673l-1.191 -5.203l-11.469 -4.505l-6.261 -2.023l-3.114 -0.34l-4.268 -4.626l-1.208 -6.63l-2.824 -3.493l4.439 2.663l3.55 6.863l9.52 -7.834l-5.668 -5.863l-7.274 -1.154l-5.84 -16.857l-1.275 -0.552l-5.934 3.38l-1.365 -0.109l-1.255 1.449l-1.054 -3.785l-0.654 -1.021l0.562 -2.285l1.318 -1.504l-3.749 -8.535l-0.07 -1.022l-0.594 -8.627l1.688 -9.372l-1.87 -7.987l-5.088 -4.109l8.975 0.901l-1.603 -1.514l-2.282 -10.595l-8.663 0.843l-8.056 5.704l-0.402 8.106l-1.911 -0.7l0.722 14.129l-0.312 7.232l-9.295 6.953l5.075 -5.199l-1.579 -2.773l-5.416 -1.954l-5.531 3.294l-1.943 -4.644l-3.694 1.673l0.216 -13.128l-1.878 -0.545l-0.432 6.197l0.506 5.968l-0.016 5.27l-5.308 5.444l-0.052 5.874z" />
  </g>
  <g data-zip="10466">
    <path d="m710.9 49.133l-7.24 18.533l12.09 4.619l5.36 1.746l14.671 7.816l7.678 2.253l0.98 1.334l2.631 -2.125l4.564 -2.261l9.904 -7.334l14.401 -5.886l2.694 -2.42l7.263 -5.656l-6.348 -2.366l-0.569 3.197l-26.739 -10.016l-2.321 -7.92l0.855 -4.98l-2.574 -4.62l-1.326 -6.577l-5.972 -0.021l-0.047 -1.308l-1.794 -0.153l-2.379 7.306l-4.511 -3.133l-6.995 11.747l-3.516 -1.813l-1.538 2.978l0.083 -3.722l-5.518 -2.74l-6.514 12.352l2.728 1.17z" />
  </g>
  <g data-zip="10467">
    <path d="m650.711 66.975l-1.675 3.318l15.602 3.39l0.144 3.678l1.857 5.557l0.504 3.79l1.574 1.122l4.164 14.984l1.29 -0.526l3.411 9.705l6.426 -5.363l6.734 -11.073l2.898 -7.946l1.434 0.469l1.309 0.779l-1.606 6.302l-0.448 9.122l0.18 19.622l-1.118 14.038l2.763 -0.831l2.1 -0.205l11.872 -0.407l0.528 -23.335l-1.709 -4.382l1.923 -4.082l0.439 -7.481l9.805 -23.189l-5.36 -1.746l-12.09 -4.619l7.24 -18.533l-2.728 -1.17l-1.232 -0.531l-0.227 2.506l-6.847 14.642l-3.105 11.563l-3.078 7.306l-6.973 0.436l0.211 -3.544l-6.215 -1.408l0.375 -12.049l-4.086 -11.714l0.348 -7.817l-0.882 -3.319l2.221 -6.538l1.913 -15.336l-12.989 -4.752l-1.302 -0.093l-0.695 2.266l0.62 10.716l-0.317 5.84l2.48 3.171l0.537 6.445l-5.349 15.041l-12.864 6.18z" />
  </g>
  <g data-zip="10468">
    <path d="m606.569 137.71l3.733 3.476l1.905 -6.596l5.178 -1.986l1.848 -1.36l2.394 -1.088l2.033 1.222l3.651 1.253l1.756 0.557l3.476 1.622l8.859 3.031l2.012 -4.489l3.177 -7.689l4.848 -8.414l4.753 -8.202l6.999 -6.216l0.854 -1.434l4.674 -13.567l-1.574 -1.122l-0.504 -3.79l-1.857 -5.557l-2.035 -0.098l-5.961 9.257l-10.662 17.918l-1.992 -5.468l-3.636 -2.287l0.429 -5.585l-2.673 1.86l-1.828 5.433l-0.346 6.969l-2.012 2.663l-4.917 3.141l-2.91 3.275l1.23 -4.096l2.743 -10.184l-4.913 12.623l0.656 -9.167l-2.301 8.36l-8.169 13.72l-8.915 12.016z" />
  </g>
  <g data-zip="10469">
    <path d="m708.942 108.783l1.709 4.382l-0.528 23.335l9.28 -0.324l13.199 -1.426l10.831 1.019l11.663 2.412l2.334 2.084l4.385 0.612l0.564 -1.922l0.538 1.314l7.391 -10.827l-2.201 -2.92l-6.422 -14.639l-3.654 -16.038l-6.401 -14.797l-4.564 2.261l-2.631 2.125l-0.98 -1.334l-7.678 -2.253l-14.671 -7.816l-9.805 23.189l-0.439 7.481l-1.923 4.082z" />
    <path d="m690.907 134.952l1.257 10.763l2.287 -5.496l2.1 -0.538l1.7 -2.774l-2.1 0.205l-2.763 0.831l1.118 -14.038l-0.18 -19.622l0.448 -9.122l1.606 -6.302l-1.309 -0.779l-1.351 5.081l-2.276 13.466l-0.146 6.095l1.136 9.978l-1.529 12.252z" />
  </g>
  <g data-zip="10470">
    <path d="m676.458 44.034l0.882 3.319l-0.348 7.817l4.086 11.714l-0.375 12.049l6.215 1.408l-0.211 3.544l6.973 -0.436l3.078 -7.306l3.105 -11.563l6.847 -14.642l0.227 -2.506l1.232 0.531l6.514 -12.352l5.518 2.74l-0.083 3.722l1.538 -2.978l3.516 1.813l6.995 -11.747l4.511 3.133l2.379 -7.306l1.794 0.153l-1.066 -2.025l-8.834 -4.256l-5.949 -0.231l4.331 -6.062l-2.801 0.262l-3.968 4.008l1.399 3.665l-3.998 1.222l-1.796 2.738l0.22 5.097l-1.986 1.909l-2.345 -0.241l0.529 4.048l-9.651 -3.131l-5.776 -2.836l-17.972 -7.003l-2.515 15.191l-2.221 6.538z" />
  </g>
  <g data-zip="10471">
    <path d="m605.721 57.55l-2.152 9.153l4.07 0.96l-0.117 3.133l4.906 1.675l3.708 -3.59l-4.879 -1.255l0.618 -10.449l6.195 3.664l6.916 0.574l5.045 4.615l1.351 -6.251l4.78 2.454l0.886 4.553l4.551 1.708l7.438 1.801l1.675 -3.318l12.864 -6.18l5.349 -15.041l-0.537 -6.445l-2.48 -3.171l0.317 -5.84l-0.62 -10.716l0.695 -2.266l-18.928 -7.883l-1.115 -0.789l-23.886 -8.644l-1.931 2.986l-4.873 23.33l-1.495 2.654l-5.45 21.475l-2.901 7.104z" />
  </g>
  <g data-zip="10472">
    <path d="m669.169 213.48l0.216 6.371l67.379 -11.972l3.141 -1.102l-27.159 -11.106l-4.297 0.257l-7.357 -4.323l-4.011 -1.545l-14.235 -1.55l-4.169 4.078l-1.317 -0.609l-6.475 12.304l0.038 1.364l-1.754 7.833z" />
  </g>
  <g data-zip="10473">
    <path d="m669.386 219.851l6.96 10.714l5.462 4.479l11.553 4.638l6.55 9.49l8.955 0.845l3.615 1.911l2.61 -1.085l1.815 10.805l6.689 2.313l7.449 -0.131l4.562 -1.525l-1.518 -4.754l-3.245 -3.205l1.943 -5.906l-0.272 -3.229l-6.012 -4.25l6.851 2.487l3.681 5.571l2.473 -3.008l2.059 -6.834l4.117 -8.986l3.308 -3.132l0.247 -3.065l-4.677 -16.208l-0.256 -1.421l-1.99 0.452l-2.41 -0.038l-3.141 1.102l-67.379 11.972z" />
  </g>
  <g data-zip="10474">
    <path d="m635.929 252.229l1.25 8.159l0.724 2.208l-0.072 -2.375l6.475 -0.683l7.107 -2.199l11.404 5.415l4.591 6.129l3.546 0.559l9.34 -1.958l-0.007 3.926l8.888 1.168l3.123 -1.72l6.408 -12.701l-6.963 -16.35l-13.248 -6.254l-6.403 -7.532l-2.556 -7.325l-5.55 0.184l-1.009 0.659l-4.47 3.848l-8.962 11.418l-3.186 5.547l-10.43 9.875z" />
  </g>
  <g data-zip="10475">
    <path d="m751.633 81.048l6.401 14.797l3.654 16.038l6.422 14.639l2.201 2.92l3.989 12.775l-1.358 11.886l2.554 11.316l9.021 -6.342l8.663 -0.843l-0.17 -2.082l-0.691 -3.079l-0.88 -5.867l-3.596 -7.837l6.81 -3.791l-0.004 -6.587l-5.666 0.129l-4.973 2.384l3.528 -5.718l2.251 -2.634l1.45 -2.277l0.74 -3.706l-8.872 -7.076l-3.654 -9.591l6.069 -21.49l0.202 -8.228l7.926 -2.575l0.447 -5.584l-8.202 -2.875l-7.263 5.656l-2.694 2.42l-14.401 5.886l-9.904 7.334z" />
  </g>
  <g data-zip="11004">
    <path d="m961.679 381.039l-1.475 2.568l3.009 3.935l-0.998 3.212l3.476 4.165l5.977 18.352l5.147 13.014l8.086 -2.294l1.372 4.899l0.25 -5.36l13.212 -3.713l-1.228 -4.331l1.491 -0.423l-0.427 -5.168l-2.431 0.73l-2.457 -8.731l-1.282 -10.805l-6.053 4.255l-4.029 -3.328l8.693 -9.935l-4.6 -3.438l-8.904 10.233l-2.278 -6.429l-2.48 -2.525l-4.218 0.785l-6.728 -2.565l-1.127 2.898z" />
  </g>
  <g data-zip="11101">
    <path d="m528.532 419.491l0.256 5.303l9.758 -5.621l5.679 -0.604l2.462 0.459l9.862 4.069l8.827 4.369l3.323 5.902l1.185 4.059l3.845 3.974l5.583 2.369l9.666 2.686l-0.081 -1.212l-4.567 -2.436l-10.412 -10.788l10.457 -7.283l10.41 2.662l0.117 -1.36l-3.361 -0.758l3.905 -25.755l8.409 1.286l0.946 -6.221l18.777 -5.061l-1.088 -3.148l-3.816 -0.815l-5.228 -1.16l-1.859 -0.238l0.778 -1.277l-11.503 -7.128l-7.292 11.871l-18.91 -13.794l-11.337 -5.759l1.498 -3.177l-4.04 -2.104l-11.031 18.213l-0.949 1.652l-9.86 13.542l3.67 1.859l-2.529 9.922l-4.05 -1.055l-4.785 3.725l-2.712 8.833z" />
  </g>
  <g data-zip="11102">
    <path d="m573.128 336.145l0.706 3.767l4.52 1.841l-0.488 5.241l24.038 14.153l9.801 -14.639l3.476 -0.452l0.357 -3.812l-12.989 -12.105l-0.864 -3.192l7.269 -7.851l-3.6 -3.28l-7.688 8.405l-7.872 5.965l-2.298 0.882l-3.541 -3.972l-4.62 -0.478l-3.544 2.787l-2.662 6.738z" />
  </g>
  <g data-zip="11103">
    <path d="m603.257 369.707l-2.397 6.056l11.503 7.128l-0.778 1.277l1.859 0.238l5.228 1.16l1.931 -2.979l-2.004 -3.362l3.471 -5.583l2.66 0.602l3.449 -5.267l1.408 -4.347l1.799 1.122l1.369 -2.982l-0.89 -1.893l3.121 -5.143l1.144 -1.802l1.534 -1.924l-3.894 -0.269l-12.166 -3.139l-6.066 -6.357l-0.357 3.812l-3.476 0.452l-9.801 14.639l5.248 3.258l-3.896 5.302z" />
  </g>
  <g data-zip="11104">
    <path d="m591.54 425.281l3.361 0.758l3.236 1.174l1.679 -11.057l11.081 -5.588l3.49 -0.288l-1.111 -3.972l1.572 -10.284l8.166 0.958l0.466 -1.391l0.095 -6.062l-18.777 5.061l-0.946 6.221l-8.409 -1.286l-3.905 25.755z" />
  </g>
  <g data-zip="11105">
    <path d="m601.685 326.948l0.864 3.192l12.989 12.105l6.066 6.357l12.166 3.139l3.894 0.269l2.46 0.49l0.589 -3.798l11.939 -12.885l1.142 0.849l2.105 -6.864l-1.122 -1.546l2.39 -2.754l-2.421 -2.352l1.581 -3.061l-3.825 -3.622l-4.092 -1.965l-4.708 2.828l-4.717 0.335l-1.736 3.767l1.922 -5.801l4.393 -0.162l5.077 -6.822l-7.652 -7.89l-17.434 -4.708l-4.936 3.732l-7.624 9.955l-0.609 2.374l-5.032 3.706l3.6 3.28l-7.269 7.851z" />
  </g>
  <g data-zip="11106">
    <path d="m560.779 362.8l4.04 2.104l-1.498 3.177l11.337 5.759l18.91 13.794l7.292 -11.871l2.397 -6.056l3.896 -5.302l-5.248 -3.258l-24.038 -14.153l0.488 -5.241l-0.661 2.961l-10.786 8.482l-6.129 9.604z" />
  </g>
  <g data-zip="11109">
    <path d="m530.764 410.532l5.266 -3.599l4.05 1.055l2.529 -9.922l-3.67 -1.859l-1.603 2.503l-2.507 3.937l-4.065 7.885z" />
  </g>
  <g data-zip="11201">
    <path d="m445.577 544.521l0.983 1.89l6.539 -1.629l3.854 1.34l1.756 -4.783l12.573 5.458l7.953 5.068l6.167 -12.087l3.905 2.005l4.306 -4.175l2.846 -1.375l13.153 0.663l-1.313 -8.705l-11.317 -3.316l-0.729 -8.464l0.576 -11.443l1.785 -6.429l-13.747 1.444l-10.547 -0.91l-3.199 2.913l-1.153 3.179l-2.81 4.996l-1.444 2.908l-2.275 6.041l-2.678 5.005l-1.85 4.05l-0.841 2.116l-0.405 1.34l2.287 2.924l-2.276 1.131l-1.855 -0.691l-1.489 3.556l-1.392 1.698l-5.018 2.28l-2.345 2.005z" />
  </g>
  <g data-zip="11203">
    <path d="m555.446 606.531l0.742 9.164l0.189 2.001l1.225 15.416l-1.779 0.145l0.735 8.994l0.991 12.214l6.948 -0.57l0.267 3.273l8.538 -0.698l0.45 5.549l3.431 -0.278l0.445 5.39l1.738 -0.142l3.89 -0.323l1.18 -1.016l9.902 -6.579l4.962 -4.123l2.017 -2.765l1.077 -1.476l3.386 -2.464l-1.702 0.126l-1.716 -0.318l-0.205 -1.367l1.567 -1.462l1.657 -1.683l-1.135 -14.242l-2.152 -8.824l-9.77 -9.764l-0.097 -1.902l-1.689 -1.992l-6.057 -6.123l-0.092 -1.902l-15.168 1.273l-5.043 0.413l0.393 5.311l-9.122 0.743z" />
  </g>
  <g data-zip="11204">
    <path d="m466.101 702.856l-6.374 8.062l12.348 9.825l10.793 9.722l1.297 1.969l23.816 -3.456l1.868 -0.266l-4.146 -28.705l-2.973 -1.635l1.561 0.078l-0.279 -10.457l-0.618 -3.792l-4.704 -4.281l3.496 -3.154l-1.632 1.009l-3.579 -4.917l2.105 -2.663l-4.429 -3.51l-20.023 25.347l-8.528 10.825z" />
  </g>
  <g data-zip="11205">
    <path d="m496.828 504.966l-0.576 11.443l0.729 8.464l11.317 3.316l1.313 8.705l0.791 5.242l0.992 -5.147l2.471 4.617l10.723 -1.634l-0.681 -3.458l8.816 -1.34l0.517 3.48l4.92 -0.739l0.256 1.731l10.244 -3.09l-0.659 -4.359l-2.81 -18.542l-6.574 1.024l-7.26 1.539l-3.22 0.682l-5.286 0.957l-13.57 -0.729l-0.511 -5.908l-3.525 2.903l-0.594 -6.459l1.016 -2.554l-1.527 1.981l-5.527 -8.555l-1.785 6.429z" />
  </g>
  <g data-zip="11206">
    <path d="m537.831 510.29l0.787 4.39l6.574 -1.024l2.81 18.542l10.847 -2.77l0.261 1.739l10.213 -1.544l5 -2.539l5.513 0.943l-1.194 -8.034l8.168 -4.256l4.439 -2.509l-2.23 -1.675l2.606 -3.497l-6.424 -4.777l-2.057 -9.446l-4.511 -13.362l-6.336 2.017l1.151 3.189l-4.742 1.568l-0.196 -1.654l-6.06 0.753l-13.198 -0.133l1.583 13.029l-7.573 4.1l1.135 1.345l-6.565 5.604z" />
  </g>
  <g data-zip="11207">
    <path d="m625.366 527.909l-12.955 17.417l21.612 16.273l1.045 0.767l-2.201 2.266l2.185 5.785l5.507 27.784l-0.439 7.643l3.339 7.55l1.448 8.56l1.34 0.468l3.049 1.251l3.923 5.085l3.642 -3.395l2.471 2.913l14.013 -7.976l6.802 12.275l4.032 -3.252l-6.368 -11.551l6.53 -3.708l-4.911 -10.47l-7.11 -15.412l-6.705 -36.387l-3.036 1.883l-2.55 -3.938l-5.252 1.876l-3.02 -4.477l-4.175 6.916l-8.364 -13.017l1.327 -0.727l-2.968 -9.061l-2.745 3.777l-9.466 -7.116z" />
  </g>
  <g data-zip="11208">
    <path d="m660.028 549.739l2.55 3.938l3.036 -1.883l6.705 36.387l7.11 15.412l4.911 10.47l-6.53 3.708l6.368 11.551l-4.032 3.252l4.2 7.387l2.183 2.658l2.716 -4.097l1.725 3.487l4.218 2.796l3.272 10.284l4.29 -0.377l8.065 -6.259l8.886 -2.471l0.315 -2.295l-2.939 -5.426l2.509 -7.086l-5.796 -9.942l-1.311 -1.318l-4.841 -8.589l5.063 -3.25l4.944 -1.123l-1.468 -7.916l4.944 -0.983l-3.508 -18.494l-4.964 0.919l-1.673 -8.909l-1.851 -9.841l-1.806 -0.444l-1.354 -7.174l-3.951 -1.938l-4.362 -27.155l-0.36 -1.254l-9.192 2.278l-9.788 7.031l-7.782 8l-1.333 2.784l-9.167 5.883z" />
  </g>
  <g data-zip="11209">
    <path d="m384.828 690.672l4.461 24.81l0.621 3.456l5.773 7.167l9.006 11.178l6.91 1.962l1.39 0.325l9.805 2.289l3.169 1.321l7.334 -9.79l-2.738 -1.929l-2.466 1.774l-5.608 -2.185l-3.782 5.254l-2.158 -1.11l1.104 -1.713l-3.802 -2.932l2.743 -3.883l3.577 -11.672l-4.461 -2.202l-2.536 6l-1.578 0.166l3.28 -7.412l10.849 -14.559l6.586 -20.996l-17.994 -11.173l-19.377 -8.639l-2.77 5.475l-0.779 3.08l-1.453 5.745l-5.108 20.191z" />
  </g>
  <g data-zip="11210">
    <path d="m536.132 663.429l0.364 2.463l1.855 -0.275l1.446 10.012l-1.682 1.599l2.161 2.01l3.438 31.921l2.905 12.278l3.37 -0.505l2.521 -6.598l0.337 2.32l1.556 -1.383l-0.162 -1.186l3.19 -1.549l-0.755 -5.248l1.668 -0.244l0.594 4.131l1.639 -1.62l8.71 -12.143l-0.495 -3.462l8.384 -2.249l-2.33 -3.944l4.657 0.804l1.567 -1.922l-0.355 -5l-1.747 0.145l-0.452 -5.555l1.751 -0.142l-0.452 -5.555l-1.747 0.15l1.299 -5.691l-1.738 0.142l-0.445 -5.39l-3.431 0.278l-0.45 -5.549l-8.538 0.698l-0.267 -3.273l-6.948 0.57l-5.176 0.418l0.27 3.275l-7.865 0.299l-1.212 -1.645l-2.563 3.536l-4.87 3.081z" />
  </g>
  <g data-zip="11211">
    <path d="m504.651 507.665l0.594 6.459l3.525 -2.903l0.511 5.908l13.57 0.729l5.286 -0.957l3.22 -0.682l7.26 -1.539l-0.787 -4.39l6.565 -5.604l-1.135 -1.345l7.573 -4.1l-1.583 -13.029l13.198 0.133l6.06 -0.753l0.196 1.654l4.742 -1.568l-1.151 -3.189l6.336 -2.017l21.776 -7.378l-2.646 -8.417l-6.521 -15.385l-2.264 -2.838l2.255 6.269l-14.017 4.893l0.987 3.142l-2.635 1.003l2.192 6.478l-3.652 -0.981l-5.52 2.01l-0.376 -2.657l-17.066 2.153l-1.046 -8.091l-1.801 -4.232l-5.597 6.856l-2.312 -1.892l2.273 -2.526l-1.626 -3.524l-3.409 -2.742l-0.261 1.899l-7.013 -1.552l0.122 2.555l-1.985 2.683l-8.884 14.854l-2.651 9.538l-1.605 7.536l0.591 3.982l-1.27 0.717l-4.938 -4.388l3.622 5.329l-0.117 2.556l-5.974 -5.486l3.387 4.734l-3.793 0.242l6.377 5.317l-2.3 -0.297l6.41 5.431l-6.372 -4.077l-1.743 2.271l4.538 5.504l-4.261 -3.668l1.394 3.511l-3.452 -2.392l-1.941 3.882l1.509 -4.856l-2.363 -0.774z" />
  </g>
  <g data-zip="11212">
    <path d="m584.386 598.791l0.092 1.902l6.057 6.123l1.689 1.992l0.097 1.902l9.77 9.764l1.389 -1.173l6.176 1.434l14.138 0.002l3.368 -0.655l8.434 -1.69l7.442 -4.917l-2.918 -7.633l0.439 -7.643l-5.507 -27.784l-20.528 11.811l-9.313 3.315l2.993 0.321l-7.872 4.521l-2.946 1.693l-3.586 2.066l-3.897 2.234l-3.856 2.265l-1.661 0.15z" />
  </g>
  <g data-zip="11213">
    <path d="m555.19 586.381l-0.448 6.28l9.976 0.715l-0.303 4.233l4.803 2.455l15.168 -1.273l1.661 -0.15l3.856 -2.265l3.897 -2.234l3.586 -2.066l-2.071 -5.005l0.978 -14.824l-9.835 -2.569l2.52 -8.214l-9.533 -0.682l-5.488 -0.394l-6.864 -0.494l-1.225 9.224l-4.836 0.594l-4.529 -1.788l-1.156 16.271l-0.157 2.187z" />
  </g>
  <g data-zip="11214">
    <path d="m434.728 744.676l6.806 3.072l13.769 11.943l3.382 8.064l5.06 -2.848l-2.811 4.606l5.482 0.795l-3.022 2.329l1.365 4.34l-4.295 3.154l9.072 -5.343l2.3 1.7l-7.49 5.047l-0.283 2.564l-3.633 3.628l0.236 1.99l7.746 2.305l10.226 -5.879l-2.986 7.252l6.746 4.361l4.103 -4.932l3.622 -2.675l2.365 0.133l-0.319 -2.22l-3.292 -23.147l-5.114 -26.061l0.405 -6.419l-1.297 -1.969l-10.793 -9.722l-12.348 -9.825l-11.683 14.797l-4.522 2.965l-7.84 11.477l-0.955 4.518z" />
  </g>
  <g data-zip="11215">
    <path d="m457.35 623.959l7.791 6.348l-0.825 1.301l7.728 6.25l8.872 7.078l13.064 -7.142l2.727 -0.401l-2.71 -18.869l3.649 -4.708l5.441 4.071l2.867 -7.618l-9.03 -5.774l15.047 -22.497l2.534 -4.718l-21.975 -12.904l-9.448 -4.707l-1.266 1.126l-4.038 8.967l-8.056 0.012l-6.023 9.375l6.797 11.932l-1.711 3.061l7.424 5.907l-2.098 2.657l-16.76 21.255z" />
  </g>
  <g data-zip="11216">
    <path d="m536.9 581.933l4.872 1.263l13.576 0.997l1.156 -16.271l4.529 1.788l4.836 -0.594l1.225 -9.224l6.864 0.494l-1.486 -9.889l-10.336 0.696l-1.97 -13.065l-5.109 0.774l-0.526 -3.482l5.108 -0.772l-0.528 -3.482l-0.261 -1.739l-10.847 2.77l0.659 4.359l-10.244 3.09l0.524 3.484l2.529 16.715l0.231 1.627l4.149 1.088l-3.944 1.121l-5.005 18.252z" />
  </g>
  <g data-zip="11217">
    <path d="m479.236 551.865l-0.778 1.484l3.107 3.508l1.115 2.482l-0.864 1.456l1.266 -1.126l9.448 4.707l21.165 12.636l-0.344 -5.953l-1.538 -2.793l-0.974 -1.779l3.251 -12.473l-3.842 -1.066l0.899 -6.127l-2.475 -4.418l1.731 -0.266l-0.791 -5.242l-13.153 -0.663l-2.846 1.375l-4.306 4.175l-3.905 -2.005l-6.167 12.087z" />
  </g>
  <g data-zip="11218">
    <path d="m480.916 644.935l-5.169 4.543l8.058 6.408l-1.052 1.324l5.019 1.832l6.88 7.642l4.429 3.51l-2.105 2.663l3.579 4.917l1.632 -1.009l13.291 -8.275l8.081 -4.948l-1.426 -9.854l-0.391 -14.628l-2.08 -2.585l0.933 -5.376l4.276 -2.229l-2.808 -5.465l-9.866 5.044l-0.704 1.018l-0.47 -1.764l-3.063 -14.17l-2.004 -3.267l-2.867 7.618l-5.441 -4.071l-3.649 4.708l2.71 18.869l-2.727 0.401l-13.064 7.142z" />
  </g>
  <g data-zip="11219">
    <path d="m438.335 680.76l1.009 0.807l10.891 8.664l2.916 4.48l5.01 1.834l7.941 6.311l8.528 -10.825l20.023 -25.347l-6.88 -7.642l-5.019 -1.832l1.052 -1.324l-8.058 -6.408l5.169 -4.543l-8.872 -7.078l-6.752 8.761l-2.597 3.285l-7.343 9.309l4.913 3.911l-1.288 1.134l-4.679 -3.721l-7.424 9.403l1.688 3.498l-2.727 -2.179l-4.382 5.567l-3.119 3.935z" />
  </g>
  <g data-zip="11220">
    <path d="m396.629 652.838l-1.691 3.343l19.377 8.639l17.994 11.173l5.767 5.641l1.268 -0.066l-1.009 -0.807l3.119 -3.935l4.382 -5.567l2.727 2.179l-1.688 -3.498l7.424 -9.403l4.679 3.721l1.288 -1.134l-4.913 -3.911l7.343 -9.309l2.597 -3.285l-3.957 -2.127l-3.926 -4.256l-8.489 -5.616l1.05 -1.322l-7.76 -6.2l-1.18 1.239l-4.007 -3.183l-10.493 13.293l-2.919 -4.486l-6.356 -5.172l-2.217 2.775l2.831 5.115l-2.527 1.816l-6.891 -4.527l5.824 5.884l-3.953 5.241l-4.04 -2.96l-3.865 3.56l-1.572 -1.193l-4.218 8.339z" />
  </g>
  <g data-zip="11221">
    <path d="m554.529 535.422l0.526 3.482l5.109 -0.774l1.97 13.065l10.336 -0.696l10.784 -2.406l25.52 -4.04l0.034 -1.437l3.602 2.71l12.955 -17.417l-5.416 -4.062l2.804 -3.765l-2.707 -2.029l-2.801 3.763l-5.416 -4.062l-2.611 3.497l-17.596 -13.194l-2.606 3.497l2.23 1.675l-4.439 2.509l-8.933 3.665l1.959 8.625l-5.513 -0.943l-5 2.539l-10.213 1.544l0.528 3.482l-5.108 0.772z" />
  </g>
  <g data-zip="11222">
    <path d="m528.788 424.794l0.448 9.871l2.069 8.321l-0.956 9.974l7.013 1.552l0.261 -1.899l3.409 2.742l1.626 3.524l-2.273 2.526l2.312 1.892l5.597 -6.856l1.801 4.232l1.046 8.091l17.066 -2.153l0.376 2.657l5.52 -2.01l3.652 0.981l-2.192 -6.478l2.635 -1.003l-0.987 -3.142l14.017 -4.893l-2.255 -6.269l-9.666 -2.686l-5.583 -2.369l-3.845 -3.974l-1.185 -4.059l-3.323 -5.902l-8.827 -4.369l-9.862 -4.069l-2.462 -0.459l-5.679 0.604l-9.758 5.621z" />
  </g>
  <g data-zip="11223">
    <path d="m484.165 732.434l-0.405 6.419l5.046 25.807l3.36 23.401l9.56 2.39l15.159 -2.886l2.291 -1.276l2.163 -0.085l-4.562 -0.707l5.073 -2.426l-2.954 -6.486l4.194 -0.61l0.922 -5.265l8.013 -1.162l3.029 -0.441l-0.846 -6.598l-2.557 0.477l2.001 -4.587l-3.521 -21.488l-1.167 -10.979l-3.451 0.496l-15.665 2.285l-1.868 0.266l-23.816 3.456z" />
  </g>
  <g data-zip="11224">
    <path d="m437.806 801.395l1.754 8.633l2.359 1.014l9.076 3.899l6.104 4.072l19.699 0.921l1.067 -0.161l15.613 -2.361l40.814 -6.172l0.015 -2.706l-13.219 0.771l-5.702 -1.778l1.417 -10.587l2.757 -0.745l0.481 -2.734l-6.842 -1.195l0.737 -2.782l7.11 -1.688l0.294 -1.591l-2.163 0.085l-2.291 1.276l-15.159 2.886l-9.56 -2.39l0.319 2.22l-2.174 -1.131l-3.573 4.65l-3.489 3.73l-5.252 -0.619l-0.032 1.759l-12.47 -2.931l-0.569 -2.58l-3.035 0.517l-11.668 -1.529l-6.317 1.598l-6.102 7.65z" />
  </g>
  <g data-zip="11225">
    <path d="m528.039 598.219l-3.838 3.858l3.995 12.573l-0.663 2.854l2.296 1.909l3.672 -1.814l12.187 -2.072l10.5 0.169l-0.742 -9.164l9.122 -0.743l-0.393 -5.311l5.043 -0.413l-4.803 -2.455l0.303 -4.233l-9.976 -0.715l0.448 -6.28l0.157 -2.187l-13.576 -0.997l-4.872 -1.263l-8.371 -2.308l3 19.812l-2.653 0.38l-0.837 -1.598z" />
  </g>
  <g data-zip="11226">
    <path d="m520.593 631.099l-0.933 5.376l2.08 2.585l0.391 14.628l1.426 9.854l4.101 5.254l8.474 -5.368l4.87 -3.081l2.563 -3.536l1.212 1.645l7.865 -0.299l-0.27 -3.275l5.176 -0.418l-0.991 -12.214l-0.735 -8.994l1.779 -0.145l-1.225 -15.416l-0.189 -2.001l-10.5 -0.169l-11.254 1.246l-4.605 2.64l-7.768 3.993l2.808 5.465l-4.276 2.229z" />
  </g>
  <g data-zip="11228">
    <path d="m411.594 718.959l1.578 -0.166l2.536 -6l4.461 2.202l-3.577 11.672l5.894 4.384l5.608 2.185l2.466 -1.774l2.738 1.929l-7.334 9.79l1.105 0.46l3.465 0.102l4.194 0.934l0.955 -4.518l7.84 -11.477l4.522 -2.965l11.683 -14.797l6.374 -8.062l-7.941 -6.311l-5.01 -1.834l-2.916 -4.48l-10.891 -8.664l-1.268 0.066l-5.767 -5.641l-6.586 20.996l-10.849 14.559l-3.28 7.412z" />
  </g>
  <g data-zip="11229">
    <path d="m528.964 725.932l1.167 10.979l3.521 21.488l-2.001 4.587l2.557 -0.477l0.846 6.598l46.802 -6.771l4.98 0.617l0.693 1.563l-1.837 5.543l0.265 4.155l4.983 2.066l0.081 2.981l3.555 5.919l10.813 0.856l4.108 -2.274l-0.591 -2.203l-20.852 -24.395l2.59 -2.272l-9.761 -11.644l6.633 -5.655l-6.565 -7.762l-1.295 1.056l-3.267 -3.836l-2.685 2.273l-3.26 -3.867l-6.541 -7.739l-1.385 1.189l-1.009 -1.098l-0.935 -6.252l-1.639 1.62l-0.594 -4.131l-1.668 0.244l0.755 5.248l-3.19 1.549l0.162 1.186l-1.556 1.383l-0.337 -2.32l-2.521 6.598l-3.37 0.505l-17.655 2.493z" />
  </g>
  <g data-zip="11230">
    <path d="m502.185 676.767l-3.496 3.154l4.704 4.281l0.618 3.792l0.279 10.457l-1.561 -0.078l2.973 1.635l4.146 28.705l15.665 -2.285l3.451 -0.496l17.655 -2.493l-2.905 -12.278l-3.438 -31.921l-2.161 -2.01l1.682 -1.599l-1.446 -10.012l-1.855 0.275l-0.364 -2.463l-8.474 5.368l-4.101 -5.254l-8.081 4.948l-13.14 8.18z" />
  </g>
  <g data-zip="11231">
    <path d="m428.1 564.665l-2.637 3.398l2.981 -0.249l-0.42 4.963l2.084 2.244l-2.88 3.156l4.612 -1.893l2.141 2.109l3.155 -3.398l-1.682 5.26l4.405 1.513l2.669 4.982l-3.447 6.886l-6.493 0.786l-0.247 1.273l-2.73 -14.664l-2.885 -1.346l0.827 1.914l1.565 12.06l1.01 1.486l3.492 1.052l6.581 -0.945l3.341 -8.22l5.344 -0.109l2.527 -5.616l-0.801 6.974l5.579 1.372l1.027 -2.79l3.678 -0.045l2.078 -6.715l6.747 -10.327l8.056 -0.012l4.038 -8.967l0.864 -1.456l-1.115 -2.482l-3.107 -3.508l0.778 -1.484l-8.259 -4.23l-12.267 -6.296l-1.756 4.783l-3.854 -1.34l-6.539 1.629l-0.983 -1.89l-11.642 9.953l-7.72 6.599l1.885 3.591z" />
  </g>
  <g data-zip="11232">
    <path d="m423.491 627.952l-6.235 0.836l6.356 5.172l2.919 4.486l10.493 -13.293l4.007 3.183l1.18 -1.239l7.76 6.2l2.102 -2.67l7.946 6.314l-2.61 3.295l3.926 4.256l3.957 2.127l6.752 -8.761l-7.728 -6.25l0.825 -1.301l-7.791 -6.348l16.76 -21.255l2.098 -2.657l-7.424 -5.907l1.711 -3.061l-6.505 -11.31l-1.108 7.413l-1.479 2.016l-5.459 2.835l6.122 4.758l-2.867 3.542l-6.718 -5.131l2.624 4.905l-7.901 -4.069l7.62 5.993l-4.292 -2.272l-0.366 3.053l-4.823 -3.523l-2.878 1.987l5.257 4.646l-2.293 2.194l-7.357 -5.681l-2.203 1.289l5.297 4.283l-1.464 1.683l-6.572 -4.202l-3.33 3.098l5.443 4.264l-2.606 3.362l-5.097 -3.718l4.131 5.199l-2.674 3.658l-3.697 -2.887l1.171 2.811l-2.86 -0.824l-2.431 5.676l2.311 1.823z" />
  </g>
  <g data-zip="11233">
    <path d="m572.471 550.499l1.486 9.889l5.488 0.394l9.533 0.682l-2.52 8.214l9.835 2.569l-0.978 14.824l2.071 5.005l2.946 -1.693l7.872 -4.521l-2.993 -0.321l9.313 -3.315l20.528 -11.811l-2.185 -5.785l2.201 -2.266l-1.045 -0.767l-21.612 -16.273l-3.602 -2.71l-0.034 1.437l-25.52 4.04l-10.784 2.406z" />
  </g>
  <g data-zip="11234">
    <path d="m560.577 711.554l0.935 6.252l1.009 1.098l1.385 -1.189l6.541 7.739l3.26 3.867l2.685 -2.273l3.267 3.836l1.295 -1.056l6.565 7.762l-6.633 5.655l9.761 11.644l-2.59 2.272l20.852 24.395l0.591 2.203l-4.108 2.274l-10.813 -0.856l-9.763 -2.523l2.293 3.721l-3.145 3.382l3.946 -0.863l12.083 0.107l11.6 3.955l8.398 -0.078l5.581 0.375l21.232 -4.707l1.045 3.19l-0.928 6.18l2.134 7.097l8.198 -2.848l7.388 -0.548l9.563 -2.559l3.647 -2.317l5.432 -11.354l-3.317 -5.381l-0.032 -6.394l-11.485 -35.147l-24.87 1.921l0.342 -3.399l12.645 -9.401l5.005 0.894l2.55 -1.554l-16.767 -27.386l-0.67 -1.089l-5.666 -0.259l3.425 -3.113l-14.864 -9.828l-18.745 -10.769l-3.029 -1.013l-3.256 -3.27l2.81 -2.395l-1.317 -16.412l-3.633 2.188l-1.093 -1.398l-2.017 2.765l-4.962 4.123l-9.902 6.579l-1.18 1.016l-3.89 0.323l-1.299 5.691l1.747 -0.15l0.452 5.555l-1.751 0.142l0.452 5.555l1.747 -0.145l0.355 5l-1.567 1.922l-4.657 -0.804l2.33 3.944l-8.384 2.249l0.495 3.462l-8.71 12.143z" />
  </g>
  <g data-zip="11235">
    <path d="m513.935 789.484l-0.737 2.782l6.842 1.195l-0.481 2.734l-2.757 0.745l-1.417 10.587l5.702 1.778l13.219 -0.771l-0.015 2.706l6.666 -1.008l5.837 -0.944l11.139 -1.802l15.543 0.394l10.997 -1.252l-1.698 -12.323l1.001 -2.046l0.187 -2.499l3.145 -3.382l-2.293 -3.721l9.763 2.523l-3.555 -5.919l-0.081 -2.981l-4.983 -2.066l-0.265 -4.155l1.837 -5.543l-0.693 -1.563l-4.98 -0.617l-46.802 6.771l-3.029 0.441l-8.013 1.162l-0.922 5.265l-4.194 0.61l2.954 6.486l-5.073 2.426l4.562 0.707l-0.294 1.591l-7.11 1.688z" />
  </g>
  <g data-zip="11236">
    <path d="m602.392 650.708l-1.077 1.476l1.093 1.398l3.633 -2.188l1.317 16.412l-2.81 2.395l3.256 3.27l3.029 1.013l18.745 10.769l14.864 9.828l12.194 2.7l3.242 -2.33l0.872 -6.528l3.489 -1.36l7.02 -7.648l9.605 -12.117l3.04 2.402l0.09 -4.077l-4.528 -6.527l-1.309 -2.183l-2.158 -1.782l-15.935 -20.17l-2.999 -4.546l2.266 -2.64l-2.471 -2.913l-3.642 3.395l-3.923 -5.085l-3.049 -1.251l-1.34 -0.468l-1.869 -8.477l-7.442 4.917l-8.434 1.69l-3.368 0.655l-14.138 -0.002l-6.176 -1.434l-1.389 1.173l2.152 8.824l1.135 14.242l-1.657 1.683l-1.567 1.462l0.205 1.367l1.716 0.318l1.702 -0.126l-3.386 2.464z" />
  </g>
  <g data-zip="11237">
    <path d="m578.632 480.471l4.511 13.362l2.057 9.446l6.424 4.777l17.596 13.194l2.611 -3.497l5.416 4.062l2.801 -3.763l2.707 2.029l-2.804 3.765l5.416 4.062l9.466 7.116l2.745 -3.777l-6.712 -5.057l2.774 -3.734l-13.594 -10.067l2.033 -2.632l-4.007 -3.126l1.976 -2.549l-18.163 -14.162l2.066 -2.694l-5.934 -8.264l-0.517 -3.707l2.91 -2.162l-21.776 7.378z" />
  </g>
  <g data-zip="11238">
    <path d="m510.402 542.136l-1.731 0.266l2.475 4.418l-0.899 6.127l3.842 1.066l-3.251 12.473l0.974 1.779l1.538 2.793l0.344 5.953l2.155 0.18l12.189 21.028l0.837 1.598l2.653 -0.38l-3 -19.812l8.371 2.308l5.005 -18.252l3.944 -1.121l-4.149 -1.088l-0.231 -1.627l-2.529 -16.715l-0.524 -3.484l-0.256 -1.731l-4.92 0.739l-0.517 -3.48l-8.816 1.34l0.681 3.458l-10.723 1.634l-2.471 -4.617l-0.992 5.147z" />
  </g>
  <g data-zip="11239">
    <path d="m683.181 624.768l2.813 5.555l3.332 2.274l3.247 -0.484l8.729 -8.083l-2.75 -9.486l-2.503 1.394l-12.868 8.831z" />
    <path d="m659.331 628.275l-2.266 2.64l2.999 4.546l15.935 20.17l2.158 1.782l1.309 2.183l5.046 -12.999l2.017 -3.978l-2.183 -2.658l-4.2 -7.387l-6.802 -12.275l-14.013 7.976z" />
  </g>
  <g data-zip="11354">
    <path d="m733.231 336.966l-1.767 4.319l2.44 3.384l-2.116 1.291l4.285 8.423l6.188 2.197l6.547 -1.902l1.612 2.062l4.502 6.327l0.173 3.609l-3.238 9.996l0.735 4.261l0.529 1.693l14.727 -10.005l24.578 -8.976l6.291 -1.496l9.16 2.316l0.553 -14.543l3.334 -6.659l-1.435 -2.649l3.375 0.352l0.529 -5.063l-4.71 -2.2l-11.137 -1.165l-16.004 -2.992l-7.494 2.255l-2.84 -1.774l-2.017 1.555l-5.52 8.198l-3.305 2.678l-5.23 -16.874l-4.556 -0.209l-0.189 4.383l-1.83 0.645l-16.308 -1.194l0.139 7.758z" />
  </g>
  <g data-zip="11355">
    <path d="m753.121 382.625l4.169 7.479l5.956 -1.3l-1.275 9.766l-2.928 2.23l-2.334 8.07l15.924 2.042l3.787 -1.103l6.806 5.194l8.412 3.138l2.525 -0.763l0.128 2.222l3.305 0.54l6.858 0.373l-1.295 -8.776l-7.521 -1.614l0.265 -7.524l11.987 -9.504l-2.934 -0.314l2.919 -28.317l-9.16 -2.316l-6.291 1.496l-24.578 8.976l-14.727 10.005z" />
  </g>
  <g data-zip="11356">
    <path d="m716.667 305.352l-1.677 3.575l1.812 4.3l4.74 1.382l0.113 2.538l11.049 -0.45l-1.066 1.598l0.13 6.814l1.324 4.098l16.308 1.194l1.83 -0.645l0.189 -4.383l4.556 0.209l5.23 16.874l3.305 -2.678l5.52 -8.198l4.13 -9.309l1.711 -4.224l-2.701 0.069l-0.211 -7.098l-6.64 0.026l-0.771 -11.175l-1.727 -0.264l-3.339 2.207l-3.161 -2.474l-3.038 1.185l-0.277 -5.535l1.428 -2.676l-3.244 -10.16l0.009 -3.78l-3.045 3.554l-6.462 4.748l-4.569 -3.036l-4.439 1.775l-1.136 4.86l-5.976 -3.68l-2.001 6.147l1.992 2.569l-3.312 2.552l-0.538 3.183l2.788 2.307l-4.899 0.497l-1.156 2.181l-2.777 -0.68z" />
  </g>
  <g data-zip="11357">
    <path d="m764.879 295.04l-1.059 4.567l1.727 0.264l0.771 11.175l6.64 -0.026l0.211 7.098l2.701 -0.069l1.19 -0.021l-0.823 2.359l-1.055 2.34l-1.023 -0.454l-4.13 9.309l2.017 -1.555l2.84 1.774l7.494 -2.255l16.004 2.992l11.137 1.165l4.71 2.2l0.176 -1.691l20.124 2.647l1.941 -1.073l2.314 -0.794l-5.414 -16.96l-1.369 -10.449l-1.484 -0.423l7.627 -4.638l-3.516 -5.462l-0.609 4.077l-1.342 -0.573l-2.181 -6.427l0.612 -7.565l-3.478 -1.608l-8.075 -2.177l-4.059 -0.457l-3.708 1.306l-11.292 -2.874l-2.302 0.521l-5.704 -3.324l-6.937 -5.696l-9.243 8.458l-7.254 1.965l2.273 7.955l-2.374 3.176l-4.081 1.223z" />
  </g>
  <g data-zip="11358">
    <path d="m807.876 364.464l-2.919 28.317l2.934 0.314l8.335 0.842l8.744 2.503l1.311 -1.676l2.936 -1.904l1.531 4.312l4.52 0.133l19.978 -7.467l2.024 -2.347l-7.894 -17.523l-2.577 0.276l1.322 -4.006l-7.458 -19.677l-4.189 -10.775l-1.941 1.073l-20.124 -2.647l-0.176 1.691l-0.529 5.063l-3.375 -0.352l1.435 2.649l-3.334 6.659l-0.553 14.543z" />
  </g>
  <g data-zip="11360">
    <path d="m830.522 307.159l1.484 0.423l1.369 10.449l5.414 16.96l-2.314 0.794l4.189 10.775l18.822 -7.351l7.283 -2.079l0.611 3.736l1.781 -0.485l-0.634 -3.662l4.065 -1.094l3.132 4.033l7.906 -2.307l3.512 1.702l-3.67 -3.933l-2.692 -9.424l-0.731 -2.56l-11.955 -15.252l-12.835 -8.608l-2.131 -4.253l-1.425 1.213l-17.07 0.821l3.516 5.462l-7.627 4.638z" />
  </g>
  <g data-zip="11361">
    <path d="m840.663 346.561l7.458 19.677l-1.322 4.006l2.577 -0.276l7.894 17.523l0.508 1.424l6.534 -2.375l7.344 -3.775l6.815 -2.339l11.634 -2.499l-0.128 1.769l4.479 8.012l1.752 -2.135l-3.442 -6.044l2.444 -5.956l3.065 -1.636l-0.56 -2.551l-3.449 2.304l-0.98 -1.931l3.76 -1.018l-0.652 -7.411l-1.518 -1.959l9.79 -2.34l-8.776 -4.879l-0.436 -4.188l-8.315 -8.909l-3.512 -1.702l-7.906 2.307l-3.132 -4.033l-4.065 1.094l0.634 3.662l-1.781 0.485l-0.611 -3.736l-7.283 2.079l-18.822 7.351z" />
  </g>
  <g data-zip="11362">
    <path d="m894.878 359.371l1.518 1.959l0.652 7.411l2.125 1.534l1.749 4.684l0.538 -1.272l4.205 0.126l1.644 -2.872l4.061 2.497l5.289 10.062l0.022 4.341l2.377 1.869l3.263 9.345l-3.881 2.594l2.424 7.745l-5.534 -0.036l-10.129 2.118l3.751 5.256l2.561 1.065l10.817 -2.479l1.61 5.581l5.001 -0.181l1.922 -2.774l12.425 -9.415l5.217 -7.21l4.843 -11.425l6.853 -6.286l1.475 -2.568l1.127 -2.898l2.421 -3.528l2.478 -2.123l3.211 -1.484l6.593 -0.718l-14.08 -12.229l-22.963 -18.201l-5.506 8.611l-3.132 -2.723l2.071 3.921l-6.7 6.409l-5.444 0.83l-8.083 3.039l-3.516 -5.783l-4.947 2.537l-10.332 2.673z" />
  </g>
  <g data-zip="11363">
    <path d="m901.6 327.831l-0.734 2.404l4.007 7.456l-3.424 3.425l0.867 10.306l2.894 5.277l4.947 -2.537l3.516 5.783l8.083 -3.039l5.444 -0.83l6.7 -6.409l-2.071 -3.921l3.132 2.723l5.506 -8.611l-28.403 -22.782l-3.218 -0.861l-2.793 3.193l-2.889 3.303l-1.477 4.842z" />
  </g>
  <g data-zip="11364">
    <path d="m857.778 388.916l-0.371 4.332l4.432 6.963l3.227 8.979l5.219 16.855l4.96 10.688l8.205 -1.818l3.334 -0.761l30.903 -6.926l1.07 3.827l-1.203 1.84l-0.222 1.928l6.615 -6.85l4.996 -7.254l-5.001 0.181l-1.61 -5.581l-10.817 2.479l-2.561 -1.065l-3.751 -5.256l10.129 -2.118l5.534 0.036l-2.424 -7.745l3.881 -2.594l-3.263 -9.345l-2.377 -1.869l-0.022 -4.341l-5.289 -10.062l-4.061 -2.497l-1.644 2.872l-4.205 -0.126l-0.538 1.272l-1.749 -4.684l-2.125 -1.534l-3.76 1.018l0.98 1.931l3.449 -2.304l0.56 2.551l-3.065 1.636l-2.444 5.956l3.442 6.044l-1.752 2.135l-4.479 -8.012l0.128 -1.769l-11.634 2.499l-6.815 2.339l-7.344 3.775l-6.534 2.375z" />
  </g>
  <g data-zip="11365">
    <path d="m795.903 402.599l-0.265 7.524l7.521 1.614l1.295 8.776l-1.923 3.829l-3.438 -0.178l-0.328 6.016l3.397 2.03l-2.867 3.475l2.509 11.997l18.862 -2.852l21.979 -7.108l14.062 -6.251l0.276 -1.756l5.977 -2.244l1.961 -1.935l0.816 2.275l3.307 -1.281l3.645 10.814l2.557 -0.611l-4.96 -10.688l-5.219 -16.855l-3.227 -8.979l-4.432 -6.963l0.371 -4.332l-0.508 -1.424l-2.024 2.347l-19.978 7.467l-4.52 -0.133l-1.531 -4.312l-2.936 1.904l-1.311 1.676l-8.744 -2.503l-8.335 -0.842l-11.987 9.504z" />
  </g>
  <g data-zip="11366">
    <path d="m801.803 447.681l2.781 14.769l-0.8 2.935l1.344 -0.451l28.285 -12.766l6.981 -2.873l2.071 1.276l4.611 -1.994l3.869 -3.845l0.778 1.828l4.268 -1.856l-0.652 -1.873l6.458 -2.329l4.216 11.776l-5.05 4.644l1.176 2.001l6.835 -5.466l13.23 -3.947l7.53 0.991l9.641 -0.459l-9.968 -7.522l-5.954 -7.605l-8.205 1.818l-2.557 0.611l-3.645 -10.814l-3.307 1.281l-0.816 -2.275l-1.961 1.935l-5.977 2.244l-0.276 1.756l-14.062 6.251l-21.979 7.108l-18.862 2.852z" />
  </g>
  <g data-zip="11367">
    <path d="m739.914 416.798l1.228 11.963l3.278 7.178l5.657 7.082l3.312 5.789l3.474 9.893l7.613 11.176l3.472 2.105l7.415 1.887l9.929 -1.566l1.349 -0.775l12.944 -4.577l0.51 2.825l5.817 -1.288l-0.783 -3.557l-1.344 0.451l0.8 -2.935l-2.781 -14.769l-2.509 -11.997l2.867 -3.475l-3.397 -2.03l0.328 -6.016l3.438 0.178l1.923 -3.829l-6.858 -0.373l-3.305 -0.54l-0.128 -2.222l-2.525 0.763l-8.412 -3.138l-6.806 -5.194l-3.787 1.103l-15.924 -2.042l-10.806 4.129l-5.988 3.798z" />
  </g>
  <g data-zip="11368">
    <path d="m691.343 376.914l0.962 7.09l4.07 11.421l-1.064 1.629l2.408 5.415l1.385 2.996l0.625 9.489l1.95 6.491l2.792 3.128l0.562 6.237l17.169 -6.013l1.628 -0.364l5.106 -1.507l6.822 -3.508l4.157 -2.619l5.988 -3.798l10.806 -4.129l2.334 -8.07l2.928 -2.23l1.275 -9.766l-5.956 1.3l-4.169 -7.479l-0.529 -1.693l-0.735 -4.261l3.238 -9.996l-0.173 -3.609l-4.502 -6.327l-5.963 1.9l-0.616 2.463l-6.554 5.345l-3.562 2.87l-5.221 1.862l-5.543 -1.94l-7.062 -4.152l3.209 -4.908l-6.538 0.266l2.357 6.168l8.335 7.124l-5.866 0.599l-2.647 -4.242l0.602 4.544l-12.22 0.642l-11.787 1.633z" />
  </g>
  <g data-zip="11369">
    <path d="m663.406 353.203l0.322 1.344l8.616 -2.288l0.639 4.637l-3.346 0.464l2.871 8.463l-1.023 4.95l1.199 8.731l6.696 -0.92l-0.692 -5.057l2.368 4.824l10.285 -1.436l11.787 -1.633l12.22 -0.642l-0.602 -4.544l2.647 4.242l5.866 -0.599l-8.335 -7.124l-3.265 -5.835l-3.222 -5.146l-5.866 -7.055l-7.705 -5.938l-4.205 -1.127l-4.692 0.143l-4.818 1.474l-11.604 7.536l-6.145 2.537z" />
  </g>
  <g data-zip="11370">
    <path d="m654.338 291.552l1.052 5.809l2.903 0.68l4.076 7.379l5.41 0.764l12.6 3.159l2.403 -1.001l6.997 -0.183l2.624 -2.243l1.48 -2.614l-0.295 -2.759l-0.783 -2.921l-7.011 -5.022l-5.187 -4.791l-8.551 -2.091l-7.033 -6.538l-1.902 -0.873l-5.396 1.487l-1.891 2.555l-1.495 9.204z" />
    <path d="m640.712 348.701l-0.589 3.798l11.409 2.532l-1.273 3.969l-6.739 10.845l1.898 -2.521l2.156 15.661l25.111 -3.483l-1.199 -8.731l1.023 -4.95l-2.871 -8.463l3.346 -0.464l-0.639 -4.637l-8.616 2.288l-0.322 -1.344l-1.792 -4.758l-1.257 -9.822l0.625 -1.256l-2.489 -9.456l-2.595 1.891l-2.105 6.864l-1.142 -0.849l-11.939 12.885z" />
  </g>
  <g data-zip="11372">
    <path d="m646.156 392.33l1.711 4.015l2.921 7.022l-0.05 2.56l0.416 -2.313l-0.526 -1.857l5.54 -0.758l2.249 -0.309l37.958 -5.266l-4.07 -11.421l-0.962 -7.09l-10.285 1.436l-2.368 -4.824l0.692 5.057l-6.696 0.92l-25.111 3.483l1.302 8.961l-2.719 0.383z" />
  </g>
  <g data-zip="11373">
    <path d="m658.063 411.818l-1.887 0.292l5.302 13.328l-4.623 1.117l3.615 0.53l1.434 2.962l0.911 10.707l1.552 4.523l2.856 -0.375l3.027 -0.466l6.865 -0.124l9.66 -4.639l5.99 3.075l5.706 -7.696l-1.398 -0.863l7.959 -3.38l-0.562 -6.237l-2.792 -3.128l-1.95 -6.491l-0.625 -9.489l-0.639 -3.281l-3.154 -5.13l1.484 -0.692l-38.378 4.329l-1.606 0.699l1.219 8.368l0.032 2.061z" />
  </g>
  <g data-zip="11374">
    <path d="m690.832 442.232l-2.529 2.45l3.768 3.898l1.435 -2.816l0.443 1.39l-1.428 3.676l1.814 2.616l1.547 -0.951l12.032 17.675l5.367 6.596l0.731 3.17l-4.407 3.319l4.178 0.846l0.247 3.559l2.871 -0.373l-0.287 -2.604l1.601 0.321l-2.204 -23.913l2.547 -0.542l5.774 -12.022l3.825 -2.094l-1.992 -6.488l3.146 -1.25l-1.85 -4.739l-4.567 0.28l-2.615 -6.7l3.55 -3.104l-1.628 0.364l-17.169 6.013l-7.959 3.38l1.398 0.863l-5.706 7.696l-1.934 -0.516z" />
  </g>
  <g data-zip="11375">
    <path d="m716.011 461.091l2.204 23.913l2.446 12.046l2.15 -0.884l9.417 -3.861l6.91 -0.209l4.798 -1.654l10.768 -5.075l10.905 -7.123l7.215 -2.569l2.289 -1.597l-7.166 -2.096l-3.472 -2.105l-7.613 -11.176l-3.474 -9.893l-3.312 -5.789l-5.657 -7.082l-3.278 -7.178l-1.228 -11.963l-4.157 2.619l-6.822 3.508l-5.106 1.507l-3.55 3.104l2.615 6.7l4.567 -0.28l1.85 4.739l-3.146 1.25l1.992 6.488l-3.825 2.094l-5.774 12.022l-2.547 0.542z" />
  </g>
  <g data-zip="11377">
    <path d="m594.9 426.039l-0.117 1.36l6.458 3.068l5.313 5.381l13.628 5.198l5.868 0.323l5.023 3.037l8.956 -13.806l5.127 0.162l-0.05 1.633l3.481 0.171l6.894 -0.354l0.686 -1.911l5.734 -0.254l-1.434 -2.962l-3.615 -0.53l4.623 -1.117l-5.302 -13.328l1.887 -0.292l-0.032 -2.061l-1.219 -8.368l-6.183 0.368l0.526 1.857l-0.416 2.313l0.05 -2.56l-2.921 -7.022l-1.711 -4.015l2.719 -0.383l-1.302 -8.961l-2.156 -15.661l-1.5 2.497l6.341 -10.821l1.273 -3.969l-11.409 -2.532l-2.46 -0.49l-1.534 1.924l-1.144 1.802l-3.121 5.143l0.89 1.893l-1.369 2.982l-1.799 -1.122l-1.408 4.347l-3.449 5.267l-2.66 -0.602l-3.471 5.583l2.004 3.362l-1.931 2.979l3.816 0.815l1.088 3.148l-0.095 6.062l-0.466 1.391l-8.166 -0.958l-1.572 10.284l1.111 3.972l-3.49 0.288l-11.081 5.588l-1.679 11.057l-3.236 -1.174z" />
  </g>
  <g data-zip="11378">
    <path d="m573.917 432.019l10.412 10.788l4.567 2.436l0.081 1.212l2.264 2.838l6.521 15.385l2.646 8.417l-2.91 2.162l0.517 3.707l19.814 1.606l7.447 0.646l0.166 -1.996l1.441 2.108l9.288 -1.853l4.014 -3.612l5.291 -2.34l20.828 -13.072l-1.688 -5.314l-0.263 -9.111l-1.539 -5.272l-0.911 -10.707l-5.734 0.254l-0.686 1.911l-6.894 0.354l-3.481 -0.171l0.05 -1.633l-5.127 -0.162l-8.05 12.839l-5.929 -2.07l-5.868 -0.323l-13.628 -5.198l-5.313 -5.381l-6.458 -3.068l-10.41 -2.662l-10.457 7.283z" />
  </g>
  <g data-zip="11379">
    <path d="m640.184 475.862l-4.014 3.612l22.788 13.177l8.409 4.279l8.218 0.178l10.898 -1.057l8.56 -5.683l9.284 -3.728l5.279 -3.383l4.407 -3.319l-0.731 -3.17l-5.367 -6.596l-12.032 -17.675l-1.547 0.951l-1.814 -2.616l1.428 -3.676l-0.443 -1.39l-1.435 2.816l-3.768 -3.898l2.529 -2.45l1.615 0.839l-5.671 -3.398l-9.66 4.639l-6.865 0.124l-3.027 0.466l-2.869 1.124l0.263 9.111l1.688 5.314l-20.828 13.072l-5.291 2.34z" />
  </g>
  <g data-zip="11385">
    <path d="m598.014 478.963l5.934 8.264l-2.066 2.694l18.163 14.162l-1.976 2.549l4.007 3.126l-2.033 2.632l13.594 10.067l-2.774 3.734l6.712 5.057l2.968 9.061l-1.327 0.727l8.364 13.017l4.175 -6.916l3.02 4.477l5.252 -1.876l9.167 -5.883l1.333 -2.784l7.782 -8l9.788 -7.031l9.192 -2.278l-3.395 -6.478l2.68 -3.511l0.285 -8.405l10.629 -1.185l9.192 1.174l-0.773 3.944l2.793 0.162l3.125 -3.388l5.659 0.82l-4.484 -7.22l-0.189 -3.509l-2.15 0.884l-2.446 -12.046l-1.601 -0.321l1.151 1.993l-3.735 0.984l-0.279 -3.058l-4.146 -1.347l-5.279 3.383l-9.284 3.728l-8.56 5.683l-10.898 1.057l-8.218 -0.178l-8.409 -4.279l-22.788 -13.177l-9.288 1.853l-1.441 -2.108l-0.166 1.996l-7.447 -0.646l-19.814 -1.606z" />
  </g>
  <g data-zip="11411">
    <path d="m913.902 508.473l4.418 12.989l1.633 4.76l-5.115 9.463l1.626 0.988l17.353 7.855l9.662 3.057l11.452 4.508l0.113 -2.686l-0.231 -4.444l-1.039 -25.323l-1.824 -0.736l-0.344 -10.379l-8.369 -2.029l-10.588 1.269l-8.749 -1.216l-0.389 -1.337l-9.61 3.262z" />
  </g>
  <g data-zip="11412">
    <path d="m867.908 500.158l-2.615 -0.615l6.325 15.791l4.009 5.559l8.43 8.48l-1.776 1.439l7.55 18.127l20.908 -10.13l1.028 2.157l3.071 -5.28l5.115 -9.463l-1.633 -4.76l-4.418 -12.989l-3.292 -9.629l-3.582 -11.112l-1.614 0.513l-20.185 6.417l-4.839 2.582l-12.481 2.913z" />
  </g>
  <g data-zip="11413">
    <path d="m879.105 606.41l0.529 4.582l2.728 -0.316l0.596 5.334l-2.754 0.342l28.342 21.186l5.882 4.455l4.059 -8.764l-4.126 -4.275l-0.969 -6.127l1.437 -2.842l-0.767 -3.692l2.703 -3.098l3.775 -1.617l4.526 -6.408l4.367 -9.21l2.628 -3.915l-6.08 -1.064l-0.029 -3.918l1.902 -4.001l1.531 0.729l1.884 -4.003l-1.516 -0.729l1.898 -4.006l1.524 0.731l7.094 -17.053l3.209 -11.15l-9.662 -3.057l-17.767 -6.99l-1.212 -1.853l-3.071 5.28l-1.028 -2.157l-20.908 10.13l7.134 12.658l-3.202 0.596l3.272 6.861l-4.155 2.306l-3.91 2.173l-2.145 -1.308l-0.666 4.509l3.235 2.147l-1.23 0.309l0.607 2.553l-0.614 3.607l-1.48 5.036l-2.961 0.522l3.371 1.403l-4.731 14.725l-3.251 -0.624z" />
  </g>
  <g data-zip="11414">
    <path d="m707.639 611.327l4.841 8.589l1.311 1.318l5.796 9.942l2.928 -2.459l4.699 1.002l4.375 -2.317l-3.867 6.739l-1.221 4.154l4.555 5.44l5.392 0.909l19.53 -2.561l-2.339 -17.06l1.446 -0.377l2.269 9.994l7.02 1.151l1.122 -2.651l-2.033 -10.141l1.59 -0.261l0.639 4.38l3.719 5.386l4.434 2.602l-3.57 -18.442l-2.662 -9.347l-5.106 -12.913l-1.093 -3.212l-7.078 -1.427l-35.787 -14.758l-7.573 -3.434l1.673 8.909l4.964 -0.919l3.508 18.494l-4.944 0.983l1.468 7.916l-4.944 1.123l-5.063 3.25z" />
  </g>
  <g data-zip="11415">
    <path d="m743.937 490.443l2.829 0.52l8.481 -4.357l1.12 -1.611l3.715 3.424l-0.24 3.222l-3.604 2.611l2.167 1.129l3.532 10.757l1.235 4.288l1.466 -1.485l17.976 -5.557l-0.864 -3.523l3.496 0.43l3.181 -2.692l-5.14 -10.057l-5.021 -5.835l-0.591 -2.312l-5.118 2.647l-6.946 -3.797l-10.905 7.123l-10.768 5.075z" />
  </g>
  <g data-zip="11416">
    <path d="m702.012 552.173l3.951 1.938l1.354 7.174l1.806 0.444l7.47 -0.632l7.697 -0.606l5.282 -2.095l-0.589 -1.596l1.513 -0.579l0.594 1.605l3.069 -1.147l1.038 -0.465l12.016 -4.427l5.615 -2.109l5.344 -2.016l-4.322 -14.747l-12.176 4.572l-39.663 14.685z" />
  </g>
  <g data-zip="11417">
    <path d="m709.124 561.73l1.851 9.841l7.573 3.434l35.787 14.758l7.078 1.427l-6.608 -18.804l1.954 -2.555l6.876 1.171l2.05 -6.789l-1.452 -3.365l-4.537 -13.751l-1.524 0.568l-5.344 2.016l-5.615 2.109l-12.016 4.427l-1.38 -0.468l-2.727 2.08l-0.594 -1.605l-1.513 0.579l0.589 1.596l-5.282 2.095l-7.697 0.606l-7.47 0.632z" />
  </g>
  <g data-zip="11418">
    <path d="m722.812 496.167l0.189 3.509l4.484 7.22l0.881 4.21l6.64 8.614l6.669 17.77l12.176 -4.572l29.889 -10.763l3.249 0.171l9.711 -3.318l-4.967 -12.583l-3.307 -8.823l-3.181 2.692l-3.496 -0.43l0.864 3.523l-17.976 5.557l-1.466 1.485l-1.235 -4.288l-3.532 -10.757l-2.167 -1.129l3.604 -2.611l0.24 -3.222l-3.715 -3.424l-1.12 1.611l-8.481 4.357l-2.829 -0.52l-4.798 1.654l-6.91 0.209l-9.417 3.861z" />
  </g>
  <g data-zip="11419">
    <path d="m753.852 532.916l4.322 14.747l1.524 -0.568l4.537 13.751l32.695 -12.285l10.041 -5.581l-4.92 -11.536l-5.349 -12.437l-9.711 3.318l-3.249 -0.171l-29.889 10.763z" />
  </g>
  <g data-zip="11420">
    <path d="m756.76 569.83l-1.954 2.555l6.608 18.804l1.093 3.212l10.577 4.029l6.887 -0.302l17.417 2.445l2.287 -0.534l1.371 -2.597l1.772 -7.016l15.6 0.769l0.481 -15.104l-8.101 -23.225l-3.829 -9.887l-10.041 5.581l-32.695 12.285l1.452 3.365l-2.05 6.789l-6.876 -1.171z" />
  </g>
  <g data-zip="11421">
    <path d="m696.575 513.775l-2.68 3.511l3.395 6.478l0.36 1.254l4.362 27.155l39.663 -14.685l-6.669 -17.77l-6.64 -8.614l-0.881 -4.21l-5.659 -0.82l-3.125 3.388l-2.793 -0.162l0.773 -3.944l-9.192 -1.174l-10.629 1.185l-0.285 8.405z" />
  </g>
  <g data-zip="11422">
    <path d="m908.548 637.539l4.897 4.913l4.742 11.103l-3.128 13.898l3.564 -1.379l3.323 -5.088l3.271 -1.749l1.965 1.984l-2.485 5.25l4.845 -0.235l0.881 -1.334l-5.064 -10.478l1.54 -0.904l-0.016 -15.16l11.35 -6.748l7.348 -1.185l10.539 -4.957l0.593 -2.678l-2.828 -13.567l-3.398 -9.217l0.895 -2.213l-0.074 -1.707l-0.629 -3.015l0.277 -13.399l4.394 -18.95l-0.416 -8.633l-11.452 -4.508l-3.209 11.15l-7.094 17.053l-1.524 -0.731l-1.898 4.006l1.516 0.729l-1.884 4.003l-1.531 -0.729l-1.902 4.001l0.029 3.918l6.08 1.064l-2.628 3.915l-4.367 9.21l-4.526 6.408l-3.775 1.617l-2.703 3.098l0.767 3.692l-1.437 2.842l0.969 6.127l4.126 4.275l-4.059 8.764l-5.882 -4.455z" />
  </g>
  <g data-zip="11423">
    <path d="m855.337 442.831l0.652 1.873l1.704 4.805l1.417 3.42l1.851 3.992l5.05 -4.644l-4.216 -11.776l-6.458 2.329z" />
    <path d="m852.701 481.505l4.171 9.354l-0.09 1.276l0.692 3.357l-3.353 2.088l19.503 -6.063l-7.44 4.372l-0.89 3.654l2.615 0.615l12.481 -2.913l4.839 -2.582l20.185 -6.417l-1.304 -4.134l1.614 -0.508l-0.944 -3.018l-1.788 -3.291l-1.581 0.903l-3.715 -8.651l-2.835 -2.918l-0.405 -4.429l-3.764 -4.584l-5.88 -4.021l-2.608 -4.085l-13.23 3.947l-6.835 5.466l3.375 7.956l-0.585 3.393l4.079 6.05l-16.306 5.185z" />
  </g>
  <g data-zip="11426">
    <path d="m948.508 401.318l-5.217 7.21l10.078 6.798l1.111 10.466l-1.624 1.901l1.167 5.055l-8.319 1.878l-2.131 8.342l1.68 0.494l-0.609 3.147l3.46 12.091l7.168 -3.572l16.187 -5.554l11.191 -1.896l-2.826 -8.717l-0.841 -8.007l-2.624 0.78l-1.398 -4.925l1.853 -0.525l-5.147 -13.014l-5.977 -18.352l-3.476 -4.165l0.998 -3.212l-3.009 -3.935l-6.853 6.286l-4.843 11.425z" />
  </g>
  <g data-zip="11427">
    <path d="m882.203 449.509l2.608 4.085l5.88 4.021l3.764 4.584l0.405 4.429l2.835 2.918l9.559 -5.444l23.454 -18.786l-2.505 -3.246l12.76 3.8l2.61 -2.902l2.131 -8.342l8.319 -1.878l-1.167 -5.055l1.624 -1.901l-1.111 -10.466l-10.078 -6.798l-12.425 9.415l-1.922 2.774l-4.996 7.254l-6.615 6.85l0.222 -1.928l1.203 -1.84l-1.07 -3.827l-30.903 6.926l-3.334 0.761l5.954 7.605l9.968 7.522l-9.641 0.459l-7.53 -0.991z" />
  </g>
  <g data-zip="11428">
    <path d="m898.388 469.147l3.022 9.05l1.581 -0.903l1.788 3.291l33.005 -10.41l0.14 -1.882l5.659 -3.686l4.504 -1.031l-1.198 -3.978l1.214 -0.898l-3.46 -12.091l0.609 -3.147l-1.68 -0.494l-2.61 2.902l-12.76 -3.8l2.505 3.246l-23.454 18.786l-8.866 5.045z" />
  </g>
  <g data-zip="11429">
    <path d="m904.11 484.112l1.304 4.134l1.614 -0.513l3.582 11.112l3.292 9.629l9.61 -3.262l0.389 1.337l8.749 1.216l10.588 -1.269l8.369 2.029l-0.103 -10.044l1.565 -0.017l-0.137 -11.677l-3.971 -20.083l-0.873 -3.127l-4.504 1.031l-5.659 3.686l-0.14 1.882l-33.005 10.41l0.944 3.018l-1.614 0.508z" />
  </g>
  <g data-zip="11432">
    <path d="m805.911 468.491l-5.817 1.288l6.484 1.509l0.83 3.616l-4.407 0.021l0.697 6.879l5.196 12.937l2.343 6.403l2.736 7.631l3.098 -0.931l5.869 -4.516l1.324 2.404l4.187 -1.314l4.139 -1.753l-1.986 -3.395l3.687 2.464l5.904 -6.647l16.589 -2.951l0.09 -1.276l-4.171 -9.354l16.306 -5.185l-4.079 -6.05l0.585 -3.393l-3.375 -7.956l-1.176 -2.001l-1.851 -3.992l-1.417 -3.42l-1.704 -4.805l-4.268 1.856l-0.778 -1.828l-3.869 3.845l-4.611 1.994l-2.071 -1.276l-6.981 2.873l-28.285 12.766l0.783 3.557z" />
  </g>
  <g data-zip="11433">
    <path d="m817.07 507.843l-2.797 1.9l3.352 0.972l-1.201 3.654l3.299 11.117l4.789 5.917l3.919 6.299l3.508 3.634l-0.393 1.993l6.318 -3.548l0.861 1.551l6.006 -1.981l11.289 -5.8l-1.63 -3.052l6.936 -4.765l0.638 3.135l3.031 -0.086l10.633 -7.891l-4.009 -5.559l-6.325 -15.791l0.89 -3.654l7.44 -4.372l-19.503 6.063l3.353 -2.088l-0.692 -3.357l-16.589 2.951l-5.904 6.647l-3.687 -2.464l1.986 3.395l-4.139 1.753l4.526 8.405l-1.682 0.869l-2.181 0.891l-4.85 -8.851l-1.324 -2.404l-5.869 4.516z" />
  </g>
  <g data-zip="11434">
    <path d="m818.419 591.196l-0.904 3.576l12.737 0.855l18.077 3.436l7.676 2.638l6.394 3.663l5.819 2.398l11.989 8.592l2.754 -0.342l-0.596 -5.334l-2.728 0.316l-0.529 -4.582l3.251 0.624l4.731 -14.725l-3.371 -1.403l2.961 -0.522l1.48 -5.036l0.614 -3.607l-0.607 -2.553l1.23 -0.309l-3.235 -2.147l0.666 -4.509l2.145 1.308l3.91 -2.173l4.155 -2.306l-3.272 -6.861l3.202 -0.596l-7.134 -12.658l-7.55 -18.127l1.776 -1.439l-8.43 -8.48l-10.633 7.891l-3.031 0.086l-0.638 -3.135l-6.936 4.765l1.63 3.052l-11.289 5.8l-6.006 1.981l-0.861 -1.551l-6.318 3.548l-0.373 1.914l1.52 4.154l1.824 -0.689l0.11 4.938l2.759 11.39l-2.14 0.952l1.344 3.857l3.026 1.297l-0.733 4.367l3.984 0.838l-2.386 14.648l-6.577 -0.584l-12.272 1.18l-3.213 -0.394z" />
  </g>
  <g data-zip="11435">
    <path d="m775.363 473.871l2.312 5.524l0.591 2.312l5.021 5.835l5.14 10.057l3.307 8.823l4.967 12.583l5.349 12.437l4.92 11.536l3.829 9.887l20.375 -7.624l0.373 -1.914l0.393 -1.993l-3.508 -3.634l-3.919 -6.299l-4.789 -5.917l-3.299 -11.117l1.201 -3.654l-3.352 -0.972l2.797 -1.9l-3.098 0.931l-2.736 -7.631l-2.343 -6.403l-5.196 -12.937l-0.697 -6.879l4.407 -0.021l-0.83 -3.616l-6.484 -1.509l-0.51 -2.825l-12.944 4.577l-1.349 0.775l-9.929 1.566z" />
  </g>
  <g data-zip="11436">
    <path d="m810.799 552.867l8.101 23.225l-0.481 15.104l3.213 0.394l12.272 -1.18l6.577 0.584l2.386 -14.648l-3.984 -0.838l0.733 -4.367l-3.026 -1.297l-1.344 -3.857l2.14 -0.952l-2.759 -11.39l-0.11 -4.938l-1.824 0.689l-1.52 -4.154l-20.375 7.624z" />
  </g>
  <g data-zip="11691">
    <path d="m840.953 755.529l7.838 -0.463l2.132 6.07l0.427 5.747l-3.038 1.238l6.177 -0.057l0.373 3.446l3.461 -0.768l0.041 -3.645l9.055 -0.735l7.602 -2.45l1.058 7.541l3.797 -0.035l20.725 -0.189l1.367 -0.012l6.094 -0.958l1.309 -1.202l8.157 -5.918l10.449 -0.742l2.79 0.311l2.955 0.161l-1.21 -8.996l0.285 -10.679l-8.859 -12.278l-4.616 -9.181l-2.357 -0.045l-2.294 -0.56l-11.735 3.81l-9.525 -2.24l-6.183 -5.554l-6.06 -1.426l-11.939 1.53l-0.942 3.637l8.794 6.014l-2.66 11.24l0.683 4.96l-1.785 5.56l0.351 3.584l5.028 2.536l-2.219 -1.006l-6.534 0.885l-2.078 -2.654l-1.383 -6.521l-2.489 1.888l-1.882 5.15l-4.955 4.077l-3.335 -4.471l3.357 -4.201l3.633 0.65l1.965 -2.908l1.79 -2.038l3.206 -11.7l0.229 -3.06l-2.044 -2.304l-7.371 1.101l-8.272 10.376l1.464 3.06l-1.534 3.525l-9.291 10.899z" />
  </g>
  <g data-zip="11692">
    <path d="m811.809 772.105l0.335 5.467l2.032 4.079l4.649 1.985l47.738 -12.097l9.517 -0.087l-1.058 -7.541l-7.602 2.45l-9.055 0.735l-0.041 3.645l-3.461 0.768l-0.373 -3.446l-6.177 0.057l3.038 -1.238l-0.427 -5.747l-2.132 -6.07l-7.838 0.463l-0.056 5.484l-2.651 0.982l-0.81 -4.798l2.81 -7.443l2.973 -2.602l2.253 -5.254l-4.357 -5.61l-8.274 7.112l-5.612 7.683l-10.954 1.11l-4.074 4.186l3.366 7.267l1.45 3.432l-1.27 4.701l-3.939 0.327z" />
  </g>
  <g data-zip="11693">
    <path d="m786.527 783.228l-1.452 0.747l4.456 5.483l3.598 -0.536l0.372 2.704l10.139 -3.591l5.46 -1.934l9.724 -2.464l-4.649 -1.985l-2.032 -4.079l-0.335 -5.467l3.939 -0.327l1.27 -4.701l-6.523 -6.921l-3.548 4.48l6.963 4.324l-3.231 -0.213l-6.669 -3.854l-3.146 1.637l1.05 1.857l-7.244 3.693l-5.68 4.577l-2.039 1.311l-0.423 5.26z" />
    <path d="m759.813 757.549l-1.163 2.642l4.54 2.192l13.549 -1.101l6.204 0.93l1.163 -1.138l0.348 -2.495l2.23 -3.1l1.423 -4.412l0.324 -4.625l1.064 -2.099l0.839 -4.068l-0.249 -2.889l1.742 -0.157l0.964 -1.9l2.016 -6.704l-2.494 -9.705l2.449 -0.598l-3.118 -4.159l-1.88 1.86l-5.781 -2.565l-5.794 6.482l0.312 2.403l3.57 3.846l0.382 3.279l2.086 -4.031l-0.697 -4.911l1.635 2.987l-0.144 4.939l-4.414 7.926l-0.832 7.116l-2.638 5.316l0.198 4.768l-3.148 -2.678l-4.137 4.305l-5.844 -0.702l-4.702 3.048z" />
  </g>
  <g data-zip="11694">
    <path d="m700.125 825.537l2.424 -0.571l-1.013 5.298l53.163 -24.397l4.741 -2.176l34.061 -12.065l-0.372 -2.704l-3.598 0.536l-4.456 -5.483l1.452 -0.747l0.423 -5.26l-0.322 -2.986l-0.018 3.185l-3.851 2.832l-3.245 -1.655l-8.62 3.292l-0.859 2.907l-13.176 4.684l-5.086 0.398l-1.241 2.025l-10.494 0.654l-9.479 -1.302l-4.702 2.075l-17.7 12.319l-0.573 4.583l-5.995 3.381l3.717 8.438l-5.181 2.738z" />
  </g>
  <g data-zip="11697">
    <path d="m568.237 883.621l-0.031 1.392l41.093 -23.592l22.752 -8.417l16.049 -2.316l24.96 -8.219l6.645 -2.188l10.976 -5.036l10.855 -4.981l1.013 -5.298l-2.424 0.571l5.181 -2.738l-3.717 -8.438l5.995 -3.381l0.573 -4.583l-23.37 15.364l-5.104 2.167l-9.385 -0.569l0.726 1.046l-10.975 1.24l-5.43 -1.529l-4.969 3.874l-0.794 3.129l-7.651 5.325l-5.189 -0.209l-7.024 1.467l-1.936 -2.876l-7.62 -4.054l0.472 1.871l-3.573 0.906l-6.833 4.225l-6.154 1.769l-9.147 1.249l-3.906 3.338l-2.655 -0.633l-2.822 5.301l-7.181 2.024l-6.169 3.553l-2.643 2.942l-0.588 26.306z" />
  </g>
</svg>
