<?xml version="1.0" encoding="UTF-8"?><!DOCTYPE svg PUBLIC '-//W3C//DTD SVG 1.1//EN' 'http://www.w3.org/Graphics/SVG/1.1/DTD/svg11.dtd'><svg viewBox="0 0 1000 995.872" xmlns="http://www.w3.org/2000/svg"><path id="10001" d="m446 393l1 2l2-1l11 6v-1l6 4l10 5l1-4l6 4l7-12l-11-7l1-1l-5-3l-1 2l-10-6l-5-3l2-5l-5-3l-5 9l-2 5z"/><path id="10002" d="m466 479l2 11h4l3-4l1 4l6-1v2l13-2l6-2l4-5l4-14l-3-3l-6-2l-18-5l-7-3l-3 9l-1 4l-3 6z"/><path id="10003" d="m467 438h-5l12 8l2 4l-1 5l7 3l11-20l4-9l-12-7l-1-2l-1 1l-5-3l-5 9z"/><path id="10004" d="m465 509l2 1l3-5l-2-1zm-4 5l-2 3l4 2l3-6l-4-2l-1 3zm-6 12l-1 2l4 2l1-2zm-2 4v2l7 3l-2-3zm-3 7l-1 2l4 1l1-1l2-4l-4-1zm-20-41l-2 4l3 8l5 4h3l2-1v-2h1l2-1l1 2l4-2l-2-3l-2-5h-4l-2-4l-2 2l-5-2zm-18 52l2 1l1 1l10-4l7-3l6-2l1-7l-5-5l-1-1h-7l-11 13zm-35-15l-1 2l2 3l3 2l2-3l10-22l-3-4h-1l-1 1z"/><path id="10005" d="m439 496l2 4h4l2 5l6-5h-1l-6-5l-1-5h-3v1l2 2l-1 1l-2-1z"/><path id="10006" d="m435 489l-3 7l5 2l2-2l2-3l1-2v-1l1-1v-5l-6-4z"/><path id="10007" d="m437 478v2l6 4v5l3-4l5-2h1l2 1l6-3v-3l-3-2l-1 3l-5-3l2-2l-3-2l-3 5l-9-5z"/><path id="10009" d="m493 438l-11 20l18 5l6 2l3 3l4-19v-6l-4-8h-1l-11-6z"/><path id="10010" d="m476 408l-4 6l6 4l5 3l1-1l1 2l12 7l11 6h1l-2-9l3 1l2-17l-1-1l-1 7h-5l4 1l-3 5l-18-10l1-1l-6-3l-6-4z"/><path id="10011" d="m439 409l5 2l2 1l1-2l5 3v2l5 3l5 14l-3 5l3 1h5l6-11l5-9l-6-4l4-6l-10-5l-6-4v1l-11-6l-2 1l-1-2l3-9l2-5h-1l-3 5l-4 12l2 1l-1 7h-4l4 1l1 3z"/><path id="10012" d="m454 450l-1 5l17 10v-2l2 1l3-9l1-5l-2-4l-12-8l-3-1l-3 10z"/><path id="10013" d="m432 462l6 1v4h1l-1 5l9 5l3-5l3 2l4 2l3 2l4 2l2-1l2-5l3-6l1-4l-2-1v2l-17-10l1-5l-3-2l-7-1l-3 8l-1-1l-1 7z"/><path id="10014" d="m433 452l-1 1l8 1l1 1l3-8l7 1l3 2l2-3l3-10l3-5l-5-14l-5-3v-2l-5-3l-1 2l-2-1h-5l5 1v3h-3l-1 4h2v5l-4 2l4 1l-1 11l-5-1l5 3l-5-1l-1 5l6 1l-1 4l-6 1l6 1v2z"/><path id="10016" d="m483 408l6 3l-1 1l18 10l3-5l-4-1h5l1-7l1 1l6-10l-4-1l-20-11l-4 8z"/><path id="10017" d="m496 385l-2 3l20 11l4 1l7-11l-3-5l-11-6l-1 1l-1 2v1l-3 1l-1 1l-2-1l1-1l2-1v-2l1-1l-6-3v1l-4 6l3 2l-1 1l-2-1z"/><path id="10018" d="m448 371l4 4l-2 4h1l5-9l5 3l-2 5l5 3l10 6l1-2l5 3l-1 1l11 7l4-8l-6-3l1-2l-18-9l-4 1l-3-2l3-2l-8-6l-1-1l-5 8z"/><path id="10019" d="m454 361l4 3l1 1l7-8h4l3 4l22 12l1-2l-5-2v-2l5 3l4 2h3l1-2l-6-3l1-2l6 4l4-8l1-2l-15-8h-2v-1v-2l-9-3l-5-4l-1 1l-5-3h-1h-4l-2 2l4 3l-4 5l-4-2l6 4l-1 2l-6-4l5 4l-1 2l-6-3l-1 1l6 4l-1 2l-6-2l6 3l-2 2l-5-4l3 5z"/><path id="10021" d="m535 371l-1 2l1 1l1-1l4-4l-5 1zm-11-37l-6 11l24 13l3 3l2-2l8-12h-1l-1 2v1l-5-3l-3-4l-14-7z"/><path id="10022" d="m502 373l-1 2l6 3l3 1l1-1l11 6l3 5l7-9l3-6l-1-1l1-2l-6-5l-3 1l-15-9l-1 1l3 2l-1 2l-3-2l-4 8l-1 1l-1 2z"/><path id="10023" d="m481 330l-2 11l5 4l9 3v2l15-25l-6-5l-7-2l-2-3l-4-1l-2 7h-2z"/><path id="10024" d="m483 319l1 1l1 1h2l2-7l4 1l2 3l7 2l6 5l13-23l-19-10l1-4l5-5l1-5l6-9l7-14l1-1l2-5l1-1l5-10v-3l1-2l-2-2l-4 6l-16 29z"/><path id="10025" d="m503 288l-1 4l19 10l12-23l4-6l-3-1l2-5l1-6l2-4l3-6l-5-3l1 3l-4 11l-4-1l-5-2l1-4l-3-1l-1 1l-7 14l-6 9l-1 5z"/><path id="10026" d="m536 267l-2 5l3 1l16 9l5-9l3-6l-16-9l-6-1l-2 4zm-6-6l-1 2l4 2v-2z"/><path id="10027" d="m525 249l-2 5l3 1l-1 4l5 2l4 1l4-11l-1-3l5 3l-3 6l6 1l16 9l-3-2l4-6l4-1l3-5l-6-4l3-5h-1l-4-1l-7-6l4-13l-3-2l1 4l-4 6l-5 2l-14-8l-5 4l2 1l2 2l-1 2v3l-5 10h2l-1 2z"/><path id="10028" d="m533 317l-6 11l12 6l18 10l-1 2l5-8l-2-1l1-4l-12-6l-10-5l1-2z"/><path id="10029" d="m541 303l9 5v-1l12 6l-1 1l2 2l7-7l7-14l8-6l-3-4l-4-1l-20-11l-5 9z"/><path id="10030" d="m558 224l-4 13l7 6l4 1h1l-1-3h3l6-12l2-3l-10-6l-1 2l-2-1l1-2l-3-2z"/><path id="10031" d="m537 220l-4 6l14 8l5-2l4-6l-1-4l3 2l3-7l3 2l7-12l1-3l-3-2l-2 3l-15-8v-3l-1-1l-7 13l-4 2l-6 10z"/><path id="10032" d="m551 193l1 1v3l15 8l2-3v-3l4-6l5-12l-1-5l2-4l-8-4l-2-3l-8 1l-1 2l4-12l-7-2v7v2l1 5l-3 8z"/><path id="10033" d="m560 168l1-2l8-1l2 3l8 4l5-8l5 2l11-22l1-2h-1v-8l-3-6l-5 8l5 4l-6 11l-20-10l-7 12v3z"/><path id="10034" d="m563 150l-6 4l7 2v-3l7-12l7-10l2-6h2v7l3 1l3-12l8-4l1 2l-4 2l4 7l3 6v8h1l2-5l-1-4l4 1l4-7l4-4l7-12l1-9l-1-2l-6-3h-8l-4-2l2 4l-1 2l-3-3v-6l-1-2h-6l-6 5l-5 13v6l-10 18z"/><path id="10035" d="m577 308v6l15 6l8-6l1-5l7-9l6-6l2-7l-2-5l-9-6l-3-5l-7-1l-3 9l1 7l-3 7l4 2l-8 1zm-16-41l-3 6l20 11l4 1l3 4l4-5v-12l-3-9l-5-6l-3 2l-3-4l-6-3v1l-3 5l-4 1l-4 6z"/><path id="10036" d="m466 357l-7 8l8 6l-3 2l3 2l4-1l18 9l-1 2l6 3l2-3l-6-3l1-2l6 4v-2l4-6l-6-3l-22-12l-3-4z"/><path id="10037" d="m566 244l-3 5l6 4v-1l6 3l3 4l3-2l-1-5v-11v-13l-1 2l1 2l-6-3l-6 12h-3z"/><path id="10038" d="m443 489l-1 1h3l1 5l6 5h1l-6 5l2 3l5-4l-1-3l10-8l1-1l12-2l-1-4l-3 4h-4l-2-11l-2 1l-4-2v3l-6 3l-2-1h-1l-5 2z"/><path id="10039" d="m564 219l-1 2l2 1l1-2l10 6l-2 3l6 3l-1-2l1-2l-2-34l1-4v-1l10-23l-5-2l-5 8l-2 4l1 5l-5 12l-4 6v3l3 2l-1 3z"/><path id="10040" d="m578 131l-7 10l20 10l6-11l-5-4l5-8l-4-7l4-2l-1-2l-8 4l-3 12l-3-1v-7h-2z"/><path id="10044" d="m530 394l1 1l8-9l8-9l17-27l4-4l1-7l-4 2l-21 30l-3 5l-5 8l-1 1l-2 4z"/><path id="10065" d="m518 345l-7 13l15 9l3-1l6 5v-1l5-1l7-10l-2 2l-3-3z"/><path id="10069" d="m472 338l-4-2l4 3h1l5 3l1-1l2-11l4-9l-1-1l-8 3h5z"/><path id="10075" d="m527 328l-3 6l7 2l14 7l3 4l1-1l2 1l1-1l2 1h1l1-1l1-2l-18-10z"/><path id="10128" d="m570 324l1 1l1-1l-1-2l3-2l-1-1l-2 1zm-37-7l6 3l-1 2l10 5l12 6l-1 4l2 1l4-6l-3-13l1-3l-2-2l1-1l-12-6v1l-9-5z"/><path id="10280" d="m426 496l2 4l2-4h2l3-7l2-9l-5-3l-2 3l2 1l-4 2z"/><path id="10282" d="m431 466l-1 14l2-3l5 3v-2l1-6l1-5h-1z"/><path id="10301" d="m293 719l-2 2l3 1h3v-1l-3-1l-1-1zm-45-26l-2 5l3 9h6l1 15l5 3l2 1l-1 10l-8 9l4 4l6-1l-4-1l-2-5l10-3l6 3l2-1l2-4l7-2l3-3l1-5l-3 1l-1-3l-3-5l3-1l3-6v3l5 3l2-5l-4-4l2-4l6 4l3-1l1-6l-3-2l2-1v-7l-1-9l4-6l-2-2l4-7l3-2l3 3l6-8l-2 8h5l-1 2l3 2l2-5l-1-5h2l-1-4h5l-1-9l4-1l-4-6l-2-1h-1l-4-5l-5-3l-13-1l-1 1l-26 6l-5 2l-4 2l2 12l2 4h2l2 6l-7 1l2 15l3 10l-6 5l-6 3l-6-6l-6-4z"/><path id="10302" d="m188 708l7-9l2 2l3 1v4h-3l-1 3l10 1l1-7l-1-5l9 1l1-5l4 3l3-1l1 2h2v-4l-3-1l6-12l-3-6l4-5l3-9v-7l-1 1l-4-3l-23 3h-2l-3 13l-1 7l4-1l-4 2v7l-1 7l-3 7z"/><path id="10303" d="m106 673l1 1l3 2h4l1 5h3l2-4l2 4l5 1l1 2l2-2l11 8l3 3l-1 7l-3 13l-4 8l3-4l5-10l3-4l10-4l2 1l6 3l1-5l22 1l4-3l1-6h5l1-7v-7l4-2l-4 1l1-7l3-13l-10 1l-2 4l-5-3l-3 4v-4l-28-8l-7-6h-3v3h-2l-2 2l-2-1v-5h-2l-4 2l-8 3l-4 2l-1 1l-4 5l-9 11l7 4l-6 5z"/><path id="10304" d="m245 778l-6 7l8 8l1 8l2 1l3-2l3-4l11-9l13-14l-3 3l7 4l16-16l3-5l4-12l7-12l4-7l9-19l6-6l2-4l-6-8v-5l1-8l8 4v-1l-8-3l-1-15h3l-3-3h2h-5l1 4h-2l1 5l-2 5l-3-2l1-2h-5l2-8l-6 8l-3-3l-3 2l-4 7l2 2l-4 6l1 9v7l-2 1l3 2l-1 6l-3 1l-6-4l-2 4l4 4l-2 5l-5-3v-3l-3 6l-3 1l3 5l1 3l3-1l-1 5l-3 3l-7 2l-2 4l-2 1l-6-3l-10 3l2 5l4 1l-6 1l3 5v3l-4 2l-2-1l-4 4z"/><path id="10305" d="m284 780l-6 6l7 7l3-3l8 5l-3 4l8 5l-2 2l8 5l-6 4l-7 10l4 4l40-42l17-22l2-5l9-19l-7-10l-6-10l-4-7l-3-8l-4-1l-5-4l-8-15v5l6 8l-2 4l-6 6l-9 19l-4 7l-7 12l-4 12l-3 5z"/><path id="10306" d="m155 819l1 10v1l6-2l2 3l1 1l-1 9l-2 3h2h2l13-6l4-7l5-5l15 17l7 5l-11 11l3 1l6-3l4 3l1-1l6 6l7-7l6-7l14 12h3v4l3 3l2-1l4 5h1l6-10l4-4l3 2l2-3l8-10l1-1l9-12l6-7l-4-4l7-10l6-4l-8-5l2-2l-8-5l3-4l-8-5l-3 3l-7-7l6-6l-7-4l3-3l-13 14l-11 9l-3 4l-3 2l-2-1l-1-8l-8-8l6-7l6-16l4-4l2 1l4-2v-3l-3-5l-4-4h-3v7l-5 2v-9h-2v3l-4 3l-6 14v7l-3 3v4l-2 3l-1 6l-2 2l-5-3l-1-5l-9-6l-12 1l-1 6l-11 13l-5 3z"/><path id="10307" d="m59 966v9l3 6l3-1l17-15l1-3l-1-3l-4 2zm-59 2l1 6l2 7l8 13l6 2l24-12l2-1l7-1l-8-34l-3-2l-1-6l-13-2l2 3l-9 2l-3 2l-1 2l-8 7z"/><path id="10308" d="m166 844h-2l3 16l2 10h2l1 4l-3 4l5-3l1 4l13 18l4 1l4 4h4l5-4l1-11l4-5l7-5l-3-2l-2-3l2-3l5-4l-6-6l-1 1l-4-3l-6 3l-3-1l11-11l-7-5l-15-17l-5 5l-4 7z"/><path id="10309" d="m15 884v1l5 11l1 5l5 12v2l-2 22l1 1l13 2l1 6l3 2l8 34h4l8-1l-3-6v-9l19-5l4-2l1 3l5-4l11-2l2 3l11-7l1-6l-8-16l-3-5l8-10l-2 1l-2-6l-10 2l-1-2l9-5l-8-23l-6 1l-9-27l-4 1l3-2l12-4l-2-2l-11 2l-2-3l-6 7l-1 1h-21z"/><path id="10310" d="m223 693l3 1l8-1l3 2l4-3l5 6l2-5l3-2l6 4l6 6l6-3l6-5l-3-10l-2-15l7-1l-2-6h-2l-2-4l-2-12l4-2l-28 6l-1 1v2l-6 2h-5v7l-3 9l-4 5l3 6z"/><path id="10312" d="m80 855l-3 2l4-1l9 27l6-1l8 23l-9 5l1 2l10-2l2 6l2-1l-8 10l3 5l8 16l-1 6l21-14l8 2l2-1l29-16l1-1l18-15l2-2l7-1v-2h-4l-4-4l-4-1l-13-18l-1-4l-5 3l3-4l-1-4h-2l-2-10l-3-16h-2l2-3l1-9l-1-1l-2-3l-6 2v-1l-2-1h-9l-4-9l-2-2l-9-5l-5-8l-9 2l-11-5l2 7l5 19l1 3l-12 12l-4 4l-7 3l2 2z"/><path id="10314" d="m77 848l2 3l11-2l7-3l4-4l12-12l-1-3l-5-19l-2-7l11 5l9-2l5 8l9 5l2 2l4 9h9l2 1l-1-10l27-20l5-3l11-13l1-6l12-1l9 6l1 5l5 3l2-2l1-6l2-3v-4l3-3v-7l6-14l4-3v-3h2v9l5-2v-7h3l8-9l1-10l-2-1l-5-3l-1-15h-6l-3-9l-5-6l-4 3l-3-2l-8 1v4h-2l-1-2l-3 1l-4-3l-1 5l-9-1l1 5l-1 7l-10-1l1-3h3v-4l-3-1l-2-2l-7 9l7-11l3-7h-5l-1 6l-4 3l-22-1l-1 5l-6-3l-2-1l-10 4l-3 4l-5 10l-3 4l4-8l3-13l1-7l-3-3l-11-8l-2 2l-1-2l-5-1l-2-4l-2 4h-3l-1-5h-4l-3-2l-1-1l2 2l6-5l-7-4l-4 5l-3 4l-2 21v7l1 7h1l8 1l1 34l-2 12l-13 18l-1 3l-3 19l-1 1l-1 11l-3 12l-4 21v1z"/><path id="10451" d="m582 208l1 20v13v11l1 4l10-9l8-5l3-2l2-6l3 1l-3-3l3-8l9 3l1-1l3-1l1-4l2-4l-5-2l-1-3v-4l-6 3l-9-3l2-6l-3-1l-4 10l-10-6l-4 2z"/><path id="10452" d="m581 196l1 12l4-1l4-2l10 6l4-10l3-5l8-11l3-5l2-8l1-5l-7-2l-4 1v-2h-7l-3 4h-3l-6-2l-3 8l-6 16z"/><path id="10453" d="m591 166l6 2h3l3-4h7v2l4-1l7 2l7-6l12-20l1-3l-8-3l-4-2h-2l-3-2l-2-1l-3 1l-2 2l-5 2l-2 6l-3-3l-9 16z"/><path id="10454" d="m584 256l8 12l8 1l2 2l4 5l11 6h4l6-6l8-13l2 1l1-1l-1-3l-1-8l-9 6l5-4l-9-2l-1 2l-8-4l1-3l-8-5l-2 2l-3-2l-8 5z"/><path id="10455" d="m605 240l-3 2l3 2l2-2l8 5l-1 3l8 4l1-2l9 2l-5 4l9-6l10-10l4-5l-9-7h-3l-2-3l-4 5l-9-5l-3-1l-1 1l-9-3l-3 8l3 3l-3-1z"/><path id="10456" d="m607 196l-3 5l3 1l-2 6l9 3l6-3v4l1 3l5 2l-2 4l-1 4l-3 1l3 1l9 5l4-5l1-2l1-4l2-8l2-4l1-10l5-4l-1-2l-8-3l1-3l-9-4v-3l-4 6h-3v-4l-3 2l-3-4l-3 5z"/><path id="10457" d="m620 172l-2 8l3 4l3-2v4l1-3l-1-11l8 1v5l-1 2v3l9 4l7-16l1-8l5 1l-3 8l5 5l14-20l1-5l-7 1l1-3l-13-9l-2 1l-8-4l-1 3l-12 20l-7 6z"/><path id="10458" d="m643 133l-2 5l8 4l2-1l13 9l-1 3l7-1l2-5l2 1l2-9l6 4l-6-5v-9l-6-10l8-7l-4-10l-1 1l-4-15l-5 13l-1 2l-7 6l-5 8l-4 9z"/><path id="10459" d="m637 225l-1 2l2 3h3l9 7l9-12l4-3l1-1l5-1v-7l2-7v-2l6-12l-4-2l-4 8l-1 4l-14-7l-2-4v4h-4l-5 4l-1 10l-2 4l-2 8z"/><path id="10460" d="m647 193l1 2h4v-4l2 4l14 7l1-4l4-8l4 2l2 1l4-4l14 1l4 2l7 1l-1-9l-2-4l1-1l-1-2l-1-4l-5-5l-1-1l-3-1l-3 5v-2l-5 7l-6-3l5-13v-7l2-5l-5-1l-1-4l-6-4l-2 9l-2-1l-2 5l-1 5l-14 20l7 4l1-1l2 1l-1 3l-7 3l-5 1z"/><path id="10461" d="m710 136v3l16 28l3 3l-7 2l3 1l1 4l13 11l5 3l5-1v1l-7 9l-1 2l4-2l6-5v-6l-1-6l1-6l1 1v13l4-2l2 5l5-3l6 2l1 2l-5 6l10-7v-8l-1-14l2 1v-8h-1l-2-11l1-12l-4-13l-6 10l-1 1l-1-1v2l-5-1l-2-2l-12-2l-10-1l-14 1z"/><path id="10462" d="m692 169v2l3-5l3 1l1 1l5 5l1 4l1 2l-1 1l2 4l1 9l-7-1l7 4h5l27 11h2l2-1h1v-6l-4 2l1-2l7-9v-1l-5 1l-5-3l-13-11l-1-4l-3-1l7-2l-3-3l-16-28v-3l-12 1l-1 3h-3l-2 6l1 10z"/><path id="10463" d="m596 86l5 1l5 5l8 3l8 3l4 6l-1 9l5-13l-3 10l-1 4l3-3l5-3l2-3v-7l2-5l3-2l-1 6l4 2l2 5l11-17l6-10h2v-3l-16-4l-7-2l-5-1l-1-5l-5-2l-1 6l-5-5h-7l-6-4l-1 11l5 1l-4 3l-4-1v-3l-4-1z"/><path id="10464" d="m872 144l-1 8l3 4l-2 7l4 5h4h1l-5-8l2-7l1-7l3-2l2-1l-7-7l-3-5l-3 1zm-37-5v3l5 10l-2 12l5 10l5 10l2 3l3-2l2-3l-2-8v-1l1-5v-5v-1l-5-10v-1l-5-5h-1l-1-11l-2-2zm-56-38l4 9l9 7l-1 4l3-2v5l2-2l6 3l6 10v-4l1-2h2h2l-1 6h1l-1 8l3 8l3 8l3 1l4-9l-1-6l8-5l1-6l3-4h2l-4-7l3-13l10-1l4-5v-5l-3 4l-1-4l-3 2l4-9l-2-6h-5l-2-4l-5 4l-3 4l2 1l-1 7l-2 4l-5 1l-8 15l-1-3l-3 1v-4l-4-1l-3-6l6 6l4-1l1-3l3-2l3-8l2 1l3-7l5-14l1-1l-37-13h-3v5l-7 2l-1 1v8z"/><path id="10465" d="m744 206l1 2l7 14v6l-3 6v2v10l4 14l6 3h5l1-5l-1-5l4-5h6l11-5l6-1l12 1l12 11l4-1l6 6l4 1l4 4h5l1-1l-1-6l-1-1l-11-3l-6-2l-3-1l-4-4l-1-7l-3-3l4 2l4 7l9-8l-5-5l-8-2l-6-16l-1-1l-6 3h-1l-1 2l-1-1v-3l-1-1v-2l2-2l-4-8v-1l-1-9l2-9l-2-8l-5-5l9 1l-2-1l-2-11l-8 1l-9 6v8l-2-1l1 14v8l-10 7l5-6l-1-2l-6-2l-5 3l-2-5l-4 2v-13l-1-1l-1 6l1 6v6l-6 5v6z"/><path id="10466" d="m711 49l-7 19l12 4l5 2l15 8l7 2l1 1l3-2l5-2l10-7l14-6l3-3l7-5l-6-3l-1 4l-27-10l-2-8l1-5l-3-5l-1-7h-6v-1h-2l-2 7l-5-3l-7 12l-3-2l-2 3v-4l-5-2l-7 12z"/><path id="10467" d="m651 67l-2 3l16 4v3l2 6v4l2 1l4 15l1-1l4 10l6-5l7-11l3-8h1l1 1l-1 6l-1 9l1 20l-2 14l3-1h2l12-1l1-23l-2-4l2-4v-8l10-23l-5-2l-12-4l7-19l-3-1l-1-1v3l-7 15l-3 11l-3 7l-7 1v-4l-6-1v-12l-4-12v-8l-1-3l3-7l2-15l-13-5h-2v3v10v6l2 3l1 7l-5 15z"/><path id="10468" d="m607 138l3 3l2-6l5-2l2-2l3-1l2 1l3 2h2l4 2l8 3l2-5l4-7l4-9l5-8l7-6l1-2l5-13l-2-1v-4l-2-6h-2l-6 10l-11 17l-2-5l-4-2l1-6l-3 2l-2 5v7l-2 3l-5 3l-3 3l1-4l3-10l-5 13l1-9l-2 8l-9 14z"/><path id="10469" d="m709 109l2 4l-1 23h9l14-1l10 1l12 2l2 2l5 1v-2l1 1l1-1l6-10l-2-2l-6-15l-4-16l-6-15l-5 2l-3 2l-1-1l-7-2l-15-8l-10 23v8zm-18 26l1 11l2-6h3l1-3h-2l-3 1l2-14l-1-20l1-9l1-6l-1-1l-1 5l-3 14v6l1 10z"/><path id="10470" d="m676 44l1 3v8l4 12v12l6 1v4l7-1l3-7l3-11l7-15v-3l1 1l7-12l5 2v4l2-3l3 2l7-12l5 3l2-7h2l-1-2l-9-4h-6l4-6h-2l-4 4l1 4l-4 1l-2 2v6l-2 1h-2l1 4l-10-3l-6-3l-18-7l-2 15z"/><path id="10471" d="m606 58l-2 9l4 1v3l4 1l4-3l-5-1l1-11l6 4h7l5 5l1-6l5 2l1 5l5 1l7 2l2-3l13-6l5-15l-1-7l-2-3v-6v-10v-3l-19-8h-1l-24-9l-2 3l-4 23l-2 3l-5 21z"/><path id="10472" d="m669 213v7l68-12l3-1l-27-11h-5l-7-4l-4-2l-14-1l-4 4l-2-1l-6 12v2z"/><path id="10473" d="m669 220l1 1l6 10l6 4l11 5l7 9l9 1l3 2l3-1l2 11l7 2h7l5-2l-2-4l-3-4l2-6v-3l-6-4l6 2l4 6l3-3l2-7l4-9l3-3v-3l-4-16l-1-2l-2 1h-2l-3 1z"/><path id="10474" d="m636 252l1 8l1 3v-3h6l7-3l12 6l4 6h4l9-2v4l9 2l3-2l7-13l-7-16l-14-6l-6-8l-2-7l-1-1l-5 1l-1 1l-4 3l-9 12l-4 5z"/><path id="10475" d="m752 81l6 15l4 16l6 15l2 2l4 13l-1 12l2 11h1l9-6l8-1v-2l-1-3l-1-6h1l-4-8l7-3v-7h-6l-5 3l4-6l2-3l1-2l1-4l-9-7l-4-9l7-22v-8l1-1l7-2v-5l-8-3l-7 5l-3 3l-14 6z"/><path id="11004" d="m962 381l-2 3l3 4l-1 3l4 4l6 18l5 13l8-2l1 5l1-5l13-4l-1-5h1v-5l-3 1l-2-9l-2-11l-6 4l-4-3l9-10l-5-3l-8 10l-3-7l-2-2l-4 1l-7-3z"/><path id="11101" d="m529 419v6l10-6h5h3l10 4l8 4l4 6l1 4l4 4l5 3l10 2v-1l-5-2l-10-11l10-7l11 2v-1l-3-1l3-25l9 1l1-6l19-5l-2-4h-3l-6-2h-1v-1l-11-7l-7 12l-19-14l-12-6l2-3l-4-2l-11 18l-1 2l-10 13l4 2l-3 10l-4-1l-5 4z"/><path id="11102" d="m573 336l1 4l4 2v5l24 14l10-14l3-1l1-4l-13-12l-1-3l7-8l-4-3l-7 8l-8 6l-3 1l-3-4h-5l-3 2z"/><path id="11103" d="m603 370l-2 6l11 7v1h1l6 2l2-3l-2-4l3-5h3l3-5l2-4l1 1l2-3l-1-2l3-5l1-2l2-2h-4l-12-3l-6-7l-1 4l-3 1l-10 14l5 3z"/><path id="11104" d="m592 425l3 1l3 1l2-11l11-5l3-1l-1-4l2-10l8 1v-1l1-6l-19 5l-1 6l-9-1z"/><path id="11105" d="m602 327l1 3l13 12l6 7l12 3h4h2l1-3l12-13l1 1l2-7l-1-2l2-2l-2-3l1-3l-3-4l-5-1l-4 2l-5 1l-2 3l2-5l5-1l5-6l-8-8l-17-5l-1 1l-4 3l-8 10l-1 2l-5 4l4 3z"/><path id="11106" d="m561 363l4 2l-2 3l12 6l19 14l7-12l2-6l4-6l-5-3l-24-14v-5v3l-11 8z"/><path id="11109" d="m531 411l5-4l4 1l3-10l-4-2l-2 3l-2 4z"/><path id="11201" d="m446 545l1 1l6-1l4 1l2-5l12 6v1l8 4l6-12l4 2l5-4l2-2l14 1l-2-9l-11-3l-1-9l1-11l2-6l-14 1l-11-1l-3 3l-1 3l-3 5l-1 3l-3 6l-2 5h-1l-1 4l-1 2v2l2 3l-2 1l-2-1l-2 4l-1 1l-5 3z"/><path id="11203" d="m555 607l1 9v2l2 15h-2l1 9l1 12h6l1 3l8-1l1 6h3l1 5h1h4l1-1l10-7l5-4l2-3l1-1l4-3h-2h-2v-1l2-2l1-1l-1-15l-2-9l-10-9v-2l-1-2l-7-6v-2l-15 1h-5l1 6z"/><path id="11204" d="m466 703l-6 8l12 10l11 9l1 2l24-3h2l-4-29l-3-2h1v-10l-1-4l-4-4l3-3l-1 1l-4-5l2-3l-4-3l-20 25z"/><path id="11205" d="m497 505l-1 11l1 9l11 3l2 9v5l1-5l3 5l11-2l-1-3l9-2v4l5-1v2l11-3l-1-5l-3-18l-6 1l-8 1l-3 1l-5 1l-14-1v-6l-4 3v-6l1-3l-2 2l-5-8z"/><path id="11206" d="m538 510l1 5l6-1l3 18l11-3v2l10-1l5-3l6 1l-1-8l-1-1l9-3l4-3l-2-1l3-4l-7-5l-2-9l-4-14l-7 2l1 4l-4 1v-1h-7h-13l2 13l-8 4l1 2z"/><path id="11207" d="m625 528l-13 17l22 17h1l-2 3l2 5l6 28l-1 8l3 7l2 9l1 1v-1l3 2l4 5l4-4l2 3l14-8l7 13l4-4l-6-11l6-4l-5-10l-7-16l-6-36l-3 2l-3-4l-5 2l-3-5l-4 7l-9-13l2-1l-3-9l-3 4z"/><path id="11208" d="m660 550l3 4l3-2l6 36l7 16l5 10l-6 4l6 11l-4 4l4 7l3 3l2-4l2 3l4 3l3 10h5l8-7l9-2v-2l-3-6l3-7l-6-10l-2-1l-4-9l5-3l5-1l-2-8l5-1l-3-18h-5l-2-8l-2-10l-2-1l-1-7l-4-2l-4-27l-1-1l-9 2l-10 7l-7 8l-2 3z"/><path id="11209" d="m385 691l4 24l1 4l6 7l9 11l7 2l1 1l10 2l3 1l7-10l-2-2l-3 2l-6-2l-3 5l-2-1l1-2l-4-2l3-4l3-12l-4-2l-3 6h-1l3-7l11-15l6-21l-18-11l-19-9l-3 6l-1 3l-1 5z"/><path id="11210" d="m536 663v3h2l2 10l-2 1l2 2l4 32l3 12h3l3-7v3l1-2v-1l3-1v-6h1l1 4l2-1l8-13v-3l8-2l-2-4l5 1l1-2v-5h-2v-6h1v-5h-2l1-6h-1l-1-5h-3l-1-6l-8 1l-1-3h-6l-6 1l1 3h-8l-1-1l-3 3z"/><path id="11211" d="m505 508v6l4-3v6l14 1l5-1l3-1l8-1l-1-5l6-5l-1-2l8-4l-2-13h13h7v1l4-1l-1-4l7-2l21-7l-2-8l-7-16l-2-3l2 7l-14 5l1 3l-2 1l2 6l-4-1l-5 2l-1-2l-17 2l-1-8l-2-5l-5 7l-3-2l3-2l-2-4l-3-2l-1 2l-7-2v3l-2 2l-8 15l-3 10l-2 7l1 4l-1 1l-5-5l3 6v2l-6-5v1l4 4h-4l6 5h-2l6 5l-6-4l-2 2l5 6l-4-4l1 4l-4-3l-1 4l1-5z"/><path id="11212" d="m584 599v2l7 6l1 2v2l10 9l1-1l7 2h14l3-1l9-2l7-5l-3-7l1-8l-6-28l-20 12l-10 4h3l-8 4l-3 2l-3 2l-4 2l-4 3z"/><path id="11213" d="m555 586v7h10l-1 5l5 2l15-1h2l4-3l4-2l3-2l-2-5l1-15l-10-2l3-9h-10l-5-1h-7l-1 9l-5 1l-4-2l-2 16z"/><path id="11214" d="m435 745l7 3l13 12l4 8l5-3l-3 5h5l-3 3l2 4l-5 3l10-5l2 1l-8 6v2l-4 4l1 2l7 2l11-6l-3 7l6 5h1l3-5l1 1l3-4v-1l2 1v-2l-3-23l-5-26v-7l-1-2l-11-9l-12-10l-12 15l-4 3l-8 11z"/><path id="11215" d="m457 624l8 6l-1 2l8 6l9 7l13-7l3-1l-3-18l4-5l5 4l3-8l-9-6h1l14-22l3-5h-1l-21-13l-10-4l-1 1l-4 9h-8l-6 9v1l6 11l-1 3l7 6l-2 3z"/><path id="11216" d="m537 582l5 1l13 1l2-16l4 2l5-1l1-9h7l-2-10l-10 1l-2-13l-5 1v-4h5l-1-4v-2l-11 3l1 5l-11 3l1 3l2 17l1 1l4 2l-4 1z"/><path id="11217" d="m479 552l-1 1l4 4l1 2l-1 2l1-1l10 4l21 13l-1-6l-1-3l-1-2l3-12l-4-1l1-6l-2-5h1v-5l-14-1l-2 2l-5 4l-4-2z"/><path id="11218" d="m481 645l-5 4l8 7l-1 1l5 2l7 8l4 3l-2 3l4 5l1-1l13-9l9-4l-2-10v-15l-2-3l1-5l4-2l-3-6l-10 5l-1 1v-1l-3-14l-2-4l-3 8l-5-4l-4 5l3 18l-3 1z"/><path id="11219" d="m438 681l1 1l11 8l3 5l5 2l8 6l9-11l20-25l-7-8l-5-2l1-1l-8-7l5-4l-9-7l-7 9l-2 3l-8 9l5 4l-1 1l-5-3l-7 9l2 3l-3-2l-5 6z"/><path id="11220" d="m397 653l-2 3l19 9l18 11l6 6h1l-1-1l3-4l5-6l3 2l-2-3l7-9l5 3l1-1l-5-4l8-9l2-3l-4-3l-4-4v1l-8-6l1-2l-8-6l-1 1l-4-3l-10 13l-3-4l-7-5l-2 3l3 5l-3 1l-7-4l6 6l-4 5l-4-3l-4 4l-1-2z"/><path id="11221" d="m555 535v4l5-1l2 13l10-1l11-2l26-4v-1l3 2l13-17l-5-4l3-4l-3-2l-3 4l-5-4l-3 3l-17-13l-3 4l2 1l-4 3l-9 3l1 1l1 8l-6-1l-5 3l-10 1l1 4z"/><path id="11222" d="m529 425v10l2 8l-1 10l7 2l1-2l3 2l2 4l-3 2l3 2l5-7l2 5l1 8l17-2l1 2l5-2l4 1l-2-6l2-1l-1-3l14-5l-2-7l-10-2l-5-3l-4-4l-1-4l-4-6l-8-4l-10-4h-3h-5z"/><path id="11223" d="m484 732v7l5 26l3 23l10 2l15-2l2-2h2l-4-1l5-2l-3-6l4-1l1-5l8-1l3-1l-1-6h-2l2-5l-4-21l-1-11h-3l-16 3h-2z"/><path id="11224" d="m438 801l2 9l2 1l9 4l6 4h1l19 1h1l15-3l41-6v-2h-13l-6-1l2-11l3-1v-3l-7-1l1-3l7-1v-2h-2l-2 2l-15 2l-10-2v2l-2-1v1l-3 4l-1-1l-3 5h-1l-4-1v2l-13-3v-3l-3 1l-12-2l-6 2z"/><path id="11225" d="m528 598l-4 4l4 13v3l2 1l4-1v-1l12-1h10l-1-9l10-1l-1-6h5l-5-2l1-5h-10v-7v-2l-13-1l-5-1l-8-2l3 19l-3 1z"/><path id="11226" d="m521 631l-1 5l2 3v15l2 10l4 5l8-6l5-3l3-3l1 1h8l-1-3l6-1l-1-12l-1-9h2l-2-15v-2h-10l-12 1v1l-4 1l-8 4l3 6z"/><path id="11228" d="m412 719h1l3-6l4 2l-3 12l5 4l6 2l3-2l2 2l-7 10l1 1h4l4 1l1-5l8-11l4-3l12-15l6-8l-8-6l-5-2l-3-5l-11-8h-1l-6-6l-6 21l-11 15z"/><path id="11229" d="m529 726l1 11l4 21l-2 5h2l1 6l47-7l5 1l1 2l-2 5v4l5 2v3l4 6l10 1l4-2v-2l-21-25l3-2l-10-12l7-5l-7-8l-1 1l-4-4l-2 2l-4-4l-6-7l-1 1l-1-1l-1-6l-2 1l-1-4h-1v6l-3 1v1l-1 2v-3l-3 7h-3z"/><path id="11230" d="m502 677l-3 3l4 4l1 4v10h-1l3 2l4 29l16-3h3l18-3l-3-12l-4-32l-2-2l2-1l-2-10h-2v-3l-8 6l-4-5l-9 4l-13 9z"/><path id="11231" d="m428 565l-3 3h3v5l2 2l-3 3l5-2l2 2l3-3l-2 5l5 2l3 5l-4 7h-6l-1 2l-2-15l-3-1l1 2l1 12l1 1l4 1l6-1l4-8h5l2-6v7l5 2l1-3h4l2-7l1-1l6-9h8l4-9l1-2l-1-2l-4-4l1-1l-8-4v-1l-12-6l-2 5l-4-1l-6 1l-1-1l-12 9l-8 7z"/><path id="11232" d="m423 628l-6 1l7 5l3 4l10-13l4 3l1-1l8 6l2-2l8 6l-3 3l4 4l4 3l7-9l-8-6l1-2l-8-6l17-21l2-3l-7-6l1-3l-6-11l-1 7l-2 2l-5 3l6 5l-3 3l-7-5l3 5l-8-4l8 6l-4-2l-1 3l-5-4l-3 2l6 5l-3 2l-7-6l-2 2l5 4l-1 2l-7-5l-3 4l5 4l-2 3l-5-4l4 6l-3 3l-4-3l1 3l-2-1l-3 6z"/><path id="11233" d="m572 550l2 10l5 1h10l-3 9l10 2l-1 15l2 5l3-2l8-4h-3l10-4l20-12l-2-5l2-3h-1l-22-17l-3-2v1l-26 4z"/><path id="11234" d="m561 712l1 6l1 1l1-1l6 7l4 4l2-2l4 4l1-1l7 8l-7 5l10 12l-3 2l21 25v2l-4 2l-10-1l-10-2l2 3l-3 4l4-1h12l12 4h8h6l21-4l1 3l-1 6l2 7l8-3h8l9-3l4-2l5-12l-3-5v-6l-12-36l-24 2v-3l13-9h5l2-1l-17-27v-2h-6l3-3l-14-10l-19-11l-3-1l-3-3l2-2l-1-17l-4 3l-1-2l-2 3l-5 4l-10 7l-1 1h-4l-1 6h2v5h-1v6h2v5l-1 2l-5-1l2 4l-8 2v3z"/><path id="11235" d="m514 789l-1 3l7 1v3l-3 1l-2 11l6 1h13v2l7-1l6-1l11-2l15 1l11-1l1-1l-2-12l1-2v-2l3-4l-2-3l10 2l-4-6v-3l-5-2v-4l2-5l-1-2l-5-1l-47 7l-3 1l-8 1l-1 5l-4 1l3 6l-5 2l4 1v2z"/><path id="11236" d="m602 651l-1 1l1 2l4-3l1 17l-2 2l3 3l3 1l19 11l14 10l13 3l3-3l1-6l3-1l7-8l10-12l3 2v-4l-5-6l-1-3l-2-1l-16-21l-3-4l2-3l-2-3l-4 4l-4-5l-3-2v1l-1-1l-2-9l-7 5l-9 2l-3 1h-14l-7-2l-1 1l2 9l1 15l-1 1l-2 2v1h2h2z"/><path id="11237" d="m579 480l4 14l2 9l7 5l17 13l3-3l5 4l3-4l3 2l-3 4l5 4l10 7l3-4l-7-5l3-4l-14-10l2-2l-4-3l2-3l-18-14l2-3l-6-8l-1-4l3-2z"/><path id="11238" d="m510 542h-1l2 5l-1 6l4 1l-3 12l1 2l1 3l1 6h1h1l12 21l1 2l3-1l-3-19l8 2l5-18l4-1l-4-2l-1-1l-2-17l-1-3v-2l-5 1v-4l-9 2l1 3l-11 2l-3-5z"/><path id="11239" d="m683 625l3 5l3 3l4-1l8-8l-2-9l-3 1zm-24 3l-2 3l3 4l16 21l2 1l1 3l6-13l2-4l-3-3l-4-7l-7-13z"/><path id="11354" d="m733 337l-2 4l3 4l-2 1l4 8l6 3l7-2l1 2l5 6v4l-3 10l1 4v2l15-10l24-9l7-2l9 2v-14l4-7l-2-2h4v-5l-4-2l-12-1l-16-3l-7 2l-3-2l-2 2l-5 8l-4 2l-5-16l-5-1v5h-2l-16-1z"/><path id="11355" d="m753 383l4 7l6-1l-1 10l-3 2l-2 8l16 2l3-1l7 5l9 3l2-1v3h4l6 1l-1-9l-7-2v-7l12-10h-3l3-29l-9-2l-7 2l-24 9z"/><path id="11356" d="m717 305l-2 4l2 4l5 2v2h11l-1 1v7l1 4l16 1h2v-5l5 1l5 16l4-2l5-8l4-10l2-4h-3v-7h-7v-11h-2l-4 2l-3-3l-3 2v-6l1-3l-3-10v-4l-3 4l-6 5l-5-3l-4 1l-1 5l-6-3l-2 6l2 2l-4 3v3l2 2l-4 1l-2 2z"/><path id="11357" d="m765 295l-1 5h2v11h7v7h3h1l-1 2l-1 3l-1-1l-4 10l2-2l3 2l7-2l16 3l12 1l4 2v-2l21 3l1-1l3-1l-6-17l-1-10l-1-1l7-4l-3-6l-1 4h-1l-2-7v-7l-3-2l-1 1l-7-3l-4-1l-4 2l-11-3h-3l-6-3l-6-6l-10 9l-7 2l2 8l-2 3z"/><path id="11358" d="m808 364l-3 29h3l8 1l9 2l1-1l3-2l2 4h4l20-7l2-3l-8-17h-2l1-4l-7-19l-5-11l-1 1l-21-3v2v5h-4l2 2l-4 7z"/><path id="11360" d="m831 307l1 1l1 10l6 17l-3 1l5 11l18-8l8-2v4l2-1v-3l4-1l3 4l8-3l3 2l-4-4l-2-9l-1-3l-12-15v-1l-13-8l-2-4l-1 1l-17 1l3 6z"/><path id="11361" d="m841 347l7 19l-1 4h2l8 17l1 2l6-2l8-4l6-3l12-2v2l4 8l2-2l-3-6l2-6l3-2v-3l-4 3l-1-2l4-1l-1-8l-1-2l10-2l-9-5l-1-4l-8-9l-3-2l-8 3l-3-4l-4 1v3l-2 1v-4l-8 2z"/><path id="11362" d="m895 359l1 2l1 8l2 1l2 5v-1h5l1-3l4 2l6 10v5l2 2l3 9l-4 3l3 7h-6l-10 2l4 6l3 1l10-3l2 6h5l2-3l12-9l6-8l4-11l7-6l2-3l1-3l2-3l3-3l3-1l7-1l-15-12l-23-18l-5 8l-3-2l2 4l-7 6l-5 1l-8 3l-4-6l-5 3z"/><path id="11363" d="m902 328l-1 2l4 8l-4 3v1l1 9l3 6l5-3l4 6l8-3l5-1l7-6l-2-4l3 2l5-8l-28-23l-3-1l-3 3l-3 4l-1 5z"/><path id="11364" d="m858 389l-1 4l5 7l3 9l5 17l5 11l8-2l4-1l31-7l1 4l-1 2l-1 2l7-7l5-7h-5l-2-6l-10 3l-3-1l-4-6l10-2h6l-3-7l4-3l-3-9l-2-2v-5l-6-10l-4-2l-1 3h-5v1l-2-5l-2-1l-4 1l1 2l4-3v3l-3 2l-2 6l3 6l-2 2l-4-8v-2l-12 2l-6 3l-8 4z"/><path id="11365" d="m796 403v7l7 2l1 9l-1 3h-4v6l3 2l-3 4l3 12l19-3l22-7l14-7v-1l6-3l2-1l1 2l3-1l4 10h2l-5-11l-5-17l-3-9l-5-7l1-4l-1-2l-2 3l-20 7h-4l-2-4l-3 2l-1 1l-9-2l-8-1z"/><path id="11366" d="m802 448l3 14l-1 3h1l28-13l7-3l2 2l5-2l4-4l1 2l4-2l-1-2l7-2l4 11l-5 5l1 2l7-6l13-3h8h9l-10-7l-6-8l-8 2h-2l-4-10l-3 1l-1-2l-2 1l-6 3v1l-14 7l-22 7z"/><path id="11367" d="m740 417l1 12l3 7l6 7l3 6l4 10l7 11l4 2l7 2l10-2h2l13-5v3l6-2l-1-3h-1l1-3l-3-14l-3-12l3-4l-3-2v-6h4l1-3l-6-1h-4v-3l-2 1l-9-3l-7-5l-3 1l-16-2l-11 4z"/><path id="11368" d="m691 377l1 7l4 11l1 1l-2 1l3 5l1 3l1 10l2 6l2 4l1 6l17-6l2-1l5-1l7-4l4-2l6-4l11-4l2-8l3-2l1-10l-6 1l-4-7v-2l-1-4l3-10v-4l-5-6l-6 2v2l-7 5l-3 3l-5 2l-6-2l-7-4l3-5h-6l-1 1l3 6l8 7h-6l-2-4v5h-12z"/><path id="11369" d="m663 353l1 2l8-3l1 5h-3l3 9l-2 5l2 9l6-1v-5l2 4l10-1l12-2h12v-5l2 4h6l-8-7l-3-6l-4-5l-5-7l-8-6l-4-1h-5l-5 1l-11 8z"/><path id="11370" d="m654 292l1 5l3 1l4 7l6 1l12 3l3-1h7l2-2l2-3v-2l-1-3l-7-5l-5-5l-9-2l-7-7l-2-1l-5 2l-2 2zm-13 57l-1 3l12 3l-2 4l-6 11l1-3l3 16l25-3l-2-9l2-5l-3-9h3l-1-5l-8 3l-1-2l-1-5l-2-9l1-2l-3-9l-2 2l-2 7l-1-1z"/><path id="11372" d="m646 392l2 4l3 7v3v-2v-2l5-1h1h1l38-6l-4-11l-1-7l-10 1l-2-4v5l-6 1l-25 3l1 9z"/><path id="11373" d="m658 412h-2l5 13l-4 2h3l2 3l1 11l1 4v1l3-1l3-1h7l10-4l6 3l5-8l-1-1l8-3l-1-6l-2-4l-2-6l-1-10l-1-3l-3-5l2-1l-1-1l-38 6h-1l1 9z"/><path id="11374" d="m691 442l-3 3l4 4l2-3v1l-1 4l1 2l2-1l12 18l5 7l1 3l-4 3l4 1v1v3l3-1h1l-1-2h1l-2-24h3l5-12l4-3l-2-6l3-1l-2-5h-4l-3-6l4-4l-2 1l-17 6l-8 3l1 1l-5 8h-1z"/><path id="11375" d="m716 461l2 24l3 12l2-1l9-4h7l5-2l11-5l11-7l7-2l2-2l-7-2l-4-2l-7-11l-4-10l-3-6l-6-7l-3-7l-1-12l-4 2l-7 4l-5 1l-4 4l3 6h4l2 5l-3 1l2 6l-4 3l-5 12z"/><path id="11377" d="m595 426v1l6 3l6 6l13 5h6l5 3l1-1l8-12h5v1l4 1l6-1l1-2h6l-2-3h-3l4-2l-5-13h2v-2l-1-9h-1l-5 1v2v2v-3l-3-7l-2-4h3l-1-9l-3-16l-1 3l6-11l2-4l-12-3h-2l-2 2l-1 2l-3 5l1 2l-2 3l-1-1l-2 4l-3 5h-3l-3 5l2 4l-2 3h3l2 4l-1 6v1l-8-1l-2 10l1 4l-3 1l-11 5l-2 11z"/><path id="11378" d="m574 432l10 11l5 2v1l2 3l7 16l2 8l-3 2l1 4l20 2h7v-2l2 2l9-2l4-3l5-2l21-14l-1-5l-1-9v-1l-1-4l-1-11h-6l-1 2l-6 1l-4-1v-1h-5l-8 12l-1 1l-5-3h-6l-13-5l-6-6l-6-3l-11-2z"/><path id="11379" d="m640 476l-4 3l23 14l8 4h9l10-1l9-6l9-3l6-4l4-3l-1-3l-5-7l-12-18l-2 1l-1-2l1-4v-1l-2 3l-4-4l3-3l1 1h1l-6-3l-10 4h-7l-3 1l-3 1l1 9l1 5l-21 14z"/><path id="11385" d="m598 479l6 8l-2 3l18 14l-2 3l4 3l-2 2l14 10l-3 4l7 5l3 9l-2 1l9 13l4-7l3 5l5-2l9-6l2-3l7-8l10-7l9-2l-3-7l3-3v-9l10-1l10 1l-1 4h3l3-3l5 1l-4-7v-4l-2 1l-3-12h-1l1 2h-1l-3 1v-3v-1l-4-1l-6 4l-9 3l-9 6l-10 1h-9l-8-4l-23-14l-9 2l-2-2v2h-7z"/><path id="11411" d="m914 508l4 13l2 5l-5 10l1 1v1l18 7l9 3l12 4v-3v-4l-1-25l-2-1v-10l-9-3l-10 2l-9-1v-2z"/><path id="11412" d="m868 500h-3l7 15l4 6l8 8l-2 2l8 18l21-10l1 2l3-5l5-10l-2-5l-4-13l-3-9l-4-11h-2l-20 7l-5 2z"/><path id="11413" d="m879 606l1 5h2l1 5h-3l29 22l5 4l4-9l-4-4l-1-6l2-3l-1-4l3-3l4-1l4-7l4-9l3-4l-6-1v-4l2-4l1 1l2-4l-1-1l2-4l1 1l7-17l3-11l-9-3l-18-7v-1l-1-1l-3 5l-1-2l-21 10l7 13h-3l3 7l-4 2l-4 3l-2-2l-1 5l3 2h-1l1 3l-1 3l-1 5l-3 1l3 1l-5 15z"/><path id="11414" d="m708 611l4 9l2 1l6 10l3-2l4 1l5-3l-4 7l-1 4l4 6l5 1l20-3l-2-17h1l2 10l7 1l1-3l-2-10h2l1 4l3 6l5 2l-4-18l-2-10l-5-13l-2-3l-7-1l-35-15l-8-3l2 8h5l3 18l-5 1l2 8l-5 1z"/><path id="11415" d="m744 490l3 1l8-4l1-2l4 3v4l-4 2l2 1l4 11l1 4l2-1l18-6l-1-3h3l3-2l-5-10l-5-6v-3l-5 3l-7-4l-11 7z"/><path id="11416" d="m702 552l4 2l1 7l2 1l8-1l7-1l6-2l-1-1l1-1l1 2l3-1v-1h1l12-4l6-2l5-2l-4-15l-12 4z"/><path id="11417" d="m709 562l2 10l8 3l35 15l7 1l-6-19l2-2l7 1l2-7l-2-3l-4-14l-2 1l-5 2l-6 2l-12 4h-1v1l-3 1l-1-2l-1 1l1 1l-6 2l-7 1z"/><path id="11418" d="m723 496v4l4 7l1 4l7 9l7 17l12-4l30-11h3l10-3l-5-13l-4-8l-3 2h-3l1 3l-18 6l-2 1l-1-4l-4-11l-2-1l4-2v-4l-4-3l-1 2l-8 4l-3-1l-5 2h-7z"/><path id="11419" d="m754 533l4 15l2-1l4 14l33-12l10-6l-5-12l-5-12l-10 3h-3z"/><path id="11420" d="m757 570l-2 2l6 19l2 3l10 4h7l17 3l3-1l1-3l2-7l15 1l1-15l-8-23l-4-10l-10 6l-33 12l2 3l-2 7z"/><path id="11421" d="m697 514l-3 3l3 7l1 1l4 27l40-15l-7-17l-7-9l-1-4l-5-1l-3 3h-3l1-4l-10-1l-10 1z"/><path id="11422" d="m909 638l4 4l5 12l-3 13l4-1l3-5l3-2l2 2l-2 5h5v-1l-5-11h2v-16l11-6l8-2l10-5l1-2l-3-14l-4-9l1-2v-2v-3v-13l4-19v-9l-12-4l-3 11l-7 17l-1-1l-2 4l1 1l-2 4l-1-1l-2 4v4l6 1l-3 4l-4 9l-4 7l-4 1l-3 3l1 4l-2 3l1 6l4 4l-4 9z"/><path id="11423" d="m855 443l1 2l2 5l1 3l2 4l5-5l-4-11zm-2 39l4 9v1v3l-3 3l20-6l-8 4l-1 4h3l12-3l5-2l20-7l-1-4h2l-1-3l-2-4l-2 1l-3-8l-3-3l-1-5l-3-4l-6-4l-3-4l-13 3l-7 6l4 8l-1 3l4 6z"/><path id="11426" d="m949 401l-6 8l10 6l1 11l-1 2l1 5l-8 2l-2 8h1v4l3 12l7-4l16-5l12-2l-3-9l-1-8l-3 1l-1-5l2-1l-5-13l-6-18l-4-4l1-3l-3-4l-7 6z"/><path id="11427" d="m882 450l3 4l6 4l3 4l1 5l3 3v-1l9-5l24-19l-3-3l13 4l3-3l2-8l8-2l-1-5l1-2l-1-11l-10-6l-12 9l-2 3l-5 7l-7 7l1-2l1-2l-1-4l-31 7l-4 1l6 8l10 7h-9z"/><path id="11428" d="m898 469v1l3 8l2-1l2 4l33-11v-2l6-3l4-1l-1-4l1-1l-3-12v-4h-1l-3 3l-13-4l3 3l-24 19z"/><path id="11429" d="m904 484l1 4h2l4 11l3 9l10-3v2l9 1l10-2l9 3v-11h1v-11l-4-20l-1-3l-4 1l-6 3v2l-33 11l1 3z"/><path id="11432" d="m806 468l-6 2l7 1v4h-4l1 7l5 13l2 6l3 8l3-1l6-5l1 3l4-2l5-1l-2-4l3 3l6-7l17-3v-1l-4-9l16-6l-4-6l1-3l-4-8l-1-2l-2-4l-1-3l-2-5l-4 2l-1-2l-4 4l-5 2l-2-2l-7 3l-28 13z"/><path id="11433" d="m817 508l-3 2l4 1l-2 3l4 11l5 6l3 7l4 3v2l6-3l1 1l6-2l11-5l-2-4l7-4l1 3h3l11-8l-4-6l-7-15l1-4l8-4l-20 6l3-3v-3l-17 3l-6 7l-3-3l2 4l-5 1l5 9l-2 1l-2 1l-5-9l-1-3z"/><path id="11434" d="m818 591v4l12 1l18 3l8 3l6 3l6 3l12 8h3l-1-5h-2l-1-5l3 1l5-15l-3-1l3-1l1-5l1-3l-1-3h1l-3-2l1-5l2 2l4-3l4-2l-3-7h3l-7-13l-8-18l2-2l-8-8l-11 8h-3l-1-3l-7 4l2 4l-11 5l-6 2l-1-1l-6 3l-1 2l2 4h2v5l2 11l-2 1l2 4l3 1l-1 5h4l-3 15l-6-1l-12 2z"/><path id="11435" d="m775 474l3 5v3l5 6l5 10l4 8l5 13l5 12l5 12l4 10l20-8l1-2v-2l-4-3l-3-7l-5-6l-4-11l2-3l-4-1l3-2l-3 1l-3-8l-2-6l-5-13l-1-7h4v-4l-7-1v-3l-13 5h-2z"/><path id="11436" d="m811 553l8 23l-1 15l4 1l12-2l6 1l3-15h-4l1-5l-3-1l-2-4l2-1l-2-11v-5h-2l-2-4z"/><path id="11691" d="m841 756l8-1l2 6v6l-3 1h6l1 4l3-1v-4l9-1l8-2l1 7h4h21h1l6-1l1-1l9-6l10-1l3 1h3l-1-9v-11l-9-12l-5-9h-2l-2-1l-12 4l-10-2l-6-6l-6-1l-12 1l-1 4l9 6l-3 11l1 5l-2 6l1 3l5 3l-3-1l-6 1l-2-3l-2-7l-2 2l-2 6l-5 4l-3-5l3-4l4 1l2-3l2-2l3-12v-3l-2-2l-7 1l-9 10l2 3l-2 4z"/><path id="11692" d="m812 772v6l2 4l5 2l48-12l9-1l-1-7l-8 2l-9 1v4l-3 1l-1-4h-6l3-1v-6l-2-6l-8 1v5l-3 1l-1-5l3-7l3-3l2-5l-4-6l-8 7l-6 8l-11 1l-4 4l4 8l1 3l-1 5z"/><path id="11693" d="m787 783l-2 1l5 5h3l1 3l10-4l5-2l10-2l-5-2l-2-4v-6h4l1-5l-7-7l-3 5l7 4h-3l-7-4l-3 2l1 1l-7 4l-6 5l-2 1zm-27-25l-1 2l4 2l14-1l6 1l1-1v-2l3-4l1-4v-5l1-2l1-4v-3h2l1-2v-1l2-5l-3-10l3-1l-3-4l-2 2l-6-3l-6 7l1 2l3 4v3l3-4l-1-4l1 3v4l-4 8l-1 7l-3 6l1 5l-4-3l-4 4h-5z"/><path id="11694" d="m700 826l3-1l-1 5l53-24l4-2l35-12l-1-3h-3l-5-5l2-1v-5v-3v3l-4 3l-3-2l-9 4l-1 3l-13 4l-5 1l-1 2h-11l-9-1l-5 2l-18 12v5l-6 3l3 9z"/><path id="11697" d="m568 884v1l41-24l23-8l16-2l25-9l7-2l11-5l11-5l1-5l-3 1l5-3l-3-9l6-3v-5l-23 16l-5 2l-10-1l1 1l-11 2l-5-2l-5 4l-1 3l-8 5h-5l-7 2l-2-3l-8-4l1 2l-4 1l-6 4l-7 2l-9 1l-4 3l-2-1l-3 6l-7 2l-7 3l-2 3z"/></svg>
