<?xml version="1.0" encoding="UTF-8"?>
<!DOCTYPE svg PUBLIC '-//W3C//DTD SVG 1.1//EN' 'http://www.w3.org/Graphics/SVG/1.1/DTD/svg11.dtd'>
<svg viewBox="0 0 5745.91 9253.54" xmlns="http://www.w3.org/2000/svg">
  <g data-id="001">
    <path d="m0 3970.2l0 0l2.5 9.8l17.8 15.5l8.1 4.2l14.2 20.1l8.6 3.1l16.9 10l10.5 10.5l8.8 22.8l1 4.2l4 16.4l0.1 19.2l-15.3 102.4l-4 14.1l-0.1 11.1l4 17.7l12.9 33.5l3.8 74.9l-8.9 64.2l2.5 12.3l19.9 51.9l10.7 46l4 10.6l36.1 48.9l20.9 43.1l6.6 19.1l-0.3 5.7l-15.1 38.4l-6.3 21.9l-1.6 17.1l3.1 9.6l21.1 20l3.7 5.8l0.6 3.8l-4.2 11l-8.5 13.1l-15.3 8.2l-19 19.8l-5.3 12.3l-7.4 28.9l0.8 5.7l6.4 13.8l20.5 16.4l7.2 9.5l4.3 10l0.1 0.3l2.9 9.7l3 21.9l2.5 7.3l23.8 21.9l16.6 12.6l14.4 17.3l5.8 30.1l2.3 7l12.1 19.3l-0.3 6l-11.3 25.4l-24.3 44.3l383.2 -45.5l73 -9.3l-36.8 -284.6l182.9 -20.3l367.7 -17.8l38.2 168.6l168.9 -87.1l-40.9 -162.2l-21.2 11.2l0 -75.4l78.9 31.2l222.9 -112.7l6.9 156.4l25.9 9.7l142.6 -307.8l27.1 -10.9l45.7 -86.4l142.8 -274.5l-230.8 -93.1l-219.5 -85.2l-35.3 4.4l-73.6 -369.3l-52.1 9.5l-38.7 -284.9l-22.9 -252.3l-137.1 -42l11.2 74.9l-152.9 5.2l-186.6 36.7l-185.6 34.3l-214.3 26.6l-125.4 -16.6l-9.3 26.2l-9.3 33.4l-11.1 23l-3.2 1.2l-13.5 -3.6l-3.4 1l-10.3 13.3l-8 5.7l-18.8 6.1l2.7 14.3l-22.1 17l-2.7 17.9l-11.5 9.5l-1.5 3l-0.1 13.5l-7.7 13.7l-10.4 23.6l-1.6 7.4l-25.2 16.2l-5 9.7l-8.4 9.3l-7 1.7l-13.3 9.2l-5.1 16.3l-3.9 2.3l-9.3 1.1l-6.1 5.8l-0.6 7.4l3.3 31.8l-2.1 7.2l-16 15l-3 7.9l-1.4 9.1l2.1 11.2l3.7 7.8l-0.4 3.2l-9.3 15.7l-2.6 28.1l-8 38.4l-2.6 6.3l-14.1 20l-10.5 6.3l-11.8 20.3l-0.1 5.3l5.9 22.1l5.9 34.6l1.2 19.7l-14.6 53.8l-37.6 81.1l-2.8 31.2l-5.2 33.5l-16.7 74.8z" />
  </g>
  <g data-id="003">
    <path d="m441 8931.4l0 0l-13.4 24.3l42.3 221.8l33.4 0.3l356.7 9.6l348 9.4l0.3 0l269.8 7.8l3.9 -113.2l8.4 -246.9l13.5 -385.1l-252.5 -13.1l15.3 -369.4l12 -344.6l4.5 -30.7l0.7 -8.4l373.3 23.6l11.1 -211.8l8.6 -155.3l30.9 -0.9l10.1 -228.6l83.2 28l-1.5 -174.9l-139.8 -6.1l-314.6 -14.8l-44.8 51.2l15 -52.8l-397.8 -15.4l-383.9 -24l-5.8 221.8l-6.3 114.7l-0.1 2.6l-1.9 52.1l-18 481.7l-1.8 36.2l-10.4 204.3l-0.7 20.8l-12.4 346.7l-0.3 4.7l-0.2 8.4l-0.5 23.6l-3.4 147.9l-7.8 237.2l-0.5 16.5l-16.4 -6.1l-3.1 3.4l-4.9 55.4l9.6 24.9l-7.5 23.1z" />
  </g>
  <g data-id="005">
    <path d="m2935.7 2070.1l0 0l-13 24.3l329.2 177.7l284.2 155l10 14.3l9.2 40.7l-153.6 288.8l-139.1 170.3l3.8 105l-151.6 278.6l184.6 84.9l380.4 -36.7l24 5.1l350.6 136.2l14.9 -1.8l-5.1 -12.1l-15.2 -4l-15.8 -24.8l-13 -46.9l-11.2 -22.4l-14.1 -19.6l4.6 -29.2l3 -6.1l10.2 -8.1l3.1 -6.8l2.7 -16.1l-1.6 -8.7l15.6 -35.2l0.8 -4.1l0.8 -3.9l-3.6 -15.7l0.9 -13.6l8.5 -30.7l8.1 -20l-1.7 -11.1l-4.8 -11.5l-11.3 -11.7l-16.9 -37l-4.1 -29.9l-9.8 -18.8l-5.6 -1.4l-3.8 -10.8l6.8 -25.5l19.1 -36.6l16.1 -17.3l20.5 -6l21.3 -18.2l5.7 -5.6l10.4 -16.5l2.7 -7.6l0.7 -11.9l-0.1 -36.9l-4.3 -6.5l2 -12.3l11.9 -8.3l9.5 1.4l19.4 6.8l13.4 -2.6l13.3 -3.7l22.3 -11.9l40.8 -19.9l5.3 -5.9l5.4 -20.1l0.1 -0.3l10.2 -5.1l52.4 3.8l14.6 -4l37.7 -0.8l17.8 7.7l10.6 0.3l18.3 -7.4l11.7 -18.1l22.3 -18.4l30.7 -7.1l13.3 3.2l59.5 29.7l17.6 11.6l9.9 3l7.5 -1.4l23.2 -12.8l27.1 -3.1l24.2 -13.6l19.2 -14.4l-278.4 -380.9l86.6 -54.3l136.7 -170.2l-151.5 -207.9l30.7 -44l161.3 -218l-196.8 -146.8l212.6 -285.1l-299 -214.9l-186.5 262.6l-24.8 25.2l-297.1 -208.3l74.7 270.2l-168.2 -81l-264.6 518.6l-74.4 141l-325.7 -170.8l-160.4 294.6z" />
  </g>
  <g data-id="007">
    <path d="m222.1 1859.8l0 0l4.1 4l9.6 18.9l4.7 4.1l15 6.2l20.7 14.2l12.2 15.8l0.4 4.9l-2 9.7l0.9 4.8l21.6 30.2l2 6.8l0.9 13.2l3.3 7.5l2.8 3l13.3 5.5l5.6 7.5l2.4 20.3l0.2 1.9l-0.9 13.9l1.7 11.5l4.6 6.8l18.6 19.3l18 28.2l5.2 33.2l1.5 26.4l13.2 37.1l2.8 21.8l0.6 30l-4 37.7l14.3 36l4.7 21.7l-0.6 9.8l-0.1 2.5l-6.3 37.6l-42.1 105l-5.6 32.2l-7.6 25.3l-5.9 10.3l-11.4 13.5l-27.4 27.2l-9.3 15.1l-4 32l0.9 30.8l21.3 50.9l1.1 4.1l5.3 19.7l3.3 19.1l0.5 34.3l-2.1 25.1l0.9 37.5l5.7 34.6l15.8 56.3l13.2 31.2l3.7 23.5l-5.3 36.2l-1.7 4.7l125.4 16.6l214.3 -26.6l185.6 -34.3l186.6 -36.7l152.9 -5.2l-11.2 -74.9l137.1 42l22.9 252.3l38.7 284.9l163.7 -467.4l-44.9 -22.3l94 -196.4l68.6 -144.7l85.9 25.9l63.1 -127.5l-101 -52.5l99.4 -197.1l-98 -30.8l102.2 -191.6l-79.2 -41.9l62.4 -128.7l-57.5 -17.8l-237.4 -321.4l-39.4 -9l-331.8 -74.1l-262.6 -140.8l-293.2 -153l-12.7 299.4l-56.9 35.8l-5 135.6l-11.4 30.8l-27.3 38.2l-75.9 51.6l-197.1 60.9z" />
  </g>
  <g data-id="009">
    <path d="m4262.5 946.4l0 0l100.1 71.8l299 214.9l-212.6 285.1l196.8 146.8l-161.3 218l-30.7 44l151.5 207.9l-136.7 170.2l-86.6 54.3l278.4 380.9l13 -9.7l20.4 -7.6l21.6 -3.8l13.1 -6.5l4.2 -4.1l2 -7.4l-0.8 -4.6l-7.3 -21.2l-3.4 -15.8l1.9 -5.2l7.7 -6.6l1.7 -4.3l-0.6 -4.2l-8.2 -8.4l-1.5 -3.5l4 -26.4l3.7 -3.5l12.5 -4.3l15.6 2.1l9.2 -3.8l1.2 -6.8l-10.5 -18.1l0 -6.1l3.3 -6.1l24.6 -24l9.4 -4l35.2 1.9l9.4 -5.4l7.6 -8l14.3 -9.6l6.4 -3.5l2.1 -1.1l8.8 -1.8l17.1 2.6l5.1 3.4l14 14.8l13.2 2.4l5.6 -1.2l2.3 -2.9l7 -18l6.1 -8.7l5.6 -4.7l12.8 -3.9l15.5 -1.5l32.4 3.6l20.5 -6.1l25.1 -16.7l24.8 -21.1l14.8 -8.9l17.2 -18.4l2.3 -17.4l-2.3 -7.7l2 -3.9l5.5 -2.8l24.6 -3.3l13.8 -7.5l6.9 -7.9l8.2 -18.9l5 -37l11.5 -26.5l3 -2.5l21.1 2.3l6.5 -4.9l7.1 -10l-1.3 -7.1l-16.6 -12l-3.8 -4.5l-0.9 -8.4l1.4 -4.5l5.3 -8.2l8.1 -6.2l11.1 -4.8l19 -24.7l5.2 -1.8l39 -5.7l4.9 -0.9l18.5 6.5l29.4 -8.6l4.6 -7.8l7.1 -24.7l0.7 -9.4l10.9 -11.9l9 -3.4l9.2 -3.4l15.3 -1.9l3.5 -0.6l3.3 -3.2l1.7 -5.5l-2 -3.5l-15.9 -13.8l-5 -7.7l-2.9 -13.4l-2.8 -5l-15.2 -12.7l-5.4 -8l-0.8 -7.9l4.1 -5.4l16.8 2.3l4 -0.9l9.4 -7.1l16.4 -24.2l7.1 -13.6l4.2 -10.8l-0.2 -6.8l-6.1 -11.8l-37.5 -28.6l-25.4 -22.8l-3.8 -8.1l0.9 -7.2l4.8 -15.2l6.4 -11.9l5.3 -5.3l5.6 -2.4l42.7 3.8l17.2 8.2l18.1 -1.8l10.3 -3.7l3.7 -5.9l-1.2 -13.1l1 -8l9.2 -30.4l6.6 -10.3l6 1.1l5.5 5.1l5.3 2.5l7.4 -3l14 -13.3l7 -9.3l4.3 -15l-12.7 -8.2l-25.2 -11.1l-12.2 -1.1l-3.4 -9.5l0.5 -10.7l-4.6 -12.2l0.7 -8.6l2.8 -6.9l2.8 -7.8l-0.7 -10.3l-7.2 -30.3l2.3 -29.2l3.2 -5.2l2.2 -0.1l2.2 -5.1l4.2 -3.9l-8.5 -18.8l-21.8 -17.9l-1.5 -2.8l0 -9.2l11 -2.5l2.4 -6.8l-0.1 -0.5l-1.5 -10.1l-9.3 -24l-7.7 -10.7l-5 -4.2l-4.4 1.2l-3 8.3l-4.5 4.3l-5.6 0.5l-8.7 -1l-2.7 -5.7l-0.7 -4.8l1.8 -5.7l-0.9 -4.6l-20.2 -3.8l-5.5 -4.9l-5 -6.8l0 -6.7l3.9 -9.9l2 -7.5l-3.1 -9.4l0 -6.7l3.4 -3.8l5.7 -8.4l1.6 -5.2l-3 -5.3l-12.7 -0.4l-7.7 -2.5l-18.3 -14.5l-0.3 -2.4l5 -8.1l1.3 -8.9l-6.4 -13.3l-4.7 -23.6l3.4 -8.6l-5.2 -12.6l-4.4 -3.7l-1.8 -4l0 -3.7l4.6 -12.6l-1.6 -5.9l-15 -11.6l-23.8 -44.2l-15.3 -15.1l-0.5 -5.3l3.2 -17l-0.7 -3.6l-4.1 -1.5l-10.3 6.2l-2 -0.1l-4.8 -5.1l-2 -5.2l-0.1 -19.5l1.7 -8.3l-0.4 -28.2l-5 -13.3l-12.2 -6l-2.1 -5.8l-0.4 -1l0.2 -8.7l1.8 -3.2l21.4 -7.7l17.4 -3.1l10.8 -11.4l-0.1 -8l7.3 -15.3l10.3 -5.4l10.5 -8.5l9.2 -17.8l15.8 -13.8l0.4 -3.5l-2.2 -4.7l-0.8 -6.4l11.6 -15.5l25 -12.1l12.8 1l3.1 -2.4l16.6 -23.9l4.5 -12.1l-4.1 -12.8l7.9 -30.1l3.8 -7.3l-0.3 -7.3l-10.6 -6.4l-6.6 -13.1l-1.1 -10.2l3.5 -8.3l18.7 -23.6l8 -3.5l1.1 3.2l3.1 0l4.2 -3l13.4 -40.2l11.5 -6.8l4.4 -7l0.6 -5.9l-1.9 -11.7l-6.9 -15.1l-5 -4.6l-0.2 -8l3.5 -7.1l5.7 -6.5l15.5 -14l-0.1 -6.1l-5.6 -10.4l0.4 -8.5l1.9 -4l10.6 -14.6l16.9 -10.2l16.1 -4.4l15.8 -15.9l0.8 -13.8l1.6 -3.7l5 -5.3l12.4 -7l29.4 -38.8l1.7 -5.4l-6.9 -6.5l-0.8 -3.4l1.4 -2.8l15.2 -12.6l18 -20.6l4 -7l4.5 -1.4l7.5 2.3l3.3 -3.1l5.6 -24.4l-1.4 -3.8l-18.6 -11.1l-10.8 -18.6l-13.8 -18l-17.4 -16l-5.1 -51l2.3 -4.7l1.9 -11l-3.8 -16.7l5.7 -45.9l-4 -24l-17.9 -7.2l-14 -30.3l-12.9 -9.7l-18 -34.1l-2.4 -16l4.7 -24.7l20.1 -22.6l14.8 -9.2l14.5 -1.7l15.8 -6.9l50.1 0.3l28.7 12.1l23.2 -8.1l38.9 -37.3l3.5 -6.9l-105 1.1l-173.2 3.4l-143.5 -0.6l-239 5.3l-220.1 -0.1l-379.2 13.3l-89.9 415.4l157.5 127.1l-149.7 181.4l-141.2 187.7z" />
  </g>
  <g data-id="011">
    <path d="m520.4 1006l0 0l8 51.4l80 150l293.2 153l262.6 140.8l331.8 74.1l-7.5 -58.1l11.7 -10.4l58.1 14.7l34.4 -44.1l116.1 -221.7l161.8 77.3l36.3 -197.1l33.5 0.1l13.2 -107.1l30.8 -0.3l34.5 -82.1l200.3 -31.8l185.7 -30.3l54.2 45l44.7 37.1l132.6 -212.5l-17.8 -379.2l2.1 -42.7l-47.6 -297.7l-4.5 -0.1l-77.1 -13.3l-12.8 -5.5l-9.1 -1.5l-247.3 -9.2l-81.1 -0.5l-217.5 -1.2l-199 -3.2l-247.5 6.2l-16.8 2l-0.2 1.6l-92 0.7l-136.1 -3.6l-2.3 -0.4l-95.7 1.2l-11.8 -3.8l-21.1 -0.6l-15.8 4.5l-57.9 0.1l-2.9 -3.1l-245.2 6.1l-63.4 1.6l-110.1 223.7l-32.9 40.1l29.8 91.1l110.7 77.1l-3.6 89.9l-43.2 260.4l-96.2 78.4l-50 132.9z" />
  </g>
  <g data-id="013">
    <path d="m139.2 1630.3l0 0l-0.8 5.2l1.2 4.7l20.1 20.6l6.4 28.4l11.3 23.1l1.5 9.7l-1.4 7.2l-3.2 6.6l-10.9 13.4l-0.6 5.2l11.8 17.1l6.2 12.6l3.7 26.9l20.7 32.3l16.9 16.5l197.1 -60.9l75.9 -51.6l27.3 -38.2l11.4 -30.8l5 -135.6l56.9 -35.8l12.7 -299.4l-80 -150l-8 -51.4l50 -132.9l96.2 -78.4l43.2 -260.4l3.6 -89.9l-110.7 -77.1l-29.8 -91.1l32.9 -40.1l110.1 -223.7l-143.1 3.6l-24.1 2.4l-273.2 5.5l-20.6 68.1l-9.4 17l-3.5 11.6l1.5 13.5l3.6 14.1l7.8 18.2l16 23.7l17.5 18.9l1.4 4.7l1 17.3l-4.9 70.7l3.3 79.2l-1.4 26.5l-6.2 12.5l-4.9 3.4l-14.7 10.3l-17 16.3l-7.5 11.7l-5.4 13l-6.5 16.8l-5.5 23.7l-12.3 67.5l-7.7 34.4l-8.3 17.5l-10.9 6.9l-12 15.2l-4.6 33.8l0.1 15.5l5.6 28.8l2.1 2.7l9.8 4.3l11.7 22.9l4.9 6.6l11.6 11l22.1 12.9l9.1 7.4l4.3 4.6l9.5 16.4l43 48.4l3 9.9l1.4 12.3l2.3 42.9l-1.8 14.6l-5.7 12.7l-24.9 23.8l-8.2 13.5l-4.7 19.5l-16.5 53.1l-9.6 17.5l-17.8 23.6l-5.2 14.2l1.4 66.2l-1.4 103.9l12.3 20.2l0 3.5l-11.6 28.6l-14.1 11l1.3 4.5l6.6 10.1l0.6 11.4l-11.3 4l-2.2 2.4l-2.6 33.7l7.7 10.9l1.2 10.6l-2.7 3.9l-7.2 -0.8l-3.1 1.5l-14.4 22.8l0.3 6.5l2.8 5.5l0.1 3.8l-15.1 29.3l13.4 17.6l-3.5 4.6l-20.5 16.3l-1.1 3.4l3.7 18.4l-1.7 16.9l-2.5 13.3l-7.6 16.6z" />
  </g>
  <g data-id="015">
    <path d="m1488.5 1517.3l0 0l7.5 58.1l39.4 9l237.4 321.4l57.5 17.8l-62.4 128.7l79.2 41.9l-102.2 191.6l98 30.8l114 37.1l324.6 181l167.7 -330.7l302.6 229.6l6.9 -10.9l163.8 -328.2l13 -24.3l160.4 -294.6l19.3 -33.4l-332.5 -170.4l16.5 -32.4l172.8 -332l-468.5 -240.7l-44.7 -37.1l-54.2 -45l-185.7 30.3l-200.3 31.8l-34.5 82.1l-30.8 0.3l-13.2 107.1l-33.5 -0.1l-36.3 197.1l-161.8 -77.3l-116.1 221.7l-34.4 44.1l-58.1 -14.7l-11.7 10.4z" />
  </g>
  <g data-id="017">
    <path d="m1882.8 4306.9l0 0l23.7 133l232.1 79.3l376 145.5l333 141.6l357.3 115.4l385.2 156.4l1.3 -1.3l-2.2 -44.4l0.6 -8.9l3.6 -6.5l20.5 -15.8l4.3 -6l6.9 -12.9l7.1 -24.7l17.2 -15.7l4.4 -14l-2.5 -17.5l-6.5 -13.5l-6.3 -21.4l0.9 -7l5.9 -16.3l8.4 -15.2l3.3 -13.5l-1.9 -44.7l-13.2 -34.3l-1.6 -10.2l9.1 -29.4l5.3 -7.8l10.4 -3.4l13.4 -0.8l21.3 -11.2l-3.4 -8.8l-2 -5.1l-1.3 -3.4l-6.2 -11l-4.9 -14.2l2.3 -16.4l3.3 -6.6l3 -4.2l9.8 1.1l18.7 -4.5l4.7 -4.4l1.8 -18l8.3 -17.6l12.8 -18.5l18.3 -14.5l28.9 -19.1l41.1 -36.1l5.3 -8.1l3.4 -9.5l3.6 -43l0 -5.5l-6.5 -32.1l0.8 -8.6l2.5 -5.9l7.5 -3.2l12.8 -0.1l14.6 -6.9l4.2 -4.7l16.7 -28.8l-0.8 -4.9l-5.6 -8l-29.3 -24.7l-9.7 -2.2l-1.3 -3.3l0.1 -4.6l4.7 -13.4l1.7 -11.6l2.1 -37.6l-3.1 -12.5l-11.3 -15.9l-0.8 -10.2l23.2 -24.5l15.3 -9.3l0.6 -5.6l-4 -20.9l-1 -13.2l8.2 -9l10.4 -2.4l9.4 -17l1.7 -8.7l3 -5.5l5.9 -5.2l4.5 0.6l15.2 -0.7l9.9 -10.1l1.5 -6.4l4 -5l1 -0.6l1 -0.6l10.7 -6.4l1.9 -4.6l-1.4 -7.4l-11.4 -19.9l-0.6 -7.7l1.8 -5.9l4.7 -6.9l7.3 -5.3l24.6 -13.8l10.8 -9.4l1.9 -15.9l9.3 -9.6l4.9 -2.9l2.4 -3.8l8.3 -20.9l15.1 -17.9l-0.8 -9l17.7 -13.3l7.9 -26.9l-21.9 -16.7l-4.3 -7.1l3.2 -7l4.2 -2.7l18.1 3.1l10.8 -1.9l5.8 -3.7l4.1 -5.3l3 -7.8l2.5 -18.7l-0.6 -8.6l-5.1 -6.3l-11.4 -5.9l-8.1 -1l-44.1 -27.4l0.5 -8.2l6.8 -31.4l17.2 -16.3l13.1 -7.1l3.6 -0.1l5.5 4.2l3.9 -0.3l11.1 -27.7l-1.6 -4l-10.5 -5.1l-12 -13.7l-2.6 -57.3l0.5 -4l7.6 -14.1l-0.2 -5.2l-1.4 -3.3l-14.9 1.8l-350.6 -136.2l-24 -5.1l-380.4 36.7l-184.6 -84.9l-149.7 -68.8l-67.8 374.9l-339.8 -138.8l-12.6 37.5l-73.8 -27l-115.3 290.7l-17.1 -3.3l-142.7 310.1l-170.5 -67.7l-142.8 274.5z" />
  </g>
  <g data-id="019">
    <path d="m2636.3 754.1l0 0l-132.6 212.5l468.5 240.7l-172.8 332l-16.5 32.4l332.5 170.4l-19.3 33.4l325.7 170.8l74.4 -141l264.6 -518.6l168.2 81l-74.7 -270.2l297.1 208.3l24.8 -25.2l186.5 -262.6l-100.1 -71.8l141.2 -187.7l149.7 -181.4l-157.5 -127.1l89.9 -415.4l-50.5 1.8l-93.8 -2.3l-115.1 2l-106.6 4.4l-18.8 0l-11.3 -8.6l-54 10.3l-148.2 3.2l-167.3 -2.4l-251.1 6.4l-70.3 1.8l-61.2 -1.3l-53 2.8l-55.8 -3.7l-56.3 -3.7l-153.5 -4l-138.5 -8l-93.7 -1.4l-149.9 4.2l-63.7 -1.7l47.6 297.7l-2.1 42.7l17.8 379.2z" />
  </g>
  <g data-id="021">
    <path d="m19 5813.8l0 0l0.8 5l6.7 12.2l5.7 4.1l18.3 6l9.9 15.1l33 26.3l15.5 9.2l6.3 3.3l6.9 -0.1l11.1 -7.3l22.6 -22.5l2.4 -5.1l2.4 -9.7l-2.6 -22.3l-0.1 -48.5l16.6 -11.6l12.5 -14.6l2.8 -6.3l0.3 -4.7l-10.7 -26.5l4.3 -8.4l13.5 -17.8l0.2 -2.5l-7.6 -12.2l1.7 -7l8.7 -0.9l5 4.4l4.7 0.7l18.8 -4.7l1.5 -1.9l32 10.3l15.8 -14.3l42.2 0.6l11.1 -6.9l18.4 1.1l13.9 11.1l6.4 2l8.5 -13.6l4.2 -2.1l6.1 3.9l4.6 5.4l1.4 5.4l5.2 54.5l6.6 3.1l12.5 19.4l4.4 10.7l0.1 17.7l-1.7 17.3l-1.3 5.2l-10.7 21.1l13.3 8.9l0.7 2.4l-6.8 8.1l-2.6 9.1l2.1 5.1l3.2 1.8l25.1 -3l10.5 6.8l1 8.7l3.6 4.7l30.1 9.1l15.4 12.4l15.9 15.8l17.6 32.6l11.5 12l0.6 5.1l-5.8 8.6l0.8 28.1l6.8 2.5l3.6 3.9l2.9 6.1l10.3 21.7l1.3 -0.2l0.6 10.6l-1.5 11.8l-4.3 6.8l-10.1 7.8l-2.6 10.5l0.2 15.8l2.7 1.5l-1 15.9l-3.9 178.6l-1.1 34.6l-11.1 364.2l-0.3 2.9l-0.5 27.2l-0.7 35.2l-4.2 160.4l383.9 24l397.8 15.4l-15 52.8l44.8 -51.2l314.6 14.8l5.3 -185.1l36.1 -2.5l0.7 -94.1l80.2 -36.9l192.6 104.8l3.7 -111.4l61.8 -159.7l38.8 -160.1l-9.3 -28.2l-65.1 -22.9l-64.1 -13.8l3.7 -56.1l-60.5 -12.7l46.9 -339l6.3 -49l43.2 16.3l166.2 -383.6l-346.9 -137l40.7 -103.2l-36.5 -15.6l104.3 -234.1l-22.9 -78.7l-117.8 -61.3l-18.9 39.7l-104.2 -42.2l-3.5 -74.7l-245.5 127.6l-168.9 87.1l-38.2 -168.6l-367.7 17.8l-182.9 20.3l36.8 284.6l-73 9.3l-383.2 45.5l-19.7 35.9l-1.6 8.1l-1.3 27l2.4 27.3l-2 13.9l-20.8 30.7l-15.2 14.7l-8.5 11l-17.2 31.7l-5.6 17.2l-5.2 9.5l-8.2 8.9l-10.9 6.1l-7.8 11.7l-1.5 7.4l5.2 14.8l-1.9 13.5l-9.5 31.9l-1.1 3.7l-0.8 12.4l-18.9 45.2l-2.8 23.2l-9.5 18.4l-13.9 8.9l-4.9 5.6l-3.6 6.8l-6.2 24.4l2 8.5l27.9 44.7l1.9 6.6l-0.5 4.4l-17.1 33.1l-0.3 5.5l4.8 18l1.6 14l-9.8 17.1l-15.6 33.2l-2.6 9z" />
  </g>
  <g data-id="023">
    <path d="m1414.3 3498.6l0 0l52.1 -9.5l73.6 369.3l35.3 -4.4l219.5 85.2l230.8 93.1l170.5 67.7l142.7 -310.1l17.1 3.3l115.3 -290.7l73.8 27l12.6 -37.5l339.8 138.8l67.8 -374.9l149.7 68.8l151.6 -278.6l-3.8 -105l139.1 -170.3l153.6 -288.8l-9.2 -40.7l-10 -14.3l-284.2 -155l-329.2 -177.7l-163.8 328.2l-6.9 10.9l-302.6 -229.6l-167.7 330.7l-324.6 -181l-114 -37.1l-99.4 197.1l101 52.5l-63.1 127.5l-85.9 -25.9l-68.6 144.7l-94 196.4l44.9 22.3l-163.7 467.4z" />
  </g>
  <g data-id="025">
    <path d="m1266.9 8077l0 0l-15.3 369.4l252.5 13.1l-13.5 385.1l-8.4 246.9l-3.9 113.2l138.3 4l214.6 6.2l52.5 2l305.6 11.5l493.6 18.6l169.5 6.4l0.1 -8.9l-7.3 -16.3l-19.9 -31.7l-15.3 -18.7l-4.8 -19.1l-3.5 -27.7l-4.9 -14.1l-5.1 -7.4l-16.1 -9.6l-4.4 -5.7l-4 -9.5l-9.8 -12.2l-12.3 -3.3l-7.6 1.5l-2.4 3.7l-1.3 11.6l-4.2 5.5l-21.2 12.9l-8.4 2.6l-6.5 -0.3l-8.7 -8.4l-1.9 -10.8l5.5 -11l13.6 -7.1l5.2 -5.5l0.9 -9l-2.4 -12l-8.4 -16.6l-11.9 -17.6l-7.3 -8.3l-61.9 -56.3l-9.3 -14.5l-9.7 -61.1l-0 -0.3l-3.8 -34.4l0.1 -19.8l-3.3 -17.6l-14.2 -18.6l-9.2 -20.7l-2 -4.4l8.8 -27.9l-2.6 -22.6l-2.9 -2.1l-0.3 -2.8l3.2 -16.3l-0.8 -17.4l7.5 -37.9l2.4 -2.6l16.1 -6l16.8 -8.9l10 -9.9l13.1 -16.7l0.1 -0.2l3.7 -7.3l-0.3 -36.6l4 -17.5l3 -4.5l11.4 -6.5l2.4 -4.8l0.5 -11.6l-8.3 -40.1l2.2 -28.4l-0.8 -16.6l-2.4 -12.9l-3.3 -8.6l-3.5 -3.2l-5.6 -1.6l-6.4 -8.3l-1.9 -5.2l1.3 -8.9l5.6 -11.2l40.1 -32.7l30.6 -4l10.7 -6.5l33.9 -7.3l16.7 -16.5l15 -8.7l7.2 1.5l7.3 7.4l8.4 -1.2l22.8 -25.6l12.7 -17.7l0.1 -4.6l-7.1 -8.2l-3.8 -13.7l1.8 -16l5.2 -13.4l8.7 -12.5l8.8 -4.9l15 2.9l9 -2.4l10.9 -12.9l3.5 -7.3l-0.2 -10.8l-2.4 -6.4l-24.3 -20.6l-11.8 -6.2l-5.7 -8.4l-9.9 -24.6l-1.7 -11.8l6.1 -29.6l1.9 -18.8l-5.8 -14.1l-10.6 -13.1l-2.7 -6.7l-1.5 -13.8l2.5 -8.3l7.8 -10.7l26.5 -24.3l27.7 -31.4l15.5 -22.7l10.7 -18.7l2.5 -7.2l0.4 -12.3l-11.7 -32.8l-11.2 -23.9l1.8 -11.1l5.4 -10l16.7 -15l5 -10.9l1.4 -5.7l-0.9 -22.3l-8.6 -14.9l-5.9 -6.8l-8.8 -10.1l-5.7 -10.3l0.5 -3.8l5.7 -1.3l0.5 -2.9l-0.8 -14.3l-2.9 -3.3l-6.7 -3l-11.9 0.7l-10.7 -6.9l-14.3 -30.5l-0.7 -7.7l1.8 -4.1l10.9 -9.8l2.9 -6l0.7 -6.7l-1.6 -24.7l-0 -0.3l0.7 -35l-2 -7.8l22.3 -23.4l4.4 -7l-1 -10l-16.6 -27.8l-2.5 -13.2l32.9 -34.2l3.6 -6.9l-2.5 -25l-5.7 -24.9l0.2 -15.2l8.3 -24.9l9.3 -20.7l2 -10.6l-338.3 -10.9l-395.3 53.2l-130 -43l-74.4 -26.2l-185.1 -62.8l-83.2 -28l-10.1 228.6l-30.9 0.9l-8.6 155.3l-11.1 211.8l-373.3 -23.6l-0.7 8.4l-4.5 30.7l-12 344.6z" />
  </g>
  <g data-id="027">
    <path d="m1332.8 4627.5l0 0l-0 75.4l21.2 -11.2l40.9 162.2l245.5 -127.6l3.5 74.7l104.2 42.2l18.9 -39.7l117.8 61.3l22.9 78.7l-104.3 234.1l36.5 15.6l-40.7 103.2l346.9 137l-166.2 383.6l-43.2 -16.3l-6.3 49l-46.9 339l60.5 12.7l-3.7 56.1l64.1 13.8l65.1 22.9l9.3 28.2l-38.8 160.1l-61.8 159.7l-3.7 111.4l-192.6 -104.8l-80.2 36.9l-0.7 94.1l-36.1 2.5l-5.3 185.1l139.8 6.1l1.5 174.9l185.1 62.8l74.4 26.2l130 43l395.3 -53.2l338.3 10.9l0.3 -1.4l-1.5 -6.1l-7.1 -13.4l-6.6 -23.7l0.7 -34.6l6.7 -18.2l3.4 -4.1l39.7 -19.8l17.9 -31.7l22.2 -46.1l18 -82l18.1 -38.4l-1 -6.5l-5.3 -9.8l-14.3 -13.3l-18 -29.2l-4.4 -10.9l-0.5 -5.1l3.8 -10.9l6.8 -13.2l0.2 -0.4l16.4 -31.9l4.9 -7.2l11.3 -11.3l13.1 -18.3l2.4 -7.8l-6 -3.8l-24.1 0.7l-10.2 -1.7l-27.5 -18.6l-3.8 -6.1l-1.2 -6.5l-2.6 -42.6l1.7 -14.7l6.5 -16.4l23 -22.8l4.2 -7.8l6.4 -45.4l4.4 -31l0.5 -17l10.2 -54.7l0 -0.3l1.5 -8.1l0.7 -30.4l4.9 -24.6l8.1 -18.6l1.8 -7.7l-6 -55.6l0.4 -9.2l2.8 -5.7l20.5 -21.7l4.5 -7.2l3.6 -16.4l3.8 -33.9l0.2 -12.5l-1.5 -7.1l-11.3 -27.6l-13.9 -14.6l-19.7 -16.7l-6 -11.1l-0.5 -10.5l8 -28.6l-0.4 -13.3l5 -14.1l10.2 0.6l4.7 -4l16.9 -27.8l8.5 -22.9l-2.3 -56.4l-4.6 -30.3l0.5 -6.7l9.3 -40l18.4 -21.5l26.8 -17l40.7 -16.4l51.1 -46.8l7.9 -3.3l0.2 -0.1l3.2 -2.4l2.5 -7.5l-1.5 -14.7l-0.2 -2l-3.8 -6.3l-9.3 -7.7l-6 -16.9l1 -19l5.9 -23.4l9.9 -7.7l5 -14.3l-0.4 -2.6l-6.1 -6.7l-0.6 -7.3l1.6 -3.7l5 -4.9l14.2 -8.6l21.2 -9.1l3.4 -6.6l0.6 -15.1l-3.5 -11.5l3 -27.1l3.3 -9.2l6 -5.2l14.8 -27.4l4.2 -12l2.7 -18.3l0.9 -16.2l-3.7 -12.3l-4.9 -7.7l1.5 -38l0 -0l0.5 -13.1l7.2 -28l9.2 -15.5l14 -9.9l7.8 -9.4l15.3 -23.9l6.2 -12.5l14.4 -17.2l11 -9.8l14.2 -28.6l20.2 -0.1l55.9 -36l36 -20.9l26.4 -38.5l4.6 -8l5.7 -15.3l5.9 -8.5l4.7 -3.1l16.5 -4.8l9.6 -6.4l6.8 -6.7l-385.2 -156.4l-357.3 -115.4l-333 -141.6l-376 -145.5l-232.1 -79.3l-23.7 -133l-45.7 86.4l-27.1 10.9l-142.6 307.8l-25.9 -9.7l-6.9 -156.4l-222.9 112.7l-78.9 -31.2z" />
  </g>
</svg>
