<?xml version="1.0" encoding="UTF-8"?><!DOCTYPE svg PUBLIC '-//W3C//DTD SVG 1.1//EN' 'http://www.w3.org/Graphics/SVG/1.1/DTD/svg11.dtd'><svg viewBox="0 0 1000 620.361" xmlns="http://www.w3.org/2000/svg"><path data-id="25001" d="m785.9 513.3l1 2.9l2.7 0.1l1.9 -0.7l0.7 1.3l2.4 0.6l2.7 -1.9l2.9 -5l2.8 -2.2l6.3 -1.8l6.2 -0.9l8.1 -1.1l7.7 -0.2l1.3 0l1.5 0l8.1 -1.1l2.1 -0.8l2.6 -1.6l4.2 -5l3 -5.1l1.4 -2.4l2.2 -5l8 -0.8l2.2 0.4l6 -1.9l2.6 -1.7l1.4 -2.9l0 -1.1l1.3 -1.6l2.4 -1.4l3.8 -0.6l2.3 0.7l2.3 1.5l2.8 1.2l3.1 -0.8l2.8 -2.1l2.6 0l1.9 0.8l1.5 2.7l-0.2 3l0.6 2.6l2.2 0l1.2 -2.5l-0.2 -1.2l2.9 -2.9l2.9 -1.2l12.4 -5.1l9.1 -1.9l5 0l6.5 -2.1l8 -2.6l9.4 -0.8l7.3 -1.1l4.2 -1.6l2 0.1l3 1.6l5.8 5l0.7 2.5l-1.2 6l-2.3 4.2l-1.9 6.1l-1.3 12.4l-3.3 4.6l-1.4 2.6l0.7 2.7l2.3 2.3l3.4 -2.1l0.8 -4.2l1.1 -9.7l4.7 -11.6l2.6 -3.1l1.8 -7.6l1 -1.7l2.3 -9.5l3.1 -7.9l-0.1 -18.5l-2 -25.5l-2.6 -13.4l-6.5 -24.9l-4.9 -14.2l-7.2 -15.1l-6 -10.5l-7 -8.5l-6.7 -5.4l-9.3 -4.9l-12.3 -4.1l-8.1 -1.4l-4.9 0.2l-5.2 1.2l-3.5 2.2l-2 3.4l0.5 1.2l1.3 0l1.6 1l4.1 4.5l3 5.7l3.2 3.1l1.6 0.9l1.2 0l-1.8 -2.9l-0.6 -2.5l0.2 -2l2.1 -4.1l2.3 -2.2l2.4 -1.2l4 -1l2 0.2l7.1 3.9l4.2 3l3.5 4.1l1.7 3l1.6 4.8l1.8 10l1 17.6l-0.9 13.7l2.3 6.4l1.5 -2.8l0.6 -6.6l2 -4.1l-0.1 -2.4l2.6 -1l4 0.3l1.4 6.6l0.3 4.8l3.4 2.7l2.6 0.5l0.8 1.3l-2.5 3.9l1.3 14.2l0.2 11.4l-1.3 2.9l-4.5 5l-2.4 1.2l-8.7 4.3l-8.9 2.4l-7.2 2.9l-5.5 -0.5l-11.3 3.4l-2 -0.4l-7.5 3.4l-5.2 3.5l-6.8 7.4l-1.2 -0.1l-2.4 -2.7l-0.8 -1.8l-4.4 -3.1l-23.6 -1.7l-2.2 -0.5l-8.1 -1.6l-16.5 -6.4l-6.3 -4.6l-6.5 -6.4l-4.3 -5.2l-1.3 -2.3l-7.8 9.1l-4.4 1.9l-14.3 7l1.9 2.9l1.4 2.9l-6.2 10.9l4.6 2l0.8 2.1l-0.5 3.3l-5.7 1.8l-4.3 4.5l3.4 0.3l2.8 8.4l0.4 1.4l-0.3 1.9l-3.3 2l-0.6 2.4l2.1 1.6l1.5 3.3l-3.3 5.4l-0.1 1.9l2.9 8.3l0.3 2.1l-0.5 1.8l-1.7 0.9l-1.4 1.8l-0.4 2.9l0.3 2.8l-1.2 2.4l-10.1 6.6z"/><path data-id="25003" d="m0 303.2l3.1 13.8l2.7 0l15.2 -0.4l38.7 1.4l17.2 0.7l29.5 1.1l20.7 0.8l-0.4 -6.7l-5.1 -13.8l3.1 -8.6l-2.6 -11.7l10.1 1.7l8.5 -40.1l1.3 -23.7l-8.2 1.6l-9.4 -7.7l-1.6 -19.6l0.8 -3.2l15.1 3.6l12 -60.7l-2.9 -0.6l1 -5.5l6.8 -32.2l-1.1 -9.4l-5.8 1.9l-5.5 -4.7l11.5 -6.4l1.6 -5.3l-20.9 0.5l0.2 -14.6l-33.4 -0.9l-34.2 -0.9l-24.5 89.6l-8.7 31.9l-25.8 95l-9 33.1z"/><g data-id="25005"><path d="m747.5 483.1l-1.8 3.8l2.3 4.1l2.3 1l0.3 -1.8l-0.8 -4.1l-2.3 -3z"/><path d="m594 375.5l1.4 -0.1l1.6 -0.3l1.6 -0.3l3 -0.4l4.2 -0.7l0.1 1.8l-0.4 4.5l0.8 3.2l1.1 4l-2.3 6.6l1.9 3.5l-1.3 1.3l-1.5 1.5l-0.6 1.8l2.2 5.3l0 1l-0.2 1.7l-0.2 1.4l1.4 1.3l1 0.9l0.8 2.1l0 1.6l3.2 2.4l9.3 5.3l6.4 3.6l9.8 15l7 11.3l1.6 2.5l1.3 0.3l2.8 0.7l1.5 0.4l0 1.1l3.9 1l2.3 0.6l2.3 0.5l3 0.9l0.2 7.1l-0.4 4.8l-1.3 1.7l-0.3 2.9l0.2 3.2l1 1.8l1.6 3.2l2.6 26.8l0.5 9.2l9.8 -4.4l7.6 1.2l4.8 4.2l1.6 -1.6l3.3 -2.7l1.2 -0.9l4.5 -1.1l6 0.7l-0.5 -3.9l1.2 -3.7l5 0.3l2.3 5.5l1.5 -5.5l1.7 -3.9l2.9 0l-1.8 -9.4l-2.6 -3.1l-0.4 -2l2 -0.8l1 1.4l1.9 -2.5l1.1 -3.7l-0.7 -2.4l0.1 -3l0.7 -1.1l2 0.2l1 1.2l1.6 4.5l2.6 1.1l-0.9 -6.7l-2.4 -3.3l2.1 -1.6l3.1 -0.2l1.5 -3.3l4.6 1.9l1.2 1.9l-0.2 3l0.5 5.3l2.3 4.1l1.5 2.7l0.1 -1.9l0.8 -2.3l1.9 -1.1l-3.3 -10.3l0.7 -1l2.3 -0.8l-0.3 -5.8l-3.6 -13.6l-1.9 -7.1l-6 -22.5l-5.8 -1.2l-4.1 -10.4l-29.2 4.6l0.9 -10.2l-3.7 -3.9l17.6 -16.6l-3.8 -16.9l-1.6 -0.2l0.5 -1l-0.3 -2.4l-1.2 -3.1l-0.9 -2.2l-13.9 -12.6l-1.3 -7.4l-4.3 -25.2l-0.4 -2.5l-2.6 -14.7l-9 4.8l-7.2 3.8l-8.4 4.4l-2.7 1.4l-4 2.1l-5.3 2.8l-21.4 11.3l-21.3 11l-4.8 0.1l0 6.9l-0.1 16.4l0 3.1l0 7.9z"/></g><g data-id="25007"><path d="m749.1 612.3l-1.6 0.5l3.1 2.7l2.5 0.6l2.2 0l0.7 -3.3l-1.4 -1.4l-1.5 -1l-1.5 1.2l-2.6 0.8z"/><path d="m747 577.4l-1.4 2.3l5.4 7.4l4.8 4.8l7.4 4.9l1.9 -1l0.7 -2l-0.5 -1.1l1.1 -2.5l4.7 -4.2l4 -2.3l6.5 -2l30.9 -2.8l17 0.1l11.8 0.9l12.6 -0.6l0.8 -2l-0.3 -10l0.8 -6l-1.2 -9l-3.7 0.6l-1.9 2.3l-0.6 1.5l0.1 3.6l-3.3 4.8l-1.7 1l-2.3 -0.3l-1 -2.9l-1.3 -3.1l-3 -1.3l-3.1 -0.5l-2.7 -1.5l-2.6 -2.5l-1.5 -3l-0.7 -2.6l0.7 -4.7l-0.1 -3.6l-2.8 -6l-1.1 -0.8l-2.1 1.1l-6 -1.4l-0.6 -3.4l-1.4 -0.5l-12.8 7.9l-10.5 7.4l-4 3.9l-2.8 5.8l-0.3 2.5l-3.3 3.7l-1.4 0.5l-11.1 16.6l-1.7 1.5l-2.3 0.5l-4.7 -2.2l-3.4 -0.7l-6 0.9z"/><path d="m714.6 554.4l-0.3 1.3l0.7 1l3.1 -0.9l2.5 -1.6l7.1 -2l10 -0.5l2.6 -1.3l6.1 -6l5.1 -1.4l7.6 -0.3l8.2 -5.4l1.2 -1.9l-0.2 -1.5l6.4 -6.1l8.1 -3.9l8.3 -5.9l1.6 -0.3l-1.5 -2.2l-1.9 0.7l-1.9 0.3l-1.8 -3.3l-14 9.2l-2.5 3.2l-6 5.5l-3.5 1.1l-4 5.1l-7.4 1.6l-7.5 2.8l-7 4.1l-5.8 1.3l-6.3 1.4l-1.2 -0.2l-6.1 5.9z"/></g><path data-id="25009" d="m632.9 85.3l-3.8 2l23.5 15.3l-2.8 3.2l4.8 3.9l2.3 -6.4l3 2.5l2.9 3.5l16.6 -1.9l4.9 -1.9l8.5 13.3l-2 1.5l-6.1 -1.4l-3.8 6.9l-1.2 9.4l10.1 2.4l0.9 7.3l-2.2 1.5l-2.5 5.7l-0.2 3.8l7.7 11.8l4.5 1.4l-0.3 2.4l8 1.3l3.8 -5l2.2 0.2l2.4 -3.3l2.3 0.2l0.1 6l1.9 6.9l8.6 0.7l1 -1.6l-1.8 -1.9l-1.3 -0.9l-3.9 -2.7l-0.1 -6.5l0 -3.4l1.6 -2.2l1.2 -0.5l2.7 0.4l3.9 2.3l2 -1.5l0.2 -2l1.9 -3.3l6.1 -4.4l2.9 -0.5l1.6 1.5l1.6 -1.1l1.4 -5l-3.1 -6l-4.2 -0.8l-2.5 -0.4l-1.4 -6.6l-0.2 -1.1l0.3 -1.3l6.4 -1.4l7 -0.5l2.2 -1l3.2 -2.8l2.9 -0.7l10.2 -2.6l5.7 -2.4l2.1 2l3.8 -1l4.9 -1.3l3.9 -4.3l0.9 -1.6l1.6 -0.6l1.5 0.9l0.5 1l0.1 1.6l0 1.4l3.7 -0.2l5.3 -6.8l4.8 -10.8l3.6 -2.4l3.2 -0.1l0.7 -1.8l-0.1 -3.3l-1.1 -4.5l-5.4 1l-2.2 -1.2l-0.3 -1.8l0.3 -4l0.8 -4.6l-2.8 -1.8l-4.2 1.2l-5.2 4.5l-5 5.8l-0.3 3l-1.9 0.5l-10.3 -3.7l-1 -2.5l-4.1 -4.7l-1.2 -0.7l-4.4 -0.7l-4 -3l0 -1.9l2.3 -2.4l-0.5 -2.4l-5.8 -13.7l-0.6 -2.3l-2.8 -10.9l-1.5 -11l-2 -15.2l0.1 -8.3l-1.2 0.2l-2.5 1.1l-1.8 1.5l-3.1 1.5l-10.5 -8.3l-4.6 -1.5l-3.3 0l-3.7 0.5l-1.2 0.5l-4.9 3.1l-4.8 2.7l-9.2 1.9l-1.4 0.3l-7.4 1.5l-3.7 3.9l-0.9 1.8l-1.7 4.2l-3 10.2l-14.4 -4.3l-4.7 -1.4l-4.8 2.2l-4.4 2.6l-2.5 2.7l-2.2 2.8l-1.1 1.4l1.2 20.2l-7.4 -2.2l-4.4 -1.3l-2.7 0.5l-3.4 1.1l-2.7 2.3l4.8 25.5l-1.2 2.7z"/><path data-id="25011" d="m135.5 55.4l-0.2 14.6l20.9 -0.5l-1.6 5.3l-11.5 6.4l5.5 4.7l5.8 -1.9l1.1 9.4l-6.8 32.2l27.5 5.6l1.6 21.7l27.3 6.5l4.3 7.9l15.9 -2.7l-1 17.9l9.8 -1.6l23.1 -5l1.5 0.1l10.3 -1.7l15.2 -2.5l1.7 10l30.4 -5l5.2 20.6l0.3 9.7l1.2 2l-1.3 12.1l1.6 -0.3l10.1 -14.9l0.9 -10.8l-0.7 -13l8.4 -13.1l-2.2 -14.5l13 -12.8l-6.8 -7.6l-2 -16.7l4.2 0.6l-1.6 -9.4l3.4 -4.1l7.5 -1.6l0.8 -8.8l-1.3 -9l-11.8 -4.5l-3.1 -17.9l-12.1 -0.5l-24 -1l-10.9 -0.5l-2 -0.1l-16.3 -0.6l-47.3 -1.8l-29.3 -1.1l-5 -0.2l-20.6 -0.6l-13.3 -0.4l-25.9 -0.8z"/><path data-id="25013" d="m124.7 291.5l-3.1 8.6l5.1 13.8l0.4 6.7l12.4 0.4l2.6 0.1l5.7 0.1l32.2 0.3l4.6 0.3l9.4 0.2l-0.9 14.6l11.7 -1.7l2.2 -0.3l0.2 -1.8l0.8 -1.9l1 -1.6l-0.8 -1l1.1 -0.4l1.2 -1.7l0.6 -1.8l-1.6 -1.2l0.5 -1.1l16.7 -0.2l14.7 1.7l9.8 0.6l0.3 2.1l4.7 0.2l2.2 0l2.5 -2l5.7 -0.7l6.9 -0.9l5.3 0l14.7 0.1l16.5 0.3l8.5 0.2l13.9 0.3l13 0.1l5.9 0l12.4 0.2l19.4 0.3l0.2 -49.5l-1.9 0.3l-16.4 -0.1l-17.7 -8.5l0.3 -7.1l11.6 -16.1l-7.2 1.2l-3 4.6l-9.5 -0.9l-11.8 4.3l-8.6 5.1l1.8 6.6l-10.4 1.5l-2.4 -17.4l-12.1 1.7l-21.6 3.2l-6.2 0.8l-7.2 1l-5.9 0.8l-8.5 -7.6l6.9 -13.7l-3.1 -6.5l-6.9 4.3l-6.1 17.4l-3.1 0.9l-6.3 4.7l1 11.2l-26.3 -6.2l-3.5 -14l-5.6 -3.1l-12.4 1.7l-3 6.3l-1 2.7l-11.2 -8.6l8.9 -9.9l-1.3 -25.4l-2.9 -3.1l-16.3 -1.2l-12.9 11.8l-0.5 23.3l-9.3 40.5l-10.1 -1.7l2.6 11.7z"/><path data-id="25015" d="m123.6 188.9l-0.8 3.2l1.6 19.6l9.4 7.7l8.2 -1.6l12.9 -11.8l16.3 1.2l2.9 3.1l1.3 25.4l-8.9 9.9l11.2 8.6l1 -2.7l3 -6.3l12.4 -1.7l5.6 3.1l3.5 14l26.3 6.2l-1 -11.2l6.3 -4.7l3.1 -0.9l6.1 -17.4l6 -4.7l4 6.9l-6.9 13.7l8.5 7.6l5.9 -0.8l7.2 -1l6.2 -0.8l21.6 -3.2l12.1 -1.7l2.4 17.4l10.4 -1.5l-1.8 -6.6l8 -4.9l12.4 -4.5l9.5 0.9l3 -4.6l7.2 -1.2l2.8 -2.3l-1.5 -3.2l-0.4 -4l1.4 0.1l0.2 -4.9l2.4 -3.2l-3.8 -1.1l1.7 -6.5l-9.4 2l-8.4 1.5l-3.9 -18.9l-6.2 3.4l-1 -0.2l-10.1 14.9l-1.6 0.3l1.3 -12.1l-1.2 -2l-0.3 -9.7l-5.2 -20.6l-30.4 5l-1.7 -10l-15.2 2.5l-10.3 1.7l-1.5 -0.1l-23.1 5l-9.8 1.6l1 -17.9l-15.9 2.7l-4.3 -7.9l-27.3 -6.5l-1.6 -21.7l-27.5 -5.6l-1 5.5l2.9 0.6l-12 60.7l-15.1 -3.6z"/><path data-id="25017" d="m449.6 66.7l0.5 2.9l11 10.9l-0.2 15.6l3.8 -1.6l19 0.5l0.3 -2.9l31 12.4l-4 30.8l12 2.4l-0.9 -2.6l5.4 -8.2l3.4 2.7l4.1 0.6l3.6 -2.5l11.6 2.8l1.8 7.4l0.7 1.4l-8.5 17.2l4.7 3l-1.5 7.2l-2.8 13.4l-12.6 5.4l6.7 4l-6.4 7.5l-1.9 3.7l-4.1 2.6l1.8 3l4 2.2l5.3 9.8l9.5 -5.8l11.1 -0.9l1.6 0.2l5.2 -0.7l0.2 7.2l-3.1 8.1l-2.6 9.6l-4.4 -0.8l-6.3 0.7l-1.5 -0.6l-2.4 -0.7l-5.4 2l-3.3 4.2l-2.6 9.5l-0.8 3l5.4 8.5l7.6 4.9l4.5 -2.7l10.3 -0.6l1.5 9.3l5.4 3.7l4 -0.5l5.6 -6.3l3.9 -1.7l7.8 0.2l-0.6 -3.6l5.5 -1.4l6.4 -1.4l5 -1.9l-1.7 -4.8l3.3 -0.6l-1.3 -2.1l3.7 -4.7l-0.8 -6l8.3 0.3l-1.5 -8.5l-4.2 -10.1l-0.8 -2.6l-0.3 -3.5l16 -5.4l4.8 0.5l1 1.2l5.8 1.8l0.2 1.3l0.2 2.6l5.3 4.3l0.7 2.9l3.9 2.5l3.5 -4.4l3.9 -3.5l-4 -4l2.7 -2.9l3.4 -3.2l-2.9 -1.2l-0.7 -4.1l-1.4 -2.3l2 -3.7l5.7 -0.6l1 -1.3l3.5 -3.3l3.5 2l0.4 1.7l0.1 1.1l3.8 3.3l2.5 -0.5l4.7 -2l0.5 -1l1.4 -2.4l1.8 -0.4l-2.4 -1.6l-2.3 -3.5l2.1 -3.6l5.1 1.8l4 -5.5l2.2 -4.7l1.4 -3.8l2.2 -5.3l-1.5 -2.4l-7.7 -11.8l0.2 -3.8l2.5 -5.7l2.2 -1.5l-0.9 -7.3l-10.1 -2.4l1.2 -9.4l3.8 -6.9l6.1 1.4l2 -1.5l-8.5 -13.3l-4.9 1.9l-16.6 1.9l-2.9 -3.5l-3 -2.5l-2.3 6.4l-4.8 -3.9l2.8 -3.2l-23.5 -15.3l3.8 -2l1.2 -2.7l-4.8 -25.5l-3.5 4.1l-3.1 5.6l-4.3 5.4l-10.1 -0.1l-6.1 -0.4l-5 -0.2l-4.8 -0.2l-12.7 -0.4l-4.7 -0.2l-2.4 -0.1l-2.8 -0.1l-7.9 -0.3l-13.1 -0.4l-24.6 -0.8l-1.5 0l-4.4 -0.1l-26.2 -0.8l-7.5 -0.3l-9.2 -0.3l-26.1 -1z"/><path data-id="25019" d="m903 593.4l0.2 1.3l0.3 2l1.9 2.6l3 2.4l5.3 2l18.6 10l14.5 5l6 0.6l3.8 -1.3l8.5 0.6l10.5 1.8l3.8 -0.5l7.4 -3l2.6 -1.9l1.6 -4.5l0 -5.3l-4.3 -8.9l-11.9 -24.5l-4.2 -6.4l-4.3 -2.2l-0.1 1.4l1.2 1.6l2 2.7l0.9 1.6l1.2 1.8l0.6 2.8l-0.6 6.2l-0.1 1.4l-4.1 6.6l-4.6 4.8l-5.4 3.6l-2.8 0.5l-3.2 0.5l-5.9 0.9l-20.1 -0.3l-2.5 1.2l-1 0.5l-5.8 0l-2.9 -1.9l-1.2 -2.9l-1.4 -0.9l-3.2 -1.7l-4.2 -0.1z"/><g data-id="25021"><path d="m744 237.5l-2.4 7.9l7.4 14.6l10.6 -8.3l1.1 -0.9l1.2 -10l-2.2 -0.8l-6.4 -3.4l-3.6 -1.1l-5.6 2.1z"/><path d="m653.4 214.3l-2.7 2.9l4 4l3.5 3.5l3.4 -2.8l3.6 -6.2l2.1 -1.6l1.4 -2.1l1 -2.7l0.1 -1.8l1 -3.1l-1.9 -0.8l-2.1 -0.3l-2.1 0.8l-4.9 4.1l-3 3.1l-3.4 3.2z"/><path d="m560.6 291.9l0.5 4.8l1.2 1.4l-0.8 13.1l0 12.5l0 5.4l11.2 -0.2l9.4 -0.2l12 -0.2l0 12.7l4.8 -0.1l21.3 -11l21.4 -11.3l5.3 -2.8l4 -2.1l2.7 -1.4l8.4 -4.4l7.2 -3.8l9 -4.8l5.4 -2.9l10 -5.3l1 -0.5l5.5 -2.9l2.5 -1.6l3.3 -1.8l9 -4.8l6.7 -3.6l2.8 -25.5l-1.1 -0.4l-1 -1.1l-0.9 -2.8l-1.5 -2.8l0.1 -1.1l8.1 -7.7l-3.4 -8l-6.6 4.3l-4.5 -2.7l-1 1.8l0.3 3.5l-3.1 1l-6.1 0.3l-2 -1.4l-2.5 -4.3l-0.4 -2l0.7 -2.7l4.7 -4.2l-1.4 -2.6l-5.1 3l-5.1 -1.4l-2.4 0.8l-1.3 1.1l1 7.1l-1.4 2.9l-2.9 -0.2l-2.5 3.9l-3.1 -1.2l-5.7 1.2l-4.1 2.3l-1.3 0.9l1 4l-6 7.6l-5.5 -11.1l-1.6 0.4l-5.3 -7.4l-3.7 -1.7l-0.8 -1l-3.9 -2.5l-0.7 -2.9l-5.3 -4.3l-0.2 -2.6l-0.2 -1.3l-5.8 -1.8l-1 -1.2l-4.8 -0.5l-16 5.4l0.3 3.5l0.8 2.6l4.2 10.1l1.5 8.5l-8.3 -0.3l0.8 6l-3.7 4.7l1.3 2.1l-3.3 0.6l1.7 4.8l-5 1.9l-6.4 1.4l-5.5 1.4l0.6 3.6l-7.8 -0.2l-3.9 1.7l-5.6 6.3l-4 0.5l-0.1 9.6l-6.4 5.7z"/></g><path data-id="25023" d="m678.1 299.7l2.6 14.7l0.4 2.5l4.2 24.3l1.4 8.3l13.9 12.6l0.9 2.2l1.2 3.1l0.3 2.1l-0.5 1.3l1.6 0.2l3.8 16.9l-17.6 16.6l3.7 3.9l-0.9 10.2l29.2 -4.6l4.1 10.4l5.8 1.2l6 22.5l1.9 7.1l3.6 13.6l0.6 6l2.2 1.5l7 -0.1l2.6 -1.7l-1 -4.3l-3.3 -1.8l0.2 -2.5l0.7 -1.1l1.2 -0.3l9.1 2.1l0.9 2.1l1.2 1.5l1.1 -0.2l2.2 -4.7l-0.2 -2.6l-1.2 -2.4l0.2 -3.3l1.7 -6.7l3.1 -1l4.2 3.3l2.7 1.2l0.6 -3.4l-1.1 -7.1l-2.1 -3.9l0.2 -1l0.5 -2.5l2.1 -1.1l2.9 1.8l10.5 3.4l3.9 2.4l1.5 -0.1l1.8 -1.2l6.7 -10.7l-1.4 -2.9l-1.9 -2.9l14.3 -7l4.4 -1.9l7.8 -9.1l-1 -1.8l-0.6 -3.3l0.3 -2.6l1.8 -3l2.8 -7.3l-1.8 -11.6l-3.9 -6.6l-0.4 -1.8l0.3 -1.8l-1.8 -4.8l-8.6 -7.6l-4.1 0.8l-2.8 2.7l-2.3 0.2l-2 -1.2l-2.2 -2.7l-4.8 -4.2l-0.9 1.1l-3 -0.7l-3.1 -3.1l-7.1 -6.9l-3.1 -4.7l-0.3 -1.4l-0.3 -1.6l4.6 -2.2l2.5 0.2l2.2 2.7l2.2 -0.9l1 -1.7l-1.2 -3.4l0.1 -1.1l0.5 -4.8l5.2 -3.4l1.8 0.1l0.3 -1.9l-1.4 -6.6l0.1 -1.7l0.1 -1.3l2.5 -2l-0.5 -2.7l-6.6 -7.4l-4.3 -6.8l-1.6 -2.5l-5.9 -11.3l-2.2 -2.1l-1.2 -6.1l-1 -8.7l-2.3 -1.1l-4.1 -3.6l-2.5 -3.1l-2.9 -5.8l-1.7 -1.9l-2.7 -1l-1.2 10l-1.1 0.9l-10.6 8.3l-7.4 -14.6l2.4 -7.9l5.6 -2.1l-1.8 -0.6l-5.6 -0.3l-3 -2.9l-2.5 -3.7l-2.9 -5.7l-0.4 -3.1l-6.9 0.4l-2.8 0.8l-5 1.4l-3.7 4l-1.5 2.6l4.5 2.7l6.6 -4.3l3.4 8l-8.1 7.7l-0.1 1.1l1.5 2.8l0.9 2.8l0.1 1.5l2 0l-2.8 25.5l-6.7 3.6l-9 4.8l-3.3 1.8l-2.5 1.6l-5.5 2.9l-1 0.5l-10 5.3l-5.4 2.9z"/><path data-id="25025" d="m647.2 229l0.8 1l3.7 1.7l5.3 7.4l1.6 -0.4l5.5 11.1l6 -7.6l-1 -4l1.3 -0.9l4 -2.3l5.8 -1.2l3.1 1.2l2.5 -3.9l2.9 0.2l1.4 -2.9l-1 -7.1l1.3 -1.1l2.4 -0.8l5.1 1.4l5.1 -3l-1.7 -3.1l-4.5 0.8l-0.5 -2.6l0.3 -1l1.6 -5.3l0.5 -1.6l2.4 -2.2l4.5 -1.2l2.1 0l3.2 3.4l2.9 1.1l-0.1 -2.2l-5.3 -10.4l-0.1 -1.7l0.1 -1.2l0.6 -1.2l-2.8 -1.3l-0.9 -1.8l-0.5 -2.2l-1.2 -0.2l-0.4 -1.7l0.8 -3.6l1.3 -2.8l6.2 -6.5l0.1 -1l-2.2 -0.2l-3.8 5l-8 -1.3l0.3 -2.4l-4.5 -1.4l1.5 2.4l-2.2 5.3l-1.4 3.8l-2.2 4.7l-4 5.5l-5.1 -1.8l-2.1 3.6l2.3 3.5l2.4 1.6l-1.8 0.4l-1.4 2.4l-0.5 1l-4.7 2l-2.5 0.5l-3.8 -3.3l-0.1 -1.1l-0.4 -1.7l-3.5 -2l-3.5 3.3l-1 1.3l-5.7 0.6l-2 3.7l1.4 2.3l0.7 4.1l2.9 1.2l3 -3.1l4.9 -4.1l2.1 -0.8l2.1 0.3l1.9 0.8l-1 3.1l-0.1 1.8l-1 2.7l-1.4 2.1l-2.1 1.6l-3.6 6.2l-3.4 2.8l-3.5 -3.5l-3.9 3.5l-3.5 4.4z"/><path data-id="25027" d="m334.4 195.3l-0.9 10.8l1 0.2l6.2 -3.4l3.9 18.9l8.4 -1.5l9.4 -2l-1.7 6.5l3.8 1.1l-2.4 3.2l-0.2 4.9l-1.4 -0.1l0.4 4l1.5 3.2l-2.8 2.3l-11.6 16.1l-0.3 7.1l17.7 8.5l16.4 0.1l1.9 -0.3l-0.2 49.5l9.4 0.5l10.8 0.5l21.3 0.2l6.8 0.2l20.2 0.7l1.9 0l23.3 0.3l0.4 5.8l9.3 -0.6l23.8 -0.7l9.9 -0.3l10.8 -0.3l5.6 -0.2l2.8 -0.1l4.9 -0.1l8.5 -0.2l7.6 -0.7l1.1 0l0 -5.4l0 -12.5l0.8 -13.1l-1.2 -1.4l-0.5 -4.8l6.4 -5.7l0.1 -9.6l-5.4 -3.7l-1.5 -9.3l-10.3 0.6l-4.5 2.7l-7.6 -4.9l-5.4 -8.5l0.8 -3l2.6 -9.5l3.3 -4.2l5.4 -2l2.4 0.7l1.5 0.6l6.3 -0.7l4.4 0.8l2.6 -9.6l3.1 -8.1l-0.2 -7.2l-5.2 0.7l-1.6 -0.2l-11.1 0.9l-9.5 5.8l-5.3 -9.8l-4 -2.2l-1.8 -3l4.1 -2.6l1.9 -3.7l6.4 -7.5l-6.7 -4l12.6 -5.4l2.8 -13.4l1.5 -7.2l-4.7 -3l8.5 -17.2l-0.7 -1.4l-1.8 -7.4l-11.6 -2.8l-3.6 2.5l-4.1 -0.6l-3.4 -2.7l-5.4 8.2l0.9 2.6l-12 -2.4l4 -30.8l-31 -12.4l-0.3 2.9l-19 -0.5l-3.8 1.6l0.2 -15.6l-11 -10.9l-0.5 -2.9l-8.4 -0.3l-14.7 -0.4l-27.2 -1.1l-9.1 -0.3l-3.8 -0.2l-22.1 -0.7l-22.2 -0.7l3.1 17.9l11.8 4.5l1.3 9l-0.8 8.8l-7.5 1.6l-3.4 4.1l1.6 9.4l-4.2 -0.6l2 16.7l6.8 7.6l-13 12.8l2.2 14.5l-8.4 13.1l0.7 13z"/></svg>
