<?xml version="1.0" encoding="UTF-8"?><!DOCTYPE svg PUBLIC '-//W3C//DTD SVG 1.1//EN' 'http://www.w3.org/Graphics/SVG/1.1/DTD/svg11.dtd'><svg viewBox="0 0 1000 620.361" xmlns="http://www.w3.org/2000/svg"><path id="25001" d="m786 513l1 3l1 1l2-1h2v1l1 1h2l2-2l3-5l3-2l6-2l6-1l9-1h7h2h1l8-2h2l3-2l4-5l3-5l2-2l2-5l8-1h2l6-2l3-1l1-3v-1l1-2l3-1l4-1l2 1l2 1l3 1l3-1l3-2h2l2 1l2 3v3v2l1 1l1-1l2-2l-1-1l3-3l3-1l13-5l9-2h5l6-2l8-3l9-1l8-1l4-1h2l3 1l6 5v3l-1 6l-2 4l-2 6l-1 13l-3 4l-2 3l1 2l2 3l3-2l1-5l1-9l5-12l3-3l2-8l1-1l2-10l3-8v-18l-2-26l-3-13l-6-25l-5-14l-7-16l-6-10l-7-9l-7-5l-9-5l-13-4l-8-1h-5l-5 1l-4 2l-2 4l1 1h1l2 1l4 4l3 6l3 3l2 1h1l-2-3l-1-2l1-2l2-4l2-3l3-1l4-1h2l7 4l4 3l3 4l2 3l2 5l1 10l1 18l-1 13l3 7l1-3l1-7l2-4v-2l2-1h4l2 7v5l4 2l2 1l1 1l-3 4l2 14v11l-1 3l-5 5l-2 2l-9 4l-9 2l-7 3h-6l-11 3h-2l-7 3l-6 3l-6 8h-2l-2-3v-1l-1-1l-4-3l-24-1l-2-1l-8-1l-17-7l-6-5l-7-6l-4-5l-1-2l-8 9l-4 2l-15 7l2 2l2 3l-7 11l5 2l1 2l-1 4l-5 1l-5 5h4v1l2 8l1 1v2l-4 2v2l2 2l1 3l-3 6v2l3 8v2l-1 2l-1 1l-2 2v2v3l-1 3z"/><path id="25003" d="m0 303l3 14h3h15l39 1l17 1h1l28 1l21 1v-7l-5-14l3-8l-3-12l10 2l9-41l1-23l-8 1l-10-7l-1-20l1-3l15 3l12-60l-3-1l1-5l7-33l-1-9l-6 2l-6-5l12-6l1-6l-21 1l1-15l-34-1h-34l-25 89l-8 32l-26 95z"/><path id="25005" d="m748 483l-2 4l2 4l2 1l1-2l-1-4zm-154-107l1-1h1h1h2l3-1h4v2l-1 4l1 3v1l1 3v1l-2 6l2 3l-1 1v1l-2 1v2l2 5v1v1v1l-1 1l1 1l1 1l1 1l1 2v1v1l3 2l9 5l7 4l9 15h1l6 11l2 2v1h1h3l1 1v1l4 1l3 1h2l3 1h1v1l-1 6v1v4l-2 2v2v4v1l1 1l2 3l2 27l1 9l10-5l7 2l5 4l2-2l3-3h1l5-2l6 1l-1-4l1-4l5 1l3 5l1-5l2-4h3l-2-10l-3-3v-2h2l1 1l2-3l1-3l-1-3v-3l1-1h2l1 2l2 4l2 1h1l-2-6l-2-4l2-1l3-1l2-3l4 2l1 1v1v3l1 5l2 4l2 3v-2v-2l2-1l-3-11l1-1h2v-6l-4-14l-2-7l-6-22l-5-2l-5-10l-29 5l1-11l-4-4l18-16l-4-17h-1v-1v-1v-2l-1-3l-1-2l-14-13l-2-7v-1l-4-24v-3l-3-14l-9 4l-7 4l-8 5l-3 1l-4 2l-5 3l-22 11l-21 11h-5v7v1v16v3z"/><path id="25007" d="m749 612l-2 1l4 3h2h2l1-3l-1-2l-2-1l-1 2zm-2-35l-1 3l5 7l5 5l7 5l2-1l1-2l-1-1l1-3l5-4l4-2l7-2l31-3h17l11 1l13-1l1-2l-1-10l1-6l-1-9l-4 1l-2 2v2v3l-3 5l-2 1h-2h-1v-3l-2-3l-3-1l-3-1l-2-1l-3-3l-2-3v-2l1-5l-1-4l-2-6h-2l-2 1l-6-2v-3l-2-1l-12 8l-11 8l-4 4l-3 5v3l-3 3l-2 1l-11 16l-2 2l-2 1l-5-3h-3zm-32-23l-1 2l1 1l3-1l3-2l7-2h10l2-2l6-6l6-1h7l8-6l2-1l-1-2l7-6l8-4l8-6h2l-1-1v-1h-2l-2 1l-1-1l-1-3l-14 9l-3 4l-6 5l-3 1l-4 5l-7 2l-8 3l-7 4l-6 1l-6 2l-1-1z"/><path id="25009" d="m633 85l-4 2l24 16l-3 3l5 4l2-7l3 3l3 3l16-2l5-1l9 13l-2 1l-6-1l-4 7l-1 9l10 3l1 7l-3 1l-2 6v4l7 12l5 1v3l8 1l3-5h3v-1l2-2h2v6l2 7l9 1l1-2l-2-2l-1-1l-4-2v-7v-3l1-2l2-1h2l4 3l2-2v-1v-1l2-3l6-4l3-1l2 2l1-1l2-5l-3-6l-4-1h-1l-2-1l-1-6l-1-1l1-2l6-1l7-1l2-1l3-2l3-1l10-3l6-2l2 2l4-1l5-1l4-5l1-1v-1h1h1l1 1v1v2v1h1h3l5-7l5-11l4-2h3l1-2v-3v-1l-1-4l-6 1l-2-1v-2v-4l1-4l-3-2l-4 1l-5 5l-5 5l-1 3l-2 1l-10-4h-1v-2l-4-5l-1-1l-5-1l-4-3v-1l3-3l-1-2l-6-14v-2l-3-11l-1-11l-2-15v-9l-2 1l-2 1l-2 1l-3 2l-11-8l-4-2h-4h-3l-1 1l-5 3l-5 3l-9 2h-2l-7 1l-4 4l-1 2l-1 4l-3 11l-15-5l-4-1l-5 2l-5 3l-2 2l-2 3l-1 2l1 20l-8-2l-4-2l-3 1l-3 1l-3 2l5 26z"/><path id="25011" d="m136 55l-1 15l21-1l-1 6l-12 6l6 5l6-2l1 9l-7 33l27 5l2 22l27 7l5 7l16-2l-1 18l9-2l23-5h2l10-1l15-3l2 10l31-5l5 21v9l1 2l-1 12h1l10-15l1-11v-13l8-13l-2-14l13-13l-7-8l-2-16h4l-1-9l3-4l8-2v-9l-1-9l-12-4l-3-18h-1l-11-1l-24-1h-11h-2l-16-1l-47-2l-30-1h-5h-20l-14-1l-25-1z"/><path id="25013" d="m125 292l-3 8l5 14v7h12h3h6h32l5 1h9l-1 15l12-2l2-1v-1l1-1v-1l1-1v-1l-1-1l1-1l1 1l1-2v-2l-1-1v-1h17l15 1l9 1l1 2h4h3l2-2h6l7-1h5h15h16h9l14 1h13h6h12h19l1-49h-2h-17l-17-9v-7l11-16l-7 1l-3 5l-9-1l-12 5h-1l-8 5l2 6l-10 2l-3-18l-12 2l-21 3l-6 1l-8 1l-5 1l-9-8l7-13l-3-7h-1l-6 4l-6 18l-3 1l-7 4l1 12l-26-7l-3-14l-6-3l-12 2l-3 6l-1 3l-12-8l9-10l-1-26l-3-3l-16-1l-13 12l-1 23l-9 41l-10-2z"/><path id="25015" d="m124 189l-1 3l1 20l10 7l8-1l13-12l16 1l3 3l1 26l-9 10l12 8l1-3l3-6l12-2l6 3l3 14l26 7l-1-12l7-4l3-1l6-18l6-4h1l3 7l-7 13l9 8l5-1l8-1l6-1l21-3l12-2l3 18l10-2l-2-6l8-5h1l12-5l9 1l3-5l7-1l3-2l-1-3l-1-4h2v-5l2-3l-3-1l1-7l-9 2l-8 2l-4-19l-7 3h-1l-10 15h-1l1-12l-1-2v-9l-5-21l-31 5l-2-10l-15 3l-10 1h-2l-23 5l-9 2l1-18l-16 2l-5-7l-27-7l-2-22l-27-5l-1 5l3 1l-12 60z"/><path id="25017" d="m450 67v3l11 11v15l4-1h19v-3l31 13l-4 30l12 3l-1-3l5-8l4 3h4l4-2l11 3l2 7l1 1l-9 18l5 3l-2 7l-3 13l-12 6l7 4l-7 7l-2 4l-4 3l2 2l4 3l5 9l10-5l11-1h1l6-1v7l-3 8l-3 10l-4-1l-7 1l-1-1h-2l-6 2l-3 4l-3 10l-1 2l6 9l7 5l5-3h10l2 9l5 4l4-1l6-6l3-2h8v-3l5-2l7-1l4-2l-1-5h3l-1-3l3-4v-6h8l-2-8l-4-10l-1-3v-4l16-5h5l1 2l6 1v2v2l6 5v3l4 2l4-4l4-4l-4-4l2-3l4-3l-3-1l-1-4l-1-2l2-4l6-1v-1l4-3l4 2v1v1l4 4l2-1l5-2v-1l2-2h2l-3-2l-2-4l2-3l5 2l4-6l2-5l2-3l2-6l-2-2l-7-12v-4l2-6l3-1l-1-7l-10-3l1-9l4-7l6 1l2-1l-9-13l-5 1l-16 2l-3-3l-3-3l-2 7l-5-4l3-3l-24-16l4-2l1-2l-5-26l-3 4l-3 6l-5 5h-10h-6h-5l-4-1h-13h-5h-2h-3l-8-1h-13l-25-1h-1h-4l-27-1h-7h-9z"/><path id="25019" d="m903 593v2l1 2l1 2l3 3l6 2l18 10l15 5h1h5l4-1l8 1l11 1h4l7-3l3-2v-1l1-4v-5l-4-9l-12-24l-4-7l-5-2v2h1v1l2 3l1 1l1 2l1 3l-1 6v2l-4 6l-5 5l-5 4h-3l-3 1l-6 1l-20-1l-2 1l-1 1h-6l-3-2l-1-3l-2-1l-3-1z"/><path id="25021" d="m744 238l-2 7l7 15l11-8l1-1l1-10l-2-1l-7-3l-3-2zm-91-24l-2 3l4 4l3 4l3-3l4-6l2-2l2-2l1-3v-2l1-3l-2-1h-2l-2 1l-5 4l-3 3zm-92 78v5l1 1l-1 13v13v5h12h9h12v12h5l21-11l22-11l5-3l4-2l3-1l8-5l7-4l9-4l6-3l9-6h2l5-3l3-2l3-1l9-5l7-4l2-25l-1-1l-1 1v-2l-1-3l-1-2v-1l8-8l-3-8l-7 4l-4-3l-1 2v4l-3 1h-6l-2-2l-3-4v-1v-1l1-3l4-4l-1-2l-5 3l-5-2l-3 1l-1 1l1 7l-1 3h-3l-3 4l-3-1l-6 1l-4 2l-1 1l1 4l-6 8l-5-11h-2l-5-7l-4-2l-1-1l-4-2v-3l-6-5v-2v-2l-6-1l-1-2h-5l-16 5v4l1 3l4 10l2 8h-8v6l-3 4l1 3h-3l1 5l-4 2l-7 1l-5 2v3h-8l-3 2l-6 6l-4 1v9z"/><path id="25023" d="m678 300l3 14v3l4 24v1l2 7l14 13l1 2l1 3v2v1v1h1l4 17l-18 16l4 4l-1 11l29-5l5 10l5 2l6 22l2 7l4 14v6l3 1h7l2-2l-1-4l-3-2v-2l1-1l1-1l9 3l1 2l1 1h1l2-5v-2l-1-3v-3l2-7l3-1l4 4l3 1l1-4l-2-7l-2-4l1-1v-2l2-1l3 2l11 3l4 2h1l2-1l7-11l-2-3l-2-2l15-7l4-2l8-9l-1-2l-1-3l1-3l1-3l3-7l-2-12l-4-7v-1v-2l-1-5l-9-8l-4 1l-3 3h-2l-2-1l-2-3l-5-4l-1 1l-3-1l-3-3l-7-7l-3-4l-1-2v-1l5-2h2l2 3l3-1v-2l-1-3v-1l1-5l5-4h2v-1l-1-7v-2v-1l3-2l-1-3l-7-7l-4-7l-1-2l-6-12l-3-2l-1-6l-1-9l-2-1l-4-3l-1-1l-2-2l-3-6l-1-2l-3-1l-1 10l-1 1l-11 8l-7-15l2-7l6-3h-2h-6l-3-3l-2-4l-3-6l-1-3l-7 1h-2l-5 2l-4 4l-1 2l4 3l7-4l3 8l-8 8v1l1 2l1 3v2l1-1l1 1l-2 25l-7 4l-9 5l-3 1l-3 2l-5 3h-2l-9 6z"/><path id="25025" d="m647 229l1 1l4 2l5 7h2l5 11l6-8l-1-4l1-1l4-2l6-1l3 1l3-4h3l1-3l-1-7l1-1l3-1l5 2l5-3l-2-3h-4l-1-2l1-1l1-6l1-1l2-2l5-2h2l3 4l3 1v-2l-6-11v-1v-2h1v-1h-1l-2-1l-1-2v-2h-1l-1-2l1-4l1-2l7-7v-1h-3l-3 5l-8-1v-3l-5-1l2 2l-2 6l-2 3l-2 5l-4 6l-5-2l-2 3l2 4l3 2h-2l-2 2v1l-5 2l-2 1l-4-4v-1v-1l-4-2l-4 3v1l-6 1l-2 4l1 2l1 4l3 1l3-3l5-4l2-1h2l2 1l-1 3v2l-1 3l-2 2l-2 2l-4 6l-3 3l-3-4l-4 4z"/><path id="25027" d="m334 195l-1 11h1l7-3l4 19l8-2l9-2l-1 7l3 1l-2 3v5h-2l1 4l1 3l-3 2l-11 16v7l17 9h17h2l-1 49l10 1h11l21 1h7h20h2l23 1v6l10-1l23-1h10h11l6-1h2h5h9l7-1h1v-5v-13l1-13l-1-1v-5l6-6v-9l-5-4l-2-9h-10l-5 3l-7-5l-6-9l1-2l3-10l3-4l6-2h2l1 1l7-1l4 1l3-10l3-8v-7l-6 1h-1l-11 1l-10 5l-5-9l-4-3l-2-2l4-3l2-4l7-7l-7-4l12-6l3-13l2-7l-5-3l9-18l-1-1l-2-7l-11-3l-4 2h-4l-4-3l-5 8l1 3l-12-3l4-30l-31-13v3h-19l-4 1v-15l-11-11v-3l-9-1h-15l-27-1l-9-1h-4h-22l-22-1l3 18l12 4l1 9v9l-8 2l-3 4l1 9h-4l2 16l7 8l-13 13l2 14l-8 13z"/></svg>
