<?xml version="1.0" encoding="UTF-8"?>
<!DOCTYPE svg PUBLIC '-//W3C//DTD SVG 1.1//EN' 'http://www.w3.org/Graphics/SVG/1.1/DTD/svg11.dtd'>
<svg viewBox="0 0 1000 620.361" xmlns="http://www.w3.org/2000/svg">
  <g data-id="001">
    <path d="m785.876 513.261l0.96 2.909l2.784 0.109l1.886 -0.685l0.668 1.347l2.346 0.65l2.724 -1.863l2.927 -4.974l2.799 -2.201l6.292 -1.767l6.221 -0.864l8.135 -1.13l7.599 -0.172l1.313 -0.029l1.525 -0.035l8.124 -1.149l2.143 -0.821l2.602 -1.589l4.184 -4.972l3.044 -5.088l1.423 -2.379l2.247 -5.048l8.02 -0.753l2.222 0.36l5.986 -1.86l2.597 -1.691l1.427 -2.908l-0.041 -1.14l1.268 -1.625l2.435 -1.352l3.79 -0.617l2.275 0.658l2.329 1.521l2.766 1.159l3.082 -0.786l2.803 -2.125l2.598 0.027l1.899 0.821l1.506 2.685l-0.156 2.977l0.587 2.564l2.231 0.018l1.168 -2.495l-0.221 -1.18l2.889 -2.908l2.912 -1.193l12.398 -5.079l9.062 -1.936l4.957 0.006l6.458 -2.074l7.967 -2.559l9.418 -0.759l7.312 -1.085l4.228 -1.581l2.011 0.147l2.976 1.644l5.766 5.027l0.717 2.533l-1.208 6.047l-2.258 4.155l-1.859 6.108l-1.282 12.376l-3.299 4.554l-1.394 2.589l0.664 2.656l2.281 2.303l3.382 -2.114l0.766 -4.211l1.137 -9.739l4.736 -11.642l2.631 -3.142l1.845 -7.637l0.997 -1.718l2.272 -9.461l3.129 -7.855l-0.109 -18.543l-2.039 -25.535l-2.615 -13.42l-6.504 -24.941l-4.885 -14.23l-7.211 -15.075l-6.035 -10.531l-6.992 -8.509l-6.73 -5.377l-9.314 -4.884l-12.346 -4.136l-8.14 -1.396l-4.915 0.164l-5.231 1.242l-3.481 2.154l-2.039 3.441l0.515 1.19l1.303 0.034l1.57 1.04l4.066 4.464l2.985 5.686l3.163 3.122l1.637 0.903l1.153 0.047l-1.779 -2.885l-0.634 -2.477l0.248 -1.996l2.134 -4.13l2.332 -2.246l2.427 -1.248l4.013 -1.006l1.989 0.173l7.054 3.868l4.185 3.035l3.482 4.05l1.681 2.984l1.621 4.833l1.775 9.977l0.954 17.599l-0.896 13.749l2.291 6.418l1.513 -2.825l0.634 -6.552l1.989 -4.144l-0.073 -2.409l2.645 -1.007l4.039 0.336l1.392 6.553l0.34 4.834l3.403 2.688l2.579 0.503l0.764 1.267l-2.465 3.869l1.265 14.177l0.18 11.36l-1.291 2.898l-4.545 5.029l-2.377 1.169l-8.68 4.27l-8.868 2.358l-7.24 2.887l-5.462 -0.461l-11.325 3.44l-2.005 -0.411l-7.492 3.37l-5.245 3.462l-6.803 7.403l-1.243 -0.06l-2.412 -2.706l-0.814 -1.795l-4.401 -3.058l-23.572 -1.672l-2.243 -0.455l-8.13 -1.648l-16.502 -6.428l-6.284 -4.614l-6.526 -6.395l-4.259 -5.187l-1.294 -2.272l-7.842 9.064l-4.423 1.89l-14.346 7.012l1.867 2.885l1.42 2.871l-6.182 10.9l4.577 2.026l0.804 2.094l-0.499 3.258l-5.733 1.832l-4.333 4.503l3.405 0.304l2.872 8.451l0.383 1.41l-0.297 1.924l-3.275 1.953l-0.613 2.382l2.057 1.6l1.466 3.338l-3.347 5.393l-0.129 1.858l2.908 8.271l0.305 2.144l-0.503 1.845l-1.685 0.939l-1.43 1.759l-0.41 2.86l0.297 2.826l-1.217 2.441l-10.096 6.622z" />
  </g>
  <g data-id="003">
    <path d="m0 303.17l3.146 13.765l2.672 0.014l15.225 -0.357l38.658 1.355l17.169 0.744l29.521 1.145l20.668 0.791l-0.381 -6.673l-5.15 -13.779l3.147 -8.642l-2.596 -11.692l10.111 1.704l8.466 -40.121l1.239 -23.631l-8.164 1.552l-9.355 -7.7l-1.57 -19.569l0.764 -3.173l15.109 3.565l12.04 -60.706l-2.92 -0.608l1.013 -5.468l6.807 -32.244l-1.066 -9.413l-5.848 1.88l-5.536 -4.738l11.524 -6.446l1.563 -5.251l-20.937 0.533l0.194 -14.618l-33.375 -0.902l-34.209 -0.925l-24.462 89.576l-8.654 31.944l-25.814 95.038l-9.001 33.051z" />
  </g>
  <g data-id="005">
    <path d="m747.538 483.071l-1.79 3.752l2.337 4.136l2.284 0.95l0.277 -1.805l-0.787 -4.07l-2.321 -2.964z" />
    <path d="m593.998 375.519l1.425 -0.093l1.564 -0.225l1.564 -0.263l2.99 -0.451l4.199 -0.669l0.102 1.757l-0.419 4.502l0.829 3.161l1.07 4.079l-2.291 6.563l1.956 3.487l-1.229 1.312l-1.48 1.5l-0.642 1.837l2.235 5.285l-0.028 1.724l-0.419 1.574l0.419 1.461l1.509 0.674l1.285 2.885l-0.028 1.573l3.204 2.413l9.364 5.298l6.428 3.636l9.82 15.008l6.989 11.351l1.558 2.533l1.247 0.327l2.762 0.641l1.48 0.411l-0.028 1.084l3.894 1.094l2.279 0.552l2.268 0.489l2.984 0.857l0.199 7.193l-0.335 4.758l-1.338 1.734l-0.291 2.921l0.167 3.24l0.955 1.809l1.641 3.228l2.574 26.789l0.511 9.217l9.751 -4.418l7.611 1.24l4.839 4.215l1.559 -1.634l3.35 -2.715l1.164 -0.944l4.491 -1.14l6.025 0.687l-0.46 -3.934l1.153 -3.661l4.992 0.272l2.25 5.48l1.5 -5.519l1.716 -3.851l2.86 -0.018l-1.756 -9.358l-2.645 -3.144l-0.418 -2.009l2.014 -0.745l1.008 1.351l1.855 -2.533l1.102 -3.684l-0.728 -2.382l0.07 -3.025l0.72 -1.014l1.983 0.166l0.976 1.243l1.611 4.474l2.635 1.121l-0.877 -6.671l-2.425 -3.327l2.077 -1.58l3.128 -0.23l1.496 -3.286l4.621 1.902l1.202 1.925l-0.152 2.989l0.533 5.301l2.261 4.079l1.524 2.749l0.091 -1.914l0.821 -2.319l1.943 -1.134l-3.334 -10.304l0.739 -1.037l2.333 -0.771l-0.301 -5.862l-3.623 -13.649l-1.897 -7.106l-5.988 -22.484l-5.795 -1.24l-4.078 -10.376l-29.193 4.629l0.875 -10.224l-3.747 -3.879l17.557 -16.63l-3.782 -16.857l-1.647 -0.239l0.559 -1.009l-0.232 -2.429l-1.246 -3.069l-0.932 -2.213l-13.886 -12.553l-1.313 -7.373l-4.305 -25.187l-0.448 -2.541l-2.594 -14.707l-9.045 4.771l-7.195 3.782l-8.397 4.384l-2.731 1.429l-3.959 2.083l-5.294 2.783l-21.421 11.269l-21.252 10.964l-4.783 0.078l-0.01 6.908l-0.028 16.45l-0.028 3.034l0 7.906z" />
  </g>
  <g data-id="007">
    <path d="m749.086 612.325l-1.629 0.458l3.086 2.73l2.531 0.597l2.231 -0.019l0.747 -3.326l-1.374 -1.362l-1.532 -1.027l-1.48 1.189l-2.581 0.76z" />
    <path d="m747.047 577.447l-1.39 2.299l5.409 7.44l4.842 4.837l7.38 4.918l1.949 -1.011l0.704 -1.956l-0.516 -1.115l1.069 -2.509l4.65 -4.183l3.991 -2.334l6.544 -2.045l30.914 -2.809l17.001 0.117l11.769 0.932l12.592 -0.636l0.788 -2.043l-0.281 -9.964l0.848 -5.979l-1.173 -9.022l-3.744 0.58l-1.943 2.336l-0.628 1.534l0.12 3.586l-3.324 4.78l-1.747 0.989l-2.291 -0.262l-0.954 -2.855l-1.288 -3.067l-2.961 -1.313l-3.072 -0.496l-2.715 -1.542l-2.588 -2.455l-1.544 -3.025l-0.696 -2.582l0.739 -4.662l-0.093 -3.563l-2.794 -6.028l-1.139 -0.776l-2.093 1.099l-5.986 -1.359l-0.604 -3.447l-1.428 -0.46l-12.787 7.947l-10.489 7.355l-4.05 3.878l-2.826 5.761l-0.262 2.462l-3.334 3.69l-1.357 0.452l-11.083 16.559l-1.696 1.515l-2.323 0.501l-4.748 -2.222l-3.358 -0.724l-6.004 0.878z" />
    <path d="m714.627 554.388l-0.331 1.321l3.844 0.059l2.538 -1.551l7.105 -1.967l10.005 -0.491l2.631 -1.263l6.051 -6.002l5.137 -1.373l7.6 -0.29l8.215 -5.444l1.224 -1.875l-0.193 -1.469l6.387 -6.121l8.136 -3.857l8.325 -5.948l1.637 -0.267l-1.432 -2.255l-1.886 0.685l-1.943 0.284l-1.801 -3.302l-14.038 9.205l-2.473 3.248l-5.968 5.515l-3.492 1.065l-4.027 5.124l-7.363 1.646l-7.464 2.816l-6.993 4.07l-5.785 1.31l-6.337 1.392l-1.248 -0.205l-6.061 5.939z" />
  </g>
  <g data-id="009">
    <path d="m632.885 85.337l-3.826 1.976l23.487 15.338l-2.77 3.158l4.762 3.928l2.349 -6.412l2.967 2.521l2.929 3.499l16.562 -1.905l4.861 -1.875l8.507 13.278l-1.997 1.45l-6.073 -1.404l-3.849 6.854l-1.165 9.423l10.125 2.446l0.856 7.348l-2.217 1.513l-2.474 5.736l-0.206 3.838l7.69 11.82l4.516 1.386l-0.325 2.409l7.973 1.282l3.827 -4.958l2.22 0.231l2.459 -3.345l2.3 0.201l0.089 5.998l1.928 6.869l8.576 0.719l1.034 -1.551l-1.788 -1.854l-1.341 -0.946l-3.91 -2.653l-0.097 -6.543l-0.05 -3.37l1.598 -2.198l1.201 -0.492l2.682 0.417l3.855 2.272l1.955 -1.515l0.223 -2.007l1.9 -3.257l6.118 -4.356l2.905 -0.455l1.62 1.477l1.564 -1.099l1.369 -4.963l-3.073 -6.025l-4.2 -0.757l-2.558 -0.427l-1.453 -6.592l-0.246 -1.116l0.272 -1.309l6.394 -1.437l7.04 -0.493l2.207 -1.024l3.157 -2.806l2.913 -0.749l10.162 -2.612l5.654 -2.431l2.055 2.031l3.806 -0.977l4.886 -1.254l3.931 -4.35l0.859 -1.637l1.587 -0.567l1.482 0.919l0.65 2.614l0.026 1.377l3.714 -0.19l5.333 -6.833l4.809 -10.779l3.578 -2.376l3.239 -0.05l0.711 -1.819l-0.076 -3.299l-1.039 -4.478l-5.407 1.006l-2.227 -1.224l-0.286 -1.75l0.266 -3.993l0.791 -4.566l-2.806 -1.784l-4.197 1.245l-5.153 4.492l-5.041 5.798l-0.279 2.969l-1.902 0.458l-10.293 -3.747l-0.997 -2.439l-4.08 -4.746l-1.208 -0.679l-4.377 -0.673l-3.981 -3.03l0.033 -1.862l2.262 -2.396l-0.507 -2.372l-5.754 -13.71l-0.603 -2.304l-2.848 -10.892l-1.462 -10.961l-2.033 -15.244l0.122 -8.261l-1.249 0.156l-2.521 1.129l-1.838 1.495l-3.142 1.546l-10.478 -8.26l-4.646 -1.494l-3.284 -0.013l-3.661 0.472l-1.137 0.433l-4.888 3.088l-4.833 2.706l-9.211 1.923l-1.443 0.301l-7.42 1.549l-3.687 3.925l-0.866 1.791l-1.694 4.166l-2.971 10.231l-14.401 -4.34l-4.679 -1.41l-4.805 2.247l-4.441 2.589l-2.459 2.703l-2.2 2.793l-1.069 1.356l1.201 20.204l-7.356 -2.161l-4.404 -1.3l-2.654 0.456l-3.38 1.103l-2.708 2.263l4.776 25.524l-1.225 2.714z" />
  </g>
  <g data-id="011">
    <path d="m135.515 55.388l-0.194 14.618l20.937 -0.533l-1.563 5.251l-11.524 6.446l5.536 4.738l5.848 -1.88l1.066 9.413l-6.807 32.244l27.532 5.627l1.596 21.66l27.321 6.537l4.35 7.913l15.889 -2.664l-0.982 17.927l9.848 -1.574l23.074 -5.004l1.506 0.134l10.32 -1.729l15.17 -2.523l1.731 9.965l30.357 -5.047l5.184 20.631l0.299 9.675l1.172 2.015l-1.324 12.069l1.556 -0.29l10.09 -14.931l0.889 -10.791l-0.699 -13.013l8.426 -13.077l-2.201 -14.513l12.967 -12.849l-6.772 -7.575l-2.046 -16.666l4.218 0.551l-1.601 -9.444l3.441 -4.099l7.54 -1.614l0.788 -8.759l-1.27 -9.012l-11.845 -4.465l-3.114 -17.917l-12.081 -0.491l-23.954 -0.987l-10.94 -0.451l-2.046 -0.084l-16.255 -0.614l-47.337 -1.788l-29.303 -1.107l-5.038 -0.19l-20.582 -0.597l-13.26 -0.384l-25.879 -0.75z" />
  </g>
  <g data-id="013">
    <path d="m124.675 291.533l-3.147 8.642l5.15 13.779l0.381 6.673l12.438 0.376l2.574 0.078l5.746 0.054l32.193 0.301l4.634 0.307l9.386 0.15l-0.894 14.626l11.727 -1.704l2.24 -0.326l0.168 -1.767l0.811 -1.918l0.978 -1.579l-0.718 -1.046l1.161 -0.41l1.149 -1.704l0.642 -1.805l-1.62 -1.166l0.475 -1.091l16.735 -0.223l14.747 1.652l9.817 0.601l0.289 2.132l4.671 0.163l2.207 0l2.542 -2.048l5.691 -0.706l6.907 -0.857l5.287 0.029l14.672 0.082l16.55 0.334l8.504 0.172l13.923 0.281l12.987 0.073l5.903 0.033l12.414 0.203l19.377 0.316l0.197 -49.519l-1.92 0.295l-16.408 -0.108l-17.682 -8.497l0.316 -7.052l11.613 -16.114l-7.206 1.192l-2.961 4.61l-9.484 -0.885l-11.818 4.339l-8.602 5.076l1.832 6.578l-10.439 1.538l-2.366 -17.389l-12.06 1.733l-21.557 3.214l-6.164 0.847l-7.22 1.013l-5.91 0.842l-8.463 -7.576l6.906 -13.749l-3.077 -6.469l-6.882 4.259l-6.132 17.436l-3.138 0.861l-6.337 4.667l1.004 11.196l-26.308 -6.168l-3.457 -13.995l-5.589 -3.075l-12.35 1.707l-3.027 6.347l-1.036 2.723l-11.208 -8.561l8.855 -9.906l-1.28 -25.392l-2.92 -3.056l-16.254 -1.193l-12.947 11.782l-0.468 23.281l-9.237 40.471l-10.111 -1.704l2.596 11.692z" />
  </g>
  <g data-id="015">
    <path d="m123.571 188.903l-0.764 3.173l1.57 19.569l9.355 7.7l8.164 -1.552l12.947 -11.782l16.254 1.193l2.92 3.056l1.28 25.392l-8.855 9.906l11.208 8.561l1.036 -2.723l3.027 -6.347l12.35 -1.707l5.589 3.075l3.457 13.995l26.308 6.168l-1.004 -11.196l6.337 -4.667l3.138 -0.861l6.132 -17.436l5.991 -4.652l3.968 6.862l-6.906 13.749l8.463 7.576l5.91 -0.842l7.22 -1.013l6.164 -0.847l21.557 -3.214l12.06 -1.733l2.366 17.389l10.439 -1.538l-1.832 -6.578l8.017 -4.865l12.403 -4.55l9.484 0.885l2.961 -4.61l7.206 -1.192l2.832 -2.268l-1.518 -3.165l-0.364 -3.975l1.408 0.142l0.206 -4.85l2.448 -3.221l-3.761 -1.085l1.662 -6.543l-9.427 2.02l-8.407 1.537l-3.937 -18.915l-6.163 3.366l-11.055 14.715l-1.556 0.29l1.324 -12.069l-1.172 -2.015l-0.299 -9.675l-5.184 -20.631l-30.357 5.047l-1.731 -9.965l-15.17 2.523l-10.32 1.729l-1.506 -0.134l-23.074 5.004l-9.848 1.574l0.982 -17.927l-15.889 2.664l-4.35 -7.913l-27.321 -6.537l-1.596 -21.66l-27.532 -5.627l-1.013 5.468l2.92 0.608l-12.04 60.706l-15.109 -3.565z" />
  </g>
  <g data-id="017">
    <path d="m449.56 66.687l0.466 2.925l10.991 10.924l-0.203 15.636l3.81 -1.583l18.956 0.49l0.343 -2.861l31.05 12.389l-4.014 30.788l12.04 2.428l-0.932 -2.628l5.385 -8.168l3.373 2.7l4.096 0.586l3.604 -2.515l11.595 2.82l1.777 7.389l0.72 1.401l-8.527 17.235l4.741 2.991l-1.539 7.248l-2.848 13.384l-12.612 5.387l6.732 4.049l-6.401 7.461l-1.939 3.729l-4.105 2.623l1.8 2.977l3.954 2.176l5.29 9.768l9.509 -5.825l11.142 -0.911l1.633 0.218l5.194 -0.741l0.237 7.163l-3.1 8.082l-2.635 9.647l-4.386 -0.822l-6.268 0.747l-1.536 -0.584l-2.351 -0.678l-5.429 2.029l-3.321 4.219l-2.643 9.548l-0.811 2.964l5.394 8.501l7.59 4.922l4.536 -2.726l10.3 -0.634l1.466 9.338l5.38 3.716l3.956 -0.549l5.556 -6.275l3.881 -1.695l7.788 0.223l-0.596 -3.634l5.492 -1.35l6.363 -1.413l4.977 -1.863l-1.737 -4.834l3.339 -0.645l-1.3 -2.078l3.712 -4.688l-0.753 -6.002l8.261 0.302l-1.547 -8.468l-4.247 -10.084l-0.764 -2.639l-0.26 -3.529l16.025 -5.418l4.791 0.52l1.011 1.161l5.848 1.81l0.199 1.302l0.151 2.61l5.342 4.281l0.738 2.866l3.934 2.458l3.497 -4.356l3.892 -3.488l-3.976 -3.961l2.713 -2.901l3.404 -3.172l-2.941 -1.153l-0.681 -4.086l-1.354 -2.3l2.018 -3.68l5.714 -0.635l0.979 -1.258l3.539 -3.331l3.507 1.995l0.425 1.652l0.061 1.131l3.819 3.304l2.516 -0.457l4.662 -2.027l1.868 -3.351l1.839 -0.398l-2.411 -1.596l-2.307 -3.462l2.081 -3.562l5.084 1.777l4.025 -5.542l2.153 -4.713l1.384 -3.782l2.193 -5.317l-1.525 -2.445l-7.69 -11.82l0.206 -3.838l2.474 -5.736l2.217 -1.513l-0.856 -7.348l-10.125 -2.446l1.165 -9.423l3.849 -6.854l6.073 1.404l1.997 -1.45l-8.507 -13.278l-4.861 1.875l-16.562 1.905l-2.929 -3.499l-2.967 -2.521l-2.349 6.412l-4.762 -3.928l2.77 -3.158l-23.487 -15.338l3.826 -1.976l1.225 -2.714l-4.776 -25.524l-3.549 4.088l-3.079 5.563l-4.267 5.424l-10.056 -0.076l-6.053 -0.366l-4.986 -0.161l-4.81 -0.155l-12.685 -0.409l-4.699 -0.152l-2.378 -0.077l-2.756 -0.089l-7.857 -0.253l-13.131 -0.423l-24.563 -0.792l-1.562 -0.049l-4.374 -0.13l-26.242 -0.782l-7.469 -0.275l-9.172 -0.337l-26.085 -0.96z" />
  </g>
  <g data-id="019">
    <path d="m902.995 593.415l0.223 1.295l0.349 2.028l1.872 2.631l2.964 2.353l5.304 2.007l18.574 9.976l14.529 5.027l6.062 0.558l3.835 -1.319l8.501 0.637l10.498 1.754l3.81 -0.516l7.427 -2.987l2.591 -1.885l1.549 -4.489l-0.027 -5.272l-4.327 -8.9l-11.922 -24.539l-4.209 -6.398l-4.341 -2.192l-0.142 1.416l1.111 1.602l1.991 2.68l0.921 1.578l1.184 1.752l0.592 2.804l-0.574 6.23l-0.132 1.43l-4.122 6.577l-4.603 4.807l-5.449 3.582l-2.813 0.503l-3.164 0.507l-5.863 0.939l-20.069 -0.283l-2.472 1.18l-6.812 0.471l-2.927 -1.913l-1.234 -2.932l-1.352 -0.9l-3.172 -1.662l-4.16 -0.138z" />
  </g>
  <g data-id="021">
    <path d="m744.023 237.523l-2.445 7.857l7.365 14.643l10.568 -8.329l1.146 -0.908l1.218 -10.005l-2.235 -0.803l-6.43 -3.402l-3.609 -1.132l-5.577 2.079z" />
    <path d="m653.351 214.273l-2.713 2.901l3.976 3.961l3.507 3.481l3.356 -2.845l3.62 -6.218l2.134 -1.563l1.394 -2.126l1.044 -2.726l0.059 -1.821l1.034 -3.093l-1.925 -0.829l-2.103 -0.338l-2.086 0.8l-4.87 4.13l-3.023 3.114l-3.404 3.172z" />
    <path d="m560.561 291.868l0.479 4.814l1.212 1.385l-0.82 13.148l0.008 12.522l0 5.403l11.217 -0.204l9.427 -0.171l11.999 -0.218l-0.018 12.673l4.783 -0.078l21.252 -10.964l21.421 -11.269l5.294 -2.783l3.959 -2.083l2.731 -1.429l8.397 -4.384l7.195 -3.782l9.045 -4.771l5.371 -2.882l9.979 -5.309l1.027 -0.547l5.539 -2.923l2.49 -1.638l3.308 -1.754l9.025 -4.764l6.728 -3.551l2.83 -25.462l-1.13 -0.447l-1.006 -1.132l-0.95 -2.83l-1.536 -2.83l0.073 -1.065l8.084 -7.691l-3.352 -8.042l-6.592 4.267l-4.517 -2.744l-0.997 1.773l0.339 3.502l-3.11 0.991l-6.073 0.271l-1.957 -1.424l-2.459 -4.341l-0.351 -2.035l0.725 -2.706l4.719 -4.15l-1.428 -2.582l-5.116 2.987l-5.112 -1.363l-2.43 0.831l-1.257 1.098l1.034 7.097l-1.365 2.943l-2.934 -0.151l-2.488 3.905l-3.094 -1.192l-5.719 1.201l-4.098 2.272l-1.286 0.916l1.023 4.038l-5.985 7.57l-5.479 -11.144l-1.556 0.368l-5.311 -7.368l-3.686 -1.664l-4.769 -3.457l-0.738 -2.866l-5.342 -4.281l-0.151 -2.61l-0.199 -1.302l-5.848 -1.81l-1.011 -1.161l-4.791 -0.52l-16.025 5.418l0.26 3.529l0.764 2.639l4.247 10.084l1.547 8.468l-8.261 -0.302l0.753 6.002l-3.712 4.688l1.3 2.078l-3.339 0.645l1.737 4.834l-4.977 1.863l-6.363 1.413l-5.492 1.35l0.596 3.634l-7.788 -0.223l-3.881 1.695l-5.556 6.275l-3.956 0.549l-0.113 9.571l-6.391 5.688z" />
  </g>
  <g data-id="023">
    <path d="m678.14 299.676l2.594 14.707l0.448 2.541l4.156 24.307l1.462 8.253l13.886 12.553l0.932 2.213l1.246 3.069l0.278 2.081l-0.605 1.357l1.647 0.239l3.782 16.857l-17.557 16.63l3.747 3.879l-0.875 10.224l29.193 -4.629l4.078 10.376l5.795 1.24l5.988 22.484l1.897 7.106l3.623 13.649l0.577 6.047l2.201 1.478l6.988 -0.127l2.574 -1.734l-1.006 -4.352l-3.265 -1.808l0.174 -2.542l0.682 -1.074l1.164 -0.287l9.053 2.124l0.853 2.139l1.211 1.453l1.077 -0.161l2.19 -4.744l-0.161 -2.602l-1.163 -2.434l0.241 -3.331l1.718 -6.615l3.059 -0.988l4.19 3.302l2.743 1.174l0.593 -3.358l-1.076 -7.104l-2.132 -3.916l0.727 -3.48l2.121 -1.126l2.946 1.79l10.542 3.386l3.871 2.437l1.537 -0.118l1.802 -1.222l6.664 -10.686l-1.42 -2.871l-1.867 -2.885l14.346 -7.012l4.423 -1.89l7.842 -9.064l-1.045 -1.835l-0.597 -3.258l0.308 -2.556l1.837 -3.044l2.771 -7.256l-1.82 -11.569l-3.873 -6.601l-0.408 -1.793l0.286 -1.808l-1.831 -4.839l-8.556 -7.648l-4.052 0.839l-2.818 2.656l-2.325 0.187l-1.962 -1.153l-2.162 -2.705l-4.781 -4.206l-0.924 1.116l-3.018 -0.71l-3.132 -3.059l-7.065 -6.902l-3.088 -4.676l-0.276 -1.375l-0.331 -1.648l4.58 -2.165l2.517 0.219l2.235 2.727l2.197 -0.856l0.956 -1.705l-1.16 -3.41l0.117 -1.071l0.527 -4.843l5.164 -3.434l1.826 0.132l0.315 -1.853l-1.392 -6.629l0.136 -1.717l0.099 -1.253l2.477 -1.975l-0.472 -2.655l-6.638 -7.418l-4.339 -6.754l-1.634 -2.544l-5.852 -11.345l-2.245 -2.128l-1.231 -6.057l-0.995 -8.712l-2.316 -1.124l-4.109 -3.619l-2.575 -3.07l-2.869 -5.806l-1.734 -1.938l-2.726 -0.979l-1.218 10.005l-1.146 0.908l-10.568 8.329l-7.365 -14.643l2.445 -7.857l5.577 -2.079l-1.792 -0.562l-5.592 -0.319l-2.993 -2.905l-2.532 -3.663l-2.896 -5.663l-0.425 -3.096l-6.925 0.367l-2.775 0.832l-4.967 1.354l-3.734 3.952l-1.459 2.595l4.517 2.744l6.592 -4.267l3.352 8.042l-8.084 7.691l-0.073 1.065l1.536 2.83l0.95 2.83l0.084 1.509l2.052 0.07l-2.83 25.462l-6.728 3.551l-9.025 4.764l-3.308 1.754l-2.49 1.638l-5.539 2.923l-1.027 0.547l-9.979 5.309l-5.371 2.882z" />
  </g>
  <g data-id="025">
    <path d="m647.225 228.979l4.521 2.663l5.311 7.368l1.556 -0.368l5.479 11.144l5.985 -7.57l-1.023 -4.038l1.286 -0.916l4.04 -2.273l5.777 -1.2l3.094 1.192l2.488 -3.905l2.934 0.151l1.365 -2.943l-1.034 -7.097l1.257 -1.098l2.43 -0.831l5.112 1.363l5.116 -2.987l-1.693 -3.062l-4.529 0.773l-0.455 -2.592l0.314 -1.015l1.643 -5.307l0.502 -1.621l2.409 -2.173l4.461 -1.184l2.063 0.029l3.162 3.395l2.949 1.091l-0.075 -2.164l-5.288 -10.441l-0.135 -1.68l0.054 -1.242l0.648 -1.132l-2.832 -1.315l-0.863 -1.79l-0.459 -2.192l-1.153 -0.211l-0.391 -1.702l0.81 -3.631l1.313 -2.762l6.19 -6.538l-2.168 -1.183l-3.827 4.958l-7.973 -1.282l0.325 -2.409l-4.516 -1.386l1.525 2.445l-2.193 5.317l-1.384 3.782l-2.153 4.713l-4.025 5.542l-5.084 -1.777l-2.081 3.562l2.307 3.462l2.411 1.596l-1.839 0.398l-1.4 2.395l-5.13 2.983l-2.516 0.457l-3.819 -3.304l-0.061 -1.131l-0.425 -1.652l-3.507 -1.995l-3.539 3.331l-0.979 1.258l-5.714 0.635l-2.018 3.68l1.354 2.3l0.681 4.086l2.941 1.153l3.023 -3.114l4.87 -4.13l2.086 -0.8l2.103 0.338l1.925 0.829l-1.034 3.093l-0.059 1.821l-1.044 2.726l-1.394 2.126l-2.134 1.563l-3.62 6.218l-3.356 2.845l-3.507 -3.481l-3.892 3.488l-3.497 4.356z" />
  </g>
  <g data-id="027">
    <path d="m334.389 195.285l-0.889 10.791l7.128 -3.15l3.937 18.915l8.407 -1.537l9.427 -2.02l-1.662 6.543l3.761 1.085l-2.448 3.221l-0.206 4.85l-1.408 -0.142l0.364 3.975l1.518 3.165l-2.832 2.268l-11.613 16.114l-0.316 7.052l17.682 8.497l16.408 0.108l1.92 -0.295l-0.197 49.519l9.371 0.506l10.803 0.584l21.277 0.176l6.79 0.238l20.179 0.707l1.909 0.023l23.268 0.278l0.393 5.829l9.283 -0.632l23.781 -0.737l9.928 -0.308l10.782 -0.334l5.55 -0.172l2.781 -0.086l4.88 -0.092l8.47 -0.235l7.559 -0.769l1.06 -0.079l0 -5.403l-0.008 -12.522l0.82 -13.148l-1.212 -1.385l-0.479 -4.814l6.391 -5.688l0.113 -9.571l-5.38 -3.716l-1.466 -9.338l-10.3 0.634l-4.536 2.726l-7.59 -4.922l-5.394 -8.501l0.811 -2.964l2.643 -9.548l3.321 -4.219l5.429 -2.029l2.351 0.678l1.536 0.584l6.268 -0.747l4.386 0.822l2.635 -9.647l3.1 -8.082l-0.237 -7.163l-5.194 0.741l-1.633 -0.218l-11.142 0.911l-9.509 5.825l-5.29 -9.768l-3.954 -2.176l-1.8 -2.977l4.105 -2.623l1.939 -3.729l6.401 -7.461l-6.732 -4.049l12.612 -5.387l2.848 -13.384l1.539 -7.248l-4.741 -2.991l8.527 -17.235l-0.72 -1.401l-1.777 -7.389l-11.595 -2.82l-3.604 2.515l-4.096 -0.586l-3.373 -2.7l-5.385 8.168l0.932 2.628l-12.04 -2.428l4.014 -30.788l-31.05 -12.389l-0.343 2.861l-18.956 -0.49l-3.81 1.583l0.203 -15.636l-10.991 -10.924l-0.466 -2.925l-8.392 -0.309l-14.69 -0.403l-27.159 -1.121l-9.06 -0.374l-3.762 -0.155l-22.08 -0.744l-22.197 -0.748l3.114 17.917l11.845 4.465l1.27 9.012l-0.788 8.759l-7.54 1.614l-3.441 4.099l1.601 9.444l-4.218 -0.551l2.046 16.666l6.772 7.575l-12.967 12.849l2.201 14.513l-8.426 13.077l0.699 13.013z" />
  </g>
</svg>
