<?xml version="1.0" encoding="UTF-8"?>
<!DOCTYPE svg PUBLIC '-//W3C//DTD SVG 1.1//EN' 'http://www.w3.org/Graphics/SVG/1.1/DTD/svg11.dtd'>
<svg viewBox="0 0 10000 5795.44" xmlns="http://www.w3.org/2000/svg">
  <g data-id="001">
    <path d="m5229.2 5295.1l0 0l10.2 210.6l9.8 289.4l370.4 -0l6 0l39.3 -0l0.1 -0l270.8 -0.3l1.2 -0.2l19 0.4l82.2 0.4l-1.4 -242l2.7 -6.3l2.2 -0.4l5.8 -3.2l4 -1.5l1.5 -1.4l20.7 -29.8l36.7 -17.9l3.6 -2.8l-49.2 -81.8l28.7 -50.6l1.3 -42.5l-90 -176.3l-85.5 -33.4l-41.4 -56.1l-76.8 -35.9l-42.3 40.9l-27.5 33.5l-12.9 16.2l-119.3 19.6l-169 39.1l-85.5 19.8l-30.5 29.5l-85.3 83.3z" />
  </g>
  <g data-id="003">
    <path d="m414.8 3963.4l0 0l-142.1 133.5l216.4 230.2l82.1 89.5l7.8 7.6l113.4 44.8l72.4 28.1l69 26.5l205.1 79.8l-96.5 45.6l18.7 36.2l108.2 48.6l44.4 -6.6l152.3 -68l-41.6 -12.3l30.9 -63.1l-11.5 -45.8l33.6 -14l-21.8 -22l23.1 -139.4l18 -70.8l71.6 -40.5l-9.7 -8.2l39.5 -32.6l4.5 -140.4l0.7 -81.1l-35.5 -37.4l-24.3 -16.4l-49.4 -1.2l-0.9 -2.4l-14.4 -42.6l3.6 -31.7l14.6 -20.7l25 -13.6l47.9 -20.3l15.1 -27.4l40.1 -51.2l-6 -61.1l-0.6 -0l-68.3 1.1l-92 -5.2l-236.4 -3.3l-69.3 1.1l-50.7 -2.5l-127.2 -1.2l-5.3 -1.7l-132.1 1.5l-0.4 1l6.6 136.5l-23.6 9.7l-36.4 -0.4l-11.2 29.4l-37.1 18.6l-0.9 3l-3.7 2.7l-2 6.9l-4.2 3.7l-7.9 -2.7l0.3 5.2l-3.2 -0.3l-3.3 4.6l-3 1.7l-0.4 4.3l-7.2 4.9l-84.8 82z" />
  </g>
  <g data-id="005">
    <path d="m1418.4 3663l0 0l0.6 0l41.6 -23.3l51.8 32.7l34.2 47.1l2.4 -0.1l6.3 2.7l3.6 3.6l2.6 5l1 5.6l-0.6 7.8l-1.5 6.5l0.3 6.1l1.7 5.3l1.4 1l28.3 -8.5l7.3 4.9l-3.8 23.1l8.9 22.2l10.2 12.7l47.8 -5.6l-26.3 23.7l8.3 66.1l59.8 49.1l24.6 -0.7l25.4 39.1l56.3 -19.7l24.2 8.9l157.3 -213.1l35.8 -50.1l209.8 -292.6l-0.1 -306.8l8.8 -312.9l-8.6 -3.2l-4.1 2.3l-19.2 7.3l-7.1 4.5l-6.4 5.8l-1.5 2.7l-2.7 4.6l-0.8 1.7l-0.8 1.7l-3.6 4.1l-4.6 0.6l-5.3 2.3l-3.7 3.1l-2.8 1.2l-5.5 1.9l-4.3 2l-4.1 1.7l-2.5 2.5l-0.8 1.6l-1.2 2l-1.4 2.3l-2.6 5.9l-3.9 6.2l-4.6 4l-3 1.4l-5.8 3.1l-1.5 3.4l-4.3 4.4l-3.7 5l-4 3.6l-5.4 0.9l-6.2 -1.3l-6.1 -1.8l-3.7 -2.3l-7.2 -0.1l-4.2 -3.7l-2.8 0.8l-1.5 2.8l-7.6 6.5l-6 5.1l-4.1 4.9l-0.8 1.7l-2.2 2.3l-4 1.8l-4.6 1.3l-7.6 1.6l-8.3 1.3l-3.2 1.9l-4.7 -0.7l-1.2 -3.4l-1.1 -2.4l-3.8 -0.7l-2.8 1l-2.6 2.6l-3.8 5l-9.2 1.1l-11.5 -3.6l-3.7 -4.2l-1.8 -3.1l-4.1 -1.4l-3.2 1.7l-3.6 4.2l-4.3 15.6l-3.5 32.6l-1.7 14.5l-5 10.3l-13.6 -5.2l1.4 -17.6l6.9 -7.4l0.5 -7.7l-3.9 0.3l-5 1l-6.9 -8.2l7.1 -4.8l5.3 0.6l2.4 -7.8l-10.4 -2.9l-14.1 3l-7.7 1.7l-1.3 5.7l-5.4 5.2l-5.5 0.5l-3.3 -9.5l2.1 -7.6l-5.1 -6.6l-4.8 1.4l-7.7 -5.4l2.6 -6.9l-5.9 -4.2l-8.2 5.8l-1.7 15l-3.6 14.3l-16.3 8.6l-13 -3.2l-13.1 11.2l-11.8 0.3l-8.4 0.2l1.3 -9.2l6.1 -3.1l-5.3 -6.3l-6.2 1.2l-15.6 -9.4l-16.2 0.1l-6.8 -2.1l-7.3 4.3l-4.4 9.5l-1.5 14.5l-11.2 12.9l-11.6 -9.4l-3.5 -8.2l-7 -4.2l-7.9 9l-3.1 14.8l-18.3 -6.3l-14.8 -8.2l-15.1 0.7l-10.2 2.6l-24.7 -11.1l-13.5 4.4l-15.5 15.9l-8.2 14.3l-12.2 4.5l-25.5 -9.2l-20.7 -10l-1.5 -13.3l8.4 -13.3l8.2 -5.7l5.9 -3.3l9 -3.6l28 5.7l11.3 -1.3l2.5 -10.6l-4.4 -7.3l-6.8 -6.5l-3.1 -1.5l-5.9 -1.7l-8.3 -1.3l-12.6 0l-4.7 -1.4l-1.9 -2.5l-0.7 -6.2l1.7 -7.7l2.4 -4l1.6 -2.2l2.2 -3.6l2.4 -3.6l0.7 -1.5l0.7 -1.5l1.2 -3l2.8 -9.6l0.7 -3.2l0.7 -3.1l1.1 -6.1l-0.1 -8.1l-1.4 -2.9l-5.2 -2.7l-5.3 1.4l-3.8 3.1l-4.7 3.1l-9.6 1.4l-6.3 -0.9l-6.3 -2.3l-1.5 -0.8l-3 -1.3l-2.2 -0.9l-4.9 -1.6l-4.4 -1.4l-4.8 -1.1l-5 -4.2l-4.7 -2.6l-6.1 -3.6l-7.7 -5l-3.1 -1.5l-4.3 -1.4l-3.5 -0.3l-4.2 -1.2l-3.7 -0.9l-3.1 -1.2l-2.3 -1.2l-3.5 -3.6l-1.3 -4.1l-0.1 -11.7l1 -2.2l4.7 -5.7l9.8 -7.8l3.3 -5.3l0.5 -6.8l-1.6 -3.4l-1.1 -2l-1.3 -2.3l-1 -1.7l-2.1 -2.8l-4 -3.4l-2.9 -3.9l-7.7 -6.2l-5 -3.4l-3.2 -1.2l-3.5 -3.3l-2.2 -3.3l-1.3 -2.9l-2.2 -5.9l-2 -7.5l-1.1 -8.1l-1.6 -14.4l0.3 -4.1l-0.1 -4.7l0.2 -6.9l1.5 -7.3l1.3 -8.5l-0.7 -14l0.1 -9.8l1.7 -9.9l-1.3 -12.8l-1.2 -3.1l-1.6 -2.9l-2.1 -2.6l-1.7 -2.3l-3.7 -4.6l-2.3 -5l1 -8.1l1.3 -2.3l2.8 -3.9l4.1 -5.7l1.1 -2.3l1.1 -2.5l0.7 -8.5l-1.9 -4.8l-2.8 -3.7l-5.9 -6.2l-6.5 -7.7l-1.9 -2.3l1 318.7l-2 308.5l-1.2 184.7l-1.6 325.1z" />
  </g>
  <g data-id="007">
    <path d="m1.4 3783.6l0 0l0 59.2l0.1 -0l-0 69l-0 94.1l0 0l0.1 91.5l269.5 -0.5l1.7 0.1l142.1 -133.5l84.8 -82l7.2 -4.9l0.4 -4.3l3 -1.7l3.3 -4.6l3.2 0.3l-0.3 -5.2l7.9 2.7l4.2 -3.7l2 -6.9l3.7 -2.7l0.9 -3l37.1 -18.6l11.2 -29.4l36.4 0.4l23.6 -9.7l-6.6 -136.5l0.4 -1l-5.4 -112.6l-1.7 -45.3l-4.4 -100.1l-5.9 -151.5l-281.4 4.5l-336.9 4.1l-0 2.9l-0.1 2.1l0.2 108.7l-0.1 20.2l0.1 347.3l-0.1 50.6l-0.1 0z" />
  </g>
  <g data-id="009">
    <path d="m3006.4 5627.4l0 0l-70.8 161.5l145.4 -0.3l112.1 0.5l82.1 0.3l58.9 0.2l50.6 -0.7l14.9 0.8l130.8 -0.9l38.7 0.9l100.1 -0.1l88.7 -130.8l51.2 -98.7l54 -174.3l81.8 -200.9l26.6 -39.6l0.3 -69.9l27.9 -10.9l11 -26.1l-36.4 -22.8l-6.2 -38.8l81.4 -80l41.2 -97l-174 -133.4l-36 -164.8l-54 125.4l-179 -94.6l-70.6 -40.7l-23.3 130.2l-99.1 -96.5l-41.2 -12.5l-155.5 -76.8l-54 102l4 14.9l2.7 9.9l6.8 25.1l-24.7 37.1l-31.8 71.3l-107.9 317.8l-20.9 -12l-19.2 40.1l10.2 522.4l-16.8 62.7z" />
  </g>
  <g data-id="011">
    <path d="m7034.4 4056.2l0 0l-37 -0.8l357.2 292.2l57.2 25.7l81.3 87.5l102 86.1l81.8 68.5l0.1 0.1l175.3 147.4l117.4 99.8l112.4 -91l190.5 -144.2l99.4 -159.4l119.3 -191.6l16.3 -26.6l51.6 -84l-85 -69.9l-106.7 -89.4l-57.4 -48.1l-110.7 -92.5l-260.8 -220l-174.5 84.9l-32.6 140.1l-10.9 8.8l-67.7 -13.1l-12.5 -0.1l-24.4 30.7l-45.1 8.8l-84.4 38.3l-28.3 23.2l-82 14.1l-62.8 26.2l-142.5 3.9l-51.6 13l-84.7 31.5z" />
  </g>
  <g data-id="013">
    <path d="m3288.9 4377.6l0 0l-30.9 58.4l155.5 76.8l41.2 12.5l99.1 96.5l23.3 -130.2l70.6 40.7l179 94.6l54 -125.4l45.2 -94.4l129.5 -222.3l36.4 -78.2l8 -39.2l-10.4 -17.1l-30.4 21.8l10.4 -100.8l32.1 -78.3l-36.6 60l-27.9 22.5l-19.7 -9l-33.2 -52.1l32.3 -57.2l-10.2 -26l30.6 -51.2l-52.9 -48.4l-2 -19.8l-40.5 -59.8l29.3 -48.3l112.8 -64.3l38.7 -33.6l-26.3 -8.8l-258.9 15l-132.3 8.6l16.3 17.6l-99.8 182l-57.2 6.5l-9.5 112.8l-65.9 114.5l-55.7 27.2l-36.7 51.1l-8.4 43.9l7.3 23.2l-18.4 44.5l-22.1 193.8l-65.6 39.7z" />
  </g>
  <g data-id="015">
    <path d="m6171.1 620.3l0 0l-8.9 0l47.6 443.3l1.2 34.2l34.1 400l6.8 53.7l104.6 15.8l59.9 7.6l958.2 104.1l38 -244.3l142.1 -9.2l-11.7 -199.2l-40.3 -599.7l-339.9 1.3l-10.6 -0.1l-192.5 -1.2l-7.5 -0.2l-11.1 -0.2l-145.1 -2.4l-0.8 -0l-137.2 -1.5l-191.4 -2.1l-113.5 0l-32.9 -0.2l-147 -0l-1.9 0.2z" />
  </g>
  <g data-id="017">
    <path d="m8637.2 4230.1l0 0l65.9 50.1l60.5 48.9l14 11l84.1 66.3l23.8 19.1l8.1 6.5l156.8 122.4l49.8 38.2l107 85.4l23.9 19.1l53 41.8l61.2 47.7l71.9 55l24.4 19.1l29.5 22.8l7.4 -10l49.1 30.6l15.8 53l-26.2 47.1l-23.7 38.4l18.1 17.8l51.3 -32.1l20.9 -11.7l11.8 -5.2l7.7 -0.9l15.3 2.7l4.9 -0.7l0.1 -0l36.4 -12.6l13 -6.7l28.1 -7.6l5 -3.4l1.9 -2.7l2.7 -8.7l1.4 -2.7l1.5 -2.9l3.6 -4l5.7 -4l13.2 -6.3l9.3 -7.2l5 -6.7l3.9 -17.5l7.5 -19.3l4.3 -8.1l6.2 -6.3l5.7 -1.8l4.6 -0.2l1.1 0.3l4.9 1.3l20.9 9.2l20.4 5.4l6.2 0.2l5.1 -1.1l21.6 -18.7l11.4 -7.6l6.8 -3.4l6.1 -1.5l16.1 1.1l5.1 -0.4l3.9 -1.8l25.6 -23.1l2.3 -3.4l2.9 -6.7l0.2 -0.9l1.5 -7.6l0.2 -10.3l-1.4 -4.9l-19.7 -31.2l-5.8 -7l-11.8 -7.6l-13 -5.2l-0.5 -0.5l-4 -3.8l-2.2 -3.4l-2.2 -6.1l-6.3 -21.3l-0.4 -0.7l-10.4 -19l-6 -15.3l-1.6 -2l-16.9 -13.7l-24.2 -17.7l-41.5 -20.4l-7.5 -6.7l-21.3 -10.6l-10.3 -9.7l-7.4 -18.7l-11.1 -24.5l-0 -0.1l-5.8 -17.3l-6.8 -16.1l-7.2 -13.7l-6 -10.2l-21.3 -23.4l-11.1 -10.6l-7.7 -6.1l-8.2 -4.7l-11.8 -1.1l-8.6 -2.9l-15.6 -12.4l-16.1 -15.7l-10.8 -8.3l-11.3 -11l-5.6 -8.2l-1.4 -2.1l-2.3 -10.7l-1.6 -22.4l-4.7 -16.8l-8.5 -25.5l-0.5 -1.3l-17.1 -41.9l-2.6 -4.7l-7 -5.5l-22.5 -10.5l-4.7 -3.4l-5.9 -6.4l-12.8 -4l-3.9 1l-8.1 5.1l-23.8 7.2l-13 2.7l-6.1 -1l-14.2 -6.6l-8.6 -7l-0.2 -0.3l-2.2 -3.6l-2.3 -1.9l-3.5 -3l-16.5 -5.1l-4.7 -4.5l-3.1 -7.4l-1.4 -3.4l-2.5 -23.8l-7.7 -33.6l-5.4 -15.4l0 -2.7l5.6 -19.4l-1.3 -8.2l0.5 -9.6l5.9 -8.9l3.6 -10.4l0.5 -11.2l-0.7 -12l-5 -29.3l-1.2 -13.6l0.3 -19.8l1.3 -15l-2.3 -23.4l-1.5 -6.9l-2.3 -6l-17 -13.7l-29.5 -36.4l-7.9 -7.7l-18.1 -6.5l-11 -5.7l-33.4 -5.7l-8.8 1l-9.4 4.8l-19 17.8l-7.6 2.7l-9.8 -0l-11.5 -2l-13.5 -5.3l-6.2 -4.6l-9.6 -11l-2.9 -4.5l-1.4 -5.3l-0.4 -2.5l0.8 -5.1l6.6 -11.1l1.1 -8l-0.4 -2.9l-3.3 -24.9l-7.7 -13.3l-102.5 58.4l-72.9 54.5l-52.3 44.1l-6.9 4.5l-130.7 110.7l-127.5 156.7z" />
  </g>
  <g data-id="019">
    <path d="m608.2 2913.2l0 0l9.1 257.9l2.5 72l5.9 151.5l4.4 100.1l1.7 45.3l5.4 112.6l132.1 -1.5l5.3 1.7l127.2 1.2l50.7 2.5l69.3 -1.1l236.4 3.3l92 5.2l68.3 -1.1l1.6 -325.1l1.2 -184.7l2 -308.5l-1 -318.7l-7.3 -5l-326.8 0.9l-195.9 1.4l-115.9 164l-50.6 68.4l-6.6 9.8l-110.7 147.8z" />
  </g>
  <g data-id="021">
    <path d="m2512.3 4520.5l0 0l-1.5 9.8l211.5 0.3l8.3 1.7l4.9 13.4l36 7.1l13.3 8.2l19.6 60.2l27.6 -9.6l21.7 12.3l5.1 -5.2l6.1 -0.6l2.6 2.5l15.5 0.2l309.7 4.2l24.7 -37.1l-6.8 -25.1l-2.7 -9.9l-4 -14.9l54 -102l30.9 -58.4l65.6 -39.7l22.1 -193.8l18.4 -44.5l-7.3 -23.2l8.4 -43.9l36.7 -51.1l55.7 -27.2l65.9 -114.5l9.5 -112.8l57.2 -6.5l99.8 -182l-621.4 1.1l-152.6 -0.4l4.6 16.3l-81.8 184.7l-23.1 70l-110 279l-86.4 191.8l0.3 2.4l-107.6 197.9l-30.7 39.4z" />
  </g>
  <g data-id="023">
    <path d="m3603.2 1539.4l0 0l-1.6 451.5l284.8 0.7l-0.7 185.4l33.8 0.4l-3.7 212.1l246 30.9l179.4 -343.6l-0.7 -245.6l-105 -1.5l-262.4 -327l-370.3 3l0.3 33.6z" />
  </g>
  <g data-id="025">
    <path d="m7756.9 3111.9l0 0l5.1 6.5l172.7 198l13.1 14.8l26.1 21.1l21.4 18.6l172.5 143.4l84.5 -56.3l15.7 -13.2l7.9 -9l147.1 -39.2l54 -27.2l177.2 -34.7l-22.7 -52.1l-52.3 -91.8l-97.1 -166l134.8 -81.5l-113.1 -141.7l-24.9 -41.1l-62.1 -60.7l-13.2 -34.2l-43.7 -8.3l-6.5 -21.4l-30.3 -26.6l-43.2 6.2l-68.6 64.5l-59.7 22.6l3.2 18.3l-7.9 43.8l-0.3 35.3l23.7 42.4l23.8 -0.3l18.1 53.4l-119.7 57.5l-30.7 1.9l-48.8 35.7l-150.1 70.4l-86.6 40.7l-19.5 10.1z" />
  </g>
  <g data-id="027">
    <path d="m3676.2 3471.4l0 0l28.5 49.4l132.3 -8.6l258.9 -15l26.3 8.8l53.6 18.6l242.1 88.9l48 -31.3l157.1 -86.5l96 54.8l85.5 -17.9l14.4 28.8l49.6 -34.2l49.3 -34.3l101.6 -37l265.7 -142.2l117.1 -50.5l10.3 -1.5l145.7 -142.4l129 -188.5l102.7 -117.4l-335.8 130l-92.6 20.2l-79.5 8.7l-117.2 26.1l-9.7 -15l-76.1 -117.6l-36.5 -58.4l31 -24l-8.8 -16.9l-40.8 -12.9l-7.7 -16.1l-45.4 -30.7l-63.8 -22.2l-6.2 -17.2l-47.7 5.2l-27.2 -17.4l-19.8 20.3l-41.4 -6.1l-29.9 -34.3l-30 -51.2l-21.9 6.9l-0.8 -79.8l-14.7 -11l-161.5 8.4l-9.4 -169.8l-43.6 60l-26.4 8.5l-3.1 30.3l-31.9 -18.4l-23.4 30.3l0.1 71l-44.9 22.8l-7.5 41.4l-23.6 -19l-35.8 -1l-52.7 68.5l-74.3 21.2l26.8 92.9l10.1 29.9l52.2 17.4l5.7 30.3l-40.2 19.3l35.4 61.9l-3.5 19.3l-43 3.4l-7.1 29.8l22.7 49l-55 20.2l-18.9 18.6l-26.7 -34.6l-54.4 -8.8l21.7 42.5l-27.2 12.3l-17.4 32.7l-65.7 21.8l-16.1 27.2l14.7 24.7l-48.7 46.1l-0.4 32.1l-35 18.8l-32.3 -6.1l-23.6 36.8l4.3 21l-25 35.3l-40.9 22l-7.5 37.1l-58.4 63.9z" />
  </g>
  <g data-id="029">
    <path d="m8457 5520.6l0 0l-6.7 12.3l22.6 -2.2l-3.6 -6.1l-2.7 -3.2l-6 -3.2l-3.5 2.4z" />
    <path d="m7519.5 5791.3l0 0l20.1 -0.1l165 -0.6l25 -0.2l24.7 0.8l320.3 -0.8l3.2 -0l18 0.1l19.2 0.2l25.4 -0l12.9 -35.6l9.8 -21l1.7 -3.1l10.8 -20.1l14.9 -22.8l13.6 -17.6l16.2 -18.7l5.6 -5.6l7.5 -7.6l4.2 -4.3l11.9 -10.4l15.2 -13.2l26.1 -18.8l32.4 -18.3l7.4 -4.2l36.6 -16.1l11.7 -4l30 -8.5l36.9 -7l1.5 -0.3l4 -68.5l-9.2 -14.2l45.9 -30.6l15.1 -30.3l33.7 -57l33 9l-0.5 -46.9l37.2 -22.9l113.3 -68.4l-30.4 -19.3l84.8 -75.6l-18.3 -32.3l72 -41.2l20.5 -12l-54.1 10.2l-47.2 -81.2l-61.9 21.1l-9.5 -34.2l-16.9 -19.8l15.4 -17.3l1.8 -11.8l-55 -3.7l-26.7 -22.7l11.2 -50.7l-41.4 21.6l-3.6 -42.3l-18.2 -14.7l-13.4 -25.8l-16.7 -46.6l-27.8 26.7l-48.1 -96l-18.9 33.8l-26.7 -22.3l-29.9 -15l-37.3 -12.4l-15.3 5.8l-21.4 14.3l-14.2 -12.7l-190.5 144.2l-112.4 91l-110.8 58.2l-7.6 10.4l10.8 62.6l0.5 92.1l-26.6 47.1l-36 64.7l-38.1 78.9l16.4 32.2l-20.8 20.6l3.5 66.5l6.6 67.5l-17.9 -13.3l-8.6 46.3l-22.6 1l4.4 51.2l-34.8 8.2l5.5 32.2l-26.1 64.1l-15 8.8l-14.2 44.4l-26 -3.1l-4.3 29l-30.4 18.9l16.2 14.2l-15.7 20.7l-31.1 -27l1.3 28.8l-28.4 3.4z" />
  </g>
  <g data-id="031">
    <path d="m1411 2494.1l0 0l3.9 26.8l7.3 5l1.9 2.3l6.5 7.7l5.9 6.2l2.8 3.7l1.9 4.8l-0.7 8.5l-1.1 2.5l-1.1 2.3l-4.1 5.7l-2.8 3.9l-1.3 2.3l-1 8.1l2.3 5l3.7 4.6l1.7 2.3l2.1 2.6l1.6 2.9l1.2 3.1l1.3 12.8l-1.7 9.9l-0.1 9.8l0.7 14l-1.3 8.5l-1.5 7.3l-0.2 6.9l0.1 4.7l-0.3 4.1l1.6 14.4l1.1 8.1l2 7.5l2.2 5.9l1.3 2.9l2.2 3.3l3.5 3.3l3.2 1.2l5 3.4l7.7 6.2l2.9 3.9l4 3.4l2.1 2.8l1 1.7l1.3 2.3l1.1 2l1.6 3.4l-0.5 6.8l-3.3 5.3l-9.8 7.8l-4.7 5.7l-1 2.2l0.1 11.7l1.3 4.1l3.5 3.6l2.3 1.2l3.1 1.2l3.7 0.9l4.2 1.2l3.5 0.3l4.3 1.4l3.1 1.5l7.7 5l6.1 3.6l4.7 2.6l5 4.2l4.8 1.1l4.4 1.4l4.9 1.6l2.2 0.9l3 1.3l1.5 0.8l6.3 2.3l6.3 0.9l9.6 -1.4l4.7 -3.1l3.8 -3.1l5.3 -1.4l5.2 2.7l1.4 2.9l0.1 8.1l-1.1 6.1l-0.7 3.1l-0.7 3.2l-2.8 9.6l-1.2 3l-0.7 1.5l-0.7 1.5l-2.4 3.6l-2.2 3.6l-1.6 2.2l-2.4 4l-1.7 7.7l0.7 6.2l1.9 2.5l4.7 1.4l12.6 -0l8.3 1.3l5.9 1.7l3.1 1.5l6.8 6.5l4.4 7.3l-2.5 10.6l-11.3 1.3l-28 -5.7l-9 3.6l-5.9 3.3l-8.2 5.7l-8.4 13.3l1.5 13.3l20.7 10l25.5 9.2l12.2 -4.5l8.2 -14.3l15.5 -15.9l13.5 -4.4l24.7 11.1l10.2 -2.6l15.1 -0.7l14.8 8.2l18.3 6.3l3.1 -14.8l7.9 -9l7 4.2l3.5 8.2l11.6 9.4l11.2 -12.9l1.5 -14.5l4.4 -9.5l7.3 -4.3l6.8 2.1l16.2 -0.1l15.6 9.4l6.2 -1.2l5.3 6.3l-6.1 3.1l-1.3 9.2l8.4 -0.2l11.8 -0.3l13.1 -11.2l13 3.2l16.3 -8.6l3.6 -14.3l1.7 -15l8.2 -5.8l5.9 4.2l-2.6 6.9l7.7 5.4l4.8 -1.4l5.1 6.6l-2.1 7.6l3.3 9.5l5.5 -0.5l5.4 -5.2l1.3 -5.7l7.7 -1.7l14.1 -3l10.4 2.9l-2.4 7.8l-5.3 -0.6l-7.1 4.8l6.9 8.2l5 -1l3.9 -0.3l-0.5 7.7l-6.9 7.4l-1.4 17.6l13.6 5.2l5 -10.3l1.7 -14.5l3.5 -32.6l4.3 -15.6l3.6 -4.2l3.2 -1.7l4.1 1.4l1.8 3.1l3.7 4.2l11.5 3.6l9.2 -1.1l3.8 -5l2.6 -2.6l2.8 -1l3.8 0.7l1.1 2.4l1.2 3.4l4.7 0.7l3.2 -1.9l8.3 -1.3l7.6 -1.6l4.6 -1.3l4 -1.8l2.2 -2.3l0.8 -1.7l4.1 -4.9l6 -5.1l7.6 -6.5l1.5 -2.8l2.8 -0.8l4.2 3.7l7.2 0.1l3.7 2.3l6.1 1.8l6.2 1.3l5.4 -0.9l4 -3.6l3.7 -5l4.3 -4.4l1.5 -3.4l5.8 -3.1l3 -1.4l4.6 -4l3.9 -6.2l2.6 -5.9l1.4 -2.3l1.2 -2l0.8 -1.6l2.5 -2.5l4.1 -1.7l4.3 -2l5.5 -1.9l2.8 -1.2l3.7 -3.1l5.3 -2.3l4.6 -0.6l3.6 -4.1l0.8 -1.7l0.8 -1.7l2.7 -4.6l1.5 -2.7l6.4 -5.8l7.1 -4.5l19.2 -7.3l4.1 -2.3l6.7 -64.2l4.2 -577.1l2.9 -226.4l-258.1 -3.5l-73.1 -8.5l-0.3 113.4l-132.7 0.2l-0.9 116l-108.2 -0.5l-0.1 34.1l-107.5 -1.1l-0.8 101.4l-39.4 -0.3l-9.1 53.8l-30 -0.3l1.3 81.6l-33 42.9l-2.1 36.4l-46.5 -3.4z" />
  </g>
  <g data-id="033">
    <path d="m2941 3127.8l0 0l-1.9 399.4l7.9 11.8l152.6 0.4l621.4 -1.1l-16.3 -17.6l-28.5 -49.4l58.4 -63.9l7.5 -37.1l40.9 -22l25 -35.3l-4.3 -21l23.6 -36.8l32.3 6.1l35 -18.8l0.4 -32.1l48.7 -46.1l-14.7 -24.7l16.1 -27.2l65.7 -21.8l17.4 -32.7l27.2 -12.3l-21.7 -42.5l54.4 8.8l26.7 34.6l18.9 -18.6l55 -20.2l-22.7 -49l7.1 -29.8l43 -3.4l3.5 -19.3l-35.4 -61.9l40.2 -19.3l-5.7 -30.3l-52.2 -17.4l-10.1 -29.9l-26.8 -92.9l74.3 -21.2l52.7 -68.5l-39.1 -47.6l-55.5 -96.6l-246 -30.9l-425.2 -30.7l-277.8 -22.4l-2.2 82.8l-106.9 35.6l-96.3 -2.1l-65.4 160.8l0.8 314.7l-1.9 199.6z" />
  </g>
  <g data-id="035">
    <path d="m4161.8 2420.5l0 0l55.5 96.6l39.1 47.6l35.8 1l23.6 19l7.5 -41.4l44.9 -22.8l-0.1 -71l23.4 -30.3l31.9 18.4l3.1 -30.3l26.4 -8.5l43.6 -60l9.4 169.8l161.5 -8.4l14.7 11l0.8 79.8l21.9 -6.9l30 51.2l29.9 34.3l41.4 6.1l19.8 -20.3l27.2 17.4l47.7 -5.2l6.2 17.2l63.8 22.2l45.4 30.7l7.7 16.1l40.8 12.9l8.8 16.9l-31 24l36.5 58.4l76.1 117.6l9.7 15l117.2 -26.1l79.5 -8.7l92.6 -20.2l335.8 -130l0.1 -55.7l-34.6 0.3l-184.8 -236.4l-36.1 -31.8l4.3 -19.7l-52 -54.3l-49.5 -2.2l0.2 -20.4l-35.5 -9.6l-49.2 -45.6l-52.1 -66.4l-27 -12.8l-19.3 -38.5l-26.5 -22l-7.1 -54.9l-39.8 -34.9l-46.9 -11.3l-23.1 -21.9l-3.2 -30.2l-38.7 -71.8l-19.4 -20.4l-15.3 -45.1l-21.6 0.6l-1.5 -85.9l-670.7 8.6l0.7 245.6l-179.4 343.6z" />
  </g>
  <g data-id="037">
    <path d="m6653.3 2560l0 0l34.2 149.7l3.2 59.6l84.1 22.7l13.1 44.5l-5.1 78.2l86.2 92.8l4.3 29.2l-29.1 13.5l15.9 30.7l-13.5 100.1l38.2 0.3l13 64.8l-16.6 16.5l11.6 49.4l156.9 -20.1l50.6 131.7l125.2 -59.6l13.8 -66.6l24.9 -118.8l131.7 -150.1l-40.2 -227l4 -202.2l-83.5 15.2l-69.1 -167.6l-3.5 -13.4l16.8 -225.8l-167.7 4.1l-68 74.8l-248.7 268.7l-82.6 4.7z" />
  </g>
  <g data-id="039">
    <path d="m0.9 1311.5l0 0l-0.1 69.5l0.1 3.4l0 58.5l0 240.8l0.3 24.1l-0.1 66.1l0 25l127.5 -7.5l23.6 12.2l284.7 8l239.8 7l144 -19l71.3 -3.1l31.4 -52.3l39.6 -1.4l25.4 -54.9l34.5 -0.2l52.3 -83.9l27.1 -0.2l46.5 -29.4l1 -24.3l34.1 -10.1l1.2 -45.9l103.8 2.5l266.7 8.9l-0 -15.6l1.4 -519.9l-117.1 -3.4l-393.8 1.9l-214.8 1.3l-293.8 2.5l-247.3 -1.1l-94.6 -0.3l-194.5 0.1l0.1 194.3l-0.2 29.1l-0.1 30.2l0.1 87.1z" />
  </g>
  <g data-id="041">
    <path d="m4982.9 4724.7l0 0l-22 22.3l33 80.5l77.3 74.7l5.9 42.1l42.6 68.1l4.1 48.2l21.8 18.6l41.8 79.1l70.8 73.2l-29.1 63.4l85.3 -83.3l30.5 -29.5l85.5 -19.8l169 -39.1l119.3 -19.6l12.9 -16.2l27.5 -33.5l42.3 -40.9l97.8 -92l88.4 -82.7l27.9 -1.3l71 -19.3l-11.7 -17.4l83.9 7.9l39.8 -10l-29.9 -25.5l25.3 -30.6l-35.9 -13.8l29.6 -17.2l14.3 -44.2l20.7 18.7l42.5 -0.2l13.7 -23.2l-24.4 -25.5l-51.6 -48.9l-18.2 -28l-17.8 -39.8l3.7 -29.5l16.8 -48.2l-4.5 -9.7l-101.6 40.8l-69.5 12.6l-140 9.7l-152.8 28.6l-33 1.4l-112.1 18.9l-72.3 24.5l-31.3 -17.7l13.2 -36.9l-30.7 11.4l-76.3 54.4l-29.7 12.9l-35.5 -2.2l23.8 -37.4l84.8 -72.2l-0.4 -16.6l-58.9 23.8l-55.1 38l-80.6 72.8l-108.5 79l-32.5 -0.3l-23.6 15.9l-61.5 60.1l-15.8 -29.6z" />
  </g>
  <g data-id="043">
    <path d="m5988 4291.5l0 0l13.5 56.2l21.6 17.5l121.2 2.2l38.7 65.3l4.5 9.7l-16.8 48.2l-3.7 29.5l17.8 39.8l18.2 28l51.6 48.9l24.4 25.5l33.5 10.6l28.2 44.7l29 2.4l9.5 1.1l63.1 46.3l12.7 5.4l32.7 116.1l26.9 11.8l41.1 -81.4l35.9 15.4l57.6 -36.3l12.3 -10l50.6 -44.7l11.4 3.9l20.5 -5.2l2.5 2.4l6.4 -3.3l3.4 -8.4l16.3 0.6l7.2 -2.6l1.2 -2.4l-7.1 -4l-37.2 -125.5l-57.2 -191.1l-72.4 -244.6l-17.6 -60.5l244.6 -181.5l-71.5 -57.6l-213.6 -174.9l-82.5 11.2l-76.1 28.5l-18.5 -14.2l-8.5 10.8l-2.2 18.6l-49.7 18.9l-44 -4.1l-35.4 21.4l-55.3 32.3l-52.7 -55.8l-13.8 75.7l-60.1 61.3l18 54.4l-5.3 61.1l27.5 42.4l27.5 15.7l6.3 48.7l-20.1 29.9l-33.1 19.5l-39.1 45.8l-22.4 3.7l5.4 51.4l-26.6 25.1z" />
  </g>
  <g data-id="045">
    <path d="m8442 5450.8l0 0l9.2 14.2l-4 68.5l2.1 -0.4l0.9 -0.1l6.7 -12.3l3.5 -2.4l6 3.2l2.7 3.2l3.6 6.1l0.2 -0l16.1 -1.1l52.3 1.8l1.1 0l35.9 4.3l32.1 6.4l1.5 0.3l30.2 9.4l30.5 11.8l0.2 0.1l1.5 0.7l4.4 2.1l10.6 5l44.1 24.9l22.2 16.3l19.4 -12.5l22.6 -17.4l32.1 -27.5l29.9 -27.5l21.7 -13.8l19.4 -6.5l12.4 -1.8l8 -0.3l15.2 -0.5l28 3.1l38.1 -1.5l47.6 -11.5l14.4 -4.5l24 -10.1l17.4 -10.3l-8.3 -23.2l-42.4 8.3l-41.1 -21.9l-0.8 -12.9l14 -15.2l9.4 -21.6l7.5 -27.9l8.6 -37.3l12.1 -8.8l-14 -10.6l-7.2 -3.8l-7.4 -12l6.5 -30.4l-47.5 -15.1l-8.4 -12.1l6.5 -4.5l-17.6 -29.1l-10.4 -15.5l-31.9 -51.4l-15.9 8l-13.4 -23.1l-35.9 -59.1l-19.9 -28.3l-20.5 12l-72 41.2l18.3 32.3l-84.8 75.6l30.4 19.3l-113.3 68.4l-37.2 22.9l0.5 46.9l-33 -9l-33.7 57l-15.1 30.3l-45.9 30.6z" />
  </g>
  <g data-id="047">
    <path d="m2446.3 1949.2l0 0l-2.6 188.9l31.5 -31.1l19.8 9.3l64.1 -16.1l12.8 15.3l47.4 -41.4l35.6 -18.2l21.9 32.9l384 226.6l-5 73.6l48.3 1l-0.3 64.7l106.9 -35.6l2.2 -82.8l277.8 22.4l425.2 30.7l3.7 -212.1l-33.8 -0.4l0.7 -185.4l-284.8 -0.7l1.6 -451.5l-109.3 -0.4l-1 -63.2l-271.2 3.9l-53.1 7.2l-245.8 0.9l-240.5 1.8l0 1.1l-4.4 224.5l-0.6 202.5l-30.4 0.2l-0 -33.9l-149 -3.3l-2.8 68.7l-48.8 -0.2z" />
  </g>
  <g data-id="049">
    <path d="m0.8 676l0 0l0 3.1l0.2 74.2l-0.1 34.2l0.1 183.4l194.5 -0.1l94.6 0.3l247.3 1.1l293.8 -2.5l214.8 -1.3l393.8 -1.9l117.1 3.4l2.1 -343.3l-24.8 -0.2l0 0.2l-76.9 -0.8l-156.4 1.2l-0.5 -2.9l-0.3 -43.8l0.2 -230.9l-0.7 -28.3l0.4 -45l0.2 -27.7l-0.3 -24.6l-0 -14.8l0.2 -9.1l-0.5 -137.6l0.3 -19.2l0 -42.9l-62.6 32.3l-79.3 47.4l-40 10.4l-31.2 14.1l-25.5 19.1l-39.2 21.2l-12.7 1.9l-99.2 68.7l-54.7 33.1l-68.6 41.4l-18.7 -2.8l-7.4 -4.2l-4.3 -8.3l0.6 -0.5l11 -8.5l-13.8 -19.1l11.4 -11.6l-6.9 -6l-19.1 -4.4l-49.5 15.8l-22.4 23.2l-9.9 14.8l-30.7 81.4l-20.2 20.6l-38.1 26.8l-66 34.2l-6.7 3.5l-113.7 66.7l-3.6 1.9l-53.4 27.9l-32.9 13.7l-24.2 5.2l-14.8 9.3l-2.1 -0.3l-63 28.9l-44 13.8l-144 64.8z" />
  </g>
  <g data-id="051">
    <path d="m895.1 5207.3l0 0l-19.4 54.9l26.8 21.1l62.5 -8.7l54.3 63.7l-0 22.4l-4.8 27.9l22.6 49.1l-26.4 27.3l10.6 26.2l-0.2 2.9l-4.1 3.9l-4.7 4.1l-14.7 11.8l24 17.9l7.2 57.8l19.9 42l-44.3 27.2l7.4 54l45.3 30.3l-21.4 50.4l108.1 0.4l0.4 0l76.8 -0.1l76 -0.1l262.7 -1l4.1 0.2l102.5 0.8l123.2 -0.7l144.4 -0.8l-0.3 -25.1l-29.7 -5.1l27.3 -18.5l-9.9 -27.4l36.4 -29.7l-22.3 -20.3l19.9 -27l40 19.2l-20.7 -44.6l5.4 -42.6l-26.7 -14.1l-1.2 -22.3l-61.1 -37.8l32.3 -104.7l88.1 -154l29.1 -52.2l63 -106.6l-81.6 -5.5l-24.7 -70.5l-65.3 -37.1l-46.9 -41.5l-45.7 -46.8l-61.8 -29.8l-36.8 6.7l-51.9 32.7l-8.4 26.8l-66.2 19.1l-24.1 52.6l-49.6 -28l-29.2 26.2l-34.9 -32.4l-45.9 -37.2l-62.1 2.4l-37.8 -34.4l-62 0.5l-159.6 -2.6l-6.4 5.2l42.6 24l23.1 54.9l-40.2 35.8l-58.4 -9.4l30.1 37.7l-21.7 30.5l25 28.2l-5 19.1l-26.5 13.9l-32.3 2.3l-34.7 47.9l-34.5 9.7l-28.8 -41.5l-38 10.5l-7.6 57.8z" />
  </g>
  <g data-id="053">
    <path d="m1728.2 1853.2l0 0l-16 56.5l74.5 1l0.6 122.7l132.7 -0.2l0.3 -113.4l73.1 8.5l258.1 3.5l-2.9 226.4l37.5 -12.4l55.4 19.8l25.6 -29.2l57.2 34.7l19.5 -32.9l2.6 -188.9l48.8 0.2l2.8 -68.7l149 3.3l0 33.9l30.4 -0.2l0.6 -202.5l4.4 -224.5l-921.7 -3l-31.9 0.4l-0.4 365.1z" />
  </g>
  <g data-id="055">
    <path d="m4152.3 5790.1l0 0l39.6 0l3.5 -0l341.3 0.2l145.1 1.5l1 0l35.9 0.4l43.4 0.3l18.2 0.2l14.6 0.4l85.1 0.1l3.9 0.2l4.8 0l231 1.4l2.4 -0.1l110.2 0.3l0.2 -0l16.7 -0l-9.8 -289.4l-10.2 -210.6l29.1 -63.4l-70.8 -73.2l-41.8 -79.1l-21.8 -18.6l-4.1 -48.2l-42.6 -68.1l-5.9 -42.1l-77.3 -74.7l-33 -80.5l22 -22.3l20.5 -66.6l-23.1 -9.9l-40.7 33.6l-17.3 -19.3l7.3 -66.8l-37.8 9.1l19.4 -41.3l-26.3 -43.7l-10.7 16.3l-42.9 42.7l-59.9 59.5l-52.1 74l-48.1 83.8l-103.6 218.9l-13.2 17.2l-32.3 29.2l-62 101l-42.1 140.6l-20.8 30.4l-0.6 27.3l-31.9 96.2l-47.3 101l-44.3 59.6l-61.7 94.2l-8.2 21l-50.9 57.6z" />
  </g>
  <g data-id="057">
    <path d="m3669.3 5789.7l0 0l64.7 -0.1l0.4 -0l3.5 0.1l1.6 -0.1l4.2 0.2l11 -0.5l105.8 0.2l0.1 0.1l44.3 0.2l4.7 -0l61.5 -0.1l2.7 0.2l178.4 0.2l50.9 -57.6l8.2 -21l61.7 -94.2l44.3 -59.6l47.3 -101l31.9 -96.2l0.6 -27.3l20.8 -30.4l42.1 -140.6l62 -101l32.3 -29.2l-104.7 -95.1l-0.6 4.6l-263.5 -71.7l-94.9 -70.1l-41.2 97l-81.4 80l6.2 38.8l36.4 22.8l-11 26.1l-27.9 10.9l-0.3 69.9l-26.6 39.6l-81.8 200.9l-54 174.3l-51.2 98.7l-88.7 130.8z" />
  </g>
  <g data-id="059">
    <path d="m0.8 5603.3l0 0l0 57.9l0.1 131.3l168 0.5l192 -0.2l1.4 -0l115.5 -0l283.6 -0.1l274 1l21.4 -50.4l-45.3 -30.3l-7.4 -54l44.3 -27.2l-19.9 -42l-7.2 -57.8l-24 -17.9l14.7 -11.8l4.7 -4.1l4.1 -3.9l0.2 -2.9l-10.6 -26.2l26.4 -27.3l-22.6 -49.1l4.8 -27.9l0 -22.4l-54.3 -63.7l-62.5 8.7l-26.8 -21.1l19.4 -54.9l-86.2 10.7l16.1 -40.2l-34.1 -28.8l-46.8 42.6l-74.4 4.3l-47.7 -25l-31.9 -19.2l-26.3 13.9l-83.9 -16.9l-57 15.9l0.2 -24.4l-48.3 -16.3l-13.2 32.9l-120.7 26.3l-29.1 36.3l-96.6 10l-38.6 47.8l-44 -3.8l-31.3 -18.8l0 6.3l0 6.1l0.1 39.1l-0.2 5l0.6 102.9l-0.9 189.4z" />
  </g>
  <g data-id="061">
    <path d="m3880.7 4501.5l0 0l36 164.8l174 133.4l94.9 70.1l263.5 71.7l0.6 -4.6l104.7 95.1l13.2 -17.2l103.6 -218.9l48.1 -83.8l52.1 -74l59.9 -59.5l-4.5 -17.4l-79.7 -241.2l-16.5 22.1l-83.4 0.3l-14.1 18.1l-33.8 -19.1l-29.8 9.3l-54.9 -59.6l-44.8 -16.5l150.9 -212.2l16 -16.4l-43.4 -112.7l34.7 -65.2l58.1 -74.9l61.9 -45.7l118.2 -114l-36.2 6.3l4.5 -56.7l42.1 -26l-8.1 -30.1l-49.6 34.2l-14.4 -28.8l-85.5 17.9l-96 -54.8l-157.1 86.5l-48 31.3l-242.1 -88.9l-53.6 -18.6l-38.7 33.6l-112.8 64.3l-29.3 48.3l40.5 59.8l2 19.8l52.9 48.4l-30.6 51.2l10.2 26l-32.3 57.2l33.2 52.1l19.7 9l27.9 -22.5l36.6 -60l-32.1 78.3l-10.4 100.8l30.4 -21.8l10.4 17.1l-8 39.2l-36.4 78.2l-129.5 222.3l-45.2 94.4z" />
  </g>
  <g data-id="063">
    <path d="m1818 4005.7l0 0l12.6 65.4l-2.5 7.9l0.4 2.8l3.5 4.4l7.2 3.4l1.4 -0.1l9.9 -9.1l17.7 -9.3l12.1 35.4l29.1 -2.2l19.2 38.7l37.3 7.4l14.9 -54.1l4.8 40.1l28 11.8l12.8 -34.2l22.4 39l43 -18.6l-1.6 20.8l0 37.3l49.2 -8.7l-0.4 46.6l43.4 -30.8l94.1 38.8l63.3 7l13.5 31.9l53 7.6l-17.4 16.6l9.5 36.7l42.6 -0.3l23.7 -42.5l42 19.6l52.8 -56.9l-9.1 -24l28.1 -7.9l47.6 18.7l24.4 36l86.4 -191.8l110 -279l23.1 -70l81.8 -184.7l-4.6 -16.3l-7.9 -11.8l1.9 -399.4l-703.5 -12.2l0.1 306.8l-209.8 292.6l-35.8 50.1l-157.3 213.1l-16.7 27.4z" />
  </g>
  <g data-id="065">
    <path d="m2246.3 2802.7l0 0l-8.8 312.9l703.5 12.2l1.9 -199.6l-0.8 -314.7l65.4 -160.8l96.3 2.1l0.3 -64.7l-48.3 -1l5 -73.6l-384 -226.6l-21.9 -32.9l-35.6 18.2l-47.4 41.4l-12.8 -15.3l-64.1 16.1l-19.8 -9.3l-31.5 31.1l-19.5 32.9l-57.2 -34.7l-25.6 29.2l-55.4 -19.8l-37.5 12.4l-4.2 577.1l-6.7 64.2l8.6 3.2z" />
  </g>
  <g data-id="067">
    <path d="m4756.3 4306.3l0 0l-9.2 13.8l79.7 241.2l4.5 17.4l42.9 -42.7l10.7 -16.3l61.1 -73.2l63 -58l57.9 -43.3l57.3 -19.5l-13.5 -52.3l100.3 -69.1l329.5 -199.7l99.3 -45.2l57 -31.2l53 -16.3l-26.1 -51.3l136.3 -30.9l105.2 -18.8l32 -0.1l126.7 -54l16.6 -23.1l-8.7 -26.7l-35.5 6.9l-54 25.7l-19.6 -54.6l-44.6 -0l-2 -38.4l-42.7 -6.6l-56.9 8.4l-27.2 -34.9l-70.4 32.7l-235.7 -37.4l-137.8 58.8l-172.8 96.9l-49.3 34.5l0.4 62.7l-59.9 50.3l-71.3 48.9l-66 53.3l0.1 52.5l-57.5 50.8l-130.1 134.8l-42.7 53.8z" />
  </g>
  <g data-id="069">
    <path d="m8035.8 1940.2l0 0l7.8 75.1l59.8 37.2l92.2 68.4l93.1 20.5l-11.6 80.9l25.1 35.7l2.7 54.1l42.6 14.1l6.3 153.6l9.9 33.5l46.2 8.3l27.2 25.3l3.6 -3.6l95.3 -139l43.9 10.9l20.3 -30.3l16.4 -23.7l43.2 -0.7l51.8 -33.9l-16.1 -382.6l-10.9 -247.3l-10.3 -247.5l-11.7 0.4l-313.7 -1.8l-116.1 -0.2l-15.9 14.9l-77.7 141.3l-48.1 116l49.4 45.2l-104.6 175.3z" />
  </g>
  <g data-id="071">
    <path d="m6514.6 4900.9l0 0l11.2 9.2l30.7 30.2l57.2 88l33.1 11.6l125.7 27.8l62.9 -12.7l30.5 75.4l7.7 9.5l0.4 2.1l23.2 35.3l5.3 46.1l30.2 58.8l49.3 34.7l98.3 48.1l20.4 55.7l3.2 46.4l46.6 44.8l21.4 55.9l38.7 26.9l67.9 76.8l60.9 101.1l1.5 19.3l10.6 -0l0.4 -0l167.3 -0.6l28.4 -3.4l-1.3 -28.8l31.1 27l15.7 -20.7l-16.2 -14.2l30.4 -18.9l4.3 -29l26 3.1l14.2 -44.4l15 -8.8l26.1 -64.1l-5.5 -32.2l34.8 -8.2l-4.4 -51.2l22.6 -1l8.6 -46.3l17.9 13.3l-6.6 -67.5l-3.5 -66.5l20.8 -20.6l-16.4 -32.2l38.1 -78.9l36 -64.7l26.6 -47.1l-0.5 -92.1l-10.8 -62.6l7.6 -10.4l110.8 -58.2l-117.4 -99.8l-175.3 -147.4l-0.1 -0.1l-81.8 -68.5l-102 -86.1l-268.2 136.9l-135 22.6l-84.3 15.2l-224.5 93.4l-1.2 2.4l-7.2 2.6l-16.3 -0.6l-3.4 8.4l-6.4 3.3l-2.5 -2.4l-20.5 5.2l-11.4 -3.9l-50.6 44.7l-12.3 10l-57.6 36.3l-35.9 -15.4l-41.1 81.4z" />
  </g>
  <g data-id="073">
    <path d="m0 3126.3l0 0l0.1 9.6l0 3.8l0 1l0 1.1l1.3 50.6l-0 59.4l336.9 -4.1l281.4 -4.5l-2.5 -72l-9.1 -257.9l110.7 -147.8l6.6 -9.8l-86.3 -100.1l-190.1 -8.1l-0.4 -24.2l-216.7 3.3l-0.9 0l-229.7 3.2l0 0.1l-0.1 0l0.1 20.7l-0.3 24.1l0.1 10.3l0.1 23.1l0 19.5l0.2 16.1l0.1 7.2l0.1 2.1l-0.1 21.4l0.1 105l-0.1 45.3l-0 18.3l-0.2 150.6l-1.4 32.7z" />
  </g>
  <g data-id="075">
    <path d="m6589.4 4103.3l0 0l17.6 60.5l72.4 244.6l57.2 191.1l37.2 125.5l7.1 4l224.5 -93.4l84.3 -15.2l135 -22.6l268.2 -136.9l-81.3 -87.5l-57.2 -25.7l-357.2 -292.2l-163.3 -133.6l-244.6 181.5z" />
  </g>
  <g data-id="077">
    <path d="m8001.3 3609.9l0 0l-62.9 36l260.8 220l110.7 92.5l57.4 48.1l106.7 89.4l85 69.9l78.3 64.3l127.5 -156.7l130.7 -110.7l-120.6 -98.7l21.5 -35.6l1.1 -9.3l21.5 -33.2l-16 -40.1l-9.3 -2.9l-63.9 -76.9l-0.5 -12.9l-25.5 12.1l-35.8 17l-26.3 12.6l-23.8 -49.8l-6.6 -7.6l-28.2 -47.7l-23.7 -76.5l-49.2 34.3l-38.4 -31.3l-18.5 -0.7l-18.2 -34l-12.1 -84.5l-147.1 39.2l-7.9 9l-15.7 13.2l-84.5 56.3l-34.1 13.3l-51.6 49.9l-80.6 32.4z" />
  </g>
  <g data-id="079">
    <path d="m7203.5 2433.4l0 0l3.5 13.4l69.1 167.6l83.5 -15.2l-4 202.2l40.2 227l176.9 61.4l131.3 47l52.8 -25l19.5 -10.1l86.6 -40.7l150.1 -70.4l48.8 -35.7l30.7 -1.9l119.7 -57.5l-18.1 -53.4l-23.8 0.3l-23.7 -42.4l0.3 -35.3l7.9 -43.8l-3.2 -18.3l59.7 -22.6l68.6 -64.5l43.2 -6.2l30.3 26.6l26.1 -1.7l57.8 -87.4l-27.2 -25.3l-46.2 -8.3l-9.9 -33.5l-6.3 -153.6l-42.6 -14.1l-2.7 -54.1l-25.1 -35.7l11.6 -80.9l-93.1 -20.5l-92.2 -68.4l-59.8 -37.2l-7.8 -75.1l-23 10.9l-45 14.6l-224.2 72.2l-35.1 1.8l-389.6 14.6l-52.2 1.9l-46.4 151.5l-16.8 225.8z" />
  </g>
  <g data-id="081">
    <path d="m5009.3 1676.8l0 0l2 145.9l1.5 85.9l21.6 -0.6l15.3 45.1l19.4 20.4l38.7 71.8l3.2 30.2l23.1 21.9l46.9 11.3l39.8 34.9l7.1 54.9l26.5 22l19.3 38.5l27 12.8l52.1 66.4l49.2 45.6l35.5 9.6l-0.2 20.4l49.5 2.2l52 54.3l-4.3 19.7l36.1 31.8l184.8 236.4l34.6 -0.3l51.9 -0.4l95.6 -37.6l137.5 -5.3l30.4 -138.7l110 22.2l11.1 -26.7l0.6 -2.7l2 -4.1l5 -4.9l1.7 -2.6l5.6 -2.2l158.3 -40.4l96 8.5l92.4 40.7l65.2 -3.5l82.6 -4.7l248.7 -268.7l-173 -40l-75.5 -25.6l-269.2 -231.3l-110.2 -422.4l-104.6 -15.8l-6.2 14.6l-75.2 21.8l-7.5 22.8l-28.3 4.1l-34.4 30.2l4.8 10.9l-1095.9 20.9z" />
  </g>
  <g data-id="083">
    <path d="m2694.9 1014.9l0 0l-12.6 474.8l240.5 -1.8l245.8 -0.9l53.1 -7.2l271.2 -3.9l1 63.2l109.3 0.4l-0.3 -33.6l370.3 -3l-5.5 -877.8l-110.8 1.5l-63.3 -1l-494.9 -1.1l-262.6 4.1l-214.4 1.3l-75.6 -1.3l0.5 104.2l2.4 210.1l2.4 48.1l-10 23l-46.5 1z" />
  </g>
  <g data-id="085">
    <path d="m0.9 2137.9l0 0l0 1.4l0.1 1.1l0 1.4l-0 0l0.1 4.3l0 0.1l0 2.7l0 5.6l0 0l0.2 48.2l0.6 15.8l-0.3 84.9l0 0.3l0.2 6.8l0.3 37.2l-0.3 37.2l0 30.1l0.1 23.1l-0.5 86.6l0 58.5l-0.1 27.6l-0 0.1l0.3 18.7l0 0.1l229.7 -3.2l0.9 -0l216.7 -3.3l0.4 24.2l190.1 8.1l86.3 100.1l50.6 -68.4l115.9 -164l0 -726.8l-71.3 3.1l-144 19l-239.8 -7l-284.7 -8l-23.6 -12.2l-127.5 7.5l0.1 60.5l0.2 50l0.1 12.1l0 26.3l0 17.2l-0.1 -0l-0.4 85.8l0.1 15.8l-0.1 25.1l-0.2 46.4z" />
  </g>
  <g data-id="087">
    <path d="m4469.8 4274.7l0 0l44.8 16.5l54.9 59.6l29.8 -9.3l33.8 19.1l14.1 -18.1l83.4 -0.3l16.5 -22.1l9.2 -13.8l42.7 -53.8l130.1 -134.8l57.5 -50.8l-0.1 -52.5l66 -53.3l71.3 -48.9l59.9 -50.3l-0.4 -62.7l49.3 -34.5l172.8 -96.9l137.8 -58.8l-113.5 -18.3l-4.3 -239.3l-0.8 -84.2l-12.1 -5.6l-10.3 1.5l-117.1 50.5l-265.7 142.2l-101.6 37l-49.3 34.3l8.1 30.1l-42.1 26l-4.5 56.7l36.2 -6.3l-118.2 114l-61.9 45.7l-58.1 74.9l-34.7 65.2l43.4 112.7l-16 16.4l-150.9 212.2z" />
  </g>
  <g data-id="089">
    <path d="m8353.2 2636l0 0l6.5 21.4l43.7 8.3l13.2 34.2l62.1 60.7l24.9 41.1l113.1 141.7l-134.8 81.5l97.1 166l52.3 91.8l22.7 52.1l53 -8l45.5 -17.7l65 -14.6l99.3 -52.4l63.3 -23.5l68.3 -63.9l5.3 -34.6l39.3 -41.8l152.6 -70.5l14.9 -21.4l-3.6 -4l-11.1 2.7l-3.9 -0.7l-4.1 -3.9l-3 -6.4l0 -6.9l4.2 -7.5l1.7 -5.4l1 -5.3l-0.2 -9.1l1.8 -5l5.8 -6.5l6.5 -4.9l22 -13.7l2.5 -4.4l14.5 -5.9l8.8 -4.9l9 -10.1l0.9 -2.8l14.9 -5.2l10.5 -0.7l7.7 -3.4l45.4 -26.5l5.8 -3.4l10.6 -11.4l6.5 -3.8l8.4 -3.2l0.6 -2.1l-1.6 -8.5l1.2 -4.6l11.2 -14.8l3.3 -5.7l2.4 -6.2l1 -6.8l4.6 -11.5l2.5 -2.8l8.2 -0.1l11.6 -14.6l8.2 -5.9l9.5 -4l11.6 -1.9l19.9 -13.9l4.5 -5.7l2.8 -12.8l-0.6 -2.1l-0.6 -2.2l-3.4 -1.7l-4.5 1.2l-5.6 3.4l-10.3 9.6l-5.9 3l-6 0.7l-4.7 -0.8l-1.4 -1.3l0.2 -7.2l-62.2 28.3l-19.3 -20.3l-64.5 -119.1l-136.7 -21l31 -155.6l14.9 -76.3l-304.7 22.5l-88.9 6.9l-12.7 2.1l-238.4 13.1l-20.3 30.3l-43.9 -10.9l-95.3 139l-3.6 3.6l-57.8 87.4l-26.1 1.7z" />
  </g>
  <g data-id="091">
    <path d="m8272.4 4627.5l0 0l14.2 12.7l21.4 -14.3l15.3 -5.8l37.3 12.4l29.9 15l26.7 22.3l18.9 -33.8l48.1 96l27.8 -26.7l16.7 46.6l13.4 25.8l18.2 14.7l3.6 42.3l41.4 -21.6l-11.2 50.7l26.7 22.7l55 3.7l-1.8 11.8l-15.4 17.3l16.9 19.8l9.5 34.2l61.9 -21.1l47.2 81.2l54.1 -10.2l19.9 28.3l35.9 59.1l13.4 23.1l15.9 -8l31.9 51.4l10.4 15.5l17.6 29.1l21.9 -12.8l21 -15.3l2.5 -1.5l21.7 -13.3l16.9 -10.3l28.9 -17.7l3.8 -2.7l1.9 -1.6l2.6 -2.4l-0.9 -0.7l-20.2 -20.2l-33.8 -24.6l-37.5 -38.8l-8.2 -10.9l21 -25.1l37.2 -46.5l11.8 -15.4l60.3 45.2l20.6 -26.7l42.6 32.1l20.9 15.6l48.8 37.2l2.8 1.9l0.1 -0.2l11.8 -12.9l25.7 -26.5l-16 -12.1l11 -13.7l13.5 -17.4l19.2 -21.6l22.2 -30l6.9 -6.3l8.6 -7.9l49.3 -45l9.4 -12.8l-24.4 -19.1l-71.9 -55l-61.2 -47.7l-53 -41.8l-23.9 -19.1l-107 -85.4l-49.8 -38.2l-156.8 -122.4l-8.1 -6.5l-23.8 -19.1l-84.1 -66.3l-14 -11l-60.5 -48.9l-65.9 -50.1l-78.3 -64.3l-51.6 84l-16.3 26.6l-119.3 191.6l-99.4 159.4z" />
  </g>
  <g data-id="093">
    <path d="m6406.1 2989.4l0 0l-16 40.3l101.9 -11.9l126 -30.8l15.3 14.4l29.8 -6.2l57.7 50.4l76.2 8.1l-19 52.6l28 72.7l17.2 1.9l23.6 0.1l13.5 -100.1l-15.9 -30.7l29.1 -13.5l-4.3 -29.2l-86.2 -92.8l5.1 -78.2l-13.1 -44.5l-84.1 -22.7l-3.2 -59.6l-34.2 -149.7l-65.2 3.5l-92.4 -40.7l-3.8 182l-70.1 191.1l-15.6 93.6z" />
  </g>
  <g data-id="095">
    <path d="m8423 3396.7l0 0l12.1 84.5l18.2 34l18.5 0.7l38.4 31.3l49.2 -34.3l23.7 76.5l28.2 47.7l6.6 7.6l23.8 49.8l26.3 -12.6l35.8 -17l25.5 -12.1l0.5 12.9l63.9 76.9l9.3 2.9l16 40.1l-21.5 33.2l-1.1 9.3l-21.5 35.6l120.6 98.7l6.9 -4.5l52.3 -44.1l72.9 -54.5l102.5 -58.4l-2.9 -6.6l-4.9 -7.1l-0.8 -5.8l1.9 -2.6l4.8 -2.2l12.3 -1.4l2.4 -3.5l1.2 -7.1l-5 -27.1l-6.4 -13.1l-9 -10.1l0 -5.2l6.5 -13.3l10 -15.4l5 -4.2l8.9 -4.9l9 -15l1.2 -7.1l-1.3 -4.6l-5.1 -3.7l-6.8 -1.4l-10.4 1.3l-10.9 -4.3l-6.9 -9.5l-5.1 -13.6l8.9 -31.2l7.4 -19.7l2.7 -3.6l0.4 -0.6l5.5 -4.7l5.2 -13.6l6.6 -13.5l0.7 -3.6l-1.2 -4.8l-5.1 -8.2l-16.4 -18.6l-1.7 -3.8l-0.9 -6.7l0.6 -3.5l8.1 -9.5l15 -8l6.9 -5.8l2.7 -5.3l1.1 -10.2l2.1 -9.5l3.9 -7.3l3 -3.7l3.5 -1.6l10.1 0.2l24.5 8.2l17.6 2.7l8.1 -0.4l1.9 -0.8l3.2 -4.1l9.6 -18.3l4.8 -6.2l10.7 -5.9l9.4 -1.2l0 -0l4.8 -2.7l13.2 -19.7l1.1 -7.3l-1 -5.6l0.8 -4.7l3.4 -6.1l3.7 -4.4l18.5 -22.1l2.5 -5.7l0.2 -7.6l-2.9 -5.2l-16.2 -15.9l-3.5 -5.1l-0.4 -12.1l2.5 -5.5l8.3 -4.8l24.5 -1.6l5.4 2.1l4.7 3.5l8.3 -0.5l4.7 -5.9l-1.8 -8.9l15.3 -18.7l7.1 -5.4l0.8 -7.6l-1.1 -4.9l-3.7 -7.8l-20.2 -27.3l-14.5 -14.7l-3.5 -8l1.3 -10.1l-1.6 -15.6l-1.5 -6.4l-4 -9.1l-27.9 -23.3l-3.8 -5.7l-13.4 -21.8l-1.1 -7.7l-9.5 -19.2l-10.4 -11.2l-2 -7.6l-1.7 -12l-0.7 -2.2l-0.6 -3.2l1.5 -5.6l-1.1 -4.1l-0.1 -0.2l-14.9 21.4l-152.6 70.5l-39.3 41.8l-5.3 34.6l-68.3 63.9l-63.3 23.5l-99.3 52.4l-65 14.6l-45.5 17.7l-53 8l-177.2 34.7l-54 27.2z" />
  </g>
  <g data-id="097">
    <path d="m6140.5 3733.9l0 0l-16.6 23.1l52.7 55.8l55.3 -32.3l35.4 -21.4l44 4.1l49.7 -18.9l2.2 -18.6l8.5 -10.8l18.5 14.2l76.1 -28.5l82.5 -11.2l1.5 -11.7l237.2 -103.2l159.3 -77.6l153.3 -73.2l-50.6 -131.7l-156.9 20.1l-11.6 -49.4l16.6 -16.5l-13 -64.8l-38.2 -0.3l-23.6 -0.1l-17.2 -1.9l-28 -72.7l19 -52.6l-76.2 -8.1l-57.7 -50.4l-29.8 6.2l-15.3 -14.4l-126 30.8l-101.9 11.9l16 -40.3l15.6 -93.6l70.1 -191.1l3.8 -182l-96 -8.5l-158.3 40.4l-5.6 2.2l-1.7 2.6l-5 4.9l-2 4.1l-0.6 2.7l-11.1 26.7l11 86l54.6 66.6l-11.4 118.9l-7.4 57.6l-23 58.3l52.8 127l47.3 51.5l40.5 18.5l2.6 8.9l-24.5 70.3l-62.3 84.8l-16.1 63.8l2.2 71.3l-6.5 87l-32.4 55.3l-40.8 29.6l-61.6 80.8z" />
  </g>
  <g data-id="099">
    <path d="m4885 4519.6l0 0l26.3 43.7l-19.4 41.3l37.8 -9.1l-7.3 66.8l17.3 19.3l40.7 -33.6l23.1 9.9l-20.5 66.6l15.8 29.6l61.5 -60.1l23.6 -15.9l32.5 0.3l108.5 -79l80.6 -72.8l55.1 -38l58.9 -23.8l0.4 16.6l-84.8 72.2l-23.8 37.4l35.5 2.2l29.7 -12.9l76.3 -54.4l30.7 -11.4l-13.2 36.9l31.3 17.7l72.3 -24.5l112.1 -18.9l33 -1.4l152.8 -28.6l140 -9.7l69.5 -12.6l101.6 -40.8l-38.7 -65.3l-121.2 -2.2l-21.6 -17.5l-13.5 -56.2l26.6 -25.1l-5.4 -51.4l22.4 -3.7l39.1 -45.8l33.1 -19.5l20.1 -29.9l-6.3 -48.7l-27.5 -15.7l-27.5 -42.4l5.3 -61.1l-18 -54.4l60.1 -61.3l13.8 -75.7l-126.7 54l-32 0.1l-105.2 18.8l-136.3 30.9l26.1 51.3l-53 16.3l-57 31.2l-99.3 45.2l-329.5 199.7l-100.3 69.1l13.5 52.3l-57.3 19.5l-57.9 43.3l-63 58l-61.1 73.2z" />
  </g>
  <g data-id="101">
    <path d="m8993.3 5221.5l0 0l-6.5 4.5l8.4 12.1l47.5 15.1l-6.5 30.4l7.4 12l7.2 3.8l14 10.6l-12.1 8.8l-8.6 37.3l-7.5 27.9l-9.4 21.6l-14 15.2l0.8 12.9l41.1 21.9l42.4 -8.3l8.3 23.2l0.8 -0.5l25.9 -24.8l10.3 -8.3l10.8 -2.9l14.6 -0.4l40.8 -1.2l9.1 -3.4l0.2 -0.2l5 -4.8l3.8 -4l0.4 -0.6l11.3 -17.3l4.5 -8.9l5 -25.9l-3.8 -11.6l-4.6 -10.3l-0.2 -0.6l-3.6 -12.1l-1.5 -11.6l-0.4 -3.1l0.7 -29.5l2.9 -12.6l0.9 -3.7l5.8 -9.6l5.5 -5.4l5.2 -3.8l8 -5.8l19 -11l1 -0.4l23.7 -8.8l8.1 -1.7l0.7 -0.1l28.5 -12.1l20.6 -24.6l1.7 -2l13.4 -26.9l7.2 -9.9l0.6 -0.4l12.6 -8.8l16.1 -5.7l24.8 -8.8l7.5 -4l5.5 -4l30.9 -31.8l10.3 -12.1l15.8 -13.4l0.7 -0.4l-18.1 -17.8l23.7 -38.4l26.2 -47.1l-15.8 -53l-49.1 -30.6l-7.4 10l-29.5 -22.8l-9.4 12.8l-49.3 45l-8.6 7.9l-6.9 6.3l-22.2 30l-19.2 21.6l-13.5 17.4l-11 13.7l16 12.1l-25.7 26.5l-11.8 12.9l-0.1 0.2l-2.8 -1.9l-48.8 -37.2l-20.9 -15.6l-42.6 -32.1l-20.6 26.7l-60.3 -45.2l-11.8 15.4l-37.2 46.5l-21 25.1l8.2 10.9l37.5 38.8l33.8 24.6l20.2 20.2l0.9 0.7l-2.6 2.4l-1.9 1.6l-3.8 2.7l-28.9 17.7l-16.9 10.3l-21.7 13.3l-2.5 1.5l-21 15.3l-21.9 12.8z" />
  </g>
  <g data-id="103">
    <path d="m8882 2334.9l0 0l-30.6 34.8l88.9 -6.9l304.7 -22.5l-14.9 76.3l-31 155.6l136.7 21l64.5 119.1l19.3 20.3l62.2 -28.3l16.3 -36.3l4 -5l11.9 -6.6l6.2 -1.2l5.2 0.5l3.4 -1.3l28.1 -21.2l1 -2l-0.7 -4.2l4.5 -6.3l23.9 -9.9l13.7 -10.8l30.7 -39.9l6 -13l1 -5.6l2.5 -5.3l17.6 -16.9l12.5 -16.5l6.3 -15.2l0.4 -6.8l7.3 -18.4l11.6 -23.3l11.8 -19.8l1.3 -3.7l0.5 -3.3l-2.6 -4.1l-10.3 -10.4l-1 -2.1l2.1 -9.9l7.1 -12.5l0.6 -9l7.8 -16.9l2 -2.6l2.3 -0.9l9.7 -1.6l3.5 -4.9l1.8 -3.7l1.5 -7.1l-2.5 -8l0.3 -3.4l8.9 -18l4.1 -12.5l0.6 -1.9l7.4 -8.7l6.9 -13.9l14 -15.2l10.6 -5.3l6.3 -4.6l8.9 -11.4l24.5 -17.1l1 -2.3l-0.7 -5.6l-5.9 -10.1l1.3 -4.3l5 -4.7l5.2 -1.9l12.9 -2.2l11.5 -0.2l5.7 -1.7l8.4 -7.9l5.5 -6.9l5.4 -20l7.5 -10.6l4.7 -2.7l30.2 -0.9l9 1.2l16.2 -3.2l21.3 -12.2l7 -3l6.6 -1.2l9.7 -6.6l-2.5 0.2l9.1 -6.9l2.2 -2.8l0.4 -5.2l-2.8 -8l-6.6 -7.1l-14.3 -10.7l-8.9 -8.7l-3.3 -7.3l-5.2 -17.6l-4.4 -6.3l-8.4 -4.8l-16.3 -2.2l-5.6 -3l-4.2 -3.3l-4.2 -6.4l-4.1 -9l-1.3 -6.3l1.1 -8.1l4.1 -4.7l6.8 -21.1l-0.3 -7.1l-1.1 -3.8l-2 -4l-3 -3.2l-4.2 -1.2l-5 1.2l-11.8 6.1l-6.3 6.5l-0.6 0.4l-6.7 3.9l-8.8 -0.7l-11.9 -6l-4.4 -0.3l-8.2 2.9l-10.8 6.2l-10.4 1.7l-5.9 -2.3l-2.6 -3l-7.1 -16.7l-0.9 -3.1l-0.5 -7.8l-1.5 -4.7l-7.6 -9.2l-3.3 -1.7l-7.8 -0.3l-10.1 5.7l-8.4 8.5l-5.4 11.6l-4.4 2.4l-3.6 0.4l-6.8 -0.7l-3.9 -1.9l-14.8 -13.6l-5.2 -6l-9.6 -6.8l-7.5 -2.9l-10.5 1l-20.6 8.4l-20.5 4.8l-9 -1.5l-3.6 -2.4l-0.6 -5l2.5 -9l10 -11.8l-0.1 -2.9l-2.1 -6.4l-3 -3.7l-5.1 -2.8l-15.7 -3.7l-4.6 -3l-2.1 -8l-0.1 -8l-1.8 -9.9l-5.7 -7.3l-8.2 -3.3l-11.7 -0.2l-4.7 -2.7l-9.9 -9.1l-15.8 -2.8l-6.6 0.8l-4.2 5.9l-14.3 8.9l-3.2 0.8l-19.9 -2.4l-20.2 -5.7l-2.9 -2.2l-2.9 -6.4l-1 -4.9l0.6 -7.4l4.8 -16.8l0.5 -4.6l-0.4 -5.7l-3.4 -12.9l-2.2 -3l-3.4 -1.9l-10.7 -0l-9.8 3.1l-6.1 -1.6l-0.9 -2.7l-0 -4.2l1.9 -7.9l2.8 -7.1l0 -3.8l-0.7 -3.1l-4.4 -7.8l-9.8 -10.1l-9.2 -6.7l-2.9 -1.6l-11 -2.4l-2 -2l-0.9 -2.5l-0.1 -10.8l3.4 -3.8l8.9 -2.9l2.5 -3.5l-0.3 -5.2l-3.8 -12.1l-15.1 -26.9l-3.2 -2.5l-6.8 -1l-6.6 -4.5l-6 -6l-5.8 -12.4l-4.9 -18.7l-10.5 -10.4l-12.3 -7l-6.3 -9l-5.6 -10.8l-4.7 -5.2l-170.2 290.1l-32.1 38.6l2.4 35.3l-55 42.8l-41.2 6.4l-15.7 20.4l-6.1 58.1l-18.2 33.4l-55.6 11.6l-18.7 -16.9l-25 19.7l-21.5 -23.1l-24.8 19.3l24 51.6l43.7 31.3l-4.2 42.8l-36.1 98.1l-22.5 10.1l10.9 24.8z" />
  </g>
  <g data-id="105">
    <path d="m3967.6 625l0 0l5.5 877.8l262.4 327l105 1.5l670.7 -8.6l-2 -145.9l-7.2 -424.1l-3.7 -204.7l-7.6 -422.8l-240 1.7l-125 0.5l-15.8 0.1l-283.8 -0.5l-57.4 -1.5l-0.4 -0.1l-160.5 -2.4l-140.4 1.9z" />
  </g>
  <g data-id="107">
    <path d="m6550.5 3677.7l0 0l-1.5 11.7l213.6 174.9l71.5 57.6l163.3 133.6l37 0.8l84.7 -31.5l51.6 -13l142.5 -3.9l62.8 -26.2l82 -14.1l28.3 -23.2l84.4 -38.3l45.1 -8.8l24.4 -30.7l12.5 0.1l67.7 13.1l10.9 -8.8l32.6 -140.1l174.5 -84.9l62.9 -36l80.6 -32.4l51.6 -49.9l34.1 -13.3l-172.5 -143.4l-21.4 -18.6l-26.1 -21.1l-13.1 -14.8l-172.7 -198l-5.1 -6.5l-52.8 25l-131.3 -47l-176.9 -61.4l-131.7 150.1l-24.9 118.8l-13.8 66.6l-125.2 59.6l-153.3 73.2l-159.3 77.6l-237.2 103.2z" />
  </g>
  <g data-id="109">
    <path d="m5425.5 3351.5l0 0l4.3 239.3l113.5 18.3l235.7 37.4l70.4 -32.7l27.2 34.9l56.9 -8.4l42.7 6.6l2 38.4l44.6 0l19.6 54.6l54 -25.7l35.5 -6.9l8.7 26.7l61.6 -80.8l40.8 -29.6l32.4 -55.3l6.5 -87l-2.2 -71.3l16.1 -63.8l62.3 -84.8l24.5 -70.3l-2.6 -8.9l1.1 7.8l-44.5 -21.4l-141.4 7.2l-58.4 -7.2l-118.8 43.7l-23.3 25.6l-46.5 -27l-37.8 2.4l-95.2 33l-329.4 83.2l-60 22.1z" />
  </g>
  <g data-id="111">
    <path d="m1923 5392.3l0 0l-32.3 104.7l61.1 37.8l1.2 22.3l26.7 14.1l-5.4 42.6l20.7 44.6l-40 -19.2l-19.9 27l22.3 20.3l-36.4 29.7l9.9 27.4l-27.3 18.5l29.7 5.1l0.3 25.1l576.2 -3.2l18.8 -0.1l196.2 0.2l4.8 -0l206 -0.4l70.8 -161.5l16.8 -62.7l-10.2 -522.4l19.2 -40.1l20.9 12l107.9 -317.8l31.8 -71.3l-309.7 -4.2l-15.5 -0.2l-2.6 -2.5l-6.1 0.6l-5.1 5.2l-21.7 -12.3l-27.6 9.6l-19.6 -60.2l-13.3 -8.2l-36 -7.1l-4.9 -13.4l-8.3 -1.7l-211.5 -0.3l-40.5 61.1l-35.5 80l-44.5 49.9l0.5 34l-29.7 11.5l4.5 37.2l-35.3 5.5l-3.3 44.5l-37.8 69.9l-43.8 -20.3l-27.3 46.3l-50.3 21.9l-37.9 85.1l-26.7 22.6l-63 106.6l-29.1 52.2l-88.1 154z" />
  </g>
  <g data-id="113">
    <path d="m6416.5 1574.9l0 0l-59.9 -7.6l110.2 422.4l269.2 231.3l75.5 25.6l173 40l68 -74.8l167.7 -4.1l46.4 -151.5l94.3 -308l13.7 -69.1l-958.2 -104.1z" />
  </g>
  <g data-id="115">
    <path d="m7527.3 626.6l0 0l-24.6 0.1l40.3 599.7l11.7 199.2l1.6 19.4l45.4 -3.1l523.6 4.3l24.9 -1.3l82.4 2.6l116.1 0.2l313.7 1.8l11.7 -0.4l-35.6 -823.2l-1 0l-118.9 0.4l-98.2 0.3l-226.2 2.5l-53.4 -0.5l-166.9 -1.7l-150.5 -0.4l-37.5 -0.1l-4.9 0l-132.1 0.3l-78.5 0.2l-30.6 -0.2l-12.9 0z" />
  </g>
  <g data-id="117">
    <path d="m4990.9 625.3l0 0l7.6 422.8l3.7 204.7l7.2 424.1l1095.9 -20.9l-4.8 -10.9l34.4 -30.2l28.3 -4.1l7.5 -22.8l75.2 -21.8l6.2 -14.6l-6.8 -53.7l-34.1 -400l-1.2 -34.2l-47.6 -443.3l-17.2 0l-9.4 0.2l-39.6 0.7l-0.1 0l-71.7 1l-0.2 -0.1l-96.1 0.9l-104.7 2.5l-569.2 -1.4l-83.6 -0.2l-179.6 1.3z" />
  </g>
  <g data-id="119">
    <path d="m5412.5 3261.7l0 0l12.1 5.6l0.8 84.2l60 -22.1l329.4 -83.2l95.2 -33l37.8 -2.4l46.5 27l23.3 -25.6l118.8 -43.7l58.4 7.2l141.4 -7.2l44.5 21.4l-1.1 -7.8l-40.5 -18.5l-47.3 -51.5l-52.8 -127l23 -58.3l7.4 -57.6l11.4 -118.9l-54.6 -66.6l-11 -86l-110 -22.2l-30.4 138.7l-137.5 5.3l-95.6 37.6l-51.9 0.4l-0.1 55.7l-102.7 117.4l-129 188.5l-145.7 142.4z" />
  </g>
  <g data-id="121">
    <path d="m892.1 1796.4l0 0l0 726.8l195.9 -1.4l326.8 -0.9l-3.9 -26.8l46.5 3.4l2.1 -36.4l33 -42.9l-1.3 -81.6l30 0.3l9.1 -53.8l39.4 0.3l0.8 -101.4l107.5 1.1l0.1 -34.1l108.2 0.5l0.9 -116l-0.6 -122.7l-74.5 -1l16 -56.5l0.4 -365.1l-172.9 1.6l0 15.6l-266.7 -8.9l-103.8 -2.5l-1.2 45.9l-34.1 10.1l-1 24.3l-46.5 29.4l-27.1 0.2l-52.3 83.9l-34.5 0.2l-25.4 54.9l-39.6 1.4l-31.4 52.3z" />
  </g>
  <g data-id="123">
    <path d="m1557.1 969.8l0 0l-1.4 519.9l172.9 -1.6l31.9 -0.4l921.7 3l-0 -1.1l12.6 -474.8l46.5 -1l10 -23l-2.4 -48.1l-2.4 -210.1l-0.5 -104.2l-110.1 -1.9l-134.1 -0.7l-201.2 -0.5l-122.1 1.5l-382 1.3l-66.1 -0.4l-47.1 -0.3l-22.2 -0.3l-102 -0.7l-2.1 343.3z" />
  </g>
  <g data-id="125">
    <path d="m1.2 5254.1l0 0l0 0.5l31.3 18.8l44 3.8l38.6 -47.8l96.6 -10l29.1 -36.3l120.7 -26.3l13.2 -32.9l48.3 16.3l-0.2 24.4l57 -15.9l83.9 16.9l26.3 -13.9l31.9 19.2l47.7 25l74.4 -4.3l46.8 -42.6l34.1 28.8l-16.1 40.2l86.2 -10.7l7.6 -57.8l38 -10.5l28.8 41.5l34.5 -9.7l34.7 -47.9l32.3 -2.3l26.5 -13.9l5 -19.1l-25 -28.2l21.7 -30.5l-30.1 -37.7l58.4 9.4l40.2 -35.8l-23.1 -54.9l-42.6 -24l-47.2 -61.6l19.9 -24.1l50 7.1l23.6 -34.8l-34.7 -45.2l-44.4 6.6l-108.2 -48.6l-18.7 -36.2l96.5 -45.6l-205.1 -79.8l-69 -26.5l-72.4 -28.1l-113.4 -44.8l-7.8 -7.6l-82.1 -89.5l-216.4 -230.2l-1.7 -0.1l-269.5 0.5l0 8.3l2.2 25.3l-0.5 141.6l-0 1.7l0 69.6l-1.8 58.2l-0 25.5l-0 355.1l0 0.1l-0.1 29.3l0.2 143.2l0.1 39.8l-0.1 2.4l-0.2 135.8l-0.1 118.7l-0 2.1z" />
  </g>
  <g data-id="127">
    <path d="m8616.7 2361.1l0 0l-16.4 23.7l238.4 -13.1l12.7 -2.1l30.6 -34.8l-10.9 -24.8l22.5 -10.1l36.1 -98.1l4.2 -42.8l-43.7 -31.3l-24 -51.6l24.8 -19.3l21.5 23.1l25 -19.7l18.7 16.9l55.6 -11.6l18.2 -33.4l6.1 -58.1l15.7 -20.4l41.2 -6.4l55 -42.8l-2.4 -35.3l32.1 -38.6l170.2 -290.1l-8.4 -9.2l-0 -5l5.1 -3.7l6.6 -1.5l8.7 1.2l5.1 -2.7l-0.4 -3.5l-2.9 -7.3l0.2 -2.2l2.5 -2.4l10.7 -2.7l3.4 1.1l6 5l1.9 0.4l3.1 -0.9l2.2 -4.1l1.1 -13l-8 -19.2l-0.8 -4.1l-1.1 -18.5l1 -33.2l-2.1 -14.3l-7 -12.9l-5.6 -1.7l-2 -1.7l-1.5 -6.1l1 -4.8l10.5 -9.2l2.3 -3.5l0.1 -5.7l-2.6 -13.7l-6.9 -16.8l-5.3 -9.2l-12.8 -13.1l-2.7 -6.3l0.3 -4.6l3.5 -5.6l9.4 -0.8l15.3 3.5l2.6 -1.3l1.4 -3.1l0.3 -4.1l-6.6 -27.7l-2.2 -18.4l3.4 -22l-1.1 -18l-12.6 -27.8l-7.1 -4.7l-6.3 -1.4l-7 -3.5l-2.7 -3.9l-2.9 -2.3l-6.1 0.7l-22.9 6.5l-4.5 -0l-9.5 -1.7l-4.3 -4.9l-1.4 -3.3l-0.5 -3.5l1.1 -10.6l0.8 -7.3l2.1 -10.3l1.5 -3.3l14.7 -19.4l7.8 -2.6l11.9 2.4l5.4 -2.3l2.4 -2.4l4.2 -8.5l3.8 -14.1l0.7 -8.2l-0.7 -4.2l-3.8 -3.1l-6.3 -0.1l-3 0.7l-10.2 7.3l-6.3 0.1l-7 -4.1l-11.1 -11.4l-22.8 -10.2l-2.6 -6.6l-0.5 -3.7l0.3 -6.9l2.7 -13.8l0.1 -10.1l-1.8 -6.6l-2.1 -2.4l-5.5 -2.7l-15.6 2.1l-5.3 -0.6l-15.9 -16l-6.1 0.8l-4.5 1.9l-11.1 5.4l-6.2 0.5l-8.6 -3.5l-4.5 -4l-3.5 -5.2l-4.3 -12.4l1.2 -17.9l-1.9 -7.5l-2.4 -3l-6.9 -2.4l-3.5 0.7l-4.3 5.6l-2.3 9.8l-3 8l-2.9 3.9l-2.3 1.3l-3 -0.4l-3.3 -2.7l-2.3 -2.7l-2.1 -6l-5 -5.1l-5.9 -3.5l-10.6 -2.4l-9.8 1.4l-9 4.1l-8.8 15.9l-6.2 7.1l-3.4 -0.1l-10.1 -4.6l-5.1 -4.9l-7.2 -9.5l-4.1 -3.3l-3.8 0.6l-8.1 8.2l-5.4 2.9l-11.4 -0.3l-4.6 -3.8l-3.9 -5.6l-1.5 -4.4l-0.2 -6.1l4 -5.8l5.2 -4.2l1.5 -4.7l-5.2 -15.4l-4.1 -3.1l-8.2 -2l-6 -3.2l-2.2 -13.4l-0.3 -9.1l8.6 -11.2l0.4 -11.7l-3.7 -9.9l-9.7 -18.9l-2 -6.1l0.1 -10.3l-1.3 -16l-3.2 -12.3l-17.6 -9.2l-2.7 -5l-1.4 -4.7l0.6 -12.4l-3.9 -4.9l-8.3 0.2l-3.1 1.5l-2 2.4l0.6 9l-0.7 1.2l-3.9 0.4l-11 -1.8l-4.2 -2.7l-9.2 -9.3l-3.2 -15.3l-4 -1.9l-11.9 -15.1l-11.1 -4.8l-6.4 -1.1l-4.7 -4.8l-0.4 -3.3l8 -23.3l0.3 -5.3l-6 -14l-9.3 -5.9l-11.9 -4.1l-10.4 -5.4l-73.1 0.1l-51 0.1l-7.3 0l-70.2 -0.1l-10.3 0.3l35.6 823.2l10.3 247.5l10.9 247.3l16.1 382.6l-51.8 33.9l-43.2 0.7z" />
  </g>
  <g data-id="129">
    <path d="m1074.7 4800.1l0 0l-19.9 24.1l47.2 61.6l6.4 -5.2l159.6 2.6l62 -0.5l37.8 34.4l62.1 -2.4l45.9 37.2l34.9 32.4l29.2 -26.2l49.6 28l24.1 -52.6l66.2 -19.1l8.4 -26.8l51.9 -32.7l36.8 -6.7l61.8 29.8l45.7 46.8l46.9 41.5l65.3 37.1l24.7 70.5l81.6 5.5l26.7 -22.6l37.9 -85.1l50.3 -21.9l27.3 -46.3l43.8 20.3l37.8 -69.9l3.3 -44.5l35.3 -5.5l-4.5 -37.2l29.7 -11.5l-0.5 -34l44.5 -49.9l35.5 -80l40.5 -61.1l1.5 -9.8l30.7 -39.4l107.6 -197.9l-0.3 -2.4l-24.4 -36l-47.6 -18.7l-28.1 7.9l9.1 24l-52.8 56.9l-42 -19.6l-23.7 42.5l-42.6 0.3l-9.5 -36.7l17.4 -16.6l-53 -7.6l-13.5 -31.9l-63.3 -7l-94.1 -38.8l-43.4 30.8l0.4 -46.6l-49.2 8.7l-0 -37.3l1.6 -20.8l-43 18.6l-22.4 -39l-12.8 34.2l-28 -11.8l-4.8 -40.1l-14.9 54.1l-37.3 -7.4l-19.2 -38.7l-29.1 2.2l-12.1 -35.4l-17.7 9.3l-9.9 9.1l-1.4 0.1l-7.2 -3.4l-3.5 -4.4l-0.4 -2.8l2.5 -7.9l-12.6 -65.4l16.7 -27.4l-24.2 -8.9l-56.3 19.7l-25.4 -39.1l-24.6 0.7l-59.8 -49.1l-8.3 -66.1l26.3 -23.7l-47.8 5.6l-10.2 -12.7l-8.9 -22.2l3.8 -23.1l-7.3 -4.9l-28.3 8.5l-1.4 -1l-1.7 -5.3l-0.3 -6.1l1.5 -6.5l0.6 -7.8l-1 -5.6l-2.6 -5l-3.6 -3.6l-6.3 -2.7l-2.4 0.1l-34.2 -47.1l-51.8 -32.7l-41.6 23.3l6 61.1l-40.1 51.2l-15.1 27.4l-47.9 20.3l-25 13.6l-14.6 20.7l-3.6 31.7l14.4 42.6l0.9 2.4l49.4 1.2l24.3 16.4l35.5 37.4l-0.7 81.1l-4.5 140.4l-39.5 32.6l9.7 8.2l-71.6 40.5l-18 70.8l-23.1 139.4l21.8 22l-33.6 14l11.5 45.8l-30.9 63.1l41.6 12.3l-152.3 68l34.7 45.2l-23.6 34.8l-50 -7.1z" />
  </g>
  <g data-id="131">
    <path d="m7266.8 2056.2l0 0l52.2 -1.9l389.6 -14.6l35.1 -1.8l224.2 -72.2l45 -14.6l23 -10.9l104.6 -175.3l-49.4 -45.2l48.1 -116l77.7 -141.3l15.9 -14.9l-82.4 -2.6l-24.9 1.3l-523.6 -4.3l-45.4 3.1l-1.6 -19.4l-142.1 9.2l-38 244.3l-13.7 69.1l-94.3 308z" />
  </g>
  <g data-id="133">
    <path d="m5801.5 5013.3l0 0l76.8 35.9l41.4 56.1l85.5 33.4l90 176.3l-1.3 42.5l-28.7 50.6l49.2 81.8l-3.6 2.8l-36.7 17.9l-20.7 29.8l-1.5 1.4l-4 1.5l-5.8 3.2l-2.2 0.4l-2.7 6.3l1.4 242l14.2 0.1l93.1 -2l66.9 0.7l12.8 -0l15.5 -0.1l123.3 -0.6l4.8 0.2l33.1 -0.5l0.3 -0l122.3 -0.7l6.3 -0l24.7 -0l150.7 -0.2l68.9 -0.1l0.2 -0l89.5 -0.2l43.2 -0l85.1 0.1l40.2 0.1l0.2 -0.2l24.6 0.1l15 0.1l25.7 -0.2l0.9 0l241.2 -0l-1.5 -19.3l-60.9 -101.1l-67.9 -76.8l-38.7 -26.9l-21.4 -55.9l-46.6 -44.8l-3.2 -46.4l-20.4 -55.7l-98.3 -48.1l-49.3 -34.7l-30.2 -58.8l-5.3 -46.1l-23.2 -35.3l-0.4 -2.1l-7.7 -9.5l-30.5 -75.4l-62.9 12.7l-125.7 -27.8l-33.1 -11.6l-57.2 -88l-30.7 -30.2l-11.2 -9.2l-26.9 -11.8l-32.7 -116.1l-12.7 -5.4l-63.1 -46.3l-9.5 -1.1l-29 -2.4l-28.2 -44.7l-33.5 -10.6l-13.7 23.2l-42.5 0.2l-20.7 -18.7l-14.3 44.2l-29.6 17.2l35.9 13.8l-25.3 30.6l29.9 25.5l-39.8 10l-83.9 -7.9l11.7 17.4l-71 19.3l-27.9 1.3l-88.4 82.7l-97.8 92z" />
  </g>
</svg>
