<?xml version="1.0" encoding="UTF-8"?><!DOCTYPE svg PUBLIC '-//W3C//DTD SVG 1.1//EN' 'http://www.w3.org/Graphics/SVG/1.1/DTD/svg11.dtd'><svg viewBox="0 0 1000 758.993" xmlns="http://www.w3.org/2000/svg"><g data-id="02013"><path d="m490.2 652.6l0.2 1l1.3 -0.3l0.6 -1.2l-1.3 -1l-0.6 1.2z"/><path d="m487.8 651.1l2.2 -0.8l-0.2 -2.2l-1.9 -0.5l0.6 1.3l-0.4 1.1l-0.3 1.2z"/><path d="m485.6 654.7l0 1.5l1.2 0.5l-0.9 -2z"/><path d="m484.3 643.7l0.2 2l0.1 1.7l1.3 0.6l1 -0.1l-0.4 -1.1l0.5 -1.4l0.2 -1.3l-0.2 -1l-0.2 -1.4l-1.1 1.2l-0.3 1.3l-1.1 -0.5z"/><path d="m481.5 654.9l1.3 0.2l-1.4 -0.1z"/><path d="m481 647.8l0.3 1.4l0.6 -1.5l1.4 -1l0 -1l-1.8 1.2l-0.5 1z"/><path d="m476.4 639.4l1.1 0.8l-0.3 -1.1z"/><path d="m474 651.6l-0.1 1l0.5 1l0.8 -1.1l1.2 -2.5l1.1 -0.6l1.8 -1.8l0 -1l1.1 -0.1l1 -1.2l0.1 -1l-1.2 1l-0.2 -2.1l0.9 -1l-0.5 -1.1l-1.1 1.9l-0.9 1.2l-1.2 -0.7l0.6 1.5l0.1 1.1l-1 -0.8l-1.9 0.9l0.2 2l1.4 0l-0.6 1.2l-0.8 1l-0.8 1.3z"/><path d="m472.4 636.5l0.5 1l2 0l1 0.4l0.2 -2.2l-1.3 -0.2l-2 0.4z"/><path d="m463.5 639.8l0.3 3.4l0.6 1.1l-0.2 1.5l1.1 -1.7l1.4 -1.1l0.2 1.2l2.7 1.3l0.5 -1.1l-0.5 -2.8l-0.9 -1.4l0.8 -1.2l0.4 1.1l1 0.5l1.1 0.2l0.8 1l0.6 -1.6l-0.2 -1.1l-1.5 -0.2l-2 -0.5l-0.9 -1l-0.8 1.3l-0.5 -1.1l-1.2 -0.6l-1.2 0.4l-1 1.5z"/><path d="m453.6 642.9l0.3 1.2l1.1 0.7l0.2 -1.8l-1.2 -0.1z"/><path d="m449 642.9l1.1 0.7l1.2 -0.3l0.6 -1.3l-1.5 0.3l-1.2 0.2z"/><path d="m445.3 646l1 -0.1l0.8 1.2l1 0.7l1 -1l1.4 0.2l-1 -1.4l-1.2 -0.7l-1.9 -0.7l-1.1 0.5l-0.3 1.4z"/><path d="m436.1 651.6l0.2 1.3l1.3 1.5l1.2 -0.2l0.8 -1.2l0.1 -2.5l-1.5 -0.7l-1.9 1.7z"/><path d="m429.1 666l0.4 1.8l1.5 -0.4l1.9 1l1.1 -0.2l1 0.8l1 -0.7l1.2 -0.6l-1.1 -0.7l-1.7 0l-1.2 -1l-1.5 -0.4l-1.3 -0.5l-1 -0.4l-0.6 1.3z"/><path d="m423.3 636.4l0.5 1l0.2 -1z"/><path d="m393.9 673.3l1.8 -0.1l-1.1 -0.5z"/><path d="m392.4 662.2l0.1 1.4l1.2 2.4l0.5 1l1 0.5l2.6 0.3l1 -0.4l1.1 -0.3l1.1 -0.2l1.8 -1.4l0.3 -1.8l1.4 -1.5l1.3 -0.8l1.6 -0.6l2.1 -0.3l1.8 -0.1l1 -0.1l1 0l1.3 0.2l1.5 0.5l1.8 -1.4l1.2 0l0.2 -1.1l0.3 -1.5l1.1 0.2l0.8 1.2l1 0.6l1.5 -0.5l0.9 1l-5.55112e-17 -1.3l-0.8 -1.7l-1.3 0.2l-1.1 0.1l-1.4 -1.3l1.3 -1.2l1.5 -0.6l1.1 -1.2l1.5 -1.2l0.2 -1.3l-1.7 -1.4l-1.2 -0.4l0 -1.2l0.8 -1l1.5 -0.4l1.3 0.9l0.6 1.1l-0.1 1.3l1 1.5l1.2 0.7l1.3 -0.2l1.1 -0.8l0.5 -1.1l1.2 0.3l0.3 -2.1l-0.3 -1.3l0.7 -1l-0.5 -1.3l-1.3 -0.7l-0.3 -1.1l0.6 -1.3l1 -0.8l1.9 1.6l0.2 1.2l0.3 1.6l1.3 1.2l-1.7 -2.77556e-17l0.4 1.5l1.3 0.9l2 -0.2l1.3 0.3l0.5 -1.1l-0.6 -1.1l0.8 -1.6l0.8 1l1.3 1.5l1.6 -1l-0.1 -1.5l-1.4 -2.1l1.2 -0.3l1.1 0.8l0.6 -1.1l0.5 -1.1l2.3 -3l0.6 -1l-0.2 -3.3l1.5 -2.9l1.6 -0.7l1.9 0l1 0.6l-0.2 1l-1.8 2.5l-0.1 1.8l-0.3 1.3l-0.2 1.1l1.1 -0.2l1.4 -0.5l1.5 1l4.7 -2.3l0.7 -1.1l0.6 -1.3l1.4 -0.6l0.5 1.1l0.8 1.1l2.3 -0.1l0.4 -1l-1.5 -1l-0.3 -1l1.4 0.3l0.9 -1l1.1 1.6l0.3 1.4l1.2 -0.9l0.3 -1.7l1 -1.3l-0.7 -1.1l1.4 -0.3l1.3 0.3l1.6 -0.5l1 -0.7l1.3 -1.2l0.2 -1.1l0.5 -1.1l1.6 -0.3l1.1 0.6l0.4 -1.3l2.4 -0.7l1.2 0.5l-0.5 2.3l-0.2 2.1l0.8 1.1l-0.5 1l-1 0l-0.1 1.3l2.1 -0.8l1.1 -1.3l-0.1 -7.7l-5.3 0l0 -2.7l1.1 0l0 -10.8l-1.6 0l0 -5.4l5.4 0l0 -2.7l5.4 0l0 -2.7l3.9 0l0 -2.7l2.7 0l0 -1.6l-1 -1.2l-1.1 0.9l-1.3 1l-1.1 0.7l-1.9 1.3l-1.6 0.9l-1.5 0.9l-1.5 1.2l-1.8 0.9l-3.1 1.5l-2.1 2.4l-1.1 1l-1.4 1l-1.1 0.3l-1.1 1.4l-1.2 1.2l-1.1 0.8l-0.8 1.3l-0.5 1.8l-0.7 2.1l-0.5 1.3l-1.5 2.5l0.6 1.4l0.9 1.1l1.1 0.5l1.7 1.3l1.4 0.5l-1.4 1l0.8 1l-1.3 0.2l-1.6 -0.4l-0.7 -1l-0.3 -1.3l-1.1 0l-1.3 0.2l-1 -0.1l-1.2 -0.7l0.2 2.9l1.1 1l0.5 1l-1.2 -0.7l-1.3 0.3l-2.2 -2.4l-0.4 -1.3l0.3 -1.3l1.2 -0.4l1 0.1l-0.2 -1.4l-0.8 -1.1l1.2 -1.1l-1.4 -0.3l-2 0.1l-1.6 0.4l-1.8 0.1l-1.1 0.5l-2.3 0.9l-1.2 0.3l-2.3 0.5l-2.2 1.1l-1.1 0.2l-1.4 1l-0.7 1l-1.7 1.1l-1 0.2l-1.7 1.7l-1.3 0.6l-1.6 2l-1.2 1.7l-1.9 2.4l-1.2 1.3l0.7 1.1l0.4 1.2l-0.7 1l-1 5.55112e-17l-0.8 -1l-0.6 1.2l-0.8 1l-1.4 0.2l-0.5 1l-1 0.2l0.8 1.3l-0.8 1.3l-1.3 0.4l-1.3 0l-1.3 -0.4l-1.7 0.6l-1.2 0.6l-0.9 1.1l0.3 1.3l0.4 1.1l-0.1 1.4l0.9 1.3l-1.1 0.2l-0.4 1.2l-1.3 1.4l-0.1 -1.2l-0.3 -1.4l-0.4 -1l-1.5 -1.4l-0.1 -1l-2 0.1l-1.6 -0.1l-1.3 0.1l-1 0.2l-1.1 0.5l-1.1 1l-1.1 0.6l-1 -0.2l-1.5 1.2l-1.5 0.9l-1 0.1l-1.2 -1l-1 0.3l-1.1 1l-0.2 1.1l-1.2 2.9l-1.4 2.8l-2 0.9l-1.5 0.7z"/><path d="m387.7 676.4l3.1 1l1.5 -0.3l0.7 -1.1l-1 -0.6l-1.4 0.4l-1.6 -0.2l-1 0.4z"/><path d="m383.1 677.2l2 0.1l1.4 1l0.3 -1.8l-1 0l-2 0.3z"/><path d="m381.5 678.2l1.1 0.3l-0.1 -1l-1.1 0.7z"/><path d="m379.6 672l1.1 0.5l-0.2 1l0.1 2l1 0.7l1.7 -2.1l1 -0.1l0.4 -1l-1.3 0l-1.3 -0.8l0.7 -1l-1.3 -0.2l-1.6 0.6z"/><path d="m372.4 675.2l0 1.2l0.9 1.8l1 -0.6l1.1 -0.1l1.9 -0.2l2.5 -0.6l0.2 -1.1l-1.2 -0.5l-1 -0.7l-1.3 0.1l-0.1 -1l-1.4 -0.6l-1 0.2l-1.4 1.1z"/><path d="m370.7 679.9l1.4 0.8l0.2 -1l-1.2 -0.3z"/></g><g data-id="02016"><path d="m122 737.7l-0.1 1.3l0.8 1.2l1.6 0.7l2.2 -1.1l0.4 -1l-1.8 -2.1l-1 0l-1.1 0.9l-1 0.2z"/><path d="m107.1 747.4l1.4 1.3l1.1 0.5l1.1 -0.1l2.1 1.1l1.1 1.2l0.8 1.2l2.5 1.7l0.9 1l1.8 -0.4l1.5 0.1l-0.9 -1l-1.2 -0.1l-1.2 0l-1.4 -1.6l-1.5 -0.6l-1.7 -1.9l-1.4 -0.9l-1 -1.1l-1.1 -0.3l-1.1 0l-1 -0.8z"/><path d="m104 737.8l0.3 1.3l1.3 0.8l0.9 -1.1l-2 -1.2z"/><path d="m100.3 742l1.2 1.4l1 0.3l-0.2 -1.1l-1.8 -0.6z"/><path d="m97.9 736.2l0.2 1l1.2 0.2l0.1 -1.1l-1.1 -0.5z"/><path d="m82.4 740.1l1.2 1.2l1 0.4l0.3 -1.7l1 -0.7l1.3 0.2l1.3 0.2l0.9 -1l-1.2 -0.1l0.5 -1.2l1 -1.7l0.6 -1.4l-1 -0.7l-1 1l-0.7 1.8l-0.1 1.2l-1.4 0.3l-1.2 0.5l-1 1.2l-1 0.3z"/><path d="m59.3 726.7l0.5 1l1.1 -0.6l-1.1 -0.4z"/><path d="m27.9 716.3l1.5 0.9l-1.1 -1.1z"/><path d="m25.9 715.8l1.2 0.6l-1.2 -0.6z"/><path d="m24.4 715.1l1 0.7l-1.1 -0.7z"/><path d="m15.5 725.7l1.7 0.4l1 0.1l1.3 -0.4l0.9 1.2l1.5 0.1l-0.1 -1.2l-0.2 -1l0.2 -1.3l1.1 -0.9l-1.7 -0.2l-1 0.2l-1.2 0.8l-0.5 1l-1.3 -0.2l-1.1 0.6z"/><path d="m0 710.7l1.5 0.4l1.6 -0.3l2 1.4l0.1 1.5l0.8 1l1.6 0.8l1.6 -1l2.1 0.4l1.2 -1.5l1.7 0.1l2.2 0l-2 -2.8l-1.1 -0.5l-1.1 -0.5l-1.2 -1l-6.3 -0.5l-1.8 0.2l-3.1 2.2z"/><path d="m342 699.5l3.6 1.9l0.6 -1l1.3 0.2l1.3 -0.5l1.4 -1.3l1.4 0.2l1.9 -1.9l1.2 -0.8l1 0.1l1.3 -0.1l1.2 -0.4l1.1 -0.1l1 0.3l1 -0.1l0.1 -1.3l1.3 -0.1l0.6 -1.2l1.1 -1.1l1.1 -0.7l-0.7 -1.2l1.5 -0.7l3.2 -1.1l1.4 -1.3l1.6 -1.5l0.3 -1.8l-1.9 0.2l-1.8 1.3l-2.1 0.8l-2.1 1.4l-0.1 -1l2 -1.4l0.8 -1l1.2 -1.1l1.2 -0.2l0.7 -1l-0.9 -1.9l-1 0.6l-0.6 -1l-1.4 1.2l0 1l-1.3 -0.1l-1 1.3l-1.1 -0.4l-0.1 -1.8l0.1 -1.3l-1 -0.5l-1.1 0l-1.4 0.7l-1.1 0.1l-2.7 1.3l-1.9 2.4l0 1.2l1.1 1.2l1 1l1 -0.6l1.8 0.9l1.2 0.4l-0.8 1.3l-1.1 -0.9l-1.8 -0.1l-1 0.6l0.4 1.3l-1.3 0.5l-0.5 2.4l0.6 1l-1.5 -0.3l0.1 1l-1.4 0.3l-0.7 1.1l-1.1 0.4l-1.5 -0.3l-2.8 1.6l-1.2 -0.1l-1.7 1.5l-1.1 0.6z"/><path d="m321.1 712.6l-0.8 1.1l1.1 -0.4l2.3 -1.3l1.7 -1.2l1.1 -0.8l2 -1.3l1.3 -1l1.6 -0.7l0.4 -1.1l1 -1.1l0.5 -1.7l0.8 -1.2l1.2 -0.8l1.2 -0.3l2.1 -1.1l1.4 -1.2l1.4 -0.7l0.7 -1.2l-0.2 -1l1.1 -1.3l-1.5 -1l-1.3 -0.6l-3 -0.1l-1 0.3l-1.7 1.4l-1.6 1.7l0 1.2l-0.4 1.2l0.8 1l0.4 1.4l-1.2 0.1l-1.4 -0.2l-1.9 -0.3l-2.8 2.7l-0.6 1l-0.1 1l0.6 1.1l-1.7 1.5l0 1.4l-1.7 0.9l0 1.5l-1.4 0.4z"/><path d="m317.4 715.2l1.2 0.2l0.8 -1l-1.1 0.1l-1 0.7z"/><path d="m308.8 709.3l1 0.6l0.6 -1.1l-0.3 -1.1l-1.1 0.3l-0.4 1.4z"/><path d="m308.3 599.5l1.9 1.2l0.5 1.1l1.3 0.4l1.6 -1.4l-1.1 -0.8l-1 0.1l-1.2 -0.1l-1.5 -0.3z"/><path d="m308.6 706.3z"/><path d="m304.6 713l0.2 1.2l1.2 0.3l1.5 -0.7l1.5 0.8l1.3 -1l0.3 -1.1l-1.5 -0.8l-1.2 0.5l-1.5 0.7l-1.3 -0.1z"/><path d="m302.7 711.5l1.1 1.3l0.9 -1l-1.6 -0.9z"/><path d="m301.4 716.6l1.2 0.1l1 -0.8l-1.3 -1.2l-1 1.9z"/><path d="m297.3 581.9l1.1 0.5l1 0.1l2.3 -0.9l0.3 -1.3l-1.6 0.3l-1.2 -0.1l-1.4 0.5l-0.6 1.1z"/><path d="m290.2 720.1l-0.1 1.2l1.1 0.3l1.4 -1.4l1 0.1l1.2 -1.3l0 -1l-1.2 -0.6l-1.7 0.5l-1.6 1.3l-0.2 1z"/><path d="m284.7 720.6z"/><path d="m281.9 723.2l0.2 1.3l1.2 -0.1l0.7 -1.4l-1 -1l-1 1z"/><path d="m259.2 728.7l0.1 1.2l1.5 0.1l2 -0.6l1.8 -1.2l0 -1.1l-1.7 -1l-1.2 0.1l-1.6 1l-0.9 1.4z"/><path d="m234.3 733.4l0.6 1l1.4 0.9l1.8 0.6l2.1 -0.4l1.7 0.1l1.1 0.6l1.2 0.1l1 -0.5l1.9 -0.4l1.9 -0.1l1.7 -0.4l1 0.2l1.5 -0.4l-1.1 -0.3l-1.5 -0.1l-1.1 -0.3l-1.1 0.2l-2.1 0.1l-2 -0.6l-1.2 -0.3l-1 -0.5l-1.1 0l-1.2 0.5l-1.4 0.7l-1.5 -0.5l-1.6 -0.1l-1.1 -0.1z"/><path d="m212.1 736.4l1.9 0.7l1 -0.2l1.1 0.3l1.4 -0.2l2.2 -1l1.8 0.3l1.2 0.6l1.7 -0.6l1 -0.2l1.7 -0.3l1.3 -0.9l1.3 -0.8l1.4 0.5l1.4 -0.8l0.1 -1.3l-1 -0.6l0.1 -1.3l1.3 0.1l1.2 -0.5l0.8 -1.4l-0.6 -1.5l-0.9 -1.2l-1.5 -0.7l-2.9 1.1l0 1.4l-1.7 0l0.5 1.1l1 0.3l1.7 0.1l-0.8 1.7l-1.1 0.1l-1.6 -0.2l0.8 1l-1.1 0.1l-1.1 0.1l-1.2 0.8l-1 0.9l-1 -0.6l-1.2 1l-1 -0.3l-1.1 -0.4l-1 1l-1.2 0.2l-1 1.1l-1.2 -0.6l-3 0.9z"/><path d="m209 737.7l1.5 0.3l-1 -0.5z"/><path d="m208.4 732l1 0.4z"/><path d="m204.9 738.1l0.3 1l1.3 -0.6l1.2 0l-1.5 -0.6l-1.2 0.1z"/><path d="m201.2 737.6l1.3 0.5l1 1.2l1 0.1l-0.6 -1.1l-0.3 -1l-1.7 0z"/><path d="m197 734.9l0.2 1.5l0.4 2.2l1.1 0.5l1.1 0l0.3 -1.4l0 -1.1l0.1 -1.5l-0.8 -1l-1.6 -0.2l-0.9 1.1z"/><path d="m196.3 742.1l0.8 1.1l1.1 -0.3l1.2 -0.4l1.2 -1l0.5 -1.1l-1 -0.6l-1.6 0.6l-1.6 0.2l-0.5 1.6z"/><path d="m183.2 747.6l0.7 1l0.9 -1.2l0.7 -1.4l0.6 1.2l1.3 0.2l0.7 -1.4l1 0.7l1.2 -1l1.1 -0.3l0.8 -1.3l2.2 0.4l1.2 -1.2l0.1 -1.3l-0.3 -1.3l-2.1 -0.2l-1.9 0.6l-1.2 0.1l-0.9 -1.2l1.1 -0.8l0.2 -2.1l-1.2 0.3l-1.3 0.4l-1.4 0l-0.7 1l0.8 1.6l-0.5 1.4l-1.1 0l-1 0.6l0.8 1.9l-1.1 1l-0.9 1.2z"/><path d="m175 739.6l1 0.4z"/><path d="m170.8 745.4l0.6 1.2l0.7 -1l1.1 0l1.4 -0.2l1.3 -0.7l1 0.1l0.7 1l2.9 -0.3l0.2 -1.5l-0.1 -1.5l0.9 -1.1l0.6 -1.2l-1 -1.1l-1 -0.2l-0.8 1.7l0 1.1l-0.7 1.3l-3.9 1.3l-1.3 0.8l-1 -0.1l-1.7 0.3z"/><path d="m161.8 740.5l0.9 1.1l1.5 0.9l1.6 0.7l0.8 1.2l-1.3 1l-1.4 0.2l0.3 1.1l1.3 1l1 -0.5l0.2 1l0.4 -1l0.5 -1.1l1.2 0.2l-2.77556e-17 -1l0.8 -1.4l1.1 -1l1.5 -0.4l0.6 -1l-1.3 0.3l-1.2 0.3l-1.6 0.1l-1.2 -0.7l-0.5 -1.7l-1.9 0l-1.1 -0.2l-1.3 0.5z"/><path d="m153.9 748.2l1.1 0.6l1 -0.2l-1 -0.3l-1 0z"/><path d="m150.8 749.1l1 1l1.1 0l-1.6 -0.9z"/><path d="m150.6 742.9l0.9 1.3l1.2 -0.3l0 -1.4l-1.1 -0.9l-1 1.2z"/><path d="m148.5 754.5l0 1.9l1.4 -0.8l-0.3 -1.2l-1.1 0.1z"/><path d="m145.9 757.2l0 1.6l1.1 -0.6l-0.3 -1.4z"/></g><g data-id="02020"><path d="m650.9 446.3l1.1 1l1.6 1.4l1 0.8l1.2 1.3l3.3 2.2l1.5 0l3.2 1.9l2.3 -0.4l1.8 1.1l1.4 1.9l-0.5 1.2l0 3.1l5.1 0l0.1 -3.1l0 -1l4.6 0l0 -8l0 -3.4l0.2 -9.4l-12.5 0l0 -1l-1 0l0 -1.1l-2.1 0l-1.3 0.6l-1.1 1.5l-1.5 0.8l-2.2 0.8l-0.5 1.9l-1.4 0.5l-1.3 2.6l-0.7 1.3l-1.5 0.3l-1 1.4z"/><path d="m647.9 447.3l1.5 -0.9l-1.1 -0.3l-0.3 1.2z"/></g><g data-id="02050"><path d="m384.2 468.2l0.8 1.5l2.4 0.6l3.2 -1.7l1.2 0.1l0.5 1.2l-0.6 1l-1.3 0.6l-1 0.4l1.2 2.3l1.6 1.6l1.1 0.8l2.2 0.8l1.4 -0.1l0.8 1l0.6 1.2l1.1 1l1.1 0.8l0.5 1.6l1.3 2.1l1.5 0.8l1.9 1l1 1.2l-1.1 1.2l-0.1 1.3l0.7 1.8l0.8 1l3.2 1.1l2.8 0.3l1.2 0l2.5 -0.2l3 -0.5l3.8 -1l1.5 -0.6l1.5 -0.9l1.2 -0.8l1.2 -0.6l1.4 -0.7l0.7 -1l1.6 -1.11022e-16l1 -0.2l1 -0.4l1 -2l-0.3 -1.1l0 -1.3l0.1 -1l0.7 -1.1l1.4 0.3l0.6 1.3l1.1 1.5l0.8 1l0.4 1.2l0.6 1.3l1.1 1.1l0 1.2l0.3 1.4l1.3 1.8l1.8 3l0.4 1.5l0.2 1.7l0.9 1.9l1.1 1.3l1 2.3l-1.5 0.8l-0.4 1.1l-1.1 1.3l-1.3 0.7l-0.1 1l-1.3 2.2l-0.3 1.2l1.2 3.5l1.8 2.8l1 0.6l0.7 2.7l0 1l0 1.3l0.5 2.5l-0.2 1.7l-1.6 2.2l-0.3 1.4l-1.1 0.4l-1 -1.1l-3.1 1.3l1.8 0.9l3.4 -0.6l1.8 1.3l0.2 1.6l1.2 -0.4l1 -1.3l1.3 -0.3l3.1 -1.8l0 -1.4l0.5 -1.1l-0.4 -2.9l5.1 0l0.7 -5.8l2.9 0l0 -2.9l0.9 -5.9l2.9 0l0 -2.9l2.9 0l0 -3l1 0l0 -5.9l3 0l0 -6l4 0l0 -6l3 0l0 -6l1.1 0l0 -3l3 0l0 -6.1l3 0l0 -3.1l1.2 0l0 -6.1l3 0l0 -3.1l3 0l0 -3.1l1.3 0l0 -3.1l4.3 0l14.2 0l0 3.1l3.1 0l0 -3.1l3.1 0l0 -3.1l6.2 0l0 3.1l7 0l13.3 0l1.6 0l16.7 0l12 0l14.2 0l0 -9.3l-0.8 -9.4l8.4 0l0 -14.3l0 -17.6l-1.2 0l0 3.2l-5.6 0l0 3.2l-6.4 0l0 3.2l-11.3 0l-11.3 0l-14 0l-14.1 0l-6.7 0l0 -3.2l-3.3 0l-6.6 0l-15.6 0l0 3.2l-12.7 0l0 3.2l-5 0l-17 0l0.6 2l1.1 1.3l2 0.5l1.2 -0.4l1.1 0.8l-1.4 0.6l-1.5 -0.1l-1.9 0.7l-2.4 1.5l-1.5 0.3l-1.6 0.5l-1.6 0.9l-1.5 1l-1.3 1.2l-1 1.4l-3.3 1l-3 0.7l-1.5 0.9l-1.1 0.4l-1.1 0l-1.3 0.5l-2.8 1.4l-1 0l-1.6 -0.1l-1.2 -0.6l-1.7 -0.5l-1.9 -0.3l-1.2 0.7l-1.3 -0.2l0.1 -1.4l-4.3 0.2l-2.2 1.4l-1.2 0.5l-2.6 0.2l-1.3 0.8l-2.7 0.1l-1.1 -0.7l-1.3 -0.3l-0.3 1.4l-0.4 1.4l-1.1 0.3l0.2 1.3l-1.5 1l-1.4 -0.5l-1.6 -0.6l-1.5 -0.1l-1 0.1l-1 -0.2l-0.3 1.8l0.3 1.4l0.2 1.5l1 -0.1l0.1 1.3l-1.3 0.7l-1.4 1.2l-0.8 1.2l-1.5 -0.9l-0.5 1.1l0.3 1.4l1.2 0.3l-0.1 1.9l-1.1 0.6l-1.1 0.7l-1 0.3l-1.4 1l-2 0.3l-1.3 -0.1l-0.2 -1.3l-1 0.1l-1 0.2l-1.1 -0.5l-1 0.4l-1.5 0.6l-1.1 -0.4l-2.2 1.5l1.6 0.6l1 -1l1.2 -0.2l-1.6 2.3l-0.5 1.3l1.5 0.5l-0.7 1.2l-1.1 0.3l0.3 1l1 1l-1.1 1.3l-2.2 1.2l-0.5 1l-1.6 1.6l-1.4 -0.1l-1.2 0.8z"/><path d="m349.1 480.2l0.7 1.2l0.6 1.1l0.5 1.6l0.1 1.2l1.2 0.2l1.7 1.7l1.2 0.9l1.3 0.1l1.4 0.7l1.4 0.8l1.5 1.4l1 0.5l1.3 0.9l1.1 0.5l1.2 0l1.2 -0.2l1.4 0.5l1.6 0.9l1.1 1.3l1.6 0.7l0.3 -1.1l-0.5 -1l1.7 -1.7l1.7 -0.6l1.2 0.5l0.4 -1l1.2 -0.4l1.1 0.5l1.4 -0.6l1.1 -0.9l0 -1l-1 -0.5l-0.4 -1l-0.5 -1.1l-0.6 -1.2l0.9 -1.1l-0.3 -1.6l-0.6 -1.3l0.3 -1.6l0 -1l0.3 -1.4l-1.5 -0.7l-1.1 -0.6l-1.5 -0.2l-1.1 0.8l-1.7 -0.3l-0.3 -1l-0.4 -1.3l-0.1 -1.1l-1.3 0.9l-1.4 0.2l-1.5 1l-1.1 -0.7l-1.3 0.1l-1.1 0.8l-0.1 1.2l-1.4 -0.3l-1.3 0.5l-1.3 1l0 1.2l-0.5 1.4l-1.3 0.3l-1.4 -0.6l-1.4 -0.1l-1.4 -0.2l-1.3 0.1l-1.4 -0.1l-1.3 0.8z"/><path d="m251.5 469.9l1 0.6l1.1 0.3l1.9 2.2l1.1 1.1l0.9 1l1.3 0.7l2.1 0l1.1 0l1 0l1 0.3l0.6 1.1l1.1 -0.5l-1.8 -1.7l-1.5 -1.2l-1.6 0.4l-1.4 -0.4l-2.1 -1.3l-1 -0.6l-0.9 -1l-1.1 -1.1l-0.7 -1.6l0.2 -1l-1.4 0.2l-0.9 1.3l0.1 1z"/><path d="m251 463l-0.4 1.4l1.2 1.3l-0.2 -1.2l-0.1 -1.4z"/></g><path data-id="02060" d="m526.1 534.5l16.3 0.1l0 -9l-11.8 0l-0.1 1.6l-1 1.9l-0.2 1.8l-2.1 2.2l-1.3 1.3z"/><path data-id="02068" d="m600 388.6l1 0.1l13.6 0l4.5 0l0 -2.7l10.8 -5.4l9.6 -4.8l8 -4l12.8 -6.4l7.1 0l14 0l5 0l0 -5.6l15.8 0l2 0l0 -15l0 -15.8l-13.2 0l-1.1 -1l-1.2 -1l-1.1 -0.7l-1.6 -0.8l-10.6 0l-8.3 0l-14.8 -0.6l-13 0l-3.8 5.8l-5.8 8.6l-2.2 0l-1.8 -0.9l0.5 -1l-1.3 -0.4l-2.9 -0.6l-1.1 0l-0.6 1.1l-0.1 1.8l-3.8 0l-0.1 6.8l-3 0l0 6.8l-11.2 0l0 6.8l1.1 0l0 5l3.3 0l0 1.7l3.3 0l0 4.7l-4.4 7.7l-5.5 9.7z"/><g data-id="02070"><path d="m472.9 532l0.5 1.2l0.3 -1.3l-0.6 -1.1l-0.3 1.2z"/><path d="m470.8 532.4l0.9 -1l-0.5 -1.3l-0.3 1.3l-0.2 1z"/><path d="m460.5 527.2l2.8 -1.4l0.8 1.7l1.2 -2.7l1.9 -1.8l2.9 -2.1l2.8 -1.5l1.1 2.6l-1.2 1.4l1.5 1.8l1.4 -0.5l0.1 1.7l1 0.2l1.9 -0.3l1.3 3l1.8 -0.9l-0.1 -1.9l1 0.2l0.4 -2.5l1.4 -0.3l1 0.6l0.2 1l-0.9 1.5l1.1 0.1l1.3 0.5l1.9 2.1l2.6 4.8l1 2.1l1.9 3.7l2.4 1.6l1.1 0.2l1.5 -0.6l1.6 -2.5l-1.1 -2.2l-1 -2.6l-0.6 -2.3l0.6 -1l1 -1.4l-0.3 -1.3l0.4 -2l2.6 -1.5l1.6 -2.9l0.1 4.7l-0.8 1.4l0.9 1.1l1 0.2l1.3 0.9l0.5 1.2l0.2 1.3l0.6 1.1l1.1 0.8l1.6 0.2l1.8 -0.6l3.1 -1.5l1 -0.6l1.4 -0.9l2.9 -1l1.1 -1l2.2 -1.1l1.3 -0.6l1 -0.2l0.3 -8.2l-1.4 0l0 -5.9l2.9 0l0 -2.9l5.9 0l0 -3l1.6 0l0 -3l3 0l0 -3l5.9 0l0 -3l2.9 0l0 -42.5l-13.3 0l-7 0l0 -3.1l-6.2 0l0 3.1l-2.6 0l-0.5 3.1l-3.1 0l0 -3.1l-14.2 0l-4.3 0l0 3.1l-1.3 0l0 3.1l-3 0l0 3.1l-3 0l0 6.1l-1.2 0l0 3.1l-3 0l0 6.1l-3 0l0 3l-1.1 0l0 6l-3 0l0 6l-4 0l0 6l-3 0l0 5.9l-1 0l0 3l-2.9 0l0 2.9l-2.9 0l0 5.9l-0.9 2.9l-2.9 0l0 5.4z"/><path d="m459.6 535.5l0 1.1l2.1 0.1l1.4 -0.9l3.4 -7.8l-2.8 2.1l-1.3 0.2l-2.4 1.5l-0.4 2.2l-0.1 1.5z"/><path d="m454.7 527.6l0 2.9l3.2 -1.7l1.9 -1.2l-5.1 0z"/></g><path data-id="02090" d="m675.6 315.4l1.2 -0.6l2.1 0.8l0.7 1.1l0.3 1.2l1.3 0.8l0.5 1l1.2 0.7l0.2 1.3l0.8 1l1.2 1.3l1 1.4l1.6 0.8l1.1 0.7l1.2 1l1.1 1l13.2 0l5.6 0l1.8 -0.4l1.7 -0.6l1.7 0.1l1.3 -0.8l1 -0.5l0.4 -1.4l0.6 -1.1l1.6 -0.5l1.7 0.1l1.2 -1.4l1.8 -0.4l1.2 -0.7l1.5 0.2l1.3 0.9l1.1 0.2l1.6 -1.1l1.2 -0.6l0.2 -1l1.6 -0.2l1.6 -0.6l1.1 0l1.3 -1l0.9 -1.2l1 -0.7l1.5 0.4l1.1 -0.6l1.1 -0.3l1.4 -0.2l1.5 -0.3l1.6 0.7l2.4 -1.4l0.1 -1.1l1.4 -0.2l1.4 -0.3l1.3 0.1l0.1 -1.2l-0.8 -1.2l0.3 -1.2l1.3 -1l-1 -0.7l-0.3 -1.1l0.2 -1.3l0.4 -1.2l0.4 -1.1l0 -1l1.1 -1.7l-1.1 -0.8l-0.9 -1.5l1 -0.6l1.4 -0.6l0.8 -1l0.2 -1l-1.1 -0.9l-1 0.1l-1.1 -0.1l-1.1 0.2l-1.4 -0.2l-1.7 0.1l-0.6 1.1l-1.1 0.5l-1.1 -0.3l-1 0.3l-1.2 -0.6l-1.1 -0.5l-1 0.2l-1.6 -1l-1 -0.7l-1.1 0.4l-1.1 0.1l-1.2 0.9l-1.4 0.3l-1.2 1l-1.2 0l-1 0.2l-1.2 -0.5l-1.4 0.5l-1.1 0.8l-1 0.2l-0.9 -1l-1.5 -0.2l0.4 -1.2l1.2 -0.9l0.7 -1.1l-0.7 -1.2l-1.2 -0.3l-1.5 -0.7l-1.3 -0.3l-1 -0.2l-1.1 -0.9l-0.8 -1.2l-0.6 -1l-0.5 -1.3l1.2 -1.3l1.1 -0.9l0.4 -1.4l-1.1 -0.1l-1.2 -0.2l-0.8 -1.1l-1.4 -0.2l-1 0.3l-1.1 0.2l-1.1 0.1l-1.2 -0.2l-0.1 1.2l0.1 1.2l-0.6 1l-1.4 0.4l-1 0.7l-1.3 0.7l-1 0.5l-1.3 0.4l-1.1 0.6l-1.2 -0.6l-1.3 0l-1.4 -0.2l-1 0.4l-1.3 0l-1 0.5l-1.4 0.6l-1.3 0.5l-1 0.9l-1.1 0l-1.1 0l-1 0l-1.9 0l-2.3 0l-1.9 0l-10 0l0.2 14.3l0 7.1l0 3.7z"/><g data-id="02100"><path d="m906.6 521.1l0.2 2.5l0 -2.3z"/><path d="m886.7 512.5l1.2 0.9l1.3 0.6l1.2 0.1l1.2 0.4l1 1l1 -0.7l0.8 1l1.2 -0.2l1 0l1.1 0.8l1 0.5l1 0.6l0.5 1.3l0.1 1.4l0.7 1l1.1 0.9l0.7 1.2l-0.7 1.4l1 0.4l-0.6 1.3l-1.4 0.3l-0.8 1.3l-0.3 1.1l-0.3 1l1.1 0.4l1.1 0.5l1.1 0.7l0.4 1.1l1.1 0.7l1 0.7l0.1 1.2l0.7 1.1l0.6 1.2l-0.4 1l-1.2 -0.6l-1.3 0.3l0.4 1l0.1 1.2l0.3 1.1l0.6 1.9l1.1 2.4l1 1.2l1 -0.1l1.2 0.8l1.2 0.3l-0.1 -1.5l0 -1.6l1 0l-0.1 -1.9l-0.5 -2.4l-0.8 -2.4l-0.6 -1.7l-0.4 -1l0.9 -1.2l-1.6 -4l-0.2 -1.6l-0.5 -1l-1.2 -2.6l-0.5 -1.4l-0.4 -1.4l-0.1 -1.1l0.3 -1l0.1 -1.9l-1.1 -0.8l-0.8 -2.5l-1 -1.1l-1.6 -1.6l1.4 0.3l1.4 1l1.1 1.9l0.6 1.4l0.9 1.4l-0.2 -2.2l-0.6 -2l-1.1 -1.1l-0.3 -1.2l-1.7 -1.1l2.6 0.6l0.5 1l1.5 2.4l0.8 2.1l0.5 1.8l0.5 2.7l3.9 0.9l10.9 0.3l-1.3 -0.5l0.4 -2l-1.1 -1.7l-0.6 -1.4l-1.4 0l-2 -2.1l-0.4 -1.9l-4.5 -1.1l-1.2 -2.2l-6 -0.1l-5.9 -13l-4.1 2.3l-4.2 0.8l-2.8 1.4l2 1.4l0 1.2l-1.2 2l-1 0.5l-2 -0.6l0 3.1l0.1 3.1z"/></g><g data-id="02105"><path d="m937 559.6l0.7 2.3l0.9 -1.1l1.2 0.6l1 0.9l1 -0.2l1 0.4l1.1 0.9l1 0.1l1.1 -0.1l1 0.6l1.1 -0.9l1.1 0.5l-2.77556e-17 1.2l0.8 1.3l-0.6 1.1l1 1.1l1 0.2l1.1 0.1l1 0l0 -1.2l-1.7 -2.8l-2 -4.5l-3.6 -5.1l-1.7 -5l-7.3 9.5z"/><path d="m935.4 561.8l0.8 -1.5l-1 1.3z"/><path d="m932.1 577.7l0.1 1.1l1.1 -0.4l0.5 -1l-1.1 -0.1z"/><path d="m913.4 541.7l-0.2 1.2l0.4 2.9l0.6 2.2l0.5 1l1 1.3l0.6 1.5l-0.2 1.3l0.3 1.8l0.5 3.5l0.7 2.3l-0.1 1.6l-0.4 1.9l0.7 1.2l0.4 2.3l1.1 1.7l0.3 1.3l0.9 2.1l1.4 2.1l-1.1 0.1l-0.8 1.5l1 1l-1.5 1.3l-0.6 1.1l0.1 4.1l0.6 2.4l1.8 0.1l2 -1.8l0.7 -1.2l1 -0.4l1.7 -1.5l1.5 -2l0.5 -1.5l-0.3 -1l1.1 0l1.2 0.8l1.7 -1.7l-1 -3.1l1.2 -0.2l-0.5 -1.3l-0.8 -1.3l0 -1.9l-1 -1.5l-2.1 -2.5l-0.5 -1.1l0.7 -1.1l-1 -1.7l-0.8 -1.5l1.2 0l0.6 1.6l1.1 1.1l0.3 1l0 1l0.3 1.3l0.5 1l1.7 2.2l0.4 1.5l0.6 -1l-1.1 -1.7l-0.7 -3.9l-0.4 -1.9l-1.1 -1.9l-0.4 -1.1l-0.9 -1l-0.4 -1.2l-0.9 -1.7l-0.8 -1.1l0.2 -1.4l-0.1 -1l-4.2 1.4l-1 0.6l-1.2 -0.1l-0.2 1.1l-1.4 0.1l-0.8 1.1l-0.9 -1l-1 -1.2l0.2 -2.3l1 -1.9l-0.2 -1.5l-1.3 -1.2l-1.6 -2.5l-1 -1.1z"/><path d="m900 543l0.5 1l2.6 0.2l-1 -1.5l-1.2 -0.2l-1 0.5z"/><path d="m896.7 507.8l1.1 0.8l-1.2 -0.8z"/><path d="m892.7 535.3l1 1.3l-0.1 -1.2z"/><path d="m892.6 545.7l1.1 1l1 -0.5l0 -1.3l-1.5 0.2z"/><path d="m885.4 557.4l1.6 1l0.5 1.4l1.2 0.7l6.3 -0.2l0.8 -1.7l1.4 -3.6l1.4 0.9l1.8 1.4l1.2 0.5l2.1 1.1l1.8 1.2l1.3 1.3l1.3 1l1 0.5l1.6 -0.2l1 -0.4l2.1 -1l-0.7 -1l-1.3 -1.1l-1.2 -0.5l-0.7 -1.1l3 1.2l1.4 -1.2l0.2 -1.8l-0.4 -1.4l-2.4 -1.3l-3.2 -1.1l-2.4 -1.6l-1.6 1.9l-1.1 1.4l0.1 1l-1 1.1l-0.5 -1.7l1.1 -1.5l1.1 -1.3l0.5 -1.6l-1.6 -1.5l-2.1 -0.6l-0.9 -1.2l-1 -0.5l-1.6 1.3l-0.9 1.1l-1.2 0.2l-1.9 -0.7l-1.1 1.4l-1.5 -1.4l0 -1.5l-2 0l0.4 1.4l0.3 1.3l-0.2 1.4l-1 0.6l-0.8 1.1l-1.2 0.2l-0.5 1.8l-0.2 3.5z"/><path d="m861.6 528.2l0.3 1l1 0.8l1.4 1.1l1.9 2l0.1 1.5l1.3 0.7l1.9 1.4l1.5 1.4l2 1.7l1.9 1.2l1.2 1.3l1.6 -0.6l1.3 0.6l1.7 2.1l1.2 1.3l1 0.1l0 1l0.5 1.2l1.4 0.3l0.9 -1.2l-0.1 -1.1l0.1 -1.1l1.6 0.1l1.4 0.3l0.5 -1.1l-0.5 -1.1l1.6 -0.2l-0.2 1.1l3.3 -1.11022e-16l1.2 -1.2l-0.2 -1.2l-0.4 -1.3l-0.4 -1.4l-0.6 -1.1l-1.1 -1.7l-0.4 -3l-1.7 5.55112e-17l-1.1 1.4l-1.3 0.7l0.2 -1l1.3 -1l-1.5 -3.9l-1.3 -1.3l-1.3 -0.8l-1.1 -0.3l-1.2 -0.7l-2.1 -0.3l-1.1 -0.5l0.2 -1.3l1 -0.1l1 0.7l1.3 0l1.6 1.1l1 -1.3l0.1 -1l0.8 1l0.6 3l1.1 0.7l3.2 2.2l1.5 0.1l1 -3.8l-0.3 -2l-0.6 -1.3l1.6 1.2l0.3 3.1l-0.1 1.8l0.6 1.3l0 1l1.7 3.1l-0.3 1.5l0.3 1.1l0.1 1.2l-1.1 0.4l0.5 1.3l0.7 1.2l-0.4 1l1.7 -0.1l1.7 -0.2l1.7 -1l1.2 0.7l1.6 0.4l0.1 -1.3l-0.1 -1.2l-0.4 -1l1.1 -0.4l1 0.4l1 -0.2l-0.8 -1.3l-0.5 -1l-0.1 -1.4l-1.2 -1l-1.1 -0.7l-0.1 -1l-1.2 -0.5l-1 -0.3l-1.2 -0.3l-0.1 -1l0.5 -1.3l0.4 -1.2l1.3 -0.6l1 -0.7l-0.8 -1l0.2 -1.1l0.4 -1l-1.1 -0.9l-1 -1l-0.6 -1.7l0.3 -1.1l-1 -1l-1.2 -0.2l-1 -0.8l-1 -0.5l-1.1 -0.1l-1.2 -0.5l-1.1 0.5l-0.7 -1l-1.3 -0.4l-1.2 -0.1l-1.1 -0.6l-1.2 -0.5l-2.1 3.4l-4.3 0.2l-7.6 5.3l-3.2 3.1l-1.4 0.1l-7.2 3.2z"/></g><g data-id="02110"><path d="m916.7 551l0.7 2.1l0.9 1l0.8 -1.1l1.4 -0.1l0.2 -1.1l1.2 0.1l1 -0.6l4.2 -1.4l-1.5 0l-1 0.4l-1 -0.1l-1.3 -0.8l-1 0.1l-1 -0.8l-1.2 1.1l-1 0.1l-0.4 -1.1l0 -1.1l-1 1.9l0.1 1.4z"/><path d="m912.2 537.9l0.4 1.2l1.4 0.6l1.4 3.3l-0.2 -2l-0.9 -1.7l-1.2 -0.7l-1 -0.6z"/><path d="m909.6 522.7l0.4 4.3l2.2 3.8l-0.1 -1.7l0.5 -1.3l0.9 1.3l0.1 1.8l0.3 1.6l-1.2 0l0.8 2.2l2.6 4l0.3 3.1l1.4 2.8l1.1 2.1l2.2 1l1.7 0l2.5 0.9l1.3 -0.6l1 -0.8l-0.2 -1.1l0 -1.2l1.2 -0.9l0.5 -2.4l0.9 1.6l0.4 1.1l-1.7 1.2l0.1 1.5l-0.6 1.9l0.7 3.9l3.5 4.1l2.4 4.7l1.2 -1.4l8 -10.4l-1.3 -2.2l-1.3 -1.7l-2.3 -4l1.5 -1.4l-3.1 -3.1l-2.6 -3l-2.3 -3.9l-2.3 -1.3l-5 -3.1l-1.4 -2.1l0.4 -1.3l-10.9 -0.1l-4.1 -0.3z"/></g><g data-id="02122"><path d="m638.7 510.5l0.9 1.3l1.2 -1.8l0.7 -1.4l-1 -0.8l-1.2 2z"/><path d="m625.6 516.8l1.4 1.4l0.2 -1l-1.7 -0.5z"/><path d="m622.3 517.3l0.1 1.1l1.2 -0.1l-1.3 -0.9z"/><path d="m619.8 516.2l0.6 1l0.4 -1.3l-1 0.4z"/><path d="m617.5 511.1l0.2 2l1.2 0.2l0.5 1.1l1.9 -0.3l-0.2 1.6l1 0.6l2.1 -0.2l0.4 -1.1l1.2 0l-0.4 -1l1.4 -0.8l0.7 -1.1l0.4 1l0.8 1l1 -0.4l1 0.2l1 0.8l1 -1.3l0.1 -1l0.7 -1.1l0.6 1.1l0.2 1.2l1.1 -2.77556e-17l1 -1.2l-0.4 -1.2l1.3 -1.6l1.1 -0.7l0.5 -1.7l1.6 0.1l1.1 -0.9l0 -1.1l-0.6 -1.2l-0.4 -1.3l1 -1.1l0.4 1.3l0.1 1l0.4 1l1.5 -1.1l0.3 -1.4l1 -1.5l-0.3 2.8l-1.2 3.9l0.2 2.1l1.2 -1.4l0.2 -1.1l1 -0.3l0 -1.1l0.7 -1l1.3 -1.6l1.2 -1.2l1.3 -1.5l1.7 -1.9l0 -1.9l-1.5 -1l-0.2 -1.2l2.2 0.9l1 0.8l0.1 1.3l0.9 1.4l1.1 -1.1l-0.2 -1.4l-0.1 -4.4l0.5 -1.5l-0.4 -1.6l1.1 0.2l0.6 1.7l-0.5 1.8l0.2 1.4l0.2 1.2l0.3 1.2l1.7 0.9l0.2 -1.1l0.2 -1.1l-1.6 -0.9l-0.3 -1.4l1 -1.8l0.6 -1.3l1 0.4l0.5 -1.6l0.4 -1.7l-0.6 -1.6l0 -1.4l1.3 -0.7l0.1 1l0.3 1.5l0.2 1.3l0.2 1.3l-0.6 1.2l-0.1 1.3l-0.9 1.7l2.4 -0.8l0.9 -2.3l0.3 -1.7l0.6 -1.2l1.1 -0.8l1.2 0l-0.8 1.2l-0.7 1l1.4 0.5l1.3 -0.2l1.5 1.2l1.3 -0.6l2 0.3l0.9 1l1.1 -5l0.2 -2.2l0 -10.1l-1.8 0l0 -2.1l0.1 -8.9l-1.5 -0.3l-5.1 0l0 -3.1l-0.9 -1.6l-4.5 -1l-3.9 -1.5l-1.2 0.3l-2.3 -1.4l-1.1 -0.1l-1.9 2.4l-1 1.4l-1.4 -0.9l-1 -0.5l-2.1 -1.7l-0.8 -1.5l-0.5 -1.2l-1 -0.5l-1.7 1l-1.5 0.9l-1.7 0.9l-1.6 1.6l-1.3 1.2l-2.9 2.5l-1.6 0.9l-1.8 0.1l-1 0.9l-1.8 0.6l-0.5 1.3l0.7 1.4l0.3 1.1l0.1 1l0.7 1.2l0.5 1.4l0 1.8l0 1.2l-0.2 1.8l-1.2 0.4l-0.3 1.6l0 1l-0.1 1l-0.3 1.4l-1.5 2.1l-1 1.4l-1.1 1l-1 1.5l-1 1.7l-0.4 2.3l-0.7 1.6l-0.7 1.9l-0.3 1l-0.6 1.2l0.2 1l0.6 1.1l1.5 1.2l1 0.9l3.2 1l1 -1l1 -0.6l2.8 -1.7l1.7 -1.6l1.5 -0.6l1.4 0.2l-1.2 1.2l-1.4 1.6l-0.4 1.1l-1.4 1.1l0.2 1.3l-1.6 0.4l-1.2 0.9l-1.5 0.8l-1.3 0.7l0 1.4l-1.3 0.4l-1.7 0.3l-1.2 0.7l-1 0.3l-1.1 0.6l0.1 1.3l-1.2 1.1l-0.7 1.3z"/><path d="m615.9 475.5l2.1 -0.7l0.3 -2.2l0.7 -1l-0.7 -2l-0.6 1.5l-0.2 2.1l-1.6 1.9z"/><path d="m606.3 481.8l1.4 2.5l-0.2 -2.2l-1.2 -0.3z"/><path d="m590.3 508.5l0.3 2.1l2.3 0.3l1.2 -1.1l-0.8 -1.9l-2.1 0.7z"/><path d="m569.6 513l0 5.9l0.9 11.7l0.9 2.9l5.9 0l8.5 0l0 -2.9l3.1 0l0 -3.9l6.6 0l-0.9 -1.8l-1.1 -1.2l-1.1 -1.1l-1.2 -0.1l-1.6 -1l-1.4 -2.2l-1.5 0.1l-1 0.6l-1.4 -0.3l-1.3 -0.3l-1 0.1l-0.8 1.2l-1 0.4l-0.4 -1.4l0.5 -1l-0.1 -1l-1.1 0l0.5 -1.1l1.4 -2l-0.1 -1.8l0.4 -1.2l1.4 -1l-1.3 -0.6l0.7 -1.5l1.1 0.1l1.3 -0.8l1.1 -0.7l1 0.2l1 -0.3l0.8 -1.2l-0.6 -1.4l-0.5 -1.3l1.9 -0.4l1.2 0.1l0.5 -1.3l-1 -1.2l0.4 -1l2 0.3l0.6 -1.6l0 -1l-0.4 -1.6l0.1 -1l1.4 2.1l-0.1 1.5l-0.3 1l1 1.2l0.6 -1.2l1 0.5l1.6 -0.6l1.8 -1.3l0.4 -1.1l0.6 -2.3l-0.2 -1.2l-1.5 -0.2l-1.6 0.4l-1.3 0.4l0.5 -1.5l1.4 -0.3l1.1 -0.4l1.1 -0.5l1.2 0.4l1.1 -0.1l1.2 0.2l1.1 -0.9l0.9 -1l0.2 -1.2l1.2 -1.4l0.4 -1l0.4 -1.2l-0.5 -1.1l-1.1 -0.7l-0.3 -1.1l-1.1 -0.8l-0.4 -1l0.1 -1.1l1.3 -0.4l2 0.8l1.3 -1.7l1 -0.4l0.6 -1.1l0.2 -1l1 -0.5l1.4 -1.3l-1.2 -0.7l-0.5 -1l-0.1 -1.1l0.4 -1.1l0.8 -1.1l1.2 -1.1l1 -0.4l1.3 -2.5l2.4 -2.5l1.2 -0.5l1 0.3l1.2 0.7l-0.6 -2.8l-0.6 -1.2l-0.3 -1.1l1 -1.3l1 -1.1l1.1 -1.3l1.4 -1.3l1 -0.7l2 0l1.1 -1l1.8 -0.3l1.1 -1.2l0.8 -2l0.9 -1.6l0.9 -2.7l-6.2 0l0 -6.3l-13.9 0l-15.1 0l-8.4 0l0 9.4l0.8 9.3l0 3.1l0.8 12.3l-2.3 0l0 12.2l-2.2 0l0 12l-2.2 0l0 3l-3 0l0 6l-3 0l0 3l-5 0l0 5.9l-5.9 0z"/></g><g data-id="02130"><path d="m978 646.7l0.5 1.4l0.6 -1.1l-1.2 -0.3z"/><path d="m973.7 651l0.3 1.1l2 1.6l1.5 0l1.1 -1.5l-1 -2.1l-2.7 0.3l-1.3 0.6z"/><path d="m971.4 651.1l1 0.3l1.2 -1.3l-1.5 0.4z"/><path d="m967.1 638.4l0.1 2.3l0.6 2.8l0.5 1.1l0.9 1l0.5 -2.2l0.5 -2.5l0.4 -1.4l-1.6 -1.7l-1.3 -1.1l-0.6 1.7z"/><path d="m961.3 630.4l0.3 1.1l1.2 1.2l1 0.2l1.3 1.2l0.9 -1l-0.1 -1.1l-0.3 -1.1l1.1 0.1l1.2 -1.9l0.1 -1.5l0.8 -2.3l0.1 -1l-0.9 -1l1 -0.7l1 -0.5l0.3 1l-0.1 1.6l1 0.3l-1 1.2l-0.4 1.1l0.2 1.7l-0.2 1l1.2 1.3l-1.4 1.3l-1.1 0.2l-0.9 2.6l1.8 1.8l0.8 1.3l1 0.5l1.2 1l1.2 -0.8l0.6 1.5l0.4 1.1l2 -0.5l1.2 -1.7l-0.6 -1.1l1.4 -1.1l0.2 1l-0.7 1.9l-0.9 1.1l0.3 1.6l1.3 0.5l2 -1.8l0.9 -2.8l-0.3 -1.4l1.2 1.8l0.2 -1.5l-0.8 -2.8l0.1 -2.1l1 -1.1l-0.3 -2.3l-0.3 -1.2l-0.6 -1.1l-0.7 -1.2l-0.2 -1.1l-1.8 -3.1l-1.5 -1.7l1.1 0.4l1.3 1.5l1.9 3l0.8 1.4l0.6 1.8l0.4 3l0.2 2l-0.2 1.2l-0.5 1.1l0.5 3l0.2 1.4l-1 0.3l-1.1 1.7l-1.9 1.7l0.1 1l0.6 1.2l1.2 1.1l-0.4 1.7l-0.1 1l1.1 0.7l-0.1 1.1l0.2 1.5l0.1 1.4l0.2 1.1l1.1 1.2l1 -0.2l0.4 -1.4l0.9 1.3l0.8 1.9l1 -0.7l0.1 -1.2l1.1 -0.3l1.9 -1.7l2 -2.3l1.2 -1.6l1.5 -2.7l0.6 -1.9l0.9 -2.1l2.2 -2.7l-0.8 -1.7l-0.3 -3.5l-0.8 -1.4l-0.7 -2.5l0.3 -3.1l-0.6 -1l-0.1 -1.6l-1 -1.4l-1 -1l-0.4 -1.4l-1.1 -1l-0.6 -1.1l1.1 -0.3l1 -0.5l0.3 -1l-0.7 -1l0.1 -1l-1.1 -1.5l-1.3 -0.4l-0.7 -3.2l-1.3 -0.1l-1.4 -0.6l-2.8 -3.1l-5.3 -1.2l-0.4 1.2l0.2 1.1l1.2 0.9l0.6 1l-0.9 1l-1 1.3l-1.8 0.5l-1.1 -0.7l-1.2 0.9l-0.9 1.1l-0.5 1.3l0.7 1l0 1.2l-1 2.77556e-17l-1.2 0.3l-0.8 -1.2l-1.1 -0.8l-1 -0.6l-2.77556e-17 1l-1 0.4l-1.3 0.2l-1 0.5l-0.4 1.1l-0.4 1l0.4 1l-1 0.6l-0.6 1.2l-0.4 1.1l1.1 1.4l-0.7 1.6l0.2 1.2l-1.1 0.4l-1 0.5l-1.1 0.9z"/></g><g data-id="02150"><path d="m619.3 547.8l0.3 1.7l1 -0.5l0.5 -2.1l-1.3 -0.3l-0.5 1.3z"/><path d="m616.1 524.3l1 0.5l1.1 -0.2l-1.3 -1.2z"/><path d="m612.2 575.1z"/><path d="m611.2 524.6l1.4 0.3l2 -0.9l-1.4 -0.1l-1.1 -0.8l-0.1 1z"/><path d="m592.7 552.9l1.3 0.7l1 -0.3l1.2 0.2l2.1 1.2l2 0.6l1.9 -0.4l1.9 -0.6l-0.2 -1.1l1.1 -0.1l1.3 -1l0.3 -1.1l0.3 -2.1l0.5 2l0.2 1l0.6 -1l1.6 -0.4l1.4 0.3l1.2 -0.2l-0.7 -3.1l1.2 -0.7l0.6 1.1l0.2 1l1.4 0.8l2.1 -2.2l0.3 -1.9l0 -2l-2.1 0.6l-0.4 1l-0.1 1.1l-0.3 -1.5l0.3 -1.1l0.5 -1.3l-0.6 -1l-1.3 1.4l-1.4 -2.1l-1.3 -0.2l0.3 1.1l-0.7 1.1l-1.6 0.3l-0.6 -2.5l0.7 -1.7l0.9 -1.3l1.4 -2.5l0.1 -1.4l-2.1 0.5l-1.6 0.8l-1.2 -0.3l-0.9 1.3l0.2 1.9l0.7 1l-1.4 0.5l-1.4 0.9l-1.3 0.9l0.1 1l1.1 0.2l-0.8 1.3l-1.2 -0.5l-0.4 1.1l0.5 1l-1.6 -0.2l-1.1 -0.6l-1 1.4l1.6 1.4l-0.8 1l-1.9 -0.7l-1 1.8l0.9 1.1l0.2 1.2l-1.2 -1l-1.5 -0.6l-1.7 2.3z"/><path d="m589.3 590.6l1.2 -0.4l-1 0z"/><path d="m579.9 597.1l1.9 0.2l0.4 -1l-1.3 0.3l-1.1 0.4z"/><path d="m576.3 601.9l0.3 1l1.9 0.6l1.2 -0.5l3 0.2l1.8 -1l0.2 -1l-1 0.2l-1.2 0.2l-1.2 -1l-0.3 -1l-1.5 0.4l-1.1 -0.2l-1.2 0.7l-0.9 1.4z"/><path d="m569.1 575.6l0.4 1.1l-0.5 1.3l1.6 0.2l1.5 0.5l1.3 2.3l0.5 3.8l0 1.5l-0.1 1.2l2 0.7l1.7 1.6l0.2 1.7l1.2 -0.2l0.4 -1.1l1.5 -1.5l1.2 -1l1 -2l2.3 -2.2l1 -1.3l0 1.5l-1.2 0.8l-0.6 1.2l-0.9 1.7l-0.3 1.2l1 0l1.1 -0.4l0.2 1.1l-1.5 0.8l-1.6 1.9l-1.6 2.2l-0.4 1.2l1.1 -0.2l1.1 -0.2l2.1 -0.5l1.1 -1.6l1.1 -0.2l1.3 -0.8l0.1 -1.7l1.1 -0.9l1.3 -1l-0.4 -2.5l-1.5 -0.1l0.2 -1l1.3 -0.3l1.3 0.9l2.4 -3.6l1 -0.5l-0.1 1.2l-1 1.2l-0.4 1.3l1.4 1.1l-0.4 1l1.9 0.1l0.6 -1.1l-0.2 -1l1.2 -0.8l2.6 -0.7l1.5 -0.2l0.6 -1.1l-1.3 -0.8l-2.2 0l-1.6 0.2l-0.8 -1l1.6 -2.77556e-17l1.2 -0.1l1 -0.5l0.4 -1.8l-1.2 -0.3l-1 0.2l0.2 -1.1l1.2 -0.5l1.7 0.5l0.3 1.1l1.2 0.8l1.1 -1.4l0.7 1l1 -0.8l0.9 -1.9l-0.2 -1.2l-1 -0.3l-1.2 -1.1l-1.2 -0.8l-1.7 0l0 -1l1.3 0.1l1.2 5.55112e-17l1 0.6l1.1 0.8l1.1 -0.2l1.4 1.1l0.6 -1.2l0.2 1.1l1 0l1 0.2l0.6 -1.3l0.6 -1.6l2.3 -2.2l0.2 -1.1l-2 -0.2l-1 0.1l-1 0.4l-1.3 0.6l0.6 -1.6l0.9 -1.1l-1.2 0.2l-0.4 -1.1l-0.6 -1.1l0.6 -1l1.5 -0.3l1.4 1l1.5 -1.5l-1.7 0.1l-0.3 -1.1l-1.6 0.4l0.2 -1.4l-1.2 -1l1 -0.5l1.4 -0.1l-1 -0.7l-0.4 -1.5l-1.1 0.3l-1 1.6l-1 0.1l-1.1 0.8l-1.1 1l-0.3 1.3l-1.1 -1.4l-1.1 1.2l-0.1 1.7l0.1 1l-1.1 -1l0.1 -1.3l0.3 -1l1.2 -1.6l1.2 -1.4l0.5 -1.8l-2.3 0.4l-0.4 1.4l-2.7 -0.8l-1.3 0l-2 -0.9l-1 -0.5l0.1 1.4l1.2 1l1.9 2.1l-2.6 -0.8l-3.7 -2.4l-1 -0.1l-0.4 1.2l1.3 1.6l1.2 0.7l1.2 0.3l-0.2 1.3l-1.1 -0.6l-1.3 -0.4l0.3 1.5l-0.5 2.1l-1 0.4l-0.1 -1.3l-0.4 -2.4l-1.3 -1.6l-1.3 -0.3l-1.8 0.8l-1.9 1.7l0 3.6l1.1 -0.1l1.1 0.3l2.1 0.9l0.3 1l-1.6 -0.3l-1.9 -0.2l0 1.1l0.5 1.2l-0.9 1.2l-0.2 1.2l-1 -1.1l-0.7 -2.2l0 -1.4l-1.2 -0.1l-2.2 -0.2l-2.8 0.9l-1.2 1.1l-1 0.9l-1 -0.2l-0.3 1.2l-1.1 0.7l-1.6 2.4l-0.1 1l-0.1 1.1l-1.3 0.5z"/><path d="m568.6 605.3l0.5 1l1.3 -0.6l1.2 -1.5l1.1 -0.7l2.3 -1.3l0.6 -1.1l-1.9 -0.9l-3.4 2.6l-1.3 1.9z"/><path d="m552.2 624.2l0.4 1.4l2.4 0.5l0.4 -1.5l-0.3 -1.2l0.4 -1.1l-1.3 -0.2l-0.3 1l-1.6 1.1z"/><path d="m534.8 617.7l1.2 1.4l0.2 -1l0.4 -1.7l-1.5 0.1l-0.3 1.3z"/><path d="m534.8 579.8l0 2.3l4.9 0.2l2 -0.1l0.3 -1l-1.1 -0.7l0.4 -1.2l1 -1.4l-0.3 -1.4l-1.5 0.8l-1.5 1l-0.5 -1.2l1 -0.6l1.8 -1.7l2.2 -1.6l0.7 -1.2l1.3 -5.55112e-17l0.8 1l1.2 0l-0.2 -1l-0.1 -3l1 0.2l1.2 0.7l2.2 -0.4l0.9 -1.4l0.1 -1.5l1.6 -0.8l0.3 -1l-5.55112e-17 -2.7l1.2 -0.6l1.4 1.3l1.6 1.1l1.3 -0.4l0.3 -1.1l-0.9 -2l1.2 -0.1l2.1 -1l1 -0.3l0.6 -1.3l-0.9 -1.7l1.6 -1.5l2.3 -1l1.1 0.3l1 0.6l0.8 -1.2l1.3 -0.9l0.1 1l1.1 0.5l0.7 -1.2l1.1 0.1l0.5 -1.3l-0.2 -1.1l1.3 0.3l0.8 1l0.9 -1.5l1.2 0.1l0.1 -1.6l1.3 -0.9l0.7 -2.3l-0.8 -1.1l-0.4 -1l1.3 -0.1l1.7 -1l-0.5 -1l-0.9 -1.3l-0.1 -1.1l1.1 -0.7l1.1 -0.1l0.6 -3.5l1.2 -0.5l1.1 0.2l1.6 -0.2l1.3 -0.8l0.5 -1.2l1.7 -1.5l1.3 -1l0.6 -1.9l0.2 -1.2l1.6 -0.6l-6.6 0l0 3.9l-3.1 0l0 2.9l-8.5 0l0 1.9l0.1 4.5l-0.8 1.4l-1.4 0l-0.6 1.9l-1.8 0l-2.8 0.9l-2.4 0.9l-2.4 0.5l-0.9 1.8l-2.8 0l0 1.4l-1.9 0l0 2.8l0.9 2l-0.9 5.6l-2 0.2l0 1.4l-1.6 0l-2.8 0.9l0 1.9l-1 0l0 1.4l-0.4 1l-2.3 0l0 1.3l1.4 0.5l-1.3 0.9l-0.5 1l-0.5 -1.4l-1 0l-1 0.5l-0.5 1.4l-0.5 1l-1.3 0.1l-2.8 -0.5l-0.6 1.4l-0.9 1.4l-0.7 2.3l-2.1 0.9l-0.1 1.4l-0.9 1.9l-1.4 0z"/><path d="m533.9 612.7l0.1 1.2l0.4 -1.8z"/></g><path data-id="02158" d="m371 431l0.3 1.4l0.3 1.3l1.4 0.7l-0.2 -1.1l1.5 -0.7l1.5 -0.7l1.8 1l0.9 1.1l-0.2 1.5l-1.4 0.6l-1.3 0.8l0 1.1l0.6 1.9l0.9 1l3 0.5l0.7 1l-0.2 1.1l0.2 1.6l0.5 2.9l2.3 1l1.3 0.2l0.4 -1.2l0.7 -2.1l1.4 0.6l1.2 0.1l0 1l0.9 1.6l1.1 0.7l1.1 -0.4l0.7 1.5l-1.2 0.7l-1.1 -0.1l-1.8 1l0.3 1.5l3 -0.9l1.1 0.4l1.5 -0.6l1 -0.4l1.1 0.5l1 0.1l1 -0.4l0 1l1.5 0.4l1.4 -0.6l1.1 -0.5l1.6 -0.1l1.1 -0.4l1.4 -1.3l0.1 -1.9l-1.2 -0.3l0.2 -1l0 -1.5l1.3 0.4l1 -0.1l1.1 -1.8l1.6 -0.7l-0.1 -1.3l-1 0.1l-0.2 -1.5l-0.3 -1.4l0.3 -1l1 -0.6l1 -0.1l1.5 0.1l1.3 0.6l1.7 0.5l1.4 -0.7l-0.1 -1.6l1.1 -0.3l0.4 -1.4l0.3 -1.4l1.3 0.3l1.1 0.7l2.1 0.2l1.2 -0.9l2.5 -0.3l1.7 -0.4l1.9 -1.8l4.3 -0.5l0.5 1.9l1.3 0.2l1.2 -0.7l1.1 0.3l2.5 0.5l1.2 0.6l1.6 0.1l1 0l2.8 -1.4l1.3 -0.5l1.1 0l1.1 -0.4l1.5 -0.9l2.1 -0.4l3.5 -0.7l1.7 -2l1.3 -1.2l1.5 -1l1.6 -0.9l1.6 -0.5l1.5 -0.3l2.4 -1.5l1 -0.5l2.4 -0.1l1.1 0.3l-0.7 -1.1l-1.3 -0.2l-1.3 -0.2l-1.2 -0.7l-1.1 -2.2l-6.7 -0.7l0 -4l0 -5.6l-2.3 0l0 -11.3l0 -1.7l0.9 -13.1l0.9 -3.8l1.5 0l-10.3 -0.5l-9.5 0l0 -3.3l-3.3 0l0 -3.3l-3.3 0l0 -3.3l-3.7 0l-1.2 1.6l-1 0.6l-1.7 0.3l-0.2 1.6l-1.2 1.5l-1.7 1.4l-0.7 1l-1.5 0.4l-3.2 0.4l-1.7 -1.8l-1 -0.6l-0.8 -1l-1.2 -0.9l-1.1 -0.4l-0.9 -1.2l-0.8 -1.2l-2.3 -0.2l-1.5 -1l-1.2 -0.5l-1.8 0.1l-1.2 0.3l-2.7 1l-1 0.6l-1.2 1.3l-2.4 3.1l-0.2 1l1 0.2l-1.9 1.8l-1.4 2.4l-0.8 2.1l-0.4 2l-0.7 1.8l0.7 4.6l-1.8 0.6l-1.2 1.1l-0.9 1.6l-0.8 2.8l-1.8 2l-1.2 1.6l-0.7 1.8l-1 1.5l-2.2 3.1l-2.1 3.1l-0.9 1.2l-0.6 1.2l-0.7 1.3l-0.2 1.3l0 1.4l0.3 1.5l0.7 1.7l1.3 2l-1.2 0.5l-1.1 0.8l-2 0l-1.5 -0.2l-2.3 0.6l1.3 3.2l1.2 0.8l1.4 0.6l-0.8 1.1l-1.1 0.3l-1.1 0.5l-1.8 0.3l-0.1 -1.3l0.1 -1.5l-0.9 4.3z"/><g data-id="02164"><path d="m524.8 601.9l2.7 0.3l1.9 -0.6l1.2 0.5l-1.6 -1.4l-1.2 -0.2l-1.8 0l-1.4 1.3z"/><path d="m514.9 608l1.3 1.2l0.3 -1.5l-1.6 0.3z"/><path d="m497.5 624.2l1 0.4l-0.2 -1.2l1.5 0.5l1 0.2l-0.8 -1.4l-2.1 -0.2l-0.5 1.6z"/><path d="m493.2 622.7l-0.7 1l1.6 0.3l-0.5 -1z"/><path d="m489.1 626.6l-0.2 1.1l0.7 -1l1.3 -0.5l-0.2 -1l-1.1 -0.4l-0.5 1.8z"/><path d="m480.1 603.4l0 5.4l1.6 0l0 10.8l-1.1 0l0 2.7l5.3 0l0 7.7l0.5 -1.6l-0.1 -1.2l0.8 -1.2l-0.1 -2.8l-0.5 -1l1.3 -0.3l-0.2 1.4l0.5 1.8l0.5 -1.2l0.6 -1.2l1.8 -0.6l2.3 -0.6l2.4 -0.5l1.6 -0.2l1 -2.1l1.9 -0.2l-0.1 1.4l1.3 0.4l0.5 -1.1l-0.1 -1.1l-0.4 -1.7l0.4 -1.1l1.1 -0.2l-0.5 2.3l1.5 2.1l0.3 -1l1 0.3l0.4 -1.2l-0.9 -1.6l1.3 0.8l0.1 -1.5l1.4 -1.7l1.3 -0.7l2.1 -1.4l-1 -0.2l-1.6 0.8l-1.2 -0.1l0.9 -1.1l1 -0.6l-1.9 -1.8l-1.2 -0.1l-1.6 -0.4l-0.2 -1l1.7 -2.5l1.3 -0.9l1.5 0.6l2.1 0.2l0.1 -1.1l1.7 -0.5l2.2 1.1l1.3 -0.8l-0.1 -1.4l-1.5 -0.9l-1.6 0.7l-1.2 0l0.6 -1.3l1 -0.1l1.2 -1.3l1.2 -0.3l1.5 -0.8l0.9 1.2l0.7 1l1.1 -0.3l1.3 0.1l1.4 -0.1l-0.3 -1.4l-1.1 -0.2l-0.1 -1.8l0.5 -1l1.8 -0.3l-0.1 -1l-0.9 -1.2l1.2 -1l1.3 0.8l0.7 1l1.5 1.2l1.1 -0.7l-0.4 -1.1l1.6 -0.5l0.7 -1.5l1.7 -1.1l0 -1.1l1 -0.3l0.7 1.9l0.9 -1.3l0.4 -1.4l1.6 -0.3l2 0.4l-0.1 -1.2l1 -1.1l1.2 -1l0.1 -1.4l1.2 -0.7l-1.8 -0.2l-4.9 -0.2l0 -2.3l1.4 0l0 -1.9l1 -1.4l1.4 0l-0.2 -1l0.8 -2.2l0.8 -1.4l1.5 -0.5l2.8 -0.9l1.3 0.4l0 -1l1 -0.5l1 -0.9l1 -0.5l0 1.4l1 -0.5l0.4 -1l-0.5 -2.2l2.3 0l0 -1l0.4 -1.4l1 0l0 -1.9l2.7 -0.1l1.7 -0.8l0 -1.4l2 -0.2l0 -5.6l0.9 -2l-0.9 -2.8l1.9 0l0 -1.4l2.8 0l0.9 -1.8l2.4 0l2.4 -0.5l2.8 -0.9l1.8 -0.9l0 -1l2 -0.9l-0.1 -1.4l0.8 -4.5l0 -1.9l-5.9 0l0 -2.9l-0.9 -11.7l-0.9 -5.9l5.9 0l0 -5.9l5 0l0 -3l3 0l0 -6l3 0l0 -3l2.2 0l0 -12l2.2 0l0 -12.2l2.3 0l0 -12.3l-0.8 -3.1l-14.2 0l-12 0l-16.7 0l-1.6 0l0 42.5l-2.9 0l0 3l-5.9 0l0 3l-3 0l0 3l-1.6 0l0 3l-5.9 0l0 2.9l-2.9 0l0 5.9l1.4 0l0 8.1l1.4 -0.8l1.3 -1.6l0 -1.1l1.2 -1.2l-0.1 1.4l0.2 1.2l11.4 0.6l0 9l-16.4 0l-1 1.7l-0.8 1.1l-1.7 0.9l-0.7 1.1l-0.6 1.9l-0.6 2.8l0.2 1.8l1.9 1.9l1.2 -0.4l-0.1 1.5l-1.9 0.8l-1.1 0.5l-0.6 2l-0.3 1.8l-0.2 2.4l-0.3 3l-0.5 3.1l-0.6 1.7l-0.1 2.7l1 0.7l1.1 1l0.3 1.9l-0.2 1.2l-1.1 -0.4l-0.5 -1.2l-1.6 -0.3l-1.9 1.9l-1 0.5l-1 1.8l-1 0.8l-0.6 1.1l-1.1 0.4l-1.4 0.8l-1.3 1l-1.5 1.7l-1.2 1.5l-1.4 2l-1.2 1.9l-0.6 1l-0.6 1.4l-0.4 2l0.1 1.2l0.5 1l0.1 1.5l-1.5 0.5l-1.9 0.1l-0.7 1.2l-2.7 0l0 2.7l-3.9 0l0 2.7l-5.4 0l0 2.7l-5.4 0z"/></g><path data-id="02170" d="m600 388.6l0 16.3l0 17.6l0 14.3l15.1 0l13.9 0l0 6.3l6.2 0l0 2.2l1.3 -0.7l1.2 -0.7l2 -0.8l0.9 -1.6l1 0.6l1.5 0.4l1 0.7l1.3 -0.1l1 -0.1l1 -0.1l1.2 -0.3l1.3 0.1l1 0.2l1.5 0.6l1.1 -0.9l0 -2.2l0.3 -1.1l0.4 -1.1l1.2 -0.4l0.7 -1.5l2.6 -2l1.2 0.1l1.1 0.8l2.1 -0.6l2.1 0l0 1.1l1 0l0 1l12.1 0l7.6 0l14.7 0l0 -1.6l4.6 0l0 -12.7l-0.3 -12.8l-0.3 -3.2l9.7 0l-0.2 -9.7l0 -13.1l-0.2 -3.8l-0.8 -8.1l0.1 -12.1l-8.9 0.1l-2 0.1l-15.8 0l0 5.6l-5 0l-14 0l-7.1 0l-12.8 6.4l-8 4l-9.6 4.8l-10.8 5.4l0 2.7l-4.5 0l-13.6 0l-1 -0.1z"/><g data-id="02180"><path d="m431.8 355.6l0.1 1.1l1.2 0.6l1.1 0l1.4 -0.3l1.6 0.1l0.7 -2l-0.6 -1.3l-1 -0.3l-1.3 0.5l-1 -0.4l-1 0.5l-1.2 1.5z"/><path d="m337.7 300.2z"/><path d="m337.2 271.6l0 1.2l0.6 1.1l0.3 1.1l1.4 0.7l1.5 0.3l1 0.5l2.5 1.6l1.6 1.3l2.5 2.2l1.3 0.5l4 0.5l1.2 0.1l1.3 0.2l2.2 0.9l1.8 1l2 0.4l1.4 -0.4l1.4 0l1.4 0.7l1.1 0.9l-0.2 1.8l-1.1 0.7l-0.2 1.7l-0.3 1.2l-2.2 1.2l-1.2 1.1l-1.5 0l-1.1 -0.3l-1 -0.8l-0.2 1.2l1.1 1.2l1.5 1l0.7 1l0 1l0.9 1.5l1.9 1.4l1.7 2.2l0.4 1l0 1l-0.4 1.2l-0.8 2.9l0.6 1.7l0.7 1.6l3.1 2.7l5.5 1.4l1.7 0.3l1.2 0.2l3.5 1l2.4 0.6l3.5 1.1l3.4 1.4l2.5 -0.3l1.2 -0.3l4.5 -2.7l1 -0.5l1.2 -0.6l2 -0.7l2.8 -0.1l1.3 0.1l1.4 0.4l1.8 -0.5l1.2 -0.4l3.1 0.3l3.4 1.4l1.8 1.2l1.7 1.5l0.4 1.6l0.9 1.2l1.1 -0.4l0.3 -1.1l1.1 -1.6l-0.1 -1.7l-1.5 0.4l-1 -1.3l-1.3 -0.2l-0.9 -1.6l1.6 -1.8l1.3 0.9l1.4 0.8l0.6 1.2l1 0.5l1.9 1.9l0 1l0.4 1.5l0.5 1.3l0.1 1.2l0 1.6l1.6 -1l1.3 -0.8l0.7 -2.7l0.8 -2.8l3.7 -2.9l1.3 -0.6l0.9 -1.4l0.6 -1.2l1.5 -0.7l2.7 -0.3l1 -0.4l3.7 -3.2l1.3 1l1.3 0.5l1.5 -0.2l1.1 -0.8l0.3 -1.1l0.5 -1l0.6 -1l1.4 -1.3l0.3 -1l1 -0.5l0.2 1l0.9 1.2l1.6 1.5l2.1 2.1l1.5 2.7l0 1.5l-0.1 2.3l-2.6 3l-1.9 0.3l0.5 1.3l-1.1 0.5l-1.3 0l-1.3 -0.3l-1.5 -0.5l-1.2 -0.7l-1.4 1.1l-0.6 3.4l1.6 -5.55112e-17l1.7 0.9l1.5 1.2l4.4 5.4l0.5 1.3l-0.1 2.6l0.1 1.9l0.3 1.6l0.7 2.5l0.7 1.2l0.7 2l0.4 1.4l0.4 1.3l0.1 1.6l-0.4 1.6l-2.1 3.7l-2.3 3.1l-1.2 1.2l-0.5 1.6l-3 1.4l-2.4 0.5l-1.8 0.3l-2.1 -0.5l-1.5 0.4l-1.3 0.3l-1.6 0.1l-1.6 -0.1l-0.4 -1l-0.3 -1.6l-1.4 -0.1l-1.8 -1l-0.3 1.8l-1.4 1.7l-1.2 1.7l-0.2 1l-2.4 3.8l3.3 0.5l0 3.3l3.3 0l0 3.3l3.3 0l0 3.3l9.5 0l10.3 0l0 -10l3.3 0l0 -3.4l-0.4 -6.7l3.4 0l0 -3.4l6.7 0l0 -3.4l3.1 0l0 -3.4l3.4 0l0 -10.3l-3.6 0l-0.3 -13.8l0 -14l3.3 0l0 -7.1l3.5 0l-0.2 -7.1l0 -7.2l3.6 0l-0.1 -7.2l0 -3.6l-3.6 0l-3.6 0l0 3.6l-14.5 0l-14.3 0l-15.2 0l-8.6 0l-16.2 0l0 -7.3l-3.6 0l0 -7.3l-4.9 0l0 -14.8l-1.3 0l0 -15l-1.3 0l0 -4.6l-5.5 1.7l-7.2 3l-1.1 0.3l-3.8 1.9l-4.5 2.5l-2.4 1.2l-1.1 0.7l-8 5.5l-3.4 2l-1.2 1l-4 2.9l-2.2 1.9l-3.2 2.6l-1.9 1.6l-1.2 1.1l-3.9 2.7l-3.4 1.9l-2.1 0.9l-2.1 1.1l-2.2 1.8l-0.4 1.3z"/><path d="m322.9 267.3l1 0.9l0 -1.4z"/><path d="m272.7 357.1l-0.2 2.4l0.4 1.9l0.5 1.1l1 1.6l1.3 0.4l1.8 0.8l1.7 1.1l2.2 -1.1l0.8 -1.2l3.2 -2.2l2.3 0l1.8 0.4l2.7 1.1l2.7 1.2l2.2 1.6l1.1 1.1l1.1 1.8l0.5 1.2l0.3 1.1l1.2 0.1l1.2 -0.2l1.2 0.6l0.8 1l1.1 0.5l1.1 1l0.8 1l0.7 1.4l0.9 2.5l1.7 1.5l1.2 -1.5l-0.1 -1.7l0.2 -1.3l0.9 -1.1l1.3 -1.1l1.1 -1.5l1.3 -0.5l1.8 -0.4l1.6 -0.1l1.1 0.1l1 0.3l1.5 0.8l1.2 -0.5l1.2 -2.1l0.6 -1.5l0.5 -1.4l-1.9 -0.6l-2.4 -0.8l-1.2 -0.5l-1.5 0l-3.1 -0.1l-1.9 -0.5l-2.3 -0.4l-1 -1.4l-1.1 -1l-1.8 -0.2l-1.9 -0.4l-2.1 -1.1l-1.3 -0.8l0.1 -1.3l-0.6 -2.5l-0.3 -1l-1.1 -0.2l-1.8 -1.9l-1.1 -1.1l-1.1 0.2l-1.2 -0.2l-3 0.8l-1.6 1l-2.1 1.6l-1.4 1.2l-1 0.2l-1.6 -0.4l-1 -0.3l-1.7 -0.7l-3.1 -0.9l-2.4 -1.1l-1.5 -0.8l-0.7 -1.1l0.1 -1l0.2 -1l-0.5 -1.1l-1.3 0l0 1l0.2 1l-0.5 1.3l0.2 1.4l-0.2 1l-1.3 2.4l-0.1 1.3z"/></g><path data-id="02185" d="m360.3 151.5l1.9 0.6l2.8 0.8l2.3 0.9l2.8 1.6l1.8 1.5l1.6 1.9l0.9 1.8l1.6 2l2 1l1.7 0.4l3.4 1.4l1.1 0.6l16.2 0.5l0 -8.1l15.4 0l15.5 0l0 -4.1l12.1 0l0 4.1l8.1 0l0 -4.1l8.1 0l0 4.1l16.2 0l0 -4.1l8.1 0l0 4.1l12.8 0l13.5 0l6.7 0l11 0l0 4l15.9 0l0 4l15.9 0l0 1.6l16 0l17.2 0l15.3 0l14.7 0l14.7 0l14.4 0l14.8 0l10.8 0l13.4 0l12.1 0l7 0l10.5 0l0.9 -23.4l9.6 0l12.9 0l8.5 0l11.9 0l17.3 0l16.1 0l10.5 0l0 -32.1l0 -23.7l-2 -1.4l-1.6 -0.5l-1.6 0l-2.2 -0.5l-1.7 -2l-1.4 -1.3l-1.9 -1.4l-2.2 -1.1l-2 -0.6l-2 -1.5l-2.8 -2.1l-2.9 -1l-0.8 -2.1l-5.1 -4.3l-3.3 -1.6l-1.7 -1.1l-2 -1.4l-1.2 -0.6l-1.1 -0.7l-1.3 1l-1.2 0.4l-1.6 -0.7l-1 -0.4l-1.4 0.6l-1.9 0.4l-1 0.9l-1.1 -0.7l-1.1 1.1l-1.3 0.6l-1.2 0.1l-1.4 1.1l-1.4 0.3l-2.4 0.9l-1.2 0.3l-1 1.6l-1.3 1.4l-1.4 0.5l-1.2 -0.2l-2 -0.8l-0.8 1.1l-1.1 0l-3.6 -1.4l-1.3 -1.3l-1.5 -0.2l-1.3 -0.5l-1.1 -0.9l-0.6 -1.3l-1.3 -0.1l-3.2 -2.5l-0.5 -1.1l-1.2 -0.9l-1.1 1.2l-1.6 0.1l-1.6 -0.2l-1.3 -1.1l-1.7 -0.6l-1 0l-1.4 -0.1l-1.6 -0.4l-2 0.2l-1.5 0.4l-3 -0.5l-1.5 1.7l-3.3 -0.2l-1 -1.1l-0.2 -1.4l-2 1l-1.4 -0.1l-1.3 -0.6l-1.4 -0.2l-1.1 0l-2 -0.8l-0.4 -1.4l-0.5 -1.5l-2.5 -1.9l-2 -0.7l-1 -0.5l-0.5 1.7l-1.1 0.1l0 -1.1l0.5 -1.3l-1 0.6l-1.6 1.7l-1 0.1l-1 -0.6l0 -1.4l-0.2 -1l-1.8 -2.8l-1.6 -0.9l-1 0.9l-1.1 0.5l-1.2 -1l-1.2 -0.2l-2.6 -2l-1.7 -1.1l-2.4 -0.5l-1.5 0.3l-1 -1.5l-1 0.8l-1 0.3l-1.2 -0.5l-1.2 0l-1.3 0.7l-1.4 -1l-3.6 3.7l-2.3 0.4l-2.6 1.2l-0.5 -1l-0.5 -1.6l-1.4 -0.6l-2.9 -0.3l-0.7 1.5l-1.6 -0.8l-1.2 0.6l-1.6 -0.4l-1.2 1.3l-1.2 1.6l-1 1.4l-1.7 0.2l-0.9 -1.5l-2.6 -1.3l-1.9 -0.5l-1.7 0l-2.3 -0.1l-1 0.1l-1 0l-0.8 -1l0.5 -1.1l1.7 -0.6l1.6 -0.6l-0.6 -1.1l0.7 -1.3l-1 -0.4l-1.8 -0.4l-1.7 -0.4l-1.6 0l-0.2 -1.1l-1.2 -0.1l-2 -0.2l-1.2 -1.1l-1.6 0.1l-0.7 -1.9l-0.2 -2l1.6 -1.7l1.6 -3.7l1.6 -0.5l-0.5 -1.6l-1.3 -0.6l-1 -0.4l-2.6 -1.2l-1.7 -0.7l-1.6 0l-1.5 0l-1.1 -0.9l-1.1 0.8l-1.7 -0.6l-0.9 -1l-1.7 -0.3l-1.6 -0.2l-1.6 1l-1.8 0.7l-1 0.2l-2.3 0l-1.7 -0.2l-1.6 0.1l-1.5 0l-1 1.6l-0.4 1.1l-1.6 2.1l-1 0.8l-1.9 0l0.3 -1l-0.7 -1.1l-1.6 -1l-1.3 0.2l-1 0.3l-1.5 -0.1l-0.5 -2.2l-0.1 -2.2l0 -2.8l0.7 -1.5l-0.6 -1.7l-3 -3.4l-2.9 -2.3l-1.5 -1.1l-0.9 1.1l0.4 1.1l0.1 1.3l-1 0.5l-0.4 -1.3l-2 0.9l1.4 2.9l0.3 1.3l-0.3 1.3l-1.4 -1.4l-1.6 0.1l-0.7 1.3l-1.3 1.7l-1 0.4l0.4 1.2l0.1 1.7l-0.2 1.4l-2.4 1.9l-1.5 -0.4l-2.4 0.1l-1.2 -0.4l-0.3 -2.9l-1 -0.2l0.6 -1.1l-0.3 -1.6l2.1 -1.1l2 -1l0.9 -1.4l1.3 -1.6l1.6 -1l0.7 -1.1l-0.1 -1.1l-0.7 -1.4l-0.1 -2l-1.6 -0.9l-1.8 -0.7l-1.1 0.1l-1 0.1l-1.3 0.2l-1.1 0.8l-0.4 -1.3l-0.6 -2.5l-2.4 -0.9l-1.5 -0.1l-1.7 -0.4l-2.1 -1.4l-0.6 -1.2l-0.1 -1.9l-1.3 0.8l-2.2 2.1l-3.3 4.8l-1.9 3.1l-0.8 1.4l-2.2 4.1l-2.5 3.5l-1.9 2.1l-3.6 3l-1 0.8l-1.3 0.8l-3.3 1.5l-2.2 0.6l-1.6 0.2l-2 -0.1l-0.8 1.1l-1.9 0.3l-2.4 0.4l-1.8 -0.1l-3.2 -0.5l-2 -1.1l-1.4 -0.9l-0.4 -2.2l-3.9 1.8l-2.3 1.1l-1 0.6l-1.1 0.8l-2.6 3.3l-2 2.1l-2.5 3l-2.7 3.9l-4.6 4.8l-2.2 2l-3.5 2.6l-3.3 2l-1.5 0.7l-2.6 1.1l-1.1 0.6l-1.8 0l-2.2 -0.2l-2 -0.5l-2.1 -0.6l-1.3 -0.3l-1.5 0.6l-1.1 1l-1.3 1.2l-2.4 2.1l-1.5 1.3l-1.5 1.9l-1 1.3l-1 2l-0.9 1.5l-0.5 1l-1.1 2.4l-0.9 1.7l-1.4 2.1l-0.7 1.3l-1.6 2l-1.3 1.9l-1 2.3l-0.4 1.6l-0.8 3.6l-0.6 1.9l-0.1 1.2l0.1 3.5l0 1l-0.1 3.1l-0.1 1.4l-0.3 2.2l-0.6 2l-0.7 1.9l-0.9 1.5l-2.7 3.9l-1.4 2.6l-2.1 2.5l-1.2 1.2l-1.8 1.3l-1.1 1.4l-1.4 1.3l-1.7 0.7l-1.1 0.9l-2.1 1l-4.8 0.7l-2.2 0.4l-2.7 0.8l-1.2 0.1l-1.5 0.4l-6.2 1.2l-3.4 0.1l-2.5 0l-2.6 -0.4l-6.9 -0.7l0.1 2.9l0.2 1.4l-0.2 4.8l-0.2 1.2l-0.3 2.4l0 1.3l0 1.1l-1.1 2.5l-0.1 1.9l-0.4 1.3l-0.8 1l-5.7 2.4l-1.6 0.8z"/><path data-id="02188" d="m384.8 166.4l1.3 0.8l1.5 1.5l1.7 2l1.3 0.9l2.6 2.5l2.2 2.2l4.2 4.4l5.6 4l1.1 1l1.1 1.4l1.3 2.3l2.2 5.4l0.4 1.3l0.5 1.7l1.1 4.2l0.3 2.1l0.1 1.1l0 1l-0.2 1.2l0.7 1.3l1.9 0.7l1.7 0.2l1.6 0.6l1.7 0.6l3.5 0.9l2.1 0.7l2.3 1.5l0.1 -1.9l1 0.7l1.5 -0.5l1.2 1.6l2.1 0.7l1.7 -0.4l2.9 -0.4l2 -1.3l4 -1l1 -0.1l1.4 1l0.8 1.3l1.5 -0.3l1.6 1l0.8 1.1l-0.1 1.1l-1.3 0.1l-1.9 -1.2l-0.8 2l-1.3 1.6l0.2 1l-0.3 1.2l-1.2 1.6l0.3 1.6l-0.6 2l3.3 4.2l1.7 1.2l1 0.5l1 1.6l1.4 0.8l1.8 0.1l-0.6 1.9l-1.9 1.1l-1.4 0.5l-1 0.1l-3.4 -2.5l-2.1 -2.5l-1.2 -1.7l-1.4 -1.7l-0.8 -1.4l-0.1 -1.3l0.4 -1.1l0.8 -1.9l-0.6 -1l-1.2 -0.7l-0.7 -1.4l-1.2 -1.6l-0.7 -1.7l-0.4 -1.2l-1 -0.1l-1.1 0.7l-1 -1.5l-0.7 1.7l-1.3 0.4l-0.6 1.4l0 1.1l0.9 1.1l1.1 2.1l0.2 1.2l1.3 0.7l1.3 0.2l1.4 0.4l1.6 1.4l0.6 1l0.5 1.1l0.2 1.3l1.2 1.1l2.7 3.3l0.2 1l0 2.1l-0.2 1.2l-0.7 2.8l1.8 -0.5l2.1 -1.5l2.9 0l2.9 0.9l2.4 1.2l1 0.3l1 0.6l0.8 1.9l1.1 1.2l-0.7 1.1l-1.9 0.3l-2 0.3l-1 -0.4l-0.4 -1.4l-2.5 -0.4l-1.1 1l-1.1 2.7l-0.3 1l-0.7 1.3l-1.9 2.1l-0.6 1.4l-2.4 0l-1.3 -1l-1.7 -0.2l-1.4 0.4l-1.1 0.6l-1.1 0.5l-1 0.1l-1.2 -1.3l-1.3 0.6l-1.6 0.2l-2.2 -2.1l-2.2 0.3l-2.1 0.3l-1.7 0.6l-1.3 0.1l-2.1 -0.4l-1 -0.7l-2.6 0l-2.2 1.2l-2.5 -0.1l-0.1 -1l-1.3 -1.7l-0.5 -1.6l-0.7 -1.3l-1.6 0.5l-1.2 -0.1l0.5 -1.2l1.6 -0.3l2 -1.9l0 -1.9l-0.6 -1.1l0 -2.6l0.5 -1.3l1.4 -1.6l0.6 -1.6l0 -1.1l-0.4 -1.4l2 -0.2l-0.5 -1l-1 -0.4l-1.7 -0.3l-1.6 -0.1l-1.1 0.1l-2 -0.1l-4.4 0.5l-0.9 4.6l1.3 0l0 15l1.3 0l0 14.8l4.9 0l0 7.3l3.6 0l0 7.3l16.2 0l8.6 0l15.2 0l14.3 0l14.5 0l0 -3.6l3.6 0l0 -10.9l-0.2 -7.4l11 0l0 -7.4l6.9 0l11.6 0l0 -15l14.9 0l0 7.5l7.4 0l0 -1l0 -6.5l7.4 0l0 3.8l3.7 0l0 3.7l7.4 0l0 -7.5l0.8 -3.8l11.3 0l0 -7.6l11.3 0l0 -3.8l1.1 0l0 -15.4l-2.7 0l0 -3.9l-7.7 0l0 -11.7l1 0l0 -3.9l-3.9 0l0 -4l-3.9 0l0 -4l-3.9 0l0 -4l0.9 -6.4l0 -1.6l-15.9 0l0 -4l-15.9 0l0 -4l-11 0l-6.7 0l-13.5 0l-12.8 0l0 -4.1l-8.1 0l0 4.1l-16.2 0l0 -4.1l-8.1 0l0 4.1l-8.1 0l0 -4.1l-12.1 0l0 4.1l-15.5 0l-15.4 0l0 8.1l-15.4 0z"/><g data-id="02195"><path d="m937.4 595l0.8 1.1l1 0.5l-0.3 1.2l0.4 1l0.6 1.1l-0.4 1l0.2 1l0.4 1.2l1 0.9l2.6 0.8l1.4 -1.4l-0.4 -1.1l1.7 0.4l1 0.2l1.9 0l1 0.4l1.7 -0.6l1.3 -1.1l1.9 -1l-0.5 -1l-1 -0.9l-0.8 -1.2l-1.3 -1.1l-0.4 -1.2l-1 -1.3l-1.4 -0.3l-0.6 -1.1l-0.2 -1l-0.6 -1.8l-2.2 -2.5l-3.5 -0.3l0.1 1.1l0.3 1.1l-0.4 1l-1.2 0.4l-1.1 0.6l-1.2 0.2l0.1 1l0 1.1l0 1l0.1 1.1l-1.1 -0.3z"/><path d="m935.6 566.5l0.3 1.1l0.8 1.1l1.4 0.4l1 -0.1l-0.8 2.2l0.4 1.6l0.7 1.9l-0.1 1l1.2 0.7l1.1 0.2l1 0.1l0 1l-1.5 0.5l-1.2 -0.1l-1.3 0.5l-0.3 1.2l0.5 2.1l3.4 2.1l1.3 -0.8l1 1.6l1.1 0l1.7 1l1.5 0.3l1.1 -0.6l1.1 1.2l-1.4 1.2l0.3 2.2l1.3 1.5l0.5 1.3l2.3 1.8l1.4 0.8l0.1 1.4l1 -0.4l0.9 -1.4l1.3 -0.3l1.2 -0.7l0.4 -1.5l0.7 -1l1.4 -0.8l2 -4.5l-5.6 -1.5l2.1 -3.8l-2 -4.2l-3.3 -5l-1.7 -3.6l-1.1 0.8l-1.1 -0.1l-1 0l-1.1 -1l0.3 -1.1l0 -1.3l-0.1 -1.3l-1.1 -0.5l-1.1 0.7l-1 -0.5l-1.2 0.3l-1 -0.4l-1 -0.9l-1.1 -0.6l-1 0.6l-1 -0.4l-0.9 -1.1l-1.1 0.6l-0.2 1l1 1l2.8 2.4l1.2 0.5l1.3 1.3l-1.1 0l-3 -1.8l-1.4 -0.5l-1 -0.6l-2 -0.6l-0.5 2.1z"/></g><g data-id="02198"><path d="m992.9 620.2l0.6 1.1l1.1 1l0.4 1.4l1 1l1 1.4l0.5 -1.2l2.1 -3.2l0 -3.1l-1.7 -3.6l-2.5 0.8l-0.8 1.5l0.7 1l-0.3 1l-1.1 0.1l-1 0.7z"/><path d="m971 648.4l1 0.9l1 -0.9l2.5 0.8l0.7 -1.7l-0.2 -2.7l-0.5 -1.7l-1.1 -0.4l-0.9 -1.1l-1.2 -0.4l-0.3 1l0.2 1.9l0.9 1.1l-1 1l-0.2 1.8z"/><path d="m949.4 650.3l0.5 1l0.7 -1l-1.2 0.1z"/><path d="m941.9 636.5l1.2 0.6l0.1 -1.2l-1.3 0.7z"/><path d="m937.7 653.5l0.2 1.6l0 1l0.7 1.1l-0.1 -1.7l0 -1.1z"/><path d="m936 630.4l0.6 1.4l0.9 -1.3l0.5 -1.4l-1.2 -0.8l-0.1 1.6z"/><path d="m935.1 628.9z"/><path d="m934.8 631.1z"/><path d="m933.7 635.6l2.7 0.9l0.2 1l-0.2 1.1l-0.7 1.1l0.7 2.4l0.7 -1.4l1.7 -2.2l1.2 -0.4l0.2 -1l-1 -0.1l0.6 -1.3l1.2 0.3l1.2 -1.4l0 -1l-1.1 -1l-1.2 0l-0.7 1.1l-1.2 0.1l-0.3 1.1l-1.3 1.1l-0.3 -1.1l0.8 -1.4l-2.5 -0.6l-0.9 3z"/><path d="m933.3 620l0.3 1.2l1.4 1l0.4 1.2l-0.1 -1.5l1 -0.6l1.7 -1.7l0.8 -1.2l-0.1 2.1l0.1 1.1l-0.5 1.1l1.3 -0.4l1.1 0.4l0.5 1.2l0.2 1l-1.4 0.6l-2.4 -1.4l-1.2 0.1l-1.4 1.4l1 1.7l1 0.7l1 0.3l0.7 -1l0 -1.2l1.3 0.8l0.2 1.4l-0.6 1.5l2.5 1.7l2 0.1l-0.2 1.8l1 0.6l-0.7 1l1.2 1.6l-0.5 1.3l-1.2 -2.77556e-17l-1 0.8l0.2 1.2l-1 -0.4l-1.4 -0.3l-1 0.7l-0.3 1.6l0.3 1.5l1.3 -0.3l1.6 0.4l1 -0.3l-0.2 1.4l0.4 1.4l1.1 0.8l-1.2 0.3l0.1 1.8l0.9 1.2l0 1.2l1 1.2l1.2 1.9l1.4 2l1.1 0.6l0.4 1.1l1.6 1.7l1.4 0.2l-0.5 -2.9l-0.4 -1.1l1 0.8l1 0.2l-0.1 -1.2l-0.1 -2.3l-1.8 -1.7l-1.2 0.2l2.77556e-17 1.1l-1.5 0.1l-1.2 -3.7l-1 -0.8l0.5 -1l-0.4 -1.5l-1.1 -1.7l-0.8 -2l1.4 0.1l0.7 1.3l1.2 -0.2l0.8 1.2l0.4 1.1l-0.6 1.6l-0.1 1.1l1.8 1l1.1 0.5l1 -0.9l-0.3 -2.2l-0.4 -1.1l1.2 -0.3l0.6 -1l0.5 1.1l-0.5 2l1.3 -1.2l-0.3 3.5l-0.2 1.5l1.7 1.4l1.2 0.4l1.2 1.1l-0.1 1l-1.7 -0.2l-1.1 1.4l1.4 -0.1l1 0.1l0.1 1l1.1 1l1.9 0.1l1 0.8l2 -0.3l0.5 -1l0.7 -1.8l-0.1 -1.3l-0.3 -5.8l-1 -0.2l-1.7 1.5l-1 -0.2l1.6 -1.5l1 -1.4l0.4 -1l0.4 -1.3l0.2 -1.4l-0.3 -1.4l-1.1 -1.11022e-16l-0.2 1.1l-2.3 0.1l1.2 -0.6l0.8 -1.3l-0.9 -1.4l-0.3 -1.1l-1 -0.4l-0.6 -1.3l-2.3 0.4l1.5 -1.1l-1 -1.3l-2.1 -0.6l-1.3 0.7l0.7 -2.2l3.5 1.1l1.4 0.7l1.2 1.2l-0.2 -1.8l-1.9 -1.2l-0.6 -1.4l-0.5 -1.7l-1 -0.5l-1 -3.5l-0.6 -1l-0.7 -1l-0.8 -1l-0.4 -1l-3.9 -3.6l-1 0.1l-0.6 -1.2l-1 -0.9l-1.1 -1.1l0 -1l-0.3 -2.6l-1.6 -2.5l-1.3 -0.2l-1.7 -0.3l-1.6 0l-2.8 -0.6l-1 0.9l-0.2 1.3l0.5 1.4l-0.4 1.1l1.1 0.6l0.5 1.1l-1 -0.1l-0.2 1.1l1.4 0.3l-1.2 0.5l-1.1 0.3l-1.2 2.1l-0.9 1z"/><path d="m931 621.6l0.3 1.3l1.1 0.8l0.4 -1.2l-0.2 -1.4l-1.4 0.4z"/><path d="m923.7 621.6l0.8 1.2l-0.2 1l1 0.1l1.2 -1.3l1.1 -0.6l0.5 -1.5l0.3 -1.2l-0.7 1.1l-0.7 1l-1 0.4l-1.6 -0.6z"/><path d="m922.9 592.2l0.3 2.5l-0.1 1.2l0.4 2l1.3 1.6l-0.3 2.1l1.4 0l0.3 2.6l-0.5 1l0.2 1.5l-0.9 1.3l-0.1 2l0.6 2.3l0.1 2.9l0.4 1.7l0.8 1.4l1.3 -0.7l0.1 -1.1l1.6 -0.2l1 -0.1l0.6 -1.7l-0.2 -1.1l1.1 -1.3l0.1 -1.6l0.7 -1.4l-0.2 -1l-0.3 -1.2l1.4 -0.1l0.1 -2.4l0.2 -1.7l1.6 0.1l0.1 1.1l0.1 1.2l1 0.4l1.2 0l1.3 -0.6l0.8 -1.3l0.1 -1l-0.5 -1.2l0.3 -1l-0.2 -1.2l-0.8 -1.2l0.6 -1.1l-1.1 -0.5l-1 -1l1.1 0.1l0.1 -1.1l-5.55112e-17 -1l0.2 -1l-0.3 -1.1l1 -0.1l1.1 -0.3l1.4 -0.8l0.4 -1.1l-0.3 -1.1l-1.1 -0.8l-1.5 -0.4l-1.6 -0.6l-1.3 -0.6l-1.5 -0.2l-1.2 -0.4l-2 -0.6l-2.1 0.7l-0.7 1.5l1.4 1.3l1.1 1.9l0.3 1.9l1.6 1.4l-0.1 1.3l-1.5 -0.8l-1 0.1l-1.1 -1.5l-0.7 -2.3l-1.7 -1.1l-1.7 0.7l-1.9 1.4l-1.1 1.4z"/><path d="m918.5 610l0 3.5l0.5 -3z"/></g><g data-id="02220"><path d="m900.6 575.7l1 1.3l0.5 1.1l0.6 1l1 0.4l1 -0.1l1.5 0l-0.3 1.4l-0.8 1.3l-1 1.7l0.3 1.5l1.3 0.9l0.1 1.6l-1.1 1.5l-0.1 1.7l0.3 1.2l-1.3 -0.5l-1.2 0.1l0.7 1.2l0.5 1.4l1.9 0.1l1.5 0l-0.2 1.1l0.7 1.3l1 1.1l1.2 0.4l0.4 1.6l1.1 -0.1l1.1 -0.7l0.2 1.1l-1 0.4l-0.3 1.3l0.6 1.4l0.6 1.3l0.8 2.1l1.8 2.5l0.6 2.3l1.8 1.9l0.6 -3.3l0.6 -1l0 -2.8l-0.2 -2.1l-0.4 -1l-0.1 -1.2l0.9 -3l-0.3 -2.9l-0.5 -2.4l-0.6 -1.5l0.1 -1.6l-0.8 -1.5l0 -1.9l-0.3 -1.5l-1.5 -6.1l-0.6 -1.3l-1.1 -0.5l1 -1l0.9 1l0.5 -1.4l-0.7 -2.2l-1.4 -0.4l-1.7 0.1l-2 -0.5l-1.1 -1.6l-1.5 0.2l-0.5 -1.6l-1.6 -0.9l-1.2 1l-1 0.7l0.3 1.9l-0.7 1.1l-1 0.5l-1 1z"/><path d="m897.9 579.6l0.5 1.4l1.2 0.9l-0.1 1.4l-1.6 1.3l0 1.3l-0.1 1.5l1.4 -0.1l1.7 -0.5l1.3 -0.9l0.6 -1.5l0 -1.1l1.3 -1.1l1.4 -1.4l-0.4 -1.1l-1.4 0.4l-1.2 -0.1l-1 -2l-1 -0.9l-1.1 -0.9l-1.5 0.3l0.2 1.9l-0.3 1.4z"/><path d="m888.9 560.5l1.1 1.7l0.5 2l0.5 1.1l0.2 1.9l0.1 1l1.2 1.2l0.7 -1.1l0.6 1.1l0.7 1.3l1.4 1.3l1.2 1.1l0.1 1l2.1 0.8l1 0.5l2 -2.4l0.5 -1.4l-0.2 -1l0.3 -1l-0.1 -1l0.3 -1l-2 -0.5l-0.7 -1l1 0.1l1 -0.4l1.4 0.5l2.1 1.6l1.2 0.7l1.4 1l1.9 1.6l0.7 1l1.1 0.4l2.1 -0.2l1.1 -0.8l-0.3 -3.8l-1.1 -2.7l0 -2l-1 -0.6l-1.5 0.4l-1.1 -0.3l-1.6 0.2l-1 -0.5l-1.3 -1l-1.3 -1.3l-1.8 -1.2l-1.4 -0.7l-1.9 -0.9l-1.3 -0.9l-1.5 -1.3l-1.8 3.5l-0.8 1.7l-6 0.2z"/></g><path data-id="02230" d="m900.4 496.8l5.7 13.1l6 0.1l0.7 -1.4l-1.9 -1.4l1.3 -1.6l0 -3l-1.5 -2l-1.8 -1.4l-0.2 -1.1l-2.2 -1.5l-2.1 -2.1l-4 2.2z"/><path data-id="02240" d="m704.2 344.8l0 14.9l8.9 -0.1l0.1 11.7l2.5 -0.4l2.1 0.2l1.4 0l0.5 -1.3l8.1 0l8.2 0l0.3 3.3l10 0l8.9 0.5l16.2 0l0.1 1.9l0 1l0.4 1.3l1.7 0.5l-0.6 1l0.1 1.4l-0.9 1.3l-0.8 1.4l-1.3 1.1l0.8 1.1l1.9 1.2l0 1.3l-0.8 1.4l-0.3 1.3l-1 0.5l1.2 1.4l1.6 0l1.2 0.8l1.1 -0.3l1 0.2l0.5 -1.5l1.1 -0.7l0.1 -1.1l0.2 -1l1.5 0.5l1.3 0.5l4.2 0.1l0 3.3l3.3 0l0 3.3l2.6 0l0 13l-0.7 1.7l3.2 0l0 7.9l14.4 0l0 -7.6l0 -30.3l0 -36.3l0 -39.2l0 -42l-1.3 0.5l-0.9 1l-0.7 1l-1.1 0.9l-0.8 1l-1 1.2l0.1 1l-0.7 1.4l-0.6 1.6l-1.1 0.6l-1.3 1l-1.1 1.1l-1.2 0.9l-1.5 0.6l-0.6 1.4l-1 1.2l-1.5 0l-1.3 -0.3l-1 -0.6l-1.2 -0.2l-1.2 0.5l-1.7 0.7l-1 0.9l-1.2 1.2l-1.2 0.5l-1.3 -0.6l-1.2 0.7l-0.3 1.3l-1.3 0.9l0.5 1.1l0 1.4l-0.3 1.3l-0.2 1l-0.9 1.4l-1.1 1.1l-1.3 0.4l-1.1 0.2l-1.2 0.8l-0.8 1.1l-1.3 0.5l-1.2 1.5l-1.2 0.2l-0.2 1.1l-1 1.1l-1.1 0.6l-0.2 1l0.4 1.2l-0.3 1.5l0.1 1.2l0.8 1.2l-1.1 0.5l-0.5 1.1l0.2 1l-1.6 1.2l-0.6 1.5l-0.8 1l-1 0.6l-1 -0.2l-1.1 -0.4l-1.1 -0.2l-1.6 -0.3l-1.4 0.8l-1.4 0.6l-1.8 0l-0.4 1l-2.4 1.4l-1.5 -0.3l-1.3 -0.3l-1.7 0.4l-1.1 0.3l-1.1 0.6l-1.5 -0.4l-1 0.7l-0.9 1.2l-1.3 1l-1.1 0l-1.6 0.6l-1.6 0.2l-0.2 1l-1.2 0.6l-1.6 1.1l-1.1 -0.2l-1.3 -0.9l-1.5 -0.2l-1.2 0.7l-1.8 0.4l-1.2 1.4l-1.7 -0.1l-1.6 0.5l-0.6 1.1l-0.4 1.4l-1 0.5l-1.3 0.8l-1.1 -0.1l-1.4 0.2l-1.9 0.7l-6.4 0.1l0 15.8z"/><g data-id="02261"><path d="m727.6 474.7l0.3 1.3l1.2 1.1l1 -0.6l-0.8 -1.3l-1.8 -0.5z"/><path d="m721.4 473.7l1.8 0.7l1.3 0.9l1.3 -0.3l-0.2 -1.1l-1.2 0l-2.1 -0.6l-1 0.4z"/><path d="m698.7 456.5l1.2 0.2l1 0.3l1.2 0.2l0.9 -1.3l-1.1 -0.6l-1.1 0.4l-2.3 0.8z"/><path d="m695.5 464.6l0.3 1.2l2.3 -0.3l0.7 -1.3l-0.9 -1.8l-0.6 -1l-1.6 0.5l0.1 1.6l-0.3 1z"/><path d="m695.4 478.7l0.4 1l2.5 -1.8l0 -1.1l-1.4 0.9l-1.3 0.5z"/><path d="m688.1 495l1 0.7l1.3 -0.7l1.6 -0.7l1.2 -0.5l0.4 -1l1 -0.1l1 0.4l1.7 -0.8l-0.6 -1.4l-1 -0.8l0.8 -1l1.3 0.1l-5.55112e-17 -1.4l0.3 -1.9l0.8 -1l0.8 -1.1l0.8 -1.1l2.1 -1.9l1.2 -1.2l1.1 -1.1l0.7 -1.1l-1.4 -0.1l-1.1 -0.1l1 -1.1l-1.5 -0.3l-0.2 -1.3l-1 0.4l-1 1.4l-0.3 1.3l0.2 1.3l-1.6 1.3l-0.2 1.2l-0.7 1.3l-0.5 1.1l-1.5 1.5l-1.2 0.8l-1.5 1.5l-1 0.4l0.3 1.2l-1 0.2l-1.1 1.2l-0.1 1.6l-1.5 0.3l-0.2 1.6l-0.5 1.1z"/><path d="m687.7 479l1.6 0.9l0.6 1.3l1.7 -0.9l0.4 -1.5l-0.1 -1.4l1.2 -1.9l0.4 -1l-1.1 -0.7l1 -1.7l-0.1 -1l0.3 -1.4l0.7 -1l0.1 -1.4l-1 0.3l-1.9 2l-0.1 1.3l-0.2 1l-0.5 -1.3l-1.3 2.2l-1.7 4.9l-0.3 1z"/><path d="m686.5 462.1l0.9 1.8l1.8 0.1l-0.7 -2.2l-1 -0.6l-1 1z"/><path d="m674 458.7l-0.1 3.1l1.5 0l0 9.2l-0.1 1.8l1.8 0.3l0 10.1l-0.2 2.2l-0.2 4.3l0.7 -1.1l0.6 -1.1l0.6 1.5l1 0.1l0.4 -2.6l0.6 -1.9l-0.2 -1.1l1.3 -0.1l0.4 1.1l-0.3 1.1l0.5 1.4l0.9 1.3l-0.6 1.5l1.8 -0.2l1.9 0l2.1 -1l1 -1.6l0.8 -1.5l-1.4 -2l-1.4 -1.5l-1.5 -1.6l-1.3 -1.2l-1.4 -0.8l-1.7 0.4l1.7 -1.9l0 -1.1l1.2 0.2l0.6 1.5l1.6 0l0.6 -2.6l0.9 -3.2l-0.6 -1.3l-0.1 -1.4l-1.9 -2.7l-1.8 1.4l-0.8 1.3l-0.3 1l-1.3 0.6l-0.1 -1.9l0.7 -1.3l0.7 -1l1.9 -1l0.8 -1.4l-0.3 -2.8l-2.1 -0.8l-1.7 1.9l-0.4 1l-0.4 -2.1l-0.3 -1.3l-1 -2.77556e-17l-0.1 -1.1l1.1 0.2l1.1 -1.2l0.5 -2.9l1.1 -1.4l0.7 -1.6l0.2 -1.5l0 -1l1 1.2l0.3 1.1l1.5 -1.8l0 -1.1l1.5 -2l1.7 -2.4l1.4 -2.1l-0.4 1.9l-0.2 1.2l-2 2.6l-1.1 1.2l0.1 1.2l-1.2 2.5l-0.8 1.2l-0.6 1.4l-0.8 2.5l0 1.1l1.9 0.5l2 -1l1.1 -0.2l1.4 0.4l0.6 -1.4l-0.1 -2.3l1.6 1.1l0 1.4l1.2 -0.2l0.1 -2.3l-0.3 -1.3l0.4 -2.4l0.6 -2.3l0.4 1.9l-0.2 4.4l1 -1.7l0.6 1.2l0 1l1.3 0.7l1.7 -1.4l0 -1.6l1 -0.8l0 1.1l1.4 0.5l0 -1.4l0.7 -1.1l-0.1 -1.7l-0.6 -1.2l0.1 -1.6l1.8 -0.7l-0.7 1.1l0.8 1.7l0.3 1.1l0 1l0.3 1.3l-1.3 1.1l1.4 0.4l1.7 -1l0.6 -1.2l1.1 -1.5l1.6 -0.8l0.8 -1.4l2.7 -0.6l1.2 -0.4l2.4 0.4l0.4 1.1l-3 0.2l-3 0l-0.8 1.4l-0.8 2.2l-0.8 1.1l0.2 1.7l0.6 1.4l-1 -0.2l-1 0.9l0 1.4l1.1 0.3l0.6 -1l0.9 -1.3l1.9 2.2l2.8 -0.1l1.1 -0.3l1.1 -1.5l1.4 -0.2l-1.2 2.1l-1.8 0.8l-1.8 0.6l-1.7 0.7l-2.4 0.3l0.6 1.7l1 0.2l1.3 -0.1l1 0.4l1.1 -0.3l1.2 -1.7l1.6 0.8l0.7 -1l1 0.6l1.2 -1.2l-0.2 1.4l-1.4 1l-1.5 1.4l1.3 0.8l1 -0.5l1.2 -0.6l1.3 -0.9l1.3 -1.1l-0.4 1l-1.2 1.6l1 0.2l0.7 -1.5l-1.11022e-16 1.5l1.1 0.6l-0.2 1.1l-1.8 0.4l-2.2 1.2l-1.3 0.6l-2.3 0.4l-1.4 1.2l-1.5 0.5l-1.2 -0.8l-1.2 -0.2l-2.3 3.3l0 1.3l1.2 0.7l1.4 -0.6l0.1 1.3l-1.4 0.6l-0.6 1.2l0.7 1l2 -1l1.5 -1.2l1.1 -0.7l1.4 -0.5l1.2 0.2l1.8 -1.2l1 0.1l-0.1 -1.6l-3.3 -0.2l-1.1 0.4l-0.1 -1.4l1.9 -0.1l2.4 -0.7l1.2 -0.8l1.3 -0.7l2.4 -1.3l0.8 -1l1.2 -0.1l-1.6 2.2l-1.1 0.6l-1.7 1.2l1.4 0.8l1.4 -0.6l1.1 -0.4l1.2 0.3l1.3 0.5l1 0.7l0.6 1.2l2.9 2l1.4 0.9l2 0.6l1.6 -2.2l0 -1.7l1.9 -0.7l0.8 -1.1l0.5 1.4l-1 1.8l-0.9 1.9l0.9 1l1.9 0l1.1 0.6l-2.4 0.7l3.9 1.4l1 0.8l1 -0.2l1.1 0.6l2.3 2.7l0.5 -1.1l0.3 -1.4l3.5 2.2l1.1 1.4l-3 0.7l-1.9 1.7l-2 1.8l-2.2 3.1l-0.6 1.9l2.6 -2.5l4.5 -4.4l2.8 -0.8l2.4 1.2l0.1 -1.3l7.9 -11.3l4.3 -6.1l15 0l6.4 0l3 0l0 3.1l10 0l0 1.5l3.7 0l0 -3.1l0.1 -21l-0.1 -13.3l0 -8.8l0 -1.8l0 -1l0 -5.5l-14.4 0l0 -7.9l-3.2 0l0 -1.7l0.7 -13l-2.6 0l0 -3.3l-3.3 0l0 -3.3l-3.3 0l-1.4 -0.4l-1.5 -0.3l-1.1 0.1l2.77556e-17 1.6l-1.1 0.7l-0.7 1.2l-1.6 -0.2l-1.5 -0.2l-1.6 0l-1.2 -1.4l1 -0.5l-0.2 -1.3l1.3 -1.4l0.8 -1.1l-2.3 -1.5l-1.2 -1l1.3 -1.1l0.8 -1.4l0.9 -1.3l-0.1 -1.4l0.6 -1l-1.7 -0.5l0.2 -1.1l-0.6 -1.2l0 -1l-16.3 -0.9l-8.9 0l-10 -0.5l0 -3.3l-8.5 0l-8.1 0l-0.5 1.3l-1.4 0l-2.1 -0.2l-2.2 0.5l-0.5 8.4l0.8 3.8l0.2 13.1l0.2 9.7l-9.7 0l0 3.2l0.3 12.8l0.3 12.7l-4.6 0l0 1.6l-14.7 0l-7.2 0l-0.2 9.4l0 3.4l0 8l-4.6 0l0 1z"/></g><g data-id="02275"><path d="m953.5 603.7l0.9 1.1l0.5 -1.2l0.9 -1.7l-1 0.8l-1.1 0.8z"/><path d="m952.3 612.1l-0.1 2.2l0.3 1.1l1.2 2.4l0.7 -1l1.3 -0.3l0.7 1.4l0.5 1.2l0.1 1.1l1.1 0.6l-0.2 1l0.4 1.7l1 0.1l0 -1.1l0.7 -1.2l1 -0.2l1 0.4l0.7 -1.2l-0.8 -3l1.3 -1.6l1.2 -0.8l0.3 -1.6l1 -0.3l-0.2 2.6l-0.7 1.1l-1.1 0.9l0.5 2.7l-0.4 2.6l-0.3 1.3l-1.7 0.9l-0.1 1.5l-1.2 -0.1l0.2 1.3l0.7 2.4l1.7 -0.7l0.5 -1.4l1.1 0.3l0.6 -1.7l0.7 -1.6l-1.1 -1.4l0.2 -1l0.5 -1l1.1 -0.5l0 -1.1l0.2 -1.1l0.3 -1.1l1.1 -0.7l1.3 -0.2l0.7 -1l1.2 -2.77556e-17l1.2 1l0.8 1l1.2 -0.1l1 0l-0.1 -1l-0.6 -1.2l-0.4 -1l1.4 -0.6l0.7 -1.1l1.2 -0.3l1.8 0.3l1.5 -1.2l1.1 -1.4l-0.5 -1.1l-1.2 -0.9l-0.2 -1.1l0.4 -1.1l-1.5 -1.5l-5.1 -3.2l-1.9 -1.9l-4.4 0.4l-0.4 -3.3l-0.7 -1.6l0.5 -1.7l-4.4 -2.1l-1.7 -0.5l-0.5 1l-0.7 1.3l-1.1 1.1l-1 0.2l-1.2 1.6l-1.4 0.5l-0.7 1l0.3 1.5l1.5 0.9l0 1.3l1.3 -0.6l0.8 1.6l1.3 1.5l1.4 0.8l0.5 1.8l-1 0l-0.2 -1.4l-2 -1.5l0.1 3.4l0.4 1.2l-0.1 1.2l-1 -1.1l-2.2 -0.2l-0.8 1.3l-0.4 1.7l-1 0.1z"/><path d="m947 611.7l0.4 1l0 1.3l1 0.9l1 0.4l-2.77556e-17 -1.8l-0.5 -1.2l-0.9 -1.4l-1.1 0.8z"/><path d="m946.2 607.7l0.5 1.1l1.5 0.8l1.5 1.7l1.8 -0.5l1 -0.1l1 -0.5l0.1 -1l-0.4 -1.3l0.6 -1l0.5 -1.3l-1.5 -1.3l-1.1 0.1l-1.1 0.2l-1.4 -0.4l-1.2 0.8l-0.7 1.9z"/><path d="m956.3 603.1l0.8 -1.3l-0.7 1.3z"/><path d="m955 607l1.2 0.8l1.5 -1l-1.2 -1.6l-1.3 1.1z"/></g><path data-id="02282" d="m758.2 486.7l0 1.3l3.4 -1.4l1.3 -0.3l3.7 -0.5l3.8 -0.4l1 0l1.2 -0.2l2.8 -0.8l1.7 -0.2l1.9 0.1l1.9 0.2l6 1.3l2 0.7l1.2 0.2l1.1 0l1.5 0.4l3 1.7l2.4 0l1.1 -0.5l2.2 -1l0.1 -1.6l-1.2 -1.1l-1.1 -1.5l-0.3 -1.5l1.9 1.3l1 -0.9l0 1.7l1.5 2.7l0.6 1.3l-0.6 1.1l-0.1 1.1l-2.1 0.7l-1.1 -0.3l1.1 1.6l3.6 1.7l1 0.5l3 1.5l1.6 1l1.7 0.5l2.5 0.6l1.8 0.1l3 0.3l1.3 0.2l1.7 -0.8l2.1 -1.3l1.5 -0.7l1.2 -0.5l1.4 -0.5l1.1 -0.6l0.1 -1.5l1 -1.6l1.1 -0.7l1 -1.3l0 -1.1l0.7 -1l1.3 1.1l-0.7 1.2l-0.7 1.5l-0.9 1.5l0.2 1.2l0.4 1.2l0.3 1.1l0.1 1.4l0.5 1.1l-0.6 2l0.1 1l-1.2 0.5l0.3 -1.1l-1.4 -0.5l-0.8 1.3l-0.3 1.3l-1.1 0.2l1.8 1.9l2.6 2l3 2.3l1.3 0.8l1.3 0.7l3.9 1.9l2.2 1.1l1.3 0.8l1.5 1.1l1 1l1.2 1.1l6 2.6l1.1 0.7l1.5 1.4l1.2 1.1l1.4 1.6l0.9 1.4l0 1.4l6.9 -2.7l0.5 -2.6l-0.7 -4.1l-1.1 -4.7l-4.4 -4.5l-3.4 -3.5l-3.1 -3.1l-2.8 -2.8l-2.8 -2.9l-1.2 -1.2l-0.7 -1.4l-0.2 -1.3l-0.5 -2l-1.6 -0.6l-2.1 -1.2l-1.9 -1.1l-1.7 -1.9l-1.2 -1.6l2.2 -8.1l0 -1.2l-10.7 0.6l-1.9 2l-3.1 3.4l-8.3 -4.4l-1.1 3.1l-4.3 -1.4l-4.1 -1.6l0 -3l-3.7 0l0 -1.5l-10 0l0 -3.1l-3 0l-6.4 0l-15 0l-4.3 6.1l-7.9 11.3z"/><path data-id="02290" d="m460.2 395.2l0 1.7l0 11.3l2.3 0l0 5.6l0 4l6.6 0l17 0l5 0l0 -3.2l12.7 0l0 -3.2l15.6 0l6.6 0l3.3 0l0 3.2l6.7 0l14.1 0l14 0l11.3 0l11.3 0l0 -3.2l6.4 0l0 -3.2l5.6 0l0 -3.2l1.2 0l0 -16l5.6 -10l4.4 -7.7l0 -4.7l-3.3 0l0 -1.7l-3.3 0l0 -5l-1.1 0l0 -6.8l11.2 0l0 -6.8l3 0l0.1 -6.8l3.8 0l0.1 -1.8l0.6 -1.1l1.1 0l2.9 0l1.3 1l-0.5 1l1.4 0.5l2.6 0.4l5.8 -8.6l3.8 -5.8l13 0l14.8 0l8.3 0.6l10.6 0l-1.1 -0.8l-1.1 -1.5l-0.8 -1.4l-0.2 -1.3l-1.2 -0.7l-0.5 -1l-1.3 -0.8l-0.3 -1.2l-0.7 -1.1l-1.3 -0.7l-1.1 -0.3l-0.9 1.3l0 -4.2l0 -7.1l-0.2 -14.3l9.7 0l2.2 0l2.3 0l1.9 0l1 0l1.1 0l1.1 0l1 -0.9l1.3 -0.5l1 -0.5l1 -0.6l1.4 0l1.3 -0.4l1.1 0.4l1.2 -0.3l1 0.2l1 0.5l1.3 -0.7l1 -0.4l1.3 -0.6l1.2 -0.8l1.1 -0.4l1 -0.8l0.7 -1l-0.7 -1.3l1 -0.8l1.4 0.5l1.1 -0.3l1.3 -0.5l1.3 -0.4l0.2 1l1.1 0.9l1.4 -0.1l0.3 1.2l-1 0.9l-1.1 1.4l-2.77556e-17 1l0.7 1.6l0.8 1.2l1.1 0.9l1 0.2l1.3 0.3l1 0.4l1 0.3l0.8 1.1l0.4 1l-1.2 1.2l-1 0.9l1 0.2l1 1.7l1 -0.3l1.2 -0.1l1.3 -0.7l1.3 -0.6l1.1 0.4l1.5 -0.1l1.2 -1l1.1 0l1.5 -1.2l1.1 -0.1l1.1 -0.4l1 0.7l1.6 1l1 -0.2l1.1 0.5l1 0.6l1.2 -0.3l1.1 0.3l1.1 -0.5l0.6 -1.1l1.4 -0.3l1.1 0.1l1.3 -2.77556e-17l1 0l1 -0.1l1.4 0.7l0 1.4l-0.8 1l-1 0.3l-0.6 1l-0.2 1l1.1 0.7l0.1 1.3l-1.4 1.2l0.3 1.1l-0.3 1.2l-0.1 1.1l-0.8 1.3l1.6 1.1l-0.8 1l-0.6 1l0.9 1l0.5 1l1 0.2l1.3 0.3l1.2 0.3l1.3 0.3l1.2 -0.8l0.9 -1.5l1.1 -1.5l1 -1.3l0.1 -1.3l1.1 -0.5l-0.8 -1.2l-0.1 -1.2l0.3 -1.5l-0.4 -1.2l0.2 -1l1.1 -0.6l1 -1.1l0.2 -1.1l1.2 -0.2l1.2 -1.5l1.1 -0.1l0.8 -1.1l1.2 -0.7l1.3 -0.7l1.3 -0.4l1.1 -1.1l0.8 -1l0.3 -1.4l0.3 -1.3l0.1 -1l-0.5 -1.1l1.2 -1.3l0.3 -1.3l1.2 -0.7l1.3 0.6l1.2 -0.5l0.5 -1l1.1 -0.7l1.4 -0.8l1.6 -0.6l1.2 -0.2l1 0.4l1 0.8l1.5 -0.5l1 0.1l1 -1.5l1 -0.8l1.6 -0.7l1 -1l1 -1l2 -1.5l0.6 -1.6l0.7 -1.4l-0.1 -1l1 -1.2l0.8 -1l1.1 -0.9l0.7 -1l0.9 -1l1.2 -0.5l0.1 -34.6l0 -28.6l0 -27.6l0 -28.3l-10.5 0l-16.1 0l-17.3 0l-11.9 0l-8.5 0l-12.9 0l-9.6 0l0 23.4l-11.4 0l-7 0l-12.1 0l-13.4 0l-10.8 0l-14.8 0l-14.4 0l-14.7 0l-14.7 0l-15.3 0l-17.2 0l-16 0l0 6.4l-0.9 4l3.9 0l0 4l3.9 0l0 4l3.9 0l0 3.9l-1 0l0 11.7l7.7 0l0 3.9l2.7 0l0 15.4l-1.1 0l0 3.8l-11.3 0l0 7.6l-11.3 0l0 3.8l-0.8 7.5l-7.4 0l0 -3.7l-3.7 0l0 -3.8l-7.4 0l0 6.5l0 1l-7.4 0l0 -7.5l-14.9 0l0 15l-11.6 0l-6.9 0l0 7.4l-11 0l0 7.4l0.2 10.9l3.6 0l0 3.6l0.1 7.2l-3.6 0l0 7.2l0.2 7.1l-3.5 0l0 7.1l-3.3 0l0 14l0.3 13.8l3.6 0l0 10.3l-3.4 0l0 3.4l-3.1 0l0 3.4l-6.7 0l0 3.4l-3.4 0l0 6.7l0.4 3.4l-3.3 0l0 10l-1.5 0.5l0 3.8l-0.9 13.1z"/></svg>
