<?xml version="1.0" encoding="UTF-8"?><!DOCTYPE svg PUBLIC '-//W3C//DTD SVG 1.1//EN' 'http://www.w3.org/Graphics/SVG/1.1/DTD/svg11.dtd'><svg viewBox="0 0 1000 1161.69" xmlns="http://www.w3.org/2000/svg"><path data-id="06001" d="m202 533.1l-0.2 1.2l0.5 1.6l1.2 0.9l1.4 0.5l1 0.5l1.8 0.4l1.1 0.3l1 0.4l1.1 0.9l-1.4 1l0.1 1.2l0.9 1.7l2.5 2l1.8 0.9l2.4 2.2l1.6 1.5l1 3.4l0.6 4.1l-0.1 2.3l1 2.6l2.5 4.8l0.1 2.2l1.8 1.4l2.3 1l0.9 1.9l1.2 2l4.9 -0.9l2.1 0.8l2.7 -0.8l2.1 1.6l5.6 -3.5l1.2 -0.2l18 0.2l19.2 0.1l0.4 -1l-2.3 -1.6l-1.1 -2.9l-3.6 -0.5l-1.4 -1.5l0 -24.6l0 -9l-1.9 0.6l-28.6 8.8l-8.2 2.5l-5.5 -3.4l1.4 -1.9l-4.7 -4.3l-5.9 -0.5l-3.3 -0.3l-1.7 -1.6l-1.9 0.2l-0.7 -2.2l-3.6 -3.8l-0.2 -1.6l-2.4 -1.6l-2.2 -1.8l-4.1 1.1l0.3 2.8l0.9 3.2l-0.2 1.8l-1.3 0.8l-1.6 2.1z"/><path data-id="06003" d="m422.1 446.5l0 7.8l1.8 -1.1l3.3 2.7l13.2 9.6l1.5 -1.4l3.1 -1.8l2.2 -0.6l1.3 -1.7l3 -0.7l1.7 -1.3l4.7 0.1l1.2 4.6l-0.6 1.7l3 2.1l3 2.7l1.1 -2.8l2 -2.1l-1.4 -3.4l2 -1.4l3.9 -0.7l-0.8 -3l1.3 -1.6l0.1 -2.8l1.3 -1.4l0 -2.2l-1.3 -0.2l0 -1.9l-1.2 -2.6l-1.9 -2.6l-1.2 -4.4l-1.9 -1.4l0.4 -7.6l1.6 -0.6l1.9 -4.3l-0.8 -1l-30.9 -27.3l1.6 1.9l0.8 3.9l-0.9 1l1.1 1.1l-1.4 1.6l-1.4 0.3l-0.2 2.5l-1.4 0.5l0.1 1.1l-2 2.2l-0.6 2.7l-1.7 0.7l-10.5 9.1l0 24z"/><path data-id="06005" d="m329.2 446.7l0 25.8l3.1 9.3l1.6 0.5l1.5 0.1l1.3 -0.8l1.8 0.4l2.2 -0.5l1.3 0.8l1.4 -1.6l0.7 -1l1.7 -0.7l0.7 -1.6l1.8 -1.3l1.5 -1.6l1.3 -0.5l1.6 -0.1l1.8 -0.2l1.4 -0.3l1.3 -1.8l1.8 -0.7l1.7 -0.5l1.9 -1l1 -0.6l1.4 -0.2l1.8 -1l1.6 -2.3l0.7 -1.3l-0.1 -1.1l0.3 -1.6l1.9 -1.2l2.1 -0.6l1.1 -1.4l1 -0.6l1.2 0l1.3 -0.4l1.7 -1.8l1 -1l2.2 -0.3l1.6 0.1l1.1 -1.2l1.8 -1.5l1.3 -0.6l1.5 0.8l1.6 0.6l1.7 -0.5l2.3 -0.1l2.2 -0.4l2.2 -0.6l2 0l1.2 -0.8l2 -0.5l2.5 -1.3l1.7 -0.5l1.9 0.4l1.5 0.2l1.2 0.1l2.2 -0.3l1.3 0l1.1 -0.8l2 -0.5l1.2 -0.3l0 -24l-2.2 -0.8l-1.6 0.4l-0.9 1.1l-0.2 1.6l0 1.9l-0.8 1l-0.2 1.2l-1.1 1.6l-1.1 0.4l-1.1 0.3l-1.6 0l-1.6 0.7l-1.2 -0.1l-1.3 1.5l-0.9 2.6l-0.9 1.2l-1.2 0.6l-1.1 1.4l-1.1 1.3l-1.1 0.4l-1.8 1l-2.2 0.3l-1.4 -0.2l-1.3 0l-1 0.4l-1.2 0.1l-1.2 0.7l-1.4 0.6l-1.3 0.6l-1 0.2l-2.1 0.1l-1.2 0.6l-1.2 0.2l-1.2 0.2l-1.1 0.6l-1.4 0.6l-1.3 0.1l-1.6 0l-1 -0.2l-1 0.4l-1 0.4l-1.2 0.2l-1.1 0l-1.2 0l-1.1 -0.2l-1.2 -0.2l-1.1 -0.4l-1.1 -0.4l-1.4 -0.6l-1.2 -1.2l-1 -0.4l-1.2 -0.6l-1.2 -0.9l-1.3 -0.6l-1.2 -0.1l-1.7 -0.7l-1.3 0.1l-1.1 0.1l-1 -0.5l-1.3 -0.1l-1.2 -0.2l-1 0.3l-1.1 8.32667e-17l-1 0.6l-1.1 0.9l-1 0.3l-0.5 1l-1.1 0.1l-1.1 -0.3l-0.6 1.2l-1 0.2l-1.3 0.1l-0.4 -1l-5.5 1.5l-1.2 -0.7l-1.9 1.3z"/><path data-id="06007" d="m227.7 279.4l1.2 1.5l-0.6 2.3l1.7 1.6l1.9 -0.3l-0.6 2.5l6.3 7.3l1 0.4l0.7 -1.8l-0.1 2.3l0.9 2.1l-1.9 2.6l-3.2 0.7l1.6 0.9l0.9 2l-1.8 0.6l-0.5 1.8l1.2 1.9l-1.6 1.5l0.1 2.6l-0.8 1.1l1.1 1.4l-1.1 0.5l0.9 3.1l1.9 0.6l2.8 -0.9l8.6 -0.1l-2 3.5l0.5 2.4l0.1 5.2l-1.9 8.3l0.6 1.3l-1.5 2.1l0.5 2l-1.4 4.7l27.1 -0.2l0.6 1.3l1.2 -2.9l1.7 1.4l3 0.4l3.1 -1.6l4.4 0.1l1.1 -2l2.7 0.3l1.2 -0.9l2.7 -0.3l2.4 -2.9l1 -0.2l1.2 -4.3l2.5 -3.3l-1.1 -1.7l0.7 -2.8l2.3 -1.9l0.9 -2.8l0 -2.7l2.7 0.9l3.6 0l0 -1.7l5.4 0l2.5 0.9l0.9 -4.5l4.1 -1.5l0 -2.3l2.7 0l0.3 -1.5l-1.2 -0.8l-0.8 -2.2l-3.8 -0.9l0 -3.6l-1.8 0l-1.6 -1.8l0 -1.8l-1.9 0l0 -1.8l-1.8 -0.1l-0.2 -3.2l-1.8 0l0 -1.8l-1.8 0l-0.2 -1.8l-1.7 0l0 -1.8l-1.7 0.1l0.1 -1.8l-3.1 -1.9l-0.1 -1.8l-1.3 0l0 -1.9l-1.8 0l-1 -3.8l-1.8 0l-3.1 -2l0.1 -3.7l-1.8 0l0 -1.8l1.9 0l-0.9 -1.8l0.1 -3.7l0.9 -3.7l-0.9 -3.6l1.9 -1.9l0 -2.7l1.8 0l1.5 -4.4l-1 0l0 -2.9l-2.8 -0.9l0 -4.6l-3.2 0l-0.6 2.8l-1 1l-2.7 0l-1 1.8l-1.9 1l-7.4 0l-0.9 5.4l-3 2.3l-1 1.7l0.1 3.7l-1 1.8l-5.6 -0.2l-2.1 2.2l-2 3.6l-0.4 4l-2.6 2.3l-2.6 0.5l-6.8 0l-1.1 0.1l-15.6 -0.1l-2.4 5.5z"/><path data-id="06009" d="m332.6 481.8l5.2 17l1.2 1.3l4.9 6l4.2 4.3l7.8 8.7l0.8 1.3l8.9 9.9l0.9 -1l0.6 -1.3l0.6 -1.3l1.9 -1.3l1.2 -0.9l0.4 -1.1l1.5 -1l1.3 -0.2l0.5 -1.1l0.7 -1.2l1.1 -0.5l0.7 -1.2l-0.1 -1.1l1 -1l1 -0.5l0.4 -1.2l-1.3 -1.4l-1 -0.3l0.9 -1.3l0 -1l0.8 -1l1 0.1l0.9 -1.1l1.6 -0.6l1.1 0.1l0.7 -1.2l0.8 -1.6l0.3 -1l0.9 -1.1l0.3 -1.1l1 -0.6l0.2 -1l1.4 -1.1l0.4 -1.4l0.4 -1.5l1.5 -1l0.8 -1.7l0.9 -1.1l0.1 -1.3l1.4 -1.5l0.6 -1.1l1.1 -0.8l0.5 -1.6l0.9 -1.4l0.8 -1.3l0.9 -1.6l1.6 -1.4l0.2 -1.2l0.6 -1.1l1 -0.9l0.2 -1.1l0.9 -1.1l0.6 -1.2l1.1 -0.7l1.1 -1.7l0.5 -1l1.2 -1.1l1.7 -1.8l1.1 -2.1l0.6 -1.2l0.6 -1.3l1.5 -1l1.7 -1.4l1.8 -0.6l1 -0.4l1.8 -0.3l1.5 -0.9l1 -0.4l1.8 -0.7l1.7 -0.7l1 -0.7l-3 -3.1l-1.8 1.1l0 -7.8l-1.2 0.3l-1.1 0.2l-2 1.1l-1.3 0l-1.3 0l-2.1 0.2l-1.5 -0.2l-1.9 -0.4l-1.7 0.5l-1.6 0.8l-2.1 0.4l-2 1.4l-2 0l-2.2 0.6l-2.2 0.4l-2.3 0.1l-1.7 0.5l-1.6 -0.6l-1.5 -0.8l-1.3 0.6l-1.8 1.5l-1.1 1.2l-1.6 -0.1l-1.6 0.2l-1.1 0.2l-2.2 2.7l-1.3 0.4l-1.2 0l-1 0.6l-1.1 1.4l-2.1 0.6l-1.9 1.2l-0.3 1.6l0.1 1.1l-0.7 1.3l-0.8 1.5l-2.6 1.8l-1.4 0.2l-1 0.6l-1.9 1l-1.7 0.5l-1.8 0.7l-1.1 1.2l-1.6 0.9l-1.8 0.2l-1.6 0.1l-1.3 0.5l-1.5 1.6l-1.1 0.7l-1.4 2.2l-1.7 0.7l-0.7 1l-1.4 1.6l-1.3 -0.8l-2.2 0.5l-1.8 -0.4l-1.3 0.8l-1.5 -0.1l-1.3 -0.5z"/><path data-id="06011" d="m158.1 337.2l4 1.9l-0.9 2.8l-1.3 0.4l-0.9 3.9l1.6 3.3l7.5 5.9l1.5 2.7l1.5 0.5l1.5 -1.1l5.5 1.6l6.2 0.2l0.2 1.7l1.5 0.6l0.4 1.6l1.6 0.5l-0.5 1.4l0.4 2.9l-1.8 -0.1l-0.4 2.4l1.4 4.8l-0.6 3.6l2.3 1.2l3 2.9l2.3 0.1l0.5 1.7l-1 2.2l1 3.3l3.5 2.9l3.2 1.9l49.1 0l0.5 -1.7l-1 -2l0.8 -2.1l1 -0.4l0.2 -1.7l2.3 -0.9l-3 -1.9l0.2 -2.6l-1.4 -1.7l0.1 -2.2l-0.9 -1l-2.1 0.5l-1.9 -0.7l-0.5 -3l-1.1 -1l-0.6 -2.5l-1 0.2l-1.7 -1.7l0.2 -1l1.8 0.2l-2.6 -4.7l1.7 -2.4l-1.9 -5.2l1.1 -3.5l1.6 -1.7l1.2 -2.8l1.4 -4.7l-0.5 -2l1.5 -2.1l-0.6 -1.3l-11.7 0l0.6 -1.7l-0.5 -2.1l-12.4 -0.1l0 3.7l-5.5 0l-39.1 0l-14.1 0.3l-4.5 0z"/><path data-id="06013" d="m192.7 513.9l1.2 2.7l1.6 1.9l1 0.8l0.1 1.5l1 0.6l1.1 0.2l1 -0.6l2.2 0l1.1 0.4l1 1.1l4.1 -1.1l2.2 1.8l2.4 1.6l0.2 1.6l3.6 3.8l0.7 2.2l1.9 -0.2l1.7 1.6l2.6 0.2l6.6 0.6l4 3.4l-0.7 2.8l5.5 3.4l8.2 -2.5l28.6 -8.8l1.9 -0.6l2.2 -4.1l-1.8 -1.4l-2.6 0l0.7 -5.3l1.5 -3.4l-1.1 -2.1l0.3 -1.3l-1.7 -3l1.3 -2.4l-0.3 -1.7l1.5 0l-1.4 -3l-1.2 0.7l0.2 -4l0.2 -3.2l-2.4 -0.7l-2.2 0.2l-1 1.5l-2.3 -1.2l-1.1 0.3l-0.9 1.4l0 2.6l-1.8 2l-3.7 2.3l-5 1l-1.2 -0.4l-1.4 0.1l-1.6 -1.2l-0.9 -2.6l-2 -1.7l-0.7 1.4l-1.9 1l-3.5 0l-5.6 -2.6l-4.4 1l-2.1 -0.1l-1 -0.2l-3.4 1.7l-4.6 2.1l-2.4 -0.6l-1.6 -2.1l-6 -1.2l-2.1 0.5l0.4 1l-1 2.2l-1 1.3l-1.7 1.5l-1.4 -0.3l-1.5 1l-2.8 -0.5l-0.7 1.5l0.5 1l-0.6 1.5l-2.4 1l-0.7 1.7l-1.1 -0.6l-1.8 -0.6z"/><path data-id="06015" d="m14.9 29.6l0.7 1.5l4.3 3.2l0.9 1.3l1 -0.3l2 -0.1l1 1.5l0.7 1.4l0.4 1.1l0.5 4l0.3 2.8l1.5 2.2l0.4 1.5l0.2 1.6l1.3 1.9l0.3 2.2l-0.4 2.1l0.8 2l1 0.8l0.1 4.7l0.5 1.2l1 4.1l17.6 0.6l11.2 0.2l0 10.8l10.6 -0.2l1.5 -2l0.3 -2.4l0.4 -1.4l1.8 -1.1l0.6 -1.4l0.2 -1.2l-0.4 -1l-1 -0.8l-0.7 -1.8l-0.3 -1.5l-0.6 -1.8l-0.1 -1.3l-0.1 -1.2l-0.7 -1.3l-1.1 -0.2l-1.8 -0.2l-0.7 -1l0.2 -1.7l0.4 -1.6l-0.1 -1.2l-0.4 -1.1l-1.2 -0.2l-1 0.3l-0.2 -1.8l0.9 -1.9l1.9 -2.9l-0.4 -2.9l1.5 -2.2l0.5 -2.4l0.7 -3l-1.6 -2.6l-0.4 -2.4l-0.5 -2.3l1.1 -1l-0.3 -1.2l-1 -0.5l-0.4 -1.3l-0.9 -1.7l0.6 -1.1l1.7 -0.5l1.5 -2.1l1.1 -1l0 -1.4l0.3 -1.4l1 -0.8l1.4 0.3l1.7 0.4l0.7 -1.5l0.8 -1.3l1.4 0.1l1.2 -0.1l0.6 -1l0.1 -1.1l0.3 -1.4l0.6 -1l0.6 -1.2l0.6 -1.2l-0.2 -1.3l-0.1 -1l-0.2 -1l0.3 -1l1.5 -1.1l-3.2 -0.2l-7 0.1l-3.2 0.6l-6.3 -0.2l-6.7 0.1l-2.4 0.1l-2 -0.1l-16.3 0l-8.3 -0.1l-1.3 0l-2.6 0l-8.3 -0.2l0.6 2l0.2 5.6l-0.5 6.9l-1.1 5.5l-1.1 3.6l-1.4 3.4l-1.1 1.2z"/><path data-id="06017" d="m318.7 421.3l1.6 -0.7l3.8 10.5l5 15.5l1.9 -1.3l1.2 0.7l5 -1.7l0.7 1.1l1 0.5l1 -0.6l1 -0.6l1.1 -0.4l1.1 0.1l-0.2 -1.1l1 0.2l1 -0.7l1.2 -0.8l1.1 -0.3l1.2 -0.2l1 -0.2l1.3 -0.1l1.1 0.2l1.1 0.5l1.3 0l1.4 0.2l1.3 0.3l1.5 0.1l1.2 1l1.2 0.7l1 0.6l1.2 1l1.4 0.5l1.7 0.9l1.1 0.4l1.2 0.2l1.1 0.2l1.2 0l1.1 0l1.2 -0.2l1 -0.4l1 -0.4l1 0.2l1.2 0l1.3 -0.1l1.5 -0.3l1 -0.5l1 -0.5l1.2 -0.2l1.3 -0.3l1.8 -0.4l1.1 -0.1l1.1 -0.3l1.4 -0.8l1.3 -0.5l1.1 -0.7l1.4 0l1.8 -0.3l1.4 0.2l2.2 -0.3l1.1 -1l1.8 -0.4l1.1 -1.3l1.1 -1.4l1.2 -0.6l0.9 -1.2l0.6 -1.7l0.9 -1.5l1.2 -0.8l2.3 -0.7l1.6 0l1.1 -0.3l1.1 -0.4l1.1 -1.6l0.2 -1.2l0.8 -1l0.4 -1l-0.5 -1.9l1.2 -1.7l1.6 -0.4l1.6 1l11.1 -9.3l1.7 -0.7l0.6 -2.7l2 -2.2l-0.1 -1.1l1.4 -0.5l0.2 -2.5l1.4 -0.3l1.4 -1.6l-1.1 -1.1l0.9 -1l-0.8 -3.9l-1.6 -1.9l-9.4 -8.3l-0.1 -8.5l-13.7 0l-0.9 2.7l-1.2 0.9l-1.8 0l-5.6 0.9l-8.5 1.1l-10.4 -0.7l-1 1.4l-2.5 6.5l-1.5 0.8l-0.6 1.9l-1.9 1.5l-3.2 0.6l-1.1 1.4l-1.6 0.1l-2.1 -2.7l-1.8 -0.9l-2.9 -0.2l-4 -2.9l-0.4 -2.8l-1.6 1.1l-1.2 -0.7l-1.3 -2.2l-1.6 -0.8l-1.8 0.1l-3.3 1.7l-1.4 -0.5l-1.7 1.6l-0.4 1.9l-1.6 -0.5l-0.8 3l-3.1 -0.9l-4.8 -0.3l0.2 3.4l-1.9 -0.4l-3.3 1.5l-0.9 1.2l-3.5 0.3l-1.6 2l0.9 1.1l-1.7 1.2l0.8 1.6l-0.7 2.8l-1.2 0.4l-1.2 1l0.3 1.5l-1.7 1l-0.2 3.7l-3.1 9.2z"/><path data-id="06019" d="m365.3 638.1l-25.6 25.8l31.3 30.6l0.1 19.3l-3.3 1.4l-2.8 0.1l-2.3 2.6l1 1.7l-0.6 1.6l-0.3 2l3 2.5l2.4 3.3l-1.1 0.7l-1.6 3.6l-1.3 0.9l0 2.7l1.2 0.8l0.7 2.9l3.3 1.5l1.4 -0.8l1 1.4l-0.2 2.2l2.5 2.3l2.1 0.8l0.5 1.1l6 3.2l0.1 1.1l2.7 1.5l1.6 2.3l2.5 -0.8l4.7 1.4l0.3 1.9l2 1.3l0 1.7l2.1 1.9l34.6 -33l0 -26.5l20 -0.1l0.7 -1.7l3.4 -0.4l3.9 -1.4l0.5 1.5l9.1 -8.5l2.6 -2.4l5.5 -5.8l2.3 -2.2l15.7 0.2l0 -10.5l12.6 0.2l8.4 0.2l10.1 0l0.2 -10.3l41.6 0.3l18.9 -0.7l-0.9 -1.1l-0.4 -1.4l-0.2 -1.6l0 -1.2l0.2 -1.1l-1 -1.8l-0.6 -1l0 -1.5l2.4 -0.9l0.3 -1.9l-0.4 -1.3l-0.2 -1.3l0.1 -2.2l-0.9 -2.6l-1 -3l-1.7 -3l-1.6 -3.2l-0.1 -1.9l-0.2 -1.8l-1.4 -1.8l0 -2.1l-1.7 -1.6l-2.9 -1.1l-1.6 -2l-1.9 -0.6l-0.9 -1.4l-1.3 -0.6l-2.1 0l-1.3 -1l-1 -1.3l-1.8 -0.8l-2 0.3l-1.7 -0.2l-1.6 -1.4l-0.7 -1.5l0.4 -1.8l-0.7 -1.9l-0.9 -1.3l0.1 -1.5l-0.6 -1.8l0.5 -2l1.1 -1.3l-0.5 -1.7l-0.9 -1.8l-0.9 -1.8l-1.2 -1.7l-2.2 -1.1l-1.6 0.4l-1.5 -1.2l-1.9 -0.8l-0.4 -1.9l1.4 -1.5l-0.3 -1.1l-1.1 -1.6l0.3 -2.7l0.9 -1.8l1.2 -1.5l-0.3 -1.9l-1.2 -1.5l-2.1 -3.1l-1.8 0.1l-3.4 1.5l-1 -3.2l-2 -1.1l-0.2 -1.2l-1.7 -1.4l-1.5 -2.3l-1.2 0.2l-2.2 -2.1l-2.4 1.1l-0.8 -1.3l-1.7 -0.5l-2 -1.8l-2.6 2.6l-6.4 6.4l-3.1 3.1l-5.9 6l-4.3 4.3l-3.5 3.5l-1.2 1.3l-1.3 1.5l0 1l-1 1.5l0.4 1.3l-1.5 0.9l0.1 1.1l0.6 1.3l-0.3 1.2l-0.2 1.1l0.7 1.1l0.2 1.4l-0.2 1.3l-0.8 1l-0.2 1.5l0.4 1.7l-0.7 1.1l-0.3 1.1l-1.1 0.6l-0.9 1.5l-0.3 1l-1.1 0.6l-1 1.4l-1.6 -0.4l-1.3 -1.2l-1.1 -0.1l-0.5 1.5l-1.4 0.9l-1.2 -0.2l-0.6 1.6l0 1.3l-0.7 1.4l-1.6 -1.1l-0.2 -1.3l0.1 -1.1l-1.3 -1.1l-1.3 0.4l-0.6 1.8l-1.4 -0.3l-1.3 -1.4l-1.1 0.5l0 1.5l-0.5 1.1l1.1 0.3l1.3 0.3l0.6 1.4l-1.1 0.9l-1 1.1l-0.3 1.3l-0.2 1.3l-1.7 -0.2l-1.8 -0.7l-0.9 1.9l-0.3 2l-0.6 1.6l-1.1 -0.3l-0.2 -1.1l-1.9 -0.4l-0.6 1.1l-1.2 2.9l-2.8 0.5l-1.3 1.6l-2.7 2.6l-0.2 2l-1 2.3l-0.6 1.8l-1.4 0.2l-1.6 2.8l0.1 2.3l-2.1 1.7l-0.5 1.5l-2.2 -0.5l-3.2 0.2l-1.4 -0.8l-2.4 1.5l-2.3 0.3l-1.1 1.1l-1.5 -0.2l-2.5 -0.6l-0.7 1.3l-2.2 0.3l-1.4 1.7l-2.9 -1l-1.3 0.5l-3.2 0.7l-3.1 0.5l-1.8 1.3l-1.6 -0.5l-1.6 3.2l-1.3 -1.7l-1.5 0.2l-1.6 1.2l0.4 1.1l-5.5 -0.5l-0.5 1.3l-1 -1.8l-3.4 -0.8l-1.3 -1.7l0.4 1.4l-2.5 0.2l0.1 -3.1l-1.9 -1.7l-1.1 0.2l-0.9 -2.1l-2.2 -1.3l-2.2 -1.5l0.3 -2.2l-1.3 -1.1l1.6 -2.6l-1.7 -3.2l-1.5 -4.1l-1.5 -1.3l-0.9 -3.1l-3.6 -2.4l0.4 -2.1l-5.5 5.6l1.3 0.9l-0.5 1.2l0 3.5l-6.4 0z"/><path data-id="06021" d="m143.3 284.8l-0.1 6.3l2.5 0l0 5l2 0l0.2 10.9l0.6 1.5l-0.1 3.9l11 0.1l3.6 -0.2l-0.1 9.1l0.4 1.9l0 5.4l-0.9 2l0.3 6.5l14.1 -0.3l39.1 0l5.5 0l0 -3.7l12.4 0.1l0.5 2.1l-0.6 1.7l11.7 0l1.9 -8.3l-0.1 -5.2l-0.5 -2.4l2 -3.5l-8.6 0.1l-2.8 0.9l-1.9 -0.6l-0.9 -3.1l1.1 -0.5l-1.1 -1.4l0.8 -1.1l-0.1 -2.6l1.6 -1.5l-1.2 -1.9l0.5 -1.8l1.8 -0.6l-0.9 -2l-1.6 -0.9l3.2 -0.7l1.9 -2.6l-0.9 -2.1l0.1 -2.3l-0.7 1.8l-1 -0.4l-6.3 -7.3l0.6 -2.5l-1.9 0.3l-12.8 0l-71.4 -0.3l-2.5 0.2z"/><path data-id="06023" d="m0.1 202.7l0.6 2.7l1.1 1.9l1.2 1.1l1.3 3.1l0.2 3.2l0.6 1.9l0.8 2.6l-1.5 4.9l0 1.9l1 1.3l2.4 1.6l0.7 1.4l2.4 2.3l3.7 3.1l2.7 1.6l1.6 1.4l2.6 3.9l1.7 0.8l3 1l2.9 1.6l2.3 3.2l0.6 1.6l0.1 4.6l1.1 1.1l1.2 -0.3l2 1.4l1.2 1.5l46.7 -0.1l0 -4.1l0 -5.4l0 -7.3l0 -8.1l0 -9.3l0 -13.4l0 -10.5l0 -10.1l0 -7.1l0 -5.7l0 -7.4l0.1 -5.2l-0.7 -2l0.1 -2l0.1 -1.1l-0.8 -1.7l0.2 -1.9l-0.9 -2.5l0 -1.8l-0.8 -1.2l-0.1 -1.4l-1.2 -1.6l-1 -1.1l-0.4 -1.6l-0.5 -2l-0.8 -1l-0.1 -1.4l-0.1 -1l2.9 0.4l1.6 -1.2l0.8 -1.5l2.2 1.8l2.1 1l2.2 1.4l1.1 0.1l0.9 -2l1.5 -1.3l1 -0.3l0.5 -1.1l-0.2 -1.9l1.2 -1.7l0.7 -1.7l0.2 -1.4l1.6 -2l0 -1.5l-1.1 -0.9l-0.3 -1.7l-0.5 -1.2l-2.6 -1l-0.6 -1.6l0.4 -1.2l1.5 -0.6l0.5 -1.5l0.6 -3.2l0 -2.4l0.5 -1.9l1.5 -1.5l-0.8 -2.6l-1.8 -2.1l-0.2 -1.8l-1.7 -1.3l1.2 -1.6l-0.4 -3.4l-1.4 -0.8l0.6 -1.4l-0.8 -3.2l-1.4 -1.3l-0.5 -3.4l0.8 -1.6l-1.3 -1.4l-1.3 -0.7l-15.6 0.1l-10.6 0.2l0 -10.8l-11.2 -0.2l-17.5 0.1l0.2 3.3l-0.9 8.4l-0.7 3.6l-1.3 7.7l-1.4 6.1l-0.1 1.4l-1.5 5.2l-2.1 5.8l-1.5 0.2l-0.6 1.7l0.6 1l-0.1 3l0.6 1.5l0 3.5l0.2 1.1l1.3 -0.3l1.2 0.7l1.3 2.6l-0.6 5l-1.8 8.2l-2.1 6.4l-1.8 4.2l-2.5 5l-2.6 4.6l-2 4.4l-4 7.1l-2.3 4.9l-1.7 3.2l-3.3 8.7l-1.5 3.3l-0.8 2.3l0.2 2l-1.1 3.5l-1.2 2.4z"/><path data-id="06025" d="m808.2 1140l-0.1 11.9l5.8 -0.5l56.6 -5.1l45.2 -3.8l27.4 -2.2l0.4 -1l1 -1.6l1.7 0.4l1 0.1l1.7 0.2l2.6 0.3l1.4 0.3l7.8 -3.2l1.2 0l-0.2 -1.2l-0.4 -1.1l0.1 -1.6l1 -1.2l0.7 -1.1l1.8 -1.3l2.1 -1.9l1 -4.1l0.3 -3.1l-0.1 -1.1l-1 -1.1l-0.7 -1.7l0.6 -1.1l0.6 -1.3l0 -1.2l-1.2 -0.7l-1.2 0.2l-0.2 -1l-0.2 -1.3l-0.2 -1.4l-0.6 -1.5l-0.8 -1.1l-2.3 -0.8l-1.4 -0.1l-1.8 -0.3l-1.2 0.9l-1.6 0.3l-1.7 -0.2l-1.5 -1.4l-1.1 -1.1l-0.9 1.3l-1 0.4l-0.9 -1l0 -1.8l-1.2 -1.6l-0.2 -1l-1 -0.8l-0.6 -1.2l0.4 -1.9l0.7 -2l1 -1.3l0.5 -1.5l0.3 -1.7l0.4 -1.4l-0.3 -2.1l0.2 -1.3l0.2 -1l-0.5 -1.4l-1.2 -1.7l1.4 -1.2l-0.3 -1.6l-1.7 -1.1l-1.6 -0.4l-1 -0.4l-1 -1.8l0.7 -1.1l1.2 -1l1 -1.9l0.3 -1.8l-0.1 -1l-0.8 -1.8l-0.6 -1.4l-0.9 -1.2l0.3 -1.1l1.8 0l1.3 -1l1.4 0l1.5 0.6l1.4 -0.5l1.3 -1.3l-19.6 -0.2l-62 0.4l-60.1 0.1l0.4 40.9l-2.2 0l0 31.4l0.1 9z"/><path data-id="06027" d="m547.7 582.4l-0.3 2.7l1.1 1.6l0.3 1.1l-1.4 1.5l0.4 1.9l1.9 0.8l1.5 1.2l1.6 -0.4l2.2 1.1l1.2 1.7l0.9 1.8l0.9 1.8l0.5 1.7l-1.1 1.3l-0.5 2l0.6 1.8l-0.1 1.5l0.9 1.3l0.7 1.9l-0.4 1.8l0.7 1.5l1.6 1.4l1.7 0.2l1.1 -0.5l1.8 0.6l1.1 0.8l2.1 1.9l2.1 0l1.3 0.6l0.9 1.4l1.9 0.6l1.6 2l2.9 1.1l1.7 1.6l0 2.1l1.4 1.8l0.2 1.8l0.1 1.9l1.6 3.2l1.7 3l1 3l0.9 2.6l-0.1 2.2l0.2 1.3l0.4 1.3l-0.3 1.9l-1.5 0.7l-0.9 1.7l0.6 1l0.7 1.1l0.1 1.8l0 1.2l0.2 1.6l0.4 1.4l0.9 1.1l2 1.9l0.5 2.9l-3.1 1.7l1.4 1l1 1.3l0.7 1.3l0.1 1.2l1.3 1.5l-0.1 1.4l1.2 0.9l1 1.1l1.1 1l0.6 1.4l-1 1.5l0 1.5l1.6 1.8l1.3 0.4l1.1 1.1l0.1 1.5l1.2 1.8l0 1.1l0.2 1l-0.8 1.9l2 1.9l1 1.2l0.5 1.4l-0.2 1.2l2.3 0.6l1.3 0.1l1.9 -0.4l1.2 1l0.4 1.3l-0.4 1.1l-1.5 1.6l1.4 1.6l1.2 1.1l0.7 1.5l1.2 0.5l0.9 1.2l-0.3 1.6l-1 2.2l-1.1 0.7l0.1 1.3l-0.2 1l0.8 1.1l0.2 2.4l0.5 1.4l0.7 1.2l-0.2 1.1l0.5 1.6l1.8 1.6l1.5 2.2l0.6 1l0.1 1.2l-0.6 1.3l-0.8 1.1l0.3 1.2l0.5 1.9l-0.1 1.8l1.6 2.2l0 1.3l0.3 1.5l0.2 1.5l0.6 1.1l0.4 1.8l0.2 1.3l1.3 0.6l1.3 1.7l0.2 1.1l-1.3 2.3l1.1 1.7l1.5 0.3l0.8 2.1l-0.7 1.3l0.7 2.4l-0.6 1.9l0.8 1.5l-2.4 0.6l-0.2 8.8l8.3 0.3l-0.1 -1.4l28.4 0.1l95.6 0.2l89.1 0.2l0 -1.9l8.5 -0.1l-2 -2l-2 -1.9l-6 -5.7l-9.3 -9l-4.6 -4.3l-1.9 -1.9l-17.6 -16.9l-15.4 -14.6l-12.2 -11.5l-10.9 -10.5l-1.2 -1.1l-4 -3.8l-44.7 -42.2l-6.4 -5.9l-6.3 -6l-3.3 -3.1l-7.7 -7.2l-2.1 -1.8l-10.7 -10l-12.1 -11.4l-4 -3.6l-3.9 -3.5l-9.7 -9.1l-3.1 -2.6l-11.7 -11l-91.7 0.2l1.2 1.5l0.3 1.9l-1.2 1.5l-0.9 1.8z"/><path data-id="06029" d="m410.3 778.7l0 21l10.5 0l-0.1 10.5l1.8 0l0 1.6l1.7 0l0 1.7l1.7 0l0 1.8l1.8 0l-0.1 1.7l1.8 0l0 3.5l8.1 0l3.3 0l0 10.5l6.9 0l0 10.4l13.9 0.1l0 10.4l9.3 -0.7l1.7 0l-0.7 11l6.8 -0.5l0 1.7l1.8 0l0 20.9l3 0l5.9 0l0 2.5l10.3 0l-0.1 2.7l3.4 0l0 5.1l26 0.2l0 2.6l9.3 0l-1.3 -3.2l1.3 0l0.4 1.7l2.3 0l0 -1.7l26 0l25.4 -0.2l53.7 -0.4l10.4 0.1l3.4 0l0.1 -32.7l0 -21l-0.2 -21.1l0.3 -13.5l-0.4 -10.5l1.7 0l0 -3.5l-3.5 0l0 -3.5l1.7 0l0.1 -10.5l-28.4 -0.1l0.1 1.4l-8.3 -0.3l-5.8 -0.3l-12.4 0.1l-17.6 0.1l-8.6 -0.3l-4.1 0.4l-28.9 -0.1l-24.3 0l-47.2 0.1l-63.8 0z"/><path data-id="06031" d="m398.5 764.6l3.8 0.2l3.2 3.4l0.3 1.4l-1.9 2.5l1.4 2.5l2.3 0.5l0.7 3.6l1.9 0l63.8 0l0.2 -20.9l0 -10.5l0 -10.5l0.7 -15.9l5.3 0.1l0 -3.5l-0.1 -12.5l-5.2 -0.1l0.2 -10.6l-4.5 0l-9.1 8.5l-0.5 -1.5l-3.9 1.4l-3.4 0.4l-0.7 1.7l-20 0.1l0 26.5l-34.6 33z"/><path data-id="06033" d="m128.9 373.4l-0.8 2.9l2.7 1l0.9 2l0 3.5l2.7 3.1l4 -0.1l0.9 1.8l0 4.5l0.8 1.8l2 0.9l0 3.2l3.6 -0.2l1.7 0.8l-0.1 1.8l1.8 1l3.6 0.9l1.8 2l1.3 1.7l1.2 0l2.3 1.9l2.3 2.2l0.1 2l1.3 1.2l1.5 3l0.9 2.6l1.8 2.6l4.4 0.6l1.9 4.8l15.9 -4.7l4.7 -7.8l1.3 -0.6l-0.9 -1.6l1.4 -2.3l1.8 0.2l0.6 -1.9l-0.8 -2.1l-2.1 -2.7l0.9 -1.1l-2.6 -5l1.7 -2.7l4.8 0l1.4 0.1l-3.2 -1.9l-3.5 -2.9l-1 -3.3l1 -2.2l-0.5 -1.7l-2.3 -0.1l-3 -2.9l-2.3 -1.2l0.6 -3.6l-1.4 -4.8l0.4 -2.4l1.8 0.1l-0.1 -2.3l0.2 -2l-1.6 -0.5l-0.4 -1.6l-1.5 -0.6l-0.2 -1.7l-5.7 0.6l-6 -2.4l-1.5 1.1l-1.5 -0.5l-1.5 -2.7l-7.5 -5.9l-1.6 -3.3l0.9 -3.9l1.3 -0.4l0.9 -2.8l-4 -1.9l4.5 0l-0.3 -6.5l0.9 -2l0 -5.4l-0.4 -1.9l0.1 -9.1l-3.6 0.2l-11 -0.1l-0.5 6.4l-4.5 -0.2l0 1.8l-8.6 -0.3l-3.7 1.9l0 6.4l-1 0l-0.2 5.7l1.8 0l-0.1 3.6l0.8 1.8l1 0l0 3.5l1.8 1.8l0 5.5l1.5 0l0.1 2.6l0.9 2.7l-1.7 0l0 1.9l-2.7 3.6l-0.6 2.4l-3.1 0l0 4.4l-0.7 5.4z"/><path data-id="06035" d="m299.6 139.6l-0.1 3.8l1.2 -0.1l-0.1 2.2l-0.2 50.2l-0.5 6.7l25.9 -0.1l0 24.3l1.9 0l0 2.8l3.7 0l0 1.8l5.6 0l-0.1 1.8l1.9 0l-0.1 1.9l3.7 0l1.8 -0.9l0 -5.4l1.8 0l1.9 -1.8l0 -1.9l3.7 -0.9l-0.1 -3l2.2 -0.1l0.9 -1.9l3.7 1l7.2 0.1l0.9 1.8l1.9 1l4.5 0l0 2.8l2.7 0l3.7 1.8l0 1.8l1.8 0l0.9 3.7l2.8 0l0.8 3.7l2.8 0.9l0.9 2.8l2.8 0.9l0 1.4l3.7 0.9l6.4 1l2.8 0.9l0 2.8l3.6 0l0.8 5.5l0 3.7l1.8 0l1.8 5.7l1.8 0.8l3.5 2.9l0 3.7l0.1 3.7l0 11l-0.3 3.6l-1.7 3.7l-1.8 0l-0.1 3.6l12.8 -0.1l1.4 -1.7l0 -1.5l0.1 -5.8l0.1 -9l0.2 -13.3l0 -14.7l0 -2.5l0 -4.4l0.1 -17.3l0 -7.5l0 -22.9l-0.2 -28.3l-0.1 -3.7l-0.1 -14.9l0 -41l-48.8 0l-80.8 0l0.1 32.2z"/><g data-id="06037"><path d="m565.1 1052.1l0.2 1l2.5 2.5l0.5 1l1.2 0.7l2.1 -0.1l1.4 0.5l0.7 1l1.2 -0.2l1.5 0.5l1 3.9l-0.4 1.9l-0.6 1.5l0.7 1.5l1.6 2.1l2.5 0.9l3.6 -0.3l2.7 0.1l1.4 0.6l1.7 1.2l1.8 0.7l1.9 -1.3l0.2 -1.2l-0.7 -1.8l-1.4 -1.5l-4 -4.6l-0.3 -2.2l-1.3 -0.4l-4 -2l-2.2 -0.2l-3.1 -2.3l-2.2 0.1l-3.1 -2.4l-1.3 -0.7l-4 0l-1.3 -0.5z"/><path d="m564.9 1104.2l-0.1 1.9l1 -0.1l2.2 5.3l1.2 1.3l0.9 1.5l1.5 4.5l1.1 1.3l1.7 2.3l1 2.9l2 1.1l3 2.5l1.6 1.6l2.7 -1.5l1.4 -0.6l2.6 0.6l-0.9 -2.2l-7.5 -6.5l-1.3 -1.6l-1.8 -1.3l-1.7 -1.6l-3.2 -4.3l-1.1 -1.2l-1.9 -2.9l-0.5 -1.4l-0.4 -1.2l-2.4 -0.8l-1.1 0.6z"/><path d="m532.2 982.3l-0.4 3.5l1.7 -0.1l3.1 0.8l4 0.6l1.4 0.8l1.8 1.6l1.6 1.5l1.8 -2.1l4.1 -1.4l1.2 -0.1l2.5 0.4l2.6 -0.5l1.1 -0.7l5.7 0.3l3.9 -0.6l2.5 0.3l2.3 1.3l1.6 1.4l1.8 2.1l2.3 3.3l1.8 3.4l2 4.5l0.9 2.1l2 5l0.1 3l-0.3 1.3l-1 0.5l-1.8 2.1l1.2 4.7l1.4 0.7l1.1 -0.6l2.4 0.5l2.7 1.8l1 0.6l2.5 0.8l1.9 0.1l1.8 0.4l2.5 -1.1l2 -0.9l2.8 -0.2l0 -1.5l-0.4 -1.5l0.7 -1.6l2.3 0.3l1 0.4l1.4 0.5l1.7 1.2l2.3 -1.8l-0.1 -3.2l0.8 -2l1.2 -1.4l0.8 -1l0.4 -1.3l0 -1.3l2 -2.3l2.6 -0.8l1.2 -1.7l2.2 -2.1l0 -4.6l1 0l4 0l13.9 -0.1l-1.9 -3.4l1.7 -3.4l1.7 0l0 -1.7l2.2 -0.1l1.4 -0.2l1.9 -6.8l0.7 -1.8l1 -3.1l1.5 -4.9l1.4 -6.7l0.7 -3.5l1 -4.6l-0.4 -5.9l-0.2 -2.6l-0.2 -4.3l-0.5 -12l-0.7 -7l0 -13.9l0 -17.4l-10.4 -0.1l-53.7 0.4l-25.4 0.2l-26 0l0 1.7l-2.3 0l-0.4 -1.7l-1.3 0l1.3 3.2l8.2 20.6l5.7 13.9l1.5 3.8l2.9 7.1l2.2 5.4l1.8 4.4l1.5 3.7l0.3 2.6l0.1 3.2l-1.5 0.2l-1.9 0.4l0 2.4l0 2l0 3.6l-2.5 0l-2.8 0.1l-6.4 0l-6.6 4.9l-8.2 6.1z"/></g><path data-id="06039" d="m376.4 626.9l-0.4 2.1l3.6 2.4l0.9 3.1l1.5 1.3l0.8 3.9l2.4 3.4l-1.6 2.6l1.3 1.1l-0.3 2.2l2.2 1.5l1.6 1.8l1.5 1.6l1.1 -0.2l1.9 1.7l-0.1 3.1l2.5 -0.2l-0.4 -1.4l1.3 1.7l3.4 0.8l1 1.8l0.5 -1.3l5.5 0.5l-0.4 -1.1l1.6 -1.2l1.5 -0.2l1.3 1.7l1.6 -3.2l1.6 0.5l1.8 -1.3l3.1 -0.5l2.4 -1.5l2.1 0.3l2.9 1l1.4 -1.7l2.2 -0.3l0.7 -1.3l1.7 1l2.3 -0.2l1.1 -1.1l2.3 -0.3l2.4 -1.5l1.4 0.8l3.2 -0.2l2.2 0.5l0.5 -1.5l2.1 -1.7l-0.1 -2.3l1.6 -2.8l1.4 -0.2l0.6 -1.8l1.8 -1.4l-0.6 -2.9l2.7 -2.6l0.8 -1l3.3 -1.1l1.2 -2.9l0.6 -1.1l1.9 0.4l0.2 1.1l1.1 0.3l0.6 -1.6l0.3 -2l0.2 -1l1.6 -0.6l2.2 0.6l0.6 -1.3l0.3 -1.3l1 -1.1l1.1 -0.9l-0.2 -1l-1.1 -0.9l-1.2 0.2l0 -1.4l0 -1.5l1.1 -0.5l1.3 1.4l1.3 0.6l0.4 -1.2l0.9 -1.4l1.5 0.6l0.7 1l-0.4 1.3l1 1.8l1.4 -0.6l0 -1.2l0.5 -2l1.5 -0.3l1.4 -0.9l0.5 -1.5l1.1 0.1l1.3 1.2l1.1 0.5l1.2 -0.7l0.5 -1.1l1.2 -0.7l0 -1.2l1.3 -1l0.9 -1.2l0.7 -1l-0.1 -1.3l-0.1 -1.5l0.3 -1.5l0.8 -1l-0.2 -1.2l-0.1 -1.3l-0.5 -1.3l0.4 -1.3l-0.2 -1l-0.5 -1.8l1.2 -0.9l0.4 -1l0.1 -1.1l0.4 -1.7l1.3 -1.5l1.2 -1.3l3.5 -3.5l4.3 -4.3l5.9 -6l3.1 -3.1l6.4 -6.4l2.6 -2.6l-1.2 -2.2l0.2 -3.3l-2.1 -1.8l-1 -4.8l-2.7 -2.3l-1.6 -2.6l-1.4 -1.1l-2.3 0.1l-2.2 -0.7l-2.7 0.2l-1.7 2.8l-2.2 -1.6l-1.5 0.3l-1.3 -1.7l-1.9 -0.7l-0.5 -2.8l-1.5 -1.2l-26.7 26.8l-0.1 8.1l-3 0l0 4.1l-3.5 0l0 5.3l-10.8 0.1l-28.2 28.6l-4.4 1.4l-6.6 1.1l-6.1 -0.1l-4.8 1.4l-1.3 -0.1l-1.4 1.4l-2 0.6l-1.6 1.4l-2.2 0.6l-2.1 -0.6l-2.1 1.7l-6.8 1.8l-6.3 6.3z"/><g data-id="06041"><path d="m191.1 526.8l1.2 1.1l1.5 0l0 -1.1l-0.3 -1l-1.6 0.2z"/><path d="m135.2 509.7l4.5 0.9l-0.5 -1l-0.1 -1l0.9 -1.4l1.5 -1l1.7 -0.4l5.6 0.8l2.5 1.1l3.4 2.5l2.3 2.5l1.4 3.1l1.7 1.6l1.1 0.3l1.7 1.2l0.9 2.6l2.4 1.3l2 -1.6l2.5 0.3l1.6 0.9l1.3 1.4l2.5 1.4l1.7 2l2.2 0.9l1.2 1.9l1.1 0.7l0.8 1.4l2.3 -0.4l2.1 -0.6l0.1 -4.6l-1.3 -0.8l-0.5 -2.8l1.7 0.4l2.1 2.6l1.2 -0.3l1.1 -1.2l-1 -1.6l-1 -0.1l-1.3 -1l0 -1l-0.6 -1l-1.5 -0.4l-0.9 -1.8l1.7 -0.1l0.5 -1l-1 -1.7l1.8 -2.8l1.5 0.3l0.8 -1.1l-0.4 -1l-1 -0.9l-1.8 -0.5l-1.3 -0.9l-0.5 -2.1l0.7 -3l0.8 -1.9l-0.3 -2.3l-0.4 -2.2l-1.4 -0.9l-0.7 -2.1l-3.1 -3.3l-1.3 -0.2l-1.2 -3.3l-5.3 0.6l-2.3 0.2l-1.8 -1.1l-3.3 -0.8l-2.1 -1.4l-1.6 0l-15.7 -13.6l-3.2 0.4l-3 -0.4l-3.6 2.6l0.8 1.6l0.8 1.2l1.9 2.8l-0.1 1l-1.8 0.7l1.8 4.3l0.3 1.9l1.1 1.4l0.4 1.4l0.1 1.2l-0.3 1.9l-0.9 3.2l-3.1 8.8l-1.9 4.7z"/></g><path data-id="06043" d="m390.8 549.7l0.4 1.4l0.9 1l0.1 1.3l-0.6 1l6.3 14.5l0.7 2.8l1.2 1l1.9 3.8l0.4 1.8l-0.9 1.5l1.8 3.8l4.8 7.7l1.3 2.9l2 2.7l-0.4 1.4l0.9 2.3l3.3 2.7l5.6 2.5l2.3 2.5l1 1.8l28.2 -28.6l10.8 -0.1l0 -5.3l3.5 0l0 -4.1l3 0l0.1 -8.1l26.7 -26.8l-0.1 -1.6l-1.5 -1l-2.2 -1.3l-1.8 -2.7l-1 -1.1l-1.2 0.2l-1.6 -1.5l-1.7 -1.5l-2.1 -0.8l-2.5 0.9l-2 -0.2l-1.5 -1.4l-2.3 -2.3l-2.6 -1l-1.7 0.7l-1 2.6l-0.8 1.1l-1.2 1l-1.2 0.5l-1.9 0.6l-1.4 1.2l0.1 2.4l-4.1 2.8l-3.8 1.2l-1.7 1.4l-1 0.4l-1.3 0.7l-2.1 0.5l-1 0.7l-1.6 -0.4l-1.4 -1.2l-1 0.9l-1.4 -0.2l-0.8 -1.1l-0.8 1.1l-1.4 0.3l-1.2 0.4l-1 -0.4l-1.3 -0.4l-1.2 0.2l-1.8 -1.5l-1.8 -1.5l-2.4 -1.3l-1.6 -1l-1.8 -0.5l-1.4 -0.3l-0.8 -1.1l-1.1 -0.6l-1.3 -0.4l-0.9 1.3l-0.6 1.1l-1 1.1l-1.1 1.1l-1.2 0.9l-1.2 -0.1l-1.2 -0.6l-1.1 -0.1l-0.9 -1.1l-1 0.5l0 1.4l-0.1 1.1l-1.1 0.8l-1 0.8l-1.1 -0.1l-1.1 0.3l-1.1 -0.3l-0.1 1.1l-1.6 0.8l-0.5 1.4l-1.2 -0.1l-1 -0.7l-0.2 1.3l-1.2 -0.1l-1.8 -0.1l-1.4 0.7l-1 0.3l-0.2 1l0.3 1l0.8 1.6l0.7 1.2l1.2 2l0.2 1l-0.6 1.4l-1.3 0.3l-1.1 -1.4l-0.9 -1.4l-1.3 -0.3l-1.6 -0.8l-1 -0.3l-0.5 1z"/><path data-id="06045" d="m37.5 259l2.7 3.6l1.5 1.3l1.7 3.2l0.7 1.9l2.4 1.6l1.4 3.6l0.8 2.3l2.6 2.2l2.7 1.4l1.4 4.9l0.3 2.5l-0.1 3l0.3 1.7l0.3 1l0.2 1l2.1 1.5l1.5 3.4l0.6 3.1l0.4 4.9l-0.1 1.5l1.6 6.2l-1.1 4.9l-0.5 1.5l-1.1 2.2l-1.9 5.8l-0.7 5l0 3.4l-0.4 1.4l0.1 1l0.3 2.1l1.3 2.4l-0.3 1.5l0.8 2.7l0.1 1l0.3 1.5l1.1 0.9l1 3.4l0.2 3.2l0.9 2.3l2.3 3.7l0.4 2.7l1.6 2.3l0.8 2.1l1.9 6.4l0.4 3.3l-0.1 1.2l-0.6 2.1l-1.4 3.4l-1 1.7l-1.1 1.1l0.6 2.3l0.1 2.4l1.4 0.5l2.2 2.5l2.7 2.6l0.7 2.3l0.5 1.1l4.1 2.8l0.5 1.1l1.3 1.4l1.4 0.6l2.9 2.7l0.8 1l1.2 1.2l2.1 -2.5l5.4 0.2l7.4 0l0 -3.7l22.6 -0.3l0 -3.8l5.4 0.1l0 -1.8l25.2 0.3l-1.8 -2l-3.6 -0.9l-1.8 -1l0.1 -1.8l-1.7 -0.8l-3.6 0.2l0 -3.2l-2 -0.9l-0.8 -1.8l0 -4.5l-0.9 -1.8l-4 0.1l-2.7 -3.1l0 -3.5l-0.9 -2l-2.7 -1l0.8 -2.9l-0.2 -5.4l0.9 -4.4l3.1 0l0.6 -2.4l2.7 -3.6l0 -1.9l1.7 0l0 -2.6l-1 -2.7l-1.5 0l0 -5.5l-1.8 -1.8l0 -3.5l-1 0l-0.8 -1.8l0.1 -3.6l-1.8 0l0.2 -5.7l1 0l0 -6.4l3.7 -1.9l8.6 0.3l0 -1.8l4.5 0.2l0.5 -6.4l0.1 -3.9l-0.6 -1.5l-0.2 -10.9l-2 0l0 -5l-2.5 0l0.1 -6.3l-0.9 -4.4l-1.3 -1.6l0.6 -1.2l0.6 -5l-0.2 -1.7l2.9 -1.2l1 -2.4l-1.7 -1.1l0 -3.3l-60.1 -0.8l0 -3.2l-46.7 0.1z"/><path data-id="06047" d="m307.9 629.2l1.2 1.7l0 1.5l-1.2 2l3 2.7l-1.9 4.2l1.3 2l2.3 -0.5l1.4 0.8l0 1.4l1.4 1.3l0.6 2l1 0.4l1.1 3.5l20.2 10.3l1.5 1.4l25.6 -25.8l6.4 0l0 -3.5l0.5 -1.2l-1.3 -0.9l5.5 -5.6l6.3 -6.3l6.8 -1.8l2.1 -1.7l2.1 0.6l2.2 -0.6l1.6 -1.4l2 -0.6l1.4 -1.4l1.3 0.1l4.8 -1.4l6.1 0.1l5.7 -0.5l5.3 -2l-1 -1.8l-2.3 -2.5l-5.6 -2.5l-3.3 -2.7l-0.9 -2.3l0.4 -1.4l-2 -2.7l-1.3 -2.9l-4.8 -7.7l-1.8 -3.8l0.9 -1.5l-0.4 -1.8l-1.9 -3.8l-1.2 -1l-0.7 -2.8l-6.7 -13.9l-41.6 20.4l-6.9 3.3l-9.5 5l-0.9 1.8l1.6 1l0 3.4l1.2 0.4l-10 10.2l-15.6 15.7l0.9 1.4l-1.3 3.2l-1.5 0.9l3.5 2.6l-1.4 1.3l-0.1 2.2l-2.1 1.7z"/><path data-id="06049" d="m287.3 7.8l0 22.7l0.8 45.2l0.2 31.9l11.2 -0.1l80.8 0l48.8 0l0 -41l0.1 -15.5l0 -17.1l-0.1 -16.3l0 -15.7l-17.8 0l-10.2 0.2l-3.9 0l-17 -0.1l-14.2 0.1l-4.4 -0.1l-11.7 -0.1l-6.5 0.1l-15.1 0.1l-5.8 -0.2l-3 -0.2l-11.8 -0.1l-6 -0.1l-2.4 0.1l-2.5 -0.1l-1.5 0l-5.7 0l-1.3 0l0 6.1z"/><path data-id="06051" d="m463.3 473.9l0.8 1.3l2 1.7l0 1.1l0.6 1.7l-0.3 1.3l-1 1.4l0.2 1.5l-0.5 1.3l3.1 1.9l1.6 0.1l0.4 2.4l1.2 0.9l1.1 0.1l1.3 1.3l1.1 0.1l1.6 0.8l0.7 -1l0 -1.3l1.6 2.2l1.1 0.9l0.6 1.7l0.9 1.3l1.1 0.8l1.3 -1l1 -0.6l2.2 0.7l1.4 0.9l1.4 0.8l2.1 1l1.9 2.4l1.7 2.2l0.9 2.1l-0.1 2.9l-0.9 2.7l-0.4 2l1 2.1l2.8 2.3l1.8 1.7l1.4 1.1l1.2 -0.1l1.5 1l1 0.5l0.6 1.1l-0.6 3.3l-0.1 1.1l1.3 0.8l-0.4 1.4l-0.6 1.3l0.1 1.3l0.8 2.6l-1.6 1.6l-1 0.7l-1.4 1l-0.6 1.2l-0.4 1.1l-0.9 1l0.8 1.9l1.5 -0.3l2.2 1.6l1.7 -2.8l2.7 -0.2l2.2 0.7l2.3 -0.1l1.4 1.1l1.6 2.6l2.7 2.3l1 4.8l2.1 1.8l-0.2 3.3l1.2 2.2l2 1.8l1.7 0.5l0.8 1.3l2.4 -1.1l2.2 2.1l1.2 -0.2l1.5 2.3l1.7 1.4l0.2 1.2l2 1.1l1 3.2l3.4 -1.5l1.8 -0.1l2.1 3.1l91.7 -0.2l-4.2 -4l-2.8 -2.3l-6.9 -6.6l-6.2 -5.6l-1.2 -1.2l-19.3 -17.7l-17.2 -15.7l-7.1 -6.5l-6.9 -6.3l-4.8 -4.3l-9 -8.4l-3.1 -2.8l-2.5 -2.1l-8.5 -7.8l-6.2 -5.6l-2.6 -2.4l-5 -4.3l-2.8 -2.7l-5.1 -4.5l-1.4 -1.4l-2.8 -2.5l-3 -2.7l-7.6 -6.7l-1.6 -1.5l-2.8 -2.4l-4.8 -4.3l-4.1 -3.5l-7.9 -7l-4.2 -3.7l-8.9 -7.9l-1.3 5.2l-1.6 0.6l-0.4 7.6l1.9 1.4l1.2 4.4l1.9 2.6l1.2 2.6l0 1.9l1.3 0.2l0 2.2l-1.3 1.4l-0.1 2.8l-1.3 1.6l0.8 3l-3 1.5l-2.9 0.6l1.4 3.4l-2.7 1.6l-0.4 3.3l-0.3 1.3l-0.1 1.5l0 1.4z"/><path data-id="06053" d="m236.6 683.3l2.1 2l1.5 -0.2l1 0.8l0.6 4.2l-1.8 0.4l0.1 1.2l0.5 1.9l-0.2 1.4l0.5 1.6l1.1 2.2l1 3.4l-0.3 1.3l0.3 1.3l1 1.3l0.1 1.4l-0.1 2.2l0.9 2.9l-0.2 2.7l0.6 1.8l1.3 1.7l2.2 1.4l1.2 2.1l0.3 1.2l0.9 1.1l1.2 0.9l1.7 0l1.7 0.8l6.1 3.9l3.6 3.5l4.9 6.2l0.7 1.8l0.3 1.4l1.2 1.9l1.4 0.8l0.4 1.4l1.4 3.4l2 0.6l2.1 0.7l2 0.9l2.4 4.4l1.3 6.1l0.9 1.9l0.1 2.3l2.2 2.2l1.2 0.8l1.3 0.6l0.6 1.3l1.8 2.5l3 2.3l1 1.1l58 0.5l48.6 0.3l3.6 0l-0.7 -3.6l-2.3 -0.5l-1.4 -2.5l1.9 -2.5l-0.3 -1.4l-3.2 -3.4l-3.8 -0.2l-2.1 -1.9l0 -1.7l-2 -1.3l-0.3 -1.9l-4.7 -1.4l-2.5 0.8l-1.6 -2.3l-2.7 -1.5l-0.1 -1.1l-6 -3.2l-0.5 -1.1l-2.1 -0.8l-2.5 -2.3l0.2 -2.2l-1 -1.4l-1.4 0.8l-3.3 -1.5l-0.7 -2.9l-1.2 -0.8l0 -2.7l1.3 -0.9l1.6 -3.6l1.1 -0.7l-2.4 -3.3l-3 -2.5l0.3 -2l-1.9 -1.9l-2.4 -1.2l-2.3 -2.1l-1.1 0.2l1.5 1.3l1.1 2.7l1.4 1.9l1.1 3.9l0 2.9l-1.2 0.8l-1.4 -0.9l-1.1 0.6l-1.1 -0.5l-1.1 -0.8l-0.6 -1.3l-1.2 -1.1l-1 -0.8l-1 -0.5l-0.6 -1l-1 -0.9l-1 -0.5l-0.8 -1.1l-0.4 -1.2l-1.1 -0.8l-1.2 -0.9l-1.1 -0.3l-1.3 0.4l-1 -1.2l-1.3 -0.9l-1 0.4l-1 1.4l-0.3 1l-0.9 1.1l-1.3 -0.7l-1.1 -1l-1 0l-0.2 1.2l-0.3 1.2l-1 0.3l-1.1 0.2l-1.1 0.7l0 -1l-1 -0.1l-0.3 -2.4l0 -3.9l-6.1 -6.1l-2.2 -2.2l-5.1 -5l-2 -2.7l-1.2 -1.3l-1 -0.9l-0.8 -1.3l-0.8 -1.7l-0.8 -1l-1.6 0.4l-1.5 0.1l-1.6 -0.5l-1.2 0.5l-0.2 -1l0.7 -1.3l0.4 -1.1l-0.8 -1.3l-1.1 -1l-1.2 -0.8l-0.2 -1.3l0 -1.1l0.4 -1.3l0.2 -1.2l0.5 -1.2l-1 -1.6l-1 -1.2l-0.2 -1l-0.8 -1.3l-1.2 -0.8l-1.4 0.2l-1 -0.1l-1.7 -0.1l-0.7 -1.3l-1.1 -1l-1.4 -0.3l-1.1 0l-1 -0.9l-1 -0.3l-0.5 -1.1l-0.8 -1.1l-0.2 -1.2l1.4 -0.3l1.4 -0.5l-0.4 -1.5l-0.3 -1l-1.2 -0.8l0 -1l-1.5 -0.7l-2.9 -1.1l-3.5 -3.7l-4 -4.3l-2.4 -1.1l-2 -3.3l-0.1 -2.5l-1.7 -2.5l-1.9 1.3l-1.9 -2l-1.5 1.3l-2.9 -0.1l-2.6 3.1l-1.4 -0.2l-2.3 4.2l1.8 4.3l0.3 1.4l-1.7 6.5l-0.1 4.4l-0.7 3.8l-1 3.1l-0.7 1.5l-1 1.8l-1.8 2.3l-1 0.8l-1.5 0.4l-3.6 -4l-1.3 -0.3l-0.5 2.2l-2.8 4.3z"/><path data-id="06055" d="m173.4 432.4l-1.8 3l2.5 4.8l1.8 0.4l2 1l1.5 3l2.2 0.7l-0.5 1l1.3 1.3l0.6 3.9l1.3 -0.2l0.6 1.6l2.6 0.7l0.3 1.2l-1.7 2.3l4.8 5.6l-0.9 1.5l3.2 2.8l2.9 5l-1 2.9l1.7 1l-0.3 1.6l1.5 2l1.5 4.3l0.9 2l-1 -0.4l-1.1 4.9l-3.5 0.3l20.6 0.1l-0.1 -1l-1.9 -2.1l0.9 -3.5l1.1 -0.7l-0.2 -2.1l-1.5 -2.7l1.4 -0.8l-2 -0.5l0.4 -1.3l2.3 0.1l-1.5 -2.6l-0.2 -2.8l7 0l6.7 0l0.3 -1.7l-1.2 -3.9l-1.5 -2.9l-2.8 -3.7l-0.8 -1.8l0.3 -2.3l1.8 -5.4l0.2 -2.8l-0.8 -1.3l-1.6 -7.4l-2.3 -5.2l-1.6 0.7l0.7 -2.1l-0.7 -2.4l-1.5 -0.2l-2 -2.5l-0.5 -2.3l-1.6 -0.6l-0.1 -2.8l-2.4 -4.1l-0.9 -4.3l-1.4 -2.4l-1.4 -3.8l-2.7 0.1l-1.1 -0.8l-2.3 1.3l-3.4 -2.1l-1 -1.5l-0.9 1.1l2.1 2.7l0.8 2.1l-0.6 1.9l-1.8 -0.2l-1.4 2.3l0.9 1.6l-1.3 0.6l-4.7 7.8l-15.9 4.7l-0.1 5.5z"/><path data-id="06057" d="m304.6 356.4l0 24.6l4.6 1.3l1.5 1.5l3 0l4.8 -3.1l3.2 3.3l1.4 -0.3l2.2 1.1l2.5 -1.1l1.2 -3.1l2 -1.7l0.1 -1.1l1.5 -2l0.5 -3.2l-0.3 -1.1l1 0.1l3.1 -4.1l3.5 -2.6l4.1 -2.1l1.1 -3.2l4 -3l1.2 -0.4l4.6 -3.9l2.8 -3l3.5 -2l4.5 -1.4l8.9 -0.1l22.6 -0.1l27.8 0l2.6 0l0.6 -1.8l0 -5.6l0.1 -8.8l-3.1 0l-3.4 0l-2.5 0l-2.5 0l-3.5 0l-4.2 0l-5 -0.1l-6 0l-6.9 0l-3 0l-3.3 0l-3.2 0l-1.5 0l-1 -0.2l-0.5 -1l-1.1 -0.3l-1.1 -0.8l-0.2 -1.4l-0.2 -1.1l-0.7 -1l-0.6 -1l-0.5 -1l-0.3 -1.1l-1.1 -0.5l-1.1 -0.4l-1 0.1l-1.1 0.1l-1 0.1l-1 -0.1l-1.3 -0.4l-1.2 0.1l-1.4 0.2l-1 0.4l-0.8 1l-1 0.9l-1 0.6l-0.5 1.1l-0.5 1l-0.9 1l-1 0.6l-1.1 1.2l-1 0.5l-1.1 0.6l-1.1 0.4l-1 0.7l-1 0.6l-1.2 0.4l-1.1 0l-1.1 -0.3l-1 0.5l-1 0.1l-1 0.4l-1.1 -0.1l-1.1 0.3l-1.2 0.4l-1 -0.1l-1.1 0.7l-1.3 0.3l-1.1 -0.1l-1.6 0.1l-1 0l-1 0.7l-1 0.2l-1.3 0.7l0.1 1l-1 0.6l-2 0.6l-4.2 -0.8l-1.6 1.7l-2.6 0.1l-2.7 4l-0.2 1.8l-2.2 -0.6l-2.7 2.8l0.6 1.8l-2 2.5l-1.9 -0.2l-2.5 1.4l0.7 2l-2 3.3z"/><path data-id="06059" d="m612.5 1021.2l1.4 1l1.2 0.5l2.3 2.2l3.2 3.8l3 2.9l5.8 4l1.3 1.7l2.7 0.7l2.2 0.9l3.6 2.2l2.5 2.5l1.3 0.7l1.6 0.6l2.3 2.9l2.8 3.2l1.7 3.3l2.3 0.8l4.5 1.6l1.4 1.2l2.3 2.8l1.1 2.2l1.7 -7.8l3.9 -0.2l2.9 -1.6l-0.1 -4.1l0 -3.4l5.1 -8l4.4 -6.6l-6 -5.2l-5.8 -0.8l-0.2 -5.5l-3.2 -0.8l-1.1 -0.6l-7.9 -10.3l-1.2 -0.1l-0.1 -1.3l-0.5 -1l-10 -8.1l-13.3 -0.1l-4.6 0.2l-1 0l0 4.6l-1.7 2.1l-1.7 1.7l-1.7 0l-2.9 3.1l0 1.3l-0.4 1.3l-0.8 1l-1.2 1.4l-0.8 2l0.1 3.2l-2.3 1.8z"/><path data-id="06061" d="m284.7 416.4l0 2.1l10 0.8l7.1 0.6l6.4 0.6l2.5 0.3l6.3 0.6l1.1 -0.1l3.7 -9.2l0.2 -3.7l1.5 -0.1l-0.4 -1.7l1.5 -1.7l1.2 -0.4l0.7 -2.8l-0.8 -1.6l1.7 -1.2l-0.9 -1.1l1.3 -2l3.8 -0.3l0.9 -1.2l2.5 -0.7l2.7 -0.4l-0.2 -3.4l3.9 1.1l4 0.1l0.8 -3l1.6 0.5l0.4 -1.9l1.7 -1.6l1.4 0.5l3.3 -1.7l1.8 -0.1l1.6 0.8l1.3 2.2l1.2 0.7l1.6 -1.1l0.4 2.8l4 2.9l2.9 0.2l1.8 0.9l2.1 2.7l1.6 -0.1l1.1 -1.4l3.2 -0.6l1.9 -1.5l0.6 -1.9l1.5 -0.8l2.5 -6.5l1 -1.4l10.4 0.7l8.5 -0.2l5.5 -0.9l1.9 -0.9l1.2 -0.9l0 -1.8l14.6 -0.9l-0.1 -5.7l-0.1 -6.6l-0.1 -7.5l0 -6.7l0 -1.6l0 -2.8l-3.1 -0.4l-27.8 0l-22.6 0.1l-8.9 0.1l-4.5 1.4l-3.5 2l-2.8 3l-4.6 3.9l-1.2 0.4l-4 3l-1.1 3.2l-3.9 1.3l-3.7 3.4l-3.1 4.1l-1 -0.1l0.3 1.1l-0.5 3.2l-1.5 2l-0.1 1.1l-2 1.7l-1.2 3.1l-2.5 1.1l-2.2 -1.1l-1.4 0.3l-3.2 -3.3l-4.8 3.1l-3 0l-1.5 -1.5l-4.6 -1.3l-2.6 -2.3l-2.5 1.4l-3.3 1.3l-4.8 4.4l0 8.8l-5.3 0l0 21.7l-1.4 0.1z"/><path data-id="06063" d="m283.4 202.4l0 1.7l2.3 1.1l-1 3.5l1 2.8l-0.7 1l0.8 1.9l4.2 0.2l1.7 1l2.9 0.3l1.3 1.9l2.6 2l-1.4 1.6l-2 -0.1l2.6 2.8l0.1 1.5l-1.8 2.4l0.5 2.5l-0.7 1.7l-1.6 0.2l-2.2 2.4l-3.1 -0.5l-0.6 2.2l0.8 3.3l3.2 0l0 4.6l2.8 0.9l0 2.9l1 0l-1.5 4.4l-1.8 0l0 2.7l-1.9 1.9l0 3.6l0.9 3.7l-1 3.7l0.9 1.8l-1.9 0l0 1.8l1.8 0l-0.1 3.7l3.1 2l1.8 0l1 3.8l1.8 0l0 1.9l1.3 0l0.1 1.8l3.1 1.9l-0.1 1.8l1.7 -0.1l0 1.8l1.7 0l0.2 1.8l1.8 0l0 1.8l1.8 0l0.2 3.2l1.8 0.1l0 1.8l1.9 0l0 1.8l1.6 1.8l1.8 0l0 3.6l3.8 0.9l0.8 2.2l1.2 0.8l6.5 -5.3l1 0l1.2 -0.7l1.1 -0.7l1 -1.2l0.7 -1l0.7 -1l1 -1.3l0.6 -1l0.2 -1.2l0 -2.8l1.4 -3.3l1.1 -0.7l1.1 -0.3l2 -1.6l1 -0.3l1.5 2l1.1 1.5l1 0l1.1 0.3l0.6 1.1l0.4 1.6l1 0.5l1.4 1.1l1.3 -0.7l1.5 -0.4l1.5 1l2 0.5l1.3 1.3l1.4 1.1l1 1.1l1.6 -0.6l1 -1.2l0.2 -1.2l1.1 -0.7l1.6 0l3.8 0l3.5 0l2 0l4.8 0l7.6 -0.3l4.5 0l3.6 0l5.7 0l5.7 0.1l5.6 0l0.1 -3.6l1.8 0l0.8 -3.7l1.2 -3.6l0 -11l0.8 -3.7l-0.9 -3.7l-3.5 -2.9l-1.8 -0.8l-1.8 -5.7l-1.8 0l0 -3.7l-0.8 -5.5l-3.6 0l0 -2.8l-2.8 -0.9l-6.4 -0.1l-3.7 -1.8l0 -1.4l-2.8 -0.9l-0.9 -2.8l-2.8 -0.9l-0.8 -3.7l-2.8 0l-0.9 -3.7l-1.8 0l0 -1.8l-3.7 -0.9l-2.7 -0.9l0 -2.8l-4.5 0l-1.9 -1l-0.9 -1.8l-7.2 -0.1l-3.7 -1l-0.9 1.9l-2.2 0.1l0.1 3l-3.7 0.9l0 1.9l-1.9 1.8l-1.8 0l0 5.4l-1.8 0.9l-3.7 0l0.1 -1.9l-1.9 0l0.1 -1.8l-5.6 0l0 -1.8l-3.7 0l0 -2.8l-1.9 0l0 -24.3l-25.9 0.1l-1.8 -0.6l-1.9 0.5l-12.8 0z"/><path data-id="06065" d="m655.3 1004.1l0.3 2.1l-0.1 1.5l1.2 0.1l7.9 10.3l1.1 0.6l2.6 0.7l0.8 5.6l5.8 0.8l6 5.2l-4.4 6.6l-5.1 8l0 3.4l14.2 0l-0.6 1.7l4.7 1.8l6.1 2.4l1.7 0.6l0.4 2l9.4 -0.1l5.1 0.3l5.6 0l16.7 0.4l3.7 0l69 0.1l2.7 0l60.1 -0.1l62 -0.4l19.8 -0.4l0.5 -1.6l-0.1 -1l1 -1.7l1.1 -1.3l0.4 -1l0.6 -1l1.1 -0.9l1.1 -0.3l0.8 -1.1l0.1 -1.4l1.7 -1.3l1.7 -1.1l-1.1 -1.9l-0.4 -1.3l0 -1.3l1.1 -1.8l0.3 -1.2l-0.4 -1.3l0.3 -1.1l-0.3 -1.2l0.4 -1.1l-0.2 -1.1l-0.3 -1.1l0.7 -1.3l1.2 -0.6l1.5 -0.7l0.2 -1.3l-0.3 -1.4l-0.7 -1.1l-0.4 -1.6l0.3 -1.1l-0.1 -1.1l-1.1 -3.3l-0.3 -1.3l-0.8 -1.8l0.8 -1.2l-0.3 -1.2l-0.6 -1.5l0.3 -1.1l1 -0.1l1.1 -0.8l0.3 -1.3l-1.3 -1.3l-0.1 -1.1l1 -1l-1.1 -1.7l-1 -0.8l-0.6 -1.3l0.7 -1.5l1.2 -1.2l1.6 -0.4l1.5 -1.6l0.9 -1.1l0.8 -1l0.6 -1.3l1.2 -0.9l1.1 -1.2l0.3 -1.7l-0.4 -1.5l0.1 -2.5l-76.9 -0.7l-8.6 0l0 5.1l-36.7 -0.1l-28.3 0l-30.8 0.1l-20.6 0.2l-20.2 -0.1l-20.4 0l0 3.4l-17.1 0.1l-1.6 0l-8.9 0l-1.3 -1.7l-4.4 0l-9.7 -0.1l-0.5 -1.7l-14.5 0l-3.3 0l0 1.7l0 3.6l-5.1 2l-0.1 5.5l-4.3 0.1l0 4.2l-2.1 0z"/><path data-id="06067" d="m248.1 501l1.8 2.3l0.9 2.6l1.6 1.2l1.4 -0.1l1.2 0.4l5 -1l3.7 -2.3l1.8 -2l0 -2.6l0.9 -1.4l1.1 -0.3l2.3 1.2l1 -1.5l2.2 -0.2l2.4 0.7l1.4 -1.3l-1.8 -1.8l2.5 -2l0 -1l2.2 -1l1.1 -2.8l-0.4 -2.4l2.4 -2.3l-0.3 -1.2l1.5 -0.6l1.1 -3.2l1.8 -0.7l1.3 0.5l1.9 0l1.8 2.8l6.5 0.5l4.9 -1.3l1.1 -1.4l1.2 -0.3l2.1 0.8l2.4 0.1l2.8 -1.4l2 0.1l2.5 -1.1l1.9 -1.7l3.1 -0.5l3 -2.2l1.8 1l1.9 -1.1l0 -25.8l-5 -15.5l-3.8 -10.5l-1.4 1.5l-1.9 -0.7l-6.3 -0.6l-2.5 -0.3l-6.4 -0.6l-7.1 -0.6l-10 -0.8l-7.4 -0.2l-4.1 0.1l-0.3 2.2l-2.7 4l3.9 5.2l2.8 0.2l1.1 4.9l4.1 0.3l0.5 1.8l-1.4 2.5l0.8 3.1l-1.8 1.5l0.6 1.3l-2.6 0.7l-0.7 1.5l1.6 3.2l3.7 0.9l-0.1 4l-2.5 1l1.5 2.7l-0.5 5.9l-3.7 2.2l-1.5 1.8l-1.8 1.7l-1.2 2.2l0.3 9.3l-1.3 3.1l-1.6 0.2l-3 1.5l-2.2 2.8l-0.6 3.3l-1.4 2.6l-0.5 3.3l-1.9 0.4l-1.1 -0.6l-5.2 3.3l-3.1 -0.7l-1.5 -1.3l-1.7 0.7z"/><path data-id="06069" d="m269.2 645.3l0.1 2.5l2 3.3l2.4 1.1l3.6 3.9l3.9 4.1l2.3 1.3l1.2 -0.4l0.9 1.9l1.2 0.8l0.3 1l0.7 1.1l-1.1 0.8l-1.2 0.3l-0.6 1.3l0.8 1.1l0.5 1.1l1 0.3l1 0.9l1.1 0l1.4 0.3l1.1 1l0.7 1.3l1.1 0.1l1.2 0.1l1.4 -0.4l1 0.7l1.2 1.2l0.4 1.4l1 1.2l1.1 1.1l-0.6 1.7l-0.2 1.2l0.2 1.2l-0.6 1.2l0.2 1.3l1.2 0.8l1.1 1l0.8 1.3l-0.4 1.1l-0.7 1.3l-0.3 1l1.2 -0.3l1.3 -0.1l1.6 0.4l1.6 -0.2l1.3 0.1l0.8 1.5l0.1 1.5l1.4 0.6l1.2 1.7l2.5 3.2l5.1 5l2.2 2.2l6.1 6.1l0 3.9l0.2 2.4l1 -0.5l2.77556e-17 1.1l1 0.1l1.1 -0.2l1 -0.3l0.5 -1.5l0.2 -1.2l1 0l1.1 1l1.3 0.7l1 -1l0.2 -1.1l1 -0.9l0.2 -1l1.2 0.3l1.3 1.1l1 0.7l1.3 -0.3l1 0.4l1.1 0.9l1.2 1l0.2 1.4l1.1 0.8l1.1 0.6l0.5 1l1 0.8l1.1 0.8l0.8 1l1.5 1.2l0.4 1.1l1.1 0.6l1.8 -0.5l1.4 0.9l1.2 -0.8l0 -2.9l-1.1 -3.9l-1.4 -1.9l-1.1 -2.7l-1.5 -1.3l1.1 -0.2l2.3 2.1l2.4 1.2l1.9 1.9l0.6 -1.6l-1 -1.7l2.3 -2.6l2.8 -0.1l3.3 -1.4l-0.1 -19.3l-31.3 -30.6l-1.5 -1.4l-20.2 -10.3l-1.1 -3.5l-1 -0.4l-0.6 -2l-1.4 -1.3l0 -1.4l-1.4 -0.8l-2.3 0.5l-1.3 -2l1.9 -4.2l-19.7 0.1l-3.3 -3.4l-1.6 1.5l-2 -0.8l-1.2 1.4l-0.8 1.9l-0.4 1.3l-2 1.7l-0.5 1.2l-2 2.9l-1.5 0.5l-3.1 -0.7l-2.2 -1.5l-1.4 2.2z"/><path data-id="06071" d="m644.7 990.5l-1.7 3.4l1.9 3.4l10 8.1l0.4 -1.3l2.1 0l0 -4.2l4.3 -0.1l0.1 -5.5l5.1 -2l0 -3.6l0 -1.7l3.3 0l14.5 0l0.4 1.7l9.8 0.1l4.4 0l1.3 1.7l8.9 0l1.6 0l17.1 -0.1l0 -3.4l20.4 0l20.2 0.1l20.6 -0.2l30.8 -0.1l28.3 0l36.7 0.1l0 -5.1l8.6 0l77.1 -0.2l0.2 -1l0.7 -1l1 -1.3l1 -0.5l1.4 0.2l1.1 -0.7l1 -0.2l1.3 -1.5l2 -0.5l1.1 -0.3l1.2 -0.9l1.9 -2.6l1.7 -0.6l2.1 -0.2l1 -0.7l1.4 -0.8l0.4 -1.7l1.1 -0.8l2.4 -2.6l1.2 -1.1l1.1 -1.1l1 -0.9l1.1 -0.2l1.1 -0.5l-0.2 -1.2l-0.1 -1.6l0 -1.5l-1.9 -2l-1.1 -2.6l-0.8 -1.1l-1.3 -0.8l-2.2 -0.7l-1.2 -0.4l-0.7 -1.3l-1.1 -1.1l-1.8 -1.8l-1.5 -0.2l-1.1 -0.7l-0.1 -1.1l-0.9 -1l-1.1 -0.7l-1.4 -0.6l-0.6 -1.2l-2.2 -0.2l-1.7 0.3l-1.3 -1.3l0.3 -1.5l0.1 -2.2l0.2 -1.2l0.3 -1l0 -1.1l-0.3 -1.6l-0.9 -1.6l-1.5 -3.1l-1.7 -1.3l-0.7 -1.3l0.5 -1.1l0.1 -1.2l-1.4 -1.3l-0.3 -1l0.1 -1l-0.4 -1l-0.7 -1.2l0 -1.1l-0.5 -1l-0.6 -1.2l-0.6 -1.9l-0.3 -1.1l-1.2 -0.6l-0.9 -1.1l-1.2 -0.8l-1.3 -0.7l-0.9 -1.2l-1.4 -1.2l-1.2 -1.2l-1.8 -3.2l-0.3 -1.4l-0.2 -1.1l-0.5 -1.3l-0.6 -1.1l-1.3 -1.3l-1.9 -1.2l-1.1 -1.1l-0.5 -1.1l-0.2 -1.3l0.1 -1.1l0.4 -1.4l-0.3 -1.6l0.1 -1.1l0.2 -1l-0.2 -1.5l-0.3 -1.6l0.6 -1.9l0.1 -1.3l-0.4 -1.1l-16.6 -16.4l-11.8 -11.6l-1.6 -1.5l-9.9 -9.8l-5.3 -5.1l-2.7 -2.6l-1.9 -1.9l-1.4 -1.3l-10.9 -10.6l-3.2 -3.1l-6.1 -5.9l-2.4 -2.3l-1.2 -1.2l-9.5 -9.1l-12.2 -11.8l-2.1 -2l-8.5 0.1l0 1.9l-89.1 -0.2l-95.6 -0.2l-0.1 10.5l-1.7 0l0 3.5l3.5 0l0 3.5l-1.7 0l0.4 10.5l-0.3 13.5l0.2 21.1l0 21l-0.1 32.7l-3.4 0l0 17.4l0 13.9l0.7 7l0.5 12l0.2 3.7l0.2 3.2l0.4 5.9l-1 4.6l-0.7 3.5l-1.3 6.4l-1.6 5.2l-1 3.1l-0.7 1.8l-1.9 6.8l-1.4 0.2l-2.1 -0.4l-0.1 2.2l-1.7 0z"/><path data-id="06073" d="m663.1 1062.8l2.4 1l2.3 1.6l4.1 3.7l3.5 4.4l2.4 3.2l4.2 6.4l1 1.3l2.8 4l3.3 5.4l1.3 3.3l0.5 2.2l1.6 4.6l1.2 2.6l0.3 1.4l1.7 8l0.6 3.6l0.3 3l-0.5 1.7l-0.8 1.2l-1.6 0.7l0 2.4l1.9 2.2l0.6 1.9l0.2 3.9l-0.5 3.1l0.2 3l0.9 3.5l1 -0.2l1.2 -1.4l1.1 -0.5l1.6 -0.1l1.6 0.8l1.1 1.1l0.9 1.3l2 3.9l0.3 1l0.4 2.5l0 1.3l0 1.2l0.4 2.3l0.4 2.5l6.1 -0.7l3.5 -0.3l7.8 -0.9l1.7 -0.1l6.9 -0.8l22.4 -2.1l8.4 -0.9l32.1 -3.1l8.3 -0.7l1 -0.1l1 -12l0.1 -9.6l0 -31.4l2.2 0l-0.4 -40.9l-2.7 0l-69 -0.1l-3.2 0l-17.1 0l-5.7 -0.4l-5.1 -0.3l-9.4 0.1l-0.4 -2l-1.7 -0.6l-6.1 -2.4l-4.7 -1.8l0.6 -1.7l-14.2 0l0.1 4.1l-2.9 1.6l-3.9 0.2l-1.7 7.8z"/><g data-id="06075"><path d="m202.3 536.1z"/><path d="m197.7 530.6l0.5 1.7l0.9 1.1l0 -2l-0.7 -1z"/><path d="m184.4 536.7l0.2 1.2l0.4 4.4l0.1 1.4l0.4 1.9l8 0l1.4 0l1.4 0l2 -1.1l1.3 -1.5l-1 -0.6l-1.7 -6.9l-1.2 -1.8l-2.6 -0.6l-3.8 0.8l-1.4 -0.8l-0.7 2.5l-1.9 0.3z"/></g><path data-id="06077" d="m275.2 501.2l-0.2 4l1.2 -0.7l1.4 3l-1.5 0l-0.6 1.6l-0.4 2.5l1.7 3l-0.3 1.3l1.1 2.1l-1.5 3.4l-0.7 5.3l2.6 0l1.8 1.4l-2.2 4.1l0 9l0 24.6l1.4 1.5l3.6 0.5l1.1 2.9l2.3 1.6l-0.3 1l19.7 -19.6l2.7 -2.8l2.2 -1.2l0.2 -1.7l2.2 -0.9l1.5 0.5l0.3 -1.6l1.7 0l0.5 -1.9l4.3 -1.3l0 -1.4l1.7 0.9l3.5 -1.9l2.7 1.2l3.2 -2.4l4.1 2.7l3.2 0l-0.2 -2.7l-0.4 -39.2l-1.2 -1.3l-5.5 -17l-3.1 -9.3l-1.9 1.1l-1.8 -1l-3 2.2l-3.1 0.5l-1.9 1.7l-2.5 1.1l-2 -0.1l-2.8 1.4l-2.4 -0.1l-2.1 -0.8l-1.2 0.3l-1.1 1.4l-4.9 1.3l-6.5 -0.5l-1.8 -2.8l-1.1 -0.1l-2.1 -0.4l-1.8 0.7l-1.1 3.2l-1.5 0.6l0.3 1.2l-2.4 2.3l0.4 2.4l-1.1 2.8l-2.2 1l0 1l-2.5 2l1.8 1.8l-1.4 1.3l0.7 2.5z"/><path data-id="06079" d="m298.1 778l1.4 1.4l0.7 1.7l0.9 2l0.1 4.7l1 1.4l1.5 1.5l0.5 1.8l1.2 0.9l2.1 1.2l5.4 1.9l2.8 0.6l2.3 3.5l1 0.7l3.1 6.2l4.1 4.7l3.4 3l2.2 2.9l2.7 0.2l2 0.7l4.7 0.6l1.1 0.8l1.2 1.4l1.5 3.2l0.3 1.2l0.4 3.9l-0.1 1.7l-0.4 2.3l-1.2 3.9l-1 2l-0.7 2.8l2.3 3.3l1.7 2.3l4.9 2.5l1.9 0.9l0.7 1l1.8 1.1l0.3 -1.1l0.8 -1.1l1.4 -0.1l2 0.3l1 0.3l1.7 1.4l1.2 0.9l1.2 -0.1l1.1 0.7l0.7 1l0.8 1.9l0.5 2.6l0.1 2.8l0 2l-0.4 3.4l-0.6 3.6l-0.9 3.4l0.8 1l1 0.4l2.5 -1.2l1.3 0.7l1.2 -1.1l1 -0.2l1.3 0.3l1.1 -0.6l4.1 -1.5l2 0.1l2.6 0.3l1 0l1.5 0.7l1.4 0.9l1 0.6l2.6 1.7l2.1 1.7l1.4 0.8l1.3 1l0.7 1.6l1.1 0.9l1 -0.4l0.1 -1.4l0.4 -1.8l-0.2 -1.4l-0.9 -1.3l-0.1 -1.1l-1 -1.2l-0.6 -1l-1.4 -2.1l0.9 -1.5l1.3 0.7l1.9 -0.5l1.2 0.3l1.1 -1l1.1 0.2l0.4 -1l1 0.4l1.1 0.3l1.1 -0.1l1 0l1 -0.8l1.1 -0.1l0.7 -1.2l0 -1.3l0.4 -1.1l0.6 -1l1.1 -0.7l1.1 -0.7l1 -0.2l-0.2 -1.2l1 -0.3l1 -0.7l1.1 -0.4l1.1 -0.5l1.4 -0.8l1 1.1l1.5 1.2l1.6 1l1.9 0.5l1 0.4l1.2 0.7l1.6 1.1l1.5 0.7l1.1 -0.1l1.2 0.2l1.2 0l1.1 0.4l1 0.6l0.5 1.1l1.2 0l1.7 0l1.2 0.6l1.4 0.7l0.5 1.1l1.3 1.2l1.7 0.7l1.3 0.4l1.8 0.8l1.6 0.9l1 0.3l2.6 0.6l1.2 0.3l1.7 -0.5l1.7 0.5l1.3 0.1l1.4 1.2l1.5 1l1 0.3l1.3 0.1l1.9 1.4l0.9 1.1l1.6 1.3l2.2 1.5l1.1 0.9l4.5 0l1.7 -0.4l0 -20.9l-1.8 0l0 -1.7l-6.8 0.5l0.7 -11l-1.7 0l-9.3 0.7l0 -10.4l-13.9 -0.1l0 -10.4l-6.9 0l0 -10.5l-3.3 0l-8.1 0l0 -3.5l-1.8 0l0.1 -1.7l-1.8 0l0 -1.8l-1.7 0l0 -1.7l-1.7 0l0 -1.6l-1.8 0l0.1 -10.5l-10.5 0l0 -21l-1.9 0l-3.6 0l-48.6 -0.3l-58 -0.5z"/><path data-id="06081" d="m183.9 566.6l0.3 2l1.7 3.2l1.2 0.1l1.4 -0.7l1.9 2.5l0.6 2.3l0.2 3.1l2 5.3l1.4 2.2l0.8 1.9l0 2.7l-0.3 2.9l-0.7 5.8l-0.7 2.1l0.2 2l0.9 1.6l0.2 2.9l0.8 1l1.7 0.7l1.2 1l0.5 1.1l0.2 1l1.5 1.4l0.6 1l-0.1 1.8l1.5 0.6l1.7 -0.1l1.3 1.1l-1.9 -5l-0.6 -4.8l7.3 -0.4l0 -3.1l8.7 0l0 -8.6l-1.4 -1.1l0.5 -1.1l-3 -1.7l1.7 -0.9l-2.7 -4.2l1.2 -3.1l-0.4 -2.8l0.4 -2.9l2.4 -2.6l2 -0.7l1.6 0.8l2 -1.8l-1.7 -3.4l-1.4 -1.7l-1.5 0.8l-1.3 -0.3l-2.6 -2.2l-0.2 -1.8l-1.7 -0.2l-2.9 -2.4l-0.7 -1l-1.1 -0.8l-4.2 -0.3l-1 -1l-4.3 -1l-1.8 -1.6l0.5 -1l1.4 0.3l-0.7 -1.9l-2 -1.4l-0.1 -1.3l1.1 -0.4l0.1 -1.2l-1.3 -2.1l-0.5 -3.5l-1.2 -0.1l-1.4 0l-8 0l0.5 2.7l0.1 2.6l0.1 2.6l-0.3 3.9l-0.4 1.5l-1.5 1.1l-0.1 1.8l0.4 2.9l-0.6 1.7z"/><g data-id="06083"><path d="m520.6 1050.6l-0.6 2.8l1.3 1.4l2.7 -0.7l0.5 -2.3l-0.9 -1.9l-2.9 0.7z"/><path d="m437 982l0.3 2.2l2.3 1.5l1.6 1.6l-0.1 1l-0.5 1.4l0 1.2l0.6 1.8l3.4 1.8l4.6 0.9l3.7 0.4l1.4 -0.5l2.1 0.5l1.3 -1.1l1.6 -0.4l2.7 -1.6l1.5 -0.2l2.6 -0.1l2.4 0l2 -0.8l1.5 0.1l1.3 -1.2l0.5 -1.8l1 -0.4l1 -0.9l-0.8 -1l-3.6 -1.4l-2.6 0.5l-1.6 1.4l-0.4 1.8l-2.5 1l-4.7 -0.8l-1.8 -2.1l-2.1 -1.2l-1.3 -0.2l-1.6 -0.9l-1 0.1l-2.4 -0.3l-1.8 0.6l-1.1 -0.1l-3.8 -2.2l-3.3 -0.2l-2.1 -0.5z"/><path d="m405.1 990.8l2.2 1.5l1.5 2l0.9 1.8l0.9 1.1l1.1 2.3l1 1l4.6 2.7l1.2 -0.4l1.1 -1l2 -0.1l2.7 -0.7l3 -2.5l1.6 -0.6l2.7 -0.1l-0.4 -1.6l-0.3 -1.5l0.1 -1.6l-2.4 0.4l-2.1 -0.7l-1.5 -1.1l-0.7 -1.8l0.2 -1.3l0.5 -1.7l-1.2 -0.2l-1.8 1.5l-1.6 0.5l-2.4 0l-2 -0.7l-1.1 0.1l-1.9 2l-2.8 0.5l-1.2 -0.2l-1.2 -0.6l-1.6 0.3z"/><path d="m385.4 986.7l-0.5 1.1l2.6 0.3l1.2 -0.8l3.9 1.6l1.7 0.4l1 -0.6l3 0.1l1.2 -0.3l-0.9 -1.8l-1.8 -1.4l-1.5 0.3l-1.1 -0.4l0.3 -1.1l-0.7 -1.6l-1.1 1.2l-1.6 1.3l-1.2 0.2l-1.1 -0.5l-1.9 1.5l-1.4 0.5z"/><path d="m363.9 884.4l2.3 0.3l0.8 2.4l2.2 1.6l0.6 1l0 1.8l-0.6 3.1l-0.6 2.7l-1.4 4.4l1.1 2.1l1.1 0.9l1.3 2.5l0 2.1l-2.3 6.8l-1.5 3.6l-0.5 2.8l0.8 1.8l1.5 1.4l1 0.1l3 -0.4l5.5 3l1.3 1l0.7 1.3l1.3 2.6l1 1.1l0.9 3.9l1.9 0.1l10.7 -1.4l3.8 -1l1.9 -0.1l2.5 0.1l1.9 -0.1l1.2 -0.3l4.1 0l4.1 -0.4l2.2 0.4l2.1 1l4.5 0l1.2 -0.2l3 0.4l3.5 1.9l1.5 1.1l3 0.2l5 3l2 0.1l1.8 -0.9l4 -0.2l4.8 1.7l1.6 0.8l2 0.1l1.7 -0.9l0.4 -1.1l1.6 -0.4l2.3 -0.2l1 0.2l2.1 -0.6l5.6 0.9l2.2 2.1l2.6 1.1l3.2 1.1l3.1 -3.2l-0.8 -1.7l1.3 -2.8l-0.2 -2.6l0 -11.5l0 -40.3l-3 0l-1.7 0.4l-4.4 0l-1.2 -0.9l-1.3 -0.9l-1.9 -1.3l-0.9 -1.1l-1.6 -1.4l-1.6 -0.5l-1.2 -0.5l-1.1 -0.2l-2.2 -2l-1.3 -0.1l-1.7 -0.5l-1.2 0.2l-1.3 0.1l-2.3 -0.1l-1.7 -0.9l-1.6 -0.9l-1.2 -0.1l-1.1 -0.9l-1.6 -0.6l-1.8 -1.2l-0.9 -1.4l-1.4 -0.7l-1.2 -0.6l-1.1 -0.2l-1.1 0.4l-1 -0.4l-1.2 -1.5l-1.1 -0.4l-1.2 0l-1 -0.1l-1.3 0l-1.4 -0.6l-1.3 -0.7l-1.5 -0.9l-1.1 -0.7l-1.3 -0.8l-2.1 -0.5l-1.2 -1.1l-1 -0.4l0.2 -1l-1.1 0l-1.1 0.8l-1.1 0.3l-1.1 0.9l-1 0.2l-1 0.8l-0.4 1.1l-1 0.6l-1.2 0.7l-0.3 1l-0.9 1.2l0 1l-0.6 1.3l-1.2 0.3l-1 0.6l-1 0.2l-1.1 0.1l-1.1 -0.3l-1.1 -5.55112e-17l-1.4 0.4l-1.1 1l-1.2 -0.3l-1.9 0.5l-1 -0.7l-1.2 1.5l0.5 1.4l1.5 0.9l1 2l0.1 1.1l0.9 1.3l0.2 1.4l-0.3 1.6l-0.2 1.3l-1 0.7l-1.1 -0.9l-0.4 -1.2l-1 -1l-1.3 -0.7l-2.8 -2.2l-2.6 -1.7l-1 -0.6l-1.4 -0.9l-1 -0.6l-1.5 -0.1l-2.6 -0.3l-2 -0.1l-3.3 0.9l-1.3 0.8l-1.1 0.3l-1.8 0l-1.2 1.1l-1 -0.6l-2.3 0.9l-1.5 -0.2l-0.8 -1l-2.1 8.3z"/></g><path data-id="06085" d="m216 585.3l-1.2 3.1l2.7 4.2l-1.7 0.9l3 1.7l-0.5 1.1l1.4 1.1l0.2 1.2l2.8 2.2l3.1 4.3l2.3 1.6l1.1 -0.3l2.4 2.8l0.4 2.8l2.3 1l1.2 1.7l5.5 2.6l4.2 2.2l2 0.4l2.3 0.7l2.7 1.6l0.9 1.8l2.3 0.9l2.7 1.5l3.1 3.5l0.7 1.6l-1.9 2.1l2 -0.7l2.2 1.3l0.2 2.1l2.6 0.5l2 3.9l2 -1l1.7 1.8l2.5 0.8l0 2.4l2.1 0.2l1.2 -2.5l1.3 -1.6l2 -1.7l0.4 -1.3l0.8 -1.9l1.2 -1.4l2 0.8l1.6 -1.5l3.3 3.4l19.7 -0.1l-3 -2.7l1.2 -2l0 -1.5l-1.2 -1.7l2.1 -1.7l0.1 -2.2l1.5 -0.5l-3.6 -3.4l1.5 -0.9l1.3 -3.2l-0.9 -1.4l-1.1 -2.8l-2.4 -0.2l-1.8 -2.9l-1.6 2.1l-3 0.1l-2.5 -2.2l-1.9 1.3l-1 0.9l0.1 1.7l-1 0.4l-1.1 -1l-1.2 -6.8l-3.8 -4.7l0.2 -3.3l1 -2.5l3.7 -1.7l-0.3 -2.4l-1.4 -3.5l1.4 -2.8l-2.6 -1.7l-2 0.1l0 -1.4l-1.6 -2l1 -1.9l-0.1 -1.6l-2.1 -1.8l-0.2 -1.2l1.4 -0.8l-19.2 -0.1l-18 -0.2l-1.2 0.2l-5.6 3.5l-2.1 -1.6l-2.7 0.8l-2.1 -0.8l-4.9 0.9l-1.3 1l-1.1 -0.1l-1.8 -0.3l-1.8 -1.5l-2 1.8l-1.6 -0.8l-2 0.7l-2.4 2.6l-0.4 2.9l0.4 2.8z"/><path data-id="06087" d="m203.6 609.5l0.6 4.8l2.2 4.2l0.5 1.5l2.4 3.6l0.8 1.6l4.5 5.5l1.9 1.3l3.1 2.8l1.4 0.7l3.4 2.3l3.6 0.9l1.8 0.1l2.2 -0.3l0.4 -1.3l1.1 -0.3l2.8 0.7l1.1 0.6l2.1 -2.1l1.2 -0.8l3.2 1.1l1.1 0.9l1.4 1.4l1.7 2.3l3.4 6.4l1.7 3.5l2.3 -4.2l1.4 0.2l2.6 -3.1l2.9 0.1l1.5 -1.3l1.9 2l1.9 -1.3l1.7 2.5l1.4 -2.2l2.2 1.5l2.5 0l0 -2.4l-2.5 -0.8l-1.7 -1.8l-2 1l-2 -3.9l-2.6 -0.5l-0.2 -2.1l-2.2 -1.3l-2 0.7l1.9 -2.1l-0.7 -1.6l-3.1 -3.5l-2 -0.8l-3 -1.6l-0.9 -1.8l-2.7 -1.6l-1.4 -0.9l-2.3 -0.5l-4.8 -1.9l-5.5 -2.6l-1.2 -1.7l-2.3 -1l-0.4 -2.8l-2.4 -2.8l-1.1 0.3l-2.3 -1.6l-3.1 -4.3l-2.8 -2.2l-0.1 -1.1l-0.1 8.5l-8.7 0l0 3.1l-7.3 0.4z"/><path data-id="06089" d="m130.6 220.2l0.2 1.2l0.2 1l1.4 -0.1l1.3 -0.6l0.9 -1l1.3 -0.1l1.2 -0.6l1.1 -0.3l1.1 -0.5l1 0.4l1.1 0l1.1 -0.2l1.2 -2.77556e-17l1.1 0.4l0.9 -1.3l0.9 -1l0.8 -1.1l0.9 -1.1l1.1 -1l1 0.4l1.1 0.1l1 -0.1l1.2 -0.5l1 -0.2l1.3 -0.5l1.1 -0.1l1.3 -0.3l1.1 -0.3l1 0.1l1 -0.6l1.2 0.7l0 1l1 0.3l1.1 -0.1l1.1 0.7l1.8 0.7l2.4 1l1.1 -0.6l1 -0.6l1.9 -1.1l1.4 -1l1.6 -0.9l1.1 -0.8l1.9 -0.7l1.1 -1.1l1.1 -0.1l0.8 -1l1.6 0.1l1 0.8l1.3 0.3l1.6 0l1.7 0.6l2 0.1l1.3 -0.3l1.2 0.4l1.3 0l1.4 0.2l1.5 0l1.4 0.2l1.2 -0.4l1.2 -0.1l1.8 0.1l1.1 -0.6l1 0.4l1.6 -0.5l1.3 -0.9l2 -0.2l1.3 0.5l1.1 0.6l0.9 -1l1.7 1.1l-0.9 -1l1.4 -0.7l1.1 -0.1l1.5 -0.4l1.5 -0.4l1.3 -0.7l1.4 -0.9l1 0.2l1.1 0l1.1 -0.4l1.1 -0.3l1.5 0l1.9 -0.7l1.3 -0.3l1 0.4l1.3 -0.1l1.2 0.3l1.2 0.4l1.1 0.2l1.1 2.77556e-17l1.1 -0.4l1 -0.5l1 0.4l1.1 -0.7l1 -1l1.1 -0.3l1 -0.5l1.2 0.1l1.2 0.4l1.2 -0.3l1.1 -0.3l1.1 -0.1l1.2 -0.1l1 0.7l1.4 0.2l1.1 0l1.2 -0.1l1.1 -0.8l0.7 -1l1.1 -0.3l1.3 0.2l1.1 -0.3l1.1 0.3l1 0.9l1.1 1.1l1.1 -0.1l1.1 -0.1l1.3 -0.1l2.4 0.8l1.9 -1.6l4.5 -0.1l2.5 0l12.8 0l1.9 -0.5l1.8 0.6l0.5 -6.7l0.2 -50.2l0.1 -2.2l-1.2 0.1l0.1 -3.8l-0.1 -32.2l-11.2 0.1l-66.1 0.1l-2.1 -0.2l-14.3 -0.1l-19.8 0.3l2.9 1.7l2.1 1.4l-0.1 2.8l-0.4 3l-1 2.2l-2.2 0.9l-2.6 0.3l-1.5 1.1l-0.3 1.8l0.2 2.7l0 2.9l-0.5 1.4l-1.2 0.7l-1.1 0.2l-0.8 1.2l-0.6 1.1l-1.5 0.1l-1 0.7l-0.6 1.4l-0.5 1.9l0.3 1.4l-0.4 1.5l-0.5 1.1l0.7 1.6l0 1.8l-0.3 1.1l-1.2 0.9l-0.6 1.1l-0.8 1.3l-1.1 2.2l-1.1 0.7l-0.5 1l0 1.6l0.5 1l-0.5 1.5l0 1.6l-0.7 1.2l-0.9 1l-1 0.6l-1 0.6l-0.9 1.4l-1.2 1l0.9 1.6l0 1.2l-0.2 1.2l-1 1.5l-1.4 0.9l-1.2 0.1l-0.1 1.1l0.7 1.1l0.1 1.1l1 1.4l0 1l-0.6 1l1.1 0.5l1.5 1l-0.1 1.8l0.6 1.3l0.3 1.3l0.6 1.3l0 1.4l-2 0l-1 -0.1l-1.2 1l-1.2 1.2l-1.5 0l-1.4 1.5l0 1.3l-1.1 1.7l-0.5 1l-1.5 0.2l-1.4 0.3l-1.3 0.2l-0.8 1.1l-0.3 1.5l-1 0.4l-1.2 0.2l-1.1 1.3l-0.8 1.2l-0.4 1.4l-1 0.3l-1.1 -0.3l-1.2 0.5l-0.6 2l-1.3 0.8l-1.2 -0.1l-1.4 0.7l-1.6 0.1l-0.3 1.1l0.1 1.6l-2 1.6l-0.5 2.1l-1 0.5l-1.2 1.6l-1.7 0.5l-0.5 1.5l0.3 2.2l-0.4 1.5z"/><path data-id="06091" d="m326.2 317.8l0.9 2.5l1.4 0.3l1.2 15.5l1.2 -0.8l-0.1 -1l1.3 -0.7l1 -0.2l1 -0.1l1 -0.6l1.1 0.2l1.2 -0.4l1.1 0.3l1.3 -0.4l1 -0.6l1.4 -0.2l1.1 -0.5l1 0.1l1 -0.4l1.1 -0.1l1.2 -0.5l1 0.5l1.1 -0.4l1 0l1.3 -0.8l1 -0.7l1 -0.1l1.1 -0.6l1.1 -0.8l0.6 -1.1l1.3 -0.4l1 -1l0.4 -1.1l0.6 -1l1.1 -0.9l1 -0.9l0.8 -1l1 -0.4l1.1 -0.2l1.1 0.1l1.1 -0.2l1.1 0.4l1 0l1.1 0l1.1 -0.2l1 0l1.3 0.8l0.6 1.2l0.5 1l0.6 1l0.7 1l0.2 1.1l0.1 1.2l1 0.9l1 0.5l1.8 1.1l1.5 0l3.2 0l3.3 0l3 0l6.9 0l6 0l5 0.1l4.2 0l3.5 0l2.5 0l2.5 0l3.4 0l2.5 0l0.7 -11.8l0 -23.2l-1.4 1.7l-12.8 0.1l-5.6 0l-5.7 -0.1l-5.7 0l-3.6 0l-4.5 0l-7.6 0.3l-4.8 0l-2 0l-3.5 0l-3.8 0l-1.6 0l-1.1 0.7l-0.2 1.2l-1 1.2l-1.1 0.6l-1.5 -1.1l-1.4 -1.1l-1.3 -1.3l-1.3 -0.1l-1.5 -1l-2.2 0l-1.3 0.7l-1.4 -1.1l-1 -0.5l-0.4 -1.6l0 -1l-1.4 -0.1l-1.3 -0.3l-1.1 -1.5l-1 -1.5l-1.2 -0.7l-1.4 1.2l-2 1.2l-1.1 0.7l-1.4 3.3l0 2.8l-0.3 1l-0.5 1.2l-1 1l-0.5 1.1l-0.9 1.2l-1 1.2l-1.1 0.7l-1.2 0.7l-1 0l-1.5 10.2l-2.2 1.3l-1 1.5z"/><path data-id="06093" d="m67.2 53.6l1.6 0.5l1.2 0.2l0.6 1l-0.1 1.3l-0.4 1.6l-0.2 1.7l0.7 1l1.3 -0.1l1.3 0.6l1 0.9l0.2 1l-0.2 1l0.6 1.9l0.5 2.2l0.7 1.8l1 0.8l0.4 1l-0.2 1.2l-0.6 1.4l-1.8 1.1l-0.4 1.4l-0.3 2.4l-0.9 1.2l15 0.7l1.3 0.7l1.3 1.4l-0.8 1.6l0.5 3.4l1.4 1.3l0.8 3.2l-0.6 1.4l1.4 0.8l0.4 3.4l-1.2 1.6l1.7 1.3l0.2 1.8l1.8 2.1l0.9 2.2l1.9 2.6l1.8 0.5l1 -0.8l2.1 0.8l1.2 1.3l2.7 0.5l1.3 1.8l1.4 1.7l1.3 2.8l1.4 1.8l2.9 0.6l2.5 -0.5l3 0.2l3.1 -0.1l1.6 0.8l2.1 1.6l1.6 0.6l1.2 0.8l1.1 2.1l0.3 1.9l0.3 1l1.2 0.4l1.7 -0.4l1.2 -0.7l2.6 0.1l2.2 1.6l1.4 0.9l1.7 -0.4l0.8 -1.7l0.8 -2.3l-0.9 -2.5l-1.2 -2.6l-2.1 -0.6l-2.5 -2.1l-0.2 -2.3l1 -2.7l-0.4 -1.5l1.3 -1.9l-0.5 -1.1l-0.1 -1.3l-0.2 -1.6l1.2 -0.2l1.3 0.7l1.2 -1.3l1.1 -0.4l1.9 -1.6l1 -0.1l1.5 0l3.5 -0.6l3.1 0.1l1.9 -2.6l2.6 -1.7l1.3 -0.3l1.1 -1.2l0.3 -1.2l2.2 -1.8l1.4 -0.6l2.2 -1.4l1.5 -1.4l0 -2l2.3 -1.5l1.3 0.1l1.1 0.4l1.1 -1l0.1 -1.8l0.3 -1.7l1.6 -0.7l1.4 0.5l1 2.1l2.9 0.3l1.6 1.9l0.6 1.7l-1 1.8l0.1 1l-1.4 2.2l0.3 3.6l-0.5 2.2l0 3.6l1.8 2.4l19.7 0.2l14.3 0.1l2.1 0.2l66.1 -0.1l-0.2 -31.9l0 -45.2l-0.8 -22.7l0.9 -6.2l-7.1 -0.1l-5.9 -0.1l-9.2 -0.2l-1.3 0l-1.5 0l-13.8 -0.3l-14.9 -0.1l-9.9 -0.2l-5.2 -0.2l-10.3 0l-2.8 -0.1l-8.6 -0.2l-1.9 0.1l-10 0l-13 0.5l-7.6 0.1l-8.5 0l-7.4 0.1l-1.7 0.1l-4.6 -0.1l-10.1 0l-2 -0.2l-1.8 -0.1l-6 -0.5l-4.5 0.5l-3.7 0.2l-11.3 0.6l-3.3 0l-5.2 -0.3l-6.2 0.1l-1.8 0l-0.8 1.1l-1.2 1.3l0.2 1l0.1 1l0.2 1.3l-0.6 1.2l-0.6 1.2l-0.6 1l-0.3 1.4l-0.1 1.1l-0.6 1l-1.2 0.1l-1.4 -0.1l-0.8 1.3l-0.7 1.5l-1.1 0.2l-1.1 -0.9l-1.4 0.1l-0.7 1.3l-0.1 2.2l-1.1 1l-0.8 1.5l-2.4 1.1l-0.6 1.1l0.3 1.1l1 1.9l1 0.5l0.3 1.2l-1.1 1l0.5 2.3l0.4 2.4l1.6 2.6l-0.7 3l-0.5 2.4l-1.5 2.2l0.4 2.9l-1.2 2.2l-1.3 1.7l-0.7 1.9z"/><path data-id="06095" d="m194.9 490.4l0.9 1.7l2.8 0.8l5 2.9l1.5 0.9l1.8 2.8l1 1.1l0.6 1.8l2.1 -0.5l6 1.2l1.6 2.1l2.4 0.6l4.2 -1.9l3.8 -1.9l1 0.2l2.1 0.1l4.4 -1l5.6 2.6l3.5 0l1.9 -1l0.7 -1.4l1.9 -1.3l1.5 1.3l3.1 0.7l5.2 -3.3l1.1 0.6l1.9 -0.4l0.5 -3.3l1.4 -2.6l0.6 -3.3l2.2 -2.8l3 -1.5l1.6 -0.2l1.3 -3.1l-0.3 -9.3l1.2 -2.2l-9.1 -0.1l-0.8 -26.5l-1.7 -1.4l-2.6 0l-2.5 1.5l-2.1 0.3l-2.7 -0.4l-4.6 -1.6l-2.8 0.1l-2 1l-3 -0.5l-2.7 1.7l-1 1.5l-3.5 2.4l-1.8 -0.7l-2.4 -2.9l-4.5 0.5l-0.2 2.8l-1.8 5.4l-0.3 2.3l0.8 1.8l2.8 3.7l1.5 2.9l1.2 3.9l-0.3 1.7l-6.7 0l-7 0l0.2 2.8l1.5 2.6l-2.3 -0.1l-0.4 1.3l2 0.5l-1.4 0.8l1.5 2.7l0.2 2.1l-1.1 0.7l-0.9 3.5l1.6 1.4l0.4 1.7l-20.6 -0.1z"/><path data-id="06097" d="m85.3 414.3l0.8 1.8l1 1.5l2.4 1.2l2.8 1.9l1.9 2.2l0.9 1.6l2.6 3.8l0.8 1.2l1.8 3.1l0.7 1.8l2.2 1.3l1.7 3.8l3.4 2.7l1 0.4l3.6 3.6l4.6 2.1l3.5 2.4l2.1 1.9l1.6 1.1l0.6 1.6l1.8 2.7l1.8 3.1l1.7 3.8l0 3.1l-0.6 1.6l1.1 2.5l1 0.4l0.2 -1.4l1.2 -0.4l1.4 0.4l2 1.7l3.7 -2.4l3 0.4l2.3 -0.9l16.6 14.1l1.6 0l2.1 1.4l3.3 0.8l1.8 1.1l2.3 -0.2l5.3 -0.6l1.2 3.3l1.3 0.2l3.1 3.3l0.7 2.1l1.5 0.7l3.5 -1.2l1.5 0.2l2.9 -2.4l1.2 -0.7l-0.9 -1.7l3.5 -0.3l1.1 -4.9l1 0.4l-0.9 -2l-0.7 -4.6l-2.3 -1.7l0.3 -1.6l-1.7 -1l0.2 -2.4l-2.1 -5.5l-3.2 -2.8l0.9 -1.5l-4.8 -5.6l1.7 -2.3l-0.3 -1.2l-2.6 -0.7l-0.6 -1.6l-1.3 0.2l-1.5 -3.3l-0.4 -1.9l0.5 -1l-2.2 -0.7l-1.5 -3l-2 -1l-1.8 -0.4l-2.5 -4.8l1.8 -3l0.1 -5.5l-1.9 -4.8l-4.4 -0.6l-1.8 -2.6l-0.1 -2.3l-2.3 -3.3l-1.3 -1.2l-0.1 -2l-2.3 -2.2l-2.3 -1.9l-1.2 0l-1.3 -1.7l-25.2 -0.3l0 1.8l-5.4 -0.1l0 3.8l-22.6 0.3l0 3.7l-7.4 0l-5.4 -0.2l-2.1 2.5l-1.2 -1.2z"/><path data-id="06099" d="m284.5 574.2l0.2 1.2l2.1 1.8l0.1 1.6l-1 1.9l1.6 2l0 1.4l2 -0.1l2.3 0.8l-1.1 3.7l1.4 3.5l0.3 2.4l-3 2.3l-2.2 1.1l0.3 4.1l3.8 4.7l1.2 6.8l1.1 1l1 -0.4l-0.1 -1.7l1 -0.9l1.9 -1.3l2.5 2.2l3 -0.1l1.6 -2.1l1.8 2.9l2.4 0.2l1.1 2.8l15.6 -15.7l10 -10.2l-1.2 -0.4l0 -3.4l-1.6 -1l0.9 -1.8l9.5 -5l6.9 -3.3l41.6 -20.4l-25.9 -24.4l-8.9 -9.9l-0.8 -1.3l-7.8 -8.7l-4.2 -4.3l-4.9 -6l0.4 39.2l0.2 2.7l-3.2 0l-4.1 -2.7l-3.2 2.4l-2.7 -1.2l-3.5 1.9l-1.7 -0.9l0 1.4l-3.5 1.6l-1.3 1.6l-1.7 0l-0.3 1.6l-1.5 -0.5l-2.2 0.9l-0.2 1.7l-2.2 1.2l-2.7 2.8l-19.7 19.6l-1.5 0.8z"/><path data-id="06101" d="m240.6 351.7l-1.1 3.5l1.9 5.2l-1.7 2.4l2.6 4.7l-1.8 -0.2l-0.2 1l1.7 1.7l1 -0.2l0.6 2.5l1.1 1l0.5 3l1.9 0.7l2.1 -0.5l0.9 1l-0.1 2.2l1.4 1.7l-0.2 2.6l3 1.9l-2.3 0.9l-0.2 1.7l-1 0.4l-0.8 2.1l1 2l-0.5 1.7l2.9 1.2l0.1 1.7l-1.1 3.1l3 2.5l3.4 -1.8l2.6 2.5l-0.7 2.1l0.7 1.1l0 2.7l2.2 0.1l1.5 5l1.6 0.5l-0.3 2l1.4 -1.5l-0.5 -1.3l3 -0.4l0.9 -2.1l1.6 0.6l1.5 2.2l-1 3.4l3.4 0l7.6 0.1l0.5 -2.1l1.4 -0.1l0 -21.7l5.3 0l0 -8.8l-2.8 0.4l-1.2 -0.6l-3.2 0.8l-3.4 2.6l-1.8 -0.1l-1 2.3l-1.7 1.9l-0.4 2.6l-0.7 -2.2l0.4 -1.4l-1.1 -5.5l1 -2l-2 -0.6l0.5 -1.5l-1.1 -1.1l-0.4 -3.2l2.4 -4l-0.1 -1.5l-1.5 0.2l0.5 -3.5l-2 -6.9l-1.1 -2.7l1.5 -3l-1.3 0l-0.8 -2.1l0.1 -2l1.4 -0.1l-1 -3.6l0.2 -1.8l-27.1 0.2l-1.2 2.8l-1.6 1.7z"/><path data-id="06103" d="m131.4 222.8l0.8 2.2l3.2 0.7l4 2.7l-0.2 3.4l1 3.6l-1.4 1.8l-0.6 3.4l2 0.8l-0.5 1.1l1.2 3.8l-1.2 2.9l2 2.3l0.3 3.5l-0.6 1.5l0.5 2.8l1.7 2.6l0.7 4.2l1.7 1.1l-1 2.4l-2.9 1.2l0.2 1.7l-0.6 5l-0.6 1.2l1.3 1.6l0.3 4l3.1 0.2l71.4 0.3l12.8 0l-1.7 -1.6l0.6 -2.3l-1.2 -1.5l2.8 -5l15.2 -0.4l1.1 -0.1l6.8 0l2.6 -0.5l2.6 -2.3l0.4 -4l2 -3.6l2.1 -2.2l5.6 0.2l1 -1.8l-0.1 -3.7l1 -1.7l3 -2.3l0 -4.5l8.3 -0.9l1.9 -1l1 -1.8l2.7 0l1 -1l0.6 -2.8l-0.8 -3.3l0.6 -2.2l3.1 0.5l2.2 -2.4l1.6 -0.2l0.7 -1.7l-0.5 -2.5l1.8 -2.4l-0.1 -1.5l-2.6 -2.8l2 0.1l1.4 -1.6l-2.6 -2l-1.3 -1.9l-2.9 -0.3l-1.7 -1l-4.2 -0.2l-0.8 -1.9l0.7 -1l-1 -2.8l1 -3.5l-2.3 -1.1l0 -1.7l-2.5 0l-4.5 0.1l-1.3 1.1l-2.1 0.3l-1.4 -0.5l-1.2 0l-1.3 0.3l-1 -0.7l-1 -0.8l-1.2 -0.7l-1.3 -0.1l-1 0.2l-1.2 0l-1 0.8l-1 1.1l-1 0l-1 0.1l-1.1 -0.1l-1.1 -0.1l-1 -0.7l-1 0.1l-1.1 0.1l-1.1 0.3l-1.2 0.3l-1.2 -0.4l-1.2 -0.1l-1 0.5l-1.1 0.3l-1 1l-1 0.8l-1.1 -0.5l-1 0.5l-1.1 0.4l-1.1 2.77556e-17l-1.1 -0.2l-1.2 -0.4l-1 -0.2l-1 -0.1l-1 -0.1l-1.2 0.1l-1.6 0.4l-1.8 0.1l-1.1 0.4l-1.7 0.5l-1.1 0.2l-1.8 0.1l-1 0.6l-1.5 0.9l-1.7 0.1l-1.1 0.5l-1.3 0.1l-0.6 1l1 0.5l-1.5 -0.6l-1.4 0.5l-1.1 -0.6l-1.3 -0.5l-2 0.2l-1.3 0.9l-1.6 0.5l-1 -0.4l-1.1 0.6l-1.8 -0.1l-1.2 0.1l-1.2 0.4l-1.4 -0.2l-1.5 0l-1.4 -0.2l-1.3 0l-1.2 -0.4l-1.3 0.3l-2 -0.1l-1.2 0.1l-1.4 -1.1l-2 0.1l-1 -0.8l-1 -0.2l-1 0.6l-1.5 0.6l-1.1 1.1l-1 0.9l-1.9 0.1l-1.7 1.4l-1.4 1l-1 0.3l-1.9 1.4l-1.1 0.6l-1.5 -0.2l-1.8 -0.9l-1.2 -0.7l-1.2 -0.6l-1.1 0.2l-0.5 -1.1l-1.3 -1l-1 0.6l-1 -0.1l-1.1 0.3l-1.1 0.4l-1 0l-1 0.2l-1 0.4l-1 0.1l-1.1 0.5l-1 0.1l-1 -0.2l-1 -0.3l-0.9 1.2l-1.1 1.1l-0.6 1l-0.9 1.2l-1 1l-1 -0.4l-1.1 -0.2l-1 0.5l-1.1 -0.1l-1.1 -0.5l-1.2 0.6l-1.1 0.3l-1 0.2l-1.1 0.3l-1 0.7l-1.3 0.8l-1.2 0.8z"/><path data-id="06105" d="m77.1 140.1l0.1 1l0.1 1.4l0.8 1l0 1.4l0.6 1.8l1.3 1.5l0.3 1l1 2l0.8 1.2l0 1.8l0.6 1.6l0.4 1.9l0.5 2.6l-0.1 1.1l-0.1 1.1l0.4 2.1l0.2 6l0 7.4l0 5.7l0 7.1l0 10.1l0 10.5l0 13.4l0 9.3l0 8.1l0 7.3l0 5.4l0 4.1l0 3.2l59.4 -0.1l-1.7 -2.6l-0.5 -2.8l0.6 -1.5l-0.3 -3.5l-2 -2.3l1.2 -2.9l-1.2 -3.8l0.5 -1.1l-2 -0.8l0.6 -3.4l1.4 -1.8l-1 -3.6l0.2 -3.4l-4 -2.7l-3.2 -0.7l-1.4 -2.4l-0.1 -1.2l-0.2 -1.2l0.4 -1.5l-0.3 -1.4l0.3 -1.5l1 -0.8l1.3 -1.5l1.8 -1.1l0.4 -1.2l1.3 -1.6l0.7 -2.5l0.3 -1.1l1.6 -0.1l1.4 -0.7l1.2 0.1l1.3 -0.8l0.2 -1.1l1.6 -1.4l1.1 0.3l1 -0.3l0.4 -1.4l0.6 -1.1l1.3 -1.4l1.2 -0.2l1 -0.4l0.3 -1.5l0.8 -1.1l1.3 -0.2l1.4 -0.3l1.5 -0.2l0.5 -1l1.1 -1.7l0 -1.3l1.4 -1.5l1.5 0l1 -0.3l1.4 -1.9l1 0.1l1.3 0.3l1 -1.1l-0.7 -1.6l-0.5 -1.6l-0.6 -1.3l0 -1.1l-0.5 -1.6l-1.4 -0.1l5.55112e-17 -1.5l0 -1l-0.4 -1.1l-0.7 -1l-0.1 -1l-0.5 -1.6l1.2 -0.1l1.2 -0.3l0.5 -1.5l0.9 -1.8l0 -1.2l-0.9 -1.6l1.2 -1l0.6 -1l1.3 -1l1 -0.6l0.9 -1l0.7 -1.2l0 -1.6l0.5 -1.5l-0.5 -1l-0.4 -1.1l0.9 -1.5l1.1 -0.7l0.7 -1.3l0.9 -1.4l0.3 -1.3l1.4 -1.1l0.7 -1.5l0.3 -1l-1 -2.4l0.5 -1.1l0.1 -1l0.1 -1.4l0.2 -1.5l0.2 -1.5l1.1 -1.4l2 -0.2l0.6 -1.1l0.8 -1.2l1.1 -0.2l1.2 -0.7l0.5 -1.4l0 -2.9l-0.2 -2.7l0.3 -1.8l1.5 -1.1l2.6 -0.3l2.2 -0.9l1 -2.2l0.4 -3l0.1 -2.8l-2.1 -1.4l-2.3 -0.8l-0.5 -1.4l-1.8 -2.4l0 -3.6l0.5 -2.2l-0.3 -3.6l1.4 -2.2l-0.1 -1l0.4 -1.2l0.7 -1.7l-2.3 -2.5l-2.9 -0.3l-1 -2.1l-1.4 -0.5l-1.6 0.7l-0.3 1.7l-0.1 1.8l-1.1 1l-1.1 -0.4l-1.3 -0.1l-2.3 1.5l0 2l-1.5 1.4l-2.2 1.4l-1.4 0.6l-2.2 1.8l-0.3 1.2l-1.1 1.2l-1.3 0.3l-2.6 1.7l-1.9 2.6l-3.1 -0.1l-3.5 0.6l-1.5 0l-1 0.1l-1.1 0.7l-1.9 1.3l-1.2 1.3l-1.3 -0.7l-1.2 0.2l0.2 1.6l0.1 1.3l0.5 1.1l-0.8 1.1l-0.1 2.3l-1 2.7l0.2 2.3l2.5 2.1l2.1 0.6l1.2 2.6l0.9 2.5l-0.8 2.3l-0.8 1.7l-1.7 0.4l-1.4 -0.9l-2.2 -1.6l-2.6 -0.1l-1.2 0.7l-1.7 0.4l-1.2 -0.4l-0.3 -1l-0.4 -1.1l-0.3 -2l-1.9 -1.7l-1.6 -0.6l-1.2 -0.7l-2.5 -1.7l-3.1 0.1l-3 -0.2l-2.5 0.5l-2.9 -0.6l-1.4 -1.8l-1.3 -2.8l-1.4 -1.7l-1.3 -1.8l-2.7 -0.5l-1.2 -1.3l-2.1 -0.8l-1 0.8l-1.8 -0.5l-1.3 -1.8l-2.2 1.1l-0.5 1.9l0 2.4l-0.6 3.2l-0.5 1.5l-1.1 0.7l-0.8 1.1l0.6 1.6l2.6 1l0.5 1.2l0.1 1.3l1.3 1.3l0 1.5l-0.7 1.2l-1.1 2.2l-0.7 1.7l-0.6 1.2l-0.9 1.5l0 2l-1 0.3l-1.5 1.3l-0.4 1.6l-1.6 0.3l-2.2 -1.4l-1.2 -0.8l-2.2 -1.8l-1.3 0.6l-1.6 1.4l-2.5 0.3z"/><path data-id="06107" d="m473.3 692l-2.6 2.4l4.5 0l-0.2 10.6l5.2 0.1l0.1 12.5l0 3.5l-5.3 -0.1l-0.7 15.9l0 10.5l0 10.5l-0.2 20.9l47.2 -0.1l24.3 0l28.9 0.1l4.1 -0.4l8.6 0.3l17.6 -0.1l12.4 -0.1l5.8 0.3l0.2 -8.8l2.4 -0.6l-0.8 -1.5l0.6 -1.9l-0.7 -2.4l0.7 -1.3l-0.8 -2.1l-1.5 -0.3l-1.1 -1.7l0.8 -2l0.3 -1.4l-1.3 -1.7l-1.3 -0.6l-0.2 -1.3l-0.3 -1.2l-0.7 -1.7l-0.2 -1.5l-0.3 -1.5l0 -1.3l-0.7 -1.4l-0.8 -2.6l-0.5 -1.9l-0.3 -1.2l0.8 -1.1l0.6 -1.3l-0.1 -1.2l-0.6 -1l-0.6 -1.5l-1.8 -1.5l-1.4 -2.4l0.2 -1.1l-0.7 -1.2l-0.5 -1.4l-0.2 -2.4l-0.8 -1.1l0.2 -1l-0.1 -1.3l1.1 -0.7l0.2 -1.8l1.3 -1.3l-1.1 -1.9l-1.2 -0.5l-0.7 -1.5l-1.2 -1.1l-1.1 -0.9l0.3 -1.8l1.3 -1.6l-0.4 -1.3l-1.2 -1l-1.1 0l-2.1 0.3l-1.5 -0.5l-0.6 -1.3l-0.5 -1.4l-1 -1.2l-1.1 -1.1l-0.9 -1.9l0.6 -1.8l0 -1.1l-0.3 -1.1l-0.7 -1.4l-1.4 -1.9l-1.3 -0.4l-1.5 -0.9l0.1 -1.6l0.1 -1.9l0.9 -1.6l-1.9 -1.2l-1 -1.1l-1.2 -0.9l0.1 -1.4l-0.8 -1l-0.9 -1.2l-0.4 -1.8l-1 -1.3l-1.3 -0.8l3 -1.9l-0.5 -2.9l-2 -1.9l-18.9 0.7l-41.6 -0.3l-0.2 10.3l-10.1 0l-8.4 -0.2l-12.6 -0.2l0 10.5l-15.7 -0.2l-2.3 2.2l-5.5 5.8z"/><path data-id="06109" d="m365.6 530.2l25.8 24.6l0.6 -1l0.6 -1.1l-0.8 -1.1l-0.8 -1.3l0.2 -1.4l1.3 -0.1l1 0.1l1.3 0.6l1 1l1.1 1.4l1.2 0.8l0.9 -1.2l0.1 -1.5l-0.7 -1.1l-1.2 -2.1l-0.5 -1.2l-0.5 -1.2l-0.5 -1.1l1.2 -0.4l1.4 -0.1l1.3 -0.7l1.5 0.5l0.6 -1.3l1.2 0.5l1.3 0.5l0.4 -1.8l1.1 -0.3l0.4 -1l1.1 -0.5l1.3 -0.1l1.1 0.1l1 -0.8l1 -0.5l-0.1 -1l0.5 -1.1l0.5 -1l1.2 0.9l1.1 0.1l1 0.4l1 0.3l1.4 -0.5l0.9 -1.1l1.1 -1l1 -1.1l0.1 -1.2l1.5 -0.5l1 0.4l0.8 1.1l1.4 0.6l1.5 0l1.7 1.2l3.2 1.8l1.8 1.5l1.8 1.5l1.2 -0.2l1.3 0.4l1 0.4l1.2 -0.4l1.4 -0.3l0.8 -1.1l0.8 1.1l1.4 0.2l1 -0.9l1.4 1.2l1 0.4l1.6 -0.7l1.4 -0.2l1.3 -0.8l1.7 -0.6l1.7 -1.4l3.8 -1.2l4.1 -2.8l-0.1 -2.4l1.4 -1.2l1.1 0.1l2 -1.2l1.2 -1l0.8 -1.1l1 -2.6l1.7 -0.7l2.6 1l2.3 2.3l1.5 1.4l2 0.2l2.5 -0.9l1.6 0.4l2.2 1.9l1.6 1.5l1.2 -0.2l1 1.1l1.8 2.7l2.2 1.3l1.5 1l0 1.5l1.6 1.3l0.5 2.8l1.9 0.7l1.2 -0.7l0.1 -1l1.1 -1.8l1.4 -1l1 -0.7l1.6 -1.6l-0.1 -1.8l-0.8 -2.1l0.6 -1.3l0.4 -1.4l-1.3 -0.8l0.1 -1.1l0.7 -2.5l-0.4 -1.3l-1.3 -1.1l-1.5 -1l-1.2 0.1l-1.4 -1.1l-1.8 -1.7l-1.9 -1.4l-1.9 -3l0.4 -2l0.8 -2.1l0.2 -3.5l-0.9 -2.1l-1.7 -2.2l-1.9 -2.4l-2.1 -1l-1.4 -0.8l-1.4 -0.9l-1.8 -0.1l-1.4 0l-1 1.3l-1.4 -1.1l-0.9 -1.3l-0.6 -1.7l-1.1 -0.9l-0.8 -1.4l-1 -0.3l0.2 1.6l-2.3 -0.6l-1.1 -0.1l-1.3 -1.3l-1.1 -0.1l-1.2 -0.9l-0.1 -1.5l-1.3 -1.4l-2.9 -0.9l-0.7 -1.5l0.2 -1.2l0.2 -1.4l1.8 -1.4l-1.2 -1.4l0.2 -1.1l-1.4 -1.7l-1.6 -1.5l0.5 -1.1l0 -1.4l0.1 -1.5l0 -1l-2.7 -3l-3 -2.1l0.6 -1.7l-0.5 -3.8l-5.4 -0.9l-1.7 1.3l-3 0.7l-1.3 1.7l-2.2 0.6l-3.1 1.8l-1.5 1.4l-13.2 -9.6l-1.3 1.1l-1.7 0.7l-1.1 0.4l-1.2 0.5l-1.1 0.9l-2 0.4l-1.7 0.5l-1.1 0.4l-1.5 0.8l-1.8 1.4l-1.2 1.7l-0.6 1.2l-0.6 1.2l-1.3 2l-1.6 1.2l-1 1.6l-1.1 1.7l-1.1 0.7l-0.6 1.2l-0.9 1.1l-0.2 1.1l-1 0.9l-0.6 1.1l-0.2 1.2l-1.6 1.4l-0.9 1.6l-0.8 1.3l-0.9 1.4l-0.5 1.6l-1.1 0.8l-0.6 1.1l-1.4 1.5l-0.1 1.3l-0.9 1.1l-0.8 1.7l-1.5 1l-0.4 1.5l-0.4 1.4l-1.4 1.1l-0.2 1l-1 0.6l-0.3 1.1l-0.9 1.1l-0.3 1l-0.8 1.6l-0.7 1.2l-1.1 -0.1l-1.6 0.6l0 1.6l-1.2 -0.2l-1.5 0.6l0 1l-1.3 0.9l1.3 0.2l0.9 1.2l0.1 1.9l-1 0.5l-1 1l0.1 1.1l-0.7 1.2l-1.1 0.5l-0.7 1.2l-0.5 1.1l-1.3 0.2l-1.5 1l-0.4 1.1l-1.2 0.9l-1.1 0.6l-1.2 1.3l-0.6 1.3l-1 1.5z"/><g data-id="06111"><path d="m484.5 987.6l-2.4 1.6l3.1 2.1l3.1 0.3l2.8 -0.7l1.5 -2.2l-1.6 -0.8l-3.8 1.4l-2.7 -1.7z"/><path d="m479.9 946.7l1.6 0.4l2.4 2.1l4.4 4.5l1.4 -0.3l2.6 2l1.1 1.6l2.4 1.8l1.1 0.3l1.1 -0.3l1.2 0.9l0.5 1l0.7 2.9l0.9 2.5l1.9 4.4l0.9 1.7l1.1 1.8l1.3 0.1l1.4 0.6l5.7 4.6l2 0.7l1.1 -0.6l2.7 1l3.2 0.9l3.2 2l2.6 0.7l2.2 1.4l1 0.3l0.4 -3.5l8.2 -6.1l6.6 -4.9l6.4 0l1.9 -0.1l3.4 0l0 -3.6l0 -2l0 -2.4l1.7 -0.4l1.7 -0.2l0 -2.5l-0.4 -3.3l-1.5 -3.7l-1.8 -4.4l-2.2 -5.4l-2.9 -7.1l-1.5 -3.8l-5.7 -13.9l-8.2 -20.6l-9.3 0l0 -2.6l-26 -0.2l0 -5.1l-3.4 0l0.1 -2.7l-10.3 0l0 -2.5l-5.9 0l0 40.3l0 11.5l0.2 2.6l-1.3 2.8l0.8 1.7l-3.1 3.2z"/><path d="m470.1 1075.4l0.8 2.4l0.6 1.2l1.9 1.6l2.8 0.8l1.7 0.7l2.4 0.6l1.1 0l2 -0.4l1.4 -1l-2.8 -3.1l-2.4 -1.1l-2.2 -1l-2.2 -1.4l-1.6 0.5l-1.1 0.8l-2.3 -0.6z"/></g><path data-id="06113" d="m195.2 394.7l-1.7 2.7l3 4.5l0.6 2l3.4 2.1l2.3 -1.3l1.1 0.8l2.7 -0.1l1.4 3.8l1.4 2.4l0.9 4.3l2.4 4.1l0.1 2.8l1.6 0.6l0.5 2.3l2 2.5l1.5 0.2l0.7 2.4l-0.7 2.1l1.6 -0.7l2.3 5.2l1.6 7.4l0.8 1.3l4.5 -0.5l2.4 2.9l1.8 0.7l3.5 -2.4l1 -1.5l2.7 -1.7l3 0.5l2 -1l2.8 -0.1l4.6 1.6l2.7 0.4l1.5 -1.1l3.1 -0.7l2.6 0l1.7 1.4l0.1 26.4l9.8 0.2l0.9 -2.3l2.4 -1.2l3.7 -2.2l0.5 -5.9l-1.5 -2.7l2.5 -1l0.1 -4l-3.7 -0.9l-1.6 -3.2l0.7 -1.5l2.6 -0.7l-0.6 -1.3l1.8 -1.5l-0.8 -3.1l1.4 -2.5l-0.5 -1.8l-4.1 -0.3l-1.1 -4.9l-2.8 -0.2l-3.9 -5.2l2.7 -4l0.3 -2.2l1 -3.4l-1.5 -2.2l-1.6 -0.6l-0.9 2.1l-3 0.4l0.5 1.3l-1.4 1.5l0.3 -2l-1.6 -0.5l-1.5 -5l-2.2 -0.1l0 -2.7l-0.7 -1.1l0.7 -2.1l-2.6 -2.5l-3.4 1.8l-3 -2.5l1.1 -3.1l-0.1 -1.7l-2.9 -1.2l-49.1 0l-1.4 -0.1l-4.8 0z"/><path data-id="06115" d="m270 352.5l-0.1 2l0.8 2.1l1.3 0l-0.7 2.8l0.8 2l1.5 7.8l-0.5 3.5l1.5 -0.2l0.1 1.5l-2.4 4l0.4 3.2l1.1 1.1l-0.5 1.5l2 0.6l-1 2l1.1 5.5l-0.4 1.4l0.7 2.2l0.4 -2.6l1.7 -1.9l1 -2.3l1.8 0.1l3.4 -2.6l3.2 -0.8l1.2 0.6l2.8 -0.4l4.8 -4.4l3.3 -1.3l2.5 -1.4l2.6 2.3l0 -24.6l2 -3.3l-0.7 -2l2.5 -1.4l1.9 0.2l2 -2.5l-0.6 -1.8l2.7 -2.8l2.2 0.6l0.2 -1.8l2.7 -4l2.6 -0.1l1.6 -1.7l3.5 0l2.5 0.4l-1.2 -15.5l-1.4 -0.3l-0.9 -2.5l1 -1.5l2.2 -1.3l1.5 -10.2l-6.5 5.3l-0.3 1.5l-2.7 0l0 2.3l-3.3 0.6l-0.8 4.5l-3.4 0.9l-5.4 -0.9l0 1.7l-3.6 0l-2.7 -0.9l0 2.7l-0.9 2.8l-2.3 1.9l-0.7 2.8l1.1 1.7l-2.5 3.3l-1.2 4.3l-1 0.2l-2.4 2.9l-2.7 0.3l-1.2 0.9l-2.7 -0.3l-1.1 2l-4.4 -0.1l-3.1 1.6l-3 -0.4l-1.7 -1.4l-1.2 2.9l0.2 4.1l-1.4 0.1z"/></svg>
