<?xml version="1.0" encoding="UTF-8"?>
<!DOCTYPE svg PUBLIC '-//W3C//DTD SVG 1.1//EN' 'http://www.w3.org/Graphics/SVG/1.1/DTD/svg11.dtd'>
<svg viewBox="0 0 9650.72 15122.4" xmlns="http://www.w3.org/2000/svg">
  <g data-id="001">
    <path d="m8808.1 3269.5l0 0l8.3 665.7l2.3 16.4l5.1 661.8l775.4 -15.2l0.4 -278.7l-0.2 -59.3l-0.1 -55.6l0.2 -55.9l0.1 -8l0.1 -42.5l-0.3 -62l0.2 -36.7l0 -0.1l-0.4 -54.3l-0.8 -89.3l1.1 -135l-2.2 -469l-0 -0.7l-789.1 18.3z" />
  </g>
  <g data-id="003">
    <path d="m8037.2 2260.3l0 0l4.5 345.7l4 326.2l0.8 12.4l-1.9 327.7l492.2 1.9l167 -2.9l104.5 -1.9l789.1 -18.3l-1.1 -257l-0 -0.7l-0 -77.9l-0.1 -307.9l0.4 -124.1l-1.6 -73.9l1.1 -93.3l-0.5 -33.1l0.4 -2.7l-0.1 -304.5l-0 -0.1l-0.3 -71.2l-0 -0.5l-0 -0.8l-798.7 22l-332.9 5.4l-337 0.2l-5.9 328.8l-83.8 0.5z" />
  </g>
  <g data-id="005">
    <path d="m5861.2 9264.9l0 0l11 443.7l8.1 550.8l-3.6 110.2l1.1 53.5l52.9 0.1l586.1 -18.5l-5.7 -30l44.3 -28.5l41.6 -26.8l29.4 -22.7l70 4.4l-3 -226.5l74.2 -0.9l255.1 -6.4l0.4 -490.7l6.2 -333.6l-332.8 -0.5l-170.9 3.3l-275.4 7.3l-220.5 6.6l-168.6 5.3z" />
  </g>
  <g data-id="007">
    <path d="m1664.3 4962.5l0 0l-0 1.1l1260.7 4.3l-4.9 -333.9l-4.5 -649.7l-4.3 -17l-492 -0.2l-753.9 -1.2l-0.5 773.3l-0.2 1.1l-0.1 166.8l-0 1.3l-0.4 53.9z" />
  </g>
  <g data-id="009">
    <path d="m7721.2 4618.5l0 0l3.5 335.8l4.4 383.3l0 1.5l314.5 0.1l13.5 1.9l325.7 -3.1l24.4 -0.6l13.6 0l-0.1 -13.9l1 -369.5l16.6 -5.1l-1 -331.6l-57.8 -0l-493.8 1.4l-164.5 -0.1z" />
  </g>
  <g data-id="011">
    <path d="m4083.9 6103l0 0l0.1 640l2.1 333.7l714.3 -2l275.5 -2.8l69.5 -0.4l14.9 0.4l139.3 -2.7l112.8 -5l-3.9 -276.3l-1.1 -274.1l-0.8 -110.5l-1.9 -308.3l-221.9 5.8l-96.9 2.7l-13.5 1.7l-988.4 -2.1z" />
  </g>
  <g data-id="013">
    <path d="m4999.7 9281.6l0 0l4.2 333.7l21.9 0.7l9.4 654l-2.6 106.7l151.3 -1.6l692.8 -5.5l3.6 -110.2l-8.1 -550.8l-11 -443.7l-157.2 4.2l-13.8 -0.3l-312.7 5.6l-377.8 7.2z" />
  </g>
  <g data-id="015">
    <path d="m3855.4 4245.9l0 0l8.6 391.2l221.2 0.8l2 496.9l331.3 2.5l50.9 0.2l546.7 -1.6l1.8 -329.3l2.1 -166.8l2.6 -503.1l-275 1.9l-166.7 -1.8l-0.1 -95.2l0.2 -70.1l-164.8 -1.2l-224.4 -3.2l-238 -3.8l-27.7 6l-33.1 146.4l36.9 36.6l-39.4 32.7l57.2 -5.2l-45.8 65.1l-46.4 1z" />
  </g>
  <g data-id="017">
    <path d="m4416.7 3296.1l0 0l-0.6 674.2l164.8 1.2l-0.2 70.1l0.1 95.2l166.7 1.8l275 -1.9l-2.6 503.1l329.6 -2l280.3 -2.9l-2.5 -333.7l0.7 -350.2l-9.4 -10.5l-0.4 -640.2l-436.8 1.7l-37 -1.1l-70.4 0.9l-328.1 -1.7l-329.2 -4z" />
  </g>
  <g data-id="019">
    <path d="m6126.2 12729.2l0 0l-0 27.5l80.8 27.9l135.4 -1.3l328.3 -2.4l127.6 207.5l-96.8 59.8l40.7 45.3l-31 22.7l6.5 95l0 -0l30.9 0.4l22.1 8.5l21.6 21.2l0.6 3l-2.3 7.4l16 18.9l29.4 17.4l17.8 2.6l17.8 -8.1l15.4 -9.3l59.4 -35.8l78.8 -47.5l7.2 -4.3l22.6 -19.7l2.3 -2l18.4 -34.1l25.6 -33l18.2 -28.6l21.7 -58.7l21.6 -68.8l2.2 -17.4l-1.5 -39.7l1.4 -13l0 -0.2l12.7 -48.5l2.2 -8.5l8.7 -24.7l24.3 -55l3.8 -17.1l-0.6 -5.2l37.6 -60.2l11.1 -10.4l46.8 -31.2l36.4 -10.4l63.9 -2.2l48.8 -8.2l27.3 -8.2l29.8 -11.4l52.6 -25.6l21.7 -24l24.8 -40.9l4.8 -9.9l5.2 -22.9l5.2 -14.1l9.7 -21.4l6.2 -8.2l16.1 -14.9l12.2 -8.6l11.7 -6.7l48.8 -21.6l25 -13.9l0.6 -0.5l20.8 -17.4l7.9 -10.6l16.8 -34.2l5 -20.8l1 -33.8l-1.6 -30.3l-11.8 -37.3l-24.5 -47.6l-147 0.6l-51.5 -22.5l-0.6 -54.1l-213.5 2.2l-436.1 2.3l-88.1 -1.1l-45.7 1.4l-81.3 2.4l-81.2 109.6l0.9 52.1l-77.9 0.6l0.9 52.6l-54.6 0.2l0.2 106.8l-53.7 1l-0.2 54.7l-210.7 5.7l2.6 48.4l-108.1 1.5l-3.8 261.1z" />
  </g>
  <g data-id="021">
    <path d="m2497.7 9585.3l0 0l-1 328.2l325.7 10.5l176.5 3.8l40.1 -0.5l2.7 -656.5l323.8 2.2l0.5 -218l-0.3 -111l2.5 -27.4l4.5 -138.6l-217.1 -0.9l4.3 -495.6l-323.8 -3.7l-217.8 -5.2l-3.2 329.8l-113.2 -2.9l-0.4 76.8l-1.4 251.7l-2.4 657.2z" />
  </g>
  <g data-id="023">
    <path d="m4084.4 5966.8l0 0l-0.5 136.2l988.4 2.1l13.5 -1.7l96.9 -2.7l221.9 -5.8l-1.1 -133.7l-0.7 -602.7l-110 -0.3l-0.2 -55.8l-83 -0.1l0.2 -165.8l-138.5 -0.5l-55.2 -0l-546.7 1.6l-50.9 -0.2l-331.3 -2.5l-1.4 500.6l-0.3 164.1l-1.1 167.3z" />
  </g>
  <g data-id="025">
    <path d="m4125.8 12816.8l0 0l1.5 162.8l4.1 326.2l318.6 -12l-4.5 218l324.1 2.6l-0.5 19.8l-1.3 297.5l11.4 -12.4l21.3 -10l52.6 4.1l37.8 31.2l39.9 44l9.9 1.5l15.8 -8.9l26.2 -62.4l21.7 -17.2l13 -5l66.6 8l50.5 -2.9l19.7 -13.5l14.4 -22.8l6.3 -31.1l-13.6 -25.6l-80.6 -19.5l-52.8 -17.1l-16.6 -26.7l-2.1 -53.6l8.5 -18.6l4.2 -9.2l39.1 -20.2l36.8 12.7l43.5 46l8.1 6.6l37 11.1l31.5 -90.3l48.4 -0.6l-14.6 -78.9l52.3 -11.7l6.4 -196l63 -44.3l-32.8 -10.3l14.7 -42.6l-88.3 -36.9l47.2 -18.6l-4.2 -54.6l-18.2 -55l30.3 -39.5l68.7 43.9l-35.9 -146.6l12.9 -125.5l-156.2 -0.7l-0.6 107.1l-891 -5.2l-194.1 2.6z" />
  </g>
  <g data-id="027">
    <path d="m2412.5 11648.6l0 0l-26 63.8l45.6 12.3l-28.3 30.7l45.5 51.7l3.7 40l49.6 -13.6l-5.7 99.8l-35.9 2.5l41.2 77.9l-47.3 -8.4l23.2 45.8l-0.5 64.8l27.6 27.6l-28.4 23.3l29.6 63.6l-13.6 27.8l61.6 22.7l50.9 -49.9l81.5 30.9l74.4 105.5l127 -80.5l57.3 90.8l41.8 -6.9l24.9 48.5l54.6 -34.3l57.3 12.9l91.6 -21l55.9 41.3l54 -5.5l39.9 40.4l17.3 -43.4l36.1 -4.1l1.4 -674.8l2.2 -488.6l54.5 -1l0.1 -120.1l-0.2 -204.2l-382.1 6.5l-184.5 -5.7l23.5 13.8l-76.9 4.9l-39.2 50.3l30.9 45.9l-69.2 22.1l5.4 72.6l-21.7 35.8l-61.3 -32l-8.7 65.6l-39.3 -16.4l-76.9 96.5l-77.6 -42.2l-19.5 43.2l19.9 79.9l-39.1 25.1l-12.7 44.3l42 -4.1l-2.1 70.2l-31.3 66.9l22.2 12.1l-40.6 -18.5l-4.4 18.5l15.8 37.5l-36.7 39z" />
  </g>
  <g data-id="029">
    <path d="m8637.3 10752.7l0 0l49.6 -31.8l-6.1 75.1l59.8 4.3l41.9 -63.3l70.2 12.3l1 -34.2l52.6 -66.8l45.1 5.3l22.6 -29.4l38.9 26.7l15.9 -79.9l82.7 15.5l46.1 -9.3l22.7 -42.6l36.7 0.2l62.2 -47.6l38.9 21.3l60.3 -65.9l-14 -12l-18.1 -25.5l-15.2 -32.8l-8.4 -10.6l-0.6 -18.6l10.2 -19.1l14.6 -14.7l52.2 -28.1l29.9 -16.1l32.4 -38l29.3 -26.4l24.2 -24.9l14.4 -8.4l17.7 -4.9l0.5 -163.7l0.5 -32l-0.9 -229.6l-0.1 -32l1 -64.3l0 -13.1l-0.2 -12.1l0.7 -40.8l0 -36.6l0.5 -126.3l-716.9 -7.8l-47.5 319.6l-8.7 60.2l-82.3 584.5l-56.5 384.3z" />
  </g>
  <g data-id="031">
    <path d="m7023.2 9576.5l0 0l-0.4 490.7l350.9 -7.1l367.8 -236.1l13.7 -10.4l350 -226.6l54.2 -36.3l-1.1 -314.5l2.3 -15.8l-4.2 -366.5l-338.2 0.6l-628.1 1.4l-3.8 386.5l-157 0.6l-6.2 333.6z" />
  </g>
  <g data-id="033">
    <path d="m8458 912.7l0 0l5.8 1018.2l332.9 -5.4l798.7 -22l-1 -375l-0.6 -156.6l0.3 -0.3l0.1 -12.8l0.2 -55.9l0 -0.3l0.1 -36.5l-1.6 -204.8l-0.3 -47.2l-0.5 -115.6l0 -0.2l-477 8.1l-327.1 4.1l-329.9 2.2z" />
  </g>
  <g data-id="035">
    <path d="m7338 5336.1l0 0l4.6 279.5l3 598.1l0.2 28l-0.4 122.7l-0.4 125.2l389.3 1.7l664.6 -0.8l-8.9 -602.3l-3.9 -274l-3.3 -276.4l-325.7 3.1l-13.5 -1.9l-314.5 -0.1l-0 -1.5l-391.1 -1.5z" />
  </g>
  <g data-id="037">
    <path d="m2984.5 12714.3l0 0l1.9 325.7l-1.4 378.8l-0.2 106.7l162.1 0.9l273.2 2l385 -7.8l-1.9 -163l329.6 3.8l-1.5 -55.7l-4.1 -326.2l-1.5 -162.8l-2.7 -489.6l-451.8 -0.3l-19.6 42.1l-97.4 72.7l-118.1 -5l-17.6 -31.2l-36.1 4.1l-17.3 43.4l-39.9 -40.4l-54 5.5l-55.9 -41.3l-91.6 21l-57.3 -12.9l-54.6 34.3l-24.9 -48.5l-2.5 343.5z" />
  </g>
  <g data-id="039">
    <path d="m5928.3 0.2l0 0l3.5 312.3l0.1 7.4l1.2 98.1l-0.5 10.8l1.6 249.9l3.1 253.3l-1 19.5l0.9 145.1l0.6 168.4l505.1 0.7l341.1 -0.4l335.5 -4.3l-3.6 -336.3l-14.6 -918.9l-188.7 0.1l-74.2 -0l-1.4 0l-68.6 -0.2l-2.9 -0l-47.5 0.4l-0.1 0l-235 -1.2l-8.6 0.1l-40.1 -0.3l-0.2 -0l-250.7 -1.7l-0.2 0l-47.5 -0.4l-0.2 -0l-144.6 -2.2l-62.8 -0.1z" />
  </g>
  <g data-id="041">
    <path d="m8144.8 7589.6l0 0l10.1 991.6l164.1 -0.8l326.6 -3.6l272.5 1.7l3.3 -494.6l1.1 -218.4l-250.9 -1l-187.5 -1.8l4.7 -276.1l-109.7 -0.2l-234.4 3.3z" />
  </g>
  <g data-id="043">
    <path d="m6015 12730.9l0 0l0.8 324.1l53.1 -0.2l0.6 107.3l54.9 3.4l-0 26.1l8.6 68.6l54.4 0.4l-0.3 54.2l54.1 0.6l-6.9 276l165.9 1.4l3.1 19.9l5.5 -14.5l8.4 -15.6l42.2 -55.2l16.7 -15.6l3.8 -3.5l4 -3.7l9.6 -9l49.9 -41.6l16.6 -25l0.8 -1.2l16.9 -35.2l0 -0.2l4.9 -42.1l-0.3 -23l9.3 -39.7l16 -32.3l16.3 -14.1l22.1 -8.9l39.6 -7.4l18.9 -6.3l5.8 -4.5l7.2 -2.6l-6.5 -95l31 -22.7l-40.7 -45.3l96.8 -59.8l-127.6 -207.5l-328.3 2.4l-135.4 1.3l-80.8 -27.9l0 -27.5l-56.9 -2.7l-54.4 4.4z" />
  </g>
  <g data-id="045">
    <path d="m1953 6851.1l0 0l-36.3 86.1l57.1 26.7l296.2 -1.1l662.7 -1l-1 -310.3l-2.3 -16.7l-1.2 -669.6l1.2 -579.7l-114.7 99.5l-112.4 22l-220.4 99.3l-11.3 37l-94 82.3l-38.9 81.2l-61.2 36.8l-66.9 89.7l-53.3 46.9l-181.5 71l-23.6 53.3l-31.4 52.7l88.1 81.9l5.4 58.9l-31.4 262l-51.2 123.2l22.2 167.9z" />
  </g>
  <g data-id="047">
    <path d="m8155 8581.2l0 0l1.6 272.5l4.2 366.5l-2.3 15.8l1.1 314.5l229.1 -151.2l137.9 -5.3l274.5 -0.4l31.2 10.4l716.9 7.8l0.3 -16.2l5.5 -310l4.9 -322.8l0.6 -126.8l0 -0.4l0.6 -41.2l-604.3 -9.2l-38.6 -6.9l-272.5 -1.7l-326.6 3.6l-164.1 0.8z" />
  </g>
  <g data-id="049">
    <path d="m4749.7 2627.3l0 0l-3.8 672.8l328.1 1.7l70.4 -0.9l37 1.1l436.8 -1.7l1.6 -332.7l646.7 -12l2.9 -18.7l-0.4 -150l-212.9 3.9l0.7 -170.9l-167.6 4.8l-4.7 -340.3l-1134.5 5.5l-0.5 337.2z" />
  </g>
  <g data-id="051">
    <path d="m320 13334l0 0l-2.2 25l4.4 29.7l5.9 39.6l542.1 5.5l-1.5 98.7l324.7 3.5l-0.5 120.7l644 11.2l1.6 -133l325.1 -1.3l111 -0.5l0.4 -164.3l-0.3 -162.1l2.1 -340.5l-68.3 10l-50 -33.8l-42.7 41.2l-105.1 4.9l0.7 -226.1l-108.4 0.7l0.1 -109.2l-52.4 -0.5l-1.2 -252.7l-38.5 20.5l10.8 53.3l-51.7 27.4l-13.1 39.6l-75.6 -29.4l-36.9 9.7l-10.2 -65l-36.9 25.3l27 70.1l-97.2 6.5l-75 150.1l-112.5 17.1l-3.9 -34.9l-37.3 23.7l-11 -33.1l-51.4 43.1l34.3 40.2l-111.9 51.4l-128.9 27.4l-2.5 20.4l-42.4 59.4l-58.8 82.4l-76 28.6l-48.5 60.3l-29.1 81.9l2.2 65.4l3 29.2l-5.4 22.4l-23.8 49.1l-14.4 12.8l-25.4 4.8l-24.5 -18.1l-9.3 -36l16.9 -57.1l-7.7 -16.5l-16.8 -9.1l-17.9 7.6l-16.9 24.1l-11.7 39.6l-8.7 28.8l-29 21.6l-31.3 40.4l-12.5 1.7l-13.9 -7.2l-4.9 -21.6l11.2 -23.9l16.3 -25.9l1.5 -23.7l-20.8 -13.6l-24.7 2.6l-36 23.1l-14.4 49.9l-28.1 17.5l8.8 37.6l19.9 14.2l-11.6 18.5l-29.4 13.6l-7.8 24.8l2.5 18.1l-6.5 11l-15 2.6l-10.4 -3.6l-4.7 -12.9l1.9 -9.2l-34.7 -48.6l-15.2 -4.8l-1.1 3.5l-1.6 4.8z" />
  </g>
  <g data-id="053">
    <path d="m6504.4 4293.3l0 0l3.3 330.6l1.7 332.6l2.7 274.9l-0.5 109.1l221.7 -2.1l604.7 -2.3l391.1 1.5l-4.4 -383.3l-3.5 -335.8l-5.3 -332.6l-552.7 1.8l-107.6 1.2l-551.3 4.3z" />
  </g>
  <g data-id="055">
    <path d="m2496.1 10241.5l0 0l-0.3 661.6l323.7 2.1l90.6 12.5l184.5 5.7l382.1 -6.5l644.9 -1.8l1.7 -328.5l-0.4 -327.9l-1.8 -322.5l-1082.3 -8.8l-40.1 0.5l-176.5 -3.8l-325.7 -10.5l-0.5 328.1z" />
  </g>
  <g data-id="057">
    <path d="m5403.5 5961.2l0 0l1.1 133.7l1.9 308.3l0.8 110.5l1.1 274.1l3.9 276.3l107.4 -2.2l54.9 -0.7l55.2 -0.4l258.9 -0.2l185.3 -1.4l51 1.2l167.3 -0.5l219 -6.9l-0.3 -55.7l0.7 -223l-3 -386.5l4 -438.6l-214.5 1.9l-894.7 9.9z" />
  </g>
  <g data-id="059">
    <path d="m6245.5 7329.7l0 0l0.6 55.6l1.1 55.7l0.6 75.9l0.9 35.5l0.6 55.7l0.2 40.6l1.8 172.6l-0.1 110.9l165.6 -4.9l762.1 -0.1l-0.8 -332.3l106.5 -1.3l0.7 -327.7l57.9 0.4l1.8 -277l-668.5 4.5l-165.4 3.6l0.3 55.7l-219 6.9l-1.4 15l0 136.7l0 65.9l-45.5 52z" />
  </g>
  <g data-id="061">
    <path d="m5186.3 13620.7l0 0l-37 -11.1l37.5 30.5l37.8 18.7l47.7 36.4l46.5 74.7l1.7 28.7l-21.7 117l-0.2 34.1l15 80.9l18.3 36.2l1.2 2l16.4 16.3l32.9 25.5l49.3 24.1l22 22.3l15 19.8l40.6 22.4l45.2 20.1l34.8 19l19.8 5.1l14.2 0.2l76.4 -20.7l39.3 -2l27.3 2.7l29.3 6.9l36.1 16.6l24 14.1l21.8 15.8l13.5 14.4l4.1 5.5l-2.7 7.8l9.5 22.7l19.8 42.8l9.1 15.9l22.8 28.7l15.9 15.5l9.5 4.1l8.3 0.9l12.1 -4.9l6.3 -8.7l4.8 -10.8l2.8 -21.3l-5.5 -40.1l0.8 -13.3l7.4 -19.5l8.6 -9.4l25.8 -12.8l33.6 -8.9l29.6 -4.6l6.9 -1.1l59.9 -12.9l51.6 -3.9l19.9 -3.7l10 -5.7l7 -4l17.9 -10.1l14.1 -12.8l12.8 -14.4l14 -19l4.4 -9.7l4.4 -9.6l3 -12.8l5.3 -33.1l3.4 -48.6l4.1 -28.2l3.9 -17.1l7.2 -25.5l20.4 -47.4l4.7 -52.2l-1.7 -40l-0 -0.1l-12.5 -107.3l2 -78.1l26.8 -71l-3.1 -19.9l-165.9 -1.4l6.9 -276l-54.1 -0.6l0.3 -54.2l-54.4 -0.4l-8.6 -68.6l0 -26.1l-54.9 -3.4l-0.6 -107.3l-53.1 0.2l-0.8 -324.1l-317.2 -7.5l-330.1 -10.3l-12.9 125.5l35.9 146.6l-68.7 -43.9l-30.3 39.5l18.2 55l4.2 54.6l-47.2 18.6l88.3 36.9l-14.7 42.6l32.8 10.3l-63 44.3l-6.4 196l-52.3 11.7l14.6 78.9l-48.4 0.6l-31.5 90.3z" />
  </g>
  <g data-id="063">
    <path d="m4086 7076.6l0 0l-0.2 219.9l24.1 0l-1.6 888l133 1.5l-43.4 108.3l282 2l274.5 0.4l-0.9 -110.6l84.1 -1l55.8 -0.6l238.8 -5.8l27.9 -0.7l-0.7 -330.4l0.3 -37.7l-0.4 -186.4l-1.9 -166.2l-2.1 -139.5l7.7 -26.2l-2.7 -219.6l-14.9 -0.4l-69.5 0.4l-275.5 2.8l-714.3 2z" />
  </g>
  <g data-id="065">
    <path d="m7285.3 7265.9l0 0l-0.7 327.7l546.7 -3l313.5 -1l234.4 -3.3l1.1 -322.9l57.6 -0.8l0.4 -330l-1.9 -166.6l-35 0.5l-2.6 -275.9l-664.6 0.8l-389.3 -1.7l-0.6 111.5l0.1 219.6l0.5 168.5l-1.8 277l-57.9 -0.4z" />
  </g>
  <g data-id="067">
    <path d="m5017.8 4806.7l0 0l-1.8 329.3l55.2 0l138.5 0.5l-0.2 165.8l83 0.1l0.2 55.8l110 0.3l0.5 -111.9l337 -5.4l193.6 -3.3l248 -3.9l330.3 -2.5l-2.7 -274.9l-1.7 -332.6l-218.9 2.8l-217.1 2.6l-332.3 3.9l-109.5 1.7l-280.3 2.9l-329.6 2l-2.1 166.8z" />
  </g>
  <g data-id="069">
    <path d="m7147.9 2943.7l0 0l8.2 592.5l7.1 751.6l552.7 -1.8l305.4 -4.6l27.1 1.5l-4 -1010.5l1.9 -327.7l-0.8 -12.4l-169.9 0.2l-169.4 -0.2l-558.4 11.3z" />
  </g>
  <g data-id="071">
    <path d="m5183.9 10375l0 0l1.9 217.2l108 -0.6l2.8 112.1l12.1 738.1l61.7 -23.6l49.4 8.7l38.1 -42.4l76.9 20.1l39.5 -36.7l143.2 79.1l94.9 -12.4l28.6 -66.2l50.9 32.6l58.2 6l85.5 64l120.8 -45.2l22.2 58.7l46 -44l36.4 39.4l34.6 -8.2l60.9 36.9l20.9 -38.1l51.5 98.7l7.1 -17.6l20.2 35.2l34.5 -4.3l81.4 -55.9l64.6 -132.1l43.3 -12.7l26.8 -103.2l-3.2 -387.2l-2.3 -220l-4.5 -370.3l-70 -4.4l-29.4 22.7l-41.6 26.8l-44.3 28.5l5.7 30l-586.1 18.5l-52.9 -0.1l-1.1 -53.5l-692.8 5.5z" />
  </g>
  <g data-id="073">
    <path d="m2394.3 2107.5l0 0l-1.7 1186.5l21.6 -0.2l1.8 64.5l3.3 608.9l492 0.2l-4 -388.8l330.1 -1.3l-2.7 -224.5l-0.3 -61.5l165.1 -0.9l-0.5 -250.1l2.2 -753.6l0.3 -249.6l-110.8 66.4l-125 -82.3l-141.8 -110.9l-181.8 -65.3l-26.8 0.5l-177.7 81.2l-77.2 90.1l-21.9 25.3l-144.2 65.5z" />
  </g>
  <g data-id="075">
    <path d="m8382.8 5337.9l0 0l3.3 276.4l1208.3 -12.9l0 -0.1l-0.6 -162.9l-0 -0.3l-1.1 -224.5l1.7 -195.2l0.3 -10.9l3.7 -139.4l0.2 -100.5l0.6 -169.3l-775.4 15.2l-386.4 3.8l1 331.6l-16.6 5.1l-1 369.5l0.1 13.9l-13.6 -0l-24.4 0.6z" />
  </g>
  <g data-id="077">
    <path d="m7031.4 11249l0 0l1.5 293.9l108.1 25.7l1.3 81.5l108 0.6l1.4 108.7l108.5 1.1l2.8 269.6l213.5 -2.2l0.6 54.1l51.5 22.5l147 -0.6l-23 -44.6l-3.7 -12.8l-3.3 -13.7l-2.2 -18.6l-0.3 -81.9l5 -61.6l-2.9 -38.9l-17.7 -40.2l-31.1 -44.8l-2.9 -11.1l-1.4 -15.2l2.9 -24.3l11.2 -51.1l9.5 -15l19.2 -24.2l13.1 -24.5l10.8 -11.4l35.1 -20.1l15.7 -5.4l16.6 -3l30.4 4.1l82.1 20.2l24.6 0.4l1.4 -0.2l33.7 -4.2l31.5 -8.4l23 -8.2l6.5 -2.3l72.1 -18.5l49 -2.8l40.1 4.6l22.8 4.8l25.6 8l35.9 22.2l11.9 20.9l11 14l36.7 63.6l14.4 16.8l22.9 20.6l25.5 14l8.5 2.9l-4.6 -833.1l-704.1 3l-54.1 0.2l-217.6 2.7l2.2 110.2l-105.9 0.5l0.1 108.2l-108.4 -0.1l1.2 110.4l-213.3 33.1z" />
  </g>
  <g data-id="079">
    <path d="m6693.6 10074.5l0 0l3 226.5l4.5 370.3l2.3 220l3.2 387.2l66.1 -7.9l115 -83l143.7 61.3l213.3 -33.1l-1.2 -110.4l108.4 0.1l-0.1 -108.2l105.9 -0.5l-2.2 -110.2l217.6 -2.7l54.1 -0.2l14.1 -1060.1l-367.8 236.1l-350.9 7.1l-255.1 6.4l-74.2 0.9z" />
  </g>
  <g data-id="081">
    <path d="m5378.2 9149.6l0 0l-0.8 124.7l312.7 -5.6l13.8 0.3l157.2 -4.2l168.6 -5.3l220.5 -6.6l-3.4 -136.2l5.2 -526.6l-1.6 -55.7l-0.5 -379.7l-463.6 9.8l-83.1 1.5l-69.9 1.3l-121.7 2.8l-86.1 1.5l-43.2 0.7l-2.2 248.4l1 190.5l-3.9 3.1l0.6 535.2z" />
  </g>
  <g data-id="083">
    <path d="m1039.4 12665.1l0 0l-9.7 78.4l128.9 -27.4l111.9 -51.4l-34.3 -40.2l51.4 -43.1l11 33.1l37.3 -23.7l3.9 34.9l112.5 -17.1l75 -150.1l97.2 -6.5l-27 -70.1l36.9 -25.3l10.2 65l36.9 -9.7l75.6 29.4l13.1 -39.6l51.7 -27.4l-10.8 -53.3l38.5 -20.5l89.6 11.2l27 -33.9l33.7 48.7l23.4 -55.3l56.6 13.5l5.4 64.9l41.8 27.5l-7.3 -93.4l43.8 -20.5l117.7 82.4l39 41.5l132.1 -60.8l40.2 -68.3l13.6 -27.8l-29.6 -63.6l28.4 -23.3l-27.6 -27.6l0.5 -64.8l-23.2 -45.8l47.3 8.4l-41.2 -77.9l35.9 -2.5l5.7 -99.8l-49.6 13.6l-3.7 -40l-45.5 -51.7l28.3 -30.7l-45.6 -12.3l26 -63.8l36.7 -39l-15.8 -37.5l4.4 -18.5l40.6 18.5l-22.2 -12.1l31.3 -66.9l2.1 -70.2l-42 4.1l12.7 -44.3l39.1 -25.1l-19.9 -79.9l19.5 -43.2l77.6 42.2l76.9 -96.5l39.3 16.4l8.7 -65.6l61.3 32l21.7 -35.8l-5.4 -72.6l69.2 -22.1l-30.9 -45.9l39.2 -50.3l76.9 -4.9l-23.5 -13.8l-90.6 -12.5l-323.7 -2.1l-0.1 23.5l-834.7 -22.8l-47.9 47.1l-9.6 72.9l-17.5 45.9l8.4 14.2l47.1 26.4l24.6 13.8l12.3 83.1l-16.5 31.6l89.7 147.8l-5.4 59.8l-1.6 17.8l7.1 56.2l-20.5 34.3l-38.4 64.3l-8.5 71.4l-33.9 49.1l-12.4 7.1l-29.3 16.9l-140.2 38.1l-77 104.1l-6.6 76.9l-14.5 50.1l9.3 31.6l0.7 11.1l-7.4 10.9l-8.5 4.1l-24.4 5.4l-40.1 75.8l2.4 44.4l-29.2 56.4l14.4 74l5.8 14.2l-1.1 20.4l-8.5 17.7l-19.3 15.8l-42.7 16.7l-43.1 38.7l-60.8 30.4l-48.7 4.3l-25.5 13.6l-11.7 27.1l1.1 32.6l21.7 22.4l16.3 24.1l-1.6 13.4l-30.1 27.3z" />
  </g>
  <g data-id="085">
    <path d="m5884.7 2284.5l0 0l4.7 340.3l167.6 -4.8l-0.7 170.9l212.9 -3.9l436.2 -2.7l325.2 -12.1l-7 -509l98.6 -0.4l4.4 -338l-2.1 -112.4l-3.8 -218.8l-0.8 -332.6l-335.5 4.3l-341.1 0.4l-505.1 -0.7l7.8 626.6l4.1 191.6l3.2 200.3l-68.5 1.1z" />
  </g>
  <g data-id="087">
    <path d="m7101.6 5.8l0 0l14.6 918.9l673.5 -8.7l335.1 -2.3l333.1 -0.9l-7.8 -909.3l-105 -0.4l-114.7 -0.6l-2.1 0.3l-2.2 0.6l-53.6 -0.7l-0.2 -0l-18 -0.3l-28.5 -0.3l-29.1 0.4l-36.4 0l-56.9 0.3l-84.3 0.1l-141 0.7l-14.3 0.1l-243.2 1.3l-6.7 -0.6l-260.1 1.7l-2.2 -0.4l-41.6 0.6l-6.9 -0.2l-22.5 -0.3l-43.6 0.2l-8.9 0.1l-26.2 0z" />
  </g>
  <g data-id="089">
    <path d="m1663.5 1799.2l0 0l0 0.5l0.6 511.1l245.5 -28.3l81.2 43.2l60.5 -2.3l37.7 -38l163.4 -52.4l141.9 -125.4l144.2 -65.5l21.9 -25.3l-4.1 -353.9l1.8 -199.9l0.1 -193.3l-1 -140.3l-2 -198l-2.1 -99.5l-3.8 -299.8l-113.3 14.9l-49.2 2.3l-26.8 -9.7l-106.9 -3.1l-119.7 -25.3l-76.3 -27l-8.5 -3l-39.8 -10.3l-44.4 -11.5l-18.6 -12.5l-26.5 -32.4l51.8 -20.2l60 -70.5l-30 -24.9l-14.4 -16.3l-26.4 -7.4l-72.4 22.9l-36.9 25.1l-5.2 3.5l-11.2 17.3l-7.9 -1.6l-100.8 -72.9l-16.6 -19.5l-12.2 -30l-15.4 -22.2l-10.2 6.2l-2.6 22.2l0.3 42.9l0.2 63.2l0.4 157.9l-0.3 9.7l0.3 38.6l0 104.9l0 48.8l0 76.8l-1.2 16l0.3 114.8l-0.3 27.3l-1.2 127.2l-0.7 76.7l-0 0.7l0.1 64.1l0.2 70.1l0.6 212.6l-3.1 97.2l-1.1 223.5z" />
  </g>
  <g data-id="091">
    <path d="m3393.7 193.4l0 0l8.7 748.1l-1.2 322l-0 7.5l0.3 766.1l27.8 -31.9l146.4 -75.6l162 -34.7l90.8 -46.4l64 -85.4l62.6 -55.2l47.2 -149.9l46.8 -80.1l20.7 -81.5l86.9 -46.2l82.3 -72.9l343.2 -1l-0.7 -337.4l62.1 0.5l15.9 -46.2l-0.1 -115.5l34.2 -36.8l-3.3 -306.9l-113.9 -4.3l2 -85.8l1.7 -86.3l3.5 -253.2l-337.4 -0.8l-3.3 0.1l-0.5 -0l-306.3 -1.4l-4.6 0.1l-8.5 -0.1l-144.5 -1l-0.3 0l-2.5 0l-8.3 0l-33.9 0l-22 0l-3.5 0l-147.4 87.1l-98.2 42.9l-68.8 62z" />
  </g>
  <g data-id="093">
    <path d="m4120.4 11567.9l0 0l0.4 162.3l377.8 -3.3l712.7 -2.5l-4 -168.1l28.9 13.2l72.4 -127.7l-12.1 -738.1l-2.8 -112.1l-108 0.6l-745.9 -4.8l-316.7 -1l-1.7 328.5l-1.2 652.9z" />
  </g>
  <g data-id="095">
    <path d="m6508.8 6387.9l0 0l3 386.5l-0.7 223l165.4 -3.6l668.5 -4.5l-0.5 -168.5l-0.1 -219.6l0.6 -111.5l0.4 -125.2l0.4 -122.7l-0.2 -28l-3 -598.1l-4.6 -279.5l-604.7 2.3l-221.7 2.1l5.5 332.1l-4.4 276.8l-4 438.6z" />
  </g>
  <g data-id="097">
    <path d="m5155.1 7317.7l0 0l2.1 139.5l1.9 166.2l0.4 186.4l-0.3 37.7l0.7 330.4l222.7 -5.6l43.2 -0.7l86.1 -1.5l121.7 -2.8l69.9 -1.3l83.1 -1.5l463.6 -9.8l1 -222.5l0.1 -110.9l-1.8 -172.6l-0.2 -40.6l-0.6 -55.7l-0.9 -35.5l-0.6 -75.9l-1.1 -55.7l-0.6 -55.6l45.5 -52l-0 -65.9l-0 -136.7l1.4 -15l-167.3 0.5l-51 -1.2l-185.3 1.4l-258.9 0.2l-55.2 0.4l-54.9 0.7l-107.4 2.2l-112.8 5l-139.3 2.7l2.7 219.6l-7.7 26.2z" />
  </g>
  <g data-id="099">
    <path d="m4750 1107l0 0l1.5 169l0.9 225.8l-0.7 281.6l-0.5 169l-1 337.5l1134.5 -5.5l68.5 -1.1l-3.2 -200.3l-4.1 -191.6l-7.8 -626.6l-0.6 -168.4l-660.5 1.7l-59.1 5.6l-68 -3.1l-399.8 6.4z" />
  </g>
  <g data-id="101">
    <path d="m3420.1 11730.7l0 0l-1.4 674.8l17.6 31.2l118.1 5l97.4 -72.7l19.6 -42.1l451.8 0.3l-0.5 -270.2l-1.6 -326.9l-0.4 -162.3l1.2 -652.9l-644.9 1.8l0.2 204.2l-0.1 120.1l-54.5 1l-2.2 488.6z" />
  </g>
  <g data-id="103">
    <path d="m5618.3 3300.3l0 0l0.4 640.2l9.4 10.5l-0.7 350.2l2.5 333.7l109.5 -1.7l332.3 -3.9l217.1 -2.6l218.9 -2.8l-3.3 -330.6l-217.7 2.7l-20.1 -1340.3l-646.7 12l-1.6 332.7z" />
  </g>
  <g data-id="105">
    <path d="m4113.6 9295.6l0 0l7.6 640.5l1.8 322.5l0.4 327.9l316.7 1l745.9 4.8l-1.9 -217.2l-151.3 1.6l2.6 -106.7l-9.4 -654l-21.9 -0.7l-4.2 -333.7l-242.4 5.5l-319.4 -5.2l-164.8 -4l0.1 -23.3l-60.4 -32.6l-21.4 31.4l3.7 64.6l-81.5 -22.3z" />
  </g>
  <g data-id="107">
    <path d="m2928.2 5965.1l0 0l1.2 669.6l2.3 16.7l1 310.3l-0.1 27.9l-1.4 297.7l239 2.1l915.6 7.1l0.2 -219.9l-2.1 -333.7l-0.1 -640l0.5 -136.2l-499 -2.1l-164.2 -0.5l-492.9 0.9z" />
  </g>
  <g data-id="109">
    <path d="m4107.9 8594.7l0 0l5.4 195.7l155.8 -0.6l0.9 109.9l3.3 54.8l-0.5 76.5l0.4 223.5l-0.1 23.3l164.8 4l319.4 5.2l242.4 -5.5l377.8 -7.2l0.8 -124.7l-0.6 -535.2l3.9 -3.1l-1 -190.5l2.2 -248.4l-222.7 5.6l-27.9 0.7l-238.8 5.8l-55.8 0.6l-84.1 1l0.9 110.6l-274.5 -0.4l-282 -2l-8.6 83.9l32.8 50.4l-16.4 52.5l-97.9 113.5z" />
  </g>
  <g data-id="111">
    <path d="m1663.7 2336.5l0 0l0.1 21.2l-0 18.3l-0 37l-0 70.3l0.6 373.4l0.5 55l0.1 0.9l0.6 379.7l0 0.3l0.2 62.6l-1.2 5.3l1.4 52.4l-0.4 3.5l1 97.6l-1 451.7l-0 0.2l753.9 1.2l-3.3 -608.9l-1.8 -64.5l-21.6 0.2l1.7 -1186.5l-141.9 125.4l-163.4 52.4l-37.7 38l-60.5 2.3l-81.2 -43.2l-245.5 28.3l0 8.6l-0.2 11.9l-0.1 2.7l-0.2 2.5z" />
  </g>
  <g data-id="113">
    <path d="m7116.2 924.7l0 0l3.6 336.3l0.8 332.6l3.8 218.8l336.8 -1.8l-2.6 112.7l329.5 4.3l338.7 3.4l337 -0.2l-5.8 -1018.2l-333.1 0.9l-335.1 2.3l-673.5 8.7z" />
  </g>
  <g data-id="115">
    <path d="m8627.6 10821.9l0 0l-13 98.8l785.5 8.2l-18.7 -30l-5.2 -16.4l-1.3 -10.1l4.4 -15.9l20.4 -33.2l17.6 -21.2l86.1 -86.4l7.4 -13.1l8 -29.7l-2.2 -20.7l-8.3 -24.8l-10.6 -24.5l-7.9 -12.1l-21.2 -22.6l-6.8 -13.5l-2.6 -8.7l-19.2 -31l-22.4 -30.6l-16.1 -22l-23 -19.8l-60.3 65.9l-38.9 -21.3l-62.2 47.6l-36.7 -0.2l-22.7 42.6l-46.1 9.3l-82.7 -15.5l-15.9 79.9l-38.9 -26.7l-22.6 29.4l-45.1 -5.3l-52.6 66.8l-1 34.2l-70.2 -12.3l-41.9 63.3l-59.8 -4.3l6.1 -75.1l-49.6 31.8l-9.7 69.2z" />
  </g>
  <g data-id="117">
    <path d="m4120.9 11730.2l0 0l1.6 326.9l0.5 270.2l2.7 489.6l194.1 -2.6l891 5.2l0.6 -107.1l0.2 -230.4l-0.3 -757.5l-712.7 2.5l-377.8 3.3z" />
  </g>
  <g data-id="119">
    <path d="m3041.6 9270.8l0 0l-2.7 656.5l1082.3 8.8l-7.6 -640.5l81.5 22.3l-3.7 -64.6l21.4 -31.4l60.4 32.6l-0.4 -223.5l0.5 -76.5l-3.3 -54.8l-0.9 -109.9l-155.8 0.6l-17.3 -1.8l-723.3 -10.6l-4.5 138.6l-2.5 27.4l0.3 111l-0.5 218l-323.8 -2.2z" />
  </g>
  <g data-id="121">
    <path d="m1973.9 6963.9l0 0l-37.8 80l41.1 21.5l41.1 56.4l72.9 26.2l32.3 51.2l-23.4 64.4l67.1 43.4l-36.5 72.9l-55.8 36.1l5.8 108.3l26.1 46.7l-17.4 97.5l9.9 78.3l-21.1 104.3l8.2 92l-41.8 156.7l39.5 169.9l534.2 3l217.8 5.2l323.8 3.7l10.4 -992.1l-239 -2.1l1.4 -297.7l0.1 -27.9l-662.7 1l-296.2 1.1z" />
  </g>
  <g data-id="123">
    <path d="m3737.4 14284.9l0 0l11.2 5.6l46.4 30.2l12.8 33l7.4 26.7l23.5 60.3l43.5 88.7l41 72.4l47.4 60.2l9.5 8.3l26.8 6.2l11 -1.8l6.8 -3.5l24.2 -15.8l46.1 -37.5l17.4 -16.8l14.8 -7.1l23 0.4l35.4 6.8l31.5 9l8.8 7.4l4.6 7.7l4 15.4l0.3 15.4l-2.1 12.5l-11.6 32.4l-28.1 61.5l-8.3 24.4l-3.7 21.4l2.5 26.7l9.8 20.5l8.7 6l8.1 3.2l13.1 0.8l28.4 -4.8l11.6 -4.2l24.8 -12.6l30.7 -20.6l17.6 -9.4l13.2 -10.6l19 -33.6l2.3 -10.3l-0.5 -4.9l-5.6 -12.1l3.1 -20.9l0.5 -15.3l-5.7 -61.5l0.7 -20.4l4.1 -15.5l6.8 -12.3l22 -25.4l5.9 -4.2l18.1 -3.2l41 3.6l51.7 16l22.7 3.6l19.1 -0.5l17.1 -5.9l26.3 -13.1l24 -14.6l9.2 -10l3.5 -7l-1.2 -21.1l-6.8 -22.4l-9.3 -16.5l-17.4 -17.9l-5.6 -9.8l-9.7 -28.6l-3.9 -22.4l0.8 -50.3l-2.8 -61.2l0.5 -32.4l3 -21.3l0.8 -21.1l-1.7 -34.3l9.2 -38.6l7.1 -10.8l6.2 -5.2l16.1 -6.7l34.1 -4.8l27 0.3l30.2 0.3l24.7 -2.4l57.4 -15.8l40.6 -36.8l15.9 -25l7.9 -42.4l-11.5 -30.1l-72.1 -35.7l-14.7 -17.7l-6.9 -20.7l0.4 -28.3l8.3 -17.9l6.4 -7l1.3 -297.5l0.5 -19.8l-324.1 -2.6l4.5 -218l-318.6 12l1.5 55.7l-329.6 -3.8l1.9 163l0.5 92.9l-35.7 -5l23.3 91.3l-31.2 50.6l32.8 72.5l-35.6 20.7l43.1 4.8l73.5 82.5l-38.2 57l37.8 81.4l-44.5 31.4l29.9 185.9l-52.9 -20.2l-22.6 -44l-48 62.3z" />
  </g>
  <g data-id="125">
    <path d="m1849.6 12300.7l0 0l1.2 252.7l52.4 0.5l-0.1 109.2l108.4 -0.7l-0.7 226.1l105.1 -4.9l42.7 -41.2l50 33.8l68.3 -10l-2.1 340.5l0.3 162.1l54.4 0.7l-0.5 52.7l656.3 -3.4l1.4 -378.8l-1.9 -325.7l2.5 -343.5l-41.8 6.9l-57.3 -90.8l-127 80.5l-74.4 -105.5l-81.5 -30.9l-50.9 49.9l-61.6 -22.7l-40.2 68.3l-132.1 60.8l-39 -41.5l-117.7 -82.4l-43.8 20.5l7.3 93.4l-41.8 -27.5l-5.4 -64.9l-56.6 -13.5l-23.4 55.3l-33.7 -48.7l-27 33.9l-89.6 -11.2z" />
  </g>
  <g data-id="127">
    <path d="m2549.3 532.2l0 0l3.8 299.8l2.1 99.5l2 198l1 140.3l-0.1 193.3l-1.8 199.9l4.1 353.9l77.2 -90.1l177.7 -81.2l26.8 -0.5l181.8 65.3l141.8 110.9l125 82.3l110.8 -66.4l-0.3 -766.1l0 -7.5l1.2 -322l-8.7 -748.1l-6.1 5.5l-271.1 136.4l-111.1 50l-4.2 1.7l-153.9 61.3l-16.1 -17.9l-101.8 19.2l0.5 31.6l-78.7 29.7l-96.1 20.6l-5.8 0.8z" />
  </g>
  <g data-id="129">
    <path d="m6.5 14627.9l0 0l-6.5 15.8l8.6 28.9l6.1 6.9l41.7 46.9l32.5 85.1l28.5 30.1l70.7 22l20.2 39.9l-40.5 32.3l-22.4 2.3l-35.7 -4.1l-40.3 -23.3l-28 -3.7l-21 21l22.4 50l41.6 36.5l33.1 -3.9l38.8 -24.1l25.6 -3.5l17.7 21.8l3.9 16.1l20.4 -8.1l17.1 -1.9l30.4 6.6l22.1 9.1l11.7 7.1l5.6 6.3l11.7 6.8l8.2 1.5l23.2 14l13.4 12.4l4.5 10.3l29.8 31.8l21.7 5.5l11.6 -2.2l6.2 -4.2l5.7 -6.6l17.2 -46.6l8 -6.6l3.4 -7.8l-0.7 -12.5l6.9 -9l14.6 -8l24.5 -8.4l23.5 -11.2l12.5 -9.1l6.5 -18.1l2.3 -19.3l-11.6 -73.2l-7.3 -21.4l-13.4 -22.9l-36.1 -33.5l-26 -34l-5.5 -10l-5.5 -16.2l-3 -15.2l0.5 -15.4l2.2 -16l5 -11.6l4.6 -6.6l13.6 -17.5l12.7 -13.3l2 -2.9l15.6 -22.8l49.4 -62.8l19.6 -9.7l16.3 -1.5l26.7 6.2l17.5 8.1l13.9 11.2l20.3 21.9l7.2 11.8l12.7 33.5l4.4 7.9l33.9 27.7l2.6 4.1l8.7 16.1l0.2 15.8l1.2 3.9l9 9.4l12.3 9l9.6 3l65.7 4.9l37.4 -0.3l12.5 -1.6l1.8 -0.4l11.3 -2.7l8.1 -4.4l31 -25l5.9 -6.3l25.5 -17.1l64.4 -13.8l19.9 1.1l28.2 8.4l16.5 -1.9l21.3 -4.9l28.4 -12.5l0.7 -0.4l6.9 -409.5l4.5 -431.5l22.9 0.5l1.6 -161.9l0.5 -120.7l-324.7 -3.5l1.5 -98.7l-542.1 -5.5l1 6.7l2 67.8l24.5 44.9l47.5 49.9l65.1 45.2l9.9 29l-0 29.8l18.4 16.2l5.7 21.1l-6.8 17.4l-21.3 7.8l-30.1 47.4l-30.3 -23.3l-13.4 3l-20 -0.2l-10 11.9l-10.6 29.9l0.7 35l-16.6 12.4l-20.5 3.2l-33.1 -5l-43.1 18.4l-10.5 23.2l13.4 44.3l21.7 4.8l123.8 -59.5l15.5 43.6l-12.8 37l-17.4 41.4l-62.8 42.6l-36.6 15l-99 1.5l-19 47.9l31.9 27.6l38.6 -14.9l29.1 20.7l-45.7 50.7l4.2 72l27.1 69.8l-1 38.9l-9.9 18.4l-13.3 8.2l-21.4 3.5l-11 -0.7l-13.7 6.3l1.6 52.2l-52.4 35.9l-16.8 -3l-26.3 19.4l10.9 32.8l101.9 19.7l29.5 5.3l19.5 66.6l-15.5 23.8l-22.9 -9.7l-41.6 -2.7l-42.3 2l-46.8 -16.9l-43.1 -36.5l-27.5 -0.4z" />
  </g>
  <g data-id="131">
    <path d="m3399 3040.3l0 0l0.5 250.1l1017.2 5.8l329.2 4l3.8 -672.8l0.5 -337.2l-1011.7 -2.1l-337.2 -1.3l-2.2 753.6z" />
  </g>
  <g data-id="133">
    <path d="m3159.8 8281.5l0 0l-4.3 495.6l217.1 0.9l723.3 10.6l17.3 1.8l-5.4 -195.7l97.9 -113.5l16.4 -52.5l-32.8 -50.4l8.6 -83.9l43.4 -108.3l-133 -1.5l1.6 -888l-24.1 -0l-915.6 -7.1l-10.4 992.1z" />
  </g>
  <g data-id="135">
    <path d="m8386.1 5614.3l0 0l3.9 274l8.9 602.3l2.6 275.9l35 -0.5l161.9 -0.7l55.6 1.9l920 -3.3l2.4 -110.8l1.1 -56l2.3 -166.4l0.8 -55.5l1.2 -75.4l0 -7.7l4.4 -194.7l1.2 -46.2l0 -0.3l0.5 -21.6l1.6 -97.9l4.5 -300.9l0.5 -29l-1208.3 12.9z" />
  </g>
  <g data-id="137">
    <path d="m7741.5 9823.9l0 0l-14.1 1060.1l704.1 -3l0.9 -55.1l195.2 -4l9.7 -69.2l56.5 -384.3l82.3 -584.5l8.7 -60.2l47.5 -319.6l-31.2 -10.4l-274.5 0.4l-137.9 5.3l-229.1 151.2l-54.2 36.3l-350 226.6l-13.7 10.4z" />
  </g>
  <g data-id="139">
    <path d="m7178.1 7594.9l0 0l0.8 332.3l2 3.6l-0.7 271.7l1.6 55l8.4 598.2l628.1 -1.4l338.2 -0.6l-1.6 -272.5l-10.1 -991.6l-313.5 1l-546.7 3l-106.5 1.3z" />
  </g>
  <g data-id="141">
    <path d="m4578.4 343.9l0 0l-2 85.8l113.9 4.3l3.3 306.9l-34.2 36.8l0.1 115.5l-15.9 46.2l-62.1 -0.5l0.7 337.4l169.3 -0.3l-1.5 -169l399.8 -6.4l68 3.1l59.1 -5.6l660.5 -1.7l-0.9 -145.1l1 -19.5l-3.1 -253.3l-1.6 -249.9l0.5 -10.8l-1.2 -98.1l-0.1 -7.4l-3.5 -312.3l-69.6 -0.1l-112.4 -0.1l-1.2 0.1l-6.9 -0.1l-148.3 1.3l-113.1 1l-24.7 0l-0.1 -0l-114.8 -0.7l-20.2 0.1l-668 2.5l-51.1 0.4l-14.3 -0l-3.5 253.2l-1.7 86.3z" />
  </g>
  <g data-id="143">
    <path d="m6435.8 11551.5l0 0l7.8 593.2l108 -3.2l2 55.9l77.9 -0.6l-0.9 -52.1l81.2 -109.6l81.3 -2.4l45.7 -1.4l88.1 1.1l436.1 -2.3l-2.8 -269.6l-108.5 -1.1l-1.4 -108.7l-108 -0.6l-1.3 -81.5l-108.1 -25.7l-1.5 -293.9l-143.7 -61.3l-115 83l-66.1 7.9l-26.8 103.2l-43.3 12.7l-64.6 132.1l-81.4 55.9l-34.5 4.3l-20.2 -35.2z" />
  </g>
  <g data-id="145">
    <path d="m6247 9116.7l0 0l3.4 136.2l275.4 -7.3l170.9 -3.3l332.8 0.5l157 -0.6l3.8 -386.5l-8.4 -598.2l-1.6 -55l0.7 -271.7l-2 -3.6l-762.1 0.1l-165.6 4.9l-1 222.5l0.5 379.7l1.6 55.7l-5.2 526.6z" />
  </g>
  <g data-id="147">
    <path d="m2417.2 14557.9l0 0l-2 170.2l16.8 21.4l22.4 20.4l99.9 67.1l24.8 10.7l29.6 9l64.6 8.9l26.9 -3.5l17.4 4.1l7.4 3.9l10 8.4l15.7 20.2l33.6 59.8l13 32.9l0 0l12.7 55.5l10.3 20.6l6.1 5.8l24.2 8.1l23.6 1.2l32.7 -7.8l27 -11.7l38.5 -31l2.4 -2.6l17 -18.5l8.4 -15.2l7.1 -16.3l22 -62.6l7.1 -28.9l11.5 -67.8l6.4 -22.4l15.7 -40.8l2.3 -15.7l-1 -18l-2.1 -15.1l-5.1 -13.1l-1 -8.5l3.3 -14.4l8.3 -16.7l25.6 -30.6l67.4 -48.3l20.4 -10.1l70.9 -28.8l0.4 -0.1l28.5 -9.7l12.4 1.8l58.7 -4.2l32.8 -5.2l16.3 -0.1l24.5 -6.3l35.1 -23.2l0.4 -0.3l13.7 -11.6l30.1 -36.1l20.7 -31.2l10.6 -11.6l15.9 -12l16 -16.6l10.1 -14.8l10.8 -11.8l21.2 -17.7l20.2 -10.1l40.4 -13.8l34 -19.2l10 -1.7l14 1.9l1.5 0.7l48 -62.3l22.6 44l52.9 20.2l-29.9 -185.9l44.5 -31.4l-37.8 -81.4l38.2 -57l-73.5 -82.5l-43.1 -4.8l35.6 -20.7l-32.8 -72.5l31.2 -50.6l-23.3 -91.3l35.7 5l-0.5 -92.9l-385 7.8l-273.2 -2l0.1 302.2l-1.7 13.8l-158.2 0l-8.2 81l-45 59.7l-20.7 87l27.1 25.7l-106.6 22l-22.6 -39.5l-60.4 3.5l2 111l-85.9 47.3l-40.6 86.2l-85.9 58.3l-19.7 86.8l-24.6 -15.1l-78.9 101.6z" />
  </g>
  <g data-id="149">
    <path d="m3401.5 2037l0 0l-0.3 249.6l337.2 1.3l1011.7 2.1l1 -337.5l0.5 -169l0.7 -281.6l-0.9 -225.8l-169.3 0.3l-343.2 1l-82.3 72.9l-86.9 46.2l-20.7 81.5l-46.8 80.1l-47.2 149.9l-62.6 55.2l-64 85.4l-90.8 46.4l-162 34.7l-146.4 75.6l-27.8 31.9z" />
  </g>
  <g data-id="151">
    <path d="m8450.5 3.3l0 0l-0.4 -0l7.8 909.3l329.9 -2.2l327.1 -4.1l477 -8.1l0 -0.4l-3.2 -322.4l0.1 -13.2l0.3 -58.3l0.1 -3.7l-1.6 -164.5l0.4 -84l0.2 -44.5l-0.1 -51l-0.1 -48.3l-0 -18.3l-0.2 -21.5l0.7 -66.8l-37.8 0.6l-18.2 0.3l-0.2 0l-312.5 1.2l-82.7 1l-2 -0.4l-29.1 0.1l-3.6 0.6l-189.4 -1.7l-4.7 -0.7l-226.7 1.1l-17 -0.2l-143.1 0.5l-71.1 -0.5z" />
  </g>
  <g data-id="153">
    <path d="m1316.3 10014.4l0 0l8.3 61.4l31.7 37l-1.8 16.5l0 14.1l1.8 14.1l5.5 9.4l14.6 9.4l18.2 4.7l5.5 16.4l1.8 23.4l9.1 16.4l14.6 11.7l35.4 10.5l69.3 83.9l-7.1 87.1l15.5 54.9l-27.4 66.7l2.3 48l142.2 63.2l50.4 65.6l-19.3 116.9l-25.7 58.1l834.7 22.8l0.1 -23.5l0.3 -661.6l0.5 -328.1l1 -328.2l-323.2 -0.5l-736.2 -1l30.8 45.2l29 14.6l12.7 39.9l13.4 54.7l-7.2 27.4l-33.7 50l-93.7 86.6l-57.2 30.3l-6.8 34.6l-9.4 47.4z" />
  </g>
  <g data-id="155">
    <path d="m8432.4 10825.8l0 0l-0.9 55.1l4.6 833.1l32.3 11.1l9.4 1.3l29.6 -3l13.4 1.2l47.7 -15.6l27.1 -11.9l23.8 -14l16.4 -12l34.1 -33.1l42.1 -35.7l-0.2 -3.1l10.7 -13.8l6.8 -5.5l54.7 -32.3l16.9 -15.1l12.9 -7.7l34 -12.6l35.8 -22l20.5 -16.1l50.5 -25.7l34.4 -17.5l34.4 -29.9l11.7 -7.6l17.3 -6.1l32.9 -3.4l47.2 4.7l43.4 10.3l19.1 -1.3l23.6 -7.1l51.7 -24.5l38.9 -24.4l23.1 -11.6l17.5 -3.5l90.3 16.5l26.2 7.9l35.7 14.3l20.3 4l21.4 0.4l19.6 -5.1l5.1 -6l3.3 -11.5l0.3 -13.4l-6.7 -27.8l-7.5 -19.1l-30.9 -49.8l-8.1 -25.3l-0.2 -19.5l7.2 -16l12 -16l18 -15.8l40.6 -27.3l25.1 -23.9l2.6 -2.5l7.9 -10.4l7.9 -14l7.3 -19.3l3.6 -21.8l-1.9 -19.2l-3.4 -6.7l-5.1 -5.6l-35.3 -27.5l-36.4 -15.2l-18.4 -1.3l-33.2 -6.7l-88.2 -1.5l-20.4 -5.5l-6.8 -4.7l-1.4 -2.3l-785.5 -8.2l13 -98.8l-195.2 4z" />
  </g>
  <g data-id="157">
    <path d="m2920.1 4634l0 0l4.9 333.9l2.5 15.2l1.9 402.3l-1.2 579.7l492.9 -0.9l164.2 0.5l499 2.1l1.1 -167.3l0.3 -164.1l1.4 -500.6l-2 -496.9l-221.2 -0.8l-284.6 1.6l-217.9 -0.2l-110 -1.1l-57.2 -0.8l-274.3 -2.6z" />
  </g>
  <g data-id="159">
    <path d="m5403.3 5246.6l0 0l-0.5 111.9l0.7 602.7l894.7 -9.9l214.5 -1.9l4.4 -276.8l-5.5 -332.1l0.5 -109.1l-330.3 2.5l-248 3.9l-193.6 3.3l-337 5.4z" />
  </g>
  <g data-id="161">
    <path d="m8921.4 8083.8l0 0l-3.3 494.6l38.6 6.9l604.3 9.2l0.6 -98.6l0.6 -68.8l0 -3.8l-0.2 -1.7l-0.3 -2.5l1.3 -228.7l1.1 -102l-0.9 -50.5l0.3 -42.6l1.2 -174.6l-0 -0.2l-452.6 -0.7l-189 -9.3l-0.5 54.9l-1.1 218.4z" />
  </g>
  <g data-id="163">
    <path d="m1163.8 14249.6l0 0l-6.9 409.5l36 -18.8l12.6 -3.8l10.7 0.8l13.4 5l12.4 9l14.5 13.7l4.2 8.4l6.3 29.3l0.1 15.2l-3.7 15.8l-6 11.2l-7.9 9.8l-12.5 11.4l-6.4 9.1l-18.2 37l-0.8 35.1l3.5 21.4l4.4 15.9l10.6 16.9l9.1 9.6l17.1 6.2l33.1 5.2l27.1 0.5l29.3 -4.1l31.4 -7.6l28 -10.7l8.7 -6.9l17 -17.8l44 -66.3l8.1 -16l0.9 -28.8l-9.2 -67.9l-16.1 -19.2l-14.1 -12.3l-19 -11.3l-34.3 -30l-8.8 -14.1l-8.6 -19.9l-6.3 -19.6l-1.6 -19.4l9.7 -24.8l17.8 -18.8l25.3 -22.4l13.4 -18.6l7.9 -34.4l-5 -9.2l0 -13.7l4.1 -14l7 -13.3l13.7 -8.5l11.1 -3.7l9 -0.7l5.6 1.1l5.8 1.1l14 7.4l9.3 7l9.3 14l3.8 18.8l-2.5 28.8l6.6 27.2l10.6 23l7.4 12.2l19 25.1l23.5 21.2l8.1 5.2l7.6 4.9l41.9 23.5l32.8 13.6l25.6 22.9l11.7 -1.1l18.5 -9l31.2 -27.8l11.8 -13.1l60.7 -49.7l41.8 -27.3l1.4 -24.7l2.3 -160.5l0.1 -162.5l-67.3 0.8l1.4 -159.9l1.2 -161.3l14 -161.7l-644 -11.2l-1.6 161.9l-22.9 -0.5l-4.5 431.5z" />
  </g>
  <g data-id="165">
    <path d="m1644.7 7227.2l0 0l0 0.5l0.2 273.4l0.3 26.6l-0 29.1l-0 55l1.1 442.6l0.8 71l0.2 -0.1l0.5 146.8l436.3 -2.4l-39.5 -169.9l41.8 -156.7l-8.2 -92l21.1 -104.3l-9.9 -78.3l17.4 -97.5l-26.1 -46.7l-5.8 -108.3l55.8 -36.1l36.5 -72.9l-67.1 -43.4l23.4 -64.4l-32.3 -51.2l-72.9 -26.2l-41.1 -56.4l-41.1 -21.5l37.8 -80l-57.1 -26.7l36.3 -86.1l-22.2 -167.9l51.2 -123.2l31.4 -262l-243.9 0.4l-0.1 -80.1l-119.4 1.1l-0 0.4l-0.9 14.3l0.6 42.9l-2.2 462.2l0 0.4l0.1 43.6l-0.1 8.6l-0.6 39.2l-0.4 37.1l-0.3 10.2l0 14.9l-1.3 334.1z" />
  </g>
  <g data-id="167">
    <path d="m1420.9 9498.1l0 0l13.1 79.4l4.3 6.3l736.2 1l323.2 0.5l2.4 -657.2l1.4 -251.7l0.4 -76.8l113.2 2.9l3.2 -329.8l-534.2 -3l-436.3 2.4l0.5 163.6l0.2 68.6l-0.1 71.4l0.2 24.8l0.6 93.8l0.2 14.4l-0.1 55l0 0l0.1 29.2l0 11.9l0.3 63.2l0.4 44.3l0 4.1l-0.6 222.7l-0.3 111.9l-36 -18.9l-30.3 46.8l-69.7 0.5l-31.3 24.5l-33 78.8l7.1 50.5l1.2 11.6l-36.4 53.3z" />
  </g>
  <g data-id="169">
    <path d="m6269.5 2937l0 0l-2.9 18.7l20.1 1340.3l217.7 -2.7l551.3 -4.3l107.6 -1.2l-7.1 -751.6l-8.2 -592.5l-114.6 1.5l-2.9 -173l-325.2 12.1l-436.2 2.7l0.4 150z" />
  </g>
  <g data-id="171">
    <path d="m1650.8 6135.8l0 0l-0.9 83.5l119.4 -1.1l0.1 80.1l243.9 -0.4l-5.4 -58.9l-88.1 -81.9l31.4 -52.7l23.6 -53.3l181.5 -71l53.3 -46.9l66.9 -89.7l61.2 -36.8l38.9 -81.2l94 -82.3l11.3 -37l220.4 -99.3l112.4 -22l114.7 -99.5l-1.9 -402.3l-2.5 -15.2l-1260.7 -4.3l-0.1 4.7l-0.8 51.6l-9.5 808.4l0.2 2.4l-2.4 222l-0 0.1l-0.6 55.7l-0.3 27.3z" />
  </g>
  <g data-id="173">
    <path d="m1821.6 13990.9l0 0l-1.4 159.9l67.3 -0.8l-0.1 162.5l-2.3 160.5l-1.4 24.7l2.1 -1.4l7.8 -3.6l31.8 -6.5l24.3 -2.3l28.9 0.2l46.5 9.2l4.3 3.8l28.9 9.9l32 10.9l21.6 12.5l1.1 0.6l1.2 1.2l-2 4.3l1.1 1.9l25.4 28.4l5.8 5l9.7 1.7l10.4 8.4l6.1 7.9l22.4 18.3l27.8 13.3l3.6 -2.4l7 -0.2l34.2 9.3l50.8 26.5l0.8 0.4l81.4 57.2l13 11.4l3.5 4.4l2 -170.2l78.9 -101.6l24.6 15.1l19.7 -86.8l85.9 -58.3l40.6 -86.2l85.9 -47.3l-2 -111l60.4 -3.5l22.6 39.5l106.6 -22l-27.1 -25.7l20.7 -87l45 -59.7l8.2 -81l158.2 -0l1.7 -13.8l-0.1 -302.2l-162.1 -0.9l0.2 -106.7l-656.3 3.4l0.5 -52.7l-54.4 -0.7l-0.4 164.3l-111 0.5l-325.1 1.3l-1.6 133l-14 161.7l-1.2 161.3z" />
  </g>
  <g data-id="175">
    <path d="m5207.4 11556.4l0 0l4 168.1l0.3 757.5l-0.2 230.4l156.2 0.7l330.1 10.3l317.2 7.5l54.4 -4.4l56.9 2.7l3.8 -261.1l108.1 -1.5l-2.6 -48.4l210.7 -5.7l0.2 -54.7l53.7 -1l-0.2 -106.8l54.6 -0.2l-0.9 -52.6l-2 -55.9l-108 3.2l-7.8 -593.2l-7.1 17.6l-51.5 -98.7l-20.9 38.1l-60.9 -36.9l-34.6 8.2l-36.4 -39.4l-46 44l-22.2 -58.7l-120.8 45.2l-85.5 -64l-58.2 -6l-50.9 -32.6l-28.6 66.2l-94.9 12.4l-143.2 -79.1l-39.5 36.7l-76.9 -20.1l-38.1 42.4l-49.4 -8.7l-61.7 23.6l-72.4 127.7l-28.9 -13.2z" />
  </g>
  <g data-id="177">
    <path d="m8380.3 7263.4l0 0l-1.1 322.9l109.7 0.2l-4.7 276.1l187.5 1.8l250.9 1l0.5 -54.9l189 9.3l452.6 0.7l-0.2 -223.3l0 -4.9l-0.1 -48.9l0.3 -44.1l-0.2 -10.7l1 -39.5l0.2 -8.2l0.3 -61.8l0.1 -0.4l0.4 -28.8l0.2 -9.4l1.2 -74.7l0.8 -67.8l0.3 -2.9l0.8 -96.2l0.2 -18.4l0.5 -21.2l2.9 -258.4l0.8 -37.1l-920 3.3l-55.6 -1.9l-161.9 0.7l1.9 166.6l-0.4 330l-57.6 0.8z" />
  </g>
  <g data-id="179">
    <path d="m7716 4285.9l0 0l5.3 332.6l164.5 0.1l493.8 -1.4l57.8 0l386.4 -3.8l-5.1 -661.8l-2.3 -16.4l-8.3 -665.7l-104.5 1.9l-167 2.9l-492.2 -1.9l4 1010.5l-27.1 -1.5l-305.4 4.6z" />
  </g>
  <g data-id="181">
    <path d="m2907.3 3578.6l0 0l4 388.8l4.3 17l4.5 649.7l274.3 2.6l57.2 0.8l110 1.1l217.9 0.2l284.6 -1.6l-8.6 -391.2l46.4 -1l45.8 -65.1l-57.2 5.2l39.4 -32.7l-36.9 -36.6l33.1 -146.4l27.7 -6l238 3.8l224.4 3.2l0.6 -674.2l-1017.2 -5.8l-165.1 0.9l0.3 61.5l2.7 224.5l-330.1 1.3z" />
  </g>
  <g data-id="183">
    <path d="m7023.5 2263.2l0 0l7 509l2.9 173l114.6 -1.5l558.4 -11.3l169.4 0.2l169.9 -0.2l-4 -326.2l-4.5 -345.7l83.8 -0.5l5.9 -328.8l-338.7 -3.4l-329.5 -4.3l2.6 -112.7l-336.8 1.8l2.1 112.4l-4.4 338l-98.6 0.4z" />
  </g>
</svg>
