<?xml version="1.0" encoding="UTF-8"?>
<!DOCTYPE svg PUBLIC '-//W3C//DTD SVG 1.1//EN' 'http://www.w3.org/Graphics/SVG/1.1/DTD/svg11.dtd'>
<svg viewBox="0 0 1000 1566.97" xmlns="http://www.w3.org/2000/svg">
  <g data-id="001">
    <path d="m912.691 338.785l0.856 68.982l0.235 1.699l0.533 68.578l80.347 -1.579l0.039 -28.88l-0.018 -6.142l-0.008 -5.761l0.019 -5.79l0.019 -5.235l-0.026 -6.421l0.019 -3.801l-0.044 -5.637l-0.082 -9.25l0.111 -13.985l-0.231 -48.597l-81.769 1.819z" />
  </g>
  <g data-id="003">
    <path d="m832.804 234.214l0.461 35.824l0.417 33.806l0.081 1.281l-0.198 33.957l50.996 0.199l17.306 -0.298l10.824 -0.197l81.769 -1.895l-0.114 -26.632l-0.004 -8.145l-0.015 -31.907l0.042 -12.862l-0.165 -7.656l0.111 -9.672l-0.055 -3.43l0.031 -31.827l-0.027 -7.392l-82.764 2.145l-34.494 0.559l-34.916 0.02l-0.606 34.067l-8.681 0.055z" />
  </g>
  <g data-id="005">
    <path d="m607.335 960.02l1.14 45.974l0.843 57.076l-0.375 11.417l0.113 5.539l5.483 0.007l60.735 -1.912l-0.588 -3.108l4.588 -2.951l4.311 -2.78l3.051 -2.351l7.258 0.457l-0.311 -23.475l7.69 -0.097l26.43 -0.666l0.037 -50.844l0.647 -34.571l-34.488 -0.054l-17.709 0.342l-28.535 0.757l-22.851 0.688l-17.47 0.554z" />
  </g>
  <g data-id="007">
    <path d="m172.453 514.208l130.632 0.561l-0.507 -34.601l-0.465 -67.318l-0.45 -1.758l-50.979 -0.016l-78.119 -0.121l-0.049 80.131l-0.025 17.402l-0.038 5.721z" />
  </g>
  <g data-id="009">
    <path d="m800.069 478.566l0.358 34.792l0.452 39.713l32.587 0.171l1.395 0.193l33.754 -0.322l2.531 -0.061l1.414 0.002l-0.01 -1.44l0.107 -38.285l1.72 -0.525l-0.102 -34.363l-5.992 -0.004l-51.169 0.14l-17.045 -0.012z" />
  </g>
  <g data-id="011">
    <path d="m423.168 632.384l0.007 66.312l0.214 34.58l74.011 -0.207l28.548 -0.293l7.2 -0.041l1.543 0.046l14.433 -0.275l11.69 -0.522l-0.4 -28.634l-0.119 -28.4l-0.08 -11.452l-0.194 -31.95l-22.994 0.6l-10.042 0.278l-1.398 0.175l-102.42 -0.216z" />
  </g>
  <g data-id="013">
    <path d="m518.061 961.751l0.44 34.582l2.272 0.068l0.978 67.763l-0.271 11.059l15.674 -0.169l71.789 -0.567l0.375 -11.417l-0.843 -57.076l-1.14 -45.974l-16.288 0.439l-1.431 -0.034l-32.407 0.577l-39.148 0.749z" />
  </g>
  <g data-id="015">
    <path d="m399.498 439.96l0.886 40.531l22.92 0.083l0.208 51.484l34.326 0.262l5.272 0.02l56.651 -0.162l0.184 -34.117l0.222 -17.285l0.27 -52.133l-28.495 0.201l-17.273 -0.185l-0.015 -9.864l0.021 -7.268l-17.081 -0.127l-23.252 -0.333l-24.659 -0.394l-2.875 0.622l-3.429 15.172l3.823 3.79l-4.081 3.389l5.927 -0.536l-4.742 6.747l-4.808 0.102z" />
  </g>
  <g data-id="017">
    <path d="m457.657 341.54l-0.062 69.861l17.081 0.127l-0.021 7.268l0.015 9.864l17.273 0.185l28.495 -0.201l-0.27 52.133l34.156 -0.207l29.042 -0.305l-0.254 -34.581l0.07 -36.286l-0.973 -1.086l-0.046 -66.338l-45.264 0.177l-3.837 -0.117l-7.294 0.093l-33.997 -0.174l-34.112 -0.414z" />
  </g>
  <g data-id="019">
    <path d="m634.794 1318.99l-0.003 2.849l8.375 2.886l14.029 -0.136l34.013 -0.245l13.217 21.506l-10.031 6.197l4.215 4.693l-3.211 2.357l0.678 9.84l3.203 0.037l2.294 0.884l2.233 2.192l-0.181 1.077l1.66 1.961l3.048 1.807l1.841 0.269l1.846 -0.844l1.597 -0.962l6.151 -3.706l8.161 -4.918l3.092 -2.495l2.14 -3.742l2.656 -3.415l1.888 -2.967l2.245 -6.082l2.241 -7.13l0.232 -1.798l-0.155 -4.114l0.143 -1.342l1.314 -5.045l1.127 -3.434l2.516 -5.694l0.391 -1.775l3.833 -6.78l1.146 -1.079l4.852 -3.237l3.774 -1.078l6.625 -0.227l5.059 -0.849l2.83 -0.851l3.086 -1.182l5.455 -2.654l2.247 -2.49l2.573 -4.241l0.498 -1.031l0.535 -2.375l0.544 -1.46l1.001 -2.219l2.313 -2.393l1.259 -0.896l1.214 -0.694l5.062 -2.234l2.592 -1.436l2.218 -1.858l0.818 -1.1l1.737 -3.543l0.52 -2.152l0.099 -3.502l-0.166 -3.143l-1.226 -3.86l-2.537 -4.929l-15.233 0.057l-5.339 -2.333l-0.065 -5.606l-22.127 0.224l-45.193 0.238l-9.128 -0.119l-4.739 0.146l-8.426 0.253l-8.412 11.362l0.089 5.393l-8.068 0.058l0.092 5.453l-5.66 0.017l0.022 11.062l-5.565 0.105l-0.021 5.663l-21.829 0.586l0.274 5.01l-11.204 0.16l-0.393 27.053z" />
  </g>
  <g data-id="021">
    <path d="m258.808 993.221l-0.108 34.004l33.744 1.084l18.287 0.399l4.154 -0.047l0.281 -68.029l33.553 0.226l0.054 -22.593l-0.035 -11.503l0.262 -2.836l0.471 -14.358l-22.501 -0.089l0.444 -51.352l-33.554 -0.382l-22.568 -0.539l-0.33 34.169l-11.728 -0.298l-0.038 7.957l-0.141 26.084l-0.248 68.102z" />
  </g>
  <g data-id="023">
    <path d="m423.218 618.274l-0.05 14.11l102.42 0.216l1.398 -0.175l10.042 -0.278l22.994 -0.6l-0.114 -13.852l-0.075 -62.452l-11.397 -0.029l-0.022 -5.787l-8.6 -0.013l0.023 -17.179l-14.351 -0.054l-5.723 -0.001l-56.651 0.162l-5.272 -0.02l-34.326 -0.262l-0.149 51.876l-0.028 17.006l-0.116 17.334z" />
  </g>
  <g data-id="025">
    <path d="m427.508 1328.07l0.156 16.864l0.422 33.798l33.011 -1.246l-0.468 22.59l33.58 0.274l-0.053 2.054l-0.131 30.824l1.183 -1.288l2.21 -1.033l5.446 0.423l3.92 3.233l4.132 4.562l1.031 0.155l1.641 -0.918l2.716 -6.461l2.246 -1.781l1.343 -0.52l6.899 0.833l5.228 -0.3l2.036 -1.395l1.492 -2.362l0.658 -3.218l-1.409 -2.648l-8.355 -2.02l-5.467 -1.767l-1.719 -2.762l-0.216 -5.554l0.877 -1.925l4.488 -3.049l3.815 1.318l4.505 4.771l4.675 1.841l3.263 -9.36l5.013 -0.066l-1.516 -8.171l5.424 -1.215l0.662 -20.305l6.527 -4.593l-3.396 -1.062l1.522 -4.414l-9.151 -3.828l4.888 -1.929l-0.433 -5.656l-1.882 -5.704l3.135 -4.098l7.122 4.548l-3.722 -15.193l1.341 -13.002l-16.186 -0.073l-0.059 11.095l-92.329 -0.536l-20.113 0.267z" />
  </g>
  <g data-id="027">
    <path d="m249.979 1207.02l-2.692 6.607l4.727 1.271l-2.932 3.185l4.716 5.361l0.387 4.147l5.139 -1.413l-0.591 10.337l-3.721 0.26l4.266 8.076l-4.906 -0.871l2.405 4.745l-0.056 6.715l2.856 2.86l-2.944 2.415l3.064 6.592l-1.407 2.878l6.384 2.354l5.274 -5.174l8.443 3.197l7.707 10.933l13.159 -8.34l5.932 9.409l4.326 -0.715l2.582 5.031l5.657 -3.551l5.942 1.339l9.487 -2.177l5.791 4.275l5.597 -0.573l4.136 4.183l1.788 -4.5l3.743 -0.423l0.15 -69.922l0.225 -50.625l5.649 -0.106l0.01 -12.445l-0.018 -21.157l-39.588 0.676l-19.12 -0.587l2.438 1.429l-7.973 0.506l-4.065 5.215l3.205 4.753l-7.167 2.293l0.558 7.52l-2.251 3.712l-6.356 -3.315l-0.899 6.793l-4.071 -1.703l-7.973 10.003l-8.043 -4.372l-2.018 4.479l2.059 8.281l-4.046 2.603l-1.32 4.587l4.348 -0.423l-0.217 7.273l-3.243 6.936l2.298 1.25l-4.208 -1.92l-0.456 1.917l1.633 3.883l-3.8 4.037z" />
  </g>
  <g data-id="029">
    <path d="m894.991 1114.18l5.143 -3.299l-0.632 7.778l6.199 0.45l4.34 -6.554l7.269 1.269l0.107 -3.543l5.45 -6.918l4.671 0.552l2.337 -3.046l4.033 2.765l1.646 -8.278l8.573 1.605l4.781 -0.965l2.356 -4.419l3.801 0.017l6.446 -4.935l4.029 2.21l6.25 -6.829l-1.45 -1.248l-1.874 -2.638l-1.574 -3.401l-0.872 -1.102l-0.058 -1.932l1.054 -1.978l1.509 -1.52l5.408 -2.907l3.099 -1.666l3.355 -3.936l3.036 -2.733l2.51 -2.578l1.494 -0.875l1.838 -0.51l0.052 -16.963l0.055 -3.321l-0.095 -23.791l-0.013 -3.317l0.104 -6.667l0.004 -1.353l-0.018 -1.252l0.068 -4.224l0.003 -3.795l0.052 -13.088l-74.283 -0.811l-4.919 33.122l-0.902 6.234l-8.527 60.568l-5.854 39.82z" />
  </g>
  <g data-id="031">
    <path d="m727.741 992.304l-0.037 50.844l36.357 -0.74l38.109 -24.468l1.423 -1.081l36.271 -23.478l5.62 -3.757l-0.111 -32.592l0.236 -1.639l-0.437 -37.979l-35.045 0.059l-65.082 0.146l-0.393 40.053l-16.263 0.061l-0.647 34.571z" />
  </g>
  <g data-id="033">
    <path d="m876.406 94.569l0.601 105.502l34.494 -0.559l82.764 -2.278l-0.104 -38.854l-0.062 -16.225l0.035 -1.354l0.018 -5.791l0.011 -3.819l-0.162 -21.222l-0.028 -4.892l-0.054 -11.983l-49.43 0.817l-33.896 0.426l-34.187 0.23z" />
  </g>
  <g data-id="035">
    <path d="m760.358 552.919l0.474 28.963l0.313 61.977l0.024 2.905l-0.045 12.714l-0.044 12.976l40.337 0.18l68.862 -0.08l-0.918 -62.41l-0.401 -28.391l-0.345 -28.641l-33.754 0.322l-1.395 -0.193l-32.585 -0.015l-40.523 -0.308z" />
  </g>
  <g data-id="037">
    <path d="m309.254 1317.44l0.192 33.752l-0.14 39.253l-0.022 11.054l16.796 0.093l28.313 0.212l39.895 -0.807l-0.198 -16.893l34.153 0.399l-0.157 -5.774l-0.422 -33.798l-0.156 -16.864l-0.282 -50.728l-46.812 -0.035l-2.028 4.358l-10.094 7.53l-12.233 -0.516l-1.82 -3.229l-3.743 0.423l-1.788 4.5l-4.136 -4.183l-5.597 0.573l-5.791 -4.275l-9.487 2.177l-5.942 -1.339l-5.657 3.551l-2.582 -5.031l-0.262 35.598z" />
  </g>
  <g data-id="039">
    <path d="m614.285 0.026l0.367 32.361l0.138 10.928l-0.055 1.118l0.17 25.898l0.326 26.242l-0.101 2.02l0.097 15.03l0.067 17.454l52.336 0.069l35.347 -0.042l34.769 -0.447l-0.374 -34.843l-1.51 -95.212l-19.553 0.006l-7.684 -0.002l-7.256 -0.022l-5.222 0.038l-24.358 -0.127l-5.049 -0.023l-25.996 -0.173l-4.95 -0.04l-15.007 -0.227l-6.503 -0.007z" />
  </g>
  <g data-id="041">
    <path d="m843.961 786.427l1.048 102.751l17.004 -0.088l33.846 -0.373l28.232 0.173l0.341 -51.251l0.115 -22.627l-26.001 -0.104l-19.426 -0.19l0.488 -28.611l-11.362 -0.02l-24.286 0.342z" />
  </g>
  <g data-id="043">
    <path d="m623.266 1319.16l0.078 33.585l5.507 -0.022l0.059 11.119l5.685 0.354l-0.005 2.704l0.887 7.106l5.635 0.041l-0.029 5.614l5.602 0.064l-0.71 28.594l17.195 0.142l0.318 2.057l0.569 -1.507l0.875 -1.613l4.376 -5.722l1.727 -1.616l1.804 -1.688l5.169 -4.31l1.718 -2.592l1.836 -3.778l0.513 -4.381l-0.03 -2.383l0.966 -4.113l1.66 -3.345l1.69 -1.461l2.294 -0.923l4.105 -0.769l1.962 -0.654l1.355 -0.729l-0.678 -9.84l3.211 -2.357l-4.215 -4.693l10.031 -6.197l-13.217 -21.506l-34.013 0.245l-14.029 0.136l-8.375 -2.886l0.003 -2.849l-5.891 -0.283l-5.637 0.455z" />
  </g>
  <g data-id="045">
    <path d="m202.368 709.901l-3.759 8.921l5.921 2.77l30.694 -0.119l68.667 -0.101l-0.104 -32.151l-0.238 -1.734l-0.127 -69.387l0.125 -60.066l-11.884 10.305l-11.651 2.281l-22.835 10.286l-1.176 3.839l-9.739 8.523l-4.028 8.417l-6.344 3.812l-6.929 9.295l-5.526 4.86l-18.808 7.357l-2.444 5.519l-3.252 5.462l9.129 8.491l0.561 6.098l-3.251 27.153l-5.304 12.77l2.302 17.397z" />
  </g>
  <g data-id="047">
    <path d="m845.01 889.178l0.161 28.236l0.437 37.979l-0.236 1.639l0.111 32.592l23.74 -15.67l14.291 -0.55l28.443 -0.043l3.235 1.077l74.283 0.811l0.03 -1.678l0.573 -32.121l0.513 -33.45l0.06 -13.141l0.06 -4.303l-62.615 -0.951l-4.005 -0.716l-28.232 -0.173l-33.846 0.373l-17.004 0.088z" />
  </g>
  <g data-id="049">
    <path d="m492.157 272.238l-0.389 69.716l33.997 0.174l7.294 -0.093l3.837 0.117l45.264 -0.177l0.167 -34.472l67.009 -1.239l0.301 -1.936l-0.037 -15.538l-22.063 0.399l0.075 -17.709l-17.362 0.497l-0.487 -35.257l-117.555 0.572l-0.053 34.945z" />
  </g>
  <g data-id="051">
    <path d="m33.156 1381.65l-0.228 2.593l0.458 3.073l0.606 4.103l56.167 0.571l-0.153 10.232l33.643 0.362l-0.05 12.511l66.728 1.158l0.163 -13.778l33.684 -0.13l11.502 -0.049l0.041 -17.028l-0.026 -16.798l0.222 -35.286l-7.076 1.033l-5.184 -3.506l-4.42 4.271l-10.887 0.505l0.077 -23.424l-11.234 0.075l0.014 -11.316l-5.427 -0.047l-0.123 -26.189l-3.985 2.124l1.115 5.528l-5.361 2.835l-1.359 4.104l-7.829 -3.043l-3.822 1.002l-1.059 -6.738l-3.827 2.626l2.801 7.259l-10.074 0.673l-7.774 15.557l-11.653 1.77l-0.404 -3.62l-3.864 2.453l-1.138 -3.428l-5.324 4.462l3.555 4.161l-11.596 5.322l-13.358 2.838l-0.263 2.119l-4.39 6.152l-6.096 8.54l-7.871 2.964l-5.024 6.247l-3.019 8.488l0.227 6.775l0.308 3.029l-0.558 2.317l-2.469 5.089l-1.495 1.322l-2.628 0.496l-2.543 -1.88l-0.96 -3.735l1.749 -5.919l-0.802 -1.712l-1.743 -0.944l-1.854 0.791l-1.756 2.499l-1.21 4.1l-0.903 2.985l-3.004 2.237l-3.241 4.191l-1.3 0.172l-1.438 -0.748l-0.506 -2.241l1.161 -2.477l1.687 -2.686l0.155 -2.455l-2.158 -1.404l-2.561 0.274l-3.729 2.395l-1.491 5.174l-2.913 1.816l0.911 3.897l2.063 1.466l-1.207 1.915l-3.042 1.409l-0.813 2.57l0.256 1.871l-0.674 1.144l-1.556 0.272l-1.083 -0.376l-0.49 -1.334l-3.403 -5.989l-1.58 -0.495z" />
  </g>
  <g data-id="053">
    <path d="m673.978 444.867l0.347 34.256l0.179 34.462l0.281 28.489l-0.054 11.303l22.969 -0.22l62.657 -0.238l40.521 0.152l-0.452 -39.713l-0.358 -34.792l-0.547 -34.46l-57.273 0.19l-11.148 0.124l-57.123 0.447z" />
  </g>
  <g data-id="055">
    <path d="m258.646 1061.22l-0.033 68.551l33.545 0.217l9.39 1.296l19.12 0.587l39.588 -0.676l66.821 -0.191l0.174 -34.037l-0.037 -33.976l-0.181 -33.418l-112.146 -0.911l-4.154 0.047l-18.287 -0.399l-33.744 -1.084l-0.055 33.995z" />
  </g>
  <g data-id="057">
    <path d="m559.908 617.694l0.114 13.852l0.194 31.95l0.08 11.452l0.119 28.4l0.4 28.634l11.129 -0.226l5.685 -0.071l5.723 -0.038l26.826 -0.017l19.204 -0.145l5.287 0.125l17.339 -0.054l22.694 -0.711l-0.028 -5.776l0.075 -23.106l-0.313 -40.05l0.415 -45.446l-22.231 0.197l-92.711 1.029z" />
  </g>
  <g data-id="059">
    <path d="m647.15 759.494l0.059 5.76l0.11 5.773l0.067 7.87l0.097 3.681l0.062 5.776l0.02 4.204l0.185 17.881l-0.007 11.489l17.157 -0.512l78.969 -0.008l-0.079 -34.429l11.039 -0.134l0.072 -33.959l6 0.046l0.183 -28.703l-69.272 0.468l-17.136 0.374l0.028 5.776l-22.694 0.711l-0.15 1.551l0.002 14.169l0.003 6.832l-4.713 5.385z" />
  </g>
  <g data-id="061">
    <path d="m537.399 1411.36l-3.832 -1.155l3.887 3.165l3.919 1.933l4.944 3.77l4.82 7.743l0.175 2.978l-2.243 12.123l-0.019 3.53l1.55 8.381l1.894 3.752l1.822 1.891l3.411 2.641l5.105 2.501l2.275 2.309l1.554 2.053l4.205 2.316l4.682 2.083l3.605 1.965l2.051 0.532l1.472 0.016l7.922 -2.142l4.072 -0.207l2.826 0.28l3.034 0.714l3.739 1.718l2.487 1.457l2.261 1.639l1.401 1.494l0.144 1.38l0.987 2.353l2.048 4.435l0.944 1.643l2.36 2.969l1.646 1.609l1.842 0.517l1.257 -0.51l1.156 -2.018l0.292 -2.206l-0.571 -4.153l0.081 -1.373l0.768 -2.024l3.565 -2.304l3.479 -0.924l3.066 -0.479l6.923 -1.448l5.351 -0.404l2.062 -0.38l1.037 -0.587l2.58 -1.46l1.463 -1.33l1.328 -1.489l1.454 -1.971l0.457 -1.002l0.765 -2.323l0.546 -3.427l0.357 -5.034l0.42 -2.925l0.406 -1.773l0.748 -2.645l2.113 -4.908l0.483 -5.407l-0.181 -4.142l-1.297 -11.126l0.211 -8.098l2.781 -7.361l-0.318 -2.057l-17.195 -0.142l0.71 -28.594l-5.602 -0.064l0.029 -5.614l-5.635 -0.041l-0.887 -7.106l0.005 -2.704l-5.685 -0.354l-0.059 -11.119l-5.507 0.022l-0.078 -33.585l-32.872 -0.778l-34.2 -1.066l-1.341 13.002l3.722 15.193l-7.122 -4.548l-3.135 4.098l1.882 5.704l0.433 5.656l-4.888 1.929l9.151 3.828l-1.522 4.414l3.396 1.062l-6.527 4.593l-0.662 20.305l-5.424 1.215l1.516 8.171l-5.013 0.066l-3.263 9.36z" />
  </g>
  <g data-id="063">
    <path d="m423.389 733.276l-0.017 22.786l2.5 0.001l-0.17 92.014l13.781 0.156l-4.499 11.223l29.216 0.209l28.443 0.036l-0.098 -11.465l8.714 -0.103l5.784 -0.064l24.746 -0.599l2.886 -0.075l-0.075 -34.237l0.027 -3.907l-0.041 -19.316l-0.197 -17.225l-0.218 -14.456l0.796 -2.716l-0.278 -22.758l-1.543 -0.046l-7.2 0.041l-28.548 0.293l-74.011 0.207z" />
  </g>
  <g data-id="065">
    <path d="m754.898 752.884l-0.072 33.959l56.652 -0.311l32.483 -0.106l24.286 -0.342l0.118 -33.456l5.971 -0.088l0.043 -34.199l-0.202 -17.259l-3.629 0.056l-0.269 -28.585l-68.862 0.08l-40.337 -0.18l-0.064 11.556l0.013 22.754l0.052 17.464l-0.183 28.703l-6 -0.046z" />
  </g>
  <g data-id="067">
    <path d="m519.945 498.062l-0.184 34.117l5.723 0.001l14.351 0.054l-0.023 17.179l8.6 0.013l0.022 5.787l11.397 0.029l0.054 -11.592l34.919 -0.564l20.061 -0.341l25.696 -0.408l34.222 -0.262l-0.281 -28.489l-0.179 -34.462l-22.679 0.288l-22.497 0.267l-34.437 0.409l-11.348 0.178l-29.042 0.305l-34.156 0.207l-0.222 17.285z" />
  </g>
  <g data-id="069">
    <path d="m740.664 305.021l0.846 61.399l0.74 77.875l57.273 -0.19l31.65 -0.475l2.805 0.154l-0.411 -104.703l0.198 -33.957l-0.081 -1.281l-17.604 0.024l-17.558 -0.017l-57.856 1.171z" />
  </g>
  <g data-id="071">
    <path d="m537.154 1075.05l0.199 22.508l11.193 -0.061l0.287 11.617l1.254 76.479l6.392 -2.448l5.118 0.898l3.947 -4.394l7.973 2.082l4.089 -3.801l14.837 8.193l9.835 -1.289l2.963 -6.855l5.273 3.382l6.032 0.617l8.856 6.628l12.52 -4.686l2.297 6.085l4.762 -4.564l3.768 4.083l3.582 -0.851l6.308 3.822l2.162 -3.945l5.333 10.227l0.738 -1.827l2.092 3.643l3.575 -0.443l8.44 -5.791l6.69 -13.687l4.489 -1.317l2.776 -10.688l-0.334 -40.122l-0.241 -22.792l-0.466 -38.37l-7.258 -0.457l-3.051 2.351l-4.311 2.78l-4.588 2.951l0.588 3.108l-60.735 1.912l-5.483 -0.007l-0.113 -5.539l-71.789 0.567z" />
  </g>
  <g data-id="073">
    <path d="m248.093 218.38l-0.171 122.94l2.233 -0.016l0.183 6.679l0.346 63.092l50.979 0.016l-0.415 -40.283l34.204 -0.13l-0.275 -23.264l-0.027 -6.375l17.106 -0.096l-0.053 -25.915l0.231 -78.087l0.027 -25.866l-11.483 6.878l-12.949 -8.528l-14.697 -11.487l-18.833 -6.765l-2.781 0.048l-18.417 8.416l-7.998 9.339l-2.267 2.617l-14.943 6.787z" />
  </g>
  <g data-id="075">
    <path d="m868.614 553.113l0.345 28.641l125.204 -1.341l-0.061 -16.891l-0.116 -23.296l0.174 -20.227l0.03 -1.126l0.387 -14.447l0.019 -10.416l0.066 -17.544l-80.347 1.579l-40.041 0.397l0.102 34.363l-1.72 0.525l-0.107 38.285l0.01 1.44l-1.414 -0.002l-2.531 0.061z" />
  </g>
  <g data-id="077">
    <path d="m728.592 1165.61l0.151 30.458l11.203 2.659l0.138 8.449l11.192 0.062l0.147 11.26l11.247 0.11l0.286 27.938l22.127 -0.224l0.065 5.606l5.339 2.333l15.233 -0.057l-2.378 -4.621l-0.385 -1.325l-0.346 -1.422l-0.228 -1.925l-0.032 -8.49l0.519 -6.388l-0.303 -4.027l-1.833 -4.161l-3.221 -4.642l-0.3 -1.152l-0.15 -1.572l0.305 -2.521l1.163 -5.296l0.981 -1.555l1.989 -2.507l1.36 -2.536l1.117 -1.18l3.635 -2.081l1.627 -0.556l1.722 -0.313l3.152 0.426l8.51 2.091l2.552 0.038l3.637 -0.449l3.267 -0.872l2.385 -0.847l8.15 -2.154l5.077 -0.294l4.157 0.479l2.359 0.493l2.654 0.83l3.725 2.296l1.229 2.161l1.138 1.447l3.804 6.59l1.49 1.74l2.374 2.131l2.643 1.452l0.403 -86.02l-72.957 0.312l-5.608 0.021l-22.552 0.282l0.232 11.416l-10.978 0.047l0.009 11.208l-11.234 -0.009l0.122 11.439l-22.106 3.425z" />
  </g>
  <g data-id="079">
    <path d="m693.583 1043.91l0.311 23.475l0.466 38.37l0.241 22.792l0.334 40.122l6.85 -0.815l11.912 -8.599l14.895 6.356l22.106 -3.425l-0.122 -11.439l11.234 0.009l-0.009 -11.208l10.978 -0.047l-0.232 -11.416l22.552 -0.282l5.608 -0.021l1.462 -109.843l-38.109 24.468l-36.357 0.74l-26.43 0.666l-7.69 0.097z" />
  </g>
  <g data-id="081">
    <path d="m557.289 948.079l-0.08 12.924l32.407 -0.577l1.431 0.034l16.288 -0.439l17.47 -0.554l22.851 -0.688l-0.35 -14.112l0.536 -54.568l-0.161 -5.772l-0.048 -39.348l-48.033 1.017l-8.606 0.155l-7.245 0.14l-12.606 0.295l-8.919 0.158l-4.473 0.077l-0.224 25.739l0.101 19.742l-0.34 55.778z" />
  </g>
  <g data-id="083">
    <path d="m107.702 1312.35l-1.009 8.121l13.358 -2.838l11.596 -5.322l-3.555 -4.161l5.324 -4.462l1.138 3.428l3.864 -2.453l0.404 3.62l11.653 -1.77l7.774 -15.557l10.074 -0.673l-2.801 -7.259l3.827 -2.626l1.059 6.738l3.822 -1.002l7.829 3.043l1.359 -4.104l5.361 -2.835l-1.115 -5.528l3.985 -2.124l9.288 1.159l2.793 -3.511l3.497 5.042l2.424 -5.733l5.867 1.401l0.561 6.724l4.333 2.854l-0.754 -9.677l4.54 -2.122l12.198 8.535l4.046 4.298l13.686 -6.296l4.161 -7.078l1.407 -2.878l-3.064 -6.592l2.944 -2.415l-2.856 -2.86l0.056 -6.715l-2.405 -4.745l4.906 0.871l-4.266 -8.076l3.721 -0.26l0.591 -10.337l-5.139 1.413l-0.387 -4.147l-4.716 -5.361l2.932 -3.185l-4.727 -1.271l2.692 -6.607l3.8 -4.037l-1.633 -3.883l0.456 -1.917l4.208 1.92l-2.298 -1.25l3.243 -6.936l0.217 -7.273l-4.348 0.423l1.32 -4.587l4.046 -2.603l-2.059 -8.281l2.018 -4.479l8.043 4.372l7.973 -10.003l4.071 1.703l0.899 -6.793l6.356 3.315l2.251 -3.712l-0.558 -7.52l7.167 -2.293l-3.205 -4.753l4.065 -5.215l7.973 -0.506l-2.438 -1.429l-9.39 -1.296l-33.545 -0.217l-0.012 2.437l-86.493 -2.365l-4.963 4.885l-0.99 7.553l-1.815 4.756l0.866 1.467l4.877 2.738l2.554 1.434l1.271 8.609l-1.709 3.275l9.297 15.316l-0.561 6.201l-0.167 1.849l0.741 5.823l-2.121 3.552l-3.979 6.66l-0.876 7.401l-3.508 5.089l-1.281 0.737l-3.037 1.747l-14.529 3.947l-7.981 10.788l-0.681 7.965l-1.501 5.189l0.967 3.277l0.076 1.147l-0.771 1.127l-3.413 0.986l-4.158 7.855l0.249 4.603l-3.027 5.846l1.495 7.672l0.597 1.475l-0.11 2.11l-0.881 1.829l-1.997 1.634l-4.428 1.733l-4.471 4.01l-6.296 3.145l-5.047 0.448l-2.642 1.406l-1.211 2.812l0.11 3.375l2.246 2.325l1.689 2.493l-0.171 1.391l-3.121 2.825z" />
  </g>
  <g data-id="085">
    <path d="m609.765 236.721l0.487 35.257l17.362 -0.497l-0.075 17.709l22.063 -0.399l45.196 -0.285l33.692 -1.252l-0.722 -52.742l10.219 -0.045l0.458 -35.024l-0.221 -11.648l-0.392 -22.674l-0.085 -34.463l-34.769 0.447l-35.347 0.042l-52.336 -0.069l0.808 64.924l0.424 19.851l0.332 20.756l-7.094 0.112z" />
  </g>
  <g data-id="087">
    <path d="m735.862 0.603l1.51 95.212l69.793 -0.907l34.721 -0.243l34.52 -0.096l-0.812 -94.223l-10.884 -0.042l-11.886 -0.065l-6.001 0.015l-1.891 -0.026l-2.95 -0.028l-3.015 0.046l-3.771 0l-5.901 0.03l-8.74 0.013l-14.614 0.068l-1.484 0.009l-25.198 0.134l-27.643 0.111l-4.546 0.012l-3.05 -0.047l-4.518 0.016l-3.642 0.01z" />
  </g>
  <g data-id="089">
    <path d="m172.372 186.429l0.06 53.006l25.436 -2.932l8.412 4.475l6.267 -0.233l3.908 -3.938l16.935 -5.434l14.703 -12.994l14.943 -6.787l2.267 -2.617l-0.424 -36.672l0.185 -20.71l0.008 -20.026l-0.099 -14.54l-0.205 -20.515l-0.218 -10.308l-0.389 -31.063l-11.738 1.544l-5.101 0.242l-2.777 -1.009l-11.077 -0.323l-12.405 -2.624l-7.905 -2.798l-5 -1.38l-4.6 -1.193l-1.932 -1.292l-2.747 -3.353l5.369 -2.093l6.213 -7.308l-3.11 -2.581l-1.492 -1.694l-2.735 -0.764l-7.499 2.368l-3.823 2.599l-1.697 2.163l-11.267 -7.72l-1.72 -2.021l-1.268 -3.113l-1.6 -2.304l-1.056 0.647l-0.272 2.304l0.03 4.446l0.017 6.546l0.044 16.36l-0.03 1.01l0.03 3.997l0 10.874l0 5.057l0 7.959l-0.121 1.654l0.03 11.896l-0.026 2.824l-0.121 13.182l-0.073 7.951l0.013 6.711l0.02 7.262l0.062 22.025l-0.318 10.07l-0.11 23.164z" />
  </g>
  <g data-id="091">
    <path d="m351.656 20.041l0.897 77.518l-0.119 33.365l0.027 80.151l2.878 -3.303l15.175 -7.839l16.785 -3.593l9.41 -4.805l6.633 -8.846l6.489 -5.715l4.894 -15.537l4.846 -8.297l2.14 -8.446l9.004 -4.785l8.528 -7.553l35.563 -0.099l-0.069 -34.961l6.437 0.057l1.652 -4.787l-0.005 -11.967l3.539 -3.817l-0.342 -31.801l-11.805 -0.45l0.204 -8.892l0.18 -8.944l0.358 -26.235l-34.956 -0.087l-32.137 -0.126l-1.351 0l-14.973 -0.109l-1.152 0.004l-3.514 0l-2.281 0l-15.634 9.022l-10.171 4.449l-7.128 6.428z" />
  </g>
  <g data-id="093">
    <path d="m426.955 1198.65l0.046 16.82l39.146 -0.34l73.853 -0.255l-0.41 -17.417l2.997 1.366l7.499 -13.232l-1.254 -76.479l-0.287 -11.617l-11.193 0.061l-77.286 -0.496l-32.816 -0.1l-0.174 34.037l-0.121 67.652z" />
  </g>
  <g data-id="095">
    <path d="m674.435 661.914l0.313 40.05l-0.075 23.106l17.136 -0.374l69.272 -0.468l-0.052 -17.464l-0.013 -22.754l0.064 -11.556l0.044 -12.976l0.045 -12.714l-0.024 -2.905l-0.313 -61.977l-0.474 -28.963l-62.657 0.238l-22.969 0.22l0.575 34.412l-0.456 28.679l-0.415 45.446z" />
  </g>
  <g data-id="097">
    <path d="m534.172 758.255l0.218 14.456l0.197 17.225l0.041 19.316l-0.027 3.907l0.075 34.237l23.075 -0.575l4.473 -0.077l8.919 -0.158l12.606 -0.295l7.245 -0.14l8.606 -0.155l48.033 -1.017l0.108 -23.051l0.007 -11.489l-0.185 -17.881l-0.02 -4.204l-0.062 -5.776l-0.097 -3.681l-0.067 -7.87l-0.11 -5.773l-0.059 -5.76l4.713 -5.385l-0.003 -6.832l-0.002 -14.169l0.15 -1.551l-17.339 0.054l-5.287 -0.125l-19.204 0.145l-26.826 0.017l-5.723 0.038l-5.685 0.071l-11.129 0.226l-11.69 0.522l-14.433 0.275l0.278 22.758l-0.796 2.716z" />
  </g>
  <g data-id="099">
    <path d="m492.191 114.71l0.152 17.514l0.094 23.399l-0.068 29.179l-0.053 17.515l-0.107 34.976l117.555 -0.572l7.094 -0.112l-0.332 -20.756l-0.424 -19.851l-0.808 -64.924l-0.067 -17.454l-68.441 0.175l-6.119 0.575l-7.047 -0.325l-41.43 0.661z" />
  </g>
  <g data-id="101">
    <path d="m354.389 1215.53l-0.15 69.922l1.82 3.229l12.233 0.516l10.094 -7.53l2.028 -4.358l46.812 0.035l-0.054 -27.996l-0.17 -33.871l-0.046 -16.82l0.121 -67.652l-66.821 0.191l0.018 21.157l-0.01 12.445l-5.649 0.106l-0.225 50.625z" />
  </g>
  <g data-id="103">
    <path d="m582.161 341.975l0.046 66.338l0.973 1.086l-0.07 36.286l0.254 34.581l11.348 -0.178l34.437 -0.409l22.497 -0.267l22.679 -0.288l-0.347 -34.256l-22.556 0.279l-2.086 -138.881l-67.009 1.239l-0.167 34.472z" />
  </g>
  <g data-id="105">
    <path d="m426.245 963.199l0.787 66.373l0.181 33.418l0.037 33.976l32.816 0.1l77.286 0.496l-0.199 -22.508l-15.674 0.169l0.271 -11.059l-0.978 -67.763l-2.272 -0.068l-0.44 -34.582l-25.115 0.569l-33.1 -0.541l-17.072 -0.419l0.008 -2.417l-6.257 -3.374l-2.221 3.256l0.387 6.689l-8.445 -2.315z" />
  </g>
  <g data-id="107">
    <path d="m303.421 618.1l0.127 69.387l0.238 1.734l0.104 32.151l-0.014 2.895l-0.148 30.843l24.768 0.22l94.875 0.731l0.017 -22.786l-0.214 -34.58l-0.007 -66.312l0.05 -14.11l-51.707 -0.218l-17.017 -0.051l-51.073 0.095z" />
  </g>
  <g data-id="109">
    <path d="m425.656 890.576l0.559 20.275l16.148 -0.059l0.089 11.386l0.341 5.682l-0.053 7.926l0.041 23.157l-0.008 2.417l17.072 0.419l33.1 0.541l25.115 -0.569l39.148 -0.749l0.08 -12.924l-0.061 -55.456l0.3 -20.064l0.224 -25.739l-23.075 0.575l-2.886 0.075l-24.746 0.599l-5.784 0.064l-8.714 0.103l0.098 11.465l-28.443 -0.036l-29.216 -0.209l-0.889 8.69l3.403 5.22l-1.697 5.445l-10.147 11.765z" />
  </g>
  <g data-id="111">
    <path d="m172.387 242.101l0.008 2.201l-0.001 1.898l-0.001 3.833l-0.003 7.282l0.058 38.693l0.053 5.702l0.079 39.435l0.021 6.522l0.015 5.974l0.054 10.481l-0.104 46.807l78.119 0.147l-0.346 -63.092l-0.183 -6.679l-2.233 0.016l0.171 -122.94l-14.703 12.994l-16.935 5.434l-3.908 3.938l-6.267 0.233l-8.412 -4.475l-25.436 2.932l-0.022 2.125z" />
  </g>
  <g data-id="113">
    <path d="m737.372 95.815l0.374 34.843l0.085 34.463l0.392 22.674l34.902 -0.187l-0.269 11.681l34.143 0.445l35.092 0.357l34.916 -0.02l-0.601 -105.502l-34.52 0.096l-34.721 0.243l-69.793 0.907z" />
  </g>
  <g data-id="115">
    <path d="m893.987 1121.35l-1.352 10.234l81.397 0.848l-1.934 -3.106l-0.54 -1.702l-0.136 -1.052l0.455 -1.645l2.114 -3.443l1.819 -2.197l8.925 -8.952l0.768 -1.358l0.833 -3.076l-0.23 -2.14l-0.861 -2.572l-1.101 -2.538l-0.818 -1.255l-2.192 -2.337l-0.71 -1.404l-2.267 -4.119l-2.32 -3.17l-1.667 -2.278l-2.379 -2.047l-6.25 6.829l-4.029 -2.21l-6.446 4.935l-3.801 -0.017l-2.356 4.419l-4.781 0.965l-8.573 -1.605l-1.646 8.278l-4.033 -2.765l-2.337 3.046l-4.671 -0.552l-5.45 6.918l-0.107 3.543l-7.269 -1.269l-4.34 6.554l-6.199 -0.45l0.632 -7.778l-5.143 3.299l-1.003 7.17z" />
  </g>
  <g data-id="117">
    <path d="m427.002 1215.47l0.17 33.871l0.054 27.996l0.282 50.728l20.113 -0.267l92.329 0.536l0.059 -11.095l0.018 -23.875l-0.026 -78.488l-73.853 0.255l-39.146 0.34z" />
  </g>
  <g data-id="119">
    <path d="m315.167 960.632l-0.281 68.029l112.146 0.911l-0.787 -66.373l8.445 2.315l-0.387 -6.689l2.221 -3.256l6.257 3.374l-0.041 -23.157l0.053 -7.926l-0.341 -5.682l-0.089 -11.386l-16.148 0.059l-1.795 -0.188l-74.948 -1.096l-0.471 14.358l-0.262 2.836l0.035 11.503l-0.054 22.593l-33.553 -0.226z" />
  </g>
  <g data-id="121">
    <path d="m204.53 721.592l-3.914 8.293l4.262 2.233l4.259 5.845l7.551 2.715l3.343 5.305l-2.423 6.673l6.95 4.494l-3.782 7.551l-5.778 3.736l0.597 11.218l2.703 4.84l-1.799 10.106l1.026 8.111l-2.188 10.805l0.845 9.536l-4.335 16.234l4.094 17.607l55.354 0.313l22.568 0.539l33.554 0.382l1.082 -102.796l-24.768 -0.22l0.148 -30.843l0.014 -2.895l-68.667 0.101l-30.694 0.119z" />
  </g>
  <g data-id="123">
    <path d="m387.267 1480.18l1.16 0.584l4.807 3.128l1.324 3.416l0.771 2.765l2.43 6.247l4.509 9.19l4.245 7.506l4.911 6.237l3.764 1.506l1.142 -0.182l3.213 -2.005l4.775 -3.887l1.805 -1.742l1.535 -0.737l2.382 0.041l3.667 0.705l3.26 0.935l1.38 1.563l0.413 1.592l0.031 1.593l-0.216 1.299l-1.199 3.354l-2.912 6.37l-0.863 2.529l-0.381 2.221l0.259 2.766l1.017 2.129l1.736 0.958l1.355 0.081l2.947 -0.494l1.205 -0.431l2.568 -1.308l3.184 -2.137l1.827 -0.975l1.37 -1.095l1.967 -3.483l0.238 -1.063l-0.625 -1.755l0.324 -2.167l0.05 -1.58l-0.587 -6.373l0.075 -2.118l0.421 -1.611l0.702 -1.272l2.277 -2.628l2.492 -0.76l4.245 0.375l5.357 1.654l2.35 0.371l1.982 -0.052l1.774 -0.616l2.728 -1.356l2.485 -1.514l0.958 -1.037l0.237 -2.912l-0.708 -2.316l-0.965 -1.706l-1.807 -1.856l-0.582 -1.01l-1.004 -2.959l-0.405 -2.32l0.086 -5.209l-0.289 -6.338l0.052 -3.355l0.306 -2.202l0.082 -2.189l-0.176 -3.552l0.949 -4.003l0.731 -1.117l2.307 -1.229l3.534 -0.502l2.801 0.032l3.132 0.036l2.562 -0.245l5.949 -1.637l4.212 -3.808l1.644 -2.586l0.814 -4.396l-1.194 -3.115l-7.47 -3.697l-1.528 -1.831l-0.712 -2.149l0.041 -2.937l0.855 -1.857l0.799 -31.552l0.053 -2.054l-33.58 -0.274l0.468 -22.59l-33.011 1.246l0.157 5.774l-34.153 -0.399l0.198 16.893l0.055 9.623l-3.698 -0.522l2.419 9.458l-3.231 5.248l3.394 7.511l-3.688 2.145l4.463 0.502l7.616 8.552l-3.955 5.911l3.913 8.437l-4.61 3.253l3.097 19.261l-5.478 -2.092l-2.347 -4.558l-4.969 6.456z" />
  </g>
  <g data-id="125">
    <path d="m191.651 1274.59l0.123 26.189l5.427 0.047l-0.014 11.316l11.234 -0.075l-0.077 23.424l10.887 -0.505l4.42 -4.271l5.184 3.506l7.076 -1.033l-0.222 35.286l0.026 16.798l5.636 0.073l-0.051 5.462l68.005 -0.355l0.14 -39.253l-0.192 -33.752l0.262 -35.598l-4.326 0.715l-5.932 -9.409l-13.159 8.34l-7.707 -10.933l-8.443 -3.197l-5.274 5.174l-6.384 -2.354l-4.161 7.078l-13.686 6.296l-4.046 -4.298l-12.198 -8.535l-4.54 2.122l0.754 9.677l-4.333 -2.854l-0.561 -6.724l-5.867 -1.401l-2.424 5.733l-3.497 -5.042l-2.793 3.511l-9.288 -1.159z" />
  </g>
  <g data-id="127">
    <path d="m264.161 55.143l0.389 31.063l0.218 10.308l0.205 20.515l0.099 14.54l-0.008 20.026l-0.185 20.71l0.424 36.672l7.998 -9.339l18.417 -8.416l2.781 -0.048l18.833 6.765l14.697 11.487l12.949 8.528l11.483 -6.878l-0.028 -79.378l0.12 -34.138l-0.897 -77.518l-28.715 14.704l-11.513 5.178l-16.385 6.521l-1.664 -1.858l-10.548 1.986l0.048 3.279l-8.157 3.074l-9.963 2.139z" />
  </g>
  <g data-id="129">
    <path d="m0.673 1515.73l-0.673 1.641l0.886 2.994l4.958 5.572l3.37 8.819l2.954 3.119l7.324 2.283l2.091 4.131l-4.192 3.35l-2.317 0.235l-3.702 -0.429l-4.174 -2.411l-2.906 -0.388l-2.177 2.181l2.318 5.185l4.31 3.787l3.431 -0.4l4.016 -2.5l2.654 -0.361l1.833 2.261l0.408 1.672l2.115 -0.835l1.774 -0.199l3.15 0.682l2.295 0.945l1.208 0.732l1.794 1.357l3.25 1.604l1.384 1.282l0.466 1.066l3.088 3.297l2.245 0.565l1.206 -0.23l1.234 -1.112l1.783 -4.834l1.177 -1.494l-0.072 -1.296l2.231 -1.769l2.537 -0.87l2.43 -1.157l1.291 -0.942l0.669 -1.873l0.239 -2l-1.198 -7.584l-0.755 -2.219l-1.393 -2.37l-3.746 -3.475l-2.694 -3.528l-0.573 -1.038l-0.567 -1.68l-0.307 -1.577l0.055 -1.595l0.232 -1.657l0.514 -1.198l1.882 -2.493l1.316 -1.378l1.818 -2.663l5.117 -6.506l2.03 -1.003l1.687 -0.159l2.762 0.647l1.81 0.843l1.444 1.161l2.107 2.274l0.743 1.223l1.316 3.473l3.968 3.683l1.176 2.091l0.024 1.641l1.06 1.385l1.273 0.935l7.807 0.816l3.872 -0.031l1.293 -0.169l1.356 -0.322l4.042 -3.054l3.246 -2.433l6.674 -1.432l2.067 0.116l2.917 0.875l1.709 -0.196l2.202 -0.508l2.946 -1.291l0.78 -42.465l0.469 -44.708l2.371 0.051l0.164 -16.774l0.05 -12.511l-33.643 -0.362l0.153 -10.232l-56.167 -0.571l0.312 7.723l2.54 4.657l4.925 5.168l6.742 4.679l1.027 3.009l-0.003 3.084l1.901 1.678l0.594 2.186l-0.703 1.806l-2.205 0.812l-3.12 4.916l-3.139 -2.41l-1.391 0.308l-2.073 -0.017l-1.039 1.235l-1.102 3.101l0.068 3.627l-1.722 1.289l-2.122 0.334l-3.426 -0.513l-4.469 1.903l-1.09 2.405l1.388 4.595l2.244 0.502l12.823 -6.17l1.609 4.514l-1.323 3.83l-1.801 4.29l-6.502 4.414l-3.791 1.551l-10.262 0.153l-1.966 4.968l3.308 2.862l4 -1.545l3.018 2.146l-4.738 5.249l0.438 7.464l2.808 7.236l-0.107 4.027l-1.021 1.903l-1.375 0.851l-2.218 0.361l-1.138 -0.069l-1.418 0.658l0.17 5.407l-5.432 3.719l-1.744 -0.307l-2.73 2.015l1.134 3.398l10.561 2.042l3.06 0.553l2.024 6.903l-1.611 2.467l-2.377 -1.002l-4.314 -0.284l-4.38 0.202l-4.852 -1.75l-4.463 -3.787l-2.845 -0.036z" />
  </g>
  <g data-id="131">
    <path d="m352.202 315.029l0.053 25.915l105.401 0.596l34.112 0.414l0.389 -69.716l0.053 -34.945l-104.833 -0.221l-34.944 -0.13l-0.231 78.087z" />
  </g>
  <g data-id="133">
    <path d="m327.415 858.127l-0.444 51.352l22.501 0.089l74.948 1.096l1.795 0.188l-0.559 -20.275l10.147 -11.765l1.697 -5.445l-3.403 -5.22l0.889 -8.69l4.499 -11.223l-13.781 -0.156l0.17 -92.014l-2.5 -0.001l-94.875 -0.731l-1.082 102.796z" />
  </g>
  <g data-id="135">
    <path d="m868.959 581.754l0.401 28.391l0.918 62.41l0.269 28.585l3.629 -0.056l16.78 -0.068l5.764 0.193l95.326 -0.344l0.252 -11.482l0.109 -5.801l0.233 -17.241l0.078 -5.749l0.121 -7.815l0.464 -20.972l0.126 -4.79l0.052 -2.27l0.165 -10.143l0.461 -31.182l0.054 -3.006l-125.204 1.341z" />
  </g>
  <g data-id="137">
    <path d="m802.169 1017.94l-1.462 109.843l72.957 -0.312l0.096 -5.71l20.227 -0.409l1.003 -7.17l5.854 -39.82l8.527 -60.568l0.902 -6.234l4.919 -33.122l-3.235 -1.077l-28.443 0.043l-14.291 0.55l-23.74 15.67l-5.62 3.757l-36.271 23.478l-1.423 1.081z" />
  </g>
  <g data-id="139">
    <path d="m743.788 786.978l0.079 34.429l0.138 28.525l0.165 5.699l0.874 61.989l65.082 -0.146l35.045 -0.059l-0.161 -28.236l-1.048 -102.751l-32.483 0.106l-56.652 0.311l-11.039 0.134z" />
  </g>
  <g data-id="141">
    <path d="m474.415 35.639l-0.204 8.892l11.805 0.45l0.342 31.801l-3.539 3.817l0.005 11.967l-1.652 4.787l-6.437 -0.057l0.069 34.961l17.538 -0.033l-0.152 -17.514l41.43 -0.661l7.047 0.325l6.119 -0.575l68.441 -0.175l-0.097 -15.03l0.101 -2.02l-0.326 -26.242l-0.17 -25.898l0.055 -1.118l-0.129 -10.163l-0.376 -33.126l-7.21 -0.007l-11.649 -0.012l-16.206 0.125l-11.721 0.101l-2.559 0l-11.899 -0.077l-2.092 0.008l-69.22 0.257l-5.295 0.043l-1.48 -0.004l-0.358 26.235l-0.18 8.944z" />
  </g>
  <g data-id="143">
    <path d="m666.873 1196.95l0.812 61.463l11.188 -0.33l0.206 5.789l8.068 -0.058l-0.089 -5.393l8.412 -11.362l8.426 -0.253l4.739 -0.146l9.128 0.119l45.193 -0.238l-0.286 -27.938l-11.247 -0.11l-0.147 -11.26l-11.192 -0.062l-0.138 -8.449l-11.203 -2.659l-0.151 -30.458l-14.895 -6.356l-11.912 8.599l-6.85 0.815l-2.776 10.688l-4.489 1.317l-6.69 13.687l-8.44 5.791l-3.575 0.443l-2.092 -3.643z" />
  </g>
  <g data-id="145">
    <path d="m647.306 944.666l0.35 14.112l28.535 -0.757l17.709 -0.342l34.488 0.054l16.263 -0.061l0.393 -40.053l-0.874 -61.989l-0.165 -5.699l0.074 -28.149l-79.181 -0.368l-17.157 0.512l-0.108 23.051l0.048 39.348l0.161 5.772l-0.536 54.568z" />
  </g>
  <g data-id="147">
    <path d="m250.471 1508.48l-0.208 17.639l1.74 2.219l2.318 2.11l10.354 6.954l2.574 1.113l3.071 0.93l6.693 0.923l2.786 -0.361l1.801 0.422l1.807 1.278l1.627 2.097l3.482 6.193l1.342 3.405l1.314 5.75l1.062 2.139l3.139 1.436l2.443 0.128l3.39 -0.813l2.796 -1.21l3.994 -3.209l2.013 -2.188l0.874 -1.577l0.739 -1.687l2.279 -6.486l0.734 -2.996l1.193 -7.026l0.662 -2.318l1.632 -4.225l0.243 -1.626l-0.108 -1.87l-0.222 -1.562l-0.528 -1.357l0.239 -2.372l0.861 -1.727l2.657 -3.175l6.981 -5.002l2.117 -1.043l7.347 -2.986l2.992 -1.017l1.285 0.181l6.082 -0.44l3.403 -0.538l1.693 -0.007l2.541 -0.654l3.64 -2.406l1.465 -1.228l3.117 -3.739l2.15 -3.232l1.093 -1.206l1.649 -1.243l1.656 -1.725l1.042 -1.538l1.12 -1.226l2.195 -1.837l2.089 -1.045l4.185 -1.428l3.522 -1.987l1.032 -0.173l1.45 0.197l5.123 -6.378l2.347 4.558l5.478 2.092l-3.097 -19.261l4.61 -3.253l-3.913 -8.437l3.955 -5.911l-7.616 -8.552l-4.463 -0.502l3.688 -2.145l-3.394 -7.511l3.231 -5.248l-2.419 -9.458l3.698 0.522l-0.055 -9.623l-39.895 0.807l-28.313 -0.212l0.009 31.315l-0.171 1.426l-16.39 0.001l-0.854 8.389l-4.665 6.188l-2.143 9.018l2.806 2.658l-11.047 2.28l-2.34 -4.091l-6.254 0.365l0.212 11.5l-8.9 4.905l-4.206 8.932l-8.898 6.045l-2.045 8.99l-2.548 -1.565l-8.175 10.525z" />
  </g>
  <g data-id="149">
    <path d="m352.461 211.075l-0.027 25.866l34.944 0.13l104.833 0.221l0.107 -34.976l0.053 -17.515l0.068 -29.179l-0.094 -23.399l-17.538 0.033l-35.563 0.099l-8.528 7.553l-9.004 4.785l-2.14 8.446l-4.846 8.297l-4.894 15.537l-6.489 5.715l-6.633 8.846l-9.41 4.805l-16.785 3.593l-15.175 7.839l-2.878 3.303z" />
  </g>
  <g data-id="151">
    <path d="m875.636 0.347l0.771 94.223l34.187 -0.23l33.896 -0.426l49.43 -0.834l-0.327 -33.446l0.006 -1.372l0.029 -6.04l-0.155 -17.43l0.039 -8.705l0.019 -4.607l-0.007 -5.28l-0.007 -5l-0.003 -1.898l-0.018 -2.23l0.076 -6.918l-3.921 0.064l-1.888 0.028l-32.401 0.121l-8.564 0.102l-3.227 -0.036l-20 -0.111l-23.979 0.041l-1.761 -0.017l-14.827 0.051l-7.366 -0.047z" />
  </g>
  <g data-id="153">
    <path d="m136.39 1037.68l0.859 6.357l3.29 3.836l-0.19 1.714l0 1.458l0.189 1.457l2.073 1.944l1.885 0.486l0.566 1.7l0.188 2.429l0.943 1.7l1.508 1.214l3.665 1.091l7.179 8.689l-0.736 9.025l1.609 5.691l-2.843 6.916l0.241 4.979l14.735 6.546l5.224 6.796l-2.004 12.111l-2.662 6.019l86.493 2.365l0.012 -2.437l0.033 -68.551l0.055 -33.995l0.108 -34.004l-33.487 -0.051l-76.281 -0.103l3.196 4.68l3.003 1.509l1.32 4.137l1.39 5.672l-0.746 2.836l-3.497 5.18l-9.713 8.969l-5.927 3.139l-0.707 3.582l-0.97 4.913z" />
  </g>
  <g data-id="155">
    <path d="m873.761 1121.76l-0.096 5.71l0.478 86.322l3.343 1.145l4.043 -0.176l1.384 0.125l4.941 -1.612l2.806 -1.228l2.469 -1.447l1.7 -1.24l3.529 -3.426l4.363 -3.697l1.083 -1.754l6.378 -3.913l1.754 -1.57l1.34 -0.801l3.52 -1.308l3.711 -2.284l2.121 -1.67l5.238 -2.66l3.565 -1.81l3.568 -3.098l1.21 -0.79l1.791 -0.63l3.405 -0.347l4.886 0.482l4.494 1.069l1.984 -0.137l2.443 -0.732l5.355 -2.543l4.032 -2.524l2.398 -1.2l1.814 -0.367l9.361 1.715l2.712 0.82l3.696 1.478l2.1 0.419l2.214 0.038l2.033 -0.533l0.872 -1.812l0.032 -1.393l-0.692 -2.882l-0.775 -1.979l-3.197 -5.157l-0.841 -2.623l-0.022 -2.025l0.745 -1.657l1.245 -1.661l1.869 -1.637l4.202 -2.83l2.605 -2.479l1.091 -1.338l0.815 -1.455l0.755 -2.004l0.368 -2.258l-0.198 -1.985l-0.878 -1.276l-3.653 -2.847l-3.772 -1.575l-1.91 -0.131l-3.44 -0.693l-9.141 -0.154l-2.118 -0.574l-82.255 -1.575l1.352 -10.234l-20.227 0.409z" />
  </g>
  <g data-id="157">
    <path d="m302.578 480.168l0.507 34.601l0.261 1.579l0.2 41.686l-0.125 60.066l51.073 -0.095l17.017 0.051l51.707 0.218l0.116 -17.334l0.028 -17.006l0.149 -51.876l-0.208 -51.484l-22.92 -0.083l-29.487 0.165l-22.577 -0.017l-11.394 -0.111l-5.93 -0.086l-28.419 -0.274z" />
  </g>
  <g data-id="159">
    <path d="m559.887 543.65l-0.054 11.592l0.075 62.452l92.711 -1.029l22.231 -0.197l0.456 -28.679l-0.575 -34.412l0.054 -11.303l-34.222 0.262l-25.696 0.408l-20.061 0.341l-34.919 0.564z" />
  </g>
  <g data-id="161">
    <path d="m924.433 837.639l-0.341 51.251l4.005 0.716l62.615 0.951l0.06 -10.214l0.06 -7.125l0.075 -24.522l0.115 -10.567l-0.089 -5.238l0.027 -4.413l0.121 -18.095l-46.897 -0.096l-19.586 -0.966l-0.05 5.689l-0.115 22.627z" />
  </g>
  <g data-id="163">
    <path d="m120.593 1476.53l-0.711 42.429l3.726 -1.953l1.304 -0.392l1.111 0.086l1.391 0.514l1.29 0.93l1.502 1.42l1.091 3.904l0.014 1.579l-0.387 1.634l-0.626 1.159l-0.816 1.013l-1.3 1.179l-2.549 4.777l-0.081 3.634l0.365 2.213l0.453 1.643l1.102 1.754l2.721 1.634l3.426 0.542l2.811 0.053l3.034 -0.426l3.257 -0.788l2.902 -1.107l2.656 -2.558l4.556 -6.87l0.838 -1.66l0.091 -2.985l-0.953 -7.037l-1.671 -1.989l-1.463 -1.273l-1.965 -1.175l-3.559 -3.109l-0.913 -1.463l-0.893 -2.063l-0.652 -2.032l-0.164 -2.014l1.009 -2.574l1.85 -1.95l2.617 -2.321l1.388 -1.929l0.815 -3.56l-0.513 -2.373l0.423 -1.455l0.724 -1.378l1.419 -0.881l1.147 -0.383l1.515 0.036l2.047 0.883l1.932 2.182l0.392 1.952l-0.263 2.986l0.681 2.823l1.096 2.388l0.763 1.261l1.97 2.596l2.434 2.192l1.622 1.053l4.337 2.436l3.395 1.408l2.651 2.369l1.212 -0.116l1.917 -0.93l3.235 -2.877l1.227 -1.353l6.288 -5.155l4.327 -2.828l0.142 -2.557l0.242 -16.631l0.012 -16.842l-6.977 0.087l0.146 -16.566l0.123 -16.714l1.451 -16.756l-66.728 -1.158l-0.164 16.774l-2.371 -0.051l-0.469 44.708z" />
  </g>
  <g data-id="165">
    <path d="m170.423 748.872l0.026 28.375l0.026 2.76l-0.001 3.017l-0.002 5.695l0.11 45.862l0.078 7.357l0.075 15.203l45.205 -0.247l-4.094 -17.607l4.335 -16.234l-0.845 -9.536l2.188 -10.805l-1.026 -8.111l1.799 -10.106l-2.703 -4.84l-0.597 -11.218l5.778 -3.736l3.782 -7.551l-6.95 -4.494l2.423 -6.673l-3.343 -5.305l-7.551 -2.715l-4.259 -5.845l-4.262 -2.233l3.914 -8.293l-5.921 -2.77l3.759 -8.921l-2.302 -17.397l5.304 -12.77l3.251 -27.153l-25.275 0.04l-0.014 -8.297l-12.369 0.118l-0.097 1.52l0.06 4.449l-0.225 47.888l0.006 4.551l-0.077 4.954l-0.043 3.849l-0.032 1.056l0.004 1.549l-0.136 34.614z" />
  </g>
  <g data-id="167">
    <path d="m147.237 984.189l1.36 8.23l76.724 0.751l33.487 0.051l0.248 -68.102l0.141 -26.084l0.038 -7.957l11.728 0.298l0.33 -34.169l-55.354 -0.313l-45.205 0.247l0.057 16.955l0.021 7.109l-0.008 7.403l0.017 2.573l0.065 9.719l0.02 1.493l-0.011 5.701l0.012 3.027l0.005 1.233l0.036 6.548l0.04 4.589l-0.058 23.495l-0.029 11.592l-3.733 -1.959l-3.135 4.847l-7.223 0.057l-3.245 2.541l-3.414 8.165l0.74 5.236l0.121 1.206l-3.774 5.52z" />
  </g>
  <g data-id="169">
    <path d="m649.638 304.329l-0.301 1.936l2.086 138.881l22.556 -0.279l57.123 -0.447l11.148 -0.124l-0.74 -77.875l-0.846 -61.399l-11.878 0.158l-0.297 -17.925l-33.692 1.252l-45.196 0.285l0.037 15.538z" />
  </g>
  <g data-id="171">
    <path d="m171.055 635.792l-0.092 8.651l12.369 -0.118l0.014 8.297l25.275 -0.04l-0.561 -6.098l-9.129 -8.491l3.252 -5.462l2.444 -5.519l18.808 -7.357l5.526 -4.86l6.929 -9.295l6.344 -3.812l4.028 -8.417l9.739 -8.523l1.176 -3.839l22.835 -10.286l11.651 -2.281l11.884 -10.305l-0.2 -41.686l-0.261 -1.579l-130.635 -0.45l-0.09 5.835l-0.979 83.767l-0.233 23.258l-0.062 5.782l-0.03 2.829z" />
  </g>
  <g data-id="173">
    <path d="m188.752 1449.72l-0.146 16.566l6.977 -0.087l-0.012 16.842l-0.242 16.631l-0.142 2.557l1.023 -0.516l3.298 -0.675l2.517 -0.237l2.999 0.018l4.815 0.955l3.44 1.421l3.316 1.132l2.24 1.292l2.777 3.778l1.608 0.692l1.082 0.875l2.951 2.711l2.878 1.377l1.096 -0.263l3.54 0.961l5.263 2.747l8.52 5.972l1.352 1.181l0.569 -17.178l8.175 -10.525l2.548 1.565l2.045 -8.99l8.898 -6.045l4.206 -8.932l8.9 -4.905l-0.212 -11.5l6.254 -0.365l2.34 4.091l11.047 -2.28l-2.806 -2.658l2.143 -9.018l4.665 -6.188l0.854 -8.389l16.39 -0.001l0.171 -1.426l-0.009 -31.315l-16.796 -0.093l0.022 -11.054l-68.005 0.355l0.051 -5.462l-5.636 -0.073l-0.041 17.028l-11.502 0.049l-33.684 0.13l-0.163 13.778l-1.451 16.756l-0.123 16.714z" />
  </g>
  <g data-id="175">
    <path d="m539.591 1197.46l0.41 17.417l0.026 78.488l-0.018 23.875l16.186 0.073l34.2 1.066l32.872 0.778l5.637 -0.455l5.891 0.283l0.393 -27.053l11.204 -0.16l-0.274 -5.01l21.829 -0.586l0.021 -5.663l5.565 -0.105l-0.022 -11.062l5.66 -0.017l-0.092 -5.453l-0.206 -5.789l-11.188 0.33l-0.812 -61.463l-0.738 1.827l-5.333 -10.227l-2.162 3.945l-6.308 -3.822l-3.582 0.851l-3.768 -4.083l-4.762 4.564l-2.297 -6.085l-12.52 4.686l-8.856 -6.628l-6.032 -0.617l-5.273 -3.382l-2.963 6.855l-9.835 1.289l-14.837 -8.193l-4.089 3.801l-7.973 -2.082l-3.947 4.394l-5.118 -0.898l-6.392 2.448l-7.499 13.232l-2.997 -1.366z" />
  </g>
  <g data-id="177">
    <path d="m868.365 752.629l-0.118 33.456l11.362 0.02l-0.488 28.611l19.426 0.19l26.001 0.104l0.05 -5.689l19.586 0.966l46.897 0.071l-0.018 -23.143l-0.006 -5.572l0.027 -4.574l-0.018 -1.106l0.099 -4.09l0.045 -7.247l0.047 -3.033l0.151 -8.723l0.079 -7.029l0.114 -10.263l0.016 -1.908l0.049 -2.194l0.296 -26.773l0.084 -3.841l-95.326 0.344l-5.764 -0.193l-16.78 0.068l0.202 17.259l-0.043 34.199l-5.971 0.088z" />
  </g>
  <g data-id="179">
    <path d="m799.522 444.105l0.547 34.46l17.045 0.012l51.169 -0.14l5.992 0.004l40.041 -0.397l-0.533 -68.578l-0.235 -1.699l-0.856 -68.982l-10.824 0.197l-17.306 0.298l-50.996 -0.199l0.411 104.703l-2.805 -0.154l-31.65 0.475z" />
  </g>
  <g data-id="181">
    <path d="m301.247 370.809l0.415 40.283l0.45 1.758l0.465 67.318l28.419 0.274l5.93 0.086l11.394 0.111l22.577 0.017l29.487 -0.165l-0.886 -40.531l4.808 -0.102l4.742 -6.747l-5.927 0.536l4.081 -3.389l-3.823 -3.79l3.429 -15.172l2.875 -0.622l24.659 0.394l23.252 0.333l0.062 -69.861l-105.401 -0.596l-17.106 0.096l0.027 6.375l0.275 23.264l-34.204 0.13z" />
  </g>
  <g data-id="183">
    <path d="m727.766 234.512l0.722 52.742l0.297 17.925l11.878 -0.158l57.856 -1.171l17.558 0.017l17.604 -0.024l-0.417 -33.806l-0.461 -35.824l8.681 -0.055l0.606 -34.067l-35.092 -0.357l-34.143 -0.445l0.269 -11.681l-34.902 0.187l0.221 11.648l-0.458 35.024l-10.219 0.045z" />
  </g>
</svg>
