<?xml version="1.0" encoding="UTF-8"?><!DOCTYPE svg PUBLIC '-//W3C//DTD SVG 1.1//EN' 'http://www.w3.org/Graphics/SVG/1.1/DTD/svg11.dtd'><svg viewBox="0 0 1000 794.007" xmlns="http://www.w3.org/2000/svg"><path id="45001" d="m127 254l2 4v4v1l1 1l1 1l1 4l1 1l2 2h1h1h1l1 1l1 1h1l1 3l1 1l1 2v1l1 1h1h1l1 2v1v1l-1 1v1v1l1 1l1 1h1v-1l1 1l1 1v1l1 1l1 1l1 2l1 1l1 1l1 1l-1 2v1h1l7-8l6-6h6l4-2l6 5h16l10-1l13-11l4-9l1-5v-4l-1-10l-4-7l-9-8v-11l-5-5l9-9l9-8l-4-6l-10-9v-4l-13 10l-2 2l-1 1l-61 47z"/><path id="45003" d="m279 424l1 2l1 1l2 4v1v1v1l1 1l1 1h2l1 1l2 1l2 1h1l2 1h1l1 1l1 3l1 2v1v2h-1h-1l-1 1v1l1 1h1v1v1l-1 1h-1h-1l-1 1l1 1l1 5l1 1v1l-1 1l-1-1h-1h-1h-1v1l1 1l2 2v1h-1v1v1h1l2-1l1 1v2l1 1l1 1v1h1v-1v-1h1l1 1v1l2 1v2l2 1l1-2h1l3 1l1 1v1l-1 1h-1h-1v2v1l2 1l2 1l1 1v1l-1 1h-1l-1 4v1l1 1l2 1l1 1l1 1l2 1l1 1h1v1v1l1 1h3h1h1v-1v-1v-1h1l1 1v1l1 3h1l1 1l50-46l28-26l2-1l7-8l25-26l6-6l-4-2l-15-9h-1v1l-4-3l-11-5l-12-2l-3-3l-2-8l-5-5l-3-1l-7-3l-5-5l-3-7l-3-1l-2-3l-2 2l-14 13l-14 13l-13 12l-17 16l-15 14l-1 2z"/><path id="45005" d="m361 533h1v1v1v1h1l1-1l1 1l-1 1v1l1 1h1v-1l1 1h1v2h1l1 2h1h1v-1h1v1v1v1h1l1-1h1v1l1 1l4 3h1h1l2 3l2 2v3l-1 4l-1 4h-1v1h-1v1l1 1v1l1 1v1v1v1h1l3 2v3v1l3 2h1l-1 1l-1 1l-1 1l-1 2h1l1 1h1h3v1v1v2l-1 1l1 1v1l1-1h1l3 3l1 1l1 1v3v1l-1 1v2v2v1l-1 1v1h1v1h1v1h-1v1h-1h1v1h1v1l1 1l-1 1l1 1l1 1h3l6-4l6-2l2-5l14-12l-3-13l3-3l5-1v-8l3-3l29-19l-1-2l-3-3l-5-1l-5-7l-9-9l-4-1l-11 3h-12h-3h-6l-18-6l-19-6z"/><path id="45007" d="m75 186h3h4l1 1l1-1l2-1h2l1 1l3-1h2l4 1l1 1l1 1l-1 1v1l2 1l1 1v1v1l1 1l1 3v2h1v1v2v1l1 2v1v1v1l1 2l1 2v1v1l2 2l2 1l1 1l2 2h1v1l1 2v1v1l1 3l1 2v1l1 2l1 1l1 1h1l1 2l1 1l1 1v1l1 3l-1 1v1l1 3v1v2v1v1l12-9l61-47l1-1l2-2l13-10l-11-9l-5-6l-6-2l-2-11l-5-7l-1-9l-1 1l-1-3l2-3l-1-2v-15l2-1v-4v-3h-1l-1-5l-5-5l-9 5l-22 13l-8 5l-23 14l-10 10l-1 2l-1 1l-2 3z"/><path id="45009" d="m443 505l-1 11l2 3l2 5l3 3l9 9l5 7l5 1l3 3l1 2l30-18l7 10h2l2-6l-2-10l20-13l-8-6l-2-9l-9-6l-1-2l-5-3l-5-5l-4-2l-5-4l-9-6l-5-1l-6-5l-7-2l-9-6l-6-1l-4-7h-3l2 10l-1 8l-1 27z"/><path id="45011" d="m329 511l1 3v1v2l2 2l2 2l4 3l2 1l3 2h1l3 1l5 3l3 2h1h1h1l3-1v1l15-16l19 6l18 6h6h3h12l11-3l4 1l-3-3l-2-5l-2-3l1-11v-13l1-27l1-8l-2-10h-4l-5-3l-8-7h-9l-5-3l-2 1l-28 26l-50 46l-1 2h-1z"/><path id="45013" d="m486 745v4l4 5l10 7l-1 7h-3l1 4l4-3l7 1l-4 3l6 2l-2 8h6l4-5l3-2l3-1h1l1 1h2l5-4l8-4l6-5l7-10l4-4l-2-5l-8-7l-5 1v-1l-4-3l-1-3l2-4h4v-3h2l2-1l6 5l7 2l2 1l-1 6l2 3l4-1l5-4h5l5-2l2-1l4-3l11-5l2-2v-2l2-4l3-6l1-3l-1-3v-2h-5l-2-4l-3-5v-1l-1-3l1-4l1-2l-6-3l-1-2l-1-2l-5-4l-3-9l-2 4l-1-4h-3l1-3l-2-2l-3 2l-2-3l-2 3l-2-3l-4-1l-2-4l-2-8h-2l-1-2l3-4l-4-1l-3 2l-1-2l-7-2l-1 2l-4-1l-9-3l-4-4l-2 1l-4 6l-3 4l5 11l3 5l-2 9l1 9l3 8l1 4v3h-3l-3 8v4h4l-3 5v2l-7 4l-1 6l-3-2h-6l-2 8v5l-10-2h-5l3 10z"/><path id="45015" d="m623 488l-1 4l2 2l4 13l7 5l-3 5l-5 3l10 8l8 6l14 11l4 3l3 3l3 2l6 3l1 3l3-1l6-2l1 2l3 2l-1 6v1l1 2l1 2l2 5l1 2l1 3l4-1h2l7-2l-3 8l1 4l2 1l4 2l1 7l2 1h1l1-1l2-2v-7l7-3l4-6l2-6l2-1v1l5-3l4-3h2l2-4l-1-2l1-5l7-6l3-7l3-1l5-9l3-2l4-8l6-4l11-5l6 3h2l2-5l3-3l1-3l4-5l2 1l4-2l-3-5l-3 1l-2-4l-2 3l-11-5l-1-3l-2 1v-3l-9-1l-5-4l-7-1l-3-2l-7-4h-6l-4-2l-1-3l-4-6l-3-3l-2 2l-1-3l-9-5l-1-3l-4-3l2-1l-5-6h-4v-2l-12-9l-7 1l-2-2l-14-1l-4 3l-5-2l-6 6l2 4l-1 4h-9l-3-1l-1 2h-2l-1 8l1 5h-4v10l-2 3l-1 10l-8 7l-5 2l-6-4z"/><path id="45017" d="m478 362l-1 8l5 1v-5l4-4l10 1l5 2l4 3l-5 2l-2 2l-7 2l-11 6l12 16l4 5l5-5l1 9l4 1l7-4l16 4l16 14l8 6l-1 3l8 10l6-1l4 1l-3-4v-3l8-10l-5-3l1-1l11-2h3l6 6l3-5l-4-4l2-4l-3-1l-1-5l-3-3l1-4l-7-6v-3l-5-1l-5-7l-3-7l2-1l-8-4v-3l-6 4l-7-3l-3 3l-2-5v4l-3-4l-5 4v-2l-5-2l-2-1h-2l-2-4l-6-2l-3-3l-4 2l-4-1l1-5l-6 1l-2-3l-3-2h-4v-2l-3-1l1-4l-4-1l-5 2v6l-2 15z"/><path id="45019" d="m604 614l-1 6l6 7l1 4l-1 7l4 4h3l-4 6l-4 1l2 5l5-4h1v1v2l-2 3l2 5l-1 3l-5 4l8 4l6 8l3 1l2-2l-5-4l1-2l5 1l1 3l7-5l1 3l6-3h1l8-6l3 2l2 2l2-2l1-3l4-5l6-3l9-3l8-2l6 1l2 1l2-3l1-3l2-3h1l11-6l7-5l-1-4l4-7v-1l-2-4l-4-1h-6v-2v-3l1-2l8-1l1 1l2 1l1 2v2l3 2l2-1l5-2l1-3l18-7l2-2l-1-1v-2l4-2v-1l1-3l8-5l5-4l12-5l1-5v-2h-1l-1 1l-1 1h-4l-2-2l-1-2v-2l3-5l1-2l3-3l1-4l5-3l7-4l3 1l4 4l1 4l5-2l8-2l1 2l3 1l9-1l4-10l1-4v-2l1-4l8-5l5-6l-5-3l-12-2l-11-8l-7-7h-2l-4 2l-2-1l-4 5l-1 3l-3 3l-2 5h-2l-6-3l-11 5l-6 4l-4 8l-3 2l-5 9l-3 1l-3 7l-7 6l-1 5l1 2l-2 4h-2l-4 3l-5 3v-1l-2 1l-2 6l-4 6l-7 3v7l-2 2l-1 1h-1l-2-1l-1-7l-4-2l-2-1l-1-4l3-8l-7 2h-2l-4 1l-1-3l-1-2l-2-5l-1-2l-1-2v-1l1-6l-3-2l-1-2l-6 2l-3 1l-1-3l-6-3l-3-2h-3v2l-1 2l2 2l3 3l2-4l5 4l-4 1h-2l1 1l7 7l2 3l1 1l1 1l-2 6l-1 4l-2-1h-3l-1-3v3l-8 4v5l-5-1l1 3l4 2l2 3l1 2h-2l-24-6l-4-1l-2-1l-21-2l2 4l-3 8l-6 6z"/><path id="45021" d="m307 8l7 15l2 4l5 12v2v2v3h3l4 11l4 15h4l5 5h6l4 3h4l1 5l6 1l5-3l9 5l6-2l7 3l5 6l1-1l-2-3l-3-11l1-3v-6l-4-3l3-9l-2-11l5-5l11-1l1-15l1-7l7-7l-17-1h-1h-2h-7l-10-1h-8l-7-1h-6h-7l-8-1h-4h-7h-7z"/><path id="45023" d="m389 119l1 6h4l1 7v5l2 5l6 5l-2 16l37 2l39 3l11 1l26 1l1-2l-2-8l-1-3l-1-10l1-8l6-7l-1-3l-3-13l1-8l-5-8h-28h-30h-32h-30l5 10v5z"/><path id="45025" d="m580 101l4 8l5 6l6 10v1v4l4 3l2 4l6 4l-1 4l6 7l4 4l2 4v3l1 6l4 4v3l4 3l2 3v6l1 12h2l2 6l2 2h1v7l28-18l16-10l6-4l4 2l10-4l3 3h5l4-2l4 2l4-1l4-4v-3l4-3h3l6-19l5-1l-4-9l-7-3l-5-4l-1-1l-2-3l-5-13l-3-3l-4-3l-2-9l2-1l-15-1h-3h-3h-3h-6h-1h-5h-6h-6l-15-1h-1h-10h-4h-4h-6h-10l-4-1h-2h-2h-2h-1h-7h-1h-2z"/><path id="45027" d="m586 396l-1 4l3 3l1 5l3 1l-2 4l4 4h2l3 5l4-2l1 6h-5l3 3l-1 2h5v7l9 7l8 4h7l9-4l1 2l6-3l1 3l4-1h2l1-2l3 1h9l1-4l-2-4l6-6l5 2l11-26l5-12l6-14l4-4l-4-12l10-11l6-2l9-16l-6-1h-9l-6-15l-14 8l-16 12h-3l-13 7l-12 9l-2 2l-2 2l-26 5v5l1 8l-8 1l1-3l-1-4l-4 1l-1 6l-5-1l-4 10z"/><path id="45029" d="m472 549l4 4l2 6l5 4l6 10l3 8l2 1l4 5h2l10 10l1 6l6 9l3 11l1 2l4 4l4 4l9 3l4 1l1-2l7 2l1 2l3-2l4 1l-3 4l1 2h2l2 8l2 4l4 1l2 3l2-3l2 3l3-2l2 2l-1 3h3l1 4l2-4l3 9l5 4l1 2l1 2l6 3l1-3l1 1l3-1l3-1l3 1l1 1v1v4v1h1l4-1l1-1l2-2l3-2l4 1l2 3h1l11-9v-1l-1-3l-7 5l-1-3l-5-1l-1 2l5 4l-2 2l-3-1l-6-8l-8-4l5-4l1-3l-2-5l2-3v-2v-1h-1l-5 4l-2-5l4-1l4-6h-3l-4-4l1-7l-1-4l-6-7l1-6l2-5l6-6l3-8l-2-4l1-3l3-4l-4-7v-8l-3-7l2-2v-9l3-2l1-1l-1-3h-4l-13-5h-4l-2 2l-4-1l-2-2l-4 2l-8 1l-7-3v-2l-9-7l-5-8l-4-5l-5-3l-11-3l-2 1l-20 13l2 10l-2 6h-2l-7-10z"/><path id="45031" d="m637 215l2 4l5 2l2 5l8-4l3-7h3v10l3 5l6 5v3v1l2 4l1 4l2 2l-1 8l-9 9l5 9l8 5l4 5h1l20-15l3-2l10-8l5-3l11-9l3-3l4-2l3 1h3l5 1h-1l5-12l9 2l6-5l-1-4l-6-9l4-4l-4-2l2-4l-4-2l-3 3l-2-6l-5-5v-3v-5l3 1l3-6l-2-2l-5-2l-2-3l-1 5h-3l-2 3h-4l-1-3l-4-4l1-5h-3l-4 3v3l-4 4l-4 1l-4-2l-4 2h-5l-3-3l-10 4l-4-2l-6 4l-16 10z"/><path id="45033" d="m773 232h3l4 2l8 8l3 7l-2-4l7-1l9-9l8-2h2l4-1h8l14 7l2-2l5 2l3 3l4 1h5l9-8l9 8l7-6l2-4l3-1l-15-16l-2-1l-8-9l-2-1l-3-4l-6-6l-1-1l-8-8l-4-5l-4-4l-1-1l-6-6l-19-19l-16 35z"/><path id="45035" d="m533 511l11 3l5 3l4 5l5 8l9 7v2l7 3l8-1l4-2l2 2l4 1l2-2h4l13 5h4l1 3l-1 1l-3 2v9l-2 2l3 7v8l4 7l-3 4l-1 3l21 2l2 1l4 1l24 6h2l-1-2l-2-3l-4-2l-1-3l5 1v-5l8-4v-3l1 3h3l2 1l1-4l2-6l-1-1l-1-1l-2-3l-7-7l-1-1h2l4-1l-5-4l-2 4l-3-3l-2-2l1-2v-2h3l-3-3l-4-3l-14-11l-8-6l-10-8l5-3l3-5l-7-5l-4-13l-2-2l-7-2l-7 2l-12-5l-2-6v-5l-2-3z"/><path id="45037" d="m243 376l4 8l4 2l-1 2h3l1 4l4 1l3 5l-3 9l-1 1h1h1l2 2v1h1l1 1l3 1h1l2 2h1v1h1h1l1 2l1 2l1 1l1 1l1 1l2 1l15-14l1-2l15-14l17-16l13-12l14-13l-15-4l-11-4l-10-5l-3 1l-4-4l-3-3l-5-21h-8l-16 3l-8 3l-22 6l1 6l-1 4l1 2l8 12l-2 1l-7 11l-4 5l2 5z"/><path id="45039" d="m400 174l1 9l2 6l-2 4l5 13l1 4l5 9l1 6l2 6l3 3v6l2 2l3 5h4l4 2l6 7l5-1l10 8l2-5l-3-6l18 1l6-4l5-2l1 1l16-4l12-2l16-3l12-27l-3-2v-5l-2-2h-7l-2-1l-9-10l-4-7l4-4v-11l-26-1l-11-1l-39-3l-37-2l1 1z"/><path id="45041" d="m682 285l9 4l6 6l3 2l6 5l11 4l2 4l-17 10l6 15h9l6 1h2l2-2l2 2h2l8 12h11l4 5l8 3l2-3h6l3-1v3l28 8l6-2h6l2-2l9-4v-2h7l3 3l3 1l2-2v-5l-4-1l-2-3h-5l-4-6v-1l-5-3l2-2l-6-2l-11-9l-2-4l3-3l-3-1l-5-7l2-2l-1-3v-8l-3-6v-7h3l-2-4l1-3h-3l-2-6l-6-6v-3l5-4l1-4l-1-3l-3-7l-8-8l-4-2h-3l-1-1l-4-1l-6 5l-9-2l-5 12h1l-5-1h-3l-3-1l-4 2l-3 3l-11 9l-5 3l-10 8l-3 2z"/><path id="45043" d="m764 472l-1 5l1 3l3 2l7 1l5 4l9 1v3l2-1l1 3l11 5l2-3l2 4l3-1l3 5h2l7 7l11 8l12 2l5 3l-5 6l9-4l2-3l5-4l4-3l2-2l3-8l-2-8v-4l4-18l1-2l1-4l1-7l2-6l8-14l3-6l9-10l3-2l4-9l1-1l-3 1v-1h-17l-1-3l2-4l-6-1l-5-14h-1v-4l-8-8l-12 3l2-2h-6l-2-1l1-4l-2 2l-2-3l1-2l-1-4l-5-7l-5 1l-1 5l-10 11l-3 6l-3 10l-2 7l-2 6l2 5l-1 1l-4 3l-6 6l-2 4l-1 1l-8 5l-2 2l-9 11l-1 5l-6 8l-2 5l-4 2z"/><path id="45045" d="m124 37h-2l3 6l8-3l8-2l7 1l11-3h3v2l-4 1l-1 5l2 3l-1 6l11-2l-1 3l2 4l-3 2l5 3v4l1 6l1 1l5 7l-1 2l1 1v1l1 1v2v1v1l1 1v1l-1 3h1l-1 2l1 2l-1 2l5 5l1 5h1v3v4l-2 1v15l1 2l-2 3l1 3l1-1l1 9l5 7l2 11l6 2l5 6l11 9l16-13v-13l5-15l3-7l4-11l3-8l4-9l-1 1l-3-4v-1v-1h-1h-1v-1v-1h-1v-1l-1-1l-1-1v-1h-1v-1l-1-1h-1v-1h-1h-1v-1l-2-2l-1 1v-6l1-8v-2v-9l1-23v-40h-3l-5-1h-4h-1h-2l-1 1l-3 1h-1l-1 1l-1 1h-1v-1h-1v-1l-1 1l-1-1h-2h-2v1v1l-1 1h-1v-1h-1l-1-1v-1v-1l1-1l-1-1l-1-1v-1l-1-1l-1 1l-2 2h-1l-2 1l-1 2l-1 2l-1 3v1l-1 1h-2h-1v-1v-1v-1l-1-1l-2 1h-1h-1l-1 1h-1l-1 1l-1 1h-1h-1h-2l-1 1l-1 1h-1h-1v-1h-1h-1h-1l-1 1v1h-1h-1v1h-1v1h-1l-1 1h-1l-1-1l-1 1l-1 1l-1-1h-1l-1 1h-1l-1 1l-1 1l-1 1h-1v-1h-1h-1l-1 1l-1 1l-1 1h-2l-1-1v-1h-1h-1v1h-1v1v1v1v1l-1 2h-1h-1h-1l-1 1h-2h-1v1l-1 1l-1 1v1h-1h-1h-1v1l-1 1z"/><path id="45047" d="m212 221l5 5v11l9 8l4 7l1 10v4l-1 5l-4 9l-13 11l5 23l12-12l2 2l3 5l5 3l6 2l4-4l15 2l7-1l-1 8l8-3l4-9l9-10l4-10l12-14l-5-3l-3-5l1-2l-3-1l-2-4l-3-2l-6-5l-1-4l-3-1h-3l-4-4l-5-3l-1-2l-6-5l-6-2l-2 1l-3-5l-4-2h-3l-2-7l-5-5h-1l-3-4h-2l-3-4l-9 8z"/><path id="45049" d="m400 630l3 2h1v-1v1l2 3v1l-1 2v2h-1l1 1h1l1 1v1l-2 1v2l-1 1l-1-1h-1v2l1 2l2 2l1 2h1l1 2l2 2h1v-1h1v2l1 2l8 4h1h3l2-1l4 2l12-12l3-2l40-35l4 6l4 2l2 7l4 1l-1 7l-2 2l1 2l6 2l2 2l3 2l7-10l3-4l4-6l2-1l-4-4l-1-2l-3-11l-6-9l-1-6l-10-10h-2l-4-5l-2-1l-3-8l-6-10l-5-4l-2-6l-4-4l-29 19l-3 3v8l-5 1l-3 3l3 13l-14 12l-2 5l-6 2l-6 4h-3v1h-1v1l-1 1v3l-1 2z"/><path id="45051" d="m836 312l-2 2l6 7l-1 2l6 10l1-1l4 2l1 3l-1 10l3 3l-2 3l2 8l4 5l2 2v2l5 5l1 5l8 8v4h1l5 14l6 1l-2 4l1 3h17v1l3-1l9-11l5-6l4-5l11-11l11-10l8-6l5-4h1l6-4l9-4l18-7l6-1l3-1l-8-8l-8-8l-1-1l-6-6l-2-3l-9-8l-1-2h-1l-11-12l-6-6l-3-3l-9-10l-4-4l-3-3l-5-4l-11-12l-6-6l-16-16l-3 1l-2 4l-7 6v6l-1 1v1l-4 4l-4 6l-4 2l-4 7l1 4l-9 10l1 6l-4 6l-8 4l-2 5l-4 3z"/><path id="45053" d="m431 666l1 2v1v1l-1 1l5 4h1h1h2v1v1h-1l1 1v2l2 1l3 4l2 3h2h1v1l-1 1l-1 1l-1 1v1v1v1h-1v3l3 3l1 1l1 3l1 1v2l-1 1h1l1 2l1 1v1v1l1 1l2 2v1h1v-1l1-1l1 1l1 2v1v1l-1 1l1 1l2 4l1 1v3v1v1l-2 2l-1 1l-2 2l-1 2l-1 2l-1 1h1v1l2 3v1l2 2l1 1l1 2l1 3l1 1l-1 1v1v1h-1l-1 1v1l1 1h1v2v2v1v2l1 4v1h1h2h2v1l1 1l1 1l3 2l1 1l3 1h2h1l3-2l1-1l1-1h1h1l1 1l1 1l1 2l1 1v1l4 1l1 1l3 2l2 3l1 1l1 1h1h2l3 1h2l-2-2l-2-2l5-7h-6l2-8l-6-2l4-3l-7-1l-4 3l-1-4h3l1-7l-10-7l-4-5v-4l5-8l-3-10h5l10 2v-5l2-8h6l3 2l1-6l7-4v-2l3-5h-4v-4l3-8h3v-3l-1-4l-3-8l-1-9l2-9l-3-5l-5-11l-7 10l-3-2l-2-2l-6-2l-1-2l2-2l1-7l-4-1l-2-7l-4-2l-4-6l-40 35l-3 2z"/><path id="45055" d="m514 192l9 10l2 1h7l2 2v5l3 2l-12 27l-3 8l-5 13l-1 1l4 2l6 6l10 9l11 12l6-4l7-1l9-3l-1-3l8 3l21-17l3-3l2-7l3-1l2-4v-13l-1-2l3-2h5l3-3l6 1l-2-7v-2h8l5-5l3-2v-7h-1l-2-2l-2-6h-2l-1-12v-6l-2-3l-4-3v-3l-4-4l-1-6v-3l-2-4l-4-4l-30 14l5 14l-3-1l-1 4l-11-1l-3 2v-3l-4 5v-3l-5 4l-4-4l-2-6h-2l-3 3v4l-6 2l-1-8l2-7h-2z"/><path id="45057" d="m508 50l1 3l4 4l-1 1v1l1 1v1v1v1v1v-1h1v1h1l2 9l-3 6v11l3 3l-5 4l-2 3l5 8l-1 8l3 13l1 3l-6 7l-1 8l1 10l1 3l2 8l-1 2v11l-4 4l4 7l28-21h2l-2 7l1 8l6-2v-4l3-3h2l2 6l4 4l5-4v3l4-5v3l3-2l11 1l1-4l3 1l-5-14l30-14l-6-7l1-4l-6-4l-2-4l-4-3v-4v-1l-6-10l-5-6l-4-8h-12h-1h-4h-1h-5h-2h-9l-10-1h-1h-4v-1l1-3l1-17l1-8l-5-7l-3-4l-4-6l-6-9l-3-4l-4-6v8l1 3z"/><path id="45059" d="m216 185v4l10 9l4 6l3 4h2l3 4h1l5 5l2 7h3l4 2l3 5l2-1l6 2l6 5l1 2l5 3l4 4h3l3 1l1 4l6 5l3-4l5-11l2-10l6-4l4-1l2-5l5-1l6-5l10-16l3-5l4-1l12-20l-7-6l-7 1l-8-4l-10-2l-9-6l-1 1h-1l-2 4l-4-4l-2 1l-1-3h-3l-7-10l-6-3l-6-2l-2-1l-6-4l-4-5h-3l1-3l-2-1l-1-7l-4 1l-2-4l-1 2l-3-7l-3-2l-4 9l-3 8l-4 11l-3 7l-5 15v13z"/><path id="45061" d="m597 265v14l16 7l5 1h12l4 4l2 6l5 1l4 11l4-1l9-2l1 13l4-1l19-13h9l6-10l-6-6l-9-4h-1l-4-5l-8-5l-5-9l9-9l1-8l-2-2l-1-4l-2-4v-1v-3l-6-5l-3-5v-10h-3l-3 7l-8 4l-2-5l-5-2l-2-4l-3 2l-5 5h-8v2l2 7l-6-1l-3 3h-5l-3 2l1 2v13l-2 4l-3 1l-2 7z"/><path id="45063" d="m371 336l-1 2l2 3l3 1l3 7l5 5l7 3l3 1l5 5l2 8l3 3l12 2l11 5l4 3v-1h1l15 9l4 2l21-11l6-2l3-1l11-6l7-2l2-2l5-2l-4-3l-5-2l-10-1l-4 4v5l-5-1l1-8l1-2l2-15v-6l5-2l1-6l-4-3l2-4v-1l-6-10l-2-7l-10-5l-1-3l-2-4l-1-1l-3-3l-3-3l-4-2v-1h-3l-9-3l-9 1l-3-5l-5-6l2-5l-2-6l-5-3l-3 1l-5 4h-6l-7 12l10 13l-1 2l-6-3l-4 1l-5-2l-1 3l-4 10l-9 21z"/><path id="45065" d="m158 303v2l1 2v1h1h1v1h1h-1v1v1v1v1h1l1 1v1l1 1v1v1l1 3h1l2 1h1l1-1h2l3 2l1 1l1 1l1 4h1l2 2l3 3l2 1l1 2l1 1h2l2 2l1 1h1h1l1-1l1 1h1l1 1l1 1h1l1 1l1 2h1h1l3 2h1l2 2l3 2l2 2v1h1l1 1l1 1v1v2v1h1h1l1 1l1 1l1 1l1 1h1v1h1v1h1l2 2v1l1 3l1 1v4v2v2l3 3h1v1l1 2l1 1l2 2v1v1l-1 2l1 4l3 3l1 1l1 1h2h1l1 1l1 2l1 1h1l1 1h1h1l1-1h1l1-1l3-9l-3-5l-4-1l-1-4h-3l1-2l-4-2l-4-8l4-5l-2-5l4-5l7-11l2-1l-8-12l-1-2l1-4l-1-6l22-6l1-8l-7 1l-15-2l-4 4l-6-2l-5-3l-3-5l-2-2l-12 12l-5-23l-10 1h-16l-6-5l-4 2h-6l-6 6z"/><path id="45067" d="m786 260v3l6 6l2 6h3l-1 3l2 4h-3v7l3 6v8l1 3l-2 2l5 7l3 1l-3 3l2 4l11 9l6 2l-2 2l5 3v1l4 6h5l2 3l4 1v5l-2 2v3l2 2l5 7l1 4l-1 2l2 3l2-2l-1 4l2 1h6l-2 2l12-3l-1-5l-5-5v-2l-2-2l-4-5l-2-8l2-3l-3-3l1-10l-1-3l-4-2l-1 1l-6-10l1-2l-6-7l2-2v-4l4-3l2-5l8-4l4-6l-1-6l9-10l-1-4l4-7l4-2l4-6l4-4v-1l1-1v-6l-9-8l-9 8h-5l-4-1l-3-3l-5-2l-2 2l-14-7h-8l-4 1h-2l-8 2l-9 9l-7 1l2 4l1 3l-1 4z"/><path id="45069" d="m712 104l-2 1l2 9l4 3l3 3l5 13l2 3l1 1l5 4l7 3l4 9l-5 1l-6 19l-1 5l4 4l1 3h4l2-3h3l1-5l2 3l5 2l2 2l-3 6l-3-1v5v3l5 5l2 6l3-3l4 2l-2 4l4 2l-4 4l6 9l1 4l4 1l1 1l22-46l16-35l-2-2v-1l-2-1l-2-2l-2-3l-6-6l-3-2l-5-5l-1-1l-15-15l-9-9h-2h-1h-11h-6h-20h-5h-7z"/><path id="45071" d="m293 256l3 2l2 4l3 1l-1 2l3 5l5 3l-2-5l1-3l3-3l5 2l6-1l5 2l3-2l5-1l3-2l5 3h3l4 5l8 2l3 6l5 1l6 5l4 1l1 2l1 1h5l3 2h6l1-3l5 2l4-1l6 3l1-2l-10-13l7-12h6l5-4l3-1l-2-2l6-8l-3-5l-2-2v-6l-3-3l-2-6l-1-6l-5-9l-1-4l-5-13l2-4l-2-6l-4-1l-3 2l-2-1l-4 1l-11 11l-4-5l1-3l-7-5l-6-7l-2 1l-4-3l-12 20l-4 1l-3 5l-10 16l-6 5l-5 1l-2 5l-4 1l-6 4l-2 10l-5 11z"/><path id="45073" d="m0 123v4l1 2v1v1v1h1v1h1v1v1l1 1l1-1l1 1h1v1l1 1v1l1-1h1l1 1v1l2 2l1 1l2 2h1l2 1h1l2 2l1 1v1v1l2 2h2h2l3 1h4h1l1 1v1v2l3 1l1 2l2 3l2 2h1h1l4 5v1v1h1h1h1h1l1 2l-2 2l4 4h1l1-1h1l1 2v1l1 1l2 1h1l6 3h1v-1l1-1l29-32l-3-1v-1l2-2l1 2v-1h2l1-1h-3l3-5l3-3l-3 1l-3-5l1-6l-4-2l2-6l-3-3l-6-1l2-5l2-8l-3-2v-9l-2-9l-1-5l2-3l-2-4l2-4l-4-6l1-3l-5-2l-1-2l5-7v-5l5-5l-22 6l-1 1l-21 7v1l1 1l-1 2v1l-1 1l-2 2v1v1v1h-1v2l1 1v1l-1 1v-1l-1 1v1l-2 2l-2-1l-1 1v1h-1h-1l-1 1l-1 1l-1 1v1l-1 1l-1 1h-1h-1l-1 1v1l1 1l-1 1h-1l-1-1l-1 2l-2-1l-1 1h-1v1v1h-1l-1 1v2h-1v1v1l-1 1h-1h-1l-1 2l1 1v3l-1 1h-1l-1-1h-1l-1-1v1v1l-1 1h-1h-1v1h1v1l-1 1h-2l-2 3l1 4v2v2l-4 4l-2 1z"/><path id="45075" d="m412 434l5 3h9l8 7l5 3h4h3l4 7l6 1l9 6l7 2l6 5l5 1l9 6l5 4l4 2l5 5l5 3l1 2l9 6l2 9l8 6l2-1l59-38l2 3v5l2 6l12 5l7-2l7 2l1-4l2-1l6 4l5-2l8-7l1-10l2-3v-10h4l-1-5l1-8l-4 1l-1-3l-6 3l-1-2l-9 4h-7l-8-4l-9-7v-7h-5l1-2l-3-3h5l-1-6l-4 2l-3-5h-2l-3 5l-6-6h-3l-11 2l-1 1l5 3l-8 10v3l3 4l-4-1l-6 1l-8-10l1-3l-8-6l-16-14l-16-4l-7 4l-4-1l-1-9l-5 5l-4-5l-12-16l-3 1l-6 2l-21 11l-6 6l-25 26z"/><path id="45077" d="m101 152v1l3 1l2-3h-2v1l-1-2zm-16-94l1 2l5 2l-1 3l4 6l-2 4l2 4l-2 3l1 5l2 9v9l3 2l-2 8l-2 5l6 1l3 3l-2 6l4 2l-1 6l3 5l3-1l-3 3l-3 5h3l1-2l10-10l23-14l8-5l22-13l9-5l1-2l-1-2l1-2h-1l1-3v-1l-1-1v-1v-1v-2l-1-1v-1l-1-1l1-2l-5-7l-1-1l-1-6v-4l-5-3l3-2l-2-4l1-3l-11 2l1-6l-2-3l1-5l4-1v-2h-3l-11 3l-7-1l-8 2l-8 3l-3-6l-1 1h-1h-1v-1v-1l1-1v-1h-1v-1h-1h-1l-4 2l-18 6l-5 5v5z"/><path id="45079" d="m417 255l2 2l5 3l2 6l-2 5l5 6l3 5l9-1l9 3h3v1l4 2l3 3l3 3l1 1l2 4l1 3l10 5l2 7l6 10v1l-2 4l4 3l-1 6l4 1l-1 4l3 1v2h4l3 2l2 3l6-1l-1 5l4 1l4-2l3 3l6 2l2 4h2l2 1l5 2v2l5-4l3 4v-4l2 5l3-3l7 3l6-4v3l8 4l3-3l2-8l-4-7l-1-6l-3-3l2-4l2-7l-4-5l3-5l-2-3l3-4l-4-1l-2-8l4-1l5-9l-1-5l-2 1l-4-7l4-4l-9 3l-7 1l-6 4l-11-12l-10-9l-6-6l-4-2l1-1l5-13l3-8l-16 3l-12 2l-16 4l-1-1l-5 2l-6 4l-18-1l3 6l-2 5l-10-8l-5 1l-6-7l-4-2h-4z"/><path id="45081" d="m279 316l16-3h8l5 21l3 3l4 4l3-1l10 5l11 4l15 4l14-13l2-2l1-2l7-17l9-21l4-10h-6l-3-2h-5l-1-1l-1-2l-4-1l-6-5l-5-1l-3-6l-8-2l-4-5h-3l-5-3l-3 2l-5 1l-3 2l-5-2l-6 1l-5-2l-3 3l-1 3l2 5l-12 14l-4 10l-9 10z"/><path id="45083" d="m234 87v6l1-1l2 2v1h1h1v1h1l1 1v1h1v1l1 1l1 1v1h1v1v1h1h1v1v1l3 4l1-1l3 2l3 7l1-2l2 4l4-1l1 7l2 1l-1 3h3l4 5l6 4l2 1l6 2l6 3l7 10h3l1 3l2-1l4 4l2-4l3-13l3-8l8-40l9-11l6-8l-5-5h-4l-4-15l-4-11h-3v-3v-2v-2l-5-12l-2-4l-7-15h-10l-9-1h-7h-8h-2l-8-1h-4h-7h-6l-2-1h-1h-2h-5v40l-1 23v9v2z"/><path id="45085" d="m563 307l2 8l4 1l-3 4l2 3l-3 5l4 5l-2 7l-2 4l3 3l1 6l4 7l-2 8l-3 3l-2 1l3 7l5 7l5 1v3l7 6l7-8l4-10l5 1l1-6l4-1l1 4l-1 3l8-1l-1-8v-5l26-5l2-2l2-2l12-9l13-7h3l16-12l14-8l17-10l-2-4l-11-4l-6-5l-3-2l-6 10h-9l-19 13l-4 1l-1-13l-9 2l-4 1l-4-11l-5-1l-2-6l-4-4h-12l-5-1l-16-7v-14l-21 17l-8-3l1 3l-4 4l4 7l2-1l1 5l-5 9z"/><path id="45087" d="m312 157h1l1-1l9 6l10 2l8 4l7-1l7 6l4 3l2-1l6 7l7 5l-1 3l4 5l11-11l4-1l2 1l3-2l4 1l-1-9l2-10l-1-1l2-16l-6-5l-2-5v-5l-1-7h-4l-1-6l6-4v-5l-5-10l3-2l1-3l-5-6l-7-3l-6 2l-9-5l-5 3l-6-1l-1-5h-4l-4-3h-6l-6 8l-9 11l-8 40l-3 8z"/><path id="45089" d="m676 433l4-3l14 1l2 2l7-1l12 9v2h4l5 6l-2 1l4 3l1 3l9 5l1 3l2-2l3 3l4 6l1 3l4 2h6l7 4l-1-3l1-5l5-6l4-2l2-5l6-8l1-5l9-11l2-2l8-5l1-1l2-4l6-6l4-3l1-1l-2-5l2-6l2-7l3-10l3-6l10-11l1-5l5-1l-2-2v-3l-3-1l-3-3h-7v2l-9 4l-2 2h-6l-6 2l-28-8v-3l-3 1h-6l-2 3l-8-3l-4-5h-11l-8-12h-2l-2-2l-2 2h-2l-9 16l-6 2l-10 11l4 12l-4 4l-6 14l-5 12z"/><path id="45091" d="m390 59l-3 9l4 3v6l-1 3l3 11l2 3l-1 1l-1 3l-3 2h30h32h30h28l2-3l5-4l-3-3v-11l3-6l-2-9h-1v-1h-1v1v-1v-1v-1v-1l-1-1v-1l1-1l-4-4l-1-3l2-4l-1-3v-8h-1l-5-8l-5 4l-6 4l-1 1l-1 1l-6 4l-4 2l-1-2l-2-2v-3v-3l1-3h1v-1h2l1-1v-1v-1l-1-2v-1l-2-2h-1l1-3l1-1l-7-1h-7l-6-1l-21-1h-5h-1h-4l-8-1h-8l-7 7l-1 7l-1 15l-11 1l-5 5z"/></svg>
