<?xml version="1.0" encoding="UTF-8"?><!DOCTYPE svg PUBLIC '-//W3C//DTD SVG 1.1//EN' 'http://www.w3.org/Graphics/SVG/1.1/DTD/svg11.dtd'><svg viewBox="0 0 1000 964.737" xmlns="http://www.w3.org/2000/svg"><path data-id="12001" d="m654.5 178.5l0.1 1.3l0.2 38.9l0 4.4l13 -0.3l0.1 3.9l0 4.8l7.9 0.3l11.8 -1l25.7 0.2l2.9 3.5l-0.4 1.3l-2.6 -2.1l0 5.4l2.4 1.4l5.6 -0.9l0.8 1.3l1.3 -2.5l2.2 0.9l2.3 -1.5l0.2 2.9l0.7 -1.7l3.1 -2l1.9 0.5l0.1 -4.7l0.1 -30l0.8 -6.6l-1.2 -5.2l-3.2 -2.4l0.4 -1.9l-3.9 -1.1l-2 -3.4l0 -2.8l-1.2 -1.9l-5.3 -0.2l-2.2 -1.7l-5.7 0.4l-1.2 -1.1l-4 1.4l-5.4 -2.6l-2.9 -2.9l-5.1 -0.1l-3.1 -1.2l-1 -4.1l-1.6 -1.4l-1 0.2l-3 -1.5l-3 0.8l-1.6 -2l-5.4 -0.8l-2.2 2.9l-1.7 -0.5l-3.1 1.9l0.3 3.2l-2.2 1.1l0.8 3.2l-4.1 2.9l-1.8 -0.3l-0.5 2.4l-2.2 1.2z"/><path data-id="12003" d="m680.6 63.8l0.4 21.6l-0.2 42.4l0 4.3l1.9 -0.2l11.1 -0.2l28.5 -0.6l12.3 0l0 -6.7l0 -13.2l-0.1 -13.6l-1.3 0.3l-1.1 0.2l-1.7 0.1l-1.8 -0.3l-0.9 -1.1l-1.8 0.1l-3.5 0.6l-2 0.5l-1 0.3l-1.9 -1.5l-1.3 -1.1l-1.9 -3.8l-0.8 -3.5l0.1 -1.3l0.7 -1.8l-0.1 -1.1l-0.4 -1.3l0.4 -1.3l0.4 -2.4l-0.7 -1l-0.8 -1l-1.6 -1.4l-0.8 -1.5l-0.1 -1.4l-0.6 -1l-0.1 -1.8l0.5 -1.7l1.2 -1l1.2 -0.6l-4.7 -0.5l-1.1 -0.1l-3.8 -0.3l-11.5 -0.8l-5.8 -0.4l-5.3 -0.4z"/><path data-id="12005" d="m215.7 105.4l-0.2 6.5l9.7 4.7l5.8 3.4l8.8 5.7l4.7 3.4l3.4 3l2.6 2.8l4.4 3.2l5.7 2.9l2.1 0.7l2.5 1.2l2.2 1.4l1.7 0.1l0.9 2.7l1.2 1.7l4 4.7l4.2 3.7l2.8 1.6l2.4 0.5l1.2 -0.3l4.5 1.5l2.7 1.7l2.2 2.1l-0.4 -14.9l0.2 -27.1l0.1 -22.5l0.6 -33.3l-6.7 -0.1l-6.8 0l-0.2 19.9l-48.1 -0.6l-2.2 3.2l-1.8 1.5l-3.1 0.7l-1.8 -1.5l-2.5 1.1l-3.3 -0.3l-2.2 2.8l-1.4 0.4l-0.3 11.8z"/><path data-id="12007" d="m686 164.5l1.6 1.4l1 4.1l3.1 1.2l5.1 0.1l2.9 2.9l5.4 2.6l4 -1.4l1.2 1.1l5.7 -0.4l2.2 1.7l5.3 0.2l1.2 1.9l0 2.8l2 3.4l3.9 1.1l-0.4 1.9l3.2 2.4l0.3 4.5l1.2 -4.4l-0.4 -46.8l0 -13.3l-12.3 0l0.6 2.4l-1.2 2.6l-2.9 1.6l-1 3.7l-1.2 1.6l-2.8 1.8l-2.4 2.8l-4.5 0.9l-1.7 4.4l-4.4 6.5l-2.4 0.1l-2.2 -0.9l-0.7 3l-1.5 1.3l-1.4 -0.3l-2.7 1.5l-3.7 0.4z"/><path data-id="12009" d="m877.3 362l-3 0l3.9 1.7l1.3 2.6l2.2 3.3l-0.5 3.3l4.7 4.6l2.3 0.9l-0.2 1.8l1.5 3l-3.1 0.7l-0.3 2.1l-0.6 2.9l2.4 3.7l-0.7 3.4l3.4 5.7l0.2 14.2l-0.2 23.9l-0.9 1.1l0.1 39l47.3 0.1l2.4 -4.8l4.8 0l1 -0.9l-8.1 -16.4l-4.7 -10.6l-0.5 -1l-2.5 -7l-3.1 -12.3l-1.9 -11.9l-0.3 -4.7l-0.2 -3.3l0.2 -3.8l0.5 -4.1l0.3 -1.1l0.7 -2.9l1.1 -3l1.8 -2.5l1.5 -1.5l4.8 -2.1l0.2 -1.2l-1.4 -2.9l-3.3 -7.8l-0.8 -4.7l-1 -3.4l-1.2 -1.9l-4.3 -5.5l-4 -6.5l-8.2 -11.8l-3 -5.2l-14.6 0l-16.4 0.1l0.5 26.6z"/><path data-id="12011" d="m888.2 699.9l0.2 10.9l0.1 12.7l0.8 28.3l25.4 0.1l0 3.2l31.6 0l1.1 0l7.4 0l6.3 0l2.1 0l2.1 0.1l0 -2l6.4 -0.2l2.3 -0.1l3.1 -0.1l5.3 -0.2l2.3 -0.1l3.2 0l0.8 -1.7l1.1 -14.8l0.6 -1.3l0.5 -7.5l1.6 -12.3l0.5 -2.6l0.7 -2.2l0.6 -8l-2.2 -1.1l-3.6 -0.2l-6.5 0l-4.4 0l-6 -2l-6.2 -2l0 3.1l-76.9 0.1z"/><path data-id="12013" d="m295.4 99.8l-0.1 22.5l36.1 0.1l-0.3 -1.6l2 -0.2l1.4 -2.4l1.4 -0.1l0.6 -3.4l2.3 -1.9l-0.6 -1.2l1.5 -2.5l-0.6 -2.1l1.3 -1.8l1.7 0l-1.6 -1.2l-0.5 -2.5l0.9 -2.4l2 -1.3l-1.6 -1.7l1.8 -0.5l1.5 -2.8l-1.7 -1.7l1.7 -0.5l-2.5 -1.7l2.3 -2.1l4.2 -1.1l-2.2 -2.2l1.6 -1.3l-1.6 -1.1l1.2 -4.9l0.1 -3.1l2.1 -4.3l1.5 -1.6l-0.4 -2.5l2.4 0l0.2 -2.4l1.6 -1.7l-30.9 -0.2l-0.6 6.7l-27.9 -0.4l-0.6 33.3z"/><path data-id="12015" d="m691.7 609.8l3.2 5.6l6.6 9.8l1.7 2l2.3 5.6l3.8 0.5l1.1 0.4l1.5 0.2l0.3 1.9l1.5 0.3l2.7 -0.5l1.3 -0.3l3.7 -1.6l-0.7 -10.1l-2.2 -6.7l-0.3 -2.9l1.8 -1.2l3.3 -0.1l1.7 -2.9l1 -1.3l1.2 -0.5l3.8 -0.1l2 1.2l0.2 1.4l-0.1 1.4l-2.8 0.5l-1.3 3.2l0.3 2.6l3.2 0.9l1 0.8l0.3 2.6l-0.2 3l0.1 2.5l0.4 2.9l-0.8 1.9l0 2.2l17.1 0.7l48 0.1l0.4 -39l-55.3 -0.2l-1.2 0.5l-8.5 -0.1l-2.2 0l-23.8 -0.1l0 12.9l-15.8 -0.1z"/><path data-id="12017" d="m641.7 303.6l-0.5 1.3l2.8 -0.4l0.3 3.3l1.6 3l2 2.6l2.6 4.6l-5.4 8.3l4.2 14l-1.9 5.4l5.7 3.8l21.2 0.1l11.7 0l0.1 4.3l20.4 -0.3l0.4 -2.3l1.5 -2.8l-0.1 -2.4l5 -5.4l2.8 -0.7l0.7 -3.7l2 -1.4l-1.3 -1.6l-0.4 -2.8l-3 -2l-2.2 -2.6l-1.8 -1.2l-0.8 -2.4l-4.1 -3.1l-0.6 -2.1l-2.3 -4l-0.3 -1.6l-1.8 -1.7l-3.9 -4.1l-1 -0.1l-1.1 -0.8l-4.6 -2.2l-1 -1.6l-2.3 0.8l-1.1 -1.2l-4.2 -4l-3.8 -0.1l-2.8 1.6l-3.6 -1.1l-5.4 2.5l-2.2 -0.3l-1.1 2.5l-1.4 0.6l-5.3 -2.1l-3 -0.5l-1.9 -1.2l-2.9 0.5l-2.1 2.4l-3.6 1.9z"/><path data-id="12019" d="m734.6 124.4l0 6.7l0 13.3l0.4 46.8l-0.4 4.3l2.7 0l2.9 -3.2l4.1 -1.2l4.8 -0.1l1.1 -1.3l1 -3.8l1.9 -1.9l6.2 -1l5.3 -4l1.2 -1.5l30.4 -0.6l-2.3 -5.4l-1.2 -6.1l1.2 -3.4l-0.6 -3.7l-2.7 -2.9l-6.1 -3.9l-1.5 -1.4l-1 -4l1.4 -6.7l0 -5.3l-1.6 -3.6l0.2 -4.1l1.4 -2.8l-3.1 0.2l-1 -0.3l-2.9 -0.3l-13.7 0.7l-27.8 0.3z"/><path data-id="12021" d="m761.4 700.4l1.7 5.3l1.6 8.5l0.5 4.3l0.3 5l0.8 3.1l0.9 9.4l5.2 12l1.6 1.1l0.2 5.5l0.5 1.6l1 1.1l0.8 1.5l0.6 3.6l1.2 0.8l3.7 7.3l1.5 1.1l0.7 -1.7l1.2 -4.2l1.2 -1.2l1.3 -0.6l2.8 0.1l1.2 0.5l4.2 2.5l4.5 4l4.3 1.6l5.6 3.2l0.5 2l16.4 0l62 -0.3l0 -25.4l-0.8 -28.3l-0.1 -12.7l-51.1 0.9l-0.4 -38.8l-19.2 0.1l-6.9 0.4l-12.3 0l0.2 13.3l-12.6 0.2l0.1 15.2l-11.6 0.1l-1.1 0l-8.5 0.1l0 -2.1l-3.5 0z"/><path data-id="12023" d="m635.8 163.1l1.1 -0.5l1.5 1.5l1.3 -0.4l-0.5 2.5l0.8 2.2l1.3 -0.3l0.7 2.8l2.2 3l3.3 1.9l2.3 2l4.6 0.6l3.1 -0.5l0.5 -2.4l1.8 0.3l4.1 -2.9l-0.8 -3.2l2.2 -1.1l-0.3 -3.2l3.1 -1.9l1.7 0.5l1.6 -2.3l-0.5 -2.7l-2.9 -0.9l-1.8 -1.7l-0.9 -2.4l0.4 -3l3.7 -1.4l1.3 -5.3l2.2 -3.2l2.7 -2l3.9 -1.2l1.6 -1.3l0.5 -2.8l-0.8 -1.9l0 -4.3l0.2 -42.4l-0.4 -21.6l-8.6 -0.6l-1.5 -0.1l-1.2 -0.1l-1.1 -0.1l-1.6 -0.1l-2.4 -0.2l-13.9 -0.9l-2.3 2l0 1.5l-2.6 2.3l1.6 4.2l-1.7 0.2l1.7 3.8l2.2 4.6l2.1 0.6l0.2 1.5l2 1.2l-0.7 1.4l2.3 2.3l0.7 5.3l-1.4 0.5l-0.6 3.2l-3.2 2.7l0.7 1.5l-1.1 1.5l-1.7 0.1l-1.9 1.7l-0.9 -1.9l-1.8 1.2l-1.1 1.3l-2.1 -2l-3.4 1l-0.8 -2l0.1 53.4l4.4 0l-0.1 3.1l-3.2 1.6l-1.9 3.4z"/><path data-id="12027" d="m733.7 571.1l-0.1 26l8.5 0.1l1.2 -0.5l55.3 0.2l-0.2 -45.4l-38.8 0.1l-25.9 0.3l-0.1 19.3z"/><path data-id="12029" d="m555.4 203.3l1.1 4l0.6 4.2l-0.7 2.6l0 2.6l0.7 6.8l-0.2 1.5l2.3 1.5l0.6 1.4l1.2 0.6l1.8 0l0.9 1.6l2.5 2.1l1 -0.2l1.5 0.2l0.5 1l0.1 1.4l1.6 3.3l3 0.9l1.1 -0.5l3.1 0.4l3 1.9l2.1 3.9l0.2 3.1l1.5 1.6l1.8 2.8l-0.2 2.3l0 2.3l0.9 3.6l2.9 -2.6l1.1 -2.4l2.6 1l2 -1.3l0.8 -1.7l1.1 0.6l3.9 -2.5l-1.5 -0.7l1.2 -1.2l-0.3 -1.6l3.9 -2.3l1.7 -1.7l-0.4 -3.1l3.3 -6.4l2.2 -1.3l0.4 -7l1.6 -0.7l-0.9 -2.9l3.4 -2.2l0.7 -4l0.9 -1.3l-2.3 0.8l-2.2 -3.5l-0.2 -2.4l2.1 -2.2l0.7 -3.5l-1 -1.2l0.9 -5.1l1.7 0.5l-1.4 -3.8l1.5 -2.8l-1.5 -1.5l1.9 -4.8l1.9 -1.3l-2 -2.2l1.9 -2.2l-5.1 -0.2l-47.3 0.4l-0.1 6.7l-2.2 2.7l-1.2 2.6l0.1 2.5l-0.8 4.9l-1.8 2.7l-0.2 1.7l-4.2 -1.2l-1.8 1.1z"/><path data-id="12031" d="m734.6 111.2l0 13.2l27.8 -0.3l13 -0.1l3.6 -0.3l1 0.3l3.1 -0.2l-1.4 2.8l-0.2 4.1l1.6 3.6l3.9 0l3.5 -1.8l5.6 1.1l1.7 1.3l3.8 -0.3l0 2.5l13.8 -0.3l-0.4 -22.3l7.5 -0.1l-0.7 -3.2l-0.8 -4.5l-0.6 -5.6l-0.1 -9.2l-1.3 -3.3l-0.5 -9.2l-2 -2.2l-1.9 -0.1l-0.3 -1.9l-1.1 -1.4l-3.8 -2.2l-2.6 -4.6l-1.9 -0.5l-1.3 1.7l0.3 2.7l-1.2 1.9l-1.7 0.4l-1.6 -3.2l-2.9 1l-1.5 -1.9l0.7 -2.1l-1.2 -0.1l-2.4 1.7l-0.5 -1.2l1.7 -0.8l-1 -1.1l0.5 -1.5l-2.6 -0.2l-3.2 1.4l-2.3 3.8l-0.4 -1.8l-3.7 -1l-3.1 -0.4l-1.8 2l0 2.6l-1.5 1.7l-2.2 -0.6l-0.2 2.5l-2.1 2.3l-1.7 -0.3l-1.9 3.2l-2.9 2.6l-13.7 14.3l-13.4 13.8l-1.5 1.5z"/><path data-id="12033" d="m0.7 18.9l-0.7 1.8l1.2 1.4l-0.1 1.4l1.4 1.1l0.8 1.2l1 0.6l0.5 1.2l1.6 0.9l1.5 1l0.6 1.2l1 0.6l1.2 1.4l1.2 1.3l-0.1 1l1.2 1.5l0.2 1.2l0.4 1.8l1.2 0.8l1.6 0.7l0.9 1.1l1 0.9l1.4 0.3l1 0.5l0.7 1.3l1.1 0.9l1.2 0.5l1 -0.2l1 1l1.5 0.6l1.4 1.3l1.7 0.7l0.2 1.3l0.7 1.4l0.6 1l0.1 1l0.3 2l-0.3 1.2l-0.1 1l-0.1 1.3l-1 0.9l-0.6 3l-0.5 1.6l-0.5 1.2l-1 0.8l-0.6 1.1l-1 0.7l-1.6 3.5l0 1l0 1l0.4 1l1.6 1.7l-0.2 1.6l0.2 1.1l0.2 1.1l2 2.1l1.3 0.6l1 0.4l2 0l1.4 0.5l0.5 1.5l-2 2.1l-1.8 0.8l-0.8 1l-1.5 0.4l-1.3 -0.2l-1 0.8l-0.4 1.2l-0.9 1.3l0.3 1l-1.4 1.8l-0.4 1.5l0.1 2.1l-1.2 1.5l-2.8 1.5l-1.2 0.5l-0.3 1.7l3.7 0l-0.4 1.5l-5.6 1.5l-1.2 1.3l12.9 -2l9.1 -2.4l4.1 -0.7l3.2 -0.9l1.7 0.7l2 0.5l8.1 -0.8l6.7 -1l31.1 -6.5l-0.1 -2.4l-20.3 3.6l-8.6 2.3l-1.7 -0.1l-3.4 2.1l-4.2 -0.8l-2.9 -1.4l-0.1 -3.2l0.8 -2.1l10 -3.3l2.4 -2.9l-0.5 -4.2l1.8 -5.1l-0.1 -2.3l-4.3 -5.3l-1.3 -1l-5.5 -2.1l-3.5 -6.3l-2.9 -2.2l0.9 -1.8l-1.6 -4l-0.1 -5.9l-1 -4.5l-3.9 -0.3l-1.3 -2.4l1.3 -3.9l-1.3 -4l2.5 -4l-1.2 -4.6l-1.5 -0.8l2 -5.1l1.8 -1.2l0.3 -3.4l-0.6 -2.3l2.6 -1.5l1.5 0.5l3.7 -4.5l3 -1.3l5.4 -4.5l-8 0.3l-1.7 0.1l-2.3 -0.3l-1.4 0l-3.1 0l-1.7 0l-1.4 0l-2.9 0l-2.9 0l-1.1 0l-8.1 0l-3.2 0l-1.2 0l-1.1 0l-1.6 0l-5.4 0.1l-3.8 -0.1l-3 0l-3.6 0.1l0.3 1.5l0.5 1.1l-0.1 1.1l0.5 1.3l-0.4 2l-0.6 1.6l-0.8 1.1l-0.7 1.5l-0.4 1.2l-0.5 1.2l-0.2 1.1l-0.8 1.2l0.2 1l-1.2 1.1z"/><path data-id="12035" d="m803.7 210l0.4 18.5l0.8 2.1l3.7 6.1l0.1 3.2l1.2 4.2l3.3 1l2.3 -1.3l1.7 -0.2l0.5 20.9l19.6 -0.3l9.5 -0.2l6 -0.2l-0.3 -12.2l-0.4 -9.7l7.1 -2.5l-2.9 -7.2l-5.2 -12.2l-6.3 -16.9l-2.1 -0.5l-2.6 1.7l-2 -1.1l-2.6 2.4l-2.1 -0.1l-1.6 1.4l-1.9 -1.7l0 4.2l-26.3 0.5z"/><g data-id="12037"><path d="m390 183.9l-1.6 1.7l2.5 1.6l5 -0.8l5.3 -2.3l2.5 -2.5l0 -3.8l-1.6 -0.3l-2.8 2.5l-5.3 3l-4.1 0.9z"/><path d="m317.3 199.8l-0.3 1.7l11 6.6l7.5 2.9l5.1 4.3l5.3 -1.8l7.4 -3.6l9.4 -5l13.1 -5.5l11.1 -10.7l-1.2 -1.7l-6.6 5.5l-6.2 5.5l-13.5 5.2l-14.5 6.9l-7.6 -2.8l-0.6 -5l-3.4 -1.6l-2.8 -4.7l2.6 -0.4l3.9 0l4.6 1.2l5.8 -0.6l2.1 -0.9l1.1 -0.9l0.6 -2.3l2.3 -0.4l1.1 -0.8l2.3 -3.4l0.8 -1.6l1.4 -0.5l1.3 0.2l2.2 1.9l-1.7 2.6l-1.5 3l1.2 2l1.4 -1.7l1.8 -1.3l4.1 -2l1.7 -0.4l8 -4.6l1 0l3.3 -2.8l5 -3.4l1.1 -0.3l1.9 0.4l1.7 -0.8l1.1 -2l4.6 -3.2l1.3 -1.2l3.4 -1.8l5.5 -3.4l3.1 -1l2.3 0.4l3.2 -1.6l2.4 -0.7l1.1 2.3l1.2 1.1l1.4 0.5l2.5 0.3l3.4 1.2l3.9 -0.6l1.7 -2.4l0.3 -1.6l-0.4 -2.9l-0.6 -2.7l-12.6 -2.5l-2 0.9l-2 -4.6l-3.1 2.2l-3 -0.3l-1.3 1.1l0.7 -2l-1.6 -1.9l-1.7 -0.6l-60.9 -0.4l-2.4 6.4l1 3.1l-4.7 6.2l0.3 2.6l1.3 2.6l1.1 6.9l1.5 1l0.1 2.4l-2 2.3l-0.4 1.8l-3.9 -0.7l-1.4 2.4l-4 -1.2l-12.7 9.9l-2.1 3.3z"/></g><path data-id="12039" d="m358.6 58.4l-3.2 2l6.5 0.1l0.1 11.1l8.8 0l0 2.2l4.4 0l0.1 9l8.8 -0.1l0 6.6l4.4 0l0 4.5l4.5 0l-0.2 -1l5.4 -3.3l2 0.7l3 -2.3l1 -1.7l4.3 -0.4l1.3 -1.6l13.1 -1.9l1.6 -1.4l1.4 -1.6l-1 -3.7l2.2 -2.8l-0.4 -1l0.3 -1.1l0.1 -1.3l2.2 -4.9l4.6 -2.3l1.8 -3.8l2.5 -2.1l0.5 -1.2l-0.7 -4.2l1 -1l2 -1.3l-12.2 -0.7l-13 -0.4l-8 -0.6l-9.4 -0.5l-5.1 -0.3l-25.2 -1.3l-3.6 -0.1l0.7 2l-3.9 5.3l-2.7 6.8z"/><path data-id="12041" d="m613.1 209.7l0.2 2.4l2.2 3.5l2.3 -0.8l10.6 0l11 1l2.1 1.1l0.1 2.3l13.2 -0.4l-0.2 -38.9l-0.1 -1.3l-4.6 -0.6l-2.3 -2l-3.3 -1.9l-2.2 -3l-0.7 -2.8l-1.3 0.3l-0.8 -2.2l0.5 -2.5l-1.3 0.4l-1.5 -1.5l-1.1 0.5l-4.1 3l-4.1 0.2l-2.2 3.7l0.6 3.1l-1.9 3.2l-0.4 2.8l-3.6 0.4l-1.9 2.2l2 2.2l-1.9 1.3l-1.9 4.8l1.5 1.5l-1.5 2.8l1.4 3.8l-1.7 -0.5l-0.9 5.1l1 1.2l-0.7 3.5l-2.1 2.2z"/><path data-id="12043" d="m798.6 596.8l-0.4 39l14 0.1l0 -2.2l3.2 0l0 2.1l64.4 0l7.9 -28l1.9 -28.9l-1 -2.1l-1.6 0.7l-2.6 -1.6l0.4 -2.1l-1.4 -0.1l-3.1 -2.4l-2.8 -0.7l-27.3 0.2l0.1 13l-13.1 0.1l0.1 13.1l-38.8 -0.2z"/><path data-id="12045" d="m291.8 176.7l-0.2 2.1l0.5 4.4l2.1 9l2.3 6.4l1.4 2.6l2.2 3.2l0.6 -1.1l3.7 -2.1l3.7 -0.4l4.1 0.4l4.6 0.5l0.3 -1.7l2.1 -3.3l12.7 -9.9l4 1.2l1.4 -2.4l3.9 0.7l0.4 -1.8l2 -2.3l-0.1 -2.4l-1.5 -1l-1.1 -6.9l-1.3 -2.6l-0.3 -2.6l4.7 -6.2l-1 -3.1l-0.5 -2.3l-2.8 -0.6l-0.4 -1.6l-2.4 -0.5l-1.8 -1.5l-3.7 -1.3l-2.8 -3.1l-0.2 -6.5l-2.3 -0.9l1.2 -1.1l-0.5 -1.7l2.5 -1.4l-1.9 -0.6l1.5 -3.4l-0.9 -2.7l0.8 -2.8l2.4 -2.8l-35.2 -0.2l-1.1 27.2l0.4 14.9l3.3 3.8l2.2 4.1l1.4 3.4l1.6 0.6l1 0.9l0.6 1l-0.2 1.6l0.4 1.2l1.2 1l0.2 1.7l-0.6 10.9l-2.3 4.1l-2.2 0.9l-2.2 -0.8l-1.3 -2l-1.6 -6.6l-1.1 -5.3l-0.3 -4.4l0.2 -4.2l0.1 -5l-2.5 1.9l-1 2l-0.4 1.6z"/><path data-id="12047" d="m573.8 56.5l2.1 7l0.1 4.1l-0.6 1l1.8 2l1 3.8l-0.6 6.4l2.4 0.8l1.1 1.9l-0.6 4.9l1.9 1.4l1.5 -0.5l2 1l1.2 3.8l1.7 -2.3l0.4 -2.5l2.7 -0.3l1.6 -2.1l5 -0.8l1.1 1.9l5.5 -0.8l3.5 1.2l0.7 -1l2.5 1.6l2.2 0.2l7.6 5.7l0.3 -1.2l2.2 0.3l-0.6 1.7l1.5 1.5l3.3 1l1.7 2.6l1.6 -0.9l2.8 1.5l1.5 -1.1l0.7 1.1l0.8 2l3.4 -1l2.1 2l1.1 -1.3l1.8 -1.2l0.9 1.9l1.9 -1.7l1.7 -0.1l1.1 -1.5l-0.7 -1.5l3.2 -2.7l0.6 -3.2l1.4 -0.5l-0.7 -5.3l-2.3 -2.3l0.7 -1.4l-2 -1.2l-0.2 -1.5l-2.1 -0.6l-1.3 -4.8l-2.6 -3.6l1.7 -0.2l-1.6 -4.2l2.6 -2.3l0 -1.5l2.3 -2l-1.2 -0.1l-23.5 -1.6l-33.4 -2.2l-3.3 -0.3l-2.4 -0.2l-1.7 -0.1l-11.2 -0.8z"/><path data-id="12049" d="m733.9 506.1l-0.2 45.7l25.9 -0.3l38.8 -0.1l0.1 -45.4l-64.6 0z"/><path data-id="12051" d="m798.2 635.8l0 8.8l0.2 16.1l0.2 12l12.3 0.8l6.9 -0.4l19.2 -0.1l0.4 38.8l51.1 -0.9l-0.2 -10.9l-0.1 -1.5l-0.6 -58.8l0.1 -31.7l-7.9 28l-64.4 0l0 -2.1l-3.2 0l0 2.2l-14 -0.1z"/><path data-id="12053" d="m651.6 385.3l0.7 2.3l-0.4 1.1l5 0l24.6 0l26.2 -0.2l0.2 -6.6l25.9 0.1l0 -6.4l-1.8 -1.5l-3.9 0.9l-1.6 -2.8l-2.8 -0.4l-1 -2.9l-2.4 -1.2l-1.2 1.4l-4.2 -1.7l-2 0.2l-1.3 -2.9l-5.1 -6.6l0.5 -1.7l-2.3 -1.1l1.5 -1.7l-20.4 0.3l-0.1 -4.3l-11.7 0l-21.2 0.1l-0.8 7l1.4 6.1l1.3 2.4l-0.4 3.4l-0.6 2.1l0.7 1.4l-0.8 1.9l-0.9 1.8l-0.1 2.9l0.8 1.8l-1.1 3.6l-1.1 1.1z"/><path data-id="12055" d="m798.5 506.1l-0.1 45.4l0.2 45.4l38.8 0.2l-0.1 -13.1l13.1 -0.1l-0.1 -13l27.3 -0.2l2.8 0.7l-1.5 -2.8l-2.4 1.1l-1.5 -2.1l0.2 -2.2l-1.6 -0.6l-0.8 -1.9l0.1 -4.8l-0.8 -1l-2.7 0l-1.4 -3.9l-1.4 -1.4l1.6 -1.2l0 -2l-2.2 -0.6l0.1 -1.1l-2.4 -1.7l-2.9 -0.2l-1 0.7l-3.5 -2.1l-2.2 -3.4l0.4 -2.6l-2 -3l-1.9 -0.8l-1.9 -3.6l-2.9 -1l0.9 -3l-2.1 -2.8l3.1 -4.1l1.7 -0.2l3 -5l1.7 -1l-0.3 -2.8l0.3 -3.9l-51 -0.5l-4.4 0z"/><path data-id="12057" d="m655.5 427.7l0.1 4.2l0.3 15.8l0 2.7l1 0.5l2 2.5l6.5 4.6l2.9 0.4l1.7 2.7l1 2.4l0.3 4.3l-1.4 1.5l0.4 1.3l1.2 1.1l-0.4 1l-2.6 1.2l-0.1 2.1l5.6 3l2.8 0.8l1.9 0.2l0.9 -3.3l-1.5 -1.5l-1 -1.5l0.1 -4.7l-0.5 -2.9l1.7 -2l2.1 1.1l0.2 1.3l1.1 0.6l1.9 0.7l3.1 0.2l1.5 2.8l0.7 4.6l0.5 2.1l-1.2 3.7l-1 0.3l-1 1.1l-0.1 1.4l-2 2.9l0 1.5l-3 1.8l-2.7 0.9l0.2 1.6l-0.1 1.8l-1.9 0.6l-2.8 2l-1.3 2.2l-1.7 2.7l-2.3 4.1l3.9 0l9.3 -0.1l52.5 -0.1l-0.1 -38.8l-0.1 -2.9l0 -3.8l-0.1 -14.1l0 -9.8l0 -8.7l-6.5 0l-20.2 0l-17.7 0l-2.2 0l-2.9 0l-3.8 -0.1l-1.7 0l-23.3 -0.2z"/><path data-id="12059" d="m210.4 1.2l-0.3 44.2l25.4 0.2l2.9 -5.5l-1.3 -1.8l1.5 -6.2l4.1 0.1l5 0.1l0 2.2l2.2 0.1l-0.1 4.4l15.4 0.4l-0.2 -4l2.2 -4.1l0.4 -5.2l0.7 -4.4l2.5 -6l3.7 -5.1l2.3 -1.1l0.1 -5.4l4.1 -3.5l-10.8 0.1l-22.4 0.2l-18.9 0.3l-13.8 0.1l-4.8 -0.1z"/><path data-id="12061" d="m888.2 480l0.2 13.2l0.9 13.6l12.5 -0.1l0.1 12.5l12.8 0l43.6 0.2l3.6 0l-0.5 -1.8l-0.8 -4.2l-1.8 -2.8l-0.8 -1.8l-0.2 -2.1l-4.2 -14.5l-8.3 -17.8l-1 0.7l-4.8 0l-2.4 4.8l-47.3 -0.1l-1.7 0z"/><path data-id="12063" d="m268.3 21.7l-0.7 4.4l15.5 0.2l-0.1 6.7l6.6 0.1l-0.4 24.6l0.1 8.7l6.7 0.1l27.9 0.4l0.6 -6.7l30.9 0.2l3.2 -2l2.7 -6.8l3.9 -5.3l-0.9 -2l-0.7 -1.6l-1.8 -1.7l-0.5 -1.4l-1.1 -1.3l-1.3 0l-1.1 -1.7l-0.4 -1.6l-1.1 -2.8l-0.3 -1l0 -1.2l-0.9 -1.8l0 -1.1l0 -1l0.4 -1l0.4 -1l-0.7 -1.1l-0.3 -1l0.1 -1l-0.5 -1.2l0.4 -1.4l-1 -0.8l-0.9 -1.4l-0.9 -1.6l-1.4 -1.5l-0.6 -1.7l-1.3 -0.7l-0.3 -1.5l0.4 -1.9l-0.1 -1.1l-0.6 -1l-1.7 -0.6l-1 -1l0.4 -1.5l0.1 -1.6l-3 -0.6l-3.6 0l-12.4 0l-1.1 0l-11.7 0l-32.2 0.6l-1.3 0l-4.1 3.5l-0.1 5.4l-2.3 1.1l-3.7 5.1l-2.5 6z"/><path data-id="12065" d="m468.1 111.2l-0.1 27.1l1.7 -0.9l1.9 -0.3l3.2 0l3.1 1.1l1.2 1.9l-0.1 -1.9l3.1 -6.1l-0.6 -1.5l1.7 -1l1.2 -5.2l2.7 -0.4l1.7 -3.9l0.3 -4.6l1.8 -0.4l2.7 -3.1l3.2 -0.9l2.5 -1.1l2.3 -3.5l0 -1.5l3.6 -0.9l0.8 -1.9l-2.2 -3.3l-0.3 -2.8l1.5 -2.2l5 0.1l0.8 -3.4l3.9 -4.1l-0.9 -3.1l0.1 -5.4l-1.2 -2.6l1.4 -2.3l2.9 0l0 -2.3l4.4 0l0 -2.3l4.4 0l0 -2.3l2.1 0l0.1 -2.2l2.2 0l0 -8.6l-1 -2l-8.2 -0.5l-9.2 -0.5l-8.8 -0.5l-1.4 -0.1l-4.5 -0.3l-3.2 -0.2l-16.8 -1l0 9.6l1.2 5.6l2.5 3.3l0.2 4.3l-8.4 0.1l0 7.4l-4.4 6l-0.1 24.5z"/><path data-id="12067" d="m561.1 124.3l-0.3 45.5l2.4 0l0 10l4.5 -0.1l47.3 -0.4l5.1 0.2l3.6 -0.4l0.4 -2.8l1.9 -3.2l-0.6 -3.1l-2 -2l-1.7 0.3l-2.4 -3.5l0.7 -1.3l-1.3 -4.1l-2.6 -0.1l-1.3 -2.6l-0.4 -2.7l-1.9 -2l-3.4 -0.7l-1.3 -3.2l-3.7 -3.4l-3.3 -1.6l-0.4 -2.4l-5.5 -1.5l-0.7 -2l-2.1 1.1l-3.7 -1.9l-3.2 2.4l-2.1 -1.8l-1.5 0.4l-1.8 -1.5l0.1 -3.3l-1.8 -2.5l0.7 -2.5l-2.1 -2.3l-0.2 -2.5l1.3 -4.1l-1.7 -1.7l0.8 -3.3l-15.8 0l0.1 9l-0.2 2.1z"/><path data-id="12069" d="m747.1 371.2l-0.4 30.9l13.2 -0.1l0 -2.4l8.8 0l0 2.3l17.6 -0.1l0 -19l0 -10.8l0 -1l0 -1.5l1.2 -3.1l-1.2 -1.3l-0.2 -22.1l0 -4l1.6 -2.9l30.5 0.1l-0.3 -5.9l4.5 -4.1l2.1 -4.1l1.9 -2.6l0 -7.4l-2 -1.4l1 -3.2l0.8 -1.2l-2.6 -1.3l-1 -2.3l-1.3 -1.8l-5.3 -3.7l-1.9 -2.7l-1.2 -0.3l0.2 -2.7l-1.6 -2.2l-3 0.5l-1.7 -0.7l-0.3 -3.9l-3.5 -8l-2.9 -1.7l-1 -1.8l-4.2 0.2l-2.8 -1.1l-0.6 -3.3l-1.9 -2.4l-1 -4.8l0.1 16.3l0.3 18.2l-2.7 0l0.1 13.1l-4.9 0l-3 -0.2l-5.6 0l-10.6 0l-14.8 0.2l0.1 18.6l-0.1 39.8l0 2.9z"/><g data-id="12071"><path d="m717.4 646.5l-0.2 2.2l4.2 4.1l1.6 2.5l2 8.5l0.5 2.7l0.9 3l0.8 8.4l1.4 0l3 -1.3l2 -0.2l-1.3 -2.9l-0.1 -2.6l1.2 -2.3l2.3 3.2l3.4 -0.5l0.8 3.5l-0.6 2.1l0.6 1l1.6 -0.1l2.1 0.6l1.5 0.7l0.4 1.7l0.3 1l1 0.8l2.4 1.1l1.9 1.2l1.6 1.4l1.2 1.6l1.9 2.8l2.5 2.7l3 7.1l3.5 0l0 2.1l8.5 -0.1l1.1 0l11.6 -0.1l-0.1 -15.2l12.6 -0.2l-0.2 -13.3l-0.2 -12.8l-0.2 -16.1l0 -8.8l-48 -0.1l-17.2 -0.1l-0.6 4.1l-1.7 3.8l-0.7 2.1l-0.2 2.5l-0.7 2.3l-1.1 1l-2.5 -4.2l-0.9 -1.3l-1.7 -0.5l-1.7 -0.2l-2.9 0.3z"/><path d="m706.3 646.3l-0.5 2.3l0.7 1.4l-0.3 2.7l1.7 3.1l1.3 6.4l2 3.6l1.3 2.7l3 8.3l2 2.3l1 1.3l3.2 1.8l2.9 2.8l3.8 1.7l2 0.4l1 0l1.6 -0.5l6.5 -3.9l-3.2 -0.7l-3.2 -1.9l-1.9 0.6l-1.5 1.6l-4.2 -2.7l-1.5 -0.5l-2.3 -0.1l-2.2 -1.8l-1.5 -1.9l-1.3 -3.7l-1.2 -4.7l-2.3 -6.3l-0.5 -3.5l-2.5 -5.2l-1.2 -3.2l0.6 -1.6l-0.5 -1.8l-1.1 -0.3l-1.2 1.4z"/><path d="m705.4 632.9l0.9 4.8l-0.4 5.4l1.9 0.4l0.4 -6.7l1 -0.5l1.5 -0.7l1.4 0.3l-0.3 -1.9l-1.5 -0.2l-1.1 -0.4l-2.9 -0.5z"/></g><path data-id="12073" d="m384 102.1l1.8 2.1l-1.6 2.9l44 -0.4l12.2 -0.1l4.2 0l1.7 4.4l21.8 0.1l0.1 -24.5l4.4 -6l0 -7.4l8.4 -0.1l-0.2 -4.3l-2.5 -3.3l-1.2 -5.6l0 -9.6l-4.3 -0.3l-2.3 -0.1l-3.5 -0.2l-3.2 -0.2l-2.3 -0.2l-16.4 -0.9l-4.1 -0.2l-2.6 0.8l-0.6 1.5l0.7 4.2l-0.5 1.2l-2.5 2.1l-1.8 3.8l-4.6 2.3l-2.1 4.7l-0.1 1.1l-0.3 1.2l0.2 1l-2.1 3.1l1 3.7l-1.4 1.6l-1.6 1.4l-13.1 1.9l-1.3 1.6l-4 1l-1.3 1.1l-3 2.3l-2 -0.7l-5.4 3.3l0.2 1l-4.3 3.1l-0.7 2.8l-4 2.6z"/><path data-id="12075" d="m587.7 260.4l2.1 -0.2l2.8 1.1l2.7 2.1l2.4 0.4l1.5 1.7l0.3 1.1l-1.7 4.8l1.2 2.9l1.8 1.9l0.5 1.3l-1 3.5l1.5 1l0.5 2.3l3 -0.5l1.5 -1.1l0.1 -1.5l2.9 -4l1.2 -0.3l1 1.2l4.5 0.6l1.7 0l1.3 -0.3l4.7 1.2l3.8 -0.1l4.1 0.6l2.9 1.8l-0.1 2.5l0.9 2.3l-0.3 1.4l-1.1 0.1l-1.9 0.9l0.9 3.4l4.8 0.4l-0.4 1.3l3.1 1.6l0.8 4.2l-0.8 3l-0.6 1l0.5 1l0.7 -1.3l3.6 -1.9l2.1 -2.4l2.9 -0.5l1.9 1.2l3 0.5l5.3 2.1l1.4 -0.6l1.1 -2.5l2.2 0.3l5.4 -2.5l0.1 -25.6l12.5 -0.1l4.8 -0.1l-0.3 -21.9l-0.2 -18.7l-11.8 1l-7.9 -0.3l0 -4.8l-0.1 -3.9l-13 0.3l0 -4.4l-13.2 0.4l-0.1 -2.3l-2.1 -1.1l-11 -1l-10.6 0l-0.9 1.3l-0.7 4l-3.4 2.2l0.9 2.9l-1.6 0.7l-0.4 7l-2.2 1.3l-3.3 6.4l0.4 3.1l-1.7 1.7l-3.9 2.3l0.3 1.6l-1.2 1.2l1.5 0.7l-3.9 2.5l-1.1 -0.6l-0.8 1.7l-2 1.3l-2.6 -1l-1.1 2.4l-2.4 2.8z"/><path data-id="12077" d="m327.5 137.7l-1.2 1.1l2.3 0.9l0.2 6.5l2.8 3.1l3.7 1.3l1.8 1.5l2.4 0.5l0.4 1.6l2.8 0.6l0.5 2.3l2.7 -6l60.6 0l-6.1 -2.8l-2.5 -4.6l-2.1 -0.4l-1.6 -3.2l-2.2 -2.5l0.8 -1.2l-2.9 -3.1l-0.3 -3.4l0.6 -4.8l-1.3 -0.9l-0.5 -4.5l-2.5 -2.2l0.4 -1.9l-5.2 -3.2l1 -3.1l2.2 -2.1l1.6 -2.9l-1.8 -2.1l4 -2.6l0.7 -2.8l4.3 -3.1l-4.5 0l0 -4.5l-4.4 0l0 -6.6l-8.8 0.1l-0.1 -9l-4.4 0l0 -2.2l-8.8 0l-0.1 -11.1l-6.5 -0.1l-1.6 1.7l-0.2 2.4l-2.4 0l0.4 2.5l-1.5 1.6l-2.1 4.3l-0.1 3.1l-1.2 4.9l1.6 1.1l-1.6 1.3l2.2 2.2l-4.2 1.1l-2.3 2.1l2.5 1.7l-1.7 0.5l1.7 1.7l-1.5 2.8l-1.8 0.5l1.6 1.7l-2 1.3l-0.9 2.4l0.5 2.5l1.6 1.2l-1.7 0l-1.3 1.8l0.6 2.1l-1.5 2.5l0.6 1.2l-2.3 1.9l-0.6 3.4l-1.4 0.1l-1.4 2.4l-2 0.2l0.3 1.6l-2.4 2.8l-0.8 2.8l0.9 2.7l-1.5 3.4l1.9 0.6l-2.5 1.4l0.5 1.7z"/><path data-id="12079" d="m501.7 105.1l0 1.5l46.2 -0.1l-0.1 6.7l13.4 0l15.8 0l2.5 -5.9l2.4 -1.9l-0.4 -4.9l1.9 -0.6l0.8 -4l2.8 -1.6l-1.2 -3.8l-2 -1l-1.5 0.5l-1.9 -1.4l0.6 -4.9l-1.1 -1.9l-2.4 -0.8l0.6 -6.4l-1 -3.8l-1.8 -2l0.6 -1l-0.9 -3.3l-1.3 -7.8l-4.9 -0.3l-4.2 -0.3l-2.2 -0.2l-2.9 -0.2l-1.4 -0.1l-5.2 -0.3l-1.4 -0.1l-1.2 -0.1l-6.7 -0.5l-14.7 -0.9l1 2l0 8.6l-2.2 0l-0.1 2.2l-2.1 0l0 2.3l-4.4 0l0 2.3l-4.4 0l0 2.3l-2.9 0l-1.4 2.3l1.2 2.6l-0.1 5.4l0.9 3.1l-3.9 4.1l-0.8 3.4l-4.1 0.5l-2.4 1.6l0.3 2.8l2.2 3.3l-0.8 1.9l-3.6 0.9z"/><path data-id="12081" d="m643 522.1l0.4 1.1l2.4 2.6l1.3 2l0.9 1.9l2.2 6.4l-0.1 1.1l2.2 1.9l4.2 5.1l11 0.1l2 0l1.7 0l1.2 0l9.6 0l1.7 0.4l24.2 0l-0.2 26l25.9 0.4l0.1 -19.3l0.2 -45.7l-52.5 0.1l-9.3 0.1l-3.9 0l-0.5 1l-0.9 3.4l-0.6 1l-1.8 1.9l-1.6 0.3l-2 1.3l0 2.1l-2.6 2.9l-1.8 2.7l-0.6 1.5l-1.5 0l-1.7 0.5l-1.2 1l-0.3 2.4l-2.2 -0.1l-0.7 -3.8l-4.5 -2.4z"/><path data-id="12083" d="m670.7 271.6l-0.1 25.6l3.6 1.1l2.8 -1.6l3.8 0.1l4.2 4l1.1 1.2l2.3 -0.8l1 1.6l4 1.4l0.8 1l1 0.7l4.8 4.1l28.5 0l18.5 0l13.9 0l11.5 -0.2l5.6 0l3 0.2l4.9 0l-0.1 -13.1l2.7 0l-0.3 -18.2l-0.1 -16.3l-1.8 -3.5l-2.3 -1l-1 -2.7l0.7 -2.1l2.5 0.1l-1.6 -5l-9.6 0.1l-0.1 -8.9l-4.3 0.1l-0.2 -8.8l-8.8 0.1l0 -5.2l-2.4 0.9l-6 0.1l-0.4 1.4l-2.9 -1.8l-4.3 1.9l-5.3 0.3l-3.6 1.6l-3.1 3l-0.1 4.7l-1.9 -0.5l-3.1 2l-0.7 1.7l-0.2 -2.9l-2.3 1.5l-2.2 -0.9l-1.3 2.5l-0.8 -1.3l-5.6 0.9l-2.4 -1.4l0 -5.4l2.6 2.1l0.4 -1.3l-2.9 -3.5l-25.7 -0.2l0.2 18.7l0.3 21.9l-4.8 0.1l-12.5 0.1z"/><path data-id="12085" d="m915 583.9l-27.4 24l40.2 0.1l6.6 0l47.7 0.2l3.4 0l0 -2.1l8.2 0.1l-1.9 -7.1l-3 -7.9l-2.9 -5.8l-1.5 -4.7l-1.3 -2.9l-0.3 -4.4l-4.2 -8.4l-0.8 -2l-11.1 -0.1l-0.2 8.5l-6.1 0l-19.7 -0.1l-25.8 0.1l0.1 12.5z"/><g data-id="12086"><path d="m968.6 843.3l1 -0.3l1.2 1.4l6.6 -10.1l3.6 -10.4l0.1 -5.1l-3.2 5.2l-6.5 13.2l-2.7 6.2z"/><path d="m889.3 797.6l0 44l1.4 0l0.6 17.6l0 9.7l1.2 -0.2l1.1 0.2l2.4 0.4l1.3 -1.7l2.3 0.5l1.2 2l4.9 3.1l0.6 -2.4l2.5 -0.3l1.5 2.1l1.3 -0.2l3.4 -2.3l1.8 -2.6l3.3 -0.5l3.8 -1.4l2.9 0l2.5 -0.4l3.5 -0.5l2.7 -2.2l2.2 2.1l1.2 1l-0.8 -1.5l1.8 0.4l-0.9 -2.9l1.5 0.3l4.2 -2.2l4.2 0.6l1 -2.5l2.1 0l0 -2.8l2.1 -2.2l0 -2.6l0.7 -1.7l1.6 -1.5l1.2 -0.3l2.3 -1.3l3.3 -5l0.5 -1.6l-1.8 -1.1l-0.8 -4.5l0.8 -2.1l-1 -0.9l-1.2 -3.3l-0.3 -1.9l0 -3l1.4 -4.8l2 -0.9l1.6 -4.1l-0.5 -1.1l0 -2.6l0.5 -2.9l0.6 -1.3l1.1 -1.2l1.5 -1l1.3 -2.2l0.2 -1l2 -4.3l0.8 -4.2l0.5 -1l1.5 -1.2l4.1 -1.7l1.7 -0.2l1.6 1.1l0.9 1.3l0.2 1l-0.8 1.6l-0.9 3.7l2.1 2.9l1.2 -1.7l-0.2 -1l0.2 -2.9l1.2 -5.5l0.9 -1.4l0.7 -1.7l0.6 -1.5l0.1 -2.8l0.7 -3.9l0.3 -3.4l-0.1 -4.6l0 -1.5l0.4 -4.8l0 -8.7l-4 0.1l-2.3 0.1l-5.3 0.2l-3.1 0.1l-2.3 0.1l-6.4 0.2l0 2l-2.1 -0.1l-2.1 0l-6.3 0l-7.4 0l-1.1 0l-31.6 0l0 -3.2l-25.4 -0.1l0 25.4l0 6.5l0 13.8z"/></g><g data-id="12087"><path d="m916.2 907.8l1.4 1.5l11.3 -8.2l10.4 -10.7l5.7 -6.7l5.5 -4.5l6.4 -7.1l4 -10.3l5.7 -9.7l4.2 -7.6l-0.7 -1.2l-1.2 -0.5l-3.2 5.1l-6.3 4.3l-3.6 0.7l-1.5 -2.4l-0.3 2.1l-2.1 2.2l0 2.8l-2.1 0l-1 2.5l-4.2 -0.6l-4.2 2.2l-1.5 -0.3l0.9 2.9l-1.8 -0.4l0.8 1.5l4.1 -1.3l2.8 2.9l-2.4 4l0 4.3l-1 5.9l-3.7 6.5l-6.3 5.1l-7.1 6.7l-9.2 8.4z"/><path d="m905.3 915.2l2.7 2l3.9 -2.3l2.3 -3.1l-1.2 -2.7l-0.7 -1.4l-0.8 1.5l-3.2 3.8l-3 2.2z"/><path d="m892.2 923l4 0.4l3.2 -1.6l1 -1.7l1 -2.4l-1.6 -0.5l-3.2 1l-2.2 1.9l-2.2 0.8l-0.1 2.1z"/><path d="m856.2 936.9l2.4 2.7l3.9 -0.2l7 -3.9l14.2 -6.1l1 -2.6l-3.8 -1.2l-6.8 3.6l-7 2.4l-5.6 2.7l-5.3 2.5z"/><path d="m811 777.5l5.9 1.4l1.3 1.5l4 1l0.2 4l3.6 3l-0.1 3.7l0.7 2l1.6 -0.4l3.5 -1.5l2.8 2.2l0.1 4.3l2.2 2.9l0.2 3.4l4.1 2.2l1 1.8l0 1.9l0.9 2.2l2.1 1.4l0.6 1.4l-0.7 3.2l0.3 1.7l2.1 2.9l1.6 1.4l1.4 1.7l2.9 8.2l-0.5 1.2l0 1.7l1.2 0.9l1.7 0.1l1.5 3.7l-0.1 1.4l-2 0.3l-1.9 1.5l-0.5 1.2l0.4 1l-0.4 1.8l-0.9 1l-0.4 1.3l-0.8 5.3l-0.3 1.1l-0.1 3.4l2.2 2.1l1.1 2.2l0.6 1.5l0.2 2.8l1 1.1l1.7 0.6l1.1 1l2.3 2.7l1.9 1.2l3.9 -1.4l3.6 -0.2l1.8 0.6l1.4 0.2l3.6 -1.4l1.9 -0.3l1.9 0.2l3.6 -1l2 0.2l0.2 -1.2l-0.2 -2.1l3.2 -1.8l2.3 -0.3l0 -9.7l-0.6 -17.6l-1.4 0l0 -44l0 -13.8l0 -6.5l-62 0.3l-16.4 0z"/><path d="m765.9 957l-0.1 3.4l4.9 -0.7l11.8 -1.2l2.6 -2.1l2.8 -0.2l4.2 -1.5l6.9 -3.5l5.5 -1.7l1.2 -3.1l4 -0.5l4.4 0.4l4.1 -0.6l1.4 3.4l5.1 -1.1l6.6 -2.4l7.3 -2.5l1.9 -1.4l-6.5 -5.3l-1.7 -6.5l-2.6 -1.7l-6.9 -2.2l-8.6 -4.5l-7.2 3l-5 3.9l-4.6 1.4l-1.8 2.8l-11.5 5.4l-9.6 5.7l-2.1 2.6l-5 6.9l-1.6 3.7z"/><path d="m739.1 960.7l-0.2 3.1l5.8 0.9l8 -1.7l3.1 -3.6l1.7 -1.7l-1.6 -1.3l-4.2 1.4l-7.7 2l-5 0.8z"/><path d="m719.5 957.7l-0.1 1.6l6.4 0.5l1.6 -1.7l0.7 -1.6l-0.2 -1.8l-3.2 -1.8l-1.3 0.1l-1 0.5l-1 2.5l-1.8 1.9z"/><path d="m618.3 947.7l-0.2 2.5l5.3 0.6l4.1 -1.9l-2.2 -2.8l-4.8 1.1l-2.2 0.5z"/></g><path data-id="12089" d="m734.5 49.7l0.1 3.2l0.9 1l0.5 1.2l0.2 1.2l1.2 1.8l0.3 1.3l-0.1 1l1.5 0.7l0.6 1.3l0.5 2.6l0.3 2.1l-1 2l-0.7 2.9l-0.1 1.1l0.5 1.7l-0.1 2.7l-0.2 1.2l0 1.4l-0.9 1.8l-0.2 1.5l-0.4 1.6l-1 1.4l0.3 1.6l-0.7 2.1l-0.3 1.7l0.1 1l0.7 1.8l-0.1 1.1l-0.5 1.2l-0.9 1.1l-0.2 13.7l1.5 -1.5l13.4 -13.8l13.7 -14.3l2.9 -2.6l1.9 -3.2l1.7 0.3l2.1 -2.3l0.2 -2.5l2.2 0.6l1.5 -1.7l0 -2.6l1.8 -2l2.2 1.3l4.6 0.1l0.4 1.8l2.3 -3.8l3.2 -1.4l2.6 0.2l-0.5 1.5l1 1.1l-1.7 0.8l0.5 1.2l2.4 -1.7l1.2 0.1l-0.7 2.1l1.5 1.9l2.9 -1l1.6 3.2l1.7 -0.4l1.2 -1.9l-0.3 -2.7l1.3 -1.7l1.9 0.5l2.6 4.6l3.8 2.2l1.1 1.4l1.1 -1.9l-1.1 -5l-0.1 -7l1.6 -10.5l0.5 -4.4l-2.2 -1.8l-2.1 -0.1l-1.7 -0.4l-1.5 -1.6l-3.1 0.2l-1.2 0.1l-1.6 -0.1l-1 1.1l-1.2 0.3l-1 -0.5l-1.2 0.2l-1.3 -0.9l-2 -0.3l-1.9 -0.7l-1.1 1.1l-1.1 -0.2l-0.5 -1.1l-1.1 -0.5l-2.2 0.7l-0.9 -1.3l0 -1l-1.3 -0.6l-1 1l-2.5 -0.2l-0.8 -1.1l-3.3 0.6l-1.6 -0.8l-1.4 -1.5l-0.6 -1.1l-1 -0.3l-1.1 -0.9l-1.2 0.7l-1.3 -0.1l-1.3 -2.3l-1.8 -0.8l-2.6 0.1l-1.8 0.4l-1.6 -1.2l-2.1 0.3l-1.1 -1l-1.9 -2.6l-1.1 -0.9l-1.5 0.9l-1.8 -0.3l-1.3 -0.4l-1.1 -1.1l-2.2 1l-0.4 1.2l0.1 2l-1.6 3.4l-1 0.2l-1 -0.5l-2.1 -1.8l-1.6 0l-0.9 1.3l0.8 1.1l0.8 1.9l-0.8 1.2l-1.4 0.7l-1 0l-0.6 2.1l-0.5 1.2l0.6 1l0.3 2.5l-0.7 2.2l-1.1 2.5z"/><path data-id="12091" d="m110.8 48.4l-0.8 45.6l4.4 -0.6l1.9 -0.2l15.5 -0.7l13.7 1.4l3 0.7l4.6 -0.2l7.7 0.5l1.9 0.3l0.8 -53.6l0.4 -40.5l-2.1 0l-6.5 0l-6 0.1l-1.7 -0.1l-6.6 -0.2l-13.3 0.1l-1.8 0l-1.3 0l-2.4 0l-2.5 -0.3l-2.6 0.1l-5.3 -0.1l-0.9 47.8z"/><path data-id="12093" d="m844.4 523.5l2.1 2.8l-0.9 3l2.9 1l1.9 3.6l1.9 0.8l2 3l-0.4 2.6l2.2 3.4l3.5 2.1l1 -0.7l2.9 0.2l2.4 1.7l-0.1 1.1l2.2 0.6l0 2l-1.6 1.2l1.4 1.4l1.4 3.9l2.7 0l0.8 1l-0.1 4.8l0.8 1.9l1.6 0.6l-0.2 2.2l1.5 2.1l2.4 -1.1l1.5 2.8l3.1 2.4l1.4 0.1l-0.4 2.1l2.6 1.6l1.6 -0.7l1 2.1l-1.9 28.9l27.4 -24l-0.1 -12.5l-0.2 -39.4l-0.1 -12.9l-12.8 0l-0.1 -12.5l-12.5 0.1l-35.4 -0.1l-0.3 3.9l0.3 2.8l-1.7 1l-3 5l-1.7 0.2l-3.1 4.1z"/><path data-id="12095" d="m786 338.9l0 4l0.2 22.1l1.2 1.3l-1.2 3.1l0 1.5l0 1l0 10.8l0 19l22.3 0l3.9 -0.2l5 0l13.2 0l1.3 0l28.3 0l30.5 0.1l-3.4 -5.7l0.7 -3.4l-2.4 -3.7l0.6 -2.9l0.3 -2.1l3.1 -0.7l-1.5 -3l0.2 -1.8l-2.3 -0.9l-4.7 -4.6l0.5 -3.3l-2.2 -3.3l-0.6 -3l-4.6 -1.3l-18.6 0.1l-15.2 0.1l-1 0l-4 0.1l-6 0.1l0 -3.3l0 -1.1l-11.4 -0.1l-4 0l-1.5 -0.1l-0.4 -4.8l0 -6.1l2.3 -0.2l2.5 -3.4l1.1 -7.1l-30.5 -0.1l-1.6 2.9z"/><path data-id="12097" d="m786.2 401.8l0 12.3l13.1 0.8l0.8 1.5l3.6 7.2l0 8.7l7.1 -0.1l1.9 0l0.1 8.7l14.4 0l0 1.4l-2.7 2l0.4 3.6l-1.6 1.2l-0.9 2.6l-1.5 -2.3l-1.6 -0.1l-3.5 -2.1l-1.4 -2.4l-2.1 1.1l0.1 1.8l2.4 0.9l2.1 3.2l1.2 2.1l3.8 -0.8l1.3 3.7l3.5 2.2l1.7 2.1l-0.3 2.7l3.9 1.4l-0.8 3.1l1.2 2.2l0.6 3.6l2.7 0.7l2.9 1.7l3.8 0.5l2.9 3.2l1.6 4.5l3.1 4.6l-0.7 1.1l1.7 1.4l-0.4 2.5l3 2.3l-0.4 2.7l0.6 3.3l1.6 1.2l0 1.8l-1.4 0.9l35.4 0.1l-0.9 -13.6l-0.2 -13.2l1.7 0l-0.1 -39l0.9 -1.1l0.2 -23.9l-0.2 -14.2l-30.5 -0.1l-28.3 0l-1.3 0l-13.2 0l-5 0l-3.9 0.2l-22.3 0z"/><path data-id="12099" d="m887.6 607.9l-0.1 31.7l0.8 58.5l-0.1 1.8l76.8 -0.1l0.1 -3.1l6.2 2l6 2l4.4 0l6.5 0l2.7 0l3.2 1l0.3 -2.1l1.3 -13.4l0.2 -2.7l1.3 -9.5l1.5 -8.8l0.3 -6.3l0 -4.7l0.1 -4.6l0.3 -2.1l0.1 -3.8l-0.6 -7.5l0.7 -2.2l0.1 -2.1l-0.6 -2.6l-1.4 -6.6l-1.4 -5.1l-3 -11.3l-8.2 -0.1l0 2.1l-3.3 0l-47.8 -0.2l-6.6 0l-40.2 -0.1z"/><g data-id="12101"><path d="m636.2 425.5l-1 2.3l14 -0.2l3.5 0l2.8 0l23.3 0.2l1.7 0l3.8 0.1l2.9 0l2.2 0l17.7 0l20.2 0l0 -13.1l6.7 0l0 -8l0 -4.9l0.1 -19.8l-25.9 -0.1l-0.2 6.6l-26.2 0.2l-24.6 0l-5.1 0.1l-2.4 2l-1.2 2.8l0 5l-1.3 3.4l-2 3.1l-0.5 3.7l0.4 1.3l-1.8 4.6l-1.7 1.1l-0.7 1.4l0 3.6l-4.4 4.9z"/><path d="m628.6 421.8l0.1 6l2.7 0.1l-0.4 -5.7l-1.8 -1.1z"/></g><path data-id="12103" d="m628.7 427.9l0 1l1.4 10l2 8.5l-0.1 3.3l-0.3 8.5l-1.2 3.7l-0.9 4l-0.4 3.6l0.3 3.4l0.3 1.3l1.3 2.6l1.1 2.1l1.1 1.3l4 3.3l0.9 1.2l1.7 2.4l1.2 3.4l0.9 1.3l1 0.7l0.8 1.9l0.3 1.7l-0.1 4.2l-0.9 2.7l0.1 2l1.1 4.4l4.2 -1.2l0.9 -2l-1.9 -1.2l-1.2 -2.6l-0.2 -1.1l0.6 -3.1l0.7 -1l2.6 -0.2l1.9 0.8l0.2 -1.7l1.8 0.5l1.4 0.3l1.7 -0.5l0.8 -1l1 -2.4l-0.6 -4l1.1 -3.8l0.8 -1.2l1.2 -1.6l2.7 -2.6l-0.4 -2.8l-0.7 -1.1l-0.5 -2.1l-1.5 -2.4l-2.9 -2.6l-0.3 -1.9l-4.8 -1.4l-1.8 -0.5l-1.2 -0.8l-2.1 -1l-1.3 -1.2l-0.6 -1.8l0.5 -1.1l1.9 -0.6l1.4 -2.8l2.2 -3.1l-1.4 -4.1l2.7 -0.4l2.8 1.5l0 -2.7l-0.3 -15.8l-0.1 -4.2l-2.8 0l-3.5 0l-14 0.2l-0.4 2.6l1.2 0.4l1.1 -0.1l0.5 1.1l0.7 2.6l-0.3 3.2l0.1 7.5l-4.1 -0.1l-2.3 -11.4l-0.4 -5.7l-1.8 0z"/><path data-id="12105" d="m727.1 414.9l0 13.1l6.5 0l0 8.7l0 9.8l0.1 14.1l0 3.8l0.1 2.9l0.1 38.8l64.6 0l4.4 0l51 0.5l1.4 -0.9l0 -1.8l-1.6 -1.2l-0.6 -3.3l0.4 -2.7l-3 -2.3l0.4 -2.5l-1.7 -1.4l0.7 -1.1l-3.1 -4.6l-1.6 -4.5l-2.9 -3.2l-3.8 -0.5l-2.9 -1.7l-2.7 -0.7l-0.6 -3.6l-1.2 -2.2l0.8 -3.1l-3.9 -1.4l0.3 -2.7l-1.7 -2.1l-3.5 -2.2l-1.3 -3.7l-3.8 0.8l-1.2 -2.1l-2.1 -3.2l-2.4 -0.9l-0.1 -1.8l2.1 -1.1l1.4 2.4l3.5 2.1l1.6 0.1l1.5 2.3l0.9 -2.6l1.6 -1.2l-0.4 -3.6l2.7 -2l0 -1.4l-14.4 0l-0.1 -8.7l-1.8 0l-7.2 0.1l0 -8.7l-3.6 -7.2l-0.8 -1.5l-13.1 0l0 -13.1l-17.6 0.1l0 -2.3l-8.8 0l0 2.4l-13.2 0.1l0 5.4l-3.7 0.5l-1.2 -1.9l-3.4 -0.9l-4.6 1.6l0 8l-6.7 0z"/><path data-id="12107" d="m733.9 202.9l-0.1 30l3.1 -3l3.6 -1.6l5.3 -0.3l4.3 -1.9l2.9 1.8l0.4 -1.4l6 -0.1l2.4 -0.9l0 5.2l8.8 -0.1l0.2 8.8l4.3 -0.1l0.1 8.9l9.6 -0.1l1.6 5l-2.5 -0.1l-0.7 2.1l30.9 -8.4l1.6 -2.8l-2.3 1.3l-3.3 -1l-1.2 -4.2l-0.1 -3.2l-3.7 -6.1l-0.8 -2.1l-0.4 -18.5l-0.2 -15l-0.1 -5.7l-2.1 -1.6l-3.3 -5l-1.9 -5.7l-30.4 0.6l-1.2 1.5l-5.3 4l-6.2 1l-1.9 1.9l-1 3.8l-1.1 1.3l-4.8 0.1l-4.1 1.2l-2.9 3.2l-2.7 0l-0.7 7.4z"/><path data-id="12109" d="m781.8 146.3l1 4l1.5 1.4l6.1 3.9l2.7 2.9l0.6 3.7l-1.2 3.4l1.2 6.1l2 4.7l2.2 6.4l3.3 5l2.1 1.6l0.1 5.7l0.2 15l26.3 -0.5l0 -4.2l1.9 1.7l1.6 -1.4l2.1 0.1l2.6 -2.4l2 1.1l2.6 -1.7l1.9 0l-2.1 -6.7l-1.6 -3.7l-2.1 -6.9l-0.7 -4.5l-0.1 -1l-0.1 -3.1l-0.1 -2.5l-0.8 -3.8l-0.8 -2.6l-1.6 -2.2l-0.8 -2l-1.8 -6.2l-6.1 -29.3l-3.2 -13.7l-6.7 0.1l-0.4 22.3l-13.8 0.3l0 -2.5l-3.8 0.3l-1.7 -1.3l-5.6 -1.1l-3.5 1.8l-3.9 0l0 5.3l-1.4 6.7z"/><path data-id="12111" d="m914.7 519.2l0.1 12.9l0.2 39.4l25.8 -0.1l19.7 0.1l6.1 0l0.2 -8.5l11.1 0.1l-3.6 -8.8l-0.9 -2.7l-2.6 -5.7l-1.6 -6l-3.6 -11.8l-1.1 0l-1.4 -3.6l-1.3 -4.9l-3.6 0l-43.6 -0.2z"/><path data-id="12113" d="m42.3 23.6l1.5 0.8l1.2 4.6l-2.5 4l1.3 4l-1.3 3.9l1.3 2.4l3.9 0.3l1 4.5l0.1 5.9l1.6 4l-0.9 1.8l2.9 2.2l3.5 6.3l5.5 2.1l1.3 1l4.3 5.3l0.1 2.3l-1.8 5.1l0.5 4.2l-1.5 2.1l-10.9 4.1l-0.8 2.1l0.1 3.2l2.9 1.4l4.2 0.8l3.4 -2.1l1.7 0.1l8.6 -2.3l20.3 -3.6l0.1 2.4l1.3 -0.3l7.8 -1.3l6.6 -0.8l1 -45.6l0.9 -47.8l-5.9 -0.1l-5.6 0l-2 0l-5.2 0l-9.3 -0.1l-3.8 -0.1l-1.2 0l-2.3 0.1l-1.4 0l-7.2 0l-2.9 0l-2.9 0.1l-5.5 4.5l-3 1.3l-3.7 4.5l-1.5 -0.5l-2.6 1.5l0.6 2.3l-0.3 3.4l-1.8 1.2l-2 5.1z"/><path data-id="12115" d="m656.5 544.2l2.5 4.1l3.5 3.9l2.8 3.9l0.9 1.6l0 2l1.4 2.5l1.8 1.2l0.7 1l3.6 6.8l1.9 4.2l2.7 5.7l1.1 4.1l1.2 2l1.9 5.8l3.5 5.9l2.4 5.3l3.3 5.7l15.8 0.1l0 -12.9l23.8 0.1l2.2 0l0.1 -26l-25.4 -0.2l-0.3 -26.2l-24.2 0l-1.1 0l-10.2 -0.4l-1.2 0l-1.6 0l-2.1 0l-11 -0.1z"/><path data-id="12117" d="m812.2 353l0 4.5l1.9 0.4l4 0l11.4 0.1l0 1.1l0 3.3l6 -0.1l4 -0.1l1 0l15.2 -0.1l18.6 -0.1l-2.6 -3.5l-0.5 -4.8l-1.3 -0.9l0.6 -2.8l-2.4 -2.5l-0.2 -2.3l-3.2 -3.8l1.1 -3.5l-1.9 -5.9l-3.9 -1.3l-1.1 -1.1l-2.7 1.1l0.4 1.1l-1.9 3.4l-2.4 -0.1l-3 1.5l-0.6 -2.3l-1.6 0.8l-2.8 -2.4l-1.3 -3.7l-6.2 -0.2l-6.2 -0.1l-5 -2.1l0.9 -2.1l-1.9 -2.5l-2.1 4.1l-4.5 4.1l0.3 5.9l-1.1 7.1l-2.5 3.4l-2.3 0.2l0 6.1z"/><path data-id="12119" d="m700.1 309.8l1.8 1.7l0.3 1.6l2.3 4l0.6 2.1l4.1 3.1l0.8 2.4l1.8 1.2l2.2 2.6l3 2l0.4 2.8l1.3 1.6l-2 1.4l-0.7 3.7l-2.8 0.7l-5 5.4l0.1 2.4l-1.5 2.8l-0.4 2.3l-1.5 1.7l2.3 1.1l-0.5 1.7l5.1 6.6l1.3 2.9l2 -0.2l4.2 1.7l1.2 -1.4l2.4 1.2l1 2.9l2.8 0.4l1.6 2.8l3.9 -0.9l1.8 1.5l0 6.4l-0.1 19.8l0 4.9l4.6 -1.6l3.4 0.9l1.2 1.9l3.7 -0.5l0 -5.4l0.4 -30.9l0 -2.9l0.1 -39.8l-0.1 -18.6l-18.5 0l-28.5 0z"/><path data-id="12121" d="m577.1 113.1l-0.8 3.3l1.7 1.7l-1.3 4.1l0.2 2.5l2.1 2.3l-0.7 2.5l1.8 2.5l-0.1 3.3l1.8 1.5l1.5 -0.4l2.1 1.8l3.2 -2.4l3.7 1.9l2.1 -1.1l0.7 2l5.5 1.5l0.4 2.4l3.3 1.6l3.7 3.4l1.3 3.2l3.4 0.7l1.9 2l0.4 2.7l1.3 2.6l2.6 0.1l1.3 4.1l-0.7 1.3l2.4 3.5l1.7 -0.3l2 2l2.2 -3.7l4.1 -0.2l4.1 -3l1.9 -3.4l3.2 -1.6l0.1 -3.1l-4.4 0l-0.1 -53.4l-0.7 -1.1l-1.5 1.1l-2.8 -1.5l-1.6 0.9l-1.7 -2.6l-3.3 -1l-1.5 -1.5l0.6 -1.7l-2.2 -0.3l-0.3 1.2l-7.6 -5.7l-2.2 -0.2l-2.5 -1.6l-0.7 1l-3.5 -1.2l-5.5 0.8l-1.1 -1.9l-5 0.8l-1.6 2.1l-2.7 0.3l-0.4 2.5l-1.7 2.3l-2.8 1.6l-0.8 4l-1.9 0.6l0.4 4.9l-2.4 1.9l-2.5 5.9z"/><path data-id="12123" d="m479.1 138.2l0.1 1.9l4.2 2.9l3.5 2.8l0.3 1.1l11.3 6.2l2.2 2.3l5.3 0.9l4.1 2.9l9.3 5.2l3.4 3.7l2.9 2l2.6 6.6l1.8 0.9l1.3 1.3l1.3 2.5l0.5 3l-0.6 1.1l0.2 1.3l0.8 1.2l1.7 1.1l1.4 2.9l1 1.6l1.3 1.4l3.3 1l2.5 1.2l1.3 1.5l0.1 1.2l3.7 2.1l1.4 -0.1l1.1 0l2.8 1l2.2 -0.6l4.2 1.2l0.2 -1.7l1.8 -2.7l0.8 -4.9l-0.1 -2.5l1.2 -2.6l2.2 -2.7l0.1 -6.7l-4.5 0.1l0 -10l-2.4 0l0.3 -45.5l0.2 -2.1l-0.1 -9l-13.4 0l0.1 -6.7l-46.2 0.1l-2.3 3.5l-2.5 1.1l-3.2 0.9l-2.7 3.1l-1.8 0.4l-0.3 4.6l-1.7 3.9l-2.7 0.4l-1.2 5.2l-1.7 1l0.6 1.5l-3.1 6.1z"/><path data-id="12125" d="m665.7 151.2l-0.4 3l0.9 2.4l1.8 1.7l2.9 0.9l0.5 2.7l6 0.2l1.6 2l3 -0.8l3 1.5l1 -0.2l3.7 -0.4l2.7 -1.5l1.4 0.3l1.5 -1.3l0.7 -3l2.2 0.9l2.4 -0.1l4.4 -6.5l1.7 -4.4l4.5 -0.9l2.4 -2.8l2.8 -1.8l1.2 -1.6l1 -3.7l2.9 -1.6l1.2 -2.6l-0.6 -2.4l-28.5 0.6l-11.1 0.2l-1.9 0.2l0.8 1.9l-0.5 2.8l-1.6 1.3l-3.9 1.2l-2.7 2l-2.2 3.2l-1.3 5.3l-3.7 1.4z"/><path data-id="12127" d="m783.1 255l1 2.7l2.3 1l1.8 3.5l1 4.8l1.9 2.4l0.6 3.3l2.8 1.1l4.2 -0.2l1 1.8l2.9 1.7l3.5 8l0.3 3.9l1.7 0.7l3 -0.5l1.6 2.2l-0.2 2.7l1.2 0.3l1.9 2.7l5.3 3.7l1.3 1.8l1 2.3l2.6 1.3l-0.8 1.2l-1 3.2l2 1.4l0 7.4l-1.9 2.6l1.9 2.5l-0.9 2.1l5 2.1l6.2 0.1l6.2 0.2l1.3 3.7l2.8 2.4l1.6 -0.8l0.6 2.3l3 -1.5l2.4 0.1l1.9 -3.4l-0.4 -1.1l2.7 -1.1l1.1 1.1l3.9 1.3l1.9 5.9l-1.1 3.5l3.2 3.8l0.2 2.3l2.4 2.5l-0.6 2.8l1.3 0.9l1.3 4.1l1.8 4.2l3 0l-0.5 -26.6l16.4 -0.1l14.6 0l-7.2 -12.6l-10.5 -17.8l-1.5 -2.6l-2 -3.9l-1.8 -4.2l-4.9 -7l-2.4 -4.7l-1.2 -2.5l-1.3 -2.9l-8.6 -19.6l-1.6 -4l-1.5 -3.8l-4.1 -10.3l-6.2 1.6l-0.5 10.6l0.3 12.2l-6 0.2l-9.5 0.2l-19.6 0.3l-0.5 -20.9l-1.7 0.2l-1.6 2.8l-30.9 8.4z"/><path data-id="12129" d="m382.1 109.3l-1 3.1l5.2 3.2l-0.4 1.9l2.5 2.2l0.5 4.5l1.3 0.9l-0.6 4.8l0.3 3.4l2.9 3.1l-0.8 1.2l2.2 2.5l1.6 3.2l2.1 0.4l2.5 4.6l6.1 2.8l1.7 0.6l1.6 1.9l-0.7 2l1.3 -1.1l3 0.3l3.1 -2.2l2 4.6l1.1 -1.6l13.5 3.2l-0.2 -2.2l-0.6 -1.4l-1.6 -0.1l-0.8 -3.7l3.8 -3.6l5.2 -3.8l1.1 0l1.7 -0.5l0.8 -1.2l0.1 -1.1l-0.5 -1.2l0.2 -1.4l2.1 -1.7l1.2 0.4l0.2 1.2l1.1 1.1l3.8 0.1l1.2 -0.5l2.5 2.2l1.5 0.3l1.4 -0.2l2.8 -1.6l1.4 -1.2l1.5 0.8l1.5 -1.2l1.1 -0.2l1 0.4l1.4 -0.5l0.1 -27.1l-21.8 -0.1l-1.7 -4.4l-4.2 0l-11.7 0l-44.5 0.5l-2.2 2.1z"/><path data-id="12131" d="m163.5 41.5l-0.8 53.6l4.4 0.6l8.6 1.7l10 3l17.4 6.1l11.8 5l0.7 -6.3l0.3 -11.8l0.8 -5.2l3 -2.5l4 -0.8l2.2 1l2 -0.8l1.6 -4.2l1.5 0.7l2.4 -3.6l-1.1 -2.5l-1.6 0.2l-0.8 -2.3l0.9 -5.5l-1.1 -0.5l-0.9 -4.1l-2.7 -1.6l1 -2.6l-0.9 -3.5l3.2 -3l3.1 -1l-1.1 -2.5l4.1 -3.6l-25.4 -0.2l0.3 -44.2l-2.3 0l-8.5 0l-6 -0.1l-1.6 0l-1.6 0l-6.7 0l-2.4 0.1l-4.3 0l-2 0l-7.9 -0.1l-1.3 0l-1.8 0l-0.4 40.5z"/><path data-id="12133" d="m216.8 88.3l-0.8 5.2l1.4 -0.4l2.2 -2.8l3.3 0.3l2.5 -1.1l1.8 1.5l3.1 -0.7l1.8 -1.5l2.2 -3.2l48.1 0.6l0.2 -19.9l6.8 0l-0.1 -8.7l0.4 -24.6l-6.6 -0.1l0.1 -6.7l-15.5 -0.2l-0.4 5.2l-2.2 4.1l0.2 4l-15.4 -0.4l0.1 -4.4l-2.2 -0.1l0 -2.2l-5 -0.1l-4.1 -0.1l-1.5 6.2l1.3 1.8l-2.9 5.5l-4.1 3.6l1.1 2.5l-3.1 1l-3.2 3l0.9 3.5l-1 2.6l2.7 1.6l0.9 4.1l1.1 0.5l-0.9 5.5l0.8 2.3l1.6 -0.2l1.1 2.5l-2.4 3.6l-1.5 -0.7l-1.6 4.2l-2 0.8l-2.2 -1l-4 0.8l-3 2.5z"/></svg>
