<?xml version="1.0" encoding="UTF-8"?><!DOCTYPE svg PUBLIC '-//W3C//DTD SVG 1.1//EN' 'http://www.w3.org/Graphics/SVG/1.1/DTD/svg11.dtd'><svg viewBox="0 0 1000 964.737" xmlns="http://www.w3.org/2000/svg"><path id="12001" d="m654 179l1 1v39v4h13v4v5h8l12-1h25l3 3v2l-3-2v5l3 1h5l1 1l1-3l3 1l2-1v3l1-2l3-2l2 1v-5v-30l1-7h-1l-1-5l-3-2l1-2l-4-1l-2-4v-2l-1-2h-6l-2-2h-6l-1-1l-4 2l-5-3l-3-3h-5l-3-1l-1-4l-2-2l-1 1l-3-2l-3 1l-2-2l-5-1l-1 1l-1 2h-2l-3 2v3l-2 1l1 3l-4 3h-2v2l-3 1z"/><path id="12003" d="m681 64v21v43v4h2h11l28-1h13v-7v-13v-13h-2h-1h-2h-1l-1-1h-1h-1h-4l-2 1h-1l-2-1v-1h-1v-1l-2-3l-1-4v-1l1-1v-1v-1v-1v-2h1v-2l-1-1l-1-1l-1-1l-1-1v-1v-1l-1-1v-1v-1l1-2v-1h1l1-1h-5h-1l-4-1h-11l-6-1z"/><path id="12005" d="m216 105v7l9 5l6 3l9 6l5 3l3 3l3 3l4 3l6 3l2 1l2 1l2 1h2l1 3l1 2l4 4l5 4l2 2h3h1l5 1l2 2l2 2v-15v-27v-22l1-34h-7h-6l-1 20h-48l-2 3l-2 1l-3 1l-2-2l-2 2l-3-1l-3 3l-1 1z"/><path id="12007" d="m686 164l2 2l1 4l3 1h5l3 3l5 3l4-2l1 1h6l2 2h6l1 2v2l2 4l4 1l-1 2l3 2l1 5l1-1v-4v-47v-13h-13l1 2l-1 3l-3 2l-1 3l-1 2l-3 2l-3 3l-4 1l-2 4l-4 6l-3 1l-2-1l-1 3l-1 1h-2l-2 1z"/><path id="12009" d="m877 362h-3l4 2l1-1l1 3l2 3l-1 4l5 4l2 1v2l2 3l-4 1v2v3l2 4l-1 3l4 6v14v24l-1 1v39h47l3-5h4l1-1l-8-16l-4-11l-1-1l-2-7l-3-12l-2-12l-1-5v-3v-4l1-4v-1l1-3l1-3l2-2l1-2l5-2v-1l-1-3l-4-8v-4l-1-4l-2-2l-4-5l-4-7l-8-12l-3-5h-15h-16z"/><path id="12011" d="m888 700v11l1 12v1v28h26v3h31h1h8h6h2h2v-2h7h2h3h5h3h3l1-1v-1l1-15v-1l1-8l1-12l1-3l1-2v-8l-2-1h-1h-3h-6h-5l-6-2l-6-2v3z"/><path id="12013" d="m295 100v22h1h35v-1h2l1-3h2v-3l3-2l-1-1l2-3l-1-2l1-2h2l-2-1v-2l1-3l2-1l-2-2h2l2-3l-2-2h2l-3-2l3-2l4-1l-2-3l1-1l-1-1l1-5v-3l2-4l2-2l-1-3h3v-2l1-2h-31v7l-28-1z"/><path id="12015" d="m692 610l3 5l6 10l2 2l2 6h1h3l1 1h2v2h2h2l2-1v-1h3l1-1l-1-9l-3-7v-3l1-1h1h3l2-3l1-1l1-1h4l2 1v2v1h-1h-2l-1 1v3v2l3 1l1 1l1 3l-1 3v2l1 3l-1 2v2v1h17h48l1-39h-56h-1h-8h-3h-23l-1 13z"/><path id="12017" d="m642 304l-1 1h3v3l2 3l2 3h1l1 4l-5 8l4 14l-2 6l6 4h21h12v4h20l1-2l1-3v-3l5-5l3-1l1-4l2-1l-1-2l-1-2l-3-2l-2-3l-2-1l-1-3l-4-3v-2l-3-4v-1l-2-2l-4-4h-1v-1h-1h-1v-1l-4-1l-1-2l-2 1l-1-1l-4-4h-4l-3 1l-3-1l-6 3l-2-1l-1 3h-1l-6-2h-3l-2-1h-3l-2 3z"/><path id="12019" d="m735 124v7v13v47v4h2l3-3l4-1h5l1-1l1-4l2-2l6-1l6-4l1-1l30-1v-1l-2-4l-1-6l1-4l-1-4l-3-2l-6-4l-1-2l-1-4l1-6v-6l-1-3v-4l1-3h-3h-1l-3-1l-1 1h-13z"/><path id="12021" d="m761 700l1 1l1 5l2 8v4v5l1 3l1 10l5 12l1 1h1v1v5l1 1l1 1v2l1 3l1 1l1 1l3 6l1 1l1-1l1-4l2-2h1h3h1l4 3l5 4l4 1l6 4v2h16l62-1v-25v-28v-1l-1-12l-51 1v-39h-19h-7h-13l1 14h-13v15h-12h-1h-8v-2z"/><path id="12023" d="m636 163h1l1 1h2l-1 2l1 2h1l1 3l2 3l4 2l2 2l4 1h1l3-1v-2h2l4-3l-1-3l2-1v-3l3-2h2l1-2v-3l-3-1l-2-1l-1-3l1-3l3-1l2-6l2-3l3-2l4-1l1-1l1-3l-1-2v-4v-43v-21l-9-1h-1h-2h-1h-1h-1h-2l-14-1l-2 2v1l-2 3l1 4h-2l2 4h1l1 5h2l1 2l2 1l-1 1l2 2l1 6h-1l-1 3l-3 3v2l-1 1h-1l-2 2l-1-2l-2 1l-1 1l-2-2l-4 1v-1v53h4v3l-3 2z"/><path id="12027" d="m734 571v26h8h1h56l-1-46l-38 1h-26z"/><path id="12029" d="m555 203l1 4l1 4l-1 3v3l1 7v1v1l2 1l1 1l1 1h2l1 1l2 2h1h2v1v2l2 3l3 1l1-1l3 1l3 2l2 3v4l2 1l1 3v2v3l1 3h1l2-2l1-3l3 1l2-1l1-2l1 1l4-3h-2l1-2v-1l4-3l2-1l-1-3l3-7l3-1v-7l2-1l-1-3l3-2l1-4l1-1l-2 1l-3-4v-2l2-2l1-4l-1-1l1-5h2l-2-4l2-2l-2-2l2-5l2-1l-2-2l2-3h-5l-47 1v6l-3 3l-1 3v2l-1 5l-1 3l-1 1l-4-1z"/><path id="12031" d="m735 111v13h27h13l1-1l3 1h1h3l-1 3v4l1 3h4l4-2l5 2l2 1h4v2h14l-1-23h1h7l-1-3l-1-4l-1-6v-9l-1-3v-10l-2-2h-2l-1-1v-1l-1-1l-4-2l-2-5l-2-1l-1 2v3l-1 2h-2l-1-3l-3 1l-2-2l1-2h-1l-3 1v-1l2-1l-1-1v-1l-3-1l-3 2l-2 4v-2l-4-1l-1 1l-2-1l-2 2v2l-2 2l-2-1v3l-2 2h-2l-2 3l-3 3l-13 14l-14 14z"/><path id="12033" d="m1 19l-1 2l1 1v1v1l1 1h1v1h1v1l1 1h1l1 1l1 1v1h1l1 1l1 1l1 1v1v1l1 1v1v1l2 1l1 1l1 1v1h1h1l1 1l1 1h1v1h1h1l1 1l1 1h1l1 1h1l1 1v1l1 2v1v1l1 2v1h-1v1h1l-1 1v1h-1v3l-1 1v1h-1h1v1h-1h-1v1v1h-1l-1 4v1v1v1h1l1 1v1v1l-1 1h1v1l1 1l1 1h1v1h1h1h1l2 1v1v1l-2 1v1h-2v1h-1v1h-1l-1-1l-1 1l-1 1v1l-1 1h1v1l-1 1h-1v1v1v2l-1 2h-1l-2 1l-1 1h-1l1 1l1 1l2-1v2l-5 1l-2 2l13-2l9-3l4-1h4h1l2 1l8-1l7-1l31-7v-2l-20 4l-9 2h-2l-3 2l-4-1l-3-1v-4v-2l10-3l1-1l2-2l-1-4l2-5v-2l-4-6l-2-1l-5-2l-4-6l-3-2l1-2l-1-4v-6l-1-5h-4l-2-2l2-4l-2-4l3-4l-1-5h-2l2-6l2-1v-3v-2l2-2l2 1l4-5l3-1l5-5l-8 1h-1h-1l-2-1h-1h-3h-1h-1h-2h-2h-3h-1h-1h-7h-1h-3h-1h-1h-1h-1l-5 1l-4-1h-3l-3 1v1v1h1l-1 1h1v1v1v2l-1 1v1h-1v2l-1 1v1v1h-1v1v1v1h-1v1z"/><path id="12035" d="m804 210v18l1 3l4 6v3l1 4l3 1l3-1h1l1 21l19-1h10h6v-12l-1-10l1-1l6-1l-3-8l-5-12l-6-17h-2l-3 1l-2-1l-2 3h-3l-1 1l-2-2v5z"/><path id="12037" d="m390 184l-2 2l3 1l5-1l5-2l3-2v-4h-2l-3 2l-5 3zm-73 16v2l11 6l7 3l6 4l5-1l7-4l10-5l13-6l11-10l-1-2l-7 6l-6 5l-14 5l-14 7l-8-3v-5l-4-1l-2-5l2-1h4l5 2l5-1l3-1l1-1v-2l3-1h1l2-4l1-1l1-1h1l3 2l-2 3l-2 3l2 2l1-2l2-1l4-2l2-1l8-4h1l3-3l5-3l1-1l2 1l2-1v-1l1-1l4-3l2-1l3-2l6-4l3-1l2 1l3-2h3l1 2l1 1l1 1h3l3 1l4-1h1l1-2v-2v-2l-1-1v-2l-12-3h-1l-1 1l-2-5l-4 3l-3-1l-1 2l1-2l-2-2l-2-1h-60l-3 6l1 3l-5 6l1 3l1 3l1 7l2 1v2l-2 2l-1 2l-3-1l-2 3l-4-1l-13 10z"/><path id="12039" d="m359 58l-4 2l7 1v11h9v2h4v9h9v6h5v5h4v-1l5-4l2 1l3-2l1-2v1l4-1l2-2l13-2l1-1l2-2l-1-4l2-2v-1v-1v-1v-1l2-5l5-2l2-4l2-2l1-1l-1-4l1-1l-1-1l3-1h-12h-1l-12-1h-8h-1l-9-1h-5l-25-2h-4l1 2l-4 6z"/><path id="12041" d="m613 210v2l3 4l2-1h10l11 1l3 1v2h13v-39l-1-1l-4-1l-2-2l-4-2l-2-3l-1-3h-1l-1-2l1-2h-2l-1-1h-1l-4 3h-4l-3 4l1 3l-2 3v3h-4l-2 3l2 2l-2 1l-2 5l2 2l-2 2l2 4h-2l-1 5l1 1l-1 4z"/><path id="12043" d="m799 597l-1 39h14v-2h3v2h65l8-28l2-29l-1-2l-2 1l-3-2l1-2h-2l-3-3h-2h-28v13h-13v13z"/><path id="12045" d="m292 177v2v4l2 9l3 6l1 3l2 3l1-1l4-2h3h4l5 1v-2l2-3l13-10l4 1l2-3l3 1l1-2l2-2v-2l-2-1l-1-7l-1-3l-1-3l5-6l-1-3v-2l-3-1l-1-1l-2-1l-2-1l-3-2l-3-3v-6l-3-1l1-1v-2l2-1l-2-1l2-3l-1-3l1-3l2-3h-35h-1v27v15l1 1l3 3l2 4l1 4h1h1l1 1v1v2l1 1l1 1v2l-1 10l-2 5l-2 1l-2-1l-2-2l-1-7l-1-5l-1-5l1-4v-5l-3 2l-1 2z"/><path id="12047" d="m574 56l2 7l-1 1l1 4l-1 1l2 2l1 3v7l2 1l1 1l-1 5l2 2l2-1l2 1l1 4l2-2v-3h3l2-2l5-1l1 2l5-1l4 1v-1l3 2h2l8 6v-1h2v2l1 1l3 1l2 3l2-1l2 2l2-2l1 2v1l4-1l2 2l1-1l2-1l1 2l2-2h1l1-1v-2l3-3l1-3h1l-1-6l-2-2l1-1l-2-1l-1-2h-2l-1-5h-1l-2-4h2l-1-4l2-3v-1l2-2h-1l-23-2l-34-2l-3-1h-1h-1h-2z"/><path id="12049" d="m734 506v46h26l38-1v-45z"/><path id="12051" d="m798 636v9v16v12h13h7h19v39l51-1v-11v-2v-58v-32l-8 28h-65v-2h-3v2z"/><path id="12053" d="m652 385v3v1h5h25h26v-7h26v-6l-2-2l-4 1l-1-3h-3l-1-3l-2-1l-2 1l-4-1h-2l-1-3l-5-7v-1l-2-2l1-1h-20v-4h-12h-21l-1 7l2 6l1 2v4l-1 2l1 1l-1 2l-1 1v1v3l1 2l-1 3z"/><path id="12055" d="m798 506v45l1 46h38v-13h13v-13h28h2l-1-2l-3 1l-1-2v-3h-1l-1-2v-5l-1-1h-3l-1-4l-1-1l1-1v-2l-2-1v-1l-2-2h-3l-1 1l-4-2l-2-4v-2l-2-3l-2-1l-2-4l-2-1l1-3l-3-2l4-5h1l3-5l2-1v-3v-3l-51-1z"/><path id="12057" d="m655 428l1 4v16v3h1l2 3l6 4h3l2 3l1 3v4v1h-1v1v1l1 1v1l-1 1h-2v2l6 3l3 1h2v-3v-1l-1-1l-1-1v-5v-3l1-2l2 1l1 1v1h1l2 1h3l1 3l1 5v2l-1 3l-1 1l-1 1v1l-2 3v1v1l-3 1l-3 1v1v1v1v1h-2l-3 2l-1 2l-2 3l-2 4h4h9h53v-39v-3v-3v-15v-9v-9h-7h-20h-18h-2h-3h-4h-1z"/><path id="12059" d="m210 1v44l25 1l3-6l-1-2l1-6h5h5v3h2v4h15v-4l2-4l1-5v-4l3-6l4-5l2-2v-5l4-3h-11h-22h-19h-14z"/><path id="12061" d="m888 480v13l1 14h13v12h13h43h4l-1-1v-5l-2-2l-1-2v-2l-4-15l-9-18l-1 1h-4l-3 5h-47z"/><path id="12063" d="m268 22v4h15v7h7l-1 25v8h7l28 1v-7h31l4-2l2-6l4-6l-1-2v-1l-1-1l-1-1l-1-1l-1-2h-1h-1v-1l-1-1v-1v-1l-1-2v-1v-1v-1l-1-1v-1v-1v-1h1v-1v-1h-1v-1v-1v-1v-1v-1h-1v-1l-1-1v-1l-1-1l-1-1v-1l-1-1l-1-1v-1v-1v-1v-1v-1h-1h-1l-1-1v-1v-1v-1v-1h-3h-1h-2h-1h-12h-1h-12l-32 1h-1l-4 3v5l-2 2l-4 5z"/><path id="12065" d="m468 111v27l2-1h2h3l3 1l1 2v-2l3-6v-1l1-1l1-6h3l2-4v-4l2-1l3-3l3-1l2-1l3-3v-2l3-1l1-2l-2-3l-1-3l2-2l1 1l4-1l1-3l4-4l-1-3v-6l-1-3l1-2h3v-2h4v-2h5v-3h2v-2h2v-8l-1-2l-8-1l-9-1h-9h-1h-5l-3-1l-17-1v10l1 6l3 3v4h-8v8l-5 6z"/><path id="12067" d="m561 124v46h2v10h5l47-1h5h4v-3l2-3l-1-3l-2-2h-1l-3-3l1-2l-1-4h-3l-1-2l-1-3l-1-2l-4-1l-1-3l-4-4l-3-1l-1-3l-5-1l-1-2l-2 1l-4-2l-3 2l-2-1h-1l-2-1v-4l-2-2l1-3l-2-2v-3l1-4l-2-2l1-3h-16v9z"/><path id="12069" d="m747 371v31h13v-2h9v2h17v-19v-11v-1v-2l1-3l-1-1v-22v-4l2-3h30v-6l4-4l2-4l2-3v-7l-2-1l1-4l1-1l-3-1l-1-2l-1-2l-5-4l-2-2l-1-1v-2l-2-3l-3 1l-1-1l-1-4l-3-8l-3-1l-1-2h-4l-3-1l-1-4l-2-2l-1-5v16l1 19h-3v13h-5h-3h-6h-10h-1h-14v18v40z"/><path id="12071" d="m717 647v2l4 4l2 2l2 9v2l1 3l1 9h2l3-1l2-1l-2-2v-3l1-2v-1l3 4l3-1l1 4l-1 2l1 1h1h3l1 1l1 2h-1l1 1h1l2 2l2 1l2 1l1 2v1l2 2l2 2l3 7h4v2h8h1h12v-15h13l-1-14v-12v-16v-9h-48h-17l-1 4l-1 4l-1 2v2l-1 3l-1 1l-1-1l-2-4v-1h-2l-2-1l-3 1zm-11-1v3l1 1l-1 3l2 3l1 6l2 4l1 2l3 9l2 2l1 1l4 2l2 3l4 1l2 1h1l2-1l6-4h-3l-3-2h-2l-2 2l-4-3h-1h-3l-2-2l-1-2l-2-4l-1-4l-2-7l-1-3l-2-5l-1-4v-1v-2h-1l-1 1zm-1-13l1 1v4v5h2v-6l1-1h2h1v-2h-2l-1-1h-3z"/><path id="12073" d="m384 102l2 2l-2 3h44h1h11h5l1 4h22v-24l5-6v-8h8v-4l-3-3l-1-6v-10h-4h-1h-1h-4h-3l-2-1h-17l-4-1l-3 1l1 1l-1 1l1 4l-1 1l-2 2l-2 4l-5 2l-2 5v1v1v1v1l-2 2l1 4l-2 2l-1 1l-13 2l-2 2l-4 1v-1l-1 2l-3 2l-2-1l-5 4v1l-4 3l-1 3z"/><path id="12075" d="m588 260v1l2-1l3 1v1l2 1l3 1l1 1l1 2l-2 4l1 3l2 2l1 1v1l-1 3l1 1l1 2h3l1-1v-2l3-4h1l1 1h1l4 1h1l2-1l4 2l4-1l4 1l3 2v2l1 3v1h-1l-2 1l1 3l4 1v1l3 2l1 4l-1 3v1v1l1-1l3-2l2-3h3l2 1h3l6 2h1l1-3l2 1l6-3v-25l12-1h5v-22v-18l-12 1h-8v-5v-4h-13v-4h-13v-2l-3-1l-11-1h-10l-1 1l-1 4l-3 2l1 3l-2 1v7l-3 1l-3 7l1 3l-2 1l-4 3v1l-1 2h2l-4 3l-1-1l-1 2l-2 1l-3-1l-1 3z"/><path id="12077" d="m327 138l-1 1l3 1v6l3 3l3 2l2 1l2 1l1 1l3 1v2l3-6h60l-6-3l-2-4l-2-1l-2-3l-2-2l1-2l-3-3v-3v-5l-1-1l-1-4l-2-2v-2l-5-4l1-3l2-2l2-3l-2-2l4-2l1-3l4-3h-4v-5h-5v-6h-9v-9h-4v-2h-9v-11l-7-1l-1 2v2h-3l1 3l-2 2l-2 4v3l-1 5l1 1l-1 1l2 3l-4 1l-3 2l3 2h-2l2 2l-2 3h-2l2 2l-2 1l-1 3v2l2 1h-2l-1 2l1 2l-2 3l1 1l-3 2v3h-2l-1 3h-2v1l-2 3l-1 3l1 3l-2 3l2 1l-2 1z"/><path id="12079" d="m502 105v2h46v6h13h16l3-6l2-2v-5h1l1-4l3-2l-1-4l-2-1l-2 1l-2-2l1-5l-1-1l-2-1v-7l-1-3l-2-2l1-1l-1-4l1-1l-2-7h-5h-4h-2l-3-1h-2h-5h-1h-1l-7-1h-15l1 2v8h-2v2h-2v3h-5v2h-4v2h-3l-1 2l1 3v6l1 3l-4 4l-1 3l-4 1l-1-1l-2 2l1 3l2 3l-1 2z"/><path id="12081" d="m643 522v1l3 3l1 2l1 2l2 6v1l2 2l5 5h11h1h1h1h1h10v1h1h1h24v26h26v-19v-46h-53h-9h-4v1l-1 4l-1 1l-2 2h-1l-2 1l-1 1l1 1l-3 3l-2 3v1h-2l-2 1l-1 1v1v1h-1h-1l-1-4l-5-2z"/><path id="12083" d="m671 272v25l3 1l3-1h4l4 4l1 1l2-1l1 2l4 1v1h1h1v1h1l4 4h29h18h14h1h10h6h3h5v-13h3l-1-19v-16l-2-3l-2-1l-1-3l1-2h2l-1-5h-10v-9h-4v-9l-9 1v-6l-3 1h-6v2l-3-2l-4 2h-5l-4 2l-3 3v5l-2-1l-3 2l-1 2v-3l-2 1l-3-1l-1 3l-1-1h-5l-3-1v-5l3 2v-2l-3-3h-25v18v22h-5z"/><path id="12085" d="m915 584l-27 24h40h6h48h3v-2h9l-2-7l-3-8l-3-6l-2-4l-1-3l1-1l-1-4l-4-8l-1-2h-11v8h-7h-19h-26z"/><path id="12086" d="m969 843h1v1h1v1v-1l6-10l4-10v-5l-3 5l-7 13zm-80-45v44h2v17v10h1h2h2l1-2l3 1l1 2l5 3v-2l3-1l1 2h2l3-2l2-3h3l4-2h3h2h4l3-3v1l2 1l1 1l-1-1h2l-1-2h2l4-2h4l1-2h2v-3l2-2v-3h1v-2l2-1h1l2-2l3-5l1-1l-1-1h-1l-1-1v-4l1-2l-1-1l-1-3l-1-2v-3l2-5l2-1l1-4v-1v-3v-3l1-1l1-1l2-1l1-2v-1l2-5l1-4l1-1l1-1l4-2h2l1 1l1 1v1v2l-1 4l2 3h1v-2v-1v-3l1-5l1-2l1-1v-2v-3l1-4v-3v-5v-1l1-5v-9l-1 1h-3h-3h-5h-3h-2h-7v2h-2h-2h-6h-8h-1h-31v-3h-26v25v7z"/><path id="12087" d="m916 908l2 1l11-8l10-10l6-7l6-5l6-7l4-10l6-10l4-7v-1h-1v-1h-1l-1 1l-2 4l-6 4l-4 1l-1-2v-1h-1v3l-2 2v3h-2l-1 2h-4l-4 2h-2l1 2h-2l1 1l4-1l3 3l-3 4v4l-1 6l-3 7l-7 5l-7 6zm-11 7l3 2l4-2l2-3l-1-3l-1-1l-1 1l-3 4zm-13 8h1h3l3-1l1-1v-1l1-2l-1-1l-3 1l-3 2l-2 1zm-36 14l3 3l3-1l7-3l15-7l1-2l-4-1l-7 3l-7 3l-5 2zm-45-159l6 1l1 1l4 1v4l4 3v4l1 2h1l4-2l2 2l1 5l2 3v3l4 2l1 2v2l1 2l2 2l1 1v1l-1 2v2l2 3l2 1l1 2l3 8v1v2l1 1h2l1 4v1v1h-2h-1l-1 1v1v1v2l-1 1l-1 1l-1 6v1v3l2 2l1 2l1 2v3l1 1h2l1 1l2 3l2 1l4-1h4h1h2l3-1h2h2l4-1h2v-1v-1v-1l3-2h2v-10v-17h-2v-44v-14v-7l-62 1zm-45 179v3h5l11-2l3-2h3l4-1l7-4l6-2l1-3h4h4h4l2 3l5-1l6-2l8-3l2-1l-7-6l-2-6l-2-2l-7-2l-9-4l-7 3l-5 3l-5 2l-1 3l-12 5l-9 6l-3 2l-5 7zm-27 4v3l6 1l8-2l3-4l2-1l-2-2l-4 2l-8 2zm-20-3v1l1 1h6l1-2l1-2v-1l-1-1l-2-1h-2h-1l-1 3zm-101-10v2l5 1l5-2l-3-3l-4 1z"/><path id="12089" d="m734 50l1 3l1 1v1v1l1 1v1l1 1l-1 1h1l1 1v1l1 3v2l-1 2v3v1v1v1v2v1v1v1l-1 2v1l-1 2l-1 1v1l1 1v1l-1 1v1v1v2v1v1l-1 2v13l1-1l14-14l13-14l3-3l2-3h2l2-2v-3l2 1l2-2v-2l2-2l2 1l1-1l4 1v2l2-4l3-2l3 1v1l1 1l-2 1v1l3-1h1l-1 2l2 2l3-1l1 3h2l1-2v-3l1-2l2 1l2 5l4 2l1 1l2-2l-2-5v-7l2-10v-5l-2-1l-2-1h-2l-1-2h-1l-2 1h-1h-1h-1h-1v1h-1h-1v-1l-1 1l-1-1h-1l-2-1h-1h-1v1h-1h-1v-1v-1h-1l-1 1h-1h-1v-1v-1v-1h-1h-1v1h-1h-2v-1h-1h-3h-1l-1-1l-1-1v-1h-1h-1v-1h-1h-1v1h-1v-1h-1l-1-2l-1-1h-1h-2l-2 1l-1-1h-1h-2l-1-1v-1l-2-2l-1-1v1h-1h-2h-1l-1-1h-1l-2 1v1v2l-1 3h-1h-1h-1v-1l-2-1h-1l-1 1l1 1l1 2l-1 1v1h-2h-1v1v1v1l-1 1h1v1v2v2z"/><path id="12091" d="m111 48l-1 46l4-1h2l16-1l13 2l3 1l5-1l8 1h2l1-53v-41h-1h-1h-7h-6h-1h-1h-6h-1h-12h-2h-2h-2h-2h-1h-2h-5z"/><path id="12093" d="m844 524l3 2l-1 3l2 1l2 4l2 1l2 3v2l2 4l4 2l1-1h3l2 2v1l2 1v2l-1 1l1 1l1 4h3l1 1v5l1 2h1v3l1 2l3-1l1 2l3 3h2l-1 2l3 2l2-1l1 2l-2 29l27-24v-13v-39v-13h-13v-12h-13h-35v3v3l-2 1l-3 5h-1z"/><path id="12095" d="m786 339v4v22l1 1l-1 3v2v1v11v19h22h4h5h14h1h28h31l-4-6l1-3l-2-4v-3v-2l4-1l-2-3v-2l-2-1l-5-4l1-4l-2-3l-1-3l-1 1l-4-2h-18h-16h-1h-3h-7v-3v-1h-11h-4h-1h-1v-5v-6h3l2-4l1-7h-30z"/><path id="12097" d="m786 402v12v1h13l1 1l4 8v8h7h2v9h14v1l-3 2l1 4l-2 1l-1 3l-1-3h-2l-3-2l-2-2l-2 1v2h3l2 4l1 2l4-1l1 4l4 2l1 2v3l4 1l-1 3l1 2l1 4l3 1l3 1l3 1l3 3l2 5l3 4l-1 1l2 2l-1 2l3 3v2l1 4l1 1v2l-1 1h35l-1-14v-13h2v-39l1-1v-24v-14h-31h-28h-1h-14h-5h-4z"/><path id="12099" d="m888 608v32v58v2h77v-3l6 2l6 2h5h6h3h1l2 1l1-2v-1l1-13v-1v-1l2-10l1-9v-6v-1v-4v-4l1-2v-4l-1-8h1v-2v-2l-1-3l-1-6l-1-6l-3-11h-9v2h-3h-48h-6z"/><path id="12101" d="m636 426l-1 2h14h4h2h24h1h4h3h2h18h20v-13h7v-8v-5v-20h-26v7h-26h-25h-5l-1 1l-2 1l-1 3v5l-1 3l-2 3l-1 4l1 1l-2 5l-2 1v1v4zm-7-4v6h1h1v-6l-2-1z"/><path id="12103" d="m629 428v1l1 10l2 8v4v8l-1 4h-1v4l-1 3v4l1 1l1 3l1 2l1 1l4 4l1 1l2 2l1 3l1 2l1 1l1 1v2v4l-1 3v2l1 4l1 1l3-2l1-2l-2-1v-1l-1-1v-2l1-3v-1h3l2 1v-2h1l1 1h1h2l1-1l1-3v-1l-1-3l1-4l1-1l1-2l3-2v-3l-1-1l-1-2l-1-3l-3-2v-2h-1l-4-2h-2l-1-1h-1l-1-1l-2-1v-1v-1v-1h1h1l2-3v-1l2-2l-2-5h3l3 2v-3v-16l-1-4h-2h-4h-14v2l1 1h1l1 1v3v3v7h-4l-2-11l-1-6h-1h-1z"/><path id="12105" d="m727 415v13h7v9v9v15v3v3v39h64h5l51 1l1-1v-2l-1-1l-1-4v-2l-3-3l1-2l-2-2l1-1l-3-4l-2-5l-3-3l-3-1l-3-1l-3-1l-1-4l-1-2l1-3l-4-1v-3l-1-2l-4-2l-1-4l-4 1l-1-2l-2-4h-3v-2l2-1l2 2l3 2h2l1 3l1-3l2-1l-1-4l3-2v-1h-14v-9h-2h-7v-8l-4-8l-1-1h-13v-1v-12h-17v-2h-9v2h-13v5l-4 1l-1-2l-4-1l-4 2v8z"/><path id="12107" d="m734 203v30l3-3l4-2h5l4-2l3 2v-2h6l3-1v6l9-1v9h4v9h10l1 5h-2l-1 2l31-8l2-3l-3 1l-3-1l-1-4v-3l-4-6l-1-3v-18v-15v-6l-3-1l-3-5l-2-6l-30 1l-1 1l-6 4l-6 1l-2 2l-1 4l-1 1h-5l-4 1l-3 3h-2l-1 1h1z"/><path id="12109" d="m782 146l1 4l1 2l6 4l3 2l1 4l-1 4l1 6l2 4v1l2 6l3 5l3 1v6v15h26v-5l2 2l1-1h3l2-3l2 1l3-1h2l-3-7l-1-4l-2-7l-1-4v-1v-3v-3l-1-3l-1-3l-1-2l-1-2l-2-7l-6-29l-3-14h-7h-1l1 23h-14v-2h-4l-2-1l-5-2l-4 2h-4v6z"/><path id="12111" d="m915 519v13v39h26h19h7v-8h11l-4-9l-1-3l-2-5l-2-6l-3-12h-1l-2-4l-1-5h-4z"/><path id="12113" d="m42 24h2l1 5l-3 4l2 4l-2 4l2 2h4l1 5v6l1 4l-1 2l3 2l4 6l5 2l2 1l4 6v2l-2 5l1 4l-2 2l-1 1l-10 3v2v4l3 1l4 1l3-2h2l9-2l20-4v2h1l8-1l7-1l1-46l1-47h-6h-6h-2l-5-1h-9h-1h-3h-1h-1h-2h-1h-1h-6h-1h-2h-3l-5 5l-3 1l-4 5l-2-1l-2 2v2v3l-2 1z"/><path id="12115" d="m657 544l2 4l3 4l3 4l1 2v2v1l2 1l1 1l1 1l4 7l2 4l2 6l1 4h1l1 2l1 6l4 6l2 5l4 6h15l1-13h23h3v-26h-26v-26h-24h-1h-1v-1h-10h-1h-1h-1h-1z"/><path id="12117" d="m812 353v5h1h1h4h11v1v3h7h3h1h16h18l-2-4l-1-4l-1-1v-3l-2-3v-2l-3-4l1-3l-2-6l-4-1l-1-1l-3 1v1l-2 3h-2l-3 2v-3l-2 1l-3-2l-1-4h-6h-7l-5-2l1-2l-2-3l-2 4l-4 4v6l-1 7l-2 4h-3z"/><path id="12119" d="m700 310l2 2v1l3 4v2l4 3l1 3l2 1l2 3l3 2l1 2l1 2l-2 1l-1 4l-3 1l-5 5v3l-1 3l-1 2l-1 1l2 2v1l5 7l1 3h2l4 1l2-1l2 1l1 3h3l1 3l4-1l2 2v6v20v5l4-2l4 1l1 2l4-1v-5v-31v-3v-40v-18h-18z"/><path id="12121" d="m577 113l-1 3l2 2l-1 4v3l2 2l-1 3l2 2v4l2 1h1l2 1l3-2l4 2l2-1l1 2l5 1l1 3l3 1l4 4l1 3l4 1l1 2l1 3l1 2h3l1 4l-1 2l3 3h1l2 2l3-4h4l4-3l2-3l3-2v-3h-4v-53l-1-2l-2 2l-2-2l-2 1l-2-3l-3-1l-1-1v-2h-2v1l-8-6h-2l-3-2v1l-4-1l-5 1l-1-2l-5 1l-2 2h-3v3l-2 2l-3 2l-1 4h-1v5l-2 2z"/><path id="12123" d="m479 138v2l4 3l4 3v1l11 6l3 2l5 1l4 3l9 5l1 1l3 3l3 2l2 7l2 1l1 1l2 2v3v1h-1l1 2v1l2 1l2 3l1 1l1 2l3 1l3 1l1 1v2l4 2h1h1l3 1l2-1l4 1l1-1l1-3l1-5v-2l1-3l3-3v-6h-5v-10h-2v-46v-2v-9h-13v-6h-46l-3 3l-2 1l-3 1l-3 3l-2 1v4l-2 4h-3l-1 6l-1 1v1z"/><path id="12125" d="m666 151l-1 3l1 3l2 1l3 1v3l1-1l5 1l2 2l3-1l3 2l1-1h4l2-1h2l1-1l1-3l2 1l3-1l4-6l2-4l4-1l3-3l3-2l1-2l1-3l3-2l1-3l-1-2l-28 1h-11h-2l1 2l-1 3l-1 1l-4 1l-3 2l-2 3l-2 6z"/><path id="12127" d="m783 255l1 3l2 1l2 3l1 5l2 2l1 4l3 1h4l1 2l3 1l3 8l1 4l1 1l3-1l2 3v2l1 1l2 2l5 4l1 2l1 2l3 1l-1 1l-1 4l2 1v7l-2 3l2 3l-1 2l5 2h7h6l1 4l3 2l2-1v3l3-2h2l2-3v-1l3-1l1 1l4 1l2 6l-1 3l3 4v2l2 3v3l1 1l1 4l2 4h3v-27h16h15l-7-12l-11-18l-1-3l-2-4l-2-4l-5-7l-2-4l-1-1l-1-2l-1-3l-9-19l-1-4l-2-4l-4-10l-6 1l-1 1l1 10v12h-6h-10l-19 1l-1-21h-1l-2 3z"/><path id="12129" d="m382 109l-1 3l5 4v2l2 2l1 4l1 1v5v3l3 3l-1 2l2 2l2 3l2 1l2 4l6 3l2 1l2 2l-1 2l1-2l3 1l4-3l2 5l1-1h1l12 3v-2l-1-2h-1h-1v-4l4-3l5-4h1h2v-2v-1v-1v-1l1-1l1-1h2v2l1 1h4l1-1l2 3h2h1l3-2l2-1l1 1l2-1l1-1l1 1l1-1v-27h-22l-1-4h-5h-11h-1h-44z"/><path id="12131" d="m164 42l-1 53l4 1l9 2l10 3l17 6l12 5h1v-7v-11l1-6l3-2l4-1l2 1l2-1l2-4l1 1l2-4l-1-2h-1l-1-2l1-6h-1l-1-5l-3-1l1-3l-1-3l3-3l3-1l-1-3l4-3l-25-1v-44h-2h-8h-6h-1h-1h-1h-1h-6h-3h-4h-2h-8h-1h-2z"/><path id="12133" d="m217 88l-1 6l1-1l3-3l3 1l2-2l2 2l3-1l2-1l2-3h48l1-20h6v-8l1-25h-7v-7h-15l-1 5l-2 4v4h-15v-4h-2v-3h-5h-5l-1 6l1 2l-3 6l-4 3l1 3l-3 1l-3 3l1 3l-1 3l3 1l1 5h1l-1 6l1 2h1l1 2l-2 4l-1-1l-2 4l-2 1l-2-1l-4 1z"/></svg>
