<?xml version="1.0" encoding="UTF-8"?>
<!DOCTYPE svg PUBLIC '-//W3C//DTD SVG 1.1//EN' 'http://www.w3.org/Graphics/SVG/1.1/DTD/svg11.dtd'>
<svg viewBox="0 0 10000 9647.37" xmlns="http://www.w3.org/2000/svg">
  <g data-id="001">
    <path d="m6544.8 1785.5l0 0l0.6 12.7l2.4 389l-0 44.1l129.9 -3l1.4 38.7l-0.3 48.2l79.5 2.5l118 -10.1l256.9 1.6l28.8 34.8l-3.5 13l-25.8 -20.7l-0.2 54.4l24 13.8l55.8 -8.8l8.2 13.2l12.6 -25.1l22.4 9.5l22.8 -15l1.6 29.3l7.1 -17.3l30.6 -19.5l19.1 5l1.1 -47.2l1.1 -300l7.9 -66.3l-8.6 -7.4l-3.2 -45.2l-31.6 -23.5l3.6 -18.8l-39.2 -10.7l-19.6 -33.7l0.2 -27.9l-12.1 -18.6l-52.7 -1.6l-22.4 -16.8l-56.9 4.2l-11.8 -10.9l-39.6 14.3l-54.4 -25.7l-29 -28.6l-51.4 -0.9l-31.3 -12l-10.3 -40.6l-15.9 -13.7l-9.9 2l-29.8 -14.7l-30.5 7.5l-15.9 -19.8l-54.1 -8.1l-5.7 6.2l-15.6 23.3l-17.3 -4.6l-30.9 19.3l3.1 31.8l-21.9 11.1l8 31.6l-41 29.4l-17.9 -2.7l-4.6 23.5l-22 12.1l-9.3 -6.9z" />
  </g>
  <g data-id="003">
    <path d="m6806.5 637.9l0 0l-0.3 -0l3.6 216l-1.7 423.7l-0 42.8l19.3 -2.5l110.9 -1.8l285.1 -5.8l122.5 -0l0 -66.6l0.2 -131.7l-1 -135.5l-0.2 0.1l-13.1 3.1l-11.2 1.7l-16.5 0.6l-17.9 -3l-9.4 -6.9l0.5 -1.9l-1.4 -1.9l-3.1 -0.8l-15.2 1.5l-35.4 6l-19.5 5.3l-4.8 3.1l-4.5 -0.3l-6.4 -1.4l-1.9 -1.4l-11.2 -13.3l-5 -7.8l-8 -3.4l-4.1 -4.3l-14.7 -34.4l-8.1 -35.5l0.6 -12.6l4.5 -6.5l3.3 -11.3l-1.1 -11.2l-1.6 -5.6l-1.9 -2.2l-0.2 -5.5l4.1 -12.8l4.8 -8.5l-0.6 -16.4l-6.6 -10.2l-8.4 -10.5l-7.4 -8.3l-8.6 -5.6l-2.5 -3.7l-4.5 -10.8l1.3 -5.3l-1.8 -9.1l-5.5 -9.6l-1.1 -6.3l0.3 -11.8l4.8 -17.4l6.1 -7.3l5.6 -3.3l5.8 -1.8l5.5 -3.9l-0.6 -2.4l-0 -0.1l-46 -3.5l-10.9 -1.1l-38.5 -2.9l-115.1 -8.5l-57.9 -4.2l-53.5 -3.9z" />
  </g>
  <g data-id="005">
    <path d="m2157.2 1053.7l0 0l-1.8 64.8l96.6 47.4l58.5 34.1l88 56.8l47.1 33.5l33.5 30l26.1 28l43.7 32.3l57.3 29l21 6.9l25 11.9l22.5 13.9l17 1.2l9 27l12.5 17.2l40.4 46.5l42.1 36.9l28.1 15.5l24.1 5.2l11.8 -2.7l45.4 14.7l27.5 17.3l21.5 21.4l-3.6 -149.3l2.2 -271.1l1.4 -224.7l6.1 -333.1l-66.9 -1.1l-67.8 -0l-2.1 199.3l-480.7 -5.5l-22.2 31.8l-17.9 14.5l-31.1 6.8l-18.3 -15.3l-24.6 11l-32.5 -3.2l-22.2 28.2l-14.3 4.4l-2.6 118.3z" />
  </g>
  <g data-id="007">
    <path d="m6860.2 1644.5l0 0l15.9 13.7l10.3 40.6l31.3 12l51.4 0.9l29 28.6l54.4 25.7l39.6 -14.3l11.8 10.9l56.9 -4.2l22.4 16.8l52.7 1.6l12.1 18.6l-0.2 27.9l19.6 33.7l39.2 10.7l-3.6 18.8l31.6 23.5l3.2 45.2l8.4 -0.7l4.1 -43.1l-4.1 -468.5l-0.3 -132.6l-122.5 0l6.1 24l-12.4 26.4l-29.4 16.1l-10.4 36.7l-11.7 15.8l-27.9 18.4l-23.7 28l-45.2 9.4l-17.4 43.8l-44 64.7l-24.4 1.4l-22.2 -8.7l-7.4 29.9l-15.3 12.9l-14.2 -3.2l-26.8 14.9l-37.2 3.8z" />
  </g>
  <g data-id="009">
    <path d="m8772.8 3619.7l0 0l-30 -0l39.1 16.6l7.2 -4.3l6.4 30l22.4 33l-5.2 33.1l46.6 46.3l23.4 9.1l-2 18l15.2 29.7l-31.3 7.1l-3.2 21l0.4 0.2l-5.7 29.4l23.9 37.4l-7.1 33.9l33.5 56.8l2 142.4l-1.9 239.1l-8.5 10.7l0.6 390.4l473.2 0.7l23.7 -48.4l47.6 -0.1l10.3 -9.1l0.1 -1.8l-81.4 -161.5l-46.5 -106.4l-4.5 -10.3l-24.7 -69.8l-31 -122.8l-18.7 -119l-3 -47.1l-2.1 -32.9l1.6 -37.6l4.6 -41.1l2.5 -10.7l6.9 -29.2l11 -30.2l18 -25.3l14.8 -15l47.5 -20.8l2.2 -11.6l-14.5 -28.7l-32.7 -78l-8.4 -47.3l-9.9 -34.2l-11.9 -18.8l-43.3 -55.2l-40.1 -64.9l-82.1 -118.2l-29.6 -51.8l-145.6 0.1l-164.4 1.4l4.5 265.7z" />
  </g>
  <g data-id="011">
    <path d="m8882.3 6998.6l0 0l1.9 109.1l0.9 126.9l0 0.5l8.2 282.8l253.7 1l0 32l316.5 0l10.6 -0.2l74 -0.2l0.1 -0l63.5 -0.1l21.2 -0.1l20.6 0.6l-0.3 -20.2l63.7 -1.9l22.5 -0.7l30.7 -0.5l53.3 -1.6l23.2 -0.9l0.3 -0l31.6 -0.1l8 -1l0 -16.4l10.8 -147.5l3.8 -9l1.8 -4.3l5.1 -75.4l15.8 -123.3l5 -25.5l7.5 -22.1l6.1 -79.7l0.6 -3.5l-23.5 -7.8l-8.1 5.1l-0.5 -7l-27.5 -0.2l-65.3 -0l-0.5 0l-0.2 -0l-44.4 -0.1l-60.1 -20.1l-62 -20.4l-0.1 30.9l-0.6 0l-767.7 0.8z" />
  </g>
  <g data-id="013">
    <path d="m2954.3 997.5l0 0l-1.4 224.7l8.7 -0.6l351.7 2.1l-3.4 -16l20.1 -1.9l14.3 -24.1l14.1 -1.5l6 -34.2l23.2 -18.6l-6.4 -11.6l14.7 -25.2l-5.9 -21.2l12.7 -17.5l17.5 0.5l-15.8 -11.7l-4.6 -24.9l9.2 -24.3l19.6 -12.8l-16.2 -17.1l18.4 -5.3l15.3 -28.5l-16.7 -17.3l17.1 -5.2l-24.5 -17.2l23.4 -21.4l42 -11.4l-22 -21.9l16.4 -13.3l-16.4 -11.5l11.7 -48.7l1.3 -31.3l21.4 -43.1l15.1 -16.2l-4.2 -25.4l24.5 0.5l2.5 -23.8l16.3 -16.7l-309.3 -2.4l-5.5 66.7l-278.9 -3.8l-6.1 333.1z" />
  </g>
  <g data-id="015">
    <path d="m6916.7 6097.8l0 0l31.7 55.5l65.6 98.5l16.6 20.3l22.9 56.4l9.2 0.1l29 5.4l11.5 3.7l15.1 1.8l3.2 18.9l14.6 2.9l27.1 -5.4l12.5 -2.5l7.6 -9.3l28.7 -6.8l5.3 -9.3l-12.1 -91.5l-21.9 -67l-3 -28.8l7.6 -9.3l9.8 -3.4l32.5 -0.8l16.6 -28.8l9.8 -12.7l12.1 -5.1l38.4 -0.8l3.2 -0.1l17.4 11.9l1.9 14.4l0.3 2.6l-0.8 11l-7.6 5.1l-20.4 0l-9.1 6.8l-3.8 24.6l3 26.3l31.8 9.3l9.8 8.5l3 26.3l-2.3 29.7l0.8 24.6l3.8 28.8l-8.3 19.5l0 22l-0.8 5.7l171.9 0.6l0.3 0l480.3 0.7l4.5 -389.5l-0.1 -0.2l-553.2 -2.1l-12.2 5.2l-85.4 -0.6l-21.7 0l-238.4 -1.3l-0.4 129.5l-158.1 -1.1z" />
  </g>
  <g data-id="017">
    <path d="m6417.4 3036.1l0 0l-4.6 12.9l27.7 -3.6l2.8 33.1l15.6 30.4l19.8 26.3l8.1 4.5l18.1 41.1l-54.4 83.3l42 139.8l-18.5 54.1l57.4 37.9l-0.2 2l212.4 -0.6l117.1 -0.3l0.7 43.4l203.5 -2.6l4.1 -22.6l14.9 -28.1l-0.6 -24.4l50.5 -54.4l28 -7.4l7 -36.5l19.7 -14.5l-13.4 -15.6l-4.3 -27.7l-30.1 -20l-22.3 -26.4l-18.2 -11.8l-7.9 -23.8l-41.2 -31.2l-5.6 -21l-23.4 -40.3l-2.6 -16.5l-18.5 -17.1l-39 -41.2l-0.7 -0.1l-1.3 0.9l-3.5 0.3l-1.5 -1l-2.2 -0.2l-1.3 -0.8l-1.3 -1.7l-2.8 -2.6l-3.8 -0.2l-1.4 -0.5l-1.7 -2.2l-1.4 -0.3l-2.9 -0.1l-0.8 -0.4l-0.7 -1l0.1 -2l-1.5 -1.2l0.5 -3.7l-40.4 -13.6l-10.4 -15.9l-22.9 8.1l-10.8 -12.2l-41.5 -39.5l-37.6 -1.1l-27.6 16.4l-36.1 -11.1l-54.4 25.3l-21.9 -3l-11.2 24.9l-13.8 6.3l-52.7 -20.7l-30 -4.8l-18.9 -11.7l-29.2 4.7l-21.1 24.1l-36 19.5z" />
  </g>
  <g data-id="019">
    <path d="m7345.9 1243.6l0 0l-0 66.6l0.3 132.6l4.1 468.5l-4.1 43.1l26.7 -0l28.7 -31.5l40.6 -11.5l48.4 -0.6l10.9 -13.1l10 -37.6l18.7 -19.2l62.2 -10l52.8 -39.6l12.4 -15.4l304.1 -5.6l-3 -6.6l-20.5 -46.8l-12.3 -61.1l11.9 -34l-6.5 -36.9l-27 -29.1l-60.9 -39l-15.4 -14.4l-10.1 -39.7l13.7 -66.5l-0.2 -52.6l-15.7 -35.7l2.1 -41.4l14.3 -28.2l-31.4 2.2l-10.3 -3.3l-29.1 -3.5l-7.1 6.3l-129.9 1.1l-278.5 2.6z" />
  </g>
  <g data-id="021">
    <path d="m7613.7 7003.6l0 0l1.7 3.9l15 48.7l16.4 84.7l5.1 43.3l2.9 49.8l7.6 30.7l9.4 93.8l51.6 120.3l6.5 8.3l8.9 2.9l3.7 6.1l-2.5 49.5l5.5 15.8l9.8 11.2l8.1 15.4l6.4 35.5l12.4 7.6l5.9 6.5l31.1 65.6l6.2 8l8.6 2.8l7.4 -16.6l11.6 -42.3l12.3 -11.7l13.1 -6.4l5.9 0.2l21.8 0.9l11.5 4.7l42.4 25.2l45.5 39.6l43.3 16l56.2 31.7l4.9 19.9l163.5 -0l619.5 -3l0.2 -254.5l-8.2 -282.8l-0 -0.5l-0.9 -126.9l-511.3 9.4l-4.2 -387.6l-192.2 1.2l-69.1 4.3l-122.8 0l2.1 133.3l-126.5 2.2l0.6 152l-116.1 1l-10.8 0.2l-85 0.7l-0.1 -20.8l-35.1 0.1z" />
  </g>
  <g data-id="023">
    <path d="m6358.1 1630.8l0 0l11.3 -5l15 14.7l13.3 -3.6l-5.2 24.9l7.7 22.3l13.3 -2.6l7.2 28.1l21.9 30.4l33.1 19.2l22.9 20.1l46.2 6.2l9.3 6.9l22 -12.1l4.6 -23.5l17.9 2.7l41 -29.4l-8 -31.6l21.9 -11.1l-3.1 -31.8l30.9 -19.3l17.3 4.6l15.6 -23.3l-4.7 -26.5l-29 -8.6l-18.3 -16.6l-8.8 -24.1l3.8 -30.1l37 -14.2l12.6 -53.3l21.6 -31.8l27.4 -19.8l39.5 -12.1l16 -13.1l4.6 -27.8l-7.7 -19.1l0 -42.8l1.7 -423.7l-3.6 -216l-85.7 -6l-14.9 -1.1l-11.6 -0.7l-10.7 -0.9l-16.2 -1.1l-4.9 -0.5l-19.4 -1.3l-138.5 -9.1l-0.3 -0l-22.5 20.5l-0.1 15.3l-26.2 22.9l16.1 41.8l-17.5 2.3l16.7 38.1l9.4 -1.6l13.1 48.5l21 5.6l2.4 15.3l19.9 11.7l-6.7 13.7l23 22.8l7.3 52.8l-14 5l-5.9 32.2l-32.2 27.3l6.9 14.7l-11.1 14.8l-17.4 0.8l-19.3 17.1l-9 -18.9l-18.2 12.2l-10.9 12.7l-21.4 -20.5l-33.5 10.4l-8 -19.8l0.8 533.6l44.1 -0l-1.5 31.4l-32 16.4l-19.3 34.3z" />
  </g>
  <g data-id="027">
    <path d="m7336.6 5711.2l0 0l-1.3 259.5l85.4 0.6l12.2 -5.2l553.2 2.1l-1.9 -453.6l-387.7 0.6l-259 3l-1 193.1z" />
  </g>
  <g data-id="029">
    <path d="m5553.5 2032.7l0 0l10.8 39.5l6.1 42.1l-7.3 26.3l-0.2 26.1l7.1 68.5l-2.3 14.7l1.7 9.1l21.4 6.4l6.2 14.3l11.8 5.5l17.8 0l8.8 15.9l24.9 20.8l10.4 -1.8l15.3 1.7l4.9 10.3l1 13.9l16.2 32.8l29.9 8.6l10.6 -5.4l30.8 4l29.5 19.2l20.6 39.4l2.3 31l14.6 15.8l18.5 28.3l-1.8 23.3l-1.9 2l2 20.7l9.4 36l4.6 2.2l23.8 -28.5l11.1 -24.5l26.4 10.3l19.7 -12.5l7.5 -17.2l11.1 6.2l39.3 -25.2l-15.2 -6.6l11.6 -12l-3.1 -16.4l39.1 -23.4l17.1 -16.7l-4.2 -31.3l33.2 -63.6l21.7 -13.4l3.9 -70.5l15.8 -7.1l-8.6 -28.7l34.1 -22.4l7.3 -39.6l9.4 -13.5l-23.1 8.5l-22.1 -34.7l-1.8 -23.8l21.1 -22.1l6.8 -34.8l-9.6 -12.3l8.8 -51.3l17.3 4.5l-13.6 -38.4l14.7 -27.6l-14.7 -15l19.3 -48.5l19.2 -12.5l-19.7 -22.4l19.4 -22.3l-50.8 -1.9l-473 4.2l-0.8 67.1l-22.5 26.7l-12 26.1l1 25.3l-8.4 49.2l-18 26.6l-1.8 16.7l-42.2 -12.5l-18.1 10.6z" />
  </g>
  <g data-id="031">
    <path d="m7346.2 1112l0 0l-0.2 131.7l278.5 -2.6l129.9 -1.1l7.1 -6.3l29.1 3.5l10.3 3.3l31.4 -2.2l-14.3 28.2l-2.1 41.4l15.7 35.7l39.1 -0.5l35.1 -18.4l56.5 11.5l17.2 12.6l37.8 -3.3l0.4 24.6l138 -2.7l-4.1 -223.3l8.1 0.1l67 -1l-7.4 -31.9l-8 -45.1l-6.3 -55.8l-1.3 -92.4l-12.6 -32.7l-5 -91.5l-20 -22.4l-18.5 -1.4l-9.2 -9.2l5.7 -9.5l-10.6 -14.2l-38.3 -21.7l-25.8 -46.3l-19 -5.4l-12.9 16.8l3.2 26.8l-11.7 19.1l-16.8 3.7l-16.1 -31.5l-28.9 9.9l-15.2 -19l7.3 -21.4l-11.7 -1.3l-23.8 16.7l-5.3 -12.2l16.8 -8.1l-9.5 -11l5.4 -15.2l-26.2 -2.1l-32.3 14.4l-23.1 38.3l-3.6 -17.7l-37 -9.7l-9.2 9.2l-22.2 -12.5l-18 19.6l0 25.8l-15.4 17.3l-22.1 -6.3l-2.1 25.2l-21.4 23.1l-17.5 -3.2l-19.2 31.9l-28.5 26.1l-137.1 142.5l-134.2 137.9l-15.4 15.3z" />
  </g>
  <g data-id="033">
    <path d="m6.5 189l0 0l-6.5 18.1l8.8 8.8l2.7 4.6l1.1 4.2l-1.5 3.8l-1.1 6l1.6 2.2l2.5 1.2l9 8.2l2.5 5.1l-0.7 3.6l6.5 3.2l6.8 2l2.9 4.1l2.6 5.3l1.5 6.9l8.1 5.6l8.5 3l7.9 4l6.6 6.5l6.3 11.7l5.1 2.2l5.2 4.4l5.4 6.1l0.8 2.8l6.1 5.1l2.5 0.3l1.2 1.1l9.2 11.6l-0.4 7l-1 3.2l5.1 6.9l6.8 7.6l0.7 1.8l1.5 10.1l0.1 7.6l3.6 9.6l11.8 7.9l15.6 7.3l8.6 11l3.7 7.2l6.3 2.2l1 -0.4l12.8 2.8l7.6 3l1.8 2.4l0.3 3.2l6.8 9.6l5.3 2l3.5 5.5l1.8 1.3l12.3 5l7.3 -3.4l2.7 1.4l7.6 6.6l1.7 2.9l3.2 3.4l5 2.8l7.4 0l7.2 8.1l7 5.2l8.9 2.9l7.6 4.4l0.5 1.8l-0.7 3.4l1.6 7.9l6.8 14.5l0.7 -0.1l3.8 4.4l1.4 6l-1.3 3.6l1.6 6.3l3.1 20l-0.2 5.9l-0.9 2.8l-1.6 2.8l-1 8.6l0 1.3l1.8 1.5l0 0.9l-3 10l-2.6 4.8l-2.5 1.9l-4.5 1.5l-2.6 5.3l-2.9 24.8l-5.2 16l-2.4 -0.3l-2.3 1.5l-2.8 3.7l-0.2 0.7l2.1 2.4l0.4 2.6l-2.6 6.8l-3 1.8l-2 0.3l-0.5 -1.4l-0.7 -0.1l-3.5 2.1l-2.4 9l-4.7 5.9l-4.6 1l-0.6 0.7l-14.7 33.7l0.2 10.3l2 8.2l-0.3 1.5l-1.7 0.6l-1.1 1.4l-0.6 1.1l0.1 2.2l3.9 4.5l2 1.1l4.6 0.2l1.9 2l9.3 14.6l0.8 7.2l-3.2 9.5l-3.4 6.7l1.2 2l4.1 2.3l1.3 1.7l1.3 9.2l5.9 7.6l13.7 12.7l8.9 1.4l4.2 5.3l6.3 2.9l3.9 0.6l6.4 -1.5l14.2 2.3l13.7 4.9l2.7 3.4l2.3 6.3l0.5 5.8l-2.1 4.9l-3.9 4.4l-14.3 11.6l-3 1.9l-2.7 1.7l-12.2 4.4l-4.1 3.8l-3.9 5.6l-2.2 1.8l-7.1 2.1l-5.7 -0.3l-7.9 -1.8l-4.6 0.2l-4.6 1.4l-4.5 4.1l-1.5 2.5l-1.4 2.5l-3.3 8.7l-3.9 2.4l-4.5 6.7l-0.7 4.4l0.4 2.9l2.9 7l0 2l-4.1 6.8l-9.5 9l-3 4.9l-0.7 3.4l-0.1 7.2l1.3 21.4l-1.7 3.3l-10.1 11.9l-3.9 3.5l-2.5 1.1l-21.5 10.3l-12.3 5.1l-7.3 8l4.4 9.4l9.4 4.4l28.3 -4.4l-3.6 14.5l-55.9 15.3l-11.8 12.6l0.1 5.3l129.5 -25.4l91.2 -24.3l40.7 -7.2l31.7 -8.7l16.6 7.3l19.7 5l81 -8.3l66.9 -10.4l310.5 -65.4l-1.1 -24.2l-203.2 36l-86.5 22.9l-16.6 -0.8l-34.2 21l-42.1 -8.1l-29.2 -14.2l-1.2 -32.5l7.7 -21l99.5 -32.9l9.1 -7.9l14.8 -20.7l-4.7 -41.7l17.7 -50.6l-0.5 -23l-43.3 -52.8l-13.2 -10.4l-55 -20.9l-35.3 -63.2l-29.3 -22.4l8.7 -18.5l-16.5 -40.2l-1 -58.6l-10 -44.8l-38.9 -3.1l-12.7 -24l13.5 -39.1l-12.9 -39.6l24.7 -39.6l-12.4 -45.8l-14.6 -7.7l19.9 -50.8l18.4 -11.6l3 -34.4l-6.2 -23.1l25.9 -14.6l15.4 5.2l36.6 -45.3l29.9 -13.4l54.3 -44.7l-80.4 2.8l-6.3 0.4l-10.7 0.8l-22.7 -2.9l-0.8 0.1l-1.9 0l-1.3 -0.1l-2.3 0.1l-1.1 -0l-6.6 -0.1l-30.7 -0.1l-2.7 -0l-13.9 -0.1l-3.2 0.4l-10.7 -0.4l-28.7 0.3l-28.5 0l-11 0l-5 -0.1l-76.2 0.3l-8.6 -0.2l-23 -0.1l-7.8 -0.1l-3.9 -0.1l-3.9 0.3l-0.2 0l-6.6 0l-0.1 0l-15.6 -0.1l-1.3 0l-0.7 -0l-51.7 0.9l-38.2 -0.5l-29.9 0.1l-36.2 0.6l-0.1 0l-0.3 2.7l3.2 12.4l4.4 7.1l0.9 4.3l-2 3.9l0.1 1.9l1.4 5.2l2.8 5.4l2.3 7.6l-3.8 19.9l-6.4 15.9l-1.9 3.6l-3.1 2.6l-2.6 4.3l-6.7 15l-0.6 4l-2.5 8.1l-2.2 3.2l-3.1 9.2l-1 6.6l-1.4 4.3l-6.2 3.9l-2 2.2l-0.4 5.9l2.1 5.8l0.2 3.7l-1.7 3.2l-3.1 1.1l-6.6 7l-0.7 3.7z" />
  </g>
  <g data-id="035">
    <path d="m8037.4 2100.1l0 0l4 184.7l7.7 21.5l36.9 61.1l0.9 32.3l12 41.7l33.1 9.7l23.3 -12.7l17.4 -1.6l4.5 208.9l195.8 -3.1l95.5 -2.4l60.1 -1.8l-3.2 -121.5l-4.4 -97.2l9.4 -8.8l61.6 -15.5l-28.9 -71.6l-52.2 -122.2l-63.1 -169.1l-1.7 -5.4l-19 0.2l-26.2 17.3l-20.2 -10.8l-25.6 23.9l-20.5 -1.1l-16.1 13.5l-18.9 -17.1l0.4 42.2l-262.5 4.8z" />
  </g>
  <g data-id="037">
    <path d="m3900 1839.2l0 0l-15.6 17.2l25 15.6l50 -7.8l53.1 -23.4l25 -25l0 -37.5l-15.6 -3.1l-28.1 25l-53.1 29.7l-40.6 9.4z" />
    <path d="m3172.9 1998.4l0 0l-3.4 17.4l4.5 0.5l106 66.2l74.7 28.6l51.5 42.6l53.4 -17.9l73.7 -36l94.3 -50.2l131.2 -55.1l110.9 -107.3l-12.2 -16.9l-65.6 54.7l-61.5 54.5l-135.4 51.8l-145.4 68.8l-76.3 -28l-5.6 -50l-34.3 -16.2l-27.7 -47.2l26 -4.4l38.9 -0.4l45.9 12l57.8 -5.9l21.4 -9.5l10.7 -8.9l6.4 -23.2l22.9 -4l10.8 -7.8l23 -34.4l7.6 -15.8l14.4 -4.5l13.3 1.7l22.2 18.6l-17 25.9l-15.4 30.4l12.2 19.8l5.9 0.4l8.2 -17.4l17.8 -13l40.9 -20.4l17.1 -3.6l80.5 -46.3l9.7 0.5l33.2 -27.8l50.3 -33.6l10.7 -3.4l18.7 3.7l17.5 -8.1l0.2 -5.6l11 -13.9l45.8 -31.7l13 -12.3l34 -17.8l54.7 -33.8l31.4 -9.8l22.9 4l31.9 -16l24.5 -6.9l10.6 23.2l12.3 11.3l13.7 5.1l24.8 2.7l34.2 12.3l39.3 -5.6l7.5 -4.1l9.8 -20.4l2.9 -16.3l-3.6 -28.5l-3.8 -5.3l-2.4 -22.4l-126.4 -24.7l-8.9 -7.2l-10.9 16l-20 -46.5l-31.3 22.4l-29.7 -3l-13 11.2l6.6 -20.3l-16.1 -18.6l-17.4 -5.6l-609.2 -4.3l3.1 4.3l-26.6 60.2l9.9 31l-47.1 61.7l3.2 26.1l13.3 26.1l11.4 69.4l14.7 10.4l1.2 24l-20.3 22.7l-4.4 18.5l-38.6 -6.5l-13.8 24l-39.7 -12.4l-127.3 99.4l-21.3 32.7z" />
  </g>
  <g data-id="039">
    <path d="m3586.2 584l0 0l-32.1 20l64.7 1.2l0.9 110.7l87.9 0l0.3 22.3l44.5 -0.3l0.9 89.9l88.1 -0.9l-0 65.9l44.2 -0.1l-0.1 44.7l45 -0.5l-1.7 -9.7l53.6 -32.8l20.5 6.7l29.6 -23l9.7 -16.9l2.6 5.9l39.6 -10.4l12.6 -16.3l130.6 -18.9l16.5 -14l14.1 -15.6l-10.2 -37.3l21.9 -28.2l-0 -0.7l-1.4 -0.9l-0.4 -0.9l0.1 -1.3l1.1 -1l-0.9 -0.4l-2 0.3l-0.1 -1.9l-0.7 -1.2l0.2 -1.9l0.7 -1.5l0.1 -2.3l0.9 -3.5l1.3 -5.4l1.2 -3.1l0 -1.2l0.9 -0.6l0.1 -1.2l-0.8 -0.6l-0.5 -1.4l0.2 -4.6l0.9 -1.6l21.3 -47l46.3 -22.8l17.8 -37.5l24.6 -21.4l5.3 -12.3l-7.1 -42.2l9.5 -10.1l-4.1 -5.1l24.4 -7.9l-121.6 -6.8l-7.5 -0.3l-123.4 -4.3l-79.7 -5.7l-5.7 -0.4l-88 -4.7l-0.2 0l-50.5 -3.3l-251.9 -13.3l-35.5 -1.2l-1.6 -0.1l8.9 20.1l-38.9 52.9l-27.1 67.7z" />
  </g>
  <g data-id="041">
    <path d="m6131.2 2097.3l0 0l1.8 23.8l22.1 34.7l23.1 -8.5l106.2 -0.2l110.1 9.7l21.1 10.9l0.5 23l131.7 -3.5l-2.4 -389l-0.6 -12.7l-46.2 -6.2l-22.9 -20.1l-33.1 -19.2l-21.9 -30.4l-7.2 -28.1l-13.3 2.6l-7.7 -22.3l5.2 -24.9l-13.3 3.6l-15 -14.7l-11.3 5l-41.5 29.5l-41.1 2.4l-21.7 36.7l5.5 30.8l-19.2 32.4l-4.1 27.7l-35.8 4.1l-19.4 22.3l19.7 22.4l-19.2 12.5l-19.3 48.5l14.7 15l-14.7 27.6l13.6 38.4l-17.3 -4.5l-8.8 51.3l9.6 12.3l-6.8 34.8l-21.1 22.1z" />
  </g>
  <g data-id="043">
    <path d="m7986.3 5968.4l0 0l-4.5 389.5l140.1 1l0.1 -21.7l32.3 0.2l-0.4 21.4l644 -0.2l78.5 -279.9l19 -289.5l-9.9 -21.1l-15.6 7.4l-25.9 -15.8l4.5 -20.9l-14 -1.2l-30.5 -23.6l-27.8 -7.1l-272.7 1.8l1.1 129.9l-130.7 0.9l0.6 130.9l-388.4 -1.8z" />
  </g>
  <g data-id="045">
    <path d="m2917.6 1766.6l0 0l-1.9 20.9l5.2 43.9l21.2 89.9l23.1 63.6l14.3 26.4l22.1 32.2l6.4 -11.2l5.4 -7.3l32.1 -14.4l37.4 -3.9l40.8 4.2l45.7 4.9l3.4 -17.4l21.3 -32.7l127.3 -99.4l39.7 12.4l13.8 -24l38.6 6.5l4.4 -18.5l20.3 -22.7l-1.2 -24l-14.7 -10.4l-11.4 -69.4l-13.3 -26.1l-3.2 -26.1l47.1 -61.7l-9.9 -31l-5.4 -23.4l-27.8 -6.3l-4.4 -15.6l-23.6 -5.3l-17.5 -15l-37.4 -12.9l-28.4 -30.5l-2.1 -65.1l-22.6 -9l12 -11.2l-5.5 -16.9l24.9 -13.6l-19.4 -5.7l15.4 -34.4l-8.7 -27l8.2 -27.8l23.6 -27.7l-351.7 -2.1l-8.7 0.6l-2.2 271.1l3.6 149.3l5.2 5.2l27.6 33.4l21.9 40.9l13.7 34.4l5.7 5.1l9.6 1.4l9.9 9.2l6 10l-2.5 2.6l0.3 12.6l4.1 12l8.6 5l3 4.6l1.7 16.6l-6.1 109l-22.9 41.5l-21.9 9.4l-21.9 -7.8l-12.5 -20.3l-15.6 -65.6l-10.9 -53.1l-3.1 -43.8l1.6 -42.2l0.7 -50.4l-24.7 19.3l-10.2 19.5l-3.9 15.6z" />
  </g>
  <g data-id="047">
    <path d="m5737.6 564.6l0 0l20.7 70.3l-8 8l8.9 32.9l-6.3 10.1l18.3 19.5l9.7 38l-5.6 64.1l23.5 7.8l10.8 18.6l-5.5 49.5l19.2 14.5l15.5 -4.6l20.4 10.2l11.9 38.1l16.5 -23.3l4.2 -25.5l27.2 -3l16.4 -20.5l50 -8.3l10.8 18.8l54.7 -7.8l35.2 12.3l7.2 -10l25.4 15.8l21.8 2.3l76.4 56.7l2.9 -11.8l22.5 3.2l-6 17.3l14.9 14.6l32.9 10.3l16.7 26.4l16.1 -8.8l27.9 14.8l14.8 -11l6.7 11l8 19.8l33.5 -10.4l21.4 20.5l10.9 -12.7l18.2 -12.2l9 18.9l19.3 -17.1l17.4 -0.8l11.1 -14.8l-6.9 -14.7l32.2 -27.3l5.9 -32.2l14 -5l-7.3 -52.8l-23 -22.8l6.7 -13.7l-19.9 -11.7l-2.4 -15.3l-21 -5.6l-13.1 -48.5l-9.4 1.6l-16.7 -38.1l17.5 -2.3l-16.1 -41.8l26.2 -22.9l0.1 -15.3l22.5 -20.5l-12 -0.8l-0.4 -0.1l-234.6 -16.4l-2 -0.1l-332.2 -22.2l-6.8 -0.6l-25.8 -2.3l-9.4 -0.6l-14.6 -0.8l-17.1 -1.2l-111.6 -7.6z" />
  </g>
  <g data-id="049">
    <path d="m7339.4 5061.3l0 0l-1.8 456.8l259 -3l387.7 -0.6l0.7 -453.7l-645.5 0.4z" />
  </g>
  <g data-id="051">
    <path d="m7981.8 6358l0 0l-0.5 88.4l1.6 160.7l1.7 120.4l0.1 7.6l122.8 -0l69.1 -4.3l192.2 -1.2l4.2 387.6l511.3 -9.4l-1.9 -109.1l-0.9 -15.1l2.5 -2.9l-7.9 -584.6l0.6 -317.2l-78.5 279.9l-644 0.2l0.4 -21.4l-32.3 -0.2l-0.1 21.7l-140.1 -1z" />
  </g>
  <g data-id="053">
    <path d="m6516.1 3853l0 0l7.4 22.8l-4 11.4l-1.2 1.4l51 -0.6l246 0.1l262.3 -1.6l2 -65.8l259.4 0.6l0.3 -64.3l-17.5 -15.1l-38.6 9.1l-16.2 -27.7l-28 -3.8l-9.6 -28.6l-23.9 -11.7l-12.1 14.1l-41.7 -17.4l-19.5 2.2l-12.8 -28.7l-51.5 -66l4.9 -17.5l-23.3 -10.8l15.5 -17.1l-203.5 2.6l-0.7 -43.4l-117.1 0.3l-212.4 0.6l-7.6 70l14 61.4l13 23.6l-3.8 34.2l-6 20.8l-0.1 6.6l6.6 7.4l-7.9 18.7l-1.4 3.2l-5.7 3l-1.8 12.5l-1 28.6l4.9 5.1l2.5 12.8l-0.8 6.5l-9.7 29.5l-10.5 11.3z" />
  </g>
  <g data-id="055">
    <path d="m7984.9 5060.9l0 0l-0.7 453.7l1.9 453.6l0.1 0.2l388.4 1.8l-0.6 -130.9l130.7 -0.9l-1.1 -129.9l272.7 -1.8l27.8 7.1l-15.1 -27.8l-24.3 10.7l-14.7 -20.8l1.5 -22l-15.8 -5.8l-7.9 -18.7l1.1 -47.7l-8.3 -10.2l-27.1 0.3l-14.1 -38.7l-14.1 -14.2l15.7 -12.3l-0.4 -19.7l-22 -5.7l1.5 -11.3l-24.2 -17.3l-29.3 -2.2l-10.2 7l-35.2 -21.5l-22.1 -34.2l4 -25.7l-20.4 -29.7l-18.8 -8l-19.4 -36l-28.7 -9.6l9.1 -29.8l-20.8 -27.7l31.1 -41l16.7 -1.5l29.7 -50l17 -10l-3 -27.9l3.4 -39l-509.9 -4.7l-44.2 -0.3z" />
  </g>
  <g data-id="057">
    <path d="m6554.5 4277.1l0 0l0.7 42.3l2.7 158.5l0.1 27.3l9.7 5.3l20.3 24.8l65.3 45.7l29 3.6l16.7 26.8l9.9 23.8l3.2 43.3l-5.9 8.8l-7.8 6.4l-1.4 4.6l4.6 8.3l12.4 11.2l-4.3 10.1l-7.1 8.6l-18.8 3.3l-1.4 21.2l56.2 30.4l28.1 8l19.2 2.4l3.7 -2.3l4.7 -30.8l-3.7 -6l-11.2 -8.8l-10.4 -15.4l0.8 -46.8l-4.9 -29l1.7 -7.6l15.5 -12l21 11.3l3.2 4.7l-0.5 7.9l11.1 6.1l18.5 6.7l6.8 2.5l24.2 -0.1l14.9 28l6.8 46.1l5.4 21l-0.1 0.4l-12.3 36.5l-10.5 2.7l-9.9 11.4l-0.9 14l-19.6 29.3l2.6 8.9l-3.5 5.6l-30.1 17.5l-27.4 9.4l-5.2 5.4l6.8 11l1.1 7.9l-1.8 10.3l-6.3 4.6l-13 1.1l-3.3 0.3l-25.5 19.9l-13.4 21.6l-16.7 26.9l-22.7 41l38.7 -0.2l0.3 0l93.4 -0.7l525.3 -0.7l-0.7 -388.5l-0.5 -28.8l-0 -0.1l-0.2 -38.2l-1 -141l-0.5 -97.9l0.3 -87l-65.2 -0.1l-202.4 0.3l-176.6 0.3l-21.7 0.1l-28.8 0.2l-38.2 -1.1l-16.9 -0.2l-232.6 -2z" />
  </g>
  <g data-id="059">
    <path d="m2104.1 11.6l0 0l-3.4 442.3l254.1 2.2l28.7 -54.6l-13.4 -17.9l14.6 -61.7l41.3 0.6l50.3 0.8l-0.1 21.6l22.2 0.6l-1.2 44.3l153.9 3.8l-1.5 -39.9l22.3 -40.7l4.3 -52.1l6.6 -44.3l25.4 -60l36.6 -51.5l23 -10.9l1.4 -53.9l41.1 -34.5l-0.5 0l-106.7 0.8l-223.9 1.7l-0.4 0.7l-188.9 2.1l-138.2 0.9l-47.8 -0.7z" />
  </g>
  <g data-id="061">
    <path d="m8881.8 4799.6l0 0l2 132l9.1 135.8l125.1 -1.3l1.2 125.3l128 0.4l435.8 1.8l35.7 -0.2l-4.5 -17.5l-8.2 -42.1l-17.6 -27.7l-8.1 -18l-1.5 -21.2l-42.1 -144.7l-83.5 -177.9l0.1 -1.5l-10.3 9.1l-47.6 0.1l-23.7 48.4l-473.2 -0.7l-16.7 0z" />
  </g>
  <g data-id="063">
    <path d="m2683 216.8l0 0l-6.6 44.3l154.7 1.6l-0.6 66.8l66.3 0.7l-3.8 245.8l0.5 87.4l66.9 1.1l278.9 3.8l5.5 -66.7l309.3 2.4l32.1 -20l27.1 -67.7l38.9 -52.9l-8.9 -20.1l-6.8 -15.8l-7.5 -8.6l-11 -7.8l-1.8 -3.7l-3 -10.4l-11.3 -13.5l-2 -1.2l-3.4 -0.8l-3.8 0.2l-4.2 1.8l-6.3 -0.9l-3.2 -1.7l-1.1 -2l-0.9 -11.6l-6.7 -7.3l2.8 -9.3l0.8 -5.8l-0.8 -3.4l-11.4 -18.5l-2.1 -4.4l-0.9 -6.4l1.4 -8.4l-0.5 -3.5l-3.4 -8.3l-5.9 -10.3l-0.8 -5.3l0.6 -6l0.4 -9.6l1.4 -4.8l2.9 -5.3l3.3 -4.3l1.4 -3.4l0 -2.7l-0.6 -3.9l-1.7 -3.1l-4.2 -4.1l-2.7 -4.4l-0.2 -6.3l1 -3.4l0.8 -4.1l-0.8 -3.4l-1.4 -3.1l-2.7 -4.6l-0.8 -3.9l1 -4.3l2.7 -4.3l0.2 -5.8l-1.9 -3.4l-1.7 -1.4l-2.5 -1.7l-1.8 -1.5l-1.6 -1.2l-9.3 -13.6l-3.6 -7.5l-5 -8.1l-13.9 -14.9l-3.6 -7.2l-2.1 -9.5l-5.5 -4l-7.1 -2.9l-3.3 -3.2l-0.7 -3.4l0.8 -8.6l1.1 -6.6l3.4 -12l0 -6.6l-0.7 -3.5l-3.2 -6.6l-3 -2.9l-4.2 -2l-12.6 -3.7l-2.9 -0.5l-0.1 0.5l-5.4 -3.5l-1.4 -1.9l-1.1 -3.6l-0 -4.2l4.5 -10.9l1.1 -15.6l-0.1 -5.5l-0.8 -0l-28.6 0l-4.5 0l-3.4 0l-1.4 0l-27.5 0.1l-3.6 0l-3.6 0l-116.1 -0.2l-8.2 -0.3l-0.2 0.1l-2.9 -0l-117.3 -0.1l-321.6 5.8l-12.8 0.2l-41.1 34.5l-1.4 53.9l-23 10.9l-36.6 51.5l-25.4 60z" />
  </g>
  <g data-id="065">
    <path d="m4681.2 1111.7l0 0l-0.7 271.1l17.2 -9l18.8 -2.8l32.1 -0.1l31 10.7l12 18.7l-0.8 -18.7l31 -60.8l-5.8 -15l16.7 -9.7l11.9 -51.5l26.7 -4.3l17.3 -39.4l2.7 -45.9l17.6 -3.7l27.3 -30.5l32.5 -8.7l25.4 -11.3l22.9 -34.7l-0.4 -14.6l36.3 -8.9l7.7 -19.3l-22.3 -32.6l-3.4 -28.3l15.3 -21.9l8.7 5.9l40.9 -5l8.1 -33.7l38.6 -40.8l-8.7 -30.9l0.8 -54.4l-12.1 -26.5l14.4 -23.5l28.5 -0.1l0.1 -23l43.7 0.1l-0.1 -22.7l44.3 0.3l0.1 -22.6l21.2 0.2l0.6 -22.3l21.8 0.1l-0.3 -86.1l-9.6 -19.9l-0 -0l-82.1 -5.3l-3.6 -0.2l-88 -5.3l-88 -5.3l-13.6 -1.1l-45.2 -2.8l-32 -2.1l-0.9 -0.1l-0.1 0l-167.1 -9.6l-0.3 96l12.3 56.1l25.4 33.4l2.1 43.4l-83.8 0.5l-0.2 73.8l-43.9 59.9l-1.1 244.9z" />
  </g>
  <g data-id="067">
    <path d="m5611 1243.2l0 0l-3.1 454.7l23.5 0.1l0.2 99.5l44.7 -0.6l473 -4.2l50.8 1.9l35.8 -4.1l4.1 -27.7l19.2 -32.4l-5.5 -30.8l-20 -20.3l-16.6 3.2l-24 -35.2l7 -13.3l-13.5 -41.5l-26 -1.4l-12.9 -25.6l-3.6 -27.2l-19.1 -19.8l-33.6 -7.1l-13.3 -32.4l-37.1 -34.1l-32.9 -16.4l-4 -24.1l-54.7 -14.7l-7 -20l-20.9 10.7l-37.1 -19.5l-32 23.7l-21.3 -17.6l-14.6 4l-17.8 -15.4l1.4 -33.4l-18.4 -25.4l7.4 -25.4l-20.9 -23.1l-1.6 -25.4l13.1 -40.9l-17 -17l7.6 -33.4l-157.8 0.4l0.6 90.3l-2.3 21.1z" />
  </g>
  <g data-id="069">
    <path d="m7471.1 3711.5l0 0l-4.5 308.9l131.7 -1.2l-0.1 -23.8l87.8 0l0.2 23.1l175.5 -1l-0.3 -190l0.3 -108l-0.1 -10.5l0.4 -14.9l11.7 -31.1l-11.9 -12.8l-1.6 -221.4l-0.3 -39.9l15.9 -28.5l305.2 1.4l-3.2 -59.5l44.6 -41.2l21.1 -40.9l18.6 -26.2l-0.2 -74.5l-19.9 -13.8l9.6 -32.1l8 -12.1l-26.4 -12.9l-10.2 -22.5l-12.5 -17.5l-52.8 -36.8l-19.1 -26.9l-11.9 -2.5l1.8 -27.1l-15.7 -22.2l-29.6 5.3l-17.4 -6.9l-3.3 -39l-35.2 -79.7l-29.4 -17.2l-9.6 -18.3l-42.3 1.8l-28.4 -11.3l-6 -33.3l-19.3 -24.4l-10.4 -48.2l1.3 162.7l2.9 182.2l-27 0l0.7 131.5l-49.1 0.4l-30.3 -1.6l-56 0.3l-105.9 -0.1l-8.7 1.8l-138.6 -0.3l0.8 185.7l-0.8 397.6l-0 29.3z" />
  </g>
  <g data-id="071">
    <path d="m7174.4 6465.3l0 0l-2.3 22l41.6 40.6l15.9 24.5l20.4 85.4l4.5 27.1l9.1 29.6l8.3 83.7l14.4 0l30.2 -12.7l19.5 -1.8l-13.5 -28.7l-1.4 -26.2l12.2 -23.3l1.1 -2.1l21.7 33.9l0.5 0.8l34.1 -5.9l8.2 34.7l-6 21.1l6.2 10l15.7 -1.2l21.4 5.7l14.7 6.5l4.3 16.8l-1.2 3.2l3.8 7.2l10 8.2l23.9 10.7l19.5 12.3l15.7 14l11.8 16.2l1.1 7.8l18.4 20.1l24.9 27.2l30.4 70.8l35.1 -0.1l0.1 20.8l85 -0.7l10.8 -0.2l116.1 -1l-0.6 -152l126.5 -2.2l-2.1 -133.3l-0.1 -7.6l-1.7 -120.4l-1.6 -160.7l0.5 -88.4l-480.3 -0.7l-0.3 -0l-171.9 -0.6l-6 40.9l-17.4 38.1l-6.8 21.2l-2.3 25.4l-6.6 22.8l-1.7 5.9l-9.1 4.2l-8.3 -6.8l-16.6 -34.7l-9.1 -12.7l-17.4 -5.1l-16.6 -1.7l-28.7 3.4l-8.3 7.6z" />
    <path d="m7063.2 6462.6l0 0l-4.8 23.1l6.6 13.8l-3.5 26.6l17.2 31.3l12.5 64.1l20.3 35.9l12.5 26.6l29.7 82.8l19.5 22.6l4.9 6.9l5.4 5.7l31.8 17.9l29 28.2l37.6 16.6l20 4.3l10.4 0l15.7 -5l64.7 -39.1l0.3 -3.2l-2.5 -0.9l-30 -3l-31.8 -19.4l-18.9 5.9l-15.1 16l-41.6 -27l-15.1 -5.1l-23.4 -0.8l-21.9 -17.7l-15.1 -18.6l-12.9 -37.2l-12.1 -47.3l-23.4 -63.4l-5.3 -34.5l-25.1 -52.3l-12 -31.6l0.8 -7.6l4.5 -8.5l-5.3 -17.8l-11.3 -2.5l-0.8 7l-11.3 7.3z" />
    <path d="m7053.6 6328.5l0 0l2.9 7.1l6.3 41l-3.7 54l19.1 3.7l4 -66.6l9.9 -4.8l15.4 -7l14 2.8l-3.2 -18.9l-15.1 -1.8l-11.5 -3.7l-29 -5.4l-9.2 -0.1z" />
  </g>
  <g data-id="073">
    <path d="m3840 1021.1l0 0l18.4 20.9l-16 29.2l440.3 -3.9l4.8 -1.1l117 0.2l41.6 0.2l17.2 44.1l217.9 1l1.1 -244.9l43.9 -59.9l0.2 -73.8l83.8 -0.5l-2.1 -43.4l-25.4 -33.4l-12.3 -56.1l0.3 -96l-0 -0l-42.5 -2.6l-2.8 -0.1l-6.3 -0.5l-14 -0.8l-34.8 -1.7l-31.6 -1.5l-22.6 -1.9l-164.4 -9.3l-41.2 -1.7l-1.6 -0.1l-24.4 7.9l4.1 5.1l-9.5 10.1l7.1 42.2l-5.3 12.3l-24.6 21.4l-17.8 37.5l-46.3 22.8l-21.3 47l-0.9 1.6l-0.2 4.6l0.5 1.4l0.8 0.6l-0.1 1.2l-0.9 0.6l-0 1.2l-1.2 3.1l-1.3 5.4l-0.9 3.5l-0.1 2.3l-0.7 1.5l-0.2 1.9l0.7 1.2l0.1 1.9l2 -0.3l0.9 0.4l-1.1 1l-0.1 1.3l0.4 0.9l1.4 0.9l0 0.7l-21.9 28.2l10.2 37.3l-14.1 15.6l-16.5 14l-130.6 18.9l-12.6 16.3l-39.6 10.4l-2.6 -5.9l-9.7 16.9l-29.6 23l-20.5 -6.7l-53.6 32.8l1.7 9.7l-43.4 30.6l-7.2 27.6l-39.8 26z" />
  </g>
  <g data-id="075">
    <path d="m5877.3 2603.9l0 0l7.1 3.4l14.4 -4.8l4.4 0.9l24.2 9.7l3.2 5.9l23.8 15l24.3 3.6l15.5 16.8l3.3 11.1l-17.2 47.6l11.6 29.3l18.1 18.8l5.4 12.6l0.3 7.8l-9.6 26.8l15 10.3l4.8 23.2l29.9 -4.8l15 -11l1.1 -15.2l29 -40.1l5.9 -3.9l5.9 0.9l10 12.5l6.4 1.4l38.6 4.7l17 -0.1l12.9 -2.8l46.6 12.1l38.2 -0.8l40.9 5.8l29.4 17.8l-1.3 25.3l9 23.1l-0.3 5.8l-2.7 8.3l-10.9 0.7l-18.6 8.6l8.9 34.1l47.8 4l-3.6 13.5l31.1 15.7l8.1 41.7l-7.7 29.9l-6.2 10.4l4.6 10l2.2 -0.3l4.6 -12.9l36 -19.5l21.1 -24.1l29.2 -4.7l18.9 11.7l30 4.8l52.7 20.7l13.8 -6.3l11.2 -24.9l21.9 3l54.4 -25.3l1 -255.7l124.7 -0.8l48.4 -0.6l-2.9 -219.4l-1.5 -187.2l-118 10.1l-79.5 -2.5l0.3 -48.2l-1.4 -38.7l-129.9 3l0 -44.1l-131.7 3.5l-0.5 -23l-21.1 -10.9l-110.1 -9.7l-106.2 0.2l-9.4 13.5l-7.3 39.6l-34.1 22.4l8.6 28.7l-15.8 7.1l-3.9 70.5l-21.7 13.4l-33.2 63.6l4.2 31.3l-17.1 16.7l-39.1 23.4l3.1 16.4l-11.6 12l15.2 6.6l-39.3 25.2l-11.1 -6.2l-7.5 17.2l-19.7 12.5l-26.4 -10.3l-11.1 24.5l-23.8 28.5z" />
  </g>
  <g data-id="077">
    <path d="m3274.8 1376.7l0 0l-12 11.2l22.6 9l2.1 65.1l28.4 30.5l37.4 12.9l17.5 15l23.6 5.3l4.4 15.6l27.8 6.3l5.4 23.4l26.6 -60.2l-3.1 -4.3l609.2 4.3l-61.3 -28.3l-24.6 -45.7l-21.4 -4.1l-15.5 -32.4l-21.9 -24.6l8 -12.4l-28.8 -30.6l-2.9 -33.8l5.6 -48.2l-13.2 -9.1l-4.8 -45.1l-25.2 -21.7l3.7 -19.5l-52.1 -31.8l10.5 -31.3l21.8 -21.3l16 -29.2l-18.4 -20.9l39.8 -26l7.2 -27.6l43.4 -30.6l-45 0.5l0.1 -44.7l-44.2 0.1l0 -65.9l-88.1 0.9l-0.9 -89.9l-44.5 0.3l-0.3 -22.3l-87.9 -0l-0.9 -110.7l-64.7 -1.2l-16.3 16.7l-2.5 23.8l-24.5 -0.5l4.2 25.4l-15.1 16.2l-21.4 43.1l-1.3 31.3l-11.7 48.7l16.4 11.5l-16.4 13.3l22 21.9l-42 11.4l-23.4 21.4l24.5 17.2l-17.1 5.2l16.7 17.3l-15.3 28.5l-18.4 5.3l16.2 17.1l-19.6 12.8l-9.2 24.3l4.6 24.9l15.8 11.7l-17.5 -0.5l-12.7 17.5l5.9 21.2l-14.7 25.2l6.4 11.6l-23.2 18.6l-6 34.2l-14.1 1.5l-14.3 24.1l-20.1 1.9l3.4 16l-23.6 27.7l-8.2 27.8l8.7 27l-15.4 34.4l19.4 5.7l-24.9 13.6l5.5 16.9z" />
  </g>
  <g data-id="079">
    <path d="m5016.6 1051.5l0 0l0.4 14.6l462.2 -1l-0.7 66.8l134.2 -0.1l157.8 -0.4l25.3 -58.9l23.8 -19.1l-3.7 -49.5l19 -6l7.8 -40.5l28.1 -15.8l-11.9 -38.1l-20.4 -10.2l-15.5 4.6l-19.2 -14.5l5.5 -49.5l-10.8 -18.6l-23.5 -7.8l5.6 -64.1l-9.7 -38l-18.3 -19.5l6.3 -10.1l-8.9 -32.9l8 -8l-20.7 -70.3l-48.5 -3.3l-0.4 -0l-2.9 -0.2l-38.6 -2.7l-21.9 -1.5l-28.7 -2l-13.9 -1l-51.8 -3.3l-0.1 0l-13.7 -0.8l-11.7 -0.6l-67.1 -5l-147 -8.5l9.6 19.9l0.3 86.1l-21.8 -0.1l-0.6 22.3l-21.2 -0.2l-0.1 22.6l-44.3 -0.3l0.1 22.7l-43.7 -0.1l-0.1 23l-28.5 0.1l-14.4 23.5l12.1 26.5l-0.8 54.4l8.7 30.9l-38.6 40.8l-8.1 33.7l-40.9 5l-8.7 -5.9l-15.3 21.9l3.4 28.3l22.3 32.6l-7.7 19.3l-36.3 8.9z" />
  </g>
  <g data-id="081">
    <path d="m6430.1 5220.9l0 0l3.6 11.5l24.3 25.9l13.2 19.6l8.8 19l22.1 64.2l-1.1 10.5l22 19.1l42.5 51.2l109.8 1l19.6 0l1 -0l15.9 0.4l12.5 -0.1l96.2 0.4l2.4 0l0.1 3.7l1.6 -0l1.7 0l11 -0.3l242 0.2l-1.7 260.1l5 2.4l254.2 1.6l1 -193.1l1.8 -456.8l-525.3 0.7l-93.4 0.7l-0.3 0l-38.7 0.2l-5.4 9.8l-9.4 34.1l-6.5 10.1l-18.4 19.1l-15.6 2.9l-20 13l-1.4 2.9l-0.3 0.7l1.3 17.2l-26.3 28.7l-18.4 27.2l-6.2 15.5l-14.9 0.4l-16.6 4.7l-11.8 9.6l-4.3 7.6l0.7 16l-5.3 1.2l-16.6 -2.3l-6.7 -37.9l-45.1 -23.5l-4.4 0.8z" />
  </g>
  <g data-id="083">
    <path d="m6707.5 2715.7l0 0l-1 255.7l36.1 11.1l27.6 -16.4l37.6 1.1l41.5 39.5l10.8 12.2l22.9 -8.1l10.4 15.9l40.4 13.6l-0.5 3.7l1.5 1.2l-0.1 2l0.7 1l0.8 0.4l2.9 0.1l1.4 0.3l1.7 2.2l1.4 0.5l3.8 0.2l2.8 2.6l1.3 1.7l1.3 0.8l2.2 0.2l1.5 1l3.5 -0.3l1.3 -0.9l0.7 0.1l39 41.2l284.8 0.4l185.4 0.1l138.6 0.3l8.7 -1.8l105.9 0.1l56 -0.3l30.3 1.6l49.1 -0.4l-0.7 -131.5l27 0l-2.9 -182.2l-1.3 -162.7l-18.1 -34.9l-23.1 -10.1l-10 -26.8l7.2 -21.4l25.2 0.6l-16.1 -50.5l-95.9 1l-0.5 -88.9l-43.5 1l-1.7 -87.9l-87.6 1.4l-0.3 -52.1l-23.9 9.2l-59.9 1l-4.3 14.2l-28.8 -17.5l-42.5 19.1l-52.9 3.2l-36.4 15.6l-31.4 30.4l-1.1 47.2l-19.1 -5l-30.6 19.5l-7.1 17.3l-1.6 -29.3l-22.8 15l-22.4 -9.5l-12.6 25.1l-8.2 -13.2l-55.8 8.8l-24 -13.8l0.2 -54.4l25.8 20.7l3.5 -13l-28.8 -34.8l-256.9 -1.6l1.5 187.2l2.9 219.4l-48.4 0.6l-124.7 0.8z" />
  </g>
  <g data-id="085">
    <path d="m9150.3 5838.5l0 0l-273.8 240.2l401.7 1.5l65.8 -0.2l476.6 2.1l1 0l33 -0l0.2 -21l82 0.6l-18.9 -71l-30.1 -79.5l-28.7 -57.8l-14.7 -47.3l-12.8 -29.2l1.7 -1.8l6.4 -7l-10.6 -34.8l-41.6 -83.9l-8.2 -19.9l-111.3 -1l-2.1 85.4l-60.9 0.4l-196.7 -1l-258.4 0.6l0.6 124.7z" />
  </g>
  <g data-id="086">
    <path d="m9686.2 8432.9l0 0l5.9 -2.9l4.1 0.4l7.8 4.8l3.8 8.9l2.5 3l1.8 -3.2l61.1 -101.5l35.7 -104l0.8 -51.4l-31.8 52.1l-64.9 131.7l-26.8 62z" />
    <path d="m8892.9 7975.5l0 0l-0 440.4l14.5 -0.3l5.5 176.3l0 96.5l11.9 -2.4l10.8 2.1l24.2 3.7l13.3 -17.1l23.1 5.3l12.4 19.5l49.2 31.2l5 -3.4l0.6 -20.6l25.1 -3.4l15 20.5l13.1 -2l33.5 -22.9l17.9 -26l33.1 -5l38.3 -14.1l29.1 -0.5l5.5 -0.8l18.7 -2.6l35.3 -4.9l27.3 -22l9.3 3.4l12.7 18.3l12.5 9.8l-7.7 -15l18.4 4.4l-9.2 -29.1l14.9 3.4l42.3 -22.5l41.8 5.7l10.4 -24.9l21.1 -0.1l-0.2 -28.2l21 -21.7l0.2 -26.2l3.5 0l2.9 -16.7l16.4 -14.7l12.1 -3.5l22.6 -12.9l32.8 -50.1l4.7 -16.4l-4.7 -7.8l-13.3 -2.6l-7 -9.5l-0.8 -36.3l7.8 -20.7l-10.1 -8.6l-11.7 -32.8l-3.1 -19l0 -30.2l14 -48.4l4.1 -3.2l0.8 -0.6l0.6 -0.5l14 -5.2l15.6 -41.5l-4.7 -11.2l0 -25.9l5.5 -29.4l6.2 -13l10.9 -12.1l14.8 -9.5l13.3 -21.6l1 -5.9l0.6 -3.6l20.3 -43.3l7.8 -42.4l5.5 -10.4l14.8 -12.1l41.3 -17.3l17.2 -1.7l15.6 11.3l8.6 13l2.3 10.4l-7.8 16.4l-8.6 37.2l21.1 29.4l7.8 -0.9l3.5 -16.4l-2.3 -9.5l1.6 -28.6l11.7 -55.4l8.6 -13.9l1.5 -3.9l5 -12.9l5.9 -15.2l0.8 -27.7l7 -39l3.1 -33.8l-1.2 -46.1l-0.4 -15.5l3.9 -47.7l0.1 -86.8l-8 1l-31.6 0.1l-0.3 0l-23.2 0.9l-53.3 1.6l-30.7 0.5l-22.5 0.7l-63.7 1.9l0.3 20.2l-20.6 -0.6l-21.2 0.1l-63.5 0.1l-0.1 0l-74 0.2l-10.6 0.2l-316.5 -0l-0 -32l-253.7 -1l-0.2 254.5l-0 65l-0 138.2z" />
  </g>
  <g data-id="087">
    <path d="m9162.1 9078.5l0 0l14.2 15.3l113.3 -81.8l104 -106.8l57.4 -66.8l54.9 -45l64.3 -71l40.5 -102.6l57.2 -96.8l42.4 -75.9l-2.5 -3l-3.8 -8.9l-7.8 -4.8l-4.1 -0.4l-5.9 2.9l-2.4 5.6l-24.2 42.4l-63.3 42.5l-36.3 6.8l-14.7 -24.4l0.9 -5.4l-3.5 -0l-0.2 26.2l-21 21.7l0.2 28.2l-21.1 0.1l-10.4 24.9l-41.8 -5.7l-42.3 22.5l-14.9 -3.4l9.2 29.1l-18.4 -4.4l7.7 15l40.6 -13.5l28.4 28.8l-23.9 40l-0.3 42.6l-9.8 58.8l-36.7 65.4l-63.2 50.6l-71.1 66.7l-91.6 84.4z" />
    <path d="m9052.7 9151.9l0 0l26.6 20.3l39.1 -23.4l23.4 -31.3l-12.5 -26.9l-6.7 -14.1l-8.1 15.4l-32.1 38.1l-29.7 21.9z" />
    <path d="m8922.2 9229.5l0 0l0.7 1.6l5.5 -0.5l33.7 2.6l32.2 -15.6l7.3 -8.5l2.9 -9.3l10.1 -23.6l-16.1 -4.9l-31.9 10.4l-21.9 18.8l-21.9 7.8l-0.8 21.3z" />
    <path d="m8562 9369.4l0 0l23.8 26.6l38.6 -1.7l70.4 -39l142.2 -61.1l9.5 -25.8l-37.7 -11.8l-67.9 36l-69.6 24.4l-56.3 27.1l-53.1 25.2z" />
    <path d="m8109.9 7775.3l0 0l58.5 14l12.6 14.9l40.2 9.9l2 39.8l35.5 30.3l-1 36.8l7.1 20l16.2 -4.5l34.6 -14.6l28.4 22.5l1.2 43.1l21.8 29.2l1.8 34.5l40.7 22.3l9.8 18.2l0.5 19.3l9.4 21.7l21.4 14.4l6.5 14.1l1.6 6.9l-9.2 25.2l2.6 17.4l21.4 29.4l16.5 13.6l14.1 16.9l28.8 81.9l-0.5 4.8l-4.6 7.4l0.2 17.4l12 8.6l17 1.2l14.8 37.2l-1.2 14.2l-4.2 9.4l-16.4 -6.2l-8.1 2.7l-10.5 12.1l-5 11.7l3.9 9.7l-4.5 18.2l-9.2 10.1l-3.7 12.7l-8.2 53.3l-3.4 10.6l-1.5 34.3l21.8 20.6l11.5 21.7l5.9 14.7l1.6 27.8l9.8 11l17 5.8l11.4 9.9l22.9 26.8l19.3 12l38.6 -13.8l36.2 -1.6l17.6 5.8l13.7 1.7l36.1 -14.1l18.9 -2.5l18.7 1.8l35.9 -10l20.2 2.4l2.2 -11.6l-3.6 -8.9l2 -12l32.4 -17.9l22.7 -3.3l0.2 -0l-0 -96.5l-5.5 -176.3l-14.5 0.3l0 -440.4l0 -138.2l0 -65l-619.5 3l-163.5 0z" />
    <path d="m7658.6 9569.6l0 0l-1.1 33.7l49.1 -7.1l118.3 -12l26.4 -21.1l27.6 -2.4l42.5 -15.4l69.3 -34.7l54.9 -16.9l12.4 -30.6l40.4 -4.7l43.9 4.3l41.3 -5.9l14 33.5l51 -10.7l65.8 -23.6l72.8 -24.7l19 -14l-64.6 -52.9l-16.7 -64.7l-26.4 -17.3l-69.3 -21.8l-86.4 -45.2l-71.8 30.1l-49.9 38.5l-46.1 13.9l-17.7 28.5l-115.4 53.8l-96.4 57.4l-20.7 25.8l-50.1 69.2l-16 36.8z" />
    <path d="m7391.3 9606.7l0 0l-1.6 31.3l57.8 9.4l79.7 -17.2l31.3 -35.9l17.2 -17.2l-15.6 -12.5l-42.2 14.1l-76.6 20.3l-50 7.8z" />
    <path d="m7194.7 9577.4l0 0l-1 16.2l7.6 5.7l56.1 -1.3l16.3 -17.4l6.6 -16.4l-2.1 -17.6l-4.1 -5.2l-27.7 -13.3l-13.4 0.8l-10.1 5l-10 24.7l-18.1 18.7z" />
    <path d="m6183.1 9477l0 0l-1.6 25l53.1 6.3l40.6 -19.2l-21.8 -27.7l-48.2 10.6l-22.1 5z" />
  </g>
  <g data-id="089">
    <path d="m7344.6 497.2l0 0l1.2 31.7l4.5 5.8l5.1 3.5l3.5 9.4l0.7 3.3l-1.1 6.1l3.1 5.9l4.8 5.6l7.1 11.9l2.6 13l-1 10.1l0.5 0.9l13.7 5.6l1 1.2l4.7 12.1l5.3 25.6l3.4 20.7l-10.2 20.5l-6.8 28.9l-0.7 11.2l2.5 6.8l1.5 1.8l1.4 7.9l-1.5 26.7l-3.1 5.2l1.2 6.8l0.4 13.5l-1 5.6l-7.8 11.9l-2.3 14.5l-3.6 15.8l-2.4 3.9l-8.1 9.8l-1.3 6l3.6 9.9l0.6 8.7l-7.8 12.3l-1.6 6.6l-1.1 10.2l1.1 9.8l7 17.6l-1.3 11.3l-5.2 11.8l-9.4 10.5l-2.7 1.3l1 135.5l15.4 -15.3l134.2 -137.9l137.1 -142.5l28.5 -26.1l19.2 -31.9l17.5 3.2l21.4 -23.1l2.1 -25.2l22.1 6.3l15.4 -17.3l-0 -25.8l18 -19.6l22.2 12.5l9.2 -9.2l37 9.7l3.6 17.7l23.1 -38.3l32.3 -14.4l26.2 2.1l-5.4 15.2l9.5 11l-16.8 8.1l5.3 12.2l23.8 -16.7l11.7 1.3l-7.3 21.4l15.2 19l28.9 -9.9l16.1 31.5l16.8 -3.7l11.7 -19.1l-3.2 -26.8l12.9 -16.8l19 5.4l25.8 46.3l38.3 21.7l10.6 14.2l11.5 -19.3l-11.2 -49.8l-0.7 -69.9l16.1 -104.6l4.5 -43.8l-7 -7.6l-15 -10.2l-6 0.6l-14.8 -1.7l-5.9 -0.9l-10.7 -3.5l-4.2 -2.2l-10.6 -14l-4.7 -3.4l-2.9 -0l-23.3 4.8l-11.7 1.1l-7 -0.5l-9 -1.3l-3 0.8l-3 1.9l-1.6 2.7l-0.6 2.9l-1.3 2.4l-2.8 3.1l-2.1 1.3l-2.1 0.2l-2.3 -0.4l-2.6 -0.6l-3 -0.6l-3 -2.5l-4.4 -1.5l-12 2.1l-5.9 -3.4l-6.8 -5.8l-3 -1.1l-17.2 -2.1l-9 -2.6l-9.9 -4.1l-3.7 1.3l-2.2 3l-2.6 5.2l-2.4 1.9l-10.7 -2.1l-2.6 -4.3l-1.6 -7.2l-1.5 -2.5l-4.2 -2.8l-5.9 0.9l-4.8 4.3l-16.9 3.1l-4 -1.7l-1.6 -1.6l-1.7 -3.9l-0.5 -5.1l0.6 -7l-0.5 -3.4l-3.2 -2.2l-2.6 -1.9l-7.4 -2.2l-3.2 -0.1l-3.6 1.4l-1.2 1.6l-1.4 5.1l-1.1 1.7l-3.6 2l-21.2 -3.8l-2.7 -2.2l-1.1 -1.8l-1.3 -4.8l-2.6 -2l-33.1 5.8l-9.5 -3.5l-6.7 -4.1l-13.8 -14.6l-0.5 -1.1l-0.5 -3.6l-1 -2.4l-1.1 -1.8l-1.7 -1.3l-1.7 -0.9l-4.9 -1l-5 -1.9l-5.6 -4.7l-5.3 -3.7l-6.3 -0.2l-3 2.3l-2.8 4.5l-3.2 1.8l-5.5 0.4l-4.6 -2.9l-2.2 -5.6l-11.1 -16.6l-18.3 -8l-2.5 -0.5l-24.3 1.7l-17.6 3.9l-2.2 -1.1l-5.6 -5.2l-8.3 -6l-21 2.6l-10.9 -10.4l-7.7 -8.6l-11.3 -16.6l-2.1 -5.1l-3.7 -2.8l-4.8 -0.9l-3.9 1.3l-1.9 2.8l-3.3 3l-6.1 1.7l-17.8 -2.6l-13.4 -4.4l-1 -1.1l-3.9 -7.1l-6.3 -2.6l-8.7 -0.1l-13.1 9.7l-3.2 4.9l-0.7 6.7l0.4 8l0.6 12.2l-0.7 6l-14.9 27.6l-6.7 3.1l-0.2 0.1l-2.9 -0.5l-9.6 -5l-3 -2.4l-5.4 -6.8l-13.2 -8.7l-3.8 -1.8l-12.1 2l-7.6 5.6l-1.3 2l-0.2 5.4l8.1 11.2l8.3 19.5l-1.4 2.8l-6.9 9.2l-13.8 6.6l-5.6 0.5l-4.4 -0.5l-3.9 2.7l-0.9 2.3l-0.5 15.6l-1.5 5l-3.5 7l3.7 7l2.4 2.9l2.1 6.9l1.5 18.4l-7.1 21.7l-11.3 24.6z" />
  </g>
  <g data-id="091">
    <path d="m1108 483.7l0 0l-8.2 455.8l43.7 -5.5l19.1 -2.4l155.1 -6.7l136.6 14.3l30.1 7l46.4 -2.4l77.3 5.4l19.4 2.7l7.5 -536.3l3.9 -405.1l-0.1 0l-4.3 0l-17.1 0.2l-65.5 0.4l-4.8 -0.3l-54.7 1l-16.9 -0.6l-9.3 0.7l-57.2 -3l-5.5 0.2l-127.7 0.9l-18 -0l-13 -0.1l-23.7 -0.2l-25.1 -3.3l-2.5 -0l-1.4 0.2l-22.2 0.7l-53.1 -1l-8.9 477.6z" />
  </g>
  <g data-id="093">
    <path d="m8444.3 5235.4l0 0l20.8 27.7l-9.1 29.8l28.7 9.6l19.4 36l18.8 8l20.4 29.7l-4 25.7l22.1 34.2l35.2 21.5l10.2 -7l29.3 2.2l24.2 17.3l-1.5 11.3l22 5.7l0.4 19.7l-15.7 12.3l14.1 14.2l14.1 38.7l27.1 -0.3l8.3 10.2l-1.1 47.7l7.9 18.7l15.8 5.8l-1.5 22l14.7 20.8l24.3 -10.7l15.1 27.8l30.5 23.6l14 1.2l-4.5 20.9l25.9 15.8l15.6 -7.4l9.9 21.1l-19 289.5l273.8 -240.2l-0.6 -124.7l-1.5 -393.6l-1 -128.5l-128 -0.4l-1.2 -125.3l-125.1 1.3l-353.8 -1.4l-3.4 39l3 27.9l-17 10l-29.7 50l-16.7 1.5l-31.1 41z" />
  </g>
  <g data-id="095">
    <path d="m7859.9 3389l0 0l0.3 39.9l1.6 221.4l11.9 12.8l-11.7 31.1l-0.4 14.9l0.1 10.5l-0.3 108l0.3 190l223.2 0l39.5 -1.6l49.7 0.4l131.6 -0.3l13.3 0.1l282.6 -0.1l304.8 0.9l-33.5 -56.8l7.1 -33.9l-23.9 -37.4l5.7 -29.4l-0.4 -0.2l3.2 -21l31.3 -7.1l-15.2 -29.7l2 -18l-23.4 -9.1l-46.6 -46.3l5.2 -33.1l-22.4 -33l-6.4 -30l-7.2 4.3l-39.1 -16.6l-186.4 0.7l-152.2 1.5l-9.5 -0.4l-39.6 0.9l-60.2 1.3l-0.5 -33.1l-0.3 -10.9l-114.1 -0.7l-39.7 0.1l-14.7 -0.5l-4.1 -3.4l0.1 -45.2l0.4 -61.4l23.1 -1.8l24.8 -33.6l11.1 -71.4l-305.2 -1.4l-15.9 28.5z" />
  </g>
  <g data-id="097">
    <path d="m7861.7 4017.6l0 0l0.1 123.4l-0 7.9l131.2 -0.2l8 15.4l35.9 71.7l-0.2 86.8l71.2 -0.7l0.6 0l17.6 0.1l0.6 86.9l143.8 0.3l-0.2 14.5l-26.6 19.9l4.1 35.6l-15.9 12.3l-8.8 25.5l-15.1 -23.3l-15.6 -1.4l-35.1 -21.3l-14.3 -23.7l-21.2 11.2l1 17.7l24.4 8.8l20.7 31.9l12 21.3l37.7 -7.7l13.5 37.3l35.1 21.6l17.3 21.1l-2.6 27.2l39.4 14.1l-8.2 30.7l11.6 22.4l5.6 35.8l27 6.9l29.2 17.1l38.2 5.4l28.9 31.6l15.5 45.1l30.7 46.5l-7.3 11.2l17.3 13.8l-4.5 24.8l30 23l-4 27.5l6.1 33l16.5 12.3l0.5 18l-14 9.1l353.8 1.4l-9.1 -135.8l-2 -132l16.7 -0l-0.6 -390.4l8.5 -10.7l1.9 -239.1l-2 -142.4l-304.8 -0.9l-282.6 0.1l-13.3 -0.1l-131.6 0.3l-49.7 -0.4l-39.5 1.6l-223.2 -0z" />
  </g>
  <g data-id="099">
    <path d="m8876.5 6078.8l0 0l-0.6 317.2l7.9 584.6l-2.5 2.9l0.9 15.1l767.7 -0.8l0.6 0l0.1 -30.9l62 20.4l60.1 20.1l44.4 0.1l0.2 0l0.5 -0l65.3 0l27.5 0.2l0.5 7l8.1 -5.1l23.5 7.8l3.4 -21l2.2 -1.6l10.9 -132l0.3 -3.7l0.4 -4.7l1.5 -18.4l13.4 -95.4l15.1 -87.9l3 -63.3l0.1 -4.6l0.5 -42.4l0.5 -46.4l2.8 -20.5l1 -37.5l-6 -75.3l1.4 -7.2l5.6 -0.4l0.4 -15.2l0.6 -21.3l-5.6 -26.3l-14 -66.4l-13.6 -51.1l-30.1 -113l-82 -0.6l-0.2 21l-33 0l-1 -0l-476.6 -2.1l-65.8 0.2l-401.7 -1.5z" />
  </g>
  <g data-id="101">
    <path d="m6361.7 4255.5l0 0l-9.6 23.3l139.5 -1.6l35.4 -0.1l27.6 0.1l232.6 2l16.9 0.2l38.2 1.1l28.8 -0.2l21.7 -0.1l176.6 -0.3l202.4 -0.3l-0.5 -130.7l66.6 0.5l-0.4 -80.4l0.4 -49.2l1.1 -198.4l-259.4 -0.6l-2 65.8l-262.3 1.6l-246 -0.1l-51 0.6l-7.1 8.1l-17.5 11.7l-11.7 28.2l0.3 49.7l-12.8 33.7l-3.2 4.7l-17.4 25.8l-5.3 36.9l3.5 12.6l-17.6 45.9l-16.9 10.7l-6.6 14.4l-0.5 36.2l2.4 1.6l-46.2 46.6z" />
    <path d="m6286.3 4218.3l0 0l1.1 60.3l2.7 -0l6 0.9l18 -0.3l-3.8 -57.2l-17.7 -10.7l-6.2 7z" />
  </g>
  <g data-id="103">
    <path d="m6287.3 4278.7l0 0l0.2 9.8l14.2 100.5l19.7 84.7l-1.1 33.4l-2.8 84.8l-12.5 37.2l-0 0.2l-9.1 39.9l-4.3 35.6l2.6 34.4l3.4 13.2l13 26.3l10.6 21.4l10.7 12.7l39.7 32.9l9.3 11.6l17.2 23.6l12 33.7l9.5 13.2l9.9 7.4l7.8 19.5l3 16.9l-0.6 42l-9.5 27l0.9 20l11.1 43.8l4.6 6.5l36.9 -18.3l9.1 -20.1l-19 -11.6l-5 -7.1l-7 -18.6l-1.8 -10.8l5.5 -30.9l6.8 -9.9l26.1 -2.3l19.1 8.2l0.1 -0.5l2.5 -16.7l7.5 0.4l11 5.1l0.4 0.2l13.7 3l16.7 -5.3l8.2 -10l10.4 -24.4l0.9 -8.5l-7.2 -31.5l1.7 -6.5l8.5 -32.1l8.5 -11.9l11.6 -16.4l27.5 -26.5l-3.7 -28.3l-7.2 -11.5l-4.8 -21.1l-15.2 -23.7l-29.1 -26.2l-2.8 -18.8l-6.4 -3l-42.2 -10.8l-18.3 -4.9l-11.7 -7.7l-5.7 -2.8l-15.3 -7.4l-13.3 -12.1l-1.7 -5.6l-3.6 -11.8l4.7 -11.5l5.3 -3.9l13.7 -2.2l14 -28.3l3.6 -7.4l17.7 -24.1l-14.2 -40.9l26.9 -4.4l27.8 15l-0.1 -27.3l-2.7 -158.5l-0.7 -42.3l-27.6 -0.1l-35.4 0.1l-139.5 1.6l-4.4 25.9l12.4 4.5l10.9 -1l5.4 11.2l7 26l-3.3 31.8l1.4 75.1l-40.8 -1.3l-22.9 -114.4l-3.8 -57.2l-18 0.3l-6 -0.9l-2.7 0z" />
  </g>
  <g data-id="105">
    <path d="m7271.2 4148.8l0 0l0.5 130.7l65.2 0.1l-0.3 87l0.5 97.9l1 141l0.2 38.2l0 0.1l0.5 28.8l0.7 388.5l645.5 -0.4l44.2 0.3l509.9 4.7l14 -9.1l-0.5 -18l-16.5 -12.3l-6.1 -33l4 -27.5l-30 -23l4.5 -24.8l-17.3 -13.8l7.3 -11.2l-30.7 -46.5l-15.5 -45.1l-28.9 -31.6l-38.2 -5.4l-29.2 -17.1l-27 -6.9l-5.6 -35.8l-11.6 -22.4l8.2 -30.7l-39.4 -14.1l2.6 -27.2l-17.3 -21.1l-35.1 -21.6l-13.5 -37.3l-37.7 7.7l-12 -21.3l-20.7 -31.9l-24.4 -8.8l-1 -17.7l21.2 -11.2l14.3 23.7l35.1 21.3l15.6 1.4l15.1 23.3l8.8 -25.5l15.9 -12.3l-4.1 -35.6l26.6 -19.9l0.2 -14.5l-143.8 -0.3l-0.6 -86.9l-17.6 -0.1l-0.6 -0l-71.2 0.7l0.2 -86.8l-35.9 -71.7l-8 -15.4l-131.2 0.2l0 -7.9l-0.1 -123.4l-175.5 1l-0.2 -23.1l-87.8 -0l0.1 23.8l-131.7 1.2l-0.2 54.2l-36.8 5.3l-11.7 -18.8l-34 -8.7l-46.4 16.4l0.4 80.4l-66.6 -0.5z" />
  </g>
  <g data-id="107">
    <path d="m7338.5 2028.7l0 0l-1.1 300l31.4 -30.4l36.4 -15.6l52.9 -3.2l42.5 -19.1l28.8 17.5l4.3 -14.2l59.9 -1l23.9 -9.2l0.3 52.1l87.6 -1.4l1.7 87.9l43.5 -1l0.5 88.9l95.9 -1l16.1 50.5l-25.2 -0.6l-7.2 21.4l309.1 -84.1l15.6 -27.8l-23.3 12.7l-33.1 -9.7l-12 -41.7l-0.9 -32.3l-36.9 -61.1l-7.7 -21.5l-4 -184.7l-1.5 -150.1l-0.6 -57.4l-21 -15.9l-33.3 -49.9l-19.3 -56.5l-304.1 5.6l-12.4 15.4l-52.8 39.6l-62.2 10l-18.7 19.2l-10 37.6l-10.9 13.1l-48.4 0.6l-40.6 11.5l-28.7 31.5l-26.7 0l-8.4 0.7l8.6 7.4l-7.9 66.3z" />
  </g>
  <g data-id="109">
    <path d="m7818 1462.7l0 0l10.1 39.7l15.4 14.4l60.9 39l27 29.1l6.5 36.9l-11.9 34l12.3 61.1l20.5 46.8l3 6.6l19.3 56.5l33.3 49.9l21 15.9l0.6 57.4l1.5 150.1l262.5 -4.8l-0.4 -42.2l18.9 17.1l16.1 -13.5l20.5 1.1l25.6 -23.9l20.2 10.8l26.2 -17.3l19 -0.2l-21.2 -66.7l-15.7 -37.1l-20.8 -68.9l-7.2 -44.9l-1.3 -7.9l-0.3 -1.7l-0.9 -31.5l-0.8 -25.5l-7.6 -37.8l-8 -26.3l-16.3 -22.3l-8.3 -20.4l-18 -62l-61.3 -293.5l-31.9 -137.5l-67 1l-8.1 -0.1l4.1 223.3l-138 2.7l-0.4 -24.6l-37.8 3.3l-17.2 -12.6l-56.5 -11.5l-35.1 18.4l-39.1 0.5l0.2 52.6l-13.7 66.5z" />
  </g>
  <g data-id="111">
    <path d="m9147.2 5191.8l0 0l1 128.5l1.5 393.6l258.4 -0.6l196.7 1l60.9 -0.4l2.1 -85.4l111.3 1l-36.1 -88.4l-8.9 -27.5l-26.5 -57l-15.6 -60.4l-36.3 -118.2l-10.5 0l-13.9 -36l-12.5 -48.6l-35.7 0.2l-435.8 -1.8z" />
  </g>
  <g data-id="113">
    <path d="m422.6 235.5l0 0l14.6 7.7l12.4 45.8l-24.7 39.6l12.9 39.6l-13.5 39.1l12.7 24l38.9 3.1l10 44.8l1 58.6l16.5 40.2l-8.7 18.5l29.3 22.4l35.3 63.2l55 20.9l13.2 10.4l43.3 52.8l0.5 23l-17.7 50.6l4.7 41.7l-14.8 20.7l-9.1 7.9l-99.5 32.9l-7.7 21l1.2 32.5l29.2 14.2l42.1 8.1l34.2 -21l16.6 0.8l86.5 -22.9l203.2 -36l1.1 24.2l12.6 -2.7l77.7 -13l66.2 -8.4l2.1 -0.3l8.2 -455.8l8.9 -477.6l-0.4 -0l-58.6 -0.6l-1.9 0l-54 -0.4l-19.9 0.1l-52.2 -0.2l-92.9 -1.5l-7.7 -1l-29.9 0.1l-12.2 -0.1l-4.8 -0.4l-18.1 0.7l-13.6 -0.1l-6 0.1l-66.1 -0.4l-8 1l-20.8 -1.1l-28.7 0.7l-1.3 0l-54.3 44.7l-29.9 13.4l-36.6 45.3l-15.4 -5.2l-25.9 14.6l6.2 23.1l-3 34.4l-18.4 11.6l-19.9 50.8z" />
  </g>
  <g data-id="115">
    <path d="m6565.5 5441.9l0 0l0 0l24.9 40.7l34.5 39.2l28.4 39.1l8.9 15.9l-0.5 19.6l-0.2 8.7l14.1 15.7l18.3 11.5l7.1 9.9l35.7 68.5l0.4 0.7l19.3 40.7l27.1 57.3l10.7 40.8l4.7 4.3l6.6 16l19.2 58l34.9 58.9l24.5 52.8l32.7 57.4l158.1 1.1l0.4 -129.5l238.4 1.3l21.7 -0l1.3 -259.5l-254.2 -1.6l-5 -2.4l1.7 -260.1l-242 -0.2l-11 0.3l-1.7 -0l-1.6 0l-0.1 -3.7l-2.4 -0l-96.2 -0.4l-12.5 0.1l-15.9 -0.4l-1 0l-19.6 -0l-109.8 -1z" />
  </g>
  <g data-id="117">
    <path d="m8121.5 3530.2l0 0l-0.1 45.2l4.1 3.4l14.7 0.5l39.7 -0.1l114.1 0.7l0.3 10.9l0.5 33.1l60.2 -1.3l39.6 -0.9l9.5 0.4l152.2 -1.5l186.4 -0.7l-26.1 -35l7.7 -7.1l-12.9 -40.5l-13.5 -9.3l6.1 -28.2l-24.1 -25.2l-1.9 -22.6l-32.4 -37.6l10.6 -35.3l-18.8 -59.2l-39.3 -12.8l-11.1 -10.5l-26.9 10.7l4.1 11l-19.4 34.3l-24.4 -0.7l-29.6 14.8l-5.6 -23.4l-15.5 7.8l-28 -24l-12.7 -36.5l-61.8 -1.6l-62.5 -1.2l-50.3 -20.7l8.7 -21.1l-19.5 -25.4l-21.1 40.9l-44.6 41.2l3.2 59.5l-11.1 71.4l-24.8 33.6l-23.1 1.8l-0.4 61.4z" />
  </g>
  <g data-id="119">
    <path d="m7001 3098.4l0 0l18.5 17.1l2.6 16.5l23.4 40.3l5.6 21l41.2 31.2l7.9 23.8l18.2 11.8l22.3 26.4l30.1 20l4.3 27.7l13.4 15.6l-19.7 14.5l-7 36.5l-28 7.4l-50.5 54.4l0.6 24.4l-14.9 28.1l-4.1 22.6l-15.5 17.1l23.3 10.8l-4.9 17.5l51.5 66l12.8 28.7l19.5 -2.2l41.7 17.4l12.1 -14.1l23.9 11.7l9.6 28.6l28 3.8l16.2 27.7l38.6 -9.1l17.5 15.1l-0.3 64.3l-1.1 198.4l-0.4 49.2l46.4 -16.4l34 8.7l11.7 18.8l36.8 -5.3l0.2 -54.2l4.5 -308.9l0 -29.3l0.8 -397.6l-0.8 -185.7l-185.4 -0.1l-284.8 -0.4z" />
  </g>
  <g data-id="121">
    <path d="m5770.6 1131.4l0 0l-7.6 33.4l17 17l-13.1 40.9l1.6 25.4l20.9 23.1l-7.4 25.4l18.4 25.4l-1.4 33.4l17.8 15.4l14.6 -4l21.3 17.6l32 -23.7l37.1 19.5l20.9 -10.7l7 20l54.7 14.7l4 24.1l32.9 16.4l37.1 34.1l13.3 32.4l33.6 7.1l19.1 19.8l3.6 27.2l12.9 25.6l26 1.4l13.5 41.5l-7 13.3l24 35.2l16.6 -3.2l20 20.3l21.7 -36.7l41.1 -2.4l41.5 -29.5l19.3 -34.3l32 -16.4l1.5 -31.4l-44.1 0l-0.8 -533.6l-6.7 -11l-14.8 11l-27.9 -14.8l-16.1 8.8l-16.7 -26.4l-32.9 -10.3l-14.9 -14.6l6 -17.3l-22.5 -3.2l-2.9 11.8l-76.4 -56.7l-21.8 -2.3l-25.4 -15.8l-7.2 10l-35.2 -12.3l-54.7 7.8l-10.8 -18.8l-50 8.3l-16.4 20.5l-27.2 3l-4.2 25.5l-16.5 23.3l-28.1 15.8l-7.8 40.5l-19 6l3.7 49.5l-23.8 19.1l-25.3 58.9z" />
  </g>
  <g data-id="123">
    <path d="m4790.8 1381.6l0 0l0.8 18.7l42 28.8l34.5 28.3l2 3.2l-2.4 4.6l2.8 3.2l113.2 62.3l22 22.6l52.6 9.4l41.4 28.9l93.1 51.9l9.5 7.9l25.3 28.8l28.9 20.4l25.5 66.3l17.5 9l12.8 12.7l12.6 24.6l5.3 29.8l-1.5 7.2l-4 4l1.8 13l7.6 11.7l17 10.5l14.5 28.5l10.3 15.7l12.5 13.9l32.8 10l25 12.3l13.4 14.9l0.6 12.2l36.5 21.2l9.4 1.8l4.7 -2.9l11 -0.4l28.4 10.4l2.5 3.1l0.6 2.4l18.1 -10.6l42.2 12.5l1.8 -16.7l18 -26.6l8.4 -49.2l-1 -25.3l12 -26.1l22.5 -26.7l0.8 -67.1l-44.7 0.6l-0.2 -99.5l-23.5 -0.1l3.1 -454.7l2.3 -21.1l-0.6 -90.3l-134.2 0.1l0.7 -66.8l-462.2 1l-22.9 34.7l-25.4 11.3l-32.5 8.7l-27.3 30.5l-17.6 3.7l-2.7 45.9l-17.3 39.4l-26.7 4.3l-11.9 51.5l-16.7 9.7l5.8 15l-31 60.8z" />
  </g>
  <g data-id="125">
    <path d="m6657.2 1511.6l0 0l-3.8 30.1l8.8 24.1l18.3 16.6l29 8.6l4.7 26.5l5.7 -6.2l54.1 8.1l15.9 19.8l30.5 -7.5l29.8 14.7l9.9 -2l37.2 -3.8l26.8 -14.9l14.2 3.2l15.3 -12.9l7.4 -29.9l22.2 8.7l24.4 -1.4l44 -64.7l17.4 -43.8l45.2 -9.4l23.7 -28l27.9 -18.4l11.7 -15.8l10.4 -36.7l29.4 -16.1l12.4 -26.4l-6.1 -24l-285.1 5.8l-110.9 1.8l-19.3 2.5l7.7 19.1l-4.6 27.8l-16 13.1l-39.5 12.1l-27.4 19.8l-21.6 31.8l-12.6 53.3l-37 14.2z" />
  </g>
  <g data-id="127">
    <path d="m7830.6 2550.3l0 0l10 26.8l23.1 10.1l18.1 34.9l10.4 48.2l19.3 24.4l6 33.3l28.4 11.3l42.3 -1.8l9.6 18.3l29.4 17.2l35.2 79.7l3.3 39l17.4 6.9l29.6 -5.3l15.7 22.2l-1.8 27.1l11.9 2.5l19.1 26.9l52.8 36.8l12.5 17.5l10.2 22.5l26.4 12.9l-8 12.1l-9.6 32.1l19.9 13.8l0.2 74.5l-18.6 26.2l19.5 25.4l-8.7 21.1l50.3 20.7l62.5 1.2l61.8 1.6l12.7 36.5l28 24l15.5 -7.8l5.6 23.4l29.6 -14.8l24.4 0.7l19.4 -34.3l-4.1 -11l26.9 -10.7l11.1 10.5l39.3 12.8l18.8 59.2l-10.6 35.3l32.4 37.6l1.9 22.6l24.1 25.2l-6.1 28.2l13.5 9.3l12.9 40.5l-7.7 7.1l26.1 35l30 0l-4.5 -265.7l164.4 -1.4l145.6 -0.1l-72 -126.2l-104.9 -177.8l-15.1 -25.6l-20.3 -38.5l-17.9 -42.3l-48.8 -70.1l-23.9 -46.5l-4.8 -9.3l-7.1 -16.2l-12.6 -28.6l-86.2 -196.2l-16 -39.6l-15.2 -37.6l-41.4 -102.6l-61.6 15.5l-9.4 8.8l4.4 97.2l3.2 121.5l-60.1 1.8l-95.5 2.4l-195.8 3.1l-4.5 -208.9l-17.4 1.6l-15.6 27.8l-309.1 84.1z" />
  </g>
  <g data-id="129">
    <path d="m3820.6 1092.5l0 0l-10.5 31.3l52.1 31.8l-3.7 19.5l25.2 21.7l4.8 45.1l13.2 9.1l-5.6 48.2l2.9 33.8l28.8 30.6l-8 12.4l21.9 24.6l15.5 32.4l21.4 4.1l24.6 45.7l61.3 28.3l17.4 5.6l16.1 18.6l-6.6 20.3l13 -11.2l29.7 3l31.3 -22.4l20 46.5l10.9 -16l8.9 7.2l126.4 24.7l-2.3 -21.7l-6.1 -13.7l-16.2 -0.9l-2.6 -4.6l-5.5 -31.8l38.1 -36l51.7 -38.1l10.7 0.4l16.5 -4.7l8.4 -11.9l0.6 -11.2l-4.8 -11.6l2 -14.1l4.1 -8.1l17 -9.3l11.8 4l2.4 12.3l11.4 11.3l38.1 1.2l6.1 -1.7l2.3 -3.2l4 0.1l25.5 22.4l14.8 2.7l13.9 -2l28.4 -15.7l14.2 -11.5l14.5 7.8l14.6 -12.4l10.5 -2.1l10.1 4.3l5.2 -0.3l9.2 -4.8l0.7 -271.1l-217.9 -1l-17.2 -44.1l-41.6 -0.2l-117 -0.2l-4.8 1.1l-440.3 3.9l-21.8 21.3z" />
  </g>
  <g data-id="131">
    <path d="m1635.2 415.5l0 0l-7.5 536.3l43.6 6.1l86.1 17.5l100.1 29.7l174.4 61l118.4 49.9l5.1 2.5l1.8 -64.8l2.6 -118.3l8.1 -52.1l30.1 -25l40.1 -7.6l22.4 9.7l19.6 -8.2l15.6 -41.6l14.9 6.6l24 -35.5l-10.7 -25.2l-16.4 2.4l-8.3 -22.7l9 -55.4l-11.3 -5.5l-9.1 -40.6l-27.1 -15.9l10.1 -26.4l-9.1 -35l32.3 -29.8l30.9 -10.2l-11.2 -25.4l41 -35.8l-254.1 -2.2l3.4 -442.3l-0.1 -0l-22.9 0.1l-4.9 0.2l-79.8 0.3l-60.5 -1.2l-8 -0l-8.2 -0.1l-6.6 -0.3l-9.1 -0.1l-67.3 -0.5l-23.8 0.8l-43.1 0.1l-20.2 -0.4l-79.3 -0.7l-5.7 -0l-6.9 0l-18.5 0.4l-3.9 405.1z" />
  </g>
  <g data-id="133">
    <path d="m2167.9 883.2l0 0l-8.1 52.1l14.3 -4.4l22.2 -28.2l32.5 3.2l24.6 -11l18.3 15.3l31.1 -6.8l17.9 -14.5l22.2 -31.8l480.7 5.5l2.1 -199.3l67.8 0l-0.5 -87.4l3.8 -245.8l-66.3 -0.7l0.6 -66.8l-154.7 -1.6l-4.3 52.1l-22.3 40.7l1.5 39.9l-153.9 -3.8l1.2 -44.3l-22.2 -0.6l0.1 -21.6l-50.3 -0.8l-41.3 -0.6l-14.6 61.7l13.4 17.9l-28.7 54.6l-41 35.8l11.2 25.4l-30.9 10.2l-32.3 29.8l9.1 35l-10.1 26.4l27.1 15.9l9.1 40.6l11.3 5.5l-9 55.4l8.3 22.7l16.4 -2.4l10.7 25.2l-24 35.5l-14.9 -6.6l-15.6 41.6l-19.6 8.2l-22.4 -9.7l-40.1 7.6l-30.1 25z" />
  </g>
</svg>
