<?xml version="1.0" encoding="UTF-8"?><!DOCTYPE svg PUBLIC '-//W3C//DTD SVG 1.1//EN' 'http://www.w3.org/Graphics/SVG/1.1/DTD/svg11.dtd'><svg viewBox="0 0 1000 735.675" xmlns="http://www.w3.org/2000/svg"><path data-id="08001" d="m570.9 221.5l0 5.4l4.5 -0.5l6.5 0.5l1 -1.4l4.1 1.4l1.8 1.3l2 0l1.3 -2.7l2.7 0l0 -2.7l2.6 0l0 2.7l10.7 0l0 -8.1l8.4 -0.6l0.1 -9.9l1.1 0l2.6 0l1.8 -2.9l1.8 1.4l5.7 0.1l0.9 1.3l4.8 0l-0.8 4.8l-2 0l0 9.5l-20.3 -0.1l0 4.6l4 0l0 5.4l-6.7 -0.8l-6.6 0l-0.7 1.3l-3.4 -0.4l1.4 2.5l-4.7 0l-0.7 2.7l10.6 0l21.5 -0.1l3.5 0.2l2.6 -0.1l2 0l10.7 0.2l1 0l1.3 0l1.3 0l1.5 0l1.1 0l1.2 0l109.1 -0.3l0.1 -48.5l-63.3 0.1l-48.4 0l-37.6 0l-18.8 0l-5.2 0l-5.6 0l-2.8 0l-1 5.9l-3.9 -2.4l0.1 11.1l-5.3 1.3l-0.1 10.1l0.1 1.2l-0.1 6.2z"/><path data-id="08003" d="m430.4 662.6l0.1 7.9l42.1 0l35.2 -37.2l1.5 -2.5l-2.3 -3.5l2.1 -10.1l1.4 -2.2l0 -7.6l3.3 -2.9l-0.4 -5l-82.8 0.6l-0.1 62.5z"/><g data-id="08005"><path d="m589.3 248l0.5 1.6l-0.1 1.4l1.1 0.8l-0.7 -3.1z"/><path d="m586.9 241.6l0 3l1.8 -0.4l-0.5 -1.3l-1.4 -1.3z"/><path d="m570.8 259.3l-0.1 9.2l11.6 0l8.4 0l1.3 0l12.6 0l4.4 0l15.1 0l2.7 0l2.6 0l132.2 -0.1l1 0l0.1 -32.1l-108.9 0.3l-1.3 0l-1.2 0l-1.5 0l-1.3 0l-1.3 0l-1 0l-10.7 -0.2l-1.6 0l-3 0.1l-3.5 -0.2l-21.5 0.1l-10.6 0l0 1.4l1.3 1.4l1.3 5.4l-3.7 0l-1.7 0.7l2 2l-2 2.7l5.3 -0.6l2.5 2.2l-4.6 2.5l-0.7 4l-4 0l0 -2.7l-2.6 -2.7l-1.3 0l-4.7 -2.7l-5.3 1.3l0.3 -3.4l-1 3.4l-2.6 1.3l1.3 4.6l-1.3 0.1l-1.3 0l-1.3 -0.7l0 2z"/></g><path data-id="08007" d="m224.8 658.7l0.1 75.6l8.7 0l62 0l15.4 0l1.1 1.4l17 0l10.7 -0.1l2 0l4.6 0l1.6 0l16.6 -0.1l3.5 0l-1.8 -3.8l-14.3 -22.3l-1.2 -9.8l-11.5 -6l0 -31.4l-4.6 -0.1l0 1.4l-59.6 0.7l0 -5.5l-35.2 -0.1l-15.2 0.2z"/><path data-id="08009" d="m851.7 666.1l-0.5 68.2l12 0l2.2 0.3l1.1 0l19.6 -0.2l3.5 0l2.5 0l3 0l2.7 0.1l2.5 0.1l6.3 0.5l48.8 0.1l13.5 0l7.5 0.1l3.4 0l18.5 0.1l1.7 0l0 -5.6l0 -1.1l0 -13.5l0 -1l0 -2.3l0 -3l0 -20.8l0 -7.1l0 -2.1l0 -7.7l0.1 -4l0 -2.5l0 -3.7l0 -4.5l0 -6.2l0 -6.6l0 -5.2l0 -1.1l0 -3l0 -9l0 -6.6l-100.6 0.1l-39.4 -0.1l-7.4 0.2l0.2 47l-1.1 0z"/><path data-id="08011" d="m805.9 587.5l-0.1 31.5l46.8 0l7.4 -0.2l39.4 0.1l0 -32.4l1 -0.1l-0.3 -80.1l-11.3 0l-82.4 0.3l0 80.1z"/><g data-id="08013"><path d="m570.3 192.7l-3.5 2.9l3.9 0.3l0.3 -1.5l-0.7 -1.6z"/><path d="m481.2 189.3l-1.4 9.6l2.5 1.6l31.1 0l2.7 -1l1.3 1.1l1 -0.1l1.1 -0.5l1.1 0.5l1.2 -0.2l0 3.7l8.3 -0.2l24.7 0l2.7 0l0 -2.8l1.3 0l0 -2l1.4 -2.7l2.6 -0.4l-1.3 4.4l1.3 1.4l0 -2l4.6 -1.3l0.7 -2.7l-2.4 -0.1l5.1 -3.7l0 -1.6l0 -2.6l-0.4 -16.2l0 -9.5l0 -12.2l0 -9.8l0 -1.1l-14.8 0.1l-18.6 -0.3l-12.2 0.3l-4.1 0.7l-19.6 -0.7l-15.9 0.2l1.3 2l-2.1 0.1l-1.7 7.8l-1 1.1l1.4 8.1l4.4 2.2l1.5 3.5l-1.2 2.6l-0.1 7.1l-2.2 3.1l1.9 2.3l-2.2 4.1l-5.3 1.6l0.9 4.1z"/></g><g data-id="08014"><path d="m563.2 195.8l2.3 -2.77556e-17l-1.3 -0.1l-1 -0.1z"/><path d="m554.8 204l0.1 4l5.2 0.4l-2.6 -4.4l5.5 0l1.7 2.7l3.6 0l2.7 -2.7l5.3 -1.3l-0.1 -11.1l3.9 2.4l1 -5.9l2.8 0l0 -2.7l0 -5.4l-5.4 3.4l1.3 3.4l-2.6 1.3l-6.4 0l0 2.6l0 1.6l-5.1 3.7l2.4 0.1l-0.7 2.7l-4.6 1.3l0 2l-1.3 -1.4l1.3 -4.4l-2.6 0.4l-1.4 2.7l0 2l-1.3 0l0 2.8l-2.7 0z"/></g><path data-id="08015" d="m350.6 373l1.4 1.1l1.3 0l2.8 -1.2l2.6 1.8l2.8 3.7l0.1 2.6l2.2 2.3l2.3 2.7l2.8 2.4l3.6 -0.3l1.6 -1.1l2.3 -0.5l1.5 1.6l2.1 -0.5l2.4 0.2l2.2 0.8l2.4 0.9l2.8 0.9l-0.2 2.6l-1.5 2.4l-1.3 1.4l-0.5 1.8l-1.4 0.7l-0.9 1.3l-0.8 1.7l-1.2 0.7l-0.6 1.3l-1 0.8l-1 0l-1 -0.8l-1.2 0.4l-0.4 1.9l-1 1.5l0.8 1.2l0.5 1.5l-0.3 2.1l-0.2 1.6l-0.2 1.5l0.3 1.1l-0.4 2.3l-0.1 3.9l-2.2 2.7l-1.5 0.4l-0.9 2l1.4 1.6l1.7 5.2l3.1 2l2.8 1.4l0.5 2.9l1.9 0.8l1.6 3.4l1 2.8l0.8 4.4l-1 4.3l1 4.8l1.2 2.3l1.4 0.5l1 -0.2l1.5 0.8l0.5 1.5l0.9 1.6l1.5 0.6l0.2 1.5l0.7 1.3l1.2 0.4l1.7 2.3l1.5 0.2l0.6 1.2l0 1l0.2 1.1l17.3 0.1l7 -0.3l2.6 -3.8l-0.1 -2.2l2.3 -0.2l3.4 0.7l1.2 1.4l10.4 -10.4l4.2 -0.4l0.7 -7.7l2.6 -2.4l-1 -2.2l2 -5.3l-1.3 -3.5l-4.1 -1.6l1.1 -3.8l-2.5 -2.8l-0.1 -2.5l-2.7 -1.9l-3.5 -0.6l3.4 -4.2l1.1 -8.5l4.6 -8l-5 -6.1l-0.2 -2.2l2.6 -3.6l-2.3 -2.5l-4.7 0.6l-0.7 -2.2l1.9 -2.1l-2.9 -2.2l-1.2 0.6l-4.8 -5.1l-4.3 0.2l-1.1 1.8l-2.8 -1.4l-3.7 -0.1l-0.4 -2.8l1.3 -3.4l-0.7 -2.4l-5.2 -1.9l-3.3 1.2l-1.6 -3.7l-1.9 -1.3l1.5 -3.7l-1.2 -3.2l-55.1 -0.3l-2.7 2.4l0.8 3.6l-1.1 4.9z"/><path data-id="08017" d="m838.9 429.4l-0.1 14.2l15.8 -0.5l141.5 0l1.3 0l2.1 0l0 -9.9l0 -1l0 -2.2l0 -1.9l0 -10.4l0 -2.9l0 -2.4l0 -2.9l0 -2.5l-0.2 -42.8l-95.3 1.5l-1.2 -0.3l-62.5 0.5l-0.2 63.6l-1.2 0z"/><path data-id="08019" d="m446.8 243.9l-0.2 4.8l2.2 2l3.7 1l2.9 -1.9l2.3 4.3l3.9 0.3l0.6 1.7l3.4 -0.5l1.5 1.4l0.9 3.7l-4.6 4.8l-4.3 1.9l1.2 1.5l7.6 0l26.9 -0.6l26.9 0.4l0.1 -33.5l-3.4 0.2l0 -1.7l-10.7 -0.5l-6.9 -2.9l-0.1 -2.5l-4.6 -3.4l0 -3.1l-3.4 0.8l-3.6 -2.6l-0.8 -2.1l-3.9 -1.3l-4.3 -0.3l-0.9 2.4l-2.4 0.1l-3.3 6.2l-4.2 1.8l-4.7 -1.6l-3.4 3.3l-4 -0.4l-0.5 -1.6l-4.6 -0.2l-0.7 2.4l1.7 4.6l-0.5 4.1l-3.5 2l-2.3 5.1z"/><path data-id="08021" d="m339.4 662.1l0 31.4l11.5 6l1.2 9.8l14.3 22.3l1.8 3.8l19 -0.1l7.1 0.1l6.4 -0.1l6.7 0l27.8 -0.2l1.3 0l39.8 -0.1l-1.4 -3.4l-2.6 0l-0.8 -2.4l-2.7 -2.5l0.9 -2.6l3.3 -8.4l-1.2 -1.6l0 -4.1l2.5 -3.8l-0.9 -1.7l1.2 -2.7l-2.3 -6.7l0.7 -4.1l-0.7 -1.2l1 -2.8l2.1 -2l0.5 -2.8l-4.7 -9.6l1.4 -2.4l-42.1 0l-0.1 -7.9l-63.9 0.3l-27.1 -0.8z"/><path data-id="08023" d="m469.6 724.3l-0.9 2.6l2.7 2.5l0.8 2.4l2.6 0l1.4 3.4l7.7 0l5.3 0l13.3 0l3.1 0l6.7 0l2.6 0l3.9 0l24 0l4.4 0.1l9.3 0l0.1 -53.2l-1.5 0.7l0.2 -7.1l-0.8 -5.8l0.4 -4.9l1.6 -1.9l2.4 -0.2l1.1 -2l-1.4 -1.2l-2.2 -7l-2.7 0.1l-0.2 -3.5l0.8 -6.8l-1 -5.9l-2.2 -3.7l-3.5 -2.8l2.1 -2.2l2.3 -4.5l-3.8 -1.2l-3.1 1l-8.8 -6.7l-7.3 3.7l-3.1 -0.3l-4.3 4.7l-1.2 -0.8l-4.8 1.1l-1.7 3.8l-4.4 2.3l-1.5 2.5l-35.2 37.2l-1.4 2.4l4.7 9.6l-0.5 2.8l-2.1 2l-1 2.8l0.7 1.2l-0.7 4.1l2.3 6.7l-1.2 2.7l0.9 1.7l-2.5 3.8l0 4.1l1.2 1.6l-4.2 7.5z"/><path data-id="08025" d="m713.2 507.3l-0.5 20.9l1.6 0.9l3.5 0.1l3.9 -1l2.9 1.5l0 1.2l5.8 1.4l1.5 -1.1l6.5 1l1.3 -0.8l3.2 1l1.5 1.8l3.4 -0.8l1.3 1l26.2 -0.1l0 -10.5l15.7 -0.2l-0.1 -16.6l1.2 -0.2l-0.7 -14l0.3 -31.7l-15.4 -1.1l-62.8 0l-0.1 47.4z"/><path data-id="08027" d="m464.9 506.7l1 3.8l7.6 6.3l5.2 7.3l3.9 1.8l-0.5 2.3l1.9 4.9l1 4.9l4.1 4.5l4.3 9.7l-1 0.9l3.3 6.1l-0.3 1.5l3.4 2.8l3.8 -0.6l3.2 2.9l1.3 2.9l4.1 4.9l4.7 -0.3l3.8 1.3l5.2 -4.6l4.3 -1.6l4.3 -2.6l1.5 1.2l1.3 4.1l1.8 1.8l1.5 -1.5l3.6 -8l1.4 -1.9l3.3 -1.4l0.2 -1.9l2.4 -2.1l0.4 -2.7l3.7 -2.1l2.9 2.5l-0.6 2.4l1.9 1.4l1.9 6l2.5 1.4l3.4 -2.2l2.6 2l0.4 4.9l1.9 0.3l-0.1 -35.9l0.3 -2.5l-0.1 -23.6l-3.6 0l-102.9 -1.3z"/><path data-id="08029" d="m97.1 404l0 29.4l54.1 -0.1l71 0l0 -3.6l0 -97l-1.3 0.3l-4.8 4.1l0 2.3l-3.4 0.1l-10 7.2l-7.4 10.1l-3.3 1.2l-1.3 2.8l-2.3 -0.2l-3.9 4.2l-5.2 -3.9l-8.1 -2.8l-2.4 1.7l-10.8 2l-4.4 0l-0.7 1.3l-6.4 4.7l-0.6 1.9l-2.5 0.6l-2.3 3.2l-3.5 3.1l1.1 2.2l-4.8 7.4l-2.4 0.2l-0.5 3.6l-3.6 0.8l-1.5 1.3l-28.8 12.1z"/><path data-id="08031" d="m562.8 255.7l0.3 2l3.7 -0.6l2.4 1.6l-4 0l5 0.7l0.7 -1.2l0 -1.6l-0.8 -1l2.2 1.2l1.3 0l1.3 -0.1l-1.3 -4.6l2.6 -1.3l1 -3.4l-0.3 3.4l5.3 -1.3l4.7 2.7l1.3 0l2.6 2.7l0 2.7l4 0l0.7 -4l4.7 -2l-2.6 -2.7l-5.3 0.6l2 -2.7l-1.3 -1.8l1 -0.9l3.7 0l-1.3 -5.4l-1.6 -0.7l0.3 -2.1l0.7 -2.7l4.7 0l-1.4 -2.5l3.4 0.4l0.7 -1.3l6.6 0l6.7 0.8l0 -5.4l-4 0l0 -4.6l20.3 0.1l0 -9.5l2 0l0.8 -4.8l-4.8 0l-0.9 -1.3l-5.7 -0.1l-1.8 -1.4l-1.8 2.9l-2.6 0l-1.1 0l-0.1 9.9l-8.4 0.6l0 8.1l-10.7 0l0 -2.7l-2.6 0l0 2.7l-2.7 0l-1.3 2.7l-2 0l-1.8 -1.3l-4.1 -1.4l-1 1.4l-5.7 0l-5.3 0l-1.7 0.5l1.7 0.8l0 5.2l0 2.3l-0.3 1.9l0.3 1.3l0 4l0 1.3l-1.3 3.2l1.3 2.1l-1 0l-3 -0.4l2 2.4l-3.4 3.4l-2.7 0.7z"/><path data-id="08033" d="m2.4 644.8l0 2.7l18 -26.4l107.6 -0.6l7.6 -0.6l19.6 -0.2l1.9 -1.7l-1.8 -5.5l0.1 -3.1l2.3 -1.9l2.2 0.8l5.1 -3l4 -0.6l-0.4 -3l2 -3.1l-1.2 -1.2l1.4 -2.3l-2.6 -1.9l-1.6 -1.2l-1.4 -2.4l-1.2 -1l-1.8 -2.3l-2.5 0l-1.2 -1l-1.1 -1l-1 0.3l-1.8 -0.4l-0.7 -1.3l-1 -1.1l-0.8 -1.4l-1.3 -0.1l-1.1 0.2l-1.1 -0.1l-1.8 0.1l-1.3 0.6l-1.6 0.7l-1.3 0.7l-2.1 -0.5l-1.1 0.7l-1.6 0.5l-1.1 -1.6l-1.4 -0.9l-1.5 0.4l-1.6 2.2l-0.9 1l-1 -0.6l-2.2 0.7l-1.2 0.6l-1.6 0.6l-1.9 0.7l-1.1 0.3l-1.1 -0.4l-0.6 -1.5l-1.1 -1.2l-0.9 -2.2l-0.5 -1.9l-0.6 -1.8l-1.8 -1.5l-1.3 -1.7l-8.3 -0.6l-3.5 0l-3.5 0l-2.6 0l-7.1 0l-8 -0.1l-8.9 -0.1l-9.3 -0.1l-4.3 0l-7 0l-5.6 0l-4.3 0l-4.8 0l-2.3 0l-0.1 1.2l-2.3 1.4l-3.9 0l-1.9 0l-1.6 0l-1 0l-1.6 0l-2.3 0l-1.7 0l-3.8 0l-1.9 0l-1.9 0l-3.1 0l-3.3 0l-1.6 0l0 1.5l0 5.5l0 1.1l0 6.4l-0.1 9l0.1 1.8l0 4.9l-0.1 8.5l0 7.6l0 1.1l0 2.4l0 13.2l-0.2 5.5z"/><path data-id="08035" d="m533.8 343.5l-2.2 5.4l42.1 0l19.7 0l33.1 0.1l0.3 -80.4l-2.7 0l-15.1 0l-4.4 0l-12.6 0l-1.3 0l-8.4 0l-10.8 0l-1.7 1.2l-1.8 2.7l-1.9 9.3l-7 4.5l1.6 6.7l-2.1 2.1l-4.5 2.6l0.8 3.3l-1.2 2.5l0.9 2.9l-3 5.1l-2.4 6.3l-2.3 5.8l0.5 1.4l-2.4 0.9l0.1 1.6l-2.6 0.6l-1.6 2.7l0.5 3.5l-3.3 1.9l-0.6 3.8l-3.7 3.7z"/><path data-id="08037" d="m277.3 203.1l0 102.3l86.1 0.7l2.8 0.1l9 0l3.7 -3.5l2.8 0.9l1.4 2.9l2.7 1.3l1.8 -1l5.2 -0.4l2.7 2.1l3.5 -2.3l2.8 -0.7l2 -2.6l2.7 0l0 -1.3l0.3 -2.2l-1.1 -1.2l-0.8 -1.2l-1.4 -0.6l-0.2 -1.1l0.3 -1.3l0.1 -1.9l-1.7 -2.3l-0.5 -1.4l-1.3 -1.7l0.2 -1.9l0.4 -1.7l-0.6 -1.1l-0.6 -1.3l1.3 -2.3l-1.2 -2.4l0.7 -2.5l1.5 -1.5l1.2 1.2l0.6 1.1l1.6 0.5l1 -2.8l1.1 -0.6l-0.3 -1.4l-0.9 -2l-0.6 -1.7l0.5 -1.8l0.1 -1.8l1.1 -1.6l1.7 0.3l1.5 -0.6l0.5 -2.7l-0.3 -2.8l-1.6 -3l-4.2 -0.9l-1.9 -0.8l-0.9 -2.5l-2 -0.6l-1.1 -0.5l-0.6 -1.1l0.1 -1.2l0.1 -1l-1.5 -0.6l-2.4 -0.2l-0.5 -1.7l-0.7 -1.4l-1.4 -0.8l-1.5 -0.9l-1.3 -1.4l-0.9 -1.8l-1.2 -1.4l-1 -0.3l-1.9 0.9l-1.2 -1.2l-1.6 -1.4l-1 -4.2l-1.5 -2.6l-1.6 -4.4l-1.5 -2.7l-1.4 -4.3l-0.2 -2.2l0.7 -3.5l-1.5 -4.6l-25.5 -1l-1.1 0.1l0 1.1l-14.1 -0.4l-44 0.3l-11.4 0z"/><path data-id="08039" d="m626.8 268.5l-0.3 80.4l15.8 0l71.3 0.2l-0.6 47.5l47.9 0.4l-0.2 -47.9l1 -80.7l-132.2 0.1l-2.6 0z"/><path data-id="08041" d="m569 396.6l-0.8 12.8l5.9 0.4l13.1 0l0 10.9l-0.4 15.9l0.1 23.8l1.2 -0.1l43.1 0.1l9.1 0l73.1 -0.4l-0.2 -63.2l0.6 -47.5l-71.3 -0.2l-15.8 0l-33.1 -0.1l-19.7 0l0.9 18.4l-0.1 1.9l-0.2 27.6l-5.4 -0.1z"/><path data-id="08043" d="m434.5 473.7l-0.3 1.2l2.3 3.6l1.8 0.1l5.2 5.4l0.4 2.2l3.5 2.1l4.4 4.8l1.8 4.5l2.6 3.2l2.2 0.9l3.4 3.6l3.1 1.6l102.9 1.3l3.6 0l15.5 -0.1l-0.1 -20.7l-0.1 -26.8l-0.1 -23.8l-15.9 -0.6l-2.5 0.8l-21.2 0.2l-2.9 0l0.4 -9l-13 -0.1l-78.7 0.6l-1 -0.2l-11.5 0.3l3.5 0.6l2.7 1.9l0.1 2.5l2.5 2.8l-1.1 3.8l4.1 1.6l1.3 3.5l-2 5.3l1 2.2l-2.6 2.4l-0.7 7.7l-4.2 0.4l-10.4 10.4z"/><path data-id="08045" d="m1.3 281.1l0.1 24.2l134.6 0.1l96.2 0l45.2 0l0 -102.3l11.4 0l0.3 -15.6l-0.8 -16.5l-39.8 0.1l0 16.2l-0.2 16.5l-16.1 -0.5l0 16.6l-37.4 -0.3l-13.2 0.9l-21.6 0l0 24.2l-87.8 0.2l0 8l-48.6 0l0 -1.9l-22.1 0l0 30.1z"/><path data-id="08047" d="m478.8 208.2l1.3 7.3l4.3 0.3l3.9 1.3l0.8 2.1l3.6 2.6l3.4 -0.8l0 3.1l4.6 3.4l0.1 2.5l6.9 2.9l10.7 0.5l0 1.7l3.4 -0.2l0 -30.8l0 -3.7l-1.2 0.2l-1.1 -0.5l-0.7 1l-1.4 -0.4l-1.3 -1.1l-2.7 1l-31.1 0l-3.4 7.6z"/><path data-id="08049" d="m343.1 104.9l-0.1 19.4l2.9 0l-0.7 30.4l0 32.9l1.6 0.4l-0.1 14l1.1 -0.1l26.2 0.1l5.6 0.1l0 2l14.3 -0.9l6.1 0.8l2.9 2.6l4.4 6.8l4.2 3.5l3.1 1.1l2.6 -0.9l6.8 7.1l0.4 3.4l2.3 4.9l0.9 6.7l2.9 2.3l0.9 3.3l2.7 1.5l2.4 0.4l6.5 -2l0.8 1.2l3 -1.9l2.3 -5.1l3.5 -2l0.5 -4.1l-1.7 -4.6l0.7 -2.4l4.6 0.2l0.5 1.6l4 0.4l3.4 -3.3l4.7 1.6l4.2 -1.8l3.3 -6.2l2.4 -0.1l0.9 -2.4l-1.3 -7.3l3.4 -7.6l-2.5 -1.6l1.4 -9.6l-0.9 -4.1l5.3 -1.6l2.2 -4.1l-1.9 -2.3l2.2 -3.1l0.1 -7.1l1.2 -2.6l-1.5 -3.5l-4.4 -2.2l-1.4 -8.1l1 -1.1l1.7 -7.8l2.1 -0.1l-1.3 -2l-4.1 -2.3l-0.5 -5.6l-2.3 -1.9l0.1 -2.2l-3.9 -2.1l-1 -2.1l-4.5 -2.5l-3.3 -5l0 -2.3l-3.5 -4.3l-0.1 -2.6l1.5 -2.3l-0.2 -5l-6.8 -2.2l-2.6 1.5l-1.8 0.2l-1.2 1.5l-0.6 1.7l-0.2 3.4l0.1 2.9l-0.5 3l-0.1 1.3l-1.1 0.5l-1.6 0.4l-2 2.2l-1.4 0.9l0.4 1.2l0.7 1.1l-2 1.5l-0.6 1.4l-1 1l-1.6 -1.7l-1.5 -1.3l-1.9 0.3l-2 -1l-2.1 -0.3l-1.8 0.9l-3.4 1.7l-3.1 1.2l-2.6 -0.2l-2.4 1.6l-1.7 1.1l-0.8 1.1l-2.1 -1.2l-1.1 -1.1l-1 -0.2l-1.1 0.5l-1.6 2.3l-1.2 0.5l-2.1 -0.3l-1.4 0l-1.3 0.8l-1 -0.5l-0.7 -1.2l-1.1 -1.4l-0.9 -2l-1 -1.5l-1.5 0.6l-1.5 -0.2l-1.2 0.2l-0.5 1.7l0.1 1.4l-0.3 1.4l-1.3 0.6l-1.1 -0.6l-2 -1.2l-1.1 -0.2l-1 -1.4l-1.6 -1.9l-1.3 0.1l-1.4 0.1l-1 0.6l-1 0.8l-2.1 0.7l-1.4 -1.1l-1 -0.2l-1.2 0.1l-1.5 0.2l-1.3 0l-1.3 -1l-0.3 -2l-0.7 -1.6l-1.3 -2.2l-0.6 -2.7l-2.1 -1.3l-1.6 1.6l-0.9 1.9l-1.6 0.2l-0.8 1.7l-0.4 1.6l-1.2 0.6l-1 -0.6l-1.5 -0.2l-0.9 -1l-2.7 -0.4l-1.6 -0.1l-2.2 0.3l-0.6 -1.1l-0.9 -2.6l-0.2 -1.2l-0.7 -1.6l-0.4 -2.1l-0.8 -1.4l-1.5 -0.7l-1.2 -1.7z"/><path data-id="08051" d="m203.1 500l3.3 7.5l3.2 2l1.1 6.7l2.7 9.9l-0.9 2l80.9 0l0.1 -50.6l34.2 0.1l73.2 0.4l-0.2 -1.1l0 -1l-0.6 -1.2l-1.5 -0.2l-1.7 -2.3l-1.2 -0.4l-0.7 -1.3l-0.2 -1.5l-1.5 -0.6l-0.9 -1.6l-0.5 -1.5l-1.5 -0.8l-1 0.2l-1 0l-1.6 -2.8l-1 -4.8l1 -4.3l-0.8 -4.4l-1 -2.8l-1.6 -3.4l-1.9 -0.8l-0.5 -2.9l-2.8 -1.4l-3.1 -2l-1.7 -5.2l-1.4 -1.6l0.9 -2l1.5 -0.4l2.2 -2.7l0.1 -3.9l0 -1.7l0.1 -1.7l0.2 -1.5l0.2 -1.6l-0.1 -1.4l0.2 -1.7l-0.6 -1l-0.2 -1.6l0.7 -1.7l0.8 -1.2l1.8 0.8l1 0l1 -0.8l0.6 -1.3l1.2 -0.7l0.8 -1.7l0.4 -1.1l1.6 -0.4l0.3 -1.5l1.6 -1.5l1.7 -3.1l0.2 -2.6l-2.8 -0.9l-2.4 -0.9l-2.2 -0.8l-2.4 -0.2l-2.1 0.5l-1.2 -0.9l-2.6 -0.2l-1.6 1.1l-3.6 0.3l-2.8 -2.4l-2.3 -2.7l-2.2 -2.3l-0.1 -2.6l-2.8 -3.7l-2.6 -1.8l-2.8 1.2l-1.3 0l-1.1 -0.5l-2.1 -0.1l-3.8 -4.4l-2.4 -4.6l-4.2 -0.2l-1.4 -1.9l-2.2 1.5l-5.6 0.9l-0.3 3.1l-7.2 8.7l-3.6 0.1l-2.8 -1.7l-2.1 -4.1l-2.1 0.5l-0.2 2.3l-4 0.4l-5.4 -4.1l-2.9 -0.6l0.1 -2l-3.4 -0.4l-1.9 -2.1l1.7 -1.8l-1 -3.2l-3.2 -3.7l-2.4 -1l-4.3 -4.4l-30.8 0l-1.9 -6.4l-3.3 -2.1l-4.9 -1.4l-3.2 -4.6l-0.5 -6.1l1.1 -1.4l-3.3 -3.2l-4.8 -0.2l-0.3 3.1l-3 1.8l-4.7 -0.8l-2.3 3.2l0 97l0 3.6l0.1 66.7l-19.2 0z"/><path data-id="08053" d="m209.3 556.1l0.4 4l2.8 1l0.8 1.6l4.4 2.2l-0.5 4.3l2.2 3.4l-1.9 2.4l-0.4 2.6l2.6 3.1l0.2 5.5l3.7 0.4l3.1 2.6l1.5 5l-1.6 3l-1.9 -0.5l0 23.2l0 39l15.2 -0.2l35.2 0.1l0.7 -45.3l-3 -0.1l1.1 -27.6l-0.1 -19.9l3.9 -0.8l1.1 -2.1l1.2 1l3.8 -2.2l3.8 2.3l2.6 -0.9l2 1.3l1.2 -1.7l-0.1 -34.6l-80.9 0l-0.8 2l1.4 1.5l-0.1 5.3l1.7 3.6l2.9 -0.2l3.2 3.5l-4.1 6.1l0.3 3.3l-1.6 1.9l-3.5 -1.4l-2.5 2.6z"/><path data-id="08055" d="m509.1 617.2l-2.1 10.1l2.3 3.5l4.4 -2.3l1.7 -3.8l4.8 -1.1l1.2 0.8l4.3 -4.7l3.1 0.3l7.3 -3.7l8.8 6.7l3.1 -1l3.8 1.2l-2.3 4.5l-2.1 2.2l3.5 2.8l2.2 3.7l1 5.9l-0.8 6.8l0.2 3.5l2.7 -0.1l2.2 7l1.4 1.2l-1.1 2l-2.4 0.2l-1.6 1.9l-0.4 4.9l0.8 5.8l-0.2 7.1l1.5 -0.7l2 -0.6l1.5 -0.2l2 0.3l1.9 -1l1.1 -1.5l1.2 -0.8l1.6 -0.3l0.7 -1.1l1.3 -0.9l1.8 -0.7l1.2 -1.2l1.4 -0.1l0.9 -1l0.2 -2l1.8 -0.7l1 -1.1l1.8 -1.7l2.1 -0.1l2.1 -1.3l1.8 -1.3l1.8 -0.2l1.4 -0.9l1.2 0.5l1.4 0.5l1.8 0.3l1.4 0.5l1.2 -0.2l1.1 -0.7l2 -0.5l2.1 -0.7l1.7 0.5l1.9 -0.8l1 -0.1l1.4 0l1.6 0.1l1.6 -0.7l1.2 -0.3l1.9 -0.2l1 -1.8l1 -1l1 -0.8l1.3 -0.5l1.1 -1l1.1 -0.3l1.3 -0.6l-0.3 -1.8l0.1 -2.8l0.4 -1.6l0.3 -1.4l0.5 -1.8l1 -0.8l1.9 0.2l6.4 -3.8l5.7 -6.4l5.3 -8.9l3.5 -7.8l3.6 -6.4l4.1 -7.3l4.2 -6.8l7.8 -6.2l4.8 -4.5l-42.1 -15l-2.8 0.2l-23.2 1.5l-26.3 1.8l-3 -2.4l-2.2 -3.8l-1.9 -0.3l-0.4 -4.9l-2.6 -2l-3.4 2.2l-2.5 -1.4l-1.9 -6l-1.9 -1.4l0.6 -2.4l-2.9 -2.5l-3.7 2.1l-0.4 2.7l-2.4 2.1l-0.2 1.9l-3.3 1.4l-1.4 1.9l-3.6 8l-1.5 1.5l-1.8 -1.8l-1.3 -4.1l-1.5 -1.2l-4.3 2.6l-4.3 1.6l-5.2 4.6l-3.8 -1.3l-4.7 0.3l-0.8 2.9l4 0.3l3.1 4.8l-0.9 8.5l-2.8 1.6l0.8 3.2l-1.1 4.8l0.4 5l-3.3 2.9l0 7.6l-1.4 2.2z"/><path data-id="08057" d="m311.9 4.5l-0.2 1.8l0.4 1.9l0.6 1l0.4 1.5l0.2 1.2l1.3 1.6l0.4 1l1.7 0.3l1.4 -0.2l1.4 0.6l1.4 2.2l0.5 1.4l0.5 1.1l1 -0.4l1.2 -0.7l1 -0.7l1.1 0.4l0.6 1l1.3 1l1.1 0.1l1 0.4l0 1.1l-0.3 1.3l0.5 1l1.4 0.4l3.6 -0.7l0.9 -1.3l1.6 -0.8l1.1 2.2l0.4 1.3l1.4 0.5l0.5 1.3l1.2 1.4l-0.2 1.3l-0.8 2.1l0.3 1.2l1.1 0.7l1.3 0.3l1 1.5l0.1 1.8l0 1.6l-0.7 1.7l-1.1 1.1l-1.7 1.7l-0.5 1.1l-0.4 1.3l0.5 2.2l-1.4 1.9l0.4 1.1l0.1 2.2l-0.4 2.2l0.6 2.1l-0.8 1.7l-1.5 1.6l-0.6 3.4l0.6 2.2l-0.3 1.5l-1.5 2l-1.4 2.6l0.6 2.1l1 1.4l-0.4 1.7l-0.3 1.3l0 1.1l1.1 2.3l1 2.6l1 1.2l1.1 1.6l-0.4 1.2l0.8 1.5l1.1 1l0.4 1l0.2 2.2l-0.6 1.5l-0.2 1.6l-0.4 2l0.8 1l0.3 2.6l0.6 1.1l1.2 1.7l1.5 0.7l1.1 0.8l0.1 2.7l0.7 1.6l0.2 1.2l0.9 2.6l0.1 1.2l1.9 0.2l2.4 -0.5l1.9 0.4l1.7 0.6l1 0.8l1.3 -0.1l1 0.8l0.8 -2.5l0.8 -1.7l1.6 -0.2l0.9 -1.9l1.6 -1.6l2.1 1.3l0.6 2.7l1.3 2.2l0.7 1.6l0.3 2l1.3 1l1 0.4l1.2 -0.4l1.8 -0.3l1 0.2l1.4 1.1l1.2 -0.2l1.9 -1.3l1 -0.6l1.4 -0.1l1.3 -0.1l0.9 1l1.3 1.5l1.5 1l1.2 0.4l1.4 1.3l1.8 -0.5l0.3 -1.4l-0.1 -1.4l0.5 -1.7l1.2 -0.2l1.1 0.4l1 -0.6l1.6 0.5l0.8 2l1.5 2.2l0.7 1.2l1 0.5l1.3 -0.8l1.4 0l1.2 0.2l2.1 -0.4l1.1 -1.4l1.6 -1.4l1 0.2l1.1 1.1l1.4 1l1.3 -0.2l1.9 -1.8l2.4 -1.6l2.6 0.2l3.1 -1.2l3.4 -1.7l1.8 -0.9l1.6 -0.6l2.5 1.9l1.9 -0.3l1.5 1.3l1 1.5l1.3 -0.2l0.9 -2l1.6 -0.8l0.2 -1.5l-0.9 -1.5l1.4 -0.9l2 -2.2l1.6 -0.4l1.1 -0.5l0.1 -1.3l0.5 -3l-0.1 -2.9l0.2 -3.4l0.6 -1.7l1.2 -1.5l1.8 -0.2l2.1 -0.8l0.9 -4.5l-2.4 -2.7l-5.5 1l0.4 -3.7l-0.8 -5.8l-1.5 -1.2l-1.3 -6.3l-1.7 -0.5l-0.9 -6.1l-3.4 -7.5l0 -2.4l-2.4 -2.8l-1.1 -4.4l-2.1 -1.5l-2.6 -6.1l-2.3 -3.5l-0.4 -2.4l-2.4 -3.2l-3.3 -2.2l-2.9 -3.5l0 -2.1l-2.6 -1.2l-1.4 -6.1l-4.5 -3.1l-2.8 -3.6l0.5 -3.3l-1.6 -6.6l0.7 -1.4l-3.8 0l-14.8 -0.3l-9.3 -0.4l-6.4 -0.1l-1.2 0l-2 0l-57.5 -0.1l-0.1 1.5l0.5 1.3l-0.5 1l-1.8 0.7z"/><g data-id="08059"><path d="m570.1 255l0.2 1.4l0.5 -1.3z"/><path d="m521.6 268.5l0.1 30.4l0 50l9.6 0l2.4 -5.4l3.7 -3.7l0.6 -3.8l3.3 -1.9l-0.5 -3.5l1.6 -2.7l2.6 -0.6l-0.1 -1.6l2.4 -0.9l-0.5 -1.4l2.3 -5.8l3.2 -5.5l2.2 -5.9l-0.9 -2.9l1.2 -2.5l-0.8 -3.3l4.5 -2.6l2.1 -2.1l-1.6 -6.7l7 -4.5l1.9 -9.3l1.8 -2.7l1.1 -0.6l-0.1 -9.8l-5.4 0.3l3.7 -0.7l-2.4 -1.6l-3.7 0.6l-0.3 -2l2.6 0l3.5 -4.1l-2 -2.4l3 0.4l1 0l-1.3 -2.1l1.3 -3.2l0 -1.3l0 -4l-0.3 -1.3l0.3 -1.9l0 -2.3l0 -5.2l-1.7 -0.8l1.7 -0.5l0 -5.4l0.1 -6.2l-0.1 -1.2l0.1 -10.1l-2.7 2.7l-3.6 0l-1.7 -2.7l-5.5 0l2.6 4.4l-5.2 -0.4l-0.6 -3.2l-24.2 -0.8l-8.3 0.2l0 30.8l-0.1 33.5z"/></g><path data-id="08061" d="m791.5 461l-0.3 31.7l0.7 14l14.5 -0.1l82.2 -0.2l11.5 -0.1l2.6 -0.1l96.7 -0.3l0 -7.9l0 -13.1l0.1 -5.7l-0.2 -6.9l0 -9.4l0 -3.3l0 -3.6l0 -2.7l0 -4.2l0 -6.1l-2.1 0l-1.3 0l-141.5 0l-15.8 0.5l0 15.9l-47.3 0.3l0 1.3z"/><path data-id="08063" d="m840.2 349.2l0 16.6l62.5 -0.5l1.2 0.3l95.3 -1.5l-0.1 -15.2l0 -1.3l-0.2 -30.6l-0.1 -13l0 -5.5l0 -2.7l0 -16.2l0 -5.6l0 -5.8l0 -1.1l-71.6 0.6l-2.7 0.2l-33.1 0.3l-50.1 0.4l-0.1 80.6l-1.1 0z"/><path data-id="08065" d="m353.3 353.9l-0.9 2.6l1.2 5.5l55.1 0.3l0 -2.3l3.1 -3.3l-1.4 -3.1l-4.4 -0.1l5.2 -6.1l-1.6 -13.3l2.3 -3.9l-2.4 -2.2l0.7 -3.4l-0.9 -3.5l0.4 -5.4l2.1 -2.4l2.3 0.3l1.9 -3.5l-1.9 -4.3l2.5 -3.1l-10.1 0l-2.7 0l-2 2.6l-2.8 0.7l-3.5 2.3l-2.7 -2.1l-5.2 0.4l-1.8 1l-2.7 -1.3l-1.4 -2.9l-2.8 -0.9l-3.7 3.5l-1.2 3.8l0.4 4.5l-5.8 1.5l-1.7 -0.8l-2.5 2.6l-0.2 2.5l3 2.2l0 3.2l-2.1 2.4l1.1 2.6l-0.6 5.4l-2.1 5.8l-1.8 1.7l-2 -1.1l-3.7 1.4l-0.5 4.3l0.9 2.2l-0.8 2.6l-2.3 0.7z"/><path data-id="08067" d="m97 733.6l8.3 0.9l4.6 0l5.3 0l31 -0.1l4.7 0l73.9 0l-0.1 -75.6l0 -39l-37.2 0l-1.1 -0.1l-31.3 0.1l-0.4 1.8l-2.3 1.4l-1.6 1.6l-0.6 1.1l-1 0.4l-0.4 1.6l-1 1.6l0.1 1l-0.1 1.8l0.2 1l-0.2 1.3l-0.2 1.5l-0.4 1.5l-1.2 1.6l-0.3 1.9l0 1.7l-0.1 1.1l-0.3 1.4l0.2 1.2l0.3 1.7l0.1 1l-0.4 1.1l0.4 1.5l-0.7 1.1l-0.2 1.2l-0.6 1.3l-1.8 1l-1.3 -0.1l-1.1 -0.1l-1.1 1.8l-1.7 1.6l-1.5 2l-0.3 1.3l-0.2 1.6l0.2 1.3l-1 0.8l-1.1 1l-2.8 0.3l-1.3 1.6l-1.6 0.2l-1.9 -0.6l-2 1l-1.4 1l-1 2.2l-0.4 1.7l0.3 1.6l-1.1 1.4l-0.5 1.5l0.4 1.7l-0.8 1l-0.4 1l-0.7 1.2l-1.1 1l-0.4 1.6l-0.7 1l-0.6 1.7l-1.5 1.8l-1 1.2l-1.7 0.9l-1.2 0.5l-1.2 1.5l-0.3 2l0.4 1.4l-0.5 1.9l-0.1 3.5l0.3 2l0.3 2.1l-2.4 2.7l-0.2 1.5l-0.1 1.3l0.1 1.2l-1.2 1.9l-0.6 1l-0.3 2l-0.5 2.1l-0.7 1.4l-0.1 1.2l-1.5 1.1l-1.1 1.6l-0.2 1l-0.4 1l-1.6 0l-0.7 1l-0.4 1.4l-0.3 1.3z"/><path data-id="08069" d="m408.9 1.1l-0.7 1.4l1.6 6.6l-0.5 3.3l2.8 3.6l4.5 3.1l1.4 6.1l2.6 1.2l0 2.1l2.9 3.5l3.3 2.2l2.4 3.2l0.4 2.4l2.3 3.5l2.6 6.1l2.1 1.5l1.1 4.4l2.4 2.8l0 2.4l3.4 7.5l0.9 6.1l1.7 0.5l1.3 6.3l1.5 1.2l0.8 5.8l-0.4 3.7l5.5 -1l2.4 2.7l-0.4 3.8l6.8 2.2l0.2 5l-1.5 2.3l0.1 2.6l3.5 4.3l0 2.3l3.3 5l4.5 2.5l1 2.1l3.9 2.1l-0.1 2.2l2.3 1.9l0.5 5.6l4.1 2.3l15.9 -0.2l19.6 0.7l4.1 -0.7l12.2 -0.3l18.6 0.3l14.8 -0.1l-0.2 -16.3l7.7 0l2.7 0l5.4 0l0.2 -46.1l0.1 -16.3l0 -59.5l-44.4 0l-3.1 0l-63.8 0.2l-47.9 0l-18.4 -0.1z"/><path data-id="08071" d="m556.5 681.9l-0.1 53.2l2.6 0l2.2 0l13 0.5l4.1 -0.1l38.2 0l12.4 0l2.8 0l15.1 0l25.7 0l12.6 -0.2l34.6 -0.3l39 -0.3l82.5 -0.4l9.9 0l0.5 -68.2l1.1 0l-0.2 -47l-46.8 0l-93.2 -0.1l-0.1 -14.8l-0.3 -1.5l-41.3 -14.9l-4.8 4.5l-7.8 6.2l-4.2 6.8l-4.1 7.3l-3.6 6.4l-3.5 7.8l-5.3 8.9l-5.7 6.4l-6.4 3.8l-1.9 -0.2l-1 0.8l-0.5 1.1l0.2 1.5l-0.9 2.2l0 1.9l0.3 1.8l-1.4 1.5l-1.1 0.3l-1.1 1l-1.3 0.5l-1 0.8l-1 1l-1 1.8l-1.9 0.2l-1.2 0.3l-1.6 0.7l-1.6 -0.1l-1.4 0l-1 0.1l-1.9 0.8l-1.7 -0.5l-2.1 0.7l-2 0.5l-1.1 0.7l-1.2 0.2l-1.4 -0.5l-1.8 -0.3l-1.4 -0.5l-1.2 -0.5l-1.4 0.9l-1.8 0.2l-1.8 1.3l-2.1 1.3l-2.1 0.1l-1.8 1.7l-1 1.1l-1.8 0.7l-0.3 1.2l-0.1 1.7l-2.1 0.2l-1.2 1.2l-1.2 0.5l-1.9 1.1l-0.7 1.1l-1.6 0.3l-1.2 0.8l-1.1 1.5l-1.9 1l-2 -0.3l-1.5 0.2l-1.6 0.6z"/><path data-id="08073" d="m713.1 396.7l0.2 63.2l62.8 0l15.4 1.1l0 -1.3l47.3 -0.3l0 -15.9l0.1 -14.2l1.2 0l0.2 -63.6l0 -16.6l1.1 0l0.1 -80.6l-1 -0.1l-77.7 -0.1l-1 0l-1 80.7l0.2 47.9l-47.9 -0.4z"/><path data-id="08075" d="m780.8 56.8l-0.2 33.5l16.3 0l0.3 16.3l8.3 0l2.8 0.2l86.5 -0.6l16.4 0l0 -50l2 0l-0.1 -8.3l-0.3 -47.7l-12.3 0l-2.1 0l-1.7 0l-1 0l-7.7 0.1l-2.7 0l-2.8 0.1l-2.9 0l-2.7 0l-2.7 0l-2.7 0l-2.3 0l-3.2 0l-2.7 0l-5.5 0l-2.8 0l-2.6 0l-40.8 0.1l-2.7 -0.1l-2.1 -0.1l-3.6 0.1l-9.2 0l-1.5 0.1l-10.9 0l-0.1 56.5z"/><path data-id="08077" d="m0 445.9l0 18.1l97 0l0.1 -1.5l0 -29.1l0 -29.4l28.8 -12.1l1.5 -1.3l3.6 -0.8l0.5 -3.6l2.4 -0.2l4.8 -7.4l-1.1 -2.2l3.5 -3.1l2.3 -3.2l2.5 -0.6l0.6 -1.9l6.4 -4.7l0.7 -1.3l4.4 0l10.8 -2l2.4 -1.7l8.1 2.8l5.2 3.9l3.9 -4.2l2.3 0.2l1.3 -2.8l3.3 -1.2l7.4 -10.1l10 -7.2l3.4 -0.1l0 -2.3l4.8 -4.1l1.3 -0.3l2.3 -3.2l4.7 0.8l3 -1.8l0.3 -3.1l4.8 0.2l2.2 -2.4l-2.8 -4.8l-2 0.6l-7.5 -4.2l4.9 -6.2l-0.1 -3.3l-96.2 0l-134.6 -0.1l-0.1 44.3l-0.1 23.1l-0.1 10.5l-0.1 6.9l0 5.6l-0.5 14.5l-0.3 13.8l-0.1 22z"/><path data-id="08079" d="m274 585.7l-1.1 27.6l3 0.1l-0.7 45.3l0 5.5l59.6 -0.7l0 -1.4l-0.1 -46.7l2.3 0l0.3 -30.8l0 -6.9l-3 0.3l-3.1 -2.9l-2.7 1.3l-2.5 -0.9l-4 -5.1l-6.6 -1l-4.6 -5.5l0.1 -2l-2.2 -1.1l-3.7 -0.1l-3.7 2.4l-3.1 -3.8l-2.7 1l-1.9 2.4l-1.2 1.7l-2 -1.3l-2.6 0.9l-3.8 -2.3l-3.8 2.2l-1.2 -1l-1.1 2.1l-3.9 0.8l0.1 19.9z"/><path data-id="08081" d="m1.3 105.1l0 41.4l133.6 0.2l65.4 -0.3l22.6 0.6l7.4 -0.1l0.1 -21.4l1.5 0l0.5 -38.8l8.2 0l0 -10.9l8.2 0l-0.5 -75.8l-7.1 0l-36.8 0.2l-41.7 0l-18.3 0l-19.2 0.3l-9.9 0.1l-35.6 0l-3.7 0.1l-14.9 -0.1l-36.1 0l-23.6 -0.1l0.2 32.9l-0.1 21l0.1 9.8l0 1.7l0 6.5l-0.3 14.8l-0.1 7.6l0 10.4z"/><path data-id="08083" d="m2.1 667.3l0 22.4l0.1 7l-0.1 1.6l0 4.4l0.1 11.7l0 2.8l0 1.8l0 2.1l0 13.4l12.3 0l48.2 -0.1l12 0l22.4 0l0.3 -1.6l0.3 -1.3l0.4 -1.4l0.7 -1l1.2 0.4l0.8 -1.4l0.2 -1l1.1 -1.6l1.5 -1.1l0.1 -1.2l0.7 -1.4l0 -1.2l0.7 -2l0.7 -1.9l0.5 -1.1l0.6 -2l0.1 -1.3l0.2 -1.5l2.4 -2.7l-0.3 -2.1l-0.3 -2l0.1 -3.5l0.5 -1.9l-0.4 -1.4l0.3 -2l1.2 -1.5l1.2 -0.5l1.7 -0.9l1 -1.2l1 -1.3l1.1 -2.2l0.7 -1l0.4 -1.6l1.1 -1l0.7 -1.2l0.4 -1l0.8 -1l-0.4 -1.7l0.5 -1.5l1.1 -1.4l-0.3 -1.6l0.4 -1.7l1 -2.2l1.4 -1l2 -1l1.9 0.6l1.6 -0.2l1.3 -1.6l2.8 -0.3l1.1 -1l1 -0.8l-0.2 -1.3l0.2 -1.6l0.3 -1.3l0.7 -1.4l1.6 -1.8l1.1 -1.6l2 -0.5l1.3 0.1l1.8 -1l0.6 -1.3l0.2 -1.2l0.7 -1.1l-0.4 -1.5l0.4 -1.1l-0.1 -1l-0.3 -1.7l-0.2 -1.2l0.3 -1.4l0.1 -1.1l0 -1.7l0.3 -1.9l1.2 -1.6l0.4 -1.5l0.2 -1.5l0.2 -1.3l-0.2 -1l0.1 -1.8l-0.1 -1l0.6 -1.1l0.2 -1.4l1.6 -1.1l0.6 -1.1l1.6 -1.6l2.3 -1.4l0.4 -1.8l-19.6 0.2l-7.6 0.6l-107.6 0.6l-18 26.4l-0.3 19.7z"/><path data-id="08085" d="m0 464l0 40.8l0.8 5.5l1.8 14.5l0 2.1l18.7 -0.1l134.7 0.2l2.7 0l-0.1 -3.9l1.4 0l0.1 -8.2l-1.4 -1.4l-2.6 0l0 -1.4l-2.7 0l0 -2.6l-3.9 0l0 -1.3l-10.7 0l0 -5.3l-2.5 0l-0.1 -5.4l-2.6 0l-1.3 -3.3l37.9 -0.1l32.9 0l0.1 5.5l19.2 0l-0.1 -66.7l-71 0l-54.1 0.1l0 29.1l-0.1 1.5l-97 0z"/><path data-id="08087" d="m699.5 122.7l0 65.2l63.3 -0.1l33.3 0l1 -65l-0.1 -16.2l-0.3 -16.3l-16.3 0l-80.6 -0.2l-0.4 32.6z"/><path data-id="08089" d="m712.4 586.7l-0.2 15.9l0.3 1.5l0.1 14.8l93.2 0.1l0.1 -31.5l0.5 -80.9l-14.5 0.1l-1.2 0.2l0.1 16.6l-15.7 0.2l0 10.5l-26.2 0.1l-1.3 -1l-3.4 0.8l-1.5 -1.8l-3.2 -1l-1.3 0.8l-6.5 -1l-1.5 1.1l-5.8 -1.4l0 -1.2l-2.9 -1.5l-3.9 1l-3.5 -0.1l-1.6 -0.9l-0.3 58.5z"/><path data-id="08091" d="m132.2 494.6l1.3 3.3l2.6 0l0.1 5.4l2.5 0l0 5.3l10.7 0l0 1.3l3.9 0l0 2.6l2.7 0l0 1.4l2.6 0l1.4 1.4l-0.1 8.2l-1.4 0l0.1 3.9l-2.7 0l2 1.3l0 5.2l8.6 0l-0.3 10.5l0.8 2.2l-1.7 3.5l1.5 2.6l5.8 0.6l0 2.9l7.6 0.7l2.4 5l4.2 1.4l2.3 4.2l-0.8 4.4l6.1 2.4l4.5 -2l3.7 -3.1l-0.5 -8l10.4 0l-2.8 -1l-0.4 -4l2.5 -2.6l3.5 1.4l1.6 -1.9l-0.3 -3.3l4.1 -6.1l-3.2 -3.5l-2.9 0.2l-1.7 -3.6l0.1 -5.3l-1.4 -1.5l0.8 -2l0.9 -2l-2.7 -9.9l-1.1 -6.7l-3.2 -2l-3.3 -7.5l-0.1 -5.5l-32.9 0l-37.9 0.1z"/><path data-id="08093" d="m406.1 353.6l4.4 0.1l1.4 3.1l-3.1 3.3l0 2.3l1.2 3.2l-1.5 3.7l1.9 1.3l1.6 3.7l3.3 -1.2l5.2 1.9l0.7 2.4l-1.3 3.4l0.4 2.8l3.7 0.1l2.8 1.4l1.1 -1.8l4.3 -0.2l4.8 5.1l1.2 -0.6l2.9 2.2l-1.9 2.1l0.7 2.2l4.7 -0.6l2.3 2.5l-2.6 3.6l0.2 2.2l5 6.1l-4.6 8l-1.1 8.5l-3.4 4.2l11.5 -0.3l1 0.2l78.7 -0.6l-0.2 -79.2l-9.6 0l0 -50l-0.1 -30.4l-26.9 -0.4l-26.9 0.6l-7.6 0l1.9 2.9l-1.1 3.4l-3.1 1.3l-2.2 -1.2l-0.9 2.5l1.8 2.2l-1.3 0.4l-2.2 3.4l-1.8 -0.1l-2.8 5.1l-3.9 -0.3l-0.8 3.2l-3.2 0.5l2.1 4.3l-5.9 2.4l-3.6 3.8l-0.5 3.6l-4.9 0.6l-5.8 -3.6l-5.5 -0.3l-2.5 3.1l1.9 4.3l-1.9 3.5l-2.3 -0.3l-2.1 2.4l-0.4 5.4l0.9 3.5l-0.7 3.4l2.4 2.2l-2.3 3.9l1.6 13.3l-5.2 6.1z"/><path data-id="08095" d="m911.2 56.2l0 50l87.4 -0.3l0 -15l0 -3.3l0 -30l0 -9.8l-85.5 0l0.1 8.3l-2 0z"/><path data-id="08097" d="m232.2 308.7l-4.9 6.2l7.5 4.2l2 -0.6l2.8 4.8l-2.2 2.4l3.3 3.2l-1.1 1.4l0.5 6.1l3.2 4.6l4.9 1.4l3.3 2.1l1.9 6.4l30.8 0l4.3 4.4l2.4 1l3.2 3.7l1 3.2l-1.7 1.8l1.9 2.1l3.4 0.4l-0.1 2l2.9 0.6l5.4 4.1l4 -0.4l0.2 -2.3l2.1 -0.5l2.1 4.1l2.8 1.7l3.6 -0.1l7.2 -8.7l0.3 -3.1l5.6 -0.9l2.2 -1.5l1.4 1.9l4.2 0.2l2.4 4.6l3.8 4.4l1.8 -0.5l1.1 -4.9l-0.8 -3.6l2.7 -2.4l-1.2 -5.5l0.9 -2.6l2.3 -0.7l0.8 -2.6l-0.9 -2.2l0.5 -4.3l3.7 -1.4l2 1.1l1.8 -1.7l2.1 -5.8l0.6 -5.4l-1.1 -2.6l2.1 -2.4l0 -3.2l-3 -2.2l0.2 -2.5l2.5 -2.6l1.7 0.8l5.8 -1.5l-0.4 -4.5l1.2 -3.8l-9 0l-2.8 -0.1l-86.1 -0.7l-45.2 0l0.1 3.3z"/><path data-id="08099" d="m899.4 586.6l0 32.4l100.6 -0.1l0 -1.8l0 -2l0 -2.7l0 -7.8l0 -2.6l0 -3.9l-0.1 -5.2l0 -2.7l0 -3.7l0 -7.9l-0.1 -10.5l-0.1 -21.6l0.1 -12.2l0 -2.2l0 -3l0 -19.6l0 -2.2l0 -1.2l-96.5 0.3l-2.8 0.1l0.3 80.1l-1 0.1z"/><path data-id="08101" d="m571.3 534.1l0.1 35.9l2.2 3.8l3 2.4l26.3 -1.8l23.2 -1.5l2.8 -0.2l42.1 15l41.3 14.9l0.2 -15.9l0.3 -58.5l0.5 -20.9l0.1 -47.4l-73.1 0.4l-9.1 0l-43.1 -0.1l-1.2 0.1l0.1 26.8l0.1 20.7l-15.5 0.1l0.1 23.6l-0.3 2.5z"/><path data-id="08103" d="m1.4 211.3l-0.1 39.8l22.1 0l0 1.9l48.6 0l0 -8l87.8 -0.2l0 -24.2l21.6 0l13.2 -0.9l37.4 0.3l0 -16.6l16.1 0.5l0.2 -16.5l0 -16.2l39.8 -0.1l-0.1 -24.9l-57.2 0.4l-8 0.7l-22.6 -0.6l-65.4 0.3l-133.6 -0.2l0 7.8l0 22.6l0 34.3z"/><path data-id="08105" d="m334.6 615.3l0.1 46.7l4.6 0.1l27.1 0.4l63.9 0.1l0.1 -62.5l-78.1 0.1l-0.1 -15.6l-15.2 -0.1l-0.3 30.8l-2.3 0z"/><path data-id="08107" d="m230.5 125.6l0.5 20.8l57.2 -0.4l0.1 24.9l0.8 16.5l-0.3 15.6l44 -0.3l14.1 0.4l0 -1.1l0.1 -14l-1.6 -0.4l0 -32.9l0.7 -30.4l-2.9 0l0.1 -19.4l-0.6 -1.1l-0.3 -2.6l-0.8 -1l-0.2 -1.2l0.8 -2.4l0.6 -1.5l-0.2 -2.2l-0.4 -1l-1.1 -1l-0.8 -1.5l0.4 -1.2l-1.1 -1.6l-1 -1.2l-1 -2.6l-1.1 -2.3l0 -1.1l0.3 -1.3l0.4 -1.7l-1 -1.4l-0.6 -2.1l0.6 -1.9l2.3 -2.7l0.3 -1.5l-0.6 -2.2l1 -2.9l0.3 -1.5l1.6 -2.3l-0.6 -2.1l0.4 -2.2l-0.1 -2.2l-0.4 -1.1l1.4 -1.9l0.2 -1.3l-0.3 -2.2l0.5 -1.1l1.5 -0.8l1.3 -2l0.7 -1.7l0 -1.6l-0.1 -1.8l-1 -1.5l-1.3 -0.3l-1.1 -0.7l-0.3 -1.2l0.3 -1.2l0.7 -2.2l-1.2 -1.4l-0.5 -1.3l-1.4 -0.5l-0.4 -1.3l-0.7 -1.5l-1.4 -0.8l-1.5 2.2l-3.6 0.7l-1.4 -0.4l-0.5 -1l0.3 -1.3l0 -1.1l-1 -0.4l-1.1 -0.1l-1 -0.4l-0.9 -1.6l-1.1 -0.4l-1 0.7l-1.2 0.7l-1 0.4l-0.5 -1.1l-0.5 -1.4l-0.9 -1.4l-1.1 -2l-2.2 0.8l-1.6 0l-0.5 -1.3l-1.3 -1.6l-0.2 -1.2l-0.4 -1.5l-0.6 -1l-0.4 -1.9l0.2 -1.8l1.5 -0.8l1 -1.8l-0.9 -1.6l-20.1 -0.4l-34.3 0.1l-10.9 0l0.5 75.8l-8.2 0l0 10.9l-8.2 0l-0.5 38.8l-1.5 0z"/><path data-id="08109" d="m293.4 528.1l0.1 34.6l1.9 -2.4l2.7 -1l3.1 3.8l3.7 -2.4l3.7 0.1l2.2 1.1l-0.1 2l4.6 5.5l6.6 1l4 5.1l2.5 0.9l2.7 -1.3l3.1 2.9l3 -0.3l0 6.9l15.2 0.1l0.1 15.6l78.1 -0.1l82.8 -0.6l1.1 -4.8l-0.8 -3.2l2.8 -1.6l0.9 -8.5l-3.1 -4.8l-4 -0.3l0.8 -2.9l-4.1 -4.9l-1.3 -2.9l-3.2 -2.9l-3.8 0.6l-3.4 -2.8l0.3 -1.5l-3.3 -6.1l1 -0.9l-4.3 -9.7l-4.1 -4.5l-1 -4.9l-1.9 -4.9l0.5 -2.3l-3.9 -1.8l-5.2 -7.3l-7.6 -6.3l-1 -3.8l-3.1 -1.6l-3.4 -3.6l-2.2 -0.9l-2.6 -3.2l-1.8 -4.5l-4.4 -4.8l-3.5 -2.1l-0.4 -2.2l-5.2 -5.4l-1.8 -0.1l-2.3 -3.6l0.3 -1.2l-1.2 -1.4l-3.4 -0.7l-2.3 0.2l0.1 2.2l-2.6 3.8l-7 0.3l-17.3 -0.1l-73.2 -0.4l-34.2 -0.1l-0.1 50.6z"/><path data-id="08111" d="m157.2 618.1l-1.9 1.7l31.3 -0.1l1.1 0.1l37.2 0l0 -23.2l1.9 0.5l1.6 -3l-1.5 -5l-3.1 -2.6l-3.7 -0.4l-0.2 -5.5l-2.6 -3.1l0.4 -2.6l1.9 -2.4l-2.2 -3.4l0.5 -4.3l-4.4 -2.2l-0.8 -1.6l-10.4 0l0.5 8l-3.7 3.1l-4.5 2l-6.1 -2.4l-2.5 4l-3.8 2.8l0.5 3.2l-2.5 4.9l-4.6 2l0.9 2.9l-2.7 3.9l-2.8 -0.2l-1.4 2.3l1.2 1.2l-2 3.1l0.4 3l-4 0.6l-5.1 3l-2.2 -0.8l-2.3 1.9l-0.1 3.1l1.8 5.5z"/><path data-id="08113" d="m2.5 555.3l0 4.1l0.3 12.1l-0.1 4.7l1.6 0l3.3 0l3.1 0l1.9 0l1.9 0l3.8 0l1.7 0l2.3 0l1.6 0l1 0l1.6 0l1.9 0l3.9 0l2 -0.5l0.2 -1.4l2.5 -0.7l4.8 0l4.3 0l5.6 0l7 0l4.3 0l9.3 0.1l8.9 0.1l8 0.1l7.1 0l2.6 0l3.5 0l3.5 0l8.3 0.6l1.3 1.7l1.8 1.5l0.6 1.8l0.5 1.9l0.3 1.6l1.2 1.3l1.1 2l1.1 0.4l1.1 -0.3l1.9 -0.7l1.6 -0.6l1.2 -0.6l1.5 0l1 -0.6l1.6 -0.5l1.2 -1.3l1.9 -1.3l1.4 0.9l0.9 1.2l1 0.3l1.9 -1.1l1.3 -0.4l1.4 1l2.3 -1.5l1.3 -0.6l1.8 -0.1l1.1 0.1l1.1 -0.2l1.3 0.1l0.8 1.4l1 1.1l0.7 1.3l1.8 0.4l1 -0.3l1.1 1l1.2 1l2.5 0l0.9 1.5l2.1 1.8l1.4 2.4l1.6 1.2l1.7 1.1l3.7 1l2.7 -3.9l-0.9 -2.9l4.6 -2l2.5 -4.9l-0.5 -3.2l3.8 -2.8l2.5 -4l0.8 -4.4l-2.3 -4.2l-4.2 -1.4l-2.4 -5l-7.6 -0.7l0 -2.9l-4.9 0.2l-2.4 -3.4l1.7 -3.5l-0.8 -2.2l0.3 -10.5l-8.6 0l0 -5.2l-2 -1.3l-134.1 -0.5l-19.3 0.4l-0.1 27.8z"/><path data-id="08115" d="m912.8 0.2l0.3 47.7l85.5 0l0 -47.6l-2.7 0l-7.7 0l-9.4 0l-2.6 0l-3.2 0l-5.1 0l-3.3 0l-10.3 0l-2.2 0l-12.8 0l-2.7 0l-9.8 0l-1.3 0l-1.3 0l-6.4 -0.1l-4.6 0.1z"/><path data-id="08117" d="m374.1 202l0.8 5.5l-0.7 3.5l0.2 2.2l1.4 4.3l1.5 2.7l1.6 4.4l1.5 2.6l1 4.2l1.6 1.4l1.2 1.2l1.2 -0.1l1.7 -0.9l1.2 1.8l0.9 1.8l1.3 1.4l1.5 0.9l1.4 0.8l0.7 1.4l0.5 1.7l1.6 0.7l1.5 -0.4l0.7 1.5l-0.1 1.2l0.6 1.1l1.1 0.5l2 0.6l0.9 2.5l1.9 0.8l4.2 0.9l1.6 3l0.3 2.8l-0.5 2.7l-1.5 0.6l-1.7 -0.3l-1.1 1.6l-0.1 1.8l-0.5 1.8l0.6 1.7l0.9 2l0.3 1.4l-1.1 0.6l-0.1 2l-1.6 0.8l-1.5 -1.6l-0.6 -1.1l-1.2 0.5l-1.6 3.4l1.2 2.4l-0.7 1.9l-0.7 1.6l1.3 1.2l-0.4 1.7l-0.2 1.9l1.3 1.7l0.5 1.4l0.8 1.5l1.2 1.9l-0.7 2.1l0.2 1.1l1.4 0.6l0.8 1.2l1.1 1.2l0.2 1.7l-0.7 1.5l10.3 0.3l5.5 0.3l5.8 3.6l4.9 -0.6l0.5 -3.6l3.6 -3.8l5.9 -2.4l-2.1 -4.3l3.2 -0.5l0.8 -3.2l3.9 0.3l2.8 -5.1l1.8 0.1l2.2 -3.4l1.3 -0.4l-1.8 -2.2l0.9 -2.5l2.2 1.2l3.1 -1.3l1.1 -3.4l-1.9 -2.9l-1.2 -1.5l4.3 -1.9l4.6 -4.8l-0.9 -3.7l-1.5 -1.4l-3.4 0.5l-0.6 -1.7l-3.9 -0.3l-2.3 -4.3l-2.9 1.9l-3.7 -1l-2.2 -2l0.2 -4.8l-3 1.9l-0.8 -1.2l-6.5 2l-2.4 -0.4l-2.7 -1.5l-0.9 -3.3l-2.9 -2.3l-0.9 -6.7l-2.3 -4.9l-0.4 -3.4l-6.8 -7.1l-2.6 0.9l-3.1 -1.1l-4.2 -3.5l-4.4 -6.8l-2.9 -2.6l-6.1 -0.8l-14.3 0.9l0 -2l-5.6 -0.1z"/><path data-id="08119" d="m531.6 348.9l0 79.2l13 0.1l-0.4 9l2.9 0l21.2 -0.2l2.5 -0.8l15.9 0.6l0.4 -15.9l0 -10.9l-13.1 0l-5.9 -0.4l0.8 -12.8l5.4 0.1l0.2 -27.6l0.1 -1.9l-0.9 -18.4l-42.1 0z"/><path data-id="08121" d="m762.8 236.3l-0.1 32.1l77.7 0.1l1 0.1l50.1 -0.4l-0.1 -80.6l1.5 0l0 -65l1.9 0l0 -16.3l-86.5 0.6l-2.8 -0.2l-8.3 0l0.1 16.2l-1 65l-33.3 0l-0.1 48.5z"/><g data-id="08123"><path d="m581.4 181.9l1 0.7l-1 -0.7z"/><path d="m570.4 122.9l0.2 16.3l0 1.1l0 9.8l0 12.2l0 9.5l0 15.7l6.8 0.5l2.6 -1.3l-1.3 -3.4l5.4 -3.4l0 5.4l0 2.7l5.6 0l5.2 0l18.8 0l37.6 0l48.4 0l0 -65.2l0.4 -32.6l80.6 0.2l0.2 -33.5l1 -56.5l-25.2 -0.1l-15.4 0.1l-2.8 0l-2.6 0l-1.4 0.1l-6.7 0l-2.5 0l-6.7 0l-3 0l-2 0l-2 0l-2.7 0l-2.6 0l-2.7 0l-12.5 0l-36.5 0l-4.2 -0.1l-14.6 0.1l-10.9 0.1l-13.8 0.2l-8 0.1l-3.7 0.2l-12.6 0l0 59.5l-0.1 16.3l-0.2 46.1l-5.1 0l-3 0l-7.7 0z"/></g><path data-id="08125" d="m891.4 187.5l0.1 80.6l33.1 -0.3l2.7 -0.2l71.6 -0.6l0 -3.4l-0.1 -9.9l0 -1.4l-0.1 -4l-0.1 -26.6l0 -2.7l0 -1.9l0 -1.2l0 -28.5l0 -27.1l0 -2.7l0 -12.4l0 -1.1l0.1 -19.2l0 -2l0 -2l0 -6.2l0.1 -8.8l-87.4 0.3l-16.4 0l0 16.3l-1.9 0l0 65l-1.5 0z"/></svg>
