<?xml version="1.0" encoding="UTF-8"?>
<!DOCTYPE svg PUBLIC '-//W3C//DTD SVG 1.1//EN' 'http://www.w3.org/Graphics/SVG/1.1/DTD/svg11.dtd'>
<svg viewBox="0 0 10000 7356.75" xmlns="http://www.w3.org/2000/svg">
  <g data-id="001">
    <path d="m5709 2214.5l0 0l0 53.7l45.5 -5.4l7.8 5.4l56.8 0.1l10.3 -13.6l41.1 13.7l18.4 13.4l20.1 -0.1l13.3 -27l27 0.1l0.1 -27.2l26.4 -0l0 27.1l107 0.3l0.1 -80.8l83.7 -6.1l0.8 -99.4l10.6 0.1l26.4 0.2l18 -29.1l18.1 14.1l56.8 0.7l9.1 12.9l47.8 -0.3l-7.6 47.6l-20 0.1l-0.1 95.3l-203.1 -1l-0.2 45.5l40.2 -0l-0.3 54.3l-67.1 -7.8l-66.3 0.4l-6.7 12.9l-33.6 -4.1l13.7 25.4l-47 0.1l-6.8 26.8l106.3 0l214.7 -0.6l35.4 1.6l25.6 -0.8l4.1 0l16.2 0.2l107.2 2.2l5.8 0.2l0.2 0l3.7 0.1l0.2 0l0.1 0l0.1 0l13.3 0.4l4.3 0.1l0.1 0l0.1 0l0 0l0.1 0l0.1 0l0.1 0l0 0l0 0l0.1 0l2.2 0l0 0l7.3 0l15.5 0l0.4 0l6.1 0l5.1 0l0.4 0l0 0l0 0l0.1 0l0.1 0l0.1 0l0.1 0l0 0l0.6 0l0.3 0l0.1 0l0 0l11 0l1.8 0l0.2 0l1089.1 -3.1l1.2 -485.4l-633.5 0.9l-483.6 0.5l-376.1 0.3l-188.4 0.2l-51.6 0l-55.9 -0l-27.9 0.2l-10.3 59.1l-39.4 -23.7l0.5 111.1l-53.3 13.3l-0.5 100.8l0.6 12.5l-0.6 61.6z" />
  </g>
  <g data-id="003">
    <path d="m4304.1 6626.2l0 0l0.6 78.7l421.1 0.3l352 -371.6l15.4 -25.3l-23.1 -35.4l21.1 -100.6l13.7 -22.1l0.1 -75.5l32.9 -29.3l-4.3 -49.6l-828 5.6l-1.3 624.7z" />
  </g>
  <g data-id="005">
    <path d="m5893.2 2480.2l0 0l-9 3.4l13.9 12.5l-0.7 14.3l11.4 7.6l-6.5 -31l-9.1 -6.8z" />
    <path d="m5869.4 2416.2l0 0l0.1 30.5l18.2 -3.5l-5.1 -13.2l6.4 0.4l-0.1 -5.5l-0 -0.3l-1.9 0l0 -0.2l-1.2 -0l-0 0.7l-0.7 -0l-15.8 -8.9z" />
    <path d="m5708.4 2592.6l0 0l-0.7 92.1l7.7 0l108.2 0l84 0.1l13.4 0.1l126.4 -0l43.8 -0.2l150.5 0.2l26.6 0.2l26.4 0l1321.8 -0.8l10.4 0.1l0.7 -321.2l-1089.1 3.1l-0.2 -0l-1.8 -0l-11 -0l-0 0l-0.1 0l-0.3 0l-0.6 -0l-0 0l-0.1 0l-0.1 0l-0.1 0l-0.1 -0l-0 0l-0 0l-0.4 0l-5.1 -0l-6.1 -0l-0.4 0l-15.5 -0l-7.3 -0l-0 0l-2.2 -0l-0.1 -0l-0 0l-0 0l-0.1 0l-0.1 0l-0.1 0l-0 0l-0.1 -0l-0.1 -0l-4.3 -0.1l-13.3 -0.4l-0.1 -0l-0.1 -0l-0.2 -0l-3.7 -0.1l-0.2 -0l-5.8 -0.2l-107.2 -2.2l-16.2 -0.2l-4.1 -0l-25.6 0.8l-35.4 -1.6l-214.7 0.6l-106.3 -0l-0.1 13.5l-2.7 6.7l16.1 6.7l13.3 53.7l-36.8 -0l-16.7 7.4l6.7 6l0 -2.5l0.9 0l-0.9 -1.2l0 -0.4l13.5 17.6l-20.2 26.7l53.4 -6l25.2 21.6l1 4.5l-46.6 20l-7.1 40.4l-40.1 0l0.2 -27l-26.3 -26.6l-12.8 0.1l-46.7 -27.2l-53 13.3l2.9 -33.5l-10.2 33.5l-26.2 13.4l12.5 45.7l-13.5 1.5l-13.1 -0.4l-13.3 -6.6l-0.1 3.8l0 15.8l-0.3 9.4z" />
  </g>
  <g data-id="007">
    <path d="m2248.4 6587.1l0 0l0.6 756.1l86.7 -0l620.3 -0.2l154.2 -0l10.7 13.8l169.8 -0.1l106.8 -1.2l20.3 -0.2l46.5 0.1l0.1 -0l16.4 0.3l-0 0.1l166.1 -1.4l34.6 -0.1l-18.2 -37.9l-142.6 -223.4l-11.7 -98l-115.4 -60.1l-0 -313.6l-46.2 -1.1l0 14.3l-595.5 6.9l0.1 -54.8l-351.8 -1.2l-151.8 1.7z" />
  </g>
  <g data-id="009">
    <path d="m8516.8 6660.7l0 0l-5.1 682.2l119.5 0.1l21.7 2.8l1.7 -0.1l8.8 0l196.1 -1.9l35.4 -0.3l24.7 0.5l30.3 0.4l26.6 1.3l25.4 1.5l62.6 4.5l488.4 1l0.1 0.1l134.6 0.2l74.8 1.2l34.3 0.2l184.9 0.9l17.5 0l0.4 -56.5l0 -10.8l0 -2.5l0.2 -4l-0.2 -1.2l-0.1 -127.6l0.2 -9.7l-0.4 -23.3l-0.1 0l0.2 -29.9l0.1 -208.2l0.4 -70.7l-0.2 -21.2l-0.2 -77.3l-0.2 -0.4l0.8 -39.8l-0.1 -25.4l-0.1 -37.1l0 -44.6l-0.1 -0.2l-0.1 -62.2l0 -65.7l-0.3 -52.4l0.2 -10.6l0 -30.2l0.4 -89.7l0 -65.5l-1005.9 1.2l-393.8 -1.3l-73.9 1.7l1.8 470l-11.2 0.3z" />
  </g>
  <g data-id="011">
    <path d="m8059.3 5875.2l0 0l-1 315l467.9 0.3l73.9 -1.7l393.8 1.3l-0.1 -323.9l10.3 -1.1l-2.7 -801.3l-113.1 0.1l-1.8 0.7l-822.1 1.9l0.1 800.8l-5.4 7.9z" />
  </g>
  <g data-id="013">
    <path d="m5702.7 1927.3l0 0l-35.4 28.6l39 2.6l3.3 0.1l0.1 -15l-7 -16.3z" />
    <path d="m4811.5 1893.5l0 0l-14.3 96l24.8 16.3l311 0.5l27.2 -9.6l12.9 11.4l10.3 -0.8l4.2 5.2l7.3 -10.4l10.7 5l8.3 -6.3l3.9 3.9l0.2 37.3l83.1 -1.7l247 -0.5l27.1 0.3l0.1 -28l13.4 0l0 -20l13.6 -26.9l26.3 -4.2l-13 43.7l13.2 13.9l0.3 -19.8l46.4 -13.4l6.6 -26.7l-23.7 -0.7l51 -36.5l0 -16.2l-0.1 -25.8l-3.8 -5.3l0.1 -157l0.1 -94.5l0.3 -122l0.1 -97.9l0 -10.6l-148.1 1.1l-185.8 -2.9l-122.2 2.8l-41.1 6.5l-196.5 -6.6l-158.6 1.6l13.3 19.6l-21.2 1l-16.6 77.7l-10.2 11.4l14.2 80.9l44.4 22.2l14.9 35.5l-12.2 26.3l-1.1 71.3l-22.3 30.7l19.3 23.5l-21.8 41.1l-52.8 16.1l9.5 41.3z" />
  </g>
  <g data-id="014">
    <path d="m5631.9 1958.5l0 0l-2.6 3.2l7.7 -2.5l18 -0.6l-12.6 -0.5l0 -1.6l-0.6 0.1l-3.9 0.3l-5.2 1.1l-0.9 0.5z" />
    <path d="m5548.2 2040l0 0l-5.1 8.2l6 31.8l52.3 4l-26 -43.9l54.9 -0.3l17 26.7l35.6 -0.1l26.8 -26.7l53.3 -13.3l-0.5 -111.1l39.4 23.7l10.3 -59.1l27.9 -0.2l0 -0.2l-0.2 0l0.3 -27.1l0.4 -54.3l-54 34.2l13.3 33.7l-26 13.4l-64 0.4l0.1 25.8l-0 16.2l-51 36.5l23.7 0.7l-6.6 26.7l-46.4 13.4l-0.3 19.8l-13.2 -13.9l13 -43.7l-26.3 4.2l-13.6 26.9l-0 20l-13.4 -0l-0.1 28l-27.1 -0.3z" />
  </g>
  <g data-id="015">
    <path d="m3506.4 3730.4l0 0l2.7 6.1l11.5 5.1l12.8 -0.1l28.3 -11.6l26 18.2l28.4 37.2l1.3 26.2l22 23.4l22.7 26.8l28.3 24.3l36 -2.8l15.7 -10.8l22.6 -5.4l2.7 7.3l11.9 8.5l20.8 -5.4l23.5 1.7l21.9 8.2l24.4 8.6l27.5 8.6l-1.9 25.6l-15 24.1l-2.2 7.3l-10.6 6.9l-5.1 7.7l0 10.2l-2.9 5l-10.7 1.8l-5.3 2.1l-4.2 5.2l0 5.8l-3.6 7.7l-4.2 8.8l-7 3.1l-5.4 3.7l-5.1 7.4l-0.7 5.9l-4 5.9l-5.5 1.9l-9.9 0.4l-10.2 -8.2l-2.3 -2.6l-5.8 2.8l-4.2 3.9l-3.7 7.7l0.3 11l-6.9 5.7l-3 9.2l4.8 6.6l2.6 4.8l3.4 5.5l2.2 9.7l-3.8 7l1.4 13.9l0.1 8.1l-1.6 8.3l-3 6.4l1.3 8.6l2.5 11l-3.8 6.1l-0.3 16.6l-1.4 38.6l-21.6 27l-14.5 4.1l-9.3 20.1l14 16l16.9 52.1l30.5 19.9l28.5 14l4.8 28.9l19.3 8.5l16 34.5l9.5 28.1l8.1 44l-9.8 42.7l10.1 47.5l12.3 22.9l4.4 4.6l4.4 3.4l5.7 -3.4l10 -1.7l6 4.7l9 3.4l5.3 14.8l8.8 15.9l14.8 6.1l2.1 15.3l7.3 13l11.8 4.4l17.5 23.1l14.8 1.9l6 11.5l0.5 10.2l2.3 11.4l172.9 1.2l69.9 -2.8l26.4 -38.3l-0.8 -22.3l22.5 -2.4l33.8 7l11.8 14.3l103.6 -103.6l41.8 -3.9l7.1 -77.1l26.1 -24.3l-10.1 -21.8l20.5 -52.6l-12.9 -35l-40.6 -15.9l11 -38.1l-25 -28.1l-1 -24.7l-27.2 -18.8l-34.8 -6.1l33.6 -42.3l10.6 -84.6l45.8 -80.3l-49.9 -60.7l-2.2 -22.2l25.7 -36.4l-23 -24.6l-47.1 5.7l-7.3 -22.1l19.4 -20.8l-29 -22.4l-11.9 5.9l-48 -51.3l-42.9 1.9l-10.9 18.2l-27.7 -13.9l-36.6 -1.2l-3.9 -27.9l13.4 -34.5l-6.5 -24.3l-51.9 -19.3l-32.9 12.2l-15.6 -36.7l-19.4 -12.6l15.1 -37.5l-12.1 -32.1l-551.3 -3.4l-27.5 24l7.9 36.5l-10.7 49.4z" />
  </g>
  <g data-id="017">
    <path d="m8388.7 4293.7l0 0l-0.7 141.6l157.7 -4.7l1415.3 -0.3l13 0.1l20.5 -0.1l-0 -0.1l0.3 -99.2l-0 -9.7l-0.1 -0.5l0 -21l-0 -3.3l-0.1 -16.5l-0.2 -103.7l0.1 -2.2l-0.1 -26.6l-0.1 -24.5l0.2 -29.3l-0.1 -25.5l-1.7 -427.9l-953.4 15.3l-11.9 -2.8l-625.3 4.7l-1.6 635.8l-11.8 0.1z" />
  </g>
  <g data-id="019">
    <path d="m4467.5 2438.9l0 0l-2.4 48.1l22.1 19.8l36.9 9.6l28.6 -18.8l22.9 42.7l39.2 2.7l6.5 16.9l33.6 -5.1l14.8 13.5l9.5 36.5l-45.7 47.8l-43.2 19.3l12.4 14.9l75.5 -0.1l268.8 -6.1l269.3 4l1.4 -335l-33.8 2.2l-0.5 -16.9l-106.8 -5.3l-68.6 -29.2l-1.3 -24.7l-45.7 -34.5l0 -31l-34.1 8.1l-36.5 -26.3l-7.8 -20.9l-39 -13.4l-42.6 -2.7l-8.5 24.3l-24.3 1.3l-32.9 62l-42.1 18.4l-47.1 -15.9l-34.1 33.1l-40.1 -4l-5.5 -15.6l-46.2 -1.6l-7.1 23.9l16.9 46l-4.6 41.3l-35 19.9l-23.3 50.5z" />
  </g>
  <g data-id="021">
    <path d="m3393.6 6621.3l0 0l0 313.6l115.4 60.1l11.7 98l142.6 223.4l18.2 37.9l189.7 -0.7l71 0.6l63.5 -0.7l1.4 0l65.9 0.3l277.6 -2.2l0.5 -0l12.6 -0.1l1.9 -0l395.6 -0.8l-14.2 -34.1l-25.7 0.4l-7.7 -23.5l-26.7 -24.7l9.3 -25.7l-8.6 -8.9l41.8 -75.2l-11.9 -15.9l0.5 -40.8l24.8 -38l-9.4 -16.5l11.8 -26.9l-22.8 -67.3l7 -40.8l-7.4 -12.3l10.4 -28.3l21.2 -19.8l5.5 -27.9l-47.2 -95.8l14 -23.6l-421.1 -0.3l-0.6 -78.7l-639.2 2.7l-0 -4l-271.3 -3.6z" />
  </g>
  <g data-id="023">
    <path d="m4696.2 7242.9l0 0l-9.3 25.7l26.7 24.7l7.7 23.5l25.7 -0.4l14.2 34.1l0 -0l2.8 -0l73.7 -0l53.1 0.3l133.3 -0.3l30.5 0.2l5.2 -0.2l62.2 -0.2l25.5 -0l6.8 0l32.5 0.2l0.5 0l239.4 0.4l43.7 0.8l0.2 -0l93.3 -0.3l1.2 -532.3l-14.8 7.2l2.1 -71.3l-8.3 -58.4l3.5 -48.9l16 -19.5l23.7 -1.9l11.4 -19.7l-14.2 -11.6l-22.3 -69.9l-27.3 1.4l-1.9 -34.7l7.6 -67.6l-10 -59.4l-21.6 -37l-35.4 -27.9l20.7 -21.6l23.1 -45.4l-38 -12l-31 10l-87.8 -67.2l-72.6 36.7l-31 -2.9l-42.8 46.7l-11.5 -8.2l-48.3 11.1l-17.4 38.4l-44.2 22.6l-15.4 25.3l-352 371.6l-14 23.6l47.2 95.8l-5.5 27.9l-21.2 19.8l-10.4 28.3l7.4 12.3l-7 40.8l22.8 67.3l-11.8 26.9l9.4 16.5l-24.8 38l-0.5 40.8l11.9 15.9l-41.8 75.2l8.6 8.9z" />
  </g>
  <g data-id="025">
    <path d="m7131.7 5073l0 0l-5 209.2l16 9.2l35.5 0.8l39.1 -10.3l29.3 14.5l-0.4 11.8l57.5 14l15.1 -10.9l64.7 10.5l13.3 -7.5l32 9.8l15.1 18.2l33.8 -8.2l12.6 9.6l262 -1.5l-0.2 -105.3l156.6 -1.9l-0.7 -166.1l11.6 -1.7l-7.4 -140.2l3.3 -316.7l-154.3 -11.2l-628.2 0.3l-1.1 473.5z" />
  </g>
  <g data-id="027">
    <path d="m4649.5 5067.2l0 0l10.2 37.5l75.5 63.1l51.8 73.2l39 18.2l-4.6 23.5l19.4 48.9l9.7 48.6l40.8 45.2l42.9 97.1l-10.3 8.8l32.5 60.6l-3.4 14.5l33.6 27.7l38.5 -6l31.7 29l12.6 29.2l41.4 48.7l46.9 -2.7l38 12.5l52.1 -46.2l42.6 -15.6l42.9 -25.6l15 12l13 41.4l18.5 17.8l15.2 -14.7l35.9 -80.3l14.3 -19.4l33 -13.9l2 -18.6l24.1 -21l3.5 -27.4l36.9 -20.6l29.5 24.5l-6.5 24l18.5 13.6l19.3 60.4l24.9 14l34.4 -21.7l26.1 20.2l4.1 49.2l18.9 2.7l-1.1 -358.7l3.4 -25.3l-1.3 -236l-36 -0.2l-1029.3 -12.7z" />
  </g>
  <g data-id="029">
    <path d="m970.7 4039.7l0 0l0.4 294.1l541.1 -0.7l709.9 -0.1l0 -36.2l0 -970.1l-13.1 2.5l-47.9 40.7l0.1 22.9l-34.3 1l-100.4 72.4l-73.6 100.7l-32.8 11.7l-12.9 28.5l-23.3 -1.7l-39.2 42l-52.2 -39.4l-80.9 -28.1l-23.8 17.2l-107.7 20.3l-44.1 -0.3l-7.2 12.8l-63.9 46.9l-5.8 18.6l-25.2 5.7l-23.1 32l-35.4 31l11.3 21.8l-48.3 74.4l-24.1 2.1l-4.8 35.8l-35.9 7.8l-15.2 12.7l-287.8 121.1z" />
  </g>
  <g data-id="031">
    <path d="m5628.3 2557l0 0l3.4 20.3l36.7 -5.7l23.6 16.1l-39.9 0.5l-5.4 0.7l7.9 6.5l47.4 0l6.7 -12.1l-0 -15.8l-5.1 -4l-3.5 -5.5l0.6 -7.6l8.1 -0l-0.1 13.3l13.3 6.6l13.1 0.4l13.5 -1.5l-12.5 -45.7l26.2 -13.4l10.2 -33.5l-2.9 33.5l53 -13.3l46.7 27.2l12.8 -0.1l26.3 26.6l-0.2 27l40.1 0l7.1 -40.4l46.6 -20l-1 -4.5l-25.2 -21.6l-53.4 6l20.2 -26.7l-13.5 -17.6l0 0.4l0.9 1.2l-0.9 -0l-0 2.5l-6.7 -6l16.7 -7.4l36.8 0l-13.3 -53.7l-16.1 -6.7l2.7 -6.7l0.1 -13.5l6.8 -26.8l47 -0.1l-13.7 -25.4l33.6 4.1l6.7 -12.9l66.3 -0.4l67.1 7.8l0.3 -54.3l-40.2 0l0.2 -45.5l203.1 1l0.1 -95.3l20 -0.1l7.6 -47.6l-47.8 0.3l-9.1 -12.9l-56.8 -0.7l-18.1 -14.1l-18 29.1l-26.4 -0.2l-10.6 -0.1l-0.8 99.4l-83.7 6.1l-0.1 80.8l-107 -0.3l-0 -27.1l-26.4 0l-0.1 27.2l-27 -0.1l-13.3 27l-20.1 0.1l-18.4 -13.4l-41.1 -13.7l-10.3 13.6l-56.8 -0.1l-7.8 -5.4l-45.5 5.4l-16.9 5l17 8.5l-0.1 52.1l0 23l-3.4 18.8l3.3 13.5l0 40.5l0 13.4l-13.4 32.4l13.3 21.3l-9.8 0l-29.9 -4.2l19.7 24.4l-33.8 33.6l-0 6.5l-0.8 0l-26.1 -0z" />
  </g>
  <g data-id="033">
    <path d="m24.4 6448.3l0 0l-0.5 27.2l180.1 -264.3l1076.5 -6l76.3 -6.3l196.5 -1.5l18.5 -16.7l-17.6 -54.6l0.8 -31.1l23.1 -18.6l22 7.6l51.1 -29.6l40.4 -6.1l-3.8 -29.6l19.5 -30.9l-12.2 -12.1l13.7 -23l-9.3 -7.6l-16.8 -11.4l-16.3 -11.5l-13.5 -23.7l-12.5 -9.7l-8.8 -8.4l-9.5 -14.7l-25 -0.2l-11.6 -10l-1.7 -8.5l-9.1 -0.6l-9.9 3l-18.1 -4.3l-6.9 -13l-9.9 -11.3l-8.2 -14l-12.9 -0.7l-11.3 2.5l-11.5 -0.6l-17.7 0.7l-12.8 6.3l-16.5 7.3l-7.4 7.9l-6.4 -1.2l-6.2 -4.6l-2 -4.5l-12.6 3.7l-10.9 7l-8.1 3.8l-7.9 0.6l-2.5 -3.6l-9.4 -12.2l-14.3 -9.2l-15 3.8l-4.5 8.8l-11.9 12.6l-8.8 9.8l-3.7 1.7l-1.7 -2.6l-0.8 -4l-2.9 -0.6l-3.8 1.6l-2.9 4.9l-15.2 0.2l-12.1 5.8l-16 5.8l-19.5 7.2l-11.2 2.7l-9.3 0l-1.7 -4l-5.7 -15.3l-4.8 -5.1l-5.9 -6.6l-6.2 -5.6l-2.8 -15.9l-4.8 -19.4l-5.8 -18.3l-18.3 -15.5l-12.7 -16.9l-83.5 -6.2l-35.3 0.2l-34.9 0.2l-25.9 0.4l-71.2 -0.5l-79.9 -0.7l-89.5 -0.6l-93 -1l-43.3 -0.2l-70 -0.1l-55.9 -0.1l-42.6 0l-47.9 -0.2l-23.2 -0.2l-2.1 7.4l0.5 4.9l-3.1 9l-19.7 5.1l-39.5 -0.1l-19.4 -0.1l-15.6 0l-3.9 0l-5.7 -0l-7.7 -0l-8.4 -0l-22.9 -0l-16.6 0l-37.8 0l-19.4 -0l-19.4 -0l-31.5 -0.1l-33.1 0l-15.6 0.1l-0.3 15l0.2 55.5l-0 11.2l0.4 64.4l-0.9 90.3l0.7 17.6l-0.2 48.7l0 3.5l-0.8 81.3l0.3 76.1l-0.1 11l0.5 24.3l-0.1 132l-0.1 0.1l-1.7 55.1z" />
  </g>
  <g data-id="035">
    <path d="m5338.1 3434.7l0 0l-22.3 54.1l421.3 -0.2l197.3 -0.1l330.7 0.6l3.2 -804l-26.6 -0.2l-150.5 -0.2l-43.8 0.2l-126.4 0l-13.4 -0.1l-84 -0.1l-108.2 -0l-6.2 5.5l-10.9 5.9l-17.6 27.1l-18.6 93l-69.6 44.6l16.3 66.8l-20.9 21.2l-44.7 26.3l7.5 32.6l-12.3 24.7l9.2 29.4l-30.3 50.8l7.9 8.1l-32.3 55.2l-22.5 58.4l4.8 14.1l-24.2 9.4l0.6 15.5l-26.3 5.8l-15.8 26.6l4.9 34.6l-32.6 19.3l-6.3 37.7l-37.3 37.3z" />
  </g>
  <g data-id="037">
    <path d="m2773.4 2030.6l0 0l0.3 1023.3l860.9 6.9l28.3 0.9l89.6 -0.1l36.8 -35.2l28.5 8.9l14 28.6l27.2 12.8l17.8 -9.9l52.3 -3.8l26.7 21.5l34.7 -22.8l28.4 -7l19.8 -25.7l26.9 -0l-2.4 -3.2l2.3 -10.4l5.3 -5l-2.4 -16.7l-11.4 -11.6l-4 -3.2l-4.2 -8.6l-14.5 -6.4l-1.9 -10.9l3.4 -13.4l3.8 -7.6l-2.8 -11.3l-8.5 -8l-8.4 -15.2l-5.3 -13.6l-13 -17l1.8 -19.3l4.2 -16.5l-6.4 -10.5l-6.8 -1.1l1.3 -12.4l6.5 -3.9l6.6 -19.4l-12.3 -23.6l6.7 -25.5l8.6 -8.7l6 -5.5l6.4 1.2l6.4 10.6l6 11.4l8.7 4.8l6.7 -0l2.5 1.2l4.6 -3.3l0.5 -6.5l1.2 -19.6l11.3 -5.6l6.2 -9.4l-8.7 -5l-9 -20.2l-5.6 -17l4.6 -18.1l1.4 -17.9l10.9 -15.7l16.8 3.4l15.1 -6.1l4.6 -27.2l-2.5 -28l-15.7 -30l-42.4 -8.6l-19.3 -7.8l-9 -25.5l-19.7 -6.1l-11.5 -5l-5.6 -11l0.8 -12.3l0.6 -9.6l-7.7 -5.1l-6.6 -0.8l-8.5 5.4l-16.2 -7.3l-4.7 -16.6l-7.4 -13.8l-13.7 -8.3l-15.2 -9.4l-12.5 -14.5l-9 -18.5l-12.2 -13.9l-0.1 -3.8l-10.4 0.9l-6.8 7.9l-11.6 1l-12.1 -11.8l-16.2 -14.2l-9.7 -42l-15.1 -26.1l-16.1 -44.5l-15.4 -26.6l-13.5 -43.1l-1.7 -21.7l7.2 -35.4l-15 -46.1l6.7 -9.2l-262.1 -0.6l-11.5 0.8l0 11.4l-140.7 -3.6l-439.8 3.1l-113.6 -0.4z" />
  </g>
  <g data-id="039">
    <path d="m6268.4 2685.1l0 0l-3.2 804l158.3 0.2l712.7 2.4l-5.6 475.3l478.5 3.7l-2.1 -479.4l9.7 -807l-1321.8 0.8l-26.4 -0z" />
  </g>
  <g data-id="041">
    <path d="m5689.9 3965.8l0 0l-7.8 128.3l59.2 4.1l130.5 0.5l-0.4 109.5l-4.5 159l1.3 237.5l12.2 -1.3l430.7 0.7l90.6 -0.2l731.1 -4.4l-2.3 -632.5l5.6 -475.3l-712.7 -2.4l-158.3 -0.2l-330.7 -0.6l-197.3 0.1l9.4 183.5l-1 18.9l-1.8 275.9l-53.9 -1.1z" />
  </g>
  <g data-id="043">
    <path d="m4344.8 4737.4l0 0l-2.8 11.7l22.8 36l18.3 0.6l51.8 53.6l4.2 21.6l35.3 20.9l44.3 47.9l17.7 45.2l25.7 31.9l22.1 9.3l33.9 35.6l31.5 15.5l1029.3 12.7l36 0.2l155.1 -0.5l-0.7 -206.6l-0.9 -268.4l-1.3 -237.5l-158.9 -5.9l-25.1 8.3l-211.6 1.6l-29 0.1l3.7 -90l-130.1 -0.6l-787.1 5.6l-10.5 -1.9l-115.2 2.9l34.8 6.1l27.2 18.8l1 24.7l25 28.1l-11 38.1l40.6 15.9l12.9 35l-20.5 52.6l10.1 21.8l-26.1 24.3l-7.1 77.1l-41.8 3.9l-103.6 103.6z" />
  </g>
  <g data-id="045">
    <path d="m12.7 2811.1l0 0l-0 0.1l0.9 241.6l1346 1l961.8 -0l452.4 0.2l-0.3 -1023.3l113.6 0.4l2.7 -156.2l-7.6 -164.9l-398.4 1.4l-0.1 161.9l-2.4 165l-160.9 -5.1l-0.1 165.9l-373.9 -3.2l-132.5 9.4l-215.6 0.1l-0.1 241.9l-877.9 1.5l0.1 80.5l-486 -0.3l0 -18.8l-221.3 0l-0.5 300.9z" />
  </g>
  <g data-id="047">
    <path d="m4788 2081.9l0 0l13.4 73.3l42.6 2.7l39 13.4l7.8 20.9l36.5 26.3l34.1 -8.1l-0 31l45.7 34.5l1.3 24.7l68.6 29.2l106.8 5.3l0.5 16.9l33.8 -2.2l0.1 -307.6l-0.2 -37.3l-3.9 -3.9l-8.3 6.3l-10.7 -5l-7.3 10.4l-4.2 -5.2l-10.3 0.8l-12.9 -11.4l-27.2 9.6l-311 -0.5l-34.1 76.1z" />
  </g>
  <g data-id="049">
    <path d="m3431 1049.4l0 0l-1 193.9l29.3 0l-6.8 303.5l-0.1 329.4l15.6 3.9l-0.7 139.8l11.5 -0.8l262.1 0.6l55.9 0.6l-0.3 19.6l143.4 -9.1l60.9 7.8l29 25.8l44.3 68.3l41.9 34.8l30.8 10.6l25.7 -8.6l68.1 70.9l3.6 34.4l23.3 49.4l8.9 66.8l29.1 23.4l8.9 33.1l26.9 14.5l23.7 4.1l64.5 -20.4l7.7 11.6l29.9 -18.7l23.3 -50.5l35 -19.9l4.6 -41.3l-16.9 -46l7.1 -23.9l46.2 1.6l5.5 15.6l40.1 4l34.1 -33.1l47.1 15.9l42.1 -18.4l32.9 -62l24.3 -1.3l8.5 -24.3l-13.4 -73.3l34.1 -76.1l-24.8 -16.3l14.3 -96l-9.5 -41.3l52.8 -16.1l21.8 -41.1l-19.3 -23.5l22.3 -30.7l1.1 -71.3l12.2 -26.3l-14.9 -35.5l-44.4 -22.2l-14.2 -80.9l10.2 -11.4l16.6 -77.7l21.2 -1l-13.3 -19.6l-41.5 -23l-4.8 -55.6l-23.5 -18.8l0.8 -21.9l-39 -20.5l-10.3 -21.2l-44.7 -24.6l-32.8 -49.6l-0.3 -23.2l-34.7 -42.7l-1.5 -26.3l15.2 -23.1l-2.4 -49.9l-67.8 -22l-5.2 6.9l-20.6 7.9l-18.5 1.9l-11.8 14.6l-5.6 17.2l-2.1 34.2l1.4 29.3l-5 30.3l-0.8 12.7l-11.3 5.5l-16 4.5l-20.3 22.3l-13.7 8.9l4.1 12.1l4.7 3.1l2.1 7.6l-3.7 7.1l-16.4 7.9l-5.7 13.5l-3.3 6.1l-7.1 4.1l-6.1 -2.1l-10.4 -14.9l-14.9 -12.5l-18.6 3.4l-20.2 -10.2l-4.9 -9.1l-16.4 5.6l-18.2 9.4l-34.3 17l-31.1 11.8l-26 -1.5l-24.4 15.5l-17.3 11l-2.1 6.7l-6.4 4.4l-6.7 -1.8l-13.8 -10.1l-10.5 -11.5l-9.8 -1.7l-10.8 4.6l-5 8.7l-10.9 14.5l-11.6 5.1l-9.2 -1.2l-12.1 -2l-14.3 -0.2l-12.6 7.9l-10.3 -5.1l-7.3 -12.3l-11.1 -13.6l-4.1 -8.5l-5 -12.4l-2.9 -8l-7.2 -6.7l-8.9 2l-6.1 4l-4.2 1.9l-5.4 -0l-6.3 -3.7l-4.9 -2.1l-7.5 4.3l-3.9 8.2l-1.4 9.1l1.4 14l1 5.8l-4.2 7.7l-8.7 1.7l-3.6 3.5l-5.3 -1.5l-6.1 -5.2l-8.1 -8.2l-12 -4l-10.7 -2.2l-4.1 -7.6l-6.2 -6l-6.6 -8.9l-9.2 -9.8l-12.5 1.4l-13.7 1.2l-10.2 5.7l-9.7 8.4l-9.5 5l-12.2 1.9l-7 -2.8l-7.3 -7.9l-10.2 -1.8l-11.8 1.3l-5.8 1.6l-9.1 -0.1l-3.2 3.7l-5.3 0.8l-5 -4.6l-13.4 -10.4l-2.5 -20.2l-6.8 -15.5l-13.2 -22.2l-6.3 -26.6l-21.2 -13l-8.7 8.2l-6.8 8l-9.5 18.7l-15.8 2l-7.7 16.7l-3.7 15.5l-4 8.6l-8.1 -3.3l-1.5 -5.2l-8.4 -1.3l-5.3 2.4l-9.9 -4.3l-0.4 -4.4l-9.4 -6.4l-8.4 0l-18.7 -4.3l-15.6 -0.8l-7.5 6l-13.5 -2.9l-5.2 1.1l-1.4 -5.5l-0.1 -6.1l-8.6 -25.8l-2.1 -11.9l-7.4 -16.4l-3.6 -21.1l3 -5.6l-10.7 -8l-15.2 -6.6l-12.5 -17.2z" />
  </g>
  <g data-id="051">
    <path d="m2030.6 5000.3l0 0l33.4 74.5l32.4 20.4l11.2 66.9l26.8 98.8l-9.2 19.8l808.6 0.4l0.7 -505.6l341.9 1l731.9 4.2l-2.3 -11.4l-0.5 -10.2l-6 -11.5l-14.8 -1.9l-17.5 -23.1l-11.8 -4.4l-7.3 -13l-2.1 -15.3l-14.8 -6.1l-8.8 -15.9l-5.3 -14.8l-9 -3.4l-6 -4.7l-10 1.7l-5.7 3.4l-4.4 -3.4l-4.4 -4.6l-12.3 -22.9l-10.1 -47.5l9.8 -42.7l-8.1 -44l-9.5 -28.1l-16 -34.5l-19.3 -8.5l-4.8 -28.9l-28.5 -14l-30.5 -19.9l-16.9 -52.1l-14 -16l9.3 -20.1l14.5 -4.1l21.6 -27l1.4 -38.6l0.3 -16.6l3.8 -6.1l-2.5 -11l-1.3 -8.6l3 -6.4l1.6 -8.3l-0.1 -8.1l-1.4 -13.9l3.8 -7l-2.2 -9.7l-3.4 -5.5l-2.6 -4.8l-4.8 -6.6l3 -9.2l6.9 -5.7l-0.3 -11l3.7 -7.7l4.2 -3.9l5.8 -2.8l2.3 2.6l10.2 8.2l9.9 -0.4l5.5 -1.9l4 -5.9l0.7 -5.9l5.1 -7.4l5.4 -3.7l7 -3.1l4.2 -8.8l3.6 -7.7l-0 -5.8l4.2 -5.2l5.3 -2.1l10.7 -1.8l2.9 -5l-0 -10.2l5.1 -7.7l10.6 -6.9l2.2 -7.3l15 -24.1l1.9 -25.6l-27.5 -8.6l-24.4 -8.6l-21.9 -8.2l-23.5 -1.7l-20.8 5.4l-11.9 -8.5l-2.7 -7.3l-22.6 5.4l-15.7 10.8l-36 2.8l-28.3 -24.3l-22.7 -26.8l-22 -23.4l-1.3 -26.2l-28.4 -37.2l-26 -18.2l-28.3 11.6l-12.8 0.1l-11.5 -5.1l-2.7 -6.1l-17.6 4.7l-38.1 -43.6l-24.4 -46.2l-42.5 -1.8l-13.8 -18.9l-21.9 14.8l-55.6 9.3l-2.8 30.7l-72 87.1l-36.2 1.1l-28 -17l-21.1 -41.1l-21.1 4.6l-2.2 23.2l-40.4 4l-54.4 -41l-28.6 -5.7l1.1 -20.1l-34.3 -4.2l-19.4 -21.1l16.9 -17.8l-10.3 -31.9l-32.2 -36.7l-23.9 -10.2l-42.7 -43.8l-308 0.2l-18.8 -64.2l-32.8 -21.4l-49.4 -14.2l-31.6 -45.7l-5.3 -61l11.3 -14.4l-32.9 -32l-47.9 -2.4l-3.1 31.4l-29.7 18.2l-47.5 -8.4l-23.1 31.8l-0 970.1l-0 36.2l0.9 667.3l-192.4 0.1z" />
  </g>
  <g data-id="053">
    <path d="m2092.8 5561.3l0 0l4.5 39.7l27.6 9.6l7.8 16.4l43.8 21.7l-4.7 43l22.4 34l-18.9 23.9l-3.7 25.6l25.9 30.6l1.9 55.1l37.4 3.9l30.6 26.2l15.3 49.8l-15.6 29.9l-18.8 -5.2l0.1 232l0.1 389.6l151.8 -1.7l351.8 1.2l6.9 -453l-30.3 -0.8l11.1 -276.2l-1.2 -198.7l39.2 -8.1l10.6 -21.2l12.3 10.4l38.2 -21.7l37.6 22.8l26.3 -9.2l19.9 13.1l11.9 -17.2l-0.7 -345.6l-808.6 -0.4l-8 20.4l13.6 14.7l-0.9 52.6l16.8 35.6l29 -1.6l31.9 34.7l-41.3 61.1l2.7 32.9l-16.1 18.9l-35.1 -14.3l-24.9 25.5z" />
  </g>
  <g data-id="055">
    <path d="m5091.1 6172.4l0 0l-21.1 100.6l23.1 35.4l44.2 -22.6l17.4 -38.4l48.3 -11.1l11.5 8.2l42.8 -46.7l31 2.9l72.6 -36.7l87.8 67.2l31 -10l38 12l-23.1 45.4l-20.7 21.6l35.4 27.9l21.6 37l10 59.4l-7.6 67.6l1.9 34.7l27.3 -1.4l22.3 69.9l14.2 11.6l-11.4 19.7l-23.7 1.9l-16 19.5l-3.5 48.9l8.3 58.4l-2.1 71.3l14.8 -7.2l3.8 -0.4l15.6 -6.2l14.8 -2l19.9 3l19 -10.1l10.9 -15.4l12 -8.5l16.1 -2.6l7 -11.2l12.8 -9.3l5.8 -2l12.3 -5.4l12.4 -11.6l14.2 -1.3l7 -1.1l2 -9.4l-1 -7.5l3.4 -12.4l17.8 -7.1l9.9 -10.7l18.5 -17.2l21.5 -1.3l20.8 -12.8l17.6 -13.1l17.5 -1.5l14.4 -8.6l12 5.2l14.5 5.2l17.7 2.7l13.5 4.8l12.1 -1.9l11.1 -6.8l19.9 -4.8l21.3 -6.8l16.8 4.5l18.7 -8.2l10.3 -1.2l14 -0.2l16.1 1l15.9 -6.5l12.1 -2.6l19.1 -1.5l10.4 -18l10.1 -9.9l2.9 -3.4l7.1 -5.1l6.6 0.3l6.5 -5.2l10.9 -9.8l3.8 -3.1l7 -0.4l13.5 -5.5l1.5 -8.8l-3.7 -8.9l0.5 -8.7l0.4 -19l4.3 -15.6l4.8 -6.3l-2.4 -8.3l-0.1 -7l4.8 -10.5l10.3 -7.6l19.3 1.9l64 -37.9l56.6 -63.6l53.2 -88.7l35.3 -78.3l36.1 -63.7l41.1 -72.9l41.9 -68.2l78.4 -62.1l48.3 -44.8l-420.7 -149.9l-28 1.8l-231.9 15.2l-263.5 17.8l-30 -24l-21.5 -37.7l-18.9 -2.7l-4.1 -49.2l-26.1 -20.2l-34.4 21.7l-24.9 -14l-19.3 -60.4l-18.5 -13.6l6.5 -24l-29.5 -24.5l-36.9 20.6l-3.5 27.4l-24.1 21l-2 18.6l-33 13.9l-14.3 19.4l-35.9 80.3l-15.2 14.7l-18.5 -17.8l-13 -41.4l-15 -12l-42.9 25.6l-42.6 15.6l-52.1 46.2l-38 -12.5l-46.9 2.7l-7.5 29.1l39.8 3.1l30.8 47.6l-9 84.7l-28.1 16.4l7.8 31.7l-11.1 48.1l4.3 49.6l-32.9 29.3l-0.1 75.5l-13.7 22.1z" />
  </g>
  <g data-id="057">
    <path d="m3119 45.4l0 0l-2.2 17.6l4.5 19.4l6.1 10.3l4.2 14.5l1.7 12.5l6.8 7.3l5.9 9.1l3.9 10.2l1.3 3.1l6.6 -1.1l8.6 1.5l13.9 -2l3 -5.7l3.6 -3l0.9 3.1l5.9 12.3l4.7 7.9l8.9 13.9l4.9 13.7l-2.7 4.1l2.2 4.8l5.6 2l10.3 -4l8.6 -3.2l2.6 -4.1l10.1 -7.2l11.1 3.8l6.2 10.1l3.1 5.7l10.2 4.2l11.1 0.6l10.4 3.9l-0.4 10.5l-2.7 12.5l5 10.1l13.7 3.8l36.3 -6.8l9.4 -13.1l6.4 -8.7l9.8 0.8l4 7.5l6.6 15l4.4 12.6l13.6 5.3l5.2 12.6l2.9 4.8l9.5 9l-2.1 13.1l-5.4 8.6l-2.8 12l-0.5 8.1l4.2 4.5l3 5.3l7.7 1.6l13.1 3.3l9.7 15.4l1.5 18.1l-0.1 15.6l-7 17.4l-10.7 10.5l-1.9 9.3l-15.1 8.3l-5.4 10.7l-3.6 12.7l7 8.9l-2 12.8l-13.8 18.9l4.4 11l0.8 21.7l-3.9 22.2l6.1 21l-8.1 16.9l-8.2 6l-7.1 9.5l4.1 5.4l-9.6 29.2l6.1 22l-2.6 15l-14.9 20.3l-7.8 7.1l-6.1 19.2l5.6 21.5l10.2 13.5l-4.2 17.3l-2.8 13.1l-0 11.3l11.1 22.9l10.3 26.4l3.6 9.2l6.5 2.7l11.5 16.3l-3.9 12l7.9 14.8l11.4 10.4l4.2 9.6l1.7 21.9l-5.8 15l-2.3 15.6l-5.9 8.1l1.8 12.2l7.5 10.5l2.7 25.6l6 11.4l12.5 17.2l15.2 6.6l10.7 8l-3 5.6l3.6 21.1l7.4 16.4l2.1 11.9l8.6 25.8l0.1 6.1l1.4 5.5l5.2 -1.1l13.5 2.9l7.5 -6l15.6 0.8l18.7 4.3l8.4 -0l9.4 6.4l0.4 4.4l9.9 4.3l5.3 -2.4l8.4 1.3l1.5 5.2l8.1 3.3l4 -8.6l3.7 -15.5l7.7 -16.7l15.8 -2l9.5 -18.7l6.8 -8l8.7 -8.2l21.2 13l6.3 26.6l13.2 22.2l6.8 15.5l2.5 20.2l13.4 10.4l5 4.6l5.3 -0.8l3.2 -3.7l9.1 0.1l5.8 -1.6l11.8 -1.3l10.2 1.8l7.3 7.9l7 2.8l12.2 -1.9l9.5 -5l9.7 -8.4l10.2 -5.7l13.7 -1.2l12.5 -1.4l9.2 9.8l6.6 8.9l6.2 6l4.1 7.6l10.7 2.2l12 4l8.1 8.2l6.1 5.2l5.3 1.5l3.6 -3.5l8.7 -1.7l4.2 -7.7l-1 -5.8l-1.4 -14l1.4 -9.1l3.9 -8.2l7.5 -4.3l4.9 2.1l6.3 3.7l5.4 0l4.2 -1.9l6.1 -4l8.9 -2l7.2 6.7l2.9 8l5 12.4l4.1 8.5l11.1 13.6l7.3 12.3l10.3 5.1l12.6 -7.9l14.3 0.2l12.1 2l9.2 1.2l11.6 -5.1l10.9 -14.5l5 -8.7l10.8 -4.6l9.8 1.7l10.5 11.5l13.8 10.1l6.7 1.8l6.4 -4.4l2.1 -6.7l17.3 -11l24.4 -15.5l26 1.5l31.1 -11.8l34.3 -17l18.2 -9.4l16.4 -5.6l4.9 9.1l20.2 10.2l18.6 -3.4l14.9 12.5l10.4 14.9l6.1 2.1l7.1 -4.1l3.3 -6.1l5.7 -13.5l16.4 -7.9l3.7 -7.1l-2.1 -7.6l-4.7 -3.1l-4.1 -12.1l13.7 -8.9l20.3 -22.3l16 -4.5l11.3 -5.5l0.8 -12.7l5 -30.3l-1.4 -29.3l2.1 -34.2l5.6 -17.2l11.8 -14.6l18.5 -1.9l20.6 -7.9l5.2 -6.9l3.7 -38l-23.9 -26.6l-55.2 9.8l3.9 -37.1l-8.3 -58.4l-14.8 -11.5l-12.8 -63.1l-16.9 -5.4l-8.9 -61.3l-33.6 -75.3l-0.5 -24.3l-23.6 -27.8l-10.7 -44.2l-20.6 -14.9l-26.4 -60.9l-23 -34.7l-3.7 -24.1l-24 -31.9l-32.9 -22.3l-28.8 -35.5l-0.4 -20.8l-26.3 -11.9l-13.9 -60.9l-44.9 -31.2l-27.7 -36.5l4.8 -32.9l-15.9 -65.5l6.9 -14.5l-38.5 -0.2l-147.6 -2.6l-92.9 -3.8l-7.8 -0.1l-55.7 -1.1l-9.2 -0.1l-3.1 -0.3l-20.4 -0.1l-575.5 -1.1l-3.1 3.1l2.2 11.9l6.9 4.1l-1.6 8.8l-1.5 5l-4.3 4.6l-3 -1.2l-14.7 7.7z" />
  </g>
  <g data-id="059">
    <path d="m5700.8 2550.3l0 0l-0.6 7.6l3.5 5.5l5.1 4l0.1 -3.8l0.1 -13.3l-8.1 0z" />
    <path d="m5216.5 2684.8l0 0l1.1 304.2l0.4 500l96.1 -0.2l1.7 -0l22.3 -54.1l37.3 -37.3l6.3 -37.7l32.6 -19.3l-4.9 -34.6l15.8 -26.6l26.3 -5.8l-0.6 -15.5l24.2 -9.4l-4.8 -14.1l22.5 -58.4l32.3 -55.2l-7.9 -8.1l30.3 -50.8l-9.2 -29.4l12.3 -24.7l-7.5 -32.6l44.7 -26.3l20.9 -21.2l-16.3 -66.8l69.6 -44.6l18.6 -93l17.6 -27.1l10.9 -5.9l6.2 -5.5l-7.7 0l0.7 -92.1l0.3 -9.4l-6.7 12.1l-47.4 -0l-7.9 -6.5l5.4 -0.7l39.9 -0.5l-23.6 -16.1l-36.7 5.7l-3.4 -20.3l26.1 0l0.8 -0l0 -6.5l33.8 -33.6l-19.7 -24.4l29.9 4.2l9.8 -0l-13.3 -21.3l13.4 -32.4l-0 -13.4l-0 -40.5l-3.3 -13.5l3.4 -18.8l-0 -23l0.1 -52.1l-17 -8.5l16.9 -5l-0 -53.7l0.6 -61.6l-0.6 -12.5l0.5 -100.8l-26.8 26.7l-35.6 0.1l-17 -26.7l-54.9 0.3l26 43.9l-52.3 -4l-6 -31.8l5.1 -8.2l-247 0.5l-83.1 1.7l-0.1 307.6l-1.4 335z" />
  </g>
  <g data-id="061">
    <path d="m7915.4 4610.3l0 0l-3.3 316.7l7.4 140.2l145.1 -0.8l822.1 -1.9l1.8 -0.7l113.1 -0.1l26.4 -0.5l2.4 0.3l965.4 -3l-0 -0.1l-0.1 -79l-0.5 -131l0.7 -57.1l-0.7 -7.1l-0.6 -61.8l0.1 -94.2l0 -0.2l0.2 -33.2l-0.2 -36.5l0 -27.2l-0 -41.7l-0.1 -61.2l-20.5 0.1l-13 -0.1l-1415.3 0.3l-157.7 4.7l0.1 158.8l-472.7 3l0 13.2z" />
  </g>
  <g data-id="063">
    <path d="m8402.1 3491.9l0 0l0.1 165.9l625.3 -4.7l11.9 2.8l953.4 -15.3l-0.8 -151.7l-0.1 -6.3l-0.1 -7.1l-1.7 -305.5l-0.7 -130l-0.3 -55.1l-0.3 -26.9l0 -9.4l-0.4 -152.9l0 -56.3l0.2 -4.1l-0.3 -54l-0.1 -10.9l-715.5 6.3l-26.8 2.5l-330.6 2.7l-500.7 4l-1.2 806.4l-11.1 -0z" />
  </g>
  <g data-id="065">
    <path d="m3533.3 3539.3l0 0l-8.6 26.5l11.9 54.8l551.3 3.4l-0.3 -22.7l30.8 -33l-13.6 -31.3l-44.1 -0.8l51.8 -60.9l-15.5 -132.8l23.4 -39.4l-24 -22l6.6 -33.9l-8.9 -34.5l4 -54.3l20.7 -23.7l22.7 3.3l19.4 -35.2l-18.5 -42.8l24.8 -30.9l-101.4 -0.2l-26.9 0l-19.8 25.7l-28.4 7l-34.7 22.8l-26.7 -21.5l-52.3 3.8l-17.8 9.9l-27.2 -12.8l-14 -28.6l-28.5 -8.9l-36.8 35.2l-12 38.3l4.1 44.9l-58.1 15.2l-17.4 -7.6l-24.6 25.8l-2.4 25.4l29.5 22.3l0.2 32.3l-20.7 24.1l11.3 26.3l-5.6 54l-21.3 58.2l-17.6 17.1l-20.2 -10.6l-37.2 13.7l-4.7 42.7l9.1 22.4l-8.3 26l-23.3 7.1z" />
  </g>
  <g data-id="067">
    <path d="m969.7 7335.8l0 0l-1 6.5l1.4 1.9l83.5 -0.1l0.4 0l45.7 -0l0.4 -0.1l53.4 -0l1.8 1l307.6 -1.5l46.8 -0.2l739.3 -0l-0.6 -756.1l-0.1 -389.6l-371.9 -0.1l-10.6 -1.4l-312.7 1.3l-4.3 17.7l-23 13.5l-16.1 15.6l-5.6 10.6l-9.6 4.4l-6 7.2l1.8 9.2l-3.7 4.9l-5.1 3.3l-0.6 7.9l0.9 9.6l-0.8 17.9l2.2 10.3l-1.5 13.2l-2.2 14.7l-3.8 14.5l-12 16.1l-2.5 18.7l0.2 16.7l-0.5 10.9l-2.6 14.1l1.6 11.9l2.6 16.8l0.6 10.5l-4 10.6l3.6 14.9l-6.7 11.5l-1.8 12.2l-6 12.7l-8.7 5.3l-9 5.3l-12.6 -0.8l-11.4 -1.1l-9.3 6.4l-2.4 11.7l-8.7 3.8l-8 12.1l-8.1 6.2l-6.9 13.7l-3.2 12.6l-2.4 16.5l1.9 13.4l-9.8 8.3l-10.7 10.5l-27.6 3l-13.5 16.2l-16 2.4l-19.3 -6l-19.7 9.9l-13.8 9.6l-10.3 21.8l-4.3 17.1l4.3 7l-0.6 9.1l-10.6 14.4l-5.4 14.9l4.2 17.4l-7.9 10l-4 9.7l-7.1 12.3l-11.3 10.3l-4.1 15.7l-7.5 10.4l-6 17.3l-4.7 5.1l-10.3 13.1l-10.1 11.6l-17.3 9.3l-11.9 5.5l-12.1 14.8l-2.8 19.7l4.4 14.4l-4.6 19l-0.8 35l2.9 19.6l2.7 21.2l-23.5 26.6l-2.2 14.8l-1.4 13.1l1.3 12.3l-7 8.5l-4.6 10.8l-5.6 10.1l-0.8 9l-1.8 10.8l-5 8.6l-0.3 11.6l-7.4 13.7l-1.3 11.7l-15 11.2l-10.8 16.4l-2.1 9.6l-3.6 10.1l-3.7 4.4l-5.5 -2.2l-6.9 -2.3l-6.9 10.2l-3.5 13.8l-3 12.6l-3.5 6.8z" />
  </g>
  <g data-id="069">
    <path d="m4088.6 11l0 0l-6.9 14.5l15.9 65.5l-4.8 32.9l27.7 36.5l44.9 31.2l13.9 60.9l26.3 11.9l0.4 20.8l28.8 35.5l32.9 22.3l24 31.9l3.7 24.1l23 34.7l26.4 60.9l20.6 14.9l10.7 44.2l23.6 27.8l0.5 24.3l33.6 75.3l8.9 61.3l16.9 5.4l12.8 63.1l14.8 11.5l8.3 58.4l-3.9 37.1l55.2 -9.8l23.9 26.6l-3.7 38l67.8 22l2.4 49.9l-15.2 23.1l1.5 26.3l34.7 42.7l0.3 23.2l32.8 49.6l44.7 24.6l10.3 21.2l39 20.5l-0.8 21.9l23.5 18.8l4.8 55.6l41.5 23l158.6 -1.6l196.5 6.6l41.1 -6.5l122.2 -2.8l185.8 2.9l148.1 -1.1l-2.3 -163.5l77.4 0.1l27 0.1l3.1 0l50.9 0.1l2.1 -461.2l1.2 -163.2l-0.2 -594.8l-443.7 -0.2l-2.5 0l-29 0l-0.4 0l-637.8 2.4l-8 0l-471.3 -0.2l-184.3 -1.1z" />
  </g>
  <g data-id="071">
    <path d="m5565.2 6819.3l0 0l-1.2 532.3l26.5 -0.1l22.3 -0.1l130.5 4.8l40.9 -1l382.5 -0.4l0.1 0.1l124 0.1l27.8 -0.4l1.4 -1.4l150 1.1l257.1 0.4l125.8 -2l345.8 -2.8l389.7 -3.2l1.6 0l822.5 -4l99.5 0.1l5.1 -682.2l11.2 -0.3l-1.8 -470l-467.9 -0.3l-931.6 -0.9l-1.4 -147.9l-2.8 -15.3l-413.1 -149.2l-48.3 44.8l-78.4 62.1l-41.9 68.2l-41.1 72.9l-36.1 63.7l-35.3 78.3l-53.2 88.7l-56.6 63.6l-64 37.9l-19.3 -1.9l-10.3 7.6l-4.8 10.5l0.1 7l2.4 8.3l-4.8 6.3l-4.3 15.6l-0.4 19l-0.5 8.7l3.7 8.9l-1.5 8.8l-13.5 5.5l-7 0.4l-3.8 3.1l-10.9 9.8l-6.5 5.2l-6.6 -0.3l-7.1 5.1l-2.9 3.4l-10.1 9.9l-10.4 18l-19.1 1.5l-12.1 2.6l-15.9 6.5l-16.1 -1l-14 0.2l-10.3 1.2l-18.7 8.2l-16.8 -4.5l-21.3 6.8l-19.9 4.8l-11.1 6.8l-12.1 1.9l-13.5 -4.8l-17.7 -2.7l-14.5 -5.2l-12 -5.2l-14.4 8.6l-17.5 1.5l-17.6 13.1l-20.8 12.8l-21.5 1.3l-18.5 17.2l-9.9 10.7l-17.8 7.1l-3.4 12.4l1 7.5l-2 9.4l-7 1.1l-14.2 1.3l-12.4 11.6l-12.3 5.4l-5.8 2l-12.8 9.3l-7 11.2l-16.1 2.6l-12 8.5l-10.9 15.4l-19 10.1l-19.9 -3l-14.8 2l-15.6 6.2l-3.8 0.4z" />
  </g>
  <g data-id="073">
    <path d="m7130.5 3966.9l0 0l2.3 632.5l628.2 -0.3l154.3 11.2l-0 -13.2l472.7 -3l-0.1 -158.8l0.7 -141.6l11.8 -0.1l1.6 -635.8l-0.1 -165.9l11.1 0l1.2 -806.4l-10.2 -0.6l-777.3 -0.6l-10.4 -0.1l-9.7 807l2.1 479.4l-478.5 -3.7z" />
  </g>
  <g data-id="075">
    <path d="m7807.5 567.8l0 0l-2.1 335.3l163.3 0.2l2.6 162.8l83.1 -0l28.5 1.7l865 -5.6l164.1 -0.1l0.2 -500.3l19.7 -0.3l-0.6 -82.8l-3.1 -476.6l-122.8 0.2l-21.4 -0.2l-17.2 0.2l-9.7 -0.3l-76.6 0.5l-4.3 -0.4l-23 0.2l-4 -0.1l-23.5 0.6l-2.9 -0.4l-25.5 0.1l-2.4 -0.1l-24.8 -0.1l-2.5 -0.1l-24.9 0.3l-2.2 -0.3l-25 0.4l-2.5 -0.5l-21.1 0.4l-1.5 0.1l-2.6 -0l-1.6 -0.2l-25.4 0.1l-1.7 -0.1l-24.8 -0.5l-2.7 -0.2l-52.3 0.4l-6.8 -0.2l-20.7 -0l-2.2 0l-24.2 0.2l-1.8 -0.1l-406.3 0.9l-3.3 -0l-24.5 -0.7l-20.7 -0.6l-35.5 1.1l-0.1 -0.1l-92.2 0.2l-15.3 0.5l-108.7 -0.2l-0.8 564.5l-8.6 -0z" />
  </g>
  <g data-id="077">
    <path d="m0 4459.2l0 0l0.4 181l970 0l0.7 -15l-0 -291.4l-0.4 -294.1l287.8 -121.1l15.2 -12.7l35.9 -7.8l4.8 -35.8l24.1 -2.1l48.3 -74.4l-11.3 -21.8l35.4 -31l23.1 -32l25.2 -5.7l5.8 -18.6l63.9 -46.9l7.2 -12.8l44.1 0.3l107.7 -20.3l23.8 -17.2l80.9 28.1l52.2 39.4l39.2 -42l23.3 1.7l12.9 -28.5l32.8 -11.7l73.6 -100.7l100.4 -72.4l34.3 -1l-0.1 -22.9l47.9 -40.7l13.1 -2.5l23.1 -31.8l47.5 8.4l29.7 -18.2l3.1 -31.4l47.9 2.4l21.8 -23.6l-27.6 -47.9l-20.1 6l-74.9 -41.7l49.4 -62.1l-0.6 -33.1l-961.8 0l-1346 -1l-1.1 442.6l-1.3 231.4l-1.2 104.7l0.1 0.8l-0.8 68.1l-0.2 1.6l-0.4 53.9l-4.6 145.5l-3.1 138.1l-1 220z" />
  </g>
  <g data-id="079">
    <path d="m2739.7 5856.5l0 0l-11.1 276.2l30.3 0.8l-6.9 453l-0.1 54.8l595.5 -6.9l-0 -14.3l-1.2 -467.2l22.8 0l2.6 -308.1l0.5 -69.1l-30.1 2.9l-31.3 -28.8l-27.3 13.1l-24.6 -8.9l-39.8 -50.8l-65.9 -9.9l-46.5 -55.4l1 -20.3l-21.9 -10.8l-36.7 -0.6l-37.1 24.3l-31.3 -37.5l-27.2 10.1l-18.9 23.7l-11.9 17.2l-19.9 -13.1l-26.3 9.2l-37.6 -22.8l-38.2 21.7l-12.3 -10.4l-10.6 21.2l-39.2 8.1l1.2 198.7z" />
  </g>
  <g data-id="081">
    <path d="m13.3 1051.1l0 0l-0 414.4l1336.1 1.8l654.2 -3.3l225.6 6.5l74.1 -0.8l6 -5.5l-4.6 -208l15 -0.2l4.6 -388.1l81.9 -0.4l-0.2 -108.6l81.7 0l-5.2 -757.9l-70.7 -0.2l-367.8 1.8l-417.2 0.2l-182.5 -0.1l-191.9 3l-98.9 0.6l-356.2 0l-37.1 1l-148.8 -1l-360.5 0.1l-236.4 -1.1l2.3 329.1l-0.9 209.8l1 97.6l0.2 16.9l0.3 64.5l-2.9 148l0.2 0.9l-1.1 74.9l0.5 9.1l-0.9 95z" />
  </g>
  <g data-id="083">
    <path d="m20.6 6672.6l0 0l-0.3 223.9l0.6 1.1l0.1 68.9l-0.7 16.1l-0 43.9l1.2 116.6l-0.1 0.2l0 4.5l-0 23.6l0.3 17.6l-0.1 21l-0.2 3.4l-0.1 131.5l123 0.3l6.4 0l476 -0.7l0.9 0.1l118.6 -0.1l223.8 -0.2l-1.4 -1.9l1 -6.5l3.5 -6.8l3 -12.6l3.5 -13.8l6.9 -10.2l6.9 2.3l5.5 2.2l3.7 -4.4l3.6 -10.1l2.1 -9.6l10.8 -16.4l15 -11.2l1.3 -11.7l7.4 -13.7l0.3 -11.6l5 -8.6l1.8 -10.8l0.8 -9l5.6 -10.1l4.6 -10.8l7 -8.5l-1.3 -12.3l1.4 -13.1l2.2 -14.8l23.5 -26.6l-2.7 -21.2l-2.9 -19.6l0.8 -35l4.6 -19l-4.4 -14.4l2.8 -19.7l12.1 -14.8l11.9 -5.5l17.3 -9.3l10.1 -11.6l10.3 -13.1l4.7 -5.1l6 -17.3l7.5 -10.4l4.1 -15.7l11.3 -10.3l7.1 -12.3l4 -9.7l7.9 -10l-4.2 -17.4l5.4 -14.9l10.6 -14.4l0.6 -9.1l-4.3 -7l4.3 -17.1l10.3 -21.8l13.8 -9.6l19.7 -9.9l19.3 6l16 -2.4l13.5 -16.2l27.6 -3l10.7 -10.5l9.8 -8.3l-1.9 -13.4l2.4 -16.5l3.2 -12.6l6.9 -13.7l8.1 -6.2l8 -12.1l8.7 -3.8l2.4 -11.7l9.3 -6.4l11.4 1.1l12.6 0.8l9 -5.3l8.7 -5.3l6 -12.7l1.8 -12.2l6.7 -11.5l-3.6 -14.9l4 -10.6l-0.6 -10.5l-2.6 -16.8l-1.6 -11.9l2.6 -14.1l0.5 -10.9l-0.2 -16.7l2.5 -18.7l12 -16.1l3.8 -14.5l2.2 -14.7l1.5 -13.2l-2.2 -10.3l0.8 -17.9l-0.9 -9.6l0.6 -7.9l5.1 -3.3l3.7 -4.9l-1.8 -9.2l6 -7.2l9.6 -4.4l5.6 -10.6l16.1 -15.6l23 -13.5l4.3 -17.7l-196.5 1.5l-76.3 6.3l-1076.5 6l-180.1 264.3l-3.3 197.1z" />
  </g>
  <g data-id="085">
    <path d="m0.4 4640.2l0 0l-0.1 408.1l7.7 55.5l18.4 145.5l-0.1 21.1l186.5 -0.6l5.9 -2.9l1340.6 4.8l26.8 -0.3l-1.1 -38.6l13.7 -0.3l0.8 -81.7l-13.6 -13.6l-26 -0.1l-0 -13.6l-26.7 0.1l0.1 -26.2l-39.1 0.3l0 -12.8l-107 0.1l0.4 -52.9l-25.4 0.3l-0.9 -53.6l-26.3 0.2l-13 -32.6l378.7 -1.1l329 0.1l0.9 54.9l192.4 -0.1l-0.9 -667.3l-709.9 0.1l-541.1 0.7l0 291.4l-0.7 15l-970 0z" />
  </g>
  <g data-id="087">
    <path d="m6995.2 1227.1l0 0l0.2 651.5l633.5 -0.9l333 -0.3l10.5 -649.7l-1.1 -161.7l-2.6 -162.8l-163.3 -0.2l-806.2 -1.9l-4 326z" />
  </g>
  <g data-id="089">
    <path d="m7124.1 5866.9l0 0l-1.5 159.2l2.8 15.3l1.4 147.9l931.6 0.9l1 -315l5.4 -7.9l-0.1 -800.8l-145.1 0.8l-11.6 1.7l0.7 166.1l-156.6 1.9l0.2 105.3l-262 1.5l-12.6 -9.6l-33.8 8.2l-15.1 -18.2l-32 -9.8l-13.3 7.5l-64.7 -10.5l-15.1 10.9l-57.5 -14l0.4 -11.8l-29.3 -14.5l-39.1 10.3l-35.5 -0.8l-16 -9.2l-2.6 584.7z" />
  </g>
  <g data-id="091">
    <path d="m1322 4946.5l0 0l13 32.6l26.3 -0.2l0.9 53.6l25.4 -0.3l-0.4 52.9l107 -0.1l0 12.8l39.1 -0.3l-0.1 26.2l26.7 -0.1l0 13.6l26 0.1l13.6 13.6l-0.8 81.7l-13.7 0.3l1.1 38.6l-26.8 0.3l20 13.3l0.2 52.3l85.6 0.3l-3.3 105.4l7.9 21.6l-17.1 35.4l14.9 26.5l9.1 7.7l48.7 -2.2l0.1 28.9l76.4 7.4l23.9 49.8l42.4 14.2l23 41.8l-7.8 44.3l60.7 23.5l45.5 -20.1l36.8 -31.3l-5.2 -79.8l103.6 -0l-27.6 -9.6l-4.5 -39.7l24.9 -25.5l35.1 14.3l16.1 -18.9l-2.7 -32.9l41.3 -61.1l-31.9 -34.7l-29 1.6l-16.8 -35.6l0.9 -52.6l-13.6 -14.7l8 -20.4l9.2 -19.8l-26.8 -98.8l-11.2 -66.9l-32.4 -20.4l-33.4 -74.5l-0.9 -54.9l-329 -0.1l-378.7 1.1z" />
  </g>
  <g data-id="093">
    <path d="m4060.7 3536.1l0 0l44.1 0.8l13.6 31.3l-30.8 33l0.3 22.7l12.1 32.1l-15.1 37.5l19.4 12.6l15.6 36.7l32.9 -12.2l51.9 19.3l6.5 24.3l-13.4 34.5l3.9 27.9l36.6 1.2l27.7 13.9l10.9 -18.2l42.9 -1.9l48 51.3l11.9 -5.9l29 22.4l-19.4 20.8l7.3 22.1l47.1 -5.7l23 24.6l-25.7 36.4l2.2 22.2l49.9 60.7l-45.8 80.3l-10.6 84.6l-33.6 42.3l115.2 -2.9l10.5 1.9l787.1 -5.6l-1.9 -791.9l-96.1 0.2l-0.4 -500l-1.1 -304.2l-269.3 -4l-268.8 6.1l-75.5 0.1l19.3 29.5l-11.2 33.9l-30.6 12.6l-21.6 -12.4l-9.1 25.5l18.2 22.5l-13.5 4.1l-22.1 34.2l-18.4 -0.7l-28 50.6l-38.5 -3.3l-7.8 32.5l-32.2 5.3l21.5 43.2l-58.6 23.5l-36.4 37.7l-5.1 36.3l-48.6 6l-58 -35.9l-55.2 -3l-24.8 30.9l18.5 42.8l-19.4 35.2l-22.7 -3.3l-20.7 23.7l-4 54.3l8.9 34.5l-6.6 33.9l24 22l-23.4 39.4l15.5 132.8l-51.8 60.9z" />
  </g>
  <g data-id="095">
    <path d="m9112.1 561.8l0 0l-0.2 500.3l873.9 -2.9l-0.1 -150l-0.3 -33.3l0.5 -299.8l0.2 -97.9l-854.9 0.4l0.6 82.8l-19.7 0.3z" />
  </g>
  <g data-id="097">
    <path d="m2322 3086.8l0 0l-49.4 62.1l74.9 41.7l20.1 -6l27.6 47.9l-21.8 23.6l32.9 32l-11.3 14.4l5.3 61l31.6 45.7l49.4 14.2l32.8 21.4l18.8 64.2l308 -0.2l42.7 43.8l23.9 10.2l32.2 36.7l10.3 31.9l-16.9 17.8l19.4 21.1l34.3 4.2l-1.1 20.1l28.6 5.7l54.4 41l40.4 -4l2.2 -23.2l21.1 -4.6l21.1 41.1l28 17l36.2 -1.1l72 -87.1l2.8 -30.7l55.6 -9.3l21.9 -14.8l13.8 18.9l42.5 1.8l24.4 46.2l38.1 43.6l17.6 -4.7l10.7 -49.4l-7.9 -36.5l27.5 -24l-11.9 -54.8l8.6 -26.5l23.3 -7.1l8.3 -26l-9.1 -22.4l4.7 -42.7l37.2 -13.7l20.2 10.6l17.6 -17.1l21.3 -58.2l5.6 -54l-11.3 -26.3l20.7 -24.1l-0.2 -32.3l-29.5 -22.3l2.4 -25.4l24.6 -25.8l17.4 7.6l58.1 -15.2l-4.1 -44.9l12 -38.3l-89.6 0.1l-28.3 -0.9l-860.9 -6.9l-452.4 -0.2l0.6 33.1z" />
  </g>
  <g data-id="099">
    <path d="m8993.9 5866.1l0 0l0.1 323.9l1005.9 -1.2l0 -18.4l-0.2 -20.1l0.2 -26.6l-0.4 -78.2l-0.2 -26.4l-0.2 -39l-0.7 -51.5l-0.4 -26.6l-0.1 -37.2l-0.3 -79l-0.9 -105.1l0 -3.6l-1.1 -212.3l0.6 -122.1l-0.5 -21.7l0.5 -30.4l-0.2 -196.2l-0.2 -22.5l-0.1 -11.5l-965.4 3l-2.4 -0.3l-26.4 0.5l2.7 801.3l-10.3 1.1z" />
  </g>
  <g data-id="101">
    <path d="m5712.7 5341.4l0 0l1.1 358.7l21.5 37.7l30 24l263.5 -17.8l231.9 -15.2l28 -1.8l420.7 149.9l413.1 149.2l1.5 -159.2l2.6 -584.7l5 -209.2l1.1 -473.5l-731.1 4.4l-90.6 0.2l-430.7 -0.7l-12.2 1.3l0.9 268.4l0.7 206.6l-155.1 0.5l1.3 236l-3.4 25.3z" />
  </g>
  <g data-id="103">
    <path d="m13.7 2112.6l0 0l-0.6 397.6l221.3 -0l-0 18.8l486 0.3l-0.1 -80.5l877.9 -1.5l0.1 -241.9l215.6 -0.1l132.5 -9.4l373.9 3.2l0.1 -165.9l160.9 5.1l2.4 -165l0.1 -161.9l398.4 -1.4l-1 -249.5l-571.7 3.7l-6 5.5l-74.1 0.8l-225.6 -6.5l-654.2 3.3l-1336.1 -1.8l-0 78l0 0.3l0.2 225.7l-0.1 1.2l0.4 342z" />
  </g>
  <g data-id="105">
    <path d="m3346.2 6152.9l0 0l1.2 467.2l46.2 1.1l271.3 3.6l0 4l639.2 -2.7l1.3 -624.7l-780.7 1l-1.1 -156.2l-152 -1.5l-2.6 308.1l-22.8 -0z" />
  </g>
  <g data-id="107">
    <path d="m2304.8 1256.1l0 0l4.6 208l571.7 -3.7l1 249.5l7.6 164.9l-2.7 156.2l439.8 -3.1l140.7 3.6l-0 -11.4l0.7 -139.8l-15.6 -3.9l0.1 -329.4l6.8 -303.5l-29.3 -0l1 -193.9l-6 -11.4l-2.7 -25.6l-7.5 -10.5l-1.8 -12.2l5.9 -8.1l2.3 -15.6l5.8 -15l-1.7 -21.9l-4.2 -9.6l-11.4 -10.4l-7.9 -14.8l3.9 -12l-11.5 -16.3l-6.5 -2.7l-3.6 -9.2l-10.3 -26.4l-11.1 -22.9l0 -11.3l2.8 -13.1l4.2 -17.3l-10.2 -13.5l-5.6 -21.5l6.1 -19.2l7.8 -7.1l14.9 -20.3l2.6 -15l-6.1 -22l9.6 -29.2l-4.1 -5.4l7.1 -9.5l8.2 -6l8.1 -16.9l-6.1 -21l3.9 -22.2l-0.8 -21.7l-4.4 -11l13.8 -18.9l2 -12.8l-7 -8.9l3.6 -12.7l5.4 -10.7l15.1 -8.3l1.9 -9.3l10.7 -10.5l7 -17.4l0.1 -15.6l-1.5 -18.1l-9.7 -15.4l-13.1 -3.3l-7.7 -1.6l-3 -5.3l-4.2 -4.5l0.5 -8.1l2.8 -12l5.4 -8.6l2.1 -13.1l-9.5 -9l-2.9 -4.8l-5.2 -12.6l-13.6 -5.3l-4.4 -12.6l-6.6 -15l-4 -7.5l-9.8 -0.8l-6.4 8.7l-9.4 13.1l-36.3 6.8l-13.7 -3.8l-5 -10.1l2.7 -12.5l0.4 -10.5l-10.4 -3.9l-11.1 -0.6l-10.2 -4.2l-3.1 -5.7l-6.2 -10.1l-11.1 -3.8l-10.1 7.2l-2.6 4.1l-8.6 3.2l-10.3 4l-5.6 -2l-2.2 -4.8l2.7 -4.1l-4.9 -13.7l-8.9 -13.9l-4.7 -7.9l-5.9 -12.3l-0.9 -3.1l-3.6 3l-3 5.7l-13.9 2l-8.6 -1.5l-6.6 1.1l-1.3 -3.1l-3.9 -10.2l-5.9 -9.1l-6.8 -7.3l-1.7 -12.5l-4.2 -14.5l-6.1 -10.3l-4.5 -19.4l2.2 -17.6l14.7 -7.7l3 1.2l4.3 -4.6l1.5 -5l1.6 -8.8l-6.9 -4.1l-2.2 -11.9l3.1 -3.1l-203.5 -1.5l-342.8 1.2l-109.1 -0.3l5.2 757.9l-81.7 -0l0.2 108.6l-81.9 0.4l-4.6 388.1l-15 0.2z" />
  </g>
  <g data-id="109">
    <path d="m2933.8 5281.1l0 0l0.7 345.6l18.9 -23.7l27.2 -10.1l31.3 37.5l37.1 -24.3l36.7 0.6l21.9 10.8l-1 20.3l46.5 55.4l65.9 9.9l39.8 50.8l24.6 8.9l27.3 -13.1l31.3 28.8l30.1 -2.9l-0.5 69.1l152 1.5l1.1 156.2l780.7 -1l828 -5.6l11.1 -48.1l-7.8 -31.7l28.1 -16.4l9 -84.7l-30.8 -47.6l-39.8 -3.1l7.5 -29.1l-41.4 -48.7l-12.6 -29.2l-31.7 -29l-38.5 6l-33.6 -27.7l3.4 -14.5l-32.5 -60.6l10.3 -8.8l-42.9 -97.1l-40.8 -45.2l-9.7 -48.6l-19.4 -48.9l4.6 -23.5l-39 -18.2l-51.8 -73.2l-75.5 -63.1l-10.2 -37.5l-31.5 -15.5l-33.9 -35.6l-22.1 -9.3l-25.7 -31.9l-17.7 -45.2l-44.3 -47.9l-35.3 -20.9l-4.2 -21.6l-51.8 -53.6l-18.3 -0.6l-22.8 -36l2.8 -11.7l-11.8 -14.3l-33.8 -7l-22.5 2.4l0.8 22.3l-26.4 38.3l-69.9 2.8l-172.9 -1.2l-731.9 -4.2l-341.9 -1l-0.7 505.6z" />
  </g>
  <g data-id="111">
    <path d="m1571.8 6180.6l0 0l-18.5 16.7l312.7 -1.3l10.6 1.4l371.9 0.1l-0.1 -232l18.8 5.2l15.6 -29.9l-15.3 -49.8l-30.6 -26.2l-37.4 -3.9l-1.9 -55.1l-25.9 -30.6l3.7 -25.6l18.9 -23.9l-22.4 -34l4.7 -43l-43.8 -21.7l-7.8 -16.4l-103.6 0l5.2 79.8l-36.8 31.3l-45.5 20.1l-60.7 -23.5l-25.3 40.1l-37.6 27.9l4.8 32.5l-24.7 48.8l-45.7 19.6l9 29.4l-26.6 38.6l-28.5 -2.5l-13.7 23l12.2 12.1l-19.5 30.9l3.8 29.6l-40.4 6.1l-51.1 29.6l-22 -7.6l-23.1 18.6l-0.8 31.1l17.6 54.6z" />
  </g>
  <g data-id="113">
    <path d="m24.8 5552.6l0 0l-0.4 41.2l2.9 121.1l-0.9 47.2l15.6 -0.1l33.1 -0l31.5 0.1l19.4 0l19.4 0l37.8 -0l16.6 -0l22.9 0l8.4 0l7.7 0l5.7 0l3.9 -0l15.6 -0l19.4 0.1l39.5 0.1l19.7 -5.1l3.1 -9l-0.5 -4.9l2.1 -7.4l23.2 0.2l47.9 0.2l42.6 -0l55.9 0.1l70 0.1l43.3 0.2l93 1l89.5 0.6l79.9 0.7l71.2 0.5l25.9 -0.4l34.9 -0.2l35.3 -0.2l83.5 6.2l12.7 16.9l18.3 15.5l5.8 18.3l4.8 19.4l2.8 15.9l6.2 5.6l5.9 6.6l4.8 5.1l5.7 15.3l1.7 4l9.3 -0l11.2 -2.7l19.5 -7.2l16 -5.8l12.1 -5.8l15.2 -0.2l2.9 -4.9l3.8 -1.6l2.9 0.6l0.8 4l1.7 2.6l3.7 -1.7l8.8 -9.8l11.9 -12.6l4.5 -8.8l15 -3.8l14.3 9.2l9.4 12.2l2.5 3.6l7.9 -0.6l8.1 -3.8l10.9 -7l12.6 -3.7l2 4.5l6.2 4.6l6.4 1.2l7.4 -7.9l16.5 -7.3l12.8 -6.3l17.7 -0.7l11.5 0.6l11.3 -2.5l12.9 0.7l8.2 14l9.9 11.3l6.9 13l18.1 4.3l9.9 -3l9.1 0.6l1.7 8.5l11.6 10l25 0.2l9.5 14.7l8.8 8.4l12.5 9.7l13.5 23.7l16.3 11.5l16.8 11.4l9.3 7.6l28.5 2.5l26.6 -38.6l-9 -29.4l45.7 -19.6l24.7 -48.8l-4.8 -32.5l37.6 -27.9l25.3 -40.1l7.8 -44.3l-23 -41.8l-42.4 -14.2l-23.9 -49.8l-76.4 -7.4l-0.1 -28.9l-48.7 2.2l-9.1 -7.7l-14.9 -26.5l17.1 -35.4l-7.9 -21.6l3.3 -105.4l-85.6 -0.3l-0.2 -52.3l-20 -13.3l-1340.6 -4.8l-5.9 2.9l-186.5 0.6l-1.4 278.2l0 4z" />
  </g>
  <g data-id="115">
    <path d="m9128.1 2.1l0 0l3.1 476.6l854.9 -0.4l-0.5 -476.3l-0.1 -0l-26.9 -0.1l-77.5 0.2l-94.4 0l-25.9 -0.2l-4 -0l-28.1 0.3l-51.1 -0.1l-6.1 0.3l-27.4 0.1l-1.7 0l-0.1 -0l-0.3 0l-101.5 0.1l-22.1 -0.2l-127.7 -0.2l-1.9 0.1l-24.8 -0.1l-98.1 0.4l-13.2 0l-13.5 0l-0.3 -0.1l-4.2 -0l-60.3 -0.6l-46.2 0.5z" />
  </g>
  <g data-id="117">
    <path d="m3741.1 2019.8l0 0l-6.7 9.2l15 46.1l-7.2 35.4l1.7 21.7l13.5 43.1l15.4 26.6l16.1 44.5l15.1 26.1l9.7 42l16.2 14.2l12.1 11.8l11.6 -1l6.8 -7.9l10.4 -0.9l0.1 3.8l12.2 13.9l9 18.5l12.5 14.5l15.2 9.4l13.7 8.3l7.4 13.8l4.7 16.6l16.2 7.3l8.5 -5.4l6.6 0.8l7.7 5.1l-0.6 9.6l-0.8 12.3l5.6 11l11.5 5l19.7 6.1l9 25.5l19.3 7.8l42.4 8.6l15.7 30l2.5 28l-4.6 27.2l-15.1 6.1l-16.8 -3.4l-10.9 15.7l-1.4 17.9l-4.6 18.1l5.6 17l9 20.2l8.7 5l-6.2 9.4l-11.3 5.6l-1.2 19.6l-0.5 6.5l-4.6 3.3l-2.5 -1.2l-6.7 0l-8.7 -4.8l-6 -11.4l-6.4 -10.6l-6.4 -1.2l-6 5.5l-8.6 8.7l-6.7 25.5l12.3 23.6l-6.6 19.4l-6.5 3.9l-1.3 12.4l6.8 1.1l6.4 10.5l-4.2 16.5l-1.8 19.3l13 17l5.3 13.6l8.4 15.2l8.5 8l2.8 11.3l-3.8 7.6l-3.4 13.4l1.9 10.9l14.5 6.4l4.2 8.6l4 3.2l11.4 11.6l2.4 16.7l-5.3 5l-2.3 10.4l2.4 3.2l101.4 0.2l55.2 3l58 35.9l48.6 -6l5.1 -36.3l36.4 -37.7l58.6 -23.5l-21.5 -43.2l32.2 -5.3l7.8 -32.5l38.5 3.3l28 -50.6l18.4 0.7l22.1 -34.2l13.5 -4.1l-18.2 -22.5l9.1 -25.5l21.6 12.4l30.6 -12.6l11.2 -33.9l-19.3 -29.5l-12.4 -14.9l43.2 -19.3l45.7 -47.8l-9.5 -36.5l-14.8 -13.5l-33.6 5.1l-6.5 -16.9l-39.2 -2.7l-22.9 -42.7l-28.6 18.8l-36.9 -9.6l-22.1 -19.8l2.4 -48.1l-29.9 18.7l-7.7 -11.6l-64.5 20.4l-23.7 -4.1l-26.9 -14.5l-8.9 -33.1l-29.1 -23.4l-8.9 -66.8l-23.3 -49.4l-3.6 -34.4l-68.1 -70.9l-25.7 8.6l-30.8 -10.6l-41.9 -34.8l-44.3 -68.3l-29 -25.8l-60.9 -7.8l-143.4 9.1l0.3 -19.6l-55.9 -0.6z" />
  </g>
  <g data-id="119">
    <path d="m5315.8 3488.8l0 0l-1.7 0l1.9 791.9l130.1 0.6l-3.7 90l29 -0.1l211.6 -1.6l25.1 -8.3l158.9 5.9l4.5 -159l0.4 -109.5l-130.5 -0.5l-59.2 -4.1l7.8 -128.3l53.9 1.1l1.8 -275.9l1 -18.9l-9.4 -183.5l-421.3 0.2z" />
  </g>
  <g data-id="121">
    <path d="m7627.7 2363.1l0 0l-0.7 321.2l777.3 0.6l10.2 0.6l500.7 -4l-1.2 -806l14.9 0.1l-0.4 -650.4l19.1 0.3l0.3 -163.3l-865 5.6l-28.5 -1.7l-83.1 0l1.1 161.7l-10.5 649.7l-333 0.3l-1.2 485.4z" />
  </g>
  <g data-id="123">
    <path d="m5813.5 1818.8l0 0l-0 6.6l9.7 -0l0 -6.6l-7.1 -0.8l-2.6 0.7z" />
    <path d="m5704.1 1228.9l0 0l2.3 163.5l-0 10.6l-0.1 97.9l-0.3 122l-0.1 94.5l-0.1 157l3.8 5.3l64 -0.4l26 -13.4l-13.3 -33.7l54 -34.2l-0.4 54.3l-0.3 27.1l0.2 -0l0 0.2l55.9 0l51.6 -0l188.4 -0.2l376.1 -0.3l483.6 -0.5l-0.2 -651.5l4 -326l806.2 1.9l2.1 -335.3l8.6 0l0.8 -564.5l-1.1 -0l-250.7 -0.6l-153.8 0.7l-27.8 0l-26 -0.1l-14.4 0.7l-67.3 -0.4l-25.4 0.1l-1.8 -0.2l-64.9 -0l-7.4 -0.5l-22.6 0.7l-20 0.2l-19.5 -0.2l-27.2 -0.1l-26.4 0l-27.1 -0.2l-125.2 0.1l-3.9 0l-0.7 -0.2l-360.4 0.3l-41.9 -0.6l-0.1 -0l-145.9 0.9l-109 0.7l-138.2 2l-80.5 1.2l-36.7 2.3l-125.5 -0.1l0.2 594.8l-1.2 163.2l-2.1 461.2l-50.9 -0.1l-3.1 -0l-27 -0.1l-77.4 -0.1z" />
  </g>
  <g data-id="125">
    <path d="m8914 1875.5l0 0l1.2 806l330.6 -2.7l26.8 -2.5l715.5 -6.3l-0.2 -33.8l-0.7 -99.4l0.5 -14.4l-0.7 -40.3l-0.9 -265.7l-0.1 -26.6l-0.1 -18.9l-0.3 -11.8l-0.2 -284.8l-0.4 -270.5l0.1 -26.7l0 -124.1l-0 -11.5l0.9 -192.4l-0.3 -20.3l-0.3 -20.3l0.3 -61.7l-0.4 -6.2l0.5 -81.6l-873.9 2.9l-164.1 0.1l-0.3 163.3l-19.1 -0.3l0.4 650.4l-14.9 -0.1z" />
  </g>
</svg>
