<?xml version="1.0" encoding="UTF-8"?><!DOCTYPE svg PUBLIC '-//W3C//DTD SVG 1.1//EN' 'http://www.w3.org/Graphics/SVG/1.1/DTD/svg11.dtd'><svg viewBox="0 0 1000 1148.12" xmlns="http://www.w3.org/2000/svg"><path id="26001" d="m816 606v61l71-1l1-5v-1l-1-3v-5v-3l1-3l3-5l1-6l1-4l-2-2l-1-1v-3l-1-1l1-1v-6l-1-7l-2-2v-2v-1z"/><path id="26003" d="m412 313v60l63 1v-32h31v-31h63v-34h-2l-6 1l-3 2h-5l-6 1l-4 2l-4 1h-1l-1-1l-2-3l-3 1l-4 3l-20 14l-5 2l-6 3h-1l-2-1h-1l-1 2l-1 1l-1 2l-4 4l-4 3l-3 4l-3-1v-1v-3h-1v1l-1 1v1h-2l-1-2v-1l1-1l1-1v-1v-2l1-2l-4-5l-2 1l-1-1l-2 1l-2 2l1 6l1 1l1 1v5v1v2l-1 3h-1l-1-1l-2-4v-1l-1-1h-2h-2h-3l-1 2l-1 1v2l-1 2l-3 1h-1l-3-1l-2-1v-1v-2l-2-1h-3l-2-1l-1-1h1v-1l-2-5l-1-1l-1-2l-4-1h-1l-2 1l-2 1l-4 1l-2 2l-1 1z"/><path id="26005" d="m519 1022l-1 4h63h28v-29v-30h-15h-15h-12h-31h-1h-4h-5v1v2v6v4v1l-1 4l-1 3l-1 1l1 8l-1 2v3l-1 4l-1 10z"/><path id="26007" d="m815 575l1 31l71-1v-4l-4-1l-6-3l-1-2l-2-2l-1-1l-1-1l-1-2l-1-7l2-2l1-1l-1-1l-1-1l-1-2v-1l1-3l1-1l5-2l4 1l1 2l2 2l5 2l2 1h2v-2l-1-2l-2-3v-1l-1-4l-1-1l-1-5v-2v-1l-3-1l-1-2h-1l-1-1v-1v-2l-2-4h-1h-16l-45 1l-1 7l1 23z"/><path id="26009" d="m624 601l-2 4h7l1 5l3 1l2 2l2-2l-1-4l4-2h56v-30l-1-15h-46v-16h-21l1 3v1l1 7v3l1 2v8l-1 2l-1 2v5l1 4l-3 12l-1 3l-2 3z"/><path id="26011" d="m781 727v29h15v15h17v-1l2-1v-2l1-2l1-2l1-1l2-2v-1h1l2-2l5 1h3l2-1h1l2-2l4 2h2l-1-5l1-3l3-3h4h3h2l-1-3v-1v-2l2-2l1-3v-2v-5v-1h-40z"/><path id="26013" d="m217 248v78h71v-47h15v-15h-7l1-8v-19l-3-1l-2-1l-3 1l-3 1l-4 1h-2l-4 4l-4 4l-1 3l-2 4h-2v-2l4-7l1-2l1-3l3-2l3-2l4-4l2-3l-1-1h-1l-2 1l-9 6l-3 2l-2 2l-4 3l-5 5l-2 1v-3l-3 1l-1 3l2 1v2l-4 4l-2 3l-1 2l-2 5l-2 1l-3-1v-1l2-4h2l-1-4l-1-4v-1v-3l1-7l2-6l1-3h-13v16z"/><path id="26015" d="m609 967v30v29h1h29h29v-59h-30z"/><path id="26017" d="m781 800v30h15l-1 8h17h13v8h14v-15v-7l-4-3l-3-2l-5-1l-3-6h-1l-3 5l-5-3l-2-2l-4-7l-1-4l-1-2v-2h2l2-3v-2l1-12l1-6v-3h-17v-15h-15v30z"/><path id="26019" d="m520 636v4v2l3 7l1 3v5v3l-1 5l52 1v-46l-15-1h-17v2l-1 2l-1 3l-2 2h-2h-5l-2 2l-7 2l-2 1l-1 2z"/><path id="26021" d="m449 1137h1h1h1h6h1h13l14 1h1l2-1h29h1h5v-23v-14v-15v-29h-18l-2 5l-2 3h-1l-4 6l-3 5l-3 2v2l-2 4l-1 2l-3 6l-3 6l-1 3l-2 7l-2 4l-2 3v1l-8 8l-5 4l-7 6z"/><path id="26023" d="m640 1085v52h3h5h4h3h6h1h10l8 1v-1h2v1l3-1h14v-52z"/><path id="26025" d="m639 1026v2l1 28v29h59h14v-15l-1-14v-15v-15h-15h-29z"/><path id="26027" d="m524 1137h1h5h6h5h3h3h6h2l11 1h2h10l1-1v-2l2-2l1-2v-46h-44h-14v15v14z"/><path id="26029" d="m628 539v5h21v16h46h15v-15v-16h-29v3h-4l-3-3v-4l-3-4h-6v-6h-6l-5 1h-2l-1 1l-4 3l-2 2v1l-1 1h-1l-2 1l-1-1l-2 1l-2 2l-1 1l-3 2l-2 2zm0-97l2 2l2-2l1-3l-1-4l-2 1zm-17-9l-1 5l3 4l6 2l2-2v-3l-6-5zm-13 41l1 2l1 1l7 2l2-1h1l1-2v-1h1l1-1l2-2l1-2v-6l-2-2v-1v-2v-1l1-2v-1v-4l-2-1h-1l1-2h1h1l-1-2l-3 1h-1h-1l-1-1l-2-1v1v1v1v2l-1 4l-1 2h-1l-1 2l-1 1v4v2v2v1l-2 1zm-9-25l1 7l3 1l3-5l-1-4l-4-1z"/><path id="26031" d="m710 529v16h46h15v-15l-1-61h6l-1-1l-7-2l-2-2l-5-2l-6 2l-3-2l-2-1h-2l-1 1v2h-1h-2l-2-1l-2-2l-6-3l-1-2h-1l-2-2l-4-2l-5-3l-4-2v-1l-5-2v-2l-1-2h-1v43l1 15v16z"/><path id="26033" d="m801 384l-1 2l2 2l3 2v-3l-1-1l-1-2zm-154-119v93h16v16h93v15h16v16h15v1h1l1 1l1 1l2-1l8 2h2l2-1h4l4 2l1-2h4l2 1l2 2h1v2h1l1-1h2l1 1l1 1h3l3-1h1l2 1h4l4-2l3 2l6 3l2 1l5-1l1-1l1-1l3-7v-1l2-2l-1-1v-1l-1-1h-1l-5-2l-1-2v-3l-1-1l-1-2l-1-1l-1-1v-1v-2l-1-1h-2l-2-1l-1-1l-2-1l-3 1h-5h-2l-1 1v1h-4h-2l-1-1l-1-1l-3-1h-1l1 6l2 3l3 1l1 3v3l-1 2l-3 2l-3-1l-1-4l-2-1l-3 6l-4-1l-1-2l-3-1v-1l-1-1v-1l-1 1h-2l-3-1l-2-2l-3-2l-3-4l-2-2v-1v-2l1-1l1-1l2-2l1 1v-2l-4-2h-3h-1l-1-1l-1-3l-1-1l-1-1l-6-1l-3 3l-3 1l-4-3h1v-3v-2l2-3l1-2h5h3l1 1v1h1l1-2h1h1l1-1l2-3l-3-2v-9l1-1l-1-3l-3-6l-1-8l3-10l2-6l-1-2l-1-1v-2h-2h-1v1h-2h-1l-2-2l-4 1l-4 6l-1 1h-2h-2l-4-1l-1-1l-1-1h-4l-3 2h-3l-3 2l-2 4l1 1v1l-1 3l-1 1h-1l-2-1h-1l-6 4h-4h-2v-2l-1-1l1-1l1-1l-2-2l-1-3l-2-2h-3l-3-1l-1 1l-5 3l-5 2l-4 2h-4l-2-1v-2l-2-2l-2 1h-2h-3v-1l-2-2v-1h-2l-1 1l-1 1l-6-1h-1l-1-1l-2-3l-1-2v-2v-1l1-1l2-1l1-1l-1-1v-3l-1-2v-4v-4l1-9v-2v-2l1-3l2-3l2-3l5-4v-1h-2h-3l-2 1l-4 1l-3 1l-14-1z"/><path id="26035" d="m666 727v61h60v-60l-31-1z"/><path id="26037" d="m697 907v60h29h12h18v-1v-58z"/><path id="26039" d="m696 605l-1 61h48l12 1v-61z"/><path id="26041" d="m465 471l-2 1l3 3l3 3l2 6h1l2-2v-1v-2l-3-3l-2-3l-2-2zm-11 18l-1 2l1 3l3 2l1-2l-1-3l-1-2zm-73-84v15h5v62l8 1v-1l4-6l1-2l3-7l3-4l6-4l2-1l2-1v-1l5-2l-2-1l1-3l1-1v-2l-1-1v-1v-1l1-2v-4v-2v-2l2-2l1-1h2l1 1l2 4l1 3v5l1 2v5l-1 1v3v2h2v2v1v1l3-4l3-1l2-2h1h2h1l4-2v-1v-3l2-2v-1v-1v-1l3-1l2-3l1-3v-2v-1h-1v-5v-1l3-1h1h1l2 3l1 1l9 2l2-2v-3l1-1l1-2h2l1-1l1-3h2l2 1l1 1l1 1l1 2v3v1l-1 2h-1l-1 1l-1 2l1 2l-1 1h-1l-1 1l-1 1l1 1l-1 2h-2h-2v-1h-2v4v2l-2 3l-2 1l-1 1v2h1v2l-2 1l-1 1h-2l-2 1v1v2l1 3h2l1 2v1l3 2l2 1h2h1l1 2v-3l-2-7l1-1l2-1l2 1h1v-3v-4v-1l2-1l3 1h1l1-2l1-3v-2h1l1-1l1 1l1 1l1-2l2-1v1l1-25h-4v-47h-16l-63-1h-15v32z"/><path id="26043" d="m285 434v1l1 1l2 1l1 1v2h1v1h1h1h1v1l2-1h1l1-1h1h1l1-1h1h1h1h1v2v1v1l1 1h1l1 1h-1h1v1l1-1l1 1h1l1-1l1 1l1-1h1v1h1v1l1-1h1h1v1h1v1v1l1 2l1 1h19v-32h10v-15v-47h-63v58h1h1l1 1v1h-1v1v1v1v2h1v1l2-1v1h1v1v1l-1 1v-1l-1 1v1l-1 1l-1 2h-1l-1 1v1h-1l-1 1z"/><path id="26045" d="m668 967v59h29h15h15v-15l-1-26v-18h-29z"/><path id="26047" d="m662 478v1v6l1 3l3 8l2 3l4 4l5 2h1l1-1l8 2l1 2v1l-1 2l-5 3l-8 1l-1 1h-2h-1l-5-1v6h6l3 4v4l3 3h4v-3h29l1-15v-16l-1-15v-43l-1 1h-1l-3-1h-1l-1 2l1 1v2l-1 2h-1l-1 1h-4l-4-1h-5l-2-1l-1-1h-8h-1h-1v1h1l3 1l4 2l1 2v1v2l-4 4l-3 3v2l-1 1l-1 1l-6 2l-2 2v1v1l-2 3l-2 2z"/><path id="26049" d="m810 890l1 15v31v29h22h8v-7v-8l14-1h15v-1v-14l-1-15v-29h-29h-15z"/><path id="26051" d="m726 728v60h30v-3l25 1v-30v-29l-25 1z"/><path id="26053" d="m0 300v1l1 1l1 1v1l1 1v1h1l1-1l1-1h1h1v1h1v-2v-1h1h1v1l1 1v-1l1 2v2v1v1l1-1v1h1v-1h1h1v-1h1v1v1v1h1v1h1h1h1l1-1h1l-1 1l1 1v-1h1v1l1 2l1 2l1 1h1v1h-1v1h1l1 1v3h1l1 1v2v1l1 1v2h1v2l1 1h1l-1 1l1 1v1l1 1l1 1v1h-1v1v1l24 7h1l1 1h1l18 5l12 3l3 1l13 4l5 1l28 8l7 2h1h1l1 1l3 1h1l5 1l4 1l12 8v-43h-47l1-31h-47v-16h-16v-31l-3-1v1l-4 4l-4 4l-2 2l-2 1l-1 2l-4 3l-2 1l-7 3l-8 1l-9 4l-4 1l-5 3l-3-1l-2 2z"/><path id="26055" d="m575 620v46h60v-53l-2-2l-3-1l-1-5h-7l-3 4v2l-1 2l-4 2l-1 3l1 1v1v1l-3 4h-1h-2l-3-2l2-6v-3v-2l2-2l3-2l1-1l1-1l1-2l1-6l-1-1v-4l1-4l2-1h1v-1l-1-3l-1-2h-2l-3 3v1v1l-2 6l-1 2l-3 4l1 1h1h3l-1 3l-1 1l-5 10l-1 4v3l-1 1h-1l-3-1h-1v-1z"/><path id="26057" d="m696 848v15v15h1v29l59 1v-2v-58h-15h-15z"/><path id="26059" d="m699 1085v52h2v3v1v1v2v2v2h7l39-1l5-1h5l-1-61h-14h-29z"/><path id="26061" d="m178 279v47h39v-78h16v-16h13v-2l1-4l4-1l1-1l2-4l1-2l1-1l1-4l1-3v-2v-1l1-1h1l5-3l1-3v-1v-1v-1l1-2l1-1h1h1l1 1v1l1-1l1-1v-1h-1v-1v-3v-3l1-2h1h-9v-16h-27l-8 7l-1 1l-3 1l-2 1l-2 1h-2l-2 1l-3 3l-4 4l-4 5l-2 1h-2l-3 2l-4 5h-1l-4 2l-2 3l-1 5l-1 3l-2 2l1 49h8v15z"/><path id="26063" d="m865 795l1 5l1 1l1 1v11l44-1l64-3l-1-8l-1-2v-1v-2l-2-11l-1-1v-1v-1v-1l-1-3l-3-2l-2-6l-2-6l-2-4l-2-3l-1-1l-2-2h-2l-1-1v-2l-5-2l-6-1l-2-1l-3-4h-1l-3 2l-1-1h-1l-3 3h-1l-3 1h-1l-2 5l-2 1l-1 1h-1h-4h-1l-2 2h-1l-5 2l-2-1l-4 1l-4 1v1l-1 2l-2 3l-3 3l-1 1h-7l-4-1l1 2l3 1l3 1l2 1l-2 4l-3 2l-2 2l-3 1l-1-2l1-4l-2-2l-2 5v2l-2 4v2l-2 3z"/><path id="26065" d="m726 967v18l1 26v15h29h28v-15v-15l-1-15l-1-15h-26v1h-18z"/><path id="26067" d="m638 907v16v14v30h30h29v-60h-30h-14z"/><path id="26069" d="m816 667v60h40l1-6l1-2v-3l1-4l2-2l2-2l1-1h3h2l2 1v1h2v-1l1-3l1-1l1-1l4-5h1h2h1h1v-2v-3v-2l1-6v-1v-1v-2v-3l1-7v-5z"/><path id="26071" d="m178 326v16v43l6 3l2 1l10 6l1 1v1h1h2v1h1h1h1v-1h-1l1-1h1h1v1l-1 1v1h1h1v-1h1v1l1-1l1-1h1h1l1 1v1v1h1v-1h1h1h1l1 1h1v1v1l1 1v1h1l2 1h1v-1h1h1l1-2v-2l1-1h1v1v1h2v-1h1v-1h2v1h1l1-1v-1h1l1 1h1h1v1l1 2v1l1 1h1l1-1v-1h1h1v1l1 1h1h1v1h1v1h1v1l1-1l1-1v1h1v-1l1-1h1l5 4h1v1h1h1l1 1h1v1h1l1-1h2l1-1h1v1l1 1l1 1h1v-1l1 1h1h1v-1h1l2 1l1 1h1l2 1v1h2v1h1v-58l1-32h-71z"/><path id="26073" d="m666 788v60h30h30v-60z"/><path id="26075" d="m712 1026v15v15l1 14v15h29h14h15h8h6v-30v-29h-1h-28h-29z"/><path id="26077" d="m581 1026v15l1 44h29h29v-29l-1-28v-2h-29h-1z"/><path id="26079" d="m635 613v53h60l1-61h-56l-4 2l1 4z"/><path id="26081" d="m578 878v15v29l1 20v7v3v15h15h15h29v-30v-14v-16v-15v-15h-30h-1z"/><path id="26083" d="m346 144l1 1l3 1h2l2-2l-1-1l-4-1l-2 1zm-106 23l-2 1h27v16h9l2-2h2l4-1l4-4l1-3l1-1h2l3-5l2-2l5-2l3-3l3-1l1-1h2l1-1v-1l-1-2h-1l-1-1l-1-1v-1l1-3h2l8-1h3h1l2 1l1 1h1l2-1l4-2h1l1-1h1l3 1h1v-1v-6l-2-2l-4-2l-5-2h-2l-10-1h-1h-3l-6-1l-8 1h-1v1l-3 1l-2-1l-6 2h-2h-4l-4 2v1l-1 2l-2 1l-6 1l-2 2l-2 1l-9 4l-3 2l-5 6l-2 2l-1 3zm-95-108l1 1l3 2l-1 1l4 1l1 1v2l4 2l5-1l2-2l6-3h2l2-1l3-2l11-4l2-2l-7 2l-2-1l-3 1l-1-1v-2l5-3l5-3v-1l3-2l6-2h2l5-2l3-1l6-2l6-3l12-9v-1v-1v-1v-1v-1l1-2l7-5l3-3l2-3l2-1l1-1h3l1-1v-2l-1-2l-3 2l-1-1l-3 1l-1 1l-2 1l-2 1l-3-2l-4 2l-5 2l-5 3l-2 2v1l-1 1l-2 1h-1l-3 2l-2 1l-2 2l-1 1v2l-2 1l-3 1h-1h-2l-8 4v1l-2 2h-2h-1l-7 3l-3 2l-10 5l-10 6l-5 4v1v1l-1 1l-3 2z"/><path id="26085" d="m546 726l1 21v10v30h60l-1-60h-32z"/><path id="26087" d="m869 888v2v29l1 15v14h15l29-1l15-1l-2-45v-22h-15v-7l-30 1l1 14z"/><path id="26089" d="m578 495l1 2l1 2l1-2v-2l-1-2h-1zm-11 7l1 4l5 7l1-4l-1-5l-3-2zm-23 54v6l1 1l2 2l2 3l1 1l2 1l3-1v-2l-1-1v-1v-5l1-1v-3l-2-2v-1h-2l-3-1h-2l-2 1zm-1 59v4h17l15 1h22v-3v-3l-2-4v-3l1-4v-2l1-1l2-6l3-1v-8l-1-3l-2 3l-1 1h-1l-1-1l1-3l1-2h1l2-2l1-1v-4l1-2h1l1 2h1v-3l-1-2h-1l-3-8l-1-2l2-4l1-1h2h1h1v-1l1-1l2-1v-1l1-2l-2-4h-1l-1 2l-1 1l-2 2l-1 1h-2l-1-1v-1l-5 8l-2 5l-1 2v2l-2 3l-2 2l-4 2l-2 5l-2 2v2v3l-1 1l-3 5l-1 1l-3 1h-2h-2l-1-1l-2-2v-1l-3-1h-2v1l-1 1l-1 3l-1 1l-1 1l-1 2l-1 2l-1 1h-2h-2l-1-1l-1-2l-2 1l-1 1l-1 2v2v3l1 5v3zm-11-37l1 2l2 1h2l3-2l-1-2v-1l1-1h2l-2-2l-3-1l-2 1h-1l-1 4z"/><path id="26091" d="m756 1085l1 61l28-1h14h3l12-1h3h2h12l-1-61l-29 2h-16h-6h-8z"/><path id="26093" d="m782 966l1 15l1 15v15v15h1h14h10l35-2l-1-15l-1-14l-1-15v-15h-8h-22z"/><path id="26095" d="m569 311v47h78v-93l-2 1l-4 1l-10 6l-14 6l-4 1h-4h-6l-4-1h-6l-5 1h-5l-5-1l-6-2h-3z"/><path id="26097" d="m729 409l1 1l1 2l1-3l-1-1l-1-1zm-7-3v4l1 1l1-1l1-2v-1l-2-2zm-2 21l2 2h1l1 1l1 2l2 2l1 2v1l1 1l3 1l1 1l3 4l2 2v2l1 1l2 1h2l2 1h3l1 1h2l2-1l-1-1l3-2v-2l2-3l-6-2l-1-2l-1-2v1v1l-1 1l-8-3l-3-1l-3 1l-4-3l-2-1l-2-4v-2l-2-3l-1-1h-1h-1zm-151-69v50h3h1l1-2h1h1h2l3 1l3 1h2l4 1l4-1l1-1l1-2l4-4l1-4l8-9l3-2l1-1h1h3l4 2l1-2l1-1h2l3 1l1 2l2-1h1l3-1l2 2l4 2l3 1l5 1l3 3h1l5-1h1l2 1l3 2l2 1l4 1l5 2l1 1l4 4l5 5l2 5l2 1l3 1l1 1l2 2h2v2v1l1 2l5 2l5 5l3-1v-1l1-1h2v-1l-2-2v-1l-2-6l3-2v-1l-1-1l-2-1l-1-1v-1l2-3v-1l3-1h2v-1l-1-7v-2l1-1l1-2l1-1h2h1l5 4h2h1l2-1l3 2v1l1 2v3v2v1v1h1l2-1v-3h3v1l1 1l2 2l2-2l1 1l1 3l7 4l3-1l3-3h9l2-2h8l4-1l3-1v-1h-15v-16h-16v-15h-93v-16h-16z"/><path id="26099" d="m914 947l1 30v15v5l1 10v10v5h8l2-1h4h1h4h1h7l-2-3v-5l1-4l2-3l1-2v-1l1-1l1-1h2h3h1l1 1v-1l-1-2v-2v-1v-1l-3-1l-1-1v-2l1-2l2-2l1-1l1 1l2-1l1-1v-1l4-2h2v-1l-3-3v-3v-12l-1-18l-16 1h-14z"/><path id="26101" d="m504 723v1l42 2l28 1l1-61l-52-1l-1 3l-1 2v1l-1 3v3l1 3v2l-1 4l-2 9l-4 7l-2 4l-1 4l-2 2l-1 4l-1 3z"/><path id="26103" d="m288 326l-1 32h63v47h31h16v-32h15v-60h-1l-6-1l-3 1l-7 1l-7-1l-5-1l-2-2l-2-1l-1-2v-1v-2l2-1l-1-1l-1-3l1-2v-2l-2-1l-1-1h-4h-1l-2-2v-2v-1v-1l-4-1l-1-1l-3-5v-1l1-1l-7-6l-1-2l-1-4v-6l-2-1l-2-3l-1-1h-1h-1l-2-1l-1-1v-1v-2l-1-1l-1 1v1l-1 1l-2 1l-2-1l-1-2v-1v-1l-1-3l-1 1h-2l-1-1v-1v-1h-1l-1-1l-3-1h-1l-2 1h-1l-3-2l-3-3h-7l-4 1h-2l-4-1h-1v19l-1 8h7v15h-15z"/><path id="26105" d="m488 745v2v3l1 2l3 3v1v1l2 4l2 9v5l2 6v2v4h49v-30v-10l-1-21l-42-2l-2 3v1l-3 5l-1 2l-2 2l-7 5l-1 2z"/><path id="26107" d="m607 787v60l59 1v-60h-45z"/><path id="26109" d="m318 513v1v2l1 1v1h1l1 1v1l1-1l1-1h1h2h1h1h1h1h1l1 1l1-1v-1h2v-1l2-3h2v-1h1v-1h1l1 1l1 1v1l2 1v1v1v1h1v1v1l-1 2h-1v1v1l-1 2h-1l-1 2v1h-1v1v1v1v1h-1l-1 1l1 1h-1v2v1h-1v1h-1v1h1v1l-1 1v1v1h-1v1h-1l1 4v1h1v1h1v1h1l1 1v1h1h1l1 1l1 1v1h-1l1 2h1v1v1h1l1 1h2h1l1 1l3 1v-1l-1-1l-1-2v-1v-2l1-3l2-3l3-3l1-2l5-5l6-9l3-4v-2l1-2l4-6l1-3l3-4l1-2l1-1l2-1l1-2v-1l-1-1v-1v-1l2-3l2-2l2-5l3-8l-8-1v-62h-5v-15h-31v15h-10v32h-19l1 1h1l3 1v1v1v1h1l2 1v1v1v1h-1h-1v1l-3 1v1v1v1h1l1 1v2l1 1h1v1h1l1 1v2v2h-1v1v1v2h-1l-1 1l-1-1h-1l-2-1v1v1l1 1h1v1l1 1l1 1h-1v1l1 1v2v2h1v1v1h-1v1l-1 1v1v1l-1 1l-1 1l-1 1l-2 1v1h-1l-1 1v1h1v1v2h1v1v1l-1 1v1v1h-1h-1v1z"/><path id="26111" d="m726 788v60h15h15v-3h24l1-15v-30v-14l-25-1v3z"/><path id="26113" d="m635 681v46h31h29v-48v-13h-60z"/><path id="26115" d="m830 1083l1 61l7-1h3h2h3h1h5h2l10-1h6l2-1h2l-1-2l-1-3l-1-3v-4h1v-1l2-1l2-1l1-4l2-3l1-1l1 2l1-1l1-1l1-1l1-1v-1v-2l1-3l1-2l2-1l1-1h1l2 1l2-2v-1l1-2l2-3h1h1l1-1v-2h2l1-2l-1-2l-4-3l-5-4l-3-3l-2-1h-15v1l-15 1h-13h-1z"/><path id="26117" d="m607 847v30h1h30v15v15h15h14h30v-29h-1v-15v-15h-30z"/><path id="26119" d="m756 545l-1 61h20h41l-1-31h2l-1-23l1-7h-18h-28z"/><path id="26121" d="m494 847l2 7l2 6l1 3l2 7l1 4l9 17l1 3l1 2l3 7l1 1l1 3h31h14v-15l15 1v-15l-31-1v-29z"/><path id="26123" d="m547 848v29l31 1l29-1v-30v-60h-60z"/><path id="26125" d="m841 950v8v7v15l1 15l1 14l1 15h14l14-1h8h1h6l14-1h1h2h2h2h1h7v-5v-10l-1-10v-5v-15l-1-30l-29 1h-15v1h-15z"/><path id="26127" d="m484 817v2l1 3l1 4l1 3l5 10l1 4l1 4l53 1v-61h-49l-1 5l-1 3l-2 4l-2 4l-4 5l-2 3l-1 4z"/><path id="26129" d="m755 667l1 53v5v3l25-1h35v-60z"/><path id="26131" d="m66 263l3 1v31h16v16h47l-1 31h47v-16v-47h16v-15h-8l-1-49l-1 2l-2 2l-1 1l-2 1h-2l-3 1v-2l-2 1l-3 2h-3h-2h-1l-1-1h-1l-2 1l-3 4l-4 6l-3 4l-3 1l-15 9l-6 2l-2 1h-5h-2h-1h-2l-3 1h-4l-6 3h-2l-1-1l-2-1l-2-1l-6 1l-9 2l-5 2l-2 2z"/><path id="26133" d="m606 727l1 60l14 1h45v-61h-31h-14z"/><path id="26135" d="m755 606v61h61v-61h-41z"/><path id="26137" d="m695 560l1 15v30l59 1l1-61h-46v15z"/><path id="26139" d="m518 907l2 6l1 3v2v1l2 6v3l1 2l1 12v2v4l1 4l-1 4l1 9v2h5h4h1h31h12v-15v-3v-7l-1-20v-29l-15-1v15h-14z"/><path id="26141" d="m770 469l1 61v15h28h18l45-1h16l-2-4l-1-2v-1l3-2l1-2v-1l-1-1h-1l-3-2v-1l-1-1l-2-2l-4-5l-1-3h-1l-3 2l-3-2h-1v1l-3 1l-3-1l-6-4l-3-2l-3-2l-4-3h-1h-3l-2-1l-2 1l-2-1l-4-3l-3-2l-2-4l-4-3l-4-1h-5h-2h-1l-3-1h-1v1l-2 1l-3-1l-2-1l-2-1l-1-2l-1-2v-3v-2v-1l-2-3l-2-2l-3-3l-2-3l-1-1z"/><path id="26143" d="m695 679v48l31 1h30v-3v-5l-1-53l-12-1h-48z"/><path id="26145" d="m756 845v3v58h25l30-1l-1-15h15h15v-18l-1-12v-14h-14v-8h-13h-17l1-8h-15l-1 15z"/><path id="26147" d="m927 901l2 45h14l16-1l1 18v12v3l3 3v1l1-1h2h1l2 1l1 2l1-1l2 1v1l1 2l-1 2h-1l-2-2l-2 2l1 2h-2h-2v1l1 1l1 1l-1 1h-2l-1 1v1l1 1h1l2 2l-2 3h1v7l1-1l1-2l1-1l2-2l1-1h2l1 1h1v1l2-1h1v-2v-1l1-1l2-1l1-2l3-2l1-2l1-4v-4l2-6l1-3v-3l2-5v-1v-2l-1-4h-1v-1l1-2l1-2v-3v-1v-4v-1l1-2l1-5l1-2l2-2l2-3v-1l-1-2v-1v-1l1-1l-1-1l-5-9l-1-4l-2-3l-1-2v-5l-1-3v-1h-5z"/><path id="26149" d="m579 1137l-1 1h2h3h3h8h2h2h1h2l11-1v1l11-1h6h4h3h1h1h2v-52h-29h-29v46l-1 2l-2 2z"/><path id="26151" d="m912 872v7h15v22l57-2h5l-1-5l-1-3l-1-2l-1-14v-1v-3v-3v-3l-1-10v-1v-1l-2-5l-1-6v-1l-3-7l-1-6v-2v-2l-1-11v-2v-2l-64 3l2 60z"/><path id="26153" d="m475 342v32h16v47h4l-1 25h1l2-1l1-1v-2h1l-1-1l1-1l1-1h2v1h4l2-2v-1v-5l2-3l1-10l1-2l5-4l3-2l1 1h2v-1l1-1l2-1h1l5 1h1h1l2-2h4h3l3 1l6 2l6 3l4 2l1 1v-1l-1-1l-1-1v-1l1-2l1-2l2-1h2h2v-50v-47h-63v31z"/><path id="26155" d="m756 906v2v58h26l29-1v-29v-31l-30 1z"/><path id="26157" d="m839 824v7v15v14l1 12v18h29v-2l14-1l-1-14l30-1h2l-2-60l-44 1v-11l-1 3l-3 1l-1-1l-1-1h-1v1l-1 1h-1l-3 4l-1 1l-1 2l-3 5l-5 6l-5 2z"/><path id="26159" d="m507 1054l-1 2h18v29h14h44l-1-44v-15h-63l-1 1l-1 2v2l-1 6l-3 8z"/><path id="26161" d="m785 1055v30h16l29-2h15h1h13v-15v-15l-1-15v-14h-14l-35 2h-10h-14z"/><path id="26163" d="m858 1024v14l1 15v15v15l15-1v-1h15l2 1l3 3l5 4l4 3v-4v-1v-1l2-1h1l1-2l3-1l2-6l-2-8v-5l1-5v-1l2-4l1-4l1-1l2-3l2-1l5-2l4-1l4-1l1-1l3-1v-1l1-3v-1l2-1l1-1l1-1v-2v-1l2-6h-7h-1h-4h-1h-4l-2 1h-8h-7h-1h-2h-2h-2h-1l-14 1h-6h-1h-8z"/><path id="26165" d="m575 666l-1 61h32h15h14v-46v-15z"/></svg>
