<?xml version="1.0" encoding="UTF-8"?><!DOCTYPE svg PUBLIC '-//W3C//DTD SVG 1.1//EN' 'http://www.w3.org/Graphics/SVG/1.1/DTD/svg11.dtd'><svg viewBox="0 0 1000 1148.12" xmlns="http://www.w3.org/2000/svg"><path data-id="26001" d="m815.7 605.7l0.2 61.1l71 -0.5l1.2 -5l-0.1 -1.5l-0.6 -2.8l-0.2 -5.3l0.1 -2.4l0.9 -3.7l2.3 -4.1l1.6 -6.4l0.4 -4.3l-1.3 -1.4l-0.8 -1.3l-0.8 -3l-0.1 -1.5l0.4 -6.7l-0.6 -6.4l-1.7 -2.2l-0.9 -1.9l0 -1l-70.9 0.4z"/><path data-id="26003" d="m412.4 312.7l0.1 60.8l62.5 0.1l0 -31.5l31.3 0.2l0 -31.5l62.5 0.2l0 -33.7l-1.7 -0.1l-5.8 1.1l-3.7 1.4l-5.2 0.6l-5.2 1.1l-4.7 1.8l-3.2 0.6l-1.5 -0.1l-1 -0.4l-2.3 -2.9l-2.9 0.6l-3.3 2.8l-20.2 13.8l-5.1 2.7l-5.8 2.6l-2.8 -0.6l-1.2 0.1l-1.6 1.6l-0.3 1.2l-1.4 2l-3.7 3.5l-4.1 3.3l-3.6 4.4l-2.9 -1.3l0.3 -1.5l-0.3 -2.6l-1 0.6l-0.3 1l-0.9 1.1l-1.2 -0.1l-1.2 -1.4l0.1 -1.1l0.6 -1.5l1.1 -1.5l0.4 -1.7l0.2 -2.8l-3.2 -4.9l-2.3 0.8l-3.1 0.3l-1.7 2l0.9 5.9l0.7 1.5l1.5 0.9l-0.3 4.8l-0.3 1.5l0.3 1.5l-1.5 3l-1.5 -1.1l-2.5 -4.2l-0.6 -1.3l-1.8 -0.7l-2.3 0l-2.4 0.2l-2 2l-0.7 1.1l-0.3 2l-0.6 2.1l-2.7 0.7l-1.6 0l-3.1 -0.6l-1.1 -0.8l0 -1.7l-0.6 -1.4l-1.8 -1.4l-3 0.3l-2.4 -1.4l0.1 -1.3l-0.1 -1l-2 -4.6l-0.2 -1.3l-1.6 -1.8l-4 -1.1l-1.1 -0.2l-1.6 1.4l-2 1l-3.9 0.8l-2.7 2.1l-1.1 1.4l-1.1 0.2z"/><path data-id="26005" d="m519.2 1022.3l-1.5 4.2l63.6 -0.2l27.7 -0.1l0 -29.4l-0.3 -29.5l-14.7 0l-14.9 0l-12.3 0.1l-30.7 -0.2l-1.3 0l-3.7 0l-5.3 0.1l0.2 3l0.1 5.2l-0.2 4.6l-0.9 4.7l-1.3 3.3l-0.3 1.2l0.4 7.3l-0.3 1.9l-0.9 3.1l-0.7 4.2l-1.1 10.1l-1.5 6.1z"/><path data-id="26007" d="m815.4 575l0.2 30.7l70.9 -0.4l0.1 -3.9l-4 -1l-5.1 -3l-1.3 -2.8l-2.6 -1.4l-1 -1.1l-0.7 -1.4l-0.6 -2l-0.8 -6.7l1.4 -1.7l1 -1.4l-1.9 -1.5l-1 -2.7l1.5 -3.4l1 -1.2l4.3 -2.3l4 1.4l1.2 2.1l2.2 1.6l4.8 1.6l1.8 1l2.1 0.5l0 -2.6l-0.7 -1.2l-1.8 -3.1l0.1 -1.2l-0.9 -3.8l-1.2 -1.5l-1.3 -5.3l-0.1 -1.6l-2.3 -1.6l-1.4 -2.6l-1.4 -0.3l-1 -1.7l-0.1 -1.7l-1.6 -3.8l-16.5 -0.6l-45.9 0.9l-0.2 7.5l0.3 22.8l-1.3 0z"/><path data-id="26009" d="m623.6 601.2l-2.1 3.8l7.5 0l0.9 5.3l3.3 0.3l2 2.7l2 -2l-1.4 -4.8l4.5 -1.6l55.5 0.3l-0.3 -30.3l-1 -15.4l-45.7 -0.2l0.1 -15.5l-20.6 -0.4l0.1 3.2l0.8 1.5l0.4 6.7l0.5 2.9l0.7 1.6l0.1 8.5l-1.4 2.4l-0.4 1.7l-0.1 4.9l0.4 3.5l-2.2 11.9l-1.3 3.4l-2.1 3l-0.3 2.4z"/><path data-id="26011" d="m781 727.4l0 28.7l15.1 0l0.1 14.9l17 0.1l0.1 -1.3l2.1 -0.9l0.1 -2l0.6 -2.1l1 -2.2l1 -0.3l1.7 -2.1l0.9 -1.6l2.4 -1.3l5.1 0.7l3 0l2.1 -0.6l2.4 -2.2l4.3 2.2l1.6 -0.9l-1 -4.6l1 -2.7l3.7 -2.8l3.6 -0.7l2.5 0.3l2.1 -0.4l-0.8 -2.2l-0.1 -1.7l0.4 -1.3l1.9 -2.5l0.7 -3.2l-0.2 -1.2l0.1 -5.1l0.3 -1.3l-39.8 0.3l-35.2 0z"/><path data-id="26013" d="m217.3 247.7l-0.1 78.5l70.3 0l0.1 -46.9l15.5 -0.1l0 -15.7l-6.7 0l0 -7.9l0 -18.9l-2.6 -1.1l-2.1 -0.3l-2.4 0.6l-3.2 1.3l-4.4 0.9l-1.7 0.1l-4.5 3.7l-3.8 4.4l-1.2 3l-2 4l-2 -0.2l0.1 -1.6l3.9 -7.2l1.1 -2.5l1.7 -2.4l2.1 -2l3.1 -1.8l4.7 -4.5l2.2 -3.4l-1.4 -0.8l-1.5 0.3l-1.5 1.1l-9.6 5.4l-2.1 2.6l-2.5 1.6l-3.6 3.1l-4.9 5.3l-2.4 0.6l-0.5 -2.7l-2.1 0.9l-1.8 3.5l2.7 0.4l-0.4 2l-3.7 4.1l-2.3 3.3l-0.6 1.2l-2.1 5l-2.7 1.8l-2.5 -1.3l-0.1 -1.5l1.9 -3.3l2.5 -0.7l-1.4 -3.6l-1.2 -3.6l-0.1 -1l0.7 -3.4l0.3 -6.5l2.6 -6.8l0.6 -2.9l-12.7 0.1l0 15.9l-15.9 0z"/><path data-id="26015" d="m608.7 967.2l0.3 29.5l0 29.4l1.3 0l29.2 0.3l28.4 -0.3l-0.3 -59.3l-29.4 0.2l-29.5 0.3z"/><path data-id="26017" d="m780.9 800.5l-0.1 29.6l14.8 0.3l-0.1 7.5l16.9 0.2l12.3 0l-0.1 7.5l14.8 0l-0.1 -15l0 -6.2l-3.9 -3.7l-3.2 -1.4l-5.5 -1.7l-2.2 -5.6l-1.5 0.3l-2.7 4.6l-5.6 -3.3l-1.5 -1.5l-3.7 -7.4l-1.2 -4l-0.6 -2.1l-0.2 -1.5l1.4 -0.1l2 -3l0.4 -1.8l1.1 -12l0.9 -6.4l0.3 -3l-17 -0.1l-0.1 -14.9l-15.1 0l-0.1 29.7l0 14.8z"/><path data-id="26019" d="m519.8 635.5l-0.3 4.1l0.6 2.7l2.8 6.8l0.8 2.5l0.6 4.9l-0.4 3.1l-1.2 5.4l51.9 0.9l0.3 -45.9l-15.2 -0.7l-17 0l-0.1 1.5l-0.6 2l-1.4 2.9l-2.1 1.8l-1.9 0.5l-4.9 0l-1.5 1.3l-7.5 2.6l-2 1.2l-0.8 1.2z"/><path data-id="26021" d="m448.9 1137.4l1 0l1.5 0l6.7 0l13.7 0.1l14.6 0l2.8 0l28.6 -0.1l5.8 0l0.3 -23.3l0.1 -14.4l0 -14.6l-0.1 -29l-17.7 0l-2.5 4.4l-2.1 3.2l-4.3 6l-3.6 4.9l-2.4 2.7l-0.6 2.2l-1.4 3.5l-0.9 1.9l-2.9 6l-3 6.3l-1 3.1l-2.1 6.3l-2.1 4.3l-2.3 3.5l-7.9 8.9l-4.7 4.3l-7.5 5.8l-5.9 4.1z"/><path data-id="26023" d="m640.1 1085.1l0.2 52.3l2.3 0l5.1 0l4.5 0l3 0l6.1 0l10.4 0l8.3 0.1l1.4 0l3.6 0l13.4 -0.1l-0.2 -52.5l-58.4 0.2z"/><path data-id="26025" d="m639.5 1026.3l-0.1 1.3l0.3 28.1l0.4 29.4l58.4 -0.2l14.6 0.4l-0.2 -15l-0.7 -14.8l-0.2 -14.8l0 -14.7l-14.7 0l-29.4 0.1l-28.4 0.3z"/><path data-id="26027" d="m523.7 1137.4l1.1 0l4.9 0l6.4 -0.1l5.1 0l3 0l2.7 0l6.2 0.1l2 0l10.8 0.1l1.7 0l10.5 0.1l0.7 -3.1l2.1 -1.4l1.1 -2.2l-0.3 -45.4l-43.1 -0.2l-14.4 -0.1l0 14.6l-0.1 14.4l-0.3 23.3z"/><g data-id="26029"><path d="m628.3 538.7l0.1 4.9l20.6 0.4l-0.1 15.5l45.7 0.2l15.3 0.3l0.1 -15.4l0.2 -15.5l-29 -0.4l0 3.6l-4.6 -0.2l-2.2 -3.2l-0.5 -3.5l-2.9 -4.4l-6.3 -0.2l0.1 -5.6l-6 -0.6l-4.8 1.7l-1.8 0l-1.6 0.7l-3.2 3.1l-2.1 1.5l-1.4 2l-1.3 0.7l-2 0.2l-2.3 0.2l-2 1.7l-1.4 1.7l-2.6 2l-2 2.1l-2.1 6.3z"/><path d="m627.6 441.9l2.1 1.7l2.3 -1.4l1 -3.4l-1.2 -3.9l-2 0.9l-2.1 6.1z"/><path d="m611.3 432.7l-0.9 5.7l3.1 3.6l5.6 2.2l1.5 -1.9l0 -3.6l-5.8 -4.6l-3.4 -1.4z"/><path d="m598.1 474.1l0.9 2.2l7.6 2.5l2.6 -0.5l1.4 -2.6l1.5 -0.6l1.1 -0.6l2.2 -2.4l0.5 -2.1l-0.4 -5.5l-1.3 -2.2l-0.4 -1.1l-0.3 -1.9l0.4 -1.8l1.1 -1.3l0 -1.2l-0.6 -3.7l-1.5 -1.5l0.3 -1.4l1.4 -0.7l-0.5 -1.5l-3 0.7l-1.3 0l-1 -0.2l-0.7 -1l-2.1 -0.5l-0.1 1.8l0.3 3.5l-0.9 3.4l-1.4 1.9l-2.2 2.1l-0.5 1.2l-0.6 4.3l0.5 1.9l0.1 1.5l-0.5 1.3l-1.4 1.3l-1.3 4.7z"/><path d="m589.2 449.5l0.6 7l3.1 0.1l2.9 -4.6l-0.3 -3.7l-4.6 -0.7l-1.6 2z"/></g><path data-id="26031" d="m710.2 529.1l-0.2 15.5l45.9 0.6l15 0l-0.3 -14.8l-0.3 -61.2l6 -0.2l-1.4 -1.4l-6.9 -1.8l-2.4 -1.5l-5 -2l-5.9 1.6l-3 -1.4l-1.7 -1.1l-1.7 0l-1 0.9l-0.9 1.6l-2.4 0.4l-1.7 -1.2l-2.8 -2l-5.1 -3.6l-1.8 -1.5l-2.6 -2.2l-3.9 -2l-5 -3.3l-4.3 -1.6l-0.3 -1.3l-4.3 -1.8l-0.4 -2l-0.9 -1.7l-0.6 42.2l0 15.4l0 15.7l-0.3 15.4z"/><g data-id="26033"><path d="m800.5 383.9l-0.4 2.5l2.1 2l2.8 1.9l-0.1 -2.9l-1.2 -1.3l-0.5 -1.7l-2.7 -0.5z"/><path d="m647.1 265.3l0 92.6l15.6 -0.1l0.1 15.8l93.6 0.1l0.1 15.6l15.5 0l-0.1 15.6l15.6 0l0 1.2l1.1 1l1.9 1l1.3 -0.6l7.8 2.1l2.6 -0.4l1.4 -1l4.1 0.3l3.9 1.3l1.3 -1.4l3.7 -0.5l2 1.6l2.3 1.1l1.4 2.1l1 0.1l2.4 -0.8l0.9 1.4l1.9 0.8l2.2 0.2l3.2 -1.1l1.2 0.1l1.7 0.6l4 -0.2l3.8 -1.8l3.2 2.4l6.1 2.9l2.7 0.6l4.4 -1.1l1.1 -0.9l0.8 -1l2.7 -7.1l2 -2.9l-0.9 -2.1l-1 -0.6l-5.6 -2.1l-1 -1.8l-0.3 -2.9l-0.5 -1.9l-0.9 -2l-1.4 -0.5l-0.9 -1.4l-0.4 -2.4l-0.7 -1.1l-2.2 -0.1l-2.1 -1.1l-1.3 -1.1l-1.2 -0.3l-3.3 0.7l-5.3 -0.6l-2 0.4l-0.4 1.3l-4.1 0.3l-2 0.2l-1 -0.5l-1.6 -1.5l-2.4 -1.2l-1.4 0.9l1.4 5.4l2 3l2.8 0.9l1.1 3.5l0 2.4l-1.4 2.5l-2.2 1.5l-3 -1.2l-1.5 -3.6l-1.9 -0.6l-2.9 5.5l-4 -0.7l-1 -2.3l-2.8 -1.2l-0.9 -2.1l-1.5 0l-1.5 0.2l-3.2 -0.9l-2.1 -2.1l-2.7 -1.8l-3 -4.4l-1.8 -1.5l-0.8 -1.7l0.4 -1.3l1 -1.7l1.2 -1.1l1.6 -1l1 0.4l0.6 -1.5l-4.2 -2.6l-3.6 -0.1l-1.3 -0.7l-1.6 -3.3l-1.5 -2l-5.8 -0.3l-3.1 2.8l-3 0.6l-3.8 -2.3l0.8 -3l-0.5 -2.5l2 -3.2l1.7 -1.4l4.6 -0.6l2.9 0.4l0.9 1l2.1 -0.8l1.2 -0.1l2.2 -1.5l1.3 -2.8l-2.2 -2.1l-0.5 -8.5l1.7 -1.3l-1.6 -2.7l-2.5 -6.4l-0.9 -8.4l2.6 -9.4l1.7 -6.2l-0.8 -2.5l-1.4 -2.3l-1.3 -0.4l-1.7 0.7l-1.6 0.4l-1.4 -0.1l-2 -2.4l-4 1.1l-3.5 6l-1.2 1l-1.4 0.4l-2.1 0l-4 -1.3l-1.5 -1l-4.5 -0.7l-2.6 1.8l-3.2 -0.3l-3.1 2.2l-2.3 3.9l1 0.8l0 1.6l-0.9 2.3l-1.2 1.2l-1 0.3l-1.7 -1.4l-1.3 0.2l-6 3.7l-4 0.9l-1.6 -0.3l-0.6 -1.7l-0.4 -1.3l0.6 -1.5l-1.1 -3l-1.1 -2.7l-1.8 -2.4l-2.9 0.5l-3.1 -1l-1.4 0.7l-4.2 2.8l-5.7 2.7l-3.9 1.3l-3.7 0.4l-1.8 -0.8l-0.7 -2.1l-1.5 -1.8l-1.7 0.6l-2.3 0.2l-2.7 -0.4l-2.4 -2.3l-0.3 -1.6l-1.3 0.3l-1 1.3l-1.8 0.7l-5.7 -0.6l-1.3 -0.6l-1 -0.8l-2 -3l-0.6 -2l-0.1 -2.1l0.4 -1.1l3.2 -1.9l0 -1.9l-0.5 -2.7l-0.5 -2.3l-0.2 -3.5l0.2 -4.4l0.9 -9.1l-0.2 -1.8l0.3 -2.3l0.9 -2.7l1.6 -2.9l2.5 -3.1l4.5 -4.4l-1.6 -0.6l-3.1 0.1l-2.5 0.6l-3.4 1.6l-3.4 0.5l-13.7 -1.1l-8.1 1.4z"/></g><path data-id="26035" d="m665.9 726.9l-0.2 60.9l60.3 -0.3l-0.3 -59.9l-30.4 -0.2l-29.4 -0.5z"/><path data-id="26037" d="m697.2 907.4l0 59.5l29.3 0.1l11.3 0l18.6 -0.1l0 -1l-0.5 -58.4l-58.6 -0.2z"/><path data-id="26039" d="m695.9 605.4l-0.5 61l47.5 0.1l12.5 0.6l-0.1 -61.1l-59.4 -0.5z"/><g data-id="26041"><path d="m465.4 470.7l-2.5 1.1l2.6 2.7l3.8 3.9l1.6 5.5l1.5 0.2l1.9 -2.5l0.2 -1.1l-0.7 -2l-2.2 -2.1l-2.7 -3.7l-1.4 -1.3l-1.9 -0.6z"/><path d="m453.6 489l-0.5 2.3l0.9 2.7l2.4 2.3l1.7 -1.8l-0.9 -3.6l-1.5 -2.2l-2.1 0.3z"/><path d="m381 404.8l0 15.5l5.3 0.1l-0.3 62.2l7.9 0.1l3.7 -6.9l1.4 -1.9l3.3 -6.6l3.1 -4.6l5.4 -3.6l2.2 -0.8l1.5 -1.7l0.5 -1l4.5 -1.3l-1.4 -1.8l1.1 -2.5l1.1 -2.7l-1.2 -0.9l-0.2 -1l0 -1.4l0.7 -2.3l-0.1 -4l0.2 -2l0.7 -1.7l1.5 -2.2l1.1 -0.5l1.6 -0.3l1.7 1.3l2.1 3.8l0.9 3.3l0 4.7l0.8 2.3l-0.3 4.4l-0.6 1.6l-0.3 2.5l0.4 1.7l1.4 0.8l0.3 1.2l0.1 1.8l2.8 -3.7l2.9 -0.4l2.1 -2.1l1.1 -0.3l2.3 -0.1l4.8 -1.9l-0.4 -1.2l0.4 -2.3l2.1 -2.7l-0.3 -1.4l2.8 -2.6l2 -2.6l1.6 -3l-0.2 -1.8l-0.3 -1l-0.8 -4.9l0.3 -1l3 -1.3l1.1 -0.1l2.6 3.5l10.3 2.7l1.7 -1.7l-0.1 -3l0.9 -1.5l1.5 -1.4l1.3 -0.1l1.3 -1.5l1.2 -2.5l1.9 -0.3l1.8 0.7l1.5 1.1l1.1 1.4l0.4 1.4l0.2 3.2l-1.3 3l-1.3 0.7l-1.2 2.5l0.4 1.6l-0.2 1l-1.8 0.5l-1.3 1.9l0.6 1.1l-0.8 1.8l-1.8 0.5l-1.8 -0.7l-2.3 -0.4l-0.5 3.3l0.2 2.8l-1.8 2.7l-1.9 0.7l-1.1 1.5l0.3 1.7l0.5 1.5l-1.3 1.9l-1.6 0.7l-2 -0.5l-1.3 1.2l-0.3 1.2l0 1.6l1.2 3.4l1.6 0.2l0.8 1.5l0.2 1l2.6 2.2l2.2 1l1.9 -0.4l1.2 0.9l0.9 1.2l0 -2.5l-1.4 -6.9l1 -1.4l1.1 -0.5l2.2 0.7l1.1 -2.9l-0.1 -4.1l0.6 -1.3l1.3 -0.8l3.6 1.5l1 -0.4l1 -1.8l0.2 -2.8l0.6 -2l1.8 -1.1l1 0.9l1.3 0.5l0.9 -1.9l1.6 -0.4l0.9 -24.5l-3.9 0l0 -47.1l-15.7 -0.1l-62.5 -0.1l-15.7 0l-0.2 31.3l-15.6 0z"/></g><path data-id="26043" d="m285.2 434.1l0.4 1.9l2 1.3l1 0.3l0.6 2l1.2 1l1.8 0.2l2.6 0.7l1 0l1.3 -1l1 -0.6l1.3 -0.1l2.1 -0.4l1.4 -0.5l1 0.4l0.7 1.8l0.2 1.1l-0.7 1.3l1.2 0.5l1.2 0.5l0.5 1l1.1 0l1.3 0.2l1.2 -0.1l1 -0.3l2.2 0.3l1.1 0.7l1 -0.1l1.2 -0.1l1.1 0.8l1.2 0.9l-0.1 1.6l1.1 1.8l1.1 0.9l18.7 -0.1l0 -31.5l9.9 0l0 -15.7l0.2 -47l-62.7 0l0.1 58.5l1.5 -0.1l1 0.8l-0.7 1.2l-0.4 1.1l-0.1 1.3l0.6 2.4l2.2 0.4l1.3 1l-0.2 2l-1.2 0.4l-0.5 1.2l-1.2 1l-1 1.6l-1.7 1.5l-0.9 1l-0.9 1z"/><path data-id="26045" d="m667.6 966.8l0.3 59.3l29.4 -0.1l14.7 0l14.8 -0.1l-0.1 -14.8l-0.2 -26.5l0 -17.7l-29.3 -0.1l-29.6 -0.1z"/><path data-id="26047" d="m662 478.2l-0.1 1.1l0.5 5.3l0.8 3.2l2.6 8l2.4 3.2l3.6 4l5.7 2.4l1.7 -1l7.4 1.3l1.1 2.2l0.1 1.2l-0.4 1.7l-5.4 3l-7.9 1.6l-1.3 1l-1.3 0l-1.5 -0.5l-5.1 -0.5l-0.1 5.6l6.3 0.2l2.9 4.4l0.5 3.5l2.2 3.2l4.6 0.2l0 -3.6l29 0.4l0.3 -15.4l0 -15.7l0 -15.4l-0.2 -42.4l-1.2 0.7l-1.2 0.3l-2.6 -1.2l-2.5 1.6l1.7 2l-0.2 1.5l-0.9 1.6l-1.3 0.9l-5.2 0.5l-3.2 -1.3l-5.4 0.4l-1.8 -1.2l-1.7 -0.5l-7.1 0l-1.5 -0.6l0.6 1.6l2.6 0.4l3.9 2.7l1.1 1.5l0.2 1.2l-0.4 2.1l-3.4 4.3l-3.2 3l-0.6 1.5l-1.7 1.8l-5.8 2.2l-1.7 1.8l-0.1 1l-0.5 1.2l-1.7 3l-2.3 2.6l-0.8 1.9z"/><path data-id="26049" d="m810.2 890l0.4 15l-0.1 31.3l0.9 28.8l22 -0.2l7.5 -0.2l-0.1 -6.2l-0.2 -8.8l14.8 -0.3l14.7 -0.5l-0.4 -14.8l-0.3 -14.8l-0.2 -29.6l-29.3 0.3l-14.8 0l-14.7 0.1z"/><path data-id="26051" d="m725.8 727.6l0.3 59.9l29.9 0.3l0 -2.6l24.9 0.4l0.1 -29.7l0 -28.7l-25.2 0.2l-30 0z"/><path data-id="26053" d="m0 299.8l0.4 1.6l1.1 1.7l1.2 2.1l1 0.4l1.6 -1l1.6 -0.4l1.1 0.6l0.7 -1.6l1.3 -1.3l1.1 0.6l2 2l-0.1 2l-0.7 1.3l0.5 1l1.3 -0.2l1.2 -0.3l1.1 0l1.2 -1l0.4 1.6l0.5 1.1l0.7 1l1 -0.1l1.1 -0.1l1.5 -0.3l1 0.9l1 -0.3l1.1 2.3l1 2.2l1.3 1.1l0.4 1l-0.2 1.2l1.3 0.6l0.3 3l1.4 0.2l1 3.1l-0.1 1.6l0.7 2.2l1.1 2.1l0.6 1l0.6 1.8l0.5 1.1l1 1l0.8 1.5l-0.1 1l-0.2 1l-0.2 1l24 7.1l1.3 0.4l1.1 0.2l18.1 5.2l12.1 3.3l3.6 1.1l13.1 3.6l4.8 1.4l27.3 7.6l7.1 1.9l1.8 0.6l1.4 0.5l3.5 0.9l5.2 1.5l4.2 1.1l12.6 7.4l0 -42.4l-46.8 -0.1l0.1 -31.3l-46.9 0.1l0.1 -15.8l-15.5 0l0.1 -31.5l-3.2 0l-3.7 4.6l-4.8 4.3l-2.1 1.2l-1.5 1.3l-1.3 1.8l-4 3.4l-2.1 1.1l-6.9 2.4l-7.9 1.8l-9.2 3.8l-3.5 1.1l-5.2 2.9l-2.6 -0.9l-2.6 1.3l-8.7 6.3z"/><path data-id="26055" d="m575 620.1l-0.3 45.9l60.4 0.1l0.1 -52.7l-2 -2.7l-3.3 -0.3l-0.9 -5.3l-7.5 0l-2.3 4.3l-0.3 1.9l-1.5 1.8l-3.1 2l-1.2 2.9l0.5 1l0.2 1.5l-2.9 4.4l-1.4 0.2l-2 -0.3l-2.1 -1.2l1.3 -6.1l0 -3.6l0.5 -1.4l2 -2.8l2.6 -2l1.3 -0.4l0.8 -1.4l0.5 -1.7l1.2 -6.4l-0.5 -1.1l0.2 -3.4l0.7 -4.6l1.7 -1l0.2 -3.8l-0.6 -1.8l-2.2 0.2l-3.4 2.8l-0.3 1.3l0.2 1.1l-1.7 6.1l-0.8 1.6l-3.1 3.8l0.6 1.3l3.7 -0.3l-0.3 2.9l-1.6 1.6l-4.5 9.9l-1.2 4.2l-0.3 2.7l-2.1 0.6l-2.1 -0.4l-1 -0.7l-22.3 -0.6z"/><path data-id="26057" d="m696.1 847.8l0.1 15l-0.1 14.9l1.3 0l-0.2 29.7l58.6 0.2l0 -1.8l-0.2 -57.9l-14.8 0l-14.8 0l-29.8 0z"/><path data-id="26059" d="m698.5 1085l0.2 52.5l2.4 0l0 2.9l0 1.7l0 2.1l0 2.2l0 1.9l7 -0.4l39 -1.1l4.8 -0.2l4.9 -0.1l-0.4 -61.6l-14.3 0.1l-28.9 0.4l-14.6 -0.4z"/><path data-id="26061" d="m178.5 279l-0.2 47.3l39 -0.1l0.1 -78.5l15.9 0l0 -15.9l12.7 -0.1l0.3 -1.4l0.6 -4.7l4.1 -1l0.8 -1l2.4 -3.9l1.5 -1.4l0.8 -1.3l1.1 -3.8l0.6 -3.4l0.1 -2l0.4 -1.3l1.2 -0.7l5.3 -3.3l1.2 -2.9l0.1 -1.1l-0.3 -1.1l1 -2.2l1.2 -1l1.1 -0.3l1 0.3l0.8 1.3l1.2 -0.6l1 -1.2l-1.3 -2.2l0.1 -3l0.6 -2.7l1 -1.8l-8.7 -0.2l-0.1 -15.9l-26.7 0l-7.7 7.4l-1.4 0.7l-3.1 0.6l-1.7 1.2l-2.1 1l-2 0.2l-2 1.2l-3.4 2.6l-3.8 3.5l-4.3 5.5l-1.7 1l-1.5 -0.1l-3.1 1.7l-4.2 4.8l-5.1 2.6l-1.8 2.6l-1.3 4.9l-1.3 3.1l-1.1 1.8l0.1 48.9l8.6 0l-0.1 15.6l-15.6 -0.1z"/><path data-id="26063" d="m864.7 795l0.9 4.9l1.7 1.4l0.9 1.2l0.1 10.6l43.6 -1.4l63.9 -2.6l-0.7 -8.5l-0.6 -1.2l-0.2 -1.6l0.1 -2.2l-2 -10.8l-1.3 -1.1l-0.4 -1.2l0.6 -1.3l-1.5 -2.7l-2.9 -2.7l-1.9 -5.9l-2 -5.2l-2.3 -4.2l-1.3 -2.9l-0.9 -1.1l-2.3 -1.9l-2.3 -0.4l-1.2 -2.5l-5 -2.4l-5.3 -1.4l-1.7 -1l-3.3 -3.4l-1.6 0.2l-2.3 1.3l-1.2 -0.2l-1.4 -0.5l-2.9 3l-1.1 0.4l-3.2 0.2l-2.8 5.1l-1.5 1.6l-2.6 0.9l-3.6 -0.4l-1.6 0.4l-1.8 1.4l-1.3 0.6l-4.4 1.3l-1.9 -0.2l-3.9 0.4l-4.3 1.3l-0.9 3l-1.7 3.1l-2.9 2.7l-1.6 0.8l-7 -0.2l-4 -0.1l0.8 1.8l3.4 0.8l3.1 0.9l2.1 0.9l-2 4.4l-3.1 1.7l-2.5 1.7l-3.1 1.2l-0.7 -2.3l1.2 -3.7l-2.3 -1.4l-2.1 4.5l0.1 2.6l-1.8 3.1l-0.2 2.8l-1.9 2.9l-2 3.7z"/><path data-id="26065" d="m726.5 966.9l0 17.7l0.2 26.5l0.1 14.8l29.4 -0.5l28 0l0 -14.2l-0.5 -15.5l-0.7 -14.5l-1 -15.6l-25.7 0.1l0 1l-18.6 0.1l-11.3 0z"/><path data-id="26067" d="m637.8 907.4l0 15.2l0.1 14.6l0.3 29.7l29.4 -0.2l29.6 0.1l0 -59.5l-29.7 -0.2l-14.8 0.1l-14.9 0.1z"/><path data-id="26069" d="m815.9 666.7l0.3 60.6l39.8 -0.3l1.4 -6l0.1 -2.2l0.5 -2.9l1.4 -3.6l1.6 -2.3l2 -2.1l1.1 -0.5l2.6 -0.6l2.1 0.2l2.2 1l0.4 1.4l1.6 -0.8l1.3 -3.2l0.6 -1.2l1.6 -1.3l3.5 -4.5l1.2 -0.8l1.5 0l1 0.5l1.4 -1.9l-0.3 -3.1l0.2 -2.5l1.5 -5.6l-0.4 -1.8l-0.3 -2.5l0 -2.7l1.2 -7.3l-0.1 -4.5l-71 0.5z"/><path data-id="26071" d="m178.2 326.4l0 15.8l0 42.4l5.3 3.1l2 1.2l10.3 6l0.8 1.3l1 0.5l1.9 0.7l1.1 0.8l1.3 -0.4l0.1 -1.2l1.1 -0.4l1.5 0.1l-0.5 1.3l0.2 1.4l1.6 -0.4l1.2 -0.1l1 -0.7l1.5 -0.7l1.2 0.1l1.2 0.8l0.4 1.6l1 -0.6l1.4 -0.3l1.9 0.6l1.1 0.6l0.4 1l0.1 1.1l0.9 1l3.1 1.6l1.7 -0.6l1.2 0l0.3 -1.8l0.5 -2.2l0.7 -1.2l1 0.5l0.5 1.6l1.1 -0.2l1 -0.9l1 -0.7l1.3 0.1l1.7 0.2l1 -1.1l1.3 -2.77556e-17l1.1 -0.1l1 1.2l0.7 2.3l0.9 1.3l1.7 0l0.6 -1.2l1.2 -0.3l1.4 0.5l0.6 1.3l1.3 -0.1l1.7 1.1l0.3 1l1 0.6l1.6 -1.1l1 0.2l1.4 -1.4l6.2 3.4l1.8 1.5l1.4 0.1l1.1 0.6l1.1 0.9l1.1 -0.7l1.9 -0.4l1.1 -0.4l1.2 -0.6l0.4 1.2l0.5 1.1l1.2 0.5l1.1 -0.3l1.1 0.3l1.7 0.2l0.6 -1.4l1 0.2l1.5 0.9l0.7 1.1l1.1 0.5l2.1 0.6l2.4 1.6l1.2 0.9l0.1 -58.6l0.1 -31.4l-70.3 0l-39 0.1z"/><path data-id="26073" d="m665.7 787.8l0.5 60l29.9 0l29.8 0l0.2 -60.3l-60.3 0.3z"/><path data-id="26075" d="m712 1026.1l0 14.7l0.2 14.8l0.7 14.8l0.2 15l28.9 -0.4l14.3 -0.1l14.4 0l8.5 -0.1l6 0.4l0.1 -30.1l0 -29.5l-1.2 0l-28 0l-29.4 0.5l-14.8 0.1z"/><path data-id="26077" d="m581.3 1026.2l-0.1 15l0.3 44.2l29.2 -0.2l29.4 -0.1l-0.4 -29.4l-0.3 -28.1l0.1 -1.3l-29.2 -0.3l-1.3 0l-27.7 0.1z"/><path data-id="26079" d="m635.3 613.4l-0.1 52.7l60.3 0.2l0.5 -61l-55.5 -0.3l-4.5 1.6l1.4 4.8l-2 2z"/><path data-id="26081" d="m578.1 877.5l0 15.1l0.3 29.8l0.8 19.9l0 6.3l0 3.6l0 15l14.9 0l14.7 0l29.5 -0.3l-0.3 -29.7l-0.1 -14.6l0 -15.2l0 -15l0 -15.1l-29.9 0l-1.3 0l-28.5 0.2z"/><g data-id="26083"><path d="m345.5 144.1l1.7 1.1l2.7 0.5l2.1 0l1.8 -2l-0.7 -1.1l-4 -0.4l-1.8 1.1l-1.8 0.8z"/><path d="m239.5 166.7l-1.5 1.4l26.7 0l0.1 15.9l8.9 0l1.9 -1.7l2.2 0l3.9 -1.3l3.9 -4.3l1.8 -2.9l1.1 -0.7l1.5 -0.4l3.2 -4.7l1.4 -1.7l5.5 -2l3.4 -3l2.6 -1.8l1.3 -0.3l1.5 0l1 -1.5l-1.2 -2.4l-1.9 -1.3l-0.4 -1.1l0.1 -1.1l1 -2.4l1.9 -0.5l7.4 -1l3.2 0l1.1 0.1l1.7 0.8l1 0.8l1.5 0.3l1.9 -1.4l4.4 -1.2l1.7 -1.2l1.1 -0.1l2.6 0.9l1.1 -0.1l-0.5 -7.1l-1.9 -1.7l-3.2 -2.1l-5.6 -2.3l-2 0.2l-10.1 -0.5l-3.9 -0.7l-6.2 -0.1l-7.7 0.6l-1 0.2l-3.5 1.3l-1.1 -0.2l-6.8 1.2l-1.4 0.5l-3.9 0.5l-4.5 1.6l-0.1 1.3l-1.1 1.2l-1.5 0.9l-5.8 1.4l-2.3 1.9l-2.6 1.6l-8.2 3.5l-3.6 2.4l-5.1 5.8l-1.4 2.3l-0.9 2.6l-2.9 3.7z"/><path d="m145.3 58.8l0.5 1.1l2.8 2.3l-0.8 1.2l4.1 0.3l1.2 1.7l-0.1 1.4l4.4 1.7l4.2 -0.9l2 -1.3l6.4 -3.1l1.5 -0.6l2.7 -0.5l3 -1.7l10.9 -4.4l1.6 -1.7l-6.8 1.9l-2.2 -0.9l-2.9 0.7l-1.3 -0.9l0.2 -2.3l5 -2.8l4.9 -2.7l0.7 -1.4l2.4 -1.4l5.8 -2.2l2.6 0l5 -2.6l2.4 -0.4l6.7 -2.6l6.1 -3l11.3 -8.8l0.6 -1l-0.1 -2.1l-0.3 -1.7l1.4 -1.7l6.9 -5.2l3.3 -3l2 -2.8l1.2 -1.1l1.3 -0.9l2.8 -0.6l1.1 -2.5l-0.5 -2l-3.1 1.5l-1.6 -0.2l-2.8 0.7l-1.2 0.8l-1.1 1.4l-3 0.5l-2.8 -1.8l-3.9 2.3l-4.4 1.4l-5.4 2.9l-2.2 2.3l-0.2 1.2l-1.1 0.9l-1.4 1l-1.3 -0.1l-2.8 1.7l-2 1.7l-2.5 1.4l-0.9 1.1l0 1.7l-1.9 1.4l-2.9 1.5l-3.2 -0.3l-7.2 4.1l-0.1 1.1l-2.5 1.6l-1.6 0.2l-1.7 0l-6.7 3.2l-3 1.8l-9.6 4.6l-10.5 6.1l-4.4 3.9l-0.9 1.1l0.1 1.3l-0.7 1l-2.6 1.3l-1 2.3z"/></g><path data-id="26085" d="m546.5 726.4l0.5 20.8l-0.1 10l0.3 30.2l59.4 0l-0.3 -60.7l-32.1 0.1l-27.8 -0.5z"/><path data-id="26087" d="m869.1 887.9l0 1.7l0.2 29.6l0.3 14.8l0.4 14.1l14.6 -0.4l29.2 -1l14.9 -0.9l-1.6 -44.5l-0.5 -22.4l-14.8 0.2l-0.2 -7.4l-29.2 0.8l0.3 14.9l-13.6 0.4z"/><g data-id="26089"><path d="m577.8 494.8l0.8 1.7l1.9 2.1l0.4 -1.3l0 -2.2l-0.8 -1.8l-2.2 1.4z"/><path d="m566.5 501.7l1.2 3.9l5 7.7l0.9 -4.6l-1.1 -4.3l-2.9 -2.1l-3.1 -0.6z"/><path d="m543.8 555.5l0.6 6.3l1 1.7l1.9 1.5l2.2 2.6l0.8 1.4l2 1.4l2.6 -1.2l0 -1.8l-0.7 -1.4l-0.2 -1.1l0.5 -4.6l0.5 -1.4l0 -3.1l-1.6 -2.3l-2.1 -0.8l-3.4 -0.5l-1.4 -0.2l-1.9 1.3l-0.7 2.1z"/><path d="m542.9 614.8l-0.2 4.7l17 0l15.2 0.7l21.8 -0.1l0.4 -2.7l-0.6 -3.7l-1.2 -3.7l-0.1 -3.1l0.4 -4.4l0.4 -1.7l0.7 -1.2l1.8 -5.4l2.9 -1l0 -8.4l-0.2 -3l-2.1 3l-1.6 1.3l-1 -0.2l-1 -1l1.7 -3.4l0.7 -1.6l1 -0.4l1.6 -1.5l1.2 -1.5l0.3 -3.3l0.9 -2.1l1.3 -0.5l0.7 2.1l1 0l0 -2.8l-0.9 -1.6l-1.2 -0.5l-3.3 -7.5l-0.6 -2.5l1.8 -3.8l1.2 -0.7l2.1 -0.4l1.1 0.3l0.4 -1l1.2 -1.5l1.9 -1.1l1.3 -2.8l-1.7 -3.7l-1.3 -0.1l-1.3 1.8l-0.4 1.4l-2.7 2.2l-2.6 0.3l-0.8 -1.1l-5.4 6.9l-2.4 5.2l-0.1 1.9l-0.7 2.3l-1.8 2.9l-2.1 1.9l-3.6 1.8l-2.6 5.7l-1.2 1.5l-0.6 2.6l-0.3 3.1l-3.7 5.9l-1 0.7l-2.6 0.9l-2.3 0.4l-1.9 -0.2l-1.3 -0.8l-1.5 -2.6l-3.1 -1.8l-2 -0.1l-1.3 2.5l-1.3 2.4l-1.1 0.9l-0.7 1.1l-0.7 2.6l-0.9 1.5l-1.5 1.1l-2.1 0.1l-1.5 -0.6l-1.2 -0.8l-0.9 -1.5l-2.6 0.8l-1 0.9l-0.5 1.7l-0.2 2l0.2 3.4l0.6 5.4l0 2.3l-0.7 3z"/><path d="m532.3 578.5l0.2 1.4l2.6 1l2.2 -0.4l2.8 -1.5l-1 -1.8l0.1 -1.4l0.9 -1l1.8 0.2l-1.8 -1.9l-3.1 -1.2l-2.5 1l-2 4.4l-0.3 1.3z"/></g><path data-id="26091" d="m756.4 1084.8l0.4 61.6l28.2 -1.1l14.4 -0.6l2.6 0l12.4 -0.5l2.4 0l2.6 -0.2l12 -0.4l-1.3 -60.2l-29.3 1.5l-15.5 0.3l-6 -0.4l-8.5 0.1l-14.4 0z"/><path data-id="26093" d="m782 965.8l1 15.6l0.7 14.5l0.5 15.5l0 14.2l1.2 0l13.5 0.1l9.8 0l35 -1.2l-0.8 -15l-0.8 -14.7l-0.7 -15.2l-0.5 -14.9l-7.5 0.2l-22 0.2l-29.4 0.7z"/><path data-id="26095" d="m568.8 310.9l0 47.1l78.3 -0.1l0 -92.6l-2.4 0.4l-4.1 1.6l-10 5.6l-14 6.1l-3.4 0.8l-4.1 0.3l-5.6 -0.1l-4.7 -0.8l-5.5 -0.3l-5.7 0.6l-4.5 0l-5.5 -0.7l-5.8 -1.4l-2.9 -0.2l0 33.7z"/><g data-id="26097"><path d="m729 408.7l0.9 1.4l1 1.4l0.7 -2l-0.3 -1.3l-1.4 -0.8l-1 1.4z"/><path d="m721.8 406l0 3.6l0.9 1.3l1.7 -1.3l1.1 -1.3l-0.8 -1.3l-1.9 -2.1l-0.9 1.2z"/><path d="m720.4 426.7l1.5 1.9l1.3 0.5l2.2 3l1.8 1.9l0.9 1.7l0.3 1.2l3.2 1.9l1.5 1.1l3.1 4.6l2 1.8l0.2 1.7l0.8 1.3l2.1 1.2l1.9 -0.3l2.3 0.8l2.6 0.3l1.4 0.8l1.6 -0.1l1.5 -0.9l0 -1.3l2.8 -1.9l0.3 -1.9l1.7 -2.4l-5.9 -2.6l-1 -2.3l-1.1 -1.7l-0.1 1.2l-0.2 1.3l-1.4 1.1l-7.6 -3.3l-2.7 -0.9l-3 0.4l-5 -2.2l-1.4 -1l-1.7 -4.6l-0.7 -1.8l-1.8 -2.9l-2.4 -1.4l-1.2 4.1z"/><path d="m568.8 358l0 49.8l2.8 0.5l1.2 -0.4l0.8 -1.5l1 -0.6l3.4 0.3l2.5 1.1l3.4 1.1l2.4 0l3.4 0.9l4.2 -1.2l1.2 -1.2l0.8 -1.8l3.9 -4.5l1.7 -3.9l7.9 -8.9l2.4 -2.1l1.1 -0.6l1.6 -0.4l2.4 0.1l4.2 2l0.8 -1.3l1.6 -1.6l1.9 0.1l2.3 1.1l1.6 2.4l1.8 -0.9l1.3 -1l2.5 -0.1l2.5 1.1l3.6 2.6l2.7 1.2l5.5 0.9l3.1 2.8l5.7 -1.1l1.4 0.2l1.3 0.6l3.4 2.4l1.8 0.7l4.2 0.9l5.2 2.2l1.3 0.8l3.8 3.6l4.5 5.4l2.5 4.5l1.8 1.3l2.9 1.4l0.8 1.1l2.5 1.7l1.3 0.3l0.6 1.6l-0.1 1.4l0.9 1.7l4.8 2.4l5.7 4.1l2.7 -0.3l0.4 -1.7l2 -0.4l-1.2 -3.1l-0.7 -1.4l-1.6 -5.9l2.6 -1.6l-0.7 -2.1l-1.8 -1l-0.8 -1.6l1.2 -3.5l0.9 -1.1l2.4 -0.7l2 -0.1l0.4 -1.1l-1 -7.1l0 -1.8l0.7 -1.4l1.4 -2l1.1 -0.8l1.3 -0.4l1.1 0.5l4.8 4.2l2.8 0l2.8 -1.1l2.4 1.7l1.3 3.1l0.4 2.6l-0.5 2.4l0 1l1.2 0.8l1.4 -0.5l0 -2.9l3.8 -0.2l0.1 1.1l2.5 2.4l2.5 -1.6l1.8 3.5l6.5 4.7l2.9 -1.7l2.9 -2.6l9.4 0l2.1 -2.1l7.5 -0.3l4.6 -1.1l3.3 -0.5l0 -1.2l-15.6 0l0.1 -15.6l-15.5 0l-0.1 -15.6l-93.6 -0.1l-0.1 -15.8l-15.6 0.1l-78.3 0.1z"/></g><path data-id="26099" d="m913.8 946.7l0.9 30l0.5 15l0.2 5.3l0.4 9.9l0.3 9.9l0.1 4.9l7.3 -0.2l2.3 -0.1l4.4 -0.1l4.5 -0.1l8.2 -0.2l-1.7 -3.5l0.2 -4.9l1 -3.8l1.8 -2.9l1.1 -1.4l0.2 -1.2l1.9 -2l1.6 -0.5l3 -0.1l1.5 1.2l0.4 -1.4l-0.8 -1.9l-0.1 -1.7l0.2 -1l-2.9 -2.2l-1 -0.9l-0.1 -1.7l0.9 -2.5l2 -2.2l2 0.3l1.9 -0.6l1.1 -1.7l3.8 -2.8l2.3 -0.1l-2.7 -3.9l-0.1 -2.5l-0.4 -12.2l-0.7 -17.9l-15.8 0.4l-14.7 0.3l-14.9 0.9z"/><path data-id="26101" d="m504.4 722.5l-0.8 1.9l42.9 2l27.8 0.5l0.4 -60.9l-51.9 -0.9l-0.7 2.9l-0.6 2.2l-0.6 1l-0.3 3.1l0 2.4l0.4 3l0 2.4l-0.5 3.5l-2.1 9.7l-3.9 6.5l-2 4.2l-1.4 3.7l-2.1 2.3l-1 3.5l-1.4 3.7l-2.2 3.2z"/><path data-id="26103" d="m287.5 326.3l-0.1 31.4l62.7 0l-0.2 47l31.1 0.1l15.6 0l0.2 -31.3l15.7 0l-0.1 -60.8l-1.4 0.2l-5.9 -0.6l-3.4 1.2l-7 0.5l-6.5 -0.7l-5 -1.6l-2 -1.2l-1.8 -1.8l-1 -1.3l-0.6 -1.6l0.5 -1.7l1.8 -0.8l-0.8 -1.2l-1.3 -3.1l1.4 -1.7l-0.3 -2.4l-2.4 -0.4l-1 -1.2l-3.9 -0.2l-1.1 -0.6l-1.6 -1.6l-0.4 -2.1l0.1 -1l-3.3 -2l-1.3 -0.9l-2.7 -5.5l0.1 -1.9l-6.2 -5.8l-1.2 -1.8l-1 -4.1l-0.6 -5.5l-1.6 -1l-2.5 -3.1l-0.7 -1.3l-1.1 -0.3l-1.2 0.2l-1.3 -0.5l-1.2 -1l-0.2 -1.3l-0.2 -1.7l-0.8 -1l-0.6 1.8l-1.1 1l-2.4 0.3l-1.7 -0.4l-0.9 -1.7l-0.3 -1.9l-0.6 -3.3l-1.9 0.9l-1.3 -0.2l-1.4 -1l0.1 -1.1l-0.8 -1.4l-1.3 -0.2l-2.5 -1.3l-1.7 -0.3l-1.8 1l-4.1 -1.5l-3.2 -3.1l-7 0.1l-3.8 0.6l-2.3 -0.2l-3.5 -0.3l-1.5 -0.7l0 18.9l0 7.9l6.7 0l0 15.7l-15.5 0.1l-0.1 46.9z"/><path data-id="26105" d="m487.6 745.4l0 1.8l0.7 2.6l0.9 1.9l2.3 3.6l0.7 1.5l1.8 3.7l1.9 9.2l0.3 4.9l1.4 5.9l0.3 2.6l0 3.7l49.1 0.7l-0.3 -30.2l0.1 -10l-0.5 -20.8l-42.9 -2l-1.4 3l-2.9 5.6l-1.1 1.7l-2.1 2.4l-6.7 5.3l-1 1.3l-0.7 1.7z"/><path data-id="26107" d="m606.6 787.5l0 60l59.6 0.3l-0.5 -60l-44.3 -0.2l-14.9 -0.1z"/><path data-id="26109" d="m317.6 513.1l0.5 1l0.4 2.4l0.6 1l1.5 0.9l0.2 1.3l1.6 -0.4l0.4 -1l1.1 0.1l2.2 -0.2l1.2 -0.4l1.3 0l2 0.3l1.5 0.5l1 -0.2l0.4 -1l1.6 -0.6l0.6 -1.1l1.8 -2.3l1.3 -0.7l1.1 -1.2l1.2 -0.3l1.9 1.3l2.2 2.4l0.2 1.1l0.3 1.5l0.8 1.7l-0.1 1l-1 1.5l-0.7 1.7l-1.8 2.4l-1.6 1.8l-0.3 1.4l-1 1.6l-0.1 1.7l-1.3 2.1l0 1.1l-0.3 1.7l-0.1 1.1l-1.6 1.1l0.4 1.2l-0.7 1.4l0.1 1.1l-1.2 1.5l-0.7 1.1l0.8 3.6l-0.1 1l1 0.4l1.2 1.5l1.2 0.9l1 0.8l1 0.3l1.1 1l1 1.6l0.4 2.5l1.3 1.3l0.3 1l1 -0.2l2 0.5l1 0.4l1.6 0.6l2.9 1l-1 -1.5l-1.2 -2l-0.2 -1.6l0.3 -1.6l1.1 -2.6l1.9 -3.5l2.8 -3.1l1.8 -1.3l4.6 -5.8l5.9 -8.7l3.3 -3.6l0.2 -2.1l0.7 -1.9l4 -5.9l0.9 -3.5l3.5 -3.5l0.6 -2l1.1 -1.4l1.8 -1.4l1 -1.8l-0.3 -1.1l-0.5 -1.9l1.8 -4.1l1.7 -1.9l2.2 -4.6l3.1 -8.7l-7.9 -0.1l0.3 -62.2l-5.3 -0.1l0 -15.5l-31.1 -0.1l0 15.7l-9.9 0l0 31.5l-18.7 0.1l1.2 0.9l3.1 1.1l0.9 1.1l0 1.7l2.2 1.5l0.9 1.2l0 1.2l-1.8 0.4l-3.4 1.6l0.1 1.1l-0.1 1.6l1.8 1.5l0.7 1.8l0.9 1l0.6 1.3l1.4 0.4l0.4 1l0.2 2l-0.1 1.7l-1 0.8l-0.2 1.7l-0.1 1.2l-1.2 1.1l-1.1 -0.1l-1 -0.4l-1.9 -0.6l-0.5 1.1l0.8 1.2l1.1 0.6l1.4 1.5l0.5 1.1l-0.1 1.1l0.1 1.2l0.2 1.9l0.4 1.4l0.8 1.1l-0.5 1l-0.3 1.5l-1.1 1.4l0.1 1.1l-0.9 1.2l-1 1l-1.4 0.8l-1.6 1.2l-1.3 1.3l-0.8 1.2l0.2 1.9l0.5 1.3l0.9 1.2l0 1l-1.2 0.8l0.2 1.1l-1 1.4l-1.1 0.7z"/><path data-id="26111" d="m726 787.5l-0.2 60.3l14.8 0l14.8 0l0 -2.7l24.9 -0.1l0.3 -15l0.1 -29.6l0 -14.8l-24.9 -0.4l0 2.6l-29.9 -0.3z"/><path data-id="26113" d="m634.6 681.4l0.5 45.4l30.9 0.2l29.4 0.5l-0.5 -48l0.6 -13l-60.3 -0.2l-0.6 15.2z"/><path data-id="26115" d="m830 1083.3l1.3 60.2l6.8 -0.3l2.9 -0.2l2.4 -0.1l2 -0.1l1.2 -0.1l5.6 -0.2l1.2 0l10.1 -0.4l6.3 -0.1l2.4 -0.7l1.3 -0.6l-0.4 -1.6l-1.3 -3.3l-0.7 -3.3l0.2 -3.3l1 -1.7l1.5 -0.6l1.6 -1.3l1.7 -3.8l1.8 -3l1.2 -0.6l0.8 1.5l2.3 -1.7l1.5 -2.3l0.3 -3l1 -3l1.3 -1.8l1.6 -1.2l2 -0.2l2.2 0.9l1.5 -2l0 -1.5l1 -2.1l2.6 -2.5l1.4 -0.2l0.9 -1.2l0.1 -1.6l2.3 -0.2l1.1 -2.2l-0.5 -1.7l-4.2 -3.3l-5.6 -3.4l-2.4 -3.4l-2.5 -0.8l-14.6 0.1l0 1l-14.8 0.4l-13.4 0.3l-1.3 -0.1l-14.7 0.4z"/><path data-id="26117" d="m606.6 847.4l0 29.9l1.3 0l29.9 0l0 15.1l0 15l14.9 -0.1l14.8 -0.1l29.7 0.2l0.2 -29.7l-1.3 0l0.1 -14.9l-0.1 -15l-29.9 0l-59.6 -0.3z"/><path data-id="26119" d="m756 545.2l-0.6 60.7l19.8 0l40.5 -0.3l-0.2 -30.7l1.3 0l-0.3 -22.8l0.2 -7.5l-17.6 0.6l-28.1 -0.1l-15 0z"/><path data-id="26121" d="m494.2 846.7l1.7 6.9l1.7 6.1l1.2 3.6l2.2 6.4l1.5 3.8l8.2 17.2l1.7 3.5l0.6 1.4l3 6.9l0.8 1.8l1.1 3l30.6 0l14.9 -0.1l-0.1 -14.9l14.7 0.1l0 -15.1l-31 -0.1l-0.1 -29.9l-52.8 -0.8z"/><path data-id="26123" d="m547 847.6l0.1 29.9l31 0.1l28.5 -0.2l0 -29.9l0 -60l-59.4 0l-0.2 60.1z"/><path data-id="26125" d="m840.6 949.7l0.2 8.8l0.1 6.2l0.5 14.9l0.7 15.2l0.8 14.7l0.8 15l14.1 -0.7l14.8 -0.6l7.3 -0.3l7.3 -0.2l14.1 -0.5l2.8 -0.1l1.8 -0.1l1.9 -0.1l1.2 0l7.3 -0.2l-0.1 -4.9l-0.3 -9.9l-0.4 -9.9l-0.2 -5.3l-0.5 -15l-0.9 -30l-29.2 1l-14.6 0.4l-14.7 1.2l-14.8 0.3z"/><path data-id="26127" d="m484.4 817l0 2l0.3 2.7l1.1 4.1l1.2 2.9l5.1 10.6l1.3 4l0.8 3.4l52.8 0.8l0.2 -60.1l-49.1 -0.7l-0.8 5.2l-1 3.1l-2.1 4.3l-2.5 3.7l-3.6 4.6l-2.4 3.6l-1.2 3.3l-0.3 2.5z"/><path data-id="26129" d="m755.4 667l0.3 53l0.2 4.9l-0.2 2.6l25.2 -0.2l35.2 0l-0.3 -60.6l-60.5 0.3z"/><path data-id="26131" d="m66.1 263.5l3.2 0l-0.1 31.5l15.5 0l-0.1 15.8l46.9 -0.1l-0.1 31.3l46.8 0.1l0 -15.8l0.2 -47.3l15.6 0.1l0.1 -15.6l-8.6 0l-0.1 -48.9l-1.3 2.2l-1.9 2.1l-1.7 1.2l-1.8 0.9l-1.4 0.4l-3.1 0l-0.7 -1.1l-1.3 0.3l-2.9 2l-3 0.6l-2.4 -0.2l-1.5 -1.4l-1.3 0.3l-1.7 1.4l-3.2 3.5l-4.2 6.3l-3.3 3.3l-2.7 1.8l-15.4 8.4l-5.4 2.4l-2.7 0.8l-4.3 0.4l-2.5 -0.2l-1 -0.6l-1.9 0l-2.7 1.1l-4.3 0.7l-6.2 2.4l-1.9 -0.1l-0.9 -1.1l-2.3 -1l-1.6 -0.4l-5.9 0.5l-8.8 2.2l-5.2 2.6l-2.1 1.5l-5.1 5.5z"/><path data-id="26133" d="m606.3 726.8l0.3 60.7l14.9 0.1l44.3 0.2l0.2 -60.9l-30.9 -0.2l-13.7 0l-15 0z"/><path data-id="26135" d="m755.3 605.9l0.1 61.1l60.5 -0.3l-0.2 -61.1l-40.5 0.3l-19.8 0z"/><path data-id="26137" d="m694.6 559.7l1 15.4l0.3 30.3l59.4 0.5l0.6 -60.7l-45.9 -0.6l-0.1 15.4l-15.3 -0.3z"/><path data-id="26139" d="m517.9 907.5l2.2 6l0.5 2.8l0.1 1.6l0.7 1.3l1.4 5.8l0.6 3.3l0.2 1.4l1.3 11.8l0.1 2.3l0.2 3.8l0.4 4.2l-0.1 4.4l0.1 8.4l0.2 2.8l5.3 -0.1l3.7 0l1.3 0l30.7 0.2l12.3 -0.1l0 -15l0 -3.6l0 -6.3l-0.8 -19.9l-0.3 -29.8l-14.7 -0.1l0.1 14.9l-14.9 0.1l-30.6 0z"/><path data-id="26141" d="m770.3 469.1l0.3 61.2l0.3 14.8l28.1 0.1l17.6 -0.6l45.9 -0.9l15.8 0l-2.3 -3.6l-0.8 -2.1l0 -1.2l3.1 -1.6l0.8 -2.5l-0.8 -1.4l-1.6 -0.5l-2.7 -2l-0.3 -1.1l-1 -1.2l-1.6 -1.2l-4 -5.6l-1.4 -2.5l-1 -0.3l-2.3 2l-3 -2l-1 1l-2.9 0.9l-3.6 -1l-5.6 -3.4l-3 -2.3l-3.7 -2.1l-3.1 -3l-1.9 0.4l-2.3 0l-2.2 -1.1l-1.9 0.2l-2.2 -0.5l-4.4 -2.9l-2.1 -2.1l-2.9 -3.7l-3.5 -3.2l-3.7 -1.3l-4.8 -0.2l-2.5 0.5l-1.4 -0.7l-2.4 -0.4l-1.4 0.6l-2 0.8l-2.5 -0.2l-2.5 -1.2l-1.7 -1.4l-0.9 -1.4l-0.7 -1.9l-0.6 -3.3l0.1 -2.5l-0.3 -1l-1.3 -2l-2.2 -2.1l-2.9 -3.5l-1.9 -3l-1 -1l-6 0.2z"/><path data-id="26143" d="m694.9 679.4l0.5 48l30.4 0.2l30 0l0.2 -2.6l-0.2 -4.9l-0.3 -53l-12.5 -0.6l-47.5 -0.1l-0.6 13z"/><path data-id="26145" d="m755.6 845.1l0 2.7l0.2 57.9l25 0l29.9 -0.7l-0.4 -15l14.7 -0.1l14.8 0l0 -18l-0.4 -11.5l0 -14.8l-14.8 0l0.1 -7.5l-12.3 0l-16.9 -0.2l0.1 -7.5l-14.8 -0.3l-0.3 15l-24.9 0.1z"/><path data-id="26147" d="m927.1 901.4l1.6 44.5l14.7 -0.3l15.8 -0.4l0.7 17.9l0.4 12.2l0.1 2.5l2.9 3.4l2.5 -0.6l1.4 0.5l1.8 1.4l0.8 1.1l1.5 -0.5l1.9 1.2l0.3 2.4l-0.9 2l-1.2 0.1l-1.6 -1.5l-1.9 1.9l0.4 2l-1.3 0.2l-1.8 -0.1l1.1 1.5l0.3 1.1l-1 1l-1.7 0l-1.5 1.5l0.2 1.2l1.1 0.8l1.6 -0.4l1.1 2.4l-1.5 2.8l1.2 0.4l-0.4 6.3l2.5 -2.8l0.6 -1.2l1.6 -1.4l1 -0.8l2 -0.4l1 0.4l1.2 1l2.2 -0.4l1.3 -2.5l1.1 -1.4l1.7 -1.5l0.8 -1.4l3.3 -3l0.6 -1.1l1.1 -4l-0.1 -4.7l2 -6.1l1.3 -2.9l0 -2.7l2 -4.8l0 -1.3l-0.5 -2.5l-1.2 -3.1l-0.2 -1.1l0.4 -2.8l0.7 -2l0.5 -2.6l0.1 -1.2l-0.2 -3.8l0 -1l0.7 -2.4l1.1 -4.3l0.9 -1.7l2.4 -2.5l1.5 -2.5l0.5 -1.8l-0.9 -1.3l-0.5 -1.5l0.2 -1.1l-0.1 -1.3l-4.3 -9.1l-1.7 -4.5l-1.9 -2.5l-0.6 -2.7l-0.4 -4.4l-0.9 -3.1l-0.2 -1.2l-5.2 0.2l-56.4 2.3z"/><path data-id="26149" d="m578.8 1137.5l1.2 0.1l3 0l3.3 0l8.1 0l1.1 0l2.3 0l1 0l2.1 0l11.3 -0.1l10.7 -0.1l6.6 0l3.6 0l2.4 0l1.6 0l1.2 0l1.2 0l0.6 -52.3l-29.4 0.1l-29.2 0.2l0.3 45.4l-1.1 2.2l-2.1 1.4l0.1 3z"/><path data-id="26151" d="m911.6 871.7l0.2 7.4l14.8 -0.2l0.5 22.4l56.4 -2.3l5.2 -0.2l-0.7 -4.8l-1.3 -2.7l-0.5 -2.2l-1.2 -13.8l0.4 -1.8l-0.1 -3l-0.8 -2.5l0.1 -3.4l-0.5 -9.3l0.2 -1.6l-0.1 -1l-1.8 -4.6l-1.5 -5.7l0 -1l-2.5 -7.1l-1 -6.5l-0.5 -1.5l-0.3 -2.2l-0.7 -11.5l0.1 -1.6l-0.2 -2l-63.9 2.6l1.8 60l-2.1 0.1z"/><path data-id="26153" d="m475 342l0 31.5l15.7 0.1l0 47.1l3.9 0l-0.1 24.8l2.5 -0.5l1 -1.3l0.5 -1.4l-0.1 -1.2l0.5 -1.2l1.1 -0.7l1.8 -0.3l0.7 1l3.2 0.1l2.3 -1.5l-0.4 -1.3l0.7 -5.2l2.1 -3.2l1 -9.7l1 -1.6l4.7 -4.8l2.9 -1.2l2.6 0.5l1.7 -2.4l1.5 -0.7l1.5 0l4.6 1.7l1.2 -0.1l3.4 -1.8l3.6 -0.4l2.8 0.2l2.6 0.6l6.5 2l5.6 2.6l4.2 2.8l1.3 -0.2l-0.9 -1l-1.1 -0.8l0 -1.1l0.4 -1.8l1.7 -1.9l2 -1.5l1.3 -0.2l2.1 0.1l0 -49.8l0 -47.1l-62.5 -0.2l0 31.5l-31.3 -0.2z"/><path data-id="26155" d="m755.8 905.7l0 1.8l0.5 58.4l25.7 -0.1l29.4 -0.7l-0.9 -28.8l0.1 -31.3l-29.9 0.7l-25 0z"/><path data-id="26157" d="m839.3 824.4l0 6.2l0.1 15l0 14.8l0.4 11.5l0 18l29.3 -0.3l0 -1.7l13.6 -0.4l-0.3 -14.9l29.2 -0.8l2.1 -0.1l-1.8 -60l-43.6 1.4l-0.1 -10.6l-1.6 2.2l-2.2 1.5l-1.8 -1.1l-1.3 -0.7l-1.5 1.8l-3.4 3.5l-1.2 1.6l-1.1 1.5l-3.4 5l-5.1 6.2l-4.4 2.4l-2 -1.9z"/><path data-id="26159" d="m507.4 1054.3l-1.1 1.9l17.7 0l0.1 29l14.4 0.1l43.1 0.2l-0.3 -44.2l0.1 -15l-63.6 0.2l-0.4 1l-1 1.9l0.1 1.2l-1.6 6.1l-3.1 8l-4.3 9.6z"/><path data-id="26161" d="m785.4 1055l-0.1 30.1l15.5 -0.3l29.3 -1.5l14.7 -0.4l1.3 0.1l13.4 -0.3l-0.3 -14.9l-0.2 -14.9l-0.5 -14.7l-0.5 -14.5l-14.1 0.7l-35 1.2l-9.8 0l-13.5 -0.1l0 29.5z"/><path data-id="26163" d="m857.7 1023.7l0.5 14.5l0.5 14.7l0.2 14.9l0.3 14.9l14.8 -0.4l0 -1l14.6 -0.1l2.5 0.8l2.4 3.4l4.9 3.4l4.9 3.3l0 -3.8l-0.2 -1.5l2 -2l1.6 -2.1l3 -0.4l1.5 -6.3l-1.6 -8.3l0.3 -4.7l0.4 -5.4l2.1 -4.4l1.5 -4.3l2.4 -3.8l1.9 -1.5l5.7 -2l3.7 -0.5l3.6 -1.2l1.7 -1.3l2.7 -0.8l-0.6 -1.2l1.2 -2.5l2.6 -1.8l1.2 -2.2l0.3 -1.7l0.3 -1.3l1.6 -6l-7.3 0.1l-5 0.2l-4.8 0.1l-2.3 0.1l-7.3 0.2l-7.3 0.2l-1.2 0l-1.9 0.1l-1.8 0.1l-2.4 0.1l-14.5 0.5l-6.4 0.2l-8.2 0.3l-14.8 0.6z"/><path data-id="26165" d="m574.7 666l-0.4 60.9l32.1 -0.1l15 0l13.7 0l-0.5 -45.4l0.6 -15.2l-60.4 -0.1z"/></svg>
