<?xml version="1.0" encoding="UTF-8"?>
<!DOCTYPE svg PUBLIC '-//W3C//DTD SVG 1.1//EN' 'http://www.w3.org/Graphics/SVG/1.1/DTD/svg11.dtd'>
<svg viewBox="0 0 1000 1148.12" xmlns="http://www.w3.org/2000/svg">
  <g data-id="001">
    <path d="m815.679 605.672l0.231 61.05l71.007 -0.469l1.217 -4.95l-0.056 -1.482l-0.591 -2.845l-0.244 -5.348l0.136 -2.394l0.876 -3.701l2.256 -4.065l1.575 -6.391l0.43 -4.314l-1.341 -1.383l-0.817 -1.318l-0.829 -2.967l-0.123 -1.543l0.346 -6.773l-0.641 -6.415l-1.722 -2.182l-0.851 -1.893l-70.86 -0.616z" />
  </g>
  <g data-id="003">
    <path d="m412.423 312.667l0.06 60.803l62.527 0.065l0.025 -31.534l31.281 0.242l0.004 -31.516l62.462 0.199l0.048 -33.71l-1.669 -0.133l-5.764 1.126l-3.7 1.432l-5.168 0.581l-5.237 1.101l-4.653 1.789l-3.201 0.579l-1.534 -0.078l-3.269 -3.257l-2.921 0.63l-3.291 2.815l-20.22 13.817l-5.062 2.697l-5.841 2.586l-2.843 -0.54l-1.171 0.092l-1.58 1.583l-0.256 1.225l-1.38 2.014l-3.736 3.538l-4.094 3.257l-3.552 4.373l-2.857 -1.254l0.263 -1.504l-0.307 -2.621l-1.083 0.639l-0.318 1.012l-0.854 1.149l-1.153 -0.138l-1.214 -1.357l0.108 -1.136l0.555 -1.524l1.121 -1.529l0.378 -1.684l0.213 -2.826l-3.184 -4.876l-2.256 0.739l-3.087 0.265l-1.709 2.018l0.924 5.872l0.741 1.527l1.522 0.922l-0.331 4.794l-0.293 1.542l0.3 1.485l-1.465 2.963l-1.553 -1.139l-2.53 -4.198l-0.637 -1.302l-1.777 -0.703l-2.293 0.007l-2.422 0.244l-1.955 2.006l-0.657 1.099l-0.269 1.985l-0.632 2.134l-2.676 0.672l-1.582 0.013l-3.128 -0.574l-1.095 -0.768l-0.007 -1.715l-0.639 -1.364l-1.83 -1.385l-2.996 0.285l-2.417 -1.36l0.107 -1.269l-2.076 -5.55l-0.211 -1.253l-1.552 -1.821l-3.968 -1.115l-1.051 -0.15l-1.593 1.444l-2.015 1.024l-3.905 0.838l-2.683 2.129l-1.099 1.358l-1.132 0.174z" />
  </g>
  <g data-id="005">
    <path d="m519.235 1022.27l-1.539 4.166l63.608 -0.243l27.67 -0.121l-0.04 -29.38l-0.256 -29.453l-14.707 0.007l-14.891 -0.017l-12.311 0.119l-30.686 -0.154l-1.292 0.01l-3.687 0.034l-5.287 0.103l0.127 2.996l0.13 5.188l-0.227 4.647l-0.92 4.703l-1.326 3.311l-0.301 1.228l0.429 7.287l-0.308 1.929l-0.899 3.128l-0.67 4.232l-1.133 10.132l-1.482 6.15z" />
  </g>
  <g data-id="007">
    <path d="m815.435 574.961l0.244 30.68l70.878 -0.328l0.074 -3.891l-4.036 -0.986l-5.14 -2.979l-1.328 -2.77l-2.588 -1.408l-0.965 -1.085l-0.728 -1.403l-0.607 -2.013l-0.786 -6.705l1.382 -1.73l0.961 -1.411l-1.885 -1.529l-0.978 -2.691l1.514 -3.39l1.031 -1.16l4.315 -2.255l3.971 1.432l1.232 2.061l2.168 1.603l4.76 1.632l1.771 1.035l2.057 0.538l0.005 -2.598l-0.696 -1.176l-1.787 -3.153l0.065 -1.16l-0.93 -3.773l-1.2 -1.524l-1.319 -5.282l-0.109 -1.55l-2.311 -1.671l-1.357 -2.55l-1.4 -0.266l-1.019 -1.676l-0.106 -1.717l-1.593 -3.756l-16.519 -0.667l-45.888 0.896l-0.211 7.544l0.334 22.809l-1.275 0.025z" />
  </g>
  <g data-id="009">
    <path d="m623.638 601.232l-2.054 3.848l7.529 0.044l0.865 5.328l3.313 0.267l1.962 2.719l2.035 -1.962l-1.393 -4.79l4.495 -1.569l55.515 0.277l-0.277 -30.285l-0.99 -15.402l-45.749 -0.204l0.122 -15.537l-20.582 -0.392l0.093 3.24l0.782 1.528l0.439 6.731l0.547 2.947l0.707 1.647l0.062 8.479l-1.396 2.354l-0.384 1.661l-0.124 4.934l0.421 3.502l-2.188 11.93l-1.296 3.395l-2.102 2.955l-0.35 2.358z" />
  </g>
  <g data-id="011">
    <path d="m780.999 727.358l-0.034 28.672l15.111 -0.013l0.071 14.893l17.047 0.121l0.123 -1.32l2.058 -0.911l0.096 -1.97l0.602 -2.085l0.954 -2.177l1.035 -0.258l1.659 -2.068l0.981 -1.556l2.398 -1.302l5.148 0.663l3.009 0.021l2.123 -0.634l2.356 -2.206l4.335 2.212l1.637 -0.942l-0.972 -4.605l1.029 -2.72l3.69 -2.787l3.627 -0.657l2.487 0.261l2.134 -0.358l-0.793 -2.229l-0.115 -1.681l0.419 -1.308l1.865 -2.529l0.669 -3.193l-0.15 -1.232l0.146 -5.077l0.315 -1.326l-39.818 0.301l-35.243 0z" />
  </g>
  <g data-id="013">
    <path d="m217.254 247.735l-0.051 78.537l70.307 0.034l0.091 -46.941l15.527 -0.133l0.02 -15.679l-6.661 -0.035l0.023 -7.926l-0.003 -18.94l-2.578 -1.114l-2.083 -0.347l-2.429 0.595l-3.199 1.347l-4.37 0.896l-1.659 0.066l-4.508 3.743l-3.83 4.394l-1.202 3.014l-2.014 3.991l-1.964 -0.235l0.074 -1.648l3.949 -7.156l1.069 -2.539l1.727 -2.42l2.103 -1.96l3.058 -1.823l4.673 -4.506l2.153 -3.399l-1.351 -0.817l-1.46 0.292l-1.481 1.137l-9.645 5.351l-2.143 2.578l-2.455 1.625l-3.628 3.087l-4.899 5.327l-2.406 0.6l-0.489 -2.734l-2.129 0.946l-1.788 3.526l2.747 0.431l-0.426 2.022l-3.718 4.135l-2.325 3.324l-0.574 1.238l-2.071 4.992l-2.672 1.796l-2.509 -1.277l-0.074 -1.499l1.871 -3.266l2.467 -0.746l-1.373 -3.561l-1.154 -3.645l-0.146 -1.01l0.726 -3.439l0.259 -6.483l2.555 -6.816l0.572 -2.875l-12.662 0.092l0.03 15.856l-15.87 -0.005z" />
  </g>
  <g data-id="015">
    <path d="m608.678 967.241l0.256 29.453l0.04 29.38l1.336 -0.015l29.184 0.283l28.39 -0.267l-0.329 -59.284l-29.404 0.154l-29.473 0.296z" />
  </g>
  <g data-id="017">
    <path d="m780.89 800.478l-0.144 29.608l14.756 0.272l-0.123 7.456l16.851 0.247l12.35 0.049l-0.056 7.456l14.848 0.016l-0.083 -14.965l0.008 -6.176l-3.946 -3.75l-3.162 -1.381l-5.525 -1.729l-2.167 -5.595l-1.525 0.337l-2.745 4.648l-5.622 -3.298l-1.549 -1.485l-3.725 -7.385l-1.24 -4.023l-0.64 -2.075l-0.209 -1.494l1.324 -0.114l2.005 -2.966l0.379 -1.783l1.058 -11.966l0.907 -6.362l0.279 -2.987l-17.047 -0.121l-0.071 -14.893l-15.111 0.013l-0.118 29.651l0.043 14.797z" />
  </g>
  <g data-id="019">
    <path d="m519.831 635.531l-0.279 4.061l0.634 2.735l2.763 6.841l0.797 2.547l0.594 4.884l-0.386 3.103l-1.214 5.391l51.929 0.93l0.335 -45.924l-15.236 -0.671l-16.989 0.039l-0.052 1.464l-0.553 2.035l-1.406 2.944l-2.123 1.83l-1.867 0.548l-4.89 -0.038l-1.491 1.33l-7.53 2.562l-1.998 1.231l-0.815 1.25z" />
  </g>
  <g data-id="021">
    <path d="m448.873 1137.38l1.094 0l1.454 0l6.674 0.043l13.696 0.058l14.633 0.03l2.805 -0.016l28.65 -0.106l5.788 0.029l0.331 -23.253l0.079 -14.421l-0.015 -14.612l-0.078 -28.967l-17.653 0.041l-2.536 4.362l-2.124 3.16l-4.368 5.915l-3.637 4.894l-2.369 2.723l-0.612 2.206l-1.399 3.468l-0.941 1.945l-2.911 6.013l-3.031 6.256l-1.037 3.129l-2.098 6.327l-2.046 4.277l-2.265 3.456l-7.91 8.876l-4.707 4.266l-7.519 5.8l-5.946 4.104z" />
  </g>
  <g data-id="023">
    <path d="m640.15 1085.12l0.181 52.308l2.307 0.032l5.106 -0.012l4.505 0.017l3.066 0.02l6.137 -0.021l10.452 -0.041l8.324 0.104l1.404 -0.031l3.633 -0.023l13.402 -0.05l-0.162 -52.457l-58.354 0.154z" />
  </g>
  <g data-id="025">
    <path d="m639.494 1026.34l-0.06 1.283l0.295 28.082l0.421 29.409l58.354 -0.154l14.607 0.354l-0.24 -14.951l-0.682 -14.764l-0.208 -14.833l0.014 -14.709l-14.669 -0.048l-29.442 0.063l-28.39 0.267z" />
  </g>
  <g data-id="027">
    <path d="m523.666 1137.41l1.062 0l4.851 -0.042l6.36 -0.055l5.169 0.007l2.984 0.003l2.692 0.003l6.202 0.094l2.049 0.017l10.763 0.072l1.727 0.014l10.447 0.049l0.686 -3.055l2.129 -1.356l1.08 -2.25l-0.344 -45.425l-43.09 -0.248l-14.373 -0.115l0.015 14.612l-0.079 14.421l-0.331 23.253z" />
  </g>
  <g data-id="029">
    <path d="m628.287 538.701l0.14 4.871l20.582 0.392l-0.122 15.537l45.749 0.204l15.322 0.319l0.062 -15.418l0.202 -15.515l-28.994 -0.394l-0.035 3.618l-4.589 -0.196l-2.158 -3.16l-0.47 -3.545l-2.889 -4.365l-6.317 -0.193l0.068 -5.556l-5.954 -0.599l-4.849 1.697l-1.778 0.033l-1.62 0.658l-3.242 3.122l-2.069 1.512l-1.35 2.018l-1.348 0.722l-1.971 0.247l-2.259 0.162l-2.036 1.738l-1.383 1.657l-2.556 1.998l-2.013 2.12l-2.124 6.316z" />
    <path d="m627.578 441.861l2.14 1.705l2.259 -1.364l0.951 -3.41l-1.189 -3.923l-2.021 0.853l-2.14 6.139z" />
    <path d="m611.316 432.674l-0.945 5.668l3.091 3.571l5.582 2.216l1.546 -1.896l0 -3.623l-5.839 -4.58l-3.435 -1.356z" />
    <path d="m598.128 474.114l0.909 2.167l7.633 2.465l2.561 -0.505l1.357 -2.536l1.528 -0.653l1.095 -0.636l2.24 -2.355l0.54 -2.062l-0.403 -5.523l-1.274 -2.176l-0.414 -1.104l-0.292 -1.909l0.413 -1.761l1.097 -1.337l-0.017 -1.235l-0.578 -3.742l-1.514 -1.454l0.26 -1.422l1.394 -0.696l-0.451 -1.462l-2.994 0.707l-1.297 0.012l-1.016 -0.182l-0.726 -1.048l-2.109 -0.529l-0.085 1.755l0.249 3.526l-0.897 3.448l-1.426 1.906l-2.138 2.135l-0.505 1.239l-0.551 4.266l0.543 1.871l0.054 1.491l-0.516 1.295l-1.399 1.333l-1.27 4.711z" />
    <path d="m589.16 449.452l0.617 6.956l3.084 0.11l2.852 -4.637l-0.314 -3.684l-4.62 -0.734l-1.619 1.988z" />
  </g>
  <g data-id="031">
    <path d="m710.222 529.092l-0.202 15.515l45.931 0.567l14.988 0.002l-0.343 -14.786l-0.33 -61.246l5.971 -0.2l-1.38 -1.367l-6.867 -1.791l-2.429 -1.52l-4.978 -1.981l-5.854 1.576l-2.983 -1.391l-1.669 -1.087l-1.731 0.04l-1.84 2.551l-2.43 0.451l-1.721 -1.209l-2.835 -1.993l-5.103 -3.588l-1.788 -1.463l-2.538 -2.113l-3.883 -2.019l-5.011 -3.279l-4.338 -1.63l-0.302 -1.271l-4.251 -1.786l-0.363 -2.046l-0.91 -1.667l-0.561 42.174l0.049 15.442l-0.008 15.697l-0.291 15.42z" />
  </g>
  <g data-id="033">
    <path d="m800.542 383.874l-0.371 2.531l2.104 2.031l2.791 1.93l-0.07 -2.929l-1.203 -1.278l-0.505 -1.737l-2.746 -0.548z" />
    <path d="m647.115 265.276l0.004 92.604l15.554 -0.053l0.102 15.785l93.566 0.05l0.052 15.571l15.516 0.021l-0.056 15.571l15.633 -0.043l-0.012 1.228l1.113 0.966l1.871 1.023l1.289 -0.641l7.808 2.116l2.635 -0.434l1.415 -1.019l4.117 0.294l3.863 1.334l1.302 -1.355l3.72 -0.462l2.023 1.567l2.301 1.129l1.366 2.037l1.586 -0.385l1.832 -0.307l0.887 1.457l1.865 0.756l2.156 0.235l3.257 -1.066l1.223 0.065l1.693 0.64l3.965 -0.235l3.752 -1.81l3.179 2.367l6.141 2.939l2.65 0.603l4.434 -1.091l1.137 -0.894l0.827 -1.025l2.725 -7.082l1.947 -2.819l-0.927 -2.112l-1.774 -0.608l-4.756 -2.12l-0.991 -1.784l-0.315 -2.87l-0.479 -1.921l-0.857 -1.983l-1.411 -0.543l-0.902 -1.44l-0.439 -2.452l-0.653 -1.099l-2.161 -0.085l-2.09 -1.061l-1.276 -1.123l-1.177 -0.314l-3.271 0.666l-5.334 -0.56l-1.99 0.421l-0.438 1.301l-4.084 0.297l-1.977 0.209l-1.021 -0.453l-1.608 -1.523l-2.441 -1.194l-1.453 0.893l1.439 5.434l1.994 3.021l2.844 0.939l1.068 3.516l-0.005 2.442l-1.394 2.547l-2.201 1.511l-3.016 -1.191l-1.492 -3.579l-1.905 -0.604l-2.852 5.504l-4.035 -0.691l-1.005 -2.258l-2.822 -1.151l-0.979 -2.043l-1.549 0.033l-1.549 0.218l-3.213 -0.898l-2.068 -2.117l-2.721 -1.836l-2.979 -4.394l-1.817 -1.486l-0.767 -1.666l0.406 -1.313l0.977 -1.712l1.178 -1.14l1.649 -1.047l1.519 -1.086l-4.228 -2.612l-3.613 -0.053l-1.351 -0.783l-1.641 -3.263l-1.469 -2.048l-5.823 -0.275l-3.127 2.811l-3.04 0.557l-3.8 -2.314l0.774 -3.01l-0.491 -2.507l2.005 -3.173l1.702 -1.436l4.592 -0.624l2.904 0.4l0.907 1.261l2.196 -1.062l1.203 -0.135l2.116 -1.509l1.29 -2.759l-2.223 -2.116l-0.508 -8.458l1.672 -1.257l-1.608 -2.723l-2.471 -6.372l-0.908 -8.386l2.642 -9.359l1.724 -6.164l-0.837 -2.45l-1.375 -2.269l-1.312 -0.381l-1.699 0.708l-1.624 0.381l-1.424 -0.127l-2.036 -2.361l-4.048 1.09l-3.536 6.009l-1.228 1.046l-1.443 0.405l-2.149 0.003l-4.042 -1.31l-1.544 -1.008l-4.527 -0.639l-2.593 1.789l-3.192 -0.333l-3.107 2.189l-2.27 3.915l1.008 0.843l-0.034 1.612l-0.883 2.349l-1.156 1.206l-2.693 -1.092l-1.289 0.204l-5.968 3.746l-3.974 0.909l-1.618 -0.297l-0.602 -1.685l-0.393 -1.328l0.636 -1.529l-1.101 -2.998l-1.067 -2.743l-1.815 -2.358l-2.856 0.475l-3.066 -0.988l-1.405 0.684l-4.206 2.84l-5.723 2.674l-3.866 1.324l-3.671 0.389l-1.801 -0.832l-0.732 -2.1l-1.459 -1.756l-1.702 0.571l-2.293 0.249l-2.718 -0.382l-2.405 -2.322l-0.339 -1.621l-1.265 0.336l-1.004 1.294l-1.768 0.722l-5.715 -0.621l-1.298 -0.602l-1.02 -0.842l-2.009 -2.957l-0.637 -1.958l-0.149 -2.137l0.397 -1.145l3.232 -1.855l-0.036 -1.947l-0.516 -2.715l-0.496 -2.334l-0.197 -3.535l0.194 -4.369l0.901 -9.118l-0.223 -1.756l0.32 -2.31l0.919 -2.735l1.567 -2.893l2.508 -3.125l4.492 -4.377l-1.633 -0.612l-3.104 0.081l-2.466 0.58l-3.379 1.603l-3.407 0.47l-13.677 -1.054l-8.099 1.446z" />
  </g>
  <g data-id="035">
    <path d="m665.911 726.931l-0.176 60.868l60.308 -0.292l-0.258 -59.92l-30.43 -0.155l-29.443 -0.499z" />
  </g>
  <g data-id="037">
    <path d="m697.205 907.392l-0.024 59.451l29.272 0.102l11.293 0.037l18.575 -0.052l-0.512 -59.381l-58.603 -0.156z" />
  </g>
  <g data-id="039">
    <path d="m695.904 605.394l-0.452 60.962l47.456 0.059l12.541 0.615l-0.137 -61.107l-59.408 -0.528z" />
  </g>
  <g data-id="041">
    <path d="m465.417 470.729l-2.49 1.105l2.576 2.7l3.8 3.863l1.56 5.519l1.486 0.212l1.858 -2.547l0.223 -1.061l-0.743 -2.017l-2.229 -2.124l-2.712 -3.706l-1.44 -1.33l-1.889 -0.614z" />
    <path d="m453.643 489.029l-0.452 2.26l0.932 2.692l2.382 2.279l1.657 -1.808l-0.884 -3.562l-1.527 -2.162l-2.109 0.301z" />
    <path d="m381.04 404.753l0.022 15.512l5.282 0.055l-0.264 62.167l7.904 0.125l3.7 -6.829l1.37 -1.878l3.347 -6.597l3.074 -4.559l5.35 -3.561l2.22 -0.75l1.488 -1.668l0.533 -1.039l4.487 -1.334l-1.363 -1.839l1.089 -2.513l1.101 -2.714l-1.186 -0.951l-0.196 -2.366l0.731 -2.264l-0.09 -4.005l0.176 -1.966l0.674 -1.684l1.524 -2.217l1.05 -0.537l1.566 -0.295l1.727 1.285l2.079 3.782l0.851 3.297l0.035 4.668l0.764 2.333l-0.304 4.361l-0.594 1.592l-0.272 2.516l0.405 1.672l1.447 0.817l0.306 1.247l0.054 1.774l2.839 -3.726l2.885 -0.364l2.12 -2.089l1.093 -0.343l2.303 -0.076l4.766 -1.863l-0.384 -1.207l0.395 -2.287l2.104 -2.745l-0.241 -1.49l2.781 -2.604l1.968 -2.596l1.554 -3.023l-0.167 -1.848l-0.955 -1.48l-0.24 -4.428l3.214 -2.266l1.101 -0.094l2.638 3.415l10.308 2.667l1.689 -1.689l-0.086 -3.006l0.928 -1.476l1.524 -1.379l1.28 -0.116l1.263 -1.522l1.234 -2.454l1.947 -0.308l1.763 0.722l1.517 1.12l1.059 1.358l0.427 1.38l0.169 3.229l-1.325 3.029l-1.361 0.725l-1.164 2.459l0.437 1.582l-0.98 1.619l-1.682 0.537l-0.612 1.196l0.611 1.128l-0.815 1.838l-1.783 0.512l-1.808 -0.711l-2.358 -0.477l-0.485 3.31l0.22 2.843l-1.771 2.691l-1.929 0.654l-1.089 1.509l0.277 1.73l0.448 1.546l-1.313 1.852l-1.614 0.715l-2.009 -0.543l-1.324 1.243l-0.301 1.185l0.045 1.647l1.223 3.379l1.594 0.184l0.812 1.466l0.195 1.021l2.633 2.244l2.21 1.017l1.901 -0.403l1.168 0.891l0.872 1.155l-0.01 -2.462l-1.37 -6.917l0.938 -1.395l1.14 -0.471l2.21 0.734l1.104 -2.929l-0.134 -4.098l0.613 -1.252l1.288 -0.804l3.647 1.485l1.018 -0.49l1.014 -1.78l0.246 -2.81l0.614 -2.003l1.757 -1.171l2.272 1.365l0.872 -1.935l1.625 -0.416l0.865 -24.493l-3.889 0.005l0.013 -47.11l-15.672 -0.093l-62.527 -0.065l-15.661 -0.01l-0.172 31.329l-15.61 -0.037z" />
  </g>
  <g data-id="043">
    <path d="m285.199 434.127l0.404 1.861l1.975 1.296l1.064 0.253l0.533 2.026l1.15 1.022l1.785 0.127l2.686 0.758l1.217 -0.327l1.036 -1.198l1.136 -1.38778e-17l1.691 -0.577l1.317 0.047l1.395 -0.581l1.656 2.238l0.218 1.069l-0.694 1.322l1.198 0.462l1.233 0.537l0.44 1.039l1.124 -0.034l1.292 0.178l1.19 -0.12l1.572 0.199l1.632 -0.234l1.116 0.859l1.012 -0.1l1.205 -0.13l1.115 0.777l1.149 0.849l-0.023 1.532l1.104 1.825l1.082 0.857l18.695 -0.144l0.027 -31.521l9.937 -0.001l0.038 -15.659l0.187 -46.969l-62.686 0.006l0.07 58.518l1.519 -0.075l1.023 0.87l-0.684 1.207l-0.463 1.107l-0.038 1.31l0.521 2.438l2.23 0.417l1.252 1.003l-0.15 1.93l-1.229 0.43l-0.48 1.181l-1.187 1.026l-1.036 1.627l-1.76 1.448l-0.885 1.044z" />
  </g>
  <g data-id="045">
    <path d="m667.555 966.791l0.329 59.284l29.442 -0.063l14.669 0.048l14.752 -0.079l-0.109 -14.811l-0.222 -26.492l0.036 -17.733l-29.272 -0.102l-29.626 -0.052z" />
  </g>
  <g data-id="047">
    <path d="m662.009 478.218l-0.137 1.097l0.532 5.284l0.778 3.171l2.607 7.966l2.35 3.151l3.577 4.013l5.741 2.368l1.751 -1.065l7.364 1.329l1.131 2.16l0.052 1.236l-0.414 1.728l-5.405 3.049l-7.884 1.649l-1.322 0.969l-1.285 -0.045l-1.462 -0.46l-5.144 -0.517l-0.068 5.556l6.317 0.193l2.889 4.365l0.47 3.545l2.158 3.16l4.589 0.196l0.035 -3.618l28.994 0.394l0.291 -15.42l0.008 -15.697l-0.049 -15.442l-0.214 -42.357l-1.2 0.68l-1.196 0.251l-2.648 -1.177l-2.547 1.583l1.668 1.936l-0.196 1.535l-0.93 1.575l-1.341 0.922l-5.175 0.426l-3.247 -1.31l-5.424 0.368l-1.782 -1.233l-1.705 -0.536l-7.095 0.007l-1.537 -0.593l0.561 1.652l2.572 0.354l3.933 2.697l1.089 1.509l0.2 1.186l-0.403 2.065l-3.397 4.285l-3.171 2.977l-0.602 1.512l-1.773 1.727l-5.765 2.155l-1.677 1.833l-0.577 2.172l-1.748 3.029l-2.297 2.551l-0.84 1.902z" />
  </g>
  <g data-id="049">
    <path d="m810.234 890.003l0.374 15.005l-0.098 31.277l0.918 28.798l22.033 -0.246l7.451 -0.17l-0.123 -6.184l-0.238 -8.805l14.782 -0.343l14.71 -0.516l-0.435 -14.812l-0.287 -14.841l-0.206 -29.635l-29.342 0.293l-14.85 0.036l-14.688 0.143z" />
  </g>
  <g data-id="051">
    <path d="m725.785 727.586l0.258 59.92l29.901 0.312l0.021 -2.575l24.883 0.438l0.118 -29.651l0.034 -28.672l-25.225 0.218l-29.989 0.01z" />
  </g>
  <g data-id="053">
    <path d="m0 299.788l0.442 1.594l1.125 1.769l1.251 2.046l1.042 0.482l1.595 -1.008l1.607 -0.404l1.008 0.705l0.751 -1.731l1.324 -1.27l1.171 0.693l2.085 1.98l-0.128 1.937l-0.736 1.282l1.257 0.589l1.178 0.104l1.571 -0.187l1.071 -1.024l0.3 1.647l0.52 1.063l0.66 1.041l1.013 -0.161l1.12 -0.116l1.488 -0.32l0.943 1.006l1.024 -0.332l1.097 2.368l0.967 2.209l1.326 1.032l0.173 1.248l0.355 1.19l1.103 0.419l0.309 2.937l1.367 0.127l1.039 3.118l-0.046 1.61l0.754 2.26l1.071 2l1.137 1.457l0.074 1.309l0.452 1.047l1.014 1.013l0.76 1.531l-0.078 1.026l-0.166 1.309l23.688 7.688l1.294 0.363l1.11 0.242l18.164 5.119l12.103 3.304l3.648 1.083l13.068 3.555l4.757 1.412l27.337 7.613l7.11 1.947l1.787 0.525l1.393 0.445l3.45 0.915l5.216 1.504l4.186 1.086l12.585 7.42l-0.016 -42.421l-46.782 -0.139l0.052 -31.325l-46.904 0.056l0.071 -15.776l-15.542 -0.027l0.078 -31.456l-3.164 -0.018l-3.666 4.59l-4.826 4.264l-2.086 1.204l-1.501 1.299l-1.276 1.815l-4.042 3.43l-2.127 1.114l-6.905 2.392l-7.911 1.75l-9.192 3.826l-3.458 1.086l-5.161 2.869l-2.625 -0.91l-2.596 1.293l-8.71 6.278z" />
  </g>
  <g data-id="055">
    <path d="m575.005 620.098l-0.335 45.924l60.436 0.117l0.145 -52.701l-1.962 -2.719l-3.313 -0.267l-0.865 -5.328l-7.529 -0.044l-2.273 4.255l-0.309 1.867l-1.484 1.78l-3.097 1.958l-1.207 2.905l0.501 1.01l0.164 1.521l-2.908 4.349l-1.383 0.249l-2.004 -0.338l-2.121 -1.152l1.35 -6.051l0.032 -3.59l0.542 -1.441l1.995 -2.802l2.602 -1.968l1.309 -0.446l0.804 -1.397l0.522 -1.7l1.172 -6.392l-0.483 -1.149l0.15 -3.416l0.693 -4.596l1.684 -1.018l0.225 -3.77l-0.592 -1.821l-2.173 0.215l-3.427 2.797l-0.258 1.283l0.237 1.126l-1.667 6.104l-0.768 1.585l-3.099 3.798l0.623 1.258l3.607 -0.291l-0.285 2.922l-1.619 1.616l-4.475 9.907l-1.158 4.202l-0.323 2.663l-2.149 0.638l-2.149 -0.413l-1.014 -0.672l-22.364 -0.564z" />
  </g>
  <g data-id="057">
    <path d="m696.072 847.785l0.12 14.96l-0.071 14.933l1.283 0.005l-0.198 29.709l58.603 0.156l-0.016 -1.799l-0.248 -57.944l-14.841 -0.021l-14.847 0.028l-29.783 -0.026z" />
  </g>
  <g data-id="059">
    <path d="m698.504 1084.96l0.17 52.457l2.405 -0.037l-0.031 2.863l0.008 1.709l0.003 2.07l0.003 2.185l-0.008 1.907l7.011 -0.361l38.961 -1.114l4.812 -0.16l4.872 -0.127l-0.344 -61.558l-14.32 0.088l-28.934 0.432l-14.607 -0.354z" />
  </g>
  <g data-id="061">
    <path d="m178.461 279.048l-0.213 47.302l38.955 -0.079l0.051 -78.537l15.87 0.005l-0.03 -15.856l12.662 -0.092l0.281 -1.415l0.583 -4.664l4.092 -1.05l3.19 -4.86l1.454 -1.418l0.792 -1.274l1.071 -3.762l0.637 -3.356l0.095 -2.02l0.405 -1.342l1.237 -0.755l5.3 -3.305l1.159 -2.944l0.147 -1.078l-0.296 -1.136l0.98 -2.131l1.21 -0.973l1.13 -0.305l1.522 0.912l1.361 0.143l0.966 -1.201l-1.31 -2.287l0.082 -3.002l0.639 -2.659l0.987 -1.803l-8.676 -0.136l-0.069 -15.882l-26.661 0.027l-7.692 7.356l-1.363 0.668l-3.113 0.638l-1.718 1.204l-2.092 1.024l-2.003 0.213l-2.003 1.193l-3.406 2.631l-3.751 3.492l-4.33 5.526l-1.708 0.973l-1.473 -0.084l-3.126 1.75l-4.165 4.835l-5.117 2.659l-1.82 2.645l-1.31 4.937l-1.287 3.133l-1.104 1.825l0.106 48.889l8.566 -0.041l-0.071 15.617l-15.622 -0.147z" />
  </g>
  <g data-id="063">
    <path d="m864.735 794.978l0.931 4.93l1.67 1.374l0.944 1.18l0.101 10.589l43.565 -1.36l63.91 -2.581l-0.748 -8.526l-0.623 -1.213l-0.233 -1.608l0.14 -2.163l-1.959 -10.839l-1.337 -1.094l-0.39 -1.204l0.538 -1.382l-1.535 -2.671l-2.897 -2.746l-1.857 -5.938l-2.04 -5.247l-2.334 -4.232l-1.307 -2.932l-0.907 -1.134l-2.344 -1.877l-2.271 -0.438l-1.25 -2.411l-4.984 -2.364l-5.345 -1.424l-1.742 -1.026l-3.266 -3.399l-1.612 0.194l-2.309 1.252l-1.16 -0.195l-1.347 -0.492l-2.909 3.006l-1.069 0.406l-3.163 0.232l-2.745 5.119l-1.52 1.648l-2.568 0.893l-3.563 -0.376l-1.604 0.399l-1.777 1.355l-1.315 0.643l-4.399 1.273l-1.883 -0.178l-3.923 0.37l-4.302 1.298l-0.931 3.019l-1.665 3.141l-2.921 2.696l-1.62 0.844l-7.045 -0.242l-4.009 -0.138l0.753 1.848l3.403 0.824l3.117 0.891l2.139 0.929l-2.014 4.386l-3.068 1.713l-2.547 1.665l-3.076 1.235l-0.745 -2.349l1.174 -3.725l-2.319 -1.429l-2.083 4.508l0.081 2.56l-1.811 3.088l-0.163 2.776l-1.889 2.941l-2.026 3.709z" />
  </g>
  <g data-id="065">
    <path d="m726.452 966.944l-0.036 17.733l0.222 26.492l0.109 14.811l29.431 -0.459l27.993 0.014l0.014 -14.188l-0.529 -15.46l-0.68 -14.543l-0.988 -15.55l-25.667 0.147l-18.575 1.04l-11.293 -0.037z" />
  </g>
  <g data-id="067">
    <path d="m637.791 907.402l0.015 15.231l0.057 14.642l0.288 29.67l29.404 -0.154l29.626 0.052l0.024 -59.451l-29.749 -0.233l-14.811 0.116l-14.855 0.127z" />
  </g>
  <g data-id="069">
    <path d="m815.91 666.722l0.332 60.636l39.818 -0.301l1.423 -5.999l0.12 -2.224l0.472 -2.887l1.422 -3.642l1.611 -2.335l1.996 -2.12l1.055 -0.506l2.606 -0.607l2.059 0.218l2.154 0.953l0.384 1.399l1.629 -0.758l1.306 -3.157l0.616 -1.177l1.559 -1.272l3.525 -4.531l1.161 -0.839l1.524 0.039l1.046 0.455l1.4 -1.869l-0.339 -3.062l0.186 -2.532l1.513 -5.597l-0.371 -1.842l-0.319 -2.483l0.043 -2.655l1.151 -7.29l-0.075 -4.483l-71.007 0.469z" />
  </g>
  <g data-id="071">
    <path d="m178.247 326.35l0.028 15.824l0.016 42.421l5.27 3.085l1.992 1.175l10.304 6.013l0.796 1.3l1.082 0.489l1.831 0.732l1.081 0.837l1.273 -0.383l0.137 -1.134l1.109 -0.363l1.571 0.034l-0.551 1.352l0.191 1.403l1.548 -0.433l1.206 -0.153l1.702 -1.076l1.967 -0.133l1.193 0.814l0.341 1.571l1.008 -0.543l1.451 -0.288l1.925 0.672l1.086 0.648l0.561 1.909l0.773 1.207l3.301 1.49l1.693 -0.661l1.22 -0.025l0.326 -1.804l0.515 -2.19l0.749 -1.189l1.017 0.567l0.443 1.591l1.135 -0.247l1.139 -1.23l2.069 -0.21l1.738 0.218l0.943 -1.11l1.298 0.075l1.066 -0.073l1.049 0.502l0.758 2.999l0.954 1.492l1.688 0.065l0.537 -1.254l1.144 -0.345l1.397 0.57l0.505 1.319l1.324 -0.05l1.7 1.142l0.721 1.319l1.159 -0.427l1.028 -0.37l1.749 -0.266l0.452 -1.36l6.322 3.853l1.761 1.589l1.375 0.107l1.069 0.575l1.072 0.908l1.13 -0.714l1.867 -0.43l1.13 -0.361l1.151 -0.657l0.444 1.178l0.507 1.12l1.172 0.531l1.171 -0.235l1.093 0.312l1.645 0.324l0.528 -1.421l2.451 1.074l0.672 1.095l1.083 0.481l2.2 0.544l2.364 1.645l1.114 0.9l0.138 -58.619l0.104 -31.36l-70.307 -0.034l-38.955 0.079z" />
  </g>
  <g data-id="073">
    <path d="m665.735 787.798l0.477 59.981l29.86 0.006l29.783 0.026l0.188 -60.305l-60.308 0.292z" />
  </g>
  <g data-id="075">
    <path d="m711.995 1026.06l-0.014 14.709l0.208 14.833l0.682 14.764l0.24 14.951l28.934 -0.432l14.32 -0.088l14.449 0.032l8.469 -0.088l5.98 0.373l0.149 -30.074l-0.046 -29.495l-1.196 -0.007l-27.993 -0.014l-29.431 0.459l-14.752 0.079z" />
  </g>
  <g data-id="077">
    <path d="m581.304 1026.19l-0.101 15.05l0.32 44.246l29.205 -0.232l29.421 -0.143l-0.421 -29.409l-0.295 -28.082l0.06 -1.283l-29.184 -0.283l-1.336 0.015l-27.67 0.121z" />
  </g>
  <g data-id="079">
    <path d="m635.252 613.438l-0.145 52.701l60.345 0.216l0.452 -60.962l-55.515 -0.277l-4.495 1.569l1.393 4.79l-2.035 1.962z" />
  </g>
  <g data-id="081">
    <path d="m578.087 877.546l-0.027 15.064l0.27 29.827l0.784 19.866l-0.006 6.326l0.021 3.6l-0.049 15.002l14.891 0.017l14.707 -0.007l29.473 -0.296l-0.288 -29.67l-0.057 -14.642l-0.015 -15.231l0.033 -15.01l-0.016 -15.053l-29.906 -0.014l-1.344 0.003l-28.47 0.218z" />
  </g>
  <g data-id="083">
    <path d="m345.506 144.096l1.658 1.065l2.686 0.504l2.147 0l1.764 -1.961l-0.659 -1.067l-4.019 -0.401l-1.775 1.077l-1.801 0.783z" />
    <path d="m239.515 166.723l-1.454 1.391l26.661 -0.027l0.069 15.882l8.855 -0.029l1.898 -1.744l2.266 0.033l3.892 -1.294l3.887 -4.282l1.81 -2.874l1.077 -0.728l1.497 -0.409l3.17 -4.68l1.422 -1.663l5.448 -1.93l3.416 -3.014l2.564 -1.834l1.276 -0.342l1.503 0.033l1.012 -1.483l-1.143 -2.427l-1.895 -1.306l-0.379 -1.125l0.067 -1.067l1 -2.367l1.929 -0.519l7.416 -1.018l3.191 0.037l1.055 0.097l1.678 0.809l2.43 1.05l1.883 -1.358l4.407 -1.2l1.704 -1.184l1.12 -0.14l2.641 0.884l1.106 -0.068l-0.439 -7.093l-1.857 -1.717l-3.24 -2.144l-5.552 -2.325l-1.97 0.241l-10.128 -0.531l-3.901 -0.715l-6.204 -0.126l-7.665 0.632l-0.992 1.108l-3.518 0.417l-1.107 -0.223l-6.795 1.158l-1.364 0.48l-3.904 0.45l-4.497 1.648l-0.075 1.321l-1.127 1.199l-1.463 0.946l-5.751 1.399l-2.28 1.881l-2.578 1.599l-8.167 3.527l-3.649 2.443l-5.07 5.769l-1.402 2.258l-0.906 2.615l-2.879 3.676z" />
    <path d="m145.273 58.822l0.533 1.066l2.802 2.297l-0.753 1.177l4.087 0.275l1.2 1.709l-0.059 1.42l4.365 1.752l4.198 -0.856l2.017 -1.319l6.443 -3.144l1.493 -0.587l2.714 -0.518l2.973 -1.668l10.902 -4.443l1.584 -1.74l-6.806 1.897l-2.249 -0.85l-2.894 0.652l-1.277 -0.906l0.223 -2.257l5.048 -2.791l4.883 -2.697l0.693 -1.423l2.354 -1.435l5.779 -2.243l2.606 0.02l5.01 -2.561l2.449 -0.408l6.721 -2.615l6.056 -3.045l11.279 -8.822l0.592 -1.025l-0.103 -2.059l-0.273 -1.721l1.388 -1.748l6.875 -5.234l3.273 -2.992l2.015 -2.845l1.234 -1.062l1.274 -0.892l2.764 -0.647l1.141 -2.549l-0.544 -1.987l-3.077 1.51l-1.561 -0.167l-2.786 0.729l-1.239 0.833l-1.14 1.365l-2.956 0.541l-2.783 -1.798l-3.92 2.345l-4.449 1.418l-5.358 2.915l-2.158 2.257l-0.179 1.257l-1.1 0.872l-1.364 0.98l-1.278 -0.087l-2.825 1.702l-2.031 1.71l-2.473 1.418l-0.946 1.072l-0.031 1.674l-1.934 1.396l-2.861 1.456l-3.154 -0.282l-7.244 4.107l-0.171 1.067l-2.494 1.565l-1.561 0.199l-1.668 0.004l-6.655 3.23l-3.016 1.823l-9.607 4.591l-10.487 6.135l-4.415 3.94l-0.854 1.086l0.078 1.345l-0.702 1.008l-2.598 1.292l-1.009 2.31z" />
  </g>
  <g data-id="085">
    <path d="m546.475 726.435l0.528 20.832l-0.103 10.019l0.278 30.178l59.393 0.022l-0.265 -60.663l-32.058 0.116l-27.772 -0.503z" />
  </g>
  <g data-id="087">
    <path d="m869.117 887.874l-0.003 1.656l0.206 29.635l0.287 14.841l0.427 14.109l14.576 -0.402l29.204 -0.999l14.896 -0.869l-1.575 -44.488l-0.521 -22.424l-14.815 0.212l-0.171 -7.445l-29.234 0.823l0.338 14.939l-13.616 0.412z" />
  </g>
  <g data-id="089">
    <path d="m577.773 494.837l0.771 1.741l1.901 2.072l0.354 -1.301l-0.043 -2.217l-0.787 -1.752l-2.197 1.457z" />
    <path d="m566.525 501.693l1.202 3.916l4.981 7.705l0.945 -4.646l-1.116 -4.282l-2.92 -2.08l-3.091 -0.612z" />
    <path d="m543.789 555.535l0.577 6.311l0.996 1.647l1.911 1.546l2.155 2.638l0.85 1.396l1.963 1.387l2.558 -1.19l-0.025 -1.828l-0.714 -1.379l-0.162 -1.112l0.457 -4.596l0.5 -1.356l-0.046 -3.126l-1.575 -2.25l-2.065 -0.83l-3.401 -0.473l-1.406 -0.206l-1.869 1.291l-0.702 2.13z" />
    <path d="m542.948 614.786l-0.167 4.681l16.989 -0.039l15.236 0.671l21.849 -0.091l0.401 -2.645l-0.581 -3.651l-1.222 -3.665l-0.115 -3.077l0.428 -4.391l0.434 -1.699l0.701 -1.165l1.792 -5.441l2.931 -0.995l-0.04 -8.389l-0.243 -2.951l-2.061 2.957l-1.588 1.306l-1.975 -1.277l1.707 -3.385l0.727 -1.633l2.586 -1.876l1.183 -1.528l0.309 -3.323l0.89 -2.05l1.281 -0.531l0.727 2.084l0.988 -2.801l-0.91 -1.624l-1.23 -0.517l-3.256 -7.468l-0.631 -2.488l1.814 -3.847l1.17 -0.689l2.066 -0.41l1.123 0.271l1.59 -2.373l1.91 -1.069l1.268 -2.823l-1.719 -3.697l-1.321 -0.102l-1.341 1.812l-0.355 1.414l-2.665 2.156l-2.62 0.338l-0.776 -1.09l-5.353 6.88l-2.353 5.236l-0.101 1.89l-0.678 2.274l-1.826 2.872l-2.067 1.917l-3.569 1.777l-2.637 5.678l-1.181 1.462l-0.601 2.581l-0.259 3.091l-3.638 5.872l-1.005 0.738l-2.586 0.949l-2.268 0.372l-1.942 -0.156l-1.259 -0.754l-1.45 -2.556l-3.037 -1.858l-1.967 -0.085l-1.311 2.555l-1.327 2.393l-1.11 0.916l-0.695 1.073l-0.706 2.594l-0.924 1.525l-1.539 1.078l-2.101 0.101l-1.519 -0.586l-1.209 -0.807l-0.892 -1.472l-2.565 0.826l-1.515 2.67l-0.185 1.955l0.169 3.414l0.635 5.386l0.008 2.348l-0.722 2.959z" />
    <path d="m532.337 578.484l0.233 1.438l2.644 0.975l2.243 -0.392l2.769 -1.545l-0.959 -1.813l0.112 -1.438l2.649 -0.805l-1.757 -1.891l-3.091 -1.235l-2.522 0.962l-2.056 4.408l-0.266 1.337z" />
  </g>
  <g data-id="091">
    <path d="m756.366 1084.8l0.36 61.557l28.232 -1.055l14.371 -0.625l2.564 -0.026l12.378 -0.525l2.402 -0.02l2.623 -0.195l12.041 -0.384l-1.346 -60.235l-29.26 1.486l-15.466 0.34l-5.98 -0.373l-8.469 0.088l-14.449 -0.032z" />
  </g>
  <g data-id="093">
    <path d="m781.988 965.794l0.988 15.55l0.68 14.543l0.529 15.46l-0.014 14.188l1.196 0.007l13.458 0.108l9.838 -0.037l34.958 -1.19l-0.762 -14.977l-0.776 -14.696l-0.708 -15.171l-0.464 -14.914l-7.451 0.17l-22.033 0.246l-29.44 0.712z" />
  </g>
  <g data-id="095">
    <path d="m568.783 310.926l-0.012 47.098l78.348 -0.144l-0.004 -92.604l-2.372 0.424l-4.121 1.593l-9.988 5.63l-14.027 6.069l-3.425 0.846l-4.123 0.277l-5.6 -0.066l-4.65 -0.771l-5.519 -0.281l-5.704 0.591l-4.521 -0.039l-5.536 -0.676l-5.763 -1.423l-2.935 -0.234l-0.048 33.71z" />
  </g>
  <g data-id="097">
    <path d="m728.959 408.743l0.857 1.406l1.042 1.364l0.708 -2.044l-0.263 -1.317l-1.377 -0.763l-0.967 1.354z" />
    <path d="m721.818 406.007l-0.039 3.59l0.915 1.323l1.679 -1.32l1.093 -1.292l-0.842 -1.335l-1.929 -2.14l-0.875 1.174z" />
    <path d="m720.384 426.748l1.453 1.833l1.307 0.468l2.174 2.974l1.848 1.936l0.855 1.687l0.328 1.168l3.249 1.879l1.457 1.138l3.103 4.601l1.969 1.76l0.228 1.735l0.822 1.322l2.094 1.172l1.867 -0.275l2.266 0.768l2.625 0.294l1.39 0.822l1.63 -0.126l1.476 -0.932l-0.032 -1.374l2.754 -1.876l0.251 -1.863l1.74 -2.382l-5.859 -2.669l-0.962 -2.297l-1.052 -1.708l-0.045 1.24l-0.196 1.277l-1.4 1.068l-7.555 -3.335l-2.685 -0.856l-2.992 0.408l-4.988 -2.195l-1.367 -1.022l-1.705 -4.634l-0.659 -1.792l-1.788 -2.852l-2.41 -1.428l-1.191 4.062z" />
    <path d="m568.771 358.024l-0.047 49.796l2.873 0.541l1.224 -0.448l0.847 -1.537l1.032 -0.567l3.363 0.333l2.461 1.123l3.413 1.11l2.42 -0.042l3.378 0.944l4.152 -1.232l1.159 -1.199l0.763 -1.799l3.857 -4.453l1.739 -3.941l7.861 -8.86l2.409 -2.103l1.109 -0.625l1.573 -0.399l2.436 0.101l4.199 2.02l0.849 -1.338l1.658 -1.689l1.855 0.095l2.278 1.076l1.554 2.417l1.845 -0.853l1.3 -0.956l2.536 -0.092l2.454 1.078l3.569 2.581l2.662 1.17l5.481 0.916l3.121 2.846l5.683 -1.053l1.398 0.202l1.299 0.634l3.44 2.445l1.759 0.74l4.152 0.941l5.196 2.226l1.298 0.835l3.753 3.596l4.55 5.425l2.455 4.541l1.82 1.257l2.883 1.405l0.822 1.083l2.541 1.742l1.333 0.344l0.577 1.64l-0.106 1.353l0.884 1.7l4.826 2.394l5.719 4.142l2.655 -0.26l0.371 -1.717l2.046 -0.365l-1.136 -3.099l-0.724 -1.431l-1.59 -5.944l2.592 -1.62l-0.712 -2.048l-1.76 -0.968l-0.791 -1.613l1.148 -3.482l0.892 -1.093l2.385 -0.651l2.028 -0.065l0.418 -1.121l-1.04 -7.097l-0.004 -1.809l0.676 -1.414l1.435 -2.003l1.14 -0.806l1.267 -0.39l1.119 0.531l4.815 4.19l2.807 -0.03l2.835 -1.057l2.434 1.727l1.372 3.083l0.373 2.578l-0.525 2.383l0.282 1.561l2.289 -0.332l-0.006 -2.867l3.762 -0.181l0.119 1.08l2.49 2.394l2.497 -1.607l1.805 3.503l6.528 4.744l2.893 -1.743l2.904 -2.62l9.378 0.032l2.096 -2.071l7.509 -0.284l4.653 -1.102l3.314 -0.542l0.012 -1.228l-15.633 0.043l0.056 -15.571l-15.516 -0.021l-0.052 -15.571l-93.566 -0.05l-0.102 -15.785l-15.554 0.053l-78.348 0.144z" />
  </g>
  <g data-id="099">
    <path d="m913.815 946.714l0.931 29.99l0.499 15l0.193 5.295l0.377 9.874l0.295 9.904l0.141 4.943l7.326 -0.17l2.332 -0.106l4.376 -0.149l4.452 -0.084l8.116 -0.144l-1.685 -3.526l0.2 -4.946l0.987 -3.813l1.774 -2.934l1.149 -1.372l0.212 -1.153l1.887 -2.055l1.649 -0.489l3.036 -0.051l1.525 1.255l0.374 -1.357l-0.825 -1.9l-0.108 -1.667l-0.005 -1.828l-2.748 -1.273l-1.137 -2.615l0.825 -2.462l2.024 -2.242l2.061 0.306l1.903 -0.593l1.12 -1.739l3.779 -2.856l2.314 -0.126l-2.678 -3.833l-0.086 -2.513l-0.424 -12.23l-0.706 -17.858l-15.822 0.391l-14.738 0.257l-14.896 0.869z" />
  </g>
  <g data-id="101">
    <path d="m504.433 722.536l-0.849 1.878l42.892 2.021l27.772 0.503l0.423 -60.916l-51.929 -0.93l-0.655 2.907l-0.625 2.233l-0.646 1.037l-0.336 3.074l-0.03 2.417l0.44 2.952l0.03 2.416l-0.48 3.491l-2.097 9.727l-3.942 6.483l-1.969 4.186l-1.407 3.69l-2.062 2.346l-0.98 3.518l-1.4 3.715l-2.15 3.248z" />
  </g>
  <g data-id="103">
    <path d="m287.51 326.306l-0.104 31.36l62.686 -0.006l-0.187 46.969l31.135 0.125l15.61 0.037l0.172 -31.329l15.661 0.01l-0.06 -60.803l-1.352 0.208l-5.949 -0.641l-3.415 1.22l-7.036 0.467l-6.499 -0.683l-5.036 -1.585l-1.961 -1.189l-1.822 -1.813l-0.992 -1.303l-0.586 -1.582l0.46 -1.706l1.835 -0.829l-0.824 -1.188l-1.327 -3.12l1.397 -1.674l-0.289 -2.365l-2.413 -0.39l-0.986 -1.173l-3.928 -0.201l-1.094 -0.572l-1.591 -1.616l-0.432 -2.077l-0.05 -1.709l-3.11 -1.262l-1.27 -0.898l-2.676 -5.477l0.142 -1.985l-6.233 -5.826l-1.192 -1.833l-1.002 -4.098l-0.567 -5.461l-1.584 -0.996l-2.51 -3.056l-0.652 -1.268l-1.073 -0.297l-1.202 0.241l-1.343 -0.501l-1.218 -0.96l-0.145 -1.311l-0.17 -1.711l-0.765 -1.01l-0.628 1.82l-1.111 0.976l-2.392 0.301l-1.702 -0.387l-0.87 -1.698l-0.301 -1.874l-0.535 -3.293l-1.856 0.876l-1.264 -0.158l-1.351 -1.006l0.062 -1.054l-0.768 -1.329l-1.341 -0.176l-2.502 -1.316l-1.741 -0.309l-1.757 0.978l-4.161 -1.501l-3.223 -3.128l-6.953 0.116l-3.762 0.566l-2.272 -0.187l-3.511 -0.349l-1.517 -0.655l0.003 18.94l-0.023 7.926l6.661 0.035l-0.02 15.679l-15.527 0.133l-0.091 46.941z" />
  </g>
  <g data-id="105">
    <path d="m487.614 745.395l-0.005 1.773l0.739 2.635l0.886 1.884l2.299 3.601l0.746 1.549l1.767 3.673l1.911 9.198l0.307 4.918l1.442 5.912l0.339 2.579l0.017 3.691l49.116 0.657l-0.278 -30.178l0.103 -10.019l-0.528 -20.832l-42.892 -2.021l-1.376 3.04l-2.902 5.529l-1.094 1.688l-2.125 2.403l-6.692 5.281l-1.038 1.343l-0.742 1.697z" />
  </g>
  <g data-id="107">
    <path d="m606.571 787.486l0.011 59.96l59.63 0.334l-0.477 -59.981l-44.262 -0.196l-14.903 -0.117z" />
  </g>
  <g data-id="109">
    <path d="m317.634 513.101l0.455 1.035l0.403 2.315l0.46 1.026l1.511 0.938l0.164 1.273l1.666 -0.491l0.355 -1.045l1.047 0.078l2.105 -0.13l1.201 -0.416l1.267 0.029l2.051 0.394l1.47 0.503l1.002 -0.185l1.967 -1.564l0.618 -1.1l1.814 -2.317l1.319 -0.668l1.066 -1.193l1.189 -0.337l1.906 1.311l2.206 2.436l0.193 1.075l0.28 1.512l0.763 1.595l-0.084 1.037l-0.956 1.519l-0.715 1.682l-1.727 2.395l-1.52 1.75l-0.358 1.383l-0.985 1.555l-0.026 1.676l-1.334 2.082l-0.001 1.011l-0.292 1.672l-0.088 1.102l-1.496 1.025l0.351 1.133l-0.7 1.401l0.098 1.119l-1.27 1.416l-0.674 1.144l0.815 3.644l0.01 1.082l1.316 0.724l0.832 1.115l1.225 0.913l1.634 0.971l1.393 1.131l1.01 1.607l0.421 2.437l1.294 1.411l0.267 1.029l1.47 0.202l1.509 0.08l1.059 0.458l1.591 0.577l2.875 0.951l-1.029 -1.473l-1.243 -1.97l-0.243 -1.635l0.342 -1.583l1.06 -2.572l1.892 -3.464l2.777 -3.132l1.805 -1.333l4.576 -5.791l5.888 -8.712l3.285 -3.56l0.206 -2.148l0.696 -1.933l3.961 -5.853l0.934 -3.503l3.514 -3.469l0.607 -2.01l1.082 -1.408l1.836 -1.355l1.05 -1.77l-0.276 -1.18l-0.536 -1.848l1.817 -4.027l1.697 -1.885l2.173 -4.649l3.06 -8.727l-7.904 -0.125l0.264 -62.167l-5.282 -0.055l-0.022 -15.512l-31.135 -0.125l-0.038 15.659l-9.937 0.001l-0.027 31.521l-18.695 0.144l1.183 0.937l3.123 1.004l0.906 1.132l0.011 1.642l2.157 1.541l0.864 1.221l-0.025 1.146l-1.792 0.465l-3.474 1.537l0.059 1.19l-0.176 1.597l1.737 1.502l0.714 1.751l1.037 1.225l1.915 1.335l0.575 3l-0.12 1.66l-1.056 0.81l-0.206 1.617l-0.129 1.243l-1.15 1.038l-1.07 -0.132l-2.904 -1.056l-0.531 1.114l0.797 1.232l1.052 0.628l1.453 1.529l0.474 1.161l-0.169 1.029l0.065 1.171l0.242 1.862l0.434 1.416l0.753 1.126l-0.632 1.514l-0.142 1.126l-0.991 1.079l0.139 1.06l-0.9 1.254l-1.01 1.095l-1.424 0.879l-1.544 1.177l-1.31 1.252l-0.799 1.229l0.158 1.952l0.527 1.318l0.818 1.172l0.043 1.005l-1.226 0.872l0.287 1.043l-0.98 1.401l-1.111 0.689z" />
  </g>
  <g data-id="111">
    <path d="m726.043 787.506l-0.188 60.305l14.847 -0.028l14.841 0.021l0.012 -2.673l24.884 -0.068l0.306 -14.977l0.144 -29.608l-0.043 -14.797l-24.883 -0.438l-0.021 2.575l-29.901 -0.312z" />
  </g>
  <g data-id="113">
    <path d="m634.556 681.356l0.453 45.423l30.902 0.153l29.443 0.499l-0.468 -48.044l0.565 -13.031l-60.345 -0.216l-0.55 15.216z" />
  </g>
  <g data-id="115">
    <path d="m829.99 1083.29l1.346 60.235l6.772 -0.268l2.948 -0.217l2.423 -0.084l2.046 -0.083l1.239 -0.051l5.547 -0.234l1.211 -0.032l10.145 -0.369l6.309 -0.184l2.433 -0.739l1.285 -0.616l-0.404 -1.587l-1.275 -3.262l-0.731 -3.254l0.212 -3.272l0.933 -1.662l1.485 -0.623l1.589 -1.349l1.671 -3.796l1.782 -3.004l1.188 -0.604l0.782 1.505l2.321 -1.738l1.454 -2.324l0.29 -2.944l0.952 -2.971l1.27 -1.836l1.618 -1.206l1.971 -0.222l2.2 0.899l1.528 -1.966l0.035 -1.502l0.975 -2.136l2.586 -2.502l1.45 -0.213l0.939 -1.206l0.091 -1.564l2.263 -0.19l1.132 -2.208l-0.543 -1.693l-4.229 -3.322l-5.576 -3.392l-2.398 -3.443l-2.545 -0.758l-14.6 0.113l-14.82 1.342l-13.386 0.287l-1.258 -0.116l-14.653 0.362z" />
  </g>
  <g data-id="117">
    <path d="m606.581 847.446l-0.024 29.882l1.344 -0.003l29.906 0.014l0.016 15.053l-0.033 15.01l14.855 -0.127l14.811 -0.116l29.749 0.233l0.198 -29.709l-1.283 -0.005l0.071 -14.933l-0.12 -14.96l-29.86 -0.006l-59.63 -0.334z" />
  </g>
  <g data-id="119">
    <path d="m755.952 545.175l-0.64 60.747l19.826 0.043l40.542 -0.324l-0.244 -30.68l1.275 -0.025l-0.334 -22.809l0.211 -7.544l-17.595 0.647l-28.052 -0.054l-14.988 -0.002z" />
  </g>
  <g data-id="121">
    <path d="m494.173 846.723l1.68 6.937l1.701 6.072l1.238 3.636l2.172 6.377l1.509 3.814l8.234 17.228l1.696 3.545l0.615 1.404l3.01 6.869l0.81 1.849l1.094 3.021l30.601 0.016l14.939 -0.109l-0.119 -14.901l14.706 0.129l0.027 -15.064l-31.043 -0.089l-0.067 -29.894l-52.804 -0.84z" />
  </g>
  <g data-id="123">
    <path d="m546.977 847.563l0.067 29.894l31.043 0.089l28.47 -0.218l0.024 -29.882l-0.011 -59.96l-59.393 -0.022l-0.201 60.1z" />
  </g>
  <g data-id="125">
    <path d="m840.551 949.678l0.238 8.805l0.123 6.184l0.464 14.914l0.708 15.171l0.776 14.696l0.762 14.977l14.104 -0.675l14.762 -0.639l7.279 -0.273l7.326 -0.25l14.149 -0.46l2.817 -0.1l1.754 -0.058l1.871 -0.055l1.24 -0.038l7.329 -0.156l-0.141 -4.943l-0.295 -9.904l-0.377 -9.874l-0.193 -5.295l-0.499 -15l-0.931 -29.99l-29.204 0.999l-14.576 0.402l-14.702 1.219l-14.782 0.343z" />
  </g>
  <g data-id="127">
    <path d="m484.356 817.028l-0.016 1.974l0.302 2.702l1.123 4.147l1.162 2.888l5.113 10.579l1.315 4.025l0.818 3.38l52.804 0.84l0.201 -60.1l-49.116 -0.657l-0.79 5.205l-0.966 3.075l-2.053 4.303l-2.536 3.726l-3.556 4.581l-2.356 3.582l-1.162 3.297l-0.288 2.452z" />
  </g>
  <g data-id="129">
    <path d="m755.448 667.029l0.331 53.009l0.209 4.931l-0.214 2.607l25.225 -0.218l35.243 0l-0.332 -60.636l-60.462 0.307z" />
  </g>
  <g data-id="131">
    <path d="m66.084 263.489l3.164 0.018l-0.078 31.456l15.542 0.027l-0.071 15.776l46.904 -0.056l-0.052 31.325l46.782 0.139l-0.028 -15.824l0.213 -47.302l15.622 0.147l0.071 -15.617l-8.566 0.041l-0.106 -48.889l-1.339 2.212l-1.919 2.131l-1.673 1.172l-1.798 0.89l-1.402 0.353l-3.07 0.036l-0.742 -1.103l-1.319 0.315l-2.95 1.996l-2.953 0.59l-2.44 -0.216l-1.507 -1.418l-1.294 0.297l-1.736 1.417l-3.204 3.538l-4.156 6.292l-3.298 3.328l-2.652 1.761l-15.351 8.396l-5.387 2.448l-2.735 0.817l-4.309 0.393l-2.462 -0.199l-2.834 -0.618l-2.716 1.088l-4.263 0.734l-6.186 2.368l-1.95 -0.109l-0.914 -1.068l-2.295 -1.044l-1.593 -0.397l-5.859 0.514l-8.793 2.181l-5.158 2.631l-2.086 1.522l-5.055 5.51z" />
  </g>
  <g data-id="133">
    <path d="m606.306 726.823l0.265 60.663l14.903 0.117l44.262 0.196l0.176 -60.868l-30.902 -0.153l-13.697 0.02l-15.007 0.025z" />
  </g>
  <g data-id="135">
    <path d="m755.312 605.922l0.137 61.107l60.462 -0.307l-0.231 -61.05l-40.542 0.293l-19.826 -0.043z" />
  </g>
  <g data-id="137">
    <path d="m694.637 559.706l0.99 15.402l0.277 30.285l59.408 0.528l0.64 -60.747l-45.931 -0.567l-0.062 15.418l-15.322 -0.319z" />
  </g>
  <g data-id="139">
    <path d="m517.933 907.475l2.167 5.981l0.516 2.807l0.056 1.625l0.724 1.335l1.445 5.797l0.561 3.294l0.239 1.4l1.261 11.824l0.097 2.265l0.162 3.781l0.425 4.164l-0.135 4.411l0.119 8.412l0.247 2.773l5.287 -0.103l3.687 -0.034l1.292 -0.01l30.686 0.154l12.311 -0.119l0.049 -15.002l-0.021 -3.6l0.006 -6.326l-0.784 -19.866l-0.27 -29.827l-14.706 -0.129l0.119 14.901l-14.939 0.109l-30.601 -0.016z" />
  </g>
  <g data-id="141">
    <path d="m770.267 469.144l0.33 61.246l0.343 14.786l28.052 0.054l17.595 -0.647l45.888 -0.896l15.777 0.003l-2.289 -3.556l-0.811 -2.084l-0.02 -1.225l3.065 -1.627l0.786 -2.486l-0.816 -1.408l-1.601 -0.472l-2.661 -1.989l-0.344 -1.071l-0.987 -1.222l-1.578 -1.23l-4.013 -5.558l-1.378 -2.485l-3.234 1.673l-2.947 -2.081l-1.061 0.983l-2.943 0.967l-3.612 -0.953l-5.561 -3.404l-3.016 -2.306l-3.67 -2.057l-3.06 -3.036l-1.937 0.42l-2.28 -0.016l-2.199 -1.115l-1.949 0.158l-2.229 -0.488l-4.362 -2.871l-2.126 -2.061l-2.905 -3.747l-3.455 -3.185l-3.721 -1.32l-4.841 -0.169l-2.54 0.531l-1.403 -0.697l-2.402 -0.384l-1.393 0.623l-2.021 0.781l-2.455 -0.212l-2.513 -1.205l-1.666 -1.403l-0.931 -1.404l-0.702 -1.914l-0.582 -3.324l0.055 -2.531l-0.292 -1.011l-1.324 -2.04l-2.206 -2.069l-2.922 -3.452l-1.94 -3.003l-1.021 -1.011l-5.971 0.2z" />
  </g>
  <g data-id="143">
    <path d="m694.886 679.387l0.468 48.044l30.43 0.155l29.989 -0.01l0.214 -2.607l-0.209 -4.931l-0.331 -53.009l-12.541 -0.615l-47.456 -0.059l-0.565 13.031z" />
  </g>
  <g data-id="145">
    <path d="m755.557 845.132l-0.012 2.673l0.248 57.944l24.965 -0.031l29.851 -0.71l-0.374 -15.005l14.688 -0.143l14.85 -0.036l0.045 -17.951l-0.406 -11.454l-0.038 -14.837l-14.848 -0.016l0.056 -7.456l-12.35 -0.049l-16.851 -0.247l0.123 -7.456l-14.756 -0.272l-0.306 14.977l-24.884 0.068z" />
  </g>
  <g data-id="147">
    <path d="m927.136 901.358l1.575 44.488l14.738 -0.257l15.822 -0.391l0.706 17.858l0.424 12.23l0.086 2.513l2.912 3.357l2.557 -0.634l1.401 0.508l1.812 1.433l0.817 1.085l1.469 -0.486l1.934 1.227l0.271 2.363l-0.887 2.013l-1.183 0.051l-1.561 -1.489l-1.902 1.933l0.436 1.955l-1.34 0.164l-1.809 -0.074l1.03 1.439l0.275 1.085l-2.677 0.95l-1.527 1.491l0.236 1.191l1.078 0.787l1.624 -0.427l1.059 2.386l-1.457 2.841l1.173 0.416l-0.388 6.255l2.476 -2.794l0.614 -1.151l1.612 -1.446l1.91 -1.128l1.072 -0.03l1.007 0.446l1.222 0.976l2.16 -0.311l1.32 -2.486l1.175 -1.393l1.732 -1.505l0.778 -1.343l3.295 -2.91l0.569 -1.087l1.105 -3.974l-0.075 -4.735l2.004 -6.058l1.327 -2.917l0.033 -2.66l2.014 -4.812l0.011 -1.257l-0.47 -2.502l-1.154 -3.11l-0.207 -1.083l0.425 -2.82l0.744 -1.975l0.465 -2.646l0.093 -1.158l-0.226 -3.803l0.015 -1.029l0.734 -2.387l1.126 -4.334l0.925 -1.744l2.376 -2.546l1.482 -2.494l0.471 -1.78l-0.922 -1.265l-0.525 -1.527l0.245 -1.133l-0.022 -1.354l-4.304 -9.114l-1.728 -4.497l-1.872 -2.55l-0.571 -2.684l-0.447 -4.376l-0.932 -3.068l-0.187 -1.248l-5.218 0.246l-56.38 2.297z" />
  </g>
  <g data-id="149">
    <path d="m578.792 1137.5l1.221 0.064l3.07 0.009l3.24 0.001l8.093 -0.003l1.126 0l2.252 -0.011l1.262 0.019l1.786 -0.024l11.25 -0.054l10.715 -0.029l6.663 -0.032l3.618 -0.006l2.442 -0.012l1.561 0l1.248 -0.019l1.221 0.012l0.592 -52.297l-29.421 0.143l-29.205 0.232l0.344 45.425l-1.08 2.25l-2.129 1.356l0.133 2.975z" />
  </g>
  <g data-id="151">
    <path d="m911.628 871.701l0.171 7.445l14.815 -0.212l0.521 22.424l56.38 -2.297l5.218 -0.246l-0.715 -4.763l-1.279 -2.74l-0.495 -2.164l-1.163 -13.794l0.372 -1.798l-0.089 -3.016l-0.833 -2.526l0.146 -3.359l-0.538 -9.338l0.169 -1.585l-0.117 -1.023l-1.752 -4.572l-1.495 -5.673l-0.023 -1.006l-2.494 -7.075l-1.016 -6.464l-0.515 -1.474l-0.323 -2.228l-0.66 -11.487l0.119 -1.623l-0.175 -1.996l-63.91 2.581l1.751 59.954l-2.07 0.054z" />
  </g>
  <g data-id="153">
    <path d="m475.035 342.002l-0.025 31.534l15.672 0.093l-0.013 47.11l3.889 -0.005l-0.094 24.797l2.524 -0.471l0.967 -1.269l0.453 -1.408l-0.081 -1.236l0.514 -1.294l1.106 -0.725l1.788 -0.29l0.73 1.016l3.234 0.087l2.281 -1.591l-0.425 -1.294l0.741 -5.163l2.062 -3.166l1.048 -9.737l1.031 -1.646l4.744 -4.815l2.903 -1.183l2.642 0.51l1.633 -2.35l1.535 -0.736l1.454 -0.037l4.647 1.693l1.155 -0.131l3.324 -1.842l3.599 -0.352l2.834 0.25l2.637 0.559l6.507 2.019l5.597 2.576l4.183 2.808l1.289 -0.201l-0.871 -1.018l-1.097 -0.776l-0.024 -1.076l0.434 -1.831l1.704 -1.938l1.987 -1.47l1.343 -0.246l2.129 0.065l0.047 -49.796l0.012 -47.098l-62.462 -0.199l-0.004 31.516l-31.281 -0.242z" />
  </g>
  <g data-id="155">
    <path d="m755.792 905.749l0.016 1.799l0.512 58.393l25.667 -0.147l29.44 -0.712l-0.918 -28.798l0.098 -31.277l-29.851 0.71l-24.965 0.031z" />
  </g>
  <g data-id="157">
    <path d="m839.297 824.441l-0.008 6.176l0.083 14.965l0.038 14.837l0.406 11.454l-0.045 17.951l29.342 -0.293l0.003 -1.656l13.616 -0.412l-0.338 -14.939l29.234 -0.823l2.07 -0.054l-1.751 -59.954l-43.565 1.36l-0.101 -10.589l-1.573 2.23l-2.244 1.481l-1.848 -1.068l-1.261 -0.67l-1.496 1.764l-3.391 3.517l-1.189 1.629l-1.083 1.485l-3.406 4.944l-5.05 6.216l-4.435 2.359l-2.007 -1.907z" />
  </g>
  <g data-id="159">
    <path d="m507.412 1054.34l-1.082 1.862l17.653 -0.041l0.078 28.967l14.373 0.115l43.09 0.248l-0.32 -44.246l0.101 -15.05l-63.608 0.243l-0.373 1.009l-1.011 1.946l0.065 1.227l-1.589 6.148l-3.077 8.021l-4.299 9.553z" />
  </g>
  <g data-id="161">
    <path d="m785.413 1055.04l-0.149 30.074l15.466 -0.34l29.26 -1.486l14.653 -0.362l1.258 0.116l13.386 -0.287l-0.338 -14.948l-0.203 -14.863l-0.477 -14.654l-0.545 -14.538l-14.104 0.675l-34.958 1.19l-9.838 0.037l-13.458 -0.108l0.046 29.495z" />
  </g>
  <g data-id="163">
    <path d="m857.724 1023.75l0.545 14.538l0.477 14.654l0.203 14.863l0.338 14.948l14.837 -0.367l14.583 -1.088l2.545 0.758l2.398 3.443l4.853 3.395l4.952 3.319l0.036 -3.848l-0.169 -1.508l2.035 -1.974l1.62 -2.121l3.012 -0.438l1.523 -6.331l-1.574 -8.256l0.322 -4.724l0.368 -5.399l2.183 -4.365l1.546 -4.281l2.351 -3.824l1.949 -1.537l5.721 -2.028l3.71 -0.456l3.648 -1.217l1.749 -1.301l2.679 -0.8l-0.605 -1.245l1.212 -2.536l2.586 -1.861l1.25 -2.165l0.287 -1.675l0.342 -1.257l1.627 -5.979l-7.274 0.045l-4.916 0.133l-4.764 0.178l-2.332 0.106l-7.326 0.17l-7.329 0.156l-1.24 0.038l-1.871 0.055l-1.754 0.058l-2.438 0.085l-14.528 0.475l-6.38 0.213l-8.217 0.31l-14.77 0.639z" />
  </g>
  <g data-id="165">
    <path d="m574.67 666.023l-0.423 60.916l32.058 -0.116l15.007 -0.025l13.697 -0.02l-0.453 -45.423l0.55 -15.216l-60.436 -0.117z" />
  </g>
</svg>
